<svg xmlns="http://www.w3.org/2000/svg" width="32" height="32" fill="none" viewBox="0 0 32 32"><path fill="#000" d="M8 13V8a1 1 0 0 1 1-1h14a1 1 0 0 1 1 1v5a1 1 0 0 1-1 1H9a1 1 0 0 1-1-1m18 5H6a1 1 0 0 0-1 1v5a1 1 0 0 0 1 1h20a1 1 0 0 0 1-1v-5a1 1 0 0 0-1-1" opacity=".08"/><path fill="#000" d="M26 17h-9v-2h6a2 2 0 0 0 2-2V8a2 2 0 0 0-2-2h-6V4a1 1 0 0 0-2 0v2H9a2 2 0 0 0-2 2v5a2 2 0 0 0 2 2h6v2H6a2 2 0 0 0-2 2v5a2 2 0 0 0 2 2h9v2a1 1 0 0 0 2 0v-2h9a2 2 0 0 0 2-2v-5a2 2 0 0 0-2-2M9 8h14v5H9zm17 16H6v-5h20z"/></svg>