<svg xmlns="http://www.w3.org/2000/svg" width="32" height="32" fill="none" viewBox="0 0 32 32"><path fill="#000" d="M25 10v12a1 1 0 0 1-1 1h-5a1 1 0 0 1-1-1V10a1 1 0 0 1 1-1h5a1 1 0 0 1 1 1M13 4H8a1 1 0 0 0-1 1v17a1 1 0 0 0 1 1h5a1 1 0 0 0 1-1V5a1 1 0 0 0-1-1" opacity=".08"/><path fill="#000" d="M8 24h5a2 2 0 0 0 2-2V5a2 2 0 0 0-2-2H8a2 2 0 0 0-2 2v17a2 2 0 0 0 2 2M8 5h5v17H8zm20 22a1 1 0 0 1-1 1H5a1 1 0 0 1 0-2h22a1 1 0 0 1 1 1m-9-3h5a2 2 0 0 0 2-2V10a2 2 0 0 0-2-2h-5a2 2 0 0 0-2 2v12a2 2 0 0 0 2 2m0-14h5v12h-5z"/></svg>