<svg xmlns="http://www.w3.org/2000/svg" width="32" height="32" fill="none" viewBox="0 0 32 32"><path fill="#000" d="M29 21v3a1 1 0 0 1-1 1H4a1 1 0 0 1-1-1v-2.859C3 13.956 8.769 8.025 15.954 8A13 13 0 0 1 29 21" opacity=".08"/><path fill="#000" d="M22 19.5a1.5 1.5 0 1 1-3 0 1.5 1.5 0 0 1 3 0M11.5 18a1.5 1.5 0 1 0 0 3 1.5 1.5 0 0 0 0-3M30 21v3a2 2 0 0 1-2 2H4a2 2 0 0 1-2-2v-2.859A14.17 14.17 0 0 1 6.425 10.84L3.293 7.707a1 1 0 1 1 1.415-1.414l3.27 3.27a13.925 13.925 0 0 1 16.068-.023l3.25-3.25a1 1 0 1 1 1.415 1.415l-3.108 3.108q.14.132.28.27A13.9 13.9 0 0 1 30 21m-2 0A12 12 0 0 0 16 9h-.043C9.365 9.023 4 14.469 4 21.141V24h24z"/></svg>