<svg xmlns="http://www.w3.org/2000/svg" width="32" height="32" fill="none" viewBox="0 0 32 32"><path fill="#000" d="m28 9-2 15-10 5-10-5L4 9l12-5z" opacity=".08"/><path fill="#000" d="m28.385 8.078-12-5a1 1 0 0 0-.77 0l-12 5a1 1 0 0 0-.606 1.055l2 15a1 1 0 0 0 .544.762l10 5a1 1 0 0 0 .895 0l10-5a1 1 0 0 0 .543-.762l2-15a1 1 0 0 0-.606-1.055m-3.306 15.265L16 27.883l-9.079-4.54L5.093 9.625 16 5.084l10.907 4.541zm-9.954-12.828-5 9a1.001 1.001 0 0 0 1.75.97L13.25 18h5.5l1.375 2.485a1 1 0 1 0 1.75-.97l-5-9a1 1 0 0 0-1.75 0M17.634 16h-3.268L16 13.059z"/></svg>