<svg xmlns="http://www.w3.org/2000/svg" width="32" height="32" fill="none" viewBox="0 0 32 32"><path fill="#000" d="M22.455 20H9.545L16 9.078z" opacity=".08"/><path fill="#000" d="m8.043 24.509-1.182 2A1 1 0 1 1 5.14 25.49l1.182-2a1 1 0 1 1 1.722 1.018M29 19h-5.975l-3.841-6.5a1 1 0 1 0-1.722 1.018l7.677 12.99a1 1 0 1 0 1.722-1.017L24.207 21H29a1 1 0 0 0 0-2m-11.191 0h-6.512l8.564-14.491A1 1 0 1 0 18.14 3.49L16 7.111l-2.139-3.625a1 1 0 1 0-1.722 1.018l2.7 4.568L8.975 19H3a1 1 0 1 0 0 2h14.809a1 1 0 0 0 0-2"/></svg>