<svg xmlns="http://www.w3.org/2000/svg" width="32" height="32" fill="none" viewBox="0 0 32 32"><path fill="#000" d="M30 16a4 4 0 0 1-4 4v5a1 1 0 0 1-1 1H7a1 1 0 0 1-1-1v-5a4 4 0 1 1 0-8V9a4 4 0 0 1 4-4h12a4 4 0 0 1 4 4v3a4 4 0 0 1 4 4" opacity=".08"/><path fill="#000" d="M27 11.1V9a5 5 0 0 0-5-5H10a5 5 0 0 0-5 5v2.1a5 5 0 0 0 0 9.8V25a2 2 0 0 0 2 2h18a2 2 0 0 0 2-2v-4.1a5 5 0 0 0 0-9.8M10 6h12a3 3 0 0 1 3 3v2.1a5.01 5.01 0 0 0-4 4.9H11a5.01 5.01 0 0 0-4-4.9V9a3 3 0 0 1 3-3m16.049 13h-.05a1 1 0 0 0-1 1v5H7v-5a1 1 0 0 0-1-1h-.048A3 3 0 1 1 9 16v5a1 1 0 1 0 2 0v-3h10v3a1 1 0 1 0 2 0v-5a3 3 0 1 1 3.049 3"/></svg>