<svg xmlns="http://www.w3.org/2000/svg" width="32" height="32" fill="none" viewBox="0 0 32 32"><path fill="#000" d="M26 6v6l-6-6zM6 26h6l-6-6zm20 0v-6l-6 6zM6 12l6-6H6z" opacity=".08"/><path fill="#000" d="M12.293 18.293 9 21.586l-2.293-2.293A1 1 0 0 0 5 20v6a1 1 0 0 0 1 1h6a1 1 0 0 0 .707-1.707L10.415 23l3.294-3.293a1 1 0 1 0-1.415-1.415M7 25v-2.586L9.586 25zm3.414-16 2.294-2.293A1 1 0 0 0 12 5H6a1 1 0 0 0-1 1v6a1 1 0 0 0 1.707.707L9 10.415l3.293 3.294a1 1 0 1 0 1.415-1.415zM7 9.586V7h2.586zM26 5h-6a1 1 0 0 0-.707 1.707L21.586 9l-3.293 3.293a1 1 0 1 0 1.415 1.415L23 10.414l2.293 2.294A1 1 0 0 0 27 12V6a1 1 0 0 0-1-1m-1 4.586L22.414 7H25zm1.383 9.49a1 1 0 0 0-1.09.216L23 21.587l-3.293-3.293a1 1 0 1 0-1.415 1.415L21.587 23l-2.293 2.293A1 1 0 0 0 20 27h6a1 1 0 0 0 1-1v-6a1 1 0 0 0-.617-.924M25 25h-2.586L25 22.414z"/></svg>