<svg xmlns="http://www.w3.org/2000/svg" width="32" height="32" fill="none" viewBox="0 0 32 32"><path fill="#000" d="M4 23h8l-4 4zm16 0 4 4 4-4z" opacity=".08"/><path fill="#000" d="M28.924 22.618A1 1 0 0 0 28 22h-3v-5a1 1 0 0 0-.292-.707L17 8.586V3a1 1 0 0 0-2 0v5.586l-7.707 7.707A1 1 0 0 0 7 17v5H4a1 1 0 0 0-.707 1.707l4 4a1 1 0 0 0 1.415 0l4-4A1 1 0 0 0 12 22H9v-4.586l7-7 7 7V22h-3a1 1 0 0 0-.707 1.707l4 4a1 1 0 0 0 1.415 0l4-4a1 1 0 0 0 .216-1.09M8 25.586 6.414 24h3.172zm16 0L22.414 24h3.172z"/></svg>