<svg xmlns="http://www.w3.org/2000/svg" width="32" height="32" fill="none" viewBox="0 0 32 32"><path fill="#000" d="m16 3 4 4h-8zm0 26 4-4h-8zm9-17v8l4-4zM3 16l4 4v-8z" opacity=".08"/><path fill="#000" d="M12 8h3v4a1 1 0 1 0 2 0V8h3a1 1 0 0 0 .708-1.708l-4-4a1 1 0 0 0-1.415 0l-4 4A1 1 0 0 0 12 8m4-3.586L17.586 6h-3.172zM20 24h-3v-4a1 1 0 0 0-2 0v4h-3a1 1 0 0 0-.707 1.707l4 4a1 1 0 0 0 1.415 0l4-4A1 1 0 0 0 20 24m-4 3.586L14.414 26h3.172zm13.708-12.294-4-4A1 1 0 0 0 24 12v3h-4a1 1 0 0 0 0 2h4v3a1 1 0 0 0 1.708.707l4-4a1 1 0 0 0 0-1.415M26 17.586v-3.172L27.586 16zM12 17a1 1 0 1 0 0-2H8v-3a1 1 0 0 0-1.707-.708l-4 4a1 1 0 0 0 0 1.415l4 4A1 1 0 0 0 8 20v-3zm-6 .586L4.414 16 6 14.414z"/></svg>