<svg xmlns="http://www.w3.org/2000/svg" width="32" height="32" fill="none" viewBox="0 0 32 32"><path fill="#000" d="M28 17 16 29 4 17h6v-4h12v4z" opacity=".08"/><path fill="#000" d="M28.924 16.618A1 1 0 0 0 28 16h-5v-3a1 1 0 0 0-1-1H10a1 1 0 0 0-1 1v3H4a1 1 0 0 0-.707 1.707l12 12a1 1 0 0 0 1.415 0l12-12a1 1 0 0 0 .216-1.09M16 27.586 6.414 18H10a1 1 0 0 0 1-1v-3h10v3a1 1 0 0 0 1 1h3.586zM9 5a1 1 0 0 1 1-1h12a1 1 0 0 1 0 2H10a1 1 0 0 1-1-1m0 4a1 1 0 0 1 1-1h12a1 1 0 0 1 0 2H10a1 1 0 0 1-1-1"/></svg>