<svg xmlns="http://www.w3.org/2000/svg" width="32" height="32" fill="none" viewBox="0 0 32 32"><path fill="#000" d="m5 6 6 6H5zm16 14 6 6v-6z" opacity=".08"/><path fill="#000" d="M11.924 12.383a1 1 0 0 0-.216-1.09L9.135 8.72C10.76 7.356 13.104 6 16 6c4.494 0 7.266 2.68 7.295 2.71a1 1 0 0 0 1.412-1.418C24.574 7.16 21.353 4 16 4c-2.92 0-5.766 1.138-8.285 3.301L5.707 5.293A1 1 0 0 0 4 6v6a1 1 0 0 0 1 1h6a1 1 0 0 0 .924-.617M6 11V8.414L8.586 11zm21 8h-6a1 1 0 0 0-.707 1.707l2.572 2.573C21.24 24.644 18.896 26 16 26c-4.48 0-7.25-2.665-7.295-2.709a1 1 0 1 0-1.412 1.416C7.428 24.842 10.648 28 16 28c2.92 0 5.766-1.137 8.285-3.301l2.008 2.008A1 1 0 0 0 28 26v-6a1 1 0 0 0-1-1m-1 4.586L23.414 21H26z"/></svg>