<svg xmlns="http://www.w3.org/2000/svg" width="32" height="32" fill="none" viewBox="0 0 32 32"><path fill="#000" d="M27 6v6h-6zM5 26l6-6H5z" opacity=".08"/><path fill="#000" d="M27.383 5.076a1 1 0 0 0-1.09.217L24.285 7.3C21.766 5.138 18.92 4 16 4c-5.352 0-8.572 3.159-8.707 3.293a1 1 0 1 0 1.414 1.414C8.734 8.68 11.468 6 16 6c2.896 0 5.24 1.356 6.865 2.72l-2.572 2.573A1 1 0 0 0 21 13h6a1 1 0 0 0 1-1V6a1 1 0 0 0-.617-.924M26 11h-2.586L26 8.414zm-2.707 12.293C23.266 23.32 20.533 26 16 26c-2.896 0-5.24-1.356-6.865-2.72l2.573-2.573A1 1 0 0 0 11 19H5a1 1 0 0 0-1 1v6a1 1 0 0 0 1.707.707L7.716 24.7C10.234 26.862 13.08 28 16 28c5.352 0 8.573-3.159 8.708-3.293a1 1 0 1 0-1.415-1.415M6 21h2.586L6 23.586z"/></svg>