<svg xmlns="http://www.w3.org/2000/svg" width="32" height="32" fill="none" viewBox="0 0 32 32"><path fill="#000" d="M24 14h-6V8zM14 24v-6H8z" opacity=".08"/><path fill="#000" d="M26.708 5.293a1 1 0 0 0-1.415 0L21 9.586l-2.292-2.293A1 1 0 0 0 17 8v6a1 1 0 0 0 1 1h6a1 1 0 0 0 .708-1.707L22.414 11l4.294-4.292a1 1 0 0 0 0-1.415M19 13v-2.586L21.586 13zm-5 4H8a1 1 0 0 0-.707 1.708L9.586 21l-4.293 4.293a1 1 0 1 0 1.415 1.415L11 22.414l2.293 2.294A1 1 0 0 0 15 24v-6a1 1 0 0 0-1-1m-1 4.586L10.414 19H13z"/></svg>