<svg xmlns="http://www.w3.org/2000/svg" width="32" height="32" fill="none" viewBox="0 0 32 32"><path fill="#000" d="m28.991 12.133-1.733 13a1 1 0 0 1-.992.867H5.734a1 1 0 0 1-.991-.867l-1.734-13A1 1 0 0 1 4 11h24a1 1 0 0 1 .991 1.133" opacity=".08"/><path fill="#000" d="M17 15v7a1 1 0 1 1-2 0v-7a1 1 0 0 1 2 0m12.982-2.736L28.25 25.265A2 2 0 0 1 26.266 27H5.734a2 2 0 0 1-1.984-1.735l-1.734-13A2 2 0 0 1 4 10h4.546l6.704-7.659a1 1 0 0 1 1.5 0L23.454 10H28a2 2 0 0 1 1.981 2.264zM11.204 10h9.592L16 4.519zM28 12H4l1.734 13h20.532zm-6.395 2.9-.7 7A1 1 0 0 0 21.8 23a1 1 0 0 0 .101 0 1 1 0 0 0 .994-.9l.7-7a1 1 0 0 0-1.99-.2m-11.21 0a1 1 0 0 0-1.99.2l.7 7a1 1 0 0 0 1 .9 1 1 0 0 0 .101 0 1 1 0 0 0 .895-1.095z"/></svg>