<svg xmlns="http://www.w3.org/2000/svg" width="32" height="32" fill="none" viewBox="0 0 32 32"><path fill="#000" d="m20 20-7 7-8-8 7-7z" opacity=".08"/><path fill="#000" d="m30.707 5.293-4-4a1 1 0 1 0-1.415 1.415l.185.183-6.896 5.173-4.777.956a1 1 0 0 0-.512.273L2.875 19.708a3 3 0 0 0 0 4.242l5.175 5.175a3 3 0 0 0 4.242 0l10.415-10.414a1 1 0 0 0 .273-.511l.956-4.777 5.173-6.897.183.185a1.002 1.002 0 0 0 1.415-1.415zM13 25.586 6.414 19 12 13.414 18.586 20zM10.17 28a1 1 0 0 1-.706-.293l-5.173-5.172a1 1 0 0 1 0-1.414L5 20.414 11.586 27l-.711.707a1 1 0 0 1-.704.293M22.2 12.4a1 1 0 0 0-.18.404l-.941 4.704-1.08 1.078L13.415 12l1.078-1.079 4.704-.941a1 1 0 0 0 .404-.18l7.306-5.48.774.774z"/></svg>