<svg xmlns="http://www.w3.org/2000/svg" width="32" height="32" fill="none" viewBox="0 0 32 32"><path fill="#000" d="M30 19H20a5 5 0 1 1 10 0m-18.25-3.5h-.5a3.75 3.75 0 0 0 0-7.5H4v16h7.75a4.25 4.25 0 0 0 0-8.5" opacity=".08"/><path fill="#000" d="M20 10a1 1 0 0 1 1-1h8a1 1 0 1 1 0 2h-8a1 1 0 0 1-1-1m-3 9.75A5.25 5.25 0 0 1 11.75 25H4a1 1 0 0 1-1-1V8a1 1 0 0 1 1-1h7.25a4.75 4.75 0 0 1 3.206 8.25A5.25 5.25 0 0 1 17 19.75M5 14.5h6.25a2.75 2.75 0 1 0 0-5.5H5zm10 5.25a3.25 3.25 0 0 0-3.25-3.25H5V23h6.75A3.25 3.25 0 0 0 15 19.75M31 19a1 1 0 0 1-1 1h-8.875a4 4 0 0 0 7.074 1.4 1 1 0 0 1 1.6 1.201A6 6 0 1 1 31 19m-2.125-1a4 4 0 0 0-7.75 0z"/></svg>