<svg xmlns="http://www.w3.org/2000/svg" width="32" height="32" fill="none" viewBox="0 0 32 32"><path fill="#000" d="M26 24H6a1 1 0 0 1-.86-1.5C5.964 21.075 7 17.476 7 13a9 9 0 0 1 18 0c0 4.477 1.038 8.075 1.863 9.5A1 1 0 0 1 26 24" opacity=".08"/><path fill="#000" d="M21 28a1 1 0 0 1-1 1h-8a1 1 0 0 1 0-2h8a1 1 0 0 1 1 1m6.731-4A1.98 1.98 0 0 1 26 25H6a2 2 0 0 1-1.725-3.008C4.969 20.798 6 17.419 6 13a10 10 0 1 1 20 0c0 4.416 1.032 7.797 1.726 8.993A1.99 1.99 0 0 1 27.73 24zM26 23c-.966-1.659-2-5.494-2-10a8 8 0 0 0-16 0c0 4.508-1.035 8.343-2 10z"/></svg>