<svg xmlns="http://www.w3.org/2000/svg" width="32" height="32" fill="none" viewBox="0 0 32 32"><path fill="#000" d="M19 10a3 3 0 1 1-5.999 0A3 3 0 0 1 19 10M5 19a3 3 0 1 0 0 6 3 3 0 0 0 0-6m22 0a3 3 0 1 0 0 5.999A3 3 0 0 0 27 19" opacity=".08"/><path fill="#000" d="M27.634 18.051A12.09 12.09 0 0 0 22.624 11H30a1 1 0 1 0 0-2H19.875a4 4 0 0 0-7.75 0H2a1 1 0 0 0 0 2h7.375a12.09 12.09 0 0 0-5.009 7.051 4 4 0 1 0 2.019.199 10.07 10.07 0 0 1 5.99-6.57 4 4 0 0 0 7.257 0 10.08 10.08 0 0 1 5.983 6.57 4 4 0 1 0 2.019-.196zM7 22a2 2 0 1 1-4 0 2 2 0 0 1 4 0m9-10a2 2 0 1 1 0-4 2 2 0 0 1 0 4m11 12a2 2 0 1 1 0-4 2 2 0 0 1 0 4"/></svg>