<svg xmlns="http://www.w3.org/2000/svg" width="32" height="32" fill="none" viewBox="0 0 32 32"><path fill="#000" d="M28 15.728v4.284c-1.821 6.384-10.279 8.614-11.774 8.962a1 1 0 0 1-.452 0C14.279 28.625 5.82 26.396 4 20.013v-4.286a1 1 0 0 1 .684-.95L16 11l11.316 3.778a1 1 0 0 1 .684.95" opacity=".08"/><path fill="#000" d="M27.633 13.829 26 13.284V7a2 2 0 0 0-2-2h-7V3a1 1 0 0 0-2 0v2H8a2 2 0 0 0-2 2v6.284l-1.633.545A2 2 0 0 0 3 15.727v4.285q0 .14.039.274c1.965 6.886 10.765 9.258 12.508 9.663.298.068.608.068.906 0 1.743-.405 10.543-2.777 12.508-9.663a1 1 0 0 0 .039-.274v-4.285a2 2 0 0 0-1.367-1.898M8 7h16v5.616l-7.684-2.565a1 1 0 0 0-.632 0L8 12.616zm19 12.868c-.723 2.375-2.569 4.396-5.494 6.015A22.7 22.7 0 0 1 16 28a22.7 22.7 0 0 1-5.5-2.117c-2.93-1.62-4.777-3.642-5.5-6.015v-4.142l10-3.337V21a1 1 0 0 0 2 0v-8.611l10 3.339z"/></svg>