<svg xmlns="http://www.w3.org/2000/svg" width="32" height="32" fill="none" viewBox="0 0 32 32"><path fill="#000" d="M28.136 12.805a3.5 3.5 0 0 1-4.49.662 1 1 0 0 0-1.25.134L13.6 22.4a1 1 0 0 0-.134 1.25 3.501 3.501 0 1 1-6.428 1.313 3.5 3.5 0 1 1 1.314-6.427 1 1 0 0 0 1.25-.134L18.4 9.604a1 1 0 0 0 .133-1.25A3.5 3.5 0 1 1 24.96 7.04a3.5 3.5 0 0 1 3.176 5.765" opacity=".08"/><path fill="#000" d="M28.959 7.611A4.48 4.48 0 0 0 25.98 6.02a4.5 4.5 0 1 0-8.296 2.865v.01l-8.789 8.795h-.012a4.501 4.501 0 1 0-2.865 8.296 4.5 4.5 0 1 0 8.296-2.865v-.01l8.794-8.795h.012a4.5 4.5 0 0 0 5.843-6.704zm-1.572 4.534a2.5 2.5 0 0 1-3.208.475 2 2 0 0 0-2.485.274l-8.8 8.8a2 2 0 0 0-.269 2.485 2.5 2.5 0 1 1-4.594.937 1 1 0 0 0-1.142-1.142 2.5 2.5 0 1 1 .932-4.599 2 2 0 0 0 2.485-.274l8.8-8.8a2 2 0 0 0 .269-2.48 2.5 2.5 0 1 1 4.594-.937 1 1 0 0 0 1.142 1.142 2.5 2.5 0 0 1 2.271 4.125z"/></svg>