<svg xmlns="http://www.w3.org/2000/svg" width="32" height="32" fill="none" viewBox="0 0 32 32"><path fill="#000" d="M6 9h8v14H6zm17.83-4.201a1 1 0 0 0-1.187-.777l-5.852 1.25a1.01 1.01 0 0 0-.768 1.197l1.45 6.906 7.808-1.678z" opacity=".08"/><path fill="#000" d="M28.956 24.319 24.808 4.594a2 2 0 0 0-2.375-1.549L16.58 4.302a2.01 2.01 0 0 0-1.537 2.375l4.148 19.726a2 2 0 0 0 2.375 1.552l5.852-1.257a2.01 2.01 0 0 0 1.537-2.38M17 6.269v-.012l5.85-1.25.416 1.984-5.85 1.259zm.828 3.934 5.852-1.257.418 1.988-5.848 1.257zm.83 3.946 5.852-1.258 1.662 7.905-5.852 1.258zM27 24.743l-5.85 1.25-.416-1.984 5.85-1.259.416 1.981zM13 4H7a2 2 0 0 0-2 2v20a2 2 0 0 0 2 2h6a2 2 0 0 0 2-2V6a2 2 0 0 0-2-2M7 6h6v2H7zm0 4h6v12H7zm6 16H7v-2h6z"/></svg>