<svg xmlns="http://www.w3.org/2000/svg" width="32" height="32" fill="none" viewBox="0 0 32 32"><path fill="#000" d="M4 21C5.152 16.992 5.5 9.919 4 6h14a1 1 0 0 1 1 1v8h5a6 6 0 0 1 6 6z" opacity=".08"/><path fill="#000" d="M24 14h-4V7a2 2 0 0 0-2-2H4a1 1 0 0 0-.934 1.358C4.45 9.963 4.161 16.82 3.04 20.724Q3 20.86 3 21v4a2 2 0 0 0 2 2h3.264a2 2 0 0 0 .895-.211L10.736 26h2.028l1.577.789c.278.139.585.211.895.211h3.528a2 2 0 0 0 .895-.211L21.236 26h2.028l1.577.789a2 2 0 0 0 .895.211H29a2 2 0 0 0 2-2v-4a7.01 7.01 0 0 0-7-7m-6-7v3h-4a1 1 0 0 0 0 2h4v2h-4a1 1 0 0 0 0 2h10a5.01 5.01 0 0 1 4.9 4H5.281c.843-3.855 1.02-9.271.077-13zm7.736 18-1.577-.789a2 2 0 0 0-.895-.211h-2.028a2 2 0 0 0-.895.211L18.764 25h-3.528l-1.577-.789a2 2 0 0 0-.895-.211h-2.028a2 2 0 0 0-.895.211L8.264 25H5v-3h24v3z"/></svg>