<svg xmlns="http://www.w3.org/2000/svg" width="32" height="32" fill="none" viewBox="0 0 32 32"><path fill="#000" d="M27 6v4a1 1 0 0 1-1 1h-4a1 1 0 0 1-1-1V6a1 1 0 0 1 1-1h4a1 1 0 0 1 1 1M10 5H6a1 1 0 0 0-1 1v4a1 1 0 0 0 1 1h4a1 1 0 0 0 1-1V6a1 1 0 0 0-1-1m16 16h-4a1 1 0 0 0-1 1v4a1 1 0 0 0 1 1h4a1 1 0 0 0 1-1v-4a1 1 0 0 0-1-1m-16 0H6a1 1 0 0 0-1 1v4a1 1 0 0 0 1 1h4a1 1 0 0 0 1-1v-4a1 1 0 0 0-1-1" opacity=".08"/><path fill="#000" d="M26 12a2 2 0 0 0 2-2V6a2 2 0 0 0-2-2h-4a2 2 0 0 0-2 2v1h-8V6a2 2 0 0 0-2-2H6a2 2 0 0 0-2 2v4a2 2 0 0 0 2 2h1v8H6a2 2 0 0 0-2 2v4a2 2 0 0 0 2 2h4a2 2 0 0 0 2-2v-1h8v1a2 2 0 0 0 2 2h4a2 2 0 0 0 2-2v-4a2 2 0 0 0-2-2h-1v-8zm-4-6h4v4h-4zM6 6h4v1.987a.1.1 0 0 0 0 .025V10H6zm4 20H6v-4h4v1.988a.1.1 0 0 0 0 .024zm16 0h-4v-4h4zm-3-6h-1a2 2 0 0 0-2 2v1h-8v-1a2 2 0 0 0-2-2H9v-8h1a2 2 0 0 0 2-2V9h8v1a2 2 0 0 0 2 2h1z"/></svg>