<svg xmlns="http://www.w3.org/2000/svg" width="32" height="32" fill="none" viewBox="0 0 32 32"><path fill="#000" d="M28 14a12 12 0 0 1-7 10.913V26a1 1 0 0 1-1 1h-8a1 1 0 0 1-1-1v-1.087A12 12 0 0 1 4 14z" opacity=".08"/><path fill="#000" d="M28 13h-1.046a11 11 0 0 0-21.908 0H4a1 1 0 0 0-1 1 13.04 13.04 0 0 0 7 11.535V26a2 2 0 0 0 2 2h8a2 2 0 0 0 2-2v-.465A13.04 13.04 0 0 0 29 14a1 1 0 0 0-1-1m-6.315-5.971q.345.28.659.593a11 11 0 0 0-6.144 5.376h-3.687A9.03 9.03 0 0 1 21 7q.343.001.685.029m1.989 2.275A8.9 8.9 0 0 1 24.942 13h-6.427a8.98 8.98 0 0 1 5.159-3.696M16 5c.802 0 1.601.109 2.375.321A11.05 11.05 0 0 0 10.416 13H7.057A9.01 9.01 0 0 1 16 5m4.583 19a1 1 0 0 0-.583.913V26h-8v-1.087a1 1 0 0 0-.582-.913 11.04 11.04 0 0 1-6.375-9h21.91a11.04 11.04 0 0 1-6.37 9"/></svg>