<svg xmlns="http://www.w3.org/2000/svg" width="32" height="32" fill="none" viewBox="0 0 32 32"><path fill="#000" d="M28 16c0 8-5 11-5 11H9s-5-3-5-11S9 5 9 5h14s5 3 5 11" opacity=".08"/><path fill="#000" d="M5 16c0 7.286 4.334 10.031 4.519 10.145a1 1 0 0 1-1.034 1.713C8.261 27.722 3 24.468 3 16S8.261 4.278 8.485 4.143a1 1 0 0 1 1.033 1.712C9.318 5.979 5 8.728 5 16M23.515 4.143a1 1 0 1 0-1.034 1.712C22.666 5.969 27 8.714 27 16s-4.334 10.031-4.515 10.142a1 1 0 1 0 1.03 1.716C23.739 27.722 29 24.468 29 16S23.739 4.278 23.515 4.143"/></svg>