<svg xmlns="http://www.w3.org/2000/svg" width="32" height="32" fill="none" viewBox="0 0 32 32"><path fill="#000" d="M13 6c0-3 3-5 3-5s3 2 3 5a3 3 0 0 1-6 0m13 6H6a2 2 0 0 0-2 2v2.917c0 2.18 1.709 4.022 3.888 4.082A4 4 0 0 0 12 17.001a4 4 0 1 0 8 0 4 4 0 0 0 4.113 4C26.29 20.94 28 19.098 28 16.918v-2.917a2 2 0 0 0-2-2" opacity=".08"/><path fill="#000" d="M29 14a3 3 0 0 0-3-3h-9V9.877A4.01 4.01 0 0 0 20 6C20 2.5 16.695.26 16.555.168a1 1 0 0 0-1.11 0C15.305.262 12 2.501 12 6.001a4.01 4.01 0 0 0 3 3.875V11H6a3 3 0 0 0-3 3v2.916a5.1 5.1 0 0 0 1 3.03V25a3 3 0 0 0 3 3h18a3 3 0 0 0 3-3v-5.054a5.1 5.1 0 0 0 1-3.03zM14 6c0-1.696 1.25-3.057 2-3.723.75.666 2 2.027 2 3.724a2 2 0 1 1-4 0m-9 8a1 1 0 0 1 1-1h20a1 1 0 0 1 1 1v2.917c0 1.656-1.308 3.039-2.915 3.082A3 3 0 0 1 21 17.001a1 1 0 0 0-2 0 3 3 0 0 1-6 0 1 1 0 0 0-2 0 3 3 0 0 1-3.085 3C6.308 19.956 5 18.573 5 16.917zm20 12H7a1 1 0 0 1-1-1v-3.43a4.85 4.85 0 0 0 1.86.43A4.96 4.96 0 0 0 12 20a5.002 5.002 0 0 0 8 0q.236.312.516.584A4.96 4.96 0 0 0 24 22.001h.142A4.85 4.85 0 0 0 26 21.57V25a1 1 0 0 1-1 1"/></svg>