<svg xmlns="http://www.w3.org/2000/svg" width="32" height="32" fill="none" viewBox="0 0 32 32"><path fill="#000" d="M26 8h-4l-2-3h-8l-2 3H6a2 2 0 0 0-2 2v14a2 2 0 0 0 2 2h20a2 2 0 0 0 2-2V10a2 2 0 0 0-2-2M16 21a4.5 4.5 0 1 1 0-9 4.5 4.5 0 0 1 0 9" opacity=".08"/><path fill="#000" d="M26 7h-3.465l-1.704-2.555A1 1 0 0 0 20 4h-8a1 1 0 0 0-.831.445L9.464 7H6a3 3 0 0 0-3 3v14a3 3 0 0 0 3 3h20a3 3 0 0 0 3-3V10a3 3 0 0 0-3-3m1 17a1 1 0 0 1-1 1H6a1 1 0 0 1-1-1V10a1 1 0 0 1 1-1h4a1 1 0 0 0 .832-.445L12.535 6h6.929l1.704 2.555A1 1 0 0 0 22 9h4a1 1 0 0 1 1 1zM16 11a5.5 5.5 0 1 0 5.5 5.5A5.506 5.506 0 0 0 16 11m0 9a3.5 3.5 0 1 1 0-7 3.5 3.5 0 0 1 0 7"/></svg>