<svg xmlns="http://www.w3.org/2000/svg" width="32" height="32" fill="none" viewBox="0 0 32 32"><path fill="#000" d="M22.5 13.5A6.5 6.5 0 0 1 16 20a3 3 0 0 0 3-3c0-3-3-5-3-5s-3 2-3 5a3 3 0 0 0 3 3 6.5 6.5 0 0 1-6.5-6.5C9.5 8 16 4 16 4s6.5 4 6.5 9.5" opacity=".08"/><path fill="#000" d="M16 21a7.51 7.51 0 0 0 7.5-7.5c0-5.99-6.691-10.176-6.976-10.351a1 1 0 0 0-1.048 0A19.5 19.5 0 0 0 12.03 6C9.721 8.391 8.5 10.988 8.5 13.5A7.51 7.51 0 0 0 16 21m-2-4c0-1.696 1.25-3.057 2-3.724.75.667 2 2.028 2 3.724a2 2 0 0 1-4 0m2-11.793C17.468 6.25 21.5 9.5 21.5 13.5a5.48 5.48 0 0 1-1.511 3.78q.01-.14.011-.28c0-3.5-3.305-5.739-3.445-5.832a1 1 0 0 0-1.11 0C15.305 11.26 12 13.5 12 17c0 .094 0 .188.011.28A5.48 5.48 0 0 1 10.5 13.5c0-4 4.034-7.25 5.5-8.293m11.953 23.095a1 1 0 0 1-1.257.65L16 25.55 5.304 28.953a.999.999 0 0 1-1.192-1.413 1 1 0 0 1 .585-.494l8-2.546-8-2.547a1 1 0 1 1 .607-1.905L16 23.45l10.696-3.402a1 1 0 1 1 .606 1.905l-8 2.547 8 2.546a1 1 0 0 1 .65 1.256"/></svg>