<svg xmlns="http://www.w3.org/2000/svg" width="32" height="32" fill="none" viewBox="0 0 32 32"><path fill="#000" d="M22.95 18.95C18 24 5.476 27.875 5.476 27.875a1 1 0 0 1-1.351-1.351S8 14 13.05 9.05a7 7 0 1 1 9.9 9.9" opacity=".08"/><path fill="#000" d="M29 8h-3.586l3.293-3.293a1.001 1.001 0 0 0-1.415-1.414L24 6.586V3a1 1 0 0 0-2 0v4.071a8 8 0 0 0-9.65 1.265C7.337 13.26 3.569 24.971 3.201 26.143A2 2 0 0 0 5.86 28.8c1.171-.367 12.897-4.141 17.809-9.151A8 8 0 0 0 24.928 10H29a1 1 0 1 0 0-2m-6.765 10.25c-1.117 1.14-2.656 2.225-4.356 3.216l-3.173-3.174a1 1 0 0 0-1.415 1.415l2.761 2.762c-5.108 2.648-10.79 4.427-10.875 4.453A1 1 0 0 0 5 27a1 1 0 0 0 .074-.176c.036-.117 3.5-11.198 8-16.334l4.221 4.221a1 1 0 0 0 1.415-1.415L14.523 9.11a6 6 0 0 1 7.712 9.14"/></svg>