<svg xmlns="http://www.w3.org/2000/svg" width="32" height="32" fill="none" viewBox="0 0 32 32"><path fill="#000" d="M21.3 21.4 24 25H8l2.7-3.6a1 1 0 0 1 .8-.4h9a1 1 0 0 1 .8.4M22 11a3 3 0 1 0 0 5.999A3 3 0 0 0 22 11m-9 3a3 3 0 1 0-5.999 0A3 3 0 0 0 13 14" opacity=".08"/><path fill="#000" d="M28 6H4a2 2 0 0 0-2 2v16a2 2 0 0 0 2 2h24a2 2 0 0 0 2-2V8a2 2 0 0 0-2-2M10 24l1.5-2h9l1.5 2zm18 0h-3.5l-2.4-3.2a2.01 2.01 0 0 0-1.6-.8h-9a2.01 2.01 0 0 0-1.6.8L7.5 24H4V8h24zm-6-14H10a4 4 0 1 0 0 8h12a4 4 0 1 0 0-8m-3.462 2a3.99 3.99 0 0 0 0 4h-5.075a3.99 3.99 0 0 0 0-4zM8 14a2 2 0 1 1 4 0 2 2 0 0 1-4 0m14 2a2 2 0 1 1 0-4 2 2 0 0 1 0 4"/></svg>