<svg xmlns="http://www.w3.org/2000/svg" width="32" height="32" fill="none" viewBox="0 0 32 32"><path fill="#000" d="M25 5v20a1 1 0 0 1-1 1H4a1.001 1.001 0 0 1-.707-1.707l20-20A1 1 0 0 1 25 5" opacity=".08"/><path fill="#000" d="m26.74 26.328-20-22A1 1 0 0 0 5.26 5.673l7.259 7.982-9.932 9.93A2 2 0 0 0 4 27h20q.291-.001.57-.085l.69.758a1 1 0 1 0 1.48-1.345M4 25l9.863-9.861L22.83 25zm12.023-13.436a1 1 0 0 1 0-1.414l6.563-6.562A2 2 0 0 1 26 5v14.954a1 1 0 0 1-2 0V5l-6.562 6.564a1 1 0 0 1-1.415 0"/></svg>