<svg xmlns="http://www.w3.org/2000/svg" width="32" height="32" fill="none" viewBox="0 0 32 32"><path fill="#000" d="M7 11V5a1 1 0 0 1 1-1h16a1 1 0 0 1 1 1v6a1 1 0 0 1-1 1H8a1 1 0 0 1-1-1m19 7H6a1 1 0 0 0-1 1v2a1 1 0 0 0 1 1h20a1 1 0 0 0 1-1v-2a1 1 0 0 0-1-1" opacity=".08"/><path fill="#000" d="M26 17h-4v-4h2a2 2 0 0 0 2-2V5a2 2 0 0 0-2-2H8a2 2 0 0 0-2 2v6a2 2 0 0 0 2 2h2v4H6a2 2 0 0 0-2 2v2a2 2 0 0 0 2 2h1v5a1 1 0 1 0 2 0v-5h14v5a1 1 0 0 0 2 0v-5h1a2 2 0 0 0 2-2v-2a2 2 0 0 0-2-2M8 5h16v6H8zm4 8h8v4h-8zm14 8H6v-2h20z"/></svg>