<svg xmlns="http://www.w3.org/2000/svg" width="32" height="32" fill="none" viewBox="0 0 32 32"><path fill="#000" d="M15 22c-5.587 0-5.462-7.234-4.475-13h8.95c.987 5.766 1.112 13-4.475 13" opacity=".08"/><path fill="#000" d="M18.739 1.691A1 1 0 0 0 17.788 1h-5.574a1 1 0 0 0-.951.691 56 56 0 0 0-1.777 7.463c-.907 5.531-.543 9.47 1.082 11.707A5 5 0 0 0 14 22.927V29h-2a1 1 0 0 0 0 2h6a1 1 0 0 0 0-2h-2v-6.073a5 5 0 0 0 3.433-2.066c1.625-2.237 1.99-6.176 1.082-11.707A56 56 0 0 0 18.74 1.69M12.949 3h4.104a53 53 0 0 1 1.225 5h-6.553a54 54 0 0 1 1.224-5m4.866 16.685C17.173 20.57 16.25 21 15 21s-2.171-.43-2.814-1.314c-1.448-1.994-1.367-5.936-.81-9.686h7.25c.558 3.75.64 7.69-.81 9.685M29 6.5a1.5 1.5 0 1 1-3 0 1.5 1.5 0 0 1 3 0m-6-4a1.5 1.5 0 1 1 3 0 1.5 1.5 0 0 1-3 0m3 10a1.5 1.5 0 1 1-3 0 1.5 1.5 0 0 1 3 0"/></svg>