<svg xmlns="http://www.w3.org/2000/svg" width="32" height="32" fill="none" viewBox="0 0 32 32"><path fill="#000" d="M28 16.171C27.91 22.634 22.635 27.91 16.173 28H16V21a5 5 0 0 0 .819-9.934.99.99 0 0 1-.819-.982V5a1 1 0 0 1 1.084-1C23.259 4.557 28.087 9.831 28 16.171" opacity=".08"/><path fill="#000" d="M17.174 3.008A2 2 0 0 0 15 5v5.084a1.98 1.98 0 0 0 1.656 1.97A4 4 0 1 1 12 16.21q-.075-1.544.625-2.533a1.98 1.98 0 0 0-.211-2.558L8.96 7.585a2 2 0 0 0-2.953.138 12.95 12.95 0 0 0 .867 17.533A12.9 12.9 0 0 0 16 29h.186A13.037 13.037 0 0 0 29 16.185c.094-6.787-5.101-12.575-11.826-13.177M7.54 8.992l3.451 3.524v.008A5.4 5.4 0 0 0 10.055 15h-5.01c.2-2.21 1.07-4.306 2.495-6.007M5.046 17h5.038A6 6 0 0 0 15 21.918v5.037A11 11 0 0 1 5.046 17m18.722 6.767A10.93 10.93 0 0 1 17 26.952v-5.033a5.95 5.95 0 0 0 3.091-1.53A6 6 0 0 0 17 10.083V5c5.69.51 10.084 5.41 10 11.156a10.93 10.93 0 0 1-3.233 7.611"/></svg>