<svg xmlns="http://www.w3.org/2000/svg" width="32" height="32" fill="none" viewBox="0 0 32 32"><path fill="#000" d="M28 7v16a1 1 0 0 1-1 1h-7.434a1 1 0 0 0-.857.485l-1.851 3.03a1 1 0 0 1-1.716 0l-1.85-3.03a1 1 0 0 0-.858-.485H5a1 1 0 0 1-1-1V7a1 1 0 0 1 1-1h22a1 1 0 0 1 1 1" opacity=".08"/><path fill="#000" d="M27 5H5a2 2 0 0 0-2 2v16a2 2 0 0 0 2 2h7.434l1.851 3.029a2.002 2.002 0 0 0 3.426.007L19.566 25H27a2 2 0 0 0 2-2V7a2 2 0 0 0-2-2m0 18h-7.434a2.01 2.01 0 0 0-1.711.964L16 27l-1.856-3.038a2.01 2.01 0 0 0-1.71-.962H5V7h22z"/></svg>