<svg xmlns="http://www.w3.org/2000/svg" width="32" height="32" fill="none" viewBox="0 0 32 32"><path fill="#000" d="M28 7v16a1 1 0 0 1-1 1h-7.434a1 1 0 0 0-.857.485l-1.851 3.03a1 1 0 0 1-1.716 0l-1.85-3.03a1 1 0 0 0-.858-.485H5a1 1 0 0 1-1-1V7a1 1 0 0 1 1-1h22a1 1 0 0 1 1 1" opacity=".08"/><path fill="#000" d="M11 13a1 1 0 0 1 1-1h8a1 1 0 0 1 0 2h-8a1 1 0 0 1-1-1m1 5h8a1 1 0 0 0 0-2h-8a1 1 0 0 0 0 2M29 7v16a2 2 0 0 1-2 2h-7.434l-1.855 3.036a2 2 0 0 1-3.426-.007L12.434 25H5a2 2 0 0 1-2-2V7a2 2 0 0 1 2-2h22a2 2 0 0 1 2 2m-2 0H5v16h7.434a2.01 2.01 0 0 1 1.712.966L16 27l1.852-3.04a2.01 2.01 0 0 1 1.714-.96H27z"/></svg>