<svg xmlns="http://www.w3.org/2000/svg" width="32" height="32" fill="none" viewBox="0 0 32 32"><path fill="#000" d="M28 16A12 12 0 0 1 9.991 26.389l-4.673 1.559a1 1 0 0 1-1.265-1.265l1.558-4.674A12 12 0 1 1 28 16" opacity=".08"/><path fill="#000" d="M16 3A13 13 0 0 0 4.523 22.11l-1.42 4.256a2 2 0 0 0 2.53 2.53l4.257-1.419A13 13 0 1 0 16 3m0 24a11 11 0 0 1-5.507-1.476 1 1 0 0 0-.817-.083L5 27l1.559-4.675a1 1 0 0 0-.083-.817A11 11 0 1 1 16 27m1.5-11a1.5 1.5 0 1 1-3 0 1.5 1.5 0 0 1 3 0M12 16a1.5 1.5 0 1 1-3 0 1.5 1.5 0 0 1 3 0m11 0a1.5 1.5 0 1 1-3 0 1.5 1.5 0 0 1 3 0"/></svg>