<svg xmlns="http://www.w3.org/2000/svg" width="32" height="32" fill="none" viewBox="0 0 32 32"><path fill="#000" d="m29.707 10.658-16.05 16.05a1 1 0 0 1-1.415 0l-8.95-9a1 1 0 0 1 0-1.414l3-3a1 1 0 0 1 1.415 0l4.585 4.415a1 1 0 0 0 1.415 0L25.292 6.294a1 1 0 0 1 1.415 0l3 2.95a1 1 0 0 1 0 1.414" opacity=".08"/><path fill="#000" d="m30.41 8.53-3-2.945a2 2 0 0 0-2.823 0L13 17l-.014-.014-4.58-4.408a2 2 0 0 0-2.821.007l-3 3a2 2 0 0 0 0 2.826l8.952 9a2 2 0 0 0 2.83 0l16.05-16.047a2 2 0 0 0-.007-2.834M12.952 26 4 17l3-3 .014.014 4.58 4.409a2 2 0 0 0 2.815 0L26.007 7 29 9.95z"/></svg>