<svg xmlns="http://www.w3.org/2000/svg" width="32" height="32" fill="none" viewBox="0 0 32 32"><path fill="#000" d="M28 16a12 12 0 1 1-23.999 0A12 12 0 0 1 28 16" opacity=".08"/><path fill="#000" d="M12.032 4.625a1 1 0 0 1 .718-1.214c2.132-.55 4.368-.55 6.5 0a1 1 0 1 1-.5 1.937 11 11 0 0 0-5.5 0 1 1 0 0 1-1.218-.723M6.724 6.893a13 13 0 0 0-3.25 5.625 1 1 0 1 0 1.927.532 11 11 0 0 1 2.75-4.76 1 1 0 0 0-1.427-1.397M5.4 18.943a1 1 0 1 0-1.927.536 13 13 0 0 0 3.25 5.625 1 1 0 1 0 1.426-1.401 11 11 0 0 1-2.749-4.76m13.349 7.71a11 11 0 0 1-5.5 0 1 1 0 1 0-.5 1.936c2.132.55 4.368.55 6.5 0a1 1 0 0 0-.5-1.936m9.081-8.403a1 1 0 0 0-1.231.696 11 11 0 0 1-2.75 4.761 1 1 0 0 0 .013 1.415 1 1 0 0 0 1.415-.013 13 13 0 0 0 3.25-5.625 1 1 0 0 0-.697-1.234M26.6 13.057a1 1 0 1 0 1.927-.534 13 13 0 0 0-3.25-5.625 1 1 0 1 0-1.426 1.4 11 11 0 0 1 2.749 4.758z"/></svg>