<svg xmlns="http://www.w3.org/2000/svg" width="32" height="32" fill="none" viewBox="0 0 32 32"><path fill="#000" d="M14 10a4 4 0 1 1-8 0 4 4 0 0 1 8 0m8 4a4 4 0 1 0 0-8 4 4 0 0 0 0 8m-12 4a4 4 0 1 0 0 8 4 4 0 0 0 0-8m12 0a4 4 0 1 0 0 8 4 4 0 0 0 0-8" opacity=".08"/><path fill="#000" d="M10 5a5 5 0 1 0 0 10 5 5 0 0 0 0-10m0 8a3 3 0 1 1 0-6 3 3 0 0 1 0 6m12 2a5 5 0 1 0 0-10 5 5 0 0 0 0 10m0-8a3 3 0 1 1 0 6 3 3 0 0 1 0-6M10 17a5 5 0 1 0 0 9.999A5 5 0 0 0 10 17m0 8a3 3 0 1 1 0-6 3 3 0 0 1 0 6m12-8a4.999 4.999 0 1 0 0 9.998A4.999 4.999 0 0 0 22 17m0 8a3 3 0 1 1 0-5.999A3 3 0 0 1 22 25"/></svg>