<svg xmlns="http://www.w3.org/2000/svg" width="32" height="32" fill="none" viewBox="0 0 32 32"><path fill="#000" d="M29 8v16a1 1 0 0 1-1 1H4a1 1 0 0 1-1-1V8a1 1 0 0 1 1-1h24a1 1 0 0 1 1 1" opacity=".08"/><path fill="#000" d="M28 6H4a2 2 0 0 0-2 2v16a2 2 0 0 0 2 2h24a2 2 0 0 0 2-2V8a2 2 0 0 0-2-2m0 18H4V8h24zm-13.134-5.036a1 1 0 0 1-.366 1.366 5 5 0 1 1 0-8.66.999.999 0 1 1-1 1.731 3 3 0 1 0 0 5.198 1 1 0 0 1 1.366.365m10 0a1 1 0 0 1-.366 1.366 5 5 0 1 1 0-8.66.999.999 0 1 1-1 1.731 3 3 0 1 0 0 5.198 1 1 0 0 1 1.366.365"/></svg>