<svg xmlns="http://www.w3.org/2000/svg" width="32" height="32" fill="none" viewBox="0 0 32 32"><path fill="#000" d="M11.797 2.203a8.008 8.008 0 0 1-9.595 9.595 8.02 8.02 0 0 0 4.673 5.568A5.51 5.51 0 0 1 12.29 16.3a8.52 8.52 0 0 1 5.684-5.915h.019c0-.125.008-.25.008-.375a8 8 0 0 0-6.205-7.806" opacity=".08"/><path fill="#000" d="M20.5 9q-.777 0-1.545.125a8.99 8.99 0 0 0-6.934-7.896 1 1 0 0 0-1.198 1.197Q11 3.203 11 4a7.007 7.007 0 0 1-8.574 6.823 1 1 0 0 0-1.198 1.198 9.03 9.03 0 0 0 4.036 5.633A6.5 6.5 0 0 0 10.5 28h10a9.5 9.5 0 1 0 0-19M3.671 13h.33a9.01 9.01 0 0 0 9-9v-.334a6.95 6.95 0 0 1 4 6 9.54 9.54 0 0 0-5.376 5.425A6.5 6.5 0 0 0 6.75 16.2 7.03 7.03 0 0 1 3.671 13m16.83 13h-10a4.5 4.5 0 1 1 .597-8.961 9 9 0 0 0-.097.903 1.001 1.001 0 1 0 2 .116 7.4 7.4 0 0 1 .235-1.477c0-.02.012-.04.015-.06A7.508 7.508 0 1 1 20.501 26"/></svg>