<svg xmlns="http://www.w3.org/2000/svg" width="32" height="32" fill="none" viewBox="0 0 32 32"><path fill="#000" d="M16.48 10.551a8.53 8.53 0 0 0-5.206 5.75v-.013a5.51 5.51 0 0 0-4.818.625 6 6 0 1 1 10.024-6.368z" opacity=".08"/><path fill="#000" d="M19.5 9c-.856 0-1.708.114-2.533.341A7 7 0 0 0 15.791 7.9l1.189-1.696a.999.999 0 0 0-.993-1.56 1 1 0 0 0-.646.412L14.152 6.75A7 7 0 0 0 11 6h-.218l-.36-2.036a1 1 0 1 0-1.97.346l.36 2.043a7 7 0 0 0-2.908 1.856L4.2 7.018a1 1 0 1 0-1.146 1.638l1.695 1.19A6.94 6.94 0 0 0 4 13v.215l-2.036.36a1 1 0 1 0 .346 1.97l2.04-.36c.18.546.425 1.067.732 1.553A6.5 6.5 0 0 0 9.5 28h10a9.5 9.5 0 1 0 0-19M6 13a5 5 0 0 1 9.067-2.905 9.53 9.53 0 0 0-4.452 5 6.5 6.5 0 0 0-3.875.521A5 5 0 0 1 6 13m13.5 13h-10a4.5 4.5 0 1 1 .597-8.961 9 9 0 0 0-.096.903 1.001 1.001 0 1 0 2 .116 7.4 7.4 0 0 1 .235-1.477c0-.02.011-.04.015-.06A7.508 7.508 0 1 1 19.5 26"/></svg>