<svg xmlns="http://www.w3.org/2000/svg" width="32" height="32" fill="none" viewBox="0 0 32 32"><path fill="#000" d="M29 18a6 6 0 0 1-11.009 3.305L20.001 28h-8l2.008-6.695a6 6 0 1 1-2.988-8.956 6 6 0 1 1 9.958 0A6 6 0 0 1 29 18" opacity=".08"/><path fill="#000" d="M23 11h-.291A7.001 7.001 0 1 0 9.29 11H9a7 7 0 1 0 3.068 13.294l-1.025 3.418A1 1 0 0 0 12 29h8a1 1 0 0 0 .957-1.288l-1.024-3.418a6.999 6.999 0 0 0 8.543-10.65A7 7 0 0 0 23 11m0 12a5 5 0 0 1-4.175-2.25 1 1 0 0 0-1.791.839l1.625 5.407h-5.313l1.625-5.407a1 1 0 0 0-1.796-.839 5 5 0 1 1-2.491-7.464 1 1 0 0 0 1.166-1.5 5 5 0 1 1 8.3 0 1 1 0 0 0 1.166 1.5A5 5 0 1 1 23 23"/></svg>