<svg xmlns="http://www.w3.org/2000/svg" width="32" height="32" fill="none" viewBox="0 0 32 32"><path fill="#000" d="M16 16a6 6 0 0 0 6 6c1.284.051 2.238-.281 3.235-.921A.5.5 0 0 1 26 21.5V26a1 1 0 0 1-1 1H7a1 1 0 0 1-1-1V6a1 1 0 0 1 1-1h18a1 1 0 0 1 1 1v4.5a.5.5 0 0 1-.769.42A6.03 6.03 0 0 0 16 16" opacity=".08"/><path fill="#000" d="M22 11a4.97 4.97 0 0 1 2.691.762A1.5 1.5 0 0 0 27 10.5V6a2 2 0 0 0-2-2H7a2 2 0 0 0-2 2v20a2 2 0 0 0 2 2h18a2 2 0 0 0 2-2v-4.5a1.5 1.5 0 0 0-2.305-1.264c-.906.581-1.676.802-2.655.764H22a5 5 0 1 1 0-10m-7 5a7.01 7.01 0 0 0 6.98 7 6.05 6.05 0 0 0 3.02-.639V26H7V6h18v3.654A7.037 7.037 0 0 0 15 16"/></svg>