<svg xmlns="http://www.w3.org/2000/svg" width="32" height="32" fill="none" viewBox="0 0 32 32"><path fill="#000" d="m29 20-13 7-13-7 13-7z" opacity=".08"/><path fill="#000" d="m29.474 11.125-13-7a1 1 0 0 0-.948 0l-13 7A1 1 0 0 0 2 12v8a1 1 0 0 0 .526.881l13 7a1 1 0 0 0 .948 0l13-7A1 1 0 0 0 30 20v-8a1 1 0 0 0-.526-.875M28 18.326 23.681 16 28 13.674zm-6.429-3.462L17 12.402V6.675L26.891 12zm-5.571 3L12.537 16 16 14.136 19.462 16zm-1-11.19v5.728l-4.571 2.462L5.109 12zm-11 7L8.319 16 4 18.326zm6.429 3.462L15 19.598v5.728L5.109 20zM17 25.326v-5.728l4.571-2.462L26.891 20z"/></svg>