<svg xmlns="http://www.w3.org/2000/svg" width="32" height="32" fill="none" viewBox="0 0 32 32"><path fill="#000" d="M4 15.716 10 19v6.855l-5.48-3A1 1 0 0 1 4 21.98zM22 19v6.855l5.48-3a1 1 0 0 0 .52-.875v-6.263zM15.52 3.125l-5.125 2.807L16 9l5.608-3.07-5.128-2.805a1 1 0 0 0-.96 0" opacity=".08"/><path fill="#000" d="m27.96 8.269-11-6.019a1.99 1.99 0 0 0-1.92 0l-11 6.023A2 2 0 0 0 3 10.023v11.955a2 2 0 0 0 1.04 1.75l11 6.02a1.99 1.99 0 0 0 1.92 0l11-6.02a2 2 0 0 0 1.04-1.75V10.022a2 2 0 0 0-1.04-1.754M21 19v6.261l-4 2.19V16.593l10-5.475v4l-5.48 3A1 1 0 0 0 21 19m-10.52-.875-5.48-3v-4L15 16.6v10.859l-4-2.198V19a1 1 0 0 0-.52-.875m-.088-11.051 5.126 2.806a1 1 0 0 0 .96 0l5.124-2.806 4.31 2.358L16 14.86 6.083 9.43zM16 4l3.525 1.93L16 7.861l-3.525-1.93zM5 17.403l4 2.19v4.573l-4-2.189zm18 6.763v-4.573l4-2.19v4.575z"/></svg>