<svg xmlns="http://www.w3.org/2000/svg" width="32" height="32" fill="none" viewBox="0 0 32 32"><path fill="#000" d="M26 7v18a1 1 0 0 1-1 1H7a1 1 0 0 1-1-1V7a1 1 0 0 1 1-1h18a1 1 0 0 1 1 1" opacity=".08"/><path fill="#000" d="m7.292 12.708-4-4a1 1 0 0 1 0-1.415l4-4a1 1 0 1 1 1.415 1.415L5.414 8l3.293 3.293a1 1 0 1 1-1.415 1.415m5 0a1 1 0 0 0 1.415 0l4-4a1 1 0 0 0 0-1.415l-4-4a1 1 0 1 0-1.415 1.415L15.586 8l-3.294 3.293a1 1 0 0 0 0 1.415M25 5h-3a1 1 0 1 0 0 2h3v18H7v-8a1 1 0 1 0-2 0v8a2 2 0 0 0 2 2h18a2 2 0 0 0 2-2V7a2 2 0 0 0-2-2"/></svg>