<svg xmlns="http://www.w3.org/2000/svg" width="32" height="32" fill="none" viewBox="0 0 32 32"><path fill="#000" d="M26 9.5a3.5 3.5 0 0 1-3.5 3.5H19V9.5a3.5 3.5 0 1 1 7 0M9.5 6a3.5 3.5 0 1 0 0 7H13V9.5A3.5 3.5 0 0 0 9.5 6m13 13H19v3.5a3.5 3.5 0 1 0 3.5-3.5M6 22.5a3.5 3.5 0 1 0 7 0V19H9.5A3.5 3.5 0 0 0 6 22.5" opacity=".08"/><path fill="#000" d="M22.5 18H20v-4h2.5A4.5 4.5 0 1 0 18 9.5V12h-4V9.5A4.5 4.5 0 1 0 9.5 14H12v4H9.5a4.5 4.5 0 1 0 4.5 4.5V20h4v2.5a4.5 4.5 0 1 0 4.5-4.5M20 9.5a2.5 2.5 0 1 1 2.5 2.5H20zm-13 0a2.5 2.5 0 0 1 5 0V12H9.5A2.5 2.5 0 0 1 7 9.5m5 13A2.5 2.5 0 1 1 9.5 20H12zm2-8.5h4v4h-4zm8.5 11a2.5 2.5 0 0 1-2.5-2.5V20h2.5a2.5 2.5 0 0 1 0 5"/></svg>