<svg xmlns="http://www.w3.org/2000/svg" width="32" height="32" fill="none" viewBox="0 0 32 32"><path fill="#000" d="M26 6v5l-5-5zM6 26h5l-5-5zm20 0v-5l-5 5zM6 11l5-5H6z" opacity=".08"/><path fill="#000" d="M26 5h-5a1 1 0 0 0-.707 1.707l5 5A1 1 0 0 0 27 11V6a1 1 0 0 0-1-1m-1 3.586L23.414 7H25zM6.708 20.293A1 1 0 0 0 5 21v5a1 1 0 0 0 1 1h5a1 1 0 0 0 .707-1.707zM7 25v-1.586L8.586 25zm19.383-4.924a1 1 0 0 0-1.09.216l-5 5A1 1 0 0 0 21 27h5a1 1 0 0 0 1-1v-5a1 1 0 0 0-.617-.924M25 25h-1.586L25 23.414zM11 5H6a1 1 0 0 0-1 1v5a1 1 0 0 0 1.707.707l5-5A1 1 0 0 0 11 5M7 8.586V7h1.586z"/></svg>