<svg xmlns="http://www.w3.org/2000/svg" width="32" height="32" fill="none" viewBox="0 0 32 32"><path fill="#000" d="M26 12h-6V6zM12 26v-6H6zm8 0 6-6h-6zm-8-14V6l-6 6z" opacity=".08"/><path fill="#000" d="M20 13h6a1 1 0 0 0 .707-1.707l-6-6A1 1 0 0 0 19 6v6a1 1 0 0 0 1 1m1-4.586L23.586 11H21zM12 19H6a1 1 0 0 0-.708 1.707l6 6A1 1 0 0 0 13 26v-6a1 1 0 0 0-1-1m-1 4.586L8.414 21H11zM26 19h-6a1 1 0 0 0-1 1v6a1 1 0 0 0 1.707.707l6-6A1 1 0 0 0 26 19m-5 4.586V21h2.586zm-8.617-18.51a1 1 0 0 0-1.09.216l-6 6A1 1 0 0 0 6 13h6a1 1 0 0 0 1-1V6a1 1 0 0 0-.617-.924M11 11H8.414L11 8.414z"/></svg>