<svg xmlns="http://www.w3.org/2000/svg" width="32" height="32" fill="none" viewBox="0 0 32 32"><path fill="#000" d="M26 11v4a1 1 0 0 1-1 1h-5a1 1 0 0 0-1 1v11a1 1 0 0 1-1 1h-4a1 1 0 0 1-1-1V17a1 1 0 0 0-1-1H7a1 1 0 0 1-1-1v-4a1 1 0 0 1 1-1h5a1 1 0 0 0 1-1V4a1 1 0 0 1 1-1h4a1 1 0 0 1 1 1v5a1 1 0 0 0 1 1h5a1 1 0 0 1 1 1" opacity=".08"/><path fill="#000" d="M25 9h-5V4a2 2 0 0 0-2-2h-4a2 2 0 0 0-2 2v5H7a2 2 0 0 0-2 2v4a2 2 0 0 0 2 2h5v11a2 2 0 0 0 2 2h4a2 2 0 0 0 2-2V17h5a2 2 0 0 0 2-2v-4a2 2 0 0 0-2-2m0 6h-5a2 2 0 0 0-2 2v11h-4V17a2 2 0 0 0-2-2H7v-4h5a2 2 0 0 0 2-2V4h4v5a2 2 0 0 0 2 2h5z"/></svg>