<svg xmlns="http://www.w3.org/2000/svg" width="32" height="32" fill="none" viewBox="0 0 32 32"><path fill="#000" d="M29.973 10.828 25.348 25S22 23 16 23s-9.348 2-9.348 2L2.027 10.829a.512.512 0 0 1 .715-.625L9.42 13.53a.514.514 0 0 0 .67-.195L15.56 4.25a.514.514 0 0 1 .875 0l5.471 9.093a.515.515 0 0 0 .669.194l6.679-3.33a.512.512 0 0 1 .718.62" opacity=".08"/><path fill="#000" d="M30.48 9.524a1.51 1.51 0 0 0-1.668-.213l-6.276 3.125-5.24-8.703a1.514 1.514 0 0 0-2.592 0l-5.24 8.707L3.19 9.315a1.514 1.514 0 0 0-2.113 1.825l4.625 14.17a1 1 0 0 0 1.46.55C7.194 25.841 10.39 24 16 24s8.806 1.841 8.835 1.859a1 1 0 0 0 1.464-.549l4.625-14.166a1.51 1.51 0 0 0-.444-1.62m-5.73 14.08C23.25 22.968 20.26 22 16 22s-7.25.968-8.75 1.604L3.339 11.625l5.633 2.809a1.52 1.52 0 0 0 1.973-.574L16 5.458l5.055 8.4a1.52 1.52 0 0 0 1.971.573l5.635-2.806z"/></svg>