<svg xmlns="http://www.w3.org/2000/svg" width="32" height="32" fill="none" viewBox="0 0 32 32"><path fill="#000" d="M16 16.136V29a1 1 0 0 1-.48-.125l-11-6.02A1 1 0 0 1 4 21.98V10.025a1 1 0 0 1 .088-.409z" opacity=".08"/><path fill="#000" d="m27.96 8.269-11-6.019a1.99 1.99 0 0 0-1.92 0l-11 6.021A2 2 0 0 0 3 10.021v11.955a2 2 0 0 0 1.04 1.75l11 6.022a1.99 1.99 0 0 0 1.92 0l11-6.022a2 2 0 0 0 1.04-1.75V10.023a2 2 0 0 0-1.04-1.754M16 4l10.043 5.5L16 15 5.958 9.5zM5 11.25l10 5.473v10.723L5 21.977zm12 16.196V16.727l10-5.477v10.723z"/></svg>