<svg xmlns="http://www.w3.org/2000/svg" width="32" height="32" fill="none" viewBox="0 0 32 32"><path fill="#000" d="M6.25 17h6.5L9.5 25zm6.5 0h6.5L16 9zm6.5 0 3.25 8 3.25-8z" opacity=".08"/><path fill="#000" d="M30 16h-2.764l2.69-6.625a1 1 0 1 0-1.852-.75l-3 7.375h-5.152l-3-7.375a1 1 0 0 0-1.852 0l-3 7.375H6.923l-3-7.375a1 1 0 0 0-1.853.75L4.76 16H2a1 1 0 1 0 0 2h3.576l3 7.375a1 1 0 0 0 1.853 0l3-7.375h5.155l3 7.375a1 1 0 0 0 1.852 0l3-7.375H30a1 1 0 0 0 0-2M9.5 22.344 7.735 18h3.53zM14.235 16 16 11.658 17.765 16zm8.265 6.344L20.735 18h3.53z"/></svg>