<svg xmlns="http://www.w3.org/2000/svg" width="32" height="32" fill="none" viewBox="0 0 32 32"><path fill="#000" d="M24 7.5c0 2.485-3.581 4.5-8 4.5S8 9.985 8 7.5 11.581 3 16 3s8 2.015 8 4.5" opacity=".08"/><path fill="#000" d="M16 2c-5.046 0-9 2.416-9 5.5v17c0 3.084 3.954 5.5 9 5.5s9-2.416 9-5.5v-17C25 4.416 21.046 2 16 2m0 2c3.311 0 7 1.438 7 3.5S19.311 11 16 11 9 9.563 9 7.5 12.689 4 16 4m0 24c-3.729 0-7-1.635-7-3.5V11c1.637 1.231 4.143 2 7 2s5.363-.775 7-2v13.5c0 1.865-3.271 3.5-7 3.5"/></svg>