<svg xmlns="http://www.w3.org/2000/svg" width="32" height="32" fill="none" viewBox="0 0 32 32"><path fill="#000" d="M26 15.048V23a4 4 0 0 1-4 4H10a4 4 0 0 1-4-4v-7.953L13 6h6z" opacity=".08"/><path fill="#000" d="m29.964 15.625-2.053-11a2 2 0 0 0-2.45-1.573l-.04.012L18.856 5h-5.712L6.579 3.07l-.039-.011A2 2 0 0 0 4.09 4.63L2.036 15.625a1.97 1.97 0 0 0 1.14 2.19c.264.12.55.184.84.185.346 0 .686-.093.984-.27V23a5 5 0 0 0 5 5h12a5 5 0 0 0 5-5v-5.269c.298.176.638.27.984.27.29 0 .576-.063.84-.184a1.97 1.97 0 0 0 1.14-2.192M4 16 6.054 5l5.259 1.546zm18 10h-5v-1.586l1.708-1.707a1 1 0 0 0-1.415-1.415L16 22.587l-1.292-1.293a1 1 0 1 0-1.415 1.415L15 24.414V26h-5a3 3 0 0 1-3-3v-7.611L13.491 7h5.018L25 15.389V23a3 3 0 0 1-3 3m6-10-7.312-9.454L25.946 5zm-15 1.5a1.5 1.5 0 1 1-3 0 1.5 1.5 0 0 1 3 0m9 0a1.5 1.5 0 1 1-3 0 1.5 1.5 0 0 1 3 0"/></svg>