<svg xmlns="http://www.w3.org/2000/svg" width="32" height="32" fill="none" viewBox="0 0 32 32"><path fill="#000" d="M16 10.5 9.5 15 3 10.5 9.5 6zm13 0L22.5 6 16 10.5l6.5 4.5zm-26 9L9.5 24l6.5-4.5L9.5 15zm13 0 6.5 4.5 6.5-4.5-6.5-4.5z" opacity=".08"/><path fill="#000" d="M29.569 18.678 24.256 15l5.313-3.677a1 1 0 0 0 0-1.646l-6.5-4.5a1 1 0 0 0-1.138 0L16 9.284l-5.931-4.107a1 1 0 0 0-1.138 0l-6.5 4.5a1 1 0 0 0 0 1.646L7.75 15l-5.313 3.677a1 1 0 0 0 0 1.646l6.5 4.5a1 1 0 0 0 1.138 0L16 20.716l5.931 4.107a1 1 0 0 0 1.138 0l6.5-4.5a1 1 0 0 0 0-1.646M22.5 7.215l4.75 3.284-4.75 3.284-4.744-3.284zM4.756 10.5 9.5 7.216l4.75 3.284-4.75 3.284zm4.75 12.284L4.756 19.5l4.75-3.284L14.25 19.5zM11.256 15l4.75-3.284L20.75 15 16 18.284zm11.25 7.784-4.75-3.284 4.744-3.284 4.75 3.284zm-2.691 3.08a1 1 0 0 1-.25 1.391l-2.986 2.068a1 1 0 0 1-1.138 0l-2.996-2.073a1 1 0 0 1 1.137-1.645L16 27.284l2.418-1.674a1 1 0 0 1 1.39.254z"/></svg>