<svg xmlns="http://www.w3.org/2000/svg" width="32" height="32" fill="none" viewBox="0 0 32 32"><path fill="#000" d="M26 18a10 10 0 0 1-20 0q0-1.007.162-2h19.675q.162.993.163 2" opacity=".08"/><path fill="#000" d="M21.75 5.969a31.8 31.8 0 0 0-5.181-4.788 1 1 0 0 0-1.148 0A31.8 31.8 0 0 0 10.25 5.97C6.814 9.915 5 14.075 5 18a11 11 0 0 0 22 0c0-3.925-1.814-8.085-5.25-12.031M16 3.25c1.77 1.387 7.108 5.967 8.605 11.75H7.395C8.893 9.22 14.23 4.64 16 3.25M16 27a9.01 9.01 0 0 1-9-9q0-.5.045-1h17.91q.045.5.045 1a9.01 9.01 0 0 1-9 9"/></svg>