<svg xmlns="http://www.w3.org/2000/svg" width="32" height="32" fill="none" viewBox="0 0 32 32"><path fill="#000" d="M27 22v3a1 1 0 0 1-1 1H6a1 1 0 0 1-1-1v-3a1 1 0 0 1 1-1h20a1 1 0 0 1 1 1M6.029 17H25.97c.895 0 1.361-1.034.75-1.671L17.504 5.64a2.095 2.095 0 0 0-3.018 0L5.27 15.33c-.602.637-.135 1.671.76 1.671" opacity=".08"/><path fill="#000" d="M26 20H6a2 2 0 0 0-2 2v3a2 2 0 0 0 2 2h20a2 2 0 0 0 2-2v-3a2 2 0 0 0-2-2m0 5H6v-3h20zM6.03 18h19.94a2.02 2.02 0 0 0 1.866-1.22 1.95 1.95 0 0 0-.387-2.14l-9.216-9.689a3.095 3.095 0 0 0-4.466 0L4.552 14.64a1.95 1.95 0 0 0-.387 2.14A2.02 2.02 0 0 0 6.03 18m9.186-11.67a1.095 1.095 0 0 1 1.568 0L25.98 16H6.018z"/></svg>