<svg xmlns="http://www.w3.org/2000/svg" width="32" height="32" fill="none" viewBox="0 0 32 32"><path fill="#000" d="M3 16h6v8H3zm10 8h6v-4h-6zm10-12v12h6V12z" opacity=".08"/><path fill="#000" d="M10 12a1 1 0 0 1-1 1H3a1 1 0 0 1 0-2h6a1 1 0 0 1 1 1m9 3h-6a1 1 0 0 0 0 2h6a1 1 0 0 0 0-2m4-6h6a1 1 0 1 0 0-2h-6a1 1 0 1 0 0 2m-13 7v8a1 1 0 0 1-1 1H3a1 1 0 0 1-1-1v-8a1 1 0 0 1 1-1h6a1 1 0 0 1 1 1m-2 1H4v6h4zm12 3v4a1 1 0 0 1-1 1h-6a1 1 0 0 1-1-1v-4a1 1 0 0 1 1-1h6a1 1 0 0 1 1 1m-2 1h-4v2h4zm12-9v12a1 1 0 0 1-1 1h-6a1 1 0 0 1-1-1V12a1 1 0 0 1 1-1h6a1 1 0 0 1 1 1m-2 1h-4v10h4z"/></svg>