<svg xmlns="http://www.w3.org/2000/svg" width="32" height="32" fill="none" viewBox="0 0 32 32"><path fill="#000" d="m20 21-6 6H8.344l-3.758-3.758a2 2 0 0 1 0-2.828L12 13z" opacity=".08"/><path fill="#000" d="M28.125 10.05 22.95 4.875a3 3 0 0 0-4.243 0L3.875 19.707a3 3 0 0 0 0 4.243l3.757 3.757a1 1 0 0 0 .71.293H27a1 1 0 1 0 0-2H16.412l11.713-11.708a3 3 0 0 0 0-4.242M13.585 26H8.756l-3.465-3.465a1 1 0 0 1 0-1.414L12 14.414 18.586 21zM26.71 12.875 20 19.586 13.414 13l6.71-6.708a1 1 0 0 1 1.416 0l5.172 5.173a1 1 0 0 1 0 1.414z"/></svg>