<svg xmlns="http://www.w3.org/2000/svg" width="32" height="32" fill="none" viewBox="0 0 32 32"><path fill="#000" d="M29 20v5a1 1 0 0 1-1 1h-6.562a1 1 0 0 1-.735-.321L9.298 13.32A1 1 0 0 0 8.563 13H4a1 1 0 0 1-1-1V7a1 1 0 0 1 1-1h6.563a1 1 0 0 1 .734.321L22.704 18.68a1 1 0 0 0 .735.321H28a1 1 0 0 1 1 1" opacity=".08"/><path fill="#000" d="M21.293 10.708a1 1 0 1 1 1.415-1.415L24 10.586V6a1 1 0 0 1 2 0v4.586l1.293-1.293a1 1 0 1 1 1.415 1.415l-3 3a1 1 0 0 1-1.415 0zM30 20v5a2 2 0 0 1-2 2h-6.562a2 2 0 0 1-1.47-.644L8.563 14H4a2 2 0 0 1-2-2V7a2 2 0 0 1 2-2h6.563a2 2 0 0 1 1.47.644L23.438 18H28a2 2 0 0 1 2 2m-2 0h-4.562a2 2 0 0 1-1.47-.644L10.563 7H4v5h4.563a2 2 0 0 1 1.47.644L21.438 25H28z"/></svg>