<svg xmlns="http://www.w3.org/2000/svg" width="32" height="32" fill="none" viewBox="0 0 32 32"><path fill="#000" d="M28 13c-2.101 2.601-5.954 6-12 6s-9.899-3.399-12-6c2.101-2.601 5.954-6 12-6s9.899 3.399 12 6" opacity=".08"/><path fill="#000" d="M28.5 21.875a1 1 0 0 1-1.365-.375l-2.375-4.15a15.4 15.4 0 0 1-4.51 2.082l.734 4.403a.998.998 0 1 1-1.969.329l-.721-4.323a16.6 16.6 0 0 1-4.585 0l-.721 4.323a1 1 0 1 1-1.975-.33l.737-4.402a15.4 15.4 0 0 1-4.507-2.086L4.875 21.5a1.005 1.005 0 0 1-1.742-1l2.5-4.375a19 19 0 0 1-2.413-2.5 1 1 0 1 1 1.558-1.25C6.853 14.942 10.483 18 16 18c5.518 0 9.148-3.061 11.223-5.625a1 1 0 1 1 1.555 1.25 19 19 0 0 1-2.413 2.5l2.5 4.375a1 1 0 0 1-.365 1.375"/></svg>