<svg xmlns="http://www.w3.org/2000/svg" width="32" height="32" fill="none" viewBox="0 0 32 32"><path fill="#000" d="m25.975 10.95-3.171 3.191.611.61a2 2 0 0 1 0 2.83l-1.125 1.125a1 1 0 0 1-1.415 0L13.29 11.12a1 1 0 0 1 0-1.415l1.125-1.125a2 2 0 0 1 2.829 0l.61.611 3.125-3.139c1.349-1.349 3.546-1.431 4.931-.125a3.5 3.5 0 0 1 .065 5.024" opacity=".08"/><path fill="#000" d="M28 8.413a4.47 4.47 0 0 0-1.407-3.208c-1.75-1.66-4.59-1.597-6.328.141L17.85 7.775a3 3 0 0 0-4.143.096l-1.125 1.125a2 2 0 0 0 0 2.83l.25.258-6.374 6.375a4.97 4.97 0 0 0-1.317 4.75l-1 2.301a1.71 1.71 0 0 0 .359 1.903 1.99 1.99 0 0 0 2.214.418l2.19-.956a4.99 4.99 0 0 0 4.632-1.344l6.375-6.375.258.258a2 2 0 0 0 2.827 0l1.125-1.125a3 3 0 0 0 .093-4.148l2.469-2.483A4.47 4.47 0 0 0 28 8.413M12.125 24.125a3 3 0 0 1-3 .75 1 1 0 0 0-.694.039l-2.262.989.956-2.227a1 1 0 0 0 .031-.718 2.99 2.99 0 0 1 .719-3.083L14.25 13.5l4.243 4.25zM25.266 10.25l-3.171 3.19a1 1 0 0 0 0 1.413l.611.61a1 1 0 0 1 0 1.416l-1.125 1.125L14 10.408l1.125-1.125a1 1 0 0 1 1.414 0l.611.61a1 1 0 0 0 1.414-.002l3.117-3.136c.976-.977 2.563-1.022 3.537-.101a2.5 2.5 0 0 1 .048 3.587z"/></svg>