<svg xmlns="http://www.w3.org/2000/svg" width="32" height="32" fill="none" viewBox="0 0 32 32"><path fill="#000" d="M6.537 20h11.125l-4.827 4.829a4 4 0 0 1-4.008 1l-2.5 1.092a1 1 0 0 1-1.107-.209.72.72 0 0 1-.15-.795l1.149-2.632A4 4 0 0 1 6.537 20M25.904 5.939c-1.384-1.312-3.582-1.23-4.93.125L17.849 9.2l-.612-.61a2 2 0 0 0-2.828 0l-1.125 1.125a1 1 0 0 0 0 1.414l7.59 7.577a1 1 0 0 0 1.415 0l1.125-1.125a2 2 0 0 0 0-2.828l-.61-.612 3.17-3.185a3.5 3.5 0 0 0-.07-5.018" opacity=".08"/><path fill="#000" d="M28 8.413a4.47 4.47 0 0 0-1.407-3.208c-1.75-1.66-4.59-1.597-6.328.141L17.85 7.775a3 3 0 0 0-4.143.096l-1.125 1.125a2 2 0 0 0 0 2.83l.25.258-6.375 6.375a4.97 4.97 0 0 0-1.316 4.75l-1 2.301a1.71 1.71 0 0 0 .359 1.901 1.99 1.99 0 0 0 2.214.42l2.191-.956a4.99 4.99 0 0 0 4.631-1.344l6.375-6.375.258.258a2 2 0 0 0 2.827 0l1.125-1.125a3 3 0 0 0 .093-4.148l2.469-2.483A4.47 4.47 0 0 0 28 8.413M12.125 24.125a3 3 0 0 1-3 .75 1 1 0 0 0-.694.039L6.17 25.9l.956-2.225a1 1 0 0 0 .031-.718 3 3 0 0 1 .013-1.962h8.081zM17.25 19H8.759l5.5-5.5 4.242 4.25zm8.023-8.75L22.1 13.44a1 1 0 0 0 0 1.414l.611.61a1 1 0 0 1 0 1.415l-1.125 1.125L14 10.408l1.125-1.125a1 1 0 0 1 1.414 0l.611.61a1 1 0 0 0 1.414-.002l3.117-3.136c.976-.977 2.563-1.022 3.537-.101a2.5 2.5 0 0 1 .048 3.587z"/></svg>