<svg xmlns="http://www.w3.org/2000/svg" width="32" height="32" fill="none" viewBox="0 0 32 32"><path fill="#000" d="m13 19 6 9H3l4.5-7 2.045 3.181zm6-15v7h7z" opacity=".08"/><path fill="#000" d="M13.832 18.445a1 1 0 0 0-1.665 0l-2.606 3.911-1.22-1.897a1 1 0 0 0-1.682 0l-4.5 7A1 1 0 0 0 2.999 29h16a1 1 0 0 0 .833-1.555zm-9 8.555L7.5 22.849l1.204 1.875a1 1 0 0 0 1.67.012L13 20.802 17.13 27zm21.874-16.707-7-7A1 1 0 0 0 19 3H7a2 2 0 0 0-2 2v12a1 1 0 1 0 2 0V5h11v6a1 1 0 0 0 1 1h6v15h-1a1 1 0 0 0 0 2h1a2 2 0 0 0 2-2V11a1 1 0 0 0-.293-.707M20 6.413 23.586 10H20z"/></svg>