<svg xmlns="http://www.w3.org/2000/svg" width="32" height="32" fill="none" viewBox="0 0 32 32"><path fill="#000" d="m8.464 8.074 5.974 3.45L5.054 14l-1.02-3.75a.97.97 0 0 1 .697-1.19zM24.98 4.72a.987.987 0 0 0-1.207-.686L15.826 6.13 21.8 9.58 26 8.471z" opacity=".08"/><path fill="#000" d="M27 13H12.761L26.25 9.439a1 1 0 0 0 .71-1.23l-1.02-3.75a1.99 1.99 0 0 0-2.428-1.391L4.476 8.093a1.97 1.97 0 0 0-1.212.925 1.94 1.94 0 0 0-.194 1.5L4 13.945V25a2 2 0 0 0 2 2h20a2 2 0 0 0 2-2V14a1 1 0 0 0-1-1m-2.98-8 .75 2.759-2.828.75-3.515-2.03zm-8.336 2.2 3.515 2.03-4.618 1.219-3.515-2.028zm-9.925 5.578-.75-2.76 3.312-.875 3.515 2.032zM26 25H6V15h20z"/></svg>