<svg xmlns="http://www.w3.org/2000/svg" width="32" height="32" fill="none" viewBox="0 0 32 32"><path fill="#000" d="M28 16a12 12 0 1 1-23.999 0A12 12 0 0 1 28 16" opacity=".08"/><path fill="#000" d="M23 16a30.8 30.8 0 0 1-2.317 11.78 1 1 0 0 1-.925.625 1 1 0 0 1-.92-1.381A28.8 28.8 0 0 0 21 16a1 1 0 0 1 2 0m-7-5a5 5 0 0 1 3.726 1.666 1 1 0 1 0 1.49-1.334A7 7 0 0 0 9 16c0 2.88-.731 5.712-2.125 8.231a1 1 0 1 0 1.75.97A19 19 0 0 0 11 16a5 5 0 0 1 5-5m0-8a13 13 0 0 0-4.334.74 1 1 0 0 0 .668 1.885A11.006 11.006 0 0 1 27 16a35.2 35.2 0 0 1-.867 7.779 1 1 0 0 0 1.596 1.002 1 1 0 0 0 .351-.56c.61-2.698.92-5.455.92-8.221A13.013 13.013 0 0 0 16 3M8.664 7.803A1 1 0 0 0 7.33 6.31 13.02 13.02 0 0 0 3 16a10.9 10.9 0 0 1-1 4.583 1 1 0 1 0 1.818.835A12.9 12.9 0 0 0 5 16a11.02 11.02 0 0 1 3.664-8.197m5.572 17.29a1 1 0 0 0-1.325.49 23 23 0 0 1-.787 1.556.998.998 0 0 0 .874 1.486 1 1 0 0 0 .875-.515 27 27 0 0 0 .854-1.69 1 1 0 0 0-.49-1.328M16 15a1 1 0 0 0-1 1c0 1.94-.242 3.871-.724 5.75a1 1 0 0 0 1.936.499c.525-2.042.79-4.142.788-6.25A1 1 0 0 0 16 15"/></svg>