<svg xmlns="http://www.w3.org/2000/svg" width="32" height="32" fill="none" viewBox="0 0 32 32"><path fill="#000" d="M28 13v6a1 1 0 0 1-1 1h-7v7a1 1 0 0 1-1 1h-6a1 1 0 0 1-1-1v-7H5a1 1 0 0 1-1-1v-6a1 1 0 0 1 1-1h7V5a1 1 0 0 1 1-1h6a1 1 0 0 1 1 1v7h7a1 1 0 0 1 1 1" opacity=".08"/><path fill="#000" d="M27 11h-6V5a2 2 0 0 0-2-2h-6a2 2 0 0 0-2 2v6H5a2 2 0 0 0-2 2v6a2 2 0 0 0 2 2h6v6a2 2 0 0 0 2 2h6a2 2 0 0 0 2-2v-6h6a2 2 0 0 0 2-2v-6a2 2 0 0 0-2-2m0 8h-7a1 1 0 0 0-1 1v7h-6v-7a1 1 0 0 0-1-1H5v-6h7a1 1 0 0 0 1-1V5h6v7a1 1 0 0 0 1 1h7z"/></svg>