<svg xmlns="http://www.w3.org/2000/svg" width="32" height="32" fill="none" viewBox="0 0 32 32"><path fill="#000" d="M27 6v8c-2.486 2.154-4.779 2.299-7 1.685v-8c2.22.614 4.514.469 7-1.685m-15 6.315v-8C9.78 3.701 7.486 3.846 5 6v8c2.486-2.152 4.779-2.299 7-1.685v7c2.703.75 5.297 2.625 8 3.375v-7c-2.703-.75-5.297-2.625-8-3.375" opacity=".08"/><path fill="#000" d="M27.415 5.094a1 1 0 0 0-1.07.156c-3.5 3.027-6.465 1.56-9.901-.141-3.56-1.764-7.596-3.76-12.099.14A1 1 0 0 0 4 6v21a1 1 0 1 0 2 0v-5.528c3.349-2.645 6.234-1.219 9.556.426 3.562 1.762 7.597 3.758 12.099-.14a1 1 0 0 0 .345-.75V6a1 1 0 0 0-.585-.906M11 18.087a7.507 7.507 0 0 0-5 .966v-4.58c1.75-1.383 3.375-1.653 5-1.36zm0-7a7.5 7.5 0 0 0-5 .97V6.471c1.75-1.382 3.375-1.65 5-1.358zm8 10.204c-.832-.334-1.679-.75-2.556-1.185-1.103-.546-2.25-1.112-3.444-1.521V13.71c.832.332 1.679.75 2.556 1.185 1.103.546 2.25 1.112 3.444 1.521zm0-7c-.832-.334-1.679-.75-2.556-1.186-1.103-.545-2.25-1.113-3.444-1.521V5.709c.832.332 1.679.75 2.556 1.185 1.103.545 2.25 1.112 3.444 1.52zm7 6.24c-1.75 1.383-3.375 1.651-5 1.359v-4.975q.586.087 1.177.09A7.5 7.5 0 0 0 26 15.946zm0-7c-1.75 1.383-3.375 1.653-5 1.36V8.917a7.5 7.5 0 0 0 5-.967z"/></svg>