<svg xmlns="http://www.w3.org/2000/svg" width="32" height="32" fill="none" viewBox="0 0 32 32"><path fill="#000" d="M21.154 8.25A10 10 0 0 0 16 17a10 10 0 0 0-5.154-8.75C12.5 4.75 16 3 16 3s3.5 1.75 5.154 5.25" opacity=".08"/><path fill="#000" d="M26 6a10.9 10.9 0 0 0-4.42.929c-1.887-3.172-4.99-4.75-5.132-4.824a1 1 0 0 0-.896 0c-.142.072-3.25 1.652-5.132 4.824A10.9 10.9 0 0 0 6 6a1 1 0 0 0-1 1v5a11.014 11.014 0 0 0 10 10.954v4.429l-4.552-2.278a1 1 0 1 0-.896 1.79l6 3a1 1 0 0 0 .896 0l6-3a1 1 0 1 0-.896-1.79L17 27.383v-4.43A11.014 11.014 0 0 0 27 12V7a1 1 0 0 0-1-1M16 4.151c.831.51 2.635 1.774 3.83 3.75A11.06 11.06 0 0 0 16 12.42a11.05 11.05 0 0 0-3.83-4.521C13.366 5.925 15.169 4.66 16 4.15M7 12V8.055A9.013 9.013 0 0 1 15 17v3.945A9.013 9.013 0 0 1 7 12m18 0a9.013 9.013 0 0 1-8 8.945V17a9.013 9.013 0 0 1 8-8.945z"/></svg>