<svg xmlns="http://www.w3.org/2000/svg" width="32" height="32" fill="none" viewBox="0 0 32 32"><path fill="#000" d="M29 10v11.111a.89.89 0 0 1-.889.889H25v-8a1 1 0 0 0-1-1h-8.666a1 1 0 0 1-.6-.2l-3.468-2.6a1 1 0 0 0-.6-.2H8V7a1 1 0 0 1 1-1h5.666a1 1 0 0 1 .6.2l3.468 2.6a1 1 0 0 0 .6.2H28a1 1 0 0 1 1 1" opacity=".08"/><path fill="#000" d="M28 8h-8.666l-3.468-2.6a2 2 0 0 0-1.2-.4H9a2 2 0 0 0-2 2v2H5a2 2 0 0 0-2 2v14a2 2 0 0 0 2 2h19.111A1.89 1.89 0 0 0 26 25.111V23h2.111A1.89 1.89 0 0 0 30 21.111V10a2 2 0 0 0-2-2m-4 17H5V11h5.666l3.468 2.6c.346.259.767.399 1.2.4H24zm4-4h-2v-7a2 2 0 0 0-2-2h-8.666l-3.468-2.6a2 2 0 0 0-1.2-.4H9V7h5.666l3.468 2.6c.346.259.767.399 1.2.4H28z"/></svg>