<svg xmlns="http://www.w3.org/2000/svg" width="32" height="32" fill="none" viewBox="0 0 32 32"><path fill="#000" d="m28.763 13.595-3.982-2.267q-.12-.218-.25-.427l-.015-4.5A13.1 13.1 0 0 0 20.25 4l-4 2.236h-.5L11.75 4a13.1 13.1 0 0 0-4.264 2.406l-.02 4.5q-.13.21-.25.426l-3.98 2.263a12.4 12.4 0 0 0 0 4.807l3.982 2.268q.12.217.25.426l.015 4.5A13.1 13.1 0 0 0 11.75 28l4-2.234h.5l4 2.234a13.1 13.1 0 0 0 4.26-2.406l.02-4.5q.132-.21.25-.427l3.98-2.262c.315-1.588.316-3.222.003-4.81M16 21a5 5 0 1 1 0-10 5 5 0 0 1 0 10" opacity=".08"/><path fill="#000" d="M16 10a6 6 0 1 0 6 6 6.006 6.006 0 0 0-6-6m0 10a4 4 0 1 1 0-8 4 4 0 0 1 0 8M29.743 13.4a1 1 0 0 0-.487-.675l-3.729-2.125-.015-4.202a1 1 0 0 0-.353-.76 14 14 0 0 0-4.59-2.584 1 1 0 0 0-.808.074L16 5.23l-3.765-2.106a1 1 0 0 0-.809-.075 14 14 0 0 0-4.585 2.594 1 1 0 0 0-.354.758L6.47 10.61 2.74 12.734a1 1 0 0 0-.486.675 13.3 13.3 0 0 0 0 5.195 1 1 0 0 0 .486.675l3.729 2.125.015 4.203a1 1 0 0 0 .353.76 14 14 0 0 0 4.59 2.584 1 1 0 0 0 .808-.074L16 26.77l3.765 2.106a1.01 1.01 0 0 0 .809.072 14 14 0 0 0 4.585-2.59 1 1 0 0 0 .354-.76l.018-4.206 3.729-2.125a1 1 0 0 0 .486-.675c.34-1.713.338-3.477-.003-5.19m-1.875 4.364-3.572 2.031a1 1 0 0 0-.375.375c-.072.125-.148.258-.226.383a1 1 0 0 0-.152.526l-.02 4.031c-.96.754-2.029 1.357-3.17 1.788L16.75 24.89a1 1 0 0 0-.489-.125h-.478a1 1 0 0 0-.513.125l-3.605 2.013a12 12 0 0 1-3.18-1.78L8.471 21.1a1 1 0 0 0-.152-.528 7 7 0 0 1-.225-.382 1 1 0 0 0-.375-.383l-3.575-2.036a11.3 11.3 0 0 1 0-3.532l3.565-2.035a1 1 0 0 0 .375-.375c.072-.125.148-.258.226-.383.1-.157.152-.34.152-.526l.02-4.031c.96-.754 2.029-1.357 3.17-1.788L15.25 7.11a1 1 0 0 0 .512.125h.456a1 1 0 0 0 .512-.125l3.605-2.013a12 12 0 0 1 3.18 1.779l.014 4.025c0 .186.053.37.152.527.078.125.154.25.225.383.089.159.218.29.375.382l3.575 2.037c.188 1.17.19 2.364.006 3.536z"/></svg>