<svg xmlns="http://www.w3.org/2000/svg" width="32" height="32" fill="none" viewBox="0 0 32 32"><path fill="#000" d="M26 16a10 10 0 1 1-20 0 10 10 0 0 1 20 0" opacity=".08"/><path fill="#000" d="M29 15h-2.046a10.9 10.9 0 0 0-.968-3.61l1.773-1.024a1 1 0 0 0-1-1.732l-1.775 1.025a11.1 11.1 0 0 0-2.643-2.643l1.025-1.775a1 1 0 1 0-1.732-1L20.61 6.014A10.9 10.9 0 0 0 17 5.046V3a1 1 0 0 0-2 0v2.046c-1.25.113-2.471.44-3.61.968L10.366 4.24a1 1 0 0 0-1.732 1l1.025 1.775A11.1 11.1 0 0 0 7.016 9.66L5.241 8.634a1 1 0 1 0-1 1.732l1.773 1.024A10.9 10.9 0 0 0 5.046 15H3a1 1 0 0 0 0 2h2.046c.113 1.25.44 2.471.968 3.61L4.24 21.634a1 1 0 1 0 1 1.732l1.775-1.025a11.1 11.1 0 0 0 2.643 2.643l-1.025 1.775a1 1 0 1 0 1.732 1l1.024-1.773a10.9 10.9 0 0 0 3.61.968V29a1 1 0 0 0 2 0v-2.046a10.9 10.9 0 0 0 3.61-.968l1.024 1.773a1 1 0 0 0 1.732-1l-1.025-1.775a11.1 11.1 0 0 0 2.643-2.643l1.775 1.025A1 1 0 0 0 28.125 23a1 1 0 0 0-.365-1.366l-1.773-1.024c.528-1.139.855-2.36.967-3.61H29a1 1 0 0 0 0-2m-18.336 8.243a8.99 8.99 0 0 1 0-14.485L14.845 16zM16 25a8.95 8.95 0 0 1-3.605-.75L16.578 17h8.365A9.01 9.01 0 0 1 16 25m.578-10-4.183-7.244a8.993 8.993 0 0 1 12.548 7.25z"/></svg>