<svg xmlns="http://www.w3.org/2000/svg" width="32" height="32" fill="none" viewBox="0 0 32 32"><path fill="#000" d="M29 7v18a2 2 0 0 1-2 2H5a2 2 0 0 1-2-2V7a2 2 0 0 1 2-2h22a2 2 0 0 1 2 2" opacity=".08"/><path fill="#000" d="M26 11a1 1 0 0 1-1 1h-3v3h2a1 1 0 0 1 0 2h-2v4a1 1 0 0 1-2 0V11a1 1 0 0 1 1-1h4a1 1 0 0 1 1 1m-9-1a1 1 0 0 0-1 1v10a1 1 0 0 0 2 0V11a1 1 0 0 0-1-1m-4 5h-2a1 1 0 0 0 0 2h1v1a2 2 0 0 1-4 0v-4a2 2 0 0 1 3.491-1.334 1 1 0 1 0 1.49-1.332A4 4 0 0 0 6 14v4a4 4 0 1 0 8 0v-2a1 1 0 0 0-1-1"/></svg>