<svg xmlns="http://www.w3.org/2000/svg" width="32" height="32" fill="none" viewBox="0 0 32 32"><path fill="#000" d="M10 8a3 3 0 1 1-6 0 3 3 0 0 1 6 0m15 13a3 3 0 1 0 0 5.999A3 3 0 0 0 25 21" opacity=".08"/><path fill="#000" d="M14 19a1 1 0 0 0-1 1v3.586L9.465 20.05A4.96 4.96 0 0 1 8 16.515v-4.64a4 4 0 1 0-2 0v4.641a6.96 6.96 0 0 0 2.05 4.95L11.586 25H8a1 1 0 1 0 0 2h6a1 1 0 0 0 1-1v-6a1 1 0 0 0-1-1M5 8a2 2 0 1 1 4 0 2 2 0 0 1-4 0m21 12.125v-4.64a6.96 6.96 0 0 0-2.05-4.95L20.414 7H24a1 1 0 1 0 0-2h-6a1 1 0 0 0-1 1v6a1 1 0 0 0 2 0V8.414l3.535 3.536A4.96 4.96 0 0 1 24 15.485v4.64a4 4 0 1 0 2 0M25 26a2 2 0 1 1 0-3.999 2 2 0 0 1 0 4"/></svg>