<svg xmlns="http://www.w3.org/2000/svg" width="32" height="32" fill="none" viewBox="0 0 32 32"><path fill="#000" d="M28 16a12 12 0 1 1-23.999 0A12 12 0 0 1 28 16" opacity=".08"/><path fill="#000" d="M16 3a13 13 0 1 0 13 13A13.013 13.013 0 0 0 16 3m10.954 12h-4.979c-.176-3.557-1.284-6.934-3.14-9.625A11.025 11.025 0 0 1 26.954 15m-14.925 2h7.942c-.21 3.859-1.625 7.453-3.971 9.986-2.341-2.533-3.761-6.127-3.971-9.986m0-2c.21-3.859 1.625-7.452 3.971-9.986 2.341 2.534 3.761 6.125 3.971 9.986zm1.136-9.625c-1.856 2.691-2.964 6.068-3.14 9.625H5.046a11.025 11.025 0 0 1 8.119-9.625M5.046 17h4.979c.176 3.558 1.284 6.934 3.14 9.625A11.025 11.025 0 0 1 5.046 17m13.789 9.625c1.856-2.695 2.964-6.071 3.14-9.625h4.979a11.025 11.025 0 0 1-8.119 9.625"/></svg>