<svg xmlns="http://www.w3.org/2000/svg" width="32" height="32" fill="none" viewBox="0 0 32 32"><path fill="#000" d="M26.875 21.089a12.05 12.05 0 0 1-3.817 4.625l-1.17-1.171a1 1 0 0 0-.454-.262l-2.684-.707a1 1 0 0 1-.735-1.113l.297-2.025a1 1 0 0 1 .605-.777l3.808-1.583a1 1 0 0 1 1.059.186zm-6.889-7.964L22.757 9.9A1 1 0 0 0 23 9.25v-3A12 12 0 0 0 6.311 23.081l1.24-.815a1 1 0 0 0 .449-.83l.026-4.529c.002-.196.06-.387.169-.55l2.617-3.913a1 1 0 0 1 1.418-.25l2.476 1.625c.209.15.467.215.722.181l3.932-.533a1 1 0 0 0 .626-.342" opacity=".08"/><path fill="#000" d="M16 3a13 13 0 1 0 13 13A13.013 13.013 0 0 0 16 3m0 2a10.94 10.94 0 0 1 6 1.785V9.25l-2.771 3.217-3.934.533-.039-.027-2.459-1.608a2 2 0 0 0-2.813.522L7.366 15.8a2 2 0 0 0-.337 1.101L7 21.43l-.409.269A11 11 0 0 1 16 5M7.786 23.309l.315-.207A2 2 0 0 0 9 21.443l.026-4.53L11.646 13q.02.016.04.027l2.459 1.61c.412.29.92.414 1.419.345l3.936-.533a2 2 0 0 0 1.25-.676l2.771-3.22A2 2 0 0 0 24 9.25v-.791a10.98 10.98 0 0 1 2.471 10.916l-2.017-1.845a2 2 0 0 0-2.117-.375l-3.807 1.581a2.01 2.01 0 0 0-1.21 1.556l-.299 2.024a2 2 0 0 0 1.471 2.227l2.683.707.295.296A10.985 10.985 0 0 1 7.786 23.31m15.339 1.066-.538-.539a2 2 0 0 0-.907-.522L19 22.606l.299-2.024L23.105 19l2.52 2.31a11 11 0 0 1-2.5 3.065"/></svg>