<svg xmlns="http://www.w3.org/2000/svg" width="32" height="32" fill="none" viewBox="0 0 32 32"><path fill="#000" d="M21 16a5 5 0 1 1-10 0 5 5 0 0 1 10 0" opacity=".08"/><path fill="#000" d="M16 3a13 13 0 1 0 13 13A13.013 13.013 0 0 0 16 3m0 2a11 11 0 0 1 9.215 5H16a6.01 6.01 0 0 0-5.7 4.125l-2.885-5A10.99 10.99 0 0 1 16 5m4 11a4 4 0 1 1-8 0 4 4 0 0 1 8 0m-5.66 10.875a11 11 0 0 1-8.145-15.857L10.804 19q.011.018.024.035a6 6 0 0 0 6.4 2.84zm2.25.109L21.196 19l.028-.052a5.99 5.99 0 0 0-.75-6.948h5.776a11 11 0 0 1-9.661 14.984z"/></svg>