<svg xmlns="http://www.w3.org/2000/svg" width="32" height="32" fill="none" viewBox="0 0 32 32"><path fill="#000" d="M24 11a7.96 7.96 0 0 1-1.75 5H16V3a8 8 0 0 1 8 8M8 21a8 8 0 0 0 8 8V16H9.75A7.96 7.96 0 0 0 8 21" opacity=".08"/><path fill="#000" d="M29 15h-4.939A9 9 0 0 0 16 2a1 1 0 0 0-1 1v4.939A9 9 0 0 0 2 16a1 1 0 0 0 1 1h4.939A9 9 0 0 0 16 30a1 1 0 0 0 1-1v-4.939A9 9 0 0 0 30 16a1 1 0 0 0-1-1M15 27.929A7.01 7.01 0 0 1 9 21a6.9 6.9 0 0 1 1.25-4H15zM15 15H4.071A7.01 7.01 0 0 1 11 9a6.9 6.9 0 0 1 4 1.25zm2-10.929A7.01 7.01 0 0 1 23 11a6.9 6.9 0 0 1-1.25 4H17zM21 23a6.9 6.9 0 0 1-4-1.25V17h10.929A7.01 7.01 0 0 1 21 23"/></svg>