<svg xmlns="http://www.w3.org/2000/svg" width="32" height="32" fill="none" viewBox="0 0 32 32"><path fill="#000" d="M28 7H4a1 1 0 0 0-1 1v16a1 1 0 0 0 1 1h7.586a1 1 0 0 0 .707-.293l3-3a1 1 0 0 1 1.415 0l3 3a1 1 0 0 0 .706.293H28a1 1 0 0 0 1-1V8a1 1 0 0 0-1-1M10 19a3 3 0 1 1 0-6 3 3 0 0 1 0 6m12 0a3 3 0 1 1 0-5.999A3 3 0 0 1 22 19" opacity=".08"/><path fill="#000" d="M28 6H4a2 2 0 0 0-2 2v16a2 2 0 0 0 2 2h7.586A1.98 1.98 0 0 0 13 25.414l3-3 3 3a1.99 1.99 0 0 0 1.414.586H28a2 2 0 0 0 2-2V8a2 2 0 0 0-2-2m0 18h-7.586l-3-3a2 2 0 0 0-2.828 0l-3 3H4V8h24zm-18-4a4 4 0 1 0 0-8 4 4 0 0 0 0 8m0-6a2 2 0 1 1 0 4 2 2 0 0 1 0-4m12 6a4 4 0 1 0 0-8 4 4 0 0 0 0 8m0-6a2 2 0 1 1 0 4 2 2 0 0 1 0-4"/></svg>