<svg xmlns="http://www.w3.org/2000/svg" width="32" height="32" fill="none" viewBox="0 0 32 32"><path fill="#000" d="M26 8v7a10 10 0 0 0-10 10A10 10 0 0 0 6 15V8a9.96 9.96 0 0 1 4.506 1.074C11.953 5.024 16 3 16 3s4.049 2.024 5.5 6.073A9.95 9.95 0 0 1 26 8" opacity=".08"/><path fill="#000" d="M26 7c-1.362 0-2.712.254-3.981.75-1.79-3.713-5.406-5.558-5.571-5.641a1 1 0 0 0-.896 0c-.166.083-3.78 1.928-5.57 5.64A10.9 10.9 0 0 0 6 7a1 1 0 0 0-1 1v10a11 11 0 1 0 22 0V8a1 1 0 0 0-1-1M15 26.945A9.01 9.01 0 0 1 7 18v-1.945A9.01 9.01 0 0 1 15 25zm0-8.263a11 11 0 0 0-8-4.636V9.055A9.01 9.01 0 0 1 15 18zM11.769 8.64c1.152-2.403 3.303-3.92 4.231-4.49.93.568 3.075 2.076 4.23 4.49a11.06 11.06 0 0 0-4.23 4.78 11.06 11.06 0 0 0-4.231-4.78M25 17.999a9.013 9.013 0 0 1-8 8.946V25a9.013 9.013 0 0 1 8-8.945zm0-3.953a11 11 0 0 0-8 4.636V18a9.013 9.013 0 0 1 8-8.945z"/></svg>