<svg xmlns="http://www.w3.org/2000/svg" width="32" height="32" fill="none" viewBox="0 0 32 32"><path fill="#000" d="M25.194 23.216a8.97 8.97 0 0 0-.929-6.716l-2.375-4.114a2 2 0 0 0-.14-.218l-1.225-1.847.821 1.429a2.25 2.25 0 0 0-3.402 2.784L15 9.439l-1.375-2.064.825 1.43A2.25 2.25 0 0 0 11 11.51l-.008.006-.9-1.559-.543-.632-.823-1.43a2.25 2.25 0 0 1 3.898-2.25l.9 1.559.101.172a2.25 2.25 0 1 1 3.898-2.25l3 5.196a2.25 2.25 0 1 1 3.897-2.25l2.375 4.114a9 9 0 0 1-1.601 11.031" opacity=".08"/><path fill="#000" d="M21 3V1a1 1 0 0 1 2 0v2a1 1 0 1 1-2 0m4.479 2.125a1 1 0 0 0 .521.141 1 1 0 0 0 .855-.479l1-1.638a1 1 0 1 0-1.707-1.041l-1 1.637a1 1 0 0 0 .33 1.38m2.18 6.566a9.965 9.965 0 0 1-1.574 12.059A10 10 0 0 1 7.811 26l-4.375-7.579a3.25 3.25 0 0 1 2.398-4.846l-.5-.867a3.25 3.25 0 0 1 2.291-4.833A3.25 3.25 0 0 1 9.05 3.954a3.26 3.26 0 0 1 3.851.447 3.25 3.25 0 0 1 5.485.224l1.5 2.599a3.25 3.25 0 0 1 5.398.347zM14.49 6.875l.741 1.284c.248.226.459.489.625.78l1.5 2.594a3.28 3.28 0 0 1 2-1.223l-2.7-4.685a1.25 1.25 0 0 0-2.166 1.25m-4.897.519.74 1.285.04.036a3.24 3.24 0 0 1 2.09-1.348l-.705-1.223a1.25 1.25 0 1 0-2.165 1.25M23.399 17l-2.375-4.114a1.25 1.25 0 0 0-2.218 1.148l1.428 2.466a1 1 0 0 1-1.734 1l-4.375-7.559a1.25 1.25 0 0 0-2.171 1.234l3.079 5.325a1 1 0 1 1-1.732 1l-4.07-7.042a1.25 1.25 0 1 0-2.166 1.25l4.5 7.795a.999.999 0 1 1-1.732 1l-2.5-4.33a1.25 1.25 0 0 0-2.165 1.25L9.543 25a8 8 0 1 0 13.856-8zm2.527-4.314-2.375-4.113a1.25 1.25 0 0 0-2.165 1.25l.74 1.28c.246.228.457.492.624.783L25.125 16a10 10 0 0 1 1.266 3.75 7.98 7.98 0 0 0-.465-7.064m5.483-5.992a1 1 0 0 0-1.259-.645l-1.875.606a1 1 0 1 0 .614 1.904l1.875-.606a1 1 0 0 0 .645-1.26"/></svg>