<svg xmlns="http://www.w3.org/2000/svg" width="32" height="32" fill="none" viewBox="0 0 32 32"><path fill="#000" d="M2 19h4v7H2a1 1 0 0 1-1-1v-5a1 1 0 0 1 1-1M24.068 5A4.89 4.89 0 0 0 19.5 8a4.89 4.89 0 0 0-4.568-3C12.21 5 10 7.289 10 10c0 1.82.875 3.464 2.091 5H17.5a2.5 2.5 0 0 1 0 5h.5l4.723-1.085C25.478 16.884 29 13.654 29 10c0-2.711-2.209-5-4.933-5" opacity=".08"/><path fill="#000" d="M28.791 17.633a3.05 3.05 0 0 0-2.326-.597C28.813 14.666 30 12.31 30 10c0-3.309-2.661-6-5.933-6A5.95 5.95 0 0 0 19.5 6.094 5.95 5.95 0 0 0 14.932 4C11.663 4 9 6.691 9 10c0 1.375.405 2.711 1.258 4.125a4 4 0 0 0-1.844 1.05L5.586 18H2a2 2 0 0 0-2 2v5a2 2 0 0 0 2 2h13q.123 0 .242-.03l8-2a1 1 0 0 0 .15-.05l4.858-2.068.055-.024a3.074 3.074 0 0 0 .491-5.195zM14.932 6a3.89 3.89 0 0 1 3.643 2.375 1 1 0 0 0 1.85 0A3.89 3.89 0 0 1 24.067 6C26.2 6 28 7.831 28 10c0 2.439-1.974 5.198-5.707 7.988l-1.387.318A3.5 3.5 0 0 0 17.5 14h-4.915C11.506 12.545 11 11.265 11 10c0-2.169 1.801-4 3.932-4M2 20h3v5H2zm25.429 1.026-4.75 2.023L14.875 25H7v-5.586l2.829-2.828A1.98 1.98 0 0 1 11.242 16H17.5a1.5 1.5 0 1 1 0 3H14a1 1 0 0 0 0 2h4q.113 0 .224-.025l8.375-1.926.038-.01a1.075 1.075 0 0 1 .788 1.987z"/></svg>