<svg xmlns="http://www.w3.org/2000/svg" width="32" height="32" fill="none" viewBox="0 0 32 32"><path fill="#000" d="M27.99 26H4.01a1 1 0 0 1-1-1.116l1.781-15a1.007 1.007 0 0 1 1-.884H26.21a1.01 1.01 0 0 1 1 .884l1.781 15a1 1 0 0 1-1 1.116" opacity=".08"/><path fill="#000" d="m29.986 24.765-1.782-15a2 2 0 0 0-2-1.765H22a6 6 0 0 0-12 0H5.791a2 2 0 0 0-2 1.765l-1.782 15a2 2 0 0 0 1.17 2.057c.258.117.538.177.821.178h23.99a2.02 2.02 0 0 0 1.51-.675 2 2 0 0 0 .486-1.56M16 4a4 4 0 0 1 4 4h-8a4 4 0 0 1 4-4M4 25l1.791-15h4.21v3a1 1 0 1 0 2 0v-3h8v3a1 1 0 1 0 2 0v-3h4.218l1.771 15z"/></svg>