<svg xmlns="http://www.w3.org/2000/svg" width="32" height="32" fill="none" viewBox="0 0 32 32"><path fill="#000" d="M26 14.5V19a10 10 0 0 1-10 10c-5.523 0-6.976-3-11.665-11.25a2.5 2.5 0 0 1 4.33-2.5L11 19V5.5a2.5 2.5 0 0 1 5 0v7a2.5 2.5 0 0 1 5 0v2a2.5 2.5 0 0 1 5 0" opacity=".08"/><path fill="#000" d="M23.5 11c-.583 0-1.157.145-1.669.424A3.5 3.5 0 0 0 17 9.338V5.5a3.5 3.5 0 1 0-7 0v10l-.478-.766a3.5 3.5 0 1 0-6.056 3.516l.584 1.029C8.35 26.86 10.13 30 16 30a11.01 11.01 0 0 0 11-11v-4.5a3.5 3.5 0 0 0-3.5-3.5m1.5 8a9.01 9.01 0 0 1-9 9c-4.704 0-5.98-2.25-10.21-9.71l-.586-1.034v-.006a1.5 1.5 0 1 1 2.615-1.47l2.333 3.75A1 1 0 0 0 12 19V5.5a1.5 1.5 0 0 1 3 0V14a1 1 0 0 0 2 0v-1.5a1.5 1.5 0 0 1 3 0V15a1 1 0 0 0 2 0v-.5a1.5 1.5 0 0 1 3 0z"/></svg>