<svg xmlns="http://www.w3.org/2000/svg" width="32" height="32" fill="none" viewBox="0 0 32 32"><path fill="#000" d="M10 18v5a2 2 0 0 1-2 2H6a2 2 0 0 1-2-2v-7h4a2 2 0 0 1 2 2m14-2a2 2 0 0 0-2 2v5a2 2 0 0 0 2 2h4v-9z" opacity=".08"/><path fill="#000" d="M25.236 6.833A13.01 13.01 0 0 0 3 16v7a3 3 0 0 0 3 3h2a3 3 0 0 0 3-3v-5a3 3 0 0 0-3-3H5.045a11.015 11.015 0 0 1 18.773-6.759A10.92 10.92 0 0 1 26.956 15H24a3 3 0 0 0-3 3v5a3 3 0 0 0 3 3h3a3 3 0 0 1-3 3h-7a1 1 0 0 0 0 2h7a5 5 0 0 0 5-5V16a12.93 12.93 0 0 0-3.764-9.167M8 17a1 1 0 0 1 1 1v5a1 1 0 0 1-1 1H6a1 1 0 0 1-1-1v-6zm16 7a1 1 0 0 1-1-1v-5a1 1 0 0 1 1-1h3v7z"/></svg>