<svg xmlns="http://www.w3.org/2000/svg" width="32" height="32" fill="none" viewBox="0 0 32 32"><path fill="#000" d="M27.17 16.67 16 28 4.83 16.67a6.25 6.25 0 0 1 8.84-8.84L16 10l2.33-2.17a6.25 6.25 0 1 1 8.84 8.84" opacity=".08"/><path fill="#000" d="M27.875 7.125a7.26 7.26 0 0 0-10.24-.012L16 8.63l-1.636-1.523a7.25 7.25 0 0 0-10.24 10.267l11.17 11.333a1 1 0 0 0 1.425 0l11.156-11.333a7.25 7.25 0 0 0 0-10.25m-1.419 8.845L16 26.575 5.537 15.96a5.25 5.25 0 1 1 7.425-7.425l.025.025 2.332 2.169a1 1 0 0 0 1.362 0l2.331-2.169.025-.025a5.25 5.25 0 0 1 7.42 7.43z"/></svg>