<svg xmlns="http://www.w3.org/2000/svg" width="32" height="32" fill="none" viewBox="0 0 32 32"><path fill="#000" d="M16 9v18S3 20 3 11.75A6.75 6.75 0 0 1 9.75 5c2.824 0 5.243 1.539 6.25 4" opacity=".08"/><path fill="#000" d="M22.25 4C19.669 4 17.409 5.11 16 6.986 14.591 5.11 12.331 4 9.75 4A7.76 7.76 0 0 0 2 11.75c0 8.75 12.974 15.834 13.526 16.125a1 1 0 0 0 .948 0C17.026 27.584 30 20.5 30 11.75A7.76 7.76 0 0 0 22.25 4M4 11.75A5.757 5.757 0 0 1 9.75 6c2.364 0 4.358 1.224 5.25 3.206V25.25c-3.301-2.07-11-7.527-11-13.5m13 13.5V9.206C17.892 7.224 19.886 6 22.25 6A5.757 5.757 0 0 1 28 11.75c0 5.964-7.698 11.426-11 13.5"/></svg>