<svg xmlns="http://www.w3.org/2000/svg" width="32" height="32" fill="none" viewBox="0 0 32 32"><path fill="#000" d="M27 14.443V27h-8v-7a1 1 0 0 0-1-1h-4a1 1 0 0 0-1 1v7H5V14.443a1 1 0 0 1 .327-.74l10-9.443a1 1 0 0 1 1.347 0l10 9.443a1 1 0 0 1 .326.74" opacity=".08"/><path fill="#000" d="M30 26h-2V14.444a2 2 0 0 0-.646-1.473l-10-9.435-.014-.013a2 2 0 0 0-2.691 0l-.014.013-9.989 9.435A2 2 0 0 0 4 14.444V26H2a1 1 0 1 0 0 2h28a1 1 0 0 0 0-2M6 14.444l.014-.013L16 5.001l9.988 9.428.013.012v11.56H20v-6a2 2 0 0 0-2-2h-4a2 2 0 0 0-2 2v6H6zM18 26h-4v-6h4z"/></svg>