<svg xmlns="http://www.w3.org/2000/svg" width="32" height="32" fill="none" viewBox="0 0 32 32"><path fill="#000" d="M27 14.443V26a1 1 0 0 1-1 1h-6a1 1 0 0 1-1-1v-6a1 1 0 0 0-1-1h-4a1 1 0 0 0-1 1v6a1 1 0 0 1-1 1H6a1 1 0 0 1-1-1V14.443a1 1 0 0 1 .327-.74l10-9.443a1 1 0 0 1 1.347 0l10 9.443a1 1 0 0 1 .326.74" opacity=".08"/><path fill="#000" d="m27.354 12.971-10-9.435-.014-.014a2 2 0 0 0-2.691 0l-.014.014-9.989 9.435A2 2 0 0 0 4 14.444V26a2 2 0 0 0 2 2h6a2 2 0 0 0 2-2v-6h4v6a2 2 0 0 0 2 2h6a2 2 0 0 0 2-2V14.444a2 2 0 0 0-.646-1.473M26 26h-6v-6a2 2 0 0 0-2-2h-4a2 2 0 0 0-2 2v6H6V14.444l.014-.013L16 5l9.988 9.429.013.012z"/></svg>