<svg xmlns="http://www.w3.org/2000/svg" width="32" height="32" fill="none" viewBox="0 0 32 32"><path fill="#000" d="M27 14a2 2 0 0 1-2 2H7a2 2 0 1 1 0-4v-1a9 9 0 1 1 18 0v1a2 2 0 0 1 2 2" opacity=".08"/><path fill="#000" d="M26 11.171V11a10 10 0 1 0-20 0v.171A3 3 0 0 0 7 17h.42l7.711 13.5a1 1 0 0 0 1.738 0l7.71-13.5H25a3 3 0 0 0 1-5.829M16 27.985 9.724 17h2.41l5.07 8.875zM16.849 17l2.713 4.75-1.205 2.11-3.92-6.86zm3.865 2.735L19.15 17h3.125zM25 15H7a1 1 0 0 1 0-2 1 1 0 0 0 1-1v-1a8 8 0 0 1 16 0v1a1 1 0 0 0 1 1 1 1 0 0 1 0 2"/></svg>