<svg xmlns="http://www.w3.org/2000/svg" width="32" height="32" fill="none" viewBox="0 0 32 32"><path fill="#000" d="M26 5H10a1 1 0 0 0-1 1v16a1 1 0 0 0 1 1h2.086l9.707-9.707a1 1 0 0 1 1.415 0L27 17.086V6a1 1 0 0 0-1-1m-11 8a2 2 0 1 1 0-4 2 2 0 0 1 0 4" opacity=".08"/><path fill="#000" d="M26 4H10a2 2 0 0 0-2 2v2H6a2 2 0 0 0-2 2v16a2 2 0 0 0 2 2h16a2 2 0 0 0 2-2v-2h2a2 2 0 0 0 2-2V6a2 2 0 0 0-2-2M10 6h16v8.673l-2.087-2.088a2 2 0 0 0-2.828 0L11.671 22H10zm12 20H6V10h2v12a2 2 0 0 0 2 2h12zm4-4H14.5l8-8 3.5 3.5zm-11-8a3 3 0 1 0 0-5.999A3 3 0 0 0 15 14m0-4a1 1 0 1 1 0 2 1 1 0 0 1 0-2"/></svg>