<svg xmlns="http://www.w3.org/2000/svg" width="32" height="32" fill="none" viewBox="0 0 32 32"><path fill="#000" d="M28.243 20.243a6 6 0 0 1-8.485 0L16 16l3.758-4.242a6 6 0 0 1 8.485 8.485M3.758 11.758a6 6 0 0 0 8.485 8.485L16 16l-3.757-4.242a6 6 0 0 0-8.485 0" opacity=".08"/><path fill="#000" d="M31 16a7 7 0 0 1-11.95 4.95l-.041-.044-7.494-8.462a5 5 0 1 0 0 7.112l1.065-1.202a1.001 1.001 0 1 1 1.5 1.326l-1.086 1.226-.042.044a7 7 0 1 1 0-9.9l.042.044 7.493 8.462a5 5 0 1 0 0-7.112l-1.065 1.202a1 1 0 1 1-1.5-1.326l1.087-1.226.04-.044A7 7 0 0 1 31 16"/></svg>