<svg xmlns="http://www.w3.org/2000/svg" width="32" height="32" fill="none" viewBox="0 0 32 32"><path fill="#000" d="M13.08 18.41a7.5 7.5 0 0 1-4.5-5.82 7.51 7.51 0 0 1 7.42.91 7.5 7.5 0 0 0-2.92 4.91m0 0A7.5 7.5 0 0 0 16 25.5a7.5 7.5 0 0 0 2.92-7.09 7.52 7.52 0 0 1-5.84 0m10.34-5.82a7.51 7.51 0 0 0-7.42.91 7.5 7.5 0 0 1 2.92 4.91 7.5 7.5 0 0 0 4.5-5.82" opacity=".08"/><path fill="#000" d="M24.485 12q.014-.245.015-.5a8.5 8.5 0 1 0-16.985.5A8.5 8.5 0 1 0 16 26.706 8.5 8.5 0 1 0 24.485 12M16 24.184a6.49 6.49 0 0 1-2-4.423 8.44 8.44 0 0 0 3.988 0A6.49 6.49 0 0 1 16 24.184M16 18a6.5 6.5 0 0 1-1.76-.244 6.5 6.5 0 0 1 1.76-2.94 6.5 6.5 0 0 1 1.76 2.94A6.5 6.5 0 0 1 16 18m-3.596-1.089A6.52 6.52 0 0 1 9.74 13.25a6.49 6.49 0 0 1 4.599.41 8.5 8.5 0 0 0-1.935 3.251m5.257-3.257a6.48 6.48 0 0 1 4.599-.404 6.52 6.52 0 0 1-2.664 3.668 8.5 8.5 0 0 0-1.935-3.264M16 5a6.507 6.507 0 0 1 6.5 6.239 8.46 8.46 0 0 0-6.5 1.055 8.47 8.47 0 0 0-6.494-1.055A6.507 6.507 0 0 1 16 5M5 19.5a6.5 6.5 0 0 1 2.904-5.411A8.55 8.55 0 0 0 12.015 19a8.468 8.468 0 0 0 2.324 6.346A6.5 6.5 0 0 1 5 19.5M20.5 26a6.46 6.46 0 0 1-2.839-.654A8.47 8.47 0 0 0 19.985 19a8.55 8.55 0 0 0 4.111-4.916A6.5 6.5 0 0 1 20.5 26"/></svg>