<svg xmlns="http://www.w3.org/2000/svg" width="32" height="32" fill="none" viewBox="0 0 32 32"><path fill="#000" d="M7.976 24.024c-5.986-9.977 2-19.953 18.955-18.955.998 16.96-8.978 24.941-18.955 18.955" opacity=".08"/><path fill="#000" d="M27.931 5.009a1 1 0 0 0-.94-.94C17.475 3.51 9.853 6.375 6.603 11.75a10.9 10.9 0 0 0-1.595 6.125c.07 1.99.65 4 1.723 5.981l-2.438 2.438a1 1 0 1 0 1.415 1.415l2.437-2.439c1.98 1.071 3.991 1.651 5.98 1.723q.21.007.416.007c2.015.005 3.991-.55 5.71-1.602 5.374-3.25 8.24-10.872 7.68-20.39M19.22 23.688c-2.844 1.722-6.21 1.75-9.589.096L20.71 12.706a1 1 0 0 0-1.415-1.415L8.216 22.375c-1.648-3.375-1.625-6.75.097-9.589 2.76-4.558 9.325-7.055 17.663-6.757.3 8.332-2.198 14.897-6.757 17.658"/></svg>