<svg xmlns="http://www.w3.org/2000/svg" width="32" height="32" fill="none" viewBox="0 0 32 32"><path fill="#000" d="m24.485 24.485-4.95-4.95a5 5 0 0 0 0-7.07l4.95-4.95a12 12 0 0 1 0 16.97M7.515 7.515a12 12 0 0 0 0 16.97l4.95-4.95a5 5 0 0 1 0-7.07z" opacity=".08"/><path fill="#000" d="M16 3a13 13 0 1 0 13 13A13.013 13.013 0 0 0 16 3m4.887 16.474a5.98 5.98 0 0 0 0-6.948l3.563-3.561a10.98 10.98 0 0 1 0 14.07zM12 16a4 4 0 1 1 8 0 4 4 0 0 1-8 0m11.035-8.45-3.561 3.563a5.98 5.98 0 0 0-6.948 0L8.965 7.55a10.98 10.98 0 0 1 14.07 0M7.55 8.965l3.563 3.561a5.98 5.98 0 0 0 0 6.948L7.55 23.035a10.98 10.98 0 0 1 0-14.07M8.965 24.45l3.561-3.562a5.98 5.98 0 0 0 6.948 0l3.561 3.562a10.98 10.98 0 0 1-14.07 0"/></svg>