<svg xmlns="http://www.w3.org/2000/svg" width="32" height="32" fill="none" viewBox="0 0 32 32"><path fill="#000" d="M10.125 21.875a3 3 0 1 1-4.25 4.235 3 3 0 0 1 4.25-4.235m16-16a3 3 0 1 0-4.235 4.25 3 3 0 0 0 4.235-4.25" opacity=".08"/><path fill="#000" d="M26.83 5.17a4 4 0 0 0-6.275 4.861L10.031 20.555a4.01 4.01 0 0 0-4.86.617 4 4 0 1 0 6.274.797L21.97 11.445A4 4 0 0 0 26.83 5.17M9.414 25.42a2.001 2.001 0 1 1 .584-1.417 2 2 0 0 1-.584 1.413zm16-16a2 2 0 1 1 .583-1.419 2 2 0 0 1-.58 1.411z"/></svg>