<svg xmlns="http://www.w3.org/2000/svg" width="32" height="32" fill="none" viewBox="0 0 32 32"><path fill="#000" d="M28 5v22a1 1 0 0 1-1 1H5a1 1 0 0 1-1-1V5a1 1 0 0 1 1-1h22a1 1 0 0 1 1 1" opacity=".08"/><path fill="#000" d="M27 3H5a2 2 0 0 0-2 2v22a2 2 0 0 0 2 2h22a2 2 0 0 0 2-2V5a2 2 0 0 0-2-2m0 24H5V5h22zM12 14v8a1 1 0 0 1-2 0v-8a1 1 0 0 1 2 0m11 3.5V22a1 1 0 0 1-2 0v-4.5a2.5 2.5 0 0 0-5 0V22a1 1 0 0 1-2 0v-8a1 1 0 0 1 1.974-.223A4.5 4.5 0 0 1 23 17.5m-10.5-7a1.5 1.5 0 1 1-3 0 1.5 1.5 0 0 1 3 0"/></svg>