<svg xmlns="http://www.w3.org/2000/svg" width="32" height="32" fill="none" viewBox="0 0 32 32"><path fill="#000" d="M28 16a12.001 12.001 0 1 0-18 10.395V22a1 1 0 0 1 1-1h1v-3a1 1 0 0 1 1-1h.52l1.5-7.204c.221-1.061 1.736-1.061 1.957 0l1.5 7.204H19a1 1 0 0 1 1 1v3h1a1 1 0 0 1 1 1v4.395A12 12 0 0 0 28 16" opacity=".08"/><path fill="#000" d="M25.193 6.807A13 13 0 1 0 6.807 25.192 13 13 0 0 0 25.193 6.807M11 25.797V22h10v3.796a11.05 11.05 0 0 1-10 0M13 18h6v2h-6zm1.75-2L16 10l1.25 6zm9.028 7.779q-.376.373-.778.705V22a2 2 0 0 0-2-2v-2a2 2 0 0 0-1.701-1.975l-1.341-6.433a2 2 0 0 0-3.915 0L12.7 16.025A2 2 0 0 0 11 18v2a2 2 0 0 0-2 2v2.484a11 11 0 1 1 14.777-.705"/></svg>