<svg xmlns="http://www.w3.org/2000/svg" width="32" height="32" fill="none" viewBox="0 0 32 32"><path fill="#000" d="M27 6v6.971c0 8.854-4.925 16.03-11 16.03S5 21.824 5 12.973V6a1 1 0 0 1 1.361-.934C8.25 5.801 11.89 6.964 16 6.964s7.75-1.163 9.639-1.895A1 1 0 0 1 27 6" opacity=".08"/><path fill="#000" d="M27.125 4.35a1.99 1.99 0 0 0-1.852-.214C23.519 4.82 19.977 5.964 16 5.964S8.48 4.819 6.724 4.136A2 2 0 0 0 4 6v6.971c0 4.48 1.206 8.706 3.398 11.898 2.27 3.307 5.325 5.125 8.602 5.125s6.333-1.822 8.603-5.125C26.793 21.68 28 17.454 28 12.974V6a2 2 0 0 0-.875-1.65M26 12.975c0 4.08-1.082 7.904-3.046 10.766C21.067 26.488 18.599 28 16 28s-5.068-1.512-6.954-4.26C7.083 20.875 6 17.054 6 12.974V6c1.889.734 5.698 1.964 10 1.964S24.113 6.734 26 6v6.976zm-2.25 2.359a1.003 1.003 0 0 1-1.5 1.332c-.335-.375-1.106-.666-1.75-.666s-1.42.293-1.75.666a1.004 1.004 0 0 1-1.5-1.334C17.964 14.535 19.267 14 20.5 14s2.531.535 3.25 1.332zM11.5 16c-.649 0-1.42.293-1.75.666a1.004 1.004 0 0 1-1.5-1.334C8.969 14.535 10.273 14 11.5 14s2.531.535 3.25 1.332a1.003 1.003 0 1 1-1.5 1.334c-.33-.373-1.101-.666-1.75-.666m9.556 5.649a6.613 6.613 0 0 1-10.112 0 1 1 0 1 1 1.521-1.299 4.612 4.612 0 0 0 7.07 0 1.001 1.001 0 0 1 1.521 1.299"/></svg>