<svg xmlns="http://www.w3.org/2000/svg" width="32" height="32" fill="none" viewBox="0 0 32 32"><path fill="#000" d="M21 23a5 5 0 1 1-10 0 5 5 0 0 1 10 0m4.875-18H21v10.728l5.34-2.428a1.13 1.13 0 0 0 .66-1.025v-6.15A1.125 1.125 0 0 0 25.875 5M11 5H6.125A1.125 1.125 0 0 0 5 6.125v6.15a1.13 1.13 0 0 0 .66 1.025L11 15.727z" opacity=".08"/><path fill="#000" d="M25.875 4H6.125A2.125 2.125 0 0 0 4 6.125v6.151a2.13 2.13 0 0 0 1.25 1.934l7.825 3.556a6 6 0 1 0 5.86 0l7.815-3.556A2.13 2.13 0 0 0 28 12.276V6.125A2.125 2.125 0 0 0 25.875 4M20 6v9.084L16 16.9l-4-1.817V6zM6 12.276V6.125A.125.125 0 0 1 6.125 6H10v8.174L6.074 12.39A.13.13 0 0 1 6 12.276M16 27a4 4 0 1 1 0-8 4 4 0 0 1 0 8m10-14.724a.13.13 0 0 1-.074.114L22 14.174V6h3.875a.125.125 0 0 1 .125.125z"/></svg>