<svg xmlns="http://www.w3.org/2000/svg" width="32" height="32" fill="none" viewBox="0 0 32 32"><path fill="#000" d="M22 12a6 6 0 1 1-12 0 6 6 0 0 1 12 0" opacity=".08"/><path fill="#000" d="M27 12a11 11 0 1 0-18 8.479v9.52a1 1 0 0 0 1.447.896L16 28.125l5.554 2.776c.139.067.292.1.446.099a1 1 0 0 0 1-1v-9.521a10.98 10.98 0 0 0 4-8.48M7 12a9 9 0 1 1 9 9 9.01 9.01 0 0 1-9-9m14 16.382-4.554-2.276a1 1 0 0 0-.895 0L11 28.382v-6.586a10.99 10.99 0 0 0 10 0zM16 19a7 7 0 1 0-7-7 7.01 7.01 0 0 0 7 7m0-12a5 5 0 1 1 0 10 5 5 0 0 1 0-10"/></svg>