<svg xmlns="http://www.w3.org/2000/svg" width="32" height="32" fill="none" viewBox="0 0 32 32"><path fill="#000" d="M18 10v12a1 1 0 0 1-1 1H5a1 1 0 0 1-1-1V10a1 1 0 0 1 1-1h12a1 1 0 0 1 1 1" opacity=".08"/><path fill="#000" d="M10 19v-5H9a1 1 0 0 1 0-2h4a1 1 0 1 1 0 2h-1v5a1 1 0 0 1-2 0m19-7.408V19a5 5 0 0 1-4.579 4.981A8 8 0 0 1 9.584 24H5a2 2 0 0 1-2-2V10a2 2 0 0 1 2-2h7.101a5 5 0 0 1 9.164-3.606A4 4 0 0 1 26.461 10h.947A1.595 1.595 0 0 1 29 11.592M21.95 6.3A4.99 4.99 0 0 1 21 10h2a2 2 0 1 0-1.05-3.7M14.173 8H17a2 2 0 0 1 1.884 1.335A3.001 3.001 0 1 0 14.172 8M5 22h12V10H5zm18-1v-9h-4v10a2 2 0 0 1-2 2h-5.195A6 6 0 0 0 23 21m4-9h-2v9q0 .424-.045.844A3 3 0 0 0 27 19z"/></svg>