<svg xmlns="http://www.w3.org/2000/svg" width="32" height="32" fill="none" viewBox="0 0 32 32"><path fill="#000" d="M20 16a4 4 0 1 1-8 0 4 4 0 0 1 8 0m5-8a6.11 6.11 0 0 0 5 5V8zm0 16h5v-5a6.11 6.11 0 0 0-5 5M2 19v5h5a6.11 6.11 0 0 0-5-5m0-6a6.11 6.11 0 0 0 5-5H2z" opacity=".08"/><path fill="#000" d="M16 11a5 5 0 1 0 0 10 5 5 0 0 0 0-10m0 8a3 3 0 1 1 0-5.999A3 3 0 0 1 16 19M30 7H2a1 1 0 0 0-1 1v16a1 1 0 0 0 1 1h28a1 1 0 0 0 1-1V8a1 1 0 0 0-1-1M3 9h2.671A5.1 5.1 0 0 1 3 11.671zm0 14v-2.671A5.1 5.1 0 0 1 5.671 23zm26 0h-2.671A5.1 5.1 0 0 1 29 20.329zm0-4.794A7.1 7.1 0 0 0 24.206 23H7.794A7.1 7.1 0 0 0 3 18.206v-4.412A7.1 7.1 0 0 0 7.794 9h16.412A7.1 7.1 0 0 0 29 13.794zm0-6.535A5.1 5.1 0 0 1 26.329 9H29z"/></svg>