<svg xmlns="http://www.w3.org/2000/svg" width="32" height="32" fill="none" viewBox="0 0 32 32"><path fill="#000" d="M11.863 9.493 15.706 16H6.294l3.843-6.507a1 1 0 0 1 1.726 0M20.5 9a2.5 2.5 0 1 0 0-5 2.5 2.5 0 0 0 0 5m3.68 4.49a1 1 0 0 0-1.721 0l-4.133 6.974L21 25h10z" opacity=".08"/><path fill="#000" d="M20.5 10a3.5 3.5 0 1 0 0-7 3.5 3.5 0 0 0 0 7m0-5a1.5 1.5 0 1 1 0 3 1.5 1.5 0 0 1 0-3m11.36 19.49-6.82-11.51A1.98 1.98 0 0 0 23.32 12a1.98 1.98 0 0 0-1.72.98l-3.27 5.52-5.605-9.512a2 2 0 0 0-3.448 0L.14 24.493A1 1 0 0 0 1 26h30a1 1 0 0 0 .86-1.51M11 10l2.946 5H8.054zM2.75 24l4.125-7h8.25l2.343 3.975L19.25 24zm18.821 0-2.082-3.535L23.319 14l5.931 10z"/></svg>