<svg xmlns="http://www.w3.org/2000/svg" width="32" height="32" fill="none" viewBox="0 0 32 32"><path fill="#000" d="m28.294 15.125-9.569 2.938a1 1 0 0 0-.663.662l-2.937 9.569a1 1 0 0 1-1.901.034l-8.16-22a1 1 0 0 1 1.265-1.27l22 8.16a1 1 0 0 1-.035 1.907" opacity=".08"/><path fill="#000" d="M28.666 12.276 6.676 4.125l-.02-.006A2 2 0 0 0 4.12 6.676l8.157 21.99A1.97 1.97 0 0 0 14.16 30h.037a1.97 1.97 0 0 0 1.876-1.411l2.944-9.57 9.57-2.945a2 2 0 0 0 .078-3.798zM28 14.162l-9.57 2.946a2 2 0 0 0-1.322 1.322L14.162 28l-.007-.021L6 6l21.978 8.153.02.007z"/></svg>