<svg xmlns="http://www.w3.org/2000/svg" width="32" height="32" fill="none" viewBox="0 0 32 32"><path fill="#000" d="m27.48 9.145-11-6.02a1 1 0 0 0-.96 0l-11 6.023a1 1 0 0 0-.52.875v11.955a1 1 0 0 0 .52.875l11 6.022a1 1 0 0 0 .96 0l11-6.022a1 1 0 0 0 .52-.875V10.023a1 1 0 0 0-.52-.878M16 21a5 5 0 1 1 0-10 5 5 0 0 1 0 10" opacity=".08"/><path fill="#000" d="M16 10a6 6 0 1 0 6 6 6.007 6.007 0 0 0-6-6m0 10a4 4 0 1 1 0-8 4 4 0 0 1 0 8M27.96 8.269l-11-6.019a1.99 1.99 0 0 0-1.92 0l-11 6.021A2 2 0 0 0 3 10.021v11.955a2 2 0 0 0 1.04 1.75l11 6.022a1.99 1.99 0 0 0 1.92 0l11-6.022a2 2 0 0 0 1.04-1.75V10.023a2 2 0 0 0-1.04-1.754M16 28 5 21.977V10.023L16 4l11 6.021v11.954z"/></svg>