<svg xmlns="http://www.w3.org/2000/svg" width="32" height="32" fill="none" viewBox="0 0 32 32"><path fill="#000" d="m20.435 16.435 1.151 1.151a2 2 0 0 1 0 2.828L19 23 9 13l2.586-2.586a2 2 0 0 1 2.828 0l1.151 1.151a1 1 0 0 0 1.451-.04l6.859-7.65a3.005 3.005 0 0 1 4.25 4.25l-7.646 6.863a1 1 0 0 0-.044 1.447" opacity=".08"/><path fill="#000" d="M28.83 3.17a4 4 0 0 0-5.657 0q-.02.018-.037.039l-6.863 7.647-1.148-1.151a3 3 0 0 0-4.244 0l-9.586 9.587a1 1 0 0 0 0 1.414l10 10a1 1 0 0 0 1.414 0l9.586-9.581a3 3 0 0 0 0-4.244l-1.151-1.15 7.647-6.864a4 4 0 0 0 .039-5.697M12 28.586 9.915 26.5l2.793-2.794a1 1 0 0 0-1.414-1.414L8.5 25.085 6.915 23.5l2.792-2.794a1 1 0 0 0-1.413-1.414L5.5 22.085 3.414 20 9 14.414 17.586 23zM27.433 7.395l-7.625 6.844a2 2 0 0 0-.078 2.902l1.15 1.151a1 1 0 0 1 0 1.414l-1.875 1.875L10.415 13l1.875-1.875a1 1 0 0 1 1.414 0l1.151 1.15a2 2 0 0 0 2.903-.078L24.6 4.572A2 2 0 0 1 27.43 7.4z"/></svg>