<svg xmlns="http://www.w3.org/2000/svg" width="32" height="32" fill="none" viewBox="0 0 32 32"><path fill="#000" d="M14.565 2 2.586 13.979a2 2 0 0 0 0 2.829l10.606 10.606a2 2 0 0 0 2.83 0L28 15.435zm-.833 14.267a2.5 2.5 0 1 1 3.537-3.536 2.5 2.5 0 0 1-3.537 3.536M31 25.5a2.5 2.5 0 1 1-5 0c0-2.5 2.5-4.5 2.5-4.5s2.5 2 2.5 4.5" opacity=".08"/><path fill="#000" d="M29.125 20.219a1 1 0 0 0-1.25 0c-.118.095-2.875 2.335-2.875 5.28a3.5 3.5 0 0 0 7 0c0-2.945-2.758-5.185-2.875-5.28m-.625 6.78a1.5 1.5 0 0 1-1.5-1.5c0-1.272.875-2.44 1.5-3.115.625.677 1.5 1.85 1.5 3.116a1.5 1.5 0 0 1-1.5 1.5m.207-12.27L15.271 1.292a1 1 0 0 0-1.414 0L8.781 6.375 5.706 3.292a1 1 0 1 0-1.414 1.415l3.075 3.075-5.492 5.49a3 3 0 0 0 0 4.242l10.611 10.61a3 3 0 0 0 4.243 0l11.978-11.978a1 1 0 0 0 0-1.417M15.314 26.707a1 1 0 0 1-1.414 0L3.292 16.1a1 1 0 0 1 0-1.414l5.49-5.49 3.64 3.64a3.5 3.5 0 1 0 1.413-1.415l-3.639-3.639 4.375-4.368 12.021 12.02zm-.875-13.267a1.658 1.658 0 1 1-.007.007z"/></svg>