<svg xmlns="http://www.w3.org/2000/svg" width="32" height="32" fill="none" viewBox="0 0 32 32"><path fill="#000" d="M28 4c0 4.101-3.955 8.429-7.33 11.381a10.55 10.55 0 0 0-4.045-4.051C19.571 7.955 23.899 4 28 4" opacity=".08"/><path fill="#000" d="M29 4a1 1 0 0 0-1-1c-5.51 0-11.164 6.214-14.304 10.329A7.5 7.5 0 0 0 4 20.5c0 3.86-2.443 5.591-2.559 5.671A1 1 0 0 0 2 28h9.5a7.5 7.5 0 0 0 7.171-9.696C22.788 15.164 29 9.51 29 4M11.5 26H4.329C5.172 24.801 6 22.99 6 20.5a5.5 5.5 0 1 1 5.5 5.5m4.053-11.806a48 48 0 0 1 1.26-1.569 9.5 9.5 0 0 1 2.562 2.561q-.738.618-1.569 1.262a7.6 7.6 0 0 0-2.254-2.254m5.337-.335a11.6 11.6 0 0 0-2.75-2.75c3.973-4.316 6.969-5.625 8.738-5.989-.357 1.77-1.672 4.766-5.988 8.739"/></svg>