<svg xmlns="http://www.w3.org/2000/svg" width="32" height="32" fill="none" viewBox="0 0 32 32"><path fill="#000" d="M25.256 13H25a5 5 0 0 1-5-5h-8a5 5 0 0 1-5 5h-.25l1.008-8.125A1 1 0 0 1 8.75 4h14.5a1 1 0 0 1 .992.875z" opacity=".08"/><path fill="#000" d="m27.985 26.75-2.75-22A2 2 0 0 0 23.25 3H8.75a2 2 0 0 0-1.985 1.75l-2.75 22A2 2 0 0 0 6 29h5.086a2 2 0 0 0 1.939-1.508L16 15.993l2.974 11.493A2 2 0 0 0 20.914 29H26a2 2 0 0 0 1.985-2.25M24.113 11.9A4.02 4.02 0 0 1 21.125 9h2.625zM23.25 5l.25 2h-15l.25-2zm-15 4h2.625a4.02 4.02 0 0 1-2.988 2.9zm2.836 18H6l1.625-13.034A6.01 6.01 0 0 0 12.915 9H15v2.875zm9.825-.008L17 11.875V9h2.085a6.01 6.01 0 0 0 5.29 4.966L26 27z"/></svg>