<svg xmlns="http://www.w3.org/2000/svg" width="32" height="32" fill="none" viewBox="0 0 32 32"><path fill="#000" d="m27.66 26.939-11.339-3.875a1 1 0 0 0-.672 0L4.34 26.939a1 1 0 0 1-1.209-1.43l11.982-21a1 1 0 0 1 1.75 0l12.01 21a1 1 0 0 1-1.213 1.43" opacity=".08"/><path fill="#000" d="M29.738 25.011 17.73 4.022a2 2 0 0 0-3.486 0l-11.986 21a2 2 0 0 0 2.406 2.866l11.309-3.876h.023l11.336 3.875a2 2 0 0 0 2.405-2.875m-1.75.98L17 22.233V15a1 1 0 0 0-2 0v7.223l-10.985 3.77L4 26 15.983 5 28 26z"/></svg>