<svg xmlns="http://www.w3.org/2000/svg" width="32" height="32" fill="none" viewBox="0 0 32 32"><path fill="#000" d="m27.961 5.272-7.277 24a1 1 0 0 1-1.865.157L13.75 18.726a1 1 0 0 0-.475-.475l-10.702-5.07a1 1 0 0 1 .156-1.865l24-7.277a1 1 0 0 1 1.232 1.233" opacity=".08"/><path fill="#000" d="M28.415 3.585a2 2 0 0 0-1.957-.51h-.02l-23.992 7.28a2 2 0 0 0-.302 3.73l10.702 5.069 5.069 10.702a1.98 1.98 0 0 0 1.975 1.136 1.99 1.99 0 0 0 1.75-1.438L28.915 5.56v-.019a2 2 0 0 0-.5-1.957m-8.686 25.396-.006.018-4.92-10.386 5.904-5.907a1 1 0 0 0-1.413-1.413l-5.907 5.905L3 12.278h.017L27 5z"/></svg>