<svg xmlns="http://www.w3.org/2000/svg" width="32" height="32" fill="none" viewBox="0 0 32 32"><path fill="#000" d="M27.708 11.292 24 15l-7-7 3.707-3.708a1 1 0 0 1 1.414 0l5.587 5.583a1 1 0 0 1 0 1.417" opacity=".08"/><path fill="#000" d="m28.415 9.171-5.586-5.585a2 2 0 0 0-2.829 0L4.586 19A1.98 1.98 0 0 0 4 20.414V26a2 2 0 0 0 2 2h5.586A1.98 1.98 0 0 0 13 27.414l10.459-10.458.435 1.738-4.6 4.598a1 1 0 1 0 1.413 1.415l5-5a1 1 0 0 0 .264-.95l-.862-3.45L28.415 12a2 2 0 0 0 0-2.829M6 26v-3.586L9.586 26zm6-.414L6.414 20 17 9.414 22.586 15zm12-12L18.415 8l3-3L27 10.586z"/></svg>