<svg xmlns="http://www.w3.org/2000/svg" width="32" height="32" fill="none" viewBox="0 0 32 32"><path fill="#000" d="M28 16a12.001 12.001 0 1 0-18 10.395V22l6-13 6 13v4.395A12 12 0 0 0 28 16" opacity=".08"/><path fill="#000" d="M25.193 6.807A13 13 0 1 0 6.807 25.192 13 13 0 0 0 25.193 6.807M11 24a2 2 0 0 1 4 0v2.949a11 11 0 0 1-4-1.153zm6 0a2 2 0 0 1 4 0v1.796a11 11 0 0 1-4 1.153zm-3.591-7h5.182l1.448 3.137A3.99 3.99 0 0 0 16 21.36a3.99 3.99 0 0 0-4.039-1.222zm.923-2L16 11.386 17.668 15zm9.446 8.779q-.376.373-.778.705V22a1 1 0 0 0-.093-.419l-6-13a1 1 0 0 0-1.815 0l-6 13A1 1 0 0 0 9 22v2.484a11 11 0 1 1 14.777-.705"/></svg>