<svg xmlns="http://www.w3.org/2000/svg" width="32" height="32" fill="none" viewBox="0 0 32 32"><path fill="#000" d="m28.586 12.809-6.776 4.875 2.596 8a1 1 0 0 1-1.538 1.119L16 21.863l-6.868 4.942a1 1 0 0 1-1.538-1.119l2.596-8-6.776-4.875A1 1 0 0 1 4 11.001h8.359l2.69-8.29a.993.993 0 0 1 1.902 0l2.69 8.29H28a1 1 0 0 1 .586 1.808" opacity=".08"/><path fill="#000" d="M29.9 11.383A1.97 1.97 0 0 0 28 10h-7.625l-2.462-7.592a1.993 1.993 0 0 0-3.808-.007l-2.472 7.6H4a2 2 0 0 0-1.172 3.624l6.183 4.449-2.368 7.301a1.97 1.97 0 0 0 .732 2.239 1.97 1.97 0 0 0 2.348 0L16 23.096l6.28 4.518a2 2 0 0 0 3.078-2.239l-2.375-7.307 6.187-4.453a1.97 1.97 0 0 0 .73-2.232M16 3.019 18.265 10h-4.53zM4 12h6.984l-1.322 4.073zm4.545 14 2.174-6.699 3.569 2.568zm2.821-8.696L13.086 12h5.828l1.72 5.299L16 20.633zM23.455 26l-5.739-4.125 3.569-2.567zm-1.117-9.922L21.016 12H28z"/></svg>