<svg xmlns="http://www.w3.org/2000/svg" width="32" height="32" fill="none" viewBox="0 0 32 32"><path fill="#000" d="M13 5a3 3 0 1 1 6 0 3 3 0 0 1-6 0m13.5 5h-21c-1.609 0-2.089 2.188-.625 2.863L12 16 9.14 26.866a1.5 1.5 0 0 0 2.719 1.268L16 21l4.14 7.134a1.5 1.5 0 0 0 2.719-1.268L19.999 16l7.126-3.137c1.461-.675.981-2.863-.625-2.863" opacity=".08"/><path fill="#000" d="M20 5a4 4 0 1 0-8 0 4 4 0 0 0 8 0m-4 2a2 2 0 1 1 0-4 2 2 0 0 1 0 4m12.938 3.964A2.45 2.45 0 0 0 26.5 9h-21a2.5 2.5 0 0 0-1.047 4.77l.016.008 6.344 2.793-2.625 9.965a2.504 2.504 0 1 0 4.562 2.066l3.25-5.61 3.25 5.61a2.5 2.5 0 0 0 4.55-2.066l-2.625-9.965 6.344-2.794.016-.007a2.454 2.454 0 0 0 1.403-2.806m-2.225.987-7.117 3.134a1 1 0 0 0-.563 1.17l2.858 10.87a1 1 0 0 0 .062.169.5.5 0 1 1-.907.422l-.042-.079-4.139-7.137a1 1 0 0 0-1.73 0L11 27.633l-.042.078a.501.501 0 1 1-.907-.422 1 1 0 0 0 .062-.169l2.855-10.87a1 1 0 0 0-.564-1.17l-7.116-3.129A.5.5 0 0 1 5.5 11h21a.5.5 0 0 1 .216.951z"/></svg>