<svg xmlns="http://www.w3.org/2000/svg" width="32" height="32" fill="none" viewBox="0 0 32 32"><path fill="#000" d="M27.993 21.76A6.04 6.04 0 0 1 22 27 17 17 0 0 1 5 10a6.04 6.04 0 0 1 5.24-5.993 1 1 0 0 1 1.037.6l2.642 5.9a1 1 0 0 1-.083.942l-2.671 3.176a.99.99 0 0 0-.067.976c1.033 2.117 3.22 4.278 5.343 5.301a.99.99 0 0 0 .979-.073l3.125-2.663a1 1 0 0 1 .949-.086l5.895 2.641a1 1 0 0 1 .604 1.039" opacity=".08"/><path fill="#000" d="m27.796 19.808-5.889-2.64-.016-.007a2 2 0 0 0-1.896.175 1 1 0 0 0-.094.07L16.86 20c-1.928-.936-3.918-2.911-4.854-4.814l2.597-3.088q.038-.047.072-.097a2 2 0 0 0 .165-1.882v-.015l-2.646-5.899a2 2 0 0 0-2.078-1.19A7.03 7.03 0 0 0 4 10c0 9.925 8.075 18 18 18a7.03 7.03 0 0 0 6.985-6.115 2 2 0 0 0-1.189-2.078M22 26A16.017 16.017 0 0 1 6 10a5.025 5.025 0 0 1 4.359-5v.015l2.625 5.875-2.584 3.092a1 1 0 0 0-.071.097 2 2 0 0 0-.125 1.962c1.132 2.317 3.466 4.633 5.807 5.764a2 2 0 0 0 1.969-.142q.048-.033.093-.07L21.11 19l5.875 2.631H27A5.03 5.03 0 0 1 22 26"/></svg>