<svg xmlns="http://www.w3.org/2000/svg" width="32" height="32" fill="none" viewBox="0 0 32 32"><path fill="#000" d="m20 20-6.344 6.344a5.658 5.658 0 0 1-8-8L12 12z" opacity=".08"/><path fill="#000" d="M27.054 4.95a6.66 6.66 0 0 0-9.416 0L4.95 17.636a6.658 6.658 0 0 0 9.415 9.414l12.689-12.686a6.665 6.665 0 0 0 0-9.414M12.95 25.636a4.657 4.657 0 1 1-6.587-6.586L12 13.414 18.588 20zM25.64 12.95 20 18.586 13.415 12l5.638-5.636a4.657 4.657 0 0 1 6.586 6.586m-1.929-2.657a1 1 0 0 1 0 1.415l-3 3a1 1 0 0 1-1.414-1.415l3-3a1 1 0 0 1 1.414 0"/></svg>