<svg xmlns="http://www.w3.org/2000/svg" width="32" height="32" fill="none" viewBox="0 0 32 32"><path fill="#000" d="M15.61 13.718 3.394 18.166a6.5 6.5 0 1 1 12.216-4.449m11-1.884-12.216 4.448a6.5 6.5 0 1 0 12.216-4.448" opacity=".08"/><path fill="#000" d="m28.707 27.293-6.052-6.052q.206-.061.409-.133a7.5 7.5 0 0 0 4.482-9.608 1 1 0 0 0-1.281-.598l-5.525 2.01q.061-.115.116-.235A7.5 7.5 0 0 0 11.5 2.457a1 1 0 0 0-.603 1.28l2.01 5.525q-.115-.061-.235-.116a7.5 7.5 0 0 0-10.216 9.362 1 1 0 0 0 1.281.597l5.525-2.011q-.061.116-.116.236a7.5 7.5 0 0 0 9.361 10.216 1 1 0 0 0 .598-1.281l-2.011-5.525q.116.061.236.116c.882.413 1.837.65 2.81.698l7.152 7.154a1.001 1.001 0 0 0 1.415-1.415M16.384 4.518a5.5 5.5 0 0 1 .466 9.731L13.149 4.079a5.45 5.45 0 0 1 3.235.44M4.079 16.852a5.5 5.5 0 0 1 10.17-3.7zm9.546 8.632a5.5 5.5 0 0 1-.466-9.727l3.7 10.167a5.45 5.45 0 0 1-3.234-.44m6.945-5.923h-.014a5.52 5.52 0 0 1-4.792-2.711l10.166-3.701a5.507 5.507 0 0 1-5.36 6.412"/></svg>