<svg xmlns="http://www.w3.org/2000/svg" width="32" height="32" fill="none" viewBox="0 0 32 32"><path fill="#000" d="m27.25 11.47-3.859 6.33a4 4 0 1 0-4.141 6.798l-2.391 3.922a1 1 0 0 1-1.713 0l-4.609-7.556a3.998 3.998 0 0 0 2.89-6.047 4 4 0 0 0-6.7-.203L4.75 11.47a19.97 19.97 0 0 1 22.5 0" opacity=".08"/><path fill="#000" d="M29.943 7.875a2 2 0 0 0-.907-1.238 25.19 25.19 0 0 0-26.072 0 2 2 0 0 0-.671 2.75l12 19.66a2 2 0 0 0 3.42 0l6.537-10.73 5.451-8.932a1.98 1.98 0 0 0 .242-1.51M7.949 14.813a3 3 0 1 1 3.059 5.01zm10.99 8.368A3 3 0 0 1 22 18.171zm4.116-6.741a5 5 0 0 0-5.172 8.471L16 28l-3.937-6.446a5 5 0 1 0-5.17-8.47L6.1 11.783a19 19 0 0 1 19.799 0zm3.888-6.366a21.02 21.02 0 0 0-21.885 0L4 8.346a23.2 23.2 0 0 1 24 0z"/></svg>