<svg xmlns="http://www.w3.org/2000/svg" width="32" height="32" fill="none" viewBox="0 0 32 32"><path fill="#000" d="M17.317 17.683c-3.99-6.652 1.33-13.302 12.637-12.637.67 11.307-5.985 16.628-12.637 12.637m-15.285-7.65c-.475 8.076 4.277 11.875 9.027 9.026 2.85-4.75-.95-9.501-9.027-9.026" opacity=".08"/><path fill="#000" d="M30.954 4.986a1 1 0 0 0-.94-.94c-6.47-.375-11.665 1.593-13.898 5.278-1.475 2.435-1.472 5.395-.02 8.217a8.9 8.9 0 0 0-1.771 3.369l-2.034-2.035c.978-2.041.94-4.17-.125-5.936-1.655-2.723-5.464-4.189-10.192-3.905a1 1 0 0 0-.94.94C.755 14.703 2.216 18.51 4.94 20.16c.9.55 1.935.84 2.99.839a6.8 6.8 0 0 0 2.945-.709L14 23.416V27a1 1 0 1 0 2 0v-3.686a6.95 6.95 0 0 1 1.534-4.375 9.24 9.24 0 0 0 4.164 1.05 7.6 7.6 0 0 0 3.978-1.108c3.685-2.23 5.658-7.425 5.278-13.895M10.758 17.343l-3.052-3.05a1 1 0 0 0-1.414 1.413l3.052 3.052c-1.202.397-2.367.298-3.368-.308C4.06 17.289 2.974 14.54 3 11c3.539-.031 6.289 1.059 7.45 2.976.606 1.001.705 2.166.308 3.367m13.882-.17c-1.675 1.013-3.644 1.09-5.644.25l6.712-6.713a1 1 0 0 0-1.414-1.415L17.58 16c-.845-2-.768-3.97.25-5.644 1.743-2.875 5.875-4.475 11.167-4.354.12 5.29-1.48 9.428-4.358 11.17"/></svg>