<svg xmlns="http://www.w3.org/2000/svg" width="32" height="32" fill="none" viewBox="0 0 32 32"><path fill="#000" d="M25 8v12a4 4 0 0 1-4 4H11a4 4 0 0 1-4-4V8z" opacity=".08"/><path fill="#000" d="M28 7h-6V2a1 1 0 0 0-2 0v5h-8V2a1 1 0 0 0-2 0v5H4.069C3.285 7 3 7.598 3 8a1 1 0 0 0 1 1h2v11a5 5 0 0 0 5 5h4v5a1 1 0 0 0 2 0v-5h4a5 5 0 0 0 5-5V9h2a1 1 0 1 0 0-2m-4 13a3 3 0 0 1-3 3H11a3 3 0 0 1-3-3V9h16zm-10.822-3.43a1 1 0 0 1-.114-.921l1.5-4a1 1 0 1 1 1.875.702l-1 2.649H18a1 1 0 0 1 .936 1.351l-1.5 4a1.001 1.001 0 0 1-1.875-.702l1-2.649H14a1 1 0 0 1-.822-.43"/></svg>