<svg xmlns="http://www.w3.org/2000/svg" width="32" height="32" fill="none" viewBox="0 0 32 32"><path fill="#000" d="m26.5 16.5-7.329 7.329a4 4 0 0 1-5.656 0l-5.344-5.344a4 4 0 0 1 0-5.656L15.5 5.5z" opacity=".08"/><path fill="#000" d="M29.708 8.293a1 1 0 0 0-1.415 0L24 12.586 19.414 8l4.294-4.292a1 1 0 0 0-1.415-1.415L18 6.586l-3.292-3.293a1 1 0 0 0-1.415 1.415l.793.792-6.625 6.625a5 5 0 0 0 0 7.071l1.964 1.964-6.132 6.133a1 1 0 1 0 1.415 1.415l6.136-6.137 1.964 1.964a5 5 0 0 0 7.07 0l6.626-6.625.792.794a1 1 0 0 0 1.415-1.415L25.414 14l4.294-4.292a1 1 0 0 0 0-1.415M18.465 23.125a3 3 0 0 1-4.244 0L8.875 17.78a3 3 0 0 1 0-4.244L15.5 6.91l9.586 9.59z"/></svg>