<svg xmlns="http://www.w3.org/2000/svg" width="32" height="32" fill="none" viewBox="0 0 32 32"><path fill="#000" d="m23 19-1.826 8.218a1 1 0 0 1-.976.782h-8.395a1 1 0 0 1-.977-.782L9 19z" opacity=".08"/><path fill="#000" d="M25 18h-9.588l.294-.294 2.508-2.507a7.44 7.44 0 0 0 3.262.795 6.2 6.2 0 0 0 3.236-.903c2.965-1.795 4.554-5.95 4.25-11.115a1 1 0 0 0-.94-.94c-5.165-.302-9.32 1.285-11.116 4.25-1.169 1.932-1.199 4.264-.107 6.5l-1.8 1.8-1.525-1.527c.75-1.656.696-3.375-.174-4.81C11.94 7 8.825 5.8 4.966 6.028a1 1 0 0 0-.939.938C3.8 10.826 5 13.94 7.25 15.3c.753.46 1.618.702 2.5.7.8-.008 1.59-.186 2.315-.524L13.586 17l-1 1H7a1 1 0 1 0 0 2h1.199l1.65 7.434A1.986 1.986 0 0 0 11.803 29H20.2a1.99 1.99 0 0 0 1.952-1.566L23.802 20H25a1 1 0 0 0 0-2m-6.375-9.677C19.932 6.165 23.029 4.948 27 5c.051 3.977-1.164 7.073-3.321 8.375-1.44.875-3.175.818-4.91-.147-.967-1.729-1.02-3.468-.144-4.906m-7.111 5.19c-1.15.616-2.29.645-3.23.076C6.848 12.718 6.02 10.664 6 8c2.664.019 4.719.848 5.589 2.285.57.94.536 2.079-.075 3.229M20.199 27h-8.397l-1.552-7h11.5z"/></svg>