<svg xmlns="http://www.w3.org/2000/svg" width="32" height="32" fill="none" viewBox="0 0 32 32"><path fill="#000" d="m28.708 12.292-7.16 7.183c1.433 2.866-.214 5.732-1.263 7.125a1.002 1.002 0 0 1-1.5.103L5.293 13.22a1 1 0 0 1 .082-1.489c3.706-2.99 7.175-1.25 7.175-1.25l7.159-7.182a1 1 0 0 1 1.414 0l7.585 7.576a1 1 0 0 1 0 1.417" opacity=".08"/><path fill="#000" d="m29.415 10.171-7.586-7.585a2 2 0 0 0-2.829 0l-6.704 6.725c-1.332-.417-4.375-.92-7.55 1.643a2 2 0 0 0-.161 2.972l6.04 6.038-5.333 5.329a1 1 0 1 0 1.415 1.415l5.33-5.333 6.036 6.036a2 2 0 0 0 1.415.59h.14a2 2 0 0 0 1.456-.792c2.455-3.263 2.218-5.915 1.649-7.5L29.416 13a2 2 0 0 0-.001-2.829M28 11.586l-7.159 7.183a1 1 0 0 0-.186 1.152c1.182 2.367-.225 4.824-1.168 6.078L6 12.51c1.51-1.217 2.955-1.539 4.06-1.539a5 5 0 0 1 2.041.404 1 1 0 0 0 1.156-.189L20.416 4z"/></svg>