<svg xmlns="http://www.w3.org/2000/svg" width="32" height="32" fill="none" viewBox="0 0 32 32"><path fill="#000" d="M27 10H4v15a1 1 0 0 0 1 1h22a1 1 0 0 0 1-1V11a1 1 0 0 0-1-1m-7 12a4 4 0 1 1 0-8 4 4 0 0 1 0 8" opacity=".08"/><path fill="#000" d="M13 22a1 1 0 0 1-1 1H8a1 1 0 1 1 0-2h4a1 1 0 0 1 1 1m-1-5H8a1 1 0 0 0 0 2h4a1 1 0 1 0 0-2m0-4H8a1 1 0 0 0 0 2h4a1 1 0 1 0 0-2m17-2v14a2 2 0 0 1-2 2H5a2 2 0 0 1-2-2V10a1 1 0 0 1 .712-.958l20-6a1 1 0 1 1 .576 1.917L10.814 9H27a2 2 0 0 1 2 2m-2 14V11H5v14zm-2-7a5 5 0 1 1-9.998 0A5 5 0 0 1 25 18m-2 0a3 3 0 1 0-6 0 3 3 0 0 0 6 0"/></svg>