<svg xmlns="http://www.w3.org/2000/svg" width="32" height="32" fill="none" viewBox="0 0 32 32"><path fill="#000" d="M28 8.981V23.02a.99.99 0 0 1-1.523.823l-11.023-7.018a.976.976 0 0 1 0-1.648l11.023-7.019A.989.989 0 0 1 28 8.981m-14.522-.824-11.024 7.02a.975.975 0 0 0 0 1.647l11.023 7.018A.987.987 0 0 0 15 23.02V8.98a.989.989 0 0 0-1.523-.824" opacity=".08"/><path fill="#000" d="M27.971 7.25a2 2 0 0 0-2.031.066L16 13.643V8.98a1.99 1.99 0 0 0-3.06-1.668l-11.024 7.02a1.974 1.974 0 0 0 0 3.335l11.024 7.02A1.99 1.99 0 0 0 16 23.02v-4.662l9.94 6.33A1.99 1.99 0 0 0 29 23.02V8.98a1.98 1.98 0 0 0-1.029-1.73M14 22.99 3.022 16 14 9.007zm13 0L16.023 16 27 9.007z"/></svg>