<svg xmlns="http://www.w3.org/2000/svg" width="32" height="32" fill="none" viewBox="0 0 32 32"><path fill="#000" d="M11.851 24 8.17 26.78a1 1 0 0 1-1.601-.564l-1.545-6.954a1 1 0 0 1 .207-.857l3.789-4.541c-.145 2.917.567 6.315 2.831 10.136m14.918-5.595-3.789-4.541c.151 2.917-.567 6.315-2.831 10.136l3.681 2.78a1 1 0 0 0 1.601-.564l1.545-6.954a1 1 0 0 0-.207-.857" opacity=".08"/><path fill="#000" d="M19 28a1 1 0 0 1-1 1h-4a1 1 0 0 1 0-2h4a1 1 0 0 1 1 1m-3-14a1.5 1.5 0 1 0 0-3 1.5 1.5 0 0 0 0 3m11.953 5.479-1.546 6.954a2 2 0 0 1-3.188 1.138l-3.405-2.57h-7.625L8.78 27.57a2 2 0 0 1-3.189-1.138l-1.545-6.954a2.01 2.01 0 0 1 .415-1.714l3.57-4.282c.12-1.574.482-3.12 1.072-4.584 1.612-4.043 4.5-6.579 5.671-7.481a2 2 0 0 1 2.45 0c1.167.902 4.059 3.438 5.671 7.48.59 1.465.952 3.01 1.072 4.585l3.57 4.282a2.01 2.01 0 0 1 .415 1.714M12.429 23h7.142c2.64-4.692 3.134-9.185 1.468-13.36C19.569 5.955 16.81 3.625 16 3c-.814.625-3.571 2.955-5.041 6.64-1.664 4.175-1.17 8.668 1.47 13.36m-1.875.731q-2.02-3.67-2.45-7.21L6 19.044 7.545 26l.022-.016zM26 19.045l-2.104-2.525q-.428 3.535-2.445 7.211l2.982 2.25.022.017z"/></svg>