<svg xmlns="http://www.w3.org/2000/svg" width="32" height="32" fill="none" viewBox="0 0 32 32"><path fill="#000" d="M5.025 11.975a3.5 3.5 0 1 1 4.95-4.95 3.5 3.5 0 0 1-4.95 4.95m0 8.05a3.5 3.5 0 1 0 4.95 4.95 3.5 3.5 0 0 0-4.95-4.95" opacity=".08"/><path fill="#000" d="M19.716 14.141a1 1 0 0 1 .261-1.391l8.458-5.788a1 1 0 0 1 1.125 1.652L21.101 14.4a.99.99 0 0 1-1.385-.26m10.109 10.636a1 1 0 0 1-1.39.26L17 17.212l-5.314 3.635a4.5 4.5 0 1 1-1.125-1.648l4.668-3.2-4.674-3.198a4.482 4.482 0 1 1 1.125-1.649l17.875 12.234a1 1 0 0 1 .27 1.391M10 22.5a2.5 2.5 0 1 0-5-.001 2.5 2.5 0 0 0 5 0m-.733-11.234a2.5 2.5 0 1 0-3.535 0 2.48 2.48 0 0 0 3.535 0"/></svg>