<svg xmlns="http://www.w3.org/2000/svg" width="32" height="32" fill="none" viewBox="0 0 32 32"><path fill="#000" d="M9 21.5a3.5 3.5 0 1 1-7 0 3.5 3.5 0 0 1 7 0M26.5 18a3.5 3.5 0 1 0 0 7 3.5 3.5 0 0 0 0-7" opacity=".08"/><path fill="#000" d="M26.5 17q-.222 0-.439.021l-1.343-4.031-2.77-8.306A1 1 0 0 0 21 4h-4a1 1 0 1 0 0 2h3.279l2.375 7.109L16.51 21h-6.54a4.5 4.5 0 1 0-.229 2H17a1 1 0 0 0 .789-.386l5.625-7.225.75 2.266A4.5 4.5 0 1 0 26.5 17m-21 7a2.5 2.5 0 1 1 0-5 2.5 2.5 0 0 1 0 5m21 0a2.5 2.5 0 1 1 0-5 2.5 2.5 0 0 1 0 5"/></svg>