<svg xmlns="http://www.w3.org/2000/svg" width="32" height="32" fill="none" viewBox="0 0 32 32"><path fill="#000" d="M12.575 26c-8 0-8-12 4-12 1.906.007 3.797.338 5.591.979C22.375 20.295 18.985 26 12.575 26" opacity=".08"/><path fill="#000" d="M30.741 19.329c-.165-.183-3.011-3.278-7.625-5.07-.215-2.303-1.057-4.396-2.426-5.99C18.859 6.125 16.198 5 13 5 6.56 5 2.361 10.773 2.186 11.019a1 1 0 0 0 1.625 1.163C3.85 12.132 7.601 7 13 7c2.596 0 4.733.889 6.176 2.571.928 1.08 1.555 2.462 1.834 4A17.6 17.6 0 0 0 16.575 13c-3.257 0-5.991.851-7.908 2.461C6.972 16.886 6 18.875 6 20.906a5.95 5.95 0 0 0 1.734 4.257C8.94 26.365 10.616 27 12.575 27c6.476 0 10.148-5.266 10.561-10.552a20.2 20.2 0 0 1 6.125 4.223 1 1 0 1 0 1.483-1.342zm-11.807 2.705C17.83 23.386 15.832 25 12.575 25 9.415 25 8 22.944 8 20.906 8 18.061 10.684 15 16.575 15c1.56.005 3.11.244 4.598.71-.057 2.345-.865 4.637-2.24 6.324"/></svg>