<svg xmlns="http://www.w3.org/2000/svg" width="32" height="32" fill="none" viewBox="0 0 32 32"><path fill="#000" d="M27 6v14a1 1 0 0 1-1 1h-5v-9a1 1 0 0 0-1-1h-9V6a1 1 0 0 1 1-1h14a1 1 0 0 1 1 1" opacity=".08"/><path fill="#000" d="M20 10H6a2 2 0 0 0-2 2v14a2 2 0 0 0 2 2h14a2 2 0 0 0 2-2V12a2 2 0 0 0-2-2m0 16H6V12h14zM17 5a1 1 0 0 1 1-1h2a1 1 0 1 1 0 2h-2a1 1 0 0 1-1-1m11 1v1a1 1 0 0 1-2 0V6h-1a1 1 0 1 1 0-2h1a2 2 0 0 1 2 2m0 6v2a1 1 0 0 1-2 0v-2a1 1 0 0 1 2 0m0 7v1a2 2 0 0 1-2 2h-1a1 1 0 0 1 0-2h1v-1a1 1 0 0 1 2 0M10 7V6a2 2 0 0 1 2-2h1a1 1 0 1 1 0 2h-1v1a1 1 0 0 1-2 0"/></svg>