<svg xmlns="http://www.w3.org/2000/svg" width="32" height="32" fill="none" viewBox="0 0 32 32"><path fill="#000" d="m8 8 5 15H3zm17 1.5a5.5 5.5 0 1 0-11 0 5.5 5.5 0 0 0 11 0M17 19v7h11v-7z" opacity=".08"/><path fill="#000" d="M28 18H17a1 1 0 0 0-1 1v7a1 1 0 0 0 1 1h11a1 1 0 0 0 1-1v-7a1 1 0 0 0-1-1m-1 7h-9v-5h9zM8.949 7.684a1 1 0 0 0-1.898 0l-5 15A1 1 0 0 0 3 24h10a1 1 0 0 0 .949-1.316zM4.387 22 8 11.163 11.613 22zM26 9.5a6.5 6.5 0 1 0-6.5 6.5A6.51 6.51 0 0 0 26 9.5m-11 0a4.5 4.5 0 1 1 9 0 4.5 4.5 0 0 1-9 0"/></svg>