<svg xmlns="http://www.w3.org/2000/svg" width="32" height="32" fill="none" viewBox="0 0 32 32"><path fill="#000" d="M26.924 16c-.875 9.241-8.934 12.39-10.616 12.949A1 1 0 0 1 16 29V16zM16 6H6a1 1 0 0 0-1 1v7.346q0 .856.076 1.652H16z" opacity=".08"/><path fill="#000" d="M26 5H6a2 2 0 0 0-2 2v7.346c0 11.203 9.478 14.918 11.375 15.548a1.93 1.93 0 0 0 1.25 0C18.525 29.263 28 25.548 28 14.345V7a2 2 0 0 0-2-2m0 9.349c0 .221 0 .437-.014.651H17V7h9zM6 7h9v8H6.014Q6 14.68 6 14.349zm.218 10H15v10.615c-2.46-1.045-7.659-4-8.782-10.615M17 27.614V17h8.782C24.66 23.611 19.466 26.567 17 27.614"/></svg>