<svg xmlns="http://www.w3.org/2000/svg" width="32" height="32" fill="none" viewBox="0 0 32 32"><path fill="#000" d="M28 19a3 3 0 0 1-3 3h-6a3 3 0 1 1-3 3v-3h3a3 3 0 0 1-3-3v-3h9a3 3 0 0 1 3 3m-15-9h3V7a3 3 0 1 0-3 3H7a3 3 0 0 0 0 6h9v-3a3 3 0 0 0-3-3" opacity=".08"/><path fill="#000" d="M27.641 16A4 4 0 0 0 23 9.539v-2.54a4 4 0 0 0-7-2.64 4 4 0 0 0-6.461 4.64h-2.54a4 4 0 0 0-2.64 7 4 4 0 0 0 4.64 6.462V25a4 4 0 0 0 7 2.641A4 4 0 0 0 22.462 23H25a4 4 0 0 0 2.641-7M25 11a2 2 0 0 1 0 4h-2v-2a2 2 0 0 1 2-2m-6-6a2 2 0 0 1 2 2v6a2 2 0 0 1-2 2h-2V7a2 2 0 0 1 2-2m-8 2a2 2 0 1 1 4 0v2h-2a2 2 0 0 1-2-2m-6 6a2 2 0 0 1 2-2h6a2 2 0 0 1 2 2v2H7a2 2 0 0 1-2-2m2 8a2 2 0 1 1 0-4h2v2a2 2 0 0 1-2 2m6 6a2 2 0 0 1-2-2v-6a2 2 0 0 1 2-2h2v8a2 2 0 0 1-2 2m8-2a2 2 0 0 1-4 0v-2h2a2 2 0 0 1 2 2m4-4h-6a2 2 0 0 1-2-2v-2h8a2 2 0 0 1 0 4"/></svg>