<svg xmlns="http://www.w3.org/2000/svg" width="32" height="32" fill="none" viewBox="0 0 32 32"><path fill="#000" d="M28 16a12 12 0 1 1-23.999 0A12 12 0 0 1 28 16" opacity=".08"/><path fill="#000" d="M16 3a13 13 0 1 0 13 13A13.013 13.013 0 0 0 16 3m0 24a11 11 0 1 1 11-11 11.01 11.01 0 0 1-11 11m-6-13.5a1.5 1.5 0 1 1 3 0 1.5 1.5 0 0 1-3 0m12 0a1.5 1.5 0 1 1-3 0 1.5 1.5 0 0 1 3 0m-.135 6C20.579 21.724 18.441 23 16 23s-4.579-1.275-5.865-3.5a1.001 1.001 0 0 1 1.477-1.31q.157.129.253.31C12.799 20.114 14.266 21 16 21s3.201-.887 4.135-2.5a1 1 0 1 1 1.73 1"/></svg>