<svg xmlns="http://www.w3.org/2000/svg" width="32" height="32" fill="none" viewBox="0 0 32 32"><path fill="#000" d="M28 16a12 12 0 0 1-.526 3.526l-7.946 7.948A12 12 0 1 1 28 16" opacity=".08"/><path fill="#000" d="M21.865 19.5C20.579 21.724 18.441 23 16 23s-4.579-1.275-5.865-3.5a1 1 0 1 1 1.73-1C12.799 20.114 14.266 21 16 21s3.201-.887 4.135-2.5a.999.999 0 1 1 1.73 1M29 16c0 1.294-.192 2.582-.57 3.82a1 1 0 0 1-.25.414l-7.946 7.946a1 1 0 0 1-.413.25A13 13 0 1 1 29 16m-2 0a10.987 10.987 0 1 0-8 10.586L26.586 19c.276-.976.415-1.986.414-3m-15.5-1a1.5 1.5 0 1 0 0-3 1.5 1.5 0 0 0 0 3m9-3a1.5 1.5 0 1 0 0 2.999 1.5 1.5 0 0 0 0-2.999"/></svg>