<svg xmlns="http://www.w3.org/2000/svg" width="32" height="32" fill="none" viewBox="0 0 32 32"><path fill="#000" d="M31 24v1a1 1 0 0 1-1 1H18.414a1 1 0 0 1-.706-.292l-13.415-13a1 1 0 0 1 0-1.415l8-8.017a1 1 0 0 1 1.396.017l1.029 1.028a1 1 0 0 1 .29.66c.17 3.45 2.668 5.708 6.082 5.983a1 1 0 0 1 .909 1V15a5 5 0 0 0 5 5A4 4 0 0 1 31 24" opacity=".08"/><path fill="#000" d="M27 19a4 4 0 0 1-4-4v-3.038a2 2 0 0 0-1.829-1.992c-3.043-.25-5.022-2.174-5.163-5.034a2 2 0 0 0-.583-1.311l-1.027-1.029a1.99 1.99 0 0 0-2.794-.034l-.019.018-8 8.015a2 2 0 0 0 0 2.827l.011.012 13.41 13c.375.367.882.57 1.408.566H30a2 2 0 0 0 2-2v-1a5 5 0 0 0-5-5m3 6H18.414l-.011-.01L5 12l7.984-8 1.026 1.025c.095 1.927.831 3.606 2.125 4.854 1.25 1.2 2.931 1.917 4.86 2.075V14H19a1 1 0 1 0 0 2h2.085c.119.704.364 1.382.723 2H20a1 1 0 1 0 0 2h3.689A5.96 5.96 0 0 0 27 21a3 3 0 0 1 3 3zM8 23H4a1 1 0 0 1 0-2h4a1 1 0 1 1 0 2m5 3a1 1 0 0 1-1 1H6a1 1 0 0 1 0-2h6a1 1 0 0 1 1 1"/></svg>