<svg xmlns="http://www.w3.org/2000/svg" width="32" height="32" fill="none" viewBox="0 0 32 32"><path fill="#000" d="M26 19v8H6v-8z" opacity=".08"/><path fill="#000" d="M27 19.011V27a1 1 0 0 1-1 1H6a1 1 0 0 1-1-1v-7.989a1 1 0 0 1 2 0V26h18v-6.989a1 1 0 0 1 2 0m-16 4h10a1 1 0 1 0 0-2H11a1 1 0 0 0 0 2m.61-6.625 9.659 2.585a.99.99 0 0 0 .914-.215 1 1 0 0 0-.395-1.713l-9.663-2.592a1 1 0 1 0-.515 1.924zm2.306-6.241 8.66 5a.998.998 0 0 0 1-1.73l-8.66-5.006a1 1 0 1 0-1 1.73zm10.917 1.625a1.002 1.002 0 1 0 1.417-1.415l-7.071-7.063a1 1 0 0 0-1.415 1.413z"/></svg>