<svg xmlns="http://www.w3.org/2000/svg" width="32" height="32" fill="none" viewBox="0 0 32 32"><path fill="#000" d="M16 3v20.829c-.182 0-.36.05-.515.145l-6.387 3.875a1 1 0 0 1-1.487-1.087l1.69-7.317a1.01 1.01 0 0 0-.317-.986l-5.639-4.915a1 1 0 0 1 .567-1.759l7.433-.643a1 1 0 0 0 .834-.61l2.903-6.92A.98.98 0 0 1 16 3" opacity=".08"/><path fill="#000" d="M29.9 12.161a2 2 0 0 0-1.726-1.375l-7.424-.64-2.91-6.92a1.994 1.994 0 0 0-3.68 0l-2.901 6.92-7.433.643a2 2 0 0 0-1.138 3.508l5.638 4.928-1.69 7.317a2 2 0 0 0 2.98 2.168l6.375-3.875 6.389 3.875a2 2 0 0 0 2.98-2.168l-1.689-7.324 5.638-4.92a2 2 0 0 0 .591-2.137M8.585 27l1.69-7.325a2 2 0 0 0-.635-1.964L4 12.794v-.013l7.43-.641a2 2 0 0 0 1.669-1.219L15 6.394V23.1l-.034.019zM28 12.791l-5.637 4.92a2 2 0 0 0-.636 1.964L23.42 27l-6.384-3.875-.034-.019V6.394l1.9 4.527a2 2 0 0 0 1.669 1.219l7.43.643z"/></svg>