<svg xmlns="http://www.w3.org/2000/svg" width="32" height="32" fill="none" viewBox="0 0 32 32"><path fill="#000" d="m28.345 16.935-7.931 2.884a1 1 0 0 0-.595.595l-2.884 7.93a1 1 0 0 1-1.875 0l-2.879-7.93a1 1 0 0 0-.595-.595l-7.931-2.884a1 1 0 0 1 0-1.875l7.931-2.879a1 1 0 0 0 .595-.595l2.884-7.931a1 1 0 0 1 1.875 0l2.884 7.931a1 1 0 0 0 .595.595l7.93 2.884a1 1 0 0 1-.004 1.87" opacity=".08"/><path fill="#000" d="m28.688 14.125-7.93-2.875-2.883-7.937a2 2 0 0 0-3.75 0L11.25 11.24l-7.937 2.884a2 2 0 0 0 0 3.75l7.928 2.875 2.884 7.938a2 2 0 0 0 3.75 0l2.884-7.93 7.929-2.883a2 2 0 0 0 0-3.75m-8.617 4.75a2 2 0 0 0-1.192 1.193L16 27.988l-2.875-7.917a2 2 0 0 0-1.196-1.196L4.013 16l7.916-2.875a2 2 0 0 0 1.196-1.196L16 4.013l2.875 7.916a2 2 0 0 0 1.193 1.192l7.916 2.875z"/></svg>