<svg xmlns="http://www.w3.org/2000/svg" width="32" height="32" fill="none" viewBox="0 0 32 32"><path fill="#000" d="M24 18a8 8 0 0 1-.25 2H8.25A8 8 0 1 1 24 18" opacity=".08"/><path fill="#000" d="M30 19h-5.056q.055-.498.056-1a9 9 0 1 0-17.944 1H2a1 1 0 0 0 0 2h28a1 1 0 1 0 0-2M9 18a7 7 0 1 1 13.926 1H9.074A7 7 0 0 1 9 18m18 7a1 1 0 0 1-1 1H6a1 1 0 1 1 0-2h20a1 1 0 0 1 1 1M9.105 5.447a1 1 0 0 1 1.79-.895l1 2a1 1 0 1 1-1.79.895zm-7 6.105a1 1 0 0 1 1.342-.446l2 1a1 1 0 1 1-.894 1.789l-2-1a1 1 0 0 1-.448-1.343m24 1.895a1 1 0 0 1 .447-1.34l2-1a.999.999 0 0 1 1.204 1.549 1 1 0 0 1-.308.239l-2 1a1 1 0 0 1-1.343-.448m-6-6.895 1-2a1 1 0 0 1 1.79.895l-1 2a1 1 0 0 1-1.79-.895"/></svg>