<svg xmlns="http://www.w3.org/2000/svg" width="32" height="32" fill="none" viewBox="0 0 32 32"><path fill="#000" d="M27 6v13a1 1 0 0 1-1 1h-5v6a1 1 0 0 1-1 1H6a1 1 0 0 1-1-1V13a1 1 0 0 1 1-1h5V6a1 1 0 0 1 1-1h14a1 1 0 0 1 1 1" opacity=".08"/><path fill="#000" d="M28 6v13a2 2 0 0 1-2 2H12.414l1.293 1.293a1 1 0 0 1-1.415 1.415l-3-3a1 1 0 0 1 0-1.415l3-3a1 1 0 1 1 1.415 1.415L12.415 19H26V6H12v1a1 1 0 0 1-2 0V6a2 2 0 0 1 2-2h14a2 2 0 0 1 2 2m-7 18a1 1 0 0 0-1 1v1H6V13h13.586l-1.293 1.293a1 1 0 1 0 1.415 1.415l3-3a1 1 0 0 0 0-1.415l-3-3a1 1 0 1 0-1.415 1.415L19.586 11H6a2 2 0 0 0-2 2v13a2 2 0 0 0 2 2h14a2 2 0 0 0 2-2v-1a1 1 0 0 0-1-1"/></svg>