<svg xmlns="http://www.w3.org/2000/svg" width="32" height="32" fill="none" viewBox="0 0 32 32"><path fill="#000" d="m17.708 25.125-1.583 1.583a1 1 0 0 1-1.415 0L11.5 23.5l-4.206 4.208a1 1 0 0 1-1.415 0l-1.586-1.583a1 1 0 0 1 0-1.414l4.207-4.21-3.207-3.206a1 1 0 0 1 0-1.415l1.582-1.587a1 1 0 0 1 1.415 0l9.413 9.412a1 1 0 0 1 .005 1.42" opacity=".08"/><path fill="#000" d="M27 4h-8a1 1 0 0 0-.793.39l-8 10.401L9 13.586a2 2 0 0 0-2.83 0l-1.586 1.588a2 2 0 0 0 0 2.829l2.5 2.5-3.5 3.5a2 2 0 0 0 0 2.828l1.586 1.585a2 2 0 0 0 2.827 0l3.5-3.5 2.5 2.5a2 2 0 0 0 2.83 0l1.587-1.587a2 2 0 0 0 0-2.829l-1.205-1.205 10.401-8A1 1 0 0 0 28 13V5a1 1 0 0 0-1-1M6.586 27 5 25.415l3.5-3.5 1.585 1.585zm8.827-1L6 16.589 7.588 15 17 24.414zM26 12.508l-10.217 7.86L14.415 19l6.293-6.292a1 1 0 0 0-1.415-1.414L13 17.585l-1.366-1.367L19.492 6H26z"/></svg>