<svg xmlns="http://www.w3.org/2000/svg" width="32" height="32" fill="none" viewBox="0 0 32 32"><path fill="#000" d="M27 10v4h-4v-4a2 2 0 1 1 4 0M9 10a2 2 0 1 0-4 0v4h4zm0 7v10h5v-5a2 2 0 0 1 4 0v5h5V17l-7-4z" opacity=".08"/><path fill="#000" d="M26 7.173V4a1 1 0 0 0-2 0v3.173A3 3 0 0 0 22 10v5.276l-5-2.856V9a1 1 0 0 0-2 0v3.42l-5 2.856V10a3 3 0 0 0-2-2.827V4a1 1 0 0 0-2 0v3.173A3 3 0 0 0 4 10v17a1 1 0 0 0 1 1h9a1 1 0 0 0 1-1v-5a1 1 0 0 1 2 0v5a1 1 0 0 0 1 1h9a1 1 0 0 0 1-1V10a3 3 0 0 0-2-2.827M25 9a1 1 0 0 1 1 1v3h-2v-3a1 1 0 0 1 1-1M7 9a1 1 0 0 1 1 1v3H6v-3a1 1 0 0 1 1-1m-1 6h2v11H6zm10 4a3 3 0 0 0-3 3v4h-3v-8.42l6-3.429 6 3.429V26h-3v-4a3 3 0 0 0-3-3m8 7V15h2v11z"/></svg>