<svg xmlns="http://www.w3.org/2000/svg" width="32" height="32" fill="none" viewBox="0 0 32 32"><path fill="#000" d="M29.708 19.125 19.124 29.708a1 1 0 0 1-1.414 0L5.293 17.293A1 1 0 0 1 5 16.586V5h11.586a1 1 0 0 1 .707.293l12.415 12.415a1 1 0 0 1 0 1.417" opacity=".08"/><path fill="#000" d="M30.414 17 18 4.586A1.98 1.98 0 0 0 16.586 4H5a1 1 0 0 0-1 1v11.586A1.98 1.98 0 0 0 4.586 18L17 30.414a2 2 0 0 0 2.829 0l10.585-10.585a2 2 0 0 0 0-2.829m-12 12L6 16.586V6h10.586L29 18.414zM12 10.5a1.5 1.5 0 1 1-3 0 1.5 1.5 0 0 1 3 0"/></svg>