<svg xmlns="http://www.w3.org/2000/svg" width="32" height="32" fill="none" viewBox="0 0 32 32"><path fill="#000" d="M11 25V16.86l5.546 4.864-3.826 3.97A1 1 0 0 1 11 25M28.829 4.01 3.5 13.923a.779.779 0 0 0 .125 1.49L11 16.859 29 4.153a.125.125 0 0 0-.171-.144" opacity=".08"/><path fill="#000" d="M29.61 3.274a1.13 1.13 0 0 0-1.145-.196L3.133 12.99a1.777 1.777 0 0 0 .303 3.401L10 17.682V25a1.99 1.99 0 0 0 1.25 1.854 1.99 1.99 0 0 0 2.189-.466l3.165-3.283 5.021 4.395a1.99 1.99 0 0 0 1.939.401 1.98 1.98 0 0 0 1.334-1.453L29.97 4.375a1.12 1.12 0 0 0-.36-1.101m-7.642 4.5-11.2 8.02-6.2-1.216zM12 25v-5.935l3.099 2.717zm10.941 1-10.335-9.062L27.481 6.275z"/></svg>