<svg xmlns="http://www.w3.org/2000/svg" width="32" height="32" fill="none" viewBox="0 0 32 32"><path fill="#000" d="m22 9-6.914 6.381c-3-.837-5.697-1.782-5.697-4.375 0-2.76 2.75-5 6.611-5C18.9 6 21.046 7.206 22 9m-6.914 6.381L9 21.001c0 2.76 3.134 5 7 5s7-2.24 7-5c0-3.697-4.185-4.576-7.914-5.62" opacity=".08"/><path fill="#000" d="M28 16a1 1 0 0 1-1 1h-5.009C23.14 17.889 24 19.15 24 21c0 1.668-.875 3.212-2.469 4.349C20.041 26.414 18.076 27 16 27s-4.041-.586-5.531-1.651C8.875 24.212 8 22.668 8 21a1 1 0 1 1 2 0c0 2.169 2.75 4 6 4s6-1.831 6-4c0-1.856-1.317-2.948-4.846-4H5a1 1 0 0 1 0-2h22a1 1 0 0 1 1 1M9.541 13a1 1 0 0 0 .951-1.311A2.2 2.2 0 0 1 10.39 11c0-2.28 2.412-4 5.611-4 2.355 0 4.27.928 5.125 2.481a1 1 0 0 0 1.75-.962C21.666 6.315 19.096 5 16 5c-4.339 0-7.611 2.579-7.611 6-.002.445.066.888.202 1.311a1 1 0 0 0 .95.689"/></svg>