<svg xmlns="http://www.w3.org/2000/svg" width="32" height="32" fill="none" viewBox="0 0 32 32"><path fill="#000" d="M25 16a4 4 0 0 0 3.2 3.92 1 1 0 0 1 .8.979V24a1 1 0 0 1-1 1H12V7h16a1 1 0 0 1 1 1v3.101a1 1 0 0 1-.8.979A4 4 0 0 0 25 16" opacity=".08"/><path fill="#000" d="M28.399 13.06A2 2 0 0 0 30 11.101V8a2 2 0 0 0-2-2H4a2 2 0 0 0-2 2v3.101a2 2 0 0 0 1.601 1.959 3 3 0 0 1 0 5.875A2 2 0 0 0 2 20.899V24a2 2 0 0 0 2 2h24a2 2 0 0 0 2-2v-3.101a2 2 0 0 0-1.601-1.959 3 3 0 0 1 0-5.875zM4 20.9a5 5 0 0 0 0-9.799V8h7v16H4zm24 0V24H13V8h15v3.1a5 5 0 0 0 0 9.799z"/></svg>