<svg xmlns="http://www.w3.org/2000/svg" width="32" height="32" fill="none" viewBox="0 0 32 32"><path fill="#000" d="M27 9.97c.009 8.928-2.935 16.029-5.5 17.848a1 1 0 0 1-1.565-.75C19.75 24.537 19 20 16 20s-3.75 4.539-3.939 7.066a1 1 0 0 1-1.565.75C7.935 26 4.991 18.898 5 9.97A5.99 5.99 0 0 1 11 4h10a5.993 5.993 0 0 1 6 5.97" opacity=".08"/><path fill="#000" d="M21.375 8.928 18.692 10l2.683 1.071a1 1 0 0 1-.75 1.857L16 11.076l-4.625 1.851a1.003 1.003 0 0 1-1.376-.936 1 1 0 0 1 .626-.92L13.307 10l-2.682-1.072a1 1 0 1 1 .75-1.857L16 8.922l4.625-1.85a1.001 1.001 0 0 1 .75 1.856M28 9.968c0 5.34-1 9.426-1.837 11.91-1.09 3.226-2.578 5.687-4.08 6.75a1.96 1.96 0 0 1-1.994.177 2.01 2.01 0 0 1-1.148-1.67C18.835 25.698 18.31 21 16 21s-2.835 4.699-2.941 6.139a2.01 2.01 0 0 1-2 1.862c-.41 0-.809-.13-1.141-.369-1.5-1.066-2.99-3.527-4.08-6.75C5 19.395 4 15.31 4 9.97A7 7 0 0 1 11 3h10a7 7 0 0 1 7 6.969m-2 0A5 5 0 0 0 21 5H11a5 5 0 0 0-5 4.97c0 5.069.939 8.925 1.731 11.268 1.382 4.082 2.875 5.42 3.326 5.75C11.448 21.834 13.2 19 16 19s4.556 2.839 4.936 7.993c.45-.324 1.947-1.658 3.333-5.75C25.06 18.895 26 15.039 26 9.97z"/></svg>