<svg xmlns="http://www.w3.org/2000/svg" width="32" height="32" fill="none" viewBox="0 0 32 32"><path fill="#000" d="m28.993 10.116-1.782 15a1.01 1.01 0 0 1-1 .884H5.791a1.007 1.007 0 0 1-1-.884l-1.781-15A1 1 0 0 1 4.01 9h23.98a1 1 0 0 1 1.003 1.116" opacity=".08"/><path fill="#000" d="M29.5 8.675A2.02 2.02 0 0 0 27.99 8H22a6 6 0 0 0-12 0H4.01a2.02 2.02 0 0 0-1.5.675 2 2 0 0 0-.49 1.56l1.782 15a2 2 0 0 0 2 1.765H26.21a2 2 0 0 0 2-1.765l1.782-15a2 2 0 0 0-.491-1.56M16 4a4 4 0 0 1 4 4h-8a4 4 0 0 1 4-4m10.22 21H5.781L4.01 10H10v3a1 1 0 1 0 2 0v-3h8v3a1 1 0 1 0 2 0v-3h6z"/></svg>