<svg xmlns="http://www.w3.org/2000/svg" width="32" height="32" fill="none" viewBox="0 0 32 32"><path fill="#000" d="m29.686 16.756-12.93 12.93a1.07 1.07 0 0 1-1.512 0l-12.93-12.93a1.066 1.066 0 0 1 0-1.512L15.25 2.314a1.07 1.07 0 0 1 1.512 0L29.687 15.25a1.067 1.067 0 0 1 0 1.506" opacity=".08"/><path fill="#000" d="m30.394 14.536-12.93-12.93a2.07 2.07 0 0 0-2.928 0l-12.93 12.93a2.07 2.07 0 0 0 0 2.928l12.93 12.93a2.07 2.07 0 0 0 2.928 0l12.93-12.93a2.07 2.07 0 0 0 0-2.928M28.98 16.05 16.049 28.98a.07.07 0 0 1-.098 0L3.02 16.05a.07.07 0 0 1 0-.098l12.931-12.93A.06.06 0 0 1 16 3q.03 0 .05.02l12.93 12.93a.07.07 0 0 1 0 .098m-7.273-1.75a1 1 0 0 1 0 1.415l-3 3a1 1 0 1 1-1.415-1.415L18.587 16H14a2 2 0 0 0-2 2v1a1 1 0 1 1-2 0v-1a4 4 0 0 1 4-4h4.586l-1.293-1.292a1 1 0 0 1 1.415-1.415z"/></svg>