<svg xmlns="http://www.w3.org/2000/svg" width="32" height="32" fill="none" viewBox="0 0 32 32"><path fill="#000" d="M23 4H9a1 1 0 0 0-1 1v22a1 1 0 0 0 1 1h14a1 1 0 0 0 1-1V5a1 1 0 0 0-1-1m-7 20a3 3 0 1 1 0-5.999A3 3 0 0 1 16 24m0-10a3 3 0 1 1 0-5.999A3 3 0 0 1 16 14" opacity=".08"/><path fill="#000" d="M16 7a4 4 0 1 0 0 8 4 4 0 0 0 0-8m0 6a2 2 0 1 1 0-4 2 2 0 0 1 0 4m0 4a4 4 0 1 0 0 8 4 4 0 0 0 0-8m0 6a2 2 0 1 1 0-4 2 2 0 0 1 0 4m11-5h-2v-8h2a1 1 0 1 0 0-2h-2V5a2 2 0 0 0-2-2H9a2 2 0 0 0-2 2v3H5a1 1 0 0 0 0 2h2v8H5a1 1 0 0 0 0 2h2v7a2 2 0 0 0 2 2h14a2 2 0 0 0 2-2v-7h2a1 1 0 0 0 0-2m-4 9H9V5h14z"/></svg>