<svg xmlns="http://www.w3.org/2000/svg" width="32" height="32" fill="none" viewBox="0 0 32 32"><path fill="#000" d="M9 14v4a1 1 0 0 1-1 1H4a1 1 0 0 1-1-1v-4a1 1 0 0 1 1-1h4a1 1 0 0 1 1 1m18-9h-6a1 1 0 0 0-1 1v6a1 1 0 0 0 1 1h6a1 1 0 0 0 1-1V6a1 1 0 0 0-1-1m0 14h-6a1 1 0 0 0-1 1v6a1 1 0 0 0 1 1h6a1 1 0 0 0 1-1v-6a1 1 0 0 0-1-1" opacity=".08"/><path fill="#000" d="M21 14h6a2 2 0 0 0 2-2V6a2 2 0 0 0-2-2h-6a2 2 0 0 0-2 2v2h-1a4 4 0 0 0-4 4v3h-4v-1a2 2 0 0 0-2-2H4a2 2 0 0 0-2 2v4a2 2 0 0 0 2 2h4a2 2 0 0 0 2-2v-1h4v3a4 4 0 0 0 4 4h1v2a2 2 0 0 0 2 2h6a2 2 0 0 0 2-2v-6a2 2 0 0 0-2-2h-6a2 2 0 0 0-2 2v2h-1a2 2 0 0 1-2-2v-8a2 2 0 0 1 2-2h1v2a2 2 0 0 0 2 2M8 18H4v-4h4zm13 2h6v6h-6zm0-14h6v6h-6z"/></svg>