<svg xmlns="http://www.w3.org/2000/svg" width="32" height="32" fill="none" viewBox="0 0 32 32"><path fill="#000" d="M26.933 27H5.068C3.49 27 2.5 25.349 3.265 24.01L14.2 5.027c.787-1.375 2.815-1.375 3.602 0l10.933 18.984C29.5 25.35 28.51 27 26.932 27" opacity=".08"/><path fill="#000" d="M29.6 23.511 18.669 4.528a3.095 3.095 0 0 0-5.338 0L2.4 23.51a2.94 2.94 0 0 0 0 2.965A3.04 3.04 0 0 0 5.069 28H26.93a3.04 3.04 0 0 0 2.666-1.524 2.94 2.94 0 0 0 .003-2.965m-1.734 1.964a1.06 1.06 0 0 1-.935.525H5.07a1.06 1.06 0 0 1-.935-.525.95.95 0 0 1 0-.965L15.065 5.526a1.094 1.094 0 0 1 1.875 0L27.871 24.51a.95.95 0 0 1-.005.965"/></svg>