<svg xmlns="http://www.w3.org/2000/svg" width="32" height="32" fill="none" viewBox="0 0 32 32"><path fill="#000" d="M27 6v13.531a1 1 0 0 1-.36.769l-5.361 4.469c-.18.15-.407.23-.642.231h-5.274c-.235 0-.461.082-.642.231L9 30v-5H6a1 1 0 0 1-1-1V6a1 1 0 0 1 1-1h20a1 1 0 0 1 1 1" opacity=".08"/><path fill="#000" d="M26 4H6a2 2 0 0 0-2 2v18a2 2 0 0 0 2 2h2v4a1 1 0 0 0 1.64.769L15.363 26h5.275a2 2 0 0 0 1.28-.464l5.362-4.469a2 2 0 0 0 .72-1.536V6a2 2 0 0 0-2-2m0 15.531L20.637 24h-5.274a2 2 0 0 0-1.282.464L10 27.865V25a1 1 0 0 0-1-1H6V6h20zM20 17v-6a1 1 0 0 1 2 0v6a1 1 0 0 1-2 0m-6 0v-6a1 1 0 0 1 2 0v6a1 1 0 0 1-2 0"/></svg>