<svg xmlns="http://www.w3.org/2000/svg" width="32" height="32" fill="none" viewBox="0 0 32 32"><path fill="#000" d="m30 9-4 4c-.532 8.355-7.51 15-16 15-4 0-5-1.5-5-1.5S9 25 11 22c0 0-6.894-4-5.902-15 0 0 4.957 5 10.902 6v-2c0-2.75 2.25-5.034 5-5a5.09 5.09 0 0 1 4.584 3z" opacity=".08"/><path fill="#000" d="M30.924 8.618A1 1 0 0 0 30 8h-3.804a6.08 6.08 0 0 0-5.184-3 5.86 5.86 0 0 0-4.217 1.713A5.98 5.98 0 0 0 15 11v.761C9.967 10.434 5.851 6.34 5.807 6.296a1 1 0 0 0-1.706.615c-.537 5.974 1.196 9.972 2.75 12.273a13.9 13.9 0 0 0 2.736 3.025C7.68 24.4 4.681 25.55 4.65 25.564a1 1 0 0 0-.481 1.491c.092.14.468.631 1.385 1.09C6.689 28.712 8.185 29 10 29c8.835 0 16.215-6.802 16.97-15.555l3.738-3.737a1 1 0 0 0 .216-1.09m-5.625 3.676a1 1 0 0 0-.29.642C24.5 20.823 17.91 27 10 27c-1.32 0-2.25-.175-2.903-.385 1.44-.781 3.446-2.125 4.735-4.06a1 1 0 0 0-.326-1.418c-.016-.01-1.607-.967-3.06-3.16C6.817 15.513 6 12.546 6 9.136c2 1.624 5.656 4.147 9.836 4.85A1 1 0 0 0 17 13v-2a4 4 0 0 1 1.2-2.865A3.86 3.86 0 0 1 20.988 7c1.582.02 3.06.985 3.68 2.401a1 1 0 0 0 .916.599h2z"/></svg>