<svg xmlns="http://www.w3.org/2000/svg" width="32" height="32" fill="none" viewBox="0 0 32 32"><path fill="#000" d="M16 4s-5 4-5 13H4a1 1 0 0 1-1-1.089A13.026 13.026 0 0 1 16 4m13 11.911A13.026 13.026 0 0 0 16 4s5 4 5 13h7a1 1 0 0 0 1-1.089" opacity=".08"/><path fill="#000" d="M30 15.829A14.055 14.055 0 0 0 6.47 6.719a13.95 13.95 0 0 0-4.463 9.11A2 2 0 0 0 4 17.999h11v7a4 4 0 1 0 8 0 1 1 0 1 0-2 0 2 2 0 1 1-4 0v-7h11a2 2 0 0 0 2-2.17m-26 .17a12.02 12.02 0 0 1 9.525-10.735C12.06 7.25 10.231 10.764 10.021 16zm8.019 0c.174-3.845 1.316-6.6 2.287-8.28A13.3 13.3 0 0 1 16 5.396a13.3 13.3 0 0 1 1.69 2.325c1.66 2.867 2.185 5.94 2.288 8.28zm9.956 0c-.21-5.235-2.039-8.75-3.5-10.742A12.01 12.01 0 0 1 28 16z"/></svg>