<svg xmlns="http://www.w3.org/2000/svg" width="32" height="32" fill="none" viewBox="0 0 32 32"><path fill="#000" d="M21 12.5a7.5 7.5 0 1 1-15 0 7.5 7.5 0 0 1 15 0" opacity=".08"/><path fill="#000" d="M18 19.71a8.5 8.5 0 1 0-8.987 0c-2.582.845-4.904 2.424-6.772 4.646a.999.999 0 1 0 1.53 1.288C6.281 22.649 9.74 21 13.501 21c3.76 0 7.218 1.649 9.733 4.644a1 1 0 1 0 1.532-1.288c-1.868-2.222-4.19-3.8-6.766-4.646M7 12.5a6.5 6.5 0 1 1 6.5 6.5A6.507 6.507 0 0 1 7 12.5m23.531 5.384-.582-.336a3 3 0 0 0 0-1.095l.582-.337a1 1 0 0 0-1-1.732l-.583.337a3 3 0 0 0-.948-.548V13.5a1 1 0 1 0-2 0v.673c-.347.123-.668.309-.947.548l-.584-.337a1 1 0 1 0-1 1.732l.582.337a3 3 0 0 0 0 1.095l-.582.336a1 1 0 1 0 1 1.732l.584-.337c.279.24.6.426.947.549v.672a1 1 0 0 0 2 0v-.672a3 3 0 0 0 .948-.55l.583.338a1 1 0 1 0 1-1.732m-3.53.116A1 1 0 1 1 27 16.001a1 1 0 0 1 0 2"/></svg>