<svg xmlns="http://www.w3.org/2000/svg" width="32" height="32" fill="none" viewBox="0 0 32 32"><path fill="#000" d="M26 5H6a1 1 0 0 0-1 1v20a1 1 0 0 0 1 1h20a1 1 0 0 0 1-1V6a1 1 0 0 0-1-1M7.223 27A9 9 0 0 1 16 20a5 5 0 1 1 0-10 5 5 0 0 1 0 10 9 9 0 0 1 8.778 7z" opacity=".08"/><path fill="#000" d="M26 4H6a2 2 0 0 0-2 2v20a2 2 0 0 0 2 2h20a2 2 0 0 0 2-2V6a2 2 0 0 0-2-2M12 15a4 4 0 1 1 8 0 4 4 0 0 1-8 0M8.584 26a8 8 0 0 1 14.833 0zM26 26h-.459a9.99 9.99 0 0 0-5.836-6.286 6 6 0 1 0-7.41 0A9.98 9.98 0 0 0 6.459 26H6V6h20z"/></svg>