<svg xmlns="http://www.w3.org/2000/svg" width="32" height="32" fill="none" viewBox="0 0 32 32"><path fill="#000" d="M28 16a11.97 11.97 0 0 1-3.975 8.921A9 9 0 0 0 16 20a5 5 0 1 0 0-10 5 5 0 0 0 0 10 9 9 0 0 0-8.025 4.921A12 12 0 1 1 28 16" opacity=".08"/><path fill="#000" d="M16 3a13 13 0 1 0 13 13A13.013 13.013 0 0 0 16 3M9.26 24.688a8 8 0 0 1 13.48 0 10.98 10.98 0 0 1-13.48 0M12 15a4 4 0 1 1 8 0 4 4 0 0 1-8 0m12.22 8.301a9.96 9.96 0 0 0-4.507-3.593 6 6 0 1 0-7.426 0A9.96 9.96 0 0 0 7.78 23.3a11 11 0 1 1 16.44 0"/></svg>