<svg xmlns="http://www.w3.org/2000/svg" width="32" height="32" fill="none" viewBox="0 0 32 32"><path fill="#000" d="M28 7v18a1 1 0 0 1-1 1h-2.512A9 9 0 0 0 16 20a5 5 0 1 0 0-10 5 5 0 0 0 0 10 9 9 0 0 0-8.487 6H5a1 1 0 0 1-1-1V7a1 1 0 0 1 1-1h22a1 1 0 0 1 1 1" opacity=".08"/><path fill="#000" d="M27 5H5a2 2 0 0 0-2 2v18a2 2 0 0 0 2 2h22a2 2 0 0 0 2-2V7a2 2 0 0 0-2-2M12 15a4 4 0 1 1 8 0 4 4 0 0 1-8 0M9.071 25a8 8 0 0 1 13.858 0zM27 25h-1.834a10.02 10.02 0 0 0-5.461-5.285 6 6 0 1 0-7.41 0A10.02 10.02 0 0 0 6.834 25H5V7h22z"/></svg>