<svg xmlns="http://www.w3.org/2000/svg" width="32" height="32" fill="none" viewBox="0 0 32 32"><path fill="#000" d="M27 6H5a1 1 0 0 0-1 1v18a1 1 0 0 0 1 1h22a1 1 0 0 0 1-1V7a1 1 0 0 0-1-1M16 22c-4.419 0-8-2.686-8-6s3.581-6 8-6 8 2.686 8 6-3.581 6-8 6" opacity=".08"/><path fill="#000" d="M27 5H5a2 2 0 0 0-2 2v18a2 2 0 0 0 2 2h22a2 2 0 0 0 2-2V7a2 2 0 0 0-2-2m0 20H5V7h22zm-4.744-14.042C20.574 9.695 18.351 9 16 9s-4.574.695-6.25 1.957C7.974 12.285 7 14.076 7 16s.974 3.716 2.75 5.043C11.426 22.305 13.649 23 16 23s4.574-.695 6.256-1.957C24.026 19.716 25 17.925 25 16s-.974-3.716-2.744-5.042M16 21c-3.86 0-7-2.242-7-5s3.14-5 7-5 7 2.242 7 5-3.14 5-7 5"/></svg>