<svg xmlns="http://www.w3.org/2000/svg" width="32" height="32" fill="none" viewBox="0 0 32 32"><path fill="#000" d="M16 4a12 12 0 1 0 0 24 12 12 0 0 0 0-24m0 15a3 3 0 1 1 0-5.999A3 3 0 0 1 16 19" opacity=".08"/><path fill="#000" d="M16 3a13 13 0 1 0 13 13A13.013 13.013 0 0 0 16 3m0 24a11 11 0 1 1 11-11 11.01 11.01 0 0 1-11 11m0-18a7.01 7.01 0 0 0-7 7 1 1 0 1 1-2 0 9.01 9.01 0 0 1 9-9 1 1 0 1 1 0 2m9 7a9.01 9.01 0 0 1-9 9 1 1 0 0 1 0-2 7.01 7.01 0 0 0 7-7 1 1 0 0 1 2 0m-5 0a4 4 0 1 0-8 0 4 4 0 0 0 8 0m-6 0a2 2 0 1 1 4 0 2 2 0 0 1-4 0"/></svg>