<svg xmlns="http://www.w3.org/2000/svg" width="32" height="32" fill="none" viewBox="0 0 32 32"><path fill="#000" d="M29 16c-6.5 13.856-9.75 6.929-13 0zM3 16h13C12.75 9.071 9.5 2.144 3 16" opacity=".08"/><path fill="#000" d="M29.905 16.425C27.155 22.275 24.73 25 22.255 25c-3.137 0-5.091-4.165-7.16-8.575C13.462 12.945 11.613 9 9.75 9c-2.05 0-4.539 4.651-5.84 7.425a1 1 0 0 1-1.81-.85C4.839 9.725 7.27 7 9.75 7c3.137 0 5.091 4.165 7.16 8.575C18.538 19.055 20.387 23 22.25 23c2.05 0 4.539-4.651 5.84-7.425a1 1 0 0 1 1.81.85z"/></svg>