<svg xmlns="http://www.w3.org/2000/svg" width="32" height="32" fill="none" viewBox="0 0 32 32"><path fill="#000" d="m29.775 10.961-13 15.68a1 1 0 0 1-1.538 0L2.225 10.96a.975.975 0 0 1 .164-1.4 22.594 22.594 0 0 1 27.222 0 .973.973 0 0 1 .164 1.4" opacity=".08"/><path fill="#000" d="M6.74 4.328a1 1 0 1 0-1.48 1.345l.569.625a23.5 23.5 0 0 0-4.044 2.465 1.99 1.99 0 0 0-.704 2.14c.076.255.204.493.375.697l13 15.679A1.99 1.99 0 0 0 16 28a2 2 0 0 0 1.539-.721l3.512-4.235 4.209 4.625a1 1 0 1 0 1.48-1.345zM16 26 3.01 10.343A21.4 21.4 0 0 1 7.24 7.849l12.453 13.7zm14.544-14.4-6.178 7.448a1.001 1.001 0 0 1-1.54-1.277l6.163-7.428A21.35 21.35 0 0 0 15.999 6c-1.357 0-2.713.125-4.048.375a1 1 0 1 1-.375-1.965A24 24 0 0 1 16 4a23.33 23.33 0 0 1 14.215 4.763 2 2 0 0 1 .771 1.35 1.96 1.96 0 0 1-.442 1.487"/></svg>