<svg xmlns="http://www.w3.org/2000/svg" width="32" height="32" fill="none" viewBox="0 0 32 32"><path fill="#000" d="m29.775 10.961-13 15.68a1 1 0 0 1-1.538 0L2.225 10.96a.975.975 0 0 1 .164-1.4 22.594 22.594 0 0 1 27.222 0 .973.973 0 0 1 .164 1.4" opacity=".08"/><path fill="#000" d="M30.986 10.114a2 2 0 0 0-.771-1.351A23.33 23.33 0 0 0 16 4 23.33 23.33 0 0 0 1.785 8.763a1.99 1.99 0 0 0-.704 2.14c.076.255.204.493.375.697l13 15.679A1.99 1.99 0 0 0 16 28a2 2 0 0 0 1.539-.721l13-15.679a1.96 1.96 0 0 0 .447-1.486M16 26 3.01 10.343A21.35 21.35 0 0 1 16 6a21.35 21.35 0 0 1 12.989 4.343z"/></svg>