<svg xmlns="http://www.w3.org/2000/svg" width="32" height="32" fill="none" viewBox="0 0 32 32"><path fill="#000" d="m21.46 20.985-4.691 5.655a1 1 0 0 1-1.538 0l-4.691-5.655a8.5 8.5 0 0 1 10.92 0" opacity=".08"/><path fill="#000" d="M30.986 10.114a2 2 0 0 0-.771-1.351A23.33 23.33 0 0 0 16 4 23.33 23.33 0 0 0 1.785 8.763a1.99 1.99 0 0 0-.704 2.14c.076.255.204.493.375.697l13 15.679A1.99 1.99 0 0 0 16 28a2 2 0 0 0 1.539-.721l13-15.679a1.96 1.96 0 0 0 .447-1.486M16 26l-4.013-4.837a7.5 7.5 0 0 1 8.025 0zm5.296-6.385a9.49 9.49 0 0 0-10.592 0L3.01 10.343A21.35 21.35 0 0 1 16 6a21.35 21.35 0 0 1 12.989 4.343z"/></svg>