<svg xmlns="http://www.w3.org/2000/svg" width="32" height="32" fill="none" viewBox="0 0 32 32"><path fill="#000" d="M28.049 13.043 16.769 26.64a1 1 0 0 1-1.538 0L2.225 10.961a.973.973 0 0 1 .164-1.401A22.45 22.45 0 0 1 15.999 5c1.387-.001 2.77.124 4.133.375.198.037.38.134.522.276L28 13.001z" opacity=".08"/><path fill="#000" d="M28.707 12.293a1 1 0 0 1-1.415 1.415L25 11.414l-2.293 2.294a1 1 0 0 1-1.415-1.415L23.586 10l-2.294-2.292a1.001 1.001 0 0 1 1.415-1.415L25 8.586l2.292-2.293a1 1 0 1 1 1.415 1.415L26.414 10zm-3.303 3.937a1 1 0 0 0-1.408.125L16 26 3.01 10.343A21.35 21.35 0 0 1 16 6c.639 0 1.281.028 1.912.084a1 1 0 1 0 .175-1.993A24 24 0 0 0 16 4.001 23.33 23.33 0 0 0 1.785 8.762a1.99 1.99 0 0 0-.704 2.14c.076.255.204.493.375.697l13 15.679A1.99 1.99 0 0 0 16 28a2 2 0 0 0 1.539-.721l8-9.64a1 1 0 0 0-.135-1.409"/></svg>