<svg xmlns="http://www.w3.org/2000/svg" width="32" height="32" fill="none" viewBox="0 0 32 32"><path fill="#000" d="M22.81 19.312a9.97 9.97 0 0 1-13.625 0 6.98 6.98 0 0 1-1.897-7.07l.196-.665C9.06 10.901 11.9 10.425 16 12.5c4.483 2.27 7.459 1.486 8.927.73a6.97 6.97 0 0 1-2.117 6.082" opacity=".08"/><path fill="#000" d="m25.666 11.959-2.72-9.241a1 1 0 0 0-.96-.718H10.014a1 1 0 0 0-.959.717L6.334 11.96a7.93 7.93 0 0 0 2.177 8.084 10.93 10.93 0 0 0 6.49 2.91V28h-4a1 1 0 0 0 0 2h10a1 1 0 0 0 0-2h-4v-5.046a10.93 10.93 0 0 0 6.488-2.911 7.93 7.93 0 0 0 2.177-8.084M10.761 4H21.24l2.511 8.524.031.112c-2.677.96-5.692-.2-7.328-1.028-3.15-1.594-5.65-1.797-7.493-1.492zm11.364 14.581a8.96 8.96 0 0 1-12.25 0 5.94 5.94 0 0 1-1.625-6.057l.056-.19c1.5-.508 3.884-.643 7.242 1.059 1.393.706 3.645 1.606 6.053 1.606a8.6 8.6 0 0 0 2.382-.325 5.9 5.9 0 0 1-1.858 3.907"/></svg>