<svg xmlns="http://www.w3.org/2000/svg" width="32" height="32" fill="none" viewBox="0 0 32 32"><path fill="#000" d="M28 12a8 8 0 0 1-11.867 7l-7.008 8.125a3.006 3.006 0 0 1-4.25-4.25L13 15.867A8 8 0 0 1 23 4.581L18 10l.708 3.292L22 14l5.419-5c.385.953.582 1.972.581 3" opacity=".08"/><path fill="#000" d="M28.345 8.625a1 1 0 0 0-1.605-.36l-5.037 4.649-2.154-.463-.463-2.154 4.649-5.037a1 1 0 0 0-.36-1.605A9 9 0 0 0 11 12a9 9 0 0 0 .75 3.617l-7.526 6.508q-.029.023-.054.049a4 4 0 1 0 5.706 5.605l6.507-7.53A9 9 0 0 0 29 12a8.95 8.95 0 0 0-.655-3.374M20 19a7 7 0 0 1-3.384-.875 1 1 0 0 0-1.24.221L8.39 26.44A2 2 0 0 1 5.56 23.61l8.087-6.986a1 1 0 0 0 .22-1.241 7 7 0 0 1 7.296-10.29l-3.9 4.227a1 1 0 0 0-.243.888l.708 3.29a1 1 0 0 0 .767.768l3.294.708a1 1 0 0 0 .887-.243l4.227-3.9A7.008 7.008 0 0 1 20 19"/></svg>