<svg xmlns="http://www.w3.org/2000/svg" width="32" height="32" fill="none" viewBox="0 0 32 32"><path fill="#000" d="M28.324 8.941a2 2 0 0 0-1.204-1.375C22.935 5.956 16 6 16 6S9.065 5.956 4.875 7.573a2 2 0 0 0-1.204 1.375C3.384 10.068 3 12.26 3 16s.384 5.933.676 7.059a2 2 0 0 0 1.199 1.369C9.065 26.044 16 26 16 26s6.935.044 11.125-1.572a2 2 0 0 0 1.204-1.37c.292-1.124.676-3.32.676-7.058s-.389-5.932-.681-7.059M14 20.001v-8l6 4z" opacity=".08"/><path fill="#000" d="m20.555 15.168-6-4A1 1 0 0 0 13 12v8a1 1 0 0 0 1.555.832l6-4a1 1 0 0 0 0-1.665M15 18.13v-4.256L18.198 16zM29.291 8.69a3 3 0 0 0-1.811-2.05C23.195 4.985 16.375 5 16 5S8.805 4.985 4.52 6.64a3 3 0 0 0-1.811 2.05C2.385 9.938 2 12.218 2 16s.385 6.063.709 7.31a3 3 0 0 0 1.811 2.051C8.625 26.945 15.05 27 15.918 27h.165c.867 0 7.296-.055 11.397-1.639a3 3 0 0 0 1.811-2.051c.324-1.25.709-3.527.709-7.31s-.385-6.062-.709-7.31m-1.936 14.125a1 1 0 0 1-.596.686c-3.957 1.528-10.685 1.5-10.765 1.5s-6.796.023-10.75-1.5a1 1 0 0 1-.596-.686C4.35 21.674 4 19.571 4 16s.35-5.674.645-6.809a1 1 0 0 1 .596-.691C9.198 6.978 15.925 7 16.006 7s6.796-.022 10.75 1.5a1 1 0 0 1 .596.686C27.65 10.326 28 12.43 28 16s-.35 5.674-.645 6.809z"/></svg>