<svg width="32" height="32" viewBox="0 0 32 32" fill="none" xmlns="http://www.w3.org/2000/svg">
<path d="M0 16C0 12.2801 0 10.4202 0.40889 8.89417C1.5185 4.75307 4.75307 1.5185 8.89417 0.40889C10.4202 0 12.2801 0 16 0C19.7199 0 21.5798 0 23.1058 0.40889C27.2469 1.5185 30.4815 4.75307 31.5911 8.89417C32 10.4202 32 12.2801 32 16C32 19.7199 32 21.5798 31.5911 23.1058C30.4815 27.2469 27.2469 30.4815 23.1058 31.5911C21.5798 32 19.7199 32 16 32C12.2801 32 10.4202 32 8.89417 31.5911C4.75307 30.4815 1.5185 27.2469 0.40889 23.1058C0 21.5798 0 19.7199 0 16Z" fill="black" fill-opacity="0.04"/>
<path d="M16 31.5V32C15.8478 32 15.6988 31.9981 15.5527 31.998V31.5C15.6987 31.5 15.8479 31.5 16 31.5ZM16.4473 31.5V31.998C16.3012 31.9981 16.1522 32 16 32V31.5C16.1521 31.5 16.3013 31.5 16.4473 31.5ZM14.6631 31.499L14.6621 31.9961C14.3498 31.9955 14.0528 31.9951 13.7695 31.9932L13.7734 31.4951C14.0554 31.4971 14.3516 31.4984 14.6631 31.499ZM18.2285 31.7451L18.2295 31.9932C17.9463 31.9951 17.6492 31.9955 17.3369 31.9961V31.499C17.6484 31.4984 17.9446 31.4971 18.2266 31.4951L18.2285 31.7451ZM12.8857 31.4854L12.8809 31.7344L12.8818 31.7354L12.8809 31.7803L12.877 31.9834C12.5619 31.9782 12.2659 31.9706 11.9863 31.9609L12.0029 31.4639C12.279 31.4734 12.5727 31.4801 12.8857 31.4854ZM20.0127 31.9609C19.7332 31.9706 19.4372 31.9782 19.1221 31.9834L19.1191 31.7803L19.1182 31.7354L19.1143 31.4854C19.4273 31.4801 19.721 31.4734 19.9971 31.4639L20.0127 31.9609ZM10.2676 31.3418C10.5338 31.3743 10.8193 31.4002 11.1289 31.4209L11.0957 31.916C10.7785 31.8948 10.4841 31.8697 10.207 31.8359L10.2676 31.3418ZM21.792 31.8359C21.5149 31.8697 21.2205 31.8948 20.9033 31.916L20.8711 31.4209C21.1807 31.4002 21.4662 31.3743 21.7324 31.3418L21.792 31.8359ZM9.02344 31.1084C9.15558 31.1438 9.29101 31.1757 9.43066 31.2051L9.32812 31.6934C9.17998 31.6622 9.03539 31.6289 8.89417 31.5911C8.72489 31.5458 8.55777 31.4948 8.3916 31.4424L8.4668 31.2061L8.54199 30.9678C8.70099 31.0179 8.86144 31.065 9.02344 31.1084ZM23.5332 31.2061L23.6074 31.4424C23.4415 31.4947 23.2748 31.5458 23.1058 31.5911C22.9643 31.629 22.8194 31.6622 22.6709 31.6934L22.5693 31.2051C22.709 31.1757 22.8444 31.1438 22.9766 31.1084C23.1386 31.065 23.299 31.0179 23.458 30.9678L23.5332 31.2061ZM6.68945 30.2012C6.98506 30.3551 7.28839 30.4965 7.59863 30.625L7.40723 31.0859C7.08344 30.9519 6.7675 30.8032 6.45898 30.6426L6.68945 30.2012ZM25.54 30.6426C25.2315 30.8032 24.9156 30.9519 24.5918 31.0859L24.4014 30.625C24.7116 30.4965 25.0149 30.3551 25.3105 30.2012L25.54 30.6426ZM4.99902 29.124C5.26395 29.3274 5.53867 29.5191 5.82129 29.6992L5.55176 30.1191C5.25699 29.9313 4.97065 29.7316 4.69434 29.5195L4.99902 29.124ZM27.3047 29.5195C27.0283 29.7316 26.7421 29.9313 26.4473 30.1191L26.1787 29.6992C26.4613 29.5191 26.736 29.3274 27.001 29.124L27.3047 29.5195ZM3.52148 27.7695C3.7474 28.016 3.98396 28.2526 4.23047 28.4785L3.89355 28.8457C3.63615 28.6098 3.3892 28.3629 3.15332 28.1055L3.52148 27.7695ZM28.8457 28.1055C28.6098 28.3629 28.3629 28.6098 28.1055 28.8457L27.7695 28.4785C28.016 28.2526 28.2526 28.016 28.4785 27.7695L28.8457 28.1055ZM2.30078 26.1787C2.48087 26.4613 2.67264 26.736 2.87598 27.001L2.47949 27.3047C2.26742 27.0284 2.06773 26.7421 1.87988 26.4473L2.08984 26.3135L2.30078 26.1787ZM30.1191 26.4473C29.9313 26.7421 29.7316 27.0283 29.5195 27.3047L29.124 27.001C29.3274 26.736 29.5191 26.4613 29.6992 26.1787L30.1191 26.4473ZM1.375 24.4014C1.50346 24.7116 1.64494 25.0149 1.79883 25.3105L1.35645 25.54C1.19586 25.2315 1.04713 24.9156 0.913086 24.5918L1.14453 24.4971L1.375 24.4014ZM30.625 24.4014L31.0859 24.5918C30.9519 24.9156 30.8032 25.2315 30.6426 25.54L30.2012 25.3105C30.3551 25.0149 30.4965 24.7116 30.625 24.4014ZM0.891602 22.9766C0.935009 23.1386 0.98212 23.299 1.03223 23.458L0.793945 23.5332L0.556641 23.6074C0.504401 23.4416 0.454143 23.2747 0.40889 23.1058C0.370959 22.9643 0.336883 22.8194 0.305664 22.6709L0.794922 22.5693C0.824293 22.709 0.856194 22.8444 0.891602 22.9766ZM31.6934 22.6709C31.6622 22.8194 31.629 22.9643 31.5911 23.1058C31.5458 23.2748 31.4947 23.4415 31.4424 23.6074L31.2061 23.5332L30.9678 23.458C31.0179 23.299 31.065 23.1386 31.1084 22.9766C31.1438 22.8444 31.1757 22.709 31.2051 22.5693L31.6934 22.6709ZM0.579102 20.8711C0.599782 21.1807 0.625746 21.4662 0.658203 21.7324L0.163086 21.792C0.129313 21.5149 0.104176 21.2205 0.0830078 20.9033L0.579102 20.8711ZM31.916 20.9033C31.8948 21.2205 31.8697 21.5149 31.8359 21.792L31.3418 21.7324C31.3743 21.4662 31.4002 21.1807 31.4209 20.8711L31.916 20.9033ZM0.536133 19.9971L0.0380859 20.0127C0.0283946 19.7332 0.0208659 19.4371 0.015625 19.1221L0.514648 19.1143C0.519858 19.4273 0.526552 19.721 0.536133 19.9971ZM31.9834 19.1221C31.9782 19.4372 31.9706 19.7332 31.9609 20.0127L31.4639 19.9971C31.4734 19.721 31.4801 19.4273 31.4854 19.1143L31.9834 19.1221ZM0.504883 18.2266L0.254883 18.2285L0.00585938 18.2295C0.00391467 17.9463 0.00356611 17.6492 0.00292969 17.3369H0.500977C0.501613 17.6484 0.502946 17.9446 0.504883 18.2266ZM31.9961 17.3369C31.9955 17.6492 31.9951 17.9463 31.9932 18.2295L31.7451 18.2285L31.4951 18.2266C31.4971 17.9446 31.4984 17.6484 31.499 17.3369H31.9961ZM0 16C0 15.8478 0.000948575 15.6988 0.000976562 15.5527H0.5V16.4473H0.000976562C0.000948575 16.3012 0 16.1522 0 16ZM31.999 16.4473H31.5V15.5527H31.999C31.9991 15.6988 32 15.8478 32 16C32 16.1522 31.9991 16.3012 31.999 16.4473ZM0.504883 13.7734C0.502946 14.0554 0.501613 14.3516 0.500977 14.6631L0.00292969 14.6621C0.00356717 14.3498 0.00391255 14.0528 0.00585938 13.7695L0.504883 13.7734ZM31.9961 14.6621L31.499 14.6631C31.4984 14.3516 31.4971 14.0554 31.4951 13.7734L31.9932 13.7695C31.9951 14.0528 31.9955 14.3498 31.9961 14.6621ZM0.536133 12.0029C0.526552 12.279 0.519858 12.5727 0.514648 12.8857L0.264648 12.8809L0.015625 12.877C0.0208705 12.5619 0.0283873 12.2659 0.0380859 11.9863L0.536133 12.0029ZM31.9609 11.9863C31.9706 12.2659 31.9782 12.5619 31.9834 12.877L31.7354 12.8818L31.7344 12.8809L31.4854 12.8857C31.4801 12.5727 31.4734 12.279 31.4639 12.0029L31.9609 11.9863ZM0.658203 10.2676C0.625746 10.5338 0.599782 10.8193 0.579102 11.1289L0.0830078 11.0957C0.10419 10.7786 0.129293 10.4841 0.163086 10.207L0.658203 10.2676ZM31.8359 10.207C31.8697 10.4841 31.8948 10.7785 31.916 11.0957L31.4209 11.1289C31.4002 10.8193 31.3743 10.5338 31.3418 10.2676L31.8359 10.207ZM1.03223 8.54199C0.98212 8.70099 0.935009 8.86144 0.891602 9.02344C0.856194 9.15558 0.824293 9.29101 0.794922 9.43066L0.305664 9.32812C0.315811 9.27987 0.326082 9.232 0.336914 9.18457L0.40889 8.89417C0.454224 8.72498 0.504296 8.55768 0.556641 8.3916L1.03223 8.54199ZM31.4424 8.3916C31.4948 8.55777 31.5458 8.72489 31.5911 8.89417C31.6289 9.03539 31.6622 9.17998 31.6934 9.32812L31.2051 9.43066C31.1757 9.29101 31.1438 9.15558 31.1084 9.02344C31.065 8.86144 31.0179 8.70099 30.9678 8.54199L31.4424 8.3916ZM1.79883 6.68945C1.64494 6.98506 1.50346 7.28839 1.375 7.59863L0.913086 7.40723C1.04715 7.08346 1.19585 6.76748 1.35645 6.45898L1.79883 6.68945ZM30.6426 6.45898C30.8032 6.7675 30.9519 7.08344 31.0859 7.40723L30.625 7.59863C30.4965 7.28839 30.3551 6.98506 30.2012 6.68945L30.6426 6.45898ZM2.47949 4.69434L2.87598 4.99902C2.67264 5.26395 2.48087 5.53867 2.30078 5.82129L1.87988 5.55176C2.06774 5.257 2.26741 4.97064 2.47949 4.69434ZM29.5195 4.69434C29.7316 4.97065 29.9313 5.25699 30.1191 5.55176L29.6992 5.82129C29.5191 5.53867 29.3274 5.26395 29.124 4.99902L29.5195 4.69434ZM4.23047 3.52148C3.98396 3.7474 3.7474 3.98396 3.52148 4.23047L3.15332 3.89355C3.38921 3.63616 3.63616 3.38921 3.89355 3.15332L4.23047 3.52148ZM28.1055 3.15332C28.3629 3.3892 28.6098 3.63615 28.8457 3.89355L28.4785 4.23047C28.2526 3.98396 28.016 3.7474 27.7695 3.52148L28.1055 3.15332ZM5.82129 2.30078C5.53867 2.48087 5.26395 2.67264 4.99902 2.87598L4.69434 2.47949C4.97064 2.26741 5.257 2.06774 5.55176 1.87988L5.82129 2.30078ZM26.4473 1.87988C26.7421 2.06773 27.0284 2.26742 27.3047 2.47949L27.001 2.87598C26.736 2.67264 26.4613 2.48087 26.1787 2.30078L26.4473 1.87988ZM7.59863 1.375C7.28839 1.50346 6.98506 1.64494 6.68945 1.79883L6.45898 1.35645C6.76748 1.19585 7.08346 1.04715 7.40723 0.913086L7.59863 1.375ZM24.5918 0.913086C24.9156 1.04713 25.2315 1.19586 25.54 1.35645L25.3105 1.79883C25.0149 1.64494 24.7116 1.50346 24.4014 1.375L24.5918 0.913086ZM9.43066 0.794922C9.29101 0.824293 9.15558 0.856194 9.02344 0.891602C8.86144 0.935009 8.70099 0.98212 8.54199 1.03223L8.3916 0.556641C8.43066 0.544331 8.46956 0.531457 8.50879 0.519531L8.89417 0.40889C9.03545 0.371039 9.17991 0.336831 9.32812 0.305664L9.43066 0.794922ZM22.6709 0.305664C22.8194 0.336883 22.9643 0.370959 23.1058 0.40889C23.2747 0.454143 23.4416 0.504401 23.6074 0.556641L23.458 1.03223C23.299 0.98212 23.1386 0.935009 22.9766 0.891602C22.8444 0.856194 22.709 0.824293 22.5693 0.794922L22.6709 0.305664ZM11.1289 0.579102C10.8193 0.599782 10.5338 0.625746 10.2676 0.658203L10.2227 0.286133L10.207 0.163086C10.4841 0.129293 10.7786 0.10419 11.0957 0.0830078L11.1289 0.579102ZM20.9033 0.0830078C21.2205 0.104176 21.5149 0.129313 21.792 0.163086L21.7783 0.286133L21.7324 0.658203C21.4662 0.625746 21.1807 0.599782 20.8711 0.579102L20.9033 0.0830078ZM12.8809 0.254883L12.8857 0.514648C12.5727 0.519858 12.279 0.526552 12.0029 0.536133L11.9863 0.0380859C12.2659 0.0283873 12.5619 0.0208705 12.877 0.015625L12.8809 0.254883ZM19.1221 0.015625C19.4371 0.0208659 19.7332 0.0283946 20.0127 0.0380859L19.9971 0.536133C19.721 0.526552 19.4273 0.519858 19.1143 0.514648L19.1191 0.254883L19.1221 0.015625ZM14.6631 0.500977C14.3516 0.501613 14.0554 0.502946 13.7734 0.504883L13.7695 0.00585938C14.0528 0.00391255 14.3498 0.00356717 14.6621 0.00292969L14.6631 0.500977ZM18.2295 0.00585938L18.2266 0.504883C17.9446 0.502946 17.6484 0.501613 17.3369 0.500977V0.00292969C17.6492 0.00356611 17.9463 0.00391467 18.2295 0.00585938ZM16.4473 0.000976562V0.5H15.5527V0.000976562C15.6988 0.000948575 15.8478 0 16 0C16.1522 0 16.3012 0.000948575 16.4473 0.000976562Z" fill="black" fill-opacity="0.8"/>
</svg>
