<svg xmlns="http://www.w3.org/2000/svg" width="32" height="32" fill="none" viewBox="0 0 32 32"><path fill="#000" d="m23.166 14.276 3.643-3.427.021-.021a4 4 0 0 0-5.657-5.658c0 .008-.014.014-.022.021l-3.427 3.643L7.349 5.059A1 1 0 0 0 6.3 5.29l-3 3a1 1 0 0 0 .153 1.539l7.986 5.324L9.586 17H7a1 1 0 0 0-.706.293l-3 3a1 1 0 0 0 .331 1.634l4.603 1.842 1.837 4.594.008.02a1 1 0 0 0 1.647.308l2.984-2.985A1 1 0 0 0 15 25v-2.586l1.845-1.845 5.324 7.986a1 1 0 0 0 1.538.152l3-3a1 1 0 0 0 .233-1.048zm-.009 12.154-5.323-7.985A1 1 0 0 0 17.1 18h-.099a1 1 0 0 0-.707.294l-3 3A1 1 0 0 0 13 22v2.586l-1.634 1.634-1.437-3.595a1 1 0 0 0-.554-.554l-3.592-1.437L7.415 19H10a1 1 0 0 0 .707-.293l3-3a1 1 0 0 0-.152-1.54L5.57 8.844l1.688-1.687L17.66 10.94a1 1 0 0 0 1.07-.25l3.867-4.114a2 2 0 0 1 2.828 2.829l-4.109 3.866a1 1 0 0 0-.25 1.07l3.783 10.403z"/></svg>