<svg xmlns="http://www.w3.org/2000/svg" width="32" height="32" fill="none" viewBox="0 0 32 32"><path fill="#000" d="M22 27a1 1 0 0 1-1 1H3a1 1 0 0 1 0-2h18a1 1 0 0 1 1 1m8.983-15.356a1 1 0 0 1-.47.674l-18.427 11a4.972 4.972 0 0 1-5.943-.669l-.014-.015-4.504-4.409a2 2 0 0 1 .561-3.276l.375-.184a1 1 0 0 1 .76-.05l3.533 1.193 2.521-1.525-2.729-2.65a2 2 0 0 1 .567-3.308l.04-.016.893-.339a1 1 0 0 1 .699 0l6.743 2.477L22.034 6.7a4.98 4.98 0 0 1 6.41 1.14l.015.019 2.33 2.986a1 1 0 0 1 .194.799m-2.468-.463L26.89 9.097a2.985 2.985 0 0 0-3.835-.677l-6.85 4.09a1 1 0 0 1-.859.08L8.5 10.073l-.5.19.026.026 3.67 3.561a1 1 0 0 1-.178 1.572L7.49 17.86a1 1 0 0 1-.837.091L3.07 16.741l-.024.013-.046.021q.009.007.016.015l4.5 4.408a2.98 2.98 0 0 0 3.553.397z"/></svg>