<svg xmlns="http://www.w3.org/2000/svg" width="32" height="32" fill="none" viewBox="0 0 32 32"><path fill="#000" d="M25 10v18a1 1 0 1 1-2 0V11H8.414l4.293 4.292a1 1 0 1 1-1.415 1.415l-6-6-.007-.008-.059-.065-.029-.04-.028-.04-.03-.045-.02-.038q-.014-.023-.024-.047l-.019-.042-.017-.046-.017-.045-.01-.049c0-.016-.01-.03-.013-.046-.004-.015 0-.039-.008-.057-.007-.02 0-.027-.006-.04a1 1 0 0 1 .006-.238c.006-.014 0-.039.008-.057.007-.02.007-.03.012-.047l.011-.048.017-.045q.008-.024.017-.047.01-.021.019-.04a1 1 0 0 1 .045-.086l.029-.046.028-.04.03-.039.058-.065.007-.009 6-6a1 1 0 0 1 1.415 1.415L8.414 9H24a1 1 0 0 1 1 1"/></svg>