<svg xmlns="http://www.w3.org/2000/svg" width="32" height="32" fill="none" viewBox="0 0 32 32"><path fill="#000" d="M24.515 16c3.081-4.326 4.653-8.797 2.468-10.982S20.326 4.404 16 7.485C11.674 4.404 7.203 2.833 5.018 5.017S4.404 11.675 7.485 16c-3.081 4.326-4.652 8.798-2.467 10.983C5.72 27.686 6.66 28 7.756 28c2.31 0 5.31-1.396 8.25-3.485C18.934 26.604 21.934 28 24.25 28c1.095 0 2.036-.315 2.739-1.017 2.179-2.186.607-6.657-2.474-10.983m1.054-9.569c.955.955.31 4.05-2.315 7.91a38 38 0 0 0-2.649-2.946A38 38 0 0 0 17.66 8.75c3.86-2.625 6.955-3.275 7.91-2.319M22.036 16a36 36 0 0 1-2.845 3.191 36 36 0 0 1-3.19 2.845 36 36 0 0 1-3.192-2.845A36 36 0 0 1 9.964 16 37.3 37.3 0 0 1 16 9.964a36 36 0 0 1 3.191 2.845A36 36 0 0 1 22.036 16M6.431 6.431c.275-.276.73-.418 1.328-.418 1.477 0 3.836.862 6.581 2.737a38 38 0 0 0-2.945 2.645 38 38 0 0 0-2.645 2.946c-2.625-3.86-3.274-6.955-2.319-7.91m0 19.138c-.955-.955-.306-4.05 2.32-7.91a38 38 0 0 0 2.648 2.946 38 38 0 0 0 2.942 2.645c-3.86 2.625-6.955 3.275-7.91 2.319m19.138 0c-.955.956-4.05.31-7.91-2.315a38 38 0 0 0 2.946-2.649 38 38 0 0 0 2.645-2.946c2.625 3.86 3.274 6.955 2.319 7.91M17.5 16a1.5 1.5 0 1 1-3 0 1.5 1.5 0 0 1 3 0"/></svg>