<svg xmlns="http://www.w3.org/2000/svg" width="33" height="32" fill="none" viewBox="0 0 33 32"><path fill="#000" d="M26.032 14c-.723 0-1.44.13-2.116.386L20.774 9h3.258a1 1 0 0 1 1 1 1 1 0 0 0 2 0 3 3 0 0 0-3-3h-5a1 1 0 0 0-.863 1.5l1.456 2.5H12.44l-2.044-3.5a1 1 0 0 0-.864-.5h-3.5a1 1 0 0 0 0 2H8.96l1.713 2.939-1.963 2.694a6.016 6.016 0 1 0 1.615 1.18l1.448-1.988L15.67 20.5a1.001 1.001 0 0 0 1.879-.624 1 1 0 0 0-.152-.376l-3.79-6.5h7.185l1.399 2.396A6 6 0 1 0 26.032 14m-16 6a4 4 0 1 1-2.526-3.718l-2.281 3.125a1 1 0 1 0 1.615 1.178l2.281-3.125c.59.715.912 1.613.911 2.54m16 4a4 4 0 0 1-2.813-6.84l1.95 3.34a1.001 1.001 0 0 0 1.879-.624 1 1 0 0 0-.152-.376l-1.951-3.349A4 4 0 1 1 26.032 24"/></svg>