<svg xmlns="http://www.w3.org/2000/svg" width="32" height="32" fill="none" viewBox="0 0 32 32"><path fill="#000" d="M6.74 4.328a1 1 0 1 0-1.48 1.345L6.466 7H6a3 3 0 0 0-3 3v14a3 3 0 0 0 3 3h18.649l.611.672a1 1 0 1 0 1.48-1.344zm6.458 10.076 4.625 5.086a3.5 3.5 0 0 1-4.625-5.086M6 25a1 1 0 0 1-1-1V10a1 1 0 0 1 1-1h2.285l3.551 3.908A5.5 5.5 0 0 0 16 22a5.53 5.53 0 0 0 3.18-1.015L22.83 25zm23-15v13.25a1 1 0 0 1-2 0V10a1 1 0 0 0-1-1h-4a1 1 0 0 1-.831-.445L19.464 6H12.53a1 1 0 0 1-1.614-1.177l.25-.375A1 1 0 0 1 12 4h8a1 1 0 0 1 .832.445L22.536 7H26a3 3 0 0 1 3 3"/></svg>