<svg xmlns="http://www.w3.org/2000/svg" width="32" height="32" fill="none" viewBox="0 0 32 32"><path fill="#000" d="M31 16c.006 2.381-.766 4.7-2.2 6.601a1 1 0 0 1-1.6-1.202 8.9 8.9 0 0 0 1.8-5.4 9 9 0 0 0-18 0 1 1 0 0 1-2 0 11 11 0 0 1 .411-2.984C9.275 13 9.137 13 9 13a6 6 0 0 0 0 12h3a1 1 0 0 1 0 2H9a8 8 0 0 1-7.98-8.582 8 8 0 0 1 9.141-7.333A11 11 0 0 1 31 16m-8.708 5.292L20 23.586V16a1 1 0 0 0-2 0v7.586l-2.293-2.294a1 1 0 0 0-1.415 1.415l4 4a1 1 0 0 0 1.415 0l4-4a1 1 0 0 0-1.415-1.415"/></svg>