<svg xmlns="http://www.w3.org/2000/svg" width="32" height="32" fill="none" viewBox="0 0 32 32"><path fill="#000" d="M4.551 4.778c.41-.37 1.052-.326 1.432.096l20.035 22.252c.38.422.356 1.064-.055 1.433-.41.37-1.051.327-1.431-.095l-1.426-1.584c-.672.439-1.383.82-2.131 1.13A13 13 0 0 1 5.92 7.793L4.496 6.212c-.38-.422-.355-1.064.055-1.434M7.277 9.3a11 11 0 0 0-1.44 10.909A11 11 0 0 0 16 26.999a11 11 0 0 0 5.747-1.627l-5.046-5.606-6.253 3.128a1.003 1.003 0 0 1-1.298-.368 1 1 0 0 1-.045-.974l3.286-6.572zM15.999 3A13.017 13.017 0 0 1 29 15.999a13 13 0 0 1-2.212 7.253c-.348.518-1.085.535-1.503.071"/></svg>