<svg xmlns="http://www.w3.org/2000/svg" width="32" height="32" fill="none" viewBox="0 0 32 32"><path fill="#000" d="M13.936 6.579a1.974 1.974 0 0 0-3.25.721L4.125 25.348A1.98 1.98 0 0 0 5.97 28a2 2 0 0 0 .682-.125L24.7 21.313a1.976 1.976 0 0 0 .722-3.25zM12.895 23.48 8.52 19.105l1.645-4.526 7.256 7.256zm-6.875 2.5 1.75-4.801 3.056 3.056zm13.48-4.9-8.58-8.58 1.625-4.484 11.429 11.429zM20 9c.019-.676.182-1.34.48-1.947C21.142 5.729 22.392 5 24 5c.837 0 1.375-.286 1.706-.901.175-.344.275-.721.294-1.106A1 1 0 0 1 28 3c0 1.608-1.065 4-4 4-.837 0-1.375.286-1.706.901A2.75 2.75 0 0 0 22 9.008 1 1 0 0 1 20 9m-3-4V2a1 1 0 1 1 2 0v3a1 1 0 0 1-2 0m12.708 10.293a1 1 0 0 1-1.415 1.413l-2-2a1 1 0 1 1 1.415-1.415zm.608-5.344-3 1a1 1 0 1 1-.632-1.898l3-1a1 1 0 0 1 .632 1.898"/></svg>