<svg xmlns="http://www.w3.org/2000/svg" width="32" height="32" fill="none" viewBox="0 0 32 32"><path fill="#000" d="m26.838 26.213-.014-.032-5.685-12.107L23.7 10.05l.014-.022a2 2 0 0 0 0-2.058q-.018-.03-.038-.059L21 4.089V1a1 1 0 1 0-2 0v3.053l-.657.822a3 3 0 0 1-4.685 0L13 4.053V1a1 1 0 1 0-2 0v3.088L8.323 7.912q-.02.03-.038.06a2 2 0 0 0 .014 2.08l2.562 4.022L5.176 26.18l-.013.031A2 2 0 0 0 7 29h18a2 2 0 0 0 1.839-2.788zM10 9l2.054-2.929.041.053a5 5 0 0 0 7.81 0l.041-.053L22 9l-2.547 4h-6.904zM7 27l5.634-12h6.73L25 27z"/></svg>