<svg xmlns="http://www.w3.org/2000/svg" width="32" height="32" fill="none" viewBox="0 0 32 32"><path fill="#000" d="M21.829 10.171A10 10 0 1 0 10.17 21.83 10 10 0 1 0 21.83 10.17M28 20c0 .19-.009.375-.023.564l-6.25-6.25A10 10 0 0 0 22 12.25 8.014 8.014 0 0 1 28 20m-1.684 4.901-6.577-6.576a10 10 0 0 0 1.241-1.93l6.482 6.48a8 8 0 0 1-1.146 2.026m-3.441 2.561-6.483-6.482a10 10 0 0 0 1.93-1.241l6.577 6.577a8 8 0 0 1-2.024 1.146M5.684 7.1l6.577 6.576a10 10 0 0 0-1.241 1.93l-6.482-6.48a8 8 0 0 1 1.146-2.026m3.441-2.561 6.483 6.482c-.689.339-1.337.755-1.93 1.241l-6.58-6.577a8 8 0 0 1 2.027-1.146M20 12a8.01 8.01 0 0 1-8 8 8.01 8.01 0 0 1 8-8m-.25-2a10 10 0 0 0-2.061.266l-6.25-6.25C11.625 4.01 11.81 4 12 4a8.014 8.014 0 0 1 7.75 6.006zM4 12c0-.19.009-.375.023-.564l6.25 6.25c-.16.677-.25 1.369-.267 2.064A8.01 8.01 0 0 1 4 12m8.25 10a10 10 0 0 0 2.061-.266l6.25 6.25a8 8 0 0 1-.564.022A8.014 8.014 0 0 1 12.25 22"/></svg>