<svg xmlns="http://www.w3.org/2000/svg" width="32" height="32" fill="none" viewBox="0 0 32 32"><path fill="#000" d="M29.125 16.875a7.5 7.5 0 0 0-11.202-4.431l2.048-8.18a1 1 0 0 0-.431-1.085 7.5 7.5 0 1 0-7.579 12.935L3.852 18.43a1 1 0 0 0-.725.915 7.5 7.5 0 0 0 5.553 7.583c.637.17 1.293.257 1.953.258a7.507 7.507 0 0 0 7.485-7.75l6.06 5.865a1 1 0 0 0 1.156.169 7.5 7.5 0 0 0 3.791-8.595M14 16a2 2 0 1 1 4.001 0A2 2 0 0 1 14 16m-4-6.5a5.5 5.5 0 0 1 7.844-4.978L15.97 12a4 4 0 0 0-3.49 2.1A5.48 5.48 0 0 1 10 9.5m3.375 14.946a5.5 5.5 0 0 1-8.233-4.304l7.414-2.117A4 4 0 0 0 16 20h.114a5.48 5.48 0 0 1-2.739 4.446m13.271-2.875a5.5 5.5 0 0 1-1.625 1.768l-5.54-5.361a3.99 3.99 0 0 0-.074-4.072 5.5 5.5 0 0 1 7.24 7.665"/></svg>