<svg xmlns="http://www.w3.org/2000/svg" width="32" height="32" fill="none" viewBox="0 0 32 32"><path fill="#000" d="M22.986 19.168a7.2 7.2 0 0 1-5.82 5.818 1 1 0 1 1-.331-1.973c2.071-.348 3.829-2.105 4.18-4.18a1 1 0 0 1 1.973.335zM27 18a11 11 0 1 1-22 0c0-3.49 1.375-7.059 4.082-10.606a1 1 0 0 1 1.492-.111l3.015 2.926 2.75-7.551a1 1 0 0 1 1.579-.427C20.65 4.5 27 10.57 27 18m-2 0c0-5.761-4.474-10.74-7.276-13.291l-2.784 7.634a1 1 0 0 1-1.636.374L10.008 9.52C8.01 12.401 7 15.25 7 18a9 9 0 1 0 18 0"/></svg>