<svg xmlns="http://www.w3.org/2000/svg" width="32" height="32" fill="none" viewBox="0 0 32 32"><path fill="#000" d="M22.949 26.684a1 1 0 1 1-1.898.632l-1-3a.999.999 0 1 1 1.898-.632zM16 23a1 1 0 0 0-1 1v4a1 1 0 0 0 2 0v-4a1 1 0 0 0-1-1m-4.684.051a1 1 0 0 0-1.265.633l-1 3a1 1 0 0 0 1.898.632l1-3a1 1 0 0 0-.633-1.265M31 14.001c0 2.027-1.671 3.86-4.706 5.16-2.767 1.187-6.419 1.84-10.294 1.84s-7.527-.653-10.294-1.84C2.671 17.861 1 16.028 1 14.001c0-1.047.459-2.6 2.646-4.063 1.422-.952 3.368-1.72 5.648-2.232a7.955 7.955 0 0 1 12.331-1.4q.648.642 1.139 1.413C27.929 8.886 31 11.218 31 14m-21-1.897v.375a.99.99 0 0 0 .766.97c1.719.379 3.474.564 5.234.551 1.759.014 3.513-.169 5.231-.546a.99.99 0 0 0 .769-.97V12a6 6 0 0 0-6.08-6C12.656 6.043 10 8.781 10 12.104M29 14c0-1.462-2.079-2.986-5.238-3.949.159.638.238 1.292.238 1.95v.49a2.98 2.98 0 0 1-2.32 2.912c-1.865.41-3.77.611-5.68.597a25.5 25.5 0 0 1-5.68-.597A2.98 2.98 0 0 1 8 12.49v-.382c0-.697.09-1.391.266-2.065C5.09 11 3 12.53 3 14c0 2.365 5.339 5 13 5s13-2.635 13-5"/></svg>