<svg xmlns="http://www.w3.org/2000/svg" width="32" height="32" fill="none" viewBox="0 0 32 32"><path fill="#000" d="M28.875 20.524 22.5 19.087 8.708 5.293a1 1 0 0 0-1.445.032C4.513 8.33 3 12.125 3 16v9a2 2 0 0 0 2 2h4a2 2 0 0 0 2-2v-6.117q.466.271.918.58a14.06 14.06 0 0 1 5.068 6.298A1.99 1.99 0 0 0 18.84 27H30a2 2 0 0 0 2-2v-.591a3.965 3.965 0 0 0-3.125-3.885M9 25H5v-7.964c1.37.097 2.718.397 4 .89zm21 0H18.835a16.05 16.05 0 0 0-5.784-7.183 15.86 15.86 0 0 0-8.015-2.782 13.83 13.83 0 0 1 3.021-7.562l13.236 13.235a1 1 0 0 0 .487.267l6.655 1.5A1.976 1.976 0 0 1 30 24.414z"/></svg>