<svg xmlns="http://www.w3.org/2000/svg" width="32" height="32" fill="none" viewBox="0 0 32 32"><path fill="#000" d="M21.829 10.171A10 10 0 1 0 10.17 21.83 10 10 0 1 0 21.83 10.17M12.586 17 15 19.414A7.9 7.9 0 0 1 12 20c0-1.029.198-2.047.586-3m4.219 1.391-3.196-3.196a8 8 0 0 1 1.586-1.586l3.196 3.196a8 8 0 0 1-1.586 1.586M19.414 15 17 12.586A7.9 7.9 0 0 1 20 12a7.9 7.9 0 0 1-.586 3M4 12a8 8 0 0 1 15.75-2 10.01 10.01 0 0 0-9.744 9.75A8.01 8.01 0 0 1 4 12m16 16a8.01 8.01 0 0 1-7.75-6A10.01 10.01 0 0 0 22 12.25 8 8 0 0 1 20 28"/></svg>