<svg xmlns="http://www.w3.org/2000/svg" width="32" height="32" fill="none" viewBox="0 0 32 32"><path fill="#000" d="M29.83 4.17A3.999 3.999 0 0 0 23 6.999a4 4 0 0 0 1.172 2.828q.056.055.113.107l-3.329 6.182a4.02 4.02 0 0 0-2.987.438l-2.523-2.523a4 4 0 1 0-7.142-3.563 4 4 0 0 0 .979 4.466l-3.33 6.183a4 4 0 0 0-4.65 5.415 4 4 0 1 0 6.525-4.36l-.113-.106 3.329-6.182q.471.114.956.116a4 4 0 0 0 2.031-.551l2.523 2.522a4 4 0 1 0 6.275-.797l-.111-.107 3.328-6.182Q26.517 11 27 11a4 4 0 0 0 2.829-6.828zM6.413 26.416a2 2 0 1 1-2.83-2.83 2 2 0 0 1 2.83 2.83m4.172-13a2 2 0 1 1 2.828-2.828 2 2 0 0 1-2.828 2.828m10.83 8a2 2 0 1 1-2.829-2.829 2 2 0 0 1 2.829 2.83m7-13a2.001 2.001 0 1 1 .001-.002z"/></svg>