<svg xmlns="http://www.w3.org/2000/svg" width="32" height="32" fill="none" viewBox="0 0 32 32"><path fill="#000" d="M28 16a1 1 0 0 1-1 1H13a1 1 0 0 1 0-2h14a1 1 0 0 1 1 1M13 9h14a1 1 0 0 0 0-2H13a1 1 0 1 0 0 2m14 14H13a1 1 0 1 0 0 2h14a1 1 0 0 0 0-2M5.448 6.895 6 6.617V13a1 1 0 1 0 2 0V5a1 1 0 0 0-1.447-.895l-2 1a1 1 0 0 0 .895 1.79M9.97 19.59a2.97 2.97 0 0 0-1.2-1.994 3.11 3.11 0 0 0-4.263.588c-.19.244-.341.516-.447.807a1 1 0 1 0 1.875.684 1 1 0 0 1 .148-.266 1.095 1.095 0 0 1 1.772.092q.106.173.135.374a.96.96 0 0 1-.206.736L4.2 25.401A1 1 0 0 0 5 27h4a1 1 0 0 0 0-2H7l2.385-3.191a2.93 2.93 0 0 0 .586-2.219"/></svg>