<svg xmlns="http://www.w3.org/2000/svg" width="32" height="32" fill="none" viewBox="0 0 32 32"><path fill="#000" d="M19.034 4.741a1 1 0 0 1 1.225-.707 10.78 10.78 0 0 1 7.707 7.707A.998.998 0 0 1 27 13a1 1 0 0 1-.966-.742 8.8 8.8 0 0 0-6.291-6.292 1 1 0 0 1-.71-1.225m-.291 5.225c1.723.46 2.83 1.568 3.29 3.292a1 1 0 1 0 1.933-.517c-.64-2.395-2.312-4.067-4.707-4.707a1 1 0 0 0-.517 1.932m10.242 11.919A7.03 7.03 0 0 1 22 28c-9.925 0-18-8.075-18-18a7.03 7.03 0 0 1 6.115-6.985 2 2 0 0 1 2.078 1.19l2.64 5.894v.015a2 2 0 0 1-.16 1.886 1 1 0 0 1-.07.096L12 15.181c.936 1.903 2.926 3.875 4.854 4.814l3.042-2.589q.045-.037.094-.07a2 2 0 0 1 1.896-.175l.017.008 5.888 2.639a2 2 0 0 1 1.194 2.077M27 21.635h-.014l-5.875-2.631-3.044 2.589q-.044.036-.092.07a2 2 0 0 1-1.969.142c-2.341-1.131-4.675-3.447-5.807-5.764a2 2 0 0 1 .125-1.962 1 1 0 0 1 .071-.097L13 10.895l-2.625-5.875v-.015A5.025 5.025 0 0 0 6 10a16.02 16.02 0 0 0 16 16 5.026 5.026 0 0 0 5-4.366z"/></svg>