<svg xmlns="http://www.w3.org/2000/svg" width="32" height="32" fill="none" viewBox="0 0 32 32"><path fill="#000" d="M28.949 11.266C21.93 4.25 10.07 4.25 3.05 11.266c-2.5 2.5-2.74 6.187-.586 8.964a2 2 0 0 0 2.298.635l6.124-2.171.037-.014a2 2 0 0 0 1.219-1.466l.737-3.69a9.57 9.57 0 0 1 6.21-.014l.776 3.719a2 2 0 0 0 1.215 1.448l.037.014 6.125 2.174a2 2 0 0 0 2.297-.632c2.149-2.78 1.908-6.467-.591-8.967M27.959 19l-.038-.015-6.102-2.166-.776-3.718a2 2 0 0 0-1.293-1.476 11.57 11.57 0 0 0-7.542.016 2 2 0 0 0-1.29 1.5l-.738 3.689-6.101 2.153c-.013 0-.021.016-.034.02-1.541-1.988-1.375-4.528.42-6.322C7.59 9.556 11.796 7.99 16 7.99s8.409 1.564 11.535 4.691c1.791 1.794 1.965 4.334.424 6.319m.04 6a1 1 0 0 1-1 1H5a1 1 0 0 1 0-2h22a1 1 0 0 1 1 1z"/></svg>