<svg xmlns="http://www.w3.org/2000/svg" width="32" height="32" fill="none" viewBox="0 0 32 32"><path fill="#000" d="M28.83 6.17a4 4 0 0 0-6.302.845L19 6.053a4 4 0 1 0-7.549 1.793l-4.242 3.82a4.006 4.006 0 0 0-5.039.505 4 4 0 0 0 5.361 5.927l8.75 6.42a4 4 0 1 0 5.947-1.837l3.423-9.698q.172.015.345.015a4 4 0 0 0 2.829-6.828zM13.58 4.584a2 2 0 1 1-.433 2.18 2 2 0 0 1 .438-2.18zm-10 11.831a2 2 0 1 1 2.827-2.83 2 2 0 0 1-2.827 2.83m17.831 11a2 2 0 1 1-2.828-2.829 2 2 0 0 1 2.828 2.83m-1.069-5.397a4 4 0 0 0-2.874.885l-8.75-6.42a4.02 4.02 0 0 0-.168-3.332l4.244-3.818a4 4 0 0 0 5.683-1.352L22 8.945a4 4 0 0 0 1.765 3.375zm7.07-11.605a2 2 0 1 1-2.825-2.828 2 2 0 0 1 2.83 2.829z"/></svg>