<svg xmlns="http://www.w3.org/2000/svg" width="32" height="32" fill="none" viewBox="0 0 32 32"><path fill="#000" d="M11.5 17H5a2 2 0 0 1-1.893-1.37 2 2 0 0 1-.098-.827 12.98 12.98 0 0 1 5.447-9.437A2 2 0 0 1 11.344 6l3.25 5.625a1.002 1.002 0 0 1-.736 1.492 1 1 0 0 1-.997-.492L9.611 7A10.98 10.98 0 0 0 5 14.983a.02.02 0 0 0 .009.02l6.49-.003a1 1 0 1 1 0 2m17.491-2.197a12.98 12.98 0 0 0-5.447-9.437A2 2 0 0 0 20.656 6l-3.244 5.625a1 1 0 0 0 .367 1.366 1 1 0 0 0 1.366-.366L22.395 7A10.98 10.98 0 0 1 27 14.983V15h-6.5a1 1 0 1 0 0 2H27a2 2 0 0 0 1.893-1.37c.09-.266.123-.548.098-.827m-9.875 4.595a1 1 0 0 0-1.732 1l3.23 5.59a11.03 11.03 0 0 1-9.227 0l3.23-5.59a1.003 1.003 0 0 0-.367-1.367 1 1 0 0 0-1.366.367l-3.228 5.59a2 2 0 0 0 .89 2.816 13.03 13.03 0 0 0 10.908 0 2 2 0 0 0 .89-2.815zM16 17.5a1.5 1.5 0 1 0 0-3 1.5 1.5 0 0 0 0 3"/></svg>