<svg xmlns="http://www.w3.org/2000/svg" width="32" height="32" fill="none" viewBox="0 0 32 32"><path fill="#000" d="M3 16a9.01 9.01 0 0 1 9-9h13.586l-1.293-1.292a1 1 0 0 1 1.415-1.415l3 3a1 1 0 0 1 0 1.415l-3 3a1 1 0 0 1-1.415-1.415L25.586 9H12a7.01 7.01 0 0 0-7 7 1 1 0 0 1-2 0m25-1a1 1 0 0 0-1 1 7.007 7.007 0 0 1-7 7H6.414l1.293-1.292a1 1 0 1 0-1.415-1.415l-3 3a1 1 0 0 0 0 1.415l3 3a1.001 1.001 0 0 0 1.415-1.415L6.414 25H20a9.01 9.01 0 0 0 9-9 1 1 0 0 0-1-1m-11 5a1 1 0 0 0 1-1v-6a1 1 0 0 0-1.448-.895l-2 1a1 1 0 1 0 .896 1.789l.552-.276V19a1 1 0 0 0 1 1"/></svg>