<svg xmlns="http://www.w3.org/2000/svg" width="32" height="32" fill="none" viewBox="0 0 32 32"><path fill="#000" d="M6.74 4.327a1 1 0 1 0-1.48 1.345L9.194 10H4a2 2 0 0 0-2 2v8a2 2 0 0 0 2 2h5.656l8.73 6.789a1 1 0 0 0 1.614-.79v-6.113l5.26 5.786a1 1 0 1 0 1.48-1.345zM4 12h5v8H4zm14 13.955-7-5.444v-8.525l7 7.7zm5.25-7.971a3 3 0 0 0 0-3.965.999.999 0 1 1 1.5-1.322 5 5 0 0 1 0 6.61 1 1 0 1 1-1.5-1.323m-10.02-9.5a1 1 0 0 1 .175-1.404l4.981-3.875A1 1 0 0 1 20 4v9.354a1 1 0 0 1-2 0v-7.31L14.633 8.67a1 1 0 0 1-1.403-.181zM31 16a10 10 0 0 1-2.546 6.667 1 1 0 0 1-1.49-1.333 8 8 0 0 0 0-10.667.999.999 0 1 1 1.49-1.333A9.98 9.98 0 0 1 31 16"/></svg>