<svg xmlns="http://www.w3.org/2000/svg" width="32" height="32" fill="none" viewBox="0 0 32 32"><path fill="#000" d="m25.151 16 3.724-6.5A1 1 0 0 0 28 8h-7.419l-3.706-6.5a1 1 0 0 0-1.738 0L11.417 8H4a1 1 0 0 0-.869 1.5L6.846 16l-3.715 6.5a1 1 0 0 0 .875 1.5h7.41l3.715 6.5a1 1 0 0 0 1.738 0L20.58 24H28a1 1 0 0 0 .875-1.5zm1.125-6L24 13.985 21.724 10zm-3.427 6-3.428 6h-6.843L9.15 16l3.428-6h6.843zM16 4.015 18.278 8H13.72zM5.723 10h4.55L8 13.985zm0 11.99L8 18.015 10.274 22zM16 27.985 13.721 24h4.557zM21.724 22 24 18.015 26.276 22z"/></svg>