<svg xmlns="http://www.w3.org/2000/svg" width="32" height="32" fill="none" viewBox="0 0 32 32"><path fill="#000" d="M8.5 19a4.5 4.5 0 1 0 0 9 4.5 4.5 0 0 0 0-9m0 7a2.5 2.5 0 1 1 0-5 2.5 2.5 0 0 1 0 5M4.292 13.293 6.086 11.5 4.292 9.707a1 1 0 1 1 1.415-1.415L7.5 10.087l1.792-1.793a1 1 0 1 1 1.415 1.415L8.914 11.5l1.793 1.793a1 1 0 1 1-1.415 1.415L7.5 12.914l-1.793 1.793a1 1 0 0 1-1.415-1.415m23.415 12a1 1 0 0 1 0 1.415 1 1 0 0 1-1.415 0L24.5 24.914l-1.793 1.793a1 1 0 1 1-1.415-1.415l1.794-1.792-1.794-1.793a1 1 0 0 1 1.415-1.415l1.793 1.794 1.792-1.793a1.001 1.001 0 0 1 1.415 1.415L25.914 23.5zm-5.648-11.19c-.773 2.792-3.165 5.205-5.817 5.867a1.02 1.02 0 0 1-.911-.222 1 1 0 0 1 .42-1.718c1.954-.489 3.794-2.364 4.375-4.46.399-1.437.403-3.625-1.839-5.863L18 7.414V10a1 1 0 1 1-2 0V5a1 1 0 0 1 1-1h5a1 1 0 1 1 0 2h-2.586l.293.293c2.28 2.28 3.115 5.055 2.352 7.81"/></svg>