<svg xmlns="http://www.w3.org/2000/svg" width="32" height="32" fill="none" viewBox="0 0 32 32"><path fill="#000" d="M21.829 10.169a10 10 0 1 0-11.66 11.66 10 10 0 1 0 11.66-11.66M28 20c0 .19-.009.375-.023.564l-6.25-6.25c.163-.677.254-1.368.273-2.064A7.976 7.976 0 0 1 28 20m-9.675-.261 6.576 6.577a8 8 0 0 1-2.026 1.147l-6.483-6.483a10 10 0 0 0 1.933-1.241m1.414-1.414c.486-.594.902-1.241 1.241-1.93l6.482 6.48a8 8 0 0 1-1.146 2.024zM3.999 12A8 8 0 1 1 12 20a8.01 8.01 0 0 1-8-8m8.251 10a10 10 0 0 0 2.063-.266l6.25 6.25A7.976 7.976 0 0 1 12.25 22"/></svg>