<svg xmlns="http://www.w3.org/2000/svg" width="32" height="32" fill="none" viewBox="0 0 32 32"><path fill="#000" d="m29.708 8.292-6-6a1 1 0 1 0-1.415 1.415L24.586 6 21 9.586l-4.292-4.294a1 1 0 0 0-1.415 1.415l.793.793L5.586 18A1.98 1.98 0 0 0 5 19.414v6.172l-2.707 2.706A1.002 1.002 0 0 0 3 30a1 1 0 0 0 .708-.293L6.414 27h6.172A1.98 1.98 0 0 0 14 26.414l10.5-10.5.793.793a1 1 0 0 0 1.415 0 1 1 0 0 0 0-1.415L22.414 11 26 7.414l2.293 2.293a1 1 0 1 0 1.415-1.415M12.586 25H7v-5.586l2.25-2.25 2.543 2.543a1 1 0 0 0 1.415 0 1 1 0 0 0 0-1.415l-2.544-2.542 1.586-1.586 2.543 2.543a1 1 0 1 0 1.415-1.415l-2.544-2.542L17.5 8.914l5.586 5.586z"/></svg>