<svg xmlns="http://www.w3.org/2000/svg" width="32" height="32" fill="none" viewBox="0 0 32 32"><path fill="#000" d="M24.763 7.825a9.5 9.5 0 0 0-17.525 0A9.03 9.03 0 0 0 2 15.975c-.014 4.852 3.92 8.9 8.768 9.025A8.96 8.96 0 0 0 15 24.06V29a1 1 0 0 0 2 0V24.06c1.242.62 2.612.941 4 .939h.233c4.847-.125 8.78-4.17 8.767-9.023a9.03 9.03 0 0 0-5.238-8.152M21.18 23a6.95 6.95 0 0 1-4.065-1.175L17 21.754v-5.137l5.448-2.722a1 1 0 1 0-.896-1.79L17 14.382V11a1 1 0 1 0-2 0v6.382l-4.552-2.277a1 1 0 1 0-.895 1.79L15 19.617v2.133l-.116.071A7 7 0 1 1 8.069 9.642c.454-.208.813-.58 1.006-1.04a7.5 7.5 0 0 1 13.838 0c.192.46.551.832 1.006 1.04A7 7 0 0 1 21.169 23z"/></svg>