<svg xmlns="http://www.w3.org/2000/svg" width="32" height="32" fill="none" viewBox="0 0 32 32"><path fill="#000" d="M30.924 8.618A1 1 0 0 0 30 8h-3.804a6.08 6.08 0 0 0-5.184-3 5.86 5.86 0 0 0-4.218 1.713A5.99 5.99 0 0 0 15 11v.761C9.967 10.434 5.851 6.34 5.808 6.296a1 1 0 0 0-1.707.615c-.538 5.974 1.197 9.972 2.75 12.273a13.9 13.9 0 0 0 2.735 3.025C7.682 24.4 4.685 25.55 4.653 25.564a1 1 0 0 0-.482 1.491c.094.14.469.631 1.385 1.09C6.69 28.712 8.185 29 10 29c8.834 0 16.215-6.802 16.969-15.555l3.738-3.737a1 1 0 0 0 .217-1.09m-5.625 3.676a1 1 0 0 0-.29.642C24.5 20.823 17.91 27 10 27c-1.32 0-2.25-.175-2.902-.385 1.438-.781 3.445-2.125 4.735-4.06a1 1 0 0 0-.333-1.42c-.059-.034-5.489-3.293-5.5-12 2 1.625 5.656 4.146 9.834 4.849A1 1 0 0 0 17 13v-2a4 4 0 0 1 1.2-2.865A3.87 3.87 0 0 1 20.988 7c1.582.02 3.06.985 3.68 2.401a1 1 0 0 0 .916.599h2z"/></svg>