<svg xmlns="http://www.w3.org/2000/svg" width="32" height="32" fill="none" viewBox="0 0 32 32"><path fill="#000" d="m31.708 16.707-3 3a1 1 0 0 1-1.415 0l-3-3a1 1 0 1 1 1.415-1.415l1.293 1.294V16A11 11 0 0 0 7.06 9.584a1 1 0 0 1-1.624-1.168A13 13 0 0 1 29 16v.586l1.292-1.294a1 1 0 0 1 1.415 1.415m-5.147 6.875A13 13 0 0 1 3 16v-.586l-1.293 1.293a1 1 0 1 1-1.415-1.415l3-3a1 1 0 0 1 1.415 0l3 3a1 1 0 0 1-1.415 1.415l-1.292-1.293V16A10.95 10.95 0 0 0 7.78 23.3a9.96 9.96 0 0 1 4.507-3.594 6 6 0 1 1 7.425 0 9.95 9.95 0 0 1 4.51 3.598q.38-.426.714-.889a1 1 0 1 1 1.625 1.168zM16 19a4 4 0 1 0 0-8 4 4 0 0 0 0 8m0 8a11.03 11.03 0 0 0 6.74-2.311 8.002 8.002 0 0 0-13.48 0 10.95 10.95 0 0 0 6.74 2.31"/></svg>