<svg xmlns="http://www.w3.org/2000/svg" width="32" height="32" fill="none" viewBox="0 0 32 32"><path fill="#000" d="M3.4 15.8a1 1 0 0 0 1.4-.2 6.5 6.5 0 0 1 10.4 0 1 1 0 0 0 1.599 0 6.5 6.5 0 0 1 10.4 0 1 1 0 0 0 1.6-1.201 8.5 8.5 0 0 0-3.424-2.71 5 5 0 1 0-6.742 0 8.4 8.4 0 0 0-2.625 1.789 8.4 8.4 0 0 0-2.625-1.79 5 5 0 1 0-6.743 0A8.5 8.5 0 0 0 3.2 14.4a1 1 0 0 0 .2 1.4M22 5a3 3 0 1 1 0 6 3 3 0 0 1 0-6M10 5a3 3 0 1 1 0 6 3 3 0 0 1 0-6M25.375 24.69a5 5 0 1 0-6.742 0 8.4 8.4 0 0 0-2.625 1.789 8.4 8.4 0 0 0-2.625-1.79 5 5 0 1 0-6.743 0A8.5 8.5 0 0 0 3.2 27.4a1 1 0 0 0 1.6 1.2 6.5 6.5 0 0 1 10.4 0 1 1 0 0 0 1.599 0 6.5 6.5 0 0 1 10.4 0 1 1 0 0 0 1.6-1.201 8.5 8.5 0 0 0-3.424-2.71M10 18a3 3 0 1 1 0 6 3 3 0 0 1 0-6m12 0a3 3 0 1 1 0 6 3 3 0 0 1 0-6"/></svg>