<svg xmlns="http://www.w3.org/2000/svg" width="32" height="32" fill="none" viewBox="0 0 32 32"><path fill="#000" d="M18 10a1 1 0 0 1 1-1h12a1 1 0 1 1 0 2H19a1 1 0 0 1-1-1m13 5H19a1 1 0 0 0 0 2h12a1 1 0 1 0 0-2m0 6h-9a1 1 0 0 0 0 2h9a1 1 0 1 0 0-2m-12.032 2.75a1 1 0 0 1-1.582 1.04 1 1 0 0 1-.356-.54C16.26 21.258 13.237 19 9.999 19c-3.24 0-6.262 2.256-7.032 5.25a1 1 0 1 1-1.937-.5c.699-2.714 2.73-4.911 5.307-6a6 6 0 1 1 7.323 0c2.578 1.089 4.61 3.286 5.308 6M10 17a4 4 0 1 0 0-8 4 4 0 0 0 0 8"/></svg>