<svg xmlns="http://www.w3.org/2000/svg" width="32" height="32" fill="none" viewBox="0 0 32 32"><path fill="#000" d="M23.293 12.68a.943.943 0 0 0 1.414 0c.39-.425.39-1.115 0-1.541l-6.586-7.18c-1.171-1.278-3.07-1.278-4.242-.001l-6.586 7.18a1.16 1.16 0 0 0 0 1.543.943.943 0 0 0 1.414 0L15.293 5.5a.943.943 0 0 1 1.414 0zM8.707 19.32a.943.943 0 0 0-1.414 0 1.16 1.16 0 0 0 0 1.541l6.586 7.181c1.171 1.277 3.07 1.277 4.242 0l6.586-7.18c.39-.426.39-1.117 0-1.543a.943.943 0 0 0-1.414 0L16.707 26.5a.943.943 0 0 1-1.414 0z"/></svg>