<svg xmlns="http://www.w3.org/2000/svg" width="32" height="32" fill="none" viewBox="0 0 32 32"><path fill="#000" d="M4.553 21.904a.983.983 0 1 1 1.872.604l-1.455 4.52 1.3-.454h.001l4.318-1.504.384.214q.597.331 1.235.587a.985.985 0 0 1-.73 1.83 13 13 0 0 1-1.063-.485l-4.799 1.672a2 2 0 0 1-.143.044l-.022.004q-.058.016-.116.027-.03.007-.062.01l-.069.012c-1.33.169-2.486-1.074-2.143-2.433q.016-.064.037-.129l.435-1.351v-.002zM18.326 26.432a.984.984 0 0 1 .382 1.932 12.8 12.8 0 0 1-4.106.142.985.985 0 0 1 .246-1.954 11 11 0 0 0 3.478-.12M25.21 21.823a.984.984 0 1 1 1.636 1.095 12.9 12.9 0 0 1-3.527 3.532.983.983 0 1 1-1.094-1.637 10.9 10.9 0 0 0 2.986-2.99M27.6 12.53a.985.985 0 0 1 1.157.776q.241 1.215.243 2.498-.002 1.283-.243 2.498a.985.985 0 1 1-1.93-.383q.204-1.027.206-2.115-.001-1.089-.206-2.115a.985.985 0 0 1 .774-1.158M3.671 13.306a.984.984 0 1 1 1.93.383 10.9 10.9 0 0 0-.127 3.428.984.984 0 1 1-1.953.237 13 13 0 0 1 .15-4.048M9.11 5.157a.983.983 0 1 1 1.093 1.637 10.9 10.9 0 0 0-2.986 2.99.984.984 0 1 1-1.635-1.095A12.9 12.9 0 0 1 9.11 5.157M21.954 5.428a.983.983 0 0 1 1.365-.27 12.9 12.9 0 0 1 3.527 3.531.984.984 0 1 1-1.635 1.096 10.9 10.9 0 0 0-2.986-2.99.987.987 0 0 1-.271-1.367M16.214 3q1.282.002 2.494.243a.986.986 0 0 1-.382 1.933 11 11 0 0 0-2.112-.206c-.723 0-1.43.07-2.112.206a.984.984 0 1 1-.382-1.933A13 13 0 0 1 16.214 3"/></svg>