<svg xmlns="http://www.w3.org/2000/svg" width="32" height="32" fill="none" viewBox="0 0 32 32"><path fill="#000" fill-rule="evenodd" d="M17.2 4h-2.4c-2.273 0-3.858.002-5.092.102-1.21.1-1.905.284-2.432.552a6 6 0 0 0-2.622 2.622c-.268.527-.453 1.222-.552 2.432C4.002 10.942 4 12.527 4 14.8v2.4c0 2.273.002 3.858.102 5.092.1 1.21.284 1.905.552 2.432a6 6 0 0 0 2.622 2.622c.527.268 1.222.453 2.432.552 1.234.1 2.819.102 5.092.102h2.4c2.273 0 3.858-.002 5.092-.102 1.21-.1 1.905-.284 2.432-.552a6 6 0 0 0 2.622-2.622c.268-.527.453-1.222.552-2.433.1-1.233.102-2.818.102-5.091v-2.4c0-2.273-.002-3.858-.102-5.092-.1-1.21-.284-1.905-.552-2.432a6 6 0 0 0-2.622-2.622c-.527-.268-1.222-.453-2.433-.552C21.059 4.002 19.473 4 17.2 4M2.872 6.368C2 8.08 2 10.32 2 14.8v2.4c0 4.48 0 6.72.872 8.432a8 8 0 0 0 3.496 3.496C8.08 30 10.32 30 14.8 30h2.4c4.48 0 6.72 0 8.432-.872a8 8 0 0 0 3.496-3.496C30 23.92 30 21.68 30 17.2v-2.4c0-4.48 0-6.72-.872-8.432a8 8 0 0 0-3.496-3.496C23.92 2 21.68 2 17.2 2h-2.4c-4.48 0-6.72 0-8.432.872a8 8 0 0 0-3.496 3.496" clip-rule="evenodd" opacity=".2"/></svg>