<svg xmlns="http://www.w3.org/2000/svg" width="32" height="32" fill="none" viewBox="0 0 32 32"><path fill="#000" fill-rule="evenodd" d="M26.523 5.402a1 1 0 0 1 1 1v4.904a1 1 0 1 1-2 0v-2.49l-6.442 6.442a1 1 0 0 1-1.414-1.414l6.442-6.442h-2.49a1 1 0 0 1 0-2z" clip-rule="evenodd"/><path fill="#000" fill-rule="evenodd" d="m4.879 13.98 9.687-9.687a1 1 0 0 1 1.414 1.414l-9.687 9.687a1 1 0 0 0 0 1.414l9.402 9.402a1 1 0 0 0 1.414 0l9.687-9.687a1 1 0 0 1 1.414 1.414l-9.687 9.688a3 3 0 0 1-4.242 0l-9.402-9.402a3 3 0 0 1 0-4.243" clip-rule="evenodd"/></svg>