<svg xmlns="http://www.w3.org/2000/svg" width="32" height="32" fill="none" viewBox="0 0 32 32"><path fill="#000" fill-rule="evenodd" d="M21.284 27.049S18.986 28 16.5 28H5.976s-.395.005-.76-.143c0 0-.366-.149-.645-.428 0 0-.279-.28-.428-.645 0 0-.148-.365-.143-.746V15.5s0-2.486.952-4.783c0 0 .951-2.298 2.71-4.056 0 0 1.757-1.758 4.055-2.71 0 0 2.297-.951 4.783-.951 0 0 2.486 0 4.784.952 0 0 2.297.951 4.055 2.71 0 0 1.758 1.757 2.71 4.055 0 0 .951 2.297.951 4.783v.003s0 2.485-.951 4.78c0 0-.952 2.298-2.71 4.056 0 0-1.758 1.758-4.055 2.71M16.5 5s-2.089 0-4.018.8c0 0-1.93.799-3.407 2.275 0 0-1.476 1.477-2.276 3.407 0 0-.799 1.93-.799 4.018V26h10.5s2.089 0 4.018-.8c0 0 1.93-.799 3.407-2.275 0 0 1.476-1.477 2.276-3.407 0 0 .799-1.93.799-4.018 0 0 0-2.089-.8-4.018 0 0-.799-1.93-2.275-3.407 0 0-1.477-1.476-3.407-2.276 0 0-1.93-.799-4.018-.799" clip-rule="evenodd"/><path fill="#000" d="m17.647 9-.211 9.243h-2.059L15.173 9zm-1.24 13.232a1.37 1.37 0 0 1-.998-.41 1.36 1.36 0 0 1-.409-.997q0-.575.41-.984.414-.41.997-.41.569 0 .984.41.422.409.422.984 0 .39-.198.71a1.5 1.5 0 0 1-.512.511 1.34 1.34 0 0 1-.697.186"/></svg>