<svg xmlns="http://www.w3.org/2000/svg" width="32" height="32" fill="none" viewBox="0 0 32 32"><g opacity=".08"><path fill="#000" d="M19.75 4a.75.75 0 0 0 0 1.5h4A2.25 2.25 0 0 1 26 7.75v4a.75.75 0 0 0 1.5 0v-4A3.75 3.75 0 0 0 23.75 4zM11.75 27.5a.75.75 0 0 0 0-1.5h-4a2.25 2.25 0 0 1-2.25-2.25v-4a.75.75 0 0 0-1.5 0v4a3.75 3.75 0 0 0 3.75 3.75zM4.75 12.5a.75.75 0 0 1-.75-.75v-4A3.75 3.75 0 0 1 7.75 4h4a.75.75 0 0 1 0 1.5h-4A2.25 2.25 0 0 0 5.5 7.75v4a.75.75 0 0 1-.75.75M27.5 19.75a.75.75 0 0 0-1.5 0v4A2.25 2.25 0 0 1 23.75 26h-4a.75.75 0 0 0 0 1.5h4a3.75 3.75 0 0 0 3.75-3.75z"/></g><path fill="#000" d="M9 18.665h1.074q.047.443.302.75.26.302.674.46.412.153.916.153.545 0 .98-.183t.69-.545q.256-.367.256-.908 0-.473-.222-.878-.22-.41-.711-.66-.49-.252-1.3-.252h-.699v-.852l2.182-2.625v-.068H9.426v-.938h5.165v.767l-2.335 2.83v.068q.562.026 1.048.23.49.205.852.554.367.35.571.814.205.465.205 1.01 0 .745-.384 1.33-.379.579-1.052.912-.67.332-1.547.332-.775 0-1.428-.273a2.6 2.6 0 0 1-1.06-.788A2.2 2.2 0 0 1 9 18.665M16.672 20.847v-.768l2.88-3.153q.508-.554.835-.963.33-.413.486-.775.162-.367.162-.768 0-.46-.221-.796a1.44 1.44 0 0 0-.597-.52 1.9 1.9 0 0 0-.852-.183q-.503 0-.878.208a1.44 1.44 0 0 0-.575.575q-.2.371-.2.87h-1.006q0-.766.353-1.347.354-.579.963-.903Q18.636 12 19.4 12q.766 0 1.36.324.592.324.928.873.336.55.337 1.224 0 .48-.175.941-.17.456-.596 1.019-.422.558-1.172 1.363l-1.96 2.097v.068h4.056v.938z"/></svg>