<svg xmlns="http://www.w3.org/2000/svg" width="32" height="32" fill="none" viewBox="0 0 32 32"><g opacity=".08"><path fill="#000" d="M19.75 4a.75.75 0 0 0 0 1.5h4A2.25 2.25 0 0 1 26 7.75v4a.75.75 0 0 0 1.5 0v-4A3.75 3.75 0 0 0 23.75 4zM11.75 27.5a.75.75 0 0 0 0-1.5h-4a2.25 2.25 0 0 1-2.25-2.25v-4a.75.75 0 0 0-1.5 0v4a3.75 3.75 0 0 0 3.75 3.75zM4.75 12.5a.75.75 0 0 1-.75-.75v-4A3.75 3.75 0 0 1 7.75 4h4a.75.75 0 0 1 0 1.5h-4A2.25 2.25 0 0 0 5.5 7.75v4a.75.75 0 0 1-.75.75M27.5 19.75a.75.75 0 0 0-1.5 0v4A2.25 2.25 0 0 1 23.75 26h-4a.75.75 0 0 0 0 1.5h4a3.75 3.75 0 0 0 3.75-3.75z"/></g><path fill="#000" d="M9 20.847v-.768l2.88-3.153q.508-.554.836-.963.328-.413.486-.775.162-.367.162-.768 0-.46-.222-.796a1.44 1.44 0 0 0-.596-.52 1.9 1.9 0 0 0-.853-.183q-.503 0-.878.208a1.44 1.44 0 0 0-.575.575q-.2.371-.2.87H9.034q0-.766.354-1.347.354-.579.963-.903.614-.324 1.376-.324.768 0 1.36.324t.929.873q.336.55.336 1.224 0 .48-.174.941-.171.456-.597 1.019-.422.558-1.172 1.363l-1.96 2.097v.068h4.057v.938zM19.061 20.966q-.877 0-1.551-.311a2.54 2.54 0 0 1-1.044-.865q-.375-.554-.37-1.262a2.32 2.32 0 0 1 .822-1.81q.387-.321.865-.405v-.052a1.69 1.69 0 0 1-.997-.703 2.13 2.13 0 0 1-.367-1.24q-.004-.665.337-1.189.341-.525.937-.826A3 3 0 0 1 19.061 12q.76 0 1.355.303.596.302.938.826.345.524.35 1.19a2.16 2.16 0 0 1-.38 1.24q-.37.54-.984.702v.052q.473.084.852.404.379.315.605.789.225.468.23 1.022-.004.708-.383 1.262-.375.55-1.044.865-.665.31-1.539.31m0-.938q.593 0 1.023-.191.43-.193.665-.541.234-.35.238-.819a1.57 1.57 0 0 0-.255-.873 1.74 1.74 0 0 0-.686-.597 2.15 2.15 0 0 0-.985-.217q-.558 0-.997.217-.434.218-.686.597a1.54 1.54 0 0 0-.243.873 1.43 1.43 0 0 0 .226.819q.235.349.669.54.434.193 1.031.192m0-4.142q.47 0 .831-.187.367-.188.575-.524.21-.338.213-.789a1.46 1.46 0 0 0-.208-.77 1.36 1.36 0 0 0-.567-.512 1.85 1.85 0 0 0-.844-.183q-.49 0-.856.183-.367.179-.567.511a1.4 1.4 0 0 0-.196.771 1.46 1.46 0 0 0 .2.789q.21.336.575.524.367.187.844.187"/></svg>