<svg xmlns="http://www.w3.org/2000/svg" width="32" height="32" fill="none" viewBox="0 0 32 32"><g opacity=".08"><path fill="#000" d="M19.75 4a.75.75 0 0 0 0 1.5h4A2.25 2.25 0 0 1 26 7.75v4a.75.75 0 0 0 1.5 0v-4A3.75 3.75 0 0 0 23.75 4zM11.75 27.5a.75.75 0 0 0 0-1.5h-4a2.25 2.25 0 0 1-2.25-2.25v-4a.75.75 0 0 0-1.5 0v4a3.75 3.75 0 0 0 3.75 3.75zM4.75 12.5a.75.75 0 0 1-.75-.75v-4A3.75 3.75 0 0 1 7.75 4h4a.75.75 0 0 1 0 1.5h-4A2.25 2.25 0 0 0 5.5 7.75v4a.75.75 0 0 1-.75.75M27.5 19.75a.75.75 0 0 0-1.5 0v4A2.25 2.25 0 0 1 23.75 26h-4a.75.75 0 0 0 0 1.5h4a3.75 3.75 0 0 0 3.75-3.75z"/></g><path fill="#000" d="M9 20.847v-.768l2.88-3.153q.508-.554.836-.963.328-.413.486-.775.162-.367.162-.768 0-.46-.222-.796a1.44 1.44 0 0 0-.596-.52 1.9 1.9 0 0 0-.853-.183q-.503 0-.878.208a1.44 1.44 0 0 0-.575.575q-.2.371-.2.87H9.034q0-.766.354-1.347.354-.579.963-.903.614-.324 1.376-.324.768 0 1.36.324t.929.873q.336.55.336 1.224 0 .48-.174.941-.171.456-.597 1.019-.422.558-1.172 1.363l-1.96 2.097v.068h4.057v.938zM19.112 20.966q-.963 0-1.64-.524-.678-.529-1.036-1.53-.357-1.005-.358-2.429 0-1.415.358-2.416.363-1.005 1.04-1.534.682-.533 1.636-.533.955 0 1.632.533.683.528 1.04 1.534.363 1.001.362 2.416 0 1.423-.358 2.429-.357 1.002-1.035 1.53-.678.525-1.64.524m0-.938q.955 0 1.483-.92.53-.921.529-2.625 0-1.135-.243-1.93-.24-.798-.69-1.215a1.52 1.52 0 0 0-1.079-.417q-.945 0-1.478.933-.533.928-.533 2.629 0 1.134.239 1.926.238.793.686 1.206.45.413 1.086.413"/></svg>