<svg xmlns="http://www.w3.org/2000/svg" width="32" height="32" fill="none" viewBox="0 0 32 32"><g opacity=".08"><path fill="#000" d="M19.75 4a.75.75 0 0 0 0 1.5h4A2.25 2.25 0 0 1 26 7.75v4a.75.75 0 0 0 1.5 0v-4A3.75 3.75 0 0 0 23.75 4zM11.75 27.5a.75.75 0 0 0 0-1.5h-4a2.25 2.25 0 0 1-2.25-2.25v-4a.75.75 0 0 0-1.5 0v4a3.75 3.75 0 0 0 3.75 3.75zM4.75 12.5a.75.75 0 0 1-.75-.75v-4A3.75 3.75 0 0 1 7.75 4h4a.75.75 0 0 1 0 1.5h-4A2.25 2.25 0 0 0 5.5 7.75v4a.75.75 0 0 1-.75.75M27.5 19.75a.75.75 0 0 0-1.5 0v4A2.25 2.25 0 0 1 23.75 26h-4a.75.75 0 0 0 0 1.5h4a3.75 3.75 0 0 0 3.75-3.75z"/></g><path fill="#000" d="M11.966 20.966q-.877 0-1.551-.311a2.54 2.54 0 0 1-1.044-.865q-.375-.554-.371-1.262a2.32 2.32 0 0 1 .822-1.81q.388-.321.866-.405v-.052a1.69 1.69 0 0 1-.998-.703 2.13 2.13 0 0 1-.366-1.24q-.004-.665.337-1.189.341-.525.937-.826A3 3 0 0 1 11.966 12q.759 0 1.355.303.596.302.938.826.345.524.349 1.19-.005.694-.38 1.24-.37.54-.984.702v.052q.474.084.853.404.379.315.605.789.225.468.23 1.022-.004.708-.384 1.262a2.54 2.54 0 0 1-1.044.865q-.665.31-1.538.31m0-.938q.592 0 1.023-.191.43-.193.664-.541.235-.35.24-.819a1.57 1.57 0 0 0-.257-.873 1.74 1.74 0 0 0-.686-.597 2.15 2.15 0 0 0-.984-.217q-.558 0-.997.217-.435.218-.686.597a1.54 1.54 0 0 0-.243.873 1.43 1.43 0 0 0 .226.819q.234.349.669.54.435.193 1.03.192m0-4.142q.469 0 .83-.187.367-.188.576-.524.21-.338.213-.789a1.45 1.45 0 0 0-.209-.77 1.35 1.35 0 0 0-.566-.512 1.85 1.85 0 0 0-.844-.183q-.49 0-.857.183-.366.179-.566.511a1.42 1.42 0 0 0-.196.771 1.46 1.46 0 0 0 .2.789q.209.336.575.524.367.187.844.187M19.412 20.966q-.964 0-1.641-.524-.678-.529-1.036-1.53-.357-1.005-.357-2.429 0-1.415.357-2.416.363-1.005 1.04-1.534.682-.533 1.637-.533.954 0 1.632.533.68.528 1.04 1.534.361 1.001.362 2.416 0 1.423-.358 2.429-.358 1.002-1.036 1.53-.677.525-1.64.524m0-.938q.954 0 1.483-.92.528-.921.528-2.625 0-1.135-.243-1.93-.24-.798-.69-1.215a1.52 1.52 0 0 0-1.078-.417q-.946 0-1.48.933-.532.928-.532 2.629 0 1.134.239 1.926.239.793.686 1.206.451.413 1.087.413"/></svg>