<svg xmlns="http://www.w3.org/2000/svg" width="32" height="32" fill="none" viewBox="0 0 32 32"><path fill="#000" d="m29.313 14.298-5.638 4.92 1.689 7.325a2 2 0 0 1-2.98 2.167l-6.389-3.875L9.62 28.71a2 2 0 0 1-2.98-2.167l1.686-7.318-5.639-4.927a2 2 0 0 1 1.14-3.508l7.432-.643 2.901-6.92a1.994 1.994 0 0 1 3.68 0l2.91 6.92 7.43.643a2 2 0 0 1 1.139 3.508z"/><path fill="#fff" d="M13.27 21v-.767l2.881-3.154q.508-.553.835-.963.33-.413.486-.775.162-.366.162-.767 0-.46-.221-.797a1.44 1.44 0 0 0-.597-.52 1.9 1.9 0 0 0-.852-.183q-.503 0-.878.209a1.44 1.44 0 0 0-.575.575 1.8 1.8 0 0 0-.2.87h-1.006q0-.768.353-1.347.354-.58.963-.904a2.9 2.9 0 0 1 1.377-.324q.766 0 1.36.324.591.324.928.874t.337 1.223q0 .481-.175.941-.17.456-.596 1.019-.422.558-1.172 1.364l-1.96 2.096v.068h4.056V21z"/></svg>