<svg xmlns="http://www.w3.org/2000/svg" width="32" height="32" fill="none" viewBox="0 0 32 32"><path fill="#000" d="m29.313 14.298-5.638 4.92 1.689 7.325a2 2 0 0 1-2.98 2.167l-6.389-3.875L9.62 28.71a2 2 0 0 1-2.98-2.167l1.686-7.318-5.639-4.927a2 2 0 0 1 1.14-3.508l7.432-.643 2.901-6.92a1.994 1.994 0 0 1 3.68 0l2.91 6.92 7.43.643a2 2 0 0 1 1.139 3.508z"/><path fill="#fff" d="M15.98 21.12q-.75 0-1.35-.299a2.5 2.5 0 0 1-.964-.818 2.23 2.23 0 0 1-.396-1.185h1.023q.06.593.537.98a1.8 1.8 0 0 0 1.15.384q.537 0 .955-.251.422-.252.66-.69a2.05 2.05 0 0 0 .243-1.002q0-.57-.251-1.019a1.85 1.85 0 0 0-.682-.711 1.93 1.93 0 0 0-.993-.265 2.7 2.7 0 0 0-.822.124 2.3 2.3 0 0 0-.695.32l-.989-.12.529-4.295h4.534v.937H14.82l-.307 2.574h.052q.268-.213.673-.353.405-.141.844-.141.801 0 1.427.384.63.378.989 1.04.362.66.362 1.508 0 .835-.375 1.491a2.74 2.74 0 0 1-1.023 1.031 2.9 2.9 0 0 1-1.483.375"/></svg>