<svg xmlns="http://www.w3.org/2000/svg" width="32" height="32" fill="none" viewBox="0 0 32 32"><path fill="#000" d="M25.8 11.8a4.2 4.2 0 1 1 0 8.4H6.2a4.2 4.2 0 1 1 0-8.4z"/><path fill="#000" d="M11.8 6.2a4.2 4.2 0 0 1 8.4 0v19.6a4.2 4.2 0 1 1-8.4 0z"/><path fill="#fff" fill-opacity=".4" d="M11.8 6.2a4.2 4.2 0 0 1 8.4 0v19.6a4.2 4.2 0 1 1-8.4 0z"/><path fill="#000" d="M25.9 19.96a4.2 4.2 0 0 1-5.94 5.94L6.1 12.04a4.2 4.2 0 0 1 5.94-5.94z"/><path fill="#fff" fill-opacity=".2" d="M25.9 19.96a4.2 4.2 0 0 1-5.94 5.94L6.1 12.04a4.2 4.2 0 0 1 5.94-5.94z"/><path fill="#000" d="M19.96 6.1a4.2 4.2 0 0 1 5.94 5.94L12.04 25.9a4.2 4.2 0 1 1-5.94-5.94z"/><path fill="#fff" fill-opacity=".3" d="M19.96 6.1a4.2 4.2 0 0 1 5.94 5.94L12.04 25.9a4.2 4.2 0 1 1-5.94-5.94z"/><path fill="#fff" fill-rule="evenodd" d="M16 6.2a.56.56 0 0 0-.56.56v7.347c0 .17 0 .255-.034.294a.14.14 0 0 1-.117.049c-.051-.004-.111-.064-.231-.184L9.862 9.07a.56.56 0 0 0-.792.792l5.196 5.195c.12.12.18.18.184.231a.14.14 0 0 1-.05.118c-.038.033-.123.033-.293.033H6.76a.56.56 0 1 0 0 1.12h7.347c.17 0 .255 0 .294.034a.14.14 0 0 1 .049.117c-.005.052-.064.112-.184.232L9.07 22.138a.56.56 0 1 0 .792.792l5.196-5.195c.12-.12.18-.18.231-.184a.14.14 0 0 1 .117.048c.034.04.034.124.034.294v7.347a.56.56 0 1 0 1.12 0v-7.347c0-.17 0-.255.034-.294a.14.14 0 0 1 .117-.048c.051.004.111.064.231.184l5.196 5.195a.56.56 0 0 0 .792-.792l-5.196-5.195c-.12-.12-.18-.18-.184-.232a.14.14 0 0 1 .049-.117c.04-.034.124-.034.294-.034h7.347a.56.56 0 0 0 0-1.12h-7.347c-.17 0-.255 0-.294-.033a.14.14 0 0 1-.049-.118c.004-.051.064-.111.184-.231l5.196-5.195a.56.56 0 1 0-.792-.792l-5.196 5.195c-.12.12-.18.18-.231.184a.14.14 0 0 1-.117-.049c-.034-.04-.034-.124-.034-.293V6.76A.56.56 0 0 0 16 6.2" clip-rule="evenodd"/></svg>