<svg xmlns="http://www.w3.org/2000/svg" width="32" height="32" fill="none" viewBox="0 0 32 32"><path fill="#000" fill-rule="evenodd" d="m13.5 6.763-1.261 3.408a3.5 3.5 0 0 1-2.068 2.068L6.763 13.5l3.408 1.261a3.5 3.5 0 0 1 2.068 2.068l1.261 3.408 1.261-3.408a3.5 3.5 0 0 1 2.068-2.068l3.408-1.261-3.408-1.261a3.5 3.5 0 0 1-2.068-2.068zm1.407-1.961c-.483-1.306-2.33-1.306-2.814 0l-1.73 4.675a1.5 1.5 0 0 1-.886.886l-4.675 1.73c-1.306.483-1.306 2.33 0 2.814l4.675 1.73a1.5 1.5 0 0 1 .886.886l1.73 4.675c.483 1.306 2.33 1.306 2.814 0l1.73-4.675a1.5 1.5 0 0 1 .886-.886l4.675-1.73c1.306-.483 1.306-2.33 0-2.814l-4.675-1.73a1.5 1.5 0 0 1-.886-.886zM23.5 20.322l-.46 1.242a2.5 2.5 0 0 1-1.476 1.477l-1.242.459 1.242.46a2.5 2.5 0 0 1 1.477 1.476l.459 1.242.46-1.242a2.5 2.5 0 0 1 1.476-1.477l1.241-.459-1.24-.46a2.5 2.5 0 0 1-1.478-1.476zm.938-1.787c-.322-.871-1.554-.871-1.876 0l-.928 2.508a1 1 0 0 1-.591.59l-2.509.93c-.87.321-.87 1.553 0 1.875l2.509.928a1 1 0 0 1 .59.59l.929 2.51c.322.87 1.553.87 1.876 0l.928-2.51a1 1 0 0 1 .59-.59l2.51-.928c.87-.322.87-1.554 0-1.876l-2.51-.928a1 1 0 0 1-.59-.59z" clip-rule="evenodd"/></svg>