<svg xmlns="http://www.w3.org/2000/svg" width="32" height="32" fill="none" viewBox="0 0 32 32"><path fill="#000" fill-rule="evenodd" d="M14 9.5v3.3a1.2 1.2 0 0 1-1.2 1.2H9.5A4.5 4.5 0 1 1 14 9.5m-10 0a5.5 5.5 0 1 1 11 0v3.3a2.2 2.2 0 0 1-2.2 2.2H9.5A5.5 5.5 0 0 1 4 9.5M9.5 18h3.3a1.2 1.2 0 0 1 1.2 1.2v3.3A4.5 4.5 0 1 1 9.5 18M4 22.5A5.5 5.5 0 0 1 9.5 17h3.3a2.2 2.2 0 0 1 2.2 2.2v3.3a5.5 5.5 0 1 1-11 0M19.2 14h3.3A4.5 4.5 0 1 0 18 9.5v3.3a1.2 1.2 0 0 0 1.2 1.2m3.3-10A5.5 5.5 0 0 0 17 9.5v3.3a2.2 2.2 0 0 0 2.2 2.2h3.3a5.5 5.5 0 1 0 0-11m-3.3 14h3.3a4.5 4.5 0 1 1-4.5 4.5v-3.3a1.2 1.2 0 0 1 1.2-1.2M17 19.2a2.2 2.2 0 0 1 2.2-2.2h3.3a5.5 5.5 0 1 1-5.5 5.5z" clip-rule="evenodd"/></svg>