<svg xmlns="http://www.w3.org/2000/svg" width="32" height="32" fill="none" viewBox="0 0 32 32"><path fill="#000" fill-rule="evenodd" d="M19.5 5a.5.5 0 0 1 .5-.5h4A3.5 3.5 0 0 1 27.5 8v4a.5.5 0 0 1-1 0V8A2.5 2.5 0 0 0 24 5.5h-4a.5.5 0 0 1-.5-.5m-2.44 6.646 3.365 3.364a1.5 1.5 0 0 1 0 2.122l-3.364 3.364a1.5 1.5 0 0 1-2.122 0l-3.364-3.364a1.5 1.5 0 0 1 0-2.122l3.364-3.364a1.5 1.5 0 0 1 2.122 0m-.706.707a.5.5 0 0 0-.708 0l-3.363 3.364a.5.5 0 0 0 0 .707l3.363 3.364a.5.5 0 0 0 .708 0l3.364-3.364a.5.5 0 0 0 0-.707zM12 27.5a.5.5 0 0 0 0-1H8A2.5 2.5 0 0 1 5.5 24v-4a.5.5 0 0 0-1 0v4A3.5 3.5 0 0 0 8 27.5zm-7-15a.5.5 0 0 1-.5-.5V8A3.5 3.5 0 0 1 8 4.5h4a.5.5 0 0 1 0 1H8A2.5 2.5 0 0 0 5.5 8v4a.5.5 0 0 1-.5.5M27.5 20a.5.5 0 0 0-1 0v4a2.5 2.5 0 0 1-2.5 2.5h-4a.5.5 0 0 0 0 1h4a3.5 3.5 0 0 0 3.5-3.5z" clip-rule="evenodd"/></svg>