<svg xmlns="http://www.w3.org/2000/svg" width="32" height="32" fill="none" viewBox="0 0 32 32"><path fill="#000" d="M26 2.5H8A2.5 2.5 0 0 0 5.5 5v2.5H4a1.5 1.5 0 0 0 0 3h1.5v4H4a1.5 1.5 0 1 0 0 3h1.5v4H4a1.5 1.5 0 1 0 0 3h1.5V27A2.5 2.5 0 0 0 8 29.5h18a2.5 2.5 0 0 0 2.5-2.5V5A2.5 2.5 0 0 0 26 2.5m-.5 24h-17v-21h17zm-12.9-5.079a6 6 0 0 1 8.8 0 1.5 1.5 0 1 0 2.2-2.04 9 9 0 0 0-2.401-1.835 5.5 5.5 0 1 0-8.399 0 9 9 0 0 0-2.4 1.835 1.5 1.5 0 1 0 2.2 2.04M14.5 14a2.5 2.5 0 1 1 5 0 2.5 2.5 0 0 1-5 0"/></svg>