<svg xmlns="http://www.w3.org/2000/svg" width="32" height="32" fill="none" viewBox="0 0 32 32"><path fill="#000" d="M31.5 27a1.5 1.5 0 0 1-1.5 1.5H12a1.5 1.5 0 1 1 0-3h18a1.5 1.5 0 0 1 1.5 1.5m-3.905-3.056L5.518 17.76A5.516 5.516 0 0 1 1.5 12.465V6a2.5 2.5 0 0 1 3.29-2.375l.685.229a1.5 1.5 0 0 1 .936.912L7.65 8.2l2.85.812V6a2.5 2.5 0 0 1 3.29-2.375l.685.229a1.5 1.5 0 0 1 .909.842l2.718 6.482 7.375 2.06A5.515 5.515 0 0 1 29.5 18.54v3.96a1.5 1.5 0 0 1-1.905 1.444M26.5 18.54a2.506 2.506 0 0 0-1.831-2.409l-8.073-2.256a1.5 1.5 0 0 1-.98-.864L13.5 7.964V11a1.5 1.5 0 0 1-1.911 1.441l-5.5-1.566a1.5 1.5 0 0 1-1-.933L4.5 8.31v4.155a2.51 2.51 0 0 0 1.826 2.41L26.5 20.523z"/></svg>