<svg xmlns="http://www.w3.org/2000/svg" width="32" height="32" fill="none" viewBox="0 0 32 32"><path fill="#000" d="M22.5 27a1.5 1.5 0 0 1-1.5 1.5H3a1.5 1.5 0 1 1 0-3h18a1.5 1.5 0 0 1 1.5 1.5m8.974-15.765a1.5 1.5 0 0 1-.705 1.013L12.344 23.25l-.016.009a5.47 5.47 0 0 1-6.526-.743l-.023-.022-4.5-4.407A2.5 2.5 0 0 1 1.972 14l.368-.18a1.5 1.5 0 0 1 1.14-.074l3.312 1.118 1.77-1.07-2.26-2.197a2.5 2.5 0 0 1 .713-4.13l.06-.026.894-.337a1.5 1.5 0 0 1 1.05 0L15.536 9.5l6.242-3.725a5.475 5.475 0 0 1 7.075 1.278l2.33 2.984a1.5 1.5 0 0 1 .29 1.198m-3.701-.692L26.5 8.91a2.486 2.486 0 0 0-3.192-.56L16.46 12.44a1.5 1.5 0 0 1-1.287.125l-5.75-2.118 2.625 2.55a1.5 1.5 0 0 1-.269 2.359l-4.03 2.431a1.5 1.5 0 0 1-1.25.138l-1.669-.563 3.039 2.975a2.49 2.49 0 0 0 2.95.332z"/></svg>