<svg xmlns="http://www.w3.org/2000/svg" width="32" height="32" fill="none" viewBox="0 0 32 32"><path fill="#000" d="M28.5 27a1.5 1.5 0 0 1-1.5 1.5H9a1.5 1.5 0 1 1 0-3h18a1.5 1.5 0 0 1 1.5 1.5m3-10v3a1.5 1.5 0 0 1-1.5 1.5H7.634a5.465 5.465 0 0 1-5.268-3.92L.608 11.719A2.5 2.5 0 0 1 3 8.5h1a1.5 1.5 0 0 1 1.06.439L7.625 11.5h1.909l-.909-2.71A2.5 2.5 0 0 1 11 5.5h1a1.5 1.5 0 0 1 1.06.439l5.565 5.561H26a5.506 5.506 0 0 1 5.5 5.5m-3 0a2.5 2.5 0 0 0-2.5-2.5h-8a1.5 1.5 0 0 1-1.06-.439l-5.086-5.087 1.184 3.552a1.498 1.498 0 0 1-1.424 1.974H7a1.5 1.5 0 0 1-1.061-.439L3.8 11.92l1.439 4.799A2.49 2.49 0 0 0 7.634 18.5H28.5z"/></svg>