<svg xmlns="http://www.w3.org/2000/svg" width="32" height="32" fill="none" viewBox="0 0 32 32"><path fill="#000" d="M27 16.5a1.5 1.5 0 0 0-1.5 1.5 4.5 4.5 0 0 1-4.5 4.5 6.46 6.46 0 0 0-3.5 1.027V16.5H21a1.5 1.5 0 1 0 0-3h-3.5v-2.258a4.5 4.5 0 1 0-3 0V13.5H11a1.5 1.5 0 0 0 0 3h3.5v7.028A6.46 6.46 0 0 0 11 22.5 4.5 4.5 0 0 1 6.5 18a1.5 1.5 0 0 0-3 0 7.51 7.51 0 0 0 7.5 7.5 3.5 3.5 0 0 1 3.5 3.5 1.5 1.5 0 1 0 3 0 3.5 3.5 0 0 1 3.5-3.5 7.51 7.51 0 0 0 7.5-7.5 1.5 1.5 0 0 0-1.5-1.5m-11-11a1.5 1.5 0 1 1 0 3 1.5 1.5 0 0 1 0-3"/></svg>