<svg xmlns="http://www.w3.org/2000/svg" width="32" height="32" fill="none" viewBox="0 0 32 32"><path fill="#000" d="M30.5 20a1.5 1.5 0 0 1-1.5 1.5h-3.916l2.207 3.736a1.503 1.503 0 0 1-.519 2.07 1.5 1.5 0 0 1-2.063-.544L17.613 14.75a1.5 1.5 0 0 1 2.582-1.525L23.31 18.5H29a1.5 1.5 0 0 1 1.5 1.5m-13.856-1.5h-4.47L20.29 4.764a1.5 1.5 0 0 0-.519-2.07 1.5 1.5 0 0 0-2.063.543L16 6.125l-1.709-2.888a1.5 1.5 0 1 0-2.582 1.527l2.549 4.313L8.69 18.5H3a1.5 1.5 0 1 0 0 3h13.644a1.5 1.5 0 0 0 0-3m-9.29 5.209a1.5 1.5 0 0 0-2.054.527l-.591 1a1.5 1.5 0 1 0 2.582 1.526l.591-1a1.5 1.5 0 0 0-.528-2.053"/></svg>