<svg xmlns="http://www.w3.org/2000/svg" width="32" height="32" fill="none" viewBox="0 0 32 32"><path fill="#000" d="M20.17 16.25a5 5 0 1 0-8.34 0 3.54 3.54 0 0 0-1.243 1.965 3.5 3.5 0 0 0 0 1.558l1.594 7a3.484 3.484 0 0 0 3.415 2.727h.808a3.484 3.484 0 0 0 3.415-2.724l1.594-7a3.48 3.48 0 0 0-.678-2.959q-.25-.316-.565-.567M16 11.5a2 2 0 1 1 0 4 2 2 0 0 1 0-4m2.486 7.61-1.592 7a.5.5 0 0 1-.49.39h-.808a.5.5 0 0 1-.49-.39l-1.592-7a.49.49 0 0 1 .096-.421.5.5 0 0 1 .39-.189h4a.5.5 0 0 1 .489.389.5.5 0 0 1-.003.221M29.5 16a13.4 13.4 0 0 1-3.971 9.563 1.5 1.5 0 0 1-2.118-2.125 10.5 10.5 0 1 0-14.822 0 1.5 1.5 0 1 1-2.118 2.125A13.5 13.5 0 1 1 29.5 16"/></svg>