<svg xmlns="http://www.w3.org/2000/svg" width="32" height="32" fill="none" viewBox="0 0 32 32"><path fill="#000" d="M28.375 21a1.5 1.5 0 0 0-.526-.636c-1.943-1.337-2.35-3.654-2.35-5.364 0-2.021 1.586-3.825 2.532-4.72a1.5 1.5 0 0 0 0-2.179C26.361 6.521 23.601 5.5 21 5.5a9.54 9.54 0 0 0-5 1.421A9.45 9.45 0 0 0 4.302 8.296 9.83 9.83 0 0 0 1.5 15.44 16.38 16.38 0 0 0 6.679 27a5.48 5.48 0 0 0 3.77 1.5h10.962a5.48 5.48 0 0 0 4.006-1.731 16 16 0 0 0 2.3-3.174c.197-.36.375-.714.518-1.051.199-.46.405-.935.14-1.544m-5.154 3.727a2.47 2.47 0 0 1-1.81.773H10.45a2.48 2.48 0 0 1-1.713-.677A13.4 13.4 0 0 1 4.5 15.36a6.81 6.81 0 0 1 1.937-4.95A6.36 6.36 0 0 1 11 8.5h.09a6.44 6.44 0 0 1 3.97 1.425 1.5 1.5 0 0 0 1.875 0A6.43 6.43 0 0 1 21 8.5c1.3.015 2.578.332 3.735.925C23.282 11.207 22.5 13.141 22.5 15c0 2.916.934 5.361 2.656 7.024a13 13 0 0 1-1.936 2.702zM16.094 1.625A5.5 5.5 0 0 1 17.77.189a1.5 1.5 0 1 1 1.455 2.625 2.5 2.5 0 0 0-.764.655 1.5 1.5 0 1 1-2.368-1.844"/></svg>