<svg xmlns="http://www.w3.org/2000/svg" width="32" height="32" fill="none" viewBox="0 0 32 32"><path fill="#000" d="M26 3.5H6A2.5 2.5 0 0 0 3.5 6v20A2.5 2.5 0 0 0 6 28.5h20a2.5 2.5 0 0 0 2.5-2.5V6A2.5 2.5 0 0 0 26 3.5m-.5 3v12h-3.086a2.48 2.48 0 0 0-1.768.733L18.375 21.5h-4.75l-2.271-2.267a2.49 2.49 0 0 0-1.768-.733H6.5v-12zm-19 19v-4h2.875l2.268 2.267a2.48 2.48 0 0 0 1.77.733h5.173a2.48 2.48 0 0 0 1.768-.733l2.271-2.267H25.5v4zm4.439-9.939a1.502 1.502 0 1 1 2.125-2.125l1.436 1.439V9.5a1.5 1.5 0 1 1 3 0v5.375l1.439-1.44a1.503 1.503 0 0 1 2.125 2.125l-4 4a1.5 1.5 0 0 1-2.125 0z"/></svg>