<svg xmlns="http://www.w3.org/2000/svg" width="32" height="32" fill="none" viewBox="0 0 32 32"><path fill="#000" d="m28.341 8.329-2-4A1.5 1.5 0 0 0 25 3.5H7a1.5 1.5 0 0 0-1.341.829l-2 4A1.5 1.5 0 0 0 3.5 9v17A2.5 2.5 0 0 0 6 28.5h20a2.5 2.5 0 0 0 2.5-2.5V9a1.5 1.5 0 0 0-.159-.671M24.073 6.5l.75 1.5H7.177l.75-1.5zM6.5 25.5V11h19v14.5zm14.561-8.061a1.503 1.503 0 0 1 0 2.125l-4 4a1.5 1.5 0 0 1-2.125 0l-4-4a1.503 1.503 0 0 1 2.125-2.125l1.439 1.436V14a1.5 1.5 0 1 1 3 0v4.875l1.439-1.44a1.5 1.5 0 0 1 2.122.004"/></svg>