<svg xmlns="http://www.w3.org/2000/svg" width="33" height="32" fill="none" viewBox="0 0 33 32"><path fill="#000" d="M27.509 9.816V9a5.506 5.506 0 0 0-5.5-5.5h-12a5.506 5.506 0 0 0-5.5 5.5v.816a6.5 6.5 0 0 0 0 12.375V25a2.5 2.5 0 0 0 2.5 2.5h18a2.5 2.5 0 0 0 2.5-2.5v-2.811a6.499 6.499 0 0 0 0-12.375zM10.009 6.5h12a2.5 2.5 0 0 1 2.5 2.5v.578A6.51 6.51 0 0 0 19.03 15.5h-6.042a6.51 6.51 0 0 0-5.48-5.922V9a2.5 2.5 0 0 1 2.5-2.5M25.86 19.483a1.5 1.5 0 0 0-1.351 1.492V24.5h-17v-3.525a1.5 1.5 0 0 0-1.351-1.492A3.5 3.5 0 1 1 10.008 16v4.5a1.5 1.5 0 1 0 3 0v-2h6v2a1.5 1.5 0 1 0 3 0V16a3.5 3.5 0 1 1 3.852 3.483"/></svg>