<svg xmlns="http://www.w3.org/2000/svg" width="32" height="32" fill="none" viewBox="0 0 32 32"><path fill="#000" d="m29.061 24.061-4 4a1.5 1.5 0 0 1-2.125 0l-4-4a1.503 1.503 0 0 1 2.125-2.125l1.439 1.439v-5.75l-6.5-6.5-6.5 6.5v5.75l1.439-1.44a1.503 1.503 0 0 1 2.125 2.125l-4 4a1.5 1.5 0 0 1-2.125 0l-4-4a1.503 1.503 0 0 1 2.125-2.125l1.436 1.44V17a1.5 1.5 0 0 1 .439-1.061l7.56-7.564V3a1.5 1.5 0 1 1 3 0v5.375l7.562 7.56A1.5 1.5 0 0 1 25.5 17v6.375l1.439-1.44a1.504 1.504 0 0 1 2.125 2.125z"/></svg>