<svg xmlns="http://www.w3.org/2000/svg" width="32" height="32" fill="none" viewBox="0 0 32 32"><path fill="#000" d="M11 13.5H5A1.5 1.5 0 0 1 3.5 12V6a1.5 1.5 0 0 1 3 0v1.733C8.581 5.683 11.786 3.5 16 3.5c5.558 0 8.92 3.299 9.061 3.439a1.5 1.5 0 0 1-2.117 2.125C22.889 9.01 20.25 6.5 16 6.5c-3.625 0-6.367 2.21-8 4h3a1.5 1.5 0 1 1 0 3m16 5h-6a1.5 1.5 0 1 0 0 3h3c-1.625 1.79-4.375 4-8 4-4.25 0-6.889-2.511-6.944-2.565A1.5 1.5 0 0 0 6.94 25.06c.141.141 3.504 3.44 9.061 3.44 4.214 0 7.419-2.183 9.5-4.233V26a1.5 1.5 0 1 0 3 0v-6a1.5 1.5 0 0 0-1.5-1.5"/></svg>