<svg xmlns="http://www.w3.org/2000/svg" width="32" height="32" fill="none" viewBox="0 0 32 32"><path fill="#000" d="M27.5 6v6a1.5 1.5 0 1 1-3 0V9.625l-4.439 4.44a1.503 1.503 0 0 1-2.125-2.125l4.439-4.44H20a1.5 1.5 0 0 1 0-3h6A1.5 1.5 0 0 1 27.5 6M11.939 17.939 7.5 22.375V20a1.5 1.5 0 0 0-3 0v6A1.5 1.5 0 0 0 6 27.5h6a1.5 1.5 0 1 0 0-3H9.625l4.44-4.439a1.503 1.503 0 0 0-2.125-2.125zM26 18.5a1.5 1.5 0 0 0-1.5 1.5v2.375l-4.439-4.44a1.503 1.503 0 0 0-2.125 2.125l4.439 4.44H20a1.5 1.5 0 1 0 0 3h6a1.5 1.5 0 0 0 1.5-1.5v-6a1.5 1.5 0 0 0-1.5-1.5M9.625 7.5H12a1.5 1.5 0 0 0 0-3H6A1.5 1.5 0 0 0 4.5 6v6a1.5 1.5 0 0 0 3 0V9.625l4.439 4.44a1.502 1.502 0 1 0 2.125-2.125z"/></svg>