<svg xmlns="http://www.w3.org/2000/svg" width="32" height="32" fill="none" viewBox="0 0 32 32"><path fill="#000" d="M29.386 16.426A1.5 1.5 0 0 0 28 15.5h-4.5V15a1.5 1.5 0 0 0-1.5-1.5H10A1.5 1.5 0 0 0 8.5 15v.5H4a1.5 1.5 0 0 0-1.061 2.561l12 12a1.503 1.503 0 0 0 2.125 0l12-12a1.5 1.5 0 0 0 .322-1.635M16 26.875 7.625 18.5H10a1.5 1.5 0 0 0 1.5-1.5v-.5h9v.5a1.5 1.5 0 0 0 1.5 1.5h2.375zM8.5 5A1.5 1.5 0 0 1 10 3.5h12a1.5 1.5 0 0 1 0 3H10A1.5 1.5 0 0 1 8.5 5m0 5A1.5 1.5 0 0 1 10 8.5h12a1.5 1.5 0 0 1 0 3H10A1.5 1.5 0 0 1 8.5 10"/></svg>