<svg xmlns="http://www.w3.org/2000/svg" width="32" height="32" fill="none" viewBox="0 0 32 32"><path fill="#000" d="M10.939 8.061a1.5 1.5 0 0 1 0-2.125l4-4a1.5 1.5 0 0 1 2.125 0l4 4a1.503 1.503 0 1 1-2.125 2.125L17.5 6.625V12a1.5 1.5 0 0 1-3 0V6.625l-1.439 1.436a1.5 1.5 0 0 1-2.122 0m8 15.875L17.5 25.375V20a1.5 1.5 0 0 0-3 0v5.375l-1.439-1.44a1.503 1.503 0 0 0-2.125 2.125l4 4a1.5 1.5 0 0 0 2.125 0l4-4a1.502 1.502 0 1 0-2.125-2.125zm11.125-9-4-4a1.503 1.503 0 0 0-2.125 2.125l1.436 1.439H20a1.5 1.5 0 0 0 0 3h5.375l-1.44 1.439a1.503 1.503 0 0 0 2.125 2.125l4-4a1.5 1.5 0 0 0 .001-2.125zM6.625 17.5H12a1.5 1.5 0 1 0 0-3H6.625l1.44-1.439a1.503 1.503 0 0 0-2.125-2.125l-4 4a1.5 1.5 0 0 0 0 2.125l4 4a1.503 1.503 0 0 0 2.125-2.125z"/></svg>