<svg xmlns="http://www.w3.org/2000/svg" width="32" height="32" fill="none" viewBox="0 0 32 32"><path fill="#000" d="M17.5 13V8a1.5 1.5 0 0 1 3 0v1.375l4.439-4.44a1.503 1.503 0 0 1 2.125 2.125l-4.44 4.44H24a1.5 1.5 0 1 1 0 3h-5a1.5 1.5 0 0 1-1.5-1.5M13 17.5H8a1.5 1.5 0 1 0 0 3h1.375l-4.436 4.439a1.503 1.503 0 1 0 2.125 2.125l4.436-4.439V24a1.5 1.5 0 0 0 3 0v-5a1.5 1.5 0 0 0-1.5-1.5m9.625 3H24a1.5 1.5 0 0 0 0-3h-5a1.5 1.5 0 0 0-1.5 1.5v5a1.5 1.5 0 0 0 3 0v-1.375l4.439 4.44a1.503 1.503 0 0 0 2.125-2.125zM13 6.5A1.5 1.5 0 0 0 11.5 8v1.375L7.06 4.939a1.503 1.503 0 0 0-2.125 2.125L9.375 11.5H8a1.5 1.5 0 1 0 0 3h5a1.5 1.5 0 0 0 1.5-1.5V8A1.5 1.5 0 0 0 13 6.5"/></svg>