<svg xmlns="http://www.w3.org/2000/svg" width="32" height="32" fill="none" viewBox="0 0 32 32"><path fill="#000" d="M28.5 16a1.5 1.5 0 0 1-1.5 1.5H5a1.5 1.5 0 1 1 0-3h22a1.5 1.5 0 0 1 1.5 1.5m-13.561-3.939a1.5 1.5 0 0 0 2.125 0l4-4a1.503 1.503 0 1 0-2.125-2.125L17.5 7.375V2a1.5 1.5 0 1 0-3 0v5.375l-1.439-1.436a1.502 1.502 0 1 0-2.125 2.125zm2.125 7.875a1.5 1.5 0 0 0-2.125 0l-4 4a1.502 1.502 0 1 0 2.125 2.125l1.436-1.436V30a1.5 1.5 0 1 0 3 0v-5.375l1.439 1.44a1.503 1.503 0 0 0 2.125-2.125z"/></svg>