<svg xmlns="http://www.w3.org/2000/svg" width="32" height="32" fill="none" viewBox="0 0 32 32"><path fill="#000" d="M10.939 9.061a1.503 1.503 0 1 1 2.125-2.125L14.5 8.375V3a1.5 1.5 0 1 1 3 0v5.375l1.439-1.44a1.503 1.503 0 0 1 2.125 2.125l-4 4a1.5 1.5 0 0 1-2.125 0zm6.125 9.875a1.5 1.5 0 0 0-2.125 0l-4 4A1.5 1.5 0 0 0 12 25.501c.399 0 .781-.158 1.063-.44l1.436-1.436V29a1.5 1.5 0 1 0 3 0v-5.375l1.439 1.44a1.503 1.503 0 0 0 2.125-2.125zM29 14.5h-5.375l1.44-1.439a1.502 1.502 0 1 0-2.125-2.125l-4 4a1.5 1.5 0 0 0 0 2.125l4 4a1.503 1.503 0 0 0 2.125-2.125l-1.44-1.436H29a1.5 1.5 0 1 0 0-3m-15.939.439-4-4a1.503 1.503 0 1 0-2.125 2.125L8.375 14.5H3a1.5 1.5 0 1 0 0 3h5.375l-1.436 1.439a1.503 1.503 0 0 0 2.125 2.125l4-4a1.5 1.5 0 0 0-.003-2.125"/></svg>