<svg xmlns="http://www.w3.org/2000/svg" width="32" height="32" fill="none" viewBox="0 0 32 32"><path fill="#000" d="M19 15.5a1.5 1.5 0 0 1 1.5-1.5H30a1.5 1.5 0 1 1 0 3h-9.5a1.5 1.5 0 0 1-1.5-1.5M30 19h-9.5a1.5 1.5 0 1 0 0 3H30a1.5 1.5 0 1 0 0-3m0 5H9a1.5 1.5 0 1 0 0 3h21a1.5 1.5 0 1 0 0-3m-20-1.5A7.51 7.51 0 0 1 2.5 15c0-.834.14-1.662.415-2.449A4 4 0 0 1 5.5 5.5a1.5 1.5 0 0 1 .729.189l8.575 4.764A1 1 0 0 0 14.5 8.5a1.5 1.5 0 0 1 0-3 4 4 0 1 1 0 8 1.5 1.5 0 0 1-.729-.189L8.94 10.625a4.5 4.5 0 0 0-.439 8.618V15.5a1.5 1.5 0 0 1 3 0v3.739a4.5 4.5 0 0 0 2.75-2.739 1.499 1.499 0 0 1 2.912.42 1.5 1.5 0 0 1-.083.58 7.51 7.51 0 0 1-7.079 5M4.561 9.845a7.5 7.5 0 0 1 1.166-1l-.53-.295a1 1 0 0 0-.636 1.295"/></svg>