<svg xmlns="http://www.w3.org/2000/svg" width="32" height="32" fill="none" viewBox="0 0 32 32"><path fill="#000" d="M7.5 16.5A1.5 1.5 0 0 1 6 18H3a1.5 1.5 0 1 1 0-3h.5V8H3a1.5 1.5 0 1 1 0-3h2a1.5 1.5 0 0 1 1.273.704L10 11.67l3.727-5.965A1.5 1.5 0 0 1 15 5h2a1.5 1.5 0 0 1 0 3h-.5v7h.5a1.5 1.5 0 1 1 0 3h-3a1.5 1.5 0 0 1-.5-2.912V11.73l-2.227 3.565a1.5 1.5 0 0 1-2.546 0L6.5 11.73v3.358a1.5 1.5 0 0 1 1 1.412M22 13h8a1.5 1.5 0 1 0 0-3h-8a1.5 1.5 0 1 0 0 3m8 2h-8a1.5 1.5 0 1 0 0 3h8a1.5 1.5 0 1 0 0-3m0 5H9a1.5 1.5 0 1 0 0 3h21a1.5 1.5 0 1 0 0-3m0 5H9a1.5 1.5 0 1 0 0 3h21a1.5 1.5 0 1 0 0-3"/></svg>