<svg xmlns="http://www.w3.org/2000/svg" width="32" height="32" fill="none" viewBox="0 0 32 32"><path fill="#000" d="M16 2.5a13.5 13.5 0 0 0 0 27c2.784 0 5.711-.841 7.83-2.25a1.5 1.5 0 0 0-1.661-2.5C20.544 25.829 18.183 26.5 16 26.5A10.5 10.5 0 1 1 26.5 16c0 1.161-.209 2.135-.586 2.744-.33.53-.75.756-1.414.756s-1.084-.226-1.414-.756c-.375-.609-.586-1.583-.586-2.744v-5a1.5 1.5 0 0 0-2.936-.432 6.5 6.5 0 1 0 1.107 9.946c.867 1.274 2.18 1.986 3.829 1.986 3.084 0 5-2.49 5-6.5A13.515 13.515 0 0 0 16 2.5m0 17a3.5 3.5 0 1 1 0-7 3.5 3.5 0 0 1 0 7"/></svg>