<svg xmlns="http://www.w3.org/2000/svg" width="32" height="32" fill="none" viewBox="0 0 32 32"><path fill="#000" d="M27.404 19.9a24.6 24.6 0 0 0-2.25-3.9 24.6 24.6 0 0 0 2.25-3.9c1.48-3.289 1.46-5.935-.054-7.45s-4.161-1.534-7.45-.054a24.6 24.6 0 0 0-3.9 2.25 24.6 24.6 0 0 0-3.9-2.25c-3.289-1.48-5.935-1.461-7.45.054s-1.534 4.161-.054 7.45a24.6 24.6 0 0 0 2.25 3.9 24.6 24.6 0 0 0-2.25 3.9c-1.48 3.289-1.461 5.935.054 7.45.766.766 1.822 1.15 3.1 1.15 1.25 0 2.721-.365 4.345-1.096a24.6 24.6 0 0 0 3.9-2.25 24.6 24.6 0 0 0 3.9 2.25c1.625.731 3.092 1.096 4.345 1.096 1.282 0 2.339-.384 3.105-1.15 1.52-1.515 1.539-4.161.059-7.45M25.227 6.775c.657.658.224 3.25-2 6.723a39 39 0 0 0-2.258-2.46 38 38 0 0 0-2.47-2.26c3.478-2.23 6.07-2.662 6.728-2.005zM21.405 16q-1.207 1.489-2.564 2.841c-.9.904-1.85 1.76-2.841 2.564a36 36 0 0 1-2.841-2.564A36 36 0 0 1 10.595 16 37.3 37.3 0 0 1 16 10.595q1.489 1.206 2.841 2.564Q20.2 14.51 21.405 16M6.772 6.773c.183-.182.513-.28.97-.28 1.19 0 3.242.673 5.75 2.285a39 39 0 0 0-2.46 2.258A38 38 0 0 0 8.777 13.5c-2.228-3.477-2.66-6.07-2.005-6.727m0 18.455c-.656-.658-.223-3.25 2-6.723a39 39 0 0 0 4.718 4.718c-3.468 2.228-6.06 2.66-6.718 2.005m18.455 0c-.657.656-3.25.223-6.722-2a39 39 0 0 0 4.717-4.718c2.23 3.467 2.662 6.06 2.005 6.717M18 16a2 2 0 1 1-4.001 0 2 2 0 0 1 4 0"/></svg>