<svg xmlns="http://www.w3.org/2000/svg" width="32" height="32" fill="none" viewBox="0 0 32 32"><path fill="#000" d="M11.5 18a2 2 0 1 1 0-4 2 2 0 0 1 0 4m9-4a2 2 0 1 0 0 4 2 2 0 0 0 0-4m-1.8 6.231a5.13 5.13 0 0 1-5.4 0 1.5 1.5 0 1 0-1.6 2.538 8.13 8.13 0 0 0 8.6 0 1.499 1.499 0 1 0-1.6-2.538M29.5 16A13.5 13.5 0 1 1 16 2.5 13.515 13.515 0 0 1 29.5 16m-3 0a10.51 10.51 0 0 0-9.76-10.471c-1.164 1.761-1.236 3.375-1.24 3.479a.5.5 0 1 0 1-.008 1.5 1.5 0 1 1 3 0 3.5 3.5 0 1 1-7 0c0-.081.012-1.399.69-3.115A10.5 10.5 0 1 0 26.5 16"/></svg>