<svg xmlns="http://www.w3.org/2000/svg" width="32" height="32" fill="none" viewBox="0 0 32 32"><path fill="#000" d="M27 4.5H8.566a2.51 2.51 0 0 0-2.144 1.214L.714 15.229a1.5 1.5 0 0 0 0 1.542l5.708 9.515A2.51 2.51 0 0 0 8.566 27.5H27a2.5 2.5 0 0 0 2.5-2.5V7A2.5 2.5 0 0 0 27 4.5m-.5 20H8.85L3.75 16l5.1-8.5H26.5zm-13.561-6.561L14.875 16l-1.94-1.939a1.502 1.502 0 1 1 2.125-2.125L17 13.875l1.939-1.94a1.503 1.503 0 0 1 2.125 2.125L19.125 16l1.94 1.939a1.503 1.503 0 0 1-2.125 2.125L17 18.125l-1.939 1.94a1.503 1.503 0 0 1-2.125-2.125z"/></svg>