<svg xmlns="http://www.w3.org/2000/svg" width="32" height="32" fill="none" viewBox="0 0 32 32"><path fill="#000" d="M21.5 6.069V4.5A3.5 3.5 0 0 0 18 1h-4a3.5 3.5 0 0 0-3.5 3.5v1.569A7.51 7.51 0 0 0 4 13.5v14A2.5 2.5 0 0 0 6.5 30h19a2.5 2.5 0 0 0 2.5-2.5v-14a7.51 7.51 0 0 0-6.5-7.431M14 4h4a.5.5 0 0 1 .5.5V6h-5V4.5A.5.5 0 0 1 14 4m6 16h-8v-1a.5.5 0 0 1 .5-.5h7a.5.5 0 0 1 .5.5zm-8 3h4v.5a1.5 1.5 0 1 0 3 0V23h1v4h-8zm13 4h-2v-8a3.5 3.5 0 0 0-3.5-3.5h-7A3.5 3.5 0 0 0 9 19v8H7V13.5A4.5 4.5 0 0 1 11.5 9h9a4.5 4.5 0 0 1 4.5 4.5zm-5-14.5a1.5 1.5 0 0 1-1.5 1.5h-5a1.5 1.5 0 1 1 0-3h5a1.5 1.5 0 0 1 1.5 1.5"/></svg>