<svg xmlns="http://www.w3.org/2000/svg" width="32" height="32" fill="none" viewBox="0 0 32 32"><path fill="#000" d="M30.5 14.5V11A2.5 2.5 0 0 0 28 8.5h-2V8a2.5 2.5 0 0 0-2.5-2.5h-3A2.5 2.5 0 0 0 18 8v6.5h-4V8a2.5 2.5 0 0 0-2.5-2.5h-3A2.5 2.5 0 0 0 6 8v.5H4A2.5 2.5 0 0 0 1.5 11v3.5a1.5 1.5 0 1 0 0 3V21A2.5 2.5 0 0 0 4 23.5h2v.5a2.5 2.5 0 0 0 2.5 2.5h3A2.5 2.5 0 0 0 14 24v-6.5h4V24a2.5 2.5 0 0 0 2.5 2.5h3A2.5 2.5 0 0 0 26 24v-.5h2a2.5 2.5 0 0 0 2.5-2.5v-3.5a1.5 1.5 0 1 0 0-3m-26 6v-9H6v9zm6.5 3H9v-15h2zm12 0h-2v-15h2zm4.5-3H26v-9h1.5z"/></svg>