<svg xmlns="http://www.w3.org/2000/svg" width="32" height="32" fill="none" viewBox="0 0 32 32"><path fill="#000" d="M29 6.5v5a1.5 1.5 0 1 1-3 0V8h-3.5a1.5 1.5 0 0 1 0-3h5A1.5 1.5 0 0 1 29 6.5M9.5 24H6v-3.5a1.5 1.5 0 0 0-3 0v5A1.5 1.5 0 0 0 4.5 27h5a1.5 1.5 0 1 0 0-3m18-5a1.5 1.5 0 0 0-1.5 1.5V24h-3.5a1.5 1.5 0 1 0 0 3h5a1.5 1.5 0 0 0 1.5-1.5v-5a1.5 1.5 0 0 0-1.5-1.5m-23-6A1.5 1.5 0 0 0 6 11.5V8h3.5a1.5 1.5 0 0 0 0-3h-5A1.5 1.5 0 0 0 3 6.5v5A1.5 1.5 0 0 0 4.5 13m6.5-3a1.5 1.5 0 0 0-1.5 1.5v9a1.5 1.5 0 0 0 3 0v-9A1.5 1.5 0 0 0 11 10m11.5 10.5v-9a1.5 1.5 0 1 0-3 0v9a1.5 1.5 0 1 0 3 0M16 10a1.5 1.5 0 0 0-1.5 1.5v9a1.5 1.5 0 1 0 3 0v-9A1.5 1.5 0 0 0 16 10"/></svg>