<svg xmlns="http://www.w3.org/2000/svg" width="32" height="32" fill="none" viewBox="0 0 32 32"><path fill="#000" d="M16 2.5A13.5 13.5 0 1 0 29.5 16 13.515 13.515 0 0 0 16 2.5M9.625 24.333q.59-.754 1.068-1.583a1.5 1.5 0 1 0-2.597-1.5 10 10 0 0 1-.596.909 10.47 10.47 0 0 1 0-12.318q.321.44.596.909a1.5 1.5 0 1 0 2.597-1.5 14 14 0 0 0-1.068-1.582 10.47 10.47 0 0 1 12.758 0q-.594.753-1.075 1.582a1.499 1.499 0 1 0 2.596 1.5 10 10 0 0 1 .596-.909 10.47 10.47 0 0 1 0 12.318 10 10 0 0 1-.593-.91 1.499 1.499 0 1 0-2.596 1.5q.477.829 1.064 1.584a10.47 10.47 0 0 1-12.757 0zM12.4 14.314q.102.84.1 1.685 0 .845-.104 1.685a1.5 1.5 0 0 1-2.977-.37 10.7 10.7 0 0 0 0-2.63 1.5 1.5 0 1 1 2.977-.375zm8.882 4.674a1.5 1.5 0 0 1-1.675-1.304 13.7 13.7 0 0 1 0-3.375 1.5 1.5 0 1 1 2.978.375 10.7 10.7 0 0 0 0 2.625 1.5 1.5 0 0 1-1.306 1.679z"/></svg>