<svg xmlns="http://www.w3.org/2000/svg" width="32" height="32" fill="none" viewBox="0 0 32 32"><path fill="#000" d="M16 2.5A13.515 13.515 0 0 0 2.5 16v7a3.48 3.48 0 0 0 1.908 3.116 3.5 3.5 0 0 0 3.66-.292C9.525 24.764 12.085 23.5 16 23.5s6.475 1.262 7.933 2.323A3.5 3.5 0 0 0 29.5 23v-7A13.515 13.515 0 0 0 16 2.5M26.5 16v.234a21.3 21.3 0 0 0-4.161-1.788 21.35 21.35 0 0 0-2.931-8.375A10.52 10.52 0 0 1 26.5 16m-7.308-2.265a21.8 21.8 0 0 0-6.385 0A18.75 18.75 0 0 1 16 6.368a18.76 18.76 0 0 1 3.192 7.367m-6.6-7.664a21.35 21.35 0 0 0-2.93 8.375A21.3 21.3 0 0 0 5.5 16.234V16a10.52 10.52 0 0 1 7.092-9.929m13.64 17.375a.5.5 0 0 1-.536-.045C23.875 22.076 20.721 20.5 16 20.5s-7.875 1.576-9.696 2.898a.5.5 0 0 1-.535.044A.47.47 0 0 1 5.5 23v-3.233a18.5 18.5 0 0 1 21 0V23a.47.47 0 0 1-.269.442z"/></svg>