<svg xmlns="http://www.w3.org/2000/svg" width="32" height="32" fill="none" viewBox="0 0 32 32"><path fill="#000" d="M16 2.5A13.5 13.5 0 1 0 29.5 16 13.515 13.515 0 0 0 16 2.5M7.5 22.16c-1-1.376-1.65-2.976-1.891-4.66h3.784A10.4 10.4 0 0 1 7.5 22.16M5.609 14.5c.241-1.684.89-3.284 1.891-4.66a10.4 10.4 0 0 1 1.893 4.66zM14.5 26.391a10.45 10.45 0 0 1-4.875-2.057 13.37 13.37 0 0 0 2.793-6.834H14.5zm0-11.891h-2.082a13.37 13.37 0 0 0-2.793-6.834A10.45 10.45 0 0 1 14.5 5.61zm10-4.66a10.45 10.45 0 0 1 1.891 4.66h-3.783c.24-1.685.889-3.285 1.892-4.66m-7 16.551V17.5h2.082a13.37 13.37 0 0 0 2.793 6.834A10.45 10.45 0 0 1 17.5 26.39M19.582 14.5H17.5V5.609c1.775.256 3.453.965 4.875 2.057a13.37 13.37 0 0 0-2.793 6.834m4.918 7.66a10.4 10.4 0 0 1-1.892-4.66h3.783a10.45 10.45 0 0 1-1.891 4.66"/></svg>