<svg xmlns="http://www.w3.org/2000/svg" width="32" height="32" fill="none" viewBox="0 0 32 32"><path fill="#000" d="M17.5 16v5a1.5 1.5 0 1 1-3 0v-5a1.5 1.5 0 1 1 3 0m12.977-3.67-1.727 13a2.51 2.51 0 0 1-2.484 2.17H5.734a2.51 2.51 0 0 1-2.484-2.169l-1.733-13A2.5 2.5 0 0 1 4 9.5h4.319l6.556-7.488a1.5 1.5 0 0 1 2.257 0l6.55 7.488H28a2.5 2.5 0 0 1 2.476 2.83zM12.307 9.5h7.388L16 5.277zm15.124 3H4.571l1.6 12H25.83zm-6.421 3.351-.5 5a1.5 1.5 0 0 0 1.344 1.642c.05 0 .1.007.15.007a1.5 1.5 0 0 0 1.49-1.351l.5-5a1.5 1.5 0 1 0-2.984-.298m-10.015 0a1.5 1.5 0 0 0-2.985.298l.5 5A1.5 1.5 0 0 0 10 22.5q.074.002.15-.008a1.5 1.5 0 0 0 1.344-1.64z"/></svg>