<svg xmlns="http://www.w3.org/2000/svg" width="32" height="32" fill="none" viewBox="0 0 32 32"><path fill="#000" d="M29 11.5h-2.587a1.5 1.5 0 0 0-1.413-1h-8a1.5 1.5 0 0 0-1.412 1H8.5v-5a1 1 0 0 1 1-1 1.06 1.06 0 0 1 1.03.799 1.5 1.5 0 1 0 2.94-.598A4.028 4.028 0 0 0 5.5 6.5v5H3A2.5 2.5 0 0 0 .5 14v4a7.51 7.51 0 0 0 7 7.481V27a1.5 1.5 0 0 0 3 0v-1.5h11V27a1.5 1.5 0 1 0 3 0v-1.519a7.51 7.51 0 0 0 7-7.481v-4a2.5 2.5 0 0 0-2.5-2.5m-10.5 2h5v3h-5zm10 4.5a4.5 4.5 0 0 1-4.5 4.5H8A4.5 4.5 0 0 1 3.5 18v-3.5h12V18a1.5 1.5 0 0 0 1.5 1.5h8a1.5 1.5 0 0 0 1.5-1.5v-3.5h2z"/></svg>