<svg xmlns="http://www.w3.org/2000/svg" width="32" height="32" fill="none" viewBox="0 0 32 32"><path fill="#000" d="M19 16a1.5 1.5 0 0 1-1.5 1.5H16V19a1.5 1.5 0 1 1-3 0v-1.5h-1.5a1.5 1.5 0 1 1 0-3H13V13a1.5 1.5 0 1 1 3 0v1.5h1.5A1.5 1.5 0 0 1 19 16m9-6v12a3.5 3.5 0 0 1-3.5 3.5h-21A3.5 3.5 0 0 1 0 22V10a3.5 3.5 0 0 1 3.5-3.5h21A3.5 3.5 0 0 1 28 10m-3 0a.5.5 0 0 0-.5-.5h-21a.5.5 0 0 0-.5.5v12a.5.5 0 0 0 .5.5h21a.5.5 0 0 0 .5-.5zm5.5 1.5A1.5 1.5 0 0 0 29 13v6a1.5 1.5 0 1 0 3 0v-6a1.5 1.5 0 0 0-1.5-1.5"/></svg>