<svg xmlns="http://www.w3.org/2000/svg" width="32" height="32" fill="none" viewBox="0 0 32 32"><path fill="#000" d="M24.5 6.5h-21A3.5 3.5 0 0 0 0 10v12a3.5 3.5 0 0 0 3.5 3.5h21A3.5 3.5 0 0 0 28 22V10a3.5 3.5 0 0 0-3.5-3.5M25 22a.5.5 0 0 1-.5.5h-21A.5.5 0 0 1 3 22V10a.5.5 0 0 1 .5-.5h21a.5.5 0 0 1 .5.5zm-2-9v6a1.5 1.5 0 1 1-3 0v-6a1.5 1.5 0 1 1 3 0m-5 0v6a1.5 1.5 0 1 1-3 0v-6a1.5 1.5 0 1 1 3 0m-5 0v6a1.5 1.5 0 1 1-3 0v-6a1.5 1.5 0 1 1 3 0m-5 0v6a1.5 1.5 0 0 1-3 0v-6a1.5 1.5 0 0 1 3 0m24 0v6a1.5 1.5 0 1 1-3 0v-6a1.5 1.5 0 1 1 3 0"/></svg>