<svg xmlns="http://www.w3.org/2000/svg" width="32" height="32" fill="none" viewBox="0 0 32 32"><path fill="#000" d="M19.276 16.711a1.5 1.5 0 0 1 .065 1.46l-2 4a1.498 1.498 0 0 1-2.488.327 1.5 1.5 0 0 1-.194-1.67L15.572 19H14a1.5 1.5 0 0 1-1.341-2.171l2-4a1.5 1.5 0 1 1 2.682 1.342L16.427 16H18a1.5 1.5 0 0 1 1.276.711M13 3h6a1.5 1.5 0 0 0 0-3h-6a1.5 1.5 0 0 0 0 3m12.5 4.5v21A3.5 3.5 0 0 1 22 32H10a3.5 3.5 0 0 1-3.5-3.5v-21A3.5 3.5 0 0 1 10 4h12a3.5 3.5 0 0 1 3.5 3.5m-3 0A.5.5 0 0 0 22 7H10a.5.5 0 0 0-.5.5v21a.5.5 0 0 0 .5.5h12a.5.5 0 0 0 .5-.5z"/></svg>