<svg xmlns="http://www.w3.org/2000/svg" width="32" height="32" fill="none" viewBox="0 0 32 32"><path fill="#000" d="m31.061 4.939-4-4a1.5 1.5 0 0 0-2.318 1.875l-6.368 4.782-4.666.933c-.29.058-.558.2-.768.41L2.525 19.354a3.5 3.5 0 0 0 0 4.95l5.171 5.171a3.5 3.5 0 0 0 4.95 0l10.415-10.414c.21-.21.352-.477.41-.767l.933-4.669 4.779-6.375a1.5 1.5 0 0 0 1.875-2.319zM14 23.875 8.125 18 12 14.125 17.875 20zM10.171 27.5a.5.5 0 0 1-.353-.146l-5.172-5.171a.5.5 0 0 1 0-.708L6 20.125 11.875 26l-1.35 1.354a.5.5 0 0 1-.354.146m11.625-15.4a1.5 1.5 0 0 0-.271.606l-.9 4.554-.625.615L14.125 12l.625-.625 4.554-.91a1.5 1.5 0 0 0 .606-.271l6.959-5.22.161.161z"/></svg>