<svg xmlns="http://www.w3.org/2000/svg" width="32" height="32" fill="none" viewBox="0 0 32 32"><path fill="#000" d="M27 10.5h-1.5V9A5.506 5.506 0 0 0 20 3.5h-1.216c-1.563-1.277-3.636-2-5.784-2-4.687 0-8.5 3.365-8.5 7.5v17A2.5 2.5 0 0 0 7 28.5h16a2.5 2.5 0 0 0 2.5-2.5v-.5H27a3.5 3.5 0 0 0 3.5-3.5v-8a3.5 3.5 0 0 0-3.5-3.5m-14-6c1.606 0 3.125.577 4.18 1.584a1.5 1.5 0 0 0 1.038.416H20a2.5 2.5 0 0 1 2.45 2H7.535c.305-2.25 2.639-4 5.465-4m9.5 21h-15v-14h15zm5-3.5a.5.5 0 0 1-.5.5h-1.5v-9H27a.5.5 0 0 1 .5.5zm-14-7v7a1.5 1.5 0 1 1-3 0v-7a1.5 1.5 0 1 1 3 0m6 0v7a1.5 1.5 0 1 1-3 0v-7a1.5 1.5 0 1 1 3 0"/></svg>