<svg xmlns="http://www.w3.org/2000/svg" width="32" height="32" fill="none" viewBox="0 0 32 32"><path fill="#000" d="M14.728 15.174A5.25 5.25 0 0 0 10.75 6.5H4A1.5 1.5 0 0 0 2.5 8v16A1.5 1.5 0 0 0 4 25.5h7.25a5.75 5.75 0 0 0 3.477-10.326M5.5 9.5h5.25a2.25 2.25 0 0 1 0 4.5H5.5zm5.75 13H5.5V17h5.75a2.75 2.75 0 1 1 0 5.5m8.25-13A1.5 1.5 0 0 1 21 8h8a1.5 1.5 0 0 1 0 3h-8a1.5 1.5 0 0 1-1.5-1.5m5.5 3a6.5 6.5 0 1 0 2.837 12.349 1.5 1.5 0 1 0-1.31-2.698 3.505 3.505 0 0 1-4.689-1.651H30a1.5 1.5 0 0 0 1.5-1.5 6.507 6.507 0 0 0-6.5-6.5m-3.163 5a3.5 3.5 0 0 1 6.326 0z"/></svg>