<svg xmlns="http://www.w3.org/2000/svg" width="32" height="32" fill="none" viewBox="0 0 32 32"><path fill="#000" d="M21.5 28.5A1.5 1.5 0 0 1 20 30h-8a1.5 1.5 0 1 1 0-3h8a1.5 1.5 0 0 1 1.5 1.5m7.368-21.19A14.4 14.4 0 0 0 23.8 1.732a1.5 1.5 0 1 0-1.6 2.537 11.26 11.26 0 0 1 4 4.422 1.5 1.5 0 0 0 2.026.64 1.5 1.5 0 0 0 .642-2.021M5.796 8.691a11.26 11.26 0 0 1 4-4.422A1.5 1.5 0 1 0 8.2 1.732 14.4 14.4 0 0 0 3.133 7.31a1.5 1.5 0 0 0 2.663 1.381m21.69 12.294A2.5 2.5 0 0 1 25.5 25h-19a2.5 2.5 0 0 1-1.989-4.015c.897-1.166 1.967-3.328 1.985-6.992A9.502 9.502 0 1 1 25.5 14c.019 3.657 1.089 5.819 1.985 6.985M24.542 22c-1.02-1.625-2.024-4.196-2.043-7.992A6.5 6.5 0 1 0 9.5 14c-.019 3.802-1.022 6.375-2.042 8z"/></svg>