<svg xmlns="http://www.w3.org/2000/svg" width="32" height="32" fill="none" viewBox="0 0 32 32"><path fill="#000" d="M28.161 20.741C27.076 18.875 26.5 16.196 26.5 13a10.5 10.5 0 1 0-21 0c0 3.198-.574 5.875-1.659 7.741a2.51 2.51 0 0 0 .905 3.429c.381.22.814.333 1.254.33h4.523a5.5 5.5 0 0 0 10.955 0H26a2.47 2.47 0 0 0 2.164-1.25 2.51 2.51 0 0 0-.003-2.509M16 26.5a2.5 2.5 0 0 1-2.45-2h4.9a2.5 2.5 0 0 1-2.45 2m-9.167-5C7.939 19.25 8.5 16.392 8.5 13a7.5 7.5 0 0 1 15 0c0 3.391.56 6.25 1.666 8.5z"/></svg>