<svg xmlns="http://www.w3.org/2000/svg" width="32" height="32" fill="none" viewBox="0 0 32 32"><path fill="#000" d="M19.5 17.5A1.5 1.5 0 0 1 18 19h-4a1.5 1.5 0 0 1-1.25-2.332L15.198 13H14a1.5 1.5 0 1 1 0-3h4a1.5 1.5 0 0 1 1.25 2.332L16.803 16H18a1.5 1.5 0 0 1 1.5 1.5m8.666 5.75A2.47 2.47 0 0 1 26 24.5H6a2.47 2.47 0 0 1-2.164-1.25 2.51 2.51 0 0 1 .007-2.508C4.923 18.876 5.5 16.199 5.5 13a10.5 10.5 0 1 1 21 0c0 3.196.574 5.875 1.659 7.741a2.51 2.51 0 0 1 .009 2.509zm-3-1.75C24.061 19.25 23.5 16.391 23.5 13a7.5 7.5 0 0 0-15 0c0 3.392-.56 6.25-1.666 8.5zM20 26.5h-8a1.5 1.5 0 1 0 0 3h8a1.5 1.5 0 0 0 0-3"/></svg>