<svg xmlns="http://www.w3.org/2000/svg" width="32" height="32" fill="none" viewBox="0 0 32 32"><path fill="#000" d="M4.463 9.5a1.5 1.5 0 0 1-1.33-2.19A14.4 14.4 0 0 1 8.2 1.733a1.5 1.5 0 1 1 1.6 2.536 11.26 11.26 0 0 0-4 4.422 1.5 1.5 0 0 1-1.337.809m24.405-2.19A14.4 14.4 0 0 0 23.8 1.733a1.5 1.5 0 1 0-1.6 2.536 11.26 11.26 0 0 1 4 4.422 1.5 1.5 0 0 0 2.026.64 1.5 1.5 0 0 0 .642-2.021m-1.383 13.675A2.5 2.5 0 0 1 25.5 25h-4.092a5.5 5.5 0 0 1-10.815 0H6.5a2.499 2.499 0 0 1-1.989-4.015c.897-1.166 1.967-3.328 1.985-6.992A9.502 9.502 0 0 1 25.5 14c.019 3.657 1.089 5.819 1.985 6.985M18.29 25h-4.58a2.5 2.5 0 0 0 4.58 0m6.25-3c-1.02-1.625-2.024-4.196-2.042-7.992A6.5 6.5 0 1 0 9.5 14c-.019 3.802-1.022 6.375-2.042 8z"/></svg>