<svg xmlns="http://www.w3.org/2000/svg" width="32" height="32" fill="none" viewBox="0 0 32 32"><path fill="#000" d="M28.035 17.625A12.58 12.58 0 0 0 24.11 11.5H30a1.5 1.5 0 1 0 0-3h-9.757a4.5 4.5 0 0 0-8.485 0H2a1.5 1.5 0 1 0 0 3h5.89a12.58 12.58 0 0 0-3.925 6.125A4.5 4.5 0 1 0 7 17.968a9.58 9.58 0 0 1 5.144-5.652 4.5 4.5 0 0 0 7.712 0A9.58 9.58 0 0 1 25 17.968a4.5 4.5 0 1 0 3.035-.343M5 23.5a1.5 1.5 0 1 1 0-2.999A1.5 1.5 0 0 1 5 23.5m11-12a1.5 1.5 0 1 1 0-2.999 1.5 1.5 0 0 1 0 2.999m11 12a1.5 1.5 0 1 1 0-2.999 1.5 1.5 0 0 1 0 2.999"/></svg>