<svg xmlns="http://www.w3.org/2000/svg" width="33" height="32" fill="none" viewBox="0 0 33 32"><path fill="#000" d="M25.541 13.5c-.64 0-1.278.095-1.89.281L21.152 9.5h2.888a.5.5 0 0 1 .5.5 1.5 1.5 0 0 0 3 0 3.5 3.5 0 0 0-3.5-3.5h-5.5a1.5 1.5 0 0 0-1.296 2.25l1.018 1.75h-4.527l-1.898-3.25a1.5 1.5 0 0 0-1.297-.75h-4a1.5 1.5 0 0 0 0 3h3.14l1.383 2.375-1.773 2.236a6.521 6.521 0 1 0 2.35 1.865l1.047-1.321 2.103 3.601a1.5 1.5 0 1 0 2.588-1.506l-1.893-3.25h4.527l1.048 1.797a6.5 6.5 0 1 0 4.48-1.797m-15.5 6.5a3.5 3.5 0 1 1-2.713-3.41l-1.963 2.479a1.5 1.5 0 1 0 2.353 1.862l1.962-2.479A3.5 3.5 0 0 1 10.041 20m15.5 3.5a3.5 3.5 0 0 1-2.888-5.474l1.592 2.73a1.5 1.5 0 0 0 2.593-1.506l-1.594-2.73q.148-.014.297-.014a3.5 3.5 0 1 1 0 7z"/></svg>