<svg xmlns="http://www.w3.org/2000/svg" width="32" height="32" fill="none" viewBox="0 0 32 32"><path fill="#000" d="M30.125 18.831v-.006a6 6 0 0 0-.316-.738L24.616 6.273a1.5 1.5 0 0 0-.312-.457 4.5 4.5 0 0 0-6.365 0 1.5 1.5 0 0 0-.439 1.059V9.5h-3V6.875a1.5 1.5 0 0 0-.439-1.06 4.5 4.5 0 0 0-6.365 0 1.5 1.5 0 0 0-.312.456L2.19 18.087q-.18.36-.316.738v.006A6.5 6.5 0 1 0 14.5 21v-8.5h3V21a6.501 6.501 0 1 0 12.625-2.169M10 7.785a1.5 1.5 0 0 1 1.5-.152v7.893a6.5 6.5 0 0 0-4.487-.952zM8 24.5a3.5 3.5 0 1 1 0-7 3.5 3.5 0 0 1 0 7M20.5 7.633a1.51 1.51 0 0 1 1.5.152l2.984 6.789a6.5 6.5 0 0 0-4.488.952zM24 24.5a3.5 3.5 0 1 1 0-7 3.5 3.5 0 0 1 0 7"/></svg>