<svg xmlns="http://www.w3.org/2000/svg" width="32" height="32" fill="none" viewBox="0 0 32 32"><path fill="#000" d="M22 9a2 2 0 1 1-4 0 2 2 0 0 1 4 0m8.5 1a1.5 1.5 0 0 1-.668 1.25L27.5 12.803V15A13.515 13.515 0 0 1 14 28.5H1.5a1.5 1.5 0 0 1-1.19-2.413L11.5 11.491V9.5a8 8 0 0 1 15.573-2.589l2.76 1.839A1.5 1.5 0 0 1 30.5 10m-4.204 0-1.336-.891a1.5 1.5 0 0 1-.625-.875A5 5 0 0 0 14.5 9.5V12c0 .33-.11.65-.31.912L4.54 25.5H14A10.51 10.51 0 0 0 24.5 15v-3a1.5 1.5 0 0 1 .668-1.25zM16.08 15.81a1.5 1.5 0 0 0-2.103.277l-3.834 5a1.5 1.5 0 0 0 2.376 1.826l3.833-5a1.5 1.5 0 0 0-.272-2.103"/></svg>