<svg xmlns="http://www.w3.org/2000/svg" width="32" height="32" fill="none" viewBox="0 0 32 32"><path fill="#000" d="M23.9 20.8 17.5 16l1.451-1.089a1.5 1.5 0 0 0-1.8-2.4L16.5 13V7l.651.489a1.5 1.5 0 1 0 1.8-2.4L15.9 2.8A1.5 1.5 0 0 0 13.5 4v9L7.9 8.8a1.5 1.5 0 0 0-1.8 2.4l6.4 4.8-6.4 4.8a1.5 1.5 0 0 0 1.8 2.4l5.6-4.2v9a1.5 1.5 0 0 0 2.4 1.2l8-6a1.5 1.5 0 0 0 0-2.4M16.5 25v-6l4 3zm13.561-13.061a1.503 1.503 0 0 1-2.125 2.125L26 12.125l-1.939 1.94a1.504 1.504 0 0 1-2.125-2.125L23.875 10 21.94 8.061a1.503 1.503 0 1 1 2.125-2.125L26 7.875l1.939-1.94a1.502 1.502 0 1 1 2.125 2.125L28.125 10z"/></svg>