<svg xmlns="http://www.w3.org/2000/svg" width="32" height="32" fill="none" viewBox="0 0 32 32"><path fill="#000" d="m27.791 13.355-1.291-.431V7A2.5 2.5 0 0 0 24 4.5h-6.5V3a1.5 1.5 0 1 0-3 0v1.5H8A2.5 2.5 0 0 0 5.5 7v5.924l-1.291.431A2.5 2.5 0 0 0 2.5 15.73v4.282q0 .21.058.412C4.6 27.58 13.643 30.019 15.433 30.435a2.5 2.5 0 0 0 1.132 0c1.791-.416 10.834-2.855 12.875-10.011q.057-.201.057-.412v-4.285a2.5 2.5 0 0 0-1.706-2.372M8.5 7.5h15v4.422l-7.025-2.344a1.5 1.5 0 0 0-.95 0L8.5 11.923zm18 12.293c-1.683 5.327-9.18 7.375-10.5 7.693-1.319-.321-8.817-2.365-10.5-7.693v-3.707l9-3V21a1.5 1.5 0 1 0 3 0v-7.917l9 3z"/></svg>