<svg xmlns="http://www.w3.org/2000/svg" width="32" height="32" fill="none" viewBox="0 0 32 32"><path fill="#000" d="M29.446 24.216 25.297 4.491a2.5 2.5 0 0 0-2.97-1.935l-5.85 1.258a2.48 2.48 0 0 0-1.376.831A2.5 2.5 0 0 0 13 3.5H7A2.5 2.5 0 0 0 4.5 6v20A2.5 2.5 0 0 0 7 28.5h6a2.5 2.5 0 0 0 2.5-2.5V11.281l3.203 15.228a2.5 2.5 0 0 0 2.97 1.935l5.85-1.258a2.513 2.513 0 0 0 1.923-2.97M18.524 11.081l4.875-1.047.316 1.5-4.875 1.047zm.932 4.438 4.875-1.048 1.145 5.448-4.875 1.047zm3.008-9.924.316 1.5-4.875 1.048-.316-1.5zM7.5 11h5v10h-5zm5-4.5V8h-5V6.5zm-5 19V24h5v1.5zm14.036-.095-.316-1.5 4.875-1.047.316 1.5z"/></svg>