<svg xmlns="http://www.w3.org/2000/svg" width="32" height="32" fill="none" viewBox="0 0 32 32"><path fill="#000" d="M26 12.5a2.5 2.5 0 0 0 2.5-2.5V6A2.5 2.5 0 0 0 26 3.5h-4A2.5 2.5 0 0 0 19.5 6v.5h-7V6A2.5 2.5 0 0 0 10 3.5H6A2.5 2.5 0 0 0 3.5 6v4A2.5 2.5 0 0 0 6 12.5h.5v7H6A2.5 2.5 0 0 0 3.5 22v4A2.5 2.5 0 0 0 6 28.5h4a2.5 2.5 0 0 0 2.5-2.5v-.5h7v.5a2.5 2.5 0 0 0 2.5 2.5h4a2.5 2.5 0 0 0 2.5-2.5v-4a2.5 2.5 0 0 0-2.5-2.5h-.5v-7zm-3.5-6h3v3h-3zm-16 0h3v3h-3zm3 19h-3v-3h3zm16 0h-3v-3h3zm-3-6H22a2.5 2.5 0 0 0-2.5 2.5v.5h-7V22a2.5 2.5 0 0 0-2.5-2.5h-.5v-7h.5a2.5 2.5 0 0 0 2.5-2.5v-.5h7v.5a2.5 2.5 0 0 0 2.5 2.5h.5z"/></svg>