<svg xmlns="http://www.w3.org/2000/svg" width="32" height="32" fill="none" viewBox="0 0 32 32"><path fill="#000" d="M28 12.5h-.598a11.5 11.5 0 0 0-22.804 0H4A1.5 1.5 0 0 0 2.5 14a13.55 13.55 0 0 0 7 11.835V26a2.5 2.5 0 0 0 2.5 2.5h8a2.5 2.5 0 0 0 2.5-2.5v-.165A13.55 13.55 0 0 0 29.5 14a1.5 1.5 0 0 0-1.5-1.5m-6.714-4.992A11.5 11.5 0 0 0 15.9 12.5H13.25a8.53 8.53 0 0 1 7.75-5q.142-.002.286.008m2.153 2.385c.45.812.762 1.693.926 2.607h-4.849a8.5 8.5 0 0 1 3.923-2.607M16 5.5q.155-.002.31.008a11.54 11.54 0 0 0-6.264 6.992H7.635A8.51 8.51 0 0 1 16 5.5m4.375 18.049a1.5 1.5 0 0 0-.875 1.364v.587h-7v-.587a1.5 1.5 0 0 0-.875-1.364A10.54 10.54 0 0 1 5.609 15.5H26.39a10.54 10.54 0 0 1-6.016 8.049"/></svg>