<svg xmlns="http://www.w3.org/2000/svg" width="32" height="32" fill="none" viewBox="0 0 32 32"><path fill="#000" d="M31.5 15.5a7.52 7.52 0 0 0-4-6.635A6.5 6.5 0 0 0 16 4.851 6.5 6.5 0 0 0 4.5 8.865a7.5 7.5 0 0 0 0 13.268A6.5 6.5 0 0 0 16 26.149a6.5 6.5 0 0 0 11.5-4.017 7.51 7.51 0 0 0 4-6.632M11 25.5a3.5 3.5 0 0 1-3.356-2.509c.125 0 .236.009.356.009h1a1.5 1.5 0 1 0 0-3H8a4.5 4.5 0 0 1-1.5-8.744 1.5 1.5 0 0 0 1-1.415V9a3.5 3.5 0 0 1 7 0v7.519a6.6 6.6 0 0 0-1.55-.721 1.5 1.5 0 0 0-.9 2.862A3.5 3.5 0 0 1 11 25.5M24 20h-1a1.5 1.5 0 1 0 0 3h1c.125 0 .238 0 .356-.009a3.5 3.5 0 1 1-4.397-4.334 1.5 1.5 0 0 0-.892-2.864 6.5 6.5 0 0 0-1.567.726V9a3.5 3.5 0 1 1 7 0v.841a1.5 1.5 0 0 0 1 1.415 4.5 4.5 0 0 1-1.5 8.75zm2-5.5a1.5 1.5 0 0 1-1.5 1.5 5 5 0 0 1-5-5v-.5a1.5 1.5 0 1 1 3 0v.5a2 2 0 0 0 2 2 1.5 1.5 0 0 1 1.5 1.5M7.5 16a1.5 1.5 0 1 1 0-3 2 2 0 0 0 2-2v-.5a1.5 1.5 0 0 1 3 0v.5a5 5 0 0 1-5 5"/></svg>