<svg xmlns="http://www.w3.org/2000/svg" width="32" height="32" fill="none" viewBox="0 0 32 32"><path fill="#000" d="M29 19.5h-3.5v-5.564c.856.8 1.85 1.436 2.936 1.875a1.5 1.5 0 1 0 1.125-2.781A6.475 6.475 0 0 1 25.501 7a1.5 1.5 0 0 0-3 0 6.5 6.5 0 1 1-13 0 1.5 1.5 0 1 0-3 0 6.48 6.48 0 0 1-4.063 6.028 1.5 1.5 0 0 0 1.125 2.78 9.6 9.6 0 0 0 2.936-1.874V19.5H3a1.5 1.5 0 1 0 0 3h3.5V25a1.5 1.5 0 0 0 3 0v-2.5h13V25a1.5 1.5 0 1 0 3 0v-2.5H29a1.5 1.5 0 1 0 0-3m-11.5-3.119V19.5h-3v-3.119a9.5 9.5 0 0 0 3 0m-8-2.459a9.6 9.6 0 0 0 2 1.442V19.5h-2zm11 5.578v-4.136a9.6 9.6 0 0 0 2-1.442V19.5z"/></svg>