<svg xmlns="http://www.w3.org/2000/svg" width="32" height="32" fill="none" viewBox="0 0 32 32"><path fill="#000" d="M12.5 12.5A1.5 1.5 0 0 1 14 11h4a1.5 1.5 0 1 1 0 3h-4a1.5 1.5 0 0 1-1.5-1.5m17-4v16A2.5 2.5 0 0 1 27 27H5a2.5 2.5 0 0 1-2.5-2.5v-16A2.5 2.5 0 0 1 5 6h4.5V5A3.5 3.5 0 0 1 13 1.5h6A3.5 3.5 0 0 1 22.5 5v1H27a2.5 2.5 0 0 1 2.5 2.5M12.5 6h7V5a.5.5 0 0 0-.5-.5h-6a.5.5 0 0 0-.5.5zm-7 3v4.404A22.5 22.5 0 0 0 16 16a22.5 22.5 0 0 0 10.5-2.597V9zm21 15v-7.257a25.53 25.53 0 0 1-21 0V24z"/></svg>