<svg xmlns="http://www.w3.org/2000/svg" width="32" height="32" fill="none" viewBox="0 0 32 32"><path fill="#000" d="M29.655 26.651C27.015 25.375 25.5 22.58 25.5 19v-2.159a2.49 2.49 0 0 0-1.578-2.324l-3.107-1.226a.5.5 0 0 1-.283-.642L23.2 6.024A4 4 0 0 0 20.896.75a4.016 4.016 0 0 0-5.115 2.275l-.008.023-2.625 6.636a.49.49 0 0 1-.455.316.5.5 0 0 1-.188-.034L9.325 8.68a2.49 2.49 0 0 0-2.716.571C3.883 12.054 2.5 15.335 2.5 19a14.43 14.43 0 0 0 4.036 10.038 1.5 1.5 0 0 0 1.089.462H29a1.5 1.5 0 0 0 .655-2.849M8.524 11.591l2.859 1.159a3.5 3.5 0 0 0 4.555-1.961l2.618-6.625a1.04 1.04 0 0 1 1.291-.601 1 1 0 0 1 .577 1.32v.015l-2.674 6.638a3.506 3.506 0 0 0 1.96 4.542l2.79 1.103V19c0 .125 0 .259.006.387L7.201 13.263q.592-.891 1.323-1.67M14.593 26.5a10.47 10.47 0 0 1-2.762-4.875 1.5 1.5 0 0 0-2.906.75 13.8 13.8 0 0 0 1.811 4.125H8.281A11.44 11.44 0 0 1 5.5 19a10.5 10.5 0 0 1 .426-3.014L23.01 22.82a10.8 10.8 0 0 0 1.822 3.681z"/></svg>