<svg xmlns="http://www.w3.org/2000/svg" width="32" height="32" fill="none" viewBox="0 0 32 32"><path fill="#000" d="M24.669 5.453 26.06 4.06a1.503 1.503 0 0 0-2.125-2.125l-1.518 1.525a11.48 11.48 0 0 0-12.835 0L8.06 1.94a1.503 1.503 0 1 0-2.125 2.125l1.395 1.389A11.45 11.45 0 0 0 4.5 13v5a11.5 11.5 0 1 0 23 0v-5a11.45 11.45 0 0 0-2.831-7.547M24.5 13v.5h-17V13a8.5 8.5 0 0 1 17 0M16 26.5A8.51 8.51 0 0 1 7.5 18v-1.5h17V18a8.51 8.51 0 0 1-8.5 8.5M17.5 10a2 2 0 1 1 4 0 2 2 0 0 1-4 0m-7 0a2 2 0 1 1 4 0 2 2 0 0 1-4 0"/></svg>