<svg xmlns="http://www.w3.org/2000/svg" width="32" height="32" fill="none" viewBox="0 0 32 32"><path fill="#000" d="M28 19a1.5 1.5 0 1 0 0-3h-1.5v-2H28a1.5 1.5 0 1 0 0-3h-1.694a10.46 10.46 0 0 0-2.347-4.837L26.06 4.06a1.503 1.503 0 0 0-2.125-2.125l-2.25 2.25a10.46 10.46 0 0 0-11.387 0l-2.25-2.25a1.503 1.503 0 0 0-2.125 2.125L8.04 6.163c-1.19 1.38-2 3.048-2.347 4.837H4a1.5 1.5 0 1 0 0 3h1.5v2H4a1.5 1.5 0 1 0 0 3h1.5c0 .671.065 1.341.194 2H4a1.5 1.5 0 1 0 0 3h2.769a10.5 10.5 0 0 0 18.462 0H28a1.5 1.5 0 1 0 0-3h-1.694a10.4 10.4 0 0 0 .194-2zM16 5.5a7.51 7.51 0 0 1 7.227 5.5H8.773A7.51 7.51 0 0 1 16 5.5m1.5 20.849V17.5a1.5 1.5 0 0 0-3 0v8.849A7.51 7.51 0 0 1 8.5 19v-5h15v5a7.51 7.51 0 0 1-6 7.349"/></svg>