<svg xmlns="http://www.w3.org/2000/svg" width="32" height="32" fill="none" viewBox="0 0 32 32"><path fill="#000" d="M17.5 11a2 2 0 1 1 4 0 2 2 0 0 1-4 0m-5-2a2 2 0 1 0 0 4 2 2 0 0 0 0-4m15 9c0 .868-.098 1.734-.293 2.58l2.394 1.045a1.5 1.5 0 1 1-1.202 2.75l-2.25-.981a11.5 11.5 0 0 1-20.308 0l-2.25.981a1.5 1.5 0 0 1-1.202-2.75l2.394-1.045A11.5 11.5 0 0 1 4.5 18v-.5H2a1.5 1.5 0 0 1 0-3h2.5V14c0-.868.098-1.734.293-2.58l-2.394-1.045A1.5 1.5 0 0 1 3.6 7.625l2.25.981a11.5 11.5 0 0 1 20.308 0l2.25-.981a1.5 1.5 0 1 1 1.202 2.75l-2.393 1.045c.19.847.286 1.712.282 2.58v.5H30a1.5 1.5 0 1 1 0 3h-2.5zm-20-3.5h17V14a8.5 8.5 0 1 0-17 0zm7 11.865V17.5h-7v.5a8.51 8.51 0 0 0 7 8.365M24.5 18v-.5h-7v8.865a8.51 8.51 0 0 0 7-8.365"/></svg>