<svg xmlns="http://www.w3.org/2000/svg" width="32" height="32" fill="none" viewBox="0 0 32 32"><path fill="#000" d="M30 25.5h-1.5V12A2.5 2.5 0 0 0 26 9.5h-4.5V4a2.5 2.5 0 0 0-3.556-2.265l-13 6.067A2.51 2.51 0 0 0 3.5 10.07v15.43H2a1.5 1.5 0 0 0 0 3h28a1.5 1.5 0 1 0 0-3m-4.5-13v13h-4v-13zm-19-2.114 12-5.599V25.5h-12zM16.5 14v1.5a1.5 1.5 0 1 1-3 0V14a1.5 1.5 0 1 1 3 0m-5 0v1.5a1.5 1.5 0 1 1-3 0V14a1.5 1.5 0 0 1 3 0m0 6.5V22a1.5 1.5 0 1 1-3 0v-1.5a1.5 1.5 0 0 1 3 0m5 0V22a1.5 1.5 0 1 1-3 0v-1.5a1.5 1.5 0 1 1 3 0"/></svg>