<svg xmlns="http://www.w3.org/2000/svg" width="32" height="32" fill="none" viewBox="0 0 32 32"><path fill="#000" d="M29.474 6c-.534-.685-1.55-1.5-3.36-1.5-2.233 0-5.063 1.463-7.571 3.912-.375.362-.718.732-1.043 1.105V7a1.5 1.5 0 1 0-3 0v2.518c-.325-.376-.672-.75-1.042-1.106C10.948 5.962 8.125 4.5 5.886 4.5c-1.81 0-2.826.817-3.36 1.5-1.65 2.125-1.026 5.739-.116 9.333.719 2.83 2.225 4.124 3.61 4.71A6.015 6.015 0 0 0 11.5 28.5a5.98 5.98 0 0 0 4.5-2.035A6 6 0 0 0 26.5 22.5c0-.846-.175-1.683-.517-2.456 1.385-.584 2.89-1.875 3.61-4.712.907-3.593 1.532-7.207-.12-9.332M11.5 25.5a3 3 0 0 1-3-3 3.045 3.045 0 0 1 2.664-3.009 1.5 1.5 0 1 0-.33-2.982 5.95 5.95 0 0 0-2.688.991c-1.023-.036-2.25-.615-2.828-2.905-.927-3.648-1.07-5.919-.424-6.75.074-.095.269-.345.992-.345 1.402 0 3.603 1.229 5.477 3.059 1.906 1.862 3.137 3.982 3.137 5.4V22.5a3 3 0 0 1-3 3m15.181-10.906c-.58 2.29-1.806 2.868-2.828 2.906a5.94 5.94 0 0 0-2.69-.99 1.5 1.5 0 0 0-1.605 1.91 1.5 1.5 0 0 0 1.276 1.072A3.045 3.045 0 0 1 23.5 22.5a3 3 0 1 1-6 0v-6.541c0-1.418 1.231-3.538 3.138-5.4C22.51 8.729 24.713 7.5 26.114 7.5c.724 0 .919.25.992.345.644.83.503 3.101-.423 6.749z"/></svg>