<svg xmlns="http://www.w3.org/2000/svg" width="32" height="32" fill="none" viewBox="0 0 32 32"><path fill="#000" d="M29.5 14a3.5 3.5 0 0 0-3.5-3.5h-8.5v-.258A4.51 4.51 0 0 0 20.5 6c0-3.883-3.672-5.764-3.829-5.841a1.5 1.5 0 0 0-1.342 0C15.172.236 11.5 2.117 11.5 6a4.51 4.51 0 0 0 3 4.242v.258H6A3.5 3.5 0 0 0 2.5 14v2.916c0 1.14.35 2.251 1 3.186V25A3.5 3.5 0 0 0 7 28.5h18a3.5 3.5 0 0 0 3.5-3.5v-4.898c.65-.935 1-2.047 1-3.186zM15.5 3.74q.236-.239.5-.446.264.207.5.446c.666.69 1 1.45 1 2.259a1.5 1.5 0 1 1-3 0c0-.809.339-1.569 1-2.259M5.5 14a.5.5 0 0 1 .5-.5h20a.5.5 0 0 1 .5.5v2.916c0 1.388-1.09 2.546-2.429 2.583a2.5 2.5 0 0 1-2.571-2.5 1.5 1.5 0 1 0-3 0 2.5 2.5 0 1 1-5 0 1.5 1.5 0 1 0-3 0 2.5 2.5 0 0 1-2.571 2.5C6.59 19.463 5.5 18.305 5.5 16.917zM25 25.5H7a.5.5 0 0 1-.5-.5v-2.714a5.46 5.46 0 0 0 5.335-1.341q.085-.084.166-.169a5.5 5.5 0 0 0 8 0q.08.085.166.169A5.46 5.46 0 0 0 24 22.5h.156a5.3 5.3 0 0 0 1.344-.214V25a.5.5 0 0 1-.5.5"/></svg>