<svg xmlns="http://www.w3.org/2000/svg" width="32" height="32" fill="none" viewBox="0 0 32 32"><path fill="#000" d="M20.061 17.061 18.125 19l1.94 1.939a1.503 1.503 0 0 1-2.125 2.125L16 21.125l-1.939 1.94a1.502 1.502 0 1 1-2.125-2.125L13.875 19l-1.936-1.939a1.502 1.502 0 1 1 2.125-2.125L16 16.875l1.939-1.94a1.504 1.504 0 0 1 2.125 2.125zM28.5 6v20a2.5 2.5 0 0 1-2.5 2.5H6A2.5 2.5 0 0 1 3.5 26V6A2.5 2.5 0 0 1 6 3.5h2.5V3a1.5 1.5 0 0 1 3 0v.5h9V3a1.5 1.5 0 1 1 3 0v.5H26A2.5 2.5 0 0 1 28.5 6m-22 .5v3h19v-3h-2a1.5 1.5 0 1 1-3 0h-9a1.5 1.5 0 1 1-3 0zm19 19v-13h-19v13z"/></svg>