<svg xmlns="http://www.w3.org/2000/svg" width="32" height="32" fill="none" viewBox="0 0 32 32"><path fill="#000" d="M26 6.5h-3.198L21.25 4.168A1.5 1.5 0 0 0 20 3.5h-8a1.5 1.5 0 0 0-1.25.668L9.196 6.5H6A3.5 3.5 0 0 0 2.5 10v14A3.5 3.5 0 0 0 6 27.5h20a3.5 3.5 0 0 0 3.5-3.5V10A3.5 3.5 0 0 0 26 6.5m.5 17.5a.5.5 0 0 1-.5.5H6a.5.5 0 0 1-.5-.5V10a.5.5 0 0 1 .5-.5h4a1.5 1.5 0 0 0 1.25-.668L12.803 6.5h6.393l1.554 2.332A1.5 1.5 0 0 0 22 9.5h4a.5.5 0 0 1 .5.5zm-4-11.5V15a1.5 1.5 0 0 1-1.5 1.5h-2.5a1.5 1.5 0 0 1-.97-2.642 3.51 3.51 0 0 0-3.625.34 1.502 1.502 0 0 1-1.806-2.398 6.535 6.535 0 0 1 7.642-.114 1.5 1.5 0 0 1 2.759.814m-2.301 6.6a1.5 1.5 0 0 1-.298 2.1 6.46 6.46 0 0 1-3.891 1.293 6.54 6.54 0 0 1-3.75-1.18A1.5 1.5 0 0 1 9.5 20.5V18a1.5 1.5 0 0 1 1.5-1.5h2.5a1.5 1.5 0 0 1 .97 2.642 3.51 3.51 0 0 0 3.625-.34 1.5 1.5 0 0 1 2.104.298"/></svg>