<svg xmlns="http://www.w3.org/2000/svg" width="32" height="32" fill="none" viewBox="0 0 32 32"><path fill="#000" d="M26 6.5h-3.198L21.25 4.168A1.5 1.5 0 0 0 20 3.5h-8a1.5 1.5 0 0 0-1.25.668L9.196 6.5H6A3.5 3.5 0 0 0 2.5 10v14A3.5 3.5 0 0 0 6 27.5h20a3.5 3.5 0 0 0 3.5-3.5V10A3.5 3.5 0 0 0 26 6.5m.5 17.5a.5.5 0 0 1-.5.5H6a.5.5 0 0 1-.5-.5V10a.5.5 0 0 1 .5-.5h4a1.5 1.5 0 0 0 1.25-.668L12.803 6.5h6.393l1.554 2.332A1.5 1.5 0 0 0 22 9.5h4a.5.5 0 0 1 .5.5zM16 10.5a6 6 0 1 0 6 6 6.006 6.006 0 0 0-6-6m0 9a3 3 0 1 1 0-5.999 3 3 0 0 1 0 5.999"/></svg>