<svg xmlns="http://www.w3.org/2000/svg" width="32" height="32" fill="none" viewBox="0 0 32 32"><path fill="#000" d="M7.11 3.991A1.5 1.5 0 1 0 4.89 6.01l.5.546A3.5 3.5 0 0 0 2.5 10v14A3.5 3.5 0 0 0 6 27.5h18.428l.462.509a1.5 1.5 0 0 0 2.22-2.018zm6.169 11.25L17 19.33a3 3 0 0 1-3.721-4.094zM6 24.5a.5.5 0 0 1-.5-.5V10a.5.5 0 0 1 .5-.5h2.064l3.115 3.426a6 6 0 0 0 7.917 8.709L21.7 24.5zM29.5 10v11.767a1.5 1.5 0 1 1-3 0V10a.5.5 0 0 0-.5-.5h-4a1.5 1.5 0 0 1-1.25-.668L19.196 6.5h-6.439a1.5 1.5 0 0 1 0-3H20a1.5 1.5 0 0 1 1.25.668L22.802 6.5H26a3.5 3.5 0 0 1 3.5 3.5"/></svg>