<svg xmlns="http://www.w3.org/2000/svg" width="32" height="32" fill="none" viewBox="0 0 32 32"><path fill="#000" d="M28.429 28.454a1.5 1.5 0 0 1-1.884.975L16 26.074 5.455 29.429q-.221.07-.455.071a1.5 1.5 0 0 1-.455-2.93l6.507-2.07-6.507-2.071a1.5 1.5 0 0 1 .91-2.859L16 22.925l10.545-3.355a1.5 1.5 0 1 1 .91 2.859L20.947 24.5l6.508 2.07a1.5 1.5 0 0 1 .974 1.884M7.999 13.5c0-6.266 6.92-10.596 7.215-10.777a1.5 1.5 0 0 1 1.572 0C17.081 2.903 24 7.233 24 13.5a8 8 0 1 1-16 0m8 5a1.5 1.5 0 0 0 1.5-1.5c0-1.283-.83-2.375-1.5-3.04-.67.669-1.5 1.757-1.5 3.04a1.5 1.5 0 0 0 1.5 1.5m-5-5c0 .833.208 1.653.607 2.384.584-3.11 3.428-5.043 3.561-5.133a1.5 1.5 0 0 1 1.665 0c.134.09 2.978 2.023 3.562 5.133.398-.731.607-1.551.606-2.384 0-1.293-.491-3.342-2.83-5.772A18 18 0 0 0 16 5.825C14.42 7 11 9.959 11 13.5"/></svg>