<svg xmlns="http://www.w3.org/2000/svg" width="32" height="32" fill="none" viewBox="0 0 32 32"><path fill="#000" d="M29.5 13.5h-2.875l-5.271-5.267a2.48 2.48 0 0 0-1.768-.733H6.035a2.5 2.5 0 0 0-2.08 1.114L.25 14.168A1.5 1.5 0 0 0 0 15v6a2.5 2.5 0 0 0 2.5 2.5h1.688a4.25 4.25 0 0 0 8.125 0h7.374a4.25 4.25 0 0 0 8.125 0H29.5A2.5 2.5 0 0 0 32 21v-5a2.5 2.5 0 0 0-2.5-2.5m-23.197-3h13.072l3 3H4.303zm1.947 13a1.25 1.25 0 1 1 0-2.5 1.25 1.25 0 0 1 0 2.5m15.5 0a1.25 1.25 0 1 1 0-2.5 1.25 1.25 0 0 1 0 2.5m5.25-3h-1.375a4.25 4.25 0 0 0-7.75 0h-7.75a4.25 4.25 0 0 0-7.75 0H3v-4h26z"/></svg>