<svg xmlns="http://www.w3.org/2000/svg" width="32" height="32" fill="none" viewBox="0 0 32 32"><path fill="#000" d="M25.55 6.45a13.5 13.5 0 1 0 0 19.1 13.52 13.52 0 0 0 0-19.1m-2.125 16.978a10.5 10.5 0 1 1 0-14.855 10.514 10.514 0 0 1 .002 14.854zm-1.364-10.37L19.125 16l2.941 2.941a1.502 1.502 0 1 1-2.125 2.125l-4-4a1.5 1.5 0 0 1 0-2.125l4-4a1.503 1.503 0 0 1 2.125 2.125zm-7 0L12.125 16l2.94 2.941a1.502 1.502 0 1 1-2.125 2.125l-4-4a1.5 1.5 0 0 1 0-2.125l4-4a1.502 1.502 0 1 1 2.125 2.125z"/></svg>