<svg xmlns="http://www.w3.org/2000/svg" width="32" height="32" fill="none" viewBox="0 0 32 32"><path fill="#000" d="M29 7.5h-2.375l2.439-2.439a1.503 1.503 0 0 0-2.125-2.125L24.5 5.375V3a1.5 1.5 0 0 0-3 0v3.25A8.5 8.5 0 0 0 12 7.984C6.931 12.96 3.147 24.625 2.722 25.97a2.5 2.5 0 0 0 3.308 3.307c.955-.303 7.099-2.293 12.364-5.228l.067-.038c2.138-1.196 4.125-2.548 5.555-4A8.5 8.5 0 0 0 25.75 10.5H29a1.5 1.5 0 1 0 0-3m-7.111 10.39-.011.011c-1.014 1.035-2.39 2.025-3.917 2.94L15.06 17.94a1.503 1.503 0 0 0-2.125 2.125l2.278 2.278c-3.787 1.896-7.767 3.302-9.408 3.852.846-2.527 3.724-10.6 7.293-14.968l3.837 3.838a1.502 1.502 0 1 0 2.125-2.125l-3.742-3.742a5.5 5.5 0 0 1 6.57 8.692"/></svg>