<svg xmlns="http://www.w3.org/2000/svg" width="32" height="32" fill="none" viewBox="0 0 32 32"><path fill="#000" d="M28 5.5H4A2.5 2.5 0 0 0 1.5 8v16A2.5 2.5 0 0 0 4 26.5h24a2.5 2.5 0 0 0 2.5-2.5V8A2.5 2.5 0 0 0 28 5.5m-17.197 18 1-1.5h8.395l1 1.5zm16.697 0h-2.698l-2.257-3.386A2.5 2.5 0 0 0 20.465 19h-8.93a2.5 2.5 0 0 0-2.08 1.114L7.197 23.5H4.5v-15h23zm-17.75-6h12.5a3.75 3.75 0 0 0 0-7.5H9.75a3.75 3.75 0 0 0 0 7.5m4.25-3V13h4v1.5zm9-.75a.75.75 0 0 1-.75.75H21V13h1.25a.75.75 0 0 1 .75.75M9.75 13H11v1.5H9.75a.75.75 0 1 1 0-1.5"/></svg>