<svg xmlns="http://www.w3.org/2000/svg" width="32" height="32" fill="none" viewBox="0 0 32 32"><path fill="#000" d="M25 2.5H7A2.5 2.5 0 0 0 4.5 5v5.586a2.48 2.48 0 0 0 .733 1.768L6.5 13.625V27A2.5 2.5 0 0 0 9 29.5h14a2.5 2.5 0 0 0 2.5-2.5V13.625l1.267-1.267a2.48 2.48 0 0 0 .733-1.772V5A2.5 2.5 0 0 0 25 2.5m-7.5 24h-3V19a1.5 1.5 0 1 1 3 0zm7-16.125-1.267 1.271a2.49 2.49 0 0 0-.733 1.768V26.5h-2V19a4.5 4.5 0 1 0-9 0v7.5h-2V13.414a2.48 2.48 0 0 0-.732-1.768L7.5 10.375V5.5H11v3a1.5 1.5 0 1 0 3 0v-3h4v3a1.5 1.5 0 1 0 3 0v-3h3.5z"/></svg>