<svg xmlns="http://www.w3.org/2000/svg" width="32" height="32" fill="none" viewBox="0 0 32 32"><path fill="#000" d="M27.956 3.691a2.5 2.5 0 0 0-2.795.619l-1.875 2.162a14.42 14.42 0 0 0-14.562 0L6.849 4.31l-.071-.076A2.5 2.5 0 0 0 2.5 6v11c0 6.892 6.056 12.5 13.5 12.5S29.5 23.892 29.5 17V6a2.5 2.5 0 0 0-1.544-2.309M26.5 17c0 4.778-3.919 8.741-9 9.401v-1.776l1.561-1.561a1.503 1.503 0 0 0-2.125-2.125l-.936.936-.939-.94a1.503 1.503 0 0 0-2.125 2.125l1.564 1.565v1.78c-5.081-.66-9-4.625-9-9.401V7.342l1.818 2.092a1.5 1.5 0 0 0 2.026.22A10.8 10.8 0 0 1 12 8.217V11a1.5 1.5 0 1 0 3 0V7.544a11.5 11.5 0 0 1 2 0V11a1.5 1.5 0 1 0 3 0V8.217c.948.352 1.843.836 2.656 1.437a1.5 1.5 0 0 0 2.027-.22L26.5 7.342zm-14 .5a2 2 0 1 1-4 0 2 2 0 0 1 4 0m11 0a2 2 0 1 1-4 0 2 2 0 0 1 4 0"/></svg>