<svg xmlns="http://www.w3.org/2000/svg" width="32" height="32" fill="none" viewBox="0 0 32 32"><path fill="#000" d="M27.061 23.939a1.503 1.503 0 0 1-2.125 2.125L23 24.125l-1.939 1.94a1.503 1.503 0 0 1-2.125-2.125L20.875 22l-1.94-1.939a1.503 1.503 0 0 1 2.125-2.125L23 19.875l1.939-1.94a1.503 1.503 0 0 1 2.125 2.125L25.125 22zM20 15.5a1.5 1.5 0 0 0 1.5-1.5V9a1.5 1.5 0 1 0-3 0v5a1.5 1.5 0 0 0 1.5 1.5m5 0a1.5 1.5 0 0 0 1.5-1.5V4a1.5 1.5 0 1 0-3 0v10a1.5 1.5 0 0 0 1.5 1.5m-10-3a1.5 1.5 0 0 0-1.5 1.5v11a1.5 1.5 0 1 0 3 0V14a1.5 1.5 0 0 0-1.5-1.5m-5 5A1.5 1.5 0 0 0 8.5 19v6a1.5 1.5 0 0 0 3 0v-6a1.5 1.5 0 0 0-1.5-1.5m-5 5A1.5 1.5 0 0 0 3.5 24v1a1.5 1.5 0 0 0 3 0v-1A1.5 1.5 0 0 0 5 22.5"/></svg>