<svg xmlns="http://www.w3.org/2000/svg" width="32" height="32" fill="none" viewBox="0 0 32 32"><path fill="#000" d="M11.5 19v6a1.5 1.5 0 1 1-3 0v-6a1.5 1.5 0 0 1 3 0M5 22.5A1.5 1.5 0 0 0 3.5 24v1a1.5 1.5 0 0 0 3 0v-1A1.5 1.5 0 0 0 5 22.5m22.11 3.491-20-22A1.5 1.5 0 1 0 4.89 6.01l8.61 9.471V25a1.5 1.5 0 1 0 3 0v-6.22l2 2.2V25a1.5 1.5 0 1 0 3 0v-.72l3.39 3.729a1.5 1.5 0 0 0 2.22-2.018M20 14.468a1.5 1.5 0 0 0 1.5-1.5V9a1.5 1.5 0 1 0-3 0v3.967a1.5 1.5 0 0 0 1.5 1.5m5 5.5a1.5 1.5 0 0 0 1.5-1.5V4a1.5 1.5 0 1 0-3 0v14.468a1.5 1.5 0 0 0 1.5 1.5"/></svg>