<svg xmlns="http://www.w3.org/2000/svg" width="32" height="32" fill="none" viewBox="0 0 32 32"><path fill="#000" d="M31 16a6.5 6.5 0 1 0-11.5 4.149V27.5a1.5 1.5 0 0 0 2.25 1.302l2.75-1.575 2.756 1.575A1.5 1.5 0 0 0 29.5 27.5v-7.351A6.47 6.47 0 0 0 31 16m-6.5-3.5a3.5 3.5 0 1 1 0 7 3.5 3.5 0 0 1 0-7m.75 11.698a1.5 1.5 0 0 0-1.488 0l-1.262.717v-2.731c1.3.421 2.7.421 4 0v2.731zM17.5 24a1.5 1.5 0 0 1-1.5 1.5H5A2.5 2.5 0 0 1 2.5 23V7A2.5 2.5 0 0 1 5 4.5h22A2.5 2.5 0 0 1 29.5 7a1.5 1.5 0 0 1-2.915.5H5.5v15H16a1.5 1.5 0 0 1 1.5 1.5M16 17.5a1.5 1.5 0 0 1-1.5 1.5h-5a1.5 1.5 0 1 1 0-3h5a1.5 1.5 0 0 1 1.5 1.5m0-5a1.5 1.5 0 0 1-1.5 1.5h-5a1.5 1.5 0 1 1 0-3h5a1.5 1.5 0 0 1 1.5 1.5"/></svg>