<svg xmlns="http://www.w3.org/2000/svg" width="32" height="32" fill="none" viewBox="0 0 32 32"><path fill="#000" d="M7 10.5A1.5 1.5 0 0 1 8.5 9h15a1.5 1.5 0 0 1 1.5 1.5v11a1.5 1.5 0 1 1-3 0V12H8.5A1.5 1.5 0 0 1 7 10.5M29.5 7v18a2.5 2.5 0 0 1-2.5 2.5h-8.343a1.5 1.5 0 0 1-1.424-1.032 4.5 4.5 0 0 0-8.468 0A1.5 1.5 0 0 1 7.342 27.5H5A2.5 2.5 0 0 1 2.5 25V7A2.5 2.5 0 0 1 5 4.5h22A2.5 2.5 0 0 1 29.5 7M13 20.5a2 2 0 1 0 0-4 2 2 0 0 0 0 4m13.5-13h-21v17h.865a7.5 7.5 0 0 1 2.72-2.895 5 5 0 1 1 7.83 0 7.5 7.5 0 0 1 2.72 2.895H26.5z"/></svg>