<svg xmlns="http://www.w3.org/2000/svg" width="32" height="32" fill="none" viewBox="0 0 32 32"><path fill="#000" d="M19.212 1.536A1.5 1.5 0 0 0 17.786.5h-5.575a1.5 1.5 0 0 0-1.426 1.036A57 57 0 0 0 8.99 9.073c-.93 5.667-.535 9.732 1.171 12.082A5.51 5.51 0 0 0 13.5 23.34v5.16H12a1.5 1.5 0 1 0 0 3h6a1.5 1.5 0 1 0 0-3h-1.5v-5.16a5.51 5.51 0 0 0 3.337-2.185c1.708-2.35 2.102-6.415 1.172-12.083a57 57 0 0 0-1.797-7.536M16.67 3.5c.26.906.642 2.338.99 4h-5.323c.348-1.662.73-3.094.99-4zm.739 15.892c-.55.75-1.315 1.108-2.41 1.108s-1.86-.352-2.41-1.108c-1.104-1.517-1.375-4.657-.782-8.892h6.383c.594 4.235.322 7.375-.781 8.892M29.999 7a2 2 0 1 1-4 0 2 2 0 0 1 4 0m-7.5-4.5a2 2 0 1 1 4 0 2 2 0 0 1-4 0M27 13a2 2 0 1 1-4 0 2 2 0 0 1 4 0"/></svg>