<svg xmlns="http://www.w3.org/2000/svg" width="32" height="32" fill="none" viewBox="0 0 32 32"><path fill="#000" d="M11.728 14.58a1.5 1.5 0 0 0 .772-1.311V5.092a1.5 1.5 0 0 0-2.125-1.363 13.53 13.53 0 0 0-7.816 13.534 1.5 1.5 0 0 0 2.22 1.172zM9.5 7.758v4.625l-3.899 2.162A10.55 10.55 0 0 1 9.5 7.758m18.235 1.574q-.022-.044-.046-.087a1 1 0 0 0-.05-.079A13.51 13.51 0 0 0 16 2.5 1.5 1.5 0 0 0 14.5 4v11.191l-9.602 5.593a1.5 1.5 0 0 0-.538 2.057A13.5 13.5 0 0 0 29.5 16a13.4 13.4 0 0 0-1.765-6.667M17.5 5.607a10.5 10.5 0 0 1 6.75 3.905l-6.75 3.933zM16 26.5a10.56 10.56 0 0 1-8.196-3.937l8.927-5.2.045-.026 8.974-5.228A10.5 10.5 0 0 1 16 26.5"/></svg>