<svg xmlns="http://www.w3.org/2000/svg" width="32" height="32" fill="none" viewBox="0 0 32 32"><path fill="#000" d="M17.243 15.159a1.5 1.5 0 0 1 .15 1.399l-2 5a1.5 1.5 0 0 1-2.786-1.116l1.178-2.942H12a1.5 1.5 0 0 1-1.392-2.057l2-5a1.5 1.5 0 0 1 2.784 1.114L14.216 14.5H16a1.5 1.5 0 0 1 1.242.659M32 10.829v9.921a3.75 3.75 0 0 1-7.5 0V16a.5.5 0 0 0-.5-.5h-1.5v10H24a1.5 1.5 0 1 1 0 3H4a1.5 1.5 0 1 1 0-3h1.5V7A3.5 3.5 0 0 1 9 3.5h10A3.5 3.5 0 0 1 22.5 7v5.5H24a3.5 3.5 0 0 1 3.5 3.5v4.75a.75.75 0 1 0 1.5 0v-9.921a.5.5 0 0 0-.146-.354l-2.415-2.414a1.503 1.503 0 0 1 2.125-2.125l2.411 2.418A3.48 3.48 0 0 1 32 10.829M19.5 25.5V7a.5.5 0 0 0-.5-.5H9a.5.5 0 0 0-.5.5v18.5z"/></svg>