<svg xmlns="http://www.w3.org/2000/svg" width="32" height="32" fill="none" viewBox="0 0 32 32"><path fill="#000" d="M27 5.5H5A2.5 2.5 0 0 0 2.5 8v20a2.48 2.48 0 0 0 1.445 2.262c.332.156.694.237 1.061.238a2.5 2.5 0 0 0 1.603-.59l.024-.02L10.5 26.5H27a2.5 2.5 0 0 0 2.5-2.5V8A2.5 2.5 0 0 0 27 5.5m-.5 18H10.313a2.5 2.5 0 0 0-1.61.586l-.023.02-3.18 2.786V8.5h21zm-16-10A1.5 1.5 0 0 1 12 12h8a1.5 1.5 0 1 1 0 3h-8a1.5 1.5 0 0 1-1.5-1.5m0 5A1.5 1.5 0 0 1 12 17h8a1.5 1.5 0 1 1 0 3h-8a1.5 1.5 0 0 1-1.5-1.5"/></svg>