<svg xmlns="http://www.w3.org/2000/svg" width="32" height="32" fill="none" viewBox="0 0 32 32"><path fill="#000" d="M29.508 23.461a10.5 10.5 0 0 0-7.972-14.849 10.5 10.5 0 1 0-19.043 8.85l-.905 3.17a2.25 2.25 0 0 0 2.787 2.78l3.17-.904c.926.431 1.91.726 2.92.875a10.507 10.507 0 0 0 14 5.125l3.17.905a2.251 2.251 0 0 0 2.781-2.782zM7.69 19.403q-.21 0-.412.057l-2.436.696.696-2.436a1.5 1.5 0 0 0-.125-1.131 7.5 7.5 0 1 1 3 3 1.5 1.5 0 0 0-.723-.185zm18.77 4.317.697 2.436-2.437-.696a1.5 1.5 0 0 0-1.131.125 7.507 7.507 0 0 1-9.715-2.256 10.49 10.49 0 0 0 8.569-11.421 7.5 7.5 0 0 1 4.145 10.682 1.5 1.5 0 0 0-.128 1.131z"/></svg>