<svg xmlns="http://www.w3.org/2000/svg" width="32" height="32" fill="none" viewBox="0 0 32 32"><path fill="#000" d="M28.771 17.714 24.5 15.15V13a1.5 1.5 0 0 0-.75-1.303L17.5 8.125V6.5H19a1.5 1.5 0 0 0 0-3h-1.5V2a1.5 1.5 0 1 0-3 0v1.5H13a1.5 1.5 0 0 0 0 3h1.5v1.625l-6.244 3.573A1.5 1.5 0 0 0 7.5 13v2.151l-4.271 2.563A1.5 1.5 0 0 0 2.5 19v8A1.5 1.5 0 0 0 4 28.5h9.5A1.5 1.5 0 0 0 15 27v-5.5a1 1 0 0 1 2 0V27a1.5 1.5 0 0 0 1.5 1.5H28a1.5 1.5 0 0 0 1.5-1.5v-8a1.5 1.5 0 0 0-.729-1.286M5.5 19.849l2-1.2V25.5h-2zM16 17.5a4 4 0 0 0-4 4v4h-1.5V13.875l5.5-3.142 5.5 3.142V25.5H20v-4a4 4 0 0 0-4-4m10.5 8h-2v-6.851l2 1.2z"/></svg>