<svg xmlns="http://www.w3.org/2000/svg" width="32" height="32" fill="none" viewBox="0 0 32 32"><path fill="#000" d="M11.548 4.756a1.5 1.5 0 0 1 1.077-1.829 13.5 13.5 0 0 1 6.75 0 1.5 1.5 0 1 1-.75 2.904 10.5 10.5 0 0 0-5.25 0 1.5 1.5 0 0 1-1.828-1.075m-5.18 1.786a13.5 13.5 0 0 0-3.375 5.845 1.5 1.5 0 1 0 2.89.8A10.5 10.5 0 0 1 8.51 8.645a1.5 1.5 0 1 0-2.141-2.102M5.883 18.81a1.5 1.5 0 0 0-2.89.803 13.5 13.5 0 0 0 3.375 5.847A1.5 1.5 0 0 0 8.5 23.356a10.5 10.5 0 0 1-2.617-4.546m12.742 7.359a10.5 10.5 0 0 1-5.25 0 1.5 1.5 0 1 0-.75 2.904c2.214.571 4.536.571 6.75 0a1.501 1.501 0 1 0-.75-2.904m9.34-8.403a1.5 1.5 0 0 0-1.84 1.047 10.5 10.5 0 0 1-2.625 4.543 1.5 1.5 0 0 0 2.14 2.103 13.5 13.5 0 0 0 3.375-5.846 1.5 1.5 0 0 0-1.051-1.847zm-1.846-4.576a1.5 1.5 0 0 0 2.89-.803 13.5 13.5 0 0 0-3.375-5.847A1.5 1.5 0 1 0 23.5 8.644a10.5 10.5 0 0 1 2.617 4.546z"/></svg>