<svg xmlns="http://www.w3.org/2000/svg" width="32" height="32" fill="none" viewBox="0 0 32 32"><path fill="#000" d="M9.75 4.5a5.25 5.25 0 1 0 0 10.5 5.25 5.25 0 0 0 0-10.5m0 7.5a2.25 2.25 0 1 1 0-4.5 2.25 2.25 0 0 1 0 4.5m12.5 3a5.25 5.25 0 1 0 0-10.499 5.25 5.25 0 0 0 0 10.499m0-7.5a2.25 2.25 0 1 1 0 4.5 2.25 2.25 0 0 1 0-4.5M9.75 17a5.25 5.25 0 1 0 0 10.5 5.25 5.25 0 0 0 0-10.5m0 7.5a2.25 2.25 0 1 1 0-4.5 2.25 2.25 0 0 1 0 4.5m17.75-2.25a1.5 1.5 0 0 1-1.5 1.5h-2.25V26a1.5 1.5 0 1 1-3 0v-2.25H18.5a1.5 1.5 0 1 1 0-3h2.25V18.5a1.5 1.5 0 1 1 3 0v2.25H26a1.5 1.5 0 0 1 1.5 1.5"/></svg>