<svg xmlns="http://www.w3.org/2000/svg" width="32" height="32" fill="none" viewBox="0 0 32 32"><path fill="#000" d="M20 4.5a11.51 11.51 0 0 0-10.125 6.045A8.5 8.5 0 1 0 9 27.5h11a11.5 11.5 0 1 0 0-23m0 20H9a5.501 5.501 0 0 1-.228-11c-.182.82-.273 1.66-.272 2.5a1.5 1.5 0 0 0 3 0 8.5 8.5 0 1 1 8.5 8.5m4.061-9.439L22.125 17l1.94 1.939a1.503 1.503 0 1 1-2.125 2.125L20 19.125l-1.939 1.94a1.503 1.503 0 0 1-2.125-2.125L17.875 17l-1.94-1.939a1.502 1.502 0 1 1 2.125-2.125L20 14.875l1.939-1.94a1.503 1.503 0 0 1 2.125 2.125z"/></svg>