<svg xmlns="http://www.w3.org/2000/svg" width="32" height="32" fill="none" viewBox="0 0 32 32"><path fill="#000" d="M31.5 16c.007 2.49-.801 4.914-2.301 6.901A1.5 1.5 0 0 1 26.8 21.1 8.5 8.5 0 1 0 11.5 16a1.5 1.5 0 1 1-3 0c0-.84.091-1.68.274-2.5A5.501 5.501 0 1 0 9 24.5h3a1.5 1.5 0 1 1 0 3H9a8.501 8.501 0 1 1 .875-16.954A11.5 11.5 0 0 1 31.5 16M20.06 14.94a1.5 1.5 0 0 0-2.125 0l-4 4a1.502 1.502 0 1 0 2.125 2.125l1.439-1.439V26a1.5 1.5 0 0 0 3 0v-6.375l1.439 1.44a1.503 1.503 0 0 0 2.125-2.125z"/></svg>