<svg xmlns="http://www.w3.org/2000/svg" width="32" height="32" fill="none" viewBox="0 0 32 32"><path fill="#000" d="M7.11 3.991A1.5 1.5 0 1 0 4.89 6.01l4.084 4.49A8.5 8.5 0 1 0 9 27.5h11a11.4 11.4 0 0 0 3.832-.654l1.058 1.164a1.5 1.5 0 0 0 2.22-2.018zM20 24.5H9a5.5 5.5 0 0 1-.225-10.994A11.5 11.5 0 0 0 8.5 16a1.5 1.5 0 0 0 3 0c0-.797.112-1.59.332-2.355l9.735 10.709A8.6 8.6 0 0 1 20 24.5M31.5 16a11.4 11.4 0 0 1-2.191 6.75 1.501 1.501 0 1 1-2.427-1.764A8.5 8.5 0 0 0 15.687 8.67a1.5 1.5 0 0 1-1.525-2.583A11.5 11.5 0 0 1 31.5 16"/></svg>