<svg xmlns="http://www.w3.org/2000/svg" width="32" height="32" fill="none" viewBox="0 0 32 32"><path fill="#000" d="M20.5 8.5q-.311.001-.619.02a9.49 9.49 0 0 0-7.25-7.779 1.5 1.5 0 0 0-1.796 1.798 6.507 6.507 0 0 1-7.797 7.796 1.5 1.5 0 0 0-1.797 1.799 9.58 9.58 0 0 0 3.49 5.409A7 7 0 0 0 10.5 28.5h10a10 10 0 0 0 0-20m-6.514-4a6.45 6.45 0 0 1 2.96 4.646A10.05 10.05 0 0 0 11.3 14.54a7 7 0 0 0-.799-.04 6.96 6.96 0 0 0-3.529.957 6.6 6.6 0 0 1-1.953-1.97A9.514 9.514 0 0 0 13.986 4.5m6.514 21h-10a4 4 0 1 1 0-8h.035a9 9 0 0 0-.032.413 1.503 1.503 0 0 0 3 .174c.026-.464.099-.925.217-1.375l.019-.068A7.007 7.007 0 1 1 20.5 25.5"/></svg>