<svg xmlns="http://www.w3.org/2000/svg" width="32" height="32" fill="none" viewBox="0 0 32 32"><path fill="#000" d="M19.5 8.5c-.777 0-1.551.09-2.308.269a7.5 7.5 0 0 0-.75-.928l.947-1.352a1.5 1.5 0 1 0-2.458-1.721l-.947 1.357A7.5 7.5 0 0 0 11.2 5.5l-.287-1.625a1.5 1.5 0 0 0-2.954.521l.287 1.625a7.5 7.5 0 0 0-2.4 1.538l-1.358-.952a1.5 1.5 0 1 0-1.722 2.458l1.358.949a7.4 7.4 0 0 0-.625 2.781l-1.625.287a1.5 1.5 0 1 0 .521 2.956l1.625-.288q.185.467.43.906A7 7 0 0 0 9.5 28.5h10a10 10 0 0 0 0-20m-8.5 0a4.5 4.5 0 0 1 3.306 1.451 10.05 10.05 0 0 0-4.007 4.594 6.98 6.98 0 0 0-3.34.434A4.5 4.5 0 0 1 11 8.5m8.5 17h-10a4 4 0 1 1 0-8h.035a9 9 0 0 0-.033.413 1.503 1.503 0 1 0 3 .174c.027-.464.1-.925.218-1.375l.019-.068A7.007 7.007 0 1 1 19.5 25.5"/></svg>