<svg xmlns="http://www.w3.org/2000/svg" width="32" height="32" fill="none" viewBox="0 0 32 32"><path fill="#000" d="M23.349 10.508a7.5 7.5 0 1 0-14.698 0 7.5 7.5 0 1 0 2.375 14.716l-.5 2.482A1.5 1.5 0 0 0 12 29.5h8a1.5 1.5 0 0 0 1.471-1.794l-.5-2.482a7.499 7.499 0 1 0 2.375-14.716zM23 22.5a4.49 4.49 0 0 1-3.097-1.235 1.5 1.5 0 0 0-2.5 1.383l.767 3.852h-4.34l.77-3.852a1.5 1.5 0 0 0-2.5-1.383 4.5 4.5 0 1 1-1.581-7.5 1.5 1.5 0 0 0 1.75-2.25 4.5 4.5 0 1 1 7.466-.005 1.5 1.5 0 0 0 1.75 2.25 4.498 4.498 0 0 1 5.852 5.412A4.5 4.5 0 0 1 23 22.5"/></svg>