<svg xmlns="http://www.w3.org/2000/svg" width="32" height="32" fill="none" viewBox="0 0 32 32"><path fill="#000" d="m6.439 13.061-4-4a1.5 1.5 0 0 1 0-2.125l4-4a1.503 1.503 0 0 1 2.125 2.125L5.625 8l2.936 2.939a1.502 1.502 0 1 1-2.125 2.125zm6 0a1.5 1.5 0 0 0 2.125 0l4-4a1.5 1.5 0 0 0 0-2.125l-4-4a1.502 1.502 0 1 0-2.125 2.125L15.375 8l-2.936 2.939a1.5 1.5 0 0 0 0 2.122M25 4.5h-2.5a1.5 1.5 0 0 0 0 3h2v17h-17v-7a1.5 1.5 0 0 0-3 0V25A2.5 2.5 0 0 0 7 27.5h18a2.5 2.5 0 0 0 2.5-2.5V7A2.5 2.5 0 0 0 25 4.5"/></svg>