<svg xmlns="http://www.w3.org/2000/svg" width="32" height="32" fill="none" viewBox="0 0 32 32"><path fill="#000" d="m29.71 10.679-13-7a1.5 1.5 0 0 0-1.423 0l-13 7A1.5 1.5 0 0 0 1.5 12v8a1.5 1.5 0 0 0 .79 1.321l13 7a1.5 1.5 0 0 0 1.422 0l13-7A1.5 1.5 0 0 0 30.5 20v-8a1.5 1.5 0 0 0-.79-1.321m-2.21 6.81L24.735 16l2.765-1.489zm-5.929-3.193L17.5 12.104V7.51L25.836 12zm-5.571 3L13.592 16 16 14.704 18.407 16zm-1.5-9.785v4.593l-4.071 2.192L6.164 12zm-10 7L7.265 16 4.5 17.489zm5.929 3.193 4.071 2.192v4.593L6.164 20zm7.071 6.785v-4.593l4.071-2.192L25.836 20z"/></svg>