<svg xmlns="http://www.w3.org/2000/svg" width="32" height="32" fill="none" viewBox="0 0 32 32"><path fill="#000" d="m28.2 7.831-11-6.022a2.49 2.49 0 0 0-2.4 0L3.8 7.83a2.5 2.5 0 0 0-1.3 2.194v11.952a2.5 2.5 0 0 0 1.3 2.194l11 6.021a2.49 2.49 0 0 0 2.4 0l11-6.022a2.5 2.5 0 0 0 1.3-2.193V10.024a2.5 2.5 0 0 0-1.3-2.193M20.5 19v5.965l-3 1.643v-9.72l9-4.927v2.865l-5.22 2.858A1.5 1.5 0 0 0 20.5 19m-9.78-1.316L5.5 14.826v-2.865l9 4.928v9.719l-3-1.643V19a1.5 1.5 0 0 0-.78-1.316M10.392 7.64l4.888 2.675a1.5 1.5 0 0 0 1.44 0l4.888-2.675 3.267 1.79L16 14.29 7.125 9.431zM16 4.571l2.484 1.36L16 7.291l-2.484-1.36zM5.5 18.25l3 1.642v3.434l-3-1.646zm18 5.076V19.89l3-1.639v3.434z"/></svg>