<svg xmlns="http://www.w3.org/2000/svg" width="32" height="32" fill="none" viewBox="0 0 32 32"><path fill="#000" d="M26.5 9.5H4A1.5 1.5 0 0 0 2.5 11v6a12.53 12.53 0 0 0 3.341 8.5H4a1.5 1.5 0 1 0 0 3h22a1.5 1.5 0 1 0 0-3h-1.841a12.6 12.6 0 0 0 2.5-4A5.5 5.5 0 0 0 32 16v-1a5.506 5.506 0 0 0-5.5-5.5m-2 7.5a9.54 9.54 0 0 1-5.25 8.5h-8.5A9.53 9.53 0 0 1 5.5 17v-4.5h19zm4.5-1a2.5 2.5 0 0 1-1.571 2.319q.07-.657.071-1.319v-4.29A2.5 2.5 0 0 1 29 15zM8.5 6V3a1.5 1.5 0 0 1 3 0v3a1.5 1.5 0 1 1-3 0m5 0V3a1.5 1.5 0 1 1 3 0v3a1.5 1.5 0 1 1-3 0m5 0V3a1.5 1.5 0 1 1 3 0v3a1.5 1.5 0 1 1-3 0"/></svg>