<svg xmlns="http://www.w3.org/2000/svg" width="32" height="32" fill="none" viewBox="0 0 32 32"><path fill="#000" d="M3.844 4.925c.616-.554 1.592-.474 2.18.179l19.952 22.159c.588.653.565 1.631-.05 2.185-.616.555-1.592.475-2.18-.178l-1.473-1.637q-.54.286-1.107.523a13.501 13.501 0 0 1-17.638-17.64c.338-.817.755-1.594 1.242-2.322L3.794 7.11c-.587-.653-.565-1.632.05-2.186m3.016 5.59a10.496 10.496 0 0 0 3.306 13.898A10.5 10.5 0 0 0 16 26.183a10.5 10.5 0 0 0 4.178-.876l-4.503-5.001-4.084 1.752a1.5 1.5 0 0 1-1.646-.318 1.5 1.5 0 0 1-.324-1.644l1.891-4.414zM16 2.184a13.515 13.515 0 0 1 13.5 13.5 13.5 13.5 0 0 1-1.648 6.46c-.468.857-1.628.912-2.282.186"/></svg>