<svg xmlns="http://www.w3.org/2000/svg" width="32" height="32" fill="none" viewBox="0 0 32 32"><path fill="#000" d="M27.335 15.683a1.5 1.5 0 1 0-2.671-1.365 9.4 9.4 0 0 1-3.458 3.705l-1.687-3.8A5.5 5.5 0 0 0 17.5 4.71V3a1.5 1.5 0 1 0-3 0v1.71a5.5 5.5 0 0 0-2.019 9.514L6.625 27.39A1.5 1.5 0 0 0 8 29.5a1.5 1.5 0 0 0 1.375-.891l2.959-6.658A12.4 12.4 0 0 0 16 22.5a12.9 12.9 0 0 0 3.674-.54l2.951 6.649A1.5 1.5 0 0 0 24 29.5a1.48 1.48 0 0 0 1.09-.462 1.5 1.5 0 0 0 .285-1.648l-2.939-6.613a12.42 12.42 0 0 0 4.899-5.095M16 7.5a2.5 2.5 0 1 1 0 5 2.5 2.5 0 0 1 0-5m0 12a9.5 9.5 0 0 1-2.44-.316l1.662-3.74c.516.075 1.04.075 1.556 0l1.666 3.75A10 10 0 0 1 16 19.5"/></svg>