<svg xmlns="http://www.w3.org/2000/svg" width="32" height="32" fill="none" viewBox="0 0 32 32"><path fill="#000" d="M19.073 8.294a16.33 16.33 0 0 1 0 15.412 1.5 1.5 0 1 1-2.647-1.412 13.34 13.34 0 0 0 0-12.588 1.499 1.499 0 1 1 2.645-1.412zm-6.528 1.382a1.5 1.5 0 0 0-.625 2.029 9.13 9.13 0 0 1 0 8.59 1.499 1.499 0 1 0 2.648 1.41 12.12 12.12 0 0 0 0-11.41 1.5 1.5 0 0 0-2.023-.619M29.5 16A13.5 13.5 0 1 1 16 2.5 13.515 13.515 0 0 1 29.5 16m-3 0A10.5 10.5 0 1 0 16 26.5 10.51 10.51 0 0 0 26.5 16"/></svg>