<svg xmlns="http://www.w3.org/2000/svg" width="32" height="32" fill="none" viewBox="0 0 32 32"><path fill="#000" d="M9.5 5V2a1.5 1.5 0 1 1 3 0v3a1.5 1.5 0 1 1-3 0M16 6.5A1.5 1.5 0 0 0 17.5 5V2a1.5 1.5 0 1 0-3 0v3A1.5 1.5 0 0 0 16 6.5m5 0A1.5 1.5 0 0 0 22.5 5V2a1.5 1.5 0 1 0-3 0v3A1.5 1.5 0 0 0 21 6.5m10.4 6.7L28 15.75V23a4.5 4.5 0 0 1-4.5 4.5h-15A4.5 4.5 0 0 1 4 23v-7.25L.6 13.2a1.5 1.5 0 1 1 1.8-2.4L4 12v-1a2.5 2.5 0 0 1 2.5-2.5h19A2.5 2.5 0 0 1 28 11v1l1.6-1.2a1.5 1.5 0 1 1 1.8 2.4M25 11.5H7V23a1.5 1.5 0 0 0 1.5 1.5h15A1.5 1.5 0 0 0 25 23z"/></svg>