<svg xmlns="http://www.w3.org/2000/svg" width="32" height="32" fill="none" viewBox="0 0 32 32"><path fill="#000" d="M29 14.5h-.59A12.526 12.526 0 0 0 17.5 3.59V3a1.5 1.5 0 1 0-3 0v.59A12.526 12.526 0 0 0 3.59 14.5H3a1.5 1.5 0 1 0 0 3h.59A12.526 12.526 0 0 0 14.5 28.41V29a1.5 1.5 0 1 0 3 0v-.59A12.526 12.526 0 0 0 28.41 17.5H29a1.5 1.5 0 1 0 0-3M17.5 25.375V25a1.5 1.5 0 1 0-3 0v.375A9.52 9.52 0 0 1 6.625 17.5H7a1.5 1.5 0 1 0 0-3h-.375A9.52 9.52 0 0 1 14.5 6.625V7a1.5 1.5 0 1 0 3 0v-.375a9.52 9.52 0 0 1 7.875 7.875H25a1.5 1.5 0 1 0 0 3h.375a9.52 9.52 0 0 1-7.875 7.875M16 10.5a5.5 5.5 0 1 0 5.5 5.5 5.506 5.506 0 0 0-5.5-5.5m0 8a2.5 2.5 0 1 1 0-5 2.5 2.5 0 0 1 0 5"/></svg>