<svg xmlns="http://www.w3.org/2000/svg" width="32" height="32" fill="none" viewBox="0 0 32 32"><path fill="#000" d="M30.808 9.146a2 2 0 0 0-2.218-.282l-5.863 2.922-5-8.311a2.014 2.014 0 0 0-3.45 0l-5 8.311-5.863-2.921a2.012 2.012 0 0 0-2.812 2.429l4.625 14.168a1.5 1.5 0 0 0 2.19.827C7.446 26.27 10.548 24.5 16 24.5s8.554 1.774 8.578 1.788a1.5 1.5 0 0 0 2.196-.823l4.625-14.161a2 2 0 0 0-.591-2.158M24.44 22.94C22.773 22.3 19.9 21.5 16 21.5s-6.773.802-8.441 1.442L4.184 12.605l4.566 2.271a2.024 2.024 0 0 0 2.625-.764L16 6.425l4.625 7.688a2.02 2.02 0 0 0 2.625.762l4.565-2.275z"/></svg>