<svg xmlns="http://www.w3.org/2000/svg" width="32" height="32" fill="none" viewBox="0 0 32 32"><path fill="#000" d="M22.393 3.01C20.66 2.036 18.39 1.5 16 1.5s-4.66.536-6.392 1.51C7.604 4.138 6.5 5.733 6.5 7.5v17c0 1.767 1.104 3.363 3.108 4.49 1.732.974 4.002 1.51 6.392 1.51s4.66-.536 6.392-1.51c2-1.125 3.108-2.722 3.108-4.49v-17c0-1.767-1.104-3.362-3.108-4.49M11.078 5.625C12.35 4.91 14.144 4.5 16 4.5s3.65.41 4.921 1.125c1 .565 1.579 1.25 1.579 1.875s-.575 1.31-1.579 1.875C19.65 10.09 17.856 10.5 16 10.5s-3.65-.41-4.921-1.125C10.075 8.81 9.5 8.125 9.5 7.5s.575-1.31 1.579-1.875m9.842 20.75C19.65 27.09 17.856 27.5 16 27.5s-3.65-.41-4.921-1.125C10.075 25.81 9.5 25.125 9.5 24.5V11.925l.107.065c1.733.974 4.003 1.51 6.393 1.51s4.66-.536 6.392-1.51l.108-.065V24.5c0 .625-.575 1.31-1.579 1.875"/></svg>