<svg xmlns="http://www.w3.org/2000/svg" width="32" height="32" fill="none" viewBox="0 0 32 32"><path fill="#000" d="M3.5 12v8.5a.5.5 0 0 0 .5.5h9.5a1.5 1.5 0 1 1 0 3h-1v1.5h1a1.5 1.5 0 1 1 0 3h-5a1.5 1.5 0 1 1 0-3h1V24H4a3.5 3.5 0 0 1-3.5-3.5V12A3.5 3.5 0 0 1 4 8.5h9.5a1.5 1.5 0 0 1 0 3H4a.5.5 0 0 0-.5.5m19-1h3a1.5 1.5 0 1 0 0-3h-3a1.5 1.5 0 0 0 0 3m0 4.5h3a1.5 1.5 0 1 0 0-3h-3a1.5 1.5 0 1 0 0 3m9-9.5v20a2.5 2.5 0 0 1-2.5 2.5H19a2.5 2.5 0 0 1-2.5-2.5V6A2.5 2.5 0 0 1 19 3.5h10A2.5 2.5 0 0 1 31.5 6m-3 .5h-9v19h9zM24 20a2 2 0 1 0 0 4 2 2 0 0 0 0-4"/></svg>