<svg xmlns="http://www.w3.org/2000/svg" width="32" height="32" fill="none" viewBox="0 0 32 32"><path fill="#000" d="M14.25 12.773a2.483 2.483 0 0 0 3.51 0l3.514-3.523a2.483 2.483 0 0 0 0-3.509L17.75 2.225a2.486 2.486 0 0 0-3.51 0L10.726 5.75a2.483 2.483 0 0 0 0 3.509zM16 4.713 18.785 7.5 16 10.285 13.215 7.5zm13.774 9.537-3.524-3.524a2.485 2.485 0 0 0-3.51 0l-3.514 3.524a2.484 2.484 0 0 0 0 3.51l3.524 3.514a2.486 2.486 0 0 0 3.51 0l3.514-3.524a2.483 2.483 0 0 0 0-3.51zM24.5 18.785 21.715 16l2.785-2.785L27.285 16zM13.5 16a2.47 2.47 0 0 0-.726-1.75L9.25 10.726a2.485 2.485 0 0 0-3.51 0L2.226 14.25a2.484 2.484 0 0 0 0 3.51l3.524 3.514a2.486 2.486 0 0 0 3.51 0l3.514-3.524A2.47 2.47 0 0 0 13.5 16m-6 2.785L4.715 16 7.5 13.215 10.285 16zm10.25.441a2.486 2.486 0 0 0-3.51 0l-3.514 3.524a2.483 2.483 0 0 0 0 3.509l3.524 3.516a2.486 2.486 0 0 0 3.51 0l3.514-3.525a2.48 2.48 0 0 0 0-3.509zM16 27.286 13.215 24.5 16 21.715l2.785 2.785z"/></svg>