<svg xmlns="http://www.w3.org/2000/svg" width="32" height="32" fill="none" viewBox="0 0 32 32"><path fill="#000" d="M13.5 17a2 2 0 1 1-3.999 0 2 2 0 0 1 4 0m7-2a2 2 0 1 0 0 4 2 2 0 0 0 0-4m9.509 9.57-8.375 3.714a2.52 2.52 0 0 1-3.384-1.421l-1.067-2.892q-.587.029-1.182.03-.595-.002-1.18-.03l-1.07 2.892a2.525 2.525 0 0 1-3.386 1.42L1.99 24.57a2.49 2.49 0 0 1-1.412-2.894l3.69-14.551a2.5 2.5 0 0 1 2.028-1.851l4.508-.742a2.533 2.533 0 0 1 2.849 1.856l.55 2.176a26 26 0 0 1 3.593 0l.552-2.176a2.53 2.53 0 0 1 2.848-1.856l4.508.742a2.5 2.5 0 0 1 2.027 1.851l3.692 14.548a2.49 2.49 0 0 1-1.414 2.897M28.41 22 24.904 8.183l-3.759-.618-.355 1.396c.363.073.723.15 1.076.24a1.5 1.5 0 1 1-.732 2.909A21 21 0 0 0 16 11.5a21 21 0 0 0-5.134.61 1.5 1.5 0 0 1-.732-2.909c.354-.09.714-.167 1.076-.24l-.354-1.396-3.76.617L3.59 22l7.528 3.337.625-1.696a22 22 0 0 1-1.61-.338 1.501 1.501 0 0 1 .732-2.91c1.68.412 3.405.616 5.135.607 1.73.008 3.454-.197 5.134-.61a1.5 1.5 0 0 1 .732 2.91q-.79.198-1.61.339l.625 1.696z"/></svg>