<svg xmlns="http://www.w3.org/2000/svg" width="32" height="32" fill="none" viewBox="0 0 32 32"><path fill="#000" d="M13.5 17a2 2 0 1 1-4 0 2 2 0 0 1 4 0m7-2a2 2 0 1 0 0 4 2 2 0 0 0 0-4m8.53 3.273c-.33.15-.689.23-1.051.23q-.242 0-.48-.048V23a5.506 5.506 0 0 1-5.5 5.5H10A5.506 5.506 0 0 1 4.5 23v-4.546q-.237.049-.48.049a2.5 2.5 0 0 1-1.05-.23 2.464 2.464 0 0 1-1.424-2.738l2.052-11a2.5 2.5 0 0 1 3.064-1.961l.059.016 6.5 1.909h5.567l6.5-1.909.06-.016a2.5 2.5 0 0 1 3.063 1.965l2.052 11a2.464 2.464 0 0 1-1.432 2.734m-7.5-11.454 5.595 7.234-1.57-8.417zM4.875 14.053l5.595-7.234-4.025-1.183zM24.5 23v-7.44L18.264 7.5h-4.528L7.5 15.56V23a2.5 2.5 0 0 0 2.5 2.5h4.5v-.875l-1.56-1.561a1.503 1.503 0 0 1 2.125-2.125l.935.936.939-.94a1.502 1.502 0 1 1 2.125 2.125L17.5 24.625v.875H22a2.5 2.5 0 0 0 2.5-2.5"/></svg>