<svg xmlns="http://www.w3.org/2000/svg" width="32" height="32" fill="none" viewBox="0 0 32 32"><path fill="#000" d="m27.298 26.015-.022-.046L21.71 14.11l2.416-3.79.021-.034a2.5 2.5 0 0 0-.057-2.661L21.5 3.93V1.5a1.5 1.5 0 0 0-3 0v2.375l-.547.684a2.5 2.5 0 0 1-3.905 0l-.548-.684V1.5a1.5 1.5 0 0 0-3 0v2.43L7.914 7.625q-.03.044-.058.089a2.5 2.5 0 0 0 0 2.572c0 .011.014.023.021.034l2.414 3.79-5.567 11.859-.022.046A2.5 2.5 0 0 0 7 29.5h18a2.5 2.5 0 0 0 2.299-3.485zM16 8.5a5.47 5.47 0 0 0 3.901-1.625l1.5 2.137-2.224 3.488h-6.354l-2.22-3.485 1.5-2.137A5.47 5.47 0 0 0 16 8.5m-8.211 18 5.164-11h6.095l5.163 11z"/></svg>