<svg xmlns="http://www.w3.org/2000/svg" width="32" height="32" fill="none" viewBox="0 0 32 32"><path fill="#000" d="M16 2.5A13.5 13.5 0 1 0 29.5 16 13.515 13.515 0 0 0 16 2.5m10.391 12h-.39a21.6 21.6 0 0 0-5.174.633 21.4 21.4 0 0 0-1.327-2.96 21.5 21.5 0 0 0 4.113-3.393 10.47 10.47 0 0 1 2.778 5.72M21.25 6.913a18.6 18.6 0 0 1-3.375 2.735 21.7 21.7 0 0 0-3.822-3.964 10.44 10.44 0 0 1 7.197 1.228m-10.557.033a18.7 18.7 0 0 1 4.487 4.109A18.5 18.5 0 0 1 8 12.5q-.94-.001-1.867-.094a10.56 10.56 0 0 1 4.558-5.46zM5.5 16q.002-.324.021-.643Q6.756 15.5 8 15.5a21.5 21.5 0 0 0 8.855-1.902q.649 1.186 1.115 2.456-1.39.557-2.69 1.305a21.6 21.6 0 0 0-6.71 6.055A10.47 10.47 0 0 1 5.5 16m5.471 9.215a18.6 18.6 0 0 1 5.808-5.257 18 18 0 0 1 2-.993 18.6 18.6 0 0 1-.029 7.168 10.48 10.48 0 0 1-7.777-.918zm11.037-.611q.106-1.065.107-2.143a21.6 21.6 0 0 0-.465-4.442A18.6 18.6 0 0 1 26 17.5h.389a10.5 10.5 0 0 1-4.381 7.104"/></svg>