<svg xmlns="http://www.w3.org/2000/svg" width="32" height="32" fill="none" viewBox="0 0 32 32"><path fill="#000" d="M29.854 18.266 25.135 15l4.719-3.266a1.5 1.5 0 0 0 0-2.468l-6.5-4.5a1.5 1.5 0 0 0-1.708 0L16 8.676l-5.646-3.91a1.5 1.5 0 0 0-1.708 0l-6.5 4.5a1.5 1.5 0 0 0 0 2.468L6.866 15l-4.72 3.266a1.5 1.5 0 0 0 0 2.468l6.5 4.5a1.5 1.5 0 0 0 1.708 0L16 21.324l5.646 3.91a1.5 1.5 0 0 0 1.708 0l6.5-4.5a1.5 1.5 0 0 0 0-2.468M16 17.676 12.135 15 16 12.324 19.865 15zm6.5-9.851 3.865 2.675-3.865 2.675-3.865-2.675zm-13 0 3.865 2.675L9.5 13.175 5.635 10.5zm0 14.35L5.635 19.5 9.5 16.825l3.865 2.675zm13 0L18.635 19.5l3.865-2.675 3.865 2.675zm-3.159 4.011a1.5 1.5 0 0 1-.375 2.088l-2.107 1.46a1.5 1.5 0 0 1-1.708 0l-2.107-1.46a1.5 1.5 0 1 1 1.706-2.466l1.25.867 1.25-.867a1.5 1.5 0 0 1 2.091.378"/></svg>