<svg xmlns="http://www.w3.org/2000/svg" width="32" height="32" fill="none" viewBox="0 0 32 32"><path fill="#000" d="M16.86.771a1.5 1.5 0 0 0-1.72 0 32.4 32.4 0 0 0-5.273 4.875C6.358 9.68 4.5 13.954 4.5 18a11.5 11.5 0 1 0 23 0C27.5 8.33 17.295 1.075 16.86.771M24.26 20H17.5v-2h7c0 .674-.081 1.345-.24 2m-6.76-5v-2h5.875q.43.974.71 2zm2.413-7.339A25 25 0 0 1 21.71 10H17.5V5.183q1.276 1.17 2.413 2.478M7.5 18c0-4.164 2.5-7.921 4.588-10.339A30 30 0 0 1 14.5 5.183v21.182A8.51 8.51 0 0 1 7.5 18m10 8.365V23h5.368a8.5 8.5 0 0 1-5.368 3.365"/></svg>