<svg xmlns="http://www.w3.org/2000/svg" width="32" height="32" fill="none" viewBox="0 0 32 32"><path fill="#000" d="M16.86.771a1.5 1.5 0 0 0-1.72 0 32.4 32.4 0 0 0-5.273 4.875C6.358 9.68 4.5 13.954 4.5 18a11.5 11.5 0 1 0 23 0C27.5 8.33 17.295 1.075 16.86.771M23.951 21H8.05a8.4 8.4 0 0 1-.488-2h16.875a8.4 8.4 0 0 1-.485 2M12.088 7.661A31 31 0 0 1 16 3.89a31 31 0 0 1 3.913 3.772c1.75 2.024 3.783 4.987 4.4 8.339H7.688c.616-3.352 2.648-6.315 4.4-8.339M16 26.5A8.47 8.47 0 0 1 9.985 24h12.03A8.47 8.47 0 0 1 16 26.5"/></svg>