<svg xmlns="http://www.w3.org/2000/svg" width="32" height="32" fill="none" viewBox="0 0 32 32"><path fill="#000" d="M16.86.771a1.5 1.5 0 0 0-1.72 0 32.4 32.4 0 0 0-5.273 4.875C6.358 9.68 4.5 13.953 4.5 18a11.5 11.5 0 1 0 23 0C27.5 8.33 17.295 1.075 16.86.771M16 26.5A8.51 8.51 0 0 1 7.5 18c0-4.164 2.5-7.921 4.588-10.339A31 31 0 0 1 16 3.89a31 31 0 0 1 3.913 3.772C22 10.08 24.5 13.836 24.5 18a8.51 8.51 0 0 1-8.5 8.5m6.203-6.55a6.5 6.5 0 0 1-4.25 4.25 1.5 1.5 0 1 1-.9-2.863 3.5 3.5 0 0 0 2.29-2.29 1.5 1.5 0 0 1 2.862.9z"/></svg>