<svg xmlns="http://www.w3.org/2000/svg" width="32" height="32" fill="none" viewBox="0 0 32 32"><path fill="#000" d="M27.11 25.991a1.501 1.501 0 1 1-2.22 2.018l-4.169-4.585q-.357.075-.721.076a3.5 3.5 0 0 1-3.5-3.5q0-.557.106-1.102l-4.471-4.92A1.5 1.5 0 0 1 9.5 13a6.5 6.5 0 0 1 .219-1.679L8.19 9.64A8.5 8.5 0 0 0 7.5 13c0 3.125.947 4.038 2.044 5.095C10.64 19.153 12 20.464 12 23.5a4 4 0 0 0 4 4c1.125 0 2.024-.462 2.844-1.455a1.5 1.5 0 0 1 2.312 1.91C19.761 29.644 18.026 30.5 16 30.5a7.01 7.01 0 0 1-7-7c0-1.761-.579-2.32-1.539-3.25C6.141 18.983 4.5 17.399 4.5 13a11.4 11.4 0 0 1 1.531-5.735L4.89 6.015a1.502 1.502 0 0 1 2.22-2.024zM12.418 5.29A8.509 8.509 0 0 1 24.5 13a1.5 1.5 0 1 0 2.999 0A11.5 11.5 0 0 0 11.151 2.57a1.5 1.5 0 0 0 1.267 2.719m8.136 10.125q.167.04.34.04a1.5 1.5 0 0 0 1.46-1.162c.098-.423.147-.857.146-1.292a6.51 6.51 0 0 0-7.139-6.469 1.5 1.5 0 1 0 .291 2.986q.175-.016.348-.017a3.5 3.5 0 0 1 3.5 3.5q0 .309-.067.61a1.5 1.5 0 0 0 1.12 1.8z"/></svg>