<svg xmlns="http://www.w3.org/2000/svg" width="32" height="32" fill="none" viewBox="0 0 32 32"><path fill="#000" d="M27.5 13a1.5 1.5 0 1 1-3 0 8.5 8.5 0 1 0-17 0c0 3.125.947 4.038 2.044 5.095C10.64 19.153 12 20.464 12 23.5a4 4 0 0 0 4 4c1.125 0 2.024-.462 2.844-1.455a1.5 1.5 0 0 1 2.312 1.91C19.761 29.644 18.026 30.5 16 30.5a7.01 7.01 0 0 1-7-7c0-1.761-.579-2.32-1.539-3.25C6.141 18.983 4.5 17.399 4.5 13a11.5 11.5 0 1 1 23 0m-5.016 6.701a1.5 1.5 0 0 0-2.05.548.5.5 0 0 1-.934-.25c0-.951.456-1.608 1.2-2.6C21.5 16.33 22.5 15 22.5 13a6.5 6.5 0 1 0-13 0 1.5 1.5 0 0 0 3 0 3.5 3.5 0 1 1 7 0c0 .951-.456 1.608-1.2 2.6-.8 1.069-1.8 2.4-1.8 4.4a3.5 3.5 0 0 0 6.531 1.75 1.5 1.5 0 0 0-.547-2.049"/></svg>