<svg xmlns="http://www.w3.org/2000/svg" width="32" height="32" fill="none" viewBox="0 0 32 32"><path fill="#000" d="M30.5 14a1.5 1.5 0 0 0-1.5 1.5v2h-2v-1a2.5 2.5 0 0 0-2.5-2.5h-1.375l-4.271-4.267A2.48 2.48 0 0 0 17.086 9H15.5V7h2a1.5 1.5 0 0 0 0-3h-7a1.5 1.5 0 0 0 0 3h2v2h-5A2.5 2.5 0 0 0 5 11.5v6H3v-2a1.5 1.5 0 0 0-3 0v7a1.5 1.5 0 0 0 3 0v-2h2v1.586a2.48 2.48 0 0 0 .732 1.768l4.414 4.413a2.49 2.49 0 0 0 1.768.733h5.172a2.48 2.48 0 0 0 1.768-.733L23.125 24H24.5a2.5 2.5 0 0 0 2.5-2.5v-1h2v2a1.5 1.5 0 1 0 3 0v-7a1.5 1.5 0 0 0-1.5-1.5M24 21h-1.086a2.48 2.48 0 0 0-1.768.733L16.875 26h-4.75L8 21.875V12h8.875l4.267 4.267a2.48 2.48 0 0 0 1.772.733H24z"/></svg>