<svg xmlns="http://www.w3.org/2000/svg" width="32" height="32" fill="none" viewBox="0 0 32 32"><path fill="#000" d="M10 13.5A1.5 1.5 0 0 1 8.5 15H3a1.5 1.5 0 1 1 0-3h5.5a1.5 1.5 0 0 1 1.5 1.5M8.5 17H3a1.5 1.5 0 1 0 0 3h5.5a1.5 1.5 0 1 0 0-3m0 5H3a1.5 1.5 0 1 0 0 3h5.5a1.5 1.5 0 1 0 0-3m10.25-5h-5.5a1.5 1.5 0 1 0 0 3h5.5a1.5 1.5 0 1 0 0-3m0 5h-5.5a1.5 1.5 0 1 0 0 3h5.5a1.5 1.5 0 1 0 0-3m4.75-12H29a1.5 1.5 0 0 0 0-3h-5.5a1.5 1.5 0 0 0 0 3m5.5 2h-5.5a1.5 1.5 0 1 0 0 3H29a1.5 1.5 0 1 0 0-3m0 5h-5.5a1.5 1.5 0 1 0 0 3H29a1.5 1.5 0 1 0 0-3m0 5h-5.5a1.5 1.5 0 1 0 0 3H29a1.5 1.5 0 1 0 0-3"/></svg>