<svg xmlns="http://www.w3.org/2000/svg" width="32" height="32" fill="none" viewBox="0 0 32 32"><path fill="#000" d="M28 4.5h-6.562a2.5 2.5 0 0 0-1.837.804L8.344 17.5H4A2.5 2.5 0 0 0 1.5 20v5A2.5 2.5 0 0 0 4 27.5h6.563a2.5 2.5 0 0 0 1.836-.804L23.656 14.5H28a2.5 2.5 0 0 0 2.5-2.5V7A2.5 2.5 0 0 0 28 4.5m-.5 7h-4.062a2.5 2.5 0 0 0-1.837.804L10.344 24.5H4.5v-4h4.063a2.5 2.5 0 0 0 1.836-.804L21.656 7.5H27.5zm1.561 9.439a1.503 1.503 0 0 1-2.125 2.125l-.436-.439V26a1.5 1.5 0 1 1-3 0v-3.375l-.439.44a1.503 1.503 0 0 1-2.125-2.125l3-3a1.5 1.5 0 0 1 2.125 0z"/></svg>