<svg xmlns="http://www.w3.org/2000/svg" width="32" height="32" fill="none" viewBox="0 0 32 32"><path fill="#000" d="M20.939 11.061a1.503 1.503 0 0 1 2.125-2.125l.436.439V6a1.5 1.5 0 1 1 3 0v3.375l.439-.44a1.503 1.503 0 0 1 2.125 2.125l-3 3a1.5 1.5 0 0 1-2.125 0zM30.5 20v5a2.5 2.5 0 0 1-2.5 2.5h-6.562a2.5 2.5 0 0 1-1.838-.805L8.344 14.5H4A2.5 2.5 0 0 1 1.5 12V7A2.5 2.5 0 0 1 4 4.5h6.563a2.5 2.5 0 0 1 1.837.805L23.656 17.5H28a2.5 2.5 0 0 1 2.5 2.5m-3 .5h-4.062a2.5 2.5 0 0 1-1.838-.805L10.344 7.5H4.5v4h4.063a2.5 2.5 0 0 1 1.837.805L21.656 24.5H27.5z"/></svg>