<svg xmlns="http://www.w3.org/2000/svg" width="32" height="32" fill="none" viewBox="0 0 32 32"><path fill="#000" d="M27 4.5H5A2.5 2.5 0 0 0 2.5 7v20a1.5 1.5 0 0 0 2.171 1.341L8 26.677l3.329 1.664a1.5 1.5 0 0 0 1.342 0L16 26.677l3.329 1.664a1.5 1.5 0 0 0 1.342 0L24 26.677l3.329 1.664A1.498 1.498 0 0 0 29.5 27V7A2.5 2.5 0 0 0 27 4.5m-.5 20.073-1.829-.914a1.5 1.5 0 0 0-1.342 0L20 25.323l-3.329-1.664a1.5 1.5 0 0 0-1.342 0L12 25.323l-3.329-1.664a1.5 1.5 0 0 0-1.342 0l-1.829.914V7.5h21zM7.899 21.375a1.5 1.5 0 0 0 1.976-.774l.262-.601h3.726l.263.601a1.5 1.5 0 1 0 2.75-1.202l-3.5-8a1.5 1.5 0 0 0-2.75 0l-3.5 8a1.5 1.5 0 0 0 .773 1.976M12.55 17h-1.1l.55-1.258zM17 16a1.5 1.5 0 0 1 1.5-1.5h1v-1a1.5 1.5 0 1 1 3 0v1h1a1.5 1.5 0 1 1 0 3h-1v1a1.5 1.5 0 1 1-3 0v-1h-1A1.5 1.5 0 0 1 17 16"/></svg>