<svg xmlns="http://www.w3.org/2000/svg" width="32" height="32" fill="none" viewBox="0 0 32 32"><path fill="#000" d="M29.303 20.25a1.504 1.504 0 0 1-2.605 1.5l-2.108-3.687a16 16 0 0 1-3.771 1.732l.66 3.955a1.5 1.5 0 0 1-1.483 1.746 1.5 1.5 0 0 1-1.477-1.25l-.644-3.85a17 17 0 0 1-3.758 0l-.637 3.854a1.5 1.5 0 0 1-2.96-.5l.661-3.965a16 16 0 0 1-3.771-1.732L5.302 21.75a1.503 1.503 0 0 1-2.605-1.5L5 16.231a20 20 0 0 1-2.164-2.288 1.5 1.5 0 0 1 2.331-1.885C7.172 14.54 10.68 17.5 16 17.5s8.827-2.96 10.833-5.442a1.5 1.5 0 0 1 2.333 1.885A20 20 0 0 1 27 16.23z"/></svg>