<svg xmlns="http://www.w3.org/2000/svg" width="32" height="32" fill="none" viewBox="0 0 32 32"><path fill="#000" d="M31.375 15.391c-.046-.101-1.141-2.532-3.56-4.951C24.579 7.209 20.5 5.5 16 5.5S7.421 7.209 4.189 10.44C1.77 12.859.675 15.29.625 15.391a1.5 1.5 0 0 0 0 1.219c.046.102 1.141 2.532 3.561 4.951C7.421 24.793 11.5 26.5 16 26.5s8.579-1.707 11.81-4.939c2.42-2.419 3.515-4.849 3.561-4.951a1.5 1.5 0 0 0 .004-1.219m-5.757 4.125C22.934 22.16 19.697 23.5 16 23.5s-6.934-1.341-9.614-3.985A16.3 16.3 0 0 1 3.69 16a16.3 16.3 0 0 1 2.696-3.514C9.068 9.841 12.301 8.5 16 8.5s6.933 1.341 9.614 3.986A16.3 16.3 0 0 1 28.31 16a16.3 16.3 0 0 1-2.696 3.515zM16 10.5a5.5 5.5 0 1 0 5.5 5.5 5.506 5.506 0 0 0-5.5-5.5m0 8a2.5 2.5 0 1 1 0-5 2.5 2.5 0 0 1 0 5"/></svg>