<svg xmlns="http://www.w3.org/2000/svg" width="32" height="32" fill="none" viewBox="0 0 32 32"><path fill="#000" d="M28.5 8.405a4.97 4.97 0 0 0-1.564-3.565C24.99 3 21.84 3.063 19.911 4.991L17.81 7.105a3.5 3.5 0 0 0-4.455.411L12.23 8.641a2.5 2.5 0 0 0-.091 3.437l-6.027 6.027a5.47 5.47 0 0 0-1.487 5.055l-.938 2.149a2.21 2.21 0 0 0 .464 2.456 2.49 2.49 0 0 0 2.769.524l2.039-.892a5.49 5.49 0 0 0 4.931-1.51l6.03-6.033a2.5 2.5 0 0 0 3.434-.091l1.125-1.126a3.51 3.51 0 0 0 .407-4.465l2.154-2.166a4.96 4.96 0 0 0 1.46-3.601M11.769 23.764a2.5 2.5 0 0 1-2.5.625 1.5 1.5 0 0 0-1.04.059l-1.104.474.461-1.047a1.5 1.5 0 0 0 .046-1.08 2.49 2.49 0 0 1 .602-2.569l6.025-6.027 3.535 3.537zM24.91 9.889l-3.171 3.19a1.5 1.5 0 0 0 0 2.118l.61.612a.5.5 0 0 1 0 .707l-.768.769-6.875-6.881.768-.768a.5.5 0 0 1 .706 0l.613.614a1.5 1.5 0 0 0 1.636.325c.182-.075.348-.186.488-.325l3.117-3.135c.788-.787 2.06-.829 2.839-.092a2 2 0 0 1 .037 2.875z"/></svg>