<svg xmlns="http://www.w3.org/2000/svg" width="32" height="32" fill="none" viewBox="0 0 32 32"><path fill="#000" d="M11 11h10a1.5 1.5 0 0 1 0 3H11a1.5 1.5 0 1 1 0-3m10 5H11a1.5 1.5 0 0 0 0 3h10a1.5 1.5 0 1 0 0-3m11-3v3a4.507 4.507 0 0 1-4.5 4.5h-.762c-.808 1.74-2.25 3.273-4.274 4.53-2.393 1.482-4.918 2.175-5.891 2.404a2.5 2.5 0 0 1-1.146 0c-1.5-.354-7.962-2.125-10.177-6.934H4.5A4.506 4.506 0 0 1 0 16v-3a4.506 4.506 0 0 1 4.5-4.5h.26a2.5 2.5 0 0 1 1.311-1.209l9-3.602a2.49 2.49 0 0 1 1.858 0l9 3.602A2.5 2.5 0 0 1 27.24 8.5h.26A4.506 4.506 0 0 1 32 13M4.514 17.5a10 10 0 0 1-.014-.481V11.5A1.5 1.5 0 0 0 3 13v3a1.5 1.5 0 0 0 1.5 1.5zM24.5 9.944 16 6.54 7.5 9.944v7.073c0 2.137 1.216 3.973 3.615 5.46 1.966 1.22 4.115 1.818 4.885 2.007.77-.189 2.919-.788 4.885-2.007 2.399-1.487 3.615-3.323 3.615-5.46zM29 13a1.5 1.5 0 0 0-1.5-1.5v5.524c0 .161 0 .321-.015.481h.015a1.5 1.5 0 0 0 1.5-1.5z"/></svg>