<svg xmlns="http://www.w3.org/2000/svg" width="32" height="32" fill="none" viewBox="0 0 32 32"><path fill="#000" d="M17.5 15.5V27a1.5 1.5 0 1 1-3 0V15.5a1.5 1.5 0 1 1 3 0M25 24a1.5 1.5 0 0 0-1.5 1.5V27a1.5 1.5 0 1 0 3 0v-1.5A1.5 1.5 0 0 0 25 24m3-5h-1.5V5a1.5 1.5 0 1 0-3 0v14H22a1.5 1.5 0 1 0 0 3h6a1.5 1.5 0 1 0 0-3M7 20a1.5 1.5 0 0 0-1.5 1.5V27a1.5 1.5 0 0 0 3 0v-5.5A1.5 1.5 0 0 0 7 20m3-5H8.5V5a1.5 1.5 0 0 0-3 0v10H4a1.5 1.5 0 1 0 0 3h6a1.5 1.5 0 1 0 0-3m9-6h-1.5V5a1.5 1.5 0 1 0-3 0v4H13a1.5 1.5 0 0 0 0 3h6a1.5 1.5 0 1 0 0-3"/></svg>