<svg xmlns="http://www.w3.org/2000/svg" width="32" height="32" fill="none" viewBox="0 0 32 32"><path fill="#000" d="M29.606 16.75a8 8 0 0 0-10.929-5.264l1.778-7.096a1.5 1.5 0 0 0-.646-1.625 8 8 0 0 0-9.06 13.175l-7.034 2.009a1.5 1.5 0 0 0-1.086 1.375 8 8 0 0 0 15.945 1.25l5.25 5.087a1.5 1.5 0 0 0 1.732.25 8 8 0 0 0 4.05-9.161M14.5 16a1.5 1.5 0 1 1 3 0 1.5 1.5 0 0 1-3 0m1-11.5a5 5 0 0 1 1.75.316l-1.675 6.705a4.5 4.5 0 0 0-3.231 1.86A5 5 0 0 1 15.5 4.5m-2.375 19.512A5 5 0 0 1 5.687 20.5l6.648-1.899a4.5 4.5 0 0 0 3.225 1.875 4.98 4.98 0 0 1-2.435 3.536m13.087-2.695c-.299.52-.689.98-1.15 1.362l-4.97-4.804a4.49 4.49 0 0 0 .005-3.729 5 5 0 0 1 6.112 7.175z"/></svg>