<svg xmlns="http://www.w3.org/2000/svg" width="32" height="32" fill="none" viewBox="0 0 32 32"><path fill="#000" d="M25 20.5v1h1.5a1.5 1.5 0 1 1 0 3H25V26a1.5 1.5 0 1 1-3 0v-7a1.5 1.5 0 0 1 1.5-1.5h4a1.5 1.5 0 1 1 0 3zm-13.5 1a4 4 0 0 1-4 4H7v.5a1.5 1.5 0 0 1-3 0v-7a1.5 1.5 0 0 1 1.5-1.5h2a4 4 0 0 1 4 4m-3 0a1 1 0 0 0-1-1H7v2h.5a1 1 0 0 0 1-1m12.5 1a5 5 0 0 1-5 5h-2a1.5 1.5 0 0 1-1.5-1.5v-7a1.5 1.5 0 0 1 1.5-1.5h2a5 5 0 0 1 5 5m-3 0a2 2 0 0 0-2-2h-.5v4h.5a2 2 0 0 0 2-2m-13.5-9V5A2.5 2.5 0 0 1 7 2.5h12a1.5 1.5 0 0 1 1.061.44l7 7A1.5 1.5 0 0 1 27.5 11v2.5a1.5 1.5 0 1 1-3 0V13h-6a1.5 1.5 0 0 1-1.5-1.5v-6H7.5v8a1.5 1.5 0 0 1-3 0M20 7.125V10h2.875z"/></svg>