<svg xmlns="http://www.w3.org/2000/svg" width="32" height="32" fill="none" viewBox="0 0 32 32"><path fill="#000" d="M16 19a1.5 1.5 0 0 1-1.5 1.5h-.25V26a1.5 1.5 0 1 1-3 0v-5.5H11a1.5 1.5 0 1 1 0-3h3.5A1.5 1.5 0 0 1 16 19m-9-1.5A1.5 1.5 0 0 0 5.5 19v2h-1v-2a1.5 1.5 0 0 0-3 0v7a1.5 1.5 0 0 0 3 0v-2h1v2a1.5 1.5 0 0 0 3 0v-7A1.5 1.5 0 0 0 7 17.5m23.5 7H30V19a1.5 1.5 0 1 0-3 0v7a1.5 1.5 0 0 0 1.5 1.5h2a1.5 1.5 0 1 0 0-3m-5.6-6.945a1.5 1.5 0 0 0-1.686.674L21.5 21.085l-1.714-2.856A1.5 1.5 0 0 0 17 19v7a1.5 1.5 0 1 0 3 0v-1.585l.214.356a1.5 1.5 0 0 0 2.572 0l.214-.356V26a1.5 1.5 0 1 0 3 0v-7a1.5 1.5 0 0 0-1.1-1.445M26 15a1.5 1.5 0 0 1-1.5-1.5V13h-6a1.5 1.5 0 0 1-1.5-1.5v-6H7.5v8a1.5 1.5 0 0 1-3 0V5A2.5 2.5 0 0 1 7 2.5h12a1.5 1.5 0 0 1 1.061.44l7 7A1.5 1.5 0 0 1 27.5 11v2.5A1.5 1.5 0 0 1 26 15m-3.125-5L20 7.125V10z"/></svg>