<svg xmlns="http://www.w3.org/2000/svg" width="32" height="32" fill="none" viewBox="0 0 32 32"><path fill="#000" d="M10.5 28A1.5 1.5 0 0 1 9 29.5H7A2.5 2.5 0 0 1 4.5 27v-4a1.5 1.5 0 0 1 3 0v3.5H9a1.5 1.5 0 0 1 1.5 1.5m17-17v6a1.5 1.5 0 1 1-3 0v-4h-6a1.5 1.5 0 0 1-1.5-1.5v-6h-2a1.5 1.5 0 0 1 0-3h4a1.5 1.5 0 0 1 1.061.439l7 7A1.5 1.5 0 0 1 27.5 11M20 10h2.875L20 7.125zM10 2.5H7A2.5 2.5 0 0 0 4.5 5v3a1.5 1.5 0 0 0 3 0V5.5H10a1.5 1.5 0 0 0 0-3m16 18a1.5 1.5 0 0 0-1.5 1.5v4.5H24a1.5 1.5 0 1 0 0 3h1a2.5 2.5 0 0 0 2.5-2.5v-5a1.5 1.5 0 0 0-1.5-1.5m-20-1A1.5 1.5 0 0 0 7.5 18v-5a1.5 1.5 0 0 0-3 0v5A1.5 1.5 0 0 0 6 19.5m13 7h-5a1.5 1.5 0 1 0 0 3h5a1.5 1.5 0 1 0 0-3"/></svg>