<svg xmlns="http://www.w3.org/2000/svg" width="32" height="32" fill="none" viewBox="0 0 32 32"><path fill="#000" d="M15 17.5h-2a1.5 1.5 0 0 0-1.5 1.5v7a1.5 1.5 0 1 0 3 0v-.5h.5a4 4 0 1 0 0-8m0 5h-.5v-2h.5a1 1 0 0 1 0 2m13 2.609a1.5 1.5 0 0 1-.416 1.037A4.25 4.25 0 0 1 24.5 27.5c-2.481 0-4.5-2.242-4.5-5s2.019-5 4.5-5c.834.002 1.65.255 2.339.725a1.5 1.5 0 1 1-1.678 2.486 1.17 1.17 0 0 0-.661-.211c-.812 0-1.5.916-1.5 2s.688 2 1.5 2q.172 0 .337-.052A1.5 1.5 0 0 1 26 22h.5a1.5 1.5 0 0 1 1.5 1.5zM10 19v4.75a3.75 3.75 0 0 1-7.5 0 1.5 1.5 0 0 1 3 0 .75.75 0 1 0 1.5 0V19a1.5 1.5 0 0 1 3 0m-4-4a1.5 1.5 0 0 0 1.5-1.5v-8H17v6a1.5 1.5 0 0 0 1.5 1.5h6v.5a1.5 1.5 0 1 0 3 0V11a1.5 1.5 0 0 0-.439-1.06l-7-7A1.5 1.5 0 0 0 19 2.5H7A2.5 2.5 0 0 0 4.5 5v8.5A1.5 1.5 0 0 0 6 15m14-7.875L22.875 10H20z"/></svg>