<svg xmlns="http://www.w3.org/2000/svg" width="32" height="32" fill="none" viewBox="0 0 32 32"><path fill="#000" d="M6 17.5H4A1.5 1.5 0 0 0 2.5 19v7A1.5 1.5 0 0 0 4 27.5h2a5 5 0 0 0 0-10m0 7h-.5v-4H6a2 2 0 1 1 0 4m22.538-.475a1.5 1.5 0 0 1 .046 2.125A4.25 4.25 0 0 1 25.5 27.5c-2.481 0-4.5-2.242-4.5-5s2.019-5 4.5-5a4.25 4.25 0 0 1 3.084 1.354 1.5 1.5 0 1 1-2.168 2.075 1.29 1.29 0 0 0-.916-.429c-.812 0-1.5.916-1.5 2s.688 2 1.5 2a1.28 1.28 0 0 0 .916-.429 1.5 1.5 0 0 1 2.122-.046M16 17.5c-2.481 0-4.5 2.242-4.5 5s2.019 5 4.5 5 4.5-2.242 4.5-5-2.019-5-4.5-5m0 7c-.812 0-1.5-.916-1.5-2s.688-2 1.5-2 1.5.916 1.5 2-.687 2-1.5 2M6 15a1.5 1.5 0 0 0 1.5-1.5v-8H17v6a1.5 1.5 0 0 0 1.5 1.5h6v.5a1.5 1.5 0 1 0 3 0V11a1.5 1.5 0 0 0-.439-1.06l-7-7A1.5 1.5 0 0 0 19 2.5H7A2.5 2.5 0 0 0 4.5 5v8.5A1.5 1.5 0 0 0 6 15m14-7.875L22.875 10H20z"/></svg>