<svg xmlns="http://www.w3.org/2000/svg" width="32" height="32" fill="none" viewBox="0 0 32 32"><path fill="#000" d="M23.5 17.5h-2A1.5 1.5 0 0 0 20 19v7a1.5 1.5 0 1 0 3 0v-.5h.5a4 4 0 1 0 0-8m0 5H23v-2h.5a1 1 0 0 1 0 2m-6-3.5v7a1.5 1.5 0 1 1-3 0v-7a1.5 1.5 0 1 1 3 0M12 26a1.5 1.5 0 0 1-1.5 1.5h-4a1.5 1.5 0 0 1-1.303-2.244L7.916 20.5H6.5a1.5 1.5 0 1 1 0-3h4a1.5 1.5 0 0 1 1.303 2.25L9.085 24.5H10.5A1.5 1.5 0 0 1 12 26M27.061 9.94l-7-7A1.5 1.5 0 0 0 19 2.5H7A2.5 2.5 0 0 0 4.5 5v8.5a1.5 1.5 0 0 0 3 0v-8H17v6a1.5 1.5 0 0 0 1.5 1.5h6v.5a1.5 1.5 0 1 0 3 0V11a1.5 1.5 0 0 0-.439-1.06M20 10V7.125L22.875 10z"/></svg>