<svg xmlns="http://www.w3.org/2000/svg" width="32" height="32" fill="none" viewBox="0 0 32 32"><path fill="#000" d="M15 21h-.5v-.5a4 4 0 1 0-8 0v.5H6a1.5 1.5 0 0 0-1.5 1.5V28A1.5 1.5 0 0 0 6 29.5h9a1.5 1.5 0 0 0 1.5-1.5v-5.5A1.5 1.5 0 0 0 15 21m-5.5-.5a1 1 0 1 1 2 0v.5h-2zm4 6h-6V24h6zM27.061 9.94l-7-7A1.5 1.5 0 0 0 19 2.5H7A2.5 2.5 0 0 0 4.5 5v9.5a1.5 1.5 0 0 0 3 0v-9H17v6a1.5 1.5 0 0 0 1.5 1.5h6v13.5h-4a1.5 1.5 0 1 0 0 3H25a2.5 2.5 0 0 0 2.5-2.5V11a1.5 1.5 0 0 0-.439-1.06M20 7.125 22.875 10H20z"/></svg>