<svg xmlns="http://www.w3.org/2000/svg" width="32" height="32" fill="none" viewBox="0 0 32 32"><path fill="#000" d="M6 22.5c0 1.084.688 2 1.5 2a1.28 1.28 0 0 0 .916-.429 1.5 1.5 0 1 1 2.168 2.075A4.25 4.25 0 0 1 7.5 27.5c-2.481 0-4.5-2.25-4.5-5s2.019-5 4.5-5a4.25 4.25 0 0 1 3.084 1.354 1.5 1.5 0 1 1-2.168 2.075A1.29 1.29 0 0 0 7.5 20.5c-.812 0-1.5.914-1.5 2m12.189-.714c-.64-.431-1.415-.655-2.1-.852a10 10 0 0 1-.989-.324c.306-.148 1.214-.162 2.009.041a1.5 1.5 0 0 0 .766-2.901 8.6 8.6 0 0 0-1.5-.233c-1.241-.082-2.25.136-3.012.647a3.06 3.06 0 0 0-1.337 2.22c-.137 1.092.312 2.034 1.264 2.648.598.387 1.295.588 1.969.783.375.111.992.287 1.235.441a.3.3 0 0 1-.026.089c-.172.194-1.198.224-2.05-.008a1.499 1.499 0 0 0-1.73 2.185 1.5 1.5 0 0 0 .923.704 8 8 0 0 0 2.026.274c.808 0 1.717-.146 2.467-.644a3.1 3.1 0 0 0 1.369-2.25c.152-1.165-.307-2.165-1.284-2.822zm8.5 0c-.64-.431-1.415-.655-2.1-.852a10 10 0 0 1-.989-.324c.306-.148 1.214-.162 2.009.041a1.5 1.5 0 0 0 .766-2.901 8.6 8.6 0 0 0-1.5-.233c-1.241-.082-2.25.136-3.012.647a3.06 3.06 0 0 0-1.337 2.22c-.137 1.092.311 2.034 1.264 2.648.598.387 1.295.588 1.969.783.375.111.992.287 1.235.441a.3.3 0 0 1-.026.089c-.172.194-1.198.224-2.05-.008a1.5 1.5 0 1 0-.807 2.89 8 8 0 0 0 2.026.273c.808 0 1.717-.146 2.467-.644a3.1 3.1 0 0 0 1.369-2.25c.152-1.165-.307-2.165-1.284-2.822zM4.5 13.5V5A2.5 2.5 0 0 1 7 2.5h12a1.5 1.5 0 0 1 1.061.439l7 7A1.5 1.5 0 0 1 27.5 11v2.5a1.5 1.5 0 1 1-3 0V13h-6a1.5 1.5 0 0 1-1.5-1.5v-6H7.5v8a1.5 1.5 0 0 1-3 0M20 10h2.875L20 7.125z"/></svg>