<svg xmlns="http://www.w3.org/2000/svg" width="32" height="32" fill="none" viewBox="0 0 32 32"><path fill="#000" d="m10.913 19.5-2.5 7a1.5 1.5 0 0 1-2.826 0l-2.5-7a1.5 1.5 0 0 1 2.825-1L7 21.54l1.087-3.04a1.5 1.5 0 0 1 2.826 1m15.587 5H24V24h1.5a1.5 1.5 0 1 0 0-3H24v-.5h2.5a1.5 1.5 0 1 0 0-3h-4A1.5 1.5 0 0 0 21 19v7a1.5 1.5 0 0 0 1.5 1.5h4a1.5 1.5 0 1 0 0-3m-8.5-7a1.5 1.5 0 0 0-1.5 1.5v4.75a.75.75 0 1 1-1.5 0V19a1.5 1.5 0 0 0-3 0v4.75a3.75 3.75 0 0 0 7.5 0V19a1.5 1.5 0 0 0-1.5-1.5m-13.5-4V5A2.5 2.5 0 0 1 7 2.5h12a1.5 1.5 0 0 1 1.061.44l7 7A1.5 1.5 0 0 1 27.5 11v2.5a1.5 1.5 0 0 1-3 0V13h-6a1.5 1.5 0 0 1-1.5-1.5v-6H7.5v8a1.5 1.5 0 0 1-3 0M20 10h2.875L20 7.125z"/></svg>