<svg xmlns="http://www.w3.org/2000/svg" width="32" height="32" fill="none" viewBox="0 0 32 32"><path fill="#000" d="m27.061 9.939-7-7A1.5 1.5 0 0 0 19 2.5H7A2.5 2.5 0 0 0 4.5 5v8.5a1.5 1.5 0 0 0 3 0v-8H17v6a1.5 1.5 0 0 0 1.5 1.5h6v13.5h-2a1.5 1.5 0 1 0 0 3H25a2.5 2.5 0 0 0 2.5-2.5V11a1.5 1.5 0 0 0-.439-1.061M20 7.125 22.875 10H20zm-.527 17.481a3.1 3.1 0 0 1-1.37 2.258c-.75.5-1.658.643-2.466.643a8 8 0 0 1-2.028-.276 1.5 1.5 0 0 1 .807-2.89c.851.233 1.875.201 2.049.008a.3.3 0 0 0 .026-.089c-.242-.154-.854-.33-1.235-.44-.674-.195-1.375-.398-1.969-.784-.952-.615-1.4-1.556-1.263-2.65a3.06 3.06 0 0 1 1.336-2.218c.758-.512 1.771-.73 3.012-.648a8.6 8.6 0 0 1 1.503.23 1.5 1.5 0 0 1-.762 2.901c-.796-.203-1.703-.189-2.01-.041q.488.188.99.324c.684.197 1.46.421 2.1.852.973.658 1.432 1.658 1.28 2.816zM11.5 19a1.5 1.5 0 0 1-1.5 1.5H9V26a1.5 1.5 0 0 1-3 0v-5.5H5a1.5 1.5 0 1 1 0-3h5a1.5 1.5 0 0 1 1.5 1.5"/></svg>