<svg xmlns="http://www.w3.org/2000/svg" width="32" height="32" fill="none" viewBox="0 0 32 32"><path fill="#000" d="m27.061 9.94-7-7A1.5 1.5 0 0 0 19 2.5H7A2.5 2.5 0 0 0 4.5 5v22A2.5 2.5 0 0 0 7 29.5h18a2.5 2.5 0 0 0 2.5-2.5V11a1.5 1.5 0 0 0-.439-1.06m-4.186.06H20V7.125zM7.5 26.5v-21H17v6a1.5 1.5 0 0 0 1.5 1.5h6v13.5zm12.561-9.439L18.125 19l1.94 1.939a1.503 1.503 0 0 1-2.125 2.125L16 21.125l-1.939 1.94a1.502 1.502 0 1 1-2.125-2.125L13.875 19l-1.936-1.939a1.502 1.502 0 1 1 2.125-2.125L16 16.875l1.939-1.94a1.504 1.504 0 0 1 2.125 2.125z"/></svg>