<svg xmlns="http://www.w3.org/2000/svg" width="32" height="32" fill="none" viewBox="0 0 32 32"><path fill="#000" d="M27.72 25.125a1.502 1.502 0 0 1-2.441 1.75L24 25.078l-1.28 1.797a1.502 1.502 0 0 1-2.441-1.75l1.875-2.625-1.875-2.625a1.502 1.502 0 0 1 2.441-1.75L24 19.918l1.279-1.793a1.502 1.502 0 0 1 2.441 1.75L25.845 22.5zm-10.031-3.341c-.64-.431-1.416-.655-2.1-.853a10 10 0 0 1-.989-.323c.306-.148 1.214-.163 2.009.04a1.5 1.5 0 0 0 .766-2.898 8.6 8.6 0 0 0-1.5-.233c-1.241-.082-2.25.136-3.012.647a3.06 3.06 0 0 0-1.337 2.22c-.137 1.092.31 2.034 1.264 2.648.598.387 1.295.588 1.969.783.375.111.992.287 1.235.441a.3.3 0 0 1-.027.089c-.17.194-1.197.224-2.048-.008a1.499 1.499 0 0 0-1.73 2.185 1.5 1.5 0 0 0 .922.704 8 8 0 0 0 2.026.274c.808 0 1.717-.146 2.467-.644a3.1 3.1 0 0 0 1.369-2.25c.152-1.165-.307-2.165-1.284-2.822M9.5 17.5h-5a1.5 1.5 0 1 0 0 3h1V26a1.5 1.5 0 0 0 3 0v-5.5h1a1.5 1.5 0 1 0 0-3m-5-4V5A2.5 2.5 0 0 1 7 2.5h12a1.5 1.5 0 0 1 1.061.439l7 7A1.5 1.5 0 0 1 27.5 11v2.5a1.5 1.5 0 1 1-3 0V13h-6a1.5 1.5 0 0 1-1.5-1.5v-6H7.5v8a1.5 1.5 0 0 1-3 0M20 10h2.875L20 7.125z"/></svg>