<svg xmlns="http://www.w3.org/2000/svg" width="32" height="32" fill="none" viewBox="0 0 32 32"><path fill="#000" d="M6 22.5c0 1.084.686 2 1.5 2a1.28 1.28 0 0 0 .916-.429 1.5 1.5 0 1 1 2.168 2.075A4.25 4.25 0 0 1 7.5 27.5c-2.481 0-4.5-2.25-4.5-5s2.019-5 4.5-5a4.25 4.25 0 0 1 3.084 1.354 1.5 1.5 0 1 1-2.168 2.075A1.29 1.29 0 0 0 7.5 20.5c-.814 0-1.5.914-1.5 2m12.189-.714c-.642-.431-1.416-.655-2.1-.852a10 10 0 0 1-.989-.324c.306-.148 1.214-.162 2.009.041a1.5 1.5 0 0 0 .766-2.901 8.7 8.7 0 0 0-1.5-.233c-1.241-.082-2.25.136-3.012.647a3.06 3.06 0 0 0-1.337 2.22c-.137 1.092.31 2.034 1.264 2.648.598.387 1.295.588 1.969.783.375.111.992.287 1.235.441a.3.3 0 0 1-.028.089c-.17.194-1.196.224-2.049-.008a1.5 1.5 0 0 0-.806 2.89 8 8 0 0 0 2.025.273c.809 0 1.718-.146 2.468-.644a3.1 3.1 0 0 0 1.369-2.25c.152-1.165-.308-2.165-1.284-2.822zM27 17.585a1.5 1.5 0 0 0-1.913.915L24 21.538 22.913 18.5a1.5 1.5 0 1 0-2.826 1l2.5 7a1.5 1.5 0 0 0 2.826 0l2.5-7A1.5 1.5 0 0 0 27 17.585M4.5 13.5V5A2.5 2.5 0 0 1 7 2.5h12a1.5 1.5 0 0 1 1.061.439l7 7A1.5 1.5 0 0 1 27.5 11v2.5a1.5 1.5 0 1 1-3 0V13h-6a1.5 1.5 0 0 1-1.5-1.5v-6H7.5v8a1.5 1.5 0 0 1-3 0M20 10h2.875L20 7.125z"/></svg>