<svg xmlns="http://www.w3.org/2000/svg" width="32" height="32" fill="none" viewBox="0 0 32 32"><path fill="#000" d="M18.973 24.6a3.1 3.1 0 0 1-1.37 2.25c-.75.5-1.658.644-2.466.644a8 8 0 0 1-2.028-.276 1.5 1.5 0 1 1 .807-2.89c.851.232 1.875.202 2.049.008a.3.3 0 0 0 .026-.088c-.242-.154-.854-.33-1.235-.442-.674-.195-1.375-.396-1.969-.782-.953-.615-1.4-1.556-1.263-2.649a3.06 3.06 0 0 1 1.336-2.22c.758-.511 1.771-.729 3.013-.646q.762.054 1.502.241a1.5 1.5 0 0 1-.762 2.901c-.795-.203-1.703-.189-2.01-.041q.487.188.99.324c.683.197 1.46.421 2.1.852.973.655 1.432 1.655 1.28 2.814M8.5 17.5A1.5 1.5 0 0 0 7 19v4.75a.75.75 0 1 1-1.5 0 1.5 1.5 0 0 0-3 0 3.75 3.75 0 0 0 7.5 0V19a1.5 1.5 0 0 0-1.5-1.5m17.344 5 1.875-2.625a1.502 1.502 0 0 0-2.442-1.75L24 19.918l-1.28-1.793a1.502 1.502 0 0 0-2.441 1.75l1.875 2.625-1.875 2.625a1.502 1.502 0 0 0 2.441 1.75L24 25.078l1.279 1.797a1.502 1.502 0 0 0 2.441-1.75zM4.5 13.5V5A2.5 2.5 0 0 1 7 2.5h12a1.5 1.5 0 0 1 1.061.439l7 7A1.5 1.5 0 0 1 27.5 11v2.5a1.5 1.5 0 1 1-3 0V13h-6a1.5 1.5 0 0 1-1.5-1.5v-6H7.5v8a1.5 1.5 0 0 1-3 0M20 10h2.875L20 7.125z"/></svg>