<svg xmlns="http://www.w3.org/2000/svg" width="32" height="32" fill="none" viewBox="0 0 32 32"><path fill="#000" d="m27.061 9.94-7-7A1.5 1.5 0 0 0 19 2.5H7A2.5 2.5 0 0 0 4.5 5v22A2.5 2.5 0 0 0 7 29.5h18a2.5 2.5 0 0 0 2.5-2.5V11a1.5 1.5 0 0 0-.439-1.06M20 7.125 22.875 10H20zM7.5 26.5v-21H17v6a1.5 1.5 0 0 0 1.5 1.5h6v13.5zm12.561-7.561a1.503 1.503 0 0 1 0 2.125l-3 3a1.5 1.5 0 0 1-2.125 0l-3-3a1.503 1.503 0 0 1 2.125-2.125l.439.436V15.5a1.5 1.5 0 1 1 3 0v3.875l.439-.44a1.5 1.5 0 0 1 2.122.004"/></svg>