<svg xmlns="http://www.w3.org/2000/svg" width="32" height="32" fill="none" viewBox="0 0 32 32"><path fill="#000" d="M12.074 15.614a1.5 1.5 0 0 0-1.635.325L7.875 18.5H5.5A1.5 1.5 0 0 0 4 20v5a1.5 1.5 0 0 0 1.5 1.5h2.375l2.56 2.56A1.5 1.5 0 0 0 13 28V17a1.5 1.5 0 0 0-.926-1.386M10 24.375l-.439-.44A1.5 1.5 0 0 0 8.5 23.5H7v-2h1.5a1.5 1.5 0 0 0 1.061-.439l.439-.436zM20 22.5a5.57 5.57 0 0 1-2.744 4.795 1.5 1.5 0 0 1-1.713-.053 1.5 1.5 0 0 1 .207-2.537 2.564 2.564 0 0 0 0-4.41 1.5 1.5 0 1 1 1.512-2.59A5.57 5.57 0 0 1 20 22.5m7.061-12.561-7-7A1.5 1.5 0 0 0 19 2.5H7A2.5 2.5 0 0 0 4.5 5v9.5a1.5 1.5 0 0 0 3 0v-9H17v6a1.5 1.5 0 0 0 1.5 1.5h6v13.5h-3a1.5 1.5 0 1 0 0 3H25a2.5 2.5 0 0 0 2.5-2.5V11a1.5 1.5 0 0 0-.439-1.061M20 7.125 22.875 10H20z"/></svg>