<svg xmlns="http://www.w3.org/2000/svg" width="32" height="32" fill="none" viewBox="0 0 32 32"><path fill="#000" d="M18.794 18.728a1.5 1.5 0 0 0-1.454-.076l-2.59 1.27A2.5 2.5 0 0 0 12.5 18.5H6A2.5 2.5 0 0 0 3.5 21v5A2.5 2.5 0 0 0 6 28.5h6.5a2.5 2.5 0 0 0 2.287-1.5l2.515 1.323A1.5 1.5 0 0 0 19.5 27v-7a1.5 1.5 0 0 0-.706-1.273M12 25.5H6.5v-4H12zm4.5-.984L15 23.73v-.59l1.5-.734zM27.061 9.94l-7-7A1.5 1.5 0 0 0 19 2.5H7A2.5 2.5 0 0 0 4.5 5v9.5a1.5 1.5 0 0 0 3 0v-9H17v6a1.5 1.5 0 0 0 1.5 1.5h6v13.5h-1a1.5 1.5 0 1 0 0 3H25a2.5 2.5 0 0 0 2.5-2.5V11a1.5 1.5 0 0 0-.439-1.061M20 7.125 22.875 10H20z"/></svg>