<svg xmlns="http://www.w3.org/2000/svg" width="32" height="32" fill="none" viewBox="0 0 32 32"><path fill="#000" d="M6 15a1.5 1.5 0 0 0 1.5-1.5v-8H17v6a1.5 1.5 0 0 0 1.5 1.5h6v.5a1.5 1.5 0 1 0 3 0V11a1.5 1.5 0 0 0-.439-1.06l-7-7a1.5 1.5 0 0 0-1.06-.44H7A2.5 2.5 0 0 0 4.5 5v8.5A1.5 1.5 0 0 0 6 15m16.875-5H20V7.125zM29.5 26a1.5 1.5 0 0 1-1.5 1.5h-3.5A1.5 1.5 0 0 1 23 26v-7a1.5 1.5 0 1 1 3 0v5.5h2a1.5 1.5 0 0 1 1.5 1.5m-18.027-1.4a3.09 3.09 0 0 1-1.375 2.25c-.75.5-1.658.644-2.467.644a8 8 0 0 1-2.028-.276 1.5 1.5 0 1 1 .807-2.89c.851.232 1.875.202 2.049.008a.3.3 0 0 0 .026-.088c-.242-.154-.852-.33-1.235-.442-.674-.195-1.375-.396-1.969-.782-.952-.615-1.4-1.556-1.262-2.649a3.06 3.06 0 0 1 1.335-2.22c.759-.511 1.771-.729 3.012-.646q.765.053 1.51.241a1.5 1.5 0 0 1-.763 2.901c-.794-.203-1.702-.187-2.01-.041q.488.188.99.324c.685.197 1.46.421 2.1.852.973.655 1.432 1.655 1.28 2.814m9.5.25c.35-.734.53-1.537.527-2.35 0-2.75-2.019-5-4.5-5s-4.5 2.25-4.5 5 2.019 5 4.5 5c.664 0 1.319-.162 1.906-.471l.034.032a1.503 1.503 0 0 0 2.125-2.125zM15.5 22.5c0-1.084.688-2 1.5-2s1.5.916 1.5 2v.086a1.5 1.5 0 0 0-1.939 1.82c-.608-.261-1.06-1.031-1.06-1.906"/></svg>