<svg xmlns="http://www.w3.org/2000/svg" width="32" height="32" fill="none" viewBox="0 0 32 32"><path fill="#000" d="m27.061 9.94-7-7A1.5 1.5 0 0 0 19 2.5H7A2.5 2.5 0 0 0 4.5 5v10.5a1.5 1.5 0 0 0 3 0v-10H17v6a1.5 1.5 0 0 0 1.5 1.5h6v13.5h-2a1.5 1.5 0 1 0 0 3H25a2.5 2.5 0 0 0 2.5-2.5V11a1.5 1.5 0 0 0-.439-1.06M20 7.125 22.875 10H20zM13.5 15.5a7 7 0 0 0-6.331 4.011A5 5 0 0 0 7.5 29.5h6a7 7 0 1 0 0-14m0 11h-6a2 2 0 0 1-.818-3.825 1.5 1.5 0 0 0 2.834-.54q.03-.336.115-.663A4 4 0 1 1 13.5 26.5"/></svg>