<svg xmlns="http://www.w3.org/2000/svg" width="32" height="32" fill="none" viewBox="0 0 32 32"><path fill="#000" d="M6 15a1.5 1.5 0 0 0 1.5-1.5v-8H17v6a1.5 1.5 0 0 0 1.5 1.5h6v.5a1.5 1.5 0 1 0 3 0V11a1.5 1.5 0 0 0-.439-1.06l-7-7A1.5 1.5 0 0 0 19 2.5H7A2.5 2.5 0 0 0 4.5 5v8.5A1.5 1.5 0 0 0 6 15m16.875-5H20V7.125zM10.973 24.6a3.09 3.09 0 0 1-1.368 2.25c-.75.5-1.659.644-2.468.644a8 8 0 0 1-2.028-.276 1.5 1.5 0 1 1 .807-2.89c.853.232 1.875.202 2.049.008a.3.3 0 0 0 .026-.088c-.242-.154-.852-.33-1.235-.442-.674-.195-1.375-.396-1.969-.782-.952-.615-1.4-1.556-1.262-2.649a3.06 3.06 0 0 1 1.335-2.22c.759-.511 1.771-.728 3.012-.646q.762.054 1.503.241a1.5 1.5 0 0 1-.763 2.901c-.793-.203-1.7-.189-2.008-.041q.486.188.99.324c.683.197 1.458.421 2.1.852.972.655 1.431 1.655 1.278 2.814m8.44-5.1-2.5 7a1.5 1.5 0 0 1-2.825 0l-2.5-7a1.5 1.5 0 1 1 2.825-1l1.087 3.038 1.087-3.038a1.499 1.499 0 1 1 2.826 1m8.587 4v1.609a1.5 1.5 0 0 1-.416 1.037A4.25 4.25 0 0 1 24.5 27.5c-2.481 0-4.5-2.242-4.5-5s2.019-5 4.5-5c.834.002 1.65.255 2.339.725a1.499 1.499 0 1 1-1.678 2.486 1.17 1.17 0 0 0-.661-.211c-.812 0-1.5.916-1.5 2s.688 2 1.5 2q.172 0 .337-.052A1.5 1.5 0 0 1 26 22h.5a1.5 1.5 0 0 1 1.5 1.5"/></svg>