<svg xmlns="http://www.w3.org/2000/svg" width="32" height="32" fill="none" viewBox="0 0 32 32"><path fill="#000" d="M27 12.5H16.615l9.768-2.579a1.5 1.5 0 0 0 1.065-1.843l-1.02-3.75a2.493 2.493 0 0 0-3.038-1.744L4.349 7.609A2.47 2.47 0 0 0 2.83 8.768a2.44 2.44 0 0 0-.244 1.874L3.5 14v11A2.5 2.5 0 0 0 6 27.5h20a2.5 2.5 0 0 0 2.5-2.5V14a1.5 1.5 0 0 0-1.5-1.5M15.611 7.739l2.287 1.32-3.244.856-2.286-1.32zm8.057-2.125.488 1.794-2.141.565-2.286-1.322zM8.25 9.683 10.536 11l-4.425 1.169-.486-1.794zM25.5 24.5h-19v-9h19z"/></svg>