<svg xmlns="http://www.w3.org/2000/svg" width="32" height="32" fill="none" viewBox="0 0 32 32"><path fill="#000" d="M20 16a28.06 28.06 0 0 1-3.296 13.192 1.5 1.5 0 1 1-2.645-1.415A25.04 25.04 0 0 0 17 16a1 1 0 0 0-2 0 1.5 1.5 0 1 1-3 0 4 4 0 1 1 8 0m-4-9a1.5 1.5 0 0 0 0 3 6.006 6.006 0 0 1 6 6c0 .953-.045 1.915-.134 2.859a1.5 1.5 0 0 0 1.352 1.641h.142a1.5 1.5 0 0 0 1.491-1.359c.1-1.037.148-2.095.148-3.141A9.01 9.01 0 0 0 16 7m-4 4.529a1.5 1.5 0 0 0-2-2.235A9.01 9.01 0 0 0 7 16c0 2.553-.65 5.064-1.89 7.296a1.502 1.502 0 0 0 2.625 1.462A18 18 0 0 0 10 16a6 6 0 0 1 2-4.471m1.263 8.012a1.5 1.5 0 0 0-1.808 1.113 19.8 19.8 0 0 1-2.36 5.732 1.5 1.5 0 0 0 2.563 1.56 22.9 22.9 0 0 0 2.717-6.597 1.5 1.5 0 0 0-1.112-1.808m9.59 3.009a1.5 1.5 0 0 0-1.83 1.075 30 30 0 0 1-1 3.109 1.5 1.5 0 0 0 2.802 1.072q.645-1.68 1.099-3.421a1.5 1.5 0 0 0-1.07-1.835M16 2A14.015 14.015 0 0 0 2 15.93v.071a10 10 0 0 1-.625 3.478 1.5 1.5 0 1 0 2.813 1.044c.53-1.425.805-2.931.812-4.45V16a11 11 0 0 1 22-.062V16c0 2.58-.282 5.154-.842 7.673a1.5 1.5 0 0 0 2.404 1.496 1.5 1.5 0 0 0 .526-.843c.603-2.711.909-5.48.912-8.258V16A14.016 14.016 0 0 0 16 2"/></svg>