<svg xmlns="http://www.w3.org/2000/svg" width="32" height="32" fill="none" viewBox="0 0 32 32"><path fill="#000" d="M11.5 16c0 3.304-.839 6.554-2.438 9.445a1.5 1.5 0 1 1-2.625-1.455A16.5 16.5 0 0 0 8.5 16a7.5 7.5 0 0 1 12.46-5.625 1.498 1.498 0 0 1-.333 2.473 1.5 1.5 0 0 1-1.652-.223A4.5 4.5 0 0 0 11.5 16m10.52-1H22a1.5 1.5 0 0 0-1.5 1.475 28.3 28.3 0 0 1-2.125 10.355 1.5 1.5 0 1 0 2.774 1.141 31.3 31.3 0 0 0 2.35-11.446A1.5 1.5 0 0 0 22.02 15m-7.778 10.151a1.5 1.5 0 0 0-2 .693c-.17.351-.356.706-.547 1.052a1.5 1.5 0 0 0 2.625 1.454c.217-.393.426-.794.625-1.194a1.5 1.5 0 0 0-.704-2.005zM16 14.5a1.5 1.5 0 0 0-1.5 1.5c0 1.736-.199 3.467-.594 5.157a1.5 1.5 0 0 0 2.92.686c.449-1.916.675-3.876.674-5.843a1.5 1.5 0 0 0-1.5-1.5m0-12a13.5 13.5 0 0 0-3.938.584 1.502 1.502 0 1 0 .875 2.875A10.508 10.508 0 0 1 26.5 16a34.7 34.7 0 0 1-.855 7.668 1.501 1.501 0 0 0 2.926.665c.618-2.735.93-5.53.929-8.333A13.515 13.515 0 0 0 16 2.5M8.559 6.468a1.5 1.5 0 0 0-2.125 0A13.42 13.42 0 0 0 2.5 16c.004 1.51-.32 3.003-.951 4.375a1.5 1.5 0 1 0 2.726 1.25A13.4 13.4 0 0 0 5.5 16a10.43 10.43 0 0 1 3.062-7.411 1.5 1.5 0 0 0-.003-2.121"/></svg>