<svg xmlns="http://www.w3.org/2000/svg" width="32" height="32" fill="none" viewBox="0 0 32 32"><path fill="#000" d="M20 11h-8a6.5 6.5 0 1 0 0 13h8a6.5 6.5 0 1 0 0-13m0 10h-8a3.5 3.5 0 1 1 0-7h8a3.5 3.5 0 1 1 0 7m-6-3.5a2 2 0 1 1-4 0 2 2 0 0 1 4 0m8 0a2 2 0 1 1-4 0 2 2 0 0 1 4 0m4.5-14a4.5 4.5 0 0 0-4.242 3H9.743A4.5 4.5 0 0 0 1 8v9.5a11.01 11.01 0 0 0 11 11h8a11.01 11.01 0 0 0 11-11V8a4.5 4.5 0 0 0-4.5-4.5m1.5 14a8.01 8.01 0 0 1-8 8h-8a8.01 8.01 0 0 1-8-8V8a1.5 1.5 0 0 1 3 0 1.5 1.5 0 0 0 1.5 1.5h15A1.5 1.5 0 0 0 25 8a1.5 1.5 0 1 1 3 0z"/></svg>