<svg xmlns="http://www.w3.org/2000/svg" width="32" height="32" fill="none" viewBox="0 0 32 32"><path fill="#000" d="M22.203 19.95a6.5 6.5 0 0 1-4.25 4.25 1.5 1.5 0 1 1-.9-2.863 3.5 3.5 0 0 0 2.29-2.29 1.5 1.5 0 1 1 2.862.9zM27.5 18a11.5 11.5 0 1 1-23 0c0-3.601 1.409-7.273 4.185-10.91a1.5 1.5 0 0 1 2.237-.166l2.462 2.389 2.491-6.827a1.5 1.5 0 0 1 2.367-.64C21.026 4.156 27.5 10.356 27.5 18m-3 0c0-5.214-3.826-9.799-6.565-12.411l-2.526 6.925a1.5 1.5 0 0 1-2.454.562l-2.866-2.781C8.375 12.922 7.5 15.508 7.5 18a8.5 8.5 0 1 0 17 0"/></svg>