<svg xmlns="http://www.w3.org/2000/svg" width="32" height="32" fill="none" viewBox="0 0 32 32"><path fill="#000" d="M27.431 5.565 21.26 3.714l1.866-.847a1.502 1.502 0 1 0-1.25-2.73L16.653 2.51A10.51 10.51 0 0 0 6.5 13.001v13a1.5 1.5 0 1 0 3 0v-3.5h2v6.5a2.5 2.5 0 0 0 2.5 2.5h6a2.5 2.5 0 0 0 2.5-2.5v-16a5.51 5.51 0 0 0-4-5.29V6.017l8.069 2.422q.211.063.431.062a1.5 1.5 0 0 0 .431-2.936M9.5 19.501v-6.5a7.51 7.51 0 0 1 6-7.349v2.06a5.51 5.51 0 0 0-4 5.29v6.5zm5 9v-6h5v6zm5-15.5v6.5h-5v-6.5a2.5 2.5 0 0 1 5 0"/></svg>