<svg xmlns="http://www.w3.org/2000/svg" width="32" height="32" fill="none" viewBox="0 0 32 32"><path fill="#000" d="M21.5 9.5a2 2 0 1 1-4 0 2 2 0 0 1 4 0m7.955 1.681c-.224 3.5-1.26 6.442-3.08 8.75-2.643 3.358-6.805 5.211-12.383 5.52l-2.617 5.674a1.5 1.5 0 0 1-1.361.875h-.102a1.5 1.5 0 0 1-1.332-1.055l-1.77-5.75-5.75-1.774a1.5 1.5 0 0 1-.185-2.796L6.55 18.01c.306-5.58 2.162-9.743 5.52-12.385 2.311-1.82 5.25-2.855 8.75-3.08 2.1-.127 4.207.026 6.266.455A2.5 2.5 0 0 1 29 4.914a23.7 23.7 0 0 1 .455 6.267M18.94 21.531a7.2 7.2 0 0 1-1.391-1.081 6.98 6.98 0 0 1-1.988-4.012 6.98 6.98 0 0 1-4.012-1.988 7 7 0 0 1-1.079-1.391q-.875 2.56-.962 5.961a1.5 1.5 0 0 1-.875 1.326l-2.945 1.359 2.762.853a1.5 1.5 0 0 1 .991.992l.85 2.761 1.362-2.948a1.5 1.5 0 0 1 1.326-.875q3.395-.076 5.961-.957m7.193-15.665c-1.84-.355-7.982-1.21-12.21 2.116-.52.41-.998.873-1.424 1.38a4 4 0 0 0 4.375 4.12 1.5 1.5 0 0 1 1.636 1.636 4 4 0 0 0 4.125 4.374c.506-.424.967-.9 1.375-1.418 3.334-4.223 2.478-10.368 2.123-12.208"/></svg>