<svg xmlns="http://www.w3.org/2000/svg" width="32" height="32" fill="none" viewBox="0 0 32 32"><path fill="#000" d="M21.5 9.5a2 2 0 1 1-4 0 2 2 0 0 1 4 0M25.296 21.2c-3.387 3.38-8.606 4.861-15.563 4.424q.283 1.935.75 4.049a1.5 1.5 0 1 1-2.932.641 60 60 0 0 1-.88-4.99 60 60 0 0 1-4.987-.883 1.5 1.5 0 0 1 .641-2.93q2.112.462 4.045.75c-.43-6.956 1.051-12.172 4.433-15.56 5.653-5.67 14.563-4.09 16.292-3.716a2.51 2.51 0 0 1 1.919 1.919c.374 1.729 1.954 10.639-3.716 16.295zm-3.386-1.053a13.4 13.4 0 0 1-6.456-3.602 13.4 13.4 0 0 1-3.601-6.457C9.79 12.964 8.968 17.152 9.39 22.606c5.454.424 9.644-.399 12.521-2.46zm4.235-14.293a20.7 20.7 0 0 0-5.684-.27c-2.333.226-4.322.875-5.943 1.942a10.49 10.49 0 0 0 9.955 9.956c1.063-1.626 1.716-3.61 1.942-5.944.172-1.898.081-3.81-.27-5.684"/></svg>