<svg xmlns="http://www.w3.org/2000/svg" width="32" height="32" fill="none" viewBox="0 0 32 32"><path fill="#000" d="M22.086 6.09a28 28 0 0 0-5.315-4.375 1.5 1.5 0 0 0-1.542 0A28 28 0 0 0 9.914 6.09C6.375 9.809 4.5 13.928 4.5 18a11.5 11.5 0 0 0 23 0c0-4.072-1.875-8.191-5.414-11.91M12.5 23c0-1.666.691-3.282 2.056-4.806q.664-.74 1.444-1.354.78.615 1.444 1.354C18.809 19.718 19.5 21.334 19.5 23a3.5 3.5 0 1 1-7 0m9.98.493q.018-.244.02-.493c0-5.782-5.5-9.146-5.729-9.286a1.5 1.5 0 0 0-1.542 0C15 13.854 9.5 17.218 9.5 23q.002.249.02.493A8.46 8.46 0 0 1 7.5 18c0-3.315 1.526-6.607 4.535-9.787A26.6 26.6 0 0 1 16 4.799c2.227 1.559 8.5 6.54 8.5 13.201a8.46 8.46 0 0 1-2.02 5.493"/></svg>