<svg xmlns="http://www.w3.org/2000/svg" width="32" height="32" fill="none" viewBox="0 0 32 32"><path fill="#000" d="m31.061 8.939-4-4a1.503 1.503 0 0 0-2.125 2.125L26.375 8.5H24a9.7 9.7 0 0 0-3.75.887c-1.811.837-4.101 2.625-4.726 6.365-.337 2.022-1.323 3.425-2.93 4.174-.429.198-.88.346-1.344.44a5.5 5.5 0 1 0 .066 3.035 9.3 9.3 0 0 0 2.4-.692c1.815-.807 4.114-2.583 4.761-6.463.323-1.935 1.31-3.311 2.937-4.094A6.9 6.9 0 0 1 24 11.5h2.375l-1.44 1.439a1.503 1.503 0 0 0 2.125 2.125l4-4a1.5 1.5 0 0 0 .001-2.125M6 24.499a2.5 2.5 0 1 1 0-5 2.5 2.5 0 0 1 0 5"/></svg>