<svg xmlns="http://www.w3.org/2000/svg" width="32" height="32" fill="none" viewBox="0 0 32 32"><path fill="#000" d="M26.955 16a5.5 5.5 0 0 0-5.477-9.487 5.5 5.5 0 0 0-10.955 0A5.5 5.5 0 0 0 5.045 16a5.5 5.5 0 0 0 5.478 9.486 5.5 5.5 0 0 0 10.955 0A5.5 5.5 0 0 0 26.955 16M13.5 16a2.5 2.5 0 1 1 5 0 2.5 2.5 0 0 1-5 0m9.044-6.665a2.5 2.5 0 1 1 2.5 4.33c-.332.191-1.315.61-3.763.803a5.5 5.5 0 0 0-1.315-2.273c1.392-2.025 2.246-2.669 2.578-2.86M16 4.5A2.5 2.5 0 0 1 18.5 7c0 .383-.125 1.444-1.186 3.66a5.5 5.5 0 0 0-2.625 0C13.625 8.444 13.5 7.383 13.5 7A2.5 2.5 0 0 1 16 4.5m-9.959 5.75a2.5 2.5 0 0 1 3.415-.915c.332.191 1.187.835 2.578 2.86a5.5 5.5 0 0 0-1.315 2.272c-2.448-.192-3.431-.61-3.763-.802a2.5 2.5 0 0 1-.915-3.415m3.415 12.415a2.5 2.5 0 1 1-2.5-4.33c.332-.191 1.315-.61 3.763-.803.249.853.7 1.633 1.315 2.273-1.392 2.025-2.246 2.669-2.578 2.86M16 27.5a2.5 2.5 0 0 1-2.5-2.5c0-.383.125-1.444 1.186-3.66a5.5 5.5 0 0 0 2.625 0C18.375 23.556 18.5 24.618 18.5 25a2.5 2.5 0 0 1-2.5 2.5m9.959-5.75a2.5 2.5 0 0 1-3.415.915c-.332-.191-1.186-.835-2.578-2.86a5.5 5.5 0 0 0 1.315-2.273c2.448.193 3.432.612 3.763.803a2.5 2.5 0 0 1 .915 3.415"/></svg>