<svg xmlns="http://www.w3.org/2000/svg" width="32" height="32" fill="none" viewBox="0 0 32 32"><path fill="#000" d="M31.163 14.954a2.44 2.44 0 0 0-1.5-1.15 9.5 9.5 0 0 0-2.298-.304 11.5 11.5 0 0 0-.375-5.25 2.52 2.52 0 0 0-2.93-1.696 11 11 0 0 0-3.272 1.296A12.25 12.25 0 0 0 17.5 4a2.51 2.51 0 0 0-3 0 12.25 12.25 0 0 0-3.287 3.85 11 11 0 0 0-3.27-1.297 2.52 2.52 0 0 0-2.93 1.697 11.5 11.5 0 0 0-.374 5.25 9.5 9.5 0 0 0-2.302.304 2.44 2.44 0 0 0-1.5 1.15 2.5 2.5 0 0 0-.25 1.913c.444 1.645 1.8 4.77 5.893 7.215 4.04 2.418 7.615 2.418 9.53 2.418s5.47 0 9.509-2.418c4.092-2.445 5.449-5.57 5.892-7.215a2.5 2.5 0 0 0-.248-1.913M8.02 21.506c-2.786-1.665-3.919-3.641-4.375-4.919a7.2 7.2 0 0 1 1.817-.057q.454 1.145 1.07 2.211a17.8 17.8 0 0 0 2.448 3.29 13 13 0 0 1-.96-.525m1.855-3.097c-.263-.375-.515-.75-.75-1.162-1.954-3.41-1.77-6.13-1.375-7.652.82.24 1.599.602 2.313 1.071a15.5 15.5 0 0 0-.563 4.23c-.005 1.181.12 2.36.375 3.513M16 23.159c-1.215-1.009-3.5-3.535-3.5-8.266 0-4.678 2.25-7.213 3.5-8.26 1.25 1.047 3.5 3.582 3.5 8.26 0 4.732-2.285 7.26-3.5 8.27zm6.125-4.75c.255-1.154.38-2.332.375-3.513a15.5 15.5 0 0 0-.562-4.23 8.6 8.6 0 0 1 2.312-1.072c.391 1.524.575 4.25-1.383 7.653-.23.407-.482.793-.742 1.162m1.858 3.097q-.48.287-.948.52c.936-.997 1.755-2.1 2.439-3.285q.615-1.067 1.069-2.211a7.2 7.2 0 0 1 1.817.057c-.461 1.278-1.594 3.254-4.38 4.92z"/></svg>