<svg xmlns="http://www.w3.org/2000/svg" width="32" height="32" fill="none" viewBox="0 0 32 32"><path fill="#000" d="M26 5.5a11.4 11.4 0 0 0-4.221.802c-1.975-3.05-4.965-4.572-5.108-4.643a1.5 1.5 0 0 0-1.342 0c-.143.071-3.133 1.593-5.108 4.643A11.4 11.4 0 0 0 6 5.5 1.5 1.5 0 0 0 4.5 7v5a11.52 11.52 0 0 0 10 11.402v3.17l-3.829-1.913A1.5 1.5 0 0 0 9.33 27.34l6 3a1.5 1.5 0 0 0 1.342 0l6-3a1.5 1.5 0 1 0-1.342-2.682L17.5 26.572v-3.17A11.52 11.52 0 0 0 27.5 12V7A1.5 1.5 0 0 0 26 5.5m-10-.758c.796.52 2.141 1.54 3.151 3.025A11.6 11.6 0 0 0 16 11.327a11.6 11.6 0 0 0-3.151-3.56c1.01-1.486 2.355-2.505 3.151-3.025M7.5 12V8.632a8.514 8.514 0 0 1 7 8.368v3.367A8.515 8.515 0 0 1 7.5 12m17 0a8.514 8.514 0 0 1-7 8.367V17a8.514 8.514 0 0 1 7-8.368z"/></svg>