<svg xmlns="http://www.w3.org/2000/svg" width="32" height="32" fill="none" viewBox="0 0 32 32"><path fill="#000" d="M23.423 26.526a1.5 1.5 0 1 1-2.845.948l-1-3a1.5 1.5 0 1 1 2.845-.948zM16 23a1.5 1.5 0 0 0-1.5 1.5V28a1.5 1.5 0 1 0 3 0v-3.5A1.5 1.5 0 0 0 16 23m-4.526-.422a1.5 1.5 0 0 0-1.896.948l-1 3a1.5 1.5 0 1 0 2.845.948l1-3a1.5 1.5 0 0 0-.95-1.896M31.5 14c0 2.24-1.779 4.236-5.01 5.625C23.664 20.836 19.938 21.5 16 21.5c-3.937 0-7.664-.668-10.49-1.875C2.279 18.236.5 16.24.5 14c0-3.008 3.16-5.5 8.489-6.736A8.45 8.45 0 0 1 21.97 5.95q.616.61 1.099 1.328c5.293 1.24 8.43 3.728 8.43 6.722m-21-1.896v.375a.5.5 0 0 0 .375.484c1.683.37 3.402.55 5.125.537a23 23 0 0 0 5.125-.534.5.5 0 0 0 .375-.483V12A5.5 5.5 0 0 0 16 6.5h-.074c-2.992.039-5.426 2.554-5.426 5.604M28.5 14c0-.83-.956-1.595-1.526-1.979a11.5 11.5 0 0 0-2.56-1.235q.086.604.086 1.214v.491a3.48 3.48 0 0 1-2.707 3.399c-1.902.42-3.845.624-5.793.61-1.947.014-3.89-.19-5.791-.61A3.48 3.48 0 0 1 7.5 12.492v-.383q0-.669.103-1.329c-.904.304-1.766.72-2.567 1.235C4.463 12.399 3.5 13.167 3.5 14c0 1.835 4.875 4.5 12.5 4.5s12.5-2.665 12.5-4.5"/></svg>