<svg xmlns="http://www.w3.org/2000/svg" width="32" height="32" fill="none" viewBox="0 0 32 32"><path fill="#000" d="M31.029 14.039A2.5 2.5 0 0 0 29 13h-1.5v-2A2.5 2.5 0 0 0 25 8.5h-8.5L13.168 6a2.5 2.5 0 0 0-1.5-.5H5A2.5 2.5 0 0 0 2.5 8v18A1.5 1.5 0 0 0 4 27.5h22.388a1.5 1.5 0 0 0 1.416-1l3.561-10.184.008-.021a2.5 2.5 0 0 0-.344-2.256M11.5 8.5l3.334 2.5c.433.324.959.499 1.5.5H24.5V13h-6.196a2.5 2.5 0 0 0-1.388.42L14.541 15H8.678a2.49 2.49 0 0 0-2.316 1.555L5.5 18.596V8.5zm13.824 16H6.262l2.75-6.5h5.69a2.5 2.5 0 0 0 1.387-.42L18.464 16h9.841z"/></svg>