<svg xmlns="http://www.w3.org/2000/svg" width="32" height="32" fill="none" viewBox="0 0 32 32"><path fill="#000" d="M14.07 24.5H5.5v-13h21V14a1.5 1.5 0 1 0 3 0v-3A2.5 2.5 0 0 0 27 8.5H16.674l-3.25-3.661A2.5 2.5 0 0 0 11.55 4H5a2.5 2.5 0 0 0-2.5 2.5v18.578A2.426 2.426 0 0 0 4.923 27.5h9.147a1.5 1.5 0 1 0 0-3M5.5 7h5.826l1.334 1.5H5.5zm24.93 12.75a1.5 1.5 0 0 0-1.315-1.043l-3.427-.265-1.313-3.036a1.5 1.5 0 0 0-2.75 0l-1.312 3.035-3.428.265a1.5 1.5 0 0 0-.84 2.653l2.572 2.125-.78 3.157a1.5 1.5 0 0 0 2.215 1.653L23 26.558l2.948 1.735a1.5 1.5 0 0 0 2.216-1.653l-.782-3.157 2.573-2.125a1.5 1.5 0 0 0 .475-1.608m-5.68 2.02a1.5 1.5 0 0 0-.5 1.516l.151.611-.634-.374a1.51 1.51 0 0 0-1.522 0l-.634.375.151-.612a1.5 1.5 0 0 0-.5-1.516l-.434-.359.625-.049a1.5 1.5 0 0 0 1.262-.9l.291-.676.291.675a1.5 1.5 0 0 0 1.262.902l.625.048z"/></svg>