<svg xmlns="http://www.w3.org/2000/svg" width="32" height="32" fill="none" viewBox="0 0 32 32"><path fill="#000" d="M27.564 24.743a4.5 4.5 0 1 0-7.125 0 5.47 5.47 0 0 0-1.885 2.875A1.5 1.5 0 0 0 20 29.5a1.5 1.5 0 0 0 1.449-1.115C21.75 27.275 22.794 26.5 24 26.5s2.25.775 2.55 1.885a1.5 1.5 0 0 0 2.899-.771 5.46 5.46 0 0 0-1.885-2.872M24 20.5a1.5 1.5 0 1 1 0 3 1.5 1.5 0 0 1 0-3m5.5-9.5v2.5a1.5 1.5 0 1 1-3 0v-2H16.334c-.541 0-1.067-.176-1.5-.5L11.5 8.5h-6v16H14a1.5 1.5 0 1 1 0 3H5A2.5 2.5 0 0 1 2.5 25V8A2.5 2.5 0 0 1 5 5.5h6.666c.541.001 1.067.176 1.5.5L16.5 8.5H27a2.5 2.5 0 0 1 2.5 2.5"/></svg>