<svg xmlns="http://www.w3.org/2000/svg" width="32" height="32" fill="none" viewBox="0 0 32 32"><path fill="#000" d="M29.5 11v.5a1.5 1.5 0 1 1-3 0H16.334a2.5 2.5 0 0 1-1.5-.5L11.5 8.5h-6v16H13a1.5 1.5 0 1 1 0 3H5A2.5 2.5 0 0 1 2.5 25V8A2.5 2.5 0 0 1 5 5.5h6.666c.541.001 1.067.176 1.5.5L16.5 8.5H27a2.5 2.5 0 0 1 2.5 2.5m0 9.5V26a1.5 1.5 0 0 1-1.5 1.5h-9a1.5 1.5 0 0 1-1.5-1.5v-5.5A1.5 1.5 0 0 1 19 19h.5v-.5a4 4 0 1 1 8 0v.5h.5a1.5 1.5 0 0 1 1.5 1.5m-7-1.5h2v-.5a1 1 0 0 0-2 0zm4 3h-6v2.5h6z"/></svg>