<svg xmlns="http://www.w3.org/2000/svg" width="32" height="32" fill="none" viewBox="0 0 32 32"><path fill="#000" d="M28 19h-.5v-.5a4 4 0 1 0-8 0v.5H19a1.5 1.5 0 0 0-1.5 1.5V26a1.5 1.5 0 0 0 1.5 1.5h9a1.5 1.5 0 0 0 1.5-1.5v-5.5A1.5 1.5 0 0 0 28 19m-5.5-.5a1 1 0 0 1 2 0v.5h-2zm4 6h-6V22h6zm.5-16H16.674l-3.25-3.661A2.5 2.5 0 0 0 11.549 4H5a2.5 2.5 0 0 0-2.5 2.5v18.578A2.426 2.426 0 0 0 4.923 27.5h8.147a1.5 1.5 0 1 0 0-3H5.5v-13h21a1.5 1.5 0 1 0 3 0V11A2.5 2.5 0 0 0 27 8.5m-21.5 0V7h5.826l1.334 1.5z"/></svg>