<svg xmlns="http://www.w3.org/2000/svg" width="32" height="32" fill="none" viewBox="0 0 32 32"><path fill="#000" d="M2.5 10V8A2.5 2.5 0 0 1 5 5.5h6.666c.541.001 1.067.176 1.5.5L16.9 8.8a1.499 1.499 0 1 1-1.8 2.4l-3.6-2.7h-6V10a1.5 1.5 0 0 1-3 0M11 24.5H5.5V24a1.5 1.5 0 0 0-3 0v1.078A2.426 2.426 0 0 0 4.923 27.5H11a1.5 1.5 0 1 0 0-3m9 0h-4a1.5 1.5 0 1 0 0 3h4a1.5 1.5 0 1 0 0-3m8-7a1.5 1.5 0 0 0-1.5 1.5v5.5H25a1.5 1.5 0 1 0 0 3h2.111a2.39 2.39 0 0 0 2.389-2.389V19a1.5 1.5 0 0 0-1.5-1.5m-1-9h-6a1.5 1.5 0 0 0 0 3h5.5V14a1.5 1.5 0 1 0 3 0v-3A2.5 2.5 0 0 0 27 8.5m-23 12A1.5 1.5 0 0 0 5.5 19v-4a1.5 1.5 0 0 0-3 0v4A1.5 1.5 0 0 0 4 20.5"/></svg>