<svg xmlns="http://www.w3.org/2000/svg" width="32" height="32" fill="none" viewBox="0 0 32 32"><path fill="#000" d="M26.5 22.5h-7A1.5 1.5 0 0 0 18 24v1.5a5 5 0 1 0 10 0V24a1.5 1.5 0 0 0-1.5-1.5m-3.5 5a2 2 0 0 1-2-2h4a2 2 0 0 1-2 2m-10.5-8h-7A1.5 1.5 0 0 0 4 21v1.5a5 5 0 1 0 10 0V21a1.5 1.5 0 0 0-1.5-1.5m-3.5 5a2 2 0 0 1-2-2h4a2 2 0 0 1-2 2m0-23c-1.758 0-3.463 1.541-4.676 4.229-1.557 3.446-2.098 8.44.392 11.264a1.5 1.5 0 0 0 1.125.507h6.315a1.5 1.5 0 0 0 1.125-.508c2.49-2.823 1.949-7.817.393-11.263C12.46 3.04 10.75 1.5 9 1.5m2.384 13H6.612c-.838-1.516-.958-4.431.445-7.537C7.895 5.106 8.785 4.5 9 4.5s1.102.606 1.941 2.463c1.4 3.106 1.28 6.02.443 7.537m8.46 6h6.317a1.5 1.5 0 0 0 1.125-.508c2.49-2.823 1.949-7.817.393-11.263-1.214-2.688-2.92-4.229-4.68-4.229s-3.462 1.541-4.675 4.229c-1.557 3.446-2.098 8.44.392 11.264a1.5 1.5 0 0 0 1.128.507M21.06 9.963C21.9 8.106 22.79 7.5 23 7.5s1.102.606 1.94 2.463c1.404 3.106 1.284 6.02.445 7.537h-4.769c-.837-1.516-.957-4.431.445-7.537"/></svg>