<svg xmlns="http://www.w3.org/2000/svg" width="32" height="32" fill="none" viewBox="0 0 32 32"><path fill="#000" d="M29.133 6.647a4.625 4.625 0 0 0-3.78-3.78c-1.905-.322-4.844-.597-8.033-.076-3.862.633-7.125 2.258-9.695 4.834s-4.199 5.835-4.831 9.698c-.521 3.188-.25 6.125.076 8.032a4.625 4.625 0 0 0 3.78 3.78c1.433.242 2.884.364 4.338.365a23 23 0 0 0 3.692-.291c3.863-.633 7.125-2.258 9.698-4.831 2.572-2.574 4.198-5.835 4.83-9.698.522-3.189.247-6.127-.075-8.033m-2.958.5q.272 1.607.325 3.236L21.616 5.5c1.085.036 2.166.146 3.235.33a1.625 1.625 0 0 1 1.324 1.319zM5.825 24.851q-.272-1.607-.325-3.233l4.883 4.882a24 24 0 0 1-3.234-.329 1.625 1.625 0 0 1-1.324-1.32m16.431-2.595c-1.375 1.375-3.913 3.27-7.9 3.979l-8.59-8.591c.708-3.986 2.61-6.528 3.984-7.894s3.913-3.27 7.9-3.979l8.591 8.592c-.715 3.98-2.616 6.52-3.985 7.893M20.561 11.44a1.5 1.5 0 0 1 0 2.125l-.936.936.44.439a1.503 1.503 0 0 1-2.125 2.125l-.44-.439-.875.875.44.44a1.503 1.503 0 0 1-2.125 2.125l-.44-.44-.94.94a1.503 1.503 0 0 1-2.125-2.125l.94-.94-.44-.439a1.5 1.5 0 0 1 1.063-2.565 1.5 1.5 0 0 1 1.062.44l.44.439.875-.875-.44-.44a1.503 1.503 0 0 1 2.125-2.125l.44.44.94-.94a1.5 1.5 0 0 1 2.121.004"/></svg>