<svg xmlns="http://www.w3.org/2000/svg" width="32" height="32" fill="none" viewBox="0 0 32 32"><path fill="#000" d="M8.5 11V5a1.5 1.5 0 0 1 3 0v6a1.5 1.5 0 1 1-3 0m19-6v23a1.5 1.5 0 1 1-3 0v-5.5H19a1.5 1.5 0 0 1-1.5-1.5c.047-2.435.354-4.858.916-7.227 1.261-5.22 3.679-8.732 6.993-10.148A1.5 1.5 0 0 1 27.5 5m-3 2.865c-1.675 1.76-2.625 4.385-3.154 6.558a32 32 0 0 0-.777 5.077H24.5zM16 4.875a1.506 1.506 0 0 0-3 .25l.5 5.933a3.5 3.5 0 1 1-7 0L7 5.125a1.505 1.505 0 1 0-3-.25l-.5 6V11a6.51 6.51 0 0 0 5 6.324V28a1.5 1.5 0 0 0 3 0V17.324a6.51 6.51 0 0 0 5-6.324v-.125z"/></svg>