<svg xmlns="http://www.w3.org/2000/svg" width="32" height="32" fill="none" viewBox="0 0 32 32"><path fill="#000" d="M25 2.5h-8.586a2.48 2.48 0 0 0-1.768.732l-1.439 1.44-1.94-1.94a2.5 2.5 0 0 0-3.534 0l-3 3a2.5 2.5 0 0 0 0 3.535l1.938 1.94-1.438 1.44a2.48 2.48 0 0 0-.733 1.767V27A2.5 2.5 0 0 0 7 29.5h18a2.5 2.5 0 0 0 2.5-2.5V5A2.5 2.5 0 0 0 25 2.5m-17.792 5L9.5 5.207l1.586 1.585-2.293 2.294zm17.292 19h-17V14.625l2.354-2.357L16.625 5.5H24.5zM17 8.5A1.5 1.5 0 0 1 18.5 7H21a1.5 1.5 0 0 1 0 3h-2.5A1.5 1.5 0 0 1 17 8.5m4.938 8.171L18.4 19.5l3.537 2.829a1.5 1.5 0 1 1-1.875 2.342L16 21.421l-4.062 3.25a1.5 1.5 0 0 1-1.876-2.342L13.6 19.5l-3.536-2.829a1.5 1.5 0 1 1 1.874-2.342L16 17.579l4.063-3.25a1.5 1.5 0 0 1 1.875 2.342"/></svg>