<svg xmlns="http://www.w3.org/2000/svg" width="32" height="32" fill="none" viewBox="0 0 32 32"><path fill="#000" d="M26.235 9.729A14.4 14.4 0 0 0 16 5.5h-.051C7.98 5.528 1.5 12.095 1.5 20.141v2.86A2.5 2.5 0 0 0 4 25.5h24a2.5 2.5 0 0 0 2.5-2.5v-3a14.4 14.4 0 0 0-4.265-10.272M27.5 22.5H15.915l5.805-8.125a1.503 1.503 0 0 0-.878-2.337 1.5 1.5 0 0 0-1.562.587L12.227 22.5H4.5v-2.359c0-.215 0-.428.018-.64H7a1.5 1.5 0 0 0 0-3H5.077c1.364-4.175 5-7.316 9.423-7.902V11a1.5 1.5 0 1 0 3 0V8.6a11.5 11.5 0 0 1 9.458 7.9H25a1.5 1.5 0 1 0 0 3h2.488q.011.25.012.5z"/></svg>