<svg xmlns="http://www.w3.org/2000/svg" width="32" height="32" fill="none" viewBox="0 0 32 32"><path fill="#000" d="m30.768 14.233-2-2a2.5 2.5 0 0 0-2.883-.47l-5.65-5.65a2.5 2.5 0 0 0-.468-2.882l-2-2a2.5 2.5 0 0 0-3.534 0l-8 8a2.5 2.5 0 0 0 0 3.535l2 2a2.5 2.5 0 0 0 2.874.474L3.67 22.672a4 4 0 1 0 5.658 5.658l7.422-7.429a2.5 2.5 0 0 0 .476 2.868l2 2a2.5 2.5 0 0 0 3.537 0l8-8a2.5 2.5 0 0 0 0-3.536zM10 12.293 8.705 11 16 3.706 17.293 5zM7.205 26.209a1 1 0 1 1-1.414-1.415l7.44-7.44 1.414 1.415zm11.588-7.536-5.465-5.465 4.875-4.876 5.465 5.465zm2.206 4.625L19.706 22 27 14.708 28.293 16z"/></svg>