<svg xmlns="http://www.w3.org/2000/svg" width="32" height="32" fill="none" viewBox="0 0 32 32"><path fill="#000" d="M29 14.5h-1.598a11.4 11.4 0 0 0-.777-2.901l1.385-.8a1.5 1.5 0 0 0 .762-1.502 1.5 1.5 0 0 0-2.262-1.096L25.125 9A11.6 11.6 0 0 0 23 6.875l.801-1.389a1.5 1.5 0 1 0-2.597-1.5L20.4 5.375a11.4 11.4 0 0 0-2.901-.777V3a1.5 1.5 0 1 0-3 0v1.598c-.997.13-1.973.39-2.901.777l-.8-1.385A1.5 1.5 0 0 0 8.2 5.49L9 6.875A11.6 11.6 0 0 0 6.875 9l-1.384-.799a1.5 1.5 0 0 0-1.5 2.598l1.384.8a11.4 11.4 0 0 0-.777 2.901H3a1.5 1.5 0 1 0 0 3h1.598c.13.997.39 1.973.777 2.901l-1.385.8a1.5 1.5 0 0 0-.573 2.063 1.5 1.5 0 0 0 2.073.535L6.875 23A11.6 11.6 0 0 0 9 25.125l-.801 1.389a1.5 1.5 0 1 0 2.597 1.5l.803-1.389c.928.386 1.904.648 2.901.777V29a1.5 1.5 0 1 0 3 0v-1.598c.997-.13 1.973-.39 2.901-.777l.8 1.385a1.5 1.5 0 0 0 2.598-1.5L23 25.125A11.6 11.6 0 0 0 25.125 23l1.389.801a1.5 1.5 0 1 0 1.5-2.597l-1.389-.803c.386-.928.648-1.904.777-2.901H29a1.5 1.5 0 1 0 0-3m-13-7a8.51 8.51 0 0 1 8.365 7h-7.5L13.115 8A8.5 8.5 0 0 1 16 7.5M7.5 16a8.49 8.49 0 0 1 3.02-6.491L14.27 16l-3.75 6.491A8.49 8.49 0 0 1 7.5 16m8.5 8.5a8.5 8.5 0 0 1-2.884-.5l3.75-6.5h7.5a8.51 8.51 0 0 1-8.366 7"/></svg>