<svg xmlns="http://www.w3.org/2000/svg" width="32" height="32" fill="none" viewBox="0 0 32 32"><path fill="#000" d="M16 9.5a6.5 6.5 0 1 0 6.5 6.5A6.507 6.507 0 0 0 16 9.5m0 10a3.5 3.5 0 1 1 0-7.002 3.5 3.5 0 0 1 0 7.002m11.5-3.401V15.9l1.75-2.188a1.5 1.5 0 0 0 .279-1.324 14 14 0 0 0-1.404-3.403 1.5 1.5 0 0 0-1.139-.736l-2.785-.312-.139-.14-.312-2.785a1.5 1.5 0 0 0-.736-1.138 14 14 0 0 0-3.404-1.409 1.5 1.5 0 0 0-1.323.284L16.1 4.5H15.9l-2.189-1.75a1.5 1.5 0 0 0-1.323-.279 14 14 0 0 0-3.403 1.41 1.5 1.5 0 0 0-.736 1.133l-.313 2.785-.138.139-2.787.312a1.5 1.5 0 0 0-1.137.736A14 14 0 0 0 2.47 12.39a1.5 1.5 0 0 0 .279 1.322l1.75 2.19v.197l-1.75 2.189a1.5 1.5 0 0 0-.279 1.323 14 14 0 0 0 1.411 3.403 1.5 1.5 0 0 0 1.132.736l2.785.31.138.139.313 2.788a1.5 1.5 0 0 0 .736 1.138 14 14 0 0 0 3.404 1.409 1.5 1.5 0 0 0 1.322-.284l2.19-1.75h.197l2.188 1.75a1.5 1.5 0 0 0 1.324.279 14 14 0 0 0 3.403-1.404 1.5 1.5 0 0 0 .738-1.133l.31-2.785.14-.138 2.785-.319a1.5 1.5 0 0 0 1.133-.739 14 14 0 0 0 1.409-3.403 1.5 1.5 0 0 0-.28-1.32zm-3.015-.611q.03.511 0 1.024a1.5 1.5 0 0 0 .326 1.028l1.605 2.006q-.227.674-.541 1.312l-2.554.283a1.5 1.5 0 0 0-.956.5q-.342.384-.725.725a1.5 1.5 0 0 0-.5.957l-.283 2.552q-.637.315-1.31.544l-2.007-1.607a1.5 1.5 0 0 0-.938-.327h-.09q-.512.03-1.025 0a1.5 1.5 0 0 0-1.027.325l-2.006 1.606a11 11 0 0 1-1.312-.541l-.283-2.554a1.5 1.5 0 0 0-.5-.956 9 9 0 0 1-.725-.725 1.5 1.5 0 0 0-.957-.5l-2.552-.282a11 11 0 0 1-.544-1.312l1.605-2.006a1.5 1.5 0 0 0 .326-1.027 9 9 0 0 1 0-1.026 1.5 1.5 0 0 0-.326-1.027l-1.602-2.006q.227-.674.54-1.312l2.555-.283a1.5 1.5 0 0 0 .956-.5q.342-.384.725-.725a1.5 1.5 0 0 0 .5-.956l.282-2.553q.638-.315 1.312-.544l2.006 1.607c.29.23.657.346 1.027.325q.513-.03 1.025 0a1.5 1.5 0 0 0 1.028-.325l2.006-1.607q.674.23 1.311.544l.284 2.554c.042.37.22.71.5.956q.384.341.725.725a1.5 1.5 0 0 0 .956.5l2.553.283q.315.637.544 1.31l-1.605 2.007a1.5 1.5 0 0 0-.33 1.027"/></svg>