<svg xmlns="http://www.w3.org/2000/svg" width="32" height="32" fill="none" viewBox="0 0 32 32"><path fill="#000" d="M14.5 14.5a2 2 0 1 1-4 0 2 2 0 0 1 4 0m5-2a2 2 0 1 0 0 4 2 2 0 0 0 0-4m9 2.5v12a1.5 1.5 0 0 1-2.45 1.161l-2.716-2.224-2.718 2.224a1.5 1.5 0 0 1-1.9 0L16 25.937l-2.716 2.224a1.5 1.5 0 0 1-1.9 0l-2.718-2.224-2.716 2.224A1.5 1.5 0 0 1 3.5 27V15a12.5 12.5 0 1 1 25 0m-3 0a9.5 9.5 0 1 0-19 0v8.835l1.216-1a1.5 1.5 0 0 1 1.9 0l2.718 2.227 2.716-2.223a1.5 1.5 0 0 1 1.9 0l2.716 2.224 2.718-2.224a1.5 1.5 0 0 1 1.9 0l1.216 1z"/></svg>