<svg xmlns="http://www.w3.org/2000/svg" width="32" height="32" fill="none" viewBox="0 0 32 32"><path fill="#000" d="M18.5 9v14a1.5 1.5 0 1 1-3 0V9a1.5 1.5 0 1 1 3 0m9.5 1.5a1.5 1.5 0 1 0 0-3h-6A1.5 1.5 0 0 0 20.5 9v14a1.5 1.5 0 1 0 3 0v-5.5H27a1.5 1.5 0 1 0 0-3h-3.5v-4zm-16 4H9a1.5 1.5 0 1 0 0 3h1.5V19a2.5 2.5 0 0 1-5 0v-6A2.5 2.5 0 0 1 8 10.5a2.73 2.73 0 0 1 2.294 1.277 1.5 1.5 0 0 0 2.566-1.554A5.71 5.71 0 0 0 8 7.5 5.506 5.506 0 0 0 2.5 13v6a5.5 5.5 0 0 0 11 0v-3a1.5 1.5 0 0 0-1.5-1.5"/></svg>