<svg xmlns="http://www.w3.org/2000/svg" width="32" height="32" fill="none" viewBox="0 0 32 32"><path fill="#000" d="M14 18.5a1.5 1.5 0 0 0-1.5 1.5v2.375l-2.682-2.679A4.47 4.47 0 0 1 8.5 16.515v-4.273a4.5 4.5 0 1 0-3 0v4.273a7.45 7.45 0 0 0 2.196 5.302l2.679 2.683H8a1.5 1.5 0 0 0 0 3h6a1.5 1.5 0 0 0 1.5-1.5v-6a1.5 1.5 0 0 0-1.5-1.5m-7-12a1.5 1.5 0 1 1 0 3 1.5 1.5 0 0 1 0-3m19.5 13.258v-4.273a7.45 7.45 0 0 0-2.196-5.302L21.625 7.5H24a1.5 1.5 0 0 0 0-3h-6A1.5 1.5 0 0 0 16.5 6v6a1.5 1.5 0 1 0 3 0V9.625l2.683 2.682a4.47 4.47 0 0 1 1.317 3.178v4.273a4.5 4.5 0 1 0 3 0M25 25.5a1.5 1.5 0 1 1 0-3 1.5 1.5 0 0 1 0 3"/></svg>