<svg xmlns="http://www.w3.org/2000/svg" width="32" height="32" fill="none" viewBox="0 0 32 32"><path fill="#000" d="M26.578 9.396a7.96 7.96 0 0 0-.78-6.146A1.5 1.5 0 0 0 24.5 2.5a7.96 7.96 0 0 0-6.25 3h-2.5a7.96 7.96 0 0 0-6.25-3 1.5 1.5 0 0 0-1.299.75 7.96 7.96 0 0 0-.779 6.146A7.7 7.7 0 0 0 6.5 13v1a7.51 7.51 0 0 0 5.72 7.285A5.46 5.46 0 0 0 11.5 24v.5h-2A2.5 2.5 0 0 1 7 22a5.506 5.506 0 0 0-5.5-5.5 1.5 1.5 0 0 0 0 3A2.5 2.5 0 0 1 4 22a5.506 5.506 0 0 0 5.5 5.5h2V29a1.5 1.5 0 1 0 3 0v-5a2.5 2.5 0 0 1 5 0v5a1.5 1.5 0 1 0 3 0v-5a5.46 5.46 0 0 0-.72-2.715A7.51 7.51 0 0 0 27.5 14v-1a7.7 7.7 0 0 0-.922-3.604M24.5 14a4.5 4.5 0 0 1-4.5 4.5h-6A4.5 4.5 0 0 1 9.5 14v-1a4.73 4.73 0 0 1 .766-2.515 1.46 1.46 0 0 0 .198-1.436 5 5 0 0 1-.05-3.465 4.98 4.98 0 0 1 3.301 2.225 1.5 1.5 0 0 0 1.262.691h4.044a1.5 1.5 0 0 0 1.264-.691 4.98 4.98 0 0 1 3.301-2.225 5 5 0 0 1-.05 3.465 1.5 1.5 0 0 0 .201 1.441c.486.748.75 1.618.763 2.51z"/></svg>