<svg xmlns="http://www.w3.org/2000/svg" width="32" height="32" fill="none" viewBox="0 0 32 32"><path fill="#000" d="M29.25 14.511 26.766 5a1.993 1.993 0 0 0-3.802-.185L20.875 10.5h-9.75L9.036 4.811A1.992 1.992 0 0 0 5.234 5L2.75 14.511a7.65 7.65 0 0 0 2.946 8.154l9.16 6.471a1.99 1.99 0 0 0 2.294 0l9.159-6.471a7.65 7.65 0 0 0 2.941-8.154M7.326 8.858l1.345 3.66a1.5 1.5 0 0 0 1.41.982h11.84a1.5 1.5 0 0 0 1.408-.982l1.345-3.66 1.142 4.374L16 20.165l-9.816-6.935zM5.5 16.42 13.4 22l-1.724 1.218-4.25-3A4.6 4.6 0 0 1 5.5 16.42M16 26.274l-1.724-1.219L16 23.837l1.724 1.218zm8.575-6.059-4.25 3L18.6 22l7.9-5.579a4.61 4.61 0 0 1-1.925 3.794"/></svg>