<svg xmlns="http://www.w3.org/2000/svg" width="32" height="32" fill="none" viewBox="0 0 32 32"><path fill="#000" d="M16 2.5A13.5 13.5 0 1 0 29.5 16 13.515 13.515 0 0 0 16 2.5m10.391 12h-3.946a19.4 19.4 0 0 0-2.439-8.204 10.53 10.53 0 0 1 6.385 8.204m-13.827 3h6.875c-.282 3.336-1.5 6.433-3.436 8.731-1.946-2.299-3.158-5.395-3.44-8.731m0-3c.281-3.336 1.493-6.432 3.436-8.731 1.942 2.299 3.155 5.395 3.436 8.731zM12 6.296A19.4 19.4 0 0 0 9.555 14.5H5.609A10.53 10.53 0 0 1 12 6.296M5.609 17.5h3.946A19.4 19.4 0 0 0 12 25.704 10.53 10.53 0 0 1 5.609 17.5m14.397 8.204a19.4 19.4 0 0 0 2.439-8.204h3.946a10.53 10.53 0 0 1-6.385 8.204"/></svg>