<svg xmlns="http://www.w3.org/2000/svg" width="32" height="32" fill="none" viewBox="0 0 32 32"><path fill="#000" d="M16 2.5A13.5 13.5 0 1 0 29.5 16 13.515 13.515 0 0 0 16 2.5m-2.616 19h5.232A14.5 14.5 0 0 1 16 26.231a14.5 14.5 0 0 1-2.616-4.731m-.708-3a17.8 17.8 0 0 1 0-5h6.648a17.8 17.8 0 0 1 0 5zM5.5 16c0-.842.102-1.682.304-2.5h3.849a20.6 20.6 0 0 0 0 5h-3.85A10.4 10.4 0 0 1 5.5 16m13.116-5.5h-5.232A14.5 14.5 0 0 1 16 5.769a14.5 14.5 0 0 1 2.616 4.731m3.732 3h3.848a10.44 10.44 0 0 1 0 5h-3.849c.204-1.66.204-3.34 0-5m2.592-3h-3.19a18.6 18.6 0 0 0-1.744-4.204c2.045.85 3.77 2.32 4.934 4.204M12 6.296a18.6 18.6 0 0 0-1.75 4.204H7.06A10.56 10.56 0 0 1 12 6.296M7.06 21.5h3.19c.409 1.468.996 2.88 1.75 4.204A10.56 10.56 0 0 1 7.06 21.5m12.946 4.204A18.6 18.6 0 0 0 21.75 21.5h3.19a10.56 10.56 0 0 1-4.934 4.204"/></svg>