<svg xmlns="http://www.w3.org/2000/svg" width="32" height="32" fill="none" viewBox="0 0 32 32"><path fill="#000" d="M22.5 7.5h-13A9.51 9.51 0 0 0 0 17v.5a3 3 0 0 0 1.718 2.711c.393 1.089 1.313 2.094 2.69 2.909 1.44.851 3.2 1.375 4.592 1.375a5.51 5.51 0 0 0 5.29-4h3.42A5.51 5.51 0 0 0 23 24.5c2.316 0 6.328-1.601 7.289-4.291A3 3 0 0 0 32 17.5V17a9.51 9.51 0 0 0-9.5-9.5m-13 3h13a6.51 6.51 0 0 1 6.391 5.325 8 8 0 0 0-1.298-.95c-1.44-.851-3.2-1.375-4.593-1.375a5.51 5.51 0 0 0-5.29 4h-3.42a5.51 5.51 0 0 0-5.29-4c-1.675 0-4.237.839-5.891 2.32A6.51 6.51 0 0 1 9.5 10.5m-.5 11c-1.766 0-4.5-1.519-4.5-2.5 0-.343.444-.951 1.435-1.538C7.06 16.798 8.285 16.5 9 16.5a2.5 2.5 0 0 1 0 5m17.065-.962c-1.125.665-2.35.962-3.065.962a2.5 2.5 0 0 1 0-5c1.766 0 4.5 1.519 4.5 2.5 0 .343-.444.951-1.435 1.538"/></svg>