<svg xmlns="http://www.w3.org/2000/svg" width="32" height="32" fill="none" viewBox="0 0 32 32"><path fill="#000" d="M17.5 2v4a1.5 1.5 0 1 1-3 0V2a1.5 1.5 0 1 1 3 0M22 6.5A1.5 1.5 0 0 0 20.5 8v4a1.5 1.5 0 1 0 3 0V8A1.5 1.5 0 0 0 22 6.5m-6 18a1.5 1.5 0 0 0-1.5 1.5v4a1.5 1.5 0 1 0 3 0v-4a1.5 1.5 0 0 0-1.5-1.5m0-15a1.5 1.5 0 0 0-1.5 1.5v10a1.5 1.5 0 1 0 3 0V11A1.5 1.5 0 0 0 16 9.5m-6-3A1.5 1.5 0 0 0 8.5 8v7a1.5 1.5 0 0 0 3 0V8A1.5 1.5 0 0 0 10 6.5m12 9a1.5 1.5 0 0 0-1.5 1.5v7a1.5 1.5 0 1 0 3 0v-7a1.5 1.5 0 0 0-1.5-1.5m-18-3A1.5 1.5 0 0 0 2.5 14v4a1.5 1.5 0 0 0 3 0v-4A1.5 1.5 0 0 0 4 12.5m6 6A1.5 1.5 0 0 0 8.5 20v4a1.5 1.5 0 0 0 3 0v-4a1.5 1.5 0 0 0-1.5-1.5m18-6a1.5 1.5 0 0 0-1.5 1.5v4a1.5 1.5 0 1 0 3 0v-4a1.5 1.5 0 0 0-1.5-1.5"/></svg>