<svg xmlns="http://www.w3.org/2000/svg" width="32" height="32" fill="none" viewBox="0 0 32 32"><path fill="#000" d="M29 14.5h-4.17A9.5 9.5 0 0 0 16 1.5 1.5 1.5 0 0 0 14.5 3v4.17A9.5 9.5 0 0 0 1.5 16 1.5 1.5 0 0 0 3 17.5h4.17a9.5 9.5 0 0 0 8.83 13 1.5 1.5 0 0 0 1.5-1.5v-4.17a9.5 9.5 0 0 0 13-8.83 1.5 1.5 0 0 0-1.5-1.5M22.5 11a6.4 6.4 0 0 1-1.023 3.5H17.5V4.675a6.51 6.51 0 0 1 5 6.325M11 9.5a6.4 6.4 0 0 1 3.5 1.023V14.5H4.675A6.51 6.51 0 0 1 11 9.5M9.5 21a6.4 6.4 0 0 1 1.023-3.5H14.5v9.825A6.51 6.51 0 0 1 9.5 21M21 22.5a6.4 6.4 0 0 1-3.5-1.023V17.5h9.825a6.51 6.51 0 0 1-6.325 5"/></svg>