<svg xmlns="http://www.w3.org/2000/svg" width="32" height="32" fill="none" viewBox="0 0 32 32"><path fill="#000" d="M30.125 18.706 21.574 4.69l-.009-.014A2.48 2.48 0 0 0 19.44 3.5h-6.885a2.48 2.48 0 0 0-2.125 1.175l-.009.014-8.546 14.017a2.5 2.5 0 0 0-.045 2.558l3.42 5.976a2.5 2.5 0 0 0 2.166 1.26h17.168a2.5 2.5 0 0 0 2.166-1.26l3.415-5.976a2.5 2.5 0 0 0-.04-2.558m-3.64-.206h-4.636l-4.099-6.834 2.265-3.773zM6.85 24l-1.43-2.5h2.931zm5-2.5h8.3l2.4 4H9.45zm1.8-3L16 14.582l2.35 3.918zm10 3h2.931L25.15 24zM16 8.75 14.649 6.5h2.702zm-4.014-.857 2.264 3.773-4.099 6.834H5.515z"/></svg>