<svg xmlns="http://www.w3.org/2000/svg" width="32" height="32" fill="none" viewBox="0 0 32 32"><path fill="#000" d="M16 2.5A13.5 13.5 0 1 0 29.5 16 13.515 13.515 0 0 0 16 2.5m0 3a10.49 10.49 0 0 1 8.238 4H16a6.51 6.51 0 0 0-5.769 3.509L8.023 9.184A10.48 10.48 0 0 1 16 5.5M19.5 16a3.5 3.5 0 1 1-7 0 3.5 3.5 0 0 1 7 0m-14 0c0-1.332.254-2.652.75-3.889l4.125 7.139q.013.02.025.038a6.5 6.5 0 0 0 5.893 3.204l-2.21 3.83A10.515 10.515 0 0 1 5.5 16m12.006 10.39 4.119-7.14q.016-.028.03-.058a6.48 6.48 0 0 0-.183-6.692h4.426a10.494 10.494 0 0 1-8.392 13.89"/></svg>