<svg xmlns="http://www.w3.org/2000/svg" width="32" height="32" fill="none" viewBox="0 0 32 32"><path fill="#000" d="M2.5 13.5A1.5 1.5 0 0 1 4 12h9.5a1.5 1.5 0 1 1 0 3H4a1.5 1.5 0 0 1-1.5-1.5M28 12h-9.5a1.5 1.5 0 1 0 0 3H28a1.5 1.5 0 1 0 0-3M8.5 17H4a1.5 1.5 0 1 0 0 3h4.5a1.5 1.5 0 1 0 0-3M28 17h-4.5a1.5 1.5 0 1 0 0 3H28a1.5 1.5 0 1 0 0-3m-16 1.5a1.5 1.5 0 0 0 1.5 1.5h5a1.5 1.5 0 1 0 0-3h-5a1.5 1.5 0 0 0-1.5 1.5M6.5 22H4a1.5 1.5 0 1 0 0 3h2.5a1.5 1.5 0 1 0 0-3m7 0h-2a1.5 1.5 0 1 0 0 3h2a1.5 1.5 0 1 0 0-3m7 0h-2a1.5 1.5 0 1 0 0 3h2a1.5 1.5 0 1 0 0-3m7.5 0h-2.5a1.5 1.5 0 1 0 0 3H28a1.5 1.5 0 1 0 0-3M4 10h24a1.5 1.5 0 0 0 0-3H4a1.5 1.5 0 0 0 0 3"/></svg>