<svg xmlns="http://www.w3.org/2000/svg" width="32" height="32" fill="none" viewBox="0 0 32 32"><path fill="#000" d="m31.225 10.686-14.5-8a1.5 1.5 0 0 0-1.45 0l-14.5 8a1.5 1.5 0 0 0 0 2.625l2.725 1.5v5.97a2.5 2.5 0 0 0 .636 1.665C5.829 24.337 9.625 27.5 16 27.5c1.693.01 3.378-.233 5-.719V30a1.5 1.5 0 1 0 3 0v-4.485a15 15 0 0 0 3.863-3.064c.411-.457.638-1.05.637-1.665v-5.97l2.725-1.5a1.5 1.5 0 0 0 0-2.625zM16 5.714 27.395 12l-4.145 2.287-.023-.014-6.5-3.587a1.5 1.5 0 0 0-1.45 2.625l4.875 2.687L16 18.288 4.605 12zM16 24.5c-5.053 0-8.081-2.384-9.5-3.909v-4.125l8.775 4.843a1.5 1.5 0 0 0 1.45 0L21 18.955v4.654a13.8 13.8 0 0 1-5 .891m9.5-3.909q-.692.74-1.5 1.351V17.3l1.5-.828z"/></svg>