<svg xmlns="http://www.w3.org/2000/svg" width="32" height="32" fill="none" viewBox="0 0 32 32"><path fill="#000" d="M26 6.5c-1.272 0-2.535.21-3.738.625-1.923-3.595-5.425-5.382-5.59-5.465a1.5 1.5 0 0 0-1.343 0c-.167.083-3.668 1.875-5.593 5.465A11.5 11.5 0 0 0 6 6.5 1.5 1.5 0 0 0 4.5 8v10a11.5 11.5 0 0 0 23 0V8A1.5 1.5 0 0 0 26 6.5M7.5 9.633a8.52 8.52 0 0 1 6.965 7.59A11.5 11.5 0 0 0 7.5 13.6zm7 16.735A8.515 8.515 0 0 1 7.5 18v-1.367a8.515 8.515 0 0 1 7 8.367zM12.421 8.464C13.446 6.596 15.086 5.339 16 4.743c.915.598 2.554 1.853 3.579 3.72A11.6 11.6 0 0 0 16 12.327a11.6 11.6 0 0 0-3.579-3.862M24.5 18a8.514 8.514 0 0 1-7 8.368V25a8.515 8.515 0 0 1 7-8.367zm0-4.402a11.5 11.5 0 0 0-6.965 3.624 8.52 8.52 0 0 1 6.965-7.59z"/></svg>