<svg xmlns="http://www.w3.org/2000/svg" width="32" height="32" fill="none" viewBox="0 0 32 32"><path fill="#000" d="M7.11 3.991A1.5 1.5 0 1 0 4.89 6.01l.546.601A1.5 1.5 0 0 0 4.5 8v10a11.5 11.5 0 0 0 19.125 8.613l1.27 1.396a1.5 1.5 0 0 0 2.22-2.018zm.414 14.645a8.52 8.52 0 0 1 6.952 7.728 8.52 8.52 0 0 1-6.952-7.728M16 21.326a11.53 11.53 0 0 0-8.5-5.728V9.63q.439.08.867.204l8.854 9.738A11.6 11.6 0 0 0 16 21.326m1.524 5.037a8.53 8.53 0 0 1 1.74-4.543l2.337 2.571a8.47 8.47 0 0 1-4.077 1.972M27.5 8v10a12 12 0 0 1-.125 1.668 1.5 1.5 0 1 1-2.969-.432q.043-.297.065-.6-.143.027-.286.057a1.498 1.498 0 0 1-1.825-1.735 1.5 1.5 0 0 1 1.19-1.197c.311-.067.625-.125.945-.163V9.634a8.5 8.5 0 0 0-4.849 2.715 1.5 1.5 0 1 1-2.24-2 11.5 11.5 0 0 1 2.171-1.886C18.552 6.596 16.914 5.338 16 4.743c-.7.457-1.353.984-1.945 1.575a1.5 1.5 0 1 1-2.125-2.12 14.5 14.5 0 0 1 3.398-2.54 1.5 1.5 0 0 1 1.343 0c.166.083 3.67 1.876 5.592 5.468A11.5 11.5 0 0 1 26 6.5 1.5 1.5 0 0 1 27.5 8"/></svg>