<svg xmlns="http://www.w3.org/2000/svg" width="32" height="32" fill="none" viewBox="0 0 32 32"><path fill="#000" d="M25 19a4.5 4.5 0 0 0-2.058.5l-2.673-2.08c.145-.432.223-.883.231-1.339l1.294-.43a4.5 4.5 0 1 0-1.274-2.738l-.973.323A4.5 4.5 0 0 0 16 11.5c-.125 0-.235 0-.351.015l-.556-1.25A4.5 4.5 0 1 0 12 11.5c.125 0 .235 0 .351-.015l.556 1.25a4.49 4.49 0 0 0-1.073 4.963l-2.66 2.363a4.5 4.5 0 1 0 1.992 2.241l2.66-2.363a4.49 4.49 0 0 0 4.6-.151l2.449 1.907A4.5 4.5 0 1 0 25 19m0-8a1.5 1.5 0 1 1 0 3 1.5 1.5 0 0 1 0-3M10.5 7a1.5 1.5 0 1 1 2.999 0A1.5 1.5 0 0 1 10.5 7M7 25.5a1.5 1.5 0 1 1 0-3 1.5 1.5 0 0 1 0 3m7.5-9.5a1.5 1.5 0 1 1 2.999 0 1.5 1.5 0 0 1-2.999 0M25 25a1.5 1.5 0 1 1 0-3 1.5 1.5 0 0 1 0 3"/></svg>