<svg xmlns="http://www.w3.org/2000/svg" width="32" height="32" fill="none" viewBox="0 0 32 32"><path fill="#000" d="M11.561 23.44a1.502 1.502 0 1 1-2.125 2.126l-3-3a1.503 1.503 0 0 1 2.125-2.125zM14 15.004a3 3 0 1 0 0 6 3 3 0 0 0 0-6m17.561-7.44a1.5 1.5 0 0 1-1.765.265l-7.046 7.05c.326.745.552 1.53.67 2.335.314 2.198-.275 4.169-1.659 5.553-.56.559-1.23.997-1.966 1.286a.54.54 0 0 0-.299.5c-.066 1.951-.77 3.653-2.035 4.918-1.336 1.33-3.148 2.033-5.195 2.033q-.676 0-1.346-.097c-2.434-.348-4.841-1.607-6.779-3.544S.945 23.517.598 21.083c-.375-2.593.32-4.917 1.943-6.541 1.265-1.265 2.967-1.969 4.918-2.039a.54.54 0 0 0 .5-.299 5.8 5.8 0 0 1 1.282-1.962c1.384-1.384 3.355-1.972 5.553-1.659a9.1 9.1 0 0 1 2.331.67l7.05-7.046A1.5 1.5 0 0 1 26.561.442l5 5a1.5 1.5 0 0 1 0 2.121m-3.936-1.81L26.25 4.378l-2.375 2.375 1.375 1.375zm-9.289 7.91c-1.395-1.399-3.162-2.16-4.668-2.16-.912 0-1.727.277-2.305.857a2.8 2.8 0 0 0-.613.952 3.53 3.53 0 0 1-3.19 2.191c-.821.028-1.991.25-2.897 1.158-.94.94-1.33 2.358-1.095 4 .256 1.796 1.213 3.601 2.695 5.082 1.48 1.482 3.286 2.439 5.082 2.695 1.636.234 3.055-.155 4-1.095.906-.906 1.125-2.076 1.158-2.897a3.53 3.53 0 0 1 2.188-3.193c.356-.138.679-.348.949-.617 1.539-1.534.944-4.729-1.3-6.973zm2.789-1.401 2-2.009-1.375-1.375-2.009 2q.374.313.72.659c.233.231.45.477.664.725"/></svg>