<svg xmlns="http://www.w3.org/2000/svg" width="32" height="32" fill="none" viewBox="0 0 32 32"><path fill="#000" d="m28.488 19.09-4.963 1.805-4.467-1.787a1.5 1.5 0 0 0-1.116 0L13.5 20.885l-4.442-1.777a1.5 1.5 0 0 0-1.07-.018l-5.5 2a1.5 1.5 0 1 0 1.025 2.82l1.015-.369A5.51 5.51 0 0 0 10 28.5h12a5.506 5.506 0 0 0 5.5-5.5v-.359l2.012-.731a1.499 1.499 0 0 0-.446-2.909 1.5 1.5 0 0 0-.578.089M22 25.5H10A2.5 2.5 0 0 1 7.5 23v-.54l.975-.355 4.468 1.787a1.5 1.5 0 0 0 1.114 0l4.443-1.777 4.442 1.777a1.5 1.5 0 0 0 1.07.018l.362-.133A2.5 2.5 0 0 1 22 25.5M1.5 16A1.5 1.5 0 0 1 3 14.5h26a1.5 1.5 0 1 1 0 3H3A1.5 1.5 0 0 1 1.5 16m4.525-3h19.95a2.55 2.55 0 0 0 2.047-1.036 2.45 2.45 0 0 0 .36-2.206C27.016 5.485 21.925 2.5 16 2.5S4.986 5.484 3.618 9.756a2.44 2.44 0 0 0 .36 2.207A2.54 2.54 0 0 0 6.025 13M16 5.5c4.212 0 7.951 1.856 9.25 4.5H6.75c1.3-2.644 5.039-4.5 9.25-4.5"/></svg>