<svg xmlns="http://www.w3.org/2000/svg" width="32" height="32" fill="none" viewBox="0 0 32 32"><path fill="#000" d="m31.273 13.146-7.934-7.99a12.514 12.514 0 0 0-17.679 0l-.016.018L3.92 6.95A1.5 1.5 0 0 0 6.076 9.04L7.79 7.27a9.5 9.5 0 0 1 1.896-1.466L14.876 11 3.23 22.645a2.5 2.5 0 0 0 0 3.536l2.587 2.586a2.5 2.5 0 0 0 3.535 0L21 17.126l.189.189 2.956 2.957a2.5 2.5 0 0 0 3.536 0l3.587-3.587a2.5 2.5 0 0 0 .005-3.538M7.585 26.293 5.71 24.418l7.79-7.793 1.875 1.875zm9.915-9.918L15.625 14.5l2.439-2.439a1.5 1.5 0 0 0 0-2.125L12.78 4.655a9.5 9.5 0 0 1 8.434 2.619l3.93 3.959-2.894 2.892-.189-.189a1.5 1.5 0 0 0-2.125 0zm8.415 1.414-1.54-1.539 2.886-2.886 1.538 1.548z"/></svg>