<svg xmlns="http://www.w3.org/2000/svg" width="32" height="32" fill="none" viewBox="0 0 32 32"><path fill="#000" d="M26.5 18.5V23c0 1.731-.204 3.315-.573 4.46a1.502 1.502 0 0 1-2.411.703 1.5 1.5 0 0 1-.444-1.623c.268-.831.428-2.155.428-3.54v-4.5a1 1 0 0 0-2 0v.5a1.5 1.5 0 1 1-3 0v-2.5a1 1 0 0 0-2 0V18a1.5 1.5 0 1 1-3 0V9.5a1 1 0 0 0-2 0V23a1.5 1.5 0 0 1-2.773.792l-2.335-3.75L6.366 20a1.001 1.001 0 1 0-1.741.99l3.159 5.235a1.5 1.5 0 1 1-2.57 1.549l-3.164-5.25-.015-.025A4 4 0 0 1 8.5 17.854V9.5a4 4 0 0 1 8 0v3.125a4 4 0 0 1 4.597 2.125A4 4 0 0 1 26.5 18.5m4.56-12.561-4-4a1.503 1.503 0 0 0-2.125 2.125l1.44 1.436H21a1.5 1.5 0 0 0 0 3h5.375l-1.436 1.439a1.503 1.503 0 0 0 2.125 2.125l4-4a1.5 1.5 0 0 0-.004-2.125"/></svg>