<svg xmlns="http://www.w3.org/2000/svg" width="32" height="32" fill="none" viewBox="0 0 32 32"><path fill="#000" d="M15.46 27.364a1.5 1.5 0 0 1-1.82 1.091l-4-1a1.5 1.5 0 0 1-.468-.205l-3-2a1.502 1.502 0 1 1 1.665-2.5l2.784 1.856 3.75.938a1.5 1.5 0 0 1 1.089 1.82m16.42-12.02a2.48 2.48 0 0 1-1.25 1.445l-2.859 1.43-6.697 6.841a1.5 1.5 0 0 1-1.425.395l-8-2a1.5 1.5 0 0 1-.522-.244L4.38 18.285l-2.993-1.5a2.5 2.5 0 0 1-1.125-3.354L3.38 7.224a2.5 2.5 0 0 1 3.354-1.118l2.573 1.289 6.277-1.835c.275-.08.567-.08.842 0l6.276 1.835 2.58-1.29a2.5 2.5 0 0 1 3.348 1.119l3.106 6.211a2.48 2.48 0 0 1 .144 1.909m-6.838 1.406-3.125-6.25h-3.305l-4.775 4.631c1.97.908 3.895.024 5.103-1.194a1.5 1.5 0 0 1 2-.113l3.907 3.125zM3.176 14.329l1.316.659 2.66-5.317-1.318-.659zm19.579 4.796-2.713-2.179c-2.56 1.912-5.73 2.099-8.375.406a2.5 2.5 0 0 1-.425-3.875l.015-.014 4.975-4.838-.227-.062-5.793 1.693-3.14 6.28 5.582 4.08 6.89 1.723zm6.074-4.795-2.653-5.318-1.317.66 2.658 5.316z"/></svg>