<svg xmlns="http://www.w3.org/2000/svg" width="32" height="32" fill="none" viewBox="0 0 32 32"><path fill="#000" d="M18 23a2 2 0 1 1-4 0 2 2 0 0 1 4 0m9.5-8.5V19a11.5 11.5 0 1 1-23 0V9.5a4 4 0 0 1 5-3.875V5.5a4 4 0 0 1 7.599-1.75A4 4 0 0 1 22.5 7.5v3.125a4 4 0 0 1 5 3.875m-3 0a1 1 0 0 0-2 0 1.5 1.5 0 1 1-3 0v-7a1 1 0 0 0-2 0V13a1.5 1.5 0 1 1-3 0V5.5a1 1 0 0 0-2 0V14a1.5 1.5 0 1 1-3 0V9.5a1 1 0 0 0-2 0V19a8.5 8.5 0 1 0 17 0zM16 16a6.98 6.98 0 0 0-6.236 3.817 1.5 1.5 0 0 0 2.671 1.366 4 4 0 0 1 7.125 0 1.5 1.5 0 0 0 2.023.652 1.5 1.5 0 0 0 .653-2.018A6.97 6.97 0 0 0 16 16"/></svg>