<svg xmlns="http://www.w3.org/2000/svg" width="32" height="32" fill="none" viewBox="0 0 32 32"><path fill="#000" d="M27.5 19.5V24c0 1.731-.204 3.315-.573 4.46a1.5 1.5 0 0 1-2.855-.92c.268-.831.428-2.155.428-3.54v-4.5a1 1 0 0 0-2 0v.5a1.5 1.5 0 1 1-3 0v-2.5a1 1 0 0 0-2 0V19a1.5 1.5 0 1 1-3 0v-8.5a1 1 0 0 0-2 0V24a1.5 1.5 0 0 1-2.773.793l-2.335-3.75L7.366 21a1.001 1.001 0 1 0-1.741.99l3.159 5.235a1.5 1.5 0 1 1-2.57 1.549l-3.164-5.25-.015-.025A4 4 0 0 1 9.5 18.854V10.5a4 4 0 1 1 8 0v3.125a4 4 0 0 1 4.597 2.125A4 4 0 0 1 27.5 19.5M6 12a1.5 1.5 0 0 0 1.5-1.5 6 6 0 1 1 12 0 1.5 1.5 0 1 0 3 0 9 9 0 1 0-18 0A1.5 1.5 0 0 0 6 12"/></svg>