<svg xmlns="http://www.w3.org/2000/svg" width="32" height="32" fill="none" viewBox="0 0 32 32"><path fill="#000" d="M29.095 17.235a3.6 3.6 0 0 0-1.5-.674C29.524 14.368 30.5 12.171 30.5 10c0-3.584-2.886-6.5-6.433-6.5A6.47 6.47 0 0 0 19.5 5.356 6.47 6.47 0 0 0 14.932 3.5C11.387 3.5 8.5 6.416 8.5 10c0 1.269.34 2.537 1.027 3.838a4.5 4.5 0 0 0-1.466.98L5.375 17.5H2.5A2.5 2.5 0 0 0 0 20v5a2.5 2.5 0 0 0 2.5 2.5H15q.185 0 .364-.045l8-2q.114-.029.223-.075l4.853-2.067a1 1 0 0 0 .084-.038 3.577 3.577 0 0 0 .571-6.04M14.933 6.5a3.4 3.4 0 0 1 3.18 2.07 1.5 1.5 0 0 0 2.774 0 3.4 3.4 0 0 1 3.18-2.07c1.86 0 3.433 1.603 3.433 3.5 0 2.258-1.875 4.855-5.422 7.524l-.578.133V17.5a4 4 0 0 0-4-4h-4.661c-.912-1.28-1.339-2.404-1.339-3.5 0-1.897 1.572-3.5 3.432-3.5M3 20.5h1.5v4H3zm24.21.076-4.689 2-7.706 1.924H7.5v-4.875l2.682-2.683a1.5 1.5 0 0 1 1.06-.442H17.5a1 1 0 0 1 0 2H14a1.5 1.5 0 1 0 0 3h4q.17 0 .336-.038l8.375-1.926.059-.015a.575.575 0 0 1 .727.555.57.57 0 0 1-.287.5"/></svg>