<svg xmlns="http://www.w3.org/2000/svg" width="32" height="32" fill="none" viewBox="0 0 32 32"><path fill="#000" d="M23.5 10.5c-.337 0-.673.041-1 .125V7.5a4 4 0 0 0-5.401-3.75A4 4 0 0 0 9.5 5.5v.125a4 4 0 0 0-5 3.875V19a11.5 11.5 0 0 0 23 0v-4.5a4 4 0 0 0-4-4m1 8.5a8.5 8.5 0 1 1-17 0V9.5a1 1 0 0 1 2 0V15a1.5 1.5 0 0 0 3 0V5.5a1 1 0 0 1 2 0V14a1.5 1.5 0 1 0 3 0V7.5a1 1 0 0 1 2 0v8.175a6.51 6.51 0 0 0-5 6.325 1.5 1.5 0 1 0 3 0 3.5 3.5 0 0 1 3.5-3.5 1.5 1.5 0 0 0 1.5-1.5v-2.5a1 1 0 0 1 2 0z"/></svg>