<svg xmlns="http://www.w3.org/2000/svg" width="32" height="32" fill="none" viewBox="0 0 32 32"><path fill="#000" d="M29.095 17.235a3.55 3.55 0 0 0-3.079-.61L21.5 17.657V17.5a4 4 0 0 0-4-4h-6.257a4.47 4.47 0 0 0-3.182 1.318L5.375 17.5H2.5A2.5 2.5 0 0 0 0 20v5a2.5 2.5 0 0 0 2.5 2.5H15q.185 0 .364-.045l8-2q.114-.029.223-.075l4.853-2.067a1 1 0 0 0 .084-.038 3.577 3.577 0 0 0 .571-6.04M3 20.5h1.5v4H3zm24.21.076-4.689 2-7.706 1.924H7.5v-4.875l2.682-2.683a1.5 1.5 0 0 1 1.06-.442H17.5a1 1 0 0 1 0 2H14a1.5 1.5 0 1 0 0 3h4q.17 0 .336-.038l8.375-1.926.059-.015a.575.575 0 0 1 .727.555.57.57 0 0 1-.287.5M20.5 12.5q.206-.001.41-.019a5 5 0 1 0 4.183-6.963A5 5 0 1 0 20.5 12.5m7-2a2 2 0 1 1-4 0 2 2 0 0 1 4 0m-7-5a2 2 0 0 1 1.813 1.151A5 5 0 0 0 20.6 9.5H20.5a2 2 0 0 1 0-4"/></svg>