<svg xmlns="http://www.w3.org/2000/svg" width="32" height="32" fill="none" viewBox="0 0 32 32"><path fill="#000" d="M10.201 30.909a1.5 1.5 0 0 1-2.1.301 16.4 16.4 0 0 1-4.392-4.96 1.5 1.5 0 1 1 2.599-1.5 13.4 13.4 0 0 0 3.59 4.06 1.5 1.5 0 0 1 .303 2.099M27.958 12.25a11.5 11.5 0 0 1-19.92 11.5l-4.75-8.227a4 4 0 0 1 2.395-5.857l-.058-.108a4 4 0 0 1 4.5-5.864c.43.116.836.304 1.203.556a4 4 0 0 1 6.547.539L19.44 7.5a4 4 0 0 1 6.268.855zm-2.598 1.5-2.25-3.897a1 1 0 0 0-1.734 1l1.25 2.163a1.5 1.5 0 0 1-.548 2.049 3.5 3.5 0 0 0-1.282 4.781 1.5 1.5 0 1 1-2.598 1.5 6.51 6.51 0 0 1 1.168-7.971L15.28 6.289a1 1 0 0 0-1.732 1l3.25 5.625a1.5 1.5 0 0 1-2.6 1.5l-4.25-7.361a1 1 0 0 0-1.73 1l4.75 8.226a1.502 1.502 0 0 1-1.688 2.199 1.5 1.5 0 0 1-.911-.7l-2.75-4.762a.999.999 0 1 0-1.731 1l4.75 8.234a8.5 8.5 0 1 0 14.722-8.5m4.678-7.899a8.94 8.94 0 0 0-5.465-4.193 1.5 1.5 0 0 0-.777 2.898 5.96 5.96 0 0 1 3.644 2.795 1.5 1.5 0 1 0 2.598-1.5"/></svg>