<svg xmlns="http://www.w3.org/2000/svg" width="32" height="32" fill="none" viewBox="0 0 32 32"><path fill="#000" d="M23.5 12.21v-.71A4.5 4.5 0 0 0 19 7h-1.5V4.5H21a.5.5 0 0 1 .5.5 1.5 1.5 0 1 0 3 0A3.5 3.5 0 0 0 21 1.5h-8a1.5 1.5 0 0 0 0 3h1.5V7H13a4.5 4.5 0 0 0-4.5 4.5v.71a5.51 5.51 0 0 0-4 5.29V27A2.5 2.5 0 0 0 7 29.5h18a2.5 2.5 0 0 0 2.5-2.5v-9.5a5.51 5.51 0 0 0-4-5.29M13 10h6a1.5 1.5 0 0 1 1.5 1.5v.5h-9v-.5A1.5 1.5 0 0 1 13 10m11.5 16.5h-17v-9A2.5 2.5 0 0 1 10 15h12a2.5 2.5 0 0 1 2.5 2.5z"/></svg>