<svg xmlns="http://www.w3.org/2000/svg" width="32" height="32" fill="none" viewBox="0 0 32 32"><path fill="#000" d="M23.5 5.5q-.508 0-1 .125V5.5a4 4 0 0 0-7.599-1.75 4 4 0 0 0-5.4 3.75v6.354A4 4 0 0 0 3 18.44C6.977 26.825 9.418 30.5 16 30.5A11.513 11.513 0 0 0 27.5 19V9.5a4 4 0 0 0-4-4m1 13.5a8.51 8.51 0 0 1-8.5 8.5c-4.479 0-6.214-1.75-10.31-10.392A2 2 0 0 0 5.634 17a1 1 0 0 1 1.731-1l.026.044 2.335 3.75A1.5 1.5 0 0 0 12.5 19V7.5a1 1 0 0 1 2 0V15a1.5 1.5 0 0 0 3 0V5.5a1 1 0 0 1 2 0V15a1.5 1.5 0 0 0 3 0V9.5a1 1 0 0 1 2 0z"/></svg>