<svg xmlns="http://www.w3.org/2000/svg" width="32" height="32" fill="none" viewBox="0 0 32 32"><path fill="#000" d="m29.769 22.148-4.441-4.442-4.521-14.918A3.22 3.22 0 0 0 16 1a3.218 3.218 0 0 0-4.806 1.788L6.673 17.706 2.23 22.148a2.5 2.5 0 0 0 0 3.535l4.087 4.086a2.5 2.5 0 0 0 3.535 0l6.036-6.035q.058-.058.111-.118l.111.118 6.037 6.035a2.5 2.5 0 0 0 3.535 0l4.086-4.086a2.5 2.5 0 0 0 0-3.535M8.085 27.294 4.71 23.919l1.375-1.375 3.375 3.375zm6.415-7.45a2.48 2.48 0 0 1-.732 1.767l-2.183 2.183-3.375-3.375.854-.854c.175-.174.304-.389.375-.625l4.625-15.279a.222.222 0 0 1 .435.065zm5.938 3.972-2.205-2.205a2.48 2.48 0 0 1-.733-1.767V3.719a.223.223 0 0 1 .435-.065l4.625 15.279c.072.236.2.45.375.625l.95.95zm3.477 3.478-1.356-1.355 3.454-3.305 1.281 1.281z"/></svg>