<svg xmlns="http://www.w3.org/2000/svg" width="32" height="32" fill="none" viewBox="0 0 32 32"><path fill="#000" d="M28 10.5h-5.475l.951-5.231a1.5 1.5 0 1 0-2.952-.538L19.475 10.5h-4.95l.951-5.231a1.5 1.5 0 1 0-2.952-.538L11.475 10.5H6a1.5 1.5 0 0 0 0 3h4.93l-.909 5H4a1.5 1.5 0 0 0 0 3h5.475l-.951 5.231a1.5 1.5 0 0 0 1.207 1.75q.134.022.269.019a1.5 1.5 0 0 0 1.475-1.233l1.05-5.767h4.95l-.951 5.231a1.5 1.5 0 1 0 2.952.543l1.049-5.774H26a1.5 1.5 0 1 0 0-3h-4.93l.909-5H28a1.5 1.5 0 1 0 0-3m-9.979 8H13.07l.909-5h4.951z"/></svg>