<svg xmlns="http://www.w3.org/2000/svg" width="32" height="32" fill="none" viewBox="0 0 32 32"><path fill="#000" d="M25.591 7.481A13.509 13.509 0 0 0 2.5 17v7A3.5 3.5 0 0 0 6 27.5h2a3.5 3.5 0 0 0 3.5-3.5v-5A3.5 3.5 0 0 0 8 15.5H5.605A10.506 10.506 0 0 1 16 6.5h.08a10.46 10.46 0 0 1 10.315 9H24a3.5 3.5 0 0 0-3.5 3.5v5a3.5 3.5 0 0 0 3.5 3.5h2a3.5 3.5 0 0 0 3.5-3.5v-7a13.42 13.42 0 0 0-3.909-9.519M8 18.5a.5.5 0 0 1 .5.5v5a.5.5 0 0 1-.5.5H6a.5.5 0 0 1-.5-.5v-5.5zM26.5 24a.5.5 0 0 1-.5.5h-2a.5.5 0 0 1-.5-.5v-5a.5.5 0 0 1 .5-.5h2.5z"/></svg>