<svg xmlns="http://www.w3.org/2000/svg" width="32" height="32" fill="none" viewBox="0 0 32 32"><path fill="#000" d="M28.23 6.77a7.75 7.75 0 0 0-10.95-.01L16 7.992 14.72 6.76A7.75 7.75 0 0 0 3.763 17.723l11.168 11.33a1.5 1.5 0 0 0 2.138 0L28.23 17.73a7.75 7.75 0 0 0 0-10.96m-2.125 8.846-10.101 10.25-10.109-10.25A4.75 4.75 0 1 1 12.613 8.9l.02.02 1.208 1.163-.875.845a1.5 1.5 0 0 0-.021 2.142L15.875 16l-.94.939a1.503 1.503 0 0 0 2.125 2.125l2-2a1.5 1.5 0 0 0 0-2.125l-2.919-2.919 3.234-3.109.02-.02a4.75 4.75 0 1 1 6.71 6.725"/></svg>