<svg xmlns="http://www.w3.org/2000/svg" width="32" height="32" fill="none" viewBox="0 0 32 32"><path fill="#000" d="M8.97 17.5H3.962a1.5 1.5 0 1 1 0-3h4.204l1.556-2.332a1.5 1.5 0 0 1 2.5 0l2.75 4.125.75-1.125a1.5 1.5 0 0 1 1.25-.668h3a1.5 1.5 0 1 1 0 3h-2.2l-1.557 2.332a1.5 1.5 0 0 1-2.5 0l-2.75-4.125-.75 1.125a1.5 1.5 0 0 1-1.245.668m13.269-14c-2.515 0-4.75.991-6.26 2.695C14.468 4.491 12.237 3.5 9.72 3.5a8.25 8.25 0 0 0-8.21 7.335 1.505 1.505 0 1 0 2.99.33A5.25 5.25 0 0 1 9.72 6.5c2.23 0 4.095 1.175 4.87 3.068a1.5 1.5 0 0 0 2.78 0c.776-1.893 2.64-3.068 4.87-3.068a5.26 5.26 0 0 1 5.26 5.25c0 3.678-3.232 7.221-5.944 9.545a41 41 0 0 1-5.573 3.976c-1.358-.806-4.42-2.75-7.063-5.341a1.5 1.5 0 0 0-2.105 2.14c3.798 3.726 8.268 6.15 8.457 6.25a1.5 1.5 0 0 0 1.424 0c.555-.303 13.805-7.527 13.805-16.57a8.264 8.264 0 0 0-8.261-8.25"/></svg>