<svg xmlns="http://www.w3.org/2000/svg" width="32" height="32" fill="none" viewBox="0 0 32 32"><path fill="#000" d="M22.25 3.5a8.2 8.2 0 0 0-5.834 2.416L16 6.332l-.416-.416A8.25 8.25 0 0 0 1.5 11.75c0 9.043 13.226 16.267 13.789 16.571a1.5 1.5 0 0 0 1.422 0c.563-.304 13.789-7.529 13.789-16.571a8.26 8.26 0 0 0-8.25-8.25m-.686 17.795A41 41 0 0 1 16 25.27a41 41 0 0 1-5.564-3.975C7.728 18.971 4.5 15.427 4.5 11.75a5.25 5.25 0 0 1 8.963-3.713l.412.417-.94.94a1.5 1.5 0 0 0 0 2.125l2.713 2.712-1.713 1.712a1.503 1.503 0 0 0 2.125 2.124l2.773-2.773a1.5 1.5 0 0 0 0-2.125l-2.708-2.715 2.413-2.417A5.25 5.25 0 0 1 27.5 11.75c0 3.678-3.227 7.221-5.936 9.545"/></svg>