<svg xmlns="http://www.w3.org/2000/svg" width="32" height="32" fill="none" viewBox="0 0 32 32"><path fill="#000" d="M21.276 6.59a1.5 1.5 0 0 0-.552-2.949C18.812 4 17.186 4.9 16.01 6.207 14.5 4.5 12.267 3.5 9.75 3.5a8.26 8.26 0 0 0-8.25 8.25c0 3.875 2.364 7.875 7.025 11.859a43 43 0 0 0 6.764 4.712 1.49 1.49 0 0 0 1.421-.004 42.5 42.5 0 0 0 5.205-3.442 1.5 1.5 0 0 0-1.83-2.375c-.935.72-1.829 1.34-2.585 1.835V9.319c.679-1.415 2.039-2.404 3.776-2.729M14.5 24.333a40 40 0 0 1-4.064-3.038C7.728 18.971 4.5 15.427 4.5 11.75A5.25 5.25 0 0 1 9.75 6.5c2.125 0 3.919 1.071 4.75 2.815zM29.125 12.49a1.5 1.5 0 0 1-1.656-1.326 5.24 5.24 0 0 0-2.302-3.781 1.503 1.503 0 0 1 1.668-2.5 8.23 8.23 0 0 1 3.615 5.951 1.5 1.5 0 0 1-1.325 1.656m.125 4.178c-.73 1.465-1.791 2.953-3.154 4.429a1.5 1.5 0 0 1-2.202-2.037c1.17-1.266 2.069-2.521 2.672-3.73a1.502 1.502 0 0 1 2.502-.348 1.5 1.5 0 0 1 .182 1.686"/></svg>