<svg xmlns="http://www.w3.org/2000/svg" width="32" height="32" fill="none" viewBox="0 0 32 32"><path fill="#000" d="m28.491 20.039-5.727-1.397L9.06 4.94a1.5 1.5 0 0 0-2.167.048C4.06 8.085 2.5 12 2.5 16v9A2.5 2.5 0 0 0 5 27.5h4a2.5 2.5 0 0 0 2.5-2.5v-5.214l.134.089a13.55 13.55 0 0 1 4.889 6.075 2.49 2.49 0 0 0 2.317 1.55H29.5A2.5 2.5 0 0 0 32 25v-.591a4.46 4.46 0 0 0-3.509-4.37M8.5 24.499h-3v-6.915a13.3 13.3 0 0 1 3 .688zm20.5 0h-9.831a16.56 16.56 0 0 0-5.834-7.095 16.4 16.4 0 0 0-7.75-2.83A13.34 13.34 0 0 1 8.109 8.23l12.83 12.831c.195.194.439.331.706.396l6.15 1.5.031.008A1.48 1.48 0 0 1 29 24.415z"/></svg>