<svg xmlns="http://www.w3.org/2000/svg" width="32" height="32" fill="none" viewBox="0 0 32 32"><path fill="#000" d="M30.75 15.168 23.71 4.614a2.5 2.5 0 0 0-2.08-1.114H10.375a2.5 2.5 0 0 0-2.08 1.114L1.25 15.168a1.5 1.5 0 0 0-.216 1.16L3.332 26.59c0 .023.012.045.018.066A2.5 2.5 0 0 0 5.764 28.5H9.5A2.5 2.5 0 0 0 12 26v-1h8v1a2.5 2.5 0 0 0 2.5 2.5h3.736a2.5 2.5 0 0 0 2.411-1.843c0-.02.013-.043.018-.066l2.299-10.263a1.5 1.5 0 0 0-.214-1.16M16 9.3l-5.25-2.8h10.5zM10 22V9.5l2 1.066V17a1.5 1.5 0 0 0 3 0v-4.834l.294.158a1.5 1.5 0 0 0 1.412 0l.294-.158V16a1.5 1.5 0 0 0 3 0v-5.434L22 9.5V22zm-3.835 3.5-2.061-9.201L7 11.954V22.5a2.5 2.5 0 0 0 2 2.45v.55zm19.67 0H23v-.55a2.5 2.5 0 0 0 2-2.45V11.954l2.896 4.345z"/></svg>