<svg xmlns="http://www.w3.org/2000/svg" width="32" height="32" fill="none" viewBox="0 0 32 32"><path fill="#000" d="M18 13a2 2 0 1 1-4 0 2 2 0 0 1 4 0m11.5 3.191A13.537 13.537 0 0 1 16.273 29.5h-.282A13.4 13.4 0 0 1 7 26.117a1.499 1.499 0 1 1 2-2.235c.615.55 1.295 1.023 2.025 1.408l2.692-3.703c-2.55-.875-5.238-.416-6.805-.15a4.47 4.47 0 0 1-4.46-1.886l-1.723-2.75a1.5 1.5 0 0 1 .485-2.072L13.5 7.16V4A1.5 1.5 0 0 1 15 2.5h1a13.5 13.5 0 0 1 13.5 13.691m-3-.041a10.5 10.5 0 0 0-10-10.639V8a1.5 1.5 0 0 1-.714 1.277L4.072 16.486l.893 1.426a1.5 1.5 0 0 0 1.447.568c2.03-.344 6.176-1.045 9.956 1A4.5 4.5 0 0 0 20.5 15a1.5 1.5 0 1 1 3 0 7.51 7.51 0 0 1-6.705 7.458l-2.806 3.858c.733.136 1.479.197 2.225.181A10.536 10.536 0 0 0 26.5 16.15"/></svg>