<svg xmlns="http://www.w3.org/2000/svg" width="32" height="32" fill="none" viewBox="0 0 32 32"><path fill="#000" d="M18 13.5a1.5 1.5 0 0 1 1.5-1.5h4a1.5 1.5 0 1 1 0 3h-4a1.5 1.5 0 0 1-1.5-1.5m1.5 6.5h4a1.5 1.5 0 1 0 0-3h-4a1.5 1.5 0 1 0 0 3m10-13v18a2.5 2.5 0 0 1-2.5 2.5H5A2.5 2.5 0 0 1 2.5 25V7A2.5 2.5 0 0 1 5 4.5h22A2.5 2.5 0 0 1 29.5 7m-3 .5h-21v17h21zM6.785 19.921c.36-.852.93-1.599 1.656-2.171a4.5 4.5 0 1 1 7.118 0 5.5 5.5 0 0 1 1.657 2.171 1.5 1.5 0 0 1-2.769 1.158C14.06 20.149 13.054 19.5 12 19.5s-2.059.65-2.449 1.579a1.5 1.5 0 1 1-2.766-1.158M10.5 15a1.5 1.5 0 1 0 3 0 1.5 1.5 0 0 0-3 0"/></svg>