<svg xmlns="http://www.w3.org/2000/svg" width="32" height="32" fill="none" viewBox="0 0 32 32"><path fill="#000" d="M27 4.5H10A2.5 2.5 0 0 0 7.5 7v1.5H5A2.5 2.5 0 0 0 2.5 11v14A2.5 2.5 0 0 0 5 27.5h18a2.5 2.5 0 0 0 2.5-2.5v-2.5H27a2.5 2.5 0 0 0 2.5-2.5V7A2.5 2.5 0 0 0 27 4.5m-16.5 3h16v5.636l-.404-.403a2.5 2.5 0 0 0-3.535 0l-1.897 1.892-4.397-4.392a2.5 2.5 0 0 0-3.534 0L10.5 12.465zm12 17h-17v-13h2V20a2.5 2.5 0 0 0 2.5 2.5h12.5zm-12-5v-2.793l4-4 5.104 5.104a1.5 1.5 0 0 0 2.125 0l2.604-2.604 2.167 2.168V19.5z"/></svg>