<svg xmlns="http://www.w3.org/2000/svg" width="32" height="32" fill="none" viewBox="0 0 32 32"><path fill="#000" d="M22.25 9.75a10.5 10.5 0 1 0-12.5 12.5 10.499 10.499 0 0 0 17.682 5.182A10.5 10.5 0 0 0 22.25 9.75m-2.774 2.774a7.45 7.45 0 0 1-1.226 3.612l-2.383-2.386a7.45 7.45 0 0 1 3.613-1.23zM9.54 19.087a7.5 7.5 0 1 1 9.541-9.54 10.514 10.514 0 0 0-9.538 9.537zm2.977.397a7.45 7.45 0 0 1 1.226-3.613l2.39 2.379a7.45 7.45 0 0 1-3.612 1.23zM20 27.5a7.51 7.51 0 0 1-7.084-5.042 10.514 10.514 0 0 0 9.542-9.542A7.5 7.5 0 0 1 20 27.5"/></svg>