<svg xmlns="http://www.w3.org/2000/svg" width="32" height="32" fill="none" viewBox="0 0 32 32"><path fill="#000" d="M30 11.5h-.788l-1.076-5.024A2.51 2.51 0 0 0 25.691 4.5H6.31a2.514 2.514 0 0 0-2.445 1.976L2.788 11.5H2a1.5 1.5 0 1 0 0 3h.5V26A2.5 2.5 0 0 0 5 28.5h3a2.5 2.5 0 0 0 2.5-2.5v-2.5h11V26a2.5 2.5 0 0 0 2.5 2.5h3a2.5 2.5 0 0 0 2.5-2.5V14.5h.5a1.5 1.5 0 1 0 0-3m-23.287-4h18.575l.857 4H5.855zm.787 18h-2v-2h2zm17 0v-2h2v2zm2-5h-4v-3a1.5 1.5 0 1 0-3 0v3h-2v-3a1.5 1.5 0 1 0-3 0v3h-2v-3a1.5 1.5 0 1 0-3 0v3h-4v-6h21z"/></svg>