<svg xmlns="http://www.w3.org/2000/svg" width="32" height="32" fill="none" viewBox="0 0 32 32"><path fill="#000" d="M20 1.5A10.506 10.506 0 0 0 9.923 14.956L2.938 21.94A1.5 1.5 0 0 0 2.5 23v5A1.5 1.5 0 0 0 4 29.5h5a1.5 1.5 0 0 0 1.5-1.5v-1.5H12a1.5 1.5 0 0 0 1.5-1.5v-1.5H15a1.5 1.5 0 0 0 1.061-.439l.983-.983A10.5 10.5 0 1 0 20 1.5m0 18a7.5 7.5 0 0 1-2.762-.525 1.5 1.5 0 0 0-1.653.319l-1.21 1.206H12a1.5 1.5 0 0 0-1.5 1.5v1.5H9A1.5 1.5 0 0 0 7.5 25v1.5h-2v-2.875l7.206-7.206a1.5 1.5 0 0 0 .319-1.652A7.5 7.5 0 1 1 20 19.5m4.5-10a2 2 0 1 1-4 0 2 2 0 0 1 4 0"/></svg>