<svg xmlns="http://www.w3.org/2000/svg" width="32" height="32" fill="none" viewBox="0 0 32 32"><path fill="#000" d="M27.939 5.5H4.064A2.564 2.564 0 0 0 1.5 8.061v15.875A2.564 2.564 0 0 0 4.061 26.5h23.875a2.564 2.564 0 0 0 2.564-2.561V8.064A2.564 2.564 0 0 0 27.939 5.5m-.439 18h-23v-15h23zM6.5 16A1.5 1.5 0 0 1 8 14.5h16a1.5 1.5 0 1 1 0 3H8A1.5 1.5 0 0 1 6.5 16m0-4.5A1.5 1.5 0 0 1 8 10h16a1.5 1.5 0 1 1 0 3H8a1.5 1.5 0 0 1-1.5-1.5m0 9A1.5 1.5 0 0 1 8 19h1a1.5 1.5 0 1 1 0 3H8a1.5 1.5 0 0 1-1.5-1.5m13.5 0a1.5 1.5 0 0 1-1.5 1.5h-5a1.5 1.5 0 1 1 0-3h5a1.5 1.5 0 0 1 1.5 1.5m5.5 0A1.5 1.5 0 0 1 24 22h-1a1.5 1.5 0 1 1 0-3h1a1.5 1.5 0 0 1 1.5 1.5"/></svg>