<svg xmlns="http://www.w3.org/2000/svg" width="32" height="32" fill="none" viewBox="0 0 32 32"><path fill="#000" d="M27.409 26.488 21.096 9.125 22.05 6.5H23a1.5 1.5 0 1 0 0-3H11a1.5 1.5 0 0 0-.139 2.992l-7.27 20a1.5 1.5 0 0 0 .897 1.922q.248.088.512.086a1.5 1.5 0 0 0 1.41-.988L7.5 24.5h4.813l-.723 1.988a1.5 1.5 0 0 0 2.82 1.024l2.186-6.012h5.808l2.186 6.012a1.5 1.5 0 0 0 2.819-1.024M15.586 15.5h-4.808l1.097-3h4.808zm2.181-6H12.96l1.091-3h4.808zm-9.17 12 1.09-3H14.5l-1.091 3zm9.09-3 1.813-4.986 1.813 4.986z"/></svg>