<svg xmlns="http://www.w3.org/2000/svg" width="32" height="32" fill="none" viewBox="0 0 32 32"><path fill="#000" d="M16 2.5A13.5 13.5 0 1 0 29.5 16 13.515 13.515 0 0 0 16 2.5m5.531 16.91a6.49 6.49 0 0 0 0-6.82l2.875-2.875a10.48 10.48 0 0 1 0 12.57zM12.5 16a3.5 3.5 0 1 1 7 0 3.5 3.5 0 0 1-7 0m9.785-8.406-2.875 2.875a6.49 6.49 0 0 0-6.82 0L9.715 7.594a10.48 10.48 0 0 1 12.57 0M7.594 9.719l2.875 2.875a6.49 6.49 0 0 0 0 6.82l-2.875 2.875a10.48 10.48 0 0 1 0-12.57M9.719 24.41l2.875-2.875a6.49 6.49 0 0 0 6.82 0l2.875 2.875a10.48 10.48 0 0 1-12.57 0"/></svg>