<svg xmlns="http://www.w3.org/2000/svg" width="32" height="32" fill="none" viewBox="0 0 32 32"><path fill="#000" d="M27.5 10.5A1.5 1.5 0 0 0 26 12v1h-1.891l-.617-6.15A1.5 1.5 0 0 0 23 5.875l-5.363-4.764-.037-.031a2.5 2.5 0 0 0-3.2 0l-.037.031L9 5.875a1.5 1.5 0 0 0-.5.97L7.891 13H6v-1a1.5 1.5 0 0 0-3 0v2.5A1.5 1.5 0 0 0 4.5 16h3.09L6.511 26.763A2.5 2.5 0 0 0 9 29.5h14a2.5 2.5 0 0 0 2.488-2.744L24.41 16h3.09a1.5 1.5 0 0 0 1.5-1.5V12a1.5 1.5 0 0 0-1.5-1.5M16 3.67l2.058 1.83h-4.115zM11.358 8.5h9.284l.452 4.5H17.5v-1a1.5 1.5 0 1 0-3 0v1h-3.594zm-1.806 18 .402-4h12.092l.402 4zm12.198-7h-11.5l.35-3.5h10.79z"/></svg>