<svg xmlns="http://www.w3.org/2000/svg" width="32" height="32" fill="none" viewBox="0 0 32 32"><path fill="#000" d="M22.5 29a1.5 1.5 0 0 1-1.5 1.5H11a1.5 1.5 0 1 1 0-3h10a1.5 1.5 0 0 1 1.5 1.5m5-16a11.44 11.44 0 0 1-4.396 9.044 1.53 1.53 0 0 0-.604 1.206v.25A2.5 2.5 0 0 1 20 26h-8a2.5 2.5 0 0 1-2.5-2.5v-.25a1.5 1.5 0 0 0-.588-1.189A11.45 11.45 0 0 1 4.5 13.065C4.466 6.836 9.5 1.65 15.724 1.5A11.5 11.5 0 0 1 27.5 13m-3 0a8.497 8.497 0 0 0-8.706-8.5c-4.6.11-8.32 3.944-8.294 8.547a8.46 8.46 0 0 0 3.262 6.65A4.48 4.48 0 0 1 12.5 23h7.012a4.51 4.51 0 0 1 1.738-3.314A8.46 8.46 0 0 0 24.5 13m-2.509-.665a6.06 6.06 0 0 0-3.989-5 1.5 1.5 0 0 0-1 2.827 3.04 3.04 0 0 1 2.012 2.5 1.5 1.5 0 1 0 2.982-.33z"/></svg>