<svg xmlns="http://www.w3.org/2000/svg" width="32" height="32" fill="none" viewBox="0 0 32 32"><path fill="#000" d="M22.47 13.844a1.5 1.5 0 0 0-.856-1.07L15.75 10.14l1.613-6.794a1.5 1.5 0 0 0-2.56-1.365L2.899 14.837a1.5 1.5 0 0 0 .486 2.388L9.26 19.86l-1.62 6.792a1.5 1.5 0 0 0 2.561 1.367l11.9-12.858a1.5 1.5 0 0 0 .37-1.317m-10.595 7.945.58-2.443a1.5 1.5 0 0 0-.845-1.715l-5.095-2.287 6.61-7.133-.58 2.443a1.5 1.5 0 0 0 .84 1.72l5.096 2.288zm18.463 4.54-4.5-9a1.5 1.5 0 0 0-2.684 0l-4.5 9a1.499 1.499 0 1 0 2.682 1.34l.84-1.67h4.647l.835 1.67a1.501 1.501 0 0 0 2.683-1.34zm-6.662-3.33.824-1.645.823 1.646z"/></svg>