<svg xmlns="http://www.w3.org/2000/svg" width="32" height="32" fill="none" viewBox="0 0 32 32"><path fill="#000" d="M22.5 29a1.5 1.5 0 0 1-1.5 1.5H11a1.5 1.5 0 1 1 0-3h10a1.5 1.5 0 0 1 1.5 1.5m5-16a11.56 11.56 0 0 1-4.625 9.216.98.98 0 0 0-.375.784 2.5 2.5 0 0 1-2.5 2.5h-8A2.5 2.5 0 0 1 9.5 23v-.029a.97.97 0 0 0-.406-.775A11.42 11.42 0 0 1 4.5 13.071C4.466 6.836 9.5 1.65 15.724 1.5A11.5 11.5 0 0 1 27.5 13m-3 0a8.497 8.497 0 0 0-8.706-8.5c-4.6.111-8.32 3.945-8.294 8.549a8.44 8.44 0 0 0 3.397 6.75 4.02 4.02 0 0 1 1.574 2.7H14.5v-3.874l-3.561-3.564a1.502 1.502 0 1 1 2.125-2.125L16 15.875l2.939-2.939a1.503 1.503 0 1 1 2.125 2.125L17.5 18.625V22.5h2.031a3.99 3.99 0 0 1 1.551-2.686A8.43 8.43 0 0 0 24.5 13"/></svg>