<svg xmlns="http://www.w3.org/2000/svg" width="32" height="32" fill="none" viewBox="0 0 32 32"><path fill="#000" d="M7.11 3.991A1.5 1.5 0 1 0 4.89 6.01l4.597 5.056-4.583 4.911a1.5 1.5 0 0 0 .57 2.429l6.805 2.551-1.75 8.75a1.5 1.5 0 0 0 2.567 1.318l7.363-7.89 4.43 4.876a1.5 1.5 0 0 0 2.22-2.018zm7.396 21.125.965-4.822a1.5 1.5 0 0 0-.945-1.7l-5.901-2.21 2.884-3.092 6.922 7.615zm-.58-16.609a1.5 1.5 0 0 1-.074-2.125L18.904.976a1.5 1.5 0 0 1 2.567 1.318l-1.75 8.75 6.805 2.55a1.5 1.5 0 0 1 .57 2.43l-2.102 2.25a1.5 1.5 0 0 1-2.194-2.047l.572-.613-5.898-2.212a1.5 1.5 0 0 1-.945-1.698l.97-4.82-1.453 1.55a1.5 1.5 0 0 1-2.12.073"/></svg>