<svg xmlns="http://www.w3.org/2000/svg" width="32" height="32" fill="none" viewBox="0 0 32 32"><path fill="#000" d="M30.184 3.816a4.5 4.5 0 0 0-6.365 0 4.51 4.51 0 0 0-.15 6.208l-2.979 5.532a4.5 4.5 0 0 0-2.625.384l-2-2a4.5 4.5 0 1 0-8.56-2.051 4.5 4.5 0 0 0 1.167 3.134l-2.985 5.533a4.5 4.5 0 0 0-4.87 6.116 4.5 4.5 0 1 0 7.51-4.696l2.98-5.532q.344.056.693.056c.67 0 1.333-.15 1.939-.437l2 2a4.498 4.498 0 0 0 4.714 6.392 4.5 4.5 0 0 0 2.678-7.477l2.982-5.534q.341.054.687.056a4.5 4.5 0 0 0 3.183-7.681zm-19.25 7.125a1.502 1.502 0 1 1 2.125 2.125 1.502 1.502 0 0 1-2.125-2.125M6.059 26.066a1.5 1.5 0 1 1 .44-1.064 1.5 1.5 0 0 1-.44 1.06zm15-5a1.5 1.5 0 1 1 .002-.005zm7-13a1.5 1.5 0 1 1 .003-.006z"/></svg>