<svg xmlns="http://www.w3.org/2000/svg" width="32" height="32" fill="none" viewBox="0 0 32 32"><path fill="#000" d="m27.306 15.304-3.76 3.757a1.503 1.503 0 0 1-2.125-2.125l3.76-3.759a4.501 4.501 0 0 0-6.366-6.365l-3.755 3.762a1.502 1.502 0 1 1-2.125-2.125l3.759-3.758a7.502 7.502 0 0 1 10.609 10.61zM16.94 21.429l-3.759 3.76a4.503 4.503 0 0 1-7.683-3.184 4.5 4.5 0 0 1 1.318-3.183l3.758-3.758a1.503 1.503 0 0 0-2.125-2.125l-3.755 3.758a7.501 7.501 0 1 0 10.61 10.61l3.757-3.76a1.503 1.503 0 0 0-2.125-2.125z"/></svg>