<svg xmlns="http://www.w3.org/2000/svg" width="32" height="32" fill="none" viewBox="0 0 32 32"><path fill="#000" d="m18.56 8.491-.426.492a1.5 1.5 0 1 1-2.268-1.965l.465-.537.073-.077a6.5 6.5 0 0 1 9.192 9.192l-.077.073-.536.465a1.498 1.498 0 0 1-2.406-.66 1.5 1.5 0 0 1 .44-1.608l.492-.426a3.5 3.5 0 0 0-4.949-4.949m-2.577 14.375a1.5 1.5 0 0 0-2.117.152l-.426.49a3.5 3.5 0 0 1-4.949-4.948l.492-.426a1.5 1.5 0 1 0-1.965-2.268l-.537.465-.077.073a6.5 6.5 0 0 0 9.192 9.192q.038-.037.073-.077l.465-.536a1.5 1.5 0 0 0-.151-2.117M26 18.5h-2.5a1.5 1.5 0 1 0 0 3H26a1.5 1.5 0 0 0 0-3m-20-5h2.5a1.5 1.5 0 0 0 0-3H6a1.5 1.5 0 1 0 0 3M20 22a1.5 1.5 0 0 0-1.5 1.5V26a1.5 1.5 0 1 0 3 0v-2.5A1.5 1.5 0 0 0 20 22m-8-12a1.5 1.5 0 0 0 1.5-1.5V6a1.5 1.5 0 0 0-3 0v2.5A1.5 1.5 0 0 0 12 10"/></svg>