<svg xmlns="http://www.w3.org/2000/svg" width="32" height="32" fill="none" viewBox="0 0 32 32"><path fill="#000" d="m10.938 18.94 8-8a1.504 1.504 0 0 1 2.125 2.125l-8 8a1.502 1.502 0 1 1-2.126-2.125M27.312 4.69a7.51 7.51 0 0 0-10.608 0l-3.765 3.761a1.503 1.503 0 0 0 2.125 2.125l3.759-3.757a4.501 4.501 0 0 1 6.366 6.365l-3.764 3.756a1.504 1.504 0 0 0 2.125 2.125l3.76-3.757a7.51 7.51 0 0 0-.004-10.614zM16.94 21.425l-3.759 3.76a4.5 4.5 0 0 1-6.365 0 4.5 4.5 0 0 1 0-6.366l3.758-3.759a1.503 1.503 0 0 0-2.125-2.125l-3.755 3.763a7.502 7.502 0 0 0 10.61 10.609l3.757-3.76a1.503 1.503 0 0 0-2.125-2.124z"/></svg>