<svg xmlns="http://www.w3.org/2000/svg" width="32" height="32" fill="none" viewBox="0 0 32 32"><path fill="#000" d="M28.936 28.173a1.5 1.5 0 0 1-2.111-.238c-.176-.22-4.325-5.53-4.325-15.935a6.5 6.5 0 1 0-13 0c0 10.405-4.151 15.715-4.327 15.935a1.5 1.5 0 1 1-2.348-1.869C2.875 26 6.5 21.258 6.5 12a9.5 9.5 0 1 1 19 0c0 9.274 3.637 14.02 3.675 14.067a1.5 1.5 0 0 1-.239 2.105M13 16a2 2 0 1 0 0-4 2 2 0 0 0 0 4m8-2a2 2 0 1 0-4 0 2 2 0 0 0 4 0m-9.092 6.375 3.5 1.5a1.5 1.5 0 0 0 1.18 0l3.5-1.5a1.5 1.5 0 0 0-1.18-2.75l-2.91 1.25-2.908-1.25a1.5 1.5 0 0 0-1.182 2.75M16 24a7.14 7.14 0 0 0-4.832 1.894 1.501 1.501 0 0 0 2.028 2.211 4.107 4.107 0 0 1 5.606 0 1.5 1.5 0 0 0 2.03-2.211A7.14 7.14 0 0 0 16 24"/></svg>