<svg xmlns="http://www.w3.org/2000/svg" width="32" height="32" fill="none" viewBox="0 0 32 32"><path fill="#000" d="M28.5 16a1.5 1.5 0 0 1-1.5 1.5H16a1.5 1.5 0 0 1 0-3h11a1.5 1.5 0 0 1 1.5 1.5M16 9.5h11a1.5 1.5 0 1 0 0-3H16a1.5 1.5 0 0 0 0 3m11 13H16a1.5 1.5 0 1 0 0 3h11a1.5 1.5 0 0 0 0-3M9.939 4.939 7 7.875l-.939-.94A1.503 1.503 0 0 0 3.936 9.06l2 2a1.5 1.5 0 0 0 2.125 0l4-4a1.503 1.503 0 1 0-2.125-2.125zm0 8L7 15.875l-.939-.94a1.503 1.503 0 1 0-2.125 2.125l2 2a1.5 1.5 0 0 0 2.125 0l4-4a1.503 1.503 0 0 0-2.125-2.125zm0 8L7 23.875l-.939-.94a1.501 1.501 0 0 0-2.45 1.638c.075.182.186.347.325.487l2 2a1.5 1.5 0 0 0 2.125 0l4-4a1.503 1.503 0 0 0-2.125-2.125z"/></svg>