<svg xmlns="http://www.w3.org/2000/svg" width="32" height="32" fill="none" viewBox="0 0 32 32"><path fill="#000" d="M24 10a1.5 1.5 0 0 1-1.5 1.5h-2a1.5 1.5 0 1 1 0-3h2A1.5 1.5 0 0 1 24 10m-1.5 3.5h-2a1.5 1.5 0 1 0 0 3h2a1.5 1.5 0 1 0 0-3m-13-2h2a1.5 1.5 0 1 0 0-3h-2a1.5 1.5 0 0 0 0 3m2 2h-2a1.5 1.5 0 1 0 0 3h2a1.5 1.5 0 1 0 0-3m17-7.5v22a1.5 1.5 0 1 1-3 0v-1.5h-8V28a1.5 1.5 0 1 1-3 0v-1.5h-8V28a1.5 1.5 0 0 1-3 0V6A2.5 2.5 0 0 1 6 3.5h20A2.5 2.5 0 0 1 28.5 6m-14 17.5v-17h-8v17zm3 0h8v-17h-8z"/></svg>