<svg xmlns="http://www.w3.org/2000/svg" width="32" height="32" fill="none" viewBox="0 0 32 32"><path fill="#000" d="M31.5 19a1.5 1.5 0 0 1-1.5 1.5h-1.5V22a1.5 1.5 0 1 1-3 0v-1.5H24a1.5 1.5 0 1 1 0-3h1.5V16a1.5 1.5 0 1 1 3 0v1.5H30a1.5 1.5 0 0 1 1.5 1.5M7 9.5h1.5V11a1.5 1.5 0 0 0 3 0V9.5H13a1.5 1.5 0 0 0 0-3h-1.5V5a1.5 1.5 0 1 0-3 0v1.5H7a1.5 1.5 0 0 0 0 3m16 14h-.5V23a1.5 1.5 0 1 0-3 0v.5H19a1.5 1.5 0 1 0 0 3h.5v.5a1.5 1.5 0 1 0 3 0v-.5h.5a1.5 1.5 0 1 0 0-3m4.767-13.146L10.353 27.768a2.5 2.5 0 0 1-3.535 0L4.23 25.182a2.5 2.5 0 0 1 0-3.537L21.646 4.233a2.5 2.5 0 0 1 3.535 0l2.586 2.585a2.5 2.5 0 0 1 0 3.536M19.876 14 18 12.125 6.706 23.414l1.875 1.875zm5.414-5.414-1.875-1.875L20.125 10 22 11.875z"/></svg>