<svg xmlns="http://www.w3.org/2000/svg" width="32" height="32" fill="none" viewBox="0 0 32 32"><path fill="#000" d="M26.23 5.93a11.43 11.43 0 0 0-8.152-3.43h-.044a11.43 11.43 0 0 0-8.14 3.375L2.22 13.646a2.5 2.5 0 0 0 .01 3.526l3.583 3.578a2.49 2.49 0 0 0 1.768.733h.014a2.48 2.48 0 0 0 1.775-.75l7.609-7.8a1.51 1.51 0 0 1 2.096-.014 1.46 1.46 0 0 1 .438 1.043c.004.426-.16.835-.458 1.14l-7.781 7.523a2.5 2.5 0 0 0-.026 3.563l3.582 3.582a2.51 2.51 0 0 0 3.519.018l7.72-7.555.011-.012c4.501-4.498 4.568-11.807.15-16.291M7.578 18.276l-2.875-2.875L6.976 13.1l2.86 2.86zm9.025 9.023-2.875-2.875 2.326-2.25 2.86 2.858zm7.36-7.203-2.903 2.842-2.847-2.847 2.938-2.841.02-.017a4.63 4.63 0 0 0 1.342-3.297 4.43 4.43 0 0 0-1.357-3.176 4.525 4.525 0 0 0-6.305.06l-.012.014-2.906 2.977-2.848-2.846 2.938-2.975a8.44 8.44 0 0 1 6.01-2.49h.033a8.45 8.45 0 0 1 6.027 2.536c3.263 3.312 3.205 8.72-.13 12.06"/></svg>