<svg xmlns="http://www.w3.org/2000/svg" width="32" height="32" fill="none" viewBox="0 0 32 32"><path fill="#000" d="M25 27.5h-4.909a34 34 0 0 0 2.041-2.141C25.645 21.32 27.5 17.046 27.5 13a11.5 11.5 0 1 0-23 0c0 6.25 4.265 11.493 7.398 14.5H7a1.5 1.5 0 1 0 0 3h18a1.5 1.5 0 1 0 0-3M7.5 13a8.5 8.5 0 0 1 17 0c0 4.164-2.5 7.921-4.587 10.339A31 31 0 0 1 16 27.11a31 31 0 0 1-3.912-3.772C10 20.92 7.5 17.164 7.5 13m8.5 5.5a5.5 5.5 0 1 0-5.5-5.5 5.506 5.506 0 0 0 5.5 5.5m0-8a2.5 2.5 0 1 1 0 5 2.5 2.5 0 0 1 0-5"/></svg>