<svg xmlns="http://www.w3.org/2000/svg" width="32" height="32" fill="none" viewBox="0 0 32 32"><path fill="#000" d="M27.411 3.938a2.5 2.5 0 0 0-2.315-.268c-1.721.67-5.2 1.793-9.096 1.793S8.625 4.338 6.904 3.67A2.5 2.5 0 0 0 3.5 6v6.971c0 4.58 1.237 8.907 3.485 12.182C9.351 28.6 12.553 30.5 16 30.5s6.649-1.899 9.015-5.345c2.247-3.28 3.485-7.601 3.485-12.181V6a2.5 2.5 0 0 0-1.089-2.062M25.5 12.974c0 3.98-1.051 7.703-2.959 10.484C20.75 26.063 18.43 27.5 16 27.5s-4.75-1.436-6.541-4.043C7.55 20.678 6.5 16.955 6.5 12.974v-6.25c2.074.744 5.584 1.742 9.5 1.742s7.426-1 9.5-1.742zm-8.264 1.215a1.5 1.5 0 0 1 2.074-.451 2.22 2.22 0 0 0 2.383 0 1.502 1.502 0 0 1 1.624 2.524 5.22 5.22 0 0 1-5.625 0 1.5 1.5 0 0 1-.456-2.073m-2.924 2.072a5.22 5.22 0 0 1-5.624 0 1.5 1.5 0 0 1 1.624-2.523 2.22 2.22 0 0 0 2.384 0 1.501 1.501 0 0 1 1.625 2.523zm5.486 7.178a1.5 1.5 0 0 1-2.05.546 3.39 3.39 0 0 0-3.5 0 1.5 1.5 0 0 1-2.104-.515 1.5 1.5 0 0 1 .604-2.08 6.39 6.39 0 0 1 6.5 0 1.5 1.5 0 0 1 .55 2.049"/></svg>