<svg xmlns="http://www.w3.org/2000/svg" width="32" height="32" fill="none" viewBox="0 0 32 32"><path fill="#000" d="M14.5 9a1.5 1.5 0 0 1-1.5 1.5H5a1.5 1.5 0 1 1 0-3h8A1.5 1.5 0 0 1 14.5 9M13 21.5h-2.5V19a1.5 1.5 0 1 0-3 0v2.5H5a1.5 1.5 0 0 0 0 3h2.5V27a1.5 1.5 0 1 0 3 0v-2.5H13a1.5 1.5 0 1 0 0-3m6 .5h8a1.5 1.5 0 1 0 0-3h-8a1.5 1.5 0 0 0 0 3m8 2h-8a1.5 1.5 0 0 0 0 3h8a1.5 1.5 0 1 0 0-3M18.939 13.06a1.5 1.5 0 0 0 2.125 0L23 11.125l1.939 1.94a1.503 1.503 0 0 0 2.125-2.125L25.125 9l1.94-1.939a1.503 1.503 0 1 0-2.125-2.125L23 6.875l-1.939-1.936a1.503 1.503 0 1 0-2.125 2.125L20.875 9l-1.936 1.939a1.5 1.5 0 0 0 0 2.122"/></svg>