<svg xmlns="http://www.w3.org/2000/svg" width="32" height="32" fill="none" viewBox="0 0 32 32"><path fill="#000" d="M30.5 15A6.507 6.507 0 0 0 24 8.5h-4.96c-.43-.026-6.575-.5-12.432-5.412A2.5 2.5 0 0 0 2.5 5v20a2.48 2.48 0 0 0 1.443 2.265 2.48 2.48 0 0 0 2.665-.351A24.1 24.1 0 0 1 17 21.809v3.275a2.5 2.5 0 0 0 1.113 2.08q.083.055.173.1l1.805.882a2.5 2.5 0 0 0 3.705-1.521l1.387-5.227A6.51 6.51 0 0 0 30.5 15m-25 8.954V6.05c4.521 3.509 9.021 4.763 11.5 5.208v7.492c-2.479.44-6.979 1.694-11.5 5.204m15.549 1.321L20 24.763V21.5h2.05zM24 18.5h-4v-7h4a3.5 3.5 0 0 1 0 7"/></svg>