<svg xmlns="http://www.w3.org/2000/svg" width="32" height="32" fill="none" viewBox="0 0 32 32"><path fill="#000" d="m23.061 15.061-4 4a1.5 1.5 0 0 1-2.125 0L14 16.125l-2.939 2.936a1.503 1.503 0 1 1-2.125-2.125l4-4a1.5 1.5 0 0 1 2.125 0l2.94 2.939 2.938-2.94a1.503 1.503 0 0 1 2.125 2.125zm6.44.939A13.5 13.5 0 0 1 9.845 28.019l-4.053 1.356a2.5 2.5 0 0 1-3.168-3.168l1.351-4.053A13.5 13.5 0 1 1 29.5 16m-3 0a10.5 10.5 0 1 0-19.592 5.256 1.5 1.5 0 0 1 .125 1.228l-1.241 3.723 3.723-1.24q.232-.078.475-.078c.264 0 .522.07.75.202A10.5 10.5 0 0 0 26.501 16"/></svg>