<svg xmlns="http://www.w3.org/2000/svg" width="32" height="32" fill="none" viewBox="0 0 32 32"><path fill="#000" d="M30.5 18.664c0 2.105-.421 3.916-1.219 5.238-1.023 1.7-2.615 2.598-4.601 2.598-3.791 0-6.34-4.756-9.037-9.791C13.683 13.05 11.25 8.5 9.25 8.5c-.964 0-2.145 1.171-3.082 3.056A16.7 16.7 0 0 0 4.5 18.664c0 1.537.28 2.847.787 3.69.472.782 1.118 1.146 2.033 1.146 1.719 0 3.829-3.625 4.522-4.811a1.5 1.5 0 0 1 2.593 1.511c-1.114 1.91-2.066 3.25-3 4.223C10.094 25.82 8.75 26.5 7.32 26.5c-1.986 0-3.577-.899-4.601-2.597C1.92 22.58 1.5 20.769 1.5 18.663 1.5 13.169 4.448 5.5 9.25 5.5c3.791 0 6.34 4.756 9.038 9.791C20.25 18.95 22.684 23.5 24.68 23.5c.915 0 1.561-.364 2.032-1.146.508-.843.788-2.153.788-3.69a16.7 16.7 0 0 0-1.666-7.108C24.896 9.671 23.715 8.5 22.75 8.5c-.715 0-1.576.625-2.561 1.854a1.5 1.5 0 1 1-2.343-1.875C19.453 6.475 21.056 5.5 22.75 5.5c2.206 0 4.25 1.676 5.769 4.72a19.9 19.9 0 0 1 1.981 8.444"/></svg>