<svg xmlns="http://www.w3.org/2000/svg" width="32" height="32" fill="none" viewBox="0 0 32 32"><path fill="#000" d="M14.5 13a1.5 1.5 0 0 1-1.5 1.5h-.5V19a1.5 1.5 0 1 1-3 0v-4.5H9a1.5 1.5 0 1 1 0-3h4a1.5 1.5 0 0 1 1.5 1.5M30 11.592V19a5.5 5.5 0 0 1-5.25 5.5A8.5 8.5 0 0 1 9.5 25h-5A2.5 2.5 0 0 1 2 22.5v-13A2.5 2.5 0 0 1 4.5 7h7a5.5 5.5 0 0 1 10.064-3.066A4.5 4.5 0 0 1 27.743 9.5h.165A2.095 2.095 0 0 1 30 11.592m-7.5-4.706V7c0 .869-.203 1.725-.596 2.5H23.5a1.5 1.5 0 1 0-1-2.614M14.5 7h3a2.5 2.5 0 0 1 1.858.832A2.5 2.5 0 1 0 14.5 7M5 22h12V10H5zm17.5-1v-8.5H20v10a2.5 2.5 0 0 1-2.5 2.5h-4.267a5.5 5.5 0 0 0 9.267-4m4.5-8.5h-1.5V21q.002.148-.008.294A2.5 2.5 0 0 0 27 19z"/></svg>