<svg xmlns="http://www.w3.org/2000/svg" width="32" height="32" fill="none" viewBox="0 0 32 32"><path fill="#000" d="M25 2.5H9A2.5 2.5 0 0 0 6.5 5v2h-2A2.5 2.5 0 0 0 2 9.5v13A2.5 2.5 0 0 0 4.5 25h2v2A2.5 2.5 0 0 0 9 29.5h16a2.5 2.5 0 0 0 2.5-2.5V5A2.5 2.5 0 0 0 25 2.5m-4 11h3.5v5H21zm-11.5-8h15v5H21v-1A2.5 2.5 0 0 0 18.5 7h-9zM5 10h13v12H5zm4.5 16.5V25h9a2.5 2.5 0 0 0 2.5-2.5v-1h3.5v5zm-1.455-7.136-1.5-6a1.5 1.5 0 1 1 2.91-.728l.516 2.067.188-.375a1.5 1.5 0 0 1 2.682 0l.188.375.516-2.067a1.5 1.5 0 0 1 2.91.728l-1.5 6a1.5 1.5 0 0 1-2.796.307l-.659-1.317-.659 1.317a1.5 1.5 0 0 1-2.796-.307"/></svg>