<svg xmlns="http://www.w3.org/2000/svg" width="32" height="32" fill="none" viewBox="0 0 32 32"><path fill="#000" d="M11 11.5a4.5 4.5 0 1 0 0 9 4.5 4.5 0 0 0 0-9m0 6a1.5 1.5 0 1 1 0-3 1.5 1.5 0 0 1 0 3m16-5h-.5V5A2.5 2.5 0 0 0 24 2.5H14A2.5 2.5 0 0 0 11.5 5v2h-7A2.5 2.5 0 0 0 2 9.5v13A2.5 2.5 0 0 0 4.5 25h4v2a2.5 2.5 0 0 0 2.5 2.5h16a2.5 2.5 0 0 0 2.5-2.5V15a2.5 2.5 0 0 0-2.5-2.5M21.444 21l5.056-3.933v7.866zM14.5 5.5h9v10.1L20 18.323V9.5A2.5 2.5 0 0 0 17.5 7h-3zM5 10h12v12H5zm6.5 15h6a2.5 2.5 0 0 0 2.285-1.49l3.84 2.99H11.5z"/></svg>