<svg xmlns="http://www.w3.org/2000/svg" width="32" height="32" fill="none" viewBox="0 0 32 32"><path fill="#000" d="M25 2.5H9A2.5 2.5 0 0 0 6.5 5v2h-2A2.5 2.5 0 0 0 2 9.5v13A2.5 2.5 0 0 0 4.5 25h2v2A2.5 2.5 0 0 0 9 29.5h16a2.5 2.5 0 0 0 2.5-2.5V5A2.5 2.5 0 0 0 25 2.5m-4 11h3.5v5H21zm3.5-3H21v-1A2.5 2.5 0 0 0 18.5 7V5.5h6zm-15-5h6V7h-6zM5 10h13v12H5zm4.5 15h6v1.5h-6zm9 1.5V25a2.5 2.5 0 0 0 2.5-2.5v-1h3.5v5zM8.04 20.153a1.5 1.5 0 0 1-.192-2.113l1.7-2.04-1.7-2.04a1.5 1.5 0 1 1 2.305-1.92l1.347 1.616 1.348-1.616a1.5 1.5 0 0 1 2.304 1.92l-1.7 2.04 1.7 2.04a1.501 1.501 0 0 1-1.85 2.293 1.5 1.5 0 0 1-.454-.373L11.5 18.344l-1.348 1.616a1.5 1.5 0 0 1-2.112.192"/></svg>