<svg xmlns="http://www.w3.org/2000/svg" width="32" height="32" fill="none" viewBox="0 0 32 32"><path fill="#000" d="M7.11 3.991A1.5 1.5 0 1 0 4.89 6.01L9.5 11.08V15a6.5 6.5 0 0 0 9.014 6l1.407 1.549A8.4 8.4 0 0 1 16 23.5 8.51 8.51 0 0 1 7.5 15a1.5 1.5 0 0 0-3 0 11.52 11.52 0 0 0 10 11.403V29a1.5 1.5 0 1 0 3 0v-2.596a11.3 11.3 0 0 0 4.49-1.585l2.9 3.19a1.5 1.5 0 0 0 2.22-2.018zM16 18.5a3.5 3.5 0 0 1-3.5-3.5v-.625l3.738 4.111c-.08.014-.158.014-.238.014M11.334 5.659a1.5 1.5 0 0 1-.06-2.125A6.5 6.5 0 0 1 22.5 8v6.068a1.5 1.5 0 1 1-3 0V8a3.5 3.5 0 0 0-6.045-2.402 1.5 1.5 0 0 1-2.121.06m12.541 12.539A8.5 8.5 0 0 0 24.5 15a1.5 1.5 0 1 1 3 0 11.4 11.4 0 0 1-.843 4.326 1.5 1.5 0 0 1-2.778-1.125z"/></svg>