<svg xmlns="http://www.w3.org/2000/svg" width="32" height="32" fill="none" viewBox="0 0 32 32"><path fill="#000" d="M30 6.5H2A1.5 1.5 0 0 0 .5 8v16A1.5 1.5 0 0 0 2 25.5h28a1.5 1.5 0 0 0 1.5-1.5V8A1.5 1.5 0 0 0 30 6.5m-7.349 16H9.35A7.52 7.52 0 0 0 3.5 16.651V15.35A7.52 7.52 0 0 0 9.349 9.5H22.65a7.52 7.52 0 0 0 5.849 5.849v1.302a7.52 7.52 0 0 0-5.849 5.849M28.5 12.243A4.53 4.53 0 0 1 25.758 9.5H28.5zM6.243 9.5A4.53 4.53 0 0 1 3.5 12.242V9.5zM3.5 19.758A4.53 4.53 0 0 1 6.242 22.5H3.5zM25.758 22.5a4.53 4.53 0 0 1 2.742-2.742V22.5zM16 11a5 5 0 1 0 0 10 5 5 0 0 0 0-10m0 7a2 2 0 1 1 0-4 2 2 0 0 1 0 4"/></svg>