<svg xmlns="http://www.w3.org/2000/svg" width="32" height="32" fill="none" viewBox="0 0 32 32"><path fill="#000" d="M26.5 15.5q-.229.001-.453.02L21.906 4.474A1.5 1.5 0 0 0 20.5 3.5h-4a1.5 1.5 0 0 0 0 3h2.96l3.779 10.075A5.54 5.54 0 0 0 21.375 19h-3.65l-2.82-7.526A1.5 1.5 0 0 0 13.5 10.5h-10a1.5 1.5 0 1 0 0 3H4v.365A7.52 7.52 0 0 0 0 20.5 1.5 1.5 0 0 0 1.5 22h.592a5.5 5.5 0 0 0 10.816 0h8.185a5.5 5.5 0 1 0 5.407-6.5M6 16.256a1.5 1.5 0 0 0 1-1.415V13.5h5.46l2.063 5.5H3.258A4.5 4.5 0 0 1 6 16.256M7.5 23.5A2.5 2.5 0 0 1 5.21 22h4.58a2.5 2.5 0 0 1-2.29 1.5m19 0a2.5 2.5 0 1 1 0-5 2.5 2.5 0 0 1 0 5"/></svg>