<svg xmlns="http://www.w3.org/2000/svg" width="32" height="32" fill="none" viewBox="0 0 32 32"><path fill="#000" d="M27.5 15.5a4 4 0 0 0-1.008.125c-.16-5.193-3.668-7.79-6.25-9.697C18.773 4.84 17.5 3.9 17.5 3a1.5 1.5 0 1 0-3 0c0 .901-1.273 1.841-2.75 2.931-2.579 1.908-6.086 4.5-6.25 9.698a4 4 0 0 0-5 3.871V26A1.5 1.5 0 0 0 2 27.5h28a1.5 1.5 0 0 0 1.5-1.5v-6.5a4 4 0 0 0-4-4m-22 9h-2v-5a1 1 0 1 1 2 0zm8.039-16.157c.875-.643 1.75-1.295 2.461-2.034.71.739 1.593 1.391 2.461 2.033C20.6 9.926 22.8 11.555 23.363 14.5H8.638c.562-2.945 2.762-4.575 4.9-6.158M23.5 24.5h-3V21a1.5 1.5 0 1 0-3 0v3.5h-3V21a1.5 1.5 0 1 0-3 0v3.5h-3v-7h15zm5 0h-2v-5a1 1 0 0 1 2 0z"/></svg>