<svg xmlns="http://www.w3.org/2000/svg" width="33" height="32" fill="none" viewBox="0 0 33 32"><path fill="#000" d="M26 14h-.211l-.438-1.475q.32-.03.649-.03a1.5 1.5 0 0 0 0-3h-1.546l-1.015-3.426A1.5 1.5 0 0 0 22 5h-4a1.5 1.5 0 0 0 0 3h2.875l.445 1.5H19c-2.43 0-4.415.578-5.74 1.671a1.5 1.5 0 0 1-1.57.19C10.049 10.611 4.541 8.236 3.984 8l-.659-.28S2.8 7.5 2.5 7.5a1.5 1.5 0 0 0-.576 2.885c.215.091 5.458 2.313 8.525 3.707.589.267 1.228.405 1.875.404a4.47 4.47 0 0 0 2.847-1.011c.718-.591 1.948-.935 3.486-.98a10.5 10.5 0 0 0-3.05 6H11.81a6 6 0 1 0 0 3H17a1.5 1.5 0 0 0 1.5-1.5 7.5 7.5 0 0 1 3.975-6.617l.438 1.475A6 6 0 1 0 26 14M6 21.5h2.596a3 3 0 1 1 0-3H6a1.5 1.5 0 1 0 0 3M26 23a3 3 0 0 1-2.175-5.062l.736 2.488a1.5 1.5 0 0 0 2.878-.852l-.739-2.49A3 3 0 0 1 26 23"/></svg>