<svg xmlns="http://www.w3.org/2000/svg" width="32" height="32" fill="none" viewBox="0 0 32 32"><path fill="#000" d="M20.5 10.5a4 4 0 1 0 0-8 4 4 0 0 0 0 8m0-5a1 1 0 1 1 0 2 1 1 0 0 1 0-2m11.29 18.735-6.82-11.51a2.48 2.48 0 0 0-2.151-1.225 2.48 2.48 0 0 0-2.15 1.225l-2.338 3.944-4.677-7.938a2.5 2.5 0 0 0-4.308 0L.208 24.24A1.5 1.5 0 0 0 1.5 26.5h29a1.5 1.5 0 0 0 1.29-2.265M11.5 10.984l2.071 3.516H9.43zM4.125 23.5l3.535-6h7.68l1.698 2.883v.008l1.837 3.109zm18.233 0-2.288-3.875 2.75-4.637 5.047 8.512z"/></svg>