<svg xmlns="http://www.w3.org/2000/svg" width="32" height="32" fill="none" viewBox="0 0 32 32"><path fill="#000" d="M29.5 7A1.5 1.5 0 0 1 28 8.5h-1.5V10a1.5 1.5 0 1 1-3 0V8.5H22a1.5 1.5 0 0 1 0-3h1.5V4a1.5 1.5 0 1 1 3 0v1.5H28A1.5 1.5 0 0 1 29.5 7m-2 8.5v6a5 5 0 1 1-3-4.581V15.5a1.5 1.5 0 1 1 3 0m-3 6a2 2 0 1 0-4 0 2 2 0 0 0 4 0m-13-6.329V25.5a5 5 0 1 1-3-4.581V8a1.5 1.5 0 0 1 1.136-1.455l6.5-1.625a1.5 1.5 0 0 1 .728 2.91L11.5 9.171v2.908l6.636-1.659a1.5 1.5 0 0 1 .728 2.91zM8.5 25.5a2 2 0 1 0-4 0 2 2 0 0 0 4 0"/></svg>