<svg xmlns="http://www.w3.org/2000/svg" width="32" height="32" fill="none" viewBox="0 0 32 32"><path fill="#000" d="M27 4.5H5A2.5 2.5 0 0 0 2.5 7v20a1.5 1.5 0 0 0 2.171 1.341L8 26.677l3.329 1.664a1.5 1.5 0 0 0 1.342 0L16 26.677l3.329 1.664a1.5 1.5 0 0 0 1.342 0L24 26.677l3.329 1.664A1.498 1.498 0 0 0 29.5 27V7A2.5 2.5 0 0 0 27 4.5m-.5 20.073-1.829-.914a1.5 1.5 0 0 0-1.342 0L20 25.323l-3.329-1.664a1.5 1.5 0 0 0-1.342 0L12 25.323l-3.329-1.664a1.5 1.5 0 0 0-1.342 0l-1.829.914V7.5h21zM17 13.5a1.5 1.5 0 0 1 1.5-1.5H23a1.5 1.5 0 1 1 0 3h-4.5a1.5 1.5 0 0 1-1.5-1.5m0 5a1.5 1.5 0 0 1 1.5-1.5H23a1.5 1.5 0 1 1 0 3h-4.5a1.5 1.5 0 0 1-1.5-1.5m-8 3h5a1.5 1.5 0 0 0 1.5-1.5v-8a1.5 1.5 0 0 0-1.5-1.5H9A1.5 1.5 0 0 0 7.5 12v8A1.5 1.5 0 0 0 9 21.5m1.5-8h2v5h-2z"/></svg>