<svg xmlns="http://www.w3.org/2000/svg" width="32" height="32" fill="none" viewBox="0 0 32 32"><path fill="#000" d="M21.5 15.5A1.5 1.5 0 0 1 20 17h-8a1.5 1.5 0 1 1 0-3h8a1.5 1.5 0 0 1 1.5 1.5M20 19h-8a1.5 1.5 0 1 0 0 3h8a1.5 1.5 0 1 0 0-3m7.5-13v19a4.5 4.5 0 0 1-4.5 4.5H9A4.5 4.5 0 0 1 4.5 25V6A2.5 2.5 0 0 1 7 3.5h2V3a1.5 1.5 0 0 1 3 0v.5h2.5V3a1.5 1.5 0 1 1 3 0v.5H20V3a1.5 1.5 0 1 1 3 0v.5h2A2.5 2.5 0 0 1 27.5 6m-3 .5H23V7a1.5 1.5 0 1 1-3 0v-.5h-2.5V7a1.5 1.5 0 1 1-3 0v-.5H12V7a1.5 1.5 0 1 1-3 0v-.5H7.5V25A1.5 1.5 0 0 0 9 26.5h14a1.5 1.5 0 0 0 1.5-1.5z"/></svg>