<svg xmlns="http://www.w3.org/2000/svg" width="32" height="32" fill="none" viewBox="0 0 32 32"><path fill="#000" d="M16 2.5A13.5 13.5 0 1 0 29.5 16 13.515 13.515 0 0 0 16 2.5m0 24A10.5 10.5 0 1 1 26.5 16 10.51 10.51 0 0 1 16 26.5m-.729-15-.339 2.029q.284-.03.568-.029a5 5 0 1 1 0 10 4.94 4.94 0 0 1-3.571-1.45 1.499 1.499 0 0 1 1.659-2.43 1.5 1.5 0 0 1 .483.33 1.94 1.94 0 0 0 1.429.55 2 2 0 0 0 0-4 1.94 1.94 0 0 0-1.429.55 1.5 1.5 0 0 1-2.551-1.3l1-6A1.5 1.5 0 0 1 14 8.5h5a1.5 1.5 0 0 1 0 3z"/></svg>