<svg xmlns="http://www.w3.org/2000/svg" width="32" height="32" fill="none" viewBox="0 0 32 32"><path fill="#000" d="M26 3.5H6A2.5 2.5 0 0 0 3.5 6v20A2.5 2.5 0 0 0 6 28.5h20a2.5 2.5 0 0 0 2.5-2.5V6A2.5 2.5 0 0 0 26 3.5m-.5 22h-19v-19h19zm-13.98-9.75 1-6A1.5 1.5 0 0 1 14 8.5h5a1.5 1.5 0 0 1 0 3h-3.729l-.339 2.029q.284-.03.568-.029a5 5 0 1 1 0 10 4.94 4.94 0 0 1-3.571-1.45 1.499 1.499 0 0 1 1.659-2.43c.181.077.345.19.483.33a1.94 1.94 0 0 0 1.429.55 2 2 0 0 0 0-4 1.94 1.94 0 0 0-1.429.55 1.5 1.5 0 0 1-2.551-1.3"/></svg>