<svg xmlns="http://www.w3.org/2000/svg" width="32" height="32" fill="none" viewBox="0 0 32 32"><path fill="#000" d="M23.328 7.631C21.608 4.93 19.078 3.506 16 3.506S10.393 4.93 8.672 7.631c-1.4 2.202-2.172 5.174-2.172 8.37 0 3.194.771 6.165 2.172 8.367C10.393 27.07 12.926 28.5 16 28.5s5.608-1.429 7.328-4.132c1.4-2.202 2.172-5.173 2.172-8.368s-.771-6.167-2.172-8.369m-2.532 15.125C19.64 24.578 18.025 25.5 16 25.5s-3.639-.922-4.796-2.742C10.105 21.03 9.5 18.63 9.5 16s.605-5.031 1.704-6.757C12.36 7.423 13.975 6.5 16 6.5s3.639.923 4.796 2.743C21.895 10.969 22.5 13.375 22.5 16s-.605 5.031-1.704 6.758z"/></svg>