<svg xmlns="http://www.w3.org/2000/svg" width="32" height="32" fill="none" viewBox="0 0 32 32"><path fill="#000" d="M24 18.5a2 2 0 1 1-4 0 2 2 0 0 1 4 0m-.5-5a1.5 1.5 0 0 1-.634-.141l-8.085-3.773a8.5 8.5 0 0 0-7.228 7.487l8.24-4.397A1.5 1.5 0 0 1 18 14v12.264a8.46 8.46 0 0 0 5.594-4.44 1.498 1.498 0 0 1 2.489-.317 1.5 1.5 0 0 1 .188 1.67 11.44 11.44 0 0 1-9.5 6.297q-.135.025-.27.026-.067.002-.126-.006c-.125 0-.25.006-.375.006A11.5 11.5 0 0 1 5.795 12.701 5 5 0 0 1 8.5 3.5c.22 0 .436.048.634.141l14.655 6.838A2 2 0 0 0 23.5 6.5a1.5 1.5 0 0 1 0-3 5 5 0 1 1 0 10M10 24.015v-4.849l-2.174 1.16A8.5 8.5 0 0 0 10 24.015m5-7.515-2 1.066v8.385a8.4 8.4 0 0 0 2 .488zm-4.187-8.765L8.21 6.521a2 2 0 0 0-.697 3.718 11.5 11.5 0 0 1 3.299-2.504"/></svg>