<svg xmlns="http://www.w3.org/2000/svg" width="32" height="32" fill="none" viewBox="0 0 32 32"><path fill="#000" d="M31.5 16a1.5 1.5 0 0 1-1.5 1.5h-1.675a6.51 6.51 0 0 1-6.325 5h-4.5v2H20a4.5 4.5 0 0 1 4.5 4.5 1.5 1.5 0 1 1-3 0 1.5 1.5 0 0 0-1.5-1.5h-2.5V29a1.5 1.5 0 1 1-3 0v-1.5H12a1.5 1.5 0 0 0-1.5 1.5 1.5 1.5 0 1 1-3 0 4.5 4.5 0 0 1 4.5-4.5h2.5v-2H10a6.51 6.51 0 0 1-6.325-5H2a1.5 1.5 0 1 1 0-3h3A1.5 1.5 0 0 1 6.5 16a3.5 3.5 0 0 0 3.5 3.5h12a3.5 3.5 0 0 0 3.5-3.5 1.5 1.5 0 0 1 1.5-1.5h3a1.5 1.5 0 0 1 1.5 1.5m-22.397.625a2.5 2.5 0 0 1-.574-2l1.696-11A2.49 2.49 0 0 1 12.699 1.5H19.3a2.49 2.49 0 0 1 2.474 2.125l1.696 11a2.5 2.5 0 0 1-1.428 2.647c-.327.15-.683.228-1.043.228H11a2.5 2.5 0 0 1-1.898-.875m2.48-2.125h8.833l-1.541-10h-5.75z"/></svg>