<svg xmlns="http://www.w3.org/2000/svg" width="32" height="32" fill="none" viewBox="0 0 32 32"><path fill="#000" d="M29.5 4A1.5 1.5 0 0 0 28 2.5c-5.597 0-11.25 6.068-14.487 10.25a8 8 0 0 0-10 7.75c0 1.5-.388 2.839-1.154 3.97-.322.49-.722.925-1.184 1.286a1.485 1.485 0 0 0-.614 1.673A1.51 1.51 0 0 0 2.014 28.5h9.5a8 8 0 0 0 7.736-10C23.436 15.256 29.5 9.6 29.5 4m-3.297 1.799c-.5 1.615-1.644 3.436-3.366 5.363-.375.424-.77.838-1.168 1.237a13 13 0 0 0-2.063-2.064q.599-.6 1.235-1.169C22.77 7.444 24.59 6.304 26.202 5.8M11.509 25.5H5.25a10 10 0 0 0 1.267-5 5 5 0 1 1 5 5zm4.772-11.415c.39-.491.819-1.011 1.279-1.544a10 10 0 0 1 1.904 1.905c-.533.46-1.053.889-1.544 1.279a8 8 0 0 0-1.639-1.64"/></svg>