<svg xmlns="http://www.w3.org/2000/svg" width="32" height="32" fill="none" viewBox="0 0 32 32"><path fill="#000" d="M29.184 2.816a4.5 4.5 0 0 0-6.364 0q-.03.029-.056.059l-6.514 7.25-.777-.776a3.5 3.5 0 0 0-4.95 0L.94 18.939a1.5 1.5 0 0 0 0 2.125l10 10a1.5 1.5 0 0 0 2.125 0l9.588-9.588a3.503 3.503 0 0 0 0-4.95l-.778-.776 7.25-6.51q.03-.027.059-.056a4.5 4.5 0 0 0 0-6.368M12 27.875 10.625 26.5l2.439-2.44a1.503 1.503 0 0 0-2.125-2.125L8.5 24.375l-.875-.875 2.439-2.44a1.503 1.503 0 0 0-2.125-2.125L5.5 21.375 4.125 20 9 15.125 16.875 23zm15.086-20.84-7.612 6.831a2.5 2.5 0 0 0-.098 3.625l1.15 1.15a.5.5 0 0 1 0 .708L19 20.875 11.125 13l1.525-1.525a.5.5 0 0 1 .707 0l1.143 1.15a2.5 2.5 0 0 0 3.625-.098l6.831-7.612a1.503 1.503 0 0 1 2.125 2.125z"/></svg>