<svg xmlns="http://www.w3.org/2000/svg" width="32" height="32" fill="none" viewBox="0 0 32 32"><path fill="#000" d="M25.446 6.375A13.488 13.488 0 0 0 2.5 16c0 5.59 3.45 10.281 9 12.242a4.5 4.5 0 0 0 6-4.242 1.5 1.5 0 0 1 1.5-1.5h5.776a4.474 4.474 0 0 0 4.388-3.5c.232-1.022.344-2.066.336-3.114a13.4 13.4 0 0 0-4.054-9.511m.793 11.959a1.49 1.49 0 0 1-1.463 1.162H19a4.5 4.5 0 0 0-4.5 4.5 1.5 1.5 0 0 1-2 1.413c-2.081-.735-3.831-1.97-5.06-3.57a9.5 9.5 0 0 1-1.94-5.84A10.5 10.5 0 0 1 15.891 5.5H16a10.544 10.544 0 0 1 10.5 10.412c.007.817-.08 1.631-.261 2.428zM18 9.5a2 2 0 1 1-4 0 2 2 0 0 1 4 0m-5.5 3a2 2 0 1 1-4 0 2 2 0 0 1 4 0m0 7a2 2 0 1 1-4 0 2 2 0 0 1 4 0m11-7a2 2 0 1 1-4 0 2 2 0 0 1 4 0"/></svg>