<svg xmlns="http://www.w3.org/2000/svg" width="32" height="32" fill="none" viewBox="0 0 32 32"><path fill="#000" d="M29.5 15A13.515 13.515 0 0 0 16 1.5 13.515 13.515 0 0 0 2.5 15a1.5 1.5 0 0 0 .481 1.099l.028.025q.032.029.067.056l.024.02 11.4 8.55v1.75H14a1.5 1.5 0 1 0 0 3h4a1.5 1.5 0 1 0 0-3h-.5v-1.75l11.4-8.55a1.5 1.5 0 0 0 .6-1.2m-3.106-1.5h-3.94c-.224-3.659-1.25-6.316-2.367-8.17a10.53 10.53 0 0 1 6.307 8.17m-13.841 0c.34-4.905 2.322-7.486 3.447-8.577 1.125 1.09 3.106 3.672 3.448 8.577zm-.64-8.17C10.787 7.184 9.77 9.841 9.546 13.5h-3.94a10.53 10.53 0 0 1 6.307-8.17M8.5 16.5h6V21zm9 0h6l-6 4.5z"/></svg>