<svg xmlns="http://www.w3.org/2000/svg" width="32" height="32" fill="none" viewBox="0 0 32 32"><path fill="#000" d="M27.909 11.385a7.5 7.5 0 0 0-2.438-2.034 7.5 7.5 0 0 0-7.47-6.851h-7.5a2.5 2.5 0 0 0-2.426 1.894l-4.5 18A2.5 2.5 0 0 0 6 25.5H8.8l-.224.894A2.5 2.5 0 0 0 11 29.5h3.938a2.5 2.5 0 0 0 2.425-1.894L18.39 23.5h3.61a7.5 7.5 0 0 0 5.91-12.115zM10.89 5.5h7.11a4.47 4.47 0 0 1 3.545 1.731c.302.385.54.816.704 1.277-.082 0-.164-.008-.25-.008h-7a2.5 2.5 0 0 0-2.425 1.894L9.55 22.5H6.64zm11.345 6.006A4.49 4.49 0 0 1 18 14.5h-3.359l.75-3h6.61q.117-.002.235.006m4.125 5.585a4.49 4.49 0 0 1-4.36 3.409h-4a2.5 2.5 0 0 0-2.426 1.894L14.55 26.5H11.64l2.25-9h4.11a7.485 7.485 0 0 0 7.012-4.844 4.51 4.51 0 0 1 1.352 4.435z"/></svg>