<svg xmlns="http://www.w3.org/2000/svg" width="32" height="32" fill="none" viewBox="0 0 32 32"><path fill="#000" d="M30.5 12.585a2.48 2.48 0 0 0-.733-1.767L21.184 2.23a2.5 2.5 0 0 0-3.537 0L14.17 5.71 7.014 8.393a2.5 2.5 0 0 0-1.589 1.93L2.52 27.75a1.5 1.5 0 0 0 1.73 1.73l17.431-2.906a2.51 2.51 0 0 0 1.93-1.588l2.683-7.156 3.477-3.477a2.48 2.48 0 0 0 .729-1.768m-9.6 11.078L8.375 25.75l4.125-4.125a4.25 4.25 0 1 0-2.125-2.125L6.25 23.625 8.338 11.1l6.287-2.357 8.631 8.632zM13 17.75a1.25 1.25 0 1 1 2.499 0 1.25 1.25 0 0 1-2.499 0m12-2.875L17.125 7l2.293-2.292 7.875 7.875z"/></svg>