<svg xmlns="http://www.w3.org/2000/svg" width="32" height="32" fill="none" viewBox="0 0 32 32"><path fill="#000" d="m28.769 8.817-5.586-5.585a2.5 2.5 0 0 0-3.535 0L4.233 18.646a2.48 2.48 0 0 0-.733 1.768V26A2.5 2.5 0 0 0 6 28.5h5.586a2.48 2.48 0 0 0 1.768-.733l9.932-9.93.52 1.736-4.366 4.366a1.503 1.503 0 0 0 2.125 2.125l5-5a1.5 1.5 0 0 0 .375-1.493l-1.242-4.141 3.073-3.074a2.5 2.5 0 0 0-.002-3.539M8.125 19 17 10.125 21.875 15 13 23.875zM6.5 21.625l3.875 3.875H6.5zm17.5-8.75L19.125 8l2.293-2.293 4.875 4.876z"/></svg>