<svg xmlns="http://www.w3.org/2000/svg" width="32" height="32" fill="none" viewBox="0 0 32 32"><path fill="#000" d="M7.11 3.991A1.5 1.5 0 1 0 4.89 6.01l5.705 6.275-6.362 6.362a2.48 2.48 0 0 0-.733 1.768V26A2.5 2.5 0 0 0 6 28.5h5.586a2.48 2.48 0 0 0 1.768-.733l5.929-5.927 5.608 6.169a1.499 1.499 0 0 0 2.53-1.516 1.5 1.5 0 0 0-.31-.502zm6.819 11.96L8.5 21.375 7.125 20l5.5-5.494zM6.5 23.625 8.375 25.5H6.5zm5.5 1.25L10.625 23.5l5.328-5.328 1.313 1.445zM28.769 8.817l-5.586-5.585a2.5 2.5 0 0 0-3.535 0l-4.5 4.5a1.5 1.5 0 0 0 1.818 2.353l1.419 1.415a1.5 1.5 0 0 0 2.115 2.116L21.875 15l-.067.066a1.503 1.503 0 0 0 2.125 2.125l4.833-4.833a2.503 2.503 0 0 0 .003-3.54M24 12.875 19.125 8l2.293-2.293 4.875 4.876z"/></svg>