<svg xmlns="http://www.w3.org/2000/svg" width="32" height="32" fill="none" viewBox="0 0 32 32"><path fill="#000" d="M25.546 6.45a13.51 13.51 0 1 0-19.112 19.1 13.51 13.51 0 0 0 19.112-19.1M11.5 25a1.5 1.5 0 1 1 3 0v1.389a10.5 10.5 0 0 1-3-.903zm6 0a1.5 1.5 0 1 1 3 0v.486c-.95.45-1.96.754-3 .903zm-4.232-6.5h5.465l.946 2.052a4.5 4.5 0 0 0-3.679 1.1 4.5 4.5 0 0 0-3.679-1.098zm1.384-3L16 12.578l1.348 2.922zm8.848 7.849V22c0-.216-.048-.429-.137-.625l-6-13a1.5 1.5 0 0 0-2.726 0l-6 13c-.09.196-.136.41-.137.625v1.346a10.5 10.5 0 1 1 15 0z"/></svg>