<svg xmlns="http://www.w3.org/2000/svg" width="32" height="32" fill="none" viewBox="0 0 32 32"><path fill="#000" d="M30.375 11.229A2.49 2.49 0 0 0 28 9.5h-7.269l-2.35-7.244a2.492 2.492 0 0 0-4.756-.006L11.269 9.5H4a2.5 2.5 0 0 0-1.462 4.528l5.887 4.236-2.259 6.962a2.5 2.5 0 0 0 3.843 2.8L16 23.713l5.986 4.306a2.5 2.5 0 0 0 3.848-2.794l-2.259-6.962 5.894-4.24a2.5 2.5 0 0 0 .906-2.795M16 4.639 17.578 9.5h-3.155zM5.553 12.5h4.742l-.897 2.766zM9.49 24.7l1.492-4.597 2.448 1.762zm2.464-7.594 1.5-4.606h5.103l1.5 4.606L16 20.018zm6.614 4.76 2.448-1.763L22.51 24.7zm4.034-6.6-.898-2.766h4.743z"/></svg>