<svg xmlns="http://www.w3.org/2000/svg" width="32" height="32" fill="none" viewBox="0 0 32 32"><path fill="#000" d="M21.32 4.603A5.51 5.51 0 0 0 16 .5a1.5 1.5 0 0 0 0 3 2.5 2.5 0 0 1 2.136 1.207A8.514 8.514 0 0 0 11.5 13c0 2.717-.729 5.017-2.165 6.836-1.528 1.934-3.898 3.385-7.043 4.312a2.5 2.5 0 0 0 .275 4.863c1.904.329 3.832.492 5.763.489 5.201 0 11-1.172 15.026-4.547C26.77 22.09 28.5 18.069 28.5 13a8.514 8.514 0 0 0-7.18-8.397M20 7.5a5.5 5.5 0 0 1 5.04 3.301l-1.04.521-3.329-1.664a1.5 1.5 0 0 0-1.342 0L16 11.323l-1.04-.522A5.5 5.5 0 0 1 20 7.5m1.429 15.154c-2.175 1.823-5.291 3.058-9.013 3.572a31.4 31.4 0 0 1-7.276.111c5.835-2.313 9.035-6.567 9.335-12.423l.854.427a1.51 1.51 0 0 0 1.342 0L20 12.676l3.329 1.665a1.51 1.51 0 0 0 1.342 0l.804-.402c-.195 3.695-1.553 6.624-4.046 8.715"/></svg>