<svg xmlns="http://www.w3.org/2000/svg" width="32" height="32" fill="none" viewBox="0 0 32 32"><path fill="#000" d="M21 10.5a4 4 0 1 0 0-8 4 4 0 0 0 0 8m0-5a1 1 0 1 1 0 2 1 1 0 0 1 0-2M25.25 17a5.25 5.25 0 1 0 0 10.5 5.25 5.25 0 0 0 0-10.5m0 7.5a2.25 2.25 0 1 1 0-4.5 2.25 2.25 0 0 1 0 4.5M6.75 17a5.25 5.25 0 1 0 0 10.5 5.25 5.25 0 0 0 0-10.5m0 7.5a2.25 2.25 0 1 1 0-4.5 2.25 2.25 0 0 1 0 4.5M23.5 16H19a1.5 1.5 0 0 1-1.061-.439L15 12.625 13.125 14.5l3.94 3.939A1.5 1.5 0 0 1 17.5 19.5v6a1.5 1.5 0 1 1-3 0v-5.375l-4.561-4.564a1.5 1.5 0 0 1 0-2.125l4-4a1.5 1.5 0 0 1 2.125 0L19.625 13H23.5a1.5 1.5 0 1 1 0 3"/></svg>