<svg xmlns="http://www.w3.org/2000/svg" width="32" height="32" fill="none" viewBox="0 0 32 32"><path fill="#000" d="m27.661 16.418-5.64-6.394A4.5 4.5 0 0 0 18.82 8.5a4.5 4.5 0 1 0-5.638 0 4.5 4.5 0 0 0-3.202 1.524l-5.64 6.394a3 3 0 0 0 4.212 4.27l.841-.674-1.675 6.361a3 3 0 0 0 5.468 2.461L16 23.988l2.815 4.848a3 3 0 0 0 5.467-2.461l-1.675-6.361.842.674a3 3 0 0 0 4.212-4.27M16 3.5a1.5 1.5 0 1 1 0 3 1.5 1.5 0 0 1 0-3m9.375 14.89-4.44-3.561a1.5 1.5 0 0 0-2.389 1.552L21.41 27.25q.035.13.09.25a1 1 0 0 0-.062-.125l-4.14-7.125a1.5 1.5 0 0 0-2.595 0l-4.14 7.125q-.034.06-.062.125.056-.12.091-.25l2.859-10.865a1.5 1.5 0 0 0-2.389-1.553L6.625 18.39q-.066.05-.125.109.033-.033.065-.068l5.664-6.424a1.5 1.5 0 0 1 1.125-.507h5.292a1.5 1.5 0 0 1 1.125.508l5.665 6.423.065.068a2 2 0 0 0-.126-.109"/></svg>