<svg xmlns="http://www.w3.org/2000/svg" width="32" height="32" fill="none" viewBox="0 0 32 32"><path fill="#000" d="M19 10.5a4.5 4.5 0 1 0 0-9 4.5 4.5 0 0 0 0 9m0-6a1.5 1.5 0 1 1 0 3 1.5 1.5 0 0 1 0-3m8.5 14A1.5 1.5 0 0 1 26 20c-4.625 0-6.909-2.309-8.75-4.162q-.32-.324-.625-.625l-1.079 2.48 4.329 3.086A1.5 1.5 0 0 1 20.5 22v7a1.5 1.5 0 1 1-3 0v-6.229l-3.171-2.265-3.954 9.092a1.5 1.5 0 1 1-2.75-1.197l6.257-14.391q-1.33.094-3.125 1.05a20 20 0 0 0-3.728 2.654 1.5 1.5 0 0 1-2.054-2.188c.326-.306 8.045-7.458 13.011-3.147.493.427.955.895 1.403 1.347C21.054 15.41 22.625 17 25.999 17a1.5 1.5 0 0 1 1.5 1.5"/></svg>