<svg xmlns="http://www.w3.org/2000/svg" width="32" height="32" fill="none" viewBox="0 0 32 32"><path fill="#000" d="M19 11.5a4.5 4.5 0 1 0 0-9 4.5 4.5 0 0 0 0 9m0-6a1.5 1.5 0 1 1 0 3 1.5 1.5 0 0 1 0-3m9.5 11.675a1.5 1.5 0 0 1-.875 1.364 8.3 8.3 0 0 1-2.684.472c-1.75 0-4.281-.477-7.471-2.375q-.555 1.356-1.284 2.625C19.14 20.354 23.5 22.975 23.5 29a1.5 1.5 0 1 1-3 0c0-2.336-.869-4.132-2.657-5.492-1.145-.875-2.444-1.375-3.43-1.668q-.15.189-.312.369c-2.5 2.858-5.602 4.345-9.031 4.345q-.611 0-1.219-.061a1.501 1.501 0 0 1-.807-2.659 1.5 1.5 0 0 1 1.106-.326c6.538.652 9.685-5.74 10.724-8.47-4.274-2.23-6.906-.19-6.935-.163a1.5 1.5 0 0 1-1.875-2.34c.196-.16 4.936-3.855 11.78.793 5.387 3.663 8.512 2.49 8.562 2.47a1.5 1.5 0 0 1 2.094 1.374z"/></svg>