<svg xmlns="http://www.w3.org/2000/svg" width="32" height="32" fill="none" viewBox="0 0 32 32"><path fill="#000" d="M29.425 10.856A2.944 2.944 0 0 0 26.5 8.5h-7.676a4.5 4.5 0 1 0-5.648 0H5.5a3 3 0 0 0-1.25 5.724l.024.011 5.953 2.625-2.507 9.515A3 3 0 0 0 10.5 30.5a3 3 0 0 0 2.69-1.661l2.81-4.85 2.814 4.85a3 3 0 0 0 5.466-2.464l-2.5-9.519 5.954-2.625.023-.011a2.944 2.944 0 0 0 1.668-3.364M16 3.5a1.5 1.5 0 1 1 0 3 1.5 1.5 0 0 1 0-3m3.395 11.125a1.5 1.5 0 0 0-.846 1.75l2.858 10.875q.035.13.092.25-.03-.06-.063-.119l-4.139-7.131a1.5 1.5 0 0 0-2.595 0l-4.138 7.131a2 2 0 0 0-.063.119 1.5 1.5 0 0 0 .091-.25l2.86-10.865a1.5 1.5 0 0 0-.847-1.75L5.5 11.5h21z"/></svg>