<svg xmlns="http://www.w3.org/2000/svg" width="32" height="32" fill="none" viewBox="0 0 32 32"><path fill="#000" d="M16 11.5a4.5 4.5 0 1 0 0-9 4.5 4.5 0 0 0 0 9m0-6a1.5 1.5 0 1 1 0 3 1.5 1.5 0 0 1 0-3M5.5 12a2.5 2.5 0 1 1 5 0 2.5 2.5 0 0 1-5 0m23 2.2a1.5 1.5 0 0 1-2.439 1.175s-2.625-1.935-6.667.035a26 26 0 0 1-.266 2.25l3.832 3.194a1.5 1.5 0 0 1 .462 1.625l-2 6a1.5 1.5 0 1 1-2.844-.949l1.672-5.03-1.93-1.608q-.308.91-.715 1.78c-1.83 3.874-4.917 6.49-9.177 7.768A1.5 1.5 0 0 1 8 30.5a1.5 1.5 0 0 1-.431-2.937c4.73-1.42 7.596-4.84 8.551-10.18-3 1.692-5.389 2.125-7.058 2.125a8.2 8.2 0 0 1-2.687-.47 1.5 1.5 0 0 1 1.215-2.74c.054.02 3.178 1.19 8.563-2.47 6.838-4.648 11.782-.798 11.782-.798a1.5 1.5 0 0 1 .565 1.17"/></svg>