<svg xmlns="http://www.w3.org/2000/svg" width="32" height="32" fill="none" viewBox="0 0 32 32"><path fill="#000" d="M7.113 3.991a1.5 1.5 0 1 0-2.22 2.018l2.982 3.286a18.4 18.4 0 0 0-5.179 3.625c-2.681 2.683-2.94 6.638-.625 9.625a2.5 2.5 0 0 0 2.867.79l6.112-2.169.056-.02a2.5 2.5 0 0 0 1.519-1.833l.68-3.403q.23-.072.465-.125l11.114 12.229a1.5 1.5 0 1 0 2.218-2.018zm3.312 11.045-.675 3.41-5.52 1.957c-1.145-1.73-.926-3.845.591-5.363a15.2 15.2 0 0 1 5.188-3.402l1.583 1.737a2.5 2.5 0 0 0-1.167 1.661m19.5 7.5c-.35.453-.847.77-1.405.9a1.5 1.5 0 0 1-.869-2.866c1.276-1.759 1.094-3.964-.474-5.531-2.83-2.833-6.677-4.444-10.813-4.539a1.5 1.5 0 0 1 .034-3h.033c4.916.109 9.487 2.031 12.868 5.414 2.681 2.687 2.94 6.642.627 9.624z"/></svg>