<svg xmlns="http://www.w3.org/2000/svg" width="32" height="32" fill="none" viewBox="0 0 32 32"><path fill="#000" d="M18.551 4.613a1.5 1.5 0 0 1 1.837-1.062 11.27 11.27 0 0 1 8.06 8.062 1.5 1.5 0 1 1-2.897.774 8.3 8.3 0 0 0-5.938-5.938 1.5 1.5 0 0 1-1.062-1.836m10.93 17.335A7.53 7.53 0 0 1 22 28.5C11.799 28.5 3.5 20.201 3.5 10a7.534 7.534 0 0 1 6.553-7.481A2.51 2.51 0 0 1 12.65 4l2.639 5.891.01.023a2.5 2.5 0 0 1-.208 2.354 1 1 0 0 1-.106.143l-2.383 2.839c.883 1.605 2.563 3.27 4.187 4.151l2.788-2.375q.068-.056.14-.105a2.49 2.49 0 0 1 2.376-.217l.022.01L28 19.35a2.51 2.51 0 0 1 1.481 2.598m-3.039-.008-5.25-2.351-2.803 2.384q-.066.057-.139.106a2.5 2.5 0 0 1-2.461.171c-2.435-1.175-4.861-3.585-6.039-6a2.5 2.5 0 0 1 .16-2.455q.05-.075.107-.144l2.396-2.84-2.353-5.25A4.536 4.536 0 0 0 6.5 10 15.52 15.52 0 0 0 22 25.5a4.536 4.536 0 0 0 4.442-3.56m-8.238-10.756a4 4 0 0 1 2.612 2.612 1.5 1.5 0 0 0 1.882.982 1.5 1.5 0 0 0 .98-1.876 7 7 0 0 0-4.574-4.573 1.5 1.5 0 1 0-.9 2.861z"/></svg>