<svg xmlns="http://www.w3.org/2000/svg" width="32" height="32" fill="none" viewBox="0 0 32 32"><path fill="#000" d="m18.94 10.939 1.935-1.94-1.935-1.94a1.503 1.503 0 1 1 2.125-2.124L23 6.875l1.94-1.94a1.503 1.503 0 0 1 2.125 2.125L25.125 9l1.94 1.939a1.503 1.503 0 0 1-2.125 2.125L23 11.124l-1.939 1.94a1.502 1.502 0 1 1-2.125-2.125zm10.541 11.008A7.53 7.53 0 0 1 22 28.5C11.799 28.5 3.5 20.2 3.5 10a7.534 7.534 0 0 1 6.553-7.481 2.51 2.51 0 0 1 2.597 1.48l2.639 5.892.01.023a2.5 2.5 0 0 1-.208 2.353q-.049.076-.106.144l-2.383 2.839c.883 1.605 2.563 3.27 4.187 4.151l2.788-2.375q.068-.055.14-.105a2.49 2.49 0 0 1 2.376-.219l.022.01L28 19.35a2.51 2.51 0 0 1 1.481 2.597m-3.039-.007-5.25-2.351-2.803 2.383q-.066.058-.139.107a2.5 2.5 0 0 1-2.461.17c-2.435-1.174-4.861-3.584-6.039-6a2.5 2.5 0 0 1 .16-2.454q.05-.076.107-.145l2.396-2.839-2.353-5.25A4.536 4.536 0 0 0 6.5 10 15.52 15.52 0 0 0 22 25.5a4.536 4.536 0 0 0 4.442-3.56"/></svg>