<svg xmlns="http://www.w3.org/2000/svg" width="32" height="32" fill="none" viewBox="0 0 32 32"><path fill="#000" d="m28 19.35-5.886-2.639-.023-.01a2.49 2.49 0 0 0-2.515.324L16.788 19.4c-1.626-.881-3.304-2.546-4.187-4.151l2.383-2.833q.057-.069.106-.144a2.5 2.5 0 0 0 .197-2.376L12.65 4a2.51 2.51 0 0 0-2.597-1.481A7.534 7.534 0 0 0 3.5 9.999c0 10.202 8.299 18.5 18.5 18.5a7.53 7.53 0 0 0 7.481-6.552A2.51 2.51 0 0 0 28 19.35m-6 6.15A15.52 15.52 0 0 1 6.5 10a4.536 4.536 0 0 1 3.56-4.443l2.352 5.25-2.395 2.853a2 2 0 0 0-.107.145 2.5 2.5 0 0 0-.16 2.455c1.178 2.41 3.604 4.82 6.039 6a2.5 2.5 0 0 0 2.461-.181q.072-.049.139-.107l2.803-2.383 5.25 2.35A4.536 4.536 0 0 1 22 25.5"/></svg>