<svg xmlns="http://www.w3.org/2000/svg" width="32" height="32" fill="none" viewBox="0 0 32 32"><path fill="#000" d="M27.408 4.596a7.16 7.16 0 0 0-10.125 0L4.596 17.282a7.16 7.16 0 0 0 10.126 10.125l12.686-12.69a7.166 7.166 0 0 0 0-10.12m-14.81 20.686a4.156 4.156 0 0 1-6.846-4.525c.23-.51.56-.97.97-1.35L12 14.125 17.875 20zm12.687-12.686L20 17.875 14.125 12l5.284-5.283a4.158 4.158 0 0 1 5.875 5.876zM24.064 9.44a1.5 1.5 0 0 1 0 2.125l-3 3a1.502 1.502 0 1 1-2.125-2.125l3-3a1.5 1.5 0 0 1 2.125 0"/></svg>