<svg xmlns="http://www.w3.org/2000/svg" width="32" height="32" fill="none" viewBox="0 0 32 32"><path fill="#000" d="m29.061 26.94-5.5-5.5a8 8 0 0 0 4.449-10.125 1.5 1.5 0 0 0-1.923-.896l-4.45 1.625A8 8 0 0 0 11.323 1.986a1.5 1.5 0 0 0-.896 1.923l1.625 4.451A8 8 0 0 0 1.99 18.679a1.5 1.5 0 0 0 1.923.896l4.451-1.625a7.993 7.993 0 0 0 10.319 10.061 1.5 1.5 0 0 0 .896-1.922l-1.619-4.449a8 8 0 0 0 1.963.395l7.021 7.021a1.503 1.503 0 0 0 2.125-2.125zM16.173 4.973a5 5 0 0 1 .928 8.5l-3.263-8.967a5 5 0 0 1 2.335.466M4.506 16.165a5 5 0 0 1 8.97-3.264zm9.324 8.865a5 5 0 0 1-.929-8.5l3.264 8.97a5 5 0 0 1-2.335-.47m4.556-6.439a5 5 0 0 1-1.858-1.49l8.972-3.263a5 5 0 0 1-7.11 4.75z"/></svg>