<svg xmlns="http://www.w3.org/2000/svg" width="32" height="32" fill="none" viewBox="0 0 32 32"><path fill="#000" d="M30.429 7.756a2.5 2.5 0 0 0-1.133-1.547 25.69 25.69 0 0 0-26.592 0 2.5 2.5 0 0 0-.838 3.435l12 19.657a2.5 2.5 0 0 0 4.275 0l12-19.657a2.48 2.48 0 0 0 .288-1.888M10.875 18.648l-2.484-4.07a2.48 2.48 0 0 1 1.961.323 2.5 2.5 0 0 1 .523 3.747m8 3.68a2.5 2.5 0 0 1 2.334-3.82zm3.973-6.51a5.5 5.5 0 0 0-5.613 9.197L16 27.045l-3.529-5.783a5.5 5.5 0 0 0-2.535-9.68 17.52 17.52 0 0 1 14.75 1.225zm3.402-5.568a20.52 20.52 0 0 0-20.5 0L4.694 8.517a22.69 22.69 0 0 1 22.612 0z"/></svg>