<svg xmlns="http://www.w3.org/2000/svg" width="32" height="32" fill="none" viewBox="0 0 32 32"><path fill="#000" d="M31.453 4.956a1.5 1.5 0 0 0-1.41-1.408c-6.66-.393-12.024 1.67-14.354 5.517-1.518 2.5-1.57 5.521-.183 8.413a9.4 9.4 0 0 0-1.405 2.5l-1.212-1.213c.899-2.096.804-4.264-.3-6.086C10.84 9.795 6.86 8.25 1.944 8.535A1.5 1.5 0 0 0 .535 9.944C.25 14.86 1.795 18.84 4.681 20.589a6.2 6.2 0 0 0 3.25.909 7.2 7.2 0 0 0 2.838-.61l2.731 2.737V27a1.5 1.5 0 1 0 3 0v-3.686a6.45 6.45 0 0 1 1.186-3.744 9.6 9.6 0 0 0 4.012.93 8.1 8.1 0 0 0 4.237-1.183c3.846-2.336 5.91-7.702 5.518-14.36M6.235 18.023c-1.649-1-2.648-3.433-2.729-6.517 3.084.082 5.518 1.082 6.517 2.729.39.635.55 1.386.453 2.125L9.06 14.939a1.503 1.503 0 1 0-2.125 2.125l1.417 1.417a3.3 3.3 0 0 1-2.117-.459m18.146-1.273c-1.332.806-2.875.959-4.476.47l4.656-4.655a1.503 1.503 0 0 0-2.125-2.125l-4.656 4.655c-.484-1.595-.331-3.144.47-4.47C19.846 7.989 23.625 6.491 28.5 6.5c.017 4.875-1.483 8.648-4.119 10.25"/></svg>