<svg xmlns="http://www.w3.org/2000/svg" width="32" height="32" fill="none" viewBox="0 0 32 32"><path fill="#000" d="M31.074 7.334c-.789-1.359-2.875-2.633-8.27-1.214A11.992 11.992 0 0 0 4.033 16.892C.07 20.859.138 23.3.93 24.667c.745 1.285 2.233 1.834 4.155 1.834 1.224 0 2.625-.223 4.119-.614a11.992 11.992 0 0 0 18.762-10.781c1.79-1.798 2.983-3.526 3.375-5 .353-1.302.05-2.23-.267-2.771M16 7a9.014 9.014 0 0 1 8.774 7c-1.774 1.591-4.149 3.324-7.034 4.983-2.717 1.56-5.444 2.794-7.886 3.58A9 9 0 0 1 16 7M3.524 23.161c-.076-.134-.021-1.027 1.334-2.713a12 12 0 0 0 1.686 2.927c-2.154.326-2.938-.074-3.02-.214M16 25c-.958 0-1.91-.153-2.82-.455a49 49 0 0 0 6.053-2.961 48.5 48.5 0 0 0 5.57-3.709A9.015 9.015 0 0 1 16 25M28.446 9.331c-.16.598-.6 1.359-1.298 2.225a12 12 0 0 0-1.688-2.931c1.979-.296 2.896 0 3.019.214.021.036.047.196-.033.492"/></svg>