<svg xmlns="http://www.w3.org/2000/svg" width="32" height="32" fill="none" viewBox="0 0 32 32"><path fill="#000" d="M30.061 1.939a1.5 1.5 0 0 0-2.125 0l-6.194 6.197-.317-.319a4.506 4.506 0 0 0-6.364 0L12.5 10.375l-.439-.44a1.502 1.502 0 1 0-2.125 2.125l.439.44-2.558 2.561a4.5 4.5 0 0 0 0 6.364l.32.317-6.198 6.197a1.503 1.503 0 0 0 2.125 2.125l6.196-6.198.317.319a4.51 4.51 0 0 0 6.364 0l2.559-2.56.439.44a1.503 1.503 0 0 0 2.125-2.125l-.44-.44 2.562-2.561a4.5 4.5 0 0 0 0-6.364l-.319-.317 6.198-6.197a1.5 1.5 0 0 0-.004-2.122M14.817 22.064a1.5 1.5 0 0 1-2.125 0l-2.753-2.76a1.5 1.5 0 0 1 0-2.125l2.56-2.554 4.876 4.875zm7.25-7.244L19.5 17.375 14.625 12.5l2.561-2.561a1.5 1.5 0 0 1 2.125 0l2.758 2.757a1.5 1.5 0 0 1 0 2.125zm-19.49-3.294a1.5 1.5 0 0 1 1.898-.948l1.5.5a1.501 1.501 0 0 1 .215 2.784 1.5 1.5 0 0 1-1.164.06l-1.5-.5a1.5 1.5 0 0 1-.949-1.896m8-7.051a1.5 1.5 0 1 1 2.845-.949l.5 1.5a1.5 1.5 0 0 1-2.845.949zm18.845 16a1.5 1.5 0 0 1-1.897.947l-1.5-.5a1.5 1.5 0 0 1 .949-2.844l1.5.5a1.5 1.5 0 0 1 .948 1.897m-8 7.051a1.499 1.499 0 0 1-2.1 1.848 1.5 1.5 0 0 1-.745-.9l-.5-1.5a1.5 1.5 0 1 1 2.845-.948z"/></svg>