<svg xmlns="http://www.w3.org/2000/svg" width="32" height="32" fill="none" viewBox="0 0 32 32"><path fill="#000" d="M28 6h-5.5V2a1.5 1.5 0 1 0-3 0v4h-7V2a1.5 1.5 0 1 0-3 0v4H4.069C3.05 6 2.5 6.773 2.5 7.5A1.5 1.5 0 0 0 4 9h1.5v11.5A5.506 5.506 0 0 0 11 26h3.5v4a1.5 1.5 0 1 0 3 0v-4H21a5.506 5.506 0 0 0 5.5-5.5V9H28a1.5 1.5 0 0 0 0-3m-4.5 14.5A2.5 2.5 0 0 1 21 23H11a2.5 2.5 0 0 1-2.5-2.5V9h15zm-10.732-3.646a1.5 1.5 0 0 1-.173-1.375l1.5-4a1.501 1.501 0 0 1 2.81 1.052l-.74 1.969H18a1.5 1.5 0 0 1 1.405 2.026l-1.5 4a1.5 1.5 0 1 1-2.81-1.052l.74-1.974H14a1.5 1.5 0 0 1-1.232-.646"/></svg>