<svg xmlns="http://www.w3.org/2000/svg" width="32" height="32" fill="none" viewBox="0 0 32 32"><path fill="#000" d="M30.061 7.939a1.5 1.5 0 0 0-2.125 0L24 11.875 20.125 8l3.94-3.939a1.503 1.503 0 1 0-2.125-2.125L18 5.875 15.06 2.939a1.502 1.502 0 1 0-2.125 2.125l.439.436-6.264 6.267a5.5 5.5 0 0 0 0 7.78l1.61 1.61-5.782 5.782a1.503 1.503 0 1 0 2.125 2.125l5.782-5.783 1.61 1.61a5.5 5.5 0 0 0 7.779 0l6.265-6.266.439.44a1.502 1.502 0 1 0 2.125-2.125L26.124 14l3.94-3.939a1.5 1.5 0 0 0-.003-2.122m-11.95 14.828a2.5 2.5 0 0 1-3.536 0l-5.343-5.342a2.5 2.5 0 0 1 0-3.536L15.5 7.625l8.875 8.875z"/></svg>