<svg xmlns="http://www.w3.org/2000/svg" width="32" height="32" fill="none" viewBox="0 0 32 32"><path fill="#000" d="m17.125 21 1.44-1.439a1.503 1.503 0 0 0-2.125-2.125L15 18.875 13.125 17l1.44-1.439a1.503 1.503 0 0 0-2.125-2.125L11 14.875 9.06 12.939a1.503 1.503 0 1 0-2.125 2.125l.439.436-2.558 2.561a4.5 4.5 0 0 0 0 6.364l.32.317-3.198 3.197a1.503 1.503 0 0 0 2.125 2.125l3.196-3.198.317.319a4.507 4.507 0 0 0 6.364 0l2.559-2.56.439.44a1.503 1.503 0 0 0 2.125-2.125zm-5.308 4.061a1.5 1.5 0 0 1-2.125 0L6.94 22.304a1.5 1.5 0 0 1 0-2.125l2.56-2.554 4.876 4.875zm18.25-23.125a1.5 1.5 0 0 0-2.125 0l-3.2 3.2-.317-.318a4.506 4.506 0 0 0-6.364 0L15.5 7.375l-.439-.44a1.502 1.502 0 1 0-2.125 2.125l10 10a1.503 1.503 0 1 0 2.125-2.125l-.436-.435 2.561-2.561a4.5 4.5 0 0 0 0-6.364l-.319-.317 3.198-3.197a1.5 1.5 0 0 0-.004-2.122zm-5 9.875L22.5 14.375 17.625 9.5l2.561-2.561a1.5 1.5 0 0 1 2.125 0l2.758 2.757a1.5 1.5 0 0 1 0 2.125z"/></svg>