<svg xmlns="http://www.w3.org/2000/svg" width="32" height="32" fill="none" viewBox="0 0 32 32"><path fill="#000" d="M16 2.5A13.5 13.5 0 1 0 29.5 16 13.515 13.515 0 0 0 16 2.5m0 18a4.5 4.5 0 1 1 0-9 4.5 4.5 0 0 1 0 9m4.133-10.75A7.4 7.4 0 0 0 17.5 8.651V5.61c1.736.25 3.382.932 4.785 1.985zM14.5 8.651a7.4 7.4 0 0 0-2.633 1.099L9.715 7.594A10.44 10.44 0 0 1 14.5 5.609zm-4.75 3.217A7.4 7.4 0 0 0 8.651 14.5H5.61c.25-1.736.932-3.382 1.985-4.785zM8.651 17.5c.193.94.566 1.834 1.099 2.633l-2.156 2.152A10.45 10.45 0 0 1 5.609 17.5zm3.217 4.75a7.4 7.4 0 0 0 2.632 1.099v3.042a10.44 10.44 0 0 1-4.785-1.985zm5.632 1.099a7.4 7.4 0 0 0 2.633-1.099l2.152 2.153A10.45 10.45 0 0 1 17.5 26.39zm4.75-3.216a7.4 7.4 0 0 0 1.099-2.633h3.042a10.45 10.45 0 0 1-1.985 4.785zm1.099-5.633a7.4 7.4 0 0 0-1.099-2.633l2.153-2.152A10.45 10.45 0 0 1 26.39 14.5z"/></svg>