<svg xmlns="http://www.w3.org/2000/svg" width="32" height="32" fill="none" viewBox="0 0 32 32"><path fill="#000" d="M30.5 14h-1.181l-3.761-5.852A2.49 2.49 0 0 0 23.454 7H8.546a2.49 2.49 0 0 0-2.103 1.149L2.68 14H1.5a1.5 1.5 0 1 0 0 3H2v8.5A2.5 2.5 0 0 0 4.5 28h3a2.5 2.5 0 0 0 2.5-2.5V23h12v2.5a2.5 2.5 0 0 0 2.5 2.5h3a2.5 2.5 0 0 0 2.5-2.5V17h.5a1.5 1.5 0 1 0 0-3M8.819 10H23.18l2.569 4H6.25zM7 25H5v-2h2zm18 0v-2h2v2zm2-5H5v-3h22zM11.5 3.5A1.5 1.5 0 0 1 13 2h6a1.5 1.5 0 0 1 0 3h-6a1.5 1.5 0 0 1-1.5-1.5"/></svg>