<svg xmlns="http://www.w3.org/2000/svg" width="32" height="32" fill="none" viewBox="0 0 32 32"><path fill="#000" d="M29.184 12.181a4.5 4.5 0 1 0-6.88-5.746l-2.82-.769a4.5 4.5 0 0 0-7.667-2.85 4.51 4.51 0 0 0-.975 4.905L7.15 11.046a4.51 4.51 0 0 0-5.333.772 4.5 4.5 0 0 0 5.716 6.9l8.16 5.984a4.5 4.5 0 1 0 7.135-2.202l3.173-9a4.5 4.5 0 0 0 3.184-1.319M17.466 22.282 9.306 16.3a4.52 4.52 0 0 0-.151-3.021L12.85 9.95a4.5 4.5 0 0 0 5.332-.77 4.4 4.4 0 0 0 .515-.625l2.82.769a4.48 4.48 0 0 0 1.302 2.85q.17.172.356.325L20 21.5a4.5 4.5 0 0 0-2.534.782m9.596-14.345a1.5 1.5 0 1 1-2.123 2.118 1.5 1.5 0 0 1 2.123-2.118m-13.125-3a1.5 1.5 0 1 1 2.116 2.126 1.5 1.5 0 0 1-2.114-2.126zm-10 11.125a1.5 1.5 0 1 1 2.126-2.115 1.5 1.5 0 0 1-2.126 2.114zm17.125 11a1.5 1.5 0 1 1-2.114-2.124 1.5 1.5 0 0 1 2.113 2.125z"/></svg>