<svg xmlns="http://www.w3.org/2000/svg" width="32" height="32" fill="none" viewBox="0 0 32 32"><path fill="#000" d="M29.035 8.915a1.5 1.5 0 0 0-.875-.406 6 6 0 0 0-6.899-3.875 6 6 0 0 0-10.53 0 6 6 0 0 0-6.898 3.875 1.5 1.5 0 0 0-1.293 1.835L6.36 26.573A2.49 2.49 0 0 0 8.793 28.5h14.415a2.49 2.49 0 0 0 2.433-1.927l3.82-16.23a1.5 1.5 0 0 0-.426-1.428M9.5 7.5a2.96 2.96 0 0 1 1.404.349 1.5 1.5 0 0 0 2.169-1 3 3 0 0 1 5.855 0 1.5 1.5 0 0 0 2.168 1 3 3 0 0 1 4.126 1.385l-4.14 1.182-4.153-1.66a2.49 2.49 0 0 0-1.858 0l-4.152 1.66-4.141-1.182A3 3 0 0 1 9.5 7.5m3.141 5.459 3.36-1.344 3.358 1.344L17.686 25.5h-3.375zm-6.596-.814 3.598 1.027L11.286 25.5H9.188zM22.813 25.5h-2.1l1.645-12.327 3.597-1.028z"/></svg>