<svg xmlns="http://www.w3.org/2000/svg" width="32" height="32" fill="none" viewBox="0 0 32 32"><path fill="#000" d="M25 18h-8.875l2.655-2.656a7.5 7.5 0 0 0 3 .652 6.46 6.46 0 0 0 3.375-.942c3-1.821 4.625-5.974 4.318-11.109a1.5 1.5 0 0 0-1.41-1.409c-5.135-.3-9.288 1.312-11.108 4.318-1.155 1.905-1.25 4.175-.291 6.375L15 14.875l-1.392-1.391c.617-1.611.5-3.265-.345-4.67C11.875 6.53 8.765 5.3 4.936 5.526a1.5 1.5 0 0 0-1.41 1.41c-.225 3.83 1 6.942 3.29 8.325.79.483 1.7.738 2.625.738a5.7 5.7 0 0 0 2.04-.391L12.874 17l-1 1H7a1.5 1.5 0 1 0 0 3h.909l1.454 6.543a2.486 2.486 0 0 0 2.44 1.957h8.396a2.485 2.485 0 0 0 2.44-1.957L24.093 21H25a1.5 1.5 0 0 0 0-3m-5.487-9.592C20.6 6.61 23.16 5.563 26.5 5.5c-.06 3.336-1.109 5.898-2.906 6.986-1.179.714-2.556.685-4-.077-.768-1.445-.795-2.823-.081-4.001m-8.824 4.28c-.654.316-1.5.5-2.318.008-1.058-.64-1.726-2.185-1.85-4.175 1.992.125 3.534.79 4.175 1.85.493.814.304 1.663-.007 2.317M19.798 26.5h-7.595L10.98 21h10.04z"/></svg>