<svg xmlns="http://www.w3.org/2000/svg" width="32" height="32" fill="none" viewBox="0 0 32 32"><path fill="#000" d="M27 4.5h-9.5V3a1.5 1.5 0 1 0-3 0v1.5H5A2.5 2.5 0 0 0 2.5 7v15A2.5 2.5 0 0 0 5 24.5h3.875l-2.05 2.563a1.5 1.5 0 1 0 2.343 1.875l3.55-4.438h6.557l3.55 4.438a1.5 1.5 0 1 0 2.343-1.875L23.125 24.5H27a2.5 2.5 0 0 0 2.5-2.5V7A2.5 2.5 0 0 0 27 4.5m-.5 17h-21v-14h21zM13 15v3a1.5 1.5 0 1 1-3 0v-3a1.5 1.5 0 1 1 3 0m3-3.5a1.5 1.5 0 0 1 1.5 1.5v5a1.5 1.5 0 1 1-3 0v-5a1.5 1.5 0 0 1 1.5-1.5m3 6.5v-7a1.5 1.5 0 1 1 3 0v7a1.5 1.5 0 1 1-3 0"/></svg>