<svg xmlns="http://www.w3.org/2000/svg" width="32" height="32" fill="none" viewBox="0 0 32 32"><path fill="#000" d="M13 16v1a1.5 1.5 0 1 1-3 0v-1a1.5 1.5 0 1 1 3 0m3-2a1.5 1.5 0 0 0-1.5 1.5V17a1.5 1.5 0 1 0 3 0v-1.5A1.5 1.5 0 0 0 16 14m4.5-.5A1.5 1.5 0 0 0 19 15v2a1.5 1.5 0 1 0 3 0v-2a1.5 1.5 0 0 0-1.5-1.5m7-2.05v9.05h.5a1.5 1.5 0 1 1 0 3H17.5v2.903a3 3 0 1 1-3 0V23.5H4a1.5 1.5 0 1 1 0-3h.5v-9.05A2.5 2.5 0 0 1 2.5 9V6A2.5 2.5 0 0 1 5 3.5h22A2.5 2.5 0 0 1 29.5 6v3a2.5 2.5 0 0 1-2 2.45M5.5 8.5h21v-2h-21zm19 12v-9h-17v9z"/></svg>