<svg xmlns="http://www.w3.org/2000/svg" width="32" height="32" fill="none" viewBox="0 0 32 32"><path fill="#000" d="M7.11 3.991A1.5 1.5 0 1 0 4.89 6.01L7.5 8.875a9.5 9.5 0 0 0-3.068 1.689 2.5 2.5 0 0 0-.2 3.716l5.683 5.684-4.975 4.975a1.503 1.503 0 0 0 2.125 2.125l4.975-4.977 5.684 5.683a2.5 2.5 0 0 0 1.763.73q.09.002.177-.006a2.5 2.5 0 0 0 1.82-.994q.686-.911 1.192-1.933l2.215 2.437a1.5 1.5 0 1 0 2.22-2.018zM19.42 25.226 6.76 12.565c.99-.69 2.029-1.05 3.104-1.086l10.563 11.625a7.8 7.8 0 0 1-1.006 2.122M29.77 13.351l-4.875 4.889a1.5 1.5 0 0 1-2.125-2.119l4.523-4.537-6.875-6.875-4.093 4.103a1.5 1.5 0 0 1-2.125-2.117l4.446-4.461a2.5 2.5 0 0 1 3.537 0l7.587 7.585a2.5 2.5 0 0 1 0 3.535z"/></svg>