<svg xmlns="http://www.w3.org/2000/svg" width="32" height="32" fill="none" viewBox="0 0 32 32"><path fill="#000" d="m29.769 9.818-7.587-7.585a2.5 2.5 0 0 0-3.537 0L12.15 8.75c-1.554-.416-4.585-.715-7.718 1.813a2.5 2.5 0 0 0-.2 3.716l5.683 5.684-4.975 4.975a1.503 1.503 0 0 0 2.125 2.125l4.975-4.976 5.684 5.682a2.5 2.5 0 0 0 1.765.731q.086.001.175-.006a2.5 2.5 0 0 0 1.82-.994c.586-.779 1.375-2.016 1.805-3.5s.43-2.86.02-4.175l6.462-6.483a2.5 2.5 0 0 0-.002-3.524m-9.283 8.599a1.5 1.5 0 0 0-.279 1.73c.43.857.863 2.625-.785 5.08L6.76 12.568c2.636-1.824 4.941-.83 5.125-.75a1.46 1.46 0 0 0 1.726-.287l6.804-6.826 6.875 6.875z"/></svg>