<svg xmlns="http://www.w3.org/2000/svg" width="32" height="32" fill="none" viewBox="0 0 32 32"><path fill="#000" d="M12.5 4.5H7A2.5 2.5 0 0 0 4.5 7v5.5A2.5 2.5 0 0 0 7 15h5.5a2.5 2.5 0 0 0 2.5-2.5V7a2.5 2.5 0 0 0-2.5-2.5M12 12H7.5V7.5H12zm.5 5H7a2.5 2.5 0 0 0-2.5 2.5V25A2.5 2.5 0 0 0 7 27.5h5.5A2.5 2.5 0 0 0 15 25v-5.5a2.5 2.5 0 0 0-2.5-2.5m-.5 7.5H7.5V20H12zm13-20h-5.5A2.5 2.5 0 0 0 17 7v5.5a2.5 2.5 0 0 0 2.5 2.5H25a2.5 2.5 0 0 0 2.5-2.5V7A2.5 2.5 0 0 0 25 4.5m-.5 7.5H20V7.5h4.5zM17 21.5v-3a1.5 1.5 0 1 1 3 0v3a1.5 1.5 0 1 1-3 0m10.5-1A1.5 1.5 0 0 1 26 22h-1.5v4a1.5 1.5 0 0 1-1.5 1.5h-4.5a1.5 1.5 0 1 1 0-3h3v-6a1.5 1.5 0 1 1 3 0v.5H26a1.5 1.5 0 0 1 1.5 1.5"/></svg>