<svg xmlns="http://www.w3.org/2000/svg" width="32" height="32" fill="none" viewBox="0 0 32 32"><path fill="#000" d="M20 22.5a4.5 4.5 0 1 0 0-9.002 4.5 4.5 0 0 0 0 9.002m0-6a1.5 1.5 0 1 1 0 3 1.5 1.5 0 0 1 0-3m7-8H14.22l10.211-3.062a1.5 1.5 0 1 0-.862-2.875l-20 6A1.5 1.5 0 0 0 2.5 10v15A2.5 2.5 0 0 0 5 27.5h22a2.5 2.5 0 0 0 2.5-2.5V11A2.5 2.5 0 0 0 27 8.5m-.5 16h-21v-13h21zm-19-9A1.5 1.5 0 0 1 9 14h3a1.5 1.5 0 1 1 0 3H9a1.5 1.5 0 0 1-1.5-1.5m0 5A1.5 1.5 0 0 1 9 19h3a1.5 1.5 0 1 1 0 3H9a1.5 1.5 0 0 1-1.5-1.5"/></svg>