<svg xmlns="http://www.w3.org/2000/svg" width="32" height="32" fill="none" viewBox="0 0 32 32"><path fill="#000" d="M26.435 4.415 10.154 1.54a2.5 2.5 0 0 0-2.898 2.027L3.538 24.692a2.5 2.5 0 0 0 2.027 2.895l16.281 2.875q.22.04.44.04a2.5 2.5 0 0 0 2.464-2.07L28.47 7.307a2.5 2.5 0 0 0-2.034-2.892m-4.56 23.005L6.58 24.719l3.546-20.14 15.296 2.702zM11.488 8.375a1.5 1.5 0 0 1 1.737-1.216l8.4 1.483a1.5 1.5 0 0 1-.25 2.983 1.6 1.6 0 0 1-.262-.023l-8.41-1.49a1.5 1.5 0 0 1-1.215-1.737m-.863 4.924a1.5 1.5 0 0 1 1.739-1.217l8.402 1.485a1.5 1.5 0 0 1-.528 2.954l-8.402-1.485a1.5 1.5 0 0 1-1.21-1.737m-.875 4.923a1.5 1.5 0 0 1 1.738-1.216l4.205.744a1.5 1.5 0 1 1-.522 2.954l-4.2-.742a1.5 1.5 0 0 1-1.22-1.74"/></svg>