<svg xmlns="http://www.w3.org/2000/svg" width="32" height="32" fill="none" viewBox="0 0 32 32"><path fill="#000" d="M31.5 13a4.5 4.5 0 0 0-7.175-3.616 18.2 18.2 0 0 0-6.567-1.807l.475-2.85 1.958.325a3 3 0 1 0 .494-2.958L17.25 1.52a1.5 1.5 0 0 0-1.73 1.23l-.797 4.789c-2.538.163-4.973.798-7.048 1.845a4.5 4.5 0 0 0-5.94 6.71A7.9 7.9 0 0 0 1.5 18c0 2.911 1.581 5.609 4.454 7.597C8.658 27.47 12.225 28.5 16 28.5s7.343-1.031 10.046-2.903C28.92 23.61 30.5 20.911 30.5 18c0-.643-.079-1.283-.235-1.906A4.52 4.52 0 0 0 31.5 13m-3.739 1.292a1.5 1.5 0 0 0-.625 1.875c.237.583.36 1.205.364 1.833 0 1.897-1.125 3.719-3.161 5.131C22.13 24.66 19.17 25.5 16 25.5s-6.125-.841-8.339-2.369C5.625 21.72 4.501 19.897 4.501 18a5 5 0 0 1 .354-1.83 1.5 1.5 0 0 0-.616-1.875 1.5 1.5 0 1 1 1.975-2.17 1.5 1.5 0 0 0 1.992.397l.028-.016C10.368 11.21 13.125 10.5 16 10.5s5.625.711 7.761 2l.028.016a1.5 1.5 0 0 0 1.997-.391A1.49 1.49 0 0 1 27 11.5a1.5 1.5 0 0 1 .761 2.792M11.001 18.5a2.5 2.5 0 1 1-.001-5 2.5 2.5 0 0 1 0 5M23.5 16a2.5 2.5 0 1 1-5.002 0 2.5 2.5 0 0 1 5.001 0m-2.566 5.065a1.5 1.5 0 0 1-1 1.875c-2.57.754-5.304.754-7.875 0a1.502 1.502 0 1 1 .875-2.875c2 .579 4.124.579 6.125 0a1.5 1.5 0 0 1 1.875 1"/></svg>