<svg xmlns="http://www.w3.org/2000/svg" width="32" height="32" fill="none" viewBox="0 0 32 32"><path fill="#000" d="M25 5.5h-7.5V2a1.5 1.5 0 1 0-3 0v3.5H7A4.5 4.5 0 0 0 2.5 10v14A4.5 4.5 0 0 0 7 28.5h18a4.5 4.5 0 0 0 4.5-4.5V10A4.5 4.5 0 0 0 25 5.5M26.5 24a1.5 1.5 0 0 1-1.5 1.5H7A1.5 1.5 0 0 1 5.5 24V10A1.5 1.5 0 0 1 7 8.5h18a1.5 1.5 0 0 1 1.5 1.5zm-6-8h-9a4 4 0 1 0 0 8h9a4 4 0 1 0 0-8M17 19v2h-2v-2zm-6.5 1a1 1 0 0 1 1-1h.5v2h-.5a1 1 0 0 1-1-1m10 1H20v-2h.5a1 1 0 0 1 0 2m-12-8.5a2 2 0 1 1 4 0 2 2 0 0 1-4 0m11 0a2 2 0 1 1 4 0 2 2 0 0 1-4 0"/></svg>