<svg xmlns="http://www.w3.org/2000/svg" width="32" height="32" fill="none" viewBox="0 0 32 32"><path fill="#000" d="M19.5 28a1.5 1.5 0 0 1-1.5 1.5h-4a1.5 1.5 0 1 1 0-3h4a1.5 1.5 0 0 1 1.5 1.5M16 14.5a2 2 0 1 0 0-3.999 2 2 0 0 0 0 4m12.441 5.088-1.545 6.953a2.49 2.49 0 0 1-1.61 1.817 2.484 2.484 0 0 1-2.373-.391L19.647 25.5h-7.292l-3.268 2.468a2.48 2.48 0 0 1-2.372.388 2.49 2.49 0 0 1-1.61-1.816l-1.545-6.952a2.51 2.51 0 0 1 .52-2.143l3.478-4.175c.134-1.564.498-3.1 1.082-4.557 1.659-4.157 4.625-6.763 5.83-7.69a2.5 2.5 0 0 1 3.062 0c1.2.927 4.172 3.533 5.83 7.69a15.9 15.9 0 0 1 1.081 4.557l3.48 4.175a2.51 2.51 0 0 1 .52 2.143M12.724 22.5h6.552c2.439-4.462 2.875-8.722 1.299-12.675C19.3 6.625 17.025 4.488 16 3.64c-1.025.848-3.3 2.985-4.575 6.185-1.578 3.953-1.14 8.213 1.299 12.675m-2.819 1.09a21 21 0 0 1-2.115-5.912l-1.25 1.5 1.322 5.955zm15.554-4.414-1.25-1.5a21 21 0 0 1-2.115 5.913l2.041 1.541z"/></svg>