<svg xmlns="http://www.w3.org/2000/svg" width="32" height="32" fill="none" viewBox="0 0 32 32"><path fill="#000" d="M12.718 19.283A9.44 9.44 0 0 1 15.5 26a1.5 1.5 0 1 1-3 0A6.5 6.5 0 0 0 6 19.5a1.5 1.5 0 0 1 0-3 9.44 9.44 0 0 1 6.717 2.783M6 10.5a1.5 1.5 0 1 0 0 3A12.5 12.5 0 0 1 18.5 26a1.5 1.5 0 1 0 3 0A15.5 15.5 0 0 0 6 10.5m15.203.298A21.36 21.36 0 0 0 6 4.5a1.5 1.5 0 0 0 0 3 18.38 18.38 0 0 1 13.081 5.419A18.38 18.38 0 0 1 24.5 26a1.5 1.5 0 1 0 3 0 21.36 21.36 0 0 0-6.297-15.202M6.5 23.5a2 2 0 1 0 0 4.001 2 2 0 0 0 0-4"/></svg>