<svg xmlns="http://www.w3.org/2000/svg" width="32" height="32" fill="none" viewBox="0 0 32 32"><path fill="#000" d="M25 1.5A1.5 1.5 0 0 0 23.5 3v1.5h-3V3a1.5 1.5 0 1 0-3 0v1.5h-3V3a1.5 1.5 0 1 0-3 0v1.5h-3V3a1.5 1.5 0 0 0-3 0v26a1.5 1.5 0 0 0 3 0v-1.5h3V29a1.5 1.5 0 1 0 3 0v-1.5h3V29a1.5 1.5 0 1 0 3 0v-1.5h3V29a1.5 1.5 0 1 0 3 0V3A1.5 1.5 0 0 0 25 1.5m-16.5 6h15v17h-15zm7.5 15a1.5 1.5 0 0 0 1.286-.729l3-5a1.5 1.5 0 0 0 0-1.542l-3-5a1.5 1.5 0 0 0-2.572 0l-3 5a1.5 1.5 0 0 0 0 1.542l3 5A1.5 1.5 0 0 0 16 22.5m0-8.585L17.25 16 16 18.085 14.75 16z"/></svg>