<svg xmlns="http://www.w3.org/2000/svg" width="32" height="32" fill="none" viewBox="0 0 32 32"><path fill="#000" d="m29.769 8.818-6.586-6.585a2.5 2.5 0 0 0-3.537 0L2.231 19.646a2.5 2.5 0 0 0 0 3.537l6.587 6.585a2.5 2.5 0 0 0 3.536 0l17.415-17.414a2.5 2.5 0 0 0 0-3.536M10.585 27.293 4.71 21.418 8 18.125l2.94 2.94a1.503 1.503 0 0 0 2.125-2.125L10.125 16 12 14.125l2.939 2.94a1.503 1.503 0 0 0 2.125-2.125L14.125 12 16 10.125l2.94 2.94a1.503 1.503 0 0 0 2.125-2.125L18.125 8l3.294-3.292 5.875 5.875z"/></svg>