<svg xmlns="http://www.w3.org/2000/svg" width="32" height="32" fill="none" viewBox="0 0 32 32"><path fill="#000" d="m30.393 16.443-4-10a1.5 1.5 0 0 0-1.717-.907L17.5 7.125V5a1.5 1.5 0 1 0-3 0v2.796l-7.825 1.74a1.5 1.5 0 0 0-1.067.907l-4 9.99A1.5 1.5 0 0 0 1.5 21c0 1.516.775 2.804 2.181 3.625A6.9 6.9 0 0 0 7 25.5a6.9 6.9 0 0 0 3.319-.875C11.725 23.804 12.5 22.516 12.5 21a1.5 1.5 0 0 0-.107-.558l-3.345-8.36 5.452-1.207V25.5H13a1.5 1.5 0 1 0 0 3h6a1.5 1.5 0 1 0 0-3h-1.5V10.204l5.052-1.125-2.944 7.362A1.5 1.5 0 0 0 19.5 17c0 1.516.775 2.804 2.181 3.625a6.72 6.72 0 0 0 6.638 0C29.725 19.804 30.5 18.516 30.5 17a1.5 1.5 0 0 0-.108-.558M7 22.5c-.464 0-2.25-.234-2.476-1.273L7 15.04l2.476 6.188C9.25 22.268 7.464 22.5 7 22.5m18-4c-.464 0-2.25-.234-2.476-1.273L25 11.04l2.476 6.188C27.25 18.268 25.464 18.5 25 18.5"/></svg>