<svg xmlns="http://www.w3.org/2000/svg" width="32" height="32" fill="none" viewBox="0 0 32 32"><path fill="#000" d="M28.5 5v5a1.5 1.5 0 1 1-3 0V6.5H22a1.5 1.5 0 0 1 0-3h5A1.5 1.5 0 0 1 28.5 5M10 25.5H6.5V22a1.5 1.5 0 0 0-3 0v5A1.5 1.5 0 0 0 5 28.5h5a1.5 1.5 0 1 0 0-3m17-5a1.5 1.5 0 0 0-1.5 1.5v3.5H22a1.5 1.5 0 1 0 0 3h5a1.5 1.5 0 0 0 1.5-1.5v-5a1.5 1.5 0 0 0-1.5-1.5m-22-9A1.5 1.5 0 0 0 6.5 10V6.5H10a1.5 1.5 0 0 0 0-3H5A1.5 1.5 0 0 0 3.5 5v5A1.5 1.5 0 0 0 5 11.5M20.5 23h-9A2.5 2.5 0 0 1 9 20.5v-9A2.5 2.5 0 0 1 11.5 9h9a2.5 2.5 0 0 1 2.5 2.5v9a2.5 2.5 0 0 1-2.5 2.5M20 12h-8v8h8z"/></svg>