<svg xmlns="http://www.w3.org/2000/svg" width="32" height="32" fill="none" viewBox="0 0 32 32"><path fill="#000" d="M29.848 22.974 12.285 10.956a5 5 0 1 0-1.696 2.475l3.75 2.57-3.75 2.57a5 5 0 1 0 .446 7.468 4.97 4.97 0 0 0 1.465-3.54c0-.493-.072-.984-.215-1.457L17 17.817l11.153 7.633a1.5 1.5 0 1 0 1.695-2.476m-20.934.942a2 2 0 1 1-2.828-2.829 2 2 0 0 1 2.828 2.83M6.086 10.912a2 2 0 1 1 2.828-2.83 2 2 0 0 1-2.828 2.83m14.103 2.905a1.5 1.5 0 0 1 .391-2.085l7.573-5.182a1.5 1.5 0 1 1 1.695 2.476l-7.574 5.183a1.5 1.5 0 0 1-2.085-.392"/></svg>