<svg xmlns="http://www.w3.org/2000/svg" width="32" height="32" fill="none" viewBox="0 0 32 32"><path fill="#000" d="M29 7.5v17a2.5 2.5 0 0 1-2.5 2.5h-5a1.5 1.5 0 1 1 0-3H26V8H6v.5a1.5 1.5 0 0 1-3 0v-1A2.5 2.5 0 0 1 5.5 5h21A2.5 2.5 0 0 1 29 7.5M4.5 22a1.5 1.5 0 1 0 0 3 .5.5 0 0 1 .5.5 1.5 1.5 0 0 0 3 0A3.5 3.5 0 0 0 4.5 22m0-5a1.5 1.5 0 1 0 0 3 5.506 5.506 0 0 1 5.5 5.5 1.5 1.5 0 1 0 3 0A8.51 8.51 0 0 0 4.5 17m0-5a1.5 1.5 0 1 0 0 3A10.51 10.51 0 0 1 15 25.5a1.5 1.5 0 1 0 3 0A13.516 13.516 0 0 0 4.5 12"/></svg>