<svg xmlns="http://www.w3.org/2000/svg" width="32" height="32" fill="none" viewBox="0 0 32 32"><path fill="#000" d="M31.113 19c-.167-.184-2.97-3.231-7.527-5.086-.268-2.285-1.137-4.363-2.512-5.964C19.14 5.69 16.349 4.5 13 4.5c-6.695 0-11.039 5.974-11.22 6.227a1.502 1.502 0 0 0 2.441 1.75C4.256 12.423 7.831 7.5 13 7.5c2.481 0 4.431.806 5.797 2.398a7.7 7.7 0 0 1 1.55 3 18 18 0 0 0-3.77-.398c-3.376 0-6.225.891-8.232 2.579-1.807 1.52-2.845 3.643-2.845 5.827 0 3.277 2.43 6.594 7.076 6.594 6.491 0 10.293-5.035 10.984-10.304a19.6 19.6 0 0 1 5.328 3.81 1.501 1.501 0 0 0 2.664-.907 1.5 1.5 0 0 0-.44-1.099m-12.567 2.718c-1.035 1.27-2.91 2.782-5.97 2.782-2.816 0-4.076-1.805-4.076-3.594 0-2.604 2.528-5.406 8.076-5.406 1.38.004 2.753.198 4.08.578-.126 2.102-.88 4.13-2.11 5.64"/></svg>