<svg xmlns="http://www.w3.org/2000/svg" width="32" height="32" fill="none" viewBox="0 0 32 32"><path fill="#000" d="M28.594 12.506c-.44-.459-.894-.932-1.043-1.291-.132-.32-.142-.979-.151-1.559-.019-1.25-.042-2.805-1.147-3.909s-2.66-1.125-3.91-1.147c-.58-.009-1.238-.019-1.558-.151-.359-.149-.832-.603-1.291-1.043C18.609 2.558 17.506 1.5 16 1.5s-2.609 1.058-3.494 1.906c-.459.44-.932.894-1.291 1.043-.32.132-.979.142-1.559.151-1.25.025-2.805.043-3.906 1.15C4.649 6.858 4.625 8.406 4.6 9.656c-.009.58-.019 1.239-.151 1.559-.149.359-.603.832-1.043 1.291C2.558 13.391 1.5 14.5 1.5 16s1.058 2.609 1.906 3.5c.44.459.894.933 1.043 1.291.132.32.142.979.151 1.559.019 1.25.043 2.805 1.148 3.909s2.658 1.125 3.908 1.147c.58.009 1.239.019 1.559.152.359.148.832.602 1.291 1.042.885.842 1.994 1.9 3.494 1.9s2.609-1.058 3.494-1.906c.459-.44.932-.894 1.291-1.043.32-.132.979-.142 1.559-.151 1.25-.019 2.805-.042 3.909-1.147s1.125-2.66 1.147-3.91c.009-.58.019-1.238.151-1.558.149-.359.603-.832 1.043-1.291.848-.885 1.906-1.988 1.906-3.494s-1.058-2.609-1.906-3.494m-2.165 4.912c-.603.625-1.285 1.34-1.649 2.22-.353.85-.366 1.77-.375 2.66-.01.67-.024 1.59-.269 1.833-.245.244-1.162.259-1.832.269-.891.014-1.811.027-2.661.375-.876.364-1.592 1.046-2.22 1.649-.45.431-1.123 1.076-1.423 1.076s-.973-.645-1.418-1.071c-.625-.603-1.34-1.285-2.22-1.649-.85-.353-1.77-.366-2.66-.375-.67-.01-1.59-.024-1.833-.269-.244-.245-.259-1.162-.269-1.832-.014-.891-.027-1.811-.375-2.661-.364-.876-1.046-1.592-1.649-2.22C5.145 16.973 4.5 16.3 4.5 16s.645-.973 1.071-1.418c.603-.625 1.285-1.34 1.649-2.22.353-.85.366-1.77.375-2.66.015-.67.03-1.59.28-1.827s1.162-.259 1.832-.269c.892-.013 1.812-.027 2.662-.375.875-.364 1.591-1.046 2.22-1.649C15.027 5.145 15.7 4.5 16 4.5s.973.645 1.418 1.071c.625.603 1.34 1.285 2.22 1.649.85.353 1.77.366 2.66.375.67.01 1.59.024 1.833.269.244.245.259 1.162.269 1.832.014.892.027 1.812.375 2.662.364.874 1.046 1.59 1.649 2.22.426.445 1.071 1.117 1.071 1.417s-.64.978-1.066 1.423M14.5 16.5V10a1.5 1.5 0 1 1 3 0v6.5a1.5 1.5 0 1 1-3 0m3.5 5a2 2 0 1 1-4 0 2 2 0 0 1 4 0"/></svg>