<svg xmlns="http://www.w3.org/2000/svg" width="32" height="32" fill="none" viewBox="0 0 32 32"><path fill="#000" d="M8.5 27A1.5 1.5 0 0 1 7 28.5H6A2.5 2.5 0 0 1 3.5 26v-1a1.5 1.5 0 0 1 3 0v.5H7A1.5 1.5 0 0 1 8.5 27m5.5-1.5h-2a1.5 1.5 0 1 0 0 3h2a1.5 1.5 0 1 0 0-3m-9-4A1.5 1.5 0 0 0 6.5 20v-2a1.5 1.5 0 0 0-3 0v2A1.5 1.5 0 0 0 5 21.5m16 2a1.5 1.5 0 0 0-1.5 1.5v.5H19a1.5 1.5 0 1 0 0 3h1a2.5 2.5 0 0 0 2.5-2.5v-1a1.5 1.5 0 0 0-1.5-1.5m0-9a1.5 1.5 0 0 0 1.5-1.5v-1A2.5 2.5 0 0 0 20 9.5h-1a1.5 1.5 0 0 0 0 3h.5v.5a1.5 1.5 0 0 0 1.5 1.5m-14-5H6A2.5 2.5 0 0 0 3.5 12v1a1.5 1.5 0 0 0 3 0v-.5H7a1.5 1.5 0 1 0 0-3m19-6H12.5A2.5 2.5 0 0 0 10 6v5a1.5 1.5 0 0 0 1.5 1.5H14a1.5 1.5 0 1 0 0-3h-1v-3h12.5V19h-3v-1a1.5 1.5 0 1 0-3 0v2.5A1.5 1.5 0 0 0 21 22h5a2.5 2.5 0 0 0 2.5-2.5V6A2.5 2.5 0 0 0 26 3.5"/></svg>