<svg xmlns="http://www.w3.org/2000/svg" width="32" height="32" fill="none" viewBox="0 0 32 32"><path fill="#000" d="M19.5 27a1.5 1.5 0 0 1-1.5 1.5h-4a1.5 1.5 0 1 1 0-3h4a1.5 1.5 0 0 1 1.5 1.5M5 19.5A1.5 1.5 0 0 0 6.5 18v-4a1.5 1.5 0 0 0-3 0v4A1.5 1.5 0 0 0 5 19.5m4 6H6.5V23a1.5 1.5 0 0 0-3 0v3A2.5 2.5 0 0 0 6 28.5h3a1.5 1.5 0 1 0 0-3M28.5 6v20a2.5 2.5 0 0 1-2.5 2.5h-3a1.5 1.5 0 1 1 0-3h.375L6.5 8.625V9a1.5 1.5 0 0 1-3 0V6A2.5 2.5 0 0 1 6 3.5h20A2.5 2.5 0 0 1 28.5 6m-3 .5H8.625L25.5 23.375z"/></svg>