<svg xmlns="http://www.w3.org/2000/svg" width="32" height="32" fill="none" viewBox="0 0 32 32"><path fill="#000" d="M12.5 5A1.5 1.5 0 0 1 14 3.5h4a1.5 1.5 0 0 1 0 3h-4A1.5 1.5 0 0 1 12.5 5M18 25.5h-4a1.5 1.5 0 0 0 0 3h4a1.5 1.5 0 1 0 0-3m8-22h-3a1.5 1.5 0 0 0 0 3h2.5V9a1.5 1.5 0 1 0 3 0V6A2.5 2.5 0 0 0 26 3.5m1 9a1.5 1.5 0 0 0-1.5 1.5v4a1.5 1.5 0 1 0 3 0v-4a1.5 1.5 0 0 0-1.5-1.5m-22 7A1.5 1.5 0 0 0 6.5 18v-4a1.5 1.5 0 0 0-3 0v4A1.5 1.5 0 0 0 5 19.5m4 6H6.5V23a1.5 1.5 0 0 0-3 0v3A2.5 2.5 0 0 0 6 28.5h3a1.5 1.5 0 1 0 0-3M7.11 3.991A1.5 1.5 0 1 0 4.89 6.01l20 22a1.5 1.5 0 0 0 2.22-2.018z"/></svg>