<svg xmlns="http://www.w3.org/2000/svg" width="32" height="32" fill="none" viewBox="0 0 32 32"><path fill="#000" d="M19.5 5A1.5 1.5 0 0 1 18 6.5h-4a1.5 1.5 0 0 1 0-3h4A1.5 1.5 0 0 1 19.5 5M18 25.5h-4a1.5 1.5 0 1 0 0 3h4a1.5 1.5 0 1 0 0-3m7.5-19V9a1.5 1.5 0 1 0 3 0V6A2.5 2.5 0 0 0 26 3.5h-3a1.5 1.5 0 0 0 0 3zm1.5 6a1.5 1.5 0 0 0-1.5 1.5v4a1.5 1.5 0 1 0 3 0v-4a1.5 1.5 0 0 0-1.5-1.5m-22 7A1.5 1.5 0 0 0 6.5 18v-4a1.5 1.5 0 0 0-3 0v4A1.5 1.5 0 0 0 5 19.5m4 6H6.5V23a1.5 1.5 0 0 0-3 0v3A2.5 2.5 0 0 0 6 28.5h3a1.5 1.5 0 1 0 0-3m0-22H6A2.5 2.5 0 0 0 3.5 6v3a1.5 1.5 0 0 0 3 0V6.5H9a1.5 1.5 0 0 0 0-3m21 22h-1.5V24a1.5 1.5 0 1 0-3 0v1.5H24a1.5 1.5 0 1 0 0 3h1.5V30a1.5 1.5 0 1 0 3 0v-1.5H30a1.5 1.5 0 1 0 0-3"/></svg>