<svg xmlns="http://www.w3.org/2000/svg" width="32" height="32" fill="none" viewBox="0 0 32 32"><path fill="#000" d="M9.608 14.444a1.5 1.5 0 0 1 1.95-.837l2.942 1.178V12a1.5 1.5 0 1 1 3 0v2.785l2.942-1.178a1.5 1.5 0 0 1 1.116 2.785l-3.183 1.274L20.2 20.1a1.5 1.5 0 1 1-2.4 1.8L16 19.5l-1.8 2.4a1.5 1.5 0 1 1-2.4-1.8l1.825-2.434-3.182-1.274a1.5 1.5 0 0 1-.835-1.948M28.5 7v7.35c0 11.545-9.762 15.375-11.72 16.023-.507.17-1.055.17-1.561 0C13.262 29.723 3.5 25.895 3.5 14.35V7A2.5 2.5 0 0 1 6 4.5h20A2.5 2.5 0 0 1 28.5 7m-3 .5h-19v6.85c0 9.195 7.566 12.441 9.5 13.125 1.935-.679 9.5-3.925 9.5-13.119z"/></svg>