<svg xmlns="http://www.w3.org/2000/svg" width="32" height="32" fill="none" viewBox="0 0 32 32"><path fill="#000" d="M28.5 7v7.35a17.3 17.3 0 0 1-.971 5.85 1.5 1.5 0 1 1-2.825-1.01c.541-1.556.81-3.193.796-4.84V7.5H13.666a1.5 1.5 0 1 1 0-3H26A2.5 2.5 0 0 1 28.5 7m-1.39 18.991a1.5 1.5 0 1 1-2.22 2.019l-1.468-1.615a19 19 0 0 1-6.642 3.98c-.507.17-1.055.17-1.561 0C13.262 29.723 3.5 25.895 3.5 14.35V7a2.5 2.5 0 0 1 1-2 1.5 1.5 0 0 1 2.609-1.012zm-5.705-1.815L6.5 7.78v6.57c0 9.195 7.566 12.441 9.5 13.125a15.9 15.9 0 0 0 5.405-3.299"/></svg>