<svg xmlns="http://www.w3.org/2000/svg" width="32" height="32" fill="none" viewBox="0 0 32 32"><path fill="#000" d="M30.397 8.609a2.14 2.14 0 0 0-1.867-1.484l-4.354-.375L22.48 2.8a2.155 2.155 0 0 0-3.958 0L16.825 6.76l-4.355.366a2.141 2.141 0 0 0-1.22 3.764l3.287 2.807-.983 4.17a2.15 2.15 0 0 0 3.196 2.329l3.75-2.228 3.75 2.228a2.149 2.149 0 0 0 3.197-2.329l-.983-4.17 3.286-2.807a2.13 2.13 0 0 0 .647-2.28m-6.283 3.14a2.13 2.13 0 0 0-.694 2.126l.642 2.724-2.46-1.462a2.15 2.15 0 0 0-2.205 0l-2.46 1.458.643-2.72a2.13 2.13 0 0 0-.694-2.125l-2.125-1.811L17.58 9.7a2.15 2.15 0 0 0 1.796-1.289L20.5 5.8l1.125 2.612a2.15 2.15 0 0 0 1.797 1.295l2.818.238zM4.06 23.062a1.503 1.503 0 1 1-2.125-2.125l6.5-6.5a1.503 1.503 0 1 1 2.125 2.125zm8.5.5-6.5 6.5a1.503 1.503 0 1 1-2.125-2.125l6.5-6.5a1.503 1.503 0 0 1 2.125 2.125m9-2.125a1.5 1.5 0 0 1 0 2.125l-6.5 6.5a1.503 1.503 0 0 1-2.125-2.125l6.5-6.5a1.5 1.5 0 0 1 2.125.003z"/></svg>