<svg xmlns="http://www.w3.org/2000/svg" width="32" height="32" fill="none" viewBox="0 0 32 32"><path fill="#000" d="M30.5 7.5a4 4 0 0 0-4-4H16a.5.5 0 0 1-.5-.5 1.5 1.5 0 0 0-3 0A3.5 3.5 0 0 0 16 6.5h10.5a1 1 0 0 1 0 2H12.113c-5.81 0-10.57 4.675-10.613 10.421A10.5 10.5 0 0 0 12 29.5h7a1.5 1.5 0 1 0 0-3h-3.5v-2H21a1.5 1.5 0 1 0 0-3h-7a1 1 0 0 1 0-2h5a9.51 9.51 0 0 0 9.448-8.509A4 4 0 0 0 30.5 7.5m-18.387 4h.387v5.293a4 4 0 0 0-1.581 1.158l-5.5-2.5a7.65 7.65 0 0 1 6.694-3.951M4.5 18.942c0-.2.014-.4.031-.598l5.484 2.492q.022.27.083.537L6.414 24A7.44 7.44 0 0 1 4.5 18.942M12 26.5a7.5 7.5 0 0 1-3.029-.636l2.833-2.023q.33.218.696.366V26.5zm7-10h-3.5v-5h9.825a6.51 6.51 0 0 1-6.325 5"/></svg>