<svg xmlns="http://www.w3.org/2000/svg" width="32" height="32" fill="none" viewBox="0 0 32 32"><path fill="#000" d="M27.5 6v5a1.5 1.5 0 1 1-3 0V9.625l-3.904 3.9a1.503 1.503 0 0 1-2.125-2.125l3.904-3.9H21a1.5 1.5 0 0 1 0-3h5A1.5 1.5 0 0 1 27.5 6M26 19.5a1.5 1.5 0 0 0-1.5 1.5v1.375L7.061 4.939a1.503 1.503 0 1 0-2.125 2.125L22.375 24.5H21a1.5 1.5 0 0 0 0 3h5a1.5 1.5 0 0 0 1.5-1.5v-5a1.5 1.5 0 0 0-1.5-1.5m-14.596-1.025-6.465 6.464a1.503 1.503 0 1 0 2.125 2.125l6.464-6.465a1.502 1.502 0 1 0-2.126-2.125z"/></svg>