<svg xmlns="http://www.w3.org/2000/svg" width="32" height="32" fill="none" viewBox="0 0 32 32"><path fill="#000" d="M30.061 21.939a1.503 1.503 0 0 1 0 2.125l-3 3a1.503 1.503 0 0 1-2.125-2.125l.439-.44h-.261a9.52 9.52 0 0 1-7.732-3.978l-5.21-7.299a6.51 6.51 0 0 0-5.29-2.722H4a1.5 1.5 0 1 1 0-3h2.883a9.52 9.52 0 0 1 7.73 3.979l5.215 7.298a6.51 6.51 0 0 0 5.29 2.723h.257l-.44-.439a1.502 1.502 0 1 1 2.125-2.125zM18.11 12.86a1.5 1.5 0 0 0 2.116-.141 6.5 6.5 0 0 1 4.892-2.22h.258l-.44.439a1.503 1.503 0 0 0 2.125 2.125l3-3a1.5 1.5 0 0 0 0-2.125l-3-3a1.503 1.503 0 0 0-2.125 2.125l.44.436h-.261a9.5 9.5 0 0 0-7.15 3.25 1.5 1.5 0 0 0 .145 2.111M13.89 19.14a1.5 1.5 0 0 0-2.116.14 6.5 6.5 0 0 1-4.892 2.22H4a1.5 1.5 0 1 0 0 3h2.883a9.5 9.5 0 0 0 7.15-3.25 1.5 1.5 0 0 0-.142-2.11"/></svg>