<svg xmlns="http://www.w3.org/2000/svg" width="32" height="32" fill="none" viewBox="0 0 32 32"><path fill="#000" d="M30.061 21.939a1.503 1.503 0 0 1 0 2.125l-3 3a1.503 1.503 0 0 1-2.125-2.125l.439-.44h-3.86a2.5 2.5 0 0 1-2.035-1.047L10.227 10.5H4a1.5 1.5 0 1 1 0-3h6.485a2.5 2.5 0 0 1 2.035 1.046L21.77 21.5h3.605l-.44-.439a1.502 1.502 0 1 1 2.125-2.125zM13.8 19.079a1.5 1.5 0 0 0-2.093.35l-1.48 2.07H4a1.5 1.5 0 1 0 0 3h6.485a2.5 2.5 0 0 0 2.035-1.047l1.625-2.28a1.5 1.5 0 0 0-.345-2.092m4.4-6.16a1.5 1.5 0 0 0 2.093-.348l1.48-2.071h3.602l-.44.439a1.503 1.503 0 0 0 2.125 2.125l3-3a1.5 1.5 0 0 0 0-2.125l-3-3a1.503 1.503 0 0 0-2.125 2.125l.44.436h-3.86a2.5 2.5 0 0 0-2.035 1.046l-1.625 2.281a1.5 1.5 0 0 0 .345 2.093"/></svg>