<svg xmlns="http://www.w3.org/2000/svg" width="32" height="32" fill="none" viewBox="0 0 32 32"><path fill="#000" d="M29 20.5H8.794q.414-.83.823-1.691l.088-.183c1.695-.2 3.598-1.407 5.69-3.612.666 1.507 1.759 3.108 3.456 3.43.657.125 1.687.098 2.863-.727a7 7 0 0 0 1.135-1.007c1.041.952 2.885 1.79 6.151 1.79a1.5 1.5 0 1 0 0-3c-4.082 0-4.476-1.451-4.5-1.575a1.5 1.5 0 0 0-2.883-.5c-1.17 1.741-1.95 2.125-2.207 2.075-.614-.116-1.556-1.963-1.94-3.799a1.5 1.5 0 0 0-2.761-.46c-1.25 1.548-2.32 2.616-3.21 3.313 2.663-6.65 2.143-9.065 1.433-10.322-.625-1.108-1.75-1.722-3.17-1.728h-.04c-2.25.016-4.053 2.082-4.84 5.533-.432 1.892-.5 3.985-.183 5.743.33 1.836 1.041 3.209 2.076 4.027-.446.923-.9 1.83-1.344 2.693H3a1.5 1.5 0 1 0 0 3h.835c-1.21 2.209-2.105 3.7-2.125 3.726A1.5 1.5 0 0 0 3 29.5a1.5 1.5 0 0 0 1.286-.726c.078-.132 1.367-2.274 2.964-5.274H29a1.5 1.5 0 1 0 0-3M24.5 14v-.068a.4.4 0 0 1 0 .068M7.805 8.7C8.221 6.875 9.055 5.5 9.75 5.5c.459 0 .531.125.575.205.179.317.819 2.136-2.177 9.1a5.6 5.6 0 0 1-.498-1.555A11.9 11.9 0 0 1 7.805 8.7"/></svg>