<svg xmlns="http://www.w3.org/2000/svg" width="32" height="32" fill="none" viewBox="0 0 32 32"><path fill="#000" d="M14.5 16.5a3 3 0 1 1-5.999 0 3 3 0 0 1 5.999 0m6-3a3 3 0 1 0 0 5.999 3 3 0 0 0 0-5.999m9 1c0 3.731-1.631 7.223-4.5 9.69V27a2.5 2.5 0 0 1-2.5 2.5h-13A2.5 2.5 0 0 1 7 27v-2.81c-2.875-2.468-4.5-5.959-4.5-9.69 0-7.169 6.056-13 13.5-13s13.5 5.831 13.5 13m-3 0c0-5.514-4.71-10-10.5-10S5.5 8.986 5.5 14.5c0 3.039 1.426 5.875 3.914 7.788a1.5 1.5 0 0 1 .586 1.19V26.5h2V24a1.5 1.5 0 1 1 3 0v2.5h2V24a1.5 1.5 0 1 1 3 0v2.5h2v-3.023a1.5 1.5 0 0 1 .586-1.188c2.488-1.914 3.914-4.75 3.914-7.789"/></svg>