<svg xmlns="http://www.w3.org/2000/svg" width="32" height="32" fill="none" viewBox="0 0 32 32"><path fill="#000" d="M8.5 12.758V5a1.5 1.5 0 0 0-3 0v7.758a4.5 4.5 0 0 0 0 8.485V27a1.5 1.5 0 0 0 3 0v-5.757a4.5 4.5 0 0 0 0-8.485M7 18.5a1.5 1.5 0 1 1 0-3 1.5 1.5 0 0 1 0 3M20.5 11a4.51 4.51 0 0 0-3-4.242V5a1.5 1.5 0 1 0-3 0v1.758a4.5 4.5 0 0 0 0 8.485V27a1.5 1.5 0 0 0 3 0V15.243a4.51 4.51 0 0 0 3-4.243M16 12.5a1.5 1.5 0 1 1 0-3 1.5 1.5 0 0 1 0 3M29.5 21a4.51 4.51 0 0 0-3-4.242V5a1.5 1.5 0 1 0-3 0v11.758a4.5 4.5 0 0 0 0 8.485V27a1.5 1.5 0 0 0 3 0v-1.758a4.51 4.51 0 0 0 3-4.242M25 22.5a1.5 1.5 0 1 1 0-3 1.5 1.5 0 0 1 0 3"/></svg>