<svg xmlns="http://www.w3.org/2000/svg" width="32" height="32" fill="none" viewBox="0 0 32 32"><path fill="#000" d="M16 2.5a13.5 13.5 0 1 0 3.967 26.408 1.5 1.5 0 0 0 .625-.376l7.947-7.946c.174-.174.303-.389.374-.625A13.51 13.51 0 0 0 16 2.5m10.14 16.239-7.4 7.4a10.484 10.484 0 1 1 7.4-7.4M9.5 13.5a2 2 0 1 1 4 0 2 2 0 0 1-4 0m13 0a2 2 0 1 1-4 0 2 2 0 0 1 4 0m-.201 6.25c-1.375 2.383-3.674 3.75-6.3 3.75-2.624 0-4.92-1.366-6.298-3.75a1.5 1.5 0 0 1 2.598-1.5c.486.841 1.613 2.25 3.7 2.25s3.216-1.41 3.702-2.25a1.5 1.5 0 1 1 2.598 1.5"/></svg>