<svg xmlns="http://www.w3.org/2000/svg" width="32" height="32" fill="none" viewBox="0 0 32 32"><path fill="#000" d="M22.299 19.75C20.924 22.133 18.625 23.5 16 23.5s-4.92-1.366-6.299-3.75a1.5 1.5 0 0 1 2.598-1.5c.486.841 1.614 2.25 3.701 2.25s3.215-1.41 3.701-2.25a1.498 1.498 0 0 1 2.507-.181 1.5 1.5 0 0 1 .09 1.681M29.5 16A13.5 13.5 0 1 1 16 2.5 13.515 13.515 0 0 1 29.5 16m-3 0A10.5 10.5 0 1 0 16 26.5 10.51 10.51 0 0 0 26.5 16m-15-.5a2 2 0 1 0 0-4 2 2 0 0 0 0 4m9-4a2 2 0 1 0 0 4 2 2 0 0 0 0-4"/></svg>