<svg xmlns="http://www.w3.org/2000/svg" width="32" height="32" fill="none" viewBox="0 0 32 32"><path fill="#000" d="M11.5 19.5a2 2 0 1 1 0-4 2 2 0 0 1 0 4m9-4a2 2 0 1 0 0 4 2 2 0 0 0 0-4m9 .5A13.5 13.5 0 1 1 16 2.5 13.515 13.515 0 0 1 29.5 16m-3 0A10.5 10.5 0 1 0 16 26.5 10.51 10.51 0 0 0 26.5 16m-15.832-3.25 4.5 3a1.5 1.5 0 0 0 1.665 0l4.5-3a1.502 1.502 0 1 0-1.665-2.5L16 12.698l-3.668-2.448a1.502 1.502 0 1 0-1.665 2.5m8.582 8.14a6.39 6.39 0 0 0-6.5 0 1.5 1.5 0 1 0 1.5 2.595 3.39 3.39 0 0 1 3.5 0 1.5 1.5 0 1 0 1.5-2.595"/></svg>