<svg xmlns="http://www.w3.org/2000/svg" width="32" height="32" fill="none" viewBox="0 0 32 32"><path fill="#000" d="M23.061 22.061a1.503 1.503 0 0 1-2.125 0L20 21.125l-.939.94a1.5 1.5 0 0 1-2.125 0l-.936-.94-.939.94a1.5 1.5 0 0 1-2.125 0l-.936-.94-.939.94a1.503 1.503 0 0 1-2.125-2.125l2-2a1.5 1.5 0 0 1 2.125 0l.939.935.939-.94a1.5 1.5 0 0 1 2.125 0l.936.94.939-.94a1.5 1.5 0 0 1 2.125 0l2 2a1.5 1.5 0 0 1-.003 2.126M29.5 16A13.5 13.5 0 1 1 16 2.5 13.515 13.515 0 0 1 29.5 16m-3 0A10.5 10.5 0 1 0 16 26.5 10.51 10.51 0 0 0 26.5 16m-15-.5a2 2 0 1 0 0-4 2 2 0 0 0 0 4m9 0a2 2 0 1 0 0-4 2 2 0 0 0 0 4"/></svg>