<svg xmlns="http://www.w3.org/2000/svg" width="32" height="32" fill="none" viewBox="0 0 32 32"><path fill="#000" d="M16 2.5A13.5 13.5 0 1 0 29.5 16 13.515 13.515 0 0 0 16 2.5m0 24A10.5 10.5 0 1 1 26.5 16 10.51 10.51 0 0 1 16 26.5m-6.5-13a2 2 0 1 1 4 0 2 2 0 0 1-4 0m14 0A1.5 1.5 0 0 1 22 15h-3a1.5 1.5 0 0 1 0-3h3a1.5 1.5 0 0 1 1.5 1.5m-1.201 6.25C20.924 22.133 18.625 23.5 16 23.5s-4.92-1.366-6.299-3.75a1.5 1.5 0 0 1 2.598-1.5c.486.841 1.614 2.25 3.701 2.25s3.215-1.41 3.701-2.25a1.498 1.498 0 0 1 2.507-.181 1.5 1.5 0 0 1 .09 1.681"/></svg>