<svg xmlns="http://www.w3.org/2000/svg" width="32" height="32" fill="none" viewBox="0 0 32 32"><path fill="#000" d="M26.5 18.5a3 3 0 0 1-3-3v-3.536a2.52 2.52 0 0 0-2.302-2.492c-2.767-.222-4.564-1.972-4.69-4.56a2.5 2.5 0 0 0-.73-1.646L14.75 2.237a2.49 2.49 0 0 0-3.492-.042l-.028.027-8 8.014a2.5 2.5 0 0 0 0 3.535l.016.016 13.41 12.99a2.48 2.48 0 0 0 1.758.723H29.5A2.5 2.5 0 0 0 32 25v-1a5.5 5.5 0 0 0-5.5-5.5m2.5 6H18.618L5.713 12l7.27-7.288.54.538c.272 3.832 3.033 6.653 6.977 7.163V13.5h-2a1.5 1.5 0 1 0 0 3h2.085c.087.518.243 1.023.462 1.5H19.5a1.5 1.5 0 1 0 0 3h4.605c.755.33 1.57.5 2.395.5A2.5 2.5 0 0 1 29 24zM6.5 23h-3a1.5 1.5 0 0 1 0-3h3a1.5 1.5 0 1 1 0 3m6.5 3a1.5 1.5 0 0 1-1.5 1.5h-6a1.5 1.5 0 0 1 0-3h6A1.5 1.5 0 0 1 13 26"/></svg>