<svg xmlns="http://www.w3.org/2000/svg" width="32" height="32" fill="none" viewBox="0 0 32 32"><path fill="#000" d="M28.456 18.643a1.5 1.5 0 0 1-1.099 1.813l-2.583.635.675 2.52a1.5 1.5 0 1 1-2.898.778l-.911-3.4-4.14-2.392v4.778l2.56 2.56a1.503 1.503 0 0 1-2.125 2.125L16 26.125l-1.939 1.94a1.502 1.502 0 1 1-2.125-2.125l2.564-2.565v-4.777l-4.14 2.39-.911 3.4a1.5 1.5 0 1 1-2.898-.777l.675-2.52-2.584-.635a1.5 1.5 0 1 1 .715-2.912l3.487.856L13 16l-4.156-2.4-3.487.856a1.5 1.5 0 0 1-.714-2.913l2.584-.634-.675-2.52A1.5 1.5 0 1 1 9.45 7.61l.911 3.4 4.139 2.39V8.625L11.94 6.06a1.503 1.503 0 0 1 2.125-2.125L16 5.875l1.939-1.94a1.504 1.504 0 0 1 2.125 2.125L17.5 8.625v4.78l4.14-2.39.911-3.4a1.5 1.5 0 0 1 2.898.777l-.675 2.52 2.583.635A1.5 1.5 0 0 1 27 14.5q-.182 0-.359-.044l-3.486-.856L19 16l4.156 2.4 3.486-.856a1.5 1.5 0 0 1 1.814 1.098"/></svg>