<svg xmlns="http://www.w3.org/2000/svg" width="32" height="32" fill="none" viewBox="0 0 32 32"><path fill="#000" d="M16 2.5A13.5 13.5 0 1 0 29.5 16 13.515 13.515 0 0 0 16 2.5m9.5 9.031-2.75.894-5.25-3.703V5.61a10.53 10.53 0 0 1 8 5.922M13.063 20l-1.787-5.334L16 11.335l4.724 3.331L18.937 20zM14.5 5.609v3.114l-5.25 3.702-2.75-.894a10.53 10.53 0 0 1 8-5.922M5.5 16q.002-.804.125-1.599l2.696.875 2 5.968-1.651 2.264A10.47 10.47 0 0 1 5.5 16m5.591 9.279L12.75 23h6.5l1.656 2.279a10.48 10.48 0 0 1-9.817 0zm12.239-1.771-1.645-2.258 2-5.967 2.696-.875a10.5 10.5 0 0 1-3.049 9.106z"/></svg>