<svg xmlns="http://www.w3.org/2000/svg" width="32" height="32" fill="none" viewBox="0 0 32 32"><path fill="#000" d="M16.671 1.659a1.5 1.5 0 0 0-1.342 0C14.805 1.92 2.5 8.175 2.5 17a7.5 7.5 0 0 0 8.689 7.406l-.66 3.3A1.5 1.5 0 0 0 12 29.5h8a1.5 1.5 0 0 0 1.471-1.794l-.66-3.3A7.5 7.5 0 0 0 29.5 17c0-8.825-12.305-15.08-12.829-15.341M22 21.5a4.5 4.5 0 0 1-2.386-.684 1.5 1.5 0 0 0-2.268 1.565l.824 4.12h-4.34l.824-4.12a1.5 1.5 0 0 0-2.268-1.565A4.499 4.499 0 0 1 5.5 17c0-3.536 2.946-6.744 5.418-8.811A34.3 34.3 0 0 1 16 4.704a34.3 34.3 0 0 1 5.083 3.485C23.553 10.256 26.5 13.464 26.5 17a4.5 4.5 0 0 1-4.5 4.5"/></svg>