<svg xmlns="http://www.w3.org/2000/svg" width="32" height="32" fill="none" viewBox="0 0 32 32"><path fill="#000" d="M19.659 2.652a1.5 1.5 0 0 0-1.58.164L9.485 9.5H4A2.5 2.5 0 0 0 1.5 12v8A2.5 2.5 0 0 0 4 22.5h5.485l8.594 6.684A1.5 1.5 0 0 0 20.5 28V4a1.5 1.5 0 0 0-.841-1.348M4.5 12.5h4v7h-4zm13 12.434-6-4.67v-8.53l6-4.667zm13.561-6.994a1.504 1.504 0 0 1-2.125 2.125L27 18.125l-1.939 1.94a1.503 1.503 0 0 1-2.125-2.125L24.875 16l-1.94-1.939a1.503 1.503 0 0 1 2.125-2.125L27 13.875l1.939-1.939a1.503 1.503 0 0 1 2.125 2.125L29.125 16z"/></svg>