<svg xmlns="http://www.w3.org/2000/svg" width="32" height="32" fill="none" viewBox="0 0 32 32"><path fill="#000" d="M19.659 2.652a1.5 1.5 0 0 0-1.58.164L9.485 9.5H4A2.5 2.5 0 0 0 1.5 12v8A2.5 2.5 0 0 0 4 22.5h5.485l8.594 6.684A1.5 1.5 0 0 0 20.5 28V4a1.5 1.5 0 0 0-.841-1.348M4.5 12.5h4v7h-4zm13 12.432-6-4.666v-8.532l6-4.667zm9-8.932a5.5 5.5 0 0 1-1.375 3.639 1.5 1.5 0 0 1-2.25-1.985 2.5 2.5 0 0 0 0-3.304 1.5 1.5 0 0 1 2.25-1.983A5.5 5.5 0 0 1 26.5 16m5 0a10.48 10.48 0 0 1-2.674 7 1.5 1.5 0 0 1-2.236-2 7.5 7.5 0 0 0 0-10 1.497 1.497 0 0 1 .094-2.144A1.5 1.5 0 0 1 28.825 9a10.48 10.48 0 0 1 2.675 7"/></svg>