<svg xmlns="http://www.w3.org/2000/svg" width="32" height="32" fill="none" viewBox="0 0 32 32"><path fill="#000" d="M30 11v10a1.5 1.5 0 1 1-3 0V11a1.5 1.5 0 1 1 3 0m-2.89 14.991a1.5 1.5 0 1 1-2.22 2.018L20.5 23.18V28a1.5 1.5 0 0 1-2.421 1.184L9.485 22.5H4A2.5 2.5 0 0 1 1.5 20v-8A2.5 2.5 0 0 1 4 9.5h4.064L4.89 6.009A1.5 1.5 0 1 1 7.11 3.99zm-9.61-6.116L10.791 12.5H4.5v7H10a1.5 1.5 0 0 1 .921.316l6.579 5.117zM15.731 8.437 17.5 7.062v4.8a1.5 1.5 0 1 0 3 0V4a1.5 1.5 0 0 0-2.421-1.184L13.89 6.075a1.5 1.5 0 1 0 1.841 2.367zM24 18.867a1.5 1.5 0 0 0 1.5-1.5V13a1.5 1.5 0 1 0-3 0v4.368a1.5 1.5 0 0 0 1.5 1.5"/></svg>