<svg xmlns="http://www.w3.org/2000/svg" width="32" height="32" fill="none" viewBox="0 0 32 32"><path fill="#000" d="M7.11 3.991A1.5 1.5 0 1 0 4.89 6.01l3.174 3.49H4A2.5 2.5 0 0 0 1.5 12v8A2.5 2.5 0 0 0 4 22.5h5.485l8.594 6.685A1.5 1.5 0 0 0 20.5 28v-4.82l4.39 4.829a1.5 1.5 0 0 0 2.22-2.018zM4.5 12.5h4v7h-4zm13 12.432-6-4.666V13.28l6 6.595zm-3.875-16.75a1.5 1.5 0 0 1 .264-2.105l4.189-3.258a1.5 1.5 0 0 1 2.422 1.18v7.868a1.5 1.5 0 1 1-3 0v-4.8l-1.769 1.375a1.5 1.5 0 0 1-2.106-.262zm9.25 6.17a1.5 1.5 0 0 1 2.25-1.982 5.5 5.5 0 0 1 .694 6.276 1.5 1.5 0 0 1-2.625-1.444 2.5 2.5 0 0 0-.319-2.854zM31.5 16a10.52 10.52 0 0 1-2.389 6.669 1.5 1.5 0 1 1-2.316-1.907A7.5 7.5 0 0 0 26.591 11a1.5 1.5 0 1 1 2.235-2 10.48 10.48 0 0 1 2.674 7"/></svg>