<svg xmlns="http://www.w3.org/2000/svg" width="32" height="32" fill="none" viewBox="0 0 32 32"><path fill="#000" d="M17.5 4v4a1.5 1.5 0 1 1-3 0V4a1.5 1.5 0 1 1 3 0M28 14.5h-4a1.5 1.5 0 1 0 0 3h4a1.5 1.5 0 1 0 0-3m-5.282 6.096a1.501 1.501 0 0 0-2.451 1.638c.075.182.186.348.326.487l2.828 2.829a1.503 1.503 0 0 0 2.125-2.125zM16 22.5a1.5 1.5 0 0 0-1.5 1.5v4a1.5 1.5 0 1 0 3 0v-4a1.5 1.5 0 0 0-1.5-1.5m-6.717-1.904-2.83 2.829A1.503 1.503 0 0 0 8.58 25.55l2.829-2.829a1.503 1.503 0 0 0-2.125-2.125M9.5 16A1.5 1.5 0 0 0 8 14.5H4a1.5 1.5 0 1 0 0 3h4A1.5 1.5 0 0 0 9.5 16m-.925-9.546A1.503 1.503 0 0 0 6.45 8.579l2.833 2.825a1.503 1.503 0 0 0 2.125-2.125z"/></svg>