<svg xmlns="http://www.w3.org/2000/svg" width="32" height="32" fill="none" viewBox="0 0 32 32"><path fill="#000" d="M27.5 19a1.5 1.5 0 0 1-1.5 1.5h-8.5v4.875l1.439-1.44a1.503 1.503 0 0 1 2.125 2.125l-4 4a1.5 1.5 0 0 1-2.125 0l-4-4a1.501 1.501 0 0 1 1.637-2.45q.276.114.488.325l1.436 1.44V20.5H6a1.5 1.5 0 1 1 0-3h20a1.5 1.5 0 0 1 1.5 1.5M6 14.5h20a1.5 1.5 0 1 0 0-3h-8.5V6.625l1.439 1.44a1.503 1.503 0 0 0 2.125-2.125l-4-4a1.5 1.5 0 0 0-2.125 0l-4 4a1.503 1.503 0 1 0 2.125 2.125l1.436-1.44V11.5H6a1.5 1.5 0 1 0 0 3"/></svg>