<svg xmlns="http://www.w3.org/2000/svg" width="32" height="32" fill="none" viewBox="0 0 32 32"><path fill="#000" d="M16 2.5A13.5 13.5 0 1 0 29.5 16 13.515 13.515 0 0 0 16 2.5m0 24A10.5 10.5 0 1 1 26.5 16 10.51 10.51 0 0 1 16 26.5m8.324-10.545a1.5 1.5 0 0 1-2.03.616 13.34 13.34 0 0 0-12.588 0 1.5 1.5 0 0 1-1.414-2.644 16.33 16.33 0 0 1 15.413 0 1.5 1.5 0 0 1 .619 2.028m-2 4.5a1.5 1.5 0 0 1-2.029.625 9.13 9.13 0 0 0-8.59 0 1.5 1.5 0 0 1-1.41-2.647 12.13 12.13 0 0 1 11.41 0 1.5 1.5 0 0 1 .619 2.022"/></svg>