<svg xmlns="http://www.w3.org/2000/svg" width="32" height="32" fill="none" viewBox="0 0 32 32"><path fill="#000" d="M12.5 4.5H7A2.5 2.5 0 0 0 4.5 7v5.5A2.5 2.5 0 0 0 7 15h5.5a2.5 2.5 0 0 0 2.5-2.5V7a2.5 2.5 0 0 0-2.5-2.5M12 12H7.5V7.5H12zm13-7.5h-5.5A2.5 2.5 0 0 0 17 7v5.5a2.5 2.5 0 0 0 2.5 2.5H25a2.5 2.5 0 0 0 2.5-2.5V7A2.5 2.5 0 0 0 25 4.5m-.5 7.5H20V7.5h4.5zm-12 5H7a2.5 2.5 0 0 0-2.5 2.5V25A2.5 2.5 0 0 0 7 27.5h5.5A2.5 2.5 0 0 0 15 25v-5.5a2.5 2.5 0 0 0-2.5-2.5m-.5 7.5H7.5V20H12zM25 17h-5.5a2.5 2.5 0 0 0-2.5 2.5V25a2.5 2.5 0 0 0 2.5 2.5H25a2.5 2.5 0 0 0 2.5-2.5v-5.5A2.5 2.5 0 0 0 25 17m-.5 7.5H20V20h4.5z"/></svg>