<svg xmlns="http://www.w3.org/2000/svg" width="32" height="32" fill="none" viewBox="0 0 32 32"><path fill="#000" d="M27.5 18.959V27a1.5 1.5 0 0 1-1.5 1.5H6A1.5 1.5 0 0 1 4.5 27V18.96a1.5 1.5 0 0 1 3 0v6.529h17v-6.53a1.5 1.5 0 1 1 3 0M11 22.976h10a1.508 1.508 0 0 0 0-3.013H11a1.508 1.508 0 0 0 0 3.013m1.025-8.85 9.396 3.435a1.506 1.506 0 1 0 1.027-2.832l-9.397-3.435a1.506 1.506 0 0 0-1.026 2.831M16 6.16l7.661 6.455a1.5 1.5 0 0 0 2.46-1.285 1.5 1.5 0 0 0-.532-1.025L17.93 3.853a1.5 1.5 0 0 0-2.459 1.285c.034.397.225.765.529 1.023"/></svg>