<svg xmlns="http://www.w3.org/2000/svg" width="32" height="32" fill="none" viewBox="0 0 32 32"><path fill="#000" d="M30.375 12.006a2.5 2.5 0 0 0-2.157-1.715l-7.125-.616-2.788-6.643a2.5 2.5 0 0 0-4.602 0L10.91 9.675l-7.125.616a2.5 2.5 0 0 0-1.427 4.384L7.774 19.4l-1.625 7.03a2.5 2.5 0 0 0 3.726 2.707L16 25.417l6.125 3.72a2.5 2.5 0 0 0 3.725-2.707l-1.625-7.03 5.415-4.725a2.5 2.5 0 0 0 .735-2.669m-8.344 5.328a2.5 2.5 0 0 0-.793 2.453l1.423 6.165-5.367-3.26a2.49 2.49 0 0 0-2.588 0l-5.367 3.26 1.423-6.165a2.5 2.5 0 0 0-.793-2.453L5.208 13.18l6.267-.543a2.49 2.49 0 0 0 2.086-1.523L16 5.302l2.439 5.812a2.49 2.49 0 0 0 2.086 1.523l6.268.543z"/></svg>