<svg xmlns="http://www.w3.org/2000/svg" width="32" height="32" fill="none" viewBox="0 0 32 32"><path fill="#000" d="m28.857 13.656-7.71-2.804-2.803-7.71a2.494 2.494 0 0 0-4.688 0l-2.804 7.71-7.71 2.804a2.493 2.493 0 0 0 0 4.688l7.71 2.803 2.804 7.71a2.493 2.493 0 0 0 4.688 0l2.803-7.71 7.71-2.803a2.494 2.494 0 0 0 0-4.688m-8.956 4.75A2.49 2.49 0 0 0 18.41 19.9l-2.41 6.625-2.408-6.625a2.49 2.49 0 0 0-1.492-1.493L5.474 16l6.625-2.409A2.49 2.49 0 0 0 13.59 12.1L16 5.474l2.409 6.625A2.49 2.49 0 0 0 19.9 13.59L26.526 16z"/></svg>