<svg xmlns="http://www.w3.org/2000/svg" width="32" height="32" fill="none" viewBox="0 0 32 32"><path fill="#000" d="m29.641 14.675-.655.575a1.5 1.5 0 0 1-2.16-2.065 1.501 1.501 0 1 1 .299-2.988l1.087.094a2.5 2.5 0 0 1 1.424 4.384zm-7.61 2.659a2.5 2.5 0 0 0-.793 2.453l.357 1.552a1.5 1.5 0 0 0 2.924-.675l-.293-1.264.76-.664a1.501 1.501 0 0 0-1.464-2.56 1.5 1.5 0 0 0-.508.3zm-2.75 8.322a1.5 1.5 0 0 1-2.061.5L16 25.417l-6.125 3.72A2.5 2.5 0 0 1 6.15 26.43l1.625-7.03-5.416-4.725a2.5 2.5 0 0 1 1.424-4.384l7.125-.616 2.787-6.643a2.5 2.5 0 0 1 4.602 0l2.788 6.643 1.041.09a1.5 1.5 0 0 1-.251 2.985l-1.346-.116a2.49 2.49 0 0 1-2.087-1.524L17.5 8.875v13.944l1.279.776a1.5 1.5 0 0 1 .503 2.061M14.5 22.82V8.875l-.939 2.236a2.49 2.49 0 0 1-2.086 1.526l-6.267.543 4.76 4.154a2.5 2.5 0 0 1 .794 2.453L9.34 25.952zm11.174 2.845a1.5 1.5 0 0 0-2.963.32 1.5 1.5 0 0 0-1.49 2.605l.904.548a2.5 2.5 0 0 0 3.725-2.707z"/></svg>