<svg xmlns="http://www.w3.org/2000/svg" width="32" height="32" fill="none" viewBox="0 0 32 32"><path fill="#000" d="M18 18a2 2 0 1 1-4 0 2 2 0 0 1 4 0m11.5-2A13.5 13.5 0 1 1 16 2.5 13.515 13.515 0 0 1 29.5 16m-8.806 3.5h5.204q.148-.415.26-.845a14.5 14.5 0 0 0-20.317 0q.112.43.262.845h5.203a2.51 2.51 0 0 1 2.342 1.625l2.007 5.366c.115 0 .229.009.345.009s.227 0 .34-.009l2.012-5.375a2.51 2.51 0 0 1 2.342-1.616M5.55 14.966a17.48 17.48 0 0 1 20.898 0 10.5 10.5 0 0 0-20.898 0m6.635 10.814L10.96 22.5H7.763a10.56 10.56 0 0 0 4.423 3.28m12.052-3.28H21.04l-1.23 3.281a10.54 10.54 0 0 0 4.428-3.281"/></svg>