<svg xmlns="http://www.w3.org/2000/svg" width="32" height="32" fill="none" viewBox="0 0 32 32"><path fill="#000" d="M30 19a5 5 0 1 0-6.58 4.743A3.5 3.5 0 0 1 20 26.5h-3a3.5 3.5 0 0 1-3.5-3.5v-4.637c3.966-.723 7-4.262 7-8.467V5A2.5 2.5 0 0 0 18 2.5h-2a1.5 1.5 0 0 0 0 3h1.5v4.396c0 3.05-2.434 5.565-5.426 5.604A5.5 5.5 0 0 1 6.5 10V5.5H8a1.5 1.5 0 0 0 0-3H6A2.5 2.5 0 0 0 3.5 5v5a8.5 8.5 0 0 0 7 8.366V23a6.507 6.507 0 0 0 6.5 6.5h3a6.51 6.51 0 0 0 6.451-5.715A5.01 5.01 0 0 0 30 19m-5 2a2 2 0 1 1 0-4 2 2 0 0 1 0 4"/></svg>