<svg xmlns="http://www.w3.org/2000/svg" width="32" height="32" fill="none" viewBox="0 0 32 32"><path fill="#000" d="M29.5 12q0-.21-.055-.412L27.65 5.314a2.51 2.51 0 0 0-2.4-1.814H6.75a2.51 2.51 0 0 0-2.4 1.814l-1.792 6.274A1.5 1.5 0 0 0 2.5 12v2a5.5 5.5 0 0 0 2 4.24V26A2.5 2.5 0 0 0 7 28.5h18a2.5 2.5 0 0 0 2.5-2.5v-7.76a5.5 5.5 0 0 0 2-4.24zm-3 2a2.5 2.5 0 0 1-5 0v-.5h5zm-21 0v-.5h5v.5a2.5 2.5 0 0 1-5 0m8-.5h5v.5a2.5 2.5 0 0 1-5 0zm-6.369-7h17.744l1.142 4H5.99zm17.369 19h-17v-6.024q.247.023.5.024a5.48 5.48 0 0 0 4-1.731 5.486 5.486 0 0 0 8 0 5.48 5.48 0 0 0 4.5 1.707z"/></svg>