<svg xmlns="http://www.w3.org/2000/svg" width="32" height="32" fill="none" viewBox="0 0 32 32"><path fill="#000" d="M26 3.5H6A2.5 2.5 0 0 0 3.5 6v20A2.5 2.5 0 0 0 6 28.5h20a2.5 2.5 0 0 0 2.5-2.5V6A2.5 2.5 0 0 0 26 3.5m-.5 22h-19v-19h19zm-7-6.5c0-.796-.786-1.165-3-1.802-2.017-.582-4.779-1.376-4.779-4.198 0-2.565 2.269-4.5 5.278-4.5 2.155 0 4.007 1.018 4.836 2.655a1.499 1.499 0 1 1-2.676 1.355C17.85 11.896 17 11.5 16 11.5c-1.277 0-2.277.659-2.277 1.5 0 .136 0 .276.41.521.522.31 1.375.556 2.2.794 1.093.315 2.225.641 3.172 1.233 1.649 1.028 2 2.444 2 3.452 0 2.524-2.416 4.5-5.5 4.5-2.657 0-4.932-1.544-5.409-3.672a1.5 1.5 0 0 1 2.928-.655C13.663 19.81 14.65 20.5 16 20.5c1.18 0 2.5-.641 2.5-1.5"/></svg>