<svg xmlns="http://www.w3.org/2000/svg" width="32" height="32" fill="none" viewBox="0 0 32 32"><path fill="#000" d="m28.474 6.578-12-4a1.48 1.48 0 0 0-.948 0l-12 4A1.5 1.5 0 0 0 2.5 8v10a1.5 1.5 0 0 0 3 0v-7.919l2.964.988a8.49 8.49 0 0 0 2.302 10.625A12.55 12.55 0 0 0 5.75 26.18a1.5 1.5 0 1 0 2.513 1.639C10.046 25.074 12.875 23.5 16 23.5s5.954 1.574 7.744 4.319a1.5 1.5 0 1 0 2.512-1.639 12.55 12.55 0 0 0-5.022-4.49 8.49 8.49 0 0 0 2.302-10.625l4.938-1.646a1.5 1.5 0 0 0 0-2.845zM16 5.578 23.256 8 16 10.42 8.75 8zM21.5 15a5.5 5.5 0 1 1-10.132-2.964l4.158 1.387c.308.103.64.103.948 0l4.159-1.387A5.5 5.5 0 0 1 21.5 15"/></svg>