<svg xmlns="http://www.w3.org/2000/svg" width="32" height="32" fill="none" viewBox="0 0 32 32"><path fill="#000" d="M28 5.5H4A2.5 2.5 0 0 0 1.5 8v16A2.5 2.5 0 0 0 4 26.5h24a2.5 2.5 0 0 0 2.5-2.5V8A2.5 2.5 0 0 0 28 5.5m-.5 18h-23v-15h23zM6 16a1.5 1.5 0 0 1 1.5-1.5h2a1.5 1.5 0 1 1 0 3h-2A1.5 1.5 0 0 1 6 16m7 0a1.5 1.5 0 0 1 1.5-1.5h10a1.5 1.5 0 1 1 0 3h-10A1.5 1.5 0 0 1 13 16m-7 4.5A1.5 1.5 0 0 1 7.5 19h10a1.5 1.5 0 1 1 0 3h-10A1.5 1.5 0 0 1 6 20.5m20 0a1.5 1.5 0 0 1-1.5 1.5h-2a1.5 1.5 0 1 1 0-3h2a1.5 1.5 0 0 1 1.5 1.5"/></svg>