<svg xmlns="http://www.w3.org/2000/svg" width="32" height="32" fill="none" viewBox="0 0 32 32"><path fill="#000" d="M22.25 9.75a10.5 10.5 0 1 0-12.5 12.5 10.499 10.499 0 0 0 17.682 5.182A10.5 10.5 0 0 0 22.25 9.75M27.5 20q-.001.417-.047.831l-5.5-5.5c.262-.785.43-1.599.5-2.423A7.48 7.48 0 0 1 27.5 20m-23-8a7.5 7.5 0 1 1 7.5 7.5A7.51 7.51 0 0 1 4.5 12m8.41 10.458c.825-.07 1.639-.238 2.424-.5l5.5 5.5q-.416.043-.834.042a7.48 7.48 0 0 1-7.09-5.042m11.066 3.897-5.841-5.841a10.6 10.6 0 0 0 2.375-2.375l5.841 5.841a7.56 7.56 0 0 1-2.375 2.375"/></svg>