<svg xmlns="http://www.w3.org/2000/svg" width="32" height="32" fill="none" viewBox="0 0 32 32"><path fill="#000" d="M14.5 4.5V4a1.5 1.5 0 1 1 3 0v.5a1.5 1.5 0 1 1-3 0m10 11.5A8.5 8.5 0 1 1 16 7.5a8.51 8.51 0 0 1 8.5 8.5m-3 0a5.5 5.5 0 1 0-5.5 5.5 5.506 5.506 0 0 0 5.5-5.5M6.439 8.561a1.503 1.503 0 0 0 2.125-2.125l-.5-.5a1.503 1.503 0 0 0-2.125 2.125zm0 14.875-.5.5a1.502 1.502 0 1 0 2.125 2.125l.5-.5a1.503 1.503 0 0 0-2.125-2.125M24.5 9a1.5 1.5 0 0 0 1.061-.439l.5-.5a1.503 1.503 0 0 0-2.125-2.125l-.5.5A1.5 1.5 0 0 0 24.5 9m1.061 14.439a1.503 1.503 0 0 0-2.125 2.125l.5.5a1.502 1.502 0 1 0 2.125-2.125zM6 16a1.5 1.5 0 0 0-1.5-1.5H4a1.5 1.5 0 1 0 0 3h.5A1.5 1.5 0 0 0 6 16m10 10a1.5 1.5 0 0 0-1.5 1.5v.5a1.5 1.5 0 1 0 3 0v-.5A1.5 1.5 0 0 0 16 26m12-11.5h-.5a1.5 1.5 0 1 0 0 3h.5a1.5 1.5 0 1 0 0-3"/></svg>