<svg xmlns="http://www.w3.org/2000/svg" width="32" height="32" fill="none" viewBox="0 0 32 32"><path fill="#000" d="m29.349 18.665-2.386-6.526a2.5 2.5 0 0 0-3.198-1.489l-7.664 2.778 1.362-7.78a2.5 2.5 0 0 0-2.02-2.898L8.61 1.54a2.493 2.493 0 0 0-2.889 2.03L2.595 21.46a6 6 0 0 0 4.83 6.948q.54.092 1.088.092H27a2.5 2.5 0 0 0 2.5-2.5v-6.476a2.7 2.7 0 0 0-.151-.859m-17.974 4.358a2.98 2.98 0 0 1-2.281 2.408 2.9 2.9 0 0 1-1.146.023 3 3 0 0 1-2.404-3.478L8.589 4.583l5.832 1.042zm2.955.516 1.174-6.705 8.811-3.193 2.038 5.574-12.03 4.359a.2.2 0 0 0 .01-.035zM26.5 25.5h-8.685l8.685-3.147zM10.153 21.76l-.175 1a1.5 1.5 0 0 1-2.957-.518l.175-1a1.5 1.5 0 0 1 2.955.518z"/></svg>