<svg xmlns="http://www.w3.org/2000/svg" width="32" height="32" fill="none" viewBox="0 0 32 32"><path fill="#000" d="M11 18.674a1.5 1.5 0 0 0 1.5-1.5V17h7v.411a1.5 1.5 0 1 0 3 0V4a1.5 1.5 0 1 0-3 0v1h-7V4a1.5 1.5 0 1 0-3 0v13.174a1.5 1.5 0 0 0 1.5 1.5M12.5 14v-1.5h7V14zm7-6v1.5h-7V8zm-17 12.5A1.5 1.5 0 0 1 4 19c1.954 0 3 .694 3.832 1.25.676.45 1.125.75 2.168.75s1.491-.297 2.168-.75c.836-.559 1.875-1.25 3.83-1.25 1.957 0 3 .694 3.833 1.25.677.45 1.125.75 2.169.75s1.492-.297 2.168-.75C25.005 19.691 26.043 19 28 19a1.5 1.5 0 1 1 0 3c-1.046 0-1.492.297-2.169.75C24.995 23.309 23.956 24 22 24s-3-.694-3.832-1.25c-.677-.45-1.125-.75-2.17-.75-1.043 0-1.49.297-2.167.75C12.995 23.309 11.956 24 10 24s-3-.694-3.832-1.25C5.492 22.3 5.043 22 4 22a1.5 1.5 0 0 1-1.5-1.5m27 5.5a1.5 1.5 0 0 1-1.5 1.5c-1.046 0-1.492.297-2.169.75-.836.559-1.875 1.25-3.831 1.25s-3-.694-3.832-1.25c-.677-.45-1.125-.75-2.17-.75-1.043 0-1.49.297-2.167.75-.836.559-1.875 1.25-3.831 1.25s-3-.694-3.832-1.25C5.492 27.8 5.043 27.5 4 27.5a1.5 1.5 0 1 1 0-3c1.954 0 3 .694 3.832 1.25.676.45 1.125.75 2.168.75s1.491-.297 2.168-.75c.836-.559 1.875-1.25 3.83-1.25 1.957 0 3 .694 3.833 1.25.677.45 1.125.75 2.169.75s1.492-.297 2.168-.75c.837-.559 1.875-1.25 3.832-1.25a1.5 1.5 0 0 1 1.5 1.5"/></svg>