<svg xmlns="http://www.w3.org/2000/svg" width="32" height="32" fill="none" viewBox="0 0 32 32"><path fill="#000" d="M26 6.793V4a1.5 1.5 0 1 0-3 0v2.793a4.01 4.01 0 0 0-2.5 3.707v3.344l-3-1.719V9a1.5 1.5 0 1 0-3 0v3.125l-3 1.719V10.5A4.01 4.01 0 0 0 9 6.793V4a1.5 1.5 0 0 0-3 0v2.793A4.01 4.01 0 0 0 3.5 10.5V27A1.5 1.5 0 0 0 5 28.5h22a1.5 1.5 0 0 0 1.5-1.5V10.5A4.01 4.01 0 0 0 26 6.793M16 20a1.5 1.5 0 0 0-1.5 1.5v4h-3v-8.201l4.5-2.572 4.5 2.572V25.5h-3v-4A1.5 1.5 0 0 0 16 20m-9.5-9.5a1 1 0 0 1 2 0v2h-2zm17 0a1 1 0 0 1 2 0v2h-2zm-17 5h2v10h-2zm17 10v-10h2v10z"/></svg>