<svg xmlns="http://www.w3.org/2000/svg" width="32" height="32" fill="none" viewBox="0 0 32 32"><path fill="#000" d="m30.772 7.238-6.01-3.532a1.5 1.5 0 0 0-.761-.206h-4A1.5 1.5 0 0 0 18.5 5a2.5 2.5 0 0 1-5 0A1.5 1.5 0 0 0 12 3.5H8c-.267 0-.53.072-.759.208L1.23 7.238A2.523 2.523 0 0 0 .25 10.5l2.238 4.6a2.45 2.45 0 0 0 2.222 1.4H6.5V26A2.5 2.5 0 0 0 9 28.5h14a2.5 2.5 0 0 0 2.5-2.5v-9.5h1.79a2.46 2.46 0 0 0 2.22-1.396l2.24-4.604a2.52 2.52 0 0 0-.978-3.262M5.047 13.5 3.146 9.591 6.5 7.625V13.5zm17.454 12h-13v-19h1.209a5.5 5.5 0 0 0 10.585 0H22.5zm4.452-12h-1.452V7.625l3.354 1.97z"/></svg>