<svg xmlns="http://www.w3.org/2000/svg" width="32" height="32" fill="none" viewBox="0 0 32 32"><path fill="#000" d="M25.55 6.45a13.5 13.5 0 1 0 0 19.1 13.52 13.52 0 0 0 0-19.1M8.573 8.575a10.43 10.43 0 0 1 5.775-2.94 10.51 10.51 0 0 1-8.715 8.715 10.43 10.43 0 0 1 2.94-5.777zm-2.98 8.809a13.4 13.4 0 0 0 7.93-3.86 13.4 13.4 0 0 0 3.86-7.931 10.48 10.48 0 0 1 9.025 9.023 13.51 13.51 0 0 0-11.792 11.79 10.48 10.48 0 0 1-9.023-9.022m17.835 6.043a10.44 10.44 0 0 1-5.775 2.94 10.51 10.51 0 0 1 8.715-8.715 10.43 10.43 0 0 1-2.94 5.775"/></svg>