<svg xmlns="http://www.w3.org/2000/svg" width="32" height="32" fill="none" viewBox="0 0 32 32"><path fill="#000" d="M11.357 6.361a1.5 1.5 0 0 0-2.715 0l-8 17a1.5 1.5 0 0 0 2.714 1.278L5.305 20.5h9.39l1.947 4.139a1.5 1.5 0 0 0 2.715-1.278zm-4.64 11.14L10 10.522l3.284 6.977zM25 11.5c-1.731 0-3.096.482-4.056 1.434a1.5 1.5 0 1 0 2.112 2.125c.375-.375 1.033-.565 1.944-.565 1.167 0 2.149.645 2.421 1.513A5.9 5.9 0 0 0 25 15.5c-3.033 0-5.5 2.243-5.5 5s2.467 5 5.5 5a5.9 5.9 0 0 0 2.75-.672A1.5 1.5 0 0 0 30.5 24v-7.5c0-2.757-2.468-5-5.5-5m0 11c-1.375 0-2.5-.898-2.5-2 0-1.103 1.125-2 2.5-2s2.5.897 2.5 2-1.125 2-2.5 2"/></svg>