<svg xmlns="http://www.w3.org/2000/svg" width="32" height="32" fill="none" viewBox="0 0 32 32"><path fill="#000" d="M31.5 22.5a5 5 0 0 1-5 5 4.94 4.94 0 0 1-3.571-1.45 1.5 1.5 0 0 1 2.142-2.1 1.94 1.94 0 0 0 1.429.55 2 2 0 0 0 0-4 1.94 1.94 0 0 0-1.429.55 1.5 1.5 0 0 1-2.551-1.3l1-6A1.5 1.5 0 0 1 25 12.5h5a1.5 1.5 0 1 1 0 3h-3.729l-.338 2.029q.283-.03.567-.029a5 5 0 0 1 5 5M18 5.5A1.5 1.5 0 0 0 16.5 7v6h-10V7a1.5 1.5 0 0 0-3 0v15a1.5 1.5 0 0 0 3 0v-6h10v6a1.5 1.5 0 1 0 3 0V7A1.5 1.5 0 0 0 18 5.5"/></svg>