<svg xmlns="http://www.w3.org/2000/svg" width="32" height="32" fill="none" viewBox="0 0 32 32"><path fill="#000" d="M15 8a1.5 1.5 0 0 1-1.5 1.5H5a1.5 1.5 0 0 1 0-3h8.5A1.5 1.5 0 0 1 15 8m-1.5 3.5H5a1.5 1.5 0 1 0 0 3h8.5a1.5 1.5 0 1 0 0-3m0 5H5a1.5 1.5 0 1 0 0 3h8.5a1.5 1.5 0 1 0 0-3m0 5H5a1.5 1.5 0 1 0 0 3h8.5a1.5 1.5 0 1 0 0-3m5-12H27a1.5 1.5 0 0 0 0-3h-8.5a1.5 1.5 0 0 0 0 3m8.5 2h-8.5a1.5 1.5 0 1 0 0 3H27a1.5 1.5 0 1 0 0-3m0 5h-8.5a1.5 1.5 0 1 0 0 3H27a1.5 1.5 0 1 0 0-3m0 5h-8.5a1.5 1.5 0 1 0 0 3H27a1.5 1.5 0 1 0 0-3"/></svg>