<svg xmlns="http://www.w3.org/2000/svg" width="32" height="32" fill="none" viewBox="0 0 32 32"><path fill="#000" d="M21.765 10.351a1.5 1.5 0 0 1 .384-2.086c1.482-1.023 3.72-1.023 5.202 0 .454.313 1.344.313 1.798 0a1.5 1.5 0 0 1 1.702 2.47 4.79 4.79 0 0 1-5.202 0c-.454-.312-1.344-.312-1.798 0a1.5 1.5 0 0 1-2.086-.384m7.384 2.914c-.454.313-1.344.313-1.798 0-1.482-1.023-3.72-1.023-5.202 0a1.5 1.5 0 0 0-.394 2.093 1.5 1.5 0 0 0 2.096.377c.454-.312 1.344-.312 1.798 0a4.79 4.79 0 0 0 5.202 0 1.5 1.5 0 0 0-1.702-2.47M20 18.836a8 8 0 1 1-13 0V7a6.5 6.5 0 1 1 13 0zM18.5 23.5a5 5 0 0 0-1.154-3.194 1.5 1.5 0 0 1-.346-.96V7a3.5 3.5 0 1 0-7 0v12.348c0 .359-.13.706-.364.978A5 5 0 1 0 18.5 23.5M15 20.903V7a1.5 1.5 0 1 0-3 0v13.903a3 3 0 1 0 3 0"/></svg>