<svg xmlns="http://www.w3.org/2000/svg" width="32" height="32" fill="none" viewBox="0 0 32 32"><path fill="#000" d="m30.768 10.19-1.84.599 1.137 1.565a1.5 1.5 0 1 1-2.428 1.764L26.5 12.553l-1.137 1.564a1.5 1.5 0 0 1-2.428-1.763l1.138-1.565-1.84-.599a1.5 1.5 0 1 1 .926-2.852L25 7.935V6a1.5 1.5 0 1 1 3 0v1.935l1.841-.597a1.5 1.5 0 1 1 .926 2.852M20 18.836a8 8 0 1 1-13 0V7a6.5 6.5 0 1 1 13 0zM18.5 23.5a5 5 0 0 0-1.154-3.194 1.5 1.5 0 0 1-.346-.96V7a3.5 3.5 0 1 0-7 0v12.348c0 .359-.13.706-.364.978A5 5 0 1 0 18.5 23.5M15 20.903V15a1.5 1.5 0 1 0-3 0v5.903a3 3 0 1 0 3 0"/></svg>