<svg xmlns="http://www.w3.org/2000/svg" width="32" height="32" fill="none" viewBox="0 0 32 32"><path fill="#000" d="m31.566 10.939-4.75-4.75a1.5 1.5 0 0 0-2.125 0l-3.686 3.686-3.939-3.936a1.5 1.5 0 0 0-2.125 0l-3.936 3.936-3.689-3.686a1.5 1.5 0 0 0-2.125 0l-4.75 4.75a1.5 1.5 0 0 0 0 2.125l4.75 4.75a1.5 1.5 0 0 0 2.125 0l3.689-3.689L13.88 17l-3.936 3.939a1.5 1.5 0 0 0 0 2.125l5 5a1.5 1.5 0 0 0 2.125 0l5-5a1.5 1.5 0 0 0 0-2.125L18.129 17l2.876-2.875 3.689 3.69a1.5 1.5 0 0 0 2.125 0l4.75-4.75a1.5 1.5 0 0 0-.003-2.126M6.255 14.625 3.63 12l2.625-2.625L8.88 12zm9.75 10.25L13.13 22l2.875-2.875L18.88 22zm0-10L13.13 12l2.875-2.875L18.88 12zm9.75-.25L23.13 12l2.625-2.625L28.38 12z"/></svg>