<svg xmlns="http://www.w3.org/2000/svg" width="32" height="32" fill="none" viewBox="0 0 32 32"><path fill="#000" d="M28 8.5A5.506 5.506 0 0 1 22.5 3 1.5 1.5 0 0 0 21 1.5h-5A1.5 1.5 0 0 0 14.5 3v16.5a2 2 0 1 1-2.856-1.809 1.5 1.5 0 0 0 .856-1.355V11a1.5 1.5 0 0 0-1.762-1.476 9.92 9.92 0 0 0-5.885 3.467A10.23 10.23 0 0 0 2.5 19.5a10 10 0 0 0 20 0v-4.166c1.73.772 3.605 1.17 5.5 1.166a1.5 1.5 0 0 0 1.5-1.5v-5A1.5 1.5 0 0 0 28 8.5m-1.5 4.894a10.4 10.4 0 0 1-4.625-1.864 1.5 1.5 0 0 0-2.375 1.22v6.75a7 7 0 1 1-14 0 7.23 7.23 0 0 1 4-6.445V15.5a5 5 0 1 0 8 4v-15h2.133a8.53 8.53 0 0 0 6.867 6.868z"/></svg>