<svg xmlns="http://www.w3.org/2000/svg" width="32" height="32" fill="none" viewBox="0 0 32 32"><path fill="#000" d="M10 15a2 2 0 1 1-4 0 2 2 0 0 1 4 0m20.5 0v11a2.5 2.5 0 0 1-2.5 2.5H14a2.5 2.5 0 0 1-2.5-2.5v-1.201C10.5 25.884 9.307 26.5 8 26.5c-3.706 0-6.5-4.944-6.5-11.5S4.294 3.5 8 3.5h16c3.706 0 6.5 4.944 6.5 11.5m-19 0c0-2.408-.476-4.74-1.306-6.4C9.536 7.285 8.716 6.5 8 6.5s-1.536.785-2.194 2.1C4.976 10.26 4.5 12.592 4.5 15c0 2.407.476 4.74 1.306 6.4.658 1.315 1.478 2.1 2.194 2.1s1.536-.785 2.194-2.1c.83-1.66 1.306-3.992 1.306-6.4m16 10.5v-9h-1a1.5 1.5 0 1 1 0-3h.938c-.154-1.856-.588-3.589-1.244-4.9S24.716 6.5 24 6.5H12.468c1.076 1.764 1.793 4.195 1.982 7h1.05a1.5 1.5 0 1 1 0 3h-1v9zm-6-12h-1a1.5 1.5 0 1 0 0 3h1a1.5 1.5 0 1 0 0-3"/></svg>