<svg xmlns="http://www.w3.org/2000/svg" width="32" height="32" fill="none" viewBox="0 0 32 32"><path fill="#000" d="M16 8.5a1.5 1.5 0 0 1-1.5 1.5h-2a1.5 1.5 0 0 1 0-3h2A1.5 1.5 0 0 1 16 8.5m6.019 15.953.456 3.193A2.5 2.5 0 0 1 20 30.5h-8a2.5 2.5 0 0 1-2.475-2.854l.456-3.193A12.51 12.51 0 0 1 3.5 13.5 1.5 1.5 0 0 1 5 12h1.5V5A2.5 2.5 0 0 1 9 2.5h14A2.5 2.5 0 0 1 25.5 5v7H27a1.5 1.5 0 0 1 1.5 1.5 12.51 12.51 0 0 1-6.481 10.953M9.5 12h13V5.5h-13zm9.651 13.598a12.54 12.54 0 0 1-6.302 0l-.273 1.902h6.848zM25.381 15H6.625a9.5 9.5 0 0 0 18.763 0z"/></svg>