<svg xmlns="http://www.w3.org/2000/svg" width="32" height="32" fill="none" viewBox="0 0 32 32"><path fill="#000" d="M30.75 14.183 17.817 1.25a2.57 2.57 0 0 0-3.635 0L1.25 14.183a2.57 2.57 0 0 0 0 3.634L14.183 30.75a2.57 2.57 0 0 0 3.634 0L30.75 17.817a2.57 2.57 0 0 0 0-3.635M16 28.32 3.679 16 16 3.679 28.321 16zm.939-15.26a1.503 1.503 0 0 1 2.125-2.125l3 3a1.5 1.5 0 0 1 0 2.125l-3 3a1.503 1.503 0 0 1-2.125-2.125l.436-.436H14a1.5 1.5 0 0 0-1.5 1.5v.5a1.5 1.5 0 1 1-3 0V18a4.5 4.5 0 0 1 4.5-4.5h3.375z"/></svg>