<svg xmlns="http://www.w3.org/2000/svg" width="32" height="32" fill="none" viewBox="0 0 32 32"><path fill="#000" d="M23 2.5H9A4.5 4.5 0 0 0 4.5 7v16A4.5 4.5 0 0 0 9 27.5l-1.2 1.6a1.5 1.5 0 0 0 2.4 1.8l2.55-3.4h6.5l2.55 3.4a1.5 1.5 0 1 0 2.4-1.8L23 27.5a4.5 4.5 0 0 0 4.5-4.5V7A4.5 4.5 0 0 0 23 2.5m-15.5 12v-4h7v4zm10-4h7v4h-7zM9 5.5h14A1.5 1.5 0 0 1 24.5 7v.5h-17V7A1.5 1.5 0 0 1 9 5.5m14 19H9A1.5 1.5 0 0 1 7.5 23v-5.5h17V23a1.5 1.5 0 0 1-1.5 1.5M13 21a2 2 0 1 1-4 0 2 2 0 0 1 4 0m10 0a2 2 0 1 1-4 0 2 2 0 0 1 4 0"/></svg>