<svg xmlns="http://www.w3.org/2000/svg" width="32" height="32" fill="none" viewBox="0 0 32 32"><path fill="#000" d="M23 5.5h-5.5v-2H21a1.5 1.5 0 0 0 0-3H11a1.5 1.5 0 1 0 0 3h3.5v2H9A4.5 4.5 0 0 0 4.5 10v13A4.5 4.5 0 0 0 9 27.5l-1.2 1.6a1.5 1.5 0 0 0 2.4 1.8l2.55-3.4h6.5l2.55 3.4a1.5 1.5 0 1 0 2.4-1.8L23 27.5a4.5 4.5 0 0 0 4.5-4.5V10A4.5 4.5 0 0 0 23 5.5m-14 3h14a1.5 1.5 0 0 1 1.5 1.5v4.5h-17V10A1.5 1.5 0 0 1 9 8.5m14 16H9A1.5 1.5 0 0 1 7.5 23v-5.5h17V23a1.5 1.5 0 0 1-1.5 1.5M13 21a2 2 0 1 1-4 0 2 2 0 0 1 4 0m10 0a2 2 0 1 1-4 0 2 2 0 0 1 4 0"/></svg>