<svg xmlns="http://www.w3.org/2000/svg" width="32" height="32" fill="none" viewBox="0 0 32 32"><path fill="#000" d="M25.148 7.454a10 10 0 0 0-18.295 0 9.54 9.54 0 0 0-5.353 8.52c-.014 5.125 4.138 9.393 9.25 9.523a9.5 9.5 0 0 0 3.75-.663V29a1.5 1.5 0 0 0 3 0v-4.166a9.5 9.5 0 0 0 3.5.666h.25c5.118-.125 9.269-4.403 9.25-9.524a9.54 9.54 0 0 0-5.352-8.522M21.168 22.5a6.44 6.44 0 0 1-3.668-1.025v-4.548l5.171-2.586a1.502 1.502 0 0 0 .327-2.488 1.5 1.5 0 0 0-1.67-.194L17.5 13.572V11a1.5 1.5 0 1 0-3 0v5.572l-3.829-1.913A1.5 1.5 0 0 0 9.33 17.34l5.171 2.586v1.548a6.43 6.43 0 0 1-3.669 1.025 6.5 6.5 0 0 1-2.547-12.405 2.5 2.5 0 0 0 1.259-1.303 7 7 0 0 1 12.915 0 2.5 2.5 0 0 0 1.258 1.303A6.5 6.5 0 0 1 21.17 22.5"/></svg>