<svg xmlns="http://www.w3.org/2000/svg" width="32" height="32" fill="none" viewBox="0 0 32 32"><path fill="#000" d="M21 14.5h6a2.5 2.5 0 0 0 2.5-2.5V6A2.5 2.5 0 0 0 27 3.5h-6A2.5 2.5 0 0 0 18.5 6v1.5H18a4.5 4.5 0 0 0-4.5 4.5v2.5h-3V14A2.5 2.5 0 0 0 8 11.5H4A2.5 2.5 0 0 0 1.5 14v4A2.5 2.5 0 0 0 4 20.5h4a2.5 2.5 0 0 0 2.5-2.5v-.5h3V20a4.5 4.5 0 0 0 4.5 4.5h.5V26a2.5 2.5 0 0 0 2.5 2.5h6a2.5 2.5 0 0 0 2.5-2.5v-6a2.5 2.5 0 0 0-2.5-2.5h-6a2.5 2.5 0 0 0-2.5 2.5v1.5H18a1.5 1.5 0 0 1-1.5-1.5v-8a1.5 1.5 0 0 1 1.5-1.5h.5V12a2.5 2.5 0 0 0 2.5 2.5m-13.5 3h-3v-3h3zm14 3h5v5h-5zm0-14h5v5h-5z"/></svg>