<svg xmlns="http://www.w3.org/2000/svg" width="32" height="32" fill="none" viewBox="0 0 32 32"><path fill="#000" d="M30.086 6.309a8.86 8.86 0 0 0-12.942 0Q16.5 6.985 16 7.774a9.6 9.6 0 0 0-1.144-1.465 8.86 8.86 0 0 0-12.942 0 1.5 1.5 0 0 0 .487 2.41l5.849 2.546A9.43 9.43 0 0 0 2.821 22.39a1.5 1.5 0 0 0 2.357.801l9.322-7.097V28a1.5 1.5 0 0 0 3 0V16.094l9.317 7.098a1.5 1.5 0 0 0 2.357-.8 9.43 9.43 0 0 0-5.429-11.126l5.854-2.546a1.5 1.5 0 0 0 .487-2.41zm-21.701.19a5.9 5.9 0 0 1 4.297 1.876 6.6 6.6 0 0 1 1.355 2.135L6 7.012A5.8 5.8 0 0 1 8.385 6.5M5.549 19.145a6.465 6.465 0 0 1 4.767-5.423 6.6 6.6 0 0 1 2.57-.162zm20.076-2.418c.434.743.713 1.565.821 2.418l-7.321-5.587a6.5 6.5 0 0 1 2.564.164 6.45 6.45 0 0 1 3.936 3.005m-7.663-6.216a6.6 6.6 0 0 1 1.355-2.135A5.9 5.9 0 0 1 23.615 6.5c.822 0 1.636.174 2.385.512z"/></svg>