<svg xmlns="http://www.w3.org/2000/svg" width="32" height="32" fill="none" viewBox="0 0 32 32"><path fill="#000" d="m31.393 14.443-1.75-4.375a2.49 2.49 0 0 0-2.32-1.568H23.5V8A1.5 1.5 0 0 0 22 6.5H3A2.5 2.5 0 0 0 .5 9v14A2.5 2.5 0 0 0 3 25.5h1.758a4.5 4.5 0 0 0 8.485 0h5.515a4.5 4.5 0 0 0 8.485 0H29a2.5 2.5 0 0 0 2.5-2.5v-8a2.7 2.7 0 0 0-.108-.557M23.5 11.5h3.485l.8 2H23.5zM9 25.5a1.5 1.5 0 1 1 0-3 1.5 1.5 0 0 1 0 3m11.5-5.24a4.54 4.54 0 0 0-1.742 2.24h-5.515a4.5 4.5 0 0 0-8.485 0H3.5v-5h17zm0-5.76h-17v-5h17zm2.5 11a1.5 1.5 0 1 1 0-3 1.5 1.5 0 0 1 0 3m5.5-3h-1.258a4.51 4.51 0 0 0-3.742-2.971V16.5h5z"/></svg>