<svg xmlns="http://www.w3.org/2000/svg" width="32" height="32" fill="none" viewBox="0 0 32 32"><path fill="#000" d="M31.386 8.426A1.5 1.5 0 0 0 30 7.5h-3.523a6.59 6.59 0 0 0-5.458-3 6.36 6.36 0 0 0-4.575 1.856A6.48 6.48 0 0 0 14.5 11v.098C9.896 9.65 6.203 5.985 6.163 5.944a1.5 1.5 0 0 0-2.56.922c-.788 8.772 3.082 13.474 5.258 15.39-1.811 1.848-4.361 2.83-4.386 2.84a1.5 1.5 0 0 0-.725 2.237C4 27.693 5.43 29.5 10 29.5c9.031 0 16.588-6.907 17.45-15.829l3.61-3.61a1.5 1.5 0 0 0 .326-1.635M24.94 11.94a1.5 1.5 0 0 0-.436.965C24.017 20.53 17.647 26.5 10 26.5q-.784.004-1.561-.099c1.311-.832 2.776-2.017 3.811-3.568a1.5 1.5 0 0 0-.488-2.125c-.014-.01-1.54-.937-2.928-3.053s-2.158-4.625-2.308-7.472C8.671 11.8 12 13.849 15.75 14.48A1.5 1.5 0 0 0 17.5 13v-2a3.5 3.5 0 0 1 1.051-2.509 3.38 3.38 0 0 1 2.432-.99 3.6 3.6 0 0 1 3.227 2.1 1.5 1.5 0 0 0 1.375.9h.79z"/></svg>