<svg xmlns="http://www.w3.org/2000/svg" width="32" height="32" fill="none" viewBox="0 0 32 32"><path fill="#000" d="M26 3.5H6A2.5 2.5 0 0 0 3.5 6v18A2.5 2.5 0 0 0 6 26.5h1.5V30a1.5 1.5 0 0 0 2.46 1.152l5.583-4.652h5.095c.585 0 1.151-.206 1.6-.58l5.362-4.468a2.49 2.49 0 0 0 .9-1.92V6A2.5 2.5 0 0 0 26 3.5m-.5 15.798L20.458 23.5h-5.095c-.586 0-1.152.206-1.602.58L10.5 26.798V25A1.5 1.5 0 0 0 9 23.5H6.5v-17h19zM19.5 17v-6a1.5 1.5 0 1 1 3 0v6a1.5 1.5 0 1 1-3 0m-6 0v-6a1.5 1.5 0 1 1 3 0v6a1.5 1.5 0 1 1-3 0"/></svg>