<svg xmlns="http://www.w3.org/2000/svg" width="32" height="32" fill="none" viewBox="0 0 32 32"><path fill="#000" d="M30.491 15.788A14.554 14.554 0 0 0 6.125 6.35 14.43 14.43 0 0 0 1.5 15.788 2.5 2.5 0 0 0 4 18.5h10.5V25a4.5 4.5 0 0 0 9 0 1.5 1.5 0 1 0-3 0 1.5 1.5 0 1 1-3 0v-6.5H28a2.5 2.5 0 0 0 2.5-2.712zm-17.94-.288c.334-4.916 2.26-7.939 3.449-9.359 1.19 1.424 3.115 4.445 3.449 9.36zM8.164 8.558a11.5 11.5 0 0 1 4.211-2.477c-1.275 2.075-2.576 5.18-2.83 9.42h-4.99a11.45 11.45 0 0 1 3.609-6.943M22.455 15.5c-.25-4.24-1.555-7.344-2.831-9.419a11.52 11.52 0 0 1 7.821 9.42z"/></svg>