<svg xmlns="http://www.w3.org/2000/svg" width="32" height="32" fill="none" viewBox="0 0 32 32"><path fill="#000" d="M22.25 9.75a10.5 10.5 0 1 0-12.5 12.5 10.499 10.499 0 0 0 17.682 5.182A10.5 10.5 0 0 0 22.25 9.75M27.5 20q-.001.417-.047.831l-5.5-5.5c.261-.783.43-1.594.5-2.417A7.51 7.51 0 0 1 27.5 20m-9.25-3.867-2.383-2.383a7.45 7.45 0 0 1 3.613-1.226 7.45 7.45 0 0 1-1.23 3.609m-4.5-.265 2.383 2.382a7.45 7.45 0 0 1-3.613 1.226 7.45 7.45 0 0 1 1.23-3.608m5.337-6.326c-.822.07-1.634.239-2.417.5l-5.5-5.5q.414-.044.83-.042a7.51 7.51 0 0 1 7.084 5.042zM8.024 5.645l5.841 5.841a10.6 10.6 0 0 0-2.375 2.375L5.645 8.024a7.56 7.56 0 0 1 2.379-2.379M4.5 12q0-.417.047-.831l5.5 5.5c-.261.783-.43 1.594-.5 2.417A7.51 7.51 0 0 1 4.5 12m8.416 10.458c.823-.07 1.635-.239 2.418-.5l5.5 5.5q-.416.043-.834.042a7.51 7.51 0 0 1-7.084-5.042m11.06 3.897-5.841-5.841a10.6 10.6 0 0 0 2.375-2.375l5.841 5.841a7.56 7.56 0 0 1-2.375 2.375"/></svg>