<svg xmlns="http://www.w3.org/2000/svg" width="32" height="32" fill="none" viewBox="0 0 32 32"><path fill="#000" d="m31.4 14.8-6-4.5a1.5 1.5 0 0 0-2.4 1.2v3H9.5v-5h3.258a4.5 4.5 0 1 0 0-3H9A2.5 2.5 0 0 0 6.5 9v5.5h-5a1.5 1.5 0 1 0 0 3h5V23A2.5 2.5 0 0 0 9 25.5h3.5v.5a2.5 2.5 0 0 0 2.5 2.5h4a2.5 2.5 0 0 0 2.5-2.5v-4a2.5 2.5 0 0 0-2.5-2.5h-4a2.5 2.5 0 0 0-2.5 2.5v.5h-3v-5H23v3a1.5 1.5 0 0 0 2.4 1.2l6-4.5a1.5 1.5 0 0 0 0-2.4M17 6.5a1.5 1.5 0 1 1 0 3 1.5 1.5 0 0 1 0-3m-1.5 16h3v3h-3zm10.5-5v-3l2 1.5z"/></svg>