<svg xmlns="http://www.w3.org/2000/svg" width="32" height="32" fill="none" viewBox="0 0 32 32"><path fill="#000" d="M20.5 7A1.5 1.5 0 0 1 22 5.5h1.5V4a1.5 1.5 0 1 1 3 0v1.5H28a1.5 1.5 0 0 1 0 3h-1.5V10a1.5 1.5 0 0 1-3 0V8.5H22A1.5 1.5 0 0 1 20.5 7m8.814 6.75A13.484 13.484 0 1 1 18.25 2.686a1.5 1.5 0 0 1-.5 2.959A10.6 10.6 0 0 0 16 5.5a10.492 10.492 0 0 0-8.244 16.993 10.4 10.4 0 0 1 3.625-2.928 6.5 6.5 0 1 1 9.25 0 10.4 10.4 0 0 1 3.625 2.927A10.44 10.44 0 0 0 26.5 16c0-.586-.049-1.172-.145-1.75a1.5 1.5 0 1 1 2.959-.5M16 18.5a3.5 3.5 0 1 0 0-7 3.5 3.5 0 0 0 0 7m0 8c2.17.002 4.285-.673 6.054-1.929a7.5 7.5 0 0 0-12.108 0A10.44 10.44 0 0 0 16 26.5"/></svg>