<svg xmlns="http://www.w3.org/2000/svg" width="32" height="32" fill="none" viewBox="0 0 32 32"><path fill="#000" d="m31.561 17.561-2.5 2.5a1.5 1.5 0 0 1-2.125 0l-2.5-2.5a1.5 1.5 0 0 1 2.04-2.196A10.501 10.501 0 0 0 7.802 9.437a1.5 1.5 0 0 1-2.34-1.875A13.5 13.5 0 0 1 29.485 15.4a1.5 1.5 0 0 1 2.075 2.164zm-5.022 6.875A13.5 13.5 0 0 1 2.514 16.6a1.5 1.5 0 0 1-2.075-2.164l2.5-2.5a1.5 1.5 0 0 1 2.125 0l2.5 2.5a1.5 1.5 0 0 1-2.04 2.197c.127 2.135.907 4.18 2.235 5.857a10.4 10.4 0 0 1 3.625-2.927 6.5 6.5 0 1 1 9.25 0A10.4 10.4 0 0 1 24.25 22.5a1.5 1.5 0 0 1 2.287 1.936zM15.999 18.5a3.5 3.5 0 1 0 0-7 3.5 3.5 0 0 0 0 7m0 8a10.45 10.45 0 0 0 6.06-1.921 7.5 7.5 0 0 0-12.113-.008A10.44 10.44 0 0 0 16 26.5"/></svg>