<svg xmlns="http://www.w3.org/2000/svg" width="32" height="32" fill="none" viewBox="0 0 32 32"><path fill="#000" d="M15.648 19.617a8 8 0 1 0-10.296 0 12.5 12.5 0 0 0-4.936 4 1.5 1.5 0 1 0 2.419 1.775 9.5 9.5 0 0 1 15.33 0 1.5 1.5 0 1 0 2.42-1.775 12.54 12.54 0 0 0-4.937-4M5.5 13.5a5 5 0 1 1 10 0 5 5 0 0 1-10 0m25.762 12.209a1.5 1.5 0 0 1-2.097-.322A9.54 9.54 0 0 0 21.5 21.5a1.5 1.5 0 1 1 0-3 5 5 0 1 0-1.856-9.645 1.5 1.5 0 1 1-1.115-2.785 8 8 0 0 1 8.125 13.547 12.5 12.5 0 0 1 4.936 4 1.5 1.5 0 0 1-.328 2.092"/></svg>