<svg xmlns="http://www.w3.org/2000/svg" width="32" height="32" fill="none" viewBox="0 0 32 32"><path fill="#000" d="M21.196 5.764a1.5 1.5 0 0 1 1.89-.963l.414.134V4.5a1.5 1.5 0 1 1 3 0v.435l.414-.134a1.5 1.5 0 1 1 .927 2.853l-.414.135.25.352a1.5 1.5 0 1 1-2.426 1.763L25 9.553l-.25.35a1.5 1.5 0 1 1-2.426-1.762l.25-.352-.414-.135a1.5 1.5 0 0 1-.964-1.89M29.5 16A13.5 13.5 0 1 1 18.25 2.686a1.5 1.5 0 1 1-.5 2.959A10.6 10.6 0 0 0 16 5.5a10.493 10.493 0 0 0-8.244 16.993 10.4 10.4 0 0 1 3.625-2.928 6.5 6.5 0 1 1 9.25 0c1.414.69 2.653 1.69 3.625 2.927A10.45 10.45 0 0 0 26.5 16c0-.586-.049-1.172-.145-1.75a1.5 1.5 0 0 1 2.959-.5q.186 1.117.186 2.25M16 18.5a3.5 3.5 0 1 0 0-7 3.5 3.5 0 0 0 0 7m0 8c2.17.002 4.285-.673 6.054-1.929a7.5 7.5 0 0 0-12.108 0A10.44 10.44 0 0 0 16 26.5"/></svg>