<svg xmlns="http://www.w3.org/2000/svg" width="32" height="32" fill="none" viewBox="0 0 32 32"><path fill="#000" d="M19 10a1.5 1.5 0 0 1 1.5-1.5h10a1.5 1.5 0 1 1 0 3h-10A1.5 1.5 0 0 1 19 10m11.5 4.5h-10a1.5 1.5 0 1 0 0 3h10a1.5 1.5 0 1 0 0-3m0 6h-7a1.5 1.5 0 1 0 0 3h7a1.5 1.5 0 1 0 0-3m-11.047 3.125a1.499 1.499 0 1 1-2.905.75C15.833 21.596 13.018 19.5 10 19.5c-3.017 0-5.832 2.095-6.547 4.875a1.5 1.5 0 0 1-2.905-.75c.672-2.613 2.51-4.77 4.888-6a6.5 6.5 0 1 1 9.125 0c2.38 1.231 4.22 3.389 4.892 6M10 16.5a3.5 3.5 0 1 0 0-7 3.5 3.5 0 0 0 0 7"/></svg>