<svg xmlns="http://www.w3.org/2000/svg" width="32" height="32" fill="none" viewBox="0 0 32 32"><path fill="#000" d="M20.547 22.638a6.5 6.5 0 1 0-9.095 0 9.5 9.5 0 0 0-3.75 3.61 1.5 1.5 0 0 0 2.598 1.5 6.625 6.625 0 0 1 11.402 0 1.5 1.5 0 1 0 2.598-1.5 9.5 9.5 0 0 0-3.753-3.61M12.5 18a3.5 3.5 0 1 1 7.001 0 3.5 3.5 0 0 1-7.001 0M30.9 19.199A1.5 1.5 0 0 1 28.8 18.9c-1.041-1.386-2.482-2.449-3.666-2.705a1.5 1.5 0 0 1-.228-2.864 2.5 2.5 0 1 0-3.097-3.537 1.5 1.5 0 1 1-2.626-1.45 5.5 5.5 0 1 1 9.16 6.044c1.101.733 2.067 1.65 2.857 2.71a1.5 1.5 0 0 1-.299 2.1m-24.035-3c-1.185.256-2.625 1.318-3.666 2.706A1.502 1.502 0 0 1 .8 17.099a11.6 11.6 0 0 1 2.856-2.712 5.5 5.5 0 1 1 9.16-6.043 1.5 1.5 0 1 1-2.625 1.45 2.5 2.5 0 1 0-3.097 3.537 1.5 1.5 0 0 1-.228 2.864z"/></svg>