<svg xmlns="http://www.w3.org/2000/svg" width="32" height="32" fill="none" viewBox="0 0 32 32"><path fill="#000" d="m31.639 14.023-5.696-6.637a2.5 2.5 0 0 0-1.91-.886H4A2.5 2.5 0 0 0 1.5 9v14A2.5 2.5 0 0 0 4 25.5h1.758a4.5 4.5 0 0 0 8.485 0h5.015a4.5 4.5 0 0 0 8.485 0H29.5A2.5 2.5 0 0 0 32 23v-8c0-.358-.128-.705-.361-.977m-4.403-.523H22v-4h1.802zM13 13.5v-4h6v4zm-3-4v4H4.5v-4zm0 16a1.5 1.5 0 1 1 0-3 1.5 1.5 0 0 1 0 3m13.5 0a1.5 1.5 0 1 1 0-3 1.5 1.5 0 0 1 0 3m4.243-3a4.5 4.5 0 0 0-8.485 0h-5.015a4.5 4.5 0 0 0-8.485 0H4.5v-6H29v6z"/></svg>