<svg xmlns="http://www.w3.org/2000/svg" width="32" height="32" fill="none" viewBox="0 0 32 32"><path fill="#000" d="M27 4.5H5A2.5 2.5 0 0 0 2.5 7v18A2.5 2.5 0 0 0 5 27.5h22a2.5 2.5 0 0 0 2.5-2.5V7A2.5 2.5 0 0 0 27 4.5m-.5 20h-21v-17h21zm-16.321-3.744C11.75 21.881 13.82 22.5 16 22.5s4.25-.619 5.821-1.744C23.524 19.54 24.5 17.806 24.5 16s-.976-3.54-2.679-4.75C20.25 10.125 18.18 9.5 16 9.5s-4.25.625-5.821 1.75C8.476 12.46 7.5 14.194 7.5 16s.976 3.54 2.679 4.756M16 12.5c2.981 0 5.5 1.602 5.5 3.5s-2.519 3.5-5.5 3.5-5.5-1.602-5.5-3.5 2.519-3.5 5.5-3.5"/></svg>