<svg xmlns="http://www.w3.org/2000/svg" width="32" height="32" fill="none" viewBox="0 0 32 32"><path fill="#000" d="m15.39 12.565-3.25 8a1.5 1.5 0 0 1-2.78 0l-3.25-8a1.5 1.5 0 0 1 2.78-1.125l1.86 4.575 1.86-4.58a1.5 1.5 0 0 1 2.78 1.125zM32 16a10.51 10.51 0 0 1-10.5 10.5h-11a10.5 10.5 0 1 1 0-21h11A10.51 10.51 0 0 1 32 16m-3 0a7.51 7.51 0 0 0-7.5-7.5h-11a7.5 7.5 0 0 0 0 15h11A7.51 7.51 0 0 0 29 16m-5.25 1.405 1.058 1.851a1.504 1.504 0 1 1-2.61 1.494l-1.283-2.25H20V20a1.5 1.5 0 1 1-3 0v-8a1.5 1.5 0 0 1 1.5-1.5H21a4 4 0 0 1 2.75 6.905M20 15.5h1a1 1 0 0 0 0-2h-1z"/></svg>