<svg xmlns="http://www.w3.org/2000/svg" width="32" height="32" fill="none" viewBox="0 0 32 32"><path fill="#000" d="M16 2.5A13.5 13.5 0 1 0 29.5 16 13.515 13.515 0 0 0 16 2.5m-3.896 3.75c.72-.291 1.472-.5 2.24-.625a10.5 10.5 0 0 1 5.813 8.875h-3.29zm4.762 11.25h9.525c-.11.77-.307 1.524-.586 2.25a10.51 10.51 0 0 1-10.585.599zm9.525-3h-3.23a13.4 13.4 0 0 0-1.8-6.214 13.6 13.6 0 0 0-1.424-2.017 10.53 10.53 0 0 1 6.454 8.231M9.51 7.756l1.616 2.793a13.4 13.4 0 0 0-4.481 4.665c-.413.717-.76 1.47-1.035 2.25a10.46 10.46 0 0 1 3.9-9.708M7.849 22.61a10.5 10.5 0 0 1 4.776-9.459L14.268 16l-4.76 8.25a10.6 10.6 0 0 1-1.66-1.641m4.25 3.138 1.615-2.796A13.4 13.4 0 0 0 20 24.5q1.234 0 2.449-.223a10.47 10.47 0 0 1-10.345 1.473z"/></svg>