<svg xmlns="http://www.w3.org/2000/svg" width="32" height="32" fill="none" viewBox="0 0 32 32"><path fill="#000" d="M30.033 23.263 19.1 4.278a3.592 3.592 0 0 0-6.202 0L1.968 23.263a3.43 3.43 0 0 0 0 3.463 3.54 3.54 0 0 0 3.1 1.774h21.863a3.54 3.54 0 0 0 3.1-1.774 3.43 3.43 0 0 0 .002-3.463m-2.6 1.962a.56.56 0 0 1-.5.275H5.069a.56.56 0 0 1-.5-.275.45.45 0 0 1 0-.466L15.5 5.775a.596.596 0 0 1 1 0l10.93 18.984a.45.45 0 0 1 .003.466M14.5 17v-4a1.5 1.5 0 1 1 3 0v4a1.5 1.5 0 0 1-3 0m3.5 5a2 2 0 1 1-4 0 2 2 0 0 1 4 0"/></svg>