<svg xmlns="http://www.w3.org/2000/svg" width="32" height="32" fill="none" viewBox="0 0 32 32"><path fill="#000" d="M3.5 9a1.5 1.5 0 0 1 .439-1.061c.562-.519 1.2-.95 1.89-1.28a11.6 11.6 0 0 1 5.17-1.159c2.455 0 4.25 1.196 5.833 2.25C18.24 8.688 19.457 9.5 21 9.5c3.262 0 4.885-1.509 4.952-1.572A1.45 1.45 0 0 1 27 7.5a1.5 1.5 0 0 1 1.061 2.561c-.562.519-1.2.95-1.89 1.28A11.6 11.6 0 0 1 21 12.501c-2.454 0-4.25-1.197-5.833-2.25C13.761 9.312 12.542 8.5 11 8.5c-3.263 0-4.875 1.5-4.939 1.56A1.5 1.5 0 0 1 3.5 9.001M27 21.5a1.45 1.45 0 0 0-1.048.428c-.067.063-1.69 1.572-4.952 1.572-1.546 0-2.761-.81-4.168-1.75C15.25 20.694 13.457 19.5 11 19.5c-1.79-.018-3.56.379-5.171 1.159-.69.33-1.328.761-1.89 1.28a1.503 1.503 0 0 0 2.125 2.125C6.124 24 7.737 22.5 11 22.5c1.546 0 2.761.81 4.167 1.75 1.584 1.056 3.375 2.25 5.833 2.25 1.79.018 3.56-.379 5.171-1.159a7.7 7.7 0 0 0 1.89-1.28A1.5 1.5 0 0 0 27 21.501m0-7a1.45 1.45 0 0 0-1.048.428c-.067.063-1.69 1.572-4.952 1.572-1.546 0-2.761-.81-4.168-1.75C15.25 13.694 13.457 12.5 11 12.5c-1.79-.018-3.56.379-5.171 1.159-.69.33-1.328.761-1.89 1.28a1.503 1.503 0 0 0 2.125 2.125C6.124 17 7.737 15.5 11 15.5c1.546 0 2.761.81 4.167 1.75 1.584 1.056 3.375 2.25 5.833 2.25 1.79.018 3.56-.379 5.171-1.159a7.7 7.7 0 0 0 1.89-1.28A1.5 1.5 0 0 0 27 14.501"/></svg>