<svg xmlns="http://www.w3.org/2000/svg" width="32" height="32" fill="none" viewBox="0 0 32 32"><path fill="#000" d="m27.11 25.992-20-22a1.5 1.5 0 1 0-2.22 2.017l1.851 2.036A10.5 10.5 0 0 0 14.5 23.392V24.5H4a1.5 1.5 0 0 0 0 3h20.428l.462.509a1.5 1.5 0 0 0 2.22-2.018M8.5 13a7.5 7.5 0 0 1 .44-2.536l1.614 1.775A5.5 5.5 0 0 0 16 18.5q.12.002.24-.006l1.613 1.774A7.5 7.5 0 0 1 8.5 13m9 11.5v-1.108a10.6 10.6 0 0 0 2.552-.704L21.7 24.5zM11.111 5.294a1.5 1.5 0 0 1 .797-1.966 10.5 10.5 0 0 1 13.33 14.665 1.5 1.5 0 1 1-2.637-1.428A7.5 7.5 0 0 0 13.078 6.09a1.5 1.5 0 0 1-1.967-.796M21.5 12.955a1.5 1.5 0 0 1-1.488 1.513H20a1.5 1.5 0 0 1-1.5-1.489 2.5 2.5 0 0 0-2.242-2.466 1.5 1.5 0 1 1 .302-2.984 5.49 5.49 0 0 1 4.94 5.426"/></svg>