<svg xmlns="http://www.w3.org/2000/svg" width="32" height="32" fill="none" viewBox="0 0 32 32"><path fill="#000" d="M23.413 19.883A4.51 4.51 0 0 1 19 23.5 10.51 10.51 0 0 1 8.5 13a4.51 4.51 0 0 1 3.618-4.413 1.5 1.5 0 0 1 1.632.8l1.435 2.875a1.5 1.5 0 0 1-.094 1.5l-1.065 1.598a5.57 5.57 0 0 0 2.614 2.614l1.598-1.065a1.5 1.5 0 0 1 1.5-.094l2.875 1.435a1.5 1.5 0 0 1 .8 1.633M29.5 16A13.5 13.5 0 0 1 9.846 28.019l-4.053 1.356a2.5 2.5 0 0 1-3.168-3.168l1.351-4.053A13.5 13.5 0 1 1 29.5 16m-3 0A10.5 10.5 0 1 0 6.91 21.258a1.5 1.5 0 0 1 .125 1.226l-1.241 3.723 3.723-1.24q.232-.078.475-.078c.264 0 .522.07.75.202A10.5 10.5 0 0 0 26.501 16"/></svg>