<svg xmlns="http://www.w3.org/2000/svg" width="32" height="32" fill="none" viewBox="0 0 32 32"><path fill="#000" d="M22 10.5a4.5 4.5 0 1 0 0-9 4.5 4.5 0 0 0 0 9m0-6a1.5 1.5 0 1 1 0 3 1.5 1.5 0 0 1 0-3m3.66 12.049a1.5 1.5 0 0 1 .311 1.25l-2 10a1.5 1.5 0 0 1-2.307.948 1.5 1.5 0 0 1-.637-1.54L22.67 19H15.5a1.5 1.5 0 0 1-1.3-2.25l2.24-3.9a9.51 9.51 0 0 0-9.985 1.319 1.5 1.5 0 0 1-1.91-2.312 12.5 12.5 0 0 1 14.774-.834 1.5 1.5 0 0 1 .481 2L18.093 16H24.5a1.5 1.5 0 0 1 1.16.549m-5.184 5.565a8 8 0 1 1-9.205-8.52 1.5 1.5 0 1 1 .458 2.965 5 5 0 1 0 5.756 5.327 1.498 1.498 0 0 1 2.177-1.236 1.5 1.5 0 0 1 .814 1.464"/></svg>