<svg xmlns="http://www.w3.org/2000/svg" width="32" height="32" fill="none" viewBox="0 0 32 32"><path fill="#000" d="M31.893 23.442a1.5 1.5 0 0 0-1.95-.835l-1.219.488-3.383-6.766a1.5 1.5 0 0 0-1.34-.83h-9.5v-2H21a1.5 1.5 0 1 0 0-3h-6.5v-.257a4.5 4.5 0 1 0-3 0v.594a9.501 9.501 0 0 0-.261 18.254 9.5 9.5 0 0 0 11.786-6.121 1.502 1.502 0 0 0-1.537-1.965 1.5 1.5 0 0 0-1.312 1.027A6.5 6.5 0 1 1 11.5 14v3a1.5 1.5 0 0 0 1.5 1.5h10.073l3.585 7.171a1.5 1.5 0 0 0 1.898.721l2.5-1a1.5 1.5 0 0 0 .837-1.95M13 4.5a1.5 1.5 0 1 1 0 3 1.5 1.5 0 0 1 0-3"/></svg>