<svg xmlns="http://www.w3.org/2000/svg" width="32" height="32" fill="none" viewBox="0 0 32 32"><path fill="#000" d="M27.11 25.991a1.499 1.499 0 1 1-2.22 2.018l-6.418-7.059a7.01 7.01 0 0 0-6.588.888 1.5 1.5 0 1 1-1.768-2.425 9.9 9.9 0 0 1 5.24-1.89l-2.417-2.66a13 13 0 0 0-5.008 2.443 1.5 1.5 0 0 1-1.862-2.35A16 16 0 0 1 10.7 12.4l-2.164-2.375a18.9 18.9 0 0 0-4.585 2.785A1.502 1.502 0 0 1 2.05 10.49 22 22 0 0 1 6.424 7.69L4.89 6.01A1.5 1.5 0 1 1 7.11 3.99zM16 23.501a2 2 0 1 0 0 3.999 2 2 0 0 0 0-4m8.069-6.195a1.5 1.5 0 0 0 1.862-2.35 15.9 15.9 0 0 0-4.681-2.575 1.5 1.5 0 0 0-.984 2.834 13 13 0 0 1 3.803 2.091m5.882-6.817a22.04 22.04 0 0 0-15.434-4.94 1.503 1.503 0 1 0 .2 3 19.03 19.03 0 0 1 13.331 4.265 1.5 1.5 0 0 0 1.903-2.319z"/></svg>