<svg xmlns="http://www.w3.org/2000/svg" width="32" height="32" fill="none" viewBox="0 0 32 32"><path fill="#000" d="M18 25.5a2 2 0 1 1-4.001 0 2 2 0 0 1 4 0M27.125 10l1.94-1.939a1.503 1.503 0 1 0-2.125-2.125L25 7.875 23.06 5.939a1.503 1.503 0 1 0-2.125 2.125L22.875 10l-1.936 1.939a1.503 1.503 0 0 0 2.125 2.125L25 12.124l1.939 1.94a1.501 1.501 0 0 0 2.45-1.637 1.5 1.5 0 0 0-.325-.487zm-5.238 9.412a10 10 0 0 0-11.766 0 1.5 1.5 0 0 0 1.766 2.425 7 7 0 0 1 8.234 0 1.5 1.5 0 1 0 1.766-2.425M16.464 8.5h.037a1.5 1.5 0 0 0 .035-3H16a22.03 22.03 0 0 0-13.951 4.989 1.5 1.5 0 0 0 1.903 2.318A19.03 19.03 0 0 1 16 8.5zm-.015 6a1.501 1.501 0 0 0 .102-3H16a15.83 15.83 0 0 0-9.931 3.455 1.5 1.5 0 0 0 1.862 2.351A12.86 12.86 0 0 1 16 14.5q.226-.002.449.007z"/></svg>