<svg xmlns="http://www.w3.org/2000/svg" width="32" height="32" fill="none" viewBox="0 0 32 32"><path fill="#000" d="M18 25.5a2 2 0 1 1-4 0 2 2 0 0 1 4 0M29.95 10.49a22 22 0 0 0-27.902 0 1.5 1.5 0 1 0 1.903 2.319 19 19 0 0 1 24.095 0 1.5 1.5 0 0 0 1.904-2.32m-4.02 4.466a16 16 0 0 0-19.862 0 1.5 1.5 0 0 0 1.862 2.351 13 13 0 0 1 16.138 0 1.5 1.5 0 0 0 1.862-2.35m-4.047 4.458a10.01 10.01 0 0 0-11.768 0 1.5 1.5 0 1 0 1.768 2.425 7 7 0 0 1 8.232 0 1.5 1.5 0 0 0 2.164-1.995 1.5 1.5 0 0 0-.396-.43"/></svg>