<svg xmlns="http://www.w3.org/2000/svg" width="32" height="32" fill="none" viewBox="0 0 32 32"><path fill="#000" d="M13.461 6.485a1.5 1.5 0 0 0-1.23-.325l-7.5 1.364A1.5 1.5 0 0 0 3.5 9v4.5A1.5 1.5 0 0 0 5 15h7.5a1.5 1.5 0 0 0 1.5-1.5V7.636a1.5 1.5 0 0 0-.539-1.151M11 12H6.5v-1.75l4.5-.818zm16.961-8.151a1.5 1.5 0 0 0-1.23-.325l-9.5 1.726A1.5 1.5 0 0 0 16 6.727V13.5a1.5 1.5 0 0 0 1.5 1.5H27a1.5 1.5 0 0 0 1.5-1.5V5a1.5 1.5 0 0 0-.539-1.151m-2.461 8.15H19V7.98l6.5-1.182zm-13 5H5a1.5 1.5 0 0 0-1.5 1.5V23a1.5 1.5 0 0 0 1.231 1.477l7.5 1.364A1.5 1.5 0 0 0 14 24.364V18.5a1.5 1.5 0 0 0-1.5-1.5M11 22.567l-4.5-.816V20H11zM27 17h-9.5a1.5 1.5 0 0 0-1.5 1.5v6.772a1.5 1.5 0 0 0 1.231 1.478l9.5 1.727A1.5 1.5 0 0 0 28.5 27v-8.5A1.5 1.5 0 0 0 27 17m-1.5 8.202-6.5-1.18V20h6.5z"/></svg>