<svg xmlns="http://www.w3.org/2000/svg" width="32" height="32" fill="none" viewBox="0 0 32 32"><path fill="#000" d="M3 13a1.5 1.5 0 1 1 0-3h12a1.5 1.5 0 0 0 0-3 1.88 1.88 0 0 0-1.283.556 1.5 1.5 0 0 1-2.125-2.112A4.92 4.92 0 0 1 15 4a4.5 4.5 0 1 1 0 9zm23-4.5a4.92 4.92 0 0 0-3.413 1.444 1.5 1.5 0 0 0 2.125 2.112A1.88 1.88 0 0 1 26 11.5a1.5 1.5 0 1 1 0 3H4a1.5 1.5 0 1 0 0 3h22a4.5 4.5 0 1 0 0-9M19 19H5a1.5 1.5 0 1 0 0 3h14a1.5 1.5 0 1 1 0 3 1.9 1.9 0 0 1-1.284-.556 1.498 1.498 0 0 0-2.505.443 1.5 1.5 0 0 0 .38 1.67A4.92 4.92 0 0 0 19 28a4.5 4.5 0 1 0 0-9"/></svg>