<svg xmlns="http://www.w3.org/2000/svg" width="32" height="32" fill="none" viewBox="0 0 32 32"><path fill="#000" d="m26.146 11.818-2.722-9.242A1.5 1.5 0 0 0 21.986 1.5H10.014a1.5 1.5 0 0 0-1.438 1.076l-2.722 9.242a8.43 8.43 0 0 0 2.316 8.59A11.4 11.4 0 0 0 14.5 23.4v4.1H11a1.5 1.5 0 1 0 0 3h10a1.5 1.5 0 1 0 0-3h-3.5v-4.1a11.4 11.4 0 0 0 6.331-2.992 8.43 8.43 0 0 0 2.315-8.59M11.135 4.5h9.73l2.298 7.801c-1.36.35-3.507.375-6.486-1.14-2.842-1.438-5.187-1.786-7.022-1.633zM16 20.5a8.44 8.44 0 0 1-5.783-2.284 5.44 5.44 0 0 1-1.5-5.486c2.306-.666 4.83.207 6.61 1.109 1.443.731 3.772 1.66 6.282 1.66q.901.002 1.786-.169a5.4 5.4 0 0 1-1.609 2.886A8.44 8.44 0 0 1 16 20.5"/></svg>