<svg xmlns="http://www.w3.org/2000/svg" width="32" height="32" fill="none" viewBox="0 0 32 32"><path fill="#000" d="M28.809 8.437a1.5 1.5 0 0 0-2.408-.54l-4.847 4.478-1.585-.34-.344-1.589 4.474-4.847a1.5 1.5 0 0 0-.54-2.408 9.5 9.5 0 0 0-12.404 12.284L3.896 21.75a1 1 0 0 0-.08.075 4.5 4.5 0 0 0 6.364 6.364q.039-.04.075-.08l6.27-7.26A9.5 9.5 0 0 0 28.809 8.438M19.999 18.5a6.5 6.5 0 0 1-3.14-.808 1.5 1.5 0 0 0-1.86.333l-6.973 8.069a1.503 1.503 0 1 1-2.125-2.126L13.975 17a1.5 1.5 0 0 0 .331-1.861A6.5 6.5 0 0 1 20 5.499h.111l-3.215 3.485a1.5 1.5 0 0 0-.364 1.33l.708 3.294a1.5 1.5 0 0 0 1.151 1.152l3.294.707a1.5 1.5 0 0 0 1.331-.364L26.5 11.89V12A6.507 6.507 0 0 1 20 18.5"/></svg>