<svg xmlns="http://www.w3.org/2000/svg" width="32" height="32" fill="none" viewBox="0 0 32 32"><path fill="#000" d="m21.311 14.739-7-4.5A1.5 1.5 0 0 0 12 11.5v9a1.5 1.5 0 0 0 2.311 1.261l7-4.5a1.5 1.5 0 0 0 0-2.522M15 17.75v-3.5L17.726 16zm14.776-9.187A3.5 3.5 0 0 0 27.66 6.17C23.3 4.489 16.411 4.5 16 4.5S8.7 4.489 4.34 6.173a3.5 3.5 0 0 0-2.116 2.392C1.894 9.84 1.5 12.165 1.5 16s.394 6.16.724 7.435a3.5 3.5 0 0 0 2.116 2.393C8.526 27.444 15.045 27.5 15.921 27.5h.158c.875 0 7.395-.056 11.581-1.672a3.5 3.5 0 0 0 2.116-2.393c.33-1.275.724-3.6.724-7.435s-.394-6.16-.724-7.435zm-2.901 14.12a.5.5 0 0 1-.293.346C22.848 24.47 16.535 24.5 16.04 24.5h-.049c-.066 0-6.705.021-10.57-1.471a.5.5 0 0 1-.296-.346C4.89 21.778 4.5 19.705 4.5 16s.394-5.777.625-6.682a.5.5 0 0 1 .293-.347C9.286 7.48 15.924 7.5 15.99 7.5h.019c.067 0 6.705-.021 10.57 1.471a.5.5 0 0 1 .296.347c.235.905.625 2.977.625 6.682s-.394 5.778-.625 6.683"/></svg>