<svg xmlns="http://www.w3.org/2000/svg" width="32" height="32" fill="none" viewBox="0 0 32 32"><path fill="#000" d="M21.5 19.5A1.5 1.5 0 0 1 20 21h-8a1.5 1.5 0 1 1 0-3h8a1.5 1.5 0 0 1 1.5 1.5M20 13h-8a1.5 1.5 0 0 0 0 3h8a1.5 1.5 0 1 0 0-3m7.5-7v21a2.5 2.5 0 0 1-2.5 2.5H7A2.5 2.5 0 0 1 4.5 27V6A2.5 2.5 0 0 1 7 3.5h4.316a6.486 6.486 0 0 1 9.368 0H25A2.5 2.5 0 0 1 27.5 6M16 4.5a3.5 3.5 0 0 0-3.464 3h6.928A3.5 3.5 0 0 0 16 4.5m8.5 2h-2.176c.116.491.176.995.176 1.5v1a1.5 1.5 0 0 1-1.5 1.5H11A1.5 1.5 0 0 1 9.5 9V8c0-.505.06-1.009.176-1.5H7.5v20h17z"/></svg>