<svg xmlns="http://www.w3.org/2000/svg" width="32" height="32" fill="none" viewBox="0 0 32 32"><path fill="#000" fill-rule="evenodd" d="M4 9.5a5.5 5.5 0 1 1 11 0v3.3a2.2 2.2 0 0 1-2.2 2.2H9.5A5.5 5.5 0 0 1 4 9.5m8 0V12H9.5A2.5 2.5 0 1 1 12 9.5M4 22.5A5.5 5.5 0 0 1 9.5 17h3.3a2.2 2.2 0 0 1 2.2 2.2v3.3a5.5 5.5 0 1 1-11 0M9.5 20H12v2.5A2.5 2.5 0 1 1 9.5 20M22.5 4A5.5 5.5 0 0 0 17 9.5v3.3a2.2 2.2 0 0 0 2.2 2.2h3.3a5.5 5.5 0 1 0 0-11M20 12h2.5A2.5 2.5 0 1 0 20 9.5zM17 19.2a2.2 2.2 0 0 1 2.2-2.2h3.3a5.5 5.5 0 1 1-5.5 5.5zm3 3.3V20h2.5a2.5 2.5 0 1 1-2.5 2.5" clip-rule="evenodd"/></svg>