<svg xmlns="http://www.w3.org/2000/svg" width="32" height="32" fill="none" viewBox="0 0 32 32"><path fill="#000" fill-rule="evenodd" d="M18.5 5A1.5 1.5 0 0 1 20 3.5h4A4.5 4.5 0 0 1 28.5 8v4a1.5 1.5 0 0 1-3 0V8A1.5 1.5 0 0 0 24 6.5h-4A1.5 1.5 0 0 1 18.5 5m-.025 5.232 3.364 3.364a3.5 3.5 0 0 1 0 4.95l-3.364 3.364a3.5 3.5 0 0 1-4.95 0l-3.364-3.364a3.5 3.5 0 0 1 0-4.95l3.364-3.364a3.5 3.5 0 0 1 4.95 0m-2.121 2.122a.5.5 0 0 0-.708 0l-3.363 3.364a.5.5 0 0 0 0 .707l3.363 3.364a.5.5 0 0 0 .708 0l3.364-3.364a.5.5 0 0 0 0-.708zM12 28.5a1.5 1.5 0 0 0 0-3H8A1.5 1.5 0 0 1 6.5 24v-4a1.5 1.5 0 0 0-3 0v4A4.5 4.5 0 0 0 8 28.5zm-7-15A1.5 1.5 0 0 1 3.5 12V8A4.5 4.5 0 0 1 8 3.5h4a1.5 1.5 0 0 1 0 3H8A1.5 1.5 0 0 0 6.5 8v4A1.5 1.5 0 0 1 5 13.5M28.5 20a1.5 1.5 0 0 0-3 0v4a1.5 1.5 0 0 1-1.5 1.5h-4a1.5 1.5 0 0 0 0 3h4a4.5 4.5 0 0 0 4.5-4.5z" clip-rule="evenodd"/></svg>