<svg width="32" height="32" viewBox="0 0 32 32" fill="none" xmlns="http://www.w3.org/2000/svg">
<path opacity="0.08" d="M21.3708 17.4693L11.8337 26.6936C11.157 27.3481 10 26.8846 10 25.959L10 6.04101C10 5.11542 11.157 4.65189 11.8337 5.30638L21.3708 14.5307C22.2097 15.3422 22.2097 16.6578 21.3708 17.4693Z" fill="black"/>
<path fill-rule="evenodd" clip-rule="evenodd" d="M12.629 27.3893C11.2898 28.6939 9 27.7699 9 25.9251L9 6.07494C9 4.23006 11.2898 3.30615 12.629 4.61067L22.0661 13.8036C23.3113 15.0166 23.3113 16.9834 22.0661 18.1964L12.629 27.3893ZM11.1258 6.07494L11.1258 25.9251L20.5629 16.7321C20.978 16.3278 20.978 15.6722 20.5629 15.2679L11.1258 6.07494Z" fill="black"/>
</svg>
