<svg width="32" height="32" viewBox="0 0 32 32" fill="none" xmlns="http://www.w3.org/2000/svg">
<path opacity="0.08" d="M14.5308 21.3708L5.30649 11.8337C4.65199 11.157 5.11553 10 6.04112 10H25.9591C26.8847 10 27.3482 11.157 26.6937 11.8337L17.4694 21.3708C16.6579 22.2097 15.3423 22.2097 14.5308 21.3708Z" fill="black"/>
<path fill-rule="evenodd" clip-rule="evenodd" d="M4.61072 12.629C3.30619 11.2898 4.23011 9 6.07498 9H25.9251C27.77 9 28.6939 11.2898 27.3894 12.629L18.1964 22.0661C16.9834 23.3113 15.0167 23.3113 13.8036 22.0661L4.61072 12.629ZM25.9251 11.1258H6.07498L15.2679 20.5629C15.6723 20.978 16.3278 20.978 16.7322 20.5629L25.9251 11.1258L26.6572 11.8774L25.9251 11.1258Z" fill="black"/>
</svg>
