<svg width="32" height="32" viewBox="0 0 32 32" fill="none" xmlns="http://www.w3.org/2000/svg">
<path d="M4.55286 21.9036C4.71949 21.3861 5.27309 21.1012 5.78996 21.2678C6.30669 21.4348 6.59126 21.9901 6.42483 22.5076L4.96971 27.0272L6.2702 26.5742L6.27116 26.5732L10.5885 25.0699L10.9727 25.2844C11.3696 25.5049 11.7826 25.7012 12.2079 25.8711C12.7119 26.0729 12.9574 26.6454 12.7563 27.1503C12.5551 27.6554 11.9833 27.9017 11.4789 27.7005C11.1155 27.5553 10.7606 27.3924 10.4147 27.2157L5.61611 28.8883C5.56869 28.9048 5.52067 28.9189 5.473 28.9316C5.46571 28.9336 5.45819 28.9345 5.45091 28.9364C5.41212 28.9463 5.37354 28.9559 5.33469 28.9634C5.31418 28.9674 5.29366 28.9706 5.27322 28.9739C5.25012 28.9776 5.22715 28.9817 5.20406 28.9845C3.87309 29.1537 2.71763 27.9113 3.06123 26.5521C3.07199 26.5091 3.08394 26.466 3.09773 26.4232L3.53282 25.0718L3.53378 25.0699L4.55286 21.9036Z" fill="black"/>
<path d="M18.3262 26.4318C18.8588 26.3265 19.3771 26.6728 19.4826 27.2061C19.5879 27.7396 19.2411 28.2584 18.7084 28.3641C17.901 28.5241 17.0666 28.6075 16.2141 28.6075C15.6688 28.6075 15.1305 28.573 14.6024 28.5065C14.0636 28.4384 13.6817 27.9457 13.7495 27.4062C13.8174 26.8667 14.3095 26.4842 14.8483 26.5521C15.2951 26.6084 15.7511 26.6377 16.2141 26.6377C16.9376 26.6377 17.6439 26.567 18.3262 26.4318Z" fill="black"/>
<path d="M25.2109 21.8228C25.5131 21.371 26.1244 21.2491 26.5757 21.5516C27.0269 21.8542 27.1477 22.4664 26.8456 22.9183C25.9125 24.3141 24.7125 25.5157 23.3188 26.4501C22.8674 26.7527 22.2561 26.6317 21.9539 26.1798C21.6519 25.7279 21.7734 25.1157 22.2248 24.8131C23.4047 24.022 24.4209 23.0044 25.2109 21.8228Z" fill="black"/>
<path d="M27.6006 12.5307C28.1333 12.4253 28.6516 12.7724 28.757 13.3059C28.9167 14.1145 29 14.9499 29 15.8037C29 16.6576 28.9167 17.493 28.757 18.3016C28.6516 18.8351 28.1333 19.1822 27.6006 19.0768C27.0679 18.9711 26.722 18.4523 26.8274 17.9188C26.9623 17.2355 27.0329 16.5284 27.0329 15.8037C27.0329 15.0791 26.9623 14.3719 26.8274 13.6887C26.722 13.1552 27.0679 12.6364 27.6006 12.5307Z" fill="black"/>
<path d="M3.67113 13.3059C3.7766 12.7723 4.29472 12.4251 4.82755 12.5307C5.36008 12.6365 5.70609 13.1553 5.60074 13.6887C5.46579 14.372 5.3952 15.0791 5.3952 15.8037C5.3952 16.2485 5.42214 16.6866 5.47396 17.1166C5.53903 17.6565 5.15439 18.1478 4.61529 18.2131C4.07605 18.2783 3.58646 17.8932 3.5213 17.3532C3.46002 16.8449 3.42813 16.3278 3.42813 15.8037C3.42813 14.9499 3.51139 14.1145 3.67113 13.3059Z" fill="black"/>
<path d="M9.10938 5.15736C9.56074 4.85492 10.1721 4.97569 10.4742 5.42763C10.7761 5.87954 10.6545 6.49179 10.2034 6.79438C9.02343 7.58549 8.00726 8.60311 7.21723 9.78467C6.91513 10.2366 6.30373 10.3582 5.85239 10.0559C5.40101 9.7533 5.28031 9.14116 5.58249 8.68916C6.51566 7.2934 7.71555 6.09181 9.10938 5.15736Z" fill="black"/>
<path d="M21.9539 5.42763C22.2561 4.97573 22.8674 4.85478 23.3188 5.15736C24.7125 6.09182 25.9125 7.29341 26.8456 8.68916C27.1477 9.14109 27.0269 9.75328 26.5757 10.0559C26.1244 10.3583 25.5131 10.2365 25.2109 9.78467C24.4209 8.60311 23.4047 7.5855 22.2248 6.79438C21.7734 6.49181 21.6519 5.87962 21.9539 5.42763Z" fill="black"/>
<path d="M16.2141 3C17.0666 3.00002 17.901 3.08339 18.7084 3.24334C19.2411 3.34904 19.5879 3.86789 19.4826 4.40137C19.3771 4.93472 18.8588 5.28101 18.3262 5.17564C17.6439 5.04052 16.9376 4.96982 16.2141 4.96981C15.4905 4.96981 14.7842 5.04053 14.102 5.17564C13.5692 5.28118 13.0511 4.93478 12.9455 4.40137C12.8401 3.86778 13.1869 3.34892 13.7197 3.24334C14.5271 3.08341 15.3615 3 16.2141 3Z" fill="black"/>
</svg>
