<svg width="32" height="32" viewBox="0 0 32 32" fill="none" xmlns="http://www.w3.org/2000/svg">
<path opacity="0.2" fill-rule="evenodd" clip-rule="evenodd" d="M17.2 4H14.8C12.5268 4 10.9422 4.00156 9.70848 4.10235C8.49814 4.20124 7.80277 4.38559 7.27606 4.65396C6.14708 5.2292 5.2292 6.14708 4.65396 7.27606C4.38559 7.80277 4.20124 8.49814 4.10235 9.70848C4.00156 10.9422 4 12.5268 4 14.8V17.2C4 19.4732 4.00156 21.0578 4.10235 22.2915C4.20124 23.5019 4.38559 24.1972 4.65396 24.7239C5.2292 25.8529 6.14708 26.7708 7.27606 27.346C7.80277 27.6144 8.49814 27.7988 9.70848 27.8976C10.9422 27.9984 12.5268 28 14.8 28H17.2C19.4732 28 21.0578 27.9984 22.2915 27.8976C23.5019 27.7988 24.1972 27.6144 24.7239 27.346C25.8529 26.7708 26.7708 25.8529 27.346 24.7239C27.6144 24.1972 27.7988 23.5019 27.8976 22.2915C27.9984 21.0578 28 19.4732 28 17.2V14.8C28 12.5268 27.9984 10.9422 27.8976 9.70848C27.7988 8.49814 27.6144 7.80277 27.346 7.27606C26.7708 6.14708 25.8529 5.2292 24.7239 4.65396C24.1972 4.38559 23.5019 4.20124 22.2915 4.10235C21.0578 4.00156 19.4732 4 17.2 4ZM2.87195 6.36808C2 8.07937 2 10.3196 2 14.8V17.2C2 21.6804 2 23.9206 2.87195 25.6319C3.63893 27.1372 4.86278 28.3611 6.36808 29.1281C8.07937 30 10.3196 30 14.8 30H17.2C21.6804 30 23.9206 30 25.6319 29.1281C27.1372 28.3611 28.3611 27.1372 29.1281 25.6319C30 23.9206 30 21.6804 30 17.2V14.8C30 10.3196 30 8.07937 29.1281 6.36808C28.3611 4.86278 27.1372 3.63893 25.6319 2.87195C23.9206 2 21.6804 2 17.2 2H14.8C10.3196 2 8.07937 2 6.36808 2.87195C4.86278 3.63893 3.63893 4.86278 2.87195 6.36808Z" fill="black"/>
</svg>
