<svg width="32" height="32" viewBox="0 0 32 32" fill="none" xmlns="http://www.w3.org/2000/svg">
<path opacity="0.04" d="M0 8C0 5.79086 1.79086 4 4 4H28C30.2091 4 32 5.79086 32 8V24C32 26.2091 30.2091 28 28 28H4C1.79086 28 0 26.2091 0 24V8Z" fill="black"/>
<path fill-rule="evenodd" clip-rule="evenodd" d="M28 4C30.2091 4 32 5.79086 32 8V24C32 26.2091 30.2091 28 28 28H4C1.79086 28 0 26.2091 0 24V8C0 5.79086 1.79086 4 4 4H28ZM21.5 5H4C2.34315 5 1 6.34315 1 8V11.5H7.375C9.65317 11.5 11.5 13.3468 11.5 15.625V27H21.5V5ZM22.5 27H28C29.6569 27 31 25.6569 31 24V23.7308H22.5V27ZM31 22.7308V17.7051H22.5V22.7308H31ZM31 16.7051V11.6795H22.5V16.7051H31ZM31 10.6795V8C31 6.34315 29.6569 5 28 5H22.5V10.6795H31ZM1 17.2317V12.5H7.375C9.10089 12.5 10.5 13.8991 10.5 15.625V17.2317H1ZM1 22.9634V18.2317H10.5V22.9634H1ZM1 24V23.9634H10.5V27H4C2.34315 27 1 25.6569 1 24Z" fill="black"/>
</svg>
