<svg width="32" height="32" viewBox="0 0 32 32" fill="none" xmlns="http://www.w3.org/2000/svg">
<path d="M20.5 18.9997C20.5 19.1323 20.4473 19.2595 20.3536 19.3533C20.2598 19.4471 20.1326 19.4997 20 19.4997H12C11.8674 19.4997 11.7402 19.4471 11.6464 19.3533C11.5527 19.2595 11.5 19.1323 11.5 18.9997C11.5 18.8671 11.5527 18.7399 11.6464 18.6462C11.7402 18.5524 11.8674 18.4997 12 18.4997H20C20.1326 18.4997 20.2598 18.5524 20.3536 18.6462C20.4473 18.7399 20.5 18.8671 20.5 18.9997ZM20 14.4997H12C11.8674 14.4997 11.7402 14.5524 11.6464 14.6462C11.5527 14.7399 11.5 14.8671 11.5 14.9997C11.5 15.1323 11.5527 15.2595 11.6464 15.3533C11.7402 15.4471 11.8674 15.4997 12 15.4997H20C20.1326 15.4997 20.2598 15.4471 20.3536 15.3533C20.4473 15.2595 20.5 15.1323 20.5 14.9997C20.5 14.8671 20.4473 14.7399 20.3536 14.6462C20.2598 14.5524 20.1326 14.4997 20 14.4997ZM26.5 5.99973V26.9997C26.5 27.3976 26.342 27.7791 26.0607 28.0604C25.7794 28.3417 25.3978 28.4997 25 28.4997H7C6.60218 28.4997 6.22064 28.3417 5.93934 28.0604C5.65804 27.7791 5.5 27.3976 5.5 26.9997V5.99973C5.5 5.60191 5.65804 5.22038 5.93934 4.93907C6.22064 4.65777 6.60218 4.49973 7 4.49973H11.76C12.276 3.87515 12.9237 3.3723 13.6567 3.02711C14.3896 2.68192 15.1898 2.50293 16 2.50293C16.8102 2.50293 17.6104 2.68192 18.3433 3.02711C19.0763 3.3723 19.724 3.87515 20.24 4.49973H25C25.3978 4.49973 25.7794 4.65777 26.0607 4.93907C26.342 5.22038 26.5 5.60191 26.5 5.99973ZM11.5 7.99973V8.49973H20.5V7.99973C20.5 6.80626 20.0259 5.66166 19.182 4.81775C18.3381 3.97384 17.1935 3.49973 16 3.49973C14.8065 3.49973 13.6619 3.97384 12.818 4.81775C11.9741 5.66166 11.5 6.80626 11.5 7.99973ZM25.5 5.99973C25.5 5.86712 25.4473 5.73995 25.3536 5.64618C25.2598 5.55241 25.1326 5.49973 25 5.49973H20.8962C21.2936 6.27315 21.5005 7.13023 21.5 7.99973V8.99973C21.5 9.13234 21.4473 9.25952 21.3536 9.35328C21.2598 9.44705 21.1326 9.49973 21 9.49973H11C10.8674 9.49973 10.7402 9.44705 10.6464 9.35328C10.5527 9.25952 10.5 9.13234 10.5 8.99973V7.99973C10.4995 7.13023 10.7064 6.27315 11.1038 5.49973H7C6.86739 5.49973 6.74021 5.55241 6.64645 5.64618C6.55268 5.73995 6.5 5.86712 6.5 5.99973V26.9997C6.5 27.1323 6.55268 27.2595 6.64645 27.3533C6.74021 27.4471 6.86739 27.4997 7 27.4997H25C25.1326 27.4997 25.2598 27.4471 25.3536 27.3533C25.4473 27.2595 25.5 27.1323 25.5 26.9997V5.99973Z" fill="black"/>
</svg>
