<svg width="32" height="32" viewBox="0 0 32 32" fill="none" xmlns="http://www.w3.org/2000/svg">
<path d="M9.85454 8.31819C9.43029 7.89394 8.74244 7.89394 8.31819 8.31819C7.89394 8.74245 7.89394 9.4303 8.31819 9.85455L14.4636 16L8.31827 22.1454C7.89402 22.5697 7.89402 23.2576 8.31827 23.6818C8.74252 24.1061 9.43037 24.1061 9.85462 23.6818L16 17.5364L22.1454 23.6818C22.5696 24.1061 23.2575 24.1061 23.6817 23.6818C24.106 23.2576 24.106 22.5697 23.6817 22.1454L17.5364 16L23.6818 9.85455C24.1061 9.4303 24.1061 8.74245 23.6818 8.31819C23.2576 7.89394 22.5697 7.89394 22.1455 8.31819L16 14.4637L9.85454 8.31819Z" fill="black"/>
</svg>
