<svg width="32" height="32" viewBox="0 0 32 32" fill="none" xmlns="http://www.w3.org/2000/svg">
<path fill-rule="evenodd" clip-rule="evenodd" d="M14.1333 11.8C12.8447 11.8 11.8 12.8447 11.8 14.1333V17.8667C11.8 19.1553 12.8447 20.2 14.1333 20.2H17.8667C19.1553 20.2 20.2 19.1553 20.2 17.8667V14.1333C20.2 12.8447 19.1553 11.8 17.8667 11.8H14.1333ZM9 14.1333C9 11.2983 11.2983 9 14.1333 9H17.8667C20.7017 9 23 11.2983 23 14.1333V17.8667C23 20.7017 20.7017 23 17.8667 23H14.1333C11.2983 23 9 20.7017 9 17.8667V14.1333Z" fill="black"/>
</svg>
