<svg width="32" height="32" viewBox="0 0 32 32" fill="none" xmlns="http://www.w3.org/2000/svg">
<path fill-rule="evenodd" clip-rule="evenodd" d="M14 9.5V12.8C14 13.4627 13.4627 14 12.8 14H9.5C7.01472 14 5 11.9853 5 9.5C5 7.01472 7.01472 5 9.5 5C11.9853 5 14 7.01472 14 9.5ZM4 9.5C4 6.46243 6.46243 4 9.5 4C12.5376 4 15 6.46243 15 9.5V12.8C15 14.015 14.015 15 12.8 15H9.5C6.46243 15 4 12.5376 4 9.5ZM9.5 18H12.8C13.4627 18 14 18.5373 14 19.2V22.5C14 24.9853 11.9853 27 9.5 27C7.01472 27 5 24.9853 5 22.5C5 20.0147 7.01472 18 9.5 18ZM4 22.5C4 19.4624 6.46243 17 9.5 17H12.8C14.015 17 15 17.985 15 19.2V22.5C15 25.5376 12.5376 28 9.5 28C6.46243 28 4 25.5376 4 22.5ZM19.2 14H22.5C24.9853 14 27 11.9853 27 9.5C27 7.01472 24.9853 5 22.5 5C20.0147 5 18 7.01472 18 9.5V12.8C18 13.4627 18.5373 14 19.2 14ZM22.5 4C19.4624 4 17 6.46243 17 9.5V12.8C17 14.015 17.985 15 19.2 15H22.5C25.5376 15 28 12.5376 28 9.5C28 6.46243 25.5376 4 22.5 4ZM19.2 18H22.5C24.9853 18 27 20.0147 27 22.5C27 24.9853 24.9853 27 22.5 27C20.0147 27 18 24.9853 18 22.5V19.2C18 18.5373 18.5373 18 19.2 18ZM17 19.2C17 17.985 17.985 17 19.2 17H22.5C25.5376 17 28 19.4624 28 22.5C28 25.5376 25.5376 28 22.5 28C19.4624 28 17 25.5376 17 22.5V19.2Z" fill="black"/>
</svg>
