<svg width="32" height="32" viewBox="0 0 32 32" fill="none" xmlns="http://www.w3.org/2000/svg">
<path fill-rule="evenodd" clip-rule="evenodd" d="M13.5 9.5V12.8C13.5 13.1866 13.1866 13.5 12.8 13.5H9.5C7.29086 13.5 5.5 11.7091 5.5 9.5C5.5 7.29086 7.29086 5.5 9.5 5.5C11.7091 5.5 13.5 7.29086 13.5 9.5ZM4 9.5C4 6.46243 6.46243 4 9.5 4C12.5376 4 15 6.46243 15 9.5V12.8C15 14.015 14.015 15 12.8 15H9.5C6.46243 15 4 12.5376 4 9.5ZM9.5 18.5H12.8C13.1866 18.5 13.5 18.8134 13.5 19.2V22.5C13.5 24.7091 11.7091 26.5 9.5 26.5C7.29086 26.5 5.5 24.7091 5.5 22.5C5.5 20.2909 7.29086 18.5 9.5 18.5ZM4 22.5C4 19.4624 6.46243 17 9.5 17H12.8C14.015 17 15 17.985 15 19.2V22.5C15 25.5376 12.5376 28 9.5 28C6.46243 28 4 25.5376 4 22.5ZM19.2 13.5H22.5C24.7091 13.5 26.5 11.7091 26.5 9.5C26.5 7.29086 24.7091 5.5 22.5 5.5C20.2909 5.5 18.5 7.29086 18.5 9.5V12.8C18.5 13.1866 18.8134 13.5 19.2 13.5ZM22.5 4C19.4624 4 17 6.46243 17 9.5V12.8C17 14.015 17.985 15 19.2 15H22.5C25.5376 15 28 12.5376 28 9.5C28 6.46243 25.5376 4 22.5 4ZM19.2 18.5H22.5C24.7091 18.5 26.5 20.2909 26.5 22.5C26.5 24.7091 24.7091 26.5 22.5 26.5C20.2909 26.5 18.5 24.7091 18.5 22.5V19.2C18.5 18.8134 18.8134 18.5 19.2 18.5ZM17 19.2C17 17.985 17.985 17 19.2 17H22.5C25.5376 17 28 19.4624 28 22.5C28 25.5376 25.5376 28 22.5 28C19.4624 28 17 25.5376 17 22.5V19.2Z" fill="black"/>
</svg>
