<svg width="32" height="32" viewBox="0 0 32 32" fill="none" xmlns="http://www.w3.org/2000/svg">
<path fill-rule="evenodd" clip-rule="evenodd" d="M4 9.5C4 6.46243 6.46243 4 9.5 4C12.5376 4 15 6.46243 15 9.5V12.8C15 14.015 14.015 15 12.8 15H9.5C6.46243 15 4 12.5376 4 9.5ZM12 9.5V12H9.5C8.11929 12 7 10.8807 7 9.5C7 8.11929 8.11929 7 9.5 7C10.8807 7 12 8.11929 12 9.5Z" fill="black"/>
<path fill-rule="evenodd" clip-rule="evenodd" d="M4 22.5C4 19.4624 6.46243 17 9.5 17H12.8C14.015 17 15 17.985 15 19.2V22.5C15 25.5376 12.5376 28 9.5 28C6.46243 28 4 25.5376 4 22.5ZM9.5 20H12V22.5C12 23.8807 10.8807 25 9.5 25C8.11929 25 7 23.8807 7 22.5C7 21.1193 8.11929 20 9.5 20Z" fill="black"/>
<path fill-rule="evenodd" clip-rule="evenodd" d="M22.5 4C19.4624 4 17 6.46243 17 9.5V12.8C17 14.015 17.985 15 19.2 15H22.5C25.5376 15 28 12.5376 28 9.5C28 6.46243 25.5376 4 22.5 4ZM20 12H22.5C23.8807 12 25 10.8807 25 9.5C25 8.11929 23.8807 7 22.5 7C21.1193 7 20 8.11929 20 9.5V12Z" fill="black"/>
<path fill-rule="evenodd" clip-rule="evenodd" d="M17 19.2C17 17.985 17.985 17 19.2 17H22.5C25.5376 17 28 19.4624 28 22.5C28 25.5376 25.5376 28 22.5 28C19.4624 28 17 25.5376 17 22.5V19.2ZM20 22.5V20H22.5C23.8807 20 25 21.1193 25 22.5C25 23.8807 23.8807 25 22.5 25C21.1193 25 20 23.8807 20 22.5Z" fill="black"/>
</svg>
