<svg width="32" height="32" viewBox="0 0 32 32" fill="none" xmlns="http://www.w3.org/2000/svg">
<path fill-rule="evenodd" clip-rule="evenodd" d="M9.5 4C6.46243 4 4 6.46243 4 9.5C4 12.5376 6.46243 15 9.5 15H12.8C14.015 15 15 14.015 15 12.8V9.5C15 6.46243 12.5376 4 9.5 4ZM9.5 17C6.46243 17 4 19.4624 4 22.5C4 25.5376 6.46243 28 9.5 28C12.5376 28 15 25.5376 15 22.5V19.2C15 17.985 14.015 17 12.8 17H9.5ZM17 9.5C17 6.46243 19.4624 4 22.5 4C25.5376 4 28 6.46243 28 9.5C28 12.5376 25.5376 15 22.5 15H19.2C17.985 15 17 14.015 17 12.8V9.5ZM19.2 17C17.985 17 17 17.985 17 19.2V22.5C17 25.5376 19.4624 28 22.5 28C25.5376 28 28 25.5376 28 22.5C28 19.4624 25.5376 17 22.5 17H19.2Z" fill="black"/>
</svg>
