<svg width="32" height="32" viewBox="0 0 32 32" fill="none" xmlns="http://www.w3.org/2000/svg">
<path fill-rule="evenodd" clip-rule="evenodd" d="M4 9.5C4 6.46243 6.46243 4 9.5 4C12.5376 4 15 6.46243 15 9.5V12.8C15 14.015 14.015 15 12.8 15H9.5C6.46243 15 4 12.5376 4 9.5ZM13 9.5V12.8C13 12.9105 12.9105 13 12.8 13H9.5C7.567 13 6 11.433 6 9.5C6 7.567 7.567 6 9.5 6C11.433 6 13 7.567 13 9.5Z" fill="black"/>
<path fill-rule="evenodd" clip-rule="evenodd" d="M4 22.5C4 19.4624 6.46243 17 9.5 17H12.8C14.015 17 15 17.985 15 19.2V22.5C15 25.5376 12.5376 28 9.5 28C6.46243 28 4 25.5376 4 22.5ZM9.5 19H12.8C12.9105 19 13 19.0895 13 19.2V22.5C13 24.433 11.433 26 9.5 26C7.567 26 6 24.433 6 22.5C6 20.567 7.567 19 9.5 19Z" fill="black"/>
<path fill-rule="evenodd" clip-rule="evenodd" d="M22.5 4C19.4624 4 17 6.46243 17 9.5V12.8C17 14.015 17.985 15 19.2 15H22.5C25.5376 15 28 12.5376 28 9.5C28 6.46243 25.5376 4 22.5 4ZM19.2 13H22.5C24.433 13 26 11.433 26 9.5C26 7.567 24.433 6 22.5 6C20.567 6 19 7.567 19 9.5V12.8C19 12.9105 19.0895 13 19.2 13Z" fill="black"/>
<path fill-rule="evenodd" clip-rule="evenodd" d="M17 19.2C17 17.985 17.985 17 19.2 17H22.5C25.5376 17 28 19.4624 28 22.5C28 25.5376 25.5376 28 22.5 28C19.4624 28 17 25.5376 17 22.5V19.2ZM19.2 19H22.5C24.433 19 26 20.567 26 22.5C26 24.433 24.433 26 22.5 26C20.567 26 19 24.433 19 22.5V19.2C19 19.0895 19.0895 19 19.2 19Z" fill="black"/>
</svg>
