<svg width="32" height="32" viewBox="0 0 32 32" fill="none" xmlns="http://www.w3.org/2000/svg">
<path fill-rule="evenodd" clip-rule="evenodd" d="M21.2836 27.0485C21.2836 27.0485 18.9864 28 16.5 28L5.97575 27.9999C5.97575 27.9999 5.58119 28.0051 5.21564 27.8566C5.21564 27.8566 4.85008 27.708 4.57106 27.4289C4.57106 27.4289 4.29204 27.1499 4.14346 26.7844C4.14346 26.7844 3.99487 26.4188 4.00001 26.0375L4.00001 15.5C4.00001 15.5 4.00001 13.0136 4.95151 10.7165C4.95151 10.7165 5.90302 8.41932 7.66117 6.66116C7.66117 6.66116 9.41933 4.90301 11.7165 3.95151C11.7165 3.95151 14.0136 3 16.5 3C16.5 3 18.9864 3 21.2835 3.95151C21.2835 3.95151 23.5807 4.90301 25.3388 6.66117C25.3388 6.66117 27.097 8.41933 28.0485 10.7165C28.0485 10.7165 29 13.0136 29 15.5V15.5028C29 15.5028 28.9995 17.9877 28.0485 20.2835C28.0485 20.2835 27.097 22.5807 25.3388 24.3388C25.3388 24.3388 23.5807 26.097 21.2836 27.0485ZM16.5 5C16.5 5 14.4114 5 12.4818 5.79926C12.4818 5.79926 10.5522 6.59853 9.07539 8.07538C9.07539 8.07538 7.59854 9.55223 6.79927 11.4818C6.79927 11.4818 6.00001 13.4114 6.00001 15.5L6.00001 26.0001L16.5 26C16.5 26 18.5886 26 20.5182 25.2007C20.5182 25.2007 22.4478 24.4015 23.9246 22.9246C23.9246 22.9246 25.4015 21.4478 26.2007 19.5182C26.2007 19.5182 27 17.5886 27 15.5C27 15.5 27 13.4114 26.2007 11.4818C26.2007 11.4818 25.4015 9.55224 23.9246 8.07538C23.9246 8.07538 22.4478 6.59853 20.5182 5.79926C20.5182 5.79926 18.5884 5.00006 16.5 5Z" fill="black"/>
<path d="M17.6466 8.99997L17.4357 18.2429H15.3774L15.1729 8.99997H17.6466ZM16.4065 22.2315C16.0188 22.2315 15.6864 22.0951 15.4094 21.8224C15.1366 21.5497 15.0003 21.2173 15.0003 20.8253C15.0003 20.4417 15.1366 20.1136 15.4094 19.8409C15.6864 19.5682 16.0188 19.4318 16.4065 19.4318C16.7858 19.4318 17.1139 19.5682 17.3909 19.8409C17.6722 20.1136 17.8128 20.4417 17.8128 20.8253C17.8128 21.0852 17.7467 21.3217 17.6146 21.5348C17.4868 21.7478 17.3163 21.9183 17.1033 22.0461C16.8945 22.1697 16.6622 22.2315 16.4065 22.2315Z" fill="black"/>
</svg>
