<svg width="32" height="32" viewBox="0 0 32 32" fill="none" xmlns="http://www.w3.org/2000/svg">
<g opacity="0.08">
<path d="M19.75 4C19.3358 4 19 4.33579 19 4.75C19 5.16421 19.3358 5.5 19.75 5.5H23.75C24.9926 5.5 26 6.50736 26 7.75V11.75C26 12.1642 26.3358 12.5 26.75 12.5C27.1642 12.5 27.5 12.1642 27.5 11.75V7.75C27.5 5.67893 25.8211 4 23.75 4H19.75Z" fill="black"/>
<path d="M11.75 27.5C12.1642 27.5 12.5 27.1642 12.5 26.75C12.5 26.3358 12.1642 26 11.75 26H7.75C6.50736 26 5.5 24.9926 5.5 23.75L5.5 19.75C5.5 19.3358 5.16421 19 4.75 19C4.33579 19 4 19.3358 4 19.75V23.75C4 25.8211 5.67893 27.5 7.75 27.5H11.75Z" fill="black"/>
<path d="M4.75 12.5C4.33579 12.5 4 12.1642 4 11.75V7.75C4 5.67893 5.67893 4 7.75 4H11.75C12.1642 4 12.5 4.33579 12.5 4.75C12.5 5.16421 12.1642 5.5 11.75 5.5L7.75 5.5C6.50736 5.5 5.5 6.50736 5.5 7.75L5.5 11.75C5.5 12.1642 5.16421 12.5 4.75 12.5Z" fill="black"/>
<path d="M27.5 19.75C27.5 19.3358 27.1642 19 26.75 19C26.3358 19 26 19.3358 26 19.75V23.75C26 24.9926 24.9926 26 23.75 26H19.75C19.3358 26 19 26.3358 19 26.75C19 27.1642 19.3358 27.5 19.75 27.5H23.75C25.8211 27.5 27.5 25.8211 27.5 23.75V19.75Z" fill="black"/>
</g>
<path d="M8.99997 18.6648H10.0738C10.1051 18.9602 10.2059 19.2102 10.3764 19.4148C10.5497 19.6165 10.7741 19.7699 11.0497 19.875C11.3253 19.9773 11.6307 20.0284 11.9659 20.0284C12.3295 20.0284 12.6562 19.9673 12.946 19.8452C13.2358 19.723 13.4659 19.5412 13.6363 19.2997C13.8068 19.0554 13.892 18.7528 13.892 18.392C13.892 18.0767 13.8182 17.7841 13.6704 17.5142C13.5227 17.2415 13.2855 17.0213 12.9588 16.8537C12.6321 16.6861 12.1988 16.6023 11.6591 16.6023H10.9602V15.75L13.142 13.125V13.0568H9.42611V12.1193H14.5909V12.8864L12.2557 15.7159V15.7841C12.6307 15.8011 12.9801 15.8778 13.3039 16.0142C13.6307 16.1506 13.9147 16.3352 14.1562 16.5682C14.4005 16.8011 14.5909 17.0724 14.7272 17.3821C14.8636 17.6918 14.9318 18.0284 14.9318 18.392C14.9318 18.8892 14.8039 19.3324 14.5483 19.7216C14.2954 20.108 13.9446 20.4119 13.4957 20.6335C13.0497 20.8551 12.5341 20.9659 11.9488 20.9659C11.4318 20.9659 10.9559 20.875 10.5213 20.6932C10.0866 20.5114 9.73292 20.2486 9.4602 19.9048C9.18747 19.5611 9.03406 19.1477 8.99997 18.6648Z" fill="black"/>
<path d="M16.6715 20.8466V20.0795L19.5522 16.9261C19.8902 16.5568 20.1686 16.2358 20.3874 15.9631C20.6061 15.6875 20.7681 15.429 20.8732 15.1875C20.9811 14.9432 21.0351 14.6875 21.0351 14.4205C21.0351 14.1136 20.9613 13.848 20.8135 13.6236C20.6686 13.3991 20.4698 13.2259 20.2169 13.1037C19.9641 12.9815 19.68 12.9205 19.3647 12.9205C19.0294 12.9205 18.7368 12.9901 18.4868 13.1293C18.2397 13.2656 18.0479 13.4574 17.9115 13.7045C17.778 13.9517 17.7113 14.2415 17.7113 14.5739H16.7056C16.7056 14.0625 16.8235 13.6136 17.0593 13.2273C17.2951 12.8409 17.6161 12.5398 18.0223 12.3239C18.4314 12.108 18.8902 12 19.3988 12C19.9101 12 20.3633 12.108 20.7581 12.3239C21.153 12.5398 21.4627 12.831 21.6871 13.1974C21.9115 13.5639 22.0238 13.9716 22.0238 14.4205C22.0238 14.7415 21.9655 15.0554 21.849 15.3622C21.7354 15.6662 21.5365 16.0057 21.2525 16.3807C20.9712 16.7528 20.5806 17.2074 20.0806 17.7443L18.1204 19.8409V19.9091H22.1772V20.8466H16.6715Z" fill="black"/>
</svg>
