<svg width="32" height="32" viewBox="0 0 32 32" fill="none" xmlns="http://www.w3.org/2000/svg">
<g opacity="0.08">
<path d="M19.75 4C19.3358 4 19 4.33579 19 4.75C19 5.16421 19.3358 5.5 19.75 5.5H23.75C24.9926 5.5 26 6.50736 26 7.75V11.75C26 12.1642 26.3358 12.5 26.75 12.5C27.1642 12.5 27.5 12.1642 27.5 11.75V7.75C27.5 5.67893 25.8211 4 23.75 4H19.75Z" fill="black"/>
<path d="M11.75 27.5C12.1642 27.5 12.5 27.1642 12.5 26.75C12.5 26.3358 12.1642 26 11.75 26H7.75C6.50736 26 5.5 24.9926 5.5 23.75L5.5 19.75C5.5 19.3358 5.16421 19 4.75 19C4.33579 19 4 19.3358 4 19.75V23.75C4 25.8211 5.67893 27.5 7.75 27.5H11.75Z" fill="black"/>
<path d="M4.75 12.5C4.33579 12.5 4 12.1642 4 11.75V7.75C4 5.67893 5.67893 4 7.75 4H11.75C12.1642 4 12.5 4.33579 12.5 4.75C12.5 5.16421 12.1642 5.5 11.75 5.5L7.75 5.5C6.50736 5.5 5.5 6.50736 5.5 7.75L5.5 11.75C5.5 12.1642 5.16421 12.5 4.75 12.5Z" fill="black"/>
<path d="M27.5 19.75C27.5 19.3358 27.1642 19 26.75 19C26.3358 19 26 19.3358 26 19.75V23.75C26 24.9926 24.9926 26 23.75 26H19.75C19.3358 26 19 26.3358 19 26.75C19 27.1642 19.3358 27.5 19.75 27.5H23.75C25.8211 27.5 27.5 25.8211 27.5 23.75V19.75Z" fill="black"/>
</g>
<path d="M11.9659 20.9659C11.3807 20.9659 10.8637 20.8622 10.4148 20.6548C9.96877 20.4446 9.62076 20.1563 9.37076 19.7898C9.12076 19.4205 8.99718 19 9.00002 18.5284C8.99718 18.1591 9.06962 17.8182 9.21735 17.5057C9.36508 17.1903 9.56678 16.9276 9.82246 16.7173C10.081 16.5043 10.3693 16.3693 10.6875 16.3125V16.2614C10.2699 16.1534 9.93752 15.919 9.69036 15.5582C9.4432 15.1946 9.32104 14.7812 9.32388 14.3182C9.32104 13.875 9.43326 13.4787 9.66053 13.1293C9.8878 12.7798 10.2003 12.5043 10.598 12.3026C10.9986 12.1009 11.4546 12 11.9659 12C12.4716 12 12.9233 12.1009 13.321 12.3026C13.7188 12.5043 14.0313 12.7798 14.2585 13.1293C14.4887 13.4787 14.6051 13.875 14.608 14.3182C14.6051 14.7812 14.4787 15.1946 14.2287 15.5582C13.9816 15.919 13.6534 16.1534 13.2443 16.2614V16.3125C13.5597 16.3693 13.8438 16.5043 14.0966 16.7173C14.3495 16.9276 14.5512 17.1903 14.7017 17.5057C14.8523 17.8182 14.929 18.1591 14.9318 18.5284C14.929 19 14.8012 19.4205 14.5483 19.7898C14.2983 20.1563 13.9503 20.4446 13.5043 20.6548C13.0611 20.8622 12.5483 20.9659 11.9659 20.9659ZM11.9659 20.0284C12.3608 20.0284 12.7017 19.9645 12.9887 19.8366C13.2756 19.7088 13.4972 19.5284 13.6534 19.2955C13.8097 19.0625 13.8892 18.7898 13.8921 18.4773C13.8892 18.1477 13.804 17.8565 13.6364 17.6037C13.4688 17.3509 13.2401 17.152 12.9503 17.0071C12.6634 16.8622 12.3352 16.7898 11.9659 16.7898C11.5938 16.7898 11.2614 16.8622 10.9688 17.0071C10.679 17.152 10.4503 17.3509 10.2827 17.6037C10.1179 17.8565 10.037 18.1477 10.0398 18.4773C10.037 18.7898 10.1122 19.0625 10.2656 19.2955C10.4219 19.5284 10.6449 19.7088 10.9347 19.8366C11.2245 19.9645 11.5682 20.0284 11.9659 20.0284ZM11.9659 15.8864C12.2784 15.8864 12.5554 15.8239 12.7969 15.6989C13.0412 15.5739 13.233 15.3991 13.3722 15.1747C13.5114 14.9503 13.5824 14.6875 13.5852 14.3864C13.5824 14.0909 13.5128 13.8338 13.3764 13.6151C13.2401 13.3935 13.0512 13.223 12.8097 13.1037C12.5682 12.9815 12.287 12.9205 11.9659 12.9205C11.6392 12.9205 11.3537 12.9815 11.1094 13.1037C10.8651 13.223 10.6762 13.3935 10.5426 13.6151C10.4091 13.8338 10.3438 14.0909 10.3466 14.3864C10.3438 14.6875 10.4105 14.9503 10.5469 15.1747C10.6861 15.3991 10.8779 15.5739 11.1222 15.6989C11.3665 15.8239 11.6477 15.8864 11.9659 15.8864Z" fill="black"/>
<path d="M19.4116 20.9659C18.7696 20.9659 18.2227 20.7912 17.771 20.4418C17.3193 20.0895 16.9741 19.5795 16.7355 18.9119C16.4968 18.2415 16.3775 17.4318 16.3775 16.483C16.3775 15.5398 16.4968 14.7344 16.7355 14.0668C16.9769 13.3963 17.3235 12.8849 17.7752 12.5327C18.2298 12.1776 18.7752 12 19.4116 12C20.048 12 20.592 12.1776 21.0437 12.5327C21.4982 12.8849 21.8448 13.3963 22.0835 14.0668C22.3249 14.7344 22.4457 15.5398 22.4457 16.483C22.4457 17.4318 22.3264 18.2415 22.0877 18.9119C21.8491 19.5795 21.5039 20.0895 21.0522 20.4418C20.6005 20.7912 20.0536 20.9659 19.4116 20.9659ZM19.4116 20.0284C20.048 20.0284 20.5423 19.7216 20.8946 19.108C21.2468 18.4943 21.423 17.6193 21.423 16.483C21.423 15.7273 21.342 15.0838 21.1801 14.5526C21.021 14.0213 20.7909 13.6165 20.4897 13.3381C20.1914 13.0597 19.8321 12.9205 19.4116 12.9205C18.7809 12.9205 18.288 13.2315 17.9329 13.8537C17.5778 14.473 17.4002 15.3494 17.4002 16.483C17.4002 17.2386 17.4798 17.8807 17.6389 18.4091C17.798 18.9375 18.0267 19.3395 18.3249 19.6151C18.6261 19.8906 18.9883 20.0284 19.4116 20.0284Z" fill="black"/>
</svg>
