<svg width="32" height="32" viewBox="0 0 32 32" fill="none" xmlns="http://www.w3.org/2000/svg">
<path fill-rule="evenodd" clip-rule="evenodd" d="M19.25 5C19.25 4.58579 19.5858 4.25 20 4.25H24C26.0711 4.25 27.75 5.92893 27.75 8V12C27.75 12.4142 27.4142 12.75 27 12.75C26.5858 12.75 26.25 12.4142 26.25 12V8C26.25 6.75736 25.2426 5.75 24 5.75H20C19.5858 5.75 19.25 5.41421 19.25 5ZM17.4142 11.2929L20.7782 14.6568C21.5592 15.4379 21.5592 16.7042 20.7782 17.4853L17.4142 20.8492C16.6332 21.6303 15.3668 21.6303 14.5858 20.8492L11.2218 17.4853C10.4408 16.7042 10.4408 15.4379 11.2218 14.6568L14.5858 11.2929C15.3668 10.5118 16.6332 10.5118 17.4142 11.2929ZM16.3536 12.3535C16.1583 12.1583 15.8417 12.1583 15.6464 12.3535L12.2825 15.7175C12.0872 15.9128 12.0872 16.2293 12.2825 16.4246L15.6464 19.7886C15.8417 19.9838 16.1583 19.9838 16.3536 19.7886L19.7175 16.4246C19.9128 16.2293 19.9128 15.9128 19.7175 15.7175L16.3536 12.3535ZM12 27.75C12.4142 27.75 12.75 27.4142 12.75 27C12.75 26.5858 12.4142 26.25 12 26.25H8C6.75736 26.25 5.75 25.2426 5.75 24L5.75 20C5.75 19.5858 5.41421 19.25 5 19.25C4.58579 19.25 4.25 19.5858 4.25 20V24C4.25 26.0711 5.92893 27.75 8 27.75H12ZM5 12.75C4.58579 12.75 4.25 12.4142 4.25 12V8C4.25 5.92893 5.92893 4.25 8 4.25H12C12.4142 4.25 12.75 4.58579 12.75 5C12.75 5.41421 12.4142 5.75 12 5.75L8 5.75C6.75736 5.75 5.75 6.75736 5.75 8L5.75 12C5.75 12.4142 5.41421 12.75 5 12.75ZM27.75 20C27.75 19.5858 27.4142 19.25 27 19.25C26.5858 19.25 26.25 19.5858 26.25 20V24C26.25 25.2426 25.2426 26.25 24 26.25H20C19.5858 26.25 19.25 26.5858 19.25 27C19.25 27.4142 19.5858 27.75 20 27.75H24C26.0711 27.75 27.75 26.0711 27.75 24V20Z" fill="black"/>
</svg>
