<svg width="32" height="32" viewBox="0 0 32 32" fill="none" xmlns="http://www.w3.org/2000/svg">
<path fill-rule="evenodd" clip-rule="evenodd" d="M19.5 5C19.5 4.72386 19.7239 4.5 20 4.5H24C25.933 4.5 27.5 6.067 27.5 8V12C27.5 12.2761 27.2761 12.5 27 12.5C26.7239 12.5 26.5 12.2761 26.5 12V8C26.5 6.61929 25.3807 5.5 24 5.5H20C19.7239 5.5 19.5 5.27614 19.5 5ZM17.0607 11.6464L20.4246 15.0103C21.0104 15.5961 21.0104 16.5458 20.4246 17.1316L17.0607 20.4956C16.4749 21.0814 15.5251 21.0814 14.9393 20.4956L11.5754 17.1316C10.9896 16.5459 10.9896 15.5961 11.5754 15.0103L14.9393 11.6464C15.5251 11.0606 16.4749 11.0606 17.0607 11.6464ZM16.3536 12.3535C16.1583 12.1582 15.8417 12.1582 15.6464 12.3535L12.2825 15.7174C12.0872 15.9127 12.0872 16.2293 12.2825 16.4245L15.6464 19.7885C15.8417 19.9838 16.1583 19.9838 16.3536 19.7885L19.7175 16.4245C19.9128 16.2293 19.9128 15.9127 19.7175 15.7174L16.3536 12.3535ZM12 27.5C12.2761 27.5 12.5 27.2761 12.5 27C12.5 26.7239 12.2761 26.5 12 26.5H8C6.61929 26.5 5.5 25.3807 5.5 24L5.5 20C5.5 19.7239 5.27614 19.5 5 19.5C4.72386 19.5 4.5 19.7239 4.5 20V24C4.5 25.933 6.067 27.5 8 27.5H12ZM5 12.5C4.72386 12.5 4.5 12.2761 4.5 12V8C4.5 6.067 6.067 4.5 8 4.5H12C12.2761 4.5 12.5 4.72386 12.5 5C12.5 5.27614 12.2761 5.5 12 5.5L8 5.5C6.61929 5.5 5.5 6.61929 5.5 8L5.5 12C5.5 12.2761 5.27614 12.5 5 12.5ZM27.5 20C27.5 19.7239 27.2761 19.5 27 19.5C26.7239 19.5 26.5 19.7239 26.5 20V24C26.5 25.3807 25.3807 26.5 24 26.5H20C19.7239 26.5 19.5 26.7239 19.5 27C19.5 27.2761 19.7239 27.5 20 27.5H24C25.933 27.5 27.5 25.933 27.5 24V20Z" fill="black"/>
</svg>
