<svg width="32" height="32" viewBox="0 0 32 32" fill="none" xmlns="http://www.w3.org/2000/svg">
<g opacity="0.08">
<path d="M19.75 4C19.3358 4 19 4.33579 19 4.75C19 5.16421 19.3358 5.5 19.75 5.5H23.75C24.9926 5.5 26 6.50736 26 7.75V11.75C26 12.1642 26.3358 12.5 26.75 12.5C27.1642 12.5 27.5 12.1642 27.5 11.75V7.75C27.5 5.67893 25.8211 4 23.75 4H19.75Z" fill="black"/>
<path d="M11.75 27.5C12.1642 27.5 12.5 27.1642 12.5 26.75C12.5 26.3358 12.1642 26 11.75 26H7.75C6.50736 26 5.5 24.9926 5.5 23.75L5.5 19.75C5.5 19.3358 5.16421 19 4.75 19C4.33579 19 4 19.3358 4 19.75V23.75C4 25.8211 5.67893 27.5 7.75 27.5H11.75Z" fill="black"/>
<path d="M4.75 12.5C4.33579 12.5 4 12.1642 4 11.75V7.75C4 5.67893 5.67893 4 7.75 4H11.75C12.1642 4 12.5 4.33579 12.5 4.75C12.5 5.16421 12.1642 5.5 11.75 5.5L7.75 5.5C6.50736 5.5 5.5 6.50736 5.5 7.75L5.5 11.75C5.5 12.1642 5.16421 12.5 4.75 12.5Z" fill="black"/>
<path d="M27.5 19.75C27.5 19.3358 27.1642 19 26.75 19C26.3358 19 26 19.3358 26 19.75V23.75C26 24.9926 24.9926 26 23.75 26H19.75C19.3358 26 19 26.3358 19 26.75C19 27.1642 19.3358 27.5 19.75 27.5H23.75C25.8211 27.5 27.5 25.8211 27.5 23.75V19.75Z" fill="black"/>
</g>
<path d="M13.9659 12V20.7273H12.9091V13.5341H12.8409C12.8012 13.6136 12.6989 13.7045 12.5341 13.8068C12.3693 13.9063 12.1563 13.9943 11.8949 14.071C11.6336 14.1449 11.3353 14.1818 11 14.1818V13.2955C11.3381 13.2955 11.6307 13.2344 11.8779 13.1122C12.125 12.9901 12.331 12.8466 12.4958 12.6818C12.6634 12.517 12.7898 12.3679 12.875 12.2344C12.9631 12.1009 13.0142 12.0227 13.0284 12H13.9659Z" fill="black"/>
<path d="M16.2628 17.9659C16.2685 17.6932 16.3097 17.4105 16.3864 17.1179C16.4631 16.8253 16.5924 16.5 16.7742 16.142C16.956 15.7841 17.206 15.3693 17.5242 14.8977L19.4844 12H20.6435L18.3424 15.358C18.4446 15.3239 18.5497 15.2955 18.6577 15.2727C18.7685 15.25 18.8793 15.2386 18.9901 15.2386C19.5185 15.2386 19.9901 15.3608 20.4049 15.6051C20.8225 15.8494 21.1506 16.1832 21.3892 16.6065C21.6307 17.0298 21.7515 17.5114 21.7515 18.0511C21.7515 18.5909 21.6321 19.071 21.3935 19.4915C21.1577 19.9119 20.8324 20.2429 20.4176 20.4844C20.0057 20.7259 19.5355 20.8466 19.0071 20.8466C18.473 20.8466 17.9986 20.723 17.5838 20.4759C17.1691 20.2259 16.8438 19.8849 16.608 19.4531C16.3722 19.0185 16.2571 18.5227 16.2628 17.9659ZM17.2685 18.0341C17.2685 18.4034 17.3424 18.7301 17.4901 19.0142C17.6378 19.2983 17.8424 19.5213 18.1037 19.6832C18.3651 19.8452 18.6662 19.9261 19.0071 19.9261C19.348 19.9261 19.6492 19.8466 19.9105 19.6875C20.1719 19.5256 20.3765 19.304 20.5242 19.0227C20.6719 18.7386 20.7458 18.4148 20.7458 18.0511C20.7458 17.6818 20.6719 17.3565 20.5242 17.0753C20.3765 16.794 20.1719 16.5739 19.9105 16.4148C19.6492 16.2557 19.348 16.1761 19.0071 16.1761C18.6662 16.1761 18.3651 16.2557 18.1037 16.4148C17.8424 16.571 17.6378 16.7898 17.4901 17.071C17.3424 17.3494 17.2685 17.6705 17.2685 18.0341Z" fill="black"/>
</svg>
