<svg width="32" height="32" viewBox="0 0 32 32" fill="none" xmlns="http://www.w3.org/2000/svg">
<path d="M16.7071 12.7071C16.3166 12.3166 15.6834 12.3166 15.2929 12.7071L12.636 15.364C12.2455 15.7545 12.2455 16.3877 12.636 16.7782L15.2929 19.435C15.6834 19.8256 16.3166 19.8256 16.7071 19.435L19.364 16.7782C19.7545 16.3877 19.7545 15.7545 19.364 15.364L16.7071 12.7071Z" fill="black"/>
<path fill-rule="evenodd" clip-rule="evenodd" d="M4 8C4 5.79086 5.79086 4 8 4H24C26.2091 4 28 5.79086 28 8V24C28 26.2091 26.2091 28 24 28H8C5.79086 28 4 26.2091 4 24V8ZM14.5858 10.4142C15.3668 9.63316 16.6332 9.63316 17.4142 10.4142L21.6569 14.6569C22.4379 15.4379 22.4379 16.7042 21.6569 17.4853L17.4142 21.7279C16.6332 22.509 15.3668 22.509 14.5858 21.7279L10.3431 17.4853C9.5621 16.7042 9.5621 15.4379 10.3431 14.6569L14.5858 10.4142Z" fill="black"/>
</svg>
