<svg width="32" height="32" viewBox="0 0 32 32" fill="none" xmlns="http://www.w3.org/2000/svg">
<g opacity="0.08">
<path d="M19.75 4C19.3358 4 19 4.33579 19 4.75C19 5.16421 19.3358 5.5 19.75 5.5H23.75C24.9926 5.5 26 6.50736 26 7.75V11.75C26 12.1642 26.3358 12.5 26.75 12.5C27.1642 12.5 27.5 12.1642 27.5 11.75V7.75C27.5 5.67893 25.8211 4 23.75 4H19.75Z" fill="black"/>
<path d="M11.75 27.5C12.1642 27.5 12.5 27.1642 12.5 26.75C12.5 26.3358 12.1642 26 11.75 26H7.75C6.50736 26 5.5 24.9926 5.5 23.75L5.5 19.75C5.5 19.3358 5.16421 19 4.75 19C4.33579 19 4 19.3358 4 19.75V23.75C4 25.8211 5.67893 27.5 7.75 27.5H11.75Z" fill="black"/>
<path d="M4.75 12.5C4.33579 12.5 4 12.1642 4 11.75V7.75C4 5.67893 5.67893 4 7.75 4H11.75C12.1642 4 12.5 4.33579 12.5 4.75C12.5 5.16421 12.1642 5.5 11.75 5.5L7.75 5.5C6.50736 5.5 5.5 6.50736 5.5 7.75L5.5 11.75C5.5 12.1642 5.16421 12.5 4.75 12.5Z" fill="black"/>
<path d="M27.5 19.75C27.5 19.3358 27.1642 19 26.75 19C26.3358 19 26 19.3358 26 19.75V23.75C26 24.9926 24.9926 26 23.75 26H19.75C19.3358 26 19 26.3358 19 26.75C19 27.1642 19.3358 27.5 19.75 27.5H23.75C25.8211 27.5 27.5 25.8211 27.5 23.75V19.75Z" fill="black"/>
</g>
<path d="M9.00009 20.8466V20.0795L11.8808 16.9261C12.2188 16.5568 12.4973 16.2358 12.716 15.9631C12.9348 15.6875 13.0967 15.429 13.2018 15.1875C13.3098 14.9432 13.3637 14.6875 13.3637 14.4205C13.3637 14.1136 13.2899 13.848 13.1421 13.6236C12.9973 13.3991 12.7984 13.2259 12.5455 13.1037C12.2927 12.9815 12.0086 12.9205 11.6933 12.9205C11.358 12.9205 11.0654 12.9901 10.8154 13.1293C10.5683 13.2656 10.3765 13.4574 10.2401 13.7045C10.1066 13.9517 10.0399 14.2415 10.0399 14.5739H9.03418C9.03418 14.0625 9.15208 13.6136 9.38788 13.2273C9.62367 12.8409 9.94469 12.5398 10.3509 12.3239C10.76 12.108 11.2188 12 11.7274 12C12.2387 12 12.6919 12.108 13.0867 12.3239C13.4816 12.5398 13.7913 12.831 14.0157 13.1974C14.2401 13.5639 14.3524 13.9716 14.3524 14.4205C14.3524 14.7415 14.2941 15.0554 14.1776 15.3622C14.064 15.6662 13.8651 16.0057 13.5811 16.3807C13.2998 16.7528 12.9092 17.2074 12.4092 17.7443L10.449 19.8409V19.9091H14.5058V20.8466H9.00009Z" fill="black"/>
<path d="M15.8737 19.0568V18.1875L19.368 12.1193H20.4078L16.9987 18.0511V18.1193H22.1805V19.0568H15.8737ZM19.9816 20.8466V15.392H20.9873V20.8466H19.9816Z" fill="black"/>
</svg>
