<svg width="32" height="32" viewBox="0 0 32 32" fill="none" xmlns="http://www.w3.org/2000/svg">
<path d="M29.3125 14.2977L23.675 19.2177L25.3637 26.5427C25.4531 26.9257 25.4276 27.3264 25.2904 27.695C25.1533 28.0635 24.9105 28.3834 24.5925 28.6147C24.2745 28.846 23.8954 28.9784 23.5025 28.9954C23.1097 29.0124 22.7205 28.9132 22.3837 28.7102L15.995 24.8352L9.61999 28.7102C9.2832 28.9132 8.89406 29.0124 8.50121 28.9954C8.10836 28.9784 7.72923 28.846 7.41123 28.6147C7.09324 28.3834 6.85047 28.0635 6.7133 27.695C6.57613 27.3264 6.55063 26.9257 6.63999 26.5427L8.32624 19.2252L2.68749 14.2977C2.38925 14.0405 2.17359 13.701 2.06756 13.3217C1.96153 12.9424 1.96984 12.5402 2.09146 12.1656C2.21307 11.791 2.44258 11.4607 2.75119 11.216C3.0598 10.9713 3.43379 10.8232 3.82624 10.7902L11.2587 10.1465L14.16 3.22649C14.3115 2.86338 14.5671 2.55322 14.8945 2.33506C15.2219 2.1169 15.6065 2.00049 16 2.00049C16.3934 2.00049 16.7781 2.1169 17.1055 2.33506C17.4329 2.55322 17.6885 2.86338 17.84 3.22649L20.75 10.1465L28.18 10.7902C28.5724 10.8232 28.9464 10.9713 29.255 11.216C29.5637 11.4607 29.7932 11.791 29.9148 12.1656C30.0364 12.5402 30.0447 12.9424 29.9387 13.3217C29.8326 13.701 29.617 14.0405 29.3187 14.2977H29.3125Z" fill="black"/>
<path d="M12.9995 18.8184H14.0733C14.1046 19.1139 14.2054 19.3639 14.3759 19.5684C14.5492 19.7701 14.7736 19.9235 15.0492 20.0286C15.3248 20.1309 15.6302 20.182 15.9654 20.182C16.329 20.182 16.6557 20.121 16.9455 19.9988C17.2353 19.8766 17.4654 19.6948 17.6358 19.4533C17.8063 19.209 17.8915 18.9065 17.8915 18.5457C17.8915 18.2303 17.8177 17.9377 17.6699 17.6678C17.5222 17.3951 17.285 17.1749 16.9583 17.0073C16.6316 16.8397 16.1983 16.7559 15.6586 16.7559H14.9597V15.9036L17.1415 13.2786V13.2104H13.4256V12.2729H18.5904V13.04L16.2552 15.8695V15.9377C16.6302 15.9548 16.9796 16.0315 17.3035 16.1678C17.6302 16.3042 17.9143 16.4889 18.1557 16.7218C18.4 16.9548 18.5904 17.2261 18.7268 17.5357C18.8631 17.8454 18.9313 18.182 18.9313 18.5457C18.9313 19.0428 18.8035 19.486 18.5478 19.8752C18.2949 20.2616 17.9441 20.5656 17.4952 20.7872C17.0492 21.0087 16.5336 21.1195 15.9483 21.1195C15.4313 21.1195 14.9554 21.0286 14.5208 20.8468C14.0861 20.665 13.7324 20.4022 13.4597 20.0585C13.187 19.7147 13.0336 19.3014 12.9995 18.8184Z" fill="white"/>
</svg>
