<svg width="32" height="32" viewBox="0 0 32 32" fill="none" xmlns="http://www.w3.org/2000/svg">
<path d="M29.3125 14.2977L23.675 19.2177L25.3637 26.5427C25.4531 26.9257 25.4276 27.3264 25.2904 27.695C25.1533 28.0635 24.9105 28.3834 24.5925 28.6147C24.2745 28.846 23.8954 28.9784 23.5025 28.9954C23.1097 29.0124 22.7205 28.9132 22.3837 28.7102L15.995 24.8352L9.61999 28.7102C9.2832 28.9132 8.89406 29.0124 8.50121 28.9954C8.10836 28.9784 7.72923 28.846 7.41123 28.6147C7.09324 28.3834 6.85047 28.0635 6.7133 27.695C6.57613 27.3264 6.55063 26.9257 6.63999 26.5427L8.32624 19.2252L2.68749 14.2977C2.38925 14.0405 2.17359 13.701 2.06756 13.3217C1.96153 12.9424 1.96984 12.5402 2.09146 12.1656C2.21307 11.791 2.44258 11.4607 2.75119 11.216C3.0598 10.9713 3.43379 10.8232 3.82624 10.7902L11.2587 10.1465L14.16 3.22649C14.3115 2.86338 14.5671 2.55322 14.8945 2.33506C15.2219 2.1169 15.6065 2.00049 16 2.00049C16.3934 2.00049 16.7781 2.1169 17.1055 2.33506C17.4329 2.55322 17.6885 2.86338 17.84 3.22649L20.75 10.1465L28.18 10.7902C28.5724 10.8232 28.9464 10.9713 29.255 11.216C29.5637 11.4607 29.7932 11.791 29.9148 12.1656C30.0364 12.5402 30.0447 12.9424 29.9387 13.3217C29.8326 13.701 29.617 14.0405 29.3187 14.2977H29.3125Z" fill="black"/>
<path d="M12.8492 19.2104V18.3411L16.3436 12.2729H17.3833L13.9742 18.2048V18.2729H19.1561V19.2104H12.8492ZM16.9572 21.0002V18.9548V18.5414V15.5457H17.9629V21.0002H16.9572Z" fill="white"/>
</svg>
