<svg width="32" height="32" viewBox="0 0 32 32" fill="none" xmlns="http://www.w3.org/2000/svg">
<path d="M29.3125 14.2977L23.675 19.2177L25.3637 26.5427C25.4531 26.9257 25.4276 27.3264 25.2904 27.695C25.1533 28.0635 24.9105 28.3834 24.5925 28.6147C24.2745 28.846 23.8954 28.9784 23.5025 28.9954C23.1097 29.0124 22.7205 28.9132 22.3837 28.7102L15.995 24.8352L9.61999 28.7102C9.2832 28.9132 8.89406 29.0124 8.50121 28.9954C8.10836 28.9784 7.72923 28.846 7.41123 28.6147C7.09324 28.3834 6.85047 28.0635 6.7133 27.695C6.57613 27.3264 6.55063 26.9257 6.63999 26.5427L8.32624 19.2252L2.68749 14.2977C2.38925 14.0405 2.17359 13.701 2.06756 13.3217C1.96153 12.9424 1.96984 12.5402 2.09146 12.1656C2.21307 11.791 2.44258 11.4607 2.75119 11.216C3.0598 10.9713 3.43379 10.8232 3.82624 10.7902L11.2587 10.1465L14.16 3.22649C14.3115 2.86338 14.5671 2.55322 14.8945 2.33506C15.2219 2.1169 15.6065 2.00049 16 2.00049C16.3934 2.00049 16.7781 2.1169 17.1055 2.33506C17.4329 2.55322 17.6885 2.86338 17.84 3.22649L20.75 10.1465L28.18 10.7902C28.5724 10.8232 28.9464 10.9713 29.255 11.216C29.5637 11.4607 29.7932 11.791 29.9148 12.1656C30.0364 12.5402 30.0447 12.9424 29.9387 13.3217C29.8326 13.701 29.617 14.0405 29.3187 14.2977H29.3125Z" fill="black"/>
<path d="M15.9803 21.1195C15.4803 21.1195 15.03 21.0201 14.6295 20.8212C14.2289 20.6224 13.9079 20.3497 13.6664 20.0031C13.4249 19.6565 13.2928 19.2616 13.2701 18.8184H14.2928C14.3326 19.2133 14.5116 19.54 14.8297 19.7985C15.1508 20.0542 15.5343 20.182 15.9803 20.182C16.3383 20.182 16.6564 20.0982 16.9349 19.9306C17.2161 19.763 17.4363 19.5329 17.5954 19.2403C17.7573 18.9448 17.8383 18.611 17.8383 18.2389C17.8383 17.8582 17.7545 17.5187 17.5868 17.2204C17.4221 16.9193 17.1948 16.682 16.905 16.5087C16.6153 16.3354 16.2843 16.2474 15.9121 16.2445C15.6451 16.2417 15.3709 16.2829 15.0897 16.3681C14.8084 16.4505 14.5769 16.557 14.3951 16.6877L13.4064 16.5684L13.9349 12.2729H18.4689V13.2104H14.8212L14.5144 15.7843H14.5655C14.7445 15.6423 14.9689 15.5244 15.2388 15.4306C15.5087 15.3369 15.79 15.29 16.0826 15.29C16.6167 15.29 17.0925 15.4178 17.5101 15.6735C17.9306 15.9264 18.2601 16.2729 18.4988 16.7133C18.7403 17.1536 18.861 17.6565 18.861 18.2218C18.861 18.7786 18.736 19.2758 18.486 19.7133C18.2388 20.1479 17.8979 20.4917 17.4633 20.7445C17.0286 20.9945 16.5343 21.1195 15.9803 21.1195Z" fill="white"/>
</svg>
