<svg width="32" height="32" viewBox="0 0 32 32" fill="none" xmlns="http://www.w3.org/2000/svg">
<path d="M29.3125 14.2977L23.675 19.2177L25.3637 26.5427C25.4531 26.9257 25.4276 27.3264 25.2904 27.695C25.1533 28.0635 24.9105 28.3834 24.5925 28.6147C24.2745 28.846 23.8954 28.9784 23.5025 28.9954C23.1097 29.0124 22.7205 28.9132 22.3837 28.7102L15.995 24.8352L9.61999 28.7102C9.2832 28.9132 8.89406 29.0124 8.50121 28.9954C8.10836 28.9784 7.72923 28.846 7.41123 28.6147C7.09324 28.3834 6.85047 28.0635 6.7133 27.695C6.57613 27.3264 6.55063 26.9257 6.63999 26.5427L8.32624 19.2252L2.68749 14.2977C2.38925 14.0405 2.17359 13.701 2.06756 13.3217C1.96153 12.9424 1.96984 12.5402 2.09146 12.1656C2.21307 11.791 2.44258 11.4607 2.75119 11.216C3.0598 10.9713 3.43379 10.8232 3.82624 10.7902L11.2587 10.1465L14.16 3.22649C14.3115 2.86338 14.5671 2.55322 14.8945 2.33506C15.2219 2.1169 15.6065 2.00049 16 2.00049C16.3934 2.00049 16.7781 2.1169 17.1055 2.33506C17.4329 2.55322 17.6885 2.86338 17.84 3.22649L20.75 10.1465L28.18 10.7902C28.5724 10.8232 28.9464 10.9713 29.255 11.216C29.5637 11.4607 29.7932 11.791 29.9148 12.1656C30.0364 12.5402 30.0447 12.9424 29.9387 13.3217C29.8326 13.701 29.617 14.0405 29.3187 14.2977H29.3125Z" fill="black"/>
<path d="M13.2706 20.9999V20.2329L16.1513 17.0795C16.4893 16.7101 16.7678 16.3891 16.9865 16.1164C17.2053 15.8408 17.3672 15.5823 17.4723 15.3408C17.5803 15.0965 17.6342 14.8408 17.6342 14.5738C17.6342 14.267 17.5604 14.0013 17.4126 13.7769C17.2678 13.5525 17.0689 13.3792 16.8161 13.257C16.5632 13.1349 16.2791 13.0738 15.9638 13.0738C15.6286 13.0738 15.3359 13.1434 15.0859 13.2826C14.8388 13.4189 14.647 13.6107 14.5107 13.8579C14.3771 14.105 14.3104 14.3948 14.3104 14.7272H13.3047C13.3047 14.2158 13.4226 13.767 13.6584 13.3806C13.8942 12.9942 14.2152 12.6931 14.6215 12.4772C15.0305 12.2613 15.4893 12.1533 15.9979 12.1533C16.5092 12.1533 16.9624 12.2613 17.3572 12.4772C17.7521 12.6931 18.0618 12.9843 18.2862 13.3508C18.5107 13.7172 18.6229 14.1249 18.6229 14.5738C18.6229 14.8948 18.5646 15.2087 18.4482 15.5155C18.3345 15.8195 18.1357 16.159 17.8516 16.534C17.5703 16.9062 17.1797 17.3607 16.6797 17.8976L14.7195 19.9942V20.0624H18.7763V20.9999H13.2706Z" fill="white"/>
</svg>
