<svg width="32" height="32" viewBox="0 0 32 32" fill="none" xmlns="http://www.w3.org/2000/svg">
<path d="M10.2861 6.84284C10.8381 6.84307 11.2859 7.29865 11.2861 7.86041C11.2861 8.42234 10.8382 8.87872 10.2861 8.87895H10C7.23875 8.879 5.00022 11.1566 5 13.9668V18.0381C5 20.8484 7.23861 23.1269 10 23.1269H13.5859L12.5859 22.1093C12.1957 21.7119 12.1955 21.0672 12.5859 20.6699C12.9764 20.2725 13.6095 20.2727 14 20.6699L16.707 23.4247C17.0976 23.8222 17.0976 24.4667 16.707 24.8642L13.9141 27.7021C13.5235 28.0992 12.8904 28.0994 12.5 27.7021C12.1098 27.3047 12.11 26.661 12.5 26.2636L13.5859 25.162H10C6.13404 25.162 3 21.9726 3 18.0381V13.9668C3.00022 10.0325 6.13418 6.84288 10 6.84284H10.2861ZM18.0859 4.29793C18.4765 3.90079 19.1096 3.90059 19.5 4.29793C19.8904 4.69528 19.8902 5.3399 19.5 5.73737L18.4141 6.83795H22C25.8658 6.83799 28.9998 10.0276 29 13.9619V18.0332C29 21.9677 25.866 25.1571 22 25.1572H21.7139C21.1618 25.1569 20.7139 24.7015 20.7139 24.1396C20.7139 23.5777 21.1618 23.1222 21.7139 23.122H22C24.7614 23.122 27 20.8436 27 18.0332V13.9619C26.9998 11.1517 24.7613 8.87411 22 8.87407H18.4141L19.4141 9.89164C19.8041 10.2891 19.8042 10.9328 19.4141 11.3301C19.0236 11.7275 18.3905 11.7273 18 11.3301L15.293 8.57524C14.9026 8.17786 14.9027 7.53423 15.293 7.13678L18.0859 4.29793Z" fill="black"/>
</svg>
