<svg width="32" height="32" viewBox="0 0 32 32" fill="none" xmlns="http://www.w3.org/2000/svg">
<path d="M28.7 28.7127C28.5133 28.8965 28.262 28.9998 28 29.0002C27.7345 28.9991 27.4795 28.8962 27.2875 28.7127L21.8875 23.3002C19.6132 25.2104 16.6893 26.169 13.7255 25.9758C10.7617 25.7826 7.98692 24.4528 5.97982 22.2635C3.97272 20.0742 2.8883 17.1946 2.95273 14.2252C3.01715 11.2558 4.22545 8.42596 6.32561 6.32579C8.42577 4.22563 11.2556 3.01733 14.225 2.95291C17.1944 2.88849 20.074 3.97291 22.2633 5.98C24.4526 7.9871 25.7825 10.7619 25.9756 13.7257C26.1688 16.6895 25.2103 19.6134 23.3 21.8877L28.7 27.2877C28.7945 27.3807 28.8695 27.4917 28.9207 27.614C28.972 27.7363 28.9983 27.8676 28.9983 28.0002C28.9983 28.1328 28.972 28.2641 28.9207 28.3864C28.8695 28.5087 28.7945 28.6196 28.7 28.7127ZM14.5 24.0002C16.3789 24.0002 18.2157 23.443 19.7779 22.3992C21.3402 21.3553 22.5578 19.8716 23.2769 18.1357C23.9959 16.3998 24.184 14.4897 23.8175 12.6468C23.4509 10.804 22.5461 9.11128 21.2175 7.78268C19.8889 6.45408 18.1962 5.54929 16.3534 5.18273C14.5105 4.81617 12.6004 5.00431 10.8645 5.72334C9.12862 6.44237 7.64492 7.66001 6.60105 9.22228C5.55718 10.7845 5.00001 12.6213 5.00001 14.5002C5.00332 17.0187 6.00527 19.4332 7.78615 21.2141C9.56703 22.9949 11.9815 23.9969 14.5 24.0002Z" fill="black"/>
</svg>
