<svg width="32" height="32" viewBox="0 0 32 32" fill="none" xmlns="http://www.w3.org/2000/svg">
<path d="M25.8 11.7998C28.1196 11.7998 30 13.6802 30 15.9998C30 18.3194 28.1196 20.1998 25.8 20.1998L6.2 20.1998C3.8804 20.1998 2 18.3194 2 15.9998C2 13.6802 3.8804 11.7998 6.2 11.7998L25.8 11.7998Z" fill="black"/>
<path d="M11.8 6.2C11.8 3.8804 13.6805 2 16 2C18.3196 2 20.2 3.8804 20.2 6.2V25.8C20.2 28.1196 18.3196 30 16 30C13.6805 30 11.8 28.1196 11.8 25.8V6.2Z" fill="black"/>
<path d="M11.8 6.2C11.8 3.8804 13.6805 2 16 2C18.3196 2 20.2 3.8804 20.2 6.2V25.8C20.2 28.1196 18.3196 30 16 30C13.6805 30 11.8 28.1196 11.8 25.8V6.2Z" fill="white" fill-opacity="0.4"/>
<path d="M25.9002 19.96C27.5404 21.6003 27.5404 24.2597 25.9002 25.8999C24.2599 27.5402 21.6005 27.5402 19.9603 25.8999L6.10055 12.0402C4.4603 10.3999 4.4603 7.74056 6.10055 6.10031C7.74081 4.46005 10.4002 4.46005 12.0404 6.10031L25.9002 19.96Z" fill="black"/>
<path d="M25.9002 19.96C27.5404 21.6003 27.5404 24.2597 25.9002 25.8999C24.2599 27.5402 21.6005 27.5402 19.9603 25.8999L6.10055 12.0402C4.4603 10.3999 4.4603 7.74056 6.10055 6.10031C7.74081 4.46005 10.4002 4.46005 12.0404 6.10031L25.9002 19.96Z" fill="white" fill-opacity="0.2"/>
<path d="M19.9603 6.10031C21.6005 4.46005 24.2599 4.46005 25.9002 6.10031C27.5404 7.74056 27.5404 10.3999 25.9002 12.0402L12.0404 25.8999C10.4002 27.5402 7.74081 27.5402 6.10055 25.8999C4.4603 24.2597 4.4603 21.6003 6.10055 19.96L19.9603 6.10031Z" fill="black"/>
<path d="M19.9603 6.10031C21.6005 4.46005 24.2599 4.46005 25.9002 6.10031C27.5404 7.74056 27.5404 10.3999 25.9002 12.0402L12.0404 25.8999C10.4002 27.5402 7.74081 27.5402 6.10055 25.8999C4.4603 24.2597 4.4603 21.6003 6.10055 19.96L19.9603 6.10031Z" fill="white" fill-opacity="0.3"/>
<path fill-rule="evenodd" clip-rule="evenodd" d="M16 6.2002C15.6907 6.2002 15.44 6.45092 15.44 6.7602V14.1074C15.44 14.2771 15.44 14.3619 15.4064 14.4012C15.3773 14.4352 15.3336 14.4533 15.289 14.4498C15.2375 14.4458 15.1775 14.3858 15.0576 14.2658L9.86227 9.07055C9.64358 8.85186 9.289 8.85186 9.07031 9.07055C8.85162 9.28924 8.85162 9.64382 9.07031 9.86251L14.2656 15.0578C14.3855 15.1777 14.4455 15.2377 14.4496 15.2892C14.4531 15.3339 14.435 15.3775 14.4009 15.4067C14.3617 15.4402 14.2768 15.4402 14.1072 15.4402H6.75995C6.45067 15.4402 6.19995 15.6909 6.19995 16.0002C6.19995 16.3095 6.45067 16.5602 6.75995 16.5602H14.1072C14.2768 16.5602 14.3617 16.5602 14.4009 16.5937C14.435 16.6228 14.4531 16.6665 14.4496 16.7112C14.4455 16.7627 14.3856 16.8226 14.2656 16.9426L9.07031 22.1379C8.85161 22.3566 8.85161 22.7111 9.07031 22.9298C9.289 23.1485 9.64357 23.1485 9.86227 22.9298L15.0576 17.7345C15.1775 17.6146 15.2375 17.5546 15.289 17.5506C15.3336 17.5471 15.3773 17.5651 15.4064 17.5992C15.44 17.6385 15.44 17.7233 15.44 17.8929V25.2402C15.44 25.5495 15.6907 25.8002 16 25.8002C16.3092 25.8002 16.56 25.5495 16.56 25.2402V17.8929C16.56 17.7233 16.56 17.6385 16.5935 17.5992C16.6226 17.5651 16.6663 17.5471 16.7109 17.5506C16.7624 17.5546 16.8224 17.6146 16.9423 17.7345L22.1376 22.9298C22.3563 23.1485 22.7109 23.1485 22.9296 22.9298C23.1483 22.7112 23.1483 22.3566 22.9296 22.1379L17.7343 16.9426C17.6144 16.8226 17.5544 16.7627 17.5503 16.7112C17.5468 16.6665 17.5649 16.6228 17.599 16.5937C17.6383 16.5602 17.7231 16.5602 17.8927 16.5602H25.24C25.5492 16.5602 25.8 16.3095 25.8 16.0002C25.8 15.6909 25.5492 15.4402 25.24 15.4402H17.8927C17.7231 15.4402 17.6383 15.4402 17.599 15.4067C17.5649 15.3775 17.5468 15.3339 17.5503 15.2892C17.5544 15.2377 17.6144 15.1777 17.7343 15.0578L22.9296 9.86251C23.1483 9.64382 23.1483 9.28924 22.9296 9.07055C22.7109 8.85186 22.3563 8.85186 22.1376 9.07055L16.9423 14.2658C16.8224 14.3858 16.7624 14.4458 16.7109 14.4498C16.6663 14.4533 16.6226 14.4352 16.5935 14.4012C16.56 14.3619 16.56 14.2771 16.56 14.1075V6.7602C16.56 6.45092 16.3092 6.2002 16 6.2002Z" fill="white"/>
</svg>
