<svg width="32" height="32" viewBox="0 0 32 32" fill="none" xmlns="http://www.w3.org/2000/svg">
<path opacity="0.2" d="M2 16C2 11.5817 5.58172 8 10 8H22C26.4183 8 30 11.5817 30 16C30 20.4183 26.4183 24 22 24H10C5.58172 24 2 20.4183 2 16Z" fill="black"/>
<g filter="url(#filter0_iiii_11899_40169)">
<path d="M2 16C2 11.5817 5.58172 8 10 8H22C26.4183 8 30 11.5817 30 16V16C30 20.4183 26.4183 24 22 24H10C5.58172 24 2 20.4183 2 16V16Z" fill="black"/>
</g>
<g filter="url(#filter1_d_11899_40169)">
<path d="M28 16C28 19.3137 25.3137 22 22 22C18.6863 22 16 19.3137 16 16C16 12.6863 18.6863 10 22 10C25.3137 10 28 12.6863 28 16Z" fill="white"/>
</g>
<defs>
<filter id="filter0_iiii_11899_40169" x="2" y="7.5" width="29" height="18" filterUnits="userSpaceOnUse" color-interpolation-filters="sRGB">
<feFlood flood-opacity="0" result="BackgroundImageFix"/>
<feBlend mode="normal" in="SourceGraphic" in2="BackgroundImageFix" result="shape"/>
<feColorMatrix in="SourceAlpha" type="matrix" values="0 0 0 0 0 0 0 0 0 0 0 0 0 0 0 0 0 0 127 0" result="hardAlpha"/>
<feOffset dx="1" dy="1.5"/>
<feGaussianBlur stdDeviation="2"/>
<feComposite in2="hardAlpha" operator="arithmetic" k2="-1" k3="1"/>
<feColorMatrix type="matrix" values="0 0 0 0 0 0 0 0 0 0 0 0 0 0 0 0 0 0 0.1 0"/>
<feBlend mode="normal" in2="shape" result="effect1_innerShadow_11899_40169"/>
<feColorMatrix in="SourceAlpha" type="matrix" values="0 0 0 0 0 0 0 0 0 0 0 0 0 0 0 0 0 0 127 0" result="hardAlpha"/>
<feOffset dx="1" dy="1.5"/>
<feGaussianBlur stdDeviation="2"/>
<feComposite in2="hardAlpha" operator="arithmetic" k2="-1" k3="1"/>
<feColorMatrix type="matrix" values="0 0 0 0 0 0 0 0 0 0 0 0 0 0 0 0 0 0 0.08 0"/>
<feBlend mode="overlay" in2="effect1_innerShadow_11899_40169" result="effect2_innerShadow_11899_40169"/>
<feColorMatrix in="SourceAlpha" type="matrix" values="0 0 0 0 0 0 0 0 0 0 0 0 0 0 0 0 0 0 127 0" result="hardAlpha"/>
<feOffset dy="-0.5"/>
<feGaussianBlur stdDeviation="0.5"/>
<feComposite in2="hardAlpha" operator="arithmetic" k2="-1" k3="1"/>
<feColorMatrix type="matrix" values="0 0 0 0 1 0 0 0 0 1 0 0 0 0 1 0 0 0 0.25 0"/>
<feBlend mode="normal" in2="effect2_innerShadow_11899_40169" result="effect3_innerShadow_11899_40169"/>
<feColorMatrix in="SourceAlpha" type="matrix" values="0 0 0 0 0 0 0 0 0 0 0 0 0 0 0 0 0 0 127 0" result="hardAlpha"/>
<feOffset dy="-0.5"/>
<feGaussianBlur stdDeviation="0.5"/>
<feComposite in2="hardAlpha" operator="arithmetic" k2="-1" k3="1"/>
<feColorMatrix type="matrix" values="0 0 0 0 1 0 0 0 0 1 0 0 0 0 1 0 0 0 0.3 0"/>
<feBlend mode="overlay" in2="effect3_innerShadow_11899_40169" result="effect4_innerShadow_11899_40169"/>
</filter>
<filter id="filter1_d_11899_40169" x="12" y="8" width="20" height="20" filterUnits="userSpaceOnUse" color-interpolation-filters="sRGB">
<feFlood flood-opacity="0" result="BackgroundImageFix"/>
<feColorMatrix in="SourceAlpha" type="matrix" values="0 0 0 0 0 0 0 0 0 0 0 0 0 0 0 0 0 0 127 0" result="hardAlpha"/>
<feOffset dy="2"/>
<feGaussianBlur stdDeviation="2"/>
<feComposite in2="hardAlpha" operator="out"/>
<feColorMatrix type="matrix" values="0 0 0 0 0 0 0 0 0 0 0 0 0 0 0 0 0 0 0.1 0"/>
<feBlend mode="normal" in2="BackgroundImageFix" result="effect1_dropShadow_11899_40169"/>
<feBlend mode="normal" in="SourceGraphic" in2="effect1_dropShadow_11899_40169" result="shape"/>
</filter>
</defs>
</svg>
