<svg xmlns="http://www.w3.org/2000/svg" width="32" height="32" fill="none" viewBox="0 0 32 32"><path fill="#000" d="M20.75 19a.75.75 0 0 1-.75.75h-8a.75.75 0 1 1 0-1.5h8a.75.75 0 0 1 .75.75M20 14.25h-8a.75.75 0 1 0 0 1.5h8a.75.75 0 1 0 0-1.5M26.75 6v21A1.75 1.75 0 0 1 25 28.75H7A1.75 1.75 0 0 1 5.25 27V6A1.75 1.75 0 0 1 7 4.25h4.646a5.74 5.74 0 0 1 8.708 0H25A1.75 1.75 0 0 1 26.75 6m-15 2v.25h8.5V8a4.25 4.25 0 0 0-8.5 0m13.5-2a.25.25 0 0 0-.25-.25h-3.709c.304.711.46 1.477.459 2.25v1a.75.75 0 0 1-.75.75H11a.75.75 0 0 1-.75-.75V8c0-.773.155-1.539.459-2.25H7a.25.25 0 0 0-.25.25v21a.25.25 0 0 0 .25.25h18a.25.25 0 0 0 .25-.25z"/></svg>