<svg xmlns="http://www.w3.org/2000/svg" width="32" height="32" fill="none" viewBox="0 0 32 32"><path fill="#000" fill-rule="evenodd" d="M13.5 9.5v3.3a.7.7 0 0 1-.7.7H9.5a4 4 0 1 1 4-4M4 9.5a5.5 5.5 0 1 1 11 0v3.3a2.2 2.2 0 0 1-2.2 2.2H9.5A5.5 5.5 0 0 1 4 9.5m5.5 9h3.3a.7.7 0 0 1 .7.7v3.3a4 4 0 1 1-4-4m-5.5 4A5.5 5.5 0 0 1 9.5 17h3.3a2.2 2.2 0 0 1 2.2 2.2v3.3a5.5 5.5 0 1 1-11 0m15.2-9h3.3a4 4 0 1 0-4-4v3.3a.7.7 0 0 0 .7.7M22.5 4A5.5 5.5 0 0 0 17 9.5v3.3a2.2 2.2 0 0 0 2.2 2.2h3.3a5.5 5.5 0 1 0 0-11m-3.3 14.5h3.3a4 4 0 1 1-4 4v-3.3a.7.7 0 0 1 .7-.7m-2.2.7a2.2 2.2 0 0 1 2.2-2.2h3.3a5.5 5.5 0 1 1-5.5 5.5z" clip-rule="evenodd"/></svg>