<svg xmlns="http://www.w3.org/2000/svg" width="32" height="32" fill="none" viewBox="0 0 32 32"><path fill="#000" fill-rule="evenodd" d="M19.25 5a.75.75 0 0 1 .75-.75h4A3.75 3.75 0 0 1 27.75 8v4a.75.75 0 0 1-1.5 0V8A2.25 2.25 0 0 0 24 5.75h-4a.75.75 0 0 1-.75-.75m-1.836 6.293 3.364 3.364a2 2 0 0 1 0 2.828l-3.364 3.364a2 2 0 0 1-2.828 0l-3.364-3.364a2 2 0 0 1 0-2.828l3.364-3.364a2 2 0 0 1 2.828 0m-1.06 1.06a.5.5 0 0 0-.708 0l-3.363 3.364a.5.5 0 0 0 0 .708l3.363 3.364a.5.5 0 0 0 .708 0l3.364-3.364a.5.5 0 0 0 0-.708zM12 27.75a.75.75 0 0 0 0-1.5H8A2.25 2.25 0 0 1 5.75 24v-4a.75.75 0 0 0-1.5 0v4A3.75 3.75 0 0 0 8 27.75zm-7-15a.75.75 0 0 1-.75-.75V8A3.75 3.75 0 0 1 8 4.25h4a.75.75 0 0 1 0 1.5H8A2.25 2.25 0 0 0 5.75 8v4a.75.75 0 0 1-.75.75M27.75 20a.75.75 0 0 0-1.5 0v4A2.25 2.25 0 0 1 24 26.25h-4a.75.75 0 0 0 0 1.5h4A3.75 3.75 0 0 0 27.75 24z" clip-rule="evenodd"/></svg>