<svg xmlns="http://www.w3.org/2000/svg" width="32" height="32" fill="none" viewBox="0 0 32 32"><path fill="#000" d="M19.889 17.766A4.751 4.751 0 0 0 17 9.246a4.75 4.75 0 0 0-2.889 8.52A8.2 8.2 0 0 0 10.4 20.55a.75.75 0 0 0 1.2.9 6.75 6.75 0 0 1 10.8 0 .75.75 0 0 0 1.2-.9 8.2 8.2 0 0 0-3.711-2.784M13.75 14a3.25 3.25 0 1 1 6.5 0 3.25 3.25 0 0 1-6.5 0M26 3.25H8A1.75 1.75 0 0 0 6.25 5v3.25H4a.75.75 0 0 0 0 1.5h2.25v5.5H4a.75.75 0 1 0 0 1.5h2.25v5.5H4a.75.75 0 1 0 0 1.5h2.25V27A1.75 1.75 0 0 0 8 28.75h18A1.75 1.75 0 0 0 27.75 27V5A1.75 1.75 0 0 0 26 3.25M26.25 27a.25.25 0 0 1-.25.25H8a.25.25 0 0 1-.25-.25V5A.25.25 0 0 1 8 4.75h18a.25.25 0 0 1 .25.25z"/></svg>