<svg xmlns="http://www.w3.org/2000/svg" width="32" height="32" fill="none" viewBox="0 0 32 32"><path fill="#000" d="M27.75 27a.75.75 0 0 1-.75.75H9a.75.75 0 1 1 0-1.5h18a.75.75 0 0 1 .75.75m3-10v3a.75.75 0 0 1-.75.75H7.634a4.72 4.72 0 0 1-4.55-3.385L1.325 11.5A1.75 1.75 0 0 1 3 9.25h1c.199 0 .39.08.53.22l2.781 2.78h3.263L9.34 8.554A1.75 1.75 0 0 1 11 6.25h1a.75.75 0 0 1 .531.22l5.78 5.78H26A4.75 4.75 0 0 1 30.75 17m-1.5 0A3.25 3.25 0 0 0 26 13.75h-8a.75.75 0 0 1-.53-.22l-5.78-5.78H11a.25.25 0 0 0-.238.329l1.563 4.683a.75.75 0 0 1-.711.988H7a.75.75 0 0 1-.53-.22l-2.78-2.78H3a.24.24 0 0 0-.2.101.24.24 0 0 0-.039.22l1.758 5.863a3.23 3.23 0 0 0 3.115 2.316H29.25z"/></svg>