<svg xmlns="http://www.w3.org/2000/svg" width="32" height="32" fill="none" viewBox="0 0 32 32"><path fill="#000" d="M16.57 19.513a.75.75 0 0 0-1.139 0l-6 7A.75.75 0 0 0 10 27.75h12a.75.75 0 0 0 .57-1.238zm-4.939 6.737 4.375-5.097 4.369 5.097zM28.75 8v14A2.75 2.75 0 0 1 26 24.75h-2a.75.75 0 1 1 0-1.5h2A1.25 1.25 0 0 0 27.25 22V8A1.25 1.25 0 0 0 26 6.75H6A1.25 1.25 0 0 0 4.75 8v14A1.25 1.25 0 0 0 6 23.25h2a.75.75 0 1 1 0 1.5H6A2.75 2.75 0 0 1 3.25 22V8A2.75 2.75 0 0 1 6 5.25h20A2.75 2.75 0 0 1 28.75 8"/></svg>