<svg xmlns="http://www.w3.org/2000/svg" width="32" height="32" fill="none" viewBox="0 0 32 32"><path fill="#000" d="M30.75 27a.75.75 0 0 1-.75.75H12a.75.75 0 1 1 0-1.5h18a.75.75 0 0 1 .75.75m-2.953-3.277L5.72 17.54a4.77 4.77 0 0 1-3.469-4.575V6a1.75 1.75 0 0 1 2.304-1.661l.683.229a.75.75 0 0 1 .468.456L7.08 8.815 11.25 10V6a1.75 1.75 0 0 1 2.304-1.661l.684.229a.75.75 0 0 1 .453.42l2.86 6.817 7.722 2.159a4.76 4.76 0 0 1 3.477 4.576V23a.75.75 0 0 1-.953.723m-.547-5.183a3.26 3.26 0 0 0-2.375-3.125l-8.073-2.25a.75.75 0 0 1-.488-.432l-2.875-6.838-.361-.125a.25.25 0 0 0-.328.23v5a.75.75 0 0 1-.955.721l-5.5-1.567a.75.75 0 0 1-.5-.466L4.418 5.875l-.34-.112a.25.25 0 0 0-.3.124A.25.25 0 0 0 3.75 6v6.965a3.26 3.26 0 0 0 2.375 3.125l21.125 5.916z"/></svg>