<svg xmlns="http://www.w3.org/2000/svg" width="32" height="32" fill="none" viewBox="0 0 32 32"><path fill="#000" d="M26 17.25h-9.25v-2.5H23A1.75 1.75 0 0 0 24.75 13V8A1.75 1.75 0 0 0 23 6.25h-6.25V4a.75.75 0 1 0-1.5 0v2.25H9A1.75 1.75 0 0 0 7.25 8v5A1.75 1.75 0 0 0 9 14.75h6.25v2.5H6A1.75 1.75 0 0 0 4.25 19v5A1.75 1.75 0 0 0 6 25.75h9.25V28a.75.75 0 1 0 1.5 0v-2.25H26A1.75 1.75 0 0 0 27.75 24v-5A1.75 1.75 0 0 0 26 17.25M8.75 13V8A.25.25 0 0 1 9 7.75h14a.25.25 0 0 1 .25.25v5a.25.25 0 0 1-.25.25H9a.25.25 0 0 1-.25-.25m17.5 11a.25.25 0 0 1-.25.25H6a.25.25 0 0 1-.25-.25v-5a.25.25 0 0 1 .25-.25h20a.25.25 0 0 1 .25.25z"/></svg>