<svg xmlns="http://www.w3.org/2000/svg" width="32" height="32" fill="none" viewBox="0 0 32 32"><path fill="#000" d="M5.75 5v22a.75.75 0 1 1-1.5 0V5a.75.75 0 0 1 1.5 0m2.5 8V8A1.75 1.75 0 0 1 10 6.25h12A1.75 1.75 0 0 1 23.75 8v5A1.75 1.75 0 0 1 22 14.75H10A1.75 1.75 0 0 1 8.25 13m1.5 0a.25.25 0 0 0 .25.25h12a.25.25 0 0 0 .25-.25V8a.25.25 0 0 0-.25-.25H10a.25.25 0 0 0-.25.25zm19 6v5A1.75 1.75 0 0 1 27 25.75H10A1.75 1.75 0 0 1 8.25 24v-5A1.75 1.75 0 0 1 10 17.25h17A1.75 1.75 0 0 1 28.75 19m-1.5 0a.25.25 0 0 0-.25-.25H10a.25.25 0 0 0-.25.25v5a.25.25 0 0 0 .25.25h17a.25.25 0 0 0 .25-.25z"/></svg>