<svg xmlns="http://www.w3.org/2000/svg" width="32" height="32" fill="none" viewBox="0 0 32 32"><path fill="#000" d="M27.75 5a.75.75 0 0 1-.75.75H5a.75.75 0 0 1 0-1.5h22a.75.75 0 0 1 .75.75m-2 5v12A1.75 1.75 0 0 1 24 23.75h-5A1.75 1.75 0 0 1 17.25 22V10A1.75 1.75 0 0 1 19 8.25h5A1.75 1.75 0 0 1 25.75 10m-1.5 0a.25.25 0 0 0-.25-.25h-5a.25.25 0 0 0-.25.25v12a.25.25 0 0 0 .25.25h5a.25.25 0 0 0 .25-.25zm-9.5 0v17A1.75 1.75 0 0 1 13 28.75H8A1.75 1.75 0 0 1 6.25 27V10A1.75 1.75 0 0 1 8 8.25h5A1.75 1.75 0 0 1 14.75 10m-1.5 0a.25.25 0 0 0-.25-.25H8a.25.25 0 0 0-.25.25v17a.25.25 0 0 0 .25.25h5a.25.25 0 0 0 .25-.25z"/></svg>