<svg xmlns="http://www.w3.org/2000/svg" width="32" height="32" fill="none" viewBox="0 0 32 32"><path fill="#000" d="M30.75 21v4a.75.75 0 1 1-1.5 0v-2.19l-.708.707C28.2 23.894 23.607 28.75 16 28.75c-7.75 0-12.365-5.034-12.558-5.25a.75.75 0 1 1 1.115-1c.043.046 4.387 4.75 11.443 4.75s11.4-4.705 11.444-4.75l.026-.027.72-.72H26a.75.75 0 1 1 0-1.5h4a.75.75 0 0 1 .75.747m-10.5-8.555V10.5a4.75 4.75 0 0 0-8.983-2.159.75.75 0 1 1-1.335-.682A6.25 6.25 0 0 1 21.75 10.5V22a.75.75 0 1 1-1.5 0v-1.445a6.25 6.25 0 1 1 0-8.11m0 4.055a4.75 4.75 0 1 0-9.501 0 4.75 4.75 0 0 0 9.5 0"/></svg>