<svg xmlns="http://www.w3.org/2000/svg" width="32" height="32" fill="none" viewBox="0 0 32 32"><path fill="#000" d="M27 17.25a.75.75 0 0 0-.75.75A5.25 5.25 0 0 1 21 23.25a5.74 5.74 0 0 0-4.25 1.885V15.75H21a.75.75 0 1 0 0-1.5h-4.25v-3.575a3.75 3.75 0 1 0-1.5 0v3.575H11a.75.75 0 1 0 0 1.5h4.25v9.385A5.73 5.73 0 0 0 11 23.25 5.25 5.25 0 0 1 5.75 18a.75.75 0 0 0-1.5 0A6.76 6.76 0 0 0 11 24.75 4.25 4.25 0 0 1 15.25 29a.75.75 0 1 0 1.5 0A4.25 4.25 0 0 1 21 24.75 6.76 6.76 0 0 0 27.75 18a.75.75 0 0 0-.75-.75M13.75 7a2.25 2.25 0 1 1 4.5 0 2.25 2.25 0 0 1-4.5 0"/></svg>