<svg xmlns="http://www.w3.org/2000/svg" width="32" height="32" fill="none" viewBox="0 0 32 32"><path fill="#000" d="M21.75 19.5a1.25 1.25 0 1 1-2.5 0 1.25 1.25 0 0 1 2.5 0M11.5 18.25a1.25 1.25 0 1 0 0 2.5 1.25 1.25 0 0 0 0-2.5M29.75 21v3A1.75 1.75 0 0 1 28 25.75H4A1.75 1.75 0 0 1 2.25 24v-2.859a13.93 13.93 0 0 1 4.535-10.296L3.47 7.53a.75.75 0 1 1 1.06-1.06l3.421 3.42a13.57 13.57 0 0 1 8-2.64H16c2.9-.008 5.728.908 8.073 2.616L27.47 6.47a.75.75 0 0 1 1.06 1.06l-3.289 3.289q.237.215.465.441A13.66 13.66 0 0 1 29.75 21m-1.5 0A12.25 12.25 0 0 0 16 8.75h-.044C9.226 8.774 3.75 14.333 3.75 21.141V24a.25.25 0 0 0 .25.25h24a.25.25 0 0 0 .25-.25z"/></svg>