<svg xmlns="http://www.w3.org/2000/svg" width="32" height="32" fill="none" viewBox="0 0 32 32"><path fill="#000" d="m28.289 8.308-12-5a.76.76 0 0 0-.578 0l-12 5a.75.75 0 0 0-.455.79l2 15a.75.75 0 0 0 .41.573l10 5a.75.75 0 0 0 .67 0l10-5a.75.75 0 0 0 .408-.572l2-15a.75.75 0 0 0-.455-.792m-2.98 15.2L16 28.16l-9.309-4.654L4.816 9.472 16 4.813 27.18 9.47zm-9.965-12.875-5 9a.75.75 0 0 0 1.312.727l1.452-2.61h5.785l1.45 2.614a.75.75 0 1 0 1.312-.728l-5-9a.75.75 0 0 0-1.312 0zm2.715 5.617H13.94l2.06-3.706z"/></svg>