<svg xmlns="http://www.w3.org/2000/svg" width="32" height="32" fill="none" viewBox="0 0 32 32"><path fill="#000" d="M25.015 6.985A12.75 12.75 0 1 0 7.131 25.162 12.75 12.75 0 0 0 25.015 6.985m-12.75 8.334 2.456-2.893 3.733.683 1.276 3.572-2.456 2.893-3.733-.683zm13.976-3.983a11.28 11.28 0 0 1-.25 9.829l-7.017-1.28zm-.77-1.41-4.617 5.435-3.771-10.558c2.6.243 5.033 1.39 6.875 3.242.57.572 1.077 1.202 1.513 1.881M8.045 8.051a11.17 11.17 0 0 1 7.431-3.288l2.399 6.714L6.844 9.465a11.4 11.4 0 0 1 1.201-1.419zM6 10.835l7.018 1.28-7.26 8.549a11.28 11.28 0 0 1 .25-9.829zm.526 11.239 4.618-5.435 3.771 10.559a11.16 11.16 0 0 1-6.875-3.243 11.4 11.4 0 0 1-1.511-1.881zm17.427 1.875a11.17 11.17 0 0 1-7.432 3.282l-2.396-6.709 11.03 2.014a11.4 11.4 0 0 1-1.2 1.419z"/></svg>