<svg xmlns="http://www.w3.org/2000/svg" width="32" height="32" fill="none" viewBox="0 0 32 32"><path fill="#000" d="M27.425 20.98c-2.211-1.519-2.675-4.09-2.675-5.98 0-2.302 1.733-4.286 2.765-5.265a.75.75 0 0 0 0-1.089C26 7.212 23.384 6.25 21 6.25a8.78 8.78 0 0 0-5 1.569 8.7 8.7 0 0 0-11.164 1.01 9.08 9.08 0 0 0-2.586 6.59A15.64 15.64 0 0 0 7.191 26.46a4.73 4.73 0 0 0 3.259 1.29h10.963a4.73 4.73 0 0 0 3.462-1.491 15.3 15.3 0 0 0 2.192-3.025c.82-1.5.722-1.719.625-1.935a.76.76 0 0 0-.267-.319m-3.654 4.25a3.23 3.23 0 0 1-2.358 1.02H10.45a3.23 3.23 0 0 1-2.227-.875 14.15 14.15 0 0 1-4.473-10 7.57 7.57 0 0 1 2.151-5.5A7.1 7.1 0 0 1 11 7.75h.101a7.17 7.17 0 0 1 4.43 1.589.75.75 0 0 0 .938 0A7.17 7.17 0 0 1 21 7.75c1.736 0 3.601.585 4.889 1.5-1.18 1.268-2.638 3.324-2.638 5.75 0 2.973.976 5.325 2.833 6.846a13.4 13.4 0 0 1-2.313 3.39zm-7.5-21.424A4.75 4.75 0 0 1 20.875.25H21a.75.75 0 1 1 0 1.5h-.125a3.25 3.25 0 0 0-3.148 2.438.75.75 0 1 1-1.452-.375z"/></svg>