<svg xmlns="http://www.w3.org/2000/svg" width="32" height="32" fill="none" viewBox="0 0 32 32"><path fill="#000" d="M18.875 17.4a3.75 3.75 0 1 0-5.757 0 2.77 2.77 0 0 0-1.814 2.04 2.7 2.7 0 0 0 .027 1.23l1.523 6a2.77 2.77 0 0 0 2.701 2.08h.89a2.77 2.77 0 0 0 2.697-2.08l1.523-6a2.71 2.71 0 0 0-.492-2.346 2.77 2.77 0 0 0-1.298-.924M16 12.75a2.25 2.25 0 1 1 0 4.499 2.25 2.25 0 0 1 0-4.499m3.211 7.55-1.522 6a1.274 1.274 0 0 1-1.244.95h-.89a1.274 1.274 0 0 1-1.25-.95l-1.522-6a1.22 1.22 0 0 1 .222-1.055 1.28 1.28 0 0 1 1.02-.5h3.937a1.28 1.28 0 0 1 1.02.5 1.22 1.22 0 0 1 .23 1.055M23.25 16a7.25 7.25 0 1 0-14.271 1.813.75.75 0 1 1-1.453.375 8.75 8.75 0 1 1 16.948 0 .75.75 0 1 1-1.451-.375A7.2 7.2 0 0 0 23.25 16m5.5 0a12.74 12.74 0 0 1-5.699 10.625.75.75 0 0 1-.831-1.25 11.25 11.25 0 1 0-12.44 0 .75.75 0 0 1-.831 1.25A12.75 12.75 0 1 1 28.75 16"/></svg>