<svg xmlns="http://www.w3.org/2000/svg" width="32" height="32" fill="none" viewBox="0 0 32 32"><path fill="#000" d="m27.671 8.665-2-4A.75.75 0 0 0 25 4.25H7a.75.75 0 0 0-.671.415l-2 4A.76.76 0 0 0 4.25 9v17A1.75 1.75 0 0 0 6 27.75h20A1.75 1.75 0 0 0 27.75 26V9a.76.76 0 0 0-.079-.335M7.464 5.75h17.072l1.25 2.5H6.214zM26 26.25H6a.25.25 0 0 1-.25-.25V9.75h20.5V26a.25.25 0 0 1-.25.25m-5.47-7.78a.75.75 0 0 1 0 1.06l-4 4a.75.75 0 0 1-1.06 0l-4-4a.75.75 0 0 1 1.06-1.06l2.72 2.719V13a.75.75 0 1 1 1.5 0v8.189l2.72-2.719a.75.75 0 0 1 1.06 0"/></svg>