<svg xmlns="http://www.w3.org/2000/svg" width="32" height="32" fill="none" viewBox="0 0 32 32"><path fill="#000" d="M28 6.25H4A1.75 1.75 0 0 0 2.25 8v3A1.75 1.75 0 0 0 4 12.75h.25V24A1.75 1.75 0 0 0 6 25.75h20A1.75 1.75 0 0 0 27.75 24V12.75H28A1.75 1.75 0 0 0 29.75 11V8A1.75 1.75 0 0 0 28 6.25M26.25 24a.25.25 0 0 1-.25.25H6a.25.25 0 0 1-.25-.25V12.75h20.5zm2-13a.25.25 0 0 1-.25.25H4a.25.25 0 0 1-.25-.25V8A.25.25 0 0 1 4 7.75h24a.25.25 0 0 1 .25.25zm-16 6a.75.75 0 0 1 .75-.75h6a.75.75 0 1 1 0 1.5h-6a.75.75 0 0 1-.75-.75"/></svg>