<svg xmlns="http://www.w3.org/2000/svg" width="32" height="32" fill="none" viewBox="0 0 32 32"><path fill="#000" d="M26.75 11.31V9A4.75 4.75 0 0 0 22 4.25H10A4.75 4.75 0 0 0 5.25 9v2.31a4.75 4.75 0 0 0 0 9.381V25A1.75 1.75 0 0 0 7 26.75h18A1.75 1.75 0 0 0 26.75 25v-4.309a4.75 4.75 0 0 0 0-9.375zM10 5.75h12A3.25 3.25 0 0 1 25.25 9v2.31a4.756 4.756 0 0 0-4 4.69v.25h-10.5V16a4.76 4.76 0 0 0-4-4.69V9A3.25 3.25 0 0 1 10 5.75m16.044 13.5H26a.75.75 0 0 0-.75.75v5a.25.25 0 0 1-.25.25H7a.25.25 0 0 1-.25-.25v-5a.75.75 0 0 0-.75-.75h-.044A3.25 3.25 0 1 1 9.25 16v5a.75.75 0 1 0 1.5 0v-3.25h10.5V21a.75.75 0 1 0 1.5 0v-5a3.25 3.25 0 1 1 3.294 3.25"/></svg>