<svg xmlns="http://www.w3.org/2000/svg" width="32" height="32" fill="none" viewBox="0 0 32 32"><path fill="#000" d="m28.53 14.47-12-12a.75.75 0 0 0-1.06 0l-12 12A.75.75 0 0 0 4 15.75h5.25V19a.75.75 0 0 0 .75.75h12a.75.75 0 0 0 .75-.75v-3.25H28a.75.75 0 0 0 .53-1.28M22 14.25a.75.75 0 0 0-.75.75v3.25h-10.5V15a.75.75 0 0 0-.75-.75H5.811l10.19-10.189 10.188 10.19zM22.75 27a.75.75 0 0 1-.75.75H10a.75.75 0 1 1 0-1.5h12a.75.75 0 0 1 .75.75m0-4a.75.75 0 0 1-.75.75H10a.75.75 0 1 1 0-1.5h12a.75.75 0 0 1 .75.75"/></svg>