<svg xmlns="http://www.w3.org/2000/svg" width="32" height="32" fill="none" viewBox="0 0 32 32"><path fill="#000" d="M11 12.75H5a.75.75 0 0 1-.75-.75V6a.75.75 0 0 1 1.5 0v3.658C7.551 7.468 11.043 4.25 16 4.25c5.25 0 8.399 3.089 8.53 3.22a.75.75 0 0 1-1.059 1.061C23.442 8.5 20.606 5.75 16 5.75c-4.801 0-8.155 3.61-9.581 5.5H11a.75.75 0 1 1 0 1.5m16 6.5h-6a.75.75 0 1 0 0 1.5h4.581c-1.426 1.89-4.78 5.5-9.581 5.5-4.606 0-7.443-2.75-7.471-2.781A.75.75 0 0 0 7.47 24.53c.131.131 3.28 3.22 8.53 3.22 4.958 0 8.449-3.219 10.25-5.407V26a.75.75 0 1 0 1.5 0v-6a.75.75 0 0 0-.75-.75"/></svg>