<svg xmlns="http://www.w3.org/2000/svg" width="32" height="32" fill="none" viewBox="0 0 32 32"><path fill="#000" d="M11.47 8.53a.75.75 0 0 1 1.06-1.06l2.72 2.719V3a.75.75 0 1 1 1.5 0v7.189l2.72-2.719a.75.75 0 0 1 1.06 1.06l-4 4a.75.75 0 0 1-1.06 0zm5.06 10.94a.75.75 0 0 0-1.06 0l-4 4a.75.75 0 0 0 1.06 1.06l2.72-2.719V29a.75.75 0 1 0 1.5 0v-7.189l2.72 2.719a.75.75 0 0 0 1.06-1.06zM29 15.25h-7.189l2.719-2.72a.75.75 0 0 0-1.06-1.06l-4 4a.75.75 0 0 0 0 1.06l4 4a.75.75 0 0 0 1.06-1.06l-2.719-2.72H29a.75.75 0 1 0 0-1.5m-16.47.22-4-4a.75.75 0 0 0-1.06 1.06l2.719 2.72H3a.75.75 0 1 0 0 1.5h7.189L7.47 19.47a.75.75 0 1 0 1.06 1.06l4-4a.75.75 0 0 0 0-1.06"/></svg>