<svg xmlns="http://www.w3.org/2000/svg" width="32" height="32" fill="none" viewBox="0 0 32 32"><path fill="#000" d="M24.53 23.47a.75.75 0 0 1 0 1.06c-.131.131-3.28 3.22-8.53 3.22-4.957 0-8.449-3.219-10.25-5.407V26a.75.75 0 1 1-1.5 0v-6a.75.75 0 0 1 .75-.75h6a.75.75 0 1 1 0 1.5H6.419c1.426 1.889 4.779 5.5 9.581 5.5 4.636 0 7.442-2.75 7.47-2.78a.75.75 0 0 1 1.06 0M27 5.25a.75.75 0 0 0-.75.75v3.658C24.449 7.468 20.958 4.25 16 4.25c-5.25 0-8.399 3.089-8.53 3.22a.75.75 0 0 0 1.06 1.06c.027-.03 2.834-2.78 7.47-2.78 4.802 0 8.155 3.611 9.581 5.5H21a.75.75 0 1 0 0 1.5h6a.75.75 0 0 0 .75-.75V6a.75.75 0 0 0-.75-.75"/></svg>