<svg xmlns="http://www.w3.org/2000/svg" width="32" height="32" fill="none" viewBox="0 0 32 32"><path fill="#000" d="M26.75 6v6a.75.75 0 1 1-1.5 0V7.81l-5.72 5.72a.75.75 0 0 1-1.06-1.06l5.72-5.72H20a.75.75 0 1 1 0-1.5h6a.75.75 0 0 1 .75.75M12.47 18.47l-5.72 5.72V20a.75.75 0 1 0-1.5 0v6a.75.75 0 0 0 .75.75h6a.75.75 0 1 0 0-1.5H7.81l5.72-5.72a.75.75 0 0 0-1.06-1.06m13.53.78a.75.75 0 0 0-.75.75v4.19l-5.72-5.72a.75.75 0 0 0-1.06 1.06l5.72 5.72H20a.75.75 0 1 0 0 1.5h6a.75.75 0 0 0 .75-.75v-6a.75.75 0 0 0-.75-.75M7.81 6.75H12a.75.75 0 1 0 0-1.5H6a.75.75 0 0 0-.75.75v6a.75.75 0 1 0 1.5 0V7.81l5.72 5.72a.75.75 0 0 0 1.06-1.06z"/></svg>