<svg xmlns="http://www.w3.org/2000/svg" width="32" height="32" fill="none" viewBox="0 0 32 32"><path fill="#000" d="M6.75 17a.75.75 0 0 1-.75.75H3a.75.75 0 1 1 0-1.5h1.25v-8.5H3a.75.75 0 0 1 0-1.5h2a.75.75 0 0 1 .636.35L10 13.585l4.364-6.983A.75.75 0 0 1 15 6.25h2a.75.75 0 1 1 0 1.5h-1.25v8.5H17a.75.75 0 1 1 0 1.5h-3a.75.75 0 1 1 0-1.5h.25V9.615l-3.614 5.783a.75.75 0 0 1-1.272 0L5.75 9.615v6.635H6a.75.75 0 0 1 .75.75M21 13.75h9a.75.75 0 1 0 0-1.5h-9a.75.75 0 1 0 0 1.5m9 2.5h-9a.75.75 0 1 0 0 1.5h9a.75.75 0 1 0 0-1.5m0 4H9a.75.75 0 1 0 0 1.5h21a.75.75 0 1 0 0-1.5m0 4H9a.75.75 0 1 0 0 1.5h21a.75.75 0 1 0 0-1.5"/></svg>