<svg xmlns="http://www.w3.org/2000/svg" width="32" height="32" fill="none" viewBox="0 0 32 32"><path fill="#000" d="M19.25 13a.75.75 0 0 1 .75-.75h10a.75.75 0 1 1 0 1.5H20a.75.75 0 0 1-.75-.75M30 16.25H20a.75.75 0 1 0 0 1.5h10a.75.75 0 1 0 0-1.5m0 4H20a.75.75 0 1 0 0 1.5h10a.75.75 0 1 0 0-1.5m0 4H9a.75.75 0 1 0 0 1.5h21a.75.75 0 1 0 0-1.5m-20-2.5a6.74 6.74 0 0 1-6.175-9.467A3.25 3.25 0 0 1 5.5 6.25a.75.75 0 0 1 .364.094l8.815 4.897A1.75 1.75 0 0 0 14.5 7.75a.75.75 0 1 1 0-1.5 3.25 3.25 0 0 1 0 6.5.75.75 0 0 1-.364-.094L9.058 9.834a5.25 5.25 0 0 0 .192 10.361V15a.75.75 0 1 1 1.5 0v5.195a5.26 5.26 0 0 0 4.201-3.445.751.751 0 0 1 1.415.5A6.76 6.76 0 0 1 10 21.75M4.58 10.988a6.8 6.8 0 0 1 2.676-2.154L5.321 7.759a1.75 1.75 0 0 0-.741 3.229"/></svg>