<svg xmlns="http://www.w3.org/2000/svg" width="32" height="32" fill="none" viewBox="0 0 32 32"><path fill="#000" d="M16 3.25a12.75 12.75 0 0 0 0 25.5c2.641 0 5.414-.794 7.415-2.125a.75.75 0 1 0-.831-1.25C20.846 26.531 18.323 27.25 16 27.25A11.25 11.25 0 1 1 27.25 16c0 3.698-1.723 4.25-2.75 4.25s-2.75-.552-2.75-4.25v-5a.75.75 0 1 0-1.5 0v1.125a5.75 5.75 0 1 0 .543 7.04c.677 1.66 1.957 2.585 3.707 2.585 2.661 0 4.25-2.15 4.25-5.75A12.765 12.765 0 0 0 16 3.25m0 17a4.25 4.25 0 1 1 0-8.5 4.25 4.25 0 0 1 0 8.5"/></svg>