<svg xmlns="http://www.w3.org/2000/svg" width="32" height="32" fill="none" viewBox="0 0 32 32"><path fill="#000" d="M24.229 16a24.5 24.5 0 0 0 2.487-4.206c1.343-2.985 1.375-5.333.1-6.61s-3.625-1.243-6.61.1A24.5 24.5 0 0 0 16 7.77a24.5 24.5 0 0 0-4.206-2.487c-2.985-1.343-5.333-1.375-6.61-.1s-1.243 3.625.1 6.61A24.5 24.5 0 0 0 7.77 16a24.5 24.5 0 0 0-2.487 4.206c-1.343 2.985-1.375 5.333-.1 6.61.625.625 1.5.934 2.578.934 1.138 0 2.5-.345 4.032-1.034A24.5 24.5 0 0 0 16 24.23c1.315.967 2.725 1.8 4.206 2.487 1.531.689 2.894 1.034 4.031 1.034 1.08 0 1.957-.311 2.58-.934 1.278-1.277 1.242-3.625-.1-6.61A24.5 24.5 0 0 0 24.228 16m1.52-9.75c1.16 1.16.296 4.536-2.474 8.5a38 38 0 0 0-2.848-3.181A38 38 0 0 0 17.25 8.72c3.969-2.769 7.346-3.635 8.5-2.47M22.352 16a36 36 0 0 1-2.976 3.375A36 36 0 0 1 16 22.36a36 36 0 0 1-3.375-2.985A36 36 0 0 1 9.64 16 37 37 0 0 1 16 9.643 36.3 36.3 0 0 1 22.356 16zM6.25 6.25c.335-.336.855-.5 1.521-.5 1.639 0 4.163 1 6.984 2.976A38 38 0 0 0 8.72 14.75c-2.77-3.969-3.635-7.345-2.47-8.5m0 19.5c-1.16-1.16-.294-4.536 2.475-8.5a38 38 0 0 0 2.847 3.181 38 38 0 0 0 3.178 2.849c-3.969 2.77-7.345 3.635-8.5 2.47m19.5 0c-1.16 1.16-4.536.294-8.5-2.476a38 38 0 0 0 3.181-2.847 38 38 0 0 0 2.849-3.177c2.77 3.969 3.635 7.345 2.47 8.5M17.25 16a1.25 1.25 0 1 1-2.5 0 1.25 1.25 0 0 1 2.5 0"/></svg>