<svg xmlns="http://www.w3.org/2000/svg" width="32" height="32" fill="none" viewBox="0 0 32 32"><path fill="#000" d="M27 5.25H8.566a1.75 1.75 0 0 0-1.5.85l-5.708 9.514a.75.75 0 0 0 0 .772L7.066 25.9a1.75 1.75 0 0 0 1.5.85H27A1.75 1.75 0 0 0 28.75 25V7A1.75 1.75 0 0 0 27 5.25M27.25 25a.25.25 0 0 1-.25.25H8.566a.25.25 0 0 1-.213-.125L2.875 16l5.478-9.125a.25.25 0 0 1 .213-.125H27a.25.25 0 0 1 .25.25zm-6.72-11.47L18.06 16l2.47 2.47a.75.75 0 1 1-1.06 1.06L17 17.06l-2.47 2.47a.75.75 0 0 1-1.06-1.06L15.94 16l-2.47-2.47a.75.75 0 0 1 1.06-1.06L17 14.94l2.47-2.47a.75.75 0 0 1 1.06 1.06"/></svg>