<svg xmlns="http://www.w3.org/2000/svg" width="32" height="32" fill="none" viewBox="0 0 32 32"><path fill="#000" d="M16 2.25A10.763 10.763 0 0 0 5.25 13c0 2.875 1.155 6.065 3.089 8.534 1.546 1.974 3.403 3.302 5.381 3.884l-1.409 3.287A.75.75 0 0 0 13 29.75h6a.75.75 0 0 0 .689-1.045l-1.409-3.287c1.977-.582 3.835-1.91 5.375-3.884 1.94-2.469 3.095-5.659 3.095-8.534A10.76 10.76 0 0 0 16 2.25M14.021 25.5l.073.017a.3.3 0 0 1-.073-.017m3.842 2.75h-3.726l1.088-2.539a7.8 7.8 0 0 0 1.55 0zm-1.863-4c-4.19 0-9.25-5.019-9.25-11.25a9.25 9.25 0 1 1 18.5 0c0 6.231-5.06 11.25-9.25 11.25m6.125-11.51a.75.75 0 0 1-.864-.615 5.41 5.41 0 0 0-4.386-4.385.75.75 0 1 1 .25-1.48 6.935 6.935 0 0 1 5.615 5.615.75.75 0 0 1-.615.865"/></svg>