<svg xmlns="http://www.w3.org/2000/svg" width="32" height="32" fill="none" viewBox="0 0 32 32"><path fill="#000" d="m22.718 16 3.64-3.641a4.75 4.75 0 1 0-6.717-6.718l-3.64 3.642-3.642-3.642A4.75 4.75 0 1 0 5.64 12.36L9.283 16 5.64 19.641a4.75 4.75 0 1 0 6.718 6.718L16 22.717l3.641 3.642a4.752 4.752 0 0 0 7.756-1.537 4.75 4.75 0 0 0-1.038-5.18zm-2.015-9.297a3.25 3.25 0 1 1 4.595 4.596l-3.642 3.641-4.595-4.596zM20.596 16 16 20.596 11.404 16 16 11.404zM6.703 11.297a3.25 3.25 0 1 1 4.595-4.595l3.64 3.642-4.594 4.596zm4.595 14a3.249 3.249 0 1 1-4.595-4.594l3.64-3.642 4.596 4.595zm14 0a3.25 3.25 0 0 1-4.595 0l-3.643-3.64 4.596-4.597 3.642 3.643a3.25 3.25 0 0 1 0 4.595M14.75 16a1.25 1.25 0 1 1 2.5 0 1.25 1.25 0 0 1-2.5 0"/></svg>