<svg xmlns="http://www.w3.org/2000/svg" width="32" height="32" fill="none" viewBox="0 0 32 32"><path fill="#000" d="M31 15.25h-1.25V11A1.75 1.75 0 0 0 28 9.25h-2.25V8A1.75 1.75 0 0 0 24 6.25h-3A1.75 1.75 0 0 0 19.25 8v7.25h-6.5V8A1.75 1.75 0 0 0 11 6.25H8A1.75 1.75 0 0 0 6.25 8v1.25H4A1.75 1.75 0 0 0 2.25 11v4.25H1a.75.75 0 1 0 0 1.5h1.25V21A1.75 1.75 0 0 0 4 22.75h2.25V24A1.75 1.75 0 0 0 8 25.75h3A1.75 1.75 0 0 0 12.75 24v-7.25h6.5V24A1.75 1.75 0 0 0 21 25.75h3A1.75 1.75 0 0 0 25.75 24v-1.25H28A1.75 1.75 0 0 0 29.75 21v-4.25H31a.75.75 0 1 0 0-1.5m-27 6a.25.25 0 0 1-.25-.25V11a.25.25 0 0 1 .25-.25h2.25v10.5zM11.25 24a.25.25 0 0 1-.25.25H8a.25.25 0 0 1-.25-.25V8A.25.25 0 0 1 8 7.75h3a.25.25 0 0 1 .25.25zm13 0a.25.25 0 0 1-.25.25h-3a.25.25 0 0 1-.25-.25V8a.25.25 0 0 1 .25-.25h3a.25.25 0 0 1 .25.25zm4-3a.25.25 0 0 1-.25.25h-2.25v-10.5H28a.25.25 0 0 1 .25.25z"/></svg>