<svg xmlns="http://www.w3.org/2000/svg" width="32" height="32" fill="none" viewBox="0 0 32 32"><path fill="#000" d="M16 3.25A12.765 12.765 0 0 0 3.25 16v7a2.75 2.75 0 0 0 4.375 2.218C9.172 24.093 11.883 22.75 16 22.75c4.118 0 6.826 1.341 8.375 2.466A2.75 2.75 0 0 0 28.75 23v-7A12.765 12.765 0 0 0 16 3.25M27.25 16v1.563a20.5 20.5 0 0 0-5.6-2.538 20.63 20.63 0 0 0-3.939-10.15A11.27 11.27 0 0 1 27.25 16m-7.151-1.348a21.1 21.1 0 0 0-8.198 0c.625-4.797 3.02-8.198 4.099-9.517 1.079 1.321 3.475 4.721 4.099 9.519zm-5.81-9.777a20.63 20.63 0 0 0-3.939 10.151 20.5 20.5 0 0 0-5.6 2.538V16a11.27 11.27 0 0 1 9.539-11.125M26.57 24.106A1.24 1.24 0 0 1 25.25 24c-1.727-1.25-4.735-2.75-9.25-2.75S8.473 22.75 6.75 24a1.24 1.24 0 0 1-1.316.106A1.22 1.22 0 0 1 4.75 23v-3.625a19.25 19.25 0 0 1 22.5 0V23a1.22 1.22 0 0 1-.679 1.111z"/></svg>