<svg xmlns="http://www.w3.org/2000/svg" width="32" height="32" fill="none" viewBox="0 0 32 32"><path fill="#000" d="M16.75 15v7a.75.75 0 1 1-1.5 0v-7a.75.75 0 1 1 1.5 0m12.985-2.769-1.735 13a1.75 1.75 0 0 1-1.734 1.519H5.734A1.75 1.75 0 0 1 4 25.231l-1.734-13A1.75 1.75 0 0 1 4 10.25h4.66l6.775-7.744a.75.75 0 0 1 1.125 0l6.775 7.75H28a1.75 1.75 0 0 1 1.734 1.982zM10.653 10.25h10.695L16 4.139zm17.535 1.585A.25.25 0 0 0 28 11.75H4a.25.25 0 0 0-.25.283l1.733 13a.25.25 0 0 0 .25.216h20.533a.25.25 0 0 0 .25-.216l1.734-13a.24.24 0 0 0-.062-.198m-5.513 2.415a.75.75 0 0 0-.821.671l-.7 7a.75.75 0 0 0 .671.829h.076a.75.75 0 0 0 .75-.675l.7-7a.75.75 0 0 0-.676-.825m-12.529.675a.75.75 0 0 0-1.492.15l.7 7a.75.75 0 0 0 .75.675h.076a.75.75 0 0 0 .671-.821z"/></svg>