<svg xmlns="http://www.w3.org/2000/svg" width="32" height="32" fill="none" viewBox="0 0 32 32"><path fill="#000" d="M16 3.25A12.75 12.75 0 1 0 28.75 16 12.765 12.765 0 0 0 16 3.25M7.5 8.636a11.15 11.15 0 0 1 2.723 6.614H4.775A11.2 11.2 0 0 1 7.5 8.636M4.775 16.75h5.448A11.15 11.15 0 0 1 7.5 23.364a11.2 11.2 0 0 1-2.725-6.614M15.25 27.225a11.2 11.2 0 0 1-6.687-2.793 12.65 12.65 0 0 0 3.164-7.682h3.523zm0-11.975h-3.523a12.65 12.65 0 0 0-3.164-7.682 11.2 11.2 0 0 1 6.687-2.793zm11.975 0h-5.448A11.15 11.15 0 0 1 24.5 8.636a11.2 11.2 0 0 1 2.725 6.614M16.75 4.775a11.2 11.2 0 0 1 6.688 2.792 12.65 12.65 0 0 0-3.165 7.683H16.75zm0 22.45V16.75h3.523a12.65 12.65 0 0 0 3.165 7.683 11.2 11.2 0 0 1-6.688 2.792m7.75-3.861a11.15 11.15 0 0 1-2.722-6.614h5.447a11.2 11.2 0 0 1-2.725 6.614"/></svg>