<svg xmlns="http://www.w3.org/2000/svg" width="32" height="32" fill="none" viewBox="0 0 32 32"><path fill="#000" d="M11.25 1A.75.75 0 0 1 12 .25h8a.75.75 0 1 1 0 1.5h-8a.75.75 0 0 1-.75-.75m13.5 6v21A2.75 2.75 0 0 1 22 30.75H10A2.75 2.75 0 0 1 7.25 28V7A2.75 2.75 0 0 1 10 4.25h12A2.75 2.75 0 0 1 24.75 7m-1.5 0A1.25 1.25 0 0 0 22 5.75H10A1.25 1.25 0 0 0 8.75 7v21A1.25 1.25 0 0 0 10 29.25h12A1.25 1.25 0 0 0 23.25 28zM20 14.25h-8a.75.75 0 1 0 0 1.5h8a.75.75 0 1 0 0-1.5m0 5h-8a.75.75 0 1 0 0 1.5h8a.75.75 0 1 0 0-1.5m0 5h-8a.75.75 0 1 0 0 1.5h8a.75.75 0 1 0 0-1.5"/></svg>