<svg xmlns="http://www.w3.org/2000/svg" width="32" height="32" fill="none" viewBox="0 0 32 32"><path fill="#000" d="M15.25 17v-5a.75.75 0 1 1 1.5 0v5a.75.75 0 1 1-1.5 0m.75 3.25a1.25 1.25 0 1 0 0 2.5 1.25 1.25 0 0 0 0-2.5m-4-18.5h8a.75.75 0 1 0 0-1.5h-8a.75.75 0 1 0 0 1.5M24.75 7v21A2.75 2.75 0 0 1 22 30.75H10A2.75 2.75 0 0 1 7.25 28V7A2.75 2.75 0 0 1 10 4.25h12A2.75 2.75 0 0 1 24.75 7m-1.5 0A1.25 1.25 0 0 0 22 5.75H10A1.25 1.25 0 0 0 8.75 7v21A1.25 1.25 0 0 0 10 29.25h12A1.25 1.25 0 0 0 23.25 28z"/></svg>