<svg xmlns="http://www.w3.org/2000/svg" width="32" height="32" fill="none" viewBox="0 0 32 32"><path fill="#000" d="M25 7.25H4A2.75 2.75 0 0 0 1.25 10v12A2.75 2.75 0 0 0 4 24.75h21A2.75 2.75 0 0 0 27.75 22V10A2.75 2.75 0 0 0 25 7.25M26.25 22A1.25 1.25 0 0 1 25 23.25H4A1.25 1.25 0 0 1 2.75 22V10A1.25 1.25 0 0 1 4 8.75h21A1.25 1.25 0 0 1 26.25 10zm-3.5-10v8a.75.75 0 1 1-1.5 0v-8a.75.75 0 1 1 1.5 0m-5 0v8a.75.75 0 1 1-1.5 0v-8a.75.75 0 1 1 1.5 0m-5 0v8a.75.75 0 1 1-1.5 0v-8a.75.75 0 1 1 1.5 0m-5 0v8a.75.75 0 1 1-1.5 0v-8a.75.75 0 1 1 1.5 0m24 0v8a.75.75 0 1 1-1.5 0v-8a.75.75 0 1 1 1.5 0"/></svg>