<svg xmlns="http://www.w3.org/2000/svg" width="32" height="32" fill="none" viewBox="0 0 32 32"><path fill="#000" d="M27 11.25h-2.25V9A4.75 4.75 0 0 0 20 4.25h-1.491c-1.45-1.275-3.439-2-5.509-2-4.274 0-7.75 3.028-7.75 6.75v17A1.75 1.75 0 0 0 7 27.75h16A1.75 1.75 0 0 0 24.75 26v-1.25H27A2.75 2.75 0 0 0 29.75 22v-8A2.75 2.75 0 0 0 27 11.25m-14-7.5c1.797 0 3.51.652 4.699 1.791a.75.75 0 0 0 .518.209H20a3.25 3.25 0 0 1 3.161 2.5H6.815C7.25 5.709 9.857 3.75 13 3.75M23.25 26a.25.25 0 0 1-.25.25H7a.25.25 0 0 1-.25-.25V9.75h16.5zm5-4A1.25 1.25 0 0 1 27 23.25h-2.25v-10.5H27A1.25 1.25 0 0 1 28.25 14zm-15.5-9v10a.75.75 0 1 1-1.5 0V13a.75.75 0 1 1 1.5 0m6 0v10a.75.75 0 1 1-1.5 0V13a.75.75 0 1 1 1.5 0"/></svg>