<svg xmlns="http://www.w3.org/2000/svg" width="32" height="32" fill="none" viewBox="0 0 32 32"><path fill="#000" d="m30.53 5.47-4-4a.75.75 0 0 0-1.06 1.06l.389.389-7.173 5.375-4.834.967a.74.74 0 0 0-.382.205L3.055 19.884a2.75 2.75 0 0 0 0 3.889l5.173 5.172a2.75 2.75 0 0 0 3.888 0L22.53 18.53a.74.74 0 0 0 .205-.383l.968-4.833 5.375-7.173.388.389a.75.75 0 0 0 1.06-1.06zM11.055 27.884a1.25 1.25 0 0 1-1.767 0l-5.172-5.172a1.25 1.25 0 0 1 0-1.767L5 20.061 11.939 27zM13 25.939 6.061 19 12 13.061 18.939 20zm9.4-13.389a.7.7 0 0 0-.135.302l-.956 4.773L20 18.939 13.061 12l1.314-1.309 4.778-.956a.7.7 0 0 0 .302-.135l7.48-5.61 1.08 1.08z"/></svg>