<svg xmlns="http://www.w3.org/2000/svg" width="32" height="32" fill="none" viewBox="0 0 32 32"><path fill="#000" d="M27.881 8.666a.75.75 0 0 1-1.006-.321 12 12 0 0 0-4.275-4.71.75.75 0 0 1 .8-1.269A13.66 13.66 0 0 1 28.2 7.655a.75.75 0 0 1-.32 1.011M5.125 8.345A12 12 0 0 1 9.4 3.635a.75.75 0 0 0-.8-1.269 13.66 13.66 0 0 0-4.801 5.289.75.75 0 1 0 1.326.69M27.5 22.117A1.75 1.75 0 0 1 26 24.75h-5.313a4.75 4.75 0 0 1-9.375 0H6a1.75 1.75 0 0 1-1.508-2.633C5.642 20.138 6.25 17.33 6.25 14a9.75 9.75 0 1 1 19.5 0c0 3.375.592 6.108 1.76 8.118zM19.16 24.75H12.84a3.25 3.25 0 0 0 6.322 0m7.053-1.875C24.91 20.625 24.25 17.644 24.25 14a8.25 8.25 0 1 0-16.5 0c0 3.645-.661 6.625-1.964 8.875a.25.25 0 0 0 0 .25.24.24 0 0 0 .213.125h20a.24.24 0 0 0 .213-.125.25.25 0 0 0 .002-.25"/></svg>