<svg xmlns="http://www.w3.org/2000/svg" width="32" height="32" fill="none" viewBox="0 0 32 32"><path fill="#000" d="M20.74 28a.75.75 0 0 1-.75.75h-8a.75.75 0 0 1 0-1.5h8a.75.75 0 0 1 .75.75m7.461-20.346A13.65 13.65 0 0 0 23.4 2.366a.75.75 0 0 0-.8 1.268 12 12 0 0 1 4.275 4.711.751.751 0 0 0 1.413-.41.8.8 0 0 0-.082-.281zm-23.076.691A12 12 0 0 1 9.4 3.634a.75.75 0 0 0-.8-1.268 13.65 13.65 0 0 0-4.801 5.288.75.75 0 1 0 1.326.691M27.5 22.116A1.75 1.75 0 0 1 26 24.75H6a1.75 1.75 0 0 1-1.507-2.625C5.64 20.135 6.25 17.328 6.25 14a9.75 9.75 0 1 1 19.5 0c0 3.375.593 6.105 1.76 8.116zm-1.296.75C24.91 20.625 24.25 17.642 24.25 14a8.25 8.25 0 1 0-16.5 0c0 3.645-.661 6.625-1.964 8.875a.25.25 0 0 0 0 .25.24.24 0 0 0 .213.125H26a.24.24 0 0 0 .212-.125.25.25 0 0 0 .002-.25z"/></svg>