<svg xmlns="http://www.w3.org/2000/svg" width="32" height="32" fill="none" viewBox="0 0 32 32"><path fill="#000" d="M27.509 22.118C26.8 20.9 25.75 17.466 25.75 13a9.75 9.75 0 1 0-19.5 0c0 4.468-1.052 7.9-1.76 9.118A1.75 1.75 0 0 0 6 24.75h5.31a4.75 4.75 0 0 0 9.375 0H26a1.75 1.75 0 0 0 1.508-2.633M16 27.25a3.25 3.25 0 0 1-3.161-2.5h6.322A3.25 3.25 0 0 1 16 27.25m10.214-4.125a.24.24 0 0 1-.213.125H6a.24.24 0 0 1-.212-.125.25.25 0 0 1 0-.25C6.734 21.25 7.75 17.461 7.75 13a8.25 8.25 0 0 1 16.5 0c0 4.46 1.017 8.244 1.964 9.875a.25.25 0 0 1 0 .25"/></svg>