<svg xmlns="http://www.w3.org/2000/svg" width="32" height="32" fill="none" viewBox="0 0 32 32"><path fill="#000" d="M6.555 4.5a.75.75 0 0 0-1.11 1l2.219 2.445A9.7 9.7 0 0 0 6.25 13c0 4.468-1.052 7.9-1.76 9.118A1.75 1.75 0 0 0 6 24.75h5.313a4.75 4.75 0 0 0 9.375 0h2.25l2.5 2.75a.75.75 0 0 0 1.11-1.01zM16 27.25a3.25 3.25 0 0 1-3.161-2.5h6.322A3.25 3.25 0 0 1 16 27.25m-10-4a.24.24 0 0 1-.212-.125.25.25 0 0 1 0-.25C6.733 21.25 7.75 17.461 7.75 13a8.2 8.2 0 0 1 .973-3.89l12.855 14.14zm20.661-1.078a.75.75 0 0 1-.973-.424c-.9-2.288-1.435-5.56-1.435-8.75A8.25 8.25 0 0 0 11.93 5.822a.75.75 0 1 1-.741-1.304A9.75 9.75 0 0 1 25.75 13c0 4.462 1.02 7.405 1.332 8.201a.75.75 0 0 1-.423.971z"/></svg>