<svg xmlns="http://www.w3.org/2000/svg" width="32" height="32" fill="none" viewBox="0 0 32 32"><path fill="#000" d="M27.43 18.275a11.83 11.83 0 0 0-5.69-7.525H30a.75.75 0 1 0 0-1.5H19.675a3.75 3.75 0 0 0-7.35 0H2a.75.75 0 1 0 0 1.5h8.26a11.83 11.83 0 0 0-5.69 7.525 3.75 3.75 0 1 0 1.511.135 10.32 10.32 0 0 1 6.425-7.049 3.75 3.75 0 0 0 6.988 0 10.32 10.32 0 0 1 6.425 7.049 3.75 3.75 0 1 0 1.511-.135M7.25 22a2.25 2.25 0 1 1-4.5 0 2.25 2.25 0 0 1 4.5 0M16 12.25a2.25 2.25 0 1 1 0-4.5 2.25 2.25 0 0 1 0 4.5m11 12a2.25 2.25 0 1 1 0-4.5 2.25 2.25 0 0 1 0 4.5"/></svg>