<svg xmlns="http://www.w3.org/2000/svg" width="32" height="32" fill="none" viewBox="0 0 32 32"><path fill="#000" d="M26 14.25c-.764 0-1.52.152-2.225.447L20.306 8.75H24A1.25 1.25 0 0 1 25.25 10a.75.75 0 1 0 1.5 0A2.75 2.75 0 0 0 24 7.25h-5a.75.75 0 0 0-.648 1.125l1.675 2.875h-7.763l-2.116-3.625A.75.75 0 0 0 9.5 7.25H6a.75.75 0 0 0 0 1.5h3.069l1.875 3.205-2.194 2.998a5.778 5.778 0 1 0 1.21.886l1.804-2.464 4.089 7a.75.75 0 0 0 1.023.273.75.75 0 0 0 .27-1.026l-4.009-6.874h7.764l1.579 2.707A5.75 5.75 0 1 0 26 14.25M10.25 20a4.25 4.25 0 1 1-2.391-3.821l-2.465 3.375a.75.75 0 0 0 1.212.885l2.463-3.375A4.24 4.24 0 0 1 10.25 20M26 24.25a4.25 4.25 0 0 1-2.75-7.483l2.102 3.608a.75.75 0 0 0 1.024.273.75.75 0 0 0 .27-1.026L24.54 16.01A4.249 4.249 0 1 1 26 24.25"/></svg>