<svg xmlns="http://www.w3.org/2000/svg" width="32" height="32" fill="none" viewBox="0 0 32 32"><path fill="#000" d="m29.125 18.405-5.196-11.83a.8.8 0 0 0-.156-.229 3.75 3.75 0 0 0-5.303 0 .75.75 0 0 0-.22.529v3.375h-4.5V6.875a.75.75 0 0 0-.22-.531 3.75 3.75 0 0 0-5.303 0 .8.8 0 0 0-.156.228L2.875 18.405A5.75 5.75 0 1 0 13.75 21v-9.25h4.5V21a5.75 5.75 0 1 0 10.875-2.595M8 25.25a4.25 4.25 0 1 1 0-8.5 4.25 4.25 0 0 1 0 8.5m0-10a5.7 5.7 0 0 0-2.319.49l3.701-8.423a2.25 2.25 0 0 1 2.868-.103v9.911A5.74 5.74 0 0 0 8 15.25m11.75-8.035a2.25 2.25 0 0 1 2.867.104l3.702 8.421a5.74 5.74 0 0 0-6.569 1.385zM24 25.25a4.25 4.25 0 1 1 0-8.5 4.25 4.25 0 0 1 0 8.5"/></svg>