<svg xmlns="http://www.w3.org/2000/svg" width="32" height="32" fill="none" viewBox="0 0 32 32"><path fill="#000" d="M21.75 8.5a1.25 1.25 0 1 1-2.5 0 1.25 1.25 0 0 1 2.5 0m-6.27 7.924a.75.75 0 0 0-1.056.096l-5 6a.75.75 0 1 0 1.152.96l5-6a.75.75 0 0 0-.096-1.056M29.75 10a.75.75 0 0 1-.334.625l-2.666 1.776V15A12.765 12.765 0 0 1 14 27.75H1a.751.751 0 0 1-.586-1.219L12.25 11.738V9.5a7.25 7.25 0 0 1 14.189-2.109l2.977 1.984a.75.75 0 0 1 .334.625m-2.102 0-2.273-1.515a.75.75 0 0 1-.309-.435A5.75 5.75 0 0 0 13.75 9.5V12a.75.75 0 0 1-.164.469L2.56 26.25H14A11.26 11.26 0 0 0 25.25 15v-3a.75.75 0 0 1 .334-.625z"/></svg>