<svg xmlns="http://www.w3.org/2000/svg" width="32" height="32" fill="none" viewBox="0 0 32 32"><path fill="#000" d="m27.554 14.066-1.804-.602V7A1.75 1.75 0 0 0 24 5.25h-7.25V3a.75.75 0 1 0-1.5 0v2.25H8A1.75 1.75 0 0 0 6.25 7v6.464l-1.804.602a1.75 1.75 0 0 0-1.196 1.661v4.285q0 .105.029.206c1.926 6.75 10.605 9.087 12.325 9.487.26.06.532.06.792 0 1.72-.4 10.399-2.735 12.325-9.487a.8.8 0 0 0 .029-.206v-4.285a1.75 1.75 0 0 0-1.196-1.66M7.75 7A.25.25 0 0 1 8 6.75h16a.25.25 0 0 1 .25.25v5.963l-8.012-2.674a.75.75 0 0 0-.476 0L7.75 12.963zm19.5 12.905c-.734 2.453-2.625 4.537-5.625 6.195a23 23 0 0 1-5.569 2.15.25.25 0 0 1-.112 0 23 23 0 0 1-5.569-2.15c-3-1.658-4.889-3.742-5.625-6.195v-4.178a.25.25 0 0 1 .171-.238L15.25 12.04V21a.75.75 0 1 0 1.5 0v-8.959l10.329 3.448a.25.25 0 0 1 .171.238z"/></svg>