<svg xmlns="http://www.w3.org/2000/svg" width="32" height="32" fill="none" viewBox="0 0 32 32"><path fill="#000" d="M28.768 7.771A4.24 4.24 0 0 0 25.75 6.25a4.25 4.25 0 1 0-7.851 2.5.25.25 0 0 1-.029.318l-8.8 8.807a.26.26 0 0 1-.319.029 4.25 4.25 0 1 0-2.5 7.846 4.25 4.25 0 1 0 7.85-2.5.25.25 0 0 1 .03-.317l8.8-8.8a.25.25 0 0 1 .317-.03 4.25 4.25 0 0 0 5.518-6.33zm-1.193 4.539a2.75 2.75 0 0 1-3.53.521 1.75 1.75 0 0 0-2.175.24l-8.799 8.804a1.75 1.75 0 0 0-.24 2.175 2.749 2.749 0 1 1-5.05 1.032.75.75 0 0 0-.858-.857 2.75 2.75 0 1 1 1.032-5.051 1.75 1.75 0 0 0 2.17-.245l8.804-8.804a1.75 1.75 0 0 0 .24-2.175 2.75 2.75 0 1 1 5.051-1.032.75.75 0 0 0 .858.857 2.75 2.75 0 0 1 2.5 4.53z"/></svg>