<svg xmlns="http://www.w3.org/2000/svg" width="32" height="32" fill="none" viewBox="0 0 32 32"><path fill="#000" d="M13 4.25H7A1.75 1.75 0 0 0 5.25 6v20A1.75 1.75 0 0 0 7 27.75h6A1.75 1.75 0 0 0 14.75 26V6A1.75 1.75 0 0 0 13 4.25m-6.25 5.5h6.5v12.5h-6.5zm.25-4h6a.25.25 0 0 1 .25.25v2.25h-6.5V6A.25.25 0 0 1 7 5.75m6 20.5H7a.25.25 0 0 1-.25-.25v-2.25h6.5V26a.25.25 0 0 1-.25.25m15.712-1.875-4.148-19.73a1.75 1.75 0 0 0-2.079-1.356l-5.851 1.257a1.76 1.76 0 0 0-1.347 2.079l4.15 19.726a1.75 1.75 0 0 0 .762 1.113 1.73 1.73 0 0 0 1.321.242l5.851-1.256a1.76 1.76 0 0 0 1.342-2.075M18.362 13.96l6.34-1.363 1.765 8.396-6.342 1.358zm-.83-3.945 6.343-1.366.519 2.476-6.341 1.363zm-.582-4 5.85-1.256a.3.3 0 0 1 .052 0q.072 0 .132.04a.25.25 0 0 1 .111.164l.469 2.227-6.34 1.353-.468-2.223a.26.26 0 0 1 .194-.307zM27.051 24.99 21.2 26.25a.24.24 0 0 1-.184-.034.25.25 0 0 1-.111-.164l-.469-2.227 6.34-1.363.474 2.217a.26.26 0 0 1-.199.309z"/></svg>