<svg xmlns="http://www.w3.org/2000/svg" width="32" height="32" fill="none" viewBox="0 0 32 32"><path fill="#000" d="M28 6.25h-8a4.75 4.75 0 0 0-4 2.194 4.75 4.75 0 0 0-4-2.194H4A1.75 1.75 0 0 0 2.25 8v16A1.75 1.75 0 0 0 4 25.75h8A3.25 3.25 0 0 1 15.25 29a.75.75 0 1 0 1.5 0A3.25 3.25 0 0 1 20 25.75h8A1.75 1.75 0 0 0 29.75 24V8A1.75 1.75 0 0 0 28 6.25m-16 18H4a.25.25 0 0 1-.25-.25V8A.25.25 0 0 1 4 7.75h8A3.25 3.25 0 0 1 15.25 11v14.539A4.73 4.73 0 0 0 12 24.25M28.25 24a.25.25 0 0 1-.25.25h-8a4.73 4.73 0 0 0-3.25 1.29V11A3.25 3.25 0 0 1 20 7.75h8a.25.25 0 0 1 .25.25z"/></svg>