<svg xmlns="http://www.w3.org/2000/svg" width="32" height="32" fill="none" viewBox="0 0 32 32"><path fill="#000" d="M24 14.25h-4.25V7A1.75 1.75 0 0 0 18 5.25H4a.75.75 0 0 0-.7 1.019c1.125 2.93 1.391 9.615-.021 14.523A.8.8 0 0 0 3.25 21v4A1.75 1.75 0 0 0 5 26.75h3.264c.271 0 .54-.063.782-.185l1.579-.789a.25.25 0 0 1 .113-.026h2.027q.06 0 .112.026l1.578.789c.243.122.51.185.783.185h3.527c.272 0 .54-.063.782-.185l1.578-.789a.25.25 0 0 1 .113-.026h2.027q.06 0 .113.026l1.577.789c.243.122.51.185.783.185H29A1.75 1.75 0 0 0 30.75 25v-4A6.76 6.76 0 0 0 24 14.25M5.034 6.75H18a.25.25 0 0 1 .25.25v3.25H14a.75.75 0 1 0 0 1.5h4.25v2.5H14a.75.75 0 1 0 0 1.5h10a5.256 5.256 0 0 1 5.195 4.5H4.969c.92-3.945 1.12-9.711.065-13.5M29.25 25a.25.25 0 0 1-.25.25h-3.264a.25.25 0 0 1-.112-.026l-1.578-.789a1.75 1.75 0 0 0-.782-.185h-2.028c-.271 0-.54.063-.782.185l-1.579.789a.25.25 0 0 1-.113.026h-3.526a.25.25 0 0 1-.112-.026l-1.578-.789a1.75 1.75 0 0 0-.782-.185h-2.028c-.271 0-.54.063-.782.185l-1.579.789a.25.25 0 0 1-.113.026H5a.25.25 0 0 1-.25-.25v-3.25h24.5z"/></svg>