<svg xmlns="http://www.w3.org/2000/svg" width="32" height="32" fill="none" viewBox="0 0 32 32"><path fill="#000" d="M26 11.75A1.75 1.75 0 0 0 27.75 10V6A1.75 1.75 0 0 0 26 4.25h-4A1.75 1.75 0 0 0 20.25 6v1.25h-8.5V6A1.75 1.75 0 0 0 10 4.25H6A1.75 1.75 0 0 0 4.25 6v4A1.75 1.75 0 0 0 6 11.75h1.25v8.5H6A1.75 1.75 0 0 0 4.25 22v4A1.75 1.75 0 0 0 6 27.75h4A1.75 1.75 0 0 0 11.75 26v-1.25h8.5V26A1.75 1.75 0 0 0 22 27.75h4A1.75 1.75 0 0 0 27.75 26v-4A1.75 1.75 0 0 0 26 20.25h-1.25v-8.5zM21.75 6a.25.25 0 0 1 .25-.25h4a.25.25 0 0 1 .25.25v4a.25.25 0 0 1-.25.25h-4a.25.25 0 0 1-.25-.25zm-16 4V6A.25.25 0 0 1 6 5.75h4a.25.25 0 0 1 .25.25v4a.25.25 0 0 1-.25.25H6a.25.25 0 0 1-.25-.25m4.5 16a.25.25 0 0 1-.25.25H6a.25.25 0 0 1-.25-.25v-4a.25.25 0 0 1 .25-.25h4a.25.25 0 0 1 .25.25zm16-4v4a.25.25 0 0 1-.25.25h-4a.25.25 0 0 1-.25-.25v-4a.25.25 0 0 1 .25-.25h4a.25.25 0 0 1 .25.25m-3-1.75H22A1.75 1.75 0 0 0 20.25 22v1.25h-8.5V22A1.75 1.75 0 0 0 10 20.25H8.75v-8.5H10A1.75 1.75 0 0 0 11.75 10V8.75h8.5V10A1.75 1.75 0 0 0 22 11.75h1.25z"/></svg>