<svg xmlns="http://www.w3.org/2000/svg" width="32" height="32" fill="none" viewBox="0 0 32 32"><path fill="#000" d="M28 13.25h-1.279a10.75 10.75 0 0 0-21.442 0H4a.75.75 0 0 0-.75.75 12.79 12.79 0 0 0 7 11.383V26A1.75 1.75 0 0 0 12 27.75h8A1.75 1.75 0 0 0 21.75 26v-.617a12.79 12.79 0 0 0 7-11.383.75.75 0 0 0-.75-.75m-6.22-6.464q.545.437 1.019.95a10.74 10.74 0 0 0-6.444 5.514h-4.187A9.28 9.28 0 0 1 21 6.75q.39.002.78.036m2.008 2.232a9.2 9.2 0 0 1 1.43 4.232H18.06a9.24 9.24 0 0 1 5.728-4.232M16 4.75a9.2 9.2 0 0 1 3.35.625 10.79 10.79 0 0 0-8.743 7.875H6.784A9.26 9.26 0 0 1 16 4.75m4.688 19.48a.75.75 0 0 0-.438.683V26a.25.25 0 0 1-.25.25h-8a.25.25 0 0 1-.25-.25v-1.087a.75.75 0 0 0-.437-.683 11.29 11.29 0 0 1-6.538-9.48h22.45a11.3 11.3 0 0 1-6.538 9.48"/></svg>