<svg xmlns="http://www.w3.org/2000/svg" width="32" height="32" fill="none" viewBox="0 0 32 32"><path fill="#000" d="M4.989 16c.513.349.922.83 1.186 1.391.575 1.187.575 2.673.575 4.109 0 3.034.151 4.75 3.25 4.75a.75.75 0 1 1 0 1.5c-2.11 0-3.476-.7-4.175-2.141-.575-1.187-.575-2.673-.575-4.109 0-3.034-.151-4.75-3.25-4.75a.75.75 0 1 1 0-1.5c3.099 0 3.25-1.716 3.25-4.75 0-1.436 0-2.923.575-4.109C6.524 4.95 7.89 4.25 10 4.25a.75.75 0 1 1 0 1.5c-3.099 0-3.25 1.716-3.25 4.75 0 1.436 0 2.922-.575 4.109A3.46 3.46 0 0 1 4.989 16M30 15.25c-3.099 0-3.25-1.716-3.25-4.75 0-1.436 0-2.923-.575-4.109C25.476 4.95 24.11 4.25 22 4.25a.75.75 0 1 0 0 1.5c3.099 0 3.25 1.716 3.25 4.75 0 1.436 0 2.922.575 4.109A3.46 3.46 0 0 0 27.011 16a3.46 3.46 0 0 0-1.186 1.391c-.575 1.187-.575 2.673-.575 4.109 0 3.034-.151 4.75-3.25 4.75a.75.75 0 1 0 0 1.5c2.11 0 3.476-.7 4.175-2.141.575-1.187.575-2.673.575-4.109 0-3.034.151-4.75 3.25-4.75a.75.75 0 1 0 0-1.5"/></svg>