<svg xmlns="http://www.w3.org/2000/svg" width="32" height="32" fill="none" viewBox="0 0 32 32"><path fill="#000" d="M7.065 8c-1.536 2.182-2.315 4.875-2.315 8s.779 5.817 2.315 8c1.146 1.625 2.311 2.351 2.324 2.359a.75.75 0 0 1-.775 1.283C8.395 27.513 3.25 24.33 3.25 16S8.395 4.489 8.614 4.358a.75.75 0 0 1 .775 1.283C9.375 5.65 8.21 6.375 7.065 8m16.321-3.642a.75.75 0 0 0-.775 1.283c.013.008 1.178.73 2.324 2.359 1.536 2.182 2.315 4.875 2.315 8s-.779 5.817-2.315 8c-1.146 1.625-2.311 2.351-2.321 2.356a.75.75 0 1 0 .772 1.286c.219-.125 5.364-3.313 5.364-11.642S23.605 4.489 23.386 4.358"/></svg>