<svg xmlns="http://www.w3.org/2000/svg" width="32" height="32" fill="none" viewBox="0 0 32 32"><path fill="#000" d="M30.75 15.5a6.77 6.77 0 0 0-4-6.166V9A5.75 5.75 0 0 0 16 6.166 5.75 5.75 0 0 0 5.25 9v.334a6.75 6.75 0 0 0 0 12.329V22A5.75 5.75 0 0 0 16 24.834 5.75 5.75 0 0 0 26.75 22v-.337a6.76 6.76 0 0 0 4-6.163M11 26.25a4.25 4.25 0 0 1-4.25-4.117q.619.117 1.25.117h1a.75.75 0 1 0 0-1.5H8a5.25 5.25 0 0 1-1.75-10.201.75.75 0 0 0 .5-.708V9a4.25 4.25 0 0 1 8.5 0v9.131A5.74 5.74 0 0 0 11 16.25a.75.75 0 1 0 0 1.5 4.25 4.25 0 1 1 0 8.5m13-5.5h-1a.75.75 0 1 0 0 1.5h1q.631 0 1.25-.117A4.25 4.25 0 1 1 21 17.75a.75.75 0 1 0 0-1.5 5.74 5.74 0 0 0-4.25 1.881V9a4.25 4.25 0 0 1 8.5 0v.841a.75.75 0 0 0 .5.708A5.25 5.25 0 0 1 24 20.75M25.75 14a.75.75 0 0 1-.75.75h-.5a4.25 4.25 0 0 1-4.25-4.25V10a.75.75 0 1 1 1.5 0v.5a2.75 2.75 0 0 0 2.75 2.75h.5a.75.75 0 0 1 .75.75m-18.25.75H7a.75.75 0 1 1 0-1.5h.5a2.75 2.75 0 0 0 2.75-2.75V10a.75.75 0 1 1 1.5 0v.5a4.25 4.25 0 0 1-4.25 4.25"/></svg>