<svg xmlns="http://www.w3.org/2000/svg" width="32" height="32" fill="none" viewBox="0 0 32 32"><path fill="#000" d="M29 20.25h-4.25v-8.34a8.73 8.73 0 0 0 3.969 3.204.75.75 0 0 0 .994-.407.75.75 0 0 0-.432-.983A7.225 7.225 0 0 1 24.751 7a.75.75 0 1 0-1.5 0 7.25 7.25 0 1 1-14.5 0 .75.75 0 0 0-1.5 0 7.225 7.225 0 0 1-4.532 6.724.75.75 0 1 0 .562 1.39 8.73 8.73 0 0 0 3.97-3.204v8.34H3a.75.75 0 1 0 0 1.5h4.25V25a.75.75 0 1 0 1.5 0v-3.25h14.5V25a.75.75 0 1 0 1.5 0v-3.25H29a.75.75 0 1 0 0-1.5m-10.75-4.794v4.794h-4.5v-4.794a8.77 8.77 0 0 0 4.5 0m-9.5-3.562a8.8 8.8 0 0 0 3.5 3.011v5.345h-3.5zm11 8.356v-5.345a8.8 8.8 0 0 0 3.5-3.011v8.356z"/></svg>