<svg xmlns="http://www.w3.org/2000/svg" width="32" height="32" fill="none" viewBox="0 0 32 32"><path fill="#000" d="M16 11.25a4.75 4.75 0 1 0 0 9.5 4.75 4.75 0 0 0 0-9.5m0 8a3.25 3.25 0 1 1 0-6.5 3.25 3.25 0 0 1 0 6.5M25.75 16a9.72 9.72 0 0 1-2.483 6.5.75.75 0 0 1-1.117-1 8.24 8.24 0 0 0 0-11 .75.75 0 1 1 1.117-1A9.72 9.72 0 0 1 25.75 16M8.398 12.789A8.24 8.24 0 0 0 9.85 21.5a.75.75 0 0 1-1.117 1 9.74 9.74 0 0 1 0-13 .75.75 0 1 1 1.117 1 8.3 8.3 0 0 0-1.452 2.289M30.75 16a14.71 14.71 0 0 1-4.214 10.323.75.75 0 0 1-1.072-1.05 13.235 13.235 0 0 0 0-18.546.749.749 0 0 1 .544-1.275.75.75 0 0 1 .528.225A14.71 14.71 0 0 1 30.75 16M6.536 25.273a.75.75 0 1 1-1.072 1.05 14.74 14.74 0 0 1 0-20.646.75.75 0 1 1 1.072 1.05 13.235 13.235 0 0 0 0 18.546"/></svg>