<svg xmlns="http://www.w3.org/2000/svg" width="32" height="32" fill="none" viewBox="0 0 32 32"><path fill="#000" d="M29.328 27.325c-2.91-1.414-4.578-4.45-4.578-8.325v-2.163a1.75 1.75 0 0 0-1.102-1.624l-3.112-1.23a1.25 1.25 0 0 1-.699-1.624L22.5 5.738a3.25 3.25 0 0 0-1.875-4.292c-1.619-.603-3.485.23-4.164 1.875l-2.625 6.64a1.25 1.25 0 0 1-1.625.7L9.046 9.375a1.74 1.74 0 0 0-1.9.399C4.561 12.428 3.25 15.533 3.25 19a13.7 13.7 0 0 0 3.828 9.52.75.75 0 0 0 .547.23H29a.75.75 0 0 0 .328-1.425M8.22 10.815a.25.25 0 0 1 .265-.054l3.175 1.287a2.747 2.747 0 0 0 3.579-1.54l2.625-6.625c.375-.892 1.375-1.352 2.25-1.027a1.75 1.75 0 0 1 1 2.318l-2.67 6.637a2.757 2.757 0 0 0 1.538 3.564l3.11 1.229a.25.25 0 0 1 .157.233V19c0 .168 0 .331.01.5L6.593 12.826a13.8 13.8 0 0 1 1.628-2.011m6.07 16.435a11.2 11.2 0 0 1-3.187-5.437.751.751 0 0 0-1.453.375 12.86 12.86 0 0 0 2.575 5.062H7.945A12.2 12.2 0 0 1 4.75 19a10.9 10.9 0 0 1 1.089-4.857l17.58 7.032c.393 2.49 1.471 4.583 3.125 6.075z"/></svg>