<svg xmlns="http://www.w3.org/2000/svg" width="32" height="32" fill="none" viewBox="0 0 32 32"><path fill="#000" d="M25.75 17.75H28a.75.75 0 1 0 0-1.5h-2.25v-2.5H28a.75.75 0 1 0 0-1.5h-2.281a9.73 9.73 0 0 0-2.798-6.11l2.609-2.61a.75.75 0 0 0-1.06-1.06l-2.686 2.686a9.725 9.725 0 0 0-11.566 0L7.53 2.47a.75.75 0 0 0-1.06 1.06l2.61 2.61a9.72 9.72 0 0 0-2.799 6.11H4a.75.75 0 1 0 0 1.5h2.25v2.5H4a.75.75 0 1 0 0 1.5h2.25V19q0 .627.082 1.25H4a.75.75 0 1 0 0 1.5h2.648a9.75 9.75 0 0 0 18.705 0H28a.75.75 0 1 0 0-1.5h-2.332q.08-.623.082-1.25zM16 4.75a8.26 8.26 0 0 1 8.214 7.5H7.786A8.26 8.26 0 0 1 16 4.75m.75 22.464V17a.75.75 0 0 0-1.5 0v10.214A8.26 8.26 0 0 1 7.75 19v-5.25h16.5V19a8.26 8.26 0 0 1-7.5 8.214"/></svg>