<svg xmlns="http://www.w3.org/2000/svg" width="32" height="32" fill="none" viewBox="0 0 32 32"><path fill="#000" d="M18.25 11.5a1.25 1.25 0 1 1 2.5 0 1.25 1.25 0 0 1-2.5 0m-5.75-1.25a1.25 1.25 0 1 0 0 2.5 1.25 1.25 0 0 0 0-2.5M30.75 16a.75.75 0 0 1-.75.75h-3.25V18c0 1.019-.145 2.032-.431 3.01l2.981 1.302a.75.75 0 0 1-.6 1.375l-2.904-1.268a10.75 10.75 0 0 1-19.592 0L3.3 23.687a.751.751 0 0 1-.6-1.375l2.981-1.302A10.7 10.7 0 0 1 5.25 18v-1.25H2a.75.75 0 1 1 0-1.5h3.25V14c0-1.019.145-2.032.431-3.01L2.7 9.688a.75.75 0 1 1 .6-1.375L6.204 9.58a10.75 10.75 0 0 1 19.592 0L28.7 8.313a.75.75 0 0 1 .6 1.375l-2.981 1.302c.286.978.43 1.991.431 3.01v1.25H30a.75.75 0 0 1 .75.75m-24-.75h18.5V14a9.25 9.25 0 0 0-18.5 0zm8.5 11.968V16.75h-8.5V18a9.26 9.26 0 0 0 8.5 9.218m10-10.468h-8.5v10.468A9.26 9.26 0 0 0 25.25 18z"/></svg>