<svg xmlns="http://www.w3.org/2000/svg" width="32" height="32" fill="none" viewBox="0 0 32 32"><path fill="#000" d="M30 26.25h-2.25V12A1.75 1.75 0 0 0 26 10.25h-8.25V4a1.75 1.75 0 0 0-2.721-1.455l-10 6.666a1.75 1.75 0 0 0-.779 1.457V26.25H2a.75.75 0 1 0 0 1.5h28a.75.75 0 1 0 0-1.5m-4-14.5a.25.25 0 0 1 .25.25v14.25h-8.5v-14.5zM5.75 10.668a.25.25 0 0 1 .111-.208l10-6.668A.25.25 0 0 1 16.25 4v22.25H5.75zm8 3.332v2a.75.75 0 1 1-1.5 0v-2a.75.75 0 1 1 1.5 0m-4 0v2a.75.75 0 1 1-1.5 0v-2a.75.75 0 1 1 1.5 0m0 7v2a.75.75 0 1 1-1.5 0v-2a.75.75 0 1 1 1.5 0m4 0v2a.75.75 0 1 1-1.5 0v-2a.75.75 0 1 1 1.5 0"/></svg>