<svg xmlns="http://www.w3.org/2000/svg" width="32" height="32" fill="none" viewBox="0 0 32 32"><path fill="#000" d="M23 4.25H9A3.75 3.75 0 0 0 5.25 8v18A1.75 1.75 0 0 0 7 27.75h3A1.75 1.75 0 0 0 11.75 26v-2.25h8.5V26A1.75 1.75 0 0 0 22 27.75h3A1.75 1.75 0 0 0 26.75 26V8A3.75 3.75 0 0 0 23 4.25m-16.25 18v-7.5h18.5v7.5zm0-12.5h18.5v3.5H6.75zm2.25-4h14A2.25 2.25 0 0 1 25.25 8v.25H6.75V8A2.25 2.25 0 0 1 9 5.75M10.25 26a.25.25 0 0 1-.25.25H7a.25.25 0 0 1-.25-.25v-2.25h3.5zm14.75.25h-3a.25.25 0 0 1-.25-.25v-2.25h3.5V26a.25.25 0 0 1-.25.25M12.75 18.5a1.25 1.25 0 1 1-2.5 0 1.25 1.25 0 0 1 2.5 0m9 0a1.25 1.25 0 1 1-2.5 0 1.25 1.25 0 0 1 2.5 0m9-8.5v3a.75.75 0 1 1-1.5 0v-3a.75.75 0 1 1 1.5 0m-28 0v3a.75.75 0 1 1-1.5 0v-3a.75.75 0 0 1 1.5 0"/></svg>