<svg xmlns="http://www.w3.org/2000/svg" width="32" height="32" fill="none" viewBox="0 0 32 32"><path fill="#000" d="M27 26.25h-6.25v-3.5h.75a8.26 8.26 0 0 0 8.25-8.25 3.25 3.25 0 1 0-6.5 0 1.75 1.75 0 0 1-1.75 1.75h-.75V7a4.75 4.75 0 1 0-9.5 0v4.25h-.75A1.75 1.75 0 0 1 8.75 9.5a3.25 3.25 0 0 0-6.5 0 8.26 8.26 0 0 0 8.25 8.25h.75v8.5H5a.75.75 0 1 0 0 1.5h22a.75.75 0 1 0 0-1.5m-15-10h-1.5A6.76 6.76 0 0 1 3.75 9.5a1.75 1.75 0 1 1 3.5 0 3.25 3.25 0 0 0 3.25 3.25H12a.75.75 0 0 0 .75-.75V7a3.25 3.25 0 1 1 6.5 0v10a.75.75 0 0 0 .75.75h1.5a3.25 3.25 0 0 0 3.25-3.25 1.75 1.75 0 0 1 3.5 0 6.76 6.76 0 0 1-6.75 6.75H20a.75.75 0 0 0-.75.75v4.25h-6.5V17a.75.75 0 0 0-.75-.75"/></svg>