<svg xmlns="http://www.w3.org/2000/svg" width="32" height="32" fill="none" viewBox="0 0 32 32"><path fill="#000" d="M22 7.25H10a.75.75 0 0 0-.75.75v6a.75.75 0 0 0 .75.75h12a.75.75 0 0 0 .75-.75V8a.75.75 0 0 0-.75-.75m-.75 6h-10.5v-4.5h10.5zm3.75-10H7A1.75 1.75 0 0 0 5.25 5v22A1.75 1.75 0 0 0 7 28.75h18A1.75 1.75 0 0 0 26.75 27V5A1.75 1.75 0 0 0 25 3.25M25.25 27a.25.25 0 0 1-.25.25H7a.25.25 0 0 1-.25-.25V5A.25.25 0 0 1 7 4.75h18a.25.25 0 0 1 .25.25zm-13-8.5a1.25 1.25 0 1 1-2.5 0 1.25 1.25 0 0 1 2.5 0m5 0a1.25 1.25 0 1 1-2.5 0 1.25 1.25 0 0 1 2.5 0m5 0a1.25 1.25 0 1 1-2.5 0 1.25 1.25 0 0 1 2.5 0m-10 5a1.25 1.25 0 1 1-2.5 0 1.25 1.25 0 0 1 2.5 0m5 0a1.25 1.25 0 1 1-2.5 0 1.25 1.25 0 0 1 2.5 0m5 0a1.25 1.25 0 1 1-2.5 0 1.25 1.25 0 0 1 2.5 0"/></svg>