<svg xmlns="http://www.w3.org/2000/svg" width="32" height="32" fill="none" viewBox="0 0 32 32"><path fill="#000" d="M26 4.25h-3.25V3a.75.75 0 1 0-1.5 0v1.25h-10.5V3a.75.75 0 1 0-1.5 0v1.25H6A1.75 1.75 0 0 0 4.25 6v20A1.75 1.75 0 0 0 6 27.75h20A1.75 1.75 0 0 0 27.75 26V6A1.75 1.75 0 0 0 26 4.25M6 5.75h3.25V7a.75.75 0 0 0 1.5 0V5.75h10.5V7a.75.75 0 1 0 1.5 0V5.75H26a.25.25 0 0 1 .25.25v4.25H5.75V6A.25.25 0 0 1 6 5.75m20 20.5H6a.25.25 0 0 1-.25-.25V11.75h20.5V26a.25.25 0 0 1-.25.25M19.75 19a.75.75 0 0 1-.75.75h-2.25V22a.75.75 0 1 1-1.5 0v-2.25H13a.75.75 0 1 1 0-1.5h2.25V16a.75.75 0 1 1 1.5 0v2.25H19a.75.75 0 0 1 .75.75"/></svg>