<svg xmlns="http://www.w3.org/2000/svg" width="32" height="32" fill="none" viewBox="0 0 32 32"><path fill="#000" d="M26 4.25h-3.25V3a.75.75 0 1 0-1.5 0v1.25h-10.5V3a.75.75 0 1 0-1.5 0v1.25H6A1.75 1.75 0 0 0 4.25 6v20A1.75 1.75 0 0 0 6 27.75h20A1.75 1.75 0 0 0 27.75 26V6A1.75 1.75 0 0 0 26 4.25M6 5.75h3.25V7a.75.75 0 0 0 1.5 0V5.75h10.5V7a.75.75 0 1 0 1.5 0V5.75H26a.25.25 0 0 1 .25.25v4.25H5.75V6A.25.25 0 0 1 6 5.75m20 20.5H6a.25.25 0 0 1-.25-.25V11.75h20.5V26a.25.25 0 0 1-.25.25M13.75 15v8a.75.75 0 1 1-1.5 0v-6.786l-.915.457a.752.752 0 0 1-1.046-.909.75.75 0 0 1 .376-.433l2-1A.75.75 0 0 1 13.75 15m7.446 3.656L18.5 22.25H21a.75.75 0 1 1 0 1.5h-4a.75.75 0 0 1-.6-1.2l3.6-4.8a1.25 1.25 0 1 0-2.081-1.375.751.751 0 1 1-1.294-.75 2.75 2.75 0 1 1 4.578 3.032z"/></svg>