<svg xmlns="http://www.w3.org/2000/svg" width="32" height="32" fill="none" viewBox="0 0 32 32"><path fill="#000" d="M26 7.25h-3.599l-1.776-2.666A.75.75 0 0 0 20 4.25h-8a.75.75 0 0 0-.625.334L9.598 7.25H6A2.75 2.75 0 0 0 3.25 10v14A2.75 2.75 0 0 0 6 26.75h20A2.75 2.75 0 0 0 28.75 24V10A2.75 2.75 0 0 0 26 7.25M27.25 24A1.25 1.25 0 0 1 26 25.25H6A1.25 1.25 0 0 1 4.75 24V10A1.25 1.25 0 0 1 6 8.75h4a.75.75 0 0 0 .625-.334l1.776-2.666h7.197l1.777 2.666A.75.75 0 0 0 22 8.75h4A1.25 1.25 0 0 1 27.25 10zm-6.5-7a.75.75 0 0 1-.75.75h-3.25V21a.75.75 0 1 1-1.5 0v-3.25H12a.75.75 0 1 1 0-1.5h3.25V13a.75.75 0 1 1 1.5 0v3.25H20a.75.75 0 0 1 .75.75"/></svg>