<svg xmlns="http://www.w3.org/2000/svg" width="32" height="32" fill="none" viewBox="0 0 32 32"><path fill="#000" d="M30 14.25h-3.689l-5.487-5.488a1.74 1.74 0 0 0-1.238-.512H5.535a1.75 1.75 0 0 0-1.456.779L.375 14.584A.75.75 0 0 0 .25 15v6A1.75 1.75 0 0 0 2 22.75h2.325a3.75 3.75 0 0 0 7.35 0h8.65a3.75 3.75 0 0 0 7.35 0H30A1.75 1.75 0 0 0 31.75 21v-5A1.75 1.75 0 0 0 30 14.25M5.328 9.861a.25.25 0 0 1 .207-.111h14.051a.25.25 0 0 1 .177.074l4.427 4.426H2.401zM8 24.25a2.25 2.25 0 1 1 0-4.5 2.25 2.25 0 0 1 0 4.5m16 0a2.25 2.25 0 1 1 0-4.5 2.25 2.25 0 0 1 0 4.5M30.25 21a.25.25 0 0 1-.25.25h-2.325a3.75 3.75 0 0 0-7.35 0h-8.65a3.75 3.75 0 0 0-7.35 0H2a.25.25 0 0 1-.25-.25v-5.25H30a.25.25 0 0 1 .25.25z"/></svg>