<svg xmlns="http://www.w3.org/2000/svg" width="32" height="32" fill="none" viewBox="0 0 32 32"><path fill="#000" d="M29 8.25h-4.19l3.72-3.72a.751.751 0 1 0-1.06-1.06l-3.72 3.72V3a.75.75 0 0 0-1.5 0v4.519a7.75 7.75 0 0 0-9.725 1C7.521 13.425 3.756 25.18 3.422 26.25a1.75 1.75 0 0 0 2.334 2.334c1.063-.334 12.828-4.101 17.724-9.096a7.75 7.75 0 0 0 1-9.73H29a.75.75 0 0 0 0-1.5zm-6.586 10.176c-1.164 1.199-2.789 2.324-4.578 3.354l-3.307-3.309a.75.75 0 1 0-1.062 1.061l3 3c-5.21 2.75-11.125 4.603-11.216 4.625a1 1 0 0 0-.132.055.25.25 0 0 1-.338-.337 1 1 0 0 0 .056-.125c.038-.125 3.607-11.535 8.223-16.625l4.409 4.408a.75.75 0 1 0 1.06-1.06L14.14 9.085a6.25 6.25 0 0 1 8.273 9.342"/></svg>