<svg xmlns="http://www.w3.org/2000/svg" width="32" height="32" fill="none" viewBox="0 0 32 32"><path fill="#000" d="M28 6.25H4A1.75 1.75 0 0 0 2.25 8v16A1.75 1.75 0 0 0 4 25.75h24A1.75 1.75 0 0 0 29.75 24V8A1.75 1.75 0 0 0 28 6.25m-18.5 18 1.8-2.4a.25.25 0 0 1 .2-.1h9a.25.25 0 0 1 .2.1l1.8 2.4zM28.25 24a.25.25 0 0 1-.25.25h-3.625l-2.475-3.3a1.76 1.76 0 0 0-1.4-.7h-9a1.76 1.76 0 0 0-1.4.7l-2.475 3.3H4a.25.25 0 0 1-.25-.25V8A.25.25 0 0 1 4 7.75h24a.25.25 0 0 1 .25.25zM22 10.25H10a3.75 3.75 0 0 0 0 7.5h12a3.75 3.75 0 0 0 0-7.5m-3 1.5a3.74 3.74 0 0 0 0 4.5h-6a3.74 3.74 0 0 0 0-4.5zM7.75 14a2.25 2.25 0 1 1 4.5 0 2.25 2.25 0 0 1-4.5 0M22 16.25a2.25 2.25 0 1 1 0-4.5 2.25 2.25 0 0 1 0 4.5"/></svg>