<svg xmlns="http://www.w3.org/2000/svg" width="32" height="32" fill="none" viewBox="0 0 32 32"><path fill="#000" d="M25 3.25h-2A1.75 1.75 0 0 0 21.25 5v2a.25.25 0 0 1-.25.25h-2a.25.25 0 0 1-.25-.25V5A1.75 1.75 0 0 0 17 3.25h-2A1.75 1.75 0 0 0 13.25 5v2a.25.25 0 0 1-.25.25h-2a.25.25 0 0 1-.25-.25V5A1.75 1.75 0 0 0 9 3.25H7A1.75 1.75 0 0 0 5.25 5v5.586a1.74 1.74 0 0 0 .513 1.236l1.415 1.416a.25.25 0 0 1 .072.176V27A1.75 1.75 0 0 0 9 28.75h14A1.75 1.75 0 0 0 24.75 27V13.414a.25.25 0 0 1 .073-.176l1.415-1.415a1.74 1.74 0 0 0 .512-1.237V5A1.75 1.75 0 0 0 25 3.25m-6.75 24h-4.5V19a2.25 2.25 0 0 1 4.5 0zm7-16.664a.25.25 0 0 1-.073.176l-1.415 1.415a1.74 1.74 0 0 0-.512 1.237V27a.25.25 0 0 1-.25.25h-3.25V19a3.75 3.75 0 0 0-7.5 0v8.25H9a.25.25 0 0 1-.25-.25V13.414a1.74 1.74 0 0 0-.512-1.236l-1.415-1.416a.25.25 0 0 1-.073-.176V5A.25.25 0 0 1 7 4.75h2a.25.25 0 0 1 .25.25v2A1.75 1.75 0 0 0 11 8.75h2A1.75 1.75 0 0 0 14.75 7V5a.25.25 0 0 1 .25-.25h2a.25.25 0 0 1 .25.25v2A1.75 1.75 0 0 0 19 8.75h2A1.75 1.75 0 0 0 22.75 7V5a.25.25 0 0 1 .25-.25h2a.25.25 0 0 1 .25.25z"/></svg>