<svg xmlns="http://www.w3.org/2000/svg" width="32" height="32" fill="none" viewBox="0 0 32 32"><path fill="#000" d="M27.67 4.384a1.75 1.75 0 0 0-1.908.375l-.036.037-2.299 2.651a13.65 13.65 0 0 0-14.854 0l-2.3-2.646-.035-.037A1.75 1.75 0 0 0 3.25 6v11c0 6.479 5.72 11.75 12.75 11.75S28.75 23.479 28.75 17V6a1.75 1.75 0 0 0-1.08-1.616M27.25 17c0 5.422-4.645 9.875-10.5 10.226V24.31l1.78-1.78a.75.75 0 0 0-1.06-1.061L16 22.939l-1.47-1.47a.75.75 0 0 0-1.06 1.061l1.78 1.78v2.916C9.395 26.875 4.75 22.423 4.75 17V6a.24.24 0 0 1 .154-.231.3.3 0 0 1 .102-.022c.059 0 .115.023.158.063l2.72 3.125a.75.75 0 0 0 1.014.11A11.4 11.4 0 0 1 11.25 7.71V11a.75.75 0 1 0 1.5 0V7.189a12.2 12.2 0 0 1 2.5-.415V11a.75.75 0 1 0 1.5 0V6.774c.846.051 1.683.19 2.5.415V11a.75.75 0 1 0 1.5 0V7.71a11.4 11.4 0 0 1 2.352 1.341.75.75 0 0 0 1.014-.11l2.72-3.125A.25.25 0 0 1 27.25 6zm-15.5.5a1.25 1.25 0 1 1-2.5 0 1.25 1.25 0 0 1 2.5 0m11 0a1.25 1.25 0 1 1-2.5 0 1.25 1.25 0 0 1 2.5 0"/></svg>