<svg xmlns="http://www.w3.org/2000/svg" width="32" height="32" fill="none" viewBox="0 0 32 32"><path fill="#000" d="M26.53 24.47a.75.75 0 1 1-1.06 1.06L23 23.06l-2.47 2.47a.75.75 0 0 1-1.06-1.06L21.94 22l-2.47-2.47a.75.75 0 0 1 1.06-1.06L23 20.94l2.47-2.47a.75.75 0 0 1 1.06 1.06L24.06 22zM20 15.75a.75.75 0 0 0 .75-.75V9a.75.75 0 1 0-1.5 0v6a.75.75 0 0 0 .75.75m5 0a.75.75 0 0 0 .75-.75V4a.75.75 0 1 0-1.5 0v11a.75.75 0 0 0 .75.75m-10-2.5a.75.75 0 0 0-.75.75v11a.75.75 0 1 0 1.5 0V14a.75.75 0 0 0-.75-.75m-5 5a.75.75 0 0 0-.75.75v6a.75.75 0 1 0 1.5 0v-6a.75.75 0 0 0-.75-.75m-5 5a.75.75 0 0 0-.75.75v1a.75.75 0 1 0 1.5 0v-1a.75.75 0 0 0-.75-.75"/></svg>