<svg xmlns="http://www.w3.org/2000/svg" width="32" height="32" fill="none" viewBox="0 0 32 32"><path fill="#000" d="M10.75 19v6a.75.75 0 1 1-1.5 0v-6a.75.75 0 1 1 1.5 0M5 23.25a.75.75 0 0 0-.75.75v1a.75.75 0 1 0 1.5 0v-1a.75.75 0 0 0-.75-.75m21.555 3.25-20-22a.75.75 0 0 0-1.11 1l8.805 9.69V25a.75.75 0 1 0 1.5 0v-8.16l3.5 3.85V25a.75.75 0 1 0 1.5 0v-2.66l4.695 5.16a.75.75 0 1 0 1.11-1.01zM20 15.204a.75.75 0 0 0 .75-.75V9a.75.75 0 1 0-1.5 0v5.454a.75.75 0 0 0 .75.75m5 5.5a.75.75 0 0 0 .75-.75V4a.75.75 0 1 0-1.5 0v15.954a.75.75 0 0 0 .75.75"/></svg>