<svg xmlns="http://www.w3.org/2000/svg" width="32" height="32" fill="none" viewBox="0 0 32 32"><path fill="#000" d="M26 17.25h-4.25v-4.5H24A1.75 1.75 0 0 0 25.75 11V5A1.75 1.75 0 0 0 24 3.25H8A1.75 1.75 0 0 0 6.25 5v6A1.75 1.75 0 0 0 8 12.75h2.25v4.5H6A1.75 1.75 0 0 0 4.25 19v2A1.75 1.75 0 0 0 6 22.75h1.25V28a.75.75 0 1 0 1.5 0v-5.25h14.5V28a.75.75 0 1 0 1.5 0v-5.25H26A1.75 1.75 0 0 0 27.75 21v-2A1.75 1.75 0 0 0 26 17.25M7.75 11V5A.25.25 0 0 1 8 4.75h16a.25.25 0 0 1 .25.25v6a.25.25 0 0 1-.25.25H8a.25.25 0 0 1-.25-.25m4 1.75h8.5v4.5h-8.5zM26.25 21a.25.25 0 0 1-.25.25H6a.25.25 0 0 1-.25-.25v-2a.25.25 0 0 1 .25-.25h20a.25.25 0 0 1 .25.25z"/></svg>