<svg xmlns="http://www.w3.org/2000/svg" width="32" height="32" fill="none" viewBox="0 0 32 32"><path fill="#000" d="M17.783 1.25h-5.577a.75.75 0 0 0-.706.518c-.184.563-4.441 13.84-.731 18.946.844 1.16 2.012 1.827 3.482 1.994v6.542H12a.75.75 0 0 0 0 1.5h6a.75.75 0 0 0 0-1.5h-2.25v-6.542c1.47-.167 2.639-.834 3.481-1.994 3.71-5.105-.546-18.383-.73-18.946a.75.75 0 0 0-.719-.518m-5.023 1.5h4.469c.28.935.875 3.036 1.344 5.5h-7.155a58 58 0 0 1 1.342-5.5m5.25 17.083c-.691.953-1.678 1.417-3.01 1.417s-2.325-.464-3.017-1.418c-1.3-1.78-1.582-5.263-.827-10.082h7.678c.755 4.819.472 8.302-.822 10.083zM28.75 6.5a1.25 1.25 0 1 1-2.5 0 1.25 1.25 0 0 1 2.5 0m-3-4a1.25 1.25 0 1 1-2.5 0 1.25 1.25 0 0 1 2.5 0m0 10a1.25 1.25 0 1 1-2.501 0 1.25 1.25 0 0 1 2.501 0"/></svg>