<svg xmlns="http://www.w3.org/2000/svg" width="32" height="32" fill="none" viewBox="0 0 32 32"><path fill="#000" d="M17.152 3.256A1.75 1.75 0 0 0 15.25 5v5.084a1.73 1.73 0 0 0 1.448 1.722 4.251 4.251 0 1 1-4.941 4.417c-.056-1.085.17-1.99.672-2.692a1.734 1.734 0 0 0-.187-2.238l-3.457-3.53a1.75 1.75 0 0 0-2.586.124 12.703 12.703 0 0 0 .849 17.197A12.66 12.66 0 0 0 16 28.75h.183A12.79 12.79 0 0 0 28.75 16.181c.091-6.656-5-12.334-11.599-12.925m-9.8 5.586a.26.26 0 0 1 .184-.092h.012a.24.24 0 0 1 .171.067l3.456 3.53a.25.25 0 0 1 .034.312 5.23 5.23 0 0 0-.93 2.591h-5.5a11.05 11.05 0 0 1 2.572-6.408M4.777 16.75H10.3a5.75 5.75 0 0 0 4.95 4.951v5.522A11.24 11.24 0 0 1 4.778 16.75m19.167 7.195a11.19 11.19 0 0 1-7.195 3.279v-5.521a5.7 5.7 0 0 0 3.17-1.5 5.75 5.75 0 0 0-2.979-9.875.24.24 0 0 1-.19-.244V5a.25.25 0 0 1 .082-.188.24.24 0 0 1 .185-.062c5.819.521 10.313 5.533 10.231 11.409a11.18 11.18 0 0 1-3.304 7.786"/></svg>