<svg xmlns="http://www.w3.org/2000/svg" width="32" height="32" fill="none" viewBox="0 0 32 32"><path fill="#000" d="M16.625 15.58a.75.75 0 0 1 .075.699l-2 5a.75.75 0 1 1-1.392-.558l1.585-3.971H12a.75.75 0 0 1-.696-1.029l2-5a.75.75 0 0 1 1.392.558l-1.588 3.971H16a.75.75 0 0 1 .625.33m14.125-4.75V21a2.75 2.75 0 1 1-5.5 0v-5A1.25 1.25 0 0 0 24 14.75h-2.25v11.5H24a.75.75 0 1 1 0 1.5H4a.75.75 0 1 1 0-1.5h2.25V7A2.75 2.75 0 0 1 9 4.25h10A2.75 2.75 0 0 1 21.75 7v6.25H24A2.75 2.75 0 0 1 26.75 16v5a1.25 1.25 0 0 0 2.5 0V10.829a1.24 1.24 0 0 0-.366-.884L26.47 7.53a.75.75 0 0 1 1.06-1.06l2.415 2.414a2.74 2.74 0 0 1 .805 1.945zm-10.5 15.42V7A1.25 1.25 0 0 0 19 5.75H9A1.25 1.25 0 0 0 7.75 7v19.25z"/></svg>