<svg xmlns="http://www.w3.org/2000/svg" width="32" height="32" fill="none" viewBox="0 0 32 32"><path fill="#000" d="M12.75 13.688v-9a.75.75 0 0 0-1-.708 12.75 12.75 0 0 0-8.288 14.344.75.75 0 0 0 1.113.513l7.8-4.5a.75.75 0 0 0 .375-.65m-1.5-.438-6.458 3.725Q4.75 16.488 4.75 16a11.26 11.26 0 0 1 6.5-10.197zM27.07 9.681q-.015-.03-.031-.058a.4.4 0 0 0-.034-.053A12.75 12.75 0 0 0 16 3.25a.75.75 0 0 0-.75.75v11.625l-9.975 5.808a.75.75 0 0 0-.269 1.027A12.75 12.75 0 0 0 27.071 9.681M16.75 4.775a11.25 11.25 0 0 1 8.595 4.967L16.75 14.75zM16 27.25a11.31 11.31 0 0 1-9.298-4.914l9.664-5.625.021-.012 9.71-5.655A11.25 11.25 0 0 1 16 27.25"/></svg>