<svg xmlns="http://www.w3.org/2000/svg" width="32" height="32" fill="none" viewBox="0 0 32 32"><path fill="#000" d="M16 3.25A12.75 12.75 0 1 0 28.75 16 12.765 12.765 0 0 0 16 3.25m11.225 12h-3.513a7.76 7.76 0 0 0-6.962-6.962V4.775A11.27 11.27 0 0 1 27.225 15.25m-11.975 0H9.796a6.26 6.26 0 0 1 5.454-5.454zm0 1.5v5.454a6.26 6.26 0 0 1-5.454-5.454zm1.5 0h5.454a6.26 6.26 0 0 1-5.454 5.454zm0-1.5V9.796a6.26 6.26 0 0 1 5.454 5.454zm-1.5-10.475v3.512a7.76 7.76 0 0 0-6.962 6.963H4.775A11.27 11.27 0 0 1 15.25 4.775M4.775 16.75h3.513a7.76 7.76 0 0 0 6.962 6.962v3.513A11.27 11.27 0 0 1 4.775 16.75M16.75 27.225v-3.513a7.76 7.76 0 0 0 6.962-6.962h3.513A11.27 11.27 0 0 1 16.75 27.225"/></svg>