<svg xmlns="http://www.w3.org/2000/svg" width="32" height="32" fill="none" viewBox="0 0 32 32"><path fill="#000" d="M28.75 26a.75.75 0 0 1-.75.75H4a.75.75 0 0 1-.75-.75V6a.75.75 0 0 1 1.5 0v19.25H28a.75.75 0 0 1 .75.75M16.5 19.75a1.25 1.25 0 1 0 0-2.5 1.25 1.25 0 0 0 0 2.5m-3-7a1.25 1.25 0 1 0 0-2.5 1.25 1.25 0 0 0 0 2.5m-4 9a1.25 1.25 0 1 0 0-2.5 1.25 1.25 0 0 0 0 2.5m12-6a1.25 1.25 0 1 0 0-2.5 1.25 1.25 0 0 0 0 2.5m3-5a1.25 1.25 0 1 0 0-2.5 1.25 1.25 0 0 0 0 2.5m-1 8.5a1.25 1.25 0 1 0 0 2.5 1.25 1.25 0 0 0 0-2.5"/></svg>