<svg xmlns="http://www.w3.org/2000/svg" width="32" height="32" fill="none" viewBox="0 0 32 32"><path fill="#000" d="M28.708 23.391A9.75 9.75 0 0 0 21.02 9.302a9.748 9.748 0 0 0-18.217.47 9.75 9.75 0 0 0 .49 7.62l-.984 3.445a1.5 1.5 0 0 0 1.853 1.854l3.447-.983a9.8 9.8 0 0 0 3.367.987 9.755 9.755 0 0 0 13.415 5.012l3.447.984a1.5 1.5 0 0 0 1.853-1.854zM7.69 20.154q-.105 0-.206.029L3.75 21.25l1.066-3.734a.75.75 0 0 0-.062-.566 8.25 8.25 0 1 1 3.297 3.3.76.76 0 0 0-.36-.096m19.492 3.361 1.067 3.735-3.734-1.066a.75.75 0 0 0-.566.062 8.25 8.25 0 0 1-11.31-3.518 9.742 9.742 0 0 0 8.875-11.836A8.25 8.25 0 0 1 27.25 22.95a.75.75 0 0 0-.067.566"/></svg>