<svg xmlns="http://www.w3.org/2000/svg" width="32" height="32" fill="none" viewBox="0 0 32 32"><path fill="#000" d="M27 5.25H5A1.75 1.75 0 0 0 3.25 7v16A1.75 1.75 0 0 0 5 24.75h7.434a.25.25 0 0 1 .214.125L14.5 27.9a1.75 1.75 0 0 0 3 .006l1.852-3.031a.25.25 0 0 1 .214-.125H27A1.75 1.75 0 0 0 28.75 23V7A1.75 1.75 0 0 0 27 5.25M27.25 23a.25.25 0 0 1-.25.25h-7.434a1.75 1.75 0 0 0-1.5.844l-1.851 3.031a.25.25 0 0 1-.432 0l-1.85-3.027a1.76 1.76 0 0 0-1.5-.847H5a.25.25 0 0 1-.25-.25V7A.25.25 0 0 1 5 6.75h22a.25.25 0 0 1 .25.25zm-6.5-10a.75.75 0 0 1-.75.75h-8a.75.75 0 1 1 0-1.5h8a.75.75 0 0 1 .75.75m0 4a.75.75 0 0 1-.75.75h-8a.75.75 0 1 1 0-1.5h8a.75.75 0 0 1 .75.75"/></svg>