<svg xmlns="http://www.w3.org/2000/svg" width="32" height="32" fill="none" viewBox="0 0 32 32"><path fill="#000" d="M20.75 14a.75.75 0 0 1-.75.75h-8a.75.75 0 1 1 0-1.5h8a.75.75 0 0 1 .75.75M20 17.25h-8a.75.75 0 1 0 0 1.5h8a.75.75 0 1 0 0-1.5M28.75 16A12.75 12.75 0 0 1 9.914 27.206L5.555 28.66a1.75 1.75 0 0 1-2.214-2.214l1.453-4.359A12.75 12.75 0 1 1 28.75 16m-1.5 0a11.25 11.25 0 1 0-20.99 5.633.75.75 0 0 1 .063.613L4.765 26.92a.25.25 0 0 0 .316.316l4.669-1.558a.76.76 0 0 1 .613.063A11.25 11.25 0 0 0 27.25 16"/></svg>