<svg xmlns="http://www.w3.org/2000/svg" width="32" height="32" fill="none" viewBox="0 0 32 32"><path fill="#000" d="m30.234 8.707-3-2.945a1.75 1.75 0 0 0-2.472 0L13.173 17.18a.25.25 0 0 1-.353 0l-.012-.01-4.576-4.414a1.75 1.75 0 0 0-2.469 0l-3 3a1.75 1.75 0 0 0 0 2.474l8.953 9a1.75 1.75 0 0 0 2.475 0l16.049-16.042a1.75 1.75 0 0 0-.005-2.48m-1.057 1.418L13.125 26.176a.25.25 0 0 1-.351 0l-8.953-9a.25.25 0 0 1 0-.352l3-3A.25.25 0 0 1 7 13.75a.25.25 0 0 1 .176.072l.01.01 4.583 4.41a1.75 1.75 0 0 0 2.465 0l11.59-11.418a.25.25 0 0 1 .358 0l3 2.945a.25.25 0 0 1 .052.275.3.3 0 0 1-.057.081"/></svg>