<svg xmlns="http://www.w3.org/2000/svg" width="32" height="32" fill="none" viewBox="0 0 32 32"><path fill="#000" d="m28.386 18.358-4.636-2.783V13a.75.75 0 0 0-.375-.651L16.75 8.565V5.75H19a.75.75 0 1 0 0-1.5h-2.25V2a.75.75 0 1 0-1.5 0v2.25H13a.75.75 0 1 0 0 1.5h2.25v2.815l-6.625 3.784A.75.75 0 0 0 8.25 13v2.575l-4.636 2.783A.75.75 0 0 0 3.25 19v8a.75.75 0 0 0 .75.75h10a.75.75 0 0 0 .75-.75v-6a1.25 1.25 0 0 1 2.5 0v6a.75.75 0 0 0 .75.75h10a.75.75 0 0 0 .75-.75v-8a.75.75 0 0 0-.364-.642M4.75 19.425l3.5-2.1v8.925h-3.5zM16 18.25A2.75 2.75 0 0 0 13.25 21v5.25h-3.5V13.435L16 9.864l6.25 3.571V26.25h-3.5V21A2.75 2.75 0 0 0 16 18.25m11.25 8h-3.5v-8.925l3.5 2.1z"/></svg>