<svg xmlns="http://www.w3.org/2000/svg" width="32" height="32" fill="none" viewBox="0 0 32 32"><path fill="#000" d="M26 4.25H6A1.75 1.75 0 0 0 4.25 6v20A1.75 1.75 0 0 0 6 27.75h20A1.75 1.75 0 0 0 27.75 26V6A1.75 1.75 0 0 0 26 4.25m-15 15.5a1.25 1.25 0 1 1 0 2.5 1.25 1.25 0 0 1 0-2.5M5.75 26V6A.25.25 0 0 1 6 5.75h4.25v12.605a2.75 2.75 0 1 0 1.5 0v-4.544l6.5 6.5v5.939H6a.25.25 0 0 1-.25-.25m20.5 0a.25.25 0 0 1-.25.25h-6.25V20a.75.75 0 0 0-.22-.53l-7.78-7.781V5.75h4.5V9c0 .199.08.39.22.53l2.125 2.125a2.75 2.75 0 1 0 1.06-1.06L17.75 8.689V5.75H26a.25.25 0 0 1 .25.25zM21 11.75a1.25 1.25 0 1 1 0 2.5 1.25 1.25 0 0 1 0-2.5"/></svg>