<svg xmlns="http://www.w3.org/2000/svg" width="32" height="32" fill="none" viewBox="0 0 32 32"><path fill="#000" d="M12.274 4.568a.75.75 0 0 1 .537-.914c2.091-.54 4.284-.54 6.375 0a.75.75 0 1 1-.375 1.452 11.25 11.25 0 0 0-5.625 0 .75.75 0 0 1-.912-.538m-5.375 2.5a12.76 12.76 0 0 0-3.187 5.52.75.75 0 0 0 1.447.4 11.25 11.25 0 0 1 2.813-4.863.75.75 0 0 0-1.07-1.051zM5.16 19.01a.75.75 0 1 0-1.445.4A12.75 12.75 0 0 0 6.9 24.934a.75.75 0 0 0 1.069-1.052 11.26 11.26 0 0 1-2.81-4.87m13.651 7.883a11.25 11.25 0 0 1-5.625 0 .75.75 0 0 0-.914.539.75.75 0 0 0 .54.913c2.09.54 4.283.54 6.374 0a.75.75 0 0 0-.375-1.452m8.953-8.404a.75.75 0 0 0-.923.523 11.25 11.25 0 0 1-2.814 4.874.75.75 0 0 0 1.07 1.052 12.76 12.76 0 0 0 3.19-5.526.75.75 0 0 0-.523-.923m-.924-5.5a.75.75 0 0 0 1.445-.4 12.75 12.75 0 0 0-3.186-5.522.75.75 0 0 0-1.07 1.05 11.26 11.26 0 0 1 2.81 4.87z"/></svg>