<svg xmlns="http://www.w3.org/2000/svg" width="32" height="32" fill="none" viewBox="0 0 32 32"><path fill="#000" d="M10 5.25a4.75 4.75 0 1 0 0 9.5 4.75 4.75 0 0 0 0-9.5m0 8a3.25 3.25 0 1 1 0-6.5 3.25 3.25 0 0 1 0 6.5m12 1.5a4.75 4.75 0 1 0 0-9.5 4.75 4.75 0 0 0 0 9.5m0-8a3.25 3.25 0 1 1 0 6.5 3.25 3.25 0 0 1 0-6.5m-12 10.5a4.75 4.75 0 1 0 0 9.5 4.75 4.75 0 0 0 0-9.5m0 8a3.25 3.25 0 1 1 0-6.5 3.25 3.25 0 0 1 0 6.5m12-8a4.75 4.75 0 1 0 0 9.5 4.75 4.75 0 0 0 0-9.5m0 8a3.25 3.25 0 1 1 0-6.5 3.25 3.25 0 0 1 0 6.5"/></svg>