<svg xmlns="http://www.w3.org/2000/svg" width="32" height="32" fill="none" viewBox="0 0 32 32"><path fill="#000" d="M25 4.25h-4.646a5.74 5.74 0 0 0-8.708 0H7A1.75 1.75 0 0 0 5.25 6v21A1.75 1.75 0 0 0 7 28.75h18A1.75 1.75 0 0 0 26.75 27V6A1.75 1.75 0 0 0 25 4.25m-9-.5A4.25 4.25 0 0 1 20.25 8v.25h-8.5V8A4.25 4.25 0 0 1 16 3.75M25.25 27a.25.25 0 0 1-.25.25H7a.25.25 0 0 1-.25-.25V6A.25.25 0 0 1 7 5.75h3.709A5.7 5.7 0 0 0 10.25 8v1a.75.75 0 0 0 .75.75h10a.75.75 0 0 0 .75-.75V8c0-.773-.155-1.539-.459-2.25H25a.25.25 0 0 1 .25.25z"/></svg>