<svg xmlns="http://www.w3.org/2000/svg" width="32" height="32" fill="none" viewBox="0 0 32 32"><path fill="#000" d="M28 6.25H4A1.75 1.75 0 0 0 2.25 8v16A1.75 1.75 0 0 0 4 25.75h24A1.75 1.75 0 0 0 29.75 24V8A1.75 1.75 0 0 0 28 6.25M28.25 24a.25.25 0 0 1-.25.25H4a.25.25 0 0 1-.25-.25V8A.25.25 0 0 1 4 7.75h24a.25.25 0 0 1 .25.25zm-13.601-4.911a.75.75 0 0 1-.274 1.025 4.75 4.75 0 1 1 0-8.228.751.751 0 0 1-.17 1.393.75.75 0 0 1-.58-.095 3.25 3.25 0 1 0 0 5.631.75.75 0 0 1 1.024.274m10 0a.75.75 0 0 1-.274 1.025 4.75 4.75 0 1 1 0-8.228.751.751 0 0 1-.17 1.393.75.75 0 0 1-.58-.095 3.25 3.25 0 1 0 0 5.631.75.75 0 0 1 1.024.274"/></svg>