<svg xmlns="http://www.w3.org/2000/svg" width="32" height="32" fill="none" viewBox="0 0 32 32"><path fill="#000" d="M20.5 9.25a9.3 9.3 0 0 0-1.771.17 8.75 8.75 0 0 0-6.764-7.949.75.75 0 0 0-.899.904 7.258 7.258 0 0 1-8.691 8.691.75.75 0 0 0-.899.899 8.78 8.78 0 0 0 4.163 5.619A6.25 6.25 0 0 0 10.5 27.75h10a9.25 9.25 0 0 0 0-18.5M3.278 12.72q.36.03.722.03a8.76 8.76 0 0 0 8.72-9.475 7.205 7.205 0 0 1 4.53 6.564 9.3 9.3 0 0 0-5.475 5.536 6.3 6.3 0 0 0-1.275-.125 6.2 6.2 0 0 0-3.732 1.24 7.28 7.28 0 0 1-3.49-3.77M20.5 26.25h-10a4.75 4.75 0 1 1 .885-9.417 10 10 0 0 0-.134 1.125.751.751 0 0 0 1.5.087c.032-.517.116-1.03.25-1.53 0-.019.01-.036.014-.054A7.758 7.758 0 1 1 20.5 26.25"/></svg>