<svg xmlns="http://www.w3.org/2000/svg" width="32" height="32" fill="none" viewBox="0 0 32 32"><path fill="#000" d="M6.555 4.5a.75.75 0 0 0-1.11 1l5.022 5.525q-.085.163-.165.33A7.75 7.75 0 1 0 9 26.75h11c1.386.003 2.76-.264 4.044-.787l1.401 1.537a.75.75 0 1 0 1.11-1.01zM20 25.25H9a6.25 6.25 0 1 1 .738-12.455A10.8 10.8 0 0 0 9.25 16a.75.75 0 1 0 1.5 0 9.2 9.2 0 0 1 .805-3.775l11.403 12.543A9.2 9.2 0 0 1 20 25.25M30.75 16c.002 2.641-.97 5.19-2.731 7.159a.75.75 0 0 1-.967.13.75.75 0 0 1-.15-1.13A9.25 9.25 0 0 0 14.525 8.544a.75.75 0 0 1-.889-1.209A10.75 10.75 0 0 1 30.75 16"/></svg>