<svg xmlns="http://www.w3.org/2000/svg" width="32" height="32" fill="none" viewBox="0 0 32 32"><path fill="#000" d="M15 24.75H9a.75.75 0 1 1 0-1.5h6a.75.75 0 1 1 0 1.5m8-1.5h-3a.75.75 0 0 0 0 1.5h3a.75.75 0 1 0 0-1.5m-3 4h-7a.75.75 0 0 0 0 1.5h7a.75.75 0 1 0 0-1.5m8.75-15.75a9.26 9.26 0 0 1-9.25 9.25h-10a6.249 6.249 0 1 1 1.275-12.375A9.26 9.26 0 0 1 28.75 11.5m-1.5 0a7.758 7.758 0 0 0-15.5-.456.751.751 0 0 1-1.5-.088 10 10 0 0 1 .134-1.125A4.75 4.75 0 1 0 9.5 19.25h10a7.76 7.76 0 0 0 7.75-7.75"/></svg>