<svg xmlns="http://www.w3.org/2000/svg" width="32" height="32" fill="none" viewBox="0 0 32 32"><path fill="#000" d="M30.75 16a10.66 10.66 0 0 1-2.15 6.45.75.75 0 1 1-1.2-.9 9.248 9.248 0 0 0-8.795-14.694A9.25 9.25 0 0 0 10.75 16a.75.75 0 0 1-1.5 0c0-1.087.164-2.168.489-3.205A6.25 6.25 0 1 0 9 25.25h3a.75.75 0 0 1 0 1.5H9a7.75 7.75 0 1 1 1.304-15.39A10.75 10.75 0 0 1 30.75 16m-8.28 5.47-2.72 2.719V16a.75.75 0 0 0-1.5 0v8.189l-2.72-2.719a.75.75 0 0 0-1.06 1.06l4 4a.75.75 0 0 0 1.06 0l4-4a.75.75 0 0 0-1.06-1.06"/></svg>