<svg xmlns="http://www.w3.org/2000/svg" width="32" height="32" fill="none" viewBox="0 0 32 32"><path fill="#000" d="M23 11.25q-.323 0-.645.03a6.75 6.75 0 1 0-12.711 0 6.75 6.75 0 1 0 2.838 12.505l-1.2 4a.75.75 0 0 0 .718.965h8a.75.75 0 0 0 .719-.965l-1.2-4a6.749 6.749 0 0 0 10.107-7.056A6.75 6.75 0 0 0 23 11.25m0 12a5.24 5.24 0 0 1-4.382-2.359.75.75 0 0 0-1.345.625l1.72 5.734h-5.985l1.72-5.73a.75.75 0 0 0-1.345-.625 5.25 5.25 0 1 1-2.614-7.836.75.75 0 0 0 .875-1.125 5.25 5.25 0 1 1 8.715 0 .75.75 0 0 0 .875 1.125A5.25 5.25 0 1 1 23 23.25"/></svg>