<svg xmlns="http://www.w3.org/2000/svg" width="32" height="32" fill="none" viewBox="0 0 32 32"><path fill="#000" d="m29.356 11.34-13-7a.75.75 0 0 0-.71 0l-13 7a.75.75 0 0 0-.396.66v8a.75.75 0 0 0 .394.66l13 7a.75.75 0 0 0 .71 0l13-7a.75.75 0 0 0 .396-.66v-8a.75.75 0 0 0-.394-.66m-1.106 7.41L23.154 16l5.096-2.75zm-6.679-3.596-4.821-2.601V6.25L27.418 12zm-5.571 3L12.01 16 16 13.851 19.99 16zM15.25 6.25v6.297l-4.821 2.6L4.582 12zm-11.5 7L8.846 16 3.75 18.75zm6.679 3.595 4.821 2.603v6.302L4.583 20zm6.321 8.905v-6.302l4.821-2.597L27.417 20z"/></svg>