<svg xmlns="http://www.w3.org/2000/svg" width="32" height="32" fill="none" viewBox="0 0 32 32"><path fill="#000" d="m7.47 12.53-4-4a.75.75 0 0 1 0-1.06l4-4a.75.75 0 1 1 1.06 1.06L5.06 8l3.469 3.47a.75.75 0 1 1-1.06 1.06m5 0a.75.75 0 0 0 1.06 0l4-4a.75.75 0 0 0 0-1.06l-4-4a.749.749 0 1 0-1.06 1.06L15.939 8l-3.47 3.47a.75.75 0 0 0 0 1.06M25 5.25h-3a.75.75 0 1 0 0 1.5h3a.25.25 0 0 1 .25.25v18a.25.25 0 0 1-.25.25H7a.25.25 0 0 1-.25-.25v-8a.75.75 0 0 0-1.5 0v8A1.75 1.75 0 0 0 7 26.75h18A1.75 1.75 0 0 0 26.75 25V7A1.75 1.75 0 0 0 25 5.25"/></svg>