<svg xmlns="http://www.w3.org/2000/svg" width="32" height="32" fill="none" viewBox="0 0 32 32"><path fill="#000" d="m27.84 8.489-11-6.023a1.74 1.74 0 0 0-1.68 0l-11 6.021a1.75 1.75 0 0 0-.91 1.536v11.955a1.75 1.75 0 0 0 .91 1.534l11 6.022a1.74 1.74 0 0 0 1.68 0l11-6.021a1.75 1.75 0 0 0 .91-1.536V10.023a1.75 1.75 0 0 0-.91-1.534M16 15.145 5.561 9.43l4.832-2.644 5.25 2.875a.75.75 0 0 0 .72 0l5.25-2.875 4.83 2.644zm-.125-11.364a.25.25 0 0 1 .24 0l3.925 2.15L16 8.145l-4.046-2.214zM4.75 21.978v-5l4.5 2.462v5.145l-4.375-2.389a.25.25 0 0 1-.125-.219m6 3.432V19a.75.75 0 0 0-.39-.657L4.75 15.27v-4.575l10.5 5.75v11.429zm6 2.465v-11.43l10.5-5.75v4.575l-5.61 3.071a.75.75 0 0 0-.39.659v6.41zm10.375-5.677L22.75 24.59v-5.146l4.5-2.463v5a.25.25 0 0 1-.125.215z"/></svg>