<svg xmlns="http://www.w3.org/2000/svg" width="32" height="32" fill="none" viewBox="0 0 32 32"><path fill="#000" d="M10.25 7V3a.75.75 0 1 1 1.5 0v4a.75.75 0 1 1-1.5 0m4.75.75a.75.75 0 0 0 .75-.75V3a.75.75 0 1 0-1.5 0v4a.75.75 0 0 0 .75.75m4 0a.75.75 0 0 0 .75-.75V3a.75.75 0 1 0-1.5 0v4a.75.75 0 0 0 .75.75M30.75 15v1a4.75 4.75 0 0 1-4.617 4.75 11.8 11.8 0 0 1-3.892 5.5H26a.75.75 0 1 1 0 1.5H4a.75.75 0 1 1 0-1.5h3.759A11.8 11.8 0 0 1 3.25 17v-6a.75.75 0 0 1 .75-.75h22A4.75 4.75 0 0 1 30.75 15m-5.5 2v-5.25H4.75V17a10.28 10.28 0 0 0 5.834 9.25h8.832A10.28 10.28 0 0 0 25.25 17m4-2a3.25 3.25 0 0 0-2.5-3.161V17c0 .74-.07 1.478-.211 2.205A3.25 3.25 0 0 0 29.25 16z"/></svg>