<svg xmlns="http://www.w3.org/2000/svg" width="32" height="32" fill="none" viewBox="0 0 32 32"><path fill="#000" d="M25.835 8.204C23.279 6.926 19.875 6.25 16 6.25s-7.279.676-9.835 1.954C3.676 9.447 2.25 11.196 2.25 13v6c0 1.804 1.426 3.552 3.915 4.796 2.556 1.278 5.96 1.954 9.835 1.954s7.279-.676 9.835-1.954c2.489-1.244 3.915-2.992 3.915-4.796v-6c0-1.804-1.426-3.552-3.915-4.796m-19 1.342C9.151 8.388 12.406 7.75 16 7.75s6.849.637 9.165 1.796c1.96.98 3.085 2.239 3.085 3.454s-1.125 2.474-3.085 3.454C22.849 17.613 19.594 18.25 16 18.25s-6.849-.637-9.165-1.796C4.875 15.474 3.75 14.215 3.75 13s1.125-2.474 3.085-3.454m8.415 10.195v4.5c-2.405-.06-4.634-.41-6.5-1.014v-4.425c1.909.564 4.106.884 6.5.94m1.5 0c2.394-.055 4.591-.375 6.5-.94v4.425c-1.866.604-4.095.954-6.5 1.014zM3.75 19v-2.875a9.5 9.5 0 0 0 2.415 1.67q.52.258 1.085.485v4.375c-.141-.065-.28-.125-.415-.198C4.875 21.475 3.75 20.216 3.75 19m21.415 3.454q-.203.1-.415.197v-4.375q.564-.225 1.085-.485a9.5 9.5 0 0 0 2.415-1.666V19c0 1.215-1.125 2.474-3.085 3.454"/></svg>