<svg xmlns="http://www.w3.org/2000/svg" width="32" height="32" fill="none" viewBox="0 0 32 32"><path fill="#000" d="M28.07 12.976c-1.391-.757-3.261-1.302-5.32-1.559V10.5c0-1.515-1.198-2.887-3.375-3.866-1.98-.893-4.6-1.384-7.375-1.384s-5.395.491-7.375 1.384C2.448 7.612 1.25 8.985 1.25 10.5v5c0 1.515 1.197 2.887 3.375 3.866 1.311.59 2.901 1 4.625 1.217v.917c0 1.515 1.197 2.887 3.375 3.866 1.98.893 4.6 1.384 7.375 1.384s5.395-.491 7.375-1.384c2.174-.979 3.375-2.351 3.375-3.866v-5c0-1.331-.951-2.582-2.68-3.524m-.718 1.318c1.224.666 1.898 1.456 1.898 2.206 0 1.774-3.799 3.75-9.25 3.75q-1.33 0-2.651-.168 1.04-.279 2.026-.716c2.174-.979 3.375-2.351 3.375-3.866v-2.571c1.8.241 3.413.716 4.602 1.365M13.52 19.198a22 22 0 0 1-3.476-.032 20 20 0 0 1-1.294-.162v-3.489q1.616.237 3.25.235a22 22 0 0 0 3.25-.235V19q-.815.13-1.711.195zm7.73-5.962V15.5c0 1.192-1.719 2.475-4.5 3.189V15.23c.9-.203 1.78-.493 2.625-.865a8.3 8.3 0 0 0 1.875-1.13M12 6.75c5.451 0 9.25 1.976 9.25 3.75s-3.799 3.75-9.25 3.75-9.25-1.976-9.25-3.75S6.549 6.75 12 6.75M2.75 15.5v-2.264a8.3 8.3 0 0 0 1.875 1.125 14.4 14.4 0 0 0 2.625.865v3.458c-2.781-.709-4.5-1.992-4.5-3.184m8 6v-.785a23 23 0 0 0 2.707-.011 15 15 0 0 0 1.793.526v3.459c-2.781-.714-4.5-1.997-4.5-3.189m6 3.5v-3.488q1.616.239 3.25.238a22 22 0 0 0 3.25-.235V25a21.3 21.3 0 0 1-6.5 0m8-.311V21.23c.9-.203 1.78-.493 2.625-.865a8.3 8.3 0 0 0 1.875-1.125V21.5c0 1.192-1.719 2.475-4.5 3.189"/></svg>