<svg xmlns="http://www.w3.org/2000/svg" width="32" height="32" fill="none" viewBox="0 0 32 32"><path fill="#000" d="M24.598 7.136C23.135 4.625 21.148 3.25 19 3.25h-6c-2.148 0-4.135 1.375-5.597 3.886C6.015 9.516 5.25 12.664 5.25 16s.765 6.484 2.153 8.864c1.462 2.511 3.45 3.886 5.597 3.886h6c2.148 0 4.135-1.375 5.598-3.886 1.387-2.375 2.152-5.528 2.152-8.864s-.765-6.484-2.152-8.864m.637 8.114h-4.5c-.081-2.355-.546-4.591-1.343-6.5h4.358c.883 1.842 1.395 4.096 1.485 6.5M19 4.75c1.414 0 2.778.883 3.892 2.5H18.66l-.062-.114a9.6 9.6 0 0 0-1.912-2.386zM8.698 24.108C7.442 21.954 6.75 19.075 6.75 16s.692-5.954 1.947-8.107C9.875 5.866 11.407 4.75 13 4.75s3.125 1.116 4.302 3.143c1.256 2.153 1.948 5.032 1.948 8.107s-.692 5.954-1.948 8.108c-1.177 2.026-2.71 3.142-4.302 3.142s-3.125-1.116-4.302-3.142M19 27.25h-2.314a9.6 9.6 0 0 0 1.912-2.386l.062-.114h4.232c-1.114 1.617-2.478 2.5-3.892 2.5m4.75-4h-4.358c.797-1.909 1.262-4.145 1.343-6.5h4.5c-.09 2.404-.602 4.657-1.485 6.5"/></svg>