<svg xmlns="http://www.w3.org/2000/svg" width="32" height="32" fill="none" viewBox="0 0 32 32"><path fill="#000" d="M13 4.25H8A1.75 1.75 0 0 0 6.25 6v20A1.75 1.75 0 0 0 8 27.75h5A1.75 1.75 0 0 0 14.75 26V6A1.75 1.75 0 0 0 13 4.25M13.25 26a.25.25 0 0 1-.25.25H8a.25.25 0 0 1-.25-.25V6A.25.25 0 0 1 8 5.75h5a.25.25 0 0 1 .25.25zM24 4.25h-5A1.75 1.75 0 0 0 17.25 6v20A1.75 1.75 0 0 0 19 27.75h5A1.75 1.75 0 0 0 25.75 26V6A1.75 1.75 0 0 0 24 4.25M24.25 26a.25.25 0 0 1-.25.25h-5a.25.25 0 0 1-.25-.25V6a.25.25 0 0 1 .25-.25h5a.25.25 0 0 1 .25.25z"/></svg>