<svg xmlns="http://www.w3.org/2000/svg" width="32" height="32" fill="none" viewBox="0 0 32 32"><path fill="#000" d="M22.5 18.25h-2.75v-4.5h2.75a4.25 4.25 0 1 0-4.25-4.25v2.75h-4.5V9.5a4.25 4.25 0 1 0-4.25 4.25h2.75v4.5H9.5a4.25 4.25 0 1 0 4.25 4.25v-2.75h4.5v2.75a4.25 4.25 0 1 0 4.25-4.25M19.75 9.5a2.75 2.75 0 1 1 2.75 2.75h-2.75zm-13 0a2.75 2.75 0 1 1 5.5 0v2.75H9.5A2.75 2.75 0 0 1 6.75 9.5m5.5 13a2.75 2.75 0 1 1-2.75-2.75h2.75zm1.5-8.75h4.5v4.5h-4.5zm8.75 11.5a2.75 2.75 0 0 1-2.75-2.75v-2.75h2.75a2.75 2.75 0 1 1 0 5.5"/></svg>