<svg xmlns="http://www.w3.org/2000/svg" width="32" height="32" fill="none" viewBox="0 0 32 32"><path fill="#000" d="M26.668 15.341a.75.75 0 1 0-1.335-.682 10.22 10.22 0 0 1-4.477 4.42l-2.267-5.1A4.75 4.75 0 0 0 16.75 5.31V3a.75.75 0 1 0-1.5 0v2.31a4.75 4.75 0 0 0-1.839 8.669L7.315 27.695a.752.752 0 0 0 1.375.61l3.238-7.282c1.303.483 2.682.729 4.072.727 1.392 0 2.774-.241 4.085-.711l3.23 7.266a.752.752 0 1 0 1.375-.61l-3.221-7.25a11.74 11.74 0 0 0 5.198-5.104M16 6.75a3.25 3.25 0 1 1 0 6.5 3.25 3.25 0 0 1 0-6.5m0 13.5a10.2 10.2 0 0 1-3.466-.604l2.25-5.056c.8.213 1.64.213 2.44 0l2.25 5.075A10.7 10.7 0 0 1 16 20.25"/></svg>