<svg xmlns="http://www.w3.org/2000/svg" width="32" height="32" fill="none" viewBox="0 0 32 32"><path fill="#000" d="M4.903 4.547a.755.755 0 0 1 1.066.062l7.802 8.666 1.04 1.155 8.834 9.811 1.008 1.12 1.377 1.53a.754.754 0 0 1-.049 1.065.755.755 0 0 1-1.065-.062L23.49 26.31a12.7 12.7 0 0 1-2.611 1.468 12.753 12.753 0 0 1-17.385-9.292A12.728 12.728 0 0 1 6.526 7.47L4.854 5.614a.755.755 0 0 1 .05-1.066M7.535 8.59A11.253 11.253 0 0 0 9.75 25.355a11.25 11.25 0 0 0 6.25 1.895 11.26 11.26 0 0 0 6.48-2.064l-5.333-5.921-6.811 3.406a.752.752 0 0 1-1.007-1.006l3.563-7.127zM16 3.25A12.765 12.765 0 0 1 28.75 16a12.75 12.75 0 0 1-2.514 7.601c-.274.368-.812.374-1.119.033"/></svg>