<svg xmlns="http://www.w3.org/2000/svg" width="32" height="32" fill="none" viewBox="0 0 32 32"><path fill="#000" d="M20.75 9a.75.75 0 0 1-.75.75h-8a.75.75 0 1 1 0-1.5h8a.75.75 0 0 1 .75.75M20 12.25h-8a.75.75 0 1 0 0 1.5h8a.75.75 0 1 0 0-1.5M25.75 5v22A1.75 1.75 0 0 1 24 28.75H8A1.75 1.75 0 0 1 6.25 27V5A1.75 1.75 0 0 1 8 3.25h16A1.75 1.75 0 0 1 25.75 5m-1.5 0a.25.25 0 0 0-.25-.25H8a.25.25 0 0 0-.25.25v22a.25.25 0 0 0 .25.25h16a.25.25 0 0 0 .25-.25zM16 21.25a1.25 1.25 0 1 0 0 2.5 1.25 1.25 0 0 0 0-2.5"/></svg>