<svg xmlns="http://www.w3.org/2000/svg" width="32" height="32" fill="none" viewBox="0 0 32 32"><path fill="#000" d="M11.914 12.65a7.17 7.17 0 0 1 0 6.7.75.75 0 0 1-1.328-.7 5.6 5.6 0 0 0 0-5.3.75.75 0 1 1 1.328-.7m5.982-4.311a.75.75 0 0 0-.307 1.015 14.09 14.09 0 0 1 0 13.292.75.75 0 1 0 1.322.708 15.58 15.58 0 0 0 0-14.708.75.75 0 0 0-1.015-.307m-3.5 2a.75.75 0 0 0-.31 1.015 9.88 9.88 0 0 1 0 9.295.75.75 0 1 0 1.325.705 11.38 11.38 0 0 0 0-10.705.75.75 0 0 0-1.013-.311zM28.75 16A12.75 12.75 0 1 1 16 3.25 12.765 12.765 0 0 1 28.75 16m-1.5 0A11.25 11.25 0 1 0 16 27.25 11.26 11.26 0 0 0 27.25 16"/></svg>