<svg xmlns="http://www.w3.org/2000/svg" width="32" height="32" fill="none" viewBox="0 0 32 32"><path fill="#000" d="M20.384 20.616a1.25 1.25 0 1 1-1.77 1.769 1.25 1.25 0 0 1 1.77-1.769m-9.768-1a1.25 1.25 0 1 0 1.767 1.768 1.25 1.25 0 0 0-1.767-1.768m.768-5.232a1.25 1.25 0 1 0-1.769-1.769 1.25 1.25 0 0 0 1.769 1.769m4.232.232a1.25 1.25 0 1 0 1.766 1.767 1.25 1.25 0 0 0-1.766-1.767M28.75 16A12.75 12.75 0 1 1 16 3.25a.75.75 0 0 1 .75.75A5.25 5.25 0 0 0 22 9.25a.75.75 0 0 1 .75.75A5.25 5.25 0 0 0 28 15.25a.75.75 0 0 1 .75.75m-1.523.706a6.76 6.76 0 0 1-5.94-5.993 6.76 6.76 0 0 1-6-5.942 11.25 11.25 0 1 0 11.934 11.935z"/></svg>