<svg xmlns="http://www.w3.org/2000/svg" width="32" height="32" fill="none" viewBox="0 0 32 32"><path fill="#000" d="M29.75 13.421V9A1.75 1.75 0 0 0 28 7.25H4A1.75 1.75 0 0 0 2.25 9v4.421a1.75 1.75 0 0 0-1 1.579v6A1.75 1.75 0 0 0 3 22.75h1.25V25a.75.75 0 1 0 1.5 0v-2.25h20.5V25a.75.75 0 1 0 1.5 0v-2.25H29A1.75 1.75 0 0 0 30.75 21v-6a1.75 1.75 0 0 0-1-1.579M28.25 9v4.25H27A1.75 1.75 0 0 0 25.25 15v2a.25.25 0 0 1-.25.25h-8.25v-8.5H28a.25.25 0 0 1 .25.25M4 8.75h11.25v8.5H7a.25.25 0 0 1-.25-.25v-2A1.75 1.75 0 0 0 5 13.25H3.75V9A.25.25 0 0 1 4 8.75M29.25 21a.25.25 0 0 1-.25.25H3a.25.25 0 0 1-.25-.25v-6a.25.25 0 0 1 .25-.25h2a.25.25 0 0 1 .25.25v2A1.75 1.75 0 0 0 7 18.75h18A1.75 1.75 0 0 0 26.75 17v-2a.25.25 0 0 1 .25-.25h2a.25.25 0 0 1 .25.25z"/></svg>