<svg xmlns="http://www.w3.org/2000/svg" width="32" height="32" fill="none" viewBox="0 0 32 32"><path fill="#000" d="M19 12.25h-6a.75.75 0 0 0-.75.75v6a.75.75 0 0 0 .75.75h6a.75.75 0 0 0 .75-.75v-6a.75.75 0 0 0-.75-.75m-.75 6h-4.5v-4.5h4.5zm10.75 0h-2.25v-4.5H29a.75.75 0 1 0 0-1.5h-2.25V7A1.75 1.75 0 0 0 25 5.25h-5.25V3a.75.75 0 1 0-1.5 0v2.25h-4.5V3a.75.75 0 1 0-1.5 0v2.25H7A1.75 1.75 0 0 0 5.25 7v5.25H3a.75.75 0 1 0 0 1.5h2.25v4.5H3a.75.75 0 1 0 0 1.5h2.25V25A1.75 1.75 0 0 0 7 26.75h5.25V29a.75.75 0 1 0 1.5 0v-2.25h4.5V29a.75.75 0 1 0 1.5 0v-2.25H25A1.75 1.75 0 0 0 26.75 25v-5.25H29a.75.75 0 1 0 0-1.5M25.25 25a.25.25 0 0 1-.25.25H7a.25.25 0 0 1-.25-.25V7A.25.25 0 0 1 7 6.75h18a.25.25 0 0 1 .25.25z"/></svg>