<svg xmlns="http://www.w3.org/2000/svg" width="32" height="32" fill="none" viewBox="0 0 32 32"><path fill="#000" d="M28 6.25H4A1.75 1.75 0 0 0 2.25 8v16A1.75 1.75 0 0 0 4 25.75h24A1.75 1.75 0 0 0 29.75 24V8A1.75 1.75 0 0 0 28 6.25M4 7.75h24a.25.25 0 0 1 .25.25v3.25H3.75V8A.25.25 0 0 1 4 7.75m24 16.5H4a.25.25 0 0 1-.25-.25V12.75h24.5V24a.25.25 0 0 1-.25.25M25.75 21a.75.75 0 0 1-.75.75h-4a.75.75 0 1 1 0-1.5h4a.75.75 0 0 1 .75.75m-8 0a.75.75 0 0 1-.75.75h-2a.75.75 0 1 1 0-1.5h2a.75.75 0 0 1 .75.75"/></svg>