<svg xmlns="http://www.w3.org/2000/svg" width="32" height="32" fill="none" viewBox="0 0 32 32"><path fill="#000" d="M25 9.25h-5a.25.25 0 0 1-.25-.25V4A1.75 1.75 0 0 0 18 2.25h-4A1.75 1.75 0 0 0 12.25 4v5a.25.25 0 0 1-.25.25H7A1.75 1.75 0 0 0 5.25 11v4A1.75 1.75 0 0 0 7 16.75h5a.25.25 0 0 1 .25.25v11A1.75 1.75 0 0 0 14 29.75h4A1.75 1.75 0 0 0 19.75 28V17a.25.25 0 0 1 .25-.25h5A1.75 1.75 0 0 0 26.75 15v-4A1.75 1.75 0 0 0 25 9.25m.25 5.75a.25.25 0 0 1-.25.25h-5A1.75 1.75 0 0 0 18.25 17v11a.25.25 0 0 1-.25.25h-4a.25.25 0 0 1-.25-.25V17A1.75 1.75 0 0 0 12 15.25H7a.25.25 0 0 1-.25-.25v-4a.25.25 0 0 1 .25-.25h5A1.75 1.75 0 0 0 13.75 9V4a.25.25 0 0 1 .25-.25h4a.25.25 0 0 1 .25.25v5A1.75 1.75 0 0 0 20 10.75h5a.25.25 0 0 1 .25.25z"/></svg>