<svg xmlns="http://www.w3.org/2000/svg" width="32" height="32" fill="none" viewBox="0 0 32 32"><path fill="#000" d="M29 15.25h-1.275A11.766 11.766 0 0 0 16.75 4.275V3a.75.75 0 1 0-1.5 0v1.275A11.766 11.766 0 0 0 4.275 15.25H3a.75.75 0 1 0 0 1.5h1.275A11.766 11.766 0 0 0 15.25 27.725V29a.75.75 0 1 0 1.5 0v-1.275A11.766 11.766 0 0 0 27.725 16.75H29a.75.75 0 1 0 0-1.5M16.75 26.22V25a.75.75 0 1 0-1.5 0v1.22a10.26 10.26 0 0 1-9.47-9.47H7a.75.75 0 1 0 0-1.5H5.78a10.26 10.26 0 0 1 9.47-9.47V7a.75.75 0 1 0 1.5 0V5.78a10.26 10.26 0 0 1 9.47 9.47H25a.75.75 0 1 0 0 1.5h1.22a10.26 10.26 0 0 1-9.47 9.47M16 11.25a4.75 4.75 0 1 0 0 9.5 4.75 4.75 0 0 0 0-9.5m0 8a3.25 3.25 0 1 1 0-6.5 3.25 3.25 0 0 1 0 6.5"/></svg>