<svg xmlns="http://www.w3.org/2000/svg" width="32" height="32" fill="none" viewBox="0 0 32 32"><path fill="#000" d="M30.315 9.713a1.26 1.26 0 0 0-1.39-.178l-6.484 3.233-5.358-8.907a1.263 1.263 0 0 0-2.165 0l-5.36 8.907-6.48-3.232a1.263 1.263 0 0 0-1.763 1.527l4.625 14.17a.75.75 0 0 0 1.096.412c.009 0 .82-.48 2.325-.947 1.389-.433 3.665-.948 6.639-.948s5.25.515 6.64.948c1.5.467 2.316.942 2.322.946a.75.75 0 0 0 1.098-.411l4.625-14.168a1.25 1.25 0 0 0-.37-1.352M24.904 23.94c-1.375-.615-4.425-1.691-8.904-1.691s-7.529 1.076-8.904 1.691l-4.181-12.81 6.169 3.075a1.27 1.27 0 0 0 1.647-.479L16 4.977l5.269 8.757a1.27 1.27 0 0 0 1.646.479l6.17-3.077z"/></svg>