<svg xmlns="http://www.w3.org/2000/svg" width="32" height="32" fill="none" viewBox="0 0 32 32"><path fill="#000" d="M23.75 19.679V12.32a1.37 1.37 0 0 0-.677-1.188l-6.418-3.707a1.31 1.31 0 0 0-1.31 0l-6.416 3.707a1.38 1.38 0 0 0-.679 1.188v7.358a1.38 1.38 0 0 0 .678 1.189l6.417 3.706a1.31 1.31 0 0 0 1.31 0l6.416-3.707a1.38 1.38 0 0 0 .679-1.188M16 8.78 21.574 12 16 15.217 10.426 12zm-6.25 4.561 5.5 3.175v6.272l-5.5-3.178zm7 9.447v-6.272l5.5-3.175v6.269zM28.75 6v5a.75.75 0 1 1-1.5 0V6.75H23a.75.75 0 1 1 0-1.5h5a.75.75 0 0 1 .75.75m-19 20a.75.75 0 0 1-.75.75H4a.75.75 0 0 1-.75-.75v-5a.75.75 0 1 1 1.5 0v4.25H9a.75.75 0 0 1 .75.75m19-5v5a.75.75 0 0 1-.75.75h-5a.75.75 0 1 1 0-1.5h4.25V21a.75.75 0 1 1 1.5 0M3.25 11V6A.75.75 0 0 1 4 5.25h5a.75.75 0 0 1 0 1.5H4.75V11a.75.75 0 1 1-1.5 0"/></svg>