<svg xmlns="http://www.w3.org/2000/svg" width="32" height="32" fill="none" viewBox="0 0 32 32"><path fill="#000" d="M27 17.25h-2.25v-2.5H27a.75.75 0 1 0 0-1.5h-2.25v-7.5a.75.75 0 1 0-1.5 0v7.5h-8.445L8.591 5.289a.75.75 0 0 0-1.341.461v7.5H5a.75.75 0 1 0 0 1.5h2.25v2.5H5a.75.75 0 1 0 0 1.5h2.25v7.5a.75.75 0 1 0 1.5 0v-7.5h8.445l6.214 7.961a.75.75 0 0 0 1.341-.461v-7.5H27a.75.75 0 1 0 0-1.5m-3.75-2.5v2.5h-5.323l-1.95-2.5zM8.75 7.93l4.153 5.32H8.75zm0 9.32v-2.5h5.323l1.95 2.5zm14.5 6.82-4.152-5.32h4.152z"/></svg>