<svg xmlns="http://www.w3.org/2000/svg" width="32" height="32" fill="none" viewBox="0 0 32 32"><path fill="#000" d="M30 16.25h-3.136l2.831-6.967a.75.75 0 1 0-1.39-.565L25.25 16.25h-5.5l-3.055-7.532a.75.75 0 0 0-1.39 0L12.25 16.25h-5.5L3.695 8.718a.75.75 0 1 0-1.39.565l2.831 6.967H2a.75.75 0 1 0 0 1.5h3.75l3.06 7.533a.75.75 0 0 0 1.39 0l3.05-7.533h5.5l3.06 7.533a.75.75 0 0 0 1.39 0l3.05-7.533H30a.75.75 0 1 0 0-1.5M9.5 23.008 7.364 17.75h4.272zm4.364-6.758L16 10.993l2.136 5.257zm8.636 6.758-2.136-5.258h4.272z"/></svg>