<svg xmlns="http://www.w3.org/2000/svg" width="32" height="32" fill="none" viewBox="0 0 32 32"><path fill="#000" d="M16 3.25C9.411 3.25 4.25 6.215 4.25 10v12c0 3.785 5.161 6.75 11.75 6.75S27.75 25.785 27.75 22V10c0-3.785-5.161-6.75-11.75-6.75m0 1.5c5.556 0 10.25 2.404 10.25 5.25S21.556 15.25 16 15.25 5.75 12.846 5.75 10 10.444 4.75 16 4.75M26.25 22c0 2.846-4.694 5.25-10.25 5.25S5.75 24.846 5.75 22v-2.651c2 2.046 5.796 3.401 10.25 3.401s8.25-1.355 10.25-3.401zm0-6c0 2.846-4.694 5.25-10.25 5.25S5.75 18.846 5.75 16v-2.651c2 2.046 5.796 3.401 10.25 3.401s8.25-1.355 10.25-3.401z"/></svg>