<svg xmlns="http://www.w3.org/2000/svg" width="32" height="32" fill="none" viewBox="0 0 32 32"><path fill="#000" d="M31 14.25h-3.617l-6.008-8.279a1.75 1.75 0 0 0-2.77-.076L16.991 7.76l-.017.021a1.25 1.25 0 0 1-1.965-.021L13.4 5.895a1.75 1.75 0 0 0-2.775.076L4.618 14.25H1a.75.75 0 1 0 0 1.5h30a.75.75 0 1 0 0-1.5M11.844 6.853a.25.25 0 0 1 .394-.01l.018.022 1.608 1.865A2.73 2.73 0 0 0 16 9.75a2.74 2.74 0 0 0 2.136-1.02l1.614-1.865.019-.021a.25.25 0 0 1 .394.008l5.375 7.398H6.47zM22.5 18.25a4.25 4.25 0 0 0-4.242 4h-4.515a4.25 4.25 0 1 0-.18 1.5h4.874a4.25 4.25 0 1 0 4.063-5.5m-13 7a2.75 2.75 0 1 1 0-5.5 2.75 2.75 0 0 1 0 5.5m13 0a2.75 2.75 0 1 1 0-5.5 2.75 2.75 0 0 1 0 5.5"/></svg>