<svg xmlns="http://www.w3.org/2000/svg" width="32" height="32" fill="none" viewBox="0 0 32 32"><path fill="#000" d="M28 9.25h-2.25V8A2.75 2.75 0 0 0 23 5.25H5A2.75 2.75 0 0 0 2.25 8v12A2.75 2.75 0 0 0 5 22.75h14.25V24A2.75 2.75 0 0 0 22 26.75h6A2.75 2.75 0 0 0 30.75 24V12A2.75 2.75 0 0 0 28 9.25m-23 12A1.25 1.25 0 0 1 3.75 20V8A1.25 1.25 0 0 1 5 6.75h18A1.25 1.25 0 0 1 24.25 8v1.25H22A2.75 2.75 0 0 0 19.25 12v9.25zM29.25 24A1.25 1.25 0 0 1 28 25.25h-6A1.25 1.25 0 0 1 20.75 24V12A1.25 1.25 0 0 1 22 10.75h6A1.25 1.25 0 0 1 29.25 12zm-12.5 2a.75.75 0 0 1-.75.75h-5a.75.75 0 1 1 0-1.5h5a.75.75 0 0 1 .75.75m10-12a.75.75 0 0 1-.75.75h-2a.75.75 0 1 1 0-1.5h2a.75.75 0 0 1 .75.75"/></svg>