<svg xmlns="http://www.w3.org/2000/svg" width="32" height="32" fill="none" viewBox="0 0 32 32"><path fill="#000" d="M12.75 17.5a1.25 1.25 0 1 1-2.5 0 1.25 1.25 0 0 1 2.5 0m7.75-1.25a1.25 1.25 0 1 0 0 2.5 1.25 1.25 0 0 0 0-2.5m9.205 7.635-8.375 3.714c-.227.1-.473.15-.721.151a1.77 1.77 0 0 1-1.656-1.148l-1.078-2.923q-.923.07-1.875.072c-.635 0-1.257-.026-1.875-.072l-1.079 2.924a1.77 1.77 0 0 1-1.655 1.147c-.248 0-.493-.052-.72-.151l-8.376-3.714a1.75 1.75 0 0 1-.991-2.025L5 7.313a1.76 1.76 0 0 1 1.418-1.3l4.507-.74a1.774 1.774 0 0 1 2 1.3l.461 1.816a24.7 24.7 0 0 1 5.228 0l.461-1.816a1.773 1.773 0 0 1 2-1.3l4.508.74A1.76 1.76 0 0 1 27 7.314l3.691 14.547a1.75 1.75 0 0 1-.986 2.025m-.462-1.656L25.55 7.68a.26.26 0 0 0-.212-.187L20.83 6.75a.266.266 0 0 0-.302.188l-.42 1.654q1.058.183 2.094.47A.75.75 0 0 1 22 10.54a.7.7 0 0 1-.202-.029A21.8 21.8 0 0 0 16 9.75a21.8 21.8 0 0 0-5.797.76.75.75 0 1 1-.405-1.444q1.035-.288 2.093-.47l-.42-1.655a.265.265 0 0 0-.302-.191L6.66 7.5a.26.26 0 0 0-.212.188l-3.691 14.54a.25.25 0 0 0 .145.286l8.375 3.712a.274.274 0 0 0 .362-.146l.948-2.569a21.5 21.5 0 0 1-2.792-.58.75.75 0 0 1-.538-.93.75.75 0 0 1 .943-.514c1.89.514 3.84.77 5.8.763a21.8 21.8 0 0 0 5.797-.76.75.75 0 1 1 .405 1.444 21.5 21.5 0 0 1-2.792.58l.948 2.569a.26.26 0 0 0 .142.146.27.27 0 0 0 .22 0l8.375-3.713a.25.25 0 0 0 .147-.287"/></svg>