<svg xmlns="http://www.w3.org/2000/svg" width="32" height="32" fill="none" viewBox="0 0 32 32"><path fill="#000" d="M12.75 17.5a1.25 1.25 0 1 1-2.5 0 1.25 1.25 0 0 1 2.5 0m7.75-1.25a1.25 1.25 0 1 0 0 2.499 1.25 1.25 0 0 0 0-2.499m8.221 1.34a1.8 1.8 0 0 1-.736.161 1.72 1.72 0 0 1-1.235-.529V23A4.75 4.75 0 0 1 22 27.75H10A4.75 4.75 0 0 1 5.25 23v-5.777a1.72 1.72 0 0 1-1.971.366 1.73 1.73 0 0 1-1-1.918l2.052-11a1.75 1.75 0 0 1 2.145-1.375l.03.009 6.602 1.945h5.784l6.6-1.939.03-.008a1.75 1.75 0 0 1 2.144 1.375l2.053 11a1.726 1.726 0 0 1-.998 1.912M11.735 6.409 6.105 4.75a.24.24 0 0 0-.186.034.25.25 0 0 0-.11.165l-2.053 11a.25.25 0 0 0 .443.201zM25.25 23v-7.696L18.633 6.75h-5.265L6.75 15.304V23A3.25 3.25 0 0 0 10 26.25h5.25v-1.94l-1.78-1.78a.75.75 0 0 1 1.06-1.06L16 22.939l1.47-1.469a.75.75 0 0 1 1.06 1.06l-1.78 1.78v1.94H22A3.25 3.25 0 0 0 25.25 23m3-7.05-2.052-11a.25.25 0 0 0-.297-.197l-5.625 1.653 7.54 9.75a.25.25 0 0 0 .434-.206"/></svg>