<svg xmlns="http://www.w3.org/2000/svg" width="32" height="32" fill="none" viewBox="0 0 32 32"><path fill="#000" d="M8.75 7.5a1.25 1.25 0 1 1-2.5 0 1.25 1.25 0 0 1 2.5 0M16 6.25a1.25 1.25 0 1 0 0 2.5 1.25 1.25 0 0 0 0-2.5m8.5 2.5a1.25 1.25 0 1 0 0-2.5 1.25 1.25 0 0 0 0 2.5m-17 6a1.25 1.25 0 1 0 0 2.5 1.25 1.25 0 0 0 0-2.5m8.5 0a1.25 1.25 0 1 0 0 2.5 1.25 1.25 0 0 0 0-2.5m8.5 0a1.25 1.25 0 1 0 0 2.5 1.25 1.25 0 0 0 0-2.5m-17 8.5a1.25 1.25 0 1 0 0 2.5 1.25 1.25 0 0 0 0-2.5m8.5 0a1.25 1.25 0 1 0 0 2.5 1.25 1.25 0 0 0 0-2.5m8.5 0a1.25 1.25 0 1 0 0 2.5 1.25 1.25 0 0 0 0-2.5"/></svg>