<svg xmlns="http://www.w3.org/2000/svg" width="32" height="32" fill="none" viewBox="0 0 32 32"><path fill="#000" d="M29.75 17v8A1.75 1.75 0 0 1 28 26.75H4A1.75 1.75 0 0 1 2.25 25v-8A1.75 1.75 0 0 1 4 15.25h5a.75.75 0 1 1 0 1.5H4a.25.25 0 0 0-.25.25v8a.25.25 0 0 0 .25.25h24a.25.25 0 0 0 .25-.25v-8a.25.25 0 0 0-.25-.25h-5a.75.75 0 1 1 0-1.5h5A1.75 1.75 0 0 1 29.75 17m-14.28-.47a.75.75 0 0 0 1.06 0l6-6a.75.75 0 0 0-1.06-1.06l-4.72 4.719V3a.75.75 0 1 0-1.5 0v11.189L10.53 9.47a.75.75 0 0 0-1.06 1.06zM24.75 21a1.25 1.25 0 1 0-2.5 0 1.25 1.25 0 0 0 2.5 0"/></svg>