<svg xmlns="http://www.w3.org/2000/svg" width="32" height="32" fill="none" viewBox="0 0 32 32"><path fill="#000" d="m26.608 26.311-.01-.023-5.743-12.233 2.635-4.137.011-.018a1.75 1.75 0 0 0-.029-1.845L20.75 4.166V1a.75.75 0 0 0-1.5 0v3.14l-.712.89a3.25 3.25 0 0 1-5.075 0l-.713-.89V1a.75.75 0 0 0-1.5 0v3.166L8.527 8.055q-.015.022-.028.045a1.75 1.75 0 0 0 0 1.8l.011.018 2.635 4.137-5.743 12.233-.01.023A1.75 1.75 0 0 0 7 28.75h18a1.75 1.75 0 0 0 1.609-2.439zM9.782 9.125a.25.25 0 0 1-.006-.236l2.264-3.235.25.314a4.75 4.75 0 0 0 7.418 0l.25-.314 2.263 3.232a.25.25 0 0 1 0 .237l-2.625 4.125h-7.185zm15.426 18.013a.24.24 0 0 1-.21.112H7a.25.25 0 0 1-.234-.34l5.71-12.16h7.048l5.709 12.16a.24.24 0 0 1-.026.227"/></svg>