<svg xmlns="http://www.w3.org/2000/svg" width="32" height="32" fill="none" viewBox="0 0 32 32"><path fill="#000" d="M16 3.25A12.75 12.75 0 1 0 28.75 16 12.765 12.765 0 0 0 16 3.25m11.226 12.038a20.804 20.804 0 0 0-6.881.749A20.5 20.5 0 0 0 18.541 12q-.027-.046-.055-.092a20.8 20.8 0 0 0 5.099-4.214 11.22 11.22 0 0 1 3.641 7.594M22.411 6.76a19.3 19.3 0 0 1-4.737 3.889 20.9 20.9 0 0 0-5.314-5.295 11.23 11.23 0 0 1 10.051 1.406m-11.697-.689a19.4 19.4 0 0 1 5.625 5.284A19.2 19.2 0 0 1 8 13.25q-1.436 0-2.855-.211a11.3 11.3 0 0 1 5.569-6.966M4.75 16q0-.748.099-1.49 1.566.24 3.151.24c3.176.004 6.31-.723 9.161-2.125q.043.068.084.137a19 19 0 0 1 1.672 3.738c-1.129.408-2.22.915-3.26 1.514a20.9 20.9 0 0 0-6.96 6.536A11.23 11.23 0 0 1 4.75 16m5.149 9.448a19.4 19.4 0 0 1 6.506-6.14 19 19 0 0 1 2.922-1.367 19.3 19.3 0 0 1 .062 8.787 11.23 11.23 0 0 1-9.49-1.28m11.155.6a20.834 20.834 0 0 0-.296-8.571 19.3 19.3 0 0 1 6.463-.687 11.27 11.27 0 0 1-6.167 9.259"/></svg>