<svg xmlns="http://www.w3.org/2000/svg" width="32" height="32" fill="none" viewBox="0 0 32 32"><path fill="#000" d="M29.428 18.884 23.818 15l5.61-3.884a.75.75 0 0 0 0-1.232l-6.5-4.5a.75.75 0 0 0-.855 0L16 9.588 9.928 5.384a.75.75 0 0 0-.855 0l-6.5 4.5a.75.75 0 0 0 0 1.232L8.183 15l-5.61 3.884a.75.75 0 0 0 0 1.232l6.5 4.5a.75.75 0 0 0 .855 0L16 20.413l6.073 4.203a.75.75 0 0 0 .854 0l6.5-4.5a.75.75 0 0 0 0-1.232M16 18.587 10.818 15 16 11.412 21.183 15zm6.5-11.674 5.183 3.587-5.183 3.588-5.183-3.588zm-13 0 5.182 3.587L9.5 14.088 4.318 10.5zm0 16.174L4.318 19.5 9.5 15.912l5.182 3.588zm13 0L17.317 19.5l5.183-3.588 5.183 3.588zM19.602 26a.75.75 0 0 1-.188 1.044l-2.987 2.067a.75.75 0 0 1-.854 0l-2.987-2.067a.75.75 0 0 1 .854-1.233L16 27.587l2.56-1.77a.75.75 0 0 1 1.043.183"/></svg>