<svg xmlns="http://www.w3.org/2000/svg" width="32" height="32" fill="none" viewBox="0 0 32 32"><path fill="#000" d="M21.566 6.132a31.4 31.4 0 0 0-5.136-4.75.75.75 0 0 0-.86 0 31.4 31.4 0 0 0-5.136 4.75C7.043 10.032 5.25 14.136 5.25 18a10.75 10.75 0 0 0 21.5 0c0-3.864-1.793-7.967-5.184-11.868M25.25 18q-.001.628-.086 1.25H16.75v-2.5h8.43q.07.623.07 1.25m-1.9-6.75h-6.6v-2.5h4.986a22 22 0 0 1 1.614 2.5m-6.6 13.5h5.565a9.22 9.22 0 0 1-5.565 2.468zm0-1.5v-2.5h8.083a9.3 9.3 0 0 1-1.223 2.5zm0-8v-2.5h7.337c.354.806.634 1.643.837 2.5zm3.786-8H16.75V3.537a32 32 0 0 1 3.786 3.713M6.75 18c0-6.677 5.919-12.32 8.5-14.463v23.68A9.26 9.26 0 0 1 6.75 18"/></svg>