<svg xmlns="http://www.w3.org/2000/svg" width="32" height="32" fill="none" viewBox="0 0 32 32"><path fill="#000" d="M21.566 6.132a31.4 31.4 0 0 0-5.136-4.75.75.75 0 0 0-.86 0 31.4 31.4 0 0 0-5.136 4.75C7.043 10.032 5.25 14.136 5.25 18a10.75 10.75 0 0 0 21.5 0c0-3.864-1.793-7.967-5.184-11.868M23.61 23.25H8.39a9.3 9.3 0 0 1-1.223-2.5h17.666a9.3 9.3 0 0 1-1.223 2.5m-16.774-4A9 9 0 0 1 6.75 18q0-.627.07-1.25h18.36q.07.623.07 1.25-.001.628-.086 1.25zM16 2.936c1.641 1.265 7.479 6.133 8.924 12.314H7.076C8.521 9.069 14.36 4.201 16 2.936M9.685 24.75H22.31a9.226 9.226 0 0 1-12.625 0"/></svg>