<svg xmlns="http://www.w3.org/2000/svg" width="32" height="32" fill="none" viewBox="0 0 32 32"><path fill="#000" d="M6.555 4.5a.75.75 0 0 0-1.11 1l1.52 1.676A10.67 10.67 0 0 0 5.25 13c0 4.08 1.515 5.541 2.731 6.714.989.954 1.769 1.706 1.769 3.786A6.257 6.257 0 0 0 16 29.75c1.793 0 3.332-.765 4.579-2.273a.751.751 0 0 0-1.158-.954c-.96 1.162-2.078 1.727-3.421 1.727a4.75 4.75 0 0 1-4.75-4.75c0-2.718-1.133-3.81-2.227-4.865C7.853 17.507 6.75 16.444 6.75 13a9.2 9.2 0 0 1 1.265-4.669l2.546 2.802A5.8 5.8 0 0 0 10.25 13a.75.75 0 1 0 1.5 0q0-.263.033-.524l5.643 6.208A5 5 0 0 0 17.25 20a2.75 2.75 0 0 0 3.714 2.575l4.481 4.925a.75.75 0 1 0 1.11-1.01zM18.76 20.156l.973 1.069a1.25 1.25 0 0 1-.973-1.074zM10.229 4.798a.75.75 0 0 1 .259-1.028A10.75 10.75 0 0 1 26.75 13a.75.75 0 1 1-1.5 0 9.25 9.25 0 0 0-13.992-7.944.75.75 0 0 1-1.03-.258m9.604 9.858A3.5 3.5 0 0 0 20.25 13a4.25 4.25 0 0 0-5.625-4.021.75.75 0 0 1-.486-1.419A5.75 5.75 0 0 1 21.75 13a5 5 0 0 1-.585 2.345.748.748 0 0 1-1.242.142.75.75 0 0 1-.09-.83"/></svg>