<svg xmlns="http://www.w3.org/2000/svg" width="32" height="32" fill="none" viewBox="0 0 32 32"><path fill="#000" d="M26.75 13a.75.75 0 1 1-1.5 0 9.25 9.25 0 0 0-18.5 0c0 3.444 1.104 4.508 2.273 5.635.538.519 1.096 1.056 1.52 1.809.476.845.707 1.844.707 3.056A4.75 4.75 0 0 0 16 28.25c1.343 0 2.461-.565 3.421-1.727a.751.751 0 0 1 1.158.954C19.332 28.986 17.793 29.75 16 29.75a6.257 6.257 0 0 1-6.25-6.25c0-2.08-.78-2.832-1.769-3.786C6.765 18.54 5.25 17.08 5.25 13a10.75 10.75 0 1 1 21.5 0m-4.642 7.351a.75.75 0 0 0-1.024.274A1.25 1.25 0 0 1 18.75 20c0-1.25.625-2.084 1.35-3.05.775-1.031 1.65-2.2 1.65-3.95a5.75 5.75 0 0 0-11.5 0 .75.75 0 1 0 1.5 0 4.25 4.25 0 0 1 8.5 0c0 1.25-.625 2.084-1.35 3.05-.775 1.031-1.65 2.2-1.65 3.95a2.75 2.75 0 0 0 5.131 1.375.75.75 0 0 0-.273-1.024"/></svg>