<svg xmlns="http://www.w3.org/2000/svg" width="32" height="32" fill="none" viewBox="0 0 32 32"><path fill="#000" d="M23.125 7.584C20.898 4.25 18.234 2.25 16 2.25s-4.898 2-7.125 5.334C6.571 11.04 5.25 15.2 5.25 19a10.75 10.75 0 1 0 21.5 0c0-3.799-1.321-7.96-3.625-11.416M16 28.25A9.26 9.26 0 0 1 6.75 19c0-3.51 1.23-7.367 3.375-10.584C12.014 5.581 14.32 3.75 16 3.75c1.315 0 3.015 1.125 4.598 2.971L15.44 12.5a.75.75 0 0 0 .375 1.227l3.31.827-.859 4.298a.75.75 0 0 0 1.208.728.75.75 0 0 0 .26-.432l1-5a.75.75 0 0 0-.553-.875l-2.796-.7 4.15-4.65q.17.24.34.493C24.019 11.633 25.25 15.49 25.25 19A9.26 9.26 0 0 1 16 28.25"/></svg>