<svg xmlns="http://www.w3.org/2000/svg" width="32" height="32" fill="none" viewBox="0 0 32 32"><path fill="#000" d="M28.75 26a.75.75 0 0 1-.75.75H4a.75.75 0 1 1 0-1.5h24a.75.75 0 0 1 .75.75M3.424 19.75a1.75 1.75 0 0 1 .221-1.875l10.208-12.6a2.763 2.763 0 0 1 4.295 0l10.207 12.6a1.761 1.761 0 0 1-1.366 2.875H5.01a1.75 1.75 0 0 1-1.587-1m1.354-.645a.25.25 0 0 0 .233.145H26.99a.25.25 0 0 0 .233-.148.25.25 0 0 0-.033-.28L16.983 6.22a1.262 1.262 0 0 0-1.966 0L4.812 18.823a.25.25 0 0 0-.033.28z"/></svg>