<svg xmlns="http://www.w3.org/2000/svg" width="32" height="32" fill="none" viewBox="0 0 32 32"><path fill="#000" d="M26 4.25H6A1.75 1.75 0 0 0 4.25 6v20A1.75 1.75 0 0 0 6 27.75h20A1.75 1.75 0 0 0 27.75 26V6A1.75 1.75 0 0 0 26 4.25m-3.75 9.5v12.5h-5.5v-12.5zm-7 12.5h-5.5v-12.5h5.5zm11-.25a.25.25 0 0 1-.25.25h-2.25V13a.75.75 0 0 0-.75-.75H9a.75.75 0 0 0-.75.75v13.25H6a.25.25 0 0 1-.25-.25V6A.25.25 0 0 1 6 5.75h20a.25.25 0 0 1 .25.25zm-7.5-17a.75.75 0 0 1-.75.75h-4a.75.75 0 1 1 0-1.5h4a.75.75 0 0 1 .75.75"/></svg>