<svg xmlns="http://www.w3.org/2000/svg" width="32" height="32" fill="none" viewBox="0 0 32 32"><path fill="#000" d="M9.75 12a.75.75 0 0 1-.75.75H3a.75.75 0 1 1 0-1.5h6a.75.75 0 0 1 .75.75M9 15.25H3a.75.75 0 1 0 0 1.5h6a.75.75 0 1 0 0-1.5m0 4H3a.75.75 0 1 0 0 1.5h6a.75.75 0 1 0 0-1.5m0 4H3a.75.75 0 1 0 0 1.5h6a.75.75 0 1 0 0-1.5m10-8h-6a.75.75 0 1 0 0 1.5h6a.75.75 0 1 0 0-1.5m0 4h-6a.75.75 0 1 0 0 1.5h6a.75.75 0 1 0 0-1.5m0 4h-6a.75.75 0 1 0 0 1.5h6a.75.75 0 1 0 0-1.5m10-12h-6a.75.75 0 1 0 0 1.5h6a.75.75 0 1 0 0-1.5m-6-2.5h6a.75.75 0 1 0 0-1.5h-6a.75.75 0 1 0 0 1.5m6 6.5h-6a.75.75 0 1 0 0 1.5h6a.75.75 0 1 0 0-1.5m0 4h-6a.75.75 0 1 0 0 1.5h6a.75.75 0 1 0 0-1.5m0 4h-6a.75.75 0 1 0 0 1.5h6a.75.75 0 1 0 0-1.5"/></svg>