<svg xmlns="http://www.w3.org/2000/svg" width="32" height="32" fill="none" viewBox="0 0 32 32"><path fill="#000" d="M21.47 10.53a.75.75 0 0 1 1.06-1.06l1.72 1.719V6a.75.75 0 1 1 1.5 0v5.189l1.72-1.719a.75.75 0 0 1 1.06 1.06l-3 3a.75.75 0 0 1-1.06 0zM29.75 20v5A1.75 1.75 0 0 1 28 26.75h-6.562a1.75 1.75 0 0 1-1.287-.564L8.75 13.83a.25.25 0 0 0-.187-.08H4A1.75 1.75 0 0 1 2.25 12V7A1.75 1.75 0 0 1 4 5.25h6.563a1.75 1.75 0 0 1 1.286.564L23.25 18.17a.25.25 0 0 0 .184.08H28A1.75 1.75 0 0 1 29.75 20m-1.5 0a.25.25 0 0 0-.25-.25h-4.562a1.75 1.75 0 0 1-1.287-.564L10.75 6.83a.25.25 0 0 0-.187-.08H4a.25.25 0 0 0-.25.25v5a.25.25 0 0 0 .25.25h4.563a1.75 1.75 0 0 1 1.286.564L21.25 25.17a.25.25 0 0 0 .184.08H28a.25.25 0 0 0 .25-.25z"/></svg>