<svg xmlns="http://www.w3.org/2000/svg" width="32" height="32" fill="none" viewBox="0 0 32 32"><path fill="#000" d="M28 5.25h-6.562a1.75 1.75 0 0 0-1.285.563L8.75 18.17a.25.25 0 0 1-.184.08H4A1.75 1.75 0 0 0 2.25 20v5A1.75 1.75 0 0 0 4 26.75h6.563a1.75 1.75 0 0 0 1.284-.562L23.25 13.83a.25.25 0 0 1 .184-.08H28A1.75 1.75 0 0 0 29.75 12V7A1.75 1.75 0 0 0 28 5.25m.25 6.75a.25.25 0 0 1-.25.25h-4.562a1.75 1.75 0 0 0-1.285.563L10.75 25.17a.25.25 0 0 1-.184.08H4a.25.25 0 0 1-.25-.25v-5a.25.25 0 0 1 .25-.25h4.563a1.75 1.75 0 0 0 1.284-.562L21.25 6.83a.25.25 0 0 1 .188-.08H28a.25.25 0 0 1 .25.25zm.28 9.47a.75.75 0 1 1-1.06 1.06l-1.72-1.719V26a.75.75 0 1 1-1.5 0v-5.189l-1.72 1.719a.75.75 0 0 1-1.06-1.06l3-3a.75.75 0 0 1 1.06 0z"/></svg>