<svg xmlns="http://www.w3.org/2000/svg" width="32" height="32" fill="none" viewBox="0 0 32 32"><path fill="#000" d="M27 5.25H5A1.75 1.75 0 0 0 3.25 7v20a.75.75 0 0 0 1.085.671L8 25.84l3.665 1.832a.75.75 0 0 0 .67 0L16 25.84l3.665 1.832a.75.75 0 0 0 .67 0L24 25.84l3.665 1.832A.75.75 0 0 0 28.75 27V7A1.75 1.75 0 0 0 27 5.25m.25 20.536-2.915-1.457a.75.75 0 0 0-.67 0L20 26.16l-3.665-1.832a.75.75 0 0 0-.67 0L12 26.16 8.335 24.33a.75.75 0 0 0-.67 0L4.75 25.786V7A.25.25 0 0 1 5 6.75h22a.25.25 0 0 1 .25.25zM12.671 11.661a.75.75 0 0 0-1.342 0l-4 8a.751.751 0 0 0 1.342.67l.793-1.581h5.072l.793 1.585a.75.75 0 0 0 1.342-.67zm-2.457 5.589L12 13.678l1.786 3.572zM24.75 16a.75.75 0 0 1-.75.75h-2.25V19a.75.75 0 1 1-1.5 0v-2.25H18a.75.75 0 1 1 0-1.5h2.25V13a.75.75 0 1 1 1.5 0v2.25H24a.75.75 0 0 1 .75.75"/></svg>