<svg xmlns="http://www.w3.org/2000/svg" width="32" height="32" fill="none" viewBox="0 0 32 32"><path fill="#000" d="M21.614 10.386a9.75 9.75 0 1 0-11.228 11.228 9.75 9.75 0 1 0 11.228-11.228M28.25 20q0 .559-.077 1.113l-6.72-6.722a9.7 9.7 0 0 0 .297-2.39v-.062A8.26 8.26 0 0 1 28.25 20M5.664 6.724 12.6 13.66a9.7 9.7 0 0 0-1.5 2.375l-6.85-6.85a8.3 8.3 0 0 1 1.413-2.462M9.185 4.25l6.85 6.851a9.7 9.7 0 0 0-2.375 1.5L6.723 5.664A8.3 8.3 0 0 1 9.185 4.25M11.75 20A8.26 8.26 0 0 1 20 11.75h.244c0 .081.006.163.006.25A8.26 8.26 0 0 1 12 20.25q-.12.001-.25-.006zm6.589-.601 6.937 6.937a8.3 8.3 0 0 1-2.46 1.414l-6.85-6.851a9.7 9.7 0 0 0 2.373-1.5m1.06-1.06a9.7 9.7 0 0 0 1.5-2.375l6.851 6.851a8.3 8.3 0 0 1-1.419 2.461zm.662-8.088h-.06c-.807 0-1.61.1-2.392.298l-6.721-6.721Q11.44 3.75 12 3.75a8.26 8.26 0 0 1 8.061 6.5zm-16.31 1.75q0-.56.077-1.113l6.72 6.72A9.7 9.7 0 0 0 10.25 20v.061a8.26 8.26 0 0 1-6.5-8.06m8.188 9.75H12c.806 0 1.61-.1 2.391-.298l6.722 6.72q-.554.076-1.113.077a8.26 8.26 0 0 1-8.061-6.5"/></svg>