<svg xmlns="http://www.w3.org/2000/svg" width="32" height="32" fill="none" viewBox="0 0 32 32"><path fill="#000" d="M30.685 15.696c-.043-.097-1.083-2.403-3.405-4.726C25.125 8.818 21.422 6.25 16 6.25c-5.423 0-9.125 2.568-11.28 4.72-2.323 2.323-3.363 4.625-3.405 4.726a.75.75 0 0 0 0 .61c.042.096 1.082 2.403 3.405 4.725C6.875 23.184 10.577 25.75 16 25.75s9.125-2.566 11.28-4.719c2.322-2.322 3.362-4.625 3.405-4.725a.75.75 0 0 0 0-.61M16 24.25c-3.923 0-7.348-1.427-10.181-4.241A16.9 16.9 0 0 1 2.836 16a16.8 16.8 0 0 1 2.983-4.008c2.833-2.815 6.258-4.242 10.18-4.242 3.923 0 7.348 1.428 10.182 4.243A16.8 16.8 0 0 1 29.164 16c-.797 1.526-4.79 8.25-13.164 8.25m0-14A5.75 5.75 0 1 0 21.75 16 5.757 5.757 0 0 0 16 10.25m0 10a4.25 4.25 0 1 1 0-8.5 4.25 4.25 0 0 1 0 8.5"/></svg>