<svg xmlns="http://www.w3.org/2000/svg" width="32" height="32" fill="none" viewBox="0 0 32 32"><path fill="#000" d="M27.75 8.417a4.23 4.23 0 0 0-1.33-3.03c-1.655-1.567-4.335-1.512-5.978.135l-2.59 2.603-.078-.079a2.75 2.75 0 0 0-3.889 0L12.76 9.171a1.75 1.75 0 0 0 0 2.476l.434.434-6.552 6.556a4.73 4.73 0 0 0-1.23 4.592l-1.038 2.375a1.46 1.46 0 0 0 .307 1.625 1.74 1.74 0 0 0 1.944.373l2.25-.987a4.74 4.74 0 0 0 4.48-1.259L19.91 18.8l.434.435a1.75 1.75 0 0 0 2.475 0l1.125-1.125a2.757 2.757 0 0 0 0-3.892l-.083-.08L26.5 11.48a4.22 4.22 0 0 0 1.25-3.064M12.299 24.292a3.25 3.25 0 0 1-3.25.81.75.75 0 0 0-.522.03l-2.5 1.093a.25.25 0 0 1-.26-.039l1.14-2.612a.74.74 0 0 0 .023-.54A3.24 3.24 0 0 1 7 20.75h8.848zm5.049-5.042H8.155l6.104-6.105 4.595 4.597zm8.096-8.824-3.173 3.186a.75.75 0 0 0 0 1.06l.61.61a1.25 1.25 0 0 1 0 1.77l-1.125 1.124a.25.25 0 0 1-.352 0l-7.586-7.587a.25.25 0 0 1 0-.354l1.125-1.125a1.25 1.25 0 0 1 1.767 0l.611.611a.75.75 0 0 0 1.061-.002L21.5 6.582c1.071-1.072 2.814-1.125 3.884-.106a2.75 2.75 0 0 1 .055 3.946z"/></svg>