<svg xmlns="http://www.w3.org/2000/svg" width="32" height="32" fill="none" viewBox="0 0 32 32"><path fill="#000" d="M27.75 8.418a4.23 4.23 0 0 0-1.33-3.032c-1.655-1.566-4.335-1.511-5.978.137l-2.59 2.602-.078-.079a2.75 2.75 0 0 0-3.889 0L12.76 9.171a1.75 1.75 0 0 0 0 2.477l.434.433-6.552 6.557a4.72 4.72 0 0 0-1.23 4.59l-1.038 2.376a1.46 1.46 0 0 0 .307 1.625 1.74 1.74 0 0 0 1.944.373l2.25-.987a4.74 4.74 0 0 0 4.48-1.259L19.91 18.8l.434.435a1.75 1.75 0 0 0 2.475 0l1.125-1.125a2.75 2.75 0 0 0 0-3.89l-.083-.083 2.639-2.655a4.22 4.22 0 0 0 1.25-3.063M12.299 24.293a3.25 3.25 0 0 1-3.25.808.75.75 0 0 0-.52.03l-2.5 1.094a.25.25 0 0 1-.262-.039l1.14-2.612a.74.74 0 0 0 .024-.539 3.24 3.24 0 0 1 .783-3.34l6.555-6.556 4.595 4.597zm13.145-13.875-3.173 3.195a.75.75 0 0 0 0 1.058l.61.612a1.25 1.25 0 0 1 0 1.768l-1.125 1.125a.25.25 0 0 1-.352 0l-7.586-7.587a.25.25 0 0 1 0-.354l1.125-1.125a1.25 1.25 0 0 1 1.767 0l.611.611a.75.75 0 0 0 1.061-.002L21.5 6.583c1.073-1.073 2.815-1.125 3.885-.107a2.75 2.75 0 0 1 .055 3.946z"/></svg>