<svg xmlns="http://www.w3.org/2000/svg" width="32" height="32" fill="none" viewBox="0 0 32 32"><path fill="#000" d="M25 5.25a.75.75 0 1 0 0 1.5A2.25 2.25 0 0 1 27.25 9v7.831a5.25 5.25 0 0 0-8.849 2.419H13.6a5.25 5.25 0 0 0-8.849-2.419V9A2.25 2.25 0 0 1 7 6.75a.75.75 0 1 0 0-1.5A3.75 3.75 0 0 0 3.25 9v11.5a5.252 5.252 0 0 0 10.5.25h4.512a5.25 5.25 0 0 0 10.488-.25V9A3.75 3.75 0 0 0 25 5.25m-16.5 19a3.75 3.75 0 1 1 0-7.5 3.75 3.75 0 0 1 0 7.5m15 0a3.75 3.75 0 1 1 0-7.5 3.75 3.75 0 0 1 0 7.5"/></svg>