<svg xmlns="http://www.w3.org/2000/svg" width="32" height="32" fill="none" viewBox="0 0 32 32"><path fill="#000" d="M21.75 13a.75.75 0 0 1-.75.75H11a.75.75 0 1 1 0-1.5h10a.75.75 0 0 1 .75.75M21 16.25H11a.75.75 0 1 0 0 1.5h10a.75.75 0 1 0 0-1.5M31.75 13v3A3.75 3.75 0 0 1 28 19.75h-.806c-.775 1.817-2.351 3.414-4.669 4.701-2.597 1.443-5.375 2.096-6.17 2.261a1.7 1.7 0 0 1-.71 0c-.791-.165-3.572-.818-6.17-2.26-2.317-1.288-3.894-2.885-4.669-4.702H4A3.75 3.75 0 0 1 .25 16v-3A3.75 3.75 0 0 1 4 9.25h.294a1.75 1.75 0 0 1 1.109-1.259l10-3.636a1.75 1.75 0 0 1 1.194 0l10 3.636a1.75 1.75 0 0 1 1.11 1.259H28A3.75 3.75 0 0 1 31.75 13M4.359 18.25a7 7 0 0 1-.109-1.231V10.75H4A2.25 2.25 0 0 0 1.75 13v3A2.25 2.25 0 0 0 4 18.25zm21.891-1.231V9.636a.25.25 0 0 0-.165-.235l-10-3.636a.25.25 0 0 0-.17 0l-10 3.636a.25.25 0 0 0-.165.235v7.383a5.4 5.4 0 0 0 .29 1.757c1.565 4.582 8.979 6.272 9.913 6.468a.2.2 0 0 0 .095 0c1.043-.218 10.202-2.308 10.202-8.225m4-4.019A2.25 2.25 0 0 0 28 10.75h-.25v6.269q0 .62-.109 1.231H28A2.25 2.25 0 0 0 30.25 16z"/></svg>