<svg xmlns="http://www.w3.org/2000/svg" width="32" height="32" fill="none" viewBox="0 0 32 32"><path fill="#000" d="M14.25 22a.75.75 0 0 1-.75.75H10a.75.75 0 1 1 0-1.5h3.5a.75.75 0 0 1 .75.75m7.75-.75h-3.5a.75.75 0 0 0 0 1.5H22a.75.75 0 1 0 0-1.5M30.75 27a.75.75 0 0 1-.75.75H2a.75.75 0 1 1 0-1.5h2.25V11a.75.75 0 0 1 1.2-.6l6.8 5.1V11a.75.75 0 0 1 1.2-.6l5.175 3.885 1.5-10.533a1.76 1.76 0 0 1 1.733-1.5h2.264a1.76 1.76 0 0 1 1.733 1.5l1.875 13.142s.008.073.008.106v9.25h2.25a.753.753 0 0 1 .762.75M20 15.31l1.25.939h4.885l-1.76-12.285a.25.25 0 0 0-.25-.215h-2.258a.25.25 0 0 0-.25.215zM5.75 26.25h20.5v-8.5H21a.75.75 0 0 1-.45-.15l-1.8-1.35-5-3.75V17a.75.75 0 0 1-1.2.6l-6.8-5.1z"/></svg>