<svg xmlns="http://www.w3.org/2000/svg" width="32" height="32" fill="none" viewBox="0 0 32 32"><path fill="#000" d="M16.75 15v12a.75.75 0 1 1-1.5 0V15a.75.75 0 1 1 1.5 0M25 24.25a.75.75 0 0 0-.75.75v2a.75.75 0 1 0 1.5 0v-2a.75.75 0 0 0-.75-.75m3-4h-2.25V5a.75.75 0 1 0-1.5 0v15.25H22a.75.75 0 1 0 0 1.5h6a.75.75 0 1 0 0-1.5m-21 0a.75.75 0 0 0-.75.75v6a.75.75 0 1 0 1.5 0v-6a.75.75 0 0 0-.75-.75m3-4H7.75V5a.75.75 0 0 0-1.5 0v11.25H4a.75.75 0 1 0 0 1.5h6a.75.75 0 1 0 0-1.5m9-6h-2.25V5a.75.75 0 1 0-1.5 0v5.25H13a.75.75 0 1 0 0 1.5h6a.75.75 0 1 0 0-1.5"/></svg>