<svg xmlns="http://www.w3.org/2000/svg" width="32" height="32" fill="none" viewBox="0 0 32 32"><path fill="#000" d="M28.883 16.94a7.25 7.25 0 0 0-11-4.177 4 4 0 0 0-.268-.144l2.108-8.415a.75.75 0 0 0-.323-.814 7.25 7.25 0 1 0-7.15 12.593V16c0 .096 0 .193.012.288l-8.34 2.382a.75.75 0 0 0-.547.686 7.25 7.25 0 1 0 14.485-.106q.132-.075.258-.161l6.233 6.036a.75.75 0 0 0 .868.125 7.25 7.25 0 0 0 3.663-8.314zM13.75 16a2.25 2.25 0 1 1 4.499 0 2.25 2.25 0 0 1-4.499 0m-4-6.5a5.75 5.75 0 0 1 8.385-5.112l-1.97 7.862H16a3.75 3.75 0 0 0-3.416 2.208A5.73 5.73 0 0 1 9.75 9.5m3.75 15.163a5.75 5.75 0 0 1-8.625-4.705l7.799-2.228a3.75 3.75 0 0 0 3.701 2.001 5.73 5.73 0 0 1-2.875 4.932m13.363-2.97a5.74 5.74 0 0 1-1.875 1.962l-5.83-5.64a3.74 3.74 0 0 0-.116-4.202 5.75 5.75 0 0 1 7.816 7.875z"/></svg>