<svg xmlns="http://www.w3.org/2000/svg" width="32" height="32" fill="none" viewBox="0 0 32 32"><path fill="#000" d="M29.949 14.544 18.926 7.523a1.75 1.75 0 0 0-1.777-.058 1.73 1.73 0 0 0-.899 1.515v5.125L5.926 7.523a1.75 1.75 0 0 0-1.777-.058A1.73 1.73 0 0 0 3.25 8.98v14.04a1.73 1.73 0 0 0 .899 1.515 1.75 1.75 0 0 0 1.777-.058l10.324-6.576v5.119a1.73 1.73 0 0 0 1.795 1.729 1.75 1.75 0 0 0 .881-.271l11.023-7.022a1.723 1.723 0 0 0 0-2.912M16.144 16.19l-11.019 7.02a.24.24 0 0 1-.25.008.22.22 0 0 1-.125-.199V8.98a.22.22 0 0 1 .125-.199.234.234 0 0 1 .25.007l11.024 7.02a.225.225 0 0 1 0 .383zm13 0-11.019 7.02a.24.24 0 0 1-.25.008.22.22 0 0 1-.125-.199V8.98a.22.22 0 0 1 .125-.199.234.234 0 0 1 .25.007l11.024 7.02a.225.225 0 0 1 0 .383z"/></svg>