<svg xmlns="http://www.w3.org/2000/svg" width="32" height="32" fill="none" viewBox="0 0 32 32"><path fill="#000" d="M29.75 10a7.75 7.75 0 0 0-13.228-5.483l-8.76 8.66a1.74 1.74 0 0 0-.512 1.237v9.276l-3.78 3.78a.749.749 0 1 0 1.06 1.06l3.78-3.78h9.276a1.74 1.74 0 0 0 1.238-.512l8.603-8.704.05-.05A7.7 7.7 0 0 0 29.75 10M17.58 5.58a6.25 6.25 0 0 1 9 8.67h-7.77l4.72-4.72a.75.75 0 0 0-1.06-1.06l-6 6-1.72 1.72V8.375zm-8.83 8.834a.25.25 0 0 1 .07-.174l4.43-4.375v7.829l-4.5 4.5zm9.011 8.763a.25.25 0 0 1-.175.073H9.81l4.72-4.719 2.78-2.781h7.794z"/></svg>