<svg xmlns="http://www.w3.org/2000/svg" width="32" height="32" fill="none" viewBox="0 0 32 32"><path fill="#000" d="M22.556 12A4.75 4.75 0 0 0 20 3.25h-9A4.75 4.75 0 0 0 8.444 12a4.75 4.75 0 0 0 .181 8.111A5.25 5.25 0 1 0 16.75 24.5v-5.04A4.75 4.75 0 1 0 22.556 12m.694-4A3.25 3.25 0 0 1 20 11.25h-3.25v-6.5H20A3.25 3.25 0 0 1 23.25 8M7.75 8A3.25 3.25 0 0 1 11 4.75h4.25v6.5H11A3.25 3.25 0 0 1 7.75 8M11 19.25a3.25 3.25 0 1 1 0-6.5h4.25v6.5zm4.25 5.25a3.75 3.75 0 1 1-3.75-3.75h3.75zM20 19.25a3.25 3.25 0 1 1 0-6.5 3.25 3.25 0 0 1 0 6.5"/></svg>