<svg xmlns="http://www.w3.org/2000/svg" width="32" height="32" fill="none" viewBox="0 0 32 32"><path fill="#000" d="M18.398 19.364a.75.75 0 0 0-.728-.038l-2.938 1.439A1.75 1.75 0 0 0 13 19.25H6A1.75 1.75 0 0 0 4.25 21v5A1.75 1.75 0 0 0 6 27.75h7a1.75 1.75 0 0 0 1.75-1.615l2.907 1.529A.75.75 0 0 0 18.75 27v-7a.75.75 0 0 0-.352-.636M13 26.25H6a.25.25 0 0 1-.25-.25v-5a.25.25 0 0 1 .25-.25h7a.25.25 0 0 1 .25.25v5a.25.25 0 0 1-.25.25m4.25-.491-2.5-1.315v-2.018l2.5-1.223zm9.28-15.289-7-7a.75.75 0 0 0-.53-.22H7A1.75 1.75 0 0 0 5.25 5v11a.75.75 0 1 0 1.5 0V5A.25.25 0 0 1 7 4.75h11.25V11a.75.75 0 0 0 .75.75h6.25V27a.25.25 0 0 1-.25.25h-3a.75.75 0 1 0 0 1.5h3A1.75 1.75 0 0 0 26.75 27V11a.75.75 0 0 0-.22-.53m-6.78-4.66 4.44 4.44h-4.44z"/></svg>