<svg xmlns="http://www.w3.org/2000/svg" width="32" height="32" fill="none" viewBox="0 0 32 32"><path fill="#000" d="M15.75 19a.75.75 0 0 1-.75.75h-1.25V26a.75.75 0 1 1-1.5 0v-6.25H11a.75.75 0 1 1 0-1.5h4a.75.75 0 0 1 .75.75M8 18.25a.75.75 0 0 0-.75.75v2.75h-2.5V19a.75.75 0 1 0-1.5 0v7a.75.75 0 1 0 1.5 0v-2.75h2.5V26a.75.75 0 1 0 1.5 0v-7a.75.75 0 0 0-.75-.75m22 7h-1.75V19a.75.75 0 1 0-1.5 0v7a.75.75 0 0 0 .75.75H30a.75.75 0 1 0 0-1.5m-5.8-6.972a.75.75 0 0 0-.844.336L21 22.542l-2.356-3.928A.75.75 0 0 0 17.25 19v7a.75.75 0 1 0 1.5 0v-4.292l1.606 2.678a.75.75 0 0 0 1.288 0l1.606-2.678V26a.75.75 0 1 0 1.5 0v-7a.75.75 0 0 0-.55-.723M26.75 14a.75.75 0 1 1-1.5 0v-2.25H19a.75.75 0 0 1-.75-.75V4.75H7a.25.25 0 0 0-.25.25v9a.75.75 0 1 1-1.5 0V5A1.75 1.75 0 0 1 7 3.25h12a.75.75 0 0 1 .531.22l7 7a.75.75 0 0 1 .219.53zm-2.56-3.75-4.44-4.44v4.44z"/></svg>