<svg xmlns="http://www.w3.org/2000/svg" width="32" height="32" fill="none" viewBox="0 0 32 32"><path fill="#000" d="m10.706 19.25-2.5 7a.75.75 0 0 1-1.412 0l-2.5-7a.75.75 0 1 1 1.412-.5L7.5 23.77l1.794-5.02a.75.75 0 0 1 1.412.5m15.294.5a.75.75 0 1 0 0-1.5h-4a.75.75 0 0 0-.75.75v7a.75.75 0 0 0 .75.75h4a.75.75 0 1 0 0-1.5h-3.25v-2H25a.75.75 0 1 0 0-1.5h-2.25v-2zm-8-1.5a.75.75 0 0 0-.75.75v4.75a1.5 1.5 0 1 1-3 0V19a.75.75 0 1 0-1.5 0v4.75a3 3 0 0 0 6 0V19a.75.75 0 0 0-.75-.75M26.75 11v3a.75.75 0 1 1-1.5 0v-2.25H19a.75.75 0 0 1-.75-.75V4.75H7a.25.25 0 0 0-.25.25v9a.75.75 0 1 1-1.5 0V5A1.75 1.75 0 0 1 7 3.25h12a.75.75 0 0 1 .531.22l7 7a.75.75 0 0 1 .219.53m-2.56-.75-4.44-4.44v4.44z"/></svg>