<svg xmlns="http://www.w3.org/2000/svg" width="32" height="32" fill="none" viewBox="0 0 32 32"><path fill="#000" d="m26.53 8.47-5-5a.75.75 0 0 0-.53-.22H11A1.75 1.75 0 0 0 9.25 5v2.25H7A1.75 1.75 0 0 0 5.25 9v18A1.75 1.75 0 0 0 7 28.75h14A1.75 1.75 0 0 0 22.75 27v-2.25H25A1.75 1.75 0 0 0 26.75 23V9a.75.75 0 0 0-.22-.53M21.25 27a.25.25 0 0 1-.25.25H7a.25.25 0 0 1-.25-.25V9A.25.25 0 0 1 7 8.75h9.689l4.561 4.561zm4-4a.25.25 0 0 1-.25.25h-2.25V13a.75.75 0 0 0-.22-.53l-5-5a.75.75 0 0 0-.53-.22h-6.25V5a.25.25 0 0 1 .25-.25h9.689l4.561 4.561zm-7.5-4a.75.75 0 0 1-.75.75h-6a.75.75 0 1 1 0-1.5h6a.75.75 0 0 1 .75.75m0 4a.75.75 0 0 1-.75.75h-6a.75.75 0 1 1 0-1.5h6a.75.75 0 0 1 .75.75"/></svg>