<svg xmlns="http://www.w3.org/2000/svg" width="32" height="32" fill="none" viewBox="0 0 32 32"><path fill="#000" d="M6 14.75a.75.75 0 0 0 .75-.75V5A.25.25 0 0 1 7 4.75h11.25V11a.75.75 0 0 0 .75.75h6.25V14a.75.75 0 1 0 1.5 0v-3a.75.75 0 0 0-.22-.531l-7-7A.75.75 0 0 0 19 3.25H7A1.75 1.75 0 0 0 5.25 5v9a.75.75 0 0 0 .75.75m13.75-8.94 4.44 4.44h-4.44zM28.25 26a.75.75 0 0 1-.75.75H24a.75.75 0 0 1-.75-.75v-7a.75.75 0 1 1 1.5 0v6.25h2.75a.75.75 0 0 1 .75.75m-17.021-1.5a2.36 2.36 0 0 1-1.038 1.727c-.602.404-1.359.523-2.046.523a7.4 7.4 0 0 1-1.834-.25.75.75 0 1 1 .404-1.445c.464.125 1.947.389 2.649-.078a.86.86 0 0 0 .375-.667c.07-.554-.26-.782-1.775-1.22-1.164-.336-2.922-.844-2.697-2.617a2.33 2.33 0 0 1 1.01-1.693c1.39-.936 3.648-.375 3.9-.31a.75.75 0 1 1-.382 1.45c-.474-.125-1.981-.369-2.68.105a.82.82 0 0 0-.36.635c-.051.402.267.598 1.625.989 1.236.361 3.101.9 2.849 2.851M17 18.25c-2.068 0-3.75 1.906-3.75 4.25s1.681 4.25 3.75 4.25a3.4 3.4 0 0 0 2.019-.671l.451.451a.749.749 0 1 0 1.061-1.06l-.488-.489a4.6 4.6 0 0 0 .707-2.481c0-2.345-1.681-4.25-3.75-4.25m0 7c-1.24 0-2.25-1.234-2.25-2.75s1.009-2.75 2.25-2.75 2.25 1.234 2.25 2.75c.003.478-.102.95-.306 1.383l-.413-.413a.75.75 0 0 0-1.061 1.06l.469.469c-.286.163-.61.25-.939.251"/></svg>