<svg xmlns="http://www.w3.org/2000/svg" width="32" height="32" fill="none" viewBox="0 0 32 32"><path fill="#000" d="m26.53 10.47-7-7a.75.75 0 0 0-.53-.22H7A1.75 1.75 0 0 0 5.25 5v11a.75.75 0 1 0 1.5 0V5A.25.25 0 0 1 7 4.75h11.25V11a.75.75 0 0 0 .75.75h6.25V27a.25.25 0 0 1-.25.25h-3a.75.75 0 1 0 0 1.5h3A1.75 1.75 0 0 0 26.75 27V11a.75.75 0 0 0-.22-.53m-6.78-4.66 4.44 4.44h-4.44zM13.5 16.25a6.25 6.25 0 0 0-5.832 4H7.5a4.25 4.25 0 0 0 0 8.5h6a6.25 6.25 0 0 0 0-12.5m0 11h-6a2.75 2.75 0 0 1-.206-5.492q-.011.087-.019.175a.753.753 0 0 0 1.5.134q.033-.414.137-.817a1 1 0 0 0 .03-.108A4.75 4.75 0 1 1 13.5 27.25"/></svg>