<svg xmlns="http://www.w3.org/2000/svg" width="32" height="32" fill="none" viewBox="0 0 32 32"><path fill="#000" d="M26.61 19.435 24.421 22.5l2.189 3.064a.751.751 0 0 1-1.22.875l-1.89-2.65-1.89 2.645a.75.75 0 0 1-1.22-.875l2.189-3.059-2.189-3.064a.75.75 0 1 1 1.22-.875l1.89 2.648 1.89-2.646a.75.75 0 0 1 1.22.875zm-11.229 2.218c-1.357-.392-1.676-.587-1.625-.99a.82.82 0 0 1 .36-.634c.7-.474 2.208-.229 2.682-.105a.75.75 0 0 0 .382-1.45c-.25-.067-2.512-.625-3.901.31a2.33 2.33 0 0 0-1.01 1.692c-.225 1.774 1.532 2.282 2.696 2.618 1.515.437 1.848.666 1.775 1.22a.86.86 0 0 1-.375.667c-.701.466-2.185.205-2.649.078a.75.75 0 0 0-.406 1.441c.599.16 1.215.244 1.835.25.686 0 1.442-.119 2.045-.517a2.36 2.36 0 0 0 1.039-1.727c.251-1.957-1.614-2.496-2.848-2.854M10 18.25H5a.75.75 0 1 0 0 1.5h1.75V26a.75.75 0 1 0 1.5 0v-6.25H10a.75.75 0 1 0 0-1.5M26.75 11v3a.75.75 0 1 1-1.5 0v-2.25H19a.75.75 0 0 1-.75-.75V4.75H7a.25.25 0 0 0-.25.25v9a.75.75 0 1 1-1.5 0V5A1.75 1.75 0 0 1 7 3.25h12a.75.75 0 0 1 .531.22l7 7a.75.75 0 0 1 .219.53m-2.561-.75L19.75 5.81v4.44z"/></svg>