<svg xmlns="http://www.w3.org/2000/svg" width="32" height="32" fill="none" viewBox="0 0 32 32"><path fill="#000" d="M23 18.25h-2a.75.75 0 0 0-.75.75v7a.75.75 0 1 0 1.5 0v-1.25H23a3.25 3.25 0 1 0 0-6.5m0 5h-1.25v-3.5H23a1.75 1.75 0 0 1 0 3.5M16.75 19v7a.75.75 0 1 1-1.5 0v-7a.75.75 0 1 1 1.5 0m-5 7a.75.75 0 0 1-.75.75H7a.75.75 0 0 1-.651-1.125l3.358-5.875H7a.75.75 0 1 1 0-1.5h4a.75.75 0 0 1 .651 1.125L8.293 25.25H11a.75.75 0 0 1 .75.75m14.78-15.53-7-7a.75.75 0 0 0-.53-.22H7A1.75 1.75 0 0 0 5.25 5v9a.75.75 0 1 0 1.5 0V5A.25.25 0 0 1 7 4.75h11.25V11a.75.75 0 0 0 .75.75h6.25V14a.75.75 0 1 0 1.5 0v-3a.75.75 0 0 0-.22-.53m-6.78-.22V5.81l4.44 4.44z"/></svg>