<svg xmlns="http://www.w3.org/2000/svg" width="32" height="32" fill="none" viewBox="0 0 32 32"><path fill="#000" d="M12.288 16.308a.75.75 0 0 0-.818.162l-2.781 2.78H6a.75.75 0 0 0-.75.75v5a.75.75 0 0 0 .75.75h2.689l2.781 2.78a.75.75 0 0 0 1.28-.53V17a.75.75 0 0 0-.463-.692m-1.038 9.875L9.53 24.47a.75.75 0 0 0-.53-.22H6.75v-3.5H9a.75.75 0 0 0 .53-.22l1.72-1.719zm7.5-3.683a4.82 4.82 0 0 1-2.375 4.148.75.75 0 0 1-.75-1.296 3.313 3.313 0 0 0 0-5.704.75.75 0 0 1 .75-1.296A4.82 4.82 0 0 1 18.75 22.5m7.78-12.03-7-7a.75.75 0 0 0-.53-.22H7A1.75 1.75 0 0 0 5.25 5v10a.75.75 0 1 0 1.5 0V5A.25.25 0 0 1 7 4.75h11.25V11a.75.75 0 0 0 .75.75h6.25V27a.25.25 0 0 1-.25.25h-4a.75.75 0 1 0 0 1.5h4A1.75 1.75 0 0 0 26.75 27V11a.75.75 0 0 0-.22-.53m-6.78-4.66 4.44 4.44h-4.44z"/></svg>