<svg xmlns="http://www.w3.org/2000/svg" width="32" height="32" fill="none" viewBox="0 0 32 32"><path fill="#000" d="M5.75 22.5c0 1.516 1.009 2.75 2.25 2.75a2.03 2.03 0 0 0 1.459-.66.75.75 0 0 1 1.082 1.038A3.5 3.5 0 0 1 8 26.75c-2.067 0-3.75-1.906-3.75-4.25S5.933 18.25 8 18.25a3.5 3.5 0 0 1 2.541 1.125.75.75 0 0 1-1.082 1.038A2.03 2.03 0 0 0 8 19.75c-1.241 0-2.25 1.233-2.25 2.75m10.131-.846c-1.357-.392-1.676-.587-1.625-.989a.82.82 0 0 1 .36-.635c.7-.474 2.208-.228 2.682-.105a.75.75 0 0 0 .382-1.45c-.25-.066-2.512-.625-3.901.31a2.33 2.33 0 0 0-1.01 1.692c-.225 1.774 1.532 2.282 2.696 2.618 1.515.438 1.848.666 1.775 1.22a.86.86 0 0 1-.375.668c-.701.466-2.185.204-2.649.077a.75.75 0 0 0-.406 1.44c.599.16 1.215.244 1.835.25.686 0 1.442-.119 2.045-.517a2.36 2.36 0 0 0 1.039-1.727c.251-1.957-1.614-2.496-2.848-2.854zm10.375-3.36a.75.75 0 0 0-.959.453L23.5 23.77l-1.794-5.019a.749.749 0 0 0-1.402-.09.75.75 0 0 0-.01.59l2.5 7a.75.75 0 0 0 1.412 0l2.5-7a.75.75 0 0 0-.456-.957zM26.75 11v3a.75.75 0 1 1-1.5 0v-2.25H19a.75.75 0 0 1-.75-.75V4.75H7a.25.25 0 0 0-.25.25v9a.75.75 0 1 1-1.5 0V5A1.75 1.75 0 0 1 7 3.25h12c.199 0 .39.08.53.22l7 7c.14.14.22.331.22.53m-2.561-.75L19.75 5.81v4.44z"/></svg>