<svg xmlns="http://www.w3.org/2000/svg" width="32" height="32" fill="none" viewBox="0 0 32 32"><path fill="#000" d="M27.75 19a.75.75 0 0 1-.75.75h-3.25v2.5H26a.75.75 0 1 1 0 1.5h-2.25V26a.75.75 0 1 1-1.5 0v-7a.75.75 0 0 1 .75-.75h4a.75.75 0 0 1 .75.75m-16.5 2.5A3.25 3.25 0 0 1 8 24.75H6.75V26a.75.75 0 1 1-1.5 0v-7a.75.75 0 0 1 .75-.75h2a3.25 3.25 0 0 1 3.25 3.25m-1.5 0A1.75 1.75 0 0 0 8 19.75H6.75v3.5H8a1.75 1.75 0 0 0 1.75-1.75m10.5 1A4.25 4.25 0 0 1 16 26.75h-2a.75.75 0 0 1-.75-.75v-7a.75.75 0 0 1 .75-.75h2a4.25 4.25 0 0 1 4.25 4.25m-1.5 0A2.75 2.75 0 0 0 16 19.75h-1.25v5.5H16a2.75 2.75 0 0 0 2.75-2.75M5.25 14V5A1.75 1.75 0 0 1 7 3.25h12a.75.75 0 0 1 .531.22l7 7a.75.75 0 0 1 .219.53v3a.75.75 0 1 1-1.5 0v-2.25H19a.75.75 0 0 1-.75-.75V4.75H7a.25.25 0 0 0-.25.25v9a.75.75 0 1 1-1.5 0m14.5-3.75h4.44l-4.44-4.44z"/></svg>