<svg xmlns="http://www.w3.org/2000/svg" width="32" height="32" fill="none" viewBox="0 0 32 32"><path fill="#000" d="M13.625 18.584a.75.75 0 0 0-1.25 0l-2.818 4.229-1.426-2.218a.75.75 0 0 0-1.262 0l-4.5 7A.75.75 0 0 0 3 28.75h16a.75.75 0 0 0 .625-1.166zm-9.25 8.666L7.5 22.387l1.415 2.2a.75.75 0 0 0 1.25.01l2.83-4.25 4.604 6.903zM26.53 10.47l-7-7a.75.75 0 0 0-.53-.22H7A1.75 1.75 0 0 0 5.25 5v12a.75.75 0 1 0 1.5 0V5A.25.25 0 0 1 7 4.75h11.25V11a.75.75 0 0 0 .75.75h6.25V27a.25.25 0 0 1-.25.25h-1a.75.75 0 1 0 0 1.5h1A1.75 1.75 0 0 0 26.75 27V11a.75.75 0 0 0-.22-.53m-6.78-4.66 4.44 4.44h-4.44z"/></svg>