<svg xmlns="http://www.w3.org/2000/svg" width="32" height="32" fill="none" viewBox="0 0 32 32"><path fill="#000" d="m26.53 10.47-7-7a.75.75 0 0 0-.53-.22H7A1.75 1.75 0 0 0 5.25 5v9a.75.75 0 1 0 1.5 0V5A.25.25 0 0 1 7 4.75h11.25V11a.75.75 0 0 0 .75.75h6.25V27a.25.25 0 0 1-.25.25h-2a.75.75 0 1 0 0 1.5h2A1.75 1.75 0 0 0 26.75 27V11a.75.75 0 0 0-.22-.53m-6.78-4.66 4.44 4.44h-4.44zm-8.5 15.69A3.25 3.25 0 0 0 8 18.25H6a.75.75 0 0 0-.75.75v7a.75.75 0 1 0 1.5 0v-1.25H8q.426 0 .839-.11l1.013 1.735a.75.75 0 0 0 .648.375.75.75 0 0 0 .645-1.128l-.989-1.696A3.24 3.24 0 0 0 11.25 21.5m-4.5 1.75v-3.5H8a1.75 1.75 0 0 1 0 3.5zm12.479 1.258a2.36 2.36 0 0 1-1.039 1.726c-.603.398-1.359.517-2.045.517a7.4 7.4 0 0 1-1.835-.25.75.75 0 0 1 .404-1.445c.463.125 1.947.389 2.649-.077a.86.86 0 0 0 .375-.668c.072-.553-.26-.782-1.775-1.22-1.164-.336-2.922-.844-2.697-2.617a2.33 2.33 0 0 1 1.01-1.693c1.389-.936 3.648-.375 3.901-.31a.75.75 0 0 1-.382 1.45c-.473-.125-1.981-.375-2.681.105a.82.82 0 0 0-.36.635c-.051.403.267.598 1.625.989 1.236.361 3.101.9 2.85 2.858"/></svg>