<svg xmlns="http://www.w3.org/2000/svg" width="32" height="32" fill="none" viewBox="0 0 32 32"><path fill="#000" d="M19.25 26a.75.75 0 0 1-.75.75H15a.75.75 0 0 1-.75-.75v-7a.75.75 0 0 1 1.5 0v6.25h2.75a.75.75 0 0 1 .75.75m-7.815-7.611a.75.75 0 0 0-1.045.174L8.5 21.209l-1.89-2.646a.75.75 0 0 0-1.22.875L7.579 22.5l-2.19 3.063a.75.75 0 1 0 1.22.875l1.89-2.65 1.89 2.646a.75.75 0 0 0 1.046.176.75.75 0 0 0 .175-1.046L9.42 22.5l2.189-3.064a.75.75 0 0 0-.175-1.047m12.44 3.264c-1.356-.392-1.676-.587-1.625-.99a.82.82 0 0 1 .36-.634c.7-.474 2.206-.229 2.68-.105a.75.75 0 0 0 .384-1.45c-.25-.068-2.513-.625-3.902.31a2.33 2.33 0 0 0-1.01 1.692c-.225 1.774 1.533 2.282 2.697 2.618 1.515.437 1.846.666 1.775 1.22a.86.86 0 0 1-.375.667c-.702.466-2.185.205-2.65.078a.75.75 0 0 0-.4 1.441c.598.16 1.215.244 1.835.25.686 0 1.442-.119 2.045-.517a2.36 2.36 0 0 0 1.038-1.727c.252-1.957-1.613-2.496-2.852-2.854M5.25 14V5A1.75 1.75 0 0 1 7 3.25h12c.199 0 .39.08.53.22l7 7c.14.14.22.331.22.53v3a.75.75 0 1 1-1.5 0v-2.25H19a.75.75 0 0 1-.75-.75V4.75H7a.25.25 0 0 0-.25.25v9a.75.75 0 1 1-1.5 0m14.5-3.75h4.437L19.75 5.81z"/></svg>