<svg xmlns="http://www.w3.org/2000/svg" width="32" height="32" fill="none" viewBox="0 0 32 32"><path fill="#000" d="M15 22.25h-1.25v-.75a3.25 3.25 0 1 0-6.5 0v.75H6a.75.75 0 0 0-.75.75v5a.75.75 0 0 0 .75.75h9a.75.75 0 0 0 .75-.75v-5a.75.75 0 0 0-.75-.75m-6.25-.75a1.75 1.75 0 0 1 3.5 0v.75h-3.5zm5.5 5.75h-7.5v-3.5h7.5zm12.28-16.78-7-7a.75.75 0 0 0-.53-.22H7A1.75 1.75 0 0 0 5.25 5v11a.75.75 0 1 0 1.5 0V5A.25.25 0 0 1 7 4.75h11.25V11a.75.75 0 0 0 .75.75h6.25V27a.25.25 0 0 1-.25.25h-5a.75.75 0 1 0 0 1.5h5A1.75 1.75 0 0 0 26.75 27V11a.75.75 0 0 0-.22-.53m-6.78-4.66 4.44 4.44h-4.44z"/></svg>