<svg xmlns="http://www.w3.org/2000/svg" width="32" height="32" fill="none" viewBox="0 0 32 32"><path fill="#000" d="M6.5 18.25h-2a.75.75 0 0 0-.75.75v7a.75.75 0 0 0 .75.75h2a4.25 4.25 0 0 0 0-8.5m0 7H5.25v-5.5H6.5a2.75 2.75 0 1 1 0 5.5m21.019-.683a.75.75 0 0 1 .022 1.06A3.5 3.5 0 0 1 25 26.75c-2.067 0-3.75-1.906-3.75-4.25s1.683-4.25 3.75-4.25a3.5 3.5 0 0 1 2.541 1.125.75.75 0 0 1-1.082 1.038A2.03 2.03 0 0 0 25 19.75c-1.241 0-2.25 1.234-2.25 2.75s1.009 2.75 2.25 2.75a2.03 2.03 0 0 0 1.459-.66.75.75 0 0 1 1.06-.023M16 18.25c-2.068 0-3.75 1.906-3.75 4.25s1.682 4.25 3.75 4.25 3.75-1.906 3.75-4.25-1.683-4.25-3.75-4.25m0 7c-1.241 0-2.25-1.234-2.25-2.75s1.009-2.75 2.25-2.75 2.25 1.234 2.25 2.75-1.009 2.75-2.25 2.75M6 14.75a.75.75 0 0 0 .75-.75V5A.25.25 0 0 1 7 4.75h11.25V11a.75.75 0 0 0 .75.75h6.25V14a.75.75 0 1 0 1.5 0v-3a.75.75 0 0 0-.22-.53l-7-7a.75.75 0 0 0-.53-.22H7A1.75 1.75 0 0 0 5.25 5v9a.75.75 0 0 0 .75.75m13.75-8.94 4.44 4.44h-4.44z"/></svg>