<svg xmlns="http://www.w3.org/2000/svg" width="32" height="32" fill="none" viewBox="0 0 32 32"><path fill="#000" d="M22.53 18.47a.75.75 0 0 1 0 1.06l-3 3a.75.75 0 0 1-1.06-1.06L20.939 19l-2.469-2.47a.75.75 0 1 1 1.06-1.06zm-9-3a.75.75 0 0 0-1.06 0l-3 3a.75.75 0 0 0 0 1.06l3 3a.75.75 0 1 0 1.06-1.06L11.061 19l2.469-2.47a.75.75 0 0 0 0-1.06M26.75 11v16A1.75 1.75 0 0 1 25 28.75H7A1.75 1.75 0 0 1 5.25 27V5A1.75 1.75 0 0 1 7 3.25h12a.75.75 0 0 1 .531.22l7 7a.75.75 0 0 1 .219.53m-7-.75h4.44l-4.44-4.44zM25.25 27V11.75H19a.75.75 0 0 1-.75-.75V4.75H7a.25.25 0 0 0-.25.25v22a.25.25 0 0 0 .25.25h18a.25.25 0 0 0 .25-.25"/></svg>