<svg xmlns="http://www.w3.org/2000/svg" width="32" height="32" fill="none" viewBox="0 0 32 32"><path fill="#000" d="m26.53 10.47-7-7a.75.75 0 0 0-.53-.22H7A1.75 1.75 0 0 0 5.25 5v22A1.75 1.75 0 0 0 7 28.75h18A1.75 1.75 0 0 0 26.75 27V11a.75.75 0 0 0-.22-.53m-6.78-4.66 4.44 4.44h-4.44zM25 27.25H7a.25.25 0 0 1-.25-.25V5A.25.25 0 0 1 7 4.75h11.25V11a.75.75 0 0 0 .75.75h6.25V27a.25.25 0 0 1-.25.25M20.75 17a.75.75 0 0 1-.75.75h-8a.75.75 0 1 1 0-1.5h8a.75.75 0 0 1 .75.75m0 4a.75.75 0 0 1-.75.75h-8a.75.75 0 1 1 0-1.5h8a.75.75 0 0 1 .75.75"/></svg>