<svg xmlns="http://www.w3.org/2000/svg" width="32" height="32" fill="none" viewBox="0 0 32 32"><path fill="#000" d="M27 5.25H5A1.75 1.75 0 0 0 3.25 7v18A1.75 1.75 0 0 0 5 26.75h22A1.75 1.75 0 0 0 28.75 25V7A1.75 1.75 0 0 0 27 5.25m-22.25 5.5h10.5v10.5H4.75zm12-1.5v-2.5h4.5v2.5zm-1.5 0h-4.5v-2.5h4.5zm0 13.5v2.5h-4.5v-2.5zm1.5 0h4.5v2.5h-4.5zm0-1.5v-10.5h10.5v10.5zM27.25 7v2.25h-4.5v-2.5H27a.25.25 0 0 1 .25.25M5 6.75h4.25v2.5h-4.5V7A.25.25 0 0 1 5 6.75M4.75 25v-2.25h4.5v2.5H5a.25.25 0 0 1-.25-.25m22.25.25h-4.25v-2.5h4.5V25a.25.25 0 0 1-.25.25"/></svg>