<svg xmlns="http://www.w3.org/2000/svg" width="32" height="32" fill="none" viewBox="0 0 32 32"><path fill="#000" d="M27 13.25H10.835l15.356-4.054a.75.75 0 0 0 .533-.922l-1.02-3.75a1.74 1.74 0 0 0-2.125-1.215L4.54 8.334a1.72 1.72 0 0 0-1.23 2.111l.94 3.473V25A1.75 1.75 0 0 0 6 26.75h20A1.75 1.75 0 0 0 27.75 25V14a.75.75 0 0 0-.75-.75M15.719 6.935l4.125 2.384-5.304 1.4-4.125-2.384zm8.25-2.176a.24.24 0 0 1 .292.157l.822 3.023-3.175.836-4.126-2.384zM4.779 9.893a.23.23 0 0 1 .143-.11l3.435-.908 4.126 2.385-6.9 1.825-.826-3.034a.2.2 0 0 1 .022-.158M26.25 25a.25.25 0 0 1-.25.25H6a.25.25 0 0 1-.25-.25V14.75h20.5z"/></svg>