<svg xmlns="http://www.w3.org/2000/svg" width="32" height="32" fill="none" viewBox="0 0 32 32"><path fill="#000" d="M8.75 16A16.6 16.6 0 0 1 7 23.448a.75.75 0 1 1-1.342-.668A15.1 15.1 0 0 0 7.25 16a8.72 8.72 0 0 1 3.281-6.83.751.751 0 0 1 .94 1.171A7.22 7.22 0 0 0 8.75 16m7.25-.75a.75.75 0 0 0-.75.75c.001 3.938-.998 7.812-2.904 11.259a.75.75 0 0 0 1.313.727A24.77 24.77 0 0 0 16.75 16a.75.75 0 0 0-.75-.75m0-4A4.75 4.75 0 0 0 11.25 16a.75.75 0 1 0 1.5 0 3.25 3.25 0 1 1 6.5 0 27 27 0 0 1-2.589 11.606.752.752 0 0 0 1.36.644A28.5 28.5 0 0 0 20.75 16 4.75 4.75 0 0 0 16 11.25m0-8A12.764 12.764 0 0 0 3.25 16a11.3 11.3 0 0 1-.64 3.75.75.75 0 1 0 1.414.5c.482-1.365.728-2.802.726-4.25a11.25 11.25 0 1 1 22.5 0c0 2.301-.223 4.597-.666 6.855a.75.75 0 1 0 1.471.29A37 37 0 0 0 28.75 16 12.765 12.765 0 0 0 16 3.25m-4.25 16.016a.75.75 0 0 0-.884.587 19.1 19.1 0 0 1-2.18 5.75.75.75 0 0 0 1.3.75 20.6 20.6 0 0 0 2.35-6.207.75.75 0 0 0-.586-.88M16 7.25q-.548 0-1.094.067a.75.75 0 1 0 .187 1.49A7.25 7.25 0 0 1 23.25 16q0 1.961-.242 3.907a.75.75 0 0 0 .65.837 1 1 0 0 0 .095 0 .75.75 0 0 0 .743-.658c.169-1.355.254-2.72.254-4.086A8.76 8.76 0 0 0 16 7.25m7.18 16.025a.75.75 0 0 0-.914.539 31 31 0 0 1-.632 2.136.75.75 0 0 0 1.422.477c.25-.735.47-1.487.663-2.24a.75.75 0 0 0-.539-.912"/></svg>