<svg xmlns="http://www.w3.org/2000/svg" width="32" height="32" fill="none" viewBox="0 0 32 32"><path fill="#000" d="M22.75 16a30.6 30.6 0 0 1-2.297 11.685.75.75 0 1 1-1.388-.571A29.1 29.1 0 0 0 21.25 16a.75.75 0 1 1 1.5 0M16 10.75a5.26 5.26 0 0 1 3.914 1.75.748.748 0 0 0 1.248-.166.75.75 0 0 0-.13-.834A6.75 6.75 0 0 0 9.25 16c.001 2.922-.74 5.795-2.152 8.353a.75.75 0 1 0 1.311.727A18.76 18.76 0 0 0 10.75 16 5.25 5.25 0 0 1 16 10.75m0-7.5a12.7 12.7 0 0 0-4.25.726.751.751 0 1 0 .5 1.414 11.26 11.26 0 0 1 15 10.61c0 2.636-.293 5.263-.875 7.834a.75.75 0 1 0 1.463.332c.607-2.68.913-5.418.912-8.166A12.765 12.765 0 0 0 16 3.25M8.5 7.615a.75.75 0 0 0-1-1.115A12.77 12.77 0 0 0 3.25 16a11.2 11.2 0 0 1-1.019 4.688.75.75 0 1 0 1.363.625A12.6 12.6 0 0 0 4.75 16 11.27 11.27 0 0 1 8.5 7.615m5.635 17.705a.75.75 0 0 0-1 .369c-.25.53-.511 1.058-.795 1.571a.75.75 0 0 0 1.312.727c.302-.544.587-1.108.847-1.673a.75.75 0 0 0-.364-.994M16 15.25a.75.75 0 0 0-.75.75 23.3 23.3 0 0 1-.732 5.813.75.75 0 0 0 1.452.375c.52-2.022.781-4.1.78-6.188a.75.75 0 0 0-.75-.75"/></svg>