<svg xmlns="http://www.w3.org/2000/svg" width="32" height="32" fill="none" viewBox="0 0 32 32"><path fill="#000" d="M21 12.25H11A4.75 4.75 0 0 0 6.25 17v1A4.75 4.75 0 0 0 11 22.75h10A4.75 4.75 0 0 0 25.75 18v-1A4.75 4.75 0 0 0 21 12.25M24.25 18A3.25 3.25 0 0 1 21 21.25H11A3.25 3.25 0 0 1 7.75 18v-1A3.25 3.25 0 0 1 11 13.75h10A3.25 3.25 0 0 1 24.25 17zM26 4.25a3.756 3.756 0 0 0-3.675 3H9.675A3.75 3.75 0 0 0 2.25 8v10A8.76 8.76 0 0 0 11 26.75h10A8.76 8.76 0 0 0 29.75 18V8A3.75 3.75 0 0 0 26 4.25M28.25 18A7.26 7.26 0 0 1 21 25.25H11A7.26 7.26 0 0 1 3.75 18V8a2.25 2.25 0 0 1 4.5 0 .75.75 0 0 0 .75.75h14a.75.75 0 0 0 .75-.75 2.25 2.25 0 0 1 4.5 0zm-15.5-.5a1.25 1.25 0 1 1-2.5 0 1.25 1.25 0 0 1 2.5 0m9 0a1.25 1.25 0 1 1-2.5 0 1.25 1.25 0 0 1 2.5 0"/></svg>