<svg xmlns="http://www.w3.org/2000/svg" width="32" height="32" fill="none" viewBox="0 0 32 32"><path fill="#000" d="m27.215 6.281-8.189-2.456 4.309-2.154a.75.75 0 0 0-.67-1.342L16.814 3.25A9.76 9.76 0 0 0 7.25 13v13a.75.75 0 1 0 1.5 0v-4.25h2.5V29A1.75 1.75 0 0 0 13 30.75h8A1.75 1.75 0 0 0 22.75 29V13a5.76 5.76 0 0 0-5-5.7V5.009l9.034 2.71q.106.03.216.031a.75.75 0 0 0 .215-1.469M8.75 20.25V13a8.26 8.26 0 0 1 7.5-8.214V7.3a5.76 5.76 0 0 0-5 5.7v7.25zm12.25 9h-8a.25.25 0 0 1-.25-.25v-7.25h8.5V29a.25.25 0 0 1-.25.25M21.25 13v7.25h-8.5V13a4.25 4.25 0 0 1 8.5 0"/></svg>