<svg xmlns="http://www.w3.org/2000/svg" width="32" height="32" fill="none" viewBox="0 0 32 32"><path fill="#000" d="M22.74 19.125a6.95 6.95 0 0 1-5.615 5.615.75.75 0 1 1-.25-1.48c2.172-.365 4.016-2.21 4.385-4.385a.75.75 0 0 1 1.48.25M26.75 18a10.75 10.75 0 1 1-21.5 0c0-3.434 1.356-6.951 4.031-10.455a.75.75 0 0 1 1.125-.084l3.293 3.195 2.886-7.913a.75.75 0 0 1 1.184-.32C20.465 4.666 26.75 10.675 26.75 18m-1.5 0c0-6.05-4.831-11.23-7.634-13.725l-2.911 7.983a.75.75 0 0 1-1.228.28l-3.5-3.402C7.834 12.141 6.75 15.125 6.75 18a9.25 9.25 0 1 0 18.5 0"/></svg>