<svg xmlns="http://www.w3.org/2000/svg" width="32" height="32" fill="none" viewBox="0 0 32 32"><path fill="#000" d="M27 8.25h-5.25V7A2.75 2.75 0 0 0 19 4.25h-6A2.75 2.75 0 0 0 10.25 7v1.25H5A1.75 1.75 0 0 0 3.25 10v16A1.75 1.75 0 0 0 5 27.75h22A1.75 1.75 0 0 0 28.75 26V10A1.75 1.75 0 0 0 27 8.25M11.75 7A1.25 1.25 0 0 1 13 5.75h6A1.25 1.25 0 0 1 20.25 7v1.25h-8.5zm15.5 19a.25.25 0 0 1-.25.25H5a.25.25 0 0 1-.25-.25V10A.25.25 0 0 1 5 9.75h22a.25.25 0 0 1 .25.25zm-7.5-8a.75.75 0 0 1-.75.75h-2.25V21a.75.75 0 1 1-1.5 0v-2.25H13a.75.75 0 1 1 0-1.5h2.25V15a.75.75 0 1 1 1.5 0v2.25H19a.75.75 0 0 1 .75.75"/></svg>