<svg xmlns="http://www.w3.org/2000/svg" width="32" height="32" fill="none" viewBox="0 0 32 32"><path fill="#000" d="M20.756 9.493a1.25 1.25 0 1 1-2.501 0 1.25 1.25 0 0 1 2.501 0m5.038 9.973c-2.572 3.267-6.7 5.034-12.273 5.256l-2.816 6.573a.75.75 0 0 1-.69.455h-.048a.75.75 0 0 1-.673-.543l-1.89-6.612-6.61-1.894a.75.75 0 0 1-.09-1.411l6.573-2.811c.223-5.575 1.993-9.701 5.26-12.273 5.313-4.181 12.927-2.802 14.398-2.482a1.75 1.75 0 0 1 1.341 1.34c.319 1.473 1.699 9.09-2.482 14.402m-4.92 2.068a6.26 6.26 0 0 1-4.618-5.794 6.265 6.265 0 0 1-5.79-4.615C9.41 13.242 8.841 15.875 8.761 19a.75.75 0 0 1-.454.672L3.235 21.84l4.984 1.427a.75.75 0 0 1 .515.515l1.422 4.983 2.174-5.073a.75.75 0 0 1 .67-.454c3.125-.074 5.76-.645 7.875-1.704M26.81 5.38a.25.25 0 0 0-.193-.191c-1.356-.294-8.367-1.565-13.152 2.195a10.5 10.5 0 0 0-1.691 1.681 4.75 4.75 0 0 0 5.185 5.156.75.75 0 0 1 .818.82 4.75 4.75 0 0 0 5.16 5.183 10.4 10.4 0 0 0 1.678-1.687C28.375 13.75 27.104 6.74 26.81 5.38"/></svg>