<svg xmlns="http://www.w3.org/2000/svg" width="32" height="32" fill="none" viewBox="0 0 32 32"><path fill="#000" d="M4.51 5.421a.75.75 0 0 0-.26.567V27a.75.75 0 0 0 1.5 0v-5.652c3.51-2.85 6.485-1.375 9.918.32 2.015 1 4.186 2.073 6.5 2.073 1.696 0 3.47-.575 5.32-2.177A.75.75 0 0 0 27.75 21V5.988a.75.75 0 0 0-1.241-.568c-3.625 3.14-6.66 1.636-10.176-.105-3.487-1.726-7.458-3.67-11.823.106m21.74 15.225c-3.51 2.85-6.485 1.375-9.917-.322-3.158-1.564-6.697-3.315-10.583-.824V6.34c3.51-2.85 6.485-1.375 9.918.32 3.157 1.564 6.696 3.315 10.582.829z"/></svg>