<svg xmlns="http://www.w3.org/2000/svg" width="32" height="32" fill="none" viewBox="0 0 32 32"><path fill="#000" d="M27.311 5.313a.75.75 0 0 0-.802.115c-3.625 3.138-6.66 1.635-10.176-.105-3.49-1.728-7.447-3.687-11.824.105A.75.75 0 0 0 4.25 6v21a.75.75 0 1 0 1.5 0v-5.652c3.51-2.85 6.485-1.375 9.918.323 3.49 1.728 7.447 3.685 11.823-.106A.75.75 0 0 0 27.75 21V6a.75.75 0 0 0-.439-.687M26.25 7.5v6.15c-1.941 1.575-3.719 1.831-5.5 1.456V8.61c1.75.306 3.58.113 5.5-1.11m-7 .734v6.425c-.95-.357-1.914-.833-2.918-1.33-1.145-.572-2.332-1.163-3.582-1.568V5.34a32 32 0 0 1 2.918 1.329c1.145.566 2.338 1.156 3.582 1.56zm-8-3.343v6.484c-1.75-.306-3.58-.111-5.5 1.116V6.344c1.941-1.575 3.719-1.828 5.5-1.453M9.829 18.25c-1.313 0-2.674.349-4.079 1.25v-5.151c1.941-1.576 3.719-1.832 5.5-1.457v5.492a8.3 8.3 0 0 0-1.421-.134m2.921.514V13.34c.95.355 1.914.832 2.918 1.329 1.145.566 2.338 1.157 3.582 1.562v5.424c-.95-.356-1.914-.832-2.918-1.329-1.145-.567-2.332-1.157-3.582-1.562m8 3.337v-5.49q.706.124 1.421.125c1.313 0 2.674-.347 4.079-1.25v5.154c-1.941 1.584-3.719 1.836-5.5 1.461"/></svg>