<svg xmlns="http://www.w3.org/2000/svg" width="32" height="32" fill="none" viewBox="0 0 32 32"><path fill="#000" d="m27.5 25.1-7.75-12.915V4.75H21a.75.75 0 1 0 0-1.5H11a.75.75 0 0 0 0 1.5h1.25v7.435L4.5 25.1A1.75 1.75 0 0 0 6 27.75h20a1.75 1.75 0 0 0 1.5-2.65M13.644 12.779a.75.75 0 0 0 .106-.386V4.75h4.5v7.643c0 .135.037.269.106.386l4.957 8.26c-1.552.395-3.858.375-6.974-1.208-2.118-1.072-4.125-1.6-5.979-1.58zm12.571 13.346a.25.25 0 0 1-.217.125H6a.25.25 0 0 1-.214-.375l3.625-6.051c1.862-.26 3.96.193 6.243 1.348C18 22.35 19.959 22.75 21.553 22.75c.867.006 1.73-.12 2.558-.375l2.1 3.5a.25.25 0 0 1 .004.25"/></svg>