<svg xmlns="http://www.w3.org/2000/svg" width="32" height="32" fill="none" viewBox="0 0 32 32"><path fill="#000" d="M23 2.25H9A1.75 1.75 0 0 0 7.25 4v5.666c0 .379.123.747.35 1.05l2.6 3.467a.25.25 0 0 1 .05.15V28A1.75 1.75 0 0 0 12 29.75h8A1.75 1.75 0 0 0 21.75 28V14.334a.25.25 0 0 1 .05-.15l2.6-3.468a1.75 1.75 0 0 0 .35-1.05V4A1.75 1.75 0 0 0 23 2.25M9 3.75h14a.25.25 0 0 1 .25.25v3.25H8.75V4A.25.25 0 0 1 9 3.75m14.2 6.066-2.6 3.468a1.75 1.75 0 0 0-.35 1.05V28a.25.25 0 0 1-.25.25h-8a.25.25 0 0 1-.25-.25V14.334a1.75 1.75 0 0 0-.35-1.05L8.8 9.818a.25.25 0 0 1-.05-.152V8.75h14.5v.916a.25.25 0 0 1-.05.15M16.75 15v4a.75.75 0 1 1-1.5 0v-4a.75.75 0 1 1 1.5 0"/></svg>