<svg xmlns="http://www.w3.org/2000/svg" width="32" height="32" fill="none" viewBox="0 0 32 32"><path fill="#000" d="m27.238 10.178-5.415-5.416a1.74 1.74 0 0 0-1.237-.512H6A1.75 1.75 0 0 0 4.25 6v20A1.75 1.75 0 0 0 6 27.75h20A1.75 1.75 0 0 0 27.75 26V11.414a1.74 1.74 0 0 0-.512-1.236M21.25 26.25h-10.5V19a.25.25 0 0 1 .25-.25h10a.25.25 0 0 1 .25.25zm5-.25a.25.25 0 0 1-.25.25h-3.25V19A1.75 1.75 0 0 0 21 17.25H11A1.75 1.75 0 0 0 9.25 19v7.25H6a.25.25 0 0 1-.25-.25V6A.25.25 0 0 1 6 5.75h14.586a.25.25 0 0 1 .177.072l5.414 5.416a.25.25 0 0 1 .073.176zm-6.5-17a.75.75 0 0 1-.75.75h-7a.75.75 0 1 1 0-1.5h7a.75.75 0 0 1 .75.75"/></svg>