<svg xmlns="http://www.w3.org/2000/svg" width="32" height="32" fill="none" viewBox="0 0 32 32"><path fill="#000" d="M26.169 16.386a5.3 5.3 0 0 0-.853-.386 4.749 4.749 0 0 0-2.142-9.21 4.8 4.8 0 0 0-1.755.596q-.404.24-.76.545a4.75 4.75 0 1 0-9.317 0 5.4 5.4 0 0 0-.76-.545A4.75 4.75 0 1 0 6.683 16q-.443.156-.853.386a4.75 4.75 0 1 0 4.75 8.228q.404-.24.76-.545a4.75 4.75 0 1 0 9.317 0q.358.305.76.545a4.73 4.73 0 0 0 3.606.472 4.75 4.75 0 0 0 1.145-8.702zm-4-7.701a3.25 3.25 0 1 1 3.25 5.625c-.597.344-1.865.769-4.55.934l-.18-.01a4.75 4.75 0 0 0-1.69-2.911l.083-.164c1.488-2.243 2.49-3.129 3.087-3.474m-6.17 10.565a3.25 3.25 0 1 1 0-6.5 3.25 3.25 0 0 1 0 6.5m0-15.5A3.25 3.25 0 0 1 19.25 7c0 .689-.265 2-1.465 4.409l-.1.151a4.74 4.74 0 0 0-3.374 0l-.099-.152C13.016 9 12.75 7.688 12.75 7A3.25 3.25 0 0 1 16 3.75M6.582 14.315a3.25 3.25 0 0 1 3.25-5.625c.596.345 1.599 1.231 3.084 3.474l.082.164a4.75 4.75 0 0 0-1.686 2.916l-.18.01c-2.685-.17-3.954-.595-4.55-.939m3.25 9a3.25 3.25 0 0 1-3.25-5.625c.596-.344 1.865-.769 4.55-.934l.18.01A4.75 4.75 0 0 0 13 19.678l-.083.163c-1.487 2.243-2.49 3.129-3.086 3.474M16 28.25A3.25 3.25 0 0 1 12.75 25c0-.689.266-2 1.466-4.409l.099-.151a4.74 4.74 0 0 0 3.375 0l.099.152c1.195 2.408 1.46 3.72 1.46 4.408A3.25 3.25 0 0 1 16 28.25m10.609-6.125a3.25 3.25 0 0 1-4.44 1.19c-.597-.345-1.6-1.231-3.084-3.474l-.083-.164a4.75 4.75 0 0 0 1.687-2.916l.186-.011c2.685.165 3.954.59 4.55.934a3.25 3.25 0 0 1 1.184 4.441"/></svg>