<svg xmlns="http://www.w3.org/2000/svg" width="32" height="32" fill="none" viewBox="0 0 32 32"><path fill="#000" d="M30.513 15.329a1.7 1.7 0 0 0-1.038-.8 9.1 9.1 0 0 0-3.021-.25c.584-2.579.202-4.614-.181-5.8a1.77 1.77 0 0 0-2.06-1.191c-1.335.299-2.599.855-3.72 1.638a11.6 11.6 0 0 0-3.44-4.325 1.75 1.75 0 0 0-2.107 0 11.6 11.6 0 0 0-3.438 4.325 10.5 10.5 0 0 0-3.722-1.639A1.77 1.77 0 0 0 5.728 8.48c-.384 1.186-.765 3.221-.182 5.8a9.1 9.1 0 0 0-3.021.25 1.7 1.7 0 0 0-1.037.8 1.75 1.75 0 0 0-.175 1.342C1.726 18.208 3 21.126 6.865 23.44S14.161 25.75 16 25.75s5.265 0 9.133-2.311 5.138-5.232 5.552-6.768a1.75 1.75 0 0 0-.172-1.342m-9.453-4.966a9.1 9.1 0 0 1 3.468-1.613.275.275 0 0 1 .317.188c.492 1.527.976 4.687-1.324 8.687a16.2 16.2 0 0 1-3.5 4.171c.96-1.671 1.729-3.93 1.729-6.9a14.5 14.5 0 0 0-.69-4.533M7.155 8.94a.275.275 0 0 1 .318-.191 9.1 9.1 0 0 1 3.467 1.613 14.5 14.5 0 0 0-.69 4.533c0 2.97.769 5.232 1.726 6.897a16.2 16.2 0 0 1-3.5-4.172c-2.297-3.996-1.813-7.156-1.321-8.68m.48 13.209c-3.412-2.039-4.519-4.552-4.875-5.875a.26.26 0 0 1 .026-.201.21.21 0 0 1 .125-.1A7.8 7.8 0 0 1 6 15.84c.317.878.712 1.727 1.179 2.535a17.6 17.6 0 0 0 5.125 5.59 14.4 14.4 0 0 1-4.669-1.815M16 24.108c-1.085-.776-4.25-3.526-4.25-9.212 0-5.42 2.867-8.167 4.1-9.097a.25.25 0 0 1 .3 0c1.233.93 4.1 3.677 4.1 9.097 0 5.721-3.149 8.438-4.25 9.212m13.238-7.828c-.357 1.317-1.463 3.831-4.875 5.875a14.4 14.4 0 0 1-4.673 1.809 17.6 17.6 0 0 0 5.125-5.59c.47-.808.866-1.656 1.185-2.534a7.8 7.8 0 0 1 3.091.139.21.21 0 0 1 .125.1.26.26 0 0 1 .024.201z"/></svg>