<svg xmlns="http://www.w3.org/2000/svg" width="32" height="32" fill="none" viewBox="0 0 32 32"><path fill="#000" d="m30.53 9.47-4-4a.75.75 0 0 0-1.06 1.06l2.719 2.72h-4.19a9 9 0 0 0-3.438.819c-1.647.76-3.73 2.385-4.301 5.807-.73 4.375-4.125 5.197-5.575 5.344a4.75 4.75 0 1 0 .01 1.5 8.7 8.7 0 0 0 2.72-.696c1.646-.733 3.732-2.35 4.325-5.901.875-5.283 6.042-5.375 6.26-5.375h4.189l-2.72 2.72a.752.752 0 0 0 .231 1.244.75.75 0 0 0 .83-.184l4-4a.75.75 0 0 0 0-1.058M6 25.25a3.25 3.25 0 1 1 0-6.5 3.25 3.25 0 0 1 0 6.5"/></svg>