<svg xmlns="http://www.w3.org/2000/svg" width="32" height="32" fill="none" viewBox="0 0 32 32"><path fill="#000" d="M22.711 26.763a.75.75 0 1 1-1.422.474l-1-3a.75.75 0 1 1 1.422-.474zM16 23.25a.75.75 0 0 0-.75.75v4a.75.75 0 1 0 1.5 0v-4a.75.75 0 0 0-.75-.75m-4.762.039a.75.75 0 0 0-.95.473l-1 3a.75.75 0 1 0 1.423.476l1-3a.75.75 0 0 0-.473-.95M30.75 14c0 1.921-1.617 3.674-4.555 4.933C23.459 20.105 19.839 20.75 16 20.75s-7.459-.645-10.195-1.817C2.868 17.673 1.25 15.92 1.25 14c0-2.645 3.133-4.956 8.199-6.071a7.73 7.73 0 0 1 13.155.011c5.034 1.12 8.146 3.426 8.146 6.06m-21-1.895v.375a1.24 1.24 0 0 0 .961 1.213c1.737.382 3.51.57 5.289.557a23.8 23.8 0 0 0 5.288-.553 1.24 1.24 0 0 0 .96-1.212V12a6.25 6.25 0 0 0-6.25-6.25h-.083c-3.399.045-6.165 2.895-6.165 6.355M29.25 14c0-1.666-2.297-3.326-5.85-4.315.233.75.35 1.53.35 2.315v.49a2.73 2.73 0 0 1-2.125 2.669A25.3 25.3 0 0 1 16 15.75a25.2 25.2 0 0 1-5.625-.591A2.73 2.73 0 0 1 8.25 12.49v-.384c0-.825.13-1.646.385-2.431C5.061 10.662 2.75 12.328 2.75 14c0 1.265 1.329 2.56 3.646 3.554C8.95 18.648 12.36 19.25 16 19.25s7.051-.602 9.604-1.696C27.92 16.56 29.25 15.265 29.25 14"/></svg>