<svg xmlns="http://www.w3.org/2000/svg" width="32" height="32" fill="none" viewBox="0 0 32 32"><path fill="#000" d="M19.75 18a.75.75 0 0 1-.75.75h-6a.75.75 0 1 1 0-1.5h6a.75.75 0 0 1 .75.75m9-7v14.111a1.64 1.64 0 0 1-1.639 1.639H5A1.75 1.75 0 0 1 3.25 25V8A1.75 1.75 0 0 1 5 6.25h6.666c.379 0 .747.123 1.05.35l3.468 2.6a.25.25 0 0 0 .15.05H27A1.75 1.75 0 0 1 28.75 11m-1.5 0a.25.25 0 0 0-.25-.25H16.334a1.75 1.75 0 0 1-1.05-.35l-3.468-2.6a.25.25 0 0 0-.15-.05H5a.25.25 0 0 0-.25.25v17a.25.25 0 0 0 .25.25h22.111a.14.14 0 0 0 .139-.139z"/></svg>