<svg xmlns="http://www.w3.org/2000/svg" width="32" height="32" fill="none" viewBox="0 0 32 32"><path fill="#000" d="M26.41 24.875a3.75 3.75 0 1 0-4.82 0 4.76 4.76 0 0 0-2.315 2.938.75.75 0 1 0 1.45.385c.383-1.448 1.729-2.448 3.275-2.448s2.892 1 3.275 2.442a.75.75 0 0 0 1.45-.384 4.76 4.76 0 0 0-2.315-2.933M24 19.75a2.25 2.25 0 1 1 0 4.5 2.25 2.25 0 0 1 0-4.5M28.75 11v4a.75.75 0 1 1-1.5 0v-4a.25.25 0 0 0-.25-.25H16.334a1.75 1.75 0 0 1-1.05-.35l-3.468-2.6a.25.25 0 0 0-.15-.05H5a.25.25 0 0 0-.25.25v17a.25.25 0 0 0 .25.25h10a.75.75 0 1 1 0 1.5H5A1.75 1.75 0 0 1 3.25 25V8A1.75 1.75 0 0 1 5 6.25h6.666c.379 0 .747.123 1.05.35l3.468 2.6a.25.25 0 0 0 .15.05H27A1.75 1.75 0 0 1 28.75 11"/></svg>