<svg xmlns="http://www.w3.org/2000/svg" width="32" height="32" fill="none" viewBox="0 0 32 32"><path fill="#000" d="M28.75 11v2a.75.75 0 1 1-1.5 0v-2a.25.25 0 0 0-.25-.25H16.334a1.75 1.75 0 0 1-1.05-.35l-3.468-2.6a.25.25 0 0 0-.15-.05H5a.25.25 0 0 0-.25.25v17a.25.25 0 0 0 .25.25h9a.75.75 0 1 1 0 1.5H5A1.75 1.75 0 0 1 3.25 25V8A1.75 1.75 0 0 1 5 6.25h6.666c.379 0 .747.123 1.05.35l3.468 2.6a.25.25 0 0 0 .15.05H27A1.75 1.75 0 0 1 28.75 11m0 10v5a.75.75 0 0 1-.75.75h-9a.75.75 0 0 1-.75-.75v-5a.75.75 0 0 1 .75-.75h1.25v-.75a3.25 3.25 0 1 1 6.5 0v.75H28a.75.75 0 0 1 .75.75m-7-.75h3.5v-.75a1.75 1.75 0 0 0-3.5 0zm5.5 1.5h-7.5v3.5h7.5z"/></svg>