<svg xmlns="http://www.w3.org/2000/svg" width="32" height="32" fill="none" viewBox="0 0 32 32"><path fill="#000" d="M11.75 26a.75.75 0 0 1-.75.75H4.923a1.674 1.674 0 0 1-1.673-1.672V24a.75.75 0 1 1 1.5 0v1.078a.175.175 0 0 0 .173.172H11a.75.75 0 0 1 .75.75m8.25-.75h-4a.75.75 0 1 0 0 1.5h4a.75.75 0 1 0 0-1.5m8-7a.75.75 0 0 0-.75.75v6.111a.14.14 0 0 1-.139.139H25a.75.75 0 1 0 0 1.5h2.111a1.64 1.64 0 0 0 1.639-1.639V19a.75.75 0 0 0-.75-.75m-1-9h-6a.75.75 0 1 0 0 1.5h6a.25.25 0 0 1 .25.25v3a.75.75 0 1 0 1.5 0v-3A1.75 1.75 0 0 0 27 9.25M3.25 10V7A1.75 1.75 0 0 1 5 5.25h6.586a1.74 1.74 0 0 1 1.238.513L16.53 9.47a.75.75 0 0 1-.53 1.28H4a.75.75 0 0 1-.75-.75m1.5-.75h9.439l-2.427-2.426a.25.25 0 0 0-.176-.074H5a.25.25 0 0 0-.25.25zM4 19.75a.75.75 0 0 0 .75-.75v-4a.75.75 0 1 0-1.5 0v4a.75.75 0 0 0 .75.75"/></svg>