<svg xmlns="http://www.w3.org/2000/svg" width="32" height="32" fill="none" viewBox="0 0 32 32"><path fill="#000" d="M28 20.25h-1.25v-.75a3.25 3.25 0 1 0-6.5 0v.75H19a.75.75 0 0 0-.75.75v5a.75.75 0 0 0 .75.75h9a.75.75 0 0 0 .75-.75v-5a.75.75 0 0 0-.75-.75m-6.25-.75a1.75 1.75 0 0 1 3.5 0v.75h-3.5zm5.5 5.75h-7.5v-3.5h7.5zm-.25-16H16.311l-3.487-3.487a1.74 1.74 0 0 0-1.238-.513H5A1.75 1.75 0 0 0 3.25 7v18.078a1.674 1.674 0 0 0 1.673 1.672h9.147a.75.75 0 1 0 0-1.5H4.923a.175.175 0 0 1-.173-.172V10.75H27a.25.25 0 0 1 .25.25v2a.75.75 0 1 0 1.5 0v-2A1.75 1.75 0 0 0 27 9.25M5 6.75h6.586a.25.25 0 0 1 .176.074L14.19 9.25H4.75V7A.25.25 0 0 1 5 6.75"/></svg>