<svg xmlns="http://www.w3.org/2000/svg" width="32" height="32" fill="none" viewBox="0 0 32 32"><path fill="#000" d="M27 10.75a.25.25 0 0 1 .25.25v4a.75.75 0 1 0 1.5 0v-4A1.75 1.75 0 0 0 27 9.25H16.31l-3.487-3.487a1.74 1.74 0 0 0-1.237-.513H5A1.75 1.75 0 0 0 3.25 7v18.076a1.674 1.674 0 0 0 1.673 1.674H15.07a.75.75 0 1 0 0-1.5H4.923a.175.175 0 0 1-.173-.174V10.75zm-22-4h6.586a.25.25 0 0 1 .176.072L14.19 9.25H4.75V7A.25.25 0 0 1 5 6.75m24.715 13.225a.75.75 0 0 0-.657-.521l-3.875-.3-1.49-3.451a.75.75 0 0 0-1.374 0l-1.489 3.45-3.875.3a.75.75 0 0 0-.42 1.327l2.936 2.424-.895 3.616a.75.75 0 0 0 1.109.826L23 25.687l3.328 1.96a.75.75 0 0 0 1.108-.827l-.895-3.616 2.936-2.424a.75.75 0 0 0 .238-.805m-4.492 2.375a.75.75 0 0 0-.25.759l.58 2.342-2.178-1.281a.75.75 0 0 0-.76 0l-2.171 1.279.579-2.343a.75.75 0 0 0-.25-.759l-1.868-1.54 2.479-.192a.75.75 0 0 0 .625-.451L23 17.892l.98 2.272a.75.75 0 0 0 .625.451l2.479.191z"/></svg>