<svg xmlns="http://www.w3.org/2000/svg" width="32" height="32" fill="none" viewBox="0 0 32 32"><path fill="#000" d="M15.75 26a.75.75 0 0 1-.75.75H5A1.75 1.75 0 0 1 3.25 25V8A1.75 1.75 0 0 1 5 6.25h6.666c.379 0 .747.123 1.05.35l3.468 2.6a.25.25 0 0 0 .15.05H27A1.75 1.75 0 0 1 28.75 11v4a.75.75 0 1 1-1.5 0v-4a.25.25 0 0 0-.25-.25H16.334a1.75 1.75 0 0 1-1.05-.35l-3.468-2.6a.25.25 0 0 0-.15-.05H5a.25.25 0 0 0-.25.25v17a.25.25 0 0 0 .25.25h10a.75.75 0 0 1 .75.75m13.728-5.22-2.937 2.424.895 3.616a.75.75 0 0 1-1.108.826L23 25.687l-3.328 1.96a.75.75 0 0 1-1.108-.827l.895-3.616-2.936-2.424a.75.75 0 0 1 .42-1.326l3.874-.3 1.49-3.451a.75.75 0 0 1 1.374 0l1.489 3.45 3.875.3a.75.75 0 0 1 .42 1.327zm-2.388.026-2.479-.191a.75.75 0 0 1-.625-.451L23 17.892l-.98 2.272a.75.75 0 0 1-.625.451l-2.479.191 1.868 1.541a.75.75 0 0 1 .25.76l-.579 2.342 2.17-1.279a.75.75 0 0 1 .76 0l2.171 1.279-.58-2.343a.75.75 0 0 1 .25-.759z"/></svg>