<svg xmlns="http://www.w3.org/2000/svg" width="32" height="32" fill="none" viewBox="0 0 32 32"><path fill="#000" d="M26.41 24.875a3.75 3.75 0 1 0-4.82 0 4.76 4.76 0 0 0-2.315 2.938.75.75 0 1 0 1.45.385c.383-1.448 1.729-2.448 3.275-2.448s2.892 1 3.275 2.442a.75.75 0 0 0 1.45-.386 4.76 4.76 0 0 0-2.315-2.931M24 19.75a2.25 2.25 0 1 1 0 4.5 2.25 2.25 0 0 1 0-4.5m3-10.5H16.31l-3.486-3.487a1.74 1.74 0 0 0-1.238-.513H5A1.75 1.75 0 0 0 3.25 7v18.076a1.675 1.675 0 0 0 1.673 1.674H15.07a.75.75 0 1 0 0-1.5H4.923a.175.175 0 0 1-.173-.174V10.75H27a.25.25 0 0 1 .25.25v4a.75.75 0 1 0 1.5 0v-4A1.75 1.75 0 0 0 27 9.25M5 6.75h6.586a.25.25 0 0 1 .176.074L14.19 9.25H4.75V7A.25.25 0 0 1 5 6.75"/></svg>