<svg xmlns="http://www.w3.org/2000/svg" width="32" height="32" fill="none" viewBox="0 0 32 32"><path fill="#000" d="M30.42 13.976A1.75 1.75 0 0 0 29 13.25h-2.25V11A1.75 1.75 0 0 0 25 9.25h-8.666a.25.25 0 0 1-.15-.05l-3.467-2.6a1.76 1.76 0 0 0-1.05-.35H5A1.75 1.75 0 0 0 3.25 8v18a.75.75 0 0 0 .75.75h22.388a.75.75 0 0 0 .71-.512l3.562-10.684a1.75 1.75 0 0 0-.24-1.578M5 7.75h6.668a.25.25 0 0 1 .15.05l3.466 2.6c.303.227.671.35 1.05.35H25a.25.25 0 0 1 .25.25v2.25h-6.946c-.346 0-.684.102-.971.294l-2.5 1.663a.25.25 0 0 1-.14.043H8.679a1.74 1.74 0 0 0-1.626 1.1L4.75 22.105V8A.25.25 0 0 1 5 7.75m24.238 7.329-3.39 10.171H5.108l3.337-8.343a.25.25 0 0 1 .232-.157h6.02c.346 0 .684-.102.972-.294l2.5-1.663a.25.25 0 0 1 .139-.043H29a.25.25 0 0 1 .238.329"/></svg>