<svg xmlns="http://www.w3.org/2000/svg" width="32" height="32" fill="none" viewBox="0 0 32 32"><path fill="#000" d="m15.55 10.6-3.734-2.8a.25.25 0 0 0-.15-.05H5a.25.25 0 0 0-.25.25v2a.75.75 0 1 1-1.5 0V8A1.75 1.75 0 0 1 5 6.25h6.666c.379 0 .747.123 1.05.35l3.734 2.8a.75.75 0 0 1-.9 1.2M11 25.25H4.923a.175.175 0 0 1-.173-.172V24a.75.75 0 1 0-1.5 0v1.078a1.674 1.674 0 0 0 1.673 1.672H11a.75.75 0 1 0 0-1.5m9 0h-4a.75.75 0 1 0 0 1.5h4a.75.75 0 1 0 0-1.5m8-7a.75.75 0 0 0-.75.75v6.111a.14.14 0 0 1-.139.139H25a.75.75 0 1 0 0 1.5h2.111a1.64 1.64 0 0 0 1.639-1.639V19a.75.75 0 0 0-.75-.75m-1-9h-6a.75.75 0 1 0 0 1.5h6a.25.25 0 0 1 .25.25v3a.75.75 0 1 0 1.5 0v-3A1.75 1.75 0 0 0 27 9.25M4 19.75a.75.75 0 0 0 .75-.75v-4a.75.75 0 1 0-1.5 0v4a.75.75 0 0 0 .75.75"/></svg>