<svg xmlns="http://www.w3.org/2000/svg" width="32" height="32" fill="none" viewBox="0 0 32 32"><path fill="#000" d="M13 20.25H6a.75.75 0 0 0-.75.75v1.5a4.25 4.25 0 1 0 8.5 0V21a.75.75 0 0 0-.75-.75m-.75 2.25a2.75 2.75 0 0 1-5.5 0v-.75h5.5zM9.5 2.25c-1.35 0-2.68 1.239-3.75 3.488-1.707 3.602-2.286 8.94 0 11.737a.75.75 0 0 0 .581.275h6.317a.75.75 0 0 0 .58-.275c2.29-2.796 1.712-8.135 0-11.737C12.177 3.488 10.847 2.25 9.5 2.25m2.779 14H6.718c-1.262-1.898-1.462-5.956.392-9.875C8.03 4.439 8.971 3.75 9.5 3.75s1.469.689 2.388 2.625c1.852 3.919 1.652 7.977.39 9.875m13.721 7h-7a.75.75 0 0 0-.75.75v1.5a4.25 4.25 0 1 0 8.5 0V24a.75.75 0 0 0-.75-.75m-.75 2.25a2.75 2.75 0 0 1-5.5 0v-.75h5.5zm-5.909-4.75h6.317a.75.75 0 0 0 .58-.275c2.29-2.796 1.712-8.135 0-11.737C25.18 6.488 23.85 5.25 22.5 5.25s-2.679 1.239-3.75 3.488c-1.707 3.602-2.286 8.94 0 11.737a.75.75 0 0 0 .594.275zm.772-11.375c.918-1.941 1.86-2.625 2.387-2.625.528 0 1.468.689 2.388 2.625 1.853 3.914 1.653 7.973.392 9.875h-5.559c-1.26-1.898-1.46-5.956.394-9.875z"/></svg>