<svg xmlns="http://www.w3.org/2000/svg" width="32" height="32" fill="none" viewBox="0 0 32 32"><path fill="#000" d="M28.386 6.777a3.865 3.865 0 0 0-3.163-3.163c-4-.678-11.535-.989-17.067 4.542-5.531 5.531-5.22 13.067-4.542 17.067a3.865 3.865 0 0 0 3.163 3.163c1.405.24 2.826.361 4.25.364 3.962 0 8.89-.985 12.812-4.906 5.536-5.532 5.225-13.067 4.547-17.067m-7.456-2.04a24 24 0 0 1 4.041.354A2.37 2.37 0 0 1 26.91 7.03c.298 1.7.407 3.427.325 5.151L19.82 4.767c.361-.017.73-.03 1.11-.03M7.029 26.91A2.37 2.37 0 0 1 5.09 24.97a23.4 23.4 0 0 1-.325-5.151l7.414 7.414a23.4 23.4 0 0 1-5.151-.325m15.75-4.125c-1.49 1.489-4.28 3.567-8.683 4.25l-9.131-9.135c.684-4.403 2.762-7.193 4.25-8.683S13.5 5.65 17.9 4.966l9.135 9.135c-.684 4.399-2.762 7.193-4.251 8.683zm-2.251-11.311a.75.75 0 0 1 0 1.06L18.56 14.5l.969.969a.75.75 0 1 1-1.06 1.06l-.969-.968-1.939 1.939.969.97a.749.749 0 1 1-1.06 1.06l-.97-.97-1.969 1.968a.751.751 0 0 1-1.234-.817.8.8 0 0 1 .174-.243L13.44 17.5l-.969-.969a.75.75 0 1 1 1.06-1.06l.97.969 1.938-1.938-.969-.97a.75.75 0 1 1 1.06-1.06l.969.97 1.969-1.968a.75.75 0 0 1 1.06-.002"/></svg>