<svg xmlns="http://www.w3.org/2000/svg" width="32" height="32" fill="none" viewBox="0 0 32 32"><path fill="#000" d="M9.25 11V5a.75.75 0 0 1 1.5 0v6a.75.75 0 1 1-1.5 0m17.5-6v23a.75.75 0 1 1-1.5 0v-6.25H19a.75.75 0 0 1-.75-.75c0-.551.085-13.531 7.455-16.689A.75.75 0 0 1 26.75 5m-1.5 1.25c-4.599 3.036-5.352 11.435-5.476 14h5.476zM14.74 4.875a.75.75 0 1 0-1.48.25l.99 5.935a4.25 4.25 0 0 1-8.5 0l.99-5.935a.75.75 0 0 0-1.48-.25l-1 6a1 1 0 0 0-.01.125 5.76 5.76 0 0 0 5 5.7V28a.75.75 0 1 0 1.5 0V16.7a5.76 5.76 0 0 0 5-5.7 1 1 0 0 0-.01-.125z"/></svg>