<svg xmlns="http://www.w3.org/2000/svg" width="32" height="32" fill="none" viewBox="0 0 32 32"><path fill="#000" d="M28.596 6.293A1.73 1.73 0 0 0 27 5.25H5A1.75 1.75 0 0 0 3.71 8.178l.007.008 8.467 9.039a.25.25 0 0 1 .067.171V27a1.75 1.75 0 0 0 2.721 1.455l4-2.666a1.75 1.75 0 0 0 .78-1.457v-6.936a.25.25 0 0 1 .067-.171l8.473-9.047a1.73 1.73 0 0 0 .305-1.885m-1.407.867-8.466 9.04a1.74 1.74 0 0 0-.473 1.196v6.936a.25.25 0 0 1-.111.21l-4 2.665A.25.25 0 0 1 13.75 27v-9.604a1.75 1.75 0 0 0-.472-1.197L4.816 7.165A.25.25 0 0 1 5 6.75h22a.24.24 0 0 1 .229.149.23.23 0 0 1-.04.261"/></svg>