<svg xmlns="http://www.w3.org/2000/svg" width="32" height="32" fill="none" viewBox="0 0 32 32"><path fill="#000" d="M30 24.25h-1.25V12.334a1.75 1.75 0 0 0-.779-1.459l-11-7.332a1.75 1.75 0 0 0-1.942 0l-11 7.332a1.75 1.75 0 0 0-.779 1.459V24.25H2a.75.75 0 1 0 0 1.5h28a.75.75 0 0 0 0-1.5M4.75 12.334a.25.25 0 0 1 .111-.209l11-7.334a.25.25 0 0 1 .278 0l11 7.334a.25.25 0 0 1 .111.208V24.25h-3.5V17a.75.75 0 0 0-.75-.75H9a.75.75 0 0 0-.75.75v7.25h-3.5zm17.5 5.416v2.5h-5.5v-2.5zm-7 2.5h-5.5v-2.5h5.5zm-5.5 1.5h5.5v2.5h-5.5zm7 0h5.5v2.5h-5.5z"/></svg>