<svg xmlns="http://www.w3.org/2000/svg" width="32" height="32" fill="none" viewBox="0 0 32 32"><path fill="#000" d="M25 3.25h-9.586a1.74 1.74 0 0 0-1.238.513l-1.469 1.47-1.47-1.47a1.75 1.75 0 0 0-2.475 0l-3 3a1.75 1.75 0 0 0 0 2.475l1.47 1.47-1.47 1.468a1.74 1.74 0 0 0-.512 1.238V27A1.75 1.75 0 0 0 7 28.75h18A1.75 1.75 0 0 0 26.75 27V5A1.75 1.75 0 0 0 25 3.25M6.824 8.176a.25.25 0 0 1 0-.352l3-3a.25.25 0 0 1 .352 0l1.47 1.469-3.354 3.353zM25.25 27a.25.25 0 0 1-.25.25H7a.25.25 0 0 1-.25-.25V13.414a.25.25 0 0 1 .074-.176l2-2 4.414-4.414 2-2a.25.25 0 0 1 .176-.074H25a.25.25 0 0 1 .25.25zm-2.5-19a.75.75 0 0 1-.75.75h-5a.75.75 0 1 1 0-1.5h5a.75.75 0 0 1 .75.75m-.3 7.6-5.2 3.9 5.2 3.9a.75.75 0 1 1-.9 1.2L16 20.437 10.45 24.6a.75.75 0 1 1-.9-1.2l5.2-3.9-5.2-3.9a.75.75 0 1 1 .9-1.2L16 18.563l5.55-4.163a.75.75 0 1 1 .9 1.2"/></svg>