<svg xmlns="http://www.w3.org/2000/svg" width="32" height="32" fill="none" viewBox="0 0 32 32"><path fill="#000" d="M25.706 10.26A13.66 13.66 0 0 0 16 6.25h-.049C8.396 6.276 2.25 12.508 2.25 20.141v2.86A1.75 1.75 0 0 0 4 24.75h24A1.75 1.75 0 0 0 29.75 23v-3a13.66 13.66 0 0 0-4.044-9.74M28.25 23a.25.25 0 0 1-.25.25H14.473l7.133-9.809a.75.75 0 0 0-1.212-.882L12.618 23.25H4a.25.25 0 0 1-.25-.25v-2.859q0-.697.078-1.39H7a.75.75 0 0 0 0-1.5H4.089c1.236-5.2 5.727-9.143 11.161-9.477V11a.75.75 0 0 0 1.5 0V7.774a12.26 12.26 0 0 1 11.191 9.476H25a.75.75 0 1 0 0 1.5h3.188q.061.62.062 1.25z"/></svg>