<svg xmlns="http://www.w3.org/2000/svg" width="32" height="32" fill="none" viewBox="0 0 32 32"><path fill="#000" d="m30.239 14.762-2-2a1.75 1.75 0 0 0-2.444-.028l-6.529-6.53a1.75 1.75 0 0 0-.029-2.443l-2-2a1.75 1.75 0 0 0-2.475 0l-8 8a1.75 1.75 0 0 0 0 2.475l2 2a1.75 1.75 0 0 0 2.444.029L12.44 15.5 4.09 23.849a2.875 2.875 0 0 0 4.06 4.06l8.349-8.348 1.234 1.234a1.75 1.75 0 0 0 .028 2.444l2 2a1.75 1.75 0 0 0 2.475 0l8-8a1.75 1.75 0 0 0 .002-2.477m-11.445 4.97-6.527-6.525 5.94-5.94 6.525 6.525zm-8.97-6.556-2-2a.25.25 0 0 1 0-.354l8-8a.25.25 0 0 1 .353 0l2 2a.25.25 0 0 1 0 .354l-8 8a.25.25 0 0 1-.353 0M7.09 26.85a1.375 1.375 0 0 1-1.94-1.94L13.5 16.56l1.94 1.939zm22.086-10.673-8 8a.25.25 0 0 1-.353 0l-2-2a.25.25 0 0 1 0-.353l8-8a.25.25 0 0 1 .353 0l2 2a.25.25 0 0 1 0 .353"/></svg>