<svg xmlns="http://www.w3.org/2000/svg" width="32" height="32" fill="none" viewBox="0 0 32 32"><path fill="#000" d="M29 15.25h-2.279a10.7 10.7 0 0 0-1.061-3.961l1.974-1.139a.75.75 0 0 0-.75-1.3l-1.975 1.14a10.8 10.8 0 0 0-2.899-2.899l1.14-1.975a.75.75 0 1 0-1.3-.75L20.711 6.34a10.7 10.7 0 0 0-3.961-1.061V3a.75.75 0 1 0-1.5 0v2.279a10.7 10.7 0 0 0-3.961 1.061L10.15 4.366a.75.75 0 0 0-1.3.75l1.14 1.975A10.8 10.8 0 0 0 7.091 9.99L5.116 8.85a.75.75 0 1 0-.75 1.3l1.974 1.139a10.7 10.7 0 0 0-1.061 3.961H3a.75.75 0 1 0 0 1.5h2.279a10.7 10.7 0 0 0 1.061 3.961L4.366 21.85a.75.75 0 0 0 .75 1.3l1.975-1.14a10.8 10.8 0 0 0 2.899 2.899l-1.14 1.975a.75.75 0 1 0 1.3.75l1.139-1.974c1.24.606 2.585.966 3.961 1.061V29a.75.75 0 1 0 1.5 0v-2.279a10.7 10.7 0 0 0 3.961-1.061l1.139 1.974a.75.75 0 0 0 1.301-.75l-1.14-1.975a10.8 10.8 0 0 0 2.899-2.899l1.975 1.14a.751.751 0 0 0 .75-1.3l-1.974-1.139c.606-1.24.966-2.585 1.06-3.961H29a.75.75 0 1 0 0-1.5m-18.25 8.355a9.238 9.238 0 0 1 0-15.21L15.134 16zM16 25.25a9.2 9.2 0 0 1-3.959-.892l4.392-7.608h8.785A9.26 9.26 0 0 1 16 25.25m.433-10L12.04 7.643a9.243 9.243 0 0 1 13.177 7.607z"/></svg>