<svg xmlns="http://www.w3.org/2000/svg" width="32" height="32" fill="none" viewBox="0 0 32 32"><path fill="#000" d="M16 10.25A5.75 5.75 0 1 0 21.75 16 5.76 5.76 0 0 0 16 10.25m0 10a4.25 4.25 0 1 1 0-8.501 4.25 4.25 0 0 1 0 8.501m13.5-6.8a.75.75 0 0 0-.365-.5l-3.805-2.172-.052-.09-.015-4.288A.75.75 0 0 0 25 5.83a13.8 13.8 0 0 0-4.509-2.539.75.75 0 0 0-.605.057l-3.828 2.135h-.125l-3.82-2.138a.75.75 0 0 0-.607-.055A13.7 13.7 0 0 0 7 5.835a.75.75 0 0 0-.265.569l-.02 4.292-.051.09-3.8 2.16a.75.75 0 0 0-.364.507 13.1 13.1 0 0 0 0 5.097.75.75 0 0 0 .365.5l3.803 2.166.052.09.015 4.288A.75.75 0 0 0 7 26.17a13.8 13.8 0 0 0 4.509 2.539.75.75 0 0 0 .605-.056l3.826-2.135h.125l3.82 2.137a.76.76 0 0 0 .606.055 13.7 13.7 0 0 0 4.5-2.545.75.75 0 0 0 .265-.569l.02-4.292.052-.089 3.802-2.161a.75.75 0 0 0 .365-.506c.335-1.683.337-3.415.005-5.098m-1.406 4.474-3.679 2.089a.76.76 0 0 0-.285.287c-.074.125-.151.264-.232.393a.75.75 0 0 0-.114.395l-.02 4.15a12.3 12.3 0 0 1-3.44 1.942l-3.699-2.07a.75.75 0 0 0-.366-.096h-.485a.75.75 0 0 0-.384.095l-3.709 2.07a12.3 12.3 0 0 1-3.445-1.936l-.015-4.147a.75.75 0 0 0-.113-.395 8 8 0 0 1-.233-.392.75.75 0 0 0-.284-.288l-3.678-2.096a11.6 11.6 0 0 1 0-3.849l3.672-2.088a.76.76 0 0 0 .29-.288c.074-.125.151-.264.233-.392a.75.75 0 0 0 .113-.395l.02-4.152a12.3 12.3 0 0 1 3.435-1.94l3.7 2.07c.116.066.249.099.383.094h.467a.75.75 0 0 0 .384-.095l3.706-2.07a12.3 12.3 0 0 1 3.445 1.936l.015 4.147c0 .14.04.276.114.395.08.125.159.26.233.392a.75.75 0 0 0 .283.288l3.682 2.097c.215 1.274.216 2.575.003 3.849z"/></svg>