<svg xmlns="http://www.w3.org/2000/svg" width="32" height="32" fill="none" viewBox="0 0 32 32"><path fill="#000" d="M13.75 14.5a1.25 1.25 0 1 1-2.5 0 1.25 1.25 0 0 1 2.5 0m5.75-1.25a1.25 1.25 0 1 0 0 2.5 1.25 1.25 0 0 0 0-2.5M27.75 15v12a.75.75 0 0 1-1.225.58l-3.191-2.611-3.193 2.611a.75.75 0 0 1-.95 0L16 24.969l-3.191 2.611a.75.75 0 0 1-.95 0l-3.193-2.611-3.191 2.611A.75.75 0 0 1 4.25 27V15a11.75 11.75 0 1 1 23.5 0m-1.5 0a10.25 10.25 0 1 0-20.5 0v10.418l2.441-2a.75.75 0 0 1 .95 0l3.193 2.61 3.191-2.61a.75.75 0 0 1 .95 0l3.191 2.61 3.193-2.61a.75.75 0 0 1 .95 0l2.441 2z"/></svg>