<svg xmlns="http://www.w3.org/2000/svg" width="32" height="32" fill="none" viewBox="0 0 32 32"><path fill="#000" d="M17.75 9v14a.75.75 0 1 1-1.5 0V9a.75.75 0 1 1 1.5 0M28 8.25h-6a.75.75 0 0 0-.75.75v14a.75.75 0 1 0 1.5 0v-6.25H27a.75.75 0 1 0 0-1.5h-4.25v-5.5H28a.75.75 0 1 0 0-1.5m-16 7H9a.75.75 0 1 0 0 1.5h2.25V19a3.25 3.25 0 1 1-6.5 0v-6A3.25 3.25 0 0 1 8 9.75c1.509 0 2.916 1.047 3.274 2.438a.749.749 0 0 0 1.469-.083.8.8 0 0 0-.017-.293C12.195 9.75 10.207 8.25 8 8.25A4.75 4.75 0 0 0 3.25 13v6a4.75 4.75 0 1 0 9.5 0v-3a.75.75 0 0 0-.75-.75"/></svg>