<svg xmlns="http://www.w3.org/2000/svg" width="32" height="32" fill="none" viewBox="0 0 32 32"><path fill="#000" d="M14 19.25a.75.75 0 0 0-.75.75v4.19l-3.962-3.963a5.22 5.22 0 0 1-1.538-3.712v-4.84a3.75 3.75 0 1 0-1.5 0v4.84a6.7 6.7 0 0 0 1.978 4.773l3.962 3.962H8a.75.75 0 1 0 0 1.5h6a.75.75 0 0 0 .75-.75v-6a.75.75 0 0 0-.75-.75M4.75 8a2.25 2.25 0 1 1 4.5 0 2.25 2.25 0 0 1-4.5 0m21 12.325v-4.84a6.7 6.7 0 0 0-1.977-4.772L19.81 6.75H24a.75.75 0 1 0 0-1.5h-6a.75.75 0 0 0-.75.75v6a.75.75 0 0 0 1.5 0V7.81l3.962 3.963a5.22 5.22 0 0 1 1.538 3.712v4.84a3.75 3.75 0 1 0 1.5 0M25 26.25a2.25 2.25 0 1 1 0-4.5 2.25 2.25 0 0 1 0 4.5"/></svg>