<svg xmlns="http://www.w3.org/2000/svg" width="32" height="32" fill="none" viewBox="0 0 32 32"><path fill="#000" d="M27.75 8a3.75 3.75 0 1 0-4.5 3.675V13A2.25 2.25 0 0 1 21 15.25H11A2.25 2.25 0 0 1 8.75 13v-1.325a3.75 3.75 0 1 0-1.5 0V13A3.75 3.75 0 0 0 11 16.75h4.25v3.575a3.75 3.75 0 1 0 1.5 0V16.75H21A3.75 3.75 0 0 0 24.75 13v-1.325a3.76 3.76 0 0 0 3-3.675m-22 0a2.25 2.25 0 1 1 4.5 0 2.25 2.25 0 0 1-4.5 0m12.5 16a2.25 2.25 0 1 1-4.5 0 2.25 2.25 0 0 1 4.5 0M24 10.25a2.25 2.25 0 1 1 0-4.5 2.25 2.25 0 0 1 0 4.5"/></svg>