<svg xmlns="http://www.w3.org/2000/svg" width="32" height="32" fill="none" viewBox="0 0 32 32"><path fill="#000" d="M25.766 9.49a7.23 7.23 0 0 0-.616-5.865.75.75 0 0 0-.65-.375 7.22 7.22 0 0 0-5.875 3h-3.25a7.22 7.22 0 0 0-5.875-3 .75.75 0 0 0-.65.375 7.22 7.22 0 0 0-.616 5.865A7 7 0 0 0 7.25 13v1a6.76 6.76 0 0 0 6.306 6.734A4.73 4.73 0 0 0 12.25 24v1.25H9A3.25 3.25 0 0 1 5.75 22 4.75 4.75 0 0 0 1 17.25a.75.75 0 1 0 0 1.5A3.25 3.25 0 0 1 4.25 22 4.75 4.75 0 0 0 9 26.75h3.25V29a.75.75 0 1 0 1.5 0v-5a3.25 3.25 0 0 1 6.5 0v5a.75.75 0 1 0 1.5 0v-5a4.73 4.73 0 0 0-1.306-3.266A6.76 6.76 0 0 0 26.75 14v-1a7 7 0 0 0-.984-3.51M25.25 14A5.25 5.25 0 0 1 20 19.25h-6A5.25 5.25 0 0 1 8.75 14v-1a5.5 5.5 0 0 1 .912-2.961.75.75 0 0 0 .102-.72 5.73 5.73 0 0 1 .179-4.553 5.73 5.73 0 0 1 4.403 2.638.75.75 0 0 0 .633.346h4.042a.75.75 0 0 0 .633-.345 5.73 5.73 0 0 1 4.404-2.639 5.73 5.73 0 0 1 .178 4.553.75.75 0 0 0 .099.717c.584.88.902 1.909.915 2.964z"/></svg>