<svg xmlns="http://www.w3.org/2000/svg" width="32" height="32" fill="none" viewBox="0 0 32 32"><path fill="#000" d="M28.526 14.701 26.04 5.186a1.243 1.243 0 0 0-2.375-.116l-2.269 6.18H10.604L8.333 5.07a1.243 1.243 0 0 0-2.376.116l-2.483 9.515a6.9 6.9 0 0 0 2.651 7.351l9.159 6.472a1.24 1.24 0 0 0 1.43 0l9.161-6.472a6.9 6.9 0 0 0 2.651-7.35M7.206 6.352l2.169 5.907a.75.75 0 0 0 .705.491h11.84a.75.75 0 0 0 .705-.491l2.17-5.907 1.875 7.19L16 21.083l-10.672-7.54zm-2.283 8.74L14.7 22l-3.024 2.137-4.683-3.31a5.39 5.39 0 0 1-2.07-5.735M16 27.193l-3.024-2.137L16 22.919l3.024 2.136zm9.008-6.364-4.684 3.31L17.3 22l9.778-6.908a5.39 5.39 0 0 1-2.07 5.736"/></svg>