<svg xmlns="http://www.w3.org/2000/svg" width="32" height="32" fill="none" viewBox="0 0 32 32"><path fill="#000" d="M28.526 14.701 26.04 5.186a1.243 1.243 0 0 0-2.375-.116l-2.269 6.18H10.604L8.333 5.07a1.243 1.243 0 0 0-2.376.116l-2.483 9.515a6.9 6.9 0 0 0 2.651 7.351l9.159 6.472a1.24 1.24 0 0 0 1.43 0l9.161-6.472a6.9 6.9 0 0 0 2.651-7.35m-3.518 6.125L16 27.191l-9.007-6.363a5.39 5.39 0 0 1-2.068-5.75l2.281-8.726 2.169 5.907a.75.75 0 0 0 .705.491h11.84a.75.75 0 0 0 .705-.491l2.17-5.907 2.281 8.728a5.39 5.39 0 0 1-2.068 5.748z"/></svg>