<svg xmlns="http://www.w3.org/2000/svg" width="32" height="32" fill="none" viewBox="0 0 32 32"><path fill="#000" d="M16 3.25A12.75 12.75 0 1 0 28.75 16 12.765 12.765 0 0 0 16 3.25m11.225 12h-5.49c-.144-3.84-1.386-7.479-3.492-10.275a11.27 11.27 0 0 1 8.982 10.275M16 27.25a.22.22 0 0 1-.165-.074c-2.445-2.633-3.908-6.4-4.07-10.426h8.469c-.162 4.026-1.625 7.793-4.069 10.426a.22.22 0 0 1-.165.074m-4.235-12c.162-4.026 1.625-7.792 4.07-10.426a.222.222 0 0 1 .33 0c2.445 2.633 3.908 6.4 4.069 10.426zm1.992-10.275c-2.106 2.796-3.348 6.435-3.492 10.275h-5.49a11.27 11.27 0 0 1 8.983-10.275M4.776 16.75h5.49c.144 3.84 1.386 7.479 3.492 10.275A11.27 11.27 0 0 1 4.776 16.75m13.468 10.275c2.106-2.796 3.348-6.435 3.492-10.275h5.49a11.27 11.27 0 0 1-8.983 10.275"/></svg>