<svg xmlns="http://www.w3.org/2000/svg" width="32" height="32" fill="none" viewBox="0 0 32 32"><path fill="#000" d="M16 3.25A12.75 12.75 0 1 0 28.75 16 12.765 12.765 0 0 0 16 3.25m0 1.5c2.226-.002 4.402.66 6.25 1.9v2.6a.25.25 0 0 1-.06.164l-2.771 3.211a.25.25 0 0 1-.157.085l-3.933.54a.25.25 0 0 1-.18-.045l-.03-.02-2.463-1.611a1.75 1.75 0 0 0-2.463.455L7.568 15.94c-.192.285-.294.62-.295.964l-.023 4.526a.25.25 0 0 1-.112.208l-.625.409A11.25 11.25 0 0 1 16 4.75M7.41 23.256l.554-.362a1.75 1.75 0 0 0 .786-1.454l.026-4.529q0-.075.042-.137l2.625-3.913a.25.25 0 0 1 .263-.105.3.3 0 0 1 .09.041l.03.02 2.463 1.612c.362.257.81.366 1.25.305l3.934-.533a1.75 1.75 0 0 0 1.09-.592l2.772-3.22a1.75 1.75 0 0 0 .415-1.139V7.853a11.24 11.24 0 0 1 2.835 11.958l-2.3-2.102a1.75 1.75 0 0 0-1.852-.325l-3.808 1.582a1.77 1.77 0 0 0-1.06 1.361l-.298 2.024a1.75 1.75 0 0 0 1.288 1.948l2.683.701a.26.26 0 0 1 .113.066l.523.523A11.23 11.23 0 0 1 7.41 23.256m15.703 1.454-.7-.701a1.75 1.75 0 0 0-.794-.457l-2.683-.703a.25.25 0 0 1-.183-.279l.298-2.024a.25.25 0 0 1 .152-.195l3.806-1.582a.25.25 0 0 1 .265.046l2.67 2.442a11.4 11.4 0 0 1-2.831 3.453"/></svg>