<svg xmlns="http://www.w3.org/2000/svg" width="32" height="32" fill="none" viewBox="0 0 32 32"><path fill="#000" d="M16 3.25A12.75 12.75 0 1 0 28.75 16 12.765 12.765 0 0 0 16 3.25m10.196 8h-5.022a17.4 17.4 0 0 0-2.931-6.275 11.29 11.29 0 0 1 7.953 6.275M27.25 16c0 1.101-.16 2.196-.479 3.25h-5.288a19.9 19.9 0 0 0 0-6.5h5.288c.319 1.054.48 2.149.479 3.25M16 27.25a.22.22 0 0 1-.165-.074c-1.61-1.733-2.793-3.96-3.46-6.426h7.25c-.668 2.466-1.85 4.692-3.46 6.426a.22.22 0 0 1-.165.074m-3.961-8a18.4 18.4 0 0 1 0-6.5h7.922a18.4 18.4 0 0 1 0 6.5zM4.75 16c0-1.101.16-2.196.479-3.25h5.289a19.9 19.9 0 0 0 0 6.5h-5.29A11.2 11.2 0 0 1 4.75 16M16 4.75a.22.22 0 0 1 .165.074c1.61 1.734 2.793 3.96 3.46 6.426h-7.25c.668-2.466 1.85-4.692 3.46-6.426A.22.22 0 0 1 16 4.75m-2.242.225a17.4 17.4 0 0 0-2.932 6.275H5.804a11.29 11.29 0 0 1 7.954-6.275M5.804 20.75h5.022a17.4 17.4 0 0 0 2.932 6.275 11.29 11.29 0 0 1-7.954-6.275m12.438 6.275a17.4 17.4 0 0 0 2.932-6.275h5.022a11.29 11.29 0 0 1-7.954 6.275"/></svg>