<svg xmlns="http://www.w3.org/2000/svg" width="32" height="32" fill="none" viewBox="0 0 32 32"><path fill="#000" d="M16 3.25A12.75 12.75 0 1 0 28.75 16 12.765 12.765 0 0 0 16 3.25M27.25 16a11.2 11.2 0 0 1-.933 4.483l-5.836-3.59a1.75 1.75 0 0 0-.682-.25l-2.853-.383a1.76 1.76 0 0 0-1.814.99h-1.24a.25.25 0 0 1-.224-.141l-.475-.983a1.74 1.74 0 0 0-1.208-.949l-1.339-.287 1.154-2.015a.25.25 0 0 1 .217-.125h2.09c.295 0 .586-.075.844-.219l1.532-.844a2 2 0 0 0 .327-.234l3.364-3.042a1.74 1.74 0 0 0 .354-2.151l-.403-.729A11.27 11.27 0 0 1 27.25 16M18.075 4.942l1.144 2.05a.25.25 0 0 1-.052.307l-3.363 3.041a.2.2 0 0 1-.046.034l-1.532.845a.25.25 0 0 1-.125.031h-2.084a1.75 1.75 0 0 0-1.517.875l-1.352 2.364a.3.3 0 0 1-.024-.044l-1.436-3.834a.25.25 0 0 1 0-.185l1.397-3.293a11.24 11.24 0 0 1 8.99-2.19M4.75 16a11.2 11.2 0 0 1 1.423-5.471c0 .208.037.414.11.608l1.437 3.834a1.74 1.74 0 0 0 1.27 1.098l2.68.575a.25.25 0 0 1 .172.136l.476.982a1.76 1.76 0 0 0 1.575.988h.57L13.4 21.125a1.75 1.75 0 0 0 .314 1.9l.012.014 2.46 2.532a.25.25 0 0 1 .058.213l-.283 1.466A11.26 11.26 0 0 1 4.75 16m12.76 11.149.209-1.075a1.76 1.76 0 0 0-.434-1.52l-.012-.014-2.46-2.532a.25.25 0 0 1-.042-.268l1.713-3.841a.25.25 0 0 1 .266-.149l2.852.385a.3.3 0 0 1 .098.034l5.925 3.65a11.27 11.27 0 0 1-8.115 5.33"/></svg>