<svg xmlns="http://www.w3.org/2000/svg" width="32" height="32" fill="none" viewBox="0 0 32 32"><path fill="#000" d="M31.75 17A8.76 8.76 0 0 0 23 8.25H9A8.76 8.76 0 0 0 .25 17a2.75 2.75 0 0 0 2.085 2.669c.257 1.03 1.106 2.007 2.455 2.805C6.139 23.27 7.734 23.75 9 23.75a4.76 4.76 0 0 0 4.69-4h4.625a4.756 4.756 0 0 0 4.685 4c1.266 0 2.875-.489 4.21-1.276 1.335-.788 2.197-1.775 2.455-2.805A2.75 2.75 0 0 0 31.75 17M5.554 21.183C4.407 20.5 3.75 19.709 3.75 19c0-.83.846-1.649 1.931-2.258l5.024 5.023A3.23 3.23 0 0 1 9 22.25c-.982 0-2.367-.429-3.446-1.067m6.211-.478-4.61-4.611A6.1 6.1 0 0 1 9 15.75a3.25 3.25 0 0 1 2.765 4.955M19.75 19c0-.847.331-1.66.924-2.266l4.895 4.891c-.884.384-1.829.625-2.569.625A3.25 3.25 0 0 1 19.75 19m7.183 1.875-4.957-4.955A3.2 3.2 0 0 1 23 15.75c.983 0 2.367.429 3.446 1.067 1.146.683 1.804 1.474 1.804 2.183 0 .665-.544 1.323-1.317 1.875m2.663-2.773c-.321-.945-1.14-1.835-2.386-2.572-1.335-.791-2.944-1.28-4.21-1.28a4.76 4.76 0 0 0-4.69 4h-4.625a4.756 4.756 0 0 0-4.685-4c-1.266 0-2.875.489-4.21 1.276-1.25.738-2.065 1.625-2.386 2.573A1.25 1.25 0 0 1 1.75 17 7.26 7.26 0 0 1 9 9.75h14A7.26 7.26 0 0 1 30.25 17a1.25 1.25 0 0 1-.654 1.099z"/></svg>