<svg xmlns="http://www.w3.org/2000/svg" width="32" height="32" fill="none" viewBox="0 0 32 32"><path fill="#000" d="M28 6.25H4A1.75 1.75 0 0 0 2.25 8v16A1.75 1.75 0 0 0 4 25.75h7.586a1.74 1.74 0 0 0 1.238-.512l3-3a.25.25 0 0 1 .352 0l3 3a1.74 1.74 0 0 0 1.238.512H28A1.75 1.75 0 0 0 29.75 24V8A1.75 1.75 0 0 0 28 6.25M28.25 24a.25.25 0 0 1-.25.25h-7.586a.25.25 0 0 1-.177-.073l-3-3a1.75 1.75 0 0 0-2.474 0l-3 3a.25.25 0 0 1-.177.074H4a.25.25 0 0 1-.25-.25V8A.25.25 0 0 1 4 7.75h24a.25.25 0 0 1 .25.25zM10 12.25a3.75 3.75 0 1 0 0 7.5 3.75 3.75 0 0 0 0-7.5m0 6a2.25 2.25 0 1 1 0-4.5 2.25 2.25 0 0 1 0 4.5m12-6a3.75 3.75 0 1 0 0 7.5 3.75 3.75 0 0 0 0-7.5m0 6a2.25 2.25 0 1 1 0-4.5 2.25 2.25 0 0 1 0 4.5"/></svg>