<svg xmlns="http://www.w3.org/2000/svg" width="32" height="32" fill="none" viewBox="0 0 32 32"><path fill="#000" d="M16.75 2v4a.75.75 0 1 1-1.5 0V2a.75.75 0 1 1 1.5 0M22 7.25a.75.75 0 0 0-.75.75v4a.75.75 0 1 0 1.5 0V8a.75.75 0 0 0-.75-.75m-6 18a.75.75 0 0 0-.75.75v4a.75.75 0 1 0 1.5 0v-4a.75.75 0 0 0-.75-.75m0-15a.75.75 0 0 0-.75.75v10a.75.75 0 1 0 1.5 0V11a.75.75 0 0 0-.75-.75m-6-3a.75.75 0 0 0-.75.75v7a.75.75 0 1 0 1.5 0V8a.75.75 0 0 0-.75-.75m12 9a.75.75 0 0 0-.75.75v7a.75.75 0 1 0 1.5 0v-7a.75.75 0 0 0-.75-.75m-18-3a.75.75 0 0 0-.75.75v4a.75.75 0 1 0 1.5 0v-4a.75.75 0 0 0-.75-.75m6 6a.75.75 0 0 0-.75.75v4a.75.75 0 1 0 1.5 0v-4a.75.75 0 0 0-.75-.75m18-6a.75.75 0 0 0-.75.75v4a.75.75 0 1 0 1.5 0v-4a.75.75 0 0 0-.75-.75"/></svg>