<svg xmlns="http://www.w3.org/2000/svg" width="32" height="32" fill="none" viewBox="0 0 32 32"><path fill="#000" d="M29.487 19.103 20.93 5.073a1.74 1.74 0 0 0-1.484-.823h-6.891a1.74 1.74 0 0 0-1.484.823v.006L2.516 19.095a1.75 1.75 0 0 0-.035 1.796l3.415 5.984a1.75 1.75 0 0 0 1.519.875h17.169a1.75 1.75 0 0 0 1.52-.875l3.415-5.977a1.75 1.75 0 0 0-.032-1.796m-1.667.147h-6.396l-4.55-7.584 3.136-5.223zm-15.5 0L16 13.125l3.675 6.125zm8.25 1.5 3.305 5.5H8.125l3.3-5.5zM16 10.209 13.325 5.75h5.35zM11.99 6.443l3.134 5.223-4.55 7.584H4.179zM4.125 20.75h5.55l-2.841 4.736zm21.037 4.736-2.838-4.736h5.55z"/></svg>