<svg xmlns="http://www.w3.org/2000/svg" width="32" height="32" fill="none" viewBox="0 0 32 32"><path fill="#000" d="m31.353 11.339-15-8a.74.74 0 0 0-.705 0l-15 8a.75.75 0 0 0 0 1.322l3.602 1.923v6.202c0 .43.158.845.444 1.165C6.303 23.742 9.91 26.75 16 26.75c2.144.02 4.27-.394 6.25-1.216V30a.75.75 0 1 0 1.5 0v-5.206a14.2 14.2 0 0 0 3.556-2.844c.287-.32.445-.734.444-1.164v-6.202l3.603-1.923a.751.751 0 0 0 0-1.322M16 25.25c-5.5 0-8.75-2.695-10.19-4.301a.25.25 0 0 1-.06-.163v-5.402l9.898 5.277a.75.75 0 0 0 .705 0l5.897-3.145v6.375c-1.625.778-3.694 1.359-6.25 1.359m10.25-4.464a.25.25 0 0 1-.06.163c-.72.798-1.54 1.5-2.44 2.089v-6.322l2.5-1.332zm-2.769-5.625a1 1 0 0 0-.125-.088l-7-3.733a.75.75 0 0 0-.705 1.322L21.906 16 16 19.15 2.594 12 16 4.85 29.406 12z"/></svg>