<svg xmlns="http://www.w3.org/2000/svg" width="32" height="32" fill="none" viewBox="0 0 32 32"><path fill="#000" d="M3.25 13a.75.75 0 0 1 .75-.75h10a.75.75 0 1 1 0 1.5H4a.75.75 0 0 1-.75-.75M28 12.25H18a.75.75 0 1 0 0 1.5h10a.75.75 0 1 0 0-1.5m-19 5H4a.75.75 0 1 0 0 1.5h5a.75.75 0 1 0 0-1.5m19 0h-5a.75.75 0 1 0 0 1.5h5a.75.75 0 1 0 0-1.5M12.25 18a.75.75 0 0 0 .75.75h6a.75.75 0 1 0 0-1.5h-6a.75.75 0 0 0-.75.75M7 22.25H4a.75.75 0 1 0 0 1.5h3a.75.75 0 1 0 0-1.5m7 0h-3a.75.75 0 1 0 0 1.5h3a.75.75 0 1 0 0-1.5m7 0h-3a.75.75 0 1 0 0 1.5h3a.75.75 0 1 0 0-1.5m7 0h-3a.75.75 0 1 0 0 1.5h3a.75.75 0 1 0 0-1.5M4 8.75h24a.75.75 0 1 0 0-1.5H4a.75.75 0 0 0 0 1.5"/></svg>