<svg xmlns="http://www.w3.org/2000/svg" width="32" height="32" fill="none" viewBox="0 0 32 32"><path fill="#000" d="M6.555 4.5a.75.75 0 0 0-1.11 1l1.637 1.801A11 11 0 0 0 6 7.25a.75.75 0 0 0-.75.75v10A10.763 10.763 0 0 0 16 28.75a10.73 10.73 0 0 0 7.66-3.209l1.785 1.959a.75.75 0 1 0 1.11-1.01zm2.229 4.678 8.575 9.43A10.7 10.7 0 0 0 16 21.063a10.77 10.77 0 0 0-9.25-6.783v-5.5c.69.055 1.373.189 2.034.399M15.25 27.22A9.263 9.263 0 0 1 6.75 18v-2.22a9.263 9.263 0 0 1 8.5 9.22zm1.5 0V25a9.26 9.26 0 0 1 1.64-5.25l4.258 4.684a9.23 9.23 0 0 1-5.898 2.786M26.75 8v10c0 .966-.13 1.927-.385 2.859a.75.75 0 1 1-1.446-.398c.22-.801.332-1.63.331-2.461v-2.22a9.1 9.1 0 0 0-3.433.97.748.748 0 0 1-1.087-.61.75.75 0 0 1 .407-.728 10.6 10.6 0 0 1 4.113-1.133v-5.5a9.29 9.29 0 0 0-6.75 3.799.75.75 0 1 1-1.215-.875 10.8 10.8 0 0 1 3.262-2.963c-1.206-2.699-3.657-4.346-4.55-4.875A12.7 12.7 0 0 0 12.88 6.49a.751.751 0 1 1-1.145-.969 13.8 13.8 0 0 1 3.925-3.183.75.75 0 0 1 .67 0c.166.083 3.849 1.96 5.561 5.74A10.7 10.7 0 0 1 26 7.25a.75.75 0 0 1 .75.75"/></svg>