<svg xmlns="http://www.w3.org/2000/svg" width="32" height="32" fill="none" viewBox="0 0 32 32"><path fill="#000" d="M26 7.25a10.7 10.7 0 0 0-4.105.816C20.181 4.29 16.5 2.412 16.335 2.33a.75.75 0 0 0-.67 0c-.166.083-3.846 1.96-5.56 5.737A10.7 10.7 0 0 0 6 7.25a.75.75 0 0 0-.75.75v10a10.75 10.75 0 1 0 21.5 0V8a.75.75 0 0 0-.75-.75M15.25 27.22A9.263 9.263 0 0 1 6.75 18v-2.22a9.263 9.263 0 0 1 8.5 9.22zm0-7.689a10.76 10.76 0 0 0-8.5-5.25v-5.5A9.263 9.263 0 0 1 15.25 18zM11.448 8.74c1.207-2.7 3.658-4.348 4.552-4.875.895.531 3.345 2.178 4.551 4.875A10.8 10.8 0 0 0 16 14.062a10.8 10.8 0 0 0-4.552-5.323M25.25 18a9.263 9.263 0 0 1-8.5 9.22V25a9.263 9.263 0 0 1 8.5-9.22zm0-3.721a10.76 10.76 0 0 0-8.5 5.25V18a9.264 9.264 0 0 1 8.5-9.22z"/></svg>