<svg xmlns="http://www.w3.org/2000/svg" width="32" height="32" fill="none" viewBox="0 0 32 32"><path fill="#000" d="M25 19.25c-.894 0-1.76.32-2.437.904l-3.203-2.491a3.73 3.73 0 0 0 .363-2.113l2.027-.675a3.75 3.75 0 1 0-.472-1.425l-2.028.675a3.74 3.74 0 0 0-4.052-1.789L14.18 10.05a3.75 3.75 0 1 0-1.375.61l1.018 2.287a3.74 3.74 0 0 0-1.065 4.929L9.25 21a3.76 3.76 0 1 0 1 1.125L13.75 19a3.74 3.74 0 0 0 4.684-.154l3.203 2.491A3.75 3.75 0 1 0 25 19.25m0-8.5a2.25 2.25 0 1 1 0 4.5 2.25 2.25 0 0 1 0-4.5M9.75 7a2.25 2.25 0 1 1 4.5 0 2.25 2.25 0 0 1-4.5 0M7 26.25a2.25 2.25 0 1 1 0-4.499 2.25 2.25 0 0 1 0 4.499m9-8a2.25 2.25 0 1 1 0-4.499 2.25 2.25 0 0 1 0 4.499m9 7a2.25 2.25 0 1 1 0-4.499 2.25 2.25 0 0 1 0 4.499"/></svg>