<svg xmlns="http://www.w3.org/2000/svg" width="32" height="32" fill="none" viewBox="0 0 32 32"><path fill="#000" d="M27 6.25H5A1.75 1.75 0 0 0 3.25 8v16A1.75 1.75 0 0 0 5 25.75h22A1.75 1.75 0 0 0 28.75 24V8A1.75 1.75 0 0 0 27 6.25m-14.25 12v-4.5h6.5v4.5zm6.5 1.5v4.5h-6.5v-4.5zm-14.5-6h6.5v4.5h-6.5zm8-1.5v-4.5h6.5v4.5zm8 1.5h6.5v4.5h-6.5zM27.25 8v4.25h-6.5v-4.5H27a.25.25 0 0 1 .25.25M5 7.75h6.25v4.5h-6.5V8A.25.25 0 0 1 5 7.75M4.75 24v-4.25h6.5v4.5H5a.25.25 0 0 1-.25-.25m22.25.25h-6.25v-4.5h6.5V24a.25.25 0 0 1-.25.25"/></svg>