<svg xmlns="http://www.w3.org/2000/svg" width="32" height="32" fill="none" viewBox="0 0 32 32"><path fill="#000" d="m30.53 5.47-4-4a.75.75 0 0 0-1.088 1.026l-7.83 7.832c-2.794-1.526-5.95-1.453-7.84.442a5 5 0 0 0-1.126 1.711 1.28 1.28 0 0 1-1.162.769c-1.758.06-3.284.688-4.413 1.816C1.625 16.523 1 18.625 1.34 20.974c.325 2.276 1.507 4.526 3.331 6.355 1.824 1.828 4.079 3.006 6.355 3.331q.615.09 1.235.09c1.849 0 3.477-.625 4.669-1.821 1.125-1.125 1.756-2.654 1.816-4.413a1.28 1.28 0 0 1 .773-1.168 5 5 0 0 0 1.711-1.12c1.89-1.89 1.968-5.046.442-7.84l7.828-7.83a.75.75 0 0 0 1.027-1.088zM25 8.939 23.061 7 26.5 3.56l1.94 1.94zm-4.83 12.23a3.5 3.5 0 0 1-1.204.784 2.78 2.78 0 0 0-1.716 2.512c-.046 1.375-.523 2.549-1.375 3.403-1.111 1.11-2.75 1.576-4.625 1.307-1.956-.279-3.911-1.311-5.508-2.906s-2.625-3.551-2.906-5.508c-.269-1.875.196-3.52 1.308-4.631.853-.855 2.031-1.331 3.402-1.375a2.78 2.78 0 0 0 2.513-1.72c.176-.45.442-.86.784-1.203.722-.736 1.728-1.082 2.837-1.082.98.016 1.943.25 2.82.686l-2.825 2.829a3.75 3.75 0 1 0 4.06 4.06l2.83-2.825c1.014 2.102.935 4.335-.395 5.669m-1.295-8.044q.488.488.896 1.044L17.437 16.5a3.77 3.77 0 0 0-1.937-1.937l2.328-2.328q.556.405 1.047.89M14 15.75a2.25 2.25 0 1 1 0 4.5 2.25 2.25 0 0 1 0-4.5m5.929-3.68q-.488-.486-1.034-.904L22 8.06 23.94 10l-3.105 3.104q-.418-.547-.905-1.035zm-8.399 12.4a.75.75 0 1 1-1.061 1.06l-4-4a.75.75 0 0 1 1.06-1.06z"/></svg>