<svg xmlns="http://www.w3.org/2000/svg" width="32" height="32" fill="none" viewBox="0 0 32 32"><path fill="#000" d="m31.24 14.175-8.431-8.489a11.765 11.765 0 0 0-16.625.008L4.46 7.473a.75.75 0 1 0 1.079 1.043L7.25 6.75A10.3 10.3 0 0 1 9.82 4.875L15.944 11 3.76 23.175a1.75 1.75 0 0 0 0 2.476l2.587 2.587a1.75 1.75 0 0 0 2.475 0L21 16.058l4.177 4.177a1.75 1.75 0 0 0 2.476 0l3.585-3.586a1.75 1.75 0 0 0 .002-2.474M7.763 27.176a.25.25 0 0 1-.354 0L4.823 24.59a.25.25 0 0 1 0-.354l8.677-8.679 2.939 2.943zm12.707-12.71-2.97 2.97-2.94-2.936 2.97-2.97a.75.75 0 0 0 0-1.061L11.318 4.25a10.26 10.26 0 0 1 10.432 2.5l5.703 5.741-3.953 3.945-1.97-1.97a.75.75 0 0 0-1.06 0m9.708 1.125L26.59 19.18a.25.25 0 0 1-.354 0L24.562 17.5l3.945-3.946 1.671 1.682a.25.25 0 0 1 0 .351z"/></svg>