<svg xmlns="http://www.w3.org/2000/svg" width="32" height="32" fill="none" viewBox="0 0 32 32"><path fill="#000" d="M23.5 11.25c-.65 0-1.286.195-1.823.561a3.25 3.25 0 0 0-4.927-2.049V5.5a3.25 3.25 0 1 0-6.5 0v10.875l-.941-1.512a3.25 3.25 0 0 0-5.625 3.258l.584 1.032c4.25 7.5 6.009 10.596 11.732 10.596a10.763 10.763 0 0 0 10.75-10.75V14.5a3.25 3.25 0 0 0-3.25-3.25M25.25 19A9.26 9.26 0 0 1 16 28.25c-4.85 0-6.25-2.479-10.427-9.836l-.587-1.039a1.75 1.75 0 1 1 3.033-1.75l.012.021 2.335 3.75A.75.75 0 0 0 11.75 19V5.5a1.75 1.75 0 0 1 3.5 0V14a.75.75 0 0 0 1.5 0v-1.5a1.75 1.75 0 0 1 3.5 0V15a.75.75 0 0 0 1.5 0v-.5a1.75 1.75 0 0 1 3.5 0z"/></svg>