<svg xmlns="http://www.w3.org/2000/svg" width="32" height="32" fill="none" viewBox="0 0 32 32"><path fill="#000" d="M23.5 10.25a3.23 3.23 0 0 0-1.824.561A3.25 3.25 0 0 0 16 9.426a3.25 3.25 0 0 0-5.75 2.074v2.75H8.5a3.25 3.25 0 0 0-3.25 3.25V19a10.75 10.75 0 1 0 21.5 0v-5.5a3.25 3.25 0 0 0-3.25-3.25M25.25 19a9.25 9.25 0 0 1-18.5 0v-1.5a1.75 1.75 0 0 1 1.75-1.75h1.75V19a.75.75 0 1 0 1.5 0v-7.5a1.75 1.75 0 0 1 3.5 0V15a.75.75 0 1 0 1.5 0v-3.5a1.75 1.75 0 0 1 3.5 0V15a.75.75 0 1 0 1.5 0v-1.5a1.75 1.75 0 0 1 3.5 0z"/></svg>