<svg xmlns="http://www.w3.org/2000/svg" width="32" height="32" fill="none" viewBox="0 0 32 32"><path fill="#000" d="M25.75 17.5V22c0 3.141-1.035 5.25-1.08 5.335a.75.75 0 0 1-1.005.335.75.75 0 0 1-.335-1c.009-.017.921-1.899.921-4.665V17.5a1.75 1.75 0 1 0-3.5 0v.5a.75.75 0 0 1-1.5 0v-2.5a1.75 1.75 0 1 0-3.5 0V17a.75.75 0 0 1-1.5 0V8.5a1.75 1.75 0 0 0-3.5 0V22a.75.75 0 0 1-1.386.396l-2.335-3.75-.012-.02a1.75 1.75 0 1 0-3.032 1.75l3.662 6.25a.75.75 0 1 1-1.297.75l-3.665-6.25a3.252 3.252 0 0 1 5.625-3.267l.94 1.516V8.5a3.25 3.25 0 0 1 6.5 0v4.263a3.25 3.25 0 0 1 4.927 2.048 3.25 3.25 0 0 1 5.072 2.69m4.78-11.03-4-4a.75.75 0 0 0-1.06 1.06l2.719 2.72H21a.75.75 0 1 0 0 1.5h7.189l-2.719 2.72a.75.75 0 1 0 1.06 1.06l4-4a.75.75 0 0 0 0-1.06"/></svg>