<svg xmlns="http://www.w3.org/2000/svg" width="32" height="32" fill="none" viewBox="0 0 32 32"><path fill="#000" d="M17.25 21a1.25 1.25 0 1 1-2.5 0 1.25 1.25 0 0 1 2.5 0m9.5-6.5V19a10.75 10.75 0 1 1-21.5 0V9.5a3.25 3.25 0 0 1 5-2.736V5.5a3.25 3.25 0 0 1 6.426-.689A3.25 3.25 0 0 1 21.75 7.5v4.264a3.249 3.249 0 0 1 5 2.736m-1.5 0a1.75 1.75 0 0 0-3.5 0v.5a.75.75 0 1 1-1.5 0V7.5a1.75 1.75 0 0 0-3.5 0V13a.75.75 0 1 1-1.5 0V5.5a1.75 1.75 0 0 0-3.5 0V14a.75.75 0 1 1-1.5 0V9.5a1.75 1.75 0 0 0-3.5 0V19a9.25 9.25 0 0 0 18.5 0zm-2.579 6.165a.75.75 0 0 1 0 .67c-.09.18-2.258 4.415-6.671 4.415-4.412 0-6.581-4.235-6.671-4.415a.75.75 0 0 1 0-.67c.09-.18 2.258-4.415 6.671-4.415s6.581 4.235 6.671 4.415M21.135 21c-.558-.89-2.301-3.25-5.135-3.25s-4.581 2.356-5.135 3.25c.557.891 2.301 3.25 5.135 3.25s4.581-2.356 5.135-3.25"/></svg>