<svg xmlns="http://www.w3.org/2000/svg" width="32" height="32" fill="none" viewBox="0 0 32 32"><path fill="#000" d="M25 10.25h-2.25V8A3.75 3.75 0 0 0 16 5.75 3.75 3.75 0 0 0 9.25 8a3.75 3.75 0 0 0-6 3v5a12.75 12.75 0 0 0 25.5 0v-2A3.75 3.75 0 0 0 25 10.25m-6-4.5A2.25 2.25 0 0 1 21.25 8v2.25H17a2 2 0 0 0-.25.02V8A2.25 2.25 0 0 1 19 5.75M10.75 8a2.25 2.25 0 0 1 4.5 0v5a2.25 2.25 0 0 1-4.5 0zm-6 3a2.25 2.25 0 0 1 4.5 0v2a2.25 2.25 0 0 1-4.5 0zm22.5 5a11.25 11.25 0 0 1-22.5 0 3.75 3.75 0 0 0 5.25-.75 3.75 3.75 0 0 0 5.64.412 3.77 3.77 0 0 0 1.86 1.777A5.74 5.74 0 0 0 15.25 22a.75.75 0 1 0 1.5 0A4.25 4.25 0 0 1 21 17.75a.75.75 0 1 0 0-1.5h-2A2.25 2.25 0 0 1 16.75 14v-2a.25.25 0 0 1 .25-.25h8A2.25 2.25 0 0 1 27.25 14z"/></svg>