<svg xmlns="http://www.w3.org/2000/svg" width="32" height="32" fill="none" viewBox="0 0 32 32"><path fill="#000" d="M6.25 9.5a7.25 7.25 0 1 1 14.5 0 .75.75 0 1 1-1.5 0 5.75 5.75 0 0 0-11.5 0 .75.75 0 1 1-1.5 0m17.25 5.75c-.65 0-1.286.195-1.824.561a3.25 3.25 0 0 0-4.926-2.049V9.5a3.25 3.25 0 1 0-6.5 0v10.875l-.941-1.512a3.252 3.252 0 0 0-5.625 3.266l3.665 6.25a.75.75 0 0 0 1.296-.754l-3.661-6.25a1.75 1.75 0 1 1 3.043-1.729l2.335 3.75A.75.75 0 0 0 11.75 23V9.5a1.75 1.75 0 0 1 3.5 0V18a.75.75 0 1 0 1.5 0v-1.5a1.75 1.75 0 0 1 3.5 0V19a.75.75 0 1 0 1.5 0v-.5a1.75 1.75 0 0 1 3.5 0V23c0 2.766-.913 4.648-.921 4.665a.75.75 0 0 0 .336 1 .73.73 0 0 0 .73-.027.75.75 0 0 0 .277-.303c.044-.088 1.08-2.194 1.08-5.335v-4.5a3.25 3.25 0 0 0-3.252-3.25"/></svg>