<svg xmlns="http://www.w3.org/2000/svg" width="32" height="32" fill="none" viewBox="0 0 32 32"><path fill="#000" d="M28.64 17.831a2.8 2.8 0 0 0-2.444-.485l-5.655 1.3A3.25 3.25 0 0 0 17.5 14.25h-6.257a3.72 3.72 0 0 0-2.652 1.099L5.69 18.25H2A1.75 1.75 0 0 0 .25 20v5A1.75 1.75 0 0 0 2 26.75h13a.8.8 0 0 0 .182-.023l8-2a1 1 0 0 0 .112-.037l4.852-2.065.041-.019a2.826 2.826 0 0 0 .453-4.772zM1.75 25v-5a.25.25 0 0 1 .25-.25h3.25v5.5H2a.25.25 0 0 1-.25-.25m25.785-3.75-4.775 2.034-7.853 1.966H6.75v-5.939l2.901-2.902a2.23 2.23 0 0 1 1.592-.659H17.5a1.75 1.75 0 0 1 0 3.5H14a.75.75 0 1 0 0 1.5h4a.8.8 0 0 0 .168-.019l8.375-1.926.03-.008a1.325 1.325 0 0 1 .962 2.453m-7.035-9.5q.46 0 .91-.098a4.25 4.25 0 1 0 3.183-5.303A4.25 4.25 0 1 0 20.5 11.75m7.75-1.25a2.75 2.75 0 1 1-5.5 0 2.75 2.75 0 0 1 5.5 0M20.5 4.75a2.74 2.74 0 0 1 2.689 2.186 4.25 4.25 0 0 0-1.923 3.207A2.75 2.75 0 1 1 20.5 4.75"/></svg>