<svg xmlns="http://www.w3.org/2000/svg" width="32" height="32" fill="none" viewBox="0 0 32 32"><path fill="#000" d="m29.738 24.795-1.782-15a1.76 1.76 0 0 0-1.75-1.545H21.75V8a5.75 5.75 0 0 0-11.5 0v.25H5.791a1.76 1.76 0 0 0-1.75 1.545l-1.78 15a1.75 1.75 0 0 0 1.75 1.955h23.98a1.752 1.752 0 0 0 1.75-1.955zM11.75 8a4.25 4.25 0 0 1 8.5 0v.25h-8.5zm16.438 17.163a.26.26 0 0 1-.198.087H4.01a.26.26 0 0 1-.249-.176.24.24 0 0 1-.01-.103l1.783-15a.25.25 0 0 1 .257-.221h4.46V13a.75.75 0 1 0 1.5 0V9.75h8.5V13a.75.75 0 1 0 1.5 0V9.75h4.458a.25.25 0 0 1 .257.221l1.783 15a.24.24 0 0 1-.061.192"/></svg>