<svg xmlns="http://www.w3.org/2000/svg" width="32" height="32" fill="none" viewBox="0 0 32 32"><path fill="#000" d="M22.75 12.31V11A3.75 3.75 0 0 0 19 7.25h-2.25v-3.5H21A1.25 1.25 0 0 1 22.25 5a.75.75 0 1 0 1.5 0A2.75 2.75 0 0 0 21 2.25h-8a.75.75 0 1 0 0 1.5h2.25v3.5H13A3.75 3.75 0 0 0 9.25 11v1.31a4.756 4.756 0 0 0-4 4.69v10A1.75 1.75 0 0 0 7 28.75h18A1.75 1.75 0 0 0 26.75 27V17a4.76 4.76 0 0 0-4-4.69M13 8.75h6A2.25 2.25 0 0 1 21.25 11v1.25h-10.5V11A2.25 2.25 0 0 1 13 8.75M25.25 27a.25.25 0 0 1-.25.25H7a.25.25 0 0 1-.25-.25V17A3.25 3.25 0 0 1 10 13.75h12A3.25 3.25 0 0 1 25.25 17z"/></svg>