<svg xmlns="http://www.w3.org/2000/svg" width="32" height="32" fill="none" viewBox="0 0 32 32"><path fill="#000" d="M28.64 17.831a2.8 2.8 0 0 0-2.444-.485l-.54.125C28.375 14.944 29.75 12.44 29.75 10c0-3.17-2.549-5.75-5.683-5.75A5.69 5.69 0 0 0 19.5 6.5a5.69 5.69 0 0 0-4.568-2.25C11.8 4.25 9.25 6.83 9.25 10c0 1.422.454 2.811 1.411 4.295-.785.121-1.51.49-2.07 1.054L5.69 18.25H2A1.75 1.75 0 0 0 .25 20v5A1.75 1.75 0 0 0 2 26.75h13a.8.8 0 0 0 .182-.023l8-2a1 1 0 0 0 .112-.037l4.852-2.065.041-.019a2.825 2.825 0 0 0 .453-4.772zM14.932 5.75a4.145 4.145 0 0 1 3.876 2.535.75.75 0 0 0 1.387 0A4.145 4.145 0 0 1 24.07 5.75c2.265 0 4.18 1.946 4.18 4.25 0 2.53-2.023 5.375-5.85 8.219l-1.859.427A3.25 3.25 0 0 0 17.5 14.25h-5.041c-1.164-1.541-1.709-2.899-1.709-4.25 0-2.304 1.915-4.25 4.182-4.25M1.75 25v-5a.25.25 0 0 1 .25-.25h3.25v5.5H2a.25.25 0 0 1-.25-.25m25.785-3.75-4.775 2.034-7.853 1.966H6.75v-5.939l2.901-2.902a2.24 2.24 0 0 1 1.592-.659H17.5a1.75 1.75 0 0 1 0 3.5H14a.75.75 0 1 0 0 1.5h4a.7.7 0 0 0 .168-.019l8.375-1.926.03-.008a1.325 1.325 0 0 1 .962 2.453"/></svg>