<svg xmlns="http://www.w3.org/2000/svg" width="32" height="32" fill="none" viewBox="0 0 32 32"><path fill="#000" d="M23.5 11.25c-.62 0-1.228.178-1.75.514V7.5a3.25 3.25 0 0 0-5.074-2.689 3.25 3.25 0 0 0-6.426.689v1.264a3.25 3.25 0 0 0-5 2.736V19a10.75 10.75 0 1 0 21.5 0v-4.5a3.25 3.25 0 0 0-3.25-3.25M25.25 19a9.25 9.25 0 0 1-18.5 0V9.5a1.75 1.75 0 1 1 3.5 0V15a.75.75 0 1 0 1.5 0V5.5a1.75 1.75 0 0 1 3.5 0V14a.75.75 0 1 0 1.5 0V7.5a1.75 1.75 0 0 1 3.5 0v8.799a5.76 5.76 0 0 0-5 5.701.75.75 0 1 0 1.5 0A4.25 4.25 0 0 1 21 17.75a.75.75 0 0 0 .75-.75v-2.5a1.75 1.75 0 0 1 3.5 0z"/></svg>