<svg xmlns="http://www.w3.org/2000/svg" width="32" height="32" fill="none" viewBox="0 0 32 32"><path fill="#000" d="m29.238 22.678-4.574-4.576L20.089 3A2.468 2.468 0 0 0 16 1.953 2.47 2.47 0 0 0 11.911 3L7.336 18.103l-4.574 4.574a1.75 1.75 0 0 0 0 2.474l4.087 4.087a1.75 1.75 0 0 0 2.473 0l6.037-6.035a4.8 4.8 0 0 0 .641-.798q.278.433.641.797l6.037 6.035a1.75 1.75 0 0 0 2.473 0l4.087-4.086a1.75 1.75 0 0 0 0-2.474m-20.976 5.5a.25.25 0 0 1-.353 0L3.822 24.09a.25.25 0 0 1 0-.354l1.764-1.762 4.439 4.439zm6.035-6.037-3.21 3.213-4.44-4.44L8.53 19.03a.75.75 0 0 0 .187-.312L13.342 3.44a.973.973 0 0 1 1.908.283v16.125a3.23 3.23 0 0 1-.953 2.293m2.453-2.297V3.719a.972.972 0 0 1 1.902-.283l4.625 15.278c.036.118.1.225.188.312l1.991 1.993-4.535 4.342-3.223-3.224a3.23 3.23 0 0 1-.948-2.293m11.427 4.25-4.086 4.086a.25.25 0 0 1-.354 0l-1.75-1.75 4.537-4.343 1.655 1.654a.25.25 0 0 1-.002.35z"/></svg>