<svg xmlns="http://www.w3.org/2000/svg" width="32" height="32" fill="none" viewBox="0 0 32 32"><path fill="#000" d="M21.25 3V1a.75.75 0 1 1 1.5 0v2a.75.75 0 1 1-1.5 0m4.359 1.906a.75.75 0 0 0 1.03-.25l1-1.638a.75.75 0 1 0-1.28-.782l-1 1.639a.75.75 0 0 0 .25 1.031m5.562 1.865a.75.75 0 0 0-.944-.485l-1.875.607a.75.75 0 1 0 .46 1.427l1.875-.605a.75.75 0 0 0 .484-.944m-3.729 5.04a9.714 9.714 0 0 1-1.578 11.8 9.75 9.75 0 0 1-17.837 2.264l-4.375-7.579a3 3 0 0 1 2.6-4.5L5.55 12.58A3 3 0 0 1 7.98 8.089a3 3 0 0 1 4.964-3.282 3 3 0 0 1 5.225-.056L19.875 7.7a3 3 0 0 1 5.195 0zM14.272 7l.762 1.32c.242.215.447.468.607.75l1.704 2.945a3 3 0 0 1 2.42-1.5L16.875 5.5A1.5 1.5 0 1 0 14.276 7zm-4.897.519.762 1.32q.15.133.28.286a2.99 2.99 0 0 1 2.458-1.554l-.901-1.552a1.5 1.5 0 0 0-2.6 1.5M24.44 23.136a8.2 8.2 0 0 0-.824-6.261l-2.375-4.114a1.5 1.5 0 0 0-2.649 1.403l1.425 2.462a.75.75 0 1 1-1.298.75l-4.375-7.562a1.501 1.501 0 0 0-2.607 1.486l3.08 5.325a.75.75 0 1 1-1.3.75l-4.07-7.042a1.5 1.5 0 0 0-2.598 1.5l4.5 7.795a.75.75 0 0 1-1.3.75l-2.5-4.33a1.5 1.5 0 1 0-2.598 1.5l4.375 7.578a8.25 8.25 0 0 0 15.114-1.99m1.704-10.575-2.375-4.113a1.5 1.5 0 0 0-2.6 1.5l.763 1.32a3 3 0 0 1 .608.743l2.375 4.114a9.7 9.7 0 0 1 1.305 4.564 8.23 8.23 0 0 0-.076-8.128"/></svg>