<svg xmlns="http://www.w3.org/2000/svg" width="32" height="32" fill="none" viewBox="0 0 32 32"><path fill="#000" d="M23.275 3.806a.75.75 0 0 1 .919-.53c1.924.515 3.5 1.705 4.456 3.349a.75.75 0 0 1-1.3.75c-.75-1.298-2.007-2.239-3.544-2.65a.75.75 0 0 1-.53-.919M9.793 28.411c-1.2-.945-2.198-2.147-3.143-3.786a.75.75 0 0 0-1.3.75c1.045 1.809 2.161 3.148 3.514 4.214a.75.75 0 1 0 .929-1.178m18.59-7.625a10.765 10.765 0 0 1-10.367 7.964 10.8 10.8 0 0 1-2.8-.375 10.68 10.68 0 0 1-6.527-5l-4.75-8.227a3.25 3.25 0 0 1 2.96-4.875L6.274 9.18a3.25 3.25 0 0 1 5.216-3.806 3.25 3.25 0 0 1 5.738-.209l2.13 3.69a3.25 3.25 0 0 1 5.7-.125l2.25 3.898a10.68 10.68 0 0 1 1.075 8.152zm-2.375-7.407-2.25-3.898a1.75 1.75 0 1 0-3.032 1.75l1.25 2.165a.75.75 0 0 1-.273 1.025 4.25 4.25 0 0 0-1.557 5.805.75.75 0 1 1-1.298.75 5.76 5.76 0 0 1 1.48-7.437l-4.4-7.625a1.75 1.75 0 1 0-3.032 1.75l3.25 5.625a.75.75 0 1 1-1.298.75l-4.25-7.362a1.75 1.75 0 1 0-3.032 1.75l4.75 8.227a.75.75 0 1 1-1.298.75l-2.75-4.763a1.75 1.75 0 0 0-3.032 1.75l4.752 8.234a9.25 9.25 0 0 0 16.02-9.25z"/></svg>