<svg xmlns="http://www.w3.org/2000/svg" width="32" height="32" fill="none" viewBox="0 0 32 32"><path fill="#000" d="M26 17.25H6A1.75 1.75 0 0 0 4.25 19v6A1.75 1.75 0 0 0 6 26.75h20A1.75 1.75 0 0 0 27.75 25v-6A1.75 1.75 0 0 0 26 17.25m.25 7.75a.25.25 0 0 1-.25.25H6a.25.25 0 0 1-.25-.25v-6a.25.25 0 0 1 .25-.25h20a.25.25 0 0 1 .25.25zM26 5.25H6A1.75 1.75 0 0 0 4.25 7v6A1.75 1.75 0 0 0 6 14.75h20A1.75 1.75 0 0 0 27.75 13V7A1.75 1.75 0 0 0 26 5.25m.25 7.75a.25.25 0 0 1-.25.25H6a.25.25 0 0 1-.25-.25V7A.25.25 0 0 1 6 6.75h20a.25.25 0 0 1 .25.25zm-2.5-3a1.25 1.25 0 1 1-2.5 0 1.25 1.25 0 0 1 2.5 0m0 12a1.25 1.25 0 1 1-2.5 0 1.25 1.25 0 0 1 2.5 0"/></svg>