<svg xmlns="http://www.w3.org/2000/svg" width="32" height="32" fill="none" viewBox="0 0 32 32"><path fill="#000" d="M28 11.25h-6.375l1.111-6.116a.75.75 0 1 0-1.475-.268l-1.16 6.384h-6.476l1.111-6.116a.75.75 0 0 0-1.475-.268l-1.16 6.384H6a.75.75 0 1 0 0 1.5h5.829l-1.183 6.5H4a.75.75 0 1 0 0 1.5h6.375l-1.113 6.116a.75.75 0 0 0 .604.875q.067.01.134.009a.75.75 0 0 0 .736-.616L11.9 20.75h6.476l-1.111 6.116a.75.75 0 1 0 1.475.271l1.16-6.387H26a.75.75 0 1 0 0-1.5h-5.829l1.183-6.5H28a.75.75 0 1 0 0-1.5m-9.354 8h-6.475l1.183-6.5h6.475z"/></svg>