<svg xmlns="http://www.w3.org/2000/svg" width="32" height="32" fill="none" viewBox="0 0 32 32"><path fill="#000" d="M25.059 8.009a12.67 12.67 0 0 0-8.963-3.759H16A12.75 12.75 0 0 0 3.25 17v7A2.75 2.75 0 0 0 6 26.75h2A2.75 2.75 0 0 0 10.75 24v-5A2.75 2.75 0 0 0 8 16.25H4.775A11.265 11.265 0 0 1 24 9.065a11.18 11.18 0 0 1 3.226 7.185H24A2.75 2.75 0 0 0 21.25 19v5A2.75 2.75 0 0 0 24 26.75h2A2.75 2.75 0 0 0 28.75 24v-7a12.68 12.68 0 0 0-3.691-8.991M8 17.75A1.25 1.25 0 0 1 9.25 19v5A1.25 1.25 0 0 1 8 25.25H6A1.25 1.25 0 0 1 4.75 24v-6.25zM27.25 24A1.25 1.25 0 0 1 26 25.25h-2A1.25 1.25 0 0 1 22.75 24v-5A1.25 1.25 0 0 1 24 17.75h3.25z"/></svg>