<svg xmlns="http://www.w3.org/2000/svg" width="32" height="32" fill="none" viewBox="0 0 32 32"><path fill="#000" d="M20.25 10a.75.75 0 0 1 .75-.75h9a.75.75 0 1 1 0 1.5h-9a.75.75 0 0 1-.75-.75M30 21.25h-9a.75.75 0 1 0 0 1.5h9a.75.75 0 1 0 0-1.5m0-8h-9a.75.75 0 1 0 0 1.5h9a.75.75 0 1 0 0-1.5m0 4h-9a.75.75 0 1 0 0 1.5h9a.75.75 0 1 0 0-1.5M17.75 8v16A1.75 1.75 0 0 1 16 25.75h-5a9.75 9.75 0 0 1-9.75-9.824c.04-5.335 4.464-9.676 9.863-9.676H16A1.75 1.75 0 0 1 17.75 8m-1.5 0a.25.25 0 0 0-.25-.25h-4.887c-4.578 0-8.33 3.672-8.363 8.188A8.25 8.25 0 0 0 11 24.25h5a.25.25 0 0 0 .25-.25z"/></svg>