<svg xmlns="http://www.w3.org/2000/svg" width="32" height="32" fill="none" viewBox="0 0 32 32"><path fill="#000" d="M25.059 7.009a12.67 12.67 0 0 0-8.963-3.759H16A12.75 12.75 0 0 0 3.25 16v7A2.75 2.75 0 0 0 6 25.75h2A2.75 2.75 0 0 0 10.75 23v-5A2.75 2.75 0 0 0 8 15.25H4.775A11.25 11.25 0 0 1 16 4.75h.085a11.214 11.214 0 0 1 11.141 10.5H24A2.75 2.75 0 0 0 21.25 18v5A2.75 2.75 0 0 0 24 25.75h3.25V26A3.25 3.25 0 0 1 24 29.25h-7a.75.75 0 1 0 0 1.5h7A4.75 4.75 0 0 0 28.75 26V16a12.68 12.68 0 0 0-3.691-8.991M8 16.75A1.25 1.25 0 0 1 9.25 18v5A1.25 1.25 0 0 1 8 24.25H6A1.25 1.25 0 0 1 4.75 23v-6.25zM22.75 23v-5A1.25 1.25 0 0 1 24 16.75h3.25v7.5H24A1.25 1.25 0 0 1 22.75 23"/></svg>