<svg xmlns="http://www.w3.org/2000/svg" width="32" height="32" fill="none" viewBox="0 0 32 32"><path fill="#000" d="M9 16.75H4a.75.75 0 1 1 0-1.5h4.599l1.776-2.666a.75.75 0 0 1 1.25 0L15 17.648l1.375-2.064A.75.75 0 0 1 17 15.25h3a.75.75 0 1 1 0 1.5h-2.599l-1.776 2.666a.75.75 0 0 1-1.25 0L11 14.352l-1.375 2.064A.75.75 0 0 1 9 16.75m13.25-12.5c-2.625 0-4.907 1.184-6.25 3.168-1.342-1.984-3.625-3.168-6.25-3.168a7.51 7.51 0 0 0-7.5 7.5v.274a.75.75 0 1 0 1.5-.048v-.226a6.006 6.006 0 0 1 6-6c2.535 0 4.664 1.354 5.556 3.534a.75.75 0 0 0 1.388 0c.892-2.18 3.021-3.534 5.556-3.534a6.006 6.006 0 0 1 6 6c0 6.966-10.201 13.206-12.25 14.389-1.23-.708-5.386-3.228-8.52-6.645a.75.75 0 0 0-1.08-.07.75.75 0 0 0-.025 1.082c3.867 4.221 9.051 7.037 9.27 7.154a.75.75 0 0 0 .71 0 42 42 0 0 0 6.633-4.625c4.487-3.836 6.762-7.635 6.762-11.285a7.51 7.51 0 0 0-7.5-7.5"/></svg>