<svg xmlns="http://www.w3.org/2000/svg" width="32" height="32" fill="none" viewBox="0 0 32 32"><path fill="#000" d="M21.138 5.853a.752.752 0 0 0-.276-1.478c-2.074.391-3.78 1.478-4.862 3.05-1.338-1.987-3.625-3.175-6.25-3.175a7.51 7.51 0 0 0-7.5 7.5c0 3.65 2.275 7.449 6.762 11.289a42 42 0 0 0 6.633 4.625.74.74 0 0 0 .71 0 41 41 0 0 0 5.102-3.375.75.75 0 0 0-.915-1.189 43 43 0 0 1-3.792 2.595V9.16c.75-1.723 2.345-2.925 4.387-3.307m-5.888 19.84c-3.075-1.88-11.5-7.606-11.5-13.943a6.006 6.006 0 0 1 6-6c2.484 0 4.578 1.3 5.5 3.403zM29.041 11.75a1 1 0 0 1-.084 0 .75.75 0 0 1-.743-.668 5.99 5.99 0 0 0-2.631-4.322.752.752 0 0 1 .835-1.25 7.48 7.48 0 0 1 3.286 5.404.75.75 0 0 1-.663.836m-.457 4.59c-.698 1.4-1.719 2.831-3.033 4.25a.75.75 0 0 1-1.102-1.019c1.218-1.317 2.159-2.631 2.793-3.905a.75.75 0 1 1 1.342.67z"/></svg>