<svg xmlns="http://www.w3.org/2000/svg" width="32" height="32" fill="none" viewBox="0 0 32 32"><path fill="#000" d="M22.25 4.25a7.45 7.45 0 0 0-5.304 2.196L16 7.394l-.946-.948A7.5 7.5 0 0 0 2.25 11.75c0 3.65 2.275 7.449 6.762 11.289a42 42 0 0 0 6.633 4.625.75.75 0 0 0 .71 0 42 42 0 0 0 6.633-4.625c4.487-3.84 6.762-7.639 6.762-11.289a7.51 7.51 0 0 0-7.5-7.5M16 26.139C13.949 24.955 3.75 18.715 3.75 11.75a6 6 0 0 1 10.243-4.242l.946.946-1.469 1.47a.75.75 0 0 0 0 1.061l3.242 3.242-2.242 2.243a.75.75 0 0 0 1.06 1.06l2.774-2.773a.747.747 0 0 0 0-1.06l-3.243-3.243 2.947-2.946A6 6 0 0 1 28.25 11.75c0 6.965-10.199 13.205-12.25 14.389"/></svg>