<svg xmlns="http://www.w3.org/2000/svg" width="32" height="32" fill="none" viewBox="0 0 32 32"><path fill="#000" d="M22.25 4.25c-2.625 0-4.907 1.184-6.25 3.168-1.342-1.984-3.625-3.168-6.25-3.168a7.51 7.51 0 0 0-7.5 7.5c0 3.65 2.275 7.449 6.762 11.289a42 42 0 0 0 6.633 4.625.75.75 0 0 0 .71 0 42 42 0 0 0 6.633-4.625c4.487-3.84 6.762-7.639 6.762-11.289a7.51 7.51 0 0 0-7.5-7.5M16 26.139C13.949 24.955 3.75 18.715 3.75 11.75a6.006 6.006 0 0 1 6-6c2.535 0 4.664 1.354 5.556 3.534a.75.75 0 0 0 1.388 0c.892-2.18 3.021-3.534 5.556-3.534a6.006 6.006 0 0 1 6 6c0 6.965-10.199 13.205-12.25 14.389"/></svg>