<svg xmlns="http://www.w3.org/2000/svg" width="32" height="32" fill="none" viewBox="0 0 32 32"><path fill="#000" d="m28.816 20.768-6.441-1.452L8.53 5.47a.75.75 0 0 0-1.084.024C4.74 8.453 3.25 12.184 3.25 16v9A1.75 1.75 0 0 0 5 26.75h4A1.75 1.75 0 0 0 10.75 25v-6.544a14.38 14.38 0 0 1 6.468 7.212 1.74 1.74 0 0 0 1.625 1.082H30A1.75 1.75 0 0 0 31.75 25v-.591a3.716 3.716 0 0 0-2.934-3.641M9.25 25a.25.25 0 0 1-.25.25H5a.25.25 0 0 1-.25-.25v-8.227c1.543.076 3.064.407 4.5.977zm21 0a.25.25 0 0 1-.25.25H18.84a.25.25 0 0 1-.232-.147 15.8 15.8 0 0 0-5.698-7.082 15.64 15.64 0 0 0-8.14-2.75C4.934 12.333 6.075 9.48 8.039 7.1L21.47 20.53c.1.1.227.17.365.201l6.654 1.5a2.226 2.226 0 0 1 1.761 2.183z"/></svg>