<svg xmlns="http://www.w3.org/2000/svg" width="32" height="32" fill="none" viewBox="0 0 32 32"><path fill="#000" d="M25.015 6.984a12.751 12.751 0 1 0-18.03 18.031 12.75 12.75 0 1 0 18.03-18.031M11.75 26.42v-7.42a.25.25 0 0 1 .25-.25h8a.25.25 0 0 1 .25.25v7.42a11.3 11.3 0 0 1-8.5 0m6.5-9.17h-4.5v-4.787l4.5-2.25zm5.705 6.704a11.4 11.4 0 0 1-2.205 1.719V19A1.75 1.75 0 0 0 20 17.25h-.25V9a.75.75 0 0 0-1.085-.671l-6 3a.75.75 0 0 0-.415.671v5.25H12A1.75 1.75 0 0 0 10.25 19v6.674a11.4 11.4 0 0 1-2.205-1.719 11.25 11.25 0 1 1 15.91 0"/></svg>