<svg xmlns="http://www.w3.org/2000/svg" width="32" height="32" fill="none" viewBox="0 0 32 32"><path fill="#000" d="M29.625 15.584 22.587 5.029a1.75 1.75 0 0 0-1.456-.779H10.875a1.75 1.75 0 0 0-1.463.779L2.375 15.584a.75.75 0 0 0-.1.614L5.074 26.46a1.75 1.75 0 0 0 1.69 1.29H10A1.75 1.75 0 0 0 11.75 26v-2.25h8.5V26A1.75 1.75 0 0 0 22 27.75h3.236a1.75 1.75 0 0 0 1.689-1.29l2.799-10.262a.75.75 0 0 0-.1-.614M10 22.25a.25.25 0 0 1-.25-.25V8.293l3.5 2V17a.75.75 0 1 0 1.5 0v-5.85l.875.5a.75.75 0 0 0 .75 0l.875-.5V16a.75.75 0 1 0 1.5 0v-5.707l3.5-2V22a.25.25 0 0 1-.25.25zm.875-16.5h10.262a.25.25 0 0 1 .21.111l.583.889L16 10.136 10.07 6.75l.59-.886a.25.25 0 0 1 .215-.114M10.25 26a.25.25 0 0 1-.25.25H6.764a.25.25 0 0 1-.242-.184l-2.708-9.933L8.25 9.478V22A1.75 1.75 0 0 0 10 23.75h.25zm15.227.066a.25.25 0 0 1-.24.184H22a.25.25 0 0 1-.25-.25v-2.25H22A1.75 1.75 0 0 0 23.75 22V9.478l4.436 6.655z"/></svg>