<svg xmlns="http://www.w3.org/2000/svg" width="32" height="32" fill="none" viewBox="0 0 32 32"><path fill="#000" d="M24.75 9.455V5A1.75 1.75 0 0 0 23 3.25H9A1.75 1.75 0 0 0 7.25 5v4.5a1.76 1.76 0 0 0 .7 1.4l6.8 5.1-6.8 5.1a1.76 1.76 0 0 0-.7 1.4V27A1.75 1.75 0 0 0 9 28.75h14A1.75 1.75 0 0 0 24.75 27v-4.455a1.76 1.76 0 0 0-.695-1.396L17.25 16l6.811-5.149a1.76 1.76 0 0 0 .689-1.396M8.75 5A.25.25 0 0 1 9 4.75h14a.25.25 0 0 1 .25.25v4.455a.25.25 0 0 1-.099.2l-.788.595H9.583L8.85 9.7a.25.25 0 0 1-.1-.2zM16 15.061l-4.416-3.311h8.791zm7.25 7.484V27a.25.25 0 0 1-.25.25H9a.25.25 0 0 1-.25-.25v-4.5a.25.25 0 0 1 .1-.2l6.4-4.8V21a.75.75 0 1 0 1.5 0v-3.492l6.401 4.837a.25.25 0 0 1 .099.2"/></svg>