<svg xmlns="http://www.w3.org/2000/svg" width="32" height="32" fill="none" viewBox="0 0 32 32"><path fill="#000" d="M26.225 24.75 17.085 16l9.14-8.75.011-.011A1.75 1.75 0 0 0 25 4.25H7a1.75 1.75 0 0 0-1.237 2.988l.01.01 9.14 8.75-9.138 8.752-.011.011A1.75 1.75 0 0 0 7 27.75h18a1.75 1.75 0 0 0 1.238-2.988zM6.77 5.904A.24.24 0 0 1 7 5.75h18a.25.25 0 0 1 .181.423L16 14.96 6.82 6.173a.24.24 0 0 1-.05-.27m18.46 20.192a.24.24 0 0 1-.23.154H7a.25.25 0 0 1-.181-.422L16 17.038l9.18 8.79a.24.24 0 0 1 .05.268"/></svg>