<svg xmlns="http://www.w3.org/2000/svg" width="32" height="32" fill="none" viewBox="0 0 32 32"><path fill="#000" d="M30 26.25h-2.25V14.444a1.76 1.76 0 0 0-.566-1.29l-10-9.437-.012-.01a1.743 1.743 0 0 0-2.353 0l-.012.01-10 9.438a1.75 1.75 0 0 0-.557 1.289V26.25H2a.75.75 0 1 0 0 1.5h28a.75.75 0 1 0 0-1.5M5.75 14.444a.25.25 0 0 1 .081-.185l.011-.01 9.993-9.435a.25.25 0 0 1 .329 0l9.993 9.436.01.01a.25.25 0 0 1 .083.185V26.25h-6.5V20A1.75 1.75 0 0 0 18 18.25h-4A1.75 1.75 0 0 0 12.25 20v6.25h-6.5zm12.5 11.806h-4.5V20a.25.25 0 0 1 .25-.25h4a.25.25 0 0 1 .25.25z"/></svg>