<svg xmlns="http://www.w3.org/2000/svg" width="32" height="32" fill="none" viewBox="0 0 32 32"><path fill="#000" d="M25.75 11.354V11a9.75 9.75 0 0 0-19.5 0v.354A2.75 2.75 0 0 0 7 16.75h.565l7.784 13.625a.75.75 0 0 0 1.302 0l7.784-13.625H25a2.75 2.75 0 0 0 .75-5.396M16 28.489 9.293 16.75h2.986l5.221 9.125zm1-11.739 2.856 5-1.492 2.614-4.358-7.614zm3.72 3.489-1.999-3.489h3.987zM25 15.25H7a1.25 1.25 0 0 1 0-2.5.75.75 0 0 0 .75-.75v-1a8.25 8.25 0 0 1 16.5 0v1a.75.75 0 0 0 .75.75 1.25 1.25 0 0 1 0 2.5"/></svg>