<svg xmlns="http://www.w3.org/2000/svg" width="32" height="32" fill="none" viewBox="0 0 32 32"><path fill="#000" d="M24.75 14a.75.75 0 0 1-.75.75h-5a.75.75 0 1 1 0-1.5h5a.75.75 0 0 1 .75.75M24 17.25h-5a.75.75 0 1 0 0 1.5h5a.75.75 0 1 0 0-1.5M28.75 7v18A1.75 1.75 0 0 1 27 26.75H5A1.75 1.75 0 0 1 3.25 25V7A1.75 1.75 0 0 1 5 5.25h22A1.75 1.75 0 0 1 28.75 7m-1.5 0a.25.25 0 0 0-.25-.25H5a.25.25 0 0 0-.25.25v18a.25.25 0 0 0 .25.25h22a.25.25 0 0 0 .25-.25zM16.726 20.814a.75.75 0 1 1-1.452.375C14.918 19.797 13.51 18.75 12 18.75s-2.916 1.047-3.274 2.438a.75.75 0 1 1-1.452-.375 4.75 4.75 0 0 1 2.324-2.938 3.75 3.75 0 1 1 4.806 0 4.75 4.75 0 0 1 2.322 2.939M12 17.25a2.25 2.25 0 1 0 0-4.5 2.25 2.25 0 0 0 0 4.5"/></svg>