<svg xmlns="http://www.w3.org/2000/svg" width="32" height="32" fill="none" viewBox="0 0 32 32"><path fill="#000" d="M27 5.25H5A1.75 1.75 0 0 0 3.25 7v18A1.75 1.75 0 0 0 5 26.75h22A1.75 1.75 0 0 0 28.75 25V7A1.75 1.75 0 0 0 27 5.25M5 6.75h22a.25.25 0 0 1 .25.25v13.446l-3.684-3.684a1.75 1.75 0 0 0-2.475 0l-2.677 2.678-5.677-5.678a1.75 1.75 0 0 0-2.475 0L4.75 19.276V7A.25.25 0 0 1 5 6.75M4.75 25v-3.604l6.573-6.572a.25.25 0 0 1 .354 0L22.105 25.25H5a.25.25 0 0 1-.25-.25m22.25.25h-2.775l-4.75-4.75 2.676-2.677a.25.25 0 0 1 .354 0l4.75 4.75V25a.25.25 0 0 1-.255.25M18.25 12.5a1.25 1.25 0 1 1 2.5 0 1.25 1.25 0 0 1-2.5 0"/></svg>