<svg xmlns="http://www.w3.org/2000/svg" width="32" height="32" fill="none" viewBox="0 0 32 32"><path fill="#000" d="M27 5.25H9A1.75 1.75 0 0 0 7.25 7v2.25H5A1.75 1.75 0 0 0 3.25 11v14A1.75 1.75 0 0 0 5 26.75h18A1.75 1.75 0 0 0 24.75 25v-2.25H27A1.75 1.75 0 0 0 28.75 21V7A1.75 1.75 0 0 0 27 5.25M8.75 7A.25.25 0 0 1 9 6.75h18a.25.25 0 0 1 .25.25v8.446l-1.684-1.684a1.75 1.75 0 0 0-2.475 0l-2.677 2.677-5.677-5.677a1.75 1.75 0 0 0-2.475 0L8.75 14.276zm14.5 18a.25.25 0 0 1-.25.25H5a.25.25 0 0 1-.25-.25V11a.25.25 0 0 1 .25-.25h2.25V21A1.75 1.75 0 0 0 9 22.75h14.25zM27 21.25H9a.25.25 0 0 1-.25-.25v-4.604l4.573-4.572a.25.25 0 0 1 .353 0l6.208 6.207a.747.747 0 0 0 1.061 0l3.206-3.207a.25.25 0 0 1 .354 0l2.75 2.75V21a.25.25 0 0 1-.255.25M20.25 10.5a1.25 1.25 0 1 1 2.5 0 1.25 1.25 0 0 1-2.5 0"/></svg>