<svg xmlns="http://www.w3.org/2000/svg" width="32" height="32" fill="none" viewBox="0 0 32 32"><path fill="#000" d="M26 4.25H6A1.75 1.75 0 0 0 4.25 6v20A1.75 1.75 0 0 0 6 27.75h20A1.75 1.75 0 0 0 27.75 26V6A1.75 1.75 0 0 0 26 4.25M5.75 26V6A.25.25 0 0 1 6 5.75h20a.25.25 0 0 1 .25.25v10.275l-3.512-3.512a1.75 1.75 0 0 0-2.476 0L6.775 26.25H6a.25.25 0 0 1-.25-.25m20.25.25H8.896l12.427-12.426a.25.25 0 0 1 .353 0l4.574 4.572V26a.25.25 0 0 1-.25.25m-14-11.5a2.75 2.75 0 1 0 0-5.5 2.75 2.75 0 0 0 0 5.5m0-4a1.25 1.25 0 1 1 0 2.5 1.25 1.25 0 0 1 0-2.5"/></svg>