<svg xmlns="http://www.w3.org/2000/svg" width="32" height="32" fill="none" viewBox="0 0 32 32"><path fill="#000" d="M16 10.25A5.75 5.75 0 1 0 21.75 16 5.76 5.76 0 0 0 16 10.25m0 10a4.25 4.25 0 1 1 0-8.5 4.25 4.25 0 0 1 0 8.5m6-17H10A6.76 6.76 0 0 0 3.25 10v12A6.76 6.76 0 0 0 10 28.75h12A6.76 6.76 0 0 0 28.75 22V10A6.76 6.76 0 0 0 22 3.25M27.25 22A5.25 5.25 0 0 1 22 27.25H10A5.25 5.25 0 0 1 4.75 22V10A5.25 5.25 0 0 1 10 4.75h12A5.25 5.25 0 0 1 27.25 10zm-3.5-12.5a1.25 1.25 0 1 1-2.5 0 1.25 1.25 0 0 1 2.5 0"/></svg>