<svg xmlns="http://www.w3.org/2000/svg" width="32" height="32" fill="none" viewBox="0 0 32 32"><path fill="#000" d="M24.223 12.141q.026-.317.027-.641a8.25 8.25 0 1 0-16.473.641 8.25 8.25 0 0 0-3.486 11.513A8.25 8.25 0 0 0 16 26.409a8.251 8.251 0 1 0 8.223-14.268M9.25 11.5a6.75 6.75 0 1 1 13.5 0v.064A8.22 8.22 0 0 0 16 12.59a8.22 8.22 0 0 0-6.75-1.027zm9 8A6.74 6.74 0 0 1 16 24.526a6.74 6.74 0 0 1-2.25-5.026v-.064c1.47.419 3.03.419 4.5 0zM16 18.25c-.7 0-1.396-.109-2.062-.324A6.76 6.76 0 0 1 16 14.474a6.76 6.76 0 0 1 2.063 3.452A6.7 6.7 0 0 1 16 18.25m-3.45-.951a6.77 6.77 0 0 1-3.113-4.225 6.73 6.73 0 0 1 5.313.515 8.26 8.26 0 0 0-2.2 3.71m4.7-3.71a6.73 6.73 0 0 1 5.316-.515 6.77 6.77 0 0 1-3.112 4.225 8.26 8.26 0 0 0-2.204-3.71M11.5 26.25a6.75 6.75 0 0 1-3.45-12.549 8.29 8.29 0 0 0 4.227 5.158 8.224 8.224 0 0 0 2.473 6.553c-.995.55-2.113.838-3.25.838m9 0a6.7 6.7 0 0 1-3.25-.839 8.22 8.22 0 0 0 2.473-6.552A8.29 8.29 0 0 0 23.95 13.7 6.75 6.75 0 0 1 20.5 26.25"/></svg>