<svg xmlns="http://www.w3.org/2000/svg" width="32" height="32" fill="none" viewBox="0 0 32 32"><path fill="#000" d="M30 12.25h-1.394l-1.204-5.616a1.76 1.76 0 0 0-1.71-1.384H6.308a1.76 1.76 0 0 0-1.711 1.384L3.394 12.25H2a.75.75 0 1 0 0 1.5h1.25V26A1.75 1.75 0 0 0 5 27.75h3A1.75 1.75 0 0 0 9.75 26v-3.25h12.5V26A1.75 1.75 0 0 0 24 27.75h3A1.75 1.75 0 0 0 28.75 26V13.75H30a.75.75 0 1 0 0-1.5M6.064 6.948a.25.25 0 0 1 .25-.198H25.69a.25.25 0 0 1 .25.197l1.132 5.303H4.927zM8.25 26a.25.25 0 0 1-.25.25H5a.25.25 0 0 1-.25-.25v-3.25h3.5zm18.75.25h-3a.25.25 0 0 1-.25-.25v-3.25h3.5V26a.25.25 0 0 1-.25.25m.25-5h-8.5V17a.75.75 0 1 0-1.5 0v4.25h-2.5V17a.75.75 0 1 0-1.5 0v4.25h-8.5v-7.5h22.5zm-20-3.75a1.25 1.25 0 1 1 2.5 0 1.25 1.25 0 0 1-2.5 0m15 0a1.25 1.25 0 1 1 2.5 0 1.25 1.25 0 0 1-2.5 0"/></svg>