<svg xmlns="http://www.w3.org/2000/svg" width="32" height="32" fill="none" viewBox="0 0 32 32"><path fill="#000" d="M20 2.25a9.757 9.757 0 0 0-9.225 12.914L3.47 22.47a.75.75 0 0 0-.22.53v5a.75.75 0 0 0 .75.75h5a.75.75 0 0 0 .75-.75v-2.25H12a.75.75 0 0 0 .75-.75v-2.25H15a.75.75 0 0 0 .53-.22l1.306-1.305A9.75 9.75 0 1 0 20 2.25m0 18a8.2 8.2 0 0 1-3.054-.584.75.75 0 0 0-.83.158L14.69 21.25H12a.75.75 0 0 0-.75.75v2.25H9a.75.75 0 0 0-.75.75v2.25h-3.5v-3.939l7.426-7.427a.75.75 0 0 0 .158-.83A8.25 8.25 0 1 1 20 20.25M23.75 9.5a1.25 1.25 0 1 1-2.5 0 1.25 1.25 0 0 1 2.5 0"/></svg>