<svg xmlns="http://www.w3.org/2000/svg" width="32" height="32" fill="none" viewBox="0 0 32 32"><path fill="#000" d="M27.939 6.25H4.064A1.814 1.814 0 0 0 2.25 8.061v15.875a1.814 1.814 0 0 0 1.811 1.814h23.875a1.813 1.813 0 0 0 1.814-1.811V8.064a1.813 1.813 0 0 0-1.811-1.814m.311 17.689a.31.31 0 0 1-.311.311H4.064a.31.31 0 0 1-.314-.311V8.064a.31.31 0 0 1 .311-.314h23.875a.31.31 0 0 1 .314.311zM25.75 16a.75.75 0 0 1-.75.75H7a.75.75 0 1 1 0-1.5h18a.75.75 0 0 1 .75.75m0-4a.75.75 0 0 1-.75.75H7a.75.75 0 1 1 0-1.5h18a.75.75 0 0 1 .75.75m-17 8a.75.75 0 0 1-.75.75H7a.75.75 0 1 1 0-1.5h1a.75.75 0 0 1 .75.75m12 0a.75.75 0 0 1-.75.75h-8a.75.75 0 1 1 0-1.5h8a.75.75 0 0 1 .75.75m5 0a.75.75 0 0 1-.75.75h-1a.75.75 0 1 1 0-1.5h1a.75.75 0 0 1 .75.75"/></svg>