<svg xmlns="http://www.w3.org/2000/svg" width="32" height="32" fill="none" viewBox="0 0 32 32"><path fill="#000" d="M29 21.25h-1.25V9A2.75 2.75 0 0 0 25 6.25H7A2.75 2.75 0 0 0 4.25 9v12.25H3a.75.75 0 0 0-.75.75v2A2.75 2.75 0 0 0 5 26.75h22A2.75 2.75 0 0 0 29.75 24v-2a.75.75 0 0 0-.75-.75M5.75 9A1.25 1.25 0 0 1 7 7.75h18A1.25 1.25 0 0 1 26.25 9v12.25H5.75zm22.5 15A1.25 1.25 0 0 1 27 25.25H5A1.25 1.25 0 0 1 3.75 24v-1.25h24.5zm-9.5-13a.75.75 0 0 1-.75.75h-4a.75.75 0 1 1 0-1.5h4a.75.75 0 0 1 .75.75"/></svg>