<svg xmlns="http://www.w3.org/2000/svg" width="32" height="32" fill="none" viewBox="0 0 32 32"><path fill="#000" d="M27.681 5.024a.75.75 0 0 0-.705-.705c-9.422-.555-16.959 2.27-20.16 7.556-2.18 3.599-2.095 7.85.224 12.025l-2.57 2.57a.75.75 0 1 0 1.06 1.06l2.57-2.57c2.159 1.199 4.337 1.801 6.436 1.801 1.973.001 3.908-.545 5.589-1.577 5.286-3.201 8.11-10.738 7.556-20.16M19.35 23.899c-3.01 1.822-6.58 1.796-10.142-.049l11.324-11.324a.75.75 0 0 0-1.06-1.06L8.147 22.793C6.302 19.23 6.272 15.668 8.1 12.65c2.835-4.679 9.578-7.225 18.125-6.869.35 8.54-2.197 15.285-6.875 18.12z"/></svg>