<svg xmlns="http://www.w3.org/2000/svg" width="32" height="32" fill="none" viewBox="0 0 32 32"><path fill="#000" d="M16 3.25A12.75 12.75 0 1 0 28.75 16 12.765 12.765 0 0 0 16 3.25m4.559 16.25a5.734 5.734 0 0 0 0-7l3.905-3.904a11.226 11.226 0 0 1 0 14.805zM11.75 16a4.25 4.25 0 1 1 8.5 0 4.25 4.25 0 0 1-8.5 0m11.653-8.464L19.5 11.441a5.734 5.734 0 0 0-7 0L8.598 7.536a11.226 11.226 0 0 1 14.805 0M7.535 8.598l3.905 3.902a5.734 5.734 0 0 0 0 7l-3.905 3.903a11.226 11.226 0 0 1 0-14.805m1.062 15.866 3.902-3.905a5.734 5.734 0 0 0 7 0l3.904 3.905a11.23 11.23 0 0 1-14.805 0z"/></svg>