<svg xmlns="http://www.w3.org/2000/svg" width="32" height="32" fill="none" viewBox="0 0 32 32"><path fill="#000" d="M21.735 13.993a.75.75 0 0 0-.427-.534l-6.433-2.889 1.75-7.396a.75.75 0 0 0-1.28-.684L3.45 15.348a.75.75 0 0 0 .243 1.193l6.432 2.89-1.75 7.395a.75.75 0 0 0 1.278.683l11.9-12.856a.75.75 0 0 0 .182-.66m-11.25 10.401 1.24-5.22a.75.75 0 0 0-.422-.857L5.26 15.6l9.25-10-1.24 5.222a.75.75 0 0 0 .423.857l6.047 2.716zm19.18 2.27-4.5-9a.75.75 0 0 0-1.342 0l-4.5 9a.75.75 0 0 0 .335 1.007.75.75 0 0 0 1.007-.336l1.299-2.585h5.072l1.293 2.585a.749.749 0 1 0 1.341-.671zm-6.951-3.414 1.786-3.572 1.786 3.572z"/></svg>