<svg xmlns="http://www.w3.org/2000/svg" width="32" height="32" fill="none" viewBox="0 0 32 32"><path fill="#000" d="M6.555 4.5a.75.75 0 0 0-1.11 1l5.061 5.573-5.055 5.416a.75.75 0 0 0 .285 1.213l7.404 2.777-1.875 9.375a.75.75 0 0 0 1.284.657l7.917-8.483 4.979 5.472a.75.75 0 1 0 1.11-1.01zm6.695 23.058 1.481-7.41a.75.75 0 0 0-.471-.85L7.31 16.69l4.205-4.5 7.935 8.729zm.5-18.864a.75.75 0 0 1-.036-1.06l5.735-6.145a.75.75 0 0 1 1.284.659l-1.875 9.375 7.403 2.776a.75.75 0 0 1 .285 1.213L23.76 18.5a.749.749 0 1 1-1.096-1.024l2.022-2.166-6.95-2.606a.75.75 0 0 1-.471-.85l1.485-7.411-3.937 4.213a.75.75 0 0 1-1.063.038"/></svg>