<svg xmlns="http://www.w3.org/2000/svg" width="32" height="32" fill="none" viewBox="0 0 32 32"><path fill="#000" d="M26 10.25a.75.75 0 0 0-.75.75v2.25h-1.875l-.625-6.325a.75.75 0 0 0-.25-.485l-5.361-4.769-.019-.015a1.75 1.75 0 0 0-2.24 0l-.019.015L9.5 6.441a.75.75 0 0 0-.25.484l-.625 6.325H6.75V11a.75.75 0 0 0-1.5 0v3a.75.75 0 0 0 .75.75h2.469L7.258 26.834A1.75 1.75 0 0 0 9 28.75h14a1.75 1.75 0 0 0 1.741-1.92l-1.21-12.08H26a.75.75 0 0 0 .75-.75v-3a.75.75 0 0 0-.75-.75M15.846 2.803a.25.25 0 0 1 .308 0l3.875 3.447H11.97zM10.68 7.75H21.32l.554 5.5H16.75V11a.75.75 0 1 0-1.5 0v2.25h-5.125zm12.5 19.419a.25.25 0 0 1-.179.081H9a.25.25 0 0 1-.25-.27l.525-5.23h13.45l.525 5.226a.25.25 0 0 1-.065.193zm-.604-6.919H9.425l.551-5.5h12.048z"/></svg>