<svg xmlns="http://www.w3.org/2000/svg" width="32" height="32" fill="none" viewBox="0 0 32 32"><path fill="#000" d="M29.654 4.346a3.76 3.76 0 0 0-5.305 0 3.757 3.757 0 0 0 .25 5.532L21.08 16.41a3.76 3.76 0 0 0-3.148.465l-2.808-2.807a3.75 3.75 0 0 0-5.777-4.72 3.75 3.75 0 0 0 .25 5.53L6.08 21.412a3.75 3.75 0 0 0-4.76 2.858 3.75 3.75 0 1 0 6.081-2.146l3.518-6.533a3.76 3.76 0 0 0 3.149-.465l2.807 2.808a3.75 3.75 0 1 0 5.531-.812l3.518-6.532a3.75 3.75 0 0 0 3.733-6.243zM6.59 26.596a2.25 2.25 0 1 1 .657-1.593 2.25 2.25 0 0 1-.657 1.59zm3.819-13a2.25 2.25 0 1 1 1.59.657 2.25 2.25 0 0 1-1.59-.662zm11.182 8a2.25 2.25 0 1 1 .657-1.593 2.25 2.25 0 0 1-.657 1.588zm7-13a2.25 2.25 0 1 1 .657-1.594 2.25 2.25 0 0 1-.655 1.588z"/></svg>