<svg xmlns="http://www.w3.org/2000/svg" width="32" height="32" fill="none" viewBox="0 0 32 32"><path fill="#000" d="M17.016 23.471a.75.75 0 0 1 0 1.061l-1.244 1.243a6.751 6.751 0 1 1-9.547-9.547l3.014-3.016a6.75 6.75 0 0 1 9.26-.273.751.751 0 0 1-.746 1.273.8.8 0 0 1-.253-.148 5.25 5.25 0 0 0-7.2.213l-3.015 3.01a5.252 5.252 0 0 0 7.427 7.428l1.243-1.244a.75.75 0 0 1 1.061 0m8.759-17.25a6.76 6.76 0 0 0-9.548 0l-1.243 1.243a.75.75 0 1 0 1.06 1.061l1.243-1.25a5.252 5.252 0 0 1 7.428 7.428L21.7 17.726a5.25 5.25 0 0 1-7.2.214.754.754 0 0 0-1 1.125 6.75 6.75 0 0 0 9.259-.274l3.013-3.015a6.75 6.75 0 0 0 .003-9.551z"/></svg>