<svg xmlns="http://www.w3.org/2000/svg" width="32" height="32" fill="none" viewBox="0 0 32 32"><path fill="#000" d="M20.531 11.469a.75.75 0 0 1 0 1.061l-8 8a.75.75 0 0 1-1.061-1.06l8-8a.75.75 0 0 1 1.061-.001m6.244-6.244a6.76 6.76 0 0 0-9.547 0l-3.76 3.756a.75.75 0 0 0 1.062 1.062l3.759-3.758a5.251 5.251 0 1 1 7.426 7.426l-3.76 3.76a.75.75 0 1 0 1.061 1.06l3.759-3.758a6.75 6.75 0 0 0 0-9.548m-9.305 16.73-3.759 3.76a5.251 5.251 0 0 1-7.426-7.426l3.758-3.759A.75.75 0 0 0 8.98 13.47l-3.75 3.759a6.751 6.751 0 1 0 9.548 9.548l3.759-3.76a.752.752 0 0 0-.531-1.28.75.75 0 0 0-.53.22z"/></svg>