<svg xmlns="http://www.w3.org/2000/svg" width="32" height="32" fill="none" viewBox="0 0 32 32"><path fill="#000" d="M27 3.25H5A1.75 1.75 0 0 0 3.25 5v22A1.75 1.75 0 0 0 5 28.75h22A1.75 1.75 0 0 0 28.75 27V5A1.75 1.75 0 0 0 27 3.25M27.25 27a.25.25 0 0 1-.25.25H5a.25.25 0 0 1-.25-.25V5A.25.25 0 0 1 5 4.75h22a.25.25 0 0 1 .25.25zm-15.5-13v8a.75.75 0 1 1-1.5 0v-8a.75.75 0 1 1 1.5 0m11 3.5V22a.75.75 0 1 1-1.5 0v-4.5a2.75 2.75 0 1 0-5.5 0V22a.75.75 0 1 1-1.5 0v-8a.75.75 0 1 1 1.5 0v.264a4.25 4.25 0 0 1 7 3.236m-10.5-7a1.25 1.25 0 1 1-2.5 0 1.25 1.25 0 0 1 2.5 0"/></svg>