<svg xmlns="http://www.w3.org/2000/svg" width="32" height="32" fill="none" viewBox="0 0 32 32"><path fill="#000" d="M28.468 27.586a.75.75 0 0 1-1.053-.117C27.25 27.256 23.25 22.146 23.25 12a7.25 7.25 0 0 0-14.5 0c0 10.146-3.994 15.256-4.164 15.469a.75.75 0 0 1-1.172-.937C3.46 26.475 7.25 21.57 7.25 12a8.75 8.75 0 1 1 17.5 0c0 9.579 3.797 14.484 3.836 14.532a.75.75 0 0 1-.118 1.054M12.5 12.25a1.25 1.25 0 1 0 0 2.5 1.25 1.25 0 0 0 0-2.5m8.25 1.25a1.25 1.25 0 1 0-2.5 0 1.25 1.25 0 0 0 2.5 0m-8.414 3.829a.75.75 0 1 0-.671 1.342l4 2a.75.75 0 0 0 .671 0l4-2a.75.75 0 1 0-.671-1.342L16 19.16zM16 23.25a6.51 6.51 0 0 0-5.655 3.385.75.75 0 0 0 .29 1.02.75.75 0 0 0 1.021-.29 4.916 4.916 0 0 1 8.689 0 .75.75 0 1 0 1.31-.73A6.51 6.51 0 0 0 16 23.25"/></svg>