<svg xmlns="http://www.w3.org/2000/svg" width="32" height="32" fill="none" viewBox="0 0 32 32"><path fill="#000" d="M27.75 16a.75.75 0 0 1-.75.75H13a.75.75 0 1 1 0-1.5h14a.75.75 0 0 1 .75.75M13 8.75h14a.75.75 0 0 0 0-1.5H13a.75.75 0 1 0 0 1.5m14 14.5H13a.75.75 0 1 0 0 1.5h14a.75.75 0 0 0 0-1.5M5.335 6.671l.915-.457V13a.75.75 0 1 0 1.5 0V5a.75.75 0 0 0-1.085-.671l-2 1a.75.75 0 0 0 .67 1.342M9 25.25H6.5l2.685-3.593a2.69 2.69 0 0 0 .539-2.032 2.72 2.72 0 0 0-1.099-1.828 2.857 2.857 0 0 0-3.919.54 2.8 2.8 0 0 0-.41.74.75.75 0 0 0 1.41.513q.067-.181.185-.334a1.347 1.347 0 0 1 1.848-.25 1.24 1.24 0 0 1 .5.826 1.2 1.2 0 0 1-.25.91l-.008.012L4.4 25.55A.75.75 0 0 0 5 26.75h4a.75.75 0 1 0 0-1.5"/></svg>