<svg xmlns="http://www.w3.org/2000/svg" width="32" height="32" fill="none" viewBox="0 0 32 32"><path fill="#000" d="M27.75 16a.75.75 0 0 1-.75.75H16a.75.75 0 1 1 0-1.5h11a.75.75 0 0 1 .75.75M16 8.75h11a.75.75 0 1 0 0-1.5H16a.75.75 0 1 0 0 1.5m11 14.5H16a.75.75 0 1 0 0 1.5h11a.75.75 0 1 0 0-1.5M10.47 5.47 7 8.94 5.53 7.47a.75.75 0 0 0-1.06 1.06l2 2a.75.75 0 0 0 1.06 0l4-4a.75.75 0 0 0-1.06-1.06m0 8L7 16.94 5.53 15.47a.75.75 0 1 0-1.06 1.06l2 2a.75.75 0 0 0 1.06 0l4-4a.75.75 0 0 0-1.06-1.06m0 8L7 24.94 5.53 23.47a.75.75 0 0 0-1.06 1.06l2 2a.75.75 0 0 0 1.06 0l4-4a.75.75 0 0 0-1.06-1.06"/></svg>