<svg xmlns="http://www.w3.org/2000/svg" width="32" height="32" fill="none" viewBox="0 0 32 32"><path fill="#000" d="M26 10.25h-4.25V7a5.75 5.75 0 0 0-11.5 0v3.25H6A1.75 1.75 0 0 0 4.25 12v14A1.75 1.75 0 0 0 6 27.75h20A1.75 1.75 0 0 0 27.75 26V12A1.75 1.75 0 0 0 26 10.25M11.75 7a4.25 4.25 0 0 1 8.5 0v3.25h-8.5zm14.5 19a.25.25 0 0 1-.25.25H6a.25.25 0 0 1-.25-.25V12a.25.25 0 0 1 .25-.25h20a.25.25 0 0 1 .25.25zM16 14.25a3.25 3.25 0 0 0-.75 6.411V23a.75.75 0 1 0 1.5 0v-2.339A3.25 3.25 0 0 0 16 14.25m0 5a1.75 1.75 0 1 1 0-3.5 1.75 1.75 0 0 1 0 3.5"/></svg>