<svg xmlns="http://www.w3.org/2000/svg" width="32" height="32" fill="none" viewBox="0 0 32 32"><path fill="#000" d="M23.75 9a.75.75 0 0 1-.75.75h-3a.75.75 0 1 1 0-1.5h3a.75.75 0 0 1 .75.75M23 12.25h-3a.75.75 0 1 0 0 1.5h3a.75.75 0 1 0 0-1.5M9 9.75h3a.75.75 0 1 0 0-1.5H9a.75.75 0 0 0 0 1.5m3 2.5H9a.75.75 0 1 0 0 1.5h3a.75.75 0 1 0 0-1.5M27.75 6v22a.75.75 0 1 1-1.5 0v-2.25h-9.5V28a.75.75 0 1 1-1.5 0v-2.25h-9.5V28a.75.75 0 1 1-1.5 0V6A1.75 1.75 0 0 1 6 4.25h20A1.75 1.75 0 0 1 27.75 6m-12.5 18.25V5.75H6a.25.25 0 0 0-.25.25v18.25zm1.5 0h9.5V6a.25.25 0 0 0-.25-.25h-9.25z"/></svg>