<svg xmlns="http://www.w3.org/2000/svg" width="32" height="32" fill="none" viewBox="0 0 32 32"><path fill="#000" d="M30.75 19a.75.75 0 0 1-.75.75h-2.25V22a.75.75 0 1 1-1.5 0v-2.25H24a.75.75 0 0 1 0-1.5h2.25V16a.75.75 0 0 1 1.5 0v2.25H30a.75.75 0 0 1 .75.75M7 8.75h2.25V11a.75.75 0 1 0 1.5 0V8.75H13a.75.75 0 0 0 0-1.5h-2.25V5a.75.75 0 1 0-1.5 0v2.25H7a.75.75 0 0 0 0 1.5m16 15.5h-1.25V23a.75.75 0 1 0-1.5 0v1.25H19a.75.75 0 0 0 0 1.5h1.25V27a.75.75 0 0 0 1.5 0v-1.25H23a.75.75 0 1 0 0-1.5m4.238-14.426L9.823 27.237a1.75 1.75 0 0 1-2.475 0L4.76 24.651a1.75 1.75 0 0 1 0-2.475L22.176 4.762a1.75 1.75 0 0 1 2.475 0l2.587 2.587a1.75 1.75 0 0 1 0 2.475M20.938 14 18 11.06 5.823 23.237a.25.25 0 0 0 0 .354l2.586 2.585a.25.25 0 0 0 .352 0zm5.238-5.591-2.585-2.585a.25.25 0 0 0-.354 0L19.06 10 22 12.94l4.176-4.178a.25.25 0 0 0 0-.353"/></svg>