<svg xmlns="http://www.w3.org/2000/svg" width="32" height="32" fill="none" viewBox="0 0 32 32"><path fill="#000" d="M25.695 6.456a10.69 10.69 0 0 0-7.62-3.206h-.041a10.68 10.68 0 0 0-7.607 3.153l-7.677 7.77a1.75 1.75 0 0 0 .007 2.468l3.583 3.583a1.74 1.74 0 0 0 1.237.512h.01a1.74 1.74 0 0 0 1.243-.526l7.609-7.8a2.263 2.263 0 0 1 3.156-.035 2.2 2.2 0 0 1 .667 1.578 2.38 2.38 0 0 1-.68 1.68l-7.786 7.53a1.75 1.75 0 0 0-.019 2.494l3.584 3.583a1.757 1.757 0 0 0 2.462.013l7.726-7.562c4.21-4.208 4.276-11.043.146-15.235M7.76 19.161a.25.25 0 0 1-.178.075.27.27 0 0 1-.177-.072L3.82 15.58a.25.25 0 0 1 0-.352l3.153-3.194 3.917 3.918zm9.013 9.019a.25.25 0 0 1-.352 0l-3.582-3.582a.25.25 0 0 1 0-.355l3.225-3.118 3.917 3.916zm7.727-7.555-3.44 3.367-3.911-3.91 3.487-3.376.009-.01a3.87 3.87 0 0 0 1.125-2.757 3.69 3.69 0 0 0-1.125-2.644 3.77 3.77 0 0 0-5.26.057l-3.447 3.523-3.91-3.908 3.464-3.507a9.18 9.18 0 0 1 6.541-2.71h.035a9.2 9.2 0 0 1 6.557 2.76c3.555 3.605 3.492 9.49-.125 13.115"/></svg>