<svg xmlns="http://www.w3.org/2000/svg" width="32" height="32" fill="none" viewBox="0 0 32 32"><path fill="#000" d="M16 8.25a4.75 4.75 0 1 0 0 9.5 4.75 4.75 0 0 0 0-9.5m0 8a3.25 3.25 0 1 1 0-6.5 3.25 3.25 0 0 1 0 6.5m0-14A10.763 10.763 0 0 0 5.25 13c0 3.864 1.793 7.968 5.184 11.868a31.5 31.5 0 0 0 5.136 4.75.75.75 0 0 0 .86 0 31.5 31.5 0 0 0 5.136-4.75c3.392-3.9 5.184-8 5.184-11.868A10.76 10.76 0 0 0 16 2.25m0 25.814C14.125 26.616 6.75 20.453 6.75 13a9.25 9.25 0 1 1 18.5 0c0 7.453-7.375 13.616-9.25 15.064"/></svg>