<svg xmlns="http://www.w3.org/2000/svg" width="32" height="32" fill="none" viewBox="0 0 32 32"><path fill="#000" d="M25.875 4.25H6.125A1.875 1.875 0 0 0 4.25 6.125v6.151a1.88 1.88 0 0 0 1.099 1.707l8.3 3.767a5.75 5.75 0 1 0 4.702 0l8.3-3.773a1.88 1.88 0 0 0 1.099-1.7V6.124a1.875 1.875 0 0 0-1.875-1.875m-5.625 1.5v9.5L16 17.181l-4.25-1.931v-9.5zm-14.5 6.526V6.125a.375.375 0 0 1 .375-.375h4.125v8.813l-4.28-1.946a.38.38 0 0 1-.22-.34M20.25 23a4.25 4.25 0 1 1-8.5 0 4.25 4.25 0 0 1 8.5 0m6-10.724a.38.38 0 0 1-.22.341l-4.28 1.945V5.75h4.125a.375.375 0 0 1 .375.375z"/></svg>