<svg xmlns="http://www.w3.org/2000/svg" width="32" height="32" fill="none" viewBox="0 0 32 32"><path fill="#000" d="M26.75 12a10.75 10.75 0 1 0-17.5 8.359V30a.75.75 0 0 0 1.085.671L16 27.84l5.666 2.832A.75.75 0 0 0 22.75 30v-9.641a10.73 10.73 0 0 0 4-8.359m-20 0A9.25 9.25 0 1 1 16 21.25 9.26 9.26 0 0 1 6.75 12m14.5 16.786-4.916-2.457a.75.75 0 0 0-.67 0l-4.914 2.457v-7.411a10.72 10.72 0 0 0 10.5 0zM16 18.75A6.75 6.75 0 1 0 9.25 12 6.76 6.76 0 0 0 16 18.75m0-12a5.25 5.25 0 1 1 0 10.5 5.25 5.25 0 0 1 0-10.5"/></svg>