<svg xmlns="http://www.w3.org/2000/svg" width="32" height="32" fill="none" viewBox="0 0 32 32"><path fill="#000" d="M29.75 18.664c0 1.968-.384 3.646-1.11 4.851-.881 1.462-2.25 2.235-3.96 2.235-3.343 0-5.788-4.564-8.375-9.396C14.143 12.32 11.694 7.75 9.25 7.75c-2.91 0-5.5 6.104-5.5 10.914 0 1.696.31 3.105.895 4.077.613 1.015 1.488 1.509 2.675 1.509 2.02 0 4.039-3.133 5.75-6.196a.75.75 0 0 1 1.305.73C12.5 22.154 10.25 25.75 7.32 25.75c-1.709 0-3.079-.773-3.96-2.235-.726-1.205-1.11-2.883-1.11-4.851 0-5.062 2.726-12.414 7-12.414 3.342 0 5.788 4.564 8.375 9.396 2.161 4.033 4.61 8.604 7.055 8.604 1.188 0 2.063-.494 2.675-1.509.585-.972.895-2.381.895-4.077 0-4.81-2.589-10.914-5.5-10.914-1.125 0-2.364.97-3.767 2.966a.75.75 0 0 1-1.228-.864c1.089-1.546 2.791-3.602 4.995-3.602 4.274 0 7 7.352 7 12.414"/></svg>