<svg xmlns="http://www.w3.org/2000/svg" width="32" height="32" fill="none" viewBox="0 0 32 32"><path fill="#000" d="M26.666 25.469 23.11 14.293l3.444-3.793a.75.75 0 0 0-1.11-1l-2.859 3.146-2.283-7.177a1.74 1.74 0 0 0-1.667-1.219h-5.27a1.74 1.74 0 0 0-1.668 1.219l-6.363 20A1.75 1.75 0 0 0 7 27.75h18a1.75 1.75 0 0 0 1.668-2.281zm-3.235-5.219h-5.736l4.25-4.674zM13.125 5.924a.25.25 0 0 1 .24-.174h5.27a.25.25 0 0 1 .24.174l2.545 8-5.75 6.326H8.569zM25.2 26.147a.24.24 0 0 1-.2.103H7a.25.25 0 0 1-.238-.326l1.33-4.174h15.817l1.327 4.174a.24.24 0 0 1-.036.224"/></svg>