<svg xmlns="http://www.w3.org/2000/svg" width="32" height="32" fill="none" viewBox="0 0 32 32"><path fill="#000" d="M12 12.25h-2a.75.75 0 0 0-.75.75v6a.75.75 0 1 0 1.5 0v-1.25H12a2.75 2.75 0 1 0 0-5.5m0 4h-1.25v-2.5H12a1.25 1.25 0 0 1 0 2.5m5-13a12.8 12.8 0 0 0-10.125 5H5A1.75 1.75 0 0 0 3.25 10v12A1.75 1.75 0 0 0 5 23.75h1.875A12.75 12.75 0 1 0 17 3.25m11.225 12H19.75V10A1.75 1.75 0 0 0 18 8.25h-.25V4.775A11.27 11.27 0 0 1 28.225 15.25M16.25 4.776V8.25H8.848a11.3 11.3 0 0 1 7.402-3.474M4.75 22V10A.25.25 0 0 1 5 9.75h13a.25.25 0 0 1 .25.25v12a.25.25 0 0 1-.25.25H5a.25.25 0 0 1-.25-.25m4.098 1.75h7.402v3.474a11.3 11.3 0 0 1-7.402-3.474m8.902 3.475V23.75H18A1.75 1.75 0 0 0 19.75 22v-5.25h8.475A11.27 11.27 0 0 1 17.75 27.225"/></svg>