<svg xmlns="http://www.w3.org/2000/svg" width="32" height="32" fill="none" viewBox="0 0 32 32"><path fill="#000" d="M25 3.25H9A1.75 1.75 0 0 0 7.25 5v3.25H5A1.75 1.75 0 0 0 3.25 10v12A1.75 1.75 0 0 0 5 23.75h2.25V27A1.75 1.75 0 0 0 9 28.75h16A1.75 1.75 0 0 0 26.75 27V5A1.75 1.75 0 0 0 25 3.25m-5.25 9.5h5.5v6.5h-5.5zM25.25 5v6.25h-5.5V10A1.75 1.75 0 0 0 18 8.25h-.25v-3.5H25a.25.25 0 0 1 .25.25M8.75 5A.25.25 0 0 1 9 4.75h7.25v3.5h-7.5zm-4 17V10A.25.25 0 0 1 5 9.75h13a.25.25 0 0 1 .25.25v12a.25.25 0 0 1-.25.25H5a.25.25 0 0 1-.25-.25m4 5v-3.25h7.5v3.5H9a.25.25 0 0 1-.25-.25m16.25.25h-7.25v-3.5H18A1.75 1.75 0 0 0 19.75 22v-1.25h5.5V27a.25.25 0 0 1-.25.25M8.424 18.52l2.1-2.52-2.1-2.52a.75.75 0 1 1 1.152-.96l1.924 2.309 1.924-2.309a.75.75 0 0 1 1.152.96l-2.1 2.52 2.1 2.52a.751.751 0 1 1-1.152.96L11.5 17.171 9.576 19.48a.75.75 0 0 1-1.152-.96"/></svg>