<svg xmlns="http://www.w3.org/2000/svg" width="32" height="32" fill="none" viewBox="0 0 32 32"><path fill="#000" d="M10.25 13.75H9a.75.75 0 1 1 0-1.5h4a.75.75 0 0 1 0 1.5h-1.25V19a.75.75 0 1 1-1.5 0zm18.5-2.158V19a4.756 4.756 0 0 1-4.5 4.75 7.75 7.75 0 0 1-14.5 0H5A1.75 1.75 0 0 1 3.25 22V10A1.75 1.75 0 0 1 5 8.25h7.418a4.75 4.75 0 0 1 8.75-3.524A3.75 3.75 0 0 1 26 10.25h1.41a1.344 1.344 0 0 1 1.34 1.342m-7.073-5.41q.073.406.073.818a4.75 4.75 0 0 1-1.285 3.25H23a2.248 2.248 0 0 0 1.593-3.842 2.25 2.25 0 0 0-2.916-.227M14 8.25h3a1.75 1.75 0 0 1 1.73 1.5A3.25 3.25 0 1 0 14 8.25m-9 14h12a.25.25 0 0 0 .25-.25V10a.25.25 0 0 0-.25-.25H5a.25.25 0 0 0-.25.25v12a.25.25 0 0 0 .25.25M23.25 21v-9a.25.25 0 0 0-.25-.25h-4.25V22A1.75 1.75 0 0 1 17 23.75h-5.613A6.25 6.25 0 0 0 23.25 21m4-9.25h-2.52q.018.124.02.25v9q0 .595-.09 1.183A3.25 3.25 0 0 0 27.25 19z"/></svg>