<svg xmlns="http://www.w3.org/2000/svg" width="32" height="32" fill="none" viewBox="0 0 32 32"><path fill="#000" d="M21 2.25a8.742 8.742 0 0 0-8.657 10l-8.75 11.933a1.74 1.74 0 0 0 .173 2.27l1.788 1.788a1.74 1.74 0 0 0 2.271.174l11.933-8.75A8.75 8.75 0 1 0 21 2.25M28.25 11a7.2 7.2 0 0 1-1.625 4.565L16.436 5.375A7.244 7.244 0 0 1 28.25 11M6.937 27.199a.25.25 0 0 1-.325-.025l-1.786-1.787a.25.25 0 0 1-.025-.325l8.028-10.945a8.8 8.8 0 0 0 5.055 5.054zM13.75 11c0-1.663.573-3.276 1.625-4.565l10.191 10.19A7.25 7.25 0 0 1 13.75 11m-.219 7.469a.747.747 0 0 1 0 1.061l-1 1a.75.75 0 1 1-1.061-1.061l1-1a.75.75 0 0 1 1.063-.002z"/></svg>