<svg xmlns="http://www.w3.org/2000/svg" width="32" height="32" fill="none" viewBox="0 0 32 32"><path fill="#000" d="m26.555 26.5-20-22a.75.75 0 0 0-1.11 1l4.805 5.29V16a5.75 5.75 0 0 0 9.03 4.723l1.691 1.86A8.25 8.25 0 0 1 7.75 16a.75.75 0 1 0-1.5 0 9.76 9.76 0 0 0 9 9.719V29a.75.75 0 1 0 1.5 0V25.72a9.7 9.7 0 0 0 5.233-2.023l3.462 3.804a.75.75 0 0 0 1.11-1.01zM16 20.25A4.25 4.25 0 0 1 11.75 16v-3.56l6.509 7.16a4.24 4.24 0 0 1-2.259.65M11.108 4.98A5.75 5.75 0 0 1 21.75 8v7.554a.75.75 0 1 1-1.5 0V8a4.25 4.25 0 0 0-7.867-2.232A.748.748 0 0 1 11 5.554a.75.75 0 0 1 .107-.575M23.688 19a8.2 8.2 0 0 0 .562-3 .75.75 0 1 1 1.5 0 9.7 9.7 0 0 1-.665 3.546.75.75 0 1 1-1.398-.546"/></svg>