<svg xmlns="http://www.w3.org/2000/svg" width="32" height="32" fill="none" viewBox="0 0 32 32"><path fill="#000" d="M14.75 16a3.75 3.75 0 1 0-7.5 0 3.75 3.75 0 0 0 7.5 0m-6 0a2.25 2.25 0 1 1 4.5 0 2.25 2.25 0 0 1-4.5 0M27 13.25h-1.25V6A1.75 1.75 0 0 0 24 4.25H14A1.75 1.75 0 0 0 12.25 6v2.25H5A1.75 1.75 0 0 0 3.25 10v12A1.75 1.75 0 0 0 5 23.75h4.25V26A1.75 1.75 0 0 0 11 27.75h16A1.75 1.75 0 0 0 28.75 26V15A1.75 1.75 0 0 0 27 13.25m-6.719 7.25 6.969-5.034v10.068zM13.75 6a.25.25 0 0 1 .25-.25h10a.25.25 0 0 1 .25.25v9.784L19 19.575l-.25-.181V10A1.75 1.75 0 0 0 17 8.25h-3.25zm-9 16V10A.25.25 0 0 1 5 9.75h12a.25.25 0 0 1 .25.25v12a.25.25 0 0 1-.25.25H5a.25.25 0 0 1-.25-.25m6 4v-2.25H17A1.75 1.75 0 0 0 18.75 22v-.75l6.93 5H11a.25.25 0 0 1-.25-.25"/></svg>