<svg xmlns="http://www.w3.org/2000/svg" width="32" height="32" fill="none" viewBox="0 0 32 32"><path fill="#000" d="M16 20.75a4.75 4.75 0 1 0 0-9.5 4.75 4.75 0 0 0 0 9.5m0-8a3.25 3.25 0 1 1 0 6.5 3.25 3.25 0 0 1 0-6.5m14-5.5H2a.75.75 0 0 0-.75.75v16a.75.75 0 0 0 .75.75h28a.75.75 0 0 0 .75-.75V8a.75.75 0 0 0-.75-.75M2.75 13.602A6.84 6.84 0 0 0 7.603 8.75h16.795a6.84 6.84 0 0 0 4.852 4.852v4.796a6.84 6.84 0 0 0-4.852 4.852H7.602a6.84 6.84 0 0 0-4.853-4.852zm26.5-1.566a5.35 5.35 0 0 1-3.286-3.286h3.286zM6.036 8.75a5.35 5.35 0 0 1-3.286 3.286V8.75zM2.75 19.964a5.35 5.35 0 0 1 3.286 3.286H2.75zm23.214 3.286a5.35 5.35 0 0 1 3.286-3.286v3.286z"/></svg>