<svg xmlns="http://www.w3.org/2000/svg" width="32" height="32" fill="none" viewBox="0 0 32 32"><path fill="#000" d="M29.75 12a.75.75 0 0 1-.75.75h-2.25V15a.75.75 0 0 1-1.5 0v-2.25H23a.75.75 0 1 1 0-1.5h2.25V9a.75.75 0 1 1 1.5 0v2.25H29a.75.75 0 0 1 .75.75M18 6.75h1.25V8a.75.75 0 1 0 1.5 0V6.75H22a.75.75 0 0 0 0-1.5h-1.25V4a.75.75 0 0 0-1.5 0v1.25H18a.75.75 0 1 0 0 1.5m8.906 12.535a.75.75 0 0 1 .134.75A11.751 11.751 0 1 1 11.97 4.96a.75.75 0 0 1 .992.849 11.262 11.262 0 0 0 13.23 13.229.75.75 0 0 1 .714.247m-1.796 1.418q-.552.047-1.11.047A12.765 12.765 0 0 1 11.298 6.89 10.25 10.25 0 1 0 25.11 20.703"/></svg>