<svg xmlns="http://www.w3.org/2000/svg" width="32" height="32" fill="none" viewBox="0 0 32 32"><path fill="#000" d="M26 5.25h-5.31a4.75 4.75 0 0 0-9.375 0H6a.75.75 0 0 0 0 1.5h5.31a4.75 4.75 0 0 0 1.839 3.046A7.76 7.76 0 0 0 8.25 17v8A1.75 1.75 0 0 0 10 26.75h2.25V27a3.75 3.75 0 0 0 7.5 0v-.25H22A1.75 1.75 0 0 0 23.75 25v-8a7.76 7.76 0 0 0-4.899-7.204A4.75 4.75 0 0 0 20.69 6.75H26a.75.75 0 1 0 0-1.5M18.25 27a2.25 2.25 0 0 1-4.5 0v-6a2.25 2.25 0 1 1 4.5 0zm4-10v8a.25.25 0 0 1-.25.25h-2.25V21a3.75 3.75 0 0 0-7.5 0v4.25H10a.25.25 0 0 1-.25-.25v-8a6.25 6.25 0 0 1 12.5 0M16 9.25a3.25 3.25 0 1 1 0-6.5 3.25 3.25 0 0 1 0 6.5"/></svg>