<svg xmlns="http://www.w3.org/2000/svg" width="32" height="32" fill="none" viewBox="0 0 32 32"><path fill="#000" d="M27 16.25q-.477 0-.945.095L21.703 4.736A.75.75 0 0 0 21 4.25h-4a.75.75 0 1 0 0 1.5h3.48l4.171 11.125a4.76 4.76 0 0 0-2.341 3.375h-5.415l-3.192-8.514A.75.75 0 0 0 13 11.25H3a.75.75 0 1 0 0 1.5h1.25v2.084A6.77 6.77 0 0 0 .25 21a.75.75 0 0 0 .75.75h1.31a4.75 4.75 0 0 0 9.375 0H22.31a4.75 4.75 0 1 0 4.69-5.5m-21.75-.201a.75.75 0 0 0 .5-.708V12.75h6.73l2.813 7.5H1.803a5.26 5.26 0 0 1 3.447-4.201M7 24.25a3.25 3.25 0 0 1-3.161-2.5h6.322A3.25 3.25 0 0 1 7 24.25m20 0a3.25 3.25 0 0 1-1.812-5.946l1.11 2.96a.75.75 0 1 0 1.405-.528l-1.11-2.96q.202-.026.407-.026a3.25 3.25 0 1 1 0 6.5"/></svg>