<svg xmlns="http://www.w3.org/2000/svg" width="32" height="32" fill="none" viewBox="0 0 32 32"><path fill="#000" d="M28 16.25a2.7 2.7 0 0 0-1.25.301V16c0-5.089-3.664-7.527-6.609-9.487C18.321 5.3 16.75 4.25 16.75 3a.75.75 0 1 0-1.5 0c0 1.25-1.571 2.301-3.391 3.513C8.914 8.473 5.25 10.91 5.25 16v.551a2.75 2.75 0 0 0-4 2.449v7a.75.75 0 0 0 .75.75h8a.75.75 0 0 0 .75-.75v-4a1.25 1.25 0 0 1 2.5 0v4a.75.75 0 0 0 .75.75h4a.75.75 0 0 0 .75-.75v-4a1.25 1.25 0 0 1 2.5 0v4a.75.75 0 0 0 .75.75h8a.75.75 0 0 0 .75-.75v-7A2.75 2.75 0 0 0 28 16.25M12.69 7.761C13.986 6.9 15.238 6.066 16 5.065c.762 1 2.014 1.834 3.31 2.696 2.616 1.739 5.565 3.703 5.906 7.489H6.784c.341-3.786 3.29-5.75 5.906-7.489M2.75 19a1.25 1.25 0 0 1 2.5 0v6.25h-2.5zm17.25.25A2.75 2.75 0 0 0 17.25 22v3.25h-2.5V22a2.75 2.75 0 1 0-5.5 0v3.25h-2.5v-8.5h18.5v8.5h-2.5V22A2.75 2.75 0 0 0 20 19.25m9.25 6h-2.5V19a1.25 1.25 0 0 1 2.5 0z"/></svg>