<svg xmlns="http://www.w3.org/2000/svg" width="32" height="32" fill="none" viewBox="0 0 32 32"><path fill="#000" d="M27 15.25q-.496 0-.984.102L25.113 13A7.2 7.2 0 0 1 27 12.75a.75.75 0 1 0 0-1.5h-2.561L22.7 6.731a.75.75 0 0 0-.7-.481h-4a.75.75 0 1 0 0 1.5h3.485l1.346 3.5H19c-2.25 0-4.072.519-5.262 1.5a2.26 2.26 0 0 1-2.363.294C9.737 12.297 3.8 9.899 3.25 9.682l-.715-.28Q2.279 9.287 2 9.25a.75.75 0 0 0-.269 1.45c.058.023 5.891 2.283 9.029 3.709a3.77 3.77 0 0 0 3.934-.5c.917-.75 2.406-1.157 4.307-1.157h3.111a8.75 8.75 0 0 0-3.54 4.892 2.23 2.23 0 0 1-2.157 1.606H9.69a4.75 4.75 0 1 0 0 1.5h6.725a3.74 3.74 0 0 0 3.601-2.705 7.25 7.25 0 0 1 3.698-4.5l.904 2.35A4.75 4.75 0 1 0 27 15.25m-22 5.5h3.161a3.25 3.25 0 1 1 0-1.5H5a.75.75 0 1 0 0 1.5m22 2.5a3.25 3.25 0 0 1-1.835-5.931l1.135 2.95a.75.75 0 0 0 1.4-.538l-1.135-2.951q.217-.03.435-.03a3.25 3.25 0 0 1 0 6.5"/></svg>