<svg xmlns="http://www.w3.org/2000/svg" width="32" height="32" fill="none" viewBox="0 0 32 32"><path fill="#000" d="M20.5 9.75a3.25 3.25 0 1 0 0-6.5 3.25 3.25 0 0 0 0 6.5m0-5a1.75 1.75 0 1 1 0 3.5 1.75 1.75 0 0 1 0-3.5m11.145 19.868-6.82-11.51a1.74 1.74 0 0 0-2.364-.63c-.264.151-.483.368-.636.63l-3.485 5.88-5.82-9.874a1.75 1.75 0 0 0-3.016 0L.354 24.625A.75.75 0 0 0 1 25.75h30a.75.75 0 0 0 .645-1.133M10.784 9.875a.25.25 0 0 1 .432 0l3.168 5.375H7.616zM2.312 24.25l4.42-7.5h8.537l2.412 4.096 2 3.4zm19.117 0-2.232-3.786 3.907-6.589a.25.25 0 0 1 .34-.092.24.24 0 0 1 .09.092l6.15 10.375z"/></svg>