<svg xmlns="http://www.w3.org/2000/svg" width="32" height="32" fill="none" viewBox="0 0 32 32"><path fill="#000" d="M28.75 7a.75.75 0 0 1-.75.75h-2.25V10a.75.75 0 1 1-1.5 0V7.75H22a.75.75 0 1 1 0-1.5h2.25V4a.75.75 0 1 1 1.5 0v2.25H28a.75.75 0 0 1 .75.75m-18 7.585V25.5a4.257 4.257 0 1 1-1.5-3.236V8a.75.75 0 0 1 .567-.727l7-1.75a.75.75 0 0 1 .366 1.455L10.75 8.585v4.455l9.067-2.267a.75.75 0 1 1 .366 1.454zM9.25 25.5a2.75 2.75 0 1 0-5.5 0 2.75 2.75 0 0 0 5.5 0M26.75 15v6.5a4.258 4.258 0 1 1-1.5-3.236V15a.75.75 0 1 1 1.5 0m-1.5 6.5a2.75 2.75 0 1 0-5.5 0 2.75 2.75 0 0 0 5.5 0"/></svg>