<svg xmlns="http://www.w3.org/2000/svg" width="32" height="32" fill="none" viewBox="0 0 32 32"><path fill="#000" d="M28.581 12.513 6.59 4.352h-.016a1.75 1.75 0 0 0-2.226 2.22v.017l8.165 21.991a1.72 1.72 0 0 0 1.647 1.169h.033a1.72 1.72 0 0 0 1.642-1.235l2.945-9.57a.25.25 0 0 1 .165-.165l9.57-2.945a1.75 1.75 0 0 0 .066-3.323m-.507 1.888L18.5 17.346a1.75 1.75 0 0 0-1.157 1.158l-2.945 9.57a.23.23 0 0 1-.236.176.23.23 0 0 1-.24-.169v-.015L5.765 6.078a.25.25 0 0 1 .314-.314l21.988 8.157h.015a.25.25 0 0 1-.007.475z"/></svg>