<svg xmlns="http://www.w3.org/2000/svg" width="32" height="32" fill="none" viewBox="0 0 32 32"><path fill="#000" d="M23.53 8.47a.75.75 0 0 1 0 1.06l-2 2a.75.75 0 0 1-1.06-1.06l2-2a.75.75 0 0 1 1.06 0m4.22.53a4.72 4.72 0 0 1-1.391 3.359l-3 3a.75.75 0 0 1-.404.209C16.438 16.692 5.64 27.423 5.53 27.53a.765.765 0 0 1-.53.22.75.75 0 0 1-.53-1.28c.175-.176 10.848-10.93 11.961-17.424a.75.75 0 0 1 .21-.404l3-3A4.75 4.75 0 0 1 27.75 9m-1.5 0a3.25 3.25 0 0 0-5.547-2.298l-2.837 2.835c-.517 2.6-2.327 5.952-5.39 9.988 4.035-3.064 7.388-4.875 9.987-5.391l2.835-2.837A3.22 3.22 0 0 0 26.25 9"/></svg>