<svg xmlns="http://www.w3.org/2000/svg" width="32" height="32" fill="none" viewBox="0 0 32 32"><path fill="#000" d="M22.75 14a.75.75 0 0 1-.75.75H12a.75.75 0 1 1 0-1.5h10a.75.75 0 0 1 .75.75M22 17.25H12a.75.75 0 1 0 0 1.5h10a.75.75 0 1 0 0-1.5M28.75 8v15A2.75 2.75 0 0 1 26 25.75H4a2.75 2.75 0 0 1-2.75-2.739V11a.75.75 0 1 1 1.5 0v12a1.25 1.25 0 0 0 2.5 0V8A1.75 1.75 0 0 1 7 6.25h20A1.75 1.75 0 0 1 28.75 8m-1.5 0a.25.25 0 0 0-.25-.25H7a.25.25 0 0 0-.25.25v15c0 .435-.103.863-.301 1.25H26A1.25 1.25 0 0 0 27.25 23z"/></svg>