<svg xmlns="http://www.w3.org/2000/svg" width="32" height="32" fill="none" viewBox="0 0 32 32"><path fill="#000" d="M27 5.25H5A1.75 1.75 0 0 0 3.25 7v20a.75.75 0 0 0 1.085.671L8 25.84l3.665 1.832a.75.75 0 0 0 .67 0L16 25.84l3.665 1.832a.75.75 0 0 0 .67 0L24 25.84l3.665 1.832A.75.75 0 0 0 28.75 27V7A1.75 1.75 0 0 0 27 5.25m.25 20.536-2.915-1.457a.75.75 0 0 0-.67 0L20 26.16l-3.665-1.832a.75.75 0 0 0-.67 0L12 26.16 8.335 24.33a.75.75 0 0 0-.67 0L4.75 25.786V7A.25.25 0 0 1 5 6.75h22a.25.25 0 0 1 .25.25zM24.75 14a.75.75 0 0 1-.75.75h-6a.75.75 0 1 1 0-1.5h6a.75.75 0 0 1 .75.75m0 4a.75.75 0 0 1-.75.75h-6a.75.75 0 1 1 0-1.5h6a.75.75 0 0 1 .75.75M14 11.25H8a.75.75 0 0 0-.75.75v8a.75.75 0 0 0 .75.75h6a.75.75 0 0 0 .75-.75v-8a.75.75 0 0 0-.75-.75m-.75 8h-4.5v-6.5h4.5z"/></svg>