<svg xmlns="http://www.w3.org/2000/svg" width="32" height="32" fill="none" viewBox="0 0 32 32"><path fill="#000" d="M11.25 12a.75.75 0 0 1 .75-.75h8a.75.75 0 1 1 0 1.5h-8a.75.75 0 0 1-.75-.75m.75 4.75h8a.75.75 0 1 0 0-1.5h-8a.75.75 0 1 0 0 1.5m4 2.5h-4a.75.75 0 1 0 0 1.5h4a.75.75 0 1 0 0-1.5M27.75 6v13.586a1.74 1.74 0 0 1-.512 1.238l-6.414 6.413a1.74 1.74 0 0 1-1.238.513H6A1.75 1.75 0 0 1 4.25 26V6A1.75 1.75 0 0 1 6 4.25h20A1.75 1.75 0 0 1 27.75 6M6 26.25h13.25V20a.75.75 0 0 1 .75-.75h6.25V6a.25.25 0 0 0-.25-.25H6a.25.25 0 0 0-.25.25v20a.25.25 0 0 0 .25.25m19.19-5.5h-4.44v4.44z"/></svg>