<svg xmlns="http://www.w3.org/2000/svg" width="32" height="32" fill="none" viewBox="0 0 32 32"><path fill="#000" d="M20.75 16a.75.75 0 0 1-.75.75h-8a.75.75 0 1 1 0-1.5h8a.75.75 0 0 1 .75.75M20 19.25h-8a.75.75 0 1 0 0 1.5h8a.75.75 0 1 0 0-1.5M26.75 6v19A3.75 3.75 0 0 1 23 28.75H9A3.75 3.75 0 0 1 5.25 25V6A1.75 1.75 0 0 1 7 4.25h2.25V3a.75.75 0 0 1 1.5 0v1.25h4.5V3a.75.75 0 1 1 1.5 0v1.25h4.5V3a.75.75 0 1 1 1.5 0v1.25H25A1.75 1.75 0 0 1 26.75 6m-1.5 0a.25.25 0 0 0-.25-.25h-2.25V7a.75.75 0 1 1-1.5 0V5.75h-4.5V7a.75.75 0 1 1-1.5 0V5.75h-4.5V7a.75.75 0 1 1-1.5 0V5.75H7a.25.25 0 0 0-.25.25v19A2.25 2.25 0 0 0 9 27.25h14A2.25 2.25 0 0 0 25.25 25z"/></svg>