<svg xmlns="http://www.w3.org/2000/svg" width="32" height="32" fill="none" viewBox="0 0 32 32"><path fill="#000" d="m28.53 7.47-4-4a.75.75 0 0 0-1.06 0l-12 12a.75.75 0 0 0-.22.53v4a.75.75 0 0 0 .75.75h4a.75.75 0 0 0 .53-.22l12-12a.75.75 0 0 0 0-1.06M15.689 19.25H12.75v-2.939L21 8.061l2.939 2.94zM25 9.94 22.061 7 24 5.061l2.939 2.94zM27.75 15v11A1.75 1.75 0 0 1 26 27.75H6A1.75 1.75 0 0 1 4.25 26V6A1.75 1.75 0 0 1 6 4.25h11a.75.75 0 1 1 0 1.5H6a.25.25 0 0 0-.25.25v20a.25.25 0 0 0 .25.25h20a.25.25 0 0 0 .25-.25V15a.75.75 0 1 1 1.5 0"/></svg>