<svg xmlns="http://www.w3.org/2000/svg" width="32" height="32" fill="none" viewBox="0 0 32 32"><path fill="#000" d="M26 4.25H6A1.75 1.75 0 0 0 4.25 6v20A1.75 1.75 0 0 0 6 27.75h20A1.75 1.75 0 0 0 27.75 26V6A1.75 1.75 0 0 0 26 4.25M26.25 26a.25.25 0 0 1-.25.25H6a.25.25 0 0 1-.25-.25V6A.25.25 0 0 1 6 5.75h20a.25.25 0 0 1 .25.25zM14.635 10.75l-.625 3.75a4.5 4.5 0 0 1 1.49-.25 4.25 4.25 0 0 1 0 8.5 4.2 4.2 0 0 1-3.036-1.225.75.75 0 0 1 1.072-1.05 2.7 2.7 0 0 0 1.964.775 2.75 2.75 0 1 0 0-5.5 2.7 2.7 0 0 0-1.964.775.75.75 0 0 1-1.276-.65l1-6A.75.75 0 0 1 14 9.25h5a.75.75 0 1 1 0 1.5z"/></svg>