<svg xmlns="http://www.w3.org/2000/svg" width="32" height="32" fill="none" viewBox="0 0 32 32"><path fill="#000" d="M26 4.25H6A1.75 1.75 0 0 0 4.25 6v20A1.75 1.75 0 0 0 6 27.75h20A1.75 1.75 0 0 0 27.75 26V6A1.75 1.75 0 0 0 26 4.25M26.25 26a.25.25 0 0 1-.25.25H6a.25.25 0 0 1-.25-.25V6A.25.25 0 0 1 6 5.75h20a.25.25 0 0 1 .25.25zm-6.5-4a.75.75 0 0 1-.75.75h-6a.75.75 0 0 1-.6-1.2l5.396-7.195a2.25 2.25 0 1 0-3.921-2.105.749.749 0 1 1-1.414-.5A3.75 3.75 0 1 1 19 15.258l-4.5 5.992H19a.75.75 0 0 1 .75.75"/></svg>