<svg xmlns="http://www.w3.org/2000/svg" width="32" height="32" fill="none" viewBox="0 0 32 32"><path fill="#000" d="M26 4.25H6A1.75 1.75 0 0 0 4.25 6v20A1.75 1.75 0 0 0 6 27.75h20A1.75 1.75 0 0 0 27.75 26V6A1.75 1.75 0 0 0 26 4.25M26.25 26a.25.25 0 0 1-.25.25H6a.25.25 0 0 1-.25-.25V6A.25.25 0 0 1 6 5.75h20a.25.25 0 0 1 .25.25zM18.125 9.819a4.25 4.25 0 1 0-2.133 7.931q.357 0 .71-.061l-2.346 3.927a.75.75 0 0 0 1.288.77l4.037-6.761a4.25 4.25 0 0 0-1.556-5.806m.258 5.056a2.75 2.75 0 1 1-4.767-2.739 2.75 2.75 0 0 1 4.765 2.739z"/></svg>