<svg xmlns="http://www.w3.org/2000/svg" width="32" height="32" fill="none" viewBox="0 0 32 32"><path fill="#000" d="M16 3.25A12.75 12.75 0 1 0 28.75 16 12.765 12.765 0 0 0 16 3.25m0 24A11.25 11.25 0 1 1 27.25 16 11.26 11.26 0 0 1 16 27.25m0-18c-1.69 0-3.086.765-4.036 2.214-.783 1.191-1.214 2.802-1.214 4.536s.431 3.345 1.213 4.536c.95 1.449 2.346 2.214 4.037 2.214s3.086-.765 4.036-2.214c.783-1.191 1.214-2.802 1.214-4.536s-.431-3.345-1.212-4.536C19.086 10.015 17.69 9.25 16 9.25m0 12c-2.59 0-3.75-2.636-3.75-5.25s1.16-5.25 3.75-5.25 3.75 2.636 3.75 5.25-1.16 5.25-3.75 5.25"/></svg>