<svg xmlns="http://www.w3.org/2000/svg" width="32" height="32" fill="none" viewBox="0 0 32 32"><path fill="#000" d="M16 9.25c-1.69 0-3.086.765-4.036 2.214-.783 1.191-1.214 2.802-1.214 4.536s.431 3.345 1.213 4.536c.95 1.449 2.346 2.214 4.037 2.214s3.086-.765 4.036-2.214c.783-1.191 1.214-2.802 1.214-4.536s-.431-3.345-1.212-4.536C19.086 10.015 17.69 9.25 16 9.25m0 12c-2.59 0-3.75-2.636-3.75-5.25s1.16-5.25 3.75-5.25 3.75 2.636 3.75 5.25-1.16 5.25-3.75 5.25m10-17H6A1.75 1.75 0 0 0 4.25 6v20A1.75 1.75 0 0 0 6 27.75h20A1.75 1.75 0 0 0 27.75 26V6A1.75 1.75 0 0 0 26 4.25M26.25 26a.25.25 0 0 1-.25.25H6a.25.25 0 0 1-.25-.25V6A.25.25 0 0 1 6 5.75h20a.25.25 0 0 1 .25.25z"/></svg>