<svg xmlns="http://www.w3.org/2000/svg" width="32" height="32" fill="none" viewBox="0 0 32 32"><path fill="#000" d="M26 4.25H6A1.75 1.75 0 0 0 4.25 6v20A1.75 1.75 0 0 0 6 27.75h20A1.75 1.75 0 0 0 27.75 26V6A1.75 1.75 0 0 0 26 4.25M26.25 26a.25.25 0 0 1-.25.25H6a.25.25 0 0 1-.25-.25V6A.25.25 0 0 1 6 5.75h20a.25.25 0 0 1 .25.25zm-6.5-7.5a4.25 4.25 0 0 1-7.286 2.974.751.751 0 0 1 1.072-1.049A2.75 2.75 0 1 0 15.5 15.75a.75.75 0 0 1-.615-1.18l2.675-3.82H13a.75.75 0 1 1 0-1.5h6a.75.75 0 0 1 .615 1.18l-2.816 4.023A4.26 4.26 0 0 1 19.75 18.5"/></svg>