<svg xmlns="http://www.w3.org/2000/svg" width="32" height="32" fill="none" viewBox="0 0 32 32"><path fill="#000" d="M26 4.25H6A1.75 1.75 0 0 0 4.25 6v20A1.75 1.75 0 0 0 6 27.75h20A1.75 1.75 0 0 0 27.75 26V6A1.75 1.75 0 0 0 26 4.25M26.25 26a.25.25 0 0 1-.25.25H6a.25.25 0 0 1-.25-.25V6A.25.25 0 0 1 6 5.75h20a.25.25 0 0 1 .25.25zm-5.5-8a.75.75 0 0 1-.75.75h-1.25V22a.75.75 0 1 1-1.5 0v-3.25H12a.75.75 0 0 1-.711-.988l3-9a.751.751 0 1 1 1.422.476L13.04 17.25h4.21V14a.75.75 0 1 1 1.5 0v3.25H20a.75.75 0 0 1 .75.75"/></svg>