<svg xmlns="http://www.w3.org/2000/svg" width="32" height="32" fill="none" viewBox="0 0 32 32"><path fill="#000" d="M16 10.25A5.75 5.75 0 1 0 21.75 16 5.76 5.76 0 0 0 16 10.25m0 10a4.25 4.25 0 1 1 0-8.502 4.25 4.25 0 0 1 0 8.502M27.84 8.489l-11-6.023a1.74 1.74 0 0 0-1.68 0l-11 6.023a1.75 1.75 0 0 0-.91 1.533v11.955a1.75 1.75 0 0 0 .91 1.534l11 6.023a1.74 1.74 0 0 0 1.68 0l11-6.023a1.75 1.75 0 0 0 .91-1.534V10.022a1.75 1.75 0 0 0-.91-1.533m-.59 13.488a.25.25 0 0 1-.125.22l-11 6.022a.25.25 0 0 1-.24 0l-11.01-6.023a.25.25 0 0 1-.125-.219V10.022a.25.25 0 0 1 .125-.218l11-6.023a.25.25 0 0 1 .24 0l11 6.023a.25.25 0 0 1 .125.218z"/></svg>