<svg xmlns="http://www.w3.org/2000/svg" width="32" height="32" fill="none" viewBox="0 0 32 32"><path fill="#000" d="M21.5 17.25a1.25 1.25 0 1 1 0 2.499 1.25 1.25 0 0 1 0-2.499m1.683-4.57-8.278-3.864A9.25 9.25 0 0 0 6.75 18v.082l8.895-4.743A.75.75 0 0 1 16.75 14v13.22a9.2 9.2 0 0 0 8.076-6.445.75.75 0 0 1 1.431.45 10.75 10.75 0 1 1-19.436-8.821A4.25 4.25 0 0 1 8.5 4.25a.75.75 0 0 1 .317.07l14.84 6.93a2.751 2.751 0 0 0-.157-5.5.75.75 0 0 1 0-1.5 4.25 4.25 0 0 1 0 8.5.75.75 0 0 1-.317-.07M12.75 26.659c.803.302 1.645.49 2.5.559V15.25l-2.5 1.334zm-5.841-6.96a9.28 9.28 0 0 0 4.341 6.235v-8.55zm5.767-11.923L8.342 5.75a2.75 2.75 0 0 0-.616 5.381c.108-.125.219-.257.334-.383a10.75 10.75 0 0 1 4.616-2.972"/></svg>