<svg xmlns="http://www.w3.org/2000/svg" width="32" height="32" fill="none" viewBox="0 0 32 32"><path fill="#000" d="m28.238 10.206-6.444-6.443a1.74 1.74 0 0 0-1.238-.513h-9.112a1.74 1.74 0 0 0-1.238.513l-6.443 6.443a1.74 1.74 0 0 0-.513 1.238v9.112a1.74 1.74 0 0 0 .513 1.238l6.443 6.444a1.74 1.74 0 0 0 1.238.512h9.112a1.74 1.74 0 0 0 1.238-.512l6.444-6.444a1.74 1.74 0 0 0 .512-1.238v-9.112a1.74 1.74 0 0 0-.512-1.238m-.988 10.35a.25.25 0 0 1-.074.178l-6.443 6.442a.25.25 0 0 1-.177.074h-9.112a.25.25 0 0 1-.178-.074l-6.442-6.442a.25.25 0 0 1-.074-.178v-9.112a.25.25 0 0 1 .074-.178l6.444-6.442a.25.25 0 0 1 .176-.074h9.112a.25.25 0 0 1 .178.074l6.442 6.444a.25.25 0 0 1 .074.176z"/></svg>