<svg xmlns="http://www.w3.org/2000/svg" width="32" height="32" fill="none" viewBox="0 0 32 32"><path fill="#000" d="M30.75 16a.75.75 0 0 1-.75.75h-2.299a5.76 5.76 0 0 1-5.701 5h-5.25v3.5H20A3.75 3.75 0 0 1 23.75 29a.75.75 0 1 1-1.5 0A2.25 2.25 0 0 0 20 26.75h-3.25V29a.75.75 0 1 1-1.5 0v-2.25H12A2.25 2.25 0 0 0 9.75 29a.75.75 0 1 1-1.5 0A3.75 3.75 0 0 1 12 25.25h3.25v-3.5H10a5.76 5.76 0 0 1-5.701-5H2a.75.75 0 1 1 0-1.5h3a.75.75 0 0 1 .75.75A4.25 4.25 0 0 0 10 20.25h12A4.25 4.25 0 0 0 26.25 16a.75.75 0 0 1 .75-.75h3a.75.75 0 0 1 .75.75M8.679 17.146a1.75 1.75 0 0 1-.412-1.396l1.716-12a1.76 1.76 0 0 1 1.732-1.5h8.57a1.76 1.76 0 0 1 1.732 1.5l1.716 12a1.748 1.748 0 0 1-1.733 2H10a1.75 1.75 0 0 1-1.321-.604m1.132-.982a.25.25 0 0 0 .189.086h12a.25.25 0 0 0 .247-.285l-1.715-12a.25.25 0 0 0-.25-.215h-8.567a.25.25 0 0 0-.25.215l-1.715 12a.25.25 0 0 0 .061.199"/></svg>