<svg xmlns="http://www.w3.org/2000/svg" width="32" height="32" fill="none" viewBox="0 0 32 32"><path fill="#000" d="M31 10.25H1a.75.75 0 0 0-.75.75 15.75 15.75 0 1 0 31.5 0 .75.75 0 0 0-.75-.75m-21.693 8.5 5.943-5.94v8.41a10.2 10.2 0 0 1-5.943-2.47M8.25 17.692a10.2 10.2 0 0 1-2.47-5.942h8.41zm8.5-4.882 5.942 5.94a10.2 10.2 0 0 1-5.942 2.47zm7 4.882-5.94-5.942h8.41a10.2 10.2 0 0 1-2.47 5.942M16 25.25a14.27 14.27 0 0 1-14.23-13.5h2.5a11.75 11.75 0 0 0 23.45 0h2.5A14.267 14.267 0 0 1 16 25.25"/></svg>