<svg xmlns="http://www.w3.org/2000/svg" width="32" height="32" fill="none" viewBox="0 0 32 32"><path fill="#000" d="M28 3.25c-2.6 0-5.514 1.426-8.663 4.238-2.26 2.02-4.212 4.375-5.55 6.137A7.25 7.25 0 0 0 4.25 20.5c0 4.009-2.554 5.799-2.669 5.875A.75.75 0 0 0 2 27.75h9.5a7.25 7.25 0 0 0 6.875-9.538c1.76-1.333 4.115-3.29 6.135-5.55C27.324 9.515 28.75 6.6 28.75 4a.75.75 0 0 0-.75-.75m-16.5 23H3.831c.909-1.144 1.919-3.027 1.919-5.75a5.75 5.75 0 1 1 5.75 5.75m3.686-11.989c.45-.583.985-1.25 1.589-1.961a9.8 9.8 0 0 1 2.925 2.925 50 50 0 0 1-1.961 1.589 7.3 7.3 0 0 0-2.553-2.553m5.65-.037a11.3 11.3 0 0 0-3.06-3.06c2.605-2.857 6.099-5.914 9.419-6.359-.445 3.32-3.503 6.82-6.359 9.419"/></svg>