<svg xmlns="http://www.w3.org/2000/svg" width="32" height="32" fill="none" viewBox="0 0 32 32"><path fill="#000" d="M27 3.25H9A4.75 4.75 0 0 0 4.25 8v9A2.75 2.75 0 0 0 7 19.75h6a.25.25 0 0 1 .25.279l-.99 5.846a1 1 0 0 0-.01.125 3.75 3.75 0 0 0 7.5 0 1 1 0 0 0-.01-.125l-.99-5.846a.25.25 0 0 1 .25-.279h6A2.75 2.75 0 0 0 27.75 17V4a.75.75 0 0 0-.75-.75M9 4.75h13.25V10a.75.75 0 1 0 1.5 0V4.75h2.5v8.5H5.75V8A3.25 3.25 0 0 1 9 4.75m16 13.5h-6a1.75 1.75 0 0 0-1.733 2v.019l.983 5.79a2.25 2.25 0 0 1-4.5 0l.977-5.793v-.018A1.75 1.75 0 0 0 13 18.25H7A1.25 1.25 0 0 1 5.75 17v-2.25h20.5V17A1.25 1.25 0 0 1 25 18.25"/></svg>