<svg xmlns="http://www.w3.org/2000/svg" width="32" height="32" fill="none" viewBox="0 0 32 32"><path fill="#000" d="M28.654 3.346a3.756 3.756 0 0 0-5.304 0l-.029.03-6.862 7.648a.25.25 0 0 1-.363.009l-1.151-1.15a2.75 2.75 0 0 0-3.889 0L1.47 19.468a.75.75 0 0 0 0 1.061l10 10a.75.75 0 0 0 1.061 0l9.587-9.586a2.75 2.75 0 0 0 0-3.889l-1.15-1.151a.25.25 0 0 1 .008-.363l7.649-6.862.03-.029a3.756 3.756 0 0 0-.001-5.304M12 28.94 9.561 26.5l2.97-2.97a.75.75 0 0 0-1.061-1.061l-2.97 2.97L6.561 23.5l2.97-2.97a.75.75 0 1 0-1.061-1.061l-2.97 2.97L3.061 20 9 14.06 17.94 23zM27.606 7.576l-7.625 6.849a1.75 1.75 0 0 0-.069 2.54l1.15 1.15a1.25 1.25 0 0 1 0 1.769L19 21.939 10.061 13l2.055-2.056a1.25 1.25 0 0 1 1.769 0l1.15 1.15a1.75 1.75 0 0 0 2.54-.069L24.424 4.4a2.25 2.25 0 1 1 3.182 3.182z"/></svg>