<svg xmlns="http://www.w3.org/2000/svg" width="32" height="32" fill="none" viewBox="0 0 32 32"><path fill="#000" d="M28.969 20.415a.75.75 0 0 0-.938 0c-.113.085-2.781 2.258-2.781 5.085a3.25 3.25 0 0 0 6.5 0c0-2.828-2.668-5-2.781-5.085M28.5 27.25a1.75 1.75 0 0 1-1.75-1.75c0-1.485 1.099-2.819 1.75-3.479.651.66 1.75 2 1.75 3.479a1.75 1.75 0 0 1-1.75 1.75m.03-12.345L15.095 1.47a.75.75 0 0 0-1.061 0l-5.25 5.25-3.25-3.25a.75.75 0 0 0-1.061 1.06l3.25 3.25-5.668 5.669a2.75 2.75 0 0 0 0 3.888l10.608 10.608a2.75 2.75 0 0 0 3.888 0L28.53 15.966a.75.75 0 0 0 0-1.061M15.491 26.884a1.25 1.25 0 0 1-1.767 0L3.116 16.276a1.25 1.25 0 0 1 0-1.767l5.665-5.665 3.953 3.951a3.25 3.25 0 0 0 2.766 4.951 3.25 3.25 0 0 0 2.297-.951 3.25 3.25 0 0 0-4-5.064L9.843 7.782l4.722-4.72L26.94 15.435zM15.5 12.75a1.75 1.75 0 1 1 0 3.5 1.75 1.75 0 0 1 0-3.5"/></svg>