<svg xmlns="http://www.w3.org/2000/svg" width="32" height="32" fill="none" viewBox="0 0 32 32"><path fill="#000" d="M29 11.25h-2.25V8A1.75 1.75 0 0 0 25 6.25H6A1.75 1.75 0 0 0 4.25 8v3.25H2a.75.75 0 1 0 0 1.5h2.25V16A1.75 1.75 0 0 0 6 17.75h19A1.75 1.75 0 0 0 26.75 16v-3.25H29a.25.25 0 0 1 .25.25v6.25a.25.25 0 0 1-.181.24l-12.55 3.585a1.76 1.76 0 0 0-1.269 1.675V29a.75.75 0 1 0 1.5 0v-4.25a.25.25 0 0 1 .181-.24l12.55-3.585a1.76 1.76 0 0 0 1.269-1.675V13A1.75 1.75 0 0 0 29 11.25M25.25 16a.25.25 0 0 1-.25.25H6a.25.25 0 0 1-.25-.25V8A.25.25 0 0 1 6 7.75h19a.25.25 0 0 1 .25.25z"/></svg>