<svg xmlns="http://www.w3.org/2000/svg" width="32" height="32" fill="none" viewBox="0 0 32 32"><path fill="#000" d="M24.921 6.914A12.67 12.67 0 0 0 16 3.25h-.125A12.75 12.75 0 0 0 3.25 16c0 5.261 3.259 9.68 8.5 11.532.406.145.833.218 1.264.218A3.757 3.757 0 0 0 16.75 24 2.25 2.25 0 0 1 19 21.75h5.776a3.73 3.73 0 0 0 3.657-2.914c.219-.967.325-1.956.317-2.947a12.66 12.66 0 0 0-3.829-8.975M26.97 18.5a2.236 2.236 0 0 1-2.194 1.75H19A3.75 3.75 0 0 0 15.25 24a2.25 2.25 0 0 1-3 2.125C7.625 24.483 4.75 20.606 4.75 16A11.25 11.25 0 0 1 15.884 4.75H16a11.29 11.29 0 0 1 11.25 11.153c.007.873-.087 1.745-.28 2.597m-9.72-9a1.25 1.25 0 1 1-2.5 0 1.25 1.25 0 0 1 2.5 0m-5.5 3a1.25 1.25 0 1 1-2.5 0 1.25 1.25 0 0 1 2.5 0m0 7a1.25 1.25 0 1 1-2.5 0 1.25 1.25 0 0 1 2.5 0m11-7a1.25 1.25 0 1 1-2.5 0 1.25 1.25 0 0 1 2.5 0"/></svg>