<svg xmlns="http://www.w3.org/2000/svg" width="32" height="32" fill="none" viewBox="0 0 32 32"><path fill="#000" d="m27.86 14.461-21-11.985a1.75 1.75 0 0 0-2.5 2.107l3.875 11.31v.008q.03.089 0 .178L4.36 27.409A1.75 1.75 0 0 0 6 29.75c.303 0 .601-.08.865-.229l20.99-12.009a1.75 1.75 0 0 0 0-3.05zm-.744 1.75L6.125 28.216a.234.234 0 0 1-.284-.027.24.24 0 0 1-.07-.285L9.588 16.75H17a.75.75 0 1 0 0-1.5H9.598L5.768 4.088a.25.25 0 0 1 .357-.307l21 11.987a.24.24 0 0 1 .125.217.25.25 0 0 1-.134.223z"/></svg>