<svg xmlns="http://www.w3.org/2000/svg" width="32" height="32" fill="none" viewBox="0 0 32 32"><path fill="#000" d="M29.521 25.136 17.512 4.145a1.75 1.75 0 0 0-3.05 0l-11.986 21a1.75 1.75 0 0 0 2.106 2.506l11.31-3.875h.01c.057-.02.12-.02.177 0l11.33 3.875a1.75 1.75 0 0 0 2.112-2.509zm-1.332 1.021a.24.24 0 0 1-.285.072L16.75 22.413V15a.75.75 0 1 0-1.5 0v7.401L4.088 26.233a.23.23 0 0 1-.276-.076.23.23 0 0 1-.03-.277L15.769 4.875a.24.24 0 0 1 .217-.125.25.25 0 0 1 .223.134l12.008 20.991a.23.23 0 0 1-.027.282"/></svg>