<svg xmlns="http://www.w3.org/2000/svg" width="32" height="32" fill="none" viewBox="0 0 32 32"><path fill="#000" d="M28.235 3.765a1.73 1.73 0 0 0-1.712-.448h-.014l-23.992 7.28a1.75 1.75 0 0 0-.267 3.263l10.701 5.069a.26.26 0 0 1 .119.119l5.07 10.702a1.73 1.73 0 0 0 1.576 1q.075.002.151-.006a1.74 1.74 0 0 0 1.537-1.261L28.679 5.49v-.014a1.73 1.73 0 0 0-.444-1.712m-1 1.3-7.269 23.989v.014a.24.24 0 0 1-.22.18.23.23 0 0 1-.25-.142l-5-10.545 6.03-6.03a.75.75 0 0 0-1.061-1.061L13.44 17.5l-10.546-5a.25.25 0 0 1 .038-.467h.014L26.935 4.76a.24.24 0 0 1 .24.065.25.25 0 0 1 .065.24z"/></svg>