<svg xmlns="http://www.w3.org/2000/svg" width="32" height="32" fill="none" viewBox="0 0 32 32"><path fill="#000" d="M28.75 15a12.75 12.75 0 0 0-25.5 0 .75.75 0 0 0 .284.586l.016.014 11.7 8.775v2.875H14a.75.75 0 1 0 0 1.5h4a.75.75 0 1 0 0-1.5h-1.25v-2.875l11.7-8.775a.75.75 0 0 0 .3-.6m-1.525-.75h-5.488c-.162-5.365-2.062-8.577-3.553-10.287a11.275 11.275 0 0 1 9.041 10.287M16 3.929c.75.63 1.4 1.37 1.927 2.196 1.73 2.635 2.228 5.75 2.31 8.125h-8.473c.132-3.985 1.311-6.607 2.309-8.125A9.6 9.6 0 0 1 16 3.929m3.725 11.821L16 22.456l-3.725-6.706zm-9.166 0 3.077 5.54-7.386-5.54zm10.882 0h4.309l-7.386 5.54zM13.816 3.963c-1.491 1.71-3.391 4.922-3.554 10.287H4.775a11.275 11.275 0 0 1 9.041-10.287"/></svg>