<svg xmlns="http://www.w3.org/2000/svg" width="32" height="32" fill="none" viewBox="0 0 32 32"><path fill="#000" d="M29 24.25h-4.25v-3.5H28a.75.75 0 0 0 .727-.933l-4-16a.75.75 0 0 0-1.454 0l-4 16a.75.75 0 0 0 .727.933h3.25v3.5h-8.5v-2.5H16a.75.75 0 1 0 0-1.5h-1.25v-2.5H16a.75.75 0 1 0 0-1.5H5a.75.75 0 1 0 0 1.5h1.25v2.5H5a.75.75 0 1 0 0 1.5h1.25v2.5H3a.75.75 0 1 0 0 1.5h26a.75.75 0 1 0 0-1.5M24 7.092l3.04 12.158h-6.08zM7.75 17.75h5.5v2.5h-5.5zm0 4h5.5v2.5h-5.5zm6.75-10a3.25 3.25 0 1 0 0-6.5 3.25 3.25 0 0 0 0 6.5m0-5a1.75 1.75 0 1 1 0 3.5 1.75 1.75 0 0 1 0-3.5"/></svg>