<svg xmlns="http://www.w3.org/2000/svg" width="32" height="32" fill="none" viewBox="0 0 32 32"><path fill="#000" d="M5.75 7v18a.75.75 0 1 1-1.5 0V7a.75.75 0 0 1 1.5 0m10.823 7.051-2.823.916V12a.75.75 0 1 0-1.5 0v2.967l-2.822-.916a.75.75 0 1 0-.464 1.426l2.822.917-1.75 2.401a.75.75 0 1 0 1.213.882l1.75-2.4 1.75 2.4a.75.75 0 0 0 1.212-.882l-1.75-2.401 2.823-.916a.751.751 0 1 0-.464-1.427zm12.944.482a.75.75 0 0 0-.944-.482l-2.823.916V12a.75.75 0 1 0-1.5 0v2.967l-2.823-.916a.75.75 0 1 0-.463 1.426l2.822.917-1.744 2.401a.749.749 0 0 0 .999 1.088.8.8 0 0 0 .214-.206l1.75-2.4 1.75 2.4a.75.75 0 0 0 1.213-.882l-1.744-2.401 2.822-.916a.75.75 0 0 0 .471-.945"/></svg>