<svg xmlns="http://www.w3.org/2000/svg" width="32" height="32" fill="none" viewBox="0 0 32 32"><path fill="#000" d="M25 4.25h-5A1.75 1.75 0 0 0 18.25 6v20A1.75 1.75 0 0 0 20 27.75h5A1.75 1.75 0 0 0 26.75 26V6A1.75 1.75 0 0 0 25 4.25M25.25 26a.25.25 0 0 1-.25.25h-5a.25.25 0 0 1-.25-.25V6a.25.25 0 0 1 .25-.25h5a.25.25 0 0 1 .25.25zM12 4.25H7A1.75 1.75 0 0 0 5.25 6v20A1.75 1.75 0 0 0 7 27.75h5A1.75 1.75 0 0 0 13.75 26V6A1.75 1.75 0 0 0 12 4.25M12.25 26a.25.25 0 0 1-.25.25H7a.25.25 0 0 1-.25-.25V6A.25.25 0 0 1 7 5.75h5a.25.25 0 0 1 .25.25z"/></svg>