<svg xmlns="http://www.w3.org/2000/svg" width="32" height="32" fill="none" viewBox="0 0 32 32"><path fill="#000" d="M26.5 10.25a3.25 3.25 0 1 0 0 6.5 3.25 3.25 0 0 0 0-6.5m0 5a1.75 1.75 0 1 1 0-3.5 1.75 1.75 0 0 1 0 3.5M8.75 13.5a3.25 3.25 0 1 0-6.5 0 3.25 3.25 0 0 0 6.5 0M5.5 15.25a1.75 1.75 0 1 1 0-3.5 1.75 1.75 0 0 1 0 3.5m6-4.5a3.25 3.25 0 1 0 0-6.5 3.25 3.25 0 0 0 0 6.5m0-5a1.75 1.75 0 1 1 0 3.5 1.75 1.75 0 0 1 0-3.5m9 5a3.25 3.25 0 1 0 0-6.5 3.25 3.25 0 0 0 0 6.5m0-5a1.75 1.75 0 1 1 0 3.5 1.75 1.75 0 0 1 0-3.5m2.769 13.076a4.67 4.67 0 0 1-2.228-2.791 5.25 5.25 0 0 0-10.082 0 4.66 4.66 0 0 1-2.221 2.788 4.75 4.75 0 0 0 4.107 8.552 8.27 8.27 0 0 1 6.301 0c.586.25 1.217.377 1.854.375a4.75 4.75 0 0 0 2.269-8.924M21 26.25c-.439 0-.873-.088-1.276-.26a9.77 9.77 0 0 0-7.456 0 3.25 3.25 0 0 1-2.808-5.852 6.16 6.16 0 0 0 2.939-3.686 3.75 3.75 0 0 1 7.202 0 6.16 6.16 0 0 0 2.947 3.688A3.25 3.25 0 0 1 21 26.25"/></svg>