<svg xmlns="http://www.w3.org/2000/svg" width="32" height="32" fill="none" viewBox="0 0 32 32"><path fill="#000" d="M27.317 11.846a6.7 6.7 0 0 0-2.567-2.014A6.75 6.75 0 0 0 18 3.25h-7.5a1.75 1.75 0 0 0-1.698 1.325l-4.5 18A1.75 1.75 0 0 0 6 24.75h3.759l-.457 1.825A1.75 1.75 0 0 0 11 28.75h3.937a1.75 1.75 0 0 0 1.698-1.325l1.125-4.485a.25.25 0 0 1 .24-.19h4a6.75 6.75 0 0 0 5.32-10.904zM9.94 23.25h-3.94a.25.25 0 0 1-.244-.199.25.25 0 0 1 .002-.112l4.5-18a.25.25 0 0 1 .243-.189H18a5.25 5.25 0 0 1 5.211 4.609A7 7 0 0 0 22 9.25h-7a1.75 1.75 0 0 0-1.699 1.325l-3.125 12.486a.25.25 0 0 1-.237.189M23.17 10.881A5.243 5.243 0 0 1 18 15.25h-4.32l1.077-4.31a.25.25 0 0 1 .243-.19h7q.593 0 1.171.131m3.919 6.393A5.24 5.24 0 0 1 22 21.25h-4a1.75 1.75 0 0 0-1.698 1.325l-1.125 4.486a.25.25 0 0 1-.242.189H11a.25.25 0 0 1-.245-.199.25.25 0 0 1 .002-.112l2.5-10a.25.25 0 0 1 .25-.19h4.5a6.74 6.74 0 0 0 6.548-5.113q.025-.103.045-.205a5.26 5.26 0 0 1 2.5 5.842z"/></svg>