<svg xmlns="http://www.w3.org/2000/svg" width="32" height="32" fill="none" viewBox="0 0 32 32"><path fill="#000" d="m27.568 15.596-.02-.035-3.798-6.758V4A1.75 1.75 0 0 0 22 2.25H10A1.75 1.75 0 0 0 8.25 4v4.805l-3.8 6.756-.019.035a1.75 1.75 0 0 0 .169 1.826l10.805 14.035a.75.75 0 0 0 1.189 0l10.804-14.035.01-.013a1.75 1.75 0 0 0 .16-1.813M10 3.75h12a.25.25 0 0 1 .25.25v4.25H9.75V4a.25.25 0 0 1 .25-.25m6 14.5a1.75 1.75 0 1 1 0-3.5 1.75 1.75 0 0 1 0 3.5m10.204-1.735L16.75 28.797v-9.136a3.25 3.25 0 1 0-1.5 0v9.134l-9.454-12.28a.25.25 0 0 1-.025-.241L9.44 9.75h13.125l3.668 6.524a.25.25 0 0 1-.03.241"/></svg>