<svg xmlns="http://www.w3.org/2000/svg" width="32" height="32" fill="none" viewBox="0 0 32 32"><path fill="#000" d="m28.239 9.349-5.587-5.587a1.75 1.75 0 0 0-2.475 0L4.763 19.176a1.74 1.74 0 0 0-.513 1.238V26A1.75 1.75 0 0 0 6 27.75h5.586a1.74 1.74 0 0 0 1.238-.513l10.77-10.77.576 2.303-4.7 4.7a.75.75 0 1 0 1.061 1.06l5-5a.75.75 0 0 0 .198-.713l-.898-3.587 3.408-3.406a1.75 1.75 0 0 0 0-2.475M5.75 25.999v-4.188l4.44 4.439H6a.25.25 0 0 1-.25-.25m6.25-.06-5.94-5.94L17 9.062 22.94 15zm15.177-15.177L24 13.94 18.061 8l3.177-3.176a.25.25 0 0 1 .353 0l5.586 5.585a.25.25 0 0 1 0 .353"/></svg>