<svg xmlns="http://www.w3.org/2000/svg" width="32" height="32" fill="none" viewBox="0 0 32 32"><path fill="#000" d="M28.238 9.347 22.65 3.761a1.75 1.75 0 0 0-2.475 0L4.763 19.176a1.74 1.74 0 0 0-.513 1.238V26A1.75 1.75 0 0 0 6 27.75h5.586a1.74 1.74 0 0 0 1.238-.513l15.414-15.415a1.75 1.75 0 0 0 0-2.475M6.06 20 17 9.06l2.439 2.44L8.5 22.439zm-.311 6v-4.19l4.439 4.44H6a.25.25 0 0 1-.25-.25m6.25-.061-2.439-2.44L20.5 12.56 22.939 15zm15.176-15.177L24 13.94l-5.939-5.94 3.177-3.177a.25.25 0 0 1 .353 0l5.585 5.587a.25.25 0 0 1 0 .353"/></svg>