<svg xmlns="http://www.w3.org/2000/svg" width="32" height="32" fill="none" viewBox="0 0 32 32"><path fill="#000" d="M25.015 6.984a12.751 12.751 0 1 0-18.03 18.031 12.75 12.75 0 1 0 18.03-18.031M13.25 16.75h5.5l1.763 3.82A3.75 3.75 0 0 0 16 21.75a3.75 3.75 0 0 0-4.514-1.182zm.693-1.5L16 10.79l2.059 4.46zM16.75 24a2.25 2.25 0 1 1 4.5 0v1.955a11.2 11.2 0 0 1-4.5 1.268zm-6 0a2.25 2.25 0 1 1 4.5 0v3.223a11.2 11.2 0 0 1-4.5-1.268zm13.205-.045q-.567.564-1.205 1.045v-3a.75.75 0 0 0-.069-.314l-6-13a.75.75 0 0 0-1.362 0l-6 13A.75.75 0 0 0 9.25 22v3a11.25 11.25 0 1 1 14.705-1.046z"/></svg>