<svg xmlns="http://www.w3.org/2000/svg" width="32" height="32" fill="none" viewBox="0 0 32 32"><path fill="#000" d="M29.661 11.459A1.725 1.725 0 0 0 28 10.25h-7.815l-2.519-7.766a1.742 1.742 0 0 0-3.33-.006l-2.522 7.772H4a1.75 1.75 0 0 0-1.026 3.169l6.331 4.555-2.424 7.48a1.72 1.72 0 0 0 .637 1.955 1.72 1.72 0 0 0 2.053 0L16 22.784l6.426 4.625a1.75 1.75 0 0 0 2.699-1.955l-2.427-7.482 6.333-4.557a1.72 1.72 0 0 0 .63-1.956M15.764 2.936a.243.243 0 0 1 .474 0l2.375 7.308H13.39zM3.856 12.201a.23.23 0 0 1-.091-.279A.235.235 0 0 1 4 11.75h7.328l-1.533 4.725zm4.837 14a.25.25 0 0 1-.385-.28l2.278-7.025 4.125 2.971zm2.375-8.802 1.837-5.649h6.19l1.831 5.645L16 20.939zm12.618 8.522a.25.25 0 0 1-.387.278l-6.015-4.337 4.125-2.97zm4.46-13.722-5.941 4.275-1.532-4.724H28a.23.23 0 0 1 .238.174.23.23 0 0 1-.092.275"/></svg>