<svg xmlns="http://www.w3.org/2000/svg" width="32" height="32" fill="none" viewBox="0 0 32 32"><path fill="#000" d="M20.696 5.283A4.76 4.76 0 0 0 16 1.25a.75.75 0 1 0 0 1.5 3.25 3.25 0 0 1 3.173 2.544A7.76 7.76 0 0 0 12.25 13c0 5.969-3.279 9.96-9.75 11.866a1.75 1.75 0 0 0 .195 3.405 33 33 0 0 0 5.656.479c5.045 0 10.654-1.125 14.524-4.375C26.11 21.661 27.75 17.834 27.75 13a7.76 7.76 0 0 0-7.054-7.717M20 6.75a6.26 6.26 0 0 1 5.978 4.422L24 12.16l-3.665-1.832a.75.75 0 0 0-.67 0L16 12.16l-1.976-.989A6.26 6.26 0 0 1 20 6.75m1.91 16.478C18.77 25.86 11.92 28.374 2.96 26.79a.235.235 0 0 1-.209-.236.226.226 0 0 1 .179-.25C10.008 24.216 13.75 19.615 13.75 13q-.002-.142.008-.283l1.907.954a.75.75 0 0 0 .67 0L20 11.836l3.665 1.833a.75.75 0 0 0 .67 0l1.908-.954c0 .094.007.188.007.283 0 4.377-1.46 7.813-4.34 10.228z"/></svg>