<svg xmlns="http://www.w3.org/2000/svg" width="32" height="32" fill="none" viewBox="0 0 32 32"><path fill="#000" d="M20.5 9.75a3.25 3.25 0 1 0 0-6.5 3.25 3.25 0 0 0 0 6.5m0-5a1.75 1.75 0 1 1 0 3.5 1.75 1.75 0 0 1 0-3.5m4.5 12.5a4.75 4.75 0 1 0 0 9.5 4.75 4.75 0 0 0 0-9.5m0 8a3.25 3.25 0 1 1 0-6.5 3.25 3.25 0 0 1 0 6.5m-18-8a4.75 4.75 0 1 0 0 9.5 4.75 4.75 0 0 0 0-9.5m0 8a3.25 3.25 0 1 1 0-6.5 3.25 3.25 0 0 1 0 6.5m17-10.5h-5a.75.75 0 0 1-.53-.22L15 11.061 12.061 14l4.469 4.47c.14.14.22.331.22.53v6a.75.75 0 1 1-1.5 0v-5.689l-4.78-4.781a.75.75 0 0 1 0-1.06l4-4a.75.75 0 0 1 1.06 0l3.781 3.78H24a.75.75 0 1 1 0 1.5"/></svg>