<svg xmlns="http://www.w3.org/2000/svg" width="32" height="32" fill="none" viewBox="0 0 32 32"><path fill="#000" d="M16 8.75a3.75 3.75 0 1 0 0-7.5 3.75 3.75 0 0 0 0 7.5m0-6a2.25 2.25 0 1 1 0 4.5 2.25 2.25 0 0 1 0-4.5m11.11 14.177-5.651-6.407a3.75 3.75 0 0 0-2.813-1.27h-5.292a3.75 3.75 0 0 0-2.813 1.269L4.89 16.927a2.25 2.25 0 1 0 3.167 3.198l2.639-2.116-2.266 8.606a2.25 2.25 0 0 0 4.094 1.868L16 22.5l3.476 5.989a2.25 2.25 0 0 0 4.094-1.868l-2.267-8.608 2.64 2.112a2.25 2.25 0 0 0 3.167-3.195zM26.03 19.03a.75.75 0 0 1-1.061 0 1 1 0 0 0-.061-.055l-4.44-3.56a.75.75 0 0 0-1.194.775l2.859 10.866a1 1 0 0 0 .046.125.75.75 0 0 1-1.36.634 1 1 0 0 0-.032-.06l-4.14-7.13a.75.75 0 0 0-1.297 0l-4.14 7.131a1 1 0 0 0-.031.06.75.75 0 0 1-1.36-.633 1 1 0 0 0 .046-.125l2.859-10.867a.75.75 0 0 0-.316-.816.76.76 0 0 0-.41-.125.75.75 0 0 0-.47.165l-4.438 3.56a1 1 0 0 0-.061.055.75.75 0 0 1-1.061-1.061L6 17.935l5.665-6.424a2.25 2.25 0 0 1 1.688-.761h5.292a2.25 2.25 0 0 1 1.688.761L26 17.935l.032.034a.75.75 0 0 1-.001 1.061"/></svg>