<svg xmlns="http://www.w3.org/2000/svg" width="32" height="32" fill="none" viewBox="0 0 32 32"><path fill="#000" d="M30 15.25h-2.25V6a1.75 1.75 0 0 0-2.062-1.721l-20 3.636A1.75 1.75 0 0 0 4.25 9.636v5.614H2a.75.75 0 1 0 0 1.5h2.25v5.614a1.75 1.75 0 0 0 1.438 1.721l20 3.636q.155.03.312.03A1.75 1.75 0 0 0 27.75 26v-9.25H30a.75.75 0 1 0 0-1.5M5.75 9.636a.25.25 0 0 1 .205-.25l20-3.637h.046a.25.25 0 0 1 .25.25v9.25H5.75zM26.25 26a.25.25 0 0 1-.09.191.25.25 0 0 1-.205.055l-20-3.637a.25.25 0 0 1-.205-.25V16.75h20.5z"/></svg>