<svg xmlns="http://www.w3.org/2000/svg" width="32" height="32" fill="none" viewBox="0 0 32 32"><path fill="#000" d="M16 8.75a3.75 3.75 0 1 0 0-7.5 3.75 3.75 0 0 0 0 7.5m0-6a2.25 2.25 0 1 1 0 4.5 2.25 2.25 0 0 1 0-4.5m12.694 8.268A2.21 2.21 0 0 0 26.5 9.25h-21a2.25 2.25 0 0 0-.944 4.293h.013l6.54 2.875-2.68 10.187a2.25 2.25 0 0 0 3.264 2.8 2.26 2.26 0 0 0 .83-.922L16 22.5l3.476 5.989a2.25 2.25 0 0 0 4.092-1.868l-2.68-10.187 6.54-2.875h.012a2.21 2.21 0 0 0 1.254-2.541m-1.875 1.16L19.7 15.315a.75.75 0 0 0-.424.875l2.859 10.866a1 1 0 0 0 .046.125.75.75 0 1 1-1.36.634 1 1 0 0 0-.03-.06l-4.142-7.129a.75.75 0 0 0-1.298 0l-4.14 7.131-.031.06a.75.75 0 0 1-1.237.19.75.75 0 0 1-.126-.827 1 1 0 0 0 .047-.125l2.858-10.866a.75.75 0 0 0-.423-.875l-7.115-3.134A.75.75 0 0 1 5.5 10.75h21a.75.75 0 0 1 .32 1.429z"/></svg>