<svg xmlns="http://www.w3.org/2000/svg" width="32" height="32" fill="none" viewBox="0 0 32 32"><path fill="#000" d="M16 10.75a3.75 3.75 0 1 0 0-7.5 3.75 3.75 0 0 0 0 7.5m0-6a2.25 2.25 0 1 1 0 4.5 2.25 2.25 0 0 1 0-4.5M6.25 12a1.75 1.75 0 1 1 3.5 0 1.75 1.75 0 0 1-3.5 0m21.335 1.669a.75.75 0 0 1-1.051.125c-.146-.115-3.133-2.364-7.815.117a27 27 0 0 1-.404 4.048l4.165 3.471a.75.75 0 0 1 .231.814l-2 6a.75.75 0 0 1-1.422-.475l1.836-5.519-3.186-2.656a18 18 0 0 1-.733 2.133c-1.687 4.023-4.706 6.708-8.99 7.992a.75.75 0 1 1-.431-1.437c8.102-2.432 9.177-9.846 9.389-13.427-3.549 2.351-6.324 2.895-8.125 2.895-1.464 0-2.286-.358-2.36-.391a.752.752 0 0 1 .34-1.433.8.8 0 0 1 .285.068c.026.011 3.45 1.41 9.267-2.544 3.305-2.25 6.063-2.375 7.795-2.084 1.921.322 3.049 1.213 3.095 1.25a.75.75 0 0 1 .114 1.053"/></svg>