<svg xmlns="http://www.w3.org/2000/svg" width="32" height="32" fill="none" viewBox="0 0 32 32"><path fill="#000" d="M19 9.75a3.75 3.75 0 1 0 0-7.5 3.75 3.75 0 0 0 0 7.5m0-6a2.25 2.25 0 1 1 0 4.5 2.25 2.25 0 0 1 0-4.5M26.75 18a.75.75 0 0 1-.75.75c-4.31 0-6.383-2.094-8.213-3.94a24 24 0 0 0-1.268-1.223l-1.894 4.364 4.815 3.439a.75.75 0 0 1 .31.61v7a.75.75 0 1 1-1.5 0v-6.614l-4.24-3.028-4.323 9.94a.75.75 0 0 1-1.375-.597l6.875-15.826c-1.272-.344-2.883 0-4.813 1.036a20.7 20.7 0 0 0-3.865 2.75.75.75 0 0 1-1.028-1.092 22 22 0 0 1 4.159-2.972c3.241-1.75 5.955-1.798 7.846-.157.471.409.925.866 1.363 1.309 1.702 1.718 3.46 3.5 7.146 3.5a.75.75 0 0 1 .755.751"/></svg>