<svg xmlns="http://www.w3.org/2000/svg" width="32" height="32" fill="none" viewBox="0 0 32 32"><path fill="#000" d="M19 10.75a3.75 3.75 0 1 0 0-7.5 3.75 3.75 0 0 0 0 7.5m0-6a2.25 2.25 0 1 1 0 4.5 2.25 2.25 0 0 1 0-4.5m8.311 12.608c-.074.033-.896.39-2.36.39-1.732 0-4.362-.5-7.716-2.624a20.7 20.7 0 0 1-2.179 4.563c1.179.348 2.75.965 4.149 2.033 2.352 1.786 3.545 4.236 3.545 7.28a.75.75 0 1 1-1.5 0c0-5.5-4.654-7.398-7.114-8.014q-.15.195-.307.386c-2.407 2.914-5.418 4.432-8.764 4.432a11 11 0 0 1-1.14-.054.753.753 0 1 1 .15-1.5c3.329.332 6.221-.957 8.596-3.836 1.645-1.993 2.743-4.439 3.26-6.144-5.064-3.065-8.324-.598-8.465-.486a.75.75 0 0 1-.935-1.173c.046-.037 1.174-.929 3.095-1.25 1.733-.289 4.49-.162 7.795 2.084 5.893 4 9.235 2.559 9.268 2.544a.75.75 0 0 1 1.062.655.75.75 0 0 1-.437.71z"/></svg>