<svg xmlns="http://www.w3.org/2000/svg" width="32" height="32" fill="none" viewBox="0 0 32 32"><path fill="#000" d="M16 9.75a3.75 3.75 0 1 0 0-7.5 3.75 3.75 0 0 0 0 7.5m0-6a2.25 2.25 0 1 1 0 4.5 2.25 2.25 0 0 1 0-4.5m12.643 12.636a.75.75 0 0 1-1.029.25c-.046-.026-4.561-2.678-10.864-2.875v4.951l7.81 8.788a.752.752 0 1 1-1.125 1L16 20.125 8.56 28.5a.752.752 0 1 1-1.125-1l7.815-8.785v-4.951c-6.302.2-10.819 2.852-10.865 2.875a.75.75 0 0 1-.771-1.287C3.825 15.23 8.875 12.25 16 12.25s12.174 2.98 12.387 3.108a.75.75 0 0 1 .256 1.028"/></svg>