<svg xmlns="http://www.w3.org/2000/svg" width="32" height="32" fill="none" viewBox="0 0 32 32"><path fill="#000" d="M28.774 11.444c-6.924-6.925-18.625-6.925-25.548 0-2.406 2.408-2.639 5.958-.565 8.632a1.75 1.75 0 0 0 2.013.549l6.125-2.172.027-.012a1.74 1.74 0 0 0 1.066-1.281l.738-3.69a.24.24 0 0 1 .151-.184 9.8 9.8 0 0 1 6.398-.013.24.24 0 0 1 .152.18l.777 3.72a1.75 1.75 0 0 0 1.062 1.267l.029.01 6.125 2.175a1.75 1.75 0 0 0 2.012-.552c2.077-2.67 1.844-6.22-.562-8.63m-.625 7.713a.25.25 0 0 1-.287.073l-.027-.011-6.125-2.173a.25.25 0 0 1-.135-.171l-.777-3.717a1.75 1.75 0 0 0-1.133-1.294 11.3 11.3 0 0 0-7.375.016 1.75 1.75 0 0 0-1.125 1.306l-.744 3.689a.25.25 0 0 1-.143.18L4.16 19.219l-.027.011a.25.25 0 0 1-.287-.073c-1.625-2.092-1.445-4.764.441-6.652C7.461 9.33 11.732 7.742 16 7.742s8.539 1.588 11.712 4.763c1.887 1.887 2.064 4.56.442 6.652zM27.75 25a.75.75 0 0 1-.75.75H5a.75.75 0 1 1 0-1.5h22a.75.75 0 0 1 .75.75"/></svg>