<svg xmlns="http://www.w3.org/2000/svg" width="32" height="32" fill="none" viewBox="0 0 32 32"><path fill="#000" d="M19.275 4.806a.75.75 0 0 1 .919-.531 10.53 10.53 0 0 1 7.531 7.531.75.75 0 1 1-1.45.388 9.04 9.04 0 0 0-6.469-6.469.75.75 0 0 1-.531-.919m-.469 4.919c1.819.485 2.984 1.65 3.469 3.469a.75.75 0 0 0 1.45-.388c-.625-2.338-2.193-3.906-4.531-4.531a.75.75 0 1 0-.388 1.45m9.93 12.125A6.78 6.78 0 0 1 22 27.75c-9.787 0-17.75-7.962-17.75-17.75a6.78 6.78 0 0 1 5.896-6.736 1.75 1.75 0 0 1 1.82 1.049l2.638 5.887a1.75 1.75 0 0 1-.193 1.731l-2.633 3.133a.24.24 0 0 0 0 .209c.957 1.96 3.012 4 5 4.956a.24.24 0 0 0 .21-.008l3.086-2.625a1 1 0 0 1 .07-.052 1.75 1.75 0 0 1 1.66-.153l5.905 2.647a1.75 1.75 0 0 1 1.027 1.816zm-1.486-.185a.25.25 0 0 0-.151-.25l-5.907-2.646a.24.24 0 0 0-.2.012l-3.085 2.625-.07.053a1.75 1.75 0 0 1-1.72.125c-2.296-1.109-4.583-3.375-5.692-5.649a1.75 1.75 0 0 1 .114-1.716 1 1 0 0 1 .053-.071l2.633-3.133a.25.25 0 0 0 0-.209l-2.633-5.892a.25.25 0 0 0-.23-.164h-.028A5.28 5.28 0 0 0 5.75 10c0 8.96 7.29 16.25 16.25 16.25a5.28 5.28 0 0 0 5.25-4.585"/></svg>