<svg xmlns="http://www.w3.org/2000/svg" width="32" height="32" fill="none" viewBox="0 0 32 32"><path fill="#000" d="m27.699 20.038-5.905-2.647a1.75 1.75 0 0 0-1.66.153 1 1 0 0 0-.07.052l-3.087 2.625a.23.23 0 0 1-.21.008c-1.983-.958-4.038-3-5-4.956a.24.24 0 0 1 0-.21l2.634-3.132a1.749 1.749 0 0 0 .193-1.731l-2.628-5.889a1.75 1.75 0 0 0-1.82-1.047A6.78 6.78 0 0 0 4.25 10c0 9.788 7.963 17.75 17.75 17.75a6.78 6.78 0 0 0 6.736-5.896 1.75 1.75 0 0 0-1.037-1.816M22 26.25c-8.96 0-16.25-7.29-16.25-16.25a5.28 5.28 0 0 1 4.584-5.25h.029a.25.25 0 0 1 .23.164l2.637 5.889a.25.25 0 0 1 0 .208l-2.639 3.133a1 1 0 0 0-.053.071 1.75 1.75 0 0 0-.114 1.716c1.109 2.27 3.396 4.54 5.691 5.65a1.75 1.75 0 0 0 1.721-.126 1 1 0 0 0 .07-.052l3.085-2.625a.24.24 0 0 1 .2-.013l5.907 2.646a.25.25 0 0 1 .15.25A5.28 5.28 0 0 1 22 26.251M18.25 9a.75.75 0 0 1 .75-.75h3.25V5a.75.75 0 1 1 1.5 0v3.25H27a.75.75 0 1 1 0 1.5h-3.25V13a.75.75 0 0 1-1.5 0V9.75H19a.75.75 0 0 1-.75-.75"/></svg>