<svg xmlns="http://www.w3.org/2000/svg" width="32" height="32" fill="none" viewBox="0 0 32 32"><path fill="#000" d="M6.555 4.5a.75.75 0 0 0-1.11 1l3.69 4.064a17.4 17.4 0 0 0-5.909 3.885C.82 15.856.587 19.405 2.661 22.074a1.75 1.75 0 0 0 2.013.551l6.125-2.171.027-.011a1.74 1.74 0 0 0 1.066-1.282l.738-3.688a.25.25 0 0 1 .151-.184q.615-.213 1.25-.344L25.445 27.5a.75.75 0 1 0 1.11-1.01zm5.731 9.375a1.75 1.75 0 0 0-1.125 1.306l-.74 3.694a.25.25 0 0 1-.143.179L4.16 21.22l-.027.01a.25.25 0 0 1-.287-.072c-1.625-2.091-1.445-4.764.441-6.649a16 16 0 0 1 5.932-3.76l2.667 2.935c-.202.065-.402.124-.6.19m17.053 8.201a1.75 1.75 0 0 1-2.013.552l-1.16-.412a.75.75 0 0 1-.474-.963.75.75 0 0 1 .974-.45l1.173.416.027.01a.25.25 0 0 0 .287-.073c1.625-2.09 1.445-4.763-.442-6.648-3.256-3.258-7.853-4.983-12.607-4.734a.751.751 0 1 1-.079-1.5c5.18-.269 10.19 1.616 13.75 5.174 2.405 2.408 2.638 5.957.564 8.63z"/></svg>