<svg xmlns="http://www.w3.org/2000/svg" width="32" height="32" fill="none" viewBox="0 0 32 32"><path fill="#000" d="M26 4.25H6A1.75 1.75 0 0 0 4.25 6v20A1.75 1.75 0 0 0 6 27.75h20A1.75 1.75 0 0 0 27.75 26V6A1.75 1.75 0 0 0 26 4.25M9.75 5.75h3.5v11.5h-3.5zm4.25 13a.75.75 0 0 0 .75-.75V5.75h2.5V18a.75.75 0 0 0 .75.75h1.25v7.5h-6.5v-7.5zm4.75-1.5V5.75h3.5v11.5zM5.75 26V6A.25.25 0 0 1 6 5.75h2.25V18a.75.75 0 0 0 .75.75h2.25v7.5H6a.25.25 0 0 1-.25-.25m20.5 0a.25.25 0 0 1-.25.25h-5.25v-7.5H23a.75.75 0 0 0 .75-.75V5.75H26a.25.25 0 0 1 .25.25z"/></svg>