<svg xmlns="http://www.w3.org/2000/svg" width="32" height="32" fill="none" viewBox="0 0 32 32"><path fill="#000" d="M23.75 14.5a1.25 1.25 0 1 1-2.5 0 1.25 1.25 0 0 1 2.5 0M19 8.25h-5a.75.75 0 1 0 0 1.5h5a.75.75 0 1 0 0-1.5M30.75 14v4A2.75 2.75 0 0 1 28 20.75h-.471l-2.085 5.839a1.75 1.75 0 0 1-1.649 1.161h-1.59a1.75 1.75 0 0 1-1.649-1.161l-.299-.839h-7.515l-.298.839a1.75 1.75 0 0 1-1.649 1.161h-1.59a1.75 1.75 0 0 1-1.649-1.161L5.97 22.148a10.7 10.7 0 0 1-2.684-6.28A2.25 2.25 0 0 0 1.75 18a.75.75 0 1 1-1.5 0 3.75 3.75 0 0 1 3.024-3.679A10.763 10.763 0 0 1 14 4.25h13a.75.75 0 1 1 0 1.5h-3.523a10.74 10.74 0 0 1 4.6 5.501A2.75 2.75 0 0 1 30.75 14m-1.5 0A1.25 1.25 0 0 0 28 12.75h-.457a.75.75 0 0 1-.717-.525A9.25 9.25 0 0 0 18 5.75h-4a9.25 9.25 0 0 0-6.82 15.5q.102.11.152.25l1.637 4.58a.25.25 0 0 0 .236.17h1.59a.25.25 0 0 0 .236-.166l.476-1.334a.75.75 0 0 1 .707-.5h8.572a.75.75 0 0 1 .706.5l.477 1.336a.25.25 0 0 0 .236.167h1.59a.25.25 0 0 0 .236-.167l2.263-6.336a.75.75 0 0 1 .706-.5h1A1.25 1.25 0 0 0 29.25 18z"/></svg>