<svg xmlns="http://www.w3.org/2000/svg" width="32" height="32" fill="none" viewBox="0 0 32 32"><path fill="#000" d="M30.704 5A.75.75 0 0 0 30 4.296c-6.375-.375-11.485 1.553-13.669 5.158-1.453 2.401-1.422 5.335.067 8.125a8.7 8.7 0 0 0-1.935 3.823l-2.475-2.476c1.018-2.012 1.012-4.118-.04-5.856-1.602-2.644-5.323-4.061-9.96-3.786a.75.75 0 0 0-.704.705c-.273 4.636 1.142 8.357 3.786 9.959.861.526 1.85.803 2.86.802a6.65 6.65 0 0 0 3-.75l3.32 3.31V27a.75.75 0 1 0 1.5 0v-3.686a7.2 7.2 0 0 1 1.72-4.689c1.401.741 2.84 1.114 4.228 1.114a7.36 7.36 0 0 0 3.848-1.072c3.605-2.18 5.533-7.292 5.158-13.667M5.847 18.664C3.81 17.43 2.674 14.5 2.75 10.75c3.75-.081 6.676 1.055 7.91 3.094.71 1.171.77 2.547.192 3.949L7.53 14.469a.75.75 0 1 0-1.061 1.061l3.327 3.326c-1.401.578-2.777.519-3.949-.192m18.923-1.278c-1.843 1.115-4.017 1.148-6.209.113l6.97-6.969a.75.75 0 1 0-1.061-1.061l-6.97 6.97c-1.035-2.191-1-4.366.113-6.208 1.814-3 6.132-4.647 11.625-4.468.178 5.487-1.47 9.807-4.468 11.623"/></svg>