<svg xmlns="http://www.w3.org/2000/svg" width="32" height="32" fill="none" viewBox="0 0 32 32"><path fill="#000" d="M30.424 7.71c-.905-1.56-3.375-1.875-7.155-.936a11.74 11.74 0 0 0-18.9 10.851C1.636 20.423.674 22.723 1.582 24.29c.563.97 1.75 1.461 3.483 1.461 1.053-.018 2.1-.15 3.125-.395.181-.04.365-.085.551-.125a11.744 11.744 0 0 0 18.899-10.86c1.581-1.626 2.639-3.166 2.982-4.45.223-.855.158-1.597-.198-2.21M16 5.75a10.265 10.265 0 0 1 10.024 8.118c-2 1.912-4.768 3.958-7.913 5.765-3.425 1.97-6.512 3.242-9.005 3.942A10.25 10.25 0 0 1 16 5.75M2.875 23.538c-.44-.76.289-2.32 1.875-4.125a11.75 11.75 0 0 0 2.634 4.577c-2.457.478-4.085.27-4.509-.452M16 26.25a10.2 10.2 0 0 1-5.419-1.556c2.585-.839 5.445-2.133 8.278-3.76 2.853-1.64 5.391-3.459 7.381-5.239 0 .101.008.203.008.305A10.26 10.26 0 0 1 16 26.25M29.169 9.526c-.235.875-.91 1.937-1.92 3.077a11.74 11.74 0 0 0-2.638-4.588c1.978-.381 4-.436 4.515.448.149.256.163.615.043 1.063"/></svg>