<svg xmlns="http://www.w3.org/2000/svg" width="32" height="32" fill="none" viewBox="0 0 32 32"><path fill="#000" d="M22.75 8v16a.75.75 0 1 1-1.5 0V8a.75.75 0 1 1 1.5 0M28 7.25a.75.75 0 0 0-.75.75v16a.75.75 0 1 0 1.5 0V8a.75.75 0 0 0-.75-.75M17.75 16a1.72 1.72 0 0 1-.801 1.456L5.926 24.475a1.74 1.74 0 0 1-2.676-1.456V8.98a1.739 1.739 0 0 1 2.676-1.456l11.023 7.019A1.72 1.72 0 0 1 17.75 16m-1.5 0a.22.22 0 0 0-.106-.191L5.125 8.79a.23.23 0 0 0-.25-.009.22.22 0 0 0-.125.2V23.02a.22.22 0 0 0 .125.2.24.24 0 0 0 .25-.009l11.024-7.019A.22.22 0 0 0 16.25 16"/></svg>