<svg xmlns="http://www.w3.org/2000/svg" width="32" height="32" fill="none" viewBox="0 0 32 32"><path fill="#000" d="M29.53 2.47a.75.75 0 0 0-1.06 0l-6.728 6.726-.848-.847a3.75 3.75 0 0 0-5.303 0l-3.091 3.09-.97-.97a.75.75 0 0 0-1.06 1.06l.969.97-3.09 3.092a3.75 3.75 0 0 0 0 5.303l.847.848L2.47 28.47a.75.75 0 1 0 1.06 1.06l6.727-6.726.85.847a3.75 3.75 0 0 0 5.302 0l3.09-3.09.97.969a.75.75 0 0 0 1.06-1.06l-.968-.97 3.09-3.091a3.75 3.75 0 0 0 0-5.303l-.847-.849L29.53 3.53a.75.75 0 0 0 0-1.06M15.349 22.595a2.253 2.253 0 0 1-3.183 0L9.41 19.834a2.25 2.25 0 0 1 0-3.183l3.09-3.09 5.94 5.939zm7.242-7.243L19.5 18.44l-5.939-5.94 3.09-3.09a2.25 2.25 0 0 1 3.183 0l2.757 2.757a2.25 2.25 0 0 1 0 3.183zM11.29 4.237a.75.75 0 1 1 1.422-.475l1 3a.75.75 0 1 1-1.422.475zm-8 7.525a.75.75 0 0 1 .948-.473l3 1a.75.75 0 1 1-.475 1.422l-3-1a.75.75 0 0 1-.473-.949m25.422 8.475a.75.75 0 0 1-.949.474l-3-1a.75.75 0 0 1 .475-1.422l3 1a.75.75 0 0 1 .474.948m-8 7.525a.75.75 0 1 1-1.422.475l-1-3a.75.75 0 1 1 1.422-.475z"/></svg>