<svg xmlns="http://www.w3.org/2000/svg" width="32" height="32" fill="none" viewBox="0 0 32 32"><path fill="#000" d="M18.53 17.47a.75.75 0 0 0-1.06 0L15 19.939l-2.939-2.94 2.469-2.47a.75.75 0 0 0-1.06-1.06L11 15.94l-2.47-2.47a.75.75 0 0 0-1.06 1.06l.969.97-3.09 3.092a3.75 3.75 0 0 0 0 5.303l.847.848L2.47 28.47a.75.75 0 1 0 1.06 1.06l3.727-3.726.85.847a3.75 3.75 0 0 0 5.302 0l3.09-3.09.97.969a.75.75 0 0 0 1.06-1.06L16.062 21l2.469-2.47a.75.75 0 0 0 0-1.06m-6.181 8.125a2.253 2.253 0 0 1-3.183 0L6.41 22.834a2.25 2.25 0 0 1 0-3.183l3.09-3.09 5.94 5.939zM29.529 2.47a.75.75 0 0 0-1.06 0l-3.727 3.726-.848-.847a3.75 3.75 0 0 0-5.303 0L15.5 8.439l-.97-.97a.75.75 0 0 0-1.06 1.06l10 10a.75.75 0 0 0 1.06-1.06l-.969-.97 3.09-3.09a3.75 3.75 0 0 0 0-5.303l-.847-.849L29.53 3.53a.75.75 0 0 0 0-1.06m-3.938 9.875L22.5 15.439l-5.939-5.94 3.09-3.09a2.25 2.25 0 0 1 3.183 0l2.757 2.757a2.25 2.25 0 0 1 0 3.183z"/></svg>