<svg xmlns="http://www.w3.org/2000/svg" width="32" height="32" fill="none" viewBox="0 0 32 32"><path fill="#000" d="M29.53 8.47a.75.75 0 0 0-1.06 0L24 12.939l-4.939-4.94 4.469-4.47a.75.75 0 0 0-1.06-1.06L18 6.94l-3.47-3.47a.75.75 0 1 0-1.06 1.06l.969.97-6.798 6.798a4.75 4.75 0 0 0 0 6.72l2.141 2.14L3.47 27.47a.75.75 0 1 0 1.06 1.06l6.314-6.313 2.14 2.142a4.75 4.75 0 0 0 6.718 0L26.5 17.56l.97.969a.75.75 0 0 0 1.06-1.06L25.06 14l4.469-4.47a.75.75 0 0 0 0-1.06M18.64 23.297a3.25 3.25 0 0 1-4.596 0l-5.343-5.342a3.25 3.25 0 0 1 0-4.596L15.5 6.56l9.939 9.939z"/></svg>