<svg xmlns="http://www.w3.org/2000/svg" width="32" height="32" fill="none" viewBox="0 0 32 32"><path fill="#000" d="M28 7.25h-6.25V2a.75.75 0 1 0-1.5 0v5.25h-8.5V2a.75.75 0 1 0-1.5 0v5.25H4.069A.76.76 0 0 0 3.25 8a.75.75 0 0 0 .75.75h2.25V20A4.75 4.75 0 0 0 11 24.75h4.25V30a.75.75 0 1 0 1.5 0v-5.25H21A4.75 4.75 0 0 0 25.75 20V8.75H28a.75.75 0 1 0 0-1.5M24.25 20A3.25 3.25 0 0 1 21 23.25H11A3.25 3.25 0 0 1 7.75 20V8.75h16.5zm-10.866-3.573a.75.75 0 0 1-.087-.69l1.5-4a.75.75 0 0 1 1.406.527l-1.125 2.986H18a.75.75 0 0 1 .703 1.014l-1.5 4a.75.75 0 1 1-1.405-.528l1.124-2.986H14a.75.75 0 0 1-.616-.323"/></svg>