<svg xmlns="http://www.w3.org/2000/svg" width="32" height="32" fill="none" viewBox="0 0 32 32"><path fill="#000" d="M16 3.25A12.75 12.75 0 1 0 28.75 16 12.765 12.765 0 0 0 16 3.25m0 19A6.25 6.25 0 1 1 22.25 16 6.257 6.257 0 0 1 16 22.25m4.921-12.232a7.7 7.7 0 0 0-4.171-1.73V4.775c2.461.163 4.8 1.134 6.653 2.761zm-5.671-1.73a7.7 7.7 0 0 0-4.171 1.73L8.598 7.536a11.2 11.2 0 0 1 6.652-2.761zm-5.232 2.79a7.7 7.7 0 0 0-1.73 4.172H4.775a11.2 11.2 0 0 1 2.761-6.652zm-1.73 5.672a7.7 7.7 0 0 0 1.73 4.171l-2.482 2.482a11.2 11.2 0 0 1-2.761-6.653zm2.79 5.233a7.7 7.7 0 0 0 4.172 1.73v3.512a11.2 11.2 0 0 1-6.652-2.761zm5.672 1.73a7.7 7.7 0 0 0 4.171-1.73l2.482 2.48a11.2 11.2 0 0 1-6.653 2.762zm5.233-2.792a7.7 7.7 0 0 0 1.73-4.171h3.512a11.2 11.2 0 0 1-2.761 6.653zm1.73-5.671a7.7 7.7 0 0 0-1.73-4.171l2.48-2.482a11.2 11.2 0 0 1 2.762 6.653z"/></svg>