<svg xmlns="http://www.w3.org/2000/svg" width="32" height="32" fill="none" viewBox="0 0 32 32"><path fill="#000" d="M30 14.25h-1.565l-3.5-6.119a1.75 1.75 0 0 0-1.519-.875H8.58a1.75 1.75 0 0 0-1.519.875l-3.5 6.125H2a.75.75 0 1 0 0 1.5h1.25v10.25A1.75 1.75 0 0 0 5 27.756h3a1.75 1.75 0 0 0 1.75-1.75V23.75h12.5V26A1.75 1.75 0 0 0 24 27.75h3A1.75 1.75 0 0 0 28.75 26V15.75H30a.75.75 0 1 0 0-1.5M8.364 8.875a.25.25 0 0 1 .216-.125h14.84a.25.25 0 0 1 .216.125l3.072 5.375H5.293zM8.25 26a.25.25 0 0 1-.25.25H5a.25.25 0 0 1-.25-.25v-2.25h3.5zm18.75.25h-3a.25.25 0 0 1-.25-.25v-2.25h3.5V26a.25.25 0 0 1-.25.25m.25-4H4.75v-6.5h22.5zM7.25 19a.75.75 0 0 1 .75-.75h2a.75.75 0 1 1 0 1.5H8a.75.75 0 0 1-.75-.75m14 0a.75.75 0 0 1 .75-.75h2a.75.75 0 1 1 0 1.5h-2a.75.75 0 0 1-.75-.75m-9-15a.75.75 0 0 1 .75-.75h6a.75.75 0 1 1 0 1.5h-6a.75.75 0 0 1-.75-.75"/></svg>