<svg xmlns="http://www.w3.org/2000/svg" width="32" height="32" fill="none" viewBox="0 0 32 32"><path fill="#000" d="M28.654 6.348a3.75 3.75 0 0 0-6 .96L18.74 6.242a3.75 3.75 0 0 0-6.392-2.895 3.76 3.76 0 0 0-.582 4.554L7.23 11.984a3.76 3.76 0 0 0-4.883.364 3.75 3.75 0 0 0 5.173 5.43l9.075 6.656a3.75 3.75 0 1 0 5.337-1.648l3.555-10.074q.256.036.514.038a3.748 3.748 0 0 0 2.653-6.4zm-15.25-1.94a2.25 2.25 0 1 1-.657 1.59 2.25 2.25 0 0 1 .662-1.59zm-10 12.183a2.25 2.25 0 1 1 1.593.658 2.25 2.25 0 0 1-1.59-.658zm18.184 11A2.25 2.25 0 1 1 22.249 26a2.25 2.25 0 0 1-.658 1.593zm-1.077-5.303a3.75 3.75 0 0 0-3.033.934l-9.073-6.655a3.77 3.77 0 0 0-.172-3.468l4.537-4.084a3.75 3.75 0 0 0 5.578-1.326l3.913 1.067a3.75 3.75 0 0 0 1.81 3.459zm7.078-11.7a2.25 2.25 0 1 1 .662-1.59 2.25 2.25 0 0 1-.659 1.592z"/></svg>