<svg xmlns="http://www.w3.org/2000/svg" width="32" height="32" fill="none" viewBox="0 0 32 32"><path fill="#000" d="M28.518 9.457a.75.75 0 0 0-.724-.178l-.176.05a5.25 5.25 0 0 0-6.76-3.815 5.25 5.25 0 0 0-9.717 0 5.25 5.25 0 0 0-6.758 3.815l-.177-.05a.75.75 0 0 0-.936.892l3.819 16.23a1.75 1.75 0 0 0 1.704 1.349h14.415a1.75 1.75 0 0 0 1.703-1.349l3.82-16.23a.75.75 0 0 0-.213-.714M9.5 6.75a3.7 3.7 0 0 1 1.75.436.75.75 0 0 0 1.085-.5 3.75 3.75 0 0 1 7.32 0 .75.75 0 0 0 1.084.5A3.7 3.7 0 0 1 22.5 6.75a3.75 3.75 0 0 1 3.674 2.992L21.04 11.21l-4.39-1.75a1.75 1.75 0 0 0-1.3 0l-4.39 1.75-5.134-1.467A3.75 3.75 0 0 1 9.5 6.75m10.68 5.73-1.836 13.77h-4.688L11.82 12.48l4.088-1.635a.25.25 0 0 1 .185 0zM8.555 26.058 5.023 11.073l5.298 1.513 1.823 13.664H8.793a.25.25 0 0 1-.244-.192zm14.903 0a.25.25 0 0 1-.25.192h-3.352l1.823-13.664 5.299-1.514z"/></svg>