<svg xmlns="http://www.w3.org/2000/svg" width="32" height="32" fill="none" viewBox="0 0 32 32"><path fill="#000" d="m15.53 17.53 2.636-2.636a7.25 7.25 0 0 0 3.311.849 5.94 5.94 0 0 0 3.107-.868c2.884-1.75 4.427-5.816 4.125-10.886a.75.75 0 0 0-.705-.705c-5.07-.298-9.14 1.25-10.887 4.125-1.152 1.902-1.15 4.214-.017 6.419l-2.1 2.11-1.83-1.828c.79-1.625.769-3.325-.084-4.732-1.31-2.163-4.336-3.323-8.105-3.102a.75.75 0 0 0-.705.705c-.221 3.77.939 6.794 3.099 8.105a4.53 4.53 0 0 0 2.375.664 5.4 5.4 0 0 0 2.366-.575L13.94 17l-1.25 1.25H7a.75.75 0 1 0 0 1.5h1.398l1.696 7.625a1.74 1.74 0 0 0 1.709 1.375h8.396a1.74 1.74 0 0 0 1.707-1.375l1.697-7.625H25a.75.75 0 0 0 0-1.5H14.81zm2.875-9.337c1.375-2.278 4.655-3.542 8.84-3.438.104 4.184-1.16 7.46-3.437 8.84-1.538.93-3.387.865-5.224-.179-1.045-1.837-1.11-3.686-.179-5.223m-6.708 5.5c-1.25.695-2.5.733-3.542.105-1.557-.94-2.436-3.173-2.405-6.048 2.875-.036 5.11.848 6.053 2.405.628 1.038.59 2.29-.106 3.543zm10.368 6.057-1.625 7.304a.25.25 0 0 1-.244.196h-8.394a.25.25 0 0 1-.25-.196L9.936 19.75z"/></svg>