<svg xmlns="http://www.w3.org/2000/svg" width="32" height="32" fill="none" viewBox="0 0 32 32"><path fill="#000" d="M26.834 9.25H24.75V5a.75.75 0 0 0-.75-.75H8a.75.75 0 0 0-.75.75v4.25H5.166C3.56 9.25 2.25 10.484 2.25 12v10a.75.75 0 0 0 .75.75h4.25V27a.75.75 0 0 0 .75.75h16a.75.75 0 0 0 .75-.75v-4.25H29a.75.75 0 0 0 .75-.75V12c0-1.516-1.309-2.75-2.916-2.75M8.75 5.75h14.5v3.5H8.75zm14.5 20.5H8.75v-6.5h14.5zm5-5h-3.5V19a.75.75 0 0 0-.75-.75H8a.75.75 0 0 0-.75.75v2.25h-3.5V12c0-.689.635-1.25 1.416-1.25h21.668c.781 0 1.416.561 1.416 1.25zm-3.5-6.75a1.25 1.25 0 1 1-2.5 0 1.25 1.25 0 0 1 2.5 0"/></svg>