<svg xmlns="http://www.w3.org/2000/svg" width="32" height="32" fill="none" viewBox="0 0 32 32"><path fill="#000" d="M11.25 18v-2a.75.75 0 1 1 1.5 0v2a.75.75 0 1 1-1.5 0m4.75.75a.75.75 0 0 0 .75-.75v-3a.75.75 0 1 0-1.5 0v3a.75.75 0 0 0 .75.75m4 0a.75.75 0 0 0 .75-.75v-4a.75.75 0 1 0-1.5 0v4a.75.75 0 0 0 .75.75m6.75-9v12.5H28a.75.75 0 1 1 0 1.5H16.75v2.605a2.75 2.75 0 1 1-1.5 0V23.75H4a.75.75 0 1 1 0-1.5h1.25V9.75H5A1.75 1.75 0 0 1 3.25 8V6A1.75 1.75 0 0 1 5 4.25h22A1.75 1.75 0 0 1 28.75 6v2A1.75 1.75 0 0 1 27 9.75zM16 27.75a1.25 1.25 0 1 0 0 2.5 1.25 1.25 0 0 0 0-2.5M5 8.25h22a.25.25 0 0 0 .25-.25V6a.25.25 0 0 0-.25-.25H5a.25.25 0 0 0-.25.25v2a.25.25 0 0 0 .25.25m20.25 1.5H6.75v12.5h18.5z"/></svg>