<svg xmlns="http://www.w3.org/2000/svg" width="32" height="32" fill="none" viewBox="0 0 32 32"><path fill="#000" d="M27 9.75A1.75 1.75 0 0 0 28.75 8V6A1.75 1.75 0 0 0 27 4.25H5A1.75 1.75 0 0 0 3.25 6v2A1.75 1.75 0 0 0 5 9.75h.25v12.5H4a.75.75 0 1 0 0 1.5h11.25v2.605a2.75 2.75 0 1 0 1.5 0V23.75H28a.75.75 0 1 0 0-1.5h-1.25V9.75zM17.25 29a1.25 1.25 0 1 1-2.5 0 1.25 1.25 0 0 1 2.5 0M4.75 8V6A.25.25 0 0 1 5 5.75h22a.25.25 0 0 1 .25.25v2a.25.25 0 0 1-.25.25H5A.25.25 0 0 1 4.75 8m20.5 14.25H6.75V9.75h18.5z"/></svg>