<svg xmlns="http://www.w3.org/2000/svg" width="32" height="32" fill="none" viewBox="0 0 32 32"><path fill="#000" d="m29.239 10.349-7.587-7.587a1.75 1.75 0 0 0-2.476 0l-6.81 6.834c-1.19-.406-4.25-1.042-7.464 1.551a1.75 1.75 0 0 0-.14 2.603l6.214 6.214-5.506 5.5a.75.75 0 1 0 1.06 1.06l5.506-5.507 6.214 6.219a1.75 1.75 0 0 0 1.237.514h.125a1.75 1.75 0 0 0 1.274-.693c2.465-3.276 2.144-5.903 1.558-7.412l6.796-6.819a1.75 1.75 0 0 0-.001-2.478m-1.062 1.413-7.158 7.183a.75.75 0 0 0-.14.865c1.243 2.485-.213 5.04-1.192 6.34a.25.25 0 0 1-.375.025L5.822 12.688a.25.25 0 0 1 .023-.375c1.562-1.26 3.062-1.594 4.212-1.594a5.3 5.3 0 0 1 2.157.426.75.75 0 0 0 .866-.145l7.157-7.176a.25.25 0 0 1 .354 0l7.586 7.585a.25.25 0 0 1 0 .353"/></svg>