<svg xmlns="http://www.w3.org/2000/svg" width="32" height="32" fill="none" viewBox="0 0 32 32"><path fill="#000" d="M27.401 20.03a.75.75 0 0 0-.722-.044 2.75 2.75 0 1 1 0-4.971.75.75 0 0 0 1.071-.678V9A1.75 1.75 0 0 0 26 7.25h-4.815q.065-.373.065-.75a4.26 4.26 0 0 0-2.812-4.003 4.2 4.2 0 0 0-1.71-.238 4.25 4.25 0 0 0-3.91 4.991H8A1.75 1.75 0 0 0 6.25 9v4.316a4.25 4.25 0 1 0 0 8.368V26A1.75 1.75 0 0 0 8 27.75h18A1.75 1.75 0 0 0 27.75 26v-5.336a.75.75 0 0 0-.349-.634M26.25 26a.25.25 0 0 1-.25.25H8a.25.25 0 0 1-.25-.25v-5.336a.75.75 0 0 0-1.071-.678 2.75 2.75 0 1 1 0-4.971.75.75 0 0 0 1.071-.678V9A.25.25 0 0 1 8 8.75h5.836a.75.75 0 0 0 .678-1.071 2.78 2.78 0 0 1 .094-2.522 2.75 2.75 0 0 1 4.884 2.522.75.75 0 0 0 .67 1.071H26a.25.25 0 0 1 .25.25v4.318a4.25 4.25 0 0 0-4.753 5.62 4.268 4.268 0 0 0 4.753 2.747z"/></svg>