<svg xmlns="http://www.w3.org/2000/svg" width="32" height="32" fill="none" viewBox="0 0 32 32"><path fill="#000" d="M13 5.25H7A1.75 1.75 0 0 0 5.25 7v6A1.75 1.75 0 0 0 7 14.75h6A1.75 1.75 0 0 0 14.75 13V7A1.75 1.75 0 0 0 13 5.25m.25 7.75a.25.25 0 0 1-.25.25H7a.25.25 0 0 1-.25-.25V7A.25.25 0 0 1 7 6.75h6a.25.25 0 0 1 .25.25zM13 17.25H7A1.75 1.75 0 0 0 5.25 19v6A1.75 1.75 0 0 0 7 26.75h6A1.75 1.75 0 0 0 14.75 25v-6A1.75 1.75 0 0 0 13 17.25m.25 7.75a.25.25 0 0 1-.25.25H7a.25.25 0 0 1-.25-.25v-6a.25.25 0 0 1 .25-.25h6a.25.25 0 0 1 .25.25zM25 5.25h-6A1.75 1.75 0 0 0 17.25 7v6A1.75 1.75 0 0 0 19 14.75h6A1.75 1.75 0 0 0 26.75 13V7A1.75 1.75 0 0 0 25 5.25m.25 7.75a.25.25 0 0 1-.25.25h-6a.25.25 0 0 1-.25-.25V7a.25.25 0 0 1 .25-.25h6a.25.25 0 0 1 .25.25zm-8 9v-4a.75.75 0 1 1 1.5 0v4a.75.75 0 1 1-1.5 0m9.5-2a.75.75 0 0 1-.75.75h-3.25V26a.75.75 0 0 1-.75.75h-4a.75.75 0 1 1 0-1.5h3.25V18a.75.75 0 1 1 1.5 0v1.25H26a.75.75 0 0 1 .75.75m0 4v2a.75.75 0 1 1-1.5 0v-2a.75.75 0 1 1 1.5 0"/></svg>