<svg xmlns="http://www.w3.org/2000/svg" width="32" height="32" fill="none" viewBox="0 0 32 32"><path fill="#000" d="M17.25 22.5a1.25 1.25 0 1 1-2.5 0 1.25 1.25 0 0 1 2.5 0M16 9.25c-2.625 0-4.75 1.906-4.75 4.25v.5a.75.75 0 1 0 1.5 0v-.5c0-1.516 1.457-2.75 3.25-2.75s3.25 1.234 3.25 2.75-1.457 2.75-3.25 2.75a.75.75 0 0 0-.75.75v1a.75.75 0 1 0 1.5 0v-.302c2.264-.323 4-2.083 4-4.198 0-2.344-2.125-4.25-4.75-4.25M28.75 16A12.75 12.75 0 1 1 16 3.25 12.765 12.765 0 0 1 28.75 16m-1.5 0A11.25 11.25 0 1 0 16 27.25 11.26 11.26 0 0 0 27.25 16"/></svg>