<svg xmlns="http://www.w3.org/2000/svg" width="32" height="32" fill="none" viewBox="0 0 32 32"><path fill="#000" d="M12.5 7.25H5A1.75 1.75 0 0 0 3.25 9v8A1.75 1.75 0 0 0 5 18.75h7.75V20a4.25 4.25 0 0 1-4.25 4.25.75.75 0 1 0 0 1.5A5.76 5.76 0 0 0 14.25 20V9a1.75 1.75 0 0 0-1.75-1.75m.25 10H5a.25.25 0 0 1-.25-.25V9A.25.25 0 0 1 5 8.75h7.5a.25.25 0 0 1 .25.25zM27 7.25h-7.5A1.75 1.75 0 0 0 17.75 9v8a1.75 1.75 0 0 0 1.75 1.75h7.75V20A4.25 4.25 0 0 1 23 24.25a.75.75 0 1 0 0 1.5A5.76 5.76 0 0 0 28.75 20V9A1.75 1.75 0 0 0 27 7.25m.25 10H19.5a.25.25 0 0 1-.25-.25V9a.25.25 0 0 1 .25-.25H27a.25.25 0 0 1 .25.25z"/></svg>