<svg xmlns="http://www.w3.org/2000/svg" width="32" height="32" fill="none" viewBox="0 0 32 32"><path fill="#000" d="M11.5 16.75H5a1.74 1.74 0 0 1-1.285-.57 1.77 1.77 0 0 1-.457-1.355A12.73 12.73 0 0 1 8.6 5.575a1.75 1.75 0 0 1 2.524.55l3.25 5.625a.75.75 0 1 1-1.3.75L9.828 6.875a.25.25 0 0 0-.36-.081A11.23 11.23 0 0 0 4.75 14.96a.27.27 0 0 0 .071.209.24.24 0 0 0 .18.081h6.5a.75.75 0 1 1 0 1.5m17.243-1.925a12.73 12.73 0 0 0-5.344-9.25 1.75 1.75 0 0 0-2.524.55l-3.25 5.625a.75.75 0 0 0 1.3.75l3.248-5.625a.25.25 0 0 1 .36-.081 11.23 11.23 0 0 1 4.717 8.166.27.27 0 0 1-.071.209.24.24 0 0 1-.179.081h-6.5a.75.75 0 0 0 0 1.5H27a1.74 1.74 0 0 0 1.285-.57 1.77 1.77 0 0 0 .458-1.355M18.9 19.523a.75.75 0 0 0-1.031-.287.75.75 0 0 0-.268 1.037l3.228 5.59a.25.25 0 0 1-.11.353 11.29 11.29 0 0 1-9.438 0 .25.25 0 0 1-.11-.352l3.228-5.591a.75.75 0 1 0-1.299-.75l-3.225 5.59a1.75 1.75 0 0 0 .779 2.465 12.79 12.79 0 0 0 10.697 0 1.753 1.753 0 0 0 .774-2.464zM16 17.25a1.25 1.25 0 1 0 0-2.5 1.25 1.25 0 0 0 0 2.5"/></svg>