<svg xmlns="http://www.w3.org/2000/svg" width="32" height="32" fill="none" viewBox="0 0 32 32"><path fill="#000" d="M25 14.25a5.77 5.77 0 0 0-5.419 3.824 4 4 0 0 0-.581-.046c-2.067 0-3.75 1.732-3.75 3.86 0 2.13 1.683 3.862 3.75 3.862h6a5.75 5.75 0 0 0 0-11.5m0 10h-6c-1.241 0-2.25-1.059-2.25-2.361s1.009-2.361 2.25-2.361c.28-.001.557.053.816.16a.752.752 0 0 0 1.02-.544A4.249 4.249 0 1 1 25 24.25M2.75 20v2a.75.75 0 0 1-1.5 0v-2a12.75 12.75 0 0 1 21.639-9.141.75.75 0 0 1-1.046 1.076A11.25 11.25 0 0 0 2.75 20M14 12.75A7.26 7.26 0 0 0 6.75 20v2a.75.75 0 0 1-1.5 0v-2a8.75 8.75 0 0 1 13.927-7.054.75.75 0 1 1-.888 1.208A7.2 7.2 0 0 0 14 12.75m.75 4.088a3.25 3.25 0 0 0-4 3.163v2a.75.75 0 0 1-1.5 0v-2a4.75 4.75 0 0 1 5.851-4.626.751.751 0 1 1-.351 1.463"/></svg>