<svg xmlns="http://www.w3.org/2000/svg" width="32" height="32" fill="none" viewBox="0 0 32 32"><path fill="#000" d="M26.304 5.152 10.023 2.277A1.75 1.75 0 0 0 8 3.697L4.281 24.823a1.75 1.75 0 0 0 1.42 2.027l16.282 2.875a1.71 1.71 0 0 0 1.425-.388A1.75 1.75 0 0 0 24 28.302l3.719-21.125a1.75 1.75 0 0 0-1.415-2.025M26.25 6.92l-3.719 21.125a.25.25 0 0 1-.288.204L5.956 25.375a.25.25 0 0 1-.206-.295L9.469 3.955a.25.25 0 0 1 .102-.163.26.26 0 0 1 .191-.042l16.282 2.875a.25.25 0 0 1 .206.295m-2.986 2.519a.75.75 0 0 1-.869.614L12.02 8.22a.75.75 0 1 1 .261-1.476l10.375 1.831a.75.75 0 0 1 .608.864m-.694 3.936a.75.75 0 0 1-.863.613l-10.375-1.832a.75.75 0 1 1 .262-1.477l10.375 1.832a.75.75 0 0 1 .601.864m-5.875 3.024a.75.75 0 0 1-.87.607l-5.186-.916a.75.75 0 1 1 .261-1.476l5.186.915a.75.75 0 0 1 .605.874z"/></svg>