<svg xmlns="http://www.w3.org/2000/svg" width="32" height="32" fill="none" viewBox="0 0 32 32"><path fill="#000" d="M27 5.25H5A1.75 1.75 0 0 0 3.25 7v19a.75.75 0 0 0 1.085.671L8 24.84l3.665 1.832a.75.75 0 0 0 .67 0L16 24.84l3.665 1.832a.75.75 0 0 0 .67 0L24 24.84l3.665 1.832A.75.75 0 0 0 28.75 26V7A1.75 1.75 0 0 0 27 5.25m.25 19.536-2.915-1.457a.75.75 0 0 0-.67 0L20 25.16l-3.665-1.832a.75.75 0 0 0-.67 0L12 25.16 8.335 23.33a.75.75 0 0 0-.67 0L4.75 24.786V7A.25.25 0 0 1 5 6.75h22a.25.25 0 0 1 .25.25zm-7.72-12.25L17.06 15l2.47 2.47a.75.75 0 1 1-1.06 1.06L16 16.06l-2.47 2.47a.75.75 0 0 1-1.06-1.06L14.94 15l-2.47-2.47a.75.75 0 0 1 1.06-1.06L16 13.94l2.47-2.47a.75.75 0 0 1 1.06 1.06z"/></svg>