<svg xmlns="http://www.w3.org/2000/svg" width="32" height="32" fill="none" viewBox="0 0 32 32"><path fill="#000" d="M22.75 13a.75.75 0 0 1-.75.75H10a.75.75 0 1 1 0-1.5h12a.75.75 0 0 1 .75.75M22 16.25H10a.75.75 0 1 0 0 1.5h12a.75.75 0 1 0 0-1.5M28.75 7v19a.75.75 0 0 1-.75.75.75.75 0 0 1-.335-.079L24 24.84l-3.665 1.832a.75.75 0 0 1-.67 0L16 24.84l-3.665 1.832a.75.75 0 0 1-.67 0L8 24.84 4.335 26.67A.75.75 0 0 1 3.25 26V7A1.75 1.75 0 0 1 5 5.25h22A1.75 1.75 0 0 1 28.75 7m-1.5 0a.25.25 0 0 0-.25-.25H5a.25.25 0 0 0-.25.25v17.786l2.915-1.457a.75.75 0 0 1 .67 0L12 25.16l3.665-1.832a.75.75 0 0 1 .67 0L20 25.16l3.665-1.832a.75.75 0 0 1 .67 0l2.915 1.457z"/></svg>