<svg xmlns="http://www.w3.org/2000/svg" width="32" height="32" fill="none" viewBox="0 0 32 32"><path fill="#000" d="M11.75 26a.75.75 0 0 1-.75.75H5a2.75 2.75 0 0 1-2.375-4.125l4.589-7.93-2.345.625a.75.75 0 1 1-.388-1.45l4.097-1.096a.75.75 0 0 1 .922.532l1.1 4.095a.749.749 0 1 1-1.449.389l-.625-2.35-4.603 7.935A1.25 1.25 0 0 0 5 25.25h6a.75.75 0 0 1 .75.75m17.625-3.375-2.892-5a.75.75 0 0 0-1.298.75l2.893 5A1.25 1.25 0 0 1 27 25.25h-9.19l1.72-1.72a.75.75 0 0 0-1.06-1.06l-3 3a.75.75 0 0 0 0 1.06l3 3a.75.75 0 0 0 1.06-1.06l-1.72-1.72H27a2.75 2.75 0 0 0 2.375-4.125M17.081 4.375l4.59 7.93-2.345-.625a.75.75 0 0 0-.389 1.445l4.098 1.099a.75.75 0 0 0 .918-.532l1.098-4.097a.75.75 0 1 0-1.447-.389l-.631 2.353-4.598-7.934a2.75 2.75 0 0 0-4.75 0l-2.9 5a.75.75 0 0 0 1.299.75l2.895-5a1.25 1.25 0 0 1 2.162 0"/></svg>