<svg xmlns="http://www.w3.org/2000/svg" width="32" height="32" fill="none" viewBox="0 0 32 32"><path fill="#000" d="M27.851 7.465a1.75 1.75 0 0 0-1.777.058L15.75 14.099V8.98a1.73 1.73 0 0 0-1.795-1.729 1.75 1.75 0 0 0-.881.272L2.05 14.543a1.724 1.724 0 0 0 0 2.913l11.023 7.022a1.75 1.75 0 0 0 1.777.057 1.73 1.73 0 0 0 .899-1.515v-5.119l10.324 6.576a1.75 1.75 0 0 0 1.777.058 1.73 1.73 0 0 0 .899-1.515V8.98a1.73 1.73 0 0 0-.899-1.515M14.25 23.02a.22.22 0 0 1-.125.199.24.24 0 0 1-.25-.008l-11.019-7.02a.226.226 0 0 1 0-.382l11.019-7.02a.23.23 0 0 1 .25-.008.22.22 0 0 1 .125.199zm13 0a.22.22 0 0 1-.125.199.24.24 0 0 1-.25-.008l-11.024-7.02a.225.225 0 0 1 0-.382l11.024-7.02a.23.23 0 0 1 .25-.008.22.22 0 0 1 .125.199z"/></svg>