<svg xmlns="http://www.w3.org/2000/svg" width="32" height="32" fill="none" viewBox="0 0 32 32"><path fill="#000" d="M25 6.25h-8.25V2a.75.75 0 1 0-1.5 0v4.25H7A3.75 3.75 0 0 0 3.25 10v14A3.75 3.75 0 0 0 7 27.75h18A3.75 3.75 0 0 0 28.75 24V10A3.75 3.75 0 0 0 25 6.25M27.25 24A2.25 2.25 0 0 1 25 26.25H7A2.25 2.25 0 0 1 4.75 24V10A2.25 2.25 0 0 1 7 7.75h18A2.25 2.25 0 0 1 27.25 10zm-6.75-6.75h-9a3.25 3.25 0 1 0 0 6.5h9a3.25 3.25 0 1 0 0-6.5m-3.25 1.5v3.5h-2.5v-3.5zm-7.5 1.75a1.75 1.75 0 0 1 1.75-1.75h1.75v3.5H11.5a1.75 1.75 0 0 1-1.75-1.75m10.75 1.75h-1.75v-3.5h1.75a1.75 1.75 0 0 1 0 3.5M9.25 13.5a1.25 1.25 0 1 1 2.5 0 1.25 1.25 0 0 1-2.5 0m11 0a1.25 1.25 0 1 1 2.5 0 1.25 1.25 0 0 1-2.5 0"/></svg>