<svg xmlns="http://www.w3.org/2000/svg" width="32" height="32" fill="none" viewBox="0 0 32 32"><path fill="#000" d="M18.75 28a.75.75 0 0 1-.75.75h-4a.75.75 0 1 1 0-1.5h4a.75.75 0 0 1 .75.75M16 13.75a1.25 1.25 0 1 0 0-2.501 1.25 1.25 0 0 0 0 2.5m11.709 5.675-1.545 6.95a1.75 1.75 0 0 1-2.789 1l-3.474-2.625h-7.799l-3.477 2.625a1.75 1.75 0 0 1-2.792-1l-1.542-6.95a1.76 1.76 0 0 1 .364-1.5L8.28 13.58A15.2 15.2 0 0 1 9.34 8.99c1.59-3.985 4.44-6.485 5.591-7.375a1.75 1.75 0 0 1 2.145 0c1.151.89 4 3.39 5.592 7.375a15.2 15.2 0 0 1 1.06 4.589l3.624 4.345a1.76 1.76 0 0 1 .357 1.5M12.283 23.25h7.435c2.74-4.808 3.265-9.416 1.553-13.703-1.494-3.75-4.294-6.108-5.116-6.75a.25.25 0 0 0-.31 0c-.822.637-3.625 3-5.116 6.75-1.711 4.287-1.188 8.895 1.554 13.703m-1.408.55c-1.5-2.686-2.362-5.325-2.577-7.899l-2.49 2.984a.25.25 0 0 0-.053.214l1.546 6.955a.25.25 0 0 0 .4.14l.017-.013zm15.321-4.915L23.71 15.9c-.215 2.574-1.075 5.213-2.578 7.899l3.154 2.375.016.014a.25.25 0 0 0 .4-.142L26.25 19.1a.25.25 0 0 0-.058-.214z"/></svg>