<svg xmlns="http://www.w3.org/2000/svg" width="32" height="32" fill="none" viewBox="0 0 32 32"><path fill="#000" d="M12.729 23.181C12.68 23.375 11.51 27.75 5 27.75a.75.75 0 0 1-.75-.75c0-6.511 4.383-7.681 4.569-7.728a.75.75 0 0 1 .363 1.455c-.125.034-3.105.885-3.407 5.5 4.668-.308 5.49-3.375 5.5-3.407a.75.75 0 1 1 1.456.364zm11.691-8.54-.67.669v7.396a1.74 1.74 0 0 1-.512 1.236l-4.294 4.294a1.75 1.75 0 0 1-2.969-.986l-.682-4.894-5.645-5.649-4.892-.682a1.75 1.75 0 0 1-.992-2.97L8.058 8.76a1.74 1.74 0 0 1 1.236-.511h7.396l.669-.669c3.263-3.264 7.196-3.404 8.735-3.312a1.75 1.75 0 0 1 1.639 1.637c.09 1.539-.05 5.469-3.313 8.735M4.966 14.54l4.768.665L15.19 9.75H9.294a.25.25 0 0 0-.177.074l-4.292 4.29a.25.25 0 0 0-.061.25.24.24 0 0 0 .202.176m17.284 2.27-5.456 5.456.665 4.77a.25.25 0 0 0 .306.206.25.25 0 0 0 .119-.067l4.292-4.293a.25.25 0 0 0 .074-.176zM26.235 6a.25.25 0 0 0-.229-.229 9.8 9.8 0 0 0-7.586 2.875L11.061 16 16 20.939l6.47-6.47.889-.888A9.8 9.8 0 0 0 26.235 6"/></svg>