<svg xmlns="http://www.w3.org/2000/svg" width="32" height="32" fill="none" viewBox="0 0 32 32"><path fill="#000" d="M26 17.25H6A1.75 1.75 0 0 0 4.25 19v5A1.75 1.75 0 0 0 6 25.75h20A1.75 1.75 0 0 0 27.75 24v-5A1.75 1.75 0 0 0 26 17.25m.25 6.75a.25.25 0 0 1-.25.25H6a.25.25 0 0 1-.25-.25v-5a.25.25 0 0 1 .25-.25h20a.25.25 0 0 1 .25.25zM26 6.25H6A1.75 1.75 0 0 0 4.25 8v5A1.75 1.75 0 0 0 6 14.75h20A1.75 1.75 0 0 0 27.75 13V8A1.75 1.75 0 0 0 26 6.25m.25 6.75a.25.25 0 0 1-.25.25H6a.25.25 0 0 1-.25-.25V8A.25.25 0 0 1 6 7.75h20a.25.25 0 0 1 .25.25z"/></svg>