<svg xmlns="http://www.w3.org/2000/svg" width="32" height="32" fill="none" viewBox="0 0 32 32"><path fill="#000" d="M12.188 19.813A8.7 8.7 0 0 1 14.75 26a.75.75 0 1 1-1.5 0A7.25 7.25 0 0 0 6 18.75a.75.75 0 1 1 0-1.5 8.7 8.7 0 0 1 6.188 2.563M6 11.25a.75.75 0 1 0 0 1.5A13.25 13.25 0 0 1 19.25 26a.75.75 0 1 0 1.5 0A14.75 14.75 0 0 0 6 11.25m14.673.078A20.62 20.62 0 0 0 6 5.25a.75.75 0 1 0 0 1.5 19.13 19.13 0 0 1 13.611 5.639A19.13 19.13 0 0 1 25.25 26a.75.75 0 1 0 1.5 0 20.62 20.62 0 0 0-6.078-14.672M6.5 24.25a1.25 1.25 0 1 0 0 2.5 1.25 1.25 0 0 0 0-2.5"/></svg>