<svg xmlns="http://www.w3.org/2000/svg" width="32" height="32" fill="none" viewBox="0 0 32 32"><path fill="#000" d="M25 2.25a.75.75 0 0 0-.75.75v2.25h-4.5V3a.75.75 0 1 0-1.5 0v2.25h-4.5V3a.75.75 0 1 0-1.5 0v2.25h-4.5V3a.75.75 0 0 0-1.5 0v26a.75.75 0 1 0 1.5 0v-2.25h4.5V29a.75.75 0 1 0 1.5 0v-2.25h4.5V29a.75.75 0 1 0 1.5 0v-2.25h4.5V29a.75.75 0 1 0 1.5 0V3a.75.75 0 0 0-.75-.75M7.75 6.75h16.5v18.5H7.75zm8.25 15a.75.75 0 0 0 .642-.364l3-5a.75.75 0 0 0 0-.772l-3-5a.75.75 0 0 0-1.284 0l-3 5a.75.75 0 0 0 0 .772l3 5a.75.75 0 0 0 .642.364m0-9.292L18.125 16 16 19.543 13.875 16z"/></svg>