<svg xmlns="http://www.w3.org/2000/svg" width="32" height="32" fill="none" viewBox="0 0 32 32"><path fill="#000" d="m29.696 16.721-4-10a.75.75 0 0 0-.857-.453L16.75 8.065V5a.75.75 0 1 0-1.5 0v3.399l-8.412 1.875a.75.75 0 0 0-.534.454l-4 10A.8.8 0 0 0 2.25 21c0 2.733 2.914 3.75 4.75 3.75s4.75-1.017 4.75-3.75a.8.8 0 0 0-.054-.279l-3.672-9.18 7.226-1.606V26.25H13a.75.75 0 1 0 0 1.5h6a.75.75 0 1 0 0-1.5h-2.25V9.601l7.026-1.561-3.472 8.681a.8.8 0 0 0-.054.279c0 2.733 2.914 3.75 4.75 3.75s4.75-1.017 4.75-3.75a.8.8 0 0 0-.054-.279M7 23.25a4.6 4.6 0 0 1-2.185-.57c-.671-.391-1.019-.898-1.061-1.546l3.25-8.114 3.25 8.114C10.133 22.856 7.823 23.25 7 23.25m18-4a4.6 4.6 0 0 1-2.185-.57c-.671-.391-1.019-.898-1.061-1.546l3.25-8.114 3.25 8.114c-.122 1.722-2.431 2.116-3.254 2.116"/></svg>