<svg xmlns="http://www.w3.org/2000/svg" width="32" height="32" fill="none" viewBox="0 0 32 32"><path fill="#000" d="M27.75 5v5a.75.75 0 1 1-1.5 0V5.75H22a.75.75 0 1 1 0-1.5h5a.75.75 0 0 1 .75.75M10 26.25H5.75V22a.75.75 0 1 0-1.5 0v5a.75.75 0 0 0 .75.75h5a.75.75 0 1 0 0-1.5m17-5a.75.75 0 0 0-.75.75v4.25H22a.75.75 0 1 0 0 1.5h5a.75.75 0 0 0 .75-.75v-5a.75.75 0 0 0-.75-.75M5 10.75a.75.75 0 0 0 .75-.75V5.75H10a.75.75 0 1 0 0-1.5H5a.75.75 0 0 0-.75.75v5a.75.75 0 0 0 .75.75m16 12H11A1.75 1.75 0 0 1 9.25 21V11A1.75 1.75 0 0 1 11 9.25h10A1.75 1.75 0 0 1 22.75 11v10A1.75 1.75 0 0 1 21 22.75M21.25 11a.25.25 0 0 0-.25-.25H11a.25.25 0 0 0-.25.25v10a.25.25 0 0 0 .25.25h10a.25.25 0 0 0 .25-.25z"/></svg>