<svg xmlns="http://www.w3.org/2000/svg" width="32" height="32" fill="none" viewBox="0 0 32 32"><path fill="#000" d="M19.923 14a.75.75 0 0 1 .196-1.043l8.457-5.788a.75.75 0 1 1 .848 1.238l-8.459 5.788A.75.75 0 0 1 19.922 14m9.702 10.636a.75.75 0 0 1-1.043.195L17 16.91l-5.625 3.848a4.25 4.25 0 1 1-.851-1.232L15.67 16l-5.142-3.52-.029.02a4.25 4.25 0 1 1 .875-1.263l18.048 12.35a.75.75 0 0 1 .202 1.05M9.445 11.444a2.75 2.75 0 1 0-3.89 0 2.735 2.735 0 0 0 3.89 0M10.25 22.5a2.75 2.75 0 1 0-5.5.002 2.75 2.75 0 0 0 5.5-.002"/></svg>