<svg xmlns="http://www.w3.org/2000/svg" width="32" height="32" fill="none" viewBox="0 0 32 32"><path fill="#000" d="M30.556 19.5c-.165-.183-3.033-3.302-7.67-5.062-.188-2.312-1.017-4.414-2.376-6C18.718 6.35 16.125 5.25 13 5.25c-6.314 0-10.437 5.672-10.61 5.914a.752.752 0 0 0 1.22.875C3.648 11.984 7.47 6.75 13 6.75c2.671 0 4.875.919 6.366 2.659 1.033 1.202 1.705 2.767 1.953 4.507a17.4 17.4 0 0 0-4.75-.666c-3.198 0-5.875.831-7.75 2.403-1.638 1.374-2.578 3.292-2.578 5.25a5.7 5.7 0 0 0 1.66 4.08c1.17 1.157 2.783 1.767 4.674 1.767 6.466 0 10.069-5.386 10.335-10.672 4.006 1.686 6.5 4.386 6.534 4.425a.75.75 0 0 0 1.112-1zm-11.43 2.691c-1.136 1.395-3.196 3.059-6.55 3.059-2.326 0-4.826-1.36-4.826-4.344 0-2.965 2.761-6.156 8.825-6.156 1.647.005 3.284.268 4.85.777-.017 2.466-.852 4.89-2.3 6.664"/></svg>