<svg xmlns="http://www.w3.org/2000/svg" width="32" height="32" fill="none" viewBox="0 0 32 32"><path fill="#000" d="M12.25 17a.75.75 0 0 1 .75-.75h8a.75.75 0 1 1 0 1.5h-8a.75.75 0 0 1-.75-.75m.75-3.25h8a.75.75 0 1 0 0-1.5h-8a.75.75 0 1 0 0 1.5M28.75 24A3.75 3.75 0 0 1 25 27.75H11A3.75 3.75 0 0 1 7.25 24V8a2.25 2.25 0 1 0-4.5 0c0 .845.697 1.399.705 1.404A.75.75 0 0 1 2.55 10.6c-.05-.04-1.3-.994-1.3-2.6A3.75 3.75 0 0 1 5 4.25h17A3.75 3.75 0 0 1 25.75 8v13.25H27a.75.75 0 0 1 .45.15c.05.04 1.3.994 1.3 2.6m-15.5 0c0-.845-.699-1.399-.705-1.404A.75.75 0 0 1 13 21.25h11.25V8A2.25 2.25 0 0 0 22 5.75H8c.488.648.752 1.438.75 2.25v16a2.25 2.25 0 0 0 4.5 0m14 0a1.87 1.87 0 0 0-.543-1.25H14.486c.174.394.264.82.265 1.25a3.73 3.73 0 0 1-.75 2.25h11A2.25 2.25 0 0 0 27.25 24"/></svg>