<svg xmlns="http://www.w3.org/2000/svg" width="32" height="32" fill="none" viewBox="0 0 32 32"><path fill="#000" d="M28.053 13.025c-.488-.509-.992-1.034-1.194-1.523-.188-.453-.198-1.125-.209-1.835-.017-1.172-.037-2.5-.927-3.39s-2.223-.91-3.39-.927c-.71-.011-1.375-.021-1.835-.209-.49-.202-1.014-.706-1.523-1.194-.83-.795-1.77-1.697-2.975-1.697s-2.145.902-2.975 1.697c-.509.488-1.034.992-1.523 1.194-.453.188-1.125.198-1.835.209-1.172.018-2.5.038-3.39.928s-.91 2.222-.927 3.39c-.011.71-.021 1.375-.209 1.835-.202.488-.706 1.013-1.194 1.522-.795.83-1.697 1.77-1.697 2.975s.902 2.145 1.697 2.975c.488.509.992 1.034 1.194 1.522.188.454.198 1.125.209 1.835.018 1.173.038 2.5.928 3.39s2.222.91 3.39.928c.71.011 1.375.021 1.835.209.488.202 1.013.706 1.522 1.193.83.796 1.77 1.698 2.975 1.698s2.145-.902 2.975-1.698c.509-.487 1.034-.99 1.522-1.193.454-.188 1.125-.198 1.835-.209 1.173-.017 2.5-.037 3.39-.927s.91-2.218.928-3.39c.011-.71.021-1.375.209-1.835.202-.49.706-1.014 1.193-1.523.796-.83 1.698-1.77 1.698-2.975s-.902-2.145-1.698-2.975m-1.083 4.913c-.584.607-1.187 1.237-1.5 1.987-.297.717-.31 1.565-.322 2.385-.014.93-.03 1.893-.488 2.353-.459.46-1.422.473-2.352.487-.82.013-1.668.025-2.386.323-.75.31-1.375.913-1.988 1.5-.657.625-1.335 1.28-1.937 1.28-.6 0-1.28-.652-1.937-1.28-.607-.584-1.238-1.188-1.988-1.5-.717-.298-1.564-.31-2.384-.323-.93-.014-1.893-.029-2.353-.487-.46-.46-.474-1.423-.487-2.353-.013-.82-.026-1.668-.323-2.385-.31-.75-.914-1.375-1.5-1.989C4.401 17.28 3.75 16.601 3.75 16s.651-1.28 1.28-1.937c.584-.608 1.188-1.238 1.5-1.988.297-.717.31-1.565.322-2.385.014-.93.03-1.892.488-2.352.459-.46 1.422-.474 2.353-.488.82-.012 1.667-.025 2.385-.322.75-.31 1.375-.914 1.988-1.5C14.72 4.4 15.4 3.75 16 3.75s1.28.651 1.938 1.28c.607.584 1.237 1.188 1.987 1.5.717.297 1.565.31 2.385.322.93.014 1.893.03 2.353.488.46.459.473 1.422.487 2.353.013.82.025 1.667.323 2.385.31.75.913 1.375 1.5 1.988.625.656 1.28 1.335 1.28 1.937 0 .6-.654 1.277-1.283 1.935m-5.44-5.468a.75.75 0 0 1 0 1.06l-7 7a.75.75 0 0 1-1.06 0l-3-3a.75.75 0 0 1 1.06-1.06L14 18.939l6.47-6.469a.75.75 0 0 1 1.06 0"/></svg>