<svg xmlns="http://www.w3.org/2000/svg" width="32" height="32" fill="none" viewBox="0 0 32 32"><path fill="#000" d="M7.75 27a.75.75 0 0 1-.75.75H6A1.75 1.75 0 0 1 4.25 26v-1a.75.75 0 1 1 1.5 0v1a.25.25 0 0 0 .25.25h1a.75.75 0 0 1 .75.75m6.25-.75h-2a.75.75 0 1 0 0 1.5h2a.75.75 0 1 0 0-1.5m-9-5.5a.75.75 0 0 0 .75-.75v-2a.75.75 0 1 0-1.5 0v2a.75.75 0 0 0 .75.75m16 3.5a.75.75 0 0 0-.75.75v1a.25.25 0 0 1-.25.25h-1a.75.75 0 1 0 0 1.5h1A1.75 1.75 0 0 0 21.75 26v-1a.75.75 0 0 0-.75-.75m0-10.5a.75.75 0 0 0 .75-.75v-1A1.75 1.75 0 0 0 20 10.25h-1a.75.75 0 1 0 0 1.5h1a.25.25 0 0 1 .25.25v1a.75.75 0 0 0 .75.75m-14-3.5H6A1.75 1.75 0 0 0 4.25 12v1a.75.75 0 1 0 1.5 0v-1a.25.25 0 0 1 .25-.25h1a.75.75 0 1 0 0-1.5m19-6H12A1.75 1.75 0 0 0 10.25 6v5a.75.75 0 0 0 .75.75h3a.75.75 0 1 0 0-1.5h-2.25V6a.25.25 0 0 1 .25-.25h14a.25.25 0 0 1 .25.25v14a.25.25 0 0 1-.25.25h-4.25V18a.75.75 0 1 0-1.5 0v3a.75.75 0 0 0 .75.75h5A1.75 1.75 0 0 0 27.75 20V6A1.75 1.75 0 0 0 26 4.25"/></svg>