<svg xmlns="http://www.w3.org/2000/svg" width="32" height="32" fill="none" viewBox="0 0 32 32"><path fill="#000" d="M18.75 5a.75.75 0 0 1-.75.75h-4a.75.75 0 1 1 0-1.5h4a.75.75 0 0 1 .75.75M18 26.25h-4a.75.75 0 1 0 0 1.5h4a.75.75 0 1 0 0-1.5M26.25 6v3a.75.75 0 1 0 1.5 0V6A1.75 1.75 0 0 0 26 4.25h-3a.75.75 0 1 0 0 1.5h3a.25.25 0 0 1 .25.25m.75 7.25a.75.75 0 0 0-.75.75v4a.75.75 0 1 0 1.5 0v-4a.75.75 0 0 0-.75-.75m-22 5.5a.75.75 0 0 0 .75-.75v-4a.75.75 0 1 0-1.5 0v4a.75.75 0 0 0 .75.75m4 7.5H6a.25.25 0 0 1-.25-.25v-3a.75.75 0 1 0-1.5 0v3A1.75 1.75 0 0 0 6 27.75h3a.75.75 0 1 0 0-1.5m0-22H6A1.75 1.75 0 0 0 4.25 6v3a.75.75 0 0 0 1.5 0V6A.25.25 0 0 1 6 5.75h3a.75.75 0 0 0 0-1.5m21 22h-2.25V24a.75.75 0 1 0-1.5 0v2.25H24a.75.75 0 1 0 0 1.5h2.25V30a.75.75 0 1 0 1.5 0v-2.25H30a.75.75 0 1 0 0-1.5"/></svg>