<svg xmlns="http://www.w3.org/2000/svg" width="32" height="32" fill="none" viewBox="0 0 32 32"><path fill="#000" d="M13.25 5a.75.75 0 0 1 .75-.75h4a.75.75 0 1 1 0 1.5h-4a.75.75 0 0 1-.75-.75M18 26.25h-4a.75.75 0 1 0 0 1.5h4a.75.75 0 1 0 0-1.5m8-22h-3a.75.75 0 1 0 0 1.5h3a.25.25 0 0 1 .25.25v3a.75.75 0 1 0 1.5 0V6A1.75 1.75 0 0 0 26 4.25m1 9a.75.75 0 0 0-.75.75v4a.75.75 0 1 0 1.5 0v-4a.75.75 0 0 0-.75-.75m-22 5.5a.75.75 0 0 0 .75-.75v-4a.75.75 0 1 0-1.5 0v4a.75.75 0 0 0 .75.75m4 7.5H6a.25.25 0 0 1-.25-.25v-3a.75.75 0 1 0-1.5 0v3A1.75 1.75 0 0 0 6 27.75h3a.75.75 0 1 0 0-1.5M6.555 4.5a.75.75 0 0 0-1.11 1l20 22a.75.75 0 1 0 1.11-1.01z"/></svg>