<svg xmlns="http://www.w3.org/2000/svg" width="32" height="32" fill="none" viewBox="0 0 32 32"><path fill="#000" d="m29.53 13.47-10-10a.75.75 0 0 0-1.28.53v5.275c-6.81.449-15.049 6.875-15.991 15.083a1.25 1.25 0 0 0 2.153 1c1.408-1.502 6.463-6.283 13.838-6.592V24a.75.75 0 0 0 1.28.53l10-10a.75.75 0 0 0 0-1.06m-9.78 8.72V18a.75.75 0 0 0-.75-.75c-3.466 0-6.845.906-10.04 2.694a24.2 24.2 0 0 0-5.101 3.831c.587-3.32 2.52-6.5 5.5-9.034 2.95-2.498 6.552-3.99 9.641-3.99a.75.75 0 0 0 .75-.75V5.81l8.189 8.19z"/></svg>