<svg xmlns="http://www.w3.org/2000/svg" width="32" height="32" fill="none" viewBox="0 0 32 32"><path fill="#000" d="M26 5.25H6A1.75 1.75 0 0 0 4.25 7v7.346c0 11.03 9.335 14.69 11.206 15.311.353.12.735.12 1.088 0 1.875-.625 11.206-4.28 11.206-15.31V7A1.75 1.75 0 0 0 26 5.25m-9.93 22.986a.2.2 0 0 1-.14 0c-1.182-.392-5.642-2.125-8.25-6.5L16 15.915l8.32 5.824c-2.608 4.377-7.07 6.105-8.25 6.497M26.25 14.35c0 2.375-.479 4.375-1.231 6.049l-8.589-6.013a.75.75 0 0 0-.86 0l-8.589 6.013c-.75-1.675-1.231-3.673-1.231-6.05V7A.25.25 0 0 1 6 6.75h20a.25.25 0 0 1 .25.25z"/></svg>