<svg xmlns="http://www.w3.org/2000/svg" width="32" height="32" fill="none" viewBox="0 0 32 32"><path fill="#000" d="M6.555 4.5a.75.75 0 0 0-1.204.875A1.75 1.75 0 0 0 4.25 7v7.346c0 11.032 9.335 14.69 11.206 15.311.353.12.735.12 1.088 0 .97-.322 4.185-1.546 6.911-4.344l1.99 2.187a.75.75 0 0 0 .555.25.75.75 0 0 0 .555-1.25zm9.515 23.741a.2.2 0 0 1-.141 0C14.23 27.672 5.75 24.35 5.75 14.35V7A.25.25 0 0 1 6 6.75h.577l15.867 17.453c-2.501 2.602-5.479 3.737-6.374 4.033zM27.75 7v7.346c0 2.423-.459 4.671-1.365 6.684a.754.754 0 0 1-1.375-.616c.819-1.818 1.234-3.859 1.234-6.068V7a.25.25 0 0 0-.25-.25H12.315a.75.75 0 1 1 0-1.5H26A1.75 1.75 0 0 1 27.75 7"/></svg>