<svg xmlns="http://www.w3.org/2000/svg" width="32" height="32" fill="none" viewBox="0 0 32 32"><path fill="#000" d="M21.696 14.721a.75.75 0 0 1-.417.975l-4.091 1.636L19.6 20.55a.75.75 0 0 1-1.2.9l-2.4-3.2-2.4 3.2a.75.75 0 1 1-1.2-.9l2.412-3.218-4.09-1.636a.75.75 0 0 1 .557-1.392l3.971 1.588V12a.75.75 0 1 1 1.5 0v3.893l3.971-1.59a.75.75 0 0 1 .975.418M27.75 7v7.346c0 11.032-9.335 14.69-11.206 15.311-.353.12-.735.12-1.088 0C13.585 29.04 4.25 25.376 4.25 14.35V7A1.75 1.75 0 0 1 6 5.25h20A1.75 1.75 0 0 1 27.75 7m-1.5 0a.25.25 0 0 0-.25-.25H6a.25.25 0 0 0-.25.25v7.346c0 10 8.48 13.324 10.179 13.888a.2.2 0 0 0 .141 0c1.7-.564 10.18-3.887 10.18-13.888z"/></svg>