<svg xmlns="http://www.w3.org/2000/svg" width="32" height="32" fill="none" viewBox="0 0 32 32"><path fill="#000" d="M26 5.25H6A1.75 1.75 0 0 0 4.25 7v7.346c0 11.032 9.335 14.69 11.206 15.311.353.12.735.12 1.088 0 1.875-.625 11.206-4.28 11.206-15.31V7A1.75 1.75 0 0 0 26 5.25m.25 9.099c0 10-8.48 13.324-10.18 13.887a.2.2 0 0 1-.141 0C14.23 27.672 5.75 24.35 5.75 14.35V7A.25.25 0 0 1 6 6.75h20a.25.25 0 0 1 .25.25zM15.25 17v-5a.75.75 0 1 1 1.5 0v5a.75.75 0 1 1-1.5 0m2 4.5a1.25 1.25 0 1 1-2.5 0 1.25 1.25 0 0 1 2.5 0"/></svg>