<svg xmlns="http://www.w3.org/2000/svg" width="32" height="32" fill="none" viewBox="0 0 32 32"><path fill="#000" d="M26 5.25H6A1.75 1.75 0 0 0 4.25 7v7.346c0 11.03 9.335 14.69 11.206 15.311.353.12.735.12 1.088 0 1.875-.625 11.206-4.28 11.206-15.31V7A1.75 1.75 0 0 0 26 5.25m.25 9.099c0 10-8.48 13.324-10.18 13.887a.2.2 0 0 1-.14 0c-1.7-.564-10.18-3.887-10.18-13.887V7A.25.25 0 0 1 6 6.75h20a.25.25 0 0 1 .25.25zm-4.72-1.875a.75.75 0 0 1 0 1.06l-7 7a.75.75 0 0 1-1.06 0l-3-3a.75.75 0 0 1 1.06-1.06L14 18.939l6.47-6.469a.75.75 0 0 1 1.06 0z"/></svg>