<svg xmlns="http://www.w3.org/2000/svg" width="32" height="32" fill="none" viewBox="0 0 32 32"><path fill="#000" d="M29.684 8.839a1.4 1.4 0 0 0-1.216-.964l-4.804-.406-1.875-4.375a1.404 1.404 0 0 0-2.579 0l-1.875 4.375-4.801.406a1.39 1.39 0 0 0-.795 2.443l3.636 3.105-1.09 4.615a1.39 1.39 0 0 0 .533 1.437 1.4 1.4 0 0 0 1.552.075l4.125-2.455 4.131 2.455a1.403 1.403 0 0 0 2.036-.713c.094-.256.111-.534.048-.8l-1.085-4.614 3.635-3.104a1.385 1.385 0 0 0 .424-1.48M24.6 12.326a1.38 1.38 0 0 0-.45 1.375l1.048 4.444-3.979-2.365a1.4 1.4 0 0 0-1.44 0l-3.977 2.365L16.85 13.7a1.38 1.38 0 0 0-.45-1.375l-3.486-2.976 4.606-.39a1.4 1.4 0 0 0 1.171-.843l1.81-4.22 1.81 4.22a1.4 1.4 0 0 0 1.17.843l4.607.39zm-14.07 3.204-7 7a.75.75 0 0 1-1.06-1.06l7-7a.75.75 0 0 1 1.06 1.06m2 5.94a.75.75 0 0 1 0 1.06l-7 7a.75.75 0 0 1-1.06-1.06l7-7a.75.75 0 0 1 1.06 0m9 0a.75.75 0 0 1 0 1.06l-7 7a.75.75 0 0 1-1.06-1.06l7-7a.75.75 0 0 1 1.06 0"/></svg>