<svg xmlns="http://www.w3.org/2000/svg" width="32" height="32" fill="none" viewBox="0 0 32 32"><path fill="#000" d="M27.576 7.52A.75.75 0 0 0 27 7.25H6.625l-.646-3.562A1.75 1.75 0 0 0 4.256 2.25H2a.75.75 0 0 0 0 1.5h2.25a.25.25 0 0 1 .25.205l3.189 17.538c.1.559.373 1.073.78 1.47a3.25 3.25 0 1 0 4.767.787h6.528a3.25 3.25 0 1 0 2.736-1.5H10.396a1.25 1.25 0 0 1-1.23-1.026l-.45-2.474h14.797a2.75 2.75 0 0 0 2.706-2.258l1.518-8.358a.75.75 0 0 0-.16-.614M12.25 25.5a1.75 1.75 0 1 1-3.5 0 1.75 1.75 0 0 1 3.5 0m12 0a1.75 1.75 0 1 1-3.5 0 1.75 1.75 0 0 1 3.5 0m.492-9.276a1.25 1.25 0 0 1-1.23 1.026H8.445l-1.545-8.5H26.1z"/></svg>