<svg xmlns="http://www.w3.org/2000/svg" width="32" height="32" fill="none" viewBox="0 0 32 32"><path fill="#000" d="M11.75 27a1.75 1.75 0 1 1-3.5 0 1.75 1.75 0 0 1 3.5 0M23 25.25a1.75 1.75 0 1 0 0 3.5 1.75 1.75 0 0 0 0-3.5m5.716-16.03-3.565 11.589a2.74 2.74 0 0 1-2.625 1.941H10.51a2.76 2.76 0 0 1-2.645-2L3.344 4.931a.25.25 0 0 0-.241-.181H1a.75.75 0 0 1 0-1.5h2.103a1.76 1.76 0 0 1 1.682 1.269L5.851 8.25H28a.75.75 0 0 1 .716.97m-1.731.53H6.28l3.026 10.594a1.25 1.25 0 0 0 1.203.906h12.014a1.25 1.25 0 0 0 1.195-.883z"/></svg>