<svg xmlns="http://www.w3.org/2000/svg" width="32" height="32" fill="none" viewBox="0 0 32 32"><path fill="#000" d="M17.25 14.5a1.25 1.25 0 1 1 2.5 0 1.25 1.25 0 0 1-2.5 0m10.488-4A9.76 9.76 0 0 1 18 19.75h-4a1.75 1.75 0 0 0 0 3.5h7a.75.75 0 1 1 0 1.5h-6.25v2.5H19a.75.75 0 1 1 0 1.5h-7a9.75 9.75 0 1 1 0-19.5h14.5a1.75 1.75 0 0 0 0-3.5H16A2.75 2.75 0 0 1 13.25 3a.75.75 0 1 1 1.5 0A1.25 1.25 0 0 0 16 4.25h10.5a3.25 3.25 0 0 1 1.238 6.25M6.33 24.985l4.435-3.168a3.241 3.241 0 0 1 .166-1.389L3.94 17.25a8.23 8.23 0 0 0 2.392 7.735m4.956-1.697-3.726 2.66A8.2 8.2 0 0 0 12 27.25h1.25v-2.589a3.26 3.26 0 0 1-1.963-1.373m1.963-4.95V10.75H12a8.26 8.26 0 0 0-7.607 5.059l7.357 3.346a3.23 3.23 0 0 1 1.5-.816m12.966-7.588H14.75v7.5H18a8.26 8.26 0 0 0 8.216-7.5"/></svg>