<svg xmlns="http://www.w3.org/2000/svg" width="32" height="32" fill="none" viewBox="0 0 32 32"><path fill="#000" d="M29.53 22.47a.75.75 0 0 1 0 1.06l-3 3a.75.75 0 0 1-1.06-1.06l1.72-1.72h-2.073a8.77 8.77 0 0 1-7.125-3.664l-5.213-7.3A7.27 7.27 0 0 0 6.883 9.75H4a.75.75 0 0 1 0-1.5h2.883a8.77 8.77 0 0 1 7.125 3.664l5.213 7.3a7.26 7.26 0 0 0 5.897 3.036h2.072l-1.72-1.72a.75.75 0 0 1 1.06-1.06zM18.023 13.17a.75.75 0 0 0 1.046-.174l.148-.209a7.27 7.27 0 0 1 5.9-3.036h2.073l-1.72 1.72a.75.75 0 1 0 1.06 1.06l3-3a.75.75 0 0 0 0-1.06l-3-3a.75.75 0 0 0-1.06 1.06l1.72 1.72h-2.073a8.77 8.77 0 0 0-7.125 3.664l-.145.211a.75.75 0 0 0 .175 1.044m-4.046 5.662a.75.75 0 0 0-1.046.174l-.148.209a7.26 7.26 0 0 1-5.9 3.036H4a.75.75 0 1 0 0 1.5h2.883a8.77 8.77 0 0 0 7.125-3.664l.148-.208a.75.75 0 0 0-.179-1.047"/></svg>