<svg xmlns="http://www.w3.org/2000/svg" width="32" height="32" fill="none" viewBox="0 0 32 32"><path fill="#000" d="M29.53 22.47a.75.75 0 0 1 0 1.06l-3 3a.75.75 0 0 1-1.06-1.06l1.72-1.72h-5.675a1.76 1.76 0 0 1-1.425-.732L10.689 9.855a.25.25 0 0 0-.204-.105H4a.75.75 0 0 1 0-1.5h6.485a1.76 1.76 0 0 1 1.425.733l9.401 13.162a.25.25 0 0 0 .204.105h5.675l-1.72-1.72a.75.75 0 0 1 1.06-1.06zm-11.509-9.3a.75.75 0 0 0 1.046-.175l2.25-3.14a.25.25 0 0 1 .204-.105h5.675l-1.726 1.72a.75.75 0 1 0 1.06 1.06l3-3a.75.75 0 0 0 0-1.06l-3-3a.75.75 0 0 0-1.06 1.06l1.72 1.72h-5.675a1.76 1.76 0 0 0-1.425.733l-2.242 3.142a.75.75 0 0 0 .173 1.045m-4.042 5.66a.75.75 0 0 0-1.046.175l-2.244 3.14a.25.25 0 0 1-.204.105H4a.75.75 0 1 0 0 1.5h6.485a1.76 1.76 0 0 0 1.425-.732l2.242-3.143a.75.75 0 0 0-.173-1.045"/></svg>