<svg xmlns="http://www.w3.org/2000/svg" width="32" height="32" fill="none" viewBox="0 0 32 32"><path fill="#000" d="m26.53 10.47-7-7a.75.75 0 0 0-.53-.22H7A1.75 1.75 0 0 0 5.25 5v22A1.75 1.75 0 0 0 7 28.75h18A1.75 1.75 0 0 0 26.75 27V11a.75.75 0 0 0-.22-.53M25.25 27a.25.25 0 0 1-.25.25H7a.25.25 0 0 1-.25-.25V5A.25.25 0 0 1 7 4.75h11.69l6.56 6.561zm-16-12v9a.75.75 0 0 0 .75.75h12a.75.75 0 0 0 .75-.75v-9a.75.75 0 0 0-.75-.75H10a.75.75 0 0 0-.75.75m1.5.75h10.5v7.5h-2.5V19a.75.75 0 1 0-1.5 0v4.25h-2.5V19a.75.75 0 1 0-1.5 0v4.25h-2.5z"/></svg>