<svg xmlns="http://www.w3.org/2000/svg" width="32" height="32" fill="none" viewBox="0 0 32 32"><path fill="#000" d="M25 4.25a.75.75 0 0 0-.75.75v9.105L8.921 4.518a1.75 1.75 0 0 0-1.776-.047 1.71 1.71 0 0 0-.895 1.514v20.03a1.71 1.71 0 0 0 .895 1.514 1.75 1.75 0 0 0 1.776-.046l15.329-9.587V27a.75.75 0 1 0 1.5 0V5a.75.75 0 0 0-.75-.75m-.86 11.945L8.125 26.211a.25.25 0 0 1-.342-.077.22.22 0 0 1-.033-.119V5.985a.22.22 0 0 1 .125-.203A.26.26 0 0 1 8 5.75a.25.25 0 0 1 .125.039L24.14 15.805a.228.228 0 0 1 0 .39"/></svg>