<svg xmlns="http://www.w3.org/2000/svg" width="32" height="32" fill="none" viewBox="0 0 32 32"><path fill="#000" d="M11.5 13.25a3.25 3.25 0 1 0 0 6.5 3.25 3.25 0 0 0 0-6.5m0 5a1.75 1.75 0 1 1 0-3.5 1.75 1.75 0 0 1 0 3.5m9-5a3.25 3.25 0 1 0 0 6.5 3.25 3.25 0 0 0 0-6.5m0 5a1.75 1.75 0 1 1 0-3.5 1.75 1.75 0 0 1 0 3.5m-4.5-16c-7.03 0-12.75 5.5-12.75 12.25 0 4.221 2.287 8.164 6 10.394V27A1.75 1.75 0 0 0 11 28.75h10A1.75 1.75 0 0 0 22.75 27v-2.106c3.712-2.23 6-6.173 6-10.394 0-6.75-5.72-12.25-12.75-12.25m5.636 21.555a.75.75 0 0 0-.386.656V27a.25.25 0 0 1-.25.25h-2.25V24a.75.75 0 1 0-1.5 0v3.25h-2.5V24a.75.75 0 1 0-1.5 0v3.25H11a.25.25 0 0 1-.25-.25v-2.539a.75.75 0 0 0-.386-.656C6.9 21.886 4.75 18.32 4.75 14.5 4.75 8.573 9.796 3.75 16 3.75S27.25 8.573 27.25 14.5c0 3.82-2.151 7.386-5.614 9.305"/></svg>