<svg xmlns="http://www.w3.org/2000/svg" width="32" height="32" fill="none" viewBox="0 0 32 32"><path fill="#000" d="M27.25 16a3.75 3.75 0 1 0-4.5-6V7A3.75 3.75 0 0 0 16 4.75a3.75 3.75 0 1 0-6 4.5H7A3.75 3.75 0 0 0 4.75 16a3.75 3.75 0 0 0 4.5 6v3A3.75 3.75 0 0 0 16 27.25a3.75 3.75 0 0 0 6-4.5h3A3.75 3.75 0 0 0 27.25 16M25 10.75a2.25 2.25 0 0 1 0 4.5h-2.25V13A2.25 2.25 0 0 1 25 10.75m-6-6A2.25 2.25 0 0 1 21.25 7v6A2.25 2.25 0 0 1 19 15.25h-2.25V7A2.25 2.25 0 0 1 19 4.75M10.75 7a2.25 2.25 0 0 1 4.5 0v2.25H13A2.25 2.25 0 0 1 10.75 7m-6 6A2.25 2.25 0 0 1 7 10.75h6A2.25 2.25 0 0 1 15.25 13v2.25H7A2.25 2.25 0 0 1 4.75 13M7 21.25a2.25 2.25 0 1 1 0-4.5h2.25V19A2.25 2.25 0 0 1 7 21.25m6 6A2.25 2.25 0 0 1 10.75 25v-6A2.25 2.25 0 0 1 13 16.75h2.25V25A2.25 2.25 0 0 1 13 27.25M21.25 25a2.25 2.25 0 0 1-4.5 0v-2.25H19A2.25 2.25 0 0 1 21.25 25M25 21.25h-6A2.25 2.25 0 0 1 16.75 19v-2.25H25a2.25 2.25 0 0 1 0 4.5"/></svg>