<svg xmlns="http://www.w3.org/2000/svg" width="32" height="32" fill="none" viewBox="0 0 32 32"><path fill="#000" d="M7.75 13.325V5a.75.75 0 0 0-1.5 0v8.325a3.75 3.75 0 0 0 0 7.35V27a.75.75 0 1 0 1.5 0v-6.325a3.75 3.75 0 0 0 0-7.35M7 19.25a2.25 2.25 0 1 1 0-4.5 2.25 2.25 0 0 1 0 4.5m9.75-11.925V5a.75.75 0 1 0-1.5 0v2.325a3.75 3.75 0 0 0 0 7.35V27a.75.75 0 1 0 1.5 0V14.675a3.75 3.75 0 0 0 0-7.35M16 13.25a2.25 2.25 0 1 1 0-4.501 2.25 2.25 0 0 1 0 4.501M28.75 21a3.756 3.756 0 0 0-3-3.675V5a.75.75 0 1 0-1.5 0v12.325a3.75 3.75 0 0 0 0 7.35V27a.75.75 0 1 0 1.5 0v-2.325a3.756 3.756 0 0 0 3-3.675M25 23.25a2.25 2.25 0 1 1 0-4.501 2.25 2.25 0 0 1 0 4.501"/></svg>