<svg xmlns="http://www.w3.org/2000/svg" width="32" height="32" fill="none" viewBox="0 0 32 32"><path fill="#000" d="M21.649 19.375C20.409 21.52 18.35 22.75 16 22.75s-4.409-1.23-5.649-3.375a.75.75 0 0 1 1.298-.75c.98 1.692 2.525 2.625 4.351 2.625s3.375-.933 4.351-2.625a.75.75 0 1 1 1.298.75M28.75 16A12.75 12.75 0 1 1 16 3.25 12.765 12.765 0 0 1 28.75 16m-1.5 0A11.25 11.25 0 1 0 16 27.25 11.26 11.26 0 0 0 27.25 16M11.5 14.75a1.25 1.25 0 1 0 0-2.5 1.25 1.25 0 0 0 0 2.5m9-2.5a1.25 1.25 0 1 0 0 2.5 1.25 1.25 0 0 0 0-2.5"/></svg>