<svg xmlns="http://www.w3.org/2000/svg" width="32" height="32" fill="none" viewBox="0 0 32 32"><path fill="#000" d="M16 3.25A12.75 12.75 0 1 0 28.75 16 12.765 12.765 0 0 0 16 3.25m0 24A11.25 11.25 0 1 1 27.25 16 11.26 11.26 0 0 1 16 27.25M10.25 13.5a1.25 1.25 0 1 1 2.5 0 1.25 1.25 0 0 1-2.5 0m12.5 0a.75.75 0 0 1-.75.75h-3a.75.75 0 1 1 0-1.5h3a.75.75 0 0 1 .75.75m-1.101 5.875C20.409 21.52 18.35 22.75 16 22.75s-4.409-1.23-5.649-3.375a.75.75 0 0 1 1.298-.75c.98 1.692 2.525 2.625 4.351 2.625s3.375-.933 4.351-2.625a.75.75 0 1 1 1.298.75"/></svg>