<svg xmlns="http://www.w3.org/2000/svg" width="32" height="32" fill="none" viewBox="0 0 32 32"><path fill="#000" d="M16 3.25A12.75 12.75 0 1 0 28.75 16 12.765 12.765 0 0 0 16 3.25m0 24A11.25 11.25 0 1 1 27.25 16 11.26 11.26 0 0 1 16 27.25m7.53-14.72L22.061 14l1.469 1.47a.75.75 0 1 1-1.06 1.06L21 15.061l-1.47 1.469a.75.75 0 0 1-1.06-1.06L19.939 14l-1.469-1.47a.75.75 0 0 1 1.06-1.06L21 12.939l1.47-1.469a.75.75 0 0 1 1.06 1.06m-10 0L12.061 14l1.469 1.47a.75.75 0 1 1-1.06 1.06L11 15.061 9.53 16.53a.75.75 0 0 1-1.06-1.06L9.939 14 8.47 12.53a.75.75 0 0 1 1.06-1.06L11 12.939l1.47-1.469a.75.75 0 0 1 1.06 1.06m3.72 9.97a1.25 1.25 0 1 1-2.5 0 1.25 1.25 0 0 1 2.5 0"/></svg>