<svg xmlns="http://www.w3.org/2000/svg" width="32" height="32" fill="none" viewBox="0 0 32 32"><path fill="#000" d="M22.53 20.47a.75.75 0 1 1-1.06 1.06L20 20.061l-1.47 1.469a.75.75 0 0 1-1.06 0L16 20.061l-1.47 1.469a.75.75 0 0 1-1.06 0L12 20.061l-1.47 1.469a.75.75 0 0 1-1.06-1.06l2-2a.75.75 0 0 1 1.06 0L14 19.939l1.47-1.469a.75.75 0 0 1 1.06 0L18 19.939l1.47-1.469a.75.75 0 0 1 1.06 0zM28.75 16A12.75 12.75 0 1 1 16 3.25 12.765 12.765 0 0 1 28.75 16m-1.5 0A11.25 11.25 0 1 0 16 27.25 11.26 11.26 0 0 0 27.25 16M11.5 14.75a1.25 1.25 0 1 0 0-2.5 1.25 1.25 0 0 0 0 2.5m9 0a1.25 1.25 0 1 0 0-2.5 1.25 1.25 0 0 0 0 2.5"/></svg>