<svg xmlns="http://www.w3.org/2000/svg" width="32" height="32" fill="none" viewBox="0 0 32 32"><path fill="#000" d="M11.5 18.75a1.25 1.25 0 1 1 0-2.5 1.25 1.25 0 0 1 0 2.5m9-2.5a1.25 1.25 0 1 0 0 2.5 1.25 1.25 0 0 0 0-2.5m8.25-.25A12.75 12.75 0 1 1 16 3.25 12.765 12.765 0 0 1 28.75 16m-1.5 0A11.25 11.25 0 1 0 16 27.25 11.26 11.26 0 0 0 27.25 16m-5.666-5.625L16 14.099l-5.584-3.724a.751.751 0 0 0-.832 1.25l6 4a.75.75 0 0 0 .832 0l6-4a.752.752 0 0 0-.561-1.362.8.8 0 0 0-.271.112m-2.169 12C18.399 21.7 17.43 21.25 16 21.25s-2.399.45-3.415 1.125a.75.75 0 0 0 .83 1.25c.834-.554 1.524-.875 2.585-.875s1.75.321 2.585.875a.75.75 0 1 0 .83-1.25"/></svg>