<svg xmlns="http://www.w3.org/2000/svg" width="32" height="32" fill="none" viewBox="0 0 32 32"><path fill="#000" d="M16 3.25a12.75 12.75 0 1 0 3.75 24.94.75.75 0 0 0 .31-.186L28 20.058a.75.75 0 0 0 .186-.312A12.76 12.76 0 0 0 16 3.25m10.809 15.875-7.678 7.679a11.238 11.238 0 1 1 7.678-7.679M10.249 13.5a1.25 1.25 0 1 1 2.502 0 1.25 1.25 0 0 1-2.501 0m11.5 0a1.25 1.25 0 1 1-2.5 0 1.25 1.25 0 0 1 2.5 0m-.1 5.875c-1.24 2.145-3.3 3.375-5.65 3.375s-4.408-1.23-5.648-3.375a.75.75 0 0 1 1.298-.75c.98 1.692 2.525 2.625 4.35 2.625 1.827 0 3.376-.933 4.352-2.625a.751.751 0 1 1 1.298.75"/></svg>