<svg xmlns="http://www.w3.org/2000/svg" width="32" height="32" fill="none" viewBox="0 0 32 32"><path fill="#000" d="M27 19.25A4.25 4.25 0 0 1 22.75 15v-3.037a1.75 1.75 0 0 0-1.599-1.743c-3.131-.25-5.25-2.322-5.392-5.272a1.75 1.75 0 0 0-.51-1.153l-1.028-1.029a1.74 1.74 0 0 0-2.457-.016l-8 8.015a1.75 1.75 0 0 0 .007 2.485l13.405 12.988a1.74 1.74 0 0 0 1.238.512H30A1.75 1.75 0 0 0 31.75 25v-1A4.75 4.75 0 0 0 27 19.25M30.25 25a.25.25 0 0 1-.25.25H18.414a.26.26 0 0 1-.185-.081L4.824 12.179a.25.25 0 0 1 0-.356l7.99-8a.25.25 0 0 1 .346.008l1.027 1.028a.25.25 0 0 1 .073.166c.091 1.863.801 3.483 2.054 4.685 1.21 1.163 2.84 1.856 4.717 2.008a.25.25 0 0 1 .219.25v2.282H19a.75.75 0 0 0 0 1.5h2.3c.118.898.447 1.755.96 2.5H20a.75.75 0 0 0 0 1.5h3.764c.953.652 2.081 1.001 3.236 1A3.25 3.25 0 0 1 30.25 24zM8 22.75H4a.75.75 0 0 1 0-1.5h4a.75.75 0 0 1 0 1.5M12.75 26a.75.75 0 0 1-.75.75H6a.75.75 0 0 1 0-1.5h6a.75.75 0 0 1 .75.75"/></svg>