<svg xmlns="http://www.w3.org/2000/svg" width="32" height="32" fill="none" viewBox="0 0 32 32"><path fill="#000" d="m28.5 16.375-7.591-2.53a3.25 3.25 0 0 1-1.939-1.75L16.064 5.29a1.75 1.75 0 0 0-2.197-.934L4.403 7.796A1.76 1.76 0 0 0 3.25 9.441v14.56A1.75 1.75 0 0 0 5 25.75h25A1.75 1.75 0 0 0 31.75 24v-3.118a4.75 4.75 0 0 0-3.25-4.508M4.915 9.206l9.46-3.44a.25.25 0 0 1 .309.124l1 2.334-2.934 1.071A.75.75 0 0 0 13 10.75q.129 0 .25-.046l3.023-1.099.788 1.845-2.311.845A.75.75 0 0 0 15 13.75a.8.8 0 0 0 .25-.045l2.407-.875c.311.643.763 1.207 1.322 1.651l-2.229.814A.75.75 0 0 0 17 16.75a.8.8 0 0 0 .256-.045l3.58-1.302 7.192 2.397a3.24 3.24 0 0 1 2.158 2.45H4.75V9.441a.25.25 0 0 1 .165-.235M30 24.25H5a.25.25 0 0 1-.25-.25v-2.25h25.5V24a.25.25 0 0 1-.25.25"/></svg>