<svg xmlns="http://www.w3.org/2000/svg" width="32" height="32" fill="none" viewBox="0 0 32 32"><path fill="#000" d="M27.729 18.821a.75.75 0 0 1-.55.908l-3.328.817.875 3.26a.75.75 0 1 1-1.448.388l-.994-3.694-5.534-3.201v6.391l2.78 2.78a.75.75 0 1 1-1.06 1.06L16 25.061l-2.47 2.469a.75.75 0 0 1-1.06-1.06l2.78-2.78v-6.391L9.716 20.5l-.991 3.7a.75.75 0 0 1-1.449-.394l.875-3.26-3.327-.817a.75.75 0 1 1 .357-1.458l3.779.929L14.5 16l-5.542-3.2-3.78.929a.75.75 0 1 1-.357-1.457l3.328-.818-.875-3.26a.75.75 0 1 1 1.449-.388l.99 3.7 5.537 3.195V8.31l-2.78-2.78a.75.75 0 0 1 1.06-1.06L16 6.939l2.47-2.469a.75.75 0 0 1 1.06 1.06l-2.78 2.78v6.391l5.534-3.195.991-3.7a.75.75 0 1 1 1.449.388l-.875 3.26 3.327.817a.75.75 0 1 1-.355 1.458l-3.779-.929L17.5 16l5.543 3.2 3.778-.929a.75.75 0 0 1 .908.55"/></svg>