<svg xmlns="http://www.w3.org/2000/svg" width="32" height="32" fill="none" viewBox="0 0 32 32"><path fill="#000" d="M16 3.25A12.75 12.75 0 1 0 28.75 16 12.765 12.765 0 0 0 16 3.25m9.709 18.428h-4.473l-1.31-1.803 1.662-4.84 2.124-.689 3.493 2.679a11.2 11.2 0 0 1-1.496 4.653m-14.945 0H6.29a11.2 11.2 0 0 1-1.493-4.653l3.492-2.679 2.125.689 1.659 4.84zm-4.389-11.5.905 3.05-2.5 1.918a11.2 11.2 0 0 1 1.595-4.969m7.07 9.072-1.551-4.517L16 11.91l4.106 2.823-1.551 4.517zm11.274-6.021.906-3.051a11.2 11.2 0 0 1 1.594 4.968zM24.51 8.65 23.25 12.92l-2.125.691-4.375-3V8.395l3.863-2.655a11.3 11.3 0 0 1 3.898 2.911m-5.646-3.526L16 7.09l-2.865-1.965a11.3 11.3 0 0 1 5.73 0m-7.476.614 3.861 2.656v2.21l-4.375 3-2.125-.691L7.489 8.65a11.3 11.3 0 0 1 3.9-2.912M7.344 23.177h3.272l1.149 3.25a11.3 11.3 0 0 1-4.421-3.25m6.21 3.804-1.569-4.432 1.308-1.799h5.415l1.307 1.799-1.569 4.432a11.3 11.3 0 0 1-4.892 0m6.681-.56 1.149-3.25h3.272a11.3 11.3 0 0 1-4.421 3.25"/></svg>