<svg xmlns="http://www.w3.org/2000/svg" width="32" height="32" fill="none" viewBox="0 0 32 32"><path fill="#000" d="M2.75 15v6a.75.75 0 1 1-1.5 0v-6a.75.75 0 1 1 1.5 0M6 11.25a.75.75 0 0 0-.75.75v12a.75.75 0 1 0 1.5 0V12a.75.75 0 0 0-.75-.75m4-1a.75.75 0 0 0-.75.75v13a.75.75 0 1 0 1.5 0V11a.75.75 0 0 0-.75-.75m4-4a.75.75 0 0 0-.75.75v17a.75.75 0 1 0 1.5 0V7a.75.75 0 0 0-.75-.75m13.633 7.235A9.75 9.75 0 0 0 18 5.25a.75.75 0 1 0 0 1.5 8.22 8.22 0 0 1 8.209 7.416.75.75 0 0 0 .604.662A4.25 4.25 0 0 1 26 23.25h-8a.75.75 0 1 0 0 1.5h8a5.75 5.75 0 0 0 1.633-11.265"/></svg>