<svg xmlns="http://www.w3.org/2000/svg" width="32" height="32" fill="none" viewBox="0 0 32 32"><path fill="#000" d="M22.48 6.424a35.5 35.5 0 0 0-6.145-4.095.75.75 0 0 0-.67 0A35.5 35.5 0 0 0 9.52 6.424C5.36 9.89 3.25 13.449 3.25 17a6.75 6.75 0 0 0 9.405 6.206l-1.375 4.579a.75.75 0 0 0 .72.965h8a.75.75 0 0 0 .719-.965l-1.375-4.579A6.75 6.75 0 0 0 28.75 17c0-3.551-2.11-7.109-6.27-10.576M22 22.25a5.25 5.25 0 0 1-3.45-1.293.75.75 0 0 0-1.211.78l1.654 5.513h-5.985l1.653-5.512a.75.75 0 0 0-1.211-.78A5.25 5.25 0 0 1 4.75 17c0-6.716 9.346-12.125 11.25-13.153C17.905 4.875 27.25 10.275 27.25 17A5.25 5.25 0 0 1 22 22.25"/></svg>