<svg xmlns="http://www.w3.org/2000/svg" width="32" height="32" fill="none" viewBox="0 0 32 32"><path fill="#000" d="m24.611 16.368-6.456-2.375a.25.25 0 0 1-.144-.143l-2.375-6.457a1.74 1.74 0 0 0-3.265 0l-2.375 6.456a.25.25 0 0 1-.142.143l-6.458 2.375a1.74 1.74 0 0 0 0 3.265l6.456 2.375a.25.25 0 0 1 .144.143l2.375 6.458a1.74 1.74 0 0 0 3.265 0l2.375-6.457a.25.25 0 0 1 .143-.143l6.457-2.375a1.74 1.74 0 0 0 0-3.265m-.519 1.857L17.635 20.6a1.74 1.74 0 0 0-1.031 1.032l-2.375 6.457a.24.24 0 0 1-.45 0l-2.375-6.458a1.75 1.75 0 0 0-1.032-1.031l-6.456-2.375a.24.24 0 0 1 0-.45l6.458-2.375a1.74 1.74 0 0 0 1.03-1.033l2.376-6.456a.24.24 0 0 1 .45 0l2.375 6.458a1.74 1.74 0 0 0 1.032 1.031l6.457 2.375a.24.24 0 0 1 0 .45zM18.25 5a.75.75 0 0 1 .75-.75h2.25V2a.75.75 0 0 1 1.5 0v2.25H25a.75.75 0 0 1 0 1.5h-2.25V8a.75.75 0 1 1-1.5 0V5.75H19a.75.75 0 0 1-.75-.75m12.5 6a.75.75 0 0 1-.75.75h-1.25V13a.75.75 0 1 1-1.5 0v-1.25H26a.75.75 0 0 1 0-1.5h1.25V9a.75.75 0 0 1 1.5 0v1.25H30a.75.75 0 0 1 .75.75"/></svg>