<svg xmlns="http://www.w3.org/2000/svg" width="32" height="32" fill="none" viewBox="0 0 32 32"><path fill="#000" d="M19.33 3.326a.75.75 0 0 0-.79.081L9.743 10.25H4A1.75 1.75 0 0 0 2.25 12v8A1.75 1.75 0 0 0 4 21.75h5.743l8.797 6.843A.75.75 0 0 0 19.75 28V4a.75.75 0 0 0-.42-.674m-1.08 23.14-7.79-6.059a.75.75 0 0 0-.46-.157H4a.25.25 0 0 1-.25-.25v-8a.25.25 0 0 1 .25-.25h6a.75.75 0 0 0 .46-.158l7.79-6.058zM24.75 13v6a.75.75 0 0 1-1.5 0v-6a.75.75 0 1 1 1.5 0m4-2v10a.75.75 0 0 1-1.5 0V11a.75.75 0 1 1 1.5 0"/></svg>