<svg xmlns="http://www.w3.org/2000/svg" width="32" height="32" fill="none" viewBox="0 0 32 32"><path fill="#000" d="M23.25 19v-6a.75.75 0 1 1 1.5 0v6a.75.75 0 1 1-1.5 0M28 10.25a.75.75 0 0 0-.75.75v10a.75.75 0 1 0 1.5 0V11a.75.75 0 0 0-.75-.75M26.555 26.5a.75.75 0 0 1-1.11 1.01l-5.695-6.27V28a.75.75 0 0 1-1.21.592L9.743 21.75H4A1.75 1.75 0 0 1 2.25 20v-8A1.75 1.75 0 0 1 4 10.25h5.759L5.445 5.5a.75.75 0 0 1 1.11-1zm-8.305-6.91-7.125-7.84H4a.25.25 0 0 0-.25.25v8a.25.25 0 0 0 .25.25h6a.75.75 0 0 1 .46.157l7.79 6.06zM14.479 8.465l3.771-2.931v7.82a.75.75 0 1 0 1.5 0V4a.75.75 0 0 0-1.21-.593l-4.981 3.875a.749.749 0 1 0 .92 1.184z"/></svg>