<svg xmlns="http://www.w3.org/2000/svg" width="32" height="32" fill="none" viewBox="0 0 32 32"><path fill="#000" d="M19.33 3.326a.75.75 0 0 0-.79.081L9.743 10.25H4A1.75 1.75 0 0 0 2.25 12v8A1.75 1.75 0 0 0 4 21.75h5.743l8.797 6.843A.75.75 0 0 0 19.75 28V4a.75.75 0 0 0-.42-.674M3.75 20v-8a.25.25 0 0 1 .25-.25h5.25v8.5H4a.25.25 0 0 1-.25-.25m14.5 6.466-7.5-5.832v-9.268l7.5-5.832zm6.316-13.606a4.75 4.75 0 0 1 0 6.28.75.75 0 0 1-1.125-.992 3.25 3.25 0 0 0 0-4.297.75.75 0 0 1 1.125-.991M30.75 16a9.73 9.73 0 0 1-2.483 6.5.75.75 0 1 1-1.117-1 8.25 8.25 0 0 0 0-11 .752.752 0 0 1 .303-1.222.75.75 0 0 1 .814.222A9.73 9.73 0 0 1 30.75 16"/></svg>