<svg xmlns="http://www.w3.org/2000/svg" width="32" height="32" fill="none" viewBox="0 0 32 32"><path fill="#000" d="M6.555 4.5a.75.75 0 0 0-1.11 1l4.305 4.742-.01.008H4A1.75 1.75 0 0 0 2.25 12v8A1.75 1.75 0 0 0 4 21.75h5.743l8.797 6.842A.75.75 0 0 0 19.75 28v-6.76l5.695 6.26a.75.75 0 0 0 1.11-1.01zM3.75 20v-8a.25.25 0 0 1 .25-.25h5.25v8.5H4a.25.25 0 0 1-.25-.25m14.5 6.466-7.5-5.832v-9.268l.014-.01 7.486 8.234zm5.188-8.316a3.25 3.25 0 0 0 0-4.296.748.748 0 0 1 .31-1.223.75.75 0 0 1 .814.231 4.75 4.75 0 0 1 0 6.28.75.75 0 1 1-1.125-.992M13.426 8.335a.75.75 0 0 1 .133-1.053l4.981-3.875A.75.75 0 0 1 19.75 4v9.354a.75.75 0 1 1-1.5 0v-7.82l-3.771 2.932a.75.75 0 0 1-1.053-.131M30.75 16a9.73 9.73 0 0 1-2.483 6.5.75.75 0 1 1-1.117-1 8.25 8.25 0 0 0 0-11 .75.75 0 1 1 1.117-1A9.73 9.73 0 0 1 30.75 16"/></svg>