<svg xmlns="http://www.w3.org/2000/svg" width="32" height="32" fill="none" viewBox="0 0 32 32"><path fill="#000" d="M19.33 3.326a.75.75 0 0 0-.79.081L9.743 10.25H4A1.75 1.75 0 0 0 2.25 12v8A1.75 1.75 0 0 0 4 21.75h5.743l8.797 6.843A.75.75 0 0 0 19.75 28V4a.75.75 0 0 0-.42-.674M3.75 20v-8a.25.25 0 0 1 .25-.25h5.25v8.5H4a.25.25 0 0 1-.25-.25m14.5 6.466-7.5-5.834v-9.265l7.5-5.833zm12.28-8a.75.75 0 1 1-1.06 1.06L27 17.06l-2.47 2.47a.75.75 0 0 1-1.06-1.06L25.94 16l-2.47-2.47a.75.75 0 0 1 1.06-1.06L27 14.94l2.47-2.47a.75.75 0 0 1 1.06 1.06L28.06 16z"/></svg>