<svg xmlns="http://www.w3.org/2000/svg" width="32" height="32" fill="none" viewBox="0 0 32 32"><path fill="#000" d="M16.75 4v4a.75.75 0 1 1-1.5 0V4a.75.75 0 1 1 1.5 0m4.906 7.094a.75.75 0 0 0 .532-.219l2.827-2.829a.75.75 0 0 0-1.06-1.06l-2.83 2.827a.75.75 0 0 0 .53 1.28zM28 15.25h-4a.75.75 0 1 0 0 1.5h4a.75.75 0 1 0 0-1.5m-5.812 5.875a.751.751 0 1 0-1.063 1.063l2.829 2.827a.75.75 0 0 0 1.06-1.06zM16 23.25a.75.75 0 0 0-.75.75v4a.75.75 0 1 0 1.5 0v-4a.75.75 0 0 0-.75-.75m-6.187-2.125-2.828 2.83a.75.75 0 1 0 1.06 1.06l2.83-2.828a.752.752 0 0 0-1.062-1.062M8.75 16a.75.75 0 0 0-.75-.75H4a.75.75 0 1 0 0 1.5h4a.75.75 0 0 0 .75-.75m-.705-9.015a.75.75 0 0 0-1.06 1.06l2.827 2.83a.751.751 0 1 0 1.063-1.062z"/></svg>