<svg xmlns="http://www.w3.org/2000/svg" width="32" height="32" fill="none" viewBox="0 0 32 32"><path fill="#000" d="M30.75 18a.75.75 0 1 1-1.5 0A12.263 12.263 0 0 0 17 5.75 11.263 11.263 0 0 0 5.75 17 10.26 10.26 0 0 0 16 27.25 9.26 9.26 0 0 0 25.25 18 8.26 8.26 0 0 0 17 9.75 7.26 7.26 0 0 0 9.75 17 6.257 6.257 0 0 0 16 23.25 5.25 5.25 0 0 0 21.25 18 4.25 4.25 0 0 0 17 13.75 3.25 3.25 0 0 0 13.75 17 2.25 2.25 0 0 0 16 19.25 1.25 1.25 0 0 0 17.25 18a.25.25 0 0 0-.25-.25.75.75 0 1 1 0-1.5A1.75 1.75 0 0 1 18.75 18 2.75 2.75 0 0 1 16 20.75 3.75 3.75 0 0 1 12.25 17 4.75 4.75 0 0 1 17 12.25 5.76 5.76 0 0 1 22.75 18 6.76 6.76 0 0 1 16 24.75 7.76 7.76 0 0 1 8.25 17 8.76 8.76 0 0 1 17 8.25 9.76 9.76 0 0 1 26.75 18 10.76 10.76 0 0 1 16 28.75 11.764 11.764 0 0 1 4.25 17 12.765 12.765 0 0 1 17 4.25 13.766 13.766 0 0 1 30.75 18"/></svg>