<svg xmlns="http://www.w3.org/2000/svg" width="32" height="32" fill="none" viewBox="0 0 32 32"><path fill="#000" d="M16 3.25A12.75 12.75 0 1 0 28.75 16 12.765 12.765 0 0 0 16 3.25m0 24A11.25 11.25 0 1 1 27.25 16 11.26 11.26 0 0 1 16 27.25m3.664-6.15a.75.75 0 0 1-1.014.314 5.6 5.6 0 0 0-5.3 0 .75.75 0 1 1-.7-1.328 7.17 7.17 0 0 1 6.7 0 .75.75 0 0 1 .314 1.014m4-7a.75.75 0 0 1-1.015.308 14.08 14.08 0 0 0-13.293 0 .75.75 0 1 1-.707-1.323 15.58 15.58 0 0 1 14.707 0 .75.75 0 0 1 .305 1.017zm-2 3.5a.75.75 0 0 1-1.017.313 9.88 9.88 0 0 0-9.294 0 .751.751 0 0 1-.705-1.326 11.38 11.38 0 0 1 10.705 0 .75.75 0 0 1 .31 1.015z"/></svg>