<svg xmlns="http://www.w3.org/2000/svg" width="32" height="32" fill="none" viewBox="0 0 32 32"><path fill="#000" d="M27.75 28a.75.75 0 0 1-.75.75H5a.75.75 0 1 1 0-1.5h22a.75.75 0 0 1 .75.75m0-10v5A1.75 1.75 0 0 1 26 24.75H6A1.75 1.75 0 0 1 4.25 23v-5A1.75 1.75 0 0 1 6 16.25h7.363l-2.028-9.464A3.75 3.75 0 0 1 15 2.25h2a3.75 3.75 0 0 1 3.666 4.536l-2.029 9.464H26A1.75 1.75 0 0 1 27.75 18m-12.854-1.75h2.208l2.095-9.779A2.25 2.25 0 0 0 17 3.75h-2a2.25 2.25 0 0 0-2.2 2.721zM26.25 18a.25.25 0 0 0-.25-.25H6a.25.25 0 0 0-.25.25v5a.25.25 0 0 0 .25.25h20a.25.25 0 0 0 .25-.25z"/></svg>