<svg xmlns="http://www.w3.org/2000/svg" width="32" height="32" fill="none" viewBox="0 0 32 32"><path fill="#000" d="M19.341 25.133a10.25 10.25 0 0 1 0-18.265.75.75 0 0 0 0-1.337A11.6 11.6 0 0 0 14 4.251a11.75 11.75 0 0 0 0 23.5 11.6 11.6 0 0 0 5.341-1.282.75.75 0 0 0 0-1.336M14 26.25a10.252 10.252 0 0 1-8.444-16.042 10.25 10.25 0 0 1 11.795-3.9 11.75 11.75 0 0 0 0 19.383c-1.078.373-2.21.562-3.351.56m17.298-10.939-3.452-1.488-.3-3.875a.75.75 0 0 0-1.326-.42l-2.424 2.93-3.616-.894a.75.75 0 0 0-.826 1.109L21.313 16l-1.96 3.328a.75.75 0 0 0 .827 1.108l3.616-.895 2.424 2.937a.75.75 0 0 0 1.326-.42l.3-3.875 3.451-1.49a.75.75 0 0 0 0-1.374zm-4.462 1.67a.75.75 0 0 0-.451.624l-.191 2.479-1.541-1.868a.75.75 0 0 0-.76-.25l-2.342.58 1.279-2.17a.75.75 0 0 0 0-.76l-1.279-2.172 2.343.579a.75.75 0 0 0 .759-.25l1.54-1.868.192 2.479a.75.75 0 0 0 .451.625l2.272.991z"/></svg>