<svg xmlns="http://www.w3.org/2000/svg" width="32" height="32" fill="none" viewBox="0 0 32 32"><path fill="#000" d="m29.149 14.108-.649.57a.75.75 0 1 1-.986-1.124l.655-.571a.25.25 0 0 0 .073-.274.23.23 0 0 0-.212-.173l-1.088-.093a.753.753 0 0 1 .125-1.5l1.088.095a1.72 1.72 0 0 1 1.51 1.2 1.75 1.75 0 0 1-.516 1.87m-7.18 5.508.357 1.552a.75.75 0 1 0 1.462-.338l-.358-1.551a.26.26 0 0 1 .08-.25l.984-.858a.75.75 0 1 0-.986-1.125l-.984.858a1.75 1.75 0 0 0-.555 1.712M21.936 12l-1.346-.116a1.75 1.75 0 0 1-1.465-1.061L16.75 5.15v18.1q.078.037.154.081l1.486.903a.752.752 0 0 1 .054 1.246.75.75 0 0 1-.833.036l-1.486-.903a.24.24 0 0 0-.25 0l-6.389 3.875a1.75 1.75 0 0 1-2.611-1.893l1.69-7.316a.26.26 0 0 0-.08-.25l-5.634-4.921a1.75 1.75 0 0 1-.514-1.875 1.72 1.72 0 0 1 1.51-1.2l7.433-.643a.25.25 0 0 0 .206-.152l2.904-6.92a1.75 1.75 0 0 1 3.22 0l2.904 6.92a.25.25 0 0 0 .206.152l1.345.116a.753.753 0 0 1-.125 1.5zm-6.84 11.325q.075-.044.154-.081V5.15l-2.375 5.673a1.75 1.75 0 0 1-1.46 1.066l-7.434.642a.23.23 0 0 0-.212.173.25.25 0 0 0 .073.274l5.64 4.918a1.75 1.75 0 0 1 .554 1.72l-1.694 7.317a.24.24 0 0 0 .098.266.23.23 0 0 0 .268.011zm9.615 1.5a.751.751 0 1 0-1.461.338l.409 1.765a.25.25 0 0 1-.099.266.23.23 0 0 1-.267.011l-1.404-.852a.75.75 0 1 0-.779 1.28l1.404.853a1.75 1.75 0 0 0 2.611-1.89z"/></svg>