<svg xmlns="http://www.w3.org/2000/svg" width="32" height="32" fill="none" viewBox="0 0 32 32"><path fill="#000" d="M29.663 12.237a1.72 1.72 0 0 0-1.51-1.2l-7.433-.642a.25.25 0 0 1-.206-.153l-2.904-6.92a1.75 1.75 0 0 0-3.22 0l-2.904 6.92a.25.25 0 0 1-.206.153l-7.432.642a1.72 1.72 0 0 0-1.51 1.2 1.75 1.75 0 0 0 .513 1.875l5.639 4.92a.26.26 0 0 1 .08.25l-1.695 7.313a1.75 1.75 0 0 0 .681 1.82 1.72 1.72 0 0 0 1.925.077l6.389-3.875a.24.24 0 0 1 .25 0l6.389 3.875a1.75 1.75 0 0 0 2.616-1.897l-1.69-7.316a.26.26 0 0 1 .08-.25l5.639-4.92a1.75 1.75 0 0 0 .509-1.872m-1.5.74-5.64 4.92a1.75 1.75 0 0 0-.554 1.72l1.69 7.315a.25.25 0 0 1-.099.267.23.23 0 0 1-.267.01l-6.39-3.874a1.74 1.74 0 0 0-1.807 0L8.707 27.21a.225.225 0 0 1-.267-.011.25.25 0 0 1-.099-.267l1.69-7.316a1.75 1.75 0 0 0-.555-1.72l-5.639-4.919a.25.25 0 0 1-.073-.273.23.23 0 0 1 .212-.173l7.434-.642a1.75 1.75 0 0 0 1.465-1.067l2.904-6.92a.25.25 0 0 1 .36-.104.25.25 0 0 1 .092.104l2.894 6.92a1.75 1.75 0 0 0 1.46 1.067l7.434.642a.23.23 0 0 1 .212.173.25.25 0 0 1-.069.273"/></svg>