<svg xmlns="http://www.w3.org/2000/svg" width="32" height="32" fill="none" viewBox="0 0 32 32"><path fill="#000" d="M16 3.25A12.75 12.75 0 1 0 28.75 16 12.765 12.765 0 0 0 16 3.25M5.804 20.75h5.5a.25.25 0 0 1 .233.163l2.292 6.125a11.29 11.29 0 0 1-8.025-6.288m12.359 6.29 2.296-6.125a.25.25 0 0 1 .235-.162h5.5a11.29 11.29 0 0 1-8.031 6.287m8.608-7.79h-6.077a1.75 1.75 0 0 0-1.639 1.136l-2.569 6.853q-.242.01-.486.011c-.162 0-.329 0-.492-.011l-2.563-6.852a1.76 1.76 0 0 0-1.639-1.137H5.23a11 11 0 0 1-.215-.826 15.25 15.25 0 0 1 21.972 0q-.092.42-.215.826M16 12.25a16.8 16.8 0 0 0-11.235 4.33c-.015-.192-.015-.385-.015-.58a11.25 11.25 0 1 1 22.5 0c0 .195 0 .387-.015.58A16.8 16.8 0 0 0 16 12.25m1.25 5.25a1.25 1.25 0 1 1-2.5 0 1.25 1.25 0 0 1 2.5 0"/></svg>