<svg xmlns="http://www.w3.org/2000/svg" width="32" height="32" fill="none" viewBox="0 0 32 32"><path fill="#000" d="M26.25 19a1.25 1.25 0 1 1-2.5 0 1.25 1.25 0 0 1 2.5 0m-.544 4.698A5.756 5.756 0 0 1 20 28.75h-3A5.76 5.76 0 0 1 11.25 23v-5.286a7.75 7.75 0 0 1-7-7.714V5A1.75 1.75 0 0 1 6 3.25h2a.75.75 0 0 1 0 1.5H6a.25.25 0 0 0-.25.25v5A6.25 6.25 0 0 0 12 16.25h.084c3.4-.045 6.166-2.895 6.166-6.354V5a.25.25 0 0 0-.25-.25h-2a.75.75 0 1 1 0-1.5h2A1.75 1.75 0 0 1 19.75 5v4.896c0 4.054-3.085 7.43-7 7.815V23A4.25 4.25 0 0 0 17 27.25h3a4.256 4.256 0 0 0 4.195-3.57 4.75 4.75 0 1 1 1.511.018M28.25 19a3.25 3.25 0 1 0-6.5 0 3.25 3.25 0 0 0 6.5 0"/></svg>