<svg xmlns="http://www.w3.org/2000/svg" width="32" height="32" fill="none" viewBox="0 0 32 32"><path fill="#000" d="M28.75 12q0-.106-.027-.206L26.93 5.519a1.76 1.76 0 0 0-1.68-1.269H6.75a1.76 1.76 0 0 0-1.679 1.269L3.28 11.794A.8.8 0 0 0 3.25 12v2a4.75 4.75 0 0 0 2 3.875V26A1.75 1.75 0 0 0 7 27.75h18A1.75 1.75 0 0 0 26.75 26v-8.125a4.75 4.75 0 0 0 2-3.875zM6.514 5.931a.25.25 0 0 1 .236-.181h18.5a.25.25 0 0 1 .24.181l1.516 5.319H5zm6.236 6.819h6.5V14a3.25 3.25 0 1 1-6.5 0zm-8 0h6.5V14a3.25 3.25 0 1 1-6.5 0zM25.25 26a.25.25 0 0 1-.25.25H7a.25.25 0 0 1-.25-.25v-7.417A4.75 4.75 0 0 0 12 16.556a4.743 4.743 0 0 0 8 0 4.75 4.75 0 0 0 5.25 2.026zM24 17.25A3.25 3.25 0 0 1 20.75 14v-1.25h6.5V14A3.25 3.25 0 0 1 24 17.25"/></svg>