<svg xmlns="http://www.w3.org/2000/svg" width="32" height="32" fill="none" viewBox="0 0 32 32"><path fill="#000" d="M8.5 19.25a4.25 4.25 0 1 0 0 8.5 4.25 4.25 0 0 0 0-8.5m0 7a2.75 2.75 0 1 1 0-5.5 2.75 2.75 0 0 1 0 5.5M4.47 13.47l1.97-1.97-1.97-1.97a.75.75 0 0 1 1.06-1.06l1.97 1.97 1.97-1.97a.75.75 0 0 1 1.06 1.06L8.56 11.5l1.97 1.97a.75.75 0 1 1-1.06 1.06L7.5 12.56l-1.97 1.97a.75.75 0 0 1-1.06-1.06m23.06 12a.75.75 0 1 1-1.06 1.06l-1.97-1.97-1.97 1.97a.75.75 0 0 1-1.06-1.06l1.97-1.97-1.97-1.97a.75.75 0 0 1 1.06-1.06l1.97 1.97 1.97-1.97a.75.75 0 0 1 1.06 1.06l-1.97 1.97zm-5.711-11.432c-.75 2.707-3.069 5.047-5.636 5.69a.75.75 0 0 1-.365-1.455c2.036-.51 3.952-2.46 4.554-4.637.417-1.5.424-3.78-1.902-6.106l-.72-.72V10a.75.75 0 1 1-1.5 0V5a.75.75 0 0 1 .75-.75h5a.75.75 0 1 1 0 1.5h-3.19l.72.72c2.22 2.214 3.026 4.905 2.289 7.568"/></svg>