<svg xmlns="http://www.w3.org/2000/svg" width="32" height="32" fill="none" viewBox="0 0 32 32"><path fill="#000" d="M20.75 19c0 2.067-2.131 3.75-4.75 3.75s-4.75-1.683-4.75-3.75a.75.75 0 1 1 1.5 0c0 1.22 1.489 2.25 3.25 2.25s3.25-1.03 3.25-2.25c0-1.401-1.337-1.887-3.541-2.523-1.986-.572-4.236-1.22-4.236-3.477 0-2.137 1.946-3.75 4.527-3.75 1.875 0 3.468.86 4.168 2.25a.75.75 0 0 1-1.34.678c-.443-.883-1.527-1.428-2.828-1.428-1.726 0-3.027.967-3.027 2.25 0 1.051 1.19 1.47 3.15 2.036 2.062.589 4.627 1.339 4.627 3.964m7-13v20A1.75 1.75 0 0 1 26 27.75H6A1.75 1.75 0 0 1 4.25 26V6A1.75 1.75 0 0 1 6 4.25h20A1.75 1.75 0 0 1 27.75 6m-1.5 0a.25.25 0 0 0-.25-.25H6a.25.25 0 0 0-.25.25v20a.25.25 0 0 0 .25.25h20a.25.25 0 0 0 .25-.25z"/></svg>