<svg xmlns="http://www.w3.org/2000/svg" width="32" height="32" fill="none" viewBox="0 0 32 32"><path fill="#000" d="M27 7.25h-5.25V6A2.75 2.75 0 0 0 19 3.25h-6A2.75 2.75 0 0 0 10.25 6v1.25H5A1.75 1.75 0 0 0 3.25 9v16A1.75 1.75 0 0 0 5 26.75h22A1.75 1.75 0 0 0 28.75 25V9A1.75 1.75 0 0 0 27 7.25M11.75 6A1.25 1.25 0 0 1 13 4.75h6A1.25 1.25 0 0 1 20.25 6v1.25h-8.5zm8.5 2.75v16.5h-8.5V8.75zM4.75 25V9A.25.25 0 0 1 5 8.75h5.25v16.5H5a.25.25 0 0 1-.25-.25m22.5 0a.25.25 0 0 1-.25.25h-5.25V8.75H27a.25.25 0 0 1 .25.25z"/></svg>