<svg xmlns="http://www.w3.org/2000/svg" width="32" height="32" fill="none" viewBox="0 0 32 32"><path fill="#000" d="M12.75 11v12a.75.75 0 1 1-1.5 0V11a.75.75 0 1 1 1.5 0m3.25-.75a.75.75 0 0 0-.75.75v12a.75.75 0 1 0 1.5 0V11a.75.75 0 0 0-.75-.75m4 0a.75.75 0 0 0-.75.75v12a.75.75 0 1 0 1.5 0V11a.75.75 0 0 0-.75-.75M25.75 8v18A1.75 1.75 0 0 1 24 27.75h-2.25V30a.75.75 0 1 1-1.5 0v-2.25h-8.5V30a.75.75 0 1 1-1.5 0v-2.25H8A1.75 1.75 0 0 1 6.25 26V8A1.75 1.75 0 0 1 8 6.25h3.25V3A2.75 2.75 0 0 1 14 .25h4A2.75 2.75 0 0 1 20.75 3v3.25H24A1.75 1.75 0 0 1 25.75 8m-13-1.75h6.5V3A1.25 1.25 0 0 0 18 1.75h-4A1.25 1.25 0 0 0 12.75 3zM24.25 8a.25.25 0 0 0-.25-.25H8a.25.25 0 0 0-.25.25v18a.25.25 0 0 0 .25.25h16a.25.25 0 0 0 .25-.25z"/></svg>