<svg xmlns="http://www.w3.org/2000/svg" width="32" height="32" fill="none" viewBox="0 0 32 32"><path fill="#000" d="M30 19.25h-5.34q.09-.622.09-1.25a8.75 8.75 0 1 0-17.41 1.25H2a.75.75 0 1 0 0 1.5h28a.75.75 0 1 0 0-1.5M8.75 18a7.25 7.25 0 1 1 14.391 1.25H8.86A7.3 7.3 0 0 1 8.75 18m18 7a.75.75 0 0 1-.75.75H6a.75.75 0 1 1 0-1.5h20a.75.75 0 0 1 .75.75M9.329 5.336a.75.75 0 1 1 1.342-.67l1 2a.75.75 0 0 1-1.342.67zm-7 6.33a.75.75 0 0 1 1.006-.337l2 1a.75.75 0 0 1-.67 1.342l-2-1a.75.75 0 0 1-.336-1.006m24 1.67a.75.75 0 0 1 .336-1.007l2-1a.75.75 0 0 1 .67 1.342l-2 1a.75.75 0 0 1-1.006-.336m-6-6.67 1-2a.75.75 0 1 1 1.342.67l-1 2a.75.75 0 1 1-1.342-.67"/></svg>