<svg xmlns="http://www.w3.org/2000/svg" width="32" height="32" fill="none" viewBox="0 0 32 32"><path fill="#000" d="M15.25 5V2a.75.75 0 1 1 1.5 0v3a.75.75 0 1 1-1.5 0m8.5 11A7.75 7.75 0 1 1 16 8.25 7.76 7.76 0 0 1 23.75 16m-1.5 0A6.25 6.25 0 1 0 16 22.25 6.257 6.257 0 0 0 22.25 16M7.47 8.53a.75.75 0 1 0 1.06-1.06l-2-2a.75.75 0 0 0-1.06 1.06zm0 14.94-2 2a.75.75 0 1 0 1.06 1.06l2-2a.75.75 0 1 0-1.06-1.06M24 8.75a.75.75 0 0 0 .53-.22l2-2a.75.75 0 0 0-1.06-1.06l-2 2A.75.75 0 0 0 24 8.75m.53 14.72a.75.75 0 0 0-1.06 1.06l2 2a.75.75 0 0 0 1.06-1.06zM5.75 16a.75.75 0 0 0-.75-.75H2a.75.75 0 1 0 0 1.5h3a.75.75 0 0 0 .75-.75M16 26.25a.75.75 0 0 0-.75.75v3a.75.75 0 1 0 1.5 0v-3a.75.75 0 0 0-.75-.75m14-11h-3a.75.75 0 1 0 0 1.5h3a.75.75 0 1 0 0-1.5"/></svg>