<svg xmlns="http://www.w3.org/2000/svg" width="32" height="32" fill="none" viewBox="0 0 32 32"><path fill="#000" d="M25 5.25a.75.75 0 1 0 0 1.5A2.25 2.25 0 0 1 27.25 9v7.25H4.75V9A2.25 2.25 0 0 1 7 6.75a.75.75 0 0 0 0-1.5A3.75 3.75 0 0 0 3.25 9v11.5a5.25 5.25 0 0 0 10.5 0v-2.75h4.5v2.75a5.25 5.25 0 1 0 10.5 0V9A3.75 3.75 0 0 0 25 5.25M4.75 20.5v-2.69l5.816 5.815A3.75 3.75 0 0 1 4.75 20.5m7.5 0c0 .735-.217 1.454-.625 2.066L6.81 17.75h5.44zm7.5 0v-2.69l5.816 5.815A3.75 3.75 0 0 1 19.75 20.5m6.875 2.066L21.81 17.75h5.44v2.75c0 .735-.218 1.454-.625 2.066"/></svg>