<svg xmlns="http://www.w3.org/2000/svg" width="32" height="32" fill="none" viewBox="0 0 32 32"><path fill="#000" d="M27.75 6v13A1.75 1.75 0 0 1 26 20.75H11.811l1.719 1.72a.75.75 0 1 1-1.06 1.06l-3-3a.75.75 0 0 1 0-1.06l3-3a.75.75 0 0 1 1.06 1.06l-1.719 1.72H26a.25.25 0 0 0 .25-.25V6a.25.25 0 0 0-.25-.25H12a.25.25 0 0 0-.25.25v1a.75.75 0 1 1-1.5 0V6A1.75 1.75 0 0 1 12 4.25h14A1.75 1.75 0 0 1 27.75 6M21 24.25a.75.75 0 0 0-.75.75v1a.25.25 0 0 1-.25.25H6a.25.25 0 0 1-.25-.25V13a.25.25 0 0 1 .25-.25h14.189l-1.719 1.72a.75.75 0 1 0 1.06 1.06l3-3a.75.75 0 0 0 0-1.06l-3-3a.75.75 0 0 0-1.06 1.06l1.719 1.72H6A1.75 1.75 0 0 0 4.25 13v13A1.75 1.75 0 0 0 6 27.75h14A1.75 1.75 0 0 0 21.75 26v-1a.75.75 0 0 0-.75-.75"/></svg>