<svg xmlns="http://www.w3.org/2000/svg" width="32" height="32" fill="none" viewBox="0 0 32 32"><path fill="#000" d="M9.75 22.5a1.25 1.25 0 1 1-2.5 0 1.25 1.25 0 0 1 2.5 0m19-2.976V26A1.75 1.75 0 0 1 27 27.75H8.5q-.478 0-.947-.081a5.25 5.25 0 0 1-4.227-6.08L6.451 3.698a1.74 1.74 0 0 1 2.027-1.42l6.833 1.215a1.75 1.75 0 0 1 1.413 2.026l-1.584 9.055 8.875-3.219a1.75 1.75 0 0 1 2.236 1.04l2.387 6.528c.068.193.106.396.112.6m-16.634 3.625L15.25 5.26a.25.25 0 0 0-.197-.29L8.215 3.75h-.042a.23.23 0 0 0-.134.044.25.25 0 0 0-.103.162L4.811 21.848a3.75 3.75 0 0 0 3.012 4.345 3.66 3.66 0 0 0 2.75-.612 3.73 3.73 0 0 0 1.54-2.43zm1.032 1.646 13.94-5.045a.25.25 0 0 0 .14-.125.23.23 0 0 0 .007-.182l-2.386-6.527a.25.25 0 0 0-.317-.146l-9.69 3.511-1.25 7.134a5.2 5.2 0 0 1-.444 1.383zm14.102-3.511L13.544 26.25H27a.25.25 0 0 0 .25-.25z"/></svg>