<svg xmlns="http://www.w3.org/2000/svg" width="32" height="32" fill="none" viewBox="0 0 32 32"><path fill="#000" d="M11 18.424a.75.75 0 0 0 .75-.75V15.75h8.5v2.161a.75.75 0 1 0 1.5 0V4a.75.75 0 1 0-1.5 0v2.25h-8.5V4a.75.75 0 1 0-1.5 0v13.674a.75.75 0 0 0 .75.75m.75-4.174v-2.5h8.5v2.5zm8.5-6.5v2.5h-8.5v-2.5zM3.25 21a.75.75 0 0 1 .75-.75c1.728 0 2.625.599 3.416 1.125.704.469 1.31.875 2.584.875s1.875-.405 2.584-.875c.791-.527 1.689-1.125 3.415-1.125s2.625.599 3.416 1.125c.704.469 1.311.875 2.585.875s1.875-.405 2.584-.875c.791-.527 1.689-1.125 3.416-1.125a.75.75 0 1 1 0 1.5c-1.273 0-1.875.405-2.584.875-.792.527-1.69 1.125-3.416 1.125s-2.625-.599-3.416-1.125c-.704-.469-1.311-.875-2.585-.875s-1.875.405-2.584.875c-.791.527-1.689 1.125-3.415 1.125s-2.625-.599-3.416-1.125c-.709-.47-1.311-.875-2.584-.875a.75.75 0 0 1-.75-.75m25.5 5a.75.75 0 0 1-.75.75c-1.273 0-1.875.405-2.584.875-.792.527-1.69 1.125-3.416 1.125s-2.625-.599-3.416-1.125c-.704-.469-1.311-.875-2.585-.875s-1.875.405-2.584.875c-.791.527-1.689 1.125-3.415 1.125s-2.625-.599-3.416-1.125c-.709-.47-1.311-.875-2.584-.875a.75.75 0 1 1 0-1.5c1.728 0 2.625.599 3.416 1.125.704.469 1.31.875 2.584.875s1.875-.405 2.584-.875c.791-.527 1.689-1.125 3.415-1.125s2.625.599 3.416 1.125c.704.469 1.311.875 2.585.875s1.875-.405 2.584-.875c.791-.527 1.689-1.125 3.416-1.125a.75.75 0 0 1 .75.75"/></svg>