<svg xmlns="http://www.w3.org/2000/svg" width="32" height="32" fill="none" viewBox="0 0 32 32"><path fill="#000" d="M27 4.25h-8a.75.75 0 0 0-.595.293l-8.174 10.625-1.406-1.405a1.75 1.75 0 0 0-2.475 0L4.763 15.35a1.75 1.75 0 0 0 0 2.476L7.439 20.5l-3.676 3.677a1.75 1.75 0 0 0 0 2.476l1.586 1.586a1.75 1.75 0 0 0 2.475 0l3.676-3.677 2.675 2.675a1.75 1.75 0 0 0 2.475 0l1.588-1.586a1.75 1.75 0 0 0 0-2.476l-1.407-1.406 10.625-8.174A.75.75 0 0 0 27.75 13V5a.75.75 0 0 0-.75-.75M6.763 27.178a.25.25 0 0 1-.354 0L4.824 25.59a.25.25 0 0 1 0-.352L8.5 21.562l1.939 1.938zm10.413-2.588-1.586 1.587a.25.25 0 0 1-.355 0l-9.411-9.412a.25.25 0 0 1 0-.354l1.586-1.587a.25.25 0 0 1 .355 0l9.411 9.412a.25.25 0 0 1 0 .354m9.074-11.959L15.761 20.7l-1.7-1.7 6.469-6.47a.75.75 0 0 0-1.06-1.06L13 17.939l-1.7-1.7L19.375 5.75h6.875z"/></svg>