<svg xmlns="http://www.w3.org/2000/svg" width="32" height="32" fill="none" viewBox="0 0 32 32"><path fill="#000" d="M25.75 7.355V4a.75.75 0 1 0-1.5 0v3.355a2.75 2.75 0 0 0-2 2.645v5.708l-5.5-3.143V9a.75.75 0 1 0-1.5 0v3.565l-5.5 3.143V10a2.75 2.75 0 0 0-2-2.645V4a.75.75 0 0 0-1.5 0v3.355a2.75 2.75 0 0 0-2 2.645v17a.75.75 0 0 0 .75.75h9a.75.75 0 0 0 .75-.75v-5a1.25 1.25 0 0 1 2.5 0v5a.75.75 0 0 0 .75.75h9a.75.75 0 0 0 .75-.75V10a2.75 2.75 0 0 0-2-2.645M25 8.75A1.25 1.25 0 0 1 26.25 10v3.25h-2.5V10A1.25 1.25 0 0 1 25 8.75m-18 0A1.25 1.25 0 0 1 8.25 10v3.25h-2.5V10A1.25 1.25 0 0 1 7 8.75m-1.25 6h2.5v11.5h-2.5zM16 19.25A2.75 2.75 0 0 0 13.25 22v4.25h-3.5v-8.815L16 13.864l6.25 3.571v8.815h-3.5V22A2.75 2.75 0 0 0 16 19.25m7.75 7v-11.5h2.5v11.5z"/></svg>