<svg xmlns="http://www.w3.org/2000/svg" width="32" height="32" fill="none" viewBox="0 0 32 32"><path fill="#000" d="m29.53 8.47-6-6a.75.75 0 0 0-1.06 1.06L24.94 6 21 9.939 16.53 5.47a.75.75 0 1 0-1.06 1.06l.969.97L5.763 18.176a1.74 1.74 0 0 0-.513 1.238v6.275L2.47 28.47a.75.75 0 1 0 1.06 1.06l2.781-2.78h6.275a1.74 1.74 0 0 0 1.238-.512L24.5 15.56l.97.969a.75.75 0 0 0 1.06-1.06L22.061 11l3.94-3.939 2.47 2.469a.75.75 0 0 0 1.06-1.06M12.763 25.176a.25.25 0 0 1-.177.074H6.75v-5.836a.25.25 0 0 1 .074-.177l2.426-2.426 2.72 2.719a.75.75 0 1 0 1.06-1.06l-2.719-2.72 1.94-1.939 2.72 2.719a.75.75 0 0 0 1.06-1.06l-2.72-2.72 4.19-4.189 5.938 5.939z"/></svg>