<svg xmlns="http://www.w3.org/2000/svg" width="32" height="32" fill="none" viewBox="0 0 32 32"><path fill="#000" d="M30.83 7.875 24.36 4.343A.74.74 0 0 0 24 4.25h-4a.75.75 0 0 0-.75.75 3.25 3.25 0 1 1-6.5 0 .75.75 0 0 0-.75-.75H8a.74.74 0 0 0-.36.093L1.17 7.875a1.72 1.72 0 0 0-.722 2.319l2.41 4.601a1.8 1.8 0 0 0 1.6.955H7.25V26A1.75 1.75 0 0 0 9 27.75h14A1.75 1.75 0 0 0 24.75 26V15.75h2.793a1.8 1.8 0 0 0 1.6-.955l2.41-4.601a1.72 1.72 0 0 0-.723-2.319M4.455 14.25a.3.3 0 0 1-.272-.151L1.776 9.5a.23.23 0 0 1 .113-.309L7.25 6.264v7.986zM23.25 26a.25.25 0 0 1-.25.25H9a.25.25 0 0 1-.25-.25V5.75h2.56a4.75 4.75 0 0 0 9.375 0h2.565zm6.975-16.5-2.41 4.6a.3.3 0 0 1-.272.151H24.75V6.264l5.363 2.925a.23.23 0 0 1 .11.311z"/></svg>