<svg xmlns="http://www.w3.org/2000/svg" width="32" height="32" fill="none" viewBox="0 0 32 32"><path fill="#000" d="M30 14.25h-1.565l-3.5-6.119a1.75 1.75 0 0 0-1.519-.875h-2.912L18.948 3.35a1.74 1.74 0 0 0-1.625-1.1h-2.645a1.74 1.74 0 0 0-1.626 1.1l-1.56 3.9H8.58a1.75 1.75 0 0 0-1.519.875l-3.5 6.125H2a.75.75 0 1 0 0 1.5h1.25V26A1.75 1.75 0 0 0 5 27.75h3A1.75 1.75 0 0 0 9.75 26v-2.25h12.5V26A1.75 1.75 0 0 0 24 27.75h3A1.75 1.75 0 0 0 28.75 26V15.75H30a.75.75 0 1 0 0-1.5M14.445 3.908a.25.25 0 0 1 .232-.158h2.646a.25.25 0 0 1 .232.158l1.337 3.342h-5.784zM8.364 8.875a.25.25 0 0 1 .216-.125h14.84a.25.25 0 0 1 .216.125l3.072 5.375H5.293zM8.25 26a.25.25 0 0 1-.25.25H5a.25.25 0 0 1-.25-.25v-2.25h3.5zm18.75.25h-3a.25.25 0 0 1-.25-.25v-2.25h3.5V26a.25.25 0 0 1-.25.25m.25-4H4.75v-6.5h22.5zM7.25 19a.75.75 0 0 1 .75-.75h2a.75.75 0 1 1 0 1.5H8a.75.75 0 0 1-.75-.75m14 0a.75.75 0 0 1 .75-.75h2a.75.75 0 1 1 0 1.5h-2a.75.75 0 0 1-.75-.75"/></svg>