<svg xmlns="http://www.w3.org/2000/svg" width="32" height="32" fill="none" viewBox="0 0 32 32"><path fill="#000" d="M27 8.25h-9.19l4.72-4.72a.75.75 0 0 0-1.06-1.06L16 7.94 10.53 2.47a.75.75 0 1 0-1.06 1.06l4.72 4.72H5A1.75 1.75 0 0 0 3.25 10v15A1.75 1.75 0 0 0 5 26.75h22A1.75 1.75 0 0 0 28.75 25V10A1.75 1.75 0 0 0 27 8.25M4.75 25V10A.25.25 0 0 1 5 9.75h13.25v15.5H5a.25.25 0 0 1-.25-.25m22.5 0a.25.25 0 0 1-.25.25h-7.25V9.75H27a.25.25 0 0 1 .25.25zm-2.5-10.5a1.25 1.25 0 1 1-2.499 0 1.25 1.25 0 0 1 2.499 0m0 6a1.25 1.25 0 1 1-2.499 0 1.25 1.25 0 0 1 2.499 0"/></svg>