<svg xmlns="http://www.w3.org/2000/svg" width="32" height="32" fill="none" viewBox="0 0 32 32"><path fill="#000" d="M29.446 3.463a.88.88 0 0 0-.891-.153L3.222 13.224a1.53 1.53 0 0 0 .263 2.924l6.765 1.328V25a1.75 1.75 0 0 0 3.01 1.214l3.33-3.454 5.197 4.556a1.74 1.74 0 0 0 1.695.35 1.73 1.73 0 0 0 1.168-1.27L29.727 4.32a.88.88 0 0 0-.28-.858M3.756 14.67a.06.06 0 0 1 0-.04l.019-.01 19.964-7.815-12.913 9.25-7.051-1.38zm8.424 10.5a.25.25 0 0 1-.386-.032.25.25 0 0 1-.044-.139v-6.486l3.711 3.25zm11.009.885a.24.24 0 0 1-.168.18.25.25 0 0 1-.25-.05l-10.566-9.268 15.67-11.23z"/></svg>