<svg xmlns="http://www.w3.org/2000/svg" width="32" height="32" fill="none" viewBox="0 0 32 32"><path fill="#000" d="M25.02 6.985a12.75 12.75 0 1 0 0 18.03 12.675 12.675 0 0 0 0-18.03M8.041 8.045a11.2 11.2 0 0 1 7.156-3.259 11.17 11.17 0 0 1-3.264 7.148 11.17 11.17 0 0 1-7.152 3.264c.187-2.7 1.345-5.24 3.26-7.153m-3.266 8.659A12.67 12.67 0 0 0 13 13a12.66 12.66 0 0 0 3.71-8.215 11.22 11.22 0 0 1 10.521 10.516 12.75 12.75 0 0 0-11.929 11.924A11.22 11.22 0 0 1 4.776 16.704m19.184 7.25a11.2 11.2 0 0 1-7.157 3.257 11.24 11.24 0 0 1 10.417-10.41 11.2 11.2 0 0 1-3.26 7.154z"/></svg>