<svg xmlns="http://www.w3.org/2000/svg" width="32" height="32" fill="none" viewBox="0 0 32 32"><path fill="#000" d="M14.75 8a.75.75 0 0 1-.75.75H5a.75.75 0 0 1 0-1.5h9a.75.75 0 0 1 .75.75M14 12.25H5a.75.75 0 1 0 0 1.5h9a.75.75 0 1 0 0-1.5m0 5H5a.75.75 0 1 0 0 1.5h9a.75.75 0 1 0 0-1.5m0 5H5a.75.75 0 1 0 0 1.5h9a.75.75 0 1 0 0-1.5m4-13.5h9a.75.75 0 1 0 0-1.5h-9a.75.75 0 1 0 0 1.5m9 3.5h-9a.75.75 0 1 0 0 1.5h9a.75.75 0 1 0 0-1.5m0 5h-9a.75.75 0 1 0 0 1.5h9a.75.75 0 1 0 0-1.5m0 5h-9a.75.75 0 1 0 0 1.5h9a.75.75 0 1 0 0-1.5"/></svg>