<svg xmlns="http://www.w3.org/2000/svg" width="32" height="32" fill="none" viewBox="0 0 32 32"><path fill="#000" d="M30.75 22.5a4.25 4.25 0 0 1-4.25 4.25 4.2 4.2 0 0 1-3.036-1.225.75.75 0 1 1 1.072-1.05 2.7 2.7 0 0 0 1.964.775 2.75 2.75 0 1 0 0-5.5 2.7 2.7 0 0 0-1.964.775.75.75 0 0 1-1.276-.65l1-6a.75.75 0 0 1 .74-.625h5a.75.75 0 1 1 0 1.5h-4.365l-.625 3.75a4.5 4.5 0 0 1 1.49-.25 4.25 4.25 0 0 1 4.25 4.25M18 6.25a.75.75 0 0 0-.75.75v6.75H5.75V7a.75.75 0 0 0-1.5 0v15a.75.75 0 1 0 1.5 0v-6.75h11.5V22a.75.75 0 1 0 1.5 0V7a.75.75 0 0 0-.75-.75"/></svg>