<svg xmlns="http://www.w3.org/2000/svg" width="32" height="32" fill="none" viewBox="0 0 32 32"><path fill="#000" d="M10.679 6.681a.75.75 0 0 0-1.358 0l-8 17a.75.75 0 0 0 1.358.64l2.15-4.57H15.17l2.15 4.568a.752.752 0 0 0 1.385-.065.75.75 0 0 0-.027-.574zm-5.144 11.57L10 8.76l4.465 9.49zm19.465-6c-1.526 0-2.714.41-3.529 1.217a.749.749 0 0 0 .526 1.283.75.75 0 0 0 .532-.218c.522-.52 1.355-.783 2.47-.783 1.793 0 3.25 1.234 3.25 2.75v.905A5.05 5.05 0 0 0 25 16.25c-2.618 0-4.75 1.906-4.75 4.25s2.132 4.25 4.75 4.25a5.05 5.05 0 0 0 3.25-1.155V24a.75.75 0 1 0 1.5 0v-7.5c0-2.344-2.124-4.25-4.75-4.25m0 11c-1.793 0-3.25-1.235-3.25-2.75 0-1.517 1.457-2.75 3.25-2.75s3.25 1.233 3.25 2.75c0 1.515-1.458 2.75-3.25 2.75"/></svg>