<svg xmlns="http://www.w3.org/2000/svg" width="32" height="32" fill="none" viewBox="0 0 32 32"><path fill="#000" d="M26.5 7.25a3.25 3.25 0 1 0 0 6.5 3.25 3.25 0 0 0 0-6.5m0 5a1.75 1.75 0 1 1 0-3.5 1.75 1.75 0 0 1 0 3.5m-10.75 7.075V11a.75.75 0 1 0-1.5 0v8.325a3.75 3.75 0 1 0 1.5 0M15 25.25a2.25 2.25 0 1 1 0-4.5 2.25 2.25 0 0 1 0 4.5m4.75-8.375V6a4.75 4.75 0 1 0-9.5 0v10.875a7.75 7.75 0 1 0 9.5 0M15 29.25a6.25 6.25 0 0 1-3.571-11.375.75.75 0 0 0 .321-.625V6a3.25 3.25 0 1 1 6.5 0v11.25a.75.75 0 0 0 .321.615A6.25 6.25 0 0 1 15 29.25"/></svg>