<svg xmlns="http://www.w3.org/2000/svg" width="32" height="32" fill="none" viewBox="0 0 32 32"><path fill="#000" d="m31.036 9.478-2.822.916 1.744 2.401a.748.748 0 0 1-.425 1.184.75.75 0 0 1-.788-.301L27 11.276l-1.75 2.402a.75.75 0 1 1-1.212-.883l1.743-2.401-2.822-.917a.749.749 0 1 1 .463-1.426l2.828.916V6a.75.75 0 1 1 1.5 0v2.967l2.823-.916a.75.75 0 0 1 .463 1.426M18.75 23a3.75 3.75 0 1 1-4.5-3.675V15a.75.75 0 1 1 1.5 0v4.325a3.756 3.756 0 0 1 3 3.675m-1.5 0a2.25 2.25 0 1 0-4.5 0 2.25 2.25 0 0 0 4.5 0m5.5 0a7.75 7.75 0 1 1-12.5-6.125V6a4.75 4.75 0 1 1 9.5 0v10.875a7.76 7.76 0 0 1 3 6.125m-1.5 0a6.26 6.26 0 0 0-2.679-5.125.75.75 0 0 1-.321-.625V6a3.25 3.25 0 1 0-6.5 0v11.25a.75.75 0 0 1-.321.625A6.25 6.25 0 1 0 21.25 23"/></svg>