<svg xmlns="http://www.w3.org/2000/svg" width="32" height="32" fill="none" viewBox="0 0 32 32"><path fill="#000" d="m29.729 19.659-1.5-12A2.75 2.75 0 0 0 25.5 5.25H4A1.75 1.75 0 0 0 2.25 7v11A1.75 1.75 0 0 0 4 19.75h5.536l4.793 9.585a.75.75 0 0 0 .671.415A4.75 4.75 0 0 0 19.75 25v-2.25H27a2.75 2.75 0 0 0 2.729-3.091M9.25 18.25H4a.25.25 0 0 1-.25-.25V7A.25.25 0 0 1 4 6.75h5.25zm18.688 2.578a1.24 1.24 0 0 1-.938.422h-8a.75.75 0 0 0-.75.75v3a3.25 3.25 0 0 1-2.802 3.219l-4.698-9.396V6.75H25.5a1.25 1.25 0 0 1 1.24 1.095l1.5 12a1.24 1.24 0 0 1-.302.983"/></svg>