<svg xmlns="http://www.w3.org/2000/svg" width="32" height="32" fill="none" viewBox="0 0 32 32"><path fill="#000" d="M28.349 12.815a1.75 1.75 0 0 0 1.401-1.714V8A1.75 1.75 0 0 0 28 6.25H4A1.75 1.75 0 0 0 2.25 8v3.101a1.75 1.75 0 0 0 1.401 1.714 3.25 3.25 0 0 1 0 6.375 1.75 1.75 0 0 0-1.401 1.709V24A1.75 1.75 0 0 0 4 25.75h24A1.75 1.75 0 0 0 29.75 24v-3.101a1.75 1.75 0 0 0-1.401-1.714 3.25 3.25 0 0 1 0-6.375zM3.75 24v-3.101a.25.25 0 0 1 .199-.244 4.75 4.75 0 0 0 0-9.31.25.25 0 0 1-.199-.25V8A.25.25 0 0 1 4 7.75h7.25v16.5H4a.25.25 0 0 1-.25-.25m24.301-3.345a.25.25 0 0 1 .199.244V24a.25.25 0 0 1-.25.25H12.75V7.75H28a.25.25 0 0 1 .25.25v3.101a.25.25 0 0 1-.199.25 4.75 4.75 0 0 0 0 9.31z"/></svg>