<svg xmlns="http://www.w3.org/2000/svg" width="32" height="32" fill="none" viewBox="0 0 32 32"><path fill="#000" d="m31.53 11.47-5-5a.75.75 0 0 0-1.06 0L21 10.94l-4.47-4.47a.75.75 0 0 0-1.06 0L11 10.94 6.53 6.47a.75.75 0 0 0-1.06 0l-5 5a.75.75 0 0 0 0 1.06l5 5a.75.75 0 0 0 1.06 0L11 13.06 14.94 17l-4.47 4.47a.75.75 0 0 0 0 1.06l5 5a.75.75 0 0 0 1.06 0l5-5a.75.75 0 0 0 0-1.06L17.06 17 21 13.06l4.47 4.47a.75.75 0 0 0 1.06 0l5-5a.75.75 0 0 0 0-1.06M6 15.94 2.061 12l3.94-3.939 3.938 3.94zm10 10L12.061 22l3.94-3.939 3.938 3.94zm0-10L12.061 12l3.94-3.939 3.938 3.94zm10 0L22.061 12l3.94-3.939 3.938 3.94z"/></svg>