<svg xmlns="http://www.w3.org/2000/svg" width="32" height="32" fill="none" viewBox="0 0 32 32"><path fill="#000" d="M28 9.25A6.257 6.257 0 0 1 21.75 3a.75.75 0 0 0-.75-.75h-5a.75.75 0 0 0-.75.75v16.5a2.75 2.75 0 1 1-3.929-2.486.75.75 0 0 0 .429-.678V11a.75.75 0 0 0-.875-.739c-4.35.774-7.625 4.745-7.625 9.239a9.25 9.25 0 1 0 18.5 0v-5.384A12.66 12.66 0 0 0 28 15.75a.75.75 0 0 0 .75-.75v-5a.75.75 0 0 0-.75-.75m-.75 4.975a11.14 11.14 0 0 1-5.812-2.086.75.75 0 0 0-1.188.611v6.75a7.75 7.75 0 1 1-15.5 0c0-3.465 2.309-6.56 5.5-7.547v3.94a4.249 4.249 0 1 0 6.5 3.607V3.75h3.536a7.76 7.76 0 0 0 6.964 6.964z"/></svg>