<svg xmlns="http://www.w3.org/2000/svg" width="32" height="32" fill="none" viewBox="0 0 32 32"><path fill="#000" d="M9.25 15a1.25 1.25 0 1 1-2.5 0 1.25 1.25 0 0 1 2.5 0m20.5 0v11A1.75 1.75 0 0 1 28 27.75H14A1.75 1.75 0 0 1 12.25 26v-3.69C11.206 24.436 9.7 25.75 8 25.75c-3.224 0-5.75-4.722-5.75-10.75S4.776 4.25 8 4.25h16c3.224 0 5.75 4.723 5.75 10.75m-17.5 0c0-5.533-2.197-9.25-4.25-9.25S3.75 9.467 3.75 15 5.948 24.25 8 24.25s4.25-3.716 4.25-9.25m16 11V15.75H26a.75.75 0 1 1 0-1.5h2.235c-.189-5.115-2.276-8.5-4.235-8.5H10.97c1.571 1.74 2.636 4.842 2.765 8.5H16a.75.75 0 1 1 0 1.5h-2.25V26a.25.25 0 0 0 .25.25h14a.25.25 0 0 0 .25-.25M22 14.25h-2a.75.75 0 1 0 0 1.5h2a.75.75 0 1 0 0-1.5"/></svg>