<svg xmlns="http://www.w3.org/2000/svg" width="32" height="32" fill="none" viewBox="0 0 32 32"><path fill="#000" d="M28 8.25h-6.25V7A2.75 2.75 0 0 0 19 4.25h-6A2.75 2.75 0 0 0 10.25 7v1.25H4A1.75 1.75 0 0 0 2.25 10v14A1.75 1.75 0 0 0 4 25.75h24A1.75 1.75 0 0 0 29.75 24V10A1.75 1.75 0 0 0 28 8.25M11.75 7A1.25 1.25 0 0 1 13 5.75h6A1.25 1.25 0 0 1 20.25 7v1.25h-8.5zM4 9.75h24a.25.25 0 0 1 .25.25v4.25h-4.5V13a.75.75 0 1 0-1.5 0v1.25H9.75V13a.75.75 0 1 0-1.5 0v1.25h-4.5V10A.25.25 0 0 1 4 9.75m24 14.5H4a.25.25 0 0 1-.25-.25v-8.25h4.5V17a.75.75 0 1 0 1.5 0v-1.25h12.5V17a.75.75 0 1 0 1.5 0v-1.25h4.5V24a.25.25 0 0 1-.25.25"/></svg>