<svg xmlns="http://www.w3.org/2000/svg" width="32" height="32" fill="none" viewBox="0 0 32 32"><path fill="#000" d="M21.279 8.696 18.02 10l3.259 1.304a.75.75 0 1 1-.558 1.392L16 10.807l-4.721 1.89a.75.75 0 0 1-.558-1.393L13.98 10l-3.259-1.304a.75.75 0 0 1 .558-1.392L16 9.19l4.721-1.887a.75.75 0 1 1 .558 1.392M27.75 9.97c0 5.306-.989 9.362-1.824 11.83-1.073 3.176-2.527 5.592-3.988 6.625a1.71 1.71 0 0 1-1.743.154 1.76 1.76 0 0 1-1-1.462c-.141-1.916-.734-6.375-3.19-6.375s-3.049 4.455-3.19 6.375a1.76 1.76 0 0 1-1.75 1.625 1.7 1.7 0 0 1-1-.322c-1.461-1.037-2.915-3.453-3.989-6.625C5.24 19.33 4.25 15.275 4.25 9.969A6.75 6.75 0 0 1 11 3.25h10a6.75 6.75 0 0 1 6.75 6.719m-1.5 0A5.25 5.25 0 0 0 21 4.75H11a5.25 5.25 0 0 0-5.25 5.22c-.009 9.241 3.086 15.75 5.18 17.235a.22.22 0 0 0 .235.019.25.25 0 0 0 .149-.214c.368-5.01 2.032-7.76 4.686-7.76s4.317 2.75 4.686 7.761a.25.25 0 0 0 .149.214.22.22 0 0 0 .235-.019c2.094-1.488 5.189-7.995 5.18-17.236z"/></svg>