<svg xmlns="http://www.w3.org/2000/svg" width="32" height="32" fill="none" viewBox="0 0 32 32"><path fill="#000" d="M16 3.25A12.75 12.75 0 1 0 28.75 16 12.765 12.765 0 0 0 16 3.25m0 24A11.25 11.25 0 1 1 27.25 16 11.26 11.26 0 0 1 16 27.25M13.75 13a.75.75 0 0 1-.75.75h-1.25V19a.75.75 0 1 1-1.5 0v-5.25H9a.75.75 0 1 1 0-1.5h4a.75.75 0 0 1 .75.75m10 0v6a.75.75 0 1 1-1.5 0v-4l-2.185 2.5a.75.75 0 0 1-1.125 0L16.75 15v4a.75.75 0 1 1-1.5 0v-6a.75.75 0 0 1 1.315-.5l2.935 3.361 2.935-3.355A.75.75 0 0 1 23.75 13"/></svg>