<svg xmlns="http://www.w3.org/2000/svg" width="32" height="32" fill="none" viewBox="0 0 32 32"><path fill="#000" d="M30.218 14.714 17.286 1.782a1.82 1.82 0 0 0-2.572 0L1.783 14.714a1.82 1.82 0 0 0 0 2.572l12.93 12.931a1.82 1.82 0 0 0 2.573 0l12.932-12.93a1.82 1.82 0 0 0 0-2.573m-1.062 1.512-12.93 12.93a.32.32 0 0 1-.452 0l-12.93-12.93a.32.32 0 0 1 0-.452l12.93-12.93a.32.32 0 0 1 .452 0l12.93 12.93a.32.32 0 0 1 0 .452m-7.625-1.75a.75.75 0 0 1 0 1.06l-3 3a.75.75 0 0 1-1.06-1.06l1.718-1.726H14A2.25 2.25 0 0 0 11.75 18v1a.75.75 0 1 1-1.5 0v-1A3.75 3.75 0 0 1 14 14.25h5.189l-1.719-1.72a.75.75 0 0 1 1.06-1.06z"/></svg>