<svg xmlns="http://www.w3.org/2000/svg" width="32" height="32" fill="none" viewBox="0 0 32 32"><path fill="#000" d="M16 7.25a3.75 3.75 0 1 0 0 7.5 3.75 3.75 0 0 0 0-7.5m0 6a2.25 2.25 0 1 1 0-4.5 2.25 2.25 0 0 1 0 4.5m0 4a3.75 3.75 0 1 0 0 7.5 3.75 3.75 0 0 0 0-7.5m0 6a2.25 2.25 0 1 1 0-4.5 2.25 2.25 0 0 1 0 4.5m11-5h-2.25v-8.5H27a.75.75 0 1 0 0-1.5h-2.25V5A1.75 1.75 0 0 0 23 3.25H9A1.75 1.75 0 0 0 7.25 5v3.25H5a.75.75 0 0 0 0 1.5h2.25v8.5H5a.75.75 0 1 0 0 1.5h2.25V27A1.75 1.75 0 0 0 9 28.75h14A1.75 1.75 0 0 0 24.75 27v-7.25H27a.75.75 0 1 0 0-1.5M23.25 27a.25.25 0 0 1-.25.25H9a.25.25 0 0 1-.25-.25V5A.25.25 0 0 1 9 4.75h14a.25.25 0 0 1 .25.25z"/></svg>