<svg xmlns="http://www.w3.org/2000/svg" width="32" height="32" fill="none" viewBox="0 0 32 32"><path fill="#000" d="M23 3.25H9A3.75 3.75 0 0 0 5.25 7v16A3.75 3.75 0 0 0 9 26.75h1.5l-2.1 2.8a.75.75 0 0 0 1.2.9l2.775-3.7h7.25l2.775 3.7a.75.75 0 0 0 1.2-.9l-2.1-2.8H23A3.75 3.75 0 0 0 26.75 23V7A3.75 3.75 0 0 0 23 3.25M9 4.75h14A2.25 2.25 0 0 1 25.25 7v8.25H6.75V7A2.25 2.25 0 0 1 9 4.75m14 20.5H9A2.25 2.25 0 0 1 6.75 23v-6.25h18.5V23A2.25 2.25 0 0 1 23 25.25m-.25-3.75a1.25 1.25 0 1 1-2.5 0 1.25 1.25 0 0 1 2.5 0m-11 0a1.25 1.25 0 1 1-2.5 0 1.25 1.25 0 0 1 2.5 0"/></svg>