<svg xmlns="http://www.w3.org/2000/svg" width="32" height="32" fill="none" viewBox="0 0 32 32"><path fill="#000" d="M27.724 14.803 24.925 4.54a1.75 1.75 0 0 0-1.689-1.29H8.764a1.75 1.75 0 0 0-1.689 1.29L4.276 14.803a.75.75 0 0 0 0 .394L7.075 25.46a1.75 1.75 0 0 0 1.689 1.29H10.5l-2.1 2.8a.75.75 0 0 0 1.2.9l2.775-3.7h7.25l2.775 3.7a.75.75 0 0 0 1.2-.9l-2.1-2.8h1.736a1.75 1.75 0 0 0 1.689-1.29l2.799-10.263a.75.75 0 0 0 0-.394M8.523 4.933a.25.25 0 0 1 .24-.183h14.473a.25.25 0 0 1 .241.184l2.584 9.475L16 16.238l-10.061-1.83zm0 20.133-2.487-9.115 9.214 1.674v7.625H8.764a.25.25 0 0 1-.241-.184m14.955 0a.25.25 0 0 1-.242.184H16.75v-7.625l9.214-1.675zM11.25 11a.75.75 0 0 1 .75-.75h8a.75.75 0 1 1 0 1.5h-8a.75.75 0 0 1-.75-.75"/></svg>