<svg xmlns="http://www.w3.org/2000/svg" width="32" height="32" fill="none" viewBox="0 0 32 32"><path fill="#000" d="M23 6.25h-6.25v-3.5H21a.75.75 0 1 0 0-1.5H11a.75.75 0 1 0 0 1.5h4.25v3.5H9A3.75 3.75 0 0 0 5.25 10v13A3.75 3.75 0 0 0 9 26.75h1.5l-2.1 2.8a.75.75 0 0 0 1.2.9l2.775-3.7h7.25l2.775 3.7a.75.75 0 0 0 1.2-.9l-2.1-2.8H23A3.75 3.75 0 0 0 26.75 23V10A3.75 3.75 0 0 0 23 6.25M9 7.75h14A2.25 2.25 0 0 1 25.25 10v5.25H6.75V10A2.25 2.25 0 0 1 9 7.75m14 17.5H9A2.25 2.25 0 0 1 6.75 23v-6.25h18.5V23A2.25 2.25 0 0 1 23 25.25M11.75 21.5a1.25 1.25 0 1 1-2.5 0 1.25 1.25 0 0 1 2.5 0m11 0a1.25 1.25 0 1 1-2.5 0 1.25 1.25 0 0 1 2.5 0"/></svg>