<svg xmlns="http://www.w3.org/2000/svg" width="32" height="32" fill="none" viewBox="0 0 32 32"><path fill="#000" d="m29.671 26.665-7-14a.75.75 0 0 0-1.342 0L18.54 18.24a11.25 11.25 0 0 1-6.416-2.341 12.72 12.72 0 0 0 3.602-8.149H19a.75.75 0 1 0 0-1.5h-7.25V4a.75.75 0 1 0-1.5 0v2.25H3a.75.75 0 0 0 0 1.5h11.224A11.22 11.22 0 0 1 11 14.904a11.2 11.2 0 0 1-2.611-4.154.75.75 0 1 0-1.414.5 12.7 12.7 0 0 0 2.9 4.65A11.2 11.2 0 0 1 3 18.25a.75.75 0 1 0 0 1.5 12.7 12.7 0 0 0 8-2.829 12.76 12.76 0 0 0 6.816 2.771l-3.486 6.973a.75.75 0 1 0 1.342.67l1.792-3.585h9.072l1.793 3.585a.75.75 0 1 0 1.342-.67M18.214 22.25 22 14.678l3.786 7.572z"/></svg>