<svg xmlns="http://www.w3.org/2000/svg" width="32" height="32" fill="none" viewBox="0 0 32 32"><path fill="#000" d="M27 6.25h-5.25V5A2.75 2.75 0 0 0 19 2.25h-6A2.75 2.75 0 0 0 10.25 5v1.25H5a.75.75 0 0 0 0 1.5h1.25V26A1.75 1.75 0 0 0 8 27.75h16A1.75 1.75 0 0 0 25.75 26V7.75H27a.75.75 0 1 0 0-1.5M11.75 5A1.25 1.25 0 0 1 13 3.75h6A1.25 1.25 0 0 1 20.25 5v1.25h-8.5zm12.5 21a.25.25 0 0 1-.25.25H8a.25.25 0 0 1-.25-.25V7.75h16.5zm-10.5-13v8a.75.75 0 1 1-1.5 0v-8a.75.75 0 1 1 1.5 0m6 0v8a.75.75 0 1 1-1.5 0v-8a.75.75 0 1 1 1.5 0"/></svg>