<svg xmlns="http://www.w3.org/2000/svg" width="32" height="32" fill="none" viewBox="0 0 32 32"><path fill="#000" d="M26 4.25H6A1.75 1.75 0 0 0 4.25 6v20A1.75 1.75 0 0 0 6 27.75h20A1.75 1.75 0 0 0 27.75 26V6A1.75 1.75 0 0 0 26 4.25M6 5.75h20a.25.25 0 0 1 .25.25v13.25h-3.836a1.74 1.74 0 0 0-1.238.512l-2.413 2.414a.25.25 0 0 1-.177.074h-5.172a.25.25 0 0 1-.176-.073l-2.414-2.415a1.74 1.74 0 0 0-1.238-.512H5.75V6A.25.25 0 0 1 6 5.75m20 20.5H6a.25.25 0 0 1-.25-.25v-5.25h3.836a.25.25 0 0 1 .176.073l2.414 2.415a1.74 1.74 0 0 0 1.238.512h5.172a1.74 1.74 0 0 0 1.238-.512l2.413-2.414a.25.25 0 0 1 .177-.074h3.836V26a.25.25 0 0 1-.25.25"/></svg>