<svg xmlns="http://www.w3.org/2000/svg" width="32" height="32" fill="none" viewBox="0 0 32 32"><path fill="#000" d="M29.544 6.826a8.11 8.11 0 0 0-11.856 0A8.8 8.8 0 0 0 16 9.375a8.8 8.8 0 0 0-1.687-2.546 8.11 8.11 0 0 0-11.857 0 .75.75 0 0 0 .25 1.205l7.729 3.362a8.679 8.679 0 0 0-6.005 4.202 8.58 8.58 0 0 0-.875 6.6.75.75 0 0 0 1.179.4L15.25 14.58V28a.75.75 0 1 0 1.5 0V14.58l10.521 8.016a.75.75 0 0 0 1.179-.401 8.58 8.58 0 0 0-.875-6.599 8.68 8.68 0 0 0-6.005-4.202l7.729-3.363a.75.75 0 0 0 .25-1.205zM8.385 5.75a6.65 6.65 0 0 1 4.841 2.11 7.35 7.35 0 0 1 1.934 3.956L4.366 7.125A6.57 6.57 0 0 1 8.385 5.75M4.786 20.666a7.1 7.1 0 0 1 .935-4.316A7.2 7.2 0 0 1 10.125 13a7.4 7.4 0 0 1 1.89-.25c.872 0 1.738.158 2.554.466zM26.28 16.35a7.1 7.1 0 0 1 .935 4.316l-9.78-7.451a7.28 7.28 0 0 1 8.845 3.135m-9.439-4.534a7.35 7.35 0 0 1 1.934-3.956 6.65 6.65 0 0 1 4.841-2.11 6.57 6.57 0 0 1 4.019 1.375z"/></svg>