<svg xmlns="http://www.w3.org/2000/svg" width="32" height="32" fill="none" viewBox="0 0 32 32"><path fill="#000" d="M24.658 8.051a.25.25 0 0 1-.126-.125 9.25 9.25 0 0 0-17.064 0 .25.25 0 0 1-.125.125 8.78 8.78 0 0 0-5.093 7.924c-.012 4.718 3.811 8.65 8.525 8.775a8.7 8.7 0 0 0 4.475-1.1V29a.75.75 0 1 0 1.5 0v-5.352A8.7 8.7 0 0 0 21 24.75h.226c4.713-.125 8.537-4.055 8.524-8.772a8.78 8.78 0 0 0-5.093-7.927m-3.47 15.2a7.2 7.2 0 0 1-4.212-1.218 2 2 0 0 0-.226-.125V16.47l5.585-2.792a.75.75 0 1 0-.67-1.343l-4.915 2.451V11a.75.75 0 0 0-1.5 0v6.786l-4.915-2.457a.75.75 0 0 0-.67 1.342l5.585 2.793V21.9a2 2 0 0 0-.226.125 7.2 7.2 0 0 1-4.211 1.224A7.25 7.25 0 0 1 7.97 9.414a1.75 1.75 0 0 0 .881-.914 7.75 7.75 0 0 1 14.298 0c.17.403.484.728.881.911a7.25 7.25 0 0 1-2.843 13.84"/></svg>