<svg xmlns="http://www.w3.org/2000/svg" width="32" height="32" fill="none" viewBox="0 0 32 32"><path fill="#000" d="M21 13.75h6A1.75 1.75 0 0 0 28.75 12V6A1.75 1.75 0 0 0 27 4.25h-6A1.75 1.75 0 0 0 19.25 6v2.25H18A3.75 3.75 0 0 0 14.25 12v3.25h-4.5V14A1.75 1.75 0 0 0 8 12.25H4A1.75 1.75 0 0 0 2.25 14v4A1.75 1.75 0 0 0 4 19.75h4A1.75 1.75 0 0 0 9.75 18v-1.25h4.5V20A3.75 3.75 0 0 0 18 23.75h1.25V26A1.75 1.75 0 0 0 21 27.75h6A1.75 1.75 0 0 0 28.75 26v-6A1.75 1.75 0 0 0 27 18.25h-6A1.75 1.75 0 0 0 19.25 20v2.25H18A2.25 2.25 0 0 1 15.75 20v-8A2.25 2.25 0 0 1 18 9.75h1.25V12A1.75 1.75 0 0 0 21 13.75M8.25 18a.25.25 0 0 1-.25.25H4a.25.25 0 0 1-.25-.25v-4a.25.25 0 0 1 .25-.25h4a.25.25 0 0 1 .25.25zm12.5 2a.25.25 0 0 1 .25-.25h6a.25.25 0 0 1 .25.25v6a.25.25 0 0 1-.25.25h-6a.25.25 0 0 1-.25-.25zm0-14a.25.25 0 0 1 .25-.25h6a.25.25 0 0 1 .25.25v6a.25.25 0 0 1-.25.25h-6a.25.25 0 0 1-.25-.25z"/></svg>