<svg xmlns="http://www.w3.org/2000/svg" width="32" height="32" fill="none" viewBox="0 0 32 32"><path fill="#000" d="m30.696 14.723-1.75-4.376a1.74 1.74 0 0 0-1.625-1.1H22.75V8a.75.75 0 0 0-.75-.75H3A1.75 1.75 0 0 0 1.25 9v14A1.75 1.75 0 0 0 3 24.75h2.325a3.75 3.75 0 0 0 7.35 0h6.65a3.75 3.75 0 0 0 7.35 0H29A1.75 1.75 0 0 0 30.75 23v-8a.8.8 0 0 0-.054-.277M22.75 10.75h4.573a.25.25 0 0 1 .232.158l1.337 3.342H22.75zM2.75 9A.25.25 0 0 1 3 8.75h18.25v8.5H2.75zM9 26.25a2.25 2.25 0 1 1 0-4.5 2.25 2.25 0 0 1 0 4.5m10.325-3h-6.65a3.75 3.75 0 0 0-7.35 0H3a.25.25 0 0 1-.25-.25v-4.25h18.5v1.935a3.76 3.76 0 0 0-1.925 2.565m3.675 3a2.25 2.25 0 1 1 0-4.5 2.25 2.25 0 0 1 0 4.5M29.25 23a.25.25 0 0 1-.25.25h-2.325a3.756 3.756 0 0 0-3.675-3c-.084 0-.168 0-.25.009V15.75h6.5z"/></svg>