<svg xmlns="http://www.w3.org/2000/svg" width="32" height="32" fill="none" viewBox="0 0 32 32"><path fill="#000" d="M26 4.25H6A1.75 1.75 0 0 0 4.25 6v18A1.75 1.75 0 0 0 6 25.75h2.25V30a.75.75 0 0 0 1.23.576l5.723-4.768a.25.25 0 0 1 .16-.058h5.275c.41 0 .809-.143 1.124-.406l5.363-4.469a1.75 1.75 0 0 0 .625-1.345V6A1.75 1.75 0 0 0 26 4.25m.25 15.281a.25.25 0 0 1-.09.193l-5.363 4.468a.25.25 0 0 1-.16.058h-5.274c-.412 0-.81.143-1.125.406L9.75 28.4V25a.75.75 0 0 0-.75-.75H6a.25.25 0 0 1-.25-.25V6A.25.25 0 0 1 6 5.75h20a.25.25 0 0 1 .25.25zM21.75 11v6a.75.75 0 1 1-1.5 0v-6a.75.75 0 1 1 1.5 0m-6 0v6a.75.75 0 1 1-1.5 0v-6a.75.75 0 1 1 1.5 0"/></svg>