<svg xmlns="http://www.w3.org/2000/svg" width="32" height="32" fill="none" viewBox="0 0 32 32"><path fill="#000" d="M30.693 8.714A.75.75 0 0 0 30 8.25h-3.95a5.83 5.83 0 0 0-5.041-3 5.62 5.62 0 0 0-4.039 1.64A5.74 5.74 0 0 0 15.25 11v1.082c-5.25-1.25-9.575-5.565-9.625-5.61a.75.75 0 0 0-1.275.46c-.531 5.903 1.178 9.844 2.705 12.112a13.5 13.5 0 0 0 2.884 3.125c-1.936 2.375-5.168 3.611-5.203 3.625a.75.75 0 0 0-.36 1.125C4.5 27.104 5.723 28.75 10 28.75c8.735 0 16.029-6.75 16.728-15.417L30.53 9.53a.75.75 0 0 0 .163-.817M25.47 12.47a.75.75 0 0 0-.219.482c-.51 8.018-7.21 14.298-15.25 14.298-1.75 0-2.846-.301-3.508-.6 1.412-.71 3.715-2.11 5.13-4.234a.75.75 0 0 0-.248-1.064c-.016-.01-1.641-.982-3.125-3.215C6.5 15.5 5.664 12.305 5.75 8.61c1.86 1.575 5.696 4.386 10.125 5.125a.748.748 0 0 0 .875-.74V11a4.25 4.25 0 0 1 1.274-3.043A4.13 4.13 0 0 1 20.99 6.75c1.68.021 3.25 1.046 3.905 2.55a.75.75 0 0 0 .688.45h2.605z"/></svg>