<svg xmlns="http://www.w3.org/2000/svg" width="32" height="32" fill="none" viewBox="0 0 32 32"><path fill="#000" d="M29.75 15.849A13.804 13.804 0 0 0 6.64 6.903a13.7 13.7 0 0 0-4.383 8.946A1.75 1.75 0 0 0 4 17.75h11.25V25a3.75 3.75 0 1 0 7.5 0 .75.75 0 0 0-1.5 0 2.25 2.25 0 0 1-4.5 0v-7.25H28a1.75 1.75 0 0 0 1.75-1.901m-17.986.401C11.975 9.849 14.85 6.23 16 5.034c1.15 1.197 4.025 4.816 4.236 11.216zm-7.946-.081a.25.25 0 0 1-.067-.195A12.27 12.27 0 0 1 14.115 4.896c-1.5 1.875-3.679 5.555-3.854 11.354h-6.26a.25.25 0 0 1-.183-.081m24.365 0a.25.25 0 0 1-.183.081H21.74c-.175-5.799-2.351-9.484-3.854-11.354A12.27 12.27 0 0 1 28.25 15.974a.25.25 0 0 1-.067.195"/></svg>