<svg xmlns="http://www.w3.org/2000/svg" width="32" height="32" fill="none" viewBox="0 0 32 32"><path fill="#000" d="M21.614 10.386a9.75 9.75 0 1 0-11.228 11.228 9.75 9.75 0 1 0 11.228-11.228M28.25 20q0 .559-.077 1.113l-6.72-6.722a9.7 9.7 0 0 0 .297-2.39v-.062A8.26 8.26 0 0 1 28.25 20M5.664 6.724 12.6 13.66a9.7 9.7 0 0 0-1.5 2.375l-6.85-6.85a8.3 8.3 0 0 1 1.413-2.462m11.115 12-3.5-3.5a8.3 8.3 0 0 1 1.94-1.94l3.5 3.5a8.3 8.3 0 0 1-1.94 1.935zM20.25 12a8.2 8.2 0 0 1-.75 3.436L16.564 12.5A8.2 8.2 0 0 1 20 11.75h.244q.008.13.006.25m-6.589.601L6.724 5.664A8.3 8.3 0 0 1 9.185 4.25l6.85 6.851c-.86.383-1.66.888-2.374 1.5m-1.91 7.4a8.2 8.2 0 0 1 .75-3.437l2.935 2.936a8.2 8.2 0 0 1-3.436.75q-.12.002-.25-.006zm6.588-.602 6.937 6.937a8.3 8.3 0 0 1-2.46 1.414l-6.85-6.851a9.7 9.7 0 0 0 2.373-1.5m1.06-1.06a9.7 9.7 0 0 0 1.5-2.375l6.851 6.851a8.3 8.3 0 0 1-1.419 2.461zm.662-8.088h-.06c-.807 0-1.61.1-2.392.298l-6.721-6.721Q11.44 3.752 12 3.75a8.26 8.26 0 0 1 8.061 6.5zm-16.31 1.75q0-.56.077-1.113l6.72 6.72A9.7 9.7 0 0 0 10.25 20v.061a8.26 8.26 0 0 1-6.5-8.06m8.188 9.75H12c.806 0 1.61-.1 2.391-.298l6.722 6.72q-.554.076-1.113.077a8.26 8.26 0 0 1-8.061-6.5"/></svg>