<svg xmlns="http://www.w3.org/2000/svg" width="32" height="32" fill="none" viewBox="0 0 32 32"><path fill="#000" d="m31.416 15.375-6-4A.75.75 0 0 0 24.25 12v3.25H8.75V9A.25.25 0 0 1 9 8.75h4.325a3.75 3.75 0 1 0 0-1.5H9A1.75 1.75 0 0 0 7.25 9v6.25H1a.75.75 0 1 0 0 1.5h6.25V23A1.75 1.75 0 0 0 9 24.75h4.25V26A1.75 1.75 0 0 0 15 27.75h4A1.75 1.75 0 0 0 20.75 26v-4A1.75 1.75 0 0 0 19 20.25h-4A1.75 1.75 0 0 0 13.25 22v1.25H9a.25.25 0 0 1-.25-.25v-6.25h15.5V20a.75.75 0 0 0 1.166.625l6-4a.75.75 0 0 0 0-1.25M17 5.75a2.25 2.25 0 1 1 0 4.5 2.25 2.25 0 0 1 0-4.5M14.75 22a.25.25 0 0 1 .25-.25h4a.25.25 0 0 1 .25.25v4a.25.25 0 0 1-.25.25h-4a.25.25 0 0 1-.25-.25zm11-3.401V13.4L29.648 16z"/></svg>