<svg xmlns="http://www.w3.org/2000/svg" width="32" height="32" fill="none" viewBox="0 0 32 32"><path fill="#000" d="m28.407 8.1-.74-.426a2.75 2.75 0 0 0 0-1.348l.74-.426a.75.75 0 0 0-.75-1.3l-.742.429a2.75 2.75 0 0 0-1.165-.674V3.5a.75.75 0 1 0-1.5 0v.855a2.75 2.75 0 0 0-1.165.674l-.741-.429a.75.75 0 0 0-.75 1.3l.74.426a2.75 2.75 0 0 0 0 1.348l-.74.426a.75.75 0 1 0 .75 1.3l.741-.429c.327.318.727.55 1.165.674v.855a.75.75 0 1 0 1.5 0v-.855a2.75 2.75 0 0 0 1.165-.674l.742.429a.75.75 0 1 0 .75-1.3M25 8.25a1.25 1.25 0 1 1 0-2.5 1.25 1.25 0 0 1 0 2.5m2.71 5.01a.75.75 0 0 0-.615.864q.155.931.155 1.876a11.2 11.2 0 0 1-3.061 7.705 9.7 9.7 0 0 0-5-3.922 5.75 5.75 0 1 0-6.375 0 9.7 9.7 0 0 0-5 3.922 11.244 11.244 0 0 1 10.061-18.8.75.75 0 1 0 .25-1.479 12.75 12.75 0 1 0 6.25 22.18c.081.17.21 0 .293-.264a12.75 12.75 0 0 0 3.906-11.467.75.75 0 0 0-.864-.615M11.75 15a4.25 4.25 0 1 1 8.5 0 4.25 4.25 0 0 1-8.5 0m-2.82 9.75a8.25 8.25 0 0 1 14.14 0 11.225 11.225 0 0 1-14.14 0"/></svg>