<svg xmlns="http://www.w3.org/2000/svg" width="32" height="32" fill="none" viewBox="0 0 32 32"><path fill="#000" d="M21.25 7a.75.75 0 0 1 .75-.75h2.25V4a.75.75 0 1 1 1.5 0v2.25H28a.75.75 0 1 1 0 1.5h-2.25V10a.75.75 0 1 1-1.5 0V7.75H22a.75.75 0 0 1-.75-.75m7.323 6.875A12.737 12.737 0 1 1 18.126 3.426a.75.75 0 1 1-.25 1.479A11.5 11.5 0 0 0 16 4.75 11.244 11.244 0 0 0 7.81 23.705a9.7 9.7 0 0 1 5-3.923 5.75 5.75 0 1 1 6.375 0 9.7 9.7 0 0 1 5 3.923A11.2 11.2 0 0 0 27.25 16q0-.943-.155-1.875a.75.75 0 1 1 1.479-.25M16 19.25a4.25 4.25 0 1 0 0-8.5 4.25 4.25 0 0 0 0 8.5m0 8c2.574.004 5.07-.879 7.07-2.5a8.25 8.25 0 0 0-14.14 0c2 1.621 4.496 2.504 7.07 2.5"/></svg>