<svg xmlns="http://www.w3.org/2000/svg" width="32" height="32" fill="none" viewBox="0 0 32 32"><path fill="#000" d="M27.75 6v3.5a.75.75 0 1 1-1.5 0V6a.25.25 0 0 0-.25-.25h-3.5a.75.75 0 1 1 0-1.5H26A1.75 1.75 0 0 1 27.75 6M27 21.75a.75.75 0 0 0-.75.75V26a.25.25 0 0 1-.25.25h-3.5a.75.75 0 1 0 0 1.5H26A1.75 1.75 0 0 0 27.75 26v-3.5a.75.75 0 0 0-.75-.75m-17.5 4.5H6a.25.25 0 0 1-.25-.25v-3.5a.75.75 0 1 0-1.5 0V26A1.75 1.75 0 0 0 6 27.75h3.5a.75.75 0 1 0 0-1.5m-4.5-16a.75.75 0 0 0 .75-.75V6A.25.25 0 0 1 6 5.75h3.5a.75.75 0 1 0 0-1.5H6A1.75 1.75 0 0 0 4.25 6v3.5a.75.75 0 0 0 .75.75m17 11.5a.75.75 0 0 1-.6-.3 6.75 6.75 0 0 0-10.8 0 .75.75 0 1 1-1.2-.9 8.2 8.2 0 0 1 3.711-2.783 4.751 4.751 0 1 1 5.778 0A8.2 8.2 0 0 1 22.6 20.55a.75.75 0 0 1-.6 1.2m-6-4.5a3.25 3.25 0 1 0 0-6.5 3.25 3.25 0 0 0 0 6.5"/></svg>