<svg xmlns="http://www.w3.org/2000/svg" width="32" height="32" fill="none" viewBox="0 0 32 32"><path fill="#000" d="M26 4.25H6A1.75 1.75 0 0 0 4.25 6v20A1.75 1.75 0 0 0 6 27.75h20A1.75 1.75 0 0 0 27.75 26V6A1.75 1.75 0 0 0 26 4.25M11.75 15a4.25 4.25 0 1 1 8.5 0 4.25 4.25 0 0 1-8.5 0M8.221 26.25a8.25 8.25 0 0 1 15.557 0zM26.25 26a.25.25 0 0 1-.25.25h-.646a9.73 9.73 0 0 0-6.173-6.464 5.749 5.749 0 1 0-6.362 0 9.73 9.73 0 0 0-6.173 6.464H6a.25.25 0 0 1-.25-.25V6A.25.25 0 0 1 6 5.75h20a.25.25 0 0 1 .25.25z"/></svg>