<svg xmlns="http://www.w3.org/2000/svg" width="32" height="32" fill="none" viewBox="0 0 32 32"><path fill="#000" d="M3.55 15.6a.75.75 0 0 0 1.05-.15 6.75 6.75 0 0 1 10.8 0 .75.75 0 0 0 1.199 0 6.75 6.75 0 0 1 10.8 0 .75.75 0 0 0 1.2-.901 8.2 8.2 0 0 0-3.712-2.783 4.75 4.75 0 1 0-5.777 0A8.2 8.2 0 0 0 16 13.838a8.2 8.2 0 0 0-3.111-2.072 4.75 4.75 0 1 0-5.778 0A8.2 8.2 0 0 0 3.4 14.55a.75.75 0 0 0 .15 1.05M22 4.75a3.25 3.25 0 1 1 0 6.5 3.25 3.25 0 0 1 0-6.5m-12 0a3.25 3.25 0 1 1 0 6.5 3.25 3.25 0 0 1 0-6.5m14.889 20.016a4.75 4.75 0 1 0-5.778 0A8.2 8.2 0 0 0 16 26.838a8.2 8.2 0 0 0-3.111-2.072 4.75 4.75 0 1 0-5.778 0A8.2 8.2 0 0 0 3.4 27.55a.75.75 0 1 0 1.2.9 6.75 6.75 0 0 1 10.8 0 .75.75 0 0 0 1.199 0 6.75 6.75 0 0 1 10.8 0 .75.75 0 0 0 1.2-.901 8.2 8.2 0 0 0-3.71-2.783M10 17.75a3.25 3.25 0 1 1 0 6.5 3.25 3.25 0 0 1 0-6.5m12 0a3.25 3.25 0 1 1 0 6.5 3.25 3.25 0 0 1 0-6.5"/></svg>