<svg xmlns="http://www.w3.org/2000/svg" width="32" height="32" fill="none" viewBox="0 0 32 32"><path fill="#000" d="M14.075 19.804a7.25 7.25 0 1 0-7.15 0A11.73 11.73 0 0 0 .651 24.59a.75.75 0 0 0 1.257.82 10.25 10.25 0 0 1 17.185 0 .75.75 0 0 0 1.25-.82 11.73 11.73 0 0 0-6.268-4.786M4.75 13.5a5.75 5.75 0 1 1 5.75 5.75 5.76 5.76 0 0 1-5.75-5.75m26.375 12.125a.75.75 0 0 1-1.038-.217A10.23 10.23 0 0 0 21.5 20.75a.75.75 0 1 1 0-1.5A5.75 5.75 0 1 0 19.365 8.16a.75.75 0 1 1-.557-1.393 7.25 7.25 0 0 1 6.267 13.038 11.73 11.73 0 0 1 6.274 4.786.75.75 0 0 1-.224 1.035"/></svg>