<svg xmlns="http://www.w3.org/2000/svg" width="32" height="32" fill="none" viewBox="0 0 32 32"><path fill="#000" d="m31.53 16.53-3 3a.75.75 0 0 1-1.06 0l-3-3a.752.752 0 0 1 .23-1.244.75.75 0 0 1 .83.184l1.72 1.719V16A11.25 11.25 0 0 0 6.859 9.437a.75.75 0 1 1-1.218-.875A12.75 12.75 0 0 1 28.75 16v1.189l1.72-1.719a.75.75 0 1 1 1.06 1.06m-5.174 6.907A12.75 12.75 0 0 1 3.25 16v-1.189L1.53 16.53a.75.75 0 0 1-1.06-1.06l3-3a.75.75 0 0 1 1.06 0l3 3a.75.75 0 1 1-1.06 1.06l-1.72-1.719V16a11.2 11.2 0 0 0 3.061 7.705 9.7 9.7 0 0 1 5-3.922 5.75 5.75 0 1 1 6.375 0 9.7 9.7 0 0 1 5 3.926q.512-.541.948-1.146a.748.748 0 0 1 1.363.309.75.75 0 0 1-.146.566zM16 19.25a4.25 4.25 0 1 0 0-8.5 4.25 4.25 0 0 0 0 8.5m0 8a11.28 11.28 0 0 0 7.071-2.5 8.25 8.25 0 0 0-14.141 0c2 1.621 4.496 2.504 7.07 2.5"/></svg>