<svg xmlns="http://www.w3.org/2000/svg" width="32" height="32" fill="none" viewBox="0 0 32 32"><path fill="#000" d="M31.75 17a.75.75 0 0 1-.75.75h-2.25V20a.75.75 0 1 1-1.5 0v-2.25H25a.75.75 0 1 1 0-1.5h2.25V14a.75.75 0 1 1 1.5 0v2.25H31a.75.75 0 0 1 .75.75m-7.176 7.517a.749.749 0 1 1-1.148.965c-2.563-3.05-6.09-4.732-9.926-4.732S6.14 22.43 3.574 25.482a.75.75 0 0 1-1.148-.965c1.967-2.34 4.45-3.957 7.2-4.736a8.25 8.25 0 1 1 7.75 0c2.75.779 5.232 2.395 7.198 4.736M13.5 19.25a6.75 6.75 0 1 0-6.75-6.75 6.76 6.76 0 0 0 6.75 6.75"/></svg>