<svg xmlns="http://www.w3.org/2000/svg" width="32" height="32" fill="none" viewBox="0 0 32 32"><path fill="#000" d="M18.25 10a.75.75 0 0 1 .75-.75h12a.75.75 0 0 1 0 1.5H19a.75.75 0 0 1-.75-.75M31 15.25H19a.75.75 0 1 0 0 1.5h12a.75.75 0 0 0 0-1.5m0 6h-9a.75.75 0 1 0 0 1.5h9a.75.75 0 0 0 0-1.5m-12.274 2.562a.752.752 0 0 1-1.107.834.75.75 0 0 1-.345-.459c-.811-3.15-3.87-5.437-7.274-5.437s-6.462 2.286-7.274 5.436a.75.75 0 0 1-1.452-.375c.717-2.785 2.875-5.009 5.584-6a5.75 5.75 0 1 1 6.285 0c2.706.993 4.867 3.216 5.583 6.001M10 17.25a4.25 4.25 0 1 0 0-8.5 4.25 4.25 0 0 0 0 8.5"/></svg>