<svg xmlns="http://www.w3.org/2000/svg" width="32" height="32" fill="none" viewBox="0 0 32 32"><path fill="#000" d="m31.569 14.511-5.694-6.636a1.75 1.75 0 0 0-1.343-.625H4A1.75 1.75 0 0 0 2.25 9v14A1.75 1.75 0 0 0 4 24.75h2.325a3.75 3.75 0 0 0 7.35 0h6.65a3.75 3.75 0 0 0 7.35 0H30A1.75 1.75 0 0 0 31.75 23v-8a.75.75 0 0 0-.181-.489M24.73 8.846l4.636 5.404H21.75v-5.5h2.782a.25.25 0 0 1 .2.096M12.75 14.25v-5.5h7.5v5.5zM4 8.75h7.25v5.5h-7.5V9A.25.25 0 0 1 4 8.75m6 17.5a2.25 2.25 0 1 1 0-4.5 2.25 2.25 0 0 1 0 4.5m14 0a2.25 2.25 0 1 1 0-4.5 2.25 2.25 0 0 1 0 4.5m6-3h-2.325a3.75 3.75 0 0 0-7.35 0h-6.65a3.75 3.75 0 0 0-7.35 0H4a.25.25 0 0 1-.25-.25v-7.25h26.5V23a.25.25 0 0 1-.25.25"/></svg>