<svg xmlns="http://www.w3.org/2000/svg" width="32" height="32" fill="none" viewBox="0 0 32 32"><path fill="#000" d="M20 4.25h-8A2.75 2.75 0 0 0 9.25 7v18A2.75 2.75 0 0 0 12 27.75h8A2.75 2.75 0 0 0 22.75 25V7A2.75 2.75 0 0 0 20 4.25M21.25 25A1.25 1.25 0 0 1 20 26.25h-8A1.25 1.25 0 0 1 10.75 25V7A1.25 1.25 0 0 1 12 5.75h8A1.25 1.25 0 0 1 21.25 7zm5.5-14v10a.75.75 0 1 1-1.5 0V11a.75.75 0 1 1 1.5 0m4 2v6a.75.75 0 1 1-1.5 0v-6a.75.75 0 1 1 1.5 0m-24-2v10a.75.75 0 1 1-1.5 0V11a.75.75 0 1 1 1.5 0m-4 2v6a.75.75 0 1 1-1.5 0v-6a.75.75 0 1 1 1.5 0"/></svg>