<svg xmlns="http://www.w3.org/2000/svg" width="32" height="32" fill="none" viewBox="0 0 32 32"><path fill="#000" d="m20.416 13.375-6-4A.75.75 0 0 0 13.25 10v8a.75.75 0 0 0 1.166.625l6-4a.75.75 0 0 0 0-1.25m-5.666 3.224V11.4L18.648 14zM27 5.25H5A1.75 1.75 0 0 0 3.25 7v14A1.75 1.75 0 0 0 5 22.75h22A1.75 1.75 0 0 0 28.75 21V7A1.75 1.75 0 0 0 27 5.25M27.25 21a.25.25 0 0 1-.25.25H5a.25.25 0 0 1-.25-.25V7A.25.25 0 0 1 5 6.75h22a.25.25 0 0 1 .25.25zm1.5 5a.75.75 0 0 1-.75.75H4a.75.75 0 1 1 0-1.5h24a.75.75 0 0 1 .75.75"/></svg>