<svg xmlns="http://www.w3.org/2000/svg" width="32" height="32" fill="none" viewBox="0 0 32 32"><path fill="#000" d="M31.354 9.339a.75.75 0 0 0-.77.037L25.75 12.6V9A1.75 1.75 0 0 0 24 7.25h-9.867a.75.75 0 1 0 0 1.5H24a.25.25 0 0 1 .25.25v10.954a.75.75 0 0 0 1.5 0V19.4l4.834 3.224A.75.75 0 0 0 31.75 22V10a.75.75 0 0 0-.396-.661m-1.104 11.26-4.5-3V14.4l4.5-3zM6.555 4.5a.75.75 0 0 0-1.11 1l1.586 1.75H4A1.75 1.75 0 0 0 2.25 9v14A1.75 1.75 0 0 0 4 24.75h18.941l2.5 2.75a.75.75 0 0 0 1.11-1.01zM4 23.25a.25.25 0 0 1-.25-.25V9A.25.25 0 0 1 4 8.75h4.395l13.183 14.5z"/></svg>