<svg xmlns="http://www.w3.org/2000/svg" width="32" height="32" fill="none" viewBox="0 0 32 32"><path fill="#000" d="M27 5.25H5A1.75 1.75 0 0 0 3.25 7v18A1.75 1.75 0 0 0 5 26.75h22A1.75 1.75 0 0 0 28.75 25V7A1.75 1.75 0 0 0 27 5.25M27.25 25a.25.25 0 0 1-.25.25H5a.25.25 0 0 1-.25-.25V7A.25.25 0 0 1 5 6.75h22a.25.25 0 0 1 .25.25zM16 9.25c-4.825 0-8.75 3.028-8.75 6.75s3.925 6.75 8.75 6.75 8.75-3.027 8.75-6.75S20.825 9.25 16 9.25m0 12c-4 0-7.25-2.355-7.25-5.25S12 10.75 16 10.75s7.25 2.355 7.25 5.25S20 21.25 16 21.25"/></svg>