<svg xmlns="http://www.w3.org/2000/svg" width="32" height="32" fill="none" viewBox="0 0 32 32"><path fill="#000" d="M16 3.25A12.75 12.75 0 1 0 28.75 16 12.765 12.765 0 0 0 16 3.25m0 24A11.25 11.25 0 1 1 27.25 16 11.26 11.26 0 0 1 16 27.25m0-18.5A7.26 7.26 0 0 0 8.75 16a.75.75 0 1 1-1.5 0A8.76 8.76 0 0 1 16 7.25a.75.75 0 1 1 0 1.5M24.75 16A8.76 8.76 0 0 1 16 24.75a.75.75 0 1 1 0-1.5A7.26 7.26 0 0 0 23.25 16a.75.75 0 1 1 1.5 0m-5 0a3.75 3.75 0 1 0-7.5 0 3.75 3.75 0 0 0 7.5 0m-6 0a2.25 2.25 0 1 1 4.5 0 2.25 2.25 0 0 1-4.5 0"/></svg>