<svg xmlns="http://www.w3.org/2000/svg" width="32" height="32" fill="none" viewBox="0 0 32 32"><path fill="#000" d="m15.195 12.283-3.25 8a.75.75 0 0 1-1.39 0l-3.25-8a.75.75 0 0 1 1.39-.566l2.555 6.29 2.555-6.29a.75.75 0 0 1 1.39.566M31.75 16A9.76 9.76 0 0 1 22 25.75H10a9.75 9.75 0 1 1 0-19.5h12A9.76 9.76 0 0 1 31.75 16m-1.5 0A8.26 8.26 0 0 0 22 7.75H10a8.25 8.25 0 1 0 0 16.5h12A8.26 8.26 0 0 0 30.25 16m-7.975 1.22 1.375 2.408a.751.751 0 1 1-1.302.75l-1.51-2.64a3 3 0 0 1-.338.012h-1.75V20a.75.75 0 1 1-1.5 0v-8a.75.75 0 0 1 .75-.75h2.5a3.25 3.25 0 0 1 1.775 5.97m-3.525-.97h1.75a1.75 1.75 0 0 0 0-3.5h-1.75z"/></svg>