<svg xmlns="http://www.w3.org/2000/svg" width="32" height="32" fill="none" viewBox="0 0 32 32"><path fill="#000" d="M16 3.25A12.75 12.75 0 1 0 28.75 16 12.765 12.765 0 0 0 16 3.25m10.421 16.986a11.25 11.25 0 0 1-12.231.398l2.243-3.884h10.792a11.2 11.2 0 0 1-.804 3.486M11.038 5.905c1.076-.53 2.23-.885 3.418-1.049a11.25 11.25 0 0 1 6.462 10.394h-4.485zm16.187 9.345h-4.808a12.77 12.77 0 0 0-5.105-10.422 11.27 11.27 0 0 1 9.913 10.422M9.74 6.657l2.401 4.16a12.77 12.77 0 0 0-6.473 9.632A11.24 11.24 0 0 1 9.74 6.657M7.125 22.9a11.25 11.25 0 0 1 5.771-10.783L15.134 16 9.74 25.343a11.3 11.3 0 0 1-2.615-2.444M16 27.25a11.2 11.2 0 0 1-4.962-1.155l2.402-4.161a12.77 12.77 0 0 0 11.573.792A11.24 11.24 0 0 1 16 27.25"/></svg>