<svg xmlns="http://www.w3.org/2000/svg" width="32" height="32" fill="none" viewBox="0 0 32 32"><path fill="#000" d="M15.25 17v-7a.75.75 0 1 1 1.5 0v7a.75.75 0 1 1-1.5 0m13.5-5.556v9.112a1.74 1.74 0 0 1-.512 1.238l-6.444 6.444a1.74 1.74 0 0 1-1.238.512h-9.112a1.74 1.74 0 0 1-1.238-.512l-6.443-6.444a1.74 1.74 0 0 1-.513-1.238v-9.112a1.74 1.74 0 0 1 .513-1.238l6.443-6.443a1.74 1.74 0 0 1 1.238-.513h9.112a1.74 1.74 0 0 1 1.238.513l6.444 6.443a1.74 1.74 0 0 1 .512 1.238m-1.5 0a.25.25 0 0 0-.074-.178l-6.442-6.442a.25.25 0 0 0-.178-.074h-9.112a.25.25 0 0 0-.177.074l-6.444 6.442a.25.25 0 0 0-.073.178v9.112a.25.25 0 0 0 .074.178l6.442 6.442a.25.25 0 0 0 .178.074h9.112a.25.25 0 0 0 .177-.074l6.444-6.442a.25.25 0 0 0 .073-.178zM16 20.25a1.25 1.25 0 1 0 0 2.5 1.25 1.25 0 0 0 0-2.5"/></svg>