<svg xmlns="http://www.w3.org/2000/svg" width="32" height="32" fill="none" viewBox="0 0 32 32"><path fill="#000" d="M15.25 17v-7a.75.75 0 1 1 1.5 0v7a.75.75 0 0 1-1.5 0m.75 3.25a1.25 1.25 0 1 0 0 2.501 1.25 1.25 0 0 0 0-2.501M29.75 16a1.73 1.73 0 0 1-.511 1.233l-12 12.007a1.75 1.75 0 0 1-2.465 0l-12-12.007a1.74 1.74 0 0 1 0-2.466L14.78 2.76a1.75 1.75 0 0 1 2.465 0l12 12.008A1.73 1.73 0 0 1 29.75 16m-1.5 0a.24.24 0 0 0-.071-.172L16.173 3.82a.25.25 0 0 0-.345 0L3.82 15.828a.25.25 0 0 0 0 .345L15.828 28.18a.25.25 0 0 0 .345 0l12.006-12.007A.24.24 0 0 0 28.25 16"/></svg>