<svg xmlns="http://www.w3.org/2000/svg" width="32" height="32" fill="none" viewBox="0 0 32 32"><path fill="#000" d="M25.75 16a9.74 9.74 0 0 0-4.066-7.914l-.797-4.398a1.75 1.75 0 0 0-1.722-1.438h-6.33a1.75 1.75 0 0 0-1.723 1.438l-.796 4.398a9.733 9.733 0 0 0 0 15.828l.796 4.398a1.75 1.75 0 0 0 1.723 1.438h6.33a1.75 1.75 0 0 0 1.722-1.437l.797-4.4A9.74 9.74 0 0 0 25.75 16M12.589 3.955a.25.25 0 0 1 .25-.205h6.33a.25.25 0 0 1 .25.205l.57 3.149a9.7 9.7 0 0 0-7.963 0zm6.822 24.09a.25.25 0 0 1-.25.205h-6.326a.25.25 0 0 1-.25-.205l-.57-3.149a9.7 9.7 0 0 0 7.962 0zM16 24.25A8.25 8.25 0 1 1 24.25 16 8.26 8.26 0 0 1 16 24.25M21.75 16a.75.75 0 0 1-.75.75h-5a.75.75 0 0 1-.75-.75v-5a.75.75 0 0 1 1.5 0v4.25H21a.75.75 0 0 1 .75.75"/></svg>