<svg xmlns="http://www.w3.org/2000/svg" width="32" height="32" fill="none" viewBox="0 0 32 32"><path fill="#000" d="M4.467 9.526a.75.75 0 0 1 0-1.056C4.56 8.375 6.737 6.25 11 6.25c2.226 0 3.849 1.081 5.416 2.125 1.445.964 2.811 1.875 4.584 1.875 1.885 0 3.271-.484 4.102-.89.5-.23.962-.531 1.375-.894a.75.75 0 0 1 1.058 1.064c-.095.095-2.273 2.22-6.535 2.22-2.227 0-3.849-1.081-5.416-2.125C14.139 8.66 12.773 7.75 11 7.75c-1.885 0-3.271.484-4.103.89-.498.23-.961.531-1.375.894a.75.75 0 0 1-1.055-.008m22 5.94a5.7 5.7 0 0 1-1.374.894c-.822.406-2.208.89-4.093.89-1.773 0-3.139-.91-4.584-1.875C14.85 14.33 13.226 13.25 11 13.25c-4.263 0-6.44 2.125-6.531 2.22a.75.75 0 0 0 1.057 1.064 5.7 5.7 0 0 1 1.375-.894c.828-.406 2.214-.89 4.099-.89 1.773 0 3.139.91 4.584 1.875C17.15 17.67 18.773 18.75 21 18.75c4.262 0 6.44-2.125 6.531-2.22a.75.75 0 0 0-1.057-1.064zm0 7a5.7 5.7 0 0 1-1.374.894c-.822.406-2.208.89-4.093.89-1.773 0-3.139-.91-4.584-1.875C14.85 21.33 13.226 20.25 11 20.25c-4.263 0-6.44 2.125-6.531 2.22a.75.75 0 0 0 1.057 1.064 5.7 5.7 0 0 1 1.375-.894c.828-.406 2.214-.89 4.099-.89 1.773 0 3.139.91 4.584 1.875C17.15 24.67 18.773 25.75 21 25.75c4.262 0 6.44-2.125 6.531-2.22a.75.75 0 0 0-1.057-1.064z"/></svg>