<svg xmlns="http://www.w3.org/2000/svg" width="32" height="32" fill="none" viewBox="0 0 32 32"><path fill="#000" d="m26.555 26.5-20-22a.75.75 0 0 0-1.11 1l2.219 2.445A9.75 9.75 0 0 0 15.25 22.72v2.531H4a.75.75 0 1 0 0 1.5h20.759l.686.75a.75.75 0 1 0 1.11-1.01zM15.096 16.125a3.26 3.26 0 0 1-2.289-2.519zM7.75 13a8.2 8.2 0 0 1 .973-3.89l2.633 2.898a4.75 4.75 0 0 0 5.192 5.71l2.632 2.896A8.25 8.25 0 0 1 7.75 13m9 12.25v-2.53a9.8 9.8 0 0 0 3.491-.939l3.154 3.47zM10.908 5.54a.75.75 0 0 1 .282-1.022 9.75 9.75 0 0 1 12.796 14.076.75.75 0 0 1-1.055.199.75.75 0 0 1-.172-1.06A8.25 8.25 0 0 0 11.93 5.82a.75.75 0 0 1-1.022-.28m8.183 8.466a3.25 3.25 0 0 0-3.8-4.178.75.75 0 0 1-.325-1.465 4.75 4.75 0 0 1 5.551 6.107.75.75 0 0 1-1.426-.464"/></svg>