<svg xmlns="http://www.w3.org/2000/svg" width="32" height="32" fill="none" viewBox="0 0 32 32"><path fill="#000" d="M22.421 22.75H13.7a5.75 5.75 0 1 1-10.3-4.201.75.75 0 1 1 1.2.901A4.25 4.25 0 1 0 12.25 22a.75.75 0 0 1 .75-.75h9.421a1.75 1.75 0 1 1 0 1.5M8 23.75a1.75 1.75 0 0 0 1.466-2.703l4.553-7.397a.75.75 0 0 0-.25-1.031 4.25 4.25 0 1 1 6.125-5.321.75.75 0 1 0 1.375-.6 5.75 5.75 0 1 0-8.894 6.765L8.19 20.26A1.75 1.75 0 1 0 8 23.75m16-7.5c-.81 0-1.61.17-2.35.5l-4.184-6.799a1.75 1.75 0 1 0-1.276.788l4.55 7.396a.75.75 0 0 0 1.033.245A4.25 4.25 0 1 1 24 26.25a.75.75 0 1 0 0 1.5 5.75 5.75 0 0 0 0-11.5"/></svg>