<svg xmlns="http://www.w3.org/2000/svg" width="32" height="32" fill="none" viewBox="0 0 32 32"><path fill="#000" d="m23.335 18.329-4-2a.75.75 0 0 0-.75.047l-1.96 1.306a5.3 5.3 0 0 1-2.307-2.307l1.307-1.959a.75.75 0 0 0 .047-.75l-2-4A.75.75 0 0 0 13 8.25 4.75 4.75 0 0 0 8.25 13 10.763 10.763 0 0 0 19 23.75 4.75 4.75 0 0 0 23.75 19a.75.75 0 0 0-.415-.671M19 22.25A9.26 9.26 0 0 1 9.75 13a3.25 3.25 0 0 1 2.803-3.219l1.582 3.165-1.299 1.948a.75.75 0 0 0-.067.704 6.8 6.8 0 0 0 3.633 3.633.75.75 0 0 0 .704-.067l1.948-1.299 3.165 1.583A3.25 3.25 0 0 1 19 22.25m-3-19A12.75 12.75 0 0 0 4.794 22.086L3.34 26.445a1.75 1.75 0 0 0 2.214 2.214l4.359-1.453a12.748 12.748 0 0 0 18.438-8.066A12.75 12.75 0 0 0 16 3.25m0 24c-1.978 0-3.92-.52-5.632-1.51a.76.76 0 0 0-.613-.062l-4.674 1.557a.25.25 0 0 1-.316-.316l1.557-4.669a.75.75 0 0 0-.062-.614A11.25 11.25 0 1 1 16 27.25"/></svg>