<svg xmlns="http://www.w3.org/2000/svg" width="32" height="32" fill="none" viewBox="0 0 32 32"><path fill="#000" d="M31.711 23.763a.75.75 0 0 0-.948-.474l-2.388.793-3.71-7.417A.75.75 0 0 0 24 16.25H13.75v-3.494H21a.75.75 0 1 0 0-1.5h-7.25V9.675a3.75 3.75 0 1 0-1.5 0v1.75A8.75 8.75 0 0 0 14 28.75c4.078 0 7.75-2.76 8.726-6.562a.75.75 0 0 0-1.452-.375c-.812 3.15-3.875 5.437-7.274 5.437a7.25 7.25 0 0 1-1.75-14.285V17a.75.75 0 0 0 .75.75h10.536l3.793 7.585a.75.75 0 0 0 .909.375l3-1a.75.75 0 0 0 .473-.948M10.75 6a2.25 2.25 0 1 1 4.5 0 2.25 2.25 0 0 1-4.5 0"/></svg>