<svg xmlns="http://www.w3.org/2000/svg" width="32" height="32" fill="none" viewBox="0 0 32 32"><path fill="#000" d="M22 9.75a3.75 3.75 0 1 0 0-7.5 3.75 3.75 0 0 0 0 7.5m0-6a2.25 2.25 0 1 1 0 4.5 2.25 2.25 0 0 1 0-4.5M20.75 21A7.75 7.75 0 1 1 13 13.25a.75.75 0 0 1 0 1.5A6.25 6.25 0 1 0 19.25 21a.75.75 0 1 1 1.5 0m4.83-4.475a.75.75 0 0 1 .155.625l-2 10a.75.75 0 0 1-1.471-.297l1.82-9.103H16a.75.75 0 0 1-.65-1.125l2.634-4.585a10.26 10.26 0 0 0-11.507 1.051.75.75 0 1 1-.955-1.156 11.75 11.75 0 0 1 13.888-.785.75.75 0 0 1 .24 1l-2.354 4.1H25a.75.75 0 0 1 .58.275"/></svg>