<svg xmlns="http://www.w3.org/2000/svg" width="32" height="32" fill="none" viewBox="0 0 32 32"><path fill="#000" d="M17.25 25.5a1.25 1.25 0 1 1-2.5 0 1.25 1.25 0 0 1 2.5 0m12.226-14.431a21.25 21.25 0 0 0-26.952 0 .75.75 0 1 0 .952 1.158 19.75 19.75 0 0 1 25.048 0 .748.748 0 0 0 1.196-.36.75.75 0 0 0-.244-.798m-4.01 4.474a15.25 15.25 0 0 0-18.932 0 .75.75 0 0 0 .932 1.176 13.75 13.75 0 0 1 17.068 0 .75.75 0 0 0 .466.156.75.75 0 0 0 .466-1.338zm-4.025 4.476a9.25 9.25 0 0 0-10.882 0 .75.75 0 0 0 .882 1.212 7.75 7.75 0 0 1 9.118 0 .75.75 0 0 0 .882-1.212"/></svg>