<svg xmlns="http://www.w3.org/2000/svg" width="32" height="32" fill="none" viewBox="0 0 32 32"><path fill="#000" d="M17.25 25.5a1.25 1.25 0 1 1-2.5 0 1.25 1.25 0 0 1 2.5 0M6.555 4.5a.75.75 0 0 0-1.11 1l2.221 2.448a21.2 21.2 0 0 0-5.142 3.125.75.75 0 1 0 .952 1.158A19.7 19.7 0 0 1 8.74 9.125l3.31 3.641a15.3 15.3 0 0 0-5.515 2.774.75.75 0 0 0 .932 1.176 13.75 13.75 0 0 1 5.734-2.683l3.891 4.28a9 9 0 0 0-1.09-.063 9.18 9.18 0 0 0-5.442 1.769.75.75 0 0 0 .882 1.212 7.75 7.75 0 0 1 7.47-.913l6.534 7.182a.75.75 0 1 0 1.11-1.01zm22.921 6.569A21.3 21.3 0 0 0 13.28 6.423a.75.75 0 1 0 .19 1.487q1.26-.16 2.53-.16a19.78 19.78 0 0 1 12.524 4.478.75.75 0 1 0 .952-1.16m-4.942 5.65a.75.75 0 0 0 .466.156.75.75 0 0 0 .466-1.337 15.3 15.3 0 0 0-6.362-2.977.75.75 0 1 0-.304 1.47 13.75 13.75 0 0 1 5.734 2.688"/></svg>