<svg xmlns="http://www.w3.org/2000/svg" width="32" height="32" fill="none" viewBox="0 0 32 32"><path fill="#000" d="M17.25 25.5a1.25 1.25 0 1 1-2.5 0 1.25 1.25 0 0 1 2.5 0M26.06 10l2.47-2.47a.75.75 0 0 0-1.06-1.06L25 8.94l-2.47-2.47a.75.75 0 0 0-1.06 1.06L23.94 10l-2.47 2.47a.75.75 0 1 0 1.06 1.06L25 11.06l2.47 2.47a.75.75 0 0 0 1.06-1.06zm-4.619 10.019a9.25 9.25 0 0 0-10.882 0 .75.75 0 0 0 .882 1.212 7.75 7.75 0 0 1 9.118 0 .75.75 0 0 0 .882-1.212M17.928 7.843a.75.75 0 1 0 .145-1.493 21.29 21.29 0 0 0-15.549 4.719.749.749 0 0 0 .402 1.328.75.75 0 0 0 .55-.17 19.78 19.78 0 0 1 14.452-4.384m-.03 6.037a.75.75 0 1 0 .205-1.486A15.5 15.5 0 0 0 16 12.25a15.1 15.1 0 0 0-9.466 3.293.75.75 0 0 0 .932 1.176A13.6 13.6 0 0 1 16 13.75q.954-.003 1.898.125z"/></svg>