<svg xmlns="http://www.w3.org/2000/svg" width="32" height="32" fill="none" viewBox="0 0 32 32"><path fill="#000" d="M27 17.25H17a.75.75 0 0 0-.75.75v7.181a.75.75 0 0 0 .616.74l10 1.817A.75.75 0 0 0 27.75 27v-9a.75.75 0 0 0-.75-.75m-.75 8.851-8.5-1.545V18.75h8.5zM13 17.251H5a.75.75 0 0 0-.75.75v5a.75.75 0 0 0 .616.737l8 1.455a.75.75 0 0 0 .884-.737V18a.75.75 0 0 0-.75-.75m-.75 6.305-6.5-1.18V18.75h6.5zM27.48 4.424a.75.75 0 0 0-.614-.161l-10 1.817a.75.75 0 0 0-.616.739V14a.75.75 0 0 0 .75.75h10a.75.75 0 0 0 .75-.75V5a.75.75 0 0 0-.27-.576m-1.23 8.826h-8.5V7.444l8.5-1.545zM13.48 6.97a.75.75 0 0 0-.614-.162l-8 1.455A.75.75 0 0 0 4.25 9v5a.75.75 0 0 0 .75.75h8a.75.75 0 0 0 .75-.75V7.545a.75.75 0 0 0-.27-.575m-1.23 6.28h-6.5V9.625l6.5-1.182z"/></svg>