<svg xmlns="http://www.w3.org/2000/svg" width="32" height="32" fill="none" viewBox="0 0 32 32"><path fill="#000" d="M22.75 23A3.75 3.75 0 0 1 19 26.75c-1.613 0-3.17-1.047-3.704-2.49a.75.75 0 1 1 1.408-.52c.312.846 1.321 1.51 2.296 1.51a2.25 2.25 0 0 0 0-4.5H5a.75.75 0 1 1 0-1.5h14A3.75 3.75 0 0 1 22.75 23m-4-14A3.75 3.75 0 0 0 15 5.25c-1.613 0-3.17 1.048-3.704 2.49a.75.75 0 1 0 1.408.52c.312-.846 1.321-1.51 2.296-1.51a2.25 2.25 0 0 1 0 4.5H3a.75.75 0 1 0 0 1.5h12A3.75 3.75 0 0 0 18.75 9m7.25.25c-1.613 0-3.17 1.047-3.704 2.49a.752.752 0 0 0 1.408.52c.312-.846 1.321-1.51 2.296-1.51a2.25 2.25 0 0 1 0 4.5H4a.75.75 0 1 0 0 1.5h22a3.75 3.75 0 0 0 0-7.5"/></svg>