<svg xmlns="http://www.w3.org/2000/svg" width="32" height="32" fill="none" viewBox="0 0 32 32"><path fill="#000" d="m25.426 12.029-2.721-9.241a.75.75 0 0 0-.719-.538H10.014a.75.75 0 0 0-.72.538l-2.72 9.24a7.69 7.69 0 0 0 2.108 7.832 10.67 10.67 0 0 0 6.568 2.861v5.529H11a.75.75 0 0 0 0 1.5h10a.75.75 0 1 0 0-1.5h-4.25v-5.529a10.67 10.67 0 0 0 6.567-2.861 7.69 7.69 0 0 0 2.11-7.831M10.575 3.75h10.85l2.564 8.704q.048.168.088.337c-2.817 1.134-6.02-.091-7.738-.96-3.327-1.685-5.904-1.788-7.735-1.391zm11.719 15.014a9.21 9.21 0 0 1-12.588 0 6.19 6.19 0 0 1-1.695-6.31l.093-.314c1.542-.558 4.032-.756 7.557 1.029 1.375.694 3.581 1.58 5.94 1.58.9.006 1.795-.137 2.649-.421a6.15 6.15 0 0 1-1.956 4.436"/></svg>