<svg xmlns="http://www.w3.org/2000/svg" width="32" height="32" fill="none" viewBox="0 0 32 32"><path fill="#000" d="M28.114 8.719a.75.75 0 0 0-1.204-.27l-5.134 4.737-2.439-.524-.523-2.438L23.55 5.09a.75.75 0 0 0-.27-1.204A8.75 8.75 0 0 0 12.06 15.685L4.386 22.31q-.02.017-.04.037a3.752 3.752 0 0 0 5.304 5.307l.037-.04 6.625-7.674a8.75 8.75 0 0 0 11.8-11.221zM20 19.249a7.25 7.25 0 0 1-3.5-.902.75.75 0 0 0-.931.167L8.57 26.61a2.25 2.25 0 0 1-3.181-3.181l8.095-6.993a.75.75 0 0 0 .165-.936 7.25 7.25 0 0 1 8-10.566L17.447 9.49a.75.75 0 0 0-.18.666l.705 3.294a.75.75 0 0 0 .577.576l3.293.707a.75.75 0 0 0 .667-.182l4.552-4.202A7.258 7.258 0 0 1 20 19.25"/></svg>