<svg xmlns="http://www.w3.org/2000/svg" width="32" height="32" fill="none" viewBox="0 0 32 32"><path fill="#000" d="M16 3.25A12.75 12.75 0 1 0 28.75 16 12.765 12.765 0 0 0 16 3.25M4.75 16A11.263 11.263 0 0 1 16 4.75a5.25 5.25 0 0 1 0 10.5 6.75 6.75 0 0 0-5.61 10.5A11.26 11.26 0 0 1 4.75 16M16 27.25a5.25 5.25 0 1 1 0-10.5 6.75 6.75 0 0 0 5.61-10.5 11.25 11.25 0 0 1-5.61 21M14.75 10a1.25 1.25 0 1 1 2.5 0 1.25 1.25 0 0 1-2.5 0"/><path fill="#000" d="M17.25 22a1.25 1.25 0 1 1-2.5 0 1.25 1.25 0 0 1 2.5 0"/></svg>