<svg xmlns="http://www.w3.org/2000/svg" width="32" height="32" fill="none" viewBox="0 0 32 32"><path fill="#000" d="m20.416 15.375-6-4A.75.75 0 0 0 13.25 12v8a.75.75 0 0 0 1.166.625l6-4a.75.75 0 0 0 0-1.25m-5.666 3.224V13.4L18.648 16zm14.3-9.849a2.75 2.75 0 0 0-1.66-1.875C23.125 5.224 16.284 5.25 16 5.25S8.875 5.224 4.605 6.875A2.75 2.75 0 0 0 2.95 8.75c-.319 1.236-.7 3.5-.7 7.25s.381 6.014.7 7.25a2.75 2.75 0 0 0 1.66 1.875C8.875 26.776 15.715 26.75 16 26.75h.089c.864 0 7.25-.055 11.306-1.625a2.75 2.75 0 0 0 1.66-1.875c.319-1.234.7-3.491.7-7.25s-.38-6.014-.705-7.25m-1.453 14.125a1.25 1.25 0 0 1-.75.858c-4 1.54-10.774 1.517-10.847 1.517-.072 0-6.839.025-10.844-1.521a1.25 1.25 0 0 1-.75-.858C4.105 21.723 3.75 19.598 3.75 16c0-3.597.355-5.722.652-6.875a1.25 1.25 0 0 1 .75-.857C9.009 6.783 15.442 6.75 15.97 6.75H16c.067 0 6.839-.025 10.844 1.521a1.25 1.25 0 0 1 .75.858c.297 1.149.652 3.274.652 6.875s-.351 5.718-.648 6.871"/></svg>