<svg xmlns="http://www.w3.org/2000/svg" width="32" height="32" fill="none" viewBox="0 0 32 32"><path fill="#000" d="M28.639 7.853A2 2 0 0 0 27 7H17V3h2a1 1 0 1 0 0-2h-6a1 1 0 0 0 0 2h2v4H5a2 2 0 0 0-1.875 2.684l3.274 9A2 2 0 0 0 8.274 20h15.454a2 2 0 0 0 1.874-1.316l3.274-9a2 2 0 0 0-.237-1.831m-15.824 10.13a1 1 0 0 1-1.162-.805l-1.278-7a1.002 1.002 0 0 1 1.825-.72 1 1 0 0 1 .144.363l1.272 7a1 1 0 0 1-.801 1.163m8.81-7.804-1.274 7a1 1 0 1 1-1.967-.358l1.272-7a1 1 0 1 1 1.969.358M20 22.5V28a1 1 0 0 1-1 1h-6a1 1 0 0 1-1-1v-5.5a.5.5 0 0 1 .5-.5h7a.5.5 0 0 1 .5.5"/></svg>