<svg xmlns="http://www.w3.org/2000/svg" width="32" height="32" fill="none" viewBox="0 0 32 32"><path fill="#000" d="M26.94 24.658a1 1 0 0 1-.233 1.048l-3 3A1 1 0 0 1 23 29a1 1 0 0 1-.099 0 1 1 0 0 1-.733-.44l-5.51-8.265L14 22.949V26a1 1 0 0 1-.293.706s-1.75 1.758-1.985 1.985a1 1 0 0 1-1.649-.309l-.007-.018-1.837-4.595-4.604-1.841a1 1 0 0 1-.336-1.636l2-2A1 1 0 0 1 6 18h3.05l2.659-2.659-8.264-5.51a1 1 0 0 1-.153-1.54l3-3a1 1 0 0 1 1.05-.232l10.742 3.906 3.941-3.941a3.5 3.5 0 0 1 4.95 4.95l-3.941 3.941z"/></svg>