<svg xmlns="http://www.w3.org/2000/svg" width="32" height="32" fill="none" viewBox="0 0 32 32"><path fill="#000" d="M13.708 18.293a1 1 0 0 1 0 1.415L10.414 23l2.294 2.293A1 1 0 0 1 12 27H6a1 1 0 0 1-1-1v-6a1 1 0 0 1 1.707-.707L9 21.586l3.293-3.293a1 1 0 0 1 1.415 0M10.414 9l2.294-2.293A1 1 0 0 0 12 5H6a1 1 0 0 0-1 1v6a1 1 0 0 0 1.707.707L9 10.415l3.293 3.294a1 1 0 1 0 1.415-1.415zM26 5h-6a1 1 0 0 0-.707 1.707L21.586 9l-3.293 3.293a1 1 0 1 0 1.415 1.415L23 10.414l2.293 2.294A1 1 0 0 0 27 12V6a1 1 0 0 0-1-1m.383 14.076a1 1 0 0 0-1.09.216L23 21.587l-3.293-3.293a1 1 0 1 0-1.415 1.415L21.587 23l-2.293 2.293A1 1 0 0 0 20 27h6a1 1 0 0 0 1-1v-6a1 1 0 0 0-.617-.924"/></svg>