<svg xmlns="http://www.w3.org/2000/svg" width="32" height="32" fill="none" viewBox="0 0 32 32"><path fill="#000" d="M25.002 8v16a2 2 0 0 1-2 2h-2a2 2 0 0 1-2-2v-7h-6v7a2 2 0 0 1-2 2h-2a2 2 0 0 1-2-2V8a2 2 0 0 1 2-2h2a2 2 0 0 1 2 2v7h6V8a2 2 0 0 1 2-2h2a2 2 0 0 1 2 2m-20.5 1h-.5a2 2 0 0 0-2 2v4h-.966a1.023 1.023 0 0 0-1.034.934 1 1 0 0 0 1 1.066h1v4a2 2 0 0 0 2 2h.5a.5.5 0 0 0 .5-.5v-13a.5.5 0 0 0-.5-.5m27.5 6.934A1.02 1.02 0 0 0 30.971 15h-.969v-4a2 2 0 0 0-2-2h-.5a.5.5 0 0 0-.5.5v13a.5.5 0 0 0 .5.5h.5a2 2 0 0 0 2-2v-4h1a1 1 0 0 0 1-1.066"/></svg>