<svg xmlns="http://www.w3.org/2000/svg" width="32" height="32" fill="none" viewBox="0 0 32 32"><path fill="#000" d="M26.169 7.91a.5.5 0 0 0-.725-.059q-.636.58-1.175 1.25a1.025 1.025 0 0 1-1.375.226 1 1 0 0 1-.208-1.452q.595-.743 1.291-1.392a.5.5 0 0 0-.027-.762 12.974 12.974 0 0 0-15.9 0 .5.5 0 0 0-.028.761q.685.639 1.272 1.367a1.02 1.02 0 0 1-.044 1.348 1 1 0 0 1-1.5-.072A11 11 0 0 0 6.551 7.85a.5.5 0 0 0-.724.06 12.974 12.974 0 0 0 0 16.18.5.5 0 0 0 .725.059q.637-.58 1.175-1.25a1.025 1.025 0 0 1 1.375-.227 1 1 0 0 1 .212 1.453q-.595.743-1.292 1.392a.5.5 0 0 0 .028.762 12.974 12.974 0 0 0 15.9 0 .5.5 0 0 0 .027-.762 13 13 0 0 1-1.29-1.392 1 1 0 0 1 .212-1.449 1.025 1.025 0 0 1 1.375.227q.539.67 1.175 1.25a.5.5 0 0 0 .725-.06 12.974 12.974 0 0 0 0-16.18zm-15.955 3.127a1.02 1.02 0 0 1 1.223.662q.358 1.025.543 2.096A1 1 0 0 1 11 15a1 1 0 0 1-1-.919c-.048-.555-.139-1.114-.4-1.605a1 1 0 0 1 .614-1.439M11.98 18.2a13 13 0 0 1-.554 2.135 1 1 0 0 1-1.396.557 1.02 1.02 0 0 1-.478-1.26q.308-.878.462-1.796a1 1 0 0 1 1.272-.794 1.02 1.02 0 0 1 .694 1.158m9.99 2.692a1 1 0 0 1-1.396-.557 13 13 0 0 1-.554-2.135 1.02 1.02 0 0 1 .694-1.158 1.002 1.002 0 0 1 1.272.794c.103.61.257 1.212.462 1.796a1.024 1.024 0 0 1-.478 1.26m.426-8.415c-.261.491-.352 1.05-.4 1.605a1 1 0 0 1-1.271.875 1.02 1.02 0 0 1-.706-1.156q.183-1.073.544-2.1a1.02 1.02 0 0 1 1.223-.662 1 1 0 0 1 .61 1.438"/></svg>