<svg xmlns="http://www.w3.org/2000/svg" width="32" height="32" fill="none" viewBox="0 0 32 32"><path fill="#000" d="M7.95 5.799a12.94 12.94 0 0 1 6.5-2.707.5.5 0 0 1 .556.5V15h-3.043a12.97 12.97 0 0 0-4.04-8.445.5.5 0 0 1 .027-.756m-2.2 2.21a12.94 12.94 0 0 0-2.661 6.432.5.5 0 0 0 .5.559h6.365a10.98 10.98 0 0 0-3.468-7.051.5.5 0 0 0-.736.06m18.3-2.21a12.94 12.94 0 0 0-6.5-2.707.5.5 0 0 0-.556.5V15h3.037a12.97 12.97 0 0 1 4.04-8.445.5.5 0 0 0-.021-.756m4.857 8.642A12.94 12.94 0 0 0 26.25 8.01a.5.5 0 0 0-.733-.06A10.98 10.98 0 0 0 22.048 15h6.363a.502.502 0 0 0 .497-.559M3.093 17.56A12.94 12.94 0 0 0 5.75 23.99a.5.5 0 0 0 .733.06A10.98 10.98 0 0 0 9.953 17H3.59a.5.5 0 0 0-.497.559M26.25 23.99a12.94 12.94 0 0 0 2.661-6.432.5.5 0 0 0-.5-.559h-6.365a10.98 10.98 0 0 0 3.468 7.051.5.5 0 0 0 .736-.06m-18.3 2.21a12.94 12.94 0 0 0 6.5 2.706.502.502 0 0 0 .556-.5V17h-3.043a12.97 12.97 0 0 1-4.04 8.445.5.5 0 0 0 .027.756M20.038 17H17v11.41a.5.5 0 0 0 .556.5 12.94 12.94 0 0 0 6.5-2.706.5.5 0 0 0 .028-.756A12.97 12.97 0 0 1 20.038 17"/></svg>