<svg xmlns="http://www.w3.org/2000/svg" width="32" height="32" fill="none" viewBox="0 0 32 32"><path fill="#000" d="m6.814 20.589 3.484-4.776a6 6 0 1 1-1.615-1.18L5.199 19.41a1.001 1.001 0 1 0 1.615 1.178M26.007 14c-.724 0-1.44.13-2.117.386l2.98 5.114a1 1 0 1 1-1.727 1l-2.979-5.107A6 6 0 1 0 26.006 14m-5.26-5h3.26a1 1 0 0 1 1 1 1 1 0 1 0 2 0 3 3 0 0 0-3-3h-5a1 1 0 0 0-.864 1.5l1.456 2.5h-7.185L10.37 7.5a1 1 0 0 0-.864-.5h-3.5a1 1 0 0 0 0 2h2.927l1.713 2.939-1.963 2.694c.6.3 1.146.698 1.615 1.18l1.448-1.988 3.897 6.675a1.001 1.001 0 0 0 1.879-.624 1 1 0 0 0-.152-.376L13.58 13h7.185l1.399 2.396a6 6 0 0 1 1.726-1.01z"/></svg>