<svg xmlns="http://www.w3.org/2000/svg" width="32" height="32" fill="none" viewBox="0 0 32 32"><path fill="#000" d="M29.652 18.988v-.013l-.008-.027a6 6 0 0 0-.29-.663L24.16 6.475a1 1 0 0 0-.21-.305 4 4 0 0 0-5.657 0 1 1 0 0 0-.292.705V10h-4V6.875a1 1 0 0 0-.293-.707 4 4 0 0 0-5.657 0 1 1 0 0 0-.209.305L2.65 18.285a6 6 0 0 0-.298.689v.014a6 6 0 0 0 11.29 4.063 5.9 5.9 0 0 0 .363-2.073V12h4v8.979c-.004.707.119 1.41.362 2.073a6 6 0 0 0 11.29-4.063zM11.76 22.363a4 4 0 0 1-7.525-2.714l.226-.517A4 4 0 0 1 12 20.986V21c0 .466-.082.93-.241 1.367zm13.616 2.396A4 4 0 0 1 20 21v-.014a4 4 0 0 1 7.54-1.847l.226.516a4 4 0 0 1-2.391 5.104"/></svg>