<svg xmlns="http://www.w3.org/2000/svg" width="32" height="32" fill="none" viewBox="0 0 32 32"><path fill="#000" d="M8.282 10.03a1.9 1.9 0 0 1-.206-1.52c.05-.211.134-.412.25-.595L11 4.09V1.002a1 1 0 0 1 1.066-1A1.02 1.02 0 0 1 13 1.036v3.019l.656.822a2.99 2.99 0 0 0 2.391 1.125 3.08 3.08 0 0 0 2.34-1.179L19 4.055V1.002a1 1 0 0 1 1.066-1A1.02 1.02 0 0 1 21 1.036V4.09l2.677 3.825c.116.183.2.384.25.595a1.9 1.9 0 0 1-.22 1.543l-1.732 2.718a.5.5 0 0 1-.425.231h-11.1a.5.5 0 0 1-.421-.231l-1.733-2.718zm18.563 16.196-.019-.043-5.115-10.893a.5.5 0 0 0-.454-.288H10.742a.5.5 0 0 0-.453.288L5.174 26.183l-.02.043a2.02 2.02 0 0 0 .046 1.651A2 2 0 0 0 7 29.002h18a2 2 0 0 0 1.845-2.776"/></svg>