<svg xmlns="http://www.w3.org/2000/svg" width="32" height="32" fill="none" viewBox="0 0 32 32"><path fill="#000" d="M6.74 4.327a1 1 0 1 0-1.48 1.345L7.665 8.32c-4.54 2.786-6.493 7.081-6.579 7.276a1 1 0 0 0 0 .812c.044.1 1.103 2.447 3.456 4.8C7.68 24.344 11.64 26 16 26c2.24.013 4.459-.449 6.509-1.354l2.75 3.026a1 1 0 1 0 1.48-1.344zM17.865 19.54a4 4 0 0 1-5.209-5.732zm13.049-3.132c-.053.118-1.319 2.922-4.17 5.476a1 1 0 0 1-1.408-.072L12.675 7.884a1 1 0 0 1 .575-1.66A17 17 0 0 1 16 6c4.36 0 8.321 1.657 11.458 4.794 2.353 2.354 3.412 4.702 3.456 4.801a1 1 0 0 1 0 .812"/></svg>