<svg xmlns="http://www.w3.org/2000/svg" width="32" height="32" fill="none" viewBox="0 0 32 32"><path fill="#000" d="M6 15h20a1 1 0 0 0 1-1v-3a1 1 0 0 0-.292-.707l-7-7A1 1 0 0 0 19 3H7a2 2 0 0 0-2 2v9a1 1 0 0 0 1 1m13-9.5 5.5 5.5H19zm.5 20.5a1 1 0 0 1-1 1H15a1 1 0 0 1-1-1v-7a1 1 0 0 1 2 0v6h2.5a1 1 0 0 1 1 1m-7.686-6.419L9.729 22.5l2.085 2.919a1 1 0 0 1-1.625 1.162L8.5 24.22l-1.686 2.361a1 1 0 1 1-1.625-1.162L7.27 22.5l-2.085-2.919a.999.999 0 1 1 1.625-1.162l1.69 2.361 1.685-2.361a1 1 0 0 1 1.625 1.162zm15.16 4.958a2.6 2.6 0 0 1-1.148 1.903c-.648.433-1.458.558-2.186.558a7.6 7.6 0 0 1-1.899-.25 1 1 0 1 1 .54-1.926c.547.151 1.867.338 2.442-.044.11-.075.23-.19.268-.491.043-.334-.09-.513-1.597-.949-1.169-.337-3.125-.904-2.875-2.89a2.57 2.57 0 0 1 1.119-1.867c1.48-1 3.84-.414 4.103-.345a1 1 0 0 1-.508 1.935c-.56-.147-1.903-.32-2.478.07a.57.57 0 0 0-.25.458c-.014.113-.016.135.14.238.289.186.806.335 1.306.48 1.234.352 3.3.956 3.023 3.12"/></svg>