<svg xmlns="http://www.w3.org/2000/svg" width="32" height="32" fill="none" viewBox="0 0 32 32"><path fill="#000" d="m26.708 10.293-7-7A1 1 0 0 0 19 3H7a2 2 0 0 0-2 2v9a1 1 0 0 0 1 1h20a1 1 0 0 0 1-1v-3a1 1 0 0 0-.293-.707M19 11V5.5l5.5 5.5zm7.814 8.581L24.729 22.5l2.085 2.919a1 1 0 0 1-1.625 1.162L23.5 24.22l-1.686 2.361a1 1 0 1 1-1.625-1.162L22.27 22.5l-2.085-2.919a1 1 0 0 1 1.625-1.162L23.5 20.78l1.686-2.361a1 1 0 0 1 1.625 1.162zm-8.338 4.958a2.6 2.6 0 0 1-1.148 1.903c-.65.433-1.453.558-2.187.558a7.6 7.6 0 0 1-1.891-.25 1 1 0 1 1 .537-1.926c.548.151 1.875.338 2.444-.044.11-.075.229-.19.268-.491.042-.334-.09-.513-1.598-.949-1.168-.337-3.125-.904-2.875-2.89a2.57 2.57 0 0 1 1.125-1.867c1.482-1 3.84-.414 4.105-.345a1.001 1.001 0 0 1-.509 1.935c-.56-.147-1.903-.32-2.478.07a.57.57 0 0 0-.25.458c-.015.113-.018.135.139.238.288.186.806.335 1.306.48 1.222.352 3.286.956 3.012 3.12M11 19a1 1 0 0 1-1 1H8.5v6a1 1 0 1 1-2 0v-6H5a1 1 0 0 1 0-2h5a1 1 0 0 1 1 1"/></svg>