<svg xmlns="http://www.w3.org/2000/svg" width="32" height="32" fill="none" viewBox="0 0 32 32"><path fill="#000" d="M15.801 3C8.84 3.106 3.151 8.759 3 15.719a12.94 12.94 0 0 0 1.689 6.687.5.5 0 0 0 .887-.036A14.9 14.9 0 0 0 7 16c-.001-2.175.787-4.277 2.217-5.916a1.03 1.03 0 0 1 1.35-.199 1 1 0 0 1 .183 1.49A7 7 0 0 0 9 16c.004 3-.792 5.948-2.305 8.539a.5.5 0 0 0 .076.606 13 13 0 0 0 1.604 1.381.5.5 0 0 0 .727-.151 20 20 0 0 0 1.398-2.75 1 1 0 0 1 1.631-.328 1 1 0 0 1 .219 1.09q-.631 1.527-1.481 2.943a.5.5 0 0 0 .236.718c1.002.408 2.052.69 3.125.837a.5.5 0 0 0 .509-.25 25.86 25.86 0 0 0 3.196-10.701 1 1 0 1 1 1.994.145 27.9 27.9 0 0 1-2.698 10.093.5.5 0 0 0 .51.718c.877-.118 1.74-.325 2.575-.619a.5.5 0 0 0 .294-.279A30.9 30.9 0 0 0 23 16.22c.027-3.83-2.925-7.084-6.75-7.216a7 7 0 0 0-2 .216 1 1 0 0 1-1.23-.776 1.03 1.03 0 0 1 .786-1.174A9.006 9.006 0 0 1 25 16a33.1 33.1 0 0 1-1.333 9.329.5.5 0 0 0 .81.518A13 13 0 0 0 15.8 3M16 12a4 4 0 0 1 2.981 1.334 1 1 0 0 1-.155 1.473 1.033 1.033 0 0 1-1.36-.167 2 2 0 0 0-2.097-.538 2.05 2.05 0 0 0-1.375 1.96 22 22 0 0 1-.4 4.124 1 1 0 0 1-.97.814 1 1 0 0 1-.187-.017 1.037 1.037 0 0 1-.788-1.208c.235-1.244.353-2.508.35-3.775a4 4 0 0 1 4-4"/></svg>