<svg xmlns="http://www.w3.org/2000/svg" width="32" height="32" fill="none" viewBox="0 0 32 32"><path fill="#000" d="M21.012 9.492a1.5 1.5 0 1 1-3 0 1.5 1.5 0 0 1 3 0m4.984 10.125c-2.595 3.297-6.731 5.093-12.301 5.347l-2.75 6.427a1 1 0 0 1-.924.609h-.064a1 1 0 0 1-.899-.723l-1.85-6.48L.73 22.94a1 1 0 0 1-.125-1.881l6.428-2.75c.25-5.571 2.052-9.708 5.35-12.301 5.4-4.25 13.113-2.854 14.604-2.532A2 2 0 0 1 28.52 5.01c.33 1.49 1.727 9.21-2.524 14.615zm.575-14.186c-1.339-.29-8.25-1.549-12.946 2.148-.592.467-1.13 1-1.604 1.586a4.5 4.5 0 0 0 4.92 4.809 1 1 0 0 1 1.09 1.09 4.502 4.502 0 0 0 4.811 4.92 10 10 0 0 0 1.581-1.602c3.697-4.696 2.438-11.61 2.148-12.948z"/></svg>