<svg xmlns="http://www.w3.org/2000/svg" width="32" height="32" fill="none" viewBox="0 0 32 32"><path fill="#000" d="M28.633 6.736a4.11 4.11 0 0 0-3.37-3.369c-4.047-.686-11.673-1-17.283 4.613-5.61 5.612-5.299 13.238-4.612 17.284a4.115 4.115 0 0 0 3.375 3.369c1.417.241 2.853.364 4.29.367 4.012 0 9.007-1 12.987-4.98 5.611-5.61 5.299-13.237 4.613-17.284M7.07 26.663a2.12 2.12 0 0 1-1.732-1.733 22.5 22.5 0 0 1-.264-5.863l7.858 7.86c-1.957.167-3.928.079-5.862-.264m13.635-13.954L18.913 14.5l.792.793a1 1 0 1 1-1.414 1.412l-.791-.791-1.586 1.586.792.793a.999.999 0 1 1-1.412 1.413l-.794-.793-1.793 1.792a1 1 0 1 1-1.413-1.414l1.793-1.791-.792-.793a1 1 0 0 1 1.414-1.412l.792.792 1.585-1.587-.792-.793a1 1 0 0 1 1.412-1.413l.794.793 1.793-1.792a1 1 0 1 1 1.413 1.414zm6.221.223-7.858-7.858a20 20 0 0 1 1.863-.087 24 24 0 0 1 4 .35 2.12 2.12 0 0 1 1.732 1.733c.343 1.934.431 3.905.263 5.862"/></svg>