<svg xmlns="http://www.w3.org/2000/svg" width="32" height="32" fill="none" viewBox="0 0 32 32"><path fill="#000" d="M22 25.905q1.036-.409 2-.966V30a1 1 0 0 1-2 0zm1.47-11.054-7-3.734a1 1 0 0 0-.94 1.765L21.375 16l2.125-1.133zm8-3.734-15-8a1 1 0 0 0-.94 0l-15 8a1 1 0 0 0 0 1.765L4 14.735v6.052c0 .491.18.966.508 1.331C6.145 23.942 9.814 27 16 27a16.3 16.3 0 0 0 6-1.095v-9.571L21.375 16 16 18.866 5.48 13.25 3.125 12 16 5.134 28.875 12l-2.347 1.25h-.008l-3.02 1.617a1 1 0 0 1 .5.867v9.205a14.5 14.5 0 0 0 3.493-2.822 2 2 0 0 0 .507-1.33v-6.053l3.47-1.851a1 1 0 0 0 0-1.765"/></svg>