<svg xmlns="http://www.w3.org/2000/svg" width="32" height="32" fill="none" viewBox="0 0 32 32"><path fill="#000" d="m30.708 5.293-4-4a1 1 0 0 0-1.59 1.176l-7.553 7.551c-2.849-1.482-6.039-1.359-7.971.572A5.3 5.3 0 0 0 8.42 12.39a1.03 1.03 0 0 1-.944.611c-1.823.061-3.407.715-4.581 1.889-1.51 1.514-2.145 3.686-1.802 6.12.332 2.328 1.54 4.635 3.407 6.491s4.168 3.07 6.5 3.403q.628.093 1.262.097c1.915 0 3.604-.654 4.846-1.895 1.173-1.174 1.827-2.758 1.888-4.581a1.03 1.03 0 0 1 .615-.944 5.3 5.3 0 0 0 1.796-1.174c1.932-1.932 2.055-5.125.573-7.971l7.551-7.552a1 1 0 0 0 1.177-1.59m-19 20.413a1 1 0 0 1-1.414 0l-4-4a1 1 0 0 1 1.415-1.413l4 4a1 1 0 0 1-.002 1.413m5.267-5.732a3.5 3.5 0 1 1-4.95-4.948 3.5 3.5 0 0 1 4.95 4.948m3.883-7.25q-.354-.437-.75-.835a11 11 0 0 0-.837-.75L22 8.414 23.586 10zM25 8.585 23.415 7 26.5 3.914 28.086 5.5z"/></svg>