<svg xmlns="http://www.w3.org/2000/svg" width="32" height="32" fill="none" viewBox="0 0 32 32"><path fill="#000" d="m31.418 14-8.433-8.49a12.013 12.013 0 0 0-16.971 0l-.012.011L4.282 7.3A1 1 0 0 0 5.716 8.69L7.434 6.92A10 10 0 0 1 9.772 5.18L15.585 11l-12 12a2 2 0 0 0 0 2.829l2.586 2.586a2 2 0 0 0 2.829 0l12-12 4 4a2 2 0 0 0 2.829 0l3.586-3.586a2 2 0 0 0 .003-2.83m-11.125.291L17.5 17.084 14.914 14.5l2.794-2.794a1 1 0 0 0 0-1.415L11.79 4.375a10 10 0 0 1 9.779 2.551l5.527 5.564-3.596 3.592-1.793-1.792a1 1 0 0 0-1.415 0zM26.418 19l-1.5-1.5 3.582-3.593 1.5 1.5z"/></svg>