<svg xmlns="http://www.w3.org/2000/svg" width="32" height="32" fill="none" viewBox="0 0 32 32"><path fill="#000" d="m29.415 22.5-4.53-4.531-4.558-15.036A2.72 2.72 0 0 0 16 1.616a2.72 2.72 0 0 0-4.328 1.317L7.115 17.97l-4.53 4.53a2 2 0 0 0 0 2.828l4.086 4.086a2 2 0 0 0 2.829 0l6.035-6.039q.25-.252.465-.536a5 5 0 0 0 .465.536l6.035 6.04a2 2 0 0 0 2.829 0l4.086-4.086a2 2 0 0 0 0-2.829M15 19.844a2.98 2.98 0 0 1-.875 2.125L11.085 25 7 20.915l1.706-1.707a1 1 0 0 0 .25-.418l4.625-15.277a.723.723 0 0 1 1.419.21zm5.93 5.172-3.055-3.051A2.98 2.98 0 0 1 17 19.84V3.715a.722.722 0 0 1 1.414-.21l4.625 15.278a1 1 0 0 0 .25.417l1.81 1.811z"/></svg>