<svg xmlns="http://www.w3.org/2000/svg" width="32" height="32" fill="none" viewBox="0 0 32 32"><path fill="#000" d="M26.94 26.658 20.564 9.124 21.7 6H23a1 1 0 1 0 0-2H11a1 1 0 0 0 0 2h.572L4.06 26.658a1 1 0 1 0 1.88.683L7.155 24h5.875l-.968 2.657a.999.999 0 1 0 1.878.684L16.25 21h6.5l2.306 6.341a1 1 0 0 0 1.285.599 1 1 0 0 0 .599-1.283M13.545 8h4a1 1 0 1 1 0 2h-4a1 1 0 0 1 0-2m.364 12h-4a1 1 0 0 1 0-2h4a1 1 0 0 1 0 2m1.818-5h-4a1 1 0 0 1 0-2h4a1 1 0 0 1 0 2m1.25 4 2.523-6.949L22.026 19z"/></svg>