<svg xmlns="http://www.w3.org/2000/svg" width="32" height="32" fill="none" viewBox="0 0 32 32"><path fill="#000" d="M27.931 5.009a1 1 0 0 0-.94-.94C17.475 3.51 9.853 6.375 6.603 11.75a10.9 10.9 0 0 0-1.595 6.125c.056 1.378.336 2.737.83 4.025a.5.5 0 0 0 .826.179L17.289 11.29a1 1 0 0 1 1.415 1.415L7.093 24.493l-1.774 1.773a1.025 1.025 0 0 0-.075 1.388 1 1 0 0 0 1.464.053l2.098-2.098c1.768.855 3.552 1.321 5.32 1.383q.21.008.417.008c2.014.005 3.99-.55 5.707-1.602 5.375-3.25 8.241-10.872 7.681-20.39"/></svg>