<svg xmlns="http://www.w3.org/2000/svg" width="32" height="32" fill="none" viewBox="0 0 32 32"><path fill="#000" d="M6.398 18.189a11.94 11.94 0 0 1-2.387-7.715.5.5 0 0 1 .5-.474h8.864a.5.5 0 0 1 .354.854zM15 22.957V12.415l-7.271 7.272A11.96 11.96 0 0 0 15 22.957m10.603-4.768A11.94 11.94 0 0 0 28 11c0-.176 0-.351-.011-.526a.5.5 0 0 0-.5-.474h-8.864a.5.5 0 0 0-.354.854zM31 10h-.51a.5.5 0 0 0-.5.518c0 .16.009.32.009.482A14 14 0 0 1 2 11c0-.161 0-.322.009-.482a.5.5 0 0 0-.5-.518H1a1 1 0 0 0-1 1 16 16 0 1 0 32 0 1 1 0 0 0-1-1m-14 2.414v10.544a11.96 11.96 0 0 0 7.271-3.272z"/></svg>