<svg xmlns="http://www.w3.org/2000/svg" width="32" height="32" fill="none" viewBox="0 0 32 32"><path fill="#000" d="M32 25.5a3.5 3.5 0 1 1-7 0c0-2.946 2.757-5.186 2.875-5.281a1 1 0 0 1 1.25 0c.117.095 2.875 2.335 2.875 5.28M16.56 15.56a1.5 1.5 0 1 0-2.125-2.118 1.5 1.5 0 0 0 2.125 2.118m12.146-.832L15.271 1.292a1 1 0 0 0-1.414 0L8.781 6.375l5.054 5.052a3.5 3.5 0 1 1-1.414 1.415l-5.054-5.06-5.492 5.49a3 3 0 0 0 0 4.242l10.611 10.61a3 3 0 0 0 4.243 0l11.978-11.978a1 1 0 0 0 0-1.417m-23-11.437a1 1 0 1 0-1.415 1.415l3.075 3.075 1.414-1.407z"/></svg>