<svg xmlns="http://www.w3.org/2000/svg" width="32" height="32" fill="none" viewBox="0 0 32 32"><path fill="#000" d="m6.68 5.438.085-.688A2 2 0 0 1 8.75 3h14.5a2 2 0 0 1 1.985 1.75l.085.686a.5.5 0 0 1-.5.563H7.176a.5.5 0 0 1-.496-.561M21.125 8A4.01 4.01 0 0 0 25 11h.449a.498.498 0 0 0 .5-.562l-.25-2a.5.5 0 0 0-.5-.438zM6.551 11h.45a4.01 4.01 0 0 0 3.874-3H6.801a.5.5 0 0 0-.5.438l-.25 2a.5.5 0 0 0 .5.562m21.434 15.75L26.32 13.438a.5.5 0 0 0-.5-.438H25a6.01 6.01 0 0 1-5.915-5H17v4.966a1.02 1.02 0 0 1-.934 1.032 1 1 0 0 1-1.066-1V8h-2.085A6.01 6.01 0 0 1 7 13h-.824a.5.5 0 0 0-.5.438L4.016 26.75a2 2 0 0 0 .838 1.886A2.07 2.07 0 0 0 6.049 29h5.037a2 2 0 0 0 1.94-1.508L16 15.993l2.974 11.493A2 2 0 0 0 20.914 29h5.037c.426.006.844-.12 1.195-.361a2 2 0 0 0 .84-1.889"/></svg>