<svg xmlns="http://www.w3.org/2000/svg" width="32" height="32" fill="none" viewBox="0 0 32 32"><path fill="#000" d="M12 7a4 4 0 1 1 8 0 4 4 0 0 1-8 0m15.625 5.42c-.188-.15-4.653-3.625-11.189.821-5.686 3.864-8.99 2.538-9.021 2.524a.998.998 0 0 0-1.427.873 1 1 0 0 0 .598.947c.076.035.936.409 2.459.409 1.776 0 4.455-.514 7.846-2.661-.285 3.676-1.591 10.433-9.179 12.71a1 1 0 1 0 .575 1.915c4.354-1.307 7.432-4.043 9.15-8.135q.367-.88.638-1.792l2.76 2.3-1.784 5.353a1 1 0 1 0 1.898.632l2-6a1 1 0 0 0-.31-1.085l-4.052-3.375q.322-1.883.375-3.792c4.523-2.322 7.375-.107 7.41-.082a1 1 0 1 0 1.25-1.56zM8 14a2 2 0 1 0 0-4 2 2 0 0 0 0 4"/></svg>