<svg xmlns="http://www.w3.org/2000/svg" width="32" height="32" fill="none" viewBox="0 0 32 32"><path fill="#000" d="m28.707 27.293-6.052-6.052q.206-.061.409-.133a7.5 7.5 0 0 0 4.482-9.608 1 1 0 0 0-1.281-.598l-5.525 2.01q.061-.115.116-.235A7.5 7.5 0 0 0 11.5 2.457a1 1 0 0 0-.603 1.28l2.012 5.528a9 9 0 0 1-.237-.125 7.5 7.5 0 0 0-10.216 9.361 1 1 0 0 0 1.281.598l5.525-2.012q-.061.118-.116.237a7.5 7.5 0 0 0 9.361 10.216 1 1 0 0 0 .598-1.281l-2.01-5.523q.115.06.235.114c.882.413 1.837.65 2.81.697l7.152 7.154a1 1 0 1 0 1.415-1.415zm-15.082-1.81a5.5 5.5 0 0 1-.466-9.725l3.7 10.166a5.45 5.45 0 0 1-3.234-.44m5.425-13.655a5.47 5.47 0 0 1-2.2 2.422L13.149 4.079a5.5 5.5 0 0 1 5.895 7.75z"/></svg>