<svg xmlns="http://www.w3.org/2000/svg" width="32" height="32" fill="none" viewBox="0 0 32 32"><path fill="#000" d="M26.741 26.328a.997.997 0 0 1-.059 1.421 1 1 0 0 1-1.42-.076l-2.73-3c-.37.904-.857 1.756-1.448 2.533a2 2 0 0 1-1.459.794h-.141a2 2 0 0 1-1.415-.586l-6.033-6.039-5.328 5.333a1 1 0 0 1-1.415-1.415l5.332-5.33-6.037-6.037a2 2 0 0 1 .162-2.972A8.7 8.7 0 0 1 8.421 9.15l-3.16-3.477a1 1 0 1 1 1.48-1.345l16.047 17.65zm2.674-16.157L21.83 2.586a2 2 0 0 0-2.829 0l-5.154 5.172a1 1 0 0 0-.03 1.375l8.57 9.428a1 1 0 0 0 .718.328h.021a1 1 0 0 0 .708-.294L29.415 13a2 2 0 0 0 0-2.829"/></svg>