<svg xmlns="http://www.w3.org/2000/svg" width="32" height="32" fill="none" viewBox="0 0 32 32"><path fill="#000" d="M29.875 23.51 21.71 9h7.25A1.02 1.02 0 0 0 30 8.066 1 1 0 0 0 29 7H3.034A1.02 1.02 0 0 0 2 7.934 1 1 0 0 0 3 9h7.29L2.125 23.51a1 1 0 0 0 .146 1.179 1.03 1.03 0 0 0 .75.31H14.5a.5.5 0 0 0 .5-.5v-2.465a1.02 1.02 0 0 1 .934-1.032 1 1 0 0 1 1.066 1v2.5a.5.5 0 0 0 .5.5h11.471a1.03 1.03 0 0 0 .75-.31 1 1 0 0 0 .154-1.182M17 17.5a1 1 0 1 1-2 0v-2a1 1 0 0 1 2 0zm0-6.5a1 1 0 1 1-2 0v-1a1 1 0 0 1 2 0z"/></svg>