<svg xmlns="http://www.w3.org/2000/svg" width="32" height="32" fill="none" viewBox="0 0 32 32"><path fill="#000" d="m29.929 16.625-4-10a1 1 0 0 0-1.145-.599L17 7.75V5a1 1 0 1 0-2 0v3.198l-8.216 1.828a1 1 0 0 0-.713.599l-4 10A1 1 0 0 0 2 21c0 2.914 3.068 4 5 4 1.933 0 5-1.086 5-4a1 1 0 0 0-.071-.375l-3.564-8.904L15 10.25V26h-2a1 1 0 0 0 0 2h6a1 1 0 0 0 0-2h-2V9.803l6.375-1.416-3.304 8.238A1 1 0 0 0 20 17c0 2.914 3.067 4 5 4s5-1.086 5-4a1 1 0 0 0-.071-.375M9.929 21H4.078L7 13.693zm12.155-4L25 9.693 27.922 17z"/></svg>