<svg xmlns="http://www.w3.org/2000/svg" width="32" height="32" fill="none" viewBox="0 0 32 32"><path fill="#000" d="M19 27a1 1 0 0 1-1 1h-4a1 1 0 0 1 0-2h4a1 1 0 0 1 1 1M5 19a1 1 0 0 0 1-1v-4a1 1 0 1 0-2 0v4a1 1 0 0 0 1 1m4 7H6v-3a1 1 0 1 0-2 0v3a2 2 0 0 0 2 2h3a1 1 0 0 0 0-2M28 6a2 2 0 0 0-2-2H6c-.493 0-.968.183-1.332.514a1 1 0 0 0-.154.154C4.183 5.032 4 5.508 4 6v3a1 1 0 0 0 2 0V7.414L24.586 26H23a1 1 0 0 0 0 2h3c.492 0 .967-.183 1.332-.512a1 1 0 0 0 .154-.155c.331-.365.514-.84.514-1.333z"/></svg>