<svg xmlns="http://www.w3.org/2000/svg" width="32" height="32" fill="none" viewBox="0 0 32 32"><path fill="#000" d="M29.9 12.161a2 2 0 0 0-1.726-1.375l-7.424-.64-2.91-6.92a1.994 1.994 0 0 0-3.68 0l-2.901 6.92-7.433.643a2 2 0 0 0-1.138 3.508l5.638 4.928-1.69 7.317a2 2 0 0 0 2.98 2.168l6.375-3.875 6.389 3.875a2 2 0 0 0 2.98-2.168l-1.689-7.324 5.638-4.92a2 2 0 0 0 .591-2.137m-1.902.625-5.638 4.92a2 2 0 0 0-.635 1.964L23.419 27l-6.384-3.875c-.311-.19-.67-.29-1.034-.29V4.011l2.9 6.91a2 2 0 0 0 1.669 1.219l7.43.643v.008z"/></svg>