<svg xmlns="http://www.w3.org/2000/svg" width="32" height="32" fill="none" viewBox="0 0 32 32"><path fill="#000" d="M27 4h-8a1 1 0 0 0-.793.39l-8 10.401L9 13.586a2 2 0 0 0-2.83 0l-1.586 1.588a2 2 0 0 0 0 2.829l2.5 2.5-3.5 3.5a2 2 0 0 0 0 2.828l1.586 1.585a2 2 0 0 0 2.827 0l3.5-3.5 2.5 2.5a2 2 0 0 0 2.83 0l1.587-1.587a2 2 0 0 0 0-2.829l-1.205-1.205 10.401-8A1 1 0 0 0 28 13V5a1 1 0 0 0-1-1m-1 8.508-10.217 7.86L14.415 19l6.293-6.292a1 1 0 0 0-1.415-1.414L13 17.585l-1.366-1.367L19.492 6H26z"/></svg>