<svg xmlns="http://www.w3.org/2000/svg" width="32" height="32" fill="none" viewBox="0 0 32 32"><path fill="#000" d="M3.101 14.426A12.99 12.99 0 0 1 14.426 3.095a.5.5 0 0 1 .559.474A10.977 10.977 0 0 1 3.576 14.985a.5.5 0 0 1-.475-.559m25.318 2.588c-.14 0-.279-.009-.419-.009a10.98 10.98 0 0 0-10.985 11.426.5.5 0 0 0 .559.474 12.99 12.99 0 0 0 11.325-11.332.5.5 0 0 0-.28-.51.5.5 0 0 0-.2-.05m-9.611 1.794A12.92 12.92 0 0 1 28 15h.386a.5.5 0 0 0 .493-.342q.034-.103.022-.212a12.99 12.99 0 0 0-11.36-11.361.5.5 0 0 0-.553.515 12.96 12.96 0 0 1-3.795 9.588A12.92 12.92 0 0 1 4 17h-.386a.5.5 0 0 0-.515.554 12.99 12.99 0 0 0 11.36 11.361.502.502 0 0 0 .553-.515 12.97 12.97 0 0 1 3.796-9.592"/></svg>