<svg xmlns="http://www.w3.org/2000/svg" width="32" height="32" fill="none" viewBox="0 0 32 32"><path fill="#000" d="m31.708 12.708-4.5 4.5a1 1 0 0 1-1.415 0l-4.5-4.5-.042-.048-.043.048L16.915 17l4.293 4.293a1 1 0 0 1 0 1.415l-4.5 4.5a1 1 0 0 1-1.415 0l-4.5-4.5a1 1 0 0 1 0-1.415L15.087 17l-4.294-4.292-.042-.048-.043.048-4.5 4.5a1 1 0 0 1-1.415 0l-4.5-4.5a1 1 0 0 1 0-1.415l4.5-4.5a1 1 0 0 1 1.415 0l4.5 4.5.043.047.042-.047 4.5-4.5a1 1 0 0 1 1.415 0l4.5 4.5.043.047.042-.047 4.5-4.5a1 1 0 0 1 1.415 0l4.5 4.5a1 1 0 0 1 0 1.415"/></svg>