<svg xmlns="http://www.w3.org/2000/svg" width="32" height="32" fill="none" viewBox="0 0 32 32"><path fill="#000" d="M16 23.485h-.008q-.48.321-1 .576v4.94a1 1 0 0 0 2 0v-4.94a9 9 0 0 1-1-.576z"/><path fill="#000" d="M24.763 7.825a9.5 9.5 0 0 0-17.525 0A9.04 9.04 0 0 0 2 15.975c-.014 4.852 3.92 8.9 8.768 9.025A8.96 8.96 0 0 0 15 24.06v-4.444l-5.447-2.722a1 1 0 0 1 .894-1.79L15 17.382V11a1 1 0 0 1 2 0v3.382l4.552-2.277a1 1 0 1 1 .896 1.79L17 16.617v7.444c1.242.62 2.612.941 4 .939h.233c4.847-.125 8.78-4.17 8.767-9.023a9.03 9.03 0 0 0-5.238-8.152"/></svg>