<svg xmlns="http://www.w3.org/2000/svg" width="32" height="32" fill="none" viewBox="0 0 32 32"><path fill="#000" d="M29.98 7.541a1 1 0 0 1-.581.719l-7.024 3.059a8.93 8.93 0 0 1 5.42 4.15 8.83 8.83 0 0 1 .9 6.79 1 1 0 0 1-1.57.536L17 15.085V28a1 1 0 1 1-2 0V15.085l-10.125 7.71a1 1 0 0 1-1.571-.535 8.83 8.83 0 0 1 .9-6.79 8.93 8.93 0 0 1 5.421-4.151l-7.024-3.06a1 1 0 0 1-.325-1.605 8.36 8.36 0 0 1 12.218 0 9 9 0 0 1 1.5 2.125A9 9 0 0 1 17.5 6.654a8.36 8.36 0 0 1 12.218 0 1 1 0 0 1 .262.887"/></svg>