<svg xmlns="http://www.w3.org/2000/svg" width="32" height="32" fill="none" viewBox="0 0 32 32"><path fill="#000" d="m14.53 21.37-9.224-9.536c-.654-.677-.19-1.834.735-1.834H25.96c.926 0 1.39 1.157.735 1.834l-9.225 9.537a2.03 2.03 0 0 1-2.938 0" opacity=".08"/><path fill="#000" fill-rule="evenodd" d="M4.61 12.629C3.307 11.289 4.23 9 6.076 9h19.85c1.845 0 2.769 2.29 1.464 3.629l-9.193 9.437a3.05 3.05 0 0 1-4.392 0zm21.315-1.503H6.075l9.193 9.437c.404.415 1.06.415 1.464 0zl.732.751z" clip-rule="evenodd"/></svg>