<svg xmlns="http://www.w3.org/2000/svg" width="32" height="32" fill="none" viewBox="0 0 32 32"><path fill="#000" d="m10.63 14.53 9.536-9.224c.677-.654 1.834-.19 1.834.735v19.918c0 .926-1.157 1.39-1.834.735l-9.537-9.225a2.03 2.03 0 0 1 0-2.938" opacity=".08"/><path fill="#000" fill-rule="evenodd" d="M19.371 4.61C20.711 3.307 23 4.23 23 6.076v19.85c0 1.845-2.29 2.769-3.629 1.464l-9.437-9.193a3.05 3.05 0 0 1 0-4.392zm1.503 21.315V6.075l-9.437 9.193a1.016 1.016 0 0 0 0 1.464z" clip-rule="evenodd"/></svg>