<svg xmlns="http://www.w3.org/2000/svg" width="32" height="32" fill="none" viewBox="0 0 32 32"><path fill="#000" d="m17.47 10.63 9.224 9.536c.654.677.19 1.834-.735 1.834H6.041c-.926 0-1.39-1.157-.735-1.834l9.225-9.537a2.03 2.03 0 0 1 2.938 0" opacity=".08"/><path fill="#000" fill-rule="evenodd" d="M27.39 19.371c1.304 1.34.38 3.629-1.465 3.629H6.075c-1.845 0-2.769-2.29-1.464-3.629l9.193-9.437a3.05 3.05 0 0 1 4.392 0zM6.074 20.874h19.85l-9.193-9.437a1.016 1.016 0 0 0-1.464 0z" clip-rule="evenodd"/></svg>