<svg xmlns="http://www.w3.org/2000/svg" width="32" height="32" fill="none" viewBox="0 0 32 32"><g opacity=".08"><path fill="#000" d="M9.5 4a5.5 5.5 0 1 0 0 11h3.3a2.2 2.2 0 0 0 2.2-2.2V9.5A5.5 5.5 0 0 0 9.5 4M9.5 17a5.5 5.5 0 1 0 5.5 5.5v-3.3a2.2 2.2 0 0 0-2.2-2.2zM17 9.5a5.5 5.5 0 1 1 5.5 5.5h-3.3a2.2 2.2 0 0 1-2.2-2.2zM19.2 17a2.2 2.2 0 0 0-2.2 2.2v3.3a5.5 5.5 0 1 0 5.5-5.5z"/></g><path fill="#000" fill-rule="evenodd" d="M4 9.5a5.5 5.5 0 1 1 11 0v3.3a2.2 2.2 0 0 1-2.2 2.2H9.5A5.5 5.5 0 0 1 4 9.5m9 0v3.3a.2.2 0 0 1-.2.2H9.5A3.5 3.5 0 1 1 13 9.5M4 22.5A5.5 5.5 0 0 1 9.5 17h3.3a2.2 2.2 0 0 1 2.2 2.2v3.3a5.5 5.5 0 1 1-11 0M9.5 19h3.3c.11 0 .2.09.2.2v3.3A3.5 3.5 0 1 1 9.5 19M22.5 4A5.5 5.5 0 0 0 17 9.5v3.3a2.2 2.2 0 0 0 2.2 2.2h3.3a5.5 5.5 0 1 0 0-11m-3.3 9h3.3A3.5 3.5 0 1 0 19 9.5v3.3c0 .11.09.2.2.2M17 19.2a2.2 2.2 0 0 1 2.2-2.2h3.3a5.5 5.5 0 1 1-5.5 5.5zm2.2-.2h3.3a3.5 3.5 0 1 1-3.5 3.5v-3.3c0-.11.09-.2.2-.2" clip-rule="evenodd"/></svg>