<svg width="32" height="32" viewBox="0 0 32 32" fill="none" xmlns="http://www.w3.org/2000/svg">
<path d="M22.4655 7.49023C24.5857 7.49034 26.832 8.68175 28.4304 10.7363C23.1899 13.6979 24.0384 21.4144 29.3337 23.4785C28.6057 25.1417 28.2549 25.8852 27.3171 27.3584C26.0088 29.4149 24.1637 31.9753 21.8757 31.9941C19.845 32.0166 19.3212 30.6296 16.5641 30.6465C13.8072 30.6616 13.2323 32.0206 11.1979 32C8.9117 31.9793 7.16344 29.6688 5.85516 27.6123C2.19486 21.866 1.80997 15.1204 4.06708 11.5322C5.67278 8.98461 8.20529 7.49417 10.5847 7.49414C13.0059 7.49414 14.5296 8.86418 16.5349 8.86426C18.48 8.86426 19.6646 7.49023 22.4655 7.49023ZM21.8522 0C22.1314 1.94365 21.3597 3.84811 20.3415 5.19531C19.2522 6.64025 17.3745 7.75746 15.5554 7.69922C15.2233 5.83838 16.0735 3.92068 17.1081 2.63184C18.2431 1.20954 20.1883 0.118529 21.8522 0Z" fill="currentColor"/>
</svg>
