<svg xmlns="http://www.w3.org/2000/svg" width="32" height="32" fill="none" viewBox="0 0 32 32"><path fill="#000" d="M16.707 12.707a1 1 0 0 0-1.414 0l-2.657 2.657a1 1 0 0 0 0 1.414l2.657 2.657a1 1 0 0 0 1.414 0l2.657-2.657a1 1 0 0 0 0-1.414z"/><path fill="#000" fill-rule="evenodd" d="M4 8a4 4 0 0 1 4-4h16a4 4 0 0 1 4 4v16a4 4 0 0 1-4 4H8a4 4 0 0 1-4-4zm10.586 2.414a2 2 0 0 1 2.828 0l4.243 4.243a2 2 0 0 1 0 2.828l-4.243 4.243a2 2 0 0 1-2.828 0l-4.243-4.243a2 2 0 0 1 0-2.828z" clip-rule="evenodd"/></svg>