<svg width="32" height="32" viewBox="0 0 32 32" fill="none" xmlns="http://www.w3.org/2000/svg">
<path d="M26 2.5H8C7.33696 2.5 6.70107 2.76339 6.23223 3.23223C5.76339 3.70107 5.5 4.33696 5.5 5V7.5H4C3.60218 7.5 3.22064 7.65804 2.93934 7.93934C2.65804 8.22064 2.5 8.60218 2.5 9C2.5 9.39782 2.65804 9.77936 2.93934 10.0607C3.22064 10.342 3.60218 10.5 4 10.5H5.5V14.5H4C3.60218 14.5 3.22064 14.658 2.93934 14.9393C2.65804 15.2206 2.5 15.6022 2.5 16C2.5 16.3978 2.65804 16.7794 2.93934 17.0607C3.22064 17.342 3.60218 17.5 4 17.5H5.5V21.5H4C3.60218 21.5 3.22064 21.658 2.93934 21.9393C2.65804 22.2206 2.5 22.6022 2.5 23C2.5 23.3978 2.65804 23.7794 2.93934 24.0607C3.22064 24.342 3.60218 24.5 4 24.5H5.5V27C5.5 27.663 5.76339 28.2989 6.23223 28.7678C6.70107 29.2366 7.33696 29.5 8 29.5H26C26.663 29.5 27.2989 29.2366 27.7678 28.7678C28.2366 28.2989 28.5 27.663 28.5 27V5C28.5 4.33696 28.2366 3.70107 27.7678 3.23223C27.2989 2.76339 26.663 2.5 26 2.5ZM25.5 26.5H8.5V5.5H25.5V26.5ZM12.6 21.4212C13.1617 20.8154 13.8424 20.3321 14.5995 20.0016C15.3566 19.6711 16.1739 19.5005 17 19.5005C17.8261 19.5005 18.6434 19.6711 19.4005 20.0016C20.1576 20.3321 20.8383 20.8154 21.4 21.4212C21.6705 21.713 22.0459 21.8853 22.4434 21.9003C22.841 21.9153 23.2283 21.7718 23.52 21.5012C23.8117 21.2307 23.9841 20.8554 23.9991 20.4578C24.0141 20.0602 23.8705 19.673 23.6 19.3813C22.9087 18.6386 22.0969 18.0182 21.1987 17.5462C21.876 16.7455 22.3102 15.7678 22.4502 14.7284C22.5901 13.6889 22.43 12.6312 21.9886 11.6798C21.5472 10.7284 20.843 9.92307 19.9591 9.3587C19.0751 8.79432 18.0482 8.49445 16.9994 8.49445C15.9506 8.49445 14.9237 8.79432 14.0397 9.3587C13.1557 9.92307 12.4515 10.7284 12.0101 11.6798C11.5688 12.6312 11.4086 13.6889 11.5486 14.7284C11.6885 15.7678 12.1227 16.7455 12.8 17.5462C11.9025 18.0186 11.0911 18.6389 10.4 19.3813C10.1295 19.673 9.98593 20.0602 10.0009 20.4578C10.0159 20.8554 10.1883 21.2307 10.48 21.5012C10.7717 21.7718 11.159 21.9153 11.5566 21.9003C11.9541 21.8853 12.3295 21.713 12.6 21.4212ZM14.5 14C14.5 13.5055 14.6466 13.0222 14.9213 12.6111C15.196 12.2 15.5865 11.8795 16.0433 11.6903C16.5001 11.5011 17.0028 11.4516 17.4877 11.548C17.9727 11.6445 18.4181 11.8826 18.7678 12.2322C19.1174 12.5819 19.3555 13.0273 19.452 13.5123C19.5484 13.9972 19.4989 14.4999 19.3097 14.9567C19.1205 15.4135 18.8 15.804 18.3889 16.0787C17.9778 16.3534 17.4945 16.5 17 16.5C16.337 16.5 15.7011 16.2366 15.2322 15.7678C14.7634 15.2989 14.5 14.663 14.5 14Z" fill="black"/>
</svg>
