<svg width="32" height="32" viewBox="0 0 32 32" fill="none" xmlns="http://www.w3.org/2000/svg">
<path d="M31 27C31 27.2652 30.8946 27.5195 30.7071 27.7071C30.5196 27.8946 30.2652 28 30 28H12C11.7348 28 11.4804 27.8946 11.2929 27.7071C11.1054 27.5195 11 27.2652 11 27C11 26.7348 11.1054 26.4804 11.2929 26.2929C11.4804 26.1053 11.7348 26 12 26H30C30.2652 26 30.5196 26.1053 30.7071 26.2929C30.8946 26.4804 31 26.7348 31 27ZM28 24C28.2652 24 28.5196 23.8946 28.7071 23.7071C28.8946 23.5195 29 23.2652 29 23V18.54C28.9974 17.4481 28.6386 16.3868 27.978 15.5173C27.3175 14.6479 26.3913 14.0177 25.34 13.7225L17.735 11.5975L14.9225 4.89373C14.8674 4.76215 14.7848 4.64389 14.6802 4.54687C14.5757 4.44985 14.4516 4.37632 14.3162 4.33123L13.6325 4.10373C13.3319 4.00353 13.0119 3.97618 12.6987 4.02391C12.3855 4.07163 12.0881 4.19309 11.831 4.37826C11.574 4.56343 11.3646 4.80702 11.2201 5.08897C11.0756 5.37092 11.0002 5.68316 11 5.99998V9.67373L7.26625 8.60998L5.94 4.93873C5.88859 4.79663 5.80564 4.66803 5.69739 4.5626C5.58914 4.45716 5.4584 4.37763 5.315 4.32998L4.63125 4.10248C4.33067 4.00249 4.01064 3.97534 3.69751 4.02325C3.38438 4.07116 3.08711 4.19277 2.83017 4.37805C2.57324 4.56334 2.36399 4.807 2.21966 5.08899C2.07533 5.37097 2.00004 5.6832 2 5.99998V12.965C2.0024 14.0554 2.36012 15.1153 3.01898 15.9842C3.67784 16.853 4.60193 17.4835 5.65125 17.78L27.73 23.9625C27.8179 23.9872 27.9087 23.9999 28 24Z" fill="black"/>
</svg>
