<svg width="32" height="32" viewBox="0 0 32 32" fill="none" xmlns="http://www.w3.org/2000/svg">
<path d="M26.94 24.6575C27.005 24.8363 27.0177 25.03 26.9765 25.2158C26.9353 25.4015 26.842 25.5717 26.7075 25.7063L23.7075 28.7063C23.6146 28.7993 23.5044 28.8732 23.383 28.9236C23.2616 28.974 23.1314 29 23 29C22.9671 29.0019 22.9341 29.0019 22.9012 29C22.754 28.9855 22.6118 28.9385 22.4849 28.8625C22.358 28.7864 22.2496 28.6831 22.1675 28.56L16.6587 20.295L14 22.9488V26C13.9999 26.2649 13.8947 26.5189 13.7075 26.7063C13.7075 26.7063 11.9575 28.4638 11.7225 28.6913C11.6248 28.7936 11.5063 28.8737 11.375 28.9263C11.1302 29.026 10.856 29.0247 10.6122 28.9228C10.3684 28.821 10.1748 28.6267 10.0737 28.3825L10.0662 28.3638L8.22872 23.7688L3.62497 21.9275C3.47139 21.8661 3.33546 21.7675 3.22933 21.6406C3.12321 21.5138 3.05022 21.3625 3.0169 21.2005C2.98358 21.0385 2.99097 20.8707 3.03841 20.7123C3.08585 20.5538 3.17185 20.4096 3.28872 20.2925L5.28872 18.2925C5.38211 18.1992 5.49303 18.1254 5.61511 18.0752C5.73718 18.025 5.86798 17.9994 5.99997 18H9.04997L11.7087 15.3413L3.44497 9.83127C3.32172 9.74923 3.21823 9.64083 3.14196 9.51392C3.0657 9.387 3.01857 9.24474 3.00398 9.09739C2.98939 8.95005 3.0077 8.8013 3.05759 8.6619C3.10748 8.52249 3.18771 8.3959 3.29247 8.29128L6.29247 5.29128C6.42705 5.15676 6.59721 5.06343 6.78298 5.02225C6.96875 4.98107 7.16241 4.99374 7.34122 5.05877L18.0837 8.96502L22.025 5.02377C22.6814 4.36736 23.5717 3.9986 24.5 3.9986C24.9596 3.9986 25.4148 4.08913 25.8394 4.26503C26.2641 4.44093 26.65 4.69875 26.975 5.02377C27.3 5.3488 27.5578 5.73465 27.7337 6.15931C27.9096 6.58398 28.0002 7.03912 28.0002 7.49878C28.0002 7.95843 27.9096 8.41357 27.7337 8.83823C27.5578 9.2629 27.3 9.64875 26.975 9.97377L23.0337 13.915L26.94 24.6575Z" fill="black"/>
</svg>
