<svg width="32" height="32" viewBox="0 0 32 32" fill="none" xmlns="http://www.w3.org/2000/svg">
<path d="M27.75 27C27.75 27.1989 27.671 27.3897 27.5303 27.5303C27.3897 27.671 27.1989 27.75 27 27.75H8.99999C8.80108 27.75 8.61032 27.671 8.46966 27.5303C8.32901 27.3897 8.24999 27.1989 8.24999 27C8.24999 26.8011 8.32901 26.6103 8.46966 26.4697C8.61032 26.329 8.80108 26.25 8.99999 26.25H27C27.1989 26.25 27.3897 26.329 27.5303 26.4697C27.671 26.6103 27.75 26.8011 27.75 27ZM30.75 17V20C30.75 20.1989 30.671 20.3897 30.5303 20.5303C30.3897 20.671 30.1989 20.75 30 20.75H7.63374C6.61103 20.7547 5.61444 20.4272 4.79389 19.8168C3.97333 19.2063 3.37319 18.3459 3.08374 17.365L1.32499 11.5C1.24717 11.239 1.23135 10.9634 1.2788 10.6952C1.32625 10.4269 1.43566 10.1735 1.59831 9.955C1.76096 9.73651 1.97238 9.559 2.21572 9.43661C2.45906 9.31422 2.72761 9.25032 2.99999 9.25H3.99999C4.19884 9.25018 4.38948 9.32931 4.52999 9.47L7.31124 12.25H10.5737L9.34124 8.55375C9.25353 8.29078 9.22954 8.01074 9.27125 7.73669C9.31296 7.46263 9.41917 7.20241 9.58115 6.97745C9.74313 6.75248 9.95623 6.56922 10.2029 6.44275C10.4496 6.31627 10.7228 6.25021 11 6.25H12C12.0987 6.24992 12.1964 6.26932 12.2875 6.30707C12.3787 6.34482 12.4615 6.40019 12.5312 6.47L18.3112 12.25H26C27.2598 12.25 28.468 12.7504 29.3588 13.6412C30.2495 14.532 30.75 15.7402 30.75 17ZM29.25 17C29.25 16.138 28.9076 15.3114 28.2981 14.7019C27.6886 14.0924 26.8619 13.75 26 13.75H18C17.8011 13.7498 17.6105 13.6707 17.47 13.53L11.69 7.75H11C10.9604 7.74996 10.9213 7.75934 10.8861 7.77735C10.8508 7.79536 10.8203 7.8215 10.7971 7.8536C10.7739 7.8857 10.7587 7.92286 10.7527 7.962C10.7467 8.00115 10.75 8.04116 10.7625 8.07875L12.325 12.7625C12.3626 12.8752 12.3729 12.9953 12.3551 13.1128C12.3372 13.2303 12.2916 13.3419 12.2222 13.4383C12.1527 13.5348 12.0613 13.6133 11.9555 13.6675C11.8497 13.7217 11.7326 13.75 11.6137 13.75H6.99999C6.80115 13.7498 6.61051 13.6707 6.46999 13.53L3.68999 10.75H2.99999C2.96095 10.7494 2.92236 10.7583 2.88752 10.776C2.85268 10.7936 2.82265 10.8194 2.79999 10.8512C2.77609 10.882 2.76006 10.9181 2.7533 10.9564C2.74655 10.9948 2.74927 11.0342 2.76124 11.0712L4.51874 16.9338C4.71715 17.6051 5.12812 18.1938 5.68986 18.6115C6.25159 19.0292 6.93374 19.2533 7.63374 19.25H29.25V17Z" fill="black"/>
</svg>
