<svg width="32" height="32" viewBox="0 0 32 32" fill="none" xmlns="http://www.w3.org/2000/svg">
<path d="M21.75 27C21.75 27.1989 21.671 27.3897 21.5303 27.5303C21.3897 27.671 21.1989 27.75 21 27.75H3.00001C2.8011 27.75 2.61033 27.671 2.46968 27.5303C2.32903 27.3897 2.25001 27.1989 2.25001 27C2.25001 26.8011 2.32903 26.6103 2.46968 26.4697C2.61033 26.329 2.8011 26.25 3.00001 26.25H21C21.1989 26.25 21.3897 26.329 21.5303 26.4697C21.671 26.6103 21.75 26.8011 21.75 27ZM30.7375 11.5975C30.7172 11.7009 30.6753 11.7989 30.6146 11.8851C30.5538 11.9712 30.4756 12.0436 30.385 12.0975L11.9588 23.0975C11.2294 23.5241 10.4 23.7497 9.55501 23.7512C8.34986 23.7498 7.19082 23.2878 6.31501 22.46L6.30251 22.4487L1.79626 18.045C1.5862 17.8465 1.42857 17.599 1.33745 17.3248C1.24633 17.0505 1.22456 16.7579 1.27408 16.4732C1.3236 16.1885 1.44287 15.9204 1.62124 15.693C1.7996 15.4656 2.03152 15.2859 2.29626 15.17L2.67126 14.9837C2.84904 14.8969 3.05392 14.8839 3.24126 14.9475L6.88501 16.1762L9.78126 14.4262L6.81876 11.5512C6.60364 11.3531 6.44159 11.1043 6.34742 10.8274C6.25325 10.5506 6.22997 10.2545 6.2797 9.96632C6.32943 9.67814 6.45058 9.40702 6.6321 9.17772C6.81361 8.94843 7.04969 8.76828 7.31876 8.65374L7.34876 8.64123L8.24251 8.30248C8.41142 8.23955 8.59735 8.23955 8.76626 8.30248L15.6213 10.825L22.1688 6.91624C23.1438 6.33728 24.2945 6.12821 25.4109 6.32717C26.5273 6.52612 27.535 7.11984 28.25 7.99999L28.2613 8.01374L30.5913 11C30.6565 11.0836 30.7033 11.1801 30.7285 11.2831C30.7537 11.386 30.7568 11.4932 30.7375 11.5975ZM28.8863 11.25L27.0838 8.94124C26.5941 8.34051 25.9049 7.9357 25.1418 7.80056C24.3787 7.66542 23.5924 7.80894 22.9263 8.20499L16.075 12.295C15.979 12.3524 15.8713 12.3875 15.7599 12.3979C15.6485 12.4083 15.5362 12.3936 15.4313 12.355L8.50001 9.80623L7.88751 10.0375C7.851 10.0541 7.81927 10.0796 7.79524 10.1118C7.7712 10.1439 7.75565 10.1815 7.75001 10.2212C7.74293 10.2627 7.74643 10.3053 7.7602 10.3451C7.77397 10.3849 7.79755 10.4205 7.82876 10.4487L7.85001 10.4675L11.5188 14.0287C11.6011 14.1086 11.664 14.2063 11.7027 14.3142C11.7414 14.4222 11.7548 14.5376 11.7419 14.6516C11.7289 14.7656 11.69 14.8751 11.6282 14.9716C11.5663 15.0682 11.4831 15.1493 11.385 15.2087L7.36126 17.645C7.26827 17.701 7.16422 17.7361 7.05631 17.748C6.94841 17.7599 6.83921 17.7482 6.73626 17.7137L3.05501 16.4712L2.93876 16.5287L2.90376 16.545C2.86576 16.5614 2.83243 16.587 2.80676 16.6195C2.7811 16.652 2.7639 16.6903 2.75671 16.7311C2.74953 16.7718 2.75258 16.8138 2.76559 16.8531C2.7786 16.8924 2.80117 16.9278 2.83126 16.9562L2.84376 16.9675L7.34376 21.3775C7.85239 21.8567 8.50271 22.1579 9.1971 22.2362C9.8915 22.3144 10.5925 22.1653 11.195 21.8112L28.8863 11.25Z" fill="black"/>
</svg>
