<svg width="32" height="32" viewBox="0 0 32 32" fill="none" xmlns="http://www.w3.org/2000/svg">
<path d="M22 27C22 27.2652 21.8947 27.5196 21.7071 27.7071C21.5196 27.8946 21.2652 28 21 28H3.00001C2.7348 28 2.48044 27.8946 2.29291 27.7071C2.10537 27.5196 2.00001 27.2652 2.00001 27C2.00001 26.7348 2.10537 26.4804 2.29291 26.2929C2.48044 26.1054 2.7348 26 3.00001 26H21C21.2652 26 21.5196 26.1054 21.7071 26.2929C21.8947 26.4804 22 26.7348 22 27ZM30.9825 11.6437C30.9563 11.7829 30.9009 11.915 30.8199 12.0311C30.7389 12.1473 30.6341 12.2449 30.5125 12.3175L12.0863 23.3175C11.3182 23.7679 10.4442 24.006 9.55376 24.0075C8.28541 24.0061 7.06554 23.52 6.14376 22.6487L6.12876 22.6337L1.62501 18.225C1.38673 17.9987 1.20787 17.7172 1.10425 17.4053C1.00064 17.0935 0.975458 16.7609 1.03094 16.437C1.08643 16.1131 1.22087 15.8079 1.42238 15.5483C1.62388 15.2887 1.88624 15.0828 2.18626 14.9487L2.56126 14.765C2.79808 14.6487 3.07125 14.6308 3.32126 14.715L6.85376 15.9075L9.37501 14.3825L6.64626 11.7337C6.40086 11.5077 6.21593 11.2238 6.1083 10.9079C6.00068 10.5921 5.97378 10.2544 6.03007 9.92546C6.08635 9.59657 6.22403 9.28699 6.43056 9.02492C6.63708 8.76285 6.9059 8.55661 7.21251 8.42499L7.25251 8.40874L8.14626 8.06999C8.3716 7.98597 8.61968 7.98597 8.84501 8.06999L15.5875 10.5475L22.0338 6.69999C23.061 6.0886 24.274 5.86735 25.451 6.07667C26.628 6.28599 27.6903 6.9119 28.4438 7.83999L28.4588 7.85874L30.7888 10.845C30.8758 10.9568 30.9381 11.0858 30.9715 11.2235C31.0049 11.3612 31.0087 11.5045 30.9825 11.6437ZM28.515 11.1812L26.89 9.09749C26.4377 8.5442 25.802 8.17153 25.0982 8.04721C24.3945 7.92289 23.6695 8.05516 23.055 8.41999L16.205 12.51C16.0767 12.5861 15.9331 12.6327 15.7846 12.6465C15.6361 12.6604 15.4864 12.6411 15.3463 12.59L8.50001 10.0725L8.00001 10.2637L8.02626 10.2887L11.6963 13.85C11.8059 13.9565 11.8896 14.0867 11.941 14.2306C11.9925 14.3745 12.0103 14.5283 11.993 14.6801C11.9757 14.832 11.9239 14.9778 11.8415 15.1065C11.759 15.2352 11.6482 15.3433 11.5175 15.4225L7.49126 17.8587C7.36671 17.934 7.22724 17.9811 7.08259 17.9969C6.93794 18.0126 6.79159 17.9966 6.65376 17.95L3.07001 16.7412L3.04626 16.7537L3.00001 16.775C3.00604 16.7793 3.01149 16.7843 3.01626 16.79L7.51626 21.1975C7.98589 21.6388 8.58588 21.9161 9.22633 21.9877C9.86678 22.0594 10.5132 21.9216 11.0688 21.595L28.515 11.1812Z" fill="black"/>
</svg>
