<svg width="32" height="32" viewBox="0 0 32 32" fill="none" xmlns="http://www.w3.org/2000/svg">
<path d="M22.5 27C22.5 27.3978 22.342 27.7794 22.0606 28.0607C21.7793 28.342 21.3978 28.5 21 28.5H2.99999C2.60217 28.5 2.22064 28.342 1.93933 28.0607C1.65803 27.7794 1.49999 27.3978 1.49999 27C1.49999 26.6022 1.65803 26.2207 1.93933 25.9393C2.22064 25.658 2.60217 25.5 2.99999 25.5H21C21.3978 25.5 21.7793 25.658 22.0606 25.9393C22.342 26.2207 22.5 26.6022 22.5 27ZM31.4737 11.235C31.4347 11.4441 31.3517 11.6425 31.2302 11.8171C31.1086 11.9917 30.9513 12.1384 30.7687 12.2475L12.3437 23.25L12.3275 23.2588C11.3062 23.8584 10.1178 24.1102 8.9411 23.9763C7.76438 23.8424 6.66295 23.33 5.80249 22.5163L5.77874 22.4938L1.27874 18.0875C0.98235 17.8051 0.759852 17.4542 0.630795 17.0657C0.501737 16.6772 0.47007 16.2629 0.538575 15.8593C0.60708 15.4556 0.773662 15.075 1.02368 14.7508C1.27371 14.4266 1.59952 14.1688 1.97249 14L2.33999 13.82C2.69539 13.646 3.10514 13.6195 3.47999 13.7463L6.79249 14.8638L8.56124 13.7938L6.30249 11.5975C5.99694 11.3145 5.76694 10.9596 5.63339 10.5651C5.49984 10.1706 5.46696 9.74898 5.53774 9.33855C5.60853 8.92811 5.78074 8.54187 6.03872 8.21489C6.2967 7.88792 6.63229 7.63058 7.01499 7.46626L7.07499 7.44126L7.96874 7.10376C8.30731 6.97725 8.68017 6.97725 9.01874 7.10376L15.5362 9.50001L21.7775 5.77501C22.9073 5.10122 24.2419 4.85673 25.5372 5.08627C26.8324 5.3158 28.0018 6.00402 28.8312 7.02501C28.839 7.03362 28.8461 7.04282 28.8525 7.05251L31.1825 10.0375C31.3135 10.2049 31.4073 10.3983 31.4575 10.6048C31.5077 10.8113 31.5133 11.0262 31.4737 11.235ZM27.7725 10.5425L26.5 8.91126C26.1228 8.45154 25.5933 8.14226 25.0075 8.03952C24.4218 7.93677 23.8187 8.04737 23.3075 8.35125L16.4612 12.4388C16.2696 12.5543 16.0544 12.6255 15.8317 12.6472C15.6089 12.6688 15.3841 12.6403 15.1737 12.5638L9.42374 10.4463L12.0487 12.9963C12.2131 13.156 12.3387 13.3514 12.4158 13.5673C12.4929 13.7832 12.5195 14.0138 12.4935 14.2416C12.4676 14.4694 12.3898 14.6882 12.2661 14.8812C12.1424 15.0742 11.9761 15.2363 11.78 15.355L7.74999 17.7863C7.564 17.8983 7.35591 17.9686 7.1401 17.9923C6.92428 18.0161 6.70588 17.9927 6.49999 17.9238L4.83124 17.3613L7.86999 20.3363C8.26069 20.7014 8.75871 20.9308 9.29013 20.9905C9.82155 21.0501 10.358 20.9369 10.82 20.6675L27.7725 10.5425Z" fill="black"/>
</svg>
