<svg width="32" height="32" viewBox="0 0 32 32" fill="none" xmlns="http://www.w3.org/2000/svg">
<path d="M22 27C22 27.2652 21.8947 27.5196 21.7071 27.7071C21.5196 27.8946 21.2652 28 21 28H3.00001C2.7348 28 2.48044 27.8946 2.29291 27.7071C2.10537 27.5196 2.00001 27.2652 2.00001 27C2.00001 26.7348 2.10537 26.4804 2.29291 26.2929C2.48044 26.1054 2.7348 26 3.00001 26H21C21.2652 26 21.5196 26.1054 21.7071 26.2929C21.8947 26.4804 22 26.7348 22 27ZM30.7888 10.845L28.4588 7.85874L28.4438 7.83999C27.6903 6.9119 26.628 6.28599 25.451 6.07667C24.274 5.86735 23.061 6.0886 22.0338 6.69999L15.5875 10.5475L8.84501 8.06749C8.61968 7.98347 8.3716 7.98347 8.14626 8.06749L7.25001 8.40874L7.21001 8.42499C6.9034 8.55661 6.63458 8.76285 6.42806 9.02492C6.22153 9.28699 6.08385 9.59657 6.02757 9.92546C5.97128 10.2544 5.99818 10.5921 6.1058 10.9079C6.21343 11.2238 6.39836 11.5077 6.64376 11.7337L9.37501 14.3825L6.85376 15.9075L3.32126 14.715C3.07125 14.6308 2.79808 14.6487 2.56126 14.765L2.18626 14.9487C1.88624 15.0828 1.62388 15.2887 1.42238 15.5483C1.22087 15.8079 1.08643 16.1131 1.03094 16.437C0.975458 16.7609 1.00064 17.0935 1.10425 17.4053C1.20787 17.7172 1.38673 17.9987 1.62501 18.225L6.12501 22.6337L6.14001 22.6487C7.06179 23.52 8.28166 24.0061 9.55001 24.0075C10.4404 24.006 11.3144 23.7679 12.0825 23.3175L30.5088 12.3175C30.6304 12.2448 30.7351 12.1472 30.8161 12.031C30.8971 11.9148 30.9525 11.7827 30.9786 11.6435C31.0048 11.5043 31.001 11.3611 30.9676 11.2234C30.9342 11.0858 30.872 10.9568 30.785 10.845H30.7888Z" fill="black"/>
</svg>
