<svg width="32" height="32" viewBox="0 0 32 32" fill="none" xmlns="http://www.w3.org/2000/svg">
<path d="M21.5 27C21.5 27.1326 21.4473 27.2598 21.3536 27.3535C21.2598 27.4473 21.1326 27.5 21 27.5H3.00001C2.8674 27.5 2.74022 27.4473 2.64645 27.3535C2.55268 27.2598 2.50001 27.1326 2.50001 27C2.50001 26.8674 2.55268 26.7402 2.64645 26.6464C2.74022 26.5526 2.8674 26.5 3.00001 26.5H21C21.1326 26.5 21.2598 26.5526 21.3536 26.6464C21.4473 26.7402 21.5 26.8674 21.5 27ZM30.4913 11.5512C30.4783 11.6209 30.4506 11.6871 30.4101 11.7452C30.3695 11.8034 30.3171 11.8523 30.2563 11.8887L11.83 22.8887C11.1398 23.2927 10.3547 23.5062 9.55501 23.5075C8.4134 23.5062 7.3155 23.0683 6.48626 22.2837L1.96626 17.8612C1.7872 17.6909 1.65299 17.479 1.57556 17.2443C1.49813 17.0097 1.47988 16.7595 1.52243 16.5161C1.56498 16.2726 1.66702 16.0435 1.81946 15.849C1.97191 15.6545 2.17004 15.5007 2.39626 15.4012L2.78001 15.2137C2.897 15.1569 3.03151 15.148 3.15501 15.1887L6.90501 16.455L10.1875 14.475L6.98876 11.375C6.8035 11.2058 6.66363 10.9929 6.58193 10.7558C6.50023 10.5186 6.47931 10.2647 6.52109 10.0174C6.56288 9.77002 6.66603 9.5371 6.8211 9.33993C6.97618 9.14275 7.17822 8.98762 7.40876 8.88872L7.42876 8.88122L8.32251 8.54247C8.43536 8.5003 8.55965 8.5003 8.67251 8.54247L15.6388 11.1L22.29 7.12497C23.2145 6.57509 24.306 6.37632 25.365 6.56498C26.424 6.75365 27.3798 7.31715 28.0575 8.15247L30.3938 11.1525C30.4373 11.2083 30.4685 11.2726 30.4853 11.3414C30.5021 11.4101 30.5041 11.4816 30.4913 11.5512ZM29.2575 11.32L27.2763 8.77997C26.7488 8.13358 26.0067 7.69814 25.1851 7.55291C24.3635 7.40769 23.5171 7.56234 22.8 7.98872L15.9475 12.08C15.8834 12.1184 15.8115 12.1419 15.737 12.1488C15.6626 12.1557 15.5876 12.1459 15.5175 12.12L8.50001 9.53872L7.79251 9.80622C7.71699 9.84079 7.65127 9.89363 7.60129 9.95997C7.55131 10.0263 7.51864 10.104 7.50623 10.1862C7.49383 10.2683 7.50207 10.3522 7.53023 10.4304C7.55839 10.5085 7.60557 10.5784 7.66751 10.6337C7.67177 10.6386 7.67637 10.6432 7.68126 10.6475L11.35 14.2087C11.4048 14.262 11.4466 14.3272 11.4723 14.3991C11.4979 14.4711 11.5068 14.548 11.4981 14.6239C11.4894 14.6999 11.4634 14.7728 11.4221 14.8371C11.3809 14.9014 11.3254 14.9554 11.26 14.995L7.23251 17.43C7.17028 17.4677 7.10057 17.4914 7.02824 17.4994C6.95591 17.5073 6.88272 17.4994 6.81376 17.4762L3.03501 16.2012L2.82626 16.3037L2.80376 16.315C2.72751 16.3477 2.66062 16.399 2.60912 16.464C2.55761 16.5291 2.52311 16.6059 2.50873 16.6877C2.49434 16.7694 2.50052 16.8534 2.52671 16.9322C2.5529 17.0109 2.59828 17.0819 2.65876 17.1387L7.17751 21.5625C7.72524 22.0777 8.42524 22.4016 9.17255 22.4854C9.91986 22.5692 10.6742 22.4086 11.3225 22.0275L29.2575 11.32Z" fill="black"/>
</svg>
