<svg width="32" height="32" viewBox="0 0 32 32" fill="none" xmlns="http://www.w3.org/2000/svg">
<path d="M23.75 14.4138L27.1513 11.2125L27.1838 11.18C28.0163 10.3338 28.4808 9.19284 28.4759 8.00572C28.4711 6.81861 27.9974 5.68149 27.1579 4.84207C26.3185 4.00264 25.1814 3.52892 23.9943 3.52409C22.8072 3.51925 21.6662 3.9837 20.82 4.81626C20.8088 4.82626 20.7988 4.83751 20.7875 4.84876L17.5863 8.25001L7.5125 4.58876C7.24436 4.49133 6.954 4.47239 6.67547 4.53416C6.39695 4.59594 6.14181 4.73586 5.94 4.93751L2.94 7.93751C2.78233 8.09438 2.66152 8.28435 2.58631 8.49366C2.51111 8.70297 2.48339 8.92639 2.50516 9.14773C2.52694 9.36907 2.59766 9.58281 2.71222 9.77345C2.82677 9.96409 2.98229 10.1269 3.1675 10.25L10.6463 15.235L9.375 16.5H7C6.60249 16.5 6.22124 16.6578 5.94 16.9388L2.94 19.9388C2.76459 20.114 2.63536 20.3301 2.5639 20.5675C2.49244 20.805 2.48096 21.0565 2.5305 21.2995C2.58004 21.5424 2.68904 21.7694 2.84776 21.9599C3.00648 22.1504 3.20997 22.2986 3.44 22.3913L7.84375 24.1538L9.60125 28.5463L9.6125 28.5738C9.708 28.8043 9.8595 29.0073 10.0533 29.1645C10.247 29.3217 10.477 29.4281 10.7222 29.4741C10.9675 29.52 11.2203 29.504 11.4578 29.4275C11.6954 29.3511 11.9101 29.2166 12.0825 29.0363L15.0588 26.06C15.1983 25.921 15.3091 25.7558 15.3848 25.5739C15.4605 25.392 15.4997 25.197 15.5 25V22.625L16.7663 21.3588L21.75 28.8313C21.8731 29.0159 22.0356 29.171 22.2259 29.2852C22.4162 29.3995 22.6294 29.4701 22.8502 29.492C23.0711 29.5139 23.2941 29.4865 23.503 29.4118C23.712 29.3371 23.9018 29.2169 24.0588 29.06L27.0588 26.06C27.2606 25.8581 27.4007 25.6027 27.4625 25.324C27.5243 25.0452 27.5052 24.7546 27.4075 24.4863L23.75 14.4138ZM23.2363 25.645L18.25 18.1663C18.1269 17.9818 17.9643 17.8269 17.7741 17.7127C17.5839 17.5986 17.3707 17.5281 17.15 17.5063C17.1001 17.5016 17.0501 17.4995 17 17.5C16.8029 17.5 16.6077 17.5389 16.4256 17.6144C16.2435 17.6899 16.0781 17.8005 15.9388 17.94L12.9388 20.94C12.6578 21.2212 12.5 21.6025 12.5 22V24.375L11.5475 25.3275L10.3925 22.44C10.3171 22.2512 10.204 22.0797 10.0603 21.936C9.91651 21.7922 9.74504 21.6792 9.55625 21.6038L6.66875 20.4488L7.625 19.5H10C10.3975 19.5 10.7788 19.3422 11.06 19.0613L14.06 16.0613C14.2174 15.9044 14.3381 15.7145 14.4131 15.5053C14.4882 15.2961 14.5159 15.0729 14.4941 14.8517C14.4723 14.6305 14.4017 14.417 14.2872 14.2264C14.1728 14.0359 14.0175 13.8732 13.8325 13.75L6.355 8.76501L7.385 7.73376L17.4888 11.4075C17.7643 11.5078 18.0631 11.5251 18.3484 11.4573C18.6336 11.3896 18.8928 11.2397 19.0938 11.0263L22.955 6.92376C23.2368 6.64197 23.619 6.48366 24.0175 6.48366C24.416 6.48366 24.7982 6.64197 25.08 6.92376C25.3618 7.20555 25.5201 7.58775 25.5201 7.98626C25.5201 8.38477 25.3618 8.76697 25.08 9.04876L20.9775 12.91C20.7638 13.1109 20.6137 13.3699 20.5458 13.6552C20.4778 13.9405 20.4949 14.2394 20.595 14.515L24.27 24.6175L23.2363 25.645Z" fill="black"/>
</svg>
