<svg width="32" height="32" viewBox="0 0 32 32" fill="none" xmlns="http://www.w3.org/2000/svg">
<path d="M28.4338 8C28.2728 7.76882 28.0584 7.57992 27.8088 7.44934C27.5592 7.31877 27.2817 7.25038 27 7.25H16.75V2.75H19C19.1989 2.75 19.3897 2.67098 19.5303 2.53033C19.671 2.38968 19.75 2.19891 19.75 2C19.75 1.80109 19.671 1.61032 19.5303 1.46967C19.3897 1.32902 19.1989 1.25 19 1.25H13C12.8011 1.25 12.6103 1.32902 12.4697 1.46967C12.329 1.61032 12.25 1.80109 12.25 2C12.25 2.19891 12.329 2.38968 12.4697 2.53033C12.6103 2.67098 12.8011 2.75 13 2.75H15.25V7.25H5.00001C4.71876 7.24997 4.44164 7.31774 4.19214 7.44755C3.94264 7.57736 3.7281 7.76539 3.56669 7.99572C3.40529 8.22605 3.30178 8.49189 3.26493 8.77072C3.22808 9.04955 3.25898 9.33315 3.35501 9.5975L6.62876 18.5975C6.75138 18.9351 6.97488 19.2267 7.26894 19.4329C7.563 19.6391 7.91337 19.7498 8.27251 19.75H12.25V28C12.25 28.1989 12.329 28.3897 12.4697 28.5303C12.6103 28.671 12.8011 28.75 13 28.75C13.1989 28.75 13.3897 28.671 13.5303 28.5303C13.671 28.3897 13.75 28.1989 13.75 28V19.75H18.25V28C18.25 28.1989 18.329 28.3897 18.4697 28.5303C18.6103 28.671 18.8011 28.75 19 28.75C19.1989 28.75 19.3897 28.671 19.5303 28.5303C19.671 28.3897 19.75 28.1989 19.75 28V19.75H23.7275C24.0873 19.7505 24.4385 19.6402 24.7333 19.434C25.0281 19.2277 25.2522 18.9357 25.375 18.5975L28.6488 9.5975C28.7436 9.33349 28.7736 9.05054 28.7361 8.77252C28.6987 8.4945 28.595 8.22955 28.4338 8ZM13.625 18.25L11.8988 8.75H20.1013L18.375 18.25H13.625ZM8.03751 18.085L4.76501 9.085C4.75127 9.04727 4.74682 9.00677 4.75204 8.96696C4.75727 8.92714 4.772 8.88917 4.79501 8.85625C4.81765 8.82289 4.84826 8.79571 4.88405 8.77716C4.91985 8.75861 4.9597 8.74927 5.00001 8.75H10.375L12.1025 18.25H8.27251C8.22113 18.25 8.17101 18.2341 8.12896 18.2046C8.08691 18.1751 8.05498 18.1333 8.03751 18.085ZM27.235 9.085L23.9625 18.085C23.945 18.1333 23.9131 18.1751 23.8711 18.2046C23.829 18.2341 23.7789 18.25 23.7275 18.25H19.8988L21.625 8.75H27C27.0403 8.74927 27.0802 8.75861 27.116 8.77716C27.1518 8.79571 27.1824 8.82289 27.205 8.85625C27.228 8.88917 27.2428 8.92714 27.248 8.96696C27.2532 9.00677 27.2488 9.04727 27.235 9.085Z" fill="black"/>
</svg>
