<svg width="32" height="32" viewBox="0 0 32 32" fill="none" xmlns="http://www.w3.org/2000/svg">
<path d="M28.6387 7.8525C28.4543 7.58913 28.209 7.37413 27.9237 7.22572C27.6384 7.07732 27.3216 6.99989 27 7H17V3H19C19.2652 3 19.5196 2.89464 19.7071 2.70711C19.8946 2.51957 20 2.26522 20 2C20 1.73478 19.8946 1.48043 19.7071 1.29289C19.5196 1.10536 19.2652 1 19 1H13C12.7348 1 12.4804 1.10536 12.2929 1.29289C12.1054 1.48043 12 1.73478 12 2C12 2.26522 12.1054 2.51957 12.2929 2.70711C12.4804 2.89464 12.7348 3 13 3H15V7H5C4.67888 7.00072 4.36266 7.07875 4.07807 7.2275C3.79348 7.37624 3.54889 7.59132 3.36498 7.85456C3.18107 8.11779 3.06325 8.42144 3.02148 8.73983C2.97971 9.05822 3.01521 9.38198 3.125 9.68375L6.39875 18.6838C6.53882 19.0688 6.79377 19.4015 7.12912 19.6369C7.46447 19.8723 7.86402 19.9991 8.27375 20H12V28C12 28.2652 12.1054 28.5196 12.2929 28.7071C12.4804 28.8946 12.7348 29 13 29C13.2652 29 13.5196 28.8946 13.7071 28.7071C13.8946 28.5196 14 28.2652 14 28V20H18V28C18 28.2652 18.1054 28.5196 18.2929 28.7071C18.4804 28.8946 18.7348 29 19 29C19.2652 29 19.5196 28.8946 19.7071 28.7071C19.8946 28.5196 20 28.2652 20 28V20H23.7275C24.1372 19.9991 24.5368 19.8723 24.8721 19.6369C25.2075 19.4015 25.4624 19.0688 25.6025 18.6838L28.8762 9.68375C28.9867 9.38189 29.0228 9.05785 28.9815 8.73907C28.9402 8.4203 28.8226 8.11619 28.6387 7.8525ZM13.835 18L12.1975 9H19.8025L18.165 18H13.835ZM5 9H10.165L11.8012 18H8.2725L5 9ZM23.7275 18H20.1987L21.835 9H27L23.7275 18Z" fill="black"/>
</svg>
