<svg width="32" height="32" viewBox="0 0 32 32" fill="none" xmlns="http://www.w3.org/2000/svg">
<path d="M29.0475 7.565C28.8169 7.23603 28.5104 6.96748 28.154 6.78209C27.7976 6.5967 27.4017 6.49994 27 6.5H17.5V3.5H19C19.3978 3.5 19.7793 3.34196 20.0606 3.06066C20.342 2.77936 20.5 2.39782 20.5 2C20.5 1.60218 20.342 1.22064 20.0606 0.93934C19.7793 0.658035 19.3978 0.5 19 0.5H13C12.6022 0.5 12.2206 0.658035 11.9393 0.93934C11.658 1.22064 11.5 1.60218 11.5 2C11.5 2.39782 11.658 2.77936 11.9393 3.06066C12.2206 3.34196 12.6022 3.5 13 3.5H14.5V6.5H4.99999C4.59818 6.49995 4.20228 6.59676 3.84583 6.78221C3.48938 6.96767 3.18288 7.2363 2.9523 7.56537C2.72172 7.89444 2.57385 8.27423 2.52123 8.67258C2.4686 9.07093 2.51277 9.4761 2.64999 9.85375L5.92374 18.8538C6.09989 19.3354 6.41951 19.7515 6.83949 20.0459C7.25948 20.3402 7.75962 20.4987 8.27249 20.5H11.5V28C11.5 28.3978 11.658 28.7794 11.9393 29.0607C12.2206 29.342 12.6022 29.5 13 29.5C13.3978 29.5 13.7793 29.342 14.0607 29.0607C14.342 28.7794 14.5 28.3978 14.5 28V20.5H17.5V28C17.5 28.3978 17.658 28.7794 17.9393 29.0607C18.2206 29.342 18.6022 29.5 19 29.5C19.3978 29.5 19.7793 29.342 20.0606 29.0607C20.342 28.7794 20.5 28.3978 20.5 28V20.5H23.7275C24.2404 20.4987 24.7405 20.3402 25.1605 20.0459C25.5805 19.7515 25.9001 19.3354 26.0762 18.8538L29.35 9.85375C29.4872 9.47603 29.5314 9.07079 29.4788 8.67237C29.4261 8.27395 29.2782 7.89409 29.0475 7.565ZM14.25 17.5L12.7975 9.5H19.2025L17.75 17.5H14.25ZM5.71374 9.5H9.74999L11.205 17.5H8.62499L5.71374 9.5ZM23.375 17.5H20.7975L22.25 9.5H26.2837L23.375 17.5Z" fill="black"/>
</svg>
