<svg width="32" height="32" viewBox="0 0 32 32" fill="none" xmlns="http://www.w3.org/2000/svg">
<path d="M16 4.50003C13.7255 4.50003 11.5021 5.1745 9.61098 6.43813C7.71981 7.70177 6.24583 9.49782 5.37542 11.5992C4.50501 13.7005 4.27727 16.0128 4.721 18.2436C5.16473 20.4744 6.26 22.5235 7.86831 24.1318C9.47661 25.7401 11.5257 26.8353 13.7565 27.2791C15.9873 27.7228 18.2995 27.4951 20.4009 26.6246C22.5022 25.7542 24.2983 24.2803 25.5619 22.3891C26.8256 20.4979 27.5 18.2745 27.5 16C27.4967 12.9511 26.2841 10.0279 24.1281 7.87196C21.9722 5.71601 19.049 4.50334 16 4.50003ZM16 26.5C13.9233 26.5 11.8933 25.8842 10.1665 24.7305C8.43983 23.5767 7.09402 21.9368 6.2993 20.0182C5.50458 18.0996 5.29664 15.9884 5.70179 13.9516C6.10693 11.9148 7.10696 10.0439 8.57541 8.57541C10.0439 7.10696 11.9148 6.10693 13.9516 5.70179C15.9884 5.29664 18.0996 5.50458 20.0182 6.2993C21.9368 7.09402 23.5767 8.43983 24.7305 10.1665C25.8842 11.8933 26.5 13.9233 26.5 16C26.4971 18.7839 25.3899 21.4529 23.4214 23.4214C21.4529 25.3899 18.7839 26.4971 16 26.5ZM7.35378 3.35378L3.35378 7.35378C3.25996 7.4476 3.13272 7.50031 3.00003 7.50031C2.86735 7.50031 2.7401 7.4476 2.64628 7.35378C2.55246 7.25996 2.49976 7.13272 2.49976 7.00003C2.49976 6.86735 2.55246 6.7401 2.64628 6.64628L6.64628 2.64628C6.7401 2.55246 6.86735 2.49976 7.00003 2.49976C7.13272 2.49976 7.25996 2.55246 7.35378 2.64628C7.4476 2.7401 7.50031 2.86735 7.50031 3.00003C7.50031 3.13272 7.4476 3.25996 7.35378 3.35378ZM29.3538 7.35378C29.3073 7.40027 29.2522 7.43715 29.1915 7.46231C29.1308 7.48748 29.0657 7.50043 29 7.50043C28.9343 7.50043 28.8693 7.48748 28.8086 7.46231C28.7479 7.43715 28.6927 7.40027 28.6463 7.35378L24.6463 3.35378C24.5525 3.25996 24.4998 3.13272 24.4998 3.00003C24.4998 2.86735 24.5525 2.7401 24.6463 2.64628C24.7401 2.55246 24.8674 2.49976 25 2.49976C25.1327 2.49976 25.26 2.55246 25.3538 2.64628L29.3538 6.64628C29.4003 6.69272 29.4372 6.74786 29.4623 6.80856C29.4875 6.86926 29.5004 6.93433 29.5004 7.00003C29.5004 7.06574 29.4875 7.13081 29.4623 7.1915C29.4372 7.2522 29.4003 7.30735 29.3538 7.35378ZM23.5 16C23.5 16.1326 23.4474 16.2598 23.3536 16.3536C23.2598 16.4474 23.1326 16.5 23 16.5H16C15.8674 16.5 15.7402 16.4474 15.6465 16.3536C15.5527 16.2598 15.5 16.1326 15.5 16V9.00003C15.5 8.86743 15.5527 8.74025 15.6465 8.64648C15.7402 8.55271 15.8674 8.50003 16 8.50003C16.1326 8.50003 16.2598 8.55271 16.3536 8.64648C16.4474 8.74025 16.5 8.86743 16.5 9.00003V15.5H23C23.1326 15.5 23.2598 15.5527 23.3536 15.6465C23.4474 15.7402 23.5 15.8674 23.5 16Z" fill="black"/>
</svg>
