<svg width="32" height="32" viewBox="0 0 32 32" fill="none" xmlns="http://www.w3.org/2000/svg">
<path d="M16.0001 4.24997C13.6762 4.24997 11.4044 4.93909 9.47214 6.2302C7.53986 7.52131 6.03384 9.35641 5.14451 11.5034C4.25518 13.6505 4.02249 16.013 4.47586 18.2923C4.92924 20.5716 6.04832 22.6652 7.69159 24.3085C9.33485 25.9517 11.4285 27.0708 13.7078 27.5242C15.9871 27.9776 18.3496 27.7449 20.4966 26.8556C22.6437 25.9662 24.4788 24.4602 25.7699 22.5279C27.061 20.5956 27.7501 18.3239 27.7501 16C27.7465 12.8848 26.5073 9.89825 24.3046 7.69548C22.1018 5.49272 19.1153 4.25361 16.0001 4.24997ZM16.0001 26.25C13.9728 26.25 11.9911 25.6488 10.3055 24.5225C8.61989 23.3962 7.30612 21.7954 6.53033 19.9225C5.75453 18.0495 5.55154 15.9886 5.94704 14.0003C6.34254 12.012 7.31876 10.1856 8.75225 8.75212C10.1857 7.31864 12.0121 6.34242 14.0004 5.94692C15.9887 5.55142 18.0497 5.75441 19.9226 6.5302C21.7955 7.306 23.3964 8.61977 24.5227 10.3054C25.6489 11.991 26.2501 13.9727 26.2501 16C26.2468 18.7174 25.1658 21.3226 23.2443 23.2442C21.3228 25.1657 18.7175 26.2467 16.0001 26.25ZM7.53009 3.52997L3.53009 7.52997C3.38792 7.66245 3.19987 7.73457 3.00557 7.73114C2.81127 7.72772 2.62588 7.649 2.48847 7.51159C2.35106 7.37418 2.27234 7.18879 2.26892 6.99449C2.26549 6.80019 2.33761 6.61214 2.47009 6.46997L6.47009 2.46997C6.61227 2.33749 6.80031 2.26537 6.99461 2.26879C7.18891 2.27222 7.3743 2.35093 7.51171 2.48835C7.64913 2.62576 7.72784 2.81114 7.73127 3.00545C7.73469 3.19975 7.66257 3.38779 7.53009 3.52997ZM29.5301 7.52997C29.3895 7.67042 29.1988 7.74931 29.0001 7.74931C28.8013 7.74931 28.6107 7.67042 28.4701 7.52997L24.4701 3.52997C24.3376 3.38779 24.2655 3.19975 24.2689 3.00545C24.2723 2.81114 24.3511 2.62576 24.4885 2.48835C24.6259 2.35093 24.8113 2.27222 25.0056 2.26879C25.1999 2.26537 25.3879 2.33749 25.5301 2.46997L29.5301 6.46997C29.6705 6.61059 29.7494 6.80122 29.7494 6.99997C29.7494 7.19872 29.6705 7.38934 29.5301 7.52997ZM23.0001 15.25C23.199 15.25 23.3898 15.329 23.5304 15.4696C23.6711 15.6103 23.7501 15.8011 23.7501 16C23.7501 16.1989 23.6711 16.3896 23.5304 16.5303C23.3898 16.671 23.199 16.75 23.0001 16.75H16.0001C15.8012 16.75 15.6104 16.671 15.4698 16.5303C15.3291 16.3896 15.2501 16.1989 15.2501 16V8.99997C15.2501 8.80106 15.3291 8.61029 15.4698 8.46964C15.6104 8.32899 15.8012 8.24997 16.0001 8.24997C16.199 8.24997 16.3898 8.32899 16.5304 8.46964C16.6711 8.61029 16.7501 8.80106 16.7501 8.99997V15.25H23.0001Z" fill="black"/>
</svg>
