<svg width="32" height="32" viewBox="0 0 32 32" fill="none" xmlns="http://www.w3.org/2000/svg">
<path d="M15.9999 3.49995C13.5277 3.49995 11.1109 4.23306 9.05532 5.60658C6.9997 6.98009 5.39755 8.93233 4.45145 11.2164C3.50536 13.5005 3.25781 16.0138 3.74013 18.4386C4.22245 20.8633 5.41295 23.0906 7.16111 24.8388C8.90927 26.5869 11.1366 27.7774 13.5613 28.2598C15.9861 28.7421 18.4994 28.4945 20.7835 27.5484C23.0676 26.6023 25.0198 25.0002 26.3933 22.9446C27.7668 20.889 28.4999 18.4722 28.4999 15.9999C28.4963 12.6859 27.1782 9.50855 24.8348 7.16513C22.4913 4.82171 19.314 3.50359 15.9999 3.49995ZM15.9999 25.4999C14.121 25.4999 12.2843 24.9428 10.722 23.8989C9.15976 22.855 7.94212 21.3713 7.22309 19.6354C6.50406 17.8995 6.31593 15.9894 6.68249 14.1466C7.04905 12.3038 7.95383 10.611 9.28243 9.28243C10.611 7.95383 12.3038 7.04905 14.1466 6.68249C15.9894 6.31593 17.8995 6.50406 19.6354 7.22309C21.3713 7.94212 22.855 9.15976 23.8989 10.722C24.9428 12.2843 25.4999 14.121 25.4999 15.9999C25.4973 18.5187 24.4956 20.9335 22.7145 22.7145C20.9335 24.4956 18.5187 25.4973 15.9999 25.4999ZM4.0612 8.0612C3.92167 8.20073 3.75602 8.31141 3.57372 8.38692C3.39141 8.46243 3.19602 8.5013 2.9987 8.5013C2.80137 8.5013 2.60598 8.46243 2.42367 8.38692C2.24137 8.31141 2.07573 8.20073 1.9362 8.0612C1.79667 7.92167 1.68599 7.75602 1.61047 7.57372C1.53496 7.39141 1.49609 7.19602 1.49609 6.9987C1.49609 6.80137 1.53496 6.60598 1.61047 6.42367C1.68599 6.24137 1.79667 6.07573 1.9362 5.9362L5.9362 1.9362C6.21799 1.6544 6.60018 1.49609 6.9987 1.49609C7.39721 1.49609 7.7794 1.6544 8.0612 1.9362C8.34299 2.21799 8.5013 2.60018 8.5013 2.9987C8.5013 3.39721 8.34299 3.7794 8.0612 4.0612L4.0612 8.0612ZM30.0612 8.0612C29.9218 8.20104 29.7563 8.31199 29.5739 8.3877C29.3916 8.46341 29.1961 8.50238 28.9987 8.50238C28.8013 8.50238 28.6058 8.46341 28.4235 8.3877C28.2411 8.31199 28.0756 8.20104 27.9362 8.0612L23.9362 4.0612C23.6544 3.7794 23.4961 3.39721 23.4961 2.9987C23.4961 2.60018 23.6544 2.21799 23.9362 1.9362C24.218 1.6544 24.6002 1.49609 24.9987 1.49609C25.3972 1.49609 25.7794 1.6544 26.0612 1.9362L30.0612 5.9362C30.201 6.07555 30.312 6.24114 30.3877 6.42347C30.4634 6.6058 30.5024 6.80127 30.5024 6.9987C30.5024 7.19612 30.4634 7.3916 30.3877 7.57392C30.312 7.75625 30.201 7.92184 30.0612 8.0612ZM21.9999 14.4999C22.3978 14.4999 22.7793 14.658 23.0606 14.9393C23.3419 15.2206 23.4999 15.6021 23.4999 15.9999C23.4999 16.3978 23.3419 16.7793 23.0606 17.0606C22.7793 17.3419 22.3978 17.4999 21.9999 17.4999H15.9999C15.6021 17.4999 15.2206 17.3419 14.9393 17.0606C14.658 16.7793 14.4999 16.3978 14.4999 15.9999V9.99995C14.4999 9.60212 14.658 9.22059 14.9393 8.93929C15.2206 8.65798 15.6021 8.49995 15.9999 8.49995C16.3978 8.49995 16.7793 8.65798 17.0606 8.93929C17.3419 9.22059 17.4999 9.60212 17.4999 9.99995V14.4999H21.9999Z" fill="black"/>
</svg>
