<svg width="32" height="32" viewBox="0 0 32 32" fill="none" xmlns="http://www.w3.org/2000/svg">
<path d="M7.70757 3.70745L3.70757 7.70745C3.61466 7.80036 3.50436 7.87406 3.38296 7.92434C3.26157 7.97462 3.13146 8.0005 3.00007 8.0005C2.86867 8.0005 2.73856 7.97462 2.61717 7.92434C2.49578 7.87406 2.38548 7.80036 2.29257 7.70745C2.10493 7.5198 1.99951 7.26531 1.99951 6.99995C1.99951 6.73458 2.10493 6.48009 2.29257 6.29245L6.29257 2.29245C6.38548 2.19954 6.49578 2.12584 6.61717 2.07555C6.73856 2.02527 6.86867 1.99939 7.00007 1.99939C7.13146 1.99939 7.26157 2.02527 7.38296 2.07555C7.50436 2.12584 7.61466 2.19954 7.70757 2.29245C7.80048 2.38536 7.87418 2.49566 7.92446 2.61705C7.97474 2.73844 8.00062 2.86855 8.00062 2.99995C8.00062 3.13134 7.97474 3.26145 7.92446 3.38284C7.87418 3.50424 7.80048 3.61454 7.70757 3.70745ZM29.7076 6.29245L25.7076 2.29245C25.5199 2.10481 25.2654 1.99939 25.0001 1.99939C24.7347 1.99939 24.4802 2.10481 24.2926 2.29245C24.1049 2.48009 23.9995 2.73458 23.9995 2.99995C23.9995 3.26531 24.1049 3.51981 24.2926 3.70745L28.2926 7.70745C28.3855 7.80036 28.4958 7.87406 28.6172 7.92434C28.7386 7.97462 28.8687 8.0005 29.0001 8.0005C29.1315 8.0005 29.2616 7.97462 29.383 7.92434C29.5044 7.87406 29.6147 7.80036 29.7076 7.70745C29.8005 7.61454 29.8742 7.50424 29.9245 7.38284C29.9747 7.26145 30.0006 7.13134 30.0006 6.99995C30.0006 6.86855 29.9747 6.73844 29.9245 6.61705C29.8742 6.49566 29.8005 6.38536 29.7076 6.29245ZM28.0001 15.9999C28.0001 18.3733 27.2963 20.6934 25.9777 22.6668C24.6591 24.6402 22.785 26.1782 20.5923 27.0865C18.3996 27.9948 15.9868 28.2324 13.659 27.7694C11.3312 27.3063 9.19302 26.1635 7.51479 24.4852C5.83656 22.807 4.69367 20.6688 4.23064 18.341C3.76762 16.0133 4.00526 13.6005 4.91351 11.4077C5.82176 9.21503 7.35984 7.34089 9.33323 6.02231C11.3066 4.70373 13.6267 3.99995 16.0001 3.99995C19.1815 4.00358 22.2317 5.26904 24.4813 7.51868C26.731 9.76833 27.9964 12.8185 28.0001 15.9999ZM24.0001 15.9999C24.0001 15.7347 23.8947 15.4804 23.7072 15.2928C23.5196 15.1053 23.2653 14.9999 23.0001 14.9999H17.0001V8.99995C17.0001 8.73473 16.8947 8.48038 16.7072 8.29284C16.5196 8.1053 16.2653 7.99995 16.0001 7.99995C15.7349 7.99995 15.4805 8.1053 15.293 8.29284C15.1054 8.48038 15.0001 8.73473 15.0001 8.99995V15.9999C15.0001 16.2652 15.1054 16.5195 15.293 16.7071C15.4805 16.8946 15.7349 16.9999 16.0001 16.9999H23.0001C23.2653 16.9999 23.5196 16.8946 23.7072 16.7071C23.8947 16.5195 24.0001 16.2652 24.0001 15.9999Z" fill="black"/>
</svg>
