<svg width="32" height="32" viewBox="0 0 32 32" fill="none" xmlns="http://www.w3.org/2000/svg">
<path opacity="0.08" d="M27 16C27 18.1756 26.3549 20.3023 25.1462 22.1113C23.9375 23.9202 22.2195 25.3301 20.2095 26.1627C18.1995 26.9952 15.9878 27.2131 13.854 26.7886C11.7202 26.3642 9.76021 25.3166 8.22183 23.7782C6.68345 22.2398 5.6358 20.2798 5.21137 18.146C4.78693 16.0122 5.00477 13.8005 5.83733 11.7905C6.66989 9.7805 8.07979 8.06253 9.88873 6.85383C11.6977 5.64514 13.8244 5 16 5C18.9174 5 21.7153 6.15893 23.7782 8.22183C25.8411 10.2847 27 13.0826 27 16Z" fill="black"/>
<path d="M16.0001 3.99995C13.6267 3.99995 11.3066 4.70373 9.33323 6.02231C7.35984 7.34089 5.82176 9.21503 4.91351 11.4077C4.00526 13.6005 3.76762 16.0133 4.23064 18.341C4.69367 20.6688 5.83656 22.807 7.51479 24.4852C9.19302 26.1635 11.3312 27.3063 13.659 27.7694C15.9868 28.2324 18.3996 27.9948 20.5923 27.0865C22.785 26.1782 24.6591 24.6402 25.9777 22.6668C27.2963 20.6934 28.0001 18.3733 28.0001 15.9999C27.9964 12.8185 26.731 9.76833 24.4813 7.51868C22.2317 5.26904 19.1815 4.00358 16.0001 3.99995ZM16.0001 25.9999C14.0223 25.9999 12.0889 25.4135 10.4444 24.3146C8.79987 23.2158 7.51815 21.654 6.76127 19.8268C6.0044 17.9995 5.80636 15.9889 6.19221 14.049C6.57807 12.1092 7.53047 10.3274 8.929 8.92888C10.3275 7.53035 12.1094 6.57795 14.0492 6.19209C15.989 5.80624 17.9996 6.00427 19.8269 6.76115C21.6542 7.51803 23.216 8.79975 24.3148 10.4442C25.4136 12.0887 26.0001 14.0221 26.0001 15.9999C25.9971 18.6512 24.9426 21.193 23.0678 23.0677C21.1931 24.9424 18.6513 25.997 16.0001 25.9999ZM7.70757 3.70745L3.70757 7.70745C3.61466 7.80036 3.50436 7.87406 3.38296 7.92434C3.26157 7.97462 3.13146 8.0005 3.00007 8.0005C2.86867 8.0005 2.73856 7.97462 2.61717 7.92434C2.49578 7.87406 2.38548 7.80036 2.29257 7.70745C2.10493 7.5198 1.99951 7.26531 1.99951 6.99995C1.99951 6.73458 2.10493 6.48009 2.29257 6.29245L6.29257 2.29245C6.38548 2.19954 6.49578 2.12584 6.61717 2.07555C6.73856 2.02527 6.86867 1.99939 7.00007 1.99939C7.13146 1.99939 7.26157 2.02527 7.38296 2.07555C7.50436 2.12584 7.61466 2.19954 7.70757 2.29245C7.80048 2.38536 7.87418 2.49566 7.92446 2.61705C7.97474 2.73844 8.00062 2.86855 8.00062 2.99995C8.00062 3.13134 7.97474 3.26145 7.92446 3.38284C7.87418 3.50424 7.80048 3.61454 7.70757 3.70745ZM29.7076 7.70745C29.6147 7.80042 29.5044 7.87418 29.383 7.92451C29.2616 7.97483 29.1315 8.00073 29.0001 8.00073C28.8687 8.00073 28.7385 7.97483 28.6171 7.92451C28.4957 7.87418 28.3854 7.80042 28.2926 7.70745L24.2926 3.70745C24.1049 3.51981 23.9995 3.26531 23.9995 2.99995C23.9995 2.73458 24.1049 2.48009 24.2926 2.29245C24.4802 2.10481 24.7347 1.99939 25.0001 1.99939C25.2654 1.99939 25.5199 2.10481 25.7076 2.29245L29.7076 6.29245C29.8005 6.38532 29.8743 6.49561 29.9246 6.61701C29.975 6.7384 30.0009 6.86853 30.0009 6.99995C30.0009 7.13136 29.975 7.26149 29.9246 7.38289C29.8743 7.50428 29.8005 7.61457 29.7076 7.70745ZM23.0001 14.9999C23.2653 14.9999 23.5196 15.1053 23.7072 15.2928C23.8947 15.4804 24.0001 15.7347 24.0001 15.9999C24.0001 16.2652 23.8947 16.5195 23.7072 16.7071C23.5196 16.8946 23.2653 16.9999 23.0001 16.9999H16.0001C15.7349 16.9999 15.4805 16.8946 15.293 16.7071C15.1054 16.5195 15.0001 16.2652 15.0001 15.9999V8.99995C15.0001 8.73473 15.1054 8.48038 15.293 8.29284C15.4805 8.1053 15.7349 7.99995 16.0001 7.99995C16.2653 7.99995 16.5196 8.1053 16.7072 8.29284C16.8947 8.48038 17.0001 8.73473 17.0001 8.99995V14.9999H23.0001Z" fill="black"/>
</svg>
