<svg width="32" height="32" viewBox="0 0 32 32" fill="none" xmlns="http://www.w3.org/2000/svg">
<path d="M16 1.5C12.6859 1.50364 9.5086 2.82177 7.16518 5.16518C4.82177 7.5086 3.50364 10.6859 3.5 14C3.5 17.1075 5.1075 21.1 7.80125 24.68C8.82875 26.045 12.455 30.5 16 30.5C19.545 30.5 23.1712 26.045 24.1987 24.68C26.8925 21.1 28.5 17.1075 28.5 14C28.4964 10.6859 27.1782 7.5086 24.8348 5.16518C22.4914 2.82177 19.3141 1.50364 16 1.5ZM21.8013 22.875C20.0725 25.1725 17.525 27.5 16 27.5C14.475 27.5 11.9275 25.1737 10.1987 22.875C7.9175 19.8438 6.5 16.4425 6.5 14C6.5 11.4804 7.50089 9.06408 9.28249 7.28249C11.0641 5.50089 13.4804 4.5 16 4.5C18.5196 4.5 20.9359 5.50089 22.7175 7.28249C24.4991 9.06408 25.5 11.4804 25.5 14C25.5 16.4425 24.0825 19.8438 21.8013 22.875ZM13 18.5C11.8065 18.5 10.6619 18.0259 9.81802 17.182C8.97411 16.3381 8.5 15.1935 8.5 14C8.5 13.6022 8.65804 13.2206 8.93934 12.9393C9.22064 12.658 9.60218 12.5 10 12.5C11.1935 12.5 12.3381 12.9741 13.182 13.818C14.0259 14.6619 14.5 15.8065 14.5 17C14.5 17.3978 14.342 17.7794 14.0607 18.0607C13.7794 18.342 13.3978 18.5 13 18.5ZM23.5 14C23.5 15.1935 23.0259 16.3381 22.182 17.182C21.3381 18.0259 20.1935 18.5 19 18.5C18.6022 18.5 18.2206 18.342 17.9393 18.0607C17.658 17.7794 17.5 17.3978 17.5 17C17.5 15.8065 17.9741 14.6619 18.818 13.818C19.6619 12.9741 20.8065 12.5 22 12.5C22.3978 12.5 22.7794 12.658 23.0607 12.9393C23.342 13.2206 23.5 13.6022 23.5 14ZM19 23C19 23.3978 18.842 23.7794 18.5607 24.0607C18.2794 24.342 17.8978 24.5 17.5 24.5H14.5C14.1022 24.5 13.7206 24.342 13.4393 24.0607C13.158 23.7794 13 23.3978 13 23C13 22.6022 13.158 22.2206 13.4393 21.9393C13.7206 21.658 14.1022 21.5 14.5 21.5H17.5C17.8978 21.5 18.2794 21.658 18.5607 21.9393C18.842 22.2206 19 22.6022 19 23Z" fill="black"/>
</svg>
