<svg width="32" height="32" viewBox="0 0 32 32" fill="none" xmlns="http://www.w3.org/2000/svg">
<path d="M26.5 29C26.5 29.3978 26.342 29.7794 26.0607 30.0607C25.7794 30.342 25.3978 30.5 25 30.5H7C6.60218 30.5 6.22064 30.342 5.93934 30.0607C5.65804 29.7794 5.5 29.3978 5.5 29C5.5 28.6022 5.65804 28.2206 5.93934 27.9393C6.22064 27.658 6.60218 27.5 7 27.5H25C25.3978 27.5 25.7794 27.658 26.0607 27.9393C26.342 28.2206 26.5 28.6022 26.5 29ZM9.5 23V5C9.5 4.33696 9.76339 3.70107 10.2322 3.23223C10.7011 2.76339 11.337 2.5 12 2.5H20C20.663 2.5 21.2989 2.76339 21.7678 3.23223C22.2366 3.70107 22.5 4.33696 22.5 5V23C22.5 23.663 22.2366 24.2989 21.7678 24.7678C21.2989 25.2366 20.663 25.5 20 25.5H12C11.337 25.5 10.7011 25.2366 10.2322 24.7678C9.76339 24.2989 9.5 23.663 9.5 23ZM12.5 22.5H19.5V5.5H12.5V22.5Z" fill="black"/>
</svg>
