<svg width="32" height="32" viewBox="0 0 32 32" fill="none" xmlns="http://www.w3.org/2000/svg">
<path d="M29.5 7V25C29.5 25.3978 29.342 25.7794 29.0607 26.0607C28.7794 26.342 28.3978 26.5 28 26.5C27.6022 26.5 27.2206 26.342 26.9393 26.0607C26.658 25.7794 26.5 25.3978 26.5 25V7C26.5 6.60218 26.658 6.22064 26.9393 5.93934C27.2206 5.65804 27.6022 5.5 28 5.5C28.3978 5.5 28.7794 5.65804 29.0607 5.93934C29.342 6.22064 29.5 6.60218 29.5 7ZM24.5 12V20C24.5 20.663 24.2366 21.2989 23.7678 21.7678C23.2989 22.2366 22.663 22.5 22 22.5H4C3.33696 22.5 2.70107 22.2366 2.23223 21.7678C1.76339 21.2989 1.5 20.663 1.5 20V12C1.5 11.337 1.76339 10.7011 2.23223 10.2322C2.70107 9.76339 3.33696 9.5 4 9.5H22C22.663 9.5 23.2989 9.76339 23.7678 10.2322C24.2366 10.7011 24.5 11.337 24.5 12ZM21.5 12.5H4.5V19.5H21.5V12.5Z" fill="black"/>
</svg>
