<svg width="32" height="32" viewBox="0 0 32 32" fill="none" xmlns="http://www.w3.org/2000/svg">
<path d="M28 14.5H27V9C27 8.33696 26.7366 7.70107 26.2678 7.23223C25.7989 6.76339 25.163 6.5 24.5 6.5H19.5C18.837 6.5 18.2011 6.76339 17.7322 7.23223C17.2634 7.70107 17 8.33696 17 9V14.5H15V6C15 5.33696 14.7366 4.70107 14.2678 4.23223C13.7989 3.76339 13.163 3.5 12.5 3.5H7.5C6.83696 3.5 6.20107 3.76339 5.73223 4.23223C5.26339 4.70107 5 5.33696 5 6V14.5H4C3.60218 14.5 3.22064 14.658 2.93934 14.9393C2.65804 15.2206 2.5 15.6022 2.5 16C2.5 16.3978 2.65804 16.7794 2.93934 17.0607C3.22064 17.342 3.60218 17.5 4 17.5H5V26C5 26.663 5.26339 27.2989 5.73223 27.7678C6.20107 28.2366 6.83696 28.5 7.5 28.5H12.5C13.163 28.5 13.7989 28.2366 14.2678 27.7678C14.7366 27.2989 15 26.663 15 26V17.5H17V23C17 23.663 17.2634 24.2989 17.7322 24.7678C18.2011 25.2366 18.837 25.5 19.5 25.5H24.5C25.163 25.5 25.7989 25.2366 26.2678 24.7678C26.7366 24.2989 27 23.663 27 23V17.5H28C28.3978 17.5 28.7794 17.342 29.0607 17.0607C29.342 16.7794 29.5 16.3978 29.5 16C29.5 15.6022 29.342 15.2206 29.0607 14.9393C28.7794 14.658 28.3978 14.5 28 14.5ZM12 25.5H8V6.5H12V25.5ZM24 22.5H20V9.5H24V22.5Z" fill="black"/>
</svg>
