<svg width="32" height="32" viewBox="0 0 32 32" fill="none" xmlns="http://www.w3.org/2000/svg">
<path d="M26 14.5H22.5V6C22.5 5.33696 22.2366 4.70107 21.7678 4.23223C21.2989 3.76339 20.663 3.5 20 3.5H12C11.337 3.5 10.7011 3.76339 10.2322 4.23223C9.76339 4.70107 9.5 5.33696 9.5 6V14.5H6C5.60218 14.5 5.22064 14.658 4.93934 14.9393C4.65804 15.2206 4.5 15.6022 4.5 16C4.5 16.3978 4.65804 16.7794 4.93934 17.0607C5.22064 17.342 5.60218 17.5 6 17.5H9.5V26C9.5 26.663 9.76339 27.2989 10.2322 27.7678C10.7011 28.2366 11.337 28.5 12 28.5H20C20.663 28.5 21.2989 28.2366 21.7678 27.7678C22.2366 27.2989 22.5 26.663 22.5 26V17.5H26C26.3978 17.5 26.7794 17.342 27.0607 17.0607C27.342 16.7794 27.5 16.3978 27.5 16C27.5 15.6022 27.342 15.2206 27.0607 14.9393C26.7794 14.658 26.3978 14.5 26 14.5ZM19.5 25.5H12.5V6.5H19.5V25.5Z" fill="black"/>
</svg>
