<svg width="32" height="32" viewBox="0 0 32 32" fill="none" xmlns="http://www.w3.org/2000/svg">
<path d="M26 9.5H17.5V6C17.5 5.60218 17.342 5.22064 17.0607 4.93934C16.7794 4.65804 16.3978 4.5 16 4.5C15.6022 4.5 15.2206 4.65804 14.9393 4.93934C14.658 5.22064 14.5 5.60218 14.5 6V9.5H6C5.33696 9.5 4.70107 9.76339 4.23223 10.2322C3.76339 10.7011 3.5 11.337 3.5 12V20C3.5 20.663 3.76339 21.2989 4.23223 21.7678C4.70107 22.2366 5.33696 22.5 6 22.5H14.5V26C14.5 26.3978 14.658 26.7794 14.9393 27.0607C15.2206 27.342 15.6022 27.5 16 27.5C16.3978 27.5 16.7794 27.342 17.0607 27.0607C17.342 26.7794 17.5 26.3978 17.5 26V22.5H26C26.663 22.5 27.2989 22.2366 27.7678 21.7678C28.2366 21.2989 28.5 20.663 28.5 20V12C28.5 11.337 28.2366 10.7011 27.7678 10.2322C27.2989 9.76339 26.663 9.5 26 9.5ZM25.5 19.5H6.5V12.5H25.5V19.5Z" fill="black"/>
</svg>
