<svg width="32" height="32" viewBox="0 0 32 32" fill="none" xmlns="http://www.w3.org/2000/svg">
<path d="M26.5 4C26.5 4.39782 26.342 4.77936 26.0607 5.06066C25.7794 5.34196 25.3978 5.5 25 5.5H7C6.60218 5.5 6.22064 5.34196 5.93934 5.06066C5.65804 4.77936 5.5 4.39782 5.5 4C5.5 3.60218 5.65804 3.22064 5.93934 2.93934C6.22064 2.65804 6.60218 2.5 7 2.5H25C25.3978 2.5 25.7794 2.65804 26.0607 2.93934C26.342 3.22064 26.5 3.60218 26.5 4ZM22.5 10V28C22.5 28.663 22.2366 29.2989 21.7678 29.7678C21.2989 30.2366 20.663 30.5 20 30.5H12C11.337 30.5 10.7011 30.2366 10.2322 29.7678C9.76339 29.2989 9.5 28.663 9.5 28V10C9.5 9.33696 9.76339 8.70107 10.2322 8.23223C10.7011 7.76339 11.337 7.5 12 7.5H20C20.663 7.5 21.2989 7.76339 21.7678 8.23223C22.2366 8.70107 22.5 9.33696 22.5 10ZM19.5 10.5H12.5V27.5H19.5V10.5Z" fill="black"/>
</svg>
