<svg width="32" height="32" viewBox="0 0 32 32" fill="none" xmlns="http://www.w3.org/2000/svg">
<path d="M28.5 5V27C28.5 27.3978 28.342 27.7794 28.0607 28.0607C27.7794 28.342 27.3978 28.5 27 28.5C26.6022 28.5 26.2206 28.342 25.9393 28.0607C25.658 27.7794 25.5 27.3978 25.5 27V5C25.5 4.60218 25.658 4.22064 25.9393 3.93934C26.2206 3.65804 26.6022 3.5 27 3.5C27.3978 3.5 27.7794 3.65804 28.0607 3.93934C28.342 4.22064 28.5 4.60218 28.5 5ZM23.5 8V12.5C23.5 13.163 23.2366 13.7989 22.7678 14.2678C22.2989 14.7366 21.663 15 21 15H10C9.33696 15 8.70107 14.7366 8.23223 14.2678C7.76339 13.7989 7.5 13.163 7.5 12.5V8C7.5 7.33696 7.76339 6.70107 8.23223 6.23223C8.70107 5.76339 9.33696 5.5 10 5.5H21C21.663 5.5 22.2989 5.76339 22.7678 6.23223C23.2366 6.70107 23.5 7.33696 23.5 8ZM20.5 8.5H10.5V12H20.5V8.5ZM23.5 19.5V24C23.5 24.663 23.2366 25.2989 22.7678 25.7678C22.2989 26.2366 21.663 26.5 21 26.5H5C4.33696 26.5 3.70107 26.2366 3.23223 25.7678C2.76339 25.2989 2.5 24.663 2.5 24V19.5C2.5 18.837 2.76339 18.2011 3.23223 17.7322C3.70107 17.2634 4.33696 17 5 17H21C21.663 17 22.2989 17.2634 22.7678 17.7322C23.2366 18.2011 23.5 18.837 23.5 19.5ZM20.5 20H5.5V23.5H20.5V20Z" fill="black"/>
</svg>
