<svg width="32" height="32" viewBox="0 0 32 32" fill="none" xmlns="http://www.w3.org/2000/svg">
<path d="M26 17H17.5V15H23C23.663 15 24.2989 14.7366 24.7678 14.2678C25.2366 13.7989 25.5 13.163 25.5 12.5V7.5C25.5 6.83696 25.2366 6.20107 24.7678 5.73223C24.2989 5.26339 23.663 5 23 5H17.5V4C17.5 3.60218 17.342 3.22064 17.0607 2.93934C16.7794 2.65804 16.3978 2.5 16 2.5C15.6022 2.5 15.2206 2.65804 14.9393 2.93934C14.658 3.22064 14.5 3.60218 14.5 4V5H9C8.33696 5 7.70107 5.26339 7.23223 5.73223C6.76339 6.20107 6.5 6.83696 6.5 7.5V12.5C6.5 13.163 6.76339 13.7989 7.23223 14.2678C7.70107 14.7366 8.33696 15 9 15H14.5V17H6C5.33696 17 4.70107 17.2634 4.23223 17.7322C3.76339 18.2011 3.5 18.837 3.5 19.5V24.5C3.5 25.163 3.76339 25.7989 4.23223 26.2678C4.70107 26.7366 5.33696 27 6 27H14.5V28C14.5 28.3978 14.658 28.7794 14.9393 29.0607C15.2206 29.342 15.6022 29.5 16 29.5C16.3978 29.5 16.7794 29.342 17.0607 29.0607C17.342 28.7794 17.5 28.3978 17.5 28V27H26C26.663 27 27.2989 26.7366 27.7678 26.2678C28.2366 25.7989 28.5 25.163 28.5 24.5V19.5C28.5 18.837 28.2366 18.2011 27.7678 17.7322C27.2989 17.2634 26.663 17 26 17ZM9.5 8H22.5V12H9.5V8ZM25.5 24H6.5V20H25.5V24Z" fill="black"/>
</svg>
