<svg width="32" height="32" viewBox="0 0 32 32" fill="none" xmlns="http://www.w3.org/2000/svg">
<path d="M28.5 5C28.5 5.39782 28.342 5.77936 28.0607 6.06066C27.7794 6.34196 27.3978 6.5 27 6.5H5C4.60218 6.5 4.22064 6.34196 3.93934 6.06066C3.65804 5.77936 3.5 5.39782 3.5 5C3.5 4.60218 3.65804 4.22064 3.93934 3.93934C4.22064 3.65804 4.60218 3.5 5 3.5H27C27.3978 3.5 27.7794 3.65804 28.0607 3.93934C28.342 4.22064 28.5 4.60218 28.5 5ZM26.5 11V22C26.5 22.663 26.2366 23.2989 25.7678 23.7678C25.2989 24.2366 24.663 24.5 24 24.5H19.5C18.837 24.5 18.2011 24.2366 17.7322 23.7678C17.2634 23.2989 17 22.663 17 22V11C17 10.337 17.2634 9.70107 17.7322 9.23223C18.2011 8.76339 18.837 8.5 19.5 8.5H24C24.663 8.5 25.2989 8.76339 25.7678 9.23223C26.2366 9.70107 26.5 10.337 26.5 11ZM23.5 11.5H20V21.5H23.5V11.5ZM15 11V27C15 27.663 14.7366 28.2989 14.2678 28.7678C13.7989 29.2366 13.163 29.5 12.5 29.5H8C7.33696 29.5 6.70107 29.2366 6.23223 28.7678C5.76339 28.2989 5.5 27.663 5.5 27V11C5.5 10.337 5.76339 9.70107 6.23223 9.23223C6.70107 8.76339 7.33696 8.5 8 8.5H12.5C13.163 8.5 13.7989 8.76339 14.2678 9.23223C14.7366 9.70107 15 10.337 15 11ZM12 11.5H8.5V26.5H12V11.5Z" fill="black"/>
</svg>
