<svg width="32" height="32" viewBox="0 0 32 32" fill="none" xmlns="http://www.w3.org/2000/svg">
<path d="M5.5 7V25C5.5 25.3978 5.34196 25.7794 5.06066 26.0607C4.77936 26.342 4.39782 26.5 4 26.5C3.60218 26.5 3.22064 26.342 2.93934 26.0607C2.65804 25.7794 2.5 25.3978 2.5 25V7C2.5 6.60218 2.65804 6.22064 2.93934 5.93934C3.22064 5.65804 3.60218 5.5 4 5.5C4.39782 5.5 4.77936 5.65804 5.06066 5.93934C5.34196 6.22064 5.5 6.60218 5.5 7ZM30.5 12V20C30.5 20.663 30.2366 21.2989 29.7678 21.7678C29.2989 22.2366 28.663 22.5 28 22.5H10C9.33696 22.5 8.70107 22.2366 8.23223 21.7678C7.76339 21.2989 7.5 20.663 7.5 20V12C7.5 11.337 7.76339 10.7011 8.23223 10.2322C8.70107 9.76339 9.33696 9.5 10 9.5H28C28.663 9.5 29.2989 9.76339 29.7678 10.2322C30.2366 10.7011 30.5 11.337 30.5 12ZM27.5 12.5H10.5V19.5H27.5V12.5Z" fill="black"/>
</svg>
