<svg width="32" height="32" viewBox="0 0 32 32" fill="none" xmlns="http://www.w3.org/2000/svg">
<path d="M31.5 21V25C31.5 25.3978 31.342 25.7793 31.0607 26.0606C30.7794 26.342 30.3979 26.5 30 26.5C29.6022 26.5 29.2207 26.342 28.9394 26.0606C28.6581 25.7793 28.5 25.3978 28.5 25V24.6137C26.945 26.0512 22.5313 29.5 16 29.5C7.92502 29.5 3.08752 24.2275 2.88502 24C2.74075 23.8559 2.62738 23.6839 2.55182 23.4945C2.47627 23.3051 2.44013 23.1023 2.44561 22.8984C2.45109 22.6946 2.49807 22.494 2.58369 22.3089C2.6693 22.1238 2.79175 21.9582 2.94356 21.822C3.09536 21.6859 3.27334 21.5821 3.4666 21.5171C3.65986 21.452 3.86435 21.4271 4.06759 21.4437C4.27082 21.4604 4.46852 21.5183 4.64862 21.6139C4.82871 21.7096 4.98741 21.8409 5.11502 22C5.15252 22.0412 9.30002 26.5 16 26.5C21.3313 26.5 25.0425 23.6775 26.3588 22.5H26C25.6022 22.5 25.2207 22.342 24.9394 22.0606C24.6581 21.7793 24.5 21.3978 24.5 21C24.5 20.6022 24.6581 20.2206 24.9394 19.9393C25.2207 19.658 25.6022 19.5 26 19.5H30C30.3979 19.5 30.7794 19.658 31.0607 19.9393C31.342 20.2206 31.5 20.6022 31.5 21ZM19.5 10.76V10.5C19.5003 9.63741 19.2217 8.79785 18.7059 8.10653C18.19 7.41521 17.4645 6.90917 16.6375 6.66387C15.8105 6.41858 14.9264 6.44718 14.1171 6.74541C13.3077 7.04364 12.6164 7.59552 12.1463 8.31874C11.9291 8.65208 11.5885 8.88551 11.1992 8.96768C10.8099 9.04984 10.404 8.97401 10.0707 8.75687C9.73731 8.53972 9.50388 8.19905 9.42171 7.80979C9.33955 7.42054 9.41538 7.01458 9.63252 6.68124C10.4556 5.41621 11.6654 4.45105 13.0816 3.92965C14.4979 3.40825 16.0448 3.35853 17.4916 3.78792C18.9384 4.2173 20.2077 5.10278 21.1103 6.31235C22.0128 7.52192 22.5003 8.99079 22.5 10.5V22C22.4975 22.3764 22.3536 22.7382 22.0967 23.0134C21.8399 23.2886 21.4889 23.4572 21.1136 23.4857C20.7382 23.5142 20.3658 23.4005 20.0704 23.1672C19.775 22.9339 19.5781 22.598 19.5188 22.2262C18.471 22.9628 17.2413 23.3978 15.9635 23.4839C14.6857 23.5699 13.4087 23.3038 12.2717 22.7144C11.1346 22.125 10.1811 21.235 9.51481 20.1412C8.84856 19.0474 8.49514 17.7918 8.49305 16.5111C8.49096 15.2304 8.84026 13.9737 9.50294 12.8777C10.1656 11.7818 11.1163 10.8886 12.2514 10.2955C13.3865 9.70243 14.6626 9.43211 15.9407 9.51401C17.2188 9.5959 18.4499 10.0269 19.5 10.76ZM19.5 16.5C19.5 15.7089 19.2654 14.9355 18.8259 14.2777C18.3864 13.6199 17.7617 13.1072 17.0308 12.8045C16.2999 12.5017 15.4956 12.4225 14.7197 12.5768C13.9437 12.7312 13.231 13.1122 12.6716 13.6716C12.1122 14.231 11.7312 14.9437 11.5769 15.7196C11.4225 16.4956 11.5018 17.2998 11.8045 18.0307C12.1073 18.7616 12.6199 19.3863 13.2777 19.8259C13.9355 20.2654 14.7089 20.5 15.5 20.5C16.5609 20.5 17.5783 20.0786 18.3285 19.3284C19.0786 18.5783 19.5 17.5609 19.5 16.5Z" fill="black"/>
</svg>
