<svg width="32" height="32" viewBox="0 0 32 32" fill="none" xmlns="http://www.w3.org/2000/svg">
<path d="M28 13.5H25C24.6022 13.5 24.2206 13.6581 23.9393 13.9394C23.658 14.2207 23.5 14.6022 23.5 15C23.5 15.3978 23.658 15.7794 23.9393 16.0607C24.2206 16.342 24.6022 16.5 25 16.5H26.3937C26.0659 18.7421 25.0233 20.8184 23.4209 22.4205C21.8186 24.0227 19.7421 25.065 17.5 25.3925V12.2425C18.5008 11.8887 19.3443 11.1924 19.8814 10.2768C20.4186 9.36118 20.6147 8.28516 20.4352 7.23892C20.2557 6.19268 19.7121 5.24357 18.9005 4.55936C18.0889 3.87515 17.0615 3.49988 16 3.49988C14.9385 3.49988 13.9111 3.87515 13.0995 4.55936C12.2879 5.24357 11.7443 6.19268 11.5648 7.23892C11.3853 8.28516 11.5814 9.36118 12.1186 10.2768C12.6557 11.1924 13.4992 11.8887 14.5 12.2425V25.3925C12.2579 25.065 10.1814 24.0227 8.57905 22.4205C6.97672 20.8184 5.93413 18.7421 5.60625 16.5H7C7.39782 16.5 7.77936 16.342 8.06066 16.0607C8.34196 15.7794 8.5 15.3978 8.5 15C8.5 14.6022 8.34196 14.2207 8.06066 13.9394C7.77936 13.6581 7.39782 13.5 7 13.5H4C3.60218 13.5 3.22064 13.6581 2.93934 13.9394C2.65804 14.2207 2.5 14.6022 2.5 15C2.5 18.5804 3.92232 22.0142 6.45406 24.546C8.9858 27.0777 12.4196 28.5 16 28.5C19.5804 28.5 23.0142 27.0777 25.5459 24.546C28.0777 22.0142 29.5 18.5804 29.5 15C29.5 14.6022 29.342 14.2207 29.0607 13.9394C28.7794 13.6581 28.3978 13.5 28 13.5ZM16 6.50002C16.2967 6.50002 16.5867 6.58799 16.8334 6.75281C17.08 6.91764 17.2723 7.1519 17.3858 7.42599C17.4993 7.70008 17.5291 8.00168 17.4712 8.29265C17.4133 8.58363 17.2704 8.8509 17.0607 9.06068C16.8509 9.27046 16.5836 9.41332 16.2926 9.4712C16.0017 9.52907 15.7001 9.49937 15.426 9.38584C15.1519 9.27231 14.9176 9.08005 14.7528 8.83337C14.588 8.5867 14.5 8.29669 14.5 8.00002C14.5 7.60219 14.658 7.22066 14.9393 6.93936C15.2206 6.65805 15.6022 6.50002 16 6.50002Z" fill="black"/>
</svg>
