<svg width="32" height="32" viewBox="0 0 32 32" fill="none" xmlns="http://www.w3.org/2000/svg">
<path d="M22.5 19.5C22.5 19.8956 22.3827 20.2822 22.1629 20.6111C21.9432 20.94 21.6308 21.1964 21.2654 21.3478C20.8999 21.4991 20.4978 21.5387 20.1098 21.4616C19.7219 21.3844 19.3655 21.1939 19.0858 20.9142C18.8061 20.6345 18.6156 20.2781 18.5384 19.8902C18.4613 19.5022 18.5009 19.1001 18.6522 18.7346C18.8036 18.3692 19.06 18.0568 19.3889 17.8371C19.7178 17.6173 20.1044 17.5 20.5 17.5C21.0304 17.5 21.5391 17.7107 21.9142 18.0858C22.2893 18.4609 22.5 18.9696 22.5 19.5ZM11.5 17.5C11.1044 17.5 10.7178 17.6173 10.3889 17.8371C10.06 18.0568 9.80362 18.3692 9.65225 18.7346C9.50087 19.1001 9.46127 19.5022 9.53844 19.8902C9.61561 20.2781 9.80609 20.6345 10.0858 20.9142C10.3655 21.1939 10.7219 21.3844 11.1098 21.4616C11.4978 21.5387 11.8999 21.4991 12.2654 21.3478C12.6308 21.1964 12.9432 20.94 13.1629 20.6111C13.3827 20.2822 13.5 19.8956 13.5 19.5C13.5 18.9696 13.2893 18.4609 12.9142 18.0858C12.5391 17.7107 12.0304 17.5 11.5 17.5ZM30.5 21V24C30.5 24.663 30.2366 25.2989 29.7678 25.7678C29.2989 26.2366 28.663 26.5 28 26.5H4.00001C3.33697 26.5 2.70108 26.2366 2.23224 25.7678C1.7634 25.2989 1.50001 24.663 1.50001 24V21.1413C1.49616 17.2858 3.01035 13.5839 5.71501 10.8363L2.93876 8.06126C2.65696 7.77946 2.49866 7.39727 2.49866 6.99876C2.49866 6.60024 2.65696 6.21805 2.93876 5.93626C3.22055 5.65446 3.60274 5.49615 4.00126 5.49615C4.39977 5.49615 4.78196 5.65446 5.06376 5.93626L8.03751 8.91626C10.3788 7.34871 13.1312 6.50808 15.9488 6.50001H16C18.8398 6.49222 21.6185 7.32464 23.9863 8.89251L26.9388 5.93876C27.0783 5.79923 27.2439 5.68855 27.4262 5.61303C27.6085 5.53752 27.8039 5.49865 28.0013 5.49865C28.1986 5.49865 28.394 5.53752 28.5763 5.61303C28.7586 5.68855 28.9242 5.79923 29.0638 5.93876C29.2033 6.07829 29.314 6.24393 29.3895 6.42624C29.465 6.60854 29.5039 6.80393 29.5039 7.00126C29.5039 7.19858 29.465 7.39397 29.3895 7.57628C29.314 7.75858 29.2033 7.92423 29.0638 8.06376L26.3138 10.8138C29.004 13.5202 30.5097 17.184 30.5 21ZM27.5 21C27.5 19.4863 27.2012 17.9875 26.6207 16.5896C26.0402 15.1917 25.1894 13.9221 24.1172 12.8537C23.0449 11.7852 21.7723 10.939 20.3723 10.3635C18.9723 9.78803 17.4724 9.49458 15.9588 9.50001C9.64001 9.52251 4.50001 14.75 4.50001 21.1413V23.5H27.5V21Z" fill="black"/>
</svg>
