<svg width="32" height="32" viewBox="0 0 32 32" fill="none" xmlns="http://www.w3.org/2000/svg">
<path d="M28.5763 7.61501L16.5763 2.61501C16.3933 2.53869 16.1971 2.49939 15.9988 2.49939C15.8006 2.49939 15.6043 2.53869 15.4213 2.61501L3.42132 7.61501C3.11644 7.742 2.86199 7.96605 2.69746 8.25241C2.53292 8.53877 2.46749 8.87142 2.51132 9.19876L4.51132 24.1988C4.54371 24.4412 4.63491 24.6721 4.77696 24.8712C4.91901 25.0703 5.10761 25.2317 5.32632 25.3413L15.3263 30.3413C15.5347 30.4455 15.7645 30.4998 15.9976 30.4998C16.2306 30.4998 16.4604 30.4455 16.6688 30.3413L26.6688 25.3413C26.8875 25.2317 27.0761 25.0703 27.2182 24.8712C27.3602 24.6721 27.4514 24.4412 27.4838 24.1988L29.4838 9.19876C29.5278 8.87172 29.4628 8.53929 29.2987 8.25296C29.1346 7.96664 28.8807 7.74241 28.5763 7.61501ZM24.6251 23.0138L16.0001 27.3225L7.38132 23.0138L5.63882 9.94251L16.0001 5.62501L26.3613 9.94251L24.6251 23.0138ZM14.6888 10.2713L9.68882 19.2713C9.59311 19.4436 9.5323 19.6331 9.50984 19.829C9.48739 20.0249 9.50373 20.2232 9.55793 20.4128C9.61214 20.6023 9.70315 20.7794 9.82577 20.9337C9.94838 21.0881 10.1002 21.2168 10.2726 21.3125C10.4449 21.4082 10.6344 21.469 10.8303 21.4915C11.0262 21.5139 11.2245 21.4976 11.4141 21.4434C11.6036 21.3892 11.7807 21.2982 11.935 21.1756C12.0894 21.0529 12.2181 20.9011 12.3138 20.7288L13.2713 19H18.7288L19.6888 20.7288C19.8821 21.0769 20.2057 21.3339 20.5885 21.4434C20.9713 21.5529 21.382 21.5058 21.7301 21.3125C22.0782 21.1192 22.3352 20.7956 22.4447 20.4128C22.5542 20.03 22.5071 19.6194 22.3138 19.2713L17.3138 10.2713C17.1841 10.0368 16.9939 9.84139 16.7631 9.7053C16.5323 9.56922 16.2693 9.49745 16.0013 9.49745C15.7334 9.49745 15.4703 9.56922 15.2395 9.7053C15.0087 9.84139 14.8185 10.0368 14.6888 10.2713ZM14.9388 16L16.0001 14.0888L17.0613 16H14.9388Z" fill="black"/>
</svg>
