<svg width="32" height="32" viewBox="0 0 32 32" fill="none" xmlns="http://www.w3.org/2000/svg">
<path d="M24.8388 7.16126C23.6799 5.99219 22.3015 5.06352 20.7828 4.42858C19.264 3.79365 17.6348 3.46494 15.9887 3.46133C14.3426 3.45773 12.7119 3.7793 11.1904 4.40758C9.66889 5.03586 8.28646 5.95848 7.12247 7.12247C5.95848 8.28646 5.03586 9.66889 4.40758 11.1904C3.7793 12.7119 3.45773 14.3426 3.46133 15.9887C3.46494 17.6348 3.79365 19.264 4.42858 20.7828C5.06352 22.3015 5.99219 23.6799 7.16126 24.8388C8.32014 26.0078 9.69853 26.9365 11.2173 27.5714C12.736 28.2064 14.3652 28.5351 16.0114 28.5387C17.6575 28.5423 19.2881 28.2207 20.8096 27.5924C22.3311 26.9642 23.7136 26.0415 24.8776 24.8776C26.0415 23.7136 26.9642 22.3311 27.5924 20.8096C28.2207 19.2881 28.5423 17.6575 28.5387 16.0114C28.5351 14.3652 28.2064 12.736 27.5714 11.2173C26.9365 9.69853 26.0078 8.32014 24.8388 7.16126ZM26.135 21.445L18.51 20.0525L26.3 10.875C27.1164 12.5217 27.5274 14.3398 27.4987 16.1775C27.47 18.0153 27.0024 19.8196 26.135 21.44V21.445ZM11.9838 15.2663L14.625 12.155L18.6425 12.8875L20.0175 16.7338L17.375 19.845L13.3575 19.1125L11.9838 15.2663ZM25.78 9.94751L20.7638 15.8538L16.7188 4.52501C18.5522 4.64023 20.3315 5.19259 21.9079 6.13594C23.4842 7.07928 24.8119 8.38621 25.78 9.94751ZM7.87501 7.87501C9.94167 5.7975 12.7282 4.59444 15.6575 4.51501L18.25 11.8013L6.41501 9.63876C6.84242 9.00421 7.33146 8.41342 7.87501 7.87501ZM5.87501 10.5613L13.5 11.9538L5.70001 21.125C4.88363 19.4783 4.47266 17.6603 4.50136 15.8225C4.53006 13.9847 4.9976 12.1804 5.86501 10.56L5.87501 10.5613ZM6.23001 22.0613L11.2463 16.155L15.2913 27.4838C13.4578 27.3685 11.6785 26.8162 10.1022 25.8728C8.5258 24.9295 7.1981 23.6226 6.23001 22.0613ZM24.1413 24.14C22.0746 26.2175 19.2881 27.4206 16.3588 27.5L13.75 20.1988L25.59 22.3613C25.1633 22.9979 24.6747 23.5908 24.1313 24.1313L24.1413 24.14Z" fill="black"/>
</svg>
