<svg width="32" height="32" viewBox="0 0 32 32" fill="none" xmlns="http://www.w3.org/2000/svg">
<path d="M25.015 6.985C22.6174 4.626 19.3848 3.30995 16.0213 3.32353C12.6578 3.33711 9.43597 4.67921 7.05752 7.0575C4.67906 9.43579 3.33673 12.6576 3.32292 16.0211C3.30911 19.3846 4.62493 22.6173 6.98377 25.015C8.16412 26.2148 9.57035 27.1691 11.1213 27.8227C12.6723 28.4763 14.3374 28.8164 16.0205 28.8233C17.7035 28.8302 19.3713 28.5038 20.9276 27.863C22.4839 27.2221 23.8979 26.2794 25.0881 25.0893C26.2783 23.8993 27.221 22.4853 27.862 20.9291C28.503 19.3728 28.8295 17.705 28.8227 16.022C28.8159 14.3389 28.476 12.6738 27.8224 11.1228C27.1689 9.57173 26.2148 8.16544 25.015 6.985ZM12.265 15.3188L14.7213 12.4263L18.4538 13.1088L19.73 16.6813L17.2738 19.5738L13.5413 18.8913L12.265 15.3188ZM26.2413 11.3363C26.9441 12.8872 27.2868 14.5771 27.2435 16.2793C27.2002 17.9815 26.7721 19.6518 25.9913 21.165L18.9738 19.885L26.2413 11.3363ZM25.4713 9.92625L20.8538 15.3613L17.0825 4.8025C19.6829 5.04586 22.1157 6.19324 23.9575 8.045C24.5272 8.61681 25.0346 9.24742 25.4713 9.92625ZM8.04502 8.05125C10.0214 6.06096 12.6742 4.88696 15.4763 4.7625L17.875 11.4775L6.84377 9.46375C7.2049 8.95892 7.60665 8.48443 8.04502 8.045V8.05125ZM6.00002 10.835L13.0175 12.115L5.75877 20.6638C5.0559 19.1128 4.71326 17.4229 4.75656 15.7207C4.79986 14.0185 5.22796 12.3482 6.00877 10.835H6.00002ZM6.52627 22.0738L11.1438 16.6388L14.915 27.1975C12.3146 26.9542 9.88184 25.8068 8.04002 23.955C7.47123 23.3831 6.96465 22.7525 6.52877 22.0738H6.52627ZM23.9525 23.9488C21.9755 25.9373 19.3227 27.1091 16.5213 27.2313L14.125 20.5225L25.155 22.5363C24.7943 23.041 24.393 23.5155 23.955 23.955L23.9525 23.9488Z" fill="black"/>
</svg>
