<svg width="32" height="32" viewBox="0 0 32 32" fill="none" xmlns="http://www.w3.org/2000/svg">
<path d="M28.3749 21C28.2625 20.7429 28.0802 20.5224 27.8487 20.3638C25.9062 19.0275 25.4999 16.71 25.4999 15C25.4999 12.9788 27.0849 11.175 28.0312 10.28C28.1793 10.1398 28.2972 9.97092 28.3778 9.78362C28.4585 9.59632 28.5 9.39454 28.5 9.19063C28.5 8.98671 28.4585 8.78494 28.3778 8.59763C28.2972 8.41033 28.1793 8.24143 28.0312 8.10125C26.3612 6.52125 23.6012 5.5 20.9999 5.5C19.2338 5.50161 17.5028 5.99364 15.9999 6.92125C14.1825 5.79219 12.0357 5.31337 9.91072 5.56315C7.78576 5.81293 5.80849 6.77652 4.30242 8.29625C3.38029 9.23808 2.65698 10.3558 2.17553 11.5828C1.69409 12.8098 1.46433 14.1211 1.49992 15.4388C1.55205 17.6132 2.03684 19.7554 2.92601 21.7405C3.81518 23.7255 5.09089 25.5134 6.67867 27C7.69724 27.9646 9.04712 28.5015 10.4499 28.5H21.4112C22.1619 28.501 22.9048 28.3479 23.5939 28.0501C24.2831 27.7523 24.9037 27.3162 25.4174 26.7687C26.3116 25.8094 27.0841 24.7434 27.7174 23.595C27.9137 23.235 28.0924 22.8813 28.2349 22.5438C28.4337 22.0838 28.6399 21.6087 28.3749 21ZM23.2212 24.7275C22.9884 24.9733 22.7077 25.1687 22.3963 25.3016C22.085 25.4345 21.7497 25.502 21.4112 25.5H10.4499C9.81331 25.5022 9.20021 25.2597 8.73742 24.8225C7.43787 23.6059 6.3938 22.1425 5.66623 20.5178C4.93866 18.8931 4.54217 17.1397 4.49992 15.36C4.47456 14.4472 4.63301 13.5386 4.96585 12.6882C5.2987 11.8378 5.79914 11.0631 6.43742 10.41C7.03173 9.80295 7.74167 9.32116 8.52531 8.9931C9.30895 8.66505 10.1504 8.49738 10.9999 8.5H11.0899C12.5357 8.51568 13.9342 9.01764 15.0599 9.925C15.326 10.138 15.6566 10.2541 15.9974 10.2541C16.3382 10.2541 16.6689 10.138 16.9349 9.925C18.0856 8.99649 19.5213 8.4932 20.9999 8.5C22.2997 8.51537 23.5782 8.832 24.7349 9.425C23.2824 11.2075 22.4999 13.1413 22.4999 15C22.4999 17.9163 23.4337 20.3612 25.1562 22.0238C24.6299 23.0043 23.9791 23.9126 23.2199 24.7262L23.2212 24.7275ZM16.0937 1.625C16.5496 1.03735 17.1203 0.548677 17.7712 0.188751C18.1193 -0.00419424 18.5298 -0.0509559 18.9123 0.0587529C19.2949 0.168462 19.6182 0.425654 19.8112 0.773751C20.0041 1.12185 20.0509 1.53233 19.9412 1.91491C19.8315 2.29748 19.5743 2.62081 19.2262 2.81375C18.9295 2.97761 18.6696 3.20053 18.4624 3.46875C18.3414 3.62428 18.1908 3.75445 18.0195 3.85182C17.8481 3.94918 17.6592 4.01184 17.4637 4.03622C17.0687 4.08545 16.6703 3.97575 16.3562 3.73125C16.0421 3.48675 15.8379 3.12749 15.7887 2.73249C15.7395 2.33749 15.8492 1.93912 16.0937 1.625Z" fill="black"/>
</svg>
