<svg width="32" height="32" viewBox="0 0 32 32" fill="none" xmlns="http://www.w3.org/2000/svg">
<path d="M18.4075 17.5375C18.9158 17.0558 19.2679 16.4328 19.4183 15.7489C19.5687 15.065 19.5105 14.3517 19.2513 13.7012C18.992 13.0507 18.5436 12.4929 17.964 12.1C17.3844 11.7071 16.7002 11.497 16 11.497C15.2998 11.497 14.6156 11.7071 14.036 12.1C13.4564 12.4929 13.008 13.0507 12.7487 13.7012C12.4895 14.3517 12.4313 15.065 12.5817 15.7489C12.7321 16.4328 13.0842 17.0558 13.5925 17.5375C12.9706 17.6431 12.4111 17.9787 12.025 18.4775C11.7917 18.7745 11.63 19.1213 11.5524 19.4909C11.4748 19.8605 11.4834 20.243 11.5775 20.6087L13.1 26.6087C13.2403 27.1523 13.5579 27.6335 14.0026 27.9761C14.4473 28.3187 14.9936 28.503 15.555 28.5H16.445C17.0064 28.503 17.5527 28.3187 17.9974 27.9761C18.4421 27.6335 18.7597 27.1523 18.9 26.6087L20.4225 20.6087C20.5166 20.243 20.5252 19.8605 20.4476 19.4909C20.37 19.1213 20.2083 18.7745 19.975 18.4775C19.5889 17.9787 19.0294 17.6431 18.4075 17.5375ZM13.5 15C13.5 14.5055 13.6466 14.0222 13.9213 13.6111C14.196 13.1999 14.5865 12.8795 15.0433 12.6903C15.5001 12.5011 16.0028 12.4516 16.4877 12.548C16.9727 12.6445 17.4181 12.8826 17.7678 13.2322C18.1174 13.5818 18.3555 14.0273 18.452 14.5123C18.5484 14.9972 18.4989 15.4999 18.3097 15.9567C18.1205 16.4135 17.8001 16.804 17.3889 17.0787C16.9778 17.3534 16.4945 17.5 16 17.5C15.337 17.5 14.7011 17.2366 14.2322 16.7677C13.7634 16.2989 13.5 15.663 13.5 15ZM19.4538 20.3625L17.9313 26.3625C17.8453 26.6904 17.6525 26.9803 17.3833 27.1863C17.1142 27.3923 16.784 27.5027 16.445 27.5H15.555C15.216 27.5027 14.8858 27.3923 14.6167 27.1863C14.3475 26.9803 14.1547 26.6904 14.0688 26.3625L12.5463 20.3625C12.4905 20.1443 12.4856 19.9161 12.532 19.6957C12.5783 19.4753 12.6747 19.2685 12.8138 19.0912C12.9577 18.9059 13.1425 18.7562 13.3536 18.6537C13.5647 18.5511 13.7966 18.4986 14.0313 18.5H17.9688C18.2034 18.4986 18.4353 18.5511 18.6464 18.6537C18.8576 18.7562 19.0423 18.9059 19.1863 19.0912C19.3253 19.2685 19.4217 19.4753 19.4681 19.6957C19.5144 19.9161 19.5095 20.1443 19.4538 20.3625ZM23.5 16C23.499 14.9359 23.2715 13.8842 22.8327 12.9148C22.394 11.9454 21.754 11.0805 20.9552 10.3775C20.1565 9.67445 19.2172 9.14944 18.2 8.83731C17.1827 8.52519 16.1107 8.4331 15.0551 8.56716C13.9995 8.70122 12.9845 9.05836 12.0776 9.61486C11.1706 10.1714 10.3925 10.9145 9.79481 11.7948C9.19715 12.6752 8.79366 13.6727 8.61115 14.721C8.42864 15.7693 8.47129 16.8444 8.73625 17.875C8.75267 17.9386 8.75639 18.0048 8.74722 18.0699C8.73804 18.1349 8.71614 18.1975 8.68277 18.2541C8.61537 18.3684 8.50534 18.4512 8.37688 18.4844C8.31327 18.5008 8.24705 18.5045 8.182 18.4953C8.11695 18.4861 8.05435 18.4642 7.99776 18.4309C7.88348 18.3635 7.80065 18.2534 7.7675 18.125C7.44482 16.8693 7.41363 15.5565 7.67633 14.287C7.93902 13.0175 8.48864 11.8248 9.28312 10.8004C10.0776 9.77588 11.0959 8.94672 12.2601 8.37631C13.4243 7.80589 14.7036 7.50934 16 7.50934C17.2964 7.50934 18.5757 7.80589 19.7399 8.37631C20.9041 8.94672 21.9224 9.77588 22.7169 10.8004C23.5114 11.8248 24.061 13.0175 24.3237 14.287C24.5864 15.5565 24.5552 16.8693 24.2325 18.125C24.2048 18.2322 24.1423 18.3273 24.0547 18.3952C23.9672 18.463 23.8595 18.4999 23.7488 18.5C23.7066 18.5001 23.6645 18.4947 23.6238 18.4837C23.5601 18.4674 23.5004 18.4387 23.4478 18.3993C23.3953 18.3599 23.3511 18.3105 23.3176 18.2539C23.2842 18.1974 23.2622 18.1348 23.253 18.0698C23.2438 18.0048 23.2474 17.9386 23.2638 17.875C23.4207 17.2623 23.5001 16.6324 23.5 16ZM28.5 16C28.5017 18.0627 27.9922 20.0936 27.0172 21.9113C26.0421 23.729 24.6319 25.2768 22.9125 26.4162C22.8579 26.454 22.7963 26.4804 22.7313 26.4941C22.6663 26.5078 22.5993 26.5084 22.5341 26.4958C22.4689 26.4833 22.4068 26.4579 22.3515 26.4212C22.2962 26.3844 22.2488 26.337 22.212 26.2817C22.1753 26.2264 22.1499 26.1644 22.1373 26.0992C22.1248 26.034 22.1254 25.9669 22.1391 25.902C22.1527 25.837 22.1792 25.7754 22.2169 25.7208C22.2546 25.6661 22.3028 25.6195 22.3588 25.5837C24.417 24.2178 25.9808 22.2255 26.8185 19.9016C27.6563 17.5777 27.7234 15.0458 27.0101 12.6808C26.2967 10.3158 24.8408 8.24329 22.8579 6.77019C20.8749 5.29708 18.4703 4.50165 16 4.50165C13.5297 4.50165 11.1251 5.29708 9.14215 6.77019C7.15918 8.24329 5.70325 10.3158 4.98992 12.6808C4.27658 15.0458 4.34375 17.5777 5.18148 19.9016C6.0192 22.2255 7.58296 24.2178 9.64125 25.5837C9.69717 25.6195 9.74539 25.6661 9.78311 25.7208C9.82084 25.7754 9.8473 25.837 9.86095 25.902C9.87461 25.9669 9.87519 26.034 9.86266 26.0992C9.85012 26.1644 9.82473 26.2264 9.78796 26.2817C9.75118 26.337 9.70377 26.3844 9.64848 26.4212C9.59319 26.4579 9.53113 26.4833 9.46593 26.4958C9.40073 26.5084 9.33368 26.5078 9.26871 26.4941C9.20373 26.4804 9.14213 26.454 9.0875 26.4162C7.2869 25.2211 5.82691 23.5796 4.85001 21.6519C3.87311 19.7242 3.41268 17.5762 3.51365 15.4174C3.61463 13.2587 4.27357 11.163 5.42615 9.33486C6.57873 7.50676 8.18558 6.00871 10.0899 4.98691C11.9942 3.96512 14.1308 3.45449 16.2914 3.50486C18.4519 3.55524 20.5624 4.16489 22.4171 5.27433C24.2717 6.38376 25.8069 7.95508 26.8731 9.83491C27.9392 11.7147 28.4997 13.8389 28.5 16Z" fill="black"/>
</svg>
