<svg width="32" height="32" viewBox="0 0 32 32" fill="none" xmlns="http://www.w3.org/2000/svg">
<path d="M27 4.5H5C4.33696 4.5 3.70107 4.76339 3.23223 5.23223C2.76339 5.70107 2.5 6.33696 2.5 7V25C2.5 25.663 2.76339 26.2989 3.23223 26.7678C3.70107 27.2366 4.33696 27.5 5 27.5H27C27.663 27.5 28.2989 27.2366 28.7678 26.7678C29.2366 26.2989 29.5 25.663 29.5 25V7C29.5 6.33696 29.2366 5.70107 28.7678 5.23223C28.2989 4.76339 27.663 4.5 27 4.5ZM26.5 24.5H5.5V7.5H26.5V24.5ZM7.5 11.5C7.5 11.1044 7.6173 10.7178 7.83706 10.3889C8.05682 10.06 8.36918 9.80362 8.73463 9.65224C9.10009 9.50087 9.50222 9.46126 9.89018 9.53843C10.2781 9.6156 10.6345 9.80608 10.9142 10.0858C11.1939 10.3655 11.3844 10.7219 11.4616 11.1098C11.5387 11.4978 11.4991 11.8999 11.3478 12.2654C11.1964 12.6308 10.94 12.9432 10.6111 13.1629C10.2822 13.3827 9.89556 13.5 9.5 13.5C8.96957 13.5 8.46086 13.2893 8.08579 12.9142C7.71071 12.5391 7.5 12.0304 7.5 11.5ZM13.5 11.5C13.5 11.1044 13.6173 10.7178 13.8371 10.3889C14.0568 10.06 14.3692 9.80362 14.7346 9.65224C15.1001 9.50087 15.5022 9.46126 15.8902 9.53843C16.2781 9.6156 16.6345 9.80608 16.9142 10.0858C17.1939 10.3655 17.3844 10.7219 17.4616 11.1098C17.5387 11.4978 17.4991 11.8999 17.3478 12.2654C17.1964 12.6308 16.94 12.9432 16.6111 13.1629C16.2822 13.3827 15.8956 13.5 15.5 13.5C14.9696 13.5 14.4609 13.2893 14.0858 12.9142C13.7107 12.5391 13.5 12.0304 13.5 11.5Z" fill="black"/>
</svg>
