<svg width="32" height="32" viewBox="0 0 32 32" fill="none" xmlns="http://www.w3.org/2000/svg">
<path d="M28.3412 8.32875L26.3412 4.32875C26.2166 4.07973 26.0252 3.87031 25.7883 3.72394C25.5514 3.57757 25.2785 3.50003 25 3.5H7C6.72154 3.50003 6.44859 3.57757 6.21171 3.72394C5.97482 3.87031 5.78336 4.07973 5.65875 4.32875L3.65875 8.32875C3.55441 8.53713 3.50005 8.76696 3.5 9V26C3.5 26.663 3.76339 27.2989 4.23223 27.7678C4.70107 28.2366 5.33696 28.5 6 28.5H26C26.663 28.5 27.2989 28.2366 27.7678 27.7678C28.2366 27.2989 28.5 26.663 28.5 26V9C28.4999 8.76696 28.4456 8.53713 28.3412 8.32875ZM24.0725 6.5L24.8225 8H7.1775L7.9275 6.5H24.0725ZM6.5 25.5V11H25.5V25.5H6.5ZM21.0613 17.4387C21.2011 17.5781 21.312 17.7437 21.3878 17.926C21.4635 18.1083 21.5024 18.3038 21.5024 18.5012C21.5024 18.6987 21.4635 18.8941 21.3878 19.0765C21.312 19.2588 21.2011 19.4244 21.0613 19.5637L17.0613 23.5637C16.9219 23.7036 16.7563 23.8145 16.574 23.8903C16.3917 23.966 16.1962 24.0049 15.9987 24.0049C15.8013 24.0049 15.6058 23.966 15.4235 23.8903C15.2412 23.8145 15.0756 23.7036 14.9362 23.5637L10.9362 19.5637C10.6545 19.282 10.4961 18.8998 10.4961 18.5012C10.4961 18.1027 10.6545 17.7205 10.9362 17.4387C11.218 17.157 11.6002 16.9986 11.9987 16.9986C12.3973 16.9986 12.7795 17.157 13.0612 17.4387L14.5 18.875V14C14.5 13.6022 14.658 13.2206 14.9393 12.9393C15.2206 12.658 15.6022 12.5 16 12.5C16.3978 12.5 16.7794 12.658 17.0607 12.9393C17.342 13.2206 17.5 13.6022 17.5 14V18.875L18.9387 17.435C19.0783 17.2958 19.2439 17.1854 19.4262 17.1103C19.6084 17.0351 19.8037 16.9966 20.0008 16.9969C20.1979 16.9973 20.393 17.0365 20.575 17.1123C20.7569 17.1881 20.9222 17.299 21.0613 17.4387Z" fill="black"/>
</svg>
