<svg width="32" height="32" viewBox="0 0 32 32" fill="none" xmlns="http://www.w3.org/2000/svg">
<path d="M28 5.5H4C3.33696 5.5 2.70107 5.76339 2.23223 6.23223C1.76339 6.70107 1.5 7.33696 1.5 8V11C1.49988 11.5763 1.69889 12.135 2.06335 12.5815C2.4278 13.0279 2.93532 13.3347 3.5 13.45V24C3.5 24.663 3.76339 25.2989 4.23223 25.7678C4.70107 26.2366 5.33696 26.5 6 26.5H26C26.663 26.5 27.2989 26.2366 27.7678 25.7678C28.2366 25.2989 28.5 24.663 28.5 24V13.45C29.0647 13.3347 29.5722 13.0279 29.9367 12.5815C30.3011 12.135 30.5001 11.5763 30.5 11V8C30.5 7.33696 30.2366 6.70107 29.7678 6.23223C29.2989 5.76339 28.663 5.5 28 5.5ZM4.5 8.5H27.5V10.5H4.5V8.5ZM6.5 23.5V13.5H25.5V23.5H6.5ZM20.5 17C20.5 17.3978 20.342 17.7794 20.0607 18.0607C19.7794 18.342 19.3978 18.5 19 18.5H13C12.6022 18.5 12.2206 18.342 11.9393 18.0607C11.658 17.7794 11.5 17.3978 11.5 17C11.5 16.6022 11.658 16.2206 11.9393 15.9393C12.2206 15.658 12.6022 15.5 13 15.5H19C19.3978 15.5 19.7794 15.658 20.0607 15.9393C20.342 16.2206 20.5 16.6022 20.5 17Z" fill="black"/>
</svg>
