<svg width="32" height="32" viewBox="0 0 32 32" fill="none" xmlns="http://www.w3.org/2000/svg">
<path d="M26 3.5H6C5.33696 3.5 4.70107 3.76339 4.23223 4.23223C3.76339 4.70107 3.5 5.33696 3.5 6V26C3.5 26.663 3.76339 27.2989 4.23223 27.7678C4.70107 28.2366 5.33696 28.5 6 28.5H26C26.663 28.5 27.2989 28.2366 27.7678 27.7678C28.2366 27.2989 28.5 26.663 28.5 26V6C28.5 5.33696 28.2366 4.70107 27.7678 4.23223C27.2989 3.76339 26.663 3.5 26 3.5ZM25.5 6.5V18.5H22.4137C22.0853 18.4991 21.76 18.5634 21.4566 18.6891C21.1532 18.8149 20.8778 18.9996 20.6462 19.2325L18.375 21.5H13.625L11.3538 19.2325C11.1222 18.9996 10.8468 18.8149 10.5434 18.6891C10.24 18.5634 9.91467 18.4991 9.58625 18.5H6.5V6.5H25.5ZM6.5 25.5V21.5H9.375L11.6425 23.7675C11.8745 24.0009 12.1505 24.1858 12.4546 24.3116C12.7587 24.4373 13.0847 24.5014 13.4137 24.5H18.5863C18.9147 24.5009 19.24 24.4366 19.5434 24.3109C19.8468 24.1851 20.1222 24.0004 20.3538 23.7675L22.625 21.5H25.5V25.5H6.5ZM10.9388 15.5612C10.657 15.2795 10.4986 14.8973 10.4986 14.4987C10.4986 14.1002 10.657 13.718 10.9388 13.4362C11.2205 13.1545 11.6027 12.9961 12.0013 12.9961C12.3998 12.9961 12.782 13.1545 13.0638 13.4362L14.5 14.875V9.5C14.5 9.10218 14.658 8.72064 14.9393 8.43934C15.2206 8.15804 15.6022 8 16 8C16.3978 8 16.7794 8.15804 17.0607 8.43934C17.342 8.72064 17.5 9.10218 17.5 9.5V14.875L18.9387 13.435C19.2205 13.1532 19.6027 12.9949 20.0012 12.9949C20.3998 12.9949 20.782 13.1532 21.0637 13.435C21.3455 13.7168 21.5039 14.099 21.5039 14.4975C21.5039 14.896 21.3455 15.2782 21.0637 15.56L17.0637 19.56C16.9244 19.6998 16.7588 19.8108 16.5765 19.8865C16.3941 19.9622 16.1987 20.0012 16.0012 20.0012C15.8038 20.0012 15.6083 19.9622 15.426 19.8865C15.2437 19.8108 15.0781 19.6998 14.9388 19.56L10.9388 15.5612Z" fill="black"/>
</svg>
