<svg width="33" height="32" viewBox="0 0 33 32" fill="none" xmlns="http://www.w3.org/2000/svg">
<path d="M27.5088 9.81625V9C27.5072 7.54182 26.9272 6.14383 25.8961 5.11274C24.865 4.08165 23.467 3.50165 22.0088 3.5H10.0088C8.55062 3.50165 7.15264 4.08165 6.12155 5.11274C5.09046 6.14383 4.51046 7.54182 4.50881 9V9.81625C3.19916 10.2377 2.05701 11.0638 1.24678 12.1757C0.436538 13.2876 0 14.628 0 16.0037C0 17.3795 0.436538 18.7199 1.24678 19.8318C2.05701 20.9437 3.19916 21.7698 4.50881 22.1912V25C4.50881 25.663 4.7722 26.2989 5.24104 26.7678C5.70988 27.2366 6.34577 27.5 7.00881 27.5H25.0088C25.6719 27.5 26.3077 27.2366 26.7766 26.7678C27.2454 26.2989 27.5088 25.663 27.5088 25V22.1887C28.8185 21.7673 29.9606 20.9412 30.7708 19.8293C31.5811 18.7174 32.0176 17.377 32.0176 16.0012C32.0176 14.6255 31.5811 13.2851 30.7708 12.1732C29.9606 11.0613 28.8185 10.2352 27.5088 9.81375V9.81625ZM10.0088 6.5H22.0088C22.6719 6.5 23.3077 6.76339 23.7766 7.23223C24.2454 7.70107 24.5088 8.33696 24.5088 9V9.5775C23.0628 9.80513 21.7357 10.5134 20.7416 11.5879C19.7476 12.6625 19.1446 14.0407 19.0301 15.5H12.9876C12.873 14.0407 12.27 12.6625 11.276 11.5879C10.282 10.5134 8.95483 9.80513 7.50881 9.5775V9C7.50881 8.33696 7.7722 7.70107 8.24104 7.23223C8.70988 6.76339 9.34577 6.5 10.0088 6.5ZM25.8601 19.4825C25.4898 19.5194 25.1465 19.6926 24.8968 19.9684C24.6471 20.2442 24.5088 20.6029 24.5088 20.975V24.5H7.50881V20.975C7.50878 20.6029 7.37049 20.2442 7.12078 19.9684C6.87108 19.6926 6.52778 19.5194 6.15756 19.4825C5.48373 19.4145 4.84409 19.1525 4.3162 18.7283C3.78831 18.304 3.39486 17.7357 3.18354 17.0922C2.97223 16.4488 2.95213 15.7579 3.12569 15.1032C3.29925 14.4486 3.65901 13.8584 4.16134 13.4041C4.66367 12.9499 5.287 12.6512 5.95575 12.5441C6.62449 12.4371 7.30992 12.5264 7.92892 12.8012C8.54792 13.076 9.07389 13.5245 9.44307 14.0923C9.81225 14.6601 10.0088 15.3227 10.0088 16V20.5C10.0088 20.8978 10.1668 21.2794 10.4481 21.5607C10.7295 21.842 11.111 22 11.5088 22C11.9066 22 12.2882 21.842 12.5695 21.5607C12.8508 21.2794 13.0088 20.8978 13.0088 20.5V18.5H19.0088V20.5C19.0088 20.8978 19.1668 21.2794 19.4481 21.5607C19.7295 21.842 20.111 22 20.5088 22C20.9066 22 21.2882 21.842 21.5695 21.5607C21.8508 21.2794 22.0088 20.8978 22.0088 20.5V16C22.0088 15.3227 22.2054 14.6601 22.5745 14.0923C22.9437 13.5245 23.4697 13.076 24.0887 12.8012C24.7077 12.5264 25.3931 12.4371 26.0619 12.5441C26.7306 12.6512 27.3539 12.9499 27.8563 13.4041C28.3586 13.8584 28.7184 14.4486 28.8919 15.1032C29.0655 15.7579 29.0454 16.4488 28.8341 17.0922C28.6228 17.7357 28.2293 18.304 27.7014 18.7283C27.1735 19.1525 26.5339 19.4145 25.8601 19.4825Z" fill="black"/>
</svg>
