<svg width="32" height="32" viewBox="0 0 32 32" fill="none" xmlns="http://www.w3.org/2000/svg">
<path d="M25.5301 14.5301C25.3895 14.6705 25.1988 14.7494 25.0001 14.7494C24.8013 14.7494 24.6107 14.6705 24.4701 14.5301L16.7501 6.81132V27.0001C16.7501 27.199 16.6711 27.3898 16.5304 27.5304C16.3898 27.6711 16.199 27.7501 16.0001 27.7501C15.8012 27.7501 15.6104 27.6711 15.4698 27.5304C15.3291 27.3898 15.2501 27.199 15.2501 27.0001V6.81132L7.53009 14.5301C7.38792 14.6626 7.19987 14.7347 7.00557 14.7312C6.81127 14.7278 6.62588 14.6491 6.48847 14.5117C6.35106 14.3743 6.27234 14.1889 6.26892 13.9946C6.26549 13.8003 6.33761 13.6122 6.47009 13.4701L15.4701 4.47007C15.6107 4.32962 15.8013 4.25073 16.0001 4.25073C16.1988 4.25073 16.3895 4.32962 16.5301 4.47007L25.5301 13.4701C25.6705 13.6107 25.7494 13.8013 25.7494 14.0001C25.7494 14.1988 25.6705 14.3894 25.5301 14.5301Z" fill="black"/>
</svg>
