<svg width="32" height="32" viewBox="0 0 32 32" fill="none" xmlns="http://www.w3.org/2000/svg">
<path d="M18.5 13V8.00003C18.5 7.86743 18.5527 7.74025 18.6465 7.64648C18.7402 7.55271 18.8674 7.50003 19 7.50003C19.1326 7.50003 19.2598 7.55271 19.3536 7.64648C19.4474 7.74025 19.5 7.86743 19.5 8.00003V11.7925L25.6463 5.64628C25.6927 5.59983 25.7479 5.56298 25.8086 5.53784C25.8693 5.5127 25.9343 5.49976 26 5.49976C26.0657 5.49976 26.1308 5.5127 26.1915 5.53784C26.2522 5.56298 26.3073 5.59983 26.3538 5.64628C26.4002 5.69274 26.4371 5.74789 26.4622 5.80859C26.4874 5.86928 26.5003 5.93434 26.5003 6.00003C26.5003 6.06573 26.4874 6.13079 26.4622 6.19148C26.4371 6.25218 26.4002 6.30733 26.3538 6.35378L20.2075 12.5H24C24.1326 12.5 24.2598 12.5527 24.3536 12.6465C24.4474 12.7402 24.5 12.8674 24.5 13C24.5 13.1326 24.4474 13.2598 24.3536 13.3536C24.2598 13.4474 24.1326 13.5 24 13.5H19C18.8674 13.5 18.7402 13.4474 18.6465 13.3536C18.5527 13.2598 18.5 13.1326 18.5 13ZM13 18.5H8.00003C7.86743 18.5 7.74025 18.5527 7.64648 18.6465C7.55271 18.7402 7.50003 18.8674 7.50003 19C7.50003 19.1326 7.55271 19.2598 7.64648 19.3536C7.74025 19.4474 7.86743 19.5 8.00003 19.5H11.7925L5.64628 25.6463C5.55246 25.7401 5.49976 25.8674 5.49976 26C5.49976 26.1327 5.55246 26.26 5.64628 26.3538C5.7401 26.4476 5.86735 26.5003 6.00003 26.5003C6.13272 26.5003 6.25996 26.4476 6.35378 26.3538L12.5 20.2075V24C12.5 24.1326 12.5527 24.2598 12.6465 24.3536C12.7402 24.4474 12.8674 24.5 13 24.5C13.1326 24.5 13.2598 24.4474 13.3536 24.3536C13.4474 24.2598 13.5 24.1326 13.5 24V19C13.5 18.8674 13.4474 18.7402 13.3536 18.6465C13.2598 18.5527 13.1326 18.5 13 18.5ZM20.2075 19.5H24C24.1326 19.5 24.2598 19.4474 24.3536 19.3536C24.4474 19.2598 24.5 19.1326 24.5 19C24.5 18.8674 24.4474 18.7402 24.3536 18.6465C24.2598 18.5527 24.1326 18.5 24 18.5H19C18.8674 18.5 18.7402 18.5527 18.6465 18.6465C18.5527 18.7402 18.5 18.8674 18.5 19V24C18.5 24.1326 18.5527 24.2598 18.6465 24.3536C18.7402 24.4474 18.8674 24.5 19 24.5C19.1326 24.5 19.2598 24.4474 19.3536 24.3536C19.4474 24.2598 19.5 24.1326 19.5 24V20.2075L25.6463 26.3538C25.7401 26.4476 25.8674 26.5003 26 26.5003C26.1327 26.5003 26.26 26.4476 26.3538 26.3538C26.4476 26.26 26.5003 26.1327 26.5003 26C26.5003 25.8674 26.4476 25.7401 26.3538 25.6463L20.2075 19.5ZM13 7.50003C12.8674 7.50003 12.7402 7.55271 12.6465 7.64648C12.5527 7.74025 12.5 7.86743 12.5 8.00003V11.7925L6.35378 5.64628C6.25996 5.55246 6.13272 5.49976 6.00003 5.49976C5.86735 5.49976 5.7401 5.55246 5.64628 5.64628C5.55246 5.7401 5.49976 5.86735 5.49976 6.00003C5.49976 6.13272 5.55246 6.25996 5.64628 6.35378L11.7925 12.5H8.00003C7.86743 12.5 7.74025 12.5527 7.64648 12.6465C7.55271 12.7402 7.50003 12.8674 7.50003 13C7.50003 13.1326 7.55271 13.2598 7.64648 13.3536C7.74025 13.4474 7.86743 13.5 8.00003 13.5H13C13.1326 13.5 13.2598 13.4474 13.3536 13.3536C13.4474 13.2598 13.5 13.1326 13.5 13V8.00003C13.5 7.86743 13.4474 7.74025 13.3536 7.64648C13.2598 7.55271 13.1326 7.50003 13 7.50003Z" fill="black"/>
</svg>
