<svg width="32" height="32" viewBox="0 0 32 32" fill="none" xmlns="http://www.w3.org/2000/svg">
<path d="M26 3.5H6C5.33696 3.5 4.70107 3.76339 4.23223 4.23223C3.76339 4.70107 3.5 5.33696 3.5 6V26C3.5 26.663 3.76339 27.2989 4.23223 27.7678C4.70107 28.2366 5.33696 28.5 6 28.5H26C26.663 28.5 27.2989 28.2366 27.7678 27.7678C28.2366 27.2989 28.5 26.663 28.5 26V6C28.5 5.33696 28.2366 4.70107 27.7678 4.23223C27.2989 3.76339 26.663 3.5 26 3.5ZM25.5 25.5H6.5V6.5H25.5V25.5ZM10.9388 21.0613C10.7989 20.9219 10.688 20.7563 10.6122 20.574C10.5365 20.3917 10.4976 20.1962 10.4976 19.9988C10.4976 19.8013 10.5365 19.6059 10.6122 19.4235C10.688 19.2412 10.7989 19.0756 10.9388 18.9363L16.375 13.5H14C13.6022 13.5 13.2206 13.342 12.9393 13.0607C12.658 12.7794 12.5 12.3978 12.5 12C12.5 11.6022 12.658 11.2206 12.9393 10.9393C13.2206 10.658 13.6022 10.5 14 10.5H20C20.3978 10.5 20.7794 10.658 21.0607 10.9393C21.342 11.2206 21.5 11.6022 21.5 12V18C21.5 18.3978 21.342 18.7794 21.0607 19.0607C20.7794 19.342 20.3978 19.5 20 19.5C19.6022 19.5 19.2206 19.342 18.9393 19.0607C18.658 18.7794 18.5 18.3978 18.5 18V15.625L13.0612 21.065C12.9219 21.2048 12.7563 21.3158 12.574 21.3915C12.3917 21.4672 12.1962 21.5062 11.9987 21.5062C11.8013 21.5062 11.6058 21.4672 11.4235 21.3915C11.2412 21.3158 11.0756 21.2048 10.9362 21.065L10.9388 21.0613Z" fill="black"/>
</svg>
