<svg width="32" height="32" viewBox="0 0 32 32" fill="none" xmlns="http://www.w3.org/2000/svg">
<path d="M28.7501 25C28.7501 25.1989 28.6711 25.3897 28.5304 25.5304C28.3898 25.671 28.199 25.75 28.0001 25.75C27.8012 25.75 27.6104 25.671 27.4697 25.5304C27.3291 25.3897 27.2501 25.1989 27.2501 25C27.2468 22.0174 26.0604 19.1578 23.9514 17.0487C21.8423 14.9397 18.9827 13.7533 16.0001 13.75H5.81132L10.5301 18.47C10.6038 18.5387 10.6629 18.6215 10.7039 18.7135C10.7448 18.8055 10.7669 18.9048 10.7687 19.0055C10.7704 19.1062 10.7519 19.2062 10.7142 19.2996C10.6765 19.393 10.6203 19.4778 10.5491 19.5491C10.4779 19.6203 10.3931 19.6764 10.2997 19.7142C10.2063 19.7519 10.1063 19.7704 10.0056 19.7686C9.90485 19.7668 9.80553 19.7448 9.71353 19.7038C9.62153 19.6628 9.53873 19.6037 9.47007 19.53L3.47007 13.53C3.32962 13.3894 3.25073 13.1988 3.25073 13C3.25073 12.8013 3.32962 12.6107 3.47007 12.47L9.47007 6.47003C9.61225 6.33755 9.80029 6.26543 9.99459 6.26885C10.1889 6.27228 10.3743 6.35099 10.5117 6.48841C10.6491 6.62582 10.7278 6.81121 10.7312 7.00551C10.7347 7.19981 10.6626 7.38785 10.5301 7.53003L5.81132 12.25H16.0001C19.3804 12.254 22.6211 13.5986 25.0113 15.9888C27.4015 18.379 28.7461 21.6197 28.7501 25Z" fill="black"/>
</svg>
