<svg width="32" height="32" viewBox="0 0 32 32" fill="none" xmlns="http://www.w3.org/2000/svg">
<path d="M28.5 16C28.5003 19.2864 27.2064 22.4407 24.8983 24.7802C22.5902 27.1196 19.4536 28.456 16.1675 28.5H16C12.8088 28.5067 9.73745 27.2853 7.4225 25.0888C7.13325 24.8156 6.96436 24.4387 6.95299 24.041C6.94162 23.6433 7.0887 23.2574 7.36188 22.9681C7.63505 22.6789 8.01194 22.51 8.40963 22.4986C8.80733 22.4873 9.19325 22.6343 9.4825 22.9075C10.8403 24.1894 12.5458 25.0427 14.3858 25.3608C16.2258 25.6789 18.1188 25.4477 19.8281 24.696C21.5375 23.9444 22.9874 22.7057 23.9968 21.1346C25.0061 19.5636 25.53 17.73 25.5031 15.8628C25.4762 13.9957 24.8997 12.1779 23.8455 10.6366C22.7914 9.09533 21.3064 7.89887 19.5761 7.19676C17.8458 6.49466 15.947 6.31806 14.1169 6.68902C12.2868 7.05998 10.6066 7.96206 9.28625 9.28252C9.27 9.29877 9.255 9.31377 9.2375 9.32877L6.86125 11.5H9C9.39782 11.5 9.77936 11.6581 10.0607 11.9394C10.342 12.2207 10.5 12.6022 10.5 13C10.5 13.3978 10.342 13.7794 10.0607 14.0607C9.77936 14.342 9.39782 14.5 9 14.5H3C2.60218 14.5 2.22064 14.342 1.93934 14.0607C1.65804 13.7794 1.5 13.3978 1.5 13V7.00002C1.5 6.60219 1.65804 6.22066 1.93934 5.93936C2.22064 5.65805 2.60218 5.50002 3 5.50002C3.39782 5.50002 3.77936 5.65805 4.06066 5.93936C4.34196 6.22066 4.5 6.60219 4.5 7.00002V9.59002L7.185 7.13252C8.93612 5.3908 11.164 4.20688 13.5873 3.73017C16.0107 3.25346 18.521 3.50534 20.8013 4.45402C23.0817 5.4027 25.0299 7.00565 26.4001 9.06055C27.7703 11.1155 28.501 13.5302 28.5 16Z" fill="black"/>
</svg>
