<svg width="32" height="32" viewBox="0 0 32 32" fill="none" xmlns="http://www.w3.org/2000/svg">
<path d="M30.4999 10V19C30.4999 19.3978 30.3419 19.7794 30.0606 20.0607C29.7793 20.342 29.3978 20.5 28.9999 20.5C28.6021 20.5 28.2206 20.342 27.9393 20.0607C27.658 19.7794 27.4999 19.3978 27.4999 19V13.625L16.0612 25.065C15.9218 25.2048 15.7563 25.3158 15.5739 25.3915C15.3916 25.4672 15.1961 25.5062 14.9987 25.5062C14.8013 25.5062 14.6058 25.4672 14.4235 25.3915C14.2411 25.3158 14.0756 25.2048 13.9362 25.065L1.9362 13.065C1.6544 12.7832 1.49609 12.401 1.49609 12.0025C1.49609 11.604 1.6544 11.2218 1.9362 10.94C2.21799 10.6582 2.60018 10.4999 2.9987 10.4999C3.39721 10.4999 3.7794 10.6582 4.0612 10.94L14.9999 21.875L25.3749 11.5H19.9999C19.6021 11.5 19.2206 11.342 18.9393 11.0607C18.658 10.7794 18.4999 10.3978 18.4999 10C18.4999 9.60218 18.658 9.22064 18.9393 8.93934C19.2206 8.65804 19.6021 8.5 19.9999 8.5H28.9999C29.3978 8.5 29.7793 8.65804 30.0606 8.93934C30.3419 9.22064 30.4999 9.60218 30.4999 10Z" fill="black"/>
</svg>
