<svg width="32" height="32" viewBox="0 0 32 32" fill="none" xmlns="http://www.w3.org/2000/svg">
<path opacity="0.08" d="M26 10H18L22 6L26 10ZM10 26L14 22H6L10 26Z" fill="black"/>
<path d="M14.0001 21.0001H11.0001V6.00005C11.0001 5.73484 10.8947 5.48048 10.7072 5.29295C10.5196 5.10541 10.2653 5.00005 10.0001 5.00005C9.73484 5.00005 9.48048 5.10541 9.29295 5.29295C9.10541 5.48048 9.00006 5.73484 9.00006 6.00005V21.0001H6.00006C5.80216 20.9999 5.60867 21.0585 5.44407 21.1683C5.27948 21.2782 5.15119 21.4344 5.07543 21.6173C4.99968 21.8001 4.97988 22.0013 5.01853 22.1954C5.05718 22.3894 5.15254 22.5677 5.29256 22.7076L9.29255 26.7076C9.38543 26.8005 9.49572 26.8743 9.61712 26.9246C9.73851 26.9749 9.86864 27.0008 10.0001 27.0008C10.1315 27.0008 10.2616 26.9749 10.383 26.9246C10.5044 26.8743 10.6147 26.8005 10.7076 26.7076L14.7076 22.7076C14.8476 22.5677 14.9429 22.3894 14.9816 22.1954C15.0202 22.0013 15.0004 21.8001 14.9247 21.6173C14.8489 21.4344 14.7206 21.2782 14.556 21.1683C14.3914 21.0585 14.198 20.9999 14.0001 21.0001ZM10.0001 24.5863L8.4138 23.0001H11.5863L10.0001 24.5863ZM26.7076 9.29255L22.7076 5.29255C22.6147 5.19958 22.5044 5.12582 22.383 5.07549C22.2616 5.02517 22.1315 4.99927 22.0001 4.99927C21.8686 4.99927 21.7385 5.02517 21.6171 5.07549C21.4957 5.12582 21.3854 5.19958 21.2926 5.29255L17.2926 9.29255C17.1525 9.43241 17.0572 9.61066 17.0185 9.80475C16.9799 9.99883 16.9997 10.2 17.0754 10.3828C17.1512 10.5657 17.2795 10.7219 17.4441 10.8318C17.6087 10.9416 17.8022 11.0002 18.0001 11.0001H21.0001V26.0001C21.0001 26.2653 21.1054 26.5196 21.2929 26.7072C21.4805 26.8947 21.7348 27.0001 22.0001 27.0001C22.2653 27.0001 22.5196 26.8947 22.7072 26.7072C22.8947 26.5196 23.0001 26.2653 23.0001 26.0001V11.0001H26.0001C26.198 11.0002 26.3914 10.9416 26.556 10.8318C26.7206 10.7219 26.8489 10.5657 26.9247 10.3828C27.0004 10.2 27.0202 9.99883 26.9816 9.80475C26.9429 9.61066 26.8476 9.43241 26.7076 9.29255ZM20.4138 9.00005L22.0001 7.4138L23.5863 9.00005H20.4138Z" fill="black"/>
</svg>
