<svg width="32" height="32" viewBox="0 0 32 32" fill="none" xmlns="http://www.w3.org/2000/svg">
<path d="M21 17.0001V12.0001H11C9.4087 12.0001 7.88258 12.6322 6.75736 13.7574C5.63214 14.8826 5 16.4088 5 18.0001C5 19.5914 5.63214 21.1175 6.75736 22.2427C7.88258 23.3679 9.4087 24.0001 11 24.0001H22C22.2652 24.0001 22.5196 24.1054 22.7071 24.2929C22.8946 24.4805 23 24.7348 23 25.0001C23 25.2653 22.8946 25.5196 22.7071 25.7072C22.5196 25.8947 22.2652 26.0001 22 26.0001H11C8.87827 26.0001 6.84344 25.1572 5.34315 23.6569C3.84285 22.1566 3 20.1218 3 18.0001C3 15.8783 3.84285 13.8435 5.34315 12.3432C6.84344 10.8429 8.87827 10.0001 11 10.0001H21V5.00006C20.9998 4.80216 21.0584 4.60867 21.1683 4.44407C21.2782 4.27948 21.4344 4.15119 21.6172 4.07543C21.8 3.99968 22.0012 3.97988 22.1953 4.01853C22.3894 4.05718 22.5676 4.15254 22.7075 4.29256L28.7075 10.2926C28.8005 10.3854 28.8742 10.4957 28.9246 10.6171C28.9749 10.7385 29.0008 10.8686 29.0008 11.0001C29.0008 11.1315 28.9749 11.2616 28.9246 11.383C28.8742 11.5044 28.8005 11.6147 28.7075 11.7076L22.7075 17.7076C22.5676 17.8476 22.3894 17.9429 22.1953 17.9816C22.0012 18.0202 21.8 18.0004 21.6172 17.9247C21.4344 17.8489 21.2782 17.7206 21.1683 17.556C21.0584 17.3914 20.9998 17.198 21 17.0001Z" fill="black"/>
</svg>
