<svg width="32" height="32" viewBox="0 0 32 32" fill="none" xmlns="http://www.w3.org/2000/svg">
<path d="M28.53 12.53C28.3894 12.6704 28.1988 12.7493 28 12.7493C27.8012 12.7493 27.6106 12.6704 27.47 12.53L22.75 7.8112V24C22.75 24.1989 22.671 24.3896 22.5303 24.5303C22.3897 24.6709 22.1989 24.75 22 24.75H4C3.80109 24.75 3.61032 24.6709 3.46967 24.5303C3.32902 24.3896 3.25 24.1989 3.25 24C3.25 23.801 3.32902 23.6103 3.46967 23.4696C3.61032 23.329 3.80109 23.25 4 23.25H21.25V7.8112L16.53 12.53C16.4613 12.6036 16.3785 12.6627 16.2865 12.7037C16.1945 12.7447 16.0952 12.7668 15.9945 12.7685C15.8938 12.7703 15.7938 12.7518 15.7004 12.7141C15.607 12.6764 15.5222 12.6202 15.451 12.549C15.3797 12.4778 15.3236 12.3929 15.2859 12.2995C15.2482 12.2062 15.2296 12.1061 15.2314 12.0054C15.2332 11.9047 15.2552 11.8054 15.2962 11.7134C15.3372 11.6214 15.3963 11.5386 15.47 11.47L21.47 5.46995C21.6106 5.3295 21.8012 5.25061 22 5.25061C22.1988 5.25061 22.3894 5.3295 22.53 5.46995L28.53 11.47C28.6705 11.6106 28.7493 11.8012 28.7493 12C28.7493 12.1987 28.6705 12.3893 28.53 12.53Z" fill="black"/>
</svg>
