<svg width="32" height="32" viewBox="0 0 32 32" fill="none" xmlns="http://www.w3.org/2000/svg">
<path d="M20.5301 24.4698C20.6705 24.6105 20.7494 24.8011 20.7494 24.9998C20.7494 25.1986 20.6705 25.3892 20.5301 25.5298L16.5301 29.5298C16.3895 29.6703 16.1988 29.7492 16.0001 29.7492C15.8013 29.7492 15.6107 29.6703 15.4701 29.5298L11.4701 25.5298C11.3376 25.3877 11.2655 25.1996 11.2689 25.0053C11.2723 24.811 11.3511 24.6256 11.4885 24.4882C11.6259 24.3508 11.8113 24.2721 12.0056 24.2687C12.1999 24.2652 12.3879 24.3373 12.5301 24.4698L15.2501 27.1886V4.81358L12.5301 7.52983C12.3879 7.66231 12.1999 7.73443 12.0056 7.731C11.8113 7.72758 11.6259 7.64886 11.4885 7.51145C11.3511 7.37404 11.2723 7.18865 11.2689 6.99435C11.2655 6.80005 11.3376 6.612 11.4701 6.46983L15.4701 2.46983C15.6107 2.32938 15.8013 2.25049 16.0001 2.25049C16.1988 2.25049 16.3895 2.32938 16.5301 2.46983L20.5301 6.46983C20.6038 6.53849 20.6629 6.62129 20.7039 6.71329C20.7449 6.80529 20.7669 6.9046 20.7687 7.00531C20.7705 7.10601 20.7519 7.20604 20.7142 7.29943C20.6765 7.39281 20.6203 7.47765 20.5491 7.54887C20.4779 7.62009 20.3931 7.67623 20.2997 7.71395C20.2063 7.75167 20.1063 7.7702 20.0056 7.76842C19.9049 7.76664 19.8056 7.7446 19.7136 7.70361C19.6216 7.66262 19.5388 7.60352 19.4701 7.52983L16.7501 4.81108V27.1861L19.4701 24.4673C19.611 24.3272 19.8019 24.2488 20.0006 24.2492C20.1994 24.2497 20.3898 24.329 20.5301 24.4698Z" fill="black"/>
</svg>
