<svg width="32" height="32" viewBox="0 0 32 32" fill="none" xmlns="http://www.w3.org/2000/svg">
<path d="M27.7075 10.7076C27.6146 10.8005 27.5043 10.8743 27.3829 10.9246C27.2615 10.9749 27.1314 11.0008 27 11.0008C26.8686 11.0008 26.7385 10.9749 26.6171 10.9246C26.4957 10.8743 26.3854 10.8005 26.2925 10.7076L22 6.4138V21.0001C22 23.1218 21.1571 25.1566 19.6569 26.6569C18.1566 28.1572 16.1217 29.0001 14 29.0001C11.8783 29.0001 9.84344 28.1572 8.34315 26.6569C6.84285 25.1566 6 23.1218 6 21.0001V10.0001C6 9.73484 6.10536 9.48048 6.29289 9.29295C6.48043 9.10541 6.73478 9.00005 7 9.00005C7.26522 9.00005 7.51957 9.10541 7.70711 9.29295C7.89464 9.48048 8 9.73484 8 10.0001V21.0001C8 22.5914 8.63214 24.1175 9.75736 25.2427C10.8826 26.3679 12.4087 27.0001 14 27.0001C15.5913 27.0001 17.1174 26.3679 18.2426 25.2427C19.3679 24.1175 20 22.5914 20 21.0001V6.4138L15.7075 10.7076C15.5199 10.8952 15.2654 11.0006 15 11.0006C14.7346 11.0006 14.4801 10.8952 14.2925 10.7076C14.1049 10.5199 13.9994 10.2654 13.9994 10.0001C13.9994 9.73469 14.1049 9.48019 14.2925 9.29255L20.2925 3.29255C20.3854 3.19958 20.4957 3.12582 20.6171 3.07549C20.7385 3.02517 20.8686 2.99927 21 2.99927C21.1314 2.99927 21.2615 3.02517 21.3829 3.07549C21.5043 3.12582 21.6146 3.19958 21.7075 3.29255L27.7075 9.29255C27.8005 9.38543 27.8742 9.49572 27.9246 9.61711C27.9749 9.73851 28.0008 9.86864 28.0008 10.0001C28.0008 10.1315 27.9749 10.2616 27.9246 10.383C27.8742 10.5044 27.8005 10.6147 27.7075 10.7076Z" fill="black"/>
</svg>
