<svg width="32" height="32" viewBox="0 0 32 32" fill="none" xmlns="http://www.w3.org/2000/svg">
<path d="M29.7501 10V19C29.7501 19.1989 29.6711 19.3897 29.5304 19.5303C29.3898 19.671 29.199 19.75 29.0001 19.75C28.8012 19.75 28.6104 19.671 28.4698 19.5303C28.3291 19.3897 28.2501 19.1989 28.2501 19V11.81L15.5301 24.53C15.3895 24.6705 15.1988 24.7493 15.0001 24.7493C14.8013 24.7493 14.6107 24.6705 14.4701 24.53L2.47009 12.53C2.33761 12.3878 2.26549 12.1998 2.26892 12.0055C2.27234 11.8112 2.35106 11.6258 2.48847 11.4884C2.62588 11.351 2.81127 11.2723 3.00557 11.2688C3.19987 11.2654 3.38792 11.3375 3.53009 11.47L15.0001 22.9387L27.1901 10.75H20.0001C19.8012 10.75 19.6104 10.671 19.4698 10.5303C19.3291 10.3897 19.2501 10.1989 19.2501 10C19.2501 9.80109 19.3291 9.61032 19.4698 9.46967C19.6104 9.32902 19.8012 9.25 20.0001 9.25H29.0001C29.199 9.25 29.3898 9.32902 29.5304 9.46967C29.6711 9.61032 29.7501 9.80109 29.7501 10Z" fill="black"/>
</svg>
