<svg width="32" height="32" viewBox="0 0 32 32" fill="none" xmlns="http://www.w3.org/2000/svg">
<path d="M10.7076 18.2925C10.8952 18.4801 11.0006 18.7346 11.0006 19C11.0006 19.2654 10.8952 19.5199 10.7076 19.7075C10.5199 19.8951 10.2654 20.0006 10.0001 20.0006C9.73469 20.0006 9.48019 19.8951 9.29255 19.7075L3.29255 13.7075C3.19958 13.6146 3.12582 13.5043 3.07549 13.3829C3.02517 13.2615 2.99927 13.1314 2.99927 13C2.99927 12.8686 3.02517 12.7385 3.07549 12.6171C3.12582 12.4957 3.19958 12.3854 3.29255 12.2925L9.29255 6.29251C9.48019 6.10487 9.73469 5.99945 10.0001 5.99945C10.2654 5.99945 10.5199 6.10487 10.7076 6.29251C10.8952 6.48015 11.0006 6.73464 11.0006 7.00001C11.0006 7.26537 10.8952 7.51987 10.7076 7.70751L5.4138 13L10.7076 18.2925ZM16.0001 12H12.4138L16.7076 7.70751C16.8952 7.51987 17.0006 7.26537 17.0006 7.00001C17.0006 6.73464 16.8952 6.48015 16.7076 6.29251C16.5199 6.10487 16.2654 5.99945 16.0001 5.99945C15.7347 5.99945 15.4802 6.10487 15.2926 6.29251L9.29255 12.2925C9.19958 12.3854 9.12582 12.4957 9.07549 12.6171C9.02517 12.7385 8.99927 12.8686 8.99927 13C8.99927 13.1314 9.02517 13.2615 9.07549 13.3829C9.12582 13.5043 9.19958 13.6146 9.29255 13.7075L15.2926 19.7075C15.3855 19.8004 15.4958 19.8741 15.6172 19.9244C15.7386 19.9747 15.8687 20.0006 16.0001 20.0006C16.1314 20.0006 16.2616 19.9747 16.383 19.9244C16.5043 19.8741 16.6146 19.8004 16.7076 19.7075C16.8005 19.6146 16.8742 19.5043 16.9244 19.3829C16.9747 19.2615 17.0006 19.1314 17.0006 19C17.0006 18.8686 16.9747 18.7385 16.9244 18.6171C16.8742 18.4957 16.8005 18.3854 16.7076 18.2925L12.4138 14H16.0001C18.9164 14.0033 21.7124 15.1633 23.7746 17.2255C25.8368 19.2877 26.9967 22.0836 27.0001 25C27.0001 25.2652 27.1054 25.5196 27.2929 25.7071C27.4805 25.8947 27.7348 26 28.0001 26C28.2653 26 28.5196 25.8947 28.7072 25.7071C28.8947 25.5196 29.0001 25.2652 29.0001 25C28.9964 21.5533 27.6256 18.2488 25.1884 15.8116C22.7512 13.3745 19.4468 12.0036 16.0001 12Z" fill="black"/>
</svg>
