<svg width="32" height="32" viewBox="0 0 32 32" fill="none" xmlns="http://www.w3.org/2000/svg">
<path d="M24.5 8V21C24.5 21.1326 24.4474 21.2598 24.3536 21.3536C24.2598 21.4473 24.1326 21.5 24 21.5C23.8674 21.5 23.7402 21.4473 23.6465 21.3536C23.5527 21.2598 23.5 21.1326 23.5 21V9.2075L8.35378 24.3538C8.25996 24.4476 8.13272 24.5003 8.00003 24.5003C7.86735 24.5003 7.7401 24.4476 7.64628 24.3538C7.55246 24.2599 7.49976 24.1327 7.49976 24C7.49976 23.8673 7.55246 23.7401 7.64628 23.6462L22.7925 8.5H11C10.8674 8.5 10.7402 8.44732 10.6465 8.35355C10.5527 8.25979 10.5 8.13261 10.5 8C10.5 7.86739 10.5527 7.74021 10.6465 7.64645C10.7402 7.55268 10.8674 7.5 11 7.5H24C24.1326 7.5 24.2598 7.55268 24.3536 7.64645C24.4474 7.74021 24.5 7.86739 24.5 8Z" fill="black"/>
</svg>
