<svg width="32" height="32" viewBox="0 0 32 32" fill="none" xmlns="http://www.w3.org/2000/svg">
<path d="M10.9387 8.0613C10.7989 7.92194 10.6879 7.75636 10.6122 7.57403C10.5365 7.3917 10.4975 7.19622 10.4975 6.9988C10.4975 6.80138 10.5365 6.6059 10.6122 6.42357C10.6879 6.24124 10.7989 6.07566 10.9387 5.9363L14.9387 1.9363C15.0781 1.79646 15.2437 1.6855 15.426 1.6098C15.6083 1.53409 15.8038 1.49512 16.0012 1.49512C16.1986 1.49512 16.3941 1.53409 16.5764 1.6098C16.7588 1.6855 16.9244 1.79646 17.0637 1.9363L21.0637 5.9363C21.3455 6.21809 21.5038 6.60029 21.5038 6.9988C21.5038 7.39732 21.3455 7.77951 21.0637 8.0613C20.7819 8.34309 20.3997 8.5014 20.0012 8.5014C19.6027 8.5014 19.2205 8.34309 18.9387 8.0613L17.5 6.62505V12C17.5 12.3979 17.3419 12.7794 17.0606 13.0607C16.7793 13.342 16.3978 13.5 16 13.5C15.6021 13.5 15.2206 13.342 14.9393 13.0607C14.658 12.7794 14.5 12.3979 14.5 12V6.62505L13.0612 8.0613C12.9219 8.20076 12.7565 8.3114 12.5744 8.38689C12.3923 8.46238 12.1971 8.50123 12 8.50123C11.8028 8.50123 11.6076 8.46238 11.4256 8.38689C11.2435 8.3114 11.078 8.20076 10.9387 8.0613ZM18.9387 23.9363L17.5 25.375V20C17.5 19.6022 17.3419 19.2207 17.0606 18.9394C16.7793 18.6581 16.3978 18.5 16 18.5C15.6021 18.5 15.2206 18.6581 14.9393 18.9394C14.658 19.2207 14.5 19.6022 14.5 20V25.375L13.0612 23.935C12.9217 23.7955 12.756 23.6848 12.5737 23.6093C12.3914 23.5338 12.196 23.4949 11.9987 23.4949C11.8014 23.4949 11.606 23.5338 11.4237 23.6093C11.2414 23.6848 11.0757 23.7955 10.9362 23.935C10.7967 24.0746 10.686 24.2402 10.6105 24.4225C10.535 24.6048 10.4961 24.8002 10.4961 24.9975C10.4961 25.1949 10.535 25.3903 10.6105 25.5726C10.686 25.7549 10.7967 25.9205 10.9362 26.06L14.9362 30.06C15.0756 30.1999 15.2412 30.3108 15.4235 30.3866C15.6058 30.4623 15.8013 30.5012 15.9987 30.5012C16.1961 30.5012 16.3916 30.4623 16.5739 30.3866C16.7563 30.3108 16.9219 30.1999 17.0612 30.06L21.0612 26.06C21.343 25.7783 21.5013 25.3961 21.5013 24.9975C21.5013 24.599 21.343 24.2168 21.0612 23.935C20.7794 23.6533 20.3972 23.4949 19.9987 23.4949C19.6002 23.4949 19.218 23.6533 18.9362 23.935L18.9387 23.9363ZM30.0637 14.9363L26.0637 10.9363C25.7819 10.6545 25.3997 10.4962 25.0012 10.4962C24.6027 10.4962 24.2205 10.6545 23.9387 10.9363C23.6569 11.2181 23.4986 11.6003 23.4986 11.9988C23.4986 12.3973 23.6569 12.7795 23.9387 13.0613L25.375 14.5H20C19.6021 14.5 19.2206 14.6581 18.9393 14.9394C18.658 15.2207 18.5 15.6022 18.5 16C18.5 16.3979 18.658 16.7794 18.9393 17.0607C19.2206 17.342 19.6021 17.5 20 17.5H25.375L23.935 18.9388C23.6532 19.2206 23.4949 19.6028 23.4949 20.0013C23.4949 20.3998 23.6532 20.782 23.935 21.0638C24.2168 21.3456 24.5989 21.5039 24.9975 21.5039C25.396 21.5039 25.7782 21.3456 26.06 21.0638L30.06 17.0638C30.1999 16.9245 30.3109 16.759 30.3868 16.5767C30.4626 16.3944 30.5017 16.199 30.5018 16.0016C30.5019 15.8041 30.463 15.6086 30.3874 15.4263C30.3118 15.2439 30.201 15.0782 30.0612 14.9388L30.0637 14.9363ZM6.62496 17.5H12C12.3978 17.5 12.7793 17.342 13.0606 17.0607C13.3419 16.7794 13.5 16.3979 13.5 16C13.5 15.6022 13.3419 15.2207 13.0606 14.9394C12.7793 14.6581 12.3978 14.5 12 14.5H6.62496L8.06496 13.0613C8.34675 12.7795 8.50506 12.3973 8.50506 11.9988C8.50506 11.6003 8.34675 11.2181 8.06496 10.9363C7.78317 10.6545 7.40098 10.4962 7.00246 10.4962C6.60395 10.4962 6.22176 10.6545 5.93996 10.9363L1.93996 14.9363C1.80012 15.0757 1.68917 15.2412 1.61346 15.4236C1.53775 15.6059 1.49878 15.8014 1.49878 15.9988C1.49878 16.1962 1.53775 16.3917 1.61346 16.574C1.68917 16.7564 1.80012 16.9219 1.93996 17.0613L5.93996 21.0613C6.07949 21.2008 6.24514 21.3115 6.42744 21.387C6.60975 21.4625 6.80514 21.5014 7.00246 21.5014C7.19979 21.5014 7.39518 21.4625 7.57748 21.387C7.75979 21.3115 7.92543 21.2008 8.06496 21.0613C8.20449 20.9218 8.31517 20.7561 8.39069 20.5738C8.4662 20.3915 8.50506 20.1961 8.50506 19.9988C8.50506 19.8015 8.4662 19.6061 8.39069 19.4238C8.31517 19.2415 8.20449 19.0758 8.06496 18.9363L6.62496 17.5Z" fill="black"/>
</svg>
