<svg width="32" height="32" viewBox="0 0 32 32" fill="none" xmlns="http://www.w3.org/2000/svg">
<path opacity="0.08" d="M19 10H7L13 4L19 10Z" fill="black"/>
<path d="M25.0001 27C22.0837 26.9967 19.2877 25.8367 17.2255 23.7745C15.1634 21.7123 14.0034 18.9164 14.0001 16V11H19.0001C19.198 11.0001 19.3914 10.9416 19.556 10.8317C19.7206 10.7218 19.8489 10.5656 19.9247 10.3828C20.0004 10.2 20.0202 9.99877 19.9816 9.80469C19.9429 9.6106 19.8476 9.43235 19.7076 9.29249L13.7076 3.29249C13.6147 3.19952 13.5044 3.12576 13.383 3.07543C13.2616 3.02511 13.1315 2.99921 13.0001 2.99921C12.8686 2.99921 12.7385 3.02511 12.6171 3.07543C12.4957 3.12576 12.3854 3.19952 12.2926 3.29249L6.29256 9.29249C6.15254 9.43235 6.05718 9.6106 6.01853 9.80469C5.97988 9.99877 5.99968 10.2 6.07543 10.3828C6.15119 10.5656 6.27948 10.7218 6.44407 10.8317C6.60867 10.9416 6.80216 11.0001 7.00006 11H12.0001V16C12.0037 19.4467 13.3745 22.7512 15.8117 25.1884C18.2489 27.6255 21.5534 28.9964 25.0001 29C25.2653 29 25.5196 28.8946 25.7072 28.7071C25.8947 28.5196 26.0001 28.2652 26.0001 28C26.0001 27.7348 25.8947 27.4804 25.7072 27.2929C25.5196 27.1053 25.2653 27 25.0001 27ZM13.0001 5.41374L16.5863 8.99999H9.4138L13.0001 5.41374Z" fill="black"/>
</svg>
