<svg width="32" height="32" viewBox="0 0 32 32" fill="none" xmlns="http://www.w3.org/2000/svg">
<path d="M28.3538 13.3537L22.3538 19.3537C22.2599 19.4475 22.1327 19.5003 22 19.5003C21.8673 19.5003 21.7401 19.4475 21.6462 19.3537C21.5524 19.2599 21.4997 19.1327 21.4997 19C21.4997 18.8673 21.5524 18.74 21.6462 18.6462L27.2925 13L21.6462 7.35372C21.5524 7.2599 21.4997 7.13265 21.4997 6.99997C21.4997 6.86729 21.5524 6.74004 21.6462 6.64622C21.7401 6.5524 21.8673 6.49969 22 6.49969C22.1327 6.49969 22.2599 6.5524 22.3538 6.64622L28.3538 12.6462C28.4002 12.6927 28.4371 12.7478 28.4623 12.8085C28.4874 12.8692 28.5004 12.9343 28.5004 13C28.5004 13.0657 28.4874 13.1307 28.4623 13.1914C28.4371 13.2521 28.4002 13.3073 28.3538 13.3537ZM22.3538 12.6462L16.3538 6.64622C16.3073 6.59977 16.2521 6.56292 16.1914 6.53778C16.1308 6.51263 16.0657 6.49969 16 6.49969C15.9343 6.49969 15.8692 6.51263 15.8086 6.53778C15.7479 6.56292 15.6927 6.59977 15.6462 6.64622C15.5998 6.69268 15.5629 6.74783 15.5378 6.80852C15.5127 6.86922 15.4997 6.93428 15.4997 6.99997C15.4997 7.06567 15.5127 7.13072 15.5378 7.19142C15.5629 7.25212 15.5998 7.30727 15.6462 7.35372L20.7925 12.5H16C12.6859 12.5036 9.5086 13.8217 7.16518 16.1652C4.82177 18.5086 3.50364 21.6859 3.5 25C3.5 25.1326 3.55268 25.2598 3.64645 25.3535C3.74021 25.4473 3.86739 25.5 4 25.5C4.13261 25.5 4.25979 25.4473 4.35355 25.3535C4.44732 25.2598 4.5 25.1326 4.5 25C4.50331 21.951 5.71597 19.0279 7.87193 16.8719C10.0279 14.7159 12.951 13.5033 16 13.5H20.7925L15.6462 18.6462C15.5524 18.74 15.4997 18.8673 15.4997 19C15.4997 19.1327 15.5524 19.2599 15.6462 19.3537C15.7401 19.4475 15.8673 19.5003 16 19.5003C16.1327 19.5003 16.2599 19.4475 16.3538 19.3537L22.3538 13.3537C22.4002 13.3073 22.4371 13.2521 22.4623 13.1914C22.4874 13.1307 22.5004 13.0657 22.5004 13C22.5004 12.9343 22.4874 12.8692 22.4623 12.8085C22.4371 12.7478 22.4002 12.6927 22.3538 12.6462Z" fill="black"/>
</svg>
