<svg width="32" height="32" viewBox="0 0 32 32" fill="none" xmlns="http://www.w3.org/2000/svg">
<path d="M26 3.5H6C5.33696 3.5 4.70107 3.76339 4.23223 4.23223C3.76339 4.70107 3.5 5.33696 3.5 6V26C3.5 26.663 3.76339 27.2989 4.23223 27.7678C4.70107 28.2366 5.33696 28.5 6 28.5H26C26.663 28.5 27.2989 28.2366 27.7678 27.7678C28.2366 27.2989 28.5 26.663 28.5 26V6C28.5 5.33696 28.2366 4.70107 27.7678 4.23223C27.2989 3.76339 26.663 3.5 26 3.5ZM25.5 25.5H6.5V6.5H25.5V25.5ZM10.9388 16.0613C10.7989 15.9219 10.688 15.7563 10.6122 15.574C10.5365 15.3917 10.4976 15.1962 10.4976 14.9987C10.4976 14.8013 10.5365 14.6058 10.6122 14.4235C10.688 14.2412 10.7989 14.0756 10.9388 13.9362L14.9388 9.93625C15.0781 9.79641 15.2437 9.68545 15.426 9.60975C15.6083 9.53404 15.8038 9.49507 16.0012 9.49507C16.1987 9.49507 16.3941 9.53404 16.5765 9.60975C16.7588 9.68545 16.9244 9.79641 17.0637 9.93625L21.0637 13.9362C21.3455 14.218 21.5039 14.6002 21.5039 14.9987C21.5039 15.3973 21.3455 15.7795 21.0637 16.0613C20.782 16.343 20.3998 16.5014 20.0012 16.5014C19.6027 16.5014 19.2205 16.343 18.9387 16.0613L17.5 14.625V21C17.5 21.3978 17.342 21.7794 17.0607 22.0607C16.7794 22.342 16.3978 22.5 16 22.5C15.6022 22.5 15.2206 22.342 14.9393 22.0607C14.658 21.7794 14.5 21.3978 14.5 21V14.625L13.0612 16.065C12.9217 16.2042 12.7561 16.3146 12.5738 16.3897C12.3916 16.4649 12.1963 16.5034 11.9992 16.5031C11.8021 16.5027 11.607 16.4635 11.425 16.3877C11.243 16.3119 11.0778 16.201 10.9388 16.0613Z" fill="black"/>
</svg>
