<svg width="32" height="32" viewBox="0 0 32 32" fill="none" xmlns="http://www.w3.org/2000/svg">
<path opacity="0.08" d="M26 22L22 26V18L26 22ZM10 14V6L6 10L10 14Z" fill="black"/>
<path d="M26.7076 21.2923L22.7076 17.2923C22.5677 17.1523 22.3894 17.0569 22.1954 17.0183C22.0013 16.9796 21.8001 16.9994 21.6173 17.0752C21.4344 17.1509 21.2782 17.2792 21.1683 17.4438C21.0585 17.6084 20.9999 17.8019 21.0001 17.9998V20.9998H6.00005C5.73484 20.9998 5.48048 21.1052 5.29295 21.2927C5.10541 21.4802 5.00005 21.7346 5.00005 21.9998C5.00005 22.265 5.10541 22.5194 5.29295 22.7069C5.48048 22.8945 5.73484 22.9998 6.00005 22.9998H21.0001V25.9998C20.9999 26.1977 21.0585 26.3912 21.1683 26.5558C21.2782 26.7204 21.4344 26.8487 21.6173 26.9244C21.8001 27.0002 22.0013 27.02 22.1954 26.9813C22.3894 26.9427 22.5677 26.8473 22.7076 26.7073L26.7076 22.7073C26.8005 22.6144 26.8743 22.5042 26.9246 22.3828C26.9749 22.2614 27.0008 22.1312 27.0008 21.9998C27.0008 21.8684 26.9749 21.7383 26.9246 21.6169C26.8743 21.4955 26.8005 21.3852 26.7076 21.2923ZM23.0001 23.5861V20.4136L24.5863 21.9998L23.0001 23.5861ZM9.29255 14.7111C9.43263 14.8513 9.61123 14.9467 9.80567 14.9853C10.0001 15.0238 10.2016 15.0037 10.3846 14.9275C10.5676 14.8513 10.7238 14.7224 10.8333 14.5572C10.9429 14.392 11.001 14.198 11.0001 13.9998V10.9998H26.0001C26.2653 10.9998 26.5196 10.8945 26.7072 10.7069C26.8947 10.5194 27.0001 10.265 27.0001 9.99981C27.0001 9.73459 26.8947 9.48024 26.7072 9.2927C26.5196 9.10517 26.2653 8.99981 26.0001 8.99981H11.0001V5.99981C11.0002 5.80192 10.9416 5.60842 10.8318 5.44383C10.7219 5.27923 10.5657 5.15094 10.3828 5.07519C10.2 4.99944 9.99883 4.97963 9.80475 5.01828C9.61066 5.05693 9.43241 5.1523 9.29255 5.29231L5.29255 9.29231C5.19958 9.38518 5.12582 9.49547 5.07549 9.61687C5.02517 9.73827 4.99927 9.8684 4.99927 9.99981C4.99927 10.1312 5.02517 10.2614 5.07549 10.3828C5.12582 10.5041 5.19958 10.6144 5.29255 10.7073L9.29255 14.7111ZM9.00005 8.41356V11.5861L7.4138 9.99981L9.00005 8.41356Z" fill="black"/>
</svg>
