<svg width="32" height="32" viewBox="0 0 32 32" fill="none" xmlns="http://www.w3.org/2000/svg">
<path d="M24.5 5V13C24.5002 13.197 24.4615 13.3922 24.3862 13.5743C24.3109 13.7564 24.2005 13.9218 24.0613 14.0612L17.5 20.625V25.375L18.9387 23.935C19.2205 23.6532 19.6027 23.4949 20.0012 23.4949C20.3998 23.4949 20.782 23.6532 21.0637 23.935C21.3455 24.2168 21.5039 24.599 21.5039 24.9975C21.5039 25.396 21.3455 25.7782 21.0637 26.06L17.0637 30.06C16.9244 30.1998 16.7588 30.3108 16.5765 30.3865C16.3941 30.4622 16.1987 30.5012 16.0012 30.5012C15.8038 30.5012 15.6084 30.4622 15.426 30.3865C15.2437 30.3108 15.0781 30.1998 14.9388 30.06L10.9388 26.06C10.7992 25.9205 10.6885 25.7548 10.613 25.5725C10.5375 25.3902 10.4986 25.1948 10.4986 24.9975C10.4986 24.8002 10.5375 24.6048 10.613 24.4225C10.6885 24.2402 10.7992 24.0745 10.9388 23.935C11.0783 23.7955 11.2439 23.6848 11.4262 23.6093C11.6085 23.5338 11.8039 23.4949 12.0013 23.4949C12.1986 23.4949 12.394 23.5338 12.5763 23.6093C12.7586 23.6848 12.9242 23.7955 13.0638 23.935L14.5 25.375V20.625L7.93875 14.0612C7.7995 13.9218 7.68908 13.7564 7.6138 13.5743C7.53851 13.3922 7.49985 13.197 7.5 13V5C7.5 4.60218 7.65804 4.22064 7.93934 3.93934C8.22064 3.65804 8.60218 3.5 9 3.5C9.39783 3.5 9.77936 3.65804 10.0607 3.93934C10.342 4.22064 10.5 4.60218 10.5 5V12.375L16 17.875L21.5 12.375V5C21.5 4.60218 21.658 4.22064 21.9393 3.93934C22.2206 3.65804 22.6022 3.5 23 3.5C23.3978 3.5 23.7794 3.65804 24.0607 3.93934C24.342 4.22064 24.5 4.60218 24.5 5Z" fill="black"/>
</svg>
