<svg width="32" height="32" viewBox="0 0 32 32" fill="none" xmlns="http://www.w3.org/2000/svg">
<path d="M30.5 6.99998V13C30.5 13.3978 30.3419 13.7793 30.0606 14.0606C29.7793 14.3419 29.3978 14.5 29 14.5H23C22.6021 14.5 22.2206 14.3419 21.9393 14.0606C21.658 13.7793 21.5 13.3978 21.5 13C21.5 12.6022 21.658 12.2206 21.9393 11.9393C22.2206 11.658 22.6021 11.5 23 11.5H25.1375L22.7625 9.32748C22.7462 9.31248 22.73 9.29748 22.715 9.28123C21.6137 8.18068 20.2589 7.36764 18.7697 6.91365C17.2804 6.45967 15.7024 6.37865 14.1746 6.67773C12.6467 6.97681 11.2157 7.64682 10.0075 8.6288C8.79938 9.61079 7.85109 10.8747 7.2461 12.3092C6.64111 13.7437 6.39795 15.305 6.53803 16.8555C6.67811 18.4061 7.19713 19.8985 8.04943 21.2014C8.90172 22.5043 10.0612 23.5777 11.4257 24.3273C12.7903 25.0769 14.3182 25.4796 15.875 25.5H16C18.4249 25.5058 20.759 24.5784 22.5187 22.91C22.808 22.6366 23.194 22.4894 23.5918 22.5007C23.9896 22.5119 24.3666 22.6807 24.64 22.97C24.9133 23.2592 25.0605 23.6452 25.0493 24.043C25.038 24.4408 24.8692 24.8179 24.58 25.0912C22.2636 27.2867 19.1915 28.5073 16 28.5H15.8287C13.7825 28.4711 11.7747 27.9404 9.98156 26.9543C8.18842 25.9682 6.6648 24.557 5.54448 22.8445C4.42417 21.132 3.74142 19.1706 3.55619 17.1326C3.37097 15.0946 3.68893 13.0423 4.48216 11.1559C5.27539 9.26953 6.51962 7.60673 8.10561 6.31352C9.6916 5.02032 11.5708 4.13628 13.5783 3.73902C15.5858 3.34176 17.6601 3.44343 19.619 4.03511C21.578 4.62679 23.3618 5.69037 24.8137 7.13248L27.5 9.58998V6.99998C27.5 6.60216 27.658 6.22062 27.9393 5.93932C28.2206 5.65802 28.6021 5.49998 29 5.49998C29.3978 5.49998 29.7793 5.65802 30.0606 5.93932C30.3419 6.22062 30.5 6.60216 30.5 6.99998Z" fill="black"/>
</svg>
