<svg width="32" height="32" viewBox="0 0 32 32" fill="none" xmlns="http://www.w3.org/2000/svg">
<path d="M28.5301 23.53L24.5301 27.53C24.3895 27.6705 24.1988 27.7493 24.0001 27.7493C23.8013 27.7493 23.6107 27.6705 23.4701 27.53L19.4701 23.53C19.3376 23.3878 19.2655 23.1998 19.2689 23.0055C19.2723 22.8112 19.3511 22.6258 19.4885 22.4884C19.6259 22.351 19.8113 22.2723 20.0056 22.2688C20.1999 22.2654 20.3879 22.3375 20.5301 22.47L23.2501 25.1887V17.3137L16.0001 10.0638L8.75009 17.3137V25.1887L11.4701 22.47C11.6123 22.3375 11.8003 22.2654 11.9946 22.2688C12.1889 22.2723 12.3743 22.351 12.5117 22.4884C12.6491 22.6258 12.7278 22.8112 12.7313 23.0055C12.7347 23.1998 12.6626 23.3878 12.5301 23.53L8.53009 27.53C8.38946 27.6705 8.19884 27.7493 8.00009 27.7493C7.80134 27.7493 7.61072 27.6705 7.47009 27.53L3.47009 23.53C3.33761 23.3878 3.26549 23.1998 3.26892 23.0055C3.27234 22.8112 3.35106 22.6258 3.48847 22.4884C3.62588 22.351 3.81127 22.2723 4.00557 22.2688C4.19987 22.2654 4.38792 22.3375 4.53009 22.47L7.25009 25.1887V17C7.25027 16.8012 7.3294 16.6105 7.47009 16.47L15.2501 8.68875V3C15.2501 2.80109 15.3291 2.61032 15.4698 2.46967C15.6104 2.32902 15.8012 2.25 16.0001 2.25C16.199 2.25 16.3898 2.32902 16.5304 2.46967C16.6711 2.61032 16.7501 2.80109 16.7501 3V8.68875L24.5301 16.47C24.6708 16.6105 24.7499 16.8012 24.7501 17V25.1887L27.4701 22.47C27.6123 22.3375 27.8003 22.2654 27.9946 22.2688C28.1889 22.2723 28.3743 22.351 28.5117 22.4884C28.6491 22.6258 28.7278 22.8112 28.7313 23.0055C28.7347 23.1998 28.6626 23.3878 28.5301 23.53Z" fill="black"/>
</svg>
