<svg width="32" height="32" viewBox="0 0 32 32" fill="none" xmlns="http://www.w3.org/2000/svg">
<path d="M27.53 10.5301C27.3894 10.6705 27.1988 10.7494 27 10.7494C26.8012 10.7494 26.6106 10.6705 26.47 10.5301L21.75 5.81132V21.0001C21.75 23.0555 20.9335 25.0267 19.4801 26.4802C18.0267 27.9336 16.0554 28.7501 14 28.7501C11.9446 28.7501 9.97333 27.9336 8.51992 26.4802C7.06652 25.0267 6.25 23.0555 6.25 21.0001V10.0001C6.25 9.80116 6.32902 9.61039 6.46967 9.46974C6.61032 9.32909 6.80109 9.25007 7 9.25007C7.19891 9.25007 7.38968 9.32909 7.53033 9.46974C7.67098 9.61039 7.75 9.80116 7.75 10.0001V21.0001C7.75 22.6577 8.40848 24.2474 9.58058 25.4195C10.7527 26.5916 12.3424 27.2501 14 27.2501C15.6576 27.2501 17.2473 26.5916 18.4194 25.4195C19.5915 24.2474 20.25 22.6577 20.25 21.0001V5.81132L15.53 10.5301C15.3878 10.6626 15.1998 10.7347 15.0055 10.7312C14.8112 10.7278 14.6258 10.6491 14.4884 10.5117C14.351 10.3743 14.2723 10.1889 14.2688 9.99459C14.2654 9.80029 14.3375 9.61225 14.47 9.47007L20.47 3.47007C20.6106 3.32962 20.8012 3.25073 21 3.25073C21.1988 3.25073 21.3894 3.32962 21.53 3.47007L27.53 9.47007C27.6705 9.6107 27.7493 9.80132 27.7493 10.0001C27.7493 10.1988 27.6705 10.3894 27.53 10.5301Z" fill="black"/>
</svg>
