<svg width="32" height="32" viewBox="0 0 32 32" fill="none" xmlns="http://www.w3.org/2000/svg">
<path d="M29.4999 24C29.4999 24.3979 29.3419 24.7794 29.0606 25.0607C28.7793 25.342 28.3978 25.5 27.9999 25.5H9.99995C9.60212 25.5 9.22059 25.342 8.93929 25.0607C8.65798 24.7794 8.49995 24.3979 8.49995 24V9.62505L5.0612 13.0613C4.7794 13.3431 4.39721 13.5014 3.9987 13.5014C3.60018 13.5014 3.21799 13.3431 2.9362 13.0613C2.6544 12.7795 2.49609 12.3973 2.49609 11.9988C2.49609 11.6003 2.6544 11.2181 2.9362 10.9363L8.9362 4.9363C9.07555 4.79646 9.24114 4.6855 9.42347 4.6098C9.6058 4.53409 9.80127 4.49512 9.9987 4.49512C10.1961 4.49512 10.3916 4.53409 10.5739 4.6098C10.7563 4.6855 10.9218 4.79646 11.0612 4.9363L17.0612 10.9363C17.343 11.2181 17.5013 11.6003 17.5013 11.9988C17.5013 12.3973 17.343 12.7795 17.0612 13.0613C16.7794 13.3431 16.3972 13.5014 15.9987 13.5014C15.6002 13.5014 15.218 13.3431 14.9362 13.0613L11.4999 9.62505V22.5H27.9999C28.3978 22.5 28.7793 22.6581 29.0606 22.9394C29.3419 23.2207 29.4999 23.6022 29.4999 24Z" fill="black"/>
</svg>
