<svg width="32" height="32" viewBox="0 0 32 32" fill="none" xmlns="http://www.w3.org/2000/svg">
<path d="M17 8.49996H16.5V3.99996C16.5002 3.70312 16.4124 3.41288 16.2476 3.16599C16.0828 2.9191 15.8484 2.72666 15.5742 2.61303C15.2999 2.4994 14.9982 2.46969 14.707 2.52767C14.4159 2.58564 14.1485 2.72869 13.9387 2.93871L1.93874 14.9387C1.7989 15.0781 1.68795 15.2437 1.61224 15.426C1.53653 15.6083 1.49756 15.8038 1.49756 16.0012C1.49756 16.1986 1.53653 16.3941 1.61224 16.5764C1.68795 16.7588 1.7989 16.9244 1.93874 17.0637L13.9387 29.0637C14.1487 29.2739 14.4163 29.417 14.7076 29.4749C14.999 29.5328 15.301 29.5029 15.5753 29.3889C15.8497 29.275 16.084 29.0821 16.2486 28.8349C16.4132 28.5876 16.5007 28.297 16.5 28V23.5H17C17.3978 23.5 17.7793 23.3419 18.0606 23.0606C18.342 22.7793 18.5 22.3978 18.5 22V9.99996C18.5 9.60214 18.342 9.2206 18.0606 8.9393C17.7793 8.658 17.3978 8.49996 17 8.49996ZM15.5 20.5H15C14.6022 20.5 14.2206 20.658 13.9393 20.9393C13.658 21.2206 13.5 21.6021 13.5 22V24.375L5.12499 16L13.5 7.62496V9.99996C13.5 10.3978 13.658 10.7793 13.9393 11.0606C14.2206 11.3419 14.6022 11.5 15 11.5H15.5V20.5ZM28.5 9.99996V22C28.5 22.3978 28.342 22.7793 28.0606 23.0606C27.7793 23.3419 27.3978 23.5 27 23.5C26.6022 23.5 26.2206 23.3419 25.9393 23.0606C25.658 22.7793 25.5 22.3978 25.5 22V9.99996C25.5 9.60214 25.658 9.2206 25.9393 8.9393C26.2206 8.658 26.6022 8.49996 27 8.49996C27.3978 8.49996 27.7793 8.658 28.0606 8.9393C28.342 9.2206 28.5 9.60214 28.5 9.99996ZM23.5 9.99996V22C23.5 22.3978 23.342 22.7793 23.0606 23.0606C22.7793 23.3419 22.3978 23.5 22 23.5C21.6022 23.5 21.2206 23.3419 20.9393 23.0606C20.658 22.7793 20.5 22.3978 20.5 22V9.99996C20.5 9.60214 20.658 9.2206 20.9393 8.9393C21.2206 8.658 21.6022 8.49996 22 8.49996C22.3978 8.49996 22.7793 8.658 23.0606 8.9393C23.342 9.2206 23.5 9.60214 23.5 9.99996Z" fill="black"/>
</svg>
