<svg width="32" height="32" viewBox="0 0 32 32" fill="none" xmlns="http://www.w3.org/2000/svg">
<path d="M29.0613 14.0612L23.0613 20.0612C22.7795 20.343 22.3973 20.5013 21.9988 20.5013C21.6002 20.5013 21.218 20.343 20.9363 20.0612C20.6545 19.7794 20.4961 19.3972 20.4961 18.9987C20.4961 18.6002 20.6545 18.218 20.9363 17.9362L24.375 14.5H16C13.2161 14.503 10.5472 15.6102 8.57867 17.5786C6.61018 19.5471 5.50298 22.2161 5.5 25C5.5 25.3978 5.34196 25.7793 5.06066 26.0606C4.77936 26.3419 4.39782 26.5 4 26.5C3.60218 26.5 3.22064 26.3419 2.93934 26.0606C2.65804 25.7793 2.5 25.3978 2.5 25C2.50397 21.4208 3.92756 17.9893 6.45844 15.4584C8.98932 12.9275 12.4208 11.5039 16 11.5H24.375L20.9387 8.05998C20.657 7.77818 20.4986 7.39599 20.4986 6.99747C20.4986 6.59896 20.657 6.21677 20.9387 5.93497C21.2205 5.65318 21.6027 5.49487 22.0012 5.49487C22.3998 5.49487 22.782 5.65318 23.0637 5.93497L29.0637 11.935C29.2036 12.0745 29.3145 12.2403 29.3901 12.4228C29.4657 12.6054 29.5045 12.801 29.5043 12.9986C29.5041 13.1962 29.4648 13.3918 29.3888 13.5741C29.3127 13.7565 29.2014 13.922 29.0613 14.0612Z" fill="black"/>
</svg>
