<svg width="32" height="32" viewBox="0 0 32 32" fill="none" xmlns="http://www.w3.org/2000/svg">
<path d="M28.3538 23.3538L24.3538 27.3538C24.3073 27.4002 24.2522 27.4371 24.1915 27.4623C24.1308 27.4874 24.0657 27.5004 24 27.5004C23.9343 27.5004 23.8693 27.4874 23.8086 27.4623C23.7479 27.4371 23.6927 27.4002 23.6463 27.3538L19.6463 23.3538C19.5525 23.2599 19.4998 23.1327 19.4998 23C19.4998 22.8673 19.5525 22.7401 19.6463 22.6462C19.7401 22.5524 19.8674 22.4997 20 22.4997C20.1327 22.4997 20.26 22.5524 20.3538 22.6462L23.5 25.7925V17.2075L16 9.7075L8.50003 17.2075V25.7925L11.6463 22.6462C11.7401 22.5524 11.8674 22.4997 12 22.4997C12.1327 22.4997 12.26 22.5524 12.3538 22.6462C12.4476 22.7401 12.5003 22.8673 12.5003 23C12.5003 23.1327 12.4476 23.2599 12.3538 23.3538L8.35378 27.3538C8.30735 27.4002 8.2522 27.4371 8.1915 27.4623C8.13081 27.4874 8.06574 27.5004 8.00003 27.5004C7.93433 27.5004 7.86926 27.4874 7.80856 27.4623C7.74786 27.4371 7.69272 27.4002 7.64628 27.3538L3.64628 23.3538C3.55246 23.2599 3.49976 23.1327 3.49976 23C3.49976 22.8673 3.55246 22.7401 3.64628 22.6462C3.7401 22.5524 3.86735 22.4997 4.00003 22.4997C4.13272 22.4997 4.25996 22.5524 4.35378 22.6462L7.50003 25.7925V17C7.49998 16.9343 7.51287 16.8693 7.53797 16.8086C7.56306 16.7479 7.59987 16.6927 7.64628 16.6462L15.5 8.7925V3C15.5 2.86739 15.5527 2.74021 15.6465 2.64645C15.7402 2.55268 15.8674 2.5 16 2.5C16.1326 2.5 16.2598 2.55268 16.3536 2.64645C16.4474 2.74021 16.5 2.86739 16.5 3V8.7925L24.3538 16.6462C24.4002 16.6927 24.437 16.7479 24.4621 16.8086C24.4872 16.8693 24.5001 16.9343 24.5 17V25.7925L27.6463 22.6462C27.6927 22.5998 27.7479 22.5629 27.8086 22.5378C27.8693 22.5127 27.9343 22.4997 28 22.4997C28.0657 22.4997 28.1308 22.5127 28.1915 22.5378C28.2522 22.5629 28.3073 22.5998 28.3538 22.6462C28.4002 22.6927 28.4371 22.7479 28.4622 22.8086C28.4874 22.8692 28.5003 22.9343 28.5003 23C28.5003 23.0657 28.4874 23.1308 28.4622 23.1914C28.4371 23.2521 28.4002 23.3073 28.3538 23.3538Z" fill="black"/>
</svg>
