<svg width="32" height="32" viewBox="0 0 32 32" fill="none" xmlns="http://www.w3.org/2000/svg">
<path d="M25.7501 4C25.7501 4.19891 25.6711 4.38968 25.5304 4.53033C25.3898 4.67098 25.199 4.75 25.0001 4.75C22.0174 4.75331 19.1579 5.93964 17.0488 8.0487C14.9397 10.1578 13.7534 13.0173 13.7501 16V26.1887L18.4701 21.47C18.6123 21.3375 18.8003 21.2654 18.9946 21.2688C19.1889 21.2723 19.3743 21.351 19.5117 21.4884C19.6491 21.6258 19.7278 21.8112 19.7313 22.0055C19.7347 22.1998 19.6626 22.3878 19.5301 22.53L13.5301 28.53C13.3895 28.6705 13.1988 28.7493 13.0001 28.7493C12.8013 28.7493 12.6107 28.6705 12.4701 28.53L6.47009 22.53C6.33761 22.3878 6.26549 22.1998 6.26892 22.0055C6.27234 21.8112 6.35106 21.6258 6.48847 21.4884C6.62588 21.351 6.81127 21.2723 7.00557 21.2688C7.19987 21.2654 7.38792 21.3375 7.53009 21.47L12.2501 26.1887V16C12.2541 12.6197 13.5986 9.379 15.9889 6.98877C18.3791 4.59854 21.6198 3.25397 25.0001 3.25C25.199 3.25 25.3898 3.32902 25.5304 3.46967C25.6711 3.61032 25.7501 3.80109 25.7501 4Z" fill="black"/>
</svg>
