<svg width="32" height="32" viewBox="0 0 32 32" fill="none" xmlns="http://www.w3.org/2000/svg">
<path d="M29.0001 18.0001C28.9977 20.1211 28.1541 22.1546 26.6544 23.6544C25.1546 25.1541 23.1211 25.9977 21.0001 26.0001H10.0001C9.73484 26.0001 9.48048 25.8947 9.29295 25.7072C9.10541 25.5196 9.00005 25.2653 9.00005 25.0001C9.00005 24.7348 9.10541 24.4805 9.29295 24.2929C9.48048 24.1054 9.73484 24.0001 10.0001 24.0001H21.0001C22.5914 24.0001 24.1175 23.3679 25.2427 22.2427C26.3679 21.1175 27.0001 19.5914 27.0001 18.0001C27.0001 16.4088 26.3679 14.8826 25.2427 13.7574C24.1175 12.6322 22.5914 12.0001 21.0001 12.0001H11.0001V17.0001C11.0002 17.198 10.9416 17.3914 10.8318 17.556C10.7219 17.7206 10.5657 17.8489 10.3828 17.9247C10.2 18.0004 9.99883 18.0202 9.80475 17.9816C9.61066 17.9429 9.43241 17.8476 9.29255 17.7076L3.29255 11.7076C3.19958 11.6147 3.12582 11.5044 3.07549 11.383C3.02517 11.2616 2.99927 11.1315 2.99927 11.0001C2.99927 10.8686 3.02517 10.7385 3.07549 10.6171C3.12582 10.4957 3.19958 10.3854 3.29255 10.2926L9.29255 4.29256C9.43241 4.15254 9.61066 4.05718 9.80475 4.01853C9.99883 3.97988 10.2 3.99968 10.3828 4.07543C10.5657 4.15119 10.7219 4.27948 10.8318 4.44407C10.9416 4.60867 11.0002 4.80216 11.0001 5.00006V10.0001H21.0001C23.1211 10.0024 25.1546 10.846 26.6544 12.3458C28.1541 13.8455 28.9977 15.879 29.0001 18.0001Z" fill="black"/>
</svg>
