<svg width="32" height="32" viewBox="0 0 32 32" fill="none" xmlns="http://www.w3.org/2000/svg">
<path opacity="0.08" d="M10 15V27L4 21L10 15Z" fill="black"/>
<path d="M21.0001 6H10.0001C9.73484 6 9.48048 6.10536 9.29295 6.29289C9.10541 6.48043 9.00005 6.73478 9.00005 7C9.00005 7.26522 9.10541 7.51957 9.29295 7.70711C9.48048 7.89464 9.73484 8 10.0001 8H21.0001C22.5914 8 24.1175 8.63214 25.2427 9.75736C26.3679 10.8826 27.0001 12.4087 27.0001 14C27.0001 15.5913 26.3679 17.1174 25.2427 18.2426C24.1175 19.3679 22.5914 20 21.0001 20H11.0001V15C11.0002 14.8021 10.9416 14.6086 10.8318 14.444C10.7219 14.2794 10.5657 14.1511 10.3828 14.0754C10.2 13.9996 9.99883 13.9798 9.80475 14.0185C9.61066 14.0571 9.43241 14.1525 9.29255 14.2925L3.29255 20.2925C3.19958 20.3854 3.12582 20.4957 3.07549 20.6171C3.02517 20.7385 2.99927 20.8686 2.99927 21C2.99927 21.1314 3.02517 21.2615 3.07549 21.3829C3.12582 21.5043 3.19958 21.6146 3.29255 21.7075L9.29255 27.7075C9.43241 27.8475 9.61066 27.9429 9.80475 27.9815C9.99883 28.0202 10.2 28.0004 10.3828 27.9246C10.5657 27.8489 10.7219 27.7206 10.8318 27.556C10.9416 27.3914 11.0002 27.1979 11.0001 27V22H21.0001C23.1218 22 25.1566 21.1571 26.6569 19.6569C28.1572 18.1566 29.0001 16.1217 29.0001 14C29.0001 11.8783 28.1572 9.84344 26.6569 8.34315C25.1566 6.84285 23.1218 6 21.0001 6ZM9.00005 24.5863L5.4138 21L9.00005 17.4137V24.5863Z" fill="black"/>
</svg>
