<svg width="32" height="32" viewBox="0 0 32 32" fill="none" xmlns="http://www.w3.org/2000/svg">
<path opacity="0.08" d="M29 7V13H23L29 7Z" fill="black"/>
<path d="M29.3824 6.07122C29.1997 5.99543 28.9986 5.97551 28.8046 6.01401C28.6106 6.0525 28.4324 6.14767 28.2924 6.28747L25.8349 8.74997L24.4687 7.49997C23.0763 6.11275 21.3644 5.08878 19.4836 4.51808C17.6027 3.94738 15.6105 3.84741 13.682 4.22697C11.7535 4.60652 9.94771 5.45397 8.42342 6.69484C6.89912 7.93571 5.70296 9.532 4.94007 11.3434C4.17717 13.1548 3.8709 15.1259 4.04818 17.0834C4.22545 19.0409 4.88085 20.9249 5.95675 22.5698C7.03266 24.2147 8.49613 25.5701 10.2186 26.517C11.941 27.4638 13.8696 27.9731 15.8349 28H15.9999C19.0634 28.0065 22.0121 26.8343 24.2349 24.7262C24.4277 24.5439 24.5402 24.2924 24.5475 24.0272C24.5549 23.7619 24.4566 23.5046 24.2743 23.3118C24.092 23.1191 23.8405 23.0066 23.5753 22.9992C23.31 22.9918 23.0527 23.0901 22.8599 23.2725C21.4301 24.6207 19.6346 25.5177 17.6979 25.8515C15.7612 26.1853 13.7691 25.941 11.9704 25.1491C10.1717 24.3573 8.64624 23.053 7.58451 21.3992C6.52279 19.7454 5.9719 17.8155 6.00066 15.8504C6.02943 13.8854 6.63656 11.9724 7.74623 10.3504C8.8559 8.72835 10.4189 7.46928 12.24 6.73042C14.0611 5.99156 16.0595 5.80567 17.9856 6.19597C19.9117 6.58628 21.6801 7.53547 23.0699 8.92497L23.1012 8.95497L24.4199 10.1612L22.2949 12.2862C22.1529 12.4256 22.0557 12.6042 22.0157 12.7991C21.9757 12.994 21.9948 13.1964 22.0705 13.3804C22.1462 13.5644 22.2751 13.7217 22.4407 13.8321C22.6062 13.9424 22.801 14.0009 22.9999 14H28.9999C29.2651 14 29.5195 13.8946 29.707 13.7071C29.8946 13.5195 29.9999 13.2652 29.9999 13V6.99997C30.0009 6.80134 29.9427 6.60693 29.8327 6.44152C29.7227 6.27611 29.566 6.1472 29.3824 6.07122ZM27.9999 12H25.4137L27.9999 9.40997V12Z" fill="black"/>
</svg>
