<svg width="32" height="32" viewBox="0 0 32 32" fill="none" xmlns="http://www.w3.org/2000/svg">
<path d="M29.3862 16.4263C29.2727 16.152 29.0804 15.9177 28.8336 15.7528C28.5868 15.5879 28.2967 15.4999 27.9999 15.5H23.4999V6C23.4999 5.33696 23.2365 4.70107 22.7677 4.23223C22.2989 3.76339 21.663 3.5 20.9999 3.5H10.9999C10.3369 3.5 9.701 3.76339 9.23216 4.23223C8.76332 4.70107 8.49993 5.33696 8.49993 6V15.5H3.99993C3.70319 15.5 3.41313 15.588 3.16643 15.7529C2.91973 15.9178 2.72748 16.1522 2.61401 16.4264C2.50053 16.7006 2.47093 17.0023 2.52895 17.2933C2.58696 17.5843 2.72999 17.8515 2.93993 18.0613L14.9399 30.0613C15.0793 30.2011 15.2449 30.312 15.4272 30.3878C15.6095 30.4635 15.805 30.5024 16.0024 30.5024C16.1999 30.5024 16.3953 30.4635 16.5777 30.3878C16.76 30.312 16.9256 30.2011 17.0649 30.0613L29.0649 18.0613C29.2741 17.851 29.4163 17.5835 29.4735 17.2925C29.5306 17.0014 29.5003 16.7 29.3862 16.4263ZM15.9999 26.875L7.62493 18.5H9.99993C10.3978 18.5 10.7793 18.342 11.0606 18.0607C11.3419 17.7794 11.4999 17.3978 11.4999 17V6.5H20.4999V17C20.4999 17.3978 20.658 17.7794 20.9393 18.0607C21.2206 18.342 21.6021 18.5 21.9999 18.5H24.3749L15.9999 26.875Z" fill="black"/>
</svg>
