<svg width="32" height="32" viewBox="0 0 32 32" fill="none" xmlns="http://www.w3.org/2000/svg">
<path d="M28.6926 16.7125C28.6358 16.5756 28.5397 16.4586 28.4164 16.3763C28.2932 16.294 28.1483 16.25 28.0001 16.25H22.7501V6C22.7501 5.53587 22.5657 5.09075 22.2375 4.76256C21.9093 4.43437 21.4642 4.25 21.0001 4.25H11.0001C10.5359 4.25 10.0908 4.43437 9.76264 4.76256C9.43445 5.09075 9.25007 5.53587 9.25007 6V16.25H4.00007C3.85183 16.2501 3.70696 16.2942 3.58374 16.3766C3.46053 16.459 3.3645 16.5761 3.30779 16.7131C3.25107 16.85 3.23622 17.0007 3.26511 17.1461C3.29399 17.2915 3.36532 17.4251 3.47007 17.53L15.4701 29.53C15.6107 29.6705 15.8013 29.7493 16.0001 29.7493C16.1988 29.7493 16.3894 29.6705 16.5301 29.53L28.5301 17.53C28.635 17.4251 28.7064 17.2914 28.7353 17.1459C28.7643 17.0004 28.7494 16.8496 28.6926 16.7125ZM16.0001 27.9387L5.81132 17.75H10.0001C10.199 17.75 10.3898 17.671 10.5304 17.5303C10.6711 17.3897 10.7501 17.1989 10.7501 17V6C10.7501 5.9337 10.7764 5.87011 10.8233 5.82322C10.8702 5.77634 10.9338 5.75 11.0001 5.75H21.0001C21.0664 5.75 21.13 5.77634 21.1768 5.82322C21.2237 5.87011 21.2501 5.9337 21.2501 6V17C21.2501 17.1989 21.3291 17.3897 21.4697 17.5303C21.6104 17.671 21.8012 17.75 22.0001 17.75H26.1888L16.0001 27.9387Z" fill="black"/>
</svg>
