<svg width="32" height="32" viewBox="0 0 32 32" fill="none" xmlns="http://www.w3.org/2000/svg">
<path d="M5.93875 14.0612C5.65696 13.7795 5.49865 13.3973 5.49865 12.9987C5.49865 12.6002 5.65696 12.218 5.93875 11.9362C6.22054 11.6545 6.60274 11.4961 7.00125 11.4961C7.39976 11.4961 7.78196 11.6545 8.06375 11.9362L14.5 18.375V4C14.5 3.60218 14.658 3.22064 14.9393 2.93934C15.2206 2.65804 15.6022 2.5 16 2.5C16.3978 2.5 16.7794 2.65804 17.0607 2.93934C17.342 3.22064 17.5 3.60218 17.5 4V18.375L23.9387 11.935C24.2205 11.6532 24.6027 11.4949 25.0012 11.4949C25.3998 11.4949 25.782 11.6532 26.0637 11.935C26.3455 12.2168 26.5039 12.599 26.5039 12.9975C26.5039 13.396 26.3455 13.7782 26.0637 14.06L17.0637 23.06C16.9244 23.1998 16.7588 23.3108 16.5765 23.3865C16.3941 23.4622 16.1987 23.5012 16.0012 23.5012C15.8038 23.5012 15.6083 23.4622 15.426 23.3865C15.2437 23.3108 15.0781 23.1998 14.9388 23.06L5.93875 14.0612ZM27 25.5H5C4.60218 25.5 4.22064 25.658 3.93934 25.9393C3.65804 26.2206 3.5 26.6022 3.5 27C3.5 27.3978 3.65804 27.7794 3.93934 28.0607C4.22064 28.342 4.60218 28.5 5 28.5H27C27.3978 28.5 27.7794 28.342 28.0607 28.0607C28.342 27.7794 28.5 27.3978 28.5 27C28.5 26.6022 28.342 26.2206 28.0607 25.9393C27.7794 25.658 27.3978 25.5 27 25.5Z" fill="black"/>
</svg>
