<svg width="32" height="32" viewBox="0 0 32 32" fill="none" xmlns="http://www.w3.org/2000/svg">
<path d="M25.0613 9.06001L11.625 22.5H21C21.3978 22.5 21.7794 22.658 22.0607 22.9394C22.342 23.2207 22.5 23.6022 22.5 24C22.5 24.3978 22.342 24.7794 22.0607 25.0607C21.7794 25.342 21.3978 25.5 21 25.5H8C7.60218 25.5 7.22064 25.342 6.93934 25.0607C6.65804 24.7794 6.5 24.3978 6.5 24V11C6.5 10.6022 6.65804 10.2207 6.93934 9.93935C7.22064 9.65804 7.60218 9.50001 8 9.50001C8.39782 9.50001 8.77936 9.65804 9.06066 9.93935C9.34196 10.2207 9.5 10.6022 9.5 11V20.375L22.9387 6.93876C23.0783 6.79923 23.2439 6.68855 23.4262 6.61304C23.6085 6.53752 23.8039 6.49866 24.0012 6.49866C24.1986 6.49866 24.394 6.53752 24.5763 6.61304C24.7586 6.68855 24.9242 6.79923 25.0637 6.93876C25.2033 7.07829 25.314 7.24393 25.3895 7.42624C25.465 7.60854 25.5039 7.80393 25.5039 8.00126C25.5039 8.19858 25.465 8.39398 25.3895 8.57628C25.314 8.75858 25.2033 8.92423 25.0637 9.06376L25.0613 9.06001Z" fill="black"/>
</svg>
