<svg width="32" height="32" viewBox="0 0 32 32" fill="none" xmlns="http://www.w3.org/2000/svg">
<path d="M30.5 11V19C30.5 19.3978 30.342 19.7794 30.0607 20.0607C29.7794 20.342 29.3978 20.5 29 20.5H21C20.6022 20.5 20.2206 20.342 19.9393 20.0607C19.658 19.7794 19.5 19.3978 19.5 19C19.5 18.6022 19.658 18.2207 19.9393 17.9394C20.2206 17.658 20.6022 17.5 21 17.5H25.3625L23.4275 15.5788C21.9594 14.1095 20.0885 13.1087 18.0516 12.7029C16.0146 12.2971 13.903 12.5045 11.9839 13.2989C10.0649 14.0933 8.42449 15.439 7.27034 17.1659C6.11619 18.8927 5.5001 20.923 5.5 23C5.5 23.3978 5.34196 23.7794 5.06066 24.0607C4.77936 24.342 4.39782 24.5 4 24.5C3.60218 24.5 3.22064 24.342 2.93934 24.0607C2.65804 23.7794 2.5 23.3978 2.5 23C2.49988 20.3299 3.29157 17.7197 4.77496 15.4995C6.25835 13.2793 8.36681 11.5489 10.8337 10.5271C13.3006 9.50522 16.0151 9.23788 18.6339 9.75883C21.2527 10.2798 23.6582 11.5656 25.5462 13.4538L27.5 15.395V11C27.5 10.6022 27.658 10.2207 27.9393 9.93935C28.2206 9.65805 28.6022 9.50001 29 9.50001C29.3978 9.50001 29.7794 9.65805 30.0607 9.93935C30.342 10.2207 30.5 10.6022 30.5 11Z" fill="black"/>
</svg>
