<svg width="32" height="32" viewBox="0 0 32 32" fill="none" xmlns="http://www.w3.org/2000/svg">
<path d="M28.5 5C28.5 5.39782 28.342 5.77936 28.0607 6.06066C27.7794 6.34196 27.3978 6.5 27 6.5H5C4.60218 6.5 4.22064 6.34196 3.93934 6.06066C3.65804 5.77936 3.5 5.39782 3.5 5C3.5 4.60218 3.65804 4.22064 3.93934 3.93934C4.22064 3.65804 4.60218 3.5 5 3.5H27C27.3978 3.5 27.7794 3.65804 28.0607 3.93934C28.342 4.22064 28.5 4.60218 28.5 5ZM24 11.5C23.6022 11.5 23.2206 11.658 22.9393 11.9393C22.658 12.2206 22.5 12.6022 22.5 13V21.375L11.0612 9.93875C10.7795 9.65696 10.3973 9.49865 9.99875 9.49865C9.60023 9.49865 9.21804 9.65696 8.93625 9.93875C8.65446 10.2205 8.49615 10.6027 8.49615 11.0013C8.49615 11.3998 8.65446 11.782 8.93625 12.0638L20.375 23.5H12C11.6022 23.5 11.2206 23.658 10.9393 23.9393C10.658 24.2206 10.5 24.6022 10.5 25C10.5 25.3978 10.658 25.7794 10.9393 26.0607C11.2206 26.342 11.6022 26.5 12 26.5H24C24.3978 26.5 24.7794 26.342 25.0607 26.0607C25.342 25.7794 25.5 25.3978 25.5 25V13C25.5 12.6022 25.342 12.2206 25.0607 11.9393C24.7794 11.658 24.3978 11.5 24 11.5Z" fill="black"/>
</svg>
