<svg width="32" height="32" viewBox="0 0 32 32" fill="none" xmlns="http://www.w3.org/2000/svg">
<path d="M16 2.5C13.33 2.5 10.7199 3.29176 8.49981 4.77516C6.27974 6.25856 4.54942 8.36697 3.52763 10.8338C2.50585 13.3006 2.2385 16.015 2.7594 18.6337C3.28031 21.2525 4.56606 23.6579 6.45406 25.5459C8.34207 27.434 10.7475 28.7197 13.3663 29.2406C15.985 29.7615 18.6994 29.4942 21.1662 28.4724C23.633 27.4506 25.7414 25.7203 27.2248 23.5002C28.7082 21.2801 29.5 18.67 29.5 16C29.496 12.4208 28.0724 8.98932 25.5416 6.45844C23.0107 3.92756 19.5792 2.50397 16 2.5ZM16 26.5C13.9233 26.5 11.8932 25.8842 10.1665 24.7304C8.4398 23.5767 7.09399 21.9368 6.29927 20.0182C5.50455 18.0996 5.29662 15.9884 5.70176 13.9516C6.10691 11.9148 7.10693 10.0438 8.57538 8.57538C10.0438 7.10693 11.9148 6.1069 13.9516 5.70175C15.9884 5.29661 18.0996 5.50454 20.0182 6.29926C21.9368 7.09399 23.5767 8.4398 24.7304 10.1665C25.8842 11.8932 26.5 13.9233 26.5 16C26.497 18.7839 25.3898 21.4528 23.4213 23.4213C21.4529 25.3898 18.7839 26.497 16 26.5ZM22.5 16C22.5 16.3978 22.342 16.7794 22.0607 17.0607C21.7794 17.342 21.3978 17.5 21 17.5H14.625L16.065 18.9387C16.3468 19.2205 16.5051 19.6027 16.5051 20.0012C16.5051 20.3998 16.3468 20.782 16.065 21.0637C15.7832 21.3455 15.401 21.5039 15.0025 21.5039C14.604 21.5039 14.2218 21.3455 13.94 21.0637L9.94001 17.0637C9.80017 16.9244 9.68921 16.7588 9.6135 16.5765C9.5378 16.3941 9.49882 16.1987 9.49882 16.0012C9.49882 15.8038 9.5378 15.6083 9.6135 15.426C9.68921 15.2437 9.80017 15.0781 9.94001 14.9388L13.94 10.9388C14.0795 10.7992 14.2452 10.6885 14.4275 10.613C14.6098 10.5375 14.8052 10.4986 15.0025 10.4986C15.1998 10.4986 15.3952 10.5375 15.5775 10.613C15.7598 10.6885 15.9255 10.7992 16.065 10.9388C16.2045 11.0783 16.3152 11.2439 16.3907 11.4262C16.4662 11.6085 16.5051 11.8039 16.5051 12.0013C16.5051 12.1986 16.4662 12.394 16.3907 12.5763C16.3152 12.7586 16.2045 12.9242 16.065 13.0638L14.625 14.5H21C21.3978 14.5 21.7794 14.658 22.0607 14.9393C22.342 15.2206 22.5 15.6022 22.5 16Z" fill="black"/>
</svg>
