<svg width="32" height="32" viewBox="0 0 32 32" fill="none" xmlns="http://www.w3.org/2000/svg">
<path d="M29.5 7C29.496 10.5792 28.0724 14.0107 25.5415 16.5416C23.0106 19.0724 19.5792 20.496 16 20.5H7.62496L11.065 23.9387C11.3468 24.2205 11.5051 24.6027 11.5051 25.0012C11.5051 25.3998 11.3468 25.782 11.065 26.0637C10.7832 26.3455 10.401 26.5039 10.0025 26.5039C9.60395 26.5039 9.22175 26.3455 8.93996 26.0637L2.93996 20.0637C2.80012 19.9244 2.68917 19.7588 2.61346 19.5765C2.53775 19.3941 2.49878 19.1987 2.49878 19.0012C2.49878 18.8038 2.53775 18.6083 2.61346 18.426C2.68917 18.2437 2.80012 18.0781 2.93996 17.9387L8.93996 11.9388C9.07949 11.7992 9.24514 11.6885 9.42744 11.613C9.60974 11.5375 9.80514 11.4986 10.0025 11.4986C10.1998 11.4986 10.3952 11.5375 10.5775 11.613C10.7598 11.6885 10.9254 11.7992 11.065 11.9388C11.2045 12.0783 11.3152 12.2439 11.3907 12.4262C11.4662 12.6085 11.5051 12.8039 11.5051 13.0013C11.5051 13.1986 11.4662 13.394 11.3907 13.5763C11.3152 13.7586 11.2045 13.9242 11.065 14.0638L7.62496 17.5H16C18.7838 17.497 21.4528 16.3898 23.4213 14.4213C25.3898 12.4528 26.497 9.78386 26.5 7C26.5 6.60218 26.658 6.22064 26.9393 5.93934C27.2206 5.65804 27.6021 5.5 28 5.5C28.3978 5.5 28.7793 5.65804 29.0606 5.93934C29.3419 6.22064 29.5 6.60218 29.5 7Z" fill="black"/>
</svg>
