<svg width="32" height="32" viewBox="0 0 32 32" fill="none" xmlns="http://www.w3.org/2000/svg">
<path d="M26.4999 10.0001V21C26.4999 23.2544 25.6044 25.4164 24.0104 27.0105C22.4163 28.6045 20.2543 29.5 17.9999 29.5C15.7456 29.5 13.5836 28.6045 11.9895 27.0105C10.3955 25.4164 9.49995 23.2544 9.49995 21V7.62505L6.0612 11.0613C5.7794 11.3431 5.39721 11.5014 4.9987 11.5014C4.60018 11.5014 4.21799 11.3431 3.9362 11.0613C3.6544 10.7795 3.49609 10.3973 3.49609 9.9988C3.49609 9.60029 3.6544 9.21809 3.9362 8.9363L9.9362 2.9363C10.0756 2.79646 10.2411 2.6855 10.4235 2.6098C10.6058 2.53409 10.8013 2.49512 10.9987 2.49512C11.1961 2.49512 11.3916 2.53409 11.5739 2.6098C11.7563 2.6855 11.9218 2.79646 12.0612 2.9363L18.0612 8.9363C18.343 9.21809 18.5013 9.60029 18.5013 9.9988C18.5013 10.3973 18.343 10.7795 18.0612 11.0613C17.7794 11.3431 17.3972 11.5014 16.9987 11.5014C16.6002 11.5014 16.218 11.3431 15.9362 11.0613L12.4999 7.62505V21C12.4999 22.4587 13.0794 23.8577 14.1109 24.8891C15.1423 25.9206 16.5413 26.5 17.9999 26.5C19.4586 26.5 20.8576 25.9206 21.889 24.8891C22.9205 23.8577 23.4999 22.4587 23.4999 21V10.0001C23.4999 9.60223 23.658 9.22069 23.9393 8.93939C24.2206 8.65809 24.6021 8.50005 24.9999 8.50005C25.3978 8.50005 25.7793 8.65809 26.0606 8.93939C26.3419 9.22069 26.4999 9.60223 26.4999 10.0001Z" fill="black"/>
</svg>
