<svg width="32" height="32" viewBox="0 0 32 32" fill="none" xmlns="http://www.w3.org/2000/svg">
<path d="M11.4701 7.52983C11.3296 7.3892 11.2507 7.19858 11.2507 6.99983C11.2507 6.80108 11.3296 6.61045 11.4701 6.46983L15.4701 2.46983C15.6107 2.32938 15.8013 2.25049 16.0001 2.25049C16.1988 2.25049 16.3894 2.32938 16.5301 2.46983L20.5301 6.46983C20.6038 6.53849 20.6629 6.62129 20.7039 6.71329C20.7448 6.80529 20.7669 6.9046 20.7687 7.00531C20.7704 7.10601 20.7519 7.20604 20.7142 7.29943C20.6765 7.39281 20.6203 7.47765 20.5491 7.54887C20.4779 7.62009 20.3931 7.67623 20.2997 7.71395C20.2063 7.75167 20.1063 7.7702 20.0056 7.76842C19.9048 7.76664 19.8055 7.7446 19.7135 7.70361C19.6215 7.66262 19.5387 7.60352 19.4701 7.52983L16.7501 4.81108V11.9998C16.7501 12.1987 16.6711 12.3895 16.5304 12.5302C16.3898 12.6708 16.199 12.7498 16.0001 12.7498C15.8012 12.7498 15.6104 12.6708 15.4697 12.5302C15.3291 12.3895 15.2501 12.1987 15.2501 11.9998V4.81108L12.5301 7.52983C12.3894 7.67028 12.1988 7.74917 12.0001 7.74917C11.8013 7.74917 11.6107 7.67028 11.4701 7.52983ZM19.4701 24.4698L16.7501 27.1886V19.9998C16.7501 19.8009 16.6711 19.6101 16.5304 19.4695C16.3898 19.3288 16.199 19.2498 16.0001 19.2498C15.8012 19.2498 15.6104 19.3288 15.4697 19.4695C15.3291 19.6101 15.2501 19.8009 15.2501 19.9998V27.1886L12.5301 24.4698C12.3879 24.3373 12.1999 24.2652 12.0056 24.2687C11.8112 24.2721 11.6259 24.3508 11.4885 24.4882C11.351 24.6256 11.2723 24.811 11.2689 25.0053C11.2655 25.1996 11.3376 25.3877 11.4701 25.5298L15.4701 29.5298C15.6107 29.6703 15.8013 29.7492 16.0001 29.7492C16.1988 29.7492 16.3894 29.6703 16.5301 29.5298L20.5301 25.5298C20.6626 25.3877 20.7347 25.1996 20.7312 25.0053C20.7278 24.811 20.6491 24.6256 20.5117 24.4882C20.3743 24.3508 20.1889 24.2721 19.9946 24.2687C19.8003 24.2652 19.6122 24.3373 19.4701 24.4698ZM29.5301 15.4698L25.5301 11.4698C25.3879 11.3373 25.1999 11.2652 25.0056 11.2687C24.8112 11.2721 24.6259 11.3508 24.4885 11.4882C24.351 11.6256 24.2723 11.811 24.2689 12.0053C24.2655 12.1996 24.3376 12.3877 24.4701 12.5298L27.1888 15.2498H20.0001C19.8012 15.2498 19.6104 15.3288 19.4697 15.4695C19.3291 15.6102 19.2501 15.8009 19.2501 15.9998C19.2501 16.1987 19.3291 16.3895 19.4697 16.5302C19.6104 16.6708 19.8012 16.7498 20.0001 16.7498H27.1888L24.4701 19.4698C24.3964 19.5385 24.3373 19.6213 24.2963 19.7133C24.2553 19.8053 24.2333 19.9046 24.2315 20.0053C24.2297 20.106 24.2482 20.206 24.2859 20.2994C24.3237 20.3928 24.3798 20.4776 24.451 20.5489C24.5223 20.6201 24.6071 20.6762 24.7005 20.714C24.7939 20.7517 24.8939 20.7702 24.9946 20.7684C25.0953 20.7666 25.1946 20.7446 25.2866 20.7036C25.3786 20.6626 25.4614 20.6035 25.5301 20.5298L29.5301 16.5298C29.6705 16.3892 29.7494 16.1986 29.7494 15.9998C29.7494 15.8011 29.6705 15.6105 29.5301 15.4698ZM4.81132 16.7498H12.0001C12.199 16.7498 12.3897 16.6708 12.5304 16.5302C12.6711 16.3895 12.7501 16.1987 12.7501 15.9998C12.7501 15.8009 12.6711 15.6102 12.5304 15.4695C12.3897 15.3288 12.199 15.2498 12.0001 15.2498H4.81132L7.53007 12.5298C7.66255 12.3877 7.73468 12.1996 7.73125 12.0053C7.72782 11.811 7.64911 11.6256 7.51169 11.4882C7.37428 11.3508 7.1889 11.2721 6.9946 11.2687C6.80029 11.2652 6.61225 11.3373 6.47007 11.4698L2.47007 15.4698C2.32962 15.6105 2.25073 15.8011 2.25073 15.9998C2.25073 16.1986 2.32962 16.3892 2.47007 16.5298L6.47007 20.5298C6.61225 20.6623 6.80029 20.7344 6.9946 20.731C7.1889 20.7276 7.37428 20.6489 7.51169 20.5114C7.64911 20.374 7.72782 20.1887 7.73125 19.9944C7.73468 19.8 7.66255 19.612 7.53007 19.4698L4.81132 16.7498Z" fill="black"/>
</svg>
