<svg width="32" height="32" viewBox="0 0 32 32" fill="none" xmlns="http://www.w3.org/2000/svg">
<path d="M20.3538 24.6462C20.4003 24.6926 20.4372 24.7477 20.4623 24.8084C20.4875 24.8691 20.5004 24.9342 20.5004 24.9999C20.5004 25.0656 20.4875 25.1307 20.4623 25.1914C20.4372 25.2521 20.4003 25.3072 20.3538 25.3537L16.3538 29.3537C16.3073 29.4001 16.2522 29.437 16.1915 29.4622C16.1308 29.4873 16.0657 29.5003 16 29.5003C15.9343 29.5003 15.8693 29.4873 15.8086 29.4622C15.7479 29.437 15.6927 29.4001 15.6463 29.3537L11.6463 25.3537C11.5525 25.2598 11.4998 25.1326 11.4998 24.9999C11.4998 24.8672 11.5525 24.74 11.6463 24.6462C11.7401 24.5523 11.8674 24.4996 12 24.4996C12.1327 24.4996 12.26 24.5523 12.3538 24.6462L15.5 27.7924V4.20741L12.3538 7.35366C12.26 7.44748 12.1327 7.50018 12 7.50018C11.8674 7.50018 11.7401 7.44748 11.6463 7.35366C11.5525 7.25984 11.4998 7.13259 11.4998 6.99991C11.4998 6.86722 11.5525 6.73997 11.6463 6.64615L15.6463 2.64616C15.6927 2.59967 15.7479 2.56279 15.8086 2.53763C15.8693 2.51246 15.9343 2.49951 16 2.49951C16.0657 2.49951 16.1308 2.51246 16.1915 2.53763C16.2522 2.56279 16.3073 2.59967 16.3538 2.64616L20.3538 6.64615C20.4476 6.73997 20.5003 6.86722 20.5003 6.99991C20.5003 7.13259 20.4476 7.25983 20.3538 7.35365C20.26 7.44748 20.1327 7.50018 20 7.50018C19.8674 7.50018 19.7401 7.44748 19.6463 7.35366L16.5 4.20741V27.7924L19.6463 24.6462C19.6927 24.5997 19.7479 24.5628 19.8086 24.5376C19.8693 24.5125 19.9343 24.4995 20 24.4995C20.0657 24.4995 20.1308 24.5125 20.1915 24.5376C20.2522 24.5628 20.3073 24.5997 20.3538 24.6462Z" fill="black"/>
</svg>
