<svg width="32" height="32" viewBox="0 0 32 32" fill="none" xmlns="http://www.w3.org/2000/svg">
<path d="M29.4999 8C29.4999 8.39782 29.3419 8.77936 29.0605 9.06066C28.7792 9.34196 28.3977 9.5 27.9999 9.5H11.4999V22.375L14.9386 18.935C15.2204 18.6532 15.6026 18.4949 16.0011 18.4949C16.3997 18.4949 16.7818 18.6532 17.0636 18.935C17.3454 19.2168 17.5037 19.599 17.5037 19.9975C17.5037 20.396 17.3454 20.7782 17.0636 21.06L11.0636 27.06C10.9243 27.1998 10.7587 27.3108 10.5764 27.3865C10.394 27.4622 10.1986 27.5012 10.0011 27.5012C9.80372 27.5012 9.60824 27.4622 9.42591 27.3865C9.24358 27.3108 9.07799 27.1998 8.93864 27.06L2.93864 21.06C2.65684 20.7782 2.49854 20.396 2.49854 19.9975C2.49854 19.599 2.65684 19.2168 2.93864 18.935C3.22043 18.6532 3.60262 18.4949 4.00114 18.4949C4.39965 18.4949 4.78184 18.6532 5.06364 18.935L8.49989 22.375V8C8.49989 7.60218 8.65792 7.22064 8.93923 6.93934C9.22053 6.65804 9.60206 6.5 9.99989 6.5H27.9999C28.3977 6.5 28.7792 6.65804 29.0605 6.93934C29.3419 7.22064 29.4999 7.60218 29.4999 8Z" fill="black"/>
</svg>
