<svg width="32" height="32" viewBox="0 0 32 32" fill="none" xmlns="http://www.w3.org/2000/svg">
<path d="M27.0613 11.0612L21.0613 17.0612C20.7795 17.343 20.3973 17.5013 19.9988 17.5013C19.6002 17.5013 19.218 17.343 18.9363 17.0612C18.6545 16.7794 18.4961 16.3972 18.4961 15.9987C18.4961 15.6002 18.6545 15.218 18.9363 14.9362L22.375 11.4999H9.5V27.9999C9.5 28.3978 9.34196 28.7793 9.06066 29.0606C8.77936 29.3419 8.39782 29.4999 8 29.4999C7.60218 29.4999 7.22064 29.3419 6.93934 29.0606C6.65804 28.7793 6.5 28.3978 6.5 27.9999V9.99995C6.5 9.60212 6.65804 9.22059 6.93934 8.93929C7.22064 8.65798 7.60218 8.49995 8 8.49995H22.375L18.9387 5.0612C18.7992 4.92167 18.6885 4.75602 18.613 4.57372C18.5375 4.39141 18.4986 4.19602 18.4986 3.9987C18.4986 3.80137 18.5375 3.60598 18.613 3.42367C18.6885 3.24137 18.7992 3.07573 18.9387 2.9362C19.0783 2.79667 19.2439 2.68599 19.4262 2.61047C19.6085 2.53496 19.8039 2.49609 20.0012 2.49609C20.1986 2.49609 20.394 2.53496 20.5763 2.61047C20.7586 2.68599 20.9242 2.79667 21.0637 2.9362L27.0637 8.9362C27.2034 9.07572 27.3142 9.24144 27.3897 9.42385C27.4652 9.60627 27.5039 9.80179 27.5037 9.99922C27.5035 10.1966 27.4642 10.3921 27.3883 10.5743C27.3124 10.7565 27.2013 10.922 27.0613 11.0612Z" fill="black"/>
</svg>
