<svg width="32" height="32" viewBox="0 0 32 32" fill="none" xmlns="http://www.w3.org/2000/svg">
<path d="M27.7501 16.0001C27.7501 16.199 27.6711 16.3898 27.5304 16.5304C27.3898 16.6711 27.199 16.7501 27.0001 16.7501H6.81132L14.5301 24.4701C14.6038 24.5388 14.6629 24.6216 14.7039 24.7136C14.7448 24.8056 14.7669 24.9049 14.7687 25.0056C14.7704 25.1063 14.7519 25.2063 14.7142 25.2997C14.6765 25.3931 14.6203 25.4779 14.5491 25.5491C14.4779 25.6203 14.3931 25.6765 14.2997 25.7142C14.2063 25.7519 14.1063 25.7705 14.0056 25.7687C13.9048 25.7669 13.8055 25.7449 13.7135 25.7039C13.6215 25.6629 13.5387 25.6038 13.4701 25.5301L4.47007 16.5301C4.32962 16.3895 4.25073 16.1988 4.25073 16.0001C4.25073 15.8013 4.32962 15.6107 4.47007 15.4701L13.4701 6.47009C13.6122 6.33761 13.8003 6.26549 13.9946 6.26892C14.1889 6.27234 14.3743 6.35106 14.5117 6.48847C14.6491 6.62588 14.7278 6.81127 14.7312 7.00557C14.7347 7.19987 14.6626 7.38792 14.5301 7.53009L6.81132 15.2501H27.0001C27.199 15.2501 27.3898 15.3291 27.5304 15.4698C27.6711 15.6104 27.7501 15.8012 27.7501 16.0001Z" fill="black"/>
</svg>
