<svg width="32" height="32" viewBox="0 0 32 32" fill="none" xmlns="http://www.w3.org/2000/svg">
<path d="M26.0613 23.0613L20.0613 29.0613C19.9219 29.2011 19.7563 29.312 19.574 29.3878C19.3917 29.4635 19.1962 29.5024 18.9988 29.5024C18.8013 29.5024 18.6059 29.4635 18.4235 29.3878C18.2412 29.312 18.0756 29.2011 17.9363 29.0613L11.9362 23.0613C11.6545 22.7795 11.4961 22.3973 11.4961 21.9988C11.4961 21.6002 11.6545 21.218 11.9362 20.9363C12.218 20.6545 12.6002 20.4961 12.9987 20.4961C13.3973 20.4961 13.7795 20.6545 14.0612 20.9363L17.5 24.375V16C17.497 13.2161 16.3898 10.5472 14.4213 8.57867C12.4528 6.61018 9.78386 5.50298 7 5.5C6.60218 5.5 6.22064 5.34196 5.93934 5.06066C5.65804 4.77936 5.5 4.39782 5.5 4C5.5 3.60218 5.65804 3.22064 5.93934 2.93934C6.22064 2.65804 6.60218 2.5 7 2.5C10.5792 2.50397 14.0107 3.92756 16.5416 6.45844C19.0724 8.98932 20.496 12.4208 20.5 16V24.375L23.9387 20.935C24.2205 20.6532 24.6027 20.4949 25.0012 20.4949C25.3998 20.4949 25.782 20.6532 26.0637 20.935C26.3455 21.2168 26.5039 21.599 26.5039 21.9975C26.5039 22.396 26.3455 22.7782 26.0637 23.06L26.0613 23.0613Z" fill="black"/>
</svg>
