<svg width="32" height="32" viewBox="0 0 32 32" fill="none" xmlns="http://www.w3.org/2000/svg">
<path d="M25.0613 25.0613C24.9219 25.2011 24.7563 25.312 24.574 25.3878C24.3917 25.4635 24.1962 25.5024 23.9988 25.5024C23.8013 25.5024 23.6059 25.4635 23.4235 25.3878C23.2412 25.312 23.0756 25.2011 22.9363 25.0613L9.5 11.625V21C9.5 21.3978 9.34196 21.7794 9.06066 22.0607C8.77936 22.342 8.39782 22.5 8 22.5C7.60218 22.5 7.22064 22.342 6.93934 22.0607C6.65804 21.7794 6.5 21.3978 6.5 21V8C6.5 7.60218 6.65804 7.22064 6.93934 6.93934C7.22064 6.65804 7.60218 6.5 8 6.5H21C21.3978 6.5 21.7794 6.65804 22.0607 6.93934C22.342 7.22064 22.5 7.60218 22.5 8C22.5 8.39782 22.342 8.77936 22.0607 9.06066C21.7794 9.34196 21.3978 9.5 21 9.5H11.625L25.0613 22.9387C25.2007 23.0781 25.3114 23.2435 25.3868 23.4256C25.4623 23.6077 25.5012 23.8029 25.5012 24C25.5012 24.1971 25.4623 24.3923 25.3868 24.5744C25.3114 24.7565 25.2007 24.9219 25.0613 25.0613Z" fill="black"/>
</svg>
