<svg width="32" height="32" viewBox="0 0 32 32" fill="none" xmlns="http://www.w3.org/2000/svg">
<path d="M26 3.5H6C5.33696 3.5 4.70107 3.76339 4.23223 4.23223C3.76339 4.70107 3.5 5.33696 3.5 6V26C3.5 26.663 3.76339 27.2989 4.23223 27.7678C4.70107 28.2366 5.33696 28.5 6 28.5H26C26.663 28.5 27.2989 28.2366 27.7678 27.7678C28.2366 27.2989 28.5 26.663 28.5 26V6C28.5 5.33696 28.2366 4.70107 27.7678 4.23223C27.2989 3.76339 26.663 3.5 26 3.5ZM25.5 25.5H6.5V6.5H25.5V25.5ZM9.93875 17.0613C9.79891 16.9219 9.68795 16.7563 9.61225 16.574C9.53654 16.3917 9.49757 16.1962 9.49757 15.9987C9.49757 15.8013 9.53654 15.6058 9.61225 15.4235C9.68795 15.2412 9.79891 15.0756 9.93875 14.9362L13.9388 10.9362C14.2205 10.6545 14.6027 10.4961 15.0013 10.4961C15.3998 10.4961 15.782 10.6545 16.0637 10.9362C16.3455 11.218 16.5039 11.6002 16.5039 11.9987C16.5039 12.3973 16.3455 12.7795 16.0637 13.0612L14.625 14.5H21C21.3978 14.5 21.7794 14.658 22.0607 14.9393C22.342 15.2206 22.5 15.6022 22.5 16C22.5 16.3978 22.342 16.7794 22.0607 17.0607C21.7794 17.342 21.3978 17.5 21 17.5H14.625L16.065 18.9387C16.3468 19.2205 16.5051 19.6027 16.5051 20.0012C16.5051 20.3998 16.3468 20.782 16.065 21.0637C15.7832 21.3455 15.401 21.5039 15.0025 21.5039C14.604 21.5039 14.2218 21.3455 13.94 21.0637L9.93875 17.0613Z" fill="black"/>
</svg>
