<svg width="32" height="32" viewBox="0 0 32 32" fill="none" xmlns="http://www.w3.org/2000/svg">
<path opacity="0.08" d="M14 7V25L5 16L14 7Z" fill="black"/>
<path d="M27.0001 15.0001H15.0001V7.00006C15.0002 6.80216 14.9416 6.60867 14.8318 6.44407C14.7219 6.27948 14.5657 6.15119 14.3828 6.07543C14.2 5.99968 13.9988 5.97988 13.8047 6.01853C13.6107 6.05718 13.4324 6.15254 13.2926 6.29256L4.29255 15.2926C4.19958 15.3854 4.12582 15.4957 4.07549 15.6171C4.02517 15.7385 3.99927 15.8686 3.99927 16.0001C3.99927 16.1315 4.02517 16.2616 4.07549 16.383C4.12582 16.5044 4.19958 16.6147 4.29255 16.7076L13.2926 25.7076C13.4324 25.8476 13.6107 25.9429 13.8047 25.9816C13.9988 26.0202 14.2 26.0004 14.3828 25.9247C14.5657 25.8489 14.7219 25.7206 14.8318 25.556C14.9416 25.3914 15.0002 25.198 15.0001 25.0001V17.0001H27.0001C27.2653 17.0001 27.5196 16.8947 27.7072 16.7072C27.8947 16.5196 28.0001 16.2653 28.0001 16.0001C28.0001 15.7348 27.8947 15.4805 27.7072 15.2929C27.5196 15.1054 27.2653 15.0001 27.0001 15.0001ZM13.0001 22.5863L6.4138 16.0001L13.0001 9.4138V22.5863Z" fill="black"/>
</svg>
