<svg width="32" height="32" viewBox="0 0 32 32" fill="none" xmlns="http://www.w3.org/2000/svg">
<path d="M29.5 23C29.5 23.3978 29.342 23.7794 29.0607 24.0607C28.7794 24.342 28.3978 24.5 28 24.5C27.6022 24.5 27.2206 24.342 26.9393 24.0607C26.658 23.7794 26.5 23.3978 26.5 23C26.5002 20.9232 25.8844 18.893 24.7307 17.1661C23.5769 15.4393 21.937 14.0933 20.0183 13.2985C18.0996 12.5038 15.9882 12.2958 13.9513 12.701C11.9144 13.1062 10.0435 14.1064 8.575 15.575L6.63875 17.5H11C11.3978 17.5 11.7794 17.658 12.0607 17.9393C12.342 18.2206 12.5 18.6022 12.5 19C12.5 19.3978 12.342 19.7794 12.0607 20.0607C11.7794 20.342 11.3978 20.5 11 20.5H3C2.60218 20.5 2.22064 20.342 1.93934 20.0607C1.65804 19.7794 1.5 19.3978 1.5 19V11C1.5 10.6022 1.65804 10.2206 1.93934 9.93934C2.22064 9.65804 2.60218 9.5 3 9.5C3.39782 9.5 3.77936 9.65804 4.06066 9.93934C4.34196 10.2206 4.5 10.6022 4.5 11V15.395L6.4575 13.4513C8.34586 11.5643 10.7513 10.2795 13.3697 9.75935C15.9881 9.23922 18.702 9.50708 21.1682 10.5291C23.6344 11.5511 25.7422 13.2813 27.2253 15.5011C28.7083 17.7208 29.4999 20.3304 29.5 23Z" fill="black"/>
</svg>
