<svg width="32" height="32" viewBox="0 0 32 32" fill="none" xmlns="http://www.w3.org/2000/svg">
<path d="M28.0613 23.0613L22.0613 29.0613C21.9219 29.2011 21.7563 29.312 21.574 29.3878C21.3917 29.4635 21.1962 29.5024 20.9988 29.5024C20.8013 29.5024 20.6059 29.4635 20.4235 29.3878C20.2412 29.312 20.0756 29.2011 19.9363 29.0613L13.9362 23.0613C13.7967 22.9217 13.686 22.7561 13.6105 22.5738C13.535 22.3915 13.4961 22.1961 13.4961 21.9988C13.4961 21.8014 13.535 21.606 13.6105 21.4237C13.686 21.2414 13.7967 21.0758 13.9362 20.9363C14.0758 20.7967 14.2414 20.686 14.4237 20.6105C14.606 20.535 14.8014 20.4961 14.9987 20.4961C15.1961 20.4961 15.3915 20.535 15.5738 20.6105C15.7561 20.686 15.9217 20.7967 16.0613 20.9363L19.5 24.375V11C19.5 9.54131 18.9205 8.14236 17.8891 7.11091C16.8576 6.07946 15.4587 5.5 14 5.5C12.5413 5.5 11.1424 6.07946 10.1109 7.11091C9.07946 8.14236 8.5 9.54131 8.5 11V22C8.5 22.3978 8.34196 22.7794 8.06066 23.0607C7.77936 23.342 7.39782 23.5 7 23.5C6.60218 23.5 6.22064 23.342 5.93934 23.0607C5.65804 22.7794 5.5 22.3978 5.5 22V11C5.5 8.74566 6.39553 6.58365 7.98959 4.98959C9.58365 3.39553 11.7457 2.5 14 2.5C16.2543 2.5 18.4163 3.39553 20.0104 4.98959C21.6045 6.58365 22.5 8.74566 22.5 11V24.375L25.9387 20.935C26.0783 20.7955 26.2439 20.6848 26.4262 20.6093C26.6085 20.5338 26.8039 20.4949 27.0012 20.4949C27.1986 20.4949 27.394 20.5338 27.5763 20.6093C27.7586 20.6848 27.9242 20.7955 28.0637 20.935C28.2033 21.0745 28.314 21.2402 28.3895 21.4225C28.465 21.6048 28.5039 21.8002 28.5039 21.9975C28.5039 22.1948 28.465 22.3902 28.3895 22.5725C28.314 22.7548 28.2033 22.9205 28.0637 23.06L28.0613 23.0613Z" fill="black"/>
</svg>
