<svg width="32" height="32" viewBox="0 0 32 32" fill="none" xmlns="http://www.w3.org/2000/svg">
<path d="M28.3538 12.3538C28.3073 12.4003 28.2522 12.4371 28.1915 12.4623C28.1308 12.4875 28.0657 12.5004 28 12.5004C27.9343 12.5004 27.8692 12.4875 27.8085 12.4623C27.7478 12.4371 27.6927 12.4003 27.6462 12.3538L22.5 7.20753V24C22.5 24.1326 22.4473 24.2598 22.3536 24.3536C22.2598 24.4473 22.1326 24.5 22 24.5H4C3.86739 24.5 3.74021 24.4473 3.64645 24.3536C3.55268 24.2598 3.5 24.1326 3.5 24C3.5 23.8674 3.55268 23.7402 3.64645 23.6465C3.74021 23.5527 3.86739 23.5 4 23.5H21.5V7.20753L16.3538 12.3538C16.3073 12.4002 16.2521 12.4371 16.1914 12.4622C16.1308 12.4874 16.0657 12.5003 16 12.5003C15.9343 12.5003 15.8692 12.4874 15.8086 12.4622C15.7479 12.4371 15.6927 12.4002 15.6462 12.3538C15.5998 12.3073 15.5629 12.2522 15.5378 12.1915C15.5127 12.1308 15.4997 12.0657 15.4997 12C15.4997 11.9343 15.5127 11.8693 15.5378 11.8086C15.5629 11.7479 15.5998 11.6927 15.6462 11.6463L21.6462 5.64628C21.6927 5.59979 21.7478 5.56291 21.8085 5.53775C21.8692 5.51259 21.9343 5.49963 22 5.49963C22.0657 5.49963 22.1308 5.51259 22.1915 5.53775C22.2522 5.56291 22.3073 5.59979 22.3538 5.64628L28.3538 11.6463C28.4002 11.6927 28.4371 11.7479 28.4623 11.8086C28.4874 11.8693 28.5004 11.9343 28.5004 12C28.5004 12.0657 28.4874 12.1308 28.4623 12.1915C28.4371 12.2522 28.4002 12.3073 28.3538 12.3538Z" fill="black"/>
</svg>
