<svg width="32" height="32" viewBox="0 0 32 32" fill="none" xmlns="http://www.w3.org/2000/svg">
<path d="M28.5 27C28.5 27.3978 28.342 27.7794 28.0607 28.0607C27.7794 28.342 27.3978 28.5 27 28.5H5C4.60218 28.5 4.22064 28.342 3.93934 28.0607C3.65804 27.7794 3.5 27.3978 3.5 27C3.5 26.6022 3.65804 26.2206 3.93934 25.9393C4.22064 25.658 4.60218 25.5 5 25.5H27C27.3978 25.5 27.7794 25.658 28.0607 25.9393C28.342 26.2206 28.5 26.6022 28.5 27ZM8 20.5C8.39782 20.5 8.77936 20.342 9.06066 20.0607C9.34196 19.7794 9.5 19.3978 9.5 19V10.625L20.9387 22.065C21.2205 22.3468 21.6027 22.5051 22.0012 22.5051C22.3998 22.5051 22.782 22.3468 23.0637 22.065C23.3455 21.7832 23.5039 21.401 23.5039 21.0025C23.5039 20.604 23.3455 20.2218 23.0637 19.94L11.625 8.5H20C20.3978 8.5 20.7794 8.34196 21.0607 8.06066C21.342 7.77936 21.5 7.39782 21.5 7C21.5 6.60218 21.342 6.22064 21.0607 5.93934C20.7794 5.65804 20.3978 5.5 20 5.5H8C7.60218 5.5 7.22064 5.65804 6.93934 5.93934C6.65804 6.22064 6.5 6.60218 6.5 7V19C6.5 19.3978 6.65804 19.7794 6.93934 20.0607C7.22064 20.342 7.60218 20.5 8 20.5Z" fill="black"/>
</svg>
