<svg width="32" height="32" viewBox="0 0 32 32" fill="none" xmlns="http://www.w3.org/2000/svg">
<path d="M26.4999 4C26.4999 4.39782 26.3419 4.77936 26.0605 5.06066C25.7792 5.34196 25.3977 5.5 24.9999 5.5C22.216 5.50298 19.547 6.61018 17.5786 8.57867C15.6101 10.5472 14.5029 13.2161 14.4999 16V24.375L17.9386 20.935C18.2204 20.6532 18.6026 20.4949 19.0011 20.4949C19.3997 20.4949 19.7818 20.6532 20.0636 20.935C20.3454 21.2168 20.5037 21.599 20.5037 21.9975C20.5037 22.396 20.3454 22.7782 20.0636 23.06L14.0636 29.06C13.9243 29.1998 13.7587 29.3108 13.5764 29.3865C13.394 29.4622 13.1986 29.5012 13.0011 29.5012C12.8037 29.5012 12.6082 29.4622 12.4259 29.3865C12.2436 29.3108 12.078 29.1998 11.9386 29.06L5.93864 23.06C5.79911 22.9205 5.68843 22.7548 5.61291 22.5725C5.5374 22.3902 5.49854 22.1948 5.49854 21.9975C5.49854 21.599 5.65684 21.2168 5.93864 20.935C6.22043 20.6532 6.60262 20.4949 7.00114 20.4949C7.39965 20.4949 7.78184 20.6532 8.06364 20.935L11.4999 24.375V16C11.5039 12.4208 12.9274 8.98932 15.4583 6.45844C17.9892 3.92756 21.4207 2.50397 24.9999 2.5C25.3977 2.5 25.7792 2.65804 26.0605 2.93934C26.3419 3.22064 26.4999 3.60218 26.4999 4Z" fill="black"/>
</svg>
