<svg width="32" height="32" viewBox="0 0 32 32" fill="none" xmlns="http://www.w3.org/2000/svg">
<path d="M25.9238 14.3826C25.8482 14.5653 25.72 14.7215 25.5556 14.8314C25.3912 14.9413 25.1978 15 25.0001 15.0001H17.0001V27.0001C17.0001 27.2653 16.8947 27.5196 16.7072 27.7072C16.5196 27.8947 16.2653 28.0001 16.0001 28.0001C15.7348 28.0001 15.4805 27.8947 15.2929 27.7072C15.1054 27.5196 15.0001 27.2653 15.0001 27.0001V15.0001H7.00006C6.80216 15.0002 6.60867 14.9416 6.44407 14.8318C6.27948 14.7219 6.15119 14.5657 6.07543 14.3828C5.99968 14.2 5.97988 13.9988 6.01853 13.8047C6.05718 13.6107 6.15254 13.4324 6.29256 13.2926L15.2926 4.29255C15.3854 4.19958 15.4957 4.12582 15.6171 4.07549C15.7385 4.02517 15.8686 3.99927 16.0001 3.99927C16.1315 3.99927 16.2616 4.02517 16.383 4.07549C16.5044 4.12582 16.6147 4.19958 16.7076 4.29255L25.7076 13.2926C25.8474 13.4325 25.9425 13.6107 25.981 13.8048C26.0195 13.9988 25.9996 14.1999 25.9238 14.3826Z" fill="black"/>
</svg>
