<svg width="32" height="32" viewBox="0 0 32 32" fill="none" xmlns="http://www.w3.org/2000/svg">
<path d="M29.5 16C29.5 16.3978 29.342 16.7794 29.0607 17.0607C28.7794 17.342 28.3978 17.5 28 17.5H13.625L20.065 23.9387C20.3468 24.2205 20.5051 24.6027 20.5051 25.0012C20.5051 25.3998 20.3468 25.782 20.065 26.0637C19.7832 26.3455 19.401 26.5039 19.0025 26.5039C18.604 26.5039 18.2218 26.3455 17.94 26.0637L8.94 17.0637C8.80016 16.9244 8.6892 16.7588 8.6135 16.5765C8.53779 16.3941 8.49882 16.1987 8.49882 16.0012C8.49882 15.8038 8.53779 15.6083 8.6135 15.426C8.6892 15.2437 8.80016 15.0781 8.94 14.9388L17.94 5.93875C18.0795 5.79922 18.2452 5.68854 18.4275 5.61303C18.6098 5.53751 18.8052 5.49865 19.0025 5.49865C19.1998 5.49865 19.3952 5.53751 19.5775 5.61303C19.7598 5.68854 19.9255 5.79922 20.065 5.93875C20.2045 6.07828 20.3152 6.24392 20.3907 6.42623C20.4662 6.60853 20.5051 6.80393 20.5051 7.00125C20.5051 7.19857 20.4662 7.39397 20.3907 7.57627C20.3152 7.75857 20.2045 7.92422 20.065 8.06375L13.625 14.5H28C28.3978 14.5 28.7794 14.658 29.0607 14.9393C29.342 15.2206 29.5 15.6022 29.5 16ZM5 3.5C4.60218 3.5 4.22064 3.65804 3.93934 3.93934C3.65804 4.22064 3.5 4.60218 3.5 5V27C3.5 27.3978 3.65804 27.7794 3.93934 28.0607C4.22064 28.342 4.60218 28.5 5 28.5C5.39782 28.5 5.77936 28.342 6.06066 28.0607C6.34196 27.7794 6.5 27.3978 6.5 27V5C6.5 4.60218 6.34196 4.22064 6.06066 3.93934C5.77936 3.65804 5.39782 3.5 5 3.5Z" fill="black"/>
</svg>
