<svg width="32" height="32" viewBox="0 0 32 32" fill="none" xmlns="http://www.w3.org/2000/svg">
<path opacity="0.08" d="M27 10H15L21 4L27 10Z" fill="black"/>
<path d="M27.7075 9.29255L21.7075 3.29255C21.6146 3.19958 21.5043 3.12582 21.3829 3.07549C21.2615 3.02517 21.1314 2.99927 21 2.99927C20.8686 2.99927 20.7385 3.02517 20.6171 3.07549C20.4957 3.12582 20.3854 3.19958 20.2925 3.29255L14.2925 9.29255C14.1525 9.43241 14.0571 9.61066 14.0185 9.80475C13.9798 9.99883 13.9996 10.2 14.0754 10.3828C14.1511 10.5657 14.2794 10.7219 14.444 10.8318C14.6086 10.9416 14.8021 11.0002 15 11.0001H20V21.0001C20 22.5914 19.3679 24.1175 18.2426 25.2427C17.1174 26.3679 15.5913 27.0001 14 27.0001C12.4087 27.0001 10.8826 26.3679 9.75736 25.2427C8.63214 24.1175 8 22.5914 8 21.0001V10.0001C8 9.73484 7.89464 9.48048 7.70711 9.29295C7.51957 9.10541 7.26522 9.00005 7 9.00005C6.73478 9.00005 6.48043 9.10541 6.29289 9.29295C6.10536 9.48048 6 9.73484 6 10.0001V21.0001C6 23.1218 6.84285 25.1566 8.34315 26.6569C9.84344 28.1572 11.8783 29.0001 14 29.0001C16.1217 29.0001 18.1566 28.1572 19.6569 26.6569C21.1571 25.1566 22 23.1218 22 21.0001V11.0001H27C27.1979 11.0002 27.3914 10.9416 27.556 10.8318C27.7206 10.7219 27.8489 10.5657 27.9246 10.3828C28.0004 10.2 28.0202 9.99883 27.9815 9.80475C27.9429 9.61066 27.8475 9.43241 27.7075 9.29255ZM17.4137 9.00005L21 5.4138L24.5863 9.00005H17.4137Z" fill="black"/>
</svg>
