<svg width="32" height="32" viewBox="0 0 32 32" fill="none" xmlns="http://www.w3.org/2000/svg">
<path d="M28.9238 15.3826C28.8482 15.5653 28.72 15.7215 28.5556 15.8314C28.3912 15.9413 28.1978 16 28.0001 16.0001H23.0001V26.0001C23.0001 26.5305 22.7893 27.0392 22.4143 27.4143C22.0392 27.7893 21.5305 28.0001 21.0001 28.0001H11.0001C10.4696 28.0001 9.96092 27.7893 9.58584 27.4143C9.21077 27.0392 9.00006 26.5305 9.00006 26.0001V16.0001H4.00006C3.80216 16.0002 3.60867 15.9416 3.44407 15.8318C3.27948 15.7219 3.15119 15.5657 3.07543 15.3828C2.99968 15.2 2.97988 14.9988 3.01853 14.8047C3.05718 14.6107 3.15254 14.4324 3.29256 14.2926L15.2926 2.29255C15.3854 2.19958 15.4957 2.12582 15.6171 2.07549C15.7385 2.02517 15.8686 1.99927 16.0001 1.99927C16.1315 1.99927 16.2616 2.02517 16.383 2.07549C16.5044 2.12582 16.6147 2.19958 16.7076 2.29255L28.7076 14.2926C28.8474 14.4325 28.9425 14.6107 28.981 14.8048C29.0195 14.9988 28.9996 15.1999 28.9238 15.3826Z" fill="black"/>
</svg>
