<svg width="32" height="32" viewBox="0 0 32 32" fill="none" xmlns="http://www.w3.org/2000/svg">
<path d="M28.7501 8C28.7501 8.19891 28.6711 8.38968 28.5304 8.53033C28.3898 8.67098 28.199 8.75 28.0001 8.75H10.7501V24.1887L15.4701 19.47C15.6123 19.3375 15.8003 19.2654 15.9946 19.2688C16.1889 19.2723 16.3743 19.351 16.5117 19.4884C16.6491 19.6258 16.7278 19.8112 16.7313 20.0055C16.7347 20.1998 16.6626 20.3878 16.5301 20.53L10.5301 26.53C10.3895 26.6705 10.1988 26.7493 10.0001 26.7493C9.80134 26.7493 9.61072 26.6705 9.47009 26.53L3.47009 20.53C3.33761 20.3878 3.26549 20.1998 3.26892 20.0055C3.27234 19.8112 3.35106 19.6258 3.48847 19.4884C3.62588 19.351 3.81127 19.2723 4.00557 19.2688C4.19987 19.2654 4.38792 19.3375 4.53009 19.47L9.25009 24.1887V8C9.25009 7.80109 9.32911 7.61032 9.46976 7.46967C9.61041 7.32902 9.80118 7.25 10.0001 7.25H28.0001C28.199 7.25 28.3898 7.32902 28.5304 7.46967C28.6711 7.61032 28.7501 7.80109 28.7501 8Z" fill="black"/>
</svg>
