<svg width="32" height="32" viewBox="0 0 32 32" fill="none" xmlns="http://www.w3.org/2000/svg">
<path d="M27.0613 23.0613L21.0613 29.0613C20.7795 29.343 20.3973 29.5014 19.9988 29.5014C19.6002 29.5014 19.218 29.343 18.9363 29.0613C18.6545 28.7795 18.4961 28.3973 18.4961 27.9988C18.4961 27.6002 18.6545 27.218 18.9363 26.9363L22.375 23.5H8C7.60218 23.5 7.22064 23.342 6.93934 23.0607C6.65804 22.7794 6.5 22.3978 6.5 22V4C6.5 3.60218 6.65804 3.22064 6.93934 2.93934C7.22064 2.65804 7.60218 2.5 8 2.5C8.39782 2.5 8.77936 2.65804 9.06066 2.93934C9.34196 3.22064 9.5 3.60218 9.5 4V20.5H22.375L18.935 17.0613C18.7955 16.9217 18.6848 16.7561 18.6093 16.5738C18.5338 16.3915 18.4949 16.1961 18.4949 15.9987C18.4949 15.8014 18.5338 15.606 18.6093 15.4237C18.6848 15.2414 18.7955 15.0758 18.935 14.9362C19.0745 14.7967 19.2402 14.686 19.4225 14.6105C19.6048 14.535 19.8002 14.4961 19.9975 14.4961C20.1948 14.4961 20.3902 14.535 20.5725 14.6105C20.7548 14.686 20.9205 14.7967 21.06 14.9362L27.06 20.9363C27.1999 21.0755 27.311 21.241 27.3868 21.4233C27.4626 21.6056 27.5017 21.8011 27.5018 21.9985C27.5019 22.1959 27.4631 22.3914 27.3875 22.5738C27.3119 22.7562 27.201 22.9218 27.0613 23.0613Z" fill="black"/>
</svg>
