<svg width="32" height="32" viewBox="0 0 32 32" fill="none" xmlns="http://www.w3.org/2000/svg">
<path opacity="0.08" d="M12 4V16L6 10L12 4Z" fill="black"/>
<path d="M24.0001 9.00006H13.0001V4.00006C13.0002 3.80216 12.9416 3.60867 12.8318 3.44407C12.7219 3.27948 12.5657 3.15119 12.3828 3.07543C12.2 2.99968 11.9988 2.97988 11.8047 3.01853C11.6107 3.05718 11.4324 3.15254 11.2926 3.29256L5.29255 9.29255C5.19958 9.38543 5.12582 9.49572 5.07549 9.61712C5.02517 9.73851 4.99927 9.86864 4.99927 10.0001C4.99927 10.1315 5.02517 10.2616 5.07549 10.383C5.12582 10.5044 5.19958 10.6147 5.29255 10.7076L11.2926 16.7076C11.4324 16.8476 11.6107 16.9429 11.8047 16.9816C11.9988 17.0202 12.2 17.0004 12.3828 16.9247C12.5657 16.8489 12.7219 16.7206 12.8318 16.556C12.9416 16.3914 13.0002 16.198 13.0001 16.0001V11.0001H23.0001V28.0001C23.0001 28.2653 23.1054 28.5196 23.2929 28.7072C23.4805 28.8947 23.7348 29.0001 24.0001 29.0001C24.2653 29.0001 24.5196 28.8947 24.7072 28.7072C24.8947 28.5196 25.0001 28.2653 25.0001 28.0001V10.0001C25.0001 9.73484 24.8947 9.48048 24.7072 9.29295C24.5196 9.10541 24.2653 9.00006 24.0001 9.00006ZM11.0001 13.5863L7.4138 10.0001L11.0001 6.41381V13.5863Z" fill="black"/>
</svg>
