<svg width="32" height="32" viewBox="0 0 32 32" fill="none" xmlns="http://www.w3.org/2000/svg">
<path d="M29.0001 24.0001C29.0001 24.2653 28.8947 24.5196 28.7072 24.7072C28.5196 24.8947 28.2653 25.0001 28.0001 25.0001H10.0001C9.73484 25.0001 9.48048 24.8947 9.29295 24.7072C9.10541 24.5196 9.00006 24.2653 9.00006 24.0001V13.0001H4.00006C3.80216 13.0002 3.60867 12.9416 3.44407 12.8318C3.27948 12.7219 3.15119 12.5657 3.07543 12.3828C2.99968 12.2 2.97988 11.9988 3.01853 11.8047C3.05718 11.6107 3.15254 11.4324 3.29256 11.2926L9.29255 5.29255C9.38543 5.19958 9.49572 5.12582 9.61712 5.07549C9.73851 5.02517 9.86864 4.99927 10.0001 4.99927C10.1315 4.99927 10.2616 5.02517 10.383 5.07549C10.5044 5.12582 10.6147 5.19958 10.7076 5.29255L16.7076 11.2926C16.8476 11.4324 16.9429 11.6107 16.9816 11.8047C17.0202 11.9988 17.0004 12.2 16.9247 12.3828C16.8489 12.5657 16.7206 12.7219 16.556 12.8318C16.3914 12.9416 16.198 13.0002 16.0001 13.0001H11.0001V23.0001H28.0001C28.2653 23.0001 28.5196 23.1054 28.7072 23.2929C28.8947 23.4805 29.0001 23.7348 29.0001 24.0001Z" fill="black"/>
</svg>
