<svg width="32" height="32" viewBox="0 0 32 32" fill="none" xmlns="http://www.w3.org/2000/svg">
<path d="M29.0613 20.0613L23.0613 26.0613C22.7795 26.343 22.3973 26.5014 21.9988 26.5014C21.6002 26.5014 21.218 26.343 20.9363 26.0613C20.6545 25.7795 20.4961 25.3973 20.4961 24.9988C20.4961 24.6002 20.6545 24.218 20.9363 23.9363L24.375 20.5H16C12.4208 20.496 8.98932 19.0724 6.45844 16.5416C3.92756 14.0107 2.50397 10.5792 2.5 7C2.5 6.60218 2.65804 6.22064 2.93934 5.93934C3.22064 5.65804 3.60218 5.5 4 5.5C4.39782 5.5 4.77936 5.65804 5.06066 5.93934C5.34196 6.22064 5.5 6.60218 5.5 7C5.50298 9.78386 6.61018 12.4528 8.57867 14.4213C10.5472 16.3898 13.2161 17.497 16 17.5H24.375L20.935 14.0612C20.6532 13.7795 20.4949 13.3973 20.4949 12.9987C20.4949 12.6002 20.6532 12.218 20.935 11.9362C21.2168 11.6545 21.599 11.4961 21.9975 11.4961C22.396 11.4961 22.7782 11.6545 23.06 11.9362L29.06 17.9363C29.1999 18.0755 29.311 18.241 29.3868 18.4233C29.4626 18.6056 29.5017 18.8011 29.5018 18.9985C29.5019 19.1959 29.4631 19.3914 29.3875 19.5738C29.3119 19.7562 29.201 19.9218 29.0613 20.0613Z" fill="black"/>
</svg>
