<svg width="32" height="32" viewBox="0 0 32 32" fill="none" xmlns="http://www.w3.org/2000/svg">
<path d="M26.0612 15.0613C25.9218 15.2011 25.7563 15.3121 25.5739 15.3878C25.3916 15.4635 25.1961 15.5025 24.9987 15.5025C24.8013 15.5025 24.6058 15.4635 24.4235 15.3878C24.2411 15.3121 24.0756 15.2011 23.9362 15.0613L17.4999 8.62505V27C17.4999 27.3979 17.3419 27.7794 17.0606 28.0607C16.7793 28.342 16.3978 28.5 15.9999 28.5C15.6021 28.5 15.2206 28.342 14.9393 28.0607C14.658 27.7794 14.4999 27.3979 14.4999 27V8.62505L8.0612 15.0613C7.7794 15.3431 7.39721 15.5014 6.9987 15.5014C6.60018 15.5014 6.21799 15.3431 5.9362 15.0613C5.6544 14.7795 5.49609 14.3973 5.49609 13.9988C5.49609 13.6003 5.6544 13.2181 5.9362 12.9363L14.9362 3.9363C15.0756 3.79646 15.2411 3.6855 15.4235 3.6098C15.6058 3.53409 15.8013 3.49512 15.9987 3.49512C16.1961 3.49512 16.3916 3.53409 16.5739 3.6098C16.7563 3.6855 16.9218 3.79646 17.0612 3.9363L26.0612 12.9363C26.201 13.0757 26.312 13.2412 26.3877 13.4236C26.4634 13.6059 26.5024 13.8014 26.5024 13.9988C26.5024 14.1962 26.4634 14.3917 26.3877 14.574C26.312 14.7564 26.201 14.9219 26.0612 15.0613Z" fill="black"/>
</svg>
