<svg width="32" height="32" viewBox="0 0 32 32" fill="none" xmlns="http://www.w3.org/2000/svg">
<path d="M28.5 16C28.5 16.3978 28.342 16.7793 28.0607 17.0607C27.7794 17.342 27.3978 17.5 27 17.5H5C4.60218 17.5 4.22064 17.342 3.93934 17.0607C3.65804 16.7793 3.5 16.3978 3.5 16C3.5 15.6022 3.65804 15.2206 3.93934 14.9393C4.22064 14.658 4.60218 14.5 5 14.5H27C27.3978 14.5 27.7794 14.658 28.0607 14.9393C28.342 15.2206 28.5 15.6022 28.5 16ZM13.0612 7.05999L14.5 5.62499V11C14.5 11.3978 14.658 11.7793 14.9393 12.0607C15.2206 12.342 15.6022 12.5 16 12.5C16.3978 12.5 16.7794 12.342 17.0607 12.0607C17.342 11.7793 17.5 11.3978 17.5 11V5.62499L18.9387 7.06374C19.2205 7.34553 19.6027 7.50384 20.0012 7.50384C20.3998 7.50384 20.782 7.34553 21.0637 7.06374C21.3455 6.78195 21.5039 6.39976 21.5039 6.00124C21.5039 5.60273 21.3455 5.22053 21.0637 4.93874L17.0637 0.938741C16.9244 0.798902 16.7588 0.687946 16.5765 0.612238C16.3941 0.53653 16.1987 0.497559 16.0012 0.497559C15.8038 0.497559 15.6083 0.53653 15.426 0.612238C15.2437 0.687946 15.0781 0.798902 14.9388 0.938741L10.9388 4.93874C10.657 5.22053 10.4986 5.60273 10.4986 6.00124C10.4986 6.39976 10.657 6.78195 10.9388 7.06374C11.2205 7.34553 11.6027 7.50384 12.0013 7.50384C12.3998 7.50384 12.782 7.34553 13.0638 7.06374L13.0612 7.05999ZM18.9363 24.935L17.5 26.375V21C17.5 20.6022 17.342 20.2206 17.0607 19.9393C16.7794 19.658 16.3978 19.5 16 19.5C15.6022 19.5 15.2206 19.658 14.9393 19.9393C14.658 20.2206 14.5 20.6022 14.5 21V26.375L13.0612 24.935C12.7795 24.6532 12.3973 24.4949 11.9987 24.4949C11.6002 24.4949 11.218 24.6532 10.9362 24.935C10.6545 25.2168 10.4961 25.599 10.4961 25.9975C10.4961 26.396 10.6545 26.7782 10.9362 27.06L14.9362 31.06C15.0756 31.1998 15.2412 31.3108 15.4235 31.3865C15.6058 31.4622 15.8013 31.5012 15.9987 31.5012C16.1962 31.5012 16.3917 31.4622 16.574 31.3865C16.7563 31.3108 16.9219 31.1998 17.0613 31.06L21.0613 27.06C21.343 26.7782 21.5014 26.396 21.5014 25.9975C21.5014 25.599 21.343 25.2168 21.0613 24.935C20.7795 24.6532 20.3973 24.4949 19.9988 24.4949C19.6002 24.4949 19.218 24.6532 18.9363 24.935Z" fill="black"/>
</svg>
