<svg width="32" height="32" viewBox="0 0 32 32" fill="none" xmlns="http://www.w3.org/2000/svg">
<path d="M10.9388 9.06125C10.657 8.77946 10.4986 8.39726 10.4986 7.99875C10.4986 7.60024 10.657 7.21804 10.9388 6.93625C11.2205 6.65446 11.6027 6.49615 12.0013 6.49615C12.3998 6.49615 12.782 6.65446 13.0638 6.93625L14.5 8.375V3C14.5 2.60218 14.658 2.22064 14.9393 1.93934C15.2206 1.65804 15.6022 1.5 16 1.5C16.3978 1.5 16.7794 1.65804 17.0607 1.93934C17.342 2.22064 17.5 2.60218 17.5 3V8.375L18.9387 6.935C19.2205 6.65321 19.6027 6.4949 20.0012 6.4949C20.3998 6.4949 20.782 6.65321 21.0637 6.935C21.3455 7.21679 21.5039 7.59899 21.5039 7.9975C21.5039 8.39601 21.3455 8.77821 21.0637 9.06L17.0637 13.06C16.9244 13.1998 16.7588 13.3108 16.5765 13.3865C16.3941 13.4622 16.1987 13.5012 16.0012 13.5012C15.8038 13.5012 15.6083 13.4622 15.426 13.3865C15.2437 13.3108 15.0781 13.1998 14.9388 13.06L10.9388 9.06125ZM17.0637 18.9363C16.9244 18.7964 16.7588 18.6855 16.5765 18.6097C16.3941 18.534 16.1987 18.4951 16.0012 18.4951C15.8038 18.4951 15.6083 18.534 15.426 18.6097C15.2437 18.6855 15.0781 18.7964 14.9388 18.9363L10.9388 22.9363C10.7992 23.0758 10.6885 23.2414 10.613 23.4237C10.5375 23.606 10.4986 23.8014 10.4986 23.9988C10.4986 24.3973 10.657 24.7795 10.9388 25.0613C11.2205 25.343 11.6027 25.5014 12.0013 25.5014C12.3998 25.5014 12.782 25.343 13.0638 25.0613L14.5 23.625V29C14.5 29.3978 14.658 29.7794 14.9393 30.0607C15.2206 30.342 15.6022 30.5 16 30.5C16.3978 30.5 16.7794 30.342 17.0607 30.0607C17.342 29.7794 17.5 29.3978 17.5 29V23.625L18.9387 25.065C19.2205 25.3468 19.6027 25.5051 20.0012 25.5051C20.3998 25.5051 20.782 25.3468 21.0637 25.065C21.3455 24.7832 21.5039 24.401 21.5039 24.0025C21.5039 23.604 21.3455 23.2218 21.0637 22.94L17.0637 18.9363ZM29 14.5H23.625L25.065 13.0612C25.3468 12.7795 25.5051 12.3973 25.5051 11.9987C25.5051 11.6002 25.3468 11.218 25.065 10.9362C24.7832 10.6545 24.401 10.4961 24.0025 10.4961C23.604 10.4961 23.2218 10.6545 22.94 10.9362L18.94 14.9362C18.8002 15.0756 18.6892 15.2412 18.6135 15.4235C18.5378 15.6058 18.4988 15.8013 18.4988 15.9987C18.4988 16.1962 18.5378 16.3917 18.6135 16.574C18.6892 16.7563 18.8002 16.9219 18.94 17.0613L22.94 21.0613C23.2218 21.343 23.604 21.5014 24.0025 21.5014C24.401 21.5014 24.7832 21.343 25.065 21.0613C25.3468 20.7795 25.5051 20.3973 25.5051 19.9988C25.5051 19.6002 25.3468 19.218 25.065 18.9363L23.625 17.5H29C29.3978 17.5 29.7794 17.342 30.0607 17.0607C30.342 16.7794 30.5 16.3978 30.5 16C30.5 15.6022 30.342 15.2206 30.0607 14.9393C29.7794 14.658 29.3978 14.5 29 14.5ZM13.0612 14.9388L9.06125 10.9388C8.77946 10.657 8.39726 10.4986 7.99875 10.4986C7.60024 10.4986 7.21804 10.657 6.93625 10.9388C6.65446 11.2205 6.49615 11.6027 6.49615 12.0013C6.49615 12.3998 6.65446 12.782 6.93625 13.0638L8.375 14.5H3C2.60218 14.5 2.22064 14.658 1.93934 14.9393C1.65804 15.2206 1.5 15.6022 1.5 16C1.5 16.3978 1.65804 16.7794 1.93934 17.0607C2.22064 17.342 2.60218 17.5 3 17.5H8.375L6.93875 18.9387C6.79922 19.0783 6.68854 19.2439 6.61303 19.4262C6.53751 19.6085 6.49865 19.8039 6.49865 20.0012C6.49865 20.3998 6.65696 20.782 6.93875 21.0637C7.22054 21.3455 7.60274 21.5039 8.00125 21.5039C8.39977 21.5039 8.78196 21.3455 9.06375 21.0637L13.0638 17.0637C13.2034 16.9242 13.3142 16.7585 13.3897 16.5761C13.4652 16.3937 13.5039 16.1982 13.5037 16.0007C13.5035 15.8033 13.4642 15.6079 13.3883 15.4256C13.3124 15.2434 13.2013 15.0779 13.0612 14.9388Z" fill="black"/>
</svg>
