<svg width="32" height="32" viewBox="0 0 32 32" fill="none" xmlns="http://www.w3.org/2000/svg">
<path d="M24.7501 8V21C24.7501 21.1989 24.6711 21.3897 24.5304 21.5303C24.3898 21.671 24.199 21.75 24.0001 21.75C23.8012 21.75 23.6104 21.671 23.4698 21.5303C23.3291 21.3897 23.2501 21.1989 23.2501 21V9.81L8.53009 24.53C8.38792 24.6625 8.19987 24.7346 8.00557 24.7312C7.81127 24.7277 7.62588 24.649 7.48847 24.5116C7.35106 24.3742 7.27234 24.1888 7.26892 23.9945C7.26549 23.8002 7.33761 23.6122 7.47009 23.47L22.1901 8.75H11.0001C10.8012 8.75 10.6104 8.67098 10.4698 8.53033C10.3291 8.38968 10.2501 8.19891 10.2501 8C10.2501 7.80109 10.3291 7.61032 10.4698 7.46967C10.6104 7.32902 10.8012 7.25 11.0001 7.25H24.0001C24.199 7.25 24.3898 7.32902 24.5304 7.46967C24.6711 7.61032 24.7501 7.80109 24.7501 8Z" fill="black"/>
</svg>
