<svg width="32" height="32" viewBox="0 0 32 32" fill="none" xmlns="http://www.w3.org/2000/svg">
<path opacity="0.08" d="M25 14H7L16 5L25 14Z" fill="black"/>
<path d="M25.7076 13.2926L16.7076 4.29255C16.6147 4.19958 16.5044 4.12582 16.383 4.07549C16.2616 4.02517 16.1315 3.99927 16.0001 3.99927C15.8686 3.99927 15.7385 4.02517 15.6171 4.07549C15.4957 4.12582 15.3854 4.19958 15.2926 4.29255L6.29256 13.2926C6.15254 13.4324 6.05718 13.6107 6.01853 13.8047C5.97988 13.9988 5.99968 14.2 6.07543 14.3828C6.15119 14.5657 6.27948 14.7219 6.44407 14.8318C6.60867 14.9416 6.80216 15.0002 7.00006 15.0001H15.0001V27.0001C15.0001 27.2653 15.1054 27.5196 15.2929 27.7072C15.4805 27.8947 15.7348 28.0001 16.0001 28.0001C16.2653 28.0001 16.5196 27.8947 16.7072 27.7072C16.8947 27.5196 17.0001 27.2653 17.0001 27.0001V15.0001H25.0001C25.198 15.0002 25.3914 14.9416 25.556 14.8318C25.7206 14.7219 25.8489 14.5657 25.9247 14.3828C26.0004 14.2 26.0202 13.9988 25.9816 13.8047C25.9429 13.6107 25.8476 13.4324 25.7076 13.2926ZM9.4138 13.0001L16.0001 6.4138L22.5863 13.0001H9.4138Z" fill="black"/>
</svg>
