<svg width="32" height="32" viewBox="0 0 32 32" fill="none" xmlns="http://www.w3.org/2000/svg">
<path d="M25.7076 18.7075L16.7076 27.7075C16.6147 27.8005 16.5044 27.8742 16.383 27.9246C16.2616 27.9749 16.1315 28.0008 16.0001 28.0008C15.8686 28.0008 15.7385 27.9749 15.6171 27.9246C15.4957 27.8742 15.3854 27.8005 15.2926 27.7075L6.29256 18.7075C6.15254 18.5676 6.05718 18.3894 6.01853 18.1953C5.97988 18.0012 5.99968 17.8 6.07543 17.6172C6.15119 17.4344 6.27948 17.2782 6.44407 17.1683C6.60867 17.0584 6.80216 16.9998 7.00006 17H15.0001V5C15.0001 4.73478 15.1054 4.48043 15.2929 4.29289C15.4805 4.10536 15.7348 4 16.0001 4C16.2653 4 16.5196 4.10536 16.7072 4.29289C16.8947 4.48043 17.0001 4.73478 17.0001 5V17H25.0001C25.198 16.9998 25.3914 17.0584 25.556 17.1683C25.7206 17.2782 25.8489 17.4344 25.9247 17.6172C26.0004 17.8 26.0202 18.0012 25.9816 18.1953C25.9429 18.3894 25.8476 18.5676 25.7076 18.7075Z" fill="black"/>
</svg>
