<svg width="32" height="32" viewBox="0 0 32 32" fill="none" xmlns="http://www.w3.org/2000/svg">
<path d="M25.5 28C25.5 28.1326 25.4474 28.2598 25.3536 28.3536C25.2598 28.4473 25.1326 28.5 25 28.5C21.6859 28.4964 18.5086 27.1783 16.1652 24.8348C13.8218 22.4914 12.5037 19.3141 12.5 16V5.20753L7.35378 10.3538C7.30733 10.4002 7.25218 10.4371 7.19148 10.4622C7.13079 10.4874 7.06573 10.5003 7.00003 10.5003C6.93434 10.5003 6.86928 10.4874 6.80859 10.4622C6.74789 10.4371 6.69274 10.4002 6.64628 10.3538C6.59983 10.3073 6.56298 10.2522 6.53784 10.1915C6.5127 10.1308 6.49976 10.0657 6.49976 10C6.49976 9.93433 6.5127 9.86928 6.53784 9.80858C6.56298 9.74788 6.59983 9.69273 6.64628 9.64628L12.6463 3.64628C12.6927 3.59979 12.7479 3.56291 12.8086 3.53775C12.8693 3.51259 12.9343 3.49963 13 3.49963C13.0657 3.49963 13.1308 3.51259 13.1915 3.53775C13.2522 3.56291 13.3073 3.59979 13.3538 3.64628L19.3538 9.64628C19.4476 9.7401 19.5003 9.86735 19.5003 10C19.5003 10.1327 19.4476 10.26 19.3538 10.3538C19.26 10.4476 19.1327 10.5003 19 10.5003C18.8674 10.5003 18.7401 10.4476 18.6463 10.3538L13.5 5.20753V16C13.5033 19.049 14.716 21.9721 16.872 24.1281C19.0279 26.284 21.9511 27.4967 25 27.5C25.1326 27.5 25.2598 27.5527 25.3536 27.6465C25.4474 27.7402 25.5 27.8674 25.5 28Z" fill="black"/>
</svg>
