<svg width="32" height="32" viewBox="0 0 32 32" fill="none" xmlns="http://www.w3.org/2000/svg">
<path d="M28.5301 14.4701L16.5301 2.47007C16.3894 2.32962 16.1988 2.25073 16.0001 2.25073C15.8013 2.25073 15.6107 2.32962 15.4701 2.47007L3.47007 14.4701C3.36532 14.575 3.29399 14.7085 3.26511 14.8539C3.23622 14.9993 3.25107 15.15 3.30779 15.287C3.3645 15.424 3.46053 15.541 3.58374 15.6235C3.70696 15.7059 3.85183 15.7499 4.00007 15.7501H9.25007V19.0001C9.25007 19.199 9.32909 19.3898 9.46974 19.5304C9.6104 19.6711 9.80116 19.7501 10.0001 19.7501H22.0001C22.199 19.7501 22.3898 19.6711 22.5304 19.5304C22.6711 19.3898 22.7501 19.199 22.7501 19.0001V15.7501H28.0001C28.1483 15.7499 28.2932 15.7059 28.4164 15.6235C28.5396 15.541 28.6356 15.424 28.6924 15.287C28.7491 15.15 28.7639 14.9993 28.735 14.8539C28.7062 14.7085 28.6348 14.575 28.5301 14.4701ZM22.0001 14.2501C21.8012 14.2501 21.6104 14.3291 21.4697 14.4697C21.3291 14.6104 21.2501 14.8012 21.2501 15.0001V18.2501H10.7501V15.0001C10.7501 14.8012 10.6711 14.6104 10.5304 14.4697C10.3898 14.3291 10.199 14.2501 10.0001 14.2501H5.81132L16.0001 4.06132L26.1888 14.2501H22.0001ZM22.7501 27.0001C22.7501 27.199 22.6711 27.3898 22.5304 27.5304C22.3898 27.6711 22.199 27.7501 22.0001 27.7501H10.0001C9.80116 27.7501 9.6104 27.6711 9.46974 27.5304C9.32909 27.3898 9.25007 27.199 9.25007 27.0001C9.25007 26.8012 9.32909 26.6104 9.46974 26.4697C9.6104 26.3291 9.80116 26.2501 10.0001 26.2501H22.0001C22.199 26.2501 22.3898 26.3291 22.5304 26.4697C22.6711 26.6104 22.7501 26.8012 22.7501 27.0001ZM22.7501 23.0001C22.7501 23.199 22.6711 23.3898 22.5304 23.5304C22.3898 23.6711 22.199 23.7501 22.0001 23.7501H10.0001C9.80116 23.7501 9.6104 23.6711 9.46974 23.5304C9.32909 23.3898 9.25007 23.199 9.25007 23.0001C9.25007 22.8012 9.32909 22.6104 9.46974 22.4697C9.6104 22.3291 9.80116 22.2501 10.0001 22.2501H22.0001C22.199 22.2501 22.3898 22.3291 22.5304 22.4697C22.6711 22.6104 22.7501 22.8012 22.7501 23.0001Z" fill="black"/>
</svg>
