<svg width="32" height="32" viewBox="0 0 32 32" fill="none" xmlns="http://www.w3.org/2000/svg">
<path d="M27.5 6V12C27.5 12.3978 27.342 12.7794 27.0607 13.0607C26.7794 13.342 26.3978 13.5 26 13.5C25.6022 13.5 25.2206 13.342 24.9393 13.0607C24.658 12.7794 24.5 12.3978 24.5 12V9.625L19.5613 14.565C19.2795 14.8468 18.8973 15.0051 18.4988 15.0051C18.1002 15.0051 17.718 14.8468 17.4363 14.565C17.1545 14.2832 16.9961 13.901 16.9961 13.5025C16.9961 13.104 17.1545 12.7218 17.4363 12.44L22.375 7.5H20C19.6022 7.5 19.2206 7.34196 18.9393 7.06066C18.658 6.77936 18.5 6.39782 18.5 6C18.5 5.60218 18.658 5.22064 18.9393 4.93934C19.2206 4.65804 19.6022 4.5 20 4.5H26C26.3978 4.5 26.7794 4.65804 27.0607 4.93934C27.342 5.22064 27.5 5.60218 27.5 6ZM12.4388 17.4387L7.5 22.375V20C7.5 19.6022 7.34196 19.2206 7.06066 18.9393C6.77936 18.658 6.39782 18.5 6 18.5C5.60218 18.5 5.22064 18.658 4.93934 18.9393C4.65804 19.2206 4.5 19.6022 4.5 20V26C4.5 26.3978 4.65804 26.7794 4.93934 27.0607C5.22064 27.342 5.60218 27.5 6 27.5H12C12.3978 27.5 12.7794 27.342 13.0607 27.0607C13.342 26.7794 13.5 26.3978 13.5 26C13.5 25.6022 13.342 25.2206 13.0607 24.9393C12.7794 24.658 12.3978 24.5 12 24.5H9.625L14.565 19.5613C14.8468 19.2795 15.0051 18.8973 15.0051 18.4988C15.0051 18.1002 14.8468 17.718 14.565 17.4363C14.2832 17.1545 13.901 16.9961 13.5025 16.9961C13.104 16.9961 12.7218 17.1545 12.44 17.4363L12.4388 17.4387Z" fill="black"/>
</svg>
