<svg width="32" height="32" viewBox="0 0 32 32" fill="none" xmlns="http://www.w3.org/2000/svg">
<path d="M26.0613 17.9387C26.343 18.2205 26.5014 18.6027 26.5014 19.0012C26.5014 19.3998 26.343 19.782 26.0613 20.0637C25.7795 20.3455 25.3973 20.5039 24.9988 20.5039C24.6002 20.5039 24.218 20.3455 23.9363 20.0637L17.5 13.625V28C17.5 28.3978 17.342 28.7794 17.0607 29.0607C16.7794 29.342 16.3978 29.5 16 29.5C15.6022 29.5 15.2206 29.342 14.9393 29.0607C14.658 28.7794 14.5 28.3978 14.5 28V13.625L8.06125 20.0613C7.77946 20.343 7.39726 20.5014 6.99875 20.5014C6.60024 20.5014 6.21804 20.343 5.93625 20.0613C5.65446 19.7795 5.49615 19.3973 5.49615 18.9988C5.49615 18.6002 5.65446 18.218 5.93625 17.9363L14.9362 8.93625C15.0756 8.79641 15.2412 8.68545 15.4235 8.60975C15.6058 8.53404 15.8013 8.49507 15.9987 8.49507C16.1962 8.49507 16.3917 8.53404 16.574 8.60975C16.7563 8.68545 16.9219 8.79641 17.0613 8.93625L26.0613 17.9387ZM27 3.5H5C4.60218 3.5 4.22064 3.65804 3.93934 3.93934C3.65804 4.22064 3.5 4.60218 3.5 5C3.5 5.39782 3.65804 5.77936 3.93934 6.06066C4.22064 6.34196 4.60218 6.5 5 6.5H27C27.3978 6.5 27.7794 6.34196 28.0607 6.06066C28.342 5.77936 28.5 5.39782 28.5 5C28.5 4.60218 28.342 4.22064 28.0607 3.93934C27.7794 3.65804 27.3978 3.5 27 3.5Z" fill="black"/>
</svg>
