<svg width="32" height="32" viewBox="0 0 32 32" fill="none" xmlns="http://www.w3.org/2000/svg">
<path d="M10.7076 18.2925C10.8952 18.4801 11.0006 18.7346 11.0006 19C11.0006 19.2654 10.8952 19.5199 10.7076 19.7075C10.5199 19.8951 10.2654 20.0006 10.0001 20.0006C9.73469 20.0006 9.48019 19.8951 9.29255 19.7075L3.29255 13.7075C3.19958 13.6146 3.12582 13.5043 3.07549 13.3829C3.02517 13.2615 2.99927 13.1314 2.99927 13C2.99927 12.8686 3.02517 12.7385 3.07549 12.6171C3.12582 12.4957 3.19958 12.3854 3.29255 12.2925L9.29255 6.29249C9.48019 6.10485 9.73469 5.99944 10.0001 5.99944C10.2654 5.99944 10.5199 6.10485 10.7076 6.29249C10.8952 6.48013 11.0006 6.73463 11.0006 6.99999C11.0006 7.26536 10.8952 7.51985 10.7076 7.70749L5.4138 13L10.7076 18.2925ZM17.0001 12.0375V6.99999C17.0002 6.8021 16.9416 6.60861 16.8318 6.44401C16.7219 6.27942 16.5657 6.15112 16.3828 6.07537C16.2 5.99962 15.9988 5.97981 15.8047 6.01846C15.6107 6.05712 15.4324 6.15248 15.2926 6.29249L9.29255 12.2925C9.19958 12.3854 9.12582 12.4957 9.07549 12.6171C9.02517 12.7385 8.99927 12.8686 8.99927 13C8.99927 13.1314 9.02517 13.2615 9.07549 13.3829C9.12582 13.5043 9.19958 13.6146 9.29255 13.7075L15.2926 19.7075C15.4324 19.8475 15.6107 19.9429 15.8047 19.9815C15.9988 20.0202 16.2 20.0004 16.3828 19.9246C16.5657 19.8489 16.7219 19.7206 16.8318 19.556C16.9416 19.3914 17.0002 19.1979 17.0001 19V14.0462C19.7317 14.2987 22.2707 15.5616 24.1203 17.5875C25.9698 19.6135 26.9968 22.2568 27.0001 25C27.0001 25.2652 27.1054 25.5196 27.2929 25.7071C27.4805 25.8946 27.7348 26 28.0001 26C28.2653 26 28.5196 25.8946 28.7072 25.7071C28.8947 25.5196 29.0001 25.2652 29.0001 25C28.9959 21.7264 27.7587 18.5745 25.5348 16.1722C23.3109 13.7699 20.2636 12.2937 17.0001 12.0375Z" fill="black"/>
</svg>
