<svg width="32" height="32" viewBox="0 0 32 32" fill="none" xmlns="http://www.w3.org/2000/svg">
<path d="M26 3.5H6C5.33696 3.5 4.70107 3.76339 4.23223 4.23223C3.76339 4.70107 3.5 5.33696 3.5 6V26C3.5 26.663 3.76339 27.2989 4.23223 27.7678C4.70107 28.2366 5.33696 28.5 6 28.5H26C26.663 28.5 27.2989 28.2366 27.7678 27.7678C28.2366 27.2989 28.5 26.663 28.5 26V6C28.5 5.33696 28.2366 4.70107 27.7678 4.23223C27.2989 3.76339 26.663 3.5 26 3.5ZM25.5 25.5H6.5V6.5H25.5V25.5ZM10.5 20V14C10.5 13.6022 10.658 13.2206 10.9393 12.9393C11.2206 12.658 11.6022 12.5 12 12.5C12.3978 12.5 12.7794 12.658 13.0607 12.9393C13.342 13.2206 13.5 13.6022 13.5 14V16.375L18.9387 10.935C19.2205 10.6532 19.6027 10.4949 20.0012 10.4949C20.3998 10.4949 20.782 10.6532 21.0637 10.935C21.3455 11.2168 21.5039 11.599 21.5039 11.9975C21.5039 12.396 21.3455 12.7782 21.0637 13.06L15.625 18.5H18C18.3978 18.5 18.7794 18.658 19.0607 18.9393C19.342 19.2206 19.5 19.6022 19.5 20C19.5 20.3978 19.342 20.7794 19.0607 21.0607C18.7794 21.342 18.3978 21.5 18 21.5H12C11.6022 21.5 11.2206 21.342 10.9393 21.0607C10.658 20.7794 10.5 20.3978 10.5 20Z" fill="black"/>
</svg>
