<svg width="32" height="32" viewBox="0 0 32 32" fill="none" xmlns="http://www.w3.org/2000/svg">
<path opacity="0.08" d="M10 7V19L4 13L10 7Z" fill="black"/>
<path d="M16.0001 12H11.0001V6.99999C11.0002 6.8021 10.9416 6.60861 10.8318 6.44401C10.7219 6.27942 10.5657 6.15112 10.3828 6.07537C10.2 5.99962 9.99883 5.97981 9.80475 6.01846C9.61066 6.05712 9.43241 6.15248 9.29255 6.29249L3.29255 12.2925C3.19958 12.3854 3.12582 12.4957 3.07549 12.6171C3.02517 12.7385 2.99927 12.8686 2.99927 13C2.99927 13.1314 3.02517 13.2615 3.07549 13.3829C3.12582 13.5043 3.19958 13.6146 3.29255 13.7075L9.29255 19.7075C9.43241 19.8475 9.61066 19.9429 9.80475 19.9815C9.99883 20.0202 10.2 20.0004 10.3828 19.9246C10.5657 19.8489 10.7219 19.7206 10.8318 19.556C10.9416 19.3914 11.0002 19.1979 11.0001 19V14H16.0001C18.9164 14.0033 21.7124 15.1633 23.7746 17.2255C25.8368 19.2877 26.9967 22.0836 27.0001 25C27.0001 25.2652 27.1054 25.5196 27.2929 25.7071C27.4805 25.8946 27.7348 26 28.0001 26C28.2653 26 28.5196 25.8946 28.7072 25.7071C28.8947 25.5196 29.0001 25.2652 29.0001 25C28.9964 21.5533 27.6256 18.2488 25.1884 15.8116C22.7512 13.3744 19.4468 12.0036 16.0001 12ZM9.00005 16.5862L5.4138 13L9.00005 9.41374V16.5862Z" fill="black"/>
</svg>
