<svg width="32" height="32" viewBox="0 0 32 32" fill="none" xmlns="http://www.w3.org/2000/svg">
<path d="M30.0613 14.9387L18.0613 2.93871C17.8515 2.72869 17.5841 2.58564 17.293 2.52767C17.0018 2.46969 16.7001 2.4994 16.4258 2.61303C16.1516 2.72666 15.9172 2.9191 15.7524 3.16599C15.5876 3.41288 15.4998 3.70312 15.5 3.99996V8.49996H6C5.33696 8.49996 4.70107 8.76335 4.23223 9.23219C3.76339 9.70103 3.5 10.3369 3.5 11V21C3.5 21.663 3.76339 22.2989 4.23223 22.7677C4.70107 23.2366 5.33696 23.5 6 23.5H15.5V28C15.4998 28.2968 15.5876 28.587 15.7524 28.8339C15.9172 29.0808 16.1516 29.2733 16.4258 29.3869C16.7001 29.5005 17.0018 29.5302 17.293 29.4723C17.5841 29.4143 17.8515 29.2712 18.0613 29.0612L30.0613 17.0612C30.2007 16.9219 30.3114 16.7565 30.3868 16.5744C30.4623 16.3923 30.5012 16.1971 30.5012 16C30.5012 15.8028 30.4623 15.6076 30.3868 15.4255C30.3114 15.2435 30.2007 15.078 30.0613 14.9387ZM18.5 24.375V22C18.5 21.6021 18.342 21.2206 18.0607 20.9393C17.7794 20.658 17.3978 20.5 17 20.5H6.5V11.5H17C17.3978 11.5 17.7794 11.3419 18.0607 11.0606C18.342 10.7793 18.5 10.3978 18.5 9.99996V7.62496L26.875 16L18.5 24.375Z" fill="black"/>
</svg>
