<svg width="32" height="32" viewBox="0 0 32 32" fill="none" xmlns="http://www.w3.org/2000/svg">
<path d="M5.29255 10.7073C5.19958 10.6144 5.12582 10.5041 5.07549 10.3828C5.02517 10.2614 4.99927 10.1312 4.99927 9.99981C4.99927 9.8684 5.02517 9.73827 5.07549 9.61687C5.12582 9.49547 5.19958 9.38518 5.29255 9.29231L9.29255 5.29231C9.43241 5.1523 9.61066 5.05693 9.80475 5.01828C9.99883 4.97963 10.2 4.99944 10.3828 5.07519C10.5657 5.15094 10.7219 5.27923 10.8318 5.44383C10.9416 5.60842 11.0002 5.80192 11.0001 5.99981V8.99981H26.0001C26.2653 8.99981 26.5196 9.10517 26.7072 9.2927C26.8947 9.48024 27.0001 9.73459 27.0001 9.99981C27.0001 10.265 26.8947 10.5194 26.7072 10.7069C26.5196 10.8945 26.2653 10.9998 26.0001 10.9998H11.0001V13.9998C11.0002 14.1977 10.9416 14.3912 10.8318 14.5558C10.7219 14.7204 10.5657 14.8487 10.3828 14.9244C10.2 15.0002 9.99883 15.02 9.80475 14.9813C9.61066 14.9427 9.43241 14.8473 9.29255 14.7073L5.29255 10.7073ZM26.7076 21.2923L22.7076 17.2923C22.5677 17.1523 22.3894 17.0569 22.1954 17.0183C22.0013 16.9796 21.8001 16.9994 21.6173 17.0752C21.4344 17.1509 21.2782 17.2792 21.1683 17.4438C21.0585 17.6084 20.9999 17.8019 21.0001 17.9998V20.9998H6.00005C5.73484 20.9998 5.48048 21.1052 5.29295 21.2927C5.10541 21.4802 5.00005 21.7346 5.00005 21.9998C5.00005 22.265 5.10541 22.5194 5.29295 22.7069C5.48048 22.8945 5.73484 22.9998 6.00005 22.9998H21.0001V25.9998C20.9999 26.1977 21.0585 26.3912 21.1683 26.5558C21.2782 26.7204 21.4344 26.8487 21.6173 26.9244C21.8001 27.0002 22.0013 27.02 22.1954 26.9813C22.3894 26.9427 22.5677 26.8473 22.7076 26.7073L26.7076 22.7073C26.8005 22.6144 26.8743 22.5042 26.9246 22.3828C26.9749 22.2614 27.0008 22.1312 27.0008 21.9998C27.0008 21.8684 26.9749 21.7383 26.9246 21.6169C26.8743 21.4955 26.8005 21.3852 26.7076 21.2923Z" fill="black"/>
</svg>
