<svg width="32" height="32" viewBox="0 0 32 32" fill="none" xmlns="http://www.w3.org/2000/svg">
<path d="M29.5 25C29.5 25.3978 29.3419 25.7794 29.0606 26.0607C28.7793 26.342 28.3978 26.5 28 26.5C27.6021 26.5 27.2206 26.342 26.9393 26.0607C26.658 25.7794 26.5 25.3978 26.5 25C26.497 22.2162 25.3898 19.5472 23.4213 17.5787C21.4528 15.6102 18.7838 14.503 16 14.5H7.62496L11.065 17.9388C11.3468 18.2206 11.5051 18.6027 11.5051 19.0013C11.5051 19.3998 11.3468 19.782 11.065 20.0638C10.7832 20.3456 10.401 20.5039 10.0025 20.5039C9.60395 20.5039 9.22175 20.3456 8.93996 20.0638L2.93996 14.0638C2.80012 13.9244 2.68917 13.7588 2.61346 13.5765C2.53775 13.3942 2.49878 13.1987 2.49878 13.0013C2.49878 12.8038 2.53775 12.6084 2.61346 12.426C2.68917 12.2437 2.80012 12.0781 2.93996 11.9388L8.93996 5.93876C9.07949 5.79923 9.24514 5.68855 9.42744 5.61304C9.60974 5.53752 9.80514 5.49866 10.0025 5.49866C10.1998 5.49866 10.3952 5.53752 10.5775 5.61304C10.7598 5.68855 10.9254 5.79923 11.065 5.93876C11.2045 6.07829 11.3152 6.24393 11.3907 6.42624C11.4662 6.60854 11.5051 6.80393 11.5051 7.00126C11.5051 7.19858 11.4662 7.39398 11.3907 7.57628C11.3152 7.75858 11.2045 7.92423 11.065 8.06376L7.62496 11.5H16C19.5792 11.504 23.0106 12.9276 25.5415 15.4585C28.0724 17.9893 29.496 21.4208 29.5 25Z" fill="black"/>
</svg>
