<svg width="32" height="32" viewBox="0 0 32 32" fill="none" xmlns="http://www.w3.org/2000/svg">
<path opacity="0.08" d="M23 10V22H15V28L3 16L15 4V10H23Z" fill="black"/>
<path d="M23.0001 9.00006H16.0001V4.00006C16.0002 3.80216 15.9416 3.60867 15.8318 3.44407C15.7219 3.27948 15.5657 3.15119 15.3828 3.07543C15.2 2.99968 14.9988 2.97988 14.8047 3.01853C14.6107 3.05718 14.4324 3.15254 14.2926 3.29256L2.29255 15.2926C2.19958 15.3854 2.12582 15.4957 2.07549 15.6171C2.02517 15.7385 1.99927 15.8686 1.99927 16.0001C1.99927 16.1315 2.02517 16.2616 2.07549 16.383C2.12582 16.5044 2.19958 16.6147 2.29255 16.7076L14.2926 28.7076C14.4324 28.8476 14.6107 28.9429 14.8047 28.9816C14.9988 29.0202 15.2 29.0004 15.3828 28.9247C15.5657 28.8489 15.7219 28.7206 15.8318 28.556C15.9416 28.3914 16.0002 28.198 16.0001 28.0001V23.0001H23.0001C23.2653 23.0001 23.5196 22.8947 23.7072 22.7072C23.8947 22.5196 24.0001 22.2653 24.0001 22.0001V10.0001C24.0001 9.73484 23.8947 9.48048 23.7072 9.29295C23.5196 9.10541 23.2653 9.00006 23.0001 9.00006ZM22.0001 21.0001H15.0001C14.7348 21.0001 14.4805 21.1054 14.2929 21.2929C14.1054 21.4805 14.0001 21.7348 14.0001 22.0001V25.5863L4.4138 16.0001L14.0001 6.41381V10.0001C14.0001 10.2653 14.1054 10.5196 14.2929 10.7072C14.4805 10.8947 14.7348 11.0001 15.0001 11.0001H22.0001V21.0001ZM28.0001 10.0001V22.0001C28.0001 22.2653 27.8947 22.5196 27.7072 22.7072C27.5196 22.8947 27.2653 23.0001 27.0001 23.0001C26.7348 23.0001 26.4805 22.8947 26.2929 22.7072C26.1054 22.5196 26.0001 22.2653 26.0001 22.0001V10.0001C26.0001 9.73484 26.1054 9.48048 26.2929 9.29295C26.4805 9.10541 26.7348 9.00006 27.0001 9.00006C27.2653 9.00006 27.5196 9.10541 27.7072 9.29295C27.8947 9.48048 28.0001 9.73484 28.0001 10.0001Z" fill="black"/>
</svg>
