<svg width="32" height="32" viewBox="0 0 32 32" fill="none" xmlns="http://www.w3.org/2000/svg">
<path d="M16 2.5C13.33 2.5 10.7199 3.29176 8.49981 4.77516C6.27974 6.25856 4.54942 8.36697 3.52763 10.8338C2.50585 13.3006 2.2385 16.015 2.7594 18.6337C3.28031 21.2525 4.56606 23.6579 6.45406 25.5459C8.34207 27.434 10.7475 28.7197 13.3663 29.2406C15.985 29.7615 18.6994 29.4942 21.1662 28.4724C23.633 27.4506 25.7414 25.7203 27.2248 23.5002C28.7082 21.2801 29.5 18.67 29.5 16C29.496 12.4208 28.0724 8.98932 25.5416 6.45844C23.0107 3.92756 19.5792 2.50397 16 2.5ZM16 26.5C13.9233 26.5 11.8932 25.8842 10.1665 24.7304C8.4398 23.5767 7.09399 21.9368 6.29927 20.0182C5.50455 18.0996 5.29662 15.9884 5.70176 13.9516C6.10691 11.9148 7.10693 10.0438 8.57538 8.57538C10.0438 7.10693 11.9148 6.1069 13.9516 5.70175C15.9884 5.29661 18.0996 5.50454 20.0182 6.29926C21.9368 7.09399 23.5767 8.4398 24.7304 10.1665C25.8842 11.8932 26.5 13.9233 26.5 16C26.497 18.7839 25.3898 21.4528 23.4213 23.4213C21.4529 25.3898 18.7839 26.497 16 26.5ZM21.0613 13.9388C21.343 14.2205 21.5014 14.6027 21.5014 15.0013C21.5014 15.3998 21.343 15.782 21.0613 16.0637C20.7795 16.3455 20.3973 16.5039 19.9988 16.5039C19.6002 16.5039 19.218 16.3455 18.9363 16.0637L17.5 14.625V21C17.5 21.3978 17.342 21.7794 17.0607 22.0607C16.7794 22.342 16.3978 22.5 16 22.5C15.6022 22.5 15.2206 22.342 14.9393 22.0607C14.658 21.7794 14.5 21.3978 14.5 21V14.625L13.0613 16.065C12.7795 16.3468 12.3973 16.5051 11.9988 16.5051C11.6002 16.5051 11.218 16.3468 10.9363 16.065C10.6545 15.7832 10.4962 15.401 10.4962 15.0025C10.4962 14.604 10.6545 14.2218 10.9363 13.94L14.9363 9.94C15.0756 9.80016 15.2412 9.6892 15.4235 9.6135C15.6059 9.53779 15.8013 9.49882 15.9988 9.49882C16.1962 9.49882 16.3917 9.53779 16.574 9.6135C16.7563 9.6892 16.9219 9.80016 17.0613 9.94L21.0613 13.9388Z" fill="black"/>
</svg>
