<svg width="32" height="32" viewBox="0 0 32 32" fill="none" xmlns="http://www.w3.org/2000/svg">
<path d="M19.0001 9.25007H15.7501V4.00007C15.7499 3.85183 15.7059 3.70696 15.6235 3.58374C15.541 3.46053 15.424 3.3645 15.287 3.30779C15.15 3.25107 14.9993 3.23622 14.8539 3.26511C14.7085 3.29399 14.575 3.36532 14.4701 3.47007L2.47007 15.4701C2.32962 15.6107 2.25073 15.8013 2.25073 16.0001C2.25073 16.1988 2.32962 16.3894 2.47007 16.5301L14.4701 28.5301C14.575 28.6348 14.7085 28.7062 14.8539 28.735C14.9993 28.7639 15.15 28.7491 15.287 28.6924C15.424 28.6356 15.541 28.5396 15.6235 28.4164C15.7059 28.2932 15.7499 28.1483 15.7501 28.0001V22.7501H19.0001C19.199 22.7501 19.3898 22.6711 19.5304 22.5304C19.6711 22.3898 19.7501 22.199 19.7501 22.0001V10.0001C19.7501 9.80116 19.6711 9.6104 19.5304 9.46974C19.3898 9.32909 19.199 9.25007 19.0001 9.25007ZM18.2501 21.2501H15.0001C14.8012 21.2501 14.6104 21.3291 14.4697 21.4697C14.3291 21.6104 14.2501 21.8012 14.2501 22.0001V26.1888L4.06132 16.0001L14.2501 5.81132V10.0001C14.2501 10.199 14.3291 10.3898 14.4697 10.5304C14.6104 10.6711 14.8012 10.7501 15.0001 10.7501H18.2501V21.2501ZM27.7501 10.0001V22.0001C27.7501 22.199 27.6711 22.3898 27.5304 22.5304C27.3898 22.6711 27.199 22.7501 27.0001 22.7501C26.8012 22.7501 26.6104 22.6711 26.4697 22.5304C26.3291 22.3898 26.2501 22.199 26.2501 22.0001V10.0001C26.2501 9.80116 26.3291 9.6104 26.4697 9.46974C26.6104 9.32909 26.8012 9.25007 27.0001 9.25007C27.199 9.25007 27.3898 9.32909 27.5304 9.46974C27.6711 9.6104 27.7501 9.80116 27.7501 10.0001ZM23.7501 10.0001V22.0001C23.7501 22.199 23.6711 22.3898 23.5304 22.5304C23.3898 22.6711 23.199 22.7501 23.0001 22.7501C22.8012 22.7501 22.6104 22.6711 22.4697 22.5304C22.3291 22.3898 22.2501 22.199 22.2501 22.0001V10.0001C22.2501 9.80116 22.3291 9.6104 22.4697 9.46974C22.6104 9.32909 22.8012 9.25007 23.0001 9.25007C23.199 9.25007 23.3898 9.32909 23.5304 9.46974C23.6711 9.6104 23.7501 9.80116 23.7501 10.0001Z" fill="black"/>
</svg>
