<svg width="32" height="32" viewBox="0 0 32 32" fill="none" xmlns="http://www.w3.org/2000/svg">
<path d="M10.3537 18.6462C10.4475 18.74 10.5002 18.8673 10.5002 19C10.5002 19.1327 10.4475 19.2599 10.3537 19.3537C10.2598 19.4475 10.1326 19.5003 9.99991 19.5003C9.86722 19.5003 9.73997 19.4475 9.64615 19.3537L3.64616 13.3537C3.59967 13.3073 3.56279 13.2521 3.53763 13.1914C3.51246 13.1307 3.49951 13.0657 3.49951 13C3.49951 12.9343 3.51246 12.8692 3.53763 12.8085C3.56279 12.7478 3.59967 12.6927 3.64616 12.6462L9.64615 6.64622C9.69261 6.59977 9.74776 6.56292 9.80846 6.53778C9.86915 6.51263 9.93421 6.49969 9.99991 6.49969C10.0656 6.49969 10.1307 6.51263 10.1914 6.53778C10.252 6.56292 10.3072 6.59977 10.3537 6.64622C10.4001 6.69268 10.437 6.74783 10.4621 6.80852C10.4872 6.86922 10.5002 6.93428 10.5002 6.99997C10.5002 7.06567 10.4872 7.13072 10.4621 7.19142C10.437 7.25212 10.4001 7.30727 10.3537 7.35372L4.70741 13L10.3537 18.6462ZM15.9999 12.5H11.2074L16.3537 7.35372C16.4475 7.2599 16.5002 7.13265 16.5002 6.99997C16.5002 6.86729 16.4475 6.74004 16.3537 6.64622C16.2598 6.5524 16.1326 6.49969 15.9999 6.49969C15.8672 6.49969 15.74 6.5524 15.6462 6.64622L9.64615 12.6462C9.59967 12.6927 9.56279 12.7478 9.53762 12.8085C9.51246 12.8692 9.49951 12.9343 9.49951 13C9.49951 13.0657 9.51246 13.1307 9.53762 13.1914C9.56279 13.2521 9.59967 13.3073 9.64615 13.3537L15.6462 19.3537C15.74 19.4475 15.8672 19.5003 15.9999 19.5003C16.1326 19.5003 16.2598 19.4475 16.3537 19.3537C16.4475 19.2599 16.5002 19.1327 16.5002 19C16.5002 18.8673 16.4475 18.74 16.3537 18.6462L11.2074 13.5H15.9999C19.0489 13.5033 21.972 14.7159 24.128 16.8719C26.2839 19.0279 27.4966 21.951 27.4999 25C27.4999 25.1326 27.5526 25.2598 27.6464 25.3535C27.7401 25.4473 27.8673 25.5 27.9999 25.5C28.1325 25.5 28.2597 25.4473 28.3535 25.3535C28.4472 25.2598 28.4999 25.1326 28.4999 25C28.4963 21.6859 27.1781 18.5086 24.8347 16.1652C22.4913 13.8217 19.314 12.5036 15.9999 12.5Z" fill="black"/>
</svg>
