<svg width="32" height="32" viewBox="0 0 32 32" fill="none" xmlns="http://www.w3.org/2000/svg">
<path d="M29.0001 7C28.9964 10.4467 27.6256 13.7512 25.1884 16.1884C22.7512 18.6256 19.4468 19.9964 16.0001 20H11.0001V25C11.0002 25.1979 10.9416 25.3914 10.8318 25.556C10.7219 25.7206 10.5657 25.8489 10.3828 25.9246C10.2 26.0004 9.99883 26.0202 9.80475 25.9815C9.61066 25.9429 9.43241 25.8475 9.29255 25.7075L3.29255 19.7075C3.19958 19.6146 3.12582 19.5043 3.07549 19.3829C3.02517 19.2615 2.99927 19.1314 2.99927 19C2.99927 18.8686 3.02517 18.7385 3.07549 18.6171C3.12582 18.4957 3.19958 18.3854 3.29255 18.2925L9.29255 12.2925C9.43241 12.1525 9.61066 12.0571 9.80475 12.0185C9.99883 11.9798 10.2 11.9996 10.3828 12.0754C10.5657 12.1511 10.7219 12.2794 10.8318 12.444C10.9416 12.6086 11.0002 12.8021 11.0001 13V18H16.0001C18.9164 17.9967 21.7124 16.8367 23.7746 14.7745C25.8368 12.7123 26.9967 9.91637 27.0001 7C27.0001 6.73478 27.1054 6.48043 27.2929 6.29289C27.4805 6.10536 27.7348 6 28.0001 6C28.2653 6 28.5196 6.10536 28.7072 6.29289C28.8947 6.48043 29.0001 6.73478 29.0001 7Z" fill="black"/>
</svg>
