<svg width="32" height="32" viewBox="0 0 32 32" fill="none" xmlns="http://www.w3.org/2000/svg">
<path d="M28.0001 16.0001C28.0001 16.2653 27.8947 16.5196 27.7072 16.7072C27.5196 16.8947 27.2653 17.0001 27.0001 17.0001H15.0001V25.0001C15.0002 25.198 14.9416 25.3914 14.8318 25.556C14.7219 25.7206 14.5657 25.8489 14.3828 25.9247C14.2 26.0004 13.9988 26.0202 13.8047 25.9816C13.6107 25.9429 13.4324 25.8476 13.2926 25.7076L4.29255 16.7076C4.19958 16.6147 4.12582 16.5044 4.07549 16.383C4.02517 16.2616 3.99927 16.1315 3.99927 16.0001C3.99927 15.8686 4.02517 15.7385 4.07549 15.6171C4.12582 15.4957 4.19958 15.3854 4.29255 15.2926L13.2926 6.29256C13.4324 6.15254 13.6107 6.05718 13.8047 6.01853C13.9988 5.97988 14.2 5.99968 14.3828 6.07543C14.5657 6.15119 14.7219 6.27948 14.8318 6.44407C14.9416 6.60867 15.0002 6.80216 15.0001 7.00006V15.0001H27.0001C27.2653 15.0001 27.5196 15.1054 27.7072 15.2929C27.8947 15.4805 28.0001 15.7348 28.0001 16.0001Z" fill="black"/>
</svg>
