<svg width="32" height="32" viewBox="0 0 32 32" fill="none" xmlns="http://www.w3.org/2000/svg">
<path opacity="0.08" d="M16 12H4L10 6L16 12Z" fill="black"/>
<path d="M28.0001 23.0001H11.0001V13.0001H16.0001C16.198 13.0002 16.3914 12.9416 16.556 12.8318C16.7206 12.7219 16.8489 12.5657 16.9247 12.3828C17.0004 12.2 17.0202 11.9988 16.9816 11.8047C16.9429 11.6107 16.8476 11.4324 16.7076 11.2926L10.7076 5.29255C10.6147 5.19958 10.5044 5.12582 10.383 5.07549C10.2616 5.02517 10.1315 4.99927 10.0001 4.99927C9.86864 4.99927 9.73851 5.02517 9.61712 5.07549C9.49572 5.12582 9.38543 5.19958 9.29255 5.29255L3.29256 11.2926C3.15254 11.4324 3.05718 11.6107 3.01853 11.8047C2.97988 11.9988 2.99968 12.2 3.07543 12.3828C3.15119 12.5657 3.27948 12.7219 3.44407 12.8318C3.60867 12.9416 3.80216 13.0002 4.00006 13.0001H9.00006V24.0001C9.00006 24.2653 9.10541 24.5196 9.29295 24.7072C9.48048 24.8947 9.73484 25.0001 10.0001 25.0001H28.0001C28.2653 25.0001 28.5196 24.8947 28.7072 24.7072C28.8947 24.5196 29.0001 24.2653 29.0001 24.0001C29.0001 23.7348 28.8947 23.4805 28.7072 23.2929C28.5196 23.1054 28.2653 23.0001 28.0001 23.0001ZM10.0001 7.4138L13.5863 11.0001H6.41381L10.0001 7.4138Z" fill="black"/>
</svg>
