<svg width="32" height="32" viewBox="0 0 32 32" fill="none" xmlns="http://www.w3.org/2000/svg">
<path d="M16 2.5C13.33 2.5 10.7199 3.29176 8.49981 4.77516C6.27974 6.25856 4.54942 8.36697 3.52763 10.8338C2.50585 13.3006 2.2385 16.015 2.7594 18.6337C3.28031 21.2525 4.56606 23.6579 6.45406 25.5459C8.34207 27.434 10.7475 28.7197 13.3663 29.2406C15.985 29.7615 18.6994 29.4942 21.1662 28.4724C23.633 27.4506 25.7414 25.7203 27.2248 23.5002C28.7082 21.2801 29.5 18.67 29.5 16C29.496 12.4208 28.0724 8.98932 25.5416 6.45844C23.0107 3.92756 19.5792 2.50397 16 2.5ZM16 26.5C13.9233 26.5 11.8932 25.8842 10.1665 24.7304C8.4398 23.5767 7.09399 21.9368 6.29927 20.0182C5.50455 18.0996 5.29662 15.9884 5.70176 13.9516C6.10691 11.9148 7.10693 10.0438 8.57538 8.57538C10.0438 7.10693 11.9148 6.1069 13.9516 5.70175C15.9884 5.29661 18.0996 5.50454 20.0182 6.29926C21.9368 7.09399 23.5767 8.4398 24.7304 10.1665C25.8842 11.8932 26.5 13.9233 26.5 16C26.497 18.7839 25.3898 21.4528 23.4213 23.4213C21.4529 25.3898 18.7839 26.497 16 26.5ZM22.0613 14.9388C22.2011 15.0781 22.312 15.2437 22.3878 15.426C22.4635 15.6083 22.5024 15.8038 22.5024 16.0012C22.5024 16.1987 22.4635 16.3941 22.3878 16.5765C22.312 16.7588 22.2011 16.9244 22.0613 17.0637L18.0613 21.0637C17.9217 21.2033 17.7561 21.314 17.5738 21.3895C17.3915 21.465 17.1961 21.5039 16.9988 21.5039C16.8014 21.5039 16.606 21.465 16.4237 21.3895C16.2414 21.314 16.0758 21.2033 15.9363 21.0637C15.7967 20.9242 15.686 20.7586 15.6105 20.5763C15.535 20.394 15.4962 20.1986 15.4962 20.0012C15.4962 19.8039 15.535 19.6085 15.6105 19.4262C15.686 19.2439 15.7967 19.0783 15.9363 18.9387L17.375 17.5H11C10.6022 17.5 10.2207 17.342 9.93935 17.0607C9.65804 16.7794 9.50001 16.3978 9.50001 16C9.50001 15.6022 9.65804 15.2206 9.93935 14.9393C10.2207 14.658 10.6022 14.5 11 14.5H17.375L15.935 13.0612C15.7955 12.9217 15.6848 12.7561 15.6093 12.5738C15.5338 12.3915 15.4949 12.1961 15.4949 11.9987C15.4949 11.8014 15.5338 11.606 15.6093 11.4237C15.6848 11.2414 15.7955 11.0758 15.935 10.9362C16.0745 10.7967 16.2402 10.686 16.4225 10.6105C16.6048 10.535 16.8002 10.4961 16.9975 10.4961C17.1948 10.4961 17.3902 10.535 17.5725 10.6105C17.7548 10.686 17.9205 10.7967 18.06 10.9362L22.0613 14.9388Z" fill="black"/>
</svg>
