<svg width="32" height="32" viewBox="0 0 32 32" fill="none" xmlns="http://www.w3.org/2000/svg">
<path d="M28.5 15.9999C28.5 16.3977 28.3419 16.7792 28.0606 17.0605C27.7793 17.3419 27.3978 17.4999 27 17.4999H8.62496L15.065 23.9386C15.3468 24.2204 15.5051 24.6026 15.5051 25.0011C15.5051 25.3997 15.3468 25.7818 15.065 26.0636C14.7832 26.3454 14.401 26.5037 14.0025 26.5037C13.6039 26.5037 13.2218 26.3454 12.94 26.0636L3.93996 17.0636C3.80012 16.9243 3.68917 16.7587 3.61346 16.5764C3.53775 16.394 3.49878 16.1986 3.49878 16.0011C3.49878 15.8037 3.53775 15.6082 3.61346 15.4259C3.68917 15.2436 3.80012 15.078 3.93996 14.9386L12.94 5.93864C13.0795 5.79911 13.2451 5.68843 13.4274 5.61291C13.6097 5.5374 13.8051 5.49854 14.0025 5.49854C14.1998 5.49854 14.3952 5.5374 14.5775 5.61291C14.7598 5.68843 14.9254 5.79911 15.065 5.93864C15.2045 6.07817 15.3152 6.24381 15.3907 6.42612C15.4662 6.60842 15.5051 6.80381 15.5051 7.00114C15.5051 7.19846 15.4662 7.39385 15.3907 7.57616C15.3152 7.75846 15.2045 7.92411 15.065 8.06364L8.62496 14.4999H27C27.3978 14.4999 27.7793 14.6579 28.0606 14.9392C28.3419 15.2205 28.5 15.6021 28.5 15.9999Z" fill="black"/>
</svg>
