<svg width="32" height="32" viewBox="0 0 32 32" fill="none" xmlns="http://www.w3.org/2000/svg">
<path d="M25.3538 18.3538L16.3538 27.3538C16.3073 27.4002 16.2522 27.4371 16.1915 27.4623C16.1308 27.4874 16.0657 27.5004 16 27.5004C15.9343 27.5004 15.8693 27.4874 15.8086 27.4623C15.7479 27.4371 15.6927 27.4002 15.6463 27.3538L6.64628 18.3538C6.55246 18.2599 6.49976 18.1327 6.49976 18C6.49976 17.8673 6.55246 17.7401 6.64628 17.6462C6.7401 17.5524 6.86735 17.4997 7.00003 17.4997C7.13272 17.4997 7.25996 17.5524 7.35378 17.6462L15.5 25.7925V5C15.5 4.86739 15.5527 4.74021 15.6465 4.64645C15.7402 4.55268 15.8674 4.5 16 4.5C16.1326 4.5 16.2598 4.55268 16.3536 4.64645C16.4474 4.74021 16.5 4.86739 16.5 5V25.7925L24.6463 17.6462C24.7401 17.5524 24.8674 17.4997 25 17.4997C25.1327 17.4997 25.26 17.5524 25.3538 17.6462C25.4476 17.7401 25.5003 17.8673 25.5003 18C25.5003 18.1327 25.4476 18.2599 25.3538 18.3538Z" fill="black"/>
</svg>
