<svg width="32" height="32" viewBox="0 0 32 32" fill="none" xmlns="http://www.w3.org/2000/svg">
<path d="M28.7076 23.7075L24.7076 27.7075C24.6147 27.8005 24.5044 27.8742 24.383 27.9246C24.2616 27.9749 24.1315 28.0008 24.0001 28.0008C23.8686 28.0008 23.7385 27.9749 23.6171 27.9246C23.4957 27.8742 23.3854 27.8005 23.2926 27.7075L19.2926 23.7075C19.1525 23.5676 19.0572 23.3894 19.0185 23.1953C18.9799 23.0012 18.9997 22.8 19.0754 22.6172C19.1512 22.4344 19.2795 22.2782 19.4441 22.1683C19.6087 22.0584 19.8022 21.9998 20.0001 22H23.0001V17.4137L16.0001 10.4137L9.00006 17.4137V22H12.0001C12.198 21.9998 12.3914 22.0584 12.556 22.1683C12.7206 22.2782 12.8489 22.4344 12.9247 22.6172C13.0004 22.8 13.0202 23.0012 12.9816 23.1953C12.9429 23.3894 12.8476 23.5676 12.7076 23.7075L8.70756 27.7075C8.61468 27.8005 8.50439 27.8742 8.383 27.9246C8.2616 27.9749 8.13147 28.0008 8.00006 28.0008C7.86864 28.0008 7.73851 27.9749 7.61712 27.9246C7.49572 27.8742 7.38543 27.8005 7.29256 27.7075L3.29256 23.7075C3.15254 23.5676 3.05718 23.3894 3.01853 23.1953C2.97988 23.0012 2.99968 22.8 3.07543 22.6172C3.15119 22.4344 3.27948 22.2782 3.44407 22.1683C3.60867 22.0584 3.80216 21.9998 4.00006 22H7.00006V17C6.99995 16.8686 7.02573 16.7385 7.07592 16.6171C7.12611 16.4958 7.19972 16.3854 7.29256 16.2925L15.0001 8.58625V3C15.0001 2.73478 15.1054 2.48043 15.2929 2.29289C15.4805 2.10536 15.7348 2 16.0001 2C16.2653 2 16.5196 2.10536 16.7072 2.29289C16.8947 2.48043 17.0001 2.73478 17.0001 3V8.58625L24.7076 16.2925C24.8004 16.3854 24.874 16.4958 24.9242 16.6171C24.9744 16.7385 25.0002 16.8686 25.0001 17V22H28.0001C28.198 21.9998 28.3914 22.0584 28.556 22.1683C28.7206 22.2782 28.8489 22.4344 28.9247 22.6172C29.0004 22.8 29.0202 23.0012 28.9816 23.1953C28.9429 23.3894 28.8476 23.5676 28.7076 23.7075Z" fill="black"/>
</svg>
