<svg width="32" height="32" viewBox="0 0 32 32" fill="none" xmlns="http://www.w3.org/2000/svg">
<path d="M26 3.5H6C5.33696 3.5 4.70107 3.76339 4.23223 4.23223C3.76339 4.70107 3.5 5.33696 3.5 6V26C3.5 26.663 3.76339 27.2989 4.23223 27.7678C4.70107 28.2366 5.33696 28.5 6 28.5H26C26.663 28.5 27.2989 28.2366 27.7678 27.7678C28.2366 27.2989 28.5 26.663 28.5 26V6C28.5 5.33696 28.2366 4.70107 27.7678 4.23223C27.2989 3.76339 26.663 3.5 26 3.5ZM25.5 25.5H6.5V6.5H25.5V25.5ZM10.9388 13.0612C10.7992 12.9217 10.6885 12.7561 10.613 12.5738C10.5375 12.3915 10.4986 12.1961 10.4986 11.9987C10.4986 11.6002 10.657 11.218 10.9388 10.9362C11.2205 10.6545 11.6027 10.4961 12.0013 10.4961C12.3998 10.4961 12.782 10.6545 13.0638 10.9362L18.5 16.375V14C18.5 13.6022 18.658 13.2206 18.9393 12.9393C19.2206 12.658 19.6022 12.5 20 12.5C20.3978 12.5 20.7794 12.658 21.0607 12.9393C21.342 13.2206 21.5 13.6022 21.5 14V20C21.5 20.3978 21.342 20.7794 21.0607 21.0607C20.7794 21.342 20.3978 21.5 20 21.5H14C13.6022 21.5 13.2206 21.342 12.9393 21.0607C12.658 20.7794 12.5 20.3978 12.5 20C12.5 19.6022 12.658 19.2206 12.9393 18.9393C13.2206 18.658 13.6022 18.5 14 18.5H16.375L10.9388 13.0612Z" fill="black"/>
</svg>
