<svg width="32" height="32" viewBox="0 0 32 32" fill="none" xmlns="http://www.w3.org/2000/svg">
<path d="M28.5301 14.4701L16.5301 2.47007C16.3894 2.32962 16.1988 2.25073 16.0001 2.25073C15.8013 2.25073 15.6107 2.32962 15.4701 2.47007L3.47007 14.4701C3.36532 14.575 3.29399 14.7085 3.26511 14.8539C3.23622 14.9993 3.25107 15.15 3.30779 15.287C3.3645 15.424 3.46053 15.541 3.58374 15.6235C3.70696 15.7059 3.85183 15.7499 4.00007 15.7501H9.25007V26.0001C9.25007 26.4642 9.43445 26.9093 9.76264 27.2375C10.0908 27.5657 10.5359 27.7501 11.0001 27.7501H21.0001C21.4642 27.7501 21.9093 27.5657 22.2375 27.2375C22.5657 26.9093 22.7501 26.4642 22.7501 26.0001V15.7501H28.0001C28.1483 15.7499 28.2932 15.7059 28.4164 15.6235C28.5396 15.541 28.6356 15.424 28.6924 15.287C28.7491 15.15 28.7639 14.9993 28.735 14.8539C28.7062 14.7085 28.6348 14.575 28.5301 14.4701ZM22.0001 14.2501C21.8012 14.2501 21.6104 14.3291 21.4697 14.4697C21.3291 14.6104 21.2501 14.8012 21.2501 15.0001V26.0001C21.2501 26.0664 21.2237 26.13 21.1768 26.1768C21.13 26.2237 21.0664 26.2501 21.0001 26.2501H11.0001C10.9338 26.2501 10.8702 26.2237 10.8233 26.1768C10.7764 26.13 10.7501 26.0664 10.7501 26.0001V15.0001C10.7501 14.8012 10.6711 14.6104 10.5304 14.4697C10.3898 14.3291 10.199 14.2501 10.0001 14.2501H5.81132L16.0001 4.06132L26.1888 14.2501H22.0001Z" fill="black"/>
</svg>
