<svg width="32" height="32" viewBox="0 0 32 32" fill="none" xmlns="http://www.w3.org/2000/svg">
<path d="M28.7501 24C28.7501 24.1989 28.6711 24.3896 28.5304 24.5303C28.3898 24.6709 28.199 24.75 28.0001 24.75H10.0001C9.80118 24.75 9.61041 24.6709 9.46976 24.5303C9.32911 24.3896 9.25009 24.1989 9.25009 24V7.8112L4.53009 12.53C4.38792 12.6624 4.19987 12.7346 4.00557 12.7311C3.81127 12.7277 3.62588 12.649 3.48847 12.5116C3.35106 12.3742 3.27234 12.1888 3.26892 11.9945C3.26549 11.8002 3.33761 11.6121 3.47009 11.47L9.47009 5.46995C9.61072 5.3295 9.80134 5.25061 10.0001 5.25061C10.1988 5.25061 10.3895 5.3295 10.5301 5.46995L16.5301 11.47C16.6038 11.5386 16.6629 11.6214 16.7039 11.7134C16.7449 11.8054 16.7669 11.9047 16.7687 12.0054C16.7705 12.1061 16.7519 12.2062 16.7142 12.2995C16.6765 12.3929 16.6203 12.4778 16.5491 12.549C16.4779 12.6202 16.3931 12.6764 16.2997 12.7141C16.2063 12.7518 16.1063 12.7703 16.0056 12.7685C15.9049 12.7668 15.8056 12.7447 15.7136 12.7037C15.6216 12.6627 15.5388 12.6036 15.4701 12.53L10.7501 7.8112V23.25H28.0001C28.199 23.25 28.3898 23.329 28.5304 23.4696C28.6711 23.6103 28.7501 23.801 28.7501 24Z" fill="black"/>
</svg>
