<svg width="32" height="32" viewBox="0 0 32 32" fill="none" xmlns="http://www.w3.org/2000/svg">
<path d="M29.0613 14.0612L23.0613 20.0612C22.7795 20.343 22.3973 20.5013 21.9988 20.5013C21.6002 20.5013 21.218 20.343 20.9363 20.0612C20.6545 19.7794 20.4961 19.3972 20.4961 18.9987C20.4961 18.6002 20.6545 18.218 20.9363 17.9362L25.875 13L20.9387 8.05998C20.657 7.77818 20.4986 7.39599 20.4986 6.99747C20.4986 6.59896 20.657 6.21677 20.9387 5.93497C21.2205 5.65318 21.6027 5.49487 22.0012 5.49487C22.3998 5.49487 22.782 5.65318 23.0637 5.93497L29.0637 11.935C29.2036 12.0745 29.3145 12.2403 29.3901 12.4228C29.4657 12.6054 29.5045 12.801 29.5043 12.9986C29.5041 13.1962 29.4648 13.3918 29.3888 13.5741C29.3127 13.7565 29.2014 13.922 29.0613 14.0612ZM22.0613 11.9362L16.0613 5.93622C15.9217 5.7967 15.7561 5.68601 15.5738 5.6105C15.3915 5.53499 15.1961 5.49612 14.9987 5.49612C14.8014 5.49612 14.606 5.53499 14.4237 5.6105C14.2414 5.68601 14.0758 5.79669 13.9362 5.93622C13.7967 6.07575 13.686 6.2414 13.6105 6.4237C13.535 6.60601 13.4961 6.8014 13.4961 6.99872C13.4961 7.19605 13.535 7.39144 13.6105 7.57375C13.686 7.75605 13.7967 7.92169 13.9362 8.06122L17.375 11.5H16C12.4208 11.5039 8.98932 12.9275 6.45844 15.4584C3.92756 17.9893 2.50397 21.4208 2.5 25C2.5 25.3978 2.65804 25.7793 2.93934 26.0606C3.22064 26.3419 3.60218 26.5 4 26.5C4.39782 26.5 4.77936 26.3419 5.06066 26.0606C5.34196 25.7793 5.5 25.3978 5.5 25C5.50298 22.2161 6.61018 19.5471 8.57867 17.5786C10.5472 15.6102 13.2161 14.503 16 14.5H17.375L13.935 17.9387C13.6532 18.2205 13.4949 18.6027 13.4949 19.0012C13.4949 19.3997 13.6532 19.7819 13.935 20.0637C14.2168 20.3455 14.599 20.5038 14.9975 20.5038C15.396 20.5038 15.7782 20.3455 16.06 20.0637L22.06 14.0637C22.1999 13.9245 22.311 13.7589 22.3868 13.5766C22.4626 13.3944 22.5017 13.1989 22.5018 13.0015C22.5019 12.8041 22.4631 12.6086 22.3875 12.4262C22.3119 12.2438 22.201 12.0782 22.0613 11.9387V11.9362Z" fill="black"/>
</svg>
