<svg width="32" height="32" viewBox="0 0 32 32" fill="none" xmlns="http://www.w3.org/2000/svg">
<path d="M25.5 9.99991V20.9999C25.5 22.989 24.7099 24.8967 23.3033 26.3032C21.8968 27.7097 19.9892 28.4999 18 28.4999C16.0109 28.4999 14.1033 27.7097 12.6967 26.3032C11.2902 24.8967 10.5 22.989 10.5 20.9999V5.20741L5.35378 10.3537C5.25996 10.4475 5.13272 10.5002 5.00003 10.5002C4.86735 10.5002 4.7401 10.4475 4.64628 10.3537C4.55246 10.2598 4.49976 10.1326 4.49976 9.99991C4.49976 9.86722 4.55246 9.73997 4.64628 9.64615L10.6463 3.64616C10.6927 3.59967 10.7479 3.56279 10.8086 3.53763C10.8693 3.51246 10.9343 3.49951 11 3.49951C11.0657 3.49951 11.1308 3.51246 11.1915 3.53763C11.2522 3.56279 11.3073 3.59967 11.3538 3.64616L17.3538 9.64615C17.4476 9.73997 17.5003 9.86722 17.5003 9.99991C17.5003 10.1326 17.4476 10.2598 17.3538 10.3537C17.26 10.4475 17.1327 10.5002 17 10.5002C16.8674 10.5002 16.7401 10.4475 16.6463 10.3537L11.5 5.20741V20.9999C11.5 22.7238 12.1849 24.3771 13.4038 25.5961C14.6228 26.8151 16.2761 27.4999 18 27.4999C19.7239 27.4999 21.3772 26.8151 22.5962 25.5961C23.8152 24.3771 24.5 22.7238 24.5 20.9999V9.99991C24.5 9.8673 24.5527 9.74012 24.6465 9.64635C24.7402 9.55258 24.8674 9.49991 25 9.49991C25.1326 9.49991 25.2598 9.55258 25.3536 9.64635C25.4474 9.74012 25.5 9.8673 25.5 9.99991Z" fill="black"/>
</svg>
