<svg width="32" height="32" viewBox="0 0 32 32" fill="none" xmlns="http://www.w3.org/2000/svg">
<path d="M28.7501 14C28.7478 16.0547 27.9305 18.0246 26.4776 19.4775C25.0247 20.9304 23.0548 21.7477 21.0001 21.75H5.81132L10.5301 26.47C10.6038 26.5387 10.6629 26.6215 10.7039 26.7135C10.7448 26.8055 10.7669 26.9048 10.7687 27.0055C10.7704 27.1062 10.7519 27.2062 10.7142 27.2996C10.6765 27.393 10.6203 27.4778 10.5491 27.549C10.4779 27.6203 10.3931 27.6764 10.2997 27.7141C10.2063 27.7518 10.1063 27.7704 10.0056 27.7686C9.90485 27.7668 9.80553 27.7448 9.71353 27.7038C9.62153 27.6628 9.53873 27.6037 9.47007 27.53L3.47007 21.53C3.32962 21.3894 3.25073 21.1988 3.25073 21C3.25073 20.8012 3.32962 20.6106 3.47007 20.47L9.47007 14.47C9.61225 14.3375 9.80029 14.2654 9.99459 14.2688C10.1889 14.2723 10.3743 14.351 10.5117 14.4884C10.6491 14.6258 10.7278 14.8112 10.7312 15.0055C10.7347 15.1998 10.6626 15.3878 10.5301 15.53L5.81132 20.25H21.0001C22.6577 20.25 24.2474 19.5915 25.4195 18.4194C26.5916 17.2473 27.2501 15.6576 27.2501 14C27.2501 12.3424 26.5916 10.7527 25.4195 9.58058C24.2474 8.40848 22.6577 7.75 21.0001 7.75H10.0001C9.80116 7.75 9.61039 7.67098 9.46974 7.53033C9.32909 7.38968 9.25007 7.19891 9.25007 7C9.25007 6.80109 9.32909 6.61032 9.46974 6.46967C9.61039 6.32902 9.80116 6.25 10.0001 6.25H21.0001C23.0548 6.25232 25.0247 7.06957 26.4776 8.52248C27.9305 9.97539 28.7478 11.9453 28.7501 14Z" fill="black"/>
</svg>
