<svg width="32" height="32" viewBox="0 0 32 32" fill="none" xmlns="http://www.w3.org/2000/svg">
<path d="M27.5 6V12C27.5 12.3978 27.342 12.7794 27.0607 13.0607C26.7794 13.342 26.3978 13.5 26 13.5C25.6022 13.5 25.2206 13.342 24.9393 13.0607C24.658 12.7794 24.5 12.3978 24.5 12V9.625L20.0613 14.065C19.7795 14.3468 19.3973 14.5051 18.9988 14.5051C18.6002 14.5051 18.218 14.3468 17.9363 14.065C17.6545 13.7832 17.4961 13.401 17.4961 13.0025C17.4961 12.604 17.6545 12.2218 17.9363 11.94L22.375 7.5H20C19.6022 7.5 19.2206 7.34196 18.9393 7.06066C18.658 6.77936 18.5 6.39782 18.5 6C18.5 5.60218 18.658 5.22064 18.9393 4.93934C19.2206 4.65804 19.6022 4.5 20 4.5H26C26.3978 4.5 26.7794 4.65804 27.0607 4.93934C27.342 5.22064 27.5 5.60218 27.5 6ZM11.9388 17.9387L7.5 22.375V20C7.5 19.6022 7.34196 19.2206 7.06066 18.9393C6.77936 18.658 6.39782 18.5 6 18.5C5.60218 18.5 5.22064 18.658 4.93934 18.9393C4.65804 19.2206 4.5 19.6022 4.5 20V26C4.5 26.3978 4.65804 26.7794 4.93934 27.0607C5.22064 27.342 5.60218 27.5 6 27.5H12C12.3978 27.5 12.7794 27.342 13.0607 27.0607C13.342 26.7794 13.5 26.3978 13.5 26C13.5 25.6022 13.342 25.2206 13.0607 24.9393C12.7794 24.658 12.3978 24.5 12 24.5H9.625L14.065 20.0613C14.3468 19.7795 14.5051 19.3973 14.5051 18.9988C14.5051 18.6002 14.3468 18.218 14.065 17.9363C13.7832 17.6545 13.401 17.4961 13.0025 17.4961C12.604 17.4961 12.2218 17.6545 11.94 17.9363L11.9388 17.9387ZM26 18.5C25.6022 18.5 25.2206 18.658 24.9393 18.9393C24.658 19.2206 24.5 19.6022 24.5 20V22.375L20.0613 17.935C19.7795 17.6532 19.3973 17.4949 18.9988 17.4949C18.6002 17.4949 18.218 17.6532 17.9363 17.935C17.6545 18.2168 17.4961 18.599 17.4961 18.9975C17.4961 19.396 17.6545 19.7782 17.9363 20.06L22.375 24.5H20C19.6022 24.5 19.2206 24.658 18.9393 24.9393C18.658 25.2206 18.5 25.6022 18.5 26C18.5 26.3978 18.658 26.7794 18.9393 27.0607C19.2206 27.342 19.6022 27.5 20 27.5H26C26.3978 27.5 26.7794 27.342 27.0607 27.0607C27.342 26.7794 27.5 26.3978 27.5 26V20C27.5 19.6022 27.342 19.2206 27.0607 18.9393C26.7794 18.658 26.3978 18.5 26 18.5ZM9.625 7.5H12C12.3978 7.5 12.7794 7.34196 13.0607 7.06066C13.342 6.77936 13.5 6.39782 13.5 6C13.5 5.60218 13.342 5.22064 13.0607 4.93934C12.7794 4.65804 12.3978 4.5 12 4.5H6C5.60218 4.5 5.22064 4.65804 4.93934 4.93934C4.65804 5.22064 4.5 5.60218 4.5 6V12C4.5 12.3978 4.65804 12.7794 4.93934 13.0607C5.22064 13.342 5.60218 13.5 6 13.5C6.39782 13.5 6.77936 13.342 7.06066 13.0607C7.34196 12.7794 7.5 12.3978 7.5 12V9.625L11.9388 14.065C12.2205 14.3468 12.6027 14.5051 13.0013 14.5051C13.3998 14.5051 13.782 14.3468 14.0638 14.065C14.3455 13.7832 14.5039 13.401 14.5039 13.0025C14.5039 12.604 14.3455 12.2218 14.0638 11.94L9.625 7.5Z" fill="black"/>
</svg>
