<svg width="32" height="32" viewBox="0 0 32 32" fill="none" xmlns="http://www.w3.org/2000/svg">
<path d="M26.4999 28C26.4999 28.3978 26.3419 28.7793 26.0606 29.0606C25.7793 29.342 25.3978 29.5 24.9999 29.5C21.4207 29.496 17.9893 28.0724 15.4584 25.5415C12.9275 23.0107 11.5039 19.5792 11.4999 16V7.62499L8.0612 11.0612C7.7794 11.343 7.39721 11.5013 6.9987 11.5013C6.60018 11.5013 6.21799 11.343 5.9362 11.0612C5.6544 10.7794 5.49609 10.3973 5.49609 9.99874C5.49609 9.60022 5.6544 9.21803 5.9362 8.93624L11.9362 2.93624C12.0756 2.7964 12.2411 2.68544 12.4235 2.60974C12.6058 2.53403 12.8013 2.49506 12.9987 2.49506C13.1961 2.49506 13.3916 2.53403 13.5739 2.60974C13.7563 2.68544 13.9218 2.7964 14.0612 2.93624L20.0612 8.93624C20.343 9.21803 20.5013 9.60022 20.5013 9.99874C20.5013 10.3973 20.343 10.7794 20.0612 11.0612C19.7794 11.343 19.3972 11.5013 18.9987 11.5013C18.6002 11.5013 18.218 11.343 17.9362 11.0612L14.4999 7.62499V16C14.5029 18.7838 15.6101 21.4528 17.5786 23.4213C19.5471 25.3898 22.2161 26.497 24.9999 26.5C25.3978 26.5 25.7793 26.658 26.0606 26.9393C26.3419 27.2206 26.4999 27.6022 26.4999 28Z" fill="black"/>
</svg>
