<svg width="32" height="32" viewBox="0 0 32 32" fill="none" xmlns="http://www.w3.org/2000/svg">
<path d="M26 3.5H6C5.33696 3.5 4.70107 3.76339 4.23223 4.23223C3.76339 4.70107 3.5 5.33696 3.5 6V26C3.5 26.663 3.76339 27.2989 4.23223 27.7678C4.70107 28.2366 5.33696 28.5 6 28.5H26C26.663 28.5 27.2989 28.2366 27.7678 27.7678C28.2366 27.2989 28.5 26.663 28.5 26V6C28.5 5.33696 28.2366 4.70107 27.7678 4.23223C27.2989 3.76339 26.663 3.5 26 3.5ZM25.5 25.5H6.5V6.5H25.5V25.5ZM9.5 16C9.5 15.6022 9.65804 15.2206 9.93934 14.9393C10.2206 14.658 10.6022 14.5 11 14.5H17.375L15.935 13.0612C15.7955 12.9217 15.6848 12.7561 15.6093 12.5738C15.5338 12.3915 15.4949 12.1961 15.4949 11.9987C15.4949 11.8014 15.5338 11.606 15.6093 11.4237C15.6848 11.2414 15.7955 11.0758 15.935 10.9362C16.0745 10.7967 16.2402 10.686 16.4225 10.6105C16.6048 10.535 16.8002 10.4961 16.9975 10.4961C17.1948 10.4961 17.3902 10.535 17.5725 10.6105C17.7548 10.686 17.9205 10.7967 18.06 10.9362L22.06 14.9362C22.1998 15.0756 22.3108 15.2412 22.3865 15.4235C22.4622 15.6058 22.5012 15.8013 22.5012 15.9987C22.5012 16.1962 22.4622 16.3917 22.3865 16.574C22.3108 16.7563 22.1998 16.9219 22.06 17.0613L18.06 21.0613C17.9205 21.2008 17.7548 21.3115 17.5725 21.387C17.3902 21.4625 17.1948 21.5014 16.9975 21.5014C16.8002 21.5014 16.6048 21.4625 16.4225 21.387C16.2402 21.3115 16.0745 21.2008 15.935 21.0613C15.7955 20.9217 15.6848 20.7561 15.6093 20.5738C15.5338 20.3915 15.4949 20.1961 15.4949 19.9988C15.4949 19.8014 15.5338 19.606 15.6093 19.4237C15.6848 19.2414 15.7955 19.0758 15.935 18.9363L17.375 17.5H11C10.6022 17.5 10.2206 17.342 9.93934 17.0607C9.65804 16.7794 9.5 16.3978 9.5 16Z" fill="black"/>
</svg>
