<svg width="32" height="32" viewBox="0 0 32 32" fill="none" xmlns="http://www.w3.org/2000/svg">
<path d="M28.5 27C28.5 27.3978 28.342 27.7794 28.0607 28.0607C27.7794 28.342 27.3978 28.5 27 28.5H5C4.60218 28.5 4.22064 28.342 3.93934 28.0607C3.65804 27.7794 3.5 27.3978 3.5 27C3.5 26.6022 3.65804 26.2206 3.93934 25.9393C4.22064 25.658 4.60218 25.5 5 25.5H27C27.3978 25.5 27.7794 25.658 28.0607 25.9393C28.342 26.2206 28.5 26.6022 28.5 27ZM10 22.5C10.197 22.5002 10.3922 22.4615 10.5743 22.3862C10.7564 22.3109 10.9218 22.2005 11.0612 22.0613L22.5 10.625V19C22.5 19.3978 22.658 19.7794 22.9393 20.0607C23.2206 20.342 23.6022 20.5 24 20.5C24.3978 20.5 24.7794 20.342 25.0607 20.0607C25.342 19.7794 25.5 19.3978 25.5 19V7C25.5 6.60218 25.342 6.22064 25.0607 5.93934C24.7794 5.65804 24.3978 5.5 24 5.5H12C11.6022 5.5 11.2206 5.65804 10.9393 5.93934C10.658 6.22064 10.5 6.60218 10.5 7C10.5 7.39782 10.658 7.77936 10.9393 8.06066C11.2206 8.34196 11.6022 8.5 12 8.5H20.375L8.93875 19.9387C8.72873 20.1485 8.58568 20.4159 8.52771 20.707C8.46973 20.9982 8.49944 21.2999 8.61307 21.5742C8.7267 21.8484 8.91914 22.0828 9.16603 22.2476C9.41292 22.4124 9.70316 22.5002 10 22.5Z" fill="black"/>
</svg>
