<svg width="32" height="32" viewBox="0 0 32 32" fill="none" xmlns="http://www.w3.org/2000/svg">
<path d="M10.5301 18.47C10.6038 18.5387 10.6629 18.6215 10.7039 18.7135C10.7448 18.8055 10.7669 18.9048 10.7687 19.0055C10.7704 19.1062 10.7519 19.2062 10.7142 19.2996C10.6765 19.393 10.6203 19.4778 10.5491 19.5491C10.4779 19.6203 10.3931 19.6764 10.2997 19.7142C10.2063 19.7519 10.1063 19.7704 10.0056 19.7686C9.90485 19.7668 9.80553 19.7448 9.71353 19.7038C9.62153 19.6628 9.53873 19.6037 9.47007 19.53L3.47007 13.53C3.32962 13.3894 3.25073 13.1988 3.25073 13C3.25073 12.8013 3.32962 12.6107 3.47007 12.47L9.47007 6.47003C9.61225 6.33755 9.80029 6.26543 9.99459 6.26885C10.1889 6.27228 10.3743 6.35099 10.5117 6.48841C10.6491 6.62582 10.7278 6.81121 10.7312 7.00551C10.7347 7.19981 10.6626 7.38785 10.5301 7.53003L5.06132 13L10.5301 18.47ZM16.0001 12.25H11.8113L16.5301 7.53003C16.6626 7.38785 16.7347 7.19981 16.7312 7.00551C16.7278 6.81121 16.6491 6.62582 16.5117 6.48841C16.3743 6.35099 16.1889 6.27228 15.9946 6.26885C15.8003 6.26543 15.6122 6.33755 15.4701 6.47003L9.47007 12.47C9.32962 12.6107 9.25073 12.8013 9.25073 13C9.25073 13.1988 9.32962 13.3894 9.47007 13.53L15.4701 19.53C15.6122 19.6625 15.8003 19.7346 15.9946 19.7312C16.1889 19.7278 16.3743 19.6491 16.5117 19.5117C16.6491 19.3742 16.7278 19.1889 16.7312 18.9946C16.7347 18.8003 16.6626 18.6122 16.5301 18.47L11.8113 13.75H16.0001C18.9827 13.7533 21.8423 14.9397 23.9514 17.0487C26.0604 19.1578 27.2468 22.0174 27.2501 25C27.2501 25.1989 27.3291 25.3897 27.4697 25.5304C27.6104 25.671 27.8012 25.75 28.0001 25.75C28.199 25.75 28.3898 25.671 28.5304 25.5304C28.6711 25.3897 28.7501 25.1989 28.7501 25C28.7461 21.6197 27.4015 18.379 25.0113 15.9888C22.6211 13.5986 19.3804 12.254 16.0001 12.25Z" fill="black"/>
</svg>
