<svg width="32" height="32" viewBox="0 0 32 32" fill="none" xmlns="http://www.w3.org/2000/svg">
<path d="M25.4999 11V24C25.4999 24.3978 25.3419 24.7793 25.0605 25.0606C24.7792 25.3419 24.3977 25.5 23.9999 25.5H10.9999C10.6021 25.5 10.2205 25.3419 9.93923 25.0606C9.65792 24.7793 9.49989 24.3978 9.49989 24C9.49989 23.6021 9.65792 23.2206 9.93923 22.9393C10.2205 22.658 10.6021 22.5 10.9999 22.5H20.3749L6.93864 9.05998C6.79911 8.92045 6.68843 8.7548 6.61291 8.5725C6.5374 8.39019 6.49854 8.1948 6.49854 7.99747C6.49854 7.59896 6.65684 7.21677 6.93864 6.93497C7.22043 6.65318 7.60262 6.49487 8.00114 6.49487C8.39965 6.49487 8.78184 6.65318 9.06364 6.93497L22.4999 20.375V11C22.4999 10.6021 22.6579 10.2206 22.9392 9.93931C23.2205 9.65801 23.6021 9.49997 23.9999 9.49997C24.3977 9.49997 24.7792 9.65801 25.0605 9.93931C25.3419 10.2206 25.4999 10.6021 25.4999 11Z" fill="black"/>
</svg>
