<svg width="32" height="32" viewBox="0 0 32 32" fill="none" xmlns="http://www.w3.org/2000/svg">
<path opacity="0.08" d="M16 20L10 26L4 20H16Z" fill="black"/>
<path d="M28.0001 7H10.0001C9.73484 7 9.48048 7.10536 9.29295 7.29289C9.10541 7.48043 9.00006 7.73478 9.00006 8V19H4.00006C3.80216 18.9998 3.60867 19.0584 3.44407 19.1683C3.27948 19.2782 3.15119 19.4344 3.07543 19.6172C2.99968 19.8 2.97988 20.0012 3.01853 20.1953C3.05718 20.3894 3.15254 20.5676 3.29256 20.7075L9.29255 26.7075C9.38543 26.8005 9.49572 26.8742 9.61712 26.9246C9.73851 26.9749 9.86864 27.0008 10.0001 27.0008C10.1315 27.0008 10.2616 26.9749 10.383 26.9246C10.5044 26.8742 10.6147 26.8005 10.7076 26.7075L16.7076 20.7075C16.8476 20.5676 16.9429 20.3894 16.9816 20.1953C17.0202 20.0012 17.0004 19.8 16.9247 19.6172C16.8489 19.4344 16.7206 19.2782 16.556 19.1683C16.3914 19.0584 16.198 18.9998 16.0001 19H11.0001V9H28.0001C28.2653 9 28.5196 8.89464 28.7072 8.70711C28.8947 8.51957 29.0001 8.26522 29.0001 8C29.0001 7.73478 28.8947 7.48043 28.7072 7.29289C28.5196 7.10536 28.2653 7 28.0001 7ZM10.0001 24.5863L6.41381 21H13.5863L10.0001 24.5863Z" fill="black"/>
</svg>
