<svg width="32" height="32" viewBox="0 0 32 32" fill="none" xmlns="http://www.w3.org/2000/svg">
<path d="M13.0001 16C13.0001 16.2652 12.8947 16.5196 12.7072 16.7071C12.5196 16.8946 12.2653 17 12.0001 17H7.00005V20C7.00021 20.1979 6.94165 20.3914 6.83177 20.556C6.7219 20.7206 6.56567 20.8489 6.38284 20.9246C6.20002 21.0004 5.99883 21.0202 5.80475 20.9815C5.61066 20.9429 5.43241 20.8475 5.29255 20.7075L1.29255 16.7075C1.19958 16.6146 1.12582 16.5043 1.07549 16.3829C1.02517 16.2615 0.999268 16.1314 0.999268 16C0.999268 15.8686 1.02517 15.7385 1.07549 15.6171C1.12582 15.4957 1.19958 15.3854 1.29255 15.2925L5.29255 11.2925C5.43241 11.1525 5.61066 11.0571 5.80475 11.0185C5.99883 10.9798 6.20002 10.9996 6.38284 11.0754C6.56567 11.1511 6.7219 11.2794 6.83177 11.444C6.94165 11.6086 7.00021 11.8021 7.00005 12V15H12.0001C12.2653 15 12.5196 15.1054 12.7072 15.2929C12.8947 15.4804 13.0001 15.7348 13.0001 16ZM30.7076 15.2925L26.7076 11.2925C26.5677 11.1525 26.3894 11.0571 26.1954 11.0185C26.0013 10.9798 25.8001 10.9996 25.6173 11.0754C25.4344 11.1511 25.2782 11.2794 25.1683 11.444C25.0585 11.6086 24.9999 11.8021 25.0001 12V15H20.0001C19.7348 15 19.4805 15.1054 19.2929 15.2929C19.1054 15.4804 19.0001 15.7348 19.0001 16C19.0001 16.2652 19.1054 16.5196 19.2929 16.7071C19.4805 16.8946 19.7348 17 20.0001 17H25.0001V20C24.9999 20.1979 25.0585 20.3914 25.1683 20.556C25.2782 20.7206 25.4344 20.8489 25.6173 20.9246C25.8001 21.0004 26.0013 21.0202 26.1954 20.9815C26.3894 20.9429 26.5677 20.8475 26.7076 20.7075L30.7076 16.7075C30.8005 16.6146 30.8743 16.5043 30.9246 16.3829C30.9749 16.2615 31.0008 16.1314 31.0008 16C31.0008 15.8686 30.9749 15.7385 30.9246 15.6171C30.8743 15.4957 30.8005 15.3854 30.7076 15.2925ZM16.0001 4C15.7348 4 15.4805 4.10536 15.2929 4.29289C15.1054 4.48043 15.0001 4.73478 15.0001 5V27C15.0001 27.2652 15.1054 27.5196 15.2929 27.7071C15.4805 27.8946 15.7348 28 16.0001 28C16.2653 28 16.5196 27.8946 16.7072 27.7071C16.8947 27.5196 17.0001 27.2652 17.0001 27V5C17.0001 4.73478 16.8947 4.48043 16.7072 4.29289C16.5196 4.10536 16.2653 4 16.0001 4Z" fill="black"/>
</svg>
