<svg width="32" height="32" viewBox="0 0 32 32" fill="none" xmlns="http://www.w3.org/2000/svg">
<path d="M26.0001 28C26.0001 28.2652 25.8947 28.5196 25.7072 28.7071C25.5196 28.8946 25.2653 29 25.0001 29C21.5534 28.9964 18.2489 27.6255 15.8117 25.1884C13.3745 22.7512 12.0037 19.4467 12.0001 16V11H7.00006C6.80216 11.0001 6.60867 10.9416 6.44407 10.8317C6.27948 10.7218 6.15119 10.5656 6.07543 10.3828C5.99968 10.2 5.97988 9.99877 6.01853 9.80469C6.05718 9.6106 6.15254 9.43235 6.29256 9.29249L12.2926 3.29249C12.3854 3.19952 12.4957 3.12576 12.6171 3.07543C12.7385 3.02511 12.8686 2.99921 13.0001 2.99921C13.1315 2.99921 13.2616 3.02511 13.383 3.07543C13.5044 3.12576 13.6147 3.19952 13.7076 3.29249L19.7076 9.29249C19.8476 9.43235 19.9429 9.6106 19.9816 9.80469C20.0202 9.99877 20.0004 10.2 19.9247 10.3828C19.8489 10.5656 19.7206 10.7218 19.556 10.8317C19.3914 10.9416 19.198 11.0001 19.0001 11H14.0001V16C14.0034 18.9164 15.1634 21.7123 17.2255 23.7745C19.2877 25.8367 22.0837 26.9967 25.0001 27C25.2653 27 25.5196 27.1053 25.7072 27.2929C25.8947 27.4804 26.0001 27.7348 26.0001 28Z" fill="black"/>
</svg>
