<svg width="32" height="32" viewBox="0 0 32 32" fill="none" xmlns="http://www.w3.org/2000/svg">
<path d="M16.7501 5V27C16.7501 27.1989 16.6711 27.3897 16.5304 27.5303C16.3898 27.671 16.199 27.75 16.0001 27.75C15.8012 27.75 15.6104 27.671 15.4697 27.5303C15.3291 27.3897 15.2501 27.1989 15.2501 27V5C15.2501 4.80109 15.3291 4.61032 15.4697 4.46967C15.6104 4.32902 15.8012 4.25 16.0001 4.25C16.199 4.25 16.3898 4.32902 16.5304 4.46967C16.6711 4.61032 16.7501 4.80109 16.7501 5ZM12.0001 15.25H3.81132L6.53007 12.53C6.66255 12.3878 6.73468 12.1998 6.73125 12.0055C6.72782 11.8112 6.64911 11.6258 6.51169 11.4884C6.37428 11.351 6.1889 11.2723 5.9946 11.2688C5.80029 11.2654 5.61225 11.3375 5.47007 11.47L1.47007 15.47C1.32962 15.6106 1.25073 15.8012 1.25073 16C1.25073 16.1988 1.32962 16.3894 1.47007 16.53L5.47007 20.53C5.61225 20.6625 5.80029 20.7346 5.9946 20.7312C6.1889 20.7277 6.37428 20.649 6.51169 20.5116C6.64911 20.3742 6.72782 20.1888 6.73125 19.9945C6.73468 19.8002 6.66255 19.6122 6.53007 19.47L3.81132 16.75H12.0001C12.199 16.75 12.3897 16.671 12.5304 16.5303C12.6711 16.3897 12.7501 16.1989 12.7501 16C12.7501 15.8011 12.6711 15.6103 12.5304 15.4697C12.3897 15.329 12.199 15.25 12.0001 15.25ZM30.5301 15.47L26.5301 11.47C26.3879 11.3375 26.1999 11.2654 26.0056 11.2688C25.8112 11.2723 25.6259 11.351 25.4885 11.4884C25.351 11.6258 25.2723 11.8112 25.2689 12.0055C25.2655 12.1998 25.3376 12.3878 25.4701 12.53L28.1888 15.25H20.0001C19.8012 15.25 19.6104 15.329 19.4697 15.4697C19.3291 15.6103 19.2501 15.8011 19.2501 16C19.2501 16.1989 19.3291 16.3897 19.4697 16.5303C19.6104 16.671 19.8012 16.75 20.0001 16.75H28.1888L25.4701 19.47C25.3964 19.5387 25.3373 19.6215 25.2963 19.7135C25.2553 19.8055 25.2333 19.9048 25.2315 20.0055C25.2297 20.1062 25.2482 20.2062 25.2859 20.2996C25.3237 20.393 25.3798 20.4778 25.451 20.549C25.5223 20.6203 25.6071 20.6764 25.7005 20.7141C25.7939 20.7518 25.8939 20.7704 25.9946 20.7686C26.0953 20.7668 26.1946 20.7448 26.2866 20.7038C26.3786 20.6628 26.4614 20.6037 26.5301 20.53L30.5301 16.53C30.6705 16.3894 30.7494 16.1988 30.7494 16C30.7494 15.8012 30.6705 15.6106 30.5301 15.47Z" fill="black"/>
</svg>
