<svg width="32" height="32" viewBox="0 0 32 32" fill="none" xmlns="http://www.w3.org/2000/svg">
<path d="M26.0612 19.0613L17.0612 28.0613C16.9218 28.2011 16.7563 28.312 16.5739 28.3878C16.3916 28.4635 16.1961 28.5024 15.9987 28.5024C15.8013 28.5024 15.6058 28.4635 15.4235 28.3878C15.2411 28.312 15.0756 28.2011 14.9362 28.0613L5.9362 19.0613C5.6544 18.7795 5.49609 18.3973 5.49609 17.9988C5.49609 17.6002 5.6544 17.218 5.9362 16.9363C6.21799 16.6545 6.60018 16.4961 6.9987 16.4961C7.39721 16.4961 7.7794 16.6545 8.0612 16.9363L14.4999 23.375V5C14.4999 4.60218 14.658 4.22064 14.9393 3.93934C15.2206 3.65804 15.6021 3.5 15.9999 3.5C16.3978 3.5 16.7793 3.65804 17.0606 3.93934C17.3419 4.22064 17.4999 4.60218 17.4999 5V23.375L23.9387 16.935C24.2205 16.6532 24.6027 16.4949 25.0012 16.4949C25.3997 16.4949 25.7819 16.6532 26.0637 16.935C26.3455 17.2168 26.5038 17.599 26.5038 17.9975C26.5038 18.396 26.3455 18.7782 26.0637 19.06L26.0612 19.0613Z" fill="black"/>
</svg>
