<svg width="32" height="32" viewBox="0 0 32 32" fill="none" xmlns="http://www.w3.org/2000/svg">
<path d="M29.7076 16.7076L25.7076 20.7076C25.5677 20.8476 25.3894 20.9429 25.1954 20.9816C25.0013 21.0202 24.8001 21.0004 24.6173 20.9247C24.4344 20.8489 24.2782 20.7206 24.1683 20.556C24.0585 20.3914 23.9999 20.198 24.0001 20.0001V17.0001H8.00005V20.0001C8.00021 20.198 7.94165 20.3914 7.83177 20.556C7.7219 20.7206 7.56567 20.8489 7.38284 20.9247C7.20002 21.0004 6.99883 21.0202 6.80475 20.9816C6.61066 20.9429 6.43241 20.8476 6.29255 20.7076L2.29255 16.7076C2.19958 16.6147 2.12582 16.5044 2.07549 16.383C2.02517 16.2616 1.99927 16.1315 1.99927 16.0001C1.99927 15.8686 2.02517 15.7385 2.07549 15.6171C2.12582 15.4957 2.19958 15.3854 2.29255 15.2926L6.29255 11.2926C6.43241 11.1525 6.61066 11.0572 6.80475 11.0185C6.99883 10.9799 7.20002 10.9997 7.38284 11.0754C7.56567 11.1512 7.7219 11.2795 7.83177 11.4441C7.94165 11.6087 8.00021 11.8022 8.00005 12.0001V15.0001H24.0001V12.0001C23.9999 11.8022 24.0585 11.6087 24.1683 11.4441C24.2782 11.2795 24.4344 11.1512 24.6173 11.0754C24.8001 10.9997 25.0013 10.9799 25.1954 11.0185C25.3894 11.0572 25.5677 11.1525 25.7076 11.2926L29.7076 15.2926C29.8005 15.3854 29.8743 15.4957 29.9246 15.6171C29.9749 15.7385 30.0008 15.8686 30.0008 16.0001C30.0008 16.1315 29.9749 16.2616 29.9246 16.383C29.8743 16.5044 29.8005 16.6147 29.7076 16.7076Z" fill="black"/>
</svg>
