<svg width="32" height="32" viewBox="0 0 32 32" fill="none" xmlns="http://www.w3.org/2000/svg">
<path opacity="0.08" d="M17 10H5L11 4L17 10Z" fill="black"/>
<path d="M25.0001 9.00005C24.7348 9.00005 24.4805 9.10541 24.2929 9.29295C24.1054 9.48048 24.0001 9.73484 24.0001 10.0001V21.0001C24.0001 22.5914 23.3679 24.1175 22.2427 25.2427C21.1175 26.3679 19.5914 27.0001 18.0001 27.0001C16.4088 27.0001 14.8826 26.3679 13.7574 25.2427C12.6322 24.1175 12.0001 22.5914 12.0001 21.0001V11.0001H17.0001C17.198 11.0002 17.3914 10.9416 17.556 10.8318C17.7206 10.7219 17.8489 10.5657 17.9247 10.3828C18.0004 10.2 18.0202 9.99883 17.9816 9.80475C17.9429 9.61066 17.8476 9.43241 17.7076 9.29255L11.7076 3.29255C11.6147 3.19958 11.5044 3.12582 11.383 3.07549C11.2616 3.02517 11.1315 2.99927 11.0001 2.99927C10.8686 2.99927 10.7385 3.02517 10.6171 3.07549C10.4957 3.12582 10.3854 3.19958 10.2926 3.29255L4.29256 9.29255C4.15254 9.43241 4.05718 9.61066 4.01853 9.80475C3.97988 9.99883 3.99968 10.2 4.07543 10.3828C4.15119 10.5657 4.27948 10.7219 4.44407 10.8318C4.60867 10.9416 4.80216 11.0002 5.00006 11.0001H10.0001V21.0001C10.0001 23.1218 10.8429 25.1566 12.3432 26.6569C13.8435 28.1572 15.8783 29.0001 18.0001 29.0001C20.1218 29.0001 22.1566 28.1572 23.6569 26.6569C25.1572 25.1566 26.0001 23.1218 26.0001 21.0001V10.0001C26.0001 9.73484 25.8947 9.48048 25.7072 9.29295C25.5196 9.10541 25.2653 9.00005 25.0001 9.00005ZM11.0001 5.4138L14.5863 9.00005H7.41381L11.0001 5.4138Z" fill="black"/>
</svg>
