<svg width="32" height="32" viewBox="0 0 32 32" fill="none" xmlns="http://www.w3.org/2000/svg">
<path d="M20.9238 24.6173C20.9996 24.8 21.0195 25.0011 20.981 25.1951C20.9425 25.3891 20.8474 25.5674 20.7076 25.7073L16.7076 29.7073C16.6147 29.8003 16.5044 29.874 16.383 29.9244C16.2616 29.9747 16.1315 30.0006 16.0001 30.0006C15.8686 30.0006 15.7385 29.9747 15.6171 29.9244C15.4957 29.874 15.3854 29.8003 15.2926 29.7073L11.2926 25.7073C11.1525 25.5675 11.0572 25.3892 11.0185 25.1951C10.9799 25.001 10.9997 24.7998 11.0754 24.617C11.1512 24.4342 11.2795 24.278 11.4441 24.1681C11.6087 24.0582 11.8022 23.9997 12.0001 23.9998H15.0001V7.99981H12.0001C11.8022 7.99997 11.6087 7.9414 11.4441 7.83153C11.2795 7.72166 11.1512 7.56542 11.0754 7.3826C10.9997 7.19978 10.9799 6.99859 11.0185 6.8045C11.0572 6.61042 11.1525 6.43217 11.2926 6.29231L15.2926 2.29231C15.3854 2.19933 15.4957 2.12557 15.6171 2.07525C15.7385 2.02493 15.8686 1.99902 16.0001 1.99902C16.1315 1.99902 16.2616 2.02493 16.383 2.07525C16.5044 2.12557 16.6147 2.19933 16.7076 2.29231L20.7076 6.29231C20.8476 6.43217 20.9429 6.61042 20.9816 6.8045C21.0202 6.99859 21.0004 7.19978 20.9247 7.3826C20.8489 7.56542 20.7206 7.72166 20.556 7.83153C20.3914 7.9414 20.198 7.99997 20.0001 7.99981H17.0001V23.9998H20.0001C20.1978 23.9998 20.3912 24.0585 20.5556 24.1685C20.72 24.2784 20.8482 24.4346 20.9238 24.6173Z" fill="black"/>
</svg>
