<svg width="32" height="32" viewBox="0 0 32 32" fill="none" xmlns="http://www.w3.org/2000/svg">
<path d="M30.0612 17.0612L26.0612 21.0612C25.7794 21.343 25.3972 21.5013 24.9987 21.5013C24.6002 21.5013 24.218 21.343 23.9362 21.0612C23.6544 20.7794 23.4961 20.3972 23.4961 19.9987C23.4961 19.6002 23.6544 19.218 23.9362 18.9362L25.375 17.4999H6.62496L8.06496 18.9387C8.34675 19.2205 8.50506 19.6027 8.50506 20.0012C8.50506 20.3997 8.34675 20.7819 8.06496 21.0637C7.78317 21.3455 7.40098 21.5038 7.00246 21.5038C6.60395 21.5038 6.22176 21.3455 5.93996 21.0637L1.93996 17.0637C1.80012 16.9243 1.68917 16.7588 1.61346 16.5764C1.53775 16.3941 1.49878 16.1986 1.49878 16.0012C1.49878 15.8038 1.53775 15.6083 1.61346 15.426C1.68917 15.2436 1.80012 15.0781 1.93996 14.9387L5.93996 10.9387C6.22176 10.6569 6.60395 10.4986 7.00246 10.4986C7.19979 10.4986 7.39518 10.5375 7.57748 10.613C7.75979 10.6885 7.92543 10.7992 8.06496 10.9387C8.20449 11.0782 8.31517 11.2439 8.39069 11.4262C8.4662 11.6085 8.50506 11.8039 8.50506 12.0012C8.50506 12.1985 8.4662 12.3939 8.39069 12.5762C8.31517 12.7585 8.20449 12.9242 8.06496 13.0637L6.62496 14.4999H25.375L23.935 13.0612C23.7954 12.9217 23.6848 12.756 23.6092 12.5737C23.5337 12.3914 23.4949 12.196 23.4949 11.9987C23.4949 11.8014 23.5337 11.606 23.6092 11.4237C23.6848 11.2414 23.7954 11.0757 23.935 10.9362C24.2168 10.6544 24.5989 10.4961 24.9975 10.4961C25.1948 10.4961 25.3902 10.535 25.5725 10.6105C25.7548 10.686 25.9204 10.7967 26.06 10.9362L30.06 14.9362C30.1999 15.0755 30.3109 15.241 30.3868 15.4233C30.4626 15.6056 30.5017 15.801 30.5018 15.9984C30.5019 16.1959 30.463 16.3914 30.3874 16.5737C30.3118 16.7561 30.201 16.9218 30.0612 17.0612Z" fill="black"/>
</svg>
