<svg width="32" height="32" viewBox="0 0 32 32" fill="none" xmlns="http://www.w3.org/2000/svg">
<path d="M21.0612 23.9388C21.201 24.0782 21.312 24.2437 21.3877 24.4261C21.4634 24.6084 21.5024 24.8039 21.5024 25.0013C21.5024 25.1987 21.4634 25.3942 21.3877 25.5765C21.312 25.7589 21.201 25.9244 21.0612 26.0638L17.0612 30.0638C16.9218 30.2036 16.7563 30.3146 16.5739 30.3903C16.3916 30.466 16.1961 30.505 15.9987 30.505C15.8013 30.505 15.6058 30.466 15.4235 30.3903C15.2411 30.3146 15.0756 30.2036 14.9362 30.0638L10.9362 26.0638C10.6544 25.782 10.4961 25.3998 10.4961 25.0013C10.4961 24.6028 10.6544 24.2206 10.9362 23.9388C11.218 23.657 11.6002 23.4987 11.9987 23.4987C12.3972 23.4987 12.7794 23.657 13.0612 23.9388L14.4999 25.375V6.62505L13.0612 8.0613C12.9217 8.20083 12.756 8.31151 12.5737 8.38702C12.3914 8.46254 12.196 8.5014 11.9987 8.5014C11.6002 8.5014 11.218 8.34309 10.9362 8.0613C10.7967 7.92177 10.686 7.75612 10.6105 7.57382C10.535 7.39152 10.4961 7.19612 10.4961 6.9988C10.4961 6.60029 10.6544 6.21809 10.9362 5.9363L14.9362 1.9363C15.0756 1.79646 15.2411 1.6855 15.4235 1.6098C15.6058 1.53409 15.8013 1.49512 15.9987 1.49512C16.1961 1.49512 16.3916 1.53409 16.5739 1.6098C16.7563 1.6855 16.9218 1.79646 17.0612 1.9363L21.0612 5.9363C21.343 6.21809 21.5013 6.60029 21.5013 6.9988C21.5013 7.39732 21.343 7.77951 21.0612 8.0613C20.7794 8.34309 20.3972 8.5014 19.9987 8.5014C19.6002 8.5014 19.218 8.34309 18.9362 8.0613L17.4999 6.62505V25.375L18.9387 23.935C19.0783 23.7958 19.2439 23.6855 19.4261 23.6103C19.6083 23.5352 19.8036 23.4966 20.0007 23.497C20.1978 23.4973 20.393 23.5365 20.5749 23.6123C20.7569 23.6882 20.9221 23.7991 21.0612 23.9388Z" fill="black"/>
</svg>
