<svg width="32" height="32" viewBox="0 0 32 32" fill="none" xmlns="http://www.w3.org/2000/svg">
<path d="M29.0601 13.9387L17.0601 1.93874C16.9207 1.7989 16.7551 1.68795 16.5728 1.61224C16.3905 1.53653 16.195 1.49756 15.9976 1.49756C15.8001 1.49756 15.6047 1.53653 15.4223 1.61224C15.24 1.68795 15.0744 1.7989 14.9351 1.93874L2.93506 13.9387C2.72481 14.1488 2.58168 14.4165 2.52382 14.708C2.46597 14.9994 2.49599 15.3015 2.61008 15.5759C2.72418 15.8503 2.9172 16.0846 3.16467 16.2491C3.41214 16.4137 3.70289 16.501 4.00006 16.5H8.50006V22C8.50006 22.3978 8.65809 22.7793 8.9394 23.0606C9.2207 23.342 9.60223 23.5 10.0001 23.5H22.0001C22.3979 23.5 22.7794 23.342 23.0607 23.0606C23.342 22.7793 23.5001 22.3978 23.5001 22V16.5H28.0001C28.2968 16.5 28.5869 16.412 28.8336 16.2471C29.0803 16.0821 29.2725 15.8478 29.386 15.5736C29.4995 15.2994 29.5291 14.9977 29.471 14.7067C29.413 14.4157 29.27 14.1484 29.0601 13.9387ZM22.0001 13.5C21.6022 13.5 21.2207 13.658 20.9394 13.9393C20.6581 14.2206 20.5001 14.6022 20.5001 15V20.5H11.5001V15C11.5001 14.6022 11.342 14.2206 11.0607 13.9393C10.7794 13.658 10.3979 13.5 10.0001 13.5H7.62506L16.0001 5.12499L24.3751 13.5H22.0001ZM23.5001 27C23.5001 27.3978 23.342 27.7793 23.0607 28.0606C22.7794 28.342 22.3979 28.5 22.0001 28.5H10.0001C9.60223 28.5 9.2207 28.342 8.9394 28.0606C8.65809 27.7793 8.50006 27.3978 8.50006 27C8.50006 26.6022 8.65809 26.2206 8.9394 25.9393C9.2207 25.658 9.60223 25.5 10.0001 25.5H22.0001C22.3979 25.5 22.7794 25.658 23.0607 25.9393C23.342 26.2206 23.5001 26.6022 23.5001 27Z" fill="black"/>
</svg>
