<svg width="32" height="32" viewBox="0 0 32 32" fill="none" xmlns="http://www.w3.org/2000/svg">
<path d="M24.5 11V24C24.5 24.1326 24.4474 24.2598 24.3536 24.3536C24.2598 24.4474 24.1326 24.5 24 24.5H11C10.8674 24.5 10.7402 24.4474 10.6465 24.3536C10.5527 24.2598 10.5 24.1326 10.5 24C10.5 23.8674 10.5527 23.7402 10.6465 23.6465C10.7402 23.5527 10.8674 23.5 11 23.5H22.7925L7.64628 8.35378C7.55246 8.25996 7.49976 8.13272 7.49976 8.00003C7.49976 7.86735 7.55246 7.7401 7.64628 7.64628C7.7401 7.55246 7.86735 7.49976 8.00003 7.49976C8.13272 7.49976 8.25996 7.55246 8.35378 7.64628L23.5 22.7925V11C23.5 10.8674 23.5527 10.7402 23.6465 10.6465C23.7402 10.5527 23.8674 10.5 24 10.5C24.1326 10.5 24.2598 10.5527 24.3536 10.6465C24.4474 10.7402 24.5 10.8674 24.5 11Z" fill="black"/>
</svg>
