<svg width="32" height="32" viewBox="0 0 32 32" fill="none" xmlns="http://www.w3.org/2000/svg">
<path d="M29.0001 8C29.0001 8.26522 28.8947 8.51957 28.7072 8.70711C28.5196 8.89464 28.2653 9 28.0001 9H11.0001V19H16.0001C16.198 18.9998 16.3914 19.0584 16.556 19.1683C16.7206 19.2782 16.8489 19.4344 16.9247 19.6172C17.0004 19.8 17.0202 20.0012 16.9816 20.1953C16.9429 20.3894 16.8476 20.5676 16.7076 20.7075L10.7076 26.7075C10.6147 26.8005 10.5044 26.8742 10.383 26.9246C10.2616 26.9749 10.1315 27.0008 10.0001 27.0008C9.86864 27.0008 9.73851 26.9749 9.61712 26.9246C9.49572 26.8742 9.38543 26.8005 9.29255 26.7075L3.29256 20.7075C3.15254 20.5676 3.05718 20.3894 3.01853 20.1953C2.97988 20.0012 2.99968 19.8 3.07543 19.6172C3.15119 19.4344 3.27948 19.2782 3.44407 19.1683C3.60867 19.0584 3.80216 18.9998 4.00006 19H9.00006V8C9.00006 7.73478 9.10541 7.48043 9.29295 7.29289C9.48048 7.10536 9.73484 7 10.0001 7H28.0001C28.2653 7 28.5196 7.10536 28.7072 7.29289C28.8947 7.48043 29.0001 7.73478 29.0001 8Z" fill="black"/>
</svg>
