<svg width="32" height="32" viewBox="0 0 32 32" fill="none" xmlns="http://www.w3.org/2000/svg">
<path opacity="0.08" d="M20 7H12L16 3L20 7ZM16 29L20 25H12L16 29Z" fill="black"/>
<path d="M20.0001 23.9998H17.0001V7.99981H20.0001C20.198 7.99997 20.3914 7.9414 20.556 7.83153C20.7206 7.72166 20.8489 7.56542 20.9247 7.3826C21.0004 7.19978 21.0202 6.99859 20.9816 6.8045C20.9429 6.61042 20.8476 6.43217 20.7076 6.29231L16.7076 2.29231C16.6147 2.19933 16.5044 2.12557 16.383 2.07525C16.2616 2.02493 16.1315 1.99902 16.0001 1.99902C15.8686 1.99902 15.7385 2.02493 15.6171 2.07525C15.4957 2.12557 15.3854 2.19933 15.2926 2.29231L11.2926 6.29231C11.1525 6.43217 11.0572 6.61042 11.0185 6.8045C10.9799 6.99859 10.9997 7.19978 11.0754 7.3826C11.1512 7.56542 11.2795 7.72166 11.4441 7.83153C11.6087 7.9414 11.8022 7.99997 12.0001 7.99981H15.0001V23.9998H12.0001C11.8022 23.9997 11.6087 24.0582 11.4441 24.1681C11.2795 24.278 11.1512 24.4342 11.0754 24.617C10.9997 24.7998 10.9799 25.001 11.0185 25.1951C11.0572 25.3892 11.1525 25.5675 11.2926 25.7073L15.2926 29.7073C15.3854 29.8003 15.4957 29.874 15.6171 29.9244C15.7385 29.9747 15.8686 30.0006 16.0001 30.0006C16.1315 30.0006 16.2616 29.9747 16.383 29.9244C16.5044 29.874 16.6147 29.8003 16.7076 29.7073L20.7076 25.7073C20.8476 25.5675 20.9429 25.3892 20.9816 25.1951C21.0202 25.001 21.0004 24.7998 20.9247 24.617C20.8489 24.4342 20.7206 24.278 20.556 24.1681C20.3914 24.0582 20.198 23.9997 20.0001 23.9998ZM16.0001 4.41356L17.5863 5.99981H14.4138L16.0001 4.41356ZM16.0001 27.5861L14.4138 25.9998H17.5863L16.0001 27.5861Z" fill="black"/>
</svg>
