<svg width="32" height="32" viewBox="0 0 32 32" fill="none" xmlns="http://www.w3.org/2000/svg">
<path d="M29.0001 14C28.9977 16.121 28.1541 18.1545 26.6544 19.6543C25.1546 21.1541 23.1211 21.9977 21.0001 22H11.0001V27C11.0002 27.1979 10.9416 27.3914 10.8318 27.556C10.7219 27.7206 10.5657 27.8489 10.3828 27.9246C10.2 28.0004 9.99883 28.0202 9.80475 27.9815C9.61066 27.9429 9.43241 27.8475 9.29255 27.7075L3.29255 21.7075C3.19958 21.6146 3.12582 21.5043 3.07549 21.3829C3.02517 21.2615 2.99927 21.1314 2.99927 21C2.99927 20.8686 3.02517 20.7385 3.07549 20.6171C3.12582 20.4957 3.19958 20.3854 3.29255 20.2925L9.29255 14.2925C9.43241 14.1525 9.61066 14.0571 9.80475 14.0185C9.99883 13.9798 10.2 13.9996 10.3828 14.0754C10.5657 14.1511 10.7219 14.2794 10.8318 14.444C10.9416 14.6086 11.0002 14.8021 11.0001 15V20H21.0001C22.5914 20 24.1175 19.3679 25.2427 18.2426C26.3679 17.1174 27.0001 15.5913 27.0001 14C27.0001 12.4087 26.3679 10.8826 25.2427 9.75736C24.1175 8.63214 22.5914 8 21.0001 8H10.0001C9.73484 8 9.48048 7.89464 9.29295 7.70711C9.10541 7.51957 9.00005 7.26522 9.00005 7C9.00005 6.73478 9.10541 6.48043 9.29295 6.29289C9.48048 6.10536 9.73484 6 10.0001 6H21.0001C23.1211 6.00232 25.1546 6.84591 26.6544 8.3457C28.1541 9.84549 28.9977 11.879 29.0001 14Z" fill="black"/>
</svg>
