<svg width="32" height="32" viewBox="0 0 32 32" fill="none" xmlns="http://www.w3.org/2000/svg">
<path opacity="0.08" d="M4 23H12L8 27L4 23ZM20 23L24 27L28 23H20Z" fill="black"/>
<path d="M28.9238 22.6175C28.8482 22.4348 28.72 22.2786 28.5556 22.1686C28.3912 22.0587 28.1978 22 28.0001 22H25.0001V17C25.0002 16.8686 24.9744 16.7385 24.9242 16.6171C24.874 16.4958 24.8004 16.3854 24.7076 16.2925L17.0001 8.58625V3C17.0001 2.73478 16.8947 2.48043 16.7072 2.29289C16.5196 2.10536 16.2653 2 16.0001 2C15.7348 2 15.4805 2.10536 15.2929 2.29289C15.1054 2.48043 15.0001 2.73478 15.0001 3V8.58625L7.29256 16.2925C7.19972 16.3854 7.12611 16.4958 7.07592 16.6171C7.02573 16.7385 6.99995 16.8686 7.00006 17V22H4.00006C3.80216 21.9998 3.60867 22.0584 3.44407 22.1683C3.27948 22.2782 3.15119 22.4344 3.07543 22.6172C2.99968 22.8 2.97988 23.0012 3.01853 23.1953C3.05718 23.3894 3.15254 23.5676 3.29256 23.7075L7.29256 27.7075C7.38543 27.8005 7.49572 27.8742 7.61712 27.9246C7.73851 27.9749 7.86864 28.0008 8.00006 28.0008C8.13147 28.0008 8.2616 27.9749 8.383 27.9246C8.50439 27.8742 8.61468 27.8005 8.70756 27.7075L12.7076 23.7075C12.8476 23.5676 12.9429 23.3894 12.9816 23.1953C13.0202 23.0012 13.0004 22.8 12.9247 22.6172C12.8489 22.4344 12.7206 22.2782 12.556 22.1683C12.3914 22.0584 12.198 21.9998 12.0001 22H9.00006V17.4137L16.0001 10.4137L23.0001 17.4137V22H20.0001C19.8022 21.9998 19.6087 22.0584 19.4441 22.1683C19.2795 22.2782 19.1512 22.4344 19.0754 22.6172C18.9997 22.8 18.9799 23.0012 19.0185 23.1953C19.0572 23.3894 19.1525 23.5676 19.2926 23.7075L23.2926 27.7075C23.3854 27.8005 23.4957 27.8742 23.6171 27.9246C23.7385 27.9749 23.8686 28.0008 24.0001 28.0008C24.1315 28.0008 24.2616 27.9749 24.383 27.9246C24.5044 27.8742 24.6147 27.8005 24.7076 27.7075L28.7076 23.7075C28.8474 23.5676 28.9425 23.3893 28.981 23.1953C29.0195 23.0013 28.9996 22.8002 28.9238 22.6175ZM8.00006 25.5863L6.41381 24H9.58631L8.00006 25.5863ZM24.0001 25.5863L22.4138 24H25.5863L24.0001 25.5863Z" fill="black"/>
</svg>
