<svg width="32" height="32" viewBox="0 0 32 32" fill="none" xmlns="http://www.w3.org/2000/svg">
<path d="M26.4999 11V22C26.4999 22.3978 26.3419 22.7794 26.0605 23.0607C25.7792 23.342 25.3977 23.5 24.9999 23.5C24.6021 23.5 24.2205 23.342 23.9392 23.0607C23.6579 22.7794 23.4999 22.3978 23.4999 22V11C23.4999 9.54131 22.9204 8.14236 21.889 7.11091C20.8575 6.07946 19.4586 5.5 17.9999 5.5C16.5412 5.5 15.1423 6.07946 14.1108 7.11091C13.0793 8.14236 12.4999 9.54131 12.4999 11V24.375L15.9386 20.935C16.2204 20.6532 16.6026 20.4949 17.0011 20.4949C17.3997 20.4949 17.7818 20.6532 18.0636 20.935C18.3454 21.2168 18.5037 21.599 18.5037 21.9975C18.5037 22.396 18.3454 22.7782 18.0636 23.06L12.0636 29.06C11.9243 29.1998 11.7587 29.3108 11.5764 29.3865C11.394 29.4622 11.1986 29.5012 11.0011 29.5012C10.8037 29.5012 10.6082 29.4622 10.4259 29.3865C10.2436 29.3108 10.078 29.1998 9.93864 29.06L3.93864 23.06C3.65684 22.7782 3.49854 22.396 3.49854 21.9975C3.49854 21.599 3.65684 21.2168 3.93864 20.935C4.22043 20.6532 4.60262 20.4949 5.00114 20.4949C5.39965 20.4949 5.78184 20.6532 6.06364 20.935L9.49989 24.375V11C9.49989 8.74566 10.3954 6.58365 11.9895 4.98959C13.5835 3.39553 15.7455 2.5 17.9999 2.5C20.2542 2.5 22.4162 3.39553 24.0103 4.98959C25.6044 6.58365 26.4999 8.74566 26.4999 11Z" fill="black"/>
</svg>
