<svg width="32" height="32" viewBox="0 0 32 32" fill="none" xmlns="http://www.w3.org/2000/svg">
<path d="M14.5301 21.47C14.6705 21.6106 14.7494 21.8012 14.7494 22C14.7494 22.1988 14.6705 22.3894 14.5301 22.53L10.5301 26.53C10.3895 26.6705 10.1988 26.7493 10.0001 26.7493C9.80134 26.7493 9.61072 26.6705 9.47009 26.53L5.47009 22.53C5.33761 22.3878 5.26549 22.1998 5.26892 22.0055C5.27234 21.8112 5.35106 21.6258 5.48847 21.4884C5.62588 21.351 5.81127 21.2723 6.00557 21.2688C6.19987 21.2654 6.38792 21.3375 6.53009 21.47L9.25009 24.1887V6C9.25009 5.80109 9.32911 5.61032 9.46976 5.46967C9.61041 5.32902 9.80118 5.25 10.0001 5.25C10.199 5.25 10.3898 5.32902 10.5304 5.46967C10.6711 5.61032 10.7501 5.80109 10.7501 6V24.1887L13.4701 21.47C13.6107 21.3295 13.8013 21.2507 14.0001 21.2507C14.1988 21.2507 14.3895 21.3295 14.5301 21.47ZM26.5301 9.47L22.5301 5.47C22.3895 5.32955 22.1988 5.25066 22.0001 5.25066C21.8013 5.25066 21.6107 5.32955 21.4701 5.47L17.4701 9.47C17.3376 9.61217 17.2655 9.80022 17.2689 9.99452C17.2723 10.1888 17.3511 10.3742 17.4885 10.5116C17.6259 10.649 17.8113 10.7277 18.0056 10.7312C18.1999 10.7346 18.3879 10.6625 18.5301 10.53L21.2501 7.81125V26C21.2501 26.1989 21.3291 26.3897 21.4698 26.5303C21.6104 26.671 21.8012 26.75 22.0001 26.75C22.199 26.75 22.3898 26.671 22.5304 26.5303C22.6711 26.3897 22.7501 26.1989 22.7501 26V7.81125L25.4701 10.53C25.6123 10.6625 25.8003 10.7346 25.9946 10.7312C26.1889 10.7277 26.3743 10.649 26.5117 10.5116C26.6491 10.3742 26.7278 10.1888 26.7313 9.99452C26.7347 9.80022 26.6626 9.61217 26.5301 9.47Z" fill="black"/>
</svg>
