<svg width="32" height="32" viewBox="0 0 32 32" fill="none" xmlns="http://www.w3.org/2000/svg">
<path d="M25.5 11V22C25.5 22.1326 25.4474 22.2598 25.3536 22.3536C25.2598 22.4473 25.1326 22.5 25 22.5C24.8674 22.5 24.7402 22.4473 24.6465 22.3536C24.5527 22.2598 24.5 22.1326 24.5 22V11C24.5 9.27609 23.8152 7.62279 22.5962 6.40381C21.3772 5.18482 19.7239 4.5 18 4.5C16.2761 4.5 14.6228 5.18482 13.4038 6.40381C12.1849 7.62279 11.5 9.27609 11.5 11V26.7925L16.6463 21.6462C16.7401 21.5524 16.8674 21.4997 17 21.4997C17.1327 21.4997 17.26 21.5524 17.3538 21.6462C17.4476 21.7401 17.5003 21.8673 17.5003 22C17.5003 22.1327 17.4476 22.2599 17.3538 22.3538L11.3538 28.3538C11.3073 28.4002 11.2522 28.4371 11.1915 28.4623C11.1308 28.4874 11.0657 28.5004 11 28.5004C10.9343 28.5004 10.8693 28.4874 10.8086 28.4623C10.7479 28.4371 10.6927 28.4002 10.6463 28.3538L4.64628 22.3538C4.55246 22.2599 4.49976 22.1327 4.49976 22C4.49976 21.8673 4.55246 21.7401 4.64628 21.6462C4.7401 21.5524 4.86735 21.4997 5.00003 21.4997C5.13272 21.4997 5.25996 21.5524 5.35378 21.6462L10.5 26.7925V11C10.5 9.01088 11.2902 7.10322 12.6967 5.6967C14.1033 4.29018 16.0109 3.5 18 3.5C19.9892 3.5 21.8968 4.29018 23.3033 5.6967C24.7099 7.10322 25.5 9.01088 25.5 11Z" fill="black"/>
</svg>
