<svg width="32" height="32" viewBox="0 0 32 32" fill="none" xmlns="http://www.w3.org/2000/svg">
<path d="M28.7076 14.2926L16.7076 2.29255C16.6147 2.19958 16.5044 2.12582 16.383 2.07549C16.2616 2.02517 16.1315 1.99927 16.0001 1.99927C15.8686 1.99927 15.7385 2.02517 15.6171 2.07549C15.4957 2.12582 15.3854 2.19958 15.2926 2.29255L3.29256 14.2926C3.15254 14.4324 3.05718 14.6107 3.01853 14.8047C2.97988 14.9988 2.99968 15.2 3.07543 15.3828C3.15119 15.5657 3.27948 15.7219 3.44407 15.8318C3.60867 15.9416 3.80216 16.0002 4.00006 16.0001H9.00006V26.0001C9.00006 26.5305 9.21077 27.0392 9.58584 27.4143C9.96092 27.7893 10.4696 28.0001 11.0001 28.0001H21.0001C21.5305 28.0001 22.0392 27.7893 22.4143 27.4143C22.7893 27.0392 23.0001 26.5305 23.0001 26.0001V16.0001H28.0001C28.198 16.0002 28.3914 15.9416 28.556 15.8318C28.7206 15.7219 28.8489 15.5657 28.9247 15.3828C29.0004 15.2 29.0202 14.9988 28.9816 14.8047C28.9429 14.6107 28.8476 14.4324 28.7076 14.2926ZM22.0001 14.0001C21.7348 14.0001 21.4805 14.1054 21.2929 14.2929C21.1054 14.4805 21.0001 14.7348 21.0001 15.0001V26.0001H11.0001V15.0001C11.0001 14.7348 10.8947 14.4805 10.7072 14.2929C10.5196 14.1054 10.2653 14.0001 10.0001 14.0001H6.41381L16.0001 4.4138L25.5863 14.0001H22.0001Z" fill="black"/>
</svg>
