<svg width="32" height="32" viewBox="0 0 32 32" fill="none" xmlns="http://www.w3.org/2000/svg">
<path d="M29.53 16.5301L25.53 20.5301C25.3878 20.6626 25.1998 20.7347 25.0055 20.7313C24.8112 20.7278 24.6258 20.6491 24.4884 20.5117C24.351 20.3743 24.2723 20.1889 24.2688 19.9946C24.2654 19.8003 24.3375 19.6123 24.47 19.4701L27.1888 16.7501H4.81376L7.53251 19.4701C7.6062 19.5388 7.6653 19.6216 7.7063 19.7136C7.74729 19.8056 7.76933 19.9049 7.77111 20.0056C7.77288 20.1063 7.75436 20.2063 7.71664 20.2997C7.67892 20.3931 7.62277 20.4779 7.55155 20.5491C7.48033 20.6203 7.3955 20.6765 7.30211 20.7142C7.20872 20.7519 7.10869 20.7705 7.00799 20.7687C6.90729 20.7669 6.80798 20.7449 6.71598 20.7039C6.62398 20.6629 6.54118 20.6038 6.47251 20.5301L2.47251 16.5301C2.33206 16.3895 2.25317 16.1988 2.25317 16.0001C2.25317 15.8013 2.33206 15.6107 2.47251 15.4701L6.47251 11.4701C6.61469 11.3376 6.80274 11.2655 6.99704 11.2689C7.19134 11.2723 7.37672 11.3511 7.51414 11.4885C7.65155 11.6259 7.73026 11.8113 7.73369 12.0056C7.73712 12.1999 7.66499 12.3879 7.53251 12.5301L4.81126 15.2501H27.1863L24.4675 12.5301C24.335 12.3879 24.2629 12.1999 24.2663 12.0056C24.2698 11.8113 24.3485 11.6259 24.4859 11.4885C24.6233 11.3511 24.8087 11.2723 25.003 11.2689C25.1973 11.2655 25.3853 11.3376 25.5275 11.4701L29.5275 15.4701C29.6683 15.6104 29.7476 15.8008 29.7481 15.9996C29.7486 16.1983 29.6701 16.3891 29.53 16.5301Z" fill="black"/>
</svg>
