<svg width="32" height="32" viewBox="0 0 32 32" fill="none" xmlns="http://www.w3.org/2000/svg">
<path d="M14.9238 21.6176C14.9996 21.8003 15.0195 22.0013 14.981 22.1954C14.9425 22.3894 14.8474 22.5676 14.7076 22.7076L10.7076 26.7076C10.6147 26.8005 10.5044 26.8743 10.383 26.9246C10.2616 26.9749 10.1315 27.0008 10.0001 27.0008C9.86864 27.0008 9.73851 26.9749 9.61712 26.9246C9.49572 26.8743 9.38543 26.8005 9.29255 26.7076L5.29256 22.7076C5.15254 22.5677 5.05718 22.3894 5.01853 22.1954C4.97988 22.0013 4.99968 21.8001 5.07543 21.6173C5.15119 21.4344 5.27948 21.2782 5.44407 21.1683C5.60867 21.0585 5.80216 20.9999 6.00006 21.0001H9.00006V6.00005C9.00006 5.73484 9.10541 5.48048 9.29295 5.29295C9.48048 5.10541 9.73484 5.00005 10.0001 5.00005C10.2653 5.00005 10.5196 5.10541 10.7072 5.29295C10.8947 5.48048 11.0001 5.73484 11.0001 6.00005V21.0001H14.0001C14.1978 21.0001 14.3912 21.0588 14.5556 21.1687C14.72 21.2786 14.8482 21.4348 14.9238 21.6176ZM26.7076 9.29255L22.7076 5.29255C22.6147 5.19958 22.5044 5.12582 22.383 5.07549C22.2616 5.02517 22.1315 4.99927 22.0001 4.99927C21.8686 4.99927 21.7385 5.02517 21.6171 5.07549C21.4957 5.12582 21.3854 5.19958 21.2926 5.29255L17.2926 9.29255C17.1525 9.43241 17.0572 9.61066 17.0185 9.80475C16.9799 9.99883 16.9997 10.2 17.0754 10.3828C17.1512 10.5657 17.2795 10.7219 17.4441 10.8318C17.6087 10.9416 17.8022 11.0002 18.0001 11.0001H21.0001V26.0001C21.0001 26.2653 21.1054 26.5196 21.2929 26.7072C21.4805 26.8947 21.7348 27.0001 22.0001 27.0001C22.2653 27.0001 22.5196 26.8947 22.7072 26.7072C22.8947 26.5196 23.0001 26.2653 23.0001 26.0001V11.0001H26.0001C26.198 11.0002 26.3914 10.9416 26.556 10.8318C26.7206 10.7219 26.8489 10.5657 26.9247 10.3828C27.0004 10.2 27.0202 9.99883 26.9816 9.80475C26.9429 9.61066 26.8476 9.43241 26.7076 9.29255Z" fill="black"/>
</svg>
