<svg width="32" height="32" viewBox="0 0 32 32" fill="none" xmlns="http://www.w3.org/2000/svg">
<path d="M15.0612 20.9387C15.201 21.0781 15.312 21.2437 15.3877 21.426C15.4634 21.6083 15.5024 21.8038 15.5024 22.0012C15.5024 22.1987 15.4634 22.3941 15.3877 22.5765C15.312 22.7588 15.201 22.9244 15.0612 23.0637L11.0612 27.0637C10.9218 27.2036 10.7563 27.3145 10.5739 27.3902C10.3916 27.466 10.1961 27.5049 9.9987 27.5049C9.80127 27.5049 9.6058 27.466 9.42347 27.3902C9.24114 27.3145 9.07555 27.2036 8.9362 27.0637L4.9362 23.0637C4.79667 22.9242 4.68599 22.7586 4.61047 22.5763C4.53496 22.394 4.49609 22.1986 4.49609 22.0012C4.49609 21.8039 4.53496 21.6085 4.61047 21.4262C4.68599 21.2439 4.79667 21.0783 4.9362 20.9387C5.07572 20.7992 5.24137 20.6885 5.42367 20.613C5.60598 20.5375 5.80137 20.4986 5.9987 20.4986C6.19602 20.4986 6.39141 20.5375 6.57372 20.613C6.75602 20.6885 6.92167 20.7992 7.0612 20.9387L8.49995 22.375V5.99999C8.49995 5.60217 8.65798 5.22064 8.93929 4.93933C9.22059 4.65803 9.60212 4.49999 9.99995 4.49999C10.3978 4.49999 10.7793 4.65803 11.0606 4.93933C11.3419 5.22064 11.4999 5.60217 11.4999 5.99999V22.375L12.9387 20.935C13.0783 20.7958 13.2439 20.6854 13.4261 20.6103C13.6083 20.5351 13.8036 20.4966 14.0007 20.4969C14.1978 20.4973 14.393 20.5365 14.5749 20.6123C14.7569 20.6881 14.9221 20.799 15.0612 20.9387ZM27.0612 8.93874L23.0612 4.93874C22.9218 4.7989 22.7563 4.68795 22.5739 4.61224C22.3916 4.53653 22.1961 4.49756 21.9987 4.49756C21.8013 4.49756 21.6058 4.53653 21.4235 4.61224C21.2411 4.68795 21.0756 4.7989 20.9362 4.93874L16.9362 8.93874C16.6544 9.22053 16.4961 9.60273 16.4961 10.0012C16.4961 10.3998 16.6544 10.7819 16.9362 11.0637C17.218 11.3455 17.6002 11.5038 17.9987 11.5038C18.3972 11.5038 18.7794 11.3455 19.0612 11.0637L20.4999 9.62499V26C20.4999 26.3978 20.658 26.7793 20.9393 27.0606C21.2206 27.342 21.6021 27.5 21.9999 27.5C22.3978 27.5 22.7793 27.342 23.0606 27.0606C23.3419 26.7793 23.4999 26.3978 23.4999 26V9.62499L24.9387 11.065C25.2205 11.3468 25.6027 11.5051 26.0012 11.5051C26.3997 11.5051 26.7819 11.3468 27.0637 11.065C27.3455 10.7832 27.5038 10.401 27.5038 10.0025C27.5038 9.60398 27.3455 9.22178 27.0637 8.93999L27.0612 8.93874Z" fill="black"/>
</svg>
