<svg width="32" height="32" viewBox="0 0 32 32" fill="none" xmlns="http://www.w3.org/2000/svg">
<path d="M21.6462 16.6463L26.7925 11.5H11C9.27609 11.5 7.62279 12.1849 6.40381 13.4038C5.18482 14.6228 4.5 16.2761 4.5 18C4.5 19.7239 5.18482 21.3772 6.40381 22.5962C7.62279 23.8152 9.27609 24.5 11 24.5H22C22.1326 24.5 22.2598 24.5527 22.3536 24.6465C22.4473 24.7402 22.5 24.8674 22.5 25C22.5 25.1326 22.4473 25.2598 22.3536 25.3536C22.2598 25.4474 22.1326 25.5 22 25.5H11C9.01088 25.5 7.10322 24.7099 5.6967 23.3033C4.29018 21.8968 3.5 19.9892 3.5 18C3.5 16.0109 4.29018 14.1033 5.6967 12.6967C7.10322 11.2902 9.01088 10.5 11 10.5H26.7925L21.6462 5.35378C21.5524 5.25996 21.4997 5.13272 21.4997 5.00003C21.4997 4.86735 21.5524 4.7401 21.6462 4.64628C21.7401 4.55246 21.8673 4.49976 22 4.49976C22.1327 4.49976 22.2599 4.55246 22.3538 4.64628L28.3538 10.6463C28.4002 10.6927 28.4371 10.7479 28.4623 10.8086C28.4874 10.8693 28.5004 10.9343 28.5004 11C28.5004 11.0657 28.4874 11.1308 28.4623 11.1915C28.4371 11.2522 28.4002 11.3073 28.3538 11.3538L22.3538 17.3538C22.2599 17.4476 22.1327 17.5003 22 17.5003C21.8673 17.5003 21.7401 17.4476 21.6462 17.3538C21.5524 17.26 21.4997 17.1327 21.4997 17C21.4997 16.8674 21.5524 16.7401 21.6462 16.6463Z" fill="black"/>
</svg>
