<svg width="32" height="32" viewBox="0 0 32 32" fill="none" xmlns="http://www.w3.org/2000/svg">
<path d="M24.9999 9.99995V27.9999C24.9999 28.2652 24.8946 28.5195 24.707 28.7071C24.5195 28.8946 24.2651 28.9999 23.9999 28.9999C23.7347 28.9999 23.4804 28.8946 23.2928 28.7071C23.1053 28.5195 22.9999 28.2652 22.9999 27.9999V10.9999H8.41368L12.7074 15.2924C12.8951 15.4801 13.0005 15.7346 13.0005 15.9999C13.0005 16.2653 12.8951 16.5198 12.7074 16.7074C12.5198 16.8951 12.2653 17.0005 11.9999 17.0005C11.7346 17.0005 11.4801 16.8951 11.2924 16.7074L5.29243 10.7074L5.28493 10.6987C5.26493 10.6787 5.24493 10.6562 5.22618 10.6337L5.19743 10.5949C5.18715 10.5821 5.17755 10.5688 5.16868 10.5549L5.13993 10.5087C5.13211 10.4966 5.12502 10.4841 5.11868 10.4712C5.10993 10.4562 5.10243 10.4399 5.09493 10.4237C5.08743 10.4074 5.08243 10.3974 5.07618 10.3824C5.06993 10.3674 5.06493 10.3512 5.05868 10.3362L5.04243 10.2912L5.03118 10.2424C5.03118 10.2262 5.02243 10.2112 5.01868 10.1962C5.01493 10.1812 5.01868 10.1574 5.01118 10.1387C5.00368 10.1199 5.01118 10.1124 5.00493 10.0987C4.99868 10.033 4.99868 9.96688 5.00493 9.9012C5.00493 9.88745 5.00493 9.87495 5.01118 9.8612C5.01743 9.84745 5.01118 9.82245 5.01868 9.8037C5.02618 9.78495 5.02618 9.7737 5.03118 9.75745L5.04243 9.7087L5.05868 9.6637C5.06493 9.6487 5.06993 9.63245 5.07618 9.61745C5.08243 9.60245 5.08868 9.58995 5.09493 9.5762C5.10118 9.56245 5.10993 9.5437 5.11868 9.5287C5.12502 9.51579 5.13211 9.50326 5.13993 9.4912L5.16868 9.44495C5.17755 9.43111 5.18715 9.41776 5.19743 9.40495L5.22618 9.3662C5.24493 9.3437 5.26493 9.3212 5.28493 9.3012L5.29243 9.29245L11.2924 3.29245C11.4801 3.1048 11.7346 2.99939 11.9999 2.99939C12.2653 2.99939 12.5198 3.1048 12.7074 3.29245C12.8951 3.48009 13.0005 3.73458 13.0005 3.99995C13.0005 4.26531 12.8951 4.5198 12.7074 4.70745L8.41368 8.99995H23.9999C24.2651 8.99995 24.5195 9.1053 24.707 9.29284C24.8946 9.48038 24.9999 9.73473 24.9999 9.99995Z" fill="black"/>
</svg>
