<svg width="32" height="32" viewBox="0 0 32 32" fill="none" xmlns="http://www.w3.org/2000/svg">
<path d="M28.4999 18C28.4976 19.9884 27.7067 21.8948 26.3006 23.3008C24.8946 24.7068 22.9883 25.4977 20.9999 25.5H9.99991C9.8673 25.5 9.74012 25.4474 9.64635 25.3536C9.55258 25.2598 9.49991 25.1326 9.49991 25C9.49991 24.8674 9.55258 24.7402 9.64635 24.6465C9.74012 24.5527 9.8673 24.5 9.99991 24.5H20.9999C22.7238 24.5 24.3771 23.8152 25.5961 22.5962C26.8151 21.3772 27.4999 19.7239 27.4999 18C27.4999 16.2761 26.8151 14.6228 25.5961 13.4038C24.3771 12.1849 22.7238 11.5 20.9999 11.5H5.20741L10.3537 16.6463C10.4475 16.7401 10.5002 16.8674 10.5002 17C10.5002 17.1327 10.4475 17.26 10.3537 17.3538C10.2598 17.4476 10.1326 17.5003 9.99991 17.5003C9.86722 17.5003 9.73997 17.4476 9.64615 17.3538L3.64616 11.3538C3.59967 11.3073 3.56279 11.2522 3.53763 11.1915C3.51246 11.1308 3.49951 11.0657 3.49951 11C3.49951 10.9343 3.51246 10.8693 3.53763 10.8086C3.56279 10.7479 3.59967 10.6927 3.64616 10.6463L9.64615 4.64628C9.73997 4.55246 9.86722 4.49976 9.99991 4.49976C10.1326 4.49976 10.2598 4.55246 10.3537 4.64628C10.4475 4.7401 10.5002 4.86735 10.5002 5.00003C10.5002 5.13272 10.4475 5.25996 10.3537 5.35378L5.20741 10.5H20.9999C22.9883 10.5023 24.8946 11.2933 26.3006 12.6993C27.7067 14.1053 28.4976 16.0116 28.4999 18Z" fill="black"/>
</svg>
