<svg width="32" height="32" viewBox="0 0 32 32" fill="none" xmlns="http://www.w3.org/2000/svg">
<path d="M28.5 5C28.5 5.39782 28.342 5.77936 28.0607 6.06066C27.7794 6.34196 27.3978 6.5 27 6.5H5C4.60218 6.5 4.22064 6.34196 3.93934 6.06066C3.65804 5.77936 3.5 5.39782 3.5 5C3.5 4.60218 3.65804 4.22064 3.93934 3.93934C4.22064 3.65804 4.60218 3.5 5 3.5H27C27.3978 3.5 27.7794 3.65804 28.0607 3.93934C28.342 4.22064 28.5 4.60218 28.5 5ZM20.9387 9.93875L9.5 21.375V13C9.5 12.6022 9.34196 12.2206 9.06066 11.9393C8.77936 11.658 8.39782 11.5 8 11.5C7.60218 11.5 7.22064 11.658 6.93934 11.9393C6.65804 12.2206 6.5 12.6022 6.5 13V25C6.5 25.3978 6.65804 25.7794 6.93934 26.0607C7.22064 26.342 7.60218 26.5 8 26.5H20C20.3978 26.5 20.7794 26.342 21.0607 26.0607C21.342 25.7794 21.5 25.3978 21.5 25C21.5 24.6022 21.342 24.2206 21.0607 23.9393C20.7794 23.658 20.3978 23.5 20 23.5H11.625L23.065 12.0612C23.3468 11.7795 23.5051 11.3973 23.5051 10.9987C23.5051 10.6002 23.3468 10.218 23.065 9.93625C22.7832 9.65446 22.401 9.49615 22.0025 9.49615C21.604 9.49615 21.2218 9.65446 20.94 9.93625L20.9387 9.93875Z" fill="black"/>
</svg>
