<svg width="32" height="32" viewBox="0 0 32 32" fill="none" xmlns="http://www.w3.org/2000/svg">
<path d="M24.7501 4V22C24.7501 22.1989 24.6711 22.3897 24.5304 22.5303C24.3898 22.671 24.199 22.75 24.0001 22.75H7.81132L12.5301 27.47C12.6038 27.5387 12.6629 27.6215 12.7039 27.7135C12.7448 27.8055 12.7669 27.9048 12.7687 28.0055C12.7704 28.1062 12.7519 28.2062 12.7142 28.2996C12.6765 28.393 12.6203 28.4778 12.5491 28.549C12.4779 28.6203 12.3931 28.6764 12.2997 28.7141C12.2063 28.7518 12.1063 28.7704 12.0056 28.7686C11.9048 28.7668 11.8055 28.7448 11.7135 28.7038C11.6215 28.6628 11.5387 28.6037 11.4701 28.53L5.47007 22.53C5.32962 22.3894 5.25073 22.1988 5.25073 22C5.25073 21.8012 5.32962 21.6106 5.47007 21.47L11.4701 15.47C11.5387 15.3963 11.6215 15.3372 11.7135 15.2962C11.8055 15.2552 11.9048 15.2332 12.0056 15.2314C12.1063 15.2296 12.2063 15.2482 12.2997 15.2859C12.3931 15.3236 12.4779 15.3797 12.5491 15.451C12.6203 15.5222 12.6765 15.607 12.7142 15.7004C12.7519 15.7938 12.7704 15.8938 12.7687 15.9945C12.7669 16.0952 12.7448 16.1945 12.7039 16.2865C12.6629 16.3785 12.6038 16.4613 12.5301 16.53L7.81132 21.25H23.2501V4C23.2501 3.80109 23.3291 3.61032 23.4697 3.46967C23.6104 3.32902 23.8012 3.25 24.0001 3.25C24.199 3.25 24.3898 3.32902 24.5304 3.46967C24.6711 3.61032 24.7501 3.80109 24.7501 4Z" fill="black"/>
</svg>
