<svg width="32" height="32" viewBox="0 0 32 32" fill="none" xmlns="http://www.w3.org/2000/svg">
<path d="M17.5 5V27C17.5 27.3978 17.342 27.7794 17.0607 28.0607C16.7794 28.342 16.3978 28.5 16 28.5C15.6022 28.5 15.2206 28.342 14.9393 28.0607C14.658 27.7794 14.5 27.3978 14.5 27V5C14.5 4.60218 14.658 4.22064 14.9393 3.93934C15.2206 3.65804 15.6022 3.5 16 3.5C16.3978 3.5 16.7794 3.65804 17.0607 3.93934C17.342 4.22064 17.5 4.60218 17.5 5ZM8.06125 10.9388C7.77946 10.657 7.39726 10.4986 6.99875 10.4986C6.60024 10.4986 6.21804 10.657 5.93625 10.9388C5.65446 11.2205 5.49615 11.6027 5.49615 12.0013C5.49615 12.3998 5.65446 12.782 5.93625 13.0638L7.375 14.5H2C1.60218 14.5 1.22064 14.658 0.93934 14.9393C0.658035 15.2206 0.5 15.6022 0.5 16C0.5 16.3978 0.658035 16.7794 0.93934 17.0607C1.22064 17.342 1.60218 17.5 2 17.5H7.375L5.93875 18.9387C5.65696 19.2205 5.49865 19.6027 5.49865 20.0012C5.49865 20.3998 5.65696 20.782 5.93875 21.0637C6.22054 21.3455 6.60274 21.5039 7.00125 21.5039C7.39976 21.5039 7.78196 21.3455 8.06375 21.0637L12.0638 17.0637C12.2036 16.9244 12.3145 16.7588 12.3903 16.5765C12.466 16.3941 12.5049 16.1987 12.5049 16.0012C12.5049 15.8038 12.466 15.6083 12.3903 15.426C12.3145 15.2437 12.2036 15.0781 12.0638 14.9388L8.06125 10.9388ZM30 14.5H24.625L26.065 13.0612C26.3468 12.7795 26.5051 12.3973 26.5051 11.9987C26.5051 11.6002 26.3468 11.218 26.065 10.9362C25.7832 10.6545 25.401 10.4961 25.0025 10.4961C24.604 10.4961 24.2218 10.6545 23.94 10.9362L19.94 14.9362C19.8002 15.0756 19.6892 15.2412 19.6135 15.4235C19.5378 15.6058 19.4988 15.8013 19.4988 15.9987C19.4988 16.1962 19.5378 16.3917 19.6135 16.574C19.6892 16.7563 19.8002 16.9219 19.94 17.0613L23.94 21.0613C24.2218 21.343 24.604 21.5014 25.0025 21.5014C25.401 21.5014 25.7832 21.343 26.065 21.0613C26.3468 20.7795 26.5051 20.3973 26.5051 19.9988C26.5051 19.6002 26.3468 19.218 26.065 18.9363L24.625 17.5H30C30.3978 17.5 30.7794 17.342 31.0607 17.0607C31.342 16.7794 31.5 16.3978 31.5 16C31.5 15.6022 31.342 15.2206 31.0607 14.9393C30.7794 14.658 30.3978 14.5 30 14.5Z" fill="black"/>
</svg>
