<svg width="32" height="32" viewBox="0 0 32 32" fill="none" xmlns="http://www.w3.org/2000/svg">
<path d="M26.7075 10.7074L20.7075 16.7074C20.5199 16.8951 20.2654 17.0005 20 17.0005C19.7346 17.0005 19.4801 16.8951 19.2925 16.7074C19.1049 16.5198 18.9994 16.2653 18.9994 15.9999C18.9994 15.7346 19.1049 15.4801 19.2925 15.2924L23.5863 10.9999H9V27.9999C9 28.2652 8.89464 28.5195 8.70711 28.7071C8.51957 28.8946 8.26522 28.9999 8 28.9999C7.73478 28.9999 7.48043 28.8946 7.29289 28.7071C7.10536 28.5195 7 28.2652 7 27.9999V9.99995C7 9.73473 7.10536 9.48038 7.29289 9.29284C7.48043 9.1053 7.73478 8.99995 8 8.99995H23.5863L19.2925 4.70745C19.1049 4.5198 18.9994 4.26531 18.9994 3.99995C18.9994 3.73458 19.1049 3.48009 19.2925 3.29245C19.4801 3.1048 19.7346 2.99939 20 2.99939C20.2654 2.99939 20.5199 3.10481 20.7075 3.29245L26.7075 9.29245C26.8005 9.38532 26.8742 9.49561 26.9246 9.61701C26.9749 9.7384 27.0008 9.86853 27.0008 9.99995C27.0008 10.1314 26.9749 10.2615 26.9246 10.3829C26.8742 10.5043 26.8005 10.6146 26.7075 10.7074Z" fill="black"/>
</svg>
