<svg width="32" height="32" viewBox="0 0 32 32" fill="none" xmlns="http://www.w3.org/2000/svg">
<path d="M29.5 14C29.4976 16.2536 28.6014 18.4143 27.0078 20.0078C25.4143 21.6014 23.2536 22.4977 21 22.5H7.62496L11.065 25.9387C11.2045 26.0783 11.3152 26.2439 11.3907 26.4262C11.4662 26.6085 11.5051 26.8039 11.5051 27.0012C11.5051 27.1986 11.4662 27.394 11.3907 27.5763C11.3152 27.7586 11.2045 27.9242 11.065 28.0637C10.9254 28.2033 10.7598 28.314 10.5775 28.3895C10.3952 28.465 10.1998 28.5039 10.0025 28.5039C9.80514 28.5039 9.60974 28.465 9.42744 28.3895C9.24514 28.314 9.07949 28.2033 8.93996 28.0637L2.93996 22.0637C2.80012 21.9244 2.68917 21.7588 2.61346 21.5765C2.53775 21.3941 2.49878 21.1987 2.49878 21.0012C2.49878 20.8038 2.53775 20.6083 2.61346 20.426C2.68917 20.2437 2.80012 20.0781 2.93996 19.9387L8.93996 13.9388C9.07949 13.7992 9.24514 13.6885 9.42744 13.613C9.60974 13.5375 9.80514 13.4986 10.0025 13.4986C10.1998 13.4986 10.3952 13.5375 10.5775 13.613C10.7598 13.6885 10.9254 13.7992 11.065 13.9388C11.2045 14.0783 11.3152 14.2439 11.3907 14.4262C11.4662 14.6085 11.5051 14.8039 11.5051 15.0013C11.5051 15.1986 11.4662 15.394 11.3907 15.5763C11.3152 15.7586 11.2045 15.9242 11.065 16.0637L7.62496 19.5H21C22.4587 19.5 23.8576 18.9205 24.889 17.8891C25.9205 16.8576 26.5 15.4587 26.5 14C26.5 12.5413 25.9205 11.1424 24.889 10.1109C23.8576 9.07946 22.4587 8.5 21 8.5H9.99996C9.60214 8.5 9.22061 8.34196 8.9393 8.06066C8.658 7.77936 8.49996 7.39782 8.49996 7C8.49996 6.60218 8.658 6.22064 8.9393 5.93934C9.22061 5.65804 9.60214 5.5 9.99996 5.5H21C23.2536 5.50232 25.4143 6.39859 27.0078 7.99215C28.6014 9.58571 29.4976 11.7464 29.5 14Z" fill="black"/>
</svg>
