<svg width="32" height="32" viewBox="0 0 32 32" fill="none" xmlns="http://www.w3.org/2000/svg">
<path d="M25.9999 9.50003H15.4999V4.00003C15.5 3.90108 15.4707 3.80433 15.4158 3.72204C15.3608 3.63974 15.2827 3.57559 15.1913 3.53772C15.0999 3.49984 14.9993 3.48994 14.9023 3.50926C14.8052 3.52859 14.7161 3.57627 14.6462 3.64628L2.64616 15.6463C2.59967 15.6927 2.56279 15.7479 2.53763 15.8086C2.51246 15.8693 2.49951 15.9343 2.49951 16C2.49951 16.0657 2.51246 16.1308 2.53763 16.1915C2.56279 16.2522 2.59967 16.3073 2.64616 16.3538L14.6462 28.3538C14.7161 28.4238 14.8052 28.4715 14.9023 28.4908C14.9993 28.5101 15.0999 28.5002 15.1913 28.4623C15.2827 28.4245 15.3608 28.3603 15.4158 28.278C15.4707 28.1957 15.5 28.099 15.4999 28V22.5H25.9999C26.3977 22.5 26.7793 22.342 27.0606 22.0607C27.3419 21.7794 27.4999 21.3979 27.4999 21V11C27.4999 10.6022 27.3419 10.2207 27.0606 9.93937C26.7793 9.65806 26.3977 9.50003 25.9999 9.50003ZM26.4999 21C26.4999 21.1326 26.4472 21.2598 26.3535 21.3536C26.2597 21.4473 26.1325 21.5 25.9999 21.5H14.9999C14.8673 21.5 14.7401 21.5527 14.6464 21.6465C14.5526 21.7402 14.4999 21.8674 14.4999 22V26.7925L3.70741 16L14.4999 5.20753V10C14.4999 10.1326 14.5526 10.2598 14.6464 10.3536C14.7401 10.4473 14.8673 10.5 14.9999 10.5H25.9999C26.1325 10.5 26.2597 10.5527 26.3535 10.6465C26.4472 10.7402 26.4999 10.8674 26.4999 11V21Z" fill="black"/>
</svg>
