<svg width="32" height="32" viewBox="0 0 32 32" fill="none" xmlns="http://www.w3.org/2000/svg">
<path d="M29.9999 6.99997V13C29.9999 13.2652 29.8946 13.5195 29.707 13.7071C29.5195 13.8946 29.2651 14 28.9999 14H22.9999C22.802 14.0001 22.6085 13.9416 22.4439 13.8317C22.2794 13.7218 22.1511 13.5656 22.0753 13.3828C21.9996 13.1999 21.9797 12.9988 22.0184 12.8047C22.057 12.6106 22.1524 12.4323 22.2924 12.2925L24.4174 10.1675L23.0987 8.96122L23.0674 8.93122C21.6775 7.54184 19.909 6.59279 17.9829 6.20266C16.0567 5.81252 14.0583 5.99858 12.2373 6.7376C10.4163 7.47662 8.85338 8.73583 7.74385 10.3579C6.63432 11.98 6.02735 13.8931 5.99876 15.8582C5.97017 17.8232 6.52123 19.7531 7.58309 21.4068C8.64496 23.0605 10.1706 24.3647 11.9693 25.1563C13.7681 25.948 15.7602 26.1921 17.6969 25.8582C19.6336 25.5243 21.4289 24.6271 22.8587 23.2787C22.9541 23.1884 23.0664 23.1178 23.1892 23.071C23.3119 23.0241 23.4427 23.0018 23.574 23.0055C23.7054 23.0091 23.8347 23.0386 23.9546 23.0923C24.0746 23.1459 24.1828 23.2226 24.2731 23.3181C24.3633 23.4136 24.4339 23.5259 24.4808 23.6486C24.5277 23.7713 24.5499 23.9021 24.5463 24.0334C24.5426 24.1648 24.5131 24.2941 24.4595 24.414C24.4059 24.534 24.3291 24.6422 24.2337 24.7325C22.0102 26.838 19.0622 28.0079 15.9999 28H15.8349C13.8696 27.9731 11.941 27.4638 10.2186 26.517C8.49613 25.5701 7.03266 24.2147 5.95675 22.5698C4.88085 20.9249 4.22545 19.0409 4.04818 17.0834C3.8709 15.1259 4.17717 13.1548 4.94007 11.3434C5.70296 9.532 6.89912 7.93571 8.42342 6.69484C9.94771 5.45397 11.7535 4.60652 13.682 4.22697C15.6105 3.84741 17.6027 3.94738 19.4836 4.51808C21.3644 5.08878 23.0763 6.11275 24.4687 7.49997L25.8349 8.74997L28.2924 6.28747C28.4326 6.14716 28.6113 6.05168 28.8059 6.01319C29.0004 5.97469 29.202 5.99492 29.385 6.07129C29.5681 6.14767 29.7243 6.27674 29.8337 6.4421C29.9432 6.60747 30.0011 6.80165 29.9999 6.99997Z" fill="black"/>
</svg>
