<svg width="32" height="32" viewBox="0 0 32 32" fill="none" xmlns="http://www.w3.org/2000/svg">
<path d="M25.7501 28C25.7501 28.1989 25.6711 28.3897 25.5304 28.5303C25.3898 28.671 25.199 28.75 25.0001 28.75C21.6198 28.746 18.3791 27.4015 15.9889 25.0112C13.5986 22.621 12.2541 19.3803 12.2501 16V5.81126L7.53009 10.53C7.38792 10.6625 7.19987 10.7346 7.00557 10.7312C6.81127 10.7278 6.62588 10.649 6.48847 10.5116C6.35106 10.3742 6.27234 10.1888 6.26892 9.99453C6.26549 9.80023 6.33761 9.61219 6.47009 9.47001L12.4701 3.47001C12.6107 3.32956 12.8013 3.25067 13.0001 3.25067C13.1988 3.25067 13.3895 3.32956 13.5301 3.47001L19.5301 9.47001C19.6038 9.53867 19.6629 9.62147 19.7039 9.71347C19.7449 9.80547 19.7669 9.90479 19.7687 10.0055C19.7705 10.1062 19.7519 10.2062 19.7142 10.2996C19.6765 10.393 19.6203 10.4778 19.5491 10.549C19.4779 10.6203 19.3931 10.6764 19.2997 10.7141C19.2063 10.7519 19.1063 10.7704 19.0056 10.7686C18.9049 10.7668 18.8056 10.7448 18.7136 10.7038C18.6216 10.6628 18.5388 10.6037 18.4701 10.53L13.7501 5.81126V16C13.7534 18.9827 14.9397 21.8422 17.0488 23.9513C19.1579 26.0604 22.0174 27.2467 25.0001 27.25C25.199 27.25 25.3898 27.329 25.5304 27.4697C25.6711 27.6103 25.7501 27.8011 25.7501 28Z" fill="black"/>
</svg>
