<svg width="32" height="32" viewBox="0 0 32 32" fill="none" xmlns="http://www.w3.org/2000/svg">
<path d="M25.5 4C25.5 4.13261 25.4474 4.25979 25.3536 4.35355C25.2598 4.44732 25.1326 4.5 25 4.5C21.9511 4.50331 19.0279 5.71597 16.872 7.87193C14.716 10.0279 13.5033 12.951 13.5 16V26.7925L18.6463 21.6462C18.7401 21.5524 18.8674 21.4997 19 21.4997C19.1327 21.4997 19.26 21.5524 19.3538 21.6462C19.4476 21.7401 19.5003 21.8673 19.5003 22C19.5003 22.1327 19.4476 22.2599 19.3538 22.3538L13.3538 28.3538C13.3073 28.4002 13.2522 28.4371 13.1915 28.4623C13.1308 28.4874 13.0657 28.5004 13 28.5004C12.9343 28.5004 12.8693 28.4874 12.8086 28.4623C12.7479 28.4371 12.6927 28.4002 12.6463 28.3538L6.64628 22.3538C6.55246 22.2599 6.49976 22.1327 6.49976 22C6.49976 21.8673 6.55246 21.7401 6.64628 21.6462C6.7401 21.5524 6.86735 21.4997 7.00003 21.4997C7.13272 21.4997 7.25996 21.5524 7.35378 21.6462L12.5 26.7925V16C12.5037 12.6859 13.8218 9.5086 16.1652 7.16518C18.5086 4.82177 21.6859 3.50364 25 3.5C25.1326 3.5 25.2598 3.55268 25.3536 3.64645C25.4474 3.74021 25.5 3.86739 25.5 4Z" fill="black"/>
</svg>
