<svg width="32" height="32" viewBox="0 0 32 32" fill="none" xmlns="http://www.w3.org/2000/svg">
<path d="M14.7076 21.2926C14.8005 21.3854 14.8743 21.4957 14.9246 21.6171C14.975 21.7385 15.0009 21.8686 15.0009 22.0001C15.0009 22.1315 14.975 22.2616 14.9246 22.383C14.8743 22.5044 14.8005 22.6147 14.7076 22.7076L10.7076 26.7076C10.6147 26.8005 10.5044 26.8743 10.383 26.9246C10.2616 26.9749 10.1315 27.0008 10.0001 27.0008C9.86865 27.0008 9.73853 26.9749 9.61713 26.9246C9.49573 26.8743 9.38544 26.8005 9.29257 26.7076L5.29257 22.7076C5.19966 22.6146 5.12596 22.5043 5.07567 22.3829C5.02539 22.2616 4.99951 22.1314 4.99951 22.0001C4.99951 21.8687 5.02539 21.7386 5.07567 21.6172C5.12596 21.4958 5.19966 21.3855 5.29257 21.2926C5.48021 21.1049 5.7347 20.9995 6.00007 20.9995C6.13146 20.9995 6.26157 21.0254 6.38296 21.0757C6.50436 21.1259 6.61466 21.1996 6.70757 21.2926L9.00007 23.5863V6.00005C9.00007 5.73484 9.10542 5.48048 9.29296 5.29295C9.4805 5.10541 9.73485 5.00005 10.0001 5.00005C10.2653 5.00005 10.5196 5.10541 10.7072 5.29295C10.8947 5.48048 11.0001 5.73484 11.0001 6.00005V23.5863L13.2926 21.2926C13.3854 21.1996 13.4957 21.1258 13.6171 21.0755C13.7385 21.0252 13.8687 20.9993 14.0001 20.9993C14.1315 20.9993 14.2616 21.0252 14.383 21.0755C14.5044 21.1258 14.6147 21.1996 14.7076 21.2926ZM26.7076 9.29255L22.7076 5.29255C22.6147 5.19958 22.5044 5.12582 22.383 5.07549C22.2616 5.02517 22.1315 4.99927 22.0001 4.99927C21.8687 4.99927 21.7385 5.02517 21.6171 5.07549C21.4957 5.12582 21.3854 5.19958 21.2926 5.29255L17.2926 9.29255C17.1049 9.48019 16.9995 9.73469 16.9995 10.0001C16.9995 10.2654 17.1049 10.5199 17.2926 10.7076C17.4802 10.8952 17.7347 11.0006 18.0001 11.0006C18.2654 11.0006 18.5199 10.8952 18.7076 10.7076L21.0001 8.4138V26.0001C21.0001 26.2653 21.1054 26.5196 21.293 26.7072C21.4805 26.8947 21.7349 27.0001 22.0001 27.0001C22.2653 27.0001 22.5196 26.8947 22.7072 26.7072C22.8947 26.5196 23.0001 26.2653 23.0001 26.0001V8.4138L25.2926 10.7076C25.4802 10.8952 25.7347 11.0006 26.0001 11.0006C26.2654 11.0006 26.5199 10.8952 26.7076 10.7076C26.8952 10.5199 27.0006 10.2654 27.0006 10.0001C27.0006 9.73469 26.8952 9.48019 26.7076 9.29255Z" fill="black"/>
</svg>
