<svg width="32" height="32" viewBox="0 0 32 32" fill="none" xmlns="http://www.w3.org/2000/svg">
<path d="M28.0001 11.0001V21.0001C28.0001 21.5305 27.7893 22.0392 27.4143 22.4143C27.0392 22.7893 26.5305 23.0001 26.0001 23.0001H16.0001V28.0001C16.0002 28.198 15.9416 28.3914 15.8318 28.556C15.7219 28.7206 15.5657 28.8489 15.3828 28.9247C15.2 29.0004 14.9988 29.0202 14.8047 28.9816C14.6107 28.9429 14.4324 28.8476 14.2926 28.7076L2.29255 16.7076C2.19958 16.6147 2.12582 16.5044 2.07549 16.383C2.02517 16.2616 1.99927 16.1315 1.99927 16.0001C1.99927 15.8686 2.02517 15.7385 2.07549 15.6171C2.12582 15.4957 2.19958 15.3854 2.29255 15.2926L14.2926 3.29256C14.4324 3.15254 14.6107 3.05718 14.8047 3.01853C14.9988 2.97988 15.2 2.99968 15.3828 3.07543C15.5657 3.15119 15.7219 3.27948 15.8318 3.44407C15.9416 3.60867 16.0002 3.80216 16.0001 4.00006V9.00006H26.0001C26.5305 9.00006 27.0392 9.21077 27.4143 9.58584C27.7893 9.96092 28.0001 10.4696 28.0001 11.0001Z" fill="black"/>
</svg>
