<svg width="32" height="32" viewBox="0 0 32 32" fill="none" xmlns="http://www.w3.org/2000/svg">
<path d="M14.3538 21.6462C14.4003 21.6926 14.4372 21.7477 14.4623 21.8084C14.4875 21.8691 14.5004 21.9342 14.5004 21.9999C14.5004 22.0656 14.4875 22.1307 14.4623 22.1914C14.4372 22.2521 14.4003 22.3072 14.3538 22.3537L10.3538 26.3537C10.3073 26.4001 10.2522 26.437 10.1915 26.4622C10.1308 26.4873 10.0657 26.5003 10 26.5003C9.93433 26.5003 9.86926 26.4873 9.80856 26.4622C9.74786 26.437 9.69272 26.4001 9.64628 26.3537L5.64628 22.3537C5.55246 22.2598 5.49976 22.1326 5.49976 21.9999C5.49976 21.8672 5.55246 21.74 5.64628 21.6462C5.7401 21.5523 5.86735 21.4996 6.00003 21.4996C6.13272 21.4996 6.25996 21.5523 6.35378 21.6462L9.50003 24.7924V5.99991C9.50003 5.8673 9.55271 5.74012 9.64648 5.64635C9.74025 5.55258 9.86743 5.49991 10 5.49991C10.1326 5.49991 10.2598 5.55258 10.3536 5.64635C10.4474 5.74012 10.5 5.8673 10.5 5.99991V24.7924L13.6463 21.6462C13.6927 21.5997 13.7479 21.5628 13.8086 21.5376C13.8693 21.5125 13.9343 21.4995 14 21.4995C14.0657 21.4995 14.1308 21.5125 14.1915 21.5376C14.2522 21.5628 14.3073 21.5997 14.3538 21.6462ZM26.3538 9.64615L22.3538 5.64615C22.3073 5.59967 22.2522 5.56279 22.1915 5.53763C22.1308 5.51246 22.0657 5.49951 22 5.49951C21.9343 5.49951 21.8693 5.51246 21.8086 5.53763C21.7479 5.56279 21.6927 5.59967 21.6463 5.64615L17.6463 9.64615C17.5525 9.73997 17.4998 9.86722 17.4998 9.99991C17.4998 10.1326 17.5525 10.2598 17.6463 10.3537C17.7401 10.4475 17.8674 10.5002 18 10.5002C18.1327 10.5002 18.26 10.4475 18.3538 10.3537L21.5 7.20741V25.9999C21.5 26.1325 21.5527 26.2597 21.6465 26.3535C21.7402 26.4472 21.8674 26.4999 22 26.4999C22.1326 26.4999 22.2598 26.4472 22.3536 26.3535C22.4474 26.2597 22.5 26.1325 22.5 25.9999V7.20741L25.6463 10.3537C25.6927 10.4001 25.7479 10.437 25.8086 10.4621C25.8693 10.4872 25.9343 10.5002 26 10.5002C26.0657 10.5002 26.1308 10.4872 26.1915 10.4621C26.2522 10.437 26.3073 10.4001 26.3538 10.3537C26.4002 10.3072 26.4371 10.252 26.4622 10.1914C26.4874 10.1307 26.5003 10.0656 26.5003 9.99991C26.5003 9.93421 26.4874 9.86915 26.4622 9.80846C26.4371 9.74776 26.4002 9.69261 26.3538 9.64615Z" fill="black"/>
</svg>
