<svg width="32" height="32" viewBox="0 0 32 32" fill="none" xmlns="http://www.w3.org/2000/svg">
<path d="M28.7501 7C28.7461 10.3803 27.4015 13.621 25.0113 16.0112C22.6211 18.4015 19.3804 19.746 16.0001 19.75H5.81132L10.5301 24.47C10.6038 24.5387 10.6629 24.6215 10.7039 24.7135C10.7448 24.8055 10.7669 24.9048 10.7687 25.0055C10.7704 25.1062 10.7519 25.2062 10.7142 25.2996C10.6765 25.393 10.6203 25.4778 10.5491 25.549C10.4779 25.6203 10.3931 25.6764 10.2997 25.7141C10.2063 25.7518 10.1063 25.7704 10.0056 25.7686C9.90485 25.7668 9.80553 25.7448 9.71353 25.7038C9.62153 25.6628 9.53873 25.6037 9.47007 25.53L3.47007 19.53C3.32962 19.3894 3.25073 19.1988 3.25073 19C3.25073 18.8012 3.32962 18.6106 3.47007 18.47L9.47007 12.47C9.61225 12.3375 9.80029 12.2654 9.99459 12.2688C10.1889 12.2723 10.3743 12.351 10.5117 12.4884C10.6491 12.6258 10.7278 12.8112 10.7312 13.0055C10.7347 13.1998 10.6626 13.3878 10.5301 13.53L5.81132 18.25H16.0001C18.9827 18.2467 21.8423 17.0604 23.9514 14.9513C26.0604 12.8422 27.2468 9.98267 27.2501 7C27.2501 6.80109 27.3291 6.61032 27.4697 6.46967C27.6104 6.32902 27.8012 6.25 28.0001 6.25C28.199 6.25 28.3898 6.32902 28.5304 6.46967C28.6711 6.61032 28.7501 6.80109 28.7501 7Z" fill="black"/>
</svg>
