<svg width="32" height="32" viewBox="0 0 32 32" fill="none" xmlns="http://www.w3.org/2000/svg">
<path d="M11.0613 17.9387C11.3431 18.2205 11.5014 18.6027 11.5014 19.0012C11.5014 19.3997 11.3431 19.7819 11.0613 20.0637C10.7795 20.3455 10.3973 20.5038 9.9988 20.5038C9.60029 20.5038 9.21809 20.3455 8.9363 20.0637L2.9363 14.0637C2.79646 13.9244 2.6855 13.7588 2.6098 13.5765C2.53409 13.3941 2.49512 13.1986 2.49512 13.0012C2.49512 12.8038 2.53409 12.6083 2.6098 12.426C2.6855 12.2437 2.79646 12.0781 2.9363 11.9387L8.9363 5.93872C9.21809 5.65693 9.60029 5.49862 9.9988 5.49862C10.3973 5.49862 10.7795 5.65693 11.0613 5.93872C11.3431 6.22052 11.5014 6.60271 11.5014 7.00122C11.5014 7.39974 11.3431 7.78193 11.0613 8.06372L6.12505 13L11.0613 17.9387ZM16 11.5H14.625L18.0651 8.05998C18.2046 7.92045 18.3153 7.7548 18.3908 7.5725C18.4663 7.39019 18.5052 7.1948 18.5052 6.99747C18.5052 6.80015 18.4663 6.60476 18.3908 6.42245C18.3153 6.24015 18.2046 6.0745 18.0651 5.93497C17.9255 5.79545 17.7599 5.68476 17.5776 5.60925C17.3953 5.53374 17.1999 5.49487 17.0026 5.49487C16.604 5.49487 16.2218 5.65318 15.9401 5.93497L9.94005 11.935C9.80021 12.0743 9.68925 12.2399 9.61355 12.4222C9.53784 12.6046 9.49887 12.8001 9.49887 12.9975C9.49887 13.1949 9.53784 13.3904 9.61355 13.5727C9.68925 13.755 9.80021 13.9206 9.94005 14.06L15.9401 20.06C16.2218 20.3418 16.604 20.5001 17.0026 20.5001C17.4011 20.5001 17.7833 20.3418 18.0651 20.06C18.3468 19.7782 18.5052 19.396 18.5052 18.9975C18.5052 18.599 18.3468 18.2168 18.0651 17.935L14.625 14.5H16C18.7839 14.503 21.4529 15.6102 23.4214 17.5786C25.3899 19.5471 26.4971 22.2161 26.5 25C26.5 25.3978 26.6581 25.7793 26.9394 26.0606C27.2207 26.3419 27.6022 26.5 28 26.5C28.3979 26.5 28.7794 26.3419 29.0607 26.0606C29.342 25.7793 29.5 25.3978 29.5 25C29.4961 21.4208 28.0725 17.9893 25.5416 15.4584C23.0107 12.9275 19.5793 11.5039 16 11.5Z" fill="black"/>
</svg>
