<svg width="32" height="32" viewBox="0 0 32 32" fill="none" xmlns="http://www.w3.org/2000/svg">
<path d="M27.0613 23.0612L23.0613 27.0612C22.7795 27.343 22.3973 27.5013 21.9988 27.5013C21.6003 27.5013 21.2181 27.343 20.9363 27.0612C20.6545 26.7794 20.4962 26.3972 20.4962 25.9987C20.4962 25.6002 20.6545 25.218 20.9363 24.9362L22.375 23.4999H6.00005C5.60223 23.4999 5.22069 23.3419 4.93939 23.0606C4.65809 22.7793 4.50005 22.3978 4.50005 21.9999C4.50005 21.6021 4.65809 21.2206 4.93939 20.9393C5.22069 20.658 5.60223 20.4999 6.00005 20.4999H22.375L20.935 19.0612C20.6533 18.7794 20.4949 18.3972 20.4949 17.9987C20.4949 17.6002 20.6533 17.218 20.935 16.9362C21.2168 16.6544 21.599 16.4961 21.9975 16.4961C22.3961 16.4961 22.7783 16.6544 23.06 16.9362L27.06 20.9362C27.2 21.0755 27.311 21.241 27.3868 21.4233C27.4627 21.6056 27.5017 21.801 27.5019 21.9984C27.502 22.1959 27.4631 22.3914 27.3875 22.5737C27.3119 22.7561 27.2011 22.9218 27.0613 23.0612ZM8.9363 15.0612C9.21809 15.343 9.60029 15.5013 9.9988 15.5013C10.3973 15.5013 10.7795 15.343 11.0613 15.0612C11.3431 14.7794 11.5014 14.3972 11.5014 13.9987C11.5014 13.6002 11.3431 13.218 11.0613 12.9362L9.62505 11.4999H26C26.3979 11.4999 26.7794 11.3419 27.0607 11.0606C27.342 10.7793 27.5 10.3978 27.5 9.99995C27.5 9.60212 27.342 9.22059 27.0607 8.93929C26.7794 8.65798 26.3979 8.49995 26 8.49995H9.62505L11.0613 7.0612C11.3431 6.7794 11.5014 6.39721 11.5014 5.9987C11.5014 5.60018 11.3431 5.21799 11.0613 4.9362C10.7795 4.6544 10.3973 4.49609 9.9988 4.49609C9.60029 4.49609 9.21809 4.6544 8.9363 4.9362L4.9363 8.9362C4.79646 9.07555 4.6855 9.24114 4.6098 9.42347C4.53409 9.6058 4.49512 9.80127 4.49512 9.9987C4.49512 10.1961 4.53409 10.3916 4.6098 10.5739C4.6855 10.7563 4.79646 10.9218 4.9363 11.0612L8.9363 15.0612Z" fill="black"/>
</svg>
