<svg width="32" height="32" viewBox="0 0 32 32" fill="none" xmlns="http://www.w3.org/2000/svg">
<path d="M29.0613 13.9387L17.0613 1.93874C16.9219 1.7989 16.7563 1.68795 16.574 1.61224C16.3917 1.53653 16.1962 1.49756 15.9988 1.49756C15.8014 1.49756 15.6059 1.53653 15.4235 1.61224C15.2412 1.68795 15.0756 1.7989 14.9363 1.93874L2.93627 13.9387C2.7261 14.1487 2.583 14.4163 2.5251 14.7076C2.46721 14.999 2.49712 15.301 2.61106 15.5753C2.725 15.8497 2.91783 16.084 3.16511 16.2486C3.41238 16.4132 3.70297 16.5007 4.00002 16.5H8.50002V17C8.50002 17.3978 8.65806 17.7793 8.93936 18.0606C9.22067 18.342 9.6022 18.5 10 18.5H22C22.3978 18.5 22.7794 18.342 23.0607 18.0606C23.342 17.7793 23.5 17.3978 23.5 17V16.5H28C28.2969 16.5002 28.5871 16.4124 28.834 16.2476C29.0809 16.0828 29.2733 15.8484 29.387 15.5742C29.5006 15.2999 29.5303 14.9982 29.4723 14.707C29.4143 14.4159 29.2713 14.1485 29.0613 13.9387ZM22 13.5C21.6022 13.5 21.2207 13.658 20.9394 13.9393C20.6581 14.2206 20.5 14.6022 20.5 15V15.5H11.5V15C11.5 14.6022 11.342 14.2206 11.0607 13.9393C10.7794 13.658 10.3978 13.5 10 13.5H7.62502L16 5.12499L24.375 13.5H22ZM23.5 27C23.5 27.3978 23.342 27.7793 23.0607 28.0606C22.7794 28.342 22.3978 28.5 22 28.5H10C9.6022 28.5 9.22067 28.342 8.93936 28.0606C8.65806 27.7793 8.50002 27.3978 8.50002 27C8.50002 26.6022 8.65806 26.2206 8.93936 25.9393C9.22067 25.658 9.6022 25.5 10 25.5H22C22.3978 25.5 22.7794 25.658 23.0607 25.9393C23.342 26.2206 23.5 26.6022 23.5 27ZM23.5 22C23.5 22.3978 23.342 22.7793 23.0607 23.0606C22.7794 23.342 22.3978 23.5 22 23.5H10C9.6022 23.5 9.22067 23.342 8.93936 23.0606C8.65806 22.7793 8.50002 22.3978 8.50002 22C8.50002 21.6022 8.65806 21.2206 8.93936 20.9393C9.22067 20.658 9.6022 20.5 10 20.5H22C22.3978 20.5 22.7794 20.658 23.0607 20.9393C23.342 21.2206 23.5 21.6022 23.5 22Z" fill="black"/>
</svg>
