<svg width="32" height="32" viewBox="0 0 32 32" fill="none" xmlns="http://www.w3.org/2000/svg">
<path opacity="0.08" d="M28 11L22 17V5L28 11Z" fill="black"/>
<path d="M21.6175 17.9238C21.8002 17.9996 22.0013 18.0195 22.1953 17.981C22.3893 17.9425 22.5676 17.8474 22.7075 17.7076L28.7075 11.7076C28.8005 11.6147 28.8742 11.5044 28.9246 11.383C28.9749 11.2616 29.0008 11.1315 29.0008 11.0001C29.0008 10.8686 28.9749 10.7385 28.9246 10.6171C28.8742 10.4957 28.8005 10.3854 28.7075 10.2926L22.7075 4.29256C22.5676 4.15254 22.3894 4.05718 22.1953 4.01853C22.0012 3.97988 21.8 3.99968 21.6172 4.07543C21.4344 4.15119 21.2782 4.27948 21.1683 4.44407C21.0584 4.60867 20.9998 4.80216 21 5.00006V10.0001H11C8.87827 10.0001 6.84344 10.8429 5.34315 12.3432C3.84285 13.8435 3 15.8783 3 18.0001C3 20.1218 3.84285 22.1566 5.34315 23.6569C6.84344 25.1572 8.87827 26.0001 11 26.0001H22C22.2652 26.0001 22.5196 25.8947 22.7071 25.7072C22.8946 25.5196 23 25.2653 23 25.0001C23 24.7348 22.8946 24.4805 22.7071 24.2929C22.5196 24.1054 22.2652 24.0001 22 24.0001H11C9.4087 24.0001 7.88258 23.3679 6.75736 22.2427C5.63214 21.1175 5 19.5914 5 18.0001C5 16.4088 5.63214 14.8826 6.75736 13.7574C7.88258 12.6322 9.4087 12.0001 11 12.0001H21V17.0001C21 17.1978 21.0587 17.3912 21.1686 17.5556C21.2786 17.72 21.4348 17.8482 21.6175 17.9238ZM23 7.41381L26.5863 11.0001L23 14.5863V7.41381Z" fill="black"/>
</svg>
