<svg width="32" height="32" viewBox="0 0 32 32" fill="none" xmlns="http://www.w3.org/2000/svg">
<path d="M26.0001 10.0001V21.0001C26.0001 23.1218 25.1572 25.1566 23.6569 26.6569C22.1566 28.1572 20.1218 29.0001 18.0001 29.0001C15.8783 29.0001 13.8435 28.1572 12.3432 26.6569C10.8429 25.1566 10.0001 23.1218 10.0001 21.0001V11.0001H5.00006C4.80216 11.0002 4.60867 10.9416 4.44407 10.8318C4.27948 10.7219 4.15119 10.5657 4.07543 10.3828C3.99968 10.2 3.97988 9.99883 4.01853 9.80475C4.05718 9.61066 4.15254 9.43241 4.29256 9.29255L10.2926 3.29255C10.3854 3.19958 10.4957 3.12582 10.6171 3.07549C10.7385 3.02517 10.8686 2.99927 11.0001 2.99927C11.1315 2.99927 11.2616 3.02517 11.383 3.07549C11.5044 3.12582 11.6147 3.19958 11.7076 3.29255L17.7076 9.29255C17.8476 9.43241 17.9429 9.61066 17.9816 9.80475C18.0202 9.99883 18.0004 10.2 17.9247 10.3828C17.8489 10.5657 17.7206 10.7219 17.556 10.8318C17.3914 10.9416 17.198 11.0002 17.0001 11.0001H12.0001V21.0001C12.0001 22.5914 12.6322 24.1175 13.7574 25.2427C14.8826 26.3679 16.4088 27.0001 18.0001 27.0001C19.5914 27.0001 21.1175 26.3679 22.2427 25.2427C23.3679 24.1175 24.0001 22.5914 24.0001 21.0001V10.0001C24.0001 9.73484 24.1054 9.48048 24.2929 9.29295C24.4805 9.10541 24.7348 9.00005 25.0001 9.00005C25.2653 9.00005 25.5196 9.10541 25.7072 9.29295C25.8947 9.48048 26.0001 9.73484 26.0001 10.0001Z" fill="black"/>
</svg>
