<svg width="32" height="32" viewBox="0 0 32 32" fill="none" xmlns="http://www.w3.org/2000/svg">
<path d="M25.5301 18.53L16.5301 27.53C16.3895 27.6705 16.1988 27.7493 16.0001 27.7493C15.8013 27.7493 15.6107 27.6705 15.4701 27.53L6.47009 18.53C6.33761 18.3878 6.26549 18.1998 6.26892 18.0055C6.27234 17.8112 6.35106 17.6258 6.48847 17.4884C6.62588 17.351 6.81127 17.2723 7.00557 17.2688C7.19987 17.2654 7.38792 17.3375 7.53009 17.47L15.2501 25.1887V5C15.2501 4.80109 15.3291 4.61032 15.4698 4.46967C15.6104 4.32902 15.8012 4.25 16.0001 4.25C16.199 4.25 16.3898 4.32902 16.5304 4.46967C16.6711 4.61032 16.7501 4.80109 16.7501 5V25.1887L24.4701 17.47C24.6123 17.3375 24.8003 17.2654 24.9946 17.2688C25.1889 17.2723 25.3743 17.351 25.5117 17.4884C25.6491 17.6258 25.7278 17.8112 25.7313 18.0055C25.7347 18.1998 25.6626 18.3878 25.5301 18.53Z" fill="black"/>
</svg>
