<svg width="32" height="32" viewBox="0 0 32 32" fill="none" xmlns="http://www.w3.org/2000/svg">
<path opacity="0.08" d="M10 5V17L4 11L10 5Z" fill="black"/>
<path d="M21.0001 10.0001H11.0001V5.00006C11.0002 4.80216 10.9416 4.60867 10.8318 4.44407C10.7219 4.27948 10.5657 4.15119 10.3828 4.07543C10.2 3.99968 9.99883 3.97988 9.80475 4.01853C9.61066 4.05718 9.43241 4.15254 9.29255 4.29256L3.29255 10.2926C3.19958 10.3854 3.12582 10.4957 3.07549 10.6171C3.02517 10.7385 2.99927 10.8686 2.99927 11.0001C2.99927 11.1315 3.02517 11.2616 3.07549 11.383C3.12582 11.5044 3.19958 11.6147 3.29255 11.7076L9.29255 17.7076C9.43241 17.8476 9.61066 17.9429 9.80475 17.9816C9.99883 18.0202 10.2 18.0004 10.3828 17.9247C10.5657 17.8489 10.7219 17.7206 10.8318 17.556C10.9416 17.3914 11.0002 17.198 11.0001 17.0001V12.0001H21.0001C22.5914 12.0001 24.1175 12.6322 25.2427 13.7574C26.3679 14.8826 27.0001 16.4088 27.0001 18.0001C27.0001 19.5914 26.3679 21.1175 25.2427 22.2427C24.1175 23.3679 22.5914 24.0001 21.0001 24.0001H10.0001C9.73484 24.0001 9.48048 24.1054 9.29295 24.2929C9.10541 24.4805 9.00005 24.7348 9.00005 25.0001C9.00005 25.2653 9.10541 25.5196 9.29295 25.7072C9.48048 25.8947 9.73484 26.0001 10.0001 26.0001H21.0001C23.1218 26.0001 25.1566 25.1572 26.6569 23.6569C28.1572 22.1566 29.0001 20.1218 29.0001 18.0001C29.0001 15.8783 28.1572 13.8435 26.6569 12.3432C25.1566 10.8429 23.1218 10.0001 21.0001 10.0001ZM9.00005 14.5863L5.4138 11.0001L9.00005 7.41381V14.5863Z" fill="black"/>
</svg>
