<svg width="32" height="32" viewBox="0 0 32 32" fill="none" xmlns="http://www.w3.org/2000/svg">
<path d="M29.5 10V19C29.5 19.1326 29.4474 19.2598 29.3536 19.3536C29.2598 19.4473 29.1326 19.5 29 19.5C28.8674 19.5 28.7402 19.4473 28.6465 19.3536C28.5527 19.2598 28.5 19.1326 28.5 19V11.2075L15.3538 24.3538C15.3073 24.4002 15.2522 24.4371 15.1915 24.4623C15.1308 24.4874 15.0657 24.5004 15 24.5004C14.9343 24.5004 14.8693 24.4874 14.8086 24.4623C14.7479 24.4371 14.6927 24.4002 14.6463 24.3538L2.64628 12.3538C2.55246 12.2599 2.49976 12.1327 2.49976 12C2.49976 11.8673 2.55246 11.7401 2.64628 11.6462C2.7401 11.5524 2.86735 11.4997 3.00003 11.4997C3.13272 11.4997 3.25996 11.5524 3.35378 11.6462L15 23.2925L27.7925 10.5H20C19.8674 10.5 19.7402 10.4473 19.6465 10.3536C19.5527 10.2598 19.5 10.1326 19.5 10C19.5 9.86739 19.5527 9.74021 19.6465 9.64645C19.7402 9.55268 19.8674 9.5 20 9.5H29C29.1326 9.5 29.2598 9.55268 29.3536 9.64645C29.4474 9.74021 29.5 9.86739 29.5 10Z" fill="black"/>
</svg>
