<svg width="32" height="32" viewBox="0 0 32 32" fill="none" xmlns="http://www.w3.org/2000/svg">
<path opacity="0.08" d="M16 7V19L10 13L16 7Z" fill="black"/>
<path d="M10.7076 18.2925C10.8952 18.4801 11.0006 18.7346 11.0006 19C11.0006 19.2654 10.8952 19.5199 10.7076 19.7075C10.5199 19.8951 10.2654 20.0006 10.0001 20.0006C9.73469 20.0006 9.48019 19.8951 9.29255 19.7075L3.29255 13.7075C3.19958 13.6146 3.12582 13.5043 3.07549 13.3829C3.02517 13.2615 2.99927 13.1314 2.99927 13C2.99927 12.8686 3.02517 12.7385 3.07549 12.6171C3.12582 12.4957 3.19958 12.3854 3.29255 12.2925L9.29255 6.29249C9.48019 6.10485 9.73469 5.99944 10.0001 5.99944C10.2654 5.99944 10.5199 6.10485 10.7076 6.29249C10.8952 6.48013 11.0006 6.73463 11.0006 6.99999C11.0006 7.26536 10.8952 7.51985 10.7076 7.70749L5.4138 13L10.7076 18.2925ZM29.0001 25C29.0001 25.2652 28.8947 25.5196 28.7072 25.7071C28.5196 25.8946 28.2653 26 28.0001 26C27.7348 26 27.4805 25.8946 27.2929 25.7071C27.1054 25.5196 27.0001 25.2652 27.0001 25C26.9968 22.2568 25.9698 19.6135 24.1203 17.5875C22.2707 15.5616 19.7317 14.2987 17.0001 14.0462V19C17.0002 19.1979 16.9416 19.3914 16.8318 19.556C16.7219 19.7206 16.5657 19.8489 16.3828 19.9246C16.2 20.0004 15.9988 20.0202 15.8047 19.9815C15.6107 19.9429 15.4324 19.8475 15.2926 19.7075L9.29255 13.7075C9.19958 13.6146 9.12582 13.5043 9.07549 13.3829C9.02517 13.2615 8.99927 13.1314 8.99927 13C8.99927 12.8686 9.02517 12.7385 9.07549 12.6171C9.12582 12.4957 9.19958 12.3854 9.29255 12.2925L15.2926 6.29249C15.4324 6.15248 15.6107 6.05712 15.8047 6.01846C15.9988 5.97981 16.2 5.99962 16.3828 6.07537C16.5657 6.15112 16.7219 6.27942 16.8318 6.44401C16.9416 6.60861 17.0002 6.8021 17.0001 6.99999V12.0375C20.2636 12.2937 23.3109 13.7699 25.5348 16.1722C27.7587 18.5745 28.9959 21.7264 29.0001 25ZM15.0001 9.41374L11.4138 13L15.0001 16.5862V9.41374Z" fill="black"/>
</svg>
