<svg width="32" height="32" viewBox="0 0 32 32" fill="none" xmlns="http://www.w3.org/2000/svg">
<path d="M25.0001 4V22C25.0001 22.2652 24.8947 22.5196 24.7072 22.7071C24.5196 22.8946 24.2653 23 24.0001 23H13.0001V28C13.0002 28.1979 12.9416 28.3914 12.8318 28.556C12.7219 28.7206 12.5657 28.8489 12.3828 28.9246C12.2 29.0004 11.9988 29.0202 11.8047 28.9815C11.6107 28.9429 11.4324 28.8475 11.2926 28.7075L5.29255 22.7075C5.19958 22.6146 5.12582 22.5043 5.07549 22.3829C5.02517 22.2615 4.99927 22.1314 4.99927 22C4.99927 21.8686 5.02517 21.7385 5.07549 21.6171C5.12582 21.4957 5.19958 21.3854 5.29255 21.2925L11.2926 15.2925C11.4324 15.1525 11.6107 15.0571 11.8047 15.0185C11.9988 14.9798 12.2 14.9996 12.3828 15.0754C12.5657 15.1511 12.7219 15.2794 12.8318 15.444C12.9416 15.6086 13.0002 15.8021 13.0001 16V21H23.0001V4C23.0001 3.73478 23.1054 3.48043 23.2929 3.29289C23.4805 3.10536 23.7348 3 24.0001 3C24.2653 3 24.5196 3.10536 24.7072 3.29289C24.8947 3.48043 25.0001 3.73478 25.0001 4Z" fill="black"/>
</svg>
