<svg width="32" height="32" viewBox="0 0 32 32" fill="none" xmlns="http://www.w3.org/2000/svg">
<path d="M26 8.50005H16.5V4.00005C16.5 3.70332 16.412 3.41325 16.2471 3.16655C16.0821 2.91985 15.8478 2.7276 15.5736 2.61413C15.2994 2.50066 14.9977 2.47106 14.7067 2.52907C14.4157 2.58709 14.1484 2.73011 13.9387 2.94005L1.93874 14.9401C1.7989 15.0794 1.68795 15.245 1.61224 15.4273C1.53653 15.6097 1.49756 15.8051 1.49756 16.0026C1.49756 16.2 1.53653 16.3955 1.61224 16.5778C1.68795 16.7601 1.7989 16.9257 1.93874 17.0651L13.9387 29.0651C14.1488 29.2753 14.4165 29.4184 14.708 29.4763C14.9994 29.5341 15.3015 29.5041 15.5759 29.39C15.8503 29.2759 16.0846 29.0829 16.2491 28.8354C16.4137 28.588 16.501 28.2972 16.5 28.0001V23.5001H26C26.663 23.5001 27.2989 23.2367 27.7678 22.7678C28.2366 22.299 28.5 21.6631 28.5 21.0001V11.0001C28.5 10.337 28.2366 9.70113 27.7678 9.23229C27.2989 8.76344 26.663 8.50005 26 8.50005ZM25.5 20.5001H15C14.6022 20.5001 14.2206 20.6581 13.9393 20.9394C13.658 21.2207 13.5 21.6022 13.5 22.0001V24.3751L5.12499 16.0001L13.5 7.62505V10.0001C13.5 10.3979 13.658 10.7794 13.9393 11.0607C14.2206 11.342 14.6022 11.5001 15 11.5001H25.5V20.5001Z" fill="black"/>
</svg>
