<svg width="32" height="32" viewBox="0 0 32 32" fill="none" xmlns="http://www.w3.org/2000/svg">
<path d="M28.5 8C28.5 8.13261 28.4474 8.25979 28.3536 8.35355C28.2598 8.44732 28.1326 8.5 28 8.5H10.5V24.7925L15.6463 19.6462C15.7401 19.5524 15.8674 19.4997 16 19.4997C16.1327 19.4997 16.26 19.5524 16.3538 19.6462C16.4476 19.7401 16.5003 19.8673 16.5003 20C16.5003 20.1327 16.4476 20.2599 16.3538 20.3538L10.3538 26.3538C10.3073 26.4002 10.2522 26.4371 10.1915 26.4623C10.1308 26.4874 10.0657 26.5004 10 26.5004C9.93433 26.5004 9.86926 26.4874 9.80856 26.4623C9.74786 26.4371 9.69272 26.4002 9.64628 26.3538L3.64628 20.3538C3.55246 20.2599 3.49976 20.1327 3.49976 20C3.49976 19.8673 3.55246 19.7401 3.64628 19.6462C3.7401 19.5524 3.86735 19.4997 4.00003 19.4997C4.13272 19.4997 4.25996 19.5524 4.35378 19.6462L9.50003 24.7925V8C9.50003 7.86739 9.55271 7.74021 9.64648 7.64645C9.74025 7.55268 9.86743 7.5 10 7.5H28C28.1326 7.5 28.2598 7.55268 28.3536 7.64645C28.4474 7.74021 28.5 7.86739 28.5 8Z" fill="black"/>
</svg>
