<svg width="32" height="32" viewBox="0 0 32 32" fill="none" xmlns="http://www.w3.org/2000/svg">
<path d="M27.0611 7.05997L22.1249 12H24.4999C24.8977 12 25.2792 12.158 25.5605 12.4393C25.8419 12.7206 25.9999 13.1022 25.9999 13.5C25.9999 13.8978 25.8419 14.2793 25.5605 14.5606C25.2792 14.8419 24.8977 15 24.4999 15H18.4999C18.1021 15 17.7205 14.8419 17.4392 14.5606C17.1579 14.2793 16.9999 13.8978 16.9999 13.5V7.49997C16.9999 7.10215 17.1579 6.72062 17.4392 6.43931C17.7205 6.15801 18.1021 5.99997 18.4999 5.99997C18.8977 5.99997 19.2792 6.15801 19.5605 6.43931C19.8419 6.72062 19.9999 7.10215 19.9999 7.49997V9.87497L24.9386 4.93497C25.2204 4.65318 25.6026 4.49487 26.0011 4.49487C26.3997 4.49487 26.7818 4.65318 27.0636 4.93497C27.3454 5.21677 27.5037 5.59896 27.5037 5.99747C27.5037 6.39599 27.3454 6.77818 27.0636 7.05997H27.0611ZM13.4999 17H7.49989C7.10206 17 6.72053 17.158 6.43923 17.4393C6.15792 17.7206 5.99989 18.1022 5.99989 18.5C5.99989 18.8978 6.15792 19.2793 6.43923 19.5606C6.72053 19.8419 7.10206 20 7.49989 20H9.87489L4.93864 24.9387C4.65684 25.2205 4.49854 25.6027 4.49854 26.0012C4.49854 26.3997 4.65684 26.7819 4.93864 27.0637C5.22043 27.3455 5.60262 27.5038 6.00114 27.5038C6.39965 27.5038 6.78184 27.3455 7.06364 27.0637L11.9999 22.125V24.5C11.9999 24.8978 12.1579 25.2793 12.4392 25.5606C12.7205 25.8419 13.1021 26 13.4999 26C13.8977 26 14.2792 25.8419 14.5605 25.5606C14.8419 25.2793 14.9999 24.8978 14.9999 24.5V18.5C14.9999 18.1022 14.8419 17.7206 14.5605 17.4393C14.2792 17.158 13.8977 17 13.4999 17Z" fill="black"/>
</svg>
