<svg width="32" height="32" viewBox="0 0 32 32" fill="none" xmlns="http://www.w3.org/2000/svg">
<path d="M25.3538 14.3537C25.3073 14.4001 25.2522 14.437 25.1915 14.4622C25.1308 14.4873 25.0657 14.5003 25 14.5003C24.9343 14.5003 24.8693 14.4873 24.8086 14.4622C24.7479 14.437 24.6927 14.4001 24.6463 14.3537L16.5 6.20741V26.9999C16.5 27.1325 16.4474 27.2597 16.3536 27.3535C16.2598 27.4472 16.1326 27.4999 16 27.4999C15.8674 27.4999 15.7402 27.4472 15.6465 27.3535C15.5527 27.2597 15.5 27.1325 15.5 26.9999V6.20741L7.35378 14.3537C7.30733 14.4001 7.25218 14.437 7.19148 14.4621C7.13079 14.4872 7.06573 14.5002 7.00003 14.5002C6.93434 14.5002 6.86928 14.4872 6.80859 14.4621C6.74789 14.437 6.69274 14.4001 6.64628 14.3537C6.59983 14.3072 6.56298 14.252 6.53784 14.1914C6.5127 14.1307 6.49976 14.0656 6.49976 13.9999C6.49976 13.9342 6.5127 13.8692 6.53784 13.8085C6.56298 13.7478 6.59983 13.6926 6.64628 13.6462L15.6463 4.64615C15.6927 4.59967 15.7479 4.56279 15.8086 4.53763C15.8693 4.51246 15.9343 4.49951 16 4.49951C16.0657 4.49951 16.1308 4.51246 16.1915 4.53763C16.2522 4.56279 16.3073 4.59967 16.3538 4.64615L25.3538 13.6462C25.4003 13.6926 25.4372 13.7477 25.4623 13.8084C25.4875 13.8691 25.5004 13.9342 25.5004 13.9999C25.5004 14.0656 25.4875 14.1307 25.4623 14.1914C25.4372 14.2521 25.4003 14.3072 25.3538 14.3537Z" fill="black"/>
</svg>
