<svg width="32" height="32" viewBox="0 0 32 32" fill="none" xmlns="http://www.w3.org/2000/svg">
<path d="M27.9237 10.3826C27.8481 10.5653 27.72 10.7215 27.5555 10.8314C27.3911 10.9413 27.1978 11 27 11.0001H22V21.0001C22 23.1218 21.1571 25.1566 19.6569 26.6569C18.1566 28.1572 16.1217 29.0001 14 29.0001C11.8783 29.0001 9.84344 28.1572 8.34315 26.6569C6.84285 25.1566 6 23.1218 6 21.0001V10.0001C6 9.73484 6.10536 9.48048 6.29289 9.29295C6.48043 9.10541 6.73478 9.00005 7 9.00005C7.26522 9.00005 7.51957 9.10541 7.70711 9.29295C7.89464 9.48048 8 9.73484 8 10.0001V21.0001C8 22.5914 8.63214 24.1175 9.75736 25.2427C10.8826 26.3679 12.4087 27.0001 14 27.0001C15.5913 27.0001 17.1174 26.3679 18.2426 25.2427C19.3679 24.1175 20 22.5914 20 21.0001V11.0001H15C14.8021 11.0002 14.6086 10.9416 14.444 10.8318C14.2794 10.7219 14.1511 10.5657 14.0754 10.3828C13.9996 10.2 13.9798 9.99883 14.0185 9.80475C14.0571 9.61066 14.1525 9.43241 14.2925 9.29255L20.2925 3.29255C20.3854 3.19958 20.4957 3.12582 20.6171 3.07549C20.7385 3.02517 20.8686 2.99927 21 2.99927C21.1314 2.99927 21.2615 3.02517 21.3829 3.07549C21.5043 3.12582 21.6146 3.19958 21.7075 3.29255L27.7075 9.29255C27.8473 9.43248 27.9425 9.61073 27.981 9.80475C28.0195 9.99877 27.9995 10.1999 27.9237 10.3826Z" fill="black"/>
</svg>
