<svg width="32" height="32" viewBox="0 0 32 32" fill="none" xmlns="http://www.w3.org/2000/svg">
<path d="M21.47 16.4701L26.1887 11.7501H11C9.3424 11.7501 7.75269 12.4086 6.58058 13.5807C5.40848 14.7528 4.75 16.3425 4.75 18.0001C4.75 19.6577 5.40848 21.2474 6.58058 22.4195C7.75269 23.5916 9.3424 24.2501 11 24.2501H22C22.1989 24.2501 22.3897 24.3291 22.5303 24.4698C22.671 24.6104 22.75 24.8012 22.75 25.0001C22.75 25.199 22.671 25.3898 22.5303 25.5304C22.3897 25.6711 22.1989 25.7501 22 25.7501H11C8.94457 25.7501 6.97333 24.9336 5.51992 23.4802C4.06652 22.0268 3.25 20.0555 3.25 18.0001C3.25 15.9447 4.06652 13.9734 5.51992 12.52C6.97333 11.0666 8.94457 10.2501 11 10.2501H26.1887L21.47 5.53009C21.3375 5.38792 21.2654 5.19987 21.2688 5.00557C21.2723 4.81127 21.351 4.62588 21.4884 4.48847C21.6258 4.35106 21.8112 4.27234 22.0055 4.26892C22.1998 4.26549 22.3878 4.33761 22.53 4.47009L28.53 10.4701C28.6705 10.6107 28.7493 10.8013 28.7493 11.0001C28.7493 11.1988 28.6705 11.3895 28.53 11.5301L22.53 17.5301C22.3878 17.6626 22.1998 17.7347 22.0055 17.7313C21.8112 17.7278 21.6258 17.6491 21.4884 17.5117C21.351 17.3743 21.2723 17.1889 21.2688 16.9946C21.2654 16.8003 21.3375 16.6123 21.47 16.4701Z" fill="black"/>
</svg>
