<svg width="32" height="32" viewBox="0 0 32 32" fill="none" xmlns="http://www.w3.org/2000/svg">
<path d="M29.0611 24.0613L25.0611 28.0613C24.9218 28.2011 24.7562 28.312 24.5739 28.3878C24.3915 28.4635 24.1961 28.5024 23.9986 28.5024C23.8012 28.5024 23.6057 28.4635 23.4234 28.3878C23.2411 28.312 23.0755 28.2011 22.9361 28.0613L18.9361 24.0613C18.6543 23.7795 18.496 23.3973 18.496 22.9988C18.496 22.6002 18.6543 22.218 18.9361 21.9363C19.2179 21.6545 19.6001 21.4961 19.9986 21.4961C20.3972 21.4961 20.7793 21.6545 21.0611 21.9363L22.4999 23.375V17.625L15.9999 11.125L9.49989 17.625V23.375L10.9386 21.935C11.2204 21.6532 11.6026 21.4949 12.0011 21.4949C12.3997 21.4949 12.7818 21.6532 13.0636 21.935C13.3454 22.2168 13.5037 22.599 13.5037 22.9975C13.5037 23.396 13.3454 23.7782 13.0636 24.06L9.06364 28.06C8.92428 28.1998 8.75869 28.3108 8.57636 28.3865C8.39404 28.4622 8.19856 28.5012 8.00114 28.5012C7.80372 28.5012 7.60824 28.4622 7.42591 28.3865C7.24358 28.3108 7.07799 28.1998 6.93864 28.06L2.93864 24.06C2.65684 23.7782 2.49854 23.396 2.49854 22.9975C2.49854 22.599 2.65684 22.2168 2.93864 21.935C3.22043 21.6532 3.60262 21.4949 4.00114 21.4949C4.39965 21.4949 4.78184 21.6532 5.06364 21.935L6.49989 23.375V17C6.49973 16.803 6.5384 16.6078 6.61368 16.4257C6.68896 16.2436 6.79939 16.0782 6.93864 15.9388L14.4999 8.375V3C14.4999 2.60218 14.6579 2.22064 14.9392 1.93934C15.2205 1.65804 15.6021 1.5 15.9999 1.5C16.3977 1.5 16.7792 1.65804 17.0605 1.93934C17.3419 2.22064 17.4999 2.60218 17.4999 3V8.375L25.0611 15.935C25.2008 16.0749 25.3115 16.2409 25.3868 16.4237C25.4621 16.6065 25.5005 16.8023 25.4999 17V23.375L26.9386 21.935C27.0782 21.7955 27.2438 21.6848 27.4261 21.6093C27.6084 21.5338 27.8038 21.4949 28.0011 21.4949C28.1985 21.4949 28.3939 21.5338 28.5762 21.6093C28.7585 21.6848 28.9241 21.7955 29.0636 21.935C29.2032 22.0745 29.3138 22.2402 29.3894 22.4225C29.4649 22.6048 29.5037 22.8002 29.5037 22.9975C29.5037 23.1948 29.4649 23.3902 29.3894 23.5725C29.3138 23.7548 29.2032 23.9205 29.0636 24.06L29.0611 24.0613Z" fill="black"/>
</svg>
