<svg width="32" height="32" viewBox="0 0 32 32" fill="none" xmlns="http://www.w3.org/2000/svg">
<path d="M29.3537 16.3538L25.3537 20.3538C25.2598 20.4476 25.1326 20.5003 24.9999 20.5003C24.8672 20.5003 24.74 20.4476 24.6462 20.3538C24.5523 20.26 24.4996 20.1327 24.4996 20C24.4996 19.8674 24.5523 19.7401 24.6462 19.6463L27.7924 16.5H4.20741L7.35366 19.6463C7.44748 19.7401 7.50018 19.8674 7.50018 20C7.50018 20.1327 7.44748 20.26 7.35365 20.3538C7.25983 20.4476 7.13259 20.5003 6.99991 20.5003C6.86722 20.5003 6.73997 20.4476 6.64615 20.3538L2.64616 16.3538C2.59967 16.3073 2.56279 16.2522 2.53763 16.1915C2.51246 16.1308 2.49951 16.0657 2.49951 16C2.49951 15.9343 2.51246 15.8693 2.53763 15.8086C2.56279 15.7479 2.59967 15.6927 2.64616 15.6463L6.64615 11.6463C6.69261 11.5998 6.74776 11.563 6.80846 11.5378C6.86915 11.5127 6.93421 11.4998 6.99991 11.4998C7.0656 11.4998 7.13066 11.5127 7.19135 11.5378C7.25205 11.563 7.3072 11.5998 7.35366 11.6463C7.40011 11.6927 7.43696 11.7479 7.4621 11.8086C7.48724 11.8693 7.50018 11.9343 7.50018 12C7.50018 12.0657 7.48724 12.1308 7.4621 12.1915C7.43696 12.2522 7.40011 12.3073 7.35366 12.3538L4.20741 15.5H27.7924L24.6462 12.3538C24.5523 12.26 24.4996 12.1327 24.4996 12C24.4996 11.8674 24.5523 11.7401 24.6462 11.6463C24.74 11.5525 24.8672 11.4998 24.9999 11.4998C25.1326 11.4998 25.2598 11.5525 25.3537 11.6463L29.3537 15.6463C29.4001 15.6927 29.437 15.7479 29.4622 15.8086C29.4873 15.8693 29.5003 15.9343 29.5003 16C29.5003 16.0657 29.4873 16.1308 29.4622 16.1915C29.437 16.2522 29.4001 16.3073 29.3537 16.3538Z" fill="black"/>
</svg>
