<svg width="32" height="32" viewBox="0 0 32 32" fill="none" xmlns="http://www.w3.org/2000/svg">
<path d="M26.0001 10.0001V21.0001C26.0001 23.1218 25.1572 25.1566 23.6569 26.6569C22.1566 28.1572 20.1218 29.0001 18.0001 29.0001C15.8783 29.0001 13.8435 28.1572 12.3432 26.6569C10.8429 25.1566 10.0001 23.1218 10.0001 21.0001V6.4138L5.70757 10.7076C5.51993 10.8952 5.26543 11.0006 5.00007 11.0006C4.7347 11.0006 4.48021 10.8952 4.29257 10.7076C4.10493 10.5199 3.99951 10.2654 3.99951 10.0001C3.99951 9.73469 4.10493 9.48019 4.29257 9.29255L10.2926 3.29255C10.3854 3.19958 10.4957 3.12582 10.6171 3.07549C10.7385 3.02517 10.8687 2.99927 11.0001 2.99927C11.1315 2.99927 11.2616 3.02517 11.383 3.07549C11.5044 3.12582 11.6147 3.19958 11.7076 3.29255L17.7076 9.29255C17.8952 9.48019 18.0006 9.73469 18.0006 10.0001C18.0006 10.2654 17.8952 10.5199 17.7076 10.7076C17.5199 10.8952 17.2654 11.0006 17.0001 11.0006C16.7347 11.0006 16.4802 10.8952 16.2926 10.7076L12.0001 6.4138V21.0001C12.0001 22.5914 12.6322 24.1175 13.7574 25.2427C14.8826 26.3679 16.4088 27.0001 18.0001 27.0001C19.5914 27.0001 21.1175 26.3679 22.2427 25.2427C23.3679 24.1175 24.0001 22.5914 24.0001 21.0001V10.0001C24.0001 9.73484 24.1054 9.48048 24.293 9.29295C24.4805 9.10541 24.7349 9.00005 25.0001 9.00005C25.2653 9.00005 25.5196 9.10541 25.7072 9.29295C25.8947 9.48048 26.0001 9.73484 26.0001 10.0001Z" fill="black"/>
</svg>
