<svg width="32" height="32" viewBox="0 0 32 32" fill="none" xmlns="http://www.w3.org/2000/svg">
<path d="M28.5 16C28.5 16.3978 28.342 16.7794 28.0607 17.0607C27.7794 17.342 27.3978 17.5 27 17.5H5C4.60218 17.5 4.22064 17.342 3.93934 17.0607C3.65804 16.7794 3.5 16.3978 3.5 16C3.5 15.6022 3.65804 15.2206 3.93934 14.9393C4.22064 14.658 4.60218 14.5 5 14.5H27C27.3978 14.5 27.7794 14.658 28.0607 14.9393C28.342 15.2206 28.5 15.6022 28.5 16ZM14.9388 12.0612C15.0781 12.2011 15.2437 12.312 15.426 12.3878C15.6083 12.4635 15.8038 12.5024 16.0012 12.5024C16.1987 12.5024 16.3941 12.4635 16.5765 12.3878C16.7588 12.312 16.9244 12.2011 17.0637 12.0612L21.0637 8.06125C21.3455 7.77946 21.5039 7.39726 21.5039 6.99875C21.5039 6.60024 21.3455 6.21804 21.0637 5.93625C20.782 5.65446 20.3998 5.49615 20.0012 5.49615C19.6027 5.49615 19.2205 5.65446 18.9387 5.93625L17.5 7.375V2C17.5 1.60218 17.342 1.22064 17.0607 0.93934C16.7794 0.658035 16.3978 0.5 16 0.5C15.6022 0.5 15.2206 0.658035 14.9393 0.93934C14.658 1.22064 14.5 1.60218 14.5 2V7.375L13.0612 5.93875C12.7795 5.65696 12.3973 5.49865 11.9987 5.49865C11.6002 5.49865 11.218 5.65696 10.9362 5.93875C10.6545 6.22054 10.4961 6.60274 10.4961 7.00125C10.4961 7.39976 10.6545 7.78196 10.9362 8.06375L14.9388 12.0612ZM17.0637 19.9363C16.9244 19.7964 16.7588 19.6855 16.5765 19.6097C16.3941 19.534 16.1987 19.4951 16.0012 19.4951C15.8038 19.4951 15.6083 19.534 15.426 19.6097C15.2437 19.6855 15.0781 19.7964 14.9388 19.9363L10.9388 23.9363C10.657 24.218 10.4986 24.6002 10.4986 24.9988C10.4986 25.3973 10.657 25.7795 10.9388 26.0613C11.2205 26.343 11.6027 26.5014 12.0013 26.5014C12.3998 26.5014 12.782 26.343 13.0638 26.0613L14.5 24.625V30C14.5 30.3978 14.658 30.7794 14.9393 31.0607C15.2206 31.342 15.6022 31.5 16 31.5C16.3978 31.5 16.7794 31.342 17.0607 31.0607C17.342 30.7794 17.5 30.3978 17.5 30V24.625L18.9387 26.065C19.2205 26.3468 19.6027 26.5051 20.0012 26.5051C20.3998 26.5051 20.782 26.3468 21.0637 26.065C21.3455 25.7832 21.5039 25.401 21.5039 25.0025C21.5039 24.604 21.3455 24.2218 21.0637 23.94L17.0637 19.9363Z" fill="black"/>
</svg>
