<svg width="32" height="32" viewBox="0 0 32 32" fill="none" xmlns="http://www.w3.org/2000/svg">
<path d="M29.0613 22.0613L23.0613 28.0613C22.7795 28.343 22.3973 28.5014 21.9988 28.5014C21.6002 28.5014 21.218 28.343 20.9363 28.0613C20.6545 27.7795 20.4961 27.3973 20.4961 26.9988C20.4961 26.6002 20.6545 26.218 20.9363 25.9363L24.375 22.5H11C8.74566 22.5 6.58365 21.6045 4.98959 20.0104C3.39553 18.4163 2.5 16.2543 2.5 14C2.5 11.7457 3.39553 9.58365 4.98959 7.98959C6.58365 6.39553 8.74566 5.5 11 5.5H22C22.3978 5.5 22.7794 5.65804 23.0607 5.93934C23.342 6.22064 23.5 6.60218 23.5 7C23.5 7.39782 23.342 7.77936 23.0607 8.06066C22.7794 8.34196 22.3978 8.5 22 8.5H11C9.54131 8.5 8.14236 9.07946 7.11091 10.1109C6.07946 11.1424 5.5 12.5413 5.5 14C5.5 15.4587 6.07946 16.8576 7.11091 17.8891C8.14236 18.9205 9.54131 19.5 11 19.5H24.375L20.935 16.0613C20.7955 15.9217 20.6848 15.7561 20.6093 15.5738C20.5338 15.3915 20.4949 15.1961 20.4949 14.9987C20.4949 14.8014 20.5338 14.606 20.6093 14.4237C20.6848 14.2414 20.7955 14.0758 20.935 13.9362C21.0745 13.7967 21.2402 13.686 21.4225 13.6105C21.6048 13.535 21.8002 13.4961 21.9975 13.4961C22.1948 13.4961 22.3902 13.535 22.5725 13.6105C22.7548 13.686 22.9205 13.7967 23.06 13.9362L29.06 19.9363C29.1999 20.0755 29.311 20.241 29.3868 20.4233C29.4626 20.6056 29.5017 20.8011 29.5018 20.9985C29.5019 21.1959 29.4631 21.3914 29.3875 21.5738C29.3119 21.7562 29.201 21.9218 29.0613 22.0613Z" fill="black"/>
</svg>
