<svg width="32" height="32" viewBox="0 0 32 32" fill="none" xmlns="http://www.w3.org/2000/svg">
<path d="M31 12V14C31 14.2652 30.8946 14.5196 30.7071 14.7071C30.5196 14.8946 30.2652 15 30 15H20C19.7348 15 19.4804 14.8946 19.2929 14.7071C19.1054 14.5196 19 14.2652 19 14V12C19 11.7348 19.1054 11.4804 19.2929 11.2929C19.4804 11.1054 19.7348 11 20 11H30C30.2652 11 30.5196 11.1054 30.7071 11.2929C30.8946 11.4804 31 11.7348 31 12ZM30 17H20C19.7348 17 19.4804 17.1054 19.2929 17.2929C19.1054 17.4804 19 17.7348 19 18V20C19 20.2652 19.1054 20.5196 19.2929 20.7071C19.4804 20.8946 19.7348 21 20 21H30C30.2652 21 30.5196 20.8946 30.7071 20.7071C30.8946 20.5196 31 20.2652 31 20V18C31 17.7348 30.8946 17.4804 30.7071 17.2929C30.5196 17.1054 30.2652 17 30 17ZM30 23H9.00001C8.73479 23 8.48044 23.1054 8.2929 23.2929C8.10536 23.4804 8.00001 23.7348 8.00001 24V26C8.00001 26.2652 8.10536 26.5196 8.2929 26.7071C8.48044 26.8946 8.73479 27 9.00001 27H30C30.2652 27 30.5196 26.8946 30.7071 26.7071C30.8946 26.5196 31 26.2652 31 26V24C31 23.7348 30.8946 23.4804 30.7071 23.2929C30.5196 23.1054 30.2652 23 30 23ZM10 21C8.1441 20.998 6.36478 20.2599 5.05245 18.9476C3.74013 17.6352 3.00199 15.8559 3.00001 14C2.99933 13.1 3.17382 12.2084 3.51376 11.375C2.90204 10.9503 2.44173 10.3415 2.19975 9.63726C1.95777 8.93297 1.94674 8.16985 2.16826 7.45886C2.38978 6.74787 2.83231 6.12607 3.4315 5.68386C4.03069 5.24166 4.75531 5.00209 5.50001 5C5.67008 4.99964 5.83744 5.04266 5.98626 5.125L14.7275 9.98125C15.0994 9.92194 15.4353 9.72494 15.6686 9.42938C15.9019 9.13381 16.0155 8.76131 15.9869 8.38584C15.9582 8.01038 15.7894 7.65943 15.514 7.40269C15.2385 7.14595 14.8766 7.0022 14.5 7C14.2348 7 13.9804 6.89465 13.7929 6.70711C13.6054 6.51957 13.5 6.26522 13.5 6C13.5 5.73479 13.6054 5.48043 13.7929 5.2929C13.9804 5.10536 14.2348 5 14.5 5C15.4283 5 16.3185 5.36875 16.9749 6.02513C17.6313 6.68151 18 7.57174 18 8.5C18 9.42826 17.6313 10.3185 16.9749 10.9749C16.3185 11.6313 15.4283 12 14.5 12C14.3299 12.0004 14.1626 11.9573 14.0138 11.875L9.01376 9.09875C7.88247 9.32607 6.86463 9.93768 6.13284 10.8299C5.40106 11.722 5.00039 12.8399 4.99877 13.9938C4.99715 15.1477 5.39469 16.2666 6.12396 17.1608C6.85324 18.055 7.86936 18.6695 9.00001 18.9V14C9.00001 13.7348 9.10536 13.4804 9.2929 13.2929C9.48044 13.1054 9.73479 13 10 13C10.2652 13 10.5196 13.1054 10.7071 13.2929C10.8946 13.4804 11 13.7348 11 14V18.8988C11.8453 18.7255 12.6316 18.3369 13.2827 17.7706C13.9337 17.2043 14.4275 16.4794 14.7163 15.6663C14.8081 15.4207 14.9927 15.221 15.2303 15.1102C15.4679 14.9993 15.7396 14.9863 15.9867 15.0738C16.2339 15.1613 16.4368 15.3424 16.5517 15.5781C16.6667 15.8137 16.6844 16.0851 16.6013 16.3338C16.1172 17.6978 15.2228 18.8786 14.0408 19.714C12.8589 20.5495 11.4474 20.9987 10 21ZM4.52876 9.6425C5.12621 8.89238 5.87059 8.2722 6.71626 7.82L5.27251 7.0175C4.98791 7.06028 4.72163 7.18402 4.50542 7.37396C4.28922 7.56391 4.13222 7.81204 4.05316 8.08876C3.9741 8.36548 3.97631 8.6591 4.05953 8.9346C4.14275 9.21009 4.30347 9.45583 4.52251 9.6425H4.52876Z" fill="black"/>
</svg>
