<svg width="32" height="32" viewBox="0 0 32 32" fill="none" xmlns="http://www.w3.org/2000/svg">
<path d="M19.25 13C19.25 12.8011 19.329 12.6103 19.4697 12.4697C19.6103 12.329 19.8011 12.25 20 12.25H30C30.1989 12.25 30.3897 12.329 30.5303 12.4697C30.671 12.6103 30.75 12.8011 30.75 13C30.75 13.1989 30.671 13.3897 30.5303 13.5303C30.3897 13.671 30.1989 13.75 30 13.75H20C19.8011 13.75 19.6103 13.671 19.4697 13.5303C19.329 13.3897 19.25 13.1989 19.25 13ZM30 16.25H20C19.8011 16.25 19.6103 16.329 19.4697 16.4697C19.329 16.6103 19.25 16.8011 19.25 17C19.25 17.1989 19.329 17.3897 19.4697 17.5303C19.6103 17.671 19.8011 17.75 20 17.75H30C30.1989 17.75 30.3897 17.671 30.5303 17.5303C30.671 17.3897 30.75 17.1989 30.75 17C30.75 16.8011 30.671 16.6103 30.5303 16.4697C30.3897 16.329 30.1989 16.25 30 16.25ZM30 20.25H20C19.8011 20.25 19.6103 20.329 19.4697 20.4697C19.329 20.6103 19.25 20.8011 19.25 21C19.25 21.1989 19.329 21.3897 19.4697 21.5303C19.6103 21.671 19.8011 21.75 20 21.75H30C30.1989 21.75 30.3897 21.671 30.5303 21.5303C30.671 21.3897 30.75 21.1989 30.75 21C30.75 20.8011 30.671 20.6103 30.5303 20.4697C30.3897 20.329 30.1989 20.25 30 20.25ZM30 24.25H9C8.80108 24.25 8.61032 24.329 8.46967 24.4697C8.32901 24.6103 8.25 24.8011 8.25 25C8.25 25.1989 8.32901 25.3897 8.46967 25.5303C8.61032 25.671 8.80108 25.75 9 25.75H30C30.1989 25.75 30.3897 25.671 30.5303 25.5303C30.671 25.3897 30.75 25.1989 30.75 25C30.75 24.8011 30.671 24.6103 30.5303 24.4697C30.3897 24.329 30.1989 24.25 30 24.25ZM10 21.75C8.87721 21.7513 7.77188 21.4722 6.78432 20.9379C5.79676 20.4037 4.95824 19.6314 4.34486 18.6909C3.73148 17.7505 3.36266 16.6718 3.27188 15.5527C3.18109 14.4336 3.37122 13.3095 3.825 12.2825C3.21741 11.9158 2.74656 11.3603 2.48433 10.7009C2.22211 10.0414 2.18294 9.31428 2.37281 8.63049C2.56267 7.9467 2.97113 7.34384 3.53581 6.914C4.10048 6.48415 4.79033 6.25095 5.5 6.25C5.62724 6.24989 5.75241 6.28215 5.86375 6.34375L14.6787 11.2413C15.1258 11.1964 15.5385 10.9813 15.8314 10.6405C16.1242 10.2996 16.2747 9.85926 16.2517 9.41051C16.2287 8.96177 16.034 8.53906 15.7079 8.22993C15.3818 7.92081 14.9493 7.74897 14.5 7.75C14.3011 7.75 14.1103 7.67098 13.9697 7.53033C13.829 7.38968 13.75 7.19891 13.75 7C13.75 6.80109 13.829 6.61032 13.9697 6.46967C14.1103 6.32902 14.3011 6.25 14.5 6.25C15.3619 6.25 16.1886 6.59241 16.7981 7.2019C17.4076 7.8114 17.75 8.63805 17.75 9.5C17.75 10.362 17.4076 11.1886 16.7981 11.7981C16.1886 12.4076 15.3619 12.75 14.5 12.75C14.3728 12.7501 14.2476 12.7179 14.1362 12.6563L9.0575 9.83375C7.83181 10.0571 6.72551 10.7091 5.93634 11.6732C5.14717 12.6372 4.72656 13.8505 4.7497 15.0962C4.77285 16.3419 5.23823 17.5387 6.06267 18.4728C6.8871 19.4069 8.01686 20.0173 9.25 20.195V15C9.25 14.8011 9.32901 14.6103 9.46967 14.4697C9.61032 14.329 9.80108 14.25 10 14.25C10.1989 14.25 10.3897 14.329 10.5303 14.4697C10.671 14.6103 10.75 14.8011 10.75 15V20.195C11.6976 20.0578 12.5897 19.6644 13.3301 19.0572C14.0705 18.4501 14.631 17.6524 14.9512 16.75C15.0176 16.5624 15.1557 16.4087 15.3352 16.3229C15.5148 16.2371 15.7211 16.2262 15.9087 16.2925C16.0964 16.3588 16.25 16.4969 16.3358 16.6765C16.4216 16.8561 16.4325 17.0624 16.3662 17.25C15.8991 18.5653 15.0365 19.7038 13.8967 20.5095C12.7569 21.3152 11.3958 21.7485 10 21.75ZM4.58 10.9875C5.2726 10.0519 6.19421 9.31026 7.25625 8.83375L5.32125 7.75875C4.95793 7.79628 4.61546 7.94654 4.34183 8.18849C4.06821 8.43043 3.87714 8.75193 3.79541 9.10792C3.71369 9.4639 3.74539 9.83654 3.88609 10.1736C4.02679 10.5107 4.26943 10.7953 4.58 10.9875Z" fill="black"/>
</svg>
