<svg width="32" height="32" viewBox="0 0 32 32" fill="none" xmlns="http://www.w3.org/2000/svg">
<path d="M7.5 16.5C7.5 16.8978 7.34196 17.2794 7.06066 17.5607C6.77936 17.842 6.39782 18 6 18H3C2.60218 18 2.22064 17.842 1.93934 17.5607C1.65804 17.2794 1.5 16.8978 1.5 16.5C1.5 16.1022 1.65804 15.7206 1.93934 15.4393C2.22064 15.158 2.60218 15 3 15H3.5V8H3C2.60218 8 2.22064 7.84197 1.93934 7.56066C1.65804 7.27936 1.5 6.89783 1.5 6.5C1.5 6.10218 1.65804 5.72064 1.93934 5.43934C2.22064 5.15804 2.60218 5 3 5H5C5.25438 4.99978 5.50463 5.06426 5.72723 5.18737C5.94983 5.31048 6.13747 5.48817 6.2725 5.70375L10 11.67L13.7275 5.705C13.8624 5.48919 14.05 5.31125 14.2726 5.18791C14.4952 5.06458 14.7455 4.99992 15 5H17C17.3978 5 17.7794 5.15804 18.0607 5.43934C18.342 5.72064 18.5 6.10218 18.5 6.5C18.5 6.89783 18.342 7.27936 18.0607 7.56066C17.7794 7.84197 17.3978 8 17 8H16.5V15H17C17.3978 15 17.7794 15.158 18.0607 15.4393C18.342 15.7206 18.5 16.1022 18.5 16.5C18.5 16.8978 18.342 17.2794 18.0607 17.5607C17.7794 17.842 17.3978 18 17 18H14C13.647 17.9989 13.3057 17.8733 13.0362 17.6453C12.7667 17.4174 12.5862 17.1017 12.5264 16.7538C12.4667 16.4059 12.5316 16.0481 12.7097 15.7433C12.8877 15.4385 13.1676 15.2063 13.5 15.0875V11.73L11.2725 15.295C11.1377 15.511 10.9502 15.6891 10.7276 15.8125C10.5049 15.936 10.2546 16.0008 10 16.0008C9.74543 16.0008 9.49505 15.936 9.27243 15.8125C9.04981 15.6891 8.86228 15.511 8.7275 15.295L6.5 11.73V15.0875C6.79218 15.1908 7.04519 15.3821 7.22425 15.635C7.40332 15.8879 7.49965 16.1901 7.5 16.5ZM22 13H30C30.3978 13 30.7794 12.842 31.0607 12.5607C31.342 12.2794 31.5 11.8978 31.5 11.5C31.5 11.1022 31.342 10.7206 31.0607 10.4393C30.7794 10.158 30.3978 10 30 10H22C21.6022 10 21.2206 10.158 20.9393 10.4393C20.658 10.7206 20.5 11.1022 20.5 11.5C20.5 11.8978 20.658 12.2794 20.9393 12.5607C21.2206 12.842 21.6022 13 22 13ZM30 15H22C21.6022 15 21.2206 15.158 20.9393 15.4393C20.658 15.7206 20.5 16.1022 20.5 16.5C20.5 16.8978 20.658 17.2794 20.9393 17.5607C21.2206 17.842 21.6022 18 22 18H30C30.3978 18 30.7794 17.842 31.0607 17.5607C31.342 17.2794 31.5 16.8978 31.5 16.5C31.5 16.1022 31.342 15.7206 31.0607 15.4393C30.7794 15.158 30.3978 15 30 15ZM30 20H9C8.60218 20 8.22064 20.158 7.93934 20.4393C7.65804 20.7206 7.5 21.1022 7.5 21.5C7.5 21.8978 7.65804 22.2794 7.93934 22.5607C8.22064 22.842 8.60218 23 9 23H30C30.3978 23 30.7794 22.842 31.0607 22.5607C31.342 22.2794 31.5 21.8978 31.5 21.5C31.5 21.1022 31.342 20.7206 31.0607 20.4393C30.7794 20.158 30.3978 20 30 20ZM30 25H9C8.60218 25 8.22064 25.158 7.93934 25.4393C7.65804 25.7206 7.5 26.1022 7.5 26.5C7.5 26.8978 7.65804 27.2794 7.93934 27.5607C8.22064 27.842 8.60218 28 9 28H30C30.3978 28 30.7794 27.842 31.0607 27.5607C31.342 27.2794 31.5 26.8978 31.5 26.5C31.5 26.1022 31.342 25.7206 31.0607 25.4393C30.7794 25.158 30.3978 25 30 25Z" fill="black"/>
</svg>
