<svg width="32" height="32" viewBox="0 0 32 32" fill="none" xmlns="http://www.w3.org/2000/svg">
<path d="M19 15.5C19 15.1022 19.158 14.7206 19.4393 14.4393C19.7206 14.158 20.1022 14 20.5 14H30C30.3978 14 30.7793 14.158 31.0606 14.4393C31.342 14.7206 31.5 15.1022 31.5 15.5C31.5 15.8978 31.342 16.2794 31.0606 16.5607C30.7793 16.842 30.3978 17 30 17H20.5C20.1022 17 19.7206 16.842 19.4393 16.5607C19.158 16.2794 19 15.8978 19 15.5ZM30 19H20.5C20.1022 19 19.7206 19.158 19.4393 19.4393C19.158 19.7206 19 20.1022 19 20.5C19 20.8978 19.158 21.2794 19.4393 21.5607C19.7206 21.842 20.1022 22 20.5 22H30C30.3978 22 30.7793 21.842 31.0606 21.5607C31.342 21.2794 31.5 20.8978 31.5 20.5C31.5 20.1022 31.342 19.7206 31.0606 19.4393C30.7793 19.158 30.3978 19 30 19ZM30 24H8.99999C8.60216 24 8.22063 24.158 7.93933 24.4393C7.65802 24.7206 7.49999 25.1022 7.49999 25.5C7.49999 25.8978 7.65802 26.2794 7.93933 26.5607C8.22063 26.842 8.60216 27 8.99999 27H30C30.3978 27 30.7793 26.842 31.0606 26.5607C31.342 26.2794 31.5 25.8978 31.5 25.5C31.5 25.1022 31.342 24.7206 31.0606 24.4393C30.7793 24.158 30.3978 24 30 24ZM9.99999 22.5C8.01157 22.4977 6.10526 21.7068 4.69924 20.3007C3.29322 18.8947 2.5023 16.9884 2.49999 15C2.4999 14.1662 2.64019 13.3384 2.91499 12.5513C2.29021 12.0216 1.84307 11.313 1.63399 10.5211C1.42491 9.72919 1.46397 8.89219 1.74588 8.1232C2.0278 7.3542 2.53898 6.69028 3.21036 6.22115C3.88174 5.75203 4.68094 5.5003 5.49999 5.5C5.755 5.49995 6.00581 5.56491 6.22874 5.68875L14.8037 10.4525C15.0309 10.3799 15.2245 10.2285 15.3499 10.0257C15.4752 9.82283 15.524 9.58189 15.4873 9.34628C15.4507 9.11067 15.331 8.89592 15.15 8.74074C14.969 8.58557 14.7384 8.50019 14.5 8.5C14.1022 8.5 13.7206 8.34196 13.4393 8.06066C13.158 7.77936 13 7.39782 13 7C13 6.60218 13.158 6.22064 13.4393 5.93934C13.7206 5.65804 14.1022 5.5 14.5 5.5C15.5609 5.5 16.5783 5.92143 17.3284 6.67157C18.0786 7.42172 18.5 8.43913 18.5 9.5C18.5 10.5609 18.0786 11.5783 17.3284 12.3284C16.5783 13.0786 15.5609 13.5 14.5 13.5C14.245 13.5001 13.9942 13.4351 13.7712 13.3112L8.93874 10.625C7.99572 10.8532 7.1517 11.38 6.53251 12.127C5.91332 12.8739 5.55214 13.801 5.5028 14.77C5.45347 15.739 5.71863 16.6979 6.25875 17.5039C6.79887 18.3099 7.58502 18.9197 8.49999 19.2425V15.5C8.49999 15.1022 8.65802 14.7206 8.93933 14.4393C9.22063 14.158 9.60216 14 9.99999 14C10.3978 14 10.7793 14.158 11.0606 14.4393C11.342 14.7206 11.5 15.1022 11.5 15.5V19.2388C12.1337 19.0164 12.7096 18.655 13.1854 18.1811C13.6613 17.7072 14.025 17.1328 14.25 16.5C14.3156 16.3143 14.4172 16.1433 14.549 15.9968C14.6807 15.8503 14.84 15.7312 15.0178 15.6463C15.1956 15.5614 15.3883 15.5124 15.585 15.5019C15.7818 15.4915 15.9786 15.52 16.1644 15.5856C16.3501 15.6513 16.5211 15.7529 16.6676 15.8846C16.814 16.0164 16.9331 16.1757 17.018 16.3534C17.1029 16.5312 17.152 16.724 17.1624 16.9207C17.1728 17.1174 17.1444 17.3143 17.0787 17.5C16.5597 18.9625 15.6006 20.2283 14.333 21.1236C13.0655 22.019 11.5518 22.4998 9.99999 22.5ZM4.56124 9.845C4.91473 9.47263 5.30553 9.13753 5.72749 8.845L5.19624 8.55C4.99458 8.61429 4.81853 8.7409 4.69341 8.91162C4.56829 9.08233 4.50057 9.28835 4.49999 9.5C4.5005 9.61766 4.52122 9.73436 4.56124 9.845Z" fill="black"/>
</svg>
