<svg width="32" height="32" viewBox="0 0 32 32" fill="none" xmlns="http://www.w3.org/2000/svg">
<path d="M27 4.5H5C4.33696 4.5 3.70107 4.76339 3.23223 5.23223C2.76339 5.70107 2.5 6.33696 2.5 7V25C2.5 25.663 2.76339 26.2989 3.23223 26.7678C3.70107 27.2366 4.33696 27.5 5 27.5H27C27.663 27.5 28.2989 27.2366 28.7678 26.7678C29.2366 26.2989 29.5 25.663 29.5 25V7C29.5 6.33696 29.2366 5.70107 28.7678 5.23223C28.2989 4.76339 27.663 4.5 27 4.5ZM26.5 24.5H5.5V7.5H26.5V24.5ZM8.5 11.5C8.5 11.1022 8.65804 10.7206 8.93934 10.4393C9.22064 10.158 9.60218 10 10 10H22C22.3978 10 22.7794 10.158 23.0607 10.4393C23.342 10.7206 23.5 11.1022 23.5 11.5C23.5 11.8978 23.342 12.2794 23.0607 12.5607C22.7794 12.842 22.3978 13 22 13H10C9.60218 13 9.22064 12.842 8.93934 12.5607C8.65804 12.2794 8.5 11.8978 8.5 11.5ZM8.5 16C8.5 15.6022 8.65804 15.2206 8.93934 14.9393C9.22064 14.658 9.60218 14.5 10 14.5H22C22.3978 14.5 22.7794 14.658 23.0607 14.9393C23.342 15.2206 23.5 15.6022 23.5 16C23.5 16.3978 23.342 16.7794 23.0607 17.0607C22.7794 17.342 22.3978 17.5 22 17.5H10C9.60218 17.5 9.22064 17.342 8.93934 17.0607C8.65804 16.7794 8.5 16.3978 8.5 16ZM8.5 20.5C8.5 20.1022 8.65804 19.7206 8.93934 19.4393C9.22064 19.158 9.60218 19 10 19H22C22.3978 19 22.7794 19.158 23.0607 19.4393C23.342 19.7206 23.5 20.1022 23.5 20.5C23.5 20.8978 23.342 21.2794 23.0607 21.5607C22.7794 21.842 22.3978 22 22 22H10C9.60218 22 9.22064 21.842 8.93934 21.5607C8.65804 21.2794 8.5 20.8978 8.5 20.5Z" fill="black"/>
</svg>
