<svg width="32" height="32" viewBox="0 0 32 32" fill="none" xmlns="http://www.w3.org/2000/svg">
<path d="M26.4287 22.2575C26.3949 22.3138 26.3504 22.3629 26.2976 22.402C26.2448 22.4411 26.1848 22.4694 26.1211 22.4853C26.0574 22.5012 25.9911 22.5044 25.9262 22.4947C25.8612 22.485 25.7988 22.4626 25.7425 22.4287L16.5 16.8825V27C16.5 27.1326 16.4473 27.2598 16.3536 27.3536C16.2598 27.4473 16.1326 27.5 16 27.5C15.8674 27.5 15.7402 27.4473 15.6464 27.3536C15.5527 27.2598 15.5 27.1326 15.5 27V16.8825L6.2575 22.4287C6.2012 22.4626 6.13878 22.485 6.07382 22.4947C6.00887 22.5043 5.94263 22.5012 5.87891 22.4853C5.75021 22.4531 5.63954 22.3712 5.57125 22.2575C5.50296 22.1438 5.48263 22.0076 5.51475 21.8789C5.54686 21.7502 5.62879 21.6395 5.7425 21.5713L15.0275 16L5.7425 10.4288C5.6862 10.3949 5.6371 10.3504 5.59803 10.2976C5.55895 10.2448 5.53065 10.1848 5.51475 10.1211C5.48263 9.99239 5.50296 9.85621 5.57125 9.7425C5.60507 9.6862 5.64964 9.6371 5.70243 9.59803C5.75522 9.55895 5.81518 9.53065 5.87891 9.51475C6.00761 9.48263 6.14379 9.50296 6.2575 9.57125L15.5 15.1175V5C15.5 4.86739 15.5527 4.74021 15.6464 4.64645C15.7402 4.55268 15.8674 4.5 16 4.5C16.1326 4.5 16.2598 4.55268 16.3536 4.64645C16.4473 4.74021 16.5 4.86739 16.5 5V15.1175L25.7425 9.57125C25.7988 9.53743 25.8612 9.51504 25.9262 9.50535C25.9911 9.49565 26.0574 9.49885 26.1211 9.51475C26.1848 9.53065 26.2448 9.55895 26.2976 9.59803C26.3504 9.6371 26.3949 9.6862 26.4287 9.7425C26.4626 9.7988 26.485 9.86122 26.4947 9.92618C26.5043 9.99114 26.5012 10.0574 26.4853 10.1211C26.4694 10.1848 26.4411 10.2448 26.402 10.2976C26.3629 10.3504 26.3138 10.3949 26.2575 10.4288L16.9725 16L26.2575 21.5713C26.3138 21.6051 26.3629 21.6496 26.402 21.7024C26.4411 21.7552 26.4694 21.8152 26.4853 21.8789C26.5012 21.9426 26.5044 22.0089 26.4947 22.0738C26.485 22.1388 26.4626 22.2012 26.4287 22.2575Z" fill="black"/>
</svg>
