<svg width="32" height="32" viewBox="0 0 32 32" fill="none" xmlns="http://www.w3.org/2000/svg">
<path d="M26.5563 13.3925L18.4075 16.6525L24.1838 24.0788C24.3056 24.2341 24.3957 24.412 24.4486 24.6023C24.5016 24.7925 24.5165 24.9913 24.4924 25.1873C24.4684 25.3833 24.4059 25.5727 24.3085 25.7445C24.2111 25.9162 24.0807 26.0671 23.9249 26.1884C23.769 26.3097 23.5908 26.399 23.4003 26.4512C23.2099 26.5034 23.011 26.5176 22.8151 26.4927C22.6192 26.4679 22.4301 26.4047 22.2587 26.3066C22.0873 26.2085 21.9369 26.0776 21.8163 25.9212L16 18.4438L10.1838 25.9212C9.93882 26.2334 9.58017 26.4359 9.18631 26.4842C8.79246 26.5325 8.3955 26.4228 8.08235 26.1791C7.7692 25.9354 7.56537 25.5776 7.5155 25.1839C7.46563 24.7902 7.57377 24.3929 7.81626 24.0788L13.5925 16.6525L5.44376 13.3925C5.25721 13.322 5.08658 13.2151 4.94186 13.0779C4.79714 12.9407 4.68123 12.776 4.6009 12.5935C4.52057 12.411 4.47744 12.2143 4.47403 12.0149C4.47063 11.8155 4.50701 11.6175 4.58106 11.4323C4.6551 11.2471 4.76533 11.0786 4.90528 10.9366C5.04523 10.7945 5.2121 10.6818 5.39613 10.605C5.58016 10.5282 5.77766 10.4888 5.97707 10.4893C6.17648 10.4897 6.37381 10.5299 6.55751 10.6075L14.5 13.785V5C14.5 4.60218 14.658 4.22064 14.9393 3.93934C15.2206 3.65804 15.6022 3.5 16 3.5C16.3978 3.5 16.7794 3.65804 17.0607 3.93934C17.342 4.22064 17.5 4.60218 17.5 5V13.785L25.4425 10.6075C25.6262 10.5299 25.8235 10.4897 26.0229 10.4893C26.2224 10.4888 26.4199 10.5282 26.6039 10.605C26.7879 10.6818 26.9548 10.7945 27.0947 10.9366C27.2347 11.0786 27.3449 11.2471 27.419 11.4323C27.493 11.6175 27.5294 11.8155 27.526 12.0149C27.5226 12.2143 27.4794 12.411 27.3991 12.5935C27.3188 12.776 27.2029 12.9407 27.0581 13.0779C26.9134 13.2151 26.7428 13.322 26.5563 13.3925Z" fill="black"/>
</svg>
