<svg width="32" height="32" viewBox="0 0 32 32" fill="none" xmlns="http://www.w3.org/2000/svg">
<path opacity="0.08" d="M25 16C25 17.78 24.4722 19.5201 23.4832 21.0001C22.4943 22.4802 21.0887 23.6337 19.4442 24.3149C17.7996 24.9961 15.99 25.1743 14.2442 24.8271C12.4984 24.4798 10.8947 23.6226 9.63604 22.364C8.37737 21.1053 7.5202 19.5016 7.17294 17.7558C6.82567 16.01 7.0039 14.2004 7.68509 12.5558C8.36628 10.9113 9.51983 9.50571 10.9999 8.51677C12.4799 7.52784 14.22 7 16 7C18.387 7 20.6761 7.94821 22.364 9.63604C24.0518 11.3239 25 13.6131 25 16Z" fill="black"/>
<path d="M26.375 12.9288L17.6087 16.4287L23.7925 24.38C23.8753 24.4835 23.9367 24.6023 23.9732 24.7297C24.0096 24.8571 24.0204 24.9905 24.0049 25.1221C23.9893 25.2537 23.9478 25.3809 23.8827 25.4963C23.8176 25.6117 23.7302 25.713 23.6256 25.7943C23.521 25.8756 23.4012 25.9354 23.2733 25.97C23.1455 26.0047 23.0119 26.0136 22.8806 25.9962C22.7492 25.9788 22.6226 25.9355 22.5082 25.8688C22.3937 25.8021 22.2936 25.7132 22.2137 25.6075L16 17.625L9.79 25.6138C9.6258 25.8189 9.38744 25.9512 9.12647 25.982C8.8655 26.0128 8.6029 25.9396 8.39545 25.7783C8.188 25.617 8.05237 25.3806 8.0179 25.1201C7.98343 24.8596 8.05289 24.596 8.21125 24.3862L14.395 16.435L5.625 12.9288C5.37868 12.8293 5.18196 12.6361 5.07811 12.3916C4.97426 12.1471 4.97179 11.8713 5.07125 11.625C5.1707 11.3787 5.36394 11.182 5.60844 11.0781C5.85294 10.9743 6.12868 10.9718 6.375 11.0712L15 14.5225V5C15 4.73478 15.1054 4.48043 15.2929 4.29289C15.4804 4.10536 15.7348 4 16 4C16.2652 4 16.5196 4.10536 16.7071 4.29289C16.8946 4.48043 17 4.73478 17 5V14.5225L25.625 11.0712C25.747 11.022 25.8774 10.9973 26.009 10.9984C26.1405 10.9996 26.2705 11.0267 26.3916 11.0781C26.5126 11.1295 26.6224 11.2043 26.7145 11.2981C26.8067 11.392 26.8795 11.503 26.9287 11.625C26.978 11.747 27.0027 11.8774 27.0016 12.009C27.0004 12.1405 26.9733 12.2705 26.9219 12.3916C26.8705 12.5126 26.7957 12.6224 26.7019 12.7145C26.608 12.8067 26.497 12.8795 26.375 12.9288Z" fill="black"/>
</svg>
