<svg width="32" height="32" viewBox="0 0 32 32" fill="none" xmlns="http://www.w3.org/2000/svg">
<path d="M26.2788 12.6962L17.2038 16.3213L23.5925 24.535C23.7145 24.6921 23.7691 24.8913 23.7442 25.0887C23.7194 25.2861 23.6171 25.4655 23.46 25.5875C23.3029 25.7095 23.1037 25.7641 22.9063 25.7392C22.7089 25.7144 22.5295 25.6121 22.4075 25.455L16 17.2213L9.5925 25.46C9.53209 25.5378 9.45695 25.603 9.37137 25.6517C9.28578 25.7005 9.19143 25.7319 9.09369 25.7442C8.99596 25.7565 8.89676 25.7495 8.80176 25.7234C8.70676 25.6974 8.61781 25.6529 8.54 25.5925C8.46219 25.5321 8.39705 25.457 8.34828 25.3714C8.29951 25.2858 8.26808 25.1914 8.25577 25.0937C8.24347 24.996 8.25054 24.8968 8.27657 24.8018C8.3026 24.7068 8.3471 24.6178 8.4075 24.54L14.7963 16.3263L5.72125 12.7013C5.62907 12.6652 5.54495 12.6112 5.47372 12.5425C5.4025 12.4737 5.34559 12.3916 5.30627 12.3007C5.26695 12.2099 5.246 12.1122 5.24463 12.0132C5.24326 11.9142 5.2615 11.816 5.29829 11.7241C5.33508 11.6322 5.3897 11.5485 5.45899 11.4778C5.52829 11.4071 5.61089 11.3508 5.70203 11.3122C5.79318 11.2736 5.89106 11.2534 5.99004 11.2528C6.08903 11.2522 6.18715 11.2712 6.27875 11.3088L15.25 14.8925V5C15.25 4.80109 15.329 4.61032 15.4697 4.46967C15.6103 4.32902 15.8011 4.25 16 4.25C16.1989 4.25 16.3897 4.32902 16.5303 4.46967C16.671 4.61032 16.75 4.80109 16.75 5V14.8925L25.7213 11.3038C25.8129 11.2662 25.911 11.2472 26.01 11.2478C26.1089 11.2484 26.2068 11.2686 26.298 11.3072C26.3891 11.3458 26.4717 11.4021 26.541 11.4728C26.6103 11.5435 26.6649 11.6272 26.7017 11.7191C26.7385 11.811 26.7567 11.9092 26.7554 12.0082C26.754 12.1072 26.7331 12.2049 26.6937 12.2957C26.6544 12.3866 26.5975 12.4687 26.5263 12.5375C26.4551 12.6062 26.3709 12.6602 26.2788 12.6962Z" fill="black"/>
</svg>
