<svg width="32" height="32" viewBox="0 0 32 32" fill="none" xmlns="http://www.w3.org/2000/svg">
<path d="M26.185 12.4637L16.8025 16.2138L23.395 24.6887C23.4354 24.7407 23.4651 24.8 23.4825 24.8635C23.4999 24.9269 23.5046 24.9932 23.4964 25.0584C23.4882 25.1237 23.4671 25.1867 23.4345 25.2438C23.4019 25.3009 23.3583 25.351 23.3063 25.3913C23.2195 25.4612 23.1115 25.4995 23 25.5C22.9238 25.5001 22.8487 25.4828 22.7802 25.4495C22.7118 25.4161 22.6518 25.3675 22.605 25.3075L16 16.815L9.395 25.3075C9.34817 25.3675 9.28824 25.4161 9.21978 25.4495C9.15133 25.4828 9.07615 25.5001 9 25.5C8.8891 25.4999 8.78136 25.463 8.69375 25.395C8.64172 25.3548 8.59814 25.3046 8.56551 25.2475C8.53288 25.1904 8.51184 25.1274 8.5036 25.0622C8.49535 24.9969 8.50007 24.9307 8.51747 24.8672C8.53487 24.8038 8.56461 24.7444 8.605 24.6925L15.1975 16.2175L5.815 12.4675C5.69201 12.4178 5.5938 12.3212 5.542 12.1991C5.51635 12.1386 5.50286 12.0737 5.5023 12.008C5.50174 11.9423 5.51413 11.8772 5.53875 11.8162C5.56337 11.7553 5.59975 11.6999 5.64581 11.6531C5.69186 11.6062 5.74669 11.5689 5.80716 11.5432C5.9293 11.4914 6.06701 11.4903 6.19 11.54L15.5 15.2612V5C15.5 4.86739 15.5527 4.74021 15.6464 4.64645C15.7402 4.55268 15.8674 4.5 16 4.5C16.1326 4.5 16.2598 4.55268 16.3536 4.64645C16.4473 4.74021 16.5 4.86739 16.5 5V15.2612L25.8138 11.5363C25.8747 11.5116 25.9398 11.4992 26.0055 11.4998C26.0712 11.5004 26.1361 11.5138 26.1966 11.5395C26.2571 11.5651 26.3119 11.6025 26.3579 11.6493C26.404 11.6961 26.4404 11.7516 26.465 11.8125C26.4896 11.8734 26.502 11.9386 26.5015 12.0042C26.5009 12.0699 26.4874 12.1349 26.4618 12.1953C26.4361 12.2558 26.3988 12.3106 26.3519 12.3567C26.3051 12.4028 26.2497 12.4391 26.1888 12.4637H26.185Z" fill="black"/>
</svg>
