<svg width="32" height="32" viewBox="0 0 32 32" fill="none" xmlns="http://www.w3.org/2000/svg">
<path d="M24.2286 16C25.1961 14.6845 26.0294 13.2753 26.7161 11.7938C28.0586 8.80876 28.0911 6.46126 26.8161 5.18376C25.5411 3.90626 23.1911 3.94126 20.2061 5.28376C18.7246 5.97048 17.3154 6.8038 15.9999 7.77126C14.6843 6.8038 13.2752 5.97048 11.7936 5.28376C8.80864 3.94126 6.46114 3.90876 5.18364 5.18376C3.90614 6.45876 3.94114 8.80876 5.28364 11.7938C5.97036 13.2753 6.80368 14.6845 7.77114 16C6.80368 17.3156 5.97036 18.7247 5.28364 20.2063C3.94114 23.1913 3.90864 25.5388 5.18364 26.8163C5.80864 27.4413 6.68364 27.75 7.76239 27.75C8.89989 27.75 10.2624 27.405 11.7936 26.7163C13.2752 26.0295 14.6843 25.1962 15.9999 24.2288C17.3154 25.1962 18.7246 26.0295 20.2061 26.7163C21.7374 27.405 23.0999 27.75 24.2374 27.75C25.3174 27.75 26.1936 27.4388 26.8161 26.8163C28.0949 25.5388 28.0586 23.1913 26.7161 20.2063C26.0294 18.7247 25.1961 17.3156 24.2286 16ZM25.7499 6.25001C26.9099 7.41001 26.0449 10.7863 23.2749 14.75C22.3857 13.6374 21.435 12.5754 20.4274 11.5688C19.422 10.5608 18.3612 9.60976 17.2499 8.72001C21.2186 5.95126 24.5961 5.08501 25.7499 6.25001ZM22.3511 16C21.4301 17.1857 20.4361 18.3129 19.3749 19.375C18.3131 20.4392 17.1859 21.4362 15.9999 22.36C14.8139 21.4362 13.6867 20.4392 12.6249 19.375C11.561 18.3129 10.5641 17.1857 9.63989 16C11.4945 13.631 13.6302 11.4962 15.9999 9.64251C17.1855 10.5659 18.3126 11.562 19.3749 12.625C20.4378 13.687 21.4335 14.8141 22.3561 16H22.3511ZM6.24989 6.25001C6.58489 5.91376 7.10489 5.75001 7.77114 5.75001C9.40989 5.75001 11.9336 6.75001 14.7549 8.72626C13.6398 9.61264 12.5756 10.5612 11.5674 11.5675C10.5597 12.5745 9.60909 13.637 8.71989 14.75C5.94989 10.7813 5.08489 7.40501 6.24989 6.25001ZM6.24989 25.75C5.08989 24.59 5.95614 21.2138 8.72489 17.25C9.61413 18.3626 10.5648 19.4247 11.5724 20.4313C12.5778 21.4392 13.6386 22.3903 14.7499 23.28C10.7811 26.05 7.40489 26.915 6.24989 25.75ZM25.7499 25.75C24.5899 26.91 21.2136 26.0438 17.2499 23.2738C18.3628 22.3853 19.4248 21.4351 20.4311 20.4275C21.4391 19.4221 22.3901 18.3613 23.2799 17.25C26.0499 21.2188 26.9149 24.595 25.7499 25.75ZM17.2499 16C17.2499 16.2472 17.1766 16.4889 17.0392 16.6945C16.9019 16.9 16.7067 17.0603 16.4782 17.1549C16.2498 17.2495 15.9985 17.2742 15.756 17.226C15.5136 17.1778 15.2908 17.0587 15.116 16.8839C14.9412 16.7091 14.8221 16.4864 14.7739 16.2439C14.7257 16.0014 14.7504 15.7501 14.845 15.5217C14.9397 15.2933 15.0999 15.098 15.3054 14.9607C15.511 14.8233 15.7527 14.75 15.9999 14.75C16.3314 14.75 16.6494 14.8817 16.8838 15.1161C17.1182 15.3505 17.2499 15.6685 17.2499 16Z" fill="black"/>
</svg>
