<svg width="32" height="32" viewBox="0 0 32 32" fill="none" xmlns="http://www.w3.org/2000/svg">
<path d="M24.5151 16C27.5963 11.6737 29.1676 7.2025 26.9826 5.0175C24.7976 2.8325 20.3263 4.40375 16.0001 7.485C11.6738 4.40375 7.20256 2.8325 5.01756 5.0175C2.83256 7.2025 4.40381 11.6737 7.48506 16C4.40381 20.3262 2.83256 24.7975 5.01756 26.9825C5.72131 27.6862 6.66131 28 7.75631 28C10.0651 28 13.0663 26.6037 16.0063 24.515C18.9338 26.6037 21.9338 28 24.2501 28C25.3451 28 26.2863 27.685 26.9888 26.9825C29.1676 24.7975 27.5963 20.3262 24.5151 16ZM25.5688 6.43125C26.5238 7.38625 25.8788 10.4812 23.2538 14.3412C22.4234 13.3132 21.5392 12.3298 20.6051 11.395C19.6698 10.4625 18.6864 9.5796 17.6588 8.75C21.5188 6.125 24.6138 5.47625 25.5688 6.43125ZM6.43131 6.43125C6.70631 6.155 7.16006 6.0125 7.75881 6.0125C9.23631 6.0125 11.5951 6.875 14.3401 8.75C13.3131 9.5799 12.3301 10.4628 11.3951 11.395C10.4622 12.3299 9.57929 13.3133 8.75006 14.3412C6.12506 10.4812 5.47631 7.38625 6.43131 6.43125ZM6.43131 25.5687C5.47631 24.6137 6.12506 21.5187 8.75006 17.6587C9.5805 18.6868 10.4647 19.6702 11.3988 20.605C12.3331 21.5371 13.3152 22.42 14.3413 23.25C10.4813 25.875 7.38631 26.5237 6.43131 25.5687ZM16.0001 17.5C15.7034 17.5 15.4134 17.412 15.1667 17.2472C14.92 17.0824 14.7278 16.8481 14.6142 16.574C14.5007 16.2999 14.471 15.9983 14.5289 15.7074C14.5868 15.4164 14.7296 15.1491 14.9394 14.9393C15.1492 14.7296 15.4165 14.5867 15.7074 14.5288C15.9984 14.4709 16.3 14.5006 16.5741 14.6142C16.8482 14.7277 17.0824 14.92 17.2473 15.1666C17.4121 15.4133 17.5001 15.7033 17.5001 16C17.5001 16.3978 17.342 16.7794 17.0607 17.0607C16.7794 17.342 16.3979 17.5 16.0001 17.5ZM25.5688 25.57C24.6138 26.5262 21.5188 25.88 17.6588 23.255C18.6863 22.4239 19.6697 21.5398 20.6051 20.6062C21.538 19.671 22.4209 18.6871 23.2501 17.6587C25.8751 21.5187 26.5238 24.6137 25.5688 25.5687V25.57Z" fill="black"/>
</svg>
