<svg width="32" height="32" viewBox="0 0 32 32" fill="none" xmlns="http://www.w3.org/2000/svg">
<path d="M27.4037 19.9C26.7746 18.5339 26.0214 17.2284 25.1537 16C26.0214 14.7716 26.7746 13.4661 27.4037 12.1C28.8837 8.81126 28.8649 6.16501 27.3499 4.65001C25.8349 3.13501 23.1887 3.11626 19.8999 4.59626C18.5338 5.22538 17.2284 5.97854 15.9999 6.84626C14.7715 5.97854 13.466 5.22538 12.0999 4.59626C8.81117 3.11626 6.16492 3.13501 4.64992 4.65001C3.13492 6.16501 3.11617 8.81126 4.59617 12.1C5.22529 13.4661 5.97845 14.7716 6.84617 16C5.97845 17.2284 5.22529 18.5339 4.59617 19.9C3.11617 23.1888 3.13492 25.835 4.64992 27.35C5.41617 28.1163 6.47242 28.5 7.74992 28.5C8.99992 28.5 10.4712 28.135 12.0949 27.4038C13.461 26.7746 14.7665 26.0215 15.9949 25.1538C17.2234 26.0215 18.5288 26.7746 19.8949 27.4038C21.5199 28.135 22.9874 28.5 24.2399 28.5C25.5224 28.5 26.5787 28.1163 27.3449 27.35C28.8649 25.835 28.8837 23.1888 27.4037 19.9ZM25.2274 6.77501C25.8837 7.43251 25.4512 10.025 23.2274 13.4975C22.5262 12.665 21.7712 11.8413 20.9687 11.0388C20.1662 10.2363 19.3374 9.47876 18.4999 8.77751C21.9774 6.54876 24.5699 6.11626 25.2274 6.77251V6.77501ZM21.4049 16C20.6012 16.9918 19.7454 17.9402 18.8412 18.8413C17.9401 19.7455 16.9917 20.6013 15.9999 21.405C15.0081 20.6013 14.0597 19.7455 13.1587 18.8413C12.2544 17.9402 11.3986 16.9918 10.5949 16C12.2068 14.0181 14.018 12.2069 15.9999 10.595C16.992 11.3984 17.9404 12.2542 18.8412 13.1588C19.7457 14.0595 20.6015 15.008 21.4049 16ZM6.77242 6.77251C6.95492 6.59126 7.28492 6.49251 7.74117 6.49251C8.93242 6.49251 10.9837 7.16626 13.4912 8.77751C12.6587 9.47876 11.8349 10.2338 11.0324 11.0363C10.2299 11.8388 9.47867 12.6625 8.77742 13.5C6.54867 10.0225 6.11617 7.43001 6.77242 6.77251ZM6.77242 25.2275C6.11617 24.57 6.54867 21.9775 8.77242 18.505C9.47367 19.3375 10.2287 20.1613 11.0312 20.9638C11.8337 21.7663 12.6562 22.5213 13.4899 23.2225C10.0224 25.4513 7.42992 25.8838 6.77242 25.2275ZM25.2274 25.2275C24.5699 25.8838 21.9774 25.4513 18.5049 23.2275C19.3374 22.5263 20.1612 21.7713 20.9637 20.9688C21.7662 20.1663 22.5212 19.3438 23.2224 18.51C25.4512 21.9775 25.8837 24.57 25.2274 25.2275ZM17.9999 16C17.9999 16.3956 17.8826 16.7823 17.6629 17.1112C17.4431 17.4401 17.1307 17.6964 16.7653 17.8478C16.3998 17.9991 15.9977 18.0388 15.6097 17.9616C15.2218 17.8844 14.8654 17.6939 14.5857 17.4142C14.306 17.1345 14.1155 16.7782 14.0383 16.3902C13.9612 16.0022 14.0008 15.6001 14.1522 15.2346C14.3035 14.8692 14.5599 14.5568 14.8888 14.3371C15.2177 14.1173 15.6044 14 15.9999 14C16.5304 14 17.0391 14.2107 17.4141 14.5858C17.7892 14.9609 17.9999 15.4696 17.9999 16Z" fill="black"/>
</svg>
