<svg width="32" height="32" viewBox="0 0 32 32" fill="none" xmlns="http://www.w3.org/2000/svg">
<path d="M11.5 18C11.1044 18 10.7178 17.8827 10.3889 17.6629C10.06 17.4432 9.80362 17.1308 9.65225 16.7654C9.50087 16.3999 9.46127 15.9978 9.53844 15.6098C9.61561 15.2219 9.80609 14.8655 10.0858 14.5858C10.3655 14.3061 10.7219 14.1156 11.1098 14.0384C11.4978 13.9613 11.8999 14.0009 12.2654 14.1522C12.6308 14.3036 12.9432 14.56 13.1629 14.8889C13.3827 15.2178 13.5 15.6044 13.5 16C13.5 16.5304 13.2893 17.0391 12.9142 17.4142C12.5391 17.7893 12.0304 18 11.5 18ZM20.5 14C20.1044 14 19.7178 14.1173 19.3889 14.3371C19.06 14.5568 18.8036 14.8692 18.6522 15.2346C18.5009 15.6001 18.4613 16.0022 18.5384 16.3902C18.6156 16.7781 18.8061 17.1345 19.0858 17.4142C19.3655 17.6939 19.7219 17.8844 20.1098 17.9616C20.4978 18.0387 20.8999 17.9991 21.2654 17.8478C21.6308 17.6964 21.9432 17.44 22.1629 17.1111C22.3827 16.7822 22.5 16.3956 22.5 16C22.5 15.4696 22.2893 14.9609 21.9142 14.5858C21.5391 14.2107 21.0304 14 20.5 14ZM18.7 20.2313C17.8891 20.7339 16.954 21.0001 16 21.0001C15.046 21.0001 14.1109 20.7339 13.3 20.2313C13.1334 20.1236 12.9471 20.0501 12.7518 20.0149C12.5566 19.9798 12.3563 19.9837 12.1626 20.0265C11.9689 20.0692 11.7856 20.15 11.6233 20.2641C11.461 20.3782 11.323 20.5233 11.2172 20.6911C11.1114 20.8589 11.0399 21.0461 11.0069 21.2417C10.9739 21.4373 10.98 21.6375 11.025 21.8307C11.0699 22.0239 11.1526 22.2063 11.2685 22.3674C11.3844 22.5284 11.531 22.6648 11.7 22.7687C12.9899 23.5733 14.4797 23.9999 16 23.9999C17.5203 23.9999 19.0101 23.5733 20.3 22.7687C20.469 22.6648 20.6156 22.5284 20.7315 22.3674C20.8474 22.2063 20.9302 22.0239 20.9751 21.8307C21.02 21.6375 21.0261 21.4373 20.9931 21.2417C20.9601 21.0461 20.8886 20.8589 20.7828 20.6911C20.677 20.5233 20.539 20.3782 20.3767 20.2641C20.2144 20.15 20.0311 20.0692 19.8374 20.0265C19.6437 19.9837 19.4434 19.9798 19.2482 20.0149C19.053 20.0501 18.8666 20.1236 18.7 20.2313ZM29.5 16C29.5 18.67 28.7082 21.2801 27.2248 23.5002C25.7414 25.7203 23.633 27.4506 21.1662 28.4724C18.6994 29.4942 15.985 29.7615 13.3663 29.2406C10.7475 28.7197 8.34207 27.434 6.45406 25.5459C4.56606 23.6579 3.28031 21.2525 2.7594 18.6337C2.2385 16.015 2.50585 13.3006 3.52763 10.8338C4.54942 8.36697 6.27974 6.25856 8.49981 4.77516C10.7199 3.29176 13.33 2.5 16 2.5C19.5792 2.50397 23.0107 3.92756 25.5416 6.45844C28.0724 8.98932 29.496 12.4208 29.5 16ZM26.5 16C26.4964 13.3446 25.4881 10.789 23.6776 8.84658C21.8671 6.90415 19.3886 5.71882 16.74 5.52875C15.5763 7.29 15.5038 8.90375 15.5 9.0075C15.501 9.14011 15.5546 9.26689 15.6491 9.35995C15.7436 9.45302 15.8711 9.50474 16.0038 9.50375C16.1364 9.50276 16.2631 9.44912 16.3562 9.35465C16.4493 9.26018 16.501 9.13261 16.5 9C16.5 8.60218 16.658 8.22064 16.9393 7.93934C17.2207 7.65804 17.6022 7.5 18 7.5C18.3978 7.5 18.7794 7.65804 19.0607 7.93934C19.342 8.22064 19.5 8.60218 19.5 9C19.5 9.92826 19.1313 10.8185 18.4749 11.4749C17.8185 12.1313 16.9283 12.5 16 12.5C15.0717 12.5 14.1815 12.1313 13.5251 11.4749C12.8688 10.8185 12.5 9.92826 12.5 9C12.5 8.91875 12.5125 7.60125 13.19 5.885C11.3055 6.40841 9.60472 7.44774 8.27922 8.88587C6.95372 10.324 6.05623 12.1038 5.68789 14.0246C5.31956 15.9454 5.49502 17.9309 6.19451 19.7573C6.894 21.5837 8.0897 23.1785 9.64687 24.3619C11.204 25.5453 13.0608 26.2702 15.0078 26.455C16.9549 26.6398 18.9148 26.2772 20.6669 25.4079C22.4189 24.5386 23.8932 23.1973 24.9239 21.5351C25.9545 19.8728 26.5004 17.9558 26.5 16Z" fill="black"/>
</svg>
