<svg width="32" height="32" viewBox="0 0 32 32" fill="none" xmlns="http://www.w3.org/2000/svg">
<path d="M21.5 6.06875V4.5C21.5 3.57174 21.1313 2.6815 20.4749 2.02513C19.8185 1.36875 18.9283 1 18 1H14C13.0717 1 12.1815 1.36875 11.5251 2.02513C10.8687 2.6815 10.5 3.57174 10.5 4.5V6.06875C8.70148 6.31284 7.05221 7.20002 5.85726 8.56616C4.66231 9.93231 4.00254 11.685 4 13.5V27.5C4 28.163 4.26339 28.7989 4.73223 29.2678C5.20107 29.7366 5.83696 30 6.5 30H25.5C26.163 30 26.7989 29.7366 27.2678 29.2678C27.7366 28.7989 28 28.163 28 27.5V13.5C27.9975 11.685 27.3377 9.93231 26.1427 8.56616C24.9478 7.20002 23.2985 6.31284 21.5 6.06875ZM14 4H18C18.1326 4 18.2598 4.05268 18.3536 4.14645C18.4473 4.24021 18.5 4.36739 18.5 4.5V6H13.5V4.5C13.5 4.36739 13.5527 4.24021 13.6464 4.14645C13.7402 4.05268 13.8674 4 14 4ZM20 20H12V19C12 18.8674 12.0527 18.7402 12.1464 18.6464C12.2402 18.5527 12.3674 18.5 12.5 18.5H19.5C19.6326 18.5 19.7598 18.5527 19.8536 18.6464C19.9473 18.7402 20 18.8674 20 19V20ZM12 23H16V23.5C16 23.8978 16.158 24.2794 16.4393 24.5607C16.7206 24.842 17.1022 25 17.5 25C17.8978 25 18.2794 24.842 18.5607 24.5607C18.842 24.2794 19 23.8978 19 23.5V23H20V27H12V23ZM25 27H23V19C23 18.0717 22.6313 17.1815 21.9749 16.5251C21.3185 15.8687 20.4283 15.5 19.5 15.5H12.5C11.5717 15.5 10.6815 15.8687 10.0251 16.5251C9.36875 17.1815 9 18.0717 9 19V27H7V13.5C7 12.3065 7.47411 11.1619 8.31802 10.318C9.16193 9.47411 10.3065 9 11.5 9H20.5C21.6935 9 22.8381 9.47411 23.682 10.318C24.5259 11.1619 25 12.3065 25 13.5V27ZM20 12.5C20 12.8978 19.842 13.2794 19.5607 13.5607C19.2794 13.842 18.8978 14 18.5 14H13.5C13.1022 14 12.7206 13.842 12.4393 13.5607C12.158 13.2794 12 12.8978 12 12.5C12 12.1022 12.158 11.7206 12.4393 11.4393C12.7206 11.158 13.1022 11 13.5 11H18.5C18.8978 11 19.2794 11.158 19.5607 11.4393C19.842 11.7206 20 12.1022 20 12.5Z" fill="black"/>
</svg>
