<svg width="32" height="32" viewBox="0 0 32 32" fill="none" xmlns="http://www.w3.org/2000/svg">
<path d="M27 7.49998H22.4788C22.3468 5.87232 21.6071 4.35396 20.4066 3.24688C19.2062 2.13981 17.633 1.52515 16 1.52515C14.367 1.52515 12.7938 2.13981 11.5934 3.24688C10.3929 4.35396 9.65319 5.87232 9.52125 7.49998H5C4.33696 7.49998 3.70107 7.76337 3.23223 8.23221C2.76339 8.70106 2.5 9.33694 2.5 9.99998V25C2.5 25.663 2.76339 26.2989 3.23223 26.7677C3.70107 27.2366 4.33696 27.5 5 27.5H27C27.663 27.5 28.2989 27.2366 28.7678 26.7677C29.2366 26.2989 29.5 25.663 29.5 25V9.99998C29.5 9.33694 29.2366 8.70106 28.7678 8.23221C28.2989 7.76337 27.663 7.49998 27 7.49998ZM16 4.49998C16.8416 4.50007 17.6549 4.80338 18.2911 5.35435C18.9272 5.90531 19.3435 6.66704 19.4638 7.49998H12.5363C12.6565 6.66704 13.0728 5.90531 13.7089 5.35435C14.3451 4.80338 15.1584 4.50007 16 4.49998ZM26.5 24.5H5.5V10.5H26.5V24.5Z" fill="black"/>
</svg>
