<svg width="32" height="32" viewBox="0 0 32 32" fill="none" xmlns="http://www.w3.org/2000/svg">
<path d="M16 1.5C12.951 1.50331 10.0279 2.71597 7.87193 4.87193C5.71597 7.02788 4.50331 9.95103 4.5 13C4.5 16.0662 5.69375 19.2663 7.77375 21.7775C9.02375 23.2775 10.4688 24.4112 12.03 25.1225L10.625 28.4088C10.5273 28.6366 10.4875 28.8852 10.5094 29.1322C10.5312 29.3792 10.614 29.6169 10.7502 29.8241C10.8864 30.0313 11.0719 30.2015 11.29 30.3194C11.5081 30.4374 11.752 30.4994 12 30.5H20C20.248 30.4994 20.4919 30.4374 20.71 30.3194C20.9281 30.2015 21.1136 30.0313 21.2498 29.8241C21.386 29.6169 21.4688 29.3792 21.4906 29.1322C21.5125 28.8852 21.4727 28.6366 21.375 28.4088L19.97 25.125C21.5312 24.4137 22.98 23.2838 24.2262 21.78C26.3062 19.2663 27.5 16.0662 27.5 13C27.4967 9.95103 26.284 7.02788 24.1281 4.87193C21.9721 2.71597 19.049 1.50331 16 1.5ZM17.725 27.5H14.275L14.9438 25.9387C15.6455 26.0204 16.3545 26.0204 17.0562 25.9387L17.725 27.5ZM21.9163 19.8638C20.2413 21.8862 18.14 23 16 23C13.86 23 11.7587 21.8862 10.0837 19.8638C8.46625 17.9113 7.5 15.345 7.5 13C7.5 10.7457 8.39553 8.58365 9.98959 6.98959C11.5837 5.39553 13.7457 4.5 16 4.5C18.2543 4.5 20.4163 5.39553 22.0104 6.98959C23.6045 8.58365 24.5 10.7457 24.5 13C24.5 15.345 23.5338 17.9113 21.9163 19.8638ZM21.1238 13.9888C21.0738 13.9938 21.0237 13.9963 20.9737 13.9963C20.6019 13.9959 20.2435 13.8575 19.9679 13.6078C19.6924 13.3581 19.5194 13.015 19.4825 12.645C19.4139 11.9633 19.1467 11.3167 18.7141 10.7854C18.2815 10.2542 17.7024 9.86153 17.0487 9.65625C16.8609 9.59699 16.6865 9.50131 16.5356 9.37466C16.3847 9.24802 16.2603 9.0929 16.1693 8.91815C16.0784 8.7434 16.0227 8.55245 16.0056 8.3562C15.9884 8.15995 16.0101 7.96225 16.0694 7.77437C16.1286 7.5865 16.2243 7.41214 16.351 7.26125C16.4776 7.11035 16.6327 6.98588 16.8075 6.89494C16.9822 6.804 17.1732 6.74836 17.3694 6.73121C17.5657 6.71407 17.7634 6.73574 17.9513 6.795C19.1653 7.17609 20.2407 7.90555 21.0436 8.89272C21.8465 9.87989 22.3417 11.0813 22.4675 12.3475C22.4876 12.5437 22.4687 12.7419 22.4121 12.9308C22.3554 13.1197 22.2621 13.2956 22.1374 13.4484C22.0127 13.6012 21.8591 13.7279 21.6854 13.8213C21.5117 13.9146 21.3212 13.9728 21.125 13.9925L21.1238 13.9888Z" fill="black"/>
</svg>
