<svg width="32" height="32" viewBox="0 0 32 32" fill="none" xmlns="http://www.w3.org/2000/svg">
<path d="M16 17.5C16.8284 17.5 17.5 16.8284 17.5 16C17.5 15.1716 16.8284 14.5 16 14.5C15.1716 14.5 14.5 15.1716 14.5 16C14.5 16.8284 15.1716 17.5 16 17.5Z" fill="black"/>
<path d="M23.0712 16L26.5349 12.535C27.0125 12.0738 27.3934 11.5221 27.6554 10.912C27.9175 10.302 28.0554 9.64591 28.0612 8.98202C28.0669 8.31812 27.9404 7.65972 27.689 7.04524C27.4376 6.43076 27.0664 5.8725 26.5969 5.40303C26.1274 4.93357 25.5692 4.56231 24.9547 4.3109C24.3402 4.0595 23.6818 3.93299 23.0179 3.93876C22.354 3.94453 21.6979 4.08246 21.0879 4.3445C20.4779 4.60655 19.9262 4.98746 19.4649 5.46501L15.9999 8.92876L12.5349 5.46501C12.0737 4.98746 11.522 4.60655 10.9119 4.3445C10.3019 4.08246 9.64582 3.94453 8.98192 3.93876C8.31803 3.93299 7.65963 4.0595 7.04515 4.3109C6.43067 4.56231 5.87241 4.93357 5.40294 5.40303C4.93348 5.8725 4.56221 6.43076 4.31081 7.04524C4.0594 7.65972 3.9329 8.31812 3.93867 8.98202C3.94443 9.64591 4.08237 10.302 4.34441 10.912C4.60646 11.5221 4.98737 12.0738 5.46492 12.535L8.92867 16L5.46492 19.465C4.98737 19.9262 4.60646 20.478 4.34441 21.088C4.08237 21.698 3.94443 22.3541 3.93867 23.018C3.9329 23.6819 4.0594 24.3403 4.31081 24.9548C4.56221 25.5693 4.93348 26.1275 5.40294 26.597C5.87241 27.0664 6.43067 27.4377 7.04515 27.6891C7.65963 27.9405 8.31803 28.067 8.98192 28.0613C9.64582 28.0555 10.3019 27.9176 10.9119 27.6555C11.522 27.3935 12.0737 27.0126 12.5349 26.535L15.9999 23.0713L19.4649 26.535C19.9262 27.0126 20.4779 27.3935 21.0879 27.6555C21.6979 27.9176 22.354 28.0555 23.0179 28.0613C23.6818 28.067 24.3402 27.9405 24.9547 27.6891C25.5692 27.4377 26.1274 27.0664 26.5969 26.597C27.0664 26.1275 27.4376 25.5693 27.689 24.9548C27.9404 24.3403 28.0669 23.6819 28.0612 23.018C28.0554 22.3541 27.9175 21.698 27.6554 21.088C27.3934 20.478 27.0125 19.9262 26.5349 19.465L23.0712 16ZM15.9999 11.7575L20.2424 16L15.9999 20.2425L11.7574 16L15.9999 11.7575ZM20.8749 6.88251C21.4375 6.31892 22.2009 6.00191 22.9973 6.00121C23.7936 6.0005 24.5576 6.31617 25.1212 6.87876C25.6848 7.44135 26.0018 8.20478 26.0025 9.00111C26.0032 9.79743 25.6875 10.5614 25.1249 11.125L21.6599 14.59L17.4137 10.3438L20.8749 6.88251ZM11.1249 25.125C10.8459 25.4041 10.5146 25.6254 10.15 25.7765C9.78535 25.9275 9.39457 26.0052 8.99992 26.0052C8.60527 26.0052 8.21448 25.9275 7.84988 25.7765C7.48527 25.6254 7.15398 25.4041 6.87492 25.125C6.59586 24.846 6.3745 24.5147 6.22347 24.1501C6.07245 23.7854 5.99471 23.3947 5.99471 23C5.99471 22.6054 6.07245 22.2146 6.22347 21.85C6.3745 21.4854 6.59586 21.1541 6.87492 20.875L10.3399 17.41L14.5824 21.6525L11.1249 25.125Z" fill="black"/>
</svg>
