<svg width="32" height="32" viewBox="0 0 32 32" fill="none" xmlns="http://www.w3.org/2000/svg">
<path d="M23.7787 16L26.8887 12.8888C27.4105 12.3806 27.8261 11.7738 28.1115 11.1036C28.3968 10.4335 28.5463 9.71336 28.5511 8.98501C28.5558 8.25666 28.4159 7.53461 28.1394 6.86077C27.8629 6.18694 27.4553 5.57474 26.9403 5.0597C26.4252 4.54467 25.813 4.13707 25.1392 3.86055C24.4654 3.58404 23.7433 3.44411 23.015 3.44891C22.2866 3.45371 21.5665 3.60313 20.8963 3.88849C20.2262 4.17386 19.6194 4.58949 19.1112 5.11126L16 8.22126L12.8887 5.11126C12.3805 4.58949 11.7737 4.17386 11.1036 3.88849C10.4334 3.60313 9.7133 3.45371 8.98495 3.44891C8.2566 3.44411 7.53455 3.58404 6.86071 3.86055C6.18688 4.13707 5.57468 4.54467 5.05964 5.0597C4.54461 5.57474 4.13701 6.18694 3.86049 6.86077C3.58397 7.53461 3.44405 8.25666 3.44885 8.98501C3.45365 9.71336 3.60306 10.4335 3.88843 11.1036C4.1738 11.7738 4.58943 12.3806 5.1112 12.8888L8.2212 16L5.1112 19.1113C4.58943 19.6195 4.1738 20.2262 3.88843 20.8964C3.60306 21.5665 3.45365 22.2867 3.44885 23.015C3.44405 23.7434 3.58397 24.4654 3.86049 25.1392C4.13701 25.8131 4.54461 26.4253 5.05964 26.9403C5.57468 27.4554 6.18688 27.863 6.86071 28.1395C7.53455 28.416 8.2566 28.5559 8.98495 28.5511C9.7133 28.5463 10.4334 28.3969 11.1036 28.1115C11.7737 27.8262 12.3805 27.4105 12.8887 26.8888L16 23.7788L19.1112 26.8888C19.6194 27.4105 20.2262 27.8262 20.8963 28.1115C21.5665 28.3969 22.2866 28.5463 23.015 28.5511C23.7433 28.5559 24.4654 28.416 25.1392 28.1395C25.813 27.863 26.4252 27.4554 26.9403 26.9403C27.4553 26.4253 27.8629 25.8131 28.1394 25.1392C28.4159 24.4654 28.5558 23.7434 28.5511 23.015C28.5463 22.2867 28.3968 21.5665 28.1115 20.8964C27.8261 20.2262 27.4105 19.6195 26.8887 19.1113L23.7787 16ZM21.2325 7.23251C21.4631 6.99374 21.7389 6.80328 22.0439 6.67226C22.3489 6.54123 22.677 6.47227 23.0089 6.46938C23.3409 6.4665 23.6701 6.52975 23.9773 6.65546C24.2846 6.78116 24.5637 6.96679 24.7984 7.20152C25.0332 7.43625 25.2188 7.71539 25.3445 8.02263C25.4702 8.32987 25.5335 8.65907 25.5306 8.99101C25.5277 9.32296 25.4587 9.65101 25.3277 9.95602C25.1967 10.261 25.0062 10.5369 24.7675 10.7675L21.6562 13.875L18.125 10.3438L21.2325 7.23251ZM19.535 16L16 19.535L12.465 16L16 12.465L19.535 16ZM7.23245 10.7675C6.99367 10.5369 6.80322 10.261 6.6722 9.95602C6.54117 9.65101 6.47221 9.32296 6.46932 8.99101C6.46644 8.65907 6.52969 8.32987 6.6554 8.02263C6.7811 7.71539 6.96673 7.43625 7.20146 7.20152C7.43619 6.96679 7.71532 6.78116 8.02257 6.65546C8.32981 6.52975 8.659 6.4665 8.99095 6.46938C9.3229 6.47227 9.65095 6.54123 9.95596 6.67226C10.261 6.80328 10.5368 6.99374 10.7674 7.23251L13.875 10.3438L10.3437 13.875L7.23245 10.7675ZM10.7674 24.7675C10.5368 25.0063 10.261 25.1967 9.95596 25.3278C9.65095 25.4588 9.3229 25.5278 8.99095 25.5306C8.659 25.5335 8.32981 25.4703 8.02257 25.3446C7.71532 25.2189 7.43619 25.0332 7.20146 24.7985C6.96673 24.5638 6.7811 24.2846 6.6554 23.9774C6.52969 23.6702 6.46644 23.341 6.46932 23.009C6.47221 22.6771 6.54117 22.349 6.6722 22.044C6.80322 21.739 6.99367 21.4631 7.23245 21.2325L10.3437 18.125L13.875 21.6563L10.7674 24.7675ZM24.7675 24.7675C24.2986 25.2362 23.6629 25.4995 23 25.4995C22.337 25.4995 21.7013 25.2362 21.2325 24.7675L18.125 21.6563L21.6562 18.125L24.7675 21.2363C25.2361 21.7051 25.4994 22.3409 25.4994 23.0038C25.4994 23.6667 25.2361 24.3024 24.7675 24.7713V24.7675Z" fill="black"/>
</svg>
