<svg width="32" height="32" viewBox="0 0 32 32" fill="none" xmlns="http://www.w3.org/2000/svg">
<path d="M3 13.5H5.5V19.5H4C3.60218 19.5 3.22064 19.658 2.93934 19.9393C2.65804 20.2206 2.5 20.6022 2.5 21C2.5 21.3978 2.65804 21.7793 2.93934 22.0606C3.22064 22.3419 3.60218 22.5 4 22.5H28C28.3978 22.5 28.7794 22.3419 29.0607 22.0606C29.342 21.7793 29.5 21.3978 29.5 21C29.5 20.6022 29.342 20.2206 29.0607 19.9393C28.7794 19.658 28.3978 19.5 28 19.5H26.5V13.5H29C29.3266 13.5 29.6443 13.3934 29.9048 13.1964C30.1653 12.9995 30.3545 12.7228 30.4434 12.4085C30.5324 12.0943 30.5163 11.7596 30.3977 11.4553C30.2791 11.1509 30.0644 10.8937 29.7862 10.7225L16.7862 2.72249C16.5498 2.57696 16.2776 2.49991 16 2.49991C15.7224 2.49991 15.4502 2.57696 15.2137 2.72249L2.21375 10.7225C1.93559 10.8937 1.72089 11.1509 1.60228 11.4553C1.48367 11.7596 1.46763 12.0943 1.55659 12.4085C1.64555 12.7228 1.83465 12.9995 2.09517 13.1964C2.35569 13.3934 2.67339 13.5 3 13.5ZM8.5 13.5H11.5V19.5H8.5V13.5ZM17.5 13.5V19.5H14.5V13.5H17.5ZM23.5 19.5H20.5V13.5H23.5V19.5ZM16 5.76123L23.7 10.5H8.3L16 5.76123ZM31.5 26C31.5 26.3978 31.342 26.7793 31.0607 27.0606C30.7794 27.3419 30.3978 27.5 30 27.5H2C1.60218 27.5 1.22064 27.3419 0.93934 27.0606C0.658035 26.7793 0.5 26.3978 0.5 26C0.5 25.6022 0.658035 25.2206 0.93934 24.9393C1.22064 24.658 1.60218 24.5 2 24.5H30C30.3978 24.5 30.7794 24.658 31.0607 24.9393C31.342 25.2206 31.5 25.6022 31.5 26Z" fill="black"/>
</svg>
