<svg width="32" height="32" viewBox="0 0 32 32" fill="none" xmlns="http://www.w3.org/2000/svg">
<path d="M29 6.5V11.5C29 11.8978 28.842 12.2794 28.5607 12.5607C28.2794 12.842 27.8978 13 27.5 13C27.1022 13 26.7206 12.842 26.4393 12.5607C26.158 12.2794 26 11.8978 26 11.5V8H22.5C22.1022 8 21.7206 7.84196 21.4393 7.56066C21.158 7.27936 21 6.89782 21 6.5C21 6.10218 21.158 5.72064 21.4393 5.43934C21.7206 5.15804 22.1022 5 22.5 5H27.5C27.8978 5 28.2794 5.15804 28.5607 5.43934C28.842 5.72064 29 6.10218 29 6.5ZM9.5 24H6V20.5C6 20.1022 5.84196 19.7206 5.56066 19.4393C5.27936 19.158 4.89782 19 4.5 19C4.10218 19 3.72064 19.158 3.43934 19.4393C3.15804 19.7206 3 20.1022 3 20.5V25.5C3 25.8978 3.15804 26.2794 3.43934 26.5607C3.72064 26.842 4.10218 27 4.5 27H9.5C9.89782 27 10.2794 26.842 10.5607 26.5607C10.842 26.2794 11 25.8978 11 25.5C11 25.1022 10.842 24.7206 10.5607 24.4393C10.2794 24.158 9.89782 24 9.5 24ZM27.5 19C27.1022 19 26.7206 19.158 26.4393 19.4393C26.158 19.7206 26 20.1022 26 20.5V24H22.5C22.1022 24 21.7206 24.158 21.4393 24.4393C21.158 24.7206 21 25.1022 21 25.5C21 25.8978 21.158 26.2794 21.4393 26.5607C21.7206 26.842 22.1022 27 22.5 27H27.5C27.8978 27 28.2794 26.842 28.5607 26.5607C28.842 26.2794 29 25.8978 29 25.5V20.5C29 20.1022 28.842 19.7206 28.5607 19.4393C28.2794 19.158 27.8978 19 27.5 19ZM4.5 13C4.89782 13 5.27936 12.842 5.56066 12.5607C5.84196 12.2794 6 11.8978 6 11.5V8H9.5C9.89782 8 10.2794 7.84196 10.5607 7.56066C10.842 7.27936 11 6.89782 11 6.5C11 6.10218 10.842 5.72064 10.5607 5.43934C10.2794 5.15804 9.89782 5 9.5 5H4.5C4.10218 5 3.72064 5.15804 3.43934 5.43934C3.15804 5.72064 3 6.10218 3 6.5V11.5C3 11.8978 3.15804 12.2794 3.43934 12.5607C3.72064 12.842 4.10218 13 4.5 13ZM11 10C10.6022 10 10.2206 10.158 9.93934 10.4393C9.65804 10.7206 9.5 11.1022 9.5 11.5V20.5C9.5 20.8978 9.65804 21.2794 9.93934 21.5607C10.2206 21.842 10.6022 22 11 22C11.3978 22 11.7794 21.842 12.0607 21.5607C12.342 21.2794 12.5 20.8978 12.5 20.5V11.5C12.5 11.1022 12.342 10.7206 12.0607 10.4393C11.7794 10.158 11.3978 10 11 10ZM22.5 20.5V11.5C22.5 11.1022 22.342 10.7206 22.0607 10.4393C21.7794 10.158 21.3978 10 21 10C20.6022 10 20.2206 10.158 19.9393 10.4393C19.658 10.7206 19.5 11.1022 19.5 11.5V20.5C19.5 20.8978 19.658 21.2794 19.9393 21.5607C20.2206 21.842 20.6022 22 21 22C21.3978 22 21.7794 21.842 22.0607 21.5607C22.342 21.2794 22.5 20.8978 22.5 20.5ZM16 10C15.6022 10 15.2206 10.158 14.9393 10.4393C14.658 10.7206 14.5 11.1022 14.5 11.5V20.5C14.5 20.8978 14.658 21.2794 14.9393 21.5607C15.2206 21.842 15.6022 22 16 22C16.3978 22 16.7794 21.842 17.0607 21.5607C17.342 21.2794 17.5 20.8978 17.5 20.5V11.5C17.5 11.1022 17.342 10.7206 17.0607 10.4393C16.7794 10.158 16.3978 10 16 10Z" fill="black"/>
</svg>
