<svg width="32" height="32" viewBox="0 0 32 32" fill="none" xmlns="http://www.w3.org/2000/svg">
<path d="M28 7.5H4C3.33696 7.5 2.70107 7.76339 2.23223 8.23223C1.76339 8.70107 1.5 9.33696 1.5 10V19C1.5 19.663 1.76339 20.2989 2.23223 20.7678C2.70107 21.2366 3.33696 21.5 4 21.5H6.5V25C6.5 25.3978 6.65804 25.7794 6.93934 26.0607C7.22064 26.342 7.60218 26.5 8 26.5C8.39782 26.5 8.77936 26.342 9.06066 26.0607C9.34196 25.7794 9.5 25.3978 9.5 25V21.5H22.5V25C22.5 25.3978 22.658 25.7794 22.9393 26.0607C23.2206 26.342 23.6022 26.5 24 26.5C24.3978 26.5 24.7794 26.342 25.0607 26.0607C25.342 25.7794 25.5 25.3978 25.5 25V21.5H28C28.663 21.5 29.2989 21.2366 29.7678 20.7678C30.2366 20.2989 30.5 19.663 30.5 19V10C30.5 9.33696 30.2366 8.70107 29.7678 8.23223C29.2989 7.76339 28.663 7.5 28 7.5ZM27.5 14.875L23.125 10.5H27.5V14.875ZM22.125 18.5L14.125 10.5H18.875L26.875 18.5H22.125ZM13.125 18.5L5.125 10.5H9.875L17.875 18.5H13.125ZM4.5 14.125L8.875 18.5H4.5V14.125Z" fill="black"/>
</svg>
