<svg width="32" height="32" viewBox="0 0 32 32" fill="none" xmlns="http://www.w3.org/2000/svg">
<path d="M16 2.5C12.4208 2.50397 8.98934 3.92756 6.45846 6.45844C3.92758 8.98932 2.50399 12.4208 2.50002 16V23C2.49812 23.6451 2.67546 24.2781 3.01227 24.8284C3.34908 25.3786 3.83212 25.8245 4.40751 26.1162C4.98481 26.4112 5.6327 26.5401 6.27895 26.4885C6.92519 26.4368 7.5444 26.2067 8.06752 25.8237C9.52502 24.7638 12.085 23.5 16 23.5C19.915 23.5 22.475 24.7625 23.9325 25.8225C24.4541 26.2044 25.0712 26.4343 25.7155 26.4868C26.3598 26.5394 27.0061 26.4125 27.5826 26.1202C28.1592 25.8279 28.6435 25.3816 28.982 24.8309C29.3204 24.2801 29.4997 23.6464 29.5 23V16C29.496 12.4208 28.0725 8.98932 25.5416 6.45844C23.0107 3.92756 19.5792 2.50397 16 2.5ZM26.5 16V16.2337C25.1806 15.4914 23.7856 14.8921 22.3388 14.4462C21.9589 11.4801 20.9603 8.62685 19.4075 6.07125C21.4752 6.78342 23.2696 8.12244 24.5408 9.90198C25.8119 11.6815 26.4968 13.8131 26.5 16ZM19.1925 13.735C17.0757 13.4217 14.9243 13.4217 12.8075 13.735C13.3272 11.0774 14.4163 8.56399 16 6.3675C17.5835 8.56413 18.6726 11.0775 19.1925 13.735ZM12.5925 6.07125C11.0397 8.62685 10.0411 11.4801 9.66127 14.4462C8.21447 14.8921 6.81946 15.4914 5.50002 16.2337V16C5.50323 13.8131 6.18808 11.6815 7.45928 9.90198C8.73048 8.12244 10.5248 6.78342 12.5925 6.07125ZM26.2313 23.4463C26.147 23.4904 26.052 23.5096 25.9572 23.5016C25.8625 23.4937 25.7719 23.4589 25.6963 23.4013C23.875 22.0763 20.7213 20.5 16 20.5C11.2788 20.5 8.12502 22.0762 6.30377 23.3975C6.2281 23.4551 6.13758 23.4899 6.04282 23.4979C5.94806 23.5059 5.85299 23.4867 5.76877 23.4425C5.68556 23.4032 5.61575 23.3403 5.56797 23.2616C5.5202 23.1829 5.49657 23.092 5.50002 23V19.7675C8.58781 17.6389 12.2496 16.499 16 16.499C19.7504 16.499 23.4122 17.6389 26.5 19.7675V23C26.5035 23.092 26.4798 23.1829 26.4321 23.2616C26.3843 23.3403 26.3145 23.4032 26.2313 23.4425V23.4463Z" fill="black"/>
</svg>
