<svg width="32" height="32" viewBox="0 0 32 32" fill="none" xmlns="http://www.w3.org/2000/svg">
<path d="M16 2.5C13.33 2.5 10.7199 3.29176 8.49981 4.77516C6.27974 6.25856 4.54942 8.36697 3.52763 10.8338C2.50585 13.3006 2.2385 16.015 2.7594 18.6337C3.28031 21.2525 4.56606 23.6579 6.45406 25.5459C8.34207 27.434 10.7475 28.7197 13.3663 29.2406C15.985 29.7615 18.6994 29.4942 21.1662 28.4724C23.633 27.4506 25.7414 25.7203 27.2248 23.5002C28.7082 21.2801 29.5 18.67 29.5 16C29.496 12.4208 28.0724 8.98932 25.5416 6.45844C23.0107 3.92756 19.5792 2.50397 16 2.5ZM9.62501 24.3325C10.0174 23.8306 10.3741 23.3018 10.6925 22.75C10.7987 22.5792 10.8695 22.3889 10.9006 22.1902C10.9318 21.9916 10.9227 21.7887 10.8739 21.5936C10.825 21.3986 10.7375 21.2153 10.6164 21.0547C10.4954 20.8942 10.3432 20.7596 10.1691 20.659C9.99503 20.5584 9.80247 20.4939 9.60291 20.4692C9.40335 20.4445 9.20086 20.4602 9.00748 20.5153C8.81411 20.5704 8.63379 20.6639 8.47725 20.7901C8.32071 20.9163 8.19114 21.0727 8.09626 21.25C7.91347 21.5631 7.71445 21.8664 7.50001 22.1588C6.1977 20.3693 5.49615 18.2131 5.49615 16C5.49615 13.7869 6.1977 11.6307 7.50001 9.84125C7.71445 10.1336 7.91347 10.4369 8.09626 10.75C8.19114 10.9273 8.32071 11.0837 8.47725 11.2099C8.63379 11.3361 8.81411 11.4296 9.00748 11.4847C9.20086 11.5398 9.40335 11.5555 9.60291 11.5308C9.80247 11.5061 9.99503 11.4416 10.1691 11.341C10.3432 11.2404 10.4954 11.1058 10.6164 10.9453C10.7375 10.7847 10.825 10.6014 10.8739 10.4064C10.9227 10.2113 10.9318 10.0084 10.9006 9.80977C10.8695 9.61112 10.7987 9.42075 10.6925 9.25C10.3741 8.69817 10.0174 8.16937 9.62501 7.6675C11.4544 6.262 13.6968 5.50006 16.0038 5.50006C18.3107 5.50006 20.5531 6.262 22.3825 7.6675C21.9875 8.16914 21.6283 8.69794 21.3075 9.25C21.2013 9.42075 21.1305 9.61112 21.0994 9.80977C21.0682 10.0084 21.0773 10.2113 21.1262 10.4064C21.175 10.6014 21.2625 10.7847 21.3836 10.9453C21.5047 11.1058 21.6568 11.2404 21.8309 11.341C22.005 11.4416 22.1975 11.5061 22.3971 11.5308C22.5967 11.5555 22.7992 11.5398 22.9925 11.4847C23.1859 11.4296 23.3662 11.3361 23.5228 11.2099C23.6793 11.0837 23.8089 10.9273 23.9038 10.75C24.0865 10.4369 24.2856 10.1336 24.5 9.84125C25.8023 11.6307 26.5039 13.7869 26.5039 16C26.5039 18.2131 25.8023 20.3693 24.5 22.1588C24.2868 21.8659 24.089 21.5622 23.9075 21.2488C23.8126 21.0715 23.6831 20.9151 23.5265 20.7889C23.37 20.6626 23.1897 20.5692 22.9963 20.5141C22.8029 20.4589 22.6004 20.4432 22.4009 20.4679C22.2013 20.4926 22.0087 20.5572 21.8346 20.6578C21.6605 20.7584 21.5084 20.8929 21.3873 21.0535C21.2663 21.2141 21.1787 21.3973 21.1299 21.5924C21.0811 21.7874 21.072 21.9903 21.1031 22.189C21.1343 22.3876 21.2051 22.578 21.3113 22.7488C21.6284 23.3009 21.9838 23.8301 22.375 24.3325C20.5456 25.738 18.3032 26.4999 15.9963 26.4999C13.6893 26.4999 11.4469 25.738 9.61751 24.3325H9.62501ZM12.4 14.315C12.4678 14.8741 12.5012 15.4368 12.5 16C12.5 16.5633 12.4653 17.126 12.3963 17.685C12.3512 18.0478 12.1751 18.3817 11.9012 18.6238C11.6273 18.866 11.2744 18.9997 10.9088 19C10.8461 18.9999 10.7835 18.9962 10.7213 18.9888C10.3266 18.9394 9.96772 18.7354 9.72347 18.4215C9.47922 18.1077 9.36962 17.7097 9.41876 17.315C9.47278 16.8787 9.49991 16.4396 9.50001 16C9.49991 15.5604 9.47278 15.1213 9.41876 14.685C9.39413 14.4895 9.40826 14.2911 9.46033 14.101C9.5124 13.911 9.60139 13.733 9.72222 13.5774C9.84305 13.4217 9.99336 13.2914 10.1646 13.1938C10.3358 13.0963 10.5245 13.0334 10.72 13.0087C10.9155 12.9841 11.114 12.9983 11.304 13.0503C11.494 13.1024 11.672 13.1914 11.8276 13.3122C11.9833 13.433 12.1136 13.5834 12.2112 13.7546C12.3087 13.9258 12.3716 14.1145 12.3963 14.31L12.4 14.315ZM21.2825 18.9888C21.2203 18.9962 21.1577 18.9999 21.095 19C20.7294 18.9997 20.3765 18.866 20.1026 18.6238C19.8286 18.3817 19.6526 18.0478 19.6075 17.685C19.4688 16.5643 19.4688 15.4307 19.6075 14.31C19.6321 14.1145 19.695 13.9258 19.7926 13.7546C19.8901 13.5834 20.0205 13.433 20.1761 13.3122C20.3318 13.1914 20.5097 13.1024 20.6998 13.0503C20.8898 12.9983 21.0883 12.9841 21.2838 13.0087C21.4793 13.0334 21.668 13.0963 21.8392 13.1938C22.0104 13.2914 22.1607 13.4217 22.2815 13.5774C22.4024 13.733 22.4914 13.911 22.5434 14.101C22.5955 14.2911 22.6096 14.4895 22.585 14.685C22.4771 15.5567 22.4771 16.4383 22.585 17.31C22.61 17.5061 22.596 17.7052 22.5438 17.8958C22.4916 18.0865 22.4023 18.2649 22.2809 18.4209C22.1595 18.577 22.0085 18.7074 21.8365 18.8049C21.6645 18.9023 21.475 18.9648 21.2788 18.9888H21.2825Z" fill="black"/>
</svg>
