<svg width="32" height="32" viewBox="0 0 32 32" fill="none" xmlns="http://www.w3.org/2000/svg">
<path d="M7.95004 5.79872C9.82479 4.31296 12.0748 3.37617 14.45 3.09247C14.5203 3.08452 14.5914 3.09154 14.6587 3.11308C14.726 3.13463 14.788 3.17019 14.8406 3.21744C14.8931 3.26469 14.9351 3.32254 14.9636 3.38718C14.9922 3.45183 15.0067 3.5218 15.0063 3.59247V15H11.9625C11.7141 11.7802 10.2735 8.76893 7.92254 6.55497C7.86995 6.50609 7.8285 6.44645 7.80101 6.38012C7.77353 6.31378 7.76065 6.24231 7.76326 6.17055C7.76587 6.0988 7.7839 6.02845 7.81613 5.96428C7.84836 5.90012 7.89404 5.84365 7.95004 5.79872ZM5.75004 8.00872C4.29199 9.86951 3.37159 12.0942 3.08879 14.4412C3.08046 14.5116 3.0872 14.583 3.10857 14.6506C3.12993 14.7183 3.16544 14.7806 3.21273 14.8334C3.26002 14.8862 3.318 14.9284 3.38284 14.9571C3.44768 14.9859 3.51788 15.0005 3.58879 15H9.95379C9.70712 12.3024 8.47218 9.79107 6.48629 7.94872C6.43542 7.90135 6.37524 7.8651 6.30957 7.8423C6.24391 7.8195 6.17421 7.81063 6.10493 7.81628C6.03565 7.82193 5.96831 7.84196 5.9072 7.87509C5.8461 7.90823 5.79257 7.95374 5.75004 8.00872ZM24.05 5.79872C22.1753 4.31296 19.9253 3.37617 17.55 3.09247C17.4798 3.08452 17.4087 3.09154 17.3414 3.11308C17.2741 3.13463 17.2121 3.17019 17.1595 3.21744C17.107 3.26469 17.065 3.32254 17.0365 3.38718C17.0079 3.45183 16.9933 3.5218 16.9938 3.59247V15H20.0313C20.2798 11.7802 21.7203 8.76893 24.0713 6.55497C24.1243 6.50653 24.1662 6.44725 24.1942 6.38116C24.2222 6.31508 24.2356 6.24373 24.2336 6.17198C24.2316 6.10024 24.2142 6.02976 24.1825 5.96535C24.1508 5.90095 24.1056 5.84411 24.05 5.79872ZM28.9075 14.4412C28.6258 12.0946 27.7068 9.86992 26.25 8.00872C26.2075 7.95432 26.1542 7.90932 26.0934 7.87655C26.0326 7.84378 25.9657 7.82395 25.8969 7.81832C25.8281 7.81268 25.7589 7.82136 25.6936 7.8438C25.6283 7.86624 25.5683 7.90197 25.5175 7.94872C23.5303 9.79047 22.294 12.3018 22.0463 15H28.41C28.4807 15.0001 28.5507 14.9852 28.6152 14.9564C28.6797 14.9275 28.7374 14.8853 28.7844 14.8325C28.8314 14.7797 28.8667 14.7175 28.888 14.65C28.9092 14.5826 28.9158 14.5114 28.9075 14.4412ZM3.09254 17.5587C3.37424 19.9054 4.29333 22.13 5.75004 23.9912C5.79256 24.0456 5.84589 24.0906 5.90666 24.1234C5.96744 24.1562 6.03434 24.176 6.10315 24.1816C6.17197 24.1873 6.2412 24.1786 6.3065 24.1561C6.3718 24.1337 6.43174 24.098 6.48254 24.0512C8.46981 22.2095 9.70613 19.6981 9.95379 17H3.59004C3.51934 16.9998 3.44942 17.0147 3.38488 17.0436C3.32034 17.0724 3.26267 17.1147 3.21565 17.1675C3.16864 17.2203 3.13335 17.2825 3.11213 17.3499C3.09091 17.4173 3.08423 17.4885 3.09254 17.5587ZM26.25 23.9912C27.7081 22.1304 28.6285 19.9057 28.9113 17.5587C28.9196 17.4883 28.9129 17.4169 28.8915 17.3493C28.8701 17.2817 28.8346 17.2194 28.7874 17.1665C28.7401 17.1137 28.6821 17.0715 28.6172 17.0428C28.5524 17.0141 28.4822 16.9995 28.4113 17H22.0463C22.293 19.6976 23.5279 22.2089 25.5138 24.0512C25.5647 24.0986 25.6248 24.1348 25.6905 24.1576C25.7562 24.1804 25.8259 24.1893 25.8952 24.1837C25.9644 24.178 26.0318 24.158 26.0929 24.1248C26.154 24.0917 26.2075 24.0462 26.25 23.9912ZM7.95004 26.2012C9.82479 27.687 12.0748 28.6238 14.45 28.9075C14.5203 28.9154 14.5914 28.9084 14.6587 28.8869C14.726 28.8653 14.788 28.8297 14.8406 28.7825C14.8931 28.7353 14.9351 28.6774 14.9636 28.6128C14.9922 28.5481 15.0067 28.4781 15.0063 28.4075V17H11.9625C11.7141 20.2197 10.2735 23.231 7.92254 25.445C7.86995 25.4939 7.8285 25.5535 7.80101 25.6198C7.77353 25.6862 7.76065 25.7576 7.76326 25.8294C7.76587 25.9011 7.7839 25.9715 7.81613 26.0357C7.84836 26.0998 7.89404 26.1563 7.95004 26.2012ZM20.0375 17H17V28.41C16.9996 28.4806 17.0141 28.5506 17.0427 28.6153C17.0713 28.6799 17.1132 28.7378 17.1658 28.785C17.2183 28.8322 17.2803 28.8678 17.3476 28.8894C17.415 28.9109 17.4861 28.9179 17.5563 28.91C19.9315 28.6263 22.1815 27.6895 24.0563 26.2037C24.1123 26.1588 24.158 26.1023 24.1902 26.0382C24.2224 25.974 24.2405 25.9036 24.2431 25.8319C24.2457 25.7601 24.2328 25.6887 24.2053 25.6223C24.1778 25.556 24.1364 25.4964 24.0838 25.4475C21.73 23.2339 20.2871 20.2215 20.0375 17Z" fill="black"/>
</svg>
