<svg width="32" height="32" viewBox="0 0 32 32" fill="none" xmlns="http://www.w3.org/2000/svg">
<path d="M17.4999 16V21C17.4999 21.3978 17.3419 21.7793 17.0606 22.0606C16.7793 22.3419 16.3977 22.5 15.9999 22.5C15.6021 22.5 15.2205 22.3419 14.9392 22.0606C14.6579 21.7793 14.4999 21.3978 14.4999 21V16C14.4999 15.6022 14.6579 15.2206 14.9392 14.9393C15.2205 14.658 15.6021 14.5 15.9999 14.5C16.3977 14.5 16.7793 14.658 17.0606 14.9393C17.3419 15.2206 17.4999 15.6022 17.4999 16ZM30.4774 12.33L28.7499 25.33C28.6683 25.9309 28.3717 26.4818 27.915 26.8808C27.4583 27.2798 26.8726 27.4998 26.2662 27.5H5.73365C5.12751 27.4995 4.54202 27.2796 4.08544 26.881C3.62885 26.4823 3.33205 25.9318 3.2499 25.3312L1.5174 12.3312C1.47015 11.9777 1.49908 11.6182 1.60226 11.2768C1.70544 10.9353 1.88047 10.62 2.11562 10.3518C2.35076 10.0836 2.64056 9.86884 2.96556 9.72192C3.29056 9.57501 3.64324 9.49933 3.9999 9.49998H8.31866L14.8749 2.01248C15.0157 1.85162 15.1892 1.7227 15.3839 1.63438C15.5786 1.54606 15.7899 1.50037 16.0037 1.50037C16.2174 1.50037 16.4287 1.54606 16.6234 1.63438C16.8181 1.7227 16.9916 1.85162 17.1324 2.01248L23.6812 9.49998H27.9999C28.3559 9.50025 28.7078 9.57655 29.0319 9.72378C29.3561 9.87102 29.645 10.0858 29.8795 10.3537C30.1139 10.6216 30.2884 10.9366 30.3913 11.2774C30.4942 11.6182 30.5231 11.9771 30.4762 12.33H30.4774ZM12.3062 9.49998H19.6949L15.9999 5.27748L12.3062 9.49998ZM27.4312 12.5H4.57115L6.17115 24.5H25.8287L27.4312 12.5ZM21.0099 15.8512L20.5099 20.8512C20.4705 21.2471 20.5899 21.6423 20.8419 21.9501C21.0939 22.2579 21.4578 22.453 21.8537 22.4925C21.9037 22.4925 21.9549 22.5 22.0049 22.5C22.3765 22.4993 22.7347 22.3608 23.01 22.1111C23.2852 21.8615 23.4581 21.5185 23.4949 21.1487L23.9949 16.1487C24.0169 15.9515 23.9996 15.7518 23.9439 15.5613C23.8882 15.3708 23.7952 15.1932 23.6704 15.0389C23.5456 14.8846 23.3914 14.7566 23.2167 14.6623C23.0421 14.568 22.8504 14.5093 22.6529 14.4897C22.4554 14.47 22.256 14.4897 22.0662 14.5476C21.8763 14.6056 21.6999 14.7007 21.5471 14.8273C21.3942 14.9539 21.2681 15.1097 21.1759 15.2854C21.0836 15.4612 21.0272 15.6535 21.0099 15.8512ZM10.9949 15.8512C10.9511 15.4589 10.7544 15.0997 10.4475 14.8515C10.1406 14.6032 9.7482 14.4859 9.35541 14.5251C8.96262 14.5642 8.60109 14.7566 8.34921 15.0606C8.09734 15.3645 7.97542 15.7555 8.0099 16.1487L8.5099 21.1487C8.54676 21.5185 8.71957 21.8615 8.99485 22.1111C9.27013 22.3608 9.62828 22.4993 9.9999 22.5C10.0487 22.5 10.0999 22.5 10.1499 22.4925C10.5457 22.453 10.9097 22.2579 11.1617 21.9501C11.4137 21.6423 11.5331 21.2471 11.4937 20.8512L10.9949 15.8512Z" fill="black"/>
</svg>
