<svg width="32" height="32" viewBox="0 0 32 32" fill="none" xmlns="http://www.w3.org/2000/svg">
<path d="M16 2.5C13.33 2.5 10.7199 3.29176 8.49981 4.77516C6.27974 6.25856 4.54942 8.36697 3.52763 10.8338C2.50585 13.3006 2.2385 16.015 2.7594 18.6337C3.28031 21.2525 4.56606 23.6579 6.45406 25.5459C8.34207 27.434 10.7475 28.7197 13.3663 29.2406C15.985 29.7615 18.6994 29.4942 21.1662 28.4724C23.633 27.4506 25.7414 25.7203 27.2248 23.5002C28.7082 21.2801 29.5 18.67 29.5 16C29.496 12.4208 28.0724 8.98932 25.5416 6.45844C23.0107 3.92756 19.5792 2.50397 16 2.5ZM7.50001 22.16C6.49959 20.7838 5.85037 19.1841 5.60876 17.5H9.39251C9.15294 19.1849 8.50305 20.7852 7.50001 22.16ZM5.60876 14.5C5.85037 12.8159 6.49959 11.2162 7.50001 9.84C8.50305 11.2148 9.15294 12.8151 9.39251 14.5H5.60876ZM14.5 26.3913C12.7254 26.1348 11.0467 25.4263 9.62501 24.3337C11.1789 22.3631 12.1466 19.9949 12.4175 17.5H14.5V26.3913ZM14.5 14.5H12.4175C12.1466 12.0051 11.1789 9.63688 9.62501 7.66625C11.0467 6.5737 12.7254 5.86516 14.5 5.60875V14.5ZM24.5 9.84C25.5004 11.2162 26.1496 12.8159 26.3913 14.5H22.6075C22.8471 12.8151 23.497 11.2148 24.5 9.84ZM17.5 26.3913V17.5H19.5825C19.8534 19.9949 20.8212 22.3631 22.375 24.3337C20.9533 25.4263 19.2746 26.1348 17.5 26.3913ZM19.5825 14.5H17.5V5.60875C19.2746 5.86516 20.9533 6.5737 22.375 7.66625C20.8212 9.63688 19.8534 12.0051 19.5825 14.5ZM24.5 22.16C23.497 20.7852 22.8471 19.1849 22.6075 17.5H26.3913C26.1496 19.1841 25.5004 20.7838 24.5 22.16Z" fill="black"/>
</svg>
