<svg width="32" height="32" viewBox="0 0 32 32" fill="none" xmlns="http://www.w3.org/2000/svg">
<path d="M29 11.5H26.4125C26.3092 11.2078 26.1179 10.9548 25.865 10.7757C25.6121 10.5967 25.3099 10.5003 25 10.5H17C16.6901 10.5003 16.3879 10.5967 16.135 10.7757C15.8821 10.9548 15.6908 11.2078 15.5875 11.5H8.5V6.49999C8.5 6.23477 8.60536 5.98042 8.79289 5.79288C8.98043 5.60534 9.23478 5.49999 9.5 5.49999C9.73601 5.49982 9.96536 5.57824 10.1519 5.72287C10.3384 5.8675 10.4714 6.07011 10.53 6.29874C10.6092 6.68861 10.8401 7.03103 11.1718 7.25068C11.5035 7.47034 11.9089 7.54922 12.2987 7.46999C12.6886 7.39075 13.031 7.15989 13.2507 6.82819C13.4703 6.49648 13.5492 6.09111 13.47 5.70124C13.2668 4.72772 12.7107 3.86378 11.9086 3.2758C11.1066 2.68782 10.1153 2.41737 9.12581 2.51654C8.13627 2.61571 7.21842 3.07749 6.54899 3.81294C5.87957 4.54839 5.50592 5.50551 5.5 6.49999V11.5H3C2.6717 11.5 2.34661 11.5647 2.04329 11.6903C1.73998 11.8159 1.46438 12.0001 1.23223 12.2322C0.763392 12.7011 0.5 13.3369 0.5 14V18C0.502595 19.9016 1.2266 21.7314 2.52583 23.1199C3.82507 24.5085 5.60276 25.3524 7.5 25.4812V27C7.5 27.3978 7.65804 27.7793 7.93934 28.0606C8.22064 28.342 8.60218 28.5 9 28.5C9.39782 28.5 9.77936 28.342 10.0607 28.0606C10.342 27.7793 10.5 27.3978 10.5 27V25.5H21.5V27C21.5 27.3978 21.658 27.7793 21.9393 28.0606C22.2206 28.342 22.6022 28.5 23 28.5C23.3978 28.5 23.7794 28.342 24.0607 28.0606C24.342 27.7793 24.5 27.3978 24.5 27V25.4812C26.3972 25.3524 28.1749 24.5085 29.4742 23.1199C30.7734 21.7314 31.4974 19.9016 31.5 18V14C31.5 13.3369 31.2366 12.7011 30.7678 12.2322C30.2989 11.7634 29.663 11.5 29 11.5ZM18.5 13.5H23.5V16.5H18.5V13.5ZM28.5 18C28.5 19.1935 28.0259 20.3381 27.182 21.182C26.3381 22.0259 25.1935 22.5 24 22.5H8C6.80653 22.5 5.66193 22.0259 4.81802 21.182C3.97411 20.3381 3.5 19.1935 3.5 18V14.5H15.5V18C15.5 18.3978 15.658 18.7793 15.9393 19.0606C16.2206 19.342 16.6022 19.5 17 19.5H25C25.3978 19.5 25.7794 19.342 26.0607 19.0606C26.342 18.7793 26.5 18.3978 26.5 18V14.5H28.5V18Z" fill="black"/>
</svg>
