<svg width="32" height="32" viewBox="0 0 32 32" fill="none" xmlns="http://www.w3.org/2000/svg">
<path d="M11.5 1.5C11.5 1.10218 11.658 0.720644 11.9393 0.43934C12.2206 0.158035 12.6022 0 13 0L19 0C19.3978 0 19.7794 0.158035 20.0607 0.43934C20.342 0.720644 20.5 1.10218 20.5 1.5C20.5 1.89782 20.342 2.27936 20.0607 2.56066C19.7794 2.84196 19.3978 3 19 3H13C12.6022 3 12.2206 2.84196 11.9393 2.56066C11.658 2.27936 11.5 1.89782 11.5 1.5ZM25.5 7.5V28.5C25.5 29.4283 25.1313 30.3185 24.4749 30.9749C23.8185 31.6313 22.9283 32 22 32H10C9.07174 32 8.1815 31.6313 7.52513 30.9749C6.86875 30.3185 6.5 29.4283 6.5 28.5V7.5C6.5 6.57174 6.86875 5.6815 7.52513 5.02513C8.1815 4.36875 9.07174 4 10 4H22C22.9283 4 23.8185 4.36875 24.4749 5.02513C25.1313 5.6815 25.5 6.57174 25.5 7.5ZM22.5 7.5C22.5 7.36739 22.4473 7.24021 22.3536 7.14645C22.2598 7.05268 22.1326 7 22 7H10C9.86739 7 9.74021 7.05268 9.64645 7.14645C9.55268 7.24021 9.5 7.36739 9.5 7.5V28.5C9.5 28.6326 9.55268 28.7598 9.64645 28.8536C9.74021 28.9473 9.86739 29 10 29H22C22.1326 29 22.2598 28.9473 22.3536 28.8536C22.4473 28.7598 22.5 28.6326 22.5 28.5V7.5ZM19 16H17.5V14.5C17.5 14.1022 17.342 13.7206 17.0607 13.4393C16.7794 13.158 16.3978 13 16 13C15.6022 13 15.2206 13.158 14.9393 13.4393C14.658 13.7206 14.5 14.1022 14.5 14.5V16H13C12.6022 16 12.2206 16.158 11.9393 16.4393C11.658 16.7206 11.5 17.1022 11.5 17.5C11.5 17.8978 11.658 18.2794 11.9393 18.5607C12.2206 18.842 12.6022 19 13 19H14.5V20.5C14.5 20.8978 14.658 21.2794 14.9393 21.5607C15.2206 21.842 15.6022 22 16 22C16.3978 22 16.7794 21.842 17.0607 21.5607C17.342 21.2794 17.5 20.8978 17.5 20.5V19H19C19.3978 19 19.7794 18.842 20.0607 18.5607C20.342 18.2794 20.5 17.8978 20.5 17.5C20.5 17.1022 20.342 16.7206 20.0607 16.4393C19.7794 16.158 19.3978 16 19 16Z" fill="black"/>
</svg>
