<svg width="32" height="32" viewBox="0 0 32 32" fill="none" xmlns="http://www.w3.org/2000/svg">
<path d="M19 16C19 16.3978 18.842 16.7794 18.5607 17.0607C18.2794 17.342 17.8978 17.5 17.5 17.5H16V19C16 19.3978 15.842 19.7794 15.5607 20.0607C15.2794 20.342 14.8978 20.5 14.5 20.5C14.1022 20.5 13.7206 20.342 13.4393 20.0607C13.158 19.7794 13 19.3978 13 19V17.5H11.5C11.1022 17.5 10.7206 17.342 10.4393 17.0607C10.158 16.7794 10 16.3978 10 16C10 15.6022 10.158 15.2206 10.4393 14.9393C10.7206 14.658 11.1022 14.5 11.5 14.5H13V13C13 12.6022 13.158 12.2206 13.4393 11.9393C13.7206 11.658 14.1022 11.5 14.5 11.5C14.8978 11.5 15.2794 11.658 15.5607 11.9393C15.842 12.2206 16 12.6022 16 13V14.5H17.5C17.8978 14.5 18.2794 14.658 18.5607 14.9393C18.842 15.2206 19 15.6022 19 16ZM28 10V22C28 22.9283 27.6313 23.8185 26.9749 24.4749C26.3185 25.1313 25.4283 25.5 24.5 25.5H3.5C2.57174 25.5 1.6815 25.1313 1.02513 24.4749C0.368749 23.8185 0 22.9283 0 22L0 10C0 9.07174 0.368749 8.1815 1.02513 7.52513C1.6815 6.86875 2.57174 6.5 3.5 6.5H24.5C25.4283 6.5 26.3185 6.86875 26.9749 7.52513C27.6313 8.1815 28 9.07174 28 10ZM25 10C25 9.86739 24.9473 9.74021 24.8536 9.64645C24.7598 9.55268 24.6326 9.5 24.5 9.5H3.5C3.36739 9.5 3.24021 9.55268 3.14645 9.64645C3.05268 9.74021 3 9.86739 3 10V22C3 22.1326 3.05268 22.2598 3.14645 22.3536C3.24021 22.4473 3.36739 22.5 3.5 22.5H24.5C24.6326 22.5 24.7598 22.4473 24.8536 22.3536C24.9473 22.2598 25 22.1326 25 22V10ZM30.5 11.5C30.1022 11.5 29.7206 11.658 29.4393 11.9393C29.158 12.2206 29 12.6022 29 13V19C29 19.3978 29.158 19.7794 29.4393 20.0607C29.7206 20.342 30.1022 20.5 30.5 20.5C30.8978 20.5 31.2794 20.342 31.5607 20.0607C31.842 19.7794 32 19.3978 32 19V13C32 12.6022 31.842 12.2206 31.5607 11.9393C31.2794 11.658 30.8978 11.5 30.5 11.5Z" fill="black"/>
</svg>
