<svg width="32" height="32" viewBox="0 0 32 32" fill="none" xmlns="http://www.w3.org/2000/svg">
<path d="M24.5 6.5H3.5C2.57174 6.5 1.6815 6.86875 1.02513 7.52513C0.368749 8.1815 0 9.07174 0 10L0 22C0 22.9283 0.368749 23.8185 1.02513 24.4749C1.6815 25.1313 2.57174 25.5 3.5 25.5H24.5C25.4283 25.5 26.3185 25.1313 26.9749 24.4749C27.6313 23.8185 28 22.9283 28 22V10C28 9.07174 27.6313 8.1815 26.9749 7.52513C26.3185 6.86875 25.4283 6.5 24.5 6.5ZM25 22C25 22.1326 24.9473 22.2598 24.8536 22.3536C24.7598 22.4473 24.6326 22.5 24.5 22.5H3.5C3.36739 22.5 3.24021 22.4473 3.14645 22.3536C3.05268 22.2598 3 22.1326 3 22V10C3 9.86739 3.05268 9.74021 3.14645 9.64645C3.24021 9.55268 3.36739 9.5 3.5 9.5H24.5C24.6326 9.5 24.7598 9.55268 24.8536 9.64645C24.9473 9.74021 25 9.86739 25 10V22ZM32 13V19C32 19.3978 31.842 19.7794 31.5607 20.0607C31.2794 20.342 30.8978 20.5 30.5 20.5C30.1022 20.5 29.7206 20.342 29.4393 20.0607C29.158 19.7794 29 19.3978 29 19V13C29 12.6022 29.158 12.2206 29.4393 11.9393C29.7206 11.658 30.1022 11.5 30.5 11.5C30.8978 11.5 31.2794 11.658 31.5607 11.9393C31.842 12.2206 32 12.6022 32 13ZM17.7975 15.25C17.9292 15.478 17.9985 15.7367 17.9985 16C17.9985 16.2633 17.9292 16.522 17.7975 16.75L15.7975 20.25C15.7012 20.4236 15.5713 20.5763 15.4155 20.6993C15.2597 20.8223 15.0811 20.9132 14.8899 20.9666C14.6987 21.0201 14.4988 21.035 14.3018 21.0107C14.1048 20.9863 13.9146 20.923 13.7422 20.8246C13.5698 20.7262 13.4187 20.5945 13.2976 20.4372C13.1764 20.2799 13.0877 20.1002 13.0366 19.9084C12.9855 19.7166 12.9729 19.5165 12.9997 19.3198C13.0264 19.1231 13.092 18.9337 13.1925 18.7625L13.915 17.5H12.5C12.2364 17.5006 11.9773 17.4317 11.7488 17.3003C11.5203 17.1689 11.3304 16.9796 11.1984 16.7515C11.0663 16.5234 10.9967 16.2645 10.9965 16.0009C10.9964 15.7373 11.0657 15.4783 11.1975 15.25L13.1975 11.75C13.296 11.579 13.4272 11.429 13.5837 11.3086C13.7401 11.1883 13.9187 11.1 14.1093 11.0487C14.2999 10.9974 14.4987 10.9841 14.6945 11.0096C14.8902 11.0352 15.079 11.099 15.25 11.1975C15.421 11.296 15.571 11.4272 15.6914 11.5837C15.8117 11.7401 15.9 11.9187 15.9513 12.1093C16.0026 12.2999 16.0159 12.4987 15.9904 12.6945C15.9648 12.8902 15.901 13.079 15.8025 13.25L15.085 14.5H16.5C16.763 14.5003 17.0214 14.5697 17.2491 14.7013C17.4769 14.833 17.666 15.0222 17.7975 15.25Z" fill="black"/>
</svg>
