<svg width="32" height="32" viewBox="0 0 32 32" fill="none" xmlns="http://www.w3.org/2000/svg">
<path d="M24.5 6.5H3.5C2.57174 6.5 1.6815 6.86875 1.02513 7.52513C0.368749 8.1815 0 9.07174 0 10L0 22C0 22.9283 0.368749 23.8185 1.02513 24.4749C1.6815 25.1313 2.57174 25.5 3.5 25.5H24.5C25.4283 25.5 26.3185 25.1313 26.9749 24.4749C27.6313 23.8185 28 22.9283 28 22V10C28 9.07174 27.6313 8.1815 26.9749 7.52513C26.3185 6.86875 25.4283 6.5 24.5 6.5ZM25 22C25 22.1326 24.9473 22.2598 24.8536 22.3536C24.7598 22.4473 24.6326 22.5 24.5 22.5H3.5C3.36739 22.5 3.24021 22.4473 3.14645 22.3536C3.05268 22.2598 3 22.1326 3 22V10C3 9.86739 3.05268 9.74021 3.14645 9.64645C3.24021 9.55268 3.36739 9.5 3.5 9.5H24.5C24.6326 9.5 24.7598 9.55268 24.8536 9.64645C24.9473 9.74021 25 9.86739 25 10V22ZM8 13V19C8 19.3978 7.84196 19.7794 7.56066 20.0607C7.27936 20.342 6.89782 20.5 6.5 20.5C6.10218 20.5 5.72064 20.342 5.43934 20.0607C5.15804 19.7794 5 19.3978 5 19V13C5 12.6022 5.15804 12.2206 5.43934 11.9393C5.72064 11.658 6.10218 11.5 6.5 11.5C6.89782 11.5 7.27936 11.658 7.56066 11.9393C7.84196 12.2206 8 12.6022 8 13ZM32 13V19C32 19.3978 31.842 19.7794 31.5607 20.0607C31.2794 20.342 30.8978 20.5 30.5 20.5C30.1022 20.5 29.7206 20.342 29.4393 20.0607C29.158 19.7794 29 19.3978 29 19V13C29 12.6022 29.158 12.2206 29.4393 11.9393C29.7206 11.658 30.1022 11.5 30.5 11.5C30.8978 11.5 31.2794 11.658 31.5607 11.9393C31.842 12.2206 32 12.6022 32 13Z" fill="black"/>
</svg>
