<svg width="32" height="32" viewBox="0 0 32 32" fill="none" xmlns="http://www.w3.org/2000/svg">
<path d="M26 8.5H3.5V6C3.5 5.60218 3.34196 5.22064 3.06066 4.93934C2.77936 4.65804 2.39782 4.5 2 4.5C1.60218 4.5 1.22064 4.65804 0.93934 4.93934C0.658035 5.22064 0.5 5.60218 0.5 6V26C0.5 26.3978 0.658035 26.7794 0.93934 27.0607C1.22064 27.342 1.60218 27.5 2 27.5C2.39782 27.5 2.77936 27.342 3.06066 27.0607C3.34196 26.7794 3.5 26.3978 3.5 26V22.5H28.5V26C28.5 26.3978 28.658 26.7794 28.9393 27.0607C29.2206 27.342 29.6022 27.5 30 27.5C30.3978 27.5 30.7794 27.342 31.0607 27.0607C31.342 26.7794 31.5 26.3978 31.5 26V14C31.4983 12.5418 30.9184 11.1438 29.8873 10.1127C28.8562 9.08165 27.4582 8.50165 26 8.5ZM11.5 19.5H3.5V11.5H11.5V19.5ZM28.5 19.5H14.5V11.5H26C26.663 11.5 27.2989 11.7634 27.7678 12.2322C28.2366 12.7011 28.5 13.337 28.5 14V19.5Z" fill="black"/>
</svg>
