<svg width="32" height="32" viewBox="0 0 32 32" fill="none" xmlns="http://www.w3.org/2000/svg">
<path d="M31.0613 4.93877L27.0613 0.938771C26.7989 0.678671 26.4499 0.524509 26.081 0.505827C25.712 0.487145 25.3492 0.605256 25.0619 0.837528C24.7747 1.0698 24.5833 1.3999 24.5243 1.76457C24.4654 2.12924 24.5431 2.50284 24.7425 2.81377L18.375 7.59627L13.7088 8.52877C13.4183 8.58724 13.1514 8.72982 12.9413 8.93877L2.52501 19.3538C2.19997 19.6788 1.94213 20.0646 1.76621 20.4893C1.5903 20.914 1.49976 21.3691 1.49976 21.8288C1.49976 22.2884 1.5903 22.7436 1.76621 23.1682C1.94213 23.5929 2.19997 23.9788 2.52501 24.3038L7.69626 29.475C8.02127 29.8001 8.40712 30.0579 8.83178 30.2338C9.25645 30.4097 9.7116 30.5003 10.1713 30.5003C10.6309 30.5003 11.0861 30.4097 11.5107 30.2338C11.9354 30.0579 12.3212 29.8001 12.6463 29.475L23.0613 19.0613C23.2702 18.8512 23.4128 18.5843 23.4713 18.2938L24.4038 13.625L29.1825 7.25002C29.4934 7.44947 29.867 7.52716 30.2317 7.46822C30.5964 7.40928 30.9265 7.21784 31.1588 6.9306C31.391 6.64336 31.5091 6.28051 31.4905 5.91158C31.4718 5.54264 31.3176 5.19358 31.0575 4.93127L31.0613 4.93877ZM14 23.875L8.12501 18L12 14.125L17.875 20L14 23.875ZM10.1713 27.5C10.1056 27.5001 10.0405 27.4872 9.97983 27.4621C9.91914 27.437 9.86398 27.4002 9.81751 27.3538L4.64626 22.1825C4.59977 22.1361 4.56289 22.0809 4.53773 22.0202C4.51257 21.9595 4.49961 21.8945 4.49961 21.8288C4.49961 21.7631 4.51257 21.698 4.53773 21.6373C4.56289 21.5766 4.59977 21.5215 4.64626 21.475L6.00001 20.125L11.875 26L10.525 27.3538C10.4785 27.4002 10.4234 27.437 10.3627 27.4621C10.302 27.4872 10.2369 27.5001 10.1713 27.5ZM21.7963 12.1C21.6617 12.2793 21.569 12.4865 21.525 12.7063L20.625 17.26L20 17.875L14.125 12L14.75 11.375L19.3038 10.465C19.5236 10.421 19.7307 10.3284 19.91 10.1938L26.8688 4.97377L27.03 5.13502L21.7963 12.1Z" fill="black"/>
</svg>
