<svg width="32" height="32" viewBox="0 0 32 32" fill="none" xmlns="http://www.w3.org/2000/svg">
<path d="M14.7275 15.1737C15.3827 14.4121 15.8055 13.4785 15.946 12.4838C16.0864 11.489 15.9384 10.4748 15.5197 9.56164C15.1009 8.64844 14.4289 7.87457 13.5835 7.33189C12.738 6.7892 11.7546 6.50048 10.75 6.5H4C3.60218 6.5 3.22064 6.65804 2.93934 6.93934C2.65804 7.22064 2.5 7.60218 2.5 8V24C2.5 24.3978 2.65804 24.7794 2.93934 25.0607C3.22064 25.342 3.60218 25.5 4 25.5H11.25C12.4531 25.4992 13.6257 25.121 14.6025 24.4187C15.5794 23.7164 16.3114 22.7253 16.6954 21.5851C17.0793 20.4449 17.096 19.213 16.743 18.0628C16.3899 16.9127 15.685 15.9022 14.7275 15.1737ZM5.5 9.5H10.75C11.3467 9.5 11.919 9.73705 12.341 10.159C12.7629 10.581 13 11.1533 13 11.75C13 12.3467 12.7629 12.919 12.341 13.341C11.919 13.7629 11.3467 14 10.75 14H5.5V9.5ZM11.25 22.5H5.5V17H11.25C11.9793 17 12.6788 17.2897 13.1945 17.8055C13.7103 18.3212 14 19.0207 14 19.75C14 20.4793 13.7103 21.1788 13.1945 21.6945C12.6788 22.2103 11.9793 22.5 11.25 22.5ZM19.5 9.5C19.5 9.10218 19.658 8.72064 19.9393 8.43934C20.2206 8.15804 20.6022 8 21 8H29C29.3978 8 29.7794 8.15804 30.0607 8.43934C30.342 8.72064 30.5 9.10218 30.5 9.5C30.5 9.89782 30.342 10.2794 30.0607 10.5607C29.7794 10.842 29.3978 11 29 11H21C20.6022 11 20.2206 10.842 19.9393 10.5607C19.658 10.2794 19.5 9.89782 19.5 9.5ZM25 12.5C23.2761 12.5 21.6228 13.1848 20.4038 14.4038C19.1848 15.6228 18.5 17.2761 18.5 19C18.5 20.7239 19.1848 22.3772 20.4038 23.5962C21.6228 24.8152 23.2761 25.5 25 25.5C25.9832 25.5027 26.9539 25.2799 27.8375 24.8487C28.0189 24.7653 28.1818 24.6465 28.3167 24.4993C28.4516 24.352 28.5558 24.1793 28.623 23.9913C28.6903 23.8033 28.7194 23.6038 28.7085 23.4044C28.6976 23.205 28.6471 23.0098 28.5598 22.8302C28.4725 22.6506 28.3502 22.4903 28.2001 22.3585C28.05 22.2268 27.8752 22.1264 27.6858 22.0632C27.4964 21.9999 27.2962 21.9752 27.0971 21.9903C26.898 22.0054 26.7039 22.0601 26.5263 22.1513C26.0508 22.3824 25.5287 22.5017 25 22.5C24.3378 22.4993 23.6893 22.3111 23.1297 21.9571C22.57 21.6032 22.122 21.098 21.8375 20.5H30C30.3978 20.5 30.7794 20.342 31.0607 20.0607C31.342 19.7794 31.5 19.3978 31.5 19C31.498 17.2767 30.8126 15.6246 29.594 14.406C28.3754 13.1874 26.7233 12.502 25 12.5ZM21.8375 17.5C22.1213 16.9015 22.5691 16.3957 23.129 16.0416C23.6888 15.6875 24.3376 15.4995 25 15.4995C25.6624 15.4995 26.3112 15.6875 26.871 16.0416C27.4309 16.3957 27.8787 16.9015 28.1625 17.5H21.8375Z" fill="black"/>
</svg>
