<svg width="32" height="32" viewBox="0 0 32 32" fill="none" xmlns="http://www.w3.org/2000/svg">
<path d="M19.5001 17.5C19.5001 17.8978 19.3421 18.2794 19.0608 18.5607C18.7795 18.842 18.3979 19 18.0001 19H14.0001C13.7284 19.0004 13.4616 18.927 13.2284 18.7876C12.9951 18.6482 12.8041 18.448 12.6758 18.2085C12.5474 17.969 12.4865 17.6991 12.4996 17.4277C12.5127 17.1563 12.5993 16.8935 12.7501 16.6675L15.1976 13H14.0001C13.6023 13 13.2207 12.842 12.9394 12.5607C12.6581 12.2794 12.5001 11.8978 12.5001 11.5C12.5001 11.1022 12.6581 10.7206 12.9394 10.4393C13.2207 10.158 13.6023 10 14.0001 10H18.0001C18.2718 9.9996 18.5386 10.073 18.7718 10.2124C19.0051 10.3518 19.1961 10.552 19.3244 10.7915C19.4528 11.031 19.5137 11.3009 19.5006 11.5723C19.4875 11.8437 19.4009 12.1065 19.2501 12.3325L16.8026 16H18.0001C18.3979 16 18.7795 16.158 19.0608 16.4393C19.3421 16.7206 19.5001 17.1022 19.5001 17.5ZM28.1663 23.25C27.9491 23.6322 27.6338 23.9495 27.253 24.1693C26.8722 24.389 26.4397 24.5032 26.0001 24.5H6.0001C5.56089 24.5027 5.1289 24.3883 4.74859 24.1686C4.36827 23.9489 4.05339 23.6318 3.83635 23.25C3.61746 22.8682 3.50282 22.4355 3.50391 21.9954C3.50501 21.5553 3.62181 21.1232 3.8426 20.7425C4.92385 18.875 5.5001 16.1975 5.5001 13C5.5001 10.2152 6.60634 7.54451 8.57547 5.57538C10.5446 3.60625 13.2153 2.5 16.0001 2.5C18.7849 2.5 21.4556 3.60625 23.4247 5.57538C25.3938 7.54451 26.5001 10.2152 26.5001 13C26.5001 16.1962 27.0738 18.875 28.1588 20.7412C28.3802 21.1219 28.4976 21.5541 28.4991 21.9945C28.5007 22.4348 28.3863 22.8678 28.1676 23.25H28.1663ZM25.1663 21.5C24.0613 19.25 23.5001 16.3912 23.5001 13C23.5001 11.0109 22.7099 9.10322 21.3034 7.6967C19.8969 6.29018 17.9892 5.5 16.0001 5.5C14.011 5.5 12.1033 6.29018 10.6968 7.6967C9.29027 9.10322 8.5001 11.0109 8.5001 13C8.5001 16.3925 7.94009 19.25 6.83385 21.5H25.1663ZM20.0001 26.5H12.0001C11.6023 26.5 11.2207 26.658 10.9394 26.9393C10.6581 27.2206 10.5001 27.6022 10.5001 28C10.5001 28.3978 10.6581 28.7794 10.9394 29.0607C11.2207 29.342 11.6023 29.5 12.0001 29.5H20.0001C20.3979 29.5 20.7794 29.342 21.0608 29.0607C21.3421 28.7794 21.5001 28.3978 21.5001 28C21.5001 27.6022 21.3421 27.2206 21.0608 26.9393C20.7794 26.658 20.3979 26.5 20.0001 26.5Z" fill="black"/>
</svg>
