<svg width="32" height="32" viewBox="0 0 32 32" fill="none" xmlns="http://www.w3.org/2000/svg">
<path d="M28.1613 20.7412C27.0763 18.875 26.5 16.1962 26.5 13C26.5 10.2152 25.3938 7.54451 23.4247 5.57538C21.4555 3.60625 18.7848 2.5 16 2.5C13.2153 2.5 10.5445 3.60625 8.57541 5.57538C6.60628 7.54451 5.50003 10.2152 5.50003 13C5.50003 16.1975 4.92628 18.875 3.84128 20.7412C3.61989 21.1219 3.50253 21.5541 3.50099 21.9945C3.49946 22.4348 3.6138 22.8678 3.83253 23.25C4.04989 23.6324 4.36536 23.9499 4.74639 24.1696C5.12742 24.3893 5.5602 24.5034 6.00003 24.5H10.5225C10.6466 25.867 11.2773 27.1383 12.2908 28.064C13.3043 28.9897 14.6274 29.503 16 29.503C17.3727 29.503 18.6957 28.9897 19.7093 28.064C20.7228 27.1383 21.3535 25.867 21.4775 24.5H26C26.4392 24.5027 26.8712 24.3883 27.2515 24.1686C27.6319 23.9489 27.9467 23.6318 28.1638 23.25C28.3835 22.8684 28.4989 22.4356 28.4984 21.9953C28.498 21.5549 28.3817 21.1224 28.1613 20.7412ZM16 26.5C15.4237 26.5001 14.865 26.3011 14.4186 25.9367C13.9721 25.5722 13.6653 25.0647 13.55 24.5H18.45C18.3348 25.0647 18.0279 25.5722 17.5815 25.9367C17.135 26.3011 16.5764 26.5001 16 26.5ZM6.83253 21.5C7.93878 19.25 8.50003 16.3925 8.50003 13C8.50003 11.0109 9.29021 9.10322 10.6967 7.6967C12.1033 6.29018 14.0109 5.5 16 5.5C17.9892 5.5 19.8968 6.29018 21.3033 7.6967C22.7099 9.10322 23.5 11.0109 23.5 13C23.5 16.3912 24.06 19.25 25.1663 21.5H6.83253Z" fill="black"/>
</svg>
