<svg width="32" height="32" viewBox="0 0 32 32" fill="none" xmlns="http://www.w3.org/2000/svg">
<path d="M27.11 25.9912L7.11 3.99121C6.97827 3.84272 6.81838 3.72185 6.6396 3.63562C6.46081 3.54938 6.26669 3.49948 6.06848 3.48882C5.87027 3.47815 5.67192 3.50693 5.48491 3.5735C5.29791 3.64006 5.12598 3.74307 4.97908 3.87657C4.83218 4.01007 4.71324 4.17139 4.62915 4.3512C4.54506 4.531 4.49749 4.72571 4.48921 4.92403C4.48092 5.12236 4.51208 5.32035 4.58088 5.50654C4.64968 5.69274 4.75475 5.86342 4.89 6.00871L6.74 8.04496C5.92306 9.56859 5.49699 11.2711 5.5 13C5.5 16.1975 4.92625 18.875 3.84125 20.7412C3.62023 21.1221 3.5033 21.5544 3.50221 21.9947C3.50111 22.4351 3.61588 22.868 3.835 23.25C4.05194 23.6322 4.36698 23.9495 4.74758 24.1693C5.12817 24.389 5.56053 24.5032 6 24.5H21.7L24.89 28.0087C25.1589 28.2976 25.5309 28.4689 25.9253 28.4853C26.3197 28.5018 26.7046 28.3622 26.9967 28.0967C27.2888 27.8313 27.4645 27.4614 27.4857 27.0672C27.5069 26.6731 27.3719 26.2865 27.11 25.9912ZM6.835 21.5C7.94 19.25 8.5 16.3925 8.5 13C8.499 12.1355 8.64787 11.2773 8.94 10.4637L18.9725 21.5H6.835ZM21.5 28C21.5 28.3978 21.342 28.7793 21.0607 29.0606C20.7794 29.3419 20.3978 29.5 20 29.5H12C11.6022 29.5 11.2206 29.3419 10.9393 29.0606C10.658 28.7793 10.5 28.3978 10.5 28C10.5 27.6021 10.658 27.2206 10.9393 26.9393C11.2206 26.658 11.6022 26.5 12 26.5H20C20.3978 26.5 20.7794 26.658 21.0607 26.9393C21.342 27.2206 21.5 27.6021 21.5 28ZM11.1112 5.29371C11.0344 5.11232 10.9941 4.91758 10.9925 4.7206C10.9909 4.52361 11.0282 4.32826 11.1021 4.14567C11.1761 3.96309 11.2853 3.79685 11.4234 3.65647C11.5616 3.51608 11.7261 3.40428 11.9075 3.32746C13.5042 2.65169 15.2434 2.38182 16.9697 2.54195C18.6961 2.70208 20.356 3.28721 21.8011 4.24512C23.2463 5.20303 24.4318 6.50389 25.2517 8.03156C26.0716 9.55923 26.5005 11.2662 26.5 13C26.5 15.335 26.7975 17.3662 27.3837 19.035C27.4494 19.2208 27.4778 19.4177 27.4674 19.6145C27.4569 19.8113 27.4078 20.0041 27.3229 20.182C27.2379 20.3598 27.1187 20.5191 26.9722 20.6509C26.8256 20.7827 26.6546 20.8843 26.4687 20.95C26.2829 21.0156 26.086 21.044 25.8892 21.0336C25.6924 21.0231 25.4996 20.974 25.3217 20.8891C25.1439 20.8041 24.9846 20.6849 24.8528 20.5384C24.721 20.3918 24.6194 20.2208 24.5537 20.035C23.8537 18.04 23.5 15.675 23.5 13C23.5005 11.7615 23.1943 10.5423 22.6087 9.45101C22.0232 8.35976 21.1765 7.43048 20.1443 6.74616C19.1121 6.06184 17.9266 5.64376 16.6934 5.52925C15.4603 5.41475 14.218 5.60739 13.0775 6.08996C12.8961 6.16679 12.7014 6.20713 12.5044 6.20869C12.3074 6.21026 12.112 6.17301 11.9295 6.09907C11.7469 6.02513 11.5806 5.91595 11.4403 5.77777C11.2999 5.63958 11.1881 5.4751 11.1112 5.29371Z" fill="black"/>
</svg>
