<svg width="32" height="32" viewBox="0 0 32 32" fill="none" xmlns="http://www.w3.org/2000/svg">
<path d="M21.5001 28.5C21.5001 28.8978 21.3421 29.2793 21.0608 29.5607C20.7795 29.842 20.3979 30 20.0001 30H12.0001C11.6023 30 11.2207 29.842 10.9394 29.5607C10.6581 29.2793 10.5001 28.8978 10.5001 28.5C10.5001 28.1022 10.6581 27.7206 10.9394 27.4393C11.2207 27.158 11.6023 27 12.0001 27H20.0001C20.3979 27 20.7795 27.158 21.0608 27.4393C21.3421 27.7206 21.5001 28.1022 21.5001 28.5ZM28.8676 7.30999C27.7032 5.03414 25.9542 3.10911 23.8001 1.73249C23.6336 1.62062 23.4463 1.54329 23.2494 1.50508C23.0524 1.46686 22.8498 1.46854 22.6535 1.51001C22.4573 1.55149 22.2713 1.63191 22.1067 1.74652C21.942 1.86114 21.802 2.00761 21.695 2.17728C21.5879 2.34695 21.516 2.53637 21.4835 2.73433C21.451 2.93228 21.4585 3.13475 21.5056 3.32976C21.5527 3.52476 21.6384 3.70834 21.7577 3.86962C21.877 4.03091 22.0274 4.16663 22.2001 4.26874C23.9066 5.35675 25.2883 6.88446 26.2001 8.69124C26.3272 8.93596 26.5192 9.14091 26.7552 9.28359C26.9911 9.42627 27.2619 9.50114 27.5376 9.49999C27.7775 9.50029 28.0138 9.44238 28.2263 9.33124C28.5793 9.14813 28.8451 8.83237 28.9654 8.45335C29.0856 8.07434 29.0504 7.66309 28.8676 7.30999ZM5.79635 8.69124C6.70812 6.88446 8.08989 5.35675 9.79635 4.26874C9.97286 4.16878 10.1273 4.03406 10.2502 3.87273C10.3732 3.71139 10.4621 3.52679 10.5117 3.33009C10.5613 3.13339 10.5705 2.92868 10.5387 2.72834C10.5068 2.528 10.4347 2.33619 10.3267 2.16451C10.2186 1.99284 10.0769 1.84486 9.91002 1.72953C9.74315 1.6142 9.55462 1.53391 9.35583 1.49353C9.15704 1.45314 8.95212 1.4535 8.75347 1.49457C8.55483 1.53565 8.36657 1.61658 8.2001 1.73249C6.04598 3.10911 4.29698 5.03414 3.1326 7.30999C2.94975 7.66309 2.91459 8.07434 3.03483 8.45335C3.15507 8.83237 3.42089 9.14813 3.77385 9.33124C3.9864 9.44238 4.22275 9.50029 4.4626 9.49999C4.7377 9.50045 5.00763 9.42525 5.24286 9.28261C5.4781 9.13997 5.66957 8.93539 5.79635 8.69124ZM27.4851 20.985C27.7672 21.3553 27.9403 21.7971 27.9849 22.2605C28.0295 22.724 27.9438 23.1906 27.7375 23.608C27.5312 24.0253 27.2124 24.3768 26.8171 24.6227C26.4218 24.8686 25.9657 24.9993 25.5001 25H6.5001C6.03421 25 5.57759 24.8698 5.18174 24.6242C4.78589 24.3785 4.46656 24.0271 4.25977 23.6096C4.05299 23.1922 3.96697 22.7252 4.01142 22.2615C4.05587 21.7977 4.22902 21.3556 4.51135 20.985C5.4076 19.8187 6.4776 17.6575 6.49635 13.9925C6.49734 11.4724 7.49939 9.05599 9.28204 7.27475C11.0647 5.49351 13.4819 4.49337 16.002 4.49437C18.522 4.49536 20.9385 5.4974 22.7197 7.28005C24.501 9.0627 25.5011 11.4799 25.5001 14C25.5188 17.6575 26.5889 19.8187 27.4851 20.985ZM24.5426 22C23.5226 20.375 22.5188 17.8037 22.5001 14.0075C22.5006 13.1539 22.333 12.3086 22.0068 11.5198C21.6806 10.731 21.2022 10.0141 20.5989 9.4102C19.9957 8.80627 19.2794 8.32707 18.491 7.99996C17.7026 7.67285 16.8574 7.50423 16.0038 7.50374C15.1503 7.50325 14.3049 7.67089 13.5161 7.99709C12.7273 8.32329 12.0105 8.80166 11.4066 9.4049C10.8026 10.0081 10.3234 10.7244 9.99632 11.5128C9.66921 12.3013 9.50059 13.1464 9.5001 14C9.48135 17.8025 8.4776 20.375 7.4576 22H24.5426Z" fill="black"/>
</svg>
