<svg width="32" height="32" viewBox="0 0 32 32" fill="none" xmlns="http://www.w3.org/2000/svg">
<path d="M27.43 18.275C27.0484 16.6975 26.3463 15.2154 25.3674 13.9209C24.3886 12.6263 23.1538 11.547 21.74 10.75H30C30.1989 10.75 30.3897 10.671 30.5304 10.5303C30.671 10.3897 30.75 10.1989 30.75 9.99998C30.75 9.80106 30.671 9.6103 30.5304 9.46965C30.3897 9.32899 30.1989 9.24998 30 9.24998H19.675C19.5029 8.40226 19.043 7.64012 18.3732 7.09269C17.7035 6.54526 16.8651 6.24622 16 6.24622C15.135 6.24622 14.2966 6.54526 13.6268 7.09269C12.9571 7.64012 12.4972 8.40226 12.325 9.24998H2.00004C1.80112 9.24998 1.61036 9.32899 1.46971 9.46965C1.32905 9.6103 1.25004 9.80106 1.25004 9.99998C1.25004 10.1989 1.32905 10.3897 1.46971 10.5303C1.61036 10.671 1.80112 10.75 2.00004 10.75H10.26C8.84624 11.547 7.61152 12.6263 6.63265 13.9209C5.65378 15.2154 4.95169 16.6975 4.57004 18.275C3.64758 18.3812 2.79733 18.8258 2.18386 19.5229C1.5704 20.2199 1.23736 21.1197 1.24921 22.0482C1.26106 22.9767 1.61695 23.8678 2.248 24.5489C2.87905 25.2301 3.74038 25.6529 4.66524 25.7355C5.59011 25.8181 6.51274 25.5547 7.25453 24.9961C7.99632 24.4376 8.50452 23.6238 8.68074 22.7121C8.85697 21.8004 8.6887 20.8558 8.2085 20.061C7.72829 19.2663 6.97031 18.678 6.08129 18.41C6.5059 16.8047 7.31173 15.3257 8.4303 14.0985C9.54887 12.8714 10.9471 11.9323 12.5063 11.3612C12.7806 12.0647 13.2609 12.6689 13.8842 13.0949C14.5076 13.5209 15.245 13.7488 16 13.7488C16.7551 13.7488 17.4925 13.5209 18.1159 13.0949C18.7392 12.6689 19.2195 12.0647 19.4938 11.3612C21.0529 11.9323 22.4512 12.8714 23.5698 14.0985C24.6883 15.3257 25.4942 16.8047 25.9188 18.41C25.0298 18.678 24.2718 19.2663 23.7916 20.061C23.3114 20.8558 23.1431 21.8004 23.3193 22.7121C23.4956 23.6238 24.0038 24.4376 24.7455 24.9961C25.4873 25.5547 26.41 25.8181 27.3348 25.7355C28.2597 25.6529 29.121 25.2301 29.7521 24.5489C30.3831 23.8678 30.739 22.9767 30.7509 22.0482C30.7627 21.1197 30.4297 20.2199 29.8162 19.5229C29.2027 18.8258 28.3525 18.3812 27.43 18.275ZM7.25004 22C7.25004 22.445 7.11808 22.88 6.87084 23.25C6.62361 23.62 6.27221 23.9084 5.86107 24.0787C5.44994 24.249 4.99754 24.2936 4.56108 24.2067C4.12463 24.1199 3.72371 23.9056 3.40905 23.591C3.09438 23.2763 2.88009 22.8754 2.79327 22.4389C2.70645 22.0025 2.75101 21.5501 2.92131 21.1389C3.0916 20.7278 3.37999 20.3764 3.75 20.1292C4.12001 19.8819 4.55503 19.75 5.00004 19.75C5.59677 19.75 6.16907 19.987 6.59103 20.409C7.01298 20.8309 7.25004 21.4032 7.25004 22ZM16 12.25C15.555 12.25 15.12 12.118 14.75 11.8708C14.38 11.6235 14.0916 11.2721 13.9213 10.861C13.751 10.4499 13.7065 9.99748 13.7933 9.56102C13.8801 9.12456 14.0944 8.72365 14.409 8.40899C14.7237 8.09432 15.1246 7.88002 15.5611 7.79321C15.9975 7.70639 16.4499 7.75095 16.8611 7.92125C17.2722 8.09154 17.6236 8.37993 17.8708 8.74994C18.1181 9.11995 18.25 9.55497 18.25 9.99998C18.25 10.5967 18.013 11.169 17.591 11.591C17.1691 12.0129 16.5968 12.25 16 12.25ZM27 24.25C26.555 24.25 26.12 24.118 25.75 23.8708C25.38 23.6235 25.0916 23.2721 24.9213 22.861C24.751 22.4499 24.7065 21.9975 24.7933 21.561C24.8801 21.1246 25.0944 20.7237 25.409 20.409C25.7237 20.0943 26.1246 19.88 26.5611 19.7932C26.9975 19.7064 27.4499 19.7509 27.8611 19.9212C28.2722 20.0915 28.6236 20.3799 28.8708 20.7499C29.1181 21.12 29.25 21.555 29.25 22C29.25 22.5967 29.013 23.169 28.591 23.591C28.1691 24.0129 27.5968 24.25 27 24.25Z" fill="black"/>
</svg>
