<svg width="33" height="32" viewBox="0 0 33 32" fill="none" xmlns="http://www.w3.org/2000/svg">
<path d="M25.5414 13.5C24.9006 13.4997 24.2632 13.5945 23.6502 13.7812L21.1527 9.5H24.0414C24.174 9.5 24.3012 9.55268 24.395 9.64645C24.4888 9.74021 24.5414 9.86739 24.5414 10C24.5414 10.3978 24.6995 10.7794 24.9808 11.0607C25.2621 11.342 25.6436 11.5 26.0414 11.5C26.4393 11.5 26.8208 11.342 27.1021 11.0607C27.3834 10.7794 27.5414 10.3978 27.5414 10C27.5414 9.07174 27.1727 8.1815 26.5163 7.52513C25.8599 6.86875 24.9697 6.5 24.0414 6.5H18.5414C18.2784 6.50049 18.0201 6.57015 17.7924 6.70201C17.5648 6.83386 17.3758 7.02326 17.2445 7.25121C17.1132 7.47915 17.0441 7.73763 17.0442 8.0007C17.0443 8.26377 17.1137 8.52218 17.2452 8.75L18.2627 10.5H13.7364L11.8377 7.25C11.7063 7.02238 11.5174 6.83329 11.2899 6.70166C11.0624 6.57003 10.8043 6.50049 10.5414 6.5H6.54144C6.14362 6.5 5.76208 6.65804 5.48078 6.93934C5.19948 7.22064 5.04144 7.60218 5.04144 8C5.04144 8.39782 5.19948 8.77936 5.48078 9.06066C5.76208 9.34196 6.14362 9.5 6.54144 9.5H9.68019L11.0639 11.875L9.29144 14.1112C7.84407 13.4321 6.19765 13.3083 4.665 13.7634C3.13235 14.2185 1.82029 15.2208 0.978113 16.5797C0.135936 17.9387 -0.177664 19.5598 0.0968989 21.1348C0.371462 22.7098 1.21505 24.1291 2.46739 25.123C3.71972 26.1169 5.29352 26.6161 6.88975 26.5257C8.48598 26.4354 9.99341 25.7618 11.1256 24.633C12.2578 23.5041 12.9359 21.9987 13.031 20.4028C13.1261 18.8068 12.6316 17.2315 11.6414 15.9762L12.6877 14.655L14.7914 18.2563C14.8831 18.4396 15.0114 18.6022 15.1684 18.734C15.3254 18.8658 15.5078 18.964 15.7042 19.0226C15.9006 19.0812 16.107 19.0989 16.3105 19.0746C16.514 19.0504 16.7104 18.9846 16.8876 18.8815C17.0647 18.7784 17.2189 18.6401 17.3405 18.4751C17.4621 18.31 17.5486 18.1219 17.5946 17.9221C17.6407 17.7224 17.6453 17.5153 17.6082 17.3137C17.5711 17.1121 17.4931 16.9203 17.3789 16.75L15.4864 13.5H20.0127L21.0614 15.2975C19.9685 16.3404 19.273 17.7314 19.0944 19.2315C18.9158 20.7315 19.2652 22.247 20.0827 23.5173C20.9002 24.7877 22.1346 25.7337 23.5738 26.1927C25.0131 26.6517 26.5672 26.5951 27.9692 26.0325C29.3713 25.47 30.5336 24.4367 31.2564 23.1102C31.9792 21.7837 32.2175 20.2469 31.9302 18.7638C31.6429 17.2807 30.848 15.944 29.6821 14.9834C28.5162 14.0228 27.0521 13.4983 25.5414 13.5ZM10.0414 20C10.0416 20.7261 9.81586 21.4342 9.39563 22.0263C8.97539 22.6184 8.38143 23.0651 7.696 23.3046C7.01058 23.5441 6.26764 23.5646 5.5701 23.3631C4.87255 23.1616 4.25494 22.7481 3.80283 22.18C3.35071 21.6119 3.08646 20.9172 3.04669 20.1922C3.00693 19.4673 3.19361 18.7479 3.58088 18.1337C3.96815 17.5196 4.53683 17.041 5.20815 16.7644C5.87946 16.4879 6.62018 16.4269 7.32769 16.59L5.36519 19.0688C5.11821 19.3807 5.00527 19.778 5.05121 20.1732C5.09716 20.5685 5.29823 20.9293 5.61019 21.1763C5.92215 21.4232 6.31945 21.5362 6.71468 21.4902C7.10991 21.4443 7.47071 21.2432 7.71769 20.9312L9.68019 18.4525C9.91835 18.9336 10.042 19.4632 10.0414 20ZM25.5414 23.5C24.9048 23.4997 24.2802 23.3258 23.7351 22.9969C23.19 22.668 22.7448 22.1966 22.4477 21.6336C22.1505 21.0705 22.0126 20.4371 22.0487 19.8014C22.0848 19.1658 22.2937 18.552 22.6527 18.0263L24.2452 20.7563C24.4519 21.0859 24.7785 21.3224 25.1563 21.4158C25.534 21.5091 25.9332 21.452 26.2697 21.2565C26.6061 21.0611 26.8534 20.7425 26.9594 20.3681C27.0654 19.9937 27.0217 19.5928 26.8377 19.25L25.2439 16.52C25.3427 16.5113 25.4414 16.5063 25.5414 16.5063C26.4697 16.5063 27.3599 16.875 28.0163 17.5314C28.6727 18.1878 29.0414 19.078 29.0414 20.0063C29.0414 20.9345 28.6727 21.8247 28.0163 22.4811C27.3599 23.1375 26.4697 23.5063 25.5414 23.5063V23.5Z" fill="black"/>
</svg>
