<svg width="32" height="32" viewBox="0 0 32 32" fill="none" xmlns="http://www.w3.org/2000/svg">
<path d="M26 14.25C25.2359 14.2495 24.4795 14.4016 23.775 14.6975L20.3062 8.75H24C24.3315 8.75 24.6495 8.8817 24.8839 9.11612C25.1183 9.35054 25.25 9.66848 25.25 10C25.25 10.1989 25.329 10.3897 25.4697 10.5303C25.6103 10.671 25.8011 10.75 26 10.75C26.1989 10.75 26.3897 10.671 26.5303 10.5303C26.671 10.3897 26.75 10.1989 26.75 10C26.75 9.27065 26.4603 8.57118 25.9445 8.05546C25.4288 7.53973 24.7293 7.25 24 7.25H19C18.8685 7.25035 18.7394 7.28527 18.6257 7.35124C18.512 7.41721 18.4176 7.51192 18.352 7.62587C18.2864 7.73983 18.2519 7.86902 18.252 8.0005C18.2521 8.13199 18.2868 8.26113 18.3525 8.375L20.0275 11.25H12.2638L10.1475 7.625C10.0818 7.51128 9.98749 7.41679 9.87386 7.35098C9.76023 7.28518 9.63131 7.25035 9.5 7.25H6C5.80109 7.25 5.61032 7.32902 5.46967 7.46967C5.32902 7.61032 5.25 7.80109 5.25 8C5.25 8.19891 5.32902 8.38968 5.46967 8.53033C5.61032 8.67098 5.80109 8.75 6 8.75H9.06875L10.9438 11.955L8.75 14.9525C7.46378 14.2465 5.95713 14.0563 4.53582 14.4205C3.1145 14.7847 1.885 15.6761 1.09683 16.9137C0.308671 18.1512 0.0208925 19.6423 0.291902 21.0843C0.562912 22.5263 1.37241 23.8112 2.5561 24.6782C3.7398 25.5452 5.20902 25.9293 6.66559 25.7527C8.12216 25.576 9.45695 24.8518 10.3991 23.727C11.3412 22.6022 11.8201 21.1611 11.7386 19.6961C11.657 18.2311 11.0211 16.852 9.96 15.8387L11.7638 13.375L15.8525 20.375C15.9183 20.4889 16.0128 20.5835 16.1267 20.6493C16.2406 20.7151 16.3697 20.7499 16.5012 20.75C16.6332 20.7499 16.7626 20.7145 16.8762 20.6475C17.0479 20.5473 17.1727 20.3831 17.2233 20.1909C17.274 19.9987 17.2462 19.7943 17.1462 19.6225L13.1375 12.7475H20.9013L22.48 15.455C21.4038 16.289 20.6585 17.4778 20.3767 18.8099C20.0948 20.1419 20.2949 21.5308 20.9411 22.7292C21.5873 23.9276 22.6378 24.8578 23.9057 25.3542C25.1735 25.8506 26.5763 25.881 27.8644 25.4401C29.1526 24.9991 30.2425 24.1153 30.9401 22.9461C31.6377 21.7769 31.8977 20.398 31.674 19.055C31.4502 17.712 30.7571 16.4919 29.7181 15.612C28.6791 14.7321 27.3615 14.2495 26 14.25ZM10.25 20C10.2502 20.9227 9.95003 21.8204 9.39495 22.5575C8.83987 23.2945 8.06 23.8309 7.17314 24.0856C6.28629 24.3403 5.34064 24.2995 4.47905 23.9693C3.61746 23.6391 2.88673 23.0374 2.39727 22.2552C1.9078 21.4731 1.68618 20.5528 1.76589 19.6336C1.8456 18.7143 2.2223 17.846 2.8391 17.1597C3.45589 16.4735 4.27927 16.0066 5.18484 15.8296C6.09041 15.6527 7.02898 15.7752 7.85875 16.1787L5.39375 19.5537C5.27639 19.7145 5.22771 19.9154 5.25842 20.112C5.28913 20.3087 5.39671 20.4851 5.5575 20.6025C5.71829 20.7199 5.91911 20.7685 6.11579 20.7378C6.31247 20.7071 6.48889 20.5995 6.60625 20.4387L9.06875 17.0637C9.82717 17.8531 10.2505 18.9054 10.25 20ZM26 24.25C25.1317 24.2481 24.2847 23.9803 23.5732 23.4826C22.8617 22.9849 22.3197 22.2811 22.0201 21.4661C21.7206 20.6511 21.6779 19.7638 21.8978 18.9238C22.1176 18.0838 22.5896 17.3313 23.25 16.7675L25.3525 20.375C25.4183 20.4889 25.5128 20.5835 25.6267 20.6493C25.7406 20.7151 25.8697 20.7499 26.0012 20.75C26.1332 20.7499 26.2626 20.7145 26.3762 20.6475C26.5479 20.5473 26.6727 20.3831 26.7233 20.1909C26.774 19.9987 26.7462 19.7943 26.6462 19.6225L24.5387 16.0088C25.1218 15.7954 25.7445 15.7124 26.3631 15.7656C26.9817 15.8188 27.5811 16.0069 28.1192 16.3166C28.6573 16.6263 29.121 17.0502 29.4777 17.5584C29.8343 18.0665 30.0754 18.6467 30.1838 19.258C30.2922 19.8693 30.2653 20.497 30.1051 21.0968C29.9448 21.6966 29.6551 22.2541 29.2563 22.7299C28.8575 23.2058 28.3593 23.5885 27.7967 23.8511C27.2341 24.1137 26.6209 24.2499 26 24.25Z" fill="black"/>
</svg>
