<svg width="32" height="32" viewBox="0 0 32 32" fill="none" xmlns="http://www.w3.org/2000/svg">
<path d="M30.125 18.8312C30.125 18.8312 30.125 18.8313 30.125 18.825C30.0351 18.5728 29.9294 18.3265 29.8087 18.0875L24.6162 6.2725C24.5413 6.10236 24.4353 5.94765 24.3037 5.81625C23.8859 5.39823 23.3897 5.06663 22.8437 4.84039C22.2976 4.61415 21.7123 4.49771 21.1212 4.49771C20.5302 4.49771 19.9449 4.61415 19.3988 4.84039C18.8528 5.06663 18.3566 5.39823 17.9387 5.81625C17.6581 6.09718 17.5003 6.47792 17.5 6.875V9.5H14.5V6.875C14.5 6.47749 14.3422 6.09624 14.0612 5.815C13.6434 5.39698 13.1472 5.06538 12.6012 4.83914C12.0551 4.6129 11.4698 4.49646 10.8787 4.49646C10.2877 4.49646 9.70239 4.6129 9.15633 4.83914C8.61027 5.06538 8.11413 5.39698 7.69625 5.815C7.5647 5.9464 7.45874 6.10111 7.38375 6.27125L2.19125 18.0875C2.07055 18.3265 1.96492 18.5728 1.875 18.825C1.875 18.825 1.875 18.825 1.875 18.8312C1.55788 19.7239 1.43972 20.6751 1.5288 21.6183C1.61787 22.5614 1.91203 23.4737 2.39067 24.2912C2.86931 25.1087 3.52086 25.8118 4.29971 26.3511C5.07856 26.8904 5.96588 27.2529 6.89954 27.4133C7.83319 27.5737 8.79063 27.528 9.7048 27.2796C10.619 27.0311 11.4678 26.5858 12.1918 25.9749C12.9158 25.3639 13.4976 24.6021 13.8963 23.7428C14.295 22.8834 14.501 21.9473 14.5 21V12.5H17.5V21C17.499 21.9473 17.705 22.8834 18.1037 23.7428C18.5024 24.6021 19.0842 25.3639 19.8082 25.9749C20.5322 26.5858 21.381 27.0311 22.2952 27.2796C23.2094 27.528 24.1668 27.5737 25.1005 27.4133C26.0341 27.2529 26.9214 26.8904 27.7003 26.3511C28.4791 25.8118 29.1307 25.1087 29.6093 24.2912C30.088 23.4737 30.3821 22.5614 30.4712 21.6183C30.5603 20.6751 30.4421 19.7239 30.125 18.8312ZM10 7.785C10.2143 7.62943 10.466 7.53337 10.7294 7.50659C10.9929 7.4798 11.2588 7.52325 11.5 7.6325V15.5262C10.1701 14.6728 8.57441 14.3341 7.0125 14.5737L10 7.785ZM8 24.5C7.30776 24.5 6.63107 24.2947 6.0555 23.9101C5.47993 23.5256 5.03133 22.9789 4.76642 22.3394C4.50151 21.6998 4.4322 20.9961 4.56725 20.3172C4.7023 19.6383 5.03564 19.0146 5.52512 18.5251C6.01461 18.0356 6.63825 17.7023 7.31718 17.5673C7.99611 17.4322 8.69985 17.5015 9.33939 17.7664C9.97893 18.0313 10.5256 18.4799 10.9101 19.0555C11.2947 19.6311 11.5 20.3078 11.5 21C11.5 21.9283 11.1312 22.8185 10.4749 23.4749C9.81849 24.1313 8.92825 24.5 8 24.5ZM20.5 7.6325C20.7414 7.52401 21.0071 7.48098 21.2704 7.50775C21.5337 7.53452 21.7854 7.63014 22 7.785L24.9837 14.5737C23.4218 14.3341 21.8262 14.6728 20.4962 15.5262L20.5 7.6325ZM24 24.5C23.3078 24.5 22.6311 24.2947 22.0555 23.9101C21.4799 23.5256 21.0313 22.9789 20.7664 22.3394C20.5015 21.6998 20.4322 20.9961 20.5672 20.3172C20.7023 19.6383 21.0356 19.0146 21.5251 18.5251C22.0146 18.0356 22.6382 17.7023 23.3172 17.5673C23.9961 17.4322 24.6998 17.5015 25.3394 17.7664C25.9789 18.0313 26.5256 18.4799 26.9101 19.0555C27.2947 19.6311 27.5 20.3078 27.5 21C27.5 21.9283 27.1312 22.8185 26.4749 23.4749C25.8185 24.1313 24.9283 24.5 24 24.5Z" fill="black"/>
</svg>
