<svg width="32" height="32" viewBox="0 0 32 32" fill="none" xmlns="http://www.w3.org/2000/svg">
<path d="M21.4999 8.49999C21.4999 8.69777 21.4413 8.89111 21.3314 9.05556C21.2215 9.22001 21.0653 9.34819 20.8826 9.42387C20.6999 9.49956 20.4988 9.51936 20.3048 9.48078C20.1109 9.44219 19.9327 9.34695 19.7928 9.2071C19.653 9.06725 19.5577 8.88906 19.5191 8.69508C19.4806 8.5011 19.5004 8.30004 19.5761 8.11731C19.6517 7.93458 19.7799 7.77841 19.9444 7.66852C20.1088 7.55864 20.3022 7.49999 20.4999 7.49999C20.7651 7.49999 21.0195 7.60535 21.207 7.79289C21.3946 7.98042 21.4999 8.23478 21.4999 8.49999ZM14.6162 16.68L9.61618 22.68C9.5314 22.7818 9.49049 22.9131 9.50244 23.0451C9.5144 23.177 9.57823 23.2988 9.67993 23.3837C9.76939 23.4593 9.88284 23.5005 9.99993 23.5C10.0732 23.4999 10.1455 23.4838 10.2118 23.4527C10.2781 23.4216 10.3368 23.3763 10.3837 23.32L15.3837 17.32C15.4629 17.2176 15.4993 17.0885 15.4852 16.9598C15.4712 16.8312 15.4078 16.713 15.3084 16.6301C15.209 16.5472 15.0813 16.5061 14.9522 16.5154C14.8231 16.5247 14.7027 16.5837 14.6162 16.68ZM29.4999 9.99999C29.5 10.0823 29.4797 10.1634 29.4409 10.236C29.4021 10.3086 29.3459 10.3705 29.2774 10.4162L26.4999 12.2675V15C26.4963 18.3141 25.1782 21.4914 22.8347 23.8348C20.4913 26.1782 17.314 27.4964 13.9999 27.5H0.999932C0.905759 27.4999 0.813517 27.4733 0.733826 27.4231C0.654134 27.3729 0.590235 27.3013 0.549483 27.2164C0.508731 27.1315 0.492785 27.0368 0.503479 26.9432C0.514173 26.8496 0.551074 26.761 0.609932 26.6875L12.4999 11.825V9.49999C12.4989 7.81347 13.1069 6.18329 14.2119 4.90924C15.317 3.63519 16.8448 2.80294 18.5146 2.56553C20.1843 2.32813 21.8836 2.70154 23.3 3.61709C24.7164 4.53265 25.7546 5.92878 26.2237 7.54874L29.2774 9.58374C29.3459 9.62944 29.4021 9.69135 29.4409 9.76396C29.4797 9.83658 29.5 9.91765 29.4999 9.99999ZM28.0987 9.99999L25.5137 8.27749C25.4121 8.20842 25.3389 8.105 25.3074 7.98624C24.9405 6.57288 24.0708 5.34183 22.8612 4.52379C21.6517 3.70575 20.1853 3.35688 18.737 3.54257C17.2886 3.72825 15.9577 4.43574 14.9936 5.53244C14.0295 6.62914 13.4984 8.03978 13.4999 9.49999V12C13.4998 12.1136 13.461 12.2239 13.3899 12.3125L2.03993 26.5H13.9999C17.0489 26.4967 19.9721 25.284 22.128 23.1281C24.284 20.9721 25.4966 18.049 25.4999 15V12C25.4999 11.9177 25.5202 11.8366 25.559 11.764C25.5978 11.6913 25.6539 11.6294 25.7224 11.5837L28.0987 9.99999Z" fill="black"/>
</svg>
