<svg width="32" height="32" viewBox="0 0 32 32" fill="none" xmlns="http://www.w3.org/2000/svg">
<path d="M22 9.00001C22 9.39557 21.8827 9.78225 21.6629 10.1112C21.4431 10.4401 21.1308 10.6964 20.7653 10.8478C20.3999 10.9991 19.9977 11.0388 19.6098 10.9616C19.2218 10.8844 18.8655 10.6939 18.5858 10.4142C18.306 10.1345 18.1156 9.77815 18.0384 9.39019C17.9612 9.00223 18.0008 8.6001 18.1522 8.23464C18.3036 7.86919 18.5599 7.55684 18.8888 7.33707C19.2177 7.11731 19.6044 7.00001 20 7.00001C20.5304 7.00001 21.0391 7.21072 21.4142 7.5858C21.7893 7.96087 22 8.46958 22 9.00001ZM30.5 10C30.5003 10.2472 30.4396 10.4907 30.3231 10.7088C30.2067 10.9269 30.0381 11.1128 29.8325 11.25L27.5 12.8025V15C27.496 18.5792 26.0724 22.0107 23.5415 24.5416C21.0106 27.0724 17.5792 28.496 14 28.5H1.49997C1.22011 28.4999 0.945862 28.4215 0.708226 28.2737C0.47059 28.1259 0.279045 27.9146 0.155243 27.6636C0.0314421 27.4126 -0.0196769 27.132 0.00766535 26.8535C0.0350076 26.5749 0.139721 26.3096 0.309967 26.0875L11.5 11.4913V9.50001C11.4979 7.60424 12.1692 5.76934 13.3941 4.32242C14.619 2.8755 16.3179 1.9106 18.1881 1.59971C20.0582 1.28883 21.9779 1.65217 23.6051 2.62497C25.2322 3.59776 26.461 5.11679 27.0725 6.91126L29.8325 8.75001C30.0381 8.88722 30.2067 9.07314 30.3231 9.29122C30.4396 9.5093 30.5003 9.75278 30.5 10ZM26.2962 10L24.96 9.10876C24.6502 8.90488 24.4273 8.59295 24.335 8.23376C24.0256 7.05964 23.2996 6.0382 22.2924 5.36008C21.2853 4.68196 20.0657 4.39351 18.8615 4.54855C17.6572 4.7036 16.5506 5.29155 15.748 6.20267C14.9454 7.1138 14.5018 8.28582 14.5 9.50001V12C14.4998 12.33 14.3909 12.6507 14.19 12.9125L4.53997 25.5H14C16.7838 25.497 19.4528 24.3898 21.4213 22.4213C23.3898 20.4529 24.497 17.7839 24.5 15V12C24.4996 11.7528 24.5603 11.5093 24.6768 11.2912C24.7933 11.0731 24.9618 10.8872 25.1675 10.75L26.2962 10ZM16.0787 15.81C15.7631 15.5681 15.3643 15.4615 14.97 15.5135C14.5758 15.5655 14.2183 15.772 13.9762 16.0875L10.1425 21.0875C9.92656 21.404 9.83995 21.7912 9.90042 22.1695C9.96089 22.5479 10.1639 22.8887 10.4677 23.1222C10.7715 23.3556 11.1531 23.464 11.5343 23.425C11.9154 23.386 12.2672 23.2026 12.5175 22.9125L16.3512 17.9125C16.5937 17.5975 16.7011 17.1991 16.6501 16.8049C16.599 16.4106 16.3935 16.0528 16.0787 15.81Z" fill="black"/>
</svg>
