<svg width="32" height="32" viewBox="0 0 32 32" fill="none" xmlns="http://www.w3.org/2000/svg">
<path d="M23.9 20.8L17.5 16L18.9513 14.9113C19.2695 14.6726 19.4799 14.3172 19.5362 13.9234C19.5924 13.5296 19.49 13.1295 19.2513 12.8113C19.0126 12.493 18.6572 12.2826 18.2634 12.2263C17.8696 12.1701 17.4695 12.2726 17.1513 12.5113L16.5 13V7L17.1513 7.48875C17.4695 7.72745 17.8696 7.82994 18.2634 7.77367C18.6572 7.71741 19.0126 7.50701 19.2513 7.18875C19.49 6.87049 19.5924 6.47045 19.5362 6.07662C19.4799 5.68279 19.2695 5.32745 18.9513 5.08875L15.9 2.8C15.6772 2.63286 15.4122 2.53108 15.1347 2.50606C14.8573 2.48104 14.5783 2.53378 14.3292 2.65836C14.08 2.78294 13.8705 2.97444 13.724 3.2114C13.5776 3.44837 13.5 3.72143 13.5 4V13L7.90001 8.8C7.58175 8.56131 7.1817 8.45882 6.78787 8.51508C6.39405 8.57134 6.0387 8.78174 5.80001 9.1C5.56131 9.41826 5.45882 9.81831 5.51508 10.2121C5.57134 10.606 5.78175 10.9613 6.10001 11.2L12.5 16L6.10001 20.8C5.94242 20.9182 5.80966 21.0663 5.70929 21.2358C5.60893 21.4053 5.54294 21.5929 5.51508 21.7879C5.48722 21.9829 5.49805 22.1814 5.54694 22.3723C5.59582 22.5631 5.68182 22.7424 5.80001 22.9C5.9182 23.0576 6.06627 23.1904 6.23577 23.2907C6.40526 23.3911 6.59287 23.4571 6.78787 23.4849C6.98288 23.5128 7.18146 23.502 7.37228 23.4531C7.5631 23.4042 7.74242 23.3182 7.90001 23.2L13.5 19V28C13.5 28.2786 13.5776 28.5516 13.724 28.7886C13.8705 29.0256 14.08 29.2171 14.3292 29.3416C14.5783 29.4662 14.8573 29.519 15.1347 29.4939C15.4122 29.4689 15.6772 29.3671 15.9 29.2L23.9 23.2C24.0863 23.0603 24.2375 22.8791 24.3416 22.6708C24.4458 22.4625 24.5 22.2329 24.5 22C24.5 21.7671 24.4458 21.5375 24.3416 21.3292C24.2375 21.1209 24.0863 20.9397 23.9 20.8ZM16.5 25V19L20.5 22L16.5 25ZM30.0613 11.9388C30.343 12.2205 30.5014 12.6027 30.5014 13.0013C30.5014 13.3998 30.343 13.782 30.0613 14.0638C29.7795 14.3455 29.3973 14.5039 28.9988 14.5039C28.6002 14.5039 28.218 14.3455 27.9363 14.0638L26 12.125L24.0613 14.065C23.9217 14.2045 23.7561 14.3152 23.5738 14.3907C23.3915 14.4662 23.1961 14.5051 22.9988 14.5051C22.8014 14.5051 22.606 14.4662 22.4237 14.3907C22.2414 14.3152 22.0758 14.2045 21.9363 14.065C21.7967 13.9255 21.686 13.7598 21.6105 13.5775C21.535 13.3952 21.4962 13.1998 21.4962 13.0025C21.4962 12.8052 21.535 12.6098 21.6105 12.4275C21.686 12.2452 21.7967 12.0795 21.9363 11.94L23.875 10L21.94 8.06125C21.6582 7.77946 21.4999 7.39727 21.4999 6.99875C21.4999 6.60024 21.6582 6.21804 21.94 5.93625C22.2218 5.65446 22.604 5.49615 23.0025 5.49615C23.401 5.49615 23.7832 5.65446 24.065 5.93625L26 7.875L27.9388 5.935C28.2205 5.65321 28.6027 5.4949 29.0013 5.4949C29.3998 5.4949 29.782 5.65321 30.0638 5.935C30.3455 6.21679 30.5039 6.59899 30.5039 6.9975C30.5039 7.39602 30.3455 7.77821 30.0638 8.06L28.125 10L30.0613 11.9388Z" fill="black"/>
</svg>
