<svg width="32" height="32" viewBox="0 0 32 32" fill="none" xmlns="http://www.w3.org/2000/svg">
<path d="M23.9 20.8L17.5 16L23.9 11.2C24.0863 11.0603 24.2375 10.8791 24.3416 10.6708C24.4458 10.4625 24.5 10.2329 24.5 10C24.5 9.76713 24.4458 9.53746 24.3416 9.32918C24.2375 9.1209 24.0863 8.93972 23.9 8.8L15.9 2.8C15.6771 2.63286 15.4122 2.53108 15.1347 2.50606C14.8573 2.48104 14.5783 2.53378 14.3292 2.65836C14.08 2.78294 13.8705 2.97444 13.724 3.2114C13.5776 3.44837 13.5 3.72143 13.5 4V13L7.9 8.8C7.58174 8.56131 7.1817 8.45882 6.78787 8.51508C6.39404 8.57134 6.0387 8.78174 5.8 9.1C5.56131 9.41826 5.45882 9.81831 5.51508 10.2121C5.57134 10.606 5.78174 10.9613 6.1 11.2L12.5 16L6.1 20.8C5.94241 20.9182 5.80965 21.0663 5.70929 21.2358C5.60893 21.4053 5.54293 21.5929 5.51508 21.7879C5.48722 21.9829 5.49804 22.1814 5.54693 22.3723C5.59582 22.5631 5.68181 22.7424 5.8 22.9C5.91819 23.0576 6.06626 23.1904 6.23576 23.2907C6.40526 23.3911 6.59287 23.4571 6.78787 23.4849C6.98287 23.5128 7.18145 23.502 7.37227 23.4531C7.56309 23.4042 7.74241 23.3182 7.9 23.2L13.5 19V28C13.5 28.2786 13.5776 28.5516 13.724 28.7886C13.8705 29.0256 14.08 29.2171 14.3292 29.3416C14.5783 29.4662 14.8573 29.519 15.1347 29.4939C15.4122 29.4689 15.6771 29.3671 15.9 29.2L23.9 23.2C24.0863 23.0603 24.2375 22.8791 24.3416 22.6708C24.4458 22.4625 24.5 22.2329 24.5 22C24.5 21.7671 24.4458 21.5375 24.3416 21.3292C24.2375 21.1209 24.0863 20.9397 23.9 20.8ZM16.5 7L20.5 10L16.5 13V7ZM16.5 25V19L20.5 22L16.5 25ZM6 18C5.60444 18 5.21776 17.8827 4.88886 17.6629C4.55996 17.4432 4.30362 17.1308 4.15224 16.7654C4.00087 16.3999 3.96126 15.9978 4.03843 15.6098C4.1156 15.2219 4.30608 14.8655 4.58579 14.5858C4.86549 14.3061 5.22186 14.1156 5.60982 14.0384C5.99778 13.9613 6.39992 14.0009 6.76537 14.1522C7.13082 14.3036 7.44318 14.56 7.66294 14.8889C7.8827 15.2178 8 15.6044 8 16C8 16.5304 7.78929 17.0391 7.41421 17.4142C7.03914 17.7893 6.53043 18 6 18ZM27 16C27 16.3956 26.8827 16.7822 26.6629 17.1111C26.4432 17.44 26.1308 17.6964 25.7654 17.8478C25.3999 17.9991 24.9978 18.0387 24.6098 17.9616C24.2219 17.8844 23.8655 17.6939 23.5858 17.4142C23.3061 17.1345 23.1156 16.7781 23.0384 16.3902C22.9613 16.0022 23.0009 15.6001 23.1522 15.2346C23.3036 14.8692 23.56 14.5568 23.8889 14.3371C24.2178 14.1173 24.6044 14 25 14C25.5304 14 26.0391 14.2107 26.4142 14.5858C26.7893 14.9609 27 15.4696 27 16Z" fill="black"/>
</svg>
