<svg width="32" height="32" viewBox="0 0 32 32" fill="none" xmlns="http://www.w3.org/2000/svg">
<path d="M29.3425 7.28875C28.599 6.39513 27.5666 5.78939 26.4238 5.57625C26.2875 4.87328 26.0017 4.2078 25.586 3.62483C25.1702 3.04185 24.634 2.55498 24.0138 2.19716C23.3935 1.83934 22.7036 1.61892 21.9908 1.55081C21.278 1.4827 20.5589 1.56848 19.8821 1.80237C19.2053 2.03625 18.5867 2.41277 18.068 2.90646C17.5493 3.40014 17.1427 3.99947 16.8758 4.6639C16.6088 5.32832 16.4876 6.04234 16.5205 6.75765C16.5534 7.47295 16.7395 8.17286 17.0663 8.81L8.81628 17.0662C8.17914 16.7395 7.47924 16.5533 6.76394 16.5205C6.04863 16.4876 5.33461 16.6088 4.67019 16.8757C4.00576 17.1427 3.40643 17.5493 2.91274 18.068C2.41906 18.5866 2.04254 19.2053 1.80865 19.8821C1.57477 20.5589 1.48898 21.278 1.5571 21.9908C1.62521 22.7036 1.84563 23.3935 2.20345 24.0137C2.56127 24.634 3.04814 25.1701 3.63111 25.5859C4.21409 26.0017 4.87957 26.2874 5.58253 26.4237C5.71859 27.1269 6.00411 27.7926 6.41978 28.3758C6.83544 28.959 7.37154 29.4461 7.9918 29.8042C8.61206 30.1622 9.302 30.3828 10.0149 30.4511C10.7278 30.5194 11.4471 30.4337 12.124 30.1998C12.801 29.966 13.4198 29.5895 13.9385 29.0957C14.4573 28.602 14.864 28.0025 15.131 27.338C15.398 26.6734 15.5191 25.9593 15.4862 25.2439C15.4532 24.5284 15.267 23.8284 14.94 23.1912L23.1963 14.9337C24.2223 15.4732 25.4038 15.6394 26.5388 15.404C27.6738 15.1685 28.6917 14.546 29.4184 13.643C30.1452 12.74 30.5356 11.6125 30.5229 10.4534C30.5102 9.2943 30.0951 8.17564 29.3488 7.28875H29.3425ZM27.0125 11.8137C26.699 12.1713 26.2684 12.4054 25.7978 12.4741C25.3273 12.5428 24.8477 12.4417 24.445 12.1887C23.9652 11.8851 23.3964 11.7538 22.832 11.8165C22.2677 11.8792 21.7415 12.1322 21.34 12.5337L12.54 21.3337C12.1387 21.7353 11.8859 22.2616 11.8235 22.8259C11.761 23.3903 11.8925 23.9591 12.1963 24.4387C12.3662 24.7127 12.4674 25.0236 12.4913 25.3451C12.5151 25.6666 12.4609 25.989 12.3333 26.285C12.2056 26.581 12.0083 26.8418 11.7581 27.0451C11.508 27.2484 11.2124 27.3883 10.8965 27.4527C10.5807 27.5171 10.2539 27.5043 9.94413 27.4152C9.63433 27.3261 9.35064 27.1635 9.11724 26.9411C8.88384 26.7188 8.70764 26.4433 8.60366 26.1382C8.49968 25.8331 8.47099 25.5073 8.52003 25.1887C8.55263 24.9751 8.53868 24.757 8.47916 24.5493C8.41963 24.3416 8.31593 24.1492 8.17515 23.9852C8.03437 23.8213 7.85983 23.6897 7.66348 23.5995C7.46714 23.5093 7.25362 23.4625 7.03753 23.4625C6.96011 23.4622 6.88278 23.468 6.80628 23.48C6.48757 23.5293 6.16166 23.5009 5.85633 23.397C5.55101 23.2932 5.27532 23.117 5.05279 22.8836C4.83025 22.6502 4.66746 22.3664 4.5783 22.0564C4.48915 21.7465 4.47626 21.4196 4.54075 21.1036C4.60524 20.7876 4.74519 20.4919 4.94866 20.2417C5.15214 19.9915 5.4131 19.7942 5.70931 19.6666C6.00551 19.5391 6.32818 19.485 6.64978 19.5091C6.97138 19.5332 7.28239 19.6347 7.55628 19.805C8.03596 20.1083 8.60458 20.2394 9.16865 20.1767C9.73272 20.114 10.2587 19.8613 10.66 19.46L19.46 10.66C19.8616 10.2586 20.1146 9.73237 20.1773 9.16802C20.24 8.60368 20.1087 8.0348 19.805 7.555C19.6348 7.2811 19.5333 6.9701 19.5092 6.64849C19.4851 6.32689 19.5391 6.00423 19.6667 5.70802C19.7942 5.41181 19.9915 5.15085 20.2417 4.94737C20.4919 4.7439 20.7877 4.60395 21.1036 4.53946C21.4196 4.47498 21.7465 4.48786 22.0565 4.57702C22.3664 4.66618 22.6502 4.82896 22.8836 5.0515C23.117 5.27404 23.2932 5.54972 23.397 5.85505C23.5009 6.16037 23.5294 6.48629 23.48 6.805C23.4435 7.03838 23.4627 7.27709 23.5359 7.50168C23.6091 7.72626 23.7343 7.93039 23.9014 8.09742C24.0684 8.26445 24.2725 8.38968 24.4971 8.46289C24.7217 8.53611 24.9604 8.55524 25.1938 8.51875C25.6003 8.45363 26.0169 8.51552 26.3869 8.69598C26.7569 8.87644 27.0622 9.16668 27.2611 9.52708C27.4601 9.88748 27.5429 10.3005 27.4984 10.7097C27.454 11.119 27.2843 11.5045 27.0125 11.8137Z" fill="black"/>
</svg>
