<svg width="32" height="32" viewBox="0 0 32 32" fill="none" xmlns="http://www.w3.org/2000/svg">
<path d="M28.8901 13.465C28.187 14.2716 27.2188 14.8005 26.1602 14.9564C25.1016 15.1122 24.0221 14.8848 23.1163 14.315C23.1123 14.3135 23.1079 14.3135 23.1038 14.315L14.3101 23.11C14.3101 23.11 14.3101 23.11 14.3101 23.12C14.6664 23.694 14.8889 24.3407 14.9611 25.0124C15.0333 25.6841 14.9534 26.3634 14.7273 26.9999C14.5011 27.6365 14.1346 28.2139 13.6548 28.6895C13.175 29.1651 12.5943 29.5265 11.9558 29.747C11.3173 29.9675 10.6373 30.0414 9.9663 29.9633C9.2953 29.8851 8.65051 29.6569 8.07976 29.2955C7.509 28.9342 7.02692 28.449 6.66928 27.8759C6.31165 27.3028 6.08762 26.6565 6.01383 25.985C5.34235 25.9112 4.69608 25.6872 4.12299 25.3296C3.5499 24.9719 3.06467 24.4899 2.70332 23.9191C2.34196 23.3484 2.11374 22.7036 2.03559 22.0326C1.95744 21.3616 2.03135 20.6816 2.25186 20.0431C2.47237 19.4045 2.83381 18.8238 3.30936 18.3441C3.78492 17.8643 4.36239 17.4977 4.99895 17.2716C5.63551 17.0454 6.31481 16.9655 6.98647 17.0377C7.65813 17.11 8.30491 17.3325 8.87883 17.6888C8.88286 17.6903 8.88731 17.6903 8.89133 17.6888L17.6851 8.89378C17.6851 8.89378 17.6851 8.89378 17.6851 8.88378C17.3288 8.30985 17.1063 7.66307 17.0341 6.99141C16.9618 6.31975 17.0418 5.64045 17.2679 5.00389C17.494 4.36734 17.8606 3.78986 18.3404 3.31431C18.8201 2.83875 19.4008 2.47731 20.0394 2.25681C20.6779 2.0363 21.3579 1.96238 22.0289 2.04053C22.6999 2.11869 23.3447 2.3469 23.9154 2.70826C24.4862 3.06962 24.9682 3.55484 25.3259 4.12793C25.6835 4.70103 25.9075 5.34729 25.9813 6.01878C26.8021 6.10517 27.5833 6.41561 28.2394 6.91613C28.8956 7.41665 29.4015 8.08798 29.7018 8.8567C30.0021 9.62541 30.0852 10.4619 29.942 11.2747C29.7989 12.0874 29.4349 12.8452 28.8901 13.465Z" fill="black"/>
</svg>
