<svg width="32" height="32" viewBox="0 0 32 32" fill="none" xmlns="http://www.w3.org/2000/svg">
<path d="M28 5.5H20C19.2503 5.49976 18.5086 5.65327 17.8206 5.95105C17.1326 6.24882 16.5129 6.68453 16 7.23125C15.4871 6.68453 14.8674 6.24882 14.1794 5.95105C13.4914 5.65327 12.7497 5.49976 12 5.5H4C3.33696 5.5 2.70107 5.76339 2.23223 6.23223C1.76339 6.70107 1.5 7.33696 1.5 8V24C1.5 24.663 1.76339 25.2989 2.23223 25.7678C2.70107 26.2366 3.33696 26.5 4 26.5H12C12.663 26.5 13.2989 26.7634 13.7678 27.2322C14.2366 27.7011 14.5 28.337 14.5 29C14.5 29.3978 14.658 29.7794 14.9393 30.0607C15.2206 30.342 15.6022 30.5 16 30.5C16.3978 30.5 16.7794 30.342 17.0607 30.0607C17.342 29.7794 17.5 29.3978 17.5 29C17.5 28.337 17.7634 27.7011 18.2322 27.2322C18.7011 26.7634 19.337 26.5 20 26.5H28C28.663 26.5 29.2989 26.2366 29.7678 25.7678C30.2366 25.2989 30.5 24.663 30.5 24V8C30.5 7.33696 30.2366 6.70107 29.7678 6.23223C29.2989 5.76339 28.663 5.5 28 5.5ZM12 23.5H4.5V8.5H12C12.663 8.5 13.2989 8.76339 13.7678 9.23223C14.2366 9.70107 14.5 10.337 14.5 11V24.1012C13.7262 23.7052 12.8693 23.4991 12 23.5ZM27.5 23.5H20C19.1305 23.4995 18.2734 23.7064 17.5 24.1038V11C17.5 10.337 17.7634 9.70107 18.2322 9.23223C18.7011 8.76339 19.337 8.5 20 8.5H27.5V23.5Z" fill="black"/>
</svg>
