<svg width="32" height="32" viewBox="0 0 32 32" fill="none" xmlns="http://www.w3.org/2000/svg">
<path d="M29.4463 24.2163L25.2975 4.49125C25.2303 4.16877 25.1001 3.86275 24.9143 3.59076C24.7285 3.31878 24.4907 3.08619 24.2147 2.90638C23.9387 2.72657 23.6299 2.60307 23.3061 2.54298C22.9822 2.4829 22.6496 2.48741 22.3275 2.55625L16.4762 3.81375C15.9383 3.9304 15.4545 4.22287 15.1012 4.645C14.8747 4.29369 14.5636 4.0048 14.1965 3.80477C13.8294 3.60474 13.418 3.49995 13 3.5H7C6.33696 3.5 5.70107 3.7634 5.23223 4.23224C4.76339 4.70108 4.5 5.33696 4.5 6V26C4.5 26.663 4.76339 27.2989 5.23223 27.7678C5.70107 28.2366 6.33696 28.5 7 28.5H13C13.663 28.5 14.2989 28.2366 14.7678 27.7678C15.2366 27.2989 15.5 26.663 15.5 26V11.2813L18.7025 26.5088C18.8192 27.0704 19.1255 27.5747 19.57 27.9373C20.0145 28.2998 20.5701 28.4985 21.1437 28.5C21.3215 28.4999 21.4987 28.481 21.6725 28.4438L27.5238 27.1863C28.1711 27.0447 28.7363 26.6533 29.0964 26.097C29.4564 25.5407 29.5822 24.8648 29.4463 24.2163ZM18.5238 11.0813L23.3988 10.0338L23.715 11.5338L18.84 12.5813L18.5238 11.0813ZM19.4562 15.5188L24.3312 14.4713L25.4762 19.9188L20.6012 20.9663L19.4562 15.5188ZM22.4638 5.595L22.78 7.095L17.905 8.1425L17.5888 6.6425L22.4638 5.595ZM7.5 11H12.5V21H7.5V11ZM12.5 6.5V8H7.5V6.5H12.5ZM7.5 25.5V24H12.5V25.5H7.5ZM21.5362 25.405L21.22 23.905L26.095 22.8575L26.4112 24.3575L21.5362 25.405Z" fill="black"/>
</svg>
