<svg width="32" height="32" viewBox="0 0 32 32" fill="none" xmlns="http://www.w3.org/2000/svg">
<path d="M19.5 7H7.5C6.83696 7 6.20107 7.26339 5.73223 7.73223C5.26339 8.20107 5 8.83696 5 9.5V28.5C4.9997 28.7761 5.07559 29.0469 5.21932 29.2826C5.36305 29.5183 5.56904 29.7098 5.81461 29.8359C6.06018 29.9621 6.3358 30.018 6.61112 29.9975C6.88643 29.9771 7.15076 29.881 7.375 29.72L13.5 25.345L19.625 29.72C19.8492 29.881 20.1136 29.9771 20.3889 29.9975C20.6642 30.018 20.9398 29.9621 21.1854 29.8359C21.431 29.7098 21.637 29.5183 21.7807 29.2826C21.9244 29.0469 22.0003 28.7761 22 28.5V9.5C22 8.83696 21.7366 8.20107 21.2678 7.73223C20.7989 7.26339 20.163 7 19.5 7ZM19 25.585L14.375 22.2787C14.12 22.0956 13.814 21.9971 13.5 21.9971C13.186 21.9971 12.88 22.0956 12.625 22.2787L8 25.585V10H19V25.585ZM27 4.5V23.5C27 23.8978 26.842 24.2794 26.5607 24.5607C26.2794 24.842 25.8978 25 25.5 25C25.1022 25 24.7206 24.842 24.4393 24.5607C24.158 24.2794 24 23.8978 24 23.5V5H11.5C11.1022 5 10.7206 4.84196 10.4393 4.56066C10.158 4.27936 10 3.89782 10 3.5C10 3.10218 10.158 2.72064 10.4393 2.43934C10.7206 2.15804 11.1022 2 11.5 2H24.5C25.163 2 25.7989 2.26339 26.2678 2.73223C26.7366 3.20107 27 3.83696 27 4.5Z" fill="black"/>
</svg>
