<svg width="32" height="32" viewBox="0 0 32 32" fill="none" xmlns="http://www.w3.org/2000/svg">
<path d="M26 2.5H9C7.80653 2.5 6.66193 2.97411 5.81802 3.81802C4.97411 4.66193 4.5 5.80653 4.5 7V28C4.5 28.3978 4.65804 28.7794 4.93934 29.0607C5.22064 29.342 5.60218 29.5 6 29.5H24C24.3978 29.5 24.7794 29.342 25.0607 29.0607C25.342 28.7794 25.5 28.3978 25.5 28C25.5 27.6022 25.342 27.2206 25.0607 26.9393C24.7794 26.658 24.3978 26.5 24 26.5H7.5V26C7.5 25.6022 7.65804 25.2206 7.93934 24.9393C8.22064 24.658 8.60218 24.5 9 24.5H26C26.3978 24.5 26.7794 24.342 27.0607 24.0607C27.342 23.7794 27.5 23.3978 27.5 23V4C27.5 3.60218 27.342 3.22064 27.0607 2.93934C26.7794 2.65804 26.3978 2.5 26 2.5ZM15 5.5H20V13L18.3988 11.8C18.1391 11.6053 17.8233 11.5 17.4988 11.5C17.1742 11.5 16.8584 11.6053 16.5987 11.8L15 13V5.5ZM24.5 21.5H9C8.48892 21.499 7.9815 21.5861 7.5 21.7575V7C7.5 6.60218 7.65804 6.22064 7.93934 5.93934C8.22064 5.65804 8.60218 5.5 9 5.5H12V16C12 16.2786 12.0776 16.5516 12.224 16.7886C12.3705 17.0256 12.58 17.2171 12.8292 17.3416C13.0783 17.4662 13.3573 17.519 13.6347 17.4939C13.9122 17.4689 14.1771 17.3671 14.4 17.2L17.5 14.875L20.6012 17.2C20.8241 17.3668 21.089 17.4683 21.3662 17.4931C21.6435 17.5179 21.9222 17.4651 22.1711 17.3406C22.42 17.216 22.6294 17.0247 22.7758 16.7879C22.9222 16.5512 22.9998 16.2784 23 16V5.5H24.5V21.5Z" fill="black"/>
</svg>
