<svg width="32" height="32" viewBox="0 0 32 32" fill="none" xmlns="http://www.w3.org/2000/svg">
<path d="M23 3.5H9C8.33696 3.5 7.70107 3.76339 7.23223 4.23223C6.76339 4.70107 6.5 5.33696 6.5 6V28C6.49991 28.2678 6.57152 28.5307 6.70738 28.7615C6.84325 28.9923 7.03842 29.1825 7.27263 29.3123C7.50684 29.4422 7.77154 29.507 8.03925 29.5C8.30696 29.493 8.56791 29.4144 8.795 29.2725L15.9987 24.7725L23.205 29.2725C23.4321 29.4144 23.693 29.493 23.9608 29.5C24.2285 29.507 24.4932 29.4422 24.7274 29.3123C24.9616 29.1825 25.1568 28.9923 25.2926 28.7615C25.4285 28.5307 25.5001 28.2678 25.5 28V6C25.5 5.33696 25.2366 4.70107 24.7678 4.23223C24.2989 3.76339 23.663 3.5 23 3.5ZM22.5 25.2938L16.7938 21.7275C16.5554 21.5785 16.2799 21.4995 15.9987 21.4995C15.7176 21.4995 15.4421 21.5785 15.2037 21.7275L9.5 25.2938V6.5H22.5V25.2938Z" fill="black"/>
</svg>
