<svg width="32" height="32" viewBox="0 0 32 32" fill="none" xmlns="http://www.w3.org/2000/svg">
<path d="M24 13H20.5V7C20.5 6.6717 20.4353 6.34661 20.3097 6.04329C20.1841 5.73998 19.9999 5.46438 19.7678 5.23223C19.5356 5.00009 19.26 4.81594 18.9567 4.6903C18.6534 4.56466 18.3283 4.5 18 4.5H4C3.75668 4.50006 3.51703 4.55932 3.30172 4.67265C3.08641 4.78598 2.9019 4.94999 2.76411 5.15053C2.62631 5.35107 2.53937 5.58212 2.51078 5.82375C2.48219 6.06538 2.51281 6.31034 2.6 6.5375C3.96 10.0862 3.6375 16.3325 2.55875 20.085C2.51984 20.2199 2.50006 20.3596 2.5 20.5V25C2.5 25.663 2.76339 26.2989 3.23223 26.7678C3.70107 27.2366 4.33696 27.5 5 27.5H8.26375C8.65412 27.5004 9.03924 27.4101 9.38875 27.2362L10.8538 26.5H12.6462L14.1175 27.2362C14.467 27.4101 14.8521 27.5004 15.2425 27.5H18.77C19.1583 27.4994 19.5411 27.4092 19.8888 27.2362L21.3538 26.5H23.1462L24.6175 27.2362C24.9651 27.4092 25.348 27.4994 25.7362 27.5H29C29.663 27.5 30.2989 27.2366 30.7678 26.7678C31.2366 26.2989 31.5 25.663 31.5 25V20.5C31.4977 18.5116 30.7068 16.6053 29.3007 15.1993C27.8947 13.7932 25.9884 13.0023 24 13ZM6 7.5H17.5V13H14.5C14.1022 13 13.7206 13.158 13.4393 13.4393C13.158 13.7206 13 14.1022 13 14.5C13 14.8978 13.158 15.2794 13.4393 15.5607C13.7206 15.842 14.1022 16 14.5 16H24C24.9302 16.0013 25.8373 16.2903 26.5969 16.8274C27.3564 17.3645 27.9312 18.1234 28.2425 19H5.90125C6.59375 15.51 6.77875 11.0512 6 7.5ZM28.5 24.5H25.8538L24.3825 23.7638C24.0349 23.5908 23.652 23.5006 23.2638 23.5H21.2362C20.848 23.5006 20.4651 23.5908 20.1175 23.7638L18.6462 24.5H15.3538L13.8825 23.7638C13.533 23.5899 13.1479 23.4996 12.7575 23.5H10.7362C10.3459 23.4996 9.96076 23.5899 9.61125 23.7638L8.14625 24.5H5.5V22H28.5V24.5Z" fill="black"/>
</svg>
