<svg width="32" height="32" viewBox="0 0 32 32" fill="none" xmlns="http://www.w3.org/2000/svg">
<path d="M28 12.5H27.4025C27.0398 9.7325 25.683 7.19137 23.585 5.3504C21.4871 3.50944 18.7912 2.49432 16 2.49432C13.2088 2.49432 10.5129 3.50944 8.41497 5.3504C6.31701 7.19137 4.96019 9.7325 4.5975 12.5H4C3.60218 12.5 3.22064 12.658 2.93934 12.9393C2.65804 13.2206 2.5 13.6022 2.5 14C2.5045 16.4179 3.15602 18.7905 4.38692 20.8716C5.61782 22.9527 7.38326 24.6665 9.5 25.835V26C9.5 26.663 9.76339 27.2989 10.2322 27.7678C10.7011 28.2366 11.337 28.5 12 28.5H20C20.663 28.5 21.2989 28.2366 21.7678 27.7678C22.2366 27.2989 22.5 26.663 22.5 26V25.835C24.6167 24.6665 26.3822 22.9527 27.6131 20.8716C28.844 18.7905 29.4955 16.4179 29.5 14C29.5 13.6022 29.342 13.2206 29.0607 12.9393C28.7794 12.658 28.3978 12.5 28 12.5ZM21.2862 7.5075C18.993 8.53801 17.1006 10.2917 15.8988 12.5H13.25C13.9271 11.0117 15.0174 9.74926 16.3914 8.86285C17.7653 7.97645 19.3649 7.5034 21 7.5C21.095 7.5 21.19 7.5 21.2862 7.5075ZM23.4387 9.8925C23.8886 10.7049 24.2015 11.5859 24.365 12.5H19.5163C20.5516 11.2782 21.9115 10.3743 23.4387 9.8925ZM16 5.5C16.1038 5.5 16.2062 5.5 16.31 5.5075C14.8342 6.16893 13.5139 7.13324 12.4348 8.33787C11.3557 9.54251 10.5419 10.9606 10.0463 12.5H7.635C7.98916 10.5385 9.02043 8.76341 10.5491 7.48422C12.0777 6.20503 14.0068 5.50283 16 5.5ZM20.375 23.5488C20.1139 23.6684 19.8926 23.8606 19.7375 24.1023C19.5824 24.3441 19.5 24.6253 19.5 24.9125V25.5H12.5V24.9125C12.5 24.6253 12.4176 24.3441 12.2625 24.1023C12.1074 23.8606 11.8861 23.6684 11.625 23.5488C10.0314 22.814 8.64654 21.693 7.59594 20.2875C6.54534 18.882 5.86229 17.2364 5.60875 15.5H26.3913C26.1377 17.2364 25.4547 18.882 24.4041 20.2875C23.3535 21.693 21.9686 22.814 20.375 23.5488Z" fill="black"/>
</svg>
