<svg width="32" height="32" viewBox="0 0 32 32" fill="none" xmlns="http://www.w3.org/2000/svg">
<path d="M6.5 6.5V25.5H10C10.3978 25.5 10.7794 25.658 11.0607 25.9393C11.342 26.2206 11.5 26.6022 11.5 27C11.5 27.3978 11.342 27.7794 11.0607 28.0607C10.7794 28.342 10.3978 28.5 10 28.5H5C4.60218 28.5 4.22064 28.342 3.93934 28.0607C3.65804 27.7794 3.5 27.3978 3.5 27V5C3.5 4.60218 3.65804 4.22064 3.93934 3.93934C4.22064 3.65804 4.60218 3.5 5 3.5H10C10.3978 3.5 10.7794 3.65804 11.0607 3.93934C11.342 4.22064 11.5 4.60218 11.5 5C11.5 5.39782 11.342 5.77936 11.0607 6.06066C10.7794 6.34196 10.3978 6.5 10 6.5H6.5ZM27 3.5H22C21.6022 3.5 21.2206 3.65804 20.9393 3.93934C20.658 4.22064 20.5 4.60218 20.5 5C20.5 5.39782 20.658 5.77936 20.9393 6.06066C21.2206 6.34196 21.6022 6.5 22 6.5H25.5V25.5H22C21.6022 25.5 21.2206 25.658 20.9393 25.9393C20.658 26.2206 20.5 26.6022 20.5 27C20.5 27.3978 20.658 27.7794 20.9393 28.0607C21.2206 28.342 21.6022 28.5 22 28.5H27C27.3978 28.5 27.7794 28.342 28.0607 28.0607C28.342 27.7794 28.5 27.3978 28.5 27V5C28.5 4.60218 28.342 4.22064 28.0607 3.93934C27.7794 3.65804 27.3978 3.5 27 3.5Z" fill="black"/>
</svg>
