<svg width="32" height="32" viewBox="0 0 32 32" fill="none" xmlns="http://www.w3.org/2000/svg">
<path d="M6.875 7.83378C5.7925 9.36628 4.5 12.0275 4.5 16C4.5 19.9725 5.7925 22.6338 6.875 24.1663C8.05125 25.8288 9.25 26.565 9.2575 26.5713C9.35128 26.6275 9.42403 26.713 9.4646 26.8146C9.50516 26.9162 9.5113 27.0282 9.48208 27.1336C9.45286 27.239 9.38989 27.3319 9.30282 27.3981C9.21574 27.4643 9.10937 27.5001 9 27.5C8.91184 27.4987 8.82559 27.4742 8.75 27.4288C8.52875 27.3 3.5 24.1888 3.5 16C3.5 7.81128 8.52875 4.70003 8.7425 4.57128C8.85621 4.50282 8.99246 4.48234 9.12127 4.51434C9.25009 4.54633 9.36092 4.62819 9.42937 4.7419C9.49783 4.85562 9.51832 4.99187 9.48632 5.12068C9.45432 5.24949 9.37246 5.36032 9.25875 5.42878C9.25 5.43503 8.0525 6.17128 6.875 7.83378ZM23.2563 4.57128C23.1999 4.53738 23.1375 4.51491 23.0725 4.50514C23.0075 4.49537 22.9413 4.49849 22.8775 4.51434C22.8137 4.53018 22.7537 4.55843 22.7008 4.59748C22.6479 4.63652 22.6033 4.6856 22.5694 4.7419C22.5355 4.79821 22.513 4.86064 22.5032 4.92563C22.4935 4.99062 22.4966 5.0569 22.5124 5.12068C22.5444 5.24949 22.6263 5.36032 22.74 5.42878C22.7525 5.42878 23.9462 6.17128 25.1225 7.83378C26.2062 9.36628 27.4975 12.0275 27.4975 16C27.4975 19.9725 26.205 22.6338 25.1225 24.1663C23.9462 25.8288 22.7475 26.565 22.7412 26.5713C22.6275 26.6396 22.5456 26.7502 22.5135 26.8789C22.4814 27.0076 22.5017 27.1438 22.57 27.2575C22.6383 27.3712 22.749 27.4532 22.8777 27.4853C23.0064 27.5174 23.1425 27.4971 23.2563 27.4288C23.47 27.3038 28.4988 24.1888 28.4988 16C28.4988 7.81128 23.4713 4.70003 23.2575 4.57128H23.2563Z" fill="black"/>
</svg>
