<svg width="32" height="32" viewBox="0 0 32 32" fill="none" xmlns="http://www.w3.org/2000/svg">
<path d="M11.2648 5.80501L4.7773 16L11.2648 26.195C11.3771 26.3611 11.455 26.548 11.4938 26.7447C11.5327 26.9414 11.5317 27.1439 11.4909 27.3403C11.4502 27.5366 11.3705 27.7227 11.2565 27.8877C11.1426 28.0527 10.9967 28.1932 10.8276 28.3008C10.6584 28.4084 10.4694 28.4811 10.2717 28.5144C10.074 28.5478 9.87158 28.5411 9.67647 28.4949C9.48137 28.4487 9.29751 28.3638 9.13577 28.2453C8.97403 28.1268 8.83768 27.9771 8.7348 27.805L1.7348 16.805C1.58177 16.5644 1.50049 16.2852 1.50049 16C1.50049 15.7149 1.58177 15.4356 1.7348 15.195L8.7348 4.19501C8.9536 3.87147 9.28997 3.64603 9.67239 3.56663C10.0548 3.48723 10.4531 3.56012 10.7827 3.76982C11.1122 3.97951 11.3469 4.30946 11.4369 4.68952C11.527 5.06958 11.4652 5.46978 11.2648 5.80501ZM30.2648 15.195L23.2648 4.19501C23.1619 4.02292 23.0256 3.8732 22.8638 3.7547C22.7021 3.63621 22.5182 3.55134 22.3231 3.50512C22.128 3.4589 21.9256 3.45226 21.7279 3.4856C21.5302 3.51894 21.3412 3.59158 21.172 3.69923C21.0029 3.80688 20.857 3.94734 20.7431 4.11233C20.6291 4.27731 20.5494 4.46346 20.5087 4.65978C20.4679 4.85609 20.4669 5.05859 20.5058 5.2553C20.5446 5.452 20.6225 5.63893 20.7348 5.80501L27.2223 16L20.7348 26.195C20.6225 26.3611 20.5446 26.548 20.5058 26.7447C20.4669 26.9414 20.4679 27.1439 20.5087 27.3403C20.5494 27.5366 20.6291 27.7227 20.7431 27.8877C20.857 28.0527 21.0029 28.1932 21.172 28.3008C21.3412 28.4084 21.5302 28.4811 21.7279 28.5144C21.9256 28.5478 22.128 28.5411 22.3231 28.4949C22.5182 28.4487 22.7021 28.3638 22.8638 28.2453C23.0256 28.1268 23.1619 27.9771 23.2648 27.805L30.2648 16.805C30.4178 16.5644 30.4991 16.2852 30.4991 16C30.4991 15.7149 30.4178 15.4356 30.2648 15.195Z" fill="black"/>
</svg>
