<svg width="32" height="32" viewBox="0 0 32 32" fill="none" xmlns="http://www.w3.org/2000/svg">
<path d="M10.2913 27.7738C10.1896 27.943 10.0556 28.0905 9.89685 28.2079C9.7381 28.3252 9.55775 28.4101 9.36614 28.4576C9.17452 28.5051 8.97542 28.5143 8.78024 28.4847C8.58507 28.4551 8.39765 28.3872 8.22875 28.285C8 28.145 2.5 24.75 2.5 16C2.5 7.25002 8 3.85502 8.22875 3.71502C8.56845 3.52326 8.96949 3.47137 9.34681 3.57037C9.72413 3.66936 10.048 3.91146 10.2498 4.24529C10.4516 4.57913 10.5154 4.97845 10.4277 5.35855C10.34 5.73864 10.1077 6.06962 9.78 6.28127C9.58875 6.40127 5.5 9.03877 5.5 16C5.5 22.9613 9.60625 25.61 9.78125 25.7188C10.1208 25.9242 10.3651 26.2558 10.4607 26.6409C10.5563 27.0261 10.4954 27.4334 10.2913 27.7738ZM23.7712 3.71502C23.6026 3.60804 23.4144 3.5358 23.2175 3.50253C23.0206 3.46926 22.8191 3.47564 22.6247 3.52129C22.4303 3.56694 22.247 3.65094 22.0855 3.76837C21.924 3.8858 21.7875 4.03429 21.6842 4.20514C21.5808 4.37599 21.5126 4.56575 21.4836 4.76331C21.4545 4.96086 21.4652 5.16223 21.515 5.3556C21.5648 5.54897 21.6527 5.73045 21.7735 5.88941C21.8944 6.04836 22.0457 6.18159 22.2188 6.28127C22.3937 6.39002 26.5 9.02377 26.5 16C26.5 22.9763 22.3938 25.61 22.2288 25.7125C22.056 25.8119 21.9048 25.9447 21.784 26.1031C21.6632 26.2616 21.5751 26.4425 21.525 26.6354C21.4749 26.8282 21.4637 27.0291 21.4921 27.2264C21.5204 27.4236 21.5878 27.6132 21.6903 27.7841C21.7928 27.955 21.9283 28.1037 22.0889 28.2217C22.2495 28.3396 22.432 28.4244 22.6257 28.471C22.8194 28.5177 23.0205 28.5253 23.2172 28.4933C23.4139 28.4614 23.6022 28.3906 23.7712 28.285C24 28.145 29.5 24.75 29.5 16C29.5 7.25002 24 3.85502 23.7712 3.71502Z" fill="black"/>
</svg>
