<svg width="32" height="32" viewBox="0 0 32 32" fill="none" xmlns="http://www.w3.org/2000/svg">
<path d="M10.4214 5.26874L3.59261 16L10.4214 26.7312C10.4925 26.843 10.5165 26.9784 10.4879 27.1078C10.4593 27.2372 10.3805 27.3499 10.2689 27.4212C10.1886 27.4726 10.0954 27.4999 10.0001 27.5C9.91612 27.4999 9.8335 27.4787 9.75988 27.4383C9.68626 27.3979 9.624 27.3396 9.57886 27.2687L2.57886 16.2687C2.52768 16.1884 2.50049 16.0952 2.50049 16C2.50049 15.9048 2.52768 15.8115 2.57886 15.7312L9.57886 4.73124C9.61293 4.67335 9.65832 4.62292 9.71231 4.58296C9.7663 4.543 9.82779 4.51433 9.89311 4.49866C9.95843 4.48299 10.0262 4.48064 10.0925 4.49175C10.1587 4.50287 10.2221 4.52721 10.2787 4.56334C10.3353 4.59947 10.3841 4.64664 10.4221 4.70203C10.4601 4.75742 10.4865 4.8199 10.4998 4.88574C10.5131 4.95158 10.5131 5.01942 10.4996 5.08523C10.4861 5.15103 10.4595 5.21344 10.4214 5.26874ZM29.4214 15.7312L22.4214 4.73124C22.3873 4.67335 22.3419 4.62292 22.2879 4.58296C22.2339 4.543 22.1724 4.51433 22.1071 4.49866C22.0418 4.48299 21.974 4.48064 21.9077 4.49175C21.8415 4.50287 21.7782 4.52721 21.7215 4.56334C21.6649 4.59947 21.6161 4.64664 21.5781 4.70203C21.5401 4.75742 21.5137 4.8199 21.5004 4.88574C21.4871 4.95158 21.4872 5.01942 21.5006 5.08523C21.5141 5.15103 21.5407 5.21344 21.5789 5.26874L28.4076 16L21.5789 26.7312C21.5077 26.843 21.4837 26.9784 21.5123 27.1078C21.5409 27.2372 21.6197 27.3499 21.7314 27.4212C21.8116 27.4726 21.9049 27.4999 22.0001 27.5C22.0841 27.4999 22.1667 27.4787 22.2403 27.4383C22.314 27.3979 22.3762 27.3396 22.4214 27.2687L29.4214 16.2687C29.4725 16.1884 29.4997 16.0952 29.4997 16C29.4997 15.9048 29.4725 15.8115 29.4214 15.7312Z" fill="black"/>
</svg>
