<svg width="32" height="32" viewBox="0 0 32 32" fill="none" xmlns="http://www.w3.org/2000/svg">
<path d="M6.85 14.9362C6.66393 15.3242 6.42175 15.6826 6.13125 16C6.42175 16.3174 6.66393 16.6758 6.85 17.0637C7.5 18.405 7.5 19.9788 7.5 21.5C7.5 24.7425 7.73 25.5 10 25.5C10.3978 25.5 10.7794 25.658 11.0607 25.9393C11.342 26.2206 11.5 26.6022 11.5 27C11.5 27.3978 11.342 27.7794 11.0607 28.0607C10.7794 28.342 10.3978 28.5 10 28.5C7.6075 28.5 5.975 27.6375 5.15 25.9363C4.5 24.595 4.5 23.0212 4.5 21.5C4.5 18.2575 4.27 17.5 2 17.5C1.60218 17.5 1.22064 17.342 0.93934 17.0607C0.658035 16.7794 0.5 16.3978 0.5 16C0.5 15.6022 0.658035 15.2206 0.93934 14.9393C1.22064 14.658 1.60218 14.5 2 14.5C4.27 14.5 4.5 13.7425 4.5 10.5C4.5 8.97875 4.5 7.405 5.15 6.06375C5.975 4.3625 7.6075 3.5 10 3.5C10.3978 3.5 10.7794 3.65804 11.0607 3.93934C11.342 4.22064 11.5 4.60218 11.5 5C11.5 5.39782 11.342 5.77936 11.0607 6.06066C10.7794 6.34196 10.3978 6.5 10 6.5C7.73 6.5 7.5 7.2575 7.5 10.5C7.5 12.0212 7.5 13.595 6.85 14.9362ZM30 14.5C27.73 14.5 27.5 13.7425 27.5 10.5C27.5 8.97875 27.5 7.405 26.85 6.06375C26.025 4.3625 24.3925 3.5 22 3.5C21.6022 3.5 21.2206 3.65804 20.9393 3.93934C20.658 4.22064 20.5 4.60218 20.5 5C20.5 5.39782 20.658 5.77936 20.9393 6.06066C21.2206 6.34196 21.6022 6.5 22 6.5C24.27 6.5 24.5 7.2575 24.5 10.5C24.5 12.0212 24.5 13.595 25.15 14.9362C25.338 15.3246 25.5823 15.683 25.875 16C25.5845 16.3174 25.3423 16.6758 25.1562 17.0637C24.5 18.405 24.5 19.9788 24.5 21.5C24.5 24.7425 24.27 25.5 22 25.5C21.6022 25.5 21.2206 25.658 20.9393 25.9393C20.658 26.2206 20.5 26.6022 20.5 27C20.5 27.3978 20.658 27.7794 20.9393 28.0607C21.2206 28.342 21.6022 28.5 22 28.5C24.3925 28.5 26.025 27.6375 26.85 25.9363C27.5 24.595 27.5 23.0212 27.5 21.5C27.5 18.2575 27.73 17.5 30 17.5C30.3978 17.5 30.7794 17.342 31.0607 17.0607C31.342 16.7794 31.5 16.3978 31.5 16C31.5 15.6022 31.342 15.2206 31.0607 14.9393C30.7794 14.658 30.3978 14.5 30 14.5Z" fill="black"/>
</svg>
