<svg width="32" height="32" viewBox="0 0 32 32" fill="none" xmlns="http://www.w3.org/2000/svg">
<path d="M31.5 15.5C31.4984 14.1351 31.1252 12.7964 30.4205 11.6275C29.7158 10.4586 28.7062 9.50364 27.5 8.86501C27.4719 7.54018 27.0395 6.25559 26.2609 5.18337C25.4822 4.11115 24.3945 3.30252 23.1434 2.86586C21.8923 2.42919 20.5376 2.38535 19.2608 2.7402C17.9841 3.09504 16.8463 3.83163 16 4.85126C15.1536 3.83163 14.0158 3.09504 12.7391 2.7402C11.4624 2.38535 10.1077 2.42919 8.85658 2.86586C7.60547 3.30252 6.51771 4.11115 5.73906 5.18337C4.9604 6.25559 4.52807 7.54018 4.49997 8.86501C3.29248 9.50191 2.28174 10.4563 1.57668 11.6253C0.871633 12.7943 0.499023 14.1336 0.499023 15.4988C0.499023 16.8639 0.871633 18.2032 1.57668 19.3722C2.28174 20.5412 3.29248 21.4956 4.49997 22.1325C4.52757 23.4575 4.95956 24.7425 5.73802 25.8151C6.51649 26.8877 7.60423 27.6967 8.85544 28.1337C10.1067 28.5706 11.4616 28.6147 12.7385 28.2599C14.0155 27.9052 15.1535 27.1685 16 26.1488C16.8465 27.1685 17.9845 27.9052 19.2614 28.2599C20.5384 28.6147 21.8933 28.5706 23.1445 28.1337C24.3957 27.6967 25.4835 26.8877 26.2619 25.8151C27.0404 24.7425 27.4724 23.4575 27.5 22.1325C28.7066 21.495 29.7167 20.5407 30.4215 19.372C31.1263 18.2034 31.4991 16.8647 31.5 15.5ZM11 25.5C10.2448 25.4999 9.50983 25.2555 8.90493 24.8034C8.30003 24.3512 7.85761 23.7155 7.64372 22.9913C7.76872 22.9913 7.87997 23 7.99997 23H8.99997C9.3978 23 9.77933 22.842 10.0606 22.5607C10.3419 22.2794 10.5 21.8978 10.5 21.5C10.5 21.1022 10.3419 20.7207 10.0606 20.4393C9.77933 20.158 9.3978 20 8.99997 20H7.99997C6.93788 20.0007 5.90976 19.6258 5.0975 18.9415C4.28524 18.2572 3.7412 17.3077 3.56162 16.2609C3.38204 15.2141 3.5785 14.1375 4.11625 13.2216C4.654 12.3057 5.49836 11.6095 6.49997 11.2563C6.79255 11.1528 7.04584 10.9612 7.22494 10.7077C7.40404 10.4543 7.50013 10.1516 7.49997 9.84126V9.00001C7.49997 8.07175 7.86872 7.18151 8.5251 6.52513C9.18148 5.86875 10.0717 5.50001 11 5.50001C11.9282 5.50001 12.8185 5.86875 13.4748 6.52513C14.1312 7.18151 14.5 8.07175 14.5 9.00001V16.5188C14.017 16.2117 13.4959 15.9692 12.95 15.7975C12.5704 15.6782 12.1589 15.7145 11.8061 15.8985C11.4533 16.0825 11.1881 16.3992 11.0687 16.7788C10.9494 17.1583 10.9857 17.5698 11.1697 17.9226C11.3537 18.2754 11.6704 18.5407 12.05 18.66C12.8486 18.9101 13.5312 19.4382 13.9739 20.1484C14.4167 20.8585 14.5903 21.7039 14.4633 22.5311C14.3363 23.3583 13.9172 24.1126 13.2818 24.6573C12.6464 25.202 11.8369 25.5009 11 25.5ZM24 20H23C22.6021 20 22.2206 20.158 21.9393 20.4393C21.658 20.7207 21.5 21.1022 21.5 21.5C21.5 21.8978 21.658 22.2794 21.9393 22.5607C22.2206 22.842 22.6021 23 23 23H24C24.125 23 24.2375 23 24.3562 22.9913C24.1848 23.5711 23.8662 24.0966 23.4313 24.5166C22.9964 24.9366 22.4601 25.2369 21.8747 25.388C21.2892 25.5391 20.6747 25.536 20.0908 25.379C19.5069 25.222 18.9737 24.9164 18.5431 24.492C18.1124 24.0676 17.7991 23.5389 17.6335 22.9573C17.468 22.3758 17.4559 21.7614 17.5985 21.1738C17.7411 20.5862 18.0334 20.0456 18.447 19.6046C18.8607 19.1637 19.3815 18.8373 19.9587 18.6575C20.3386 18.5393 20.6561 18.275 20.8411 17.9228C21.0262 17.5706 21.0638 17.1593 20.9456 16.7794C20.8274 16.3995 20.5631 16.082 20.2109 15.897C19.8587 15.7119 19.4474 15.6743 19.0675 15.7925C18.515 15.9638 17.9878 16.208 17.5 16.5188V9.00001C17.5 8.07175 17.8687 7.18151 18.5251 6.52513C19.1815 5.86875 20.0717 5.50001 21 5.50001C21.9282 5.50001 22.8185 5.86875 23.4748 6.52513C24.1312 7.18151 24.5 8.07175 24.5 9.00001V9.84126C24.4998 10.1516 24.5959 10.4543 24.775 10.7077C24.9541 10.9612 25.2074 11.1528 25.5 11.2563C26.5061 11.6063 27.3554 12.302 27.8967 13.2195C28.4381 14.1369 28.6364 15.2167 28.4564 16.2666C28.2764 17.3166 27.7298 18.2687 26.9137 18.9534C26.0977 19.6382 25.0652 20.0113 24 20.0063V20ZM26 14.5C26 14.8978 25.8419 15.2794 25.5606 15.5607C25.2793 15.842 24.8978 16 24.5 16C23.1739 16 21.9021 15.4732 20.9644 14.5355C20.0268 13.5979 19.5 12.3261 19.5 11V10.5C19.5 10.1022 19.658 9.72065 19.9393 9.43934C20.2206 9.15804 20.6021 9.00001 21 9.00001C21.3978 9.00001 21.7793 9.15804 22.0606 9.43934C22.3419 9.72065 22.5 10.1022 22.5 10.5V11C22.5 11.5304 22.7107 12.0391 23.0858 12.4142C23.4608 12.7893 23.9695 13 24.5 13C24.8978 13 25.2793 13.158 25.5606 13.4393C25.8419 13.7206 26 14.1022 26 14.5ZM7.49997 16C7.10215 16 6.72062 15.842 6.43931 15.5607C6.15801 15.2794 5.99997 14.8978 5.99997 14.5C5.99997 14.1022 6.15801 13.7206 6.43931 13.4393C6.72062 13.158 7.10215 13 7.49997 13C8.03041 13 8.53911 12.7893 8.91419 12.4142C9.28926 12.0391 9.49997 11.5304 9.49997 11V10.5C9.49997 10.1022 9.65801 9.72065 9.93931 9.43934C10.2206 9.15804 10.6021 9.00001 11 9.00001C11.3978 9.00001 11.7793 9.15804 12.0606 9.43934C12.3419 9.72065 12.5 10.1022 12.5 10.5V11C12.5 12.3261 11.9732 13.5979 11.0355 14.5355C10.0978 15.4732 8.82605 16 7.49997 16Z" fill="black"/>
</svg>
