<svg width="32" height="32" viewBox="0 0 32 32" fill="none" xmlns="http://www.w3.org/2000/svg">
<path d="M28.5 11C28.503 8.57881 27.8002 6.20924 26.4775 4.18125C26.3419 3.97305 26.1566 3.8018 25.9385 3.68289C25.7203 3.56398 25.476 3.50113 25.2275 3.5H6.77875C6.53027 3.50113 6.28597 3.56398 6.06779 3.68289C5.8496 3.8018 5.66438 3.97305 5.52875 4.18125C4.20388 6.20856 3.49886 8.57817 3.5 11C3.50397 14.0544 4.62445 17.0019 6.65046 19.2876C8.67646 21.5733 11.4682 23.0395 14.5 23.41V26.5H11C10.6022 26.5 10.2206 26.658 9.93934 26.9393C9.65804 27.2206 9.5 27.6022 9.5 28C9.5 28.3978 9.65804 28.7794 9.93934 29.0607C10.2206 29.342 10.6022 29.5 11 29.5H21C21.3978 29.5 21.7794 29.342 22.0607 29.0607C22.342 28.7794 22.5 28.3978 22.5 28C22.5 27.6022 22.342 27.2206 22.0607 26.9393C21.7794 26.658 21.3978 26.5 21 26.5H17.5V23.41C20.5318 23.0395 23.3235 21.5733 25.3495 19.2876C27.3756 17.0019 28.496 14.0544 28.5 11ZM7.63125 6.5H24.375C24.8792 7.43578 25.2215 8.45008 25.3875 9.5H6.625C6.78903 8.45046 7.12923 7.43618 7.63125 6.5ZM16.0063 20.5C13.7485 20.4956 11.5659 19.6885 9.8485 18.223C8.13107 16.7574 6.99073 14.7289 6.63125 12.5H25.375C25.0155 14.7289 23.8752 16.7574 22.1578 18.223C20.4403 19.6885 18.2577 20.4956 16 20.5H16.0063Z" fill="black"/>
</svg>
