<svg width="32" height="32" viewBox="0 0 32 32" fill="none" xmlns="http://www.w3.org/2000/svg">
<path d="M29.0001 19.5H25.5001V13.9362C26.3556 14.736 27.3509 15.3716 28.4363 15.8112C28.619 15.8851 28.8143 15.9223 29.0113 15.9207C29.2083 15.919 29.403 15.8786 29.5844 15.8017C29.7658 15.7248 29.9302 15.6129 30.0683 15.4725C30.2065 15.332 30.3156 15.1657 30.3895 14.9831C30.4633 14.8005 30.5005 14.6051 30.4989 14.4081C30.4972 14.2112 30.4568 14.0164 30.3799 13.8351C30.303 13.6537 30.1911 13.4892 30.0507 13.3511C29.9102 13.213 29.744 13.1039 29.5613 13.03C28.3587 12.5467 27.3288 11.7137 26.6048 10.6386C25.8807 9.56362 25.4959 8.29609 25.5001 7C25.5001 6.60218 25.342 6.22064 25.0607 5.93934C24.7794 5.65804 24.3979 5.5 24.0001 5.5C23.6023 5.5 23.2207 5.65804 22.9394 5.93934C22.6581 6.22064 22.5001 6.60218 22.5001 7C22.5001 8.72391 21.8153 10.3772 20.5963 11.5962C19.3773 12.8152 17.724 13.5 16.0001 13.5C14.2762 13.5 12.6229 12.8152 11.4039 11.5962C10.1849 10.3772 9.50008 8.72391 9.50008 7C9.50008 6.60218 9.34205 6.22064 9.06074 5.93934C8.77944 5.65804 8.39791 5.5 8.00008 5.5C7.60226 5.5 7.22073 5.65804 6.93942 5.93934C6.65812 6.22064 6.50008 6.60218 6.50008 7C6.50366 8.29581 6.11842 9.5629 5.39419 10.6374C4.66996 11.712 3.64003 12.5445 2.43758 13.0275C2.06876 13.1767 1.77432 13.4663 1.61901 13.8326C1.46371 14.1988 1.46027 14.6118 1.60946 14.9806C1.75864 15.3494 2.04823 15.6439 2.41451 15.7992C2.78079 15.9545 3.19376 15.9579 3.56258 15.8088C4.64803 15.3691 5.64334 14.7335 6.49883 13.9338V19.5H3.00008C2.60226 19.5 2.22073 19.658 1.93942 19.9393C1.65812 20.2206 1.50008 20.6022 1.50008 21C1.50008 21.3978 1.65812 21.7794 1.93942 22.0607C2.22073 22.342 2.60226 22.5 3.00008 22.5H6.50008V25C6.50008 25.3978 6.65812 25.7794 6.93942 26.0607C7.22073 26.342 7.60226 26.5 8.00008 26.5C8.39791 26.5 8.77944 26.342 9.06074 26.0607C9.34205 25.7794 9.50008 25.3978 9.50008 25V22.5H22.5001V25C22.5001 25.3978 22.6581 25.7794 22.9394 26.0607C23.2207 26.342 23.6023 26.5 24.0001 26.5C24.3979 26.5 24.7794 26.342 25.0607 26.0607C25.342 25.7794 25.5001 25.3978 25.5001 25V22.5H29.0001C29.3979 22.5 29.7794 22.342 30.0607 22.0607C30.342 21.7794 30.5001 21.3978 30.5001 21C30.5001 20.6022 30.342 20.2206 30.0607 19.9393C29.7794 19.658 29.3979 19.5 29.0001 19.5ZM17.5001 16.3813V19.5H14.5001V16.3813C15.4938 16.5396 16.5064 16.5396 17.5001 16.3813ZM9.50008 13.9225C10.1017 14.4873 10.774 14.9717 11.5001 15.3638V19.5H9.50008V13.9225ZM20.5001 19.5V15.3638C21.2262 14.9717 21.8984 14.4873 22.5001 13.9225V19.5H20.5001Z" fill="black"/>
</svg>
