<svg width="32" height="32" viewBox="0 0 32 32" fill="none" xmlns="http://www.w3.org/2000/svg">
<path d="M27 6.5H22.5V5C22.5 4.07174 22.1313 3.1815 21.4749 2.52513C20.8185 1.86875 19.9283 1.5 19 1.5H13C12.0717 1.5 11.1815 1.86875 10.5251 2.52513C9.86875 3.1815 9.5 4.07174 9.5 5V6.5H5C4.33696 6.5 3.70107 6.76339 3.23223 7.23223C2.76339 7.70107 2.5 8.33696 2.5 9V25C2.5 25.663 2.76339 26.2989 3.23223 26.7678C3.70107 27.2366 4.33696 27.5 5 27.5H27C27.663 27.5 28.2989 27.2366 28.7678 26.7678C29.2366 26.2989 29.5 25.663 29.5 25V9C29.5 8.33696 29.2366 7.70107 28.7678 7.23223C28.2989 6.76339 27.663 6.5 27 6.5ZM5.5 14.5H26.5V19.5H5.5V14.5ZM12.5 5C12.5 4.86739 12.5527 4.74021 12.6464 4.64645C12.7402 4.55268 12.8674 4.5 13 4.5H19C19.1326 4.5 19.2598 4.55268 19.3536 4.64645C19.4473 4.74021 19.5 4.86739 19.5 5V6.5H12.5V5ZM26.5 9.5V11.5H5.5V9.5H26.5ZM5.5 24.5V22.5H26.5V24.5H5.5Z" fill="black"/>
</svg>
