<svg width="32" height="32" viewBox="0 0 32 32" fill="none" xmlns="http://www.w3.org/2000/svg">
<path d="M16 11.25C15.0605 11.25 14.1422 11.5286 13.361 12.0505C12.5799 12.5724 11.9711 13.3143 11.6116 14.1822C11.2521 15.0502 11.158 16.0053 11.3413 16.9267C11.5246 17.8481 11.9769 18.6944 12.6412 19.3587C13.3055 20.023 14.1519 20.4754 15.0733 20.6587C15.9947 20.842 16.9498 20.7479 17.8177 20.3884C18.6857 20.0289 19.4275 19.4201 19.9495 18.6389C20.4714 17.8578 20.75 16.9394 20.75 16C20.75 14.7402 20.2496 13.532 19.3588 12.6412C18.468 11.7504 17.2598 11.25 16 11.25ZM16 19.25C15.3572 19.25 14.7289 19.0594 14.1944 18.7023C13.6599 18.3451 13.2434 17.8376 12.9974 17.2437C12.7514 16.6498 12.687 15.9964 12.8124 15.3659C12.9379 14.7355 13.2474 14.1564 13.7019 13.7019C14.1564 13.2474 14.7355 12.9378 15.366 12.8124C15.9964 12.687 16.6499 12.7514 17.2437 12.9974C17.8376 13.2434 18.3452 13.6599 18.7023 14.1944C19.0594 14.7288 19.25 15.3572 19.25 16C19.25 16.8619 18.9076 17.6886 18.2981 18.2981C17.6886 18.9076 16.862 19.25 16 19.25ZM25.75 16C25.7531 18.3988 24.8689 20.714 23.2675 22.5C23.1335 22.6429 22.9489 22.7278 22.7532 22.7364C22.5575 22.745 22.3661 22.6767 22.2201 22.546C22.0741 22.4154 21.9851 22.2328 21.972 22.0373C21.9588 21.8418 22.0228 21.649 22.15 21.5C23.5047 19.9883 24.2538 18.0298 24.2538 16C24.2538 13.9701 23.5047 12.0117 22.15 10.5C22.0817 10.4271 22.0286 10.3412 21.9939 10.2475C21.9592 10.1538 21.9436 10.054 21.948 9.95419C21.9523 9.85434 21.9766 9.75637 22.0194 9.66605C22.0622 9.57572 22.1226 9.49486 22.1971 9.42821C22.2716 9.36157 22.3586 9.31048 22.4531 9.27795C22.5476 9.24542 22.6477 9.23211 22.7474 9.23879C22.8471 9.24548 22.9445 9.27203 23.0338 9.31688C23.1231 9.36174 23.2026 9.42399 23.2675 9.49999C24.8689 11.286 25.7531 13.6012 25.75 16ZM8.3975 12.7887C7.78816 14.229 7.60117 15.8128 7.85837 17.3553C8.11557 18.8979 8.80634 20.3354 9.85 21.5C9.98256 21.6482 10.0508 21.843 10.0398 22.0415C10.0288 22.2401 9.93939 22.4261 9.79125 22.5587C9.64304 22.6913 9.44825 22.7596 9.24971 22.7486C9.05118 22.7375 8.86514 22.6481 8.7325 22.5C7.13185 20.7133 6.24673 18.3988 6.24673 16C6.24673 13.6012 7.13185 11.2867 8.7325 9.49999C8.79742 9.42399 8.87686 9.36174 8.96618 9.31688C9.05549 9.27203 9.15287 9.24548 9.25259 9.23879C9.35232 9.23211 9.45237 9.24542 9.54687 9.27795C9.64138 9.31048 9.72842 9.36157 9.8029 9.42821C9.87738 9.49486 9.93779 9.57572 9.98057 9.66605C10.0234 9.75637 10.0477 9.85434 10.052 9.95419C10.0564 10.054 10.0408 10.1538 10.0061 10.2475C9.97143 10.3412 9.91835 10.4271 9.85 10.5C9.24334 11.1779 8.75259 11.9512 8.3975 12.7887ZM30.75 16C30.7539 19.8604 29.2406 23.5677 26.5363 26.3225C26.397 26.4647 26.207 26.5458 26.008 26.5479C25.8089 26.55 25.6172 26.473 25.475 26.3337C25.3328 26.1945 25.2517 26.0045 25.2496 25.8054C25.2475 25.6064 25.3245 25.4147 25.4638 25.2725C27.8936 22.7978 29.2549 19.4682 29.2549 16C29.2549 12.5318 27.8936 9.2022 25.4638 6.72749C25.3948 6.65706 25.3404 6.57375 25.3037 6.48231C25.2669 6.39086 25.2485 6.29308 25.2496 6.19453C25.2517 5.99551 25.3328 5.80547 25.475 5.66624C25.6172 5.527 25.8089 5.44996 26.008 5.45207C26.1065 5.45311 26.2039 5.47356 26.2945 5.51223C26.3852 5.55091 26.4673 5.60706 26.5363 5.67749C29.2406 8.43232 30.7539 12.1396 30.75 16ZM6.53625 25.2725C6.6052 25.3429 6.65959 25.4262 6.69634 25.5177C6.73309 25.6091 6.75146 25.7069 6.75042 25.8054C6.74937 25.904 6.72893 26.0014 6.69025 26.092C6.65157 26.1827 6.59542 26.2648 6.525 26.3337C6.45458 26.4027 6.37127 26.4571 6.27982 26.4938C6.18838 26.5306 6.09059 26.5489 5.99205 26.5479C5.8935 26.5469 5.79612 26.5264 5.70548 26.4877C5.61483 26.4491 5.53269 26.3929 5.46375 26.3225C2.76028 23.5668 1.2458 19.8604 1.2458 16C1.2458 12.1396 2.76028 8.43322 5.46375 5.67749C5.60299 5.53526 5.79302 5.45418 5.99205 5.45207C6.19107 5.44996 6.38278 5.527 6.525 5.66624C6.66722 5.80547 6.74831 5.99551 6.75042 6.19453C6.75253 6.39355 6.67549 6.58526 6.53625 6.72749C4.10643 9.2022 2.74508 12.5318 2.74508 16C2.74508 19.4682 4.10643 22.7978 6.53625 25.2725Z" fill="black"/>
</svg>
