<svg width="32" height="32" viewBox="0 0 32 32" fill="none" xmlns="http://www.w3.org/2000/svg">
<path d="M16 10.5C14.9122 10.5 13.8488 10.8225 12.9444 11.4269C12.0399 12.0312 11.3349 12.8902 10.9187 13.8952C10.5024 14.9002 10.3935 16.0061 10.6057 17.073C10.8179 18.1399 11.3417 19.1199 12.1109 19.8891C12.8801 20.6583 13.8601 21.1821 14.927 21.3943C15.9939 21.6065 17.0998 21.4976 18.1048 21.0813C19.1098 20.665 19.9687 19.9601 20.5731 19.0556C21.1774 18.1511 21.5 17.0878 21.5 16C21.4983 14.5418 20.9184 13.1438 19.8873 12.1127C18.8562 11.0816 17.4582 10.5016 16 10.5ZM16 18.5C15.5055 18.5 15.0222 18.3534 14.6111 18.0787C14.1999 17.8039 13.8795 17.4135 13.6903 16.9567C13.5011 16.4999 13.4516 15.9972 13.548 15.5123C13.6445 15.0273 13.8826 14.5818 14.2322 14.2322C14.5819 13.8826 15.0273 13.6445 15.5123 13.548C15.9972 13.4516 16.4999 13.5011 16.9567 13.6903C17.4135 13.8795 17.804 14.1999 18.0787 14.6111C18.3534 15.0222 18.5 15.5055 18.5 16C18.5 16.663 18.2366 17.2989 17.7678 17.7677C17.2989 18.2366 16.663 18.5 16 18.5ZM25.6737 20.0875C25.2228 21.1536 24.5985 22.1377 23.8262 23C23.561 23.2965 23.1889 23.4756 22.7917 23.4977C22.3944 23.5199 22.0047 23.3833 21.7081 23.1181C21.4116 22.8529 21.2325 22.4807 21.2104 22.0835C21.1882 21.6863 21.3248 21.2965 21.59 21C22.8219 19.6259 23.5033 17.8454 23.5033 16C23.5033 14.1545 22.8219 12.374 21.59 11C21.3248 10.7034 21.1882 10.3137 21.2104 9.91645C21.2325 9.51922 21.4116 9.14707 21.7081 8.88185C22.0047 8.61664 22.3944 8.48008 22.7917 8.50224C23.1889 8.52439 23.561 8.70343 23.8262 8.99998C25.1523 10.4836 26.0299 12.3132 26.357 14.276C26.684 16.2387 26.4471 18.2541 25.6737 20.0875ZM10.41 21C10.6752 21.2965 10.8118 21.6863 10.7896 22.0835C10.7675 22.4807 10.5884 22.8529 10.2919 23.1181C9.99533 23.3833 9.60557 23.5199 9.20835 23.4977C8.81112 23.4756 8.43896 23.2965 8.17375 23C6.45036 21.0757 5.49742 18.5832 5.49742 16C5.49742 13.4167 6.45036 10.9243 8.17375 8.99998C8.43896 8.70343 8.81112 8.52439 9.20835 8.50224C9.60557 8.48008 9.99533 8.61664 10.2919 8.88185C10.5884 9.14707 10.7675 9.51922 10.7896 9.91645C10.8118 10.3137 10.6752 10.7034 10.41 11C9.17805 12.374 8.49674 14.1545 8.49674 16C8.49674 17.8454 9.17805 19.6259 10.41 21ZM31.5 16C31.5048 20.057 29.9141 23.9531 27.0712 26.8475C26.9354 26.9959 26.7711 27.1155 26.588 27.1991C26.405 27.2828 26.207 27.3287 26.0058 27.3342C25.8047 27.3397 25.6045 27.3047 25.4171 27.2313C25.2298 27.1578 25.0591 27.0474 24.9153 26.9066C24.7716 26.7659 24.6576 26.5976 24.5801 26.4119C24.5027 26.2261 24.4635 26.0267 24.4647 25.8255C24.466 25.6242 24.5077 25.4253 24.5874 25.2406C24.6671 25.0558 24.7832 24.889 24.9287 24.75C27.2227 22.4152 28.508 19.2731 28.508 16C28.508 12.7269 27.2227 9.58472 24.9287 7.24998C24.6503 6.96586 24.4961 6.58276 24.5 6.18495C24.504 5.78714 24.6659 5.4072 24.95 5.12873C25.2341 4.85025 25.6172 4.69604 26.015 4.70003C26.4128 4.70401 26.7928 4.86586 27.0712 5.14998C29.9147 8.04492 31.5055 11.9421 31.5 16ZM7.07125 24.75C7.34972 25.0341 7.50393 25.4172 7.49995 25.815C7.49596 26.2128 7.33411 26.5928 7.05 26.8712C6.76588 27.1497 6.38278 27.3039 5.98497 27.2999C5.58716 27.2959 5.20722 27.1341 4.92875 26.85C2.08696 23.9545 0.494904 20.0595 0.494904 16.0025C0.494904 11.9455 2.08696 8.05044 4.92875 5.15498C5.21108 4.89266 5.58353 4.74908 5.96888 4.75399C6.35423 4.75891 6.7229 4.91196 6.99845 5.18139C7.27399 5.45082 7.43526 5.81597 7.44881 6.20111C7.46237 6.58626 7.32717 6.96184 7.07125 7.24998C4.77734 9.58472 3.49202 12.7269 3.49202 16C3.49202 19.2731 4.77734 22.4152 7.07125 24.75Z" fill="black"/>
</svg>
