<svg width="32" height="32" viewBox="0 0 32 32" fill="none" xmlns="http://www.w3.org/2000/svg">
<path d="M27.5 4H9.5C8.83696 4 8.20107 4.26339 7.73223 4.73223C7.26339 5.20107 7 5.83696 7 6.5V9H4.5C3.83696 9 3.20107 9.26339 2.73223 9.73223C2.26339 10.2011 2 10.837 2 11.5V25.5C2 26.163 2.26339 26.7989 2.73223 27.2678C3.20107 27.7366 3.83696 28 4.5 28H22.5C23.163 28 23.7989 27.7366 24.2678 27.2678C24.7366 26.7989 25 26.163 25 25.5V23H27.5C28.163 23 28.7989 22.7366 29.2678 22.2678C29.7366 21.7989 30 21.163 30 20.5V6.5C30 5.83696 29.7366 5.20107 29.2678 4.73223C28.7989 4.26339 28.163 4 27.5 4ZM22 12V14H5V12H22ZM22 25H5V17H22V25ZM27 20H25V11.5C25 10.837 24.7366 10.2011 24.2678 9.73223C23.7989 9.26339 23.163 9 22.5 9H10V7H27V20Z" fill="black"/>
</svg>
