<svg width="32" height="32" viewBox="0 0 32 32" fill="none" xmlns="http://www.w3.org/2000/svg">
<path d="M18.5 11.5C18.5 11.3022 18.5586 11.1089 18.6685 10.9444C18.7784 10.78 18.9346 10.6518 19.1173 10.5761C19.3 10.5004 19.5011 10.4806 19.6951 10.5192C19.8891 10.5578 20.0673 10.653 20.2071 10.7929C20.347 10.9327 20.4422 11.1109 20.4808 11.3049C20.5194 11.4989 20.4996 11.6999 20.4239 11.8827C20.3482 12.0654 20.22 12.2216 20.0556 12.3314C19.8911 12.4413 19.6978 12.5 19.5 12.5C19.2348 12.5 18.9804 12.3946 18.7929 12.2071C18.6054 12.0195 18.5 11.7652 18.5 11.5ZM12.5 10.5C12.3022 10.5 12.1089 10.5586 11.9444 10.6685C11.78 10.7784 11.6518 10.9346 11.5761 11.1173C11.5004 11.3 11.4806 11.5011 11.5192 11.6951C11.5578 11.889 11.653 12.0672 11.7929 12.2071C11.9327 12.3469 12.1109 12.4422 12.3049 12.4808C12.4989 12.5193 12.7 12.4995 12.8827 12.4239C13.0654 12.3482 13.2216 12.22 13.3315 12.0555C13.4414 11.8911 13.5 11.6978 13.5 11.5C13.5 11.2348 13.3946 10.9804 13.2071 10.7929C13.0196 10.6053 12.7652 10.5 12.5 10.5ZM30.5 16C30.5 16.1326 30.4473 16.2598 30.3536 16.3535C30.2598 16.4473 30.1326 16.5 30 16.5H26.5V18C26.5007 19.0685 26.3375 20.1309 26.0163 21.15L29.2 22.5412C29.3056 22.587 29.3921 22.6678 29.4451 22.77C29.498 22.8721 29.5141 22.9894 29.4906 23.1021C29.4671 23.2147 29.4055 23.3158 29.3161 23.3883C29.2267 23.4608 29.1151 23.5002 29 23.5C28.9312 23.4998 28.8632 23.4858 28.8 23.4587L25.675 22.09C24.871 23.99 23.5251 25.6111 21.8054 26.7509C20.0856 27.8906 18.0681 28.4984 16.005 28.4984C13.9418 28.4984 11.9244 27.8906 10.2046 26.7509C8.48486 25.6111 7.13896 23.99 6.335 22.09L3.21 23.4587C3.14369 23.4871 3.07213 23.5012 3 23.5C2.88493 23.5002 2.77329 23.4608 2.68391 23.3883C2.59454 23.3158 2.5329 23.2147 2.5094 23.1021C2.4859 22.9894 2.50198 22.8721 2.55492 22.77C2.60786 22.6678 2.69442 22.587 2.8 22.5412L5.98375 21.15C5.66247 20.1309 5.49933 19.0685 5.5 18V16.5H2C1.86739 16.5 1.74021 16.4473 1.64645 16.3535C1.55268 16.2598 1.5 16.1326 1.5 16C1.5 15.8674 1.55268 15.7402 1.64645 15.6464C1.74021 15.5527 1.86739 15.5 2 15.5H5.5V14C5.49933 12.9314 5.66247 11.8691 5.98375 10.85L2.8 9.45872C2.67833 9.40568 2.58272 9.30648 2.53419 9.18294C2.48567 9.0594 2.48821 8.92164 2.54125 8.79997C2.59429 8.67831 2.6935 8.58269 2.81704 8.53417C2.94058 8.48564 3.07833 8.48818 3.2 8.54122L6.325 9.91622C7.12896 8.01616 8.47486 6.39505 10.1946 5.25534C11.9144 4.11562 13.9319 3.50781 15.995 3.50781C18.0581 3.50781 20.0756 4.11562 21.7954 5.25534C23.5151 6.39505 24.861 8.01616 25.665 9.91622L28.79 8.54122C28.8502 8.51496 28.9151 8.50082 28.9808 8.49961C29.0465 8.4984 29.1118 8.51014 29.173 8.53417C29.2341 8.55819 29.29 8.59403 29.3373 8.63964C29.3846 8.68525 29.4225 8.73973 29.4487 8.79997C29.475 8.86022 29.4892 8.92504 29.4904 8.99075C29.4916 9.05646 29.4798 9.12177 29.4558 9.18294C29.4318 9.24411 29.3959 9.29995 29.3503 9.34727C29.3047 9.39459 29.2502 9.43246 29.19 9.45872L26.0163 10.85C26.3375 11.8691 26.5007 12.9314 26.5 14V15.5H30C30.1326 15.5 30.2598 15.5527 30.3536 15.6464C30.4473 15.7402 30.5 15.8674 30.5 16ZM6.5 15.5H25.5V14C25.5 11.4804 24.4991 9.06405 22.7175 7.28246C20.9359 5.50086 18.5196 4.49997 16 4.49997C13.4804 4.49997 11.0641 5.50086 9.28249 7.28246C7.50089 9.06405 6.5 11.4804 6.5 14V15.5ZM15.5 27.4862V16.5H6.5V18C6.50288 20.4321 7.43732 22.7707 9.11126 24.535C10.7852 26.2994 13.0714 27.3555 15.5 27.4862ZM25.5 16.5H16.5V27.4862C18.9286 27.3555 21.2148 26.2994 22.8887 24.535C24.5627 22.7707 25.4971 20.4321 25.5 18V16.5Z" fill="black"/>
</svg>
