<svg width="32" height="32" viewBox="0 0 32 32" fill="none" xmlns="http://www.w3.org/2000/svg">
<path d="M28 19C28.3978 19 28.7794 18.842 29.0607 18.5607C29.342 18.2794 29.5 17.8978 29.5 17.5C29.5 17.1022 29.342 16.7207 29.0607 16.4393C28.7794 16.158 28.3978 16 28 16H26.5V14H28C28.3978 14 28.7794 13.842 29.0607 13.5607C29.342 13.2794 29.5 12.8978 29.5 12.5C29.5 12.1022 29.342 11.7207 29.0607 11.4393C28.7794 11.158 28.3978 11 28 11H26.3062C25.9585 9.21053 25.1493 7.54296 23.9587 6.16251L26.0613 4.06126C26.343 3.77946 26.5014 3.39727 26.5014 2.99876C26.5014 2.60024 26.343 2.21805 26.0613 1.93626C25.7795 1.65446 25.3973 1.49615 24.9988 1.49615C24.6002 1.49615 24.218 1.65446 23.9363 1.93626L21.6863 4.18626C19.9909 3.08652 18.0133 2.50129 15.9925 2.50129C13.9717 2.50129 11.9941 3.08652 10.2987 4.18626L8.04875 1.93626C7.90922 1.79673 7.74357 1.68605 7.56127 1.61053C7.37897 1.53502 7.18357 1.49615 6.98625 1.49615C6.58774 1.49615 6.20554 1.65446 5.92375 1.93626C5.64196 2.21805 5.48365 2.60024 5.48365 2.99876C5.48365 3.39727 5.64196 3.77946 5.92375 4.06126L8.04125 6.16251C6.85068 7.54296 6.04146 9.21053 5.69375 11H4C3.60218 11 3.22064 11.158 2.93934 11.4393C2.65804 11.7207 2.5 12.1022 2.5 12.5C2.5 12.8978 2.65804 13.2794 2.93934 13.5607C3.22064 13.842 3.60218 14 4 14H5.5V16H4C3.60218 16 3.22064 16.158 2.93934 16.4393C2.65804 16.7207 2.5 17.1022 2.5 17.5C2.5 17.8978 2.65804 18.2794 2.93934 18.5607C3.22064 18.842 3.60218 19 4 19H5.5C5.50015 19.6714 5.56503 20.3411 5.69375 21H4C3.60218 21 3.22064 21.158 2.93934 21.4393C2.65804 21.7207 2.5 22.1022 2.5 22.5C2.5 22.8978 2.65804 23.2794 2.93934 23.5607C3.22064 23.842 3.60218 24 4 24H6.76875C7.66987 25.6626 9.00327 27.0509 10.6281 28.0184C12.253 28.9859 14.1089 29.4966 16 29.4966C17.8911 29.4966 19.747 28.9859 21.3719 28.0184C22.9967 27.0509 24.3301 25.6626 25.2313 24H28C28.3978 24 28.7794 23.842 29.0607 23.5607C29.342 23.2794 29.5 22.8978 29.5 22.5C29.5 22.1022 29.342 21.7207 29.0607 21.4393C28.7794 21.158 28.3978 21 28 21H26.3062C26.435 20.3411 26.4998 19.6714 26.5 19H28ZM16 5.50001C17.6399 5.50228 19.234 6.04108 20.539 7.03416C21.844 8.02724 22.7882 9.42006 23.2275 11H8.7725C9.2118 9.42006 10.156 8.02724 11.461 7.03416C12.766 6.04108 14.3601 5.50228 16 5.50001ZM17.5 26.3488V17.5C17.5 17.1022 17.342 16.7207 17.0607 16.4393C16.7794 16.158 16.3978 16 16 16C15.6022 16 15.2206 16.158 14.9393 16.4393C14.658 16.7207 14.5 17.1022 14.5 17.5V26.3488C12.8071 26.001 11.286 25.0802 10.193 23.7415C9.09998 22.4028 8.50205 20.7282 8.5 19V14H23.5V19C23.498 20.7282 22.9 22.4028 21.807 23.7415C20.714 25.0802 19.1929 26.001 17.5 26.3488Z" fill="black"/>
</svg>
