<svg width="32" height="32" viewBox="0 0 32 32" fill="none" xmlns="http://www.w3.org/2000/svg">
<path d="M25.5 17.5H28C28.1326 17.5 28.2598 17.4473 28.3536 17.3535C28.4473 17.2598 28.5 17.1326 28.5 17C28.5 16.8674 28.4473 16.7402 28.3536 16.6464C28.2598 16.5527 28.1326 16.5 28 16.5H25.5V13.5H28C28.1326 13.5 28.2598 13.4473 28.3536 13.3535C28.4473 13.2598 28.5 13.1326 28.5 13C28.5 12.8674 28.4473 12.7402 28.3536 12.6464C28.2598 12.5527 28.1326 12.5 28 12.5H25.4862C25.3592 10.0857 24.3142 7.81135 22.565 6.14247L25.3538 3.35372C25.4002 3.30727 25.4371 3.25212 25.4622 3.19142C25.4873 3.13072 25.5003 3.06567 25.5003 2.99997C25.5003 2.93428 25.4873 2.86922 25.4622 2.80852C25.4371 2.74783 25.4002 2.69268 25.3538 2.64622C25.3073 2.59977 25.2521 2.56292 25.1914 2.53778C25.1308 2.51263 25.0657 2.49969 25 2.49969C24.9343 2.49969 24.8692 2.51263 24.8086 2.53778C24.7479 2.56292 24.6927 2.59977 24.6462 2.64622L21.805 5.48747C20.1441 4.19918 18.1019 3.49998 16 3.49998C13.8981 3.49998 11.8559 4.19918 10.195 5.48747L7.35375 2.64622C7.25993 2.5524 7.13268 2.49969 7 2.49969C6.86732 2.49969 6.74007 2.5524 6.64625 2.64622C6.55243 2.74004 6.49972 2.86729 6.49972 2.99997C6.49972 3.13265 6.55243 3.2599 6.64625 3.35372L9.435 6.14247C7.68584 7.81135 6.64077 10.0857 6.51375 12.5H4C3.86739 12.5 3.74021 12.5527 3.64645 12.6464C3.55268 12.7402 3.5 12.8674 3.5 13C3.5 13.1326 3.55268 13.2598 3.64645 13.3535C3.74021 13.4473 3.86739 13.5 4 13.5H6.5V16.5H4C3.86739 16.5 3.74021 16.5527 3.64645 16.6464C3.55268 16.7402 3.5 16.8674 3.5 17C3.5 17.1326 3.55268 17.2598 3.64645 17.3535C3.74021 17.4473 3.86739 17.5 4 17.5H6.5V19C6.50162 19.5025 6.54342 20.0041 6.625 20.5H4C3.86739 20.5 3.74021 20.5527 3.64645 20.6464C3.55268 20.7402 3.5 20.8674 3.5 21C3.5 21.1326 3.55268 21.2598 3.64645 21.3535C3.74021 21.4473 3.86739 21.5 4 21.5H6.83625C7.38555 23.5093 8.58004 25.2824 10.2358 26.5463C11.8916 27.8102 13.9169 28.4948 16 28.4948C18.0831 28.4948 20.1084 27.8102 21.7642 26.5463C23.42 25.2824 24.6145 23.5093 25.1637 21.5H28C28.1326 21.5 28.2598 21.4473 28.3536 21.3535C28.4473 21.2598 28.5 21.1326 28.5 21C28.5 20.8674 28.4473 20.7402 28.3536 20.6464C28.2598 20.5527 28.1326 20.5 28 20.5H25.375C25.4566 20.0041 25.4984 19.5025 25.5 19V17.5ZM16 4.49997C18.1668 4.50276 20.251 5.33199 21.8274 6.81856C23.4039 8.30512 24.3539 10.3371 24.4837 12.5H7.51625C7.6461 10.3371 8.59613 8.30512 10.1726 6.81856C11.749 5.33199 13.8332 4.50276 16 4.49997ZM16.5 27.4837V17C16.5 16.8674 16.4473 16.7402 16.3536 16.6464C16.2598 16.5527 16.1326 16.5 16 16.5C15.8674 16.5 15.7402 16.5527 15.6464 16.6464C15.5527 16.7402 15.5 16.8674 15.5 17V27.4837C13.3371 27.3539 11.3051 26.4038 9.81858 24.8274C8.33202 23.2509 7.50279 21.1668 7.5 19V13.5H24.5V19C24.4972 21.1668 23.668 23.2509 22.1814 24.8274C20.6949 26.4038 18.6629 27.3539 16.5 27.4837Z" fill="black"/>
</svg>
