<svg width="32" height="32" viewBox="0 0 32 32" fill="none" xmlns="http://www.w3.org/2000/svg">
<path d="M23 3.5H9C7.80653 3.5 6.66193 3.97411 5.81802 4.81802C4.97411 5.66193 4.5 6.80653 4.5 8V26C4.5 26.663 4.76339 27.2989 5.23223 27.7678C5.70107 28.2366 6.33696 28.5 7 28.5H10.5C11.163 28.5 11.7989 28.2366 12.2678 27.7678C12.7366 27.2989 13 26.663 13 26V24H19V26C19 26.663 19.2634 27.2989 19.7322 27.7678C20.2011 28.2366 20.837 28.5 21.5 28.5H25C25.663 28.5 26.2989 28.2366 26.7678 27.7678C27.2366 27.2989 27.5 26.663 27.5 26V8C27.5 6.80653 27.0259 5.66193 26.182 4.81802C25.3381 3.97411 24.1935 3.5 23 3.5ZM7.5 21V14H24.5V21H7.5ZM9 6.5H23C23.3978 6.5 23.7794 6.65804 24.0607 6.93934C24.342 7.22064 24.5 7.60218 24.5 8V11H7.5V8C7.5 7.60218 7.65804 7.22064 7.93934 6.93934C8.22064 6.65804 8.60218 6.5 9 6.5ZM10 25.5H7.5V24H10V25.5ZM22 25.5V24H24.5V25.5H22ZM13.5 17.5C13.5 17.8956 13.3827 18.2822 13.1629 18.6111C12.9432 18.94 12.6308 19.1964 12.2654 19.3478C11.8999 19.4991 11.4978 19.5387 11.1098 19.4616C10.7219 19.3844 10.3655 19.1939 10.0858 18.9142C9.80608 18.6345 9.6156 18.2781 9.53843 17.8902C9.46126 17.5022 9.50087 17.1001 9.65224 16.7346C9.80362 16.3692 10.06 16.0568 10.3889 15.8371C10.7178 15.6173 11.1044 15.5 11.5 15.5C12.0304 15.5 12.5391 15.7107 12.9142 16.0858C13.2893 16.4609 13.5 16.9696 13.5 17.5ZM22.5 17.5C22.5 17.8956 22.3827 18.2822 22.1629 18.6111C21.9432 18.94 21.6308 19.1964 21.2654 19.3478C20.8999 19.4991 20.4978 19.5387 20.1098 19.4616C19.7219 19.3844 19.3655 19.1939 19.0858 18.9142C18.8061 18.6345 18.6156 18.2781 18.5384 17.8902C18.4613 17.5022 18.5009 17.1001 18.6522 16.7346C18.8036 16.3692 19.06 16.0568 19.3889 15.8371C19.7178 15.6173 20.1044 15.5 20.5 15.5C21.0304 15.5 21.5391 15.7107 21.9142 16.0858C22.2893 16.4609 22.5 16.9696 22.5 17.5ZM32 10V13C32 13.3978 31.842 13.7794 31.5607 14.0607C31.2794 14.342 30.8978 14.5 30.5 14.5C30.1022 14.5 29.7206 14.342 29.4393 14.0607C29.158 13.7794 29 13.3978 29 13V10C29 9.60218 29.158 9.22064 29.4393 8.93934C29.7206 8.65804 30.1022 8.5 30.5 8.5C30.8978 8.5 31.2794 8.65804 31.5607 8.93934C31.842 9.22064 32 9.60218 32 10ZM3 10V13C3 13.3978 2.84196 13.7794 2.56066 14.0607C2.27936 14.342 1.89782 14.5 1.5 14.5C1.10218 14.5 0.720644 14.342 0.43934 14.0607C0.158035 13.7794 0 13.3978 0 13L0 10C0 9.60218 0.158035 9.22064 0.43934 8.93934C0.720644 8.65804 1.10218 8.5 1.5 8.5C1.89782 8.5 2.27936 8.65804 2.56066 8.93934C2.84196 9.22064 3 9.60218 3 10Z" fill="black"/>
</svg>
