<svg width="32" height="32" viewBox="0 0 32 32" fill="none" xmlns="http://www.w3.org/2000/svg">
<path d="M28.6876 6.6175C28.1113 5.875 27.2501 5.5 26.1163 5.5C22.8838 5.5 18.4563 9.09125 16.5001 12.66V7C16.5001 6.86739 16.4474 6.74021 16.3536 6.64645C16.2598 6.55268 16.1327 6.5 16.0001 6.5C15.8675 6.5 15.7403 6.55268 15.6465 6.64645C15.5527 6.74021 15.5001 6.86739 15.5001 7V12.66C13.5438 9.09125 9.11631 5.5 5.88381 5.5C4.75881 5.5 3.88381 5.875 3.31256 6.6175C1.92506 8.4 2.56256 11.8988 3.37506 15.0863C3.83381 16.8888 4.69381 18.1663 5.93506 18.8838C6.42744 19.1659 6.96779 19.3545 7.52881 19.44C7.11257 19.9955 6.81657 20.6316 6.65964 21.3078C6.50271 21.984 6.48829 22.6854 6.61731 23.3675C6.74633 24.0495 7.01595 24.6973 7.40902 25.2694C7.80208 25.8416 8.30998 26.3256 8.90036 26.6907C9.49074 27.0558 10.1507 27.294 10.8382 27.39C11.5256 27.4861 12.2256 27.438 12.8934 27.2487C13.5613 27.0595 14.1824 26.7332 14.7173 26.2908C15.2521 25.8483 15.689 25.2993 16.0001 24.6787C16.3107 25.2998 16.7474 25.8494 17.2822 26.2924C17.817 26.7354 18.4382 27.0622 19.1063 27.2519C19.7744 27.4415 20.4746 27.4899 21.1624 27.394C21.8502 27.2981 22.5105 27.0599 23.1012 26.6947C23.6919 26.3295 24.2 25.8453 24.5932 25.2729C24.9864 24.7004 25.256 24.0524 25.3849 23.37C25.5138 22.6876 25.4992 21.9858 25.3419 21.3094C25.1846 20.633 24.8881 19.9967 24.4713 19.4412C25.0324 19.3553 25.5727 19.1663 26.0651 18.8838C27.3063 18.1663 28.1663 16.8837 28.6251 15.0863C29.4338 11.8988 30.0751 8.4 28.6876 6.6175ZM11.5001 26.5C10.4813 26.4891 9.50481 26.0913 8.76843 25.3872C8.03204 24.6831 7.59086 23.7255 7.53428 22.7082C7.47769 21.691 7.80994 20.6903 8.46369 19.9089C9.11744 19.1275 10.0438 18.6238 11.0551 18.5C11.1207 18.4928 11.1843 18.4727 11.2422 18.4409C11.3001 18.4091 11.3512 18.3662 11.3925 18.3147C11.4338 18.2631 11.4646 18.204 11.483 18.1405C11.5015 18.0771 11.5073 18.0107 11.5001 17.945C11.4928 17.8793 11.4728 17.8157 11.441 17.7578C11.4092 17.6999 11.3663 17.6489 11.3147 17.6076C11.2632 17.5662 11.204 17.5355 11.1406 17.517C11.0772 17.4986 11.0107 17.4928 10.9451 17.5C10.045 17.6011 9.18984 17.947 8.47256 18.5C5.62256 18.655 4.63756 16 4.34756 14.845C3.64131 12.065 2.97256 8.6875 4.10381 7.23625C4.48381 6.73875 5.06756 6.5 5.88381 6.5C9.56881 6.5 15.5001 12.335 15.5001 15.9587V22.5C15.5001 23.5609 15.0786 24.5783 14.3285 25.3284C13.5783 26.0786 12.5609 26.5 11.5001 26.5ZM27.6551 14.84C27.3626 15.9925 26.3776 18.6488 23.5301 18.495C22.8114 17.9436 21.9554 17.5994 21.0551 17.5C20.9225 17.4854 20.7895 17.5241 20.6854 17.6076C20.5813 17.691 20.5146 17.8124 20.5001 17.945C20.4855 18.0776 20.5242 18.2106 20.6076 18.3147C20.6911 18.4187 20.8125 18.4854 20.9451 18.5C21.7152 18.5835 22.4448 18.8882 23.0456 19.3772C23.6464 19.8663 24.0928 20.5188 24.3309 21.256C24.5689 21.9932 24.5885 22.7836 24.3872 23.5316C24.186 24.2797 23.7724 24.9536 23.1966 25.4718C22.6207 25.99 21.9072 26.3304 21.1421 26.4519C20.377 26.5735 19.5931 26.4709 18.885 26.1567C18.1769 25.8425 17.5749 25.33 17.1517 24.6811C16.7285 24.0322 16.5022 23.2747 16.5001 22.5V15.9587C16.5001 12.3337 22.4313 6.5 26.1163 6.5C26.9326 6.5 27.5163 6.73875 27.8988 7.23125C29.0276 8.6825 28.3613 12.06 27.6551 14.84Z" fill="black"/>
</svg>
