<svg width="32" height="32" viewBox="0 0 32 32" fill="none" xmlns="http://www.w3.org/2000/svg">
<path d="M27 25.5H21.5V23.5C23.8861 23.4974 26.1738 22.5483 27.861 20.861C29.5483 19.1738 30.4974 16.8861 30.5 14.5C30.5 13.4391 30.0786 12.4217 29.3284 11.6716C28.5783 10.9214 27.5609 10.5 26.5 10.5C25.4391 10.5 24.4217 10.9214 23.6716 11.6716C22.9214 12.4217 22.5 13.4391 22.5 14.5C22.5 14.7652 22.3946 15.0196 22.2071 15.2071C22.0196 15.3946 21.7652 15.5 21.5 15.5V7C21.5 5.54131 20.9205 4.14236 19.8891 3.11091C18.8576 2.07946 17.4587 1.5 16 1.5C14.5413 1.5 13.1424 2.07946 12.1109 3.11091C11.0795 4.14236 10.5 5.54131 10.5 7V10.5C10.2348 10.5 9.98043 10.3946 9.79289 10.2071C9.60536 10.0196 9.5 9.76522 9.5 9.5C9.5 8.43913 9.07857 7.42172 8.32843 6.67157C7.57828 5.92143 6.56087 5.5 5.5 5.5C4.43913 5.5 3.42172 5.92143 2.67157 6.67157C1.92143 7.42172 1.5 8.43913 1.5 9.5C1.50265 11.8861 2.45171 14.1738 4.13896 15.861C5.82622 17.5483 8.11386 18.4974 10.5 18.5V25.5H5C4.60218 25.5 4.22064 25.658 3.93934 25.9393C3.65804 26.2206 3.5 26.6022 3.5 27C3.5 27.3978 3.65804 27.7794 3.93934 28.0607C4.22064 28.342 4.60218 28.5 5 28.5H27C27.3978 28.5 27.7794 28.342 28.0607 28.0607C28.342 27.7794 28.5 27.3978 28.5 27C28.5 26.6022 28.342 26.2206 28.0607 25.9393C27.7794 25.658 27.3978 25.5 27 25.5ZM12 15.5H10.5C8.90921 15.4983 7.38405 14.8657 6.25919 13.7408C5.13433 12.616 4.50165 11.0908 4.5 9.5C4.5 9.23478 4.60536 8.98043 4.79289 8.79289C4.98043 8.60536 5.23478 8.5 5.5 8.5C5.76522 8.5 6.01957 8.60536 6.20711 8.79289C6.39464 8.98043 6.5 9.23478 6.5 9.5C6.5 10.5609 6.92143 11.5783 7.67157 12.3284C8.42172 13.0786 9.43913 13.5 10.5 13.5H12C12.3978 13.5 12.7794 13.342 13.0607 13.0607C13.342 12.7794 13.5 12.3978 13.5 12V7C13.5 6.33696 13.7634 5.70107 14.2322 5.23223C14.7011 4.76339 15.337 4.5 16 4.5C16.663 4.5 17.2989 4.76339 17.7678 5.23223C18.2366 5.70107 18.5 6.33696 18.5 7V17C18.5 17.3978 18.658 17.7794 18.9393 18.0607C19.2206 18.342 19.6022 18.5 20 18.5H21.5C22.5609 18.5 23.5783 18.0786 24.3284 17.3284C25.0786 16.5783 25.5 15.5609 25.5 14.5C25.5 14.2348 25.6054 13.9804 25.7929 13.7929C25.9804 13.6054 26.2348 13.5 26.5 13.5C26.7652 13.5 27.0196 13.6054 27.2071 13.7929C27.3946 13.9804 27.5 14.2348 27.5 14.5C27.4983 16.0908 26.8657 17.616 25.7408 18.7408C24.616 19.8657 23.0908 20.4983 21.5 20.5H20C19.6022 20.5 19.2206 20.658 18.9393 20.9393C18.658 21.2206 18.5 21.6022 18.5 22V25.5H13.5V17C13.5 16.6022 13.342 16.2206 13.0607 15.9393C12.7794 15.658 12.3978 15.5 12 15.5Z" fill="black"/>
</svg>
