<svg width="32" height="32" viewBox="0 0 32 32" fill="none" xmlns="http://www.w3.org/2000/svg">
<path d="M29.5 13.9999C29.5 13.5403 29.4095 13.0852 29.2336 12.6606C29.0577 12.2359 28.7999 11.8501 28.4749 11.5251C28.1499 11.2001 27.764 10.9423 27.3394 10.7664C26.9148 10.5905 26.4596 10.4999 26 10.4999H17.5V10.2424C18.3766 9.93116 19.1355 9.35635 19.6726 8.59681C20.2097 7.83727 20.4987 6.93019 20.5 5.99995C20.5 2.11745 16.8275 0.236196 16.6712 0.158696C16.4629 0.0544153 16.233 0.00012207 16 0.00012207C15.767 0.00012207 15.5371 0.0544153 15.3287 0.158696C15.1725 0.236196 11.5 2.11745 11.5 5.99995C11.5013 6.93019 11.7903 7.83727 12.3274 8.59681C12.8645 9.35635 13.6234 9.93116 14.5 10.2424V10.4999H6C5.07174 10.4999 4.1815 10.8687 3.52513 11.5251C2.86875 12.1814 2.5 13.0717 2.5 13.9999V16.9162C2.50073 18.0554 2.84965 19.1671 3.5 20.1024V24.9999C3.5 25.9282 3.86875 26.8184 4.52513 27.4748C5.1815 28.1312 6.07174 28.4999 7 28.4999H25C25.9283 28.4999 26.8185 28.1312 27.4749 27.4748C28.1313 26.8184 28.5 25.9282 28.5 24.9999V20.1024C29.1503 19.1671 29.4993 18.0554 29.5 16.9162V13.9999ZM15.5 3.7412C15.6571 3.58207 15.8241 3.43302 16 3.29495C16.1762 3.4327 16.3432 3.58176 16.5 3.7412C17.1663 4.4312 17.5 5.1912 17.5 5.99995C17.5 6.39777 17.342 6.7793 17.0607 7.06061C16.7794 7.34191 16.3978 7.49995 16 7.49995C15.6022 7.49995 15.2206 7.34191 14.9393 7.06061C14.658 6.7793 14.5 6.39777 14.5 5.99995C14.5 5.1912 14.8387 4.4312 15.5 3.7412ZM5.5 13.9999C5.5 13.8673 5.55268 13.7402 5.64645 13.6464C5.74021 13.5526 5.86739 13.4999 6 13.4999H26C26.1326 13.4999 26.2598 13.5526 26.3536 13.6464C26.4473 13.7402 26.5 13.8673 26.5 13.9999V16.9162C26.5 18.3037 25.41 19.4624 24.0713 19.4987C23.7371 19.5082 23.4044 19.4506 23.0929 19.3294C22.7814 19.2081 22.4974 19.0255 22.2577 18.7926C22.018 18.5596 21.8274 18.2809 21.6972 17.973C21.5671 17.6651 21.5 17.3342 21.5 16.9999C21.5 16.6021 21.342 16.2206 21.0607 15.9393C20.7794 15.658 20.3978 15.4999 20 15.4999C19.6022 15.4999 19.2206 15.658 18.9393 15.9393C18.658 16.2206 18.5 16.6021 18.5 16.9999C18.5 17.663 18.2366 18.2989 17.7678 18.7677C17.2989 19.2366 16.663 19.4999 16 19.4999C15.337 19.4999 14.7011 19.2366 14.2322 18.7677C13.7634 18.2989 13.5 17.663 13.5 16.9999C13.5 16.6021 13.342 16.2206 13.0607 15.9393C12.7794 15.658 12.3978 15.4999 12 15.4999C11.6022 15.4999 11.2206 15.658 10.9393 15.9393C10.658 16.2206 10.5 16.6021 10.5 16.9999C10.5001 17.3343 10.4332 17.6653 10.3031 17.9734C10.1731 18.2815 9.9825 18.5603 9.74276 18.7934C9.50301 19.0265 9.21894 19.2091 8.90735 19.3305C8.59577 19.4519 8.263 19.5095 7.92875 19.4999C6.59 19.4624 5.5 18.3037 5.5 16.9162V13.9999ZM25 25.4999H7C6.86739 25.4999 6.74021 25.4473 6.64645 25.3535C6.55268 25.2597 6.5 25.1326 6.5 24.9999V22.2862C6.93776 22.4148 7.3902 22.4866 7.84625 22.4999C8.58158 22.5228 9.31395 22.3969 9.99939 22.1297C10.6848 21.8625 11.3092 21.4595 11.835 20.9449C11.8925 20.8899 11.9475 20.8324 12.0013 20.7762C12.5154 21.321 13.1354 21.755 13.8232 22.0516C14.511 22.3483 15.2522 22.5013 16.0012 22.5013C16.7503 22.5013 17.4915 22.3483 18.1793 22.0516C18.8671 21.755 19.4871 21.321 20.0012 20.7762C20.055 20.8324 20.11 20.8899 20.1675 20.9449C21.1915 21.946 22.568 22.5045 24 22.4999H24.1562C24.6115 22.4864 25.0631 22.4145 25.5 22.2862V24.9999C25.5 25.1326 25.4473 25.2597 25.3536 25.3535C25.2598 25.4473 25.1326 25.4999 25 25.4999Z" fill="black"/>
</svg>
