<svg width="32" height="32" viewBox="0 0 32 32" fill="none" xmlns="http://www.w3.org/2000/svg">
<path d="M25 2.5H7C6.33696 2.5 5.70107 2.76339 5.23223 3.23223C4.76339 3.70107 4.5 4.33696 4.5 5V27C4.5 27.663 4.76339 28.2989 5.23223 28.7678C5.70107 29.2366 6.33696 29.5 7 29.5H25C25.663 29.5 26.2989 29.2366 26.7678 28.7678C27.2366 28.2989 27.5 27.663 27.5 27V5C27.5 4.33696 27.2366 3.70107 26.7678 3.23223C26.2989 2.76339 25.663 2.5 25 2.5ZM24.5 26.5H7.5V5.5H24.5V26.5ZM10 9.5C10 9.10218 10.158 8.72064 10.4393 8.43934C10.7206 8.15804 11.1022 8 11.5 8H20.5C20.8978 8 21.2794 8.15804 21.5607 8.43934C21.842 8.72064 22 9.10218 22 9.5C22 9.89782 21.842 10.2794 21.5607 10.5607C21.2794 10.842 20.8978 11 20.5 11H11.5C11.1022 11 10.7206 10.842 10.4393 10.5607C10.158 10.2794 10 9.89782 10 9.5ZM15 16C15 16.3956 14.8827 16.7822 14.6629 17.1111C14.4432 17.44 14.1308 17.6964 13.7654 17.8478C13.3999 17.9991 12.9978 18.0387 12.6098 17.9616C12.2219 17.8844 11.8655 17.6939 11.5858 17.4142C11.3061 17.1345 11.1156 16.7781 11.0384 16.3902C10.9613 16.0022 11.0009 15.6001 11.1522 15.2346C11.3036 14.8692 11.56 14.5568 11.8889 14.3371C12.2178 14.1173 12.6044 14 13 14C13.5304 14 14.0391 14.2107 14.4142 14.5858C14.7893 14.9609 15 15.4696 15 16ZM21 16C21 16.3956 20.8827 16.7822 20.6629 17.1111C20.4432 17.44 20.1308 17.6964 19.7654 17.8478C19.3999 17.9991 18.9978 18.0387 18.6098 17.9616C18.2219 17.8844 17.8655 17.6939 17.5858 17.4142C17.3061 17.1345 17.1156 16.7781 17.0384 16.3902C16.9613 16.0022 17.0009 15.6001 17.1522 15.2346C17.3036 14.8692 17.56 14.5568 17.8889 14.3371C18.2178 14.1173 18.6044 14 19 14C19.5304 14 20.0391 14.2107 20.4142 14.5858C20.7893 14.9609 21 15.4696 21 16ZM15 22C15 22.3956 14.8827 22.7822 14.6629 23.1111C14.4432 23.44 14.1308 23.6964 13.7654 23.8478C13.3999 23.9991 12.9978 24.0387 12.6098 23.9616C12.2219 23.8844 11.8655 23.6939 11.5858 23.4142C11.3061 23.1345 11.1156 22.7781 11.0384 22.3902C10.9613 22.0022 11.0009 21.6001 11.1522 21.2346C11.3036 20.8692 11.56 20.5568 11.8889 20.3371C12.2178 20.1173 12.6044 20 13 20C13.5304 20 14.0391 20.2107 14.4142 20.5858C14.7893 20.9609 15 21.4696 15 22ZM21 22C21 22.3956 20.8827 22.7822 20.6629 23.1111C20.4432 23.44 20.1308 23.6964 19.7654 23.8478C19.3999 23.9991 18.9978 24.0387 18.6098 23.9616C18.2219 23.8844 17.8655 23.6939 17.5858 23.4142C17.3061 23.1345 17.1156 22.7781 17.0384 22.3902C16.9613 22.0022 17.0009 21.6001 17.1522 21.2346C17.3036 20.8692 17.56 20.5568 17.8889 20.3371C18.2178 20.1173 18.6044 20 19 20C19.5304 20 20.0391 20.2107 20.4142 20.5858C20.7893 20.9609 21 21.4696 21 22Z" fill="black"/>
</svg>
