<svg width="32" height="32" viewBox="0 0 32 32" fill="none" xmlns="http://www.w3.org/2000/svg">
<path d="M20.0613 17.0613L18.125 19L20.065 20.9387C20.3468 21.2205 20.5051 21.6027 20.5051 22.0012C20.5051 22.3998 20.3468 22.782 20.065 23.0637C19.7832 23.3455 19.401 23.5039 19.0025 23.5039C18.604 23.5039 18.2218 23.3455 17.94 23.0637L16 21.125L14.0612 23.065C13.7795 23.3468 13.3973 23.5051 12.9987 23.5051C12.6002 23.5051 12.218 23.3468 11.9362 23.065C11.6545 22.7832 11.4961 22.401 11.4961 22.0025C11.4961 21.604 11.6545 21.2218 11.9362 20.94L13.875 19L11.9388 17.0613C11.7992 16.9217 11.6885 16.7561 11.613 16.5738C11.5375 16.3915 11.4986 16.1961 11.4986 15.9987C11.4986 15.8014 11.5375 15.606 11.613 15.4237C11.6885 15.2414 11.7992 15.0758 11.9388 14.9362C12.0783 14.7967 12.2439 14.686 12.4262 14.6105C12.6085 14.535 12.8039 14.4961 13.0013 14.4961C13.1986 14.4961 13.394 14.535 13.5763 14.6105C13.7586 14.686 13.9242 14.7967 14.0638 14.9362L16 16.875L17.9387 14.935C18.0783 14.7955 18.2439 14.6848 18.4262 14.6093C18.6085 14.5338 18.8039 14.4949 19.0012 14.4949C19.1986 14.4949 19.394 14.5338 19.5763 14.6093C19.7586 14.6848 19.9242 14.7955 20.0637 14.935C20.2033 15.0745 20.314 15.2402 20.3895 15.4225C20.465 15.6048 20.5039 15.8002 20.5039 15.9975C20.5039 16.1948 20.465 16.3902 20.3895 16.5725C20.314 16.7548 20.2033 16.9205 20.0637 17.06L20.0613 17.0613ZM28.5 6V26C28.5 26.663 28.2366 27.2989 27.7678 27.7678C27.2989 28.2366 26.663 28.5 26 28.5H6C5.33696 28.5 4.70107 28.2366 4.23223 27.7678C3.76339 27.2989 3.5 26.663 3.5 26V6C3.5 5.33696 3.76339 4.70107 4.23223 4.23223C4.70107 3.76339 5.33696 3.5 6 3.5H8.5V3C8.5 2.60218 8.65804 2.22064 8.93934 1.93934C9.22064 1.65804 9.60218 1.5 10 1.5C10.3978 1.5 10.7794 1.65804 11.0607 1.93934C11.342 2.22064 11.5 2.60218 11.5 3V3.5H20.5V3C20.5 2.60218 20.658 2.22064 20.9393 1.93934C21.2206 1.65804 21.6022 1.5 22 1.5C22.3978 1.5 22.7794 1.65804 23.0607 1.93934C23.342 2.22064 23.5 2.60218 23.5 3V3.5H26C26.663 3.5 27.2989 3.76339 27.7678 4.23223C28.2366 4.70107 28.5 5.33696 28.5 6ZM6.5 6.5V9.5H25.5V6.5H23.5C23.5 6.89782 23.342 7.27936 23.0607 7.56066C22.7794 7.84196 22.3978 8 22 8C21.6022 8 21.2206 7.84196 20.9393 7.56066C20.658 7.27936 20.5 6.89782 20.5 6.5H11.5C11.5 6.89782 11.342 7.27936 11.0607 7.56066C10.7794 7.84196 10.3978 8 10 8C9.60218 8 9.22064 7.84196 8.93934 7.56066C8.65804 7.27936 8.5 6.89782 8.5 6.5H6.5ZM25.5 25.5V12.5H6.5V25.5H25.5Z" fill="black"/>
</svg>
