<svg width="32" height="32" viewBox="0 0 32 32" fill="none" xmlns="http://www.w3.org/2000/svg">
<path d="M26 3.5H23.5V3C23.5 2.60218 23.342 2.22064 23.0607 1.93934C22.7794 1.65804 22.3978 1.5 22 1.5C21.6022 1.5 21.2206 1.65804 20.9393 1.93934C20.658 2.22064 20.5 2.60218 20.5 3V3.5H11.5V3C11.5 2.60218 11.342 2.22064 11.0607 1.93934C10.7794 1.65804 10.3978 1.5 10 1.5C9.60218 1.5 9.22064 1.65804 8.93934 1.93934C8.65804 2.22064 8.5 2.60218 8.5 3V3.5H6C5.33696 3.5 4.70107 3.76339 4.23223 4.23223C3.76339 4.70107 3.5 5.33696 3.5 6V26C3.5 26.663 3.76339 27.2989 4.23223 27.7678C4.70107 28.2366 5.33696 28.5 6 28.5H26C26.663 28.5 27.2989 28.2366 27.7678 27.7678C28.2366 27.2989 28.5 26.663 28.5 26V6C28.5 5.33696 28.2366 4.70107 27.7678 4.23223C27.2989 3.76339 26.663 3.5 26 3.5ZM8.5 6.5C8.5 6.89782 8.65804 7.27936 8.93934 7.56066C9.22064 7.84196 9.60218 8 10 8C10.3978 8 10.7794 7.84196 11.0607 7.56066C11.342 7.27936 11.5 6.89782 11.5 6.5H20.5C20.5 6.89782 20.658 7.27936 20.9393 7.56066C21.2206 7.84196 21.6022 8 22 8C22.3978 8 22.7794 7.84196 23.0607 7.56066C23.342 7.27936 23.5 6.89782 23.5 6.5H25.5V9.5H6.5V6.5H8.5ZM6.5 25.5V12.5H25.5V25.5H6.5ZM21.5613 14.9388C21.7011 15.0781 21.812 15.2437 21.8878 15.426C21.9635 15.6083 22.0024 15.8038 22.0024 16.0012C22.0024 16.1987 21.9635 16.3941 21.8878 16.5765C21.812 16.7588 21.7011 16.9244 21.5613 17.0637L15.5612 23.0637C15.4219 23.2036 15.2563 23.3145 15.074 23.3903C14.8917 23.466 14.6962 23.5049 14.4987 23.5049C14.3013 23.5049 14.1058 23.466 13.9235 23.3903C13.7412 23.3145 13.5756 23.2036 13.4362 23.0637L10.4362 20.0637C10.1545 19.782 9.99615 19.3998 9.99615 19.0012C9.99615 18.6027 10.1545 18.2205 10.4362 17.9387C10.718 17.657 11.1002 17.4986 11.4987 17.4986C11.8973 17.4986 12.2795 17.657 12.5612 17.9387L14.5 19.875L19.4387 14.935C19.5783 14.7958 19.7439 14.6854 19.9262 14.6103C20.1084 14.5351 20.3037 14.4966 20.5008 14.4969C20.6979 14.4973 20.893 14.5365 21.075 14.6123C21.2569 14.6881 21.4222 14.799 21.5613 14.9388Z" fill="black"/>
</svg>
