<svg width="32" height="32" viewBox="0 0 32 32" fill="none" xmlns="http://www.w3.org/2000/svg">
<path d="M3 22.5H29C29.3978 22.5 29.7794 22.342 30.0607 22.0607C30.342 21.7794 30.5 21.3978 30.5 21C30.5 20.6022 30.342 20.2206 30.0607 19.9393C29.7794 19.658 29.3978 19.5 29 19.5H28.4888C28.3661 16.5344 27.1939 13.7088 25.1811 11.5274C23.1684 9.34592 20.4462 7.95048 17.5 7.59V5.5H19C19.3978 5.5 19.7794 5.34196 20.0607 5.06066C20.342 4.77936 20.5 4.39782 20.5 4C20.5 3.60218 20.342 3.22064 20.0607 2.93934C19.7794 2.65804 19.3978 2.5 19 2.5H13C12.6022 2.5 12.2206 2.65804 11.9393 2.93934C11.658 3.22064 11.5 3.60218 11.5 4C11.5 4.39782 11.658 4.77936 11.9393 5.06066C12.2206 5.34196 12.6022 5.5 13 5.5H14.5V7.59C11.5538 7.95048 8.83157 9.34592 6.81886 11.5274C4.80614 13.7088 3.63389 16.5344 3.51125 19.5H3C2.60218 19.5 2.22064 19.658 1.93934 19.9393C1.65804 20.2206 1.5 20.6022 1.5 21C1.5 21.3978 1.65804 21.7794 1.93934 22.0607C2.22064 22.342 2.60218 22.5 3 22.5ZM16 10.5C18.4321 10.5029 20.7707 11.4373 22.5351 13.1113C24.2994 14.7852 25.3555 17.0714 25.4862 19.5H6.51375C6.64448 17.0714 7.70057 14.7852 9.46495 13.1113C11.2293 11.4373 13.5679 10.5029 16 10.5ZM30.5 26C30.5 26.3978 30.342 26.7794 30.0607 27.0607C29.7794 27.342 29.3978 27.5 29 27.5H3C2.60218 27.5 2.22064 27.342 1.93934 27.0607C1.65804 26.7794 1.5 26.3978 1.5 26C1.5 25.6022 1.65804 25.2206 1.93934 24.9393C2.22064 24.658 2.60218 24.5 3 24.5H29C29.3978 24.5 29.7794 24.658 30.0607 24.9393C30.342 25.2206 30.5 25.6022 30.5 26Z" fill="black"/>
</svg>
