<svg width="32" height="32" viewBox="0 0 32 32" fill="none" xmlns="http://www.w3.org/2000/svg">
<path d="M7.11 3.99125C6.97827 3.84277 6.81838 3.7219 6.6396 3.63566C6.46082 3.54942 6.26669 3.49952 6.06849 3.48886C5.87028 3.4782 5.67192 3.50698 5.48492 3.57354C5.29791 3.6401 5.12598 3.74312 4.97908 3.87661C4.83218 4.01011 4.71324 4.17144 4.62915 4.35124C4.54506 4.53105 4.4975 4.72575 4.48921 4.92408C4.48093 5.1224 4.51208 5.3204 4.58088 5.50659C4.64968 5.69278 4.75475 5.86347 4.89 6.00875L5.39 6.555C4.58036 6.69831 3.84702 7.12208 3.31858 7.752C2.79014 8.38192 2.50034 9.17778 2.5 10V24C2.5 24.9283 2.86875 25.8185 3.52513 26.4749C4.1815 27.1313 5.07174 27.5 6 27.5H24.4275L24.89 28.0088C25.1589 28.2977 25.5309 28.4689 25.9253 28.4854C26.3197 28.5019 26.7046 28.3622 26.9967 28.0968C27.2888 27.8313 27.4645 27.4614 27.4857 27.0673C27.5069 26.6731 27.3719 26.2865 27.11 25.9913L7.11 3.99125ZM13.2788 15.2413L17 19.33C16.443 19.5272 15.8401 19.5556 15.267 19.4115C14.6939 19.2674 14.1762 18.9572 13.7787 18.52C13.3812 18.0827 13.1218 17.5378 13.0328 16.9536C12.9439 16.3694 13.0294 15.772 13.2788 15.2363V15.2413ZM6 24.5C5.86739 24.5 5.74021 24.4473 5.64645 24.3536C5.55268 24.2598 5.5 24.1326 5.5 24V10C5.5 9.8674 5.55268 9.74022 5.64645 9.64645C5.74021 9.55268 5.86739 9.5 6 9.5H8.06375L11.1788 12.9263C10.3532 14.0425 9.94037 15.4104 10.0105 16.797C10.0806 18.1835 10.6294 19.5028 11.5633 20.5301C12.4972 21.5573 13.7585 22.2289 15.1321 22.4304C16.5057 22.6319 17.9067 22.3508 19.0963 21.635L21.7 24.5H6ZM29.5 10V21.7675C29.5 22.1653 29.342 22.5469 29.0607 22.8282C28.7794 23.1095 28.3978 23.2675 28 23.2675C27.6022 23.2675 27.2206 23.1095 26.9393 22.8282C26.658 22.5469 26.5 22.1653 26.5 21.7675V10C26.5 9.8674 26.4473 9.74022 26.3536 9.64645C26.2598 9.55268 26.1326 9.5 26 9.5H22C21.7528 9.50037 21.5093 9.43962 21.2912 9.32317C21.0731 9.20671 20.8872 9.03816 20.75 8.8325L19.1963 6.5H12.7575C12.3597 6.5 11.9781 6.34197 11.6968 6.06066C11.4155 5.77936 11.2575 5.39783 11.2575 5C11.2575 4.60218 11.4155 4.22065 11.6968 3.93934C11.9781 3.65804 12.3597 3.5 12.7575 3.5H20C20.2472 3.49964 20.4907 3.56038 20.7088 3.67684C20.9269 3.79329 21.1128 3.96185 21.25 4.1675L22.8025 6.5H26C26.4596 6.5 26.9148 6.59053 27.3394 6.76643C27.764 6.94232 28.1499 7.20013 28.4749 7.52513C28.7999 7.85014 29.0577 8.23597 29.2336 8.66061C29.4095 9.08525 29.5 9.54038 29.5 10Z" fill="black"/>
</svg>
