<svg width="32" height="32" viewBox="0 0 32 32" fill="none" xmlns="http://www.w3.org/2000/svg">
<path d="M27.4762 28.1513C27.4441 28.2524 27.3806 28.3407 27.295 28.4034C27.2094 28.4661 27.106 28.5 26.9999 28.5C26.9486 28.5001 26.8975 28.4921 26.8487 28.4763L15.9999 25.025L5.15117 28.4763C5.10231 28.4921 5.05127 28.5001 4.99992 28.5C4.88075 28.4998 4.76559 28.457 4.67518 28.3794C4.58478 28.3017 4.52507 28.1943 4.50683 28.0766C4.48858 27.9588 4.513 27.8384 4.57567 27.7371C4.63835 27.6357 4.73516 27.5601 4.84867 27.5238L14.3487 24.5L4.84867 21.4763C4.784 21.4582 4.72363 21.4273 4.67117 21.3854C4.6187 21.3435 4.57521 21.2915 4.54328 21.2324C4.51136 21.1734 4.49166 21.1085 4.48536 21.0416C4.47906 20.9748 4.48629 20.9074 4.50661 20.8434C4.52693 20.7794 4.55994 20.7201 4.60365 20.6692C4.64736 20.6182 4.70089 20.5766 4.76105 20.5467C4.8212 20.5169 4.88675 20.4995 4.95377 20.4956C5.0208 20.4916 5.08793 20.5012 5.15117 20.5238L15.9999 23.975L26.8487 20.5238C26.9119 20.5012 26.979 20.4916 27.0461 20.4956C27.1131 20.4995 27.1786 20.5169 27.2388 20.5467C27.2989 20.5766 27.3525 20.6182 27.3962 20.6692C27.4399 20.7201 27.4729 20.7794 27.4932 20.8434C27.5135 20.9074 27.5208 20.9748 27.5145 21.0416C27.5082 21.1085 27.4885 21.1734 27.4566 21.2324C27.4246 21.2915 27.3811 21.3435 27.3287 21.3854C27.2762 21.4273 27.2158 21.4582 27.1512 21.4763L17.6512 24.5L27.1512 27.5238C27.2774 27.564 27.3826 27.6526 27.4435 27.7703C27.5045 27.8879 27.5162 28.025 27.4762 28.1513ZM8.99992 13.5C8.99992 11.125 10.1724 8.64378 12.3899 6.34128C13.3963 5.29385 14.5195 4.36529 15.7374 3.57378C15.8163 3.5251 15.9072 3.49933 15.9999 3.49933C16.0926 3.49933 16.1835 3.5251 16.2624 3.57378C17.4804 4.36529 18.6035 5.29385 19.6099 6.34128C21.8274 8.64378 22.9999 11.125 22.9999 13.5C23.0005 15.3258 22.2878 17.0795 21.0137 18.3872C19.7396 19.6949 18.0051 20.4531 16.1799 20.5C16.1199 20.5 16.0549 20.5 15.9999 20.5C15.9449 20.5 15.8749 20.5 15.8199 20.5C13.9948 20.4531 12.2602 19.6949 10.9861 18.3872C9.71205 17.0795 8.99931 15.3258 8.99992 13.5ZM15.9999 19.5C16.663 19.5 17.2988 19.2366 17.7677 18.7678C18.2365 18.299 18.4999 17.6631 18.4999 17C18.4999 14.8263 16.7037 13.1838 15.9999 12.625C15.2962 13.185 13.4999 14.8275 13.4999 17C13.4999 17.6631 13.7633 18.299 14.2322 18.7678C14.701 19.2366 15.3369 19.5 15.9999 19.5ZM9.99992 13.5C10.0002 14.5352 10.2684 15.5527 10.7783 16.4536C11.2882 17.3545 12.0226 18.1082 12.9099 18.6413C12.6403 18.1363 12.4995 17.5725 12.4999 17C12.4999 13.77 15.5912 11.6713 15.7224 11.5838C15.8046 11.529 15.9011 11.4997 15.9999 11.4997C16.0987 11.4997 16.1953 11.529 16.2774 11.5838C16.4087 11.6713 19.4999 13.77 19.4999 17C19.5004 17.5725 19.3596 18.1363 19.0899 18.6413C19.9773 18.1082 20.7116 17.3545 21.2215 16.4536C21.7314 15.5527 21.9996 14.5352 21.9999 13.5C21.9999 8.95378 17.1887 5.40503 15.9999 4.59878C14.8124 5.40628 9.99992 8.96003 9.99992 13.5Z" fill="black"/>
</svg>
