<svg width="32" height="32" viewBox="0 0 32 32" fill="none" xmlns="http://www.w3.org/2000/svg">
<path d="M27.7151 28.2275C27.6852 28.3214 27.6372 28.4086 27.5737 28.4839C27.5101 28.5592 27.4324 28.6213 27.3449 28.6666C27.2573 28.7119 27.1617 28.7394 27.0635 28.7478C26.9653 28.7561 26.8665 28.7449 26.7726 28.715L16.0001 25.2875L5.22758 28.715C5.13368 28.7449 5.03482 28.756 4.93664 28.7477C4.83846 28.7393 4.74288 28.7117 4.65536 28.6665C4.56784 28.6212 4.4901 28.5591 4.42656 28.4838C4.36303 28.4085 4.31495 28.3214 4.28508 28.2275C4.2552 28.1336 4.24411 28.0348 4.25244 27.9366C4.26077 27.8384 4.28836 27.7428 4.33363 27.6553C4.3789 27.5678 4.44096 27.49 4.51628 27.4265C4.59159 27.363 4.67868 27.3149 4.77258 27.285L13.5226 24.5L4.77258 21.715C4.67868 21.6851 4.59159 21.6371 4.51628 21.5735C4.44096 21.51 4.3789 21.4323 4.33363 21.3447C4.28836 21.2572 4.26077 21.1616 4.25244 21.0635C4.24411 20.9653 4.2552 20.8664 4.28508 20.7725C4.31495 20.6786 4.36303 20.5915 4.42656 20.5162C4.4901 20.4409 4.56784 20.3788 4.65536 20.3336C4.74288 20.2883 4.83846 20.2607 4.93664 20.2524C5.03482 20.2441 5.13368 20.2551 5.22758 20.285L16.0001 23.7125L26.7726 20.285C26.9622 20.2247 27.168 20.2421 27.3448 20.3336C27.5215 20.425 27.6547 20.5829 27.7151 20.7725C27.7754 20.9622 27.7579 21.168 27.6665 21.3447C27.5751 21.5215 27.4172 21.6547 27.2276 21.715L18.4776 24.5L27.2276 27.285C27.3215 27.3149 27.4086 27.3629 27.484 27.4264C27.5593 27.49 27.6214 27.5677 27.6666 27.6552C27.7119 27.7428 27.7395 27.8384 27.7478 27.9366C27.7561 28.0348 27.745 28.1336 27.7151 28.2275ZM8.75008 13.5C8.75008 7.64877 15.3276 3.53377 15.6076 3.36127C15.7257 3.28875 15.8615 3.25037 16.0001 3.25037C16.1386 3.25037 16.2745 3.28875 16.3926 3.36127C16.6726 3.53377 23.2501 7.64877 23.2501 13.5C23.2501 15.4228 22.4862 17.2669 21.1266 18.6265C19.767 19.9862 17.9229 20.75 16.0001 20.75C14.0773 20.75 12.2332 19.9862 10.8736 18.6265C9.51391 17.2669 8.75008 15.4228 8.75008 13.5ZM16.0001 19.25C16.5968 19.25 17.1691 19.013 17.5911 18.591C18.013 18.1691 18.2501 17.5968 18.2501 17C18.2501 15.065 16.7501 13.5713 16.0001 12.945C15.2501 13.57 13.7501 15.07 13.7501 17C13.7501 17.5968 13.9871 18.1691 14.4091 18.591C14.831 19.013 15.4033 19.25 16.0001 19.25ZM10.2501 13.5C10.2501 14.3545 10.441 15.1982 10.8086 15.9696C11.1762 16.741 11.7114 17.4205 12.3751 17.9588C12.292 17.646 12.25 17.3237 12.2501 17C12.2501 13.6375 15.4476 11.4663 15.5838 11.375C15.7071 11.2928 15.8519 11.2489 16.0001 11.2489C16.1482 11.2489 16.2931 11.2928 16.4163 11.375C16.5526 11.465 19.7501 13.6363 19.7501 17C19.7501 17.3237 19.7081 17.646 19.6251 17.9588C20.2888 17.4205 20.8239 16.741 21.1916 15.9696C21.5592 15.1982 21.75 14.3545 21.7501 13.5C21.7501 9.24252 17.3563 5.84752 16.0001 4.90252C14.6438 5.84752 10.2501 9.24127 10.2501 13.5Z" fill="black"/>
</svg>
