<svg width="32" height="32" viewBox="0 0 32 32" fill="none" xmlns="http://www.w3.org/2000/svg">
<path d="M26 5.5H6C5.07174 5.5 4.1815 5.86875 3.52513 6.52513C2.86875 7.1815 2.5 8.07174 2.5 9V23C2.5 23.9283 2.86875 24.8185 3.52513 25.4749C4.1815 26.1313 5.07174 26.5 6 26.5H26C26.4596 26.5 26.9148 26.4095 27.3394 26.2336C27.764 26.0577 28.1499 25.7999 28.4749 25.4749C28.7999 25.1499 29.0577 24.764 29.2336 24.3394C29.4095 23.9148 29.5 23.4596 29.5 23V9C29.5 8.54037 29.4095 8.08525 29.2336 7.66061C29.0577 7.23597 28.7999 6.85013 28.4749 6.52513C28.1499 6.20012 27.764 5.94231 27.3394 5.76642C26.9148 5.59053 26.4596 5.5 26 5.5ZM6 8.5H26C26.1326 8.5 26.2598 8.55268 26.3536 8.64645C26.4473 8.74021 26.5 8.86739 26.5 9V11H20.8988C20.3226 11.0002 19.7643 11.1993 19.3181 11.5637C18.8719 11.9282 18.5652 12.4355 18.45 13C18.3352 13.5651 18.0286 14.0732 17.5821 14.4382C17.1356 14.8031 16.5767 15.0025 16 15.0025C15.4233 15.0025 14.8644 14.8031 14.4179 14.4382C13.9714 14.0732 13.6648 13.5651 13.55 13C13.4348 12.4355 13.1281 11.9282 12.6819 11.5637C12.2357 11.1993 11.6774 11.0002 11.1012 11H5.5V9C5.5 8.86739 5.55268 8.74021 5.64645 8.64645C5.74021 8.55268 5.86739 8.5 6 8.5ZM26 23.5H6C5.86739 23.5 5.74021 23.4473 5.64645 23.3536C5.55268 23.2598 5.5 23.1326 5.5 23V14H10.7075C11.0334 15.1526 11.7267 16.1673 12.6819 16.8899C13.6372 17.6125 14.8022 18.0035 16 18.0035C17.1978 18.0035 18.3628 17.6125 19.3181 16.8899C20.2733 16.1673 20.9666 15.1526 21.2925 14H26.5V23C26.5 23.1326 26.4473 23.2598 26.3536 23.3536C26.2598 23.4473 26.1326 23.5 26 23.5Z" fill="black"/>
</svg>
