<svg width="32" height="32" viewBox="0 0 32 32" fill="none" xmlns="http://www.w3.org/2000/svg">
<path d="M26.0612 24.9387C26.343 25.2205 26.5013 25.6027 26.5013 26.0012C26.5013 26.3997 26.343 26.7819 26.0612 27.0637C25.7794 27.3455 25.3972 27.5038 24.9987 27.5038C24.6002 27.5038 24.218 27.3455 23.9362 27.0637L13.9362 17.0637C13.7964 16.9243 13.6854 16.7587 13.6097 16.5764C13.534 16.3941 13.495 16.1986 13.495 16.0012C13.495 15.8038 13.534 15.6083 13.6097 15.426C13.6854 15.2436 13.7964 15.0781 13.9362 14.9387L23.9362 4.9387C24.218 4.6569 24.6002 4.49859 24.9987 4.49859C25.3972 4.49859 25.7794 4.6569 26.0612 4.9387C26.343 5.22049 26.5013 5.60268 26.5013 6.0012C26.5013 6.39971 26.343 6.7819 26.0612 7.0637L17.125 15.9999L26.0612 24.9387ZM7.12496 15.9999L16.065 7.0612C16.3468 6.7794 16.5051 6.39721 16.5051 5.9987C16.5051 5.60018 16.3468 5.21799 16.065 4.9362C15.7832 4.6544 15.401 4.49609 15.0025 4.49609C14.6039 4.49609 14.2218 4.6544 13.94 4.9362L3.93996 14.9362C3.80012 15.0756 3.68917 15.2411 3.61346 15.4235C3.53775 15.6058 3.49878 15.8013 3.49878 15.9987C3.49878 16.1961 3.53775 16.3916 3.61346 16.5739C3.68917 16.7563 3.80012 16.9218 3.93996 17.0612L13.94 27.0612C14.0795 27.2007 14.2451 27.3114 14.4274 27.3869C14.6097 27.4624 14.8051 27.5013 15.0025 27.5013C15.1998 27.5013 15.3952 27.4624 15.5775 27.3869C15.7598 27.3114 15.9254 27.2007 16.065 27.0612C16.2045 26.9217 16.3152 26.756 16.3907 26.5737C16.4662 26.3914 16.5051 26.196 16.5051 25.9987C16.5051 25.8014 16.4662 25.606 16.3907 25.4237C16.3152 25.2414 16.2045 25.0757 16.065 24.9362L7.12496 15.9999Z" fill="black"/>
</svg>
