<svg width="32" height="32" viewBox="0 0 32 32" fill="none" xmlns="http://www.w3.org/2000/svg">
<path d="M26.3538 15.646C26.4003 15.6925 26.4372 15.7476 26.4623 15.8083C26.4875 15.869 26.5004 15.9341 26.5004 15.9998C26.5004 16.0655 26.4875 16.1306 26.4623 16.1913C26.4372 16.252 26.4003 16.3071 26.3538 16.3535L16.3538 26.3535C16.3073 26.4 16.2522 26.4369 16.1915 26.4621C16.1308 26.4872 16.0657 26.5002 16 26.5002C15.9343 26.5002 15.8693 26.4872 15.8086 26.4621C15.7479 26.4369 15.6927 26.4 15.6463 26.3535L5.64628 16.3535C5.59983 16.3071 5.56298 16.2519 5.53784 16.1912C5.5127 16.1305 5.49976 16.0655 5.49976 15.9998C5.49976 15.9341 5.5127 15.869 5.53784 15.8083C5.56298 15.7476 5.59983 15.6925 5.64628 15.646C5.69274 15.5996 5.74789 15.5627 5.80859 15.5376C5.86928 15.5125 5.93434 15.4995 6.00003 15.4995C6.06573 15.4995 6.13079 15.5125 6.19148 15.5376C6.25218 15.5627 6.30733 15.5996 6.35378 15.646L16 25.2923L25.6463 15.646C25.6927 15.5996 25.7479 15.5627 25.8086 15.5375C25.8693 15.5123 25.9343 15.4994 26 15.4994C26.0657 15.4994 26.1308 15.5123 26.1915 15.5375C26.2522 15.5627 26.3073 15.5996 26.3538 15.646ZM15.6463 16.3535C15.6927 16.4 15.7479 16.4369 15.8086 16.4621C15.8693 16.4872 15.9343 16.5002 16 16.5002C16.0657 16.5002 16.1308 16.4872 16.1915 16.4621C16.2522 16.4369 16.3073 16.4 16.3538 16.3535L26.3538 6.35354C26.4002 6.30708 26.4371 6.25193 26.4622 6.19124C26.4874 6.13054 26.5003 6.06549 26.5003 5.99979C26.5003 5.93409 26.4874 5.86904 26.4622 5.80834C26.4371 5.74764 26.4002 5.69249 26.3538 5.64604C26.3073 5.59958 26.2522 5.56273 26.1915 5.53759C26.1308 5.51245 26.0657 5.49951 26 5.49951C25.9343 5.49951 25.8693 5.51245 25.8086 5.53759C25.7479 5.56273 25.6927 5.59958 25.6463 5.64604L16 15.2923L6.35378 5.64604C6.25996 5.55222 6.13272 5.49951 6.00003 5.49951C5.86735 5.49951 5.7401 5.55222 5.64628 5.64604C5.55246 5.73986 5.49976 5.86711 5.49976 5.99979C5.49976 6.13247 5.55246 6.25972 5.64628 6.35354L15.6463 16.3535Z" fill="black"/>
</svg>
