<svg width="32" height="32" viewBox="0 0 32 32" fill="none" xmlns="http://www.w3.org/2000/svg">
<path d="M24.8386 7.16139C23.6798 5.99231 22.3014 5.06364 20.7826 4.42871C19.2639 3.79377 17.6347 3.46506 15.9886 3.46146C14.3424 3.45785 12.7118 3.77942 11.1903 4.4077C9.66877 5.03598 8.28634 5.9586 7.12235 7.12259C5.95836 8.28658 5.03574 9.66902 4.40746 11.1905C3.77918 12.712 3.45761 14.3427 3.46121 15.9888C3.46482 17.6349 3.79352 19.2641 4.42846 20.7829C5.0634 22.3016 5.99207 23.68 7.16114 24.8389C8.32002 26.008 9.6984 26.9366 11.2172 27.5716C12.7359 28.2065 14.3651 28.5352 16.0112 28.5388C17.6574 28.5424 19.288 28.2208 20.8095 27.5926C22.331 26.9643 23.7134 26.0417 24.8774 24.8777C26.0414 23.7137 26.964 22.3313 27.5923 20.8097C28.2206 19.2882 28.5422 17.6576 28.5386 16.0115C28.535 14.3653 28.2063 12.7361 27.5713 11.2174C26.9364 9.69865 26.0077 8.32027 24.8386 7.16139ZM24.1311 24.1314C22.2497 26.0126 19.7742 27.1833 17.1264 27.4439C14.4786 27.7045 11.8223 27.039 9.61021 25.5607C7.3981 24.0824 5.76701 21.8828 4.99485 19.3367C4.22269 16.7906 4.35725 14.0556 5.37559 11.5976C6.39393 9.13957 8.23305 7.11071 10.5796 5.85668C12.9261 4.60266 15.6349 4.20106 18.2443 4.72032C20.8537 5.23958 23.2024 6.64756 24.8901 8.70437C26.5778 10.7612 27.5001 13.3395 27.4999 16.0001C27.5041 17.5109 27.2085 19.0075 26.6302 20.4033C26.052 21.7991 25.2025 23.0662 24.1311 24.1314ZM21.3536 12.3539L17.7074 16.0001L21.3536 19.6464C21.4475 19.7402 21.5002 19.8675 21.5002 20.0001C21.5002 20.1328 21.4475 20.2601 21.3536 20.3539C21.2598 20.4477 21.1326 20.5004 20.9999 20.5004C20.8672 20.5004 20.74 20.4477 20.6461 20.3539L16.6461 16.3539C16.5997 16.3074 16.5628 16.2523 16.5376 16.1916C16.5124 16.1309 16.4995 16.0658 16.4995 16.0001C16.4995 15.9344 16.5124 15.8694 16.5376 15.8087C16.5628 15.748 16.5997 15.6928 16.6461 15.6464L20.6461 11.6464C20.6926 11.5999 20.7477 11.5631 20.8084 11.5379C20.8691 11.5128 20.9342 11.4999 20.9999 11.4999C21.0656 11.4999 21.1306 11.5128 21.1913 11.5379C21.252 11.5631 21.3072 11.5999 21.3536 11.6464C21.4001 11.6928 21.4369 11.748 21.4621 11.8087C21.4872 11.8694 21.5002 11.9344 21.5002 12.0001C21.5002 12.0658 21.4872 12.1309 21.4621 12.1916C21.4369 12.2523 21.4001 12.3074 21.3536 12.3539ZM14.3536 12.3539L10.7074 16.0001L14.3536 19.6464C14.4475 19.7402 14.5002 19.8675 14.5002 20.0001C14.5002 20.1328 14.4475 20.2601 14.3536 20.3539C14.2598 20.4477 14.1326 20.5004 13.9999 20.5004C13.8672 20.5004 13.74 20.4477 13.6461 20.3539L9.64614 16.3539C9.59965 16.3074 9.56277 16.2523 9.53761 16.1916C9.51245 16.1309 9.4995 16.0658 9.4995 16.0001C9.4995 15.9344 9.51245 15.8694 9.53761 15.8087C9.56277 15.748 9.59965 15.6928 9.64614 15.6464L13.6461 11.6464C13.6926 11.5999 13.7477 11.5631 13.8084 11.5379C13.8691 11.5128 13.9342 11.4999 13.9999 11.4999C14.0656 11.4999 14.1306 11.5128 14.1913 11.5379C14.252 11.5631 14.3072 11.5999 14.3536 11.6464C14.4001 11.6928 14.4369 11.748 14.4621 11.8087C14.4872 11.8694 14.5002 11.9344 14.5002 12.0001C14.5002 12.0658 14.4872 12.1309 14.4621 12.1916C14.4369 12.2523 14.4001 12.3074 14.3536 12.3539Z" fill="black"/>
</svg>
