<svg width="32" height="32" viewBox="0 0 32 32" fill="none" xmlns="http://www.w3.org/2000/svg">
<path d="M26.9238 15.6175C26.9996 15.8002 27.0195 16.0013 26.981 16.1953C26.9425 16.3893 26.8474 16.5676 26.7076 16.7075L16.7076 26.7075C16.6147 26.8005 16.5044 26.8742 16.383 26.9246C16.2616 26.9749 16.1315 27.0008 16.0001 27.0008C15.8686 27.0008 15.7385 26.9749 15.6171 26.9246C15.4957 26.8742 15.3854 26.8005 15.2926 26.7075L5.29256 16.7075C5.15254 16.5676 5.05718 16.3894 5.01853 16.1953C4.97988 16.0012 4.99968 15.8 5.07543 15.6172C5.15119 15.4344 5.27948 15.2782 5.44407 15.1683C5.60867 15.0584 5.80216 14.9998 6.00006 15H13.5863L5.29256 6.7075C5.15254 6.56764 5.05718 6.38939 5.01853 6.19531C4.97988 6.00122 4.99968 5.80003 5.07543 5.61721C5.15119 5.43439 5.27948 5.27815 5.44407 5.16828C5.60867 5.05841 5.80216 4.99984 6.00006 5H26.0001C26.198 4.99984 26.3914 5.05841 26.556 5.16828C26.7206 5.27815 26.8489 5.43439 26.9247 5.61721C27.0004 5.80003 27.0202 6.00122 26.9816 6.19531C26.9429 6.38939 26.8476 6.56764 26.7076 6.7075L18.4138 15H26.0001C26.1978 15 26.3912 15.0587 26.5556 15.1686C26.72 15.2786 26.8482 15.4348 26.9238 15.6175Z" fill="black"/>
</svg>
