<svg width="32" height="32" viewBox="0 0 32 32" fill="none" xmlns="http://www.w3.org/2000/svg">
<path opacity="0.08" d="M25 6V26L15 16L25 6Z" fill="black"/>
<path d="M25.3826 5.07632C25.1999 5.00052 24.9988 4.98061 24.8048 5.0191C24.6107 5.05759 24.4325 5.15276 24.2926 5.29257L14.2926 15.2926C14.1996 15.3854 14.1258 15.4957 14.0755 15.6171C14.0252 15.7385 13.9993 15.8687 13.9993 16.0001C13.9993 16.1315 14.0252 16.2616 14.0755 16.383C14.1258 16.5044 14.1996 16.6147 14.2926 16.7076L24.2926 26.7076C24.4324 26.8476 24.6107 26.9429 24.8047 26.9816C24.9988 27.0202 25.2 27.0004 25.3828 26.9247C25.5657 26.8489 25.7219 26.7206 25.8318 26.556C25.9416 26.3915 26.0002 26.198 26.0001 26.0001V6.00007C26 5.80229 25.9413 5.60896 25.8314 5.44453C25.7215 5.28011 25.5653 5.15197 25.3826 5.07632ZM24.0001 23.5863L16.4138 16.0001L24.0001 8.41382V23.5863ZM15.7076 25.2926C15.8005 25.3855 15.8742 25.4958 15.9244 25.6172C15.9747 25.7386 16.0006 25.8687 16.0006 26.0001C16.0006 26.1315 15.9747 26.2616 15.9244 26.383C15.8742 26.5044 15.8005 26.6147 15.7076 26.7076C15.6146 26.8005 15.5043 26.8742 15.383 26.9245C15.2616 26.9747 15.1314 27.0006 15.0001 27.0006C14.8687 27.0006 14.7386 26.9747 14.6172 26.9245C14.4958 26.8742 14.3855 26.8005 14.2926 26.7076L4.29255 16.7076C4.19958 16.6147 4.12582 16.5044 4.07549 16.383C4.02517 16.2616 3.99927 16.1315 3.99927 16.0001C3.99927 15.8687 4.02517 15.7385 4.07549 15.6171C4.12582 15.4957 4.19958 15.3854 4.29255 15.2926L14.2926 5.29257C14.4802 5.10493 14.7347 4.99951 15.0001 4.99951C15.2654 4.99951 15.5199 5.10493 15.7076 5.29257C15.8952 5.48021 16.0006 5.7347 16.0006 6.00007C16.0006 6.26543 15.8952 6.51993 15.7076 6.70757L6.4138 16.0001L15.7076 25.2926Z" fill="black"/>
</svg>
