<svg width="32" height="32" viewBox="0 0 32 32" fill="none" xmlns="http://www.w3.org/2000/svg">
<path d="M17.5301 16.5298L7.53009 26.5298C7.38792 26.6623 7.19987 26.7344 7.00557 26.731C6.81127 26.7276 6.62588 26.6489 6.48847 26.5115C6.35106 26.3741 6.27234 26.1887 6.26892 25.9944C6.26549 25.8001 6.33761 25.612 6.47009 25.4698L15.9388 15.9998L6.47009 6.52985C6.33761 6.38767 6.26549 6.19963 6.26892 6.00532C6.27234 5.81102 6.35106 5.62564 6.48847 5.48822C6.62588 5.35081 6.81127 5.2721 7.00557 5.26867C7.19987 5.26524 7.38792 5.33737 7.53009 5.46985L17.5301 15.4698C17.6705 15.6105 17.7494 15.8011 17.7494 15.9998C17.7494 16.1986 17.6705 16.3892 17.5301 16.5298ZM27.5301 15.4698L17.5301 5.46985C17.3879 5.33737 17.1999 5.26524 17.0056 5.26867C16.8113 5.2721 16.6259 5.35081 16.4885 5.48822C16.3511 5.62564 16.2723 5.81102 16.2689 6.00532C16.2655 6.19963 16.3376 6.38767 16.4701 6.52985L25.9388 15.9998L16.4701 25.4698C16.3964 25.5385 16.3373 25.6213 16.2963 25.7133C16.2553 25.8053 16.2333 25.9046 16.2315 26.0053C16.2297 26.106 16.2482 26.2061 16.286 26.2994C16.3237 26.3928 16.3798 26.4777 16.4511 26.5489C16.5223 26.6201 16.6071 26.6762 16.7005 26.714C16.7939 26.7517 16.8939 26.7702 16.9946 26.7684C17.0953 26.7667 17.1946 26.7446 17.2866 26.7036C17.3786 26.6626 17.4614 26.6035 17.5301 26.5298L27.5301 16.5298C27.6705 16.3892 27.7494 16.1986 27.7494 15.9998C27.7494 15.8011 27.6705 15.6105 27.5301 15.4698Z" fill="black"/>
</svg>
