<svg width="32" height="32" viewBox="0 0 32 32" fill="none" xmlns="http://www.w3.org/2000/svg">
<path d="M25.5499 6.45001C23.6615 4.56315 21.256 3.27854 18.6376 2.75857C16.0191 2.2386 13.3053 2.50661 10.8392 3.52873C8.37304 4.55085 6.26531 6.28119 4.78242 8.501C3.29953 10.7208 2.50806 13.3304 2.50806 16C2.50806 18.6696 3.29953 21.2792 4.78242 23.499C6.26531 25.7188 8.37304 27.4492 10.8392 28.4713C13.3053 29.4934 16.0191 29.7614 18.6376 29.2414C21.256 28.7215 23.6615 27.4369 25.5499 25.55C28.0793 23.0153 29.4998 19.5808 29.4998 16C29.4998 12.4192 28.0793 8.98467 25.5499 6.45001ZM23.4249 23.4275C21.9562 24.8951 20.0852 25.8944 18.0486 26.2988C16.0121 26.7033 13.9013 26.4949 11.9831 25.7C10.065 24.905 8.42559 23.5592 7.2722 21.8326C6.11881 20.1061 5.5032 18.0764 5.5032 16C5.5032 13.9236 6.11881 11.8939 7.2722 10.1674C8.42559 8.44083 10.065 7.09501 11.9831 6.30005C13.9013 5.50509 16.0121 5.29668 18.0486 5.70116C20.0852 6.10565 21.9562 7.10487 23.4249 8.57251C25.3925 10.5435 26.4978 13.2145 26.4982 15.9995C26.4987 18.7845 25.3943 21.4559 23.4274 23.4275H23.4249ZM21.0624 19.9413C21.3442 20.223 21.5025 20.6052 21.5025 21.0038C21.5025 21.4023 21.3442 21.7845 21.0624 22.0663C20.7806 22.348 20.3985 22.5064 19.9999 22.5064C19.6014 22.5064 19.2192 22.348 18.9374 22.0663L15.9999 19.125L13.0587 22.0663C12.7769 22.348 12.3947 22.5064 11.9962 22.5064C11.5977 22.5064 11.2155 22.348 10.9337 22.0663C10.6519 21.7845 10.4936 21.4023 10.4936 21.0038C10.4936 20.6052 10.6519 20.223 10.9337 19.9413L14.9337 15.9413C15.073 15.8014 15.2386 15.6905 15.421 15.6148C15.6033 15.539 15.7988 15.5001 15.9962 15.5001C16.1936 15.5001 16.3891 15.539 16.5714 15.6148C16.7537 15.6905 16.9193 15.8014 17.0587 15.9413L21.0624 19.9413ZM21.0624 12.9413C21.202 13.0808 21.3126 13.2464 21.3882 13.4287C21.4637 13.611 21.5025 13.8064 21.5025 14.0038C21.5025 14.2011 21.4637 14.3965 21.3882 14.5788C21.3126 14.7611 21.202 14.9267 21.0624 15.0663C20.9229 15.2058 20.7573 15.3165 20.575 15.392C20.3927 15.4675 20.1973 15.5064 19.9999 15.5064C19.8026 15.5064 19.6072 15.4675 19.4249 15.392C19.2426 15.3165 19.077 15.2058 18.9374 15.0663L15.9999 12.125L13.0587 15.065C12.9192 15.2045 12.7535 15.3152 12.5712 15.3907C12.3889 15.4662 12.1935 15.5051 11.9962 15.5051C11.7989 15.5051 11.6035 15.4662 11.4212 15.3907C11.2389 15.3152 11.0732 15.2045 10.9337 15.065C10.7942 14.9255 10.6835 14.7598 10.608 14.5775C10.5325 14.3952 10.4936 14.1998 10.4936 14.0025C10.4936 13.8052 10.5325 13.6098 10.608 13.4275C10.6835 13.2452 10.7942 13.0795 10.9337 12.94L14.9337 8.94001C15.073 8.80017 15.2386 8.68921 15.421 8.6135C15.6033 8.5378 15.7988 8.49882 15.9962 8.49882C16.1936 8.49882 16.3891 8.5378 16.5714 8.6135C16.7537 8.68921 16.9193 8.80017 17.0587 8.94001L21.0624 12.9413Z" fill="black"/>
</svg>
