<svg width="32" height="32" viewBox="0 0 32 32" fill="none" xmlns="http://www.w3.org/2000/svg">
<path d="M16 2.5C13.33 2.5 10.7199 3.29176 8.49981 4.77516C6.27974 6.25856 4.54942 8.36697 3.52763 10.8338C2.50585 13.3006 2.2385 16.015 2.7594 18.6337C3.28031 21.2525 4.56606 23.6579 6.45406 25.5459C8.34207 27.434 10.7475 28.7197 13.3663 29.2406C15.985 29.7615 18.6994 29.4942 21.1662 28.4724C23.633 27.4506 25.7414 25.7203 27.2248 23.5002C28.7082 21.2801 29.5 18.67 29.5 16C29.496 12.4208 28.0724 8.98932 25.5416 6.45844C23.0107 3.92756 19.5792 2.50397 16 2.5ZM16 26.5C13.9233 26.5 11.8932 25.8842 10.1665 24.7304C8.4398 23.5767 7.09399 21.9368 6.29927 20.0182C5.50455 18.0996 5.29662 15.9884 5.70176 13.9516C6.10691 11.9148 7.10693 10.0438 8.57538 8.57538C10.0438 7.10693 11.9148 6.1069 13.9516 5.70175C15.9884 5.29661 18.0996 5.50454 20.0182 6.29926C21.9368 7.09399 23.5767 8.4398 24.7304 10.1665C25.8842 11.8932 26.5 13.9233 26.5 16C26.497 18.7839 25.3898 21.4528 23.4213 23.4213C21.4529 25.3898 18.7839 26.497 16 26.5ZM20.0613 14.9388C20.2011 15.0781 20.312 15.2437 20.3878 15.426C20.4635 15.6083 20.5024 15.8038 20.5024 16.0012C20.5024 16.1987 20.4635 16.3941 20.3878 16.5765C20.312 16.7588 20.2011 16.9244 20.0613 17.0637L15.0613 22.0637C14.7795 22.3455 14.3973 22.5039 13.9988 22.5039C13.6002 22.5039 13.218 22.3455 12.9363 22.0637C12.6545 21.782 12.4962 21.3998 12.4962 21.0012C12.4962 20.6027 12.6545 20.2205 12.9363 19.9387L16.875 16L12.9388 12.0612C12.657 11.7795 12.4987 11.3973 12.4987 10.9987C12.4987 10.6002 12.657 10.218 12.9388 9.93625C13.2205 9.65446 13.6027 9.49615 14.0013 9.49615C14.3998 9.49615 14.782 9.65446 15.0638 9.93625L20.0613 14.9388Z" fill="black"/>
</svg>
