<svg width="32" height="32" viewBox="0 0 32 32" fill="none" xmlns="http://www.w3.org/2000/svg">
<path d="M16 2.5C13.33 2.5 10.7199 3.29176 8.49981 4.77516C6.27974 6.25856 4.54942 8.36697 3.52763 10.8338C2.50585 13.3006 2.2385 16.015 2.7594 18.6337C3.28031 21.2525 4.56606 23.6579 6.45406 25.5459C8.34207 27.434 10.7475 28.7197 13.3663 29.2406C15.985 29.7615 18.6994 29.4942 21.1662 28.4724C23.633 27.4506 25.7414 25.7203 27.2248 23.5002C28.7082 21.2801 29.5 18.67 29.5 16C29.496 12.4208 28.0724 8.98932 25.5416 6.45844C23.0107 3.92756 19.5792 2.50397 16 2.5ZM16 26.5C13.9233 26.5 11.8932 25.8842 10.1665 24.7304C8.4398 23.5767 7.09399 21.9368 6.29927 20.0182C5.50455 18.0996 5.29662 15.9884 5.70176 13.9516C6.10691 11.9148 7.10693 10.0438 8.57538 8.57538C10.0438 7.10693 11.9148 6.1069 13.9516 5.70175C15.9884 5.29661 18.0996 5.50454 20.0182 6.29926C21.9368 7.09399 23.5767 8.4398 24.7304 10.1665C25.8842 11.8932 26.5 13.9233 26.5 16C26.497 18.7839 25.3898 21.4528 23.4213 23.4213C21.4529 25.3898 18.7839 26.497 16 26.5ZM21.0613 11.9388C21.343 12.2205 21.5014 12.6027 21.5014 13.0013C21.5014 13.3998 21.343 13.782 21.0613 14.0638C20.7795 14.3455 20.3973 14.5039 19.9988 14.5039C19.6002 14.5039 19.218 14.3455 18.9363 14.0638L16 11.125L13.0613 14.065C12.7795 14.3468 12.3973 14.5051 11.9988 14.5051C11.6002 14.5051 11.218 14.3468 10.9363 14.065C10.6545 13.7832 10.4962 13.401 10.4962 13.0025C10.4962 12.604 10.6545 12.2218 10.9363 11.94L14.9363 7.94C15.0756 7.80016 15.2412 7.6892 15.4235 7.6135C15.6059 7.53779 15.8013 7.49882 15.9988 7.49882C16.1962 7.49882 16.3917 7.53779 16.574 7.6135C16.7563 7.6892 16.9219 7.80016 17.0613 7.94L21.0613 11.9388ZM21.0613 17.9387C21.2011 18.0781 21.312 18.2437 21.3878 18.426C21.4635 18.6083 21.5024 18.8038 21.5024 19.0012C21.5024 19.1987 21.4635 19.3941 21.3878 19.5765C21.312 19.7588 21.2011 19.9244 21.0613 20.0637L17.0613 24.0637C16.9219 24.2036 16.7563 24.3145 16.574 24.3903C16.3917 24.466 16.1962 24.5049 15.9988 24.5049C15.8013 24.5049 15.6059 24.466 15.4235 24.3903C15.2412 24.3145 15.0756 24.2036 14.9363 24.0637L10.9363 20.0637C10.6545 19.782 10.4962 19.3998 10.4962 19.0012C10.4962 18.6027 10.6545 18.2205 10.9363 17.9387C11.218 17.657 11.6002 17.4986 11.9988 17.4986C12.3973 17.4986 12.7795 17.657 13.0613 17.9387L16 20.875L18.9388 17.935C19.0783 17.7958 19.2439 17.6854 19.4262 17.6103C19.6084 17.5351 19.8037 17.4966 20.0008 17.4969C20.1979 17.4973 20.393 17.5365 20.575 17.6123C20.757 17.6881 20.9222 17.799 21.0613 17.9387Z" fill="black"/>
</svg>
