<svg width="32" height="32" viewBox="0 0 32 32" fill="none" xmlns="http://www.w3.org/2000/svg">
<path d="M25.5499 6.45001C23.6615 4.56315 21.256 3.27854 18.6376 2.75857C16.0191 2.2386 13.3053 2.50661 10.8392 3.52873C8.37304 4.55085 6.26531 6.28119 4.78242 8.501C3.29953 10.7208 2.50806 13.3304 2.50806 16C2.50806 18.6696 3.29953 21.2792 4.78242 23.499C6.26531 25.7188 8.37304 27.4492 10.8392 28.4713C13.3053 29.4934 16.0191 29.7614 18.6376 29.2414C21.256 28.7215 23.6615 27.4369 25.5499 25.55C28.0793 23.0153 29.4998 19.5808 29.4998 16C29.4998 12.4192 28.0793 8.98467 25.5499 6.45001ZM23.4249 23.4275C21.9562 24.8951 20.0852 25.8944 18.0486 26.2988C16.0121 26.7033 13.9013 26.4949 11.9831 25.7C10.065 24.905 8.42559 23.5592 7.2722 21.8326C6.11881 20.1061 5.5032 18.0764 5.5032 16C5.5032 13.9236 6.11881 11.8939 7.2722 10.1674C8.42559 8.44083 10.065 7.09501 11.9831 6.30005C13.9013 5.50509 16.0121 5.29668 18.0486 5.70116C20.0852 6.10565 21.9562 7.10487 23.4249 8.57251C25.3925 10.5435 26.4978 13.2145 26.4982 15.9995C26.4987 18.7845 25.3943 21.4559 23.4274 23.4275H23.4249ZM22.0612 13.0588L19.1249 16L22.0662 18.9413C22.2057 19.0808 22.3164 19.2464 22.3919 19.4287C22.4674 19.611 22.5063 19.8064 22.5063 20.0038C22.5063 20.2011 22.4674 20.3965 22.3919 20.5788C22.3164 20.7611 22.2057 20.9267 22.0662 21.0663C21.9267 21.2058 21.761 21.3165 21.5787 21.392C21.3964 21.4675 21.201 21.5064 21.0037 21.5064C20.8064 21.5064 20.611 21.4675 20.4287 21.392C20.2464 21.3165 20.0807 21.2058 19.9412 21.0663L15.9412 17.0663C15.8013 16.9269 15.6904 16.7613 15.6147 16.579C15.539 16.3967 15.5 16.2012 15.5 16.0038C15.5 15.8063 15.539 15.6109 15.6147 15.4285C15.6904 15.2462 15.8013 15.0806 15.9412 14.9413L19.9412 10.9413C20.223 10.6595 20.6052 10.5012 21.0037 10.5012C21.4022 10.5012 21.7844 10.6595 22.0662 10.9413C22.348 11.223 22.5063 11.6052 22.5063 12.0038C22.5063 12.4023 22.348 12.7845 22.0662 13.0663L22.0612 13.0588ZM15.0612 13.0588L12.1249 16L15.0649 18.9413C15.2045 19.0808 15.3151 19.2464 15.3907 19.4287C15.4662 19.611 15.505 19.8064 15.505 20.0038C15.505 20.2011 15.4662 20.3965 15.3907 20.5788C15.3151 20.7611 15.2045 20.9267 15.0649 21.0663C14.9254 21.2058 14.7598 21.3165 14.5775 21.392C14.3952 21.4675 14.1998 21.5064 14.0024 21.5064C13.8051 21.5064 13.6097 21.4675 13.4274 21.392C13.2451 21.3165 13.0795 21.2058 12.9399 21.0663L8.93994 17.0663C8.8001 16.9269 8.68914 16.7613 8.61343 16.579C8.53773 16.3967 8.49876 16.2012 8.49876 16.0038C8.49876 15.8063 8.53773 15.6109 8.61343 15.4285C8.68914 15.2462 8.8001 15.0806 8.93994 14.9413L12.9399 10.9413C13.0795 10.8017 13.2451 10.691 13.4274 10.6155C13.6097 10.54 13.8051 10.5012 14.0024 10.5012C14.1998 10.5012 14.3952 10.54 14.5775 10.6155C14.7598 10.691 14.9254 10.8017 15.0649 10.9413C15.2045 11.0808 15.3151 11.2464 15.3907 11.4287C15.4662 11.611 15.505 11.8064 15.505 12.0038C15.505 12.2011 15.4662 12.3965 15.3907 12.5788C15.3151 12.7611 15.2045 12.9267 15.0649 13.0663L15.0612 13.0588Z" fill="black"/>
</svg>
