<svg width="32" height="32" viewBox="0 0 32 32" fill="none" xmlns="http://www.w3.org/2000/svg">
<path d="M25.0149 6.98391C23.831 5.79996 22.4254 4.8608 20.8785 4.22005C19.3316 3.5793 17.6736 3.24951 15.9993 3.24951C12.6178 3.24951 9.37475 4.59281 6.98366 6.98391C4.59257 9.375 3.24927 12.618 3.24927 15.9995C3.24927 19.381 4.59257 22.6241 6.98366 25.0152C9.37475 27.4062 12.6178 28.7495 15.9993 28.7495C19.3808 28.7495 22.6238 27.4062 25.0149 25.0152C27.406 22.6241 28.7493 19.381 28.7493 15.9995C28.7493 12.618 27.406 9.375 25.0149 6.98391ZM23.9549 23.9552C22.3816 25.5285 20.377 26.5999 18.1947 27.034C16.0124 27.4681 13.7504 27.2453 11.6948 26.3938C9.63913 25.5423 7.88213 24.1004 6.64597 22.2503C5.40981 20.4003 4.75001 18.2252 4.75001 16.0002C4.75001 13.7751 5.40981 11.6001 6.64597 9.75001C7.88213 7.89996 9.63913 6.45801 11.6948 5.60652C13.7504 4.75503 16.0124 4.53224 18.1947 4.96631C20.377 5.40038 22.3816 6.47183 23.9549 8.04516C26.0617 10.1566 27.2448 13.0175 27.2448 16.0002C27.2448 18.9829 26.0617 21.8437 23.9549 23.9552ZM21.5299 12.5302L18.0612 16.0002L21.5299 19.4702C21.6036 19.5388 21.6627 19.6216 21.7037 19.7136C21.7447 19.8056 21.7667 19.9049 21.7685 20.0056C21.7703 20.1063 21.7518 20.2064 21.714 20.2998C21.6763 20.3931 21.6202 20.478 21.549 20.5492C21.4777 20.6204 21.3929 20.6766 21.2995 20.7143C21.2061 20.752 21.1061 20.7705 21.0054 20.7687C20.9047 20.767 20.8054 20.7449 20.7134 20.7039C20.6214 20.6629 20.5386 20.6038 20.4699 20.5302L16.4699 16.5302C16.3295 16.3895 16.2506 16.1989 16.2506 16.0002C16.2506 15.8014 16.3295 15.6108 16.4699 15.4702L20.4699 11.4702C20.6121 11.3377 20.8001 11.2656 20.9944 11.269C21.1887 11.2724 21.3741 11.3511 21.5115 11.4885C21.6489 11.6259 21.7277 11.8113 21.7311 12.0056C21.7345 12.1999 21.6624 12.388 21.5299 12.5302ZM14.5299 12.5302L11.0612 16.0002L14.5299 19.4702C14.6036 19.5388 14.6627 19.6216 14.7037 19.7136C14.7447 19.8056 14.7667 19.9049 14.7685 20.0056C14.7703 20.1063 14.7518 20.2064 14.714 20.2998C14.6763 20.3931 14.6202 20.478 14.549 20.5492C14.4777 20.6204 14.3929 20.6766 14.2995 20.7143C14.2061 20.752 14.1061 20.7705 14.0054 20.7687C13.9047 20.767 13.8054 20.7449 13.7134 20.7039C13.6214 20.6629 13.5386 20.6038 13.4699 20.5302L9.46991 16.5302C9.32946 16.3895 9.25057 16.1989 9.25057 16.0002C9.25057 15.8014 9.32946 15.6108 9.46991 15.4702L13.4699 11.4702C13.6121 11.3377 13.8001 11.2656 13.9944 11.269C14.1887 11.2724 14.3741 11.3511 14.5115 11.4885C14.6489 11.6259 14.7277 11.8113 14.7311 12.0056C14.7345 12.1999 14.6624 12.388 14.5299 12.5302Z" fill="black"/>
</svg>
