<svg width="32" height="32" viewBox="0 0 32 32" fill="none" xmlns="http://www.w3.org/2000/svg">
<path d="M26.7076 12.7075L16.7076 22.7075C16.6147 22.8005 16.5044 22.8742 16.383 22.9246C16.2616 22.9749 16.1315 23.0008 16.0001 23.0008C15.8686 23.0008 15.7385 22.9749 15.6171 22.9246C15.4957 22.8742 15.3854 22.8005 15.2926 22.7075L5.29256 12.7075C5.15254 12.5676 5.05718 12.3894 5.01853 12.1953C4.97988 12.0012 4.99968 11.8 5.07543 11.6172C5.15119 11.4344 5.27948 11.2782 5.44407 11.1683C5.60867 11.0584 5.80216 10.9998 6.00006 11H26.0001C26.198 10.9998 26.3914 11.0584 26.556 11.1683C26.7206 11.2782 26.8489 11.4344 26.9247 11.6172C27.0004 11.8 27.0202 12.0012 26.9816 12.1953C26.9429 12.3894 26.8476 12.5676 26.7076 12.7075Z" fill="black"/>
</svg>
