<svg width="32" height="32" viewBox="0 0 32 32" fill="none" xmlns="http://www.w3.org/2000/svg">
<path opacity="0.08" d="M26 12L16 22L6 12H26Z" fill="black"/>
<path d="M26.9238 11.6175C26.8482 11.4348 26.72 11.2786 26.5556 11.1686C26.3912 11.0587 26.1978 11 26.0001 11H6.00006C5.80216 10.9998 5.60867 11.0584 5.44407 11.1683C5.27948 11.2782 5.15119 11.4344 5.07543 11.6172C4.99968 11.8 4.97988 12.0012 5.01853 12.1953C5.05718 12.3894 5.15254 12.5676 5.29256 12.7075L15.2926 22.7075C15.3854 22.8005 15.4957 22.8742 15.6171 22.9246C15.7385 22.9749 15.8686 23.0008 16.0001 23.0008C16.1315 23.0008 16.2616 22.9749 16.383 22.9246C16.5044 22.8742 16.6147 22.8005 16.7076 22.7075L26.7076 12.7075C26.8474 12.5676 26.9425 12.3893 26.981 12.1953C27.0195 12.0013 26.9996 11.8002 26.9238 11.6175ZM16.0001 20.5863L8.4138 13H23.5863L16.0001 20.5863Z" fill="black"/>
</svg>
