<svg width="32" height="32" viewBox="0 0 32 32" fill="none" xmlns="http://www.w3.org/2000/svg">
<path opacity="0.08" d="M24.4851 24.485C22.8069 26.1633 20.6687 27.3063 18.3409 27.7694C16.0131 28.2325 13.6003 27.9949 11.4075 27.0866C9.21474 26.1784 7.34054 24.6403 6.02193 22.6669C4.70332 20.6935 3.99951 18.3734 3.99951 16C3.99951 13.6266 4.70332 11.3065 6.02193 9.33308C7.34054 7.35967 9.21474 5.8216 11.4075 4.91338C13.6003 4.00515 16.0131 3.76755 18.3409 4.23064C20.6687 4.69373 22.8069 5.8367 24.4851 7.51501C26.7353 9.76542 27.9995 12.8175 27.9995 16C27.9995 19.1825 26.7353 22.2346 24.4851 24.485Z" fill="black"/>
<path d="M25.1924 6.80766C22.7544 4.36966 19.4478 3 15.9999 3C12.5521 3 9.24542 4.36966 6.80741 6.80766C4.36941 9.24566 2.99976 12.5523 2.99976 16.0002C2.99976 19.448 4.36941 22.7547 6.80741 25.1927C9.24542 27.6307 12.5521 29.0003 15.9999 29.0003C19.4478 29.0003 22.7544 27.6307 25.1924 25.1927C27.6304 22.7547 29.0001 19.448 29.0001 16.0002C29.0001 12.5523 27.6304 9.24566 25.1924 6.80766ZM23.7787 23.7789C22.2402 25.3171 20.2802 26.3646 18.1465 26.7889C16.0127 27.2132 13.8011 26.9953 11.7912 26.1627C9.78128 25.3301 8.06341 23.9202 6.85479 22.1113C5.64616 20.3024 5.00107 18.1757 5.00107 16.0002C5.00107 13.8246 5.64616 11.698 6.85479 9.88906C8.06341 8.08015 9.78128 6.67025 11.7912 5.83764C13.8011 5.00503 16.0127 4.7871 18.1465 5.2114C20.2802 5.63571 22.2402 6.68319 23.7787 8.22141C25.8386 10.2861 26.9954 13.0836 26.9954 16.0002C26.9954 18.9167 25.8386 21.7142 23.7787 23.7789ZM21.7074 12.7077L18.4137 16.0002L21.7074 19.2927C21.8003 19.3856 21.874 19.4959 21.9243 19.6173C21.9746 19.7387 22.0005 19.8688 22.0005 20.0002C22.0005 20.1316 21.9746 20.2617 21.9243 20.3831C21.874 20.5044 21.8003 20.6147 21.7074 20.7077C21.6145 20.8006 21.5042 20.8743 21.3828 20.9246C21.2614 20.9748 21.1313 21.0007 20.9999 21.0007C20.8685 21.0007 20.7384 20.9748 20.617 20.9246C20.4956 20.8743 20.3853 20.8006 20.2924 20.7077L16.2924 16.7077C16.1994 16.6148 16.1257 16.5045 16.0754 16.3831C16.025 16.2617 15.9991 16.1316 15.9991 16.0002C15.9991 15.8687 16.025 15.7386 16.0754 15.6172C16.1257 15.4958 16.1994 15.3855 16.2924 15.2927L20.2924 11.2927C20.3853 11.1997 20.4956 11.126 20.617 11.0758C20.7384 11.0255 20.8685 10.9996 20.9999 10.9996C21.1313 10.9996 21.2614 11.0255 21.3828 11.0758C21.5042 11.126 21.6145 11.1997 21.7074 11.2927C21.8003 11.3856 21.874 11.4959 21.9243 11.6173C21.9746 11.7387 22.0005 11.8688 22.0005 12.0002C22.0005 12.1316 21.9746 12.2617 21.9243 12.3831C21.874 12.5044 21.8003 12.6147 21.7074 12.7077ZM14.7074 12.7077L11.4137 16.0002L14.7074 19.2927C14.8003 19.3856 14.874 19.4959 14.9243 19.6173C14.9746 19.7387 15.0005 19.8688 15.0005 20.0002C15.0005 20.1316 14.9746 20.2617 14.9243 20.3831C14.874 20.5044 14.8003 20.6147 14.7074 20.7077C14.6145 20.8006 14.5042 20.8743 14.3828 20.9246C14.2614 20.9748 14.1313 21.0007 13.9999 21.0007C13.8685 21.0007 13.7384 20.9748 13.617 20.9246C13.4956 20.8743 13.3853 20.8006 13.2924 20.7077L9.29241 16.7077C9.19944 16.6148 9.12568 16.5045 9.07535 16.3831C9.02503 16.2617 8.99913 16.1316 8.99913 16.0002C8.99913 15.8687 9.02503 15.7386 9.07535 15.6172C9.12568 15.4958 9.19944 15.3855 9.29241 15.2927L13.2924 11.2927C13.4801 11.105 13.7346 10.9996 13.9999 10.9996C14.2653 10.9996 14.5198 11.105 14.7074 11.2927C14.8951 11.4803 15.0005 11.7348 15.0005 12.0002C15.0005 12.2655 14.8951 12.52 14.7074 12.7077Z" fill="black"/>
</svg>
