<svg width="32" height="32" viewBox="0 0 32 32" fill="none" xmlns="http://www.w3.org/2000/svg">
<path d="M25.5301 25.4698C25.6038 25.5385 25.6629 25.6213 25.7039 25.7133C25.7448 25.8053 25.7669 25.9046 25.7687 26.0053C25.7704 26.106 25.7519 26.2061 25.7142 26.2994C25.6765 26.3928 25.6203 26.4777 25.5491 26.5489C25.4779 26.6201 25.3931 26.6762 25.2997 26.714C25.2063 26.7517 25.1063 26.7702 25.0056 26.7684C24.9048 26.7667 24.8055 26.7446 24.7135 26.7036C24.6215 26.6626 24.5387 26.6035 24.4701 26.5298L14.4701 16.5298C14.3296 16.3892 14.2507 16.1986 14.2507 15.9998C14.2507 15.8011 14.3296 15.6105 14.4701 15.4698L24.4701 5.46985C24.6122 5.33737 24.8003 5.26524 24.9946 5.26867C25.1889 5.2721 25.3743 5.35081 25.5117 5.48822C25.6491 5.62564 25.7278 5.81102 25.7312 6.00532C25.7347 6.19963 25.6626 6.38767 25.5301 6.52985L16.0613 15.9998L25.5301 25.4698ZM6.06132 15.9998L15.5301 6.52985C15.6626 6.38767 15.7347 6.19963 15.7312 6.00532C15.7278 5.81102 15.6491 5.62564 15.5117 5.48822C15.3743 5.35081 15.1889 5.2721 14.9946 5.26867C14.8003 5.26524 14.6122 5.33737 14.4701 5.46985L4.47007 15.4698C4.32962 15.6105 4.25073 15.8011 4.25073 15.9998C4.25073 16.1986 4.32962 16.3892 4.47007 16.5298L14.4701 26.5298C14.5387 26.6035 14.6215 26.6626 14.7135 26.7036C14.8055 26.7446 14.9048 26.7667 15.0056 26.7684C15.1063 26.7702 15.2063 26.7517 15.2997 26.714C15.3931 26.6762 15.4779 26.6201 15.5491 26.5489C15.6203 26.4777 15.6765 26.3928 15.7142 26.2994C15.7519 26.2061 15.7704 26.106 15.7687 26.0053C15.7669 25.9046 15.7448 25.8053 15.7039 25.7133C15.6629 25.6213 15.6038 25.5385 15.5301 25.4698L6.06132 15.9998Z" fill="black"/>
</svg>
