<svg width="32" height="32" viewBox="0 0 32 32" fill="none" xmlns="http://www.w3.org/2000/svg">
<path opacity="0.08" d="M24.4851 24.485C22.8069 26.1633 20.6687 27.3063 18.3409 27.7694C16.0131 28.2325 13.6003 27.9949 11.4075 27.0866C9.21474 26.1784 7.34054 24.6403 6.02193 22.6669C4.70332 20.6935 3.99951 18.3734 3.99951 16C3.99951 13.6266 4.70332 11.3065 6.02193 9.33308C7.34054 7.35967 9.21474 5.8216 11.4075 4.91338C13.6003 4.00515 16.0131 3.76755 18.3409 4.23064C20.6687 4.69373 22.8069 5.8367 24.4851 7.51501C26.7353 9.76542 27.9995 12.8175 27.9995 16C27.9995 19.1825 26.7353 22.2346 24.4851 24.485Z" fill="black"/>
<path d="M25.1924 6.80766C22.7544 4.36966 19.4478 3 15.9999 3C12.5521 3 9.24542 4.36966 6.80741 6.80766C4.36941 9.24566 2.99976 12.5523 2.99976 16.0002C2.99976 19.448 4.36941 22.7547 6.80741 25.1927C9.24542 27.6307 12.5521 29.0003 15.9999 29.0003C19.4478 29.0003 22.7544 27.6307 25.1924 25.1927C27.6304 22.7547 29.0001 19.448 29.0001 16.0002C29.0001 12.5523 27.6304 9.24566 25.1924 6.80766ZM23.7787 23.7789C22.2402 25.3171 20.2802 26.3646 18.1465 26.7889C16.0127 27.2132 13.8011 26.9953 11.7912 26.1627C9.78128 25.3301 8.06341 23.9202 6.85479 22.1113C5.64616 20.3024 5.00107 18.1757 5.00107 16.0002C5.00107 13.8246 5.64616 11.698 6.85479 9.88906C8.06341 8.08015 9.78128 6.67025 11.7912 5.83764C13.8011 5.00503 16.0127 4.7871 18.1465 5.2114C20.2802 5.63571 22.2402 6.68319 23.7787 8.22141C25.8386 10.2861 26.9954 13.0836 26.9954 16.0002C26.9954 18.9167 25.8386 21.7142 23.7787 23.7789ZM20.7074 10.2927C20.8004 10.3855 20.8742 10.4958 20.9245 10.6172C20.9748 10.7386 21.0007 10.8687 21.0007 11.0002C21.0007 11.1316 20.9748 11.2617 20.9245 11.3831C20.8742 11.5045 20.8004 11.6148 20.7074 11.7077L16.7074 15.7077C16.6145 15.8006 16.5043 15.8744 16.3829 15.9247C16.2615 15.975 16.1313 16.0009 15.9999 16.0009C15.8685 16.0009 15.7384 15.975 15.617 15.9247C15.4956 15.8744 15.3853 15.8006 15.2924 15.7077L11.2924 11.7077C11.1048 11.52 10.9994 11.2655 10.9994 11.0002C10.9994 10.7348 11.1048 10.4803 11.2924 10.2927C11.4801 10.105 11.7346 9.9996 11.9999 9.9996C12.2653 9.9996 12.5198 10.105 12.7074 10.2927L15.9999 13.5864L19.2924 10.2927C19.3853 10.1997 19.4956 10.1259 19.617 10.0756C19.7384 10.0253 19.8685 9.99937 19.9999 9.99937C20.1313 9.99937 20.2615 10.0253 20.3829 10.0756C20.5043 10.1259 20.6145 10.1997 20.7074 10.2927ZM20.7074 17.2927C20.8004 17.3855 20.8742 17.4958 20.9245 17.6172C20.9748 17.7386 21.0007 17.8687 21.0007 18.0002C21.0007 18.1316 20.9748 18.2617 20.9245 18.3831C20.8742 18.5045 20.8004 18.6148 20.7074 18.7077L16.7074 22.7077C16.6145 22.8006 16.5043 22.8744 16.3829 22.9247C16.2615 22.975 16.1313 23.0009 15.9999 23.0009C15.8685 23.0009 15.7384 22.975 15.617 22.9247C15.4956 22.8744 15.3853 22.8006 15.2924 22.7077L11.2924 18.7077C11.1048 18.52 10.9994 18.2655 10.9994 18.0002C10.9994 17.7348 11.1048 17.4803 11.2924 17.2927C11.4801 17.105 11.7346 16.9996 11.9999 16.9996C12.2653 16.9996 12.5198 17.105 12.7074 17.2927L15.9999 20.5864L19.2924 17.2927C19.3853 17.1997 19.4956 17.1259 19.617 17.0756C19.7384 17.0253 19.8685 16.9994 19.9999 16.9994C20.1313 16.9994 20.2615 17.0253 20.3829 17.0756C20.5043 17.1259 20.6145 17.1997 20.7074 17.2927Z" fill="black"/>
</svg>
