<svg width="32" height="32" viewBox="0 0 32 32" fill="none" xmlns="http://www.w3.org/2000/svg">
<path d="M26.5301 20.5298C26.3895 20.6703 26.1988 20.7492 26.0001 20.7492C25.8013 20.7492 25.6107 20.6703 25.4701 20.5298L16.0001 11.0611L6.53009 20.5298C6.38792 20.6623 6.19987 20.7344 6.00557 20.731C5.81127 20.7276 5.62588 20.6489 5.48847 20.5114C5.35106 20.374 5.27234 20.1887 5.26892 19.9944C5.26549 19.8 5.33761 19.612 5.47009 19.4698L15.4701 9.46983C15.6107 9.32938 15.8013 9.25049 16.0001 9.25049C16.1988 9.25049 16.3895 9.32938 16.5301 9.46983L26.5301 19.4698C26.6705 19.6105 26.7494 19.8011 26.7494 19.9998C26.7494 20.1986 26.6705 20.3892 26.5301 20.5298Z" fill="black"/>
</svg>
