<svg width="32" height="32" viewBox="0 0 32 32" fill="none" xmlns="http://www.w3.org/2000/svg">
<path d="M24.8386 7.16139C23.6798 5.99231 22.3014 5.06364 20.7826 4.42871C19.2639 3.79377 17.6347 3.46506 15.9886 3.46146C14.3424 3.45785 12.7118 3.77942 11.1903 4.4077C9.66877 5.03598 8.28634 5.9586 7.12235 7.12259C5.95836 8.28658 5.03574 9.66902 4.40746 11.1905C3.77918 12.712 3.45761 14.3427 3.46121 15.9888C3.46482 17.6349 3.79352 19.2641 4.42846 20.7829C5.0634 22.3016 5.99207 23.68 7.16114 24.8389C8.32002 26.008 9.6984 26.9366 11.2172 27.5716C12.7359 28.2065 14.3651 28.5352 16.0112 28.5388C17.6574 28.5424 19.288 28.2208 20.8095 27.5926C22.331 26.9643 23.7134 26.0417 24.8774 24.8777C26.0414 23.7137 26.964 22.3313 27.5923 20.8097C28.2206 19.2882 28.5422 17.6576 28.5386 16.0115C28.535 14.3653 28.2063 12.7361 27.5713 11.2174C26.9364 9.69865 26.0077 8.32027 24.8386 7.16139ZM24.1311 24.1314C22.2497 26.0126 19.7742 27.1833 17.1264 27.4439C14.4786 27.7045 11.8223 27.039 9.61021 25.5607C7.3981 24.0824 5.76701 21.8828 4.99485 19.3367C4.22269 16.7906 4.35725 14.0556 5.37559 11.5976C6.39393 9.13957 8.23305 7.11071 10.5796 5.85668C12.9261 4.60266 15.6349 4.20106 18.2443 4.72032C20.8537 5.23958 23.2024 6.64756 24.8901 8.70437C26.5778 10.7612 27.5001 13.3395 27.4999 16.0001C27.5041 17.5109 27.2085 19.0075 26.6302 20.4033C26.052 21.7991 25.2025 23.0662 24.1311 24.1314ZM15.3536 15.6464C15.4001 15.6928 15.437 15.748 15.4622 15.8087C15.4873 15.8694 15.5003 15.9344 15.5003 16.0001C15.5003 16.0658 15.4873 16.1309 15.4622 16.1916C15.437 16.2523 15.4001 16.3074 15.3536 16.3539L11.3536 20.3539C11.2598 20.4477 11.1326 20.5004 10.9999 20.5004C10.8672 20.5004 10.74 20.4477 10.6461 20.3539C10.5523 20.2601 10.4996 20.1328 10.4996 20.0001C10.4996 19.8675 10.5523 19.7402 10.6461 19.6464L14.2924 16.0001L10.6461 12.3539C10.5523 12.2601 10.4996 12.1328 10.4996 12.0001C10.4996 11.8675 10.5523 11.7402 10.6461 11.6464C10.74 11.5526 10.8672 11.4999 10.9999 11.4999C11.1326 11.4999 11.2598 11.5526 11.3536 11.6464L15.3536 15.6464ZM22.3536 15.6464C22.4001 15.6928 22.437 15.748 22.4622 15.8087C22.4873 15.8694 22.5003 15.9344 22.5003 16.0001C22.5003 16.0658 22.4873 16.1309 22.4622 16.1916C22.437 16.2523 22.4001 16.3074 22.3536 16.3539L18.3536 20.3539C18.2598 20.4477 18.1326 20.5004 17.9999 20.5004C17.8672 20.5004 17.74 20.4477 17.6461 20.3539C17.5523 20.2601 17.4996 20.1328 17.4996 20.0001C17.4996 19.8675 17.5523 19.7402 17.6461 19.6464L21.2924 16.0001L17.6461 12.3539C17.5523 12.2601 17.4996 12.1328 17.4996 12.0001C17.4996 11.8675 17.5523 11.7402 17.6461 11.6464C17.74 11.5526 17.8672 11.4999 17.9999 11.4999C18.1326 11.4999 18.2598 11.5526 18.3536 11.6464L22.3536 15.6464Z" fill="black"/>
</svg>
