<svg width="32" height="32" viewBox="0 0 32 32" fill="none" xmlns="http://www.w3.org/2000/svg">
<path d="M25.5499 6.45001C23.6615 4.56315 21.256 3.27854 18.6376 2.75857C16.0191 2.2386 13.3053 2.50661 10.8392 3.52873C8.37304 4.55085 6.26531 6.28119 4.78242 8.501C3.29953 10.7208 2.50806 13.3304 2.50806 16C2.50806 18.6696 3.29953 21.2792 4.78242 23.499C6.26531 25.7188 8.37304 27.4492 10.8392 28.4713C13.3053 29.4934 16.0191 29.7614 18.6376 29.2414C21.256 28.7215 23.6615 27.4369 25.5499 25.55C28.0793 23.0153 29.4998 19.5808 29.4998 16C29.4998 12.4192 28.0793 8.98467 25.5499 6.45001ZM23.4249 23.4275C21.9562 24.8951 20.0852 25.8944 18.0486 26.2988C16.0121 26.7033 13.9013 26.4949 11.9831 25.7C10.065 24.905 8.42559 23.5592 7.2722 21.8326C6.11881 20.1061 5.5032 18.0764 5.5032 16C5.5032 13.9236 6.11881 11.8939 7.2722 10.1674C8.42559 8.44083 10.065 7.09501 11.9831 6.30005C13.9013 5.50509 16.0121 5.29668 18.0486 5.70116C20.0852 6.10565 21.9562 7.10487 23.4249 8.57251C25.3925 10.5435 26.4978 13.2145 26.4982 15.9995C26.4987 18.7845 25.3943 21.4559 23.4274 23.4275H23.4249ZM16.0587 14.9388C16.1985 15.0781 16.3095 15.2437 16.3852 15.426C16.4609 15.6084 16.4999 15.8038 16.4999 16.0013C16.4999 16.1987 16.4609 16.3942 16.3852 16.5765C16.3095 16.7588 16.1985 16.9244 16.0587 17.0638L12.0587 21.0638C11.7769 21.3455 11.3947 21.5039 10.9962 21.5039C10.5977 21.5039 10.2155 21.3455 9.93369 21.0638C9.6519 20.782 9.49359 20.3998 9.49359 20.0013C9.49359 19.6027 9.6519 19.2205 9.93369 18.9388L12.8749 16L9.93619 13.0588C9.6544 12.777 9.49609 12.3948 9.49609 11.9963C9.49609 11.7989 9.53495 11.6035 9.61047 11.4212C9.68598 11.2389 9.79666 11.0733 9.93619 10.9338C10.0757 10.7942 10.2414 10.6835 10.4237 10.608C10.606 10.5325 10.8014 10.4937 10.9987 10.4937C11.3972 10.4937 11.7794 10.652 12.0612 10.9338L16.0587 14.9388ZM23.0587 17.0638L19.0587 21.0638C18.7769 21.3455 18.3947 21.5039 17.9962 21.5039C17.5977 21.5039 17.2155 21.3455 16.9337 21.0638C16.6519 20.782 16.4936 20.3998 16.4936 20.0013C16.4936 19.6027 16.6519 19.2205 16.9337 18.9388L19.8749 16L16.9349 13.0588C16.6531 12.777 16.4948 12.3948 16.4948 11.9963C16.4948 11.7989 16.5337 11.6035 16.6092 11.4212C16.6847 11.2389 16.7954 11.0733 16.9349 10.9338C17.0745 10.7942 17.2401 10.6835 17.4224 10.608C17.6047 10.5325 17.8001 10.4937 17.9974 10.4937C18.396 10.4937 18.7781 10.652 19.0599 10.9338L23.0599 14.9338C23.2004 15.0729 23.312 15.2385 23.3882 15.4209C23.4645 15.6033 23.5039 15.799 23.5043 15.9967C23.5046 16.1944 23.4659 16.3903 23.3902 16.573C23.3146 16.7557 23.2037 16.9216 23.0637 17.0613L23.0587 17.0638Z" fill="black"/>
</svg>
