<svg width="32" height="32" viewBox="0 0 32 32" fill="none" xmlns="http://www.w3.org/2000/svg">
<path d="M25.1924 6.80766C22.7544 4.36966 19.4478 3 15.9999 3C12.5521 3 9.24542 4.36966 6.80741 6.80766C4.36941 9.24566 2.99976 12.5523 2.99976 16.0002C2.99976 19.448 4.36941 22.7547 6.80741 25.1927C9.24542 27.6307 12.5521 29.0003 15.9999 29.0003C19.4478 29.0003 22.7544 27.6307 25.1924 25.1927C27.6304 22.7547 29.0001 19.448 29.0001 16.0002C29.0001 12.5523 27.6304 9.24566 25.1924 6.80766ZM23.7787 23.7789C22.2402 25.3171 20.2802 26.3646 18.1465 26.7889C16.0127 27.2132 13.8011 26.9953 11.7912 26.1627C9.78128 25.3301 8.06341 23.9202 6.85479 22.1113C5.64616 20.3024 5.00107 18.1757 5.00107 16.0002C5.00107 13.8246 5.64616 11.698 6.85479 9.88906C8.06341 8.08015 9.78128 6.67025 11.7912 5.83764C13.8011 5.00503 16.0127 4.7871 18.1465 5.2114C20.2802 5.63571 22.2402 6.68319 23.7787 8.22141C25.8386 10.2861 26.9954 13.0836 26.9954 16.0002C26.9954 18.9167 25.8386 21.7142 23.7787 23.7789ZM20.7074 20.2927C20.8951 20.4803 21.0005 20.7348 21.0005 21.0002C21.0005 21.2655 20.8951 21.52 20.7074 21.7077C20.5198 21.8953 20.2653 22.0007 19.9999 22.0007C19.7346 22.0007 19.4801 21.8953 19.2924 21.7077L15.9999 18.4139L12.7074 21.7077C12.6145 21.8006 12.5042 21.8743 12.3828 21.9246C12.2614 21.9748 12.1313 22.0007 11.9999 22.0007C11.8685 22.0007 11.7384 21.9748 11.617 21.9246C11.4956 21.8743 11.3853 21.8006 11.2924 21.7077C11.1995 21.6147 11.1258 21.5044 11.0755 21.3831C11.0252 21.2617 10.9994 21.1316 10.9994 21.0002C10.9994 20.8688 11.0252 20.7387 11.0755 20.6173C11.1258 20.4959 11.1995 20.3856 11.2924 20.2927L15.2924 16.2927C15.3853 16.1997 15.4956 16.1259 15.617 16.0756C15.7384 16.0253 15.8685 15.9994 15.9999 15.9994C16.1313 15.9994 16.2615 16.0253 16.3829 16.0756C16.5043 16.1259 16.6145 16.1997 16.7074 16.2927L20.7074 20.2927ZM20.7074 13.2927C20.8003 13.3856 20.874 13.4959 20.9243 13.6173C20.9746 13.7387 21.0005 13.8688 21.0005 14.0002C21.0005 14.1316 20.9746 14.2617 20.9243 14.3831C20.874 14.5044 20.8003 14.6147 20.7074 14.7077C20.6145 14.8006 20.5042 14.8743 20.3828 14.9246C20.2614 14.9748 20.1313 15.0007 19.9999 15.0007C19.8685 15.0007 19.7384 14.9748 19.617 14.9246C19.4956 14.8743 19.3853 14.8006 19.2924 14.7077L15.9999 11.4139L12.7074 14.7077C12.5198 14.8953 12.2653 15.0007 11.9999 15.0007C11.7346 15.0007 11.4801 14.8953 11.2924 14.7077C11.1048 14.52 10.9994 14.2655 10.9994 14.0002C10.9994 13.7348 11.1048 13.4803 11.2924 13.2927L15.2924 9.29266C15.3853 9.19968 15.4956 9.12592 15.617 9.0756C15.7384 9.02527 15.8685 8.99937 15.9999 8.99937C16.1313 8.99937 16.2615 9.02527 16.3829 9.0756C16.5043 9.12592 16.6145 9.19968 16.7074 9.29266L20.7074 13.2927Z" fill="black"/>
</svg>
