<svg width="32" height="32" viewBox="0 0 32 32" fill="none" xmlns="http://www.w3.org/2000/svg">
<path opacity="0.08" d="M26 6L16 16L6 6H26Z" fill="black"/>
<path d="M26.7076 16.7075L16.7076 26.7075C16.6147 26.8005 16.5044 26.8742 16.383 26.9246C16.2616 26.9749 16.1315 27.0008 16.0001 27.0008C15.8686 27.0008 15.7385 26.9749 15.6171 26.9246C15.4957 26.8742 15.3854 26.8005 15.2926 26.7075L5.29256 16.7075C5.10491 16.5199 4.9995 16.2654 4.9995 16C4.9995 15.7346 5.10491 15.4801 5.29256 15.2925C5.4802 15.1049 5.73469 14.9994 6.00006 14.9994C6.26542 14.9994 6.51991 15.1049 6.70756 15.2925L16.0001 24.5863L25.2926 15.2925C25.3855 15.1996 25.4958 15.1259 25.6172 15.0756C25.7386 15.0253 25.8687 14.9994 26.0001 14.9994C26.1315 14.9994 26.2616 15.0253 26.383 15.0756C26.5043 15.1259 26.6146 15.1996 26.7076 15.2925C26.8005 15.3854 26.8742 15.4957 26.9244 15.6171C26.9747 15.7385 27.0006 15.8686 27.0006 16C27.0006 16.1314 26.9747 16.2615 26.9244 16.3829C26.8742 16.5043 26.8005 16.6146 26.7076 16.7075ZM5.29256 6.7075C5.15254 6.56764 5.05718 6.38939 5.01853 6.19531C4.97988 6.00122 4.99968 5.80003 5.07543 5.61721C5.15119 5.43439 5.27948 5.27815 5.44407 5.16828C5.60867 5.05841 5.80216 4.99984 6.00006 5H26.0001C26.198 4.99984 26.3914 5.05841 26.556 5.16828C26.7206 5.27815 26.8489 5.43439 26.9247 5.61721C27.0004 5.80003 27.0202 6.00122 26.9816 6.19531C26.9429 6.38939 26.8476 6.56764 26.7076 6.7075L16.7076 16.7075C16.6147 16.8005 16.5044 16.8742 16.383 16.9246C16.2616 16.9749 16.1315 17.0008 16.0001 17.0008C15.8686 17.0008 15.7385 16.9749 15.6171 16.9246C15.4957 16.8742 15.3854 16.8005 15.2926 16.7075L5.29256 6.7075ZM8.41755 7L16.0001 14.5863L23.5863 7H8.41755Z" fill="black"/>
</svg>
