<svg width="32" height="32" viewBox="0 0 32 32" fill="none" xmlns="http://www.w3.org/2000/svg">
<path opacity="0.08" d="M26 26H6L16 16L26 26Z" fill="black"/>
<path d="M16.7074 15.2923C16.6145 15.1993 16.5042 15.1256 16.3828 15.0753C16.2614 15.0249 16.1313 14.999 15.9999 14.999C15.8685 14.999 15.7384 15.0249 15.617 15.0753C15.4956 15.1256 15.3853 15.1993 15.2924 15.2923L5.2924 25.2923C5.15239 25.4322 5.05702 25.6104 5.01837 25.8045C4.97972 25.9986 4.99952 26.1998 5.07528 26.3826C5.15103 26.5654 5.27932 26.7217 5.44392 26.8315C5.60851 26.9414 5.802 27 5.9999 26.9998H25.9999C26.1978 27 26.3913 26.9414 26.5559 26.8315C26.7205 26.7217 26.8488 26.5654 26.9245 26.3826C27.0003 26.1998 27.0201 25.9986 26.9814 25.8045C26.9428 25.6104 26.8474 25.4322 26.7074 25.2923L16.7074 15.2923ZM8.41365 24.9998L15.9999 17.4136L23.5861 24.9998H8.41365ZM5.28865 16.7073C5.19567 16.6144 5.12191 16.5041 5.07159 16.3828C5.02126 16.2614 4.99536 16.1312 4.99536 15.9998C4.99536 15.8684 5.02126 15.7383 5.07159 15.6169C5.12191 15.4955 5.19567 15.3852 5.28865 15.2923L15.2886 5.29231C15.3815 5.19933 15.4918 5.12557 15.6132 5.07525C15.7346 5.02493 15.8647 4.99902 15.9961 4.99902C16.1276 4.99902 16.2577 5.02493 16.3791 5.07525C16.5005 5.12557 16.6108 5.19933 16.7036 5.29231L26.7036 15.2923C26.8913 15.4799 26.9967 15.7344 26.9967 15.9998C26.9967 16.2652 26.8913 16.5197 26.7036 16.7073C26.516 16.895 26.2615 17.0004 25.9961 17.0004C25.7308 17.0004 25.4763 16.895 25.2886 16.7073L15.9999 7.41356L6.7074 16.7073C6.61452 16.8003 6.50424 16.874 6.38284 16.9244C6.26144 16.9747 6.13131 17.0006 5.9999 17.0006C5.86848 17.0006 5.73836 16.9747 5.61696 16.9244C5.49556 16.874 5.38527 16.8003 5.2924 16.7073H5.28865Z" fill="black"/>
</svg>
