<svg width="32" height="32" viewBox="0 0 32 32" fill="none" xmlns="http://www.w3.org/2000/svg">
<path d="M25.0149 6.98391C23.831 5.79996 22.4254 4.8608 20.8785 4.22005C19.3316 3.5793 17.6736 3.24951 15.9993 3.24951C12.6178 3.24951 9.37475 4.59281 6.98366 6.98391C4.59257 9.375 3.24927 12.618 3.24927 15.9995C3.24927 19.381 4.59257 22.6241 6.98366 25.0152C9.37475 27.4062 12.6178 28.7495 15.9993 28.7495C19.3808 28.7495 22.6238 27.4062 25.0149 25.0152C27.406 22.6241 28.7493 19.381 28.7493 15.9995C28.7493 12.618 27.406 9.375 25.0149 6.98391ZM23.9549 23.9552C22.3816 25.5285 20.377 26.5999 18.1947 27.034C16.0124 27.4681 13.7504 27.2453 11.6948 26.3938C9.63913 25.5423 7.88213 24.1004 6.64597 22.2503C5.40981 20.4003 4.75001 18.2252 4.75001 16.0002C4.75001 13.7751 5.40981 11.6001 6.64597 9.75001C7.88213 7.89996 9.63913 6.45801 11.6948 5.60652C13.7504 4.75503 16.0124 4.53224 18.1947 4.96631C20.377 5.40038 22.3816 6.47183 23.9549 8.04516C26.0617 10.1566 27.2448 13.0175 27.2448 16.0002C27.2448 18.9829 26.0617 21.8437 23.9549 23.9552ZM20.5299 20.4702C20.6036 20.5388 20.6627 20.6216 20.7037 20.7136C20.7447 20.8056 20.7667 20.9049 20.7685 21.0056C20.7703 21.1063 20.7518 21.2064 20.714 21.2998C20.6763 21.3931 20.6202 21.478 20.549 21.5492C20.4777 21.6204 20.3929 21.6766 20.2995 21.7143C20.2061 21.752 20.1061 21.7705 20.0054 21.7687C19.9047 21.767 19.8054 21.7449 19.7134 21.7039C19.6214 21.6629 19.5386 21.6038 19.4699 21.5302L15.9999 18.0614L12.5299 21.5302C12.3877 21.6626 12.1997 21.7348 12.0054 21.7313C11.8111 21.7279 11.6257 21.6492 11.4883 21.5118C11.3509 21.3744 11.2722 21.189 11.2687 20.9947C11.2653 20.8004 11.3374 20.6123 11.4699 20.4702L15.4699 16.4702C15.6105 16.3297 15.8012 16.2508 15.9999 16.2508C16.1987 16.2508 16.3893 16.3297 16.5299 16.4702L20.5299 20.4702ZM20.5299 13.4702C20.6036 13.5388 20.6627 13.6216 20.7037 13.7136C20.7447 13.8056 20.7667 13.9049 20.7685 14.0056C20.7703 14.1063 20.7518 14.2064 20.714 14.2998C20.6763 14.3931 20.6202 14.478 20.549 14.5492C20.4777 14.6204 20.3929 14.6766 20.2995 14.7143C20.2061 14.752 20.1061 14.7705 20.0054 14.7687C19.9047 14.767 19.8054 14.7449 19.7134 14.7039C19.6214 14.6629 19.5386 14.6038 19.4699 14.5302L15.9999 11.0614L12.5299 14.5302C12.3877 14.6626 12.1997 14.7348 12.0054 14.7313C11.8111 14.7279 11.6257 14.6492 11.4883 14.5118C11.3509 14.3744 11.2722 14.189 11.2687 13.9947C11.2653 13.8004 11.3374 13.6123 11.4699 13.4702L15.4699 9.47016C15.6105 9.32971 15.8012 9.25082 15.9999 9.25082C16.1987 9.25082 16.3893 9.32971 16.5299 9.47016L20.5299 13.4702Z" fill="black"/>
</svg>
