<svg width="32" height="32" viewBox="0 0 32 32" fill="none" xmlns="http://www.w3.org/2000/svg">
<path d="M22.3538 16.3535L12.3538 26.3535C12.3073 26.4 12.2522 26.4368 12.1915 26.462C12.1308 26.4871 12.0657 26.5001 12 26.5001C11.9343 26.5001 11.8693 26.4871 11.8086 26.462C11.7479 26.4368 11.6927 26.4 11.6463 26.3535C11.5998 26.3071 11.563 26.2519 11.5378 26.1912C11.5127 26.1305 11.4998 26.0655 11.4998 25.9998C11.4998 25.9341 11.5127 25.869 11.5378 25.8083C11.563 25.7476 11.5998 25.6925 11.6463 25.646L21.2925 15.9998L11.6463 6.35354C11.5525 6.25972 11.4998 6.13247 11.4998 5.99979C11.4998 5.86711 11.5525 5.73986 11.6463 5.64604C11.7401 5.55222 11.8674 5.49951 12 5.49951C12.1327 5.49951 12.26 5.55222 12.3538 5.64604L22.3538 15.646C22.4003 15.6925 22.4372 15.7476 22.4623 15.8083C22.4875 15.869 22.5004 15.9341 22.5004 15.9998C22.5004 16.0655 22.4875 16.1306 22.4623 16.1913C22.4372 16.252 22.4003 16.3071 22.3538 16.3535Z" fill="black"/>
</svg>
