<svg width="32" height="32" viewBox="0 0 32 32" fill="none" xmlns="http://www.w3.org/2000/svg">
<path d="M24.8386 7.16139C23.6798 5.99231 22.3014 5.06364 20.7826 4.42871C19.2639 3.79377 17.6347 3.46506 15.9886 3.46146C14.3424 3.45785 12.7118 3.77942 11.1903 4.4077C9.66877 5.03598 8.28634 5.9586 7.12235 7.12259C5.95836 8.28658 5.03574 9.66902 4.40746 11.1905C3.77918 12.712 3.45761 14.3427 3.46121 15.9888C3.46482 17.6349 3.79352 19.2641 4.42846 20.7829C5.0634 22.3016 5.99207 23.68 7.16114 24.8389C8.32002 26.008 9.6984 26.9366 11.2172 27.5716C12.7359 28.2065 14.3651 28.5352 16.0112 28.5388C17.6574 28.5424 19.288 28.2208 20.8095 27.5926C22.331 26.9643 23.7134 26.0417 24.8774 24.8777C26.0414 23.7137 26.964 22.3313 27.5923 20.8097C28.2206 19.2882 28.5422 17.6576 28.5386 16.0115C28.535 14.3653 28.2063 12.7361 27.5713 11.2174C26.9364 9.69865 26.0077 8.32027 24.8386 7.16139ZM24.1311 24.1314C22.2497 26.0126 19.7742 27.1833 17.1264 27.4439C14.4786 27.7045 11.8223 27.039 9.61021 25.5607C7.3981 24.0824 5.76701 21.8828 4.99485 19.3367C4.22269 16.7906 4.35725 14.0556 5.37559 11.5976C6.39393 9.13957 8.23305 7.11071 10.5796 5.85668C12.9261 4.60266 15.6349 4.20106 18.2443 4.72032C20.8537 5.23958 23.2024 6.64756 24.8901 8.70437C26.5778 10.7612 27.5001 13.3395 27.4999 16.0001C27.5041 17.5109 27.2085 19.0075 26.6302 20.4033C26.052 21.7991 25.2025 23.0662 24.1311 24.1314ZM20.3536 10.6464C20.4001 10.6928 20.437 10.748 20.4622 10.8087C20.4873 10.8694 20.5003 10.9344 20.5003 11.0001C20.5003 11.0658 20.4873 11.1309 20.4622 11.1916C20.437 11.2523 20.4001 11.3074 20.3536 11.3539L16.3536 15.3539C16.3072 15.4004 16.2521 15.4373 16.1914 15.4624C16.1307 15.4876 16.0656 15.5005 15.9999 15.5005C15.9342 15.5005 15.8691 15.4876 15.8084 15.4624C15.7477 15.4373 15.6926 15.4004 15.6461 15.3539L11.6461 11.3539C11.5523 11.2601 11.4996 11.1328 11.4996 11.0001C11.4996 10.8675 11.5523 10.7402 11.6461 10.6464C11.74 10.5526 11.8672 10.4999 11.9999 10.4999C12.1326 10.4999 12.2598 10.5526 12.3536 10.6464L15.9999 14.2926L19.6461 10.6464C19.6926 10.5999 19.7477 10.563 19.8084 10.5379C19.8691 10.5127 19.9342 10.4997 19.9999 10.4997C20.0656 10.4997 20.1307 10.5127 20.1914 10.5379C20.2521 10.563 20.3072 10.5999 20.3536 10.6464ZM20.3536 17.6464C20.4001 17.6928 20.437 17.748 20.4622 17.8087C20.4873 17.8694 20.5003 17.9344 20.5003 18.0001C20.5003 18.0658 20.4873 18.1309 20.4622 18.1916C20.437 18.2523 20.4001 18.3074 20.3536 18.3539L16.3536 22.3539C16.3072 22.4004 16.2521 22.4373 16.1914 22.4624C16.1307 22.4876 16.0656 22.5005 15.9999 22.5005C15.9342 22.5005 15.8691 22.4876 15.8084 22.4624C15.7477 22.4373 15.6926 22.4004 15.6461 22.3539L11.6461 18.3539C11.5523 18.2601 11.4996 18.1328 11.4996 18.0001C11.4996 17.8675 11.5523 17.7402 11.6461 17.6464C11.74 17.5526 11.8672 17.4999 11.9999 17.4999C12.1326 17.4999 12.2598 17.5526 12.3536 17.6464L15.9999 21.2926L19.6461 17.6464C19.6926 17.5999 19.7477 17.563 19.8084 17.5379C19.8691 17.5127 19.9342 17.4997 19.9999 17.4997C20.0656 17.4997 20.1307 17.5127 20.1914 17.5379C20.2521 17.563 20.3072 17.5999 20.3536 17.6464Z" fill="black"/>
</svg>
