<svg width="32" height="32" viewBox="0 0 32 32" fill="none" xmlns="http://www.w3.org/2000/svg">
<path d="M22.5301 21.4698C22.6705 21.6105 22.7494 21.8011 22.7494 21.9998C22.7494 22.1986 22.6705 22.3892 22.5301 22.5298L16.5301 28.5298C16.3895 28.6703 16.1988 28.7492 16.0001 28.7492C15.8013 28.7492 15.6107 28.6703 15.4701 28.5298L9.47009 22.5298C9.33761 22.3877 9.26549 22.1996 9.26892 22.0053C9.27234 21.811 9.35106 21.6256 9.48847 21.4882C9.62588 21.3508 9.81127 21.2721 10.0056 21.2687C10.1999 21.2652 10.3879 21.3373 10.5301 21.4698L16.0001 26.9386L21.4701 21.4698C21.6107 21.3294 21.8013 21.2505 22.0001 21.2505C22.1988 21.2505 22.3895 21.3294 22.5301 21.4698ZM10.5301 10.5298L16.0001 5.06108L21.4701 10.5298C21.6123 10.6623 21.8003 10.7344 21.9946 10.731C22.1889 10.7276 22.3743 10.6489 22.5117 10.5114C22.6491 10.374 22.7278 10.1887 22.7313 9.99435C22.7347 9.80005 22.6626 9.612 22.5301 9.46983L16.5301 3.46983C16.3895 3.32938 16.1988 3.25049 16.0001 3.25049C15.8013 3.25049 15.6107 3.32938 15.4701 3.46983L9.47009 9.46983C9.33761 9.612 9.26549 9.80005 9.26892 9.99435C9.27234 10.1887 9.35106 10.374 9.48847 10.5114C9.62588 10.6489 9.81127 10.7276 10.0056 10.731C10.1999 10.7344 10.3879 10.6623 10.5301 10.5298Z" fill="black"/>
</svg>
