<svg width="32" height="32" viewBox="0 0 32 32" fill="none" xmlns="http://www.w3.org/2000/svg">
<path d="M22.5301 16.5298L12.5301 26.5298C12.3879 26.6623 12.1999 26.7344 12.0056 26.731C11.8113 26.7276 11.6259 26.6489 11.4885 26.5115C11.3511 26.3741 11.2723 26.1887 11.2689 25.9944C11.2655 25.8001 11.3376 25.612 11.4701 25.4698L20.9388 15.9998L11.4701 6.52985C11.3376 6.38767 11.2655 6.19963 11.2689 6.00532C11.2723 5.81102 11.3511 5.62564 11.4885 5.48822C11.6259 5.35081 11.8113 5.2721 12.0056 5.26867C12.1999 5.26524 12.3879 5.33737 12.5301 5.46985L22.5301 15.4698C22.6705 15.6105 22.7494 15.8011 22.7494 15.9998C22.7494 16.1986 22.6705 16.3892 22.5301 16.5298Z" fill="black"/>
</svg>
