<svg width="32" height="32" viewBox="0 0 32 32" fill="none" xmlns="http://www.w3.org/2000/svg">
<path d="M24.8386 7.16139C23.6798 5.99231 22.3014 5.06364 20.7826 4.42871C19.2639 3.79377 17.6347 3.46506 15.9886 3.46146C14.3424 3.45785 12.7118 3.77942 11.1903 4.4077C9.66877 5.03598 8.28634 5.9586 7.12235 7.12259C5.95836 8.28658 5.03574 9.66902 4.40746 11.1905C3.77918 12.712 3.45761 14.3427 3.46121 15.9888C3.46482 17.6349 3.79352 19.2641 4.42846 20.7829C5.0634 22.3016 5.99207 23.68 7.16114 24.8389C8.32002 26.008 9.6984 26.9366 11.2172 27.5716C12.7359 28.2065 14.3651 28.5352 16.0112 28.5388C17.6574 28.5424 19.288 28.2208 20.8095 27.5926C22.331 26.9643 23.7134 26.0417 24.8774 24.8777C26.0414 23.7137 26.964 22.3313 27.5923 20.8097C28.2206 19.2882 28.5422 17.6576 28.5386 16.0115C28.535 14.3653 28.2063 12.7361 27.5713 11.2174C26.9364 9.69865 26.0077 8.32027 24.8386 7.16139ZM24.1311 24.1314C22.2497 26.0126 19.7742 27.1833 17.1264 27.4439C14.4786 27.7045 11.8223 27.039 9.61021 25.5607C7.3981 24.0824 5.76701 21.8828 4.99485 19.3367C4.22269 16.7906 4.35725 14.0556 5.37559 11.5976C6.39393 9.13957 8.23305 7.11071 10.5796 5.85668C12.9261 4.60266 15.6349 4.20106 18.2443 4.72032C20.8537 5.23958 23.2024 6.64756 24.8901 8.70437C26.5778 10.7612 27.5001 13.3395 27.4999 16.0001C27.5041 17.5109 27.2085 19.0075 26.6302 20.4033C26.052 21.7991 25.2025 23.0662 24.1311 24.1314ZM20.3536 20.6464C20.4475 20.7402 20.5002 20.8675 20.5002 21.0001C20.5002 21.1328 20.4475 21.2601 20.3536 21.3539C20.2598 21.4477 20.1326 21.5004 19.9999 21.5004C19.8672 21.5004 19.74 21.4477 19.6461 21.3539L15.9999 17.7076L12.3536 21.3539C12.2598 21.4477 12.1326 21.5004 11.9999 21.5004C11.8672 21.5004 11.74 21.4477 11.6461 21.3539C11.5523 21.2601 11.4996 21.1328 11.4996 21.0001C11.4996 20.8675 11.5523 20.7402 11.6461 20.6464L15.6461 16.6464C15.6926 16.5999 15.7477 16.563 15.8084 16.5379C15.8691 16.5127 15.9342 16.4997 15.9999 16.4997C16.0656 16.4997 16.1307 16.5127 16.1914 16.5379C16.2521 16.563 16.3072 16.5999 16.3536 16.6464L20.3536 20.6464ZM20.3536 13.6464C20.4475 13.7402 20.5002 13.8675 20.5002 14.0001C20.5002 14.1328 20.4475 14.2601 20.3536 14.3539C20.2598 14.4477 20.1326 14.5004 19.9999 14.5004C19.8672 14.5004 19.74 14.4477 19.6461 14.3539L15.9999 10.7076L12.3536 14.3539C12.2598 14.4477 12.1326 14.5004 11.9999 14.5004C11.8672 14.5004 11.74 14.4477 11.6461 14.3539C11.5523 14.2601 11.4996 14.1328 11.4996 14.0001C11.4996 13.8675 11.5523 13.7402 11.6461 13.6464L15.6461 9.64639C15.6926 9.5999 15.7477 9.56302 15.8084 9.53786C15.8691 9.51269 15.9342 9.49974 15.9999 9.49974C16.0656 9.49974 16.1307 9.51269 16.1914 9.53786C16.2521 9.56302 16.3072 9.5999 16.3536 9.64639L20.3536 13.6464Z" fill="black"/>
</svg>
