<svg width="32" height="32" viewBox="0 0 32 32" fill="none" xmlns="http://www.w3.org/2000/svg">
<path d="M21.0613 24.9386C21.3431 25.2204 21.5014 25.6026 21.5014 26.0011C21.5014 26.3997 21.3431 26.7818 21.0613 27.0636C20.7795 27.3454 20.3973 27.5037 19.9988 27.5037C19.6003 27.5037 19.2181 27.3454 18.9363 27.0636L8.9363 17.0636C8.79646 16.9243 8.6855 16.7587 8.6098 16.5764C8.53409 16.394 8.49512 16.1986 8.49512 16.0011C8.49512 15.8037 8.53409 15.6082 8.6098 15.4259C8.6855 15.2436 8.79646 15.078 8.9363 14.9386L18.9363 4.93864C19.2181 4.65684 19.6003 4.49854 19.9988 4.49854C20.3973 4.49854 20.7795 4.65684 21.0613 4.93864C21.3431 5.22043 21.5014 5.60262 21.5014 6.00114C21.5014 6.39965 21.3431 6.78184 21.0613 7.06364L12.125 15.9999L21.0613 24.9386Z" fill="black"/>
</svg>
