<svg width="32" height="32" viewBox="0 0 32 32" fill="none" xmlns="http://www.w3.org/2000/svg">
<path d="M26.3538 20.3537C26.3073 20.4001 26.2522 20.437 26.1915 20.4622C26.1308 20.4873 26.0657 20.5003 26 20.5003C25.9343 20.5003 25.8693 20.4873 25.8086 20.4622C25.7479 20.437 25.6927 20.4001 25.6463 20.3537L16 10.7074L6.35378 20.3537C6.25996 20.4475 6.13272 20.5002 6.00003 20.5002C5.86735 20.5002 5.7401 20.4475 5.64628 20.3537C5.55246 20.2598 5.49976 20.1326 5.49976 19.9999C5.49976 19.8672 5.55246 19.74 5.64628 19.6462L15.6463 9.64615C15.6927 9.59967 15.7479 9.56279 15.8086 9.53762C15.8693 9.51246 15.9343 9.49951 16 9.49951C16.0657 9.49951 16.1308 9.51246 16.1915 9.53762C16.2522 9.56279 16.3073 9.59967 16.3538 9.64615L26.3538 19.6462C26.4003 19.6926 26.4372 19.7477 26.4623 19.8084C26.4875 19.8691 26.5004 19.9342 26.5004 19.9999C26.5004 20.0656 26.4875 20.1307 26.4623 20.1914C26.4372 20.2521 26.4003 20.3072 26.3538 20.3537Z" fill="black"/>
</svg>
