<svg width="32" height="32" viewBox="0 0 32 32" fill="none" xmlns="http://www.w3.org/2000/svg">
<path d="M26.5301 25.4698C26.6038 25.5385 26.6629 25.6213 26.7039 25.7133C26.7449 25.8053 26.7669 25.9046 26.7687 26.0053C26.7705 26.106 26.7519 26.206 26.7142 26.2994C26.6765 26.3928 26.6203 26.4776 26.5491 26.5489C26.4779 26.6201 26.3931 26.6762 26.2997 26.714C26.2063 26.7517 26.1063 26.7702 26.0056 26.7684C25.9049 26.7666 25.8056 26.7446 25.7136 26.7036C25.6216 26.6626 25.5388 26.6035 25.4701 26.5298L16.0001 17.0611L6.53009 26.5298C6.38792 26.6623 6.19987 26.7344 6.00557 26.731C5.81127 26.7276 5.62588 26.6489 5.48847 26.5114C5.35106 26.374 5.27234 26.1887 5.26892 25.9944C5.26549 25.8 5.33761 25.612 5.47009 25.4698L15.4701 15.4698C15.6107 15.3294 15.8013 15.2505 16.0001 15.2505C16.1988 15.2505 16.3895 15.3294 16.5301 15.4698L26.5301 25.4698ZM6.53009 16.5298L16.0001 7.06108L25.4701 16.5298C25.6123 16.6623 25.8003 16.7344 25.9946 16.731C26.1889 16.7276 26.3743 16.6489 26.5117 16.5114C26.6491 16.374 26.7278 16.1887 26.7313 15.9944C26.7347 15.8 26.6626 15.612 26.5301 15.4698L16.5301 5.46983C16.3895 5.32938 16.1988 5.25049 16.0001 5.25049C15.8013 5.25049 15.6107 5.32938 15.4701 5.46983L5.47009 15.4698C5.33761 15.612 5.26549 15.8 5.26892 15.9944C5.27234 16.1887 5.35106 16.374 5.48847 16.5114C5.62588 16.6489 5.81127 16.7276 6.00557 16.731C6.19987 16.7344 6.38792 16.6623 6.53009 16.5298Z" fill="black"/>
</svg>
