<svg width="32" height="32" viewBox="0 0 32 32" fill="none" xmlns="http://www.w3.org/2000/svg">
<path d="M26.3538 25.6462C26.4476 25.74 26.5003 25.8672 26.5003 25.9999C26.5003 26.1326 26.4476 26.2598 26.3538 26.3537C26.26 26.4475 26.1327 26.5002 26 26.5002C25.8674 26.5002 25.7401 26.4475 25.6463 26.3537L16 16.7074L6.35378 26.3537C6.30733 26.4001 6.25218 26.437 6.19148 26.4621C6.13079 26.4872 6.06573 26.5002 6.00003 26.5002C5.93434 26.5002 5.86928 26.4872 5.80859 26.4621C5.74789 26.437 5.69274 26.4001 5.64628 26.3537C5.59983 26.3072 5.56298 26.252 5.53784 26.1914C5.5127 26.1307 5.49976 26.0656 5.49976 25.9999C5.49976 25.9342 5.5127 25.8692 5.53784 25.8085C5.56298 25.7478 5.59983 25.6926 5.64628 25.6462L15.6463 15.6462C15.6927 15.5997 15.7479 15.5628 15.8086 15.5376C15.8693 15.5125 15.9343 15.4995 16 15.4995C16.0657 15.4995 16.1308 15.5125 16.1915 15.5376C16.2522 15.5628 16.3073 15.5997 16.3538 15.6462L26.3538 25.6462ZM6.35378 16.3537L16 6.70741L25.6463 16.3537C25.6927 16.4001 25.7479 16.437 25.8086 16.4621C25.8693 16.4872 25.9343 16.5002 26 16.5002C26.0657 16.5002 26.1308 16.4872 26.1915 16.4621C26.2522 16.437 26.3073 16.4001 26.3538 16.3537C26.4002 16.3072 26.4371 16.252 26.4622 16.1914C26.4874 16.1307 26.5003 16.0656 26.5003 15.9999C26.5003 15.9342 26.4874 15.8692 26.4622 15.8085C26.4371 15.7478 26.4002 15.6926 26.3538 15.6462L16.3538 5.64615C16.3073 5.59967 16.2522 5.56279 16.1915 5.53763C16.1308 5.51246 16.0657 5.49951 16 5.49951C15.9343 5.49951 15.8693 5.51246 15.8086 5.53763C15.7479 5.56279 15.6927 5.59967 15.6463 5.64615L5.64628 15.6462C5.55246 15.74 5.49976 15.8672 5.49976 15.9999C5.49976 16.1326 5.55246 16.2598 5.64628 16.3537C5.7401 16.4475 5.86735 16.5002 6.00003 16.5002C6.13272 16.5002 6.25996 16.4475 6.35378 16.3537Z" fill="black"/>
</svg>
