<svg width="32" height="32" viewBox="0 0 32 32" fill="none" xmlns="http://www.w3.org/2000/svg">
<path d="M25.5499 6.45001C23.6615 4.56315 21.256 3.27854 18.6376 2.75857C16.0191 2.2386 13.3053 2.50661 10.8392 3.52873C8.37304 4.55085 6.26531 6.28119 4.78242 8.501C3.29953 10.7208 2.50806 13.3304 2.50806 16C2.50806 18.6696 3.29953 21.2792 4.78242 23.499C6.26531 25.7188 8.37304 27.4492 10.8392 28.4713C13.3053 29.4934 16.0191 29.7614 18.6376 29.2414C21.256 28.7215 23.6615 27.4369 25.5499 25.55C28.0793 23.0153 29.4998 19.5808 29.4998 16C29.4998 12.4192 28.0793 8.98467 25.5499 6.45001ZM23.4249 23.4275C21.9562 24.8951 20.0852 25.8944 18.0486 26.2988C16.0121 26.7033 13.9013 26.4949 11.9831 25.7C10.065 24.905 8.42559 23.5592 7.2722 21.8326C6.11881 20.1061 5.5032 18.0764 5.5032 16C5.5032 13.9236 6.11881 11.8939 7.2722 10.1674C8.42559 8.44083 10.065 7.09501 11.9831 6.30005C13.9013 5.50509 16.0121 5.29668 18.0486 5.70116C20.0852 6.10565 21.9562 7.10487 23.4249 8.57251C25.3925 10.5435 26.4978 13.2145 26.4982 15.9995C26.4987 18.7845 25.3943 21.4559 23.4274 23.4275H23.4249ZM21.0624 9.93626C21.2023 10.0756 21.3132 10.2412 21.3889 10.4235C21.4647 10.6059 21.5036 10.8013 21.5036 10.9988C21.5036 11.1962 21.4647 11.3917 21.3889 11.574C21.3132 11.7563 21.2023 11.9219 21.0624 12.0613L17.0624 16.0613C16.9231 16.2011 16.7575 16.312 16.5752 16.3878C16.3928 16.4635 16.1974 16.5024 15.9999 16.5024C15.8025 16.5024 15.607 16.4635 15.4247 16.3878C15.2424 16.312 15.0768 16.2011 14.9374 16.0613L10.9374 12.0613C10.7979 11.9217 10.6872 11.7561 10.6117 11.5738C10.5362 11.3915 10.4973 11.1961 10.4973 10.9988C10.4973 10.8014 10.5362 10.606 10.6117 10.4237C10.6872 10.2414 10.7979 10.0758 10.9374 9.93626C11.077 9.79673 11.2426 9.68605 11.4249 9.61053C11.6072 9.53502 11.8026 9.49615 11.9999 9.49615C12.1973 9.49615 12.3927 9.53502 12.575 9.61053C12.7573 9.68605 12.9229 9.79673 13.0624 9.93626L15.9999 12.875L18.9412 9.93376C19.2228 9.6528 19.6045 9.49523 20.0023 9.4957C20.4001 9.49617 20.7815 9.65464 21.0624 9.93626ZM21.0624 16.9363C21.2023 17.0756 21.3132 17.2412 21.3889 17.4235C21.4647 17.6059 21.5036 17.8013 21.5036 17.9988C21.5036 18.1962 21.4647 18.3917 21.3889 18.574C21.3132 18.7563 21.2023 18.9219 21.0624 19.0613L17.0624 23.0613C16.9231 23.2011 16.7575 23.312 16.5752 23.3878C16.3928 23.4635 16.1974 23.5024 15.9999 23.5024C15.8025 23.5024 15.607 23.4635 15.4247 23.3878C15.2424 23.312 15.0768 23.2011 14.9374 23.0613L10.9374 19.0613C10.7979 18.9217 10.6872 18.7561 10.6117 18.5738C10.5362 18.3915 10.4973 18.1961 10.4973 17.9988C10.4973 17.8014 10.5362 17.606 10.6117 17.4237C10.6872 17.2414 10.7979 17.0758 10.9374 16.9363C11.077 16.7967 11.2426 16.686 11.4249 16.6105C11.6072 16.535 11.8026 16.4962 11.9999 16.4962C12.1973 16.4962 12.3927 16.535 12.575 16.6105C12.7573 16.686 12.9229 16.7967 13.0624 16.9363L15.9999 19.875L18.9412 16.935C19.2232 16.6544 19.605 16.4973 20.0028 16.4982C20.4007 16.4991 20.7818 16.6581 21.0624 16.94V16.9363Z" fill="black"/>
</svg>
