<svg width="32" height="32" viewBox="0 0 32 32" fill="none" xmlns="http://www.w3.org/2000/svg">
<path d="M20.5301 25.4698C20.6038 25.5385 20.6629 25.6213 20.7039 25.7133C20.7448 25.8053 20.7669 25.9046 20.7687 26.0053C20.7704 26.106 20.7519 26.2061 20.7142 26.2994C20.6765 26.3928 20.6203 26.4777 20.5491 26.5489C20.4779 26.6201 20.3931 26.6762 20.2997 26.714C20.2063 26.7517 20.1063 26.7702 20.0056 26.7684C19.9048 26.7667 19.8055 26.7446 19.7135 26.7036C19.6215 26.6626 19.5387 26.6035 19.4701 26.5298L9.47007 16.5298C9.32962 16.3892 9.25073 16.1986 9.25073 15.9998C9.25073 15.8011 9.32962 15.6105 9.47007 15.4698L19.4701 5.46985C19.6122 5.33737 19.8003 5.26524 19.9946 5.26867C20.1889 5.2721 20.3743 5.35081 20.5117 5.48822C20.6491 5.62564 20.7278 5.81102 20.7312 6.00532C20.7347 6.19963 20.6626 6.38767 20.5301 6.52985L11.0613 15.9998L20.5301 25.4698Z" fill="black"/>
</svg>
