<svg width="32" height="32" viewBox="0 0 32 32" fill="none" xmlns="http://www.w3.org/2000/svg">
<path d="M17.3538 16.3535L7.35378 26.3535C7.30733 26.4 7.25218 26.4368 7.19148 26.462C7.13079 26.4871 7.06573 26.5001 7.00003 26.5001C6.93434 26.5001 6.86928 26.4871 6.80859 26.462C6.74789 26.4368 6.69274 26.4 6.64628 26.3535C6.59983 26.3071 6.56298 26.2519 6.53784 26.1912C6.5127 26.1305 6.49976 26.0655 6.49976 25.9998C6.49976 25.9341 6.5127 25.869 6.53784 25.8083C6.56298 25.7476 6.59983 25.6925 6.64628 25.646L16.2925 15.9998L6.64628 6.35354C6.55246 6.25972 6.49976 6.13247 6.49976 5.99979C6.49976 5.86711 6.55246 5.73986 6.64628 5.64604C6.7401 5.55222 6.86735 5.49951 7.00003 5.49951C7.13272 5.49951 7.25996 5.55222 7.35378 5.64604L17.3538 15.646C17.4003 15.6925 17.4372 15.7476 17.4623 15.8083C17.4875 15.869 17.5004 15.9341 17.5004 15.9998C17.5004 16.0655 17.4875 16.1306 17.4623 16.1913C17.4372 16.252 17.4003 16.3071 17.3538 16.3535ZM27.3538 15.646L17.3538 5.64604C17.26 5.55222 17.1327 5.49951 17 5.49951C16.8674 5.49951 16.7401 5.55222 16.6463 5.64604C16.5525 5.73986 16.4998 5.86711 16.4998 5.99979C16.4998 6.13247 16.5525 6.25972 16.6463 6.35354L26.2925 15.9998L16.6463 25.646C16.5998 25.6925 16.563 25.7476 16.5378 25.8083C16.5127 25.869 16.4998 25.9341 16.4998 25.9998C16.4998 26.0655 16.5127 26.1305 16.5378 26.1912C16.563 26.2519 16.5998 26.3071 16.6463 26.3535C16.6927 26.4 16.7479 26.4368 16.8086 26.462C16.8693 26.4871 16.9343 26.5001 17 26.5001C17.0657 26.5001 17.1308 26.4871 17.1915 26.462C17.2522 26.4368 17.3073 26.4 17.3538 26.3535L27.3538 16.3535C27.4003 16.3071 27.4372 16.252 27.4623 16.1913C27.4875 16.1306 27.5004 16.0655 27.5004 15.9998C27.5004 15.9341 27.4875 15.869 27.4623 15.8083C27.4372 15.7476 27.4003 15.6925 27.3538 15.646Z" fill="black"/>
</svg>
