<svg width="32" height="32" viewBox="0 0 32 32" fill="none" xmlns="http://www.w3.org/2000/svg">
<path d="M26.3538 12.3535L16.3538 22.3535C16.3073 22.4 16.2522 22.4369 16.1915 22.4621C16.1308 22.4872 16.0657 22.5002 16 22.5002C15.9343 22.5002 15.8693 22.4872 15.8086 22.4621C15.7479 22.4369 15.6927 22.4 15.6463 22.3535L5.64628 12.3535C5.59983 12.3071 5.56298 12.2519 5.53784 12.1912C5.5127 12.1305 5.49976 12.0655 5.49976 11.9998C5.49976 11.9341 5.5127 11.869 5.53784 11.8083C5.56298 11.7476 5.59983 11.6925 5.64628 11.646C5.7401 11.5522 5.86735 11.4995 6.00003 11.4995C6.06573 11.4995 6.13079 11.5125 6.19148 11.5376C6.25218 11.5627 6.30733 11.5996 6.35378 11.646L16 21.2923L25.6463 11.646C25.6927 11.5996 25.7479 11.5627 25.8086 11.5376C25.8693 11.5125 25.9343 11.4995 26 11.4995C26.0657 11.4995 26.1308 11.5125 26.1915 11.5376C26.2522 11.5627 26.3073 11.5996 26.3538 11.646C26.4002 11.6925 26.4371 11.7476 26.4622 11.8083C26.4874 11.869 26.5003 11.9341 26.5003 11.9998C26.5003 12.0655 26.4874 12.1305 26.4622 12.1912C26.4371 12.2519 26.4002 12.3071 26.3538 12.3535Z" fill="black"/>
</svg>
