<svg width="32" height="32" viewBox="0 0 32 32" fill="none" xmlns="http://www.w3.org/2000/svg">
<path d="M25.1924 6.80766C22.7544 4.36966 19.4478 3 15.9999 3C12.5521 3 9.24542 4.36966 6.80741 6.80766C4.36941 9.24566 2.99976 12.5523 2.99976 16.0002C2.99976 19.448 4.36941 22.7547 6.80741 25.1927C9.24542 27.6307 12.5521 29.0003 15.9999 29.0003C19.4478 29.0003 22.7544 27.6307 25.1924 25.1927C27.6304 22.7547 29.0001 19.448 29.0001 16.0002C29.0001 12.5523 27.6304 9.24566 25.1924 6.80766ZM23.7787 23.7789C22.2402 25.3171 20.2802 26.3646 18.1465 26.7889C16.0127 27.2132 13.8011 26.9953 11.7912 26.1627C9.78128 25.3301 8.06341 23.9202 6.85479 22.1113C5.64616 20.3024 5.00107 18.1757 5.00107 16.0002C5.00107 13.8246 5.64616 11.698 6.85479 9.88906C8.06341 8.08015 9.78128 6.67025 11.7912 5.83764C13.8011 5.00503 16.0127 4.7871 18.1465 5.2114C20.2802 5.63571 22.2402 6.68319 23.7787 8.22141C25.8386 10.2861 26.9954 13.0836 26.9954 16.0002C26.9954 18.9167 25.8386 21.7142 23.7787 23.7789ZM15.7074 15.2927C15.8004 15.3855 15.8741 15.4958 15.9245 15.6172C15.9748 15.7386 16.0007 15.8687 16.0007 16.0002C16.0007 16.1316 15.9748 16.2617 15.9245 16.3831C15.8741 16.5045 15.8004 16.6148 15.7074 16.7077L11.7074 20.7077C11.6145 20.8006 11.5042 20.8743 11.3828 20.9246C11.2614 20.9748 11.1313 21.0007 10.9999 21.0007C10.8685 21.0007 10.7384 20.9748 10.617 20.9246C10.4956 20.8743 10.3853 20.8006 10.2924 20.7077C10.1995 20.6147 10.1258 20.5044 10.0755 20.3831C10.0252 20.2617 9.99936 20.1316 9.99936 20.0002C9.99936 19.8688 10.0252 19.7387 10.0755 19.6173C10.1258 19.4959 10.1995 19.3856 10.2924 19.2927L13.5862 16.0002L10.2924 12.7077C10.1048 12.52 9.99936 12.2655 9.99936 12.0002C9.99936 11.7348 10.1048 11.4803 10.2924 11.2927C10.4801 11.105 10.7345 10.9996 10.9999 10.9996C11.2653 10.9996 11.5198 11.105 11.7074 11.2927L15.7074 15.2927ZM22.7074 15.2927C22.8004 15.3855 22.8742 15.4958 22.9245 15.6172C22.9748 15.7386 23.0007 15.8687 23.0007 16.0002C23.0007 16.1316 22.9748 16.2617 22.9245 16.3831C22.8742 16.5045 22.8004 16.6148 22.7074 16.7077L18.7074 20.7077C18.5198 20.8953 18.2653 21.0007 17.9999 21.0007C17.7346 21.0007 17.4801 20.8953 17.2924 20.7077C17.1048 20.52 16.9994 20.2655 16.9994 20.0002C16.9994 19.7348 17.1048 19.4803 17.2924 19.2927L20.5862 16.0002L17.2924 12.7077C17.1048 12.52 16.9994 12.2655 16.9994 12.0002C16.9994 11.7348 17.1048 11.4803 17.2924 11.2927C17.4801 11.105 17.7346 10.9996 17.9999 10.9996C18.2653 10.9996 18.5198 11.105 18.7074 11.2927L22.7074 15.2927Z" fill="black"/>
</svg>
