<svg width="32" height="32" viewBox="0 0 32 32" fill="none" xmlns="http://www.w3.org/2000/svg">
<path d="M9.07631 10.3823C9.00051 10.1996 8.98059 9.99853 9.01909 9.80451C9.05758 9.61049 9.15275 9.43224 9.29255 9.29231L15.2926 3.29231C15.3854 3.19933 15.4957 3.12557 15.6171 3.07525C15.7385 3.02493 15.8686 2.99902 16.0001 2.99902C16.1315 2.99902 16.2616 3.02493 16.383 3.07525C16.5044 3.12557 16.6147 3.19933 16.7076 3.29231L22.7076 9.29231C22.8476 9.43217 22.9429 9.61042 22.9816 9.8045C23.0202 9.99859 23.0004 10.1998 22.9247 10.3826C22.8489 10.5654 22.7206 10.7217 22.556 10.8315C22.3914 10.9414 22.198 11 22.0001 10.9998H10.0001C9.80227 10.9998 9.60895 10.9411 9.44452 10.8312C9.2801 10.7213 9.15196 10.5651 9.07631 10.3823ZM22.0001 20.9998H10.0001C9.80216 20.9997 9.60867 21.0582 9.44407 21.1681C9.27948 21.278 9.15119 21.4342 9.07543 21.617C8.99968 21.7998 8.97988 22.001 9.01853 22.1951C9.05718 22.3892 9.15254 22.5675 9.29255 22.7073L15.2926 28.7073C15.3854 28.8003 15.4957 28.874 15.6171 28.9244C15.7385 28.9747 15.8686 29.0006 16.0001 29.0006C16.1315 29.0006 16.2616 28.9747 16.383 28.9244C16.5044 28.874 16.6147 28.8003 16.7076 28.7073L22.7076 22.7073C22.8476 22.5675 22.9429 22.3892 22.9816 22.1951C23.0202 22.001 23.0004 21.7998 22.9247 21.617C22.8489 21.4342 22.7206 21.278 22.556 21.1681C22.3914 21.0582 22.198 20.9997 22.0001 20.9998Z" fill="black"/>
</svg>
