<svg width="32" height="32" viewBox="0 0 32 32" fill="none" xmlns="http://www.w3.org/2000/svg">
<path d="M21.0001 5.99981V25.9998C21.0002 26.1977 20.9416 26.3912 20.8318 26.5558C20.7219 26.7204 20.5657 26.8487 20.3828 26.9244C20.2 27.0002 19.9988 27.02 19.8047 26.9813C19.6107 26.9427 19.4324 26.8473 19.2926 26.7073L9.29255 16.7073C9.19958 16.6144 9.12582 16.5041 9.07549 16.3828C9.02517 16.2614 8.99927 16.1312 8.99927 15.9998C8.99927 15.8684 9.02517 15.7383 9.07549 15.6169C9.12582 15.4955 9.19958 15.3852 9.29255 15.2923L19.2926 5.29231C19.4324 5.1523 19.6107 5.05693 19.8047 5.01828C19.9988 4.97963 20.2 4.99944 20.3828 5.07519C20.5657 5.15094 20.7219 5.27923 20.8318 5.44383C20.9416 5.60842 21.0002 5.80192 21.0001 5.99981Z" fill="black"/>
</svg>
