<svg width="32" height="32" viewBox="0 0 32 32" fill="none" xmlns="http://www.w3.org/2000/svg">
<path d="M25.0149 6.98391C23.831 5.79996 22.4254 4.8608 20.8785 4.22005C19.3316 3.5793 17.6736 3.24951 15.9993 3.24951C12.6178 3.24951 9.37475 4.59281 6.98366 6.98391C4.59257 9.375 3.24927 12.618 3.24927 15.9995C3.24927 19.381 4.59257 22.6241 6.98366 25.0152C9.37475 27.4062 12.6178 28.7495 15.9993 28.7495C19.3808 28.7495 22.6238 27.4062 25.0149 25.0152C27.406 22.6241 28.7493 19.381 28.7493 15.9995C28.7493 12.618 27.406 9.375 25.0149 6.98391ZM23.9549 23.9552C22.3816 25.5285 20.377 26.5999 18.1947 27.034C16.0124 27.4681 13.7504 27.2453 11.6948 26.3938C9.63913 25.5423 7.88213 24.1004 6.64597 22.2503C5.40981 20.4003 4.75001 18.2252 4.75001 16.0002C4.75001 13.7751 5.40981 11.6001 6.64597 9.75001C7.88213 7.89996 9.63913 6.45801 11.6948 5.60652C13.7504 4.75503 16.0124 4.53224 18.1947 4.96631C20.377 5.40038 22.3816 6.47183 23.9549 8.04516C26.0617 10.1566 27.2448 13.0175 27.2448 16.0002C27.2448 18.9829 26.0617 21.8437 23.9549 23.9552ZM15.5299 15.4702C15.6704 15.6108 15.7493 15.8014 15.7493 16.0002C15.7493 16.1989 15.6704 16.3895 15.5299 16.5302L11.5299 20.5302C11.3877 20.6626 11.1997 20.7348 11.0054 20.7313C10.8111 20.7279 10.6257 20.6492 10.4883 20.5118C10.3509 20.3744 10.2722 20.189 10.2687 19.9947C10.2653 19.8004 10.3374 19.6123 10.4699 19.4702L13.9387 16.0002L10.4699 12.5302C10.3374 12.388 10.2653 12.1999 10.2687 12.0056C10.2722 11.8113 10.3509 11.6259 10.4883 11.4885C10.6257 11.3511 10.8111 11.2724 11.0054 11.269C11.1997 11.2656 11.3877 11.3377 11.5299 11.4702L15.5299 15.4702ZM22.5299 15.4702C22.6704 15.6108 22.7493 15.8014 22.7493 16.0002C22.7493 16.1989 22.6704 16.3895 22.5299 16.5302L18.5299 20.5302C18.3877 20.6626 18.1997 20.7348 18.0054 20.7313C17.8111 20.7279 17.6257 20.6492 17.4883 20.5118C17.3509 20.3744 17.2722 20.189 17.2687 19.9947C17.2653 19.8004 17.3374 19.6123 17.4699 19.4702L20.9387 16.0002L17.4699 12.5302C17.3374 12.388 17.2653 12.1999 17.2687 12.0056C17.2722 11.8113 17.3509 11.6259 17.4883 11.4885C17.6257 11.3511 17.8111 11.2724 18.0054 11.269C18.1997 11.2656 18.3877 11.3377 18.5299 11.4702L22.5299 15.4702Z" fill="black"/>
</svg>
