<svg width="32" height="32" viewBox="0 0 32 32" fill="none" xmlns="http://www.w3.org/2000/svg">
<path d="M16 2.5C13.33 2.5 10.7199 3.29176 8.49981 4.77516C6.27974 6.25856 4.54942 8.36697 3.52763 10.8338C2.50585 13.3006 2.2385 16.015 2.7594 18.6337C3.28031 21.2525 4.56606 23.6579 6.45406 25.5459C8.34207 27.434 10.7475 28.7197 13.3663 29.2406C15.985 29.7615 18.6994 29.4942 21.1662 28.4724C23.633 27.4506 25.7414 25.7203 27.2248 23.5002C28.7082 21.2801 29.5 18.67 29.5 16C29.496 12.4208 28.0724 8.98932 25.5416 6.45844C23.0107 3.92756 19.5792 2.50397 16 2.5ZM16 26.5C13.9233 26.5 11.8932 25.8842 10.1665 24.7304C8.4398 23.5767 7.09399 21.9368 6.29927 20.0182C5.50455 18.0996 5.29662 15.9884 5.70176 13.9516C6.10691 11.9148 7.10693 10.0438 8.57538 8.57538C10.0438 7.10693 11.9148 6.1069 13.9516 5.70175C15.9884 5.29661 18.0996 5.50454 20.0182 6.29926C21.9368 7.09399 23.5767 8.4398 24.7304 10.1665C25.8842 11.8932 26.5 13.9233 26.5 16C26.497 18.7839 25.3898 21.4528 23.4213 23.4213C21.4529 25.3898 18.7839 26.497 16 26.5ZM22.0613 12.9388C22.2011 13.0781 22.312 13.2437 22.3878 13.426C22.4635 13.6083 22.5024 13.8038 22.5024 14.0013C22.5024 14.1987 22.4635 14.3942 22.3878 14.5765C22.312 14.7588 22.2011 14.9244 22.0613 15.0638L17.0613 20.0637C16.9219 20.2036 16.7563 20.3145 16.574 20.3903C16.3917 20.466 16.1962 20.5049 15.9988 20.5049C15.8013 20.5049 15.6059 20.466 15.4235 20.3903C15.2412 20.3145 15.0756 20.2036 14.9363 20.0637L9.93626 15.0638C9.65446 14.782 9.49615 14.3998 9.49615 14.0013C9.49615 13.6027 9.65446 13.2205 9.93626 12.9388C10.218 12.657 10.6002 12.4986 10.9988 12.4986C11.3973 12.4986 11.7795 12.657 12.0613 12.9388L16 16.875L19.9388 12.935C20.0783 12.7958 20.2439 12.6854 20.4262 12.6103C20.6084 12.5351 20.8037 12.4966 21.0008 12.4969C21.1979 12.4973 21.393 12.5365 21.575 12.6123C21.757 12.6881 21.9222 12.799 22.0613 12.9388Z" fill="black"/>
</svg>
