<svg width="32" height="32" viewBox="0 0 32 32" fill="none" xmlns="http://www.w3.org/2000/svg">
<path d="M25.1976 6.80376C23.379 4.98677 21.0626 3.74972 18.5412 3.249C16.0197 2.74828 13.4064 3.00636 11.0316 3.99062C8.65682 4.97488 6.62714 6.64113 5.19917 8.77873C3.77119 10.9163 3.00903 13.4293 3.00903 16C3.00903 18.5707 3.77119 21.0837 5.19917 23.2213C6.62714 25.3589 8.65682 27.0251 11.0316 28.0094C13.4064 28.9937 16.0197 29.2517 18.5412 28.751C21.0626 28.2503 23.379 27.0132 25.1976 25.1963C27.6327 22.7552 29.0002 19.448 29.0002 16C29.0002 12.552 27.6327 9.2448 25.1976 6.80376ZM20.7101 21.71C20.6172 21.803 20.5069 21.8767 20.3855 21.9271C20.2641 21.9774 20.134 22.0033 20.0026 22.0033C19.8711 22.0033 19.741 21.9774 19.6196 21.9271C19.4982 21.8767 19.3879 21.803 19.2951 21.71L16.0001 18.415L12.7063 21.71C12.5187 21.8976 12.2642 22.0031 11.9988 22.0031C11.7334 22.0031 11.4789 21.8976 11.2913 21.71C11.1037 21.5224 10.9983 21.2679 10.9983 21.0025C10.9983 20.7371 11.1037 20.4826 11.2913 20.295L15.2913 16.295C15.3842 16.202 15.4945 16.1283 15.6159 16.0779C15.7373 16.0276 15.8674 16.0017 15.9988 16.0017C16.1302 16.0017 16.2604 16.0276 16.3817 16.0779C16.5031 16.1283 16.6134 16.202 16.7063 16.295L20.7063 20.295C20.7995 20.3876 20.8736 20.4977 20.9242 20.619C20.9749 20.7403 21.0011 20.8703 21.0015 21.0017C21.0018 21.1331 20.9763 21.2633 20.9263 21.3849C20.8763 21.5064 20.8028 21.6169 20.7101 21.71ZM20.7101 14.71C20.6172 14.803 20.5069 14.8767 20.3855 14.9271C20.2641 14.9774 20.134 15.0033 20.0026 15.0033C19.8711 15.0033 19.741 14.9774 19.6196 14.9271C19.4982 14.8767 19.3879 14.803 19.2951 14.71L16.0001 11.4113L12.7063 14.7063C12.5187 14.8939 12.2642 14.9993 11.9988 14.9993C11.7334 14.9993 11.4789 14.8939 11.2913 14.7063C11.1037 14.5186 10.9983 14.2641 10.9983 13.9988C10.9983 13.7334 11.1037 13.4789 11.2913 13.2913L15.2913 9.29126C15.3842 9.19828 15.4945 9.12452 15.6159 9.0742C15.7373 9.02387 15.8674 8.99797 15.9988 8.99797C16.1302 8.99797 16.2604 9.02387 16.3817 9.0742C16.5031 9.12452 16.6134 9.19828 16.7063 9.29126L20.7063 13.2913C20.7995 13.3839 20.8736 13.494 20.9242 13.6152C20.9749 13.7365 21.0011 13.8666 21.0015 13.998C21.0018 14.1294 20.9763 14.2596 20.9263 14.3811C20.8763 14.5027 20.8028 14.6131 20.7101 14.7063V14.71Z" fill="black"/>
</svg>
