<svg width="32" height="32" viewBox="0 0 32 32" fill="none" xmlns="http://www.w3.org/2000/svg">
<path d="M22.3538 21.6462C22.4003 21.6926 22.4372 21.7477 22.4623 21.8084C22.4875 21.8691 22.5004 21.9342 22.5004 21.9999C22.5004 22.0656 22.4875 22.1307 22.4623 22.1914C22.4372 22.2521 22.4003 22.3072 22.3538 22.3537L16.3538 28.3537C16.3073 28.4001 16.2522 28.437 16.1915 28.4622C16.1308 28.4873 16.0657 28.5003 16 28.5003C15.9343 28.5003 15.8693 28.4873 15.8086 28.4622C15.7479 28.437 15.6927 28.4001 15.6463 28.3537L9.64628 22.3537C9.55246 22.2598 9.49976 22.1326 9.49976 21.9999C9.49976 21.8672 9.55246 21.74 9.64628 21.6462C9.7401 21.5523 9.86735 21.4996 10 21.4996C10.1327 21.4996 10.26 21.5523 10.3538 21.6462L16 27.2924L21.6463 21.6462C21.6927 21.5997 21.7479 21.5628 21.8086 21.5376C21.8693 21.5125 21.9343 21.4995 22 21.4995C22.0657 21.4995 22.1308 21.5125 22.1915 21.5376C22.2522 21.5628 22.3073 21.5997 22.3538 21.6462ZM10.3538 10.3537L16 4.70741L21.6463 10.3537C21.6927 10.4001 21.7479 10.437 21.8086 10.4621C21.8693 10.4872 21.9343 10.5002 22 10.5002C22.0657 10.5002 22.1308 10.4872 22.1915 10.4621C22.2522 10.437 22.3073 10.4001 22.3538 10.3537C22.4002 10.3072 22.4371 10.252 22.4622 10.1914C22.4874 10.1307 22.5003 10.0656 22.5003 9.99991C22.5003 9.93421 22.4874 9.86915 22.4622 9.80846C22.4371 9.74776 22.4002 9.69261 22.3538 9.64615L16.3538 3.64616C16.3073 3.59967 16.2522 3.56279 16.1915 3.53763C16.1308 3.51246 16.0657 3.49951 16 3.49951C15.9343 3.49951 15.8693 3.51246 15.8086 3.53763C15.7479 3.56279 15.6927 3.59967 15.6463 3.64616L9.64628 9.64615C9.59983 9.69261 9.56298 9.74776 9.53784 9.80846C9.5127 9.86915 9.49976 9.93421 9.49976 9.99991C9.49976 10.0656 9.5127 10.1307 9.53784 10.1914C9.56298 10.252 9.59983 10.3072 9.64628 10.3537C9.69274 10.4001 9.74789 10.437 9.80859 10.4621C9.86928 10.4872 9.93434 10.5002 10 10.5002C10.0657 10.5002 10.1308 10.4872 10.1915 10.4621C10.2522 10.437 10.3073 10.4001 10.3538 10.3537Z" fill="black"/>
</svg>
