<svg width="32" height="32" viewBox="0 0 32 32" fill="none" xmlns="http://www.w3.org/2000/svg">
<path d="M26.7076 25.2923C26.8476 25.4322 26.9429 25.6104 26.9816 25.8045C27.0202 25.9986 27.0004 26.1998 26.9247 26.3826C26.8489 26.5654 26.7206 26.7217 26.556 26.8315C26.3914 26.9414 26.198 27 26.0001 26.9998H6.00006C5.80216 27 5.60867 26.9414 5.44407 26.8315C5.27948 26.7217 5.15119 26.5654 5.07543 26.3826C4.99968 26.1998 4.97988 25.9986 5.01853 25.8045C5.05718 25.6104 5.15254 25.4322 5.29256 25.2923L13.5863 16.9998H6.00006C5.80216 17 5.60867 16.9414 5.44407 16.8315C5.27948 16.7217 5.15119 16.5654 5.07543 16.3826C4.99968 16.1998 4.97988 15.9986 5.01853 15.8045C5.05718 15.6104 5.15254 15.4322 5.29256 15.2923L15.2926 5.29231C15.3854 5.19933 15.4957 5.12557 15.6171 5.07525C15.7385 5.02493 15.8686 4.99902 16.0001 4.99902C16.1315 4.99902 16.2616 5.02493 16.383 5.07525C16.5044 5.12557 16.6147 5.19933 16.7076 5.29231L26.7076 15.2923C26.8476 15.4322 26.9429 15.6104 26.9816 15.8045C27.0202 15.9986 27.0004 16.1998 26.9247 16.3826C26.8489 16.5654 26.7206 16.7217 26.556 16.8315C26.3914 16.9414 26.198 17 26.0001 16.9998H18.4138L26.7076 25.2923Z" fill="black"/>
</svg>
