<svg width="32" height="32" viewBox="0 0 32 32" fill="none" xmlns="http://www.w3.org/2000/svg">
<path opacity="0.08" d="M10 22H22L16 28L10 22ZM16 4L10 10H22L16 4Z" fill="black"/>
<path d="M22.0001 20.9998H10.0001C9.80216 20.9997 9.60867 21.0582 9.44407 21.1681C9.27948 21.278 9.15119 21.4342 9.07543 21.617C8.99968 21.7998 8.97988 22.001 9.01853 22.1951C9.05718 22.3892 9.15254 22.5675 9.29255 22.7073L15.2926 28.7073C15.3854 28.8003 15.4957 28.874 15.6171 28.9244C15.7385 28.9747 15.8686 29.0006 16.0001 29.0006C16.1315 29.0006 16.2616 28.9747 16.383 28.9244C16.5044 28.874 16.6147 28.8003 16.7076 28.7073L22.7076 22.7073C22.8476 22.5675 22.9429 22.3892 22.9816 22.1951C23.0202 22.001 23.0004 21.7998 22.9247 21.617C22.8489 21.4342 22.7206 21.278 22.556 21.1681C22.3914 21.0582 22.198 20.9997 22.0001 20.9998ZM16.0001 26.5861L12.4138 22.9998H19.5863L16.0001 26.5861ZM10.0001 10.9998H22.0001C22.198 11 22.3914 10.9414 22.556 10.8315C22.7206 10.7217 22.8489 10.5654 22.9247 10.3826C23.0004 10.1998 23.0202 9.99859 22.9816 9.8045C22.9429 9.61042 22.8476 9.43217 22.7076 9.29231L16.7076 3.29231C16.6147 3.19933 16.5044 3.12557 16.383 3.07525C16.2616 3.02493 16.1315 2.99902 16.0001 2.99902C15.8686 2.99902 15.7385 3.02493 15.6171 3.07525C15.4957 3.12557 15.3854 3.19933 15.2926 3.29231L9.29255 9.29231C9.15254 9.43217 9.05718 9.61042 9.01853 9.8045C8.97988 9.99859 8.99968 10.1998 9.07543 10.3826C9.15119 10.5654 9.27948 10.7217 9.44407 10.8315C9.60867 10.9414 9.80216 11 10.0001 10.9998ZM16.0001 5.41356L19.5863 8.99981H12.4138L16.0001 5.41356Z" fill="black"/>
</svg>
