<svg width="32" height="32" viewBox="0 0 32 32" fill="none" xmlns="http://www.w3.org/2000/svg">
<path d="M25.0149 6.98391C23.831 5.79996 22.4254 4.8608 20.8785 4.22005C19.3316 3.5793 17.6736 3.24951 15.9993 3.24951C12.6178 3.24951 9.37475 4.59281 6.98366 6.98391C4.59257 9.375 3.24927 12.618 3.24927 15.9995C3.24927 19.381 4.59257 22.6241 6.98366 25.0152C9.37475 27.4062 12.6178 28.7495 15.9993 28.7495C19.3808 28.7495 22.6238 27.4062 25.0149 25.0152C27.406 22.6241 28.7493 19.381 28.7493 15.9995C28.7493 12.618 27.406 9.375 25.0149 6.98391ZM23.9549 23.9552C22.3816 25.5285 20.377 26.5999 18.1947 27.034C16.0124 27.4681 13.7504 27.2453 11.6948 26.3938C9.63913 25.5423 7.88213 24.1004 6.64597 22.2503C5.40981 20.4003 4.75001 18.2252 4.75001 16.0002C4.75001 13.7751 5.40981 11.6001 6.64597 9.75001C7.88213 7.89996 9.63913 6.45801 11.6948 5.60652C13.7504 4.75503 16.0124 4.53224 18.1947 4.96631C20.377 5.40038 22.3816 6.47183 23.9549 8.04516C26.0617 10.1566 27.2448 13.0175 27.2448 16.0002C27.2448 18.9829 26.0617 21.8437 23.9549 23.9552ZM20.5299 10.4702C20.6704 10.6108 20.7493 10.8014 20.7493 11.0002C20.7493 11.1989 20.6704 11.3895 20.5299 11.5302L16.5299 15.5302C16.3893 15.6706 16.1987 15.7495 15.9999 15.7495C15.8012 15.7495 15.6105 15.6706 15.4699 15.5302L11.4699 11.5302C11.3374 11.388 11.2653 11.1999 11.2687 11.0056C11.2722 10.8113 11.3509 10.6259 11.4883 10.4885C11.6257 10.3511 11.8111 10.2724 12.0054 10.269C12.1997 10.2656 12.3877 10.3377 12.5299 10.4702L15.9999 13.9389L19.4699 10.4702C19.6105 10.3297 19.8012 10.2508 19.9999 10.2508C20.1987 10.2508 20.3893 10.3297 20.5299 10.4702ZM20.5299 17.4702C20.6704 17.6108 20.7493 17.8014 20.7493 18.0002C20.7493 18.1989 20.6704 18.3895 20.5299 18.5302L16.5299 22.5302C16.3893 22.6706 16.1987 22.7495 15.9999 22.7495C15.8012 22.7495 15.6105 22.6706 15.4699 22.5302L11.4699 18.5302C11.3374 18.388 11.2653 18.1999 11.2687 18.0056C11.2722 17.8113 11.3509 17.6259 11.4883 17.4885C11.6257 17.3511 11.8111 17.2724 12.0054 17.269C12.1997 17.2656 12.3877 17.3377 12.5299 17.4702L15.9999 20.9389L19.4699 17.4702C19.6105 17.3297 19.8012 17.2508 19.9999 17.2508C20.1987 17.2508 20.3893 17.3297 20.5299 17.4702Z" fill="black"/>
</svg>
