<svg width="32" height="32" viewBox="0 0 32 32" fill="none" xmlns="http://www.w3.org/2000/svg">
<path d="M29 7.5H26.625L29.0637 5.06125C29.2032 4.92172 29.3139 4.75608 29.3894 4.57377C29.4649 4.39147 29.5038 4.19607 29.5038 3.99875C29.5038 3.80143 29.4649 3.60603 29.3894 3.42373C29.3139 3.24143 29.2032 3.07578 29.0637 2.93625C28.9242 2.79672 28.7585 2.68604 28.5762 2.61053C28.3939 2.53501 28.1985 2.49615 28.0012 2.49615C27.8039 2.49615 27.6085 2.53501 27.4262 2.61053C27.2439 2.68604 27.0782 2.79672 26.9387 2.93625L24.5 5.375V3C24.5 2.60218 24.3419 2.22064 24.0606 1.93934C23.7793 1.65804 23.3978 1.5 23 1.5C22.6021 1.5 22.2206 1.65804 21.9393 1.93934C21.658 2.22064 21.5 2.60218 21.5 3V6.25C19.9276 5.54096 18.1767 5.32708 16.4798 5.63675C14.783 5.94642 13.2205 6.765 12 7.98375C6.9312 12.96 3.14745 24.625 2.72245 25.9713C2.55058 26.3519 2.47682 26.7696 2.50792 27.1861C2.53901 27.6027 2.67398 28.0048 2.90048 28.3557C3.12698 28.7066 3.43779 28.9952 3.80454 29.1951C4.17129 29.395 4.58227 29.4998 4.99995 29.5C5.35515 29.4994 5.70618 29.4236 6.02995 29.2775C6.98495 28.975 13.1287 26.985 18.3937 24.05L18.4612 24.0125C20.5987 22.8162 22.5862 21.4638 24.0162 20.0125C25.2375 18.7909 26.0577 17.2262 26.3674 15.5268C26.6772 13.8274 26.4618 12.0739 25.75 10.5H29C29.3978 10.5 29.7793 10.342 30.0606 10.0607C30.3419 9.77936 30.5 9.39782 30.5 9C30.5 8.60218 30.3419 8.22064 30.0606 7.93934C29.7793 7.65804 29.3978 7.5 29 7.5ZM21.8887 17.89L21.8775 17.9013C20.8637 18.9363 19.4887 19.9262 17.9612 20.8412L15.06 17.94C14.7782 17.6582 14.396 17.4999 13.9975 17.4999C13.5989 17.4999 13.2167 17.6582 12.935 17.94C12.6532 18.2218 12.4949 18.604 12.4949 19.0025C12.4949 19.401 12.6532 19.7832 12.935 20.065L15.2125 22.3425C11.4262 24.2388 7.4462 25.645 5.80495 26.195C6.6512 23.6675 9.5287 15.595 13.0975 11.2275L16.935 15.065C17.2167 15.3468 17.5989 15.5051 17.9975 15.5051C18.396 15.5051 18.7782 15.3468 19.06 15.065C19.3417 14.7832 19.5001 14.401 19.5001 14.0025C19.5001 13.604 19.3417 13.2218 19.06 12.94L15.3175 9.1975C16.4767 8.54868 17.8317 8.34139 19.1319 8.61394C20.4322 8.88649 21.5898 9.62045 22.391 10.6802C23.1921 11.74 23.5826 13.0539 23.4903 14.3792C23.398 15.7045 22.8291 16.9516 21.8887 17.89Z" fill="black"/>
</svg>
