<svg width="32" height="32" viewBox="0 0 32 32" fill="none" xmlns="http://www.w3.org/2000/svg">
<path d="M28 5.5H4C3.33696 5.5 2.70107 5.76339 2.23223 6.23223C1.76339 6.70107 1.5 7.33696 1.5 8V24C1.5 24.663 1.76339 25.2989 2.23223 25.7678C2.70107 26.2366 3.33696 26.5 4 26.5H28C28.663 26.5 29.2989 26.2366 29.7678 25.7678C30.2366 25.2989 30.5 24.663 30.5 24V8C30.5 7.33696 30.2366 6.70107 29.7678 6.23223C29.2989 5.76339 28.663 5.5 28 5.5ZM10.8025 23.5L11.8025 22H20.1975L21.1975 23.5H10.8025ZM27.5 23.5H24.8025L22.545 20.1138C22.3168 19.7712 22.0075 19.4904 21.6447 19.2961C21.2818 19.1018 20.8766 19.0001 20.465 19H11.535C11.1234 19.0001 10.7182 19.1018 10.3553 19.2961C9.9925 19.4904 9.68323 19.7712 9.455 20.1138L7.1975 23.5H4.5V8.5H27.5V23.5ZM9.75 17.5H22.25C23.2446 17.5 24.1984 17.1049 24.9017 16.4017C25.6049 15.6984 26 14.7446 26 13.75C26 12.7554 25.6049 11.8016 24.9017 11.0983C24.1984 10.3951 23.2446 10 22.25 10H9.75C8.75544 10 7.80161 10.3951 7.09835 11.0983C6.39509 11.8016 6 12.7554 6 13.75C6 14.7446 6.39509 15.6984 7.09835 16.4017C7.80161 17.1049 8.75544 17.5 9.75 17.5ZM14 14.5V13H18V14.5H14ZM23 13.75C23 13.9489 22.921 14.1397 22.7803 14.2803C22.6397 14.421 22.4489 14.5 22.25 14.5H21V13H22.25C22.4489 13 22.6397 13.079 22.7803 13.2197C22.921 13.3603 23 13.5511 23 13.75ZM9.75 13H11V14.5H9.75C9.55109 14.5 9.36032 14.421 9.21967 14.2803C9.07902 14.1397 9 13.9489 9 13.75C9 13.5511 9.07902 13.3603 9.21967 13.2197C9.36032 13.079 9.55109 13 9.75 13Z" fill="black"/>
</svg>
