<svg width="32" height="32" viewBox="0 0 32 32" fill="none" xmlns="http://www.w3.org/2000/svg">
<path d="M25 2.5H7.00001C6.33697 2.5 5.70108 2.76339 5.23224 3.23223C4.7634 3.70107 4.50001 4.33696 4.50001 5V10.5863C4.49912 10.9147 4.56341 11.24 4.68914 11.5434C4.81488 11.8468 4.99957 12.1222 5.23251 12.3538L6.50001 13.625V27C6.50001 27.663 6.7634 28.2989 7.23224 28.7678C7.70108 29.2366 8.33697 29.5 9.00001 29.5H23C23.6631 29.5 24.2989 29.2366 24.7678 28.7678C25.2366 28.2989 25.5 27.663 25.5 27V13.625L26.7675 12.3575C27.0009 12.1255 27.1858 11.8495 27.3116 11.5454C27.4374 11.2413 27.5014 10.9153 27.5 10.5863V5C27.5 4.33696 27.2366 3.70107 26.7678 3.23223C26.2989 2.76339 25.6631 2.5 25 2.5ZM17.5 26.5H14.5V19C14.5 18.6022 14.658 18.2206 14.9393 17.9393C15.2207 17.658 15.6022 17.5 16 17.5C16.3978 17.5 16.7794 17.658 17.0607 17.9393C17.342 18.2206 17.5 18.6022 17.5 19V26.5ZM24.5 10.375L23.2325 11.6462C22.9996 11.8778 22.8149 12.1532 22.6891 12.4566C22.5634 12.76 22.4991 13.0853 22.5 13.4137V26.5H20.5V19C20.5 17.8065 20.0259 16.6619 19.182 15.818C18.3381 14.9741 17.1935 14.5 16 14.5C14.8065 14.5 13.6619 14.9741 12.818 15.818C11.9741 16.6619 11.5 17.8065 11.5 19V26.5H9.50001V13.4137C9.5009 13.0853 9.43661 12.76 9.31088 12.4566C9.18514 12.1532 9.00045 11.8778 8.76751 11.6462L7.50001 10.375V5.5H11V8.5C11 8.89782 11.158 9.27936 11.4393 9.56066C11.7207 9.84196 12.1022 10 12.5 10C12.8978 10 13.2794 9.84196 13.5607 9.56066C13.842 9.27936 14 8.89782 14 8.5V5.5H18V8.5C18 8.89782 18.158 9.27936 18.4394 9.56066C18.7207 9.84196 19.1022 10 19.5 10C19.8978 10 20.2794 9.84196 20.5607 9.56066C20.842 9.27936 21 8.89782 21 8.5V5.5H24.5V10.375Z" fill="black"/>
</svg>
