<svg width="32" height="32" viewBox="0 0 32 32" fill="none" xmlns="http://www.w3.org/2000/svg">
<path d="M27.9563 3.69123C27.4995 3.50224 26.9969 3.45291 26.5121 3.54947C26.0273 3.64603 25.582 3.88415 25.2325 4.23373C25.2075 4.25873 25.1838 4.28373 25.1613 4.30998L23.2863 6.47248C21.0774 5.17999 18.5643 4.49877 16.005 4.49877C13.4458 4.49877 10.9327 5.17999 8.72376 6.47248L6.84876 4.30998C6.82626 4.28373 6.80251 4.25873 6.77751 4.23373C6.4285 3.88084 5.98233 3.63981 5.49586 3.54137C5.00938 3.44292 4.50462 3.49151 4.04585 3.68094C3.58709 3.87037 3.19509 4.19208 2.9198 4.60507C2.6445 5.01806 2.49837 5.50365 2.50001 5.99998V17C2.50001 23.8925 8.55626 29.5 16 29.5C23.4438 29.5 29.5 23.8925 29.5 17V5.99998C29.4998 5.50564 29.353 5.02246 29.0782 4.61152C28.8035 4.20058 28.413 3.88032 27.9563 3.69123ZM26.5 17C26.5 21.7775 22.5813 25.7412 17.5 26.4012V24.625L19.0613 23.0637C19.3431 22.7819 19.5014 22.3997 19.5014 22.0012C19.5014 21.6027 19.3431 21.2205 19.0613 20.9387C18.7795 20.6569 18.3973 20.4986 17.9988 20.4986C17.6002 20.4986 17.2181 20.6569 16.9363 20.9387L16 21.875L15.0613 20.935C14.7795 20.6532 14.3973 20.4949 13.9988 20.4949C13.6002 20.4949 13.2181 20.6532 12.9363 20.935C12.6545 21.2168 12.4962 21.599 12.4962 21.9975C12.4962 22.396 12.6545 22.7782 12.9363 23.06L14.5 24.625V26.405C9.41876 25.745 5.50001 21.78 5.50001 17.0037V7.34248L7.31751 9.43373C7.56545 9.71888 7.91188 9.89994 8.28754 9.94073C8.66319 9.98152 9.0404 9.87902 9.34376 9.65373C10.1572 9.05239 11.0514 8.56887 12 8.21748V11C12 11.3978 12.158 11.7793 12.4394 12.0606C12.7207 12.3419 13.1022 12.5 13.5 12.5C13.8978 12.5 14.2794 12.3419 14.5607 12.0606C14.842 11.7793 15 11.3978 15 11V7.54373C15.3333 7.51457 15.6667 7.49998 16 7.49998C16.3333 7.49998 16.6667 7.51457 17 7.54373V11C17 11.3978 17.158 11.7793 17.4394 12.0606C17.7207 12.3419 18.1022 12.5 18.5 12.5C18.8978 12.5 19.2794 12.3419 19.5607 12.0606C19.842 11.7793 20 11.3978 20 11V8.21748C20.9485 8.56918 21.8427 9.05267 22.6563 9.65373C22.9596 9.87902 23.3368 9.98152 23.7125 9.94073C24.0882 9.89994 24.4346 9.71888 24.6825 9.43373L26.5 7.34248V17ZM12.5 17.5C12.5 17.8955 12.3827 18.2822 12.163 18.6111C11.9432 18.94 11.6308 19.1964 11.2654 19.3477C10.8999 19.4991 10.4978 19.5387 10.1098 19.4616C9.72187 19.3844 9.36551 19.1939 9.0858 18.9142C8.8061 18.6345 8.61561 18.2781 8.53844 17.8902C8.46127 17.5022 8.50088 17.1001 8.65225 16.7346C8.80363 16.3692 9.05998 16.0568 9.38887 15.837C9.71777 15.6173 10.1045 15.5 10.5 15.5C11.0304 15.5 11.5392 15.7107 11.9142 16.0858C12.2893 16.4608 12.5 16.9696 12.5 17.5ZM23.5 17.5C23.5 17.8955 23.3827 18.2822 23.163 18.6111C22.9432 18.94 22.6308 19.1964 22.2654 19.3477C21.8999 19.4991 21.4978 19.5387 21.1098 19.4616C20.7219 19.3844 20.3655 19.1939 20.0858 18.9142C19.8061 18.6345 19.6156 18.2781 19.5384 17.8902C19.4613 17.5022 19.5009 17.1001 19.6523 16.7346C19.8036 16.3692 20.06 16.0568 20.3889 15.837C20.7178 15.6173 21.1045 15.5 21.5 15.5C22.0304 15.5 22.5392 15.7107 22.9142 16.0858C23.2893 16.4608 23.5 16.9696 23.5 17.5Z" fill="black"/>
</svg>
