<svg width="32" height="32" viewBox="0 0 32 32" fill="none" xmlns="http://www.w3.org/2000/svg">
<path opacity="0.08" d="M10.0001 17.5875V26H4.00006C3.80216 26.0002 3.60867 25.9416 3.44407 25.8317C3.27948 25.7219 3.15119 25.5656 3.07543 25.3828C2.99968 25.2 2.97988 24.9988 3.01853 24.8047C3.05718 24.6106 3.15254 24.4324 3.29256 24.2925L10.0001 17.5875Z" fill="black"/>
<path d="M24.7651 3.15377C24.3997 3.00217 23.9975 2.96235 23.6095 3.03933C23.2214 3.11632 22.8649 3.30666 22.5851 3.58627L2.58508 23.5863C2.30549 23.866 2.11513 24.2224 2.03807 24.6104C1.96102 24.9984 2.00073 25.4004 2.15218 25.7658C2.30364 26.1312 2.56003 26.4435 2.88895 26.6632C3.21787 26.8829 3.60455 27.0001 4.00008 27H24.0001C24.5305 27 25.0392 26.7893 25.4143 26.4142C25.7894 26.0392 26.0001 25.5305 26.0001 25V5.00002C26.0007 4.60445 25.8837 4.21763 25.6637 3.88884C25.4438 3.56004 25.131 3.30416 24.7651 3.15377ZM9.00008 20V25H4.00008L9.00008 20ZM24.0001 25H11.0001V18L24.0001 5.00002V25Z" fill="black"/>
</svg>
