<svg width="32" height="32" viewBox="0 0 32 32" fill="none" xmlns="http://www.w3.org/2000/svg">
<path d="M24.765 3.15377C24.3997 3.0026 23.9977 2.96312 23.6099 3.04033C23.2221 3.11753 22.8659 3.30795 22.5863 3.58752L2.58627 23.5875C2.30718 23.8673 2.11723 24.2235 2.04038 24.6111C1.96353 24.9987 2.00324 25.4004 2.15449 25.7655C2.30573 26.1306 2.56174 26.4427 2.89021 26.6624C3.21867 26.8821 3.60485 26.9996 4.00002 27H24C24.5305 27 25.0392 26.7893 25.4142 26.4142C25.7893 26.0392 26 25.5305 26 25V5.00002C25.9997 4.60467 25.8822 4.21829 25.6624 3.88968C25.4426 3.56108 25.1303 3.30499 24.765 3.15377ZM24 25H4.00002L24 5.00002V25Z" fill="black"/>
</svg>
