<svg width="32" height="32" viewBox="0 0 32 32" fill="none" xmlns="http://www.w3.org/2000/svg">
<path d="M16.5 14V25C16.5 25.3978 16.342 25.7794 16.0607 26.0607C15.7794 26.342 15.3978 26.5 15 26.5C14.6022 26.5 14.2206 26.342 13.9393 26.0607C13.658 25.7794 13.5 25.3978 13.5 25V14C13.5 13.6022 13.658 13.2206 13.9393 12.9393C14.2206 12.658 14.6022 12.5 15 12.5C15.3978 12.5 15.7794 12.658 16.0607 12.9393C16.342 13.2206 16.5 13.6022 16.5 14ZM10 17.5C9.60218 17.5 9.22064 17.658 8.93934 17.9393C8.65804 18.2206 8.5 18.6022 8.5 19V25C8.5 25.3978 8.65804 25.7794 8.93934 26.0607C9.22064 26.342 9.60218 26.5 10 26.5C10.3978 26.5 10.7794 26.342 11.0607 26.0607C11.342 25.7794 11.5 25.3978 11.5 25V19C11.5 18.6022 11.342 18.2206 11.0607 17.9393C10.7794 17.658 10.3978 17.5 10 17.5ZM5 22.5C4.60218 22.5 4.22064 22.658 3.93934 22.9393C3.65804 23.2206 3.5 23.6022 3.5 24V25C3.5 25.3978 3.65804 25.7794 3.93934 26.0607C4.22064 26.342 4.60218 26.5 5 26.5C5.39782 26.5 5.77936 26.342 6.06066 26.0607C6.34196 25.7794 6.5 25.3978 6.5 25V24C6.5 23.6022 6.34196 23.2206 6.06066 22.9393C5.77936 22.658 5.39782 22.5 5 22.5Z" fill="black"/>
</svg>
