<svg width="32" height="32" viewBox="0 0 32 32" fill="none" xmlns="http://www.w3.org/2000/svg">
<path d="M24.7651 3.15377C24.3997 3.00217 23.9975 2.96235 23.6095 3.03933C23.2214 3.11632 22.8649 3.30666 22.5851 3.58627L2.58508 23.5863C2.30549 23.866 2.11513 24.2224 2.03807 24.6104C1.96102 24.9984 2.00073 25.4004 2.15218 25.7658C2.30364 26.1312 2.56003 26.4435 2.88895 26.6632C3.21787 26.8829 3.60455 27.0001 4.00008 27H24.0001C24.5305 27 25.0392 26.7893 25.4143 26.4142C25.7894 26.0392 26.0001 25.5305 26.0001 25V5.00002C26.0007 4.60445 25.8837 4.21763 25.6637 3.88884C25.4438 3.56004 25.131 3.30416 24.7651 3.15377ZM24.0001 25H16.0001V13L24.0001 5.00002V25Z" fill="black"/>
</svg>
