<svg width="32" height="32" viewBox="0 0 32 32" fill="none" xmlns="http://www.w3.org/2000/svg">
<path d="M11.5 19V25C11.5 25.3978 11.342 25.7794 11.0607 26.0607C10.7794 26.342 10.3978 26.5 10 26.5C9.60218 26.5 9.22064 26.342 8.93934 26.0607C8.65804 25.7794 8.5 25.3978 8.5 25V19C8.5 18.6022 8.65804 18.2206 8.93934 17.9393C9.22064 17.658 9.60218 17.5 10 17.5C10.3978 17.5 10.7794 17.658 11.0607 17.9393C11.342 18.2206 11.5 18.6022 11.5 19ZM5 22.5C4.60218 22.5 4.22064 22.658 3.93934 22.9393C3.65804 23.2206 3.5 23.6022 3.5 24V25C3.5 25.3978 3.65804 25.7794 3.93934 26.0607C4.22064 26.342 4.60218 26.5 5 26.5C5.39782 26.5 5.77936 26.342 6.06066 26.0607C6.34196 25.7794 6.5 25.3978 6.5 25V24C6.5 23.6022 6.34196 23.2206 6.06066 22.9393C5.77936 22.658 5.39782 22.5 5 22.5ZM27.11 25.9912L7.11 3.99125C6.97827 3.84276 6.81838 3.7219 6.6396 3.63566C6.46082 3.54942 6.26669 3.49952 6.06849 3.48886C5.87028 3.47819 5.67192 3.50698 5.48492 3.57354C5.29791 3.6401 5.12598 3.74311 4.97908 3.87661C4.83218 4.01011 4.71324 4.17144 4.62915 4.35124C4.54506 4.53104 4.4975 4.72575 4.48921 4.92407C4.48093 5.1224 4.51208 5.32039 4.58088 5.50659C4.64968 5.69278 4.75475 5.86346 4.89 6.00875L13.5 15.48V25C13.5 25.3978 13.658 25.7794 13.9393 26.0607C14.2206 26.342 14.6022 26.5 15 26.5C15.3978 26.5 15.7794 26.342 16.0607 26.0607C16.342 25.7794 16.5 25.3978 16.5 25V18.78L18.5 20.98V25C18.5 25.3978 18.658 25.7794 18.9393 26.0607C19.2206 26.342 19.6022 26.5 20 26.5C20.3978 26.5 20.7794 26.342 21.0607 26.0607C21.342 25.7794 21.5 25.3978 21.5 25V24.28L24.89 28.0088C25.1589 28.2977 25.5309 28.4689 25.9253 28.4854C26.3197 28.5019 26.7046 28.3622 26.9967 28.0968C27.2888 27.8313 27.4645 27.4614 27.4857 27.0673C27.5069 26.6731 27.3719 26.2865 27.11 25.9912ZM20 14.4675C20.3978 14.4675 20.7794 14.3095 21.0607 14.0282C21.342 13.7469 21.5 13.3653 21.5 12.9675V9C21.5 8.60218 21.342 8.22064 21.0607 7.93934C20.7794 7.65804 20.3978 7.5 20 7.5C19.6022 7.5 19.2206 7.65804 18.9393 7.93934C18.658 8.22064 18.5 8.60218 18.5 9V12.9675C18.5 13.3653 18.658 13.7469 18.9393 14.0282C19.2206 14.3095 19.6022 14.4675 20 14.4675ZM25 19.9675C25.3978 19.9675 25.7794 19.8095 26.0607 19.5282C26.342 19.2469 26.5 18.8653 26.5 18.4675V4C26.5 3.60218 26.342 3.22064 26.0607 2.93934C25.7794 2.65804 25.3978 2.5 25 2.5C24.6022 2.5 24.2206 2.65804 23.9393 2.93934C23.658 3.22064 23.5 3.60218 23.5 4V18.4675C23.5 18.8653 23.658 19.2469 23.9393 19.5282C24.2206 19.8095 24.6022 19.9675 25 19.9675Z" fill="black"/>
</svg>
