<svg width="32" height="32" viewBox="0 0 32 32" fill="none" xmlns="http://www.w3.org/2000/svg">
<path d="M11.5 19V25C11.5 25.3978 11.342 25.7794 11.0607 26.0607C10.7794 26.342 10.3978 26.5 10 26.5C9.60218 26.5 9.22064 26.342 8.93934 26.0607C8.65804 25.7794 8.5 25.3978 8.5 25V19C8.5 18.6022 8.65804 18.2206 8.93934 17.9393C9.22064 17.658 9.60218 17.5 10 17.5C10.3978 17.5 10.7794 17.658 11.0607 17.9393C11.342 18.2206 11.5 18.6022 11.5 19ZM5 22.5C4.60218 22.5 4.22064 22.658 3.93934 22.9393C3.65804 23.2206 3.5 23.6022 3.5 24V25C3.5 25.3978 3.65804 25.7794 3.93934 26.0607C4.22064 26.342 4.60218 26.5 5 26.5C5.39782 26.5 5.77936 26.342 6.06066 26.0607C6.34196 25.7794 6.5 25.3978 6.5 25V24C6.5 23.6022 6.34196 23.2206 6.06066 22.9393C5.77936 22.658 5.39782 22.5 5 22.5Z" fill="black"/>
</svg>
