<svg width="32" height="32" viewBox="0 0 32 32" fill="none" xmlns="http://www.w3.org/2000/svg">
<path d="M27.0613 23.9387C27.343 24.2205 27.5014 24.6027 27.5014 25.0012C27.5014 25.3998 27.343 25.782 27.0613 26.0637C26.7795 26.3455 26.3973 26.5039 25.9988 26.5039C25.6002 26.5039 25.218 26.3455 24.9363 26.0637L23 24.125L21.0613 26.065C20.7795 26.3468 20.3973 26.5051 19.9988 26.5051C19.6002 26.5051 19.218 26.3468 18.9363 26.065C18.6545 25.7832 18.4961 25.401 18.4961 25.0025C18.4961 24.604 18.6545 24.2218 18.9363 23.94L20.875 22L18.935 20.0613C18.6532 19.7795 18.4949 19.3973 18.4949 18.9988C18.4949 18.6002 18.6532 18.218 18.935 17.9363C19.2168 17.6545 19.599 17.4961 19.9975 17.4961C20.396 17.4961 20.7782 17.6545 21.06 17.9363L23 19.875L24.9387 17.935C25.2205 17.6532 25.6027 17.4949 26.0012 17.4949C26.3998 17.4949 26.782 17.6532 27.0637 17.935C27.3455 18.2168 27.5039 18.599 27.5039 18.9975C27.5039 19.396 27.3455 19.7782 27.0637 20.06L25.125 22L27.0613 23.9387ZM20 15.5C20.3978 15.5 20.7794 15.342 21.0607 15.0607C21.342 14.7794 21.5 14.3978 21.5 14V9C21.5 8.60218 21.342 8.22064 21.0607 7.93934C20.7794 7.65804 20.3978 7.5 20 7.5C19.6022 7.5 19.2206 7.65804 18.9393 7.93934C18.658 8.22064 18.5 8.60218 18.5 9V14C18.5 14.3978 18.658 14.7794 18.9393 15.0607C19.2206 15.342 19.6022 15.5 20 15.5ZM25 15.5C25.3978 15.5 25.7794 15.342 26.0607 15.0607C26.342 14.7794 26.5 14.3978 26.5 14V4C26.5 3.60218 26.342 3.22064 26.0607 2.93934C25.7794 2.65804 25.3978 2.5 25 2.5C24.6022 2.5 24.2206 2.65804 23.9393 2.93934C23.658 3.22064 23.5 3.60218 23.5 4V14C23.5 14.3978 23.658 14.7794 23.9393 15.0607C24.2206 15.342 24.6022 15.5 25 15.5ZM15 12.5C14.6022 12.5 14.2206 12.658 13.9393 12.9393C13.658 13.2206 13.5 13.6022 13.5 14V25C13.5 25.3978 13.658 25.7794 13.9393 26.0607C14.2206 26.342 14.6022 26.5 15 26.5C15.3978 26.5 15.7794 26.342 16.0607 26.0607C16.342 25.7794 16.5 25.3978 16.5 25V14C16.5 13.6022 16.342 13.2206 16.0607 12.9393C15.7794 12.658 15.3978 12.5 15 12.5ZM10 17.5C9.60218 17.5 9.22064 17.658 8.93934 17.9393C8.65804 18.2206 8.5 18.6022 8.5 19V25C8.5 25.3978 8.65804 25.7794 8.93934 26.0607C9.22064 26.342 9.60218 26.5 10 26.5C10.3978 26.5 10.7794 26.342 11.0607 26.0607C11.342 25.7794 11.5 25.3978 11.5 25V19C11.5 18.6022 11.342 18.2206 11.0607 17.9393C10.7794 17.658 10.3978 17.5 10 17.5ZM5 22.5C4.60218 22.5 4.22064 22.658 3.93934 22.9393C3.65804 23.2206 3.5 23.6022 3.5 24V25C3.5 25.3978 3.65804 25.7794 3.93934 26.0607C4.22064 26.342 4.60218 26.5 5 26.5C5.39782 26.5 5.77936 26.342 6.06066 26.0607C6.34196 25.7794 6.5 25.3978 6.5 25V24C6.5 23.6022 6.34196 23.2206 6.06066 22.9393C5.77936 22.658 5.39782 22.5 5 22.5Z" fill="black"/>
</svg>
