<svg width="32" height="32" viewBox="0 0 32 32" fill="none" xmlns="http://www.w3.org/2000/svg">
<path d="M7 10.5C7 10.1022 7.15804 9.72064 7.43934 9.43934C7.72064 9.15804 8.10218 9 8.5 9H23.5C23.8978 9 24.2794 9.15804 24.5607 9.43934C24.842 9.72064 25 10.1022 25 10.5V21.5C25 21.8978 24.842 22.2794 24.5607 22.5607C24.2794 22.842 23.8978 23 23.5 23C23.1022 23 22.7206 22.842 22.4393 22.5607C22.158 22.2794 22 21.8978 22 21.5V12H8.5C8.10218 12 7.72064 11.842 7.43934 11.5607C7.15804 11.2794 7 10.8978 7 10.5ZM29.5 7V25C29.5 25.663 29.2366 26.2989 28.7678 26.7678C28.2989 27.2366 27.663 27.5 27 27.5H18.6575C18.3415 27.4999 18.0336 27.4001 17.7777 27.2147C17.5218 27.0293 17.331 26.7678 17.2325 26.4675C16.9187 25.5962 16.3437 24.843 15.586 24.3106C14.8283 23.7781 13.9248 23.4924 12.9987 23.4924C12.0727 23.4924 11.1692 23.7781 10.4115 24.3106C9.65379 24.843 9.07881 25.5962 8.765 26.4675C8.66665 26.7674 8.47622 27.0286 8.22083 27.2139C7.96543 27.3993 7.65808 27.4994 7.3425 27.5H5C4.33696 27.5 3.70107 27.2366 3.23223 26.7678C2.76339 26.2989 2.5 25.663 2.5 25V7C2.5 6.33696 2.76339 5.70107 3.23223 5.23223C3.70107 4.76339 4.33696 4.5 5 4.5H27C27.663 4.5 28.2989 4.76339 28.7678 5.23223C29.2366 5.70107 29.5 6.33696 29.5 7ZM13 20.5C13.3956 20.5 13.7822 20.3827 14.1111 20.1629C14.44 19.9432 14.6964 19.6308 14.8478 19.2654C14.9991 18.8999 15.0387 18.4978 14.9616 18.1098C14.8844 17.7219 14.6939 17.3655 14.4142 17.0858C14.1345 16.8061 13.7781 16.6156 13.3902 16.5384C13.0022 16.4613 12.6001 16.5009 12.2346 16.6522C11.8692 16.8036 11.5568 17.06 11.3371 17.3889C11.1173 17.7178 11 18.1044 11 18.5C11 19.0304 11.2107 19.5391 11.5858 19.9142C11.9609 20.2893 12.4696 20.5 13 20.5ZM26.5 7.5H5.5V24.5H6.365C6.9959 23.3087 7.93532 22.3089 9.085 21.605C8.50006 20.8687 8.13463 19.9823 8.03066 19.0477C7.92668 18.1131 8.08838 17.1681 8.49719 16.3212C8.906 15.4744 9.54535 14.76 10.3418 14.26C11.1383 13.7601 12.0596 13.4949 13 13.4949C13.9404 13.4949 14.8617 13.7601 15.6582 14.26C16.4547 14.76 17.094 15.4744 17.5028 16.3212C17.9116 17.1681 18.0733 18.1131 17.9693 19.0477C17.8654 19.9823 17.4999 20.8687 16.915 21.605C18.0647 22.3089 19.0041 23.3087 19.635 24.5H26.5V7.5Z" fill="black"/>
</svg>
