<svg width="32" height="32" viewBox="0 0 32 32" fill="none" xmlns="http://www.w3.org/2000/svg">
<path d="M30 23.5H29.5V7C29.5 6.33696 29.2366 5.70107 28.7678 5.23223C28.2989 4.76339 27.663 4.5 27 4.5H5C4.33696 4.5 3.70107 4.76339 3.23223 5.23223C2.76339 5.70107 2.5 6.33696 2.5 7V23.5H2C1.60218 23.5 1.22064 23.658 0.93934 23.9393C0.658035 24.2206 0.5 24.6022 0.5 25C0.5 25.3978 0.658035 25.7794 0.93934 26.0607C1.22064 26.342 1.60218 26.5 2 26.5H30C30.3978 26.5 30.7794 26.342 31.0607 26.0607C31.342 25.7794 31.5 25.3978 31.5 25C31.5 24.6022 31.342 24.2206 31.0607 23.9393C30.7794 23.658 30.3978 23.5 30 23.5ZM5.5 7.5H26.5V23.5H24.5V20C24.5 19.6022 24.342 19.2206 24.0607 18.9393C23.7794 18.658 23.3978 18.5 23 18.5H15C14.6022 18.5 14.2206 18.658 13.9393 18.9393C13.658 19.2206 13.5 19.6022 13.5 20V23.5H10.5V12.5H21.5V15C21.5 15.3978 21.658 15.7794 21.9393 16.0607C22.2206 16.342 22.6022 16.5 23 16.5C23.3978 16.5 23.7794 16.342 24.0607 16.0607C24.342 15.7794 24.5 15.3978 24.5 15V11C24.5 10.6022 24.342 10.2206 24.0607 9.93934C23.7794 9.65804 23.3978 9.5 23 9.5H9C8.60218 9.5 8.22064 9.65804 7.93934 9.93934C7.65804 10.2206 7.5 10.6022 7.5 11V23.5H5.5V7.5ZM21.5 23.5H16.5V21.5H21.5V23.5Z" fill="black"/>
</svg>
