<svg width="32" height="32" viewBox="0 0 32 32" fill="none" xmlns="http://www.w3.org/2000/svg">
<path d="M12.4999 13.6875V4.6875C12.4999 4.60757 12.4807 4.52882 12.4439 4.45785C12.4072 4.38688 12.3539 4.32575 12.2887 4.27959C12.2234 4.23344 12.1481 4.2036 12.0689 4.19258C11.9897 4.18156 11.9091 4.18967 11.8337 4.21625C9.02653 5.20851 6.66574 7.17018 5.17622 9.74818C3.68671 12.3262 3.16631 15.3512 3.70869 18.2787C3.72271 18.3577 3.75554 18.4322 3.80439 18.4958C3.85325 18.5595 3.9167 18.6104 3.98939 18.6444C4.06208 18.6783 4.14188 18.6943 4.22204 18.6909C4.3022 18.6876 4.38037 18.6649 4.44994 18.625L12.2499 14.125C12.3266 14.0807 12.3902 14.0169 12.4341 13.94C12.478 13.8632 12.5007 13.776 12.4999 13.6875ZM11.4999 13.3988L4.58369 17.3888C4.28269 14.9133 4.79451 12.407 6.04199 10.2477C7.28948 8.08849 9.20504 6.39323 11.4999 5.4175V13.3988ZM26.8487 9.795C26.8412 9.77875 26.8337 9.76375 26.8249 9.74875C26.8162 9.73375 26.8062 9.72 26.7974 9.70625C25.6965 7.81882 24.1204 6.25271 22.226 5.16383C20.3316 4.07495 18.185 3.5013 15.9999 3.5C15.8673 3.5 15.7402 3.55268 15.6464 3.64645C15.5526 3.74021 15.4999 3.86739 15.4999 4V15.765L5.39994 21.6475C5.34301 21.6807 5.29319 21.7248 5.25336 21.7773C5.21353 21.8298 5.18447 21.8897 5.16786 21.9535C5.15125 22.0172 5.14741 22.0837 5.15656 22.1489C5.16571 22.2142 5.18768 22.277 5.22119 22.3337C6.61079 24.7 8.7404 26.5432 11.2815 27.579C13.8225 28.6148 16.6339 28.7857 19.2817 28.0653C21.9295 27.3449 24.2667 25.7732 25.9326 23.5927C27.5986 21.4122 28.5008 18.7441 28.4999 16C28.5026 13.8227 27.9332 11.683 26.8487 9.795ZM16.4999 4.51125C18.3474 4.59259 20.148 5.11801 21.7493 6.04299C23.3505 6.96798 24.7053 8.26528 25.6987 9.825L16.4999 15.1825V4.51125ZM15.9999 27.5C14.0817 27.4946 12.1951 27.0118 10.51 26.0953C8.82489 25.1788 7.39439 23.8573 6.34744 22.25L16.2499 16.4888L16.2624 16.4813L26.1999 10.6912C27.1121 12.444 27.5572 14.4022 27.4924 16.3771C27.4276 18.3519 26.8551 20.2768 25.83 21.966C24.805 23.6552 23.362 25.0518 21.6402 26.0211C19.9184 26.9904 17.9758 27.4998 15.9999 27.5Z" fill="black"/>
</svg>
