<svg width="32" height="32" viewBox="0 0 32 32" fill="none" xmlns="http://www.w3.org/2000/svg">
<path d="M11.7275 14.58C11.9615 14.4502 12.1566 14.2602 12.2924 14.0296C12.4282 13.7991 12.4999 13.5364 12.5 13.2688V5.0925C12.5 4.8411 12.4369 4.59373 12.3163 4.37312C12.1958 4.1525 12.0217 3.96573 11.8102 3.82994C11.5986 3.69416 11.3563 3.61374 11.1055 3.59605C10.8547 3.57837 10.6035 3.624 10.375 3.72875C8.02783 4.80895 6.03897 6.53853 4.64347 8.71307C3.24797 10.8876 2.50418 13.4162 2.5 16C2.5 16.4213 2.52 16.845 2.55875 17.2625C2.58197 17.5106 2.66663 17.749 2.80507 17.9561C2.94351 18.1633 3.13137 18.3327 3.35169 18.4491C3.57201 18.5654 3.81785 18.6251 4.067 18.6226C4.31615 18.6202 4.56077 18.5557 4.77875 18.435L11.7275 14.58ZM9.5 7.7575V12.3825L5.60125 14.545C5.98225 11.8662 7.37802 9.43626 9.5 7.7575ZM27.735 9.3325C27.7213 9.3025 27.705 9.27375 27.6887 9.245C27.6725 9.21625 27.6562 9.19125 27.6388 9.16625C26.4473 7.1377 24.7468 5.45552 22.7053 4.28628C20.6639 3.11704 18.3525 2.50129 16 2.5C15.6022 2.5 15.2206 2.65804 14.9393 2.93934C14.658 3.22064 14.5 3.60218 14.5 4V15.1912L4.8975 20.7838C4.72675 20.8832 4.57732 21.0154 4.45782 21.1728C4.33832 21.3302 4.25109 21.5096 4.20114 21.7008C4.15119 21.892 4.13952 22.0912 4.16678 22.2869C4.19404 22.4826 4.25971 22.671 4.36 22.8412C5.86102 25.3963 8.16104 27.3865 10.9053 28.5048C13.6495 29.6232 16.6854 29.8075 19.5448 29.0294C22.4042 28.2513 24.9281 26.554 26.7272 24.1993C28.5263 21.8446 29.5007 18.9633 29.5 16C29.5034 13.6616 28.8949 11.363 27.735 9.3325ZM17.5 5.60625C20.1675 5.99414 22.584 7.39214 24.25 9.51125L17.5 13.4438V5.60625ZM16 26.5C14.4268 26.4958 12.8744 26.14 11.4563 25.4587C10.0382 24.7775 8.7903 23.788 7.80375 22.5625L16.7313 17.3625L16.7763 17.3375L25.75 12.1088C26.3856 13.7016 26.6213 15.4258 26.4366 17.1308C26.2519 18.8358 25.6524 20.4696 24.6905 21.8894C23.7286 23.3091 22.4336 24.4717 20.9186 25.2754C19.4037 26.0792 17.7149 26.4996 16 26.5Z" fill="black"/>
</svg>
