<svg width="32" height="32" viewBox="0 0 32 32" fill="none" xmlns="http://www.w3.org/2000/svg">
<path d="M29.5 26C29.5 26.3978 29.342 26.7794 29.0607 27.0607C28.7794 27.342 28.3978 27.5 28 27.5H4C3.60218 27.5 3.22064 27.342 2.93934 27.0607C2.65804 26.7794 2.5 26.3978 2.5 26V6C2.5 5.60218 2.65804 5.22064 2.93934 4.93934C3.22064 4.65804 3.60218 4.5 4 4.5C4.39782 4.5 4.77936 4.65804 5.06066 4.93934C5.34196 5.22064 5.5 5.60218 5.5 6V7.375L12 13.875L14.9388 10.935C15.0781 10.7952 15.2437 10.6842 15.426 10.6085C15.6083 10.5328 15.8038 10.4938 16.0012 10.4938C16.1987 10.4938 16.3941 10.5328 16.5765 10.6085C16.7588 10.6842 16.9244 10.7952 17.0637 10.935L23.5 17.375V16C23.5 15.6022 23.658 15.2206 23.9393 14.9393C24.2206 14.658 24.6022 14.5 25 14.5C25.3978 14.5 25.7794 14.658 26.0607 14.9393C26.342 15.2206 26.5 15.6022 26.5 16V21C26.5 21.05 26.4975 21.1 26.4925 21.15C26.4925 21.17 26.4862 21.1912 26.4837 21.2113C26.4812 21.2313 26.4762 21.2675 26.4713 21.295C26.4663 21.3225 26.46 21.3425 26.4538 21.365C26.4475 21.3875 26.4425 21.4137 26.435 21.4375L26.4112 21.505C26.4025 21.5287 26.395 21.5525 26.385 21.575C26.375 21.5975 26.3663 21.6175 26.3563 21.6375C26.3463 21.6575 26.335 21.685 26.3225 21.7087C26.31 21.7325 26.3 21.7463 26.2887 21.765C26.2775 21.7837 26.2625 21.8125 26.2475 21.835C26.2325 21.8575 26.2175 21.875 26.2025 21.8937C26.1875 21.9125 26.175 21.9338 26.16 21.9525C26.145 21.9712 26.1025 22.0187 26.0713 22.05L26.0613 22.0625L26.0487 22.0725C26.0175 22.1038 25.985 22.1325 25.9513 22.1612L25.8937 22.2038C25.8737 22.2188 25.8538 22.235 25.8337 22.2488C25.8137 22.2625 25.7875 22.2763 25.765 22.29C25.7425 22.3038 25.7275 22.3137 25.7075 22.3237C25.6875 22.3337 25.6613 22.3463 25.6375 22.3575C25.6138 22.3687 25.5962 22.3775 25.5737 22.3862L25.5063 22.4125L25.435 22.4363C25.4124 22.4434 25.3895 22.4492 25.3662 22.4538L25.2938 22.4725L25.2138 22.4837L25.1475 22.4937C25.0985 22.4984 25.0492 22.5004 25 22.5H20C19.6022 22.5 19.2206 22.342 18.9393 22.0607C18.658 21.7794 18.5 21.3978 18.5 21C18.5 20.6022 18.658 20.2206 18.9393 19.9393C19.2206 19.658 19.6022 19.5 20 19.5H21.375L16 14.125L13.0612 17.065C12.9219 17.2048 12.7563 17.3158 12.574 17.3915C12.3917 17.4672 12.1962 17.5062 11.9987 17.5062C11.8013 17.5062 11.6058 17.4672 11.4235 17.3915C11.2412 17.3158 11.0756 17.2048 10.9362 17.065L5.5 11.625V24.5H28C28.3978 24.5 28.7794 24.658 29.0607 24.9393C29.342 25.2206 29.5 25.6022 29.5 26Z" fill="black"/>
</svg>
