<svg width="32" height="32" viewBox="0 0 32 32" fill="none" xmlns="http://www.w3.org/2000/svg">
<path d="M16 2.5C13.33 2.5 10.7199 3.29176 8.49981 4.77516C6.27974 6.25856 4.54942 8.36697 3.52763 10.8338C2.50585 13.3006 2.2385 16.015 2.7594 18.6337C3.28031 21.2525 4.56606 23.6579 6.45406 25.5459C8.34207 27.434 10.7475 28.7197 13.3663 29.2406C15.985 29.7615 18.6994 29.4942 21.1662 28.4724C23.633 27.4506 25.7414 25.7203 27.2248 23.5002C28.7082 21.2801 29.5 18.67 29.5 16C29.496 12.4208 28.0724 8.98932 25.5416 6.45844C23.0107 3.92756 19.5792 2.50397 16 2.5ZM17.5 5.60875C20.1671 5.99438 22.5838 7.39072 24.25 9.50875L17.5 13.4025V5.60875ZM6.25001 19.8962C5.65927 18.4214 5.41117 16.8317 5.52442 15.247C5.63767 13.6623 6.10931 12.124 6.90376 10.7481C7.69822 9.37225 8.79474 8.19478 10.1106 7.3045C11.4265 6.41423 12.9274 5.8344 14.5 5.60875V15.1337L6.25001 19.8962ZM16 26.5C14.412 26.4997 12.8449 26.1387 11.4168 25.4443C9.98877 24.7498 8.73709 23.7401 7.75626 22.4912L25.75 12.1038C26.3866 13.6968 26.6232 15.4216 26.439 17.1273C26.2548 18.833 25.6555 20.4675 24.6935 21.888C23.7314 23.3084 22.436 24.4715 20.9205 25.2755C19.405 26.0795 17.7156 26.4999 16 26.5Z" fill="black"/>
</svg>
