<svg width="32" height="32" viewBox="0 0 32 32" fill="none" xmlns="http://www.w3.org/2000/svg">
<path d="M29.5 26C29.5 26.3978 29.342 26.7794 29.0607 27.0607C28.7794 27.342 28.3978 27.5 28 27.5H4C3.60218 27.5 3.22064 27.342 2.93934 27.0607C2.65804 26.7794 2.5 26.3978 2.5 26V6C2.5 5.60218 2.65804 5.22064 2.93934 4.93934C3.22064 4.65804 3.60218 4.5 4 4.5C4.39782 4.5 4.77936 4.65804 5.06066 4.93934C5.34196 5.22064 5.5 5.60218 5.5 6V24.5H28C28.3978 24.5 28.7794 24.658 29.0607 24.9393C29.342 25.2206 29.5 25.6022 29.5 26ZM14.5 18.5C14.5 18.8956 14.6173 19.2822 14.8371 19.6111C15.0568 19.94 15.3692 20.1964 15.7346 20.3478C16.1001 20.4991 16.5022 20.5387 16.8902 20.4616C17.2781 20.3844 17.6345 20.1939 17.9142 19.9142C18.1939 19.6345 18.3844 19.2781 18.4616 18.8902C18.5387 18.5022 18.4991 18.1001 18.3478 17.7346C18.1964 17.3692 17.94 17.0568 17.6111 16.8371C17.2822 16.6173 16.8956 16.5 16.5 16.5C15.9696 16.5 15.4609 16.7107 15.0858 17.0858C14.7107 17.4609 14.5 17.9696 14.5 18.5ZM13.5 13.5C13.8956 13.5 14.2822 13.3827 14.6111 13.1629C14.94 12.9432 15.1964 12.6308 15.3478 12.2654C15.4991 11.8999 15.5387 11.4978 15.4616 11.1098C15.3844 10.7219 15.1939 10.3655 14.9142 10.0858C14.6345 9.80608 14.2781 9.6156 13.8902 9.53843C13.5022 9.46126 13.1001 9.50087 12.7346 9.65224C12.3692 9.80362 12.0568 10.06 11.8371 10.3889C11.6173 10.7178 11.5 11.1044 11.5 11.5C11.5 12.0304 11.7107 12.5391 12.0858 12.9142C12.4609 13.2893 12.9696 13.5 13.5 13.5ZM9.5 22.5C9.89556 22.5 10.2822 22.3827 10.6111 22.1629C10.94 21.9432 11.1964 21.6308 11.3478 21.2654C11.4991 20.8999 11.5387 20.4978 11.4616 20.1098C11.3844 19.7219 11.1939 19.3655 10.9142 19.0858C10.6345 18.8061 10.2781 18.6156 9.89018 18.5384C9.50222 18.4613 9.10009 18.5009 8.73463 18.6522C8.36918 18.8036 8.05682 19.06 7.83706 19.3889C7.6173 19.7178 7.5 20.1044 7.5 20.5C7.5 21.0304 7.71071 21.5391 8.08579 21.9142C8.46086 22.2893 8.96957 22.5 9.5 22.5ZM21.5 16.5C21.8956 16.5 22.2822 16.3827 22.6111 16.1629C22.94 15.9432 23.1964 15.6308 23.3478 15.2654C23.4991 14.8999 23.5387 14.4978 23.4616 14.1098C23.3844 13.7219 23.1939 13.3655 22.9142 13.0858C22.6345 12.8061 22.2781 12.6156 21.8902 12.5384C21.5022 12.4613 21.1001 12.5009 20.7346 12.6522C20.3692 12.8036 20.0568 13.06 19.8371 13.3889C19.6173 13.7178 19.5 14.1044 19.5 14.5C19.5 15.0304 19.7107 15.5391 20.0858 15.9142C20.4609 16.2893 20.9696 16.5 21.5 16.5ZM24.5 11.5C24.8956 11.5 25.2822 11.3827 25.6111 11.1629C25.94 10.9432 26.1964 10.6308 26.3478 10.2654C26.4991 9.89991 26.5387 9.49778 26.4616 9.10982C26.3844 8.72186 26.1939 8.36549 25.9142 8.08579C25.6345 7.80608 25.2781 7.6156 24.8902 7.53843C24.5022 7.46126 24.1001 7.50087 23.7346 7.65224C23.3692 7.80362 23.0568 8.05996 22.8371 8.38886C22.6173 8.71776 22.5 9.10444 22.5 9.5C22.5 10.0304 22.7107 10.5391 23.0858 10.9142C23.4609 11.2893 23.9696 11.5 24.5 11.5ZM21.5 20.5C21.5 20.8956 21.6173 21.2822 21.8371 21.6111C22.0568 21.94 22.3692 22.1964 22.7346 22.3478C23.1001 22.4991 23.5022 22.5387 23.8902 22.4616C24.2781 22.3844 24.6345 22.1939 24.9142 21.9142C25.1939 21.6345 25.3844 21.2781 25.4616 20.8902C25.5387 20.5022 25.4991 20.1001 25.3478 19.7346C25.1964 19.3692 24.94 19.0568 24.6111 18.8371C24.2822 18.6173 23.8956 18.5 23.5 18.5C22.9696 18.5 22.4609 18.7107 22.0858 19.0858C21.7107 19.4609 21.5 19.9696 21.5 20.5Z" fill="black"/>
</svg>
