<svg width="32" height="32" viewBox="0 0 32 32" fill="none" xmlns="http://www.w3.org/2000/svg">
<path d="M16 2.5C13.33 2.5 10.7199 3.29176 8.49981 4.77516C6.27974 6.25856 4.54942 8.36697 3.52763 10.8338C2.50585 13.3006 2.2385 16.015 2.7594 18.6337C3.28031 21.2525 4.56606 23.6579 6.45406 25.5459C8.34207 27.434 10.7475 28.7197 13.3663 29.2406C15.985 29.7615 18.6994 29.4942 21.1662 28.4724C23.633 27.4506 25.7414 25.7203 27.2248 23.5002C28.7082 21.2801 29.5 18.67 29.5 16C29.496 12.4208 28.0724 8.98932 25.5416 6.45844C23.0107 3.92756 19.5792 2.50397 16 2.5ZM26.3913 14.5H24.365C24.0558 12.7929 23.2328 11.2208 22.006 9.99403C20.7792 8.76725 19.2071 7.94423 17.5 7.635V5.60875C19.7417 5.93617 21.8178 6.97832 23.4198 8.58024C25.0217 10.1822 26.0638 12.2583 26.3913 14.5ZM14.5 14.5H10.71C10.9675 13.5982 11.4506 12.7769 12.1138 12.1137C12.7769 11.4506 13.5982 10.9675 14.5 10.71V14.5ZM14.5 17.5V21.29C13.5982 21.0325 12.7769 20.5494 12.1138 19.8863C11.4506 19.2231 10.9675 18.4018 10.71 17.5H14.5ZM17.5 17.5H21.29C21.0325 18.4018 20.5494 19.2231 19.8863 19.8863C19.2231 20.5494 18.4018 21.0325 17.5 21.29V17.5ZM17.5 14.5V10.71C18.4018 10.9675 19.2231 11.4506 19.8863 12.1137C20.5494 12.7769 21.0325 13.5982 21.29 14.5H17.5ZM14.5 5.60875V7.635C12.7929 7.94423 11.2208 8.76725 9.99403 9.99403C8.76726 11.2208 7.94423 12.7929 7.63501 14.5H5.60876C5.93617 12.2583 6.97832 10.1822 8.58025 8.58024C10.1822 6.97832 12.2583 5.93617 14.5 5.60875ZM5.60876 17.5H7.63501C7.94423 19.2071 8.76726 20.7792 9.99403 22.006C11.2208 23.2327 12.7929 24.0558 14.5 24.365V26.3913C12.2583 26.0638 10.1822 25.0217 8.58025 23.4198C6.97832 21.8178 5.93617 19.7417 5.60876 17.5ZM17.5 26.3913V24.365C19.2071 24.0558 20.7792 23.2327 22.006 22.006C23.2328 20.7792 24.0558 19.2071 24.365 17.5H26.3913C26.0638 19.7417 25.0217 21.8178 23.4198 23.4198C21.8178 25.0217 19.7417 26.0638 17.5 26.3913Z" fill="black"/>
</svg>
