<svg width="32" height="32" viewBox="0 0 32 32" fill="none" xmlns="http://www.w3.org/2000/svg">
<path d="M17.2187 2.51002C16.8734 2.47968 16.5254 2.52151 16.1971 2.63286C15.8688 2.74421 15.5672 2.92263 15.3115 3.1568C15.0558 3.39097 14.8516 3.67576 14.7119 3.99308C14.5722 4.3104 14.5 4.65331 14.5 5.00002V10.0838C14.496 10.6741 14.7028 11.2464 15.0832 11.6979C15.4635 12.1493 15.9926 12.4501 16.575 12.5463C17.4662 12.6903 18.2674 13.1732 18.811 13.894C19.3546 14.6148 19.5986 15.5178 19.4922 16.4143C19.3857 17.3108 18.9368 18.1315 18.2395 18.7049C17.5421 19.2783 16.6502 19.56 15.75 19.4913C14.9008 19.4237 14.1045 19.0519 13.5075 18.4443C12.9104 17.8367 12.5527 17.034 12.5 16.1838C12.4537 15.2738 12.6325 14.5275 13.0337 13.9675C13.3764 13.4884 13.5378 12.9032 13.489 12.3161C13.4402 11.7291 13.1845 11.1785 12.7675 10.7625L9.32624 7.24252L9.31499 7.23127C9.06907 6.98558 8.77461 6.79389 8.45042 6.66842C8.12623 6.54296 7.77945 6.48648 7.4322 6.50259C7.08496 6.51871 6.74489 6.60707 6.43372 6.76202C6.12254 6.91697 5.8471 7.13511 5.62499 7.40252C3.46091 9.99604 2.35169 13.3088 2.51774 16.6825C2.68379 20.0562 4.11294 23.244 6.52124 25.6125C9.04126 28.1126 12.4502 29.5107 16 29.5H16.1937C19.7044 29.4399 23.0545 28.0184 25.5371 25.5353C28.0196 23.0523 29.4405 19.702 29.5 16.1913C29.5962 9.14502 24.2025 3.13502 17.2187 2.51002ZM7.58624 9.75002L10.36 12.5825C10.0096 13.1751 9.76429 13.8238 9.63499 14.5H5.60874C5.85498 12.7748 6.53543 11.1403 7.58624 9.75002ZM5.60749 17.5H9.67374C9.95184 18.6726 10.5504 19.7448 11.4027 20.5968C12.255 21.4489 13.3273 22.0472 14.5 22.325V26.3938C12.2563 26.0699 10.1777 25.0286 8.57486 23.4256C6.97202 21.8225 5.93103 19.7437 5.60749 17.5ZM17.5 26.3888V22.3275C18.5989 22.0678 19.6102 21.5238 20.4325 20.75C21.2921 19.9478 21.9181 18.9275 22.2436 17.7976C22.5692 16.6678 22.5822 15.4708 22.2813 14.3342C21.9804 13.1976 21.3768 12.1638 20.5348 11.3431C19.6928 10.5224 18.644 9.9455 17.5 9.67377V5.56252C22.6612 6.30377 26.5725 10.85 26.5 16.15C26.4275 21.32 22.5 25.6563 17.5 26.3888Z" fill="black"/>
</svg>
