<svg width="32" height="32" viewBox="0 0 32 32" fill="none" xmlns="http://www.w3.org/2000/svg">
<path d="M21.5 13.5C21.5 13.8978 21.342 14.2794 21.0607 14.5607C20.7794 14.842 20.3978 15 20 15H12C11.6022 15 11.2206 14.842 10.9393 14.5607C10.658 14.2794 10.5 13.8978 10.5 13.5C10.5 13.1022 10.658 12.7206 10.9393 12.4393C11.2206 12.158 11.6022 12 12 12H20C20.3978 12 20.7794 12.158 21.0607 12.4393C21.342 12.7206 21.5 13.1022 21.5 13.5ZM20 17H12C11.6022 17 11.2206 17.158 10.9393 17.4393C10.658 17.7206 10.5 18.1022 10.5 18.5C10.5 18.8978 10.658 19.2794 10.9393 19.5607C11.2206 19.842 11.6022 20 12 20H20C20.3978 20 20.7794 19.842 21.0607 19.5607C21.342 19.2794 21.5 18.8978 21.5 18.5C21.5 18.1022 21.342 17.7206 21.0607 17.4393C20.7794 17.158 20.3978 17 20 17ZM29.5 15.5C29.4964 18.9467 28.1256 22.2512 25.6884 24.6884C23.2512 27.1256 19.9467 28.4964 16.5 28.5H5.95875C5.30685 28.4993 4.68184 28.2401 4.22088 27.7791C3.75992 27.3182 3.50066 26.6931 3.5 26.0413V15.5C3.5 12.0522 4.86964 8.74558 7.30761 6.30761C9.74558 3.86964 13.0522 2.5 16.5 2.5C19.9478 2.5 23.2544 3.86964 25.6924 6.30761C28.1304 8.74558 29.5 12.0522 29.5 15.5ZM26.5 15.5C26.5 12.8478 25.4464 10.3043 23.5711 8.42893C21.6957 6.55357 19.1522 5.5 16.5 5.5C13.8478 5.5 11.3043 6.55357 9.42893 8.42893C7.55357 10.3043 6.5 12.8478 6.5 15.5V25.5H16.5C19.1513 25.497 21.6931 24.4425 23.5678 22.5678C25.4425 20.6931 26.497 18.1513 26.5 15.5Z" fill="black"/>
</svg>
