<svg width="32" height="32" viewBox="0 0 32 32" fill="none" xmlns="http://www.w3.org/2000/svg">
<path d="M28.9737 23.4163C29.679 21.9827 30.0305 20.4009 29.9988 18.8035C29.9671 17.2062 29.5531 15.6396 28.7915 14.2351C28.0298 12.8306 26.9428 11.6291 25.6213 10.7311C24.2999 9.83308 22.7825 9.26478 21.1962 9.07378C20.6702 7.84743 19.904 6.73878 18.9428 5.81314C17.9816 4.8875 16.8449 4.1636 15.5996 3.68408C14.3543 3.20456 13.0257 2.97912 11.6919 3.02105C10.3582 3.06298 9.04628 3.37143 7.83357 3.92823C6.62087 4.48503 5.53187 5.27891 4.63073 6.26309C3.7296 7.24728 3.03455 8.40187 2.58655 9.65884C2.13855 10.9158 1.94666 12.2497 2.02217 13.582C2.09768 14.9143 2.43908 16.218 3.02625 17.4163L2.06875 20.7688C1.98331 21.0687 1.97956 21.386 2.05791 21.6879C2.13625 21.9897 2.29383 22.2652 2.51435 22.4857C2.73486 22.7062 3.0103 22.8638 3.31216 22.9421C3.61402 23.0205 3.93132 23.0167 4.23125 22.9313L7.58375 21.9738C8.59538 22.4705 9.68357 22.7929 10.8025 22.9275C11.3359 24.1771 12.1183 25.305 13.102 26.2422C14.0857 27.1793 15.2501 27.9062 16.5241 28.3785C17.7981 28.8507 19.1549 29.0584 20.5119 28.9888C21.8688 28.9192 23.1973 28.5738 24.4162 27.9738L27.7687 28.9313C28.0687 29.0167 28.386 29.0205 28.6878 28.9421C28.9897 28.8638 29.2651 28.7062 29.4856 28.4857C29.7062 28.2652 29.8637 27.9897 29.9421 27.6879C30.0204 27.386 30.0167 27.0687 29.9312 26.7688L28.9737 23.4163ZM26.9412 23.5838L27.885 26.885L24.5837 25.9413C24.3322 25.8706 24.063 25.9011 23.8337 26.0263C21.9904 27.0292 19.827 27.2683 17.809 26.6923C15.7911 26.1163 14.08 24.7711 13.0437 22.9463C14.4131 22.8037 15.7381 22.3796 16.9358 21.7007C18.1335 21.0218 19.178 20.1027 20.0037 19.0011C20.8293 17.8994 21.4185 16.6391 21.734 15.299C22.0496 13.9589 22.0848 12.5681 21.8375 11.2138C23.0358 11.4962 24.1527 12.0513 25.1013 12.836C26.05 13.6206 26.8047 14.6137 27.3068 15.7377C27.8089 16.8618 28.0448 18.0866 27.9961 19.3167C27.9475 20.5468 27.6156 21.7491 27.0262 22.83C26.9 23.0604 26.8695 23.3311 26.9412 23.5838Z" fill="black"/>
</svg>
