<svg width="32" height="32" viewBox="0 0 32 32" fill="none" xmlns="http://www.w3.org/2000/svg">
<path d="M29.5075 23.4612C30.2033 21.9788 30.5427 20.3543 30.4986 18.7173C30.4546 17.0803 30.0282 15.4763 29.2537 14.0335C28.4791 12.5907 27.3779 11.3491 26.0379 10.4078C24.6978 9.46651 23.1562 8.8517 21.5362 8.61249C20.9631 7.34968 20.1456 6.21291 19.1307 5.2678C18.1159 4.3227 16.9238 3.58799 15.6235 3.1061C14.3231 2.62421 12.9402 2.40469 11.5545 2.4602C10.1689 2.51571 8.80793 2.84516 7.55029 3.42953C6.29265 4.01389 5.16322 4.8416 4.22723 5.86486C3.29123 6.88811 2.5672 8.08665 2.09695 9.39126C1.6267 10.6959 1.41954 12.0807 1.48743 13.4658C1.55532 14.8509 1.89692 16.2089 2.4925 17.4612L1.5875 20.6312C1.4768 21.0177 1.47163 21.4267 1.57254 21.8157C1.67345 22.2048 1.87674 22.5598 2.16128 22.8437C2.44583 23.1276 2.80123 23.3301 3.19054 23.4301C3.57984 23.5301 3.98884 23.5241 4.375 23.4125L7.545 22.5075C8.47076 22.9392 9.45439 23.2339 10.465 23.3825C11.044 24.6414 11.8664 25.7734 12.8847 26.7132C13.903 27.653 15.0972 28.3821 16.3985 28.8585C17.6997 29.3348 19.0824 29.549 20.4668 29.4888C21.8512 29.4286 23.21 29.0951 24.465 28.5075L27.635 29.4125C28.0208 29.5226 28.429 29.5276 28.8173 29.427C29.2056 29.3263 29.56 29.1236 29.8437 28.8399C30.1274 28.5563 30.33 28.2019 30.4307 27.8135C30.5314 27.4252 30.5264 27.017 30.4162 26.6312L29.5075 23.4612ZM7.69125 19.4025C7.55174 19.4024 7.41291 19.4217 7.27875 19.46L4.8425 20.1562L5.53875 17.72C5.64731 17.3411 5.60241 16.9348 5.41375 16.5887C4.55128 15.0049 4.2884 13.1633 4.67328 11.4014C5.05816 9.63949 6.06503 8.07527 7.50939 6.99534C8.95375 5.9154 10.7389 5.39208 12.5377 5.52126C14.3365 5.65044 16.0286 6.42346 17.3038 7.69869C18.579 8.97393 19.3521 10.666 19.4812 12.4648C19.6104 14.2636 19.0871 16.0487 18.0072 17.4931C16.9272 18.9375 15.363 19.9443 13.6011 20.3292C11.8392 20.7141 9.9976 20.4512 8.41375 19.5887C8.19251 19.4668 7.94388 19.4031 7.69125 19.4037V19.4025ZM26.4612 23.72L27.1575 26.1562L24.7212 25.46C24.3424 25.3514 23.936 25.3963 23.59 25.585C21.9753 26.4635 20.0943 26.7191 18.3037 26.3032C16.5131 25.8874 14.9373 24.829 13.875 23.3287C16.4811 22.858 18.8127 21.419 20.402 19.3007C21.9913 17.1823 22.7207 14.5412 22.4437 11.9075C23.4754 12.2624 24.4172 12.8381 25.2034 13.5944C25.9897 14.3507 26.6014 15.2694 26.9961 16.2865C27.3907 17.3036 27.5587 18.3945 27.4884 19.4832C27.418 20.5719 27.111 21.6322 26.5887 22.59C26.3992 22.9357 26.3534 23.3421 26.4612 23.7212V23.72Z" fill="black"/>
</svg>
