<svg width="32" height="32" viewBox="0 0 32 32" fill="none" xmlns="http://www.w3.org/2000/svg">
<path opacity="0.08" d="M28 16C28.0003 18.1075 27.4455 20.1778 26.3916 22.0027C25.3377 23.8277 23.8217 25.3429 21.9963 26.396C20.1708 27.449 18.1002 28.0028 15.9928 28.0015C13.8854 28.0003 11.8154 27.444 9.99125 26.3888L5.3175 27.9475C5.14131 28.0063 4.95223 28.0148 4.77146 27.9722C4.59069 27.9295 4.42537 27.8373 4.29403 27.706C4.1627 27.5747 4.07054 27.4093 4.02787 27.2286C3.98521 27.0478 3.99374 26.8587 4.0525 26.6825L5.61125 22.0088C4.68989 20.4151 4.14752 18.6308 4.02612 16.794C3.90473 14.9572 4.20755 13.117 4.91116 11.4159C5.61477 9.71488 6.70031 8.19849 8.08378 6.98412C9.46725 5.76974 11.1116 4.88994 12.8895 4.41277C14.6674 3.93561 16.5313 3.87388 18.3369 4.23237C20.1425 4.59085 21.8414 5.35994 23.3022 6.48012C24.763 7.6003 25.9465 9.04154 26.7611 10.6923C27.5757 12.3431 27.9996 14.1592 28 16Z" fill="black"/>
<path d="M16 3C13.7556 2.99951 11.5493 3.58011 9.59582 4.68529C7.64236 5.79046 6.00831 7.38256 4.85271 9.30662C3.69712 11.2307 3.05935 13.4212 3.00148 15.6648C2.94362 17.9085 3.46762 20.1289 4.5225 22.11L3.10375 26.3662C2.98623 26.7186 2.96918 27.0968 3.0545 27.4583C3.13982 27.8199 3.32414 28.1505 3.58681 28.4132C3.84948 28.6759 4.18012 28.8602 4.54166 28.9455C4.9032 29.0308 5.28136 29.0138 5.63375 28.8962L9.89 27.4775C11.6335 28.4048 13.5653 28.9228 15.5388 28.992C17.5123 29.0613 19.4757 28.68 21.2798 27.8772C23.084 27.0743 24.6816 25.871 25.9513 24.3586C27.221 22.8462 28.1294 21.0644 28.6077 19.1484C29.0859 17.2325 29.1214 15.2328 28.7114 13.301C28.3014 11.3693 27.4568 9.55642 26.2415 7.9999C25.0263 6.44337 23.4724 5.18415 21.6979 4.31782C19.9233 3.45149 17.9747 3.00081 16 3ZM16 27C14.0662 27.0013 12.1664 26.4921 10.4925 25.5238C10.3699 25.4527 10.2337 25.4085 10.0928 25.394C9.95182 25.3796 9.80942 25.3953 9.675 25.44L5 27L6.55875 22.325C6.60368 22.1907 6.61956 22.0483 6.60534 21.9074C6.59112 21.7665 6.54712 21.6301 6.47625 21.5075C5.26371 19.4111 4.77689 16.9732 5.09129 14.572C5.40569 12.1707 6.50374 9.94027 8.21511 8.22674C9.92648 6.51321 12.1555 5.41234 14.5564 5.0949C16.9572 4.77747 19.3958 5.26122 21.4937 6.47111C23.5916 7.68099 25.2315 9.54939 26.1592 11.7864C27.0869 14.0235 27.2503 16.5042 26.6243 18.8436C25.9982 21.1831 24.6176 23.2505 22.6967 24.7253C20.7757 26.2 18.4218 26.9996 16 27Z" fill="black"/>
</svg>
