<svg width="32" height="32" viewBox="0 0 32 32" fill="none" xmlns="http://www.w3.org/2000/svg">
<path d="M27 4.5H5C4.33696 4.5 3.70107 4.76339 3.23223 5.23223C2.76339 5.70107 2.5 6.33696 2.5 7V23C2.5 23.663 2.76339 24.2989 3.23223 24.7678C3.70107 25.2366 4.33696 25.5 5 25.5H12.1538L13.8562 28.2862C14.0779 28.6556 14.3911 28.9613 14.7657 29.174C15.1402 29.3866 15.5634 29.4988 15.9941 29.4999C16.4247 29.5009 16.8484 29.3906 17.2239 29.1797C17.5995 28.9688 17.9142 28.6645 18.1375 28.2962L19.8463 25.5H27C27.663 25.5 28.2989 25.2366 28.7678 24.7678C29.2366 24.2989 29.5 23.663 29.5 23V7C29.5 6.33696 29.2366 5.70107 28.7678 5.23223C28.2989 4.76339 27.663 4.5 27 4.5ZM26.5 22.5H19.5662C19.1366 22.5 18.7141 22.6108 18.3397 22.8217C17.9653 23.0325 17.6515 23.3363 17.4287 23.7038L16 26.0413L14.5737 23.7075C14.3503 23.3398 14.0361 23.0357 13.6614 22.8243C13.2867 22.6129 12.864 22.5012 12.4338 22.5H5.5V7.5H26.5V22.5Z" fill="black"/>
</svg>
