<svg width="32" height="32" viewBox="0 0 32 32" fill="none" xmlns="http://www.w3.org/2000/svg">
<path d="M16 3.25C13.7897 3.24954 11.6173 3.82366 9.69586 4.91604C7.77441 6.00843 6.16994 7.58155 5.03985 9.48107C3.90977 11.3806 3.2929 13.5413 3.24975 15.7511C3.20661 17.961 3.73867 20.1441 4.79375 22.0863L3.34125 26.445C3.23842 26.7533 3.2235 27.0842 3.29815 27.4006C3.37281 27.7169 3.53409 28.0062 3.76393 28.2361C3.99377 28.4659 4.28307 28.6272 4.59942 28.7018C4.91577 28.7765 5.24666 28.7616 5.555 28.6588L9.91375 27.2062C11.62 28.1322 13.5151 28.6563 15.4546 28.7385C17.3942 28.8208 19.3269 28.4591 21.1054 27.681C22.8839 26.903 24.4613 25.729 25.7172 24.2488C26.9732 22.7685 27.8745 21.021 28.3525 19.1395C28.8305 17.258 28.8726 15.2922 28.4755 13.3919C28.0784 11.4917 27.2526 9.70725 26.0611 8.17462C24.8697 6.64199 23.344 5.40167 21.6004 4.54822C19.8567 3.69478 17.9413 3.25075 16 3.25ZM16 27.25C14.0224 27.2505 12.0796 26.7296 10.3675 25.74C10.2534 25.6744 10.1242 25.6395 9.9925 25.6388C9.9118 25.6392 9.83167 25.6523 9.755 25.6775L5.08125 27.235C5.0372 27.2497 4.98993 27.2518 4.94474 27.2412C4.89955 27.2305 4.85822 27.2075 4.82538 27.1746C4.79255 27.1418 4.76951 27.1005 4.75884 27.0553C4.74818 27.0101 4.75031 26.9628 4.765 26.9188L6.3225 22.25C6.3562 22.1491 6.36805 22.0422 6.35728 21.9364C6.3465 21.8306 6.31334 21.7283 6.26 21.6362C5.01907 19.4926 4.52027 16.9994 4.84099 14.5433C5.16171 12.0873 6.28401 9.8057 8.03378 8.0526C9.78356 6.2995 12.063 5.17287 14.5184 4.84749C16.9739 4.52211 19.4681 5.01618 21.614 6.25304C23.76 7.4899 25.4378 9.40041 26.3872 11.6882C27.3365 13.9759 27.5043 16.513 26.8645 18.9059C26.2247 21.2987 24.8131 23.4136 22.8487 24.9223C20.8843 26.431 18.4769 27.2492 16 27.25Z" fill="black"/>
</svg>
