<svg width="32" height="32" viewBox="0 0 32 32" fill="none" xmlns="http://www.w3.org/2000/svg">
<path d="M21.5362 8.61255C20.5346 6.43881 18.8204 4.67251 16.6775 3.60629C14.5347 2.54006 12.092 2.23791 9.75395 2.74989C7.41593 3.26186 5.32298 4.55724 3.82186 6.4214C2.32075 8.28556 1.50155 10.6066 1.5 13V21.25C1.5 21.8468 1.73705 22.4191 2.15901 22.841C2.58097 23.263 3.15326 23.5 3.75 23.5H10.5125C11.3663 25.2937 12.7104 26.8091 14.3893 27.8709C16.0683 28.9327 18.0135 29.4975 20 29.5H28.25C28.8467 29.5 29.419 29.263 29.841 28.841C30.2629 28.4191 30.5 27.8468 30.5 27.25V19C30.5001 16.4814 29.5949 14.0466 27.9494 12.1397C26.3039 10.2329 24.0278 8.98105 21.5362 8.61255ZM4.5 13C4.5 11.5167 4.93987 10.0666 5.76398 8.83327C6.58809 7.5999 7.75943 6.63861 9.12987 6.07095C10.5003 5.50329 12.0083 5.35477 13.4632 5.64416C14.918 5.93355 16.2544 6.64785 17.3033 7.69674C18.3522 8.74564 19.0665 10.082 19.3559 11.5369C19.6453 12.9917 19.4968 14.4997 18.9291 15.8702C18.3614 17.2406 17.4001 18.412 16.1668 19.2361C14.9334 20.0602 13.4834 20.5 12 20.5H4.5V13ZM27.5 26.5H20C18.8001 26.4986 17.6179 26.21 16.5523 25.6583C15.4868 25.1066 14.5687 24.3079 13.875 23.3288C16.4811 22.858 18.8127 21.4191 20.402 19.3007C21.9913 17.1823 22.7207 14.5413 22.4438 11.9075C23.92 12.4163 25.2006 13.3731 26.107 14.6446C27.0134 15.916 27.5004 17.4386 27.5 19V26.5Z" fill="black"/>
</svg>
