<svg width="32" height="32" viewBox="0 0 32 32" fill="none" xmlns="http://www.w3.org/2000/svg">
<path d="M27 5.5H5.00001C4.33697 5.5 3.70108 5.76339 3.23224 6.23223C2.7634 6.70107 2.50001 7.33696 2.50001 8V28C2.49801 28.4761 2.63324 28.9427 2.8895 29.3439C3.14577 29.7452 3.51222 30.0641 3.94501 30.2625C4.27723 30.418 4.63943 30.4991 5.00626 30.5C5.59329 30.4985 6.16089 30.2895 6.60876 29.91L6.63251 29.89L10.5 26.5H27C27.663 26.5 28.2989 26.2366 28.7678 25.7678C29.2366 25.2989 29.5 24.663 29.5 24V8C29.5 7.33696 29.2366 6.70107 28.7678 6.23223C28.2989 5.76339 27.663 5.5 27 5.5ZM26.5 23.5H10.3125C9.72397 23.5 9.15428 23.7076 8.70376 24.0863L8.68001 24.1063L5.50001 26.8925V8.5H26.5V23.5ZM11 16C11 15.6044 11.1173 15.2178 11.3371 14.8889C11.5568 14.56 11.8692 14.3036 12.2346 14.1522C12.6001 14.0009 13.0022 13.9613 13.3902 14.0384C13.7781 14.1156 14.1345 14.3061 14.4142 14.5858C14.6939 14.8655 14.8844 15.2219 14.9616 15.6098C15.0387 15.9978 14.9991 16.3999 14.8478 16.7654C14.6964 17.1308 14.44 17.4432 14.1111 17.6629C13.7822 17.8827 13.3956 18 13 18C12.4696 18 11.9609 17.7893 11.5858 17.4142C11.2107 17.0391 11 16.5304 11 16ZM17 16C17 15.6044 17.1173 15.2178 17.3371 14.8889C17.5568 14.56 17.8692 14.3036 18.2346 14.1522C18.6001 14.0009 19.0022 13.9613 19.3902 14.0384C19.7781 14.1156 20.1345 14.3061 20.4142 14.5858C20.6939 14.8655 20.8844 15.2219 20.9616 15.6098C21.0387 15.9978 20.9991 16.3999 20.8478 16.7654C20.6964 17.1308 20.44 17.4432 20.1111 17.6629C19.7822 17.8827 19.3956 18 19 18C18.4696 18 17.9609 17.7893 17.5858 17.4142C17.2107 17.0391 17 16.5304 17 16Z" fill="black"/>
</svg>
