<svg width="32" height="32" viewBox="0 0 32 32" fill="none" xmlns="http://www.w3.org/2000/svg">
<path d="M16.5 2.5C13.0533 2.50364 9.74882 3.87445 7.31163 6.31163C4.87445 8.74882 3.50364 12.0533 3.5 15.5V26.0413C3.50066 26.6931 3.75992 27.3182 4.22088 27.7791C4.68184 28.2401 5.30685 28.4993 5.95875 28.5H16.5C19.9478 28.5 23.2544 27.1304 25.6924 24.6924C28.1304 22.2544 29.5 18.9478 29.5 15.5C29.5 12.0522 28.1304 8.74558 25.6924 6.30761C23.2544 3.86964 19.9478 2.5 16.5 2.5ZM16.5 25.5H6.5V15.5C6.5 13.5222 7.08649 11.5888 8.1853 9.9443C9.28412 8.29981 10.8459 7.01808 12.6732 6.2612C14.5004 5.50433 16.5111 5.30629 18.4509 5.69215C20.3907 6.078 22.1725 7.03041 23.5711 8.42893C24.9696 9.82746 25.922 11.6093 26.3079 13.5491C26.6937 15.4889 26.4957 17.4996 25.7388 19.3268C24.9819 21.1541 23.7002 22.7159 22.0557 23.8147C20.4112 24.9135 18.4778 25.5 16.5 25.5Z" fill="black"/>
</svg>
