<svg width="32" height="32" viewBox="0 0 32 32" fill="none" xmlns="http://www.w3.org/2000/svg">
<path d="M27 6H5C4.46957 6 3.96086 6.21071 3.58579 6.58579C3.21071 6.96086 3 7.46957 3 8V28C2.99769 28.3814 3.10558 28.7553 3.3107 29.0768C3.51582 29.3984 3.80943 29.6538 4.15625 29.8125C4.42054 29.9356 4.70847 29.9995 5 30C5.4695 29.9989 5.92343 29.8315 6.28125 29.5275C6.28721 29.5236 6.29267 29.519 6.2975 29.5138L10.3125 26H27C27.5304 26 28.0391 25.7893 28.4142 25.4142C28.7893 25.0391 29 24.5304 29 24V8C29 7.46957 28.7893 6.96086 28.4142 6.58579C28.0391 6.21071 27.5304 6 27 6ZM27 24H10.3125C9.84153 23.9998 9.38559 24.1658 9.025 24.4688L9.01 24.4825L5 28V8H27V24Z" fill="black"/>
</svg>
