<svg width="32" height="32" viewBox="0 0 32 32" fill="none" xmlns="http://www.w3.org/2000/svg">
<path d="M29.45 26.905L28.4388 23.365C29.1547 21.9805 29.5191 20.441 29.4996 18.8825C29.4801 17.3239 29.0775 15.794 28.3271 14.4278C27.5768 13.0616 26.5018 11.901 25.1969 11.0484C23.8921 10.1958 22.3975 9.67733 20.845 9.53875C20.3761 8.33685 19.6673 7.24305 18.7619 6.32405C17.8564 5.40504 16.7733 4.68009 15.5785 4.19339C14.3837 3.7067 13.1023 3.46846 11.8124 3.4932C10.5225 3.51795 9.25122 3.80516 8.07597 4.33732C6.90072 4.86949 5.84618 5.63545 4.97665 6.58851C4.10711 7.54157 3.44081 8.66175 3.01837 9.88074C2.59593 11.0997 2.4262 12.392 2.51954 13.6787C2.61287 14.9655 2.96732 16.2197 3.56125 17.365L2.55 20.905C2.4966 21.091 2.4871 21.2868 2.52225 21.4771C2.5574 21.6674 2.63625 21.8469 2.75258 22.0015C2.86891 22.1561 3.01954 22.2816 3.19262 22.3681C3.36571 22.4546 3.55651 22.4998 3.75 22.5C3.86844 22.4999 3.98626 22.483 4.1 22.45L7.64 21.4387C8.73468 22.0044 9.92895 22.3517 11.1563 22.4612C11.6411 23.7012 12.3812 24.8254 13.3285 25.7609C14.2758 26.6964 15.4091 27.4224 16.655 27.8917C17.9009 28.361 19.2316 28.5632 20.5606 28.4852C21.8897 28.4072 23.1876 28.0506 24.37 27.4387L27.91 28.45C28.0237 28.483 28.1416 28.4999 28.26 28.5C28.4531 28.499 28.6433 28.4533 28.8157 28.3665C28.9882 28.2796 29.1382 28.154 29.2539 27.9995C29.3697 27.845 29.4481 27.6658 29.483 27.4759C29.5179 27.286 29.5083 27.0906 29.455 26.905H29.45ZM7.69125 20.405C7.64468 20.4048 7.59834 20.4115 7.55375 20.425L3.82 21.4912C3.77718 21.5034 3.7319 21.5039 3.68883 21.4927C3.64575 21.4815 3.60645 21.459 3.57498 21.4275C3.54351 21.396 3.52101 21.3567 3.50981 21.3137C3.4986 21.2706 3.4991 21.2253 3.51125 21.1825L4.5775 17.4487C4.61325 17.3232 4.59844 17.1886 4.53625 17.0737C3.55786 15.2789 3.25909 13.1915 3.6947 11.1942C4.13032 9.19694 5.27114 7.42356 6.90807 6.19909C8.545 4.97462 10.5684 4.3811 12.6074 4.5273C14.6464 4.6735 16.5644 5.54964 18.0099 6.99512C19.4554 8.44061 20.3315 10.3586 20.4777 12.3976C20.6239 14.4366 20.0304 16.46 18.8059 18.0969C17.5814 19.7339 15.8081 20.8747 13.8108 21.3103C11.8135 21.7459 9.72614 21.4471 7.93125 20.4687C7.85812 20.4268 7.77556 20.404 7.69125 20.4025V20.405ZM28.425 27.425C28.3931 27.4573 28.3529 27.4804 28.3089 27.4916C28.2648 27.5028 28.2185 27.5019 28.175 27.4887L24.4413 26.4225C24.3157 26.3868 24.1811 26.4016 24.0663 26.4637C23.0391 27.0239 21.9074 27.366 20.742 27.4686C19.5766 27.5712 18.4025 27.4321 17.2933 27.06C16.1841 26.6879 15.1637 26.0909 14.2958 25.3062C13.428 24.5216 12.7316 23.5662 12.25 22.5C13.6815 22.4622 15.086 22.1012 16.3584 21.4441C17.6307 20.787 18.7381 19.8507 19.5976 18.7054C20.4571 17.56 21.0466 16.2351 21.3219 14.8297C21.5972 13.4244 21.5513 11.9751 21.1875 10.59C22.5476 10.7818 23.841 11.3004 24.9569 12.1013C26.0728 12.9023 26.978 13.9617 27.595 15.189C28.2119 16.4162 28.5222 17.7747 28.4994 19.1481C28.4765 20.5215 28.1212 21.869 27.4638 23.075C27.4016 23.1898 27.3868 23.3244 27.4225 23.45L28.4888 27.1837C28.5002 27.226 28.5003 27.2706 28.4891 27.3129C28.4779 27.3552 28.4558 27.3939 28.425 27.425Z" fill="black"/>
</svg>
