<svg width="32" height="32" viewBox="0 0 32 32" fill="none" xmlns="http://www.w3.org/2000/svg">
<path d="M27 4.5H5C4.33696 4.5 3.70107 4.76339 3.23223 5.23223C2.76339 5.70107 2.5 6.33696 2.5 7V23C2.5 23.663 2.76339 24.2989 3.23223 24.7678C3.70107 25.2366 4.33696 25.5 5 25.5H12.1538L13.8562 28.2862C14.0779 28.6556 14.3911 28.9613 14.7657 29.174C15.1402 29.3866 15.5634 29.4988 15.9941 29.4999C16.4247 29.5009 16.8484 29.3906 17.2239 29.1797C17.5995 28.9688 17.9142 28.6645 18.1375 28.2962L19.8463 25.5H27C27.663 25.5 28.2989 25.2366 28.7678 24.7678C29.2366 24.2989 29.5 23.663 29.5 23V7C29.5 6.33696 29.2366 5.70107 28.7678 5.23223C28.2989 4.76339 27.663 4.5 27 4.5ZM26.5 22.5H19.5662C19.1366 22.5 18.7141 22.6108 18.3397 22.8217C17.9653 23.0325 17.6515 23.3363 17.4287 23.7038L16 26.0413L14.5737 23.7075C14.3503 23.3398 14.0361 23.0357 13.6614 22.8243C13.2867 22.6129 12.864 22.5012 12.4338 22.5H5.5V7.5H26.5V22.5ZM11 15C11 14.6044 11.1173 14.2178 11.3371 13.8889C11.5568 13.56 11.8692 13.3036 12.2346 13.1522C12.6001 13.0009 13.0022 12.9613 13.3902 13.0384C13.7781 13.1156 14.1345 13.3061 14.4142 13.5858C14.6939 13.8655 14.8844 14.2219 14.9616 14.6098C15.0387 14.9978 14.9991 15.3999 14.8478 15.7654C14.6964 16.1308 14.44 16.4432 14.1111 16.6629C13.7822 16.8827 13.3956 17 13 17C12.4696 17 11.9609 16.7893 11.5858 16.4142C11.2107 16.0391 11 15.5304 11 15ZM17 15C17 14.6044 17.1173 14.2178 17.3371 13.8889C17.5568 13.56 17.8692 13.3036 18.2346 13.1522C18.6001 13.0009 19.0022 12.9613 19.3902 13.0384C19.7781 13.1156 20.1345 13.3061 20.4142 13.5858C20.6939 13.8655 20.8844 14.2219 20.9616 14.6098C21.0387 14.9978 20.9991 15.3999 20.8478 15.7654C20.6964 16.1308 20.44 16.4432 20.1111 16.6629C19.7822 16.8827 19.3956 17 19 17C18.4696 17 17.9609 16.7893 17.5858 16.4142C17.2107 16.0391 17 15.5304 17 15Z" fill="black"/>
</svg>
