<svg width="32" height="32" viewBox="0 0 32 32" fill="none" xmlns="http://www.w3.org/2000/svg">
<path d="M27 5.5H5.00001C4.33697 5.5 3.70108 5.76339 3.23224 6.23223C2.7634 6.70107 2.50001 7.33696 2.50001 8V28C2.49801 28.4761 2.63324 28.9427 2.8895 29.3439C3.14577 29.7452 3.51222 30.0641 3.94501 30.2625C4.27723 30.418 4.63943 30.4991 5.00626 30.5C5.59329 30.4985 6.16089 30.2895 6.60876 29.91L6.63251 29.89L10.5 26.5H27C27.663 26.5 28.2989 26.2366 28.7678 25.7678C29.2366 25.2989 29.5 24.663 29.5 24V8C29.5 7.33696 29.2366 6.70107 28.7678 6.23223C28.2989 5.76339 27.663 5.5 27 5.5ZM26.5 23.5H10.3125C9.72397 23.5 9.15428 23.7076 8.70376 24.0863L8.68001 24.1063L5.50001 26.8925V8.5H26.5V23.5ZM10.5 13.5C10.5 13.1022 10.658 12.7206 10.9393 12.4393C11.2207 12.158 11.6022 12 12 12H20C20.3978 12 20.7794 12.158 21.0607 12.4393C21.342 12.7206 21.5 13.1022 21.5 13.5C21.5 13.8978 21.342 14.2794 21.0607 14.5607C20.7794 14.842 20.3978 15 20 15H12C11.6022 15 11.2207 14.842 10.9393 14.5607C10.658 14.2794 10.5 13.8978 10.5 13.5ZM10.5 18.5C10.5 18.1022 10.658 17.7206 10.9393 17.4393C11.2207 17.158 11.6022 17 12 17H20C20.3978 17 20.7794 17.158 21.0607 17.4393C21.342 17.7206 21.5 18.1022 21.5 18.5C21.5 18.8978 21.342 19.2794 21.0607 19.5607C20.7794 19.842 20.3978 20 20 20H12C11.6022 20 11.2207 19.842 10.9393 19.5607C10.658 19.2794 10.5 18.8978 10.5 18.5Z" fill="black"/>
</svg>
