<svg width="32" height="32" viewBox="0 0 32 32" fill="none" xmlns="http://www.w3.org/2000/svg">
<path d="M16 2.5C13.6876 2.49951 11.4137 3.09303 9.39653 4.22367C7.37933 5.3543 5.68637 6.98415 4.47995 8.95696C3.27353 10.9298 2.59409 13.1794 2.50676 15.4902C2.41944 17.801 2.92716 20.0955 3.98125 22.1537L2.625 26.2075C2.47628 26.6488 2.45377 27.1229 2.56001 27.5763C2.66625 28.0297 2.89702 28.4444 3.22631 28.7737C3.5556 29.103 3.97032 29.3338 4.42373 29.44C4.87714 29.5462 5.35121 29.5237 5.7925 29.375L9.84625 28.0238C11.6638 28.9516 13.668 29.4554 15.7083 29.4972C17.7486 29.5389 19.7718 29.1176 21.6258 28.2649C23.4798 27.4121 25.1163 26.1502 26.4124 24.5739C27.7084 22.9976 28.6302 21.148 29.1085 19.1642C29.5868 17.1803 29.6092 15.1138 29.1738 13.1201C28.7385 11.1264 27.8569 9.25731 26.5952 7.65339C25.3335 6.04947 23.7246 4.75245 21.8894 3.85986C20.0543 2.96727 18.0407 2.50233 16 2.5ZM16 26.5C14.1541 26.5007 12.3407 26.0148 10.7425 25.0912C10.5146 24.9591 10.2559 24.8892 9.9925 24.8888C9.83105 24.8891 9.67069 24.9152 9.5175 24.9662L5.79375 26.2075L7.035 22.4837C7.10222 22.2822 7.12583 22.0686 7.10428 21.8572C7.08273 21.6458 7.01651 21.4414 6.91 21.2575C5.75249 19.2564 5.2877 16.9293 5.58776 14.6371C5.88782 12.3449 6.93595 10.2159 8.56953 8.58016C10.2031 6.94447 12.3309 5.8936 14.6226 5.59059C16.9144 5.28758 19.2422 5.74936 21.2447 6.9043C23.2473 8.05924 24.8127 9.84277 25.6982 11.9782C26.5836 14.1136 26.7396 16.4816 26.1419 18.7147C25.5442 20.9479 24.2263 22.9213 22.3925 24.329C20.5588 25.7366 18.3117 26.4998 16 26.5Z" fill="black"/>
</svg>
