<svg width="32" height="32" viewBox="0 0 32 32" fill="none" xmlns="http://www.w3.org/2000/svg">
<path d="M15 16C15 16.3955 14.8827 16.7822 14.6629 17.1111C14.4432 17.44 14.1308 17.6964 13.7654 17.8477C13.3999 17.9991 12.9978 18.0387 12.6098 17.9615C12.2219 17.8844 11.8655 17.6939 11.5858 17.4142C11.3061 17.1345 11.1156 16.7781 11.0384 16.3902C10.9613 16.0022 11.0009 15.6001 11.1522 15.2346C11.3036 14.8692 11.56 14.5568 11.8889 14.337C12.2178 14.1173 12.6044 14 13 14C13.5304 14 14.0391 14.2107 14.4142 14.5858C14.7893 14.9608 15 15.4695 15 16ZM19 14C18.6044 14 18.2178 14.1173 17.8889 14.337C17.56 14.5568 17.3036 14.8692 17.1522 15.2346C17.0009 15.6001 16.9613 16.0022 17.0384 16.3902C17.1156 16.7781 17.3061 17.1345 17.5858 17.4142C17.8655 17.6939 18.2219 17.8844 18.6098 17.9615C18.9978 18.0387 19.3999 17.9991 19.7654 17.8477C20.1308 17.6964 20.4432 17.44 20.6629 17.1111C20.8827 16.7822 21 16.3955 21 16C21 15.4695 20.7893 14.9608 20.4142 14.5858C20.0391 14.2107 19.5304 14 19 14ZM29.5 16C29.5005 18.3124 28.907 20.5862 27.7763 22.6034C26.6457 24.6206 25.0159 26.3136 23.043 27.52C21.0702 28.7264 18.8206 29.4059 16.5098 29.4932C14.199 29.5805 11.9045 29.0728 9.84625 28.0187L5.7925 29.375C5.35121 29.5237 4.87714 29.5462 4.42373 29.44C3.97032 29.3337 3.5556 29.103 3.22631 28.7737C2.89702 28.4444 2.66625 28.0297 2.56001 27.5762C2.45377 27.1228 2.47628 26.6488 2.625 26.2075L3.97625 22.1537C3.04837 20.3362 2.5446 18.3319 2.50284 16.2917C2.46108 14.2514 2.8824 12.2282 3.73513 10.3742C4.58787 8.52022 5.84982 6.88368 7.42611 5.58762C9.00239 4.29157 10.852 3.36974 12.8358 2.89143C14.8197 2.41313 16.8862 2.3908 18.8799 2.82613C20.8736 3.26146 22.7427 4.14311 24.3466 5.40481C25.9505 6.6665 27.2476 8.2754 28.1401 10.1105C29.0327 11.9457 29.4977 13.9593 29.5 16ZM26.5 16C26.4994 14.3894 26.1283 12.8006 25.4154 11.3564C24.7025 9.91215 23.6669 8.65129 22.3888 7.67133C21.1107 6.69136 19.6243 6.01856 18.0445 5.70495C16.4648 5.39135 14.8341 5.44536 13.2785 5.8628C11.723 6.28024 10.2843 7.04993 9.07385 8.11232C7.86337 9.1747 6.9135 10.5013 6.29773 11.9895C5.68196 13.4777 5.4168 15.0877 5.52275 16.6947C5.6287 18.3018 6.10293 19.863 6.90875 21.2575C7.01526 21.4414 7.08148 21.6458 7.10303 21.8572C7.12458 22.0686 7.10097 22.2821 7.03375 22.4837L5.7925 26.2075L9.51625 24.9662C9.66944 24.9152 9.8298 24.889 9.99125 24.8887C10.2547 24.8892 10.5134 24.959 10.7413 25.0912C12.3375 26.0149 14.1489 26.5018 15.9932 26.503C17.8374 26.5042 19.6495 26.0196 21.2469 25.098C22.8444 24.1765 24.171 22.8504 25.0931 21.2532C26.0153 19.6561 26.5005 17.8442 26.5 16Z" fill="black"/>
</svg>
