<svg width="32" height="32" viewBox="0 0 32 32" fill="none" xmlns="http://www.w3.org/2000/svg">
<path d="M30.7688 8.1825L30.7601 8.17375L27.7688 5.23125C27.3013 4.76386 26.6677 4.50068 26.0066 4.49927C25.3455 4.49787 24.7108 4.75836 24.2413 5.22375L12.9913 16.3013L8.75007 12.22C8.28007 11.7564 7.64578 11.4975 6.98562 11.4999C6.32546 11.5022 5.69302 11.7656 5.22632 12.2325L2.22632 15.2325C1.75841 15.7012 1.49561 16.3365 1.49561 16.9988C1.49561 17.661 1.75841 18.2963 2.22632 18.765L11.1788 27.765C11.411 27.9973 11.6866 28.1815 11.99 28.3072C12.2934 28.4329 12.6186 28.4976 12.9469 28.4976C13.2753 28.4976 13.6005 28.4329 13.9039 28.3072C14.2073 28.1815 14.4829 27.9973 14.7151 27.765L30.7688 11.7175C31.2375 11.2487 31.5008 10.6129 31.5008 9.95C31.5008 9.28709 31.2375 8.65132 30.7688 8.1825ZM12.9513 25.2913L4.70507 17L7.00632 14.7L11.2501 18.78C11.7181 19.2426 12.3495 19.502 13.0076 19.502C13.6656 19.502 14.2971 19.2426 14.7651 18.78L26.0001 7.70125L28.2901 9.95125L12.9513 25.2913Z" fill="black"/>
</svg>
