<svg width="32" height="32" viewBox="0 0 32 32" fill="none" xmlns="http://www.w3.org/2000/svg">
<path d="M19.0512 11.07L7.85122 22.07C7.57071 22.3456 7.1932 22.5 6.79997 22.5C6.40673 22.5 6.02922 22.3456 5.74872 22.07L0.948717 17.3563C0.80812 17.2182 0.696092 17.0538 0.619028 16.8725C0.541964 16.6911 0.501373 16.4964 0.499574 16.2994C0.495941 15.9014 0.650533 15.5183 0.929342 15.2344C1.06739 15.0938 1.23179 14.9818 1.41313 14.9047C1.59448 14.8276 1.78923 14.7871 1.98627 14.7853C2.38419 14.7816 2.76727 14.9362 3.05122 15.215L6.80122 18.8975L16.95 8.93003C17.2337 8.65122 17.6167 8.49656 18.0145 8.50007C18.4123 8.50359 18.7924 8.66499 19.0712 8.94877C19.35 9.23256 19.5047 9.61547 19.5012 10.0133C19.4976 10.4111 19.3362 10.7912 19.0525 11.07H19.0512ZM31.07 8.94502C30.9318 8.80395 30.7672 8.69153 30.5856 8.6142C30.4039 8.53688 30.2088 8.49619 30.0114 8.49444C29.8139 8.4927 29.6181 8.52995 29.4351 8.60405C29.2521 8.67816 29.0856 8.78766 28.945 8.92628L18.8 18.8975L17.815 17.93C17.5312 17.6512 17.1483 17.4966 16.7505 17.5001C16.3526 17.5036 15.9725 17.665 15.6937 17.9488C15.4149 18.2326 15.2603 18.6155 15.2638 19.0133C15.2673 19.4111 15.4287 19.7912 15.7125 20.07L17.7487 22.07C18.0292 22.3456 18.4067 22.5 18.8 22.5C19.1932 22.5 19.5707 22.3456 19.8512 22.07L31.0512 11.07C31.1917 10.932 31.3037 10.7676 31.3807 10.5863C31.4577 10.405 31.4982 10.2103 31.4999 10.0133C31.5017 9.81631 31.4646 9.62092 31.3908 9.43827C31.317 9.25562 31.208 9.08929 31.07 8.94877V8.94502Z" fill="black"/>
</svg>
