<svg width="32" height="32" viewBox="0 0 32 32" fill="none" xmlns="http://www.w3.org/2000/svg">
<path d="M28.4999 6V26C28.4999 26.663 28.2366 27.2989 27.7677 27.7678C27.2989 28.2366 26.663 28.5 25.9999 28.5H17.4999C17.1021 28.5 16.7206 28.342 16.4393 28.0607C16.158 27.7794 15.9999 27.3978 15.9999 27C15.9999 26.6022 16.158 26.2206 16.4393 25.9393C16.7206 25.658 17.1021 25.5 17.4999 25.5H25.4999V6.5H6.49995V17.5C6.49995 17.8978 6.34191 18.2794 6.06061 18.5607C5.7793 18.842 5.39777 19 4.99995 19C4.60212 19 4.22059 18.842 3.93929 18.5607C3.65798 18.2794 3.49995 17.8978 3.49995 17.5V6C3.49995 5.33696 3.76334 4.70107 4.23218 4.23223C4.70102 3.76339 5.3369 3.5 5.99995 3.5H25.9999C26.663 3.5 27.2989 3.76339 27.7677 4.23223C28.2366 4.70107 28.4999 5.33696 28.4999 6ZM16.0612 18.9387C15.9218 18.7989 15.7563 18.688 15.5739 18.6122C15.3916 18.5365 15.1961 18.4976 14.9987 18.4976C14.8013 18.4976 14.6058 18.5365 14.4235 18.6122C14.2411 18.688 14.0756 18.7989 13.9362 18.9387L7.99995 24.875L6.0612 22.9387C5.92167 22.7992 5.75602 22.6885 5.57372 22.613C5.39141 22.5375 5.19602 22.4986 4.9987 22.4986C4.80137 22.4986 4.60598 22.5375 4.42367 22.613C4.24137 22.6885 4.07573 22.7992 3.9362 22.9387C3.79667 23.0783 3.68599 23.2439 3.61047 23.4262C3.53496 23.6085 3.49609 23.8039 3.49609 24.0012C3.49609 24.1986 3.53496 24.394 3.61047 24.5763C3.68599 24.7586 3.79667 24.9242 3.9362 25.0637L6.9362 28.0637C7.07555 28.2036 7.24114 28.3145 7.42347 28.3903C7.6058 28.466 7.80127 28.5049 7.9987 28.5049C8.19612 28.5049 8.3916 28.466 8.57392 28.3903C8.75625 28.3145 8.92184 28.2036 9.0612 28.0637L16.0612 21.0637C16.201 20.9244 16.312 20.7588 16.3877 20.5765C16.4634 20.3941 16.5024 20.1987 16.5024 20.0012C16.5024 19.8038 16.4634 19.6083 16.3877 19.426C16.312 19.2437 16.201 19.0781 16.0612 18.9387Z" fill="black"/>
</svg>
