<svg width="32" height="32" viewBox="0 0 32 32" fill="none" xmlns="http://www.w3.org/2000/svg">
<path d="M9.93875 18.0613C9.79922 17.9217 9.68854 17.7561 9.61303 17.5738C9.53751 17.3915 9.49865 17.1961 9.49865 16.9988C9.49865 16.8014 9.53751 16.606 9.61303 16.4237C9.68854 16.2414 9.79922 16.0758 9.93875 15.9362C10.0783 15.7967 10.2439 15.686 10.4262 15.6105C10.6085 15.535 10.8039 15.4961 11.0013 15.4961C11.1986 15.4961 11.394 15.535 11.5763 15.6105C11.7586 15.686 11.9242 15.7967 12.0638 15.9362L14 17.875L19.9387 11.935C20.2205 11.6532 20.6027 11.4949 21.0012 11.4949C21.3998 11.4949 21.782 11.6532 22.0637 11.935C22.3455 12.2168 22.5039 12.599 22.5039 12.9975C22.5039 13.396 22.3455 13.7782 22.0637 14.06L15.0638 21.06C14.9244 21.1998 14.7588 21.3108 14.5765 21.3865C14.3942 21.4622 14.1987 21.5012 14.0013 21.5012C13.8038 21.5012 13.6083 21.4622 13.426 21.3865C13.2437 21.3108 13.0781 21.1998 12.9388 21.06L9.93875 18.0613ZM28.5 6V26C28.5 26.663 28.2366 27.2989 27.7678 27.7678C27.2989 28.2366 26.663 28.5 26 28.5H6C5.33696 28.5 4.70107 28.2366 4.23223 27.7678C3.76339 27.2989 3.5 26.663 3.5 26V6C3.5 5.33696 3.76339 4.70107 4.23223 4.23223C4.70107 3.76339 5.33696 3.5 6 3.5H26C26.663 3.5 27.2989 3.76339 27.7678 4.23223C28.2366 4.70107 28.5 5.33696 28.5 6ZM25.5 6.5H6.5V25.5H25.5V6.5Z" fill="black"/>
</svg>
