<svg width="32" height="32" viewBox="0 0 32 32" fill="none" xmlns="http://www.w3.org/2000/svg">
<path d="M28.7712 17.7138L24.5 15.1512V13C24.5006 12.7361 24.4316 12.4767 24.2999 12.248C24.1682 12.0193 23.9785 11.8294 23.75 11.6975L17.5 8.125V6.5H19C19.3978 6.5 19.7794 6.34196 20.0607 6.06066C20.342 5.77936 20.5 5.39782 20.5 5C20.5 4.60218 20.342 4.22064 20.0607 3.93934C19.7794 3.65804 19.3978 3.5 19 3.5H17.5V2C17.5 1.60218 17.342 1.22064 17.0607 0.93934C16.7794 0.658035 16.3978 0.5 16 0.5C15.6022 0.5 15.2206 0.658035 14.9393 0.93934C14.658 1.22064 14.5 1.60218 14.5 2V3.5H13C12.6022 3.5 12.2206 3.65804 11.9393 3.93934C11.658 4.22064 11.5 4.60218 11.5 5C11.5 5.39782 11.658 5.77936 11.9393 6.06066C12.2206 6.34196 12.6022 6.5 13 6.5H14.5V8.125L8.25625 11.6975C8.02655 11.8287 7.83561 12.0182 7.7028 12.247C7.56999 12.4757 7.50002 12.7355 7.5 13V15.1512L3.22875 17.7138C3.00654 17.847 2.82262 18.0354 2.69491 18.2609C2.5672 18.4863 2.50005 18.7409 2.5 19V27C2.5 27.3978 2.65804 27.7794 2.93934 28.0607C3.22064 28.342 3.60218 28.5 4 28.5H13.5C13.8978 28.5 14.2794 28.342 14.5607 28.0607C14.842 27.7794 15 27.3978 15 27V21.5C15 21.2348 15.1054 20.9804 15.2929 20.7929C15.4804 20.6054 15.7348 20.5 16 20.5C16.2652 20.5 16.5196 20.6054 16.7071 20.7929C16.8946 20.9804 17 21.2348 17 21.5V27C17 27.3978 17.158 27.7794 17.4393 28.0607C17.7206 28.342 18.1022 28.5 18.5 28.5H28C28.3978 28.5 28.7794 28.342 29.0607 28.0607C29.342 27.7794 29.5 27.3978 29.5 27V19C29.5 18.7409 29.4328 18.4863 29.3051 18.2609C29.1774 18.0354 28.9935 17.847 28.7712 17.7138ZM5.5 19.8487L7.5 18.6488V25.5H5.5V19.8487ZM16 17.5C14.9391 17.5 13.9217 17.9214 13.1716 18.6716C12.4214 19.4217 12 20.4391 12 21.5V25.5H10.5V13.875L16 10.7325L21.5 13.875V25.5H20V21.5C20 20.4391 19.5786 19.4217 18.8284 18.6716C18.0783 17.9214 17.0609 17.5 16 17.5ZM26.5 25.5H24.5V18.6488L26.5 19.8487V25.5Z" fill="black"/>
</svg>
