<svg width="32" height="32" viewBox="0 0 32 32" fill="none" xmlns="http://www.w3.org/2000/svg">
<path d="M9.75 4.5C8.71165 4.5 7.69662 4.80791 6.83326 5.38479C5.9699 5.96166 5.29699 6.7816 4.89963 7.74091C4.50227 8.70023 4.39831 9.75583 4.60088 10.7742C4.80345 11.7926 5.30347 12.7281 6.03769 13.4623C6.77192 14.1965 7.70738 14.6966 8.72578 14.8991C9.74418 15.1017 10.7998 14.9977 11.7591 14.6004C12.7184 14.203 13.5383 13.5301 14.1152 12.6667C14.6921 11.8034 15 10.7884 15 9.75C15 8.35762 14.4469 7.02226 13.4623 6.03769C12.4777 5.05313 11.1424 4.5 9.75 4.5ZM9.75 12C9.30499 12 8.86998 11.868 8.49997 11.6208C8.12996 11.3736 7.84157 11.0222 7.67127 10.611C7.50098 10.1999 7.45642 9.74751 7.54324 9.31105C7.63005 8.87459 7.84434 8.47368 8.15901 8.15901C8.47368 7.84434 8.87459 7.63005 9.31105 7.54324C9.74751 7.45642 10.1999 7.50098 10.611 7.67127C11.0222 7.84157 11.3736 8.12996 11.6208 8.49997C11.868 8.86998 12 9.30499 12 9.75C12 10.3467 11.7629 10.919 11.341 11.341C10.919 11.7629 10.3467 12 9.75 12ZM22.25 15C23.2884 15 24.3034 14.6921 25.1667 14.1152C26.0301 13.5383 26.703 12.7184 27.1004 11.7591C27.4977 10.7998 27.6017 9.74418 27.3991 8.72578C27.1966 7.70738 26.6965 6.77192 25.9623 6.03769C25.2281 5.30347 24.2926 4.80345 23.2742 4.60088C22.2558 4.39831 21.2002 4.50227 20.2409 4.89963C19.2816 5.29699 18.4617 5.9699 17.8848 6.83326C17.3079 7.69662 17 8.71165 17 9.75C17 11.1424 17.5531 12.4777 18.5377 13.4623C19.5223 14.4469 20.8576 15 22.25 15ZM22.25 7.5C22.695 7.5 23.13 7.63196 23.5 7.8792C23.87 8.12643 24.1584 8.47783 24.3287 8.88897C24.499 9.3001 24.5436 9.7525 24.4568 10.189C24.37 10.6254 24.1557 11.0263 23.841 11.341C23.5263 11.6557 23.1254 11.87 22.689 11.9568C22.2525 12.0436 21.8001 11.999 21.389 11.8287C20.9778 11.6584 20.6264 11.37 20.3792 11C20.132 10.63 20 10.195 20 9.75C20 9.15327 20.2371 8.58097 20.659 8.15901C21.081 7.73706 21.6533 7.5 22.25 7.5ZM9.75 17C8.71165 17 7.69662 17.3079 6.83326 17.8848C5.9699 18.4617 5.29699 19.2816 4.89963 20.2409C4.50227 21.2002 4.39831 22.2558 4.60088 23.2742C4.80345 24.2926 5.30347 25.2281 6.03769 25.9623C6.77192 26.6965 7.70738 27.1966 8.72578 27.3991C9.74418 27.6017 10.7998 27.4977 11.7591 27.1004C12.7184 26.703 13.5383 26.0301 14.1152 25.1667C14.6921 24.3034 15 23.2884 15 22.25C15 20.8576 14.4469 19.5223 13.4623 18.5377C12.4777 17.5531 11.1424 17 9.75 17ZM9.75 24.5C9.30499 24.5 8.86998 24.368 8.49997 24.1208C8.12996 23.8736 7.84157 23.5222 7.67127 23.111C7.50098 22.6999 7.45642 22.2475 7.54324 21.811C7.63005 21.3746 7.84434 20.9737 8.15901 20.659C8.47368 20.3443 8.87459 20.1301 9.31105 20.0432C9.74751 19.9564 10.1999 20.001 10.611 20.1713C11.0222 20.3416 11.3736 20.63 11.6208 21C11.868 21.37 12 21.805 12 22.25C12 22.8467 11.7629 23.419 11.341 23.841C10.919 24.2629 10.3467 24.5 9.75 24.5ZM22.25 17C21.2117 17 20.1966 17.3079 19.3333 17.8848C18.4699 18.4617 17.797 19.2816 17.3996 20.2409C17.0023 21.2002 16.8983 22.2558 17.1009 23.2742C17.3035 24.2926 17.8035 25.2281 18.5377 25.9623C19.2719 26.6965 20.2074 27.1966 21.2258 27.3991C22.2442 27.6017 23.2998 27.4977 24.2591 27.1004C25.2184 26.703 26.0383 26.0301 26.6152 25.1667C27.1921 24.3034 27.5 23.2884 27.5 22.25C27.5 20.8576 26.9469 19.5223 25.9623 18.5377C24.9777 17.5531 23.6424 17 22.25 17ZM22.25 24.5C21.805 24.5 21.37 24.368 21 24.1208C20.63 23.8736 20.3416 23.5222 20.1713 23.111C20.001 22.6999 19.9564 22.2475 20.0432 21.811C20.1301 21.3746 20.3443 20.9737 20.659 20.659C20.9737 20.3443 21.3746 20.1301 21.811 20.0432C22.2475 19.9564 22.6999 20.001 23.111 20.1713C23.5222 20.3416 23.8736 20.63 24.1208 21C24.368 21.37 24.5 21.805 24.5 22.25C24.5 22.8467 24.2629 23.419 23.841 23.841C23.419 24.2629 22.8467 24.5 22.25 24.5Z" fill="black"/>
</svg>
