<svg width="32" height="32" viewBox="0 0 32 32" fill="none" xmlns="http://www.w3.org/2000/svg">
<path d="M25.5462 6.44999C23.3367 4.23897 20.4289 2.86253 17.3182 2.55522C14.2076 2.24791 11.0866 3.02875 8.48713 4.76467C5.88768 6.5006 3.9706 9.0842 3.06258 12.0752C2.15455 15.0662 2.31178 18.2795 3.50745 21.1676C4.70313 24.0557 6.86327 26.4398 9.61977 27.9136C12.3763 29.3875 15.5586 29.8599 18.6244 29.2504C21.6902 28.6409 24.4497 26.9872 26.4329 24.571C28.416 22.1549 29.4999 19.1258 29.5 16C29.4999 12.4185 28.0778 8.98348 25.5462 6.44999ZM22 24.625C21.3753 25.0616 20.7046 25.4283 20 25.7187V14.125L22 12.125V24.625ZM8.57498 8.57249C10.3614 6.78891 12.73 5.70787 15.2478 5.527C17.7657 5.34614 20.2645 6.07755 22.2875 7.58749L7.58998 22.2912C6.07833 20.2678 5.34592 17.7676 5.5268 15.2484C5.70768 12.7291 6.78976 10.3592 8.57498 8.57249ZM12 22.125V25.7112C11.1858 25.3764 10.4173 24.94 9.71248 24.4125L12 22.125ZM15 26.4525V19.125L17 17.125V26.455C16.3347 26.5173 15.6651 26.5164 15 26.4525ZM25 21.4187V10.5812C25.9823 12.218 26.5012 14.0911 26.5012 16C26.5012 17.9089 25.9823 19.782 25 21.4187Z" fill="black"/>
</svg>
