<svg width="32" height="32" viewBox="0 0 32 32" fill="none" xmlns="http://www.w3.org/2000/svg">
<path d="M16 2.5C13.33 2.5 10.7199 3.29176 8.49981 4.77516C6.27974 6.25856 4.54942 8.36697 3.52763 10.8338C2.50585 13.3006 2.2385 16.015 2.7594 18.6337C3.28031 21.2525 4.56606 23.6579 6.45406 25.5459C8.34207 27.434 10.7475 28.7197 13.3663 29.2406C15.985 29.7615 18.6994 29.4942 21.1662 28.4724C23.633 27.4506 25.7414 25.7203 27.2248 23.5002C28.7082 21.2801 29.5 18.67 29.5 16C29.496 12.4208 28.0724 8.98932 25.5416 6.45844C23.0107 3.92756 19.5792 2.50397 16 2.5ZM17.5 5.60875C18.5399 5.75819 19.5513 6.06371 20.5 6.515V25.485C19.5513 25.9363 18.5399 26.2418 17.5 26.3913V5.60875ZM5.50001 16C5.50338 13.4762 6.41441 11.0377 8.06675 9.12996C9.71909 7.22219 12.0025 5.97238 14.5 5.60875V26.3913C12.0025 26.0276 9.71909 24.7778 8.06675 22.87C6.41441 20.9623 5.50338 18.5238 5.50001 16ZM23.5 23.3388V8.66125C25.4228 10.62 26.5 13.2552 26.5 16C26.5 18.7448 25.4228 21.38 23.5 23.3388Z" fill="black"/>
</svg>
