<svg width="32" height="32" viewBox="0 0 32 32" fill="none" xmlns="http://www.w3.org/2000/svg">
<path d="M25.0151 6.98504C23.8346 5.7853 22.4283 4.83115 20.8773 4.17763C19.3263 3.52411 17.6612 3.18414 15.9781 3.17735C14.295 3.17056 12.6273 3.49706 11.071 4.13804C9.51475 4.77902 8.1008 5.72178 6.91071 6.91195C5.72063 8.10211 4.77796 9.51613 4.13709 11.0724C3.49622 12.6287 3.16983 14.2965 3.17674 15.9796C3.18365 17.6627 3.52373 19.3277 4.17736 20.8787C4.83099 22.4297 5.78524 23.8359 6.98506 25.0163C8.16549 26.216 9.57179 27.1702 11.1228 27.8237C12.6739 28.4772 14.3389 28.8172 16.022 28.824C17.7051 28.8308 19.3729 28.5043 20.9291 27.8633C22.4854 27.2223 23.8993 26.2795 25.0894 25.0894C26.2795 23.8992 27.2222 22.4852 27.863 20.9289C28.5039 19.3726 28.8303 17.7048 28.8234 16.0217C28.8165 14.3386 28.4764 12.6736 27.8228 11.1226C27.1691 9.57162 26.2149 8.16539 25.0151 6.98504ZM11.2501 26.2025C10.2876 25.7526 9.39407 25.168 8.59631 24.4663L11.2501 21.8113V26.2025ZM15.2501 27.2225C14.4025 27.1682 13.5638 27.0181 12.7501 26.775V20.3113L15.2501 17.8113V27.2225ZM19.2501 26.775C18.4363 27.0183 17.5976 27.1684 16.7501 27.2225V16.3113L19.2501 13.8113V26.775ZM23.2501 24.6C22.4918 25.2434 21.651 25.7828 20.7501 26.2038V12.3113L23.2501 9.81129V24.6ZM7.53381 23.405C5.65325 21.2572 4.65957 18.4748 4.75411 15.6216C4.84866 12.7684 6.02437 10.0578 8.04299 8.03922C10.0616 6.0206 12.7722 4.84489 15.6254 4.75034C18.4785 4.6558 21.261 5.64948 23.4088 7.53004L7.53381 23.405ZM24.7501 23.0713V8.92879C26.3678 10.9305 27.2502 13.4264 27.2502 16C27.2502 18.5737 26.3678 21.0696 24.7501 23.0713Z" fill="black"/>
</svg>
