<svg width="32" height="32" viewBox="0 0 32 32" fill="none" xmlns="http://www.w3.org/2000/svg">
<path d="M29.5 16C29.5 19.5805 28.0777 23.0142 25.5459 25.546C23.0142 28.0777 19.5804 29.5 16 29.5C12.4196 29.5 8.9858 28.0777 6.45406 25.546C3.92232 23.0142 2.5 19.5805 2.5 16C2.5 10.685 5.59125 5.83254 10.375 3.63754C10.5548 3.54991 10.7502 3.4991 10.9499 3.48811C11.1496 3.47712 11.3494 3.50616 11.5377 3.57354C11.726 3.64091 11.8989 3.74525 12.0463 3.88043C12.1936 4.01561 12.3125 4.17888 12.3958 4.36066C12.4792 4.54244 12.5253 4.73905 12.5316 4.93893C12.5379 5.13881 12.5041 5.33792 12.4323 5.52456C12.3604 5.71119 12.252 5.88158 12.1134 6.0257C11.9748 6.16983 11.8087 6.28478 11.625 6.36379C7.905 8.07129 5.5 11.8538 5.5 16C5.5 18.7848 6.60625 21.4555 8.57538 23.4247C10.5445 25.3938 13.2152 26.5 16 26.5C18.7848 26.5 21.4555 25.3938 23.4246 23.4247C25.3938 21.4555 26.5 18.7848 26.5 16C26.5 11.8538 24.095 8.07129 20.375 6.36379C20.1913 6.28478 20.0252 6.16983 19.8866 6.0257C19.748 5.88158 19.6396 5.71119 19.5677 5.52456C19.4959 5.33792 19.4621 5.13881 19.4684 4.93893C19.4747 4.73905 19.5208 4.54244 19.6042 4.36066C19.6875 4.17888 19.8064 4.01561 19.9537 3.88043C20.1011 3.74525 20.274 3.64091 20.4623 3.57354C20.6506 3.50616 20.8504 3.47712 21.0501 3.48811C21.2498 3.4991 21.4452 3.54991 21.625 3.63754C26.4088 5.83254 29.5 10.685 29.5 16Z" fill="black"/>
</svg>
