<svg width="32" height="32" viewBox="0 0 32 32" fill="none" xmlns="http://www.w3.org/2000/svg">
<path d="M11.5475 4.75621C11.4981 4.56538 11.4867 4.36668 11.5141 4.17146C11.5415 3.97624 11.6071 3.78833 11.7072 3.61849C11.8073 3.44865 11.9399 3.3002 12.0973 3.18162C12.2548 3.06305 12.4341 2.97668 12.625 2.92746C14.8387 2.35589 17.1613 2.35589 19.375 2.92746C19.57 2.97261 19.754 3.05633 19.9162 3.1737C20.0784 3.29107 20.2154 3.4397 20.3192 3.61085C20.423 3.78199 20.4915 3.97218 20.5207 4.17021C20.5499 4.36825 20.5391 4.57012 20.489 4.76393C20.439 4.95773 20.3506 5.13956 20.2292 5.2987C20.1078 5.45784 19.9557 5.59106 19.782 5.69053C19.6083 5.78999 19.4165 5.85368 19.2178 5.87784C19.0191 5.902 18.8175 5.88615 18.625 5.83121C16.9032 5.38725 15.0969 5.38725 13.375 5.83121C12.9901 5.93079 12.5815 5.87349 12.2388 5.67192C11.8961 5.47035 11.6475 5.14099 11.5475 4.75621ZM6.36753 6.54246C4.76622 8.17394 3.605 10.185 2.99253 12.3875C2.93993 12.5774 2.92527 12.7758 2.94938 12.9714C2.9735 13.167 3.03593 13.3559 3.13309 13.5274C3.23025 13.6988 3.36025 13.8495 3.51565 13.9707C3.67106 14.0919 3.84882 14.1812 4.03878 14.2337C4.16915 14.2693 4.30366 14.2873 4.43878 14.2875C4.76678 14.2873 5.08569 14.1797 5.34667 13.981C5.60765 13.7823 5.79632 13.5036 5.88378 13.1875C6.36011 11.4751 7.26332 9.91171 8.50878 8.64371C8.64675 8.50311 8.75568 8.33672 8.82934 8.15403C8.90301 7.97133 8.93997 7.77592 8.93811 7.57894C8.93625 7.38197 8.89561 7.18729 8.81852 7.00601C8.74142 6.82474 8.62938 6.66043 8.48878 6.52246C8.34819 6.38449 8.18179 6.27556 7.9991 6.2019C7.81641 6.12824 7.62099 6.09128 7.42402 6.09314C7.22704 6.09499 7.03236 6.13563 6.85109 6.21272C6.66981 6.28982 6.5055 6.40186 6.36753 6.54246ZM5.88253 18.81C5.7697 18.4341 5.51406 18.1174 5.17046 17.9279C4.82686 17.7383 4.42266 17.691 4.04454 17.796C3.66643 17.901 3.34452 18.1499 3.14785 18.4895C2.95118 18.8291 2.89542 19.2322 2.99253 19.6125C3.6041 21.816 4.76542 23.8281 6.36753 25.46C6.65146 25.718 7.02349 25.8575 7.4071 25.8496C7.79071 25.8418 8.15672 25.6872 8.42986 25.4178C8.70301 25.1483 8.86251 24.7844 8.87556 24.401C8.88861 24.0175 8.75422 23.6436 8.50003 23.3562C7.25693 22.0867 6.35632 20.5224 5.88253 18.81ZM18.625 26.1687C16.9033 26.6133 15.0968 26.6133 13.375 26.1687C13.1825 26.1138 12.981 26.0979 12.7823 26.1221C12.5836 26.1462 12.3917 26.2099 12.218 26.3094C12.0443 26.4089 11.8923 26.5421 11.7709 26.7012C11.6494 26.8604 11.5611 27.0422 11.511 27.236C11.461 27.4298 11.4502 27.6317 11.4794 27.8297C11.5086 28.0277 11.5771 28.2179 11.6809 28.3891C11.7847 28.5602 11.9217 28.7089 12.0839 28.8262C12.246 28.9436 12.43 29.0273 12.625 29.0725C14.8387 29.644 17.1613 29.644 19.375 29.0725C19.57 29.0273 19.754 28.9436 19.9162 28.8262C20.0784 28.7089 20.2154 28.5602 20.3192 28.3891C20.423 28.2179 20.4915 28.0277 20.5207 27.8297C20.5499 27.6317 20.5391 27.4298 20.489 27.236C20.439 27.0422 20.3506 26.8604 20.2292 26.7012C20.1078 26.5421 19.9557 26.4089 19.782 26.3094C19.6083 26.2099 19.4165 26.1462 19.2178 26.1221C19.0191 26.0979 18.8175 26.1138 18.625 26.1687ZM27.965 17.7662C27.5823 17.6619 27.1739 17.7134 26.829 17.9094C26.4842 18.1055 26.2311 18.4302 26.125 18.8125C25.6487 20.5248 24.7455 22.0882 23.5 23.3562C23.2212 23.64 23.0666 24.0229 23.0701 24.4207C23.0736 24.8185 23.235 25.1987 23.5188 25.4775C23.8026 25.7563 24.1855 25.9109 24.5833 25.9074C24.9811 25.9039 25.3612 25.7425 25.64 25.4587C27.2411 23.8266 28.4023 21.8152 29.015 19.6125C29.0675 19.4222 29.082 19.2235 29.0576 19.0276C29.0331 18.8318 28.9703 18.6427 28.8726 18.4711C28.7749 18.2996 28.6444 18.1491 28.4884 18.0281C28.3325 17.9071 28.1542 17.8181 27.9638 17.7662H27.965ZM26.1188 13.19C26.2316 13.5658 26.4873 13.8825 26.8309 14.072C27.1745 14.2616 27.5787 14.309 27.9568 14.204C28.3349 14.099 28.6568 13.85 28.8535 13.5104C29.0501 13.1708 29.1059 12.7677 29.0088 12.3875C28.3972 10.1839 27.2359 8.17181 25.6338 6.53996C25.4984 6.38854 25.3336 6.26619 25.1495 6.18035C24.9654 6.0945 24.7658 6.04694 24.5628 6.04056C24.3597 6.03417 24.1575 6.06909 23.9684 6.1432C23.7793 6.2173 23.6071 6.32906 23.4625 6.47167C23.3178 6.61429 23.2037 6.7848 23.1269 6.97287C23.0501 7.16093 23.0123 7.36263 23.0158 7.56574C23.0194 7.76884 23.0641 7.96911 23.1473 8.15441C23.2305 8.33971 23.3505 8.50618 23.5 8.64371C24.7431 9.91325 25.6437 11.4775 26.1175 13.19H26.1188Z" fill="black"/>
</svg>
