<svg width="32" height="32" viewBox="0 0 32 32" fill="none" xmlns="http://www.w3.org/2000/svg">
<path d="M12.2737 4.56751C12.2239 4.37507 12.2526 4.17073 12.3533 3.9994C12.4541 3.82807 12.6188 3.70375 12.8112 3.65376C14.902 3.1146 17.0954 3.1146 19.1862 3.65376C19.3788 3.70349 19.5438 3.8277 19.6448 3.99906C19.7459 4.17042 19.7747 4.3749 19.7249 4.56751C19.6752 4.76013 19.551 4.9251 19.3797 5.02613C19.2083 5.12717 19.0038 5.15599 18.8112 5.10626C16.9664 4.62995 15.0309 4.62995 13.1862 5.10626C12.9938 5.15563 12.7896 5.12663 12.6185 5.02563C12.4474 4.92462 12.3234 4.75986 12.2737 4.56751ZM6.8987 7.06751C5.38673 8.60833 4.29044 10.5076 3.71245 12.5875C3.68625 12.6825 3.67902 12.7817 3.69116 12.8794C3.70331 12.9772 3.73459 13.0716 3.78323 13.1573C3.83186 13.2429 3.8969 13.3182 3.97462 13.3787C4.05234 13.4392 4.14123 13.4838 4.2362 13.51C4.30128 13.5283 4.36858 13.5376 4.4362 13.5375C4.60019 13.5374 4.75965 13.4836 4.89014 13.3843C5.02063 13.2849 5.11496 13.1456 5.1587 12.9875C5.67031 11.1548 6.63841 9.48181 7.97245 8.12501C8.04147 8.05476 8.09598 7.97159 8.13287 7.88027C8.16975 7.78894 8.18829 7.69125 8.18742 7.59276C8.18655 7.49427 8.16629 7.39692 8.1278 7.30626C8.0893 7.2156 8.03333 7.13341 7.96307 7.06439C7.89281 6.99536 7.80965 6.94085 7.71833 6.90397C7.627 6.86708 7.52931 6.84854 7.43082 6.84941C7.33233 6.85028 7.23498 6.87055 7.14432 6.90904C7.05366 6.94753 6.97147 7.00351 6.90245 7.07376L6.8987 7.06751ZM5.15995 19.0113C5.13605 18.9138 5.09283 18.8221 5.03285 18.7416C4.97288 18.6612 4.89736 18.5936 4.81077 18.5428C4.72419 18.4921 4.6283 18.4592 4.52878 18.4462C4.42927 18.4332 4.32815 18.4403 4.23143 18.467C4.13471 18.4938 4.04434 18.5397 3.96568 18.6021C3.88703 18.6644 3.82168 18.7419 3.77352 18.8299C3.72536 18.918 3.69536 19.0148 3.6853 19.1147C3.67524 19.2145 3.68532 19.3154 3.71495 19.4113C4.2922 21.4922 5.38856 23.3925 6.9012 24.9338C7.04223 25.0676 7.22976 25.1415 7.42421 25.1398C7.61866 25.138 7.80483 25.0609 7.94347 24.9245C8.0821 24.7881 8.16235 24.6032 8.16729 24.4089C8.17223 24.2145 8.10147 24.0257 7.96995 23.8825C6.63648 22.5225 5.66968 20.8465 5.15995 19.0113ZM18.8112 26.8938C16.9664 27.3701 15.0309 27.3701 13.1862 26.8938C13.0908 26.8691 12.9915 26.8635 12.894 26.8773C12.7965 26.891 12.7026 26.9239 12.6177 26.9739C12.5329 27.0239 12.4587 27.0902 12.3995 27.1689C12.3402 27.2476 12.2971 27.3371 12.2724 27.4325C12.2478 27.5279 12.2422 27.6272 12.256 27.7247C12.2697 27.8222 12.3026 27.9161 12.3526 28.001C12.4026 28.0858 12.4689 28.16 12.5475 28.2192C12.6262 28.2785 12.7158 28.3216 12.8112 28.3463C14.902 28.8852 17.0954 28.8852 19.1862 28.3463C19.3788 28.2965 19.5438 28.1723 19.6448 28.001C19.7459 27.8296 19.7747 27.6251 19.7249 27.4325C19.6752 27.2399 19.551 27.0749 19.3797 26.9739C19.2083 26.8729 19.0038 26.844 18.8112 26.8938ZM27.7637 18.49C27.5721 18.4371 27.3673 18.4624 27.1943 18.5603C27.0213 18.6583 26.8943 18.8209 26.8412 19.0125C26.3315 20.8497 25.3633 22.5272 24.0274 23.8875C23.888 24.0294 23.8107 24.2209 23.8125 24.4198C23.8142 24.6187 23.8949 24.8087 24.0368 24.9481C24.1787 25.0875 24.3702 25.1649 24.5691 25.1631C24.768 25.1614 24.958 25.0807 25.0974 24.9388C26.6115 23.3964 27.7091 21.4949 28.2874 19.4125C28.3136 19.3176 28.3209 19.2184 28.3087 19.1206C28.2966 19.0228 28.2653 18.9284 28.2167 18.8428C28.168 18.7571 28.103 18.6819 28.0253 18.6213C27.9476 18.5608 27.8587 18.5162 27.7637 18.49ZM26.8399 12.99C26.8837 13.1481 26.978 13.2874 27.1085 13.3868C27.239 13.4861 27.3984 13.5399 27.5624 13.54C27.6301 13.5401 27.6974 13.5308 27.7624 13.5125C27.954 13.4594 28.1167 13.3324 28.2146 13.1594C28.3126 12.9864 28.3379 12.7816 28.2849 12.59C27.7077 10.509 26.6113 8.6088 25.0987 7.06751C24.9577 6.93364 24.7701 6.85978 24.5757 6.86151C24.3812 6.86324 24.1951 6.94043 24.0564 7.07679C23.9178 7.21315 23.8375 7.39803 23.8326 7.59242C23.8277 7.78682 23.8984 7.97553 24.0299 8.11876C25.3635 9.47826 26.3303 11.1539 26.8399 12.9888V12.99Z" fill="black"/>
</svg>
