<svg width="32" height="32" viewBox="0 0 32 32" fill="none" xmlns="http://www.w3.org/2000/svg">
<path d="M24.8388 7.16126C23.6799 5.99219 22.3015 5.06352 20.7828 4.42858C19.264 3.79365 17.6348 3.46494 15.9887 3.46133C14.3426 3.45773 12.7119 3.7793 11.1904 4.40758C9.66889 5.03586 8.28646 5.95848 7.12247 7.12247C5.95848 8.28646 5.03586 9.66889 4.40758 11.1904C3.7793 12.7119 3.45773 14.3426 3.46133 15.9887C3.46494 17.6348 3.79365 19.264 4.42858 20.7828C5.06352 22.3015 5.99219 23.6799 7.16126 24.8388C8.32014 26.0078 9.69853 26.9365 11.2173 27.5714C12.736 28.2064 14.3652 28.5351 16.0114 28.5387C17.6575 28.5423 19.2881 28.2207 20.8096 27.5924C22.3311 26.9642 23.7136 26.0415 24.8776 24.8776C26.0415 23.7136 26.9642 22.3311 27.5924 20.8096C28.2207 19.2881 28.5423 17.6575 28.5387 16.0114C28.5351 14.3652 28.2064 12.736 27.5714 11.2173C26.9365 9.69853 26.0078 8.32014 24.8388 7.16126ZM23.5 24.715C22.6035 25.4921 21.5913 26.1247 20.5 26.59V12.215L23.5 9.21501V24.715ZM12.5 20.2075L15.5 17.2075V27.4875C14.4809 27.4448 13.4721 27.2666 12.5 26.9575V20.2075ZM11.5 26.5825C10.2981 26.0702 9.19254 25.3562 8.23126 24.4713L11.5 21.2075V26.5825ZM16.5 16.2075L19.5 13.2075V26.9575C18.528 27.2668 17.5191 27.445 16.5 27.4875V16.2075ZM4.50001 16C4.50036 13.7683 5.15005 11.5849 6.36985 9.7161C7.58966 7.84726 9.32688 6.37373 11.3697 5.47516C13.4125 4.5766 15.6726 4.29183 17.8745 4.65559C20.0763 5.01935 22.1248 6.01591 23.77 7.52376L7.52001 23.7738C5.56913 21.656 4.49044 18.8794 4.50001 16ZM24.5 23.75V8.25001C26.4324 10.3685 27.5037 13.1325 27.5037 16C27.5037 18.8675 26.4324 21.6315 24.5 23.75Z" fill="black"/>
</svg>
