<svg width="32" height="32" viewBox="0 0 32 32" fill="none" xmlns="http://www.w3.org/2000/svg">
<path d="M22 9.5C22 8.31331 21.6481 7.15328 20.9888 6.16658C20.3295 5.17989 19.3925 4.41085 18.2961 3.95673C17.1997 3.5026 15.9933 3.38378 14.8295 3.61529C13.6656 3.8468 12.5965 4.41825 11.7574 5.25736C10.9182 6.09648 10.3468 7.16558 10.1153 8.32946C9.88378 9.49335 10.0026 10.6997 10.4567 11.7961C10.9109 12.8925 11.6799 13.8295 12.6666 14.4888C13.6533 15.1481 14.8133 15.5 16 15.5C17.5908 15.4983 19.116 14.8657 20.2408 13.7408C21.3657 12.616 21.9983 11.0908 22 9.5ZM16 12.5C15.4067 12.5 14.8266 12.3241 14.3333 11.9944C13.8399 11.6648 13.4554 11.1962 13.2284 10.6481C13.0013 10.0999 12.9419 9.49668 13.0576 8.91473C13.1734 8.33279 13.4591 7.79824 13.8787 7.37868C14.2982 6.95913 14.8328 6.6734 15.4147 6.55765C15.9967 6.44189 16.5999 6.5013 17.1481 6.72836C17.6962 6.95543 18.1648 7.33994 18.4944 7.83329C18.8241 8.32664 19 8.90666 19 9.5C19 10.2957 18.6839 11.0587 18.1213 11.6213C17.5587 12.1839 16.7957 12.5 16 12.5ZM23.5 15.5C22.3133 15.5 21.1533 15.8519 20.1666 16.5112C19.1799 17.1705 18.4109 18.1075 17.9567 19.2039C17.5026 20.3003 17.3838 21.5067 17.6153 22.6705C17.8468 23.8344 18.4182 24.9035 19.2574 25.7426C20.0965 26.5818 21.1656 27.1532 22.3295 27.3847C23.4933 27.6162 24.6997 27.4974 25.7961 27.0433C26.8925 26.5892 27.8295 25.8201 28.4888 24.8334C29.1481 23.8467 29.5 22.6867 29.5 21.5C29.4983 19.9092 28.8657 18.384 27.7408 17.2592C26.616 16.1343 25.0908 15.5017 23.5 15.5ZM23.5 24.5C22.9067 24.5 22.3266 24.3241 21.8333 23.9944C21.3399 23.6648 20.9554 23.1962 20.7284 22.6481C20.5013 22.0999 20.4419 21.4967 20.5576 20.9147C20.6734 20.3328 20.9591 19.7982 21.3787 19.3787C21.7982 18.9591 22.3328 18.6734 22.9147 18.5576C23.4967 18.4419 24.0999 18.5013 24.6481 18.7284C25.1962 18.9554 25.6648 19.3399 25.9944 19.8333C26.3241 20.3266 26.5 20.9067 26.5 21.5C26.5 22.2957 26.1839 23.0587 25.6213 23.6213C25.0587 24.1839 24.2957 24.5 23.5 24.5ZM8.5 15.5C7.31331 15.5 6.15328 15.8519 5.16658 16.5112C4.17989 17.1705 3.41085 18.1075 2.95673 19.2039C2.5026 20.3003 2.38378 21.5067 2.61529 22.6705C2.8468 23.8344 3.41825 24.9035 4.25736 25.7426C5.09648 26.5818 6.16558 27.1532 7.32946 27.3847C8.49335 27.6162 9.69975 27.4974 10.7961 27.0433C11.8925 26.5892 12.8295 25.8201 13.4888 24.8334C14.1481 23.8467 14.5 22.6867 14.5 21.5C14.4983 19.9092 13.8657 18.384 12.7408 17.2592C11.616 16.1343 10.0908 15.5017 8.5 15.5ZM8.5 24.5C7.90666 24.5 7.32664 24.3241 6.83329 23.9944C6.33994 23.6648 5.95543 23.1962 5.72836 22.6481C5.5013 22.0999 5.44189 21.4967 5.55765 20.9147C5.6734 20.3328 5.95913 19.7982 6.37868 19.3787C6.79824 18.9591 7.33279 18.6734 7.91473 18.5576C8.49668 18.4419 9.09987 18.5013 9.64805 18.7284C10.1962 18.9554 10.6648 19.3399 10.9944 19.8333C11.3241 20.3266 11.5 20.9067 11.5 21.5C11.5 22.2957 11.1839 23.0587 10.6213 23.6213C10.0587 24.1839 9.29565 24.5 8.5 24.5Z" fill="black"/>
</svg>
