<svg width="32" height="32" viewBox="0 0 32 32" fill="none" xmlns="http://www.w3.org/2000/svg">
<path d="M26 3.5H6C5.33696 3.5 4.70107 3.76339 4.23223 4.23223C3.76339 4.70107 3.5 5.33696 3.5 6V26C3.5 26.663 3.76339 27.2989 4.23223 27.7678C4.70107 28.2366 5.33696 28.5 6 28.5H26C26.663 28.5 27.2989 28.2366 27.7678 27.7678C28.2366 27.2989 28.5 26.663 28.5 26V6C28.5 5.33696 28.2366 4.70107 27.7678 4.23223C27.2989 3.76339 26.663 3.5 26 3.5ZM6.5 6.5H9.5V19C9.08024 19.3148 8.77017 19.7537 8.61372 20.2546C8.45727 20.7554 8.46237 21.2928 8.62829 21.7906C8.79422 22.2883 9.11256 22.7213 9.53822 23.0281C9.96389 23.3349 10.4753 23.5 11 23.5C11.5247 23.5 12.0361 23.3349 12.4618 23.0281C12.8874 22.7213 13.2058 22.2883 13.3717 21.7906C13.5376 21.2928 13.5427 20.7554 13.3863 20.2546C13.2298 19.7537 12.9198 19.3148 12.5 19V15.625L17.5 20.625V25.5H6.5V6.5ZM25.5 25.5H20.5V20C20.5002 19.803 20.4615 19.6078 20.3862 19.4257C20.3109 19.2436 20.2005 19.0782 20.0613 18.9387L12.5 11.375V6.5H15.5V9C15.4998 9.19704 15.5385 9.39218 15.6138 9.57428C15.6891 9.75637 15.7995 9.92184 15.9388 10.0612L18.5275 12.6488C18.4499 13.1733 18.5396 13.7089 18.7839 14.1795C19.0282 14.6502 19.4147 15.0318 19.8884 15.2701C20.3621 15.5084 20.8988 15.5913 21.4223 15.507C21.9458 15.4228 22.4294 15.1756 22.8044 14.8006C23.1793 14.4257 23.4265 13.9421 23.5108 13.4186C23.5951 12.8951 23.5121 12.3583 23.2738 11.8846C23.0355 11.411 22.6539 11.0245 22.1833 10.7802C21.7127 10.5359 21.177 10.4461 20.6525 10.5238L18.5 8.375V6.5H25.5V25.5Z" fill="black"/>
</svg>
