<svg width="32" height="32" viewBox="0 0 32 32" fill="none" xmlns="http://www.w3.org/2000/svg">
<path d="M25 3.50003H20.6838C20.0784 2.86789 19.3513 2.36483 18.5464 2.02115C17.7414 1.67748 16.8752 1.50031 16 1.50031C15.1248 1.50031 14.2586 1.67748 13.4536 2.02115C12.6487 2.36483 11.9216 2.86789 11.3162 3.50003H7C6.33696 3.50003 5.70107 3.76342 5.23223 4.23226C4.76339 4.7011 4.5 5.33699 4.5 6.00003V27C4.5 27.6631 4.76339 28.299 5.23223 28.7678C5.70107 29.2366 6.33696 29.5 7 29.5H25C25.663 29.5 26.2989 29.2366 26.7678 28.7678C27.2366 28.299 27.5 27.6631 27.5 27V6.00003C27.5 5.33699 27.2366 4.7011 26.7678 4.23226C26.2989 3.76342 25.663 3.50003 25 3.50003ZM19.4638 7.50003H12.5363C12.657 6.66753 13.0736 5.90638 13.7096 5.3559C14.3457 4.80543 15.1588 4.50246 16 4.50246C16.8412 4.50246 17.6543 4.80543 18.2904 5.3559C18.9264 5.90638 19.343 6.66753 19.4638 7.50003ZM24.5 26.5H7.5V6.50003H9.67625C9.55956 6.99151 9.50041 7.49489 9.5 8.00003V9.00003C9.5 9.39785 9.65804 9.77938 9.93934 10.0607C10.2206 10.342 10.6022 10.5 11 10.5H21C21.3978 10.5 21.7794 10.342 22.0607 10.0607C22.342 9.77938 22.5 9.39785 22.5 9.00003V8.00003C22.4996 7.49489 22.4404 6.99151 22.3237 6.50003H24.5V26.5Z" fill="black"/>
</svg>
