<svg width="32" height="32" viewBox="0 0 32 32" fill="none" xmlns="http://www.w3.org/2000/svg">
<path d="M17.5 9.99998V15.1512L21.7712 17.7137C21.9439 17.8131 22.0951 17.9459 22.216 18.1043C22.3368 18.2628 22.4248 18.4437 22.475 18.6366C22.5251 18.8294 22.5363 19.0303 22.5079 19.2276C22.4795 19.4248 22.4121 19.6144 22.3097 19.7853C22.2072 19.9562 22.0717 20.105 21.9111 20.2229C21.7505 20.3409 21.568 20.4256 21.3743 20.4723C21.1805 20.5189 20.9795 20.5265 20.7828 20.4945C20.5861 20.4626 20.3977 20.3918 20.2287 20.2862L15.2287 17.2862C15.0065 17.153 14.8226 16.9645 14.6949 16.7391C14.5672 16.5137 14.5 16.2591 14.5 16V9.99998C14.5 9.60216 14.658 9.22063 14.9393 8.93932C15.2206 8.65802 15.6021 8.49998 16 8.49998C16.3978 8.49998 16.7793 8.65802 17.0606 8.93932C17.3419 9.22063 17.5 9.60216 17.5 9.99998ZM28 6.49998C27.6021 6.49998 27.2206 6.65802 26.9393 6.93932C26.658 7.22063 26.5 7.60216 26.5 7.99998V8.92124C25.9737 8.33749 25.4275 7.75748 24.8387 7.16123C23.1014 5.42408 20.8906 4.23741 18.4827 3.74951C16.0748 3.26162 13.5765 3.49412 11.3 4.41798C9.02342 5.34183 7.06962 6.91607 5.68267 8.94399C4.29571 10.9719 3.53712 13.3636 3.50167 15.8202C3.46622 18.2768 4.15548 20.6893 5.48334 22.7564C6.81119 24.8235 8.71876 26.4535 10.9677 27.4427C13.2166 28.4318 15.7072 28.7363 18.1281 28.3181C20.5491 27.8999 22.7932 26.7775 24.58 25.0912C24.8694 24.8181 25.0384 24.4411 25.0499 24.0433C25.0614 23.6455 24.9144 23.2594 24.6412 22.97C24.368 22.6806 23.9911 22.5115 23.5933 22.5C23.1955 22.4885 22.8094 22.6356 22.52 22.9087C21.1623 24.1901 19.4571 25.043 17.6175 25.3609C15.7779 25.6788 13.8854 25.4477 12.1764 24.6964C10.4674 23.9451 9.01765 22.7069 8.0082 21.1365C6.99875 19.5661 6.47438 17.7331 6.50056 15.8664C6.52675 13.9997 7.10234 12.1821 8.15545 10.6407C9.20856 9.0992 10.6925 7.90217 12.4219 7.19911C14.1513 6.49604 16.0495 6.31811 17.8795 6.68752C19.7094 7.05694 21.39 7.95733 22.7112 9.27623C23.4512 10.025 24.125 10.75 24.7787 11.5H23C22.6021 11.5 22.2206 11.658 21.9393 11.9393C21.658 12.2206 21.5 12.6022 21.5 13C21.5 13.3978 21.658 13.7793 21.9393 14.0606C22.2206 14.3419 22.6021 14.5 23 14.5H28C28.3978 14.5 28.7793 14.3419 29.0606 14.0606C29.3419 13.7793 29.5 13.3978 29.5 13V7.99998C29.5 7.60216 29.3419 7.22063 29.0606 6.93932C28.7793 6.65802 28.3978 6.49998 28 6.49998Z" fill="black"/>
</svg>
