<svg width="32" height="32" viewBox="0 0 32 32" fill="none" xmlns="http://www.w3.org/2000/svg">
<path d="M17.5 9.99998V15.1512L21.7712 17.7137C21.944 17.8131 22.0952 17.9459 22.216 18.1043C22.3368 18.2628 22.4249 18.4437 22.475 18.6366C22.5251 18.8294 22.5363 19.0303 22.5079 19.2276C22.4796 19.4248 22.4122 19.6144 22.3097 19.7853C22.2072 19.9562 22.0717 20.105 21.9111 20.2229C21.7505 20.3409 21.568 20.4256 21.3743 20.4723C21.1806 20.5189 20.9795 20.5265 20.7828 20.4945C20.5861 20.4626 20.3978 20.3918 20.2288 20.2862L15.2288 17.2862C15.0065 17.153 14.8226 16.9645 14.6949 16.7391C14.5672 16.5137 14.5 16.2591 14.5 16V9.99998C14.5 9.60216 14.658 9.22062 14.9393 8.93932C15.2206 8.65802 15.6022 8.49998 16 8.49998C16.3978 8.49998 16.7794 8.65802 17.0607 8.93932C17.342 9.22062 17.5 9.60216 17.5 9.99998ZM16 3.49998C14.3564 3.49575 12.7282 3.81773 11.2099 4.44728C9.69165 5.07683 8.31338 6.00142 7.155 7.16748C6.56875 7.75998 6.03 8.33873 5.5 8.91748V7.99998C5.5 7.60216 5.34196 7.22062 5.06066 6.93932C4.77936 6.65802 4.39782 6.49998 4 6.49998C3.60218 6.49998 3.22064 6.65802 2.93934 6.93932C2.65804 7.22062 2.5 7.60216 2.5 7.99998V13C2.5 13.3978 2.65804 13.7793 2.93934 14.0606C3.22064 14.3419 3.60218 14.5 4 14.5H9C9.39782 14.5 9.77936 14.3419 10.0607 14.0606C10.342 13.7793 10.5 13.3978 10.5 13C10.5 12.6022 10.342 12.2206 10.0607 11.9393C9.77936 11.658 9.39782 11.5 9 11.5H7.22125C7.875 10.75 8.54625 10.0275 9.2825 9.28248C10.6027 7.9619 12.2828 7.05967 14.1129 6.68855C15.9429 6.31742 17.8418 6.49385 19.5721 7.19579C21.3025 7.89774 22.7876 9.09406 23.8419 10.6353C24.8962 12.1765 25.4729 13.9942 25.5 15.8613C25.5271 17.7284 25.0033 19.5621 23.9941 21.1333C22.9849 22.7044 21.5351 23.9432 19.8258 24.695C18.1165 25.4468 16.2236 25.6782 14.3835 25.3603C12.5435 25.0424 10.8379 24.1892 9.48 22.9075C9.19058 22.6343 8.8045 22.4873 8.40669 22.4988C8.00888 22.5103 7.63192 22.6793 7.35875 22.9687C7.08558 23.2581 6.93856 23.6442 6.95005 24.042C6.96154 24.4399 7.13058 24.8168 7.42 25.09C8.90378 26.4906 10.7079 27.5066 12.6747 28.0495C14.6416 28.5923 16.7115 28.6454 18.7036 28.2042C20.6957 27.7629 22.5495 26.8407 24.1032 25.5181C25.6568 24.1954 26.8631 22.5125 27.6166 20.6164C28.3702 18.7202 28.6481 16.6684 28.4261 14.6401C28.2042 12.6118 27.489 10.6687 26.3432 8.98041C25.1974 7.29211 23.6557 5.90997 21.8528 4.95467C20.0498 3.99936 18.0404 3.49993 16 3.49998Z" fill="black"/>
</svg>
