<svg width="32" height="32" viewBox="0 0 32 32" fill="none" xmlns="http://www.w3.org/2000/svg">
<path d="M29.5 17.125C29.2793 19.6901 28.3306 22.1388 26.7656 24.183C25.2005 26.2273 23.0842 27.782 20.6655 28.6643C18.2469 29.5466 15.6265 29.7198 13.1128 29.1634C10.5991 28.6071 8.29652 27.3444 6.47603 25.524C4.65555 23.7035 3.39287 21.4009 2.83654 18.8872C2.28022 16.3735 2.4534 13.7531 3.3357 11.3345C4.218 8.91584 5.77273 6.79949 7.81696 5.23442C9.8612 3.66935 12.3099 2.72068 14.875 2.50002C15.2728 2.46686 15.6675 2.5931 15.9722 2.85097C16.277 3.10883 16.4668 3.47719 16.5 3.87502C16.5331 4.27284 16.4069 4.66754 16.149 4.97229C15.8912 5.27703 15.5228 5.46686 15.125 5.50002C13.1292 5.67117 11.2238 6.40884 9.63305 7.62621C8.0423 8.84359 6.83238 10.49 6.14565 12.3717C5.45893 14.2535 5.32399 16.2922 5.7567 18.248C6.18942 20.2038 7.17178 21.9954 8.5882 23.4118C10.0046 24.8282 11.7962 25.8106 13.752 26.2433C15.7078 26.676 17.7465 26.5411 19.6283 25.8543C21.51 25.1676 23.1564 23.9577 24.3738 22.3669C25.5912 20.7762 26.3288 18.8708 26.5 16.875C26.5164 16.678 26.5714 16.4862 26.662 16.3105C26.7525 16.1348 26.8768 15.9786 27.0277 15.851C27.1786 15.7233 27.3532 15.6266 27.5414 15.5664C27.7297 15.5061 27.928 15.4836 28.125 15.5C28.322 15.5164 28.5138 15.5715 28.6895 15.662C28.8652 15.7526 29.0213 15.8768 29.149 16.0277C29.2767 16.1786 29.3734 16.3532 29.4336 16.5415C29.4938 16.7297 29.5164 16.928 29.5 17.125ZM14.5 9.50002V16C14.5 16.3978 14.658 16.7794 14.9393 17.0607C15.2206 17.342 15.6022 17.5 16 17.5H22.5C22.8978 17.5 23.2793 17.342 23.5606 17.0607C23.8419 16.7794 24 16.3978 24 16C24 15.6022 23.8419 15.2207 23.5606 14.9394C23.2793 14.6581 22.8978 14.5 22.5 14.5H17.5V9.50002C17.5 9.10219 17.3419 8.72066 17.0606 8.43935C16.7793 8.15805 16.3978 8.00002 16 8.00002C15.6022 8.00002 15.2206 8.15805 14.9393 8.43935C14.658 8.72066 14.5 9.10219 14.5 9.50002ZM26 12C26.3955 12 26.7822 11.8827 27.1111 11.663C27.44 11.4432 27.6964 11.1308 27.8477 10.7654C27.9991 10.3999 28.0387 9.9978 27.9615 9.60983C27.8844 9.22187 27.6939 8.86551 27.4142 8.5858C27.1345 8.3061 26.7781 8.11561 26.3902 8.03844C26.0022 7.96127 25.6001 8.00088 25.2346 8.15226C24.8692 8.30363 24.5568 8.55998 24.337 8.88888C24.1173 9.21777 24 9.60445 24 10C24 10.5304 24.2107 11.0392 24.5858 11.4142C24.9608 11.7893 25.4695 12 26 12ZM22 8.00002C22.3955 8.00002 22.7822 7.88272 23.1111 7.66295C23.44 7.44319 23.6964 7.13083 23.8477 6.76538C23.9991 6.39993 24.0387 5.9978 23.9615 5.60983C23.8844 5.22187 23.6939 4.86551 23.4142 4.5858C23.1345 4.3061 22.7781 4.11561 22.3902 4.03844C22.0022 3.96127 21.6001 4.00088 21.2346 4.15226C20.8692 4.30363 20.5568 4.55998 20.337 4.88887C20.1173 5.21777 20 5.60445 20 6.00002C20 6.53045 20.2107 7.03916 20.5858 7.41423C20.9608 7.7893 21.4695 8.00002 22 8.00002Z" fill="black"/>
</svg>
