<svg width="32" height="32" viewBox="0 0 32 32" fill="none" xmlns="http://www.w3.org/2000/svg">
<path d="M28 5.5H4C3.33696 5.5 2.70107 5.76339 2.23223 6.23223C1.76339 6.70107 1.5 7.33696 1.5 8V24C1.5 24.663 1.76339 25.2989 2.23223 25.7678C2.70107 26.2366 3.33696 26.5 4 26.5H28C28.663 26.5 29.2989 26.2366 29.7678 25.7678C30.2366 25.2989 30.5 24.663 30.5 24V8C30.5 7.33696 30.2366 6.70107 29.7678 6.23223C29.2989 5.76339 28.663 5.5 28 5.5ZM27.5 23.5H4.5V8.5H27.5V23.5ZM6.5 16C6.49989 15.0345 6.75395 14.086 7.23663 13.2498C7.71931 12.4136 8.41361 11.7192 9.24974 11.2364C10.0859 10.7536 11.0343 10.4994 11.9998 10.4994C12.9654 10.4994 13.9138 10.7535 14.75 11.2362C15.0868 11.439 15.3305 11.7658 15.4287 12.1465C15.5269 12.5271 15.4719 12.931 15.2753 13.2714C15.0787 13.6118 14.7564 13.8615 14.3776 13.9666C13.9988 14.0718 13.5939 14.0241 13.25 13.8337C12.8699 13.6148 12.4389 13.4997 12.0003 13.5C11.5616 13.5003 11.1308 13.616 10.751 13.8355C10.3713 14.055 10.0559 14.3706 9.8367 14.7505C9.61747 15.1304 9.50206 15.5614 9.50206 16C9.50206 16.4386 9.61747 16.8696 9.8367 17.2495C10.0559 17.6294 10.3713 17.945 10.751 18.1645C11.1308 18.384 11.5616 18.4997 12.0003 18.5C12.4389 18.5003 12.8699 18.3852 13.25 18.1663C13.4208 18.0601 13.6111 17.9893 13.8098 17.9581C14.0084 17.927 14.2113 17.9361 14.4064 17.9849C14.6014 18.0337 14.7847 18.1213 14.9453 18.2423C15.1058 18.3634 15.2404 18.5155 15.341 18.6896C15.4416 18.8637 15.5061 19.0563 15.5308 19.2558C15.5555 19.4554 15.5398 19.6579 15.4847 19.8513C15.4296 20.0447 15.3361 20.225 15.2099 20.3815C15.0837 20.538 14.9273 20.6676 14.75 20.7625C13.9139 21.2452 12.9656 21.4993 12.0002 21.4994C11.0348 21.4994 10.0864 21.2453 9.25028 20.7627C8.41419 20.28 7.71987 19.5858 7.2371 18.7498C6.75433 17.9138 6.50011 16.9654 6.5 16ZM16.5 16C16.4999 15.0345 16.7539 14.086 17.2366 13.2498C17.7193 12.4136 18.4136 11.7192 19.2497 11.2364C20.0859 10.7536 21.0343 10.4994 21.9998 10.4994C22.9654 10.4994 23.9138 10.7535 24.75 11.2362C25.0868 11.439 25.3305 11.7658 25.4287 12.1465C25.5269 12.5271 25.4718 12.931 25.2753 13.2714C25.0787 13.6118 24.7564 13.8615 24.3776 13.9666C23.9988 14.0718 23.5939 14.0241 23.25 13.8337C22.8699 13.6148 22.4389 13.4997 22.0003 13.5C21.5616 13.5003 21.1308 13.616 20.751 13.8355C20.3713 14.055 20.0559 14.3706 19.8367 14.7505C19.6175 15.1304 19.5021 15.5614 19.5021 16C19.5021 16.4386 19.6175 16.8696 19.8367 17.2495C20.0559 17.6294 20.3713 17.945 20.751 18.1645C21.1308 18.384 21.5616 18.4997 22.0003 18.5C22.4389 18.5003 22.8699 18.3852 23.25 18.1663C23.4208 18.0601 23.6111 17.9893 23.8098 17.9581C24.0084 17.927 24.2113 17.9361 24.4064 17.9849C24.6014 18.0337 24.7847 18.1213 24.9453 18.2423C25.1058 18.3634 25.2404 18.5155 25.341 18.6896C25.4416 18.8637 25.5061 19.0563 25.5308 19.2558C25.5555 19.4554 25.5398 19.6579 25.4847 19.8513C25.4296 20.0447 25.3361 20.225 25.2099 20.3815C25.0837 20.538 24.9273 20.6676 24.75 20.7625C23.9139 21.2452 22.9656 21.4993 22.0002 21.4994C21.0348 21.4994 20.0864 21.2453 19.2503 20.7627C18.4142 20.28 17.7199 19.5858 17.2371 18.7498C16.7543 17.9138 16.5001 16.9654 16.5 16Z" fill="black"/>
</svg>
