<svg width="32" height="32" viewBox="0 0 32 32" fill="none" xmlns="http://www.w3.org/2000/svg">
<path d="M22 27C22 27.3956 21.8827 27.7822 21.6629 28.1111C21.4432 28.44 21.1308 28.6964 20.7654 28.8477C20.3999 28.9991 19.9978 29.0387 19.6098 28.9616C19.2219 28.8844 18.8655 28.6939 18.5858 28.4142C18.3061 28.1345 18.1156 27.7781 18.0384 27.3902C17.9613 27.0022 18.0009 26.6001 18.1522 26.2346C18.3036 25.8692 18.56 25.5568 18.8889 25.3371C19.2178 25.1173 19.6044 25 20 25C20.5304 25 21.0391 25.2107 21.4142 25.5858C21.7893 25.9608 22 26.4696 22 27ZM14 25C13.6044 25 13.2178 25.1173 12.8889 25.3371C12.56 25.5568 12.3036 25.8692 12.1522 26.2346C12.0009 26.6001 11.9613 27.0022 12.0384 27.3902C12.1156 27.7781 12.3061 28.1345 12.5858 28.4142C12.8655 28.6939 13.2219 28.8844 13.6098 28.9616C13.9978 29.0387 14.3999 28.9991 14.7654 28.8477C15.1308 28.6964 15.4432 28.44 15.6629 28.1111C15.8827 27.7822 16 27.3956 16 27C16 26.4696 15.7893 25.9608 15.4142 25.5858C15.0391 25.2107 14.5304 25 14 25ZM8 25C7.60444 25 7.21776 25.1173 6.88886 25.3371C6.55996 25.5568 6.30362 25.8692 6.15224 26.2346C6.00087 26.6001 5.96126 27.0022 6.03843 27.3902C6.1156 27.7781 6.30608 28.1345 6.58579 28.4142C6.86549 28.6939 7.22186 28.8844 7.60982 28.9616C7.99778 29.0387 8.39991 28.9991 8.76537 28.8477C9.13082 28.6964 9.44318 28.44 9.66294 28.1111C9.8827 27.7822 10 27.3956 10 27C10 26.4696 9.78929 25.9608 9.41421 25.5858C9.03914 25.2107 8.53043 25 8 25ZM29.5 11.5C29.497 14.1512 28.4425 16.6931 26.5678 18.5678C24.6931 20.4425 22.1513 21.497 19.5 21.5H9.5C7.64348 21.5 5.86301 20.7625 4.55025 19.4497C3.2375 18.137 2.5 16.3565 2.5 14.5C2.5 12.6435 3.2375 10.863 4.55025 9.55024C5.86301 8.23749 7.64348 7.49999 9.5 7.49999C9.76688 7.49999 10.0336 7.51501 10.2987 7.54499C11.2108 5.43082 12.8237 3.6957 14.8658 2.63205C16.9079 1.5684 19.2543 1.24126 21.5094 1.70577C23.7646 2.17028 25.7907 3.39803 27.2462 5.18211C28.7017 6.96618 29.4977 9.1975 29.5 11.5ZM26.5 11.5C26.489 9.68472 25.774 7.94456 24.5055 6.64597C23.237 5.34738 21.5141 4.59171 19.6996 4.53808C17.8851 4.48446 16.1206 5.13707 14.7777 6.35848C13.4347 7.5799 12.6182 9.27479 12.5 11.0862C12.4771 11.4841 12.2972 11.8565 11.9997 12.1216C11.7022 12.3868 11.3116 12.5229 10.9137 12.5C10.5159 12.4771 10.1435 12.2971 9.87835 11.9997C9.61322 11.7022 9.47713 11.3116 9.5 10.9137C9.5075 10.775 9.51875 10.6375 9.5325 10.5H9.5C8.43913 10.5 7.42172 10.9214 6.67157 11.6716C5.92143 12.4217 5.5 13.4391 5.5 14.5C5.5 15.5609 5.92143 16.5783 6.67157 17.3284C7.42172 18.0786 8.43913 18.5 9.5 18.5H19.5C21.3559 18.498 23.1352 17.7599 24.4476 16.4475C25.7599 15.1352 26.498 13.3559 26.5 11.5Z" fill="black"/>
</svg>
