<svg width="32" height="32" viewBox="0 0 32 32" fill="none" xmlns="http://www.w3.org/2000/svg">
<path d="M19.9999 4.5C17.924 4.50101 15.887 5.06337 14.1046 6.12754C12.3222 7.1917 10.8607 8.71806 9.87495 10.545C8.72806 10.4265 7.56905 10.5426 6.46844 10.8862C5.36783 11.2298 4.34863 11.7937 3.47284 12.5437C2.59706 13.2936 1.88301 14.2139 1.37413 15.2485C0.865252 16.2831 0.572186 17.4105 0.512762 18.5619C0.453338 19.7134 0.628799 20.8649 1.02847 21.9464C1.42814 23.0279 2.04367 24.0168 2.8376 24.8529C3.63153 25.689 4.58726 26.3549 5.64666 26.8099C6.70605 27.265 7.84695 27.4998 8.99995 27.5H19.9999C23.0499 27.5 25.975 26.2884 28.1317 24.1317C30.2883 21.9751 31.4999 19.05 31.4999 16C31.4999 12.95 30.2883 10.0249 28.1317 7.86827C25.975 5.7116 23.0499 4.5 19.9999 4.5ZM19.9999 24.5H8.99995C7.54126 24.5302 6.13033 23.9796 5.07754 22.9695C4.02476 21.9594 3.41637 20.5724 3.3862 19.1138C3.35603 17.6551 3.90656 16.2441 4.91668 15.1913C5.9268 14.1386 7.31376 13.5302 8.77245 13.5C8.59036 14.3208 8.49898 15.1592 8.49995 16C8.49995 16.3978 8.65798 16.7794 8.93929 17.0607C9.22059 17.342 9.60212 17.5 9.99995 17.5C10.3978 17.5 10.7793 17.342 11.0606 17.0607C11.3419 16.7794 11.4999 16.3978 11.4999 16C11.4999 14.3189 11.9985 12.6755 12.9325 11.2777C13.8664 9.87984 15.194 8.79037 16.7471 8.14702C18.3003 7.50368 20.0094 7.33535 21.6582 7.66333C23.3071 7.9913 24.8216 8.80085 26.0104 9.98959C27.1991 11.1783 28.0086 12.6929 28.3366 14.3417C28.6646 15.9906 28.4963 17.6996 27.8529 19.2528C27.2096 20.806 26.1201 22.1335 24.7223 23.0675C23.3245 24.0015 21.6811 24.5 19.9999 24.5ZM25.0612 12.9388C25.201 13.0781 25.312 13.2437 25.3877 13.426C25.4634 13.6083 25.5024 13.8038 25.5024 14.0013C25.5024 14.1987 25.4634 14.3942 25.3877 14.5765C25.312 14.7588 25.201 14.9244 25.0612 15.0638L19.0612 21.0637C18.9218 21.2036 18.7563 21.3145 18.5739 21.3903C18.3916 21.466 18.1961 21.5049 17.9987 21.5049C17.8013 21.5049 17.6058 21.466 17.4235 21.3903C17.2411 21.3145 17.0756 21.2036 16.9362 21.0637L13.9362 18.0637C13.7967 17.9242 13.686 17.7586 13.6105 17.5763C13.535 17.394 13.4961 17.1986 13.4961 17.0012C13.4961 16.8039 13.535 16.6085 13.6105 16.4262C13.686 16.2439 13.7967 16.0783 13.9362 15.9388C14.0757 15.7992 14.2414 15.6885 14.4237 15.613C14.606 15.5375 14.8014 15.4986 14.9987 15.4986C15.196 15.4986 15.3914 15.5375 15.5737 15.613C15.756 15.6885 15.9217 15.7992 16.0612 15.9388L17.9999 17.875L22.9387 12.935C23.0783 12.7958 23.2439 12.6854 23.4261 12.6103C23.6083 12.5351 23.8036 12.4966 24.0007 12.4969C24.1978 12.4973 24.393 12.5365 24.5749 12.6123C24.7569 12.6881 24.9221 12.799 25.0612 12.9388Z" fill="black"/>
</svg>
