<svg width="32" height="32" viewBox="0 0 32 32" fill="none" xmlns="http://www.w3.org/2000/svg">
<path d="M19.5 2.25C17.586 2.25037 15.7189 2.84282 14.1548 3.94611C12.5907 5.0494 11.4062 6.60951 10.7638 8.4125C10.692 8.37483 10.6148 8.34868 10.535 8.335C10.1929 8.27847 9.84674 8.25004 9.5 8.25C7.8424 8.25 6.25269 8.90848 5.08058 10.0806C3.90848 11.2527 3.25 12.8424 3.25 14.5C3.25 16.1576 3.90848 17.7473 5.08058 18.9194C6.25269 20.0915 7.8424 20.75 9.5 20.75H14.675L12.3562 24.6138C12.2878 24.7276 12.2509 24.8576 12.2492 24.9904C12.2475 25.1232 12.2811 25.2541 12.3466 25.3697C12.4121 25.4853 12.5071 25.5814 12.6219 25.6482C12.7367 25.715 12.8672 25.7502 13 25.75H16.675L14.3562 29.6138C14.2538 29.7845 14.2234 29.9889 14.2717 30.1821C14.32 30.3752 14.443 30.5413 14.6138 30.6437C14.7845 30.7462 14.9889 30.7766 15.1821 30.7283C15.3752 30.68 15.5413 30.557 15.6438 30.3862L18.6437 25.3862C18.7122 25.2724 18.7491 25.1424 18.7508 25.0096C18.7525 24.8768 18.7189 24.7459 18.6534 24.6303C18.5879 24.5147 18.4929 24.4186 18.3781 24.3518C18.2633 24.285 18.1328 24.2498 18 24.25H14.325L16.425 20.75H19.5C21.9533 20.75 24.306 19.7754 26.0407 18.0407C27.7754 16.306 28.75 13.9533 28.75 11.5C28.75 9.04675 27.7754 6.69397 26.0407 4.95926C24.306 3.22455 21.9533 2.25 19.5 2.25ZM19.5 19.25H9.5C8.84335 19.2492 8.19399 19.1123 7.59292 18.8479C6.99186 18.5835 6.45215 18.1973 6.00787 17.7137C5.5636 17.2302 5.22441 16.6598 5.01172 16.0385C4.79903 15.4173 4.71746 14.7587 4.77216 14.1043C4.82687 13.4499 5.01666 12.814 5.32955 12.2367C5.64243 11.6594 6.07163 11.1532 6.59002 10.7501C7.10842 10.3471 7.70475 10.0559 8.34138 9.8949C8.978 9.73395 9.64108 9.70674 10.2887 9.815C10.3214 9.82025 10.3544 9.82359 10.3875 9.825C10.3181 10.1988 10.2722 10.5767 10.25 10.9563C10.2384 11.1552 10.3063 11.3505 10.4387 11.4994C10.5712 11.6483 10.7573 11.7384 10.9563 11.75C11.1552 11.7616 11.3505 11.6937 11.4994 11.5613C11.6483 11.4288 11.7384 11.2427 11.75 11.0437C11.8376 9.53135 12.3662 8.0777 13.2704 6.86222C14.1747 5.64673 15.415 4.72261 16.8384 4.2039C18.2617 3.68519 19.8058 3.5946 21.2801 3.9433C22.7544 4.292 24.0943 5.06474 25.1344 6.16615C26.1746 7.26755 26.8695 8.64942 27.1334 10.1412C27.3973 11.633 27.2186 13.1694 26.6194 14.5608C26.0202 15.9522 25.0267 17.1377 23.7616 17.971C22.4964 18.8043 21.0149 19.2489 19.5 19.25Z" fill="black"/>
</svg>
