<svg width="32" height="32" viewBox="0 0 32 32" fill="none" xmlns="http://www.w3.org/2000/svg">
<path d="M19.9999 4.5C17.924 4.50101 15.887 5.06337 14.1046 6.12754C12.3222 7.1917 10.8607 8.71806 9.87495 10.545C8.72806 10.4265 7.56905 10.5426 6.46844 10.8862C5.36783 11.2298 4.34863 11.7937 3.47284 12.5437C2.59706 13.2936 1.88301 14.2139 1.37413 15.2485C0.865252 16.2831 0.572186 17.4105 0.512762 18.5619C0.453338 19.7134 0.628799 20.8649 1.02847 21.9464C1.42814 23.0279 2.04367 24.0168 2.8376 24.8529C3.63153 25.689 4.58726 26.3549 5.64666 26.8099C6.70605 27.265 7.84695 27.4998 8.99995 27.5H19.9999C23.0499 27.5 25.975 26.2884 28.1317 24.1317C30.2883 21.9751 31.4999 19.05 31.4999 16C31.4999 12.95 30.2883 10.0249 28.1317 7.86827C25.975 5.7116 23.0499 4.5 19.9999 4.5ZM19.9999 24.5H8.99995C7.54126 24.5302 6.13033 23.9796 5.07754 22.9695C4.02476 21.9594 3.41637 20.5724 3.3862 19.1138C3.35603 17.6551 3.90656 16.2441 4.91668 15.1913C5.9268 14.1386 7.31376 13.5302 8.77245 13.5C8.59036 14.3208 8.49898 15.1592 8.49995 16C8.49995 16.3978 8.65798 16.7794 8.93929 17.0607C9.22059 17.342 9.60212 17.5 9.99995 17.5C10.3978 17.5 10.7793 17.342 11.0606 17.0607C11.3419 16.7794 11.4999 16.3978 11.4999 16C11.4999 14.3189 11.9985 12.6755 12.9325 11.2777C13.8664 9.87984 15.194 8.79037 16.7471 8.14702C18.3003 7.50368 20.0094 7.33535 21.6582 7.66333C23.3071 7.9913 24.8216 8.80085 26.0104 9.98959C27.1991 11.1783 28.0086 12.6929 28.3366 14.3417C28.6646 15.9906 28.4963 17.6996 27.8529 19.2528C27.2096 20.806 26.1201 22.1335 24.7223 23.0675C23.3245 24.0015 21.6811 24.5 19.9999 24.5ZM18.4999 15V11C18.4999 10.6022 18.658 10.2206 18.9393 9.93934C19.2206 9.65804 19.6021 9.5 19.9999 9.5C20.3978 9.5 20.7793 9.65804 21.0606 9.93934C21.3419 10.2206 21.4999 10.6022 21.4999 11V15C21.4999 15.3978 21.3419 15.7794 21.0606 16.0607C20.7793 16.342 20.3978 16.5 19.9999 16.5C19.6021 16.5 19.2206 16.342 18.9393 16.0607C18.658 15.7794 18.4999 15.3978 18.4999 15ZM21.9999 20C21.9999 20.3956 21.8827 20.7822 21.6629 21.1111C21.4431 21.44 21.1308 21.6964 20.7653 21.8478C20.3999 21.9991 19.9977 22.0387 19.6098 21.9616C19.2218 21.8844 18.8654 21.6939 18.5857 21.4142C18.306 21.1345 18.1155 20.7781 18.0384 20.3902C17.9612 20.0022 18.0008 19.6001 18.1522 19.2346C18.3036 18.8692 18.5599 18.5568 18.8888 18.3371C19.2177 18.1173 19.6044 18 19.9999 18C20.5304 18 21.0391 18.2107 21.4142 18.5858C21.7892 18.9609 21.9999 19.4696 21.9999 20Z" fill="black"/>
</svg>
