<svg width="32" height="32" viewBox="0 0 32 32" fill="none" xmlns="http://www.w3.org/2000/svg">
<path d="M19.9999 4.5C17.924 4.50101 15.887 5.06337 14.1046 6.12754C12.3222 7.1917 10.8607 8.71806 9.87495 10.545C8.72806 10.4265 7.56905 10.5426 6.46844 10.8862C5.36783 11.2298 4.34863 11.7937 3.47284 12.5437C2.59706 13.2936 1.88301 14.2139 1.37413 15.2485C0.865252 16.2831 0.572186 17.4105 0.512762 18.5619C0.453338 19.7134 0.628799 20.8649 1.02847 21.9464C1.42814 23.0279 2.04367 24.0168 2.8376 24.8529C3.63153 25.689 4.58726 26.3549 5.64666 26.8099C6.70605 27.265 7.84695 27.4998 8.99995 27.5H19.9999C23.0499 27.5 25.975 26.2884 28.1317 24.1317C30.2883 21.9751 31.4999 19.05 31.4999 16C31.4999 12.95 30.2883 10.0249 28.1317 7.86827C25.975 5.7116 23.0499 4.5 19.9999 4.5ZM19.9999 24.5H8.99995C7.54126 24.5302 6.13033 23.9796 5.07754 22.9695C4.02476 21.9594 3.41637 20.5724 3.3862 19.1138C3.35603 17.6551 3.90656 16.2441 4.91668 15.1913C5.9268 14.1386 7.31376 13.5302 8.77245 13.5C8.59036 14.3208 8.49898 15.1592 8.49995 16C8.49995 16.3978 8.65798 16.7794 8.93929 17.0607C9.22059 17.342 9.60212 17.5 9.99995 17.5C10.3978 17.5 10.7793 17.342 11.0606 17.0607C11.3419 16.7794 11.4999 16.3978 11.4999 16C11.4999 14.3189 11.9985 12.6755 12.9325 11.2777C13.8664 9.87984 15.194 8.79037 16.7471 8.14702C18.3003 7.50368 20.0094 7.33535 21.6582 7.66333C23.3071 7.9913 24.8216 8.80085 26.0104 9.98959C27.1991 11.1783 28.0086 12.6929 28.3366 14.3417C28.6646 15.9906 28.4963 17.6996 27.8529 19.2528C27.2096 20.806 26.1201 22.1335 24.7223 23.0675C23.3245 24.0015 21.6811 24.5 19.9999 24.5ZM24.0612 15.0612L22.1249 17L24.0649 18.9387C24.3467 19.2205 24.5051 19.6027 24.5051 20.0012C24.5051 20.3998 24.3467 20.782 24.0649 21.0637C23.7832 21.3455 23.401 21.5039 23.0024 21.5039C22.6039 21.5039 22.2217 21.3455 21.9399 21.0637L19.9999 19.125L18.0612 21.065C17.9217 21.2045 17.756 21.3152 17.5737 21.3907C17.3914 21.4662 17.196 21.5051 16.9987 21.5051C16.8014 21.5051 16.606 21.4662 16.4237 21.3907C16.2414 21.3152 16.0757 21.2045 15.9362 21.065C15.7967 20.9255 15.686 20.7598 15.6105 20.5775C15.535 20.3952 15.4961 20.1998 15.4961 20.0025C15.4961 19.8052 15.535 19.6098 15.6105 19.4275C15.686 19.2452 15.7967 19.0795 15.9362 18.94L17.8749 17L15.9349 15.0612C15.7954 14.9217 15.6847 14.7561 15.6092 14.5738C15.5337 14.3915 15.4948 14.1961 15.4948 13.9987C15.4948 13.8014 15.5337 13.606 15.6092 13.4237C15.6847 13.2414 15.7954 13.0758 15.9349 12.9362C16.0745 12.7967 16.2401 12.686 16.4224 12.6105C16.6047 12.535 16.8001 12.4961 16.9974 12.4961C17.1948 12.4961 17.3902 12.535 17.5725 12.6105C17.7548 12.686 17.9204 12.7967 18.0599 12.9362L19.9999 14.875L21.9387 12.935C22.2205 12.6532 22.6027 12.4949 23.0012 12.4949C23.3997 12.4949 23.7819 12.6532 24.0637 12.935C24.3455 13.2168 24.5038 13.599 24.5038 13.9975C24.5038 14.396 24.3455 14.7782 24.0637 15.06L24.0612 15.0612Z" fill="black"/>
</svg>
