<svg width="32" height="32" viewBox="0 0 32 32" fill="none" xmlns="http://www.w3.org/2000/svg">
<path d="M20.5 9.25C19.9055 9.24993 19.3124 9.30686 18.7288 9.42C18.6048 7.5443 17.88 5.75841 16.6618 4.32677C15.4436 2.89513 13.7967 1.89387 11.965 1.47125C11.8407 1.4425 11.7111 1.44595 11.5884 1.48127C11.4658 1.51659 11.3542 1.58262 11.2642 1.67311C11.1743 1.7636 11.1088 1.87555 11.0742 1.99837C11.0396 2.1212 11.0368 2.25083 11.0663 2.375C11.3397 3.57231 11.3049 4.81942 10.965 5.99958C10.6251 7.17974 9.99121 8.25434 9.12279 9.12276C8.25437 9.99119 7.17977 10.625 5.99961 10.9649C4.81945 11.3048 3.57233 11.3397 2.37503 11.0662C2.2512 11.0378 2.12218 11.0413 2.00007 11.0764C1.87797 11.1115 1.76678 11.1771 1.67695 11.2669C1.58711 11.3568 1.52157 11.4679 1.48647 11.59C1.45137 11.7122 1.44786 11.8412 1.47628 11.965C1.74806 13.1368 2.2578 14.2402 2.97385 15.2068C3.6899 16.1733 4.59698 16.9824 5.63878 17.5837C4.90078 18.5016 4.43716 19.6094 4.30135 20.7793C4.16553 21.9492 4.36304 23.1337 4.87113 24.1962C5.37921 25.2588 6.17718 26.1561 7.17307 26.7849C8.16897 27.4136 9.32226 27.7482 10.5 27.75H20.5C22.9533 27.75 25.3061 26.7754 27.0408 25.0407C28.7755 23.306 29.75 20.9533 29.75 18.5C29.75 16.0467 28.7755 13.694 27.0408 11.9593C25.3061 10.2246 22.9533 9.25 20.5 9.25ZM3.27753 12.72C3.51753 12.74 3.75836 12.75 4.00003 12.75C6.31986 12.7474 8.54392 11.8246 10.1843 10.1843C11.8247 8.54389 12.7474 6.31983 12.75 4C12.75 3.7575 12.74 3.515 12.72 3.275C14.0375 3.80152 15.1701 4.70528 15.976 5.87295C16.7819 7.04061 17.2251 8.42021 17.25 9.83875C15.9912 10.3105 14.8498 11.0498 13.9045 12.0056C12.9593 12.9614 12.2327 14.111 11.775 15.375C11.3554 15.2901 10.9282 15.2482 10.5 15.25C9.15446 15.2486 7.84474 15.6837 6.76753 16.49C5.18471 15.6992 3.94406 14.359 3.27753 12.72ZM20.5 26.25H10.5C9.83908 26.2495 9.1855 26.1111 8.58111 25.8436C7.97671 25.5761 7.4348 25.1854 6.99002 24.6965C6.54524 24.2076 6.20739 23.6312 5.99808 23.0043C5.78876 22.3773 5.71259 21.7136 5.77443 21.0556C5.83626 20.3975 6.03476 19.7596 6.35721 19.1827C6.67966 18.6057 7.11897 18.1024 7.64704 17.7049C8.17512 17.3074 8.78033 17.0245 9.42399 16.8743C10.0676 16.7241 10.7356 16.7099 11.385 16.8325C11.3181 17.2045 11.2734 17.5802 11.2513 17.9575C11.2397 18.1564 11.3076 18.3518 11.44 18.5006C11.5725 18.6495 11.7586 18.7396 11.9575 18.7512C12.1564 18.7629 12.3518 18.695 12.5007 18.5625C12.6495 18.4301 12.7397 18.2439 12.7513 18.045C12.7829 17.5279 12.8666 17.0153 13.0013 16.515C13.0013 16.4962 13.0113 16.4788 13.015 16.4613C13.3939 15.0648 14.1558 13.8021 15.2146 12.8159C16.2734 11.8297 17.587 11.1593 19.0068 10.8804C20.4266 10.6016 21.8961 10.7254 23.2493 11.2378C24.6025 11.7503 25.7853 12.631 26.6643 13.7804C27.5432 14.9298 28.0831 16.3022 28.223 17.7423C28.3629 19.1825 28.0973 20.6331 27.4561 21.9302C26.8148 23.2274 25.8236 24.3193 24.5944 25.0826C23.3652 25.846 21.947 26.2503 20.5 26.25Z" fill="black"/>
</svg>
