<svg width="32" height="32" viewBox="0 0 32 32" fill="none" xmlns="http://www.w3.org/2000/svg">
<path d="M7.10995 3.99113C6.97822 3.84264 6.81834 3.72178 6.63955 3.63554C6.46077 3.5493 6.26665 3.4994 6.06844 3.48874C5.87023 3.47808 5.67187 3.50686 5.48487 3.57342C5.29786 3.63998 5.12593 3.74299 4.97903 3.87649C4.83214 4.00999 4.7132 4.17132 4.62911 4.35112C4.54502 4.53093 4.49745 4.72563 4.48916 4.92396C4.48088 5.12228 4.51204 5.32027 4.58083 5.50647C4.64963 5.69266 4.7547 5.86335 4.88995 6.00863L8.9737 10.4999C6.71936 10.5034 4.55874 11.4022 2.96714 12.9988C1.37554 14.5953 0.483346 16.7587 0.486827 19.013C0.490308 21.2673 1.38918 23.428 2.9857 25.0196C4.58222 26.6112 6.74561 27.5034 8.99995 27.4999H20C21.3055 27.5025 22.6018 27.2809 23.8325 26.8449L24.89 28.0086C25.1589 28.2975 25.5309 28.4688 25.9252 28.4853C26.3196 28.5017 26.7046 28.3621 26.9967 28.0967C27.2888 27.8312 27.4645 27.4613 27.4857 27.0672C27.5069 26.673 27.3719 26.2864 27.11 25.9911L7.10995 3.99113ZM20 24.4999H8.99995C7.5668 24.4908 6.1938 23.9227 5.17325 22.9165C4.15271 21.9102 3.56524 20.5454 3.53591 19.1125C3.50659 17.6797 4.03772 16.2919 5.01624 15.2448C5.99477 14.1977 7.34337 13.5738 8.77495 13.5061C8.59252 14.3249 8.50031 15.1611 8.49995 15.9999C8.49995 16.3977 8.65799 16.7792 8.93929 17.0605C9.2206 17.3418 9.60213 17.4999 9.99995 17.4999C10.3978 17.4999 10.7793 17.3418 11.0606 17.0605C11.3419 16.7792 11.5 16.3977 11.5 15.9999C11.5002 15.2032 11.6122 14.4105 11.8325 13.6449L21.5675 24.3536C21.0505 24.4503 20.5258 24.4993 20 24.4999ZM31.5 15.9999C31.5053 18.4256 30.7378 20.7899 29.3087 22.7499C29.1943 22.9128 29.0487 23.0514 28.8802 23.1575C28.7118 23.2636 28.5239 23.3351 28.3275 23.3678C28.1311 23.4005 27.9302 23.3938 27.7364 23.3481C27.5426 23.3024 27.3599 23.2186 27.1989 23.1015C27.0379 22.9844 26.9017 22.8365 26.7985 22.6663C26.6952 22.4961 26.6268 22.307 26.5974 22.1101C26.5679 21.9132 26.578 21.7124 26.6269 21.5195C26.6759 21.3265 26.7627 21.1452 26.8825 20.9861C28.0309 19.405 28.5994 17.4765 28.4924 15.5252C28.3853 13.574 27.6092 11.7192 26.2947 10.2732C24.9802 8.82724 23.2076 7.87834 21.2754 7.5863C19.3432 7.29427 17.3693 7.67694 15.6862 8.66988C15.3443 8.86097 14.9413 8.91077 14.5632 8.80862C14.185 8.70648 13.8619 8.46049 13.6627 8.12325C13.4636 7.786 13.4042 7.38423 13.4974 7.00381C13.5905 6.62338 13.8288 6.29448 14.1612 6.08738C15.9082 5.05783 17.8964 4.50852 19.9241 4.49515C21.9519 4.48178 23.9471 5.00483 25.7076 6.01126C27.468 7.01769 28.931 8.47171 29.9483 10.2259C30.9655 11.9801 31.5008 13.9721 31.5 15.9999Z" fill="black"/>
</svg>
