<svg width="32" height="32" viewBox="0 0 32 32" fill="none" xmlns="http://www.w3.org/2000/svg">
<path d="M15 25H9.00002C8.60219 25 8.22066 24.842 7.93936 24.5607C7.65805 24.2794 7.50002 23.8978 7.50002 23.5C7.50002 23.1022 7.65805 22.7207 7.93936 22.4394C8.22066 22.158 8.60219 22 9.00002 22H15C15.3978 22 15.7794 22.158 16.0607 22.4394C16.342 22.7207 16.5 23.1022 16.5 23.5C16.5 23.8978 16.342 24.2794 16.0607 24.5607C15.7794 24.842 15.3978 25 15 25ZM23 22H20C19.6022 22 19.2207 22.158 18.9394 22.4394C18.6581 22.7207 18.5 23.1022 18.5 23.5C18.5 23.8978 18.6581 24.2794 18.9394 24.5607C19.2207 24.842 19.6022 25 20 25H23C23.3978 25 23.7794 24.842 24.0607 24.5607C24.342 24.2794 24.5 23.8978 24.5 23.5C24.5 23.1022 24.342 22.7207 24.0607 22.4394C23.7794 22.158 23.3978 22 23 22ZM20 26.5H13C12.6022 26.5 12.2207 26.658 11.9394 26.9394C11.6581 27.2207 11.5 27.6022 11.5 28C11.5 28.3978 11.6581 28.7794 11.9394 29.0607C12.2207 29.342 12.6022 29.5 13 29.5H20C20.3978 29.5 20.7794 29.342 21.0607 29.0607C21.342 28.7794 21.5 28.3978 21.5 28C21.5 27.6022 21.342 27.2207 21.0607 26.9394C20.7794 26.658 20.3978 26.5 20 26.5ZM29 11C28.9974 13.5188 27.9956 15.9336 26.2146 17.7146C24.4336 19.4956 22.0188 20.4974 19.5 20.5H9.50002C8.59912 20.4995 7.70815 20.3118 6.88367 19.9487C6.05918 19.5856 5.31917 19.0551 4.71061 18.3908C4.10205 17.7265 3.63822 16.943 3.34856 16.0899C3.0589 15.2369 2.94973 14.3329 3.02799 13.4354C3.10624 12.5379 3.37021 11.6665 3.80314 10.8764C4.23607 10.0864 4.8285 9.39493 5.54285 8.846C6.25719 8.29706 7.07785 7.90262 7.95273 7.68769C8.82762 7.47277 9.73763 7.44206 10.625 7.59751C11.4176 5.52184 12.9126 3.78962 14.8501 2.70211C16.7876 1.6146 19.045 1.2406 21.2297 1.64514C23.4144 2.04968 25.3883 3.20718 26.8079 4.91633C28.2275 6.62549 29.0032 8.77817 29 11ZM26 11C26 9.2761 25.3152 7.6228 24.0962 6.40382C22.8772 5.18483 21.2239 4.50001 19.5 4.50001C17.7761 4.50001 16.1228 5.18483 14.9038 6.40382C13.6848 7.6228 13 9.2761 13 11C13 11.3978 12.842 11.7794 12.5607 12.0607C12.2794 12.342 11.8978 12.5 11.5 12.5C11.1022 12.5 10.7207 12.342 10.4394 12.0607C10.1581 11.7794 10 11.3978 10 11C10 10.845 10 10.69 10.0113 10.5363C9.84191 10.5122 9.67107 10.5001 9.50002 10.5C8.57176 10.5 7.68152 10.8688 7.02514 11.5251C6.36877 12.1815 6.00002 13.0718 6.00002 14C6.00002 14.9283 6.36877 15.8185 7.02514 16.4749C7.68152 17.1313 8.57176 17.5 9.50002 17.5H19.5C21.2233 17.498 22.8755 16.8126 24.094 15.594C25.3126 14.3755 25.998 12.7233 26 11Z" fill="black"/>
</svg>
