<svg width="32" height="32" viewBox="0 0 32 32" fill="none" xmlns="http://www.w3.org/2000/svg">
<path d="M19.5 8.5C18.723 8.50007 17.9486 8.59026 17.1925 8.76875C16.9675 8.44012 16.7167 8.12997 16.4425 7.84125L17.3887 6.48875C17.617 6.16287 17.7064 5.75965 17.6374 5.36782C17.5683 4.97599 17.3465 4.62763 17.0206 4.39937C16.6947 4.17112 16.2915 4.08168 15.8997 4.15071C15.5078 4.21975 15.1595 4.44162 14.9312 4.7675L13.9837 6.125C13.1049 5.74018 12.1602 5.52799 11.2012 5.5L10.9137 3.875C10.8377 3.48984 10.6137 3.14983 10.2899 2.92795C9.96598 2.70607 9.56803 2.62001 9.18141 2.68824C8.7948 2.75646 8.45034 2.97354 8.22198 3.29287C7.99361 3.6122 7.89954 4.00834 7.95996 4.39625L8.24746 6.02125C7.35609 6.37549 6.54095 6.89742 5.84621 7.55875L4.48871 6.6075C4.16283 6.37925 3.75962 6.2898 3.36778 6.35884C2.97595 6.42788 2.62759 6.64974 2.39934 6.97563C2.17108 7.30151 2.08164 7.70472 2.15067 8.09655C2.21971 8.48839 2.44158 8.83675 2.76746 9.065L4.12496 10.0138C3.7391 10.8918 3.52686 11.8363 3.49996 12.795L1.87496 13.0825C1.50526 13.1473 1.17327 13.3483 0.944536 13.6459C0.715797 13.9434 0.60693 14.3159 0.639424 14.6899C0.671919 15.0638 0.843413 15.4119 1.12005 15.6656C1.3967 15.9193 1.75838 16.06 2.13371 16.06C2.22169 16.0598 2.30949 16.0523 2.39621 16.0375L4.02121 15.75C4.14391 16.0614 4.28758 16.3642 4.45121 16.6562C3.50223 17.6463 2.86498 18.8934 2.61861 20.2425C2.37224 21.5916 2.5276 22.9834 3.06538 24.245C3.60317 25.5066 4.49971 26.5824 5.64364 27.3388C6.78758 28.0953 8.12853 28.4991 9.49996 28.5H19.5C22.1521 28.5 24.6957 27.4464 26.571 25.5711C28.4464 23.6957 29.5 21.1522 29.5 18.5C29.5 15.8478 28.4464 13.3043 26.571 11.4289C24.6957 9.55357 22.1521 8.5 19.5 8.5ZM11 8.5C11.6214 8.5005 12.236 8.6297 12.805 8.87947C13.3741 9.12925 13.8852 9.49417 14.3062 9.95125C12.5268 11.0305 11.1265 12.6356 10.2987 14.545C10.0335 14.5149 9.76685 14.4999 9.49996 14.5C8.63045 14.4999 7.76858 14.6623 6.95871 14.9788C6.62283 14.2927 6.46711 13.5325 6.50621 12.7696C6.54531 12.0068 6.77795 11.2665 7.18221 10.6184C7.58647 9.97029 8.14905 9.43577 8.81696 9.06516C9.48487 8.69455 10.2361 8.50006 11 8.5ZM19.5 25.5H9.49996C8.4391 25.5 7.42168 25.0786 6.67153 24.3284C5.92139 23.5783 5.49996 22.5609 5.49996 21.5C5.49996 20.4391 5.92139 19.4217 6.67153 18.6716C7.42168 17.9214 8.4391 17.5 9.49996 17.5H9.53496C9.52121 17.6375 9.50996 17.775 9.50246 17.9125C9.47925 18.3103 9.61503 18.7011 9.87993 18.9988C10.1448 19.2965 10.5171 19.4768 10.915 19.5C11.3128 19.5232 11.7035 19.3874 12.0012 19.1225C12.299 18.8576 12.4793 18.4853 12.5025 18.0875C12.5289 17.6231 12.6018 17.1624 12.72 16.7125L12.7387 16.6437C13.0833 15.3837 13.7733 14.2451 14.7307 13.3565C15.6882 12.4678 16.8749 11.8644 18.1571 11.6145C19.4392 11.3645 20.7657 11.4779 21.9869 11.9419C23.208 12.4059 24.2751 13.2019 25.0678 14.2402C25.8605 15.2785 26.3472 16.5177 26.4729 17.818C26.5986 19.1182 26.3584 20.4277 25.7794 21.5986C25.2004 22.7696 24.3056 23.7554 23.196 24.4447C22.0864 25.1341 20.8063 25.4996 19.5 25.5Z" fill="black"/>
</svg>
