<svg width="32" height="32" viewBox="0 0 32 32" fill="none" xmlns="http://www.w3.org/2000/svg">
<path d="M19.4999 9.25003C18.6034 9.25006 17.7116 9.38016 16.8524 9.63628C16.4842 8.99701 16.0138 8.42233 15.4599 7.93503L16.7749 6.06003C16.8315 5.97935 16.8716 5.88832 16.8929 5.79214C16.9143 5.69596 16.9165 5.59651 16.8995 5.49947C16.8824 5.40243 16.8464 5.30971 16.7935 5.22659C16.7406 5.14347 16.6718 5.07158 16.5912 5.01503C16.5105 4.95848 16.4194 4.91837 16.3233 4.897C16.2271 4.87563 16.1276 4.87341 16.0306 4.89048C15.9336 4.90754 15.8408 4.94355 15.7577 4.99645C15.6746 5.04934 15.6027 5.1181 15.5462 5.19878L14.2312 7.07378C13.2401 6.53278 12.129 6.24952 10.9999 6.25003C10.8562 6.25003 10.7149 6.25003 10.5737 6.26503L10.1749 4.00628C10.1606 3.90672 10.1265 3.81106 10.0745 3.72496C10.0226 3.63887 9.95379 3.56411 9.87233 3.50513C9.79088 3.44615 9.69839 3.40416 9.60037 3.38164C9.50236 3.35913 9.40082 3.35656 9.30179 3.37409C9.20276 3.39161 9.10826 3.42887 9.02393 3.48366C8.93959 3.53844 8.86713 3.60962 8.81086 3.69298C8.75459 3.77633 8.71566 3.87015 8.69639 3.96885C8.67711 4.06756 8.67788 4.16913 8.69866 4.26753L9.09616 6.52503C7.87509 6.88559 6.7809 7.58414 5.93991 8.54003L4.05866 7.22253C3.89571 7.10832 3.69408 7.06352 3.4981 7.09798C3.30212 7.13244 3.12786 7.24333 3.01366 7.40628C2.89945 7.56922 2.85464 7.77086 2.8891 7.96683C2.92356 8.16281 3.03446 8.33707 3.19741 8.45128L5.07241 9.76628C4.53043 10.7578 4.24752 11.8701 4.24991 13C4.24991 13.1413 4.24991 13.2825 4.26491 13.4238L2.00616 13.8213C1.82166 13.8536 1.65593 13.9537 1.54156 14.1021C1.42719 14.2504 1.37246 14.4361 1.38813 14.6228C1.4038 14.8094 1.48874 14.9835 1.62624 15.1106C1.76375 15.2378 1.94386 15.3089 2.13116 15.31C2.17514 15.3099 2.21904 15.3061 2.26241 15.2988L4.52491 14.9C4.72066 15.5672 5.01924 16.1998 5.40991 16.775C4.44655 17.6091 3.76117 18.7178 3.44563 19.9524C3.13009 21.187 3.19945 22.4885 3.64444 23.6826C4.08942 24.8766 4.88876 25.9061 5.93531 26.6331C6.98186 27.3601 8.22563 27.7498 9.49991 27.75H19.4999C21.9532 27.75 24.3059 26.7755 26.0406 25.0408C27.7754 23.3061 28.7499 20.9533 28.7499 18.5C28.7499 16.0468 27.7754 13.694 26.0406 11.9593C24.3059 10.2246 21.9532 9.25003 19.4999 9.25003ZM5.74991 13C5.74953 11.8626 6.11854 10.7559 6.80141 9.84627C7.48429 8.93667 8.44409 8.27345 9.5364 7.95638C10.6287 7.63932 11.7945 7.68557 12.8582 8.08817C13.922 8.49077 14.8262 9.22794 15.4349 10.1888C13.2669 11.2466 11.5957 13.1066 10.7749 15.375C10.3553 15.2901 9.92805 15.2482 9.49991 15.25C8.50885 15.2493 7.53203 15.4859 6.65116 15.94C6.06404 15.0719 5.75015 14.048 5.74991 13ZM19.4999 26.25H9.49991C8.83896 26.2495 8.18538 26.1111 7.58099 25.8436C6.97659 25.5761 6.43468 25.1854 5.9899 24.6965C5.54512 24.2076 5.20727 23.6312 4.99795 23.0043C4.78864 22.3774 4.71246 21.7137 4.7743 21.0556C4.83614 20.3976 5.03464 19.7597 5.35709 19.1827C5.67954 18.6057 6.11885 18.1024 6.64692 17.7049C7.175 17.3075 7.78021 17.0246 8.42387 16.8743C9.06752 16.7241 9.73544 16.7099 10.3849 16.8325C10.3179 17.2045 10.2733 17.5802 10.2512 17.9575C10.2396 18.1564 10.3074 18.3518 10.4399 18.5007C10.5723 18.6495 10.7585 18.7397 10.9574 18.7513C11.1563 18.7629 11.3517 18.695 11.5005 18.5625C11.6494 18.4301 11.7396 18.2439 11.7512 18.045C11.7828 17.5279 11.8665 17.0153 12.0012 16.515C12.0012 16.4963 12.0112 16.4788 12.0149 16.4613C12.3938 15.0648 13.1557 13.8021 14.2145 12.8159C15.2733 11.8297 16.5868 11.1593 18.0067 10.8805C19.4265 10.6016 20.896 10.7254 22.2492 11.2378C23.6024 11.7503 24.7852 12.631 25.6641 13.7804C26.5431 14.9299 27.083 16.3022 27.2229 17.7424C27.3628 19.1825 27.0972 20.6332 26.4559 21.9303C25.8147 23.2274 24.8235 24.3193 23.5943 25.0827C22.3651 25.846 20.9469 26.2504 19.4999 26.25Z" fill="black"/>
</svg>
