<svg width="32" height="32" viewBox="0 0 32 32" fill="none" xmlns="http://www.w3.org/2000/svg">
<path d="M19.5 1.5C17.5438 1.50029 15.6305 2.07273 13.9956 3.14682C12.3607 4.22091 11.0757 5.74974 10.2987 7.545C10.0336 7.51499 9.76688 7.49997 9.5 7.5C7.64348 7.5 5.86301 8.2375 4.55025 9.55025C3.2375 10.863 2.5 12.6435 2.5 14.5C2.5 16.3565 3.2375 18.137 4.55025 19.4497C5.86301 20.7625 7.64348 21.5 9.5 21.5H13.1975L10.75 25.1675C10.6407 25.3317 10.5648 25.5157 10.5266 25.7092C10.4884 25.9027 10.4887 26.1018 10.5275 26.2952C10.5662 26.4886 10.6427 26.6724 10.7525 26.8363C10.8623 27.0001 11.0033 27.1407 11.1675 27.25C11.3317 27.3593 11.5157 27.4352 11.7092 27.4734C11.9027 27.5116 12.1018 27.5113 12.2952 27.4725C12.4886 27.4338 12.6724 27.3573 12.8363 27.2475C13.0001 27.1377 13.1407 26.9967 13.25 26.8325L16.8025 21.5H19.5C22.1522 21.5 24.6957 20.4464 26.5711 18.5711C28.4464 16.6957 29.5 14.1522 29.5 11.5C29.5 8.84784 28.4464 6.3043 26.5711 4.42893C24.6957 2.55357 22.1522 1.5 19.5 1.5ZM19.5 18.5H9.5C8.43913 18.5 7.42172 18.0786 6.67157 17.3284C5.92143 16.5783 5.5 15.5609 5.5 14.5C5.5 13.4391 5.92143 12.4217 6.67157 11.6716C7.42172 10.9214 8.43913 10.5 9.5 10.5H9.535C9.52125 10.6375 9.51 10.775 9.5025 10.9125C9.47946 11.3103 9.6154 11.701 9.88041 11.9986C10.1454 12.2962 10.5178 12.4763 10.9156 12.4994C11.3134 12.5224 11.7041 12.3865 12.0017 12.1215C12.2993 11.8565 12.4795 11.4841 12.5025 11.0863C12.5818 9.71998 13.0595 8.40685 13.8766 7.30893C14.6936 6.21102 15.8143 5.37639 17.1002 4.90807C18.3862 4.43974 19.7811 4.35822 21.1129 4.67356C22.4446 4.9889 23.6549 5.68731 24.5943 6.68258C25.5336 7.67784 26.161 8.92639 26.399 10.2741C26.6369 11.6218 26.475 13.0098 25.9333 14.2665C25.3915 15.5233 24.4936 16.5939 23.3503 17.3462C22.2071 18.0986 20.8686 18.4997 19.5 18.5ZM19.5812 25.8325L16.2475 30.8325C16.1382 30.9967 15.9976 31.1377 15.8338 31.2475C15.6699 31.3573 15.4861 31.4338 15.2927 31.4725C15.0993 31.5113 14.9002 31.5116 14.7067 31.4734C14.5132 31.4352 14.3292 31.3593 14.165 31.25C14.0008 31.1407 13.8598 31.0001 13.75 30.8363C13.6402 30.6724 13.5637 30.4886 13.525 30.2952C13.4862 30.1018 13.4859 29.9027 13.5241 29.7092C13.5623 29.5157 13.6382 29.3317 13.7475 29.1675L17.08 24.1675C17.1893 24.0033 17.3299 23.8623 17.4937 23.7525C17.6576 23.6427 17.8414 23.5662 18.0348 23.5275C18.2282 23.4887 18.4273 23.4884 18.6208 23.5266C18.8143 23.5648 18.9983 23.6407 19.1625 23.75C19.3267 23.8593 19.4677 23.9999 19.5775 24.1637C19.6873 24.3276 19.7638 24.5114 19.8025 24.7048C19.8413 24.8982 19.8416 25.0973 19.8034 25.2908C19.7652 25.4843 19.6893 25.6683 19.58 25.8325H19.5812Z" fill="black"/>
</svg>
