<svg width="32" height="32" viewBox="0 0 32 32" fill="none" xmlns="http://www.w3.org/2000/svg">
<path d="M20.4999 9.50001C19.8269 9.5004 19.156 9.57629 18.4999 9.72626C18.4397 7.85062 17.7605 6.04763 16.5682 4.59847C15.3759 3.14931 13.7376 2.13545 11.9087 1.71501C11.8261 1.69609 11.74 1.69848 11.6586 1.72196C11.5772 1.74543 11.503 1.78922 11.4432 1.84921C11.3833 1.9092 11.3397 1.98341 11.3164 2.06489C11.2931 2.14637 11.2909 2.23244 11.3099 2.31501C11.5957 3.55519 11.5614 4.84766 11.2104 6.07096C10.8593 7.29426 10.203 8.40822 9.30307 9.30814C8.40315 10.2081 7.2892 10.8644 6.0659 11.2154C4.8426 11.5665 3.55012 11.6008 2.30994 11.315C2.22724 11.2958 2.14103 11.298 2.05942 11.3214C1.97781 11.3448 1.90349 11.3885 1.84347 11.4485C1.78344 11.5086 1.73969 11.5829 1.71633 11.6645C1.69297 11.7461 1.69077 11.8323 1.70994 11.915C1.98666 13.102 2.51468 14.2158 3.25839 15.1814C4.0021 16.147 4.94421 16.9419 6.02119 17.5125C5.25263 18.3766 4.75018 19.4444 4.57428 20.5874C4.39839 21.7304 4.55655 22.8999 5.02974 23.9551C5.50293 25.0103 6.27098 25.9062 7.24146 26.5352C8.21194 27.1641 9.3435 27.4991 10.4999 27.5H20.4999C22.8869 27.5 25.1761 26.5518 26.8639 24.864C28.5517 23.1761 29.4999 20.887 29.4999 18.5C29.4999 16.1131 28.5517 13.8239 26.8639 12.136C25.1761 10.4482 22.8869 9.50001 20.4999 9.50001ZM2.90244 12.43C3.26643 12.4765 3.63299 12.4999 3.99994 12.5C6.25357 12.4977 8.41423 11.6014 10.0078 10.0079C11.6013 8.4143 12.4976 6.25363 12.4999 4.00001C12.4998 3.63265 12.4764 3.26566 12.4299 2.90126C13.9132 3.4025 15.2012 4.35788 16.1111 5.632C17.0211 6.90611 17.507 8.43431 17.4999 10V10.0138C16.2033 10.4717 15.0284 11.2196 14.0646 12.2005C13.1009 13.1813 12.3737 14.3693 11.9387 15.6738C11.4678 15.5583 10.9848 15.4999 10.4999 15.5C9.15704 15.499 7.85304 15.9508 6.79869 16.7825C5.89195 16.3533 5.08016 15.7472 4.41105 14.9997C3.74195 14.2522 3.22902 13.3786 2.90244 12.43ZM20.4999 26.5H10.4999C9.79356 26.4995 9.09531 26.3493 8.4512 26.0593C7.80708 25.7693 7.23172 25.3461 6.76302 24.8176C6.29432 24.2892 5.94292 23.6674 5.73196 22.9932C5.52101 22.3191 5.45529 21.6079 5.53914 20.9065C5.62299 20.2051 5.8545 19.5294 6.21843 18.924C6.58235 18.3186 7.07043 17.7972 7.6505 17.3941C8.23057 16.991 8.88947 16.7154 9.58379 16.5854C10.2781 16.4554 10.9921 16.474 11.6787 16.64C11.5859 17.0787 11.5261 17.5237 11.4999 17.9713C11.4923 18.1039 11.5377 18.2341 11.6261 18.3332C11.7144 18.4324 11.8386 18.4924 11.9712 18.5C12.1038 18.5076 12.234 18.4623 12.3332 18.3739C12.4323 18.2855 12.4923 18.1614 12.4999 18.0288C12.5303 17.4938 12.614 16.9633 12.7499 16.445C12.7499 16.43 12.7587 16.415 12.7612 16.4C13.1514 14.9586 13.9369 13.655 15.029 12.6366C16.121 11.6181 17.4761 10.9252 18.9412 10.6363C20.4063 10.3474 21.9229 10.4739 23.3199 11.0016C24.7168 11.5292 25.9384 12.437 26.8466 13.6223C27.7549 14.8077 28.3135 16.2233 28.4596 17.7095C28.6056 19.1956 28.3332 20.693 27.673 22.0324C27.0129 23.3718 25.9913 24.5 24.7238 25.2895C23.4563 26.0789 21.9932 26.4982 20.4999 26.5Z" fill="black"/>
</svg>
