<svg width="32" height="32" viewBox="0 0 32 32" fill="none" xmlns="http://www.w3.org/2000/svg">
<path d="M20.5001 8.5C20.2926 8.5 20.0864 8.5075 19.8814 8.52C19.5876 6.64778 18.7401 4.90636 17.448 3.52001C16.1559 2.13366 14.4783 1.16586 12.6314 0.741252C12.3838 0.684673 12.1259 0.691878 11.8819 0.762192C11.6378 0.832505 11.4157 0.963624 11.2361 1.14326C11.0566 1.3229 10.9257 1.54517 10.8555 1.78925C10.7854 2.03333 10.7784 2.29122 10.8351 2.53875C11.0816 3.61303 11.0511 4.73233 10.7466 5.79161C10.442 6.85089 9.87332 7.81544 9.09389 8.59475C8.31445 9.37406 7.34981 9.94258 6.29048 10.247C5.23115 10.5514 4.11185 10.5817 3.03761 10.335C2.78991 10.2783 2.53188 10.2855 2.28772 10.3559C2.04356 10.4263 1.82128 10.5575 1.64173 10.7373C1.46218 10.9171 1.33125 11.1396 1.26122 11.3838C1.19119 11.6281 1.18435 11.8861 1.24136 12.1338C1.74542 14.2852 2.978 16.1961 4.73011 17.5425C4.00967 18.5936 3.58982 19.8214 3.51584 21.0936C3.44186 22.3658 3.71654 23.634 4.31028 24.7615C4.90402 25.889 5.79428 26.8331 6.88507 27.4919C7.97587 28.1507 9.2258 28.4993 10.5001 28.5H20.5001C23.1523 28.5 25.6958 27.4464 27.5712 25.5711C29.4465 23.6957 30.5001 21.1522 30.5001 18.5C30.5001 15.8478 29.4465 13.3043 27.5712 11.4289C25.6958 9.55357 23.1523 8.5 20.5001 8.5ZM13.9864 4.5C14.792 5.00811 15.4752 5.6882 15.9869 6.4915C16.4987 7.29479 16.8263 8.20139 16.9464 9.14625C15.6927 9.62291 14.5471 10.3457 13.5772 11.2721C12.6073 12.1984 11.8326 13.3096 11.2989 14.54C11.0336 14.5116 10.7669 14.4982 10.5001 14.5C9.25956 14.499 8.04128 14.8296 6.97136 15.4575C6.18749 14.9467 5.52145 14.2747 5.01761 13.4863C7.35669 13.3555 9.56527 12.3662 11.2202 10.708C12.8752 9.04984 13.8601 6.83934 13.9864 4.5ZM20.5001 25.5H10.5001C9.43924 25.5 8.42183 25.0786 7.67168 24.3284C6.92154 23.5783 6.50011 22.5609 6.50011 21.5C6.50011 20.4391 6.92154 19.4217 7.67168 18.6716C8.42183 17.9214 9.43924 17.5 10.5001 17.5H10.5351C10.5214 17.6375 10.5101 17.775 10.5026 17.9125C10.4794 18.3103 10.6152 18.7011 10.8801 18.9988C11.145 19.2965 11.5173 19.4768 11.9151 19.5C12.3129 19.5232 12.7037 19.3874 13.0014 19.1225C13.2991 18.8576 13.4794 18.4853 13.5026 18.0875C13.5291 17.6231 13.6019 17.1624 13.7201 16.7125L13.7389 16.6438C14.0835 15.3837 14.7735 14.2451 15.7309 13.3565C16.6883 12.4678 17.8751 11.8644 19.1572 11.6145C20.4394 11.3645 21.7659 11.4779 22.987 11.9419C24.2081 12.4059 25.2753 13.2019 26.0679 14.2402C26.8606 15.2785 27.3473 16.5177 27.473 17.818C27.5988 19.1182 27.3586 20.4277 26.7796 21.5986C26.2006 22.7696 25.3057 23.7554 24.1962 24.4448C23.0866 25.1341 21.8064 25.4996 20.5001 25.5Z" fill="black"/>
</svg>
