<svg width="32" height="32" viewBox="0 0 32 32" fill="none" xmlns="http://www.w3.org/2000/svg">
<path d="M19.5 1.5C17.5438 1.50029 15.6305 2.07273 13.9956 3.14682C12.3607 4.22091 11.0757 5.74974 10.2987 7.545C10.0336 7.51499 9.76688 7.49997 9.5 7.5C7.64348 7.5 5.86301 8.2375 4.55025 9.55025C3.2375 10.863 2.5 12.6435 2.5 14.5C2.5 16.3565 3.2375 18.137 4.55025 19.4497C5.86301 20.7625 7.64348 21.5 9.5 21.5H13.3512L11.7137 24.2275C11.577 24.4551 11.5031 24.715 11.4997 24.9805C11.4962 25.2461 11.5633 25.5078 11.6941 25.7389C11.8249 25.97 12.0148 26.1622 12.2442 26.2959C12.4736 26.4297 12.7344 26.5001 13 26.5H15.3512L13.7137 29.2275C13.509 29.5686 13.4482 29.9771 13.5447 30.3631C13.6412 30.7491 13.887 31.0809 14.2281 31.2856C14.5693 31.4903 14.9777 31.5512 15.3637 31.4547C15.7497 31.3582 16.0815 31.1124 16.2862 30.7712L19.2862 25.7712C19.4227 25.5436 19.4963 25.2839 19.4996 25.0186C19.5029 24.7532 19.4357 24.4917 19.3049 24.2608C19.1742 24.0299 18.9845 23.8378 18.7552 23.7042C18.526 23.5705 18.2654 23.5 18 23.5H15.6488L16.8487 21.5H19.5C22.1522 21.5 24.6957 20.4464 26.5711 18.5711C28.4464 16.6957 29.5 14.1522 29.5 11.5C29.5 8.84784 28.4464 6.3043 26.5711 4.42893C24.6957 2.55357 22.1522 1.5 19.5 1.5ZM19.5 18.5H9.5C8.43913 18.5 7.42172 18.0786 6.67157 17.3284C5.92143 16.5783 5.5 15.5609 5.5 14.5C5.5 13.4391 5.92143 12.4217 6.67157 11.6716C7.42172 10.9214 8.43913 10.5 9.5 10.5H9.535C9.52125 10.6375 9.51 10.775 9.5025 10.9125C9.47946 11.3103 9.6154 11.701 9.88041 11.9986C10.1454 12.2962 10.5178 12.4763 10.9156 12.4994C11.3134 12.5224 11.7041 12.3865 12.0017 12.1215C12.2993 11.8565 12.4795 11.4841 12.5025 11.0863C12.5818 9.71998 13.0595 8.40685 13.8766 7.30893C14.6936 6.21102 15.8143 5.37639 17.1002 4.90807C18.3862 4.43974 19.7811 4.35822 21.1129 4.67356C22.4446 4.9889 23.6549 5.68731 24.5943 6.68258C25.5336 7.67784 26.161 8.92639 26.399 10.2741C26.6369 11.6218 26.475 13.0098 25.9333 14.2665C25.3915 15.5233 24.4936 16.5939 23.3503 17.3462C22.2071 18.0986 20.8686 18.4997 19.5 18.5Z" fill="black"/>
</svg>
