<svg width="32" height="32" viewBox="0 0 32 32" fill="none" xmlns="http://www.w3.org/2000/svg">
<path d="M23.3487 10.5075C23.5709 9.41787 23.5481 8.29249 23.2818 7.21282C23.0155 6.13314 22.5124 5.1262 21.809 4.26489C21.1056 3.40358 20.2195 2.70947 19.2148 2.2328C18.2101 1.75613 17.112 1.50885 16 1.50885C14.888 1.50885 13.7898 1.75613 12.7852 2.2328C11.7805 2.70947 10.8943 3.40358 10.191 4.26489C9.48757 5.1262 8.98451 6.13314 8.71821 7.21282C8.45191 8.29249 8.42903 9.41787 8.65124 10.5075C7.59707 10.5585 6.56555 10.8315 5.62411 11.3085C4.68267 11.7856 3.85251 12.4559 3.1879 13.2758C2.52329 14.0956 2.03919 15.0465 1.76726 16.0663C1.49533 17.086 1.44169 18.1517 1.60984 19.1936C1.77799 20.2355 2.16415 21.2302 2.74307 22.1127C3.322 22.9951 4.08064 23.7455 4.96942 24.3146C5.8582 24.8838 6.85709 25.259 7.9008 25.4156C8.94451 25.5723 10.0095 25.5069 11.0262 25.2237L10.5262 27.7062C10.4827 27.924 10.4882 28.1488 10.5421 28.3643C10.5961 28.5798 10.6972 28.7806 10.8382 28.9522C10.9792 29.1238 11.1566 29.262 11.3575 29.3567C11.5584 29.4515 11.7779 29.5004 12 29.5H20C20.2219 29.5 20.4411 29.4508 20.6417 29.3559C20.8423 29.261 21.0193 29.1228 21.1601 28.9512C21.3008 28.7797 21.4017 28.579 21.4555 28.3637C21.5093 28.1484 21.5147 27.9238 21.4712 27.7062L20.9712 25.2237C21.9879 25.5069 23.053 25.5723 24.0967 25.4156C25.1404 25.259 26.1393 24.8838 27.0281 24.3146C27.9168 23.7455 28.6755 22.9951 29.2544 22.1127C29.8333 21.2302 30.2195 20.2355 30.3876 19.1936C30.5558 18.1517 30.5021 17.086 30.2302 16.0663C29.9583 15.0465 29.4742 14.0956 28.8096 13.2758C28.145 12.4559 27.3148 11.7856 26.3734 11.3085C25.4319 10.8315 24.4004 10.5585 23.3462 10.5075H23.3487ZM23 22.5C21.8471 22.5017 20.7379 22.0594 19.9025 21.265C19.6712 21.0471 19.3766 20.9083 19.0613 20.8687C18.746 20.829 18.4263 20.8905 18.1482 21.0443C17.8701 21.1981 17.648 21.4362 17.514 21.7243C17.38 22.0125 17.3409 22.3357 17.4025 22.6475L18.17 26.5H13.83L14.6 22.6475C14.6615 22.3357 14.6225 22.0125 14.4885 21.7243C14.3544 21.4362 14.1324 21.1981 13.8543 21.0443C13.5762 20.8905 13.2565 20.829 12.9412 20.8687C12.6259 20.9083 12.3313 21.0471 12.1 21.265C11.5194 21.8162 10.8022 22.2026 10.0224 22.3842C9.24268 22.5658 8.42859 22.5361 7.66414 22.2982C6.8997 22.0602 6.21258 21.6226 5.67367 21.0305C5.13477 20.4384 4.76358 19.7133 4.59842 18.9299C4.43325 18.1465 4.48008 17.3332 4.73407 16.5739C4.98807 15.8146 5.44003 15.1369 6.04334 14.6106C6.64665 14.0842 7.37945 13.7284 8.16616 13.5798C8.95287 13.4311 9.76498 13.4951 10.5187 13.765C10.8162 13.8715 11.1398 13.8814 11.4433 13.7932C11.7467 13.705 12.0146 13.5232 12.2086 13.2737C12.4026 13.0243 12.5129 12.7199 12.5237 12.4041C12.5345 12.0883 12.4453 11.7771 12.2687 11.515C11.7655 10.773 11.4976 9.89652 11.5 8.99997C11.5 8.29679 11.6648 7.6034 11.9812 6.97541C12.2975 6.34742 12.7567 5.80231 13.3218 5.38381C13.8868 4.9653 14.5421 4.68505 15.2351 4.56552C15.928 4.446 16.6393 4.49053 17.312 4.69554C17.9846 4.90056 18.5998 5.26035 19.1083 5.74607C19.6168 6.23178 20.0044 6.8299 20.2399 7.49244C20.4755 8.15499 20.5525 8.86352 20.4649 9.56121C20.3772 10.2589 20.1272 10.9263 19.735 11.51C19.5585 11.7721 19.4692 12.0833 19.48 12.3991C19.4909 12.7149 19.6011 13.0193 19.7951 13.2687C19.9892 13.5182 20.257 13.7 20.5605 13.7882C20.8639 13.8764 21.1875 13.8665 21.485 13.76C22.1025 13.5404 22.7605 13.4584 23.413 13.5197C24.0655 13.5809 24.6967 13.784 25.2626 14.1146C25.8285 14.4452 26.3153 14.8954 26.689 15.4338C27.0627 15.9722 27.3144 16.5857 27.4263 17.2314C27.5382 17.8771 27.5078 18.5395 27.337 19.1723C27.1663 19.805 26.8594 20.3928 26.4379 20.8946C26.0163 21.3964 25.4902 21.8001 24.8964 22.0773C24.3026 22.3546 23.6554 22.4989 23 22.5Z" fill="black"/>
</svg>
