<svg width="32" height="32" viewBox="0 0 32 32" fill="none" xmlns="http://www.w3.org/2000/svg">
<path d="M30.5 21L18.5 12L20.9 10.2C21.0863 10.0603 21.2375 9.87913 21.3416 9.67085C21.4458 9.46257 21.5 9.2329 21.5 9.00003C21.5007 7.6003 20.9676 6.25298 20.0095 5.23258C19.0513 4.21218 17.7402 3.59549 16.3432 3.50816C14.9462 3.42083 13.5684 3.86942 12.4906 4.76254C11.4129 5.65567 10.7162 6.92611 10.5425 8.31503C10.5179 8.51054 10.532 8.70898 10.5841 8.89902C10.6361 9.08907 10.7251 9.267 10.846 9.42265C10.9668 9.57831 11.1171 9.70864 11.2883 9.8062C11.4595 9.90377 11.6482 9.96666 11.8438 9.99128C12.0393 10.0159 12.2377 10.0018 12.4277 9.94971C12.6178 9.89764 12.7957 9.80865 12.9514 9.68782C13.107 9.56699 13.2374 9.41668 13.3349 9.24548C13.4325 9.07428 13.4954 8.88554 13.52 8.69003C13.5924 8.11798 13.8603 7.58854 14.2784 7.19141C14.6965 6.79428 15.239 6.55388 15.814 6.51092C16.389 6.46797 16.9612 6.62511 17.4336 6.95572C17.906 7.28633 18.2497 7.77008 18.4062 8.32503L15.125 10.78C15.1062 10.7925 15.0887 10.8063 15.0712 10.82L1.5 21C1.08024 21.3149 0.770167 21.7538 0.613716 22.2546C0.457266 22.7555 0.462365 23.2928 0.628292 23.7906C0.794218 24.2884 1.11256 24.7213 1.53822 25.0281C1.96389 25.3349 2.47529 25.5 3 25.5H29C29.5247 25.5 30.0361 25.3349 30.4618 25.0281C30.8874 24.7213 31.2058 24.2884 31.3717 23.7906C31.5376 23.2928 31.5427 22.7555 31.3863 22.2546C31.2298 21.7538 30.9198 21.3149 30.5 21ZM4.5 22.5L16 13.875L27.5 22.5H4.5Z" fill="black"/>
</svg>
