<svg width="32" height="32" viewBox="0 0 32 32" fill="none" xmlns="http://www.w3.org/2000/svg">
<path d="M12 9.12501L4.25753 16L12 22.875C12.2984 23.1402 12.4792 23.5131 12.5026 23.9116C12.5261 24.3101 12.3902 24.7016 12.125 25C11.8598 25.2984 11.4869 25.4792 11.0884 25.5026C10.6899 25.5261 10.2984 25.3902 10 25.125L1.00003 17.125C0.840421 16.9843 0.71259 16.8111 0.625031 16.6172C0.537471 16.4232 0.492187 16.2128 0.492188 16C0.492187 15.7872 0.537471 15.5768 0.625031 15.3829C0.71259 15.1889 0.840421 15.0158 1.00003 14.875L10 6.87501C10.2984 6.6098 10.6899 6.47397 11.0884 6.49741C11.4869 6.52085 11.8598 6.70165 12.125 7.00001C12.3902 7.29838 12.5261 7.68989 12.5026 8.0884C12.4792 8.48692 12.2984 8.8598 12 9.12501ZM31 14.875L22 6.87501C21.8523 6.74369 21.6801 6.64275 21.4934 6.57797C21.3066 6.51318 21.109 6.4858 20.9116 6.49741C20.7143 6.50902 20.5212 6.55938 20.3433 6.64562C20.1655 6.73185 20.0064 6.85228 19.875 7.00001C19.7437 7.14775 19.6428 7.31991 19.578 7.50665C19.5132 7.6934 19.4858 7.89108 19.4974 8.0884C19.509 8.28573 19.5594 8.47883 19.6456 8.65669C19.7319 8.83456 19.8523 8.99369 20 9.12501L27.7388 16L20 22.875C19.8523 23.0063 19.7319 23.1655 19.6456 23.3433C19.5594 23.5212 19.509 23.7143 19.4974 23.9116C19.4858 24.1089 19.5132 24.3066 19.578 24.4934C19.6428 24.6801 19.7437 24.8523 19.875 25C20.0064 25.1478 20.1655 25.2682 20.3433 25.3544C20.5212 25.4406 20.7143 25.491 20.9116 25.5026C21.109 25.5142 21.3066 25.4869 21.4934 25.4221C21.6801 25.3573 21.8523 25.2563 22 25.125L31 17.125C31.1596 16.9843 31.2875 16.8111 31.375 16.6172C31.4626 16.4232 31.5079 16.2128 31.5079 16C31.5079 15.7872 31.4626 15.5768 31.375 15.3829C31.2875 15.1889 31.1596 15.0158 31 14.875Z" fill="black"/>
</svg>
