<svg width="32" height="32" viewBox="0 0 32 32" fill="none" xmlns="http://www.w3.org/2000/svg">
<path d="M29.71 10.6787L16.71 3.67874C16.4914 3.56101 16.247 3.49939 15.9988 3.49939C15.7505 3.49939 15.5061 3.56101 15.2875 3.67874L2.2875 10.6787C2.04919 10.8074 1.85016 10.9981 1.71151 11.2307C1.57286 11.4634 1.49977 11.7292 1.5 12V20C1.50001 20.271 1.57348 20.537 1.71258 20.7697C1.85168 21.0023 2.05123 21.1929 2.29 21.3212L15.29 28.3212C15.5086 28.439 15.753 28.5006 16.0013 28.5006C16.2495 28.5006 16.4939 28.439 16.7125 28.3212L29.7125 21.3212C29.9508 21.1926 30.1498 21.0019 30.2885 20.7692C30.4271 20.5366 30.5002 20.2708 30.5 20V12C30.5 11.7289 30.4265 11.4629 30.2874 11.2303C30.1483 10.9976 29.9488 10.807 29.71 10.6787ZM27.5 17.4887L24.735 16L27.5 14.5112V17.4887ZM21.5713 14.2962L17.5 12.1037V7.51124L25.8363 12L21.5713 14.2962ZM16 17.2962L13.5925 16L16 14.7037L18.4075 16L16 17.2962ZM14.5 7.51124V12.1037L10.4288 14.2962L6.16375 12L14.5 7.51124ZM4.5 14.5112L7.265 16L4.5 17.4887V14.5112ZM10.4288 17.7037L14.5 19.8962V24.4887L6.16375 20L10.4288 17.7037ZM17.5 24.4887V19.8962L21.5713 17.7037L25.8363 20L17.5 24.4887Z" fill="black"/>
</svg>
