<svg width="32" height="32" viewBox="0 0 32 32" fill="none" xmlns="http://www.w3.org/2000/svg">
<path d="M8.95992 12.1525L4.34243 16L8.95992 19.8475C9.11306 19.973 9.23984 20.1276 9.33294 20.3023C9.42605 20.4771 9.48364 20.6685 9.50239 20.8656C9.52115 21.0627 9.5007 21.2616 9.44222 21.4507C9.38374 21.6399 9.28839 21.8156 9.16167 21.9677C9.03496 22.1199 8.87937 22.2454 8.7039 22.3371C8.52843 22.4288 8.33653 22.4849 8.13929 22.502C7.94204 22.5192 7.74335 22.4972 7.55466 22.4372C7.36598 22.3772 7.19104 22.2804 7.03993 22.1525L1.03993 17.1525C0.870939 17.0117 0.734977 16.8355 0.641672 16.6364C0.548366 16.4372 0.5 16.22 0.5 16C0.5 15.7801 0.548366 15.5628 0.641672 15.3637C0.734977 15.1645 0.870939 14.9883 1.03993 14.8475L7.03993 9.84752C7.34602 9.59667 7.73884 9.47695 8.1328 9.51444C8.52677 9.55193 8.88996 9.74359 9.14325 10.0477C9.39654 10.3517 9.51939 10.7436 9.48506 11.1378C9.45072 11.5321 9.26197 11.8968 8.95992 12.1525ZM30.9599 14.8475L24.9599 9.84752C24.8088 9.71959 24.6339 9.62284 24.4452 9.56285C24.2565 9.50286 24.0578 9.48082 23.8606 9.498C23.6633 9.51518 23.4714 9.57124 23.296 9.66294C23.1205 9.75465 22.9649 9.88019 22.8382 10.0323C22.7115 10.1844 22.6161 10.3602 22.5576 10.5493C22.4992 10.7385 22.4787 10.9373 22.4975 11.1344C22.5162 11.3315 22.5738 11.523 22.6669 11.6977C22.76 11.8724 22.8868 12.027 23.0399 12.1525L27.6574 16L23.0399 19.8475C22.8868 19.973 22.76 20.1276 22.6669 20.3023C22.5738 20.4771 22.5162 20.6685 22.4975 20.8656C22.4787 21.0627 22.4992 21.2616 22.5576 21.4507C22.6161 21.6399 22.7115 21.8156 22.8382 21.9677C22.9649 22.1199 23.1205 22.2454 23.296 22.3371C23.4714 22.4288 23.6633 22.4849 23.8606 22.502C24.0578 22.5192 24.2565 22.4972 24.4452 22.4372C24.6339 22.3772 24.8088 22.2804 24.9599 22.1525L30.9599 17.1525C31.1289 17.0117 31.2649 16.8355 31.3582 16.6364C31.4515 16.4372 31.4999 16.22 31.4999 16C31.4999 15.7801 31.4515 15.5628 31.3582 15.3637C31.2649 15.1645 31.1289 14.9883 30.9599 14.8475ZM20.5124 3.59002C20.3273 3.52268 20.1307 3.49248 19.9338 3.50115C19.737 3.50981 19.5438 3.55717 19.3653 3.64051C19.1867 3.72386 19.0264 3.84155 18.8933 3.98689C18.7603 4.13222 18.6572 4.30233 18.5899 4.48752L10.5899 26.4875C10.4543 26.8613 10.4727 27.2737 10.641 27.6339C10.8093 27.9942 11.1137 28.2729 11.4874 28.4088C11.6515 28.4694 11.825 28.5003 11.9999 28.5C12.3079 28.5001 12.6084 28.4053 12.8607 28.2287C13.1129 28.052 13.3047 27.802 13.4099 27.5125L21.4099 5.51252C21.4773 5.32736 21.5075 5.13074 21.4988 4.93391C21.4901 4.73707 21.4428 4.54387 21.3594 4.36535C21.2761 4.18682 21.1584 4.02646 21.0131 3.89342C20.8677 3.76039 20.6976 3.65729 20.5124 3.59002Z" fill="black"/>
</svg>
