<svg width="32" height="32" viewBox="0 0 32 32" fill="none" xmlns="http://www.w3.org/2000/svg">
<path d="M11.3324 8.37502L2.74989 16L11.3299 23.625C11.4293 23.7132 11.4897 23.8373 11.4977 23.97C11.5056 24.1027 11.4606 24.2331 11.3724 24.3325C11.2842 24.432 11.1601 24.4923 11.0274 24.5003C10.8948 24.5083 10.7643 24.4632 10.6649 24.375L1.66489 16.375C1.61168 16.3281 1.56907 16.2704 1.53989 16.2057C1.5107 16.1411 1.49561 16.071 1.49561 16C1.49561 15.9291 1.5107 15.859 1.53989 15.7943C1.56907 15.7296 1.61168 15.6719 1.66489 15.625L10.6649 7.62502C10.7141 7.58136 10.7715 7.54782 10.8337 7.52632C10.8959 7.50483 10.9617 7.4958 11.0274 7.49974C11.0931 7.50369 11.1574 7.52054 11.2166 7.54932C11.2758 7.57811 11.3287 7.61828 11.3724 7.66752C11.4161 7.71677 11.4496 7.77413 11.4711 7.83634C11.4926 7.89854 11.5016 7.96438 11.4977 8.03007C11.4937 8.09577 11.4769 8.16005 11.4481 8.21923C11.4193 8.27842 11.3791 8.33136 11.3299 8.37502H11.3324ZM30.3324 15.625L21.3324 7.62502C21.2329 7.53684 21.1025 7.49177 20.9698 7.49974C20.8372 7.50771 20.7131 7.56806 20.6249 7.66752C20.5367 7.76698 20.4916 7.89739 20.4996 8.03007C20.5076 8.16276 20.5679 8.28684 20.6674 8.37502L29.2499 16L20.6699 23.625C20.5704 23.7132 20.5101 23.8373 20.5021 23.97C20.4941 24.1027 20.5392 24.2331 20.6274 24.3325C20.7156 24.432 20.8397 24.4923 20.9723 24.5003C21.105 24.5083 21.2354 24.4632 21.3349 24.375L30.3349 16.375C30.3881 16.3281 30.4307 16.2704 30.4599 16.2057C30.4891 16.1411 30.5042 16.071 30.5042 16C30.5042 15.9291 30.4891 15.859 30.4599 15.7943C30.4307 15.7296 30.3881 15.6719 30.3349 15.625H30.3324Z" fill="black"/>
</svg>
