<svg width="32" height="32" viewBox="0 0 32 32" fill="none" xmlns="http://www.w3.org/2000/svg">
<path d="M8.31996 11.3837L2.78121 16L8.31996 20.6162C8.39876 20.682 8.45538 20.7705 8.48215 20.8696C8.50891 20.9687 8.50452 21.0737 8.46957 21.1702C8.43462 21.2667 8.3708 21.3502 8.28678 21.4092C8.20277 21.4682 8.10263 21.4999 7.99996 21.5C7.88287 21.5005 7.76942 21.4593 7.67996 21.3837L1.67996 16.3837C1.62378 16.3368 1.57859 16.2781 1.54757 16.2118C1.51656 16.1455 1.50049 16.0732 1.50049 16C1.50049 15.9268 1.51656 15.8545 1.54757 15.7882C1.57859 15.7219 1.62378 15.6632 1.67996 15.6162L7.67996 10.6162C7.78234 10.537 7.91145 10.5006 8.04012 10.5147C8.16879 10.5287 8.287 10.5921 8.36989 10.6915C8.45279 10.7909 8.4939 10.9186 8.48459 11.0477C8.47528 11.1768 8.41627 11.2973 8.31996 11.3837ZM30.32 15.6162L24.32 10.6162C24.27 10.5713 24.2114 10.537 24.1478 10.5152C24.0843 10.4934 24.0169 10.4847 23.9499 10.4895C23.8829 10.4944 23.8175 10.5127 23.7577 10.5433C23.6979 10.574 23.6449 10.6164 23.6019 10.668C23.5588 10.7196 23.5266 10.7794 23.5072 10.8437C23.4878 10.9081 23.4815 10.9757 23.4888 11.0425C23.4961 11.1093 23.5168 11.1739 23.5496 11.2326C23.5825 11.2912 23.6268 11.3426 23.68 11.3837L29.2187 16L23.68 20.6162C23.6268 20.6574 23.5825 20.7088 23.5496 20.7674C23.5168 20.826 23.4961 20.8907 23.4888 20.9575C23.4815 21.0243 23.4878 21.0919 23.5072 21.1562C23.5266 21.2206 23.5588 21.2803 23.6019 21.3319C23.6449 21.3836 23.6979 21.426 23.7577 21.4566C23.8175 21.4873 23.8829 21.5056 23.9499 21.5104C24.0169 21.5153 24.0843 21.5065 24.1478 21.4848C24.2114 21.463 24.27 21.4286 24.32 21.3837L30.32 16.3837C30.3761 16.3368 30.4213 16.2781 30.4524 16.2118C30.4834 16.1455 30.4994 16.0732 30.4994 16C30.4994 15.9268 30.4834 15.8545 30.4524 15.7882C30.4213 15.7219 30.3761 15.6632 30.32 15.6162ZM20.1712 4.52999C20.1095 4.50747 20.0439 4.49733 19.9783 4.50016C19.9127 4.50299 19.8482 4.51872 19.7887 4.54647C19.7291 4.57421 19.6756 4.61342 19.6312 4.66186C19.5868 4.71029 19.5524 4.767 19.53 4.82874L11.53 26.8287C11.5074 26.8905 11.4973 26.956 11.5001 27.0216C11.503 27.0873 11.5187 27.1517 11.5464 27.2113C11.5742 27.2708 11.6134 27.3243 11.6618 27.3687C11.7103 27.4131 11.767 27.4475 11.8287 27.47C11.8837 27.4896 11.9416 27.4998 12 27.5C12.1026 27.5 12.2027 27.4685 12.2868 27.4097C12.3709 27.3509 12.4348 27.2676 12.47 27.1712L20.47 5.17124C20.4925 5.10952 20.5026 5.04396 20.4998 4.97833C20.497 4.91269 20.4812 4.84825 20.4535 4.7887C20.4257 4.72914 20.3865 4.67564 20.3381 4.63125C20.2897 4.58686 20.233 4.55245 20.1712 4.52999Z" fill="black"/>
</svg>
