<svg width="32" height="32" viewBox="0 0 32 32" fill="none" xmlns="http://www.w3.org/2000/svg">
<path d="M6.43874 13.0613L2.43874 9.06126C2.2989 8.9219 2.18795 8.75631 2.11224 8.57398C2.03653 8.39166 1.99756 8.19618 1.99756 7.99876C1.99756 7.80134 2.03653 7.60586 2.11224 7.42353C2.18795 7.2412 2.2989 7.07561 2.43874 6.93626L6.43874 2.93626C6.57827 2.79673 6.74392 2.68605 6.92622 2.61053C7.10852 2.53502 7.30392 2.49615 7.50124 2.49615C7.69857 2.49615 7.89396 2.53502 8.07626 2.61053C8.25857 2.68605 8.42421 2.79673 8.56374 2.93626C8.70327 3.07579 8.81395 3.24143 8.88946 3.42374C8.96498 3.60604 9.00384 3.80143 9.00384 3.99876C9.00384 4.19608 8.96498 4.39147 8.88946 4.57378C8.81395 4.75608 8.70327 4.92173 8.56374 5.06126L5.62499 8.00001L8.56124 10.9388C8.84303 11.2205 9.00134 11.6027 9.00134 12.0013C9.00134 12.3998 8.84303 12.782 8.56124 13.0638C8.27945 13.3455 7.89726 13.5039 7.49874 13.5039C7.10023 13.5039 6.71803 13.3455 6.43624 13.0638L6.43874 13.0613ZM12.4387 13.0613C12.5781 13.2011 12.7437 13.3121 12.926 13.3878C13.1083 13.4635 13.3038 13.5024 13.5012 13.5024C13.6987 13.5024 13.8941 13.4635 14.0765 13.3878C14.2588 13.3121 14.4244 13.2011 14.5637 13.0613L18.5637 9.06126C18.7036 8.9219 18.8145 8.75631 18.8902 8.57398C18.966 8.39166 19.0049 8.19618 19.0049 7.99876C19.0049 7.80134 18.966 7.60586 18.8902 7.42353C18.8145 7.2412 18.7036 7.07561 18.5637 6.93626L14.5637 2.93626C14.2819 2.65446 13.8998 2.49615 13.5012 2.49615C13.1027 2.49615 12.7205 2.65446 12.4387 2.93626C12.1569 3.21805 11.9986 3.60024 11.9986 3.99876C11.9986 4.39727 12.1569 4.77946 12.4387 5.06126L15.375 8.00001L12.4387 10.9388C12.2993 11.0781 12.1886 11.2435 12.1132 11.4256C12.0377 11.6077 11.9988 11.8029 11.9988 12C11.9988 12.1971 12.0377 12.3923 12.1132 12.5744C12.1886 12.7565 12.2993 12.9219 12.4387 13.0613ZM25 4.50001H22.5C22.1022 4.50001 21.7206 4.65804 21.4393 4.93935C21.158 5.22065 21 5.60218 21 6.00001C21 6.39783 21.158 6.77936 21.4393 7.06067C21.7206 7.34197 22.1022 7.50001 22.5 7.50001H24.5V24.5H7.49999V17.5C7.49999 17.1022 7.34196 16.7207 7.06065 16.4393C6.77935 16.158 6.39782 16 5.99999 16C5.60217 16 5.22064 16.158 4.93933 16.4393C4.65803 16.7207 4.49999 17.1022 4.49999 17.5V25C4.49999 25.663 4.76338 26.2989 5.23222 26.7678C5.70107 27.2366 6.33695 27.5 6.99999 27.5H25C25.663 27.5 26.2989 27.2366 26.7678 26.7678C27.2366 26.2989 27.5 25.663 27.5 25V7.00001C27.5 6.33697 27.2366 5.70108 26.7678 5.23224C26.2989 4.7634 25.663 4.50001 25 4.50001Z" fill="black"/>
</svg>
