<svg width="32" height="32" viewBox="0 0 32 32" fill="none" xmlns="http://www.w3.org/2000/svg">
<path d="M28.2 7.83128L17.2 1.80878C16.8324 1.60646 16.4196 1.50037 16 1.50037C15.5804 1.50037 15.1676 1.60646 14.8 1.80878L3.8 7.83003C3.4064 8.04539 3.078 8.36271 2.84927 8.74869C2.62054 9.13468 2.4999 9.57511 2.5 10.0238V21.9763C2.4999 22.4249 2.62054 22.8654 2.84927 23.2514C3.078 23.6373 3.4064 23.9547 3.8 24.17L14.8 30.1913C15.1675 30.3938 15.5804 30.5 16 30.5C16.4196 30.5 16.8325 30.3938 17.2 30.1913L28.2 24.1688C28.5934 23.9535 28.9217 23.6364 29.1504 23.2506C29.3791 22.8649 29.4999 22.4247 29.5 21.9763V10.0238C29.4999 9.57532 29.3791 9.13515 29.1504 8.7494C28.9217 8.36366 28.5934 8.04654 28.2 7.83128ZM20.5 19V24.965L17.5 26.6075V16.8888L26.5 11.9613V14.8263L21.28 17.6838C21.0438 17.813 20.8468 18.0034 20.7096 18.235C20.5723 18.4666 20.4999 18.7308 20.5 19ZM10.72 17.6838L5.5 14.8263V11.9613L14.5 16.8888V26.6075L11.5 24.965V19C11.5001 18.7308 11.4277 18.4666 11.2904 18.235C11.1532 18.0034 10.9562 17.813 10.72 17.6838ZM10.3925 7.64128L15.28 10.3163C15.5006 10.4376 15.7482 10.5013 16 10.5013C16.2518 10.5013 16.4994 10.4376 16.72 10.3163L21.6075 7.64128L24.875 9.43128L16 14.29L7.125 9.43128L10.3925 7.64128ZM16 4.57128L18.4837 5.93128L16 7.29128L13.5162 5.93128L16 4.57128ZM5.5 18.25L8.5 19.8925V23.3263L5.5 21.68V18.25ZM23.5 23.3263V19.8888L26.5 18.25V21.6838L23.5 23.3263Z" fill="black"/>
</svg>
