<svg width="32" height="32" viewBox="0 0 32 32" fill="none" xmlns="http://www.w3.org/2000/svg">
<path opacity="0.08" d="M30 16L24 21H8L2 16L8 11H24L30 16Z" fill="black"/>
<path d="M8.64019 11.7687L3.56269 16L8.64019 20.2312C8.74399 20.3143 8.83018 20.4173 8.89372 20.5341C8.95725 20.6509 8.99685 20.7792 9.01019 20.9115C9.02354 21.0438 9.01037 21.1775 8.97144 21.3046C8.93252 21.4317 8.86863 21.5499 8.78352 21.652C8.6984 21.7542 8.59376 21.8383 8.47573 21.8996C8.35769 21.9608 8.22863 21.9979 8.0961 22.0086C7.96356 22.0194 7.83021 22.0036 7.70385 21.9622C7.57749 21.9208 7.46066 21.8546 7.36019 21.7675L1.36019 16.7675C1.2476 16.6736 1.15703 16.5562 1.09487 16.4234C1.03271 16.2907 1.00049 16.1459 1.00049 15.9993C1.00049 15.8528 1.03271 15.708 1.09487 15.5753C1.15703 15.4425 1.2476 15.3251 1.36019 15.2312L7.36019 10.2312C7.56407 10.0615 7.82704 9.97969 8.09123 10.0038C8.35542 10.028 8.5992 10.1561 8.76894 10.36C8.93868 10.5639 9.02047 10.8268 8.99633 11.091C8.97218 11.3552 8.84407 11.599 8.64019 11.7687ZM30.6402 15.2312L24.6402 10.2312C24.5392 10.1472 24.4227 10.0838 24.2973 10.0448C24.1719 10.0058 24.04 9.99188 23.9091 10.0038C23.7783 10.0158 23.6512 10.0534 23.5349 10.1145C23.4186 10.1756 23.3155 10.259 23.2314 10.36C23.0617 10.5639 22.9799 10.8268 23.0041 11.091C23.0282 11.3552 23.1563 11.599 23.3602 11.7687L28.4377 16L23.3602 20.2312C23.2564 20.3143 23.1702 20.4173 23.1067 20.5341C23.0431 20.6509 23.0035 20.7792 22.9902 20.9115C22.9768 21.0438 22.99 21.1775 23.0289 21.3046C23.0679 21.4317 23.1317 21.5499 23.2169 21.652C23.302 21.7542 23.4066 21.8383 23.5247 21.8996C23.6427 21.9608 23.7717 21.9979 23.9043 22.0086C24.0368 22.0194 24.1702 22.0036 24.2965 21.9622C24.4229 21.9208 24.5397 21.8546 24.6402 21.7675L30.6402 16.7675C30.7528 16.6736 30.8434 16.5562 30.9055 16.4234C30.9677 16.2907 30.9999 16.1459 30.9999 15.9993C30.9999 15.8528 30.9677 15.708 30.9055 15.5753C30.8434 15.4425 30.7528 15.3251 30.6402 15.2312ZM20.3414 4.05997C20.218 4.01515 20.0869 3.99509 19.9557 4.00093C19.8245 4.00676 19.6958 4.03838 19.5768 4.09398C19.4578 4.14958 19.351 4.22807 19.2623 4.32497C19.1737 4.42187 19.105 4.53528 19.0602 4.65872L11.0602 26.6587C11.0152 26.7822 10.995 26.9134 11.0007 27.0448C11.0064 27.1761 11.038 27.305 11.0936 27.4241C11.1492 27.5432 11.2278 27.6502 11.3248 27.739C11.4218 27.8277 11.5353 27.8964 11.6589 27.9412C11.7685 27.9802 11.8839 28 12.0002 28C12.2056 28 12.4059 27.9368 12.5741 27.8189C12.7423 27.701 12.8701 27.5343 12.9402 27.3412L20.9402 5.34122C20.985 5.21778 21.0051 5.08672 20.9992 4.95552C20.9934 4.82433 20.9618 4.69556 20.9062 4.57659C20.8506 4.45761 20.7721 4.35075 20.6752 4.26211C20.5783 4.17347 20.4649 4.10478 20.3414 4.05997Z" fill="black"/>
</svg>
