<svg width="32" height="32" viewBox="0 0 32 32" fill="none" xmlns="http://www.w3.org/2000/svg">
<path d="M23.5 10.7638V10.5C23.5 8.6725 22.1463 7.05625 19.6863 5.95C17.6088 5.015 14.875 4.5 12 4.5C9.125 4.5 6.39125 5.015 4.31375 5.95C1.85375 7.05625 0.5 8.6725 0.5 10.5V15.5C0.5 17.3275 1.85375 18.9437 4.31375 20.05C5.65058 20.6285 7.05829 21.027 8.5 21.235V21.5C8.5 23.3275 9.85375 24.9437 12.3138 26.05C14.3913 26.985 17.125 27.5 20 27.5C22.875 27.5 25.6088 26.985 27.6863 26.05C30.1463 24.9437 31.5 23.3275 31.5 21.5V16.5C31.5 13.7325 28.3387 11.51 23.5 10.7638ZM28.5 16.5C28.5 17.4688 25.7788 19.31 20.7738 19.485C22.5413 18.425 23.5 17.0375 23.5 15.5V13.805C26.735 14.3938 28.5 15.685 28.5 16.5ZM13.4213 18.4538C12.9675 18.4838 12.4937 18.5 12 18.5C11.365 18.5 10.7638 18.4725 10.1962 18.4237C10.149 18.4175 10.1014 18.4138 10.0538 18.4125C9.865 18.395 9.67875 18.375 9.5 18.3525V16.3662C10.3303 16.4555 11.1649 16.5001 12 16.5C12.8351 16.5001 13.6697 16.4555 14.5 16.3662V18.3525C14.1888 18.39 13.8663 18.4225 13.5312 18.4463C13.5 18.4475 13.4575 18.45 13.4213 18.4538ZM20.5 14.6425V15.5C20.5 16.0975 19.465 17.0262 17.5 17.6925V15.8175C18.2481 15.6212 18.9792 15.3649 19.6863 15.0513C19.9729 14.9221 20.2442 14.7858 20.5 14.6425ZM12 7.5C17.5 7.5 20.5 9.48125 20.5 10.5C20.5 11.5188 17.5 13.5 12 13.5C6.5 13.5 3.5 11.5188 3.5 10.5C3.5 9.48125 6.5 7.5 12 7.5ZM3.5 15.5V14.6425C3.75667 14.785 4.02792 14.9208 4.31375 15.05C5.02076 15.3637 5.75187 15.6199 6.5 15.8162V17.6912C4.535 17.0262 3.5 16.0975 3.5 15.5ZM11.5 21.5C11.6663 21.5 11.8325 21.5 12 21.5C12.4533 21.5 12.9021 21.4867 13.3462 21.46C13.7171 21.5908 14.1017 21.71 14.5 21.8175V23.6925C12.535 23.0262 11.5 22.0975 11.5 21.5ZM17.5 24.3525V22.3675C18.3304 22.4564 19.1649 22.5007 20 22.5C20.8351 22.5001 21.6697 22.4555 22.5 22.3662V24.3525C20.8391 24.5492 19.1609 24.5492 17.5 24.3525ZM25.5 23.6925V21.8175C26.2481 21.6211 26.9792 21.3649 27.6863 21.0513C27.9729 20.9229 28.2442 20.7871 28.5 20.6437V21.5C28.5 22.0975 27.465 23.0262 25.5 23.6925Z" fill="black"/>
</svg>
