<svg width="32" height="32" viewBox="0 0 32 32" fill="none" xmlns="http://www.w3.org/2000/svg">
<path d="M12.5 3.5H8C7.33696 3.5 6.70107 3.76339 6.23223 4.23223C5.76339 4.70107 5.5 5.33696 5.5 6V26C5.5 26.663 5.76339 27.2989 6.23223 27.7678C6.70107 28.2366 7.33696 28.5 8 28.5H12.5C13.163 28.5 13.7989 28.2366 14.2678 27.7678C14.7366 27.2989 15 26.663 15 26V6C15 5.33696 14.7366 4.70107 14.2678 4.23223C13.7989 3.76339 13.163 3.5 12.5 3.5ZM12 25.5H8.5V6.5H12V25.5ZM24 3.5H19.5C18.837 3.5 18.2011 3.76339 17.7322 4.23223C17.2634 4.70107 17 5.33696 17 6V26C17 26.663 17.2634 27.2989 17.7322 27.7678C18.2011 28.2366 18.837 28.5 19.5 28.5H24C24.663 28.5 25.2989 28.2366 25.7678 27.7678C26.2366 27.2989 26.5 26.663 26.5 26V6C26.5 5.33696 26.2366 4.70107 25.7678 4.23223C25.2989 3.76339 24.663 3.5 24 3.5ZM23.5 25.5H20V6.5H23.5V25.5Z" fill="black"/>
</svg>
