<svg width="32" height="32" viewBox="0 0 32 32" fill="none" xmlns="http://www.w3.org/2000/svg">
<path d="M27.335 15.6825C27.4273 15.5068 27.4839 15.3146 27.5014 15.117C27.5189 14.9193 27.497 14.7201 27.437 14.531C27.377 14.3418 27.2801 14.1665 27.1518 14.015C27.0236 13.8636 26.8665 13.7392 26.6898 13.6489C26.5131 13.5586 26.3202 13.5042 26.1224 13.489C25.9245 13.4738 25.7256 13.498 25.5372 13.5602C25.3487 13.6223 25.1745 13.7213 25.0246 13.8513C24.8747 13.9813 24.752 14.1398 24.6638 14.3175C23.8724 15.8459 22.6764 17.1276 21.2063 18.0225L19.5188 14.2238C20.287 13.5829 20.8659 12.7447 21.1931 11.7993C21.5203 10.854 21.5835 9.83724 21.3759 8.85863C21.1682 7.88001 20.6976 6.97656 20.0146 6.24555C19.3317 5.51453 18.4623 4.98363 17.5 4.71V3C17.5 2.60218 17.342 2.22064 17.0607 1.93934C16.7794 1.65804 16.3978 1.5 16 1.5C15.6022 1.5 15.2207 1.65804 14.9394 1.93934C14.6581 2.22064 14.5 2.60218 14.5 3V4.71C13.5378 4.98363 12.6684 5.51453 11.9854 6.24555C11.3025 6.97656 10.8318 7.88001 10.6242 8.85863C10.4165 9.83724 10.4797 10.854 10.8069 11.7993C11.1342 12.7447 11.7131 13.5829 12.4813 14.2238L6.62502 27.39C6.54438 27.5706 6.50023 27.7653 6.49513 27.963C6.49002 28.1607 6.52406 28.3574 6.59527 28.5419C6.66648 28.7264 6.77347 28.8949 6.91008 29.0379C7.04669 29.1809 7.21022 29.2955 7.39127 29.375C7.58308 29.4592 7.79055 29.5018 8.00002 29.5C8.29095 29.5008 8.57584 29.417 8.81997 29.2587C9.06411 29.1005 9.25695 28.8746 9.37502 28.6087L12.3338 21.9513C13.5216 22.3163 14.7574 22.5012 16 22.5C17.2443 22.4988 18.4818 22.3169 19.6738 21.96L22.625 28.6087C22.7431 28.8746 22.9359 29.1005 23.1801 29.2587C23.4242 29.417 23.7091 29.5008 24 29.5C24.2091 29.5017 24.4161 29.4591 24.6075 29.375C24.7887 29.2956 24.9523 29.1811 25.0891 29.0382C25.2258 28.8952 25.3329 28.7267 25.4043 28.5422C25.4756 28.3577 25.5097 28.1609 25.5047 27.9632C25.4997 27.7654 25.4556 27.5706 25.375 27.39L22.4363 20.7775C24.528 19.5893 26.2298 17.8193 27.335 15.6825ZM16 7.5C16.4945 7.5 16.9778 7.64662 17.3889 7.92133C17.8001 8.19603 18.1205 8.58648 18.3097 9.04329C18.4989 9.50011 18.5484 10.0028 18.452 10.4877C18.3555 10.9727 18.1174 11.4181 17.7678 11.7678C17.4182 12.1174 16.9727 12.3555 16.4877 12.452C16.0028 12.5484 15.5001 12.4989 15.0433 12.3097C14.5865 12.1205 14.1961 11.8 13.9213 11.3889C13.6466 10.9778 13.5 10.4945 13.5 10C13.5 9.33696 13.7634 8.70107 14.2323 8.23223C14.7011 7.76339 15.337 7.5 16 7.5ZM16 19.5C15.1764 19.5011 14.3562 19.3948 13.56 19.1838L15.2225 15.4438C15.7381 15.5188 16.2619 15.5188 16.7775 15.4438L18.4438 19.1938C17.6451 19.3973 16.8242 19.5002 16 19.5Z" fill="black"/>
</svg>
