<svg width="32" height="32" viewBox="0 0 32 32" fill="none" xmlns="http://www.w3.org/2000/svg">
<path d="M3.84399 4.92504C4.45963 4.37072 5.43572 4.45076 6.02367 5.10375L25.9758 27.2629C26.5635 27.9158 26.5413 28.8941 25.926 29.4484C25.3104 30.0028 24.3343 29.9227 23.7463 29.2697L22.2727 27.633C21.9125 27.8224 21.5444 27.9988 21.1662 28.1555C18.6996 29.1772 15.985 29.4448 13.3664 28.924C10.7478 28.4031 8.34231 27.1166 6.45434 25.2287C4.56639 23.3408 3.27996 20.9353 2.75903 18.3166C2.2382 15.698 2.50587 12.9835 3.52758 10.5168C3.86614 9.69949 4.28319 8.92217 4.76977 8.19359L3.79418 7.11058C3.2065 6.4577 3.22871 5.47936 3.84399 4.92504ZM6.85961 10.5159C6.31329 11.4821 5.92032 12.5337 5.70141 13.634C5.2963 15.6707 5.50347 17.7829 6.29809 19.7014C7.09279 21.6198 8.4397 23.2596 10.1663 24.4133C11.8929 25.5669 13.9236 26.1828 16.0002 26.1828C17.4526 26.1812 18.8718 25.8756 20.178 25.3068L15.675 20.3059L11.5911 22.0578C11.3163 22.1747 11.0122 22.2071 10.719 22.1506C10.4259 22.094 10.1561 21.9511 9.94457 21.7404C9.73309 21.5297 9.58913 21.26 9.53149 20.967C9.47394 20.6741 9.50551 20.371 9.62133 20.0959L11.512 15.6819L6.85961 10.5159ZM16.0002 2.18286C19.5791 2.18696 23.0105 3.61027 25.5412 6.14086C28.0721 8.67168 29.4962 12.1037 29.5002 15.6828C29.5002 17.6826 29.0553 19.6487 28.2087 21.4426C28.0971 21.6792 27.9781 21.913 27.8521 22.1435C27.3838 23.0005 26.2238 23.0549 25.5703 22.3292L-nan -nanL25.5703 22.3292C25.0998 21.8068 25.0519 21.0378 25.3691 20.4104C26.1035 18.9577 26.4984 17.3408 26.5002 15.6828C26.5002 13.6063 25.8833 11.5765 24.7297 9.84984C23.576 8.1233 21.9363 6.77735 20.0178 5.98266C18.0993 5.188 15.9881 4.97991 13.9514 5.385C13.3769 5.49929 12.8157 5.66115 12.273 5.86747C11.6169 6.11687 10.8583 5.98915 10.3887 5.46758L-nan -nanL10.3887 5.46758C9.7359 4.74271 9.91109 3.59631 10.8115 3.22117C12.4479 2.53943 14.2105 2.18286 16.0002 2.18286ZM20.4084 9.30785C20.6832 9.19092 20.9873 9.15858 21.2805 9.21507C21.5735 9.27166 21.8434 9.41464 22.0549 9.62523C22.2663 9.83585 22.4103 10.105 22.468 10.3977C22.5256 10.6906 22.494 10.9946 22.3782 11.2698L21.1204 14.2047C20.6891 15.2111 19.3597 15.4313 18.627 14.6176L17.0752 12.8942C16.3874 12.1304 16.6542 10.9167 17.5991 10.5118L20.4084 9.30785Z" fill="black"/>
</svg>
