<svg width="32" height="32" viewBox="0 0 32 32" fill="none" xmlns="http://www.w3.org/2000/svg">
<path d="M4.5511 4.77808C4.96154 4.40881 5.60274 4.45174 5.98274 4.87378L26.0179 27.1257C26.398 27.5479 26.3736 28.1898 25.9632 28.5593C25.5528 28.9288 24.9116 28.8857 24.5316 28.4636L23.1058 26.8796C22.4345 27.3186 21.723 27.6996 20.9749 28.0095C18.5996 28.9934 15.9849 29.2523 13.4632 28.7507C10.9418 28.2491 8.62587 27.01 6.80793 25.1921C4.9901 23.3743 3.75105 21.0583 3.24934 18.5369C2.74775 16.0152 3.00574 13.4005 3.98958 11.0251C4.47505 9.85312 5.12776 8.76569 5.92024 7.79272L4.49641 6.21167C4.11632 5.78953 4.14067 5.14763 4.5511 4.77808ZM7.27668 9.29956C6.25183 10.6342 5.542 12.1915 5.21125 13.8542C4.78699 15.9877 5.0049 18.199 5.83723 20.2087C6.6698 22.2187 8.08005 23.9375 9.88899 25.1462C11.6978 26.3548 13.8249 26.9997 16.0003 26.9998C18.0461 26.9974 20.032 26.4248 21.7474 25.3718L16.7015 19.7664L10.4476 22.8943C10.3086 22.963 10.1553 22.9994 10.0003 22.9998C9.83 22.9998 9.66185 22.9566 9.51301 22.8738C9.36429 22.7909 9.23939 22.6708 9.14973 22.5261C9.06009 22.3811 9.00801 22.215 9.00032 22.0447C8.99271 21.8745 9.02862 21.7049 9.10481 21.5525L12.3909 14.9802L7.27668 9.29956ZM15.9993 2.99976C19.446 3.0034 22.7516 4.3742 25.1888 6.81128C27.6256 9.24821 28.9964 12.5526 29.0003 15.9988C29.0003 18.5698 28.2372 21.0837 26.8089 23.2214C26.802 23.2318 26.7951 23.2421 26.7882 23.2524C26.4398 23.7703 25.7032 23.787 25.2855 23.3231L-nan -nanL25.2855 23.3231C24.9573 22.9586 24.9404 22.4144 25.2085 22.0037C26.3655 20.2312 26.9978 18.1486 27.0003 15.9998C27.0003 13.8243 26.3545 11.6973 25.1458 9.88843C23.9372 8.07973 22.22 6.66923 20.2103 5.83667C18.2004 5.00413 15.9876 4.78729 13.8538 5.21167C12.8506 5.41127 11.8864 5.74955 10.986 6.21131C10.5507 6.43453 10.0128 6.36108 9.68535 5.99765L-nan -nanL9.68535 5.99765C9.26847 5.53491 9.36226 4.80653 9.91252 4.51477C11.7816 3.52374 13.8706 2.99987 15.9993 2.99976ZM12.2366 19.7634L15.3099 18.2214L13.8323 16.5798L12.2366 19.7634ZM22.1605 9.01147C22.3679 9.04495 22.5597 9.14322 22.7083 9.29175C22.8567 9.44024 22.9551 9.63142 22.9886 9.83862C23.0221 10.046 22.9891 10.2593 22.8948 10.447L20.2647 15.7066C19.9495 16.3368 19.0988 16.452 18.6274 15.9284L-nan -nanL18.6274 15.9284C18.3517 15.6222 18.2921 15.1783 18.4771 14.8103L19.7689 12.241L17.3753 13.4374C16.9715 13.6392 16.4825 13.5465 16.1806 13.2109L-nan -nanL16.1806 13.2109C15.7372 12.7181 15.885 11.9384 16.4779 11.642L21.5531 9.10522C21.7407 9.01109 21.9532 8.9781 22.1605 9.01147Z" fill="black"/>
</svg>
