<svg width="32" height="32" viewBox="0 0 32 32" fill="none" xmlns="http://www.w3.org/2000/svg">
<path d="M4.55112 4.77832C4.96156 4.40908 5.60277 4.45199 5.98276 4.87402L26.0179 27.126C26.398 27.5481 26.3737 28.19 25.9632 28.5596C25.5528 28.9291 24.9117 28.886 24.5316 28.4639L23.1058 26.8809C22.4345 27.3198 21.723 27.7009 20.975 28.0107C18.5997 28.9945 15.9858 29.2515 13.4642 28.75C10.9427 28.2484 8.62593 27.0111 6.80796 25.1934C4.99002 23.3754 3.75105 21.0586 3.24936 18.5371C2.74776 16.0154 3.00569 13.4008 3.9896 11.0254C4.4751 9.8533 5.12772 8.76598 5.92026 7.79297L4.49643 6.21191C4.11634 5.78978 4.14069 5.14787 4.55112 4.77832ZM15.9994 3C19.4459 3.00364 22.7517 4.37451 25.1888 6.81152C27.6257 9.24854 28.9965 12.5537 29.0003 16C29.0003 17.9984 28.5391 19.9619 27.663 21.7413C27.4892 22.0942 27.2983 22.4404 27.0919 22.7776C26.6114 23.5626 25.5242 23.5884 24.9083 22.9044L19.9337 17.38C19.5209 16.9216 19.4308 16.2572 19.7067 15.7055L22.4476 10.2236C22.4946 10.1298 22.5112 10.0235 22.4945 9.91992C22.4777 9.81621 22.4281 9.7198 22.3539 9.64551C22.2796 9.57147 22.1839 9.52258 22.0804 9.50586C21.9767 9.48915 21.8696 9.50556 21.7757 9.55273L16.6672 12.1066C16.0638 12.4083 15.3332 12.27 14.8818 11.7687L10.0652 6.41993C9.44921 5.73591 9.58833 4.65703 10.4195 4.26148C12.1558 3.43516 14.0608 3.00011 15.9994 3ZM9.55308 21.7764C9.50595 21.8702 9.48957 21.9764 9.5062 22.0801C9.52294 22.1838 9.57153 22.2811 9.64585 22.3555C9.7201 22.4295 9.81673 22.4784 9.92026 22.4951C10.0237 22.5117 10.1303 22.4952 10.224 22.4482L16.3539 19.3818L12.7503 15.3799L9.55308 21.7764Z" fill="black"/>
</svg>
