<svg width="32" height="32" viewBox="0 0 32 32" fill="none" xmlns="http://www.w3.org/2000/svg">
<path d="M4.90325 4.54688C5.21094 4.26983 5.68802 4.2981 5.96868 4.60938L13.7714 13.2754L14.8105 14.4297L23.6445 24.2412L24.6532 25.3604L26.0302 26.8906C26.3107 27.2022 26.289 27.6789 25.9814 27.9561C25.6735 28.2332 25.1966 28.2052 24.9159 27.8936L23.4911 26.3106C22.6848 26.8973 21.8108 27.3936 20.8798 27.7793C18.5501 28.7443 15.9858 28.9968 13.5126 28.5049C11.0395 28.013 8.76739 26.7986 6.98431 25.0156C5.2013 23.2326 3.98703 20.9604 3.49505 18.4873C3.00314 16.0141 3.25564 13.4498 4.22063 11.1201C4.7785 9.77352 5.56069 8.54097 6.5263 7.46973L4.85442 5.61328C4.57387 5.30163 4.59548 4.82403 4.90325 4.54688ZM7.53509 8.58985C6.2395 10.0699 5.35118 11.868 4.96575 13.8057C4.53183 15.9877 4.75505 18.2493 5.60638 20.3047C6.45783 22.3603 7.899 24.1183 9.74895 25.3545C11.5988 26.5905 13.7742 27.2498 15.999 27.25C18.3356 27.2474 20.5949 26.5156 22.4784 25.1856L17.1464 19.2647L10.3349 22.6709C10.2308 22.7225 10.1161 22.7498 9.99993 22.75C9.87217 22.75 9.74632 22.7165 9.6347 22.6543C9.52319 22.5921 9.42843 22.5031 9.36126 22.3945C9.29415 22.286 9.25677 22.1617 9.25091 22.0342C9.24513 21.9067 9.27108 21.7793 9.32805 21.665L12.8906 14.5381L7.53509 8.58985ZM15.9999 3.25C19.38 3.25401 22.6205 4.59832 25.0107 6.98828C27.4008 9.37842 28.7458 12.6199 28.7499 16C28.7498 18.5213 28.0022 20.9865 26.6015 23.083C26.4839 23.259 26.3619 23.4317 26.2359 23.601C25.9621 23.9688 25.4239 23.9749 25.1171 23.6342Lnan nanL25.1171 23.6342C24.8656 23.355 24.8588 22.9354 25.0804 22.6321C26.4787 20.7187 27.2472 18.3993 27.2499 16C27.2499 13.775 26.5896 11.5991 25.3534 9.74903C24.1174 7.89948 22.3608 6.45786 20.3056 5.60645C18.2501 4.75504 15.9877 4.5319 13.8056 4.96582C12.5829 5.20904 11.4165 5.65406 10.3501 6.27414C10.0259 6.46264 9.61019 6.41198 9.35927 6.13329Lnan nanL9.35927 6.13329C9.05302 5.79314 9.11507 5.25903 9.50877 5.02561C9.56598 4.9917 9.62342 4.95828 9.68111 4.92537C11.6014 3.82987 13.7789 3.25 15.9999 3.25ZM11.6777 20.3223L16.1054 18.1084L13.9657 15.7324L11.6777 20.3223ZM22.121 9.25977C22.2759 9.28507 22.4191 9.35783 22.5302 9.46875C22.6414 9.57994 22.7149 9.72372 22.7402 9.87891C22.7653 10.0341 22.742 10.1943 22.6718 10.335L19.7619 16.1548C19.5253 16.628 18.8866 16.7146 18.5326 16.3215Lnan nanL18.5326 16.3215C18.3261 16.0922 18.281 15.7599 18.4188 15.4838L20.3163 11.6836L16.7142 13.4808C16.4128 13.6312 16.048 13.562 15.8225 13.3116Lnan nanL15.8225 13.3116C15.4913 12.9436 15.6015 12.3612 16.0443 12.1397L21.665 9.32813C21.8057 9.25786 21.9658 9.23458 22.121 9.25977Z" fill="black"/>
</svg>
