<svg width="32" height="32" viewBox="0 0 32 32" fill="none" xmlns="http://www.w3.org/2000/svg">
<path d="M5.25684 5.31543C5.46206 5.13076 5.77784 5.14713 5.96192 5.35156L26.0381 27.6484C26.2222 27.8529 26.2052 28.1687 26 28.3535C25.7948 28.5382 25.479 28.5218 25.2949 28.3174L23.3223 26.127C22.5378 26.6947 21.6872 27.1744 20.7832 27.5488C18.4993 28.4948 15.9861 28.742 13.5615 28.2598C11.1368 27.7774 8.90831 26.587 7.16016 24.8389C5.41231 23.0908 4.22252 20.863 3.74024 18.4385C3.25802 16.0139 3.50525 13.5007 4.45118 11.2168C4.99445 9.90522 5.75534 8.70385 6.69336 7.6582L5.21875 6.02051C5.03466 5.81603 5.05163 5.5002 5.25684 5.31543ZM7.36621 8.40527C6.03193 9.92208 5.11649 11.7671 4.72071 13.7568C4.27709 15.9875 4.50469 18.3002 5.375 20.4014C6.24534 22.5023 7.7196 24.298 9.61036 25.5615C11.5015 26.8251 13.7255 27.5 16 27.5C18.3977 27.4974 20.7157 26.7446 22.6455 25.375L16.9717 19.0732L10.2236 22.4473C10.1542 22.4816 10.0775 22.4999 10 22.5C9.91501 22.5 9.83115 22.4788 9.75684 22.4375C9.68239 22.396 9.61906 22.3352 9.57422 22.2627C9.52957 22.1903 9.50385 22.1074 9.5 22.0225C9.49621 21.9373 9.5146 21.8516 9.55274 21.7754L13.0703 14.7402L7.36621 8.40527ZM16 3.5C19.3141 3.50365 22.4916 4.82166 24.835 7.16504C27.1783 9.5084 28.4963 12.686 28.5 16C28.5 18.4721 27.7669 20.8888 26.3936 22.9443C26.0378 23.4768 25.6425 23.9784 25.213 24.4463C25.0178 24.6591 24.6834 24.6499 24.4902 24.4354L-nan -nanL24.4902 24.4354C24.3115 24.237 24.3195 23.9344 24.4993 23.7371C26.4221 21.6254 27.4969 18.8688 27.5 16C27.5 13.7255 26.8252 11.5015 25.5615 9.61035C24.298 7.71956 22.5024 6.24533 20.4014 5.375C18.3002 4.50465 15.9875 4.27709 13.7568 4.7207C12.0976 5.05076 10.5387 5.74182 9.18711 6.7359C8.97354 6.89298 8.67392 6.86948 8.49656 6.67244L-nan -nanL8.49656 6.67244C8.30471 6.4593 8.33026 6.12793 8.56021 5.9566C8.72216 5.83594 8.88724 5.71898 9.05567 5.60645C11.1112 4.23307 13.5279 3.50001 16 3.5ZM11.1143 20.875L16.2744 18.2988L13.79 15.54L11.1143 20.875ZM22.0811 9.50586C22.1845 9.5227 22.2803 9.57137 22.3545 9.64551C22.4288 9.71977 22.4774 9.81626 22.4941 9.91992C22.5107 10.0235 22.4943 10.1299 22.4473 10.2236L18.9372 17.2456C18.7793 17.5615 18.3528 17.6193 18.1165 17.3567L-nan -nanL18.1165 17.3567C17.9785 17.2034 17.9485 16.9812 18.041 16.7968L20.8857 11.125L15.4464 13.8401C15.2444 13.9409 14.9999 13.8945 14.8488 13.7267L-nan -nanL14.8488 13.7267C14.6267 13.4801 14.7006 13.0897 14.9975 12.9413L21.7764 9.55273C21.8702 9.50564 21.9774 9.48914 22.0811 9.50586Z" fill="black"/>
</svg>
