<svg width="32" height="32" viewBox="0 0 32 32" fill="none" xmlns="http://www.w3.org/2000/svg">
<path opacity="0.08" d="M16 4C13.6266 4 11.3066 4.70379 9.33316 6.02236C7.35977 7.34094 5.8217 9.21509 4.91345 11.4078C4.0052 13.6005 3.76756 16.0133 4.23058 18.3411C4.6936 20.6689 5.83649 22.8071 7.51472 24.4853C9.19295 26.1635 11.3312 27.3064 13.6589 27.7694C15.9867 28.2324 18.3995 27.9948 20.5922 27.0866C22.7849 26.1783 24.6591 24.6402 25.9776 22.6668C27.2962 20.6935 28 18.3734 28 16C28 12.8174 26.7357 9.76515 24.4853 7.51472C22.2348 5.26428 19.1826 4 16 4ZM18 18L10 22L14 14L22 10L18 18Z" fill="black"/>
<path d="M4.55112 4.77832C4.96156 4.40908 5.60277 4.45199 5.98276 4.87402L26.0179 27.126C26.398 27.5481 26.3737 28.19 25.9632 28.5596C25.5528 28.9291 24.9117 28.886 24.5316 28.4639L23.1058 26.8809C22.4345 27.3198 21.723 27.7009 20.975 28.0107C18.5997 28.9945 15.9858 29.2515 13.4642 28.75C10.9427 28.2484 8.62593 27.0111 6.80796 25.1934C4.99002 23.3754 3.75105 21.0586 3.24936 18.5371C2.74776 16.0154 3.00569 13.4008 3.9896 11.0254C4.4751 9.8533 5.12772 8.76598 5.92026 7.79297L4.49643 6.21191C4.11634 5.78978 4.14069 5.14787 4.55112 4.77832ZM7.27671 9.2998C6.25181 10.6344 5.54205 12.1917 5.21128 13.8545C4.78695 15.9881 5.00475 18.2001 5.83726 20.21C6.66983 22.2199 8.08012 23.9378 9.88901 25.1465C11.6979 26.3551 13.8248 27 16.0003 27C18.0462 26.9976 20.032 26.4251 21.7474 25.3721L16.7015 19.7666L10.4476 22.8945C10.3087 22.9632 10.1554 22.9997 10.0003 23C9.82996 23.0001 9.66191 22.9569 9.51304 22.874C9.36425 22.7912 9.23942 22.6712 9.14976 22.5264C9.06011 22.3814 9.00804 22.2152 9.00034 22.0449C8.99277 21.8748 9.02869 21.705 9.10483 21.5527L12.391 14.9795L7.27671 9.2998ZM15.9994 3C19.4459 3.00364 22.7517 4.37451 25.1888 6.81152C27.6257 9.24854 28.9965 12.5537 29.0003 16C29.0003 18.1509 28.466 20.2616 27.455 22.1457C27.2519 22.5242 27.0285 22.8941 26.7875 23.2521C26.4389 23.7698 25.7032 23.7872 25.2855 23.3234L-nan -nanL25.2855 23.3234C24.9573 22.9589 24.9404 22.4146 25.2085 22.0039C26.3656 20.2314 26.9979 18.1489 27.0003 16C27.0003 13.8245 26.3545 11.6975 25.1458 9.88867C23.9373 8.08013 22.2198 6.67044 20.2103 5.83789C18.2004 5.00535 15.9876 4.78752 13.8539 5.21191C12.8505 5.41154 11.886 5.74992 10.9855 6.21181C10.5505 6.4349 10.013 6.36148 9.68576 5.99828L-nan -nanL9.68576 5.99828C9.26919 5.53585 9.36293 4.80798 9.91275 4.51631C11.7818 3.52484 13.8703 3.00012 15.9994 3ZM12.2367 19.7637L15.3099 18.2217L13.8314 16.5801L12.2367 19.7637ZM22.1615 9.01172C22.3687 9.0453 22.5609 9.14353 22.7093 9.29199C22.8576 9.44052 22.9552 9.63262 22.9886 9.83984C23.022 10.0472 22.9892 10.2605 22.8949 10.4482L20.2648 15.7069C19.9496 16.3371 19.0989 16.4523 18.6274 15.9286L-nan -nanL18.6274 15.9286C18.3518 15.6225 18.2921 15.1786 18.4772 14.8105L19.7689 12.2412L17.3749 13.4378C16.9713 13.6396 16.4827 13.547 16.1808 13.2117L-nan -nanL16.1808 13.2117C15.7373 12.7191 15.8849 11.9396 16.4777 11.6432L21.5531 9.10547C21.7408 9.01128 21.9541 8.97828 22.1615 9.01172Z" fill="black"/>
</svg>
