<svg width="32" height="32" viewBox="0 0 32 32" fill="none" xmlns="http://www.w3.org/2000/svg">
<path d="M14.2899 6.225C13.9961 5.93053 13.6327 5.71494 13.2333 5.59816C12.834 5.48139 12.4117 5.46721 12.0055 5.55693C11.5993 5.64665 11.2222 5.83738 10.9092 6.11146C10.5963 6.38555 10.3575 6.73415 10.2149 7.125L3.65244 25.1763C3.51678 25.5495 3.47284 25.9499 3.52433 26.3437C3.57582 26.7375 3.72123 27.1132 3.9483 27.439C4.17536 27.7649 4.47744 28.0313 4.82906 28.216C5.18068 28.4006 5.57154 28.498 5.96869 28.5C6.2604 28.4994 6.54977 28.4478 6.82369 28.3475L24.8749 21.785C25.2662 21.643 25.6153 21.4046 25.8899 21.0919C26.1645 20.7792 26.3558 20.4022 26.4461 19.9959C26.5363 19.5896 26.5225 19.1671 26.4061 18.7676C26.2897 18.368 26.0743 18.0042 25.7799 17.71L14.2899 6.225ZM13.0237 22.9013L9.09869 18.9762L10.3674 15.4875L16.5124 21.6325L13.0237 22.9013ZM7.97119 22.0875L9.91244 24.0325L6.85619 25.1437L7.97119 22.0875ZM19.6249 20.5L11.4999 12.375L12.7499 8.9275L23.0712 19.25L19.6249 20.5ZM15.9999 5V2C15.9999 1.60218 16.158 1.22064 16.4393 0.93934C16.7206 0.658035 17.1021 0.5 17.4999 0.5C17.8978 0.5 18.2793 0.658035 18.5606 0.93934C18.8419 1.22064 18.9999 1.60218 18.9999 2V5C18.9999 5.39782 18.8419 5.77936 18.5606 6.06066C18.2793 6.34196 17.8978 6.5 17.4999 6.5C17.1021 6.5 16.7206 6.34196 16.4393 6.06066C16.158 5.77936 15.9999 5.39782 15.9999 5ZM30.5599 15.4388C30.8417 15.7205 31 16.1027 31 16.5012C31 16.8998 30.8417 17.282 30.5599 17.5637C30.2781 17.8455 29.896 18.0039 29.4974 18.0039C29.0989 18.0039 28.7167 17.8455 28.4349 17.5637L26.4349 15.5638C26.1531 15.282 25.9948 14.8998 25.9948 14.5013C25.9948 14.1027 26.1531 13.7205 26.4349 13.4388C26.7167 13.157 27.0989 12.9986 27.4974 12.9986C27.896 12.9986 28.2781 13.157 28.5599 13.4388L30.5599 15.4388ZM30.4737 10.4225L27.4737 11.4225C27.0963 11.5483 26.6843 11.519 26.3284 11.3411C25.9726 11.1632 25.702 10.8512 25.5762 10.4738C25.4504 10.0963 25.4797 9.68436 25.6576 9.32851C25.8355 8.97266 26.1475 8.70206 26.5249 8.57625L29.5249 7.57625C29.9024 7.45044 30.3143 7.47971 30.6702 7.65764C31.026 7.83557 31.2966 8.14756 31.4224 8.525C31.5483 8.90244 31.519 9.31439 31.341 9.67024C31.1631 10.0261 30.8511 10.2967 30.4737 10.4225ZM19.5749 8.24125C19.9787 5.93375 21.6737 4.5 23.9999 4.5C24.8062 4.5 25.0862 4.18875 25.2499 3.885C25.3956 3.60503 25.4808 3.29754 25.4999 2.9825V3C25.4999 2.60218 25.658 2.22064 25.9393 1.93934C26.2206 1.65804 26.6021 1.5 26.9999 1.5C27.3978 1.5 27.7793 1.65804 28.0606 1.93934C28.3419 2.22064 28.4999 2.60218 28.4999 3C28.4999 4.80875 27.3012 7.5 23.9999 7.5C23.3824 7.5 22.7237 7.64875 22.5299 8.7575C22.4694 9.10518 22.2881 9.42036 22.0181 9.64762C21.7481 9.87488 21.4066 9.99965 21.0537 10C20.9665 9.99985 20.8796 9.99232 20.7937 9.9775C20.4018 9.90887 20.0533 9.68739 19.8247 9.36178C19.5962 9.03617 19.5063 8.63311 19.5749 8.24125Z" fill="black"/>
</svg>
