<svg width="32" height="32" viewBox="0 0 32 32" fill="none" xmlns="http://www.w3.org/2000/svg">
<path opacity="0.08" d="M7.36121 19.3612L12.6387 24.6387L6.30996 26.9387C6.13548 27.0029 5.94627 27.0158 5.7647 26.9758C5.58313 26.9359 5.41679 26.8448 5.28533 26.7134C5.15387 26.5819 5.06279 26.4156 5.02285 26.234C4.98292 26.0524 4.99579 25.8632 5.05996 25.6887L7.36121 19.3612ZM24.7137 18.7712L13.2287 7.28624C13.1129 7.17044 12.9697 7.08572 12.8125 7.03993C12.6552 6.99414 12.489 6.98875 12.3291 7.02427C12.1692 7.05979 12.0208 7.13506 11.8978 7.24312C11.7747 7.35118 11.6809 7.48854 11.625 7.64249L9.76246 12.7675L19.24 22.245L24.365 20.3825C24.5198 20.3263 24.6578 20.2317 24.7661 20.1077C24.8744 19.9836 24.9495 19.8341 24.9844 19.6732C25.0192 19.5122 25.0127 19.3451 24.9653 19.1873C24.918 19.0296 24.8314 18.8864 24.7137 18.7712Z" fill="black"/>
<path d="M13.9362 6.57875C13.7014 6.3445 13.4113 6.17318 13.0927 6.0806C12.7742 5.98802 12.4375 5.97716 12.1136 6.04903C11.7898 6.12089 11.4893 6.27317 11.2398 6.49181C10.9903 6.71044 10.7999 6.98839 10.6862 7.3L4.12497 25.3475C4.01719 25.6451 3.98237 25.9642 4.02345 26.2781C4.06452 26.5919 4.18029 26.8914 4.36104 27.1512C4.54178 27.4111 4.78222 27.6238 5.06218 27.7715C5.34215 27.9191 5.65345 27.9975 5.96997 28C6.20302 27.9984 6.43399 27.9561 6.65247 27.875L24.6987 21.3125C25.0104 21.1989 25.2885 21.0086 25.5073 20.7592C25.726 20.5098 25.8785 20.2093 25.9505 19.8855C26.0224 19.5616 26.0117 19.2248 25.9192 18.9062C25.8267 18.5876 25.6554 18.2975 25.4212 18.0625L13.9362 6.57875ZM12.895 23.48L8.51997 19.105L10.165 14.5787L17.4212 21.835L12.895 23.48ZM6.01997 25.98L7.76997 21.1787L10.8262 24.235L6.01997 25.98ZM19.5 21.08L10.92 12.5L12.545 8.01625L23.9737 19.445L19.5 21.08ZM20 9C20.0188 8.32396 20.1824 7.65983 20.48 7.0525C21.1425 5.72875 22.3925 5 24 5C24.8375 5 25.375 4.71375 25.7062 4.09875C25.8806 3.75468 25.9807 3.37777 26 2.9925C26.001 2.72728 26.1073 2.47332 26.2955 2.28649C26.4838 2.09966 26.7385 1.99526 27.0037 1.99625C27.2689 1.99724 27.5229 2.10356 27.7097 2.29179C27.8966 2.48003 28.001 2.73478 28 3C28 4.6075 26.935 7 24 7C23.1625 7 22.625 7.28625 22.2937 7.90125C22.1193 8.24532 22.0192 8.62223 22 9.0075C21.9995 9.13882 21.9731 9.26876 21.9224 9.3899C21.8717 9.51103 21.7976 9.621 21.7044 9.71351C21.6112 9.80602 21.5007 9.87926 21.3792 9.92906C21.2577 9.97886 21.1275 10.0042 20.9962 10.0037C20.8649 10.0033 20.735 9.9769 20.6138 9.92619C20.4927 9.87548 20.3827 9.80141 20.2902 9.70821C20.1977 9.615 20.1245 9.50448 20.0747 9.38297C20.0249 9.26145 19.9995 9.13132 20 9ZM17 5V2C17 1.73478 17.1053 1.48043 17.2929 1.29289C17.4804 1.10536 17.7348 1 18 1C18.2652 1 18.5195 1.10536 18.7071 1.29289C18.8946 1.48043 19 1.73478 19 2V5C19 5.26522 18.8946 5.51957 18.7071 5.70711C18.5195 5.89464 18.2652 6 18 6C17.7348 6 17.4804 5.89464 17.2929 5.70711C17.1053 5.51957 17 5.26522 17 5ZM29.7075 15.2925C29.8003 15.3854 29.8739 15.4957 29.9241 15.6171C29.9743 15.7384 30.0001 15.8685 30.0001 15.9998C30 16.1312 29.9741 16.2612 29.9238 16.3825C29.8735 16.5038 29.7998 16.614 29.7068 16.7069C29.6139 16.7997 29.5037 16.8733 29.3823 16.9235C29.2609 16.9737 29.1309 16.9995 28.9995 16.9995C28.8682 16.9994 28.7382 16.9735 28.6168 16.9232C28.4955 16.8729 28.3853 16.7992 28.2925 16.7062L26.2925 14.7063C26.1048 14.5186 25.9994 14.2641 25.9994 13.9987C25.9994 13.7334 26.1048 13.4789 26.2925 13.2913C26.4801 13.1036 26.7346 12.9982 27 12.9982C27.2653 12.9982 27.5198 13.1036 27.7075 13.2913L29.7075 15.2925ZM30.3162 9.94875L27.3162 10.9487C27.0646 11.0326 26.79 11.0131 26.5527 10.8945C26.3155 10.7759 26.1351 10.5679 26.0512 10.3162C25.9673 10.0646 25.9869 9.78999 26.1055 9.55276C26.2241 9.31552 26.4321 9.13513 26.6837 9.05125L29.6837 8.05125C29.9353 7.96738 30.21 7.98689 30.4472 8.10551C30.6845 8.22413 30.8648 8.43213 30.9487 8.68375C31.0326 8.93537 31.0131 9.21001 30.8945 9.44724C30.7758 9.68448 30.5678 9.86487 30.3162 9.94875Z" fill="black"/>
</svg>
