<svg width="32" height="32" viewBox="0 0 32 32" fill="none" xmlns="http://www.w3.org/2000/svg">
<path d="M26.0612 16.0613C25.9218 16.2011 25.7563 16.3121 25.5739 16.3878C25.3916 16.4635 25.1961 16.5025 24.9987 16.5025C24.8013 16.5025 24.6058 16.4635 24.4235 16.3878C24.2411 16.3121 24.0756 16.2011 23.9362 16.0613L15.9999 8.12505L8.0612 16.0613C7.7794 16.3431 7.39721 16.5014 6.9987 16.5014C6.60018 16.5014 6.21799 16.3431 5.9362 16.0613C5.6544 15.7795 5.49609 15.3973 5.49609 14.9988C5.49609 14.6003 5.6544 14.2181 5.9362 13.9363L14.9362 4.9363C15.0756 4.79646 15.2411 4.6855 15.4235 4.6098C15.6058 4.53409 15.8013 4.49512 15.9987 4.49512C16.1961 4.49512 16.3916 4.53409 16.5739 4.6098C16.7563 4.6855 16.9218 4.79646 17.0612 4.9363L26.0612 13.9363C26.201 14.0757 26.312 14.2412 26.3877 14.4236C26.4634 14.6059 26.5024 14.8014 26.5024 14.9988C26.5024 15.1962 26.4634 15.3917 26.3877 15.574C26.312 15.7564 26.201 15.9219 26.0612 16.0613Z" fill="black"/>
</svg>
