<svg width="32" height="32" viewBox="0 0 32 32" fill="none" xmlns="http://www.w3.org/2000/svg">
<path d="M16 2.5C13.33 2.5 10.7199 3.29176 8.49981 4.77516C6.27974 6.25856 4.54942 8.36697 3.52763 10.8338C2.50585 13.3006 2.2385 16.015 2.7594 18.6337C3.28031 21.2525 4.56606 23.6579 6.45406 25.5459C8.34207 27.434 10.7475 28.7197 13.3663 29.2406C15.985 29.7615 18.6994 29.4942 21.1662 28.4724C23.633 27.4506 25.7414 25.7203 27.2248 23.5002C28.7082 21.2801 29.5 18.67 29.5 16C29.496 12.4208 28.0724 8.98932 25.5416 6.45844C23.0107 3.92756 19.5792 2.50397 16 2.5ZM16 26.5C13.9233 26.5 11.8932 25.8842 10.1665 24.7304C8.4398 23.5767 7.09399 21.9368 6.29927 20.0182C5.50455 18.0996 5.29662 15.9884 5.70176 13.9516C6.10691 11.9148 7.10693 10.0438 8.57538 8.57538C10.0438 7.10693 11.9148 6.1069 13.9516 5.70175C15.9884 5.29661 18.0996 5.50454 20.0182 6.29926C21.9368 7.09399 23.5767 8.4398 24.7304 10.1665C25.8842 11.8932 26.5 13.9233 26.5 16C26.497 18.7839 25.3898 21.4528 23.4213 23.4213C21.4529 25.3898 18.7839 26.497 16 26.5ZM22.5 16C22.4999 17.364 22.0707 18.6935 21.2732 19.8C20.4757 20.9066 19.3502 21.7343 18.0563 22.1658C16.7623 22.5973 15.3654 22.6108 14.0633 22.2044C12.7612 21.7979 11.62 20.9922 10.8013 19.9013C10.6762 19.7444 10.5838 19.564 10.5297 19.3709C10.4755 19.1777 10.4607 18.9756 10.486 18.7766C10.5114 18.5776 10.5764 18.3856 10.6772 18.2122C10.778 18.0387 10.9126 17.8873 11.073 17.7668C11.2334 17.6463 11.4164 17.5592 11.611 17.5106C11.8057 17.4621 12.0081 17.4531 12.2063 17.4841C12.4045 17.5152 12.5945 17.5857 12.7649 17.6915C12.9354 17.7973 13.0829 17.9362 13.1988 18.1C13.6395 18.6877 14.254 19.1218 14.9552 19.3408C15.6563 19.5598 16.4087 19.5527 17.1056 19.3204C17.8024 19.0881 18.4086 18.6424 18.8381 18.0465C19.2676 17.4506 19.4988 16.7346 19.4988 16C19.4988 15.2654 19.2676 14.5494 18.8381 13.9535C18.4086 13.3576 17.8024 12.9119 17.1056 12.6796C16.4087 12.4473 15.6563 12.4402 14.9552 12.6592C14.254 12.8782 13.6395 13.3123 13.1988 13.9C13.0829 14.0638 12.9354 14.2027 12.7649 14.3085C12.5945 14.4143 12.4045 14.4848 12.2063 14.5159C12.0081 14.5469 11.8057 14.5379 11.611 14.4894C11.4164 14.4408 11.2334 14.3537 11.073 14.2332C10.9126 14.1127 10.778 13.9613 10.6772 13.7878C10.5764 13.6144 10.5114 13.4224 10.486 13.2234C10.4607 13.0244 10.4755 12.8223 10.5297 12.6291C10.5838 12.436 10.6762 12.2556 10.8013 12.0988C11.62 11.0078 12.7612 10.2021 14.0633 9.79564C15.3654 9.38923 16.7623 9.40273 18.0563 9.83424C19.3502 10.2657 20.4757 11.0934 21.2732 12.2C22.0707 13.3065 22.4999 14.636 22.5 16Z" fill="black"/>
</svg>
