<svg width="32" height="32" viewBox="0 0 32 32" fill="none" xmlns="http://www.w3.org/2000/svg">
<path d="M22.5 8H5C4.60218 8 4.22064 8.15804 3.93934 8.43934C3.65804 8.72064 3.5 9.10218 3.5 9.5V27C3.5 27.3978 3.65804 27.7794 3.93934 28.0607C4.22064 28.342 4.60218 28.5 5 28.5H22.5C22.8978 28.5 23.2794 28.342 23.5607 28.0607C23.842 27.7794 24 27.3978 24 27V9.5C24 9.10218 23.842 8.72064 23.5607 8.43934C23.2794 8.15804 22.8978 8 22.5 8ZM21 25.5H6.5V11H21V25.5ZM28.5 5V22.5C28.5 22.8978 28.342 23.2794 28.0607 23.5607C27.7794 23.842 27.3978 24 27 24C26.6022 24 26.2206 23.842 25.9393 23.5607C25.658 23.2794 25.5 22.8978 25.5 22.5V6.5H9.5C9.10218 6.5 8.72064 6.34196 8.43934 6.06066C8.15804 5.77936 8 5.39782 8 5C8 4.60218 8.15804 4.22064 8.43934 3.93934C8.72064 3.65804 9.10218 3.5 9.5 3.5H27C27.3978 3.5 27.7794 3.65804 28.0607 3.93934C28.342 4.22064 28.5 4.60218 28.5 5Z" fill="black"/>
</svg>
