<svg width="32" height="32" viewBox="0 0 32 32" fill="none" xmlns="http://www.w3.org/2000/svg">
<path opacity="0.08" d="M26 12H20V6L26 12ZM12 26V20H6L12 26ZM20 26L26 20H20V26ZM12 12V6L6 12H12Z" fill="black"/>
<path d="M20 13H26C26.1979 13.0001 26.3914 12.9416 26.556 12.8317C26.7206 12.7218 26.8489 12.5656 26.9246 12.3828C27.0004 12.2 27.0202 11.9988 26.9815 11.8047C26.9429 11.6106 26.8475 11.4323 26.7075 11.2925L20.7075 5.29249C20.5676 5.15248 20.3894 5.05712 20.1953 5.01846C20.0012 4.97981 19.8 4.99962 19.6172 5.07537C19.4344 5.15112 19.2781 5.27942 19.1683 5.44401C19.0584 5.60861 18.9998 5.8021 19 5.99999V12C19 12.2652 19.1054 12.5196 19.2929 12.7071C19.4804 12.8946 19.7348 13 20 13ZM21 8.41374L23.5862 11H21V8.41374ZM12 19H5.99999C5.8021 18.9998 5.60861 19.0584 5.44401 19.1683C5.27942 19.2781 5.15112 19.4344 5.07537 19.6172C4.99962 19.8 4.97981 20.0012 5.01846 20.1953C5.05712 20.3894 5.15248 20.5676 5.29249 20.7075L11.2925 26.7075C11.4323 26.8475 11.6106 26.9429 11.8047 26.9815C11.9988 27.0202 12.2 27.0004 12.3828 26.9246C12.5656 26.8489 12.7218 26.7206 12.8317 26.556C12.9416 26.3914 13.0001 26.1979 13 26V20C13 19.7348 12.8946 19.4804 12.7071 19.2929C12.5196 19.1054 12.2652 19 12 19ZM11 23.5862L8.41374 21H11V23.5862ZM26 19H20C19.7348 19 19.4804 19.1054 19.2929 19.2929C19.1054 19.4804 19 19.7348 19 20V26C18.9998 26.1979 19.0584 26.3914 19.1683 26.556C19.2781 26.7206 19.4344 26.8489 19.6172 26.9246C19.8 27.0004 20.0012 27.0202 20.1953 26.9815C20.3894 26.9429 20.5676 26.8475 20.7075 26.7075L26.7075 20.7075C26.8475 20.5676 26.9429 20.3894 26.9815 20.1953C27.0202 20.0012 27.0004 19.8 26.9246 19.6172C26.8489 19.4344 26.7206 19.2781 26.556 19.1683C26.3914 19.0584 26.1979 18.9998 26 19ZM21 23.5862V21H23.5862L21 23.5862ZM12.3825 5.07624C12.1998 5.00045 11.9987 4.98053 11.8047 5.01903C11.6107 5.05752 11.4324 5.15269 11.2925 5.29249L5.29249 11.2925C5.15248 11.4323 5.05712 11.6106 5.01846 11.8047C4.97981 11.9988 4.99962 12.2 5.07537 12.3828C5.15112 12.5656 5.27942 12.7218 5.44401 12.8317C5.60861 12.9416 5.8021 13.0001 5.99999 13H12C12.2652 13 12.5196 12.8946 12.7071 12.7071C12.8946 12.5196 13 12.2652 13 12V5.99999C13 5.80221 12.9413 5.60889 12.8314 5.44446C12.7214 5.28004 12.5652 5.1519 12.3825 5.07624ZM11 11H8.41374L11 8.41374V11Z" fill="black"/>
</svg>
