<svg width="32" height="32" viewBox="0 0 32 32" fill="none" xmlns="http://www.w3.org/2000/svg">
<path d="M30.5 13V9C30.5 8.33696 30.2366 7.70107 29.7678 7.23223C29.2989 6.76339 28.663 6.5 28 6.5H4C3.33696 6.5 2.70107 6.76339 2.23223 7.23223C1.76339 7.70107 1.5 8.33696 1.5 9V13C1.18951 13.2329 0.937501 13.5348 0.763932 13.882C0.590363 14.2291 0.5 14.6119 0.5 15V21C0.5 21.663 0.763392 22.2989 1.23223 22.7678C1.46438 22.9999 1.73998 23.1841 2.04329 23.3097C2.34661 23.4353 2.6717 23.5 3 23.5H3.5V25C3.5 25.3978 3.65804 25.7794 3.93934 26.0607C4.22064 26.342 4.60218 26.5 5 26.5C5.39782 26.5 5.77936 26.342 6.06066 26.0607C6.34196 25.7794 6.5 25.3978 6.5 25V23.5H25.5V25C25.5 25.3978 25.658 25.7794 25.9393 26.0607C26.2206 26.342 26.6022 26.5 27 26.5C27.3978 26.5 27.7794 26.342 28.0607 26.0607C28.342 25.7794 28.5 25.3978 28.5 25V23.5H29C29.663 23.5 30.2989 23.2366 30.7678 22.7678C31.2366 22.2989 31.5 21.663 31.5 21V15C31.5 14.6119 31.4096 14.2291 31.2361 13.882C31.0625 13.5348 30.8105 13.2329 30.5 13ZM27.5 12.5H26C25.337 12.5 24.7011 12.7634 24.2322 13.2322C23.7634 13.7011 23.5 14.337 23.5 15V15.5H17.5V9.5H27.5V12.5ZM14.5 9.5V15.5H8.5V15C8.5 14.337 8.23661 13.7011 7.76777 13.2322C7.29893 12.7634 6.66304 12.5 6 12.5H4.5V9.5H14.5ZM28.5 20.5H3.5V15.5H5.5V16C5.5 16.663 5.76339 17.2989 6.23223 17.7678C6.70107 18.2366 7.33696 18.5 8 18.5H24C24.663 18.5 25.2989 18.2366 25.7678 17.7678C26.2366 17.2989 26.5 16.663 26.5 16V15.5H28.5V20.5Z" fill="black"/>
</svg>
