<svg width="32" height="32" viewBox="0 0 32 32" fill="none" xmlns="http://www.w3.org/2000/svg">
<path d="M19 11.5H13C12.6022 11.5 12.2206 11.658 11.9393 11.9393C11.658 12.2206 11.5 12.6022 11.5 13V19C11.5 19.3978 11.658 19.7794 11.9393 20.0607C12.2206 20.342 12.6022 20.5 13 20.5H19C19.3978 20.5 19.7794 20.342 20.0607 20.0607C20.342 19.7794 20.5 19.3978 20.5 19V13C20.5 12.6022 20.342 12.2206 20.0607 11.9393C19.7794 11.658 19.3978 11.5 19 11.5ZM17.5 17.5H14.5V14.5H17.5V17.5ZM29 17.5H27.5V14.5H29C29.3978 14.5 29.7794 14.342 30.0607 14.0607C30.342 13.7794 30.5 13.3978 30.5 13C30.5 12.6022 30.342 12.2206 30.0607 11.9393C29.7794 11.658 29.3978 11.5 29 11.5H27.5V7C27.5 6.33696 27.2366 5.70107 26.7678 5.23223C26.2989 4.76339 25.663 4.5 25 4.5H20.5V3C20.5 2.60218 20.342 2.22064 20.0607 1.93934C19.7794 1.65804 19.3978 1.5 19 1.5C18.6022 1.5 18.2206 1.65804 17.9393 1.93934C17.658 2.22064 17.5 2.60218 17.5 3V4.5H14.5V3C14.5 2.60218 14.342 2.22064 14.0607 1.93934C13.7794 1.65804 13.3978 1.5 13 1.5C12.6022 1.5 12.2206 1.65804 11.9393 1.93934C11.658 2.22064 11.5 2.60218 11.5 3V4.5H7C6.33696 4.5 5.70107 4.76339 5.23223 5.23223C4.76339 5.70107 4.5 6.33696 4.5 7V11.5H3C2.60218 11.5 2.22064 11.658 1.93934 11.9393C1.65804 12.2206 1.5 12.6022 1.5 13C1.5 13.3978 1.65804 13.7794 1.93934 14.0607C2.22064 14.342 2.60218 14.5 3 14.5H4.5V17.5H3C2.60218 17.5 2.22064 17.658 1.93934 17.9393C1.65804 18.2206 1.5 18.6022 1.5 19C1.5 19.3978 1.65804 19.7794 1.93934 20.0607C2.22064 20.342 2.60218 20.5 3 20.5H4.5V25C4.5 25.663 4.76339 26.2989 5.23223 26.7678C5.70107 27.2366 6.33696 27.5 7 27.5H11.5V29C11.5 29.3978 11.658 29.7794 11.9393 30.0607C12.2206 30.342 12.6022 30.5 13 30.5C13.3978 30.5 13.7794 30.342 14.0607 30.0607C14.342 29.7794 14.5 29.3978 14.5 29V27.5H17.5V29C17.5 29.3978 17.658 29.7794 17.9393 30.0607C18.2206 30.342 18.6022 30.5 19 30.5C19.3978 30.5 19.7794 30.342 20.0607 30.0607C20.342 29.7794 20.5 29.3978 20.5 29V27.5H25C25.663 27.5 26.2989 27.2366 26.7678 26.7678C27.2366 26.2989 27.5 25.663 27.5 25V20.5H29C29.3978 20.5 29.7794 20.342 30.0607 20.0607C30.342 19.7794 30.5 19.3978 30.5 19C30.5 18.6022 30.342 18.2206 30.0607 17.9393C29.7794 17.658 29.3978 17.5 29 17.5ZM24.5 24.5H7.5V7.5H24.5V24.5Z" fill="black"/>
</svg>
