<svg width="32" height="32" viewBox="0 0 32 32" fill="none" xmlns="http://www.w3.org/2000/svg">
<path d="M29 14.5H28.41C28.07 11.7247 26.8112 9.14298 24.8341 7.16589C22.857 5.18879 20.2753 3.93002 17.5 3.59V3C17.5 2.60218 17.342 2.22064 17.0607 1.93934C16.7794 1.65804 16.3978 1.5 16 1.5C15.6022 1.5 15.2206 1.65804 14.9393 1.93934C14.658 2.22064 14.5 2.60218 14.5 3V3.59C11.7247 3.93002 9.14298 5.18879 7.16589 7.16589C5.18879 9.14298 3.93002 11.7247 3.59 14.5H3C2.60218 14.5 2.22064 14.658 1.93934 14.9393C1.65804 15.2206 1.5 15.6022 1.5 16C1.5 16.3978 1.65804 16.7794 1.93934 17.0607C2.22064 17.342 2.60218 17.5 3 17.5H3.59C3.93002 20.2753 5.18879 22.857 7.16589 24.8341C9.14298 26.8112 11.7247 28.07 14.5 28.41V29C14.5 29.3978 14.658 29.7794 14.9393 30.0607C15.2206 30.342 15.6022 30.5 16 30.5C16.3978 30.5 16.7794 30.342 17.0607 30.0607C17.342 29.7794 17.5 29.3978 17.5 29V28.41C20.2753 28.07 22.857 26.8112 24.8341 24.8341C26.8112 22.857 28.07 20.2753 28.41 17.5H29C29.3978 17.5 29.7794 17.342 30.0607 17.0607C30.342 16.7794 30.5 16.3978 30.5 16C30.5 15.6022 30.342 15.2206 30.0607 14.9393C29.7794 14.658 29.3978 14.5 29 14.5ZM17.5 25.375V25C17.5 24.6022 17.342 24.2206 17.0607 23.9393C16.7794 23.658 16.3978 23.5 16 23.5C15.6022 23.5 15.2206 23.658 14.9393 23.9393C14.658 24.2206 14.5 24.6022 14.5 25V25.375C12.5267 25.0555 10.7041 24.1229 9.29061 22.7094C7.87712 21.2959 6.9445 19.4733 6.625 17.5H7C7.39782 17.5 7.77936 17.342 8.06066 17.0607C8.34196 16.7794 8.5 16.3978 8.5 16C8.5 15.6022 8.34196 15.2206 8.06066 14.9393C7.77936 14.658 7.39782 14.5 7 14.5H6.625C6.9445 12.5267 7.87712 10.7041 9.29061 9.29061C10.7041 7.87712 12.5267 6.9445 14.5 6.625V7C14.5 7.39782 14.658 7.77936 14.9393 8.06066C15.2206 8.34196 15.6022 8.5 16 8.5C16.3978 8.5 16.7794 8.34196 17.0607 8.06066C17.342 7.77936 17.5 7.39782 17.5 7V6.625C19.4733 6.9445 21.2959 7.87712 22.7094 9.29061C24.1229 10.7041 25.0555 12.5267 25.375 14.5H25C24.6022 14.5 24.2206 14.658 23.9393 14.9393C23.658 15.2206 23.5 15.6022 23.5 16C23.5 16.3978 23.658 16.7794 23.9393 17.0607C24.2206 17.342 24.6022 17.5 25 17.5H25.375C25.0555 19.4733 24.1229 21.2959 22.7094 22.7094C21.2959 24.1229 19.4733 25.0555 17.5 25.375ZM16 10.5C14.9122 10.5 13.8488 10.8226 12.9444 11.4269C12.0399 12.0313 11.3349 12.8902 10.9187 13.8952C10.5024 14.9002 10.3935 16.0061 10.6057 17.073C10.8179 18.1399 11.3417 19.1199 12.1109 19.8891C12.8801 20.6583 13.8601 21.1821 14.927 21.3943C15.9939 21.6065 17.0998 21.4976 18.1048 21.0813C19.1098 20.6651 19.9687 19.9601 20.5731 19.0556C21.1774 18.1512 21.5 17.0878 21.5 16C21.4983 14.5418 20.9184 13.1438 19.8873 12.1127C18.8562 11.0816 17.4582 10.5017 16 10.5ZM16 18.5C15.5055 18.5 15.0222 18.3534 14.6111 18.0787C14.2 17.804 13.8795 17.4135 13.6903 16.9567C13.5011 16.4999 13.4516 15.9972 13.548 15.5123C13.6445 15.0273 13.8826 14.5819 14.2322 14.2322C14.5819 13.8826 15.0273 13.6445 15.5123 13.548C15.9972 13.4516 16.4999 13.5011 16.9567 13.6903C17.4135 13.8795 17.804 14.2 18.0787 14.6111C18.3534 15.0222 18.5 15.5055 18.5 16C18.5 16.663 18.2366 17.2989 17.7678 17.7678C17.2989 18.2366 16.663 18.5 16 18.5Z" fill="black"/>
</svg>
