<svg width="32" height="32" viewBox="0 0 32 32" fill="none" xmlns="http://www.w3.org/2000/svg">
<path d="M25 8.5H20.5V4C20.5 3.6717 20.4353 3.34661 20.3097 3.04329C20.1841 2.73998 19.9999 2.46438 19.7678 2.23223C19.5356 2.00009 19.26 1.81594 18.9567 1.6903C18.6534 1.56466 18.3283 1.5 18 1.5H14C13.337 1.5 12.7011 1.76339 12.2322 2.23223C11.7634 2.70107 11.5 3.33696 11.5 4V8.5H7C6.33696 8.5 5.70107 8.76339 5.23223 9.23223C4.76339 9.70107 4.5 10.337 4.5 11V15C4.5 15.663 4.76339 16.2989 5.23223 16.7678C5.70107 17.2366 6.33696 17.5 7 17.5H11.5V28C11.5 28.663 11.7634 29.2989 12.2322 29.7678C12.7011 30.2366 13.337 30.5 14 30.5H18C18.3283 30.5 18.6534 30.4353 18.9567 30.3097C19.26 30.1841 19.5356 29.9999 19.7678 29.7678C19.9999 29.5356 20.1841 29.26 20.3097 28.9567C20.4353 28.6534 20.5 28.3283 20.5 28V17.5H25C25.663 17.5 26.2989 17.2366 26.7678 16.7678C27.2366 16.2989 27.5 15.663 27.5 15V11C27.5 10.337 27.2366 9.70107 26.7678 9.23223C26.2989 8.76339 25.663 8.5 25 8.5ZM24.5 14.5H20C19.337 14.5 18.7011 14.7634 18.2322 15.2322C17.7634 15.7011 17.5 16.337 17.5 17V27.5H14.5V17C14.5 16.337 14.2366 15.7011 13.7678 15.2322C13.2989 14.7634 12.663 14.5 12 14.5H7.5V11.5H12C12.3283 11.5 12.6534 11.4353 12.9567 11.3097C13.26 11.1841 13.5356 10.9999 13.7678 10.7678C13.9999 10.5356 14.1841 10.26 14.3097 9.95671C14.4353 9.65339 14.5 9.3283 14.5 9V4.5H17.5V9C17.5 9.3283 17.5647 9.65339 17.6903 9.95671C17.8159 10.26 18.0001 10.5356 18.2322 10.7678C18.7011 11.2366 19.337 11.5 20 11.5H24.5V14.5Z" fill="black"/>
</svg>
