<svg width="32" height="32" viewBox="0 0 32 32" fill="none" xmlns="http://www.w3.org/2000/svg">
<path opacity="0.08" d="M29.9725 10.8275L25.3475 25C25.3475 25 22 23 16 23C9.99996 23 6.65246 25 6.65246 25L2.02746 10.8287C1.99418 10.7324 1.9904 10.6282 2.01661 10.5297C2.04282 10.4312 2.09783 10.3427 2.1746 10.2756C2.25137 10.2085 2.34641 10.1658 2.44757 10.153C2.54873 10.1402 2.6514 10.1579 2.74246 10.2037L9.41871 13.5312C9.53443 13.589 9.6677 13.6011 9.7919 13.5649C9.9161 13.5288 10.0221 13.4471 10.0887 13.3362L15.56 4.24999C15.606 4.17528 15.6703 4.11359 15.7469 4.07081C15.8235 4.02802 15.9097 4.00555 15.9975 4.00555C16.0852 4.00555 16.1715 4.02802 16.248 4.07081C16.3246 4.11359 16.389 4.17528 16.435 4.24999L21.9062 13.3425C21.973 13.4528 22.0788 13.5341 22.2026 13.5702C22.3265 13.6063 22.4593 13.5946 22.575 13.5375L29.2537 10.2075C29.3444 10.1612 29.4469 10.1429 29.548 10.1551C29.6492 10.1673 29.7444 10.2093 29.8215 10.2759C29.8986 10.3424 29.9542 10.4304 29.9811 10.5287C30.008 10.6269 30.005 10.7309 29.9725 10.8275Z" fill="black"/>
<path d="M30.48 9.52377C30.2544 9.32708 29.9754 9.20187 29.6785 9.16403C29.3817 9.1262 29.0802 9.17745 28.8125 9.31127L22.5362 12.4363L17.2962 3.73252C17.1615 3.50918 16.9714 3.32443 16.7443 3.19618C16.5172 3.06794 16.2608 3.00055 16 3.00055C15.7392 3.00055 15.4828 3.06794 15.2557 3.19618C15.0286 3.32443 14.8384 3.50918 14.7037 3.73252L9.46375 12.44L3.19 9.31502C2.92292 9.18238 2.62262 9.13158 2.32678 9.16899C2.03094 9.2064 1.75274 9.33035 1.52709 9.52529C1.30143 9.72024 1.13839 9.97748 1.0584 10.2648C0.978416 10.552 0.985058 10.8565 1.07749 11.14L5.70249 25.31C5.749 25.4524 5.82688 25.5825 5.93039 25.6907C6.0339 25.7989 6.16039 25.8825 6.30054 25.9353C6.44068 25.9881 6.59089 26.0087 6.74008 25.9957C6.88927 25.9827 7.03363 25.9363 7.16249 25.86C7.19374 25.8413 10.39 24 16 24C21.61 24 24.8062 25.8413 24.835 25.8588C24.9639 25.9358 25.1085 25.9828 25.2581 25.9963C25.4076 26.0098 25.5583 25.9894 25.6989 25.9367C25.8396 25.884 25.9665 25.8003 26.0703 25.6918C26.1742 25.5833 26.2522 25.4528 26.2987 25.31L30.9237 11.1438C31.0188 10.8602 31.0274 10.5547 30.9484 10.2662C30.8694 9.97777 30.7063 9.71931 30.48 9.52377ZM24.75 23.6038C23.25 22.9675 20.26 22 16 22C11.74 22 8.74999 22.9675 7.24999 23.6038L3.33874 11.625L8.97249 14.4338C9.3135 14.6019 9.70513 14.6363 10.0702 14.5301C10.4353 14.4239 10.7474 14.1849 10.945 13.86L16 5.45752L21.055 13.8575C21.2526 14.182 21.5644 14.4209 21.9292 14.5271C22.294 14.6332 22.6854 14.5991 23.0262 14.4313L28.6612 11.625L24.75 23.6038Z" fill="black"/>
</svg>
