<svg width="32" height="32" viewBox="0 0 32 32" fill="none" xmlns="http://www.w3.org/2000/svg">
<path d="M24.5 19.6787V12.3212C24.5007 11.9495 24.4039 11.584 24.2192 11.2614C24.0346 10.9387 23.7685 10.6701 23.4475 10.4825L17.03 6.77625C16.7166 6.5963 16.3614 6.50161 16 6.50161C15.6386 6.50161 15.2834 6.5963 14.97 6.77625L8.55375 10.4825C8.23257 10.67 7.96621 10.9385 7.78129 11.2611C7.59638 11.5838 7.49938 11.9494 7.5 12.3212V19.6787C7.49926 20.0505 7.59606 20.416 7.78075 20.7386C7.96544 21.0613 8.23155 21.3299 8.5525 21.5175L14.97 25.2237C15.2834 25.4039 15.6385 25.4988 16 25.4988C16.3615 25.4988 16.7166 25.4039 17.03 25.2237L23.4463 21.5175C23.7674 21.33 24.0338 21.0615 24.2187 20.7389C24.4036 20.4162 24.5006 20.0506 24.5 19.6787ZM16 9.64625L20.0737 12L16 14.3512L11.9263 12L16 9.64625ZM10.5 14.6462L14.5 16.9562V21.4937L10.5 19.1775V14.6462ZM17.5 21.4937V16.95L21.5 14.64V19.1775L17.5 21.4937ZM29.5 6V11C29.5 11.3978 29.342 11.7794 29.0607 12.0607C28.7794 12.342 28.3978 12.5 28 12.5C27.6022 12.5 27.2206 12.342 26.9393 12.0607C26.658 11.7794 26.5 11.3978 26.5 11V7.5H23C22.6022 7.5 22.2206 7.34196 21.9393 7.06066C21.658 6.77936 21.5 6.39782 21.5 6C21.5 5.60218 21.658 5.22064 21.9393 4.93934C22.2206 4.65804 22.6022 4.5 23 4.5H28C28.3978 4.5 28.7794 4.65804 29.0607 4.93934C29.342 5.22064 29.5 5.60218 29.5 6ZM10.5 26C10.5 26.3978 10.342 26.7794 10.0607 27.0607C9.77936 27.342 9.39782 27.5 9 27.5H4C3.60218 27.5 3.22064 27.342 2.93934 27.0607C2.65804 26.7794 2.5 26.3978 2.5 26V21C2.5 20.6022 2.65804 20.2206 2.93934 19.9393C3.22064 19.658 3.60218 19.5 4 19.5C4.39782 19.5 4.77936 19.658 5.06066 19.9393C5.34196 20.2206 5.5 20.6022 5.5 21V24.5H9C9.39782 24.5 9.77936 24.658 10.0607 24.9393C10.342 25.2206 10.5 25.6022 10.5 26ZM29.5 21V26C29.5 26.3978 29.342 26.7794 29.0607 27.0607C28.7794 27.342 28.3978 27.5 28 27.5H23C22.6022 27.5 22.2206 27.342 21.9393 27.0607C21.658 26.7794 21.5 26.3978 21.5 26C21.5 25.6022 21.658 25.2206 21.9393 24.9393C22.2206 24.658 22.6022 24.5 23 24.5H26.5V21C26.5 20.6022 26.658 20.2206 26.9393 19.9393C27.2206 19.658 27.6022 19.5 28 19.5C28.3978 19.5 28.7794 19.658 29.0607 19.9393C29.342 20.2206 29.5 20.6022 29.5 21ZM2.5 11V6C2.5 5.60218 2.65804 5.22064 2.93934 4.93934C3.22064 4.65804 3.60218 4.5 4 4.5H9C9.39782 4.5 9.77936 4.65804 10.0607 4.93934C10.342 5.22064 10.5 5.60218 10.5 6C10.5 6.39782 10.342 6.77936 10.0607 7.06066C9.77936 7.34196 9.39782 7.5 9 7.5H5.5V11C5.5 11.3978 5.34196 11.7794 5.06066 12.0607C4.77936 12.342 4.39782 12.5 4 12.5C3.60218 12.5 3.22064 12.342 2.93934 12.0607C2.65804 11.7794 2.5 11.3978 2.5 11Z" fill="black"/>
</svg>
