<svg width="32" height="32" viewBox="0 0 32 32" fill="none" xmlns="http://www.w3.org/2000/svg">
<path d="M28.0625 11.9412L20.0625 3.94125C19.9232 3.8014 19.7576 3.69043 19.5752 3.61471C19.3929 3.53899 19.1974 3.50001 19 3.5H5C4.60218 3.5 4.22065 3.65804 3.93934 3.93934C3.65804 4.22064 3.5 4.60218 3.5 5V19C3.49953 19.3652 3.63295 19.7178 3.875 19.9912C3.89375 20.0137 3.91375 20.0363 3.9375 20.0613L11.9375 28.0613C12.0771 28.2007 12.2427 28.3112 12.4251 28.3864C12.6074 28.4617 12.8027 28.5003 13 28.5H27C27.3978 28.5 27.7794 28.342 28.0607 28.0607C28.342 27.7794 28.5 27.3978 28.5 27V13C28.5 12.6031 28.3427 12.2224 28.0625 11.9412ZM20.5 8.625L23.375 11.5H20.5V8.625ZM11.5 23.375L8.625 20.5H11.5V23.375ZM11.5 17.5H6.5V8.625L11.5 13.625V17.5ZM8.625 6.5H17.5V11.5H13.625L8.625 6.5ZM17.5 14.5V17.5H14.5V14.5H17.5ZM14.5 25.5V20.5H18.375L23.375 25.5H14.5ZM25.5 23.375L20.5 18.375V14.5H25.5V23.375Z" fill="black"/>
</svg>
