<svg width="32" height="32" viewBox="0 0 32 32" fill="none" xmlns="http://www.w3.org/2000/svg">
<path d="M28.2 7.83003L17.2 1.80878C16.8324 1.60646 16.4196 1.50037 16 1.50037C15.5804 1.50037 15.1676 1.60646 14.8 1.80878L3.8 7.83003C3.4064 8.04539 3.078 8.36271 2.84927 8.74869C2.62054 9.13468 2.4999 9.57511 2.5 10.0238V21.9763C2.4999 22.4249 2.62054 22.8654 2.84927 23.2514C3.078 23.6373 3.4064 23.9547 3.8 24.17L14.8 30.1913C15.1675 30.3938 15.5804 30.5 16 30.5C16.4196 30.5 16.8325 30.3938 17.2 30.1913L28.2 24.17C28.5936 23.9547 28.922 23.6373 29.1507 23.2514C29.3795 22.8654 29.5001 22.4249 29.5 21.9763V10.0238C29.5001 9.57511 29.3795 9.13468 29.1507 8.74869C28.922 8.36271 28.5936 8.04539 28.2 7.83003ZM16 4.57128L25 9.50003L16 14.425L7 9.50003L16 4.57128ZM5.5 12.0988L14.5 17.0238V26.6075L5.5 21.68V12.0988ZM17.5 26.6075V17.0238L26.5 12.0988V21.68L17.5 26.6075Z" fill="black"/>
</svg>
