<svg width="32" height="32" viewBox="0 0 32 32" fill="none" xmlns="http://www.w3.org/2000/svg">
<path d="M24.5 25.9999C24.5 26.3977 24.342 26.7793 24.0607 27.0606C23.7794 27.3419 23.3978 27.4999 23 27.4999H7C6.60218 27.4999 6.22064 27.3419 5.93934 27.0606C5.65804 26.7793 5.5 26.3977 5.5 25.9999C5.5 25.6021 5.65804 25.2205 5.93934 24.9392C6.22064 24.6579 6.60218 24.4999 7 24.4999H7.5C8.29565 24.4999 9.05871 24.1838 9.62132 23.6212C10.1839 23.0586 10.5 22.2955 10.5 21.4999V17.4999H7C6.60218 17.4999 6.22064 17.3419 5.93934 17.0606C5.65804 16.7793 5.5 16.3977 5.5 15.9999C5.5 15.6021 5.65804 15.2205 5.93934 14.9392C6.22064 14.6579 6.60218 14.4999 7 14.4999H10.5V10.4999C10.4998 9.1724 10.8772 7.87222 11.5879 6.75104C12.2987 5.62986 13.3136 4.7339 14.5143 4.16769C15.715 3.60148 17.052 3.38837 18.3692 3.5532C19.6864 3.71803 20.9296 4.25403 21.9538 5.09865C22.2606 5.35193 22.4542 5.71672 22.4921 6.11277C22.5299 6.50883 22.4089 6.9037 22.1556 7.21052C21.9023 7.51734 21.5375 7.71098 21.1415 7.74884C20.7454 7.7867 20.3506 7.66568 20.0438 7.4124C19.3292 6.81918 18.4287 6.49616 17.5 6.4999C16.4391 6.4999 15.4217 6.92132 14.6716 7.67147C13.9214 8.42162 13.5 9.43903 13.5 10.4999V14.4999H17C17.3978 14.4999 17.7794 14.6579 18.0607 14.9392C18.342 15.2205 18.5 15.6021 18.5 15.9999C18.5 16.3977 18.342 16.7793 18.0607 17.0606C17.7794 17.3419 17.3978 17.4999 17 17.4999H13.5V21.4999C13.5012 22.5534 13.2234 23.5885 12.695 24.4999H23C23.3978 24.4999 23.7794 24.6579 24.0607 24.9392C24.342 25.2205 24.5 25.6021 24.5 25.9999Z" fill="black"/>
</svg>
