<svg width="32" height="32" viewBox="0 0 32 32" fill="none" xmlns="http://www.w3.org/2000/svg">
<path d="M26.5 12.5C26.5 12.8978 26.342 13.2794 26.0607 13.5607C25.7794 13.842 25.3978 14 25 14H17.5V26.5C17.5 26.8978 17.342 27.2794 17.0607 27.5607C16.7794 27.842 16.3978 28 16 28C15.6022 28 15.2206 27.842 14.9393 27.5607C14.658 27.2794 14.5 26.8978 14.5 26.5V14H7C6.60218 14 6.22064 13.842 5.93934 13.5607C5.65804 13.2794 5.5 12.8978 5.5 12.5C5.5 12.1022 5.65804 11.7206 5.93934 11.4393C6.22064 11.158 6.60218 11 7 11H25C25.3978 11 25.7794 11.158 26.0607 11.4393C26.342 11.7206 26.5 12.1022 26.5 12.5ZM7 8H25C25.3978 8 25.7794 7.84196 26.0607 7.56066C26.342 7.27936 26.5 6.89782 26.5 6.5C26.5 6.10218 26.342 5.72064 26.0607 5.43934C25.7794 5.15804 25.3978 5 25 5H7C6.60218 5 6.22064 5.15804 5.93934 5.43934C5.65804 5.72064 5.5 6.10218 5.5 6.5C5.5 6.89782 5.65804 7.27936 5.93934 7.56066C6.22064 7.84196 6.60218 8 7 8Z" fill="black"/>
</svg>
