<svg width="32" height="32" viewBox="0 0 32 32" fill="none" xmlns="http://www.w3.org/2000/svg">
<path d="M26.5001 10C26.5001 10.3978 26.342 10.7794 26.0607 11.0607C25.7794 11.342 25.3979 11.5 25.0001 11.5H21.5001C21.4978 13.621 20.6542 15.6545 19.1544 17.1543C17.6546 18.6541 15.6211 19.4977 13.5001 19.5H12.8751L21.0001 26.89C21.1486 27.0217 21.2694 27.1816 21.3557 27.3604C21.4419 27.5392 21.4918 27.7333 21.5025 27.9315C21.5131 28.1297 21.4843 28.3281 21.4178 28.5151C21.3512 28.7021 21.2482 28.874 21.1147 29.0209C20.9812 29.1678 20.8199 29.2868 20.6401 29.3708C20.4603 29.4549 20.2656 29.5025 20.0672 29.5108C19.8689 29.5191 19.6709 29.4879 19.4847 29.4191C19.2985 29.3503 19.1279 29.2453 18.9826 29.11L7.98257 19.11C7.75798 18.9059 7.60059 18.6384 7.53119 18.3429C7.4618 18.0475 7.48366 17.7379 7.5939 17.4551C7.70414 17.1724 7.89756 16.9297 8.14863 16.7592C8.39969 16.5886 8.69657 16.4983 9.00007 16.5H13.5001C14.8262 16.5 16.0979 15.9732 17.0356 15.0355C17.9733 14.0979 18.5001 12.8261 18.5001 11.5H9.00007C8.60225 11.5 8.22072 11.342 7.93941 11.0607C7.65811 10.7794 7.50007 10.3978 7.50007 10C7.50007 9.60218 7.65811 9.22064 7.93941 8.93934C8.22072 8.65804 8.60225 8.5 9.00007 8.5H17.5001C17.0343 7.87902 16.4304 7.375 15.7361 7.02786C15.0419 6.68073 14.2763 6.5 13.5001 6.5H9.00007C8.60225 6.5 8.22072 6.34196 7.93941 6.06066C7.65811 5.77936 7.50007 5.39782 7.50007 5C7.50007 4.60218 7.65811 4.22064 7.93941 3.93934C8.22072 3.65804 8.60225 3.5 9.00007 3.5H25.0001C25.3979 3.5 25.7794 3.65804 26.0607 3.93934C26.342 4.22064 26.5001 4.60218 26.5001 5C26.5001 5.39782 26.342 5.77936 26.0607 6.06066C25.7794 6.34196 25.3979 6.5 25.0001 6.5H19.7388C20.2256 7.10604 20.6214 7.77979 20.9138 8.5H25.0001C25.3979 8.5 25.7794 8.65804 26.0607 8.93934C26.342 9.22064 26.5001 9.60218 26.5001 10Z" fill="black"/>
</svg>
