<svg width="32" height="32" viewBox="0 0 32 32" fill="none" xmlns="http://www.w3.org/2000/svg">
<path d="M19 14.5H17.5V7.5H18C18.9283 7.5 19.8185 7.86875 20.4749 8.52513C21.1313 9.1815 21.5 10.0717 21.5 11C21.5 11.3978 21.658 11.7794 21.9393 12.0607C22.2206 12.342 22.6022 12.5 23 12.5C23.3978 12.5 23.7794 12.342 24.0607 12.0607C24.342 11.7794 24.5 11.3978 24.5 11C24.498 9.2767 23.8126 7.62455 22.594 6.406C21.3754 5.18744 19.7233 4.50199 18 4.5H17.5V3C17.5 2.60218 17.342 2.22064 17.0607 1.93934C16.7794 1.65804 16.3978 1.5 16 1.5C15.6022 1.5 15.2206 1.65804 14.9393 1.93934C14.658 2.22064 14.5 2.60218 14.5 3V4.5H14C12.2761 4.5 10.6228 5.18482 9.40381 6.40381C8.18482 7.62279 7.5 9.27609 7.5 11C7.5 12.7239 8.18482 14.3772 9.40381 15.5962C10.6228 16.8152 12.2761 17.5 14 17.5H14.5V24.5H13C12.0717 24.5 11.1815 24.1313 10.5251 23.4749C9.86875 22.8185 9.5 21.9283 9.5 21C9.5 20.6022 9.34196 20.2206 9.06066 19.9393C8.77936 19.658 8.39782 19.5 8 19.5C7.60218 19.5 7.22064 19.658 6.93934 19.9393C6.65804 20.2206 6.5 20.6022 6.5 21C6.50198 22.7233 7.18744 24.3754 8.406 25.594C9.62455 26.8126 11.2767 27.498 13 27.5H14.5V29C14.5 29.3978 14.658 29.7794 14.9393 30.0607C15.2206 30.342 15.6022 30.5 16 30.5C16.3978 30.5 16.7794 30.342 17.0607 30.0607C17.342 29.7794 17.5 29.3978 17.5 29V27.5H19C20.7239 27.5 22.3772 26.8152 23.5962 25.5962C24.8152 24.3772 25.5 22.7239 25.5 21C25.5 19.2761 24.8152 17.6228 23.5962 16.4038C22.3772 15.1848 20.7239 14.5 19 14.5ZM14 14.5C13.0717 14.5 12.1815 14.1313 11.5251 13.4749C10.8687 12.8185 10.5 11.9283 10.5 11C10.5 10.0717 10.8687 9.1815 11.5251 8.52513C12.1815 7.86875 13.0717 7.5 14 7.5H14.5V14.5H14ZM19 24.5H17.5V17.5H19C19.9283 17.5 20.8185 17.8687 21.4749 18.5251C22.1313 19.1815 22.5 20.0717 22.5 21C22.5 21.9283 22.1313 22.8185 21.4749 23.4749C20.8185 24.1313 19.9283 24.5 19 24.5Z" fill="black"/>
</svg>
