<svg width="32" height="32" viewBox="0 0 32 32" fill="none" xmlns="http://www.w3.org/2000/svg">
<path d="M18.5 19.5C20.6217 19.5 22.6566 18.6571 24.1569 17.1569C25.6571 15.6566 26.5 13.6217 26.5 11.5C26.5 9.37827 25.6571 7.34344 24.1569 5.84315C22.6566 4.34285 20.6217 3.5 18.5 3.5H11C10.6022 3.5 10.2206 3.65804 9.93934 3.93934C9.65804 4.22064 9.5 4.60218 9.5 5V16.5H7C6.60218 16.5 6.22064 16.658 5.93934 16.9393C5.65804 17.2206 5.5 17.6022 5.5 18C5.5 18.3978 5.65804 18.7794 5.93934 19.0607C6.22064 19.342 6.60218 19.5 7 19.5H9.5V21.5H7C6.60218 21.5 6.22064 21.658 5.93934 21.9393C5.65804 22.2206 5.5 22.6022 5.5 23C5.5 23.3978 5.65804 23.7794 5.93934 24.0607C6.22064 24.342 6.60218 24.5 7 24.5H9.5V27C9.5 27.3978 9.65804 27.7794 9.93934 28.0607C10.2206 28.342 10.6022 28.5 11 28.5C11.3978 28.5 11.7794 28.342 12.0607 28.0607C12.342 27.7794 12.5 27.3978 12.5 27V24.5H18C18.3978 24.5 18.7794 24.342 19.0607 24.0607C19.342 23.7794 19.5 23.3978 19.5 23C19.5 22.6022 19.342 22.2206 19.0607 21.9393C18.7794 21.658 18.3978 21.5 18 21.5H12.5V19.5H18.5ZM12.5 6.5H18.5C19.8261 6.5 21.0979 7.02678 22.0355 7.96447C22.9732 8.90215 23.5 10.1739 23.5 11.5C23.5 12.8261 22.9732 14.0979 22.0355 15.0355C21.0979 15.9732 19.8261 16.5 18.5 16.5H12.5V6.5Z" fill="black"/>
</svg>
