<svg width="32" height="32" viewBox="0 0 32 32" fill="none" xmlns="http://www.w3.org/2000/svg">
<path d="M22.135 14.3075C22.7748 13.5285 23.2081 12.6009 23.3948 11.6103C23.5815 10.6197 23.5156 9.59802 23.2032 8.6396C22.8908 7.68118 22.3419 6.81692 21.6073 6.12663C20.8727 5.43633 19.976 4.94225 19 4.69V3C19 2.60218 18.842 2.22064 18.5607 1.93934C18.2794 1.65804 17.8978 1.5 17.5 1.5C17.1022 1.5 16.7206 1.65804 16.4393 1.93934C16.158 2.22064 16 2.60218 16 3V4.5H14V3C14 2.60218 13.842 2.22064 13.5607 1.93934C13.2794 1.65804 12.8978 1.5 12.5 1.5C12.1022 1.5 11.7206 1.65804 11.4393 1.93934C11.158 2.22064 11 2.60218 11 3V4.5H8C7.60218 4.5 7.22064 4.65804 6.93934 4.93934C6.65804 5.22064 6.5 5.60218 6.5 6C6.5 6.39782 6.65804 6.77936 6.93934 7.06066C7.22064 7.34196 7.60218 7.5 8 7.5H8.5V23.5H8C7.60218 23.5 7.22064 23.658 6.93934 23.9393C6.65804 24.2206 6.5 24.6022 6.5 25C6.5 25.3978 6.65804 25.7794 6.93934 26.0607C7.22064 26.342 7.60218 26.5 8 26.5H11V28C11 28.3978 11.158 28.7794 11.4393 29.0607C11.7206 29.342 12.1022 29.5 12.5 29.5C12.8978 29.5 13.2794 29.342 13.5607 29.0607C13.842 28.7794 14 28.3978 14 28V26.5H16V28C16 28.3978 16.158 28.7794 16.4393 29.0607C16.7206 29.342 17.1022 29.5 17.5 29.5C17.8978 29.5 18.2794 29.342 18.5607 29.0607C18.842 28.7794 19 28.3978 19 28V26.5C20.4417 26.4994 21.8422 26.0195 22.9813 25.1359C24.1205 24.2522 24.9335 23.0149 25.2925 21.6187C25.6515 20.2224 25.5361 18.7464 24.9645 17.4229C24.393 16.0994 23.3976 15.0034 22.135 14.3075ZM20.5 10.5C20.5 11.2956 20.1839 12.0587 19.6213 12.6213C19.0587 13.1839 18.2956 13.5 17.5 13.5H11.5V7.5H17.5C18.2956 7.5 19.0587 7.81607 19.6213 8.37868C20.1839 8.94129 20.5 9.70435 20.5 10.5ZM19 23.5H11.5V16.5H19C19.9283 16.5 20.8185 16.8687 21.4749 17.5251C22.1313 18.1815 22.5 19.0717 22.5 20C22.5 20.9283 22.1313 21.8185 21.4749 22.4749C20.8185 23.1313 19.9283 23.5 19 23.5Z" fill="black"/>
</svg>
