<svg width="32" height="32" viewBox="0 0 32 32" fill="none" xmlns="http://www.w3.org/2000/svg">
<path d="M30 15.5001H27.9788L30.39 9.56508C30.5273 9.19885 30.5162 8.79346 30.3589 8.43534C30.2017 8.07721 29.9108 7.79467 29.5482 7.64795C29.1856 7.50122 28.7801 7.50192 28.418 7.6499C28.056 7.79787 27.766 8.08141 27.61 8.44008L24.735 15.5038H20.26L17.385 8.44008C17.2728 8.16342 17.0806 7.92655 16.8329 7.75977C16.5853 7.593 16.2935 7.50391 15.995 7.50391C15.6965 7.50391 15.4047 7.593 15.1571 7.75977C14.9094 7.92655 14.7172 8.16342 14.605 8.44008L11.74 15.5001H7.26L4.385 8.43633C4.22898 8.07766 3.93904 7.79412 3.57698 7.64615C3.21492 7.49817 2.80938 7.49747 2.44681 7.6442C2.08424 7.79092 1.79332 8.07346 1.63607 8.43159C1.47882 8.78971 1.46767 9.1951 1.605 9.56133L4.02125 15.5001H2C1.60218 15.5001 1.22064 15.6581 0.93934 15.9394C0.658035 16.2207 0.5 16.6023 0.5 17.0001C0.5 17.3979 0.658035 17.7794 0.93934 18.0607C1.22064 18.342 1.60218 18.5001 2 18.5001H5.24L8.115 25.5651C8.22722 25.8417 8.41944 26.0786 8.66707 26.2454C8.91469 26.4122 9.20645 26.5013 9.505 26.5013C9.80355 26.5013 10.0953 26.4122 10.3429 26.2454C10.5906 26.0786 10.7828 25.8417 10.895 25.5651L13.77 18.5001H18.25L21.125 25.5651C21.2372 25.8417 21.4294 26.0786 21.6771 26.2454C21.9247 26.4122 22.2164 26.5013 22.515 26.5013C22.8135 26.5013 23.1053 26.4122 23.3529 26.2454C23.6006 26.0786 23.7928 25.8417 23.905 25.5651L26.78 18.5001H30C30.3978 18.5001 30.7794 18.342 31.0607 18.0607C31.342 17.7794 31.5 17.3979 31.5 17.0001C31.5 16.6023 31.342 16.2207 31.0607 15.9394C30.7794 15.6581 30.3978 15.5001 30 15.5001ZM9.5 21.0151L8.47875 18.5001H10.5212L9.5 21.0151ZM14.9788 15.5001L16 12.9863L17.0212 15.5001H14.9788ZM22.5 21.0151L21.4788 18.5001H23.5212L22.5 21.0151Z" fill="black"/>
</svg>
