<svg width="32" height="32" viewBox="0 0 32 32" fill="none" xmlns="http://www.w3.org/2000/svg">
<path d="M16 2.5C13.33 2.5 10.7199 3.29176 8.49981 4.77516C6.27974 6.25856 4.54942 8.36697 3.52763 10.8338C2.50585 13.3006 2.2385 16.015 2.7594 18.6337C3.28031 21.2525 4.56606 23.6579 6.45406 25.5459C8.34207 27.434 10.7475 28.7197 13.3663 29.2406C15.985 29.7615 18.6994 29.4942 21.1662 28.4724C23.633 27.4506 25.7414 25.7203 27.2248 23.5002C28.7082 21.2801 29.5 18.67 29.5 16C29.496 12.4208 28.0724 8.98932 25.5416 6.45844C23.0107 3.92756 19.5792 2.50397 16 2.5ZM16 26.5C13.9233 26.5 11.8932 25.8842 10.1665 24.7304C8.4398 23.5767 7.09399 21.9368 6.29927 20.0182C5.50455 18.0996 5.29662 15.9884 5.70176 13.9516C6.10691 11.9148 7.10693 10.0438 8.57538 8.57538C10.0438 7.10693 11.9148 6.1069 13.9516 5.70175C15.9884 5.29661 18.0996 5.50454 20.0182 6.29926C21.9368 7.09399 23.5767 8.4398 24.7304 10.1665C25.8842 11.8932 26.5 13.9233 26.5 16C26.497 18.7839 25.3898 21.4528 23.4213 23.4213C21.4529 25.3898 18.7839 26.497 16 26.5ZM21.5 18.5C21.5 19.5609 21.0786 20.5783 20.3284 21.3284C19.5783 22.0786 18.5609 22.5 17.5 22.5V23C17.5 23.3978 17.342 23.7794 17.0607 24.0607C16.7794 24.342 16.3978 24.5 16 24.5C15.6022 24.5 15.2206 24.342 14.9393 24.0607C14.658 23.7794 14.5 23.3978 14.5 23V22.5H13C12.6022 22.5 12.2206 22.342 11.9393 22.0607C11.658 21.7794 11.5 21.3978 11.5 21C11.5 20.6022 11.658 20.2206 11.9393 19.9393C12.2206 19.658 12.6022 19.5 13 19.5H17.5C17.7652 19.5 18.0196 19.3946 18.2071 19.2071C18.3946 19.0196 18.5 18.7652 18.5 18.5C18.5 18.2348 18.3946 17.9804 18.2071 17.7929C18.0196 17.6054 17.7652 17.5 17.5 17.5H14.5C13.4391 17.5 12.4217 17.0786 11.6716 16.3284C10.9214 15.5783 10.5 14.5609 10.5 13.5C10.5 12.4391 10.9214 11.4217 11.6716 10.6716C12.4217 9.92143 13.4391 9.5 14.5 9.5V9C14.5 8.60218 14.658 8.22064 14.9393 7.93934C15.2206 7.65804 15.6022 7.5 16 7.5C16.3978 7.5 16.7794 7.65804 17.0607 7.93934C17.342 8.22064 17.5 8.60218 17.5 9V9.5H19C19.3978 9.5 19.7794 9.65804 20.0607 9.93934C20.342 10.2206 20.5 10.6022 20.5 11C20.5 11.3978 20.342 11.7794 20.0607 12.0607C19.7794 12.342 19.3978 12.5 19 12.5H14.5C14.2348 12.5 13.9804 12.6054 13.7929 12.7929C13.6054 12.9804 13.5 13.2348 13.5 13.5C13.5 13.7652 13.6054 14.0196 13.7929 14.2071C13.9804 14.3946 14.2348 14.5 14.5 14.5H17.5C18.5609 14.5 19.5783 14.9214 20.3284 15.6716C21.0786 16.4217 21.5 17.4391 21.5 18.5Z" fill="black"/>
</svg>
