<svg width="32" height="32" viewBox="0 0 32 32" fill="none" xmlns="http://www.w3.org/2000/svg">
<path d="M25.5 21C25.498 22.7233 24.8126 24.3754 23.594 25.594C22.3754 26.8126 20.7233 27.498 19 27.5H17.5V29C17.5 29.3978 17.342 29.7794 17.0607 30.0607C16.7794 30.342 16.3978 30.5 16 30.5C15.6022 30.5 15.2206 30.342 14.9393 30.0607C14.658 29.7794 14.5 29.3978 14.5 29V27.5H13C11.2767 27.498 9.62455 26.8126 8.406 25.594C7.18744 24.3754 6.50198 22.7233 6.5 21C6.5 20.6022 6.65804 20.2206 6.93934 19.9393C7.22064 19.658 7.60218 19.5 8 19.5C8.39782 19.5 8.77936 19.658 9.06066 19.9393C9.34196 20.2206 9.5 20.6022 9.5 21C9.5 21.9283 9.86875 22.8185 10.5251 23.4749C11.1815 24.1313 12.0717 24.5 13 24.5H19C19.9283 24.5 20.8185 24.1313 21.4749 23.4749C22.1313 22.8185 22.5 21.9283 22.5 21C22.5 20.0717 22.1313 19.1815 21.4749 18.5251C20.8185 17.8687 19.9283 17.5 19 17.5H14C12.2761 17.5 10.6228 16.8152 9.40381 15.5962C8.18482 14.3772 7.5 12.7239 7.5 11C7.5 9.27609 8.18482 7.62279 9.40381 6.40381C10.6228 5.18482 12.2761 4.5 14 4.5H14.5V3C14.5 2.60218 14.658 2.22064 14.9393 1.93934C15.2206 1.65804 15.6022 1.5 16 1.5C16.3978 1.5 16.7794 1.65804 17.0607 1.93934C17.342 2.22064 17.5 2.60218 17.5 3V4.5H18C19.7233 4.50199 21.3754 5.18744 22.594 6.406C23.8126 7.62455 24.498 9.2767 24.5 11C24.5 11.3978 24.342 11.7794 24.0607 12.0607C23.7794 12.342 23.3978 12.5 23 12.5C22.6022 12.5 22.2206 12.342 21.9393 12.0607C21.658 11.7794 21.5 11.3978 21.5 11C21.5 10.0717 21.1313 9.1815 20.4749 8.52513C19.8185 7.86875 18.9283 7.5 18 7.5H14C13.0717 7.5 12.1815 7.86875 11.5251 8.52513C10.8687 9.1815 10.5 10.0717 10.5 11C10.5 11.9283 10.8687 12.8185 11.5251 13.4749C12.1815 14.1313 13.0717 14.5 14 14.5H19C20.7233 14.502 22.3754 15.1874 23.594 16.406C24.8126 17.6246 25.498 19.2767 25.5 21Z" fill="black"/>
</svg>
