<svg width="32" height="32" viewBox="0 0 32 32" fill="none" xmlns="http://www.w3.org/2000/svg">
<path d="M27 14.5H25.5V5.75C25.5 5.35218 25.342 4.97064 25.0607 4.68934C24.7794 4.40804 24.3978 4.25 24 4.25C23.6022 4.25 23.2206 4.40804 22.9393 4.68934C22.658 4.97064 22.5 5.35218 22.5 5.75V14.5H16.7325L9.1825 4.8275C8.99034 4.58128 8.72611 4.40118 8.42668 4.31234C8.12725 4.22349 7.80755 4.23033 7.5122 4.33191C7.21684 4.43348 6.96056 4.62471 6.7791 4.87893C6.59765 5.13315 6.50008 5.43767 6.5 5.75V14.5H5C4.60218 14.5 4.22064 14.658 3.93934 14.9393C3.65804 15.2206 3.5 15.6022 3.5 16C3.5 16.3978 3.65804 16.7794 3.93934 17.0607C4.22064 17.342 4.60218 17.5 5 17.5H6.5V26.25C6.5 26.6478 6.65804 27.0294 6.93934 27.3107C7.22064 27.592 7.60218 27.75 8 27.75C8.39782 27.75 8.77936 27.592 9.06066 27.3107C9.34196 27.0294 9.5 26.6478 9.5 26.25V17.5H15.2675L22.8175 27.1725C23.0097 27.4187 23.2739 27.5988 23.5733 27.6877C23.8728 27.7765 24.1924 27.7697 24.4878 27.6681C24.7832 27.5665 25.0394 27.3753 25.2209 27.1211C25.4024 26.8669 25.4999 26.5623 25.5 26.25V17.5H27C27.3978 17.5 27.7794 17.342 28.0607 17.0607C28.342 16.7794 28.5 16.3978 28.5 16C28.5 15.6022 28.342 15.2206 28.0607 14.9393C27.7794 14.658 27.3978 14.5 27 14.5ZM9.5 14.5V10.11L12.9263 14.5H9.5ZM22.5 21.89L19.0737 17.5H22.5V21.89Z" fill="black"/>
</svg>
