<svg width="32" height="32" viewBox="0 0 32 32" fill="none" xmlns="http://www.w3.org/2000/svg">
<path d="M24.1175 23.7076C24.2499 23.8545 24.352 24.0262 24.4178 24.2128C24.4836 24.3993 24.5118 24.597 24.5009 24.7945C24.49 24.992 24.4401 25.1854 24.3541 25.3636C24.2682 25.5417 24.1478 25.7011 24 25.8326C22.6162 27.0696 20.9291 27.9177 19.1108 28.2904C17.2925 28.6631 15.4079 28.5472 13.649 27.9544C11.89 27.3616 10.3197 26.3132 9.0979 24.9159C7.87612 23.5186 7.04656 21.8224 6.69375 20.0001H5C4.60218 20.0001 4.22064 19.842 3.93934 19.5607C3.65804 19.2794 3.5 18.8979 3.5 18.5001C3.5 18.1023 3.65804 17.7207 3.93934 17.4394C4.22064 17.1581 4.60218 17.0001 5 17.0001H6.5V15.0001H5C4.60218 15.0001 4.22064 14.842 3.93934 14.5607C3.65804 14.2794 3.5 13.8979 3.5 13.5001C3.5 13.1023 3.65804 12.7207 3.93934 12.4394C4.22064 12.1581 4.60218 12.0001 5 12.0001H6.69375C7.04743 10.1783 7.87763 8.48283 9.09978 7.0863C10.3219 5.68978 11.8924 4.64212 13.6512 4.05001C15.4099 3.4579 17.2942 3.34251 19.1121 3.71559C20.93 4.08866 22.6166 4.93687 24 6.17383C24.2965 6.43905 24.4756 6.8112 24.4977 7.20843C24.5199 7.60565 24.3833 7.99541 24.1181 8.29195C23.8529 8.5885 23.4808 8.76754 23.0835 8.78969C22.6863 8.81185 22.2965 8.67529 22 8.41008C21.0489 7.55964 19.8967 6.96588 18.6522 6.68495C17.4076 6.40402 16.112 6.44521 14.8879 6.80462C13.6637 7.16404 12.5515 7.82979 11.6564 8.73892C10.7613 9.64804 10.1129 10.7705 9.7725 12.0001H17C17.3978 12.0001 17.7794 12.1581 18.0607 12.4394C18.342 12.7207 18.5 13.1023 18.5 13.5001C18.5 13.8979 18.342 14.2794 18.0607 14.5607C17.7794 14.842 17.3978 15.0001 17 15.0001H9.5V17.0001H15C15.3978 17.0001 15.7794 17.1581 16.0607 17.4394C16.342 17.7207 16.5 18.1023 16.5 18.5001C16.5 18.8979 16.342 19.2794 16.0607 19.5607C15.7794 19.842 15.3978 20.0001 15 20.0001H9.7725C10.1129 21.2297 10.7613 22.3521 11.6564 23.2612C12.5515 24.1704 13.6637 24.8361 14.8879 25.1955C16.112 25.5549 17.4076 25.5961 18.6522 25.3152C19.8967 25.0343 21.0489 24.4405 22 23.5901C22.2964 23.325 22.686 23.1884 23.0831 23.2104C23.4802 23.2325 23.8522 23.4113 24.1175 23.7076Z" fill="black"/>
</svg>
