<svg width="32" height="32" viewBox="0 0 32 32" fill="none" xmlns="http://www.w3.org/2000/svg">
<path d="M22.3925 3.01C20.66 2.03625 18.39 1.5 16 1.5C13.61 1.5 11.34 2.03625 9.6075 3.01C7.60375 4.1375 6.5 5.7325 6.5 7.5V24.5C6.5 26.2675 7.60375 27.8625 9.6075 28.99C11.34 29.9637 13.61 30.5 16 30.5C18.39 30.5 20.66 29.9637 22.3925 28.99C24.3925 27.865 25.5 26.2675 25.5 24.5V7.5C25.5 5.7325 24.3962 4.1375 22.3925 3.01ZM11.0787 5.625C12.35 4.91 14.1438 4.5 16 4.5C17.8562 4.5 19.65 4.91 20.9212 5.625C21.9212 6.19 22.5 6.875 22.5 7.5C22.5 8.125 21.925 8.81 20.9212 9.375C19.65 10.09 17.8562 10.5 16 10.5C14.1438 10.5 12.35 10.09 11.0787 9.375C10.075 8.81 9.5 8.125 9.5 7.5C9.5 6.875 10.075 6.19 11.0787 5.625ZM20.9212 26.375C19.65 27.09 17.8562 27.5 16 27.5C14.1438 27.5 12.35 27.09 11.0787 26.375C10.075 25.81 9.5 25.125 9.5 24.5V11.925L9.6075 11.99C11.34 12.9637 13.61 13.5 16 13.5C18.39 13.5 20.66 12.9637 22.3925 11.99L22.5 11.925V24.5C22.5 25.125 21.925 25.81 20.9212 26.375Z" fill="black"/>
</svg>
