<svg width="32" height="32" viewBox="0 0 32 32" fill="none" xmlns="http://www.w3.org/2000/svg">
<path d="M24.5 4.44C22.2025 3.18875 19.185 2.5 16 2.5C12.815 2.5 9.7975 3.18875 7.5 4.44C4.92125 5.84875 3.5 7.8225 3.5 10V22C3.5 24.1775 4.92125 26.1512 7.5 27.56C9.79375 28.81 12.8112 29.5 16 29.5C19.1888 29.5 22.2025 28.8112 24.5 27.56C27.0825 26.1512 28.5 24.1775 28.5 22V10C28.5 7.8225 27.0788 5.84875 24.5 4.44ZM25.5 16C25.5 18.125 21.5988 20.5 16 20.5C10.4012 20.5 6.5 18.125 6.5 16V14.9425C6.82221 15.1658 7.15601 15.372 7.5 15.56C9.79375 16.81 12.8112 17.5 16 17.5C19.1888 17.5 22.2025 16.8113 24.5 15.56C24.844 15.372 25.1778 15.1658 25.5 14.9425V16ZM16 5.5C21.5988 5.5 25.5 7.875 25.5 10C25.5 12.125 21.5988 14.5 16 14.5C10.4012 14.5 6.5 12.125 6.5 10C6.5 7.875 10.4012 5.5 16 5.5ZM16 26.5C10.4012 26.5 6.5 24.125 6.5 22V20.9425C6.82221 21.1658 7.15601 21.372 7.5 21.56C9.79375 22.81 12.8112 23.5 16 23.5C19.1888 23.5 22.2025 22.8112 24.5 21.56C24.844 21.372 25.1778 21.1658 25.5 20.9425V22C25.5 24.125 21.5988 26.5 16 26.5Z" fill="black"/>
</svg>
