<svg width="32" height="32" viewBox="0 0 32 32" fill="none" xmlns="http://www.w3.org/2000/svg">
<path d="M24.0175 5.31875C21.8675 4.14625 19.02 3.5 16 3.5C12.98 3.5 10.1325 4.14625 7.9825 5.31875C5.73625 6.54375 4.5 8.20625 4.5 10V22C4.5 23.7938 5.73625 25.4562 7.9825 26.6812C10.1325 27.8538 12.9825 28.5 16 28.5C19.0175 28.5 21.8675 27.8538 24.0175 26.6812C26.2675 25.4562 27.5 23.7938 27.5 22V10C27.5 8.20625 26.2638 6.54375 24.0175 5.31875ZM26.5 22C26.5 23.4112 25.4487 24.7625 23.5387 25.8037C21.5337 26.8975 18.8562 27.5 16 27.5C13.1438 27.5 10.4663 26.8975 8.46125 25.8037C6.55125 24.7625 5.5 23.4112 5.5 22V18.685C6.08625 19.4262 6.92125 20.1025 7.9825 20.685C10.1325 21.8575 12.9825 22.5037 16 22.5037C19.0175 22.5037 21.8675 21.8575 24.0175 20.685C25.0788 20.1062 25.9137 19.435 26.5 18.685V22ZM26.5 16C26.5 17.4113 25.4487 18.7625 23.5387 19.8037C21.5337 20.8975 18.8562 21.5 16 21.5C13.1438 21.5 10.4663 20.8975 8.46125 19.8037C6.55125 18.7625 5.5 17.4113 5.5 16V12.685C6.08625 13.4263 6.92125 14.1025 7.9825 14.685C10.1325 15.8575 12.9825 16.5037 16 16.5037C19.0175 16.5037 21.8675 15.8575 24.0175 14.685C25.0788 14.1063 25.9137 13.435 26.5 12.685V16ZM23.5387 13.8038C21.5337 14.8975 18.8562 15.5 16 15.5C13.1438 15.5 10.4663 14.8975 8.46125 13.8038C6.55125 12.7625 5.5 11.4113 5.5 10C5.5 8.58875 6.55125 7.2375 8.46125 6.19625C10.4663 5.1025 13.1438 4.5 16 4.5C18.8562 4.5 21.5337 5.1025 23.5387 6.19625C25.4487 7.2375 26.5 8.58875 26.5 10C26.5 11.4113 25.4487 12.7625 23.5387 13.8038Z" fill="black"/>
</svg>
