<svg width="32" height="32" viewBox="0 0 32 32" fill="none" xmlns="http://www.w3.org/2000/svg">
<path d="M26 4.5H6C5.07174 4.5 4.1815 4.86875 3.52513 5.52513C2.86875 6.1815 2.5 7.07174 2.5 8V21.5C2.5 22.4283 2.86875 23.3185 3.52513 23.9749C4.1815 24.6313 5.07174 25 6 25H14.5V26.5H12C11.6022 26.5 11.2206 26.658 10.9393 26.9393C10.658 27.2206 10.5 27.6022 10.5 28C10.5 28.3978 10.658 28.7794 10.9393 29.0607C11.2206 29.342 11.6022 29.5 12 29.5H20C20.3978 29.5 20.7794 29.342 21.0607 29.0607C21.342 28.7794 21.5 28.3978 21.5 28C21.5 27.6022 21.342 27.2206 21.0607 26.9393C20.7794 26.658 20.3978 26.5 20 26.5H17.5V25H26C26.4596 25 26.9148 24.9095 27.3394 24.7336C27.764 24.5577 28.1499 24.2999 28.4749 23.9749C28.7999 23.6499 29.0577 23.264 29.2336 22.8394C29.4095 22.4148 29.5 21.9596 29.5 21.5V8C29.5 7.54037 29.4095 7.08525 29.2336 6.66061C29.0577 6.23597 28.7999 5.85013 28.4749 5.52513C28.1499 5.20012 27.764 4.94231 27.3394 4.76642C26.9148 4.59053 26.4596 4.5 26 4.5ZM6 7.5H26C26.1326 7.5 26.2598 7.55268 26.3536 7.64645C26.4473 7.74021 26.5 7.86739 26.5 8V17H5.5V8C5.5 7.86739 5.55268 7.74021 5.64645 7.64645C5.74021 7.55268 5.86739 7.5 6 7.5ZM26 22H6C5.86739 22 5.74021 21.9473 5.64645 21.8536C5.55268 21.7598 5.5 21.6326 5.5 21.5V20H26.5V21.5C26.5 21.6326 26.4473 21.7598 26.3536 21.8536C26.2598 21.9473 26.1326 22 26 22Z" fill="black"/>
</svg>
