<svg width="32" height="32" viewBox="0 0 32 32" fill="none" xmlns="http://www.w3.org/2000/svg">
<path d="M30.5 13H27.4013L21.9775 5.53C21.7529 5.22152 21.4607 4.96854 21.1233 4.79044C20.7858 4.61234 20.4121 4.51385 20.0307 4.50251C19.6493 4.49117 19.2704 4.56728 18.9229 4.72501C18.5755 4.88274 18.2688 5.11791 18.0263 5.4125L16.4237 7.27C16.4112 7.28375 16.3988 7.29875 16.3875 7.31375C16.3406 7.37125 16.2815 7.41759 16.2145 7.44942C16.1475 7.48125 16.0742 7.49777 16 7.49777C15.9258 7.49777 15.8525 7.48125 15.7855 7.44942C15.7185 7.41759 15.6594 7.37125 15.6125 7.31375C15.6013 7.29875 15.5887 7.28375 15.5763 7.27L13.9738 5.4125C13.7312 5.11791 13.4245 4.88274 13.0771 4.72501C12.7296 4.56728 12.3507 4.49117 11.9693 4.50251C11.5879 4.51385 11.2142 4.61234 10.8767 4.79044C10.5393 4.96854 10.2471 5.22152 10.0225 5.53L4.59875 13H1.5C1.10218 13 0.720644 13.158 0.43934 13.4393C0.158035 13.7206 0 14.1022 0 14.5C0 14.8978 0.158035 15.2794 0.43934 15.5607C0.720644 15.842 1.10218 16 1.5 16H30.5C30.8978 16 31.2794 15.842 31.5607 15.5607C31.842 15.2794 32 14.8978 32 14.5C32 14.1022 31.842 13.7206 31.5607 13.4393C31.2794 13.158 30.8978 13 30.5 13ZM12.0775 7.80625L13.2887 9.21125C13.617 9.61332 14.0306 9.93736 14.4995 10.1599C14.9684 10.3824 15.481 10.4978 16 10.4978C16.519 10.4978 17.0316 10.3824 17.5005 10.1599C17.9694 9.93736 18.383 9.61332 18.7113 9.21125L19.9225 7.80625L23.6938 13H8.30625L12.0775 7.80625ZM22.5 17.5C21.3478 17.5014 20.2313 17.9 19.3387 18.6287C18.4461 19.3573 17.8321 20.3714 17.6 21.5H14.4C14.1621 20.3301 13.5135 19.284 12.5714 18.5507C11.6293 17.8174 10.456 17.4454 9.26347 17.5019C8.07098 17.5585 6.93808 18.0398 6.06961 18.859C5.20113 19.6781 4.65439 20.7809 4.52826 21.9681C4.40213 23.1552 4.70492 24.3483 5.38188 25.3316C6.05885 26.315 7.06531 27.0236 8.2193 27.3295C9.37328 27.6353 10.5986 27.5182 11.6737 26.9992C12.7489 26.4803 13.6028 25.5938 14.0813 24.5H17.9188C18.2794 25.3262 18.8566 26.0396 19.5895 26.5646C20.3223 27.0896 21.1835 27.4067 22.0818 27.4824C22.9802 27.558 23.8822 27.3894 24.6926 26.9943C25.5029 26.5992 26.1913 25.9924 26.685 25.2381C27.1787 24.4837 27.4592 23.61 27.4969 22.7093C27.5347 21.8085 27.3282 20.9144 26.8993 20.1214C26.4705 19.3285 25.8352 18.6662 25.0607 18.2047C24.2863 17.7433 23.4015 17.4998 22.5 17.5ZM9.5 24.5C9.10444 24.5 8.71776 24.3827 8.38886 24.1629C8.05996 23.9432 7.80362 23.6308 7.65224 23.2654C7.50087 22.8999 7.46126 22.4978 7.53843 22.1098C7.6156 21.7219 7.80608 21.3655 8.08579 21.0858C8.36549 20.8061 8.72186 20.6156 9.10982 20.5384C9.49778 20.4613 9.89991 20.5009 10.2654 20.6522C10.6308 20.8036 10.9432 21.06 11.1629 21.3889C11.3827 21.7178 11.5 22.1044 11.5 22.5C11.5 23.0304 11.2893 23.5391 10.9142 23.9142C10.5391 24.2893 10.0304 24.5 9.5 24.5ZM22.5 24.5C22.1044 24.5 21.7178 24.3827 21.3889 24.1629C21.06 23.9432 20.8036 23.6308 20.6522 23.2654C20.5009 22.8999 20.4613 22.4978 20.5384 22.1098C20.6156 21.7219 20.8061 21.3655 21.0858 21.0858C21.3655 20.8061 21.7219 20.6156 22.1098 20.5384C22.4978 20.4613 22.8999 20.5009 23.2654 20.6522C23.6308 20.8036 23.9432 21.06 24.1629 21.3889C24.3827 21.7178 24.5 22.1044 24.5 22.5C24.5 23.0304 24.2893 23.5391 23.9142 23.9142C23.5391 24.2893 23.0304 24.5 22.5 24.5Z" fill="black"/>
</svg>
