<svg width="32" height="32" viewBox="0 0 32 32" fill="none" xmlns="http://www.w3.org/2000/svg">
<path d="M31 14.5H27.25L21.1688 6.12499C21.0336 5.93954 20.8576 5.78759 20.6544 5.68083C20.4513 5.57408 20.2263 5.51536 19.9969 5.5092C19.7675 5.50304 19.5397 5.54961 19.3311 5.64532C19.1226 5.74102 18.9387 5.88331 18.7938 6.06124L17.1812 7.92249L17.1688 7.93749C17.0282 8.11223 16.8502 8.25323 16.6479 8.3501C16.4457 8.44698 16.2243 8.49726 16 8.49726C15.7757 8.49726 15.5543 8.44698 15.3521 8.3501C15.1498 8.25323 14.9718 8.11223 14.8313 7.93749L14.8188 7.92249L13.2075 6.05499C13.0625 5.87706 12.8787 5.73477 12.6701 5.63906C12.4615 5.54336 12.2337 5.49679 12.0043 5.50295C11.7749 5.50911 11.55 5.56783 11.3468 5.67458C11.1437 5.78134 10.9677 5.93329 10.8325 6.11874L4.75 14.5H1C0.867392 14.5 0.740215 14.5527 0.646447 14.6464C0.552678 14.7402 0.5 14.8674 0.5 15C0.5 15.1326 0.552678 15.2598 0.646447 15.3535C0.740215 15.4473 0.867392 15.5 1 15.5H31C31.1326 15.5 31.2598 15.4473 31.3536 15.3535C31.4473 15.2598 31.5 15.1326 31.5 15C31.5 14.8674 31.4473 14.7402 31.3536 14.6464C31.2598 14.5527 31.1326 14.5 31 14.5ZM11.6412 6.70624C11.6863 6.64416 11.745 6.59327 11.8128 6.5575C11.8807 6.52174 11.9558 6.50206 12.0325 6.49999C12.1091 6.49852 12.185 6.51466 12.2543 6.54717C12.3237 6.57968 12.3846 6.62769 12.4325 6.68749L12.445 6.70249L14.0562 8.56999C14.2895 8.86109 14.5854 9.09587 14.922 9.25688C15.2585 9.41788 15.627 9.50098 16 9.49999C16.373 9.50098 16.7415 9.41788 17.078 9.25688C17.4146 9.09587 17.7105 8.86109 17.9438 8.56999L19.555 6.70249L19.5675 6.68749C19.6157 6.62811 19.6768 6.5804 19.746 6.54793C19.8153 6.51546 19.891 6.49908 19.9675 6.49999C20.0442 6.50206 20.1193 6.52174 20.1872 6.5575C20.255 6.59327 20.3137 6.64416 20.3587 6.70624L26.0187 14.5H5.98125L11.6412 6.70624ZM22.5 18.5C21.4391 18.5 20.4217 18.9214 19.6716 19.6716C18.9214 20.4217 18.5 21.4391 18.5 22.5H13.5C13.498 21.4828 13.1086 20.5046 12.411 19.7644C11.7133 19.0242 10.7599 18.5775 9.74466 18.5153C8.7294 18.4531 7.72857 18.78 6.94578 19.4295C6.163 20.079 5.65706 21.0024 5.5309 22.0117C5.40473 23.021 5.66782 24.0404 6.26664 24.8627C6.86546 25.6849 7.75502 26.2481 8.75436 26.4377C9.75369 26.6273 10.7877 26.4291 11.6461 25.8833C12.5045 25.3376 13.1227 24.4854 13.375 23.5H18.625C18.812 24.2243 19.1984 24.8816 19.7402 25.3974C20.2821 25.9131 20.9577 26.2666 21.6903 26.4176C22.423 26.5686 23.1833 26.5112 23.8849 26.2518C24.5866 25.9925 25.2014 25.5415 25.6596 24.9503C26.1179 24.359 26.4011 23.6511 26.4772 22.9069C26.5533 22.1628 26.4192 21.4122 26.0902 20.7404C25.7611 20.0686 25.2502 19.5026 24.6156 19.1065C23.981 18.7105 23.248 18.5004 22.5 18.5ZM9.5 25.5C8.90666 25.5 8.32664 25.324 7.83329 24.9944C7.33994 24.6648 6.95542 24.1962 6.72836 23.648C6.5013 23.0999 6.44189 22.4967 6.55764 21.9147C6.6734 21.3328 6.95912 20.7982 7.37868 20.3787C7.79824 19.9591 8.33279 19.6734 8.91473 19.5576C9.49667 19.4419 10.0999 19.5013 10.6481 19.7284C11.1962 19.9554 11.6648 20.3399 11.9944 20.8333C12.3241 21.3266 12.5 21.9066 12.5 22.5C12.5 23.2956 12.1839 24.0587 11.6213 24.6213C11.0587 25.1839 10.2956 25.5 9.5 25.5ZM22.5 25.5C21.9067 25.5 21.3266 25.324 20.8333 24.9944C20.3399 24.6648 19.9554 24.1962 19.7284 23.648C19.5013 23.0999 19.4419 22.4967 19.5576 21.9147C19.6734 21.3328 19.9591 20.7982 20.3787 20.3787C20.7982 19.9591 21.3328 19.6734 21.9147 19.5576C22.4967 19.4419 23.0999 19.5013 23.6481 19.7284C24.1962 19.9554 24.6648 20.3399 24.9944 20.8333C25.3241 21.3266 25.5 21.9066 25.5 22.5C25.5 23.2956 25.1839 24.0587 24.6213 24.6213C24.0587 25.1839 23.2956 25.5 22.5 25.5Z" fill="black"/>
</svg>
