<svg width="32" height="32" viewBox="0 0 32 32" fill="none" xmlns="http://www.w3.org/2000/svg">
<path d="M22 1.5H10C9.07174 1.5 8.1815 1.86875 7.52513 2.52513C6.86875 3.1815 6.5 4.07174 6.5 5V27C6.5 27.9283 6.86875 28.8185 7.52513 29.4749C8.1815 30.1313 9.07174 30.5 10 30.5H22C22.9283 30.5 23.8185 30.1313 24.4749 29.4749C25.1313 28.8185 25.5 27.9283 25.5 27V5C25.5 4.07174 25.1313 3.1815 24.4749 2.52513C23.8185 1.86875 22.9283 1.5 22 1.5ZM22.5 27C22.5 27.1326 22.4473 27.2598 22.3536 27.3536C22.2598 27.4473 22.1326 27.5 22 27.5H10C9.86739 27.5 9.74021 27.4473 9.64645 27.3536C9.55268 27.2598 9.5 27.1326 9.5 27V5C9.5 4.86739 9.55268 4.74021 9.64645 4.64645C9.74021 4.55268 9.86739 4.5 10 4.5H22C22.1326 4.5 22.2598 4.55268 22.3536 4.64645C22.4473 4.74021 22.5 4.86739 22.5 5V27ZM18 8.5C18 8.89556 17.8827 9.28224 17.6629 9.61114C17.4432 9.94004 17.1308 10.1964 16.7654 10.3478C16.3999 10.4991 15.9978 10.5387 15.6098 10.4616C15.2219 10.3844 14.8655 10.1939 14.5858 9.91421C14.3061 9.63451 14.1156 9.27814 14.0384 8.89018C13.9613 8.50222 14.0009 8.10009 14.1522 7.73463C14.3036 7.36918 14.56 7.05682 14.8889 6.83706C15.2178 6.6173 15.6044 6.5 16 6.5C16.5304 6.5 17.0391 6.71071 17.4142 7.08579C17.7893 7.46086 18 7.96957 18 8.5Z" fill="black"/>
</svg>
