<svg width="32" height="32" viewBox="0 0 32 32" fill="none" xmlns="http://www.w3.org/2000/svg">
<path d="M24 2.5H8C7.07174 2.5 6.1815 2.86875 5.52513 3.52513C4.86875 4.1815 4.5 5.07174 4.5 6V26C4.5 26.4596 4.59053 26.9148 4.76642 27.3394C4.94231 27.764 5.20012 28.1499 5.52513 28.4749C5.85013 28.7999 6.23597 29.0577 6.66061 29.2336C7.08525 29.4095 7.54037 29.5 8 29.5H24C24.4596 29.5 24.9148 29.4095 25.3394 29.2336C25.764 29.0577 26.1499 28.7999 26.4749 28.4749C26.7999 28.1499 27.0577 27.764 27.2336 27.3394C27.4095 26.9148 27.5 26.4596 27.5 26V6C27.5 5.07174 27.1313 4.1815 26.4749 3.52513C25.8185 2.86875 24.9283 2.5 24 2.5ZM24.5 26C24.5 26.1326 24.4473 26.2598 24.3536 26.3536C24.2598 26.4473 24.1326 26.5 24 26.5H8C7.86739 26.5 7.74021 26.4473 7.64645 26.3536C7.55268 26.2598 7.5 26.1326 7.5 26V6C7.5 5.86739 7.55268 5.74021 7.64645 5.64645C7.74021 5.55268 7.86739 5.5 8 5.5H24C24.1326 5.5 24.2598 5.55268 24.3536 5.64645C24.4473 5.74021 24.5 5.86739 24.5 6V26ZM18 9.5C18 9.89556 17.8827 10.2822 17.6629 10.6111C17.4432 10.94 17.1308 11.1964 16.7654 11.3478C16.3999 11.4991 15.9978 11.5387 15.6098 11.4616C15.2219 11.3844 14.8655 11.1939 14.5858 10.9142C14.3061 10.6345 14.1156 10.2781 14.0384 9.89018C13.9613 9.50222 14.0009 9.10009 14.1522 8.73463C14.3036 8.36918 14.56 8.05682 14.8889 7.83706C15.2178 7.6173 15.6044 7.5 16 7.5C16.5304 7.5 17.0391 7.71071 17.4142 8.08579C17.7893 8.46086 18 8.96957 18 9.5Z" fill="black"/>
</svg>
