<svg width="32" height="32" viewBox="0 0 32 32" fill="none" xmlns="http://www.w3.org/2000/svg">
<path d="M22 1.5H10C9.07174 1.5 8.1815 1.86875 7.52513 2.52513C6.86875 3.1815 6.5 4.07174 6.5 5V27C6.5 27.9283 6.86875 28.8185 7.52513 29.4749C8.1815 30.1313 9.07174 30.5 10 30.5H22C22.9283 30.5 23.8185 30.1313 24.4749 29.4749C25.1313 28.8185 25.5 27.9283 25.5 27V5C25.5 4.07174 25.1313 3.1815 24.4749 2.52513C23.8185 1.86875 22.9283 1.5 22 1.5ZM22.5 27C22.5 27.1326 22.4473 27.2598 22.3536 27.3536C22.2598 27.4473 22.1326 27.5 22 27.5H10C9.86739 27.5 9.74021 27.4473 9.64645 27.3536C9.55268 27.2598 9.5 27.1326 9.5 27V5C9.5 4.86739 9.55268 4.74021 9.64645 4.64645C9.74021 4.55268 9.86739 4.5 10 4.5H22C22.1326 4.5 22.2598 4.55268 22.3536 4.64645C22.4473 4.74021 22.5 4.86739 22.5 5V27ZM20.5 8C20.5 8.39782 20.342 8.77936 20.0607 9.06066C19.7794 9.34196 19.3978 9.5 19 9.5H13C12.6022 9.5 12.2206 9.34196 11.9393 9.06066C11.658 8.77936 11.5 8.39782 11.5 8C11.5 7.60218 11.658 7.22064 11.9393 6.93934C12.2206 6.65804 12.6022 6.5 13 6.5H19C19.3978 6.5 19.7794 6.65804 20.0607 6.93934C20.342 7.22064 20.5 7.60218 20.5 8Z" fill="black"/>
</svg>
