<svg width="32" height="32" viewBox="0 0 32 32" fill="none" xmlns="http://www.w3.org/2000/svg">
<path d="M24 2.5H8C7.07174 2.5 6.1815 2.86875 5.52513 3.52513C4.86875 4.1815 4.5 5.07174 4.5 6V26C4.5 26.4596 4.59053 26.9148 4.76642 27.3394C4.94231 27.764 5.20012 28.1499 5.52513 28.4749C5.85013 28.7999 6.23597 29.0577 6.66061 29.2336C7.08525 29.4095 7.54037 29.5 8 29.5H24C24.4596 29.5 24.9148 29.4095 25.3394 29.2336C25.764 29.0577 26.1499 28.7999 26.4749 28.4749C26.7999 28.1499 27.0577 27.764 27.2336 27.3394C27.4095 26.9148 27.5 26.4596 27.5 26V6C27.5 5.07174 27.1313 4.1815 26.4749 3.52513C25.8185 2.86875 24.9283 2.5 24 2.5ZM24.5 26C24.5 26.1326 24.4473 26.2598 24.3536 26.3536C24.2598 26.4473 24.1326 26.5 24 26.5H8C7.86739 26.5 7.74021 26.4473 7.64645 26.3536C7.55268 26.2598 7.5 26.1326 7.5 26V6C7.5 5.86739 7.55268 5.74021 7.64645 5.64645C7.74021 5.55268 7.86739 5.5 8 5.5H24C24.1326 5.5 24.2598 5.55268 24.3536 5.64645C24.4473 5.74021 24.5 5.86739 24.5 6V26ZM21.5 9C21.5 9.39782 21.342 9.77936 21.0607 10.0607C20.7794 10.342 20.3978 10.5 20 10.5H12C11.6022 10.5 11.2206 10.342 10.9393 10.0607C10.658 9.77936 10.5 9.39782 10.5 9C10.5 8.60218 10.658 8.22064 10.9393 7.93934C11.2206 7.65804 11.6022 7.5 12 7.5H20C20.3978 7.5 20.7794 7.65804 21.0607 7.93934C21.342 8.22064 21.5 8.60218 21.5 9Z" fill="black"/>
</svg>
