<svg width="32" height="32" viewBox="0 0 32 32" fill="none" xmlns="http://www.w3.org/2000/svg">
<path d="M28 9H26.5V8C26.5 7.07174 26.1313 6.1815 25.4749 5.52513C24.8185 4.86875 23.9283 4.5 23 4.5H5C4.07174 4.5 3.1815 4.86875 2.52513 5.52513C1.86875 6.1815 1.5 7.07174 1.5 8V19C1.5 19.9283 1.86875 20.8185 2.52513 21.4749C3.1815 22.1313 4.07174 22.5 5 22.5H17V24C17 24.9283 17.3687 25.8185 18.0251 26.4749C18.6815 27.1313 19.5717 27.5 20.5 27.5H28C28.9283 27.5 29.8185 27.1313 30.4749 26.4749C31.1313 25.8185 31.5 24.9283 31.5 24V12.5C31.5 11.5717 31.1313 10.6815 30.4749 10.0251C29.8185 9.36875 28.9283 9 28 9ZM5 19.5C4.86739 19.5 4.74021 19.4473 4.64645 19.3536C4.55268 19.2598 4.5 19.1326 4.5 19V8C4.5 7.86739 4.55268 7.74021 4.64645 7.64645C4.74021 7.55268 4.86739 7.5 5 7.5H23C23.1326 7.5 23.2598 7.55268 23.3536 7.64645C23.4473 7.74021 23.5 7.86739 23.5 8V9H20.5C19.5717 9 18.6815 9.36875 18.0251 10.0251C17.3687 10.6815 17 11.5717 17 12.5V19.5H5ZM28.5 24C28.5 24.1326 28.4473 24.2598 28.3536 24.3536C28.2598 24.4473 28.1326 24.5 28 24.5H20.5C20.3674 24.5 20.2402 24.4473 20.1464 24.3536C20.0527 24.2598 20 24.1326 20 24V12.5C20 12.3674 20.0527 12.2402 20.1464 12.1464C20.2402 12.0527 20.3674 12 20.5 12H28C28.1326 12 28.2598 12.0527 28.3536 12.1464C28.4473 12.2402 28.5 12.3674 28.5 12.5V24ZM15.5 26C15.5 26.3978 15.342 26.7794 15.0607 27.0607C14.7794 27.342 14.3978 27.5 14 27.5H11C10.6022 27.5 10.2206 27.342 9.93934 27.0607C9.65804 26.7794 9.5 26.3978 9.5 26C9.5 25.6022 9.65804 25.2206 9.93934 24.9393C10.2206 24.658 10.6022 24.5 11 24.5H14C14.3978 24.5 14.7794 24.658 15.0607 24.9393C15.342 25.2206 15.5 25.6022 15.5 26ZM26.5 15.5C26.5 15.8978 26.342 16.2794 26.0607 16.5607C25.7794 16.842 25.3978 17 25 17H23.5C23.1022 17 22.7206 16.842 22.4393 16.5607C22.158 16.2794 22 15.8978 22 15.5C22 15.1022 22.158 14.7206 22.4393 14.4393C22.7206 14.158 23.1022 14 23.5 14H25C25.3978 14 25.7794 14.158 26.0607 14.4393C26.342 14.7206 26.5 15.1022 26.5 15.5Z" fill="black"/>
</svg>
