<svg width="32" height="32" viewBox="0 0 32 32" fill="none" xmlns="http://www.w3.org/2000/svg">
<path d="M14.2499 12.7725C14.7156 13.2376 15.3468 13.4987 16.0049 13.4987C16.6631 13.4987 17.2943 13.2376 17.7599 12.7725L21.2737 9.25004C21.7386 8.78457 21.9998 8.15357 21.9998 7.49567C21.9998 6.83777 21.7386 6.20677 21.2737 5.74129L17.7499 2.22504C17.2839 1.76064 16.6529 1.49988 15.9949 1.49988C15.337 1.49988 14.706 1.76064 14.2399 2.22504L10.7262 5.75004C10.2613 6.21552 10.0001 6.84652 10.0001 7.50442C10.0001 8.16232 10.2613 8.79332 10.7262 9.25879L14.2499 12.7725ZM15.9999 4.71379L18.7849 7.50004L15.9999 10.285L13.2149 7.50004L15.9999 4.71379ZM29.7737 14.25L26.2499 10.7263C25.7841 10.2616 25.153 10.0006 24.4949 10.0006C23.8369 10.0006 23.2058 10.2616 22.7399 10.7263L19.2262 14.25C18.7612 14.7157 18.5 15.3469 18.5 16.005C18.5 16.6631 18.7612 17.2944 19.2262 17.76L22.7499 21.2738C23.216 21.7382 23.847 21.999 24.5049 21.999C25.1629 21.999 25.7939 21.7382 26.2599 21.2738L29.7737 17.75C30.2387 17.2844 30.4999 16.6532 30.4999 15.995C30.4999 15.3369 30.2387 14.7057 29.7737 14.24V14.25ZM24.4999 18.785L21.7149 16L24.4999 13.215L27.2849 16L24.4999 18.785ZM13.4999 16C13.5002 15.6749 13.4362 15.3529 13.3116 15.0525C13.1869 14.7522 13.0041 14.4795 12.7737 14.25L9.24995 10.7263C8.7841 10.2616 8.15295 10.0006 7.49495 10.0006C6.83694 10.0006 6.2058 10.2616 5.73995 10.7263L2.2262 14.25C1.76118 14.7157 1.5 15.3469 1.5 16.005C1.5 16.6631 1.76118 17.2944 2.2262 17.76L5.74995 21.2738C6.21596 21.7382 6.84704 21.999 7.50495 21.999C8.16285 21.999 8.79394 21.7382 9.25995 21.2738L12.7737 17.75C13.0041 17.5206 13.1869 17.2479 13.3116 16.9476C13.4362 16.6472 13.5002 16.3252 13.4999 16ZM7.49995 18.785L4.71495 16L7.49995 13.215L10.2849 16L7.49995 18.785ZM17.7499 19.2263C17.2839 18.7619 16.6529 18.5011 15.9949 18.5011C15.337 18.5011 14.706 18.7619 14.2399 19.2263L10.7262 22.75C10.2613 23.2155 10.0001 23.8465 10.0001 24.5044C10.0001 25.1623 10.2613 25.7933 10.7262 26.2588L14.2499 29.775C14.716 30.2394 15.347 30.5002 16.0049 30.5002C16.6629 30.5002 17.2939 30.2394 17.7599 29.775L21.2737 26.25C21.7386 25.7846 21.9998 25.1536 21.9998 24.4957C21.9998 23.8378 21.7386 23.2068 21.2737 22.7413L17.7499 19.2263ZM15.9999 27.2863L13.2149 24.5L15.9999 21.715L18.7849 24.5L15.9999 27.2863Z" fill="black"/>
</svg>
