<svg width="32" height="32" viewBox="0 0 32 32" fill="none" xmlns="http://www.w3.org/2000/svg">
<path opacity="0.08" d="M28.7087 16.7025L16.7087 28.7025C16.6165 28.7949 16.507 28.8682 16.3865 28.9182C16.2659 28.9682 16.1367 28.9939 16.0062 28.9939C15.8757 28.9939 15.7465 28.9682 15.626 28.9182C15.5054 28.8682 15.3959 28.7949 15.3037 28.7025L3.30372 16.7025C3.21135 16.6103 3.13807 16.5008 3.08807 16.3803C3.03807 16.2597 3.01233 16.1305 3.01233 16C3.01233 15.8695 3.03807 15.7403 3.08807 15.6197C3.13807 15.4992 3.21135 15.3897 3.30372 15.2975L15.31 3.2975C15.4022 3.20513 15.5117 3.13184 15.6322 3.08184C15.7527 3.03184 15.882 3.0061 16.0125 3.0061C16.143 3.0061 16.2722 3.03184 16.3927 3.08184C16.5133 3.13184 16.6228 3.20513 16.715 3.2975L28.715 15.3037C28.8988 15.4905 29.0013 15.7424 29.0001 16.0044C28.999 16.2665 28.8942 16.5174 28.7087 16.7025Z" fill="black"/>
<path d="M29.4163 14.59L17.41 2.5825C17.0353 2.21 16.5284 2.00092 16 2.00092C15.4716 2.00092 14.9647 2.21 14.59 2.5825L2.59001 14.59C2.21751 14.9647 2.00842 15.4716 2.00842 16C2.00842 16.5284 2.21751 17.0353 2.59001 17.41L14.5963 29.4175C14.971 29.79 15.4779 29.9991 16.0063 29.9991C16.5346 29.9991 17.0415 29.79 17.4163 29.4175L29.4225 17.41C29.795 17.0353 30.0041 16.5284 30.0041 16C30.0041 15.4716 29.795 14.9647 29.4225 14.59H29.4163ZM16 28L4.00001 16L16 4L28 16L16 28Z" fill="black"/>
</svg>
