<svg width="32" height="32" viewBox="0 0 32 32" fill="none" xmlns="http://www.w3.org/2000/svg">
<path d="M14.6987 13.2112C15.0443 13.5555 15.5122 13.7488 16 13.7488C16.4878 13.7488 16.9557 13.5555 17.3012 13.2112L21.2112 9.3012C21.5559 8.95559 21.7494 8.48741 21.7494 7.99933C21.7494 7.51124 21.5559 7.04307 21.2112 6.69745L17.3012 2.78745C16.9558 2.44289 16.4879 2.24939 16 2.24939C15.5121 2.24939 15.0441 2.44289 14.6987 2.78745L10.7887 6.69745C10.4441 7.04307 10.2506 7.51124 10.2506 7.99933C10.2506 8.48741 10.4441 8.95559 10.7887 9.3012L14.6987 13.2112ZM11.85 7.7587L15.7587 3.8487C15.8229 3.78504 15.9096 3.74932 16 3.74932C16.0904 3.74932 16.1771 3.78504 16.2412 3.8487L20.15 7.7587C20.1818 7.7902 20.207 7.82768 20.2242 7.86898C20.2414 7.91028 20.2503 7.95458 20.2503 7.99933C20.2503 8.04407 20.2414 8.08838 20.2242 8.12968C20.207 8.17098 20.1818 8.20846 20.15 8.23995L16.2412 12.15C16.1771 12.2136 16.0904 12.2493 16 12.2493C15.9096 12.2493 15.8229 12.2136 15.7587 12.15L11.85 8.23995C11.8182 8.20846 11.793 8.17098 11.7757 8.12968C11.7585 8.08838 11.7497 8.04407 11.7497 7.99933C11.7497 7.95458 11.7585 7.91028 11.7757 7.86898C11.793 7.82768 11.8182 7.7902 11.85 7.7587ZM29.2112 14.6987L25.3012 10.7887C24.9558 10.4441 24.4879 10.2506 24 10.2506C23.5121 10.2506 23.0441 10.4441 22.6987 10.7887L18.7887 14.6987C18.4442 15.0441 18.2507 15.5121 18.2507 16C18.2507 16.4878 18.4442 16.9558 18.7887 17.3012L22.6987 21.2112C23.0442 21.5561 23.5124 21.7499 24.0006 21.7499C24.4888 21.7499 24.957 21.5561 25.3025 21.2112L29.2112 17.3012C29.3821 17.1303 29.5177 16.9275 29.6102 16.7042C29.7027 16.4809 29.7503 16.2416 29.7503 16C29.7503 15.7583 29.7027 15.519 29.6102 15.2957C29.5177 15.0724 29.3821 14.8696 29.2112 14.6987ZM28.1512 16.2412L24.2412 20.15C24.2097 20.1817 24.1723 20.207 24.131 20.2242C24.0897 20.2414 24.0454 20.2503 24.0006 20.2503C23.9559 20.2503 23.9116 20.2414 23.8703 20.2242C23.829 20.207 23.7915 20.1817 23.76 20.15L19.85 16.2412C19.7863 16.177 19.7506 16.0903 19.7506 16C19.7506 15.9096 19.7863 15.8229 19.85 15.7587L23.76 11.85C23.7916 11.8183 23.8291 11.7932 23.8704 11.7761C23.9116 11.759 23.9559 11.7502 24.0006 11.7502C24.0453 11.7502 24.0896 11.759 24.1309 11.7761C24.1721 11.7932 24.2097 11.8183 24.2412 11.85L28.1512 15.76C28.2145 15.8241 28.25 15.9105 28.25 16.0006C28.25 16.0907 28.2145 16.1771 28.1512 16.2412ZM13.2112 14.6987L9.30123 10.7887C8.95561 10.4441 8.48744 10.2505 7.99936 10.2505C7.51127 10.2505 7.0431 10.4441 6.69748 10.7887L2.78873 14.6987C2.61782 14.8696 2.48224 15.0724 2.38974 15.2957C2.29724 15.519 2.24963 15.7583 2.24963 16C2.24963 16.2416 2.29724 16.4809 2.38974 16.7042C2.48224 16.9275 2.61782 17.1303 2.78873 17.3012L6.69748 21.2112C7.04272 21.5561 7.51075 21.7498 7.99873 21.7498C8.48671 21.7498 8.95474 21.5561 9.29998 21.2112L13.21 17.3012C13.5547 16.956 13.7484 16.4881 13.7487 16.0002C13.7489 15.5123 13.5556 15.0443 13.2112 14.6987ZM12.15 16.2412L8.23998 20.15C8.20849 20.1817 8.17101 20.207 8.12971 20.2242C8.0884 20.2414 8.0441 20.2503 7.99936 20.2503C7.95461 20.2503 7.91031 20.2414 7.86901 20.2242C7.82771 20.207 7.79023 20.1817 7.75873 20.15L3.84873 16.2412C3.78507 16.177 3.74935 16.0903 3.74935 16C3.74935 15.9096 3.78507 15.8229 3.84873 15.7587L7.75873 11.85C7.79031 11.8183 7.82782 11.7932 7.86911 11.7761C7.9104 11.759 7.95466 11.7502 7.99936 11.7502C8.04405 11.7502 8.08832 11.759 8.1296 11.7761C8.17089 11.7932 8.2084 11.8183 8.23998 11.85L12.15 15.7587C12.2136 15.8229 12.2494 15.9096 12.2494 16C12.2494 16.0903 12.2136 16.177 12.15 16.2412ZM17.3012 18.7887C16.9558 18.4441 16.4879 18.2506 16 18.2506C15.5121 18.2506 15.0441 18.4441 14.6987 18.7887L10.7887 22.6987C10.4442 23.0441 10.2507 23.5121 10.2507 24C10.2507 24.4878 10.4442 24.9558 10.7887 25.3012L14.6987 29.2112C15.0441 29.5558 15.5121 29.7493 16 29.7493C16.4879 29.7493 16.9558 29.5558 17.3012 29.2112L21.2112 25.3012C21.5558 24.9558 21.7493 24.4878 21.7493 24C21.7493 23.5121 21.5558 23.0441 21.2112 22.6987L17.3012 18.7887ZM20.15 24.2412L16.2412 28.1512C16.1771 28.2149 16.0904 28.2506 16 28.2506C15.9096 28.2506 15.8229 28.2149 15.7587 28.1512L11.85 24.2412C11.8182 24.2097 11.793 24.1722 11.7757 24.1309C11.7585 24.0896 11.7497 24.0453 11.7497 24.0006C11.7497 23.9558 11.7585 23.9115 11.7757 23.8702C11.793 23.8289 11.8182 23.7914 11.85 23.76L15.7587 19.85C15.8229 19.7863 15.9096 19.7506 16 19.7506C16.0904 19.7506 16.1771 19.7863 16.2412 19.85L20.15 23.76C20.1818 23.7914 20.207 23.8289 20.2242 23.8702C20.2414 23.9115 20.2503 23.9558 20.2503 24.0006C20.2503 24.0453 20.2414 24.0896 20.2242 24.1309C20.207 24.1722 20.1818 24.2097 20.15 24.2412Z" fill="black"/>
</svg>
