<svg width="32" height="32" viewBox="0 0 32 32" fill="none" xmlns="http://www.w3.org/2000/svg">
<path d="M14.875 13.0337C15.1738 13.3314 15.5783 13.4986 16 13.4986C16.4218 13.4986 16.8263 13.3314 17.125 13.0337L21.0338 9.12497C21.1818 8.97739 21.2992 8.80204 21.3793 8.609C21.4595 8.41595 21.5007 8.20899 21.5007 7.99997C21.5007 7.79096 21.4595 7.584 21.3793 7.39095C21.2992 7.1979 21.1818 7.02256 21.0338 6.87497L17.125 2.96497C16.8263 2.66728 16.4218 2.50012 16 2.50012C15.5783 2.50012 15.1738 2.66728 14.875 2.96497L10.9663 6.87497C10.8183 7.02256 10.7008 7.1979 10.6207 7.39095C10.5406 7.584 10.4994 7.79096 10.4994 7.99997C10.4994 8.20899 10.5406 8.41595 10.6207 8.609C10.7008 8.80204 10.8183 8.97739 10.9663 9.12497L14.875 13.0337ZM11.6725 7.58247L15.5825 3.67247C15.6934 3.56194 15.8435 3.49988 16 3.49988C16.1566 3.49988 16.3067 3.56194 16.4175 3.67247L20.3275 7.58247C20.4381 7.69331 20.5001 7.84345 20.5001 7.99997C20.5001 8.1565 20.4381 8.30664 20.3275 8.41747L16.4175 12.3262C16.3628 12.3813 16.2978 12.4249 16.2261 12.4547C16.1545 12.4845 16.0776 12.4999 16 12.4999C15.9224 12.4999 15.8456 12.4845 15.7739 12.4547C15.7023 12.4249 15.6372 12.3813 15.5825 12.3262L11.6725 8.41747C11.562 8.30664 11.4999 8.1565 11.4999 7.99997C11.4999 7.84345 11.562 7.69331 11.6725 7.58247ZM29.0338 14.875L25.125 10.965C24.8263 10.6673 24.4218 10.5001 24 10.5001C23.5783 10.5001 23.1738 10.6673 22.875 10.965L18.9663 14.875C18.8184 15.0226 18.7011 15.198 18.6211 15.391C18.5411 15.5841 18.4999 15.791 18.4999 16C18.4999 16.2089 18.5411 16.4159 18.6211 16.6089C18.7011 16.8019 18.8184 16.9773 18.9663 17.125L22.875 21.035C23.1738 21.3327 23.5783 21.4998 24 21.4998C24.4218 21.4998 24.8263 21.3327 25.125 21.035L29.0338 17.125C29.1816 16.9773 29.2989 16.8019 29.379 16.6089C29.459 16.4159 29.5002 16.2089 29.5002 16C29.5002 15.791 29.459 15.5841 29.379 15.391C29.2989 15.198 29.1816 15.0226 29.0338 14.875ZM28.3275 16.4175L24.4175 20.3275C24.3067 20.438 24.1566 20.5001 24 20.5001C23.8435 20.5001 23.6934 20.438 23.5825 20.3275L19.6725 16.4175C19.562 16.3066 19.4999 16.1565 19.4999 16C19.4999 15.8434 19.562 15.6933 19.6725 15.5825L23.5825 11.6725C23.6934 11.5619 23.8435 11.4999 24 11.4999C24.1566 11.4999 24.3067 11.5619 24.4175 11.6725L28.3275 15.5825C28.4381 15.6933 28.5001 15.8434 28.5001 16C28.5001 16.1565 28.4381 16.3066 28.3275 16.4175ZM13.5 16C13.5007 15.7909 13.4598 15.5838 13.3797 15.3907C13.2997 15.1976 13.1821 15.0223 13.0338 14.875L9.12503 10.965C8.8263 10.6673 8.42176 10.5001 8.00003 10.5001C7.5783 10.5001 7.17375 10.6673 6.87503 10.965L2.96628 14.875C2.81842 15.0226 2.70113 15.198 2.6211 15.391C2.54107 15.5841 2.49988 15.791 2.49988 16C2.49988 16.2089 2.54107 16.4159 2.6211 16.6089C2.70113 16.8019 2.81842 16.9773 2.96628 17.125L6.87503 21.035C7.17375 21.3327 7.5783 21.4998 8.00003 21.4998C8.42176 21.4998 8.8263 21.3327 9.12503 21.035L13.0338 17.125C13.1821 16.9777 13.2997 16.8024 13.3797 16.6092C13.4598 16.4161 13.5007 16.209 13.5 16ZM12.3275 16.4175L8.41753 20.3275C8.30669 20.438 8.15656 20.5001 8.00003 20.5001C7.8435 20.5001 7.69336 20.438 7.58253 20.3275L3.67253 16.4175C3.562 16.3066 3.49993 16.1565 3.49993 16C3.49993 15.8434 3.562 15.6933 3.67253 15.5825L7.58253 11.6725C7.69336 11.5619 7.8435 11.4999 8.00003 11.4999C8.15656 11.4999 8.30669 11.5619 8.41753 11.6725L12.3275 15.5825C12.4381 15.6933 12.5001 15.8434 12.5001 16C12.5001 16.1565 12.4381 16.3066 12.3275 16.4175ZM17.125 18.9662C16.8263 18.6685 16.4218 18.5014 16 18.5014C15.5783 18.5014 15.1738 18.6685 14.875 18.9662L10.9663 22.875C10.8183 23.0226 10.7008 23.1979 10.6207 23.3909C10.5406 23.584 10.4994 23.791 10.4994 24C10.4994 24.209 10.5406 24.4159 10.6207 24.609C10.7008 24.802 10.8183 24.9774 10.9663 25.125L14.875 29.035C15.1738 29.3327 15.5783 29.4998 16 29.4998C16.4218 29.4998 16.8263 29.3327 17.125 29.035L21.0338 25.125C21.1818 24.9774 21.2992 24.802 21.3793 24.609C21.4595 24.4159 21.5007 24.209 21.5007 24C21.5007 23.791 21.4595 23.584 21.3793 23.3909C21.2992 23.1979 21.1818 23.0226 21.0338 22.875L17.125 18.9662ZM20.3275 24.4175L16.4175 28.3275C16.3067 28.438 16.1566 28.5001 16 28.5001C15.8435 28.5001 15.6934 28.438 15.5825 28.3275L11.6725 24.4175C11.562 24.3066 11.4999 24.1565 11.4999 24C11.4999 23.8434 11.562 23.6933 11.6725 23.5825L15.5825 19.6737C15.6373 19.6188 15.7024 19.5753 15.774 19.5456C15.8457 19.5159 15.9225 19.5006 16 19.5006C16.0776 19.5006 16.1544 19.5159 16.226 19.5456C16.2977 19.5753 16.3627 19.6188 16.4175 19.6737L20.3275 23.5837C20.4381 23.6946 20.5001 23.8447 20.5001 24.0012C20.5001 24.1577 20.4381 24.3079 20.3275 24.4187V24.4175Z" fill="black"/>
</svg>
