<svg width="32" height="32" viewBox="0 0 32 32" fill="none" xmlns="http://www.w3.org/2000/svg">
<path d="M24 3.5H8C6.80653 3.5 5.66193 3.97411 4.81802 4.81802C3.97411 5.66193 3.5 6.80653 3.5 8V24C3.5 25.1935 3.97411 26.3381 4.81802 27.182C5.66193 28.0259 6.80653 28.5 8 28.5H24C25.1935 28.5 26.3381 28.0259 27.182 27.182C28.0259 26.3381 28.5 25.1935 28.5 24V8C28.5 6.80653 28.0259 5.66193 27.182 4.81802C26.3381 3.97411 25.1935 3.5 24 3.5ZM25.5 24C25.5 24.3978 25.342 24.7794 25.0607 25.0607C24.7794 25.342 24.3978 25.5 24 25.5H8C7.60218 25.5 7.22064 25.342 6.93934 25.0607C6.65804 24.7794 6.5 24.3978 6.5 24V8C6.5 7.60218 6.65804 7.22064 6.93934 6.93934C7.22064 6.65804 7.60218 6.5 8 6.5H24C24.3978 6.5 24.7794 6.65804 25.0607 6.93934C25.342 7.22064 25.5 7.60218 25.5 8V24ZM13 11C13 11.3956 12.8827 11.7822 12.6629 12.1111C12.4432 12.44 12.1308 12.6964 11.7654 12.8478C11.3999 12.9991 10.9978 13.0387 10.6098 12.9616C10.2219 12.8844 9.86549 12.6939 9.58579 12.4142C9.30608 12.1345 9.1156 11.7781 9.03843 11.3902C8.96126 11.0022 9.00087 10.6001 9.15224 10.2346C9.30362 9.86918 9.55996 9.55682 9.88886 9.33706C10.2178 9.1173 10.6044 9 11 9C11.5304 9 12.0391 9.21071 12.4142 9.58579C12.7893 9.96086 13 10.4696 13 11ZM18 16C18 16.3956 17.8827 16.7822 17.6629 17.1111C17.4432 17.44 17.1308 17.6964 16.7654 17.8478C16.3999 17.9991 15.9978 18.0387 15.6098 17.9616C15.2219 17.8844 14.8655 17.6939 14.5858 17.4142C14.3061 17.1345 14.1156 16.7781 14.0384 16.3902C13.9613 16.0022 14.0009 15.6001 14.1522 15.2346C14.3036 14.8692 14.56 14.5568 14.8889 14.3371C15.2178 14.1173 15.6044 14 16 14C16.5304 14 17.0391 14.2107 17.4142 14.5858C17.7893 14.9609 18 15.4696 18 16ZM23 21C23 21.3956 22.8827 21.7822 22.6629 22.1111C22.4432 22.44 22.1308 22.6964 21.7654 22.8478C21.3999 22.9991 20.9978 23.0387 20.6098 22.9616C20.2219 22.8844 19.8655 22.6939 19.5858 22.4142C19.3061 22.1345 19.1156 21.7781 19.0384 21.3902C18.9613 21.0022 19.0009 20.6001 19.1522 20.2346C19.3036 19.8692 19.56 19.5568 19.8889 19.3371C20.2178 19.1173 20.6044 19 21 19C21.5304 19 22.0391 19.2107 22.4142 19.5858C22.7893 19.9609 23 20.4696 23 21Z" fill="black"/>
</svg>
