<svg width="32" height="32" viewBox="0 0 32 32" fill="none" xmlns="http://www.w3.org/2000/svg">
<path d="M24 3.5H8C6.80653 3.5 5.66193 3.97411 4.81802 4.81802C3.97411 5.66193 3.5 6.80653 3.5 8V24C3.5 25.1935 3.97411 26.3381 4.81802 27.182C5.66193 28.0259 6.80653 28.5 8 28.5H24C25.1935 28.5 26.3381 28.0259 27.182 27.182C28.0259 26.3381 28.5 25.1935 28.5 24V8C28.5 6.80653 28.0259 5.66193 27.182 4.81802C26.3381 3.97411 25.1935 3.5 24 3.5ZM25.5 24C25.5 24.3978 25.342 24.7794 25.0607 25.0607C24.7794 25.342 24.3978 25.5 24 25.5H8C7.60218 25.5 7.22064 25.342 6.93934 25.0607C6.65804 24.7794 6.5 24.3978 6.5 24V8C6.5 7.60218 6.65804 7.22064 6.93934 6.93934C7.22064 6.65804 7.60218 6.5 8 6.5H24C24.3978 6.5 24.7794 6.65804 25.0607 6.93934C25.342 7.22064 25.5 7.60218 25.5 8V24ZM14 12C14 12.3956 13.8827 12.7822 13.6629 13.1111C13.4432 13.44 13.1308 13.6964 12.7654 13.8478C12.3999 13.9991 11.9978 14.0387 11.6098 13.9616C11.2219 13.8844 10.8655 13.6939 10.5858 13.4142C10.3061 13.1345 10.1156 12.7781 10.0384 12.3902C9.96126 12.0022 10.0009 11.6001 10.1522 11.2346C10.3036 10.8692 10.56 10.5568 10.8889 10.3371C11.2178 10.1173 11.6044 10 12 10C12.5304 10 13.0391 10.2107 13.4142 10.5858C13.7893 10.9609 14 11.4696 14 12ZM22 12C22 12.3956 21.8827 12.7822 21.6629 13.1111C21.4432 13.44 21.1308 13.6964 20.7654 13.8478C20.3999 13.9991 19.9978 14.0387 19.6098 13.9616C19.2219 13.8844 18.8655 13.6939 18.5858 13.4142C18.3061 13.1345 18.1156 12.7781 18.0384 12.3902C17.9613 12.0022 18.0009 11.6001 18.1522 11.2346C18.3036 10.8692 18.56 10.5568 18.8889 10.3371C19.2178 10.1173 19.6044 10 20 10C20.5304 10 21.0391 10.2107 21.4142 10.5858C21.7893 10.9609 22 11.4696 22 12ZM14 20C14 20.3956 13.8827 20.7822 13.6629 21.1111C13.4432 21.44 13.1308 21.6964 12.7654 21.8478C12.3999 21.9991 11.9978 22.0387 11.6098 21.9616C11.2219 21.8844 10.8655 21.6939 10.5858 21.4142C10.3061 21.1345 10.1156 20.7781 10.0384 20.3902C9.96126 20.0022 10.0009 19.6001 10.1522 19.2346C10.3036 18.8692 10.56 18.5568 10.8889 18.3371C11.2178 18.1173 11.6044 18 12 18C12.5304 18 13.0391 18.2107 13.4142 18.5858C13.7893 18.9609 14 19.4696 14 20ZM22 20C22 20.3956 21.8827 20.7822 21.6629 21.1111C21.4432 21.44 21.1308 21.6964 20.7654 21.8478C20.3999 21.9991 19.9978 22.0387 19.6098 21.9616C19.2219 21.8844 18.8655 21.6939 18.5858 21.4142C18.3061 21.1345 18.1156 20.7781 18.0384 20.3902C17.9613 20.0022 18.0009 19.6001 18.1522 19.2346C18.3036 18.8692 18.56 18.5568 18.8889 18.3371C19.2178 18.1173 19.6044 18 20 18C20.5304 18 21.0391 18.2107 21.4142 18.5858C21.7893 18.9609 22 19.4696 22 20Z" fill="black"/>
</svg>
