<svg width="32" height="32" viewBox="0 0 32 32" fill="none" xmlns="http://www.w3.org/2000/svg">
<path d="M24 3.5H8C6.80653 3.5 5.66193 3.97411 4.81802 4.81802C3.97411 5.66193 3.5 6.80653 3.5 8V24C3.5 25.1935 3.97411 26.3381 4.81802 27.182C5.66193 28.0259 6.80653 28.5 8 28.5H24C25.1935 28.5 26.3381 28.0259 27.182 27.182C28.0259 26.3381 28.5 25.1935 28.5 24V8C28.5 6.80653 28.0259 5.66193 27.182 4.81802C26.3381 3.97411 25.1935 3.5 24 3.5ZM25.5 24C25.5 24.3978 25.342 24.7794 25.0607 25.0607C24.7794 25.342 24.3978 25.5 24 25.5H8C7.60218 25.5 7.22064 25.342 6.93934 25.0607C6.65804 24.7794 6.5 24.3978 6.5 24V8C6.5 7.60218 6.65804 7.22064 6.93934 6.93934C7.22064 6.65804 7.60218 6.5 8 6.5H24C24.3978 6.5 24.7794 6.65804 25.0607 6.93934C25.342 7.22064 25.5 7.60218 25.5 8V24ZM14 10.5C14 10.8956 13.8827 11.2822 13.6629 11.6111C13.4432 11.94 13.1308 12.1964 12.7654 12.3478C12.3999 12.4991 11.9978 12.5387 11.6098 12.4616C11.2219 12.3844 10.8655 12.1939 10.5858 11.9142C10.3061 11.6345 10.1156 11.2781 10.0384 10.8902C9.96126 10.5022 10.0009 10.1001 10.1522 9.73463C10.3036 9.36918 10.56 9.05682 10.8889 8.83706C11.2178 8.6173 11.6044 8.5 12 8.5C12.5304 8.5 13.0391 8.71071 13.4142 9.08579C13.7893 9.46086 14 9.96957 14 10.5ZM22 10.5C22 10.8956 21.8827 11.2822 21.6629 11.6111C21.4432 11.94 21.1308 12.1964 20.7654 12.3478C20.3999 12.4991 19.9978 12.5387 19.6098 12.4616C19.2219 12.3844 18.8655 12.1939 18.5858 11.9142C18.3061 11.6345 18.1156 11.2781 18.0384 10.8902C17.9613 10.5022 18.0009 10.1001 18.1522 9.73463C18.3036 9.36918 18.56 9.05682 18.8889 8.83706C19.2178 8.6173 19.6044 8.5 20 8.5C20.5304 8.5 21.0391 8.71071 21.4142 9.08579C21.7893 9.46086 22 9.96957 22 10.5ZM14 16C14 16.3956 13.8827 16.7822 13.6629 17.1111C13.4432 17.44 13.1308 17.6964 12.7654 17.8478C12.3999 17.9991 11.9978 18.0387 11.6098 17.9616C11.2219 17.8844 10.8655 17.6939 10.5858 17.4142C10.3061 17.1345 10.1156 16.7781 10.0384 16.3902C9.96126 16.0022 10.0009 15.6001 10.1522 15.2346C10.3036 14.8692 10.56 14.5568 10.8889 14.3371C11.2178 14.1173 11.6044 14 12 14C12.5304 14 13.0391 14.2107 13.4142 14.5858C13.7893 14.9609 14 15.4696 14 16ZM22 16C22 16.3956 21.8827 16.7822 21.6629 17.1111C21.4432 17.44 21.1308 17.6964 20.7654 17.8478C20.3999 17.9991 19.9978 18.0387 19.6098 17.9616C19.2219 17.8844 18.8655 17.6939 18.5858 17.4142C18.3061 17.1345 18.1156 16.7781 18.0384 16.3902C17.9613 16.0022 18.0009 15.6001 18.1522 15.2346C18.3036 14.8692 18.56 14.5568 18.8889 14.3371C19.2178 14.1173 19.6044 14 20 14C20.5304 14 21.0391 14.2107 21.4142 14.5858C21.7893 14.9609 22 15.4696 22 16ZM14 21.5C14 21.8956 13.8827 22.2822 13.6629 22.6111C13.4432 22.94 13.1308 23.1964 12.7654 23.3478C12.3999 23.4991 11.9978 23.5387 11.6098 23.4616C11.2219 23.3844 10.8655 23.1939 10.5858 22.9142C10.3061 22.6345 10.1156 22.2781 10.0384 21.8902C9.96126 21.5022 10.0009 21.1001 10.1522 20.7346C10.3036 20.3692 10.56 20.0568 10.8889 19.8371C11.2178 19.6173 11.6044 19.5 12 19.5C12.5304 19.5 13.0391 19.7107 13.4142 20.0858C13.7893 20.4609 14 20.9696 14 21.5ZM22 21.5C22 21.8956 21.8827 22.2822 21.6629 22.6111C21.4432 22.94 21.1308 23.1964 20.7654 23.3478C20.3999 23.4991 19.9978 23.5387 19.6098 23.4616C19.2219 23.3844 18.8655 23.1939 18.5858 22.9142C18.3061 22.6345 18.1156 22.2781 18.0384 21.8902C17.9613 21.5022 18.0009 21.1001 18.1522 20.7346C18.3036 20.3692 18.56 20.0568 18.8889 19.8371C19.2178 19.6173 19.6044 19.5 20 19.5C20.5304 19.5 21.0391 19.7107 21.4142 20.0858C21.7893 20.4609 22 20.9696 22 21.5Z" fill="black"/>
</svg>
