<svg width="32" height="32" viewBox="0 0 32 32" fill="none" xmlns="http://www.w3.org/2000/svg">
<path d="M24 3.5H8C6.80653 3.5 5.66193 3.97411 4.81802 4.81802C3.97411 5.66193 3.5 6.80653 3.5 8V24C3.5 25.1935 3.97411 26.3381 4.81802 27.182C5.66193 28.0259 6.80653 28.5 8 28.5H24C25.1935 28.5 26.3381 28.0259 27.182 27.182C28.0259 26.3381 28.5 25.1935 28.5 24V8C28.5 6.80653 28.0259 5.66193 27.182 4.81802C26.3381 3.97411 25.1935 3.5 24 3.5ZM25.5 24C25.5 24.3978 25.342 24.7794 25.0607 25.0607C24.7794 25.342 24.3978 25.5 24 25.5H8C7.60218 25.5 7.22064 25.342 6.93934 25.0607C6.65804 24.7794 6.5 24.3978 6.5 24V8C6.5 7.60218 6.65804 7.22064 6.93934 6.93934C7.22064 6.65804 7.60218 6.5 8 6.5H24C24.3978 6.5 24.7794 6.65804 25.0607 6.93934C25.342 7.22064 25.5 7.60218 25.5 8V24ZM15 13C15 13.3956 14.8827 13.7822 14.6629 14.1111C14.4432 14.44 14.1308 14.6964 13.7654 14.8478C13.3999 14.9991 12.9978 15.0387 12.6098 14.9616C12.2219 14.8844 11.8655 14.6939 11.5858 14.4142C11.3061 14.1345 11.1156 13.7781 11.0384 13.3902C10.9613 13.0022 11.0009 12.6001 11.1522 12.2346C11.3036 11.8692 11.56 11.5568 11.8889 11.3371C12.2178 11.1173 12.6044 11 13 11C13.5304 11 14.0391 11.2107 14.4142 11.5858C14.7893 11.9609 15 12.4696 15 13ZM21 19C21 19.3956 20.8827 19.7822 20.6629 20.1111C20.4432 20.44 20.1308 20.6964 19.7654 20.8478C19.3999 20.9991 18.9978 21.0387 18.6098 20.9616C18.2219 20.8844 17.8655 20.6939 17.5858 20.4142C17.3061 20.1345 17.1156 19.7781 17.0384 19.3902C16.9613 19.0022 17.0009 18.6001 17.1522 18.2346C17.3036 17.8692 17.56 17.5568 17.8889 17.3371C18.2178 17.1173 18.6044 17 19 17C19.5304 17 20.0391 17.2107 20.4142 17.5858C20.7893 17.9609 21 18.4696 21 19Z" fill="black"/>
</svg>
