<svg width="32" height="32" viewBox="0 0 32 32" fill="none" xmlns="http://www.w3.org/2000/svg">
<path d="M12.75 17.5C12.75 17.7473 12.6767 17.9889 12.5394 18.1945C12.402 18.4001 12.2068 18.5603 11.9784 18.6549C11.75 18.7495 11.4987 18.7742 11.2562 18.726C11.0137 18.6778 10.791 18.5587 10.6162 18.3839C10.4413 18.2091 10.3223 17.9864 10.2741 17.7439C10.2258 17.5014 10.2506 17.2501 10.3452 17.0217C10.4398 16.7933 10.6 16.5981 10.8056 16.4607C11.0111 16.3233 11.2528 16.25 11.5 16.25C11.8316 16.25 12.1495 16.3817 12.3839 16.6162C12.6184 16.8506 12.75 17.1685 12.75 17.5ZM20.5 16.25C20.2528 16.25 20.0111 16.3233 19.8056 16.4607C19.6 16.5981 19.4398 16.7933 19.3452 17.0217C19.2506 17.2501 19.2258 17.5014 19.2741 17.7439C19.3223 17.9864 19.4413 18.2091 19.6162 18.3839C19.791 18.5587 20.0137 18.6778 20.2562 18.726C20.4987 18.7742 20.75 18.7495 20.9784 18.6549C21.2068 18.5603 21.402 18.4001 21.5394 18.1945C21.6767 17.9889 21.75 17.7473 21.75 17.5C21.75 17.1685 21.6184 16.8506 21.3839 16.6162C21.1495 16.3817 20.8316 16.25 20.5 16.25ZM28.7213 17.59C28.4902 17.6957 28.2392 17.7507 27.9851 17.7513C27.7542 17.7508 27.5258 17.7037 27.3136 17.6129C27.1014 17.522 26.9097 17.3893 26.75 17.2225V23C26.75 24.2598 26.2496 25.468 25.3588 26.3588C24.468 27.2496 23.2598 27.75 22 27.75H10C8.74027 27.75 7.53209 27.2496 6.64129 26.3588C5.75049 25.468 5.25005 24.2598 5.25005 23V17.2225C5.08995 17.3889 4.89798 17.5214 4.68558 17.612C4.47319 17.7027 4.24472 17.7496 4.0138 17.75C3.7601 17.7493 3.5095 17.6943 3.2788 17.5888C2.91877 17.4307 2.62346 17.1545 2.44163 16.8059C2.25981 16.4572 2.20237 16.057 2.2788 15.6713L4.3313 4.67129C4.37529 4.43674 4.46679 4.21367 4.60017 4.01579C4.73355 3.8179 4.90599 3.64939 5.10689 3.52061C5.30779 3.39182 5.53291 3.30549 5.76841 3.26691C6.00391 3.22834 6.24481 3.23833 6.4763 3.29629L6.5063 3.30504L13.1075 5.25004H18.8925L25.4913 3.31129L25.5213 3.30254C25.7528 3.24458 25.9937 3.23459 26.2292 3.27316C26.4647 3.31174 26.6898 3.39807 26.8907 3.52686C27.0916 3.65564 27.2641 3.82415 27.3974 4.02204C27.5308 4.21992 27.6223 4.44299 27.6663 4.67754L29.7188 15.6775C29.7944 16.0622 29.7368 16.4612 29.5555 16.8088C29.3742 17.1564 29.08 17.4319 28.7213 17.59ZM11.735 6.40879L6.10505 4.75004C6.07335 4.74259 6.04046 4.74175 6.00842 4.74755C5.97638 4.75336 5.94587 4.76569 5.9188 4.78379C5.89018 4.80233 5.86566 4.82654 5.84674 4.85491C5.82782 4.88329 5.81491 4.91523 5.8088 4.94879L3.7563 15.9488C3.74566 16.0039 3.75389 16.061 3.77964 16.1109C3.80539 16.1607 3.84718 16.2005 3.89827 16.2237C3.94936 16.247 4.00679 16.2523 4.06131 16.239C4.11582 16.2256 4.16425 16.1943 4.1988 16.15L11.735 6.40879ZM25.25 23V15.3038L18.6325 6.75004H13.3675L6.75005 15.3038V23C6.75005 23.862 7.09246 24.6886 7.70195 25.2981C8.31144 25.9076 9.13809 26.25 10 26.25H15.25V24.31L13.47 22.53C13.3376 22.3879 13.2654 22.1998 13.2689 22.0055C13.2723 21.8112 13.351 21.6258 13.4884 21.4884C13.6258 21.351 13.8112 21.2723 14.0055 21.2689C14.1998 21.2654 14.3879 21.3376 14.53 21.47L16 22.9388L17.47 21.47C17.6122 21.3376 17.8003 21.2654 17.9946 21.2689C18.1889 21.2723 18.3743 21.351 18.5117 21.4884C18.6491 21.6258 18.7278 21.8112 18.7312 22.0055C18.7347 22.1998 18.6625 22.3879 18.5301 22.53L16.75 24.31V26.25H22C22.862 26.25 23.6887 25.9076 24.2981 25.2981C24.9076 24.6886 25.25 23.862 25.25 23ZM28.25 15.95L26.1975 4.95004C26.1913 4.91671 26.1783 4.885 26.1594 4.85685C26.1405 4.8287 26.116 4.80469 26.0875 4.78629C26.032 4.75192 25.9654 4.73986 25.9013 4.75254L20.2763 6.40629L27.8163 16.1563C27.8523 16.1968 27.9004 16.2246 27.9535 16.2354C28.0066 16.2462 28.0618 16.2394 28.1107 16.2162C28.1596 16.1929 28.1997 16.1544 28.2248 16.1064C28.2499 16.0584 28.2588 16.0035 28.25 15.95Z" fill="black"/>
</svg>
