<svg width="32" height="32" viewBox="0 0 32 32" fill="none" xmlns="http://www.w3.org/2000/svg">
<path d="M29 26.5H26.5V5C26.5 4.33696 26.2366 3.70107 25.7678 3.23223C25.2989 2.76339 24.663 2.5 24 2.5H8C7.33696 2.5 6.70107 2.76339 6.23223 3.23223C5.76339 3.70107 5.5 4.33696 5.5 5V26.5H3C2.60218 26.5 2.22064 26.658 1.93934 26.9393C1.65804 27.2206 1.5 27.6022 1.5 28C1.5 28.3978 1.65804 28.7794 1.93934 29.0607C2.22064 29.342 2.60218 29.5 3 29.5H29C29.3978 29.5 29.7794 29.342 30.0607 29.0607C30.342 28.7794 30.5 28.3978 30.5 28C30.5 27.6022 30.342 27.2206 30.0607 26.9393C29.7794 26.658 29.3978 26.5 29 26.5ZM23.5 26.5H21.5V5.5H23.5V26.5ZM8.5 5.5H18.5V26.5H8.5V5.5ZM17 16.5C17 16.7967 16.912 17.0867 16.7472 17.3334C16.5824 17.58 16.3481 17.7723 16.074 17.8858C15.7999 17.9993 15.4983 18.0291 15.2074 17.9712C14.9164 17.9133 14.6491 17.7704 14.4393 17.5607C14.2296 17.3509 14.0867 17.0836 14.0288 16.7926C13.9709 16.5017 14.0006 16.2001 14.1142 15.926C14.2277 15.6519 14.42 15.4176 14.6666 15.2528C14.9133 15.088 15.2033 15 15.5 15C15.8978 15 16.2794 15.158 16.5607 15.4393C16.842 15.7206 17 16.1022 17 16.5Z" fill="black"/>
</svg>
