<svg width="32" height="32" viewBox="0 0 32 32" fill="none" xmlns="http://www.w3.org/2000/svg">
<path d="M8.93875 11.0612C8.65696 10.7795 8.49865 10.3973 8.49865 9.99875C8.49865 9.60023 8.65696 9.21804 8.93875 8.93625C9.22054 8.65446 9.60274 8.49615 10.0013 8.49615C10.3998 8.49615 10.782 8.65446 11.0638 8.93625L14.5 12.375V3C14.5 2.60218 14.658 2.22064 14.9393 1.93934C15.2206 1.65804 15.6022 1.5 16 1.5C16.3978 1.5 16.7794 1.65804 17.0607 1.93934C17.342 2.22064 17.5 2.60218 17.5 3V12.375L20.9387 8.935C21.2205 8.65321 21.6027 8.4949 22.0012 8.4949C22.3998 8.4949 22.782 8.65321 23.0637 8.935C23.3455 9.21679 23.5039 9.59899 23.5039 9.9975C23.5039 10.396 23.3455 10.7782 23.0637 11.06L17.0637 17.06C16.9244 17.1998 16.7588 17.3108 16.5765 17.3865C16.3941 17.4622 16.1987 17.5012 16.0012 17.5012C15.8038 17.5012 15.6083 17.4622 15.426 17.3865C15.2437 17.3108 15.0781 17.1998 14.9388 17.06L8.93875 11.0612ZM28 14.5H23.5C23.1022 14.5 22.7206 14.658 22.4393 14.9393C22.158 15.2206 22 15.6022 22 16C22 16.3978 22.158 16.7794 22.4393 17.0607C22.7206 17.342 23.1022 17.5 23.5 17.5H27.5V24.5H4.5V17.5H8.5C8.89782 17.5 9.27936 17.342 9.56066 17.0607C9.84196 16.7794 10 16.3978 10 16C10 15.6022 9.84196 15.2206 9.56066 14.9393C9.27936 14.658 8.89782 14.5 8.5 14.5H4C3.33696 14.5 2.70107 14.7634 2.23223 15.2322C1.76339 15.7011 1.5 16.337 1.5 17V25C1.5 25.663 1.76339 26.2989 2.23223 26.7678C2.70107 27.2366 3.33696 27.5 4 27.5H28C28.663 27.5 29.2989 27.2366 29.7678 26.7678C30.2366 26.2989 30.5 25.663 30.5 25V17C30.5 16.337 30.2366 15.7011 29.7678 15.2322C29.2989 14.7634 28.663 14.5 28 14.5ZM25.5 21C25.5 20.6044 25.3827 20.2178 25.1629 19.8889C24.9432 19.56 24.6308 19.3036 24.2654 19.1522C23.8999 19.0009 23.4978 18.9613 23.1098 19.0384C22.7219 19.1156 22.3655 19.3061 22.0858 19.5858C21.8061 19.8655 21.6156 20.2219 21.5384 20.6098C21.4613 20.9978 21.5009 21.3999 21.6522 21.7654C21.8036 22.1308 22.06 22.4432 22.3889 22.6629C22.7178 22.8827 23.1044 23 23.5 23C24.0304 23 24.5391 22.7893 24.9142 22.4142C25.2893 22.0391 25.5 21.5304 25.5 21Z" fill="black"/>
</svg>
