<svg width="32" height="32" viewBox="0 0 32 32" fill="none" xmlns="http://www.w3.org/2000/svg">
<path d="M27.2975 26.015C27.29 26 27.2837 25.9837 27.2762 25.9688L21.7087 14.11L24.125 10.32C24.1325 10.3088 24.14 10.2975 24.1462 10.2863C24.3793 9.89771 24.5025 9.45311 24.5025 9C24.5025 8.54689 24.3793 8.10229 24.1462 7.71375C24.1287 7.68375 24.1087 7.65375 24.0887 7.625L21.5 3.93V1.5C21.5 1.10218 21.3419 0.720644 21.0606 0.43934C20.7793 0.158035 20.3978 0 20 0C19.6021 0 19.2206 0.158035 18.9393 0.43934C18.658 0.720644 18.5 1.10218 18.5 1.5V3.875L17.9525 4.55875C17.7183 4.85164 17.4212 5.08808 17.0832 5.25057C16.7452 5.41305 16.375 5.49742 16 5.49742C15.625 5.49742 15.2547 5.41305 14.9168 5.25057C14.5788 5.08808 14.2817 4.85164 14.0475 4.55875L13.5 3.875V1.5C13.5 1.10218 13.3419 0.720644 13.0606 0.43934C12.7793 0.158035 12.3978 0 12 0C11.6021 0 11.2206 0.158035 10.9393 0.43934C10.658 0.720644 10.5 1.10218 10.5 1.5V3.93L7.91372 7.625C7.89372 7.65375 7.87372 7.68375 7.85622 7.71375C7.62309 8.10229 7.49994 8.54689 7.49994 9C7.49994 9.45311 7.62309 9.89771 7.85622 10.2863C7.85622 10.2975 7.86997 10.3088 7.87747 10.32L10.2912 14.11L4.72372 25.9688C4.71622 25.9837 4.70997 26 4.70247 26.015C4.53947 26.3952 4.47338 26.81 4.51013 27.222C4.54687 27.6341 4.6853 28.0306 4.91301 28.376C5.14071 28.7214 5.45057 29.0049 5.81481 29.2011C6.17904 29.3972 6.58627 29.5 6.99997 29.5H25C25.4138 29.5002 25.8212 29.3976 26.1856 29.2015C26.55 29.0054 26.86 28.722 27.0878 28.3765C27.3157 28.0311 27.4542 27.6345 27.491 27.2224C27.5278 26.8102 27.4618 26.3953 27.2987 26.015H27.2975ZM16 8.5C16.7255 8.50148 17.4441 8.35856 18.1139 8.07958C18.7837 7.80059 19.3913 7.39112 19.9012 6.875L21.4012 9.0125L19.1775 12.5H12.8225L10.6025 9.015L12.1025 6.8775C12.6122 7.39271 13.2192 7.80147 13.8883 8.08001C14.5574 8.35854 15.2752 8.50131 16 8.5ZM7.78872 26.5L12.9525 15.5H19.0475L24.2112 26.5H7.78872Z" fill="black"/>
</svg>
