<svg width="32" height="32" viewBox="0 0 32 32" fill="none" xmlns="http://www.w3.org/2000/svg">
<path d="M8.28238 10.0309C8.1445 9.8055 8.05497 9.55386 8.01947 9.29199C7.98396 9.03011 8.00326 8.76372 8.07613 8.5097C8.12571 8.29881 8.21021 8.0977 8.32613 7.9147L10.9999 4.0897V1.0022C10.9996 0.86511 11.0275 0.729424 11.0818 0.603569C11.1362 0.477713 11.2158 0.364376 11.3158 0.270596C11.4158 0.176817 11.534 0.104598 11.6631 0.058426C11.7922 0.012254 11.9293 -0.00688522 12.0661 0.00219718C12.3237 0.0243153 12.5633 0.143304 12.7366 0.335157C12.9099 0.52701 13.004 0.777448 12.9999 1.03595V4.0547L13.6561 4.8772C13.9418 5.23548 14.306 5.52328 14.7207 5.71835C15.1353 5.91342 15.5892 6.01054 16.0474 6.0022C16.4998 5.9894 16.9439 5.87716 17.3481 5.67344C17.7523 5.46972 18.1067 5.17952 18.3861 4.82345L18.9999 4.0547V1.0022C18.9996 0.86511 19.0275 0.729424 19.0818 0.603569C19.1362 0.477713 19.2158 0.364376 19.3158 0.270596C19.4158 0.176817 19.534 0.104598 19.6631 0.058426C19.7922 0.012254 19.9293 -0.00688522 20.0661 0.00219718C20.3237 0.0243153 20.5633 0.143304 20.7366 0.335157C20.9099 0.52701 21.004 0.777448 20.9999 1.03595V4.0897L23.6774 7.9147C23.7933 8.0977 23.8778 8.29881 23.9274 8.5097C24.0003 8.76372 24.0196 9.03011 23.9841 9.29199C23.9485 9.55386 23.859 9.8055 23.7211 10.0309C23.7161 10.0382 23.7115 10.0457 23.7074 10.0534L21.9749 12.7709C21.9294 12.8423 21.8666 12.901 21.7922 12.9414C21.7179 12.9818 21.6345 13.0028 21.5499 13.0022H10.4499C10.3659 13.0021 10.2833 12.9809 10.2097 12.9405C10.136 12.9001 10.0738 12.8418 10.0286 12.7709L8.29613 10.0534C8.29201 10.0457 8.28742 10.0382 8.28238 10.0309ZM26.8449 26.2259C26.8397 26.2113 26.8334 26.1971 26.8261 26.1834L21.7111 15.2897C21.6707 15.2036 21.6065 15.1308 21.5261 15.0798C21.4458 15.0289 21.3525 15.002 21.2574 15.0022H10.7424C10.6472 15.002 10.554 15.0289 10.4736 15.0798C10.3932 15.1308 10.3291 15.2036 10.2886 15.2897L5.17363 26.1834C5.16635 26.1971 5.16008 26.2113 5.15488 26.2259C5.04584 26.4889 4.99349 26.7718 5.00124 27.0564C5.00899 27.3409 5.07668 27.6206 5.19988 27.8772C5.36411 28.2147 5.62001 28.4992 5.93832 28.6982C6.25664 28.8971 6.62451 29.0025 6.99988 29.0022H24.9999C25.375 29.0023 25.7427 28.8968 26.0607 28.6979C26.3788 28.4989 26.6345 28.2145 26.7986 27.8772C26.922 27.6207 26.9899 27.341 26.9979 27.0565C27.0059 26.772 26.9537 26.489 26.8449 26.2259Z" fill="black"/>
</svg>
