<svg width="32" height="32" viewBox="0 0 32 32" fill="none" xmlns="http://www.w3.org/2000/svg">
<path d="M16.86 0.771261C16.6079 0.594859 16.3077 0.500244 16 0.500244C15.6923 0.500244 15.3921 0.594859 15.14 0.771261C13.2072 2.19572 11.4388 3.83078 9.8675 5.64626C6.35625 9.67876 4.5 13.9538 4.5 18C4.5 21.05 5.7116 23.9751 7.86827 26.1317C10.0249 28.2884 12.95 29.5 16 29.5C19.05 29.5 21.9751 28.2884 24.1317 26.1317C26.2884 23.9751 27.5 21.05 27.5 18C27.5 8.33001 17.295 1.07501 16.86 0.771261ZM23.9513 21H8.04875C7.80475 20.3559 7.64101 19.6842 7.56125 19H24.4363C24.3573 19.6841 24.1944 20.3558 23.9513 21ZM12.0875 7.66126C13.2793 6.29224 14.5885 5.02994 16 3.88876C17.4115 5.02994 18.7207 6.29224 19.9125 7.66126C21.6625 9.68501 23.6963 12.6475 24.3125 16H7.6875C8.30375 12.6475 10.3362 9.68501 12.0875 7.66126ZM16 26.5C14.882 26.5008 13.775 26.2802 12.7426 25.8512C11.7103 25.4221 10.7731 24.793 9.985 24H22.015C21.2269 24.793 20.2897 25.4221 19.2574 25.8512C18.225 26.2802 17.118 26.5008 16 26.5Z" fill="black"/>
</svg>
