<svg width="32" height="32" viewBox="0 0 32 32" fill="none" xmlns="http://www.w3.org/2000/svg">
<path d="M16.86 0.771261C16.6079 0.594859 16.3077 0.500244 16 0.500244C15.6923 0.500244 15.3921 0.594859 15.14 0.771261C13.2072 2.19572 11.4388 3.83078 9.8675 5.64626C6.35625 9.67876 4.5 13.9538 4.5 18C4.5 21.05 5.7116 23.9751 7.86827 26.1317C10.0249 28.2884 12.95 29.5 16 29.5C19.05 29.5 21.9751 28.2884 24.1317 26.1317C26.2884 23.9751 27.5 21.05 27.5 18C27.5 8.33001 17.295 1.07501 16.86 0.771261ZM24.26 20H17.5V18H24.5C24.4996 18.6738 24.419 19.3452 24.26 20ZM17.5 15V13H23.375C23.6606 13.6483 23.8979 14.3168 24.085 15H17.5ZM19.9125 7.66126C20.5578 8.40428 21.158 9.18526 21.71 10H17.5V5.18251C18.3505 5.96236 19.156 6.78995 19.9125 7.66126ZM7.5 18C7.5 13.8363 10 10.0788 12.0875 7.66126C12.844 6.78995 13.6495 5.96236 14.5 5.18251V26.365C12.5385 26.0109 10.7634 24.9796 9.48422 23.451C8.20503 21.9223 7.50282 19.9933 7.5 18ZM17.5 26.365V23H22.8675C21.5788 24.7714 19.6559 25.9769 17.5 26.365Z" fill="black"/>
</svg>
