<svg width="32" height="32" viewBox="0 0 32 32" fill="none" xmlns="http://www.w3.org/2000/svg">
<path d="M29.8539 18.2662L25.1351 15L29.8539 11.7337C30.0534 11.5957 30.2165 11.4114 30.3292 11.1965C30.4419 10.9816 30.5007 10.7426 30.5007 10.5C30.5007 10.2574 30.4419 10.0184 30.3292 9.80347C30.2165 9.58859 30.0534 9.40424 29.8539 9.26624L23.3539 4.76624C23.103 4.5926 22.8052 4.49957 22.5001 4.49957C22.195 4.49957 21.8972 4.5926 21.6464 4.76624L16.0001 8.67624L10.3539 4.76624C10.103 4.5926 9.80519 4.49957 9.50011 4.49957C9.19503 4.49957 8.89721 4.5926 8.64636 4.76624L2.14636 9.26624C1.9468 9.40424 1.78369 9.58859 1.67103 9.80347C1.55837 10.0184 1.49951 10.2574 1.49951 10.5C1.49951 10.7426 1.55837 10.9816 1.67103 11.1965C1.78369 11.4114 1.9468 11.5957 2.14636 11.7337L6.86511 15L2.14636 18.2662C1.9468 18.4042 1.78369 18.5886 1.67103 18.8035C1.55837 19.0184 1.49951 19.2574 1.49951 19.5C1.49951 19.7426 1.55837 19.9816 1.67103 20.1965C1.78369 20.4114 1.9468 20.5957 2.14636 20.7337L8.64636 25.2337C8.89721 25.4074 9.19503 25.5004 9.50011 25.5004C9.80519 25.5004 10.103 25.4074 10.3539 25.2337L16.0001 21.3237L21.6464 25.2337C21.8972 25.4074 22.195 25.5004 22.5001 25.5004C22.8052 25.5004 23.103 25.4074 23.3539 25.2337L29.8539 20.7337C30.0534 20.5957 30.2165 20.4114 30.3292 20.1965C30.4419 19.9816 30.5007 19.7426 30.5007 19.5C30.5007 19.2574 30.4419 19.0184 30.3292 18.8035C30.2165 18.5886 30.0534 18.4042 29.8539 18.2662ZM16.0001 17.6762L12.1351 15L16.0001 12.3237L19.8651 15L16.0001 17.6762ZM22.5001 7.82499L26.3651 10.5L22.5001 13.175L18.6351 10.5L22.5001 7.82499ZM9.50011 7.82499L13.3651 10.5L9.50011 13.175L5.63511 10.5L9.50011 7.82499ZM9.50011 22.175L5.63511 19.5L9.50011 16.825L13.3651 19.5L9.50011 22.175ZM22.5001 22.175L18.6351 19.5L22.5001 16.825L26.3651 19.5L22.5001 22.175ZM19.3414 26.1862C19.5684 26.5128 19.6564 26.9162 19.5861 27.3076C19.5158 27.6991 19.2928 28.0466 18.9664 28.2737L16.8589 29.7337C16.608 29.9074 16.3102 30.0004 16.0051 30.0004C15.7 30.0004 15.4022 29.9074 15.1514 29.7337L13.0439 28.2737C12.8762 28.1642 12.7321 28.0221 12.6202 27.856C12.5083 27.6898 12.4308 27.5029 12.3923 27.3063C12.3538 27.1097 12.355 26.9074 12.396 26.7113C12.4369 26.5152 12.5168 26.3293 12.6307 26.1646C12.7447 25.9998 12.8905 25.8596 13.0596 25.7521C13.2287 25.6446 13.4175 25.5721 13.6151 25.5388C13.8126 25.5056 14.0148 25.5122 14.2098 25.5583C14.4047 25.6045 14.5884 25.6892 14.7501 25.8075L16.0001 26.675L17.2501 25.8075C17.4122 25.6947 17.5949 25.615 17.7878 25.573C17.9808 25.5309 18.1801 25.5274 18.3744 25.5626C18.5687 25.5978 18.7541 25.671 18.9201 25.778C19.086 25.885 19.2292 26.0238 19.3414 26.1862Z" fill="black"/>
</svg>
