<svg width="32" height="32" viewBox="0 0 32 32" fill="none" xmlns="http://www.w3.org/2000/svg">
<path d="M27.5 13C27.5 13.3978 27.342 13.7794 27.0607 14.0607C26.7794 14.342 26.3978 14.5 26 14.5C25.6022 14.5 25.2206 14.342 24.9393 14.0607C24.658 13.7794 24.5 13.3978 24.5 13C24.5 10.7457 23.6045 8.58365 22.0104 6.98959C20.4163 5.39553 18.2543 4.5 16 4.5C13.7457 4.5 11.5837 5.39553 9.98959 6.98959C8.39553 8.58365 7.5 10.7457 7.5 13C7.5 16.125 8.4475 17.0375 9.54375 18.095C10.64 19.1525 12 20.4637 12 23.5C12 24.5609 12.4214 25.5783 13.1716 26.3284C13.9217 27.0786 14.9391 27.5 16 27.5C17.125 27.5 18.0238 27.0375 18.8438 26.045C19.1 25.7481 19.4623 25.5634 19.8531 25.5304C20.2439 25.4974 20.6321 25.6188 20.9345 25.8686C21.2369 26.1183 21.4294 26.4766 21.4709 26.8666C21.5123 27.2566 21.3994 27.6473 21.1562 27.955C19.7612 29.6437 18.0262 30.5 16 30.5C14.1441 30.498 12.3648 29.7599 11.0524 28.4476C9.74012 27.1352 9.00199 25.3559 9 23.5C9 21.7388 8.42125 21.18 7.46125 20.25C6.14125 18.9825 4.5 17.3988 4.5 13C4.5 9.95001 5.7116 7.02494 7.86827 4.86827C10.0249 2.7116 12.95 1.5 16 1.5C19.05 1.5 21.9751 2.7116 24.1317 4.86827C26.2884 7.02494 27.5 9.95001 27.5 13ZM22.4837 19.7013C22.3132 19.6025 22.1249 19.5384 21.9296 19.5125C21.7342 19.4866 21.5357 19.4994 21.3453 19.5503C21.1549 19.6011 20.9765 19.689 20.82 19.8088C20.6636 19.9287 20.5324 20.0782 20.4338 20.2488C20.3789 20.3444 20.2939 20.4193 20.1921 20.4617C20.0902 20.504 19.9772 20.5116 19.8707 20.483C19.7641 20.4545 19.67 20.3915 19.603 20.3039C19.5359 20.2164 19.4997 20.1091 19.5 19.9988C19.5 19.0475 19.9563 18.3913 20.7 17.3988C21.5 16.3313 22.5 15 22.5 13C22.5 11.2761 21.8152 9.62279 20.5962 8.40381C19.3772 7.18482 17.7239 6.5 16 6.5C14.2761 6.5 12.6228 7.18482 11.4038 8.40381C10.1848 9.62279 9.5 11.2761 9.5 13C9.5 13.3978 9.65804 13.7794 9.93934 14.0607C10.2206 14.342 10.6022 14.5 11 14.5C11.3978 14.5 11.7794 14.342 12.0607 14.0607C12.342 13.7794 12.5 13.3978 12.5 13C12.5 12.0717 12.8687 11.1815 13.5251 10.5251C14.1815 9.86875 15.0717 9.5 16 9.5C16.9283 9.5 17.8185 9.86875 18.4749 10.5251C19.1313 11.1815 19.5 12.0717 19.5 13C19.5 13.9513 19.0437 14.6075 18.3 15.6C17.5 16.6688 16.5 18 16.5 20C16.4999 20.7705 16.7541 21.5195 17.2232 22.1308C17.6922 22.7422 18.3499 23.1816 19.0942 23.381C19.8384 23.5804 20.6277 23.5287 21.3396 23.2338C22.0514 22.9389 22.6461 22.4173 23.0312 21.75C23.2302 21.4057 23.2843 20.9965 23.1816 20.6123C23.079 20.2281 22.8279 19.9004 22.4837 19.7013Z" fill="black"/>
</svg>
