<svg width="32" height="32" viewBox="0 0 32 32" fill="none" xmlns="http://www.w3.org/2000/svg">
<path d="M27.11 25.9912C27.2452 26.1365 27.3503 26.3072 27.4191 26.4934C27.4879 26.6796 27.5191 26.8776 27.5108 27.0759C27.5025 27.2742 27.4549 27.4689 27.3708 27.6487C27.2867 27.8285 27.1678 27.9899 27.0209 28.1234C26.874 28.2569 26.7021 28.3599 26.5151 28.4264C26.3281 28.493 26.1297 28.5218 25.9315 28.5111C25.7333 28.5005 25.5392 28.4506 25.3604 28.3643C25.1816 28.2781 25.0217 28.1572 24.89 28.0087L20.7212 23.4237C20.484 23.4737 20.2424 23.4993 20 23.5C19.0717 23.5 18.1815 23.1312 17.5251 22.4748C16.8687 21.8185 16.5 20.9282 16.5 20C16.4997 19.6299 16.5353 19.2607 16.6062 18.8975L12.135 13.9787C11.935 14.2101 11.6692 14.3749 11.3729 14.4509C11.0767 14.527 10.7644 14.5106 10.4777 14.4042C10.191 14.2977 9.94373 14.1061 9.76898 13.8551C9.59424 13.6042 9.50038 13.3058 9.49998 13C9.4994 12.4332 9.57294 11.8689 9.71873 11.3212L8.18998 9.63873C7.73286 10.7003 7.49803 11.8442 7.49998 13C7.49998 16.125 8.44748 17.0375 9.54373 18.095C10.64 19.1525 12 20.4637 12 23.5C12 24.5608 12.4214 25.5783 13.1716 26.3284C13.9217 27.0785 14.9391 27.5 16 27.5C17.125 27.5 18.0237 27.0375 18.8437 26.045C19.1 25.7481 19.4623 25.5634 19.8531 25.5304C20.2439 25.4974 20.6321 25.6188 20.9345 25.8686C21.2368 26.1183 21.4294 26.4766 21.4708 26.8665C21.5123 27.2565 21.3994 27.6472 21.1562 27.955C19.7612 29.6437 18.0262 30.5 16 30.5C14.1441 30.498 12.3648 29.7599 11.0524 28.4475C9.7401 27.1352 9.00197 25.3559 8.99998 23.5C8.99998 21.7387 8.42123 21.18 7.46123 20.25C6.14123 18.9825 4.49998 17.3987 4.49998 13C4.49561 10.9867 5.0239 9.00812 6.03123 7.26498L4.88998 6.01498C4.7571 5.86921 4.65423 5.6987 4.58725 5.51317C4.52026 5.32765 4.49048 5.13075 4.49959 4.93372C4.5087 4.73668 4.55653 4.54337 4.64035 4.36482C4.72417 4.18627 4.84234 4.02598 4.98811 3.8931C5.13387 3.76022 5.30439 3.65735 5.48991 3.59037C5.67543 3.52338 5.87233 3.4936 6.06937 3.50271C6.2664 3.51182 6.45971 3.55965 6.63826 3.64347C6.81681 3.72729 6.9771 3.84546 7.10998 3.99123L27.11 25.9912ZM12.4175 5.28873C13.5392 4.76583 14.7624 4.49653 16 4.49998C18.2536 4.50229 20.4143 5.39857 22.0078 6.99213C23.6014 8.58568 24.4977 10.7463 24.5 13C24.5 13.3978 24.658 13.7793 24.9393 14.0606C25.2206 14.3419 25.6022 14.5 26 14.5C26.3978 14.5 26.7793 14.3419 27.0606 14.0606C27.3419 13.7793 27.5 13.3978 27.5 13C27.5003 11.0672 27.0136 9.16551 26.0846 7.47061C25.1557 5.77571 23.8145 4.34228 22.1851 3.30276C20.5557 2.26323 18.6906 1.65116 16.762 1.52308C14.8335 1.39501 12.9038 1.75506 11.1512 2.56998C10.8002 2.74368 10.531 3.04782 10.4012 3.41739C10.2714 3.78696 10.2913 4.19264 10.4567 4.54771C10.6221 4.90279 10.9198 5.17908 11.2862 5.31755C11.6526 5.45602 12.0586 5.44568 12.4175 5.28873ZM20.5537 15.4137C20.6651 15.4405 20.7792 15.4539 20.8937 15.4537C21.2325 15.4534 21.5611 15.3385 21.8262 15.1277C22.0913 14.9168 22.2772 14.6225 22.3537 14.2925C22.4519 13.8687 22.501 13.435 22.5 13C22.498 11.2767 21.8125 9.62453 20.594 8.40597C19.3754 7.18742 17.7233 6.50196 16 6.49998C15.7875 6.49998 15.5725 6.50998 15.3612 6.53123C14.9652 6.56985 14.6008 6.7642 14.3481 7.07152C14.0954 7.37885 13.9751 7.77397 14.0137 8.16998C14.0524 8.56598 14.2467 8.93042 14.554 9.18312C14.8614 9.43583 15.2565 9.5561 15.6525 9.51748C15.7675 9.50623 15.885 9.49998 16 9.49998C16.9282 9.49998 17.8185 9.86872 18.4749 10.5251C19.1312 11.1815 19.5 12.0717 19.5 13C19.5007 13.2052 19.478 13.4099 19.4325 13.61C19.3426 13.9973 19.4102 14.4046 19.6205 14.7421C19.8307 15.0796 20.1664 15.3199 20.5537 15.41V15.4137Z" fill="black"/>
</svg>
