<svg width="32" height="32" viewBox="0 0 32 32" fill="none" xmlns="http://www.w3.org/2000/svg">
<path d="M26.74 26.3275C26.8301 26.4244 26.9002 26.5382 26.9461 26.6623C26.9919 26.7865 27.0127 26.9184 27.0072 27.0507C27.0016 27.1829 26.9699 27.3127 26.9139 27.4326C26.8578 27.5524 26.7785 27.66 26.6806 27.749C26.5827 27.838 26.468 27.9066 26.3434 27.951C26.2187 27.9954 26.0865 28.0146 25.9543 28.0075C25.8222 28.0004 25.6928 27.9671 25.5736 27.9096C25.4544 27.8521 25.3478 27.7715 25.26 27.6725L23.975 26.2588C24.502 25.849 24.9964 25.3989 25.4537 24.9125L26.74 26.3275ZM8.02498 5.74129L6.73998 4.32754C6.65216 4.22855 6.54557 4.14798 6.42638 4.09048C6.30719 4.03299 6.17777 3.99972 6.04564 3.99262C5.9135 3.98551 5.78126 4.0047 5.65659 4.04907C5.53192 4.09344 5.4173 4.16212 5.31937 4.25112C5.22143 4.34012 5.14214 4.44767 5.08608 4.56754C5.03002 4.68741 4.99831 4.81721 4.99279 4.94943C4.98726 5.08164 5.00804 5.21364 5.0539 5.33777C5.09977 5.4619 5.16981 5.57569 5.25998 5.67254L6.54623 7.08754C7.00356 6.6012 7.49796 6.1511 8.02498 5.74129ZM25.4537 24.9125L8.02498 5.74129C10.6087 3.72972 13.8566 2.76789 17.119 3.04822C20.3814 3.32855 23.4176 4.83037 25.6203 7.25322C27.8229 9.67607 29.0295 12.8413 28.9986 16.1155C28.9677 19.3898 27.7017 22.5317 25.4537 24.9125ZM19.875 13C19.7125 12.3704 19.3991 11.7899 18.9617 11.3088C18.5243 10.8277 17.9763 10.4604 17.365 10.2388C17.1217 10.1696 16.8613 10.1951 16.6361 10.3102C16.411 10.4253 16.2377 10.6214 16.1514 10.8591C16.065 11.0968 16.0719 11.3584 16.1707 11.5912C16.2695 11.824 16.4528 12.0107 16.6837 12.1138C16.9878 12.2247 17.2604 12.4078 17.4781 12.6473C17.6958 12.8868 17.8522 13.1756 17.9337 13.4888C17.9891 13.7033 18.1142 13.8934 18.2893 14.0291C18.4644 14.1649 18.6797 14.2386 18.9012 14.2388C18.9856 14.239 19.0697 14.2281 19.1512 14.2063C19.4064 14.1411 19.6255 13.9778 19.7611 13.7519C19.8966 13.5261 19.9375 13.2559 19.875 13ZM24 14C24.0004 12.7137 23.6906 11.4463 23.0969 10.3052C22.5032 9.1641 21.6431 8.18298 20.5896 7.44502C19.536 6.70707 18.32 6.23405 17.0447 6.06607C15.7694 5.89808 14.4725 6.04009 13.2637 6.48004C13.0313 6.58237 12.8465 6.7693 12.7468 7.00291C12.6471 7.23652 12.6401 7.49929 12.7271 7.7379C12.8141 7.97651 12.9887 8.17307 13.2153 8.28768C13.442 8.4023 13.7037 8.42638 13.9475 8.35504C14.8544 8.02487 15.8277 7.91837 16.7846 8.04458C17.7415 8.17079 18.6538 8.52599 19.4441 9.08004C20.2345 9.63408 20.8795 10.3706 21.3244 11.2271C21.7694 12.0836 22.0011 13.0349 22 14C22 14.2653 22.1053 14.5196 22.2929 14.7072C22.4804 14.8947 22.7348 15 23 15C23.2652 15 23.5196 14.8947 23.7071 14.7072C23.8946 14.5196 24 14.2653 24 14ZM18.5 21C17.8369 21 17.2011 20.7367 16.7322 20.2678C16.2634 19.799 16 19.1631 16 18.5C15.9984 18.2038 16.0405 17.909 16.125 17.625L13.5687 14.8125C13.4031 14.9323 13.2044 14.9978 13 15C12.7348 15 12.4804 14.8947 12.2929 14.7072C12.1053 14.5196 12 14.2653 12 14C12 13.7245 12.0285 13.4497 12.085 13.18L10.5487 11.49C10.1852 12.2767 9.99787 13.1334 9.99998 14C9.99998 15.4875 10.8387 16.5625 11.7275 17.7C12.6025 18.815 13.5 19.9688 13.5 21.5C13.4998 21.9924 13.645 22.4739 13.9175 22.8841C14.1899 23.2943 14.5774 23.6149 15.0313 23.8057C15.4853 23.9964 15.9854 24.0489 16.4691 23.9565C16.9527 23.8641 17.3983 23.631 17.75 23.2863C17.8424 23.1886 17.9536 23.1105 18.0769 23.0568C18.2002 23.0031 18.3331 22.9747 18.4676 22.9736C18.6021 22.9724 18.7355 22.9984 18.8597 23.0499C18.984 23.1015 19.0965 23.1776 19.1907 23.2737C19.2848 23.3697 19.3586 23.4838 19.4076 23.6091C19.4567 23.7343 19.4799 23.8682 19.476 24.0026C19.4721 24.1371 19.4411 24.2694 19.3848 24.3916C19.3286 24.5138 19.2483 24.6234 19.1487 24.7138C18.5158 25.3337 17.714 25.753 16.8437 25.9191C15.9735 26.0852 15.0736 25.9908 14.2568 25.6476C13.4401 25.3044 12.7428 24.7278 12.2523 23.99C11.7619 23.2521 11.5002 22.386 11.5 21.5C11.5 20.6575 10.875 19.8575 10.1512 18.9313C9.19248 17.7038 7.99998 16.1763 7.99998 14C7.99836 12.5624 8.3872 11.1514 9.12498 9.91754L6.54623 7.08754C4.2983 9.46843 3.03225 12.6103 3.00137 15.8846C2.9705 19.1588 4.17708 22.324 6.37971 24.7469C8.58234 27.1697 11.6186 28.6715 14.881 28.9519C18.1434 29.2322 21.3913 28.2704 23.975 26.2588L19.125 20.9213C18.9208 20.974 18.7108 21.0005 18.5 21Z" fill="black"/>
</svg>
