<svg width="32" height="32" viewBox="0 0 32 32" fill="none" xmlns="http://www.w3.org/2000/svg">
<path d="M23.75 7.1675C21.3825 3.625 18.485 1.5 16 1.5C13.515 1.5 10.6175 3.625 8.25 7.1675C5.8675 10.75 4.5 15.0575 4.5 19C4.5 22.05 5.7116 24.9751 7.86827 27.1317C10.0249 29.2884 12.95 30.5 16 30.5C19.05 30.5 21.9751 29.2884 24.1317 27.1317C26.2884 24.9751 27.5 22.05 27.5 19C27.5 15.0575 26.1325 10.75 23.75 7.1675ZM16 27.5C13.7464 27.4977 11.5857 26.6014 9.99215 25.0078C8.39859 23.4143 7.50232 21.2536 7.5 19C7.5 11.36 13.2738 4.5 16 4.5C16.9487 4.5 18.2662 5.33125 19.58 6.735L14.8813 12C14.7094 12.1923 14.5899 12.4257 14.5346 12.6776C14.4792 12.9295 14.4897 13.1915 14.5651 13.4381C14.6405 13.6848 14.7782 13.9079 14.965 14.0858C15.1517 14.2637 15.3812 14.3904 15.6313 14.4537L18.2437 15.1075L17.5238 18.705C17.4851 18.8982 17.485 19.0971 17.5232 19.2904C17.5615 19.4837 17.6375 19.6675 17.7469 19.8314C17.8562 19.9953 17.9968 20.1361 18.1605 20.2457C18.3243 20.3552 18.508 20.4315 18.7013 20.47C18.7996 20.4901 18.8997 20.5001 19 20.5C19.3467 20.4998 19.6826 20.3795 19.9506 20.1596C20.2186 19.9397 20.4021 19.6337 20.47 19.2938L21.47 14.2937C21.5458 13.9156 21.473 13.5228 21.2667 13.1969C21.0605 12.8711 20.7367 12.6371 20.3625 12.5437L18.77 12.145L21.445 9.145C23.15 11.7925 24.5 15.305 24.5 19C24.4977 21.2536 23.6014 23.4143 22.0078 25.0078C20.4143 26.6014 18.2536 27.4977 16 27.5Z" fill="black"/>
</svg>
