<svg width="32" height="32" viewBox="0 0 32 32" fill="none" xmlns="http://www.w3.org/2000/svg">
<path d="M29.5 26C29.5 26.3978 29.342 26.7793 29.0607 27.0606C28.7794 27.3419 28.3978 27.5 28 27.5H4C3.60218 27.5 3.22064 27.3419 2.93934 27.0606C2.65804 26.7793 2.5 26.3978 2.5 26C2.5 25.6021 2.65804 25.2206 2.93934 24.9393C3.22064 24.658 3.60218 24.5 4 24.5H28C28.3978 24.5 28.7794 24.658 29.0607 24.9393C29.342 25.2206 29.5 25.6021 29.5 26ZM2.75 20.0712C2.54374 19.643 2.46383 19.1649 2.51962 18.6929C2.57541 18.2208 2.76459 17.7745 3.065 17.4062L13.27 4.8037C13.599 4.39656 14.0149 4.06816 14.4873 3.84256C14.9597 3.61696 15.4765 3.49988 16 3.49988C16.5235 3.49988 17.0403 3.61696 17.5127 3.84256C17.9851 4.06816 18.401 4.39656 18.73 4.8037L28.9363 17.4062C29.2346 17.7747 29.4227 18.22 29.4787 18.6908C29.5346 19.1616 29.4563 19.6387 29.2526 20.0668C29.0489 20.495 28.7282 20.8567 28.3276 21.1103C27.927 21.3639 27.4629 21.499 26.9888 21.5H5.01125C4.5374 21.5019 4.07284 21.3685 3.67224 21.1154C3.27165 20.8623 2.95168 20.5 2.75 20.0712ZM6.0375 18.5H25.9625L16.4 6.6912C16.3518 6.63146 16.2909 6.58326 16.2217 6.55015C16.1525 6.51704 16.0767 6.49985 16 6.49985C15.9233 6.49985 15.8475 6.51704 15.7783 6.55015C15.7091 6.58326 15.6482 6.63146 15.6 6.6912L6.0375 18.5Z" fill="black"/>
</svg>
