<svg width="32" height="32" viewBox="0 0 32 32" fill="none" xmlns="http://www.w3.org/2000/svg">
<path opacity="0.08" d="M26.99 20H5.00999C4.81907 19.9992 4.63226 19.9445 4.47112 19.8421C4.30997 19.7397 4.18106 19.5939 4.09925 19.4214C4.01744 19.2489 3.98607 19.0567 4.00876 18.8672C4.03145 18.6776 4.10728 18.4983 4.22749 18.35L14.435 5.74999C14.6237 5.51754 14.8619 5.33012 15.1322 5.20139C15.4025 5.07266 15.6981 5.00586 15.9975 5.00586C16.2969 5.00586 16.5925 5.07266 16.8628 5.20139C17.1331 5.33012 17.3713 5.51754 17.56 5.74999L27.7725 18.35C27.8927 18.4983 27.9685 18.6776 27.9912 18.8672C28.0139 19.0567 27.9825 19.2489 27.9007 19.4214C27.8189 19.5939 27.69 19.7397 27.5289 19.8421C27.3677 19.9445 27.1809 19.9992 26.99 20Z" fill="black"/>
<path d="M29 26C29 26.2652 28.8946 26.5196 28.7071 26.7071C28.5196 26.8946 28.2652 27 28 27H3.99999C3.73477 27 3.48042 26.8946 3.29288 26.7071C3.10534 26.5196 2.99999 26.2652 2.99999 26C2.99999 25.7348 3.10534 25.4804 3.29288 25.2929C3.48042 25.1053 3.73477 25 3.99999 25H28C28.2652 25 28.5196 25.1053 28.7071 25.2929C28.8946 25.4804 29 25.7348 29 26ZM3.19874 19.855C3.0331 19.5124 2.96863 19.1296 3.01292 18.7517C3.0572 18.3737 3.20839 18.0163 3.44874 17.7212L13.6575 5.11748C13.94 4.76844 14.297 4.48695 14.7023 4.29359C15.1076 4.10023 15.5509 3.99988 16 3.99988C16.449 3.99988 16.8924 4.10023 17.2977 4.29359C17.703 4.48695 18.06 4.76844 18.3425 5.11748L28.5487 17.7212C28.7877 18.0164 28.9382 18.3731 28.983 18.7501C29.0278 19.1272 28.965 19.5092 28.8018 19.8521C28.6387 20.195 28.3819 20.4848 28.061 20.6879C27.7402 20.891 27.3685 20.9992 26.9887 21H5.01124C4.6316 21.0008 4.25957 20.8936 3.93861 20.6909C3.61765 20.4881 3.36103 20.1982 3.19874 19.855ZM4.99999 18.9887C4.99999 18.9887 4.99999 19 5.00999 19.0025H26.9887C26.9887 19.0025 26.9987 18.9912 26.9987 18.9862L16.7875 6.37498C16.6926 6.25753 16.5726 6.1628 16.4363 6.09773C16.3001 6.03265 16.151 5.99887 16 5.99887C15.849 5.99887 15.6999 6.03265 15.5636 6.09773C15.4274 6.1628 15.3074 6.25753 15.2125 6.37498L4.99999 18.98C4.99962 18.9829 4.99962 18.9858 4.99999 18.9887Z" fill="black"/>
</svg>
