<svg width="32" height="32" viewBox="0 0 32 32" fill="none" xmlns="http://www.w3.org/2000/svg">
<path d="M26 20H6C5.33696 20 4.70107 20.2634 4.23223 20.7322C3.76339 21.201 3.5 21.8369 3.5 22.5V25C3.5 25.663 3.76339 26.2989 4.23223 26.7677C4.70107 27.2366 5.33696 27.5 6 27.5H26C26.663 27.5 27.2989 27.2366 27.7678 26.7677C28.2366 26.2989 28.5 25.663 28.5 25V22.5C28.5 21.8369 28.2366 21.201 27.7678 20.7322C27.2989 20.2634 26.663 20 26 20ZM25.5 24.5H6.5V23H25.5V24.5ZM6.03375 18H25.9662C26.4627 17.9995 26.948 17.8532 27.362 17.5793C27.7759 17.3053 28.1003 16.9158 28.2949 16.4591C28.4894 16.0024 28.5455 15.4987 28.4562 15.0104C28.3669 14.5221 28.1361 14.0707 27.7925 13.7125L18.5725 4.09747C18.2399 3.75051 17.8405 3.47443 17.3984 3.28583C16.9563 3.09723 16.4806 3 16 3C15.5194 3 15.0437 3.09723 14.6016 3.28583C14.1595 3.47443 13.7601 3.75051 13.4275 4.09747L4.2075 13.7125C3.86391 14.0707 3.63313 14.5221 3.54382 15.0104C3.45451 15.4987 3.51061 16.0024 3.70514 16.4591C3.89967 16.9158 4.22406 17.3053 4.63804 17.5793C5.05202 17.8532 5.53735 17.9995 6.03375 18ZM15.5938 6.17372C15.6462 6.11873 15.7092 6.07496 15.779 6.04505C15.8489 6.01514 15.924 5.99972 16 5.99972C16.076 5.99972 16.1511 6.01514 16.221 6.04505C16.2908 6.07496 16.3538 6.11873 16.4062 6.17372L24.875 15H7.125L15.5938 6.17372Z" fill="black"/>
</svg>
