<svg width="32" height="32" viewBox="0 0 32 32" fill="none" xmlns="http://www.w3.org/2000/svg">
<path d="M26 20.2499H6C5.53587 20.2499 5.09075 20.4343 4.76256 20.7625C4.43437 21.0907 4.25 21.5358 4.25 21.9999V24.9999C4.25 25.4641 4.43437 25.9092 4.76256 26.2374C5.09075 26.5656 5.53587 26.7499 6 26.7499H26C26.4641 26.7499 26.9092 26.5656 27.2374 26.2374C27.5656 25.9092 27.75 25.4641 27.75 24.9999V21.9999C27.75 21.5358 27.5656 21.0907 27.2374 20.7625C26.9092 20.4343 26.4641 20.2499 26 20.2499ZM26.25 24.9999C26.25 25.0662 26.2237 25.1298 26.1768 25.1767C26.1299 25.2236 26.0663 25.2499 26 25.2499H6C5.9337 25.2499 5.87011 25.2236 5.82322 25.1767C5.77634 25.1298 5.75 25.0662 5.75 24.9999V21.9999C5.75 21.9336 5.77634 21.8701 5.82322 21.8232C5.87011 21.7763 5.9337 21.7499 6 21.7499H26C26.0663 21.7499 26.1299 21.7763 26.1768 21.8232C26.2237 21.8701 26.25 21.9336 26.25 21.9999V24.9999ZM6.03 17.7499H25.97C26.3176 17.7519 26.6582 17.6516 26.9493 17.4616C27.2405 17.2716 27.4693 17.0002 27.6075 16.6812C27.7431 16.3712 27.7831 16.0278 27.7226 15.695C27.662 15.3621 27.5036 15.0548 27.2675 14.8124L18.0513 5.12495C17.7858 4.84872 17.4672 4.62896 17.1148 4.47884C16.7623 4.32872 16.3831 4.25134 16 4.25134C15.6169 4.25134 15.2377 4.32872 14.8852 4.47884C14.5328 4.62896 14.2142 4.84872 13.9487 5.12495L4.7325 14.8124C4.49643 15.0548 4.33798 15.3621 4.27742 15.695C4.21685 16.0278 4.25692 16.3712 4.3925 16.6812C4.53067 17.0002 4.75955 17.2716 5.05068 17.4616C5.34181 17.6516 5.68236 17.7519 6.03 17.7499ZM5.81875 15.8462L15.035 6.15745C15.1605 6.02848 15.3105 5.92597 15.4762 5.85597C15.642 5.78597 15.8201 5.7499 16 5.7499C16.1799 5.7499 16.358 5.78597 16.5238 5.85597C16.6895 5.92597 16.8395 6.02848 16.965 6.15745L26.1812 15.8462C26.2156 15.8768 26.2389 15.9179 26.2475 15.9631C26.2561 16.0083 26.2495 16.0551 26.2288 16.0962C26.2072 16.1461 26.1708 16.1881 26.1245 16.2165C26.0782 16.2449 26.0242 16.2584 25.97 16.2549H6.03C5.97577 16.2584 5.92181 16.2449 5.8755 16.2165C5.82918 16.1881 5.79277 16.1461 5.77125 16.0962C5.7505 16.0551 5.74391 16.0083 5.7525 15.9631C5.76109 15.9179 5.78438 15.8768 5.81875 15.8462Z" fill="black"/>
</svg>
