<svg width="32" height="32" viewBox="0 0 32 32" fill="none" xmlns="http://www.w3.org/2000/svg">
<path d="M26 3.5H6C5.33696 3.5 4.70107 3.76339 4.23223 4.23223C3.76339 4.70107 3.5 5.33696 3.5 6V26C3.5 26.663 3.76339 27.2989 4.23223 27.7678C4.70107 28.2366 5.33696 28.5 6 28.5H26C26.663 28.5 27.2989 28.2366 27.7678 27.7678C28.2366 27.2989 28.5 26.663 28.5 26V6C28.5 5.33696 28.2366 4.70107 27.7678 4.23223C27.2989 3.76339 26.663 3.5 26 3.5ZM21 16V25.5H17.5V16H21ZM14.5 25.5H11V16H14.5V25.5ZM25.5 25.5H24V14.5C24 14.1022 23.842 13.7206 23.5607 13.4393C23.2794 13.158 22.8978 13 22.5 13H9.5C9.10218 13 8.72064 13.158 8.43934 13.4393C8.15804 13.7206 8 14.1022 8 14.5V25.5H6.5V6.5H25.5V25.5ZM12.5 9.5C12.5 9.10218 12.658 8.72064 12.9393 8.43934C13.2206 8.15804 13.6022 8 14 8H18C18.3978 8 18.7794 8.15804 19.0607 8.43934C19.342 8.72064 19.5 9.10218 19.5 9.5C19.5 9.89782 19.342 10.2794 19.0607 10.5607C18.7794 10.842 18.3978 11 18 11H14C13.6022 11 13.2206 10.842 12.9393 10.5607C12.658 10.2794 12.5 9.89782 12.5 9.5Z" fill="black"/>
</svg>
