<svg width="32" height="32" viewBox="0 0 32 32" fill="none" xmlns="http://www.w3.org/2000/svg">
<path d="M28.8325 10.75L16.8325 2.75003C16.586 2.58557 16.2963 2.4978 16 2.4978C15.7037 2.4978 15.414 2.58557 15.1675 2.75003L3.1675 10.75C2.96185 10.8872 2.79329 11.0732 2.67684 11.2912C2.56038 11.5093 2.49964 11.7528 2.5 12V25C2.5 25.6631 2.76339 26.299 3.23223 26.7678C3.70108 27.2366 4.33696 27.5 5 27.5H27C27.663 27.5 28.2989 27.2366 28.7678 26.7678C29.2366 26.299 29.5 25.6631 29.5 25V12C29.5004 11.7528 29.4396 11.5093 29.3232 11.2912C29.2067 11.0732 29.0382 10.8872 28.8325 10.75ZM11.2263 19L5.5 23.0388V14.9138L11.2263 19ZM14.295 20.5H17.705L23.375 24.5H8.63125L14.295 20.5ZM20.7738 19L26.5 14.9113V23.0363L20.7738 19ZM16 5.80253L25.3575 12.0413L17.7013 17.5H14.2988L6.6425 12.0413L16 5.80253Z" fill="black"/>
</svg>
