<svg width="32" height="32" viewBox="0 0 32 32" fill="none" xmlns="http://www.w3.org/2000/svg">
<path d="M10 13.5C10 13.8978 9.84196 14.2794 9.56066 14.5607C9.27936 14.842 8.89782 15 8.5 15H3C2.60218 15 2.22064 14.842 1.93934 14.5607C1.65804 14.2794 1.5 13.8978 1.5 13.5C1.5 13.1022 1.65804 12.7206 1.93934 12.4393C2.22064 12.158 2.60218 12 3 12H8.5C8.89782 12 9.27936 12.158 9.56066 12.4393C9.84196 12.7206 10 13.1022 10 13.5ZM8.5 17H3C2.60218 17 2.22064 17.158 1.93934 17.4393C1.65804 17.7206 1.5 18.1022 1.5 18.5C1.5 18.8978 1.65804 19.2794 1.93934 19.5607C2.22064 19.842 2.60218 20 3 20H8.5C8.89782 20 9.27936 19.842 9.56066 19.5607C9.84196 19.2794 10 18.8978 10 18.5C10 18.1022 9.84196 17.7206 9.56066 17.4393C9.27936 17.158 8.89782 17 8.5 17ZM8.5 22H3C2.60218 22 2.22064 22.158 1.93934 22.4393C1.65804 22.7206 1.5 23.1022 1.5 23.5C1.5 23.8978 1.65804 24.2794 1.93934 24.5607C2.22064 24.842 2.60218 25 3 25H8.5C8.89782 25 9.27936 24.842 9.56066 24.5607C9.84196 24.2794 10 23.8978 10 23.5C10 23.1022 9.84196 22.7206 9.56066 22.4393C9.27936 22.158 8.89782 22 8.5 22ZM18.75 17H13.25C12.8522 17 12.4706 17.158 12.1893 17.4393C11.908 17.7206 11.75 18.1022 11.75 18.5C11.75 18.8978 11.908 19.2794 12.1893 19.5607C12.4706 19.842 12.8522 20 13.25 20H18.75C19.1478 20 19.5294 19.842 19.8107 19.5607C20.092 19.2794 20.25 18.8978 20.25 18.5C20.25 18.1022 20.092 17.7206 19.8107 17.4393C19.5294 17.158 19.1478 17 18.75 17ZM18.75 22H13.25C12.8522 22 12.4706 22.158 12.1893 22.4393C11.908 22.7206 11.75 23.1022 11.75 23.5C11.75 23.8978 11.908 24.2794 12.1893 24.5607C12.4706 24.842 12.8522 25 13.25 25H18.75C19.1478 25 19.5294 24.842 19.8107 24.5607C20.092 24.2794 20.25 23.8978 20.25 23.5C20.25 23.1022 20.092 22.7206 19.8107 22.4393C19.5294 22.158 19.1478 22 18.75 22ZM23.5 10H29C29.3978 10 29.7794 9.84196 30.0607 9.56066C30.342 9.27936 30.5 8.89782 30.5 8.5C30.5 8.10218 30.342 7.72064 30.0607 7.43934C29.7794 7.15804 29.3978 7 29 7H23.5C23.1022 7 22.7206 7.15804 22.4393 7.43934C22.158 7.72064 22 8.10218 22 8.5C22 8.89782 22.158 9.27936 22.4393 9.56066C22.7206 9.84196 23.1022 10 23.5 10ZM29 12H23.5C23.1022 12 22.7206 12.158 22.4393 12.4393C22.158 12.7206 22 13.1022 22 13.5C22 13.8978 22.158 14.2794 22.4393 14.5607C22.7206 14.842 23.1022 15 23.5 15H29C29.3978 15 29.7794 14.842 30.0607 14.5607C30.342 14.2794 30.5 13.8978 30.5 13.5C30.5 13.1022 30.342 12.7206 30.0607 12.4393C29.7794 12.158 29.3978 12 29 12ZM29 17H23.5C23.1022 17 22.7206 17.158 22.4393 17.4393C22.158 17.7206 22 18.1022 22 18.5C22 18.8978 22.158 19.2794 22.4393 19.5607C22.7206 19.842 23.1022 20 23.5 20H29C29.3978 20 29.7794 19.842 30.0607 19.5607C30.342 19.2794 30.5 18.8978 30.5 18.5C30.5 18.1022 30.342 17.7206 30.0607 17.4393C29.7794 17.158 29.3978 17 29 17ZM29 22H23.5C23.1022 22 22.7206 22.158 22.4393 22.4393C22.158 22.7206 22 23.1022 22 23.5C22 23.8978 22.158 24.2794 22.4393 24.5607C22.7206 24.842 23.1022 25 23.5 25H29C29.3978 25 29.7794 24.842 30.0607 24.5607C30.342 24.2794 30.5 23.8978 30.5 23.5C30.5 23.1022 30.342 22.7206 30.0607 22.4393C29.7794 22.158 29.3978 22 29 22Z" fill="black"/>
</svg>
