<svg width="32" height="32" viewBox="0 0 32 32" fill="none" xmlns="http://www.w3.org/2000/svg">
<path d="M27.7687 10.4025L22.5962 5.23123C22.1274 4.76256 21.4917 4.49927 20.8287 4.49927C20.1658 4.49927 19.5301 4.76256 19.0612 5.23123L4.23125 20.06C3.99899 20.2921 3.81476 20.5678 3.68906 20.8712C3.56336 21.1745 3.49866 21.4997 3.49866 21.8281C3.49866 22.1565 3.56336 22.4817 3.68906 22.785C3.81476 23.0884 3.99899 23.3641 4.23125 23.5962L7.98875 27.3537C8.03522 27.4002 8.09038 27.437 8.15107 27.4621C8.21177 27.4871 8.27682 27.5 8.3425 27.5H27C27.1326 27.5 27.2598 27.4473 27.3536 27.3535C27.4473 27.2598 27.5 27.1326 27.5 27C27.5 26.8674 27.4473 26.7402 27.3536 26.6464C27.2598 26.5527 27.1326 26.5 27 26.5H15.2075L27.7687 13.9387C28.001 13.7066 28.1852 13.4309 28.3109 13.1276C28.4366 12.8242 28.5013 12.499 28.5013 12.1706C28.5013 11.8422 28.4366 11.517 28.3109 11.2137C28.1852 10.9103 28.001 10.6346 27.7687 10.4025ZM13.7925 26.5H8.55L4.93875 22.8887C4.79891 22.7494 4.68795 22.5838 4.61224 22.4015C4.53654 22.2191 4.49757 22.0237 4.49757 21.8262C4.49757 21.6288 4.53654 21.4333 4.61224 21.251C4.68795 21.0687 4.79891 20.9031 4.93875 20.7637L12 13.7062L19.2937 21L13.7925 26.5ZM27.0612 13.2312L20 20.2925L12.7062 13L19.7675 5.93998C19.9069 5.80014 20.0724 5.68919 20.2548 5.61348C20.4371 5.53777 20.6326 5.4988 20.83 5.4988C21.0274 5.4988 21.2229 5.53777 21.4052 5.61348C21.5876 5.68919 21.7531 5.80014 21.8925 5.93998L27.0637 11.1112C27.3443 11.3928 27.5016 11.7742 27.5012 12.1718C27.5007 12.5693 27.3425 12.9503 27.0612 13.2312Z" fill="black"/>
</svg>
