<svg width="32" height="32" viewBox="0 0 32 32" fill="none" xmlns="http://www.w3.org/2000/svg">
<path d="M27.9462 10.2262L22.7737 5.05372C22.5183 4.79822 22.2151 4.59554 21.8814 4.45726C21.5476 4.31898 21.1899 4.2478 20.8287 4.2478C20.4675 4.2478 20.1098 4.31898 19.776 4.45726C19.4423 4.59554 19.1391 4.79822 18.8837 5.05372L4.0537 19.8837C3.53808 20.3994 3.24841 21.0988 3.24841 21.8281C3.24841 22.5574 3.53808 23.2568 4.0537 23.7725L7.81245 27.53C7.95297 27.6707 8.14361 27.7498 8.34245 27.75H27C27.1989 27.75 27.3896 27.6709 27.5303 27.5303C27.6709 27.3896 27.75 27.1989 27.75 27C27.75 26.8011 27.6709 26.6103 27.5303 26.4696C27.3896 26.329 27.1989 26.25 27 26.25H15.8112L27.9462 14.115C28.4618 13.5993 28.7515 12.8999 28.7515 12.1706C28.7515 11.4413 28.4618 10.7419 27.9462 10.2262ZM13.6887 26.25H8.65245L5.11495 22.7125C4.99873 22.5964 4.90653 22.4585 4.84363 22.3068C4.78072 22.155 4.74834 21.9924 4.74834 21.8281C4.74834 21.6638 4.78072 21.5012 4.84363 21.3494C4.90653 21.1977 4.99873 21.0598 5.11495 20.9437L12 14.06L18.94 21L13.6887 26.25ZM26.885 13.055L20 19.9387L13.06 13L19.945 6.11622C20.1794 5.88188 20.4972 5.75023 20.8287 5.75023C21.1602 5.75023 21.478 5.88188 21.7125 6.11622L26.885 11.2875C27.1193 11.5219 27.2509 11.8398 27.2509 12.1712C27.2509 12.5027 27.1193 12.8206 26.885 13.055Z" fill="black"/>
</svg>
