<svg width="32" height="32" viewBox="0 0 32 32" fill="none" xmlns="http://www.w3.org/2000/svg">
<path d="M28 4.5H21.4375C21.0926 4.50056 20.7516 4.57222 20.4356 4.71052C20.1197 4.84881 19.8356 5.05076 19.6012 5.30375L8.34375 17.5H4C3.33696 17.5 2.70107 17.7634 2.23223 18.2322C1.76339 18.7011 1.5 19.337 1.5 20V25C1.5 25.663 1.76339 26.2989 2.23223 26.7678C2.70107 27.2366 3.33696 27.5 4 27.5H10.5625C10.9074 27.4994 11.2484 27.4278 11.5644 27.2895C11.8803 27.1512 12.1644 26.9492 12.3988 26.6963L23.6562 14.5H28C28.663 14.5 29.2989 14.2366 29.7678 13.7678C30.2366 13.2989 30.5 12.663 30.5 12V7C30.5 6.33696 30.2366 5.70107 29.7678 5.23223C29.2989 4.76339 28.663 4.5 28 4.5ZM27.5 11.5H23.4375C23.0926 11.5006 22.7516 11.5722 22.4356 11.7105C22.1197 11.8488 21.8356 12.0508 21.6012 12.3038L10.3438 24.5H4.5V20.5H8.5625C8.90738 20.4994 9.24844 20.4278 9.56439 20.2895C9.88033 20.1512 10.1644 19.9492 10.3988 19.6963L21.6562 7.5H27.5V11.5ZM29.0613 20.9387C29.343 21.2205 29.5014 21.6027 29.5014 22.0012C29.5014 22.3998 29.343 22.782 29.0613 23.0637C28.7795 23.3455 28.3973 23.5039 27.9988 23.5039C27.6002 23.5039 27.218 23.3455 26.9363 23.0637L26.5 22.625V26C26.5 26.3978 26.342 26.7794 26.0607 27.0607C25.7794 27.342 25.3978 27.5 25 27.5C24.6022 27.5 24.2206 27.342 23.9393 27.0607C23.658 26.7794 23.5 26.3978 23.5 26V22.625L23.0613 23.065C22.7795 23.3468 22.3973 23.5051 21.9988 23.5051C21.6002 23.5051 21.218 23.3468 20.9363 23.065C20.6545 22.7832 20.4961 22.401 20.4961 22.0025C20.4961 21.604 20.6545 21.2218 20.9363 20.94L23.9363 17.94C24.0756 17.8002 24.2412 17.6892 24.4235 17.6135C24.6059 17.5378 24.8013 17.4988 24.9988 17.4988C25.1962 17.4988 25.3917 17.5378 25.574 17.6135C25.7563 17.6892 25.9219 17.8002 26.0613 17.94L29.0613 20.9387Z" fill="black"/>
</svg>
