<svg width="32" height="32" viewBox="0 0 32 32" fill="none" xmlns="http://www.w3.org/2000/svg">
<path d="M20.9387 11.0612C20.657 10.7795 20.4986 10.3973 20.4986 9.99875C20.4986 9.60023 20.657 9.21804 20.9387 8.93625C21.2205 8.65446 21.6027 8.49615 22.0012 8.49615C22.3998 8.49615 22.782 8.65446 23.0637 8.93625L23.5 9.375V6C23.5 5.60218 23.658 5.22064 23.9393 4.93934C24.2206 4.65804 24.6022 4.5 25 4.5C25.3978 4.5 25.7794 4.65804 26.0607 4.93934C26.342 5.22064 26.5 5.60218 26.5 6V9.375L26.9387 8.935C27.0783 8.79547 27.2439 8.68479 27.4262 8.60928C27.6085 8.53376 27.8039 8.4949 28.0012 8.4949C28.1986 8.4949 28.394 8.53376 28.5763 8.60928C28.7586 8.68479 28.9242 8.79547 29.0637 8.935C29.2033 9.07453 29.314 9.24017 29.3895 9.42248C29.465 9.60478 29.5039 9.80018 29.5039 9.9975C29.5039 10.1948 29.465 10.3902 29.3895 10.5725C29.314 10.7548 29.2033 10.9205 29.0637 11.06L26.0637 14.06C25.9244 14.1998 25.7588 14.3108 25.5765 14.3865C25.3941 14.4622 25.1987 14.5012 25.0012 14.5012C24.8038 14.5012 24.6083 14.4622 24.426 14.3865C24.2437 14.3108 24.0781 14.1998 23.9387 14.06L20.9387 11.0612ZM30.5 20V25C30.5 25.663 30.2366 26.2989 29.7678 26.7678C29.2989 27.2366 28.663 27.5 28 27.5H21.4375C21.0923 27.4994 20.751 27.4276 20.4348 27.2891C20.1187 27.1505 19.8345 26.9483 19.6 26.695L8.34375 14.5H4C3.33696 14.5 2.70107 14.2366 2.23223 13.7678C1.76339 13.2989 1.5 12.663 1.5 12V7C1.5 6.33696 1.76339 5.70107 2.23223 5.23223C2.70107 4.76339 3.33696 4.5 4 4.5H10.5625C10.9077 4.50062 11.249 4.57243 11.5652 4.71094C11.8813 4.84945 12.1655 5.05169 12.4 5.305L23.6562 17.5H28C28.663 17.5 29.2989 17.7634 29.7678 18.2322C30.2366 18.7011 30.5 19.337 30.5 20ZM27.5 20.5H23.4375C23.0923 20.4994 22.751 20.4276 22.4348 20.2891C22.1187 20.1505 21.8345 19.9483 21.6 19.695L10.3438 7.5H4.5V11.5H8.5625C8.90767 11.5006 9.24901 11.5724 9.56517 11.7109C9.88133 11.8495 10.1655 12.0517 10.4 12.305L21.6562 24.5H27.5V20.5Z" fill="black"/>
</svg>
