<svg width="32" height="32" viewBox="0 0 32 32" fill="none" xmlns="http://www.w3.org/2000/svg">
<path d="M27 4.5H5C4.33696 4.5 3.70107 4.76339 3.23223 5.23223C2.76339 5.70107 2.5 6.33696 2.5 7V27C2.50003 27.2557 2.56543 27.5072 2.68999 27.7305C2.81455 27.9538 2.99413 28.1416 3.21168 28.276C3.42923 28.4104 3.67753 28.4869 3.93298 28.4983C4.18844 28.5098 4.44257 28.4557 4.67125 28.3412L8 26.6775L11.3287 28.3412C11.5371 28.4455 11.767 28.4998 12 28.4998C12.233 28.4998 12.4629 28.4455 12.6713 28.3412L16 26.6775L19.3288 28.3412C19.5371 28.4455 19.767 28.4998 20 28.4998C20.233 28.4998 20.4629 28.4455 20.6712 28.3412L24 26.6775L27.3288 28.3412C27.5574 28.4557 27.8116 28.5098 28.067 28.4983C28.3225 28.4869 28.5708 28.4104 28.7883 28.276C29.0059 28.1416 29.1854 27.9538 29.31 27.7305C29.4346 27.5072 29.5 27.2557 29.5 27V7C29.5 6.33696 29.2366 5.70107 28.7678 5.23223C28.2989 4.76339 27.663 4.5 27 4.5ZM26.5 24.5725L24.6712 23.6588C24.4629 23.5545 24.233 23.5002 24 23.5002C23.767 23.5002 23.5371 23.5545 23.3288 23.6588L20 25.3225L16.6712 23.6588C16.4629 23.5545 16.233 23.5002 16 23.5002C15.767 23.5002 15.5371 23.5545 15.3287 23.6588L12 25.3225L8.67125 23.6588C8.46286 23.5545 8.23303 23.5002 8 23.5002C7.76697 23.5002 7.53715 23.5545 7.32875 23.6588L5.5 24.5725V7.5H26.5V24.5725ZM7.89875 21.375C8.0793 21.4541 8.27367 21.4967 8.47073 21.5006C8.6678 21.5045 8.86369 21.4696 9.04723 21.3977C9.23077 21.3258 9.39834 21.2185 9.54038 21.0819C9.68241 20.9452 9.79612 20.7819 9.875 20.6012L10.1375 20H13.8625L14.1263 20.6012C14.2857 20.9659 14.5835 21.2523 14.9541 21.3974C15.3247 21.5425 15.7378 21.5345 16.1025 21.375C16.4672 21.2155 16.7536 20.9177 16.8987 20.5471C17.0438 20.1765 17.0357 19.7634 16.8762 19.3988L13.3763 11.3988C13.2596 11.1311 13.0673 10.9034 12.8231 10.7434C12.5788 10.5834 12.2932 10.4982 12.0013 10.4982C11.7093 10.4982 11.4237 10.5834 11.1794 10.7434C10.9352 10.9034 10.7429 11.1311 10.6263 11.3988L7.12625 19.3988C7.04716 19.5792 7.0044 19.7735 7.00042 19.9705C6.99644 20.1675 7.03132 20.3634 7.10306 20.5469C7.17479 20.7304 7.28199 20.898 7.41852 21.0401C7.55505 21.1822 7.71823 21.296 7.89875 21.375ZM12.55 17H11.45L12 15.7425L12.55 17ZM17 16C17 15.6022 17.158 15.2206 17.4393 14.9393C17.7206 14.658 18.1022 14.5 18.5 14.5H19.5V13.5C19.5 13.1022 19.658 12.7206 19.9393 12.4393C20.2206 12.158 20.6022 12 21 12C21.3978 12 21.7794 12.158 22.0607 12.4393C22.342 12.7206 22.5 13.1022 22.5 13.5V14.5H23.5C23.8978 14.5 24.2794 14.658 24.5607 14.9393C24.842 15.2206 25 15.6022 25 16C25 16.3978 24.842 16.7794 24.5607 17.0607C24.2794 17.342 23.8978 17.5 23.5 17.5H22.5V18.5C22.5 18.8978 22.342 19.2794 22.0607 19.5607C21.7794 19.842 21.3978 20 21 20C20.6022 20 20.2206 19.842 19.9393 19.5607C19.658 19.2794 19.5 18.8978 19.5 18.5V17.5H18.5C18.1022 17.5 17.7206 17.342 17.4393 17.0607C17.158 16.7794 17 16.3978 17 16Z" fill="black"/>
</svg>
