<svg width="32" height="32" viewBox="0 0 32 32" fill="none" xmlns="http://www.w3.org/2000/svg">
<path d="M22.25 9.74999C21.8475 7.90883 20.957 6.20993 19.6717 4.83154C18.3865 3.45315 16.7539 2.44609 14.9453 1.91603C13.1368 1.38598 11.2189 1.35246 9.39293 1.819C7.56695 2.28553 5.9002 3.23493 4.56757 4.56757C3.23493 5.9002 2.28553 7.56695 1.819 9.39293C1.35246 11.2189 1.38598 13.1368 1.91603 14.9453C2.44609 16.7539 3.45315 18.3865 4.83154 19.6717C6.20993 20.957 7.90883 21.8475 9.74999 22.25C10.1524 24.0912 11.043 25.7901 12.3283 27.1684C13.6135 28.5468 15.2461 29.5539 17.0546 30.084C18.8632 30.614 20.7811 30.6475 22.6071 30.181C24.433 29.7145 26.0998 28.7651 27.4324 27.4324C28.7651 26.0998 29.7145 24.433 30.181 22.6071C30.6475 20.7811 30.614 18.8632 30.084 17.0546C29.5539 15.2461 28.5468 13.6135 27.1684 12.3283C25.7901 11.043 24.0912 10.1524 22.25 9.74999ZM27.5 20C27.4994 20.2777 27.4835 20.5552 27.4525 20.8312L21.9525 15.3312C22.2144 14.5481 22.3823 13.7365 22.4525 12.9137C23.9252 13.4251 25.2022 14.3819 26.1067 15.6517C27.0111 16.9214 27.498 18.4411 27.5 20ZM12.52 19.48C12.6476 17.6763 13.4219 15.9792 14.7005 14.7005C15.9792 13.4219 17.6763 12.6476 19.48 12.52C19.3524 14.3237 18.5781 16.0208 17.2995 17.2995C16.0208 18.5781 14.3237 19.3524 12.52 19.48ZM19.0837 9.54249C18.2609 9.61272 17.4494 9.78056 16.6662 10.0425L11.1662 4.54249C11.4432 4.51305 11.7215 4.49886 12 4.49999C13.5579 4.50211 15.0765 4.98857 16.3457 5.89201C17.6149 6.79545 18.5717 8.07117 19.0837 9.54249ZM8.02374 5.64499L13.865 11.4862C12.9524 12.147 12.1507 12.9487 11.49 13.8612L5.64499 8.02374C6.24909 7.06215 7.06215 6.24909 8.02374 5.64499ZM4.49999 12C4.50061 11.7222 4.51647 11.4447 4.54749 11.1687L10.0475 16.6687C9.78556 17.4519 9.61772 18.2634 9.54749 19.0862C8.07483 18.5749 6.79775 17.618 5.89333 16.3483C4.9889 15.0786 4.50195 13.5589 4.49999 12ZM12.9162 22.4575C13.739 22.3873 14.5506 22.2194 15.3337 21.9575L20.8337 27.4575C20.5568 27.4869 20.2785 27.5011 20 27.5C18.4421 27.4979 16.9234 27.0114 15.6543 26.108C14.3851 25.2045 13.4283 23.9288 12.9162 22.4575ZM23.9762 26.355L18.135 20.5137C19.0476 19.853 19.8493 19.0513 20.51 18.1387L26.3512 23.98C25.7478 24.9398 24.9361 25.7515 23.9762 26.355Z" fill="black"/>
</svg>
