<svg width="32" height="32" viewBox="0 0 32 32" fill="none" xmlns="http://www.w3.org/2000/svg">
<path d="M30 20C29.9985 22.4921 29.0666 24.8938 27.3868 26.7346C25.7071 28.5754 23.4005 29.7227 20.919 29.9517C18.4375 30.1807 15.9599 29.4749 13.9716 27.9726C11.9833 26.4703 10.6276 24.2797 10.17 21.83C11.7661 22.1269 13.4105 22.0307 14.961 21.5498C16.5116 21.0689 17.9218 20.2177 19.0697 19.0697C20.2177 17.9218 21.0689 16.5116 21.5498 14.961C22.0307 13.4105 22.1269 11.7661 21.83 10.17C24.1251 10.5973 26.1984 11.814 27.6906 13.6093C29.1828 15.4047 29.9998 17.6655 30 20ZM20 10C20.614 10.0006 21.2265 10.0575 21.83 10.17C21.497 8.3793 20.6811 6.71354 19.4706 5.35257C18.26 3.99159 16.7007 2.9871 14.961 2.44751C13.2213 1.90793 11.3673 1.85375 9.59907 2.29083C7.83083 2.7279 6.21555 3.63963 4.92759 4.92759C3.63963 6.21555 2.7279 7.83083 2.29083 9.59907C1.85375 11.3673 1.90793 13.2213 2.44751 14.961C2.9871 16.7007 3.99159 18.26 5.35257 19.4706C6.71354 20.6811 8.3793 21.497 10.17 21.83C9.90137 20.3867 9.95381 18.9019 10.3236 17.481C10.6935 16.0602 11.3716 14.7383 12.3099 13.6091C13.2482 12.4799 14.4236 11.5711 15.7527 10.9474C17.0818 10.3237 18.5319 10.0002 20 10Z" fill="black"/>
</svg>
