<svg width="32" height="32" viewBox="0 0 32 32" fill="none" xmlns="http://www.w3.org/2000/svg">
<path d="M28.25 21.4337C28.1741 21.4778 28.0878 21.5007 28 21.5C27.9121 21.5001 27.8257 21.4771 27.7496 21.4332C27.6734 21.3893 27.6102 21.3261 27.5663 21.25L24.9225 16.625C23.351 17.7707 21.5718 18.5998 19.6838 19.0662L20.5 23.9175C20.5217 24.0483 20.4905 24.1823 20.4134 24.2901C20.3363 24.398 20.2195 24.4708 20.0888 24.4925C20.0611 24.4975 20.0331 24.5 20.005 24.5C19.8868 24.4998 19.7725 24.4578 19.6823 24.3814C19.5922 24.305 19.532 24.1991 19.5125 24.0825L18.7113 19.27C16.921 19.5767 15.0916 19.5767 13.3013 19.27L12.5 24.0825C12.4803 24.2004 12.419 24.3073 12.3273 24.3838C12.2356 24.4604 12.1195 24.5016 12 24.5C11.9719 24.4999 11.9439 24.4974 11.9163 24.4925C11.7855 24.4708 11.6687 24.398 11.5916 24.2901C11.5145 24.1823 11.4833 24.0483 11.505 23.9175L12.315 19.0637C10.4276 18.5979 8.64881 17.7696 7.07751 16.625L4.43376 21.25C4.38981 21.3261 4.32658 21.3893 4.25043 21.4332C4.17428 21.4771 4.0879 21.5001 4.00001 21.5C3.91225 21.5007 3.8259 21.4778 3.75001 21.4337C3.69298 21.401 3.64299 21.3573 3.60288 21.3052C3.56277 21.253 3.53334 21.1935 3.51627 21.13C3.4992 21.0665 3.49483 21.0002 3.50341 20.935C3.51198 20.8698 3.53334 20.8069 3.56626 20.75L6.27626 16.0075C5.29814 15.2026 4.40514 14.2996 3.61126 13.3125C3.56465 13.2622 3.5289 13.2028 3.50624 13.138C3.48357 13.0733 3.47447 13.0046 3.4795 12.9361C3.48453 12.8677 3.50358 12.8011 3.53547 12.7403C3.56737 12.6796 3.61142 12.6261 3.66489 12.5831C3.71835 12.5401 3.78009 12.5086 3.84626 12.4905C3.91243 12.4724 3.98162 12.4681 4.04952 12.4779C4.11742 12.4877 4.18257 12.5114 4.24093 12.5474C4.2993 12.5835 4.34961 12.6312 4.38876 12.6875C6.53126 15.3387 10.2863 18.5 16 18.5C21.7138 18.5 25.4688 15.3387 27.6113 12.6862C27.6504 12.6299 27.7007 12.5822 27.7591 12.5462C27.8174 12.5101 27.8826 12.4865 27.9505 12.4767C28.0184 12.4669 28.0876 12.4712 28.1538 12.4893C28.2199 12.5074 28.2817 12.5389 28.3351 12.5819C28.3886 12.6248 28.4326 12.6784 28.4645 12.7391C28.4964 12.7998 28.5155 12.8665 28.5205 12.9349C28.5255 13.0033 28.5164 13.072 28.4938 13.1368C28.4711 13.2015 28.4354 13.2609 28.3888 13.3112C27.5949 14.2983 26.7019 15.2014 25.7238 16.0062L28.4338 20.75C28.4667 20.8069 28.488 20.8698 28.4966 20.935C28.5052 21.0002 28.5008 21.0665 28.4837 21.13C28.4667 21.1935 28.4372 21.253 28.3971 21.3052C28.357 21.3573 28.307 21.401 28.25 21.4337Z" fill="black"/>
</svg>
