<svg width="32" height="32" viewBox="0 0 32 32" fill="none" xmlns="http://www.w3.org/2000/svg">
<path d="M29.3025 20.2501C29.4009 20.4211 29.4648 20.6099 29.4903 20.8056C29.5159 21.0013 29.5026 21.2001 29.4513 21.3907C29.4 21.5813 29.3116 21.7599 29.1913 21.9164C29.071 22.0728 28.921 22.2041 28.75 22.3026C28.5789 22.401 28.3901 22.4649 28.1944 22.4904C27.9987 22.516 27.7999 22.5027 27.6093 22.4514C27.4187 22.4001 27.2401 22.3117 27.0836 22.1914C26.9272 22.0711 26.7959 21.9211 26.6975 21.7501L24.59 18.0626C23.414 18.8024 22.1461 19.3848 20.8187 19.7951L21.4799 23.7501C21.545 24.1424 21.4516 24.5445 21.2202 24.868C20.9889 25.1915 20.6385 25.4098 20.2462 25.4751C20.1637 25.4896 20.08 25.4967 19.9962 25.4963C19.642 25.4959 19.2993 25.3702 19.0289 25.1415C18.7585 24.9127 18.5777 24.5956 18.5187 24.2463L17.875 20.3963C16.6263 20.5346 15.3661 20.5346 14.1175 20.3963L13.48 24.2501C13.4208 24.5997 13.2397 24.9172 12.9688 25.146C12.6979 25.3748 12.3546 25.5003 12 25.5001C11.9162 25.5005 11.8325 25.4933 11.75 25.4788C11.5557 25.4461 11.3697 25.3754 11.2028 25.2708C11.0358 25.1662 10.8911 25.0298 10.7768 24.8692C10.6626 24.7087 10.5811 24.5272 10.5371 24.3352C10.493 24.1432 10.4872 23.9443 10.52 23.7501L11.1812 19.7851C9.85382 19.3748 8.58594 18.7924 7.40995 18.0526L5.30245 21.7501C5.10354 22.0955 4.77555 22.3478 4.39063 22.4514C4.00571 22.555 3.5954 22.5015 3.24995 22.3026C2.90451 22.1036 2.65223 21.7756 2.54861 21.3907C2.445 21.0058 2.49854 20.5955 2.69745 20.2501L4.99995 16.2313C4.21956 15.5266 3.49606 14.7613 2.8362 13.9426C2.60325 13.6319 2.49987 13.2429 2.5478 12.8576C2.59573 12.4722 2.79124 12.1205 3.0932 11.8763C3.39516 11.6322 3.78004 11.5146 4.16689 11.5484C4.55374 11.5822 4.91241 11.7647 5.16745 12.0576C7.17245 14.5401 10.68 17.5001 16 17.5001C21.32 17.5001 24.8274 14.5401 26.8325 12.0576C27.0834 11.751 27.4453 11.5562 27.8394 11.5156C28.2334 11.475 28.6275 11.5919 28.9357 11.8408C29.2438 12.0897 29.441 12.4504 29.4842 12.8442C29.5274 13.2379 29.4131 13.6328 29.1662 13.9426C28.5055 14.7614 27.7812 15.5267 27 16.2313L29.3025 20.2501Z" fill="black"/>
</svg>
