<svg width="32" height="32" viewBox="0 0 32 32" fill="none" xmlns="http://www.w3.org/2000/svg">
<path d="M28.5 8.40501C28.4926 7.73615 28.3503 7.07565 28.0816 6.46308C27.8129 5.85051 27.4233 5.29847 26.9362 4.84001C24.9887 3.00001 21.8387 3.06251 19.9112 4.99126L17.81 7.10501C17.1362 6.64273 16.3219 6.43078 15.5082 6.50589C14.6945 6.581 13.9328 6.93845 13.355 7.51626L12.23 8.64126C11.7783 9.09373 11.517 9.70208 11.5001 10.3412C11.4831 10.9804 11.7117 11.6017 12.1387 12.0775L6.11248 18.105C5.45896 18.7542 4.97997 19.5579 4.71993 20.4416C4.45989 21.3253 4.42723 22.2603 4.62498 23.16L3.68748 25.3088C3.50746 25.7171 3.45541 26.1704 3.5382 26.6089C3.62099 27.0473 3.83473 27.4504 4.15123 27.765C4.50564 28.1221 4.95998 28.3632 5.45429 28.4567C5.9486 28.5503 6.45964 28.4917 6.91998 28.2888L8.95873 27.3975C9.84159 27.5692 10.7531 27.5212 11.6131 27.2577C12.473 26.9941 13.2549 26.5232 13.89 25.8863L19.92 19.8538C20.3956 20.2801 21.0165 20.5082 21.655 20.4912C22.2936 20.4743 22.9014 20.2135 23.3537 19.7625L24.4787 18.6375C25.0572 18.0579 25.4146 17.2941 25.489 16.4786C25.5635 15.6631 25.3502 14.8473 24.8862 14.1725L27.04 12.0063C27.5132 11.5351 27.8864 10.9733 28.1372 10.3545C28.3881 9.73572 28.5115 9.07264 28.5 8.40501ZM11.7687 23.7638C11.448 24.0851 11.0459 24.3131 10.6055 24.4232C10.165 24.5333 9.70292 24.5214 9.26873 24.3888C8.92627 24.2827 8.55706 24.3036 8.22873 24.4475L7.12498 24.9225L7.58623 23.875C7.73534 23.5333 7.75183 23.1483 7.63248 22.795C7.48205 22.3535 7.45865 21.8786 7.56495 21.4245C7.67125 20.9703 7.90298 20.5551 8.23373 20.2263L14.2587 14.1988L17.7937 17.7363L11.7687 23.7638ZM24.9112 9.88876L21.74 13.0788C21.4595 13.36 21.3019 13.7409 21.3019 14.1381C21.3019 14.5353 21.4595 14.9163 21.74 15.1975L22.35 15.8088C22.3965 15.8552 22.4333 15.9103 22.4585 15.971C22.4837 16.0317 22.4966 16.0968 22.4966 16.1625C22.4966 16.2282 22.4837 16.2933 22.4585 16.354C22.4333 16.4147 22.3965 16.4698 22.35 16.5163L21.5825 17.285L14.7075 10.4038L15.475 9.63626C15.5687 9.54276 15.6957 9.49024 15.8281 9.49024C15.9605 9.49024 16.0875 9.54276 16.1812 9.63626L16.7937 10.25C16.9331 10.3893 17.0986 10.4997 17.2807 10.575C17.4628 10.6503 17.6579 10.6889 17.855 10.6888C18.0522 10.6891 18.2476 10.6505 18.4299 10.5752C18.6122 10.4999 18.7779 10.3894 18.9175 10.25L22.035 7.11501C22.8225 6.32751 24.095 6.28626 24.8737 7.02251C25.069 7.20648 25.2252 7.42785 25.3332 7.67344C25.4411 7.91903 25.4985 8.18382 25.502 8.45206C25.5055 8.7203 25.455 8.98651 25.3535 9.23483C25.252 9.48315 25.1016 9.70852 24.9112 9.89751V9.88876Z" fill="black"/>
</svg>
