<svg width="32" height="32" viewBox="0 0 32 32" fill="none" xmlns="http://www.w3.org/2000/svg">
<path d="M28 8.41255C27.9932 7.81073 27.865 7.21646 27.6232 6.66533C27.3813 6.11419 27.0308 5.61752 26.5925 5.20505C24.8425 3.54505 22.0025 3.60755 20.265 5.3463L17.35 8.27505C16.7796 7.75523 16.0309 7.47518 15.2594 7.4931C14.488 7.51103 13.7531 7.82555 13.2075 8.3713L12.5825 8.9963C12.3965 9.18205 12.249 9.40262 12.1484 9.64542C12.0477 9.88822 11.9959 10.1485 11.9959 10.4113C11.9959 10.6741 12.0477 10.9344 12.1484 11.1772C12.249 11.42 12.3965 11.6406 12.5825 11.8263L12.8325 12.0838L6.45748 18.4588C5.84386 19.0676 5.39968 19.826 5.16885 20.6591C4.93801 21.4921 4.92849 22.371 5.14123 23.2088L4.14123 25.5101C4.00152 25.826 3.96101 26.177 4.02507 26.5164C4.08913 26.8559 4.25474 27.168 4.49998 27.4113C4.78311 27.6971 5.14632 27.8903 5.54159 27.9653C5.93686 28.0403 6.34559 27.9936 6.71373 27.8313L8.90498 26.8751C9.72758 27.0609 10.5839 27.0351 11.3938 26.8001C12.2037 26.5651 12.9408 26.1286 13.5362 25.5313L19.9112 19.1563L20.1687 19.4138C20.5438 19.7886 21.0523 19.9991 21.5825 19.9991C22.1127 19.9991 22.6212 19.7886 22.9962 19.4138L23.6212 18.7888C24.1679 18.2425 24.4827 17.5063 24.4999 16.7336C24.5172 15.9609 24.2355 15.2114 23.7137 14.6413L26.6825 11.6576C27.1093 11.2332 27.446 10.7271 27.6724 10.1695C27.8988 9.61188 28.0102 9.01429 28 8.41255ZM17.25 19.0001H8.75873L14.2587 13.5001L18.5012 17.7501L17.25 19.0001Z" fill="black"/>
</svg>
