<svg width="32" height="32" viewBox="0 0 32 32" fill="none" xmlns="http://www.w3.org/2000/svg">
<path opacity="0.08" d="M25.975 10.95L22.8037 14.1412L23.415 14.7512C23.6009 14.937 23.7485 15.1575 23.8491 15.4003C23.9498 15.6431 24.0016 15.9034 24.0016 16.1662C24.0016 16.4291 23.9498 16.6893 23.8491 16.9321C23.7485 17.1749 23.6009 17.3955 23.415 17.5812L22.29 18.7062C22.1971 18.7992 22.0868 18.873 21.9654 18.9233C21.844 18.9736 21.7139 18.9995 21.5825 18.9995C21.4511 18.9995 21.3209 18.9736 21.1996 18.9233C21.0782 18.873 20.9679 18.7992 20.875 18.7062L13.29 11.1187C13.197 11.0258 13.1233 10.9156 13.0729 10.7942C13.0226 10.6728 12.9967 10.5426 12.9967 10.4112C12.9967 10.2798 13.0226 10.1497 13.0729 10.0283C13.1233 9.90688 13.197 9.79659 13.29 9.70372L14.415 8.57872C14.6007 8.39296 14.8212 8.2456 15.0639 8.14506C15.3066 8.04452 15.5667 7.99277 15.8294 7.99277C16.092 7.99277 16.3522 8.04452 16.5948 8.14506C16.8375 8.2456 17.058 8.39296 17.2437 8.57872L17.8537 9.18997L20.9787 6.05122C22.3275 4.70247 24.525 4.61997 25.91 5.92622C26.2505 6.2481 26.5229 6.63507 26.711 7.06419C26.8992 7.49331 26.9992 7.95583 27.0053 8.42435C27.0114 8.89286 26.9233 9.35782 26.7463 9.79166C26.5693 10.2255 26.307 10.6194 25.975 10.95Z" fill="black"/>
<path d="M28 8.41255C27.9932 7.81073 27.8651 7.21646 27.6232 6.66533C27.3814 6.11419 27.0308 5.61752 26.5925 5.20505C24.8425 3.54505 22.0025 3.60755 20.265 5.3463L17.85 7.77505C17.2797 7.25523 16.531 6.97518 15.7595 6.9931C14.988 7.01103 14.2531 7.32555 13.7075 7.8713L12.5825 8.9963C12.3966 9.18205 12.249 9.40262 12.1484 9.64542C12.0477 9.88822 11.9959 10.1485 11.9959 10.4113C11.9959 10.6741 12.0477 10.9344 12.1484 11.1772C12.249 11.42 12.3966 11.6406 12.5825 11.8263L12.8325 12.0838L6.45751 18.4588C5.84388 19.0676 5.39971 19.826 5.16887 20.6591C4.93804 21.4921 4.92852 22.371 5.14126 23.2088L4.14126 25.5101C4.0018 25.8263 3.96142 26.1773 4.02547 26.517C4.08951 26.8566 4.25496 27.1688 4.50001 27.4126C4.78347 27.6979 5.14673 27.8906 5.54192 27.9654C5.93711 28.0401 6.34567 27.9934 6.71376 27.8313L8.90376 26.8751C9.72655 27.0612 10.5831 27.0356 11.3933 26.8006C12.2035 26.5656 12.9408 26.1289 13.5363 25.5313L19.9113 19.1563L20.1688 19.4138C20.5438 19.7886 21.0523 19.9991 21.5825 19.9991C22.1127 19.9991 22.6212 19.7886 22.9963 19.4138L24.1213 18.2888C24.668 17.7425 24.9827 17.0063 25 16.2336C25.0172 15.4609 24.7356 14.7114 24.2138 14.1413L26.6825 11.6576C27.1093 11.2332 27.446 10.7271 27.6724 10.1695C27.8988 9.61188 28.0102 9.01429 28 8.41255ZM12.125 24.1251C11.7402 24.5107 11.2576 24.7842 10.7291 24.9164C10.2006 25.0485 9.64603 25.0342 9.12501 24.8751C8.89656 24.8046 8.65044 24.8184 8.43126 24.9138L6.16876 25.9026L7.12501 23.6763C7.22423 23.4489 7.23537 23.1927 7.15626 22.9576C6.97504 22.428 6.94634 21.8582 7.07343 21.3132C7.20052 20.7681 7.47828 20.2698 7.87501 19.8751L14.25 13.5001L18.4925 17.7501L12.125 24.1251ZM25.2663 10.2501L22.095 13.4401C21.908 13.6275 21.803 13.8815 21.803 14.1463C21.803 14.4111 21.908 14.6651 22.095 14.8526L22.7063 15.4638C22.7992 15.5567 22.873 15.667 22.9233 15.7884C22.9736 15.9098 22.9995 16.0399 22.9995 16.1713C22.9995 16.3027 22.9736 16.4328 22.9233 16.5542C22.873 16.6756 22.7992 16.7859 22.7063 16.8788L21.5813 18.0038L14 10.4076L15.125 9.28255C15.3125 9.09516 15.5668 8.98989 15.8319 8.98989C16.097 8.98989 16.3512 9.09516 16.5388 9.28255L17.15 9.8938C17.3374 10.081 17.5914 10.1862 17.8563 10.1863C17.9878 10.1861 18.118 10.1599 18.2394 10.1093C18.3608 10.0587 18.471 9.98459 18.5638 9.8913L21.6813 6.75505C22.6575 5.77755 24.2438 5.73255 25.2175 6.6538C25.4607 6.88355 25.6554 7.15978 25.7899 7.46612C25.9244 7.77247 25.996 8.1027 26.0006 8.43724C26.0051 8.77179 25.9425 9.10384 25.8163 9.41373C25.6902 9.72362 25.5032 10.005 25.2663 10.2413V10.2501Z" fill="black"/>
</svg>
