<svg width="32" height="32" viewBox="0 0 32 32" fill="none" xmlns="http://www.w3.org/2000/svg">
<path d="M28 8.41255C27.9932 7.81073 27.865 7.21646 27.6232 6.66533C27.3813 6.11419 27.0308 5.61752 26.5925 5.20505C24.8425 3.54505 22.0025 3.60755 20.265 5.3463L17.85 7.77505C17.2796 7.25523 16.5309 6.97518 15.7594 6.9931C14.988 7.01103 14.2531 7.32555 13.7075 7.8713L12.5825 8.9963C12.3965 9.18205 12.249 9.40262 12.1484 9.64542C12.0477 9.88822 11.9959 10.1485 11.9959 10.4113C11.9959 10.6741 12.0477 10.9344 12.1484 11.1772C12.249 11.42 12.3965 11.6406 12.5825 11.8263L12.8325 12.0838L6.45748 18.4588C5.84386 19.0676 5.39968 19.826 5.16885 20.6591C4.93801 21.4921 4.92849 22.371 5.14123 23.2088L4.14123 25.5101C4.00152 25.826 3.96101 26.177 4.02507 26.5164C4.08913 26.8559 4.25474 27.168 4.49998 27.4113C4.78311 27.6971 5.14632 27.8903 5.54159 27.9653C5.93686 28.0403 6.34559 27.9936 6.71373 27.8313L8.90498 26.8751C9.72758 27.0609 10.5839 27.0351 11.3938 26.8001C12.2037 26.5651 12.9408 26.1286 13.5362 25.5313L19.9112 19.1563L20.1687 19.4138C20.5438 19.7886 21.0523 19.9991 21.5825 19.9991C22.1127 19.9991 22.6212 19.7886 22.9962 19.4138L24.1212 18.2888C24.6679 17.7425 24.9827 17.0063 24.9999 16.2336C25.0172 15.4609 24.7355 14.7114 24.2137 14.1413L26.6825 11.6576C27.1093 11.2332 27.446 10.7271 27.6724 10.1695C27.8988 9.61188 28.0102 9.01429 28 8.41255ZM12.125 24.1251C11.7402 24.5107 11.2576 24.7842 10.7291 24.9164C10.2005 25.0485 9.64601 25.0342 9.12498 24.8751C8.89653 24.8046 8.65042 24.8184 8.43123 24.9138L6.16873 25.9013L7.12498 23.6763C7.22421 23.4489 7.23534 23.1927 7.15623 22.9576C6.94055 22.3209 6.94495 21.6302 7.16873 20.9963H15.25L12.125 24.1251ZM17.25 19.0001H8.75873L14.2587 13.5001L18.5012 17.7501L17.25 19.0001ZM25.2725 10.2501L22.1012 13.4401C21.9138 13.6276 21.8086 13.8818 21.8086 14.1469C21.8086 14.412 21.9138 14.6663 22.1012 14.8538L22.7125 15.4638C22.8055 15.5567 22.8792 15.667 22.9295 15.7884C22.9799 15.9098 23.0058 16.0399 23.0058 16.1713C23.0058 16.3027 22.9799 16.4328 22.9295 16.5542C22.8792 16.6756 22.8055 16.7859 22.7125 16.8788L21.5875 18.0038L14 10.4076L15.125 9.28255C15.3125 9.09516 15.5668 8.98989 15.8319 8.98989C16.097 8.98989 16.3512 9.09516 16.5387 9.28255L17.15 9.8938C17.3374 10.081 17.5914 10.1862 17.8562 10.1863C17.9878 10.1861 18.118 10.1599 18.2394 10.1093C18.3608 10.0587 18.471 9.98459 18.5637 9.8913L21.6812 6.75505C22.6575 5.77755 24.2437 5.73255 25.2175 6.6538C25.4607 6.88355 25.6553 7.15978 25.7899 7.46612C25.9244 7.77247 25.996 8.1027 26.0006 8.43724C26.0051 8.77179 25.9425 9.10384 25.8163 9.41373C25.6902 9.72362 25.5031 10.005 25.2662 10.2413L25.2725 10.2501Z" fill="black"/>
</svg>
