<svg width="32" height="32" viewBox="0 0 32 32" fill="none" xmlns="http://www.w3.org/2000/svg">
<path d="M25 4.5C24.6022 4.5 24.2206 4.65804 23.9393 4.93934C23.658 5.22064 23.5 5.60218 23.5 6C23.5 6.39782 23.658 6.77936 23.9393 7.06066C24.2206 7.34196 24.6022 7.5 25 7.5C25.3978 7.5 25.7794 7.65804 26.0607 7.93934C26.342 8.22064 26.5 8.60218 26.5 9V15.3075C25.7378 14.8658 24.8875 14.5975 24.0097 14.5219C23.132 14.4463 22.2484 14.5651 21.4218 14.87C20.5952 15.1748 19.8461 15.6582 19.2276 16.2856C18.6092 16.913 18.1367 17.6691 17.8438 18.5H14.1562C13.8633 17.6691 13.3908 16.913 12.7724 16.2856C12.1539 15.6582 11.4048 15.1748 10.5782 14.87C9.75162 14.5651 8.868 14.4463 7.99026 14.5219C7.11252 14.5975 6.26225 14.8658 5.5 15.3075V9C5.5 8.60218 5.65804 8.22064 5.93934 7.93934C6.22064 7.65804 6.60218 7.5 7 7.5C7.39782 7.5 7.77936 7.34196 8.06066 7.06066C8.34196 6.77936 8.5 6.39782 8.5 6C8.5 5.60218 8.34196 5.22064 8.06066 4.93934C7.77936 4.65804 7.39782 4.5 7 4.5C5.80653 4.5 4.66193 4.97411 3.81802 5.81802C2.97411 6.66193 2.5 7.80653 2.5 9V20.5C2.50159 22.0033 3.06747 23.4513 4.08565 24.5573C5.10384 25.6634 6.50012 26.3469 7.99819 26.4726C9.49626 26.5984 10.9869 26.1571 12.1752 25.2363C13.3635 24.3154 14.1629 22.982 14.415 21.5H17.585C17.8371 22.982 18.6365 24.3154 19.8248 25.2363C21.0131 26.1571 22.5037 26.5984 24.0018 26.4726C25.4999 26.3469 26.8962 25.6634 27.9143 24.5573C28.9325 23.4513 29.4984 22.0033 29.5 20.5V9C29.5 7.80653 29.0259 6.66193 28.182 5.81802C27.3381 4.97411 26.1935 4.5 25 4.5ZM8.5 23.5C7.90666 23.5 7.32664 23.3241 6.83329 22.9944C6.33994 22.6648 5.95542 22.1962 5.72836 21.6481C5.5013 21.0999 5.44189 20.4967 5.55764 19.9147C5.6734 19.3328 5.95912 18.7982 6.37868 18.3787C6.79824 17.9591 7.33279 17.6734 7.91473 17.5576C8.49667 17.4419 9.09987 17.5013 9.64805 17.7284C10.1962 17.9554 10.6648 18.3399 10.9944 18.8333C11.3241 19.3266 11.5 19.9067 11.5 20.5C11.5 21.2956 11.1839 22.0587 10.6213 22.6213C10.0587 23.1839 9.29565 23.5 8.5 23.5ZM23.5 23.5C22.9067 23.5 22.3266 23.3241 21.8333 22.9944C21.3399 22.6648 20.9554 22.1962 20.7284 21.6481C20.5013 21.0999 20.4419 20.4967 20.5576 19.9147C20.6734 19.3328 20.9591 18.7982 21.3787 18.3787C21.7982 17.9591 22.3328 17.6734 22.9147 17.5576C23.4967 17.4419 24.0999 17.5013 24.6481 17.7284C25.1962 17.9554 25.6648 18.3399 25.9944 18.8333C26.3241 19.3266 26.5 19.9067 26.5 20.5C26.5 21.2956 26.1839 22.0587 25.6213 22.6213C25.0587 23.1839 24.2956 23.5 23.5 23.5Z" fill="black"/>
</svg>
