<svg width="32" height="32" viewBox="0 0 32 32" fill="none" xmlns="http://www.w3.org/2000/svg">
<path d="M6.55494 4.49998C6.41764 4.37254 6.23761 4.3011 6.05029 4.2997C5.86296 4.29831 5.68189 4.36707 5.54271 4.49246C5.40353 4.61785 5.31632 4.79078 5.29822 4.97724C5.28013 5.1637 5.33247 5.35017 5.44494 5.49998L8.05494 8.37498C3.39494 11.1125 1.40119 15.5 1.31494 15.6962C1.27221 15.7922 1.25012 15.8961 1.25012 16.0012C1.25012 16.1063 1.27221 16.2102 1.31494 16.3062C1.35744 16.4025 2.39744 18.7087 4.71994 21.0312C6.87494 23.1837 10.5774 25.75 15.9999 25.75C18.2665 25.7637 20.5088 25.2839 22.5712 24.3437L25.4462 27.505C25.5801 27.6522 25.767 27.7401 25.9658 27.7495C26.1646 27.7589 26.359 27.6889 26.5062 27.555C26.6534 27.421 26.7413 27.2341 26.7507 27.0353C26.7601 26.8365 26.6901 26.6422 26.5562 26.495L6.55494 4.49998ZM12.6324 13.415L18.2574 19.605C17.4129 20.1327 16.4099 20.3471 15.4234 20.2107C14.437 20.0744 13.5297 19.596 12.86 18.859C12.1903 18.122 11.8006 17.1732 11.759 16.1782C11.7174 15.1833 12.0266 14.2053 12.6324 13.415ZM15.9999 24.25C12.0774 24.25 8.65244 22.8225 5.81869 20.0087C4.6305 18.8284 3.62525 17.4773 2.83619 16C3.37244 14.975 5.34869 11.6025 9.08619 9.51123L11.6112 12.2875C10.7122 13.3528 10.2308 14.7083 10.2565 16.102C10.2822 17.4957 10.8133 18.8325 11.751 19.8639C12.6887 20.8953 13.9691 21.5509 15.354 21.7088C16.739 21.8668 18.1341 21.5163 19.2799 20.7225L21.5062 23.1725C19.7608 23.8947 17.8888 24.261 15.9999 24.25ZM16.7999 11.825C16.6045 11.7877 16.4319 11.6743 16.3201 11.5097C16.2083 11.3452 16.1664 11.1429 16.2037 10.9475C16.241 10.7521 16.3544 10.5794 16.519 10.4676C16.6835 10.3558 16.8858 10.3139 17.0812 10.3512C18.3025 10.5885 19.4144 11.214 20.2512 12.1347C21.088 13.0553 21.605 14.2217 21.7249 15.46C21.7341 15.5581 21.7238 15.657 21.6947 15.7511C21.6655 15.8452 21.6182 15.9326 21.5553 16.0084C21.4924 16.0842 21.4151 16.1469 21.328 16.1929C21.2409 16.2388 21.1455 16.2671 21.0474 16.2762H20.9774C20.7899 16.277 20.6088 16.2075 20.47 16.0814C20.3312 15.9553 20.2446 15.7817 20.2274 15.595C20.1383 14.6813 19.7565 13.8208 19.139 13.1415C18.5214 12.4622 17.701 12.0005 16.7999 11.825ZM30.6849 16.3062C30.6337 16.4212 29.3887 19.1812 26.5774 21.6962C26.5045 21.7646 26.4187 21.8177 26.3249 21.8524C26.2312 21.8871 26.1315 21.9027 26.0316 21.8983C25.9318 21.8939 25.8338 21.8696 25.7435 21.8268C25.6532 21.784 25.5723 21.7236 25.5057 21.6491C25.439 21.5747 25.3879 21.4876 25.3554 21.3931C25.3229 21.2986 25.3096 21.1985 25.3162 21.0988C25.3229 20.9991 25.3495 20.9017 25.3943 20.8124C25.4392 20.7231 25.5014 20.6436 25.5774 20.5787C27.0306 19.2732 28.2443 17.7236 29.1637 16C28.3745 14.5228 27.3692 13.1717 26.1812 11.9912C23.3474 9.17748 19.9224 7.74998 15.9999 7.74998C15.1754 7.749 14.3522 7.81589 13.5387 7.94998C13.4407 7.96845 13.3401 7.9672 13.2426 7.94631C13.1451 7.92543 13.0528 7.88532 12.971 7.82834C12.8892 7.77136 12.8196 7.69865 12.7663 7.61445C12.7129 7.53026 12.6769 7.43627 12.6603 7.33798C12.6436 7.2397 12.6468 7.13909 12.6695 7.04203C12.6922 6.94497 12.7341 6.85342 12.7926 6.77272C12.8511 6.69202 12.9251 6.62379 13.0103 6.57202C13.0955 6.52026 13.1901 6.48599 13.2887 6.47123C14.1847 6.32248 15.0916 6.24848 15.9999 6.24998C21.4224 6.24998 25.1249 8.81748 27.2799 10.97C29.6024 13.2925 30.6424 15.595 30.6849 15.6962C30.7277 15.7922 30.7498 15.8961 30.7498 16.0012C30.7498 16.1063 30.7277 16.2102 30.6849 16.3062Z" fill="black"/>
</svg>
