<svg width="32" height="32" viewBox="0 0 32 32" fill="none" xmlns="http://www.w3.org/2000/svg">
<path d="M6.73999 4.32746C6.65217 4.22847 6.54558 4.14789 6.42639 4.0904C6.3072 4.03291 6.17778 3.99964 6.04564 3.99253C5.91351 3.98542 5.78127 4.00461 5.6566 4.04899C5.53193 4.09336 5.41731 4.16204 5.31938 4.25104C5.22144 4.34003 5.14215 4.44759 5.08609 4.56746C5.03003 4.68732 4.99832 4.81713 4.9928 4.94934C4.98727 5.08156 5.00804 5.21356 5.05391 5.33769C5.09978 5.46181 5.16982 5.5756 5.25999 5.67246L7.66499 8.31871C3.12499 11.105 1.17249 15.4 1.08624 15.595C1.02938 15.7229 1 15.8613 1 16.0012C1 16.1412 1.02938 16.2796 1.08624 16.4075C1.12999 16.5062 2.18874 18.8537 4.54249 21.2075C7.67874 24.3425 11.64 26 16 26C18.2408 26.0127 20.4589 25.5514 22.5087 24.6462L25.2587 27.6725C25.3466 27.7715 25.4531 27.852 25.5723 27.9095C25.6915 27.967 25.8209 28.0003 25.9531 28.0074C26.0852 28.0145 26.2175 27.9953 26.3421 27.9509C26.4668 27.9066 26.5814 27.8379 26.6793 27.7489C26.7773 27.6599 26.8566 27.5523 26.9126 27.4325C26.9687 27.3126 27.0004 27.1828 27.0059 27.0506C27.0115 26.9184 26.9907 26.7864 26.9448 26.6622C26.899 26.5381 26.8289 26.4243 26.7387 26.3275L6.73999 4.32746ZM17.865 19.5387C17.0806 19.9514 16.1814 20.0918 15.3085 19.938C14.4357 19.7842 13.6386 19.3449 13.0425 18.689C12.4464 18.0331 12.085 17.1978 12.0151 16.3142C11.9452 15.4307 12.1707 14.5489 12.6562 13.8075L17.865 19.5387ZM30.9137 16.4075C30.8612 16.525 29.595 19.3287 26.7437 21.8825C26.5472 22.0588 26.289 22.1503 26.0253 22.1369C25.7616 22.1236 25.5139 22.0065 25.3362 21.8112L12.675 7.88371C12.5539 7.7508 12.4708 7.58768 12.4346 7.41155C12.3984 7.23541 12.4103 7.05276 12.4692 6.88284C12.5281 6.71293 12.6316 6.56202 12.7691 6.44602C12.9065 6.33003 13.0726 6.25323 13.25 6.22371C14.1589 6.07363 15.0787 5.99879 16 5.99996C20.36 5.99996 24.3212 7.65746 27.4575 10.7937C29.8112 13.1475 30.87 15.4962 30.9137 15.595C30.9706 15.7229 31 15.8613 31 16.0012C31 16.1412 30.9706 16.2796 30.9137 16.4075Z" fill="black"/>
</svg>
