<svg width="32" height="32" viewBox="0 0 32 32" fill="none" xmlns="http://www.w3.org/2000/svg">
<path d="M11 11H21C21.3978 11 21.7794 11.1581 22.0607 11.4394C22.342 11.7207 22.5 12.1022 22.5 12.5C22.5 12.8978 22.342 13.2794 22.0607 13.5607C21.7794 13.842 21.3978 14 21 14H11C10.6022 14 10.2206 13.842 9.93934 13.5607C9.65804 13.2794 9.5 12.8978 9.5 12.5C9.5 12.1022 9.65804 11.7207 9.93934 11.4394C10.2206 11.1581 10.6022 11 11 11ZM21 16H11C10.6022 16 10.2206 16.1581 9.93934 16.4394C9.65804 16.7207 9.5 17.1022 9.5 17.5C9.5 17.8978 9.65804 18.2794 9.93934 18.5607C10.2206 18.842 10.6022 19 11 19H21C21.3978 19 21.7794 18.842 22.0607 18.5607C22.342 18.2794 22.5 17.8978 22.5 17.5C22.5 17.1022 22.342 16.7207 22.0607 16.4394C21.7794 16.1581 21.3978 16 21 16ZM32 13V16C31.9983 17.193 31.5237 18.3366 30.6802 19.1802C29.8366 20.0237 28.693 20.4984 27.5 20.5H26.7375C25.93 22.24 24.4875 23.7725 22.4638 25.03C20.0713 26.5125 17.5462 27.205 16.5725 27.4338C16.1959 27.5221 15.8041 27.5221 15.4275 27.4338C13.9275 27.08 7.465 25.3088 5.25 20.5H4.5C3.30703 20.4984 2.1634 20.0237 1.31985 19.1802C0.47629 18.3366 0.00165346 17.193 0 16L0 13C0.00165346 11.8071 0.47629 10.6634 1.31985 9.81987C2.1634 8.97631 3.30703 8.50168 4.5 8.50002H4.76C5.03286 7.94903 5.49992 7.51848 6.07125 7.29127L15.0712 3.68877C15.6672 3.44879 16.3328 3.44879 16.9287 3.68877L25.9287 7.29127C26.5001 7.51848 26.9671 7.94903 27.24 8.50002H27.5C28.693 8.50168 29.8366 8.97631 30.6802 9.81987C31.5237 10.6634 31.9983 11.8071 32 13ZM4.51375 17.5C4.50625 17.3413 4.5 17.1813 4.5 17.0188V11.5C4.10218 11.5 3.72064 11.6581 3.43934 11.9394C3.15804 12.2207 3 12.6022 3 13V16C3 16.3978 3.15804 16.7794 3.43934 17.0607C3.72064 17.342 4.10218 17.5 4.5 17.5H4.51375ZM24.5 9.94377L16 6.54127L7.5 9.94377V17.0175C7.5 19.1538 8.71625 20.99 11.115 22.4775C13.0812 23.6963 15.23 24.295 16 24.4838C16.77 24.295 18.9188 23.6963 20.885 22.4775C23.2838 20.99 24.5 19.1538 24.5 17.0175V9.94377ZM29 13C29 12.6022 28.842 12.2207 28.5607 11.9394C28.2794 11.6581 27.8978 11.5 27.5 11.5V17.0238C27.5 17.185 27.5 17.345 27.485 17.505H27.5C27.8978 17.505 28.2794 17.347 28.5607 17.0657C28.842 16.7844 29 16.4028 29 16.005V13Z" fill="black"/>
</svg>
