<svg width="32" height="32" viewBox="0 0 32 32" fill="none" xmlns="http://www.w3.org/2000/svg">
<path d="M21.75 13C21.75 13.1989 21.671 13.3897 21.5303 13.5303C21.3897 13.671 21.1989 13.75 21 13.75H11C10.8011 13.75 10.6103 13.671 10.4697 13.5303C10.329 13.3897 10.25 13.1989 10.25 13C10.25 12.8011 10.329 12.6103 10.4697 12.4696C10.6103 12.329 10.8011 12.25 11 12.25H21C21.1989 12.25 21.3897 12.329 21.5303 12.4696C21.671 12.6103 21.75 12.8011 21.75 13ZM21 16.25H11C10.8011 16.25 10.6103 16.329 10.4697 16.4696C10.329 16.6103 10.25 16.8011 10.25 17C10.25 17.1989 10.329 17.3897 10.4697 17.5303C10.6103 17.671 10.8011 17.75 11 17.75H21C21.1989 17.75 21.3897 17.671 21.5303 17.5303C21.671 17.3897 21.75 17.1989 21.75 17C21.75 16.8011 21.671 16.6103 21.5303 16.4696C21.3897 16.329 21.1989 16.25 21 16.25ZM31.75 13V16C31.75 16.9945 31.3549 17.9484 30.6517 18.6516C29.9484 19.3549 28.9946 19.75 28 19.75H27.1938C26.4188 21.5675 24.8425 23.1637 22.525 24.4512C19.9275 25.8937 17.15 26.5475 16.355 26.7125C16.121 26.7625 15.879 26.7625 15.645 26.7125C14.8538 26.5475 12.0725 25.8937 9.475 24.4512C7.1575 23.1637 5.58125 21.5675 4.80625 19.75H4C3.00544 19.75 2.05161 19.3549 1.34835 18.6516C0.645088 17.9484 0.25 16.9945 0.25 16V13C0.25 12.0054 0.645088 11.0516 1.34835 10.3483C2.05161 9.64507 3.00544 9.24998 4 9.24998H4.29375C4.35837 8.9641 4.49375 8.69904 4.68748 8.4791C4.88121 8.25917 5.12707 8.09141 5.4025 7.99123L15.4025 4.35498C15.7885 4.21476 16.2115 4.21476 16.5975 4.35498L26.5975 7.99123C26.8729 8.09141 27.1188 8.25917 27.3125 8.4791C27.5062 8.69904 27.6416 8.9641 27.7062 9.24998H28C28.9946 9.24998 29.9484 9.64507 30.6517 10.3483C31.3549 11.0516 31.75 12.0054 31.75 13ZM4.35875 18.25C4.28651 17.8435 4.25012 17.4315 4.25 17.0187V10.75H4C3.40326 10.75 2.83097 10.987 2.40901 11.409C1.98705 11.8309 1.75 12.4032 1.75 13V16C1.75 16.5967 1.98705 17.169 2.40901 17.591C2.83097 18.0129 3.40326 18.25 4 18.25H4.35875ZM26.25 17.0187V9.63623C26.25 9.58485 26.2341 9.53473 26.2046 9.49268C26.1751 9.45063 26.1333 9.4187 26.085 9.40123L16.085 5.76498C16.0301 5.74512 15.9699 5.74512 15.915 5.76498L5.915 9.40123C5.86668 9.4187 5.82492 9.45063 5.7954 9.49268C5.76587 9.53473 5.75002 9.58485 5.75 9.63623V17.0187C5.74857 17.6166 5.84658 18.2105 6.04 18.7762C7.605 23.3575 15.0188 25.0475 15.9525 25.2437C15.9839 25.25 16.0161 25.25 16.0475 25.2437C17.0913 25.0262 26.25 22.9362 26.25 17.0187ZM30.25 13C30.25 12.4032 30.0129 11.8309 29.591 11.409C29.169 10.987 28.5967 10.75 28 10.75H27.75V17.0187C27.7499 17.4315 27.7135 17.8435 27.6413 18.25H28C28.5967 18.25 29.169 18.0129 29.591 17.591C30.0129 17.169 30.25 16.5967 30.25 16V13Z" fill="black"/>
</svg>
