<svg width="32" height="32" viewBox="0 0 32 32" fill="none" xmlns="http://www.w3.org/2000/svg">
<path d="M21.5 13C21.5 13.1326 21.4473 13.2598 21.3536 13.3536C21.2598 13.4473 21.1326 13.5 21 13.5H11C10.8674 13.5 10.7402 13.4473 10.6464 13.3536C10.5527 13.2598 10.5 13.1326 10.5 13C10.5 12.8674 10.5527 12.7402 10.6464 12.6465C10.7402 12.5527 10.8674 12.5 11 12.5H21C21.1326 12.5 21.2598 12.5527 21.3536 12.6465C21.4473 12.7402 21.5 12.8674 21.5 13ZM21 16.5H11C10.8674 16.5 10.7402 16.5527 10.6464 16.6465C10.5527 16.7402 10.5 16.8674 10.5 17C10.5 17.1326 10.5527 17.2598 10.6464 17.3536C10.7402 17.4473 10.8674 17.5 11 17.5H21C21.1326 17.5 21.2598 17.4473 21.3536 17.3536C21.4473 17.2598 21.5 17.1326 21.5 17C21.5 16.8674 21.4473 16.7402 21.3536 16.6465C21.2598 16.5527 21.1326 16.5 21 16.5ZM31.5 13V16C31.5 16.9283 31.1313 17.8185 30.4749 18.4749C29.8185 19.1313 28.9283 19.5 28 19.5H27.025C26.295 21.33 24.7337 22.9388 22.4 24.2325C19.8337 25.6588 17.0825 26.3038 16.3 26.4688C16.0996 26.5105 15.8929 26.5105 15.6925 26.4688C14.91 26.3038 12.1587 25.6588 9.5925 24.2325C7.2625 22.9388 5.70125 21.33 4.9675 19.5H4C3.07174 19.5 2.1815 19.1313 1.52513 18.4749C0.868749 17.8185 0.5 16.9283 0.5 16V13C0.5 12.0718 0.868749 11.1815 1.52513 10.5252C2.1815 9.86877 3.07174 9.50002 4 9.50002H4.5075C4.5332 9.21662 4.63899 8.94637 4.81252 8.72083C4.98605 8.49529 5.22015 8.32376 5.4875 8.22627L15.4875 4.59002C15.8186 4.46967 16.1814 4.46967 16.5125 4.59002L26.5125 8.22627C26.7799 8.32376 27.014 8.49529 27.1875 8.72083C27.361 8.94637 27.4668 9.21662 27.4925 9.50002H28C28.9283 9.50002 29.8185 9.86877 30.4749 10.5252C31.1313 11.1815 31.5 12.0718 31.5 13ZM4.665 18.5C4.55508 18.0139 4.49974 17.5171 4.5 17.0188V10.5H4C3.33696 10.5 2.70107 10.7634 2.23223 11.2323C1.76339 11.7011 1.5 12.337 1.5 13V16C1.5 16.6631 1.76339 17.299 2.23223 17.7678C2.70107 18.2366 3.33696 18.5 4 18.5H4.665ZM26.185 18.9088C26.1937 18.8654 26.208 18.8234 26.2275 18.7838C26.4097 18.2132 26.5016 17.6177 26.5 17.0188V9.63627C26.5 9.53367 26.4685 9.43353 26.4097 9.34945C26.3509 9.26537 26.2677 9.20142 26.1712 9.16627L16.1712 5.53002C16.0606 5.4897 15.9394 5.4897 15.8287 5.53002L5.82875 9.16627C5.73235 9.20142 5.64909 9.26537 5.59028 9.34945C5.53147 9.43353 5.49995 9.53367 5.5 9.63627V17.0188C5.49818 17.6173 5.59013 18.2124 5.7725 18.7825C5.79176 18.8223 5.80604 18.8643 5.815 18.9075C6.4075 20.6175 7.835 22.1088 10.0825 23.3575C12.5263 24.715 15.1537 25.3313 15.9012 25.4825C15.9664 25.4963 16.0336 25.4963 16.0987 25.4825C16.8487 25.325 19.4737 24.7088 21.9175 23.3575C24.1663 22.11 25.5938 20.625 26.185 18.9088ZM30.5 13C30.5 12.337 30.2366 11.7011 29.7678 11.2323C29.2989 10.7634 28.663 10.5 28 10.5H27.5V17.0188C27.5003 17.5171 27.4449 18.0139 27.335 18.5H28C28.663 18.5 29.2989 18.2366 29.7678 17.7678C30.2366 17.299 30.5 16.6631 30.5 16V13Z" fill="black"/>
</svg>
