<svg width="32" height="32" viewBox="0 0 32 32" fill="none" xmlns="http://www.w3.org/2000/svg">
<path d="M28 8.99997H27.8937C27.7992 8.71395 27.6413 8.45296 27.4318 8.23652C27.2223 8.02007 26.9666 7.85375 26.6838 7.74997L16.6838 4.12497C16.242 3.96493 15.758 3.96493 15.3162 4.12497L5.31625 7.76122C5.03345 7.865 4.77774 8.03132 4.56822 8.24777C4.3587 8.46421 4.20078 8.72519 4.10625 9.01122H4C2.94108 9.01122 1.92537 9.4311 1.17554 10.1788C0.42572 10.9265 0.00297821 11.9411 0 13L0 16C0 17.0608 0.421427 18.0783 1.17157 18.8284C1.92172 19.5785 2.93913 20 4 20H4.64125C5.45875 21.805 7.04875 23.39 9.35375 24.67C11.9788 26.13 14.7937 26.795 15.5938 26.9575C15.8616 27.0142 16.1384 27.0142 16.4062 26.9575C17.2062 26.79 20.0187 26.13 22.6462 24.67C24.9513 23.39 26.5413 21.805 27.3587 20H28C29.0609 20 30.0783 19.5785 30.8284 18.8284C31.5786 18.0783 32 17.0608 32 16V13C32 11.9391 31.5786 10.9217 30.8284 10.1715C30.0783 9.4214 29.0609 8.99997 28 8.99997ZM4 18C3.46957 18 2.96086 17.7893 2.58579 17.4142C2.21071 17.0391 2 16.5304 2 16V13C2 12.4695 2.21071 11.9608 2.58579 11.5858C2.96086 11.2107 3.46957 11 4 11V17.0187C4.00057 17.3469 4.0227 17.6747 4.06625 18H4ZM21 18H11C10.7348 18 10.4804 17.8946 10.2929 17.7071C10.1054 17.5195 10 17.2652 10 17C10 16.7348 10.1054 16.4804 10.2929 16.2929C10.4804 16.1053 10.7348 16 11 16H21C21.2652 16 21.5196 16.1053 21.7071 16.2929C21.8946 16.4804 22 16.7348 22 17C22 17.2652 21.8946 17.5195 21.7071 17.7071C21.5196 17.8946 21.2652 18 21 18ZM21 14H11C10.7348 14 10.4804 13.8946 10.2929 13.7071C10.1054 13.5195 10 13.2652 10 13C10 12.7348 10.1054 12.4804 10.2929 12.2929C10.4804 12.1053 10.7348 12 11 12H21C21.2652 12 21.5196 12.1053 21.7071 12.2929C21.8946 12.4804 22 12.7348 22 13C22 13.2652 21.8946 13.5195 21.7071 13.7071C21.5196 13.8946 21.2652 14 21 14ZM30 16C30 16.5304 29.7893 17.0391 29.4142 17.4142C29.0391 17.7893 28.5304 18 28 18H27.9338C27.9773 17.6747 27.9994 17.3469 28 17.0187V11C28.5304 11 29.0391 11.2107 29.4142 11.5858C29.7893 11.9608 30 12.4695 30 13V16Z" fill="black"/>
</svg>
