<svg width="32" height="32" viewBox="0 0 32 32" fill="none" xmlns="http://www.w3.org/2000/svg">
<path d="M17.5 15.5V27C17.5 27.3978 17.342 27.7794 17.0607 28.0607C16.7794 28.342 16.3978 28.5 16 28.5C15.6022 28.5 15.2206 28.342 14.9393 28.0607C14.658 27.7794 14.5 27.3978 14.5 27V15.5C14.5 15.1022 14.658 14.7206 14.9393 14.4393C15.2206 14.158 15.6022 14 16 14C16.3978 14 16.7794 14.158 17.0607 14.4393C17.342 14.7206 17.5 15.1022 17.5 15.5ZM25 24C24.6022 24 24.2206 24.158 23.9393 24.4393C23.658 24.7206 23.5 25.1022 23.5 25.5V27C23.5 27.3978 23.658 27.7794 23.9393 28.0607C24.2206 28.342 24.6022 28.5 25 28.5C25.3978 28.5 25.7794 28.342 26.0607 28.0607C26.342 27.7794 26.5 27.3978 26.5 27V25.5C26.5 25.1022 26.342 24.7206 26.0607 24.4393C25.7794 24.158 25.3978 24 25 24ZM28 19H26.5V5C26.5 4.60218 26.342 4.22064 26.0607 3.93934C25.7794 3.65804 25.3978 3.5 25 3.5C24.6022 3.5 24.2206 3.65804 23.9393 3.93934C23.658 4.22064 23.5 4.60218 23.5 5V19H22C21.6022 19 21.2206 19.158 20.9393 19.4393C20.658 19.7206 20.5 20.1022 20.5 20.5C20.5 20.8978 20.658 21.2794 20.9393 21.5607C21.2206 21.842 21.6022 22 22 22H28C28.3978 22 28.7794 21.842 29.0607 21.5607C29.342 21.2794 29.5 20.8978 29.5 20.5C29.5 20.1022 29.342 19.7206 29.0607 19.4393C28.7794 19.158 28.3978 19 28 19ZM7 20C6.60218 20 6.22064 20.158 5.93934 20.4393C5.65804 20.7206 5.5 21.1022 5.5 21.5V27C5.5 27.3978 5.65804 27.7794 5.93934 28.0607C6.22064 28.342 6.60218 28.5 7 28.5C7.39782 28.5 7.77936 28.342 8.06066 28.0607C8.34196 27.7794 8.5 27.3978 8.5 27V21.5C8.5 21.1022 8.34196 20.7206 8.06066 20.4393C7.77936 20.158 7.39782 20 7 20ZM10 15H8.5V5C8.5 4.60218 8.34196 4.22064 8.06066 3.93934C7.77936 3.65804 7.39782 3.5 7 3.5C6.60218 3.5 6.22064 3.65804 5.93934 3.93934C5.65804 4.22064 5.5 4.60218 5.5 5V15H4C3.60218 15 3.22064 15.158 2.93934 15.4393C2.65804 15.7206 2.5 16.1022 2.5 16.5C2.5 16.8978 2.65804 17.2794 2.93934 17.5607C3.22064 17.842 3.60218 18 4 18H10C10.3978 18 10.7794 17.842 11.0607 17.5607C11.342 17.2794 11.5 16.8978 11.5 16.5C11.5 16.1022 11.342 15.7206 11.0607 15.4393C10.7794 15.158 10.3978 15 10 15ZM19 9H17.5V5C17.5 4.60218 17.342 4.22064 17.0607 3.93934C16.7794 3.65804 16.3978 3.5 16 3.5C15.6022 3.5 15.2206 3.65804 14.9393 3.93934C14.658 4.22064 14.5 4.60218 14.5 5V9H13C12.6022 9 12.2206 9.15804 11.9393 9.43934C11.658 9.72064 11.5 10.1022 11.5 10.5C11.5 10.8978 11.658 11.2794 11.9393 11.5607C12.2206 11.842 12.6022 12 13 12H19C19.3978 12 19.7794 11.842 20.0607 11.5607C20.342 11.2794 20.5 10.8978 20.5 10.5C20.5 10.1022 20.342 9.72064 20.0607 9.43934C19.7794 9.15804 19.3978 9 19 9Z" fill="black"/>
</svg>
