<svg width="32" height="32" viewBox="0 0 32 32" fill="none" xmlns="http://www.w3.org/2000/svg">
<path d="M3.5 10C3.5 9.60218 3.65804 9.22064 3.93934 8.93934C4.22064 8.65804 4.60218 8.5 5 8.5H8.5C8.89782 8.5 9.27936 8.65804 9.56066 8.93934C9.84196 9.22064 10 9.60218 10 10C10 10.3978 9.84196 10.7794 9.56066 11.0607C9.27936 11.342 8.89782 11.5 8.5 11.5H5C4.60218 11.5 4.22064 11.342 3.93934 11.0607C3.65804 10.7794 3.5 10.3978 3.5 10ZM27 20.5H23V19C23 18.6022 22.842 18.2206 22.5607 17.9393C22.2794 17.658 21.8978 17.5 21.5 17.5C21.1022 17.5 20.7206 17.658 20.4393 17.9393C20.158 18.2206 20 18.6022 20 19V25C20 25.3978 20.158 25.7794 20.4393 26.0607C20.7206 26.342 21.1022 26.5 21.5 26.5C21.8978 26.5 22.2794 26.342 22.5607 26.0607C22.842 25.7794 23 25.3978 23 25V23.5H27C27.3978 23.5 27.7794 23.342 28.0607 23.0607C28.342 22.7794 28.5 22.3978 28.5 22C28.5 21.6022 28.342 21.2206 28.0607 20.9393C27.7794 20.658 27.3978 20.5 27 20.5ZM16.5 20.5H5C4.60218 20.5 4.22064 20.658 3.93934 20.9393C3.65804 21.2206 3.5 21.6022 3.5 22C3.5 22.3978 3.65804 22.7794 3.93934 23.0607C4.22064 23.342 4.60218 23.5 5 23.5H16.5C16.8978 23.5 17.2794 23.342 17.5607 23.0607C17.842 22.7794 18 22.3978 18 22C18 21.6022 17.842 21.2206 17.5607 20.9393C17.2794 20.658 16.8978 20.5 16.5 20.5ZM13.5 14.5C13.8978 14.5 14.2794 14.342 14.5607 14.0607C14.842 13.7794 15 13.3978 15 13V11.5H27C27.3978 11.5 27.7794 11.342 28.0607 11.0607C28.342 10.7794 28.5 10.3978 28.5 10C28.5 9.60218 28.342 9.22064 28.0607 8.93934C27.7794 8.65804 27.3978 8.5 27 8.5H15V7C15 6.60218 14.842 6.22064 14.5607 5.93934C14.2794 5.65804 13.8978 5.5 13.5 5.5C13.1022 5.5 12.7206 5.65804 12.4393 5.93934C12.158 6.22064 12 6.60218 12 7V13C12 13.3978 12.158 13.7794 12.4393 14.0607C12.7206 14.342 13.1022 14.5 13.5 14.5Z" fill="black"/>
</svg>
