<svg width="32" height="32" viewBox="0 0 32 32" fill="none" xmlns="http://www.w3.org/2000/svg">
<path d="M30.3512 13.9112L19.3288 6.88996C18.9531 6.64996 18.5199 6.51524 18.0745 6.49989C17.629 6.48454 17.1875 6.58911 16.7963 6.80268C16.405 7.01625 16.0783 7.33099 15.8503 7.71399C15.6223 8.097 15.5013 8.53422 15.5 8.97996V12.73L6.32875 6.88996C5.95313 6.64996 5.51995 6.51524 5.07446 6.49989C4.62898 6.48454 4.18755 6.58911 3.7963 6.80268C3.40505 7.01625 3.07833 7.33099 2.8503 7.71399C2.62227 8.097 2.50129 8.53422 2.5 8.97996V23.02C2.5021 23.4654 2.62358 23.9021 2.8518 24.2846C3.08001 24.6671 3.40661 24.9815 3.79758 25.1949C4.18855 25.4083 4.62959 25.513 5.07476 25.4981C5.51994 25.4831 5.95297 25.3491 6.32875 25.11L15.5 19.2687V23.0187C15.5021 23.4641 15.6236 23.9008 15.8518 24.2834C16.08 24.6659 16.4066 24.9802 16.7976 25.1936C17.1886 25.4071 17.6296 25.5118 18.0748 25.4968C18.5199 25.4819 18.953 25.3479 19.3288 25.1087L30.3512 18.0875C30.7031 17.8642 30.9929 17.5557 31.1936 17.1905C31.3944 16.8254 31.4996 16.4154 31.4996 15.9987C31.4996 15.582 31.3944 15.1721 31.1936 14.8069C30.9929 14.4417 30.7031 14.1332 30.3512 13.91V13.9112ZM5.5 22.08V9.91996L15.0475 16L5.5 22.08ZM18.5 22.08V9.91996L28.0475 16L18.5 22.08Z" fill="black"/>
</svg>
