<svg width="32" height="32" viewBox="0 0 32 32" fill="none" xmlns="http://www.w3.org/2000/svg">
<path d="M29.815 14.75L18.7912 7.73377C18.5649 7.59043 18.3044 7.51032 18.0366 7.50175C17.7689 7.49317 17.5037 7.55645 17.2687 7.68502C17.0348 7.81042 16.8396 7.99732 16.7041 8.22553C16.5687 8.45375 16.4981 8.71462 16.5 8.98002V14.5538L5.79123 7.73377C5.56492 7.59043 5.30436 7.51032 5.03663 7.50175C4.76889 7.49317 4.50374 7.55645 4.26873 7.68502C4.03483 7.81042 3.83961 7.99732 3.70413 8.22553C3.56866 8.45375 3.49807 8.71462 3.49998 8.98002V23.02C3.49807 23.2854 3.56866 23.5463 3.70413 23.7745C3.83961 24.0027 4.03483 24.1896 4.26873 24.315C4.50374 24.4436 4.76889 24.5069 5.03663 24.4983C5.30436 24.4897 5.56492 24.4096 5.79123 24.2663L16.5 17.4463V23.02C16.4981 23.2854 16.5687 23.5463 16.7041 23.7745C16.8396 24.0027 17.0348 24.1896 17.2687 24.315C17.5037 24.4436 17.7689 24.5069 18.0366 24.4983C18.3044 24.4897 18.5649 24.4096 18.7912 24.2663L29.815 17.25C30.0248 17.1168 30.1977 16.9327 30.3174 16.7148C30.4371 16.4969 30.4999 16.2524 30.4999 16.0038C30.4999 15.7552 30.4371 15.5106 30.3174 15.2927C30.1977 15.0749 30.0248 14.8908 29.815 14.7575V14.75ZM16.2775 16.3988L5.24998 23.4225C5.17583 23.47 5.09022 23.4966 5.00221 23.4995C4.9142 23.5023 4.82705 23.4814 4.74998 23.4388C4.67399 23.3985 4.61049 23.3382 4.56641 23.2644C4.52233 23.1905 4.49935 23.106 4.49998 23.02V8.98002C4.49935 8.89403 4.52233 8.80951 4.56641 8.73568C4.61049 8.66184 4.67399 8.60152 4.74998 8.56127C4.82309 8.52081 4.90517 8.49932 4.98873 8.49877C5.08319 8.49894 5.17562 8.52628 5.25498 8.57752L16.2775 15.5975C16.3457 15.6402 16.4019 15.6996 16.4408 15.77C16.4798 15.8404 16.5002 15.9195 16.5002 16C16.5002 16.0805 16.4798 16.1596 16.4408 16.23C16.4019 16.3004 16.3457 16.3598 16.2775 16.4025V16.3988ZM29.2775 16.3988L18.25 23.4225C18.1758 23.47 18.0902 23.4966 18.0022 23.4995C17.9142 23.5023 17.8271 23.4814 17.75 23.4388C17.674 23.3985 17.6105 23.3382 17.5664 23.2644C17.5223 23.1905 17.4994 23.106 17.5 23.02V8.98002C17.4994 8.89403 17.5223 8.80951 17.5664 8.73568C17.6105 8.66184 17.674 8.60152 17.75 8.56127C17.8231 8.52081 17.9052 8.49932 17.9887 8.49877C18.0832 8.49894 18.1756 8.52628 18.255 8.57752L29.2775 15.5975C29.3457 15.6402 29.4019 15.6996 29.4408 15.77C29.4798 15.8404 29.5002 15.9195 29.5002 16C29.5002 16.0805 29.4798 16.1596 29.4408 16.23C29.4019 16.3004 29.3457 16.3598 29.2775 16.4025V16.3988Z" fill="black"/>
</svg>
