<svg width="32" height="32" viewBox="0 0 32 32" fill="none" xmlns="http://www.w3.org/2000/svg">
<path d="M29.5 10C29.5 8.51694 29.0602 7.06717 28.2363 5.83398C27.4124 4.60079 26.2414 3.63955 24.8713 3.07176C23.5012 2.50398 21.9936 2.35514 20.5389 2.64407C19.0842 2.933 17.7479 3.64673 16.6988 4.69502L7.94003 13.3538C7.80015 13.4925 7.68922 13.6577 7.61369 13.8396C7.53815 14.0216 7.49952 14.2167 7.50003 14.4138V23.7888L3.64628 27.6463C3.55246 27.7401 3.49976 27.8673 3.49976 28C3.49976 28.1327 3.55246 28.2599 3.64628 28.3538C3.7401 28.4476 3.86735 28.5003 4.00003 28.5003C4.13272 28.5003 4.25996 28.4476 4.35378 28.3538L8.20753 24.5H17.5825C17.98 24.5 18.3613 24.3422 18.6425 24.0613L27.25 15.3538L27.3 15.3038C27.9992 14.6091 28.5536 13.7826 28.9312 12.8722C29.3089 11.9619 29.5022 10.9856 29.5 10ZM17.4038 5.40377C18.6187 4.21332 20.2519 3.54655 21.9529 3.54653C23.6538 3.54652 25.287 4.21327 26.502 5.40369C27.717 6.59412 28.4169 8.21338 28.4516 9.91398C28.4863 11.6146 27.8529 13.261 26.6875 14.5H18.2075L23.3538 9.35377C23.4002 9.30731 23.4371 9.25216 23.4622 9.19147C23.4874 9.13077 23.5003 9.06572 23.5003 9.00002C23.5003 8.93432 23.4874 8.86927 23.4622 8.80857C23.4371 8.74787 23.4002 8.69272 23.3538 8.64627C23.3073 8.59981 23.2522 8.56296 23.1915 8.53782C23.1308 8.51268 23.0657 8.49974 23 8.49974C22.9343 8.49974 22.8693 8.51268 22.8086 8.53782C22.7479 8.56296 22.6927 8.59981 22.6463 8.64627L14.5 16.7925V8.27377L17.4038 5.40377ZM8.50003 14.4138C8.50026 14.2822 8.55236 14.156 8.64503 14.0625L13.5 9.26252V17.7925L8.50003 22.7925V14.4138ZM17.9388 23.3538C17.8452 23.4472 17.7185 23.4998 17.5863 23.5H9.21128L17.2113 15.5H25.7113L17.9388 23.3538Z" fill="black"/>
</svg>
