<svg width="32" height="32" viewBox="0 0 32 32" fill="none" xmlns="http://www.w3.org/2000/svg">
<path d="M29.7499 9.99997C29.7499 8.46749 29.2955 6.96942 28.4442 5.69512C27.593 4.42082 26.383 3.4275 24.9673 2.84073C23.5516 2.25395 21.9937 2.10006 20.4906 2.39851C18.9875 2.69696 17.6065 3.43435 16.5224 4.51747L7.76241 13.1762C7.59958 13.3385 7.47046 13.5314 7.38251 13.7438C7.29455 13.9561 7.24948 14.1838 7.24991 14.4137V23.69L3.46991 27.47C3.39622 27.5386 3.33712 27.6214 3.29613 27.7134C3.25514 27.8054 3.23309 27.9047 3.23132 28.0054C3.22954 28.1062 3.24807 28.2062 3.28579 28.2996C3.32351 28.393 3.37965 28.4778 3.45087 28.549C3.52209 28.6202 3.60692 28.6764 3.70031 28.7141C3.7937 28.7518 3.89373 28.7703 3.99443 28.7686C4.09513 28.7668 4.19445 28.7447 4.28645 28.7038C4.37845 28.6628 4.46125 28.6037 4.52991 28.53L8.30991 24.75H17.5862C17.816 24.7504 18.0437 24.7053 18.2561 24.6174C18.4685 24.5294 18.6614 24.4003 18.8237 24.2375L27.4274 15.5337L27.4762 15.4837C28.1992 14.7656 28.7724 13.9111 29.1628 12.9698C29.5531 12.0284 29.7526 11.019 29.7499 9.99997ZM17.5799 5.57997C18.7393 4.43006 20.3027 3.77957 21.9356 3.76769C23.5685 3.7558 25.1412 4.38345 26.3172 5.51635C27.4933 6.64925 28.1792 8.19743 28.2283 9.82964C28.2774 11.4618 27.6857 13.0484 26.5799 14.25H18.8099L23.5299 9.52997C23.6624 9.3878 23.7345 9.19975 23.7311 9.00545C23.7277 8.81115 23.6489 8.62576 23.5115 8.48835C23.3741 8.35094 23.1887 8.27222 22.9944 8.2688C22.8001 8.26537 22.6121 8.33749 22.4699 8.46997L16.4699 14.47L14.7499 16.19V8.37497L17.5799 5.57997ZM8.74991 14.4137C8.74984 14.3489 8.77494 14.2866 8.81991 14.24L13.2499 9.86497V17.6937L8.74991 22.1937V14.4137ZM17.7612 23.1775C17.7146 23.2237 17.6517 23.2497 17.5862 23.25H9.80991L14.5299 18.5312L17.3099 15.75H25.1037L17.7612 23.1775Z" fill="black"/>
</svg>
