<svg width="32" height="32" viewBox="0 0 32 32" fill="none" xmlns="http://www.w3.org/2000/svg">
<path d="M23.7689 12C24.5695 11.2444 25.1249 10.266 25.3634 9.19133C25.6018 8.11663 25.5123 6.99511 25.1063 5.97185C24.7004 4.9486 23.9968 4.0707 23.0864 3.45174C22.1761 2.83278 21.1009 2.50123 20.0001 2.5H11.0001C9.89927 2.50123 8.82414 2.83278 7.9138 3.45174C7.00346 4.0707 6.29981 4.9486 5.89387 5.97185C5.48793 6.99511 5.3984 8.11663 5.63685 9.19133C5.87529 10.266 6.43075 11.2444 7.23136 12C6.67206 12.5251 6.2291 13.1617 5.93105 13.8686C5.633 14.5755 5.48649 15.3371 5.50098 16.1041C5.51547 16.8712 5.69063 17.6267 6.01516 18.3218C6.33969 19.017 6.80638 19.6364 7.38511 20.14C6.66135 20.8221 6.11847 21.6733 5.80532 22.6173C5.49217 23.5612 5.41856 24.5681 5.59111 25.5476C5.76366 26.527 6.17696 27.4482 6.79384 28.2282C7.41071 29.0083 8.21182 29.6228 9.12509 30.0165C10.0384 30.4101 11.0352 30.5706 12.0259 30.4835C13.0165 30.3963 13.97 30.0643 14.8006 29.5172C15.6311 28.9702 16.3126 28.2253 16.7838 27.3495C17.2551 26.4737 17.5012 25.4945 17.5001 24.5V20.8962C18.6783 21.4916 20.0314 21.6433 21.3122 21.3237C22.593 21.0041 23.7161 20.2345 24.4765 19.1554C25.2369 18.0763 25.5838 16.7597 25.4539 15.4461C25.324 14.1324 24.7259 12.9092 23.7689 12ZM22.5001 8C22.5001 8.66304 22.2367 9.29893 21.7679 9.76777C21.299 10.2366 20.6631 10.5 20.0001 10.5H17.5001V5.5H20.0001C20.6631 5.5 21.299 5.76339 21.7679 6.23223C22.2367 6.70107 22.5001 7.33696 22.5001 8ZM8.50011 8C8.50011 7.33696 8.7635 6.70107 9.23234 6.23223C9.70118 5.76339 10.3371 5.5 11.0001 5.5H14.5001V10.5H11.0001C10.3371 10.5 9.70118 10.2366 9.23234 9.76777C8.7635 9.29893 8.50011 8.66304 8.50011 8ZM11.0001 18.5C10.3371 18.5 9.70118 18.2366 9.23234 17.7678C8.7635 17.2989 8.50011 16.663 8.50011 16C8.50011 15.337 8.7635 14.7011 9.23234 14.2322C9.70118 13.7634 10.3371 13.5 11.0001 13.5H14.5001V18.5H11.0001ZM14.5001 24.5C14.5001 25.0933 14.3242 25.6734 13.9945 26.1667C13.6649 26.6601 13.1963 27.0446 12.6482 27.2716C12.1 27.4987 11.4968 27.5581 10.9148 27.4424C10.3329 27.3266 9.79834 27.0409 9.37879 26.6213C8.95923 26.2018 8.67351 25.6672 8.55775 25.0853C8.44199 24.5033 8.5014 23.9001 8.72847 23.3519C8.95553 22.8038 9.34005 22.3352 9.8334 22.0056C10.3267 21.6759 10.9068 21.5 11.5001 21.5H14.5001V24.5ZM20.0001 18.5C19.5057 18.5 19.0223 18.3534 18.6112 18.0787C18.2001 17.804 17.8796 17.4135 17.6904 16.9567C17.5012 16.4999 17.4517 15.9972 17.5481 15.5123C17.6446 15.0273 17.8827 14.5819 18.2323 14.2322C18.582 13.8826 19.0274 13.6445 19.5124 13.548C19.9973 13.4516 20.5 13.5011 20.9568 13.6903C21.4136 13.8795 21.8041 14.2 22.0788 14.6111C22.3535 15.0222 22.5001 15.5055 22.5001 16C22.5001 16.663 22.2367 17.2989 21.7679 17.7678C21.299 18.2366 20.6631 18.5 20.0001 18.5Z" fill="black"/>
</svg>
