<svg width="32" height="32" viewBox="0 0 32 32" fill="none" xmlns="http://www.w3.org/2000/svg">
<path d="M22.5613 17.9387C22.7011 18.0781 22.812 18.2437 22.8878 18.426C22.9635 18.6083 23.0024 18.8038 23.0024 19.0012C23.0024 19.1987 22.9635 19.3941 22.8878 19.5765C22.812 19.7588 22.7011 19.9244 22.5613 20.0637L19.5613 23.0637C19.2795 23.3455 18.8973 23.5039 18.4988 23.5039C18.1002 23.5039 17.718 23.3455 17.4363 23.0637C17.1545 22.782 16.9961 22.3998 16.9961 22.0012C16.9961 21.6027 17.1545 21.2205 17.4363 20.9387L19.375 19L17.435 17.0613C17.2955 16.9217 17.1848 16.7561 17.1093 16.5738C17.0338 16.3915 16.9949 16.1961 16.9949 15.9987C16.9949 15.8014 17.0338 15.606 17.1093 15.4237C17.1848 15.2414 17.2955 15.0758 17.435 14.9362C17.5745 14.7967 17.7402 14.686 17.9225 14.6105C18.1048 14.535 18.3002 14.4961 18.4975 14.4961C18.6948 14.4961 18.8902 14.535 19.0725 14.6105C19.2548 14.686 19.4205 14.7967 19.56 14.9362L22.5613 17.9387ZM14.5612 14.9388C14.4219 14.7989 14.2563 14.688 14.074 14.6122C13.8917 14.5365 13.6962 14.4976 13.4987 14.4976C13.3013 14.4976 13.1058 14.5365 12.9235 14.6122C12.7412 14.688 12.5756 14.7989 12.4362 14.9388L9.43625 17.9387C9.29641 18.0781 9.18545 18.2437 9.10975 18.426C9.03404 18.6083 8.99507 18.8038 8.99507 19.0012C8.99507 19.1987 9.03404 19.3941 9.10975 19.5765C9.18545 19.7588 9.29641 19.9244 9.43625 20.0637L12.4362 23.0637C12.718 23.3455 13.1002 23.5039 13.4987 23.5039C13.8973 23.5039 14.2795 23.3455 14.5612 23.0637C14.843 22.782 15.0014 22.3998 15.0014 22.0012C15.0014 21.6027 14.843 21.2205 14.5612 20.9387L12.625 19L14.565 17.0613C14.7042 16.9217 14.8146 16.7561 14.8897 16.5738C14.9649 16.3916 15.0034 16.1963 15.0031 15.9992C15.0027 15.8021 14.9635 15.607 14.8877 15.425C14.8119 15.243 14.701 15.0778 14.5612 14.9388ZM27.5 11V27C27.5 27.663 27.2366 28.2989 26.7678 28.7678C26.2989 29.2366 25.663 29.5 25 29.5H7C6.33696 29.5 5.70107 29.2366 5.23223 28.7678C4.76339 28.2989 4.5 27.663 4.5 27V5C4.5 4.33696 4.76339 3.70107 5.23223 3.23223C5.70107 2.76339 6.33696 2.5 7 2.5H19C19.1971 2.50001 19.3923 2.53887 19.5744 2.61437C19.7565 2.68987 19.9219 2.80052 20.0613 2.94L27.0613 9.94C27.3422 10.2212 27.5 10.6025 27.5 11ZM20 7.125V10H22.875L20 7.125ZM24.5 26.5V13H18.5C18.1022 13 17.7206 12.842 17.4393 12.5607C17.158 12.2794 17 11.8978 17 11.5V5.5H7.5V26.5H24.5Z" fill="black"/>
</svg>
