<svg width="32" height="32" viewBox="0 0 32 32" fill="none" xmlns="http://www.w3.org/2000/svg">
<path d="M27.0613 9.94L20.0613 2.94C19.9219 2.80052 19.7565 2.68987 19.5744 2.61437C19.3923 2.53887 19.1971 2.50001 19 2.5H7C6.33696 2.5 5.70107 2.76339 5.23223 3.23223C4.76339 3.70107 4.5 4.33696 4.5 5V27C4.5 27.663 4.76339 28.2989 5.23223 28.7678C5.70107 29.2366 6.33696 29.5 7 29.5H25C25.663 29.5 26.2989 29.2366 26.7678 28.7678C27.2366 28.2989 27.5 27.663 27.5 27V11C27.5 10.6025 27.3422 10.2212 27.0613 9.94ZM22.875 10H20V7.125L22.875 10ZM7.5 26.5V5.5H17V11.5C17 11.8978 17.158 12.2794 17.4393 12.5607C17.7206 12.842 18.1022 13 18.5 13H24.5V26.5H7.5ZM20.0613 17.4387C20.343 17.7205 20.5014 18.1027 20.5014 18.5012C20.5014 18.8998 20.343 19.282 20.0613 19.5637C19.7795 19.8455 19.3973 20.0039 18.9988 20.0039C18.6002 20.0039 18.218 19.8455 17.9363 19.5637L17.5 19.125V23C17.5 23.3978 17.342 23.7794 17.0607 24.0607C16.7794 24.342 16.3978 24.5 16 24.5C15.6022 24.5 15.2206 24.342 14.9393 24.0607C14.658 23.7794 14.5 23.3978 14.5 23V19.125L14.0612 19.565C13.7795 19.8468 13.3973 20.0051 12.9987 20.0051C12.6002 20.0051 12.218 19.8468 11.9362 19.565C11.6545 19.2832 11.4961 18.901 11.4961 18.5025C11.4961 18.104 11.6545 17.7218 11.9362 17.44L14.9362 14.44C15.0756 14.3002 15.2412 14.1892 15.4235 14.1135C15.6058 14.0378 15.8013 13.9988 15.9987 13.9988C16.1962 13.9988 16.3917 14.0378 16.574 14.1135C16.7563 14.1892 16.9219 14.3002 17.0613 14.44L20.0613 17.4387Z" fill="black"/>
</svg>
