<svg width="32" height="32" viewBox="0 0 32 32" fill="none" xmlns="http://www.w3.org/2000/svg">
<path d="M27.0613 9.94L20.0613 2.94C19.9219 2.80052 19.7565 2.68987 19.5744 2.61437C19.3923 2.53887 19.1971 2.50001 19 2.5H7C6.33696 2.5 5.70107 2.76339 5.23223 3.23223C4.76339 3.70107 4.5 4.33696 4.5 5V27C4.5 27.663 4.76339 28.2989 5.23223 28.7678C5.70107 29.2366 6.33696 29.5 7 29.5H25C25.663 29.5 26.2989 29.2366 26.7678 28.7678C27.2366 28.2989 27.5 27.663 27.5 27V11C27.5 10.6025 27.3422 10.2212 27.0613 9.94ZM22.875 10H20V7.125L22.875 10ZM7.5 26.5V5.5H17V11.5C17 11.8978 17.158 12.2794 17.4393 12.5607C17.7206 12.842 18.1022 13 18.5 13H24.5V26.5H7.5ZM19.56 20.4387C20.0168 19.4808 20.1203 18.3922 19.8523 17.3653C19.5842 16.3384 18.9618 15.4393 18.0951 14.8269C17.2284 14.2144 16.1731 13.928 15.1156 14.0182C14.0582 14.1084 13.0666 14.5695 12.3162 15.3199C11.5657 16.0704 11.1047 17.0619 11.0144 18.1194C10.9242 19.1768 11.2106 20.2321 11.8231 21.0989C12.4356 21.9656 13.3347 22.5879 14.3616 22.856C15.3885 23.1241 16.477 23.0205 17.435 22.5637L18.935 24.0637C19.2168 24.3455 19.599 24.5039 19.9975 24.5039C20.396 24.5039 20.7782 24.3455 21.06 24.0637C21.3418 23.782 21.5001 23.3998 21.5001 23.0012C21.5001 22.6027 21.3418 22.2205 21.06 21.9387L19.56 20.4387ZM14 18.5C14 18.2033 14.088 17.9133 14.2528 17.6666C14.4176 17.42 14.6519 17.2277 14.926 17.1142C15.2001 17.0007 15.5017 16.9709 15.7926 17.0288C16.0836 17.0867 16.3509 17.2296 16.5607 17.4393C16.7704 17.6491 16.9133 17.9164 16.9712 18.2074C17.0291 18.4983 16.9993 18.7999 16.8858 19.074C16.7723 19.3481 16.58 19.5824 16.3334 19.7472C16.0867 19.912 15.7967 20 15.5 20C15.1022 20 14.7206 19.842 14.4393 19.5607C14.158 19.2794 14 18.8978 14 18.5Z" fill="black"/>
</svg>
