<svg width="32" height="32" viewBox="0 0 32 32" fill="none" xmlns="http://www.w3.org/2000/svg">
<path d="M16 19C16 19.3978 15.842 19.7794 15.5607 20.0607C15.2794 20.342 14.8978 20.5 14.5 20.5H14.25V26C14.25 26.3978 14.092 26.7794 13.8107 27.0607C13.5294 27.342 13.1478 27.5 12.75 27.5C12.3522 27.5 11.9706 27.342 11.6893 27.0607C11.408 26.7794 11.25 26.3978 11.25 26V20.5H11C10.6022 20.5 10.2206 20.342 9.93934 20.0607C9.65804 19.7794 9.5 19.3978 9.5 19C9.5 18.6022 9.65804 18.2206 9.93934 17.9393C10.2206 17.658 10.6022 17.5 11 17.5H14.5C14.8978 17.5 15.2794 17.658 15.5607 17.9393C15.842 18.2206 16 18.6022 16 19ZM7 17.5C6.60218 17.5 6.22064 17.658 5.93934 17.9393C5.65804 18.2206 5.5 18.6022 5.5 19V21H4.5V19C4.5 18.6022 4.34196 18.2206 4.06066 17.9393C3.77936 17.658 3.39782 17.5 3 17.5C2.60218 17.5 2.22064 17.658 1.93934 17.9393C1.65804 18.2206 1.5 18.6022 1.5 19V26C1.5 26.3978 1.65804 26.7794 1.93934 27.0607C2.22064 27.342 2.60218 27.5 3 27.5C3.39782 27.5 3.77936 27.342 4.06066 27.0607C4.34196 26.7794 4.5 26.3978 4.5 26V24H5.5V26C5.5 26.3978 5.65804 26.7794 5.93934 27.0607C6.22064 27.342 6.60218 27.5 7 27.5C7.39782 27.5 7.77936 27.342 8.06066 27.0607C8.34196 26.7794 8.5 26.3978 8.5 26V19C8.5 18.6022 8.34196 18.2206 8.06066 17.9393C7.77936 17.658 7.39782 17.5 7 17.5ZM30.5 24.5H30V19C30 18.6022 29.842 18.2206 29.5607 17.9393C29.2794 17.658 28.8978 17.5 28.5 17.5C28.1022 17.5 27.7206 17.658 27.4393 17.9393C27.158 18.2206 27 18.6022 27 19V26C27 26.3978 27.158 26.7794 27.4393 27.0607C27.7206 27.342 28.1022 27.5 28.5 27.5H30.5C30.8978 27.5 31.2794 27.342 31.5607 27.0607C31.842 26.7794 32 26.3978 32 26C32 25.6022 31.842 25.2206 31.5607 24.9393C31.2794 24.658 30.8978 24.5 30.5 24.5ZM24.9 17.555C24.5839 17.4675 24.2479 17.486 23.9433 17.6077C23.6388 17.7294 23.3825 17.9475 23.2138 18.2288L21.5 21.085L19.7862 18.2288C19.6175 17.9475 19.3612 17.7293 19.0566 17.6076C18.752 17.4859 18.416 17.4673 18.0998 17.5548C17.7837 17.6423 17.505 17.831 17.3064 18.0921C17.1077 18.3531 17.0001 18.672 17 19V26C17 26.3978 17.158 26.7794 17.4393 27.0607C17.7206 27.342 18.1022 27.5 18.5 27.5C18.8978 27.5 19.2794 27.342 19.5607 27.0607C19.842 26.7794 20 26.3978 20 26V24.415L20.2138 24.7712C20.347 24.9934 20.5355 25.1772 20.7609 25.3048C20.9864 25.4324 21.241 25.4995 21.5 25.4995C21.759 25.4995 22.0136 25.4324 22.2391 25.3048C22.4645 25.1772 22.653 24.9934 22.7862 24.7712L23 24.415V26C23 26.3978 23.158 26.7794 23.4393 27.0607C23.7206 27.342 24.1022 27.5 24.5 27.5C24.8978 27.5 25.2794 27.342 25.5607 27.0607C25.842 26.7794 26 26.3978 26 26V19C25.9999 18.672 25.8922 18.3531 25.6935 18.0921C25.4949 17.8311 25.2161 17.6425 24.9 17.555ZM26 15C25.6022 15 25.2206 14.842 24.9393 14.5607C24.658 14.2794 24.5 13.8978 24.5 13.5V13H18.5C18.1022 13 17.7206 12.842 17.4393 12.5607C17.158 12.2794 17 11.8978 17 11.5V5.5H7.5V13.5C7.5 13.8978 7.34196 14.2794 7.06066 14.5607C6.77936 14.842 6.39782 15 6 15C5.60218 15 5.22064 14.842 4.93934 14.5607C4.65804 14.2794 4.5 13.8978 4.5 13.5V5C4.5 4.33696 4.76339 3.70107 5.23223 3.23223C5.70107 2.76339 6.33696 2.5 7 2.5H19C19.1971 2.50001 19.3923 2.53887 19.5744 2.61437C19.7565 2.68987 19.9219 2.80052 20.0613 2.94L27.0613 9.94C27.3422 10.2212 27.5 10.6025 27.5 11V13.5C27.5 13.8978 27.342 14.2794 27.0607 14.5607C26.7794 14.842 26.3978 15 26 15ZM22.875 10L20 7.125V10H22.875Z" fill="black"/>
</svg>
