<svg width="32" height="32" viewBox="0 0 32 32" fill="none" xmlns="http://www.w3.org/2000/svg">
<path d="M10.9125 19.5L8.41247 26.5C8.30837 26.7913 8.11677 27.0432 7.86391 27.2214C7.61104 27.3996 7.30929 27.4952 6.99997 27.4952C6.69065 27.4952 6.3889 27.3996 6.13604 27.2214C5.88317 27.0432 5.69157 26.7913 5.58747 26.5L3.08747 19.5C2.97575 19.1308 3.01059 18.7327 3.18475 18.3884C3.35891 18.0442 3.65899 17.7803 4.02266 17.6516C4.38632 17.5229 4.7856 17.5392 5.13754 17.6972C5.48947 17.8552 5.76701 18.1427 5.91247 18.5L6.99997 21.54L8.08747 18.5C8.23294 18.1427 8.51047 17.8552 8.86241 17.6972C9.21434 17.5392 9.61362 17.5229 9.97729 17.6516C10.3409 17.7803 10.641 18.0442 10.8152 18.3884C10.9894 18.7327 11.0242 19.1308 10.9125 19.5ZM26.5 24.5H24V24H25.5C25.8978 24 26.2793 23.842 26.5606 23.5607C26.8419 23.2794 27 22.8978 27 22.5C27 22.1022 26.8419 21.7206 26.5606 21.4393C26.2793 21.158 25.8978 21 25.5 21H24V20.5H26.5C26.8978 20.5 27.2793 20.342 27.5606 20.0607C27.8419 19.7794 28 19.3978 28 19C28 18.6022 27.8419 18.2206 27.5606 17.9393C27.2793 17.658 26.8978 17.5 26.5 17.5H22.5C22.1021 17.5 21.7206 17.658 21.4393 17.9393C21.158 18.2206 21 18.6022 21 19V26C21 26.3978 21.158 26.7794 21.4393 27.0607C21.7206 27.342 22.1021 27.5 22.5 27.5H26.5C26.8978 27.5 27.2793 27.342 27.5606 27.0607C27.8419 26.7794 28 26.3978 28 26C28 25.6022 27.8419 25.2206 27.5606 24.9393C27.2793 24.658 26.8978 24.5 26.5 24.5ZM18 17.5C17.6021 17.5 17.2206 17.658 16.9393 17.9393C16.658 18.2206 16.5 18.6022 16.5 19V23.75C16.5 23.9489 16.421 24.1397 16.2803 24.2803C16.1396 24.421 15.9489 24.5 15.75 24.5C15.5511 24.5 15.3603 24.421 15.2196 24.2803C15.079 24.1397 15 23.9489 15 23.75V19C15 18.6022 14.8419 18.2206 14.5606 17.9393C14.2793 17.658 13.8978 17.5 13.5 17.5C13.1021 17.5 12.7206 17.658 12.4393 17.9393C12.158 18.2206 12 18.6022 12 19V23.75C12 24.7446 12.3951 25.6984 13.0983 26.4017C13.8016 27.1049 14.7554 27.5 15.75 27.5C16.7445 27.5 17.6984 27.1049 18.4016 26.4017C19.1049 25.6984 19.5 24.7446 19.5 23.75V19C19.5 18.6022 19.3419 18.2206 19.0606 17.9393C18.7793 17.658 18.3978 17.5 18 17.5ZM4.49997 13.5V5C4.49997 4.33696 4.76336 3.70107 5.2322 3.23223C5.70105 2.76339 6.33693 2.5 6.99997 2.5H19C19.1971 2.50001 19.3923 2.53887 19.5744 2.61437C19.7565 2.68987 19.9219 2.80052 20.0612 2.94L27.0612 9.94C27.3421 10.2212 27.5 10.6025 27.5 11V13.5C27.5 13.8978 27.3419 14.2794 27.0606 14.5607C26.7793 14.842 26.3978 15 26 15C25.6021 15 25.2206 14.842 24.9393 14.5607C24.658 14.2794 24.5 13.8978 24.5 13.5V13H18.5C18.1021 13 17.7206 12.842 17.4393 12.5607C17.158 12.2794 17 11.8978 17 11.5V5.5H7.49997V13.5C7.49997 13.8978 7.34194 14.2794 7.06063 14.5607C6.77933 14.842 6.3978 15 5.99997 15C5.60215 15 5.22062 14.842 4.93931 14.5607C4.65801 14.2794 4.49997 13.8978 4.49997 13.5ZM20 10H22.875L20 7.125V10Z" fill="black"/>
</svg>
