<svg width="32" height="32" viewBox="0 0 32 32" fill="none" xmlns="http://www.w3.org/2000/svg">
<path d="M27.0613 9.94L20.0613 2.94C19.9219 2.80052 19.7565 2.68987 19.5744 2.61437C19.3923 2.53887 19.1971 2.50001 19 2.5H7C6.33696 2.5 5.70107 2.76339 5.23223 3.23223C4.76339 3.70107 4.5 4.33696 4.5 5V27C4.5 27.663 4.76339 28.2989 5.23223 28.7678C5.70107 29.2366 6.33696 29.5 7 29.5H25C25.663 29.5 26.2989 29.2366 26.7678 28.7678C27.2366 28.2989 27.5 27.663 27.5 27V11C27.5 10.6025 27.3422 10.2212 27.0613 9.94ZM22.875 10H20V7.125L22.875 10ZM7.5 26.5V5.5H17V11.5C17 11.8978 17.158 12.2794 17.4393 12.5607C17.7206 12.842 18.1022 13 18.5 13H24.5V26.5H7.5ZM20.0613 17.0613L18.125 19L20.065 20.9387C20.3468 21.2205 20.5051 21.6027 20.5051 22.0012C20.5051 22.3998 20.3468 22.782 20.065 23.0637C19.7832 23.3455 19.401 23.5039 19.0025 23.5039C18.604 23.5039 18.2218 23.3455 17.94 23.0637L16 21.125L14.0612 23.065C13.7795 23.3468 13.3973 23.5051 12.9987 23.5051C12.6002 23.5051 12.218 23.3468 11.9362 23.065C11.6545 22.7832 11.4961 22.401 11.4961 22.0025C11.4961 21.604 11.6545 21.2218 11.9362 20.94L13.875 19L11.9388 17.0613C11.7992 16.9217 11.6885 16.7561 11.613 16.5738C11.5375 16.3915 11.4986 16.1961 11.4986 15.9987C11.4986 15.8014 11.5375 15.606 11.613 15.4237C11.6885 15.2414 11.7992 15.0758 11.9388 14.9362C12.0783 14.7967 12.2439 14.686 12.4262 14.6105C12.6085 14.535 12.8039 14.4961 13.0013 14.4961C13.1986 14.4961 13.394 14.535 13.5763 14.6105C13.7586 14.686 13.9242 14.7967 14.0638 14.9362L16 16.875L17.9387 14.935C18.0783 14.7955 18.2439 14.6848 18.4262 14.6093C18.6085 14.5338 18.8039 14.4949 19.0012 14.4949C19.1986 14.4949 19.394 14.5338 19.5763 14.6093C19.7586 14.6848 19.9242 14.7955 20.0637 14.935C20.2033 15.0745 20.314 15.2402 20.3895 15.4225C20.465 15.6048 20.5039 15.8002 20.5039 15.9975C20.5039 16.1948 20.465 16.3902 20.3895 16.5725C20.314 16.7548 20.2033 16.9205 20.0637 17.06L20.0613 17.0613Z" fill="black"/>
</svg>
