<svg width="32" height="32" viewBox="0 0 32 32" fill="none" xmlns="http://www.w3.org/2000/svg">
<path d="M27.0613 9.93875L20.0613 2.93875C19.9218 2.7995 19.7564 2.68908 19.5743 2.6138C19.3922 2.53851 19.197 2.49985 19 2.5H7C6.33696 2.5 5.70107 2.76339 5.23223 3.23223C4.76339 3.70107 4.5 4.33696 4.5 5V13.5C4.5 13.8978 4.65804 14.2794 4.93934 14.5607C5.22064 14.842 5.60218 15 6 15C6.39782 15 6.77936 14.842 7.06066 14.5607C7.34196 14.2794 7.5 13.8978 7.5 13.5V5.5H17V11.5C17 11.8978 17.158 12.2794 17.4393 12.5607C17.7206 12.842 18.1022 13 18.5 13H24.5V26.5H23.5C23.1022 26.5 22.7206 26.658 22.4393 26.9393C22.158 27.2206 22 27.6022 22 28C22 28.3978 22.158 28.7794 22.4393 29.0607C22.7206 29.342 23.1022 29.5 23.5 29.5H25C25.663 29.5 26.2989 29.2366 26.7678 28.7678C27.2366 28.2989 27.5 27.663 27.5 27V11C27.5002 10.803 27.4615 10.6078 27.3862 10.4257C27.3109 10.2436 27.2005 10.0782 27.0613 9.93875ZM20 7.125L22.875 10H20V7.125ZM8 17.5H6C5.60218 17.5 5.22064 17.658 4.93934 17.9393C4.65804 18.2206 4.5 18.6022 4.5 19V26C4.5 26.3978 4.65804 26.7794 4.93934 27.0607C5.22064 27.342 5.60218 27.5 6 27.5C6.39782 27.5 6.77936 27.342 7.06066 27.0607C7.34196 26.7794 7.5 26.3978 7.5 26V25.5H8C8.15244 25.4995 8.30475 25.4907 8.45625 25.4737L9.20625 26.7563C9.41623 27.0785 9.74201 27.3079 10.1163 27.3968C10.4905 27.4857 10.8846 27.4275 11.2171 27.2341C11.5497 27.0407 11.7952 26.727 11.903 26.3577C12.0107 25.9884 11.9725 25.5919 11.7963 25.25L11.0913 24.0425C11.5734 23.4569 11.8791 22.7463 11.9727 21.9936C12.0663 21.2408 11.9439 20.477 11.6199 19.7912C11.2958 19.1054 10.7835 18.5258 10.1425 18.1201C9.5016 17.7145 8.75853 17.4994 8 17.5ZM7.5 20.5H8C8.26522 20.5 8.51957 20.6054 8.70711 20.7929C8.89464 20.9804 9 21.2348 9 21.5C9 21.7652 8.89464 22.0196 8.70711 22.2071C8.51957 22.3946 8.26522 22.5 8 22.5H7.5V20.5ZM20.4725 24.6025C20.425 25.0565 20.2777 25.4943 20.041 25.8846C19.8044 26.2749 19.4843 26.608 19.1038 26.86C18.3538 27.36 17.445 27.5037 16.6375 27.5037C15.9522 27.4993 15.2703 27.4064 14.6088 27.2275C14.2255 27.1204 13.9005 26.8655 13.7052 26.5188C13.51 26.1721 13.4604 25.762 13.5675 25.3787C13.6746 24.9955 13.9295 24.6705 14.2762 24.4752C14.6229 24.28 15.033 24.2304 15.4163 24.3375C16.2675 24.57 17.2913 24.5387 17.465 24.345C17.4781 24.3169 17.487 24.287 17.4912 24.2563C17.2487 24.1025 16.6375 23.9263 16.2563 23.8162C15.5825 23.6213 14.8813 23.4187 14.2875 23.0325C13.335 22.4175 12.8863 21.4762 13.0238 20.3825C13.0704 19.9374 13.2143 19.508 13.4452 19.1246C13.6761 18.7412 13.9884 18.4132 14.36 18.1637C15.1175 17.6525 16.1312 17.435 17.3725 17.5163C17.8793 17.5495 18.3821 17.6277 18.875 17.75C19.2554 17.855 19.5792 18.1056 19.7761 18.4477C19.9729 18.7897 20.0271 19.1956 19.9268 19.5772C19.8265 19.9589 19.5798 20.2857 19.2401 20.4868C18.9005 20.6878 18.4954 20.7469 18.1125 20.6513C17.3175 20.4475 16.41 20.4625 16.1038 20.61C16.4275 20.7351 16.7575 20.8432 17.0925 20.9338C17.7775 21.1313 18.5525 21.355 19.1925 21.7862C20.1662 22.4437 20.625 23.4438 20.4725 24.6025Z" fill="black"/>
</svg>
