<svg width="32" height="32" viewBox="0 0 32 32" fill="none" xmlns="http://www.w3.org/2000/svg">
<path d="M27.0613 9.93875L20.0613 2.93875C19.9218 2.7995 19.7564 2.68908 19.5743 2.6138C19.3922 2.53851 19.197 2.49985 19 2.5H7C6.33696 2.5 5.70107 2.76339 5.23223 3.23223C4.76339 3.70107 4.5 4.33696 4.5 5V13.5C4.5 13.8978 4.65804 14.2794 4.93934 14.5607C5.22064 14.842 5.60218 15 6 15C6.39782 15 6.77936 14.842 7.06066 14.5607C7.34196 14.2794 7.5 13.8978 7.5 13.5V5.5H17V11.5C17 11.8978 17.158 12.2794 17.4393 12.5607C17.7206 12.842 18.1022 13 18.5 13H24.5V26.5H22.5C22.1022 26.5 21.7206 26.658 21.4393 26.9393C21.158 27.2206 21 27.6022 21 28C21 28.3978 21.158 28.7794 21.4393 29.0607C21.7206 29.342 22.1022 29.5 22.5 29.5H25C25.663 29.5 26.2989 29.2366 26.7678 28.7678C27.2366 28.2989 27.5 27.663 27.5 27V11C27.5002 10.803 27.4615 10.6078 27.3862 10.4257C27.3109 10.2436 27.2005 10.0782 27.0613 9.93875ZM20 7.125L22.875 10H20V7.125ZM19.4725 24.6063C19.425 25.0602 19.2777 25.498 19.041 25.8883C18.8044 26.2786 18.4843 26.6117 18.1038 26.8638C17.3538 27.3638 16.445 27.5075 15.6375 27.5075C14.9522 27.503 14.2703 27.4102 13.6088 27.2313C13.2255 27.1242 12.9005 26.8692 12.7052 26.5225C12.51 26.1758 12.4604 25.7657 12.5675 25.3825C12.6746 24.9993 12.9295 24.6743 13.2762 24.479C13.6229 24.2837 14.033 24.2342 14.4163 24.3412C15.2675 24.5737 16.2913 24.5425 16.465 24.3487C16.4781 24.3206 16.487 24.2907 16.4912 24.26C16.2487 24.1063 15.6375 23.93 15.2563 23.82C14.5825 23.625 13.8813 23.4225 13.2875 23.0362C12.335 22.4212 11.8863 21.48 12.0238 20.3862C12.0704 19.9411 12.2143 19.5117 12.4452 19.1283C12.6761 18.7449 12.9884 18.4169 13.36 18.1675C14.1175 17.6562 15.1312 17.4388 16.3725 17.52C16.8792 17.552 17.382 17.629 17.875 17.75C18.2554 17.855 18.5792 18.1056 18.7761 18.4477C18.9729 18.7897 19.0271 19.1956 18.9268 19.5772C18.8265 19.9589 18.5798 20.2857 18.2401 20.4868C17.9005 20.6878 17.4954 20.7469 17.1125 20.6513C16.3175 20.4475 15.41 20.4625 15.1038 20.61C15.4275 20.7351 15.7575 20.8432 16.0925 20.9338C16.7775 21.1313 17.5525 21.355 18.1925 21.7862C19.1662 22.4437 19.625 23.4438 19.4725 24.6025V24.6063ZM11.5 19C11.5 19.3978 11.342 19.7794 11.0607 20.0607C10.7794 20.342 10.3978 20.5 10 20.5H9V26C9 26.3978 8.84196 26.7794 8.56066 27.0607C8.27936 27.342 7.89782 27.5 7.5 27.5C7.10218 27.5 6.72064 27.342 6.43934 27.0607C6.15804 26.7794 6 26.3978 6 26V20.5H5C4.60218 20.5 4.22064 20.342 3.93934 20.0607C3.65804 19.7794 3.5 19.3978 3.5 19C3.5 18.6022 3.65804 18.2206 3.93934 17.9393C4.22064 17.658 4.60218 17.5 5 17.5H10C10.3978 17.5 10.7794 17.658 11.0607 17.9393C11.342 18.2206 11.5 18.6022 11.5 19Z" fill="black"/>
</svg>
