<svg width="32" height="32" viewBox="0 0 32 32" fill="none" xmlns="http://www.w3.org/2000/svg">
<path d="M20 26C20 26.3978 19.842 26.7794 19.5607 27.0607C19.2794 27.342 18.8978 27.5 18.5 27.5H15C14.6022 27.5 14.2207 27.342 13.9393 27.0607C13.658 26.7794 13.5 26.3978 13.5 26V19C13.5 18.6022 13.658 18.2206 13.9393 17.9393C14.2207 17.658 14.6022 17.5 15 17.5C15.3978 17.5 15.7794 17.658 16.0607 17.9393C16.342 18.2206 16.5 18.6022 16.5 19V24.5H18.5C18.8978 24.5 19.2794 24.658 19.5607 24.9393C19.842 25.2206 20 25.6022 20 26ZM11.375 17.7775C11.2147 17.6625 11.0333 17.5803 10.8412 17.5356C10.6491 17.4908 10.45 17.4844 10.2554 17.5167C10.0608 17.549 9.87451 17.6193 9.70713 17.7237C9.53976 17.8281 9.39461 17.9644 9.28001 18.125L8.00001 19.9175L6.72126 18.125C6.4892 17.8013 6.13803 17.583 5.74503 17.5182C5.35202 17.4534 4.94936 17.5473 4.62563 17.7794C4.3019 18.0114 4.08362 18.3626 4.0188 18.7556C3.95399 19.1486 4.04795 19.5513 4.28001 19.875L6.15501 22.5L4.28001 25.125C4.1651 25.2853 4.08289 25.4667 4.03808 25.6587C3.99326 25.8508 3.98671 26.0498 4.0188 26.2444C4.0509 26.439 4.12101 26.6254 4.22513 26.7929C4.32925 26.9604 4.46534 27.1057 4.62563 27.2206C4.78593 27.3355 4.96729 27.4177 5.15935 27.4626C5.35142 27.5074 5.55043 27.5139 5.74503 27.4818C5.93963 27.4497 6.126 27.3796 6.2935 27.2755C6.461 27.1714 6.60635 27.0353 6.72126 26.875L8.00001 25.0775L9.28001 26.875C9.51207 27.1987 9.86323 27.417 10.2562 27.4818C10.6492 27.5466 11.0519 27.4527 11.3756 27.2206C11.6994 26.9886 11.9176 26.6374 11.9825 26.2444C12.0473 25.8514 11.9533 25.4487 11.7213 25.125L9.84626 22.5L11.7213 19.875C11.8367 19.7147 11.9193 19.5332 11.9643 19.3409C12.0094 19.1485 12.016 18.9492 11.9839 18.7543C11.9517 18.5594 11.8813 18.3728 11.7769 18.2052C11.6724 18.0376 11.5358 17.8922 11.375 17.7775ZM26.6913 21.7838C26.0513 21.3525 25.2763 21.1287 24.5925 20.9312C24.2571 20.8407 23.9266 20.7326 23.6025 20.6075C23.9088 20.46 24.8163 20.445 25.6113 20.6488C25.9897 20.7327 26.3859 20.6669 26.7168 20.4651C27.0478 20.2634 27.2878 19.9413 27.3866 19.5665C27.4853 19.1917 27.4351 18.7932 27.2466 18.4546C27.058 18.1159 26.7456 17.8634 26.375 17.75C25.8828 17.6286 25.3809 17.5508 24.875 17.5175C23.6338 17.435 22.625 17.6525 21.8625 18.1637C21.4908 18.4133 21.1784 18.7415 20.9475 19.1251C20.7166 19.5088 20.5728 19.9384 20.5263 20.3838C20.3888 21.4763 20.8375 22.4175 21.79 23.0325C22.3875 23.4187 23.085 23.62 23.7588 23.815C24.1338 23.9263 24.7513 24.1025 24.9938 24.2563C24.9895 24.287 24.9807 24.3169 24.9675 24.345C24.7963 24.5387 23.77 24.5688 22.9188 24.3375C22.7278 24.2803 22.5274 24.2617 22.3292 24.2829C22.131 24.304 21.939 24.3645 21.7645 24.4606C21.5899 24.5568 21.4363 24.6868 21.3125 24.8431C21.1888 24.9993 21.0974 25.1786 21.0437 25.3706C20.9901 25.5626 20.9752 25.7633 21 25.961C21.0248 26.1588 21.0888 26.3496 21.1881 26.5224C21.2875 26.6952 21.4204 26.8464 21.5789 26.9672C21.7374 27.0881 21.9183 27.1761 22.1113 27.2262C22.7721 27.4041 23.4531 27.4961 24.1375 27.5C24.945 27.5 25.8538 27.3538 26.6038 26.8563C26.9835 26.6051 27.3031 26.2733 27.5397 25.8843C27.7763 25.4954 27.9241 25.0589 27.9725 24.6063C28.125 23.4412 27.6663 22.4412 26.6888 21.7838H26.6913ZM4.50001 13.5V5C4.50001 4.33696 4.7634 3.70107 5.23224 3.23223C5.70108 2.76339 6.33697 2.5 7.00001 2.5H19C19.1971 2.49985 19.3922 2.53851 19.5743 2.6138C19.7564 2.68908 19.9219 2.7995 20.0613 2.93875L27.0613 9.93875C27.2005 10.0782 27.3109 10.2436 27.3862 10.4257C27.4615 10.6078 27.5002 10.803 27.5 11V13.5C27.5 13.8978 27.342 14.2794 27.0607 14.5607C26.7794 14.842 26.3978 15 26 15C25.6022 15 25.2207 14.842 24.9394 14.5607C24.658 14.2794 24.5 13.8978 24.5 13.5V13H18.5C18.1022 13 17.7207 12.842 17.4394 12.5607C17.158 12.2794 17 11.8978 17 11.5V5.5H7.50001V13.5C7.50001 13.8978 7.34197 14.2794 7.06067 14.5607C6.77937 14.842 6.39783 15 6.00001 15C5.60218 15 5.22065 14.842 4.93935 14.5607C4.65804 14.2794 4.50001 13.8978 4.50001 13.5ZM20 10H22.875L20 7.125V10Z" fill="black"/>
</svg>
