<svg width="32" height="32" viewBox="0 0 32 32" fill="none" xmlns="http://www.w3.org/2000/svg">
<path d="M29 19C29 19.3978 28.842 19.7794 28.5607 20.0607C28.2794 20.342 27.8978 20.5 27.5 20.5H26.5V26C26.5 26.3978 26.342 26.7794 26.0607 27.0607C25.7794 27.342 25.3978 27.5 25 27.5C24.6022 27.5 24.2206 27.342 23.9393 27.0607C23.658 26.7794 23.5 26.3978 23.5 26V20.5H22.5C22.1022 20.5 21.7206 20.342 21.4393 20.0607C21.158 19.7794 21 19.3978 21 19C21 18.6022 21.158 18.2206 21.4393 17.9393C21.7206 17.658 22.1022 17.5 22.5 17.5H27.5C27.8978 17.5 28.2794 17.658 28.5607 17.9393C28.842 18.2206 29 18.6022 29 19ZM11.5 21.5C11.5 22.5609 11.0786 23.5783 10.3284 24.3284C9.57828 25.0786 8.56087 25.5 7.5 25.5H7V26C7 26.3978 6.84196 26.7794 6.56066 27.0607C6.27936 27.342 5.89782 27.5 5.5 27.5C5.10218 27.5 4.72064 27.342 4.43934 27.0607C4.15804 26.7794 4 26.3978 4 26V19C4 18.6022 4.15804 18.2206 4.43934 17.9393C4.72064 17.658 5.10218 17.5 5.5 17.5H7.5C8.56087 17.5 9.57828 17.9214 10.3284 18.6716C11.0786 19.4217 11.5 20.4391 11.5 21.5ZM8.5 21.5C8.5 21.2348 8.39464 20.9804 8.20711 20.7929C8.01957 20.6054 7.76522 20.5 7.5 20.5H7V22.5H7.5C7.76522 22.5 8.01957 22.3946 8.20711 22.2071C8.39464 22.0196 8.5 21.7652 8.5 21.5ZM20.5 21.5C20.5 22.5609 20.0786 23.5783 19.3284 24.3284C18.5783 25.0786 17.5609 25.5 16.5 25.5H16V26C16 26.3978 15.842 26.7794 15.5607 27.0607C15.2794 27.342 14.8978 27.5 14.5 27.5C14.1022 27.5 13.7206 27.342 13.4393 27.0607C13.158 26.7794 13 26.3978 13 26V19C13 18.6022 13.158 18.2206 13.4393 17.9393C13.7206 17.658 14.1022 17.5 14.5 17.5H16.5C17.5609 17.5 18.5783 17.9214 19.3284 18.6716C20.0786 19.4217 20.5 20.4391 20.5 21.5ZM17.5 21.5C17.5 21.2348 17.3946 20.9804 17.2071 20.7929C17.0196 20.6054 16.7652 20.5 16.5 20.5H16V22.5H16.5C16.7652 22.5 17.0196 22.3946 17.2071 22.2071C17.3946 22.0196 17.5 21.7652 17.5 21.5ZM4.5 13.5V5C4.5 4.33696 4.76339 3.70107 5.23223 3.23223C5.70107 2.76339 6.33696 2.5 7 2.5H19C19.1971 2.50001 19.3923 2.53887 19.5744 2.61437C19.7565 2.68987 19.9219 2.80052 20.0613 2.94L27.0613 9.94C27.3422 10.2212 27.5 10.6025 27.5 11V13.5C27.5 13.8978 27.342 14.2794 27.0607 14.5607C26.7794 14.842 26.3978 15 26 15C25.6022 15 25.2206 14.842 24.9393 14.5607C24.658 14.2794 24.5 13.8978 24.5 13.5V13H18.5C18.1022 13 17.7206 12.842 17.4393 12.5607C17.158 12.2794 17 11.8978 17 11.5V5.5H7.5V13.5C7.5 13.8978 7.34196 14.2794 7.06066 14.5607C6.77936 14.842 6.39782 15 6 15C5.60218 15 5.22064 14.842 4.93934 14.5607C4.65804 14.2794 4.5 13.8978 4.5 13.5ZM20 10H22.875L20 7.125V10Z" fill="black"/>
</svg>
