<svg width="32" height="32" viewBox="0 0 32 32" fill="none" xmlns="http://www.w3.org/2000/svg">
<path d="M6.00011 15C6.39793 15 6.77946 14.842 7.06077 14.5607C7.34207 14.2794 7.50011 13.8978 7.50011 13.5V5.5H17.0001V11.5C17.0001 11.8978 17.1581 12.2794 17.4394 12.5607C17.7208 12.842 18.1023 13 18.5001 13H24.5001V13.5C24.5001 13.8978 24.6581 14.2794 24.9394 14.5607C25.2208 14.842 25.6023 15 26.0001 15C26.3979 15 26.7795 14.842 27.0608 14.5607C27.3421 14.2794 27.5001 13.8978 27.5001 13.5V11C27.5001 10.6025 27.3423 10.2212 27.0614 9.94L20.0614 2.94C19.9221 2.80052 19.7566 2.68987 19.5745 2.61437C19.3924 2.53887 19.1972 2.50001 19.0001 2.5H7.00011C6.33707 2.5 5.70118 2.76339 5.23234 3.23223C4.7635 3.70107 4.50011 4.33696 4.50011 5V13.5C4.50011 13.8978 4.65814 14.2794 4.93945 14.5607C5.22075 14.842 5.60228 15 6.00011 15ZM22.8751 10H20.0001V7.125L22.8751 10ZM29.5001 26C29.5001 26.3978 29.3421 26.7794 29.0608 27.0607C28.7795 27.342 28.3979 27.5 28.0001 27.5H24.5001C24.1023 27.5 23.7208 27.342 23.4394 27.0607C23.1581 26.7794 23.0001 26.3978 23.0001 26V19C23.0001 18.6022 23.1581 18.2206 23.4394 17.9393C23.7208 17.658 24.1023 17.5 24.5001 17.5C24.8979 17.5 25.2795 17.658 25.5608 17.9393C25.8421 18.2206 26.0001 18.6022 26.0001 19V24.5H28.0001C28.3979 24.5 28.7795 24.658 29.0608 24.9393C29.3421 25.2206 29.5001 25.6022 29.5001 26ZM11.4726 24.6C11.4238 25.0533 11.2751 25.4901 11.0374 25.8792C10.7996 26.2682 10.4787 26.5997 10.0976 26.85C9.34761 27.35 8.44011 27.4937 7.63136 27.4937C6.94604 27.4893 6.26416 27.3964 5.60261 27.2175C5.40969 27.1674 5.2287 27.0793 5.0702 26.9585C4.91171 26.8377 4.77888 26.6864 4.67949 26.5137C4.5801 26.3409 4.51614 26.1501 4.49134 25.9523C4.46655 25.7545 4.48141 25.5538 4.53507 25.3619C4.58872 25.1699 4.6801 24.9906 4.80385 24.8343C4.92761 24.6781 5.08126 24.5481 5.25583 24.4519C5.4304 24.3557 5.62238 24.2953 5.82057 24.2741C6.01876 24.253 6.21918 24.2716 6.41011 24.3288C7.26136 24.56 8.28511 24.53 8.45886 24.3363C8.472 24.3081 8.48085 24.2782 8.48511 24.2475C8.24261 24.0938 7.63261 23.9175 7.25011 23.8062C6.57636 23.6112 5.87511 23.41 5.28136 23.0238C4.32886 22.4088 3.88011 21.4675 4.01886 20.375C4.06514 19.9298 4.20871 19.5001 4.4394 19.1165C4.6701 18.7329 4.98228 18.4046 5.35386 18.155C6.11261 17.6438 7.12511 17.4263 8.36636 17.5088C8.87542 17.5444 9.38032 17.6251 9.87511 17.75C10.2555 17.855 10.5793 18.1056 10.7762 18.4477C10.973 18.7897 11.0272 19.1956 10.9269 19.5772C10.8266 19.9589 10.5799 20.2857 10.2403 20.4868C9.90065 20.6878 9.49549 20.7469 9.11261 20.6513C8.31886 20.4475 7.41136 20.4638 7.10386 20.61C7.42798 20.7351 7.75844 20.8432 8.09386 20.9338C8.77761 21.1313 9.55261 21.355 10.1939 21.7862C11.1664 22.4412 11.6251 23.4412 11.4726 24.6ZM20.9726 24.85C21.323 24.1163 21.5033 23.313 21.5001 22.5C21.5001 19.75 19.4814 17.5 17.0001 17.5C14.5189 17.5 12.5001 19.75 12.5001 22.5C12.5001 25.25 14.5189 27.5 17.0001 27.5C17.6643 27.4997 18.3185 27.338 18.9064 27.0287L18.9401 27.0613C19.2219 27.343 19.6041 27.5014 20.0026 27.5014C20.4011 27.5014 20.7833 27.343 21.0651 27.0613C21.3469 26.7795 21.5052 26.3973 21.5052 25.9988C21.5052 25.6002 21.3469 25.218 21.0651 24.9363L20.9726 24.85ZM15.5001 22.5C15.5001 21.4163 16.1876 20.5 17.0001 20.5C17.8126 20.5 18.5001 21.4163 18.5001 22.5C18.5001 22.5287 18.5001 22.5575 18.5001 22.5863C18.2413 22.496 17.9628 22.4783 17.6947 22.5352C17.4266 22.5921 17.1792 22.7213 16.9794 22.9089C16.7796 23.0965 16.6349 23.3352 16.5613 23.5992C16.4876 23.8632 16.4876 24.1423 16.5614 24.4062C15.9526 24.145 15.5001 23.375 15.5001 22.5Z" fill="black"/>
</svg>
