<svg width="32" height="32" viewBox="0 0 32 32" fill="none" xmlns="http://www.w3.org/2000/svg">
<path d="M10.5 28C10.5 28.3978 10.342 28.7794 10.0607 29.0607C9.77936 29.342 9.39782 29.5 9 29.5H7C6.33696 29.5 5.70107 29.2366 5.23223 28.7678C4.76339 28.2989 4.5 27.663 4.5 27V23C4.5 22.6022 4.65804 22.2206 4.93934 21.9393C5.22064 21.658 5.60218 21.5 6 21.5C6.39782 21.5 6.77936 21.658 7.06066 21.9393C7.34196 22.2206 7.5 22.6022 7.5 23V26.5H9C9.39782 26.5 9.77936 26.658 10.0607 26.9393C10.342 27.2206 10.5 27.6022 10.5 28ZM27.5 11V17C27.5 17.3978 27.342 17.7794 27.0607 18.0607C26.7794 18.342 26.3978 18.5 26 18.5C25.6022 18.5 25.2206 18.342 24.9393 18.0607C24.658 17.7794 24.5 17.3978 24.5 17V13H18.5C18.1022 13 17.7206 12.842 17.4393 12.5607C17.158 12.2794 17 11.8978 17 11.5V5.5H15C14.6022 5.5 14.2206 5.34197 13.9393 5.06066C13.658 4.77936 13.5 4.39783 13.5 4C13.5 3.60218 13.658 3.22064 13.9393 2.93934C14.2206 2.65804 14.6022 2.5 15 2.5H19C19.197 2.49985 19.3922 2.53851 19.5743 2.6138C19.7564 2.68908 19.9218 2.7995 20.0613 2.93875L27.0613 9.93875C27.2005 10.0782 27.3109 10.2436 27.3862 10.4257C27.4615 10.6078 27.5002 10.803 27.5 11ZM20 10H22.875L20 7.125V10ZM10 2.5H7C6.33696 2.5 5.70107 2.76339 5.23223 3.23223C4.76339 3.70107 4.5 4.33696 4.5 5V8C4.5 8.39783 4.65804 8.77936 4.93934 9.06066C5.22064 9.34197 5.60218 9.5 6 9.5C6.39782 9.5 6.77936 9.34197 7.06066 9.06066C7.34196 8.77936 7.5 8.39783 7.5 8V5.5H10C10.3978 5.5 10.7794 5.34197 11.0607 5.06066C11.342 4.77936 11.5 4.39783 11.5 4C11.5 3.60218 11.342 3.22064 11.0607 2.93934C10.7794 2.65804 10.3978 2.5 10 2.5ZM26 20.5C25.6022 20.5 25.2206 20.658 24.9393 20.9393C24.658 21.2206 24.5 21.6022 24.5 22V26.5H24C23.6022 26.5 23.2206 26.658 22.9393 26.9393C22.658 27.2206 22.5 27.6022 22.5 28C22.5 28.3978 22.658 28.7794 22.9393 29.0607C23.2206 29.342 23.6022 29.5 24 29.5H25C25.663 29.5 26.2989 29.2366 26.7678 28.7678C27.2366 28.2989 27.5 27.663 27.5 27V22C27.5 21.6022 27.342 21.2206 27.0607 20.9393C26.7794 20.658 26.3978 20.5 26 20.5ZM6 19.5C6.39782 19.5 6.77936 19.342 7.06066 19.0607C7.34196 18.7794 7.5 18.3978 7.5 18V13C7.5 12.6022 7.34196 12.2206 7.06066 11.9393C6.77936 11.658 6.39782 11.5 6 11.5C5.60218 11.5 5.22064 11.658 4.93934 11.9393C4.65804 12.2206 4.5 12.6022 4.5 13V18C4.5 18.3978 4.65804 18.7794 4.93934 19.0607C5.22064 19.342 5.60218 19.5 6 19.5ZM19 26.5H14C13.6022 26.5 13.2206 26.658 12.9393 26.9393C12.658 27.2206 12.5 27.6022 12.5 28C12.5 28.3978 12.658 28.7794 12.9393 29.0607C13.2206 29.342 13.6022 29.5 14 29.5H19C19.3978 29.5 19.7794 29.342 20.0607 29.0607C20.342 28.7794 20.5 28.3978 20.5 28C20.5 27.6022 20.342 27.2206 20.0607 26.9393C19.7794 26.658 19.3978 26.5 19 26.5Z" fill="black"/>
</svg>
