<svg width="32" height="32" viewBox="0 0 32 32" fill="none" xmlns="http://www.w3.org/2000/svg">
<path d="M27.0613 9.94L20.0613 2.94C19.9219 2.80052 19.7565 2.68987 19.5744 2.61437C19.3923 2.53887 19.1971 2.50001 19 2.5H7C6.33696 2.5 5.70107 2.76339 5.23223 3.23223C4.76339 3.70107 4.5 4.33696 4.5 5V27C4.5 27.663 4.76339 28.2989 5.23223 28.7678C5.70107 29.2366 6.33696 29.5 7 29.5H25C25.663 29.5 26.2989 29.2366 26.7678 28.7678C27.2366 28.2989 27.5 27.663 27.5 27V11C27.5 10.6025 27.3422 10.2212 27.0613 9.94ZM20 7.125L22.875 10H20V7.125ZM7.5 26.5V5.5H17V11.5C17 11.8978 17.158 12.2794 17.4393 12.5607C17.7206 12.842 18.1022 13 18.5 13H24.5V26.5H7.5ZM21.5 16.5C21.5 16.8978 21.342 17.2794 21.0607 17.5607C20.7794 17.842 20.3978 18 20 18H12C11.6022 18 11.2206 17.842 10.9393 17.5607C10.658 17.2794 10.5 16.8978 10.5 16.5C10.5 16.1022 10.658 15.7206 10.9393 15.4393C11.2206 15.158 11.6022 15 12 15H20C20.3978 15 20.7794 15.158 21.0607 15.4393C21.342 15.7206 21.5 16.1022 21.5 16.5ZM21.5 21.5C21.5 21.8978 21.342 22.2794 21.0607 22.5607C20.7794 22.842 20.3978 23 20 23H12C11.6022 23 11.2206 22.842 10.9393 22.5607C10.658 22.2794 10.5 21.8978 10.5 21.5C10.5 21.1022 10.658 20.7206 10.9393 20.4393C11.2206 20.158 11.6022 20 12 20H20C20.3978 20 20.7794 20.158 21.0607 20.4393C21.342 20.7206 21.5 21.1022 21.5 21.5Z" fill="black"/>
</svg>
