<svg width="32" height="32" viewBox="0 0 32 32" fill="none" xmlns="http://www.w3.org/2000/svg">
<path d="M6 17.5H4C3.60218 17.5 3.22064 17.658 2.93934 17.9393C2.65804 18.2206 2.5 18.6022 2.5 19V26C2.5 26.3978 2.65804 26.7794 2.93934 27.0607C3.22064 27.342 3.60218 27.5 4 27.5H6C7.32608 27.5 8.59785 26.9732 9.53553 26.0355C10.4732 25.0979 11 23.8261 11 22.5C11 21.1739 10.4732 19.9021 9.53553 18.9645C8.59785 18.0268 7.32608 17.5 6 17.5ZM6 24.5H5.5V20.5H6C6.53043 20.5 7.03914 20.7107 7.41421 21.0858C7.78929 21.4609 8 21.9696 8 22.5C8 23.0304 7.78929 23.5391 7.41421 23.9142C7.03914 24.2893 6.53043 24.5 6 24.5ZM28.5375 24.025C28.6804 24.1613 28.795 24.3245 28.8747 24.5051C28.9544 24.6858 28.9977 24.8805 29.002 25.0779C29.0063 25.2753 28.9715 25.4717 28.8998 25.6556C28.828 25.8396 28.7206 26.0076 28.5837 26.15C28.1888 26.5732 27.7115 26.9112 27.1812 27.1433C26.651 27.3755 26.0789 27.4968 25.5 27.5C23.0187 27.5 21 25.2575 21 22.5C21 19.7425 23.0187 17.5 25.5 17.5C26.0791 17.5036 26.6514 17.6256 27.1817 17.8584C27.712 18.0912 28.1891 18.4299 28.5837 18.8538C28.8589 19.1412 29.0086 19.5261 29 19.924C28.9913 20.3218 28.8249 20.6998 28.5375 20.975C28.2501 21.2502 27.8651 21.3999 27.4673 21.3912C27.0695 21.3825 26.6914 21.2162 26.4163 20.9287C26.3005 20.799 26.1596 20.694 26.0021 20.6203C25.8446 20.5466 25.6738 20.5057 25.5 20.5C24.6875 20.5 24 21.4163 24 22.5C24 23.5837 24.6875 24.5 25.5 24.5C25.6738 24.4943 25.8446 24.4534 26.0021 24.3797C26.1596 24.306 26.3005 24.201 26.4163 24.0713C26.5525 23.9289 26.7154 23.8148 26.8958 23.7354C27.0761 23.656 27.2703 23.613 27.4673 23.6087C27.6643 23.6044 27.8602 23.6389 28.0438 23.7104C28.2274 23.7818 28.3952 23.8887 28.5375 24.025ZM16 17.5C13.5188 17.5 11.5 19.7425 11.5 22.5C11.5 25.2575 13.5188 27.5 16 27.5C18.4812 27.5 20.5 25.2575 20.5 22.5C20.5 19.7425 18.4812 17.5 16 17.5ZM16 24.5C15.1875 24.5 14.5 23.5837 14.5 22.5C14.5 21.4163 15.1875 20.5 16 20.5C16.8125 20.5 17.5 21.4163 17.5 22.5C17.5 23.5837 16.8125 24.5 16 24.5ZM6 15C6.39782 15 6.77936 14.842 7.06066 14.5607C7.34196 14.2794 7.5 13.8978 7.5 13.5V5.5H17V11.5C17 11.8978 17.158 12.2794 17.4393 12.5607C17.7206 12.842 18.1022 13 18.5 13H24.5V13.5C24.5 13.8978 24.658 14.2794 24.9393 14.5607C25.2206 14.842 25.6022 15 26 15C26.3978 15 26.7794 14.842 27.0607 14.5607C27.342 14.2794 27.5 13.8978 27.5 13.5V11C27.5 10.6025 27.3422 10.2212 27.0613 9.94L20.0613 2.94C19.9219 2.80052 19.7565 2.68987 19.5744 2.61437C19.3923 2.53887 19.1971 2.50001 19 2.5H7C6.33696 2.5 5.70107 2.76339 5.23223 3.23223C4.76339 3.70107 4.5 4.33696 4.5 5V13.5C4.5 13.8978 4.65804 14.2794 4.93934 14.5607C5.22064 14.842 5.60218 15 6 15ZM20 7.125L22.875 10H20V7.125Z" fill="black"/>
</svg>
