<svg width="32" height="32" viewBox="0 0 32 32" fill="none" xmlns="http://www.w3.org/2000/svg">
<path d="M5.99996 15C6.39778 15 6.77932 14.842 7.06062 14.5607C7.34193 14.2794 7.49996 13.8978 7.49996 13.5V5.5H17V11.5C17 11.8978 17.158 12.2794 17.4393 12.5607C17.7206 12.842 18.1021 13 18.5 13H24.5V13.5C24.5 13.8978 24.658 14.2794 24.9393 14.5607C25.2206 14.842 25.6021 15 26 15C26.3978 15 26.7793 14.842 27.0606 14.5607C27.3419 14.2794 27.5 13.8978 27.5 13.5V11C27.4999 10.6025 27.3421 10.2212 27.0612 9.94L20.0612 2.94C19.9219 2.80052 19.7565 2.68987 19.5744 2.61437C19.3923 2.53887 19.1971 2.50001 19 2.5H6.99996C6.33692 2.5 5.70103 2.76339 5.23219 3.23223C4.76335 3.70107 4.49996 4.33696 4.49996 5V13.5C4.49996 13.8978 4.658 14.2794 4.9393 14.5607C5.2206 14.842 5.60214 15 5.99996 15ZM22.875 10H20V7.125L22.875 10ZM10.9725 24.6C10.9243 25.0526 10.7768 25.489 10.5404 25.8779C10.304 26.2669 9.98454 26.5988 9.60496 26.85C8.85496 27.35 7.94621 27.4937 7.13746 27.4937C6.45214 27.4893 5.77027 27.3964 5.10871 27.2175C4.9158 27.1674 4.73481 27.0793 4.57631 26.9585C4.41781 26.8377 4.28499 26.6864 4.1856 26.5137C4.08621 26.3409 4.02224 26.1501 3.99745 25.9523C3.97265 25.7545 3.98751 25.5538 4.04117 25.3619C4.09483 25.1699 4.1862 24.9906 4.30996 24.8343C4.43371 24.6781 4.58736 24.5481 4.76193 24.4519C4.9365 24.3557 5.12849 24.2953 5.32668 24.2741C5.52486 24.253 5.72528 24.2716 5.91621 24.3288C6.76871 24.56 7.79121 24.53 7.96496 24.3363C7.9781 24.3081 7.98695 24.2782 7.99121 24.2475C7.74871 24.0938 7.13871 23.9175 6.75621 23.8062C6.08246 23.6112 5.38121 23.41 4.78746 23.0238C3.83496 22.4088 3.38621 21.4675 3.52496 20.375C3.57125 19.9298 3.71481 19.5001 3.94551 19.1165C4.1762 18.7329 4.48838 18.4046 4.85996 18.155C5.61871 17.6438 6.63121 17.4275 7.87246 17.5088C8.37942 17.5447 8.88221 17.6255 9.37496 17.75C9.7554 17.855 10.0791 18.1056 10.276 18.4477C10.4729 18.7897 10.527 19.1956 10.4267 19.5772C10.3264 19.9589 10.0797 20.2857 9.74011 20.4868C9.4005 20.6878 8.99535 20.7469 8.61246 20.6513C7.81871 20.4475 6.91121 20.4625 6.60371 20.61C6.92784 20.7351 7.25829 20.8432 7.59371 20.9338C8.27746 21.1313 9.05246 21.355 9.69371 21.7862C10.6662 22.4412 11.125 23.4412 10.9725 24.6ZM19.4125 19.5L16.9125 26.5C16.8084 26.7913 16.6168 27.0432 16.3639 27.2214C16.111 27.3996 15.8093 27.4952 15.5 27.4952C15.1906 27.4952 14.8889 27.3996 14.636 27.2214C14.3832 27.0432 14.1916 26.7913 14.0875 26.5L11.5875 19.5C11.511 19.3121 11.4734 19.1107 11.477 18.9079C11.4806 18.7051 11.5252 18.5051 11.6083 18.3201C11.6914 18.135 11.8111 17.9687 11.9603 17.8313C12.1095 17.6938 12.285 17.5881 12.4762 17.5204C12.6674 17.4527 12.8704 17.4245 13.0728 17.4375C13.2752 17.4505 13.4729 17.5044 13.6539 17.5959C13.8349 17.6875 13.9954 17.8148 14.1258 17.9702C14.2562 18.1256 14.3537 18.3058 14.4125 18.5L15.5 21.5375L16.5875 18.5C16.6462 18.3058 16.7437 18.1256 16.8741 17.9702C17.0045 17.8148 17.165 17.6875 17.346 17.5959C17.527 17.5044 17.7247 17.4505 17.9271 17.4375C18.1295 17.4245 18.3325 17.4527 18.5237 17.5204C18.7149 17.5881 18.8904 17.6938 19.0396 17.8313C19.1888 17.9687 19.3085 18.135 19.3916 18.3201C19.4747 18.5051 19.5194 18.7051 19.5229 18.9079C19.5265 19.1107 19.4889 19.3121 19.4125 19.5ZM28 23.5V25.1087C28.0001 25.4953 27.851 25.867 27.5837 26.1462C27.1891 26.5701 26.7119 26.9088 26.1817 27.1416C25.6514 27.3744 25.0791 27.4964 24.5 27.5C22.0187 27.5 20 25.2575 20 22.5C20 19.7425 22.0187 17.5 24.5 17.5C25.3345 17.5024 26.1491 17.755 26.8387 18.225C27.0068 18.333 27.1517 18.4735 27.2647 18.6383C27.3778 18.803 27.4568 18.9887 27.4971 19.1844C27.5374 19.3802 27.5382 19.582 27.4994 19.778C27.4607 19.974 27.3831 20.1603 27.2714 20.326C27.1596 20.4916 27.0159 20.6333 26.8486 20.7426C26.6814 20.8519 26.4939 20.9267 26.2974 20.9626C26.1008 20.9985 25.899 20.9947 25.7039 20.9516C25.5088 20.9084 25.3243 20.8267 25.1612 20.7113C24.9671 20.5758 24.7366 20.5021 24.5 20.5C23.6875 20.5 23 21.4163 23 22.5C23 23.5837 23.6875 24.5 24.5 24.5C24.6145 24.4998 24.7283 24.4821 24.8375 24.4475C24.6583 24.2276 24.5451 23.9614 24.5111 23.6798C24.4771 23.3982 24.5237 23.1127 24.6454 22.8564C24.7671 22.6002 24.959 22.3837 25.1987 22.2322C25.4385 22.0806 25.7163 22.0001 26 22H26.5C26.8978 22 27.2793 22.158 27.5606 22.4393C27.8419 22.7206 28 23.1022 28 23.5Z" fill="black"/>
</svg>
