<svg width="32" height="32" viewBox="0 0 32 32" fill="none" xmlns="http://www.w3.org/2000/svg">
<path d="M18.7938 18.7275C18.5777 18.5926 18.3309 18.515 18.0766 18.5018C17.8222 18.4887 17.5688 18.5406 17.34 18.6525L14.75 19.9212C14.5468 19.4965 14.2279 19.1378 13.8298 18.8864C13.4318 18.6349 12.9708 18.501 12.5 18.5H6C5.33696 18.5 4.70107 18.7634 4.23223 19.2322C3.76339 19.7011 3.5 20.337 3.5 21V26C3.5 26.663 3.76339 27.2989 4.23223 27.7678C4.70107 28.2366 5.33696 28.5 6 28.5H12.5C12.9858 28.4993 13.4609 28.357 13.8671 28.0906C14.2733 27.8242 14.5932 27.4452 14.7875 27L17.3025 28.3225C17.5307 28.4424 17.7859 28.5014 18.0436 28.4939C18.3012 28.4864 18.5526 28.4127 18.7735 28.2797C18.9943 28.1468 19.1772 27.9592 19.3045 27.7351C19.4317 27.5109 19.4991 27.2578 19.5 27V20C19.5 19.7454 19.4351 19.495 19.3115 19.2724C19.188 19.0497 19.0098 18.8622 18.7938 18.7275ZM12 25.5H6.5V21.5H12V25.5ZM16.5 24.5163L15 23.7288V23.1388L16.5 22.405V24.5163ZM27.0613 9.93875L20.0613 2.93875C19.9218 2.7995 19.7564 2.68908 19.5743 2.6138C19.3922 2.53851 19.197 2.49985 19 2.5H7C6.33696 2.5 5.70107 2.76339 5.23223 3.23223C4.76339 3.70107 4.5 4.33696 4.5 5V14.5C4.5 14.8978 4.65804 15.2794 4.93934 15.5607C5.22064 15.842 5.60218 16 6 16C6.39782 16 6.77936 15.842 7.06066 15.5607C7.34196 15.2794 7.5 14.8978 7.5 14.5V5.5H17V11.5C17 11.8978 17.158 12.2794 17.4393 12.5607C17.7206 12.842 18.1022 13 18.5 13H24.5V26.5H23.5C23.1022 26.5 22.7206 26.658 22.4393 26.9393C22.158 27.2206 22 27.6022 22 28C22 28.3978 22.158 28.7794 22.4393 29.0607C22.7206 29.342 23.1022 29.5 23.5 29.5H25C25.663 29.5 26.2989 29.2366 26.7678 28.7678C27.2366 28.2989 27.5 27.663 27.5 27V11C27.5002 10.803 27.4615 10.6078 27.3862 10.4257C27.3109 10.2436 27.2005 10.0782 27.0613 9.93875ZM20 7.125L22.875 10H20V7.125Z" fill="black"/>
</svg>
