<svg width="32" height="32" viewBox="0 0 32 32" fill="none" xmlns="http://www.w3.org/2000/svg">
<path d="M12.0737 15.6138C11.7996 15.5001 11.498 15.4704 11.2069 15.5282C10.9159 15.5861 10.6486 15.7289 10.4388 15.9388L7.875 18.5H5.5C5.10218 18.5 4.72064 18.658 4.43934 18.9393C4.15804 19.2206 4 19.6022 4 20V25C4 25.3978 4.15804 25.7794 4.43934 26.0607C4.72064 26.342 5.10218 26.5 5.5 26.5H7.875L10.435 29.06C10.6445 29.2712 10.9121 29.4154 11.2037 29.4742C11.4954 29.5329 11.7979 29.5036 12.0729 29.39C12.3479 29.2764 12.5828 29.0835 12.7479 28.836C12.913 28.5885 13.0007 28.2975 13 28V17C13.0001 16.7032 12.9121 16.4131 12.7472 16.1663C12.5823 15.9196 12.348 15.7273 12.0737 15.6138ZM10 24.375L9.56125 23.935C9.27909 23.6551 8.89741 23.4987 8.5 23.5H7V21.5H8.5C8.69704 21.5002 8.89218 21.4615 9.07428 21.3862C9.25637 21.3109 9.42184 21.2005 9.56125 21.0613L10 20.625V24.375ZM20 22.5C19.9993 23.4689 19.7458 24.4208 19.2647 25.2617C18.7835 26.1027 18.0912 26.8035 17.2563 27.295C17.0858 27.406 16.8946 27.4812 16.6943 27.5161C16.4939 27.5509 16.2885 27.5446 16.0906 27.4976C15.8928 27.4506 15.7065 27.3638 15.5432 27.2425C15.3799 27.1213 15.243 26.9681 15.1408 26.7923C15.0385 26.6165 14.9731 26.4217 14.9485 26.2198C14.9238 26.018 14.9405 25.8132 14.9975 25.6179C15.0545 25.4227 15.1506 25.2411 15.2799 25.0841C15.4093 24.9272 15.5692 24.7982 15.75 24.705C16.1326 24.478 16.4496 24.1554 16.6698 23.7688C16.89 23.3822 17.0058 22.9449 17.0058 22.5C17.0058 22.0551 16.89 21.6178 16.6698 21.2312C16.4496 20.8446 16.1326 20.522 15.75 20.295C15.5754 20.1981 15.4219 20.0672 15.2985 19.9101C15.1751 19.7531 15.0844 19.573 15.0316 19.3803C14.9787 19.1877 14.9649 18.9865 14.9909 18.7885C15.0168 18.5905 15.0821 18.3996 15.1828 18.2271C15.2835 18.0547 15.4177 17.9041 15.5774 17.7841C15.7371 17.6642 15.9191 17.5774 16.1129 17.5287C16.3066 17.4801 16.508 17.4706 16.7055 17.5009C16.9029 17.5312 17.0923 17.6006 17.2625 17.705C18.0963 18.1973 18.7873 18.8985 19.2674 19.7393C19.7474 20.5802 19.9999 21.5317 20 22.5ZM27.0613 9.93875L20.0613 2.93875C19.9218 2.7995 19.7564 2.68908 19.5743 2.6138C19.3922 2.53851 19.197 2.49985 19 2.5H7C6.33696 2.5 5.70107 2.76339 5.23223 3.23223C4.76339 3.70107 4.5 4.33696 4.5 5V14.5C4.5 14.8978 4.65804 15.2794 4.93934 15.5607C5.22064 15.842 5.60218 16 6 16C6.39782 16 6.77936 15.842 7.06066 15.5607C7.34196 15.2794 7.5 14.8978 7.5 14.5V5.5H17V11.5C17 11.8978 17.158 12.2794 17.4393 12.5607C17.7206 12.842 18.1022 13 18.5 13H24.5V26.5H21.5C21.1022 26.5 20.7206 26.658 20.4393 26.9393C20.158 27.2206 20 27.6022 20 28C20 28.3978 20.158 28.7794 20.4393 29.0607C20.7206 29.342 21.1022 29.5 21.5 29.5H25C25.663 29.5 26.2989 29.2366 26.7678 28.7678C27.2366 28.2989 27.5 27.663 27.5 27V11C27.5002 10.803 27.4615 10.6078 27.3862 10.4257C27.3109 10.2436 27.2005 10.0782 27.0613 9.93875ZM20 7.125L22.875 10H20V7.125Z" fill="black"/>
</svg>
