<svg width="32" height="32" viewBox="0 0 32 32" fill="none" xmlns="http://www.w3.org/2000/svg">
<path d="M6 22.5C6 23.5837 6.68625 24.5 7.5 24.5C7.6738 24.4943 7.84463 24.4534 8.00214 24.3797C8.15964 24.306 8.30053 24.201 8.41625 24.0713C8.69141 23.7838 9.06949 23.6175 9.4673 23.6088C9.86511 23.6001 10.2501 23.7498 10.5375 24.025C10.8249 24.3002 10.9913 24.6782 11 25.076C11.0086 25.4739 10.8589 25.8588 10.5837 26.1462C10.1891 26.5701 9.71198 26.9088 9.18169 27.1416C8.6514 27.3744 8.07913 27.4964 7.5 27.5C5.01875 27.5 3 25.25 3 22.5C3 19.75 5.01875 17.5 7.5 17.5C8.07913 17.5036 8.6514 17.6256 9.18169 17.8584C9.71198 18.0912 10.1891 18.4299 10.5837 18.8538C10.8589 19.1412 11.0086 19.5261 11 19.924C10.9913 20.3218 10.8249 20.6998 10.5375 20.975C10.2501 21.2502 9.86511 21.3999 9.4673 21.3912C9.06949 21.3825 8.69141 21.2162 8.41625 20.9287C8.30053 20.799 8.15964 20.694 8.00214 20.6203C7.84463 20.5466 7.6738 20.5057 7.5 20.5C6.68625 20.5 6 21.4137 6 22.5ZM18.1887 21.7862C17.5475 21.355 16.7725 21.1313 16.0888 20.9338C15.7537 20.8432 15.4237 20.7351 15.1 20.61C15.4062 20.4625 16.3137 20.4475 17.1087 20.6513C17.4935 20.7529 17.9028 20.6975 18.2467 20.4973C18.5906 20.2971 18.8409 19.9685 18.9425 19.5837C19.0441 19.199 18.9887 18.7897 18.7885 18.4458C18.5883 18.1019 18.2597 17.8516 17.875 17.75C17.3828 17.6287 16.8808 17.5509 16.375 17.5175C15.1337 17.435 14.125 17.6525 13.3625 18.1637C12.9907 18.4133 12.6784 18.7415 12.4475 19.1251C12.2166 19.5088 12.0728 19.9384 12.0262 20.3838C11.8888 21.4763 12.3363 22.4175 13.29 23.0325C13.8875 23.4187 14.585 23.62 15.2587 23.815C15.6337 23.9263 16.2512 24.1025 16.4937 24.2563C16.4902 24.2873 16.4809 24.3174 16.4662 24.345C16.2962 24.5387 15.27 24.5688 14.4175 24.3375C14.0379 24.2412 13.6356 24.2972 13.2968 24.4936C12.9579 24.6899 12.7092 25.011 12.6039 25.3882C12.4986 25.7655 12.5451 26.1689 12.7333 26.5124C12.9215 26.8558 13.2366 27.112 13.6112 27.2262C14.2717 27.4041 14.9523 27.4961 15.6362 27.5C16.445 27.5 17.3538 27.3538 18.1038 26.8563C18.4835 26.6051 18.8031 26.2733 19.0397 25.8843C19.2763 25.4954 19.4241 25.0589 19.4725 24.6063C19.625 23.4412 19.165 22.4412 18.1887 21.7838V21.7862ZM27 17.585C26.625 17.453 26.213 17.4752 25.8544 17.6467C25.4958 17.8183 25.22 18.1252 25.0875 18.5L24 21.5375L22.9125 18.5C22.8538 18.3058 22.7562 18.1256 22.6259 17.9702C22.4955 17.8148 22.3349 17.6875 22.1539 17.5959C21.973 17.5044 21.7753 17.4505 21.5728 17.4375C21.3704 17.4245 21.1675 17.4527 20.9762 17.5204C20.785 17.5881 20.6095 17.6938 20.4603 17.8313C20.3112 17.9687 20.1914 18.135 20.1084 18.3201C20.0253 18.5051 19.9806 18.7051 19.977 18.9079C19.9734 19.1107 20.011 19.3121 20.0875 19.5L22.5875 26.5C22.6916 26.7913 22.8832 27.0432 23.1361 27.2214C23.3889 27.3996 23.6907 27.4952 24 27.4952C24.3093 27.4952 24.6111 27.3996 24.8639 27.2214C25.1168 27.0432 25.3084 26.7913 25.4125 26.5L27.9125 19.5C28.0454 19.125 28.024 18.7127 27.8529 18.3535C27.6817 17.9944 27.3749 17.7179 27 17.585ZM4.5 13.5V5C4.5 4.33696 4.76339 3.70107 5.23223 3.23223C5.70107 2.76339 6.33696 2.5 7 2.5H19C19.197 2.49985 19.3922 2.53851 19.5743 2.6138C19.7564 2.68908 19.9218 2.7995 20.0613 2.93875L27.0613 9.93875C27.2005 10.0782 27.3109 10.2436 27.3862 10.4257C27.4615 10.6078 27.5002 10.803 27.5 11V13.5C27.5 13.8978 27.342 14.2794 27.0607 14.5607C26.7794 14.842 26.3978 15 26 15C25.6022 15 25.2206 14.842 24.9393 14.5607C24.658 14.2794 24.5 13.8978 24.5 13.5V13H18.5C18.1022 13 17.7206 12.842 17.4393 12.5607C17.158 12.2794 17 11.8978 17 11.5V5.5H7.5V13.5C7.5 13.8978 7.34196 14.2794 7.06066 14.5607C6.77936 14.842 6.39782 15 6 15C5.60218 15 5.22064 14.842 4.93934 14.5607C4.65804 14.2794 4.5 13.8978 4.5 13.5ZM20 10H22.875L20 7.125V10Z" fill="black"/>
</svg>
