<svg width="32" height="32" viewBox="0 0 32 32" fill="none" xmlns="http://www.w3.org/2000/svg">
<path d="M14.25 18.1675C14.1132 17.9612 13.9275 17.792 13.7094 17.675C13.4913 17.5579 13.2476 17.4967 13 17.4967C12.7525 17.4967 12.5088 17.5579 12.2907 17.675C12.0726 17.792 11.8869 17.9612 11.75 18.1675L9.87504 20.9775L9.03754 19.7162C8.89932 19.5093 8.71176 19.3399 8.49178 19.2235C8.2718 19.1071 8.02631 19.0472 7.77743 19.0494C7.52855 19.0515 7.28411 19.1155 7.06613 19.2356C6.84815 19.3557 6.66349 19.5282 6.52879 19.7375L1.73879 27.1887C1.59312 27.4153 1.51114 27.6769 1.50146 27.9461C1.49178 28.2153 1.55476 28.4821 1.68378 28.7185C1.81281 28.955 2.00311 29.1523 2.23472 29.2898C2.46633 29.4273 2.73069 29.4999 3.00004 29.5H19C19.2718 29.5004 19.5385 29.427 19.7718 29.2876C20.005 29.1482 20.196 28.948 20.3244 28.7085C20.4527 28.469 20.5136 28.1991 20.5005 27.9277C20.4874 27.6563 20.4009 27.3935 20.25 27.1675L14.25 18.1675ZM5.75004 26.5L7.81254 23.2875L8.63129 24.5138C8.76812 24.72 8.95387 24.8892 9.17198 25.0063C9.39008 25.1233 9.63376 25.1846 9.88129 25.1846C10.1288 25.1846 10.3725 25.1233 10.5906 25.0063C10.8087 24.8892 10.9945 24.72 11.1313 24.5138L13.0063 21.7038L16.1975 26.5H5.75004ZM27.0613 9.93875L20.0613 2.93875C19.9219 2.7995 19.7564 2.68908 19.5743 2.6138C19.3922 2.53851 19.1971 2.49985 19 2.5H7.00004C6.337 2.5 5.70112 2.76339 5.23228 3.23223C4.76344 3.70107 4.50004 4.33696 4.50004 5V15.5C4.50004 15.8978 4.65808 16.2794 4.93938 16.5607C5.22069 16.842 5.60222 17 6.00004 17C6.39787 17 6.7794 16.842 7.0607 16.5607C7.34201 16.2794 7.50004 15.8978 7.50004 15.5V5.5H17V11.5C17 11.8978 17.1581 12.2794 17.4394 12.5607C17.7207 12.842 18.1022 13 18.5 13H24.5V26.5C24.1022 26.5 23.7207 26.658 23.4394 26.9393C23.1581 27.2206 23 27.6022 23 28C23 28.3978 23.1581 28.7794 23.4394 29.0607C23.7207 29.342 24.1022 29.5 24.5 29.5H25C25.6631 29.5 26.299 29.2366 26.7678 28.7678C27.2367 28.2989 27.5 27.663 27.5 27V11C27.5002 10.803 27.4615 10.6078 27.3862 10.4257C27.311 10.2436 27.2005 10.0782 27.0613 9.93875ZM20 7.125L22.875 10H20V7.125Z" fill="black"/>
</svg>
