<svg width="32" height="32" viewBox="0 0 32 32" fill="none" xmlns="http://www.w3.org/2000/svg">
<path d="M18.9725 24.6C18.9241 25.0527 18.7763 25.4891 18.5397 25.8781C18.3031 26.267 17.9835 26.5989 17.6038 26.85C16.8538 27.35 15.945 27.4937 15.1375 27.4937C14.4522 27.4893 13.7703 27.3964 13.1088 27.2175C12.9158 27.1674 12.7348 27.0793 12.5763 26.9585C12.4178 26.8377 12.285 26.6864 12.1856 26.5137C12.0862 26.3409 12.0223 26.1501 11.9975 25.9523C11.9727 25.7545 11.9876 25.5538 12.0412 25.3619C12.0949 25.1699 12.1862 24.9906 12.31 24.8343C12.4337 24.6781 12.5874 24.5481 12.762 24.4519C12.9365 24.3557 13.1285 24.2953 13.3267 24.2741C13.5249 24.253 13.7253 24.2716 13.9163 24.3288C14.7675 24.56 15.7913 24.53 15.965 24.3363C15.9781 24.3081 15.987 24.2782 15.9913 24.2475C15.7487 24.0938 15.1375 23.9175 14.7563 23.8062C14.0825 23.6112 13.3813 23.41 12.7875 23.0238C11.8338 22.4088 11.3863 21.4675 11.5238 20.375C11.5703 19.9297 11.7141 19.5 11.945 19.1164C12.1759 18.7328 12.4882 18.4046 12.86 18.155C13.6175 17.6438 14.6313 17.4263 15.8725 17.5088C16.3795 17.5447 16.8823 17.6255 17.375 17.75C17.7554 17.855 18.0792 18.1056 18.2761 18.4477C18.4729 18.7897 18.5271 19.1956 18.4268 19.5772C18.3265 19.9589 18.0798 20.2857 17.7401 20.4868C17.4005 20.6878 16.9954 20.7469 16.6125 20.6513C15.8175 20.4475 14.91 20.4625 14.6038 20.61C14.9275 20.7351 15.2575 20.8432 15.5925 20.9338C16.2762 21.1313 17.0525 21.355 17.6925 21.7862C18.6662 22.4412 19.125 23.4412 18.9725 24.6ZM8.5 17.5C8.10218 17.5 7.72064 17.658 7.43934 17.9393C7.15804 18.2206 7 18.6022 7 19V23.75C7 23.9489 6.92098 24.1397 6.78033 24.2803C6.63968 24.421 6.44891 24.5 6.25 24.5C6.05109 24.5 5.86032 24.421 5.71967 24.2803C5.57902 24.1397 5.5 23.9489 5.5 23.75C5.5 23.3522 5.34196 22.9706 5.06066 22.6893C4.77936 22.408 4.39782 22.25 4 22.25C3.60218 22.25 3.22064 22.408 2.93934 22.6893C2.65804 22.9706 2.5 23.3522 2.5 23.75C2.5 24.7446 2.89509 25.6984 3.59835 26.4017C4.30161 27.1049 5.25544 27.5 6.25 27.5C7.24456 27.5 8.19839 27.1049 8.90165 26.4017C9.60491 25.6984 10 24.7446 10 23.75V19C10 18.6022 9.84196 18.2206 9.56066 17.9393C9.27936 17.658 8.89782 17.5 8.5 17.5ZM25.8438 22.5L27.7188 19.875C27.9508 19.5513 28.0448 19.1486 27.98 18.7556C27.9151 18.3626 27.6969 18.0114 27.3731 17.7794C27.0494 17.5473 26.6467 17.4534 26.2537 17.5182C25.8607 17.583 25.5096 17.8013 25.2775 18.125L24 19.9175L22.72 18.125C22.4879 17.8013 22.1368 17.583 21.7438 17.5182C21.3508 17.4534 20.9481 17.5473 20.6244 17.7794C20.3006 18.0114 20.0824 18.3626 20.0175 18.7556C19.9527 19.1486 20.0467 19.5513 20.2787 19.875L22.1537 22.5L20.2787 25.125C20.1638 25.2853 20.0816 25.4667 20.0368 25.6587C19.992 25.8508 19.9854 26.0498 20.0175 26.2444C20.0496 26.439 20.1197 26.6254 20.2239 26.7929C20.328 26.9604 20.4641 27.1057 20.6244 27.2206C20.7847 27.3355 20.966 27.4177 21.1581 27.4626C21.3502 27.5074 21.5492 27.5139 21.7438 27.4818C21.9384 27.4497 22.1247 27.3796 22.2922 27.2755C22.4597 27.1714 22.6051 27.0353 22.72 26.875L24 25.0775L25.2787 26.875C25.5108 27.1987 25.862 27.417 26.255 27.4818C26.648 27.5466 27.0506 27.4527 27.3744 27.2206C27.6981 26.9886 27.9164 26.6374 27.9812 26.2444C28.046 25.8514 27.9521 25.4487 27.72 25.125L25.8438 22.5ZM4.5 13.5V5C4.5 4.33696 4.76339 3.70107 5.23223 3.23223C5.70107 2.76339 6.33696 2.5 7 2.5H19C19.197 2.49985 19.3922 2.53851 19.5743 2.6138C19.7564 2.68908 19.9218 2.7995 20.0613 2.93875L27.0613 9.93875C27.2005 10.0782 27.3109 10.2436 27.3862 10.4257C27.4615 10.6078 27.5002 10.803 27.5 11V13.5C27.5 13.8978 27.342 14.2794 27.0607 14.5607C26.7794 14.842 26.3978 15 26 15C25.6022 15 25.2206 14.842 24.9393 14.5607C24.658 14.2794 24.5 13.8978 24.5 13.5V13H18.5C18.1022 13 17.7206 12.842 17.4393 12.5607C17.158 12.2794 17 11.8978 17 11.5V5.5H7.5V13.5C7.5 13.8978 7.34196 14.2794 7.06066 14.5607C6.77936 14.842 6.39782 15 6 15C5.60218 15 5.22064 14.842 4.93934 14.5607C4.65804 14.2794 4.5 13.8978 4.5 13.5ZM20 10H22.875L20 7.125V10Z" fill="black"/>
</svg>
