<svg width="32" height="32" viewBox="0 0 32 32" fill="none" xmlns="http://www.w3.org/2000/svg">
<path d="M6 22.5C6 23.5837 6.6875 24.5 7.5 24.5C7.6738 24.4943 7.84463 24.4534 8.00214 24.3797C8.15964 24.306 8.30053 24.201 8.41625 24.0713C8.69141 23.7838 9.06949 23.6175 9.4673 23.6088C9.86511 23.6001 10.2501 23.7498 10.5375 24.025C10.8249 24.3002 10.9913 24.6782 11 25.076C11.0086 25.4739 10.8589 25.8588 10.5837 26.1462C10.1891 26.5701 9.71198 26.9088 9.18169 27.1416C8.6514 27.3744 8.07913 27.4964 7.5 27.5C5.01875 27.5 3 25.25 3 22.5C3 19.75 5.01875 17.5 7.5 17.5C8.07913 17.5036 8.6514 17.6256 9.18169 17.8584C9.71198 18.0912 10.1891 18.4299 10.5837 18.8538C10.8589 19.1412 11.0086 19.5261 11 19.924C10.9913 20.3218 10.8249 20.6998 10.5375 20.975C10.2501 21.2502 9.86511 21.3999 9.4673 21.3912C9.06949 21.3825 8.69141 21.2162 8.41625 20.9287C8.30053 20.799 8.15964 20.694 8.00214 20.6203C7.84463 20.5466 7.6738 20.5057 7.5 20.5C6.6875 20.5 6 21.4137 6 22.5ZM18.1887 21.7862C17.5487 21.355 16.7738 21.1313 16.0888 20.9338C15.7537 20.8432 15.4237 20.7351 15.1 20.61C15.4062 20.4625 16.3137 20.4475 17.1087 20.6513C17.4935 20.7529 17.9028 20.6975 18.2467 20.4973C18.5906 20.2971 18.8409 19.9685 18.9425 19.5837C19.0441 19.199 18.9887 18.7897 18.7885 18.4458C18.5883 18.1019 18.2597 17.8516 17.875 17.75C17.3828 17.6286 16.8809 17.5508 16.375 17.5175C15.1337 17.435 14.125 17.6525 13.3625 18.1637C12.9907 18.4133 12.6784 18.7415 12.4475 19.1251C12.2166 19.5088 12.0728 19.9384 12.0262 20.3838C11.8888 21.4763 12.3375 22.4175 13.29 23.0325C13.8875 23.4187 14.585 23.62 15.2587 23.815C15.6337 23.9263 16.2512 24.1025 16.4937 24.2563C16.4895 24.287 16.4806 24.3169 16.4675 24.345C16.2963 24.5387 15.27 24.5688 14.4187 24.3375C14.2278 24.2803 14.0274 24.2617 13.8292 24.2829C13.631 24.304 13.439 24.3645 13.2645 24.4606C13.0899 24.5568 12.9362 24.6868 12.8125 24.8431C12.6887 24.9993 12.5974 25.1786 12.5437 25.3706C12.4901 25.5626 12.4752 25.7633 12.5 25.961C12.5248 26.1588 12.5887 26.3496 12.6881 26.5224C12.7875 26.6952 12.9203 26.8464 13.0788 26.9672C13.2373 27.0881 13.4183 27.1761 13.6112 27.2262C14.2721 27.4041 14.9531 27.4961 15.6375 27.5C16.445 27.5 17.3538 27.3538 18.1038 26.8563C18.4835 26.6051 18.8031 26.2733 19.0397 25.8843C19.2763 25.4954 19.4241 25.0589 19.4725 24.6063C19.625 23.4412 19.1663 22.4412 18.1887 21.7838V21.7862ZM26.6887 21.7862C26.0487 21.355 25.2738 21.1313 24.5888 20.9338C24.2537 20.8432 23.9237 20.7351 23.6 20.61C23.9062 20.4625 24.8137 20.4475 25.6087 20.6513C25.9935 20.7529 26.4028 20.6975 26.7467 20.4973C27.0906 20.2971 27.3409 19.9685 27.4425 19.5837C27.5441 19.199 27.4887 18.7897 27.2885 18.4458C27.0883 18.1019 26.7597 17.8516 26.375 17.75C25.8828 17.6286 25.3809 17.5508 24.875 17.5175C23.6338 17.435 22.625 17.6525 21.8625 18.1637C21.4907 18.4133 21.1784 18.7415 20.9475 19.1251C20.7166 19.5088 20.5728 19.9384 20.5263 20.3838C20.3888 21.4763 20.8375 22.4175 21.79 23.0325C22.3875 23.4187 23.085 23.62 23.7588 23.815C24.1338 23.9263 24.7512 24.1025 24.9937 24.2563C24.9895 24.287 24.9806 24.3169 24.9675 24.345C24.7963 24.5387 23.77 24.5688 22.9188 24.3375C22.7278 24.2803 22.5274 24.2617 22.3292 24.2829C22.131 24.304 21.939 24.3645 21.7645 24.4606C21.5899 24.5568 21.4362 24.6868 21.3125 24.8431C21.1887 24.9993 21.0974 25.1786 21.0437 25.3706C20.9901 25.5626 20.9752 25.7633 21 25.961C21.0248 26.1588 21.0887 26.3496 21.1881 26.5224C21.2875 26.6952 21.4204 26.8464 21.5788 26.9672C21.7373 27.0881 21.9183 27.1761 22.1112 27.2262C22.7721 27.4041 23.4531 27.4961 24.1375 27.5C24.945 27.5 25.8538 27.3538 26.6038 26.8563C26.9835 26.6051 27.3031 26.2733 27.5397 25.8843C27.7763 25.4954 27.9241 25.0589 27.9725 24.6063C28.125 23.4412 27.6663 22.4412 26.6887 21.7838V21.7862ZM4.5 13.5V5C4.5 4.33696 4.76339 3.70107 5.23223 3.23223C5.70107 2.76339 6.33696 2.5 7 2.5H19C19.197 2.49985 19.3922 2.53851 19.5743 2.6138C19.7564 2.68908 19.9218 2.7995 20.0613 2.93875L27.0613 9.93875C27.2005 10.0782 27.3109 10.2436 27.3862 10.4257C27.4615 10.6078 27.5002 10.803 27.5 11V13.5C27.5 13.8978 27.342 14.2794 27.0607 14.5607C26.7794 14.842 26.3978 15 26 15C25.6022 15 25.2206 14.842 24.9393 14.5607C24.658 14.2794 24.5 13.8978 24.5 13.5V13H18.5C18.1022 13 17.7206 12.842 17.4393 12.5607C17.158 12.2794 17 11.8978 17 11.5V5.5H7.5V13.5C7.5 13.8978 7.34196 14.2794 7.06066 14.5607C6.77936 14.842 6.39782 15 6 15C5.60218 15 5.22064 14.842 4.93934 14.5607C4.65804 14.2794 4.5 13.8978 4.5 13.5ZM20 10H22.875L20 7.125V10Z" fill="black"/>
</svg>
