<svg width="32" height="32" viewBox="0 0 32 32" fill="none" xmlns="http://www.w3.org/2000/svg">
<path d="M27.0613 9.93875L20.0613 2.93875C19.9218 2.7995 19.7564 2.68908 19.5743 2.6138C19.3922 2.53851 19.197 2.49985 19 2.5H7C6.33696 2.5 5.70107 2.76339 5.23223 3.23223C4.76339 3.70107 4.5 4.33696 4.5 5V27C4.5 27.663 4.76339 28.2989 5.23223 28.7678C5.70107 29.2366 6.33696 29.5 7 29.5H25C25.663 29.5 26.2989 29.2366 26.7678 28.7678C27.2366 28.2989 27.5 27.663 27.5 27V11C27.5002 10.803 27.4615 10.6078 27.3862 10.4257C27.3109 10.2436 27.2005 10.0782 27.0613 9.93875ZM20 7.125L22.875 10H20V7.125ZM7.5 26.5V5.5H17V11.5C17 11.8978 17.158 12.2794 17.4393 12.5607C17.7206 12.842 18.1022 13 18.5 13H24.5V26.5H7.5ZM20.5 19C20.5 19.3978 20.342 19.7794 20.0607 20.0607C19.7794 20.342 19.3978 20.5 19 20.5H13C12.6022 20.5 12.2206 20.342 11.9393 20.0607C11.658 19.7794 11.5 19.3978 11.5 19C11.5 18.6022 11.658 18.2206 11.9393 17.9393C12.2206 17.658 12.6022 17.5 13 17.5H19C19.3978 17.5 19.7794 17.658 20.0607 17.9393C20.342 18.2206 20.5 18.6022 20.5 19Z" fill="black"/>
</svg>
