<svg width="32" height="32" viewBox="0 0 32 32" fill="none" xmlns="http://www.w3.org/2000/svg">
<path d="M27.5613 7.43875L22.5613 2.43875C22.4218 2.2995 22.2564 2.18908 22.0743 2.1138C21.8922 2.03851 21.697 1.99985 21.5 2H11.5C10.837 2 10.2011 2.26339 9.73223 2.73223C9.26339 3.20107 9 3.83696 9 4.5V7H7C6.33696 7 5.70107 7.26339 5.23223 7.73223C4.76339 8.20107 4.5 8.83696 4.5 9.5V27C4.5 27.663 4.76339 28.2989 5.23223 28.7678C5.70107 29.2366 6.33696 29.5 7 29.5H20.5C21.163 29.5 21.7989 29.2366 22.2678 28.7678C22.7366 28.2989 23 27.663 23 27V24.5H25.5C26.163 24.5 26.7989 24.2366 27.2678 23.7678C27.7366 23.2989 28 22.663 28 22V8.5C28.0002 8.30296 27.9615 8.10782 27.8862 7.92573C27.8109 7.74363 27.7005 7.57816 27.5613 7.43875ZM20 26.5H7.5V10H15.875L20 14.125V26.5ZM25 21.5H23V13.5C23.0002 13.303 22.9615 13.1078 22.8862 12.9257C22.8109 12.7436 22.7005 12.5782 22.5613 12.4388L17.5613 7.43875C17.4218 7.2995 17.2564 7.18908 17.0743 7.1138C16.8922 7.03851 16.697 6.99985 16.5 7H12V5H20.875L25 9.125V21.5ZM18 18C18 18.3978 17.842 18.7794 17.5607 19.0607C17.2794 19.342 16.8978 19.5 16.5 19.5H11C10.6022 19.5 10.2206 19.342 9.93934 19.0607C9.65804 18.7794 9.5 18.3978 9.5 18C9.5 17.6022 9.65804 17.2206 9.93934 16.9393C10.2206 16.658 10.6022 16.5 11 16.5H16.5C16.8978 16.5 17.2794 16.658 17.5607 16.9393C17.842 17.2206 18 17.6022 18 18ZM18 23C18 23.3978 17.842 23.7794 17.5607 24.0607C17.2794 24.342 16.8978 24.5 16.5 24.5H11C10.6022 24.5 10.2206 24.342 9.93934 24.0607C9.65804 23.7794 9.5 23.3978 9.5 23C9.5 22.6022 9.65804 22.2206 9.93934 21.9393C10.2206 21.658 10.6022 21.5 11 21.5H16.5C16.8978 21.5 17.2794 21.658 17.5607 21.9393C17.842 22.2206 18 22.6022 18 23Z" fill="black"/>
</svg>
