<svg width="32" height="32" viewBox="0 0 32 32" fill="none" xmlns="http://www.w3.org/2000/svg">
<path d="M27.72 25.125C27.8349 25.2853 27.9171 25.4667 27.9619 25.6587C28.0068 25.8508 28.0133 26.0498 27.9812 26.2444C27.9491 26.439 27.879 26.6254 27.7749 26.7929C27.6708 26.9604 27.5347 27.1057 27.3744 27.2206C27.2141 27.3355 27.0327 27.4177 26.8407 27.4626C26.6486 27.5074 26.4496 27.5139 26.255 27.4818C26.0604 27.4497 25.874 27.3796 25.7065 27.2755C25.539 27.1714 25.3937 27.0353 25.2787 26.875L24 25.0775L22.72 26.875C22.6051 27.0353 22.4597 27.1714 22.2922 27.2755C22.1247 27.3796 21.9384 27.4497 21.7438 27.4818C21.5492 27.5139 21.3502 27.5074 21.1581 27.4626C20.966 27.4177 20.7847 27.3355 20.6244 27.2206C20.4641 27.1057 20.328 26.9604 20.2239 26.7929C20.1197 26.6254 20.0496 26.439 20.0175 26.2444C19.9854 26.0498 19.992 25.8508 20.0368 25.6587C20.0816 25.4667 20.1638 25.2853 20.2787 25.125L22.1537 22.5L20.2787 19.875C20.0467 19.5513 19.9527 19.1486 20.0175 18.7556C20.0824 18.3626 20.3006 18.0114 20.6244 17.7794C20.9481 17.5473 21.3508 17.4534 21.7438 17.5182C22.1368 17.583 22.4879 17.8013 22.72 18.125L24 19.9175L25.2787 18.125C25.5108 17.8013 25.862 17.583 26.255 17.5182C26.648 17.4534 27.0506 17.5473 27.3744 17.7794C27.6981 18.0114 27.9164 18.3626 27.9812 18.7556C28.046 19.1486 27.9521 19.5513 27.72 19.875L25.845 22.5L27.72 25.125ZM17.6887 21.7838C17.0487 21.3525 16.2725 21.1287 15.5887 20.9312C15.2537 20.8407 14.9237 20.7326 14.6 20.6075C14.9062 20.46 15.8137 20.445 16.6087 20.6488C16.9881 20.7355 17.3863 20.6715 17.7193 20.4702C18.0523 20.2689 18.294 19.9461 18.3935 19.5699C18.4929 19.1937 18.4423 18.7935 18.2522 18.454C18.0622 18.1144 17.7477 17.862 17.375 17.75C16.8828 17.6286 16.3809 17.5508 15.875 17.5175C14.6337 17.435 13.625 17.6525 12.8625 18.1637C12.4907 18.4133 12.1784 18.7415 11.9475 19.1251C11.7166 19.5088 11.5728 19.9384 11.5262 20.3838C11.3888 21.4763 11.8363 22.4175 12.79 23.0325C13.3875 23.4187 14.085 23.62 14.7587 23.815C15.1337 23.9263 15.7512 24.1025 15.9937 24.2563C15.9895 24.287 15.9806 24.3169 15.9675 24.345C15.7962 24.5387 14.77 24.5688 13.9187 24.3375C13.7278 24.2803 13.5274 24.2617 13.3292 24.2829C13.131 24.304 12.939 24.3645 12.7645 24.4606C12.5899 24.5568 12.4362 24.6868 12.3125 24.8431C12.1887 24.9993 12.0974 25.1786 12.0437 25.3706C11.9901 25.5626 11.9752 25.7633 12 25.961C12.0248 26.1588 12.0887 26.3496 12.1881 26.5224C12.2875 26.6952 12.4203 26.8464 12.5788 26.9672C12.7373 27.0881 12.9183 27.1761 13.1112 27.2262C13.7721 27.4041 14.4531 27.4961 15.1375 27.5C15.945 27.5 16.8538 27.3538 17.6038 26.8563C17.9835 26.6051 18.3031 26.2733 18.5397 25.8843C18.7763 25.4954 18.9241 25.0589 18.9725 24.6063C19.125 23.4412 18.6662 22.4412 17.6887 21.7838ZM9.5 17.5H4.5C4.10218 17.5 3.72064 17.658 3.43934 17.9393C3.15804 18.2206 3 18.6022 3 19C3 19.3978 3.15804 19.7794 3.43934 20.0607C3.72064 20.342 4.10218 20.5 4.5 20.5H5.5V26C5.5 26.3978 5.65804 26.7794 5.93934 27.0607C6.22064 27.342 6.60218 27.5 7 27.5C7.39782 27.5 7.77936 27.342 8.06066 27.0607C8.34196 26.7794 8.5 26.3978 8.5 26V20.5H9.5C9.89782 20.5 10.2794 20.342 10.5607 20.0607C10.842 19.7794 11 19.3978 11 19C11 18.6022 10.842 18.2206 10.5607 17.9393C10.2794 17.658 9.89782 17.5 9.5 17.5ZM4.5 13.5V5C4.5 4.33696 4.76339 3.70107 5.23223 3.23223C5.70107 2.76339 6.33696 2.5 7 2.5H19C19.197 2.49985 19.3922 2.53851 19.5743 2.6138C19.7564 2.68908 19.9218 2.7995 20.0613 2.93875L27.0613 9.93875C27.2005 10.0782 27.3109 10.2436 27.3862 10.4257C27.4615 10.6078 27.5002 10.803 27.5 11V13.5C27.5 13.8978 27.342 14.2794 27.0607 14.5607C26.7794 14.842 26.3978 15 26 15C25.6022 15 25.2206 14.842 24.9393 14.5607C24.658 14.2794 24.5 13.8978 24.5 13.5V13H18.5C18.1022 13 17.7206 12.842 17.4393 12.5607C17.158 12.2794 17 11.8978 17 11.5V5.5H7.5V13.5C7.5 13.8978 7.34196 14.2794 7.06066 14.5607C6.77936 14.842 6.39782 15 6 15C5.60218 15 5.22064 14.842 4.93934 14.5607C4.65804 14.2794 4.5 13.8978 4.5 13.5ZM20 10H22.875L20 7.125V10Z" fill="black"/>
</svg>
