<svg width="32" height="32" viewBox="0 0 32 32" fill="none" xmlns="http://www.w3.org/2000/svg">
<path d="M23.5 17.5H21.5C21.1022 17.5 20.7206 17.658 20.4393 17.9393C20.158 18.2206 20 18.6022 20 19V26C20 26.3978 20.158 26.7794 20.4393 27.0607C20.7206 27.342 21.1022 27.5 21.5 27.5C21.8978 27.5 22.2794 27.342 22.5607 27.0607C22.842 26.7794 23 26.3978 23 26V25.5H23.5C24.5609 25.5 25.5783 25.0786 26.3284 24.3284C27.0786 23.5783 27.5 22.5609 27.5 21.5C27.5 20.4391 27.0786 19.4217 26.3284 18.6716C25.5783 17.9214 24.5609 17.5 23.5 17.5ZM23.5 22.5H23V20.5H23.5C23.7652 20.5 24.0196 20.6054 24.2071 20.7929C24.3946 20.9804 24.5 21.2348 24.5 21.5C24.5 21.7652 24.3946 22.0196 24.2071 22.2071C24.0196 22.3946 23.7652 22.5 23.5 22.5ZM17.5 19V26C17.5 26.3978 17.342 26.7794 17.0607 27.0607C16.7794 27.342 16.3978 27.5 16 27.5C15.6022 27.5 15.2206 27.342 14.9393 27.0607C14.658 26.7794 14.5 26.3978 14.5 26V19C14.5 18.6022 14.658 18.2206 14.9393 17.9393C15.2206 17.658 15.6022 17.5 16 17.5C16.3978 17.5 16.7794 17.658 17.0607 17.9393C17.342 18.2206 17.5 18.6022 17.5 19ZM12 26C12 26.3978 11.842 26.7794 11.5607 27.0607C11.2794 27.342 10.8978 27.5 10.5 27.5H6.5C6.23732 27.5 5.97924 27.431 5.75161 27.2999C5.52397 27.1688 5.33474 26.9802 5.20286 26.7531C5.07098 26.5259 5.00108 26.2681 5.00014 26.0054C4.9992 25.7427 5.06725 25.4844 5.1975 25.2563L7.915 20.5H6.5C6.10218 20.5 5.72064 20.342 5.43934 20.0607C5.15804 19.7794 5 19.3978 5 19C5 18.6022 5.15804 18.2206 5.43934 17.9393C5.72064 17.658 6.10218 17.5 6.5 17.5H10.5C10.7636 17.4994 11.0227 17.5683 11.2512 17.6997C11.4797 17.8311 11.6696 18.0204 11.8016 18.2485C11.9337 18.4766 12.0033 18.7355 12.0035 18.9991C12.0036 19.2627 11.9343 19.5217 11.8025 19.75L9.085 24.5H10.5C10.8978 24.5 11.2794 24.658 11.5607 24.9393C11.842 25.2206 12 25.6022 12 26ZM27.0613 9.94L20.0613 2.94C19.9219 2.80052 19.7565 2.68987 19.5744 2.61437C19.3923 2.53887 19.1971 2.50001 19 2.5H7C6.33696 2.5 5.70107 2.76339 5.23223 3.23223C4.76339 3.70107 4.5 4.33696 4.5 5V13.5C4.5 13.8978 4.65804 14.2794 4.93934 14.5607C5.22064 14.842 5.60218 15 6 15C6.39782 15 6.77936 14.842 7.06066 14.5607C7.34196 14.2794 7.5 13.8978 7.5 13.5V5.5H17V11.5C17 11.8978 17.158 12.2794 17.4393 12.5607C17.7206 12.842 18.1022 13 18.5 13H24.5V13.5C24.5 13.8978 24.658 14.2794 24.9393 14.5607C25.2206 14.842 25.6022 15 26 15C26.3978 15 26.7794 14.842 27.0607 14.5607C27.342 14.2794 27.5 13.8978 27.5 13.5V11C27.5 10.6025 27.3422 10.2212 27.0613 9.94ZM20 10V7.125L22.875 10H20Z" fill="black"/>
</svg>
