<svg width="32" height="32" viewBox="0 0 32 32" fill="none" xmlns="http://www.w3.org/2000/svg">
<path d="M15 17.5H13C12.6022 17.5 12.2206 17.658 11.9393 17.9393C11.658 18.2206 11.5 18.6022 11.5 19V26C11.5 26.3978 11.658 26.7794 11.9393 27.0607C12.2206 27.342 12.6022 27.5 13 27.5C13.3978 27.5 13.7794 27.342 14.0607 27.0607C14.342 26.7794 14.5 26.3978 14.5 26V25.5H15C16.0609 25.5 17.0783 25.0786 17.8284 24.3284C18.5786 23.5783 19 22.5609 19 21.5C19 20.4391 18.5786 19.4217 17.8284 18.6716C17.0783 17.9214 16.0609 17.5 15 17.5ZM15 22.5H14.5V20.5H15C15.2652 20.5 15.5196 20.6054 15.7071 20.7929C15.8946 20.9804 16 21.2348 16 21.5C16 21.7652 15.8946 22.0196 15.7071 22.2071C15.5196 22.3946 15.2652 22.5 15 22.5ZM28 25.1087C28.0001 25.4953 27.851 25.867 27.5837 26.1462C27.1891 26.5701 26.712 26.9088 26.1817 27.1416C25.6514 27.3744 25.0791 27.4964 24.5 27.5C22.0187 27.5 20 25.2575 20 22.5C20 19.7425 22.0187 17.5 24.5 17.5C25.3345 17.5024 26.1492 17.755 26.8388 18.225C27.0069 18.333 27.1517 18.4735 27.2648 18.6383C27.3778 18.803 27.4568 18.9887 27.4971 19.1844C27.5374 19.3802 27.5382 19.582 27.4995 19.778C27.4607 19.974 27.3832 20.1603 27.2714 20.326C27.1596 20.4916 27.0159 20.6333 26.8487 20.7426C26.6814 20.8519 26.494 20.9267 26.2974 20.9626C26.1008 20.9985 25.8991 20.9947 25.704 20.9516C25.5089 20.9084 25.3243 20.8267 25.1612 20.7113C24.9672 20.5758 24.7367 20.5021 24.5 20.5C23.6875 20.5 23 21.4163 23 22.5C23 23.5837 23.6875 24.5 24.5 24.5C24.6145 24.4998 24.7283 24.4821 24.8375 24.4475C24.6583 24.2276 24.5452 23.9614 24.5112 23.6798C24.4772 23.3982 24.5237 23.1127 24.6454 22.8564C24.7671 22.6002 24.959 22.3837 25.1988 22.2322C25.4385 22.0806 25.7163 22.0001 26 22H26.5C26.8978 22 27.2794 22.158 27.5607 22.4393C27.842 22.7206 28 23.1022 28 23.5V25.1087ZM10 19V23.75C10 24.7446 9.60491 25.6984 8.90165 26.4017C8.19839 27.1049 7.24456 27.5 6.25 27.5C5.25544 27.5 4.30161 27.1049 3.59835 26.4017C2.89509 25.6984 2.5 24.7446 2.5 23.75C2.5 23.3522 2.65804 22.9706 2.93934 22.6893C3.22064 22.408 3.60218 22.25 4 22.25C4.39782 22.25 4.77936 22.408 5.06066 22.6893C5.34196 22.9706 5.5 23.3522 5.5 23.75C5.5 23.9489 5.57902 24.1397 5.71967 24.2803C5.86032 24.421 6.05109 24.5 6.25 24.5C6.44891 24.5 6.63968 24.421 6.78033 24.2803C6.92098 24.1397 7 23.9489 7 23.75V19C7 18.6022 7.15804 18.2206 7.43934 17.9393C7.72064 17.658 8.10218 17.5 8.5 17.5C8.89782 17.5 9.27936 17.658 9.56066 17.9393C9.84196 18.2206 10 18.6022 10 19ZM6 15C6.39782 15 6.77936 14.842 7.06066 14.5607C7.34196 14.2794 7.5 13.8978 7.5 13.5V5.5H17V11.5C17 11.8978 17.158 12.2794 17.4393 12.5607C17.7206 12.842 18.1022 13 18.5 13H24.5V13.5C24.5 13.8978 24.658 14.2794 24.9393 14.5607C25.2206 14.842 25.6022 15 26 15C26.3978 15 26.7794 14.842 27.0607 14.5607C27.342 14.2794 27.5 13.8978 27.5 13.5V11C27.5 10.6025 27.3422 10.2212 27.0613 9.94L20.0613 2.94C19.9219 2.80052 19.7565 2.68987 19.5744 2.61437C19.3923 2.53887 19.1971 2.50001 19 2.5H7C6.33696 2.5 5.70107 2.76339 5.23223 3.23223C4.76339 3.70107 4.5 4.33696 4.5 5V13.5C4.5 13.8978 4.65804 14.2794 4.93934 14.5607C5.22064 14.842 5.60218 15 6 15ZM20 7.125L22.875 10H20V7.125Z" fill="black"/>
</svg>
