<svg width="32" height="32" viewBox="0 0 32 32" fill="none" xmlns="http://www.w3.org/2000/svg">
<path d="M15 21H14.5V20.5C14.5 19.4391 14.0786 18.4217 13.3284 17.6716C12.5783 16.9214 11.5609 16.5 10.5 16.5C9.43913 16.5 8.42172 16.9214 7.67157 17.6716C6.92143 18.4217 6.5 19.4391 6.5 20.5V21H6C5.60218 21 5.22064 21.158 4.93934 21.4393C4.65804 21.7206 4.5 22.1022 4.5 22.5V28C4.5 28.3978 4.65804 28.7794 4.93934 29.0607C5.22064 29.342 5.60218 29.5 6 29.5H15C15.3978 29.5 15.7794 29.342 16.0607 29.0607C16.342 28.7794 16.5 28.3978 16.5 28V22.5C16.5 22.1022 16.342 21.7206 16.0607 21.4393C15.7794 21.158 15.3978 21 15 21ZM9.5 20.5C9.5 20.2348 9.60536 19.9804 9.79289 19.7929C9.98043 19.6054 10.2348 19.5 10.5 19.5C10.7652 19.5 11.0196 19.6054 11.2071 19.7929C11.3946 19.9804 11.5 20.2348 11.5 20.5V21H9.5V20.5ZM13.5 26.5H7.5V24H13.5V26.5ZM27.0613 9.94L20.0613 2.94C19.9219 2.80052 19.7565 2.68987 19.5744 2.61437C19.3923 2.53887 19.1971 2.50001 19 2.5H7C6.33696 2.5 5.70107 2.76339 5.23223 3.23223C4.76339 3.70107 4.5 4.33696 4.5 5V14.5C4.5 14.8978 4.65804 15.2794 4.93934 15.5607C5.22064 15.842 5.60218 16 6 16C6.39782 16 6.77936 15.842 7.06066 15.5607C7.34196 15.2794 7.5 14.8978 7.5 14.5V5.5H17V11.5C17 11.8978 17.158 12.2794 17.4393 12.5607C17.7206 12.842 18.1022 13 18.5 13H24.5V26.5H20.5C20.1022 26.5 19.7206 26.658 19.4393 26.9393C19.158 27.2206 19 27.6022 19 28C19 28.3978 19.158 28.7794 19.4393 29.0607C19.7206 29.342 20.1022 29.5 20.5 29.5H25C25.663 29.5 26.2989 29.2366 26.7678 28.7678C27.2366 28.2989 27.5 27.663 27.5 27V11C27.5 10.6025 27.3422 10.2212 27.0613 9.94ZM20 7.125L22.875 10H20V7.125Z" fill="black"/>
</svg>
