<svg width="32" height="32" viewBox="0 0 32 32" fill="none" xmlns="http://www.w3.org/2000/svg">
<path d="M27.0613 9.93875L20.0613 2.93875C19.9218 2.7995 19.7564 2.68908 19.5743 2.6138C19.3922 2.53851 19.197 2.49985 19 2.5H7C6.33696 2.5 5.70107 2.76339 5.23223 3.23223C4.76339 3.70107 4.5 4.33696 4.5 5V27C4.5 27.663 4.76339 28.2989 5.23223 28.7678C5.70107 29.2366 6.33696 29.5 7 29.5H25C25.663 29.5 26.2989 29.2366 26.7678 28.7678C27.2366 28.2989 27.5 27.663 27.5 27V11C27.5002 10.803 27.4615 10.6078 27.3862 10.4257C27.3109 10.2436 27.2005 10.0782 27.0613 9.93875ZM22.875 10H20V7.125L22.875 10ZM14.5 26.5V24H15C15.3978 24 15.7794 23.842 16.0607 23.5607C16.342 23.2794 16.5 22.8978 16.5 22.5C16.5 22.1022 16.342 21.7206 16.0607 21.4393C15.7794 21.158 15.3978 21 15 21H14.5V19H15C15.3978 19 15.7794 18.842 16.0607 18.5607C16.342 18.2794 16.5 17.8978 16.5 17.5C16.5 17.1022 16.342 16.7206 16.0607 16.4393C15.7794 16.158 15.3978 16 15 16H14.5V14.5C14.5 14.1022 14.342 13.7206 14.0607 13.4393C13.7794 13.158 13.3978 13 13 13C12.6022 13 12.2206 13.158 11.9393 13.4393C11.658 13.7206 11.5 14.1022 11.5 14.5V16H11C10.6022 16 10.2206 16.158 9.93934 16.4393C9.65804 16.7206 9.5 17.1022 9.5 17.5C9.5 17.8978 9.65804 18.2794 9.93934 18.5607C10.2206 18.842 10.6022 19 11 19H11.5V21H11C10.6022 21 10.2206 21.158 9.93934 21.4393C9.65804 21.7206 9.5 22.1022 9.5 22.5C9.5 22.8978 9.65804 23.2794 9.93934 23.5607C10.2206 23.842 10.6022 24 11 24H11.5V26.5H7.5V5.5H17V11.5C17 11.8978 17.158 12.2794 17.4393 12.5607C17.7206 12.842 18.1022 13 18.5 13H24.5V26.5H14.5Z" fill="black"/>
</svg>
