<svg width="32" height="32" viewBox="0 0 32 32" fill="none" xmlns="http://www.w3.org/2000/svg">
<path d="M27.0613 9.94L20.0613 2.94C19.9219 2.80052 19.7565 2.68987 19.5744 2.61437C19.3923 2.53887 19.1971 2.50001 19 2.5H7C6.33696 2.5 5.70107 2.76339 5.23223 3.23223C4.76339 3.70107 4.5 4.33696 4.5 5V27C4.5 27.663 4.76339 28.2989 5.23223 28.7678C5.70107 29.2366 6.33696 29.5 7 29.5H25C25.663 29.5 26.2989 29.2366 26.7678 28.7678C27.2366 28.2989 27.5 27.663 27.5 27V11C27.5 10.6025 27.3422 10.2212 27.0613 9.94ZM20 7.125L22.875 10H20V7.125ZM7.5 26.5V5.5H17V11.5C17 11.8978 17.158 12.2794 17.4393 12.5607C17.7206 12.842 18.1022 13 18.5 13H24.5V26.5H7.5ZM20.0613 18.9387C20.2011 19.0781 20.312 19.2437 20.3878 19.426C20.4635 19.6083 20.5024 19.8038 20.5024 20.0012C20.5024 20.1987 20.4635 20.3941 20.3878 20.5765C20.312 20.7588 20.2011 20.9244 20.0613 21.0637L17.0613 24.0637C16.9219 24.2036 16.7563 24.3145 16.574 24.3903C16.3917 24.466 16.1962 24.5049 15.9987 24.5049C15.8013 24.5049 15.6058 24.466 15.4235 24.3903C15.2412 24.3145 15.0756 24.2036 14.9362 24.0637L11.9362 21.0637C11.6545 20.782 11.4961 20.3998 11.4961 20.0012C11.4961 19.6027 11.6545 19.2205 11.9362 18.9387C12.218 18.657 12.6002 18.4986 12.9987 18.4986C13.3973 18.4986 13.7795 18.657 14.0612 18.9387L14.5 19.375V15.5C14.5 15.1022 14.658 14.7206 14.9393 14.4393C15.2206 14.158 15.6022 14 16 14C16.3978 14 16.7794 14.158 17.0607 14.4393C17.342 14.7206 17.5 15.1022 17.5 15.5V19.375L17.9387 18.935C18.0783 18.7958 18.2439 18.6854 18.4262 18.6103C18.6084 18.5351 18.8037 18.4966 19.0008 18.4969C19.1979 18.4973 19.393 18.5365 19.575 18.6123C19.7569 18.6881 19.9222 18.799 20.0613 18.9387Z" fill="black"/>
</svg>
