<svg width="32" height="32" viewBox="0 0 32 32" fill="none" xmlns="http://www.w3.org/2000/svg">
<path d="M7 17.5H5C4.60218 17.5 4.22064 17.658 3.93934 17.9393C3.65804 18.2206 3.5 18.6022 3.5 19V26C3.5 26.3978 3.65804 26.7794 3.93934 27.0607C4.22064 27.342 4.60218 27.5 5 27.5C5.39782 27.5 5.77936 27.342 6.06066 27.0607C6.34196 26.7794 6.5 26.3978 6.5 26V25.5H7C8.06087 25.5 9.07828 25.0786 9.82843 24.3284C10.5786 23.5783 11 22.5609 11 21.5C11 20.4391 10.5786 19.4217 9.82843 18.6716C9.07828 17.9214 8.06087 17.5 7 17.5ZM7 22.5H6.5V20.5H7C7.26522 20.5 7.51957 20.6054 7.70711 20.7929C7.89464 20.9804 8 21.2348 8 21.5C8 21.7652 7.89464 22.0196 7.70711 22.2071C7.51957 22.3946 7.26522 22.5 7 22.5ZM29 25.1087C29.0001 25.4953 28.851 25.867 28.5837 26.1462C28.1891 26.5701 27.712 26.9088 27.1817 27.1416C26.6514 27.3744 26.0791 27.4964 25.5 27.5C23.0187 27.5 21 25.2563 21 22.5C21 19.7437 23.0187 17.5 25.5 17.5C26.3345 17.5024 27.1492 17.755 27.8388 18.225C28.0069 18.333 28.1517 18.4735 28.2648 18.6383C28.3778 18.803 28.4568 18.9887 28.4971 19.1844C28.5374 19.3802 28.5382 19.582 28.4995 19.778C28.4607 19.974 28.3832 20.1603 28.2714 20.326C28.1596 20.4916 28.0159 20.6333 27.8487 20.7426C27.6814 20.8519 27.494 20.9267 27.2974 20.9626C27.1008 20.9985 26.8991 20.9947 26.704 20.9516C26.5089 20.9084 26.3243 20.8267 26.1612 20.7113C25.9672 20.5758 25.7367 20.5021 25.5 20.5C24.6875 20.5 24 21.4163 24 22.5C24 23.5837 24.6875 24.5 25.5 24.5C25.6145 24.4998 25.7283 24.4821 25.8375 24.4475C25.6583 24.2276 25.5452 23.9614 25.5112 23.6798C25.4772 23.3982 25.5237 23.1127 25.6454 22.8564C25.7671 22.6002 25.959 22.3837 26.1988 22.2322C26.4385 22.0806 26.7163 22.0001 27 22H27.5C27.8978 22 28.2794 22.158 28.5607 22.4393C28.842 22.7206 29 23.1022 29 23.5V25.1087ZM20 19V26C20 26.3179 19.8991 26.6276 19.7117 26.8844C19.5244 27.1412 19.2602 27.3318 18.9575 27.4287C18.8095 27.4757 18.6552 27.4998 18.5 27.5C18.2616 27.5003 18.0266 27.4437 17.8144 27.335C17.6023 27.2263 17.4191 27.0686 17.28 26.875L15 23.68V26C15 26.3978 14.842 26.7794 14.5607 27.0607C14.2794 27.342 13.8978 27.5 13.5 27.5C13.1022 27.5 12.7206 27.342 12.4393 27.0607C12.158 26.7794 12 26.3978 12 26V19C11.9995 18.6821 12.1 18.3722 12.2871 18.1152C12.4741 17.8581 12.738 17.6671 13.0406 17.5698C13.3433 17.4724 13.669 17.4737 13.9709 17.5735C14.2727 17.6733 14.535 17.8664 14.72 18.125L17 21.3188V19C17 18.6022 17.158 18.2206 17.4393 17.9393C17.7206 17.658 18.1022 17.5 18.5 17.5C18.8978 17.5 19.2794 17.658 19.5607 17.9393C19.842 18.2206 20 18.6022 20 19ZM6 15C6.39782 15 6.77936 14.842 7.06066 14.5607C7.34196 14.2794 7.5 13.8978 7.5 13.5V5.5H17V11.5C17 11.8978 17.158 12.2794 17.4393 12.5607C17.7206 12.842 18.1022 13 18.5 13H24.5V13.5C24.5 13.8978 24.658 14.2794 24.9393 14.5607C25.2206 14.842 25.6022 15 26 15C26.3978 15 26.7794 14.842 27.0607 14.5607C27.342 14.2794 27.5 13.8978 27.5 13.5V11C27.5002 10.803 27.4615 10.6078 27.3862 10.4257C27.3109 10.2436 27.2005 10.0782 27.0613 9.93875L20.0613 2.93875C19.9218 2.7995 19.7564 2.68908 19.5743 2.6138C19.3922 2.53851 19.197 2.49985 19 2.5H7C6.33696 2.5 5.70107 2.76339 5.23223 3.23223C4.76339 3.70107 4.5 4.33696 4.5 5V13.5C4.5 13.8978 4.65804 14.2794 4.93934 14.5607C5.22064 14.842 5.60218 15 6 15ZM20 7.125L22.875 10H20V7.125Z" fill="black"/>
</svg>
