<svg width="32" height="32" viewBox="0 0 32 32" fill="none" xmlns="http://www.w3.org/2000/svg">
<path d="M25 2.5H7C6.33696 2.5 5.70107 2.76339 5.23223 3.23223C4.76339 3.70107 4.5 4.33696 4.5 5V27C4.5 27.663 4.76339 28.2989 5.23223 28.7678C5.70107 29.2366 6.33696 29.5 7 29.5H25C25.663 29.5 26.2989 29.2366 26.7678 28.7678C27.2366 28.2989 27.5 27.663 27.5 27V5C27.5 4.33696 27.2366 3.70107 26.7678 3.23223C26.2989 2.76339 25.663 2.5 25 2.5ZM24.5 26.5H7.5V5.5H24.5V26.5ZM9.5 10C9.5 9.60444 9.6173 9.21776 9.83706 8.88886C10.0568 8.55996 10.3692 8.30362 10.7346 8.15224C11.1001 8.00087 11.5022 7.96126 11.8902 8.03843C12.2781 8.1156 12.6345 8.30608 12.9142 8.58579C13.1939 8.86549 13.3844 9.22186 13.4616 9.60982C13.5387 9.99778 13.4991 10.3999 13.3478 10.7654C13.1964 11.1308 12.94 11.4432 12.6111 11.6629C12.2822 11.8827 11.8956 12 11.5 12C10.9696 12 10.4609 11.7893 10.0858 11.4142C9.71071 11.0391 9.5 10.5304 9.5 10ZM9.5 22C9.5 21.6044 9.6173 21.2178 9.83706 20.8889C10.0568 20.56 10.3692 20.3036 10.7346 20.1522C11.1001 20.0009 11.5022 19.9613 11.8902 20.0384C12.2781 20.1156 12.6345 20.3061 12.9142 20.5858C13.1939 20.8655 13.3844 21.2219 13.4616 21.6098C13.5387 21.9978 13.4991 22.3999 13.3478 22.7654C13.1964 23.1308 12.94 23.4432 12.6111 23.6629C12.2822 23.8827 11.8956 24 11.5 24C10.9696 24 10.4609 23.7893 10.0858 23.4142C9.71071 23.0391 9.5 22.5304 9.5 22ZM9.5 16C9.5 15.6044 9.6173 15.2178 9.83706 14.8889C10.0568 14.56 10.3692 14.3036 10.7346 14.1522C11.1001 14.0009 11.5022 13.9613 11.8902 14.0384C12.2781 14.1156 12.6345 14.3061 12.9142 14.5858C13.1939 14.8655 13.3844 15.2219 13.4616 15.6098C13.5387 15.9978 13.4991 16.3999 13.3478 16.7654C13.1964 17.1308 12.94 17.4432 12.6111 17.6629C12.2822 17.8827 11.8956 18 11.5 18C10.9696 18 10.4609 17.7893 10.0858 17.4142C9.71071 17.0391 9.5 16.5304 9.5 16Z" fill="black"/>
</svg>
