<svg width="32" height="32" viewBox="0 0 32 32" fill="none" xmlns="http://www.w3.org/2000/svg">
<path d="M28 27H22.92C25.5691 25.3309 27.5265 22.7614 28.4321 19.7642C29.3376 16.7669 29.1304 13.5434 27.8486 10.6868C26.5668 7.83009 24.2966 5.53234 21.4555 4.21618C18.6145 2.90003 15.3938 2.654 12.3858 3.52336C9.37787 4.39271 6.78498 6.31898 5.08413 8.94781C3.38328 11.5766 2.68888 14.7312 3.12866 17.8313C3.56843 20.9313 5.11281 23.7683 7.4777 25.8203C9.84259 27.8724 12.8689 29.0015 16 29H28C28.2652 29 28.5196 28.8946 28.7071 28.7071C28.8946 28.5195 29 28.2652 29 28C29 27.7347 28.8946 27.4804 28.7071 27.2929C28.5196 27.1053 28.2652 27 28 27ZM5 16C5 13.8244 5.64514 11.6976 6.85383 9.88869C8.06253 8.07975 9.78049 6.66985 11.7905 5.83728C13.8005 5.00472 16.0122 4.78688 18.146 5.21132C20.2798 5.63576 22.2398 6.68341 23.7782 8.22178C25.3166 9.76016 26.3642 11.7202 26.7886 13.854C27.2131 15.9878 26.9952 18.1995 26.1627 20.2095C25.3301 22.2195 23.9202 23.9374 22.1113 25.1461C20.3023 26.3548 18.1756 27 16 27C13.0836 26.9966 10.2877 25.8367 8.22548 23.7745C6.16329 21.7123 5.00331 18.9163 5 16ZM16 13C16.5933 13 17.1734 12.824 17.6667 12.4944C18.1601 12.1647 18.5446 11.6962 18.7716 11.148C18.9987 10.5998 19.0581 9.99663 18.9424 9.41469C18.8266 8.83274 18.5409 8.2982 18.1213 7.87864C17.7018 7.45908 17.1672 7.17336 16.5853 7.0576C16.0033 6.94185 15.4001 7.00126 14.8519 7.22832C14.3038 7.45538 13.8352 7.8399 13.5056 8.33325C13.1759 8.8266 13 9.40661 13 9.99996C13 10.7956 13.3161 11.5587 13.8787 12.1213C14.4413 12.6839 15.2043 13 16 13ZM16 8.99996C16.1978 8.99996 16.3911 9.05861 16.5556 9.16849C16.72 9.27837 16.8482 9.43455 16.9239 9.61727C16.9996 9.8 17.0194 10.0011 16.9808 10.195C16.9422 10.389 16.847 10.5672 16.7071 10.7071C16.5673 10.8469 16.3891 10.9422 16.1951 10.9807C16.0011 11.0193 15.8 10.9995 15.6173 10.9238C15.4346 10.8482 15.2784 10.72 15.1685 10.5555C15.0586 10.3911 15 10.1977 15 9.99996C15 9.73474 15.1054 9.48039 15.2929 9.29285C15.4804 9.10532 15.7348 8.99996 16 8.99996ZM19 22C19 21.4066 18.8241 20.8266 18.4944 20.3332C18.1648 19.8399 17.6962 19.4554 17.148 19.2283C16.5999 19.0013 15.9967 18.9418 15.4147 19.0576C14.8328 19.1734 14.2982 19.4591 13.8787 19.8786C13.4591 20.2982 13.1734 20.8327 13.0576 21.4147C12.9419 21.9966 13.0013 22.5998 13.2284 23.148C13.4554 23.6962 13.8399 24.1647 14.3333 24.4944C14.8266 24.824 15.4067 25 16 25C16.7956 25 17.5587 24.6839 18.1213 24.1213C18.6839 23.5587 19 22.7956 19 22ZM15 22C15 21.8022 15.0586 21.6088 15.1685 21.4444C15.2784 21.2799 15.4346 21.1518 15.6173 21.0761C15.8 21.0004 16.0011 20.9806 16.1951 21.0192C16.3891 21.0578 16.5673 21.153 16.7071 21.2929C16.847 21.4327 16.9422 21.6109 16.9808 21.8049C17.0194 21.9988 16.9996 22.1999 16.9239 22.3826C16.8482 22.5654 16.72 22.7215 16.5556 22.8314C16.3911 22.9413 16.1978 23 16 23C15.7348 23 15.4804 22.8946 15.2929 22.7071C15.1054 22.5195 15 22.2652 15 22ZM22 19C22.5933 19 23.1734 18.824 23.6667 18.4944C24.1601 18.1647 24.5446 17.6962 24.7716 17.148C24.9987 16.5998 25.0581 15.9966 24.9424 15.4147C24.8266 14.8327 24.5409 14.2982 24.1213 13.8786C23.7018 13.4591 23.1672 13.1734 22.5853 13.0576C22.0033 12.9418 21.4001 13.0013 20.8519 13.2283C20.3038 13.4554 19.8352 13.8399 19.5056 14.3332C19.1759 14.8266 19 15.4066 19 16C19 16.7956 19.3161 17.5587 19.8787 18.1213C20.4413 18.6839 21.2044 19 22 19ZM22 15C22.1978 15 22.3911 15.0586 22.5556 15.1685C22.72 15.2784 22.8482 15.4345 22.9239 15.6173C22.9996 15.8 23.0194 16.0011 22.9808 16.195C22.9422 16.389 22.847 16.5672 22.7071 16.7071C22.5673 16.8469 22.3891 16.9422 22.1951 16.9807C22.0011 17.0193 21.8 16.9995 21.6173 16.9238C21.4346 16.8482 21.2784 16.72 21.1685 16.5555C21.0586 16.3911 21 16.1977 21 16C21 15.7347 21.1054 15.4804 21.2929 15.2929C21.4804 15.1053 21.7348 15 22 15ZM10 13C9.40666 13 8.82664 13.1759 8.33329 13.5055C7.83994 13.8352 7.45542 14.3037 7.22836 14.8519C7.0013 15.4001 6.94189 16.0033 7.05764 16.5852C7.1734 17.1672 7.45912 17.7017 7.87868 18.1213C8.29824 18.5408 8.83279 18.8266 9.41473 18.9423C9.99667 19.0581 10.5999 18.9987 11.148 18.7716C11.6962 18.5445 12.1648 18.16 12.4944 17.6667C12.8241 17.1733 13 16.5933 13 16C13 15.2043 12.6839 14.4412 12.1213 13.8786C11.5587 13.316 10.7956 13 10 13ZM10 17C9.80222 17 9.60888 16.9413 9.44443 16.8314C9.27998 16.7215 9.15181 16.5654 9.07612 16.3826C9.00043 16.1999 8.98063 15.9988 9.01921 15.8049C9.0578 15.6109 9.15304 15.4327 9.29289 15.2929C9.43274 15.153 9.61093 15.0578 9.80491 15.0192C9.99889 14.9806 10.2 15.0004 10.3827 15.0761C10.5654 15.1518 10.7216 15.2799 10.8315 15.4444C10.9413 15.6088 11 15.8022 11 16C11 16.2652 10.8946 16.5195 10.7071 16.7071C10.5196 16.8946 10.2652 17 10 17Z" fill="black"/>
</svg>
