<svg width="32" height="32" viewBox="0 0 32 32" fill="none" xmlns="http://www.w3.org/2000/svg">
<path d="M27 13H12.7612L26.25 9.43879C26.3777 9.40515 26.4974 9.34655 26.6023 9.26639C26.7073 9.18622 26.7953 9.08607 26.8613 8.97172C26.9273 8.85736 26.97 8.73107 26.9869 8.60013C27.0039 8.46918 26.9947 8.33618 26.96 8.20879L25.94 4.45879C25.7996 3.95427 25.4661 3.52537 25.0118 3.26497C24.5574 3.00457 24.0188 2.93364 23.5125 3.06754L4.47625 8.09254C4.22279 8.15833 3.98499 8.27403 3.7768 8.43286C3.5686 8.5917 3.39418 8.79047 3.26375 9.01754C3.13259 9.24182 3.04785 9.49018 3.01457 9.74786C2.98129 10.0055 3.00014 10.2673 3.07 10.5175L4 13.945C4 13.9625 4 13.9813 4 14V25C4 25.5305 4.21071 26.0392 4.58579 26.4142C4.96086 26.7893 5.46957 27 6 27H26C26.5304 27 27.0391 26.7893 27.4142 26.4142C27.7893 26.0392 28 25.5305 28 25V14C28 13.7348 27.8946 13.4805 27.7071 13.2929C27.5196 13.1054 27.2652 13 27 13ZM24.02 5.00004L24.77 7.75879L21.9425 8.50879L18.4275 6.47879L24.02 5.00004ZM15.6838 7.20004L19.1987 9.23004L14.5813 10.4488L11.0662 8.42129L15.6838 7.20004ZM5.75875 12.7775L5.00875 10.0175L8.32125 9.14254L11.8363 11.175L5.75875 12.7775ZM26 25H6V15H26V25Z" fill="black"/>
</svg>
