<svg width="32" height="32" viewBox="0 0 32 32" fill="none" xmlns="http://www.w3.org/2000/svg">
<path d="M28 27H22.92C25.5691 25.3309 27.5265 22.7614 28.4321 19.7642C29.3376 16.7669 29.1304 13.5434 27.8486 10.6868C26.5668 7.83009 24.2966 5.53234 21.4555 4.21618C18.6145 2.90003 15.3938 2.654 12.3858 3.52336C9.37787 4.39271 6.78498 6.31898 5.08413 8.94781C3.38328 11.5766 2.68888 14.7312 3.12866 17.8313C3.56843 20.9313 5.11281 23.7683 7.4777 25.8203C9.84259 27.8724 12.8689 29.0015 16 29H28C28.2652 29 28.5196 28.8946 28.7071 28.7071C28.8946 28.5195 29 28.2652 29 28C29 27.7347 28.8946 27.4804 28.7071 27.2929C28.5196 27.1053 28.2652 27 28 27ZM10 18.5C9.50555 18.5 9.0222 18.3533 8.61107 18.0786C8.19995 17.8039 7.87952 17.4135 7.6903 16.9567C7.50108 16.4999 7.45157 15.9972 7.54804 15.5122C7.6445 15.0273 7.8826 14.5818 8.23223 14.2322C8.58186 13.8826 9.02732 13.6445 9.51227 13.548C9.99723 13.4515 10.4999 13.501 10.9567 13.6903C11.4135 13.8795 11.804 14.1999 12.0787 14.611C12.3534 15.0222 12.5 15.5055 12.5 16C12.5 16.663 12.2366 17.2989 11.7678 17.7677C11.2989 18.2366 10.663 18.5 10 18.5ZM16 24.5C15.5055 24.5 15.0222 24.3533 14.6111 24.0786C14.2 23.8039 13.8795 23.4135 13.6903 22.9567C13.5011 22.4999 13.4516 21.9972 13.548 21.5122C13.6445 21.0273 13.8826 20.5818 14.2322 20.2322C14.5819 19.8826 15.0273 19.6445 15.5123 19.548C15.9972 19.4515 16.4999 19.501 16.9567 19.6903C17.4135 19.8795 17.804 20.1999 18.0787 20.611C18.3534 21.0222 18.5 21.5055 18.5 22C18.5 22.663 18.2366 23.2989 17.7678 23.7677C17.2989 24.2366 16.663 24.5 16 24.5ZM16 12.5C15.5055 12.5 15.0222 12.3533 14.6111 12.0786C14.2 11.8039 13.8795 11.4135 13.6903 10.9567C13.5011 10.4999 13.4516 9.99718 13.548 9.51223C13.6445 9.02728 13.8826 8.58182 14.2322 8.23219C14.5819 7.88256 15.0273 7.64446 15.5123 7.548C15.9972 7.45153 16.4999 7.50104 16.9567 7.69026C17.4135 7.87948 17.804 8.19991 18.0787 8.61103C18.3534 9.02216 18.5 9.50551 18.5 9.99996C18.5 10.663 18.2366 11.2989 17.7678 11.7677C17.2989 12.2366 16.663 12.5 16 12.5ZM19.5 16C19.5 15.5055 19.6466 15.0222 19.9213 14.611C20.196 14.1999 20.5865 13.8795 21.0433 13.6903C21.5001 13.501 22.0028 13.4515 22.4877 13.548C22.9727 13.6445 23.4181 13.8826 23.7678 14.2322C24.1174 14.5818 24.3555 15.0273 24.452 15.5122C24.5484 15.9972 24.4989 16.4999 24.3097 16.9567C24.1205 17.4135 23.8 17.8039 23.3889 18.0786C22.9778 18.3533 22.4945 18.5 22 18.5C21.337 18.5 20.7011 18.2366 20.2322 17.7677C19.7634 17.2989 19.5 16.663 19.5 16Z" fill="black"/>
</svg>
