<svg width="32" height="32" viewBox="0 0 32 32" fill="none" xmlns="http://www.w3.org/2000/svg">
<path d="M27 12.5H16.615L26.3825 9.92128C26.5739 9.87081 26.7534 9.78296 26.9107 9.6628C27.0679 9.54263 27.1999 9.39253 27.2989 9.22114C27.3979 9.04975 27.462 8.86047 27.4875 8.66419C27.513 8.46792 27.4994 8.26853 27.4475 8.07753L26.4275 4.32753C26.2522 3.69583 25.8352 3.1586 25.2666 2.83222C24.6981 2.50584 24.0239 2.41658 23.39 2.58378L4.34875 7.60878C4.03151 7.69144 3.73393 7.83648 3.47338 8.03543C3.21283 8.23439 2.99454 8.48327 2.83125 8.76753C2.66765 9.04802 2.56181 9.3584 2.51995 9.68041C2.47809 10.0024 2.50106 10.3295 2.5875 10.6425L3.5 14V25C3.5 25.6631 3.76339 26.299 4.23223 26.7678C4.70107 27.2366 5.33696 27.5 6 27.5H26C26.663 27.5 27.2989 27.2366 27.7678 26.7678C28.2366 26.299 28.5 25.6631 28.5 25V14C28.5 13.6022 28.342 13.2207 28.0607 12.9394C27.7794 12.6581 27.3978 12.5 27 12.5ZM15.6112 7.73878L17.8975 9.05878L14.6537 9.91503L12.3675 8.59503L15.6112 7.73878ZM23.6675 5.61378L24.1562 7.40753L22.015 7.97253L19.7288 6.65128L23.6675 5.61378ZM8.25 9.68253L10.5362 11L6.11125 12.1688L5.625 10.375L8.25 9.68253ZM25.5 24.5H6.5V15.5H25.5V24.5Z" fill="black"/>
</svg>
