<svg width="32" height="32" viewBox="0 0 32 32" fill="none" xmlns="http://www.w3.org/2000/svg">
<path d="M28 26.5H24.475C26.9503 24.4989 28.6384 21.687 29.2409 18.5615C29.8434 15.436 29.3216 12.1982 27.7676 9.42026C26.2136 6.64235 23.7275 4.50329 20.7488 3.3812C17.7701 2.2591 14.4906 2.22622 11.49 3.28838C8.4894 4.35054 5.96094 6.43932 4.35156 9.18552C2.74217 11.9317 2.15549 15.1585 2.69524 18.2954C3.23498 21.4324 4.86638 24.2775 7.30107 26.3278C9.73576 28.3782 12.8169 29.5018 16 29.5H28C28.3978 29.5 28.7793 29.342 29.0606 29.0607C29.3419 28.7794 29.5 28.3978 29.5 28C29.5 27.6022 29.3419 27.2207 29.0606 26.9394C28.7793 26.658 28.3978 26.5 28 26.5ZM5.49998 16C5.49998 13.9233 6.11579 11.8932 7.26955 10.1665C8.4233 8.43981 10.0632 7.094 11.9818 6.29928C13.9004 5.50456 16.0116 5.29662 18.0484 5.70177C20.0852 6.10691 21.9561 7.10694 23.4246 8.57539C24.893 10.0438 25.8931 11.9148 26.2982 13.9516C26.7034 15.9884 26.4954 18.0996 25.7007 20.0182C24.906 21.9368 23.5602 23.5767 21.8335 24.7304C20.1067 25.8842 18.0767 26.5 16 26.5C13.2161 26.497 10.5471 25.3898 8.57864 23.4213C6.61016 21.4529 5.50295 18.7839 5.49998 16ZM13.5 10.5C13.5 10.0056 13.6466 9.52221 13.9213 9.11109C14.196 8.69996 14.5865 8.37953 15.0433 8.19031C15.5001 8.00109 16.0028 7.95159 16.4877 8.04805C16.9727 8.14451 17.4181 8.38261 17.7677 8.73225C18.1174 9.08188 18.3555 9.52733 18.4519 10.0123C18.5484 10.4972 18.4989 10.9999 18.3097 11.4567C18.1205 11.9135 17.8 12.304 17.3889 12.5787C16.9778 12.8534 16.4944 13 16 13C15.3369 13 14.7011 12.7366 14.2322 12.2678C13.7634 11.7989 13.5 11.1631 13.5 10.5ZM16 24C15.5055 24 15.0222 23.8534 14.6111 23.5787C14.1999 23.304 13.8795 22.9135 13.6903 22.4567C13.5011 21.9999 13.4516 21.4972 13.548 21.0123C13.6445 20.5273 13.8826 20.0819 14.2322 19.7322C14.5818 19.3826 15.0273 19.1445 15.5123 19.048C15.9972 18.9516 16.4999 19.0011 16.9567 19.1903C17.4135 19.3795 17.8039 19.7 18.0787 20.1111C18.3534 20.5222 18.5 21.0056 18.5 21.5C18.5 21.8283 18.4353 22.1534 18.3097 22.4567C18.184 22.76 17.9999 23.0356 17.7677 23.2678C17.5356 23.4999 17.26 23.6841 16.9567 23.8097C16.6534 23.9353 16.3283 24 16 24ZM19 16C19 15.5056 19.1466 15.0222 19.4213 14.6111C19.696 14.2 20.0865 13.8795 20.5433 13.6903C21.0001 13.5011 21.5028 13.4516 21.9877 13.548C22.4727 13.6445 22.9181 13.8826 23.2677 14.2322C23.6174 14.5819 23.8555 15.0273 23.9519 15.5123C24.0484 15.9972 23.9989 16.4999 23.8097 16.9567C23.6205 17.4135 23.3 17.804 22.8889 18.0787C22.4778 18.3534 21.9944 18.5 21.5 18.5C20.8369 18.5 20.2011 18.2366 19.7322 17.7678C19.2634 17.2989 19 16.6631 19 16ZM13 16C13 16.4945 12.8534 16.9778 12.5787 17.3889C12.3039 17.8001 11.9135 18.1205 11.4567 18.3097C10.9999 18.4989 10.4972 18.5484 10.0123 18.452C9.5273 18.3555 9.08184 18.1174 8.73221 17.7678C8.38258 17.4181 8.14448 16.9727 8.04801 16.4877C7.95155 16.0028 8.00106 15.5001 8.19028 15.0433C8.3795 14.5865 8.69993 14.196 9.11105 13.9213C9.52217 13.6466 10.0055 13.5 10.5 13.5C11.163 13.5 11.7989 13.7634 12.2677 14.2322C12.7366 14.7011 13 15.337 13 16Z" fill="black"/>
</svg>
