<svg width="32" height="32" viewBox="0 0 32 32" fill="none" xmlns="http://www.w3.org/2000/svg">
<path d="M28 27.25H22C24.7456 25.7857 26.861 23.3678 27.9475 20.4519C29.034 17.5361 29.0167 14.3235 27.8988 11.4195C26.7809 8.51555 24.6396 6.12063 21.8783 4.68598C19.1171 3.25133 15.9265 2.876 12.9076 3.6307C9.88883 4.38541 7.25022 6.21804 5.48894 8.78333C3.72765 11.3486 2.9653 14.4694 3.3455 17.5579C3.7257 20.6463 5.22221 23.489 7.55307 25.5505C9.88394 27.6121 12.8882 28.75 16 28.75H28C28.1989 28.75 28.3896 28.671 28.5303 28.5303C28.671 28.3897 28.75 28.1989 28.75 28C28.75 27.8011 28.671 27.6103 28.5303 27.4697C28.3896 27.329 28.1989 27.25 28 27.25ZM4.74997 16C4.74997 13.775 5.40977 11.5999 6.64594 9.74985C7.8821 7.8998 9.63911 6.45786 11.6948 5.60637C13.7505 4.75489 16.0125 4.5321 18.1947 4.96618C20.377 5.40027 22.3816 6.47173 23.9549 8.04507C25.5283 9.61841 26.5997 11.623 27.0338 13.8053C27.4679 15.9875 27.2451 18.2495 26.3936 20.3052C25.5421 22.3609 24.1002 24.1179 22.2501 25.3541C20.4001 26.5902 18.225 27.25 16 27.25C13.0173 27.2467 10.1577 26.0604 8.04867 23.9513C5.93961 21.8422 4.75328 18.9827 4.74997 16ZM16 12.75C16.5439 12.75 17.0756 12.5887 17.5278 12.2866C17.98 11.9844 18.3325 11.5549 18.5406 11.0524C18.7488 10.5499 18.8032 9.99697 18.6971 9.46352C18.591 8.93007 18.3291 8.44007 17.9445 8.05548C17.5599 7.67088 17.0699 7.40897 16.5365 7.30286C16.003 7.19675 15.4501 7.25121 14.9476 7.45935C14.4451 7.66749 14.0156 8.01997 13.7134 8.4722C13.4113 8.92444 13.25 9.45612 13.25 10C13.25 10.7294 13.5397 11.4288 14.0554 11.9446C14.5712 12.4603 15.2706 12.75 16 12.75ZM16 8.75002C16.2472 8.75002 16.4889 8.82333 16.6944 8.96068C16.9 9.09803 17.0602 9.29326 17.1548 9.52166C17.2494 9.75007 17.2742 10.0014 17.226 10.2439C17.1777 10.4864 17.0587 10.7091 16.8839 10.8839C16.709 11.0587 16.4863 11.1778 16.2438 11.226C16.0014 11.2742 15.75 11.2495 15.5216 11.1549C15.2932 11.0603 15.098 10.9 14.9606 10.6945C14.8233 10.4889 14.75 10.2472 14.75 10C14.75 9.6685 14.8817 9.35056 15.1161 9.11614C15.3505 8.88172 15.6684 8.75002 16 8.75002ZM18.75 22C18.75 21.4561 18.5887 20.9244 18.2865 20.4722C17.9843 20.02 17.5548 19.6675 17.0524 19.4594C16.5499 19.2512 15.9969 19.1968 15.4635 19.3029C14.93 19.409 14.44 19.6709 14.0554 20.0555C13.6708 20.4401 13.4089 20.9301 13.3028 21.4635C13.1967 21.997 13.2512 22.5499 13.4593 23.0524C13.6674 23.5549 14.0199 23.9844 14.4722 24.2866C14.9244 24.5887 15.4561 24.75 16 24.75C16.7293 24.75 17.4288 24.4603 17.9445 23.9446C18.4602 23.4288 18.75 22.7294 18.75 22ZM14.75 22C14.75 21.7528 14.8233 21.5111 14.9606 21.3056C15.098 21.1 15.2932 20.9398 15.5216 20.8452C15.75 20.7506 16.0014 20.7258 16.2438 20.774C16.4863 20.8223 16.709 20.9413 16.8839 21.1161C17.0587 21.291 17.1777 21.5137 17.226 21.7562C17.2742 21.9986 17.2494 22.25 17.1548 22.4784C17.0602 22.7068 16.9 22.902 16.6944 23.0394C16.4889 23.1767 16.2472 23.25 16 23.25C15.6684 23.25 15.3505 23.1183 15.1161 22.8839C14.8817 22.6495 14.75 22.3315 14.75 22ZM22 18.75C22.5439 18.75 23.0756 18.5887 23.5278 18.2866C23.98 17.9844 24.3325 17.5549 24.5406 17.0524C24.7488 16.5499 24.8032 15.997 24.6971 15.4635C24.591 14.9301 24.3291 14.4401 23.9445 14.0555C23.5599 13.6709 23.0699 13.409 22.5365 13.3029C22.003 13.1967 21.4501 13.2512 20.9476 13.4594C20.4451 13.6675 20.0156 14.02 19.7134 14.4722C19.4113 14.9244 19.25 15.4561 19.25 16C19.25 16.7294 19.5397 17.4288 20.0554 17.9446C20.5711 18.4603 21.2706 18.75 22 18.75ZM22 14.75C22.2472 14.75 22.4889 14.8233 22.6944 14.9607C22.9 15.098 23.0602 15.2933 23.1548 15.5217C23.2494 15.7501 23.2742 16.0014 23.226 16.2439C23.1777 16.4864 23.0587 16.7091 22.8839 16.8839C22.709 17.0587 22.4863 17.1778 22.2438 17.226C22.0014 17.2742 21.75 17.2495 21.5216 17.1549C21.2932 17.0603 21.098 16.9 20.9606 16.6945C20.8233 16.4889 20.75 16.2472 20.75 16C20.75 15.6685 20.8817 15.3506 21.1161 15.1161C21.3505 14.8817 21.6684 14.75 22 14.75ZM9.99997 13.25C9.45607 13.25 8.92439 13.4113 8.47215 13.7135C8.01992 14.0157 7.66744 14.4451 7.4593 14.9476C7.25116 15.4501 7.1967 16.0031 7.30281 16.5365C7.40892 17.07 7.67083 17.56 8.05543 17.9446C8.44002 18.3292 8.93002 18.5911 9.46347 18.6972C9.99692 18.8033 10.5499 18.7488 11.0523 18.5407C11.5548 18.3325 11.9843 17.9801 12.2865 17.5278C12.5887 17.0756 12.75 16.5439 12.75 16C12.75 15.2707 12.4602 14.5712 11.9445 14.0555C11.4288 13.5398 10.7293 13.25 9.99997 13.25ZM9.99997 17.25C9.75274 17.25 9.51107 17.1767 9.30551 17.0394C9.09995 16.902 8.93973 16.7068 8.84512 16.4784C8.75051 16.25 8.72576 15.9986 8.77399 15.7562C8.82222 15.5137 8.94127 15.291 9.11609 15.1161C9.2909 14.9413 9.51363 14.8223 9.75611 14.774C9.99858 14.7258 10.2499 14.7506 10.4783 14.8452C10.7067 14.9398 10.902 15.1 11.0393 15.3056C11.1767 15.5111 11.25 15.7528 11.25 16C11.25 16.3315 11.1183 16.6495 10.8839 16.8839C10.6494 17.1183 10.3315 17.25 9.99997 17.25Z" fill="black"/>
</svg>
