<svg width="32" height="32" viewBox="0 0 32 32" fill="none" xmlns="http://www.w3.org/2000/svg">
<path d="M22.4998 16C22.5071 19.9753 21.7329 23.9134 20.221 27.59C20.1661 27.7048 20.0694 27.7944 19.9507 27.8404C19.8319 27.8864 19.7002 27.8853 19.5822 27.8375C19.4642 27.7897 19.3689 27.6986 19.3157 27.583C19.2626 27.4673 19.2555 27.3357 19.296 27.215C20.7586 23.6573 21.5074 19.8466 21.4998 16C21.4998 15.8674 21.5525 15.7402 21.6462 15.6465C21.74 15.5527 21.8672 15.5 21.9998 15.5C22.1324 15.5 22.2596 15.5527 22.3533 15.6465C22.4471 15.7402 22.4998 15.8674 22.4998 16ZM20.0985 12.3338C20.1869 12.4332 20.3111 12.4935 20.4439 12.5014C20.5767 12.5092 20.7072 12.464 20.8067 12.3756C20.9061 12.2873 20.9664 12.163 20.9742 12.0302C20.9821 11.8974 20.9369 11.767 20.8485 11.6675C19.9713 10.6849 18.8162 9.99203 17.5363 9.68065C16.2564 9.36928 14.9121 9.4541 13.6815 9.9239C12.4509 10.3937 11.3921 11.2263 10.6453 12.3114C9.89854 13.3964 9.49905 14.6828 9.49978 16C9.50103 18.9645 8.74918 21.8807 7.31478 24.475C7.25046 24.591 7.23488 24.7279 7.27145 24.8554C7.30801 24.9829 7.39375 25.0907 7.50978 25.155C7.62581 25.2193 7.76264 25.2349 7.89016 25.1983C8.01769 25.1618 8.12546 25.076 8.18978 24.96C9.70565 22.217 10.5005 19.134 10.4998 16C10.4998 14.8862 10.8379 13.7986 11.4695 12.8812C12.1011 11.9638 12.9963 11.2597 14.0367 10.8622C15.0772 10.4647 16.2138 10.3924 17.2962 10.6549C18.3786 10.9175 19.3558 11.5025 20.0985 12.3325V12.3338ZM15.9998 3.50001C14.5807 3.49864 13.1718 3.73917 11.8335 4.21126C11.7696 4.23143 11.7103 4.26426 11.6593 4.30781C11.6082 4.35136 11.5665 4.40473 11.5365 4.46475C11.5066 4.52476 11.489 4.59019 11.4848 4.65715C11.4807 4.7241 11.49 4.7912 11.5124 4.85446C11.5347 4.91772 11.5695 4.97584 11.6147 5.02537C11.66 5.07489 11.7147 5.1148 11.7757 5.14273C11.8367 5.17065 11.9027 5.18602 11.9698 5.18792C12.0368 5.18981 12.1036 5.17819 12.166 5.15376C13.9009 4.5427 15.757 4.35632 17.5788 4.61025C19.4005 4.86419 21.1349 5.55102 22.6366 6.61322C24.1382 7.67542 25.3635 9.08205 26.2096 10.7152C27.0558 12.3484 27.4982 14.1606 27.4998 16C27.5022 18.6544 27.2088 21.3007 26.6248 23.89C26.5956 24.0189 26.6187 24.1542 26.6889 24.2662C26.7592 24.3781 26.871 24.4577 26.9998 24.4875C27.0363 24.496 27.0736 24.5002 27.111 24.5C27.2243 24.4997 27.334 24.4609 27.4224 24.3901C27.5107 24.3192 27.5724 24.2205 27.5973 24.11C28.1993 21.4487 28.502 18.7285 28.4998 16C28.4961 12.6859 27.178 9.50861 24.8346 7.16519C22.4912 4.82177 19.3139 3.50365 15.9998 3.50001ZM8.33353 7.42876C8.43298 7.34024 8.4932 7.21584 8.50094 7.08292C8.50868 6.95001 8.46329 6.81946 8.37478 6.72001C8.28626 6.62055 8.16186 6.56033 8.02895 6.55259C7.89603 6.54486 7.76548 6.59024 7.66603 6.67876C6.35575 7.8526 5.30752 9.28938 4.58967 10.8954C3.87182 12.5015 3.50046 14.2408 3.49978 16C3.50353 17.6538 3.14782 19.2886 2.45728 20.7913C2.4301 20.8512 2.415 20.9158 2.41286 20.9816C2.41072 21.0473 2.42157 21.1128 2.4448 21.1744C2.46802 21.2359 2.50316 21.2923 2.5482 21.3402C2.59324 21.3882 2.6473 21.4267 2.70728 21.4538C2.77224 21.4841 2.84306 21.4999 2.91478 21.5C3.01055 21.5001 3.10434 21.4728 3.185 21.4211C3.26566 21.3695 3.32979 21.2958 3.36978 21.2088C4.11974 19.575 4.50532 17.7977 4.49978 16C4.50113 14.3822 4.84322 12.7829 5.50376 11.3061C6.1643 9.82927 7.12849 8.50816 8.33353 7.42876ZM14.031 25.5463C13.9711 25.5189 13.9063 25.5036 13.8404 25.5014C13.7745 25.4992 13.7088 25.51 13.6472 25.5332C13.5855 25.5564 13.529 25.5916 13.4809 25.6368C13.4329 25.6819 13.3943 25.7361 13.3673 25.7963C13.1173 26.3325 12.851 26.8675 12.5648 27.385C12.5329 27.4425 12.5127 27.5056 12.5053 27.5709C12.4978 27.6362 12.5033 27.7022 12.5214 27.7654C12.5396 27.8285 12.5699 27.8875 12.6108 27.9389C12.6517 27.9903 12.7023 28.0332 12.7598 28.065C12.8172 28.0969 12.8804 28.1171 12.9457 28.1245C13.0109 28.1319 13.077 28.1264 13.1402 28.1083C13.2033 28.0902 13.2623 28.0599 13.3137 28.019C13.3651 27.9781 13.4079 27.9275 13.4398 27.87C13.7385 27.33 14.021 26.7725 14.2773 26.2138C14.3054 26.1538 14.3213 26.0889 14.3241 26.0228C14.3269 25.9567 14.3165 25.8906 14.2936 25.8286C14.2707 25.7665 14.2357 25.7095 14.1906 25.6611C14.1455 25.6126 14.0913 25.5736 14.031 25.5463ZM15.9998 15.5C15.8672 15.5 15.74 15.5527 15.6462 15.6465C15.5525 15.7402 15.4998 15.8674 15.4998 16C15.5009 17.9817 15.2523 19.9555 14.7598 21.875C14.7267 22.0033 14.7459 22.1395 14.8132 22.2536C14.8805 22.3677 14.9903 22.4505 15.1185 22.4838C15.1593 22.4946 15.2013 22.5001 15.2435 22.5C15.3543 22.4999 15.4619 22.463 15.5495 22.3952C15.637 22.3273 15.6996 22.2323 15.7273 22.125C16.2412 20.1239 16.5007 18.066 16.4998 16C16.4998 15.8674 16.4471 15.7402 16.3533 15.6465C16.2596 15.5527 16.1324 15.5 15.9998 15.5Z" fill="black"/>
</svg>
