<svg width="32" height="32" viewBox="0 0 32 32" fill="none" xmlns="http://www.w3.org/2000/svg">
<path d="M15.8011 2.99998C8.83987 3.10623 3.15112 8.75873 2.99987 15.7187C2.94711 18.0597 3.53078 20.371 4.68862 22.4062C4.73403 22.4859 4.80047 22.5515 4.88068 22.596C4.96089 22.6404 5.05178 22.6619 5.1434 22.6582C5.23502 22.6544 5.32384 22.6256 5.40016 22.5748C5.47648 22.5239 5.53735 22.4531 5.57612 22.37C6.51531 20.3778 7.00154 18.2024 6.99987 16C6.99898 13.8246 7.78683 11.7226 9.21737 10.0837C9.37908 9.89113 9.60581 9.76453 9.85461 9.7279C10.1034 9.69127 10.357 9.74716 10.5674 9.88498C10.6846 9.96517 10.7834 10.0694 10.8572 10.1908C10.9309 10.3121 10.978 10.4478 10.9953 10.5887C11.0126 10.7297 10.9996 10.8727 10.9573 11.0083C10.915 11.1439 10.8443 11.2689 10.7499 11.375C9.62248 12.6519 9.00018 14.2966 8.99987 16C9.00362 19.0004 8.208 21.9477 6.69487 24.5387C6.63876 24.634 6.61581 24.7452 6.62961 24.8549C6.64341 24.9646 6.69317 25.0666 6.77112 25.145C7.26739 25.6481 7.80374 26.11 8.37487 26.5262C8.43137 26.5677 8.49594 26.5967 8.5644 26.6116C8.63287 26.6265 8.70369 26.6268 8.77228 26.6125C8.84087 26.5983 8.9057 26.5698 8.96256 26.5288C9.01943 26.4879 9.06706 26.4355 9.10237 26.375C9.63848 25.4958 10.1057 24.5763 10.4999 23.625C10.5499 23.5035 10.6234 23.3931 10.7162 23.3C10.8089 23.207 10.9191 23.1331 11.0404 23.0826C11.1617 23.0321 11.2917 23.006 11.4231 23.0057C11.5545 23.0055 11.6846 23.0312 11.8061 23.0812C11.9276 23.1313 12.038 23.2048 12.1311 23.2975C12.2241 23.3903 12.298 23.5004 12.3485 23.6217C12.399 23.743 12.4251 23.8731 12.4254 24.0045C12.4256 24.1359 12.3999 24.266 12.3499 24.3875C11.93 25.4038 11.4348 26.3873 10.8686 27.33C10.8319 27.3915 10.8088 27.4602 10.801 27.5314C10.7931 27.6025 10.8006 27.6746 10.823 27.7426C10.8454 27.8107 10.8822 27.8731 10.9308 27.9257C10.9794 27.9783 11.0388 28.0198 11.1049 28.0475C12.1074 28.4564 13.1572 28.7377 14.2299 28.885C14.33 28.8997 14.4323 28.8837 14.5231 28.839C14.6139 28.7944 14.6891 28.7232 14.7386 28.635C16.5709 25.3433 17.6617 21.6911 17.9349 17.9337C17.9404 17.7999 17.9727 17.6685 18.03 17.5474C18.0873 17.4263 18.1683 17.3179 18.2683 17.2288C18.3682 17.1396 18.4851 17.0714 18.6119 17.0282C18.7387 16.9851 18.8729 16.9679 19.0066 16.9776C19.1402 16.9873 19.2705 17.0238 19.3897 17.0848C19.5089 17.1459 19.6147 17.2302 19.7007 17.3329C19.7867 17.4356 19.8512 17.5546 19.8904 17.6827C19.9295 17.8108 19.9425 17.9455 19.9286 18.0787C19.6742 21.5833 18.7589 25.0082 17.2311 28.1725C17.1912 28.2534 17.1739 28.3436 17.1811 28.4336C17.1882 28.5236 17.2196 28.6099 17.2719 28.6835C17.3242 28.757 17.3954 28.8151 17.478 28.8514C17.5606 28.8878 17.6516 28.9011 17.7411 28.89C18.6183 28.7722 19.4812 28.5648 20.3161 28.2712C20.3818 28.2478 20.4419 28.2109 20.4925 28.1629C20.5431 28.1149 20.5831 28.0569 20.6099 27.9925C22.1687 24.2624 22.9807 20.2627 22.9999 16.22C23.0274 12.39 20.0749 9.13623 16.2499 9.00373C15.5763 8.98039 14.9029 9.05321 14.2499 9.21998C14.118 9.25385 13.9805 9.26041 13.846 9.23928C13.7115 9.21814 13.5827 9.16975 13.4675 9.09707C13.3523 9.02439 13.2532 8.92895 13.1762 8.8166C13.0993 8.70426 13.0461 8.57737 13.0199 8.44373C12.9763 8.18469 13.0335 7.91879 13.1797 7.70055C13.3258 7.48231 13.55 7.32826 13.8061 7.26998C15.1335 6.93762 16.5192 6.9121 17.8579 7.19536C19.1967 7.47862 20.4533 8.06321 21.5323 8.90474C22.6113 9.74627 23.4844 10.8226 24.0852 12.052C24.6861 13.2814 24.9989 14.6316 24.9999 16C25.0028 19.1572 24.5541 22.2986 23.6674 25.3287C23.6364 25.4327 23.6401 25.5438 23.6778 25.6455C23.7156 25.7471 23.7853 25.8338 23.8766 25.8923C23.9679 25.9509 24.0757 25.9782 24.1839 25.9701C24.292 25.962 24.3946 25.919 24.4761 25.8475C26.4986 24.105 27.9356 21.7821 28.5919 19.1944C29.2482 16.6068 29.0919 13.8798 28.1443 11.384C27.1967 8.88829 25.5037 6.74479 23.2954 5.24479C21.087 3.74478 18.4704 2.96102 15.8011 2.99998ZM15.9999 12C16.5626 12.0005 17.1189 12.1195 17.6326 12.3493C18.1462 12.5791 18.6057 12.9145 18.9811 13.3337C19.0742 13.4378 19.1444 13.5601 19.1873 13.693C19.2302 13.8258 19.2448 13.9661 19.2302 14.105C19.2156 14.2438 19.1721 14.378 19.1025 14.499C19.0329 14.62 18.9388 14.7251 18.8261 14.8075C18.6182 14.9507 18.3649 15.0127 18.1143 14.9819C17.8637 14.951 17.6331 14.8294 17.4661 14.64C17.205 14.3585 16.8683 14.1581 16.4964 14.0628C16.1245 13.9675 15.7329 13.9813 15.3686 14.1025C14.9631 14.2437 14.6121 14.5087 14.3654 14.8602C14.1187 15.2117 13.9886 15.6318 13.9936 16.0612C13.9901 17.4457 13.8566 18.8267 13.5949 20.1862C13.5519 20.413 13.4318 20.6179 13.2551 20.7662C13.0783 20.9145 12.8556 20.9971 12.6249 21C12.5619 21.0003 12.4991 20.9944 12.4374 20.9825C12.175 20.9228 11.946 20.7635 11.7989 20.5382C11.6517 20.3129 11.5978 20.0392 11.6486 19.775C11.8841 18.5305 12.0017 17.2666 11.9999 16C11.9999 14.9391 12.4213 13.9217 13.1714 13.1716C13.9216 12.4214 14.939 12 15.9999 12Z" fill="black"/>
</svg>
