<svg width="32" height="32" viewBox="0 0 32 32" fill="none" xmlns="http://www.w3.org/2000/svg">
<path d="M11.4999 16C11.5 19.3039 10.6613 22.5538 9.06242 25.445C8.96689 25.6174 8.83834 25.7692 8.68411 25.8919C8.52989 26.0146 8.35301 26.1057 8.16358 26.16C7.97415 26.2143 7.77587 26.2308 7.58007 26.2085C7.38427 26.1862 7.19478 26.1255 7.02242 26.03C6.67433 25.8371 6.41713 25.5137 6.30743 25.1312C6.2531 24.9417 6.23662 24.7435 6.25893 24.5477C6.28123 24.3519 6.34189 24.1624 6.43742 23.99C7.79056 21.5443 8.50026 18.795 8.49992 16C8.50006 14.5568 8.91658 13.1443 9.69953 11.9319C10.4825 10.7195 11.5986 9.75881 12.914 9.16498C14.2294 8.57116 15.6881 8.36947 17.1153 8.5841C18.5425 8.79873 19.8774 9.42056 20.9599 10.375C21.1077 10.5053 21.2283 10.6635 21.3149 10.8405C21.4015 11.0174 21.4524 11.2097 21.4647 11.4063C21.477 11.6029 21.4505 11.8001 21.3866 11.9864C21.3227 12.1728 21.2228 12.3448 21.0924 12.4925C20.9621 12.6402 20.8039 12.7609 20.627 12.8475C20.45 12.9341 20.2577 12.985 20.0611 12.9973C19.8645 13.0096 19.6674 12.9831 19.481 12.9192C19.2946 12.8553 19.1227 12.7553 18.9749 12.625C18.3254 12.0527 17.5245 11.6798 16.6684 11.5512C15.8122 11.4226 14.9372 11.5437 14.1481 11.9C13.3591 12.2562 12.6896 12.8325 12.2199 13.5597C11.7501 14.287 11.5002 15.1343 11.4999 16ZM22.0199 15H21.9999C21.6064 14.9999 21.2286 15.1545 20.948 15.4305C20.6674 15.7064 20.5065 16.0815 20.4999 16.475C20.4472 20.0294 19.7263 23.5421 18.3749 26.83C18.2952 27.013 18.2527 27.21 18.2501 27.4096C18.2475 27.6092 18.2847 27.8073 18.3596 27.9923C18.4345 28.1773 18.5456 28.3455 18.6863 28.487C18.8271 28.6286 18.9946 28.7406 19.1792 28.8165C19.3638 28.8925 19.5617 28.9308 19.7613 28.9293C19.9609 28.9278 20.1582 28.8865 20.3416 28.8078C20.525 28.729 20.6909 28.6145 20.8295 28.4709C20.968 28.3272 21.0766 28.1574 21.1487 27.9713C22.6439 24.3372 23.4416 20.4542 23.4999 16.525C23.5032 16.3275 23.4675 16.1313 23.3948 15.9476C23.322 15.764 23.2137 15.5965 23.0761 15.4548C22.9385 15.3131 22.7742 15.2 22.5928 15.1219C22.4113 15.0439 22.2162 15.0024 22.0187 15H22.0199ZM14.2424 25.1513C13.8852 24.9788 13.4743 24.9548 13.0995 25.0846C12.7246 25.2144 12.4165 25.4873 12.2424 25.8438C12.0712 26.195 11.8862 26.55 11.6949 26.8963C11.5995 27.0686 11.5389 27.2581 11.5167 27.4539C11.4944 27.6496 11.511 27.8479 11.5654 28.0372C11.6197 28.2266 11.7109 28.4034 11.8336 28.5576C11.9563 28.7117 12.1082 28.8402 12.2805 28.9356C12.4529 29.0311 12.6424 29.0917 12.8382 29.1139C13.0339 29.1361 13.2321 29.1196 13.4215 29.0652C13.6109 29.0108 13.7877 28.9197 13.9419 28.7969C14.096 28.6742 14.2245 28.5224 14.3199 28.35C14.5374 27.9575 14.7462 27.5563 14.9449 27.1563C15.0307 26.9785 15.0806 26.7855 15.0916 26.5884C15.1026 26.3913 15.0747 26.1939 15.0093 26.0077C14.9439 25.8214 14.8424 25.6498 14.7106 25.5029C14.5788 25.3559 14.4193 25.2364 14.2412 25.1513H14.2424ZM15.9999 14.5C15.6021 14.5 15.2206 14.658 14.9393 14.9393C14.658 15.2206 14.4999 15.6022 14.4999 16C14.5006 17.7363 14.3013 19.4668 13.9062 21.1575C13.8154 21.5447 13.8822 21.9521 14.0917 22.2901C14.3013 22.6281 14.6365 22.8691 15.0237 22.96C15.1363 22.9868 15.2517 23.0002 15.3674 23C15.7054 22.9996 16.0334 22.8851 16.2982 22.675C16.5629 22.4649 16.749 22.1716 16.8262 21.8425C17.2747 19.9274 17.5008 17.9669 17.4999 16C17.4999 15.6022 17.3419 15.2206 17.0606 14.9393C16.7793 14.658 16.3977 14.5 15.9999 14.5ZM15.9999 2.5C14.6658 2.49896 13.3389 2.69568 12.0624 3.08375C11.8736 3.14121 11.698 3.23528 11.5456 3.3606C11.3932 3.48592 11.267 3.64004 11.1741 3.81415C11.0812 3.98826 11.0236 4.17895 11.0044 4.37534C10.9853 4.57174 11.005 4.76998 11.0624 4.95875C11.1785 5.34 11.4412 5.65954 11.7928 5.84708C11.9669 5.93994 12.1576 5.99759 12.354 6.01675C12.5504 6.03592 12.7486 6.01621 12.9374 5.95875C14.5067 5.48189 16.1659 5.37901 17.782 5.65836C19.3982 5.9377 20.9266 6.59151 22.2448 7.56746C23.5629 8.5434 24.6344 9.81437 25.3733 11.2787C26.1121 12.7429 26.498 14.3599 26.4999 16C26.501 18.5797 26.2143 21.1514 25.6449 23.6675C25.6013 23.8596 25.596 24.0585 25.6292 24.2527C25.6625 24.4469 25.7336 24.6327 25.8387 24.7994C25.9437 24.966 26.0806 25.1104 26.2415 25.2242C26.4023 25.338 26.584 25.419 26.7762 25.4625C26.8852 25.4878 26.9968 25.5004 27.1087 25.5C27.4487 25.5 27.7786 25.3844 28.0443 25.1723C28.31 24.9602 28.4958 24.6641 28.5712 24.3325C29.1893 21.5981 29.5008 18.8034 29.4999 16C29.496 12.4208 28.0724 8.98933 25.5415 6.45845C23.0106 3.92757 19.5791 2.50397 15.9999 2.5ZM8.55867 6.4675C8.41932 6.32766 8.25373 6.21671 8.0714 6.141C7.88907 6.06529 7.69359 6.02632 7.49617 6.02632C7.29875 6.02632 7.10327 6.06529 6.92094 6.141C6.73862 6.21671 6.57303 6.32766 6.43367 6.4675C5.18158 7.71837 4.18938 9.20464 3.51424 10.8407C2.83911 12.4767 2.49438 14.2302 2.49992 16C2.50399 17.5101 2.1794 19.003 1.54867 20.375C1.46104 20.5548 1.41023 20.7502 1.39924 20.9499C1.38825 21.1496 1.41729 21.3494 1.48467 21.5377C1.55204 21.726 1.65639 21.8989 1.79156 22.0463C1.92674 22.1936 2.09002 22.3125 2.2718 22.3958C2.45358 22.4792 2.65019 22.5253 2.85007 22.5316C3.04994 22.5379 3.24906 22.5041 3.43569 22.4323C3.62232 22.3604 3.79271 22.252 3.93684 22.1134C4.08096 21.9748 4.19591 21.8087 4.27492 21.625C5.0863 19.861 5.50429 17.9416 5.49992 16C5.49603 14.6237 5.76464 13.2602 6.29026 11.9882C6.81588 10.7162 7.58811 9.56085 8.56242 8.58875C8.84321 8.30696 9.00056 7.92516 8.99985 7.52735C8.99915 7.12955 8.84045 6.74831 8.55867 6.4675Z" fill="black"/>
</svg>
