<svg width="32" height="32" viewBox="0 0 32 32" fill="none" xmlns="http://www.w3.org/2000/svg">
<path d="M20 11H12C10.2761 11 8.62279 11.6848 7.40381 12.9038C6.18482 14.1228 5.5 15.7761 5.5 17.5C5.5 19.2239 6.18482 20.8772 7.40381 22.0962C8.62279 23.3152 10.2761 24 12 24H20C21.7239 24 23.3772 23.3152 24.5962 22.0962C25.8152 20.8772 26.5 19.2239 26.5 17.5C26.5 15.7761 25.8152 14.1228 24.5962 12.9038C23.3772 11.6848 21.7239 11 20 11ZM20 21H12C11.0717 21 10.1815 20.6313 9.52513 19.9749C8.86875 19.3185 8.5 18.4283 8.5 17.5C8.5 16.5717 8.86875 15.6815 9.52513 15.0251C10.1815 14.3687 11.0717 14 12 14H20C20.9283 14 21.8185 14.3687 22.4749 15.0251C23.1313 15.6815 23.5 16.5717 23.5 17.5C23.5 18.4283 23.1313 19.3185 22.4749 19.9749C21.8185 20.6313 20.9283 21 20 21ZM14 17.5C14 17.8956 13.8827 18.2822 13.6629 18.6111C13.4432 18.94 13.1308 19.1964 12.7654 19.3478C12.3999 19.4991 11.9978 19.5387 11.6098 19.4616C11.2219 19.3844 10.8655 19.1939 10.5858 18.9142C10.3061 18.6345 10.1156 18.2781 10.0384 17.8902C9.96126 17.5022 10.0009 17.1001 10.1522 16.7346C10.3036 16.3692 10.56 16.0568 10.8889 15.8371C11.2178 15.6173 11.6044 15.5 12 15.5C12.5304 15.5 13.0391 15.7107 13.4142 16.0858C13.7893 16.4609 14 16.9696 14 17.5ZM22 17.5C22 17.8956 21.8827 18.2822 21.6629 18.6111C21.4432 18.94 21.1308 19.1964 20.7654 19.3478C20.3999 19.4991 19.9978 19.5387 19.6098 19.4616C19.2219 19.3844 18.8655 19.1939 18.5858 18.9142C18.3061 18.6345 18.1156 18.2781 18.0384 17.8902C17.9613 17.5022 18.0009 17.1001 18.1522 16.7346C18.3036 16.3692 18.56 16.0568 18.8889 15.8371C19.2178 15.6173 19.6044 15.5 20 15.5C20.5304 15.5 21.0391 15.7107 21.4142 16.0858C21.7893 16.4609 22 16.9696 22 17.5ZM26.5 3.5C25.5694 3.50003 24.6618 3.78854 23.902 4.32581C23.1422 4.86307 22.5677 5.62267 22.2575 6.5H9.7425C9.38859 5.49928 8.69232 4.65588 7.77673 4.11884C6.86115 3.5818 5.7852 3.38571 4.73903 3.56521C3.69286 3.7447 2.74381 4.28824 2.05961 5.09976C1.3754 5.91128 1.00009 6.93854 1 8V17.5C1.00331 20.4164 2.1633 23.2123 4.22548 25.2745C6.28766 27.3367 9.08363 28.4967 12 28.5H20C22.9164 28.4967 25.7123 27.3367 27.7745 25.2745C29.8367 23.2123 30.9967 20.4164 31 17.5V8C31 6.80653 30.5259 5.66193 29.682 4.81802C28.8381 3.97411 27.6935 3.5 26.5 3.5ZM28 17.5C27.9977 19.621 27.1541 21.6545 25.6543 23.1543C24.1545 24.6541 22.121 25.4977 20 25.5H12C9.87898 25.4977 7.84549 24.6541 6.3457 23.1543C4.84591 21.6545 4.00232 19.621 4 17.5V8C4 7.60218 4.15804 7.22064 4.43934 6.93934C4.72064 6.65804 5.10218 6.5 5.5 6.5C5.89782 6.5 6.27936 6.65804 6.56066 6.93934C6.84196 7.22064 7 7.60218 7 8C7 8.39782 7.15804 8.77936 7.43934 9.06066C7.72064 9.34196 8.10218 9.5 8.5 9.5H23.5C23.8978 9.5 24.2794 9.34196 24.5607 9.06066C24.842 8.77936 25 8.39782 25 8C25 7.60218 25.158 7.22064 25.4393 6.93934C25.7206 6.65804 26.1022 6.5 26.5 6.5C26.8978 6.5 27.2794 6.65804 27.5607 6.93934C27.842 7.22064 28 7.60218 28 8V17.5Z" fill="black"/>
</svg>
