<svg width="32" height="32" viewBox="0 0 32 32" fill="none" xmlns="http://www.w3.org/2000/svg">
<path d="M18.2412 1.84621C18.0563 1.69288 17.8372 1.58622 17.6025 1.5352C17.3677 1.48418 17.1242 1.49028 16.8923 1.553C16.6604 1.61573 16.4469 1.73323 16.2699 1.89563C16.0929 2.05802 15.9574 2.26057 15.875 2.48621L13.3837 9.31246L10.9225 6.92371C10.7704 6.77601 10.5887 6.66224 10.3894 6.58989C10.1902 6.51753 9.97781 6.48825 9.76639 6.50395C9.55496 6.51966 9.34927 6.58001 9.16287 6.68102C8.97647 6.78203 8.8136 6.92141 8.685 7.08996C5.90875 10.7275 4.5 14.3987 4.5 18C4.5 21.0499 5.7116 23.975 7.86827 26.1317C10.0249 28.2884 12.95 29.5 16 29.5C19.05 29.5 21.9751 28.2884 24.1317 26.1317C26.2884 23.975 27.5 21.0499 27.5 18C27.5 10.3562 21.025 4.15621 18.2412 1.84621ZM16 26.5C13.7464 26.4976 11.5857 25.6014 9.99215 24.0078C8.39859 22.4142 7.50232 20.2536 7.5 18C7.5 15.5075 8.375 12.9225 10.0887 10.295L12.955 13.0762C13.1346 13.2505 13.3549 13.377 13.5959 13.4444C13.8368 13.5117 14.0908 13.5177 14.3347 13.4618C14.5786 13.4059 14.8047 13.2898 14.9922 13.1242C15.1798 12.9587 15.323 12.7488 15.4087 12.5137L17.935 5.58871C20.6737 8.20121 24.5 12.7862 24.5 18C24.4977 20.2536 23.6014 22.4142 22.0078 24.0078C20.4143 25.6014 18.2536 26.4976 16 26.5Z" fill="black"/>
</svg>
