<svg width="32" height="32" viewBox="0 0 32 32" fill="none" xmlns="http://www.w3.org/2000/svg">
<path d="M27.4312 5.56498L21.2588 3.71373L23.125 2.86748C23.4872 2.70172 23.7687 2.39887 23.9076 2.02555C24.0465 1.65224 24.0314 1.23904 23.8656 0.876851C23.7835 0.697515 23.667 0.536101 23.5225 0.401825C23.378 0.267549 23.2085 0.16304 23.0237 0.094267C22.6504 -0.0446271 22.2372 -0.0295339 21.875 0.136226L16.6525 2.51123C13.9311 2.60416 11.3519 3.74959 9.45815 5.70627C7.56442 7.66296 6.50392 10.2782 6.5 13.0012V26.0012C6.5 26.3991 6.65804 26.7806 6.93934 27.0619C7.22064 27.3432 7.60218 27.5012 8 27.5012C8.39782 27.5012 8.77936 27.3432 9.06066 27.0619C9.34196 26.7806 9.5 26.3991 9.5 26.0012V22.5012H11.5V29.0012C11.5 29.6643 11.7634 30.3002 12.2322 30.769C12.7011 31.2378 13.337 31.5012 14 31.5012H20C20.663 31.5012 21.2989 31.2378 21.7678 30.769C22.2366 30.3002 22.5 29.6643 22.5 29.0012V13.0012C22.498 11.8047 22.1067 10.6414 21.385 9.68703C20.6634 8.73266 19.6507 8.03912 18.5 7.71123V6.01748L26.5688 8.43873C26.7086 8.48078 26.854 8.50184 27 8.50123C27.3598 8.50089 27.7075 8.37123 27.9797 8.13588C28.2519 7.90054 28.4304 7.57519 28.4827 7.2192C28.535 6.8632 28.4575 6.50027 28.2645 6.1966C28.0715 5.89293 27.7758 5.66876 27.4312 5.56498ZM9.5 19.5012V13.0012C9.50228 11.2731 10.1003 9.59857 11.1932 8.25993C12.2862 6.9213 13.8072 6.0004 15.5 5.65248V7.71123C14.3491 8.03875 13.3362 8.7322 12.6145 9.68665C11.8928 10.6411 11.5016 11.8046 11.5 13.0012V19.5012H9.5ZM14.5 28.5012V22.5012H19.5V28.5012H14.5ZM19.5 13.0012V19.5012H14.5V13.0012C14.5 12.3382 14.7634 11.7023 15.2322 11.2335C15.7011 10.7646 16.337 10.5012 17 10.5012C17.663 10.5012 18.2989 10.7646 18.7678 11.2335C19.2366 11.7023 19.5 12.3382 19.5 13.0012Z" fill="black"/>
</svg>
