<svg width="32" height="32" viewBox="0 0 32 32" fill="none" xmlns="http://www.w3.org/2000/svg">
<path d="M22.2025 19.95C21.8885 20.9482 21.3382 21.8558 20.5982 22.5958C19.8583 23.3357 18.9507 23.886 17.9525 24.2C17.8068 24.2453 17.6551 24.2685 17.5025 24.2688C17.1439 24.269 16.7971 24.1408 16.5249 23.9074C16.2528 23.674 16.0732 23.3508 16.0188 22.9964C15.9644 22.642 16.0387 22.2798 16.2284 21.9755C16.418 21.6712 16.7104 21.4448 17.0525 21.3375C17.5904 21.1685 18.0796 20.872 18.4783 20.4733C18.877 20.0746 19.1735 19.5855 19.3425 19.0475C19.4016 18.8596 19.4971 18.6851 19.6237 18.5341C19.7502 18.383 19.9052 18.2584 20.0799 18.1673C20.4327 17.9833 20.8442 17.9469 21.2237 18.0663C21.4117 18.1254 21.5862 18.2209 21.7372 18.3474C21.8882 18.4739 22.0129 18.629 22.104 18.8037C22.1951 18.9784 22.2509 19.1693 22.2683 19.3656C22.2856 19.5618 22.2641 19.7596 22.205 19.9475L22.2025 19.95ZM27.5 18C27.5 21.05 26.2884 23.9751 24.1317 26.1317C21.9751 28.2884 19.05 29.5 16 29.5C12.95 29.5 10.0249 28.2884 7.86827 26.1317C5.7116 23.9751 4.5 21.05 4.5 18C4.5 14.3988 5.90875 10.7275 8.685 7.09002C8.8136 6.92147 8.97647 6.78209 9.16287 6.68109C9.34927 6.58008 9.55496 6.51973 9.76639 6.50402C9.97781 6.48831 10.1902 6.5176 10.3894 6.58995C10.5887 6.6623 10.7704 6.77608 10.9225 6.92377L13.3837 9.31252L15.875 2.48627C15.9574 2.26042 16.0928 2.05767 16.27 1.89511C16.4471 1.73256 16.6607 1.61496 16.8928 1.55222C17.1248 1.48948 17.3686 1.48345 17.6035 1.53462C17.8384 1.5858 18.0575 1.69268 18.2425 1.84627C21.025 4.15627 27.5 10.3563 27.5 18ZM24.5 18C24.5 12.7863 20.6737 8.20127 17.935 5.58877L15.4087 12.5138C15.323 12.7488 15.1798 12.9587 14.9922 13.1243C14.8047 13.2899 14.5786 13.4059 14.3347 13.4618C14.0908 13.5177 13.8368 13.5118 13.5959 13.4444C13.3549 13.3771 13.1346 13.2505 12.955 13.0763L10.0887 10.295C8.375 12.9225 7.5 15.5075 7.5 18C7.5 20.2544 8.39553 22.4164 9.98959 24.0104C11.5837 25.6045 13.7457 26.5 16 26.5C18.2543 26.5 20.4163 25.6045 22.0104 24.0104C23.6045 22.4164 24.5 20.2544 24.5 18Z" fill="black"/>
</svg>
