<svg width="32" height="32" viewBox="0 0 32 32" fill="none" xmlns="http://www.w3.org/2000/svg">
<path d="M27 7.5H22.5V6.5C22.5 5.57174 22.1313 4.6815 21.4749 4.02513C20.8185 3.36875 19.9283 3 19 3H13C12.0717 3 11.1815 3.36875 10.5251 4.02513C9.86875 4.6815 9.5 5.57174 9.5 6.5V7.5H5C4.33696 7.5 3.70107 7.76339 3.23223 8.23223C2.76339 8.70107 2.5 9.33696 2.5 10V26C2.5 26.663 2.76339 27.2989 3.23223 27.7678C3.70107 28.2366 4.33696 28.5 5 28.5H27C27.663 28.5 28.2989 28.2366 28.7678 27.7678C29.2366 27.2989 29.5 26.663 29.5 26V10C29.5 9.33696 29.2366 8.70107 28.7678 8.23223C28.2989 7.76339 27.663 7.5 27 7.5ZM12.5 6.5C12.5 6.36739 12.5527 6.24021 12.6464 6.14645C12.7402 6.05268 12.8674 6 13 6H19C19.1326 6 19.2598 6.05268 19.3536 6.14645C19.4473 6.24021 19.5 6.36739 19.5 6.5V7.5H12.5V6.5ZM26.5 25.5H5.5V10.5H26.5V25.5ZM20.5 18C20.5 18.3978 20.342 18.7794 20.0607 19.0607C19.7794 19.342 19.3978 19.5 19 19.5H17.5V21C17.5 21.3978 17.342 21.7794 17.0607 22.0607C16.7794 22.342 16.3978 22.5 16 22.5C15.6022 22.5 15.2206 22.342 14.9393 22.0607C14.658 21.7794 14.5 21.3978 14.5 21V19.5H13C12.6022 19.5 12.2206 19.342 11.9393 19.0607C11.658 18.7794 11.5 18.3978 11.5 18C11.5 17.6022 11.658 17.2206 11.9393 16.9393C12.2206 16.658 12.6022 16.5 13 16.5H14.5V15C14.5 14.6022 14.658 14.2206 14.9393 13.9393C15.2206 13.658 15.6022 13.5 16 13.5C16.3978 13.5 16.7794 13.658 17.0607 13.9393C17.342 14.2206 17.5 14.6022 17.5 15V16.5H19C19.3978 16.5 19.7794 16.658 20.0607 16.9393C20.342 17.2206 20.5 17.6022 20.5 18Z" fill="black"/>
</svg>
