<svg width="32" height="32" viewBox="0 0 32 32" fill="none" xmlns="http://www.w3.org/2000/svg">
<path d="M27 10.5H21.5V5C21.5 4.33696 21.2366 3.70107 20.7678 3.23223C20.2989 2.76339 19.663 2.5 19 2.5H13C12.337 2.5 11.7011 2.76339 11.2322 3.23223C10.7634 3.70107 10.5 4.33696 10.5 5V10.5H5C4.33696 10.5 3.70107 10.7634 3.23223 11.2322C2.76339 11.7011 2.5 12.337 2.5 13V19C2.5 19.663 2.76339 20.2989 3.23223 20.7678C3.70107 21.2366 4.33696 21.5 5 21.5H10.5V27C10.5 27.663 10.7634 28.2989 11.2322 28.7678C11.7011 29.2366 12.337 29.5 13 29.5H19C19.663 29.5 20.2989 29.2366 20.7678 28.7678C21.2366 28.2989 21.5 27.663 21.5 27V21.5H27C27.663 21.5 28.2989 21.2366 28.7678 20.7678C29.2366 20.2989 29.5 19.663 29.5 19V13C29.5 12.337 29.2366 11.7011 28.7678 11.2322C28.2989 10.7634 27.663 10.5 27 10.5ZM26.5 18.5H20C19.6022 18.5 19.2206 18.658 18.9393 18.9393C18.658 19.2206 18.5 19.6022 18.5 20V26.5H13.5V20C13.5 19.6022 13.342 19.2206 13.0607 18.9393C12.7794 18.658 12.3978 18.5 12 18.5H5.5V13.5H12C12.3978 13.5 12.7794 13.342 13.0607 13.0607C13.342 12.7794 13.5 12.3978 13.5 12V5.5H18.5V12C18.5 12.3978 18.658 12.7794 18.9393 13.0607C19.2206 13.342 19.6022 13.5 20 13.5H26.5V18.5Z" fill="black"/>
</svg>
