<svg width="32" height="32" viewBox="0 0 32 32" fill="none" xmlns="http://www.w3.org/2000/svg">
<path d="M20.5061 9.49998C20.5061 9.69776 20.4475 9.8911 20.3376 10.0556C20.2277 10.22 20.0716 10.3482 19.8888 10.4239C19.7061 10.4995 19.505 10.5194 19.3111 10.4808C19.1171 10.4422 18.9389 10.3469 18.799 10.2071C18.6592 10.0672 18.5639 9.88905 18.5254 9.69507C18.4868 9.50109 18.5066 9.30002 18.5823 9.1173C18.658 8.93457 18.7861 8.77839 18.9506 8.66851C19.115 8.55863 19.3084 8.49998 19.5061 8.49998C19.7714 8.49998 20.0257 8.60534 20.2133 8.79288C20.4008 8.98041 20.5061 9.23477 20.5061 9.49998ZM25.5961 19.3175C23.0486 22.555 18.9299 24.2925 13.3536 24.485L10.4786 31.2025C10.439 31.292 10.3739 31.368 10.2914 31.4209C10.209 31.4738 10.1128 31.5013 10.0149 31.5H9.9824C9.87947 31.4934 9.7811 31.4552 9.70077 31.3905C9.62043 31.3258 9.56205 31.2379 9.53365 31.1387L7.60615 24.3887L0.862396 22.4612C0.763274 22.4327 0.675404 22.3742 0.61083 22.2938C0.546257 22.2133 0.508141 22.1149 0.501706 22.0119C0.495272 21.909 0.520835 21.8066 0.57489 21.7187C0.628946 21.6309 0.708849 21.5619 0.803646 21.5212L7.52115 18.6462C7.7149 13.0687 9.45365 8.95123 12.6911 6.40373C17.9161 2.29123 25.4286 3.65373 26.8811 3.96873C27.1629 4.02946 27.4213 4.17011 27.6252 4.37383C27.8292 4.57756 27.9701 4.83575 28.0311 5.11748C28.3461 6.57123 29.7086 14.0875 25.5961 19.3112V19.3175ZM21.5961 21.4425C20.1767 21.2244 18.8823 20.5052 17.9475 19.4151C17.0126 18.3249 16.4991 16.9361 16.4999 15.5C15.0652 15.498 13.6786 14.9827 12.5907 14.0473C11.5029 13.1119 10.7856 11.8182 10.5686 10.4C9.2849 12.65 8.5949 15.525 8.51115 18.9925C8.50887 19.0882 8.47915 19.1813 8.42552 19.2606C8.3719 19.3399 8.29662 19.4022 8.20865 19.44L2.4899 21.8875L8.14865 23.5125C8.23045 23.5358 8.30496 23.5796 8.36511 23.6398C8.42526 23.6999 8.46907 23.7744 8.4924 23.8562L10.1086 29.515L12.5599 23.7962C12.5977 23.7083 12.66 23.633 12.7393 23.5794C12.8186 23.5257 12.9117 23.496 13.0074 23.4937C16.4774 23.4062 19.3511 22.7162 21.6011 21.4312L21.5961 21.4425ZM27.0536 5.32998C27.0334 5.23586 26.9864 5.14959 26.9184 5.08151C26.8503 5.01344 26.764 4.96647 26.6699 4.94623C24.7917 4.555 22.8698 4.41586 20.9549 4.53248C17.8749 4.73123 15.2986 5.62498 13.3099 7.18998C12.6492 7.70967 12.0525 8.30592 11.5324 8.96623C11.4539 9.70368 11.5405 10.4494 11.7858 11.1492C12.0311 11.8491 12.429 12.4856 12.9507 13.0127C13.4724 13.5398 14.1048 13.9442 14.8021 14.1967C15.4994 14.4492 16.2442 14.5434 16.9824 14.4725C17.0557 14.4655 17.1296 14.4748 17.1989 14.4998C17.2682 14.5247 17.3311 14.5646 17.3832 14.6167C17.4352 14.6688 17.4752 14.7317 17.5001 14.801C17.525 14.8702 17.5344 14.9442 17.5274 15.0175C17.4566 15.7559 17.551 16.5009 17.8038 17.1984C18.0565 17.8958 18.4614 18.5283 18.9888 19.0499C19.5163 19.5716 20.1533 19.9693 20.8535 20.2143C21.5538 20.4592 22.2998 20.5453 23.0374 20.4662C23.6962 19.947 24.2911 19.3516 24.8099 18.6925C26.3749 16.705 27.2686 14.1325 27.4674 11.0462C27.5839 9.1309 27.4448 7.20857 27.0536 5.32998Z" fill="black"/>
</svg>
