<svg width="32" height="32" viewBox="0 0 32 32" fill="none" xmlns="http://www.w3.org/2000/svg">
<path d="M21.4999 9.49997C21.4999 9.89554 21.3826 10.2822 21.1629 10.6111C20.9431 10.94 20.6308 11.1964 20.2653 11.3477C19.8999 11.4991 19.4977 11.5387 19.1098 11.4615C18.7218 11.3844 18.3654 11.1939 18.0857 10.9142C17.806 10.6345 17.6155 10.2781 17.5384 9.89015C17.4612 9.50219 17.5008 9.10006 17.6522 8.73461C17.8036 8.36915 18.0599 8.0568 18.3888 7.83703C18.7177 7.61727 19.1044 7.49997 19.4999 7.49997C20.0304 7.49997 20.5391 7.71069 20.9142 8.08576C21.2892 8.46083 21.4999 8.96954 21.4999 9.49997ZM29.4549 11.1812C29.2312 14.6812 28.1949 17.6225 26.3749 19.9312C23.7324 23.2887 19.5699 25.1425 13.9924 25.4512L11.3749 31.125C11.2554 31.3857 11.0637 31.6067 10.8224 31.7618C10.5812 31.9169 10.3005 31.9995 10.0137 32C9.97953 32 9.94578 32 9.91244 32C9.60969 31.9795 9.32026 31.8678 9.08236 31.6794C8.84446 31.491 8.66927 31.235 8.57994 30.945L6.80994 25.195L1.05994 23.4212C0.769664 23.3318 0.513384 23.1563 0.325007 22.918C0.136631 22.6797 0.0250342 22.3899 0.00498192 22.0868C-0.0150704 21.7837 0.0573663 21.4817 0.212709 21.2206C0.368052 20.9596 0.59898 20.7519 0.874943 20.625L6.54994 18.01C6.85619 12.43 8.71244 8.26747 12.0699 5.62497C14.3812 3.80497 17.3199 2.76997 20.8199 2.54497C22.9196 2.41794 25.0269 2.57095 27.0862 2.99997C27.5552 3.10163 27.9851 3.33613 28.3244 3.67548C28.6638 4.01484 28.8983 4.44469 28.9999 4.91372C29.4291 6.97343 29.5821 9.08112 29.4549 11.1812ZM18.9412 21.5312C18.4346 21.2296 17.9673 20.8664 17.5499 20.45C16.4645 19.3672 15.766 17.957 15.5624 16.4375C14.0429 16.2339 12.6327 15.5354 11.5499 14.45C11.1342 14.0327 10.7718 13.5653 10.4712 13.0587C9.88786 14.7654 9.56703 16.7525 9.50869 19.02C9.50166 19.3008 9.41591 19.574 9.26122 19.8085C9.10652 20.0429 8.88909 20.2293 8.63369 20.3462L5.68869 21.705L8.45119 22.5575C8.68479 22.6296 8.89722 22.7577 9.06998 22.9307C9.24274 23.1037 9.37061 23.3163 9.44244 23.55L10.2924 26.3112L11.6537 23.3625C11.7706 23.1071 11.957 22.8896 12.1914 22.7349C12.4259 22.5803 12.6991 22.4945 12.9799 22.4875C15.2433 22.4366 17.2304 22.1179 18.9412 21.5312ZM26.1337 5.86622C24.2949 5.51122 18.1524 4.65622 13.9249 7.98247C13.4037 8.39217 12.9261 8.85462 12.4999 9.36247C12.4805 9.93076 12.5825 10.4966 12.799 11.0224C13.0156 11.5482 13.3417 12.0217 13.7558 12.4115C14.1698 12.8013 14.6621 13.0983 15.2 13.2827C15.7379 13.4672 16.3089 13.5349 16.8749 13.4812C17.0951 13.4601 17.3171 13.488 17.5252 13.5627C17.7333 13.6375 17.9223 13.7574 18.0787 13.9137C18.2351 14.0701 18.3549 14.2591 18.4297 14.4672C18.5045 14.6753 18.5323 14.8974 18.5112 15.1175C18.4575 15.6841 18.5253 16.2557 18.7101 16.794C18.8949 17.3323 19.1925 17.825 19.583 18.2391C19.9734 18.6532 20.4478 18.9792 20.9743 19.1954C21.5008 19.4115 22.0674 19.5128 22.6362 19.4925C23.1422 19.0682 23.6029 18.5927 24.0112 18.0737C27.3449 13.8512 26.4887 7.70622 26.1337 5.86622Z" fill="black"/>
</svg>
