<svg width="32" height="32" viewBox="0 0 32 32" fill="none" xmlns="http://www.w3.org/2000/svg">
<path d="M20.4999 9.49998C20.4999 9.69776 20.4413 9.8911 20.3314 10.0556C20.2215 10.22 20.0653 10.3482 19.8826 10.4239C19.6999 10.4995 19.4988 10.5194 19.3048 10.4808C19.1108 10.4422 18.9326 10.3469 18.7928 10.2071C18.6529 10.0672 18.5577 9.88905 18.5191 9.69507C18.4805 9.50109 18.5003 9.30002 18.576 9.1173C18.6517 8.93457 18.7799 8.77839 18.9443 8.66851C19.1088 8.55863 19.3021 8.49998 19.4999 8.49998C19.7651 8.49998 20.0195 8.60534 20.207 8.79287C20.3945 8.98041 20.4999 9.23476 20.4999 9.49998ZM24.5887 20.5C21.2137 23.8637 15.8474 25.2175 8.57865 24.5462C8.78115 26.2296 9.08823 28.0137 9.4999 29.8987C9.52871 30.0275 9.50546 30.1624 9.43521 30.2741C9.36497 30.3858 9.25343 30.4652 9.1249 30.495C9.08955 30.5024 9.05353 30.5062 9.0174 30.5062C8.90344 30.506 8.79297 30.4668 8.70431 30.3952C8.61565 30.3236 8.55412 30.2238 8.5299 30.1125C8.1133 28.2396 7.79206 26.3467 7.5674 24.4412C5.66323 24.2155 3.77165 23.8939 1.8999 23.4775C1.83363 23.466 1.77035 23.4413 1.71385 23.4048C1.65735 23.3683 1.60879 23.3208 1.57109 23.2651C1.53338 23.2094 1.50729 23.1467 1.49439 23.0807C1.48149 23.0147 1.48204 22.9468 1.49601 22.881C1.50997 22.8152 1.53707 22.7529 1.57567 22.6978C1.61427 22.6427 1.66359 22.596 1.72067 22.5604C1.77776 22.5249 1.84143 22.5012 1.90788 22.4908C1.97432 22.4804 2.04219 22.4835 2.1074 22.5C3.9899 22.9125 5.7724 23.22 7.4549 23.4225C6.7874 16.1512 8.14115 10.7825 11.4999 7.41248C16.7887 2.11123 25.2349 3.61248 26.8749 3.96748C27.1586 4.02887 27.4187 4.17067 27.6239 4.37594C27.8292 4.58121 27.971 4.84125 28.0324 5.12498C28.3874 6.75998 29.8887 15.205 24.5887 20.5ZM23.8824 19.7925C23.9837 19.69 24.0824 19.585 24.1799 19.48C21.1542 19.2812 18.304 17.9894 16.16 15.8452C14.0161 13.701 12.7246 10.8507 12.5262 7.82498C12.4199 7.92373 12.3149 8.02248 12.2124 8.12498C9.03365 11.3037 7.78115 16.4725 8.46865 23.5275C15.5249 24.2162 20.6949 22.965 23.8824 19.7862V19.7925ZM27.0549 5.33123C27.0349 5.23632 26.9878 5.14928 26.9192 5.0807C26.8506 5.01212 26.7636 4.96496 26.6687 4.94498C24.5947 4.5198 22.4696 4.40104 20.3612 4.59248C17.6374 4.85748 15.3374 5.67248 13.4999 7.01748C13.5045 10.0614 14.7158 12.9793 16.8682 15.1317C19.0205 17.2841 21.9385 18.4954 24.9824 18.5C26.3274 16.6625 27.1424 14.3625 27.4074 11.6375C27.5988 9.52947 27.48 7.40478 27.0549 5.33123Z" fill="black"/>
</svg>
