<svg width="32" height="32" viewBox="0 0 32 32" fill="none" xmlns="http://www.w3.org/2000/svg">
<path d="M30.4925 11.5838L7.4925 3.58377C7.26651 3.50521 7.02502 3.48186 6.78817 3.51564C6.55131 3.54943 6.32598 3.63938 6.13097 3.77799C5.93597 3.9166 5.77695 4.09985 5.66718 4.31243C5.55742 4.52501 5.50009 4.76077 5.5 5.00002V27C5.5 27.3978 5.65804 27.7794 5.93934 28.0607C6.22064 28.342 6.60218 28.5 7 28.5C7.39782 28.5 7.77936 28.342 8.06066 28.0607C8.34196 27.7794 8.5 27.3978 8.5 27V22.0663L30.4925 14.4163C30.7864 14.3137 31.041 14.1223 31.2213 13.8686C31.4015 13.6148 31.4983 13.3113 31.4983 13C31.4983 12.6888 31.4015 12.3852 31.2213 12.1315C31.041 11.8777 30.7864 11.6863 30.4925 11.5838ZM8.5 18.89V7.11002L25.4338 13L8.5 18.89Z" fill="black"/>
</svg>
