<svg width="32" height="32" viewBox="0 0 32 32" fill="none" xmlns="http://www.w3.org/2000/svg">
<path d="M27.625 4.62497C27.3634 4.50523 27.0729 4.46325 26.7881 4.50403C26.5033 4.54481 26.2362 4.66663 26.0188 4.85497C22.93 7.53122 20.4525 6.51872 16.6663 4.64497C13.1488 2.90872 8.77126 0.742473 4.01751 4.85997C3.85423 5.0015 3.72346 5.17664 3.63414 5.3734C3.54482 5.57016 3.49907 5.78389 3.50001 5.99997V27C3.50001 27.3978 3.65805 27.7793 3.93935 28.0606C4.22066 28.3419 4.60219 28.5 5.00001 28.5C5.39784 28.5 5.77937 28.3419 6.06067 28.0606C6.34198 27.7793 6.50001 27.3978 6.50001 27V21.7137C9.35501 19.5725 11.7625 20.575 15.335 22.3387C17.3638 23.3387 19.6775 24.4887 22.185 24.4887C24.025 24.4887 25.97 23.8712 27.9825 22.1287C28.1444 21.9884 28.2743 21.8151 28.3635 21.6204C28.4528 21.4257 28.4993 21.2142 28.5 21V5.99997C28.5022 5.71083 28.4208 5.42721 28.2655 5.18327C28.1103 4.93932 27.8879 4.74544 27.625 4.62497ZM22.185 9.48872C23.3298 9.48966 24.4611 9.24096 25.5 8.75997V13.28C24.125 14.3112 22.85 14.6125 21.5 14.45V9.45747C21.7263 9.47622 21.955 9.48872 22.185 9.48872ZM18.5 8.75997V13.5212C17.92 13.2712 17.3125 12.9712 16.665 12.6462C15.6365 12.1167 14.5799 11.6435 13.5 11.2287V6.46872C14.08 6.71872 14.6875 7.01872 15.335 7.34372C16.3633 7.87335 17.4199 8.34615 18.5 8.75997ZM10.5 5.53997V10.53C9.12839 10.4119 7.74969 10.6536 6.50001 11.2312V6.70997C7.87501 5.67747 9.15001 5.37497 10.5 5.53997ZM9.81501 17.5C8.6699 17.5002 7.53861 17.7502 6.50001 18.2325V14.7137C7.87501 13.6812 9.15001 13.38 10.5 13.5425V17.535C10.2738 17.5162 10.045 17.5 9.81501 17.5ZM13.5 18.2325V14.4712C14.08 14.7212 14.6875 15.0212 15.335 15.3462C16.3633 15.8759 17.4199 16.3486 18.5 16.7625V20.5237C17.92 20.2675 17.3125 19.9737 16.665 19.6487C15.637 19.1186 14.5803 18.6458 13.5 18.2325ZM21.5 21.4525V17.46C21.7263 17.4775 21.955 17.49 22.185 17.49C23.3301 17.4907 24.4615 17.2411 25.5 16.7587V20.2825C24.125 21.315 22.85 21.615 21.5 21.4525Z" fill="black"/>
</svg>
