<svg width="32" height="32" viewBox="0 0 32 32" fill="none" xmlns="http://www.w3.org/2000/svg">
<path d="M4.01751 4.85997C3.85423 5.00151 3.72346 5.17664 3.63414 5.3734C3.54482 5.57016 3.49907 5.78389 3.50001 5.99997V27C3.50001 27.3978 3.65805 27.7793 3.93935 28.0606C4.22066 28.3419 4.60219 28.5 5.00001 28.5C5.39784 28.5 5.77937 28.3419 6.06067 28.0606C6.34198 27.7793 6.50001 27.3978 6.50001 27V21.715C9.35501 19.575 11.7625 20.575 15.335 22.34C17.3638 23.34 19.6775 24.49 22.185 24.49C24.025 24.49 25.97 23.8725 27.9825 22.13C28.1445 21.9895 28.2745 21.816 28.3638 21.6211C28.4531 21.4262 28.4995 21.2144 28.5 21V5.99997C28.5001 5.71237 28.4174 5.43081 28.262 5.18884C28.1065 4.94688 27.8848 4.7547 27.6231 4.63523C27.3615 4.51575 27.0711 4.474 26.7864 4.51495C26.5017 4.55591 26.2348 4.67784 26.0175 4.86622C22.9288 7.54247 20.4513 6.52997 16.665 4.65622C13.1488 2.90872 8.77126 0.742475 4.01751 4.85997ZM25.5 20.2825C22.645 22.4237 20.2375 21.4212 16.665 19.6575C13.77 18.22 10.2913 16.5 6.50001 18.2337V6.71122C9.35501 4.57122 11.7625 5.57122 15.335 7.33622C17.3638 8.33622 19.6775 9.48622 22.185 9.48622C23.3297 9.48794 24.4609 9.2401 25.5 8.75997V20.2825Z" fill="black"/>
</svg>
