<svg width="32" height="32" viewBox="0 0 32 32" fill="none" xmlns="http://www.w3.org/2000/svg">
<path d="M29.2687 6.19875C29.1335 5.98464 28.9462 5.80827 28.7243 5.68609C28.5024 5.5639 28.2533 5.49989 28 5.5H4C3.69764 5.49985 3.40231 5.59108 3.15271 5.76172C2.90311 5.93236 2.7109 6.17445 2.6013 6.45623C2.49169 6.73802 2.4698 7.04635 2.5385 7.3408C2.60719 7.63524 2.76326 7.90206 2.98625 8.10625L7.875 12.5887L2.8975 17.9825C2.69969 18.1968 2.56863 18.464 2.52034 18.7516C2.47205 19.0392 2.50863 19.3346 2.62561 19.6017C2.74259 19.8688 2.93489 20.0961 3.17899 20.2556C3.42309 20.4151 3.70839 20.5001 4 20.5H19.91L16.6462 27.355C16.5558 27.5335 16.502 27.7282 16.488 27.9278C16.4739 28.1273 16.5 28.3277 16.5645 28.517C16.6291 28.7064 16.7309 28.8809 16.8639 29.0304C16.9969 29.1798 17.1585 29.3011 17.3391 29.3871C17.5197 29.4732 17.7157 29.5223 17.9155 29.5314C18.1154 29.5406 18.315 29.5097 18.5028 29.4405C18.6905 29.3714 18.8625 29.2654 19.0086 29.1287C19.1548 28.9921 19.2721 28.8277 19.3537 28.645L29.3537 7.645C29.4629 7.41637 29.5123 7.16383 29.4974 6.91093C29.4826 6.65804 29.4039 6.41303 29.2687 6.19875ZM21.3387 17.5H7.42625L11.1025 13.5175C11.2367 13.3724 11.3409 13.2022 11.409 13.0167C11.4772 12.8312 11.5081 12.634 11.4999 12.4366C11.4916 12.2391 11.4444 12.0452 11.361 11.866C11.2776 11.6868 11.1596 11.5259 11.0137 11.3925L7.85625 8.5H25.625L21.3387 17.5Z" fill="black"/>
</svg>
