<svg width="32" height="32" viewBox="0 0 32 32" fill="none" xmlns="http://www.w3.org/2000/svg">
<path d="M22.0863 6.09005C20.5004 4.41958 18.7154 2.95024 16.7712 1.71505C16.5382 1.57537 16.2717 1.50159 16 1.50159C15.7283 1.50159 15.4618 1.57537 15.2288 1.71505C13.2846 2.95024 11.4996 4.41958 9.91375 6.09005C6.375 9.8088 4.5 13.9276 4.5 18.0001C4.5 21.05 5.7116 23.9751 7.86827 26.1318C10.0249 28.2884 12.95 29.5001 16 29.5001C19.05 29.5001 21.9751 28.2884 24.1317 26.1318C26.2884 23.9751 27.5 21.05 27.5 18.0001C27.5 13.9276 25.625 9.8088 22.0863 6.09005ZM12.5 23.0001C12.5 21.3338 13.1912 19.7176 14.5562 18.1938C14.9981 17.7023 15.4811 17.2494 16 16.8401C16.5189 17.2494 17.0019 17.7023 17.4438 18.1938C18.8088 19.7176 19.5 21.3338 19.5 23.0001C19.5 23.9283 19.1313 24.8185 18.4749 25.4749C17.8185 26.1313 16.9283 26.5001 16 26.5001C15.0717 26.5001 14.1815 26.1313 13.5251 25.4749C12.8687 24.8185 12.5 23.9283 12.5 23.0001ZM22.48 23.4926C22.4912 23.3301 22.5 23.1663 22.5 23.0001C22.5 17.2176 17 13.8538 16.7712 13.7138C16.5382 13.5741 16.2717 13.5003 16 13.5003C15.7283 13.5003 15.4618 13.5741 15.2288 13.7138C15 13.8538 9.5 17.2176 9.5 23.0001C9.5 23.1663 9.50875 23.3301 9.52 23.4926C8.21471 21.9603 7.49849 20.0129 7.5 18.0001C7.5 14.6851 9.02625 11.3926 12.035 8.21255C13.2414 6.94726 14.5695 5.80383 16 4.7988C18.2275 6.35755 24.5 11.3388 24.5 18.0001C24.5015 20.0129 23.7853 21.9603 22.48 23.4926Z" fill="black"/>
</svg>
