<svg width="32" height="32" viewBox="0 0 32 32" fill="none" xmlns="http://www.w3.org/2000/svg">
<path d="M23 2.25H9C8.53587 2.25 8.09075 2.43437 7.76256 2.76256C7.43437 3.09075 7.25 3.53587 7.25 4V9.66625C7.25 10.0449 7.37281 10.4133 7.6 10.7163L10.2 14.1825C10.2327 14.2261 10.2503 14.2792 10.25 14.3337V28C10.25 28.4641 10.4344 28.9092 10.7626 29.2374C11.0908 29.5656 11.5359 29.75 12 29.75H20C20.4641 29.75 20.9092 29.5656 21.2374 29.2374C21.5656 28.9092 21.75 28.4641 21.75 28V14.3337C21.75 14.2797 21.7675 14.227 21.8 14.1838L24.4 10.7163C24.6272 10.4133 24.75 10.0449 24.75 9.66625V4C24.75 3.53587 24.5656 3.09075 24.2374 2.76256C23.9092 2.43437 23.4641 2.25 23 2.25ZM9 3.75H23C23.0663 3.75 23.1299 3.77634 23.1768 3.82322C23.2237 3.87011 23.25 3.9337 23.25 4V7.25H8.75V4C8.75 3.9337 8.77634 3.87011 8.82322 3.82322C8.87011 3.77634 8.9337 3.75 9 3.75ZM23.2 9.81625L20.6 13.2837C20.3728 13.5867 20.25 13.9551 20.25 14.3337V28C20.25 28.0663 20.2237 28.1299 20.1768 28.1768C20.1299 28.2237 20.0663 28.25 20 28.25H12C11.9337 28.25 11.8701 28.2237 11.8232 28.1768C11.7763 28.1299 11.75 28.0663 11.75 28V14.3337C11.75 13.9551 11.6272 13.5867 11.4 13.2837L8.8 9.8175C8.76729 9.77388 8.74973 9.72077 8.75 9.66625V8.75H23.25V9.66625C23.25 9.72034 23.2325 9.77298 23.2 9.81625ZM16.75 15V19C16.75 19.1989 16.671 19.3897 16.5303 19.5303C16.3897 19.671 16.1989 19.75 16 19.75C15.8011 19.75 15.6103 19.671 15.4697 19.5303C15.329 19.3897 15.25 19.1989 15.25 19V15C15.25 14.8011 15.329 14.6103 15.4697 14.4697C15.6103 14.329 15.8011 14.25 16 14.25C16.1989 14.25 16.3897 14.329 16.5303 14.4697C16.671 14.6103 16.75 14.8011 16.75 15Z" fill="black"/>
</svg>
