<svg width="32" height="32" viewBox="0 0 32 32" fill="none" xmlns="http://www.w3.org/2000/svg">
<path d="M23 1.5H9C8.33696 1.5 7.70107 1.76339 7.23223 2.23223C6.76339 2.70107 6.5 3.33696 6.5 4V9.66625C6.50107 10.207 6.67641 10.733 7 11.1663L9.5 14.5V28C9.5 28.663 9.76339 29.2989 10.2322 29.7678C10.7011 30.2366 11.337 30.5 12 30.5H20C20.663 30.5 21.2989 30.2366 21.7678 29.7678C22.2366 29.2989 22.5 28.663 22.5 28V14.5L25 11.1663C25.3236 10.733 25.4989 10.207 25.5 9.66625V4C25.5 3.33696 25.2366 2.70107 24.7678 2.23223C24.2989 1.76339 23.663 1.5 23 1.5ZM22.5 4.5V6.5H9.5V4.5H22.5ZM20 12.8337C19.6764 13.267 19.5011 13.793 19.5 14.3337V27.5H12.5V14.3337C12.4989 13.793 12.3236 13.267 12 12.8337L9.5 9.5H22.5L20 12.8337ZM17.5 15V19C17.5 19.3978 17.342 19.7794 17.0607 20.0607C16.7794 20.342 16.3978 20.5 16 20.5C15.6022 20.5 15.2206 20.342 14.9393 20.0607C14.658 19.7794 14.5 19.3978 14.5 19V15C14.5 14.6022 14.658 14.2206 14.9393 13.9393C15.2206 13.658 15.6022 13.5 16 13.5C16.3978 13.5 16.7794 13.658 17.0607 13.9393C17.342 14.2206 17.5 14.6022 17.5 15Z" fill="black"/>
</svg>
