<svg width="32" height="32" viewBox="0 0 32 32" fill="none" xmlns="http://www.w3.org/2000/svg">
<path d="M28.1438 24.7138L20.5 11.9762V5.5H21C21.3979 5.5 21.7794 5.34196 22.0607 5.06066C22.342 4.77936 22.5 4.39782 22.5 4C22.5 3.60218 22.342 3.22064 22.0607 2.93934C21.7794 2.65804 21.3979 2.5 21 2.5H11C10.6022 2.5 10.2207 2.65804 9.93936 2.93934C9.65806 3.22064 9.50002 3.60218 9.50002 4C9.50002 4.39782 9.65806 4.77936 9.93936 5.06066C10.2207 5.34196 10.6022 5.5 11 5.5H11.5V11.9762L3.85627 24.7138C3.62865 25.0931 3.50578 25.5261 3.5002 25.9685C3.49462 26.4108 3.60653 26.8468 3.8245 27.2318C4.04248 27.6167 4.35871 27.937 4.74092 28.1598C5.12313 28.3826 5.55761 28.5 6.00002 28.5H26C26.4424 28.5 26.8769 28.3826 27.2591 28.1598C27.6413 27.937 27.9576 27.6167 28.1755 27.2318C28.3935 26.8468 28.5054 26.4108 28.4998 25.9685C28.4943 25.5261 28.3714 25.0931 28.1438 24.7138ZM17.5 5.5V12.3925C17.5001 12.6642 17.574 12.9308 17.7138 13.1637L22.105 20.4813C20.7563 20.5888 18.9613 20.3175 16.6775 19.1612C14.9275 18.2762 13.245 17.745 11.6438 17.5662L14.2863 13.1637C14.4261 12.9308 14.4999 12.6642 14.5 12.3925V5.5H17.5ZM6.88252 25.5L9.87502 20.5238C11.5 20.385 13.3275 20.8263 15.3275 21.8388C17.7788 23.0788 19.8588 23.5025 21.5588 23.5025C22.3012 23.5054 23.0413 23.4207 23.7638 23.25L25.1175 25.5H6.88252Z" fill="black"/>
</svg>
