<svg width="32" height="32" viewBox="0 0 32 32" fill="none" xmlns="http://www.w3.org/2000/svg">
<path d="M27.7675 9.64626L22.3538 4.23251C22.1222 3.99957 21.8468 3.81488 21.5434 3.68914C21.24 3.56341 20.9147 3.49912 20.5863 3.50001H6C5.33696 3.50001 4.70107 3.7634 4.23223 4.23224C3.76339 4.70108 3.5 5.33697 3.5 6.00001V26C3.5 26.6631 3.76339 27.2989 4.23223 27.7678C4.70107 28.2366 5.33696 28.5 6 28.5H26C26.663 28.5 27.2989 28.2366 27.7678 27.7678C28.2366 27.2989 28.5 26.6631 28.5 26V11.4138C28.5009 11.0853 28.4366 10.76 28.3109 10.4566C28.1851 10.1532 28.0004 9.87777 27.7675 9.64626ZM20.5 25.5H11.5V19.5H20.5V25.5ZM25.5 25.5H23.5V19C23.5 18.337 23.2366 17.7011 22.7678 17.2322C22.2989 16.7634 21.663 16.5 21 16.5H11C10.337 16.5 9.70107 16.7634 9.23223 17.2322C8.76339 17.7011 8.5 18.337 8.5 19V25.5H6.5V6.50001H20.375L25.5 11.625V25.5ZM20.5 10C20.5 10.3978 20.342 10.7794 20.0607 11.0607C19.7794 11.342 19.3978 11.5 19 11.5H12C11.6022 11.5 11.2206 11.342 10.9393 11.0607C10.658 10.7794 10.5 10.3978 10.5 10C10.5 9.60218 10.658 9.22065 10.9393 8.93935C11.2206 8.65804 11.6022 8.50001 12 8.50001H19C19.3978 8.50001 19.7794 8.65804 20.0607 8.93935C20.342 9.22065 20.5 9.60218 20.5 10Z" fill="black"/>
</svg>
