<svg width="32" height="32" viewBox="0 0 32 32" fill="none" xmlns="http://www.w3.org/2000/svg">
<path d="M26.2937 16.17C26.1925 16.1113 26.0812 16.055 25.9662 16C26.0812 15.945 26.1925 15.8888 26.2937 15.83C26.8669 15.5041 27.37 15.068 27.774 14.5469C28.1781 14.0258 28.475 13.4299 28.6478 12.7935C28.8205 12.1571 28.8657 11.4929 28.7807 10.839C28.6957 10.1851 28.4822 9.55444 28.1525 8.98339C27.8228 8.41233 27.3834 7.91214 26.8596 7.51159C26.3358 7.11105 25.7379 6.81807 25.1004 6.64953C24.4629 6.48099 23.7984 6.4402 23.1451 6.52953C22.4918 6.61886 21.8626 6.83654 21.2937 7.17002C21.1925 7.22877 21.0875 7.29502 20.9837 7.36877C20.9937 7.24377 21 7.11877 21 6.99377C21 5.66769 20.4732 4.39592 19.5355 3.45824C18.5978 2.52056 17.326 1.99377 16 1.99377C14.6739 1.99377 13.4021 2.52056 12.4644 3.45824C11.5267 4.39592 11 5.66769 11 6.99377C11 7.11127 11 7.23627 11.0162 7.36877C10.9125 7.29752 10.8075 7.22877 10.7062 7.17002C10.1374 6.83654 9.50816 6.61886 8.85484 6.52953C8.20152 6.4402 7.53698 6.48099 6.89948 6.64953C6.26199 6.81807 5.66412 7.11105 5.14032 7.51159C4.61651 7.91214 4.1771 8.41233 3.8474 8.98339C3.51769 9.55444 3.30419 10.1851 3.2192 10.839C3.13421 11.4929 3.17939 12.1571 3.35216 12.7935C3.52493 13.4299 3.82187 14.0258 4.22588 14.5469C4.62988 15.068 5.13299 15.5041 5.70621 15.83C5.80746 15.8888 5.91871 15.945 6.03371 16C5.91871 16.055 5.80746 16.1113 5.70621 16.17C5.13299 16.4959 4.62988 16.932 4.22588 17.4532C3.82187 17.9743 3.52493 18.5702 3.35216 19.2066C3.17939 19.8429 3.13421 20.5072 3.2192 21.1611C3.30419 21.815 3.51769 22.4456 3.8474 23.0167C4.1771 23.5877 4.61651 24.0879 5.14032 24.4885C5.66412 24.889 6.26199 25.182 6.89948 25.3505C7.53698 25.5191 8.20152 25.5598 8.85484 25.4705C9.50816 25.3812 10.1374 25.1635 10.7062 24.83C10.8075 24.7713 10.9125 24.705 11.0162 24.6313C11.0062 24.7563 11 24.8813 11 25C11 26.3261 11.5267 27.5979 12.4644 28.5356C13.4021 29.4732 14.6739 30 16 30C17.326 30 18.5978 29.4732 19.5355 28.5356C20.4732 27.5979 21 26.3261 21 25C21 24.8825 20.9937 24.7575 20.9837 24.6313C21.0875 24.7025 21.1925 24.7713 21.2937 24.83C22.0511 25.2688 22.9109 25.4999 23.7862 25.5C24.226 25.4994 24.6639 25.4415 25.0887 25.3275C26.0439 25.0715 26.9018 24.538 27.5538 23.7944C28.2058 23.0508 28.6226 22.1306 28.7516 21.1501C28.8806 20.1696 28.7159 19.1729 28.2784 18.286C27.8409 17.3991 27.1502 16.6619 26.2937 16.1675V16.17ZM16 19.5C15.3077 19.5 14.631 19.2948 14.0555 18.9102C13.4799 18.5256 13.0313 17.979 12.7664 17.3394C12.5015 16.6999 12.4322 15.9961 12.5672 15.3172C12.7023 14.6383 13.0356 14.0146 13.5251 13.5252C14.0146 13.0357 14.6382 12.7023 15.3171 12.5673C15.9961 12.4322 16.6998 12.5015 17.3394 12.7664C17.9789 13.0314 18.5255 13.48 18.9101 14.0555C19.2947 14.6311 19.5 15.3078 19.5 16C19.5 16.9283 19.1312 17.8185 18.4748 18.4749C17.8185 19.1313 16.9282 19.5 16 19.5Z" fill="black"/>
</svg>
