<svg width="32" height="32" viewBox="0 0 32 32" fill="none" xmlns="http://www.w3.org/2000/svg">
<path d="M26 5.49995C24.5549 5.49851 23.1225 5.77081 21.7787 6.30245C19.8037 3.25245 16.8137 1.72995 16.6712 1.6587C16.4629 1.55442 16.233 1.50012 16 1.50012C15.767 1.50012 15.5371 1.55442 15.3287 1.6587C15.1862 1.72995 12.1962 3.25245 10.2212 6.30245C8.87746 5.77081 7.44513 5.49851 6 5.49995C5.60218 5.49995 5.22064 5.65798 4.93934 5.93929C4.65804 6.22059 4.5 6.60212 4.5 6.99995V11.9999C4.50353 14.7892 5.51916 17.4824 7.35828 19.5795C9.1974 21.6765 11.735 23.0349 14.5 23.4024V26.5724L10.6713 24.6587C10.3163 24.4875 9.9083 24.4628 9.53532 24.5899C9.16235 24.7171 8.8544 24.986 8.67803 25.3383C8.50167 25.6907 8.47107 26.0984 8.59283 26.4732C8.71459 26.8479 8.97895 27.1597 9.32875 27.3412L15.3287 30.3412C15.5371 30.4455 15.767 30.4998 16 30.4998C16.233 30.4998 16.4629 30.4455 16.6712 30.3412L22.6712 27.3412C22.8503 27.2548 23.0104 27.1337 23.1422 26.9849C23.2741 26.836 23.375 26.6625 23.4392 26.4743C23.5033 26.2862 23.5294 26.0871 23.516 25.8888C23.5025 25.6904 23.4498 25.4967 23.3608 25.3189C23.2718 25.1411 23.1484 24.9828 22.9977 24.8531C22.847 24.7235 22.672 24.6251 22.4829 24.5636C22.2938 24.5022 22.0944 24.479 21.8963 24.4953C21.6982 24.5116 21.5052 24.5672 21.3288 24.6587L17.5 26.5724V23.4024C20.265 23.0349 22.8026 21.6765 24.6417 19.5795C26.4808 17.4824 27.4965 14.7892 27.5 11.9999V6.99995C27.5 6.60212 27.342 6.22059 27.0607 5.93929C26.7794 5.65798 26.3978 5.49995 26 5.49995ZM16 4.74245C16.7963 5.26245 18.1413 6.2812 19.1513 7.76745C17.866 8.723 16.793 9.93478 16 11.3262C15.2066 9.93505 14.1337 8.72334 12.8488 7.76745C13.8588 6.2812 15.2037 5.26245 16 4.74245ZM7.5 11.9999V8.63245C9.46185 8.98691 11.2371 10.0186 12.5163 11.5477C13.7955 13.0768 14.4975 15.0063 14.5 16.9999V20.3674C12.5383 20.0128 10.7632 18.981 9.484 17.4519C8.20484 15.9229 7.50273 13.9935 7.5 11.9999ZM24.5 11.9999C24.4973 13.9935 23.7952 15.9229 22.516 17.4519C21.2368 18.981 19.4617 20.0128 17.5 20.3674V16.9999C17.5025 15.0063 18.2045 13.0768 19.4837 11.5477C20.7629 10.0186 22.5382 8.98691 24.5 8.63245V11.9999Z" fill="black"/>
</svg>
