<svg width="32" height="32" viewBox="0 0 32 32" fill="none" xmlns="http://www.w3.org/2000/svg">
<path d="M31.0612 8.93864L27.0612 4.93864C26.7794 4.65684 26.3972 4.49854 25.9987 4.49854C25.6002 4.49854 25.218 4.65684 24.9362 4.93864C24.6544 5.22043 24.4961 5.60262 24.4961 6.00114C24.4961 6.39965 24.6544 6.78184 24.9362 7.06364L26.3749 8.49989H23.9999C22.7031 8.54137 21.4278 8.84318 20.2499 9.38739C18.4387 10.2236 16.1487 12.0124 15.5237 15.7524C15.1874 17.7736 14.2012 19.1774 12.5949 19.9261C12.165 20.1239 11.7137 20.2715 11.2499 20.3661C10.8563 19.1 10.0185 18.0187 8.89083 17.3213C7.76315 16.6239 6.42148 16.3573 5.11284 16.5707C3.80421 16.7841 2.6167 17.463 1.76896 18.4825C0.921212 19.502 0.4703 20.7934 0.499236 22.119C0.528172 23.4446 1.03501 24.7152 1.92643 25.6967C2.81786 26.6782 4.03386 27.3047 5.35056 27.4608C6.66726 27.6168 7.99602 27.292 9.09219 26.546C10.1884 25.8001 10.9782 24.6832 11.3162 23.4011C12.1438 23.2798 12.9512 23.0469 13.7162 22.7086C15.5312 21.9024 17.83 20.1261 18.4774 16.2461C18.7999 14.3111 19.7874 12.9349 21.4137 12.1524C22.2251 11.7685 23.1036 11.5469 23.9999 11.4999H26.3749L24.9349 12.9386C24.6532 13.2204 24.4948 13.6026 24.4948 14.0011C24.4948 14.3997 24.6532 14.7818 24.9349 15.0636C25.2167 15.3454 25.5989 15.5037 25.9974 15.5037C26.396 15.5037 26.7782 15.3454 27.0599 15.0636L31.0599 11.0636C31.1999 10.9244 31.3109 10.7588 31.3867 10.5766C31.4626 10.3943 31.5016 10.1988 31.5018 10.0014C31.5019 9.80398 31.463 9.60847 31.3874 9.4261C31.3118 9.24373 31.201 9.07807 31.0612 8.93864ZM5.99995 24.4999C5.5055 24.4999 5.02215 24.3533 4.61102 24.0786C4.1999 23.8039 3.87947 23.4134 3.69025 22.9566C3.50103 22.4998 3.45152 21.9971 3.54799 21.5122C3.64445 21.0272 3.88255 20.5818 4.23218 20.2321C4.58181 19.8825 5.02727 19.6444 5.51222 19.5479C5.99718 19.4515 6.49984 19.501 6.95666 19.6902C7.41347 19.8794 7.80392 20.1998 8.07862 20.611C8.35333 21.0221 8.49995 21.5054 8.49995 21.9999C8.49995 22.6629 8.23656 23.2988 7.76772 23.7677C7.29887 24.2365 6.66299 24.4999 5.99995 24.4999Z" fill="black"/>
</svg>
