<svg width="32" height="32" viewBox="0 0 32 32" fill="none" xmlns="http://www.w3.org/2000/svg">
<path d="M30.5125 15.3288C30.4013 15.1332 30.2523 14.9618 30.0742 14.8245C29.8961 14.6871 29.6924 14.5866 29.475 14.5288C28.4891 14.2767 27.4677 14.1921 26.4538 14.2788C27.0375 11.7 26.6563 9.665 26.2725 8.47875C26.1386 8.05969 25.8534 7.70552 25.4726 7.48529C25.0917 7.26505 24.6425 7.19454 24.2125 7.2875C22.8778 7.58686 21.6143 8.14349 20.4925 8.92625C19.7119 7.22799 18.5316 5.74403 17.0525 4.60125C16.749 4.37258 16.3794 4.2489 15.9994 4.2489C15.6194 4.2489 15.2497 4.37258 14.9463 4.60125C13.468 5.74453 12.2882 7.22839 11.5075 8.92625C10.3855 8.1432 9.12144 7.58655 7.78626 7.2875C7.35626 7.19466 6.90709 7.26538 6.52642 7.48588C6.14576 7.70637 5.86092 8.06081 5.72751 8.48C5.34376 9.66625 4.96251 11.7013 5.54626 14.28C4.53228 14.1934 3.51096 14.2779 2.52501 14.53C2.30764 14.5878 2.10396 14.6884 1.92584 14.8257C1.74772 14.9631 1.59871 15.1345 1.48751 15.33C1.37064 15.5309 1.29497 15.7531 1.26493 15.9836C1.23488 16.2141 1.25105 16.4483 1.31251 16.6725C1.72626 18.2075 3.00001 21.125 6.86501 23.4387C10.73 25.7525 14.1613 25.75 16 25.75C17.8388 25.75 21.265 25.75 25.1325 23.4387C29 21.1275 30.2713 18.2075 30.685 16.6712C30.7468 16.4472 30.7634 16.2131 30.7338 15.9826C30.7042 15.7522 30.629 15.5299 30.5125 15.3288ZM21.06 10.3625C22.0892 9.58645 23.2709 9.03692 24.5275 8.75C24.5943 8.73638 24.6637 8.74801 24.7223 8.78265C24.781 8.81729 24.8247 8.87247 24.845 8.9375C25.3375 10.465 25.8213 13.625 23.5213 17.625C22.598 19.2027 21.4147 20.613 20.0213 21.7962C20.9813 20.125 21.75 17.8663 21.75 14.8962C21.7617 13.358 21.5288 11.8276 21.06 10.3625ZM7.15501 8.94125C7.17456 8.87553 7.21796 8.81948 7.2767 8.7841C7.33543 8.74872 7.40527 8.73656 7.47251 8.75C8.72914 9.03692 9.91084 9.58645 10.94 10.3625C10.4712 11.8276 10.2383 13.358 10.25 14.8962C10.25 17.8663 11.0188 20.1275 11.9763 21.7925C10.5826 20.6095 9.39918 19.1992 8.47626 17.6213C6.17876 13.625 6.66251 10.465 7.15501 8.94125ZM7.63501 22.15C4.22251 20.1112 3.11626 17.5975 2.76001 16.275C2.75067 16.2414 2.74818 16.2063 2.75269 16.1717C2.7572 16.1371 2.76861 16.1038 2.78626 16.0737C2.8134 16.0255 2.85821 15.9896 2.91126 15.9738C3.92149 15.7227 4.97186 15.6772 6.00001 15.84C6.31716 16.7182 6.71162 17.5665 7.17876 18.375C8.46122 20.5881 10.21 22.4956 12.3038 23.965C10.6532 23.6383 9.07285 23.024 7.63501 22.15ZM16 24.1075C14.915 23.3325 11.75 20.5825 11.75 14.8962C11.75 9.47625 14.6175 6.72875 15.85 5.79875C15.8933 5.76629 15.9459 5.74875 16 5.74875C16.0541 5.74875 16.1067 5.76629 16.15 5.79875C17.3825 6.72875 20.25 9.47625 20.25 14.8962C20.25 20.6175 17.1013 23.3337 16 24.1075ZM29.2375 16.28C28.8813 17.5975 27.775 20.1113 24.3625 22.155C22.9231 23.0272 21.3415 23.6394 19.69 23.9638C21.7837 22.4944 23.5325 20.5869 24.815 18.3738C25.2842 17.5659 25.6808 16.718 26 15.84C27.0293 15.6785 28.0806 15.7257 29.0913 15.9788C29.1443 15.9946 29.1891 16.0305 29.2163 16.0788C29.2335 16.109 29.2445 16.1424 29.2485 16.177C29.2526 16.2115 29.2497 16.2466 29.24 16.28H29.2375Z" fill="black"/>
</svg>
