<svg width="32" height="32" viewBox="0 0 32 32" fill="none" xmlns="http://www.w3.org/2000/svg">
<path opacity="0.08" d="M25.7938 17.0362C24.6851 16.395 22.7363 16.1138 20.8688 16C22.7363 15.8862 24.6851 15.605 25.7938 14.9637C26.2555 14.7047 26.6613 14.3565 26.9874 13.9395C27.3136 13.5224 27.5537 13.0448 27.6938 12.5342C27.834 12.0237 27.8714 11.4904 27.8039 10.9653C27.7364 10.4402 27.5653 9.93367 27.3006 9.47517C27.0358 9.01667 26.6827 8.61529 26.2617 8.2943C25.8406 7.97332 25.36 7.73911 24.8478 7.60526C24.3356 7.47141 23.8018 7.44058 23.2776 7.51457C22.7534 7.58855 22.249 7.76587 21.7938 8.03625C20.6851 8.67625 19.4676 10.2213 18.4351 11.7863C19.2713 10.1088 20.0001 8.28125 20.0001 7C20.0001 5.93913 19.5786 4.92172 18.8285 4.17157C18.0783 3.42143 17.0609 3 16.0001 3C14.9392 3 13.9218 3.42143 13.1716 4.17157C12.4215 4.92172 12.0001 5.93913 12.0001 7C12.0001 8.28125 12.7288 10.1088 13.5651 11.7825C12.5326 10.2213 11.3151 8.67625 10.2063 8.0325C9.75112 7.76212 9.24678 7.5848 8.72253 7.51082C8.19828 7.43683 7.66457 7.46766 7.15233 7.60151C6.64008 7.73536 6.15951 7.96957 5.73847 8.29055C5.31743 8.61154 4.9643 9.01292 4.69956 9.47142C4.43482 9.92992 4.26374 10.4364 4.19623 10.9615C4.12872 11.4866 4.16613 12.0199 4.30629 12.5305C4.44644 13.041 4.68656 13.5187 5.01272 13.9357C5.33888 14.3528 5.74459 14.7009 6.20632 14.96C7.31507 15.6012 9.26382 15.8825 11.1313 15.9963C9.26382 16.11 7.31507 16.3912 6.20632 17.0325C5.74459 17.2916 5.33888 17.6397 5.01272 18.0568C4.68656 18.4738 4.44644 18.9515 4.30629 19.462C4.16613 19.9726 4.12872 20.5059 4.19623 21.031C4.26374 21.5561 4.43482 22.0626 4.69956 22.5211C4.9643 22.9796 5.31743 23.381 5.73847 23.7019C6.15951 24.0229 6.64008 24.2571 7.15233 24.391C7.66457 24.5248 8.19828 24.5557 8.72253 24.4817C9.24678 24.4077 9.75112 24.2304 10.2063 23.96C11.3151 23.32 12.5326 21.775 13.5651 20.21C12.7288 21.8912 12.0001 23.7188 12.0001 25C12.0001 26.0609 12.4215 27.0783 13.1716 27.8284C13.9218 28.5786 14.9392 29 16.0001 29C17.0609 29 18.0783 28.5786 18.8285 27.8284C19.5786 27.0783 20.0001 26.0609 20.0001 25C20.0001 23.7188 19.2713 21.8913 18.4351 20.2175C19.4676 21.7788 20.6851 23.3238 21.7938 23.9675C22.249 24.2379 22.7534 24.4152 23.2776 24.4892C23.8018 24.5632 24.3356 24.5323 24.8478 24.3985C25.36 24.2646 25.8406 24.0304 26.2617 23.7094C26.6827 23.3885 27.0358 22.9871 27.3006 22.5286C27.5653 22.0701 27.7364 21.5636 27.8039 21.0385C27.8714 20.5134 27.834 19.9801 27.6938 19.4695C27.5537 18.959 27.3136 18.4813 26.9874 18.0643C26.6613 17.6472 26.2555 17.2991 25.7938 17.04V17.0362ZM19.4638 18C18.9785 18.8403 18.2042 19.4756 17.2852 19.7873C16.3662 20.0991 15.3652 20.0662 14.4687 19.6946C13.5722 19.3231 12.8413 18.6384 12.4123 17.7679C11.9832 16.8975 11.8852 15.9008 12.1365 14.9635C12.3879 14.0262 12.9714 13.2122 13.7783 12.6732C14.5853 12.1341 15.5607 11.9069 16.5228 12.0337C17.4849 12.1605 18.3681 12.6328 19.0078 13.3625C19.6476 14.0922 20.0002 15.0296 20.0001 16C20.0015 16.7024 19.8164 17.3926 19.4638 18Z" fill="black"/>
<path d="M26.2937 16.17C26.1925 16.1113 26.0812 16.055 25.9662 16C26.0812 15.945 26.1925 15.8888 26.2937 15.83C26.8669 15.5041 27.37 15.068 27.774 14.5469C28.1781 14.0258 28.475 13.4299 28.6478 12.7935C28.8205 12.1571 28.8657 11.4929 28.7807 10.839C28.6957 10.1851 28.4822 9.55444 28.1525 8.98339C27.8228 8.41233 27.3834 7.91214 26.8596 7.51159C26.3358 7.11105 25.7379 6.81807 25.1004 6.64953C24.4629 6.48099 23.7984 6.4402 23.1451 6.52953C22.4918 6.61886 21.8626 6.83654 21.2937 7.17002C21.1925 7.22877 21.0875 7.29502 20.9837 7.36877C20.9937 7.24377 21 7.11877 21 6.99377C21 5.66769 20.4732 4.39592 19.5355 3.45824C18.5978 2.52056 17.326 1.99377 16 1.99377C14.6739 1.99377 13.4021 2.52056 12.4644 3.45824C11.5267 4.39592 11 5.66769 11 6.99377C11 7.11127 11 7.23627 11.0162 7.36877C10.9125 7.29752 10.8075 7.22877 10.7062 7.17002C10.1374 6.83654 9.50816 6.61886 8.85484 6.52953C8.20152 6.4402 7.53698 6.48099 6.89948 6.64953C6.26199 6.81807 5.66412 7.11105 5.14032 7.51159C4.61651 7.91214 4.1771 8.41233 3.8474 8.98339C3.51769 9.55444 3.30419 10.1851 3.2192 10.839C3.13421 11.4929 3.17939 12.1571 3.35216 12.7935C3.52493 13.4299 3.82187 14.0258 4.22588 14.5469C4.62988 15.068 5.13299 15.5041 5.70621 15.83C5.80746 15.8888 5.91871 15.945 6.03371 16C5.91871 16.055 5.80746 16.1113 5.70621 16.17C5.13299 16.4959 4.62988 16.932 4.22588 17.4532C3.82187 17.9743 3.52493 18.5702 3.35216 19.2066C3.17939 19.8429 3.13421 20.5072 3.2192 21.1611C3.30419 21.815 3.51769 22.4456 3.8474 23.0167C4.1771 23.5877 4.61651 24.0879 5.14032 24.4885C5.66412 24.889 6.26199 25.182 6.89948 25.3505C7.53698 25.5191 8.20152 25.5598 8.85484 25.4705C9.50816 25.3812 10.1374 25.1635 10.7062 24.83C10.8075 24.7713 10.9125 24.705 11.0162 24.6313C11.0062 24.7563 11 24.8813 11 25C11 26.3261 11.5267 27.5979 12.4644 28.5356C13.4021 29.4732 14.6739 30 16 30C17.326 30 18.5978 29.4732 19.5355 28.5356C20.4732 27.5979 21 26.3261 21 25C21 24.8825 20.9937 24.7575 20.9837 24.6313C21.0875 24.7025 21.1925 24.7713 21.2937 24.83C22.0511 25.2688 22.9109 25.4999 23.7862 25.5C24.226 25.4994 24.6639 25.4415 25.0887 25.3275C26.0439 25.0715 26.9018 24.538 27.5538 23.7944C28.2058 23.0508 28.6226 22.1306 28.7516 21.1501C28.8806 20.1696 28.7159 19.1729 28.2784 18.286C27.8409 17.3991 27.1502 16.6619 26.2937 16.1675V16.17ZM13 16C13 15.4067 13.1759 14.8267 13.5056 14.3333C13.8352 13.84 14.3037 13.4554 14.8519 13.2284C15.4001 13.0013 16.0033 12.9419 16.5852 13.0577C17.1672 13.1734 17.7017 13.4591 18.1213 13.8787C18.5408 14.2983 18.8266 14.8328 18.9423 15.4148C19.0581 15.9967 18.9987 16.5999 18.7716 17.1481C18.5445 17.6963 18.16 18.1648 17.6667 18.4944C17.1733 18.8241 16.5933 19 16 19C15.2043 19 14.4413 18.684 13.8786 18.1213C13.316 17.5587 13 16.7957 13 16ZM22.2937 8.90127C22.6349 8.70429 23.0116 8.57644 23.4022 8.52502C23.7928 8.4736 24.1897 8.49962 24.5702 8.60159C24.9508 8.70356 25.3075 8.87948 25.62 9.11932C25.9326 9.35916 26.1949 9.65821 26.3918 9.9994C26.5888 10.3406 26.7167 10.7172 26.7681 11.1078C26.8195 11.4984 26.7935 11.8953 26.6915 12.2759C26.5896 12.6564 26.4136 13.0132 26.1738 13.3257C25.934 13.6383 25.6349 13.9005 25.2937 14.0975C24.51 14.5513 22.9675 14.8638 20.8987 14.9963C20.6805 13.938 20.1253 12.9788 19.3162 12.2625C20.4662 10.535 21.51 9.35502 22.2937 8.90127ZM16 4.00002C16.7956 4.00002 17.5587 4.31609 18.1213 4.8787C18.6839 5.44131 19 6.20437 19 7.00002C19 7.90502 18.5 9.39877 17.58 11.2575C16.5546 10.9142 15.4453 10.9142 14.42 11.2575C13.5 9.39877 13 7.90502 13 7.00002C13 6.20437 13.316 5.44131 13.8786 4.8787C14.4413 4.31609 15.2043 4.00002 16 4.00002ZM5.60746 10C5.80439 9.6587 6.06663 9.35951 6.37922 9.11955C6.6918 8.87959 7.04859 8.70357 7.42922 8.60154C7.80984 8.4995 8.20684 8.47346 8.59753 8.52489C8.98823 8.57632 9.36496 8.70421 9.70621 8.90127C10.49 9.35502 11.5337 10.535 12.6837 12.2625C11.874 12.9798 11.3187 13.9404 11.1012 15C9.03246 14.8675 7.48996 14.555 6.70621 14.1025C6.36439 13.9056 6.06476 13.6432 5.82448 13.3303C5.58419 13.0174 5.40798 12.6602 5.30592 12.2792C5.20386 11.8981 5.17796 11.5007 5.22971 11.1096C5.28145 10.7185 5.40982 10.3414 5.60746 10ZM9.70621 23.0988C9.01715 23.4966 8.19827 23.6044 7.42972 23.3985C6.66117 23.1925 6.00591 22.6897 5.60809 22.0007C5.21026 21.3116 5.10246 20.4927 5.3084 19.7242C5.51434 18.9556 6.01715 18.3004 6.70621 17.9025C7.48996 17.4488 9.03246 17.1363 11.1012 17.0038C11.3195 18.0621 11.8747 19.0212 12.6837 19.7375C11.5337 21.465 10.49 22.645 9.70621 23.0988ZM16 28C15.2043 28 14.4413 27.684 13.8786 27.1213C13.316 26.5587 13 25.7957 13 25C13 24.095 13.5 22.6013 14.42 20.7425C15.4453 21.0858 16.5546 21.0858 17.58 20.7425C18.5 22.6013 19 24.095 19 25C19 25.7957 18.6839 26.5587 18.1213 27.1213C17.5587 27.684 16.7956 28 16 28ZM26.3925 22C26.1955 22.3414 25.9333 22.6405 25.6207 22.8805C25.3081 23.1205 24.9513 23.2965 24.5707 23.3985C24.1901 23.5005 23.7931 23.5266 23.4024 23.4752C23.0117 23.4237 22.635 23.2958 22.2937 23.0988C21.51 22.645 20.4662 21.465 19.3162 19.7375C20.126 19.0202 20.6812 18.0597 20.8987 17C22.9675 17.1325 24.51 17.445 25.2937 17.8975C25.6355 18.0945 25.9352 18.3569 26.1755 18.6697C26.4157 18.9826 26.5919 19.3398 26.694 19.7209C26.7961 20.1019 26.822 20.4994 26.7702 20.8905C26.7185 21.2816 26.5901 21.6586 26.3925 22Z" fill="black"/>
</svg>
