<svg width="32" height="32" viewBox="0 0 32 32" fill="none" xmlns="http://www.w3.org/2000/svg">
<path d="M30.2963 15.4563C30.2016 15.2894 30.0745 15.1431 29.9226 15.0259C29.7706 14.9087 29.5968 14.823 29.4113 14.7738C28.3383 14.5013 27.2239 14.4305 26.125 14.5651C26.81 11.8826 26.4225 9.77006 26.0313 8.56506C25.9164 8.20484 25.6714 7.90037 25.3442 7.71108C25.0169 7.52178 24.6308 7.46125 24.2613 7.54131C22.8608 7.85677 21.5412 8.45995 20.3863 9.31256C19.6237 7.54135 18.4237 5.99292 16.8988 4.81256C16.6395 4.61488 16.3224 4.50781 15.9963 4.50781C15.6702 4.50781 15.3531 4.61488 15.0938 4.81256C13.5689 5.99292 12.3688 7.54135 11.6063 9.31256C10.4512 8.46017 9.13168 7.85701 7.73129 7.54131C7.36178 7.46125 6.9757 7.52178 6.64842 7.71108C6.32114 7.90037 6.07615 8.20484 5.96129 8.56506C5.57004 9.77506 5.18254 11.8876 5.86754 14.5651C4.76988 14.431 3.65687 14.5018 2.58504 14.7738C2.39954 14.823 2.22572 14.9087 2.07376 15.0259C1.92179 15.1431 1.79474 15.2894 1.70004 15.4563C1.59963 15.6288 1.53464 15.8195 1.50888 16.0174C1.48313 16.2153 1.49712 16.4164 1.55004 16.6088C1.95504 18.1088 3.20004 20.9601 6.99004 23.2238C10.78 25.4876 14.1813 25.5001 16 25.5001C17.8188 25.5001 21.2013 25.5001 25.0088 23.2238C28.8163 20.9476 30.0438 18.1076 30.4488 16.6088C30.5013 16.4162 30.5149 16.2151 30.4887 16.0172C30.4625 15.8193 30.3971 15.6286 30.2963 15.4563ZM24.475 8.51381C24.6033 8.48724 24.7368 8.50957 24.8495 8.57641C24.9621 8.64324 25.0457 8.74976 25.0838 8.87506C25.5838 10.4376 26.0838 13.6688 23.7375 17.7501C22.4313 20.0238 20.5988 21.7751 18.9738 22.9301C20.25 21.2501 21.5 18.6551 21.5 14.8988C21.5133 13.327 21.2649 11.764 20.765 10.2738C21.8571 9.42118 23.1239 8.8202 24.475 8.51381ZM6.91629 8.87506C6.95541 8.75076 7.03947 8.64551 7.15203 8.57987C7.2646 8.51422 7.39759 8.4929 7.52504 8.52006C8.87567 8.82459 10.1425 9.42341 11.235 10.2738C10.7352 11.764 10.4868 13.327 10.5 14.8988C10.5 18.6551 11.75 21.2513 13.0263 22.9276C11.4013 21.7726 9.56879 20.0213 8.26254 17.7476C5.91504 13.6626 6.41129 10.4313 6.91629 8.87506ZM7.50629 22.3751C4.01879 20.2913 2.88129 17.7101 2.51879 16.3563C2.50035 16.291 2.49538 16.2227 2.50419 16.1554C2.513 16.0882 2.5354 16.0234 2.57004 15.9651C2.5992 15.9123 2.63869 15.866 2.68616 15.8288C2.73362 15.7917 2.78808 15.7645 2.84629 15.7488C3.93913 15.4746 5.07726 15.432 6.18754 15.6238C6.50708 16.5346 6.91135 17.4135 7.39504 18.2488C9.05504 21.1363 11.4775 23.2076 13.4288 24.3876C11.3313 24.1516 9.31038 23.4619 7.50629 22.3663V22.3751ZM16.0063 24.4176C15.1916 23.8504 14.4711 23.1586 13.8713 22.3676C12.2963 20.3226 11.5 17.8126 11.5 14.8988C11.5 9.36756 14.4363 6.55506 15.6988 5.60381C15.7856 5.5383 15.8913 5.50287 16 5.50287C16.1088 5.50287 16.2145 5.5383 16.3013 5.60381C17.5638 6.55506 20.5 9.36756 20.5 14.8988C20.5 17.8126 19.7038 20.3226 18.135 22.3588C17.5352 23.1498 16.8148 23.8416 16 24.4088L16.0063 24.4176ZM29.4875 16.3563C29.1225 17.7101 27.9875 20.2913 24.5 22.3751C22.6957 23.4697 20.6748 24.1586 18.5775 24.3938C20.5288 23.2138 22.9525 21.1438 24.6113 18.2551C25.095 17.4197 25.4993 16.5409 25.8188 15.6301C26.929 15.4376 28.0673 15.4802 29.16 15.7551C29.2183 15.7707 29.2727 15.7979 29.3202 15.8351C29.3676 15.8722 29.4071 15.9186 29.4363 15.9713C29.5001 16.086 29.5162 16.2211 29.4813 16.3476L29.4875 16.3563Z" fill="black"/>
</svg>
