<svg width="32" height="32" viewBox="0 0 32 32" fill="none" xmlns="http://www.w3.org/2000/svg">
<path d="M30.7076 10.7076L26.7076 14.7076C26.5199 14.8952 26.2654 15.0006 26.0001 15.0006C25.7347 15.0006 25.4802 14.8952 25.2926 14.7076C25.1049 14.5199 24.9995 14.2654 24.9995 14.0001C24.9995 13.7347 25.1049 13.4802 25.2926 13.2926L27.5863 11.0001H24.0001C23.7926 11.0001 18.8313 11.0963 17.9863 16.1638C17.3751 19.8251 15.2188 21.5001 13.5163 22.2501C12.4323 22.7264 11.264 22.9814 10.0801 23.0001H9.87506C9.63167 23.9427 9.05283 24.7643 8.24705 25.3107C7.44127 25.8571 6.46387 26.0909 5.49806 25.9682C4.53224 25.8455 3.64433 25.3748 3.00074 24.6443C2.35715 23.9138 2.00208 22.9736 2.00208 22.0001C2.00208 21.0265 2.35715 20.0863 3.00074 19.3558C3.64433 18.6253 4.53224 18.1546 5.49806 18.0319C6.46387 17.9093 7.44127 18.1431 8.24705 18.6895C9.05283 19.2359 9.63167 20.0574 9.87506 21.0001H10.0413C10.2438 21.0001 15.1376 21.1013 16.0151 15.8351C16.6026 12.3051 18.7501 10.6251 20.4563 9.84132C21.5707 9.33035 22.7749 9.04447 24.0001 9.00007H27.5863L25.2926 6.70757C25.1049 6.51993 24.9995 6.26543 24.9995 6.00007C24.9995 5.7347 25.1049 5.48021 25.2926 5.29257C25.4802 5.10493 25.7347 4.99951 26.0001 4.99951C26.2654 4.99951 26.5199 5.10493 26.7076 5.29257L30.7076 9.29257C30.8005 9.38544 30.8743 9.49573 30.9246 9.61713C30.9749 9.73853 31.0008 9.86865 31.0008 10.0001C31.0008 10.1315 30.9749 10.2616 30.9246 10.383C30.8743 10.5044 30.8005 10.6147 30.7076 10.7076Z" fill="black"/>
</svg>
