<svg width="32" height="32" viewBox="0 0 32 32" fill="none" xmlns="http://www.w3.org/2000/svg">
<path d="M23.4225 26.5263C23.4917 26.7148 23.5223 26.9153 23.5126 27.1158C23.5028 27.3164 23.4529 27.513 23.3658 27.6939C23.2787 27.8748 23.1561 28.0364 23.0054 28.169C22.8546 28.3017 22.6788 28.4027 22.4883 28.4662C22.2978 28.5296 22.0965 28.5542 21.8963 28.5384C21.6961 28.5226 21.5012 28.4668 21.323 28.3742C21.1448 28.2817 20.987 28.1543 20.8589 27.9996C20.7309 27.8449 20.6352 27.6661 20.5775 27.4738L19.5775 24.4738C19.5083 24.2853 19.4777 24.0848 19.4874 23.8842C19.4972 23.6837 19.5471 23.4871 19.6342 23.3062C19.7213 23.1253 19.8439 22.9637 19.9946 22.831C20.1454 22.6984 20.3212 22.5973 20.5117 22.5339C20.7022 22.4704 20.9035 22.4459 21.1037 22.4617C21.3039 22.4775 21.4988 22.5333 21.677 22.6259C21.8552 22.7184 22.013 22.8458 22.1411 23.0005C22.2691 23.1551 22.3648 23.3339 22.4225 23.5263L23.4225 26.5263ZM16 23C15.6022 23 15.2206 23.1581 14.9393 23.4394C14.658 23.7207 14.5 24.1022 14.5 24.5V28C14.5 28.3979 14.658 28.7794 14.9393 29.0607C15.2206 29.342 15.6022 29.5 16 29.5C16.3978 29.5 16.7794 29.342 17.0607 29.0607C17.342 28.7794 17.5 28.3979 17.5 28V24.5C17.5 24.1022 17.342 23.7207 17.0607 23.4394C16.7794 23.1581 16.3978 23 16 23ZM11.4738 22.5775C11.0965 22.4521 10.6848 22.4815 10.3293 22.6594C9.97369 22.8373 9.7033 23.1491 9.5775 23.5263L8.5775 26.5263C8.50832 26.7148 8.4777 26.9153 8.48744 27.1158C8.49719 27.3164 8.5471 27.513 8.63422 27.6939C8.72135 27.8748 8.84391 28.0364 8.99464 28.169C9.14537 28.3017 9.3212 28.4027 9.51171 28.4662C9.70222 28.5296 9.90353 28.5542 10.1037 28.5384C10.3039 28.5226 10.4988 28.4668 10.677 28.3742C10.8552 28.2817 11.013 28.1543 11.1411 27.9996C11.2691 27.8449 11.3648 27.6661 11.4225 27.4738L12.4225 24.4738C12.548 24.0965 12.5185 23.6849 12.3406 23.3293C12.1627 22.9737 11.8509 22.7033 11.4738 22.5775ZM31.5 14C31.5 16.24 29.7213 18.2363 26.49 19.625C23.6637 20.8363 19.9375 21.5 16 21.5C12.0625 21.5 8.33625 20.8325 5.51 19.625C2.27875 18.2363 0.5 16.24 0.5 14C0.5 10.9925 3.66 8.50003 8.98875 7.26378C9.68062 6.22587 10.5937 5.35398 11.6624 4.71069C12.7311 4.0674 13.9289 3.66865 15.17 3.54306C16.411 3.41748 17.6644 3.56817 18.8404 3.98432C20.0163 4.40048 21.0855 5.07177 21.9713 5.95003C22.3809 6.35477 22.7489 6.79949 23.07 7.27753C28.3625 8.51753 31.5 11.0063 31.5 14ZM10.5 12.1038V12.4788C10.5001 12.5896 10.537 12.6972 10.6048 12.7847C10.6727 12.8723 10.7677 12.9348 10.875 12.9625C12.5579 13.3328 14.2769 13.5131 16 13.5C17.7229 13.5143 19.442 13.3353 21.125 12.9663C21.2323 12.9386 21.3273 12.876 21.3952 12.7885C21.463 12.7009 21.4999 12.5933 21.5 12.4825V12C21.5 10.5413 20.9205 9.14239 19.8891 8.11094C18.8576 7.07949 17.4587 6.50003 16 6.50003H15.9263C12.9338 6.53878 10.5 9.05378 10.5 12.1038ZM28.5 14C28.5 13.17 27.5437 12.405 26.9737 12.0213C26.1749 11.505 25.315 11.0902 24.4137 10.7863C24.4708 11.1884 24.4997 11.5939 24.5 12V12.4913C24.5013 13.2809 24.2339 14.0475 23.7419 14.6652C23.2499 15.2828 22.5625 15.7147 21.7925 15.89C19.8906 16.3098 17.9476 16.5144 16 16.5C14.0528 16.5143 12.1102 16.3097 10.2087 15.89C9.43878 15.715 8.7512 15.2834 8.25896 14.666C7.76672 14.0486 7.49908 13.2821 7.5 12.4925V12.1088C7.50052 11.6639 7.53478 11.2197 7.6025 10.78C6.69941 11.0842 5.83744 11.4991 5.03625 12.015C4.4625 12.3988 3.5 13.1675 3.5 14C3.5 15.835 8.375 18.5 16 18.5C23.625 18.5 28.5 15.835 28.5 14Z" fill="black"/>
</svg>
