<svg width="32" height="32" viewBox="0 0 32 32" fill="none" xmlns="http://www.w3.org/2000/svg">
<path d="M27 8.5H16.5L13.1663 6C12.733 5.67641 12.207 5.50107 11.6663 5.5H5C4.33696 5.5 3.70107 5.76339 3.23223 6.23223C2.76339 6.70107 2.5 7.33696 2.5 8V25C2.5 25.663 2.76339 26.2989 3.23223 26.7678C3.70107 27.2366 4.33696 27.5 5 27.5H27.1112C27.7446 27.4993 28.3518 27.2475 28.7996 26.7996C29.2475 26.3518 29.4993 25.7446 29.5 25.1112V11C29.5 10.337 29.2366 9.70107 28.7678 9.23223C28.2989 8.76339 27.663 8.5 27 8.5ZM26.5 24.5H5.5V8.5H11.5L14.8337 11C15.267 11.3236 15.793 11.4989 16.3337 11.5H26.5V24.5Z" fill="black"/>
</svg>
