<svg width="32" height="32" viewBox="0 0 32 32" fill="none" xmlns="http://www.w3.org/2000/svg">
<path d="M27 8.50001H16.6737L13.4237 4.83876C13.1884 4.57414 12.8996 4.36252 12.5764 4.21792C12.2531 4.07333 11.9029 3.99905 11.5487 4.00001H5C4.33696 4.00001 3.70107 4.2634 3.23223 4.73224C2.76339 5.20108 2.5 5.83697 2.5 6.50001V25.0775C2.50099 25.7197 2.75654 26.3353 3.21063 26.7894C3.66472 27.2435 4.28032 27.499 4.9225 27.5H27.1112C27.7446 27.4993 28.3518 27.2475 28.7996 26.7996C29.2475 26.3518 29.4993 25.7446 29.5 25.1113V11C29.5 10.337 29.2366 9.70108 28.7678 9.23224C28.2989 8.7634 27.663 8.50001 27 8.50001ZM11.3263 7.00001L12.66 8.50001H5.5V7.00001H11.3263ZM26.5 24.5H5.5V11.5H26.5V24.5ZM17.5 15V16.5H19C19.3978 16.5 19.7794 16.658 20.0607 16.9394C20.342 17.2207 20.5 17.6022 20.5 18C20.5 18.3978 20.342 18.7794 20.0607 19.0607C19.7794 19.342 19.3978 19.5 19 19.5H17.5V21C17.5 21.3978 17.342 21.7794 17.0607 22.0607C16.7794 22.342 16.3978 22.5 16 22.5C15.6022 22.5 15.2206 22.342 14.9393 22.0607C14.658 21.7794 14.5 21.3978 14.5 21V19.5H13C12.6022 19.5 12.2206 19.342 11.9393 19.0607C11.658 18.7794 11.5 18.3978 11.5 18C11.5 17.6022 11.658 17.2207 11.9393 16.9394C12.2206 16.658 12.6022 16.5 13 16.5H14.5V15C14.5 14.6022 14.658 14.2207 14.9393 13.9393C15.2206 13.658 15.6022 13.5 16 13.5C16.3978 13.5 16.7794 13.658 17.0607 13.9393C17.342 14.2207 17.5 14.6022 17.5 15Z" fill="black"/>
</svg>
