<svg width="32" height="32" viewBox="0 0 32 32" fill="none" xmlns="http://www.w3.org/2000/svg">
<path d="M27 8.50001H16.6737L13.4237 4.83876C13.1884 4.57414 12.8996 4.36252 12.5764 4.21792C12.2531 4.07333 11.9029 3.99905 11.5487 4.00001H5C4.33696 4.00001 3.70107 4.2634 3.23223 4.73224C2.76339 5.20108 2.5 5.83697 2.5 6.50001V25.0775C2.50099 25.7197 2.75654 26.3353 3.21063 26.7894C3.66472 27.2435 4.28032 27.499 4.9225 27.5H27.1112C27.7446 27.4993 28.3518 27.2475 28.7996 26.7996C29.2475 26.3518 29.4993 25.7446 29.5 25.1113V11C29.5 10.337 29.2366 9.70108 28.7678 9.23224C28.2989 8.7634 27.663 8.50001 27 8.50001ZM5.5 7.00001H11.3263L12.66 8.50001H5.5V7.00001ZM26.5 24.5H5.5V11.5H26.5V24.5Z" fill="black"/>
</svg>
