<svg width="32" height="32" viewBox="0 0 32 32" fill="none" xmlns="http://www.w3.org/2000/svg">
<path d="M12.5 26C12.5 26.3978 12.342 26.7794 12.0607 27.0607C11.7794 27.342 11.3978 27.5 11 27.5H4.9225C4.28032 27.499 3.66472 27.2435 3.21063 26.7894C2.75654 26.3353 2.50099 25.7197 2.5 25.0775V24C2.5 23.6022 2.65804 23.2206 2.93934 22.9393C3.22064 22.658 3.60218 22.5 4 22.5C4.39782 22.5 4.77936 22.658 5.06066 22.9393C5.34196 23.2206 5.5 23.6022 5.5 24V24.5H11C11.3978 24.5 11.7794 24.658 12.0607 24.9393C12.342 25.2206 12.5 25.6022 12.5 26ZM20 24.5H16C15.6022 24.5 15.2206 24.658 14.9393 24.9393C14.658 25.2206 14.5 25.6022 14.5 26C14.5 26.3978 14.658 26.7794 14.9393 27.0607C15.2206 27.342 15.6022 27.5 16 27.5H20C20.3978 27.5 20.7794 27.342 21.0607 27.0607C21.342 26.7794 21.5 26.3978 21.5 26C21.5 25.6022 21.342 25.2206 21.0607 24.9393C20.7794 24.658 20.3978 24.5 20 24.5ZM28 17.5C27.6022 17.5 27.2206 17.658 26.9393 17.9393C26.658 18.2206 26.5 18.6022 26.5 19V24.5H25C24.6022 24.5 24.2206 24.658 23.9393 24.9393C23.658 25.2206 23.5 25.6022 23.5 26C23.5 26.3978 23.658 26.7794 23.9393 27.0607C24.2206 27.342 24.6022 27.5 25 27.5H27.1112C27.7446 27.4993 28.3518 27.2475 28.7996 26.7996C29.2475 26.3518 29.4993 25.7446 29.5 25.1112V19C29.5 18.6022 29.342 18.2206 29.0607 17.9393C28.7794 17.658 28.3978 17.5 28 17.5ZM27 8.5H21C20.6022 8.5 20.2206 8.65804 19.9393 8.93934C19.658 9.22064 19.5 9.60218 19.5 10C19.5 10.3978 19.658 10.7794 19.9393 11.0607C20.2206 11.342 20.6022 11.5 21 11.5H26.5V14C26.5 14.3978 26.658 14.7794 26.9393 15.0607C27.2206 15.342 27.6022 15.5 28 15.5C28.3978 15.5 28.7794 15.342 29.0607 15.0607C29.342 14.7794 29.5 14.3978 29.5 14V11C29.5 10.337 29.2366 9.70107 28.7678 9.23223C28.2989 8.76339 27.663 8.5 27 8.5ZM4 20.5C4.39782 20.5 4.77936 20.342 5.06066 20.0607C5.34196 19.7794 5.5 19.3978 5.5 19V15C5.5 14.6022 5.34196 14.2206 5.06066 13.9393C4.77936 13.658 4.39782 13.5 4 13.5C3.60218 13.5 3.22064 13.658 2.93934 13.9393C2.65804 14.2206 2.5 14.6022 2.5 15V19C2.5 19.3978 2.65804 19.7794 2.93934 20.0607C3.22064 20.342 3.60218 20.5 4 20.5ZM2.5 10V6.5C2.5 5.83696 2.76339 5.20107 3.23223 4.73223C3.70107 4.26339 4.33696 4 5 4H11.5513C11.9041 4.0001 12.2529 4.07489 12.5748 4.21945C12.8967 4.36402 13.1843 4.57507 13.4187 4.83875L17.125 9C17.3184 9.21627 17.445 9.484 17.4894 9.77075C17.5337 10.0575 17.4939 10.351 17.3749 10.6156C17.2558 10.8802 17.0625 11.1046 16.8185 11.2615C16.5745 11.4185 16.2902 11.5014 16 11.5H4C3.60218 11.5 3.22064 11.342 2.93934 11.0607C2.65804 10.7794 2.5 10.3978 2.5 10ZM5.5 8.5H12.66L11.3263 7H5.5V8.5Z" fill="black"/>
</svg>
