<svg width="32" height="32" viewBox="0 0 32 32" fill="none" xmlns="http://www.w3.org/2000/svg">
<path d="M27.5637 24.7425C28.0775 24.0767 28.3945 23.2803 28.4787 22.4436C28.5628 21.6068 28.4108 20.7632 28.0399 20.0085C27.669 19.2537 27.094 18.618 26.3802 18.1734C25.6664 17.7289 24.8422 17.4932 24.0012 17.4932C23.1603 17.4932 22.3361 17.7289 21.6223 18.1734C20.9085 18.618 20.3335 19.2537 19.9626 20.0085C19.5917 20.7632 19.4397 21.6068 19.5238 22.4436C19.608 23.2803 19.925 24.0767 20.4387 24.7425C19.5177 25.4733 18.8567 26.4815 18.5537 27.6175C18.452 28.0019 18.507 28.411 18.7067 28.7548C18.9064 29.0987 19.2344 29.3492 19.6187 29.4513C19.7432 29.4841 19.8713 29.5005 20 29.5C20.3306 29.4998 20.6519 29.3903 20.9139 29.1887C21.1759 28.9871 21.3639 28.7045 21.4487 28.385C21.75 27.275 22.7938 26.5 24 26.5C25.2062 26.5 26.25 27.275 26.55 28.385C26.6574 28.7636 26.9093 29.0849 27.2514 29.2794C27.5935 29.474 27.9984 29.5264 28.3787 29.4252C28.7591 29.324 29.0844 29.0774 29.2845 28.7385C29.4847 28.3996 29.5437 27.9957 29.4487 27.6138C29.1455 26.4789 28.4845 25.472 27.5637 24.7425ZM24 20.5C24.2967 20.5 24.5867 20.588 24.8334 20.7528C25.08 20.9176 25.2723 21.1519 25.3858 21.426C25.4993 21.7001 25.5291 22.0017 25.4712 22.2926C25.4133 22.5836 25.2704 22.8509 25.0607 23.0607C24.8509 23.2704 24.5836 23.4133 24.2926 23.4712C24.0017 23.5291 23.7001 23.4993 23.426 23.3858C23.1519 23.2723 22.9176 23.08 22.7528 22.8334C22.588 22.5867 22.5 22.2967 22.5 22C22.5 21.6022 22.658 21.2206 22.9393 20.9393C23.2206 20.658 23.6022 20.5 24 20.5ZM29.5 11V13.5C29.5 13.8978 29.342 14.2794 29.0607 14.5607C28.7794 14.842 28.3978 15 28 15C27.6022 15 27.2206 14.842 26.9393 14.5607C26.658 14.2794 26.5 13.8978 26.5 13.5V11.5H16.3337C15.793 11.4991 15.2669 11.3238 14.8337 11L11.5 8.5H5.5V24.5H14C14.3978 24.5 14.7794 24.658 15.0607 24.9393C15.342 25.2206 15.5 25.6022 15.5 26C15.5 26.3978 15.342 26.7794 15.0607 27.0607C14.7794 27.342 14.3978 27.5 14 27.5H5C4.33696 27.5 3.70107 27.2366 3.23223 26.7678C2.76339 26.2989 2.5 25.663 2.5 25V8C2.5 7.33696 2.76339 6.70107 3.23223 6.23223C3.70107 5.76339 4.33696 5.5 5 5.5H11.6663C12.207 5.50107 12.733 5.67641 13.1663 6L16.5 8.5H27C27.663 8.5 28.2989 8.76339 28.7678 9.23223C29.2366 9.70107 29.5 10.337 29.5 11Z" fill="black"/>
</svg>
