<svg width="32" height="32" viewBox="0 0 32 32" fill="none" xmlns="http://www.w3.org/2000/svg">
<path d="M11.5 18C11.5 17.6022 11.658 17.2207 11.9393 16.9394C12.2206 16.658 12.6022 16.5 13 16.5H19C19.3978 16.5 19.7794 16.658 20.0607 16.9394C20.342 17.2207 20.5 17.6022 20.5 18C20.5 18.3978 20.342 18.7794 20.0607 19.0607C19.7794 19.342 19.3978 19.5 19 19.5H13C12.6022 19.5 12.2206 19.342 11.9393 19.0607C11.658 18.7794 11.5 18.3978 11.5 18ZM29.5 11V25.1113C29.4993 25.7446 29.2475 26.3518 28.7996 26.7996C28.3518 27.2475 27.7446 27.4993 27.1112 27.5H4.9225C4.28032 27.499 3.66472 27.2435 3.21063 26.7894C2.75654 26.3353 2.50099 25.7197 2.5 25.0775V6.50001C2.5 5.83697 2.76339 5.20108 3.23223 4.73224C3.70107 4.2634 4.33696 4.00001 5 4.00001H11.5513C11.9054 3.99905 12.2556 4.07333 12.5789 4.21792C12.9021 4.36252 13.1909 4.57414 13.4263 4.83876L16.6763 8.50001H27C27.663 8.50001 28.2989 8.7634 28.7678 9.23224C29.2366 9.70108 29.5 10.337 29.5 11ZM5.5 8.50001H12.66L11.3263 7.00001H5.5V8.50001ZM26.5 11.5H5.5V24.5H26.5V11.5Z" fill="black"/>
</svg>
