<svg width="32" height="32" viewBox="0 0 32 32" fill="none" xmlns="http://www.w3.org/2000/svg">
<path d="M27 8.5H16.5L13.1663 6C12.733 5.67641 12.207 5.50107 11.6663 5.5H5C4.33696 5.5 3.70107 5.76339 3.23223 6.23223C2.76339 6.70107 2.5 7.33696 2.5 8V25C2.5 25.663 2.76339 26.2989 3.23223 26.7678C3.70107 27.2366 4.33696 27.5 5 27.5H27C27.663 27.5 28.2989 27.2366 28.7678 26.7678C29.2366 26.2989 29.5 25.663 29.5 25V11C29.5 10.337 29.2366 9.70107 28.7678 9.23223C28.2989 8.76339 27.663 8.5 27 8.5ZM5.5 8.5H11.5L13.5 10L11.5 11.5H5.5V8.5ZM26.5 24.5H5.5V14.5H11.6663C12.207 14.4989 12.733 14.3236 13.1663 14L16.5 11.5H26.5V24.5ZM17.5 15.5V17H19C19.3978 17 19.7794 17.158 20.0607 17.4393C20.342 17.7206 20.5 18.1022 20.5 18.5C20.5 18.8978 20.342 19.2794 20.0607 19.5607C19.7794 19.842 19.3978 20 19 20H17.5V21.5C17.5 21.8978 17.342 22.2794 17.0607 22.5607C16.7794 22.842 16.3978 23 16 23C15.6022 23 15.2206 22.842 14.9393 22.5607C14.658 22.2794 14.5 21.8978 14.5 21.5V20H13C12.6022 20 12.2206 19.842 11.9393 19.5607C11.658 19.2794 11.5 18.8978 11.5 18.5C11.5 18.1022 11.658 17.7206 11.9393 17.4393C12.2206 17.158 12.6022 17 13 17H14.5V15.5C14.5 15.1022 14.658 14.7206 14.9393 14.4393C15.2206 14.158 15.6022 14 16 14C16.3978 14 16.7794 14.158 17.0607 14.4393C17.342 14.7206 17.5 15.1022 17.5 15.5Z" fill="black"/>
</svg>
