<svg width="32" height="32" viewBox="0 0 32 32" fill="none" xmlns="http://www.w3.org/2000/svg">
<path d="M27 8.5H16.5L13.1663 6C12.733 5.67641 12.207 5.50107 11.6663 5.5H5C4.33696 5.5 3.70107 5.76339 3.23223 6.23223C2.76339 6.70107 2.5 7.33696 2.5 8V25C2.5 25.663 2.76339 26.2989 3.23223 26.7678C3.70107 27.2366 4.33696 27.5 5 27.5H27C27.663 27.5 28.2989 27.2366 28.7678 26.7678C29.2366 26.2989 29.5 25.663 29.5 25V11C29.5 10.337 29.2366 9.70107 28.7678 9.23223C28.2989 8.76339 27.663 8.5 27 8.5ZM5.5 8.5H11.5L13.5 10L11.5 11.5H5.5V8.5ZM26.5 24.5H5.5V14.5H11.6663C12.207 14.4989 12.733 14.3236 13.1663 14L16.5 11.5H26.5V24.5ZM19 17.5C19.3978 17.5 19.7794 17.658 20.0607 17.9393C20.342 18.2206 20.5 18.6022 20.5 19C20.5 19.3978 20.342 19.7794 20.0607 20.0607C19.7794 20.342 19.3978 20.5 19 20.5H13C12.6022 20.5 12.2206 20.342 11.9393 20.0607C11.658 19.7794 11.5 19.3978 11.5 19C11.5 18.6022 11.658 18.2206 11.9393 17.9393C12.2206 17.658 12.6022 17.5 13 17.5H19Z" fill="black"/>
</svg>
