<svg width="32" height="32" viewBox="0 0 32 32" fill="none" xmlns="http://www.w3.org/2000/svg">
<path d="M28.5 7H20L16.6663 4.5C16.233 4.17641 15.707 4.00107 15.1663 4H9.5C8.83696 4 8.20107 4.26339 7.73223 4.73223C7.26339 5.20107 7 5.83696 7 6.5V9H4.5C3.83696 9 3.20107 9.26339 2.73223 9.73223C2.26339 10.2011 2 10.837 2 11.5V25.5C2 26.163 2.26339 26.7989 2.73223 27.2678C3.20107 27.7366 3.83696 28 4.5 28H23.6112C24.2446 27.9993 24.8518 27.7475 25.2996 27.2996C25.7475 26.8518 25.9993 26.2446 26 25.6112V23H28.6112C29.2446 22.9993 29.8518 22.7475 30.2996 22.2996C30.7475 21.8518 30.9993 21.2446 31 20.6112V9.5C31 8.83696 30.7366 8.20107 30.2678 7.73223C29.7989 7.26339 29.163 7 28.5 7ZM23 25H5V12H10L13.3337 14.5C13.767 14.8236 14.293 14.9989 14.8337 15H23V25ZM28 20H26V14.5C26 13.837 25.7366 13.2011 25.2678 12.7322C24.7989 12.2634 24.163 12 23.5 12H15L11.6663 9.5C11.233 9.17641 10.707 9.00107 10.1663 9H10V7H15L18.3337 9.5C18.767 9.82359 19.293 9.99893 19.8337 10H28V20Z" fill="black"/>
</svg>
