<svg width="32" height="32" viewBox="0 0 32 32" fill="none" xmlns="http://www.w3.org/2000/svg">
<path d="M29.5 11V11.5C29.5 11.8978 29.342 12.2794 29.0607 12.5607C28.7794 12.842 28.3978 13 28 13C27.6022 13 27.2206 12.842 26.9393 12.5607C26.658 12.2794 26.5 11.8978 26.5 11.5H16.3337C15.793 11.4989 15.267 11.3236 14.8337 11L11.5 8.5H5.5V24.5H13C13.3978 24.5 13.7794 24.658 14.0607 24.9393C14.342 25.2206 14.5 25.6022 14.5 26C14.5 26.3978 14.342 26.7794 14.0607 27.0607C13.7794 27.342 13.3978 27.5 13 27.5H5C4.33696 27.5 3.70107 27.2366 3.23223 26.7678C2.76339 26.2989 2.5 25.663 2.5 25V8C2.5 7.33696 2.76339 6.70107 3.23223 6.23223C3.70107 5.76339 4.33696 5.5 5 5.5H11.6663C12.207 5.50107 12.733 5.67641 13.1663 6L16.5 8.5H27C27.663 8.5 28.2989 8.76339 28.7678 9.23223C29.2366 9.70107 29.5 10.337 29.5 11ZM29.5 20.5V26C29.5 26.3978 29.342 26.7794 29.0607 27.0607C28.7794 27.342 28.3978 27.5 28 27.5H19C18.6022 27.5 18.2206 27.342 17.9393 27.0607C17.658 26.7794 17.5 26.3978 17.5 26V20.5C17.5 20.1022 17.658 19.7206 17.9393 19.4393C18.2206 19.158 18.6022 19 19 19H19.5V18.5C19.5 17.4391 19.9214 16.4217 20.6716 15.6716C21.4217 14.9214 22.4391 14.5 23.5 14.5C24.5609 14.5 25.5783 14.9214 26.3284 15.6716C27.0786 16.4217 27.5 17.4391 27.5 18.5V19H28C28.3978 19 28.7794 19.158 29.0607 19.4393C29.342 19.7206 29.5 20.1022 29.5 20.5ZM22.5 19H24.5V18.5C24.5 18.2348 24.3946 17.9804 24.2071 17.7929C24.0196 17.6054 23.7652 17.5 23.5 17.5C23.2348 17.5 22.9804 17.6054 22.7929 17.7929C22.6054 17.9804 22.5 18.2348 22.5 18.5V19ZM26.5 22H20.5V24.5H26.5V22Z" fill="black"/>
</svg>
