<svg width="32" height="32" viewBox="0 0 32 32" fill="none" xmlns="http://www.w3.org/2000/svg">
<path d="M13 16.5H19C19.3978 16.5 19.7794 16.658 20.0607 16.9393C20.342 17.2206 20.5 17.6022 20.5 18C20.5 18.3978 20.342 18.7794 20.0607 19.0607C19.7794 19.342 19.3978 19.5 19 19.5H13C12.6022 19.5 12.2206 19.342 11.9393 19.0607C11.658 18.7794 11.5 18.3978 11.5 18C11.5 17.6022 11.658 17.2206 11.9393 16.9393C12.2206 16.658 12.6022 16.5 13 16.5ZM29.5 11V25.1112C29.4993 25.7446 29.2475 26.3518 28.7996 26.7996C28.3518 27.2475 27.7446 27.4993 27.1112 27.5H5C4.33696 27.5 3.70107 27.2366 3.23223 26.7678C2.76339 26.2989 2.5 25.663 2.5 25V8C2.5 7.33696 2.76339 6.70107 3.23223 6.23223C3.70107 5.76339 4.33696 5.5 5 5.5H11.6663C12.207 5.50107 12.733 5.67641 13.1663 6L16.5 8.5H27C27.663 8.5 28.2989 8.76339 28.7678 9.23223C29.2366 9.70107 29.5 10.337 29.5 11ZM26.5 11.5H16.3337C15.793 11.4989 15.267 11.3236 14.8337 11L11.5 8.5H5.5V24.5H26.5V11.5Z" fill="black"/>
</svg>
