<svg width="32" height="32" viewBox="0 0 32 32" fill="none" xmlns="http://www.w3.org/2000/svg">
<path d="M14.07 24.5H5.5V11.5H26.5V14C26.5 14.3978 26.658 14.7794 26.9393 15.0607C27.2206 15.342 27.6022 15.5 28 15.5C28.3978 15.5 28.7794 15.342 29.0607 15.0607C29.342 14.7794 29.5 14.3978 29.5 14V11C29.5 10.337 29.2366 9.70108 28.7678 9.23224C28.2989 8.7634 27.663 8.5 27 8.5H16.6737L13.4237 4.83875C13.1887 4.57445 12.9003 4.36302 12.5775 4.21843C12.2547 4.07385 11.9049 3.9994 11.5513 4H5C4.33696 4 3.70107 4.2634 3.23223 4.73224C2.76339 5.20108 2.5 5.83696 2.5 6.5V25.0775C2.50099 25.7197 2.75654 26.3353 3.21063 26.7894C3.66472 27.2435 4.28032 27.499 4.9225 27.5H14.07C14.4678 27.5 14.8494 27.342 15.1307 27.0607C15.412 26.7794 15.57 26.3978 15.57 26C15.57 25.6022 15.412 25.2206 15.1307 24.9393C14.8494 24.658 14.4678 24.5 14.07 24.5ZM5.5 7H11.3263L12.66 8.5H5.5V7ZM30.43 19.75C30.3397 19.465 30.1662 19.2134 29.9319 19.0277C29.6976 18.8419 29.4131 18.7304 29.115 18.7075L25.6875 18.4425L24.375 15.4063C24.2583 15.1386 24.0661 14.9109 23.8218 14.7509C23.5776 14.5909 23.292 14.5057 23 14.5057C22.708 14.5057 22.4224 14.5909 22.1782 14.7509C21.9339 14.9109 21.7417 15.1386 21.625 15.4063L20.3125 18.4413L16.885 18.7063C16.5868 18.7291 16.3022 18.8406 16.0679 19.0264C15.8335 19.2123 15.6601 19.4639 15.5698 19.749C15.4795 20.0341 15.4765 20.3397 15.5612 20.6266C15.6458 20.9134 15.8143 21.1684 16.045 21.3588L18.6175 23.4838L17.8363 26.6413C17.7656 26.9278 17.781 27.2288 17.8805 27.5065C17.9801 27.7843 18.1594 28.0266 18.396 28.203C18.6325 28.3794 18.9159 28.4821 19.2105 28.4982C19.5052 28.5144 19.7981 28.4433 20.0525 28.2938L23 26.5575L25.9475 28.2925C26.2019 28.442 26.4948 28.5131 26.7895 28.497C27.0841 28.4808 27.3675 28.3781 27.604 28.2017C27.8406 28.0254 28.0199 27.7831 28.1195 27.5053C28.219 27.2275 28.2344 26.9265 28.1637 26.64L27.3825 23.4825L29.955 21.3575C30.1852 21.1673 30.3534 20.9127 30.438 20.6263C30.5226 20.3399 30.5198 20.0348 30.43 19.75ZM24.75 21.77C24.5324 21.95 24.37 22.1878 24.2815 22.4561C24.1931 22.7243 24.1821 23.0121 24.25 23.2863L24.4013 23.8975L23.7675 23.5225C23.5366 23.3874 23.2738 23.3162 23.0063 23.3162C22.7387 23.3162 22.4759 23.3874 22.245 23.5225L21.6112 23.8975L21.7625 23.2863C21.8304 23.0121 21.8194 22.7243 21.731 22.4561C21.6425 22.1878 21.4801 21.95 21.2625 21.77L20.8275 21.4113L21.4525 21.3625C21.7251 21.3416 21.9868 21.2466 22.2093 21.0877C22.4318 20.9289 22.6067 20.7123 22.715 20.4613L23.0063 19.7863L23.2975 20.4613C23.4057 20.7121 23.5804 20.9286 23.8027 21.0874C24.025 21.2463 24.2864 21.3414 24.5588 21.3625L25.1838 21.4113L24.75 21.77Z" fill="black"/>
</svg>
