<svg width="32" height="32" viewBox="0 0 32 32" fill="none" xmlns="http://www.w3.org/2000/svg">
<path d="M26.4998 22.5H19.4998C19.102 22.5 18.7205 22.658 18.4391 22.9393C18.1578 23.2206 17.9998 23.6022 17.9998 24V25.5C17.9998 26.8261 18.5266 28.0979 19.4643 29.0355C20.402 29.9732 21.6737 30.5 22.9998 30.5C24.3259 30.5 25.5977 29.9732 26.5353 29.0355C27.473 28.0979 27.9998 26.8261 27.9998 25.5V24C27.9998 23.6022 27.8418 23.2206 27.5605 22.9393C27.2792 22.658 26.8976 22.5 26.4998 22.5ZM22.9998 27.5C22.4694 27.5 21.9607 27.2893 21.5856 26.9142C21.2105 26.5391 20.9998 26.0304 20.9998 25.5H24.9998C24.9998 26.0304 24.7891 26.5391 24.414 26.9142C24.0389 27.2893 23.5302 27.5 22.9998 27.5ZM12.4998 19.5H5.49981C5.10198 19.5 4.72045 19.658 4.43915 19.9393C4.15784 20.2206 3.99981 20.6022 3.99981 21V22.5C3.99981 23.8261 4.52659 25.0979 5.46427 26.0355C6.40196 26.9732 7.67373 27.5 8.99981 27.5C10.3259 27.5 11.5977 26.9732 12.5353 26.0355C13.473 25.0979 13.9998 23.8261 13.9998 22.5V21C13.9998 20.6022 13.8418 20.2206 13.5605 19.9393C13.2792 19.658 12.8976 19.5 12.4998 19.5ZM8.99981 24.5C8.46937 24.5 7.96067 24.2893 7.58559 23.9142C7.21052 23.5391 6.99981 23.0304 6.99981 22.5H10.9998C10.9998 23.0304 10.7891 23.5391 10.414 23.9142C10.0389 24.2893 9.53024 24.5 8.99981 24.5ZM8.99981 1.5C7.24231 1.5 5.53731 3.04125 4.32356 5.72875C2.76731 9.175 2.22606 14.1688 4.71606 16.9925C4.85685 17.152 5.02998 17.2798 5.22394 17.3673C5.41791 17.4548 5.62827 17.5 5.84106 17.5H12.1561C12.3688 17.5 12.5792 17.4548 12.7732 17.3673C12.9671 17.2798 13.1403 17.152 13.2811 16.9925C15.7711 14.1688 15.2298 9.175 13.6736 5.72875C12.4598 3.04125 10.7498 1.5 8.99981 1.5ZM11.3836 14.5H6.61231C5.77356 12.9838 5.65356 10.0688 7.05731 6.9625C7.89481 5.10625 8.78481 4.5 8.99981 4.5C9.21481 4.5 10.1023 5.10625 10.9411 6.9625C12.3411 10.0688 12.2211 12.9838 11.3836 14.5ZM19.8436 20.5H26.1611C26.3738 20.5 26.5842 20.4548 26.7782 20.3673C26.9721 20.2798 27.1453 20.152 27.2861 19.9925C29.7761 17.1688 29.2348 12.175 27.6786 8.72875C26.4648 6.04125 24.7598 4.5 22.9998 4.5C21.2398 4.5 19.5373 6.04125 18.3236 8.72875C16.7673 12.175 16.2261 17.1688 18.7161 19.9925C18.8571 20.1524 19.0307 20.2803 19.2251 20.3678C19.4195 20.4553 19.6303 20.5004 19.8436 20.5ZM21.0611 9.9625C21.8998 8.10625 22.7898 7.5 22.9998 7.5C23.2098 7.5 24.1023 8.10625 24.9398 9.9625C26.3436 13.0687 26.2236 15.9838 25.3848 17.5H20.6161C19.7786 15.9838 19.6586 13.0687 21.0611 9.9625Z" fill="black"/>
</svg>
