<svg width="32" height="32" viewBox="0 0 32 32" fill="none" xmlns="http://www.w3.org/2000/svg">
<path d="M29.1326 6.64749C28.9713 5.70365 28.5211 4.83313 27.844 4.15606C27.1669 3.47899 26.2964 3.02876 25.3526 2.86749C23.4476 2.54499 20.5088 2.26999 17.3201 2.79124C13.4576 3.42374 10.1951 5.04874 7.62506 7.62499C5.05506 10.2012 3.42631 13.46 2.79381 17.3225C2.27256 20.5112 2.54381 23.4475 2.87006 25.355C3.03132 26.2988 3.48155 27.1694 4.15862 27.8464C4.83569 28.5235 5.70621 28.9737 6.65006 29.135C8.08325 29.3769 9.5341 29.4989 10.9876 29.5C12.2242 29.5023 13.459 29.4049 14.6801 29.2087C18.5426 28.5762 21.8051 26.9512 24.3776 24.3775C26.9501 21.8037 28.5763 18.5425 29.2088 14.68C29.7301 11.4912 29.4551 8.5525 29.1326 6.64749ZM26.1751 7.14749C26.3564 8.21724 26.465 9.29805 26.5001 10.3825L21.6163 5.49999C22.7009 5.53618 23.7817 5.64644 24.8513 5.82999C25.1808 5.88689 25.4848 6.04407 25.7217 6.28008C25.9586 6.51609 26.1169 6.81944 26.1751 7.14874V7.14749ZM5.82506 24.8512C5.6437 23.7819 5.53512 22.7015 5.50006 21.6175L10.3826 26.5C9.29844 26.4637 8.21804 26.3539 7.14881 26.1712C6.81911 26.1143 6.51503 25.9569 6.27811 25.7207C6.04119 25.4844 5.88297 25.1808 5.82506 24.8512ZM22.2563 22.2562C20.8813 23.6312 18.3426 25.5262 14.3563 26.235L5.76506 17.6437C6.47381 13.6575 8.37506 11.1162 9.75006 9.74999C11.1251 8.38374 13.6626 6.47999 17.6501 5.77124L26.2413 14.3625C25.5263 18.3425 23.6251 20.8837 22.2563 22.2562ZM20.5613 11.4387C20.7011 11.5781 20.8121 11.7437 20.8878 11.926C20.9635 12.1083 21.0025 12.3038 21.0025 12.5012C21.0025 12.6987 20.9635 12.8941 20.8878 13.0765C20.8121 13.2588 20.7011 13.4244 20.5613 13.5637L19.6251 14.5L20.0651 14.9387C20.3468 15.2205 20.5052 15.6027 20.5052 16.0012C20.5052 16.3998 20.3468 16.782 20.0651 17.0637C19.7833 17.3455 19.4011 17.5038 19.0026 17.5038C18.604 17.5038 18.2218 17.3455 17.9401 17.0637L17.5001 16.625L16.6251 17.5L17.0651 17.94C17.3468 18.2218 17.5052 18.604 17.5052 19.0025C17.5052 19.401 17.3468 19.7832 17.0651 20.065C16.7833 20.3468 16.4011 20.5051 16.0026 20.5051C15.604 20.5051 15.2218 20.3468 14.9401 20.065L14.5001 19.625L13.5601 20.565C13.2783 20.8468 12.8961 21.0051 12.4976 21.0051C12.099 21.0051 11.7168 20.8468 11.4351 20.565C11.1533 20.2832 10.995 19.901 10.995 19.5025C10.995 19.104 11.1533 18.7218 11.4351 18.44L12.3751 17.5L11.9351 17.0612C11.7955 16.9217 11.6848 16.7561 11.6093 16.5738C11.5338 16.3915 11.495 16.1961 11.495 15.9987C11.495 15.8014 11.5338 15.606 11.6093 15.4237C11.6848 15.2414 11.7955 15.0758 11.9351 14.9362C12.0746 14.7967 12.2402 14.686 12.4225 14.6105C12.6048 14.535 12.8002 14.4961 12.9976 14.4961C13.1949 14.4961 13.3903 14.535 13.5726 14.6105C13.7549 14.686 13.9205 14.7967 14.0601 14.9362L14.5001 15.375L15.3751 14.5L14.9351 14.06C14.6533 13.7782 14.495 13.396 14.495 12.9975C14.495 12.8002 14.5338 12.6048 14.6093 12.4225C14.6848 12.2402 14.7955 12.0745 14.9351 11.935C15.0746 11.7955 15.2402 11.6848 15.4225 11.6093C15.6048 11.5338 15.8002 11.4949 15.9976 11.4949C16.3961 11.4949 16.7783 11.6532 17.0601 11.935L17.5001 12.375L18.4401 11.435C18.7219 11.1542 19.1037 10.9969 19.5015 10.9976C19.8993 10.9983 20.2805 11.157 20.5613 11.4387Z" fill="black"/>
</svg>
