<svg width="32" height="32" viewBox="0 0 32 32" fill="none" xmlns="http://www.w3.org/2000/svg">
<path d="M8.5 11.0001V5.00008C8.5 4.60225 8.65804 4.22072 8.93934 3.93942C9.22064 3.65811 9.60218 3.50008 10 3.50008C10.3978 3.50008 10.7794 3.65811 11.0607 3.93942C11.342 4.22072 11.5 4.60225 11.5 5.00008V11.0001C11.5 11.3979 11.342 11.7794 11.0607 12.0607C10.7794 12.342 10.3978 12.5001 10 12.5001C9.60218 12.5001 9.22064 12.342 8.93934 12.0607C8.65804 11.7794 8.5 11.3979 8.5 11.0001ZM27.5 5.00008V28.0001C27.5 28.3979 27.342 28.7794 27.0607 29.0607C26.7794 29.342 26.3978 29.5001 26 29.5001C25.6022 29.5001 25.2206 29.342 24.9393 29.0607C24.658 28.7794 24.5 28.3979 24.5 28.0001V22.5001H19C18.6022 22.5001 18.2206 22.342 17.9393 22.0607C17.658 21.7794 17.5 21.3979 17.5 21.0001C17.5469 18.5651 17.854 16.1422 18.4163 13.7726C19.6775 8.55258 22.095 5.04133 25.4088 3.62508C25.6366 3.52734 25.8852 3.48762 26.1322 3.50947C26.3792 3.53132 26.6169 3.61406 26.8241 3.75028C27.0313 3.88651 27.2015 4.07197 27.3194 4.29007C27.4374 4.50818 27.4994 4.75212 27.5 5.00008ZM24.5 7.86508C22.825 9.62508 21.875 12.2501 21.3463 14.4226C20.9506 16.0913 20.6906 17.7894 20.5688 19.5001H24.5V7.86508ZM16 4.87508C15.9668 4.47725 15.777 4.10889 15.4723 3.85103C15.1675 3.59317 14.7728 3.46692 14.375 3.50008C13.9772 3.53323 13.6088 3.72306 13.351 4.0278C13.0931 4.33255 12.9668 4.72725 13 5.12508L13.5 11.0576C13.5 11.9858 13.1313 12.8761 12.4749 13.5324C11.8185 14.1888 10.9283 14.5576 10 14.5576C9.07174 14.5576 8.1815 14.1888 7.52513 13.5324C6.86875 12.8761 6.5 11.9858 6.5 11.0576L7 5.12508C7.01642 4.92809 6.99387 4.72981 6.93365 4.54154C6.87344 4.35327 6.77673 4.1787 6.64905 4.0278C6.52137 3.87691 6.36522 3.75264 6.18951 3.66209C6.0138 3.57154 5.82198 3.51649 5.625 3.50008C5.42802 3.48366 5.22973 3.50621 5.04146 3.56642C4.85319 3.62664 4.67862 3.72335 4.52773 3.85103C4.37683 3.97871 4.25256 4.13486 4.16202 4.31057C4.07147 4.48627 4.01642 4.67809 4 4.87508L3.5 10.8751C3.5 10.9176 3.5 10.9588 3.5 11.0001C3.5024 12.4625 3.99692 13.8815 4.90392 15.0286C5.81092 16.1757 7.07761 16.9842 8.5 17.3238V28.0001C8.5 28.3979 8.65804 28.7794 8.93934 29.0607C9.22064 29.342 9.60218 29.5001 10 29.5001C10.3978 29.5001 10.7794 29.342 11.0607 29.0607C11.342 28.7794 11.5 28.3979 11.5 28.0001V17.3238C12.9224 16.9842 14.1891 16.1757 15.0961 15.0286C16.0031 13.8815 16.4976 12.4625 16.5 11.0001C16.5 10.9588 16.5 10.9176 16.5 10.8751L16 4.87508Z" fill="black"/>
</svg>
