<svg width="32" height="32" viewBox="0 0 32 32" fill="none" xmlns="http://www.w3.org/2000/svg">
<path d="M26.5001 12V4.00002C26.5001 3.6022 26.342 3.22067 26.0607 2.93936C25.7794 2.65806 25.3979 2.50002 25.0001 2.50002H7.00005C6.6947 2.49842 6.39614 2.59005 6.14425 2.76266C5.89237 2.93528 5.69916 3.18066 5.59046 3.46601C5.48175 3.75136 5.46272 4.06309 5.53592 4.35954C5.60911 4.656 5.77103 4.92305 6.00005 5.12502L12.0551 10.5H7.00005C6.60223 10.5 6.2207 10.6581 5.93939 10.9394C5.65809 11.2207 5.50005 11.6022 5.50005 12V20C5.50006 20.1971 5.53893 20.3923 5.61443 20.5744C5.68993 20.7565 5.80058 20.922 5.94005 21.0613L14.9401 30.0613C15.1499 30.2709 15.4172 30.4135 15.7081 30.4713C15.999 30.529 16.3005 30.4992 16.5745 30.3856C16.8485 30.272 17.0826 30.0798 17.2474 29.8332C17.4121 29.5865 17.5 29.2966 17.5001 29V21.5H25.0001C25.3054 21.5016 25.604 21.41 25.8559 21.2374C26.1077 21.0648 26.3009 20.8194 26.4097 20.534C26.5184 20.2487 26.5374 19.937 26.4642 19.6405C26.391 19.344 26.2291 19.077 26.0001 18.875L19.9488 13.5H25.0001C25.3979 13.5 25.7794 13.342 26.0607 13.0607C26.342 12.7794 26.5001 12.3978 26.5001 12ZM21.0551 18.5H16.0001C15.6022 18.5 15.2207 18.6581 14.9394 18.9394C14.6581 19.2207 14.5001 19.6022 14.5001 20V25.375L8.50005 19.375V13.5H15.4301L21.0551 18.5ZM23.5001 10.5H16.5701L10.9451 5.50002H23.5001V10.5Z" fill="black"/>
</svg>
