<svg width="32" height="32" viewBox="0 0 32 32" fill="none" xmlns="http://www.w3.org/2000/svg">
<path d="M17.5 11C17.5 10.6022 17.658 10.2206 17.9393 9.93934C18.2206 9.65804 18.6022 9.5 19 9.5H23C23.3978 9.5 23.7794 9.65804 24.0607 9.93934C24.342 10.2206 24.5 10.6022 24.5 11V15C24.5 15.3978 24.342 15.7794 24.0607 16.0607C23.7794 16.342 23.3978 16.5 23 16.5C22.6022 16.5 22.2206 16.342 21.9393 16.0607C21.658 15.7794 21.5 15.3978 21.5 15V12.5H19C18.6022 12.5 18.2206 12.342 17.9393 12.0607C17.658 11.7794 17.5 11.3978 17.5 11ZM9 22.5H13C13.3978 22.5 13.7794 22.342 14.0607 22.0607C14.342 21.7794 14.5 21.3978 14.5 21C14.5 20.6022 14.342 20.2206 14.0607 19.9393C13.7794 19.658 13.3978 19.5 13 19.5H10.5V17C10.5 16.6022 10.342 16.2206 10.0607 15.9393C9.77936 15.658 9.39782 15.5 9 15.5C8.60218 15.5 8.22064 15.658 7.93934 15.9393C7.65804 16.2206 7.5 16.6022 7.5 17V21C7.5 21.3978 7.65804 21.7794 7.93934 22.0607C8.22064 22.342 8.60218 22.5 9 22.5ZM29.5 7V25C29.5 25.663 29.2366 26.2989 28.7678 26.7678C28.2989 27.2366 27.663 27.5 27 27.5H5C4.33696 27.5 3.70107 27.2366 3.23223 26.7678C2.76339 26.2989 2.5 25.663 2.5 25V7C2.5 6.33696 2.76339 5.70107 3.23223 5.23223C3.70107 4.76339 4.33696 4.5 5 4.5H27C27.663 4.5 28.2989 4.76339 28.7678 5.23223C29.2366 5.70107 29.5 6.33696 29.5 7ZM26.5 7.5H5.5V24.5H26.5V7.5Z" fill="black"/>
</svg>
