<svg width="32" height="32" viewBox="0 0 32 32" fill="none" xmlns="http://www.w3.org/2000/svg">
<path d="M26.5 5C26.5 5.39782 26.342 5.77936 26.0607 6.06066C25.7794 6.34196 25.3978 6.5 25 6.5H21.3388C20.7526 6.49903 20.1848 6.70404 19.7344 7.0792C19.2841 7.45437 18.9799 7.97584 18.875 8.5525L17.7975 14.5H23C23.3978 14.5 23.7794 14.658 24.0607 14.9393C24.342 15.2206 24.5 15.6022 24.5 16C24.5 16.3978 24.342 16.7794 24.0607 17.0607C23.7794 17.342 23.3978 17.5 23 17.5H17.25L16.07 23.9837C15.8397 25.2506 15.1722 26.3965 14.1838 27.2218C13.1955 28.0471 11.9489 28.4994 10.6613 28.5H7C6.60218 28.5 6.22064 28.342 5.93934 28.0607C5.65804 27.7794 5.5 27.3978 5.5 27C5.5 26.6022 5.65804 26.2206 5.93934 25.9393C6.22064 25.658 6.60218 25.5 7 25.5H10.6613C11.2474 25.501 11.8152 25.296 12.2655 24.9208C12.7159 24.5456 13.0201 24.0242 13.125 23.4475L14.2025 17.5H9C8.60218 17.5 8.22064 17.342 7.93934 17.0607C7.65804 16.7794 7.5 16.3978 7.5 16C7.5 15.6022 7.65804 15.2206 7.93934 14.9393C8.22064 14.658 8.60218 14.5 9 14.5H14.75L15.93 8.01625C16.1603 6.7494 16.8278 5.6035 17.8162 4.77822C18.8045 3.95294 20.0511 3.5006 21.3388 3.5H25C25.3978 3.5 25.7794 3.65804 26.0607 3.93934C26.342 4.22064 26.5 4.60218 26.5 5Z" fill="black"/>
</svg>
