<svg width="32" height="32" viewBox="0 0 32 32" fill="none" xmlns="http://www.w3.org/2000/svg">
<path d="M30 23.4999H29.5V12.3336C29.5005 11.9214 29.3991 11.5155 29.2048 11.1519C29.0105 10.7883 28.7293 10.4785 28.3862 10.2499L17.3862 2.9174C16.976 2.64288 16.4936 2.49634 16 2.49634C15.5064 2.49634 15.024 2.64288 14.6138 2.9174L3.61375 10.2499C3.2707 10.4785 2.9895 10.7883 2.79518 11.1519C2.60086 11.5155 2.49946 11.9214 2.5 12.3336V23.4999H2C1.60218 23.4999 1.22064 23.6579 0.93934 23.9392C0.658035 24.2205 0.5 24.6021 0.5 24.9999C0.5 25.3977 0.658035 25.7793 0.93934 26.0606C1.22064 26.3419 1.60218 26.4999 2 26.4999H30C30.3978 26.4999 30.7794 26.3419 31.0607 26.0606C31.342 25.7793 31.5 25.3977 31.5 24.9999C31.5 24.6021 31.342 24.2205 31.0607 23.9392C30.7794 23.6579 30.3978 23.4999 30 23.4999ZM5.5 12.6011L16 5.60115L26.5 12.6011V23.4999H24.5V14.9999C24.5 14.6021 24.342 14.2205 24.0607 13.9392C23.7794 13.6579 23.3978 13.4999 23 13.4999H9C8.60218 13.4999 8.22064 13.6579 7.93934 13.9392C7.65804 14.2205 7.5 14.6021 7.5 14.9999V23.4999H5.5V12.6011ZM21.5 16.4999V18.4999H17.5V16.4999H21.5ZM14.5 18.4999H10.5V16.4999H14.5V18.4999ZM10.5 21.4999H14.5V23.4999H10.5V21.4999ZM17.5 21.4999H21.5V23.4999H17.5V21.4999Z" fill="black"/>
</svg>
