<svg width="32" height="32" viewBox="0 0 32 32" fill="none" xmlns="http://www.w3.org/2000/svg">
<path d="M25 2.49995H16.4138C16.0853 2.49907 15.76 2.56335 15.4566 2.68909C15.1532 2.81482 14.8778 2.99951 14.6463 3.23245L13.2075 4.6712L11.2675 2.73245C10.7987 2.26378 10.1629 2.00049 9.50002 2.00049C8.8371 2.00049 8.20133 2.26378 7.73252 2.73245L4.73252 5.73245C4.26384 6.20127 4.00055 6.83704 4.00055 7.49995C4.00055 8.16286 4.26384 8.79864 4.73252 9.26745L6.67127 11.2075L5.23252 12.6462C4.99957 12.8777 4.81489 13.1532 4.68915 13.4566C4.56341 13.76 4.49913 14.0853 4.50002 14.4137V27C4.50002 27.663 4.76341 28.2989 5.23225 28.7677C5.70109 29.2366 6.33697 29.5 7.00002 29.5H25C25.6631 29.5 26.2989 29.2366 26.7678 28.7677C27.2366 28.2989 27.5 27.663 27.5 27V4.99995C27.5 4.33691 27.2366 3.70103 26.7678 3.23219C26.2989 2.76335 25.6631 2.49995 25 2.49995ZM7.20752 7.49995L9.50002 5.20745L11.0863 6.79245L8.79251 9.0862L7.20752 7.49995ZM24.5 26.5H7.50002V14.625L9.85377 12.2675L16.625 5.49995H24.5V26.5ZM17 8.49995C17 8.10213 17.1581 7.7206 17.4394 7.43929C17.7207 7.15799 18.1022 6.99995 18.5 6.99995H21C21.3978 6.99995 21.7794 7.15799 22.0607 7.43929C22.342 7.7206 22.5 8.10213 22.5 8.49995C22.5 8.89778 22.342 9.27931 22.0607 9.56061C21.7794 9.84192 21.3978 9.99995 21 9.99995H18.5C18.1022 9.99995 17.7207 9.84192 17.4394 9.56061C17.1581 9.27931 17 8.89778 17 8.49995ZM21.9375 16.6712L18.4013 19.5L21.9375 22.3287C22.0913 22.4518 22.2194 22.604 22.3144 22.7766C22.4094 22.9492 22.4694 23.1389 22.4911 23.3347C22.5128 23.5305 22.4958 23.7287 22.4409 23.9179C22.386 24.1071 22.2944 24.2836 22.1713 24.4375C22.0482 24.5913 21.8959 24.7193 21.7233 24.8143C21.5507 24.9093 21.3611 24.9694 21.1653 24.9911C20.9695 25.0128 20.7713 24.9957 20.5821 24.9408C20.3929 24.8859 20.2163 24.7943 20.0625 24.6712L16 21.4212L11.9375 24.6712C11.6269 24.9198 11.2302 25.0349 10.8347 24.9911C10.4393 24.9472 10.0774 24.7481 9.82876 24.4375C9.58012 24.1268 9.46507 23.7301 9.5089 23.3347C9.55274 22.9392 9.75188 22.5773 10.0625 22.3287L13.5988 19.5L10.0625 16.6712C9.9087 16.5481 9.78065 16.3959 9.68566 16.2233C9.59067 16.0507 9.53061 15.8611 9.5089 15.6652C9.46507 15.2698 9.58012 14.8731 9.82876 14.5625C10.0774 14.2518 10.4393 14.0527 10.8347 14.0088C11.0305 13.9871 11.2287 14.0042 11.4179 14.0591C11.6072 14.114 11.7837 14.2056 11.9375 14.3287L16 17.5787L20.0625 14.3287C20.2163 14.2056 20.3929 14.114 20.5821 14.0591C20.7713 14.0042 20.9695 13.9871 21.1653 14.0088C21.3611 14.0305 21.5507 14.0906 21.7233 14.1856C21.8959 14.2806 22.0482 14.4086 22.1713 14.5625C22.2944 14.7163 22.386 14.8928 22.4409 15.082C22.4958 15.2713 22.5128 15.4694 22.4911 15.6652C22.4694 15.8611 22.4094 16.0507 22.3144 16.2233C22.2194 16.3959 22.0913 16.5481 21.9375 16.6712Z" fill="black"/>
</svg>
