<svg width="32" height="32" viewBox="0 0 32 32" fill="none" xmlns="http://www.w3.org/2000/svg">
<path d="M30.975 8.35375L28.5613 5.93875C28.2795 5.65696 27.8973 5.49865 27.4988 5.49865C27.1002 5.49865 26.718 5.65696 26.4363 5.93875C26.1545 6.22054 25.9961 6.60274 25.9961 7.00125C25.9961 7.39976 26.1545 7.78196 26.4363 8.06375L28.8538 10.475C28.9002 10.5215 28.937 10.5766 28.9621 10.6373C28.9872 10.698 29.0001 10.7631 29 10.8287V20.75C29 20.9489 28.921 21.1397 28.7803 21.2803C28.6397 21.421 28.4489 21.5 28.25 21.5C28.0511 21.5 27.8603 21.421 27.7197 21.2803C27.579 21.1397 27.5 20.9489 27.5 20.75V16C27.5 15.0717 27.1313 14.1815 26.4749 13.5251C25.8185 12.8687 24.9283 12.5 24 12.5H22.5V7C22.5 6.07174 22.1313 5.1815 21.4749 4.52513C20.8185 3.86875 19.9283 3.5 19 3.5H9C8.07174 3.5 7.1815 3.86875 6.52513 4.52513C5.86875 5.1815 5.5 6.07174 5.5 7V25.5H4C3.60218 25.5 3.22064 25.658 2.93934 25.9393C2.65804 26.2206 2.5 26.6022 2.5 27C2.5 27.3978 2.65804 27.7794 2.93934 28.0607C3.22064 28.342 3.60218 28.5 4 28.5H24C24.3978 28.5 24.7794 28.342 25.0607 28.0607C25.342 27.7794 25.5 27.3978 25.5 27C25.5 26.6022 25.342 26.2206 25.0607 25.9393C24.7794 25.658 24.3978 25.5 24 25.5H22.5V15.5H24C24.1326 15.5 24.2598 15.5527 24.3536 15.6464C24.4473 15.7402 24.5 15.8674 24.5 16V20.75C24.5 21.7446 24.8951 22.6984 25.5983 23.4017C26.3016 24.1049 27.2554 24.5 28.25 24.5C29.2446 24.5 30.1984 24.1049 30.9017 23.4017C31.6049 22.6984 32 21.7446 32 20.75V10.8287C32.0013 10.3689 31.9114 9.91339 31.7355 9.48855C31.5595 9.06371 31.3011 8.678 30.975 8.35375ZM8.5 25.5V7C8.5 6.86739 8.55268 6.74021 8.64645 6.64645C8.74021 6.55268 8.86739 6.5 9 6.5H19C19.1326 6.5 19.2598 6.55268 19.3536 6.64645C19.4473 6.74021 19.5 6.86739 19.5 7V25.5H8.5ZM17.5 14C17.5 14.3978 17.342 14.7794 17.0607 15.0607C16.7794 15.342 16.3978 15.5 16 15.5H12C11.6022 15.5 11.2206 15.342 10.9393 15.0607C10.658 14.7794 10.5 14.3978 10.5 14C10.5 13.6022 10.658 13.2206 10.9393 12.9393C11.2206 12.658 11.6022 12.5 12 12.5H16C16.3978 12.5 16.7794 12.658 17.0607 12.9393C17.342 13.2206 17.5 13.6022 17.5 14Z" fill="black"/>
</svg>
