<svg width="32" height="32" viewBox="0 0 32 32" fill="none" xmlns="http://www.w3.org/2000/svg">
<path d="M26.235 9.72881C24.8925 8.38331 23.297 7.3169 21.5403 6.59111C19.7836 5.86533 17.9007 5.49451 16 5.50006H15.9487C7.98125 5.52756 1.5 12.0951 1.5 20.1413V23.0001C1.5 23.6631 1.76339 24.299 2.23223 24.7678C2.70107 25.2367 3.33696 25.5001 4 25.5001H28C28.663 25.5001 29.2989 25.2367 29.7678 24.7678C30.2366 24.299 30.5 23.6631 30.5 23.0001V20.0001C30.5052 18.0908 30.1308 16.1996 29.3986 14.4363C28.6664 12.673 27.5911 11.0728 26.235 9.72881ZM27.5 22.5001H15.915L21.72 14.3751C21.8349 14.2148 21.9171 14.0336 21.962 13.8416C22.0068 13.6496 22.0134 13.4506 21.9814 13.2561C21.9494 13.0616 21.8793 12.8752 21.7753 12.7078C21.6712 12.5403 21.5352 12.395 21.375 12.2801C21.2148 12.1652 21.0335 12.0829 20.8415 12.0381C20.6495 11.9932 20.4506 11.9866 20.256 12.0187C20.0615 12.0507 19.8752 12.1207 19.7077 12.2248C19.5402 12.3288 19.3949 12.4648 19.28 12.6251L12.2275 22.5001H4.5V20.1413C4.5 19.9263 4.5 19.7126 4.5175 19.5001H7C7.39782 19.5001 7.77936 19.342 8.06066 19.0607C8.34196 18.7794 8.5 18.3979 8.5 18.0001C8.5 17.6022 8.34196 17.2207 8.06066 16.9394C7.77936 16.6581 7.39782 16.5001 7 16.5001H5.0775C6.44125 12.3263 10.0775 9.18506 14.5 8.59881V11.0001C14.5 11.3979 14.658 11.7794 14.9393 12.0607C15.2206 12.342 15.6022 12.5001 16 12.5001C16.3978 12.5001 16.7794 12.342 17.0607 12.0607C17.342 11.7794 17.5 11.3979 17.5 11.0001V8.60006C19.6635 8.88396 21.7016 9.77751 23.3762 11.1764C25.0509 12.5752 26.293 14.4217 26.9575 16.5001H25C24.6022 16.5001 24.2206 16.6581 23.9393 16.9394C23.658 17.2207 23.5 17.6022 23.5 18.0001C23.5 18.3979 23.658 18.7794 23.9393 19.0607C24.2206 19.342 24.6022 19.5001 25 19.5001H27.4875C27.495 19.6663 27.5 19.8326 27.5 20.0001V22.5001Z" fill="black"/>
</svg>
