<svg width="32" height="32" viewBox="0 0 32 32" fill="none" xmlns="http://www.w3.org/2000/svg">
<path d="M30 20V23C30 23.5304 29.7893 24.0391 29.4142 24.4142C29.0391 24.7892 28.5304 25 28 25H14.4913C14.399 25 14.3086 24.9746 14.2299 24.9265C14.1512 24.8783 14.0874 24.8094 14.0455 24.7272C14.0036 24.6451 13.9852 24.5529 13.9924 24.461C13.9996 24.369 14.0321 24.2808 14.0863 24.2062L21.7838 13.625C21.9433 13.413 22.0146 13.1476 21.9827 12.8842C21.9507 12.6209 21.8181 12.3801 21.6125 12.2125C21.5067 12.1304 21.3856 12.0704 21.2562 12.036C21.1268 12.0017 20.9918 11.9937 20.8593 12.0124C20.7268 12.0312 20.5993 12.0764 20.4846 12.1453C20.3698 12.2142 20.2701 12.3055 20.1912 12.4137L11.1912 24.7962C11.1441 24.8604 11.0823 24.9123 11.0109 24.9478C10.9396 24.9832 10.8609 25.0011 10.7812 25H4C3.46957 25 2.96086 24.7892 2.58579 24.4142C2.21071 24.0391 2 23.5304 2 23V20.1412C2 19.9175 2 19.695 2.01625 19.475C2.02267 19.3467 2.07817 19.2259 2.17125 19.1375C2.26433 19.049 2.38786 18.9998 2.51625 19H6C6.13709 19.0003 6.27277 18.9724 6.39863 18.918C6.52448 18.8637 6.63782 18.784 6.7316 18.684C6.82538 18.5841 6.8976 18.4658 6.94377 18.3368C6.98994 18.2077 7.00908 18.0705 7 17.9337C6.97788 17.6761 6.85889 17.4365 6.66704 17.2632C6.47519 17.0899 6.22475 16.9958 5.96625 17H2.99C2.91372 16.9999 2.83847 16.9824 2.77 16.9488C2.70153 16.9152 2.64166 16.8663 2.59497 16.806C2.54829 16.7457 2.51602 16.6755 2.50064 16.6008C2.48526 16.5261 2.48718 16.4488 2.50625 16.375C4.00625 10.895 8.71375 6.73371 14.4462 6.08996C14.5163 6.08239 14.5871 6.0897 14.6541 6.11141C14.7211 6.13312 14.7828 6.16875 14.8351 6.21596C14.8874 6.26316 14.9291 6.32088 14.9575 6.38534C14.9859 6.44979 15.0004 6.51952 15 6.58996V9.99996C14.9997 10.137 15.0276 10.2727 15.0819 10.3986C15.1363 10.5244 15.2159 10.6378 15.3159 10.7316C15.4159 10.8253 15.5341 10.8976 15.6632 10.9437C15.7923 10.9899 15.9295 11.009 16.0662 11C16.3238 10.9778 16.5634 10.8589 16.7367 10.667C16.91 10.4751 17.0041 10.2247 17 9.96621V6.58371C16.9996 6.51327 17.0141 6.44354 17.0425 6.37909C17.0709 6.31463 17.1126 6.25691 17.1649 6.20971C17.2172 6.1625 17.2789 6.12687 17.3459 6.10516C17.4129 6.08345 17.4837 6.07614 17.5537 6.08371C20.3524 6.3982 22.9915 7.5481 25.1274 9.38367C27.2633 11.2192 28.797 13.6554 29.5287 16.375C29.5478 16.4489 29.5497 16.5263 29.5343 16.6011C29.5189 16.6759 29.4865 16.7461 29.4396 16.8065C29.3928 16.8668 29.3328 16.9157 29.2642 16.9492C29.1955 16.9827 29.1201 17.0001 29.0438 17H26.0338C25.7757 16.9965 25.5259 17.0909 25.3345 17.2641C25.1432 17.4373 25.0246 17.6766 25.0025 17.9337C24.9934 18.0705 25.0126 18.2077 25.0587 18.3368C25.1049 18.4658 25.1771 18.5841 25.2709 18.684C25.3647 18.784 25.478 18.8637 25.6039 18.918C25.7297 18.9724 25.8654 19.0003 26.0025 19H29.4925C29.6221 18.9999 29.7467 19.0501 29.84 19.1402C29.9333 19.2302 29.988 19.3529 29.9925 19.4825C30 19.6537 30 19.8262 30 20Z" fill="black"/>
</svg>
