<svg width="32" height="32" viewBox="0 0 32 32" fill="none" xmlns="http://www.w3.org/2000/svg">
<path d="M25.5287 10.4375C24.2728 9.17975 22.7795 8.18402 21.1356 7.50809C19.4917 6.83216 17.7299 6.48949 15.9525 6.49999C8.535 6.52624 2.5 12.645 2.5 20.1412V23C2.5 23.3978 2.65804 23.7793 2.93934 24.0606C3.22064 24.342 3.60218 24.5 4 24.5H28C28.3978 24.5 28.7794 24.342 29.0607 24.0606C29.342 23.7793 29.5 23.3978 29.5 23V20C29.5051 18.2224 29.1566 16.4615 28.4748 14.8199C27.7931 13.1782 26.7916 11.6885 25.5287 10.4375ZM28.5 23C28.5 23.1326 28.4473 23.2598 28.3536 23.3535C28.2598 23.4473 28.1326 23.5 28 23.5H13.9812L21.4037 13.2937C21.4465 13.241 21.4781 13.1802 21.4966 13.1148C21.5151 13.0495 21.5201 12.9811 21.5113 12.9138C21.5025 12.8465 21.4801 12.7817 21.4454 12.7233C21.4108 12.665 21.3646 12.6143 21.3097 12.5743C21.2548 12.5344 21.1923 12.5061 21.1261 12.491C21.0599 12.476 20.9914 12.4746 20.9246 12.487C20.8579 12.4993 20.7943 12.5251 20.7379 12.5628C20.6814 12.6005 20.6332 12.6493 20.5963 12.7062L12.75 23.5H4C3.86739 23.5 3.74021 23.4473 3.64645 23.3535C3.55268 23.2598 3.5 23.1326 3.5 23V20.1412C3.50013 19.5925 3.5352 19.0443 3.605 18.5H7C7.13261 18.5 7.25979 18.4473 7.35355 18.3535C7.44732 18.2598 7.5 18.1326 7.5 18C7.5 17.8674 7.44732 17.7402 7.35355 17.6464C7.25979 17.5527 7.13261 17.5 7 17.5H3.77625C4.94875 11.9575 9.73 7.74124 15.5 7.51124V11C15.5 11.1326 15.5527 11.2598 15.6464 11.3535C15.7402 11.4473 15.8674 11.5 16 11.5C16.1326 11.5 16.2598 11.4473 16.3536 11.3535C16.4473 11.2598 16.5 11.1326 16.5 11V7.50999C19.2931 7.62298 21.9679 8.66821 24.0976 10.4789C26.2273 12.2896 27.6892 14.7614 28.25 17.5H25C24.8674 17.5 24.7402 17.5527 24.6464 17.6464C24.5527 17.7402 24.5 17.8674 24.5 18C24.5 18.1326 24.5527 18.2598 24.6464 18.3535C24.7402 18.4473 24.8674 18.5 25 18.5H28.4112C28.4704 18.9978 28.5 19.4987 28.5 20V23Z" fill="black"/>
</svg>
