<svg width="32" height="32" viewBox="0 0 32 32" fill="none" xmlns="http://www.w3.org/2000/svg">
<path d="M30.7675 14.2325L28.7675 12.2325C28.3968 11.8621 27.919 11.6176 27.4018 11.5335C26.8846 11.4494 26.354 11.5299 25.885 11.7637L20.235 6.11373C20.469 5.64489 20.5497 5.11437 20.4659 4.59713C20.382 4.0799 20.1377 3.6021 19.7675 3.23123L17.7675 1.23123C17.2987 0.762556 16.6629 0.499268 16 0.499268C15.3371 0.499268 14.7013 0.762556 14.2325 1.23123L6.2325 9.23123C5.76382 9.70005 5.50053 10.3358 5.50053 10.9987C5.50053 11.6616 5.76382 12.2974 6.2325 12.7662L8.2325 14.7662C8.60206 15.1358 9.07815 15.3803 9.59384 15.4653C10.1095 15.5502 10.6389 15.4714 11.1075 15.24L3.67 22.6725C2.91977 23.4227 2.49829 24.4402 2.49829 25.5012C2.49829 26.5622 2.91977 27.5798 3.67 28.33C4.42023 29.0802 5.43776 29.5017 6.49875 29.5017C7.55973 29.5017 8.57727 29.0802 9.3275 28.33L16.75 20.9012C16.5206 21.3692 16.4432 21.8972 16.5285 22.4113C16.6139 22.9254 16.8579 23.4 17.2262 23.7687L19.2262 25.7687C19.4584 26.001 19.7341 26.1852 20.0374 26.3109C20.3408 26.4366 20.666 26.5013 20.9944 26.5013C21.3228 26.5013 21.6479 26.4366 21.9513 26.3109C22.2547 26.1852 22.5303 26.001 22.7625 25.7687L30.7625 17.7687C30.9948 17.5366 31.179 17.2609 31.3047 16.9576C31.4304 16.6542 31.4951 16.329 31.4951 16.0006C31.4951 15.6722 31.4304 15.347 31.3047 15.0437C31.179 14.7403 30.9948 14.4646 30.7625 14.2325H30.7675ZM10 12.2925L8.705 11L16 3.70623L17.2925 4.99998L10 12.2925ZM7.205 26.2087C7.01736 26.3962 6.76293 26.5015 6.49768 26.5013C6.23243 26.5012 5.9781 26.3957 5.79062 26.2081C5.60315 26.0205 5.49789 25.766 5.49801 25.5008C5.49813 25.2355 5.60361 24.9812 5.79125 24.7937L13.2312 17.3537L14.645 18.7687L7.205 26.2087ZM18.7925 18.6725L13.3275 13.2075L18.2025 8.33248L23.6675 13.7975L18.7925 18.6725ZM20.9987 23.2975L19.7062 22L27 14.7075L28.2925 16L20.9987 23.2975Z" fill="black"/>
</svg>
