<svg width="32" height="32" viewBox="0 0 32 32" fill="none" xmlns="http://www.w3.org/2000/svg">
<path d="M16 10.2501C14.8627 10.2501 13.751 10.5873 12.8054 11.2191C11.8599 11.8509 11.1229 12.749 10.6877 13.7996C10.2525 14.8503 10.1386 16.0065 10.3605 17.1218C10.5823 18.2372 11.13 19.2618 11.9341 20.0659C12.7383 20.8701 13.7628 21.4177 14.8782 21.6396C15.9936 21.8615 17.1497 21.7476 18.2004 21.3124C19.2511 20.8772 20.1491 20.1402 20.7809 19.1946C21.4127 18.249 21.75 17.1373 21.75 16.0001C21.748 14.4757 21.1415 13.0143 20.0636 11.9364C18.9857 10.8585 17.5244 10.2521 16 10.2501ZM16 20.2501C15.1594 20.2501 14.3377 20.0008 13.6388 19.5338C12.9399 19.0668 12.3952 18.4031 12.0735 17.6265C11.7518 16.8499 11.6676 15.9954 11.8316 15.1709C11.9956 14.3465 12.4004 13.5892 12.9948 12.9949C13.5891 12.4005 14.3464 11.9957 15.1708 11.8317C15.9953 11.6678 16.8498 11.7519 17.6264 12.0736C18.403 12.3953 19.0667 12.94 19.5337 13.6389C20.0007 14.3378 20.25 15.1595 20.25 16.0001C20.25 17.1272 19.8022 18.2082 19.0052 19.0053C18.2081 19.8023 17.1271 20.2501 16 20.2501ZM26.75 16.3551C26.7575 16.1188 26.7575 15.8813 26.75 15.6451L28.6662 13.2501C28.7395 13.1584 28.7902 13.0508 28.8143 12.936C28.8384 12.8211 28.8352 12.7022 28.805 12.5888C28.5052 11.4589 28.0562 10.374 27.47 9.36258C27.4117 9.25993 27.3301 9.17247 27.2317 9.10731C27.1333 9.04215 27.0209 9.00112 26.9037 8.98758L23.8475 8.64883C23.6866 8.47633 23.52 8.30966 23.3475 8.14883L23.0075 5.09132C22.9939 4.97409 22.9529 4.86171 22.8877 4.76332C22.8226 4.66493 22.7351 4.5833 22.6325 4.52507C21.6223 3.94052 20.5391 3.49245 19.4112 3.19258C19.2975 3.16287 19.1785 3.16029 19.0636 3.18504C18.9488 3.2098 18.8413 3.26119 18.75 3.33507L16.35 5.25632C16.1137 5.24882 15.8762 5.24882 15.64 5.25632L13.25 3.33382C13.1583 3.26058 13.0507 3.20987 12.9359 3.18577C12.821 3.16167 12.7021 3.16486 12.5887 3.19507C11.4588 3.49489 10.3739 3.94383 9.36247 4.53008C9.25982 4.5883 9.17236 4.66993 9.1072 4.76832C9.04204 4.86671 9.00102 4.97909 8.98747 5.09632L8.65372 8.15258C8.48122 8.31424 8.31455 8.48091 8.15372 8.65258L5.09497 9.00007C4.97773 9.01362 4.86535 9.05465 4.76696 9.11981C4.66857 9.18497 4.58694 9.27243 4.52872 9.37507C3.94416 10.3852 3.49609 11.4684 3.19622 12.5963C3.16723 12.7086 3.16467 12.8261 3.18875 12.9395C3.21282 13.0529 3.26287 13.1592 3.33497 13.2501L5.25622 15.6501C5.24872 15.8863 5.24872 16.1238 5.25622 16.3601L3.33372 18.7563C3.26047 18.848 3.20976 18.9556 3.18566 19.0704C3.16156 19.1853 3.16475 19.3042 3.19497 19.4176C3.4953 20.5453 3.94424 21.6281 4.52997 22.6376C4.58819 22.7402 4.66982 22.8277 4.76821 22.8928C4.8666 22.958 4.97898 22.999 5.09622 23.0126L8.15247 23.3513C8.31413 23.5238 8.4808 23.6905 8.65247 23.8513L8.99997 26.9051C9.01352 27.0223 9.05454 27.1347 9.1197 27.2331C9.18486 27.3315 9.27232 27.4131 9.37497 27.4713C10.3851 28.0559 11.4683 28.5039 12.5962 28.8038C12.7096 28.834 12.8285 28.8372 12.9434 28.8131C13.0582 28.789 13.1658 28.7383 13.2575 28.6651L15.645 26.7501C15.8812 26.7576 16.1187 26.7576 16.355 26.7501L18.7562 28.6726C18.8893 28.7788 19.0547 28.8365 19.225 28.8363C19.2899 28.8361 19.3546 28.8277 19.4175 28.8113C20.5452 28.511 21.628 28.0621 22.6375 27.4763C22.7401 27.4181 22.8276 27.3365 22.8927 27.2381C22.9579 27.1397 22.9989 27.0273 23.0125 26.9101L23.3512 23.8538C23.5237 23.693 23.6904 23.5263 23.8512 23.3538L26.9087 23.0138C27.0259 23.0003 27.1383 22.9593 27.2367 22.8941C27.3351 22.8289 27.4167 22.7415 27.475 22.6388C28.0597 21.6288 28.5078 20.5456 28.8075 19.4176C28.8377 19.3042 28.8409 19.1853 28.8168 19.0704C28.7927 18.9556 28.742 18.848 28.6687 18.7563L26.75 16.3551ZM26.3625 21.5588L23.4075 21.8876C23.2228 21.9089 23.0527 21.998 22.93 22.1376C22.6829 22.4159 22.4195 22.6793 22.1412 22.9263C22.0016 23.049 21.9125 23.2192 21.8912 23.4038L21.5625 26.3576C20.8706 26.7265 20.1437 27.0255 19.3925 27.2501L17.0712 25.3926C16.9381 25.2864 16.7728 25.2286 16.6025 25.2288H16.5575C16.1861 25.2501 15.8138 25.2501 15.4425 25.2288C15.257 25.2175 15.0739 25.2754 14.9287 25.3913L12.6087 27.2501C11.8582 27.0243 11.1321 26.724 10.4412 26.3538L10.1125 23.4013C10.0912 23.2167 10.0021 23.0465 9.86247 22.9238C9.58416 22.6768 9.32077 22.4134 9.07372 22.1351C8.95103 21.9955 8.78086 21.9064 8.59622 21.8851L5.64247 21.5563C5.2739 20.8665 4.97493 20.1417 4.74997 19.3926L6.60747 17.0713C6.7234 16.9261 6.78131 16.743 6.76997 16.5576C6.74872 16.1862 6.74872 15.8139 6.76997 15.4426C6.78131 15.2571 6.7234 15.074 6.60747 14.9288L4.74997 12.6088C4.97578 11.8583 5.27602 11.1322 5.64622 10.4413L8.59872 10.1126C8.78336 10.0913 8.95353 10.0022 9.07622 9.86258C9.32328 9.58426 9.58666 9.32088 9.86497 9.07382C10.0046 8.95113 10.0937 8.78097 10.115 8.59632L10.4437 5.64257C11.1336 5.27401 11.8584 4.97504 12.6075 4.75007L14.9287 6.60757C15.0739 6.72351 15.257 6.78142 15.4425 6.77007C15.8138 6.74882 16.1861 6.74882 16.5575 6.77007C16.7429 6.78142 16.926 6.72351 17.0712 6.60757L19.3912 4.75007C20.1418 4.97589 20.8679 5.27613 21.5587 5.64632L21.8875 8.60132C21.9088 8.78597 21.9978 8.95613 22.1375 9.07882C22.4158 9.32588 22.6792 9.58926 22.9262 9.86758C23.0489 10.0072 23.2191 10.0963 23.4037 10.1176L26.3575 10.4463C26.7259 11.1354 27.0248 11.8594 27.25 12.6076L25.3925 14.9288C25.2765 15.074 25.2186 15.2571 25.23 15.4426C25.2512 15.8139 25.2512 16.1862 25.23 16.5576C25.2186 16.743 25.2765 16.9261 25.3925 17.0713L27.25 19.3913C27.025 20.1418 26.7256 20.8679 26.3562 21.5588H26.3625Z" fill="black"/>
</svg>
