<svg width="32" height="32" viewBox="0 0 32 32" fill="none" xmlns="http://www.w3.org/2000/svg">
<path d="M29 14.5H27.4025C27.2726 13.5028 27.0111 12.5273 26.625 11.5988L28.01 10.7987C28.1844 10.7023 28.3378 10.572 28.4612 10.4155C28.5847 10.2591 28.6757 10.0796 28.729 9.88761C28.7823 9.69558 28.7968 9.49486 28.7717 9.29717C28.7466 9.09948 28.6823 8.90877 28.5827 8.73619C28.483 8.56362 28.3499 8.41263 28.1913 8.29205C28.0326 8.17147 27.8515 8.08372 27.6586 8.03391C27.4656 7.98411 27.2646 7.97326 27.0674 8.00199C26.8702 8.03072 26.6807 8.09846 26.51 8.20125L25.125 9C24.5118 8.20257 23.7974 7.48825 23 6.875L23.8013 5.48625C23.904 5.31552 23.9718 5.12602 24.0005 4.92882C24.0292 4.73161 24.0184 4.53066 23.9686 4.3377C23.9188 4.14474 23.831 3.96363 23.7104 3.80497C23.5899 3.6463 23.4389 3.51325 23.2663 3.41359C23.0937 3.31393 22.903 3.24966 22.7053 3.22453C22.5076 3.1994 22.3069 3.21392 22.1149 3.26723C21.9229 3.32055 21.7434 3.41159 21.587 3.53504C21.4305 3.6585 21.3002 3.81188 21.2038 3.98625L20.4013 5.375C19.4727 4.98887 18.4972 4.72743 17.5 4.5975V3C17.5 2.60218 17.342 2.22064 17.0607 1.93934C16.7794 1.65804 16.3978 1.5 16 1.5C15.6022 1.5 15.2206 1.65804 14.9393 1.93934C14.658 2.22064 14.5 2.60218 14.5 3V4.5975C13.5028 4.72743 12.5273 4.98887 11.5988 5.375L10.7987 3.99C10.596 3.65324 10.2692 3.40952 9.88854 3.31129C9.50793 3.21305 9.10396 3.26815 8.76356 3.46473C8.42315 3.6613 8.17351 3.98365 8.06835 4.3624C7.96319 4.74116 8.01092 5.14607 8.20125 5.49L9 6.875C8.20257 7.48825 7.48825 8.20257 6.875 9L5.49125 8.20125C5.14732 8.01092 4.74241 7.96319 4.36365 8.06835C3.9849 8.17351 3.66255 8.42315 3.46598 8.76356C3.2694 9.10396 3.2143 9.50793 3.31254 9.88854C3.41077 10.2692 3.65449 10.596 3.99125 10.7987L5.375 11.5988C4.98887 12.5273 4.72743 13.5028 4.5975 14.5H3C2.60218 14.5 2.22064 14.658 1.93934 14.9393C1.65804 15.2206 1.5 15.6022 1.5 16C1.5 16.3978 1.65804 16.7794 1.93934 17.0607C2.22064 17.342 2.60218 17.5 3 17.5H4.5975C4.72743 18.4972 4.98887 19.4727 5.375 20.4013L3.99 21.2013C3.81563 21.2977 3.66225 21.428 3.53879 21.5845C3.41534 21.7409 3.3243 21.9204 3.27098 22.1124C3.21767 22.3044 3.20315 22.5051 3.22828 22.7028C3.25341 22.9005 3.31768 23.0912 3.41734 23.2638C3.517 23.4364 3.65005 23.5874 3.80872 23.708C3.96738 23.8285 4.14849 23.9163 4.34145 23.9661C4.53441 24.0159 4.73536 24.0267 4.93257 23.998C5.12977 23.9693 5.31927 23.9015 5.49 23.7987L6.875 23C7.48825 23.7974 8.20257 24.5118 9 25.125L8.19875 26.5138C8.09596 26.6845 8.02822 26.874 7.99949 27.0712C7.97076 27.2684 7.98161 27.4693 8.03141 27.6623C8.08122 27.8553 8.16897 28.0364 8.28955 28.195C8.41013 28.3537 8.56112 28.4867 8.73369 28.5864C8.90627 28.6861 9.09698 28.7503 9.29467 28.7755C9.49236 28.8006 9.69308 28.7861 9.88511 28.7328C10.0771 28.6795 10.2566 28.5884 10.413 28.465C10.5695 28.3415 10.6998 28.1881 10.7963 28.0138L11.5988 26.625C12.5273 27.0111 13.5028 27.2726 14.5 27.4025V29C14.5 29.3978 14.658 29.7794 14.9393 30.0607C15.2206 30.342 15.6022 30.5 16 30.5C16.3978 30.5 16.7794 30.342 17.0607 30.0607C17.342 29.7794 17.5 29.3978 17.5 29V27.4025C18.4972 27.2726 19.4727 27.0111 20.4013 26.625L21.2013 28.01C21.404 28.3468 21.7308 28.5905 22.1115 28.6887C22.4921 28.7869 22.896 28.7318 23.2364 28.5353C23.5768 28.3387 23.8265 28.0164 23.9316 27.6376C24.0368 27.2588 23.9891 26.8539 23.7987 26.51L23 25.125C23.7974 24.5118 24.5118 23.7974 25.125 23L26.5138 23.8013C26.6845 23.904 26.874 23.9718 27.0712 24.0005C27.2684 24.0292 27.4693 24.0184 27.6623 23.9686C27.8553 23.9188 28.0364 23.831 28.195 23.7104C28.3537 23.5899 28.4867 23.4389 28.5864 23.2663C28.6861 23.0937 28.7503 22.903 28.7755 22.7053C28.8006 22.5076 28.7861 22.3069 28.7328 22.1149C28.6795 21.9229 28.5884 21.7434 28.465 21.587C28.3415 21.4305 28.1881 21.3002 28.0138 21.2038L26.625 20.4013C27.0111 19.4727 27.2726 18.4972 27.4025 17.5H29C29.3978 17.5 29.7794 17.342 30.0607 17.0607C30.342 16.7794 30.5 16.3978 30.5 16C30.5 15.6022 30.342 15.2206 30.0607 14.9393C29.7794 14.658 29.3978 14.5 29 14.5ZM16 7.5C17.9932 7.50282 19.9223 8.20503 21.4509 9.48422C22.9796 10.7634 24.0108 12.5385 24.365 14.5H16.865L13.115 8C14.0402 7.66675 15.0166 7.49754 16 7.5ZM7.5 16C7.50009 14.7633 7.77042 13.5416 8.29207 12.4204C8.81373 11.2991 9.57411 10.3054 10.52 9.50875L14.27 16L10.52 22.4912C9.57411 21.6946 8.81373 20.7009 8.29207 19.5796C7.77042 18.4584 7.50009 17.2367 7.5 16ZM16 24.5C15.017 24.5023 14.0411 24.3331 13.1163 24L16.8662 17.5H24.3662C24.0121 19.4617 22.9806 21.237 21.4517 22.5162C19.9228 23.7954 17.9935 24.4975 16 24.5Z" fill="black"/>
</svg>
