<svg width="32" height="32" viewBox="0 0 32 32" fill="none" xmlns="http://www.w3.org/2000/svg">
<path d="M29.7425 13.4011C29.7146 13.2603 29.6568 13.1272 29.5729 13.0107C29.489 12.8942 29.381 12.7972 29.2562 12.7261L25.5275 10.6011L25.5125 6.39864C25.512 6.25391 25.4802 6.111 25.4191 5.97979C25.358 5.84857 25.2692 5.73218 25.1587 5.63864C23.8062 4.49452 22.2485 3.61773 20.5687 3.05489C20.4365 3.01012 20.2963 2.99355 20.1572 3.00625C20.0181 3.01895 19.8832 3.06065 19.7612 3.12864L16 5.23114L12.235 3.12489C12.1129 3.05651 11.9779 3.01451 11.8386 3.00159C11.6993 2.98867 11.5588 3.00513 11.4262 3.04989C9.74746 3.61634 8.19154 4.49653 6.84124 5.64364C6.73095 5.73704 6.64222 5.85323 6.58115 5.98422C6.52008 6.11521 6.48813 6.25787 6.48749 6.40239L6.46874 10.6086L2.73999 12.7336C2.61525 12.8047 2.50725 12.9017 2.42335 13.0182C2.33944 13.1347 2.2816 13.2678 2.25374 13.4086C1.91249 15.1235 1.91249 16.8888 2.25374 18.6036C2.2816 18.7445 2.33944 18.8776 2.42335 18.9941C2.50725 19.1106 2.61525 19.2076 2.73999 19.2786L6.46874 21.4036L6.48374 25.6074C6.4842 25.7521 6.51606 25.895 6.57714 26.0263C6.63821 26.1575 6.72704 26.2739 6.83749 26.3674C8.19008 27.5115 9.74769 28.3883 11.4275 28.9511C11.5598 28.9959 11.7 29.0125 11.8391 28.9998C11.9781 28.9871 12.113 28.9454 12.235 28.8774L16 26.7686L19.765 28.8749C19.914 28.9579 20.0819 29.001 20.2525 28.9999C20.3617 28.9999 20.4702 28.9821 20.5737 28.9474C22.2521 28.3812 23.8079 27.5019 25.1587 26.3561C25.269 26.2627 25.3578 26.1466 25.4188 26.0156C25.4799 25.8846 25.5119 25.7419 25.5125 25.5974L25.5312 21.3911L29.26 19.2661C29.3847 19.1951 29.4927 19.0981 29.5766 18.9816C29.6605 18.8651 29.7184 18.732 29.7462 18.5911C30.0856 16.8777 30.0843 15.1141 29.7425 13.4011ZM16 20.9999C15.0111 20.9999 14.0444 20.7067 13.2221 20.1572C12.3999 19.6078 11.759 18.8269 11.3806 17.9133C11.0022 16.9997 10.9031 15.9943 11.0961 15.0244C11.289 14.0545 11.7652 13.1636 12.4645 12.4644C13.1637 11.7651 14.0546 11.2889 15.0245 11.096C15.9944 10.903 16.9998 11.0021 17.9134 11.3805C18.827 11.7589 19.6079 12.3998 20.1573 13.222C20.7068 14.0443 21 15.011 21 15.9999C21 17.326 20.4732 18.5977 19.5355 19.5354C18.5978 20.4731 17.3261 20.9999 16 20.9999Z" fill="black"/>
</svg>
