<svg width="32" height="32" viewBox="0 0 32 32" fill="none" xmlns="http://www.w3.org/2000/svg">
<path d="M25.5 13C25.5001 11.1423 24.9556 9.3254 23.9338 7.77401C22.912 6.22261 21.4578 5.00483 19.7511 4.27133C18.0444 3.53783 16.1601 3.3208 14.3313 3.64709C12.5026 3.97339 10.8096 4.82869 9.46187 6.10717C8.11414 7.38565 7.17082 9.03121 6.74862 10.8402C6.32641 12.6493 6.44385 14.5424 7.0864 16.2854C7.72895 18.0284 8.86842 19.5447 10.3638 20.6468C11.8592 21.749 13.6449 22.3885 15.5 22.4862V29C15.5 29.1326 15.5527 29.2598 15.6464 29.3535C15.7402 29.4473 15.8674 29.5 16 29.5C16.1326 29.5 16.2598 29.4473 16.3536 29.3535C16.4473 29.2598 16.5 29.1326 16.5 29V22.4862C18.9286 22.3555 21.2148 21.2994 22.8887 19.535C24.5627 17.7707 25.4971 15.4321 25.5 13ZM16 21.5C14.3189 21.5 12.6755 21.0015 11.2777 20.0675C9.87984 19.1335 8.79037 17.806 8.14703 16.2528C7.50368 14.6996 7.33535 12.9905 7.66333 11.3417C7.9913 9.69287 8.80085 8.17832 9.98959 6.98957C11.1783 5.80082 12.6929 4.99128 14.3417 4.6633C15.9906 4.33533 17.6996 4.50366 19.2528 5.147C20.806 5.79035 22.1335 6.87981 23.0675 8.27763C24.0015 9.67545 24.5 11.3188 24.5 13C24.4977 15.2536 23.6014 17.4143 22.0079 19.0078C20.4143 20.6014 18.2536 21.4977 16 21.5Z" fill="black"/>
</svg>
