<svg width="32" height="32" viewBox="0 0 32 32" fill="none" xmlns="http://www.w3.org/2000/svg">
<path d="M25.5 12C25.5001 10.1423 24.9556 8.3254 23.9338 6.77401C22.912 5.22261 21.4578 4.00483 19.7511 3.27133C18.0444 2.53783 16.1601 2.3208 14.3313 2.64709C12.5026 2.97339 10.8096 3.82869 9.46187 5.10717C8.11414 6.38565 7.17082 8.03121 6.74862 9.84025C6.32641 11.6493 6.44385 13.5424 7.0864 15.2854C7.72895 17.0284 8.86842 18.5447 10.3638 19.6468C11.8592 20.749 13.6449 21.3885 15.5 21.4862V25.5H11C10.8674 25.5 10.7402 25.5527 10.6464 25.6464C10.5527 25.7402 10.5 25.8674 10.5 26C10.5 26.1326 10.5527 26.2598 10.6464 26.3535C10.7402 26.4473 10.8674 26.5 11 26.5H15.5V30C15.5 30.1326 15.5527 30.2598 15.6464 30.3535C15.7402 30.4473 15.8674 30.5 16 30.5C16.1326 30.5 16.2598 30.4473 16.3536 30.3535C16.4473 30.2598 16.5 30.1326 16.5 30V26.5H21C21.1326 26.5 21.2598 26.4473 21.3536 26.3535C21.4473 26.2598 21.5 26.1326 21.5 26C21.5 25.8674 21.4473 25.7402 21.3536 25.6464C21.2598 25.5527 21.1326 25.5 21 25.5H16.5V21.4862C18.9286 21.3555 21.2148 20.2994 22.8887 18.535C24.5627 16.7707 25.4971 14.4321 25.5 12ZM7.5 12C7.5 10.3188 7.99852 8.67545 8.93251 7.27763C9.8665 5.87981 11.194 4.79035 12.7472 4.147C14.3004 3.50366 16.0094 3.33533 17.6583 3.6633C19.3071 3.99128 20.8217 4.80082 22.0104 5.98957C23.1992 7.17832 24.0087 8.69287 24.3367 10.3417C24.6647 11.9905 24.4963 13.6996 23.853 15.2528C23.2096 16.806 22.1202 18.1335 20.7223 19.0675C19.3245 20.0015 17.6811 20.5 16 20.5C13.7464 20.4977 11.5857 19.6014 9.99215 18.0078C8.39859 16.4143 7.50232 14.2536 7.5 12Z" fill="black"/>
</svg>
