<svg width="32" height="32" viewBox="0 0 32 32" fill="none" xmlns="http://www.w3.org/2000/svg">
<path d="M26.5 13C26.5002 10.9873 25.9219 9.01698 24.834 7.32362C23.7462 5.63026 22.1945 4.28525 20.3639 3.44876C18.5333 2.61227 16.5008 2.31954 14.5085 2.60544C12.5162 2.89135 10.6481 3.74383 9.12654 5.06137C7.60501 6.37891 6.49422 8.106 5.92645 10.0369C5.35867 11.9679 5.35784 14.0214 5.92404 15.9528C6.49023 17.8842 7.59961 19.6122 9.12006 20.931C10.6405 22.2497 12.5079 23.1037 14.5 23.3913V29C14.5 29.3978 14.658 29.7794 14.9393 30.0607C15.2206 30.342 15.6022 30.5 16 30.5C16.3978 30.5 16.7794 30.342 17.0607 30.0607C17.342 29.7794 17.5 29.3978 17.5 29V23.3913C19.9975 23.0276 22.2809 21.7778 23.9333 19.8701C25.5856 17.9623 26.4966 15.5239 26.5 13ZM16 20.5C14.5166 20.5 13.0666 20.0602 11.8332 19.236C10.5999 18.4119 9.63856 17.2406 9.0709 15.8701C8.50325 14.4997 8.35472 12.9917 8.64411 11.5368C8.9335 10.082 9.64781 8.74562 10.6967 7.69672C11.7456 6.64783 13.082 5.93352 14.5368 5.64413C15.9917 5.35474 17.4997 5.50327 18.8701 6.07093C20.2406 6.63858 21.4119 7.59988 22.236 8.83325C23.0601 10.0666 23.5 11.5167 23.5 13C23.4977 14.9884 22.7068 16.8947 21.3007 18.3008C19.8947 19.7068 17.9884 20.4977 16 20.5Z" fill="black"/>
</svg>
