<svg width="32" height="32" viewBox="0 0 32 32" fill="none" xmlns="http://www.w3.org/2000/svg">
<path d="M26.9999 3.5H21.4999C21.1021 3.5 20.7206 3.65804 20.4393 3.93934C20.1579 4.22064 19.9999 4.60218 19.9999 5C19.9999 5.39782 20.1579 5.77936 20.4393 6.06066C20.7206 6.34196 21.1021 6.5 21.4999 6.5H23.3749L20.9999 8.875L19.0612 6.94C18.7794 6.65821 18.3972 6.4999 17.9987 6.4999C17.6002 6.4999 17.218 6.65821 16.9362 6.94C16.6544 7.22179 16.4961 7.60398 16.4961 8.0025C16.4961 8.40101 16.6544 8.78321 16.9362 9.065L18.8749 11L17.5724 12.3075C15.6371 10.9066 13.2451 10.2864 10.8729 10.5703C8.50077 10.8542 6.32268 12.0215 4.77269 13.8395C3.22269 15.6576 2.41461 17.9929 2.50945 20.3801C2.60429 22.7673 3.5951 25.0311 5.28445 26.7205C6.97379 28.4098 9.23762 29.4006 11.6248 29.4955C14.012 29.5903 16.3473 28.7822 18.1654 27.2322C19.9834 25.6822 21.1507 23.5041 21.4346 21.132C21.7186 18.7598 21.0983 16.3678 19.6974 14.4325L20.9999 13.125L22.9387 15.065C23.2205 15.3468 23.6026 15.5051 24.0012 15.5051C24.3997 15.5051 24.7819 15.3468 25.0637 15.065C25.3455 14.7832 25.5038 14.401 25.5038 14.0025C25.5038 13.604 25.3455 13.2218 25.0637 12.94L23.1249 11L25.4999 8.625V10.5C25.4999 10.8978 25.6579 11.2794 25.9393 11.5607C26.2206 11.842 26.6021 12 26.9999 12C27.3977 12 27.7793 11.842 28.0606 11.5607C28.3419 11.2794 28.4999 10.8978 28.4999 10.5V5C28.4999 4.60218 28.3419 4.22064 28.0606 3.93934C27.7793 3.65804 27.3977 3.5 26.9999 3.5ZM16.5962 24.6C15.5329 25.6633 14.134 26.325 12.6376 26.4725C11.1412 26.62 9.63993 26.2442 8.38956 25.409C7.13919 24.5738 6.21706 23.3309 5.78024 21.8921C5.34342 20.4533 5.41895 18.9076 5.99395 17.5182C6.56895 16.1289 7.60785 14.9818 8.93368 14.2725C10.2595 13.5632 11.7903 13.3355 13.2651 13.6282C14.74 13.9209 16.0678 14.7158 17.0223 15.8777C17.9768 17.0395 18.499 18.4964 18.4999 20C18.5003 21.7251 17.8155 23.3797 16.5962 24.6Z" fill="black"/>
</svg>
