<svg width="32" height="32" viewBox="0 0 32 32" fill="none" xmlns="http://www.w3.org/2000/svg">
<path d="M27.0002 3.5H21.0002C20.6024 3.5 20.2209 3.65804 19.9396 3.93934C19.6583 4.22064 19.5002 4.60218 19.5002 5C19.5002 5.39782 19.6583 5.77936 19.9396 6.06066C20.2209 6.34196 20.6024 6.5 21.0002 6.5H23.3752L19.2852 10.5925C17.159 9.00348 14.5099 8.27872 11.8709 8.56404C9.23186 8.84936 6.79885 10.1236 5.0614 12.1303C3.32395 14.1371 2.41101 16.7274 2.50628 19.3801C2.60155 22.0327 3.69796 24.5509 5.5749 26.4278C7.45183 28.3048 9.96998 29.4012 12.6227 29.4964C15.2753 29.5917 17.8656 28.6788 19.8724 26.9413C21.8791 25.2039 23.1534 22.7709 23.4387 20.1319C23.724 17.4928 22.9992 14.8437 21.4102 12.7175L25.5002 8.625V11C25.5002 11.3978 25.6583 11.7794 25.9396 12.0607C26.2209 12.342 26.6024 12.5 27.0002 12.5C27.398 12.5 27.7796 12.342 28.0609 12.0607C28.3422 11.7794 28.5002 11.3978 28.5002 11V5C28.5002 4.60218 28.3422 4.22064 28.0609 3.93934C27.7796 3.65804 27.398 3.5 27.0002 3.5ZM18.3015 24.3075C17.2525 25.3561 15.9161 26.0701 14.4613 26.3592C13.0065 26.6484 11.4987 26.4997 10.1284 25.9319C8.75815 25.3642 7.58699 24.4029 6.76301 23.1696C5.93904 21.9363 5.49924 20.4864 5.49924 19.0031C5.49924 17.5199 5.93904 16.07 6.76301 14.8367C7.58699 13.6034 8.75815 12.6421 10.1284 12.0743C11.4987 11.5066 13.0065 11.3579 14.4613 11.647C15.9161 11.9362 17.2525 12.6502 18.3015 13.6987C19.7056 15.107 20.4941 17.0145 20.4941 19.0031C20.4941 20.9918 19.7056 22.8993 18.3015 24.3075Z" fill="black"/>
</svg>
