<svg width="32" height="32" viewBox="0 0 32 32" fill="none" xmlns="http://www.w3.org/2000/svg">
<path d="M14.5 14.5C14.5 14.8956 14.3827 15.2822 14.1629 15.6111C13.9432 15.94 13.6308 16.1964 13.2654 16.3478C12.8999 16.4991 12.4978 16.5387 12.1098 16.4616C11.7219 16.3844 11.3655 16.1939 11.0858 15.9142C10.8061 15.6345 10.6156 15.2781 10.5384 14.8902C10.4613 14.5022 10.5009 14.1001 10.6522 13.7346C10.8036 13.3692 11.06 13.0568 11.3889 12.8371C11.7178 12.6173 12.1044 12.5 12.5 12.5C13.0304 12.5 13.5391 12.7107 13.9142 13.0858C14.2893 13.4609 14.5 13.9696 14.5 14.5ZM19.5 12.5C19.1044 12.5 18.7178 12.6173 18.3889 12.8371C18.06 13.0568 17.8036 13.3692 17.6522 13.7346C17.5009 14.1001 17.4613 14.5022 17.5384 14.8902C17.6156 15.2781 17.8061 15.6345 18.0858 15.9142C18.3655 16.1939 18.7219 16.3844 19.1098 16.4616C19.4978 16.5387 19.8999 16.4991 20.2654 16.3478C20.6308 16.1964 20.9432 15.94 21.1629 15.6111C21.3827 15.2822 21.5 14.8956 21.5 14.5C21.5 13.9696 21.2893 13.4609 20.9142 13.0858C20.5391 12.7107 20.0304 12.5 19.5 12.5ZM28.5 15V27C28.5001 27.284 28.4195 27.5622 28.2677 27.8022C28.1159 28.0422 27.8991 28.2342 27.6425 28.3559C27.3858 28.4775 27.0999 28.5238 26.818 28.4894C26.5361 28.4549 26.2698 28.3411 26.05 28.1612L23.3337 25.9375L20.6162 28.1612C20.3482 28.3806 20.0126 28.5004 19.6663 28.5004C19.3199 28.5004 18.9843 28.3806 18.7162 28.1612L16 25.9375L13.2837 28.1612C13.0157 28.3806 12.6801 28.5004 12.3337 28.5004C11.9874 28.5004 11.6518 28.3806 11.3837 28.1612L8.66625 25.9375L5.95 28.1612C5.73022 28.3411 5.46388 28.4549 5.18198 28.4894C4.90007 28.5238 4.61418 28.4775 4.35754 28.3559C4.10091 28.2342 3.88408 28.0422 3.73227 27.8022C3.58046 27.5622 3.49992 27.284 3.5 27V15C3.5 11.6848 4.81696 8.50537 7.16117 6.16117C9.50537 3.81696 12.6848 2.5 16 2.5C19.3152 2.5 22.4946 3.81696 24.8388 6.16117C27.183 8.50537 28.5 11.6848 28.5 15ZM25.5 15C25.5 12.4804 24.4991 10.0641 22.7175 8.28249C20.9359 6.50089 18.5196 5.5 16 5.5C13.4804 5.5 11.0641 6.50089 9.28249 8.28249C7.50089 10.0641 6.5 12.4804 6.5 15V23.835L7.71625 22.835C7.98427 22.6157 8.31992 22.4958 8.66625 22.4958C9.01258 22.4958 9.34823 22.6157 9.61625 22.835L12.3337 25.0625L15.05 22.8388C15.318 22.6194 15.6537 22.4996 16 22.4996C16.3463 22.4996 16.682 22.6194 16.95 22.8388L19.6663 25.0625L22.3838 22.8388C22.6518 22.6194 22.9874 22.4996 23.3337 22.4996C23.6801 22.4996 24.0157 22.6194 24.2838 22.8388L25.5 23.8388V15Z" fill="black"/>
</svg>
