<svg width="32" height="32" viewBox="0 0 32 32" fill="none" xmlns="http://www.w3.org/2000/svg">
<path d="M18.5 9V23C18.5 23.3978 18.342 23.7794 18.0607 24.0607C17.7794 24.342 17.3978 24.5 17 24.5C16.6022 24.5 16.2206 24.342 15.9393 24.0607C15.658 23.7794 15.5 23.3978 15.5 23V9C15.5 8.60218 15.658 8.22064 15.9393 7.93934C16.2206 7.65804 16.6022 7.5 17 7.5C17.3978 7.5 17.7794 7.65804 18.0607 7.93934C18.342 8.22064 18.5 8.60218 18.5 9ZM28 10.5C28.3978 10.5 28.7794 10.342 29.0607 10.0607C29.342 9.77936 29.5 9.39782 29.5 9C29.5 8.60218 29.342 8.22064 29.0607 7.93934C28.7794 7.65804 28.3978 7.5 28 7.5H22C21.6022 7.5 21.2206 7.65804 20.9393 7.93934C20.658 8.22064 20.5 8.60218 20.5 9V23C20.5 23.3978 20.658 23.7794 20.9393 24.0607C21.2206 24.342 21.6022 24.5 22 24.5C22.3978 24.5 22.7794 24.342 23.0607 24.0607C23.342 23.7794 23.5 23.3978 23.5 23V17.5H27C27.3978 17.5 27.7794 17.342 28.0607 17.0607C28.342 16.7794 28.5 16.3978 28.5 16C28.5 15.6022 28.342 15.2206 28.0607 14.9393C27.7794 14.658 27.3978 14.5 27 14.5H23.5V10.5H28ZM12 14.5H9C8.60218 14.5 8.22064 14.658 7.93934 14.9393C7.65804 15.2206 7.5 15.6022 7.5 16C7.5 16.3978 7.65804 16.7794 7.93934 17.0607C8.22064 17.342 8.60218 17.5 9 17.5H10.5V19C10.5 19.663 10.2366 20.2989 9.76777 20.7678C9.29893 21.2366 8.66304 21.5 8 21.5C7.33696 21.5 6.70107 21.2366 6.23223 20.7678C5.76339 20.2989 5.5 19.663 5.5 19V13C5.5 12.337 5.76339 11.7011 6.23223 11.2322C6.70107 10.7634 7.33696 10.5 8 10.5C8.45898 10.5025 8.90989 10.621 9.31087 10.8443C9.71186 11.0676 10.0499 11.3886 10.2937 11.7775C10.5 12.1178 10.8329 12.3623 11.2193 12.4571C11.6058 12.5519 12.0141 12.4893 12.3544 12.2831C12.6947 12.0769 12.9391 11.744 13.034 11.3575C13.1288 10.9711 13.0662 10.5628 12.86 10.2225C12.3499 9.39139 11.6354 8.70481 10.7846 8.22822C9.93384 7.75163 8.97517 7.50092 8 7.5C6.54182 7.50165 5.14383 8.08165 4.11274 9.11274C3.08165 10.1438 2.50165 11.5418 2.5 13V19C2.5 20.4587 3.07946 21.8576 4.11091 22.8891C5.14236 23.9205 6.54131 24.5 8 24.5C9.45869 24.5 10.8576 23.9205 11.8891 22.8891C12.9205 21.8576 13.5 20.4587 13.5 19V16C13.5 15.6022 13.342 15.2206 13.0607 14.9393C12.7794 14.658 12.3978 14.5 12 14.5Z" fill="black"/>
</svg>
