<svg width="32" height="32" viewBox="0 0 32 32" fill="none" xmlns="http://www.w3.org/2000/svg">
<path d="M28.5 8.00002C28.5 7.17502 28.2733 6.36589 27.8445 5.66107C27.4157 4.95625 26.8014 4.38287 26.0688 4.0036C25.3361 3.62433 24.5133 3.45376 23.6902 3.51055C22.8672 3.56734 22.0756 3.8493 21.402 4.3256C20.7284 4.80191 20.1987 5.45423 19.8707 6.21126C19.5428 6.96829 19.4293 7.8009 19.5427 8.61808C19.656 9.43526 19.9918 10.2056 20.5134 10.8448C21.0349 11.484 21.7222 11.9675 22.5 12.2425V13C22.5 13.3978 22.342 13.7794 22.0607 14.0607C21.7794 14.342 21.3978 14.5 21 14.5H12C11.489 14.4998 10.9817 14.5869 10.5 14.7575V12.2425C11.5008 11.8887 12.3443 11.1924 12.8815 10.2768C13.4186 9.36118 13.6147 8.28516 13.4352 7.23892C13.2557 6.19268 12.7121 5.24358 11.9005 4.55936C11.0889 3.87515 10.0615 3.49988 9.00001 3.49988C7.93848 3.49988 6.91112 3.87515 6.09952 4.55936C5.28792 5.24358 4.74432 6.19268 4.56482 7.23892C4.38531 8.28516 4.58145 9.36118 5.11856 10.2768C5.65568 11.1924 6.49919 11.8887 7.50001 12.2425V19.7575C6.49919 20.1114 5.65568 20.8076 5.11856 21.7232C4.58145 22.6389 4.38531 23.7149 4.56482 24.7611C4.74432 25.8074 5.28792 26.7565 6.09952 27.4407C6.91112 28.1249 7.93848 28.5002 9.00001 28.5002C10.0615 28.5002 11.0889 28.1249 11.9005 27.4407C12.7121 26.7565 13.2557 25.8074 13.4352 24.7611C13.6147 23.7149 13.4186 22.6389 12.8815 21.7232C12.3443 20.8076 11.5008 20.1114 10.5 19.7575V19C10.5 18.6022 10.658 18.2207 10.9393 17.9394C11.2207 17.6581 11.6022 17.5 12 17.5H21C22.1935 17.5 23.3381 17.0259 24.182 16.182C25.0259 15.3381 25.5 14.1935 25.5 13V12.2425C26.3766 11.9312 27.1355 11.3564 27.6726 10.5969C28.2097 9.83734 28.4987 8.93027 28.5 8.00002ZM9.00001 6.50002C9.29668 6.50002 9.58669 6.58799 9.83336 6.75282C10.08 6.91764 10.2723 7.15191 10.3858 7.426C10.4994 7.70008 10.5291 8.00168 10.4712 8.29266C10.4133 8.58363 10.2704 8.8509 10.0607 9.06068C9.85089 9.27046 9.58362 9.41332 9.29265 9.4712C9.00167 9.52908 8.70007 9.49937 8.42598 9.38584C8.1519 9.27231 7.91763 9.08005 7.7528 8.83337C7.58798 8.5867 7.50001 8.29669 7.50001 8.00002C7.50001 7.6022 7.65804 7.22066 7.93935 6.93936C8.22065 6.65806 8.60218 6.50002 9.00001 6.50002ZM9.00001 25.5C8.70334 25.5 8.41333 25.412 8.16665 25.2472C7.91998 25.0824 7.72772 24.8481 7.61419 24.574C7.50066 24.3 7.47095 23.9984 7.52883 23.7074C7.58671 23.4164 7.72957 23.1491 7.93935 22.9394C8.14913 22.7296 8.4164 22.5867 8.70737 22.5288C8.99835 22.471 9.29995 22.5007 9.57403 22.6142C9.84812 22.7277 10.0824 22.92 10.2472 23.1667C10.412 23.4133 10.5 23.7033 10.5 24C10.5 24.3978 10.342 24.7794 10.0607 25.0607C9.77937 25.342 9.39783 25.5 9.00001 25.5ZM24 9.50002C23.7033 9.50002 23.4133 9.41205 23.1667 9.24722C22.92 9.0824 22.7277 8.84813 22.6142 8.57405C22.5007 8.29996 22.471 7.99836 22.5288 7.70738C22.5867 7.41641 22.7296 7.14914 22.9394 6.93936C23.1491 6.72958 23.4164 6.58672 23.7074 6.52884C23.9983 6.47096 24.2999 6.50067 24.574 6.6142C24.8481 6.72773 25.0824 6.91999 25.2472 7.16666C25.412 7.41334 25.5 7.70335 25.5 8.00002C25.5 8.39784 25.342 8.77938 25.0607 9.06068C24.7794 9.34198 24.3978 9.50002 24 9.50002Z" fill="black"/>
</svg>
