<svg width="32" height="32" viewBox="0 0 32 32" fill="none" xmlns="http://www.w3.org/2000/svg">
<path d="M30.5 14.5H23.3487C23.0033 12.8059 22.0831 11.2832 20.744 10.1896C19.4048 9.09595 17.729 8.4986 16 8.4986C14.271 8.4986 12.5952 9.09595 11.256 10.1896C9.9169 11.2832 8.99672 12.8059 8.65125 14.5H1.5C1.10218 14.5 0.720644 14.658 0.43934 14.9393C0.158035 15.2206 0 15.6021 0 16C0 16.3978 0.158035 16.7793 0.43934 17.0606C0.720644 17.3419 1.10218 17.5 1.5 17.5H8.65125C8.99672 19.1941 9.9169 20.7168 11.256 21.8104C12.5952 22.904 14.271 23.5013 16 23.5013C17.729 23.5013 19.4048 22.904 20.744 21.8104C22.0831 20.7168 23.0033 19.1941 23.3487 17.5H30.5C30.8978 17.5 31.2794 17.3419 31.5607 17.0606C31.842 16.7793 32 16.3978 32 16C32 15.6021 31.842 15.2206 31.5607 14.9393C31.2794 14.658 30.8978 14.5 30.5 14.5ZM16 20.5C15.11 20.5 14.24 20.2361 13.4999 19.7416C12.7599 19.2471 12.1831 18.5443 11.8425 17.722C11.5019 16.8998 11.4128 15.995 11.5865 15.1221C11.7601 14.2492 12.1887 13.4473 12.818 12.818C13.4474 12.1887 14.2492 11.7601 15.1221 11.5864C15.995 11.4128 16.8998 11.5019 17.7221 11.8425C18.5443 12.1831 19.2471 12.7599 19.7416 13.4999C20.2361 14.2399 20.5 15.11 20.5 16C20.5 17.1934 20.0259 18.338 19.182 19.182C18.3381 20.0259 17.1935 20.5 16 20.5Z" fill="black"/>
</svg>
