<svg width="32" height="32" viewBox="0 0 32 32" fill="none" xmlns="http://www.w3.org/2000/svg">
<path d="M31 15.25H22.7075C22.5216 13.6012 21.7349 12.0786 20.4976 10.973C19.2604 9.86744 17.6593 9.25629 16 9.25629C14.3407 9.25629 12.7396 9.86744 11.5024 10.973C10.2651 12.0786 9.4784 13.6012 9.2925 15.25H1C0.801088 15.25 0.610322 15.329 0.46967 15.4697C0.329018 15.6103 0.25 15.8011 0.25 16C0.25 16.1989 0.329018 16.3897 0.46967 16.5303C0.610322 16.671 0.801088 16.75 1 16.75H9.2925C9.4784 18.3988 10.2651 19.9214 11.5024 21.027C12.7396 22.1326 14.3407 22.7437 16 22.7437C17.6593 22.7437 19.2604 22.1326 20.4976 21.027C21.7349 19.9214 22.5216 18.3988 22.7075 16.75H31C31.1989 16.75 31.3897 16.671 31.5303 16.5303C31.671 16.3897 31.75 16.1989 31.75 16C31.75 15.8011 31.671 15.6103 31.5303 15.4697C31.3897 15.329 31.1989 15.25 31 15.25ZM16 21.25C14.9616 21.25 13.9466 20.9421 13.0833 20.3652C12.2199 19.7884 11.547 18.9684 11.1496 18.0091C10.7523 17.0498 10.6483 15.9942 10.8509 14.9758C11.0534 13.9574 11.5535 13.0219 12.2877 12.2877C13.0219 11.5535 13.9574 11.0535 14.9758 10.8509C15.9942 10.6483 17.0498 10.7523 18.0091 11.1496C18.9684 11.547 19.7883 12.2199 20.3652 13.0833C20.9421 13.9466 21.25 14.9617 21.25 16C21.25 17.3924 20.6969 18.7278 19.7123 19.7123C18.7277 20.6969 17.3924 21.25 16 21.25Z" fill="black"/>
</svg>
