<svg width="32" height="32" viewBox="0 0 32 32" fill="none" xmlns="http://www.w3.org/2000/svg">
<path d="M28.5 8.00002C28.5 7.17502 28.2733 6.36589 27.8445 5.66107C27.4157 4.95625 26.8014 4.38287 26.0688 4.0036C25.3361 3.62433 24.5133 3.45376 23.6902 3.51055C22.8672 3.56734 22.0756 3.8493 21.402 4.3256C20.7284 4.80191 20.1987 5.45423 19.8707 6.21126C19.5428 6.96829 19.4293 7.8009 19.5427 8.61808C19.656 9.43526 19.9918 10.2056 20.5134 10.8448C21.0349 11.484 21.7222 11.9675 22.5 12.2425V13C22.5 13.3978 22.342 13.7794 22.0607 14.0607C21.7794 14.342 21.3978 14.5 21 14.5H11C10.6022 14.5 10.2207 14.342 9.93935 14.0607C9.65804 13.7794 9.50001 13.3978 9.50001 13V12.2425C10.5008 11.8887 11.3443 11.1924 11.8815 10.2768C12.4186 9.36118 12.6147 8.28516 12.4352 7.23892C12.2557 6.19268 11.7121 5.24358 10.9005 4.55936C10.0889 3.87515 9.06154 3.49988 8.00001 3.49988C6.93848 3.49988 5.91112 3.87515 5.09952 4.55936C4.28792 5.24358 3.74432 6.19268 3.56482 7.23892C3.38531 8.28516 3.58145 9.36118 4.11856 10.2768C4.65568 11.1924 5.49919 11.8887 6.50001 12.2425V13C6.50001 14.1935 6.97412 15.3381 7.81803 16.182C8.66194 17.0259 9.80654 17.5 11 17.5H14.5V19.7575C13.4992 20.1114 12.6557 20.8076 12.1186 21.7232C11.5814 22.6389 11.3853 23.7149 11.5648 24.7611C11.7443 25.8074 12.2879 26.7565 13.0995 27.4407C13.9111 28.1249 14.9385 28.5002 16 28.5002C17.0615 28.5002 18.0889 28.1249 18.9005 27.4407C19.7121 26.7565 20.2557 25.8074 20.4352 24.7611C20.6147 23.7149 20.4186 22.6389 19.8815 21.7232C19.3443 20.8076 18.5008 20.1114 17.5 19.7575V17.5H21C22.1935 17.5 23.3381 17.0259 24.182 16.182C25.0259 15.3381 25.5 14.1935 25.5 13V12.2425C26.3766 11.9312 27.1355 11.3564 27.6726 10.5969C28.2097 9.83734 28.4987 8.93027 28.5 8.00002ZM8.00001 6.50002C8.29668 6.50002 8.58669 6.58799 8.83336 6.75282C9.08004 6.91764 9.2723 7.15191 9.38583 7.426C9.49936 7.70008 9.52907 8.00168 9.47119 8.29266C9.41331 8.58363 9.27045 8.8509 9.06067 9.06068C8.85089 9.27046 8.58362 9.41332 8.29265 9.4712C8.00167 9.52908 7.70007 9.49937 7.42598 9.38584C7.1519 9.27231 6.91763 9.08005 6.7528 8.83337C6.58798 8.5867 6.50001 8.29669 6.50001 8.00002C6.50001 7.6022 6.65804 7.22066 6.93935 6.93936C7.22065 6.65806 7.60218 6.50002 8.00001 6.50002ZM16 25.5C15.7033 25.5 15.4133 25.412 15.1667 25.2472C14.92 25.0824 14.7277 24.8481 14.6142 24.574C14.5007 24.3 14.471 23.9984 14.5288 23.7074C14.5867 23.4164 14.7296 23.1491 14.9393 22.9394C15.1491 22.7296 15.4164 22.5867 15.7074 22.5288C15.9983 22.471 16.2999 22.5007 16.574 22.6142C16.8481 22.7277 17.0824 22.92 17.2472 23.1667C17.412 23.4133 17.5 23.7033 17.5 24C17.5 24.3978 17.342 24.7794 17.0607 25.0607C16.7794 25.342 16.3978 25.5 16 25.5ZM24 9.50002C23.7033 9.50002 23.4133 9.41205 23.1667 9.24722C22.92 9.0824 22.7277 8.84813 22.6142 8.57405C22.5007 8.29996 22.471 7.99836 22.5288 7.70738C22.5867 7.41641 22.7296 7.14914 22.9394 6.93936C23.1491 6.72958 23.4164 6.58672 23.7074 6.52884C23.9983 6.47096 24.2999 6.50067 24.574 6.6142C24.8481 6.72773 25.0824 6.91999 25.2472 7.16666C25.412 7.41334 25.5 7.70335 25.5 8.00002C25.5 8.39784 25.342 8.77938 25.0607 9.06068C24.7794 9.34198 24.3978 9.50002 24 9.50002Z" fill="black"/>
</svg>
