<svg width="32" height="32" viewBox="0 0 32 32" fill="none" xmlns="http://www.w3.org/2000/svg">
<path d="M29.2501 14.5113L26.7664 5.00002C26.6605 4.58781 26.4254 4.22033 26.0956 3.95139C25.7657 3.68246 25.3584 3.52621 24.9333 3.50553C24.5082 3.48485 24.0877 3.60082 23.7333 3.83646C23.3789 4.07211 23.1093 4.41503 22.9639 4.81502L20.8751 10.5H11.1251L9.03637 4.81127C8.89063 4.41135 8.62066 4.06861 8.266 3.83327C7.91134 3.59792 7.49063 3.48233 7.06551 3.50343C6.64039 3.52453 6.2332 3.68122 5.90359 3.95053C5.57398 4.21985 5.33928 4.58764 5.23386 5.00002L2.75011 14.5113C2.35844 16.0089 2.43038 17.5901 2.95643 19.0459C3.48248 20.5017 4.43787 21.7637 5.69636 22.665L14.8551 29.1363C15.1909 29.3731 15.5917 29.5002 16.0026 29.5002C16.4135 29.5002 16.8143 29.3731 17.1501 29.1363L26.3089 22.665C27.5665 21.763 28.5209 20.5008 29.046 19.045C29.5711 17.5892 29.6423 16.0084 29.2501 14.5113ZM7.32636 8.85752L8.67137 12.5175C8.77734 12.8058 8.96926 13.0546 9.2212 13.2304C9.47314 13.4061 9.77295 13.5002 10.0801 13.5H21.9201C22.2273 13.5002 22.5271 13.4061 22.779 13.2304C23.031 13.0546 23.2229 12.8058 23.3289 12.5175L24.6739 8.85752L25.8164 13.2325L16.0001 20.1638L6.18387 13.2288L7.32636 8.85752ZM5.50011 16.4213L13.4001 22L11.6764 23.2175L7.42636 20.2175C6.82366 19.7863 6.33386 19.2161 5.99853 18.5552C5.6632 17.8943 5.49222 17.1623 5.50011 16.4213ZM16.0001 26.2738L14.2764 25.055L16.0001 23.8375L17.7239 25.055L16.0001 26.2738ZM24.5751 20.215L20.3251 23.215L18.6001 22L26.5001 16.4213C26.5077 17.1618 26.3368 17.8932 26.0017 18.5536C25.6666 19.214 25.1772 19.7839 24.5751 20.215Z" fill="black"/>
</svg>
