<svg width="32" height="32" viewBox="0 0 32 32" fill="none" xmlns="http://www.w3.org/2000/svg">
<path d="M26.0001 14.5C25.1585 14.5001 24.3452 14.8034 23.709 15.3544C23.0729 15.9053 22.6566 16.6671 22.5363 17.5H19.0001C18.1466 17.4981 17.3051 17.2984 16.5417 16.9167C15.7783 16.535 15.1137 15.9816 14.6001 15.3L10.9101 10.375C11.7464 10.1471 12.4683 9.61694 12.9362 8.88724C13.404 8.15754 13.5844 7.28021 13.4425 6.42511C13.3006 5.57002 12.8464 4.79801 12.1679 4.25857C11.4895 3.71913 10.635 3.45064 9.76988 3.50509C8.9048 3.55954 8.0907 3.93305 7.48522 4.55331C6.87974 5.17357 6.52596 5.99644 6.49238 6.86258C6.45879 7.72872 6.74781 8.57651 7.30345 9.24178C7.85909 9.90706 8.64182 10.3425 9.50009 10.4638V21.5363C8.6243 21.6627 7.82889 22.1161 7.27394 22.8053C6.719 23.4946 6.44571 24.3684 6.50908 25.251C6.57244 26.1336 6.96776 26.9594 7.61548 27.5623C8.26319 28.1652 9.11522 28.5004 10.0001 28.5004C10.885 28.5004 11.737 28.1652 12.3847 27.5623C13.0324 26.9594 13.4277 26.1336 13.4911 25.251C13.5545 24.3684 13.2812 23.4946 12.7262 22.8053C12.1713 22.1161 11.3759 21.6627 10.5001 21.5363V11.5L13.8001 15.9C14.4073 16.7054 15.1927 17.3593 16.0949 17.8104C16.9971 18.2615 17.9914 18.4975 19.0001 18.5H22.5363C22.6322 19.164 22.9169 19.7865 23.3564 20.2933C23.796 20.8001 24.372 21.1699 25.0158 21.3587C25.6596 21.5474 26.3441 21.5471 26.9878 21.3579C27.6314 21.1686 28.2071 20.7983 28.6463 20.2912C29.0855 19.784 29.3696 19.1613 29.465 18.4972C29.5603 17.8331 29.4627 17.1556 29.1838 16.5454C28.905 15.9352 28.4567 15.4179 27.8922 15.0553C27.3278 14.6927 26.671 14.4999 26.0001 14.5ZM7.50009 7C7.50009 6.50555 7.64671 6.0222 7.92142 5.61108C8.19612 5.19995 8.58657 4.87952 9.04338 4.6903C9.5002 4.50108 10.0029 4.45158 10.4878 4.54804C10.9728 4.6445 11.4182 4.8826 11.7679 5.23224C12.1175 5.58187 12.3556 6.02732 12.4521 6.51228C12.5485 6.99723 12.499 7.4999 12.3098 7.95671C12.1206 8.41353 11.8001 8.80397 11.389 9.07868C10.9779 9.35338 10.4945 9.5 10.0001 9.5C9.33705 9.5 8.70116 9.23661 8.23232 8.76777C7.76348 8.29893 7.50009 7.66304 7.50009 7ZM12.5001 25C12.5001 25.4945 12.3535 25.9778 12.0788 26.3889C11.8041 26.8001 11.4136 27.1205 10.9568 27.3097C10.5 27.4989 9.99732 27.5484 9.51236 27.452C9.02741 27.3555 8.58195 27.1174 8.23232 26.7678C7.88269 26.4181 7.64459 25.9727 7.54813 25.4877C7.45166 25.0028 7.50117 24.5001 7.69039 24.0433C7.87961 23.5865 8.20004 23.196 8.61116 22.9213C9.02229 22.6466 9.50564 22.5 10.0001 22.5C10.6631 22.5 11.299 22.7634 11.7679 23.2322C12.2367 23.7011 12.5001 24.337 12.5001 25ZM26.0001 20.5C25.5056 20.5 25.0223 20.3534 24.6112 20.0787C24.2 19.804 23.8796 19.4135 23.6904 18.9567C23.5012 18.4999 23.4517 17.9972 23.5481 17.5123C23.6446 17.0273 23.8827 16.5819 24.2323 16.2322C24.582 15.8826 25.0274 15.6445 25.5124 15.548C25.9973 15.4516 26.5 15.5011 26.9568 15.6903C27.4136 15.8795 27.8041 16.2 28.0788 16.6111C28.3535 17.0222 28.5001 17.5055 28.5001 18C28.5001 18.3283 28.4354 18.6534 28.3098 18.9567C28.1842 19.26 28 19.5356 27.7679 19.7678C27.5357 19.9999 27.2601 20.1841 26.9568 20.3097C26.6535 20.4353 26.3284 20.5 26.0001 20.5Z" fill="black"/>
</svg>
