<svg width="32" height="32" viewBox="0 0 32 32" fill="none" xmlns="http://www.w3.org/2000/svg">
<path d="M25.9999 14.25C25.1357 14.251 24.2983 14.5499 23.6288 15.0964C22.9594 15.6429 22.4988 16.4035 22.3249 17.25H18.9999C18.1852 17.2481 17.382 17.0575 16.6533 16.6931C15.9246 16.3288 15.2902 15.8006 14.7999 15.15L11.3199 10.51C12.1656 10.1916 12.868 9.57841 13.2976 8.78335C13.7273 7.98829 13.8554 7.06481 13.6583 6.18282C13.4613 5.30083 12.9523 4.51968 12.2251 3.98308C11.4979 3.44648 10.6014 3.19054 9.70057 3.26235C8.7997 3.33416 7.95506 3.72889 7.32206 4.3739C6.68907 5.01892 6.3103 5.87084 6.25545 6.7729C6.2006 7.67497 6.47336 8.5665 7.02355 9.28346C7.57373 10.0004 8.36432 10.4946 9.24986 10.675V21.325C8.33933 21.5109 7.53024 22.0282 6.97946 22.7767C6.42868 23.5252 6.17544 24.4515 6.26885 25.3761C6.36225 26.3007 6.79564 27.1577 7.48499 27.781C8.17435 28.4042 9.07055 28.7492 9.99986 28.7492C10.9292 28.7492 11.8254 28.4042 12.5147 27.781C13.2041 27.1577 13.6375 26.3007 13.7309 25.3761C13.8243 24.4515 13.571 23.5252 13.0203 22.7767C12.4695 22.0282 11.6604 21.5109 10.7499 21.325V12.25L13.5999 16.05C14.2303 16.8865 15.046 17.5655 15.9829 18.034C16.9198 18.5024 17.9524 18.7475 18.9999 18.75H22.3249C22.4668 19.4452 22.803 20.0858 23.2945 20.5976C23.7859 21.1093 24.4125 21.4711 25.1014 21.641C25.7903 21.8108 26.5132 21.7817 27.1863 21.5571C27.8593 21.3325 28.4548 20.9216 28.9036 20.372C29.3524 19.8225 29.6361 19.1569 29.7217 18.4525C29.8073 17.7482 29.6914 17.034 29.3873 16.3929C29.0832 15.7519 28.6035 15.2102 28.0039 14.8309C27.4043 14.4516 26.7094 14.2501 25.9999 14.25ZM7.74986 7C7.74986 6.55499 7.88182 6.11998 8.12905 5.74996C8.37628 5.37995 8.72769 5.09157 9.13882 4.92127C9.54995 4.75097 10.0024 4.70641 10.4388 4.79323C10.8753 4.88005 11.2762 5.09434 11.5908 5.40901C11.9055 5.72368 12.1198 6.12459 12.2066 6.56104C12.2934 6.9975 12.2489 7.4499 12.0786 7.86104C11.9083 8.27217 11.6199 8.62357 11.2499 8.8708C10.8799 9.11804 10.4449 9.25 9.99986 9.25C9.40312 9.25 8.83082 9.01294 8.40887 8.59099C7.98691 8.16903 7.74986 7.59673 7.74986 7ZM12.2499 25C12.2499 25.445 12.1179 25.88 11.8707 26.25C11.6234 26.62 11.272 26.9084 10.8609 27.0787C10.4498 27.249 9.99736 27.2936 9.5609 27.2068C9.12445 27.1199 8.72354 26.9057 8.40887 26.591C8.0942 26.2763 7.87991 25.8754 7.79309 25.439C7.70627 25.0025 7.75083 24.5501 7.92113 24.139C8.09143 23.7278 8.37981 23.3764 8.74982 23.1292C9.11984 22.882 9.55485 22.75 9.99986 22.75C10.5966 22.75 11.1689 22.9871 11.5908 23.409C12.0128 23.831 12.2499 24.4033 12.2499 25ZM25.9999 20.25C25.5549 20.25 25.1198 20.118 24.7498 19.8708C24.3798 19.6236 24.0914 19.2722 23.9211 18.861C23.7508 18.4499 23.7063 17.9975 23.7931 17.561C23.8799 17.1246 24.0942 16.7237 24.4089 16.409C24.7235 16.0943 25.1244 15.88 25.5609 15.7932C25.9974 15.7064 26.4498 15.751 26.8609 15.9213C27.272 16.0916 27.6234 16.38 27.8707 16.75C28.1179 17.12 28.2499 17.555 28.2499 18C28.2499 18.5967 28.0128 19.169 27.5908 19.591C27.1689 20.0129 26.5966 20.25 25.9999 20.25Z" fill="black"/>
</svg>
