<svg width="32" height="32" viewBox="0 0 32 32" fill="none" xmlns="http://www.w3.org/2000/svg">
<path d="M25.9999 13.5C25.0696 13.5013 24.1626 13.7904 23.403 14.3274C22.6435 14.8645 22.0687 15.6234 21.7574 16.5H18.9999C18.3016 16.4985 17.6131 16.3352 16.9885 16.0229C16.3639 15.7106 15.8201 15.2578 15.3999 14.7L12.4524 10.77C13.3037 10.2158 13.9424 9.38979 14.2647 8.42642C14.5869 7.46306 14.5737 6.419 14.2272 5.46408C13.8808 4.50916 13.2214 3.69957 12.3564 3.16698C11.4914 2.63439 10.4716 2.41014 9.46293 2.53072C8.45428 2.6513 7.5161 3.10961 6.801 3.83109C6.08589 4.55258 5.63594 5.49479 5.52432 6.50447C5.41271 7.51415 5.646 8.53189 6.18625 9.39215C6.7265 10.2524 7.54193 10.9046 8.49989 11.2425V20.7575C7.49907 21.1114 6.65556 21.8076 6.11844 22.7233C5.58132 23.6389 5.38519 24.7149 5.56469 25.7611C5.7442 26.8074 6.2878 27.7565 7.0994 28.4407C7.911 29.1249 8.93836 29.5002 9.99989 29.5002C11.0614 29.5002 12.0888 29.1249 12.9004 28.4407C13.712 27.7565 14.2556 26.8074 14.4351 25.7611C14.6146 24.7149 14.4185 23.6389 13.8813 22.7233C13.3442 21.8076 12.5007 21.1114 11.4999 20.7575V14.5L12.9999 16.5C13.7003 17.4296 14.6066 18.1842 15.6476 18.7047C16.6886 19.2252 17.836 19.4974 18.9999 19.5H21.7574C22.0324 20.2779 22.5159 20.9651 23.1551 21.4867C23.7944 22.0082 24.5646 22.344 25.3818 22.4574C26.199 22.5707 27.0316 22.4572 27.7886 22.1293C28.5457 21.8014 29.198 21.2717 29.6743 20.5981C30.1506 19.9244 30.4326 19.1329 30.4894 18.3098C30.5461 17.4868 30.3756 16.6639 29.9963 15.9313C29.617 15.1986 29.0437 14.5844 28.3388 14.1556C27.634 13.7268 26.8249 13.5 25.9999 13.5ZM9.99989 5.50004C10.2966 5.50004 10.5866 5.58802 10.8332 5.75284C11.0799 5.91766 11.2722 6.15193 11.3857 6.42602C11.4992 6.70011 11.5289 7.00171 11.4711 7.29268C11.4132 7.58365 11.2703 7.85092 11.0605 8.0607C10.8508 8.27048 10.5835 8.41334 10.2925 8.47122C10.0016 8.5291 9.69995 8.49939 9.42586 8.38586C9.15177 8.27233 8.91751 8.08007 8.75268 7.8334C8.58786 7.58672 8.49989 7.29671 8.49989 7.00004C8.49989 6.60222 8.65792 6.22069 8.93923 5.93938C9.22053 5.65808 9.60206 5.50004 9.99989 5.50004ZM9.99989 26.5C9.70322 26.5 9.41321 26.4121 9.16653 26.2472C8.91986 26.0824 8.7276 25.8482 8.61407 25.5741C8.50054 25.3 8.47083 24.9984 8.52871 24.7074C8.58659 24.4164 8.72945 24.1492 8.93923 23.9394C9.14901 23.7296 9.41628 23.5867 9.70725 23.5289C9.99822 23.471 10.2998 23.5007 10.5739 23.6142C10.848 23.7278 11.0823 23.92 11.2471 24.1667C11.4119 24.4134 11.4999 24.7034 11.4999 25C11.4999 25.3979 11.3419 25.7794 11.0605 26.0607C10.7792 26.342 10.3977 26.5 9.99989 26.5ZM25.9999 19.5C25.7032 19.5 25.4132 19.4121 25.1665 19.2472C24.9199 19.0824 24.7276 18.8482 24.6141 18.5741C24.5005 18.3 24.4708 17.9984 24.5287 17.7074C24.5866 17.4164 24.7295 17.1492 24.9392 16.9394C25.149 16.7296 25.4163 16.5867 25.7073 16.5289C25.9982 16.471 26.2998 16.5007 26.5739 16.6142C26.848 16.7278 27.0823 16.92 27.2471 17.1667C27.4119 17.4134 27.4999 17.7034 27.4999 18C27.4999 18.3979 27.3419 18.7794 27.0605 19.0607C26.7792 19.342 26.3977 19.5 25.9999 19.5Z" fill="black"/>
</svg>
