<svg width="32" height="32" viewBox="0 0 32 32" fill="none" xmlns="http://www.w3.org/2000/svg">
<path d="M26 14C25.1132 14.0008 24.2517 14.2958 23.5505 14.8386C22.8493 15.3815 22.3479 16.1416 22.125 17H19C18.2241 16.9981 17.4592 16.8166 16.7652 16.4696C16.0712 16.1226 15.467 15.6196 15 15L11.7112 10.615C12.5614 10.2116 13.2421 9.52144 13.6337 8.66582C14.0253 7.8102 14.1028 6.84391 13.8524 5.93685C13.602 5.02978 13.0399 4.24002 12.2649 3.70642C11.4898 3.17282 10.5514 2.92955 9.61475 3.01937C8.67807 3.1092 7.80304 3.52637 7.14351 4.19754C6.48399 4.86871 6.0822 5.75091 6.00878 6.68903C5.93536 7.62714 6.19503 8.5611 6.74211 9.3267C7.2892 10.0923 8.08868 10.6405 8.99999 10.875V21.125C8.05733 21.3684 7.2358 21.9472 6.68938 22.753C6.14297 23.5588 5.90919 24.5361 6.03187 25.502C6.15454 26.4678 6.62525 27.3557 7.35575 27.9993C8.08626 28.6429 9.02641 28.9979 9.99999 28.9979C10.9736 28.9979 11.9137 28.6429 12.6442 27.9993C13.3747 27.3557 13.8454 26.4678 13.9681 25.502C14.0908 24.5361 13.857 23.5588 13.3106 22.753C12.7642 21.9472 11.9426 21.3684 11 21.125V13L13.4 16.2C14.0538 17.0675 14.8996 17.7717 15.8712 18.2575C16.8428 18.7433 17.9137 18.9975 19 19H22.125C22.312 19.7243 22.6984 20.3816 23.2402 20.8973C23.7821 21.4131 24.4577 21.7665 25.1903 21.9176C25.9229 22.0686 26.6833 22.0112 27.3849 21.7518C28.0865 21.4924 28.7014 21.0415 29.1596 20.4503C29.6179 19.859 29.9011 19.1511 29.9772 18.4069C30.0533 17.6627 29.9192 16.9121 29.5902 16.2404C29.2611 15.5686 28.7502 15.0025 28.1156 14.6065C27.481 14.2105 26.748 14.0003 26 14ZM7.99999 6.99996C7.99999 6.6044 8.11728 6.21772 8.33705 5.88882C8.55681 5.55993 8.86917 5.30358 9.23462 5.15221C9.60007 5.00083 10.0022 4.96122 10.3902 5.03839C10.7781 5.11556 11.1345 5.30605 11.4142 5.58575C11.6939 5.86546 11.8844 6.22182 11.9616 6.60978C12.0387 6.99775 11.9991 7.39988 11.8477 7.76533C11.6964 8.13078 11.44 8.44314 11.1111 8.6629C10.7822 8.88267 10.3955 8.99996 9.99999 8.99996C9.46955 8.99996 8.96085 8.78925 8.58577 8.41418C8.2107 8.0391 7.99999 7.5304 7.99999 6.99996ZM12 25C12 25.3955 11.8827 25.7822 11.6629 26.1111C11.4432 26.44 11.1308 26.6963 10.7654 26.8477C10.3999 26.9991 9.99777 27.0387 9.60981 26.9615C9.22184 26.8844 8.86548 26.6939 8.58577 26.4142C8.30607 26.1345 8.11559 25.7781 8.03842 25.3901C7.96125 25.0022 8.00085 24.6 8.15223 24.2346C8.3036 23.8691 8.55995 23.5568 8.88885 23.337C9.21774 23.1173 9.60442 23 9.99999 23C10.5304 23 11.0391 23.2107 11.4142 23.5858C11.7893 23.9608 12 24.4695 12 25ZM26 20C25.6044 20 25.2177 19.8827 24.8888 19.6629C24.5599 19.4431 24.3036 19.1308 24.1522 18.7653C24.0009 18.3999 23.9612 17.9977 24.0384 17.6098C24.1156 17.2218 24.3061 16.8655 24.5858 16.5858C24.8655 16.306 25.2218 16.1156 25.6098 16.0384C25.9978 15.9612 26.3999 16.0008 26.7654 16.1522C27.1308 16.3036 27.4432 16.5599 27.6629 16.8888C27.8827 17.2177 28 17.6044 28 18C28 18.5304 27.7893 19.0391 27.4142 19.4142C27.0391 19.7892 26.5304 20 26 20Z" fill="black"/>
</svg>
