<svg width="32" height="32" viewBox="0 0 32 32" fill="none" xmlns="http://www.w3.org/2000/svg">
<path d="M16 21.75C17.9284 21.75 19.8134 21.1781 21.4168 20.1068C23.0202 19.0354 24.2699 17.5127 25.0078 15.7311C25.7458 13.9495 25.9389 11.9891 25.5626 10.0978C25.1864 8.20651 24.2578 6.46923 22.8943 5.10567C21.5307 3.7421 19.7934 2.81351 17.9021 2.4373C16.0108 2.06109 14.0504 2.25418 12.2688 2.99213C10.4872 3.73009 8.9645 4.97977 7.89316 6.58315C6.82182 8.18653 6.24999 10.0716 6.24999 12C6.25297 14.5849 7.28115 17.0631 9.10899 18.891C10.9368 20.7188 13.415 21.747 16 21.75ZM16 3.74996C17.6317 3.74996 19.2267 4.23381 20.5834 5.14033C21.9401 6.04685 22.9976 7.33533 23.622 8.84282C24.2464 10.3503 24.4098 12.0091 24.0915 13.6095C23.7731 15.2098 22.9874 16.6798 21.8336 17.8336C20.6798 18.9874 19.2098 19.7731 17.6095 20.0914C16.0091 20.4098 14.3503 20.2464 12.8429 19.622C11.3354 18.9975 10.0469 17.9401 9.14037 16.5834C8.23384 15.2267 7.74999 13.6317 7.74999 12C7.75264 9.81273 8.62268 7.71585 10.1693 6.16925C11.7159 4.62265 13.8128 3.7526 16 3.74996ZM25.5412 20.8612C25.6789 21.0046 25.754 21.1968 25.75 21.3956C25.746 21.5944 25.6633 21.7834 25.52 21.9212C23.1512 24.206 20.0367 25.5582 16.75 25.7287V28.25H20C20.1989 28.25 20.3897 28.329 20.5303 28.4696C20.671 28.6103 20.75 28.801 20.75 29C20.75 29.1989 20.671 29.3896 20.5303 29.5303C20.3897 29.6709 20.1989 29.75 20 29.75H12C11.8011 29.75 11.6103 29.6709 11.4697 29.5303C11.329 29.3896 11.25 29.1989 11.25 29C11.25 28.801 11.329 28.6103 11.4697 28.4696C11.6103 28.329 11.8011 28.25 12 28.25H15.25V25.7287C11.7612 25.5383 8.47577 24.0269 6.06115 21.5015C3.64654 18.9761 2.28387 15.6263 2.24999 12.1325C2.2066 8.53677 3.58175 5.0688 6.07749 2.47996C6.2154 2.33641 6.40469 2.25353 6.60371 2.24954C6.80274 2.24556 6.99519 2.32079 7.13874 2.45871C7.28229 2.59662 7.36517 2.78591 7.36916 2.98493C7.37314 3.18395 7.2979 3.37641 7.15999 3.51996C4.94527 5.8334 3.72462 8.92219 3.75953 12.1247C3.79444 15.3271 5.08212 18.3886 7.34674 20.6532C9.61137 22.9178 12.6728 24.2055 15.8753 24.2404C19.0778 24.2753 22.1665 23.0547 24.48 20.84C24.551 20.7716 24.6349 20.7179 24.7267 20.682C24.8185 20.6461 24.9165 20.6286 25.015 20.6306C25.1136 20.6325 25.2108 20.6539 25.3011 20.6935C25.3914 20.7331 25.473 20.7901 25.5412 20.8612Z" fill="black"/>
</svg>
