<svg width="32" height="32" viewBox="0 0 32 32" fill="none" xmlns="http://www.w3.org/2000/svg">
<path d="M16 22C17.9778 22 19.9112 21.4135 21.5557 20.3147C23.2002 19.2159 24.4819 17.6541 25.2388 15.8268C25.9957 13.9996 26.1937 11.9889 25.8079 10.0491C25.422 8.10928 24.4696 6.32745 23.0711 4.92893C21.6726 3.5304 19.8907 2.57799 17.9509 2.19214C16.0111 1.80629 14.0004 2.00432 12.1732 2.7612C10.3459 3.51808 8.78413 4.7998 7.68532 6.44429C6.5865 8.08878 6.00001 10.0222 6.00001 12C6.00299 14.6512 7.05751 17.1931 8.93223 19.0678C10.807 20.9425 13.3488 21.997 16 22ZM16 4C17.5823 4 19.129 4.46919 20.4446 5.34824C21.7602 6.22729 22.7855 7.47672 23.391 8.93853C23.9965 10.4003 24.155 12.0089 23.8463 13.5607C23.5376 15.1126 22.7757 16.538 21.6569 17.6568C20.538 18.7757 19.1126 19.5376 17.5607 19.8463C16.0089 20.155 14.4004 19.9965 12.9385 19.391C11.4767 18.7855 10.2273 17.7601 9.34826 16.4446C8.4692 15.129 8.00001 13.5822 8.00001 12C8.00233 9.87897 8.84593 7.84549 10.3457 6.3457C11.8455 4.84591 13.879 4.00231 16 4ZM25.7213 20.6875C25.8124 20.7822 25.8839 20.894 25.9318 21.0165C25.9797 21.1389 26.0029 21.2695 26.0003 21.401C25.9976 21.5324 25.969 21.662 25.9162 21.7824C25.8634 21.9027 25.7874 22.0115 25.6925 22.1025C23.3392 24.3718 20.2615 25.7394 17 25.965V28H20C20.2652 28 20.5196 28.1054 20.7071 28.2929C20.8947 28.4804 21 28.7348 21 29C21 29.2652 20.8947 29.5196 20.7071 29.7071C20.5196 29.8946 20.2652 30 20 30H12C11.7348 30 11.4804 29.8946 11.2929 29.7071C11.1054 29.5196 11 29.2652 11 29C11 28.7348 11.1054 28.4804 11.2929 28.2929C11.4804 28.1054 11.7348 28 12 28H15V25.9637C12.3478 25.7738 9.80447 24.8324 7.66769 23.2498C5.5309 21.6672 3.88901 19.5088 2.93411 17.0271C1.97921 14.5455 1.7508 11.8432 2.27559 9.23643C2.80039 6.6297 4.05669 4.22632 5.89751 2.3075C5.98787 2.21041 6.09664 2.13226 6.21749 2.07761C6.33834 2.02296 6.46885 1.99289 6.60143 1.98916C6.73401 1.98544 6.86601 2.00812 6.98973 2.05589C7.11346 2.10366 7.22645 2.17557 7.32212 2.26743C7.4178 2.35929 7.49424 2.46926 7.547 2.59095C7.59977 2.71263 7.6278 2.8436 7.62946 2.97622C7.63113 3.10884 7.60639 3.24047 7.5567 3.36344C7.50701 3.48641 7.43335 3.59826 7.34001 3.6925C5.16012 5.95684 3.95565 8.98606 3.98551 12.129C4.01536 15.272 5.27716 18.2778 7.49968 20.5003C9.7222 22.7228 12.728 23.9846 15.871 24.0145C19.0139 24.0444 22.0432 22.8399 24.3075 20.66C24.4987 20.4762 24.755 20.3758 25.0201 20.381C25.2852 20.3862 25.5374 20.4964 25.7213 20.6875Z" fill="black"/>
</svg>
