<svg width="32" height="32" viewBox="0 0 32 32" fill="none" xmlns="http://www.w3.org/2000/svg">
<path d="M16 21.5C17.8789 21.5 19.7156 20.9428 21.2779 19.899C22.8402 18.8551 24.0578 17.3714 24.7769 15.6355C25.4959 13.8996 25.684 11.9895 25.3175 10.1466C24.9509 8.30382 24.0461 6.61108 22.7175 5.28248C21.3889 3.95388 19.6962 3.04909 17.8534 2.68253C16.0105 2.31597 14.1004 2.5041 12.3645 3.22314C10.6286 3.94217 9.14491 5.15981 8.10103 6.72208C7.05716 8.28434 6.5 10.1211 6.5 12C6.50264 14.5187 7.50438 16.9336 9.2854 18.7146C11.0664 20.4956 13.4813 21.4973 16 21.5ZM16 5.49999C17.2856 5.49999 18.5423 5.88121 19.6112 6.59544C20.6801 7.30967 21.5132 8.32483 22.0052 9.51255C22.4972 10.7003 22.6259 12.0072 22.3751 13.2681C22.1243 14.529 21.5052 15.6871 20.5962 16.5962C19.6871 17.5052 18.529 18.1243 17.2681 18.3751C16.0072 18.6259 14.7003 18.4972 13.5126 18.0052C12.3248 17.5132 11.3097 16.6801 10.5954 15.6112C9.88121 14.5423 9.5 13.2856 9.5 12C9.50198 10.2767 10.1874 8.62455 11.406 7.40599C12.6245 6.18743 14.2767 5.50198 16 5.49999ZM17.5 26.4225V27.5H20C20.3978 27.5 20.7794 27.658 21.0607 27.9393C21.342 28.2206 21.5 28.6022 21.5 29C21.5 29.3978 21.342 29.7793 21.0607 30.0607C20.7794 30.342 20.3978 30.5 20 30.5H12C11.6022 30.5 11.2206 30.342 10.9393 30.0607C10.658 29.7793 10.5 29.3978 10.5 29C10.5 28.6022 10.658 28.2206 10.9393 27.9393C11.2206 27.658 11.6022 27.5 12 27.5H14.5V26.4225C10.9571 26.0542 7.67378 24.3947 5.27614 21.7605C2.8785 19.1263 1.53433 15.7018 1.5 12.14C1.45396 8.34821 2.90416 4.69105 5.53625 1.96124C5.67178 1.81561 5.83494 1.69839 6.01621 1.61641C6.19748 1.53444 6.39325 1.48934 6.59212 1.48375C6.79099 1.47815 6.98898 1.51218 7.17458 1.58384C7.36017 1.6555 7.52966 1.76336 7.67316 1.90115C7.81667 2.03894 7.93134 2.20389 8.01048 2.38642C8.08963 2.56895 8.13167 2.7654 8.13417 2.96433C8.13667 3.16326 8.09957 3.3607 8.02503 3.54516C7.95049 3.72961 7.84 3.8974 7.7 4.03874C5.60981 6.20859 4.45461 9.11205 4.48284 12.1247C4.51106 15.1374 5.72044 18.0187 7.85092 20.1491C9.98139 22.2794 12.8628 23.4885 15.8755 23.5165C18.8882 23.5445 21.7916 22.3891 23.9612 20.2987C24.1026 20.1587 24.2704 20.0483 24.4548 19.9737C24.6393 19.8992 24.8367 19.8621 25.0357 19.8646C25.2346 19.8671 25.431 19.9091 25.6136 19.9883C25.7961 20.0674 25.9611 20.1821 26.0988 20.3256C26.2366 20.4691 26.3445 20.6386 26.4162 20.8242C26.4878 21.0098 26.5218 21.2077 26.5162 21.4066C26.5106 21.6055 26.4656 21.8013 26.3836 21.9825C26.3016 22.1638 26.1844 22.327 26.0387 22.4625C23.7169 24.7023 20.7097 26.097 17.5 26.4225Z" fill="black"/>
</svg>
