<svg width="32" height="32" viewBox="0 0 32 32" fill="none" xmlns="http://www.w3.org/2000/svg">
<path d="M16 2.5C13.33 2.5 10.7199 3.29176 8.49981 4.77516C6.27974 6.25856 4.54942 8.36697 3.52763 10.8338C2.50585 13.3006 2.2385 16.015 2.7594 18.6337C3.28031 21.2525 4.56606 23.6579 6.45406 25.5459C8.34207 27.434 10.7475 28.7197 13.3663 29.2406C15.985 29.7615 18.6994 29.4942 21.1662 28.4724C23.633 27.4506 25.7414 25.7203 27.2248 23.5002C28.7082 21.2801 29.5 18.67 29.5 16C29.496 12.4208 28.0724 8.98932 25.5416 6.45844C23.0107 3.92756 19.5792 2.50397 16 2.5ZM26.3913 14.5H22.445C22.2517 11.6182 21.4186 8.81568 20.0063 6.29625C21.6894 6.99426 23.1627 8.11717 24.2819 9.55515C25.401 10.9931 26.1279 12.697 26.3913 14.5ZM12.5638 17.5H19.4388C19.1575 20.8363 17.9388 23.9325 16.0025 26.2313C14.0575 23.9325 12.845 20.8363 12.5638 17.5ZM12.5638 14.5C12.845 11.1637 14.0575 8.0675 16 5.76875C17.9425 8.0675 19.155 11.1637 19.4363 14.5H12.5638ZM12 6.29625C10.5855 8.81516 9.75024 11.6177 9.55501 14.5H5.60876C5.87273 12.6963 6.60049 10.992 7.72082 9.55396C8.84115 8.11592 10.3156 6.9934 12 6.29625ZM5.60876 17.5H9.55501C9.75024 20.3823 10.5855 23.1848 12 25.7038C10.3156 25.0066 8.84115 23.8841 7.72082 22.446C6.60049 21.008 5.87273 19.3037 5.60876 17.5ZM20.0063 25.7038C21.4186 23.1843 22.2517 20.3818 22.445 17.5H26.3913C26.1279 19.303 25.401 21.0069 24.2819 22.4449C23.1627 23.8828 21.6894 25.0057 20.0063 25.7038Z" fill="black"/>
</svg>
