<svg width="32" height="32" viewBox="0 0 32 32" fill="none" xmlns="http://www.w3.org/2000/svg">
<path d="M22.5 7.5H9.5C6.98126 7.50265 4.56643 8.50439 2.78541 10.2854C1.00439 12.0664 0.00264713 14.4813 0 17L0 17.5C0.000150775 18.0682 0.161649 18.6246 0.465701 19.1046C0.769754 19.5846 1.20386 19.9684 1.7175 20.2113C2.11125 21.3 3.03125 22.305 4.4075 23.12C5.8475 23.9713 7.6075 24.495 9 24.495C10.1966 24.4934 11.3601 24.1022 12.3146 23.3805C13.269 22.6588 13.9625 21.6459 14.29 20.495H17.71C18.0366 21.6468 18.7297 22.6609 19.6842 23.3835C20.6387 24.1062 21.8028 24.4981 23 24.5C25.3162 24.5 29.3275 22.8988 30.2887 20.2087C30.8008 19.9651 31.2334 19.5814 31.5363 19.102C31.8391 18.6225 31.9999 18.0671 32 17.5V17C31.9974 14.4813 30.9956 12.0664 29.2146 10.2854C27.4336 8.50439 25.0187 7.50265 22.5 7.5ZM9.5 10.5H22.5C24.0193 10.5021 25.4901 11.0356 26.6574 12.0082C27.8247 12.9807 28.6149 14.331 28.8913 15.825C28.4908 15.4661 28.0558 15.1479 27.5925 14.875C26.1525 14.0237 24.3925 13.5 23 13.5C21.8034 13.5016 20.6399 13.8928 19.6854 14.6145C18.731 15.3362 18.0375 16.3491 17.71 17.5H14.29C13.9625 16.3491 13.269 15.3362 12.3146 14.6145C11.3601 13.8928 10.1966 13.5016 9 13.5C7.325 13.5 4.7625 14.3387 3.10875 15.82C3.38634 14.327 4.17712 12.9781 5.34426 12.0065C6.51139 11.035 7.98144 10.5021 9.5 10.5ZM9 21.5C7.23375 21.5 4.5 19.9812 4.5 19C4.5 18.6575 4.94375 18.0487 5.935 17.4625C7.06 16.7975 8.285 16.5 9 16.5C9.66304 16.5 10.2989 16.7634 10.7678 17.2322C11.2366 17.7011 11.5 18.337 11.5 19C11.5 19.663 11.2366 20.2989 10.7678 20.7678C10.2989 21.2366 9.66304 21.5 9 21.5ZM26.065 20.5375C24.94 21.2025 23.715 21.5 23 21.5C22.337 21.5 21.7011 21.2366 21.2322 20.7678C20.7634 20.2989 20.5 19.663 20.5 19C20.5 18.337 20.7634 17.7011 21.2322 17.2322C21.7011 16.7634 22.337 16.5 23 16.5C24.7663 16.5 27.5 18.0188 27.5 19C27.5 19.3425 27.0562 19.9513 26.065 20.5375Z" fill="black"/>
</svg>
