<svg width="32" height="32" viewBox="0 0 32 32" fill="none" xmlns="http://www.w3.org/2000/svg">
<path d="M23 2.5C22.6022 2.5 22.2206 2.65804 21.9393 2.93934C21.658 3.22065 21.5 3.60218 21.5 4V4.5275C20.2648 3.47517 18.754 2.79874 17.1464 2.57827C15.5387 2.3578 13.9016 2.60252 12.4287 3.28347C10.9558 3.96442 9.70881 5.05309 8.83534 6.42063C7.96187 7.78816 7.49848 9.37732 7.5 11V14C7.49848 15.6227 7.96187 17.2118 8.83534 18.5794C9.70881 19.9469 10.9558 21.0356 12.4287 21.7165C13.9016 22.3975 15.5387 22.6422 17.1464 22.4217C18.754 22.2013 20.2648 21.5248 21.5 20.4725V21C21.4983 22.4582 20.9184 23.8562 19.8873 24.8873C18.8562 25.9184 17.4582 26.4983 16 26.5C14.125 26.5 12.2138 25.5525 11.23 24.1413C11.0022 23.815 10.6542 23.5927 10.2625 23.523C9.8708 23.4534 9.46747 23.5422 9.14125 23.77C8.81504 23.9978 8.59266 24.3458 8.52303 24.7375C8.45341 25.1292 8.54225 25.5325 8.77 25.8588C10.3125 28.07 13.1513 29.5 16 29.5C18.2536 29.4977 20.4143 28.6014 22.0079 27.0079C23.6014 25.4143 24.4977 23.2536 24.5 21V4C24.5 3.60218 24.342 3.22065 24.0607 2.93934C23.7794 2.65804 23.3978 2.5 23 2.5ZM16 19.5C14.5418 19.4983 13.1438 18.9184 12.1127 17.8873C11.0817 16.8562 10.5017 15.4582 10.5 14V11C10.5 9.54131 11.0795 8.14236 12.1109 7.11091C13.1424 6.07946 14.5413 5.5 16 5.5C17.4587 5.5 18.8576 6.07946 19.8891 7.11091C20.9205 8.14236 21.5 9.54131 21.5 11V14C21.4983 15.4582 20.9184 16.8562 19.8873 17.8873C18.8562 18.9184 17.4582 19.4983 16 19.5Z" fill="black"/>
</svg>
