<svg width="32" height="32" viewBox="0 0 32 32" fill="none" xmlns="http://www.w3.org/2000/svg">
<path d="M29 14.5H24.83C25.401 13.0592 25.6108 11.5007 25.4412 9.96022C25.2715 8.41976 24.7276 6.94419 23.8569 5.66219C22.9861 4.38019 21.8149 3.33068 20.4454 2.6052C19.0759 1.87972 17.5498 1.50029 16 1.5C15.6022 1.5 15.2206 1.65804 14.9393 1.93934C14.658 2.22064 14.5 2.60218 14.5 3V7.17C13.0592 6.59903 11.5007 6.38921 9.96022 6.55883C8.41976 6.72846 6.94419 7.27237 5.66219 8.14315C4.38019 9.01393 3.33068 10.1851 2.6052 11.5546C1.87972 12.9241 1.50029 14.4502 1.5 16C1.5 16.3978 1.65804 16.7794 1.93934 17.0607C2.22064 17.342 2.60218 17.5 3 17.5H7.17C6.59903 18.9408 6.38921 20.4993 6.55883 22.0398C6.72846 23.5802 7.27237 25.0558 8.14315 26.3378C9.01393 27.6198 10.1851 28.6693 11.5546 29.3948C12.9241 30.1203 14.4502 30.4997 16 30.5C16.3978 30.5 16.7794 30.342 17.0607 30.0607C17.342 29.7794 17.5 29.3978 17.5 29V24.83C18.9408 25.401 20.4993 25.6108 22.0398 25.4412C23.5802 25.2715 25.0558 24.7276 26.3378 23.8569C27.6198 22.9861 28.6693 21.8149 29.3948 20.4454C30.1203 19.0759 30.4997 17.5498 30.5 16C30.5 15.6022 30.342 15.2206 30.0607 14.9393C29.7794 14.658 29.3978 14.5 29 14.5ZM22.5 11C22.5045 12.2409 22.1493 13.4566 21.4775 14.5H17.5V4.675C18.9227 5.01448 20.1897 5.82309 21.0967 6.97051C22.0038 8.11794 22.4981 9.53735 22.5 11ZM11 9.5C12.2409 9.49554 13.4566 9.85069 14.5 10.5225V14.5H4.675C5.01448 13.0773 5.82309 11.8103 6.97051 10.9033C8.11794 9.9962 9.53735 9.5019 11 9.5ZM9.5 21C9.49554 19.7591 9.85069 18.5434 10.5225 17.5H14.5V27.325C13.0773 26.9855 11.8103 26.1769 10.9033 25.0295C9.9962 23.8821 9.5019 22.4626 9.5 21ZM21 22.5C19.7591 22.5045 18.5434 22.1493 17.5 21.4775V17.5H27.325C26.9855 18.9227 26.1769 20.1897 25.0295 21.0967C23.8821 22.0038 22.4626 22.4981 21 22.5Z" fill="black"/>
</svg>
