<svg width="32" height="32" viewBox="0 0 32 32" fill="none" xmlns="http://www.w3.org/2000/svg">
<path d="M28 5.5H4C3.33696 5.5 2.70107 5.76339 2.23223 6.23223C1.76339 6.70107 1.5 7.33696 1.5 8V24C1.5 24.663 1.76339 25.2989 2.23223 25.7678C2.70107 26.2366 3.33696 26.5 4 26.5H11.5863C11.9147 26.5009 12.24 26.4366 12.5434 26.3109C12.8468 26.1851 13.1222 26.0004 13.3538 25.7675L16 23.125L18.6462 25.7712C18.8781 26.0035 19.1536 26.1875 19.457 26.3126C19.7604 26.4377 20.0856 26.5014 20.4137 26.5H28C28.663 26.5 29.2989 26.2366 29.7678 25.7678C30.2366 25.2989 30.5 24.663 30.5 24V8C30.5 7.33696 30.2366 6.70107 29.7678 6.23223C29.2989 5.76339 28.663 5.5 28 5.5ZM27.5 23.5H20.625L17.7712 20.6462C17.3024 20.1776 16.6667 19.9143 16.0037 19.9143C15.3408 19.9143 14.7051 20.1776 14.2362 20.6462L11.375 23.5H4.5V8.5H27.5V23.5ZM10.25 20C11.0906 20 11.9123 19.7507 12.6112 19.2837C13.3101 18.8168 13.8548 18.153 14.1765 17.3764C14.4982 16.5998 14.5823 15.7453 14.4183 14.9209C14.2544 14.0964 13.8496 13.3392 13.2552 12.7448C12.6608 12.1504 11.9036 11.7456 11.0791 11.5817C10.2547 11.4177 9.40018 11.5018 8.6236 11.8235C7.84701 12.1452 7.18325 12.6899 6.71625 13.3888C6.24926 14.0877 6 14.9094 6 15.75C6 16.8772 6.44777 17.9582 7.2448 18.7552C8.04183 19.5522 9.12283 20 10.25 20ZM10.25 14.5C10.4972 14.5 10.7389 14.5733 10.9445 14.7107C11.15 14.848 11.3102 15.0432 11.4048 15.2716C11.4995 15.5001 11.5242 15.7514 11.476 15.9939C11.4278 16.2363 11.3087 16.4591 11.1339 16.6339C10.9591 16.8087 10.7363 16.9277 10.4939 16.976C10.2514 17.0242 10.0001 16.9995 9.77165 16.9049C9.54324 16.8102 9.34801 16.65 9.21066 16.4445C9.07331 16.2389 9 15.9972 9 15.75C9 15.4185 9.1317 15.1005 9.36612 14.8661C9.60054 14.6317 9.91848 14.5 10.25 14.5ZM21.75 20C22.5906 20 23.4123 19.7507 24.1112 19.2837C24.8101 18.8168 25.3548 18.153 25.6765 17.3764C25.9982 16.5998 26.0823 15.7453 25.9183 14.9209C25.7543 14.0964 25.3496 13.3392 24.7552 12.7448C24.1608 12.1504 23.4036 11.7456 22.5791 11.5817C21.7547 11.4177 20.9002 11.5018 20.1236 11.8235C19.347 12.1452 18.6832 12.6899 18.2163 13.3888C17.7493 14.0877 17.5 14.9094 17.5 15.75C17.5 16.8772 17.9478 17.9582 18.7448 18.7552C19.5418 19.5522 20.6228 20 21.75 20ZM21.75 14.5C21.9972 14.5 22.2389 14.5733 22.4445 14.7107C22.65 14.848 22.8102 15.0432 22.9049 15.2716C22.9995 15.5001 23.0242 15.7514 22.976 15.9939C22.9277 16.2363 22.8087 16.4591 22.6339 16.6339C22.4591 16.8087 22.2363 16.9277 21.9939 16.976C21.7514 17.0242 21.5001 16.9995 21.2716 16.9049C21.0432 16.8102 20.848 16.65 20.7107 16.4445C20.5733 16.2389 20.5 15.9972 20.5 15.75C20.5 15.4185 20.6317 15.1005 20.8661 14.8661C21.1005 14.6317 21.4185 14.5 21.75 14.5Z" fill="black"/>
</svg>
