<svg width="32" height="32" viewBox="0 0 32 32" fill="none" xmlns="http://www.w3.org/2000/svg">
<path d="M28.2238 13.8375L7.25003 1.83127C6.86656 1.61313 6.43271 1.49906 5.99153 1.50038C5.55036 1.50169 5.1172 1.61835 4.73503 1.83877C4.35802 2.05437 4.04502 2.36621 3.82804 2.74243C3.61105 3.11864 3.49786 3.54572 3.50003 3.98002V28.02C3.49823 28.4547 3.61199 28.882 3.82966 29.2583C4.04732 29.6345 4.36107 29.9462 4.73878 30.1613C5.12086 30.3819 5.55406 30.4987 5.99528 30.5C6.43651 30.5014 6.87039 30.3872 7.25378 30.1688L28.2238 18.1688C28.6105 17.9554 28.9328 17.6422 29.1573 17.2618C29.3818 16.8815 29.5003 16.4479 29.5003 16.0063C29.5003 15.5646 29.3818 15.131 29.1573 14.7507C28.9328 14.3704 28.6105 14.0572 28.2238 13.8438V13.8375ZM6.50003 25.375V6.62502L15.875 16L6.50003 25.375ZM18 18.125L19.55 19.675L12.3 23.825L18 18.125ZM12.3013 8.17877L19.5513 12.3288L18 13.875L12.3013 8.17877ZM22.25 18.125L20.125 16L22.25 13.875L25.965 16L22.25 18.125Z" fill="black"/>
</svg>
