<svg width="32" height="32" viewBox="0 0 32 32" fill="none" xmlns="http://www.w3.org/2000/svg">
<path d="M16 2.5C13.33 2.5 10.7199 3.29176 8.49981 4.77516C6.27974 6.25856 4.54942 8.36697 3.52763 10.8338C2.50585 13.3006 2.2385 16.015 2.7594 18.6337C3.28031 21.2525 4.56606 23.6579 6.45406 25.5459C8.34207 27.434 10.7475 28.7197 13.3663 29.2406C15.985 29.7615 18.6994 29.4942 21.1662 28.4724C23.633 27.4506 25.7414 25.7203 27.2248 23.5002C28.7082 21.2801 29.5 18.67 29.5 16C29.496 12.4208 28.0724 8.98932 25.5416 6.45844C23.0107 3.92756 19.5792 2.50397 16 2.5ZM16 5.5C17.5862 5.50031 19.1516 5.86045 20.5785 6.5533C22.0053 7.24615 23.2564 8.25367 24.2375 9.5H16C14.8095 9.50108 13.642 9.8288 12.6248 10.4475C11.6077 11.0662 10.7798 11.9521 10.2313 13.0087L8.02251 9.18375C9.00624 8.02877 10.2291 7.10121 11.6064 6.46518C12.9838 5.82916 14.4829 5.49984 16 5.5ZM19.5 16C19.5 16.6922 19.2947 17.3689 18.9101 17.9445C18.5256 18.5201 17.9789 18.9687 17.3394 19.2336C16.6999 19.4985 15.9961 19.5678 15.3172 19.4327C14.6383 19.2977 14.0146 18.9644 13.5251 18.4749C13.0356 17.9854 12.7023 17.3617 12.5673 16.6828C12.4322 16.0039 12.5015 15.3001 12.7664 14.6606C13.0313 14.0211 13.4799 13.4744 14.0555 13.0899C14.6311 12.7053 15.3078 12.5 16 12.5C16.9283 12.5 17.8185 12.8687 18.4749 13.5251C19.1313 14.1815 19.5 15.0717 19.5 16ZM5.50001 16C5.49926 14.6677 5.75385 13.3477 6.25001 12.1112L10.375 19.25C10.3825 19.2638 10.3925 19.275 10.4 19.2875C10.9727 20.2644 11.7907 21.0747 12.773 21.6382C13.7552 22.2016 14.8676 22.4987 16 22.5C16.0992 22.5 16.1967 22.4975 16.2925 22.4925L14.0825 26.3213C11.6733 25.8708 9.49709 24.5929 7.93001 22.7083C6.36293 20.8238 5.50342 18.451 5.50001 16ZM17.5063 26.39L21.625 19.25C21.6363 19.2313 21.645 19.2125 21.655 19.1925C22.2371 18.1662 22.5278 17.0003 22.4956 15.8208C22.4635 14.6414 22.1097 13.4931 21.4725 12.5H25.8975C26.4158 13.9631 26.6031 15.523 26.4458 17.0673C26.2885 18.6115 25.7906 20.1016 24.988 21.4302C24.1854 22.7588 23.098 23.8928 21.8042 24.7505C20.5105 25.6081 19.0425 26.1681 17.5063 26.39Z" fill="black"/>
</svg>
