<svg width="32" height="32" viewBox="0 0 32 32" fill="none" xmlns="http://www.w3.org/2000/svg">
<path d="M17.5 2V6C17.5 6.39782 17.342 6.77936 17.0607 7.06066C16.7794 7.34196 16.3978 7.5 16 7.5C15.6022 7.5 15.2206 7.34196 14.9393 7.06066C14.658 6.77936 14.5 6.39782 14.5 6V2C14.5 1.60218 14.658 1.22064 14.9393 0.93934C15.2206 0.658035 15.6022 0.5 16 0.5C16.3978 0.5 16.7794 0.658035 17.0607 0.93934C17.342 1.22064 17.5 1.60218 17.5 2ZM22 6.5C21.6022 6.5 21.2206 6.65804 20.9393 6.93934C20.658 7.22064 20.5 7.60218 20.5 8V12C20.5 12.3978 20.658 12.7794 20.9393 13.0607C21.2206 13.342 21.6022 13.5 22 13.5C22.3978 13.5 22.7794 13.342 23.0607 13.0607C23.342 12.7794 23.5 12.3978 23.5 12V8C23.5 7.60218 23.342 7.22064 23.0607 6.93934C22.7794 6.65804 22.3978 6.5 22 6.5ZM16 24.5C15.6022 24.5 15.2206 24.658 14.9393 24.9393C14.658 25.2206 14.5 25.6022 14.5 26V30C14.5 30.3978 14.658 30.7794 14.9393 31.0607C15.2206 31.342 15.6022 31.5 16 31.5C16.3978 31.5 16.7794 31.342 17.0607 31.0607C17.342 30.7794 17.5 30.3978 17.5 30V26C17.5 25.6022 17.342 25.2206 17.0607 24.9393C16.7794 24.658 16.3978 24.5 16 24.5ZM16 9.5C15.6022 9.5 15.2206 9.65804 14.9393 9.93934C14.658 10.2206 14.5 10.6022 14.5 11V21C14.5 21.3978 14.658 21.7794 14.9393 22.0607C15.2206 22.342 15.6022 22.5 16 22.5C16.3978 22.5 16.7794 22.342 17.0607 22.0607C17.342 21.7794 17.5 21.3978 17.5 21V11C17.5 10.6022 17.342 10.2206 17.0607 9.93934C16.7794 9.65804 16.3978 9.5 16 9.5ZM10 6.5C9.60218 6.5 9.22064 6.65804 8.93934 6.93934C8.65804 7.22064 8.5 7.60218 8.5 8V15C8.5 15.3978 8.65804 15.7794 8.93934 16.0607C9.22064 16.342 9.60218 16.5 10 16.5C10.3978 16.5 10.7794 16.342 11.0607 16.0607C11.342 15.7794 11.5 15.3978 11.5 15V8C11.5 7.60218 11.342 7.22064 11.0607 6.93934C10.7794 6.65804 10.3978 6.5 10 6.5ZM22 15.5C21.6022 15.5 21.2206 15.658 20.9393 15.9393C20.658 16.2206 20.5 16.6022 20.5 17V24C20.5 24.3978 20.658 24.7794 20.9393 25.0607C21.2206 25.342 21.6022 25.5 22 25.5C22.3978 25.5 22.7794 25.342 23.0607 25.0607C23.342 24.7794 23.5 24.3978 23.5 24V17C23.5 16.6022 23.342 16.2206 23.0607 15.9393C22.7794 15.658 22.3978 15.5 22 15.5ZM4 12.5C3.60218 12.5 3.22064 12.658 2.93934 12.9393C2.65804 13.2206 2.5 13.6022 2.5 14V18C2.5 18.3978 2.65804 18.7794 2.93934 19.0607C3.22064 19.342 3.60218 19.5 4 19.5C4.39782 19.5 4.77936 19.342 5.06066 19.0607C5.34196 18.7794 5.5 18.3978 5.5 18V14C5.5 13.6022 5.34196 13.2206 5.06066 12.9393C4.77936 12.658 4.39782 12.5 4 12.5ZM10 18.5C9.60218 18.5 9.22064 18.658 8.93934 18.9393C8.65804 19.2206 8.5 19.6022 8.5 20V24C8.5 24.3978 8.65804 24.7794 8.93934 25.0607C9.22064 25.342 9.60218 25.5 10 25.5C10.3978 25.5 10.7794 25.342 11.0607 25.0607C11.342 24.7794 11.5 24.3978 11.5 24V20C11.5 19.6022 11.342 19.2206 11.0607 18.9393C10.7794 18.658 10.3978 18.5 10 18.5ZM28 12.5C27.6022 12.5 27.2206 12.658 26.9393 12.9393C26.658 13.2206 26.5 13.6022 26.5 14V18C26.5 18.3978 26.658 18.7794 26.9393 19.0607C27.2206 19.342 27.6022 19.5 28 19.5C28.3978 19.5 28.7794 19.342 29.0607 19.0607C29.342 18.7794 29.5 18.3978 29.5 18V14C29.5 13.6022 29.342 13.2206 29.0607 12.9393C28.7794 12.658 28.3978 12.5 28 12.5Z" fill="black"/>
</svg>
