<svg width="32" height="32" viewBox="0 0 32 32" fill="none" xmlns="http://www.w3.org/2000/svg">
<path d="M30.125 18.7063L21.5737 4.6888L21.565 4.67505C21.3411 4.31353 21.0282 4.0156 20.656 3.80984C20.2839 3.60409 19.8652 3.49741 19.44 3.50005H12.555C12.1298 3.49741 11.711 3.60409 11.3389 3.80984C10.9668 4.0156 10.6538 4.31353 10.43 4.67505L10.4212 4.6888L1.87499 18.7063C1.63789 19.089 1.50855 19.5287 1.50063 19.9789C1.49271 20.429 1.6065 20.873 1.82999 21.2638L5.24999 27.24C5.46824 27.6221 5.78347 27.9398 6.16383 28.1611C6.54419 28.3823 6.97621 28.4992 7.41624 28.5H24.5837C25.0238 28.4992 25.4558 28.3823 25.8361 28.1611C26.2165 27.9398 26.5317 27.6221 26.75 27.24L30.165 21.2638C30.3892 20.8734 30.5039 20.4297 30.4968 19.9795C30.4898 19.5294 30.3613 19.0895 30.125 18.7063ZM26.485 18.5H21.8487L17.75 11.6663L20.015 7.89255L26.485 18.5ZM6.84999 24L5.41999 21.5H8.35124L6.84999 24ZM11.85 21.5H20.15L22.55 25.5H9.44999L11.85 21.5ZM13.65 18.5L16 14.5825L18.35 18.5H13.65ZM23.65 21.5H26.5812L25.15 24L23.65 21.5ZM16 8.75005L14.6487 6.50005H17.3512L16 8.75005ZM11.9862 7.89255L14.25 11.6663L10.1512 18.5H5.51499L11.9862 7.89255Z" fill="black"/>
</svg>
