<svg width="32" height="32" viewBox="0 0 32 32" fill="none" xmlns="http://www.w3.org/2000/svg">
<path opacity="0.08" d="M27 14.1338V20.7863C27.0006 21.0307 26.9116 21.2668 26.75 21.45C25.3375 23.0238 21.8875 26 16 26C10.1125 26 6.665 23.0238 5.25 21.45C5.08837 21.2668 4.99944 21.0307 5 20.7863V14.1338L16 20L27 14.1338Z" fill="black"/>
<path d="M31.4702 11.1175L16.4702 3.11746C16.3255 3.04042 16.1641 3.00012 16.0002 3.00012C15.8363 3.00012 15.6749 3.04042 15.5302 3.11746L0.530176 11.1175C0.370181 11.2027 0.236377 11.3299 0.143076 11.4853C0.0497749 11.6408 0.000488281 11.8187 0.000488281 12C0.000488281 12.1813 0.0497749 12.3591 0.143076 12.5146C0.236377 12.67 0.370181 12.7972 0.530176 12.8825L4.00018 14.7337V20.7862C3.99914 21.2774 4.17991 21.7516 4.50768 22.1175C6.14518 23.9412 9.81392 27 16.0002 27C18.0514 27.0169 20.0872 26.6454 22.0002 25.905V30C22.0002 30.2652 22.1055 30.5195 22.2931 30.7071C22.4806 30.8946 22.735 31 23.0002 31C23.2654 31 23.5197 30.8946 23.7073 30.7071C23.8948 30.5195 24.0002 30.2652 24.0002 30V24.9387C25.3042 24.1859 26.4826 23.234 27.4927 22.1175C27.8204 21.7516 28.0012 21.2774 28.0002 20.7862V14.7337L31.4702 12.8825C31.6302 12.7972 31.764 12.67 31.8573 12.5146C31.9506 12.3591 31.9999 12.1813 31.9999 12C31.9999 11.8187 31.9506 11.6408 31.8573 11.4853C31.764 11.3299 31.6302 11.2027 31.4702 11.1175ZM16.0002 25C10.5914 25 7.41018 22.3575 6.00018 20.7862V15.8L15.5302 20.8825C15.6749 20.9595 15.8363 20.9998 16.0002 20.9998C16.1641 20.9998 16.3255 20.9595 16.4702 20.8825L22.0002 17.9337V23.7262C20.4252 24.4612 18.4402 25 16.0002 25ZM26.0002 20.7812C25.4007 21.4464 24.73 22.0437 24.0002 22.5625V16.8662L26.0002 15.8V20.7812ZM23.5002 14.8675L23.4727 14.8512L16.4727 11.1175C16.2391 10.9982 15.9681 10.9754 15.7179 11.054C15.4677 11.1327 15.2584 11.3065 15.1352 11.5379C15.0119 11.7694 14.9845 12.04 15.0588 12.2915C15.1332 12.543 15.3034 12.7552 15.5327 12.8825L21.3752 16L16.0002 18.8662L3.12518 12L16.0002 5.13371L28.8752 12L23.5002 14.8675Z" fill="black"/>
</svg>
