<svg width="32" height="32" viewBox="0 0 32 32" fill="none" xmlns="http://www.w3.org/2000/svg">
<path d="M22.0002 25.905C22.69 25.6332 23.3585 25.3102 24.0002 24.9387V30C24.0002 30.2652 23.8948 30.5195 23.7073 30.7071C23.5197 30.8946 23.2654 31 23.0002 31C22.735 31 22.4806 30.8946 22.2931 30.7071C22.1055 30.5195 22.0002 30.2652 22.0002 30V25.905ZM23.4702 14.8512L16.4702 11.1175C16.2366 10.9982 15.9656 10.9754 15.7154 11.054C15.4652 11.1327 15.2559 11.3065 15.1327 11.5379C15.0094 11.7694 14.982 12.04 15.0563 12.2915C15.1307 12.543 15.3009 12.7552 15.5302 12.8825L21.3752 16L23.5002 14.8675L23.4702 14.8512ZM31.4702 11.1175L16.4702 3.11746C16.3255 3.04042 16.1641 3.00012 16.0002 3.00012C15.8363 3.00012 15.6749 3.04042 15.5302 3.11746L0.530176 11.1175C0.370181 11.2027 0.236377 11.3299 0.143076 11.4853C0.0497749 11.6408 0.000488281 11.8187 0.000488281 12C0.000488281 12.1813 0.0497749 12.3591 0.143076 12.5146C0.236377 12.67 0.370181 12.7972 0.530176 12.8825L4.00018 14.7337V20.7862C3.99914 21.2774 4.17991 21.7516 4.50768 22.1175C6.14518 23.9412 9.81392 27 16.0002 27C18.0514 27.0169 20.0872 26.6454 22.0002 25.905V16.3337L21.3752 16L16.0002 18.8662L5.47893 13.25L3.12518 12L16.0002 5.13371L28.8752 12L26.5277 13.25H26.5202L23.5002 14.8675C23.6522 14.9552 23.7785 15.0815 23.8663 15.2336C23.954 15.3856 24.0002 15.5581 24.0002 15.7337V24.9387C25.3042 24.1859 26.4826 23.234 27.4927 22.1175C27.8204 21.7516 28.0012 21.2774 28.0002 20.7862V14.7337L31.4702 12.8825C31.6302 12.7972 31.764 12.67 31.8573 12.5146C31.9506 12.3591 31.9999 12.1813 31.9999 12C31.9999 11.8187 31.9506 11.6408 31.8573 11.4853C31.764 11.3299 31.6302 11.2027 31.4702 11.1175Z" fill="black"/>
</svg>
