<svg width="32" height="32" viewBox="0 0 32 32" fill="none" xmlns="http://www.w3.org/2000/svg">
<path d="M31.2248 10.6862L16.7248 2.68623C16.5028 2.56367 16.2534 2.49939 15.9998 2.49939C15.7462 2.49939 15.4968 2.56367 15.2748 2.68623L0.774792 10.6862C0.54034 10.816 0.344915 11.0061 0.208832 11.2369C0.0727488 11.4677 0.000976562 11.7308 0.000976563 11.9987C0.000976562 12.2667 0.0727488 12.5297 0.208832 12.7605C0.344915 12.9914 0.54034 13.1815 0.774792 13.3112L3.49979 14.8112V20.7812C3.49881 21.3958 3.72547 21.9889 4.13604 22.4462C5.82854 24.3375 9.62479 27.5 15.9998 27.5C17.6928 27.5091 19.3779 27.2669 20.9998 26.7812V30C20.9998 30.3978 21.1578 30.7793 21.4391 31.0606C21.7204 31.3419 22.102 31.5 22.4998 31.5C22.8976 31.5 23.2791 31.3419 23.5605 31.0606C23.8418 30.7793 23.9998 30.3978 23.9998 30V25.515C25.4485 24.7148 26.7542 23.6794 27.8635 22.4512C28.2741 21.9939 28.5008 21.4008 28.4998 20.7862V14.8162L31.2248 13.3162C31.4592 13.1865 31.6547 12.9964 31.7908 12.7655C31.9268 12.5347 31.9986 12.2717 31.9986 12.0037C31.9986 11.7358 31.9268 11.4727 31.7908 11.2419C31.6547 11.0111 31.4592 10.821 31.2248 10.6912V10.6862ZM15.9998 5.71373L27.3948 12L23.2498 14.2875C23.242 14.2829 23.2345 14.2779 23.2273 14.2725L16.7273 10.6862C16.3803 10.5069 15.9769 10.47 15.6031 10.5834C15.2293 10.6968 14.9145 10.9516 14.7256 11.2935C14.5367 11.6354 14.4887 12.0376 14.5917 12.4144C14.6947 12.7912 14.9407 13.113 15.2773 13.3112L20.1523 15.9975L15.9998 18.2875L4.60479 12L15.9998 5.71373ZM15.9998 24.5C10.9473 24.5 7.91854 22.1162 6.49979 20.5912V16.4662L15.2748 21.3087C15.4968 21.4313 15.7462 21.4956 15.9998 21.4956C16.2534 21.4956 16.5028 21.4313 16.7248 21.3087L20.9998 18.955V23.6087C19.4026 24.2124 17.7072 24.5146 15.9998 24.5ZM25.4998 20.5912C25.0398 21.0842 24.5379 21.5363 23.9998 21.9425V17.2987L25.4998 16.4712V20.5912Z" fill="black"/>
</svg>
