<svg width="32" height="32" viewBox="0 0 32 32" fill="none" xmlns="http://www.w3.org/2000/svg">
<path d="M31.3526 11.3388L16.3526 3.33877C16.2443 3.28034 16.1231 3.24976 16.0001 3.24976C15.877 3.24976 15.7559 3.28034 15.6476 3.33877L0.64756 11.3388C0.527876 11.4028 0.427821 11.4982 0.358064 11.6146C0.288308 11.7311 0.251465 11.8643 0.251465 12C0.251465 12.1358 0.288308 12.269 0.358064 12.3854C0.427821 12.5019 0.527876 12.5972 0.64756 12.6613L4.25006 14.5838V20.7863C4.24995 21.2159 4.4079 21.6306 4.69381 21.9513C6.30256 23.7425 9.91131 26.75 16.0001 26.75C18.1441 26.7701 20.27 26.3564 22.2501 25.5338V30C22.2501 30.1989 22.3291 30.3897 22.4697 30.5303C22.6104 30.671 22.8011 30.75 23.0001 30.75C23.199 30.75 23.3897 30.671 23.5304 30.5303C23.671 30.3897 23.7501 30.1989 23.7501 30V24.7938C25.0812 24.0441 26.2822 23.0837 27.3063 21.95C27.5929 21.6302 27.7509 21.2157 27.7501 20.7863V14.5838L31.3526 12.6613C31.4722 12.5972 31.5723 12.5019 31.6421 12.3854C31.7118 12.269 31.7487 12.1358 31.7487 12C31.7487 11.8643 31.7118 11.7311 31.6421 11.6146C31.5723 11.4982 31.4722 11.4028 31.3526 11.3388ZM16.0001 25.25C10.5001 25.25 7.25006 22.555 5.81006 20.9488C5.77133 20.9035 5.75006 20.8458 5.75006 20.7863V15.3838L15.6476 20.6613C15.7561 20.719 15.8771 20.7493 16.0001 20.7493C16.123 20.7493 16.2441 20.719 16.3526 20.6613L22.2501 17.5163V23.8913C20.6251 24.6688 18.5563 25.25 16.0001 25.25ZM26.2501 20.7863C26.2501 20.8458 26.2288 20.9035 26.1901 20.9488C25.4697 21.7468 24.6496 22.4488 23.7501 23.0375V16.7163L26.2501 15.3838V20.7863ZM23.4813 15.1613C23.4426 15.1277 23.4008 15.0979 23.3563 15.0725L16.3563 11.34C16.1819 11.2563 15.9819 11.2431 15.7981 11.3034C15.6142 11.3636 15.4608 11.4926 15.3698 11.6633C15.2788 11.834 15.2572 12.0333 15.3097 12.2195C15.3622 12.4057 15.4846 12.5644 15.6513 12.6625L21.9063 16L16.0001 19.15L2.59381 12L16.0001 4.85002L29.4063 12L23.4813 15.1613Z" fill="black"/>
</svg>
