<svg width="32" height="32" viewBox="0 0 32 32" fill="none" xmlns="http://www.w3.org/2000/svg">
<path d="M2.5 13.5C2.5 13.1022 2.65804 12.7206 2.93934 12.4393C3.22064 12.158 3.60218 12 4 12H13.5C13.8978 12 14.2794 12.158 14.5607 12.4393C14.842 12.7206 15 13.1022 15 13.5C15 13.8978 14.842 14.2794 14.5607 14.5607C14.2794 14.842 13.8978 15 13.5 15H4C3.60218 15 3.22064 14.842 2.93934 14.5607C2.65804 14.2794 2.5 13.8978 2.5 13.5ZM28 12H18.5C18.1022 12 17.7206 12.158 17.4393 12.4393C17.158 12.7206 17 13.1022 17 13.5C17 13.8978 17.158 14.2794 17.4393 14.5607C17.7206 14.842 18.1022 15 18.5 15H28C28.3978 15 28.7794 14.842 29.0607 14.5607C29.342 14.2794 29.5 13.8978 29.5 13.5C29.5 13.1022 29.342 12.7206 29.0607 12.4393C28.7794 12.158 28.3978 12 28 12ZM8.5 17H4C3.60218 17 3.22064 17.158 2.93934 17.4393C2.65804 17.7206 2.5 18.1022 2.5 18.5C2.5 18.8978 2.65804 19.2794 2.93934 19.5607C3.22064 19.842 3.60218 20 4 20H8.5C8.89782 20 9.27936 19.842 9.56066 19.5607C9.84196 19.2794 10 18.8978 10 18.5C10 18.1022 9.84196 17.7206 9.56066 17.4393C9.27936 17.158 8.89782 17 8.5 17ZM28 17H23.5C23.1022 17 22.7206 17.158 22.4393 17.4393C22.158 17.7206 22 18.1022 22 18.5C22 18.8978 22.158 19.2794 22.4393 19.5607C22.7206 19.842 23.1022 20 23.5 20H28C28.3978 20 28.7794 19.842 29.0607 19.5607C29.342 19.2794 29.5 18.8978 29.5 18.5C29.5 18.1022 29.342 17.7206 29.0607 17.4393C28.7794 17.158 28.3978 17 28 17ZM12 18.5C12 18.8978 12.158 19.2794 12.4393 19.5607C12.7206 19.842 13.1022 20 13.5 20H18.5C18.8978 20 19.2794 19.842 19.5607 19.5607C19.842 19.2794 20 18.8978 20 18.5C20 18.1022 19.842 17.7206 19.5607 17.4393C19.2794 17.158 18.8978 17 18.5 17H13.5C13.1022 17 12.7206 17.158 12.4393 17.4393C12.158 17.7206 12 18.1022 12 18.5ZM6.5 22H4C3.60218 22 3.22064 22.158 2.93934 22.4393C2.65804 22.7206 2.5 23.1022 2.5 23.5C2.5 23.8978 2.65804 24.2794 2.93934 24.5607C3.22064 24.842 3.60218 25 4 25H6.5C6.89782 25 7.27936 24.842 7.56066 24.5607C7.84196 24.2794 8 23.8978 8 23.5C8 23.1022 7.84196 22.7206 7.56066 22.4393C7.27936 22.158 6.89782 22 6.5 22ZM13.5 22H11.5C11.1022 22 10.7206 22.158 10.4393 22.4393C10.158 22.7206 10 23.1022 10 23.5C10 23.8978 10.158 24.2794 10.4393 24.5607C10.7206 24.842 11.1022 25 11.5 25H13.5C13.8978 25 14.2794 24.842 14.5607 24.5607C14.842 24.2794 15 23.8978 15 23.5C15 23.1022 14.842 22.7206 14.5607 22.4393C14.2794 22.158 13.8978 22 13.5 22ZM20.5 22H18.5C18.1022 22 17.7206 22.158 17.4393 22.4393C17.158 22.7206 17 23.1022 17 23.5C17 23.8978 17.158 24.2794 17.4393 24.5607C17.7206 24.842 18.1022 25 18.5 25H20.5C20.8978 25 21.2794 24.842 21.5607 24.5607C21.842 24.2794 22 23.8978 22 23.5C22 23.1022 21.842 22.7206 21.5607 22.4393C21.2794 22.158 20.8978 22 20.5 22ZM28 22H25.5C25.1022 22 24.7206 22.158 24.4393 22.4393C24.158 22.7206 24 23.1022 24 23.5C24 23.8978 24.158 24.2794 24.4393 24.5607C24.7206 24.842 25.1022 25 25.5 25H28C28.3978 25 28.7794 24.842 29.0607 24.5607C29.342 24.2794 29.5 23.8978 29.5 23.5C29.5 23.1022 29.342 22.7206 29.0607 22.4393C28.7794 22.158 28.3978 22 28 22ZM4 10H28C28.3978 10 28.7794 9.84196 29.0607 9.56066C29.342 9.27936 29.5 8.89782 29.5 8.5C29.5 8.10218 29.342 7.72064 29.0607 7.43934C28.7794 7.15804 28.3978 7 28 7H4C3.60218 7 3.22064 7.15804 2.93934 7.43934C2.65804 7.72064 2.5 8.10218 2.5 8.5C2.5 8.89782 2.65804 9.27936 2.93934 9.56066C3.22064 9.84196 3.60218 10 4 10Z" fill="black"/>
</svg>
