<svg width="32" height="32" viewBox="0 0 32 32" fill="none" xmlns="http://www.w3.org/2000/svg">
<path d="M7.10989 3.99132C6.97816 3.84283 6.81827 3.72196 6.63949 3.63572C6.46071 3.54949 6.26658 3.49959 6.06837 3.48892C5.87016 3.47826 5.67181 3.50704 5.48481 3.57361C5.2978 3.64017 5.12587 3.74318 4.97897 3.87668C4.83207 4.01018 4.71313 4.1715 4.62904 4.35131C4.54495 4.53111 4.49739 4.72582 4.4891 4.92414C4.48081 5.12247 4.51197 5.32046 4.58077 5.50665C4.64957 5.69285 4.75464 5.86353 4.88989 6.00882L5.43614 6.61007C5.15947 6.72228 4.92258 6.91449 4.75579 7.16212C4.589 7.40974 4.49989 7.70151 4.49989 8.00007V18.0001C4.49915 20.2156 5.13844 22.3843 6.34086 24.2451C7.54329 26.106 9.25767 27.58 11.2778 28.4897C13.298 29.3994 15.538 29.7063 17.7284 29.3732C19.9188 29.0402 21.9664 28.0816 23.6249 26.6126L24.8949 28.0088C25.1638 28.2977 25.5358 28.469 25.9302 28.4855C26.3245 28.5019 26.7095 28.3623 27.0016 28.0968C27.2937 27.8314 27.4694 27.4615 27.4906 27.0673C27.5118 26.6732 27.3768 26.2866 27.1149 25.9913L7.10989 3.99132ZM7.52364 18.6363C9.37275 18.9767 11.0573 19.9192 12.3149 21.317C13.5724 22.7147 14.3323 24.4891 14.4761 26.3638C12.627 26.0234 10.9424 25.0809 9.68489 23.6832C8.42734 22.2854 7.66745 20.511 7.52364 18.6363ZM15.9999 21.3263C15.1209 19.7805 13.8962 18.459 12.4217 17.4652C10.9471 16.4714 9.26257 15.8322 7.49989 15.5976V9.63132C7.79239 9.68414 8.08195 9.75215 8.36739 9.83507L17.2211 19.5726C16.7608 20.1182 16.3519 20.7053 15.9999 21.3263ZM17.5236 26.3626C17.6506 24.7116 18.2552 23.1333 19.2636 21.8201L21.6011 24.3913C20.4462 25.4064 19.0366 26.0879 17.5236 26.3626ZM27.4999 8.00007V18.0001C27.4984 18.5582 27.4566 19.1155 27.3749 19.6676C27.3233 20.0241 27.1451 20.3501 26.8728 20.586C26.6006 20.822 26.2526 20.9521 25.8924 20.9526C25.8196 20.9521 25.7469 20.9467 25.6749 20.9363C25.2812 20.8791 24.9264 20.6679 24.6884 20.3491C24.4505 20.0303 24.349 19.63 24.4061 19.2363C24.4349 19.0376 24.4561 18.8376 24.4711 18.6363C24.3761 18.6538 24.2799 18.6726 24.1849 18.6926C23.9906 18.7393 23.7889 18.7467 23.5918 18.7143C23.3946 18.682 23.2058 18.6106 23.0366 18.5043C22.8674 18.398 22.7211 18.259 22.6064 18.0954C22.4916 17.9318 22.4107 17.747 22.3684 17.5517C22.3261 17.3564 22.3233 17.1546 22.36 16.9582C22.3968 16.7618 22.4724 16.5747 22.5825 16.4079C22.6925 16.2411 22.8348 16.098 23.0009 15.987C23.1671 15.8759 23.3537 15.7992 23.5499 15.7613C23.8611 15.6938 24.1749 15.6363 24.4949 15.5976V9.63382C22.6201 9.97 20.9125 10.9261 19.6461 12.3488C19.5148 12.4959 19.3558 12.6157 19.1782 12.7013C19.0006 12.7869 18.8079 12.8367 18.611 12.8479C18.2134 12.8704 17.8232 12.734 17.5261 12.4688C17.2291 12.2036 17.0496 11.8312 17.0271 11.4337C17.0046 11.0361 17.1409 10.6459 17.4061 10.3488C18.0479 9.63143 18.7773 8.99769 19.5774 8.46257C18.5524 6.59632 16.9136 5.33757 15.9986 4.74257C15.2982 5.19968 14.6464 5.72744 14.0536 6.31757C13.7727 6.59936 13.3913 6.758 12.9933 6.75859C12.5954 6.75917 12.2136 6.60166 11.9318 6.32069C11.65 6.03973 11.4913 5.65833 11.4907 5.2604C11.4902 4.86247 11.6477 4.48061 11.9286 4.19882C12.9309 3.19008 14.0761 2.33425 15.3274 1.65882C15.5358 1.55454 15.7656 1.50024 15.9986 1.50024C16.2317 1.50024 16.4615 1.55454 16.6699 1.65882C16.8361 1.74132 20.3399 3.53382 22.2624 7.12632C23.4649 6.71194 24.728 6.50031 25.9999 6.50007C26.3977 6.50007 26.7792 6.6581 27.0605 6.93941C27.3419 7.22071 27.4999 7.60224 27.4999 8.00007Z" fill="black"/>
</svg>
