<svg width="32" height="32" viewBox="0 0 32 32" fill="none" xmlns="http://www.w3.org/2000/svg">
<path d="M26 6.50004C24.7281 6.49953 23.465 6.71075 22.2625 7.12504C20.3388 3.53004 16.8375 1.74254 16.6712 1.66004C16.4629 1.55576 16.233 1.50146 16 1.50146C15.767 1.50146 15.5371 1.55576 15.3287 1.66004C15.1625 1.74254 11.6613 3.53504 9.73625 7.12504C8.53419 6.71063 7.27149 6.49941 6 6.50004C5.60218 6.50004 5.22064 6.65807 4.93934 6.93938C4.65804 7.22068 4.5 7.60221 4.5 8.00004V18C4.5 21.05 5.7116 23.9751 7.86827 26.1318C10.0249 28.2884 12.95 29.5 16 29.5C19.05 29.5 21.9751 28.2884 24.1317 26.1318C26.2884 23.9751 27.5 21.05 27.5 18V8.00004C27.5 7.60221 27.342 7.22068 27.0607 6.93938C26.7794 6.65807 26.3978 6.50004 26 6.50004ZM7.5 9.63254C9.33059 9.9638 11.0024 10.8852 12.2601 12.256C13.5178 13.6267 14.2922 15.3715 14.465 17.2238C12.6412 15.2348 10.1754 13.9514 7.5 13.5988V9.63254ZM14.5 26.3675C12.5383 26.0128 10.7632 24.9811 9.484 23.452C8.20484 21.923 7.50273 19.9936 7.5 18V16.6325C9.46174 16.9872 11.2368 18.019 12.516 19.548C13.7952 21.0771 14.4973 23.0065 14.5 25V26.3675ZM12.4213 8.46379C13.4462 6.59629 15.0863 5.33879 16 4.74254C16.915 5.34129 18.5538 6.59629 19.5788 8.46379C18.1052 9.45956 16.8807 10.7812 16 12.3263C15.1189 10.7815 13.8945 9.45994 12.4213 8.46379ZM24.5 18C24.4973 19.9936 23.7952 21.923 22.516 23.452C21.2368 24.9811 19.4617 26.0128 17.5 26.3675V25C17.5027 23.0065 18.2048 21.0771 19.484 19.548C20.7632 18.019 22.5383 16.9872 24.5 16.6325V18ZM24.5 13.5975C21.8246 13.9502 19.3588 15.2336 17.535 17.2225C17.7081 15.3705 18.4826 13.626 19.7403 12.2555C20.9979 10.8849 22.6696 9.96374 24.5 9.63254V13.5975Z" fill="black"/>
</svg>
