<svg width="32" height="32" viewBox="0 0 32 32" fill="none" xmlns="http://www.w3.org/2000/svg">
<path d="M25.0002 19.25C24.1057 19.2496 23.2407 19.5703 22.5627 20.1538L19.3602 17.6625C19.6171 17.146 19.7506 16.5769 19.7502 16C19.7499 15.8496 19.7407 15.6994 19.7227 15.55L21.7502 14.875C22.2041 15.6635 22.9292 16.2601 23.7903 16.5537C24.6515 16.8472 25.59 16.8176 26.431 16.4705C27.272 16.1234 27.9581 15.4824 28.3615 14.6669C28.7648 13.8514 28.858 12.917 28.6236 12.038C28.3892 11.1589 27.8431 10.395 27.0873 9.88863C26.3314 9.38228 25.4172 9.168 24.515 9.28571C23.6129 9.40342 22.7843 9.8451 22.1836 10.5285C21.583 11.2118 21.2512 12.0902 21.2502 13C21.2505 13.1504 21.2597 13.3007 21.2777 13.45L19.2502 14.125C18.8535 13.4339 18.2464 12.8876 17.5174 12.5659C16.7884 12.2441 15.9756 12.1636 15.1977 12.3363L14.1802 10.0488C14.9367 9.50931 15.4659 8.70823 15.6654 7.80078C15.8649 6.89333 15.7204 5.94413 15.26 5.13714C14.7995 4.33014 14.0559 3.72282 13.1731 3.43288C12.2904 3.14293 11.3315 3.19101 10.4822 3.56779C9.6329 3.94456 8.95371 4.62322 8.57627 5.47222C8.19883 6.32122 8.15 7.28011 8.43926 8.16306C8.72851 9.04601 9.33525 9.79014 10.1419 10.2512C10.9485 10.7123 11.8976 10.8576 12.8052 10.6588L13.8227 12.9463C13.0624 13.487 12.5317 14.2923 12.3347 15.2042C12.1376 16.1161 12.2885 17.0687 12.7577 17.875L9.25021 21C8.50433 20.4416 7.5777 20.1801 6.64994 20.266C5.72218 20.352 4.85938 20.7793 4.22879 21.4653C3.59821 22.1512 3.24475 23.0468 3.23695 23.9785C3.22914 24.9102 3.56755 25.8116 4.18656 26.508C4.80557 27.2044 5.66109 27.6461 6.58728 27.7476C7.51347 27.8491 8.44435 27.6031 9.19947 27.0573C9.95459 26.5114 10.4802 25.7047 10.6743 24.7934C10.8684 23.8821 10.7173 22.9312 10.2502 22.125L13.7502 19C14.4315 19.5121 15.2673 19.776 16.1192 19.748C16.971 19.7201 17.7877 19.4019 18.434 18.8463L21.6365 21.3375C21.2751 22.0681 21.1616 22.8966 21.3132 23.6974C21.4648 24.4983 21.8732 25.228 22.4766 25.776C23.0799 26.324 23.8454 26.6605 24.6572 26.7345C25.4689 26.8086 26.2826 26.6161 26.9752 26.1863C27.6677 25.7565 28.2014 25.1128 28.4954 24.3526C28.7894 23.5923 28.8277 22.757 28.6044 21.9731C28.3812 21.1892 27.9087 20.4993 27.2584 20.008C26.608 19.5166 25.8153 19.2505 25.0002 19.25ZM25.0002 10.75C25.4452 10.75 25.8802 10.882 26.2502 11.1292C26.6202 11.3765 26.9086 11.7279 27.0789 12.139C27.2492 12.5501 27.2938 13.0025 27.207 13.439C27.1202 13.8754 26.9059 14.2763 26.5912 14.591C26.2765 14.9057 25.8756 15.12 25.4392 15.2068C25.0027 15.2936 24.5503 15.2491 24.1392 15.0788C23.728 14.9085 23.3766 14.6201 23.1294 14.2501C22.8822 13.88 22.7502 13.445 22.7502 13C22.7502 12.4033 22.9873 11.831 23.4092 11.409C23.8312 10.9871 24.4035 10.75 25.0002 10.75ZM9.75021 7.00003C9.75021 6.55502 9.88216 6.12 10.1294 5.74999C10.3766 5.37998 10.728 5.09159 11.1392 4.9213C11.5503 4.751 12.0027 4.70644 12.4392 4.79326C12.8756 4.88008 13.2765 5.09437 13.5912 5.40904C13.9059 5.7237 14.1202 6.12461 14.207 6.56107C14.2938 6.99753 14.2492 7.44993 14.0789 7.86106C13.9086 8.2722 13.6202 8.6236 13.2502 8.87083C12.8802 9.11807 12.4452 9.25003 12.0002 9.25003C11.4035 9.25003 10.8312 9.01297 10.4092 8.59102C9.98726 8.16906 9.75021 7.59676 9.75021 7.00003ZM7.00021 26.25C6.5552 26.25 6.12018 26.1181 5.75017 25.8708C5.38016 25.6236 5.09177 25.2722 4.92148 24.8611C4.75118 24.4499 4.70662 23.9975 4.79344 23.5611C4.88025 23.1246 5.09455 22.7237 5.40922 22.409C5.72388 22.0944 6.12479 21.8801 6.56125 21.7933C6.99771 21.7064 7.45011 21.751 7.86124 21.9213C8.27238 22.0916 8.62378 22.38 8.87101 22.75C9.11825 23.12 9.25021 23.555 9.25021 24C9.25021 24.5968 9.01315 25.1691 8.5912 25.591C8.16924 26.013 7.59694 26.25 7.00021 26.25ZM16.0002 18.25C15.5552 18.25 15.1202 18.1181 14.7502 17.8708C14.3802 17.6236 14.0918 17.2722 13.9215 16.8611C13.7512 16.4499 13.7066 15.9975 13.7934 15.5611C13.8803 15.1246 14.0945 14.7237 14.4092 14.409C14.7239 14.0944 15.1248 13.8801 15.5613 13.7933C15.9977 13.7064 16.4501 13.751 16.8612 13.9213C17.2724 14.0916 17.6238 14.38 17.871 14.75C18.1182 15.12 18.2502 15.555 18.2502 16C18.2502 16.5968 18.0132 17.1691 17.5912 17.591C17.1692 18.013 16.5969 18.25 16.0002 18.25ZM25.0002 25.25C24.5552 25.25 24.1202 25.1181 23.7502 24.8708C23.3802 24.6236 23.0918 24.2722 22.9215 23.8611C22.7512 23.4499 22.7066 22.9975 22.7934 22.5611C22.8803 22.1246 23.0945 21.7237 23.4092 21.409C23.7239 21.0944 24.1248 20.8801 24.5613 20.7933C24.9977 20.7064 25.4501 20.751 25.8612 20.9213C26.2724 21.0916 26.6238 21.38 26.871 21.75C27.1182 22.12 27.2502 22.555 27.2502 23C27.2502 23.5968 27.0132 24.1691 26.5912 24.591C26.1692 25.013 25.5969 25.25 25.0002 25.25Z" fill="black"/>
</svg>
