<svg width="32" height="32" viewBox="0 0 32 32" fill="none" xmlns="http://www.w3.org/2000/svg">
<path d="M30.7075 5.29253L26.7075 1.29253C26.5381 1.12332 26.3135 1.02053 26.0747 1.00285C25.8359 0.985174 25.5987 1.05378 25.4062 1.1962C25.2137 1.33861 25.0786 1.54539 25.0257 1.77892C24.9727 2.01245 25.0053 2.25724 25.1175 2.46878L17.565 10.02C14.7163 8.53753 11.5263 8.66128 9.59377 10.5925C9.08378 11.1047 8.68429 11.7161 8.42002 12.3888C8.33886 12.5712 8.20646 12.726 8.03891 12.8345C7.87136 12.9431 7.67589 13.0006 7.47627 13C5.65252 13.0613 4.06877 13.715 2.89502 14.8888C1.38502 16.4025 0.750017 18.575 1.09252 21.0088C1.42502 23.3375 2.63377 25.6438 4.50002 27.5C6.36627 29.3563 8.66752 30.57 11 30.9025C11.418 30.965 11.8399 30.9976 12.2625 31C14.1775 31 15.8663 30.3463 17.1075 29.105C18.2813 27.9313 18.935 26.3475 18.9963 24.5238C18.9961 24.3237 19.0541 24.128 19.1633 23.9604C19.2725 23.7928 19.4282 23.6606 19.6113 23.58C20.2841 23.3159 20.8955 22.9164 21.4075 22.4063C23.3388 20.4738 23.4625 17.2813 21.98 14.435L29.5313 6.88253C29.7428 6.99476 29.9876 7.02735 30.2211 6.97438C30.4547 6.92141 30.6614 6.78639 30.8039 6.59388C30.9463 6.40136 31.0149 6.16414 30.9972 5.92533C30.9795 5.68651 30.8767 5.46197 30.7075 5.29253ZM11.7075 25.7063C11.52 25.8937 11.2657 25.9989 11.0006 25.9989C10.7355 25.9989 10.4813 25.8937 10.2938 25.7063L6.29377 21.7063C6.10629 21.5186 6.00104 21.2642 6.00115 20.999C6.00127 20.7337 6.10675 20.4794 6.29439 20.2919C6.48203 20.1044 6.73646 19.9992 7.00171 19.9993C7.26696 19.9994 7.52129 20.1049 7.70877 20.2925L11.7088 24.2925C11.896 24.4802 12.001 24.7346 12.0008 24.9997C12.0006 25.2648 11.8951 25.5189 11.7075 25.7063ZM16.975 19.9738C16.4856 20.4634 15.862 20.7969 15.183 20.932C14.504 21.0672 13.8002 20.998 13.1606 20.7331C12.521 20.4683 11.9742 20.0196 11.5896 19.444C11.205 18.8684 10.9996 18.1917 10.9996 17.4994C10.9996 16.8071 11.205 16.1304 11.5896 15.5548C11.9742 14.9792 12.521 14.5306 13.1606 14.2657C13.8002 14.0008 14.504 13.9316 15.183 14.0668C15.862 14.2019 16.4856 14.5354 16.975 15.025C17.6311 15.6814 17.9996 16.5714 17.9996 17.4994C17.9996 18.4274 17.6311 19.3174 16.975 19.9738ZM20.8575 12.7238C20.6221 12.4327 20.3717 12.154 20.1075 11.8888C19.8421 11.6242 19.563 11.3739 19.2713 11.1388L22 8.41378L23.5863 10L20.8575 12.7238ZM25 8.58503L23.415 7.00003L26.5 3.91378L28.0863 5.50003L25 8.58503Z" fill="black"/>
</svg>
