<svg width="32" height="32" viewBox="0 0 32 32" fill="none" xmlns="http://www.w3.org/2000/svg">
<path d="M11.5613 23.4408C11.7008 23.5803 11.8115 23.7459 11.887 23.9282C11.9625 24.1105 12.0014 24.3059 12.0014 24.5033C12.0014 24.7006 11.9625 24.896 11.887 25.0783C11.8115 25.2606 11.7008 25.4262 11.5613 25.5658C11.4217 25.7053 11.2561 25.816 11.0738 25.8915C10.8915 25.967 10.6961 26.0059 10.4988 26.0059C10.3014 26.0059 10.106 25.967 9.92374 25.8915C9.74144 25.816 9.57579 25.7053 9.43626 25.5658L6.43626 22.5658C6.15447 22.284 5.99616 21.9018 5.99616 21.5033C5.99616 21.1047 6.15447 20.7226 6.43626 20.4408C6.71805 20.159 7.10025 20.0007 7.49876 20.0007C7.89728 20.0007 8.27947 20.159 8.56126 20.4408L11.5613 23.4408ZM14 15.0033C13.4067 15.0033 12.8266 15.1792 12.3333 15.5089C11.84 15.8385 11.4554 16.307 11.2284 16.8552C11.0013 17.4034 10.9419 18.0066 11.0577 18.5885C11.1734 19.1705 11.4591 19.705 11.8787 20.1246C12.2982 20.5441 12.8328 20.8299 13.4147 20.9456C13.9967 21.0614 14.5999 21.002 15.1481 20.7749C15.6962 20.5478 16.1648 20.1633 16.4944 19.67C16.8241 19.1766 17 18.5966 17 18.0033C17 17.2076 16.6839 16.4445 16.1213 15.8819C15.5587 15.3193 14.7957 15.0033 14 15.0033ZM31.5613 7.56326C31.3342 7.79064 31.0402 7.93912 30.7225 7.98683C30.4047 8.03454 30.08 7.97895 29.7963 7.82826L22.75 14.8783C23.0762 15.6233 23.3016 16.4086 23.42 17.2133C23.7338 19.4108 23.145 21.382 21.7613 22.7658C21.2011 23.325 20.5318 23.7628 19.795 24.052C19.7026 24.0981 19.6254 24.1697 19.5724 24.2583C19.5195 24.3469 19.4931 24.4488 19.4963 24.552C19.43 26.5033 18.7263 28.2045 17.4613 29.4695C16.125 30.7995 14.3125 31.5033 12.2663 31.5033C11.8158 31.5024 11.3659 31.4698 10.92 31.4058C8.48626 31.0583 6.07876 29.7995 4.14126 27.862C2.20376 25.9245 0.945011 23.517 0.597511 21.0833C0.222511 18.4895 0.917511 16.1658 2.54126 14.542C3.80626 13.277 5.50751 12.5733 7.45876 12.5033C7.56194 12.5065 7.66388 12.48 7.75249 12.4271C7.84111 12.3741 7.91269 12.2969 7.95876 12.2045C8.2473 11.4694 8.68383 10.8014 9.24126 10.242C10.625 8.85826 12.5963 8.26951 14.7938 8.58326C15.5972 8.70204 16.3811 8.92736 17.125 9.25326L24.175 2.20701C24.0053 1.8895 23.9555 1.52156 24.0346 1.17036C24.1137 0.819156 24.3165 0.508121 24.6059 0.29404C24.8954 0.079959 25.2522 -0.022887 25.6111 0.00427887C25.9701 0.0314447 26.3073 0.18681 26.5613 0.44201L31.5613 5.44201C31.8425 5.72331 32.0006 6.10483 32.0006 6.50264C32.0006 6.90044 31.8425 7.28196 31.5613 7.56326ZM27.625 5.75326L26.25 4.37826L23.875 6.75326L25.25 8.12826L27.625 5.75326ZM18.3363 13.6633C16.9413 12.2645 15.1738 11.5033 13.6675 11.5033C12.7563 11.5033 11.9413 11.7795 11.3625 12.3595C11.0949 12.6314 10.8864 12.9557 10.75 13.312C10.4896 13.9483 10.0489 14.4947 9.4822 14.884C8.91549 15.2732 8.24739 15.4885 7.56001 15.5033C6.73876 15.5308 5.56876 15.7533 4.66251 16.6608C3.72251 17.6008 3.33376 19.0195 3.56751 20.6608C3.82376 22.457 4.78126 24.262 6.26251 25.7433C7.74376 27.2245 9.54876 28.182 11.345 28.4383C12.9813 28.672 14.4 28.2833 15.345 27.3433C16.2513 26.437 16.47 25.267 16.5025 24.4458C16.5166 23.7582 16.7312 23.0898 17.1201 22.5226C17.5089 21.9555 18.055 21.5142 18.6913 21.2533C19.0466 21.1149 19.3696 20.9047 19.64 20.6358C21.1788 19.102 20.5838 15.907 18.34 13.6633H18.3363ZM21.125 12.262L23.125 10.2533L21.75 8.87826L19.7413 10.8783C19.9913 11.087 20.2288 11.3058 20.4613 11.537C20.6938 11.7683 20.9113 12.0145 21.125 12.262Z" fill="black"/>
</svg>
