<svg width="32" height="32" viewBox="0 0 32 32" fill="none" xmlns="http://www.w3.org/2000/svg">
<path d="M28.4875 19.09L23.525 20.895L19.0575 19.1075C18.6996 18.9642 18.3004 18.9642 17.9425 19.1075L13.5 20.885L9.05751 19.1075C8.71512 18.9703 8.3342 18.9641 7.98751 19.09L2.48751 21.09C2.30234 21.1573 2.13225 21.2604 1.98694 21.3935C1.84162 21.5265 1.72394 21.6869 1.6406 21.8654C1.47228 22.2259 1.45409 22.6385 1.59001 23.0125C1.72593 23.3865 2.00484 23.6911 2.36538 23.8594C2.72592 24.0277 3.13855 24.0459 3.51251 23.91L4.52751 23.5413C4.66345 24.8988 5.29845 26.1576 6.3095 27.0738C7.32054 27.9899 8.63564 28.4981 10 28.5H22C23.4582 28.4983 24.8562 27.9184 25.8873 26.8873C26.9184 25.8562 27.4984 24.4582 27.5 23V22.6413L29.5125 21.91C29.6977 21.8427 29.8678 21.7396 30.0131 21.6065C30.1584 21.4735 30.2761 21.3131 30.3594 21.1346C30.4428 20.9561 30.4901 20.7629 30.4988 20.5661C30.5075 20.3693 30.4773 20.1727 30.41 19.9875C30.3427 19.8023 30.2396 19.6322 30.1066 19.4869C29.9735 19.3416 29.8132 19.2239 29.6346 19.1406C29.4561 19.0572 29.2629 19.0099 29.0661 19.0012C28.8693 18.9925 28.6727 19.0227 28.4875 19.09ZM22 25.5H10C9.33697 25.5 8.70108 25.2366 8.23224 24.7678C7.7634 24.2989 7.50001 23.663 7.50001 23V22.46L8.47501 22.105L12.9425 23.8925C13.3004 24.0358 13.6996 24.0358 14.0575 23.8925L18.5 22.115L22.9425 23.8925C23.2849 24.0297 23.6658 24.0359 24.0125 23.91L24.3738 23.7775C24.21 24.2781 23.8923 24.7141 23.466 25.0234C23.0397 25.3327 22.5267 25.4995 22 25.5ZM1.50001 16C1.50001 15.6022 1.65804 15.2206 1.93935 14.9393C2.22065 14.658 2.60218 14.5 3.00001 14.5H29C29.3978 14.5 29.7794 14.658 30.0607 14.9393C30.342 15.2206 30.5 15.6022 30.5 16C30.5 16.3978 30.342 16.7794 30.0607 17.0607C29.7794 17.342 29.3978 17.5 29 17.5H3.00001C2.60218 17.5 2.22065 17.342 1.93935 17.0607C1.65804 16.7794 1.50001 16.3978 1.50001 16ZM6.02501 13H25.975C26.3736 12.9997 26.7665 12.9057 27.1222 12.7257C27.4778 12.5458 27.7862 12.2847 28.0225 11.9637C28.2533 11.651 28.4064 11.2877 28.469 10.9041C28.5316 10.5205 28.5019 10.1274 28.3825 9.7575C27.015 5.485 21.9238 2.5 16 2.5C10.0763 2.5 4.98626 5.48375 3.61751 9.75625C3.49779 10.1261 3.468 10.5192 3.5306 10.9029C3.59321 11.2866 3.74642 11.6499 3.97751 11.9625C4.21339 12.284 4.52167 12.5455 4.87738 12.7257C5.23309 12.906 5.62624 12.9999 6.02501 13ZM16 5.5C20.2125 5.5 23.9513 7.35625 25.25 10H6.75001C8.05001 7.35625 11.7888 5.5 16 5.5Z" fill="black"/>
</svg>
