<svg width="32" height="32" viewBox="0 0 32 32" fill="none" xmlns="http://www.w3.org/2000/svg">
<path d="M31.2726 13.1463L23.3389 5.15626C20.9928 2.81509 17.8139 1.50024 14.4995 1.50024C11.1851 1.50024 8.00615 2.81509 5.66012 5.15626L5.64387 5.17376L3.92137 6.95126C3.64455 7.23703 3.49259 7.62107 3.49892 8.01888C3.50525 8.41669 3.66935 8.79569 3.95512 9.07251C4.24089 9.34933 4.62492 9.50129 5.02274 9.49496C5.42055 9.48863 5.79955 9.32453 6.07637 9.03876L7.79012 7.27001C8.35748 6.70284 8.99467 6.21013 9.68637 5.80376L14.8751 11L3.23137 22.645C2.99912 22.8772 2.81488 23.1528 2.68918 23.4562C2.56348 23.7596 2.49878 24.0847 2.49878 24.4131C2.49878 24.7415 2.56348 25.0667 2.68918 25.3701C2.81488 25.6735 2.99912 25.9491 3.23137 26.1813L5.81762 28.7675C6.28644 29.2362 6.92221 29.4995 7.58512 29.4995C8.24803 29.4995 8.8838 29.2362 9.35262 28.7675L21.0001 17.125L21.1889 17.3138L24.1451 20.2713C24.3773 20.5035 24.6529 20.6878 24.9563 20.8135C25.2597 20.9392 25.5849 21.0039 25.9132 21.0039C26.2416 21.0039 26.5668 20.9392 26.8702 20.8135C27.1736 20.6878 27.4492 20.5035 27.6814 20.2713L31.2676 16.6838C31.5004 16.4519 31.6852 16.1764 31.8114 15.8731C31.9377 15.5698 32.0029 15.2446 32.0033 14.916C32.0038 14.5875 31.9395 14.2621 31.8141 13.9584C31.6887 13.6548 31.5047 13.3788 31.2726 13.1463ZM7.58512 26.2925L5.71012 24.4175L13.5001 16.625L15.3751 18.5L7.58512 26.2925ZM17.5001 16.375L15.6251 14.5L18.0639 12.0613C18.2037 11.9219 18.3147 11.7563 18.3904 11.574C18.4661 11.3917 18.5051 11.1962 18.5051 10.9988C18.5051 10.8013 18.4661 10.6059 18.3904 10.4235C18.3147 10.2412 18.2037 10.0756 18.0639 9.93626L12.7801 4.65501C14.2929 4.37545 15.8509 4.46774 17.3201 4.92393C18.7892 5.38012 20.1255 6.18654 21.2139 7.27376L25.1439 11.2325L22.2501 14.125L22.0614 13.9363C21.922 13.7964 21.7564 13.6855 21.5741 13.6098C21.3918 13.5341 21.1963 13.4951 20.9989 13.4951C20.8015 13.4951 20.606 13.5341 20.4236 13.6098C20.2413 13.6855 20.0757 13.7964 19.9364 13.9363L17.5001 16.375ZM25.9151 17.7888L24.3751 16.25L27.2614 13.3638L28.7989 14.9125L25.9151 17.7888Z" fill="black"/>
</svg>
