<svg width="32" height="32" viewBox="0 0 32 32" fill="none" xmlns="http://www.w3.org/2000/svg">
<path d="M25.5 17.5V22C25.5 25.0825 24.49 27.1375 24.4475 27.2238C24.4181 27.2826 24.3774 27.335 24.3278 27.378C24.2781 27.4211 24.2205 27.4539 24.1582 27.4747C24.0959 27.4955 24.03 27.5038 23.9645 27.4991C23.899 27.4944 23.835 27.4769 23.7762 27.4475C23.7175 27.4182 23.665 27.3775 23.622 27.3278C23.579 27.2782 23.5461 27.2206 23.5253 27.1582C23.5045 27.0959 23.4963 27.0301 23.5009 26.9646C23.5056 26.899 23.5231 26.8351 23.5525 26.7763C23.5612 26.7575 24.5 24.8325 24.5 22V17.5C24.5 16.9696 24.2893 16.4609 23.9142 16.0858C23.5391 15.7107 23.0304 15.5 22.5 15.5C21.9695 15.5 21.4608 15.7107 21.0858 16.0858C20.7107 16.4609 20.5 16.9696 20.5 17.5V18C20.5 18.1326 20.4473 18.2598 20.3535 18.3536C20.2598 18.4474 20.1326 18.5 20 18.5C19.8674 18.5 19.7402 18.4474 19.6464 18.3536C19.5526 18.2598 19.5 18.1326 19.5 18V15.5C19.5 14.9696 19.2893 14.4609 18.9142 14.0858C18.5391 13.7107 18.0304 13.5 17.5 13.5C16.9695 13.5 16.4608 13.7107 16.0858 14.0858C15.7107 14.4609 15.5 14.9696 15.5 15.5V17C15.5 17.1326 15.4473 17.2598 15.3535 17.3536C15.2598 17.4474 15.1326 17.5 15 17.5C14.8674 17.5 14.7402 17.4474 14.6464 17.3536C14.5526 17.2598 14.5 17.1326 14.5 17V8.50003C14.5 7.9696 14.2893 7.46089 13.9142 7.08582C13.5391 6.71075 13.0304 6.50003 12.5 6.50003C11.9695 6.50003 11.4608 6.71075 11.0858 7.08582C10.7107 7.46089 10.5 7.9696 10.5 8.50003V22C10.4996 22.1084 10.464 22.2138 10.3986 22.3002C10.3332 22.3866 10.2415 22.4494 10.1372 22.4792C10.033 22.5089 9.92195 22.504 9.82076 22.4652C9.71957 22.4263 9.63375 22.3556 9.57622 22.2638L7.24122 18.5138C7.23785 18.5091 7.23492 18.504 7.23247 18.4988C6.96725 18.0393 6.53037 17.704 6.01793 17.5666C5.50548 17.4292 4.95946 17.5011 4.49997 17.7663C4.04048 18.0315 3.70517 18.4684 3.5678 18.9808C3.43043 19.4933 3.50225 20.0393 3.76747 20.4988L7.43122 26.7488C7.48565 26.8623 7.49528 26.9921 7.4582 27.1123C7.42111 27.2326 7.34004 27.3345 7.23116 27.3976C7.12228 27.4607 6.9936 27.4804 6.87081 27.4529C6.74802 27.4253 6.64015 27.3524 6.56872 27.2488L2.90247 21C2.70475 20.6593 2.57608 20.2829 2.52382 19.8924C2.47156 19.5019 2.49673 19.1049 2.59789 18.7241C2.80219 17.9551 3.30361 17.2987 3.99184 16.8994C4.68008 16.5001 5.49876 16.3905 6.26777 16.5948C7.03679 16.7991 7.69315 17.3005 8.09247 17.9888L9.49997 20.25V8.50003C9.49997 7.70438 9.81604 6.94132 10.3786 6.37871C10.9413 5.8161 11.7043 5.50003 12.5 5.50003C13.2956 5.50003 14.0587 5.8161 14.6213 6.37871C15.1839 6.94132 15.5 7.70438 15.5 8.50003V13.2663C15.9171 12.8928 16.4304 12.6435 16.9819 12.5466C17.5333 12.4497 18.1009 12.509 18.6203 12.7179C19.1398 12.9268 19.5904 13.2769 19.9213 13.7286C20.2522 14.1802 20.45 14.7155 20.4925 15.2738C20.9233 14.8859 21.4572 14.631 22.0298 14.5402C22.6024 14.4493 23.189 14.5263 23.7187 14.7618C24.2484 14.9973 24.6986 15.3813 25.0147 15.8672C25.3308 16.3532 25.4994 16.9203 25.5 17.5ZM30 6.50003H22.2062L25.3537 3.35378C25.4475 3.25996 25.5002 3.13272 25.5002 3.00003C25.5002 2.86735 25.4475 2.7401 25.3537 2.64628C25.2599 2.55246 25.1327 2.49976 25 2.49976C24.8673 2.49976 24.74 2.55246 24.6462 2.64628L20.6462 6.64628C20.5997 6.69272 20.5629 6.74786 20.5377 6.80856C20.5125 6.86926 20.4996 6.93433 20.4996 7.00003C20.4996 7.06574 20.5125 7.13081 20.5377 7.1915C20.5629 7.2522 20.5997 7.30735 20.6462 7.35378L24.6462 11.3538C24.6927 11.4002 24.7478 11.4371 24.8085 11.4622C24.8692 11.4874 24.9343 11.5003 25 11.5003C25.0657 11.5003 25.1307 11.4874 25.1914 11.4622C25.2521 11.4371 25.3073 11.4002 25.3537 11.3538C25.4002 11.3073 25.437 11.2522 25.4622 11.1915C25.4873 11.1308 25.5002 11.0657 25.5002 11C25.5002 10.9343 25.4873 10.8693 25.4622 10.8086C25.437 10.7479 25.4002 10.6927 25.3537 10.6463L22.2062 7.50003H30C30.1326 7.50003 30.2598 7.44736 30.3535 7.35359C30.4473 7.25982 30.5 7.13264 30.5 7.00003C30.5 6.86743 30.4473 6.74025 30.3535 6.64648C30.2598 6.55271 30.1326 6.50003 30 6.50003Z" fill="black"/>
</svg>
