<svg width="32" height="32" viewBox="0 0 32 32" fill="none" xmlns="http://www.w3.org/2000/svg">
<path d="M23.5 9.50001C23.0217 9.4985 22.547 9.58318 22.0987 9.75001C21.8364 9.20979 21.4559 8.73555 20.9852 8.3625C20.5146 7.98945 19.9661 7.72715 19.3802 7.59507C18.7944 7.46299 18.1863 7.46452 17.6012 7.59954C17.016 7.73456 16.4687 7.9996 16 8.37501C15.4116 7.90388 14.702 7.60861 13.953 7.52325C13.204 7.43788 12.4462 7.56588 11.7668 7.8925C11.0874 8.21912 10.5142 8.73107 10.1131 9.36934C9.71207 10.0076 9.49953 10.7462 9.5 11.5V13.5H8.5C7.43913 13.5 6.42172 13.9214 5.67157 14.6716C4.92143 15.4217 4.5 16.4391 4.5 17.5V19C4.5 22.05 5.7116 24.9751 7.86827 27.1317C10.0249 29.2884 12.95 30.5 16 30.5C19.05 30.5 21.9751 29.2884 24.1317 27.1317C26.2884 24.9751 27.5 22.05 27.5 19V13.5C27.5 12.4391 27.0786 11.4217 26.3284 10.6716C25.5783 9.92144 24.5609 9.50001 23.5 9.50001ZM24.5 19C24.5 21.2544 23.6045 23.4164 22.0104 25.0104C20.4163 26.6045 18.2543 27.5 16 27.5C13.7457 27.5 11.5837 26.6045 9.98959 25.0104C8.39553 23.4164 7.5 21.2544 7.5 19V17.5C7.5 17.2348 7.60536 16.9804 7.79289 16.7929C7.98043 16.6054 8.23478 16.5 8.5 16.5H9.5V19C9.5 19.3978 9.65804 19.7794 9.93934 20.0607C10.2206 20.342 10.6022 20.5 11 20.5C11.3978 20.5 11.7794 20.342 12.0607 20.0607C12.342 19.7794 12.5 19.3978 12.5 19V11.5C12.5 11.2348 12.6054 10.9804 12.7929 10.7929C12.9804 10.6054 13.2348 10.5 13.5 10.5C13.7652 10.5 14.0196 10.6054 14.2071 10.7929C14.3946 10.9804 14.5 11.2348 14.5 11.5V15C14.5 15.3978 14.658 15.7794 14.9393 16.0607C15.2206 16.342 15.6022 16.5 16 16.5C16.3978 16.5 16.7794 16.342 17.0607 16.0607C17.342 15.7794 17.5 15.3978 17.5 15V11.5C17.5 11.2348 17.6054 10.9804 17.7929 10.7929C17.9804 10.6054 18.2348 10.5 18.5 10.5C18.7652 10.5 19.0196 10.6054 19.2071 10.7929C19.3946 10.9804 19.5 11.2348 19.5 11.5V15C19.5 15.3978 19.658 15.7794 19.9393 16.0607C20.2206 16.342 20.6022 16.5 21 16.5C21.3978 16.5 21.7794 16.342 22.0607 16.0607C22.342 15.7794 22.5 15.3978 22.5 15V13.5C22.5 13.2348 22.6054 12.9804 22.7929 12.7929C22.9804 12.6054 23.2348 12.5 23.5 12.5C23.7652 12.5 24.0196 12.6054 24.2071 12.7929C24.3946 12.9804 24.5 13.2348 24.5 13.5V19Z" fill="black"/>
</svg>
