<svg width="32" height="32" viewBox="0 0 32 32" fill="none" xmlns="http://www.w3.org/2000/svg">
<path d="M31.5 6.99989C31.5 7.39771 31.342 7.77924 31.0607 8.06055C30.7794 8.34185 30.3979 8.49989 30 8.49989H24.625L26.0638 9.93864C26.3456 10.2204 26.5039 10.6026 26.5039 11.0011C26.5039 11.3997 26.3456 11.7818 26.0638 12.0636C25.782 12.3454 25.3998 12.5037 25.0013 12.5037C24.6028 12.5037 24.2206 12.3454 23.9388 12.0636L19.9388 8.06364C19.799 7.92428 19.688 7.75869 19.6123 7.57636C19.5366 7.39404 19.4976 7.19856 19.4976 7.00114C19.4976 6.80372 19.5366 6.60824 19.6123 6.42591C19.688 6.24358 19.799 6.07799 19.9388 5.93864L23.9388 1.93864C24.2206 1.65684 24.6028 1.49854 25.0013 1.49854C25.3998 1.49854 25.782 1.65684 26.0638 1.93864C26.3456 2.22043 26.5039 2.60262 26.5039 3.00114C26.5039 3.39965 26.3456 3.78184 26.0638 4.06364L24.625 5.49989H30C30.3979 5.49989 30.7794 5.65792 31.0607 5.93923C31.342 6.22053 31.5 6.60206 31.5 6.99989ZM22.5 14.4999C22.0213 14.4982 21.5462 14.5829 21.0975 14.7499C20.6941 13.9196 20.0159 13.2543 19.178 12.867C18.34 12.4797 17.3939 12.3942 16.5 12.6249V9.49989C16.5 8.43902 16.0786 7.42161 15.3285 6.67146C14.5783 5.92131 13.5609 5.49989 12.5 5.49989C11.4392 5.49989 10.4218 5.92131 9.67162 6.67146C8.92147 7.42161 8.50005 8.43902 8.50005 9.49989V17.8536C7.84427 17.1081 6.93464 16.6331 5.94806 16.521C4.96149 16.409 3.9685 16.6678 3.1622 17.2473C2.35591 17.8268 1.79395 18.6854 1.58563 19.6562C1.3773 20.627 1.53749 21.6406 2.03505 22.4999L2.05005 22.5249L5.2138 27.7749C5.31557 27.9436 5.44959 28.0907 5.60819 28.2076C5.7668 28.3246 5.94688 28.4092 6.13817 28.4565C6.32946 28.5039 6.5282 28.5131 6.72305 28.4837C6.91791 28.4542 7.10505 28.3867 7.2738 28.2849C7.44254 28.1831 7.5896 28.0491 7.70655 27.8905C7.82351 27.7319 7.90808 27.5518 7.95544 27.3605C8.00279 27.1692 8.01201 26.9705 7.98256 26.7756C7.95311 26.5808 7.88557 26.3936 7.7838 26.2249L4.62505 20.9899C4.49376 20.7591 4.45952 20.4857 4.52985 20.2297C4.60017 19.9737 4.76931 19.7562 5.00005 19.6249C5.23078 19.4936 5.50422 19.4594 5.76021 19.5297C6.0162 19.6 6.23376 19.7691 6.36505 19.9999L6.3913 20.0424L8.7263 23.7924C8.89847 24.0692 9.15616 24.2824 9.46035 24.3997C9.76453 24.517 10.0987 24.532 10.4121 24.4425C10.7256 24.3529 11.0014 24.1637 11.1977 23.9034C11.394 23.6431 11.5001 23.3259 11.5 22.9999V9.49989C11.5 9.23467 11.6054 8.98032 11.7929 8.79278C11.9805 8.60524 12.2348 8.49989 12.5 8.49989C12.7653 8.49989 13.0196 8.60524 13.2072 8.79278C13.3947 8.98032 13.5 9.23467 13.5 9.49989V17.9999C13.5 18.3977 13.6581 18.7792 13.9394 19.0605C14.2207 19.3419 14.6022 19.4999 15 19.4999C15.3979 19.4999 15.7794 19.3419 16.0607 19.0605C16.342 18.7792 16.5 18.3977 16.5 17.9999V16.4999C16.5 16.2347 16.6054 15.9803 16.7929 15.7928C16.9805 15.6052 17.2348 15.4999 17.5 15.4999C17.7653 15.4999 18.0196 15.6052 18.2072 15.7928C18.3947 15.9803 18.5 16.2347 18.5 16.4999V18.9999C18.5 19.3977 18.6581 19.7792 18.9394 20.0605C19.2207 20.3419 19.6022 20.4999 20 20.4999C20.3979 20.4999 20.7794 20.3419 21.0607 20.0605C21.342 19.7792 21.5 19.3977 21.5 18.9999V18.4999C21.5 18.2347 21.6054 17.9803 21.7929 17.7928C21.9805 17.6052 22.2348 17.4999 22.5 17.4999C22.7653 17.4999 23.0196 17.6052 23.2072 17.7928C23.3947 17.9803 23.5 18.2347 23.5 18.4999V22.9999C23.5 24.3849 23.34 25.7086 23.0725 26.5399C23.0083 26.7283 22.9822 26.9277 22.9958 27.1264C23.0093 27.325 23.0623 27.519 23.1517 27.6969C23.241 27.8749 23.3649 28.0333 23.516 28.1629C23.6672 28.2925 23.8427 28.3907 24.0322 28.4517C24.2217 28.5128 24.4215 28.5355 24.6199 28.5186C24.8183 28.5017 25.0113 28.4454 25.1878 28.3531C25.3642 28.2607 25.5204 28.1342 25.6475 27.9809C25.7745 27.8275 25.8697 27.6504 25.9275 27.4599C26.3025 26.3149 26.5 24.7311 26.5 22.9999V18.4999C26.5 17.439 26.0786 16.4216 25.3285 15.6715C24.5783 14.9213 23.5609 14.4999 22.5 14.4999Z" fill="black"/>
</svg>
