<svg width="32" height="32" viewBox="0 0 32 32" fill="none" xmlns="http://www.w3.org/2000/svg">
<path d="M20.4998 2.5V1.5C20.4998 1.10218 20.6578 0.720644 20.9392 0.43934C21.2205 0.158035 21.602 0 21.9998 0C22.3976 0 22.7792 0.158035 23.0605 0.43934C23.3418 0.720644 23.4998 1.10218 23.4998 1.5V2.5C23.4998 2.89782 23.3418 3.27936 23.0605 3.56066C22.7792 3.84196 22.3976 4 21.9998 4C21.602 4 21.2205 3.84196 20.9392 3.56066C20.6578 3.27936 20.4998 2.89782 20.4998 2.5ZM25.7286 5.17625C26.0545 5.40429 26.4576 5.49354 26.8493 5.42439C27.241 5.35524 27.5892 5.13334 27.8173 4.8075L28.3911 3.98875C28.6193 3.66287 28.7088 3.25965 28.6397 2.86782C28.5707 2.47599 28.3488 2.12763 28.0229 1.89937C27.6971 1.67112 27.2938 1.58168 26.902 1.65071C26.5102 1.71975 26.1618 1.94162 25.9336 2.2675L25.3598 3.08625C25.2467 3.24766 25.1665 3.42978 25.1238 3.6222C25.0812 3.81462 25.0768 4.01357 25.1111 4.20767C25.1453 4.40177 25.2175 4.58722 25.3234 4.75341C25.4294 4.91961 25.567 5.06329 25.7286 5.17625ZM31.9098 6.91C31.8425 6.72482 31.7394 6.5547 31.6064 6.40937C31.4734 6.26404 31.313 6.14634 31.1345 6.06299C30.956 5.97965 30.7628 5.93229 30.5659 5.92363C30.3691 5.91496 30.1725 5.94516 29.9873 6.0125L29.0473 6.355C28.8621 6.42238 28.6921 6.52558 28.5468 6.65869C28.4015 6.79181 28.2839 6.95223 28.2006 7.13081C28.1173 7.30939 28.07 7.50263 28.0614 7.69948C28.0528 7.89634 28.0831 8.09296 28.1504 8.27812C28.2178 8.46329 28.321 8.63337 28.4541 8.77865C28.5872 8.92393 28.7477 9.04157 28.9263 9.12486C29.1048 9.20814 29.2981 9.25543 29.4949 9.26403C29.6918 9.27264 29.8884 9.24238 30.0736 9.175L31.0123 8.8325C31.1975 8.76523 31.3676 8.66213 31.5129 8.52909C31.6583 8.39606 31.776 8.2357 31.8593 8.05717C31.9427 7.87864 31.99 7.68544 31.9987 7.48861C32.0073 7.29177 31.9771 7.09516 31.9098 6.91ZM28.0911 11.4362C29.2414 13.4145 29.7113 15.7153 29.4289 17.9861C29.1464 20.257 28.1272 22.3726 26.5273 24.0088C25.9395 25.9736 24.7893 27.7232 23.2185 29.0418C21.6477 30.3603 19.7251 31.1899 17.6882 31.4283C15.6512 31.6667 13.5891 31.3033 11.7563 30.3831C9.92351 29.4628 8.40033 28.026 7.37481 26.25L2.99981 18.6725C2.72172 18.1907 2.55429 17.6532 2.50965 17.0987C2.46501 16.5442 2.54429 15.9868 2.74172 15.4667C2.93916 14.9467 3.24982 14.4771 3.65119 14.092C4.05255 13.7068 4.53457 13.4158 5.06231 13.24L4.89981 12.9587C4.62002 12.4741 4.45224 11.933 4.40877 11.3751C4.36531 10.8171 4.44728 10.2566 4.64865 9.73442C4.85002 9.2123 5.1657 8.74186 5.57253 8.3576C5.97937 7.97334 6.46705 7.68501 6.99981 7.51375C6.85008 6.77853 6.92434 6.01529 7.213 5.32273C7.50166 4.63016 7.99144 4.04011 8.61901 3.62886C9.24658 3.21761 9.98309 3.00408 10.7333 3.01587C11.4835 3.02766 12.213 3.26423 12.8273 3.695C13.227 3.26422 13.7223 2.93338 14.2733 2.72919C14.8243 2.52499 15.4156 2.45314 15.9995 2.51943C16.5833 2.58573 17.1435 2.78831 17.6347 3.11084C18.1259 3.43337 18.5344 3.86683 18.8273 4.37625L19.9898 6.39C20.178 6.22288 20.3828 6.07545 20.6011 5.95C21.0278 5.7035 21.4989 5.54352 21.9875 5.47922C22.4761 5.41491 22.9726 5.44754 23.4486 5.57524C23.9245 5.70294 24.3707 5.92321 24.7615 6.22345C25.1523 6.52368 25.48 6.898 25.7261 7.325L28.0911 11.4362ZM21.8198 9.5725L22.5211 10.7875C22.7832 11.0369 23.008 11.3227 23.1886 11.6362L25.5636 15.75C25.9198 16.3664 26.213 17.0172 26.4386 17.6925C26.6575 16.0482 26.3252 14.3778 25.4936 12.9425L23.1248 8.8225C23.0766 8.73532 23.0114 8.65862 22.9332 8.5969C22.855 8.53517 22.7652 8.48965 22.6692 8.46299C22.5732 8.43633 22.4729 8.42908 22.374 8.44164C22.2752 8.45421 22.1798 8.48634 22.0935 8.53617C22.0072 8.586 21.9318 8.65252 21.8715 8.73186C21.8112 8.81119 21.7673 8.90174 21.7424 8.99822C21.7175 9.09471 21.7121 9.19518 21.7264 9.29378C21.7408 9.39238 21.7747 9.48713 21.8261 9.5725H21.8198ZM14.9223 6.625L15.6248 7.84625C15.8865 8.0938 16.1109 8.37801 16.2911 8.69L17.4548 10.7025C17.6429 10.5361 17.8472 10.3891 18.0648 10.2638C18.2378 10.1639 18.4183 10.0778 18.6048 10.0063L16.2211 5.875C16.1728 5.78782 16.1077 5.71112 16.0295 5.6494C15.9512 5.58767 15.8615 5.54215 15.7655 5.51549C15.6695 5.48883 15.5691 5.48158 15.4703 5.49414C15.3714 5.50671 15.2761 5.53884 15.1898 5.58867C15.1035 5.6385 15.028 5.70503 14.9677 5.78436C14.9074 5.86369 14.8635 5.95424 14.8386 6.05072C14.8137 6.14721 14.8083 6.24768 14.8227 6.34628C14.837 6.44488 14.8709 6.53964 14.9223 6.625ZM10.0248 7.14375L10.4411 7.865C10.6605 7.65321 10.9053 7.46932 11.1698 7.3175C11.3425 7.21788 11.5226 7.13179 11.7086 7.06L11.3248 6.39375C11.2265 6.22287 11.0648 6.09759 10.8748 6.045C10.7316 6.0067 10.5803 6.01169 10.4399 6.05935C10.2996 6.107 10.1765 6.19518 10.0862 6.31274C9.99591 6.43031 9.94249 6.57199 9.93268 6.71989C9.92287 6.8678 9.9571 7.01529 10.0311 7.14375H10.0248ZM23.7148 22.9425C23.9723 21.9912 24.0386 20.9983 23.9098 20.0212C23.7811 19.0441 23.4599 18.1022 22.9648 17.25L20.5898 13.1362C20.5157 13.0075 20.4051 12.9036 20.2719 12.8377C20.1387 12.7719 19.9889 12.7472 19.8416 12.7666C19.6943 12.786 19.5561 12.8487 19.4445 12.9468C19.3329 13.0449 19.253 13.1739 19.2148 13.3175C19.1717 13.4802 19.184 13.6526 19.2498 13.8075L20.6661 16.25C20.7723 16.4208 20.843 16.6111 20.8742 16.8098C20.9053 17.0084 20.8962 17.2113 20.8474 17.4064C20.7986 17.6014 20.711 17.7847 20.59 17.9453C20.4689 18.1058 20.3168 18.2404 20.1427 18.341C19.9686 18.4416 19.776 18.5061 19.5765 18.5308C19.3769 18.5555 19.1744 18.5398 18.981 18.4847C18.7877 18.4296 18.6073 18.3361 18.4508 18.2099C18.2943 18.0837 18.1647 17.9273 18.0698 17.75L13.6948 10.1875C13.597 10.0141 13.4343 9.88668 13.2426 9.83323C13.0508 9.77979 12.8457 9.8047 12.6723 9.9025C12.4989 10.0003 12.3715 10.163 12.318 10.3547C12.2646 10.5465 12.2895 10.7516 12.3873 10.925L15.4648 16.25C15.5676 16.4207 15.6353 16.6102 15.6641 16.8074C15.6928 17.0046 15.6819 17.2056 15.6321 17.3986C15.5823 17.5915 15.4946 17.7726 15.374 17.9313C15.2534 18.0899 15.1024 18.223 14.9299 18.3227C14.7573 18.4223 14.5666 18.4866 14.3689 18.5117C14.1712 18.5368 13.9705 18.5223 13.7785 18.469C13.5864 18.4157 13.407 18.3247 13.2505 18.2012C13.0941 18.0778 12.9638 17.9244 12.8673 17.75L8.79731 10.7075C8.74806 10.6221 8.68249 10.5473 8.60433 10.4873C8.52616 10.4273 8.43695 10.3833 8.34177 10.3577C8.24659 10.3322 8.14731 10.3256 8.0496 10.3385C7.95189 10.3513 7.85767 10.3833 7.77231 10.4325C7.68695 10.4817 7.61213 10.5473 7.55211 10.6255C7.4921 10.7036 7.44806 10.7929 7.42253 10.888C7.39699 10.9832 7.39045 11.0825 7.40328 11.1802C7.41611 11.2779 7.44807 11.3721 7.49731 11.4575L11.9998 19.25C12.0983 19.4206 12.1622 19.609 12.1879 19.8043C12.2136 19.9997 12.2006 20.1982 12.1496 20.3885C12.0985 20.5788 12.0106 20.7572 11.8906 20.9135C11.7706 21.0697 11.6211 21.2009 11.4504 21.2994C11.2798 21.3979 11.0914 21.4618 10.8961 21.4875C10.7008 21.5132 10.5023 21.5001 10.312 21.4491C10.1217 21.3981 9.94328 21.3101 9.78698 21.1902C9.63069 21.0702 9.49955 20.9206 9.40106 20.75L6.90106 16.42C6.85281 16.3328 6.78768 16.2561 6.70946 16.1944C6.63124 16.1327 6.5415 16.0871 6.44549 16.0605C6.34948 16.0338 6.24912 16.0266 6.15027 16.0391C6.05142 16.0517 5.95607 16.0838 5.86978 16.1337C5.7835 16.1835 5.708 16.25 5.64771 16.3294C5.58742 16.4087 5.54355 16.4992 5.51864 16.5957C5.49374 16.6922 5.48832 16.7927 5.50268 16.8913C5.51705 16.9899 5.55092 17.0846 5.60231 17.17L9.97731 24.7488C10.7191 26.0331 11.825 27.0687 13.1553 27.7245C14.4855 28.3804 15.9804 28.6272 17.4509 28.4336C18.9213 28.24 20.3014 27.6147 21.4166 26.6369C22.5318 25.6591 23.332 24.3726 23.7161 22.94L23.7148 22.9425Z" fill="black"/>
</svg>
