<svg width="32" height="32" viewBox="0 0 32 32" fill="none" xmlns="http://www.w3.org/2000/svg">
<path d="M10.2014 30.9088C10.0833 31.0664 9.93531 31.1993 9.76585 31.2998C9.5964 31.4003 9.40881 31.4664 9.2138 31.4944C9.0188 31.5223 8.82019 31.5116 8.62932 31.4628C8.43845 31.414 8.25907 31.3281 8.10141 31.21C6.31512 29.8727 4.82047 28.1849 3.70891 26.25C3.61041 26.0794 3.5465 25.891 3.5208 25.6957C3.49511 25.5003 3.50814 25.3018 3.55915 25.1115C3.61017 24.9212 3.69817 24.7429 3.81812 24.5866C3.93808 24.4303 4.08764 24.2991 4.25828 24.2006C4.42892 24.1021 4.61728 24.0382 4.81262 24.0125C5.00796 23.9868 5.20645 23.9999 5.39675 24.0509C5.58705 24.1019 5.76544 24.1899 5.92173 24.3099C6.07803 24.4298 6.20916 24.5794 6.30766 24.75C7.21638 26.3333 8.43834 27.7148 9.89891 28.81C10.2172 29.0483 10.4278 29.4032 10.4846 29.7968C10.5413 30.1903 10.4394 30.5903 10.2014 30.9088ZM27.9577 12.25C29.4827 14.8914 29.8959 18.0304 29.1065 20.9765C28.3171 23.9226 26.3897 26.4344 23.7483 27.9594C21.1069 29.4844 17.9679 29.8976 15.0218 29.1082C12.0757 28.3188 9.5639 26.3914 8.03891 23.75L3.28891 15.5225C2.98325 14.9937 2.80274 14.402 2.76121 13.7927C2.71968 13.1833 2.81824 12.5726 3.04933 12.0072C3.28041 11.4419 3.63789 10.937 4.09435 10.5312C4.55081 10.1254 5.09413 9.82953 5.68266 9.66626L5.62516 9.55751C5.2295 8.87233 5.04593 8.08519 5.09767 7.29567C5.14942 6.50614 5.43415 5.7497 5.91585 5.12202C6.39755 4.49433 7.05459 4.0236 7.80385 3.76937C8.55311 3.51514 9.36094 3.48883 10.1252 3.69376C10.5544 3.81038 10.9609 3.99842 11.3277 4.25001C11.7382 3.75194 12.2632 3.36062 12.8578 3.10947C13.4524 2.85831 14.099 2.75478 14.7422 2.80772C15.3855 2.86065 16.0065 3.06847 16.552 3.41344C17.0976 3.75841 17.5515 4.23028 17.8752 4.78876L19.4402 7.50001C19.8758 7.07217 20.4036 6.74974 20.9832 6.55744C21.5627 6.36513 22.1786 6.30806 22.7836 6.3906C23.3886 6.47313 23.9667 6.69308 24.4735 7.03358C24.9804 7.37409 25.4025 7.82611 25.7077 8.35501L27.9577 12.25ZM25.3602 13.75L23.1102 9.85251C23.0445 9.73867 22.9571 9.63888 22.8528 9.55884C22.7486 9.47879 22.6296 9.42005 22.5027 9.38599C22.3758 9.35192 22.2434 9.34319 22.1131 9.36028C21.9828 9.37738 21.8571 9.41998 21.7433 9.48564C21.6294 9.5513 21.5296 9.63874 21.4496 9.74297C21.3696 9.84719 21.3108 9.96617 21.2768 10.0931C21.2427 10.22 21.234 10.3524 21.2511 10.4827C21.2681 10.613 21.3107 10.7387 21.3764 10.8525L22.6264 13.0163C22.8253 13.3607 22.8791 13.7701 22.7762 14.1543C22.6733 14.5385 22.4221 14.8661 22.0777 15.065C21.6796 15.2948 21.3307 15.6008 21.0508 15.9654C20.771 16.3301 20.5657 16.7463 20.4467 17.1903C20.3278 17.6343 20.2974 18.0973 20.3574 18.553C20.4174 19.0088 20.5666 19.4482 20.7964 19.8463C20.8949 20.0169 20.9588 20.2053 20.9845 20.4006C21.0102 20.5959 20.9972 20.7944 20.9462 20.9847C20.8951 21.175 20.8071 21.3534 20.6872 21.5097C20.5672 21.666 20.4177 21.7971 20.247 21.8956C20.0764 21.9941 19.888 22.058 19.6927 22.0837C19.4974 22.1094 19.2989 22.0964 19.1086 22.0454C18.9183 21.9944 18.7399 21.9064 18.5836 21.7864C18.4273 21.6665 18.2961 21.5169 18.1977 21.3463C17.4697 20.0792 17.1892 18.604 17.4012 17.1582C17.6132 15.7123 18.3054 14.3798 19.3664 13.375L15.2802 6.28876C15.1475 6.05902 14.9291 5.89136 14.6729 5.82268C14.4167 5.75399 14.1436 5.78991 13.9139 5.92251C13.6842 6.05512 13.5165 6.27356 13.4478 6.52979C13.3791 6.78601 13.415 7.05902 13.5477 7.28876L16.7977 12.9138C16.9966 13.2584 17.0504 13.6679 16.9474 14.0522C16.8444 14.4366 16.5929 14.7642 16.2483 14.9631C15.9037 15.1621 15.4941 15.2159 15.1098 15.1129C14.7255 15.0099 14.3978 14.7584 14.1989 14.4138L9.9489 7.05251C9.81634 6.82307 9.59812 6.65562 9.34219 6.58695C9.08625 6.51828 8.81352 6.554 8.58391 6.68626C8.47013 6.75191 8.3704 6.83932 8.29041 6.94351C8.21043 7.04771 8.15175 7.16664 8.11774 7.29351C8.08373 7.42039 8.07505 7.55272 8.09219 7.68295C8.10934 7.81318 8.15197 7.93876 8.21766 8.05251L12.9677 16.2788C13.0661 16.4494 13.1301 16.6378 13.1558 16.8331C13.1815 17.0284 13.1684 17.2269 13.1174 17.4172C13.0664 17.6075 12.9784 17.7859 12.8584 17.9422C12.7385 18.0985 12.5889 18.2296 12.4183 18.3281C12.2476 18.4266 12.0593 18.4905 11.8639 18.5162C11.6686 18.5419 11.4701 18.5289 11.2798 18.4779C11.0895 18.4269 10.9111 18.3389 10.7548 18.2189C10.5985 18.099 10.4674 17.9494 10.3689 17.7788L7.61891 13.0163C7.55518 12.8989 7.4686 12.7955 7.36426 12.7122C7.25993 12.6288 7.13996 12.5672 7.01143 12.531C6.8829 12.4947 6.74842 12.4846 6.61592 12.5012C6.48341 12.5178 6.35557 12.5607 6.23994 12.6275C6.1243 12.6943 6.02322 12.7836 5.94265 12.8901C5.86207 12.9966 5.80365 13.1181 5.77081 13.2476C5.73798 13.377 5.7314 13.5117 5.75147 13.6437C5.77153 13.7758 5.81784 13.9024 5.88766 14.0163L10.6377 22.25C11.7648 24.2023 13.6214 25.6269 15.7989 26.2104C16.8771 26.4993 18.0017 26.573 19.1084 26.4273C20.2151 26.2816 21.2822 25.9194 22.2489 25.3613C23.2156 24.8031 24.0629 24.0601 24.7424 23.1745C25.4219 22.2889 25.9204 21.2782 26.2093 20.2C26.4982 19.1218 26.5719 17.9972 26.4262 16.8906C26.2805 15.7839 25.9183 14.7167 25.3602 13.75ZM30.0377 5.85126C29.4494 4.82547 28.6635 3.92659 27.7254 3.20671C26.7873 2.48683 25.7157 1.96026 24.5727 1.65751C24.3823 1.60654 24.1838 1.59356 23.9885 1.61931C23.7931 1.64506 23.6047 1.70903 23.4341 1.80758C23.2635 1.90613 23.1139 2.03731 22.994 2.19366C22.8741 2.35 22.7861 2.52843 22.7352 2.71876C22.6842 2.9091 22.6712 3.10761 22.697 3.30296C22.7227 3.49831 22.7867 3.68668 22.8852 3.85731C22.9838 4.02793 23.115 4.17748 23.2713 4.29741C23.4276 4.41733 23.6061 4.50529 23.7964 4.55626C24.5585 4.75784 25.273 5.10869 25.8985 5.58848C26.524 6.06827 27.048 6.66744 27.4402 7.35126C27.5367 7.52563 27.6669 7.67902 27.8234 7.80247C27.9798 7.92592 28.1593 8.01697 28.3513 8.07028C28.5433 8.12359 28.744 8.13811 28.9417 8.11298C29.1394 8.08785 29.3301 8.02358 29.5027 7.92392C29.6753 7.82426 29.8263 7.69121 29.9469 7.53255C30.0674 7.37388 30.1552 7.19278 30.205 6.99981C30.2548 6.80685 30.2656 6.6059 30.2369 6.4087C30.2082 6.21149 30.1404 6.02199 30.0377 5.85126Z" fill="black"/>
</svg>
