<svg width="32" height="32" viewBox="0 0 32 32" fill="none" xmlns="http://www.w3.org/2000/svg">
<path d="M29.095 17.235C28.654 16.8972 28.1405 16.6665 27.595 16.5613C29.5238 14.3675 30.5 12.1713 30.5 10C30.5 6.41626 27.6137 3.50001 24.0675 3.50001C22.3597 3.49182 20.7179 4.15905 19.5 5.35626C18.2821 4.15905 16.6403 3.49182 14.9325 3.50001C11.3862 3.50001 8.5 6.41626 8.5 10C8.5 11.2688 8.84 12.5375 9.5275 13.8375C8.97874 14.064 8.48037 14.3971 8.06125 14.8175L5.375 17.5H2.5C1.83696 17.5 1.20107 17.7634 0.732233 18.2322C0.263392 18.7011 0 19.337 0 20L0 25C0 25.6631 0.263392 26.2989 0.732233 26.7678C1.20107 27.2366 1.83696 27.5 2.5 27.5H15C15.1226 27.5001 15.2448 27.485 15.3638 27.455L23.3638 25.455C23.4403 25.4362 23.5151 25.4112 23.5875 25.38L28.44 23.3125C28.4688 23.3013 28.4963 23.2888 28.5238 23.275C29.0664 23.0035 29.5311 22.5984 29.8741 22.0978C30.217 21.5972 30.4269 21.0175 30.4841 20.4134C30.5412 19.8093 30.4437 19.2006 30.2007 18.6445C29.9577 18.0885 29.5772 17.6034 29.095 17.235ZM14.9325 6.50001C15.6083 6.48959 16.2719 6.68098 16.8384 7.04973C17.4049 7.41847 17.8485 7.94779 18.1125 8.57001C18.2255 8.84513 18.4178 9.08044 18.6648 9.24604C18.9119 9.41164 19.2026 9.50006 19.5 9.50006C19.7974 9.50006 20.0881 9.41164 20.3352 9.24604C20.5822 9.08044 20.7745 8.84513 20.8875 8.57001C21.1515 7.94779 21.5951 7.41847 22.1616 7.04973C22.7281 6.68098 23.3917 6.48959 24.0675 6.50001C25.9275 6.50001 27.5 8.10251 27.5 10C27.5 12.2575 25.625 14.855 22.0775 17.5238L21.5 17.6575C21.5 17.605 21.5 17.5525 21.5 17.5C21.5 16.4391 21.0786 15.4217 20.3284 14.6716C19.5783 13.9214 18.5609 13.5 17.5 13.5H12.8387C11.9275 12.22 11.5 11.0963 11.5 10C11.5 8.10251 13.0725 6.50001 14.9325 6.50001ZM3 20.5H4.5V24.5H3V20.5ZM27.21 20.5763L22.5212 22.5763L14.815 24.5H7.5V19.625L10.1825 16.9425C10.3212 16.8023 10.4862 16.6911 10.6682 16.6151C10.8501 16.5392 11.0453 16.5 11.2425 16.5H17.5C17.7652 16.5 18.0196 16.6054 18.2071 16.7929C18.3946 16.9804 18.5 17.2348 18.5 17.5C18.5 17.7652 18.3946 18.0196 18.2071 18.2071C18.0196 18.3947 17.7652 18.5 17.5 18.5H14C13.6022 18.5 13.2206 18.658 12.9393 18.9394C12.658 19.2207 12.5 19.6022 12.5 20C12.5 20.3978 12.658 20.7794 12.9393 21.0607C13.2206 21.342 13.6022 21.5 14 21.5H18C18.1131 21.5 18.2259 21.4875 18.3363 21.4625L26.7113 19.5363L26.77 19.5213C26.8554 19.498 26.945 19.4948 27.0318 19.5118C27.1187 19.5287 27.2004 19.5655 27.2708 19.6192C27.3411 19.6728 27.3982 19.742 27.4375 19.8212C27.4768 19.9005 27.4973 19.9878 27.4975 20.0763C27.4981 20.1776 27.4718 20.2773 27.4213 20.3651C27.3708 20.453 27.2979 20.5258 27.21 20.5763Z" fill="black"/>
</svg>
