<svg width="32" height="32" viewBox="0 0 32 32" fill="none" xmlns="http://www.w3.org/2000/svg">
<path d="M29.095 17.235C28.663 16.9041 28.1606 16.6769 27.6267 16.5711C27.0929 16.4654 26.5418 16.4838 26.0163 16.625L21.5 17.6575C21.5 17.605 21.5 17.5525 21.5 17.5C21.5 16.4391 21.0786 15.4217 20.3284 14.6716C19.5783 13.9214 18.5609 13.5 17.5 13.5H11.2425C10.6515 13.4984 10.066 13.614 9.51993 13.8401C8.97387 14.0663 8.47808 14.3985 8.06125 14.8175L5.375 17.5H2.5C1.83696 17.5 1.20107 17.7634 0.732233 18.2322C0.263392 18.7011 0 19.337 0 20L0 25C0 25.663 0.263392 26.2989 0.732233 26.7678C1.20107 27.2366 1.83696 27.5 2.5 27.5H15C15.1226 27.5001 15.2448 27.485 15.3638 27.455L23.3638 25.455C23.4403 25.4362 23.5151 25.4111 23.5875 25.38L28.44 23.3125C28.4688 23.3013 28.4963 23.2888 28.5238 23.275C29.0664 23.0035 29.5311 22.5984 29.8741 22.0978C30.217 21.5972 30.4269 21.0175 30.4841 20.4134C30.5412 19.8093 30.4437 19.2006 30.2007 18.6445C29.9577 18.0885 29.5772 17.6034 29.095 17.235ZM3 20.5H4.5V24.5H3V20.5ZM27.21 20.5763L22.5212 22.5763L14.815 24.5H7.5V19.625L10.1825 16.9425C10.3212 16.8023 10.4862 16.6911 10.6682 16.6151C10.8501 16.5391 11.0453 16.5 11.2425 16.5H17.5C17.7652 16.5 18.0196 16.6054 18.2071 16.7929C18.3946 16.9804 18.5 17.2348 18.5 17.5C18.5 17.7652 18.3946 18.0196 18.2071 18.2071C18.0196 18.3946 17.7652 18.5 17.5 18.5H14C13.6022 18.5 13.2206 18.658 12.9393 18.9393C12.658 19.2206 12.5 19.6022 12.5 20C12.5 20.3978 12.658 20.7794 12.9393 21.0607C13.2206 21.342 13.6022 21.5 14 21.5H18C18.1131 21.5 18.2259 21.4874 18.3363 21.4625L26.7113 19.5363L26.77 19.5213C26.8554 19.498 26.945 19.4948 27.0318 19.5118C27.1187 19.5287 27.2004 19.5655 27.2708 19.6191C27.3411 19.6728 27.3982 19.742 27.4375 19.8212C27.4768 19.9005 27.4973 19.9878 27.4975 20.0763C27.4981 20.1776 27.4718 20.2773 27.4213 20.3651C27.3708 20.4529 27.2979 20.5258 27.21 20.5763ZM20.5 12.5C20.6375 12.5 20.775 12.4925 20.91 12.4813C21.2676 13.3097 21.8426 14.026 22.5743 14.5541C23.3059 15.0823 24.1669 15.4026 25.0658 15.4811C25.9647 15.5595 26.8681 15.3933 27.6803 15C28.4924 14.6066 29.1829 14.0008 29.6786 13.2469C30.1743 12.4929 30.4568 11.6188 30.496 10.7173C30.5352 9.81581 30.3297 8.92051 29.9014 8.12633C29.473 7.33214 28.8377 6.66869 28.0628 6.20631C27.2879 5.74394 26.4023 5.49987 25.5 5.5C25.3625 5.5 25.2275 5.5075 25.0925 5.5175C24.7348 4.68929 24.1597 3.97328 23.4281 3.44538C22.6965 2.91748 21.8357 2.59735 20.937 2.51893C20.0382 2.44051 19.135 2.60671 18.323 2.99992C17.5111 3.39313 16.8206 3.9987 16.3249 4.75244C15.8292 5.50618 15.5466 6.38001 15.5071 7.28131C15.4677 8.18261 15.6728 9.07779 16.1008 9.87197C16.5287 10.6662 17.1636 11.3297 17.9381 11.7924C18.7126 12.2551 19.5978 12.4996 20.5 12.5ZM27.5 10.5C27.5 10.8956 27.3827 11.2822 27.1629 11.6111C26.9432 11.94 26.6308 12.1964 26.2654 12.3478C25.8999 12.4991 25.4978 12.5387 25.1098 12.4616C24.7219 12.3844 24.3655 12.1939 24.0858 11.9142C23.8061 11.6345 23.6156 11.2781 23.5384 10.8902C23.4613 10.5022 23.5009 10.1001 23.6522 9.73463C23.8036 9.36918 24.06 9.05683 24.3889 8.83706C24.7178 8.6173 25.1044 8.5 25.5 8.5C26.0304 8.5 26.5391 8.71072 26.9142 9.08579C27.2893 9.46086 27.5 9.96957 27.5 10.5ZM20.5 5.5C20.8803 5.49971 21.2528 5.60786 21.5738 5.81177C21.8949 6.01567 22.1511 6.30689 22.3125 6.65125C21.434 7.37796 20.8302 8.38309 20.6012 9.5C20.5675 9.5 20.5338 9.5 20.5 9.5C19.9696 9.5 19.4609 9.28929 19.0858 8.91421C18.7107 8.53914 18.5 8.03043 18.5 7.5C18.5 6.96957 18.7107 6.46086 19.0858 6.08579C19.4609 5.71072 19.9696 5.5 20.5 5.5Z" fill="black"/>
</svg>
