<svg width="32" height="32" viewBox="0 0 32 32" fill="none" xmlns="http://www.w3.org/2000/svg">
<path d="M27.4999 19.5V24C27.4999 25.7313 27.2961 27.315 26.9274 28.46C26.8004 28.8324 26.5322 29.1399 26.1806 29.3164C25.829 29.4929 25.4221 29.5242 25.0476 29.4036C24.6731 29.2829 24.3611 29.0199 24.1787 28.6713C23.9962 28.3228 23.9581 27.9165 24.0724 27.54C24.3399 26.7088 24.4999 25.385 24.4999 24V19.5C24.4999 19.2348 24.3945 18.9804 24.207 18.7929C24.0195 18.6054 23.7651 18.5 23.4999 18.5C23.2347 18.5 22.9803 18.6054 22.7928 18.7929C22.6052 18.9804 22.4999 19.2348 22.4999 19.5V20C22.4999 20.3978 22.3419 20.7794 22.0606 21.0607C21.7792 21.342 21.3977 21.5 20.9999 21.5C20.6021 21.5 20.2205 21.342 19.9392 21.0607C19.6579 20.7794 19.4999 20.3978 19.4999 20V17.5C19.4999 17.2348 19.3945 16.9804 19.207 16.7929C19.0195 16.6054 18.7651 16.5 18.4999 16.5C18.2347 16.5 17.9803 16.6054 17.7928 16.7929C17.6052 16.9804 17.4999 17.2348 17.4999 17.5V19C17.4999 19.3978 17.3419 19.7794 17.0606 20.0607C16.7792 20.342 16.3977 20.5 15.9999 20.5C15.6021 20.5 15.2205 20.342 14.9392 20.0607C14.6579 19.7794 14.4999 19.3978 14.4999 19V10.5C14.4999 10.2348 14.3945 9.98043 14.207 9.79289C14.0195 9.60536 13.7651 9.5 13.4999 9.5C13.2347 9.5 12.9803 9.60536 12.7928 9.79289C12.6052 9.98043 12.4999 10.2348 12.4999 10.5V24C12.4995 24.3256 12.3932 24.6423 12.197 24.9022C12.0007 25.1621 11.7253 25.351 11.4121 25.4405C11.099 25.53 10.7653 25.5152 10.4614 25.3983C10.1574 25.2814 9.89981 25.0688 9.72739 24.7925L7.39239 21.0425L7.36614 21C7.23486 20.7691 7.01723 20.5998 6.76112 20.5294C6.50502 20.4589 6.23142 20.4931 6.00052 20.6244C5.76961 20.7557 5.60032 20.9733 5.52987 21.2294C5.45943 21.4855 5.49361 21.7591 5.62489 21.99L8.78364 27.225C8.98902 27.5658 9.0506 27.9742 8.95484 28.3604C8.85908 28.7466 8.61382 29.079 8.27302 29.2844C7.93221 29.4898 7.52378 29.5513 7.13758 29.4556C6.75137 29.3598 6.41902 29.1146 6.21364 28.7738L3.04989 23.5238L3.03489 23.4988C2.53856 22.6395 2.37931 21.6265 2.58808 20.6564C2.79684 19.6863 3.35872 18.8285 4.16457 18.2495C4.97042 17.6705 5.96271 17.4117 6.94868 17.5234C7.93466 17.635 8.84394 18.1092 9.49989 18.8538V10.5C9.49989 9.43913 9.92132 8.42172 10.6715 7.67157C11.4216 6.92143 12.439 6.5 13.4999 6.5C14.5608 6.5 15.5782 6.92143 16.3283 7.67157C17.0785 8.42172 17.4999 9.43913 17.4999 10.5V13.625C18.3937 13.3943 19.3399 13.4798 20.1778 13.8672C21.0158 14.2545 21.694 14.9197 22.0974 15.75C22.7028 15.5233 23.3542 15.4468 23.9957 15.5269C24.6372 15.607 25.2497 15.8415 25.7808 16.2101C26.3118 16.5787 26.7457 17.0706 27.0451 17.6436C27.3445 18.2165 27.5005 18.8535 27.4999 19.5ZM5.99989 12C6.39772 12 6.77925 11.842 7.06055 11.5607C7.34186 11.2794 7.49989 10.8978 7.49989 10.5C7.49989 8.9087 8.13203 7.38258 9.25725 6.25736C10.3825 5.13214 11.9086 4.5 13.4999 4.5C15.0912 4.5 16.6173 5.13214 17.7425 6.25736C18.8678 7.38258 19.4999 8.9087 19.4999 10.5C19.4999 10.8978 19.6579 11.2794 19.9392 11.5607C20.2205 11.842 20.6021 12 20.9999 12C21.3977 12 21.7792 11.842 22.0606 11.5607C22.3419 11.2794 22.4999 10.8978 22.4999 10.5C22.4999 8.11305 21.5517 5.82387 19.8639 4.13604C18.176 2.44821 15.8868 1.5 13.4999 1.5C11.1129 1.5 8.82376 2.44821 7.13593 4.13604C5.4481 5.82387 4.49989 8.11305 4.49989 10.5C4.49989 10.8978 4.65793 11.2794 4.93923 11.5607C5.22054 11.842 5.60207 12 5.99989 12Z" fill="black"/>
</svg>
