<svg width="32" height="32" viewBox="0 0 32 32" fill="none" xmlns="http://www.w3.org/2000/svg">
<path d="M25.7501 17.5001V22.0001C25.7501 25.1413 24.7151 27.2501 24.6701 27.3351C24.6079 27.4596 24.5123 27.5644 24.394 27.6377C24.2757 27.711 24.1393 27.7499 24.0001 27.7501C23.8837 27.7504 23.7688 27.723 23.6651 27.6701C23.4889 27.5811 23.3549 27.4261 23.2922 27.2389C23.2294 27.0517 23.2431 26.8473 23.3301 26.6701C23.3389 26.6526 24.2514 24.7713 24.2514 22.0051V17.5001C24.2514 17.036 24.067 16.5908 23.7388 16.2627C23.4106 15.9345 22.9655 15.7501 22.5014 15.7501C22.0372 15.7501 21.5921 15.9345 21.2639 16.2627C20.9357 16.5908 20.7514 17.036 20.7514 17.5001V18.0001C20.7514 18.199 20.6723 18.3898 20.5317 18.5304C20.391 18.6711 20.2003 18.7501 20.0014 18.7501C19.8024 18.7501 19.6117 18.6711 19.471 18.5304C19.3304 18.3898 19.2514 18.199 19.2514 18.0001V15.5001C19.2514 15.036 19.067 14.5908 18.7388 14.2627C18.4106 13.9345 17.9655 13.7501 17.5014 13.7501C17.0372 13.7501 16.5921 13.9345 16.2639 14.2627C15.9357 14.5908 15.7514 15.036 15.7514 15.5001V17.0001C15.7514 17.199 15.6723 17.3898 15.5317 17.5304C15.391 17.6711 15.2003 17.7501 15.0014 17.7501C14.8024 17.7501 14.6117 17.6711 14.471 17.5304C14.3304 17.3898 14.2514 17.199 14.2514 17.0001V8.50009C14.2514 8.03596 14.067 7.59084 13.7388 7.26265C13.4106 6.93447 12.9655 6.75009 12.5014 6.75009C12.0372 6.75009 11.5921 6.93447 11.2639 7.26265C10.9357 7.59084 10.7514 8.03596 10.7514 8.50009V22.0001C10.7512 22.1629 10.698 22.3213 10.5999 22.4512C10.5018 22.5811 10.364 22.6756 10.2075 22.7204C10.0509 22.7651 9.88407 22.7577 9.7321 22.6992C9.58014 22.6408 9.45132 22.5345 9.36511 22.3963L7.03011 18.6463C7.02525 18.6397 7.02107 18.6326 7.01761 18.6251C6.78555 18.2231 6.4033 17.9298 5.95497 17.8097C5.50665 17.6895 5.02895 17.7524 4.62698 17.9845C4.22502 18.2165 3.9317 18.5988 3.81156 19.0471C3.69142 19.4954 3.7543 19.9731 3.98636 20.3751L7.64761 26.6251C7.70366 26.7104 7.7417 26.8063 7.75941 26.9068C7.77712 27.0073 7.77412 27.1104 7.75061 27.2097C7.72709 27.309 7.68354 27.4025 7.62263 27.4844C7.56173 27.5663 7.48474 27.635 7.39639 27.6861C7.30804 27.7372 7.21018 27.7697 7.10882 27.7817C7.00745 27.7937 6.9047 27.7849 6.80687 27.7558C6.70903 27.7266 6.61817 27.6779 6.53985 27.6124C6.46153 27.547 6.39739 27.4662 6.35136 27.3751L2.68636 21.1251C2.25323 20.3792 2.13415 19.4917 2.35533 18.658C2.5765 17.8243 3.11981 17.1126 3.86573 16.6795C4.61166 16.2463 5.49909 16.1273 6.3328 16.3484C7.16652 16.5696 7.87823 17.1129 8.31136 17.8588L9.25011 19.3751V8.50009C9.25011 7.63814 9.59252 6.81149 10.202 6.20199C10.8115 5.5925 11.6382 5.25009 12.5001 5.25009C13.3621 5.25009 14.1887 5.5925 14.7982 6.20199C15.4077 6.81149 15.7501 7.63814 15.7501 8.50009V12.7626C16.1917 12.4801 16.6951 12.3086 17.2173 12.2628C17.7396 12.2169 18.2651 12.2981 18.7492 12.4994C19.2333 12.7006 19.6615 13.016 19.9973 13.4186C20.333 13.8212 20.5665 14.299 20.6776 14.8113C21.1662 14.4804 21.7356 14.2888 22.3248 14.257C22.9141 14.2252 23.5008 14.3544 24.0222 14.6307C24.5436 14.9071 24.9799 15.3202 25.2843 15.8257C25.5887 16.3312 25.7497 16.91 25.7501 17.5001ZM30.5301 6.47009L26.5301 2.47009C26.3879 2.33761 26.1999 2.26549 26.0056 2.26892C25.8113 2.27234 25.6259 2.35106 25.4885 2.48847C25.3511 2.62588 25.2724 2.81127 25.2689 3.00557C25.2655 3.19987 25.3376 3.38792 25.4701 3.53009L28.1889 6.25009H21.0001C20.8012 6.25009 20.6104 6.32911 20.4698 6.46976C20.3291 6.61041 20.2501 6.80118 20.2501 7.00009C20.2501 7.199 20.3291 7.38977 20.4698 7.53042C20.6104 7.67107 20.8012 7.75009 21.0001 7.75009H28.1889L25.4701 10.4701C25.3964 10.5388 25.3373 10.6216 25.2963 10.7136C25.2553 10.8056 25.2333 10.9049 25.2315 11.0056C25.2297 11.1063 25.2483 11.2063 25.286 11.2997C25.3237 11.3931 25.3799 11.4779 25.4511 11.5491C25.5223 11.6203 25.6071 11.6765 25.7005 11.7142C25.7939 11.7519 25.8939 11.7705 25.9946 11.7687C26.0953 11.7669 26.1946 11.7449 26.2866 11.7039C26.3786 11.6629 26.4614 11.6038 26.5301 11.5301L30.5301 7.53009C30.6706 7.38947 30.7494 7.19884 30.7494 7.00009C30.7494 6.80134 30.6706 6.61072 30.5301 6.47009Z" fill="black"/>
</svg>
