<svg width="32" height="32" viewBox="0 0 32 32" fill="none" xmlns="http://www.w3.org/2000/svg">
<path d="M25 9.49999H23.5V7.99999C23.4992 7.13165 23.2472 6.28208 22.7744 5.55376C22.3015 4.82544 21.6281 4.24947 20.8352 3.89534C20.0424 3.5412 19.164 3.42401 18.3061 3.55792C17.4481 3.69182 16.6472 4.0711 16 4.64999C15.4285 4.13869 14.7358 3.78192 13.9877 3.61354C13.2395 3.44516 12.4608 3.47076 11.7253 3.6879C10.9899 3.90505 10.3221 4.30653 9.78542 4.85426C9.24872 5.40198 8.86089 6.07777 8.65875 6.81749C7.97625 6.54686 7.2379 6.44733 6.50811 6.52758C5.77831 6.60784 5.07923 6.86544 4.47186 7.27792C3.86448 7.6904 3.36726 8.24522 3.02355 8.894C2.67985 9.54278 2.5001 10.2658 2.5 11V16C2.5 19.5804 3.92232 23.0142 6.45406 25.5459C8.9858 28.0777 12.4196 29.5 16 29.5C19.5804 29.5 23.0142 28.0777 25.5459 25.5459C28.0777 23.0142 29.5 19.5804 29.5 16V14C29.5 12.8065 29.0259 11.6619 28.182 10.818C27.3381 9.9741 26.1935 9.49999 25 9.49999ZM17.5 7.99999C17.5 7.60217 17.658 7.22064 17.9393 6.93933C18.2206 6.65803 18.6022 6.49999 19 6.49999C19.3978 6.49999 19.7794 6.65803 20.0607 6.93933C20.342 7.22064 20.5 7.60217 20.5 7.99999V9.49999H17.5V7.99999ZM11.5 7.99999C11.5 7.60217 11.658 7.22064 11.9393 6.93933C12.2206 6.65803 12.6022 6.49999 13 6.49999C13.3978 6.49999 13.7794 6.65803 14.0607 6.93933C14.342 7.22064 14.5 7.60217 14.5 7.99999V13C14.5 13.3978 14.342 13.7793 14.0607 14.0607C13.7794 14.342 13.3978 14.5 13 14.5C12.6022 14.5 12.2206 14.342 11.9393 14.0607C11.658 13.7793 11.5 13.3978 11.5 13V7.99999ZM5.5 11C5.5 10.6022 5.65804 10.2206 5.93934 9.93933C6.22064 9.65803 6.60218 9.49999 7 9.49999C7.39782 9.49999 7.77936 9.65803 8.06066 9.93933C8.34196 10.2206 8.5 10.6022 8.5 11V13C8.5 13.3978 8.34196 13.7793 8.06066 14.0607C7.77936 14.342 7.39782 14.5 7 14.5C6.60218 14.5 6.22064 14.342 5.93934 14.0607C5.65804 13.7793 5.5 13.3978 5.5 13V11ZM26.5 16C26.5014 18.6757 25.4813 21.2511 23.648 23.2C21.8146 25.149 19.3064 26.3244 16.6355 26.4864C13.9647 26.6483 11.3328 25.7845 9.27738 24.0714C7.22197 22.3583 5.89813 19.925 5.57625 17.2687C6.32904 17.5201 7.135 17.5675 7.91207 17.4061C8.68914 17.2448 9.40956 16.8803 10 16.35C10.736 17.0117 11.6702 17.4115 12.6571 17.487C13.644 17.5625 14.6281 17.3095 15.4563 16.7675C15.6868 17.0644 15.9534 17.3315 16.25 17.5625C15.1234 18.7652 14.4976 20.3521 14.5 22C14.5 22.3978 14.658 22.7793 14.9393 23.0607C15.2206 23.342 15.6022 23.5 16 23.5C16.3978 23.5 16.7794 23.342 17.0607 23.0607C17.342 22.7793 17.5 22.3978 17.5 22C17.5 21.0717 17.8687 20.1815 18.5251 19.5251C19.1815 18.8687 20.0717 18.5 21 18.5C21.3978 18.5 21.7794 18.342 22.0607 18.0607C22.342 17.7793 22.5 17.3978 22.5 17C22.5 16.6022 22.342 16.2206 22.0607 15.9393C21.7794 15.658 21.3978 15.5 21 15.5H19C18.6022 15.5 18.2206 15.342 17.9393 15.0607C17.658 14.7793 17.5 14.3978 17.5 14V12.5H25C25.3978 12.5 25.7794 12.658 26.0607 12.9393C26.342 13.2206 26.5 13.6022 26.5 14V16Z" fill="black"/>
</svg>
