<svg width="32" height="32" viewBox="0 0 32 32" fill="none" xmlns="http://www.w3.org/2000/svg">
<path d="M26.4999 18.4999V22.9999C26.4999 24.7311 26.2961 26.3149 25.9274 27.4599C25.8695 27.6504 25.7743 27.8275 25.6473 27.9809C25.5203 28.1342 25.364 28.2607 25.1876 28.3531C25.0112 28.4454 24.8181 28.5017 24.6197 28.5186C24.4213 28.5355 24.2216 28.5128 24.032 28.4517C23.8425 28.3907 23.6671 28.2925 23.5159 28.1629C23.3647 28.0333 23.2408 27.8749 23.1515 27.6969C23.0622 27.519 23.0092 27.325 22.9956 27.1264C22.982 26.9277 23.0081 26.7283 23.0724 26.5399C23.3399 25.7086 23.4999 24.3849 23.4999 22.9999V18.4999C23.4999 18.2347 23.3945 17.9803 23.207 17.7928C23.0195 17.6052 22.7651 17.4999 22.4999 17.4999C22.2347 17.4999 21.9803 17.6052 21.7928 17.7928C21.6052 17.9803 21.4999 18.2347 21.4999 18.4999V18.9999C21.4999 19.3977 21.3419 19.7792 21.0606 20.0605C20.7792 20.3419 20.3977 20.4999 19.9999 20.4999C19.6021 20.4999 19.2205 20.3419 18.9392 20.0605C18.6579 19.7792 18.4999 19.3977 18.4999 18.9999V16.4999C18.4999 16.2347 18.3945 15.9803 18.207 15.7928C18.0195 15.6052 17.7651 15.4999 17.4999 15.4999C17.2347 15.4999 16.9803 15.6052 16.7928 15.7928C16.6052 15.9803 16.4999 16.2347 16.4999 16.4999V17.9999C16.4999 18.3977 16.3419 18.7792 16.0606 19.0605C15.7792 19.3419 15.3977 19.4999 14.9999 19.4999C14.6021 19.4999 14.2205 19.3419 13.9392 19.0605C13.6579 18.7792 13.4999 18.3977 13.4999 17.9999V9.49989C13.4999 9.23467 13.3945 8.98032 13.207 8.79278C13.0195 8.60524 12.7651 8.49989 12.4999 8.49989C12.2347 8.49989 11.9803 8.60524 11.7928 8.79278C11.6052 8.98032 11.4999 9.23467 11.4999 9.49989V22.9999C11.4995 23.3255 11.3932 23.6422 11.197 23.9021C11.0007 24.162 10.7253 24.3509 10.4121 24.4404C10.099 24.5299 9.76532 24.5151 9.46138 24.3982C9.15744 24.2813 8.89981 24.0686 8.72739 23.7924L6.39239 20.0424L6.36614 19.9999C6.30114 19.8856 6.21425 19.7851 6.11044 19.7044C6.00663 19.6236 5.88793 19.5641 5.76112 19.5292C5.63431 19.4944 5.50188 19.4848 5.37137 19.5011C5.24086 19.5174 5.11485 19.5593 5.00052 19.6243C4.88618 19.6893 4.78578 19.7762 4.70502 19.88C4.62427 19.9838 4.56475 20.1025 4.52987 20.2293C4.49499 20.3561 4.48543 20.4885 4.50174 20.619C4.51804 20.7495 4.55989 20.8756 4.62489 20.9899L7.78364 26.2249C7.98902 26.5657 8.0506 26.9741 7.95484 27.3603C7.85908 27.7465 7.61382 28.0789 7.27302 28.2843C6.93221 28.4896 6.52378 28.5512 6.13758 28.4555C5.75137 28.3597 5.41902 28.1144 5.21364 27.7736L2.04989 22.5236L2.03489 22.4986C1.53856 21.6394 1.37931 20.6264 1.58808 19.6563C1.79684 18.6862 2.35872 17.8284 3.16457 17.2494C3.97042 16.6704 4.96271 16.4116 5.94868 16.5233C6.93466 16.6349 7.84394 17.1091 8.49989 17.8536V9.49989C8.49989 8.43902 8.92132 7.42161 9.67146 6.67146C10.4216 5.92131 11.439 5.49989 12.4999 5.49989C13.5608 5.49989 14.5782 5.92131 15.3283 6.67146C16.0785 7.42161 16.4999 8.43902 16.4999 9.49989V12.6249C17.3937 12.3942 18.3399 12.4797 19.1778 12.867C20.0158 13.2543 20.694 13.9196 21.0974 14.7499C21.7028 14.5232 22.3542 14.4467 22.9957 14.5268C23.6372 14.6069 24.2497 14.8413 24.7808 15.21C25.3118 15.5786 25.7457 16.0705 26.0451 16.6434C26.3445 17.2164 26.5005 17.8534 26.4999 18.4999ZM31.0599 5.93864L27.0599 1.93864C26.7781 1.65684 26.3959 1.49854 25.9974 1.49854C25.5989 1.49854 25.2167 1.65684 24.9349 1.93864C24.6531 2.22043 24.4948 2.60262 24.4948 3.00114C24.4948 3.39965 24.6531 3.78184 24.9349 4.06364L26.3749 5.49989H20.9999C20.6021 5.49989 20.2205 5.65792 19.9392 5.93923C19.6579 6.22053 19.4999 6.60206 19.4999 6.99989C19.4999 7.39771 19.6579 7.77924 19.9392 8.06055C20.2205 8.34185 20.6021 8.49989 20.9999 8.49989H26.3749L24.9386 9.93864C24.7991 10.0782 24.6884 10.2438 24.6129 10.4261C24.5374 10.6084 24.4985 10.8038 24.4985 11.0011C24.4985 11.3997 24.6568 11.7818 24.9386 12.0636C25.2204 12.3454 25.6026 12.5037 26.0011 12.5037C26.1985 12.5037 26.3939 12.4649 26.5762 12.3894C26.7585 12.3138 26.9241 12.2032 27.0636 12.0636L31.0636 8.06364C31.2032 7.92404 31.3139 7.75825 31.3893 7.57579C31.4647 7.39333 31.5033 7.19778 31.503 7.00036C31.5026 6.80294 31.4633 6.60753 31.3873 6.42533C31.3112 6.24314 31.2 6.07774 31.0599 5.93864Z" fill="black"/>
</svg>
