<svg width="32" height="32" viewBox="0 0 32 32" fill="none" xmlns="http://www.w3.org/2000/svg">
<path d="M18 23C18 23.3956 17.8827 23.7823 17.6629 24.1112C17.4432 24.4401 17.1308 24.6964 16.7654 24.8478C16.3999 24.9992 15.9978 25.0388 15.6098 24.9616C15.2219 24.8844 14.8655 24.6939 14.5858 24.4142C14.3061 24.1345 14.1156 23.7782 14.0384 23.3902C13.9613 23.0022 14.0009 22.6001 14.1522 22.2347C14.3036 21.8692 14.56 21.5568 14.8889 21.3371C15.2178 21.1173 15.6044 21 16 21C16.5304 21 17.0391 21.2107 17.4142 21.5858C17.7893 21.9609 18 22.4696 18 23ZM27.5 14.5V19C27.5 22.05 26.2884 24.9751 24.1317 27.1318C21.9751 29.2884 19.05 30.5 16 30.5C12.95 30.5 10.0249 29.2884 7.86827 27.1318C5.7116 24.9751 4.5 22.05 4.5 19V9.50002C4.49969 8.88938 4.6392 8.28678 4.90782 7.73839C5.17644 7.19001 5.56705 6.71041 6.04971 6.33635C6.53237 5.96229 7.09427 5.7037 7.69233 5.5804C8.2904 5.4571 8.90875 5.47236 9.5 5.62502V5.50002C9.49913 4.59453 9.8055 3.71554 10.369 3.00677C10.9326 2.298 11.7199 1.80141 12.6023 1.59819C13.4847 1.39498 14.4099 1.49716 15.2267 1.88804C16.0435 2.27892 16.7035 2.93536 17.0988 3.75002C17.7041 3.52361 18.3553 3.44726 18.9967 3.52751C19.638 3.60776 20.2503 3.84222 20.7812 4.21083C21.3121 4.57943 21.7458 5.0712 22.0452 5.64403C22.3445 6.21686 22.5006 6.8537 22.5 7.50002V10.625C23.0913 10.4724 23.7096 10.4571 24.3077 10.5804C24.9057 10.7037 25.4676 10.9623 25.9503 11.3363C26.4329 11.7104 26.8236 12.19 27.0922 12.7384C27.3608 13.2868 27.5003 13.8894 27.5 14.5ZM24.5 14.5C24.5 14.2348 24.3946 13.9805 24.2071 13.7929C24.0196 13.6054 23.7652 13.5 23.5 13.5C23.2348 13.5 22.9804 13.6054 22.7929 13.7929C22.6054 13.9805 22.5 14.2348 22.5 14.5C22.5 14.8978 22.342 15.2794 22.0607 15.5607C21.7794 15.842 21.3978 16 21 16C20.6022 16 20.2206 15.842 19.9393 15.5607C19.658 15.2794 19.5 14.8978 19.5 14.5V7.50002C19.5 7.23481 19.3946 6.98045 19.2071 6.79292C19.0196 6.60538 18.7652 6.50002 18.5 6.50002C18.2348 6.50002 17.9804 6.60538 17.7929 6.79292C17.6054 6.98045 17.5 7.23481 17.5 7.50002V13C17.5 13.3978 17.342 13.7794 17.0607 14.0607C16.7794 14.342 16.3978 14.5 16 14.5C15.6022 14.5 15.2206 14.342 14.9393 14.0607C14.658 13.7794 14.5 13.3978 14.5 13V5.50002C14.5 5.23481 14.3946 4.98045 14.2071 4.79292C14.0196 4.60538 13.7652 4.50002 13.5 4.50002C13.2348 4.50002 12.9804 4.60538 12.7929 4.79292C12.6054 4.98045 12.5 5.23481 12.5 5.50002V14C12.5 14.3978 12.342 14.7794 12.0607 15.0607C11.7794 15.342 11.3978 15.5 11 15.5C10.6022 15.5 10.2206 15.342 9.93934 15.0607C9.65804 14.7794 9.5 14.3978 9.5 14V9.50002C9.5 9.23481 9.39464 8.98045 9.20711 8.79292C9.01957 8.60538 8.76522 8.50002 8.5 8.50002C8.23478 8.50002 7.98043 8.60538 7.79289 8.79292C7.60536 8.98045 7.5 9.23481 7.5 9.50002V19C7.5 21.2544 8.39553 23.4164 9.98959 25.0104C11.5837 26.6045 13.7457 27.5 16 27.5C18.2543 27.5 20.4163 26.6045 22.0104 25.0104C23.6045 23.4164 24.5 21.2544 24.5 19V14.5ZM16 16C14.7091 15.9969 13.4426 16.3521 12.3416 17.0261C11.2405 17.7001 10.3481 18.6664 9.76375 19.8175C9.58816 20.1712 9.55908 20.5798 9.68282 20.9547C9.80655 21.3296 10.0731 21.6407 10.4247 21.8203C10.7763 22 11.1845 22.0338 11.5609 21.9144C11.9372 21.795 12.2513 21.532 12.435 21.1825C12.7702 20.526 13.2803 19.9749 13.9089 19.59C14.5376 19.2052 15.2604 19.0015 15.9975 19.0015C16.7346 19.0015 17.4574 19.2052 18.0861 19.59C18.7147 19.9749 19.2248 20.526 19.56 21.1825C19.6862 21.4294 19.8783 21.6366 20.1151 21.7809C20.3518 21.9252 20.624 22.001 20.9013 22C21.1383 22.0004 21.3719 21.9438 21.5825 21.835C21.9367 21.6541 22.2045 21.3399 22.3271 20.9616C22.4497 20.5833 22.417 20.1718 22.2362 19.8175C21.6519 18.6664 20.7595 17.7001 19.6584 17.0261C18.5574 16.3521 17.2909 15.9969 16 16Z" fill="black"/>
</svg>
