<svg width="32" height="32" viewBox="0 0 32 32" fill="none" xmlns="http://www.w3.org/2000/svg">
<path d="M30.4826 24.7062L28.7013 9.70623C28.6276 9.09727 28.3333 8.53644 27.8739 8.12987C27.4146 7.72331 26.8222 7.49921 26.2088 7.49998H22.4788C22.3469 5.87232 21.6071 4.35396 20.4067 3.24688C19.2062 2.13981 17.6331 1.52515 16.0001 1.52515C14.3671 1.52515 12.7939 2.13981 11.5935 3.24688C10.393 4.35396 9.65325 5.87232 9.52131 7.49998H5.79131C5.17791 7.49921 4.5855 7.72331 4.12618 8.12987C3.66686 8.53644 3.37251 9.09727 3.29881 9.70623L1.51756 24.7062C1.47598 25.0577 1.50949 25.414 1.61589 25.7516C1.72229 26.0891 1.89914 26.4002 2.13476 26.6643C2.37038 26.9284 2.65939 27.1395 2.98267 27.2835C3.30596 27.4276 3.65614 27.5014 4.01006 27.5H27.9901C28.344 27.5014 28.6942 27.4276 29.0175 27.2835C29.3407 27.1395 29.6297 26.9284 29.8654 26.6643C30.101 26.4002 30.2778 26.0891 30.3842 25.7516C30.4906 25.414 30.5242 25.0577 30.4826 24.7062ZM16.0001 4.49998C16.8416 4.50007 17.655 4.80338 18.2911 5.35435C18.9273 5.90531 19.3436 6.66704 19.4638 7.49998H12.5363C12.6565 6.66704 13.0729 5.90531 13.709 5.35435C14.3451 4.80338 15.1585 4.50007 16.0001 4.49998ZM4.56256 24.5L6.22631 10.5H9.50006V13C9.50006 13.3978 9.6581 13.7793 9.9394 14.0606C10.2207 14.3419 10.6022 14.5 11.0001 14.5C11.3979 14.5 11.7794 14.3419 12.0607 14.0606C12.342 13.7793 12.5001 13.3978 12.5001 13V10.5H19.5001V13C19.5001 13.3978 19.6581 13.7793 19.9394 14.0606C20.2207 14.3419 20.6022 14.5 21.0001 14.5C21.3979 14.5 21.7794 14.3419 22.0607 14.0606C22.342 13.7793 22.5001 13.3978 22.5001 13V10.5H25.7738L27.4376 24.5H4.56256Z" fill="black"/>
</svg>
