<svg width="32" height="32" viewBox="0 0 32 32" fill="none" xmlns="http://www.w3.org/2000/svg">
<path d="M15.4599 27.3638C15.3788 27.6883 15.1915 27.9763 14.9279 28.1822C14.6643 28.3881 14.3394 28.4999 14.0049 28.5C13.8819 28.4997 13.7593 28.4846 13.6399 28.455L9.6399 27.455C9.47333 27.4144 9.31513 27.345 9.1724 27.25L6.1724 25.25C5.84088 25.0292 5.61065 24.6858 5.53235 24.2952C5.45406 23.9047 5.53411 23.499 5.7549 23.1675C5.9757 22.836 6.31914 22.6057 6.70969 22.5275C7.10023 22.4492 7.50588 22.5292 7.8374 22.75L10.6212 24.6063L14.3712 25.5438C14.7568 25.6408 15.0882 25.8871 15.2923 26.2283C15.4965 26.5696 15.5568 26.978 15.4599 27.3638ZM31.8799 15.3438C31.7772 15.6552 31.6139 15.9432 31.3993 16.1912C31.1848 16.4392 30.9233 16.6423 30.6299 16.7888L27.7712 18.2188L21.0737 25.06C20.8905 25.2433 20.6629 25.3761 20.4132 25.4453C20.1635 25.5145 19.9001 25.5179 19.6487 25.455L11.6487 23.455C11.461 23.4077 11.284 23.3249 11.1274 23.2113L4.3799 18.285L1.3874 16.785C1.0932 16.6388 0.830705 16.436 0.614916 16.1883C0.399127 15.9406 0.23428 15.6528 0.129798 15.3413C0.0253165 15.0298 -0.0167501 14.7008 0.00600332 14.3731C0.0287567 14.0453 0.115884 13.7253 0.262404 13.4313L3.3799 7.22375C3.67652 6.63089 4.19646 6.18012 4.82538 5.97056C5.45431 5.76099 6.14071 5.8098 6.73365 6.10625L9.3074 7.395L15.5837 5.56C15.8588 5.48 16.151 5.48 16.4262 5.56L22.7024 7.395L25.2812 6.105C25.8737 5.81022 26.559 5.76245 27.1868 5.97217C27.8145 6.18189 28.3335 6.63198 28.6299 7.22375L31.7362 13.435C31.8852 13.7278 31.9747 14.0473 31.9994 14.375C32.0241 14.7026 31.9835 15.0319 31.8799 15.3438ZM25.0424 16.75L21.9174 10.5H18.6124L13.8374 15.1313C15.8074 16.0388 17.7324 15.155 18.9399 13.9375C19.2007 13.6754 19.549 13.5188 19.9181 13.4978C20.2873 13.4768 20.6511 13.5929 20.9399 13.8238L24.8474 16.9488L25.0424 16.75ZM3.17615 14.3288L4.4924 14.9875L7.15115 9.67125L5.83365 9.0125L3.17615 14.3288ZM22.7549 19.125L20.0424 16.9463C17.4812 18.8575 14.3112 19.045 11.6674 17.3525C11.3519 17.1514 11.0856 16.8821 10.8881 16.5644C10.6905 16.2467 10.5668 15.8888 10.526 15.5169C10.4852 15.145 10.5284 14.7687 10.6524 14.4158C10.7764 14.0628 10.978 13.7422 11.2424 13.4775L11.2574 13.4625L16.2324 8.625L16.0049 8.5625L10.2124 10.2563L7.0724 16.5363L12.6537 20.6163L19.5449 22.3388L22.7549 19.125ZM28.8287 14.33L26.1762 9.0125L24.8587 9.67125L27.5174 14.9875L28.8287 14.33Z" fill="black"/>
</svg>
