<svg width="32" height="32" viewBox="0 0 32 32" fill="none" xmlns="http://www.w3.org/2000/svg">
<path d="M23.5 10.5C23.1627 10.4994 22.8267 10.5414 22.5 10.625V7.50002C22.5006 6.8537 22.3445 6.21686 22.0452 5.64403C21.7458 5.0712 21.3121 4.57943 20.7812 4.21083C20.2503 3.84222 19.638 3.60776 18.9967 3.52751C18.3553 3.44726 17.7041 3.52361 17.0988 3.75002C16.7035 2.93536 16.0435 2.27892 15.2267 1.88804C14.4099 1.49716 13.4847 1.39498 12.6023 1.59819C11.7199 1.80141 10.9326 2.298 10.369 3.00677C9.8055 3.71554 9.49913 4.59453 9.5 5.50002V5.62502C8.90875 5.47236 8.2904 5.4571 7.69233 5.5804C7.09427 5.7037 6.53237 5.96229 6.04971 6.33635C5.56705 6.71041 5.17644 7.19001 4.90782 7.73839C4.6392 8.28678 4.49969 8.88938 4.5 9.50002V19C4.5 22.05 5.7116 24.9751 7.86827 27.1318C10.0249 29.2884 12.95 30.5 16 30.5C19.05 30.5 21.9751 29.2884 24.1317 27.1318C26.2884 24.9751 27.5 22.05 27.5 19V14.5C27.5 13.4392 27.0786 12.4217 26.3284 11.6716C25.5783 10.9215 24.5609 10.5 23.5 10.5ZM24.5 19C24.5 21.2544 23.6045 23.4164 22.0104 25.0104C20.4163 26.6045 18.2543 27.5 16 27.5C13.7457 27.5 11.5837 26.6045 9.98959 25.0104C8.39553 23.4164 7.5 21.2544 7.5 19V9.50002C7.5 9.23481 7.60536 8.98045 7.79289 8.79292C7.98043 8.60538 8.23478 8.50002 8.5 8.50002C8.76522 8.50002 9.01957 8.60538 9.20711 8.79292C9.39464 8.98045 9.5 9.23481 9.5 9.50002V15C9.5 15.3978 9.65804 15.7794 9.93934 16.0607C10.2206 16.342 10.6022 16.5 11 16.5C11.3978 16.5 11.7794 16.342 12.0607 16.0607C12.342 15.7794 12.5 15.3978 12.5 15V5.50002C12.5 5.23481 12.6054 4.98045 12.7929 4.79292C12.9804 4.60538 13.2348 4.50002 13.5 4.50002C13.7652 4.50002 14.0196 4.60538 14.2071 4.79292C14.3946 4.98045 14.5 5.23481 14.5 5.50002V14C14.5 14.3978 14.658 14.7794 14.9393 15.0607C15.2206 15.342 15.6022 15.5 16 15.5C16.3978 15.5 16.7794 15.342 17.0607 15.0607C17.342 14.7794 17.5 14.3978 17.5 14V7.50002C17.5 7.23481 17.6054 6.98045 17.7929 6.79292C17.9804 6.60538 18.2348 6.50002 18.5 6.50002C18.7652 6.50002 19.0196 6.60538 19.2071 6.79292C19.3946 6.98045 19.5 7.23481 19.5 7.50002V15.675C18.0773 16.0145 16.8103 16.8231 15.9033 17.9705C14.9962 19.118 14.5019 20.5374 14.5 22C14.5 22.3979 14.658 22.7794 14.9393 23.0607C15.2206 23.342 15.6022 23.5 16 23.5C16.3978 23.5 16.7794 23.342 17.0607 23.0607C17.342 22.7794 17.5 22.3979 17.5 22C17.5 21.0718 17.8687 20.1815 18.5251 19.5252C19.1815 18.8688 20.0717 18.5 21 18.5C21.3978 18.5 21.7794 18.342 22.0607 18.0607C22.342 17.7794 22.5 17.3978 22.5 17V14.5C22.5 14.2348 22.6054 13.9805 22.7929 13.7929C22.9804 13.6054 23.2348 13.5 23.5 13.5C23.7652 13.5 24.0196 13.6054 24.2071 13.7929C24.3946 13.9805 24.5 14.2348 24.5 14.5V19Z" fill="black"/>
</svg>
