<svg width="32" height="32" viewBox="0 0 32 32" fill="none" xmlns="http://www.w3.org/2000/svg">
<path d="M29.769 22.1475L25.3277 17.7063L20.8065 2.78755C20.663 2.31214 20.4114 1.87638 20.0715 1.51436C19.7316 1.15235 19.3125 0.873895 18.847 0.70079C18.3816 0.527685 17.8824 0.464624 17.3885 0.51654C16.8947 0.568456 16.4195 0.733941 16.0002 1.00005C15.581 0.733941 15.1058 0.568456 14.6119 0.51654C14.118 0.464624 13.6189 0.527685 13.1534 0.70079C12.688 0.873895 12.2689 1.15235 11.929 1.51436C11.589 1.87638 11.3375 2.31214 11.194 2.78755L6.67273 17.7063L2.23148 22.1475C1.7628 22.6164 1.49951 23.2521 1.49951 23.915C1.49951 24.578 1.7628 25.2137 2.23148 25.6825L6.31773 29.7688C6.78655 30.2375 7.42232 30.5008 8.08523 30.5008C8.74814 30.5008 9.38391 30.2375 9.85273 29.7688L15.889 23.7338C15.9277 23.695 15.964 23.6563 16.0002 23.6163C16.0365 23.6563 16.0727 23.695 16.1115 23.7338L22.1477 29.7688C22.6165 30.2375 23.2523 30.5008 23.9152 30.5008C24.5781 30.5008 25.2139 30.2375 25.6827 29.7688L29.769 25.6825C30.2377 25.2137 30.5009 24.578 30.5009 23.915C30.5009 23.2521 30.2377 22.6164 29.769 22.1475ZM8.08523 27.2938L4.71023 23.9188L6.08523 22.5438L9.46023 25.9188L8.08523 27.2938ZM14.5002 19.8438C14.5012 20.1722 14.4369 20.4976 14.3112 20.801C14.1855 21.1044 14.0007 21.3798 13.7677 21.6113L11.5852 23.7938L8.21023 20.4188L9.06398 19.565C9.23871 19.3909 9.36755 19.1762 9.43898 18.94L14.064 3.6613C14.0797 3.61054 14.1131 3.56709 14.1581 3.53882C14.2032 3.51056 14.2568 3.49933 14.3094 3.50719C14.3619 3.51504 14.4099 3.54146 14.4447 3.58165C14.4795 3.62184 14.4988 3.67315 14.499 3.7263L14.5002 19.8438ZM20.4377 23.8163L18.2327 21.6113C17.9997 21.3798 17.815 21.1044 17.6893 20.801C17.5635 20.4976 17.4993 20.1722 17.5002 19.8438V3.7188C17.5005 3.66565 17.5197 3.61434 17.5545 3.57415C17.5893 3.53396 17.6373 3.50754 17.6898 3.49969C17.7424 3.49183 17.7961 3.50306 17.8411 3.53132C17.8861 3.55959 17.9195 3.60304 17.9352 3.6538L22.5602 18.9325C22.6317 19.1687 22.7605 19.3834 22.9352 19.5575L23.8852 20.5075L20.4377 23.8163ZM23.9152 27.2938L22.559 25.9388L26.0127 22.6338L27.294 23.915L23.9152 27.2938Z" fill="black"/>
</svg>
