<svg width="32" height="32" viewBox="0 0 32 32" fill="none" xmlns="http://www.w3.org/2000/svg">
<path d="M23.5 12.21V11.5C23.5 10.3065 23.0259 9.16193 22.182 8.31802C21.3381 7.47411 20.1935 7 19 7H17.5V4.5H21C21.1326 4.5 21.2598 4.55268 21.3536 4.64645C21.4473 4.74021 21.5 4.86739 21.5 5C21.5 5.39782 21.658 5.77936 21.9393 6.06066C22.2206 6.34196 22.6022 6.5 23 6.5C23.3978 6.5 23.7794 6.34196 24.0607 6.06066C24.342 5.77936 24.5 5.39782 24.5 5C24.5 4.07174 24.1313 3.1815 23.4749 2.52513C22.8185 1.86875 21.9283 1.5 21 1.5H13C12.6022 1.5 12.2206 1.65804 11.9393 1.93934C11.658 2.22064 11.5 2.60218 11.5 3C11.5 3.39782 11.658 3.77936 11.9393 4.06066C12.2206 4.34196 12.6022 4.5 13 4.5H14.5V7H13C11.8065 7 10.6619 7.47411 9.81802 8.31802C8.97411 9.16193 8.5 10.3065 8.5 11.5V12.21C7.3491 12.5375 6.33619 13.231 5.61448 14.1854C4.89278 15.1399 4.50156 16.3034 4.5 17.5V27C4.5 27.663 4.76339 28.2989 5.23223 28.7678C5.70107 29.2366 6.33696 29.5 7 29.5H25C25.663 29.5 26.2989 29.2366 26.7678 28.7678C27.2366 28.2989 27.5 27.663 27.5 27V17.5C27.4984 16.3034 27.1072 15.1399 26.3855 14.1854C25.6638 13.231 24.6509 12.5375 23.5 12.21ZM13 10H19C19.3978 10 19.7794 10.158 20.0607 10.4393C20.342 10.7206 20.5 11.1022 20.5 11.5V12H11.5V11.5C11.5 11.1022 11.658 10.7206 11.9393 10.4393C12.2206 10.158 12.6022 10 13 10ZM24.5 26.5H7.5V17.5C7.5 16.837 7.76339 16.2011 8.23223 15.7322C8.70107 15.2634 9.33696 15 10 15H22C22.663 15 23.2989 15.2634 23.7678 15.7322C24.2366 16.2011 24.5 16.837 24.5 17.5V26.5Z" fill="black"/>
</svg>
