<svg width="32" height="32" viewBox="0 0 32 32" fill="none" xmlns="http://www.w3.org/2000/svg">
<path d="M26 4.5H6C5.33696 4.5 4.70107 4.76339 4.23223 5.23223C3.76339 5.70107 3.5 6.33696 3.5 7V25C3.5 25.663 3.76339 26.2989 4.23223 26.7678C4.70107 27.2366 5.33696 27.5 6 27.5H26C26.663 27.5 27.2989 27.2366 27.7678 26.7678C28.2366 26.2989 28.5 25.663 28.5 25V7C28.5 6.33696 28.2366 5.70107 27.7678 5.23223C27.2989 4.76339 26.663 4.5 26 4.5ZM25.5 7.5V14.5H6.5V7.5H25.5ZM6.5 24.5V17.5H25.5V24.5H6.5ZM20 11C20 10.6044 20.1173 10.2178 20.3371 9.88886C20.5568 9.55996 20.8692 9.30362 21.2346 9.15224C21.6001 9.00087 22.0022 8.96126 22.3902 9.03843C22.7781 9.1156 23.1345 9.30608 23.4142 9.58579C23.6939 9.86549 23.8844 10.2219 23.9616 10.6098C24.0387 10.9978 23.9991 11.3999 23.8478 11.7654C23.6964 12.1308 23.44 12.4432 23.1111 12.6629C22.7822 12.8827 22.3956 13 22 13C21.4696 13 20.9609 12.7893 20.5858 12.4142C20.2107 12.0391 20 11.5304 20 11ZM24 21C24 21.3956 23.8827 21.7822 23.6629 22.1111C23.4432 22.44 23.1308 22.6964 22.7654 22.8478C22.3999 22.9991 21.9978 23.0387 21.6098 22.9616C21.2219 22.8844 20.8655 22.6939 20.5858 22.4142C20.3061 22.1345 20.1156 21.7781 20.0384 21.3902C19.9613 21.0022 20.0009 20.6001 20.1522 20.2346C20.3036 19.8692 20.56 19.5568 20.8889 19.3371C21.2178 19.1173 21.6044 19 22 19C22.5304 19 23.0391 19.2107 23.4142 19.5858C23.7893 19.9609 24 20.4696 24 21Z" fill="black"/>
</svg>
