<svg width="32" height="32" viewBox="0 0 32 32" fill="none" xmlns="http://www.w3.org/2000/svg">
<path d="M28 7.5H4C3.33696 7.5 2.70107 7.76339 2.23223 8.23223C1.76339 8.70107 1.5 9.33696 1.5 10V22C1.5 22.663 1.76339 23.2989 2.23223 23.7678C2.70107 24.2366 3.33696 24.5 4 24.5H28C28.663 24.5 29.2989 24.2366 29.7678 23.7678C30.2366 23.2989 30.5 22.663 30.5 22V10C30.5 9.33696 30.2366 8.70107 29.7678 8.23223C29.2989 7.76339 28.663 7.5 28 7.5ZM27.5 21.5H4.5V10.5H27.5V21.5ZM20.5 16C20.5 15.6044 20.6173 15.2178 20.8371 14.8889C21.0568 14.56 21.3692 14.3036 21.7346 14.1522C22.1001 14.0009 22.5022 13.9613 22.8902 14.0384C23.2781 14.1156 23.6345 14.3061 23.9142 14.5858C24.1939 14.8655 24.3844 15.2219 24.4616 15.6098C24.5387 15.9978 24.4991 16.3999 24.3478 16.7654C24.1964 17.1308 23.94 17.4432 23.6111 17.6629C23.2822 17.8827 22.8956 18 22.5 18C21.9696 18 21.4609 17.7893 21.0858 17.4142C20.7107 17.0391 20.5 16.5304 20.5 16Z" fill="black"/>
</svg>
