<svg width="32" height="32" viewBox="0 0 32 32" fill="none" xmlns="http://www.w3.org/2000/svg">
<path d="M27 18.5H21.5V13.5H27C27.3978 13.5 27.7794 13.342 28.0607 13.0607C28.342 12.7794 28.5 12.3978 28.5 12C28.5 11.6022 28.342 11.2206 28.0607 10.9393C27.7794 10.658 27.3978 10.5 27 10.5H21.5V5C21.5 4.60218 21.342 4.22064 21.0607 3.93934C20.7794 3.65804 20.3978 3.5 20 3.5C19.6022 3.5 19.2206 3.65804 18.9393 3.93934C18.658 4.22064 18.5 4.60218 18.5 5V10.5H13.5V5C13.5 4.60218 13.342 4.22064 13.0607 3.93934C12.7794 3.65804 12.3978 3.5 12 3.5C11.6022 3.5 11.2206 3.65804 10.9393 3.93934C10.658 4.22064 10.5 4.60218 10.5 5V10.5H5C4.60218 10.5 4.22064 10.658 3.93934 10.9393C3.65804 11.2206 3.5 11.6022 3.5 12C3.5 12.3978 3.65804 12.7794 3.93934 13.0607C4.22064 13.342 4.60218 13.5 5 13.5H10.5V18.5H5C4.60218 18.5 4.22064 18.658 3.93934 18.9393C3.65804 19.2206 3.5 19.6022 3.5 20C3.5 20.3978 3.65804 20.7794 3.93934 21.0607C4.22064 21.342 4.60218 21.5 5 21.5H10.5V27C10.5 27.3978 10.658 27.7794 10.9393 28.0607C11.2206 28.342 11.6022 28.5 12 28.5C12.3978 28.5 12.7794 28.342 13.0607 28.0607C13.342 27.7794 13.5 27.3978 13.5 27V21.5H18.5V27C18.5 27.3978 18.658 27.7794 18.9393 28.0607C19.2206 28.342 19.6022 28.5 20 28.5C20.3978 28.5 20.7794 28.342 21.0607 28.0607C21.342 27.7794 21.5 27.3978 21.5 27V21.5H27C27.3978 21.5 27.7794 21.342 28.0607 21.0607C28.342 20.7794 28.5 20.3978 28.5 20C28.5 19.6022 28.342 19.2206 28.0607 18.9393C27.7794 18.658 27.3978 18.5 27 18.5ZM13.5 18.5V13.5H18.5V18.5H13.5Z" fill="black"/>
</svg>
