<svg width="32" height="32" viewBox="0 0 32 32" fill="none" xmlns="http://www.w3.org/2000/svg">
<path d="M29 17V24C29 24.7956 28.6839 25.5587 28.1213 26.1213C27.5587 26.6839 26.7956 27 26 27H24C23.2044 27 22.4413 26.6839 21.8787 26.1213C21.3161 25.5587 21 24.7956 21 24V19C21 18.2043 21.3161 17.4412 21.8787 16.8786C22.4413 16.316 23.2044 16 24 16H26.9562C26.716 13.2776 25.4677 10.7431 23.456 8.89319C21.4443 7.04333 18.8142 6.0115 16.0812 5.99995H16C13.2556 5.99982 10.6103 7.02553 8.58346 8.87573C6.55656 10.7259 5.29449 13.267 5.045 16H8C8.79565 16 9.55871 16.316 10.1213 16.8786C10.6839 17.4412 11 18.2043 11 19V24C11 24.7956 10.6839 25.5587 10.1213 26.1213C9.55871 26.6839 8.79565 27 8 27H6C5.20435 27 4.44129 26.6839 3.87868 26.1213C3.31607 25.5587 3 24.7956 3 24V17C3.0028 14.4248 3.76953 11.9084 5.20313 9.76924C6.63673 7.63006 8.67275 5.96429 11.0535 4.98276C13.4342 4.00124 16.0526 3.7481 18.5773 4.25537C21.102 4.76264 23.4194 6.00753 25.2362 7.83245C26.4358 9.03784 27.3857 10.4681 28.0316 12.0412C28.6774 13.6143 29.0065 15.2994 29 17Z" fill="black"/>
</svg>
