<svg width="32" height="32" viewBox="0 0 32 32" fill="none" xmlns="http://www.w3.org/2000/svg">
<path d="M25.5912 7.48124C23.7056 5.58357 21.299 4.2885 18.6765 3.76019C16.054 3.23188 13.3337 3.49412 10.8604 4.51367C8.3871 5.53322 6.27222 7.26416 4.78383 9.48708C3.29544 11.71 2.50058 14.3248 2.5 17V24C2.5 24.9282 2.86875 25.8185 3.52513 26.4749C4.1815 27.1312 5.07174 27.5 6 27.5H8C8.92826 27.5 9.8185 27.1312 10.4749 26.4749C11.1313 25.8185 11.5 24.9282 11.5 24V19C11.5 18.0717 11.1313 17.1815 10.4749 16.5251C9.8185 15.8687 8.92826 15.5 8 15.5H5.605C5.967 13.0011 7.21685 10.7161 9.12578 9.06337C11.0347 7.41062 13.475 6.50064 16 6.49999H16.08C18.5937 6.51075 21.0196 7.4262 22.9137 9.07886C24.8078 10.7315 26.0436 13.0109 26.395 15.5H24C23.0717 15.5 22.1815 15.8687 21.5251 16.5251C20.8687 17.1815 20.5 18.0717 20.5 19V24C20.5 24.9282 20.8687 25.8185 21.5251 26.4749C22.1815 27.1312 23.0717 27.5 24 27.5H26C26.4596 27.5 26.9148 27.4095 27.3394 27.2336C27.764 27.0577 28.1499 26.7999 28.4749 26.4749C28.7999 26.1499 29.0577 25.764 29.2336 25.3394C29.4095 24.9147 29.5 24.4596 29.5 24V17C29.5069 15.2342 29.1651 13.4844 28.4944 11.851C27.8236 10.2176 26.8371 8.73261 25.5912 7.48124ZM8 18.5C8.13261 18.5 8.25979 18.5527 8.35355 18.6464C8.44732 18.7402 8.5 18.8674 8.5 19V24C8.5 24.1326 8.44732 24.2598 8.35355 24.3535C8.25979 24.4473 8.13261 24.5 8 24.5H6C5.86739 24.5 5.74021 24.4473 5.64645 24.3535C5.55268 24.2598 5.5 24.1326 5.5 24V18.5H8ZM26.5 24C26.5 24.1326 26.4473 24.2598 26.3536 24.3535C26.2598 24.4473 26.1326 24.5 26 24.5H24C23.8674 24.5 23.7402 24.4473 23.6464 24.3535C23.5527 24.2598 23.5 24.1326 23.5 24V19C23.5 18.8674 23.5527 18.7402 23.6464 18.6464C23.7402 18.5527 23.8674 18.5 24 18.5H26.5V24Z" fill="black"/>
</svg>
