<svg width="32" height="32" viewBox="0 0 32 32" fill="none" xmlns="http://www.w3.org/2000/svg">
<path d="M20.5 10C20.5 9.86739 20.5527 9.74021 20.6464 9.64645C20.7402 9.55268 20.8674 9.5 21 9.5H30C30.1326 9.5 30.2598 9.55268 30.3536 9.64645C30.4473 9.74021 30.5 9.86739 30.5 10C30.5 10.1326 30.4473 10.2598 30.3536 10.3536C30.2598 10.4473 30.1326 10.5 30 10.5H21C20.8674 10.5 20.7402 10.4473 20.6464 10.3536C20.5527 10.2598 20.5 10.1326 20.5 10ZM30 21.5H21C20.8674 21.5 20.7402 21.5527 20.6464 21.6464C20.5527 21.7402 20.5 21.8674 20.5 22C20.5 22.1326 20.5527 22.2598 20.6464 22.3536C20.7402 22.4473 20.8674 22.5 21 22.5H30C30.1326 22.5 30.2598 22.4473 30.3536 22.3536C30.4473 22.2598 30.5 22.1326 30.5 22C30.5 21.8674 30.4473 21.7402 30.3536 21.6464C30.2598 21.5527 30.1326 21.5 30 21.5ZM30 13.5H21C20.8674 13.5 20.7402 13.5527 20.6464 13.6464C20.5527 13.7402 20.5 13.8674 20.5 14C20.5 14.1326 20.5527 14.2598 20.6464 14.3536C20.7402 14.4473 20.8674 14.5 21 14.5H30C30.1326 14.5 30.2598 14.4473 30.3536 14.3536C30.4473 14.2598 30.5 14.1326 30.5 14C30.5 13.8674 30.4473 13.7402 30.3536 13.6464C30.2598 13.5527 30.1326 13.5 30 13.5ZM30 17.5H21C20.8674 17.5 20.7402 17.5527 20.6464 17.6464C20.5527 17.7402 20.5 17.8674 20.5 18C20.5 18.1326 20.5527 18.2598 20.6464 18.3536C20.7402 18.4473 20.8674 18.5 21 18.5H30C30.1326 18.5 30.2598 18.4473 30.3536 18.3536C30.4473 18.2598 30.5 18.1326 30.5 18C30.5 17.8674 30.4473 17.7402 30.3536 17.6464C30.2598 17.5527 30.1326 17.5 30 17.5ZM17.5 8V24C17.5 24.3978 17.342 24.7794 17.0607 25.0607C16.7794 25.342 16.3978 25.5 16 25.5H11C9.74632 25.5 8.50503 25.2519 7.34769 24.77C6.19034 24.288 5.13983 23.5818 4.25672 22.6919C3.37361 21.8021 2.67537 20.7462 2.20223 19.5853C1.7291 18.4243 1.49043 17.1811 1.5 15.9275C1.53875 10.7287 5.85125 6.5 11.1125 6.5H16C16.3978 6.5 16.7794 6.65804 17.0607 6.93934C17.342 7.22064 17.5 7.60218 17.5 8ZM16.5 8C16.5 7.86739 16.4473 7.74021 16.3536 7.64645C16.2598 7.55268 16.1326 7.5 16 7.5H11.1125C6.39875 7.5 2.535 11.2838 2.5 15.935C2.49142 17.0567 2.70495 18.169 3.12827 19.2078C3.5516 20.2466 4.17634 21.1913 4.9665 21.9875C5.75665 22.7837 6.69658 23.4156 7.73211 23.8468C8.76764 24.278 9.87828 24.5 11 24.5H16C16.1326 24.5 16.2598 24.4473 16.3536 24.3536C16.4473 24.2598 16.5 24.1326 16.5 24V8Z" fill="black"/>
</svg>
