<svg width="32" height="32" viewBox="0 0 32 32" fill="none" xmlns="http://www.w3.org/2000/svg">
<path d="M20.5 10C20.5 9.60218 20.658 9.22064 20.9393 8.93934C21.2206 8.65804 21.6022 8.5 22 8.5H30C30.3978 8.5 30.7793 8.65804 31.0606 8.93934C31.342 9.22064 31.5 9.60218 31.5 10C31.5 10.3978 31.342 10.7794 31.0606 11.0607C30.7793 11.342 30.3978 11.5 30 11.5H22C21.6022 11.5 21.2206 11.342 20.9393 11.0607C20.658 10.7794 20.5 10.3978 20.5 10ZM30 20.5H22C21.6022 20.5 21.2206 20.658 20.9393 20.9393C20.658 21.2206 20.5 21.6022 20.5 22C20.5 22.3978 20.658 22.7794 20.9393 23.0607C21.2206 23.342 21.6022 23.5 22 23.5H30C30.3978 23.5 30.7793 23.342 31.0606 23.0607C31.342 22.7794 31.5 22.3978 31.5 22C31.5 21.6022 31.342 21.2206 31.0606 20.9393C30.7793 20.658 30.3978 20.5 30 20.5ZM30 14.5H22C21.6022 14.5 21.2206 14.658 20.9393 14.9393C20.658 15.2206 20.5 15.6022 20.5 16C20.5 16.3978 20.658 16.7794 20.9393 17.0607C21.2206 17.342 21.6022 17.5 22 17.5H30C30.3978 17.5 30.7793 17.342 31.0606 17.0607C31.342 16.7794 31.5 16.3978 31.5 16C31.5 15.6022 31.342 15.2206 31.0606 14.9393C30.7793 14.658 30.3978 14.5 30 14.5ZM18.5 8V24C18.5 24.663 18.2366 25.2989 17.7678 25.7678C17.2989 26.2366 16.663 26.5 16 26.5H11C9.61446 26.5 8.24262 26.2259 6.96354 25.6933C5.68446 25.1607 4.52344 24.3802 3.54739 23.3968C2.57134 22.4135 1.79956 21.2466 1.27654 19.9636C0.753519 18.6806 0.489599 17.3067 0.49999 15.9213C0.54249 10.175 5.30374 5.5 11.1125 5.5H16C16.663 5.5 17.2989 5.76339 17.7678 6.23223C18.2366 6.70107 18.5 7.33696 18.5 8ZM15.5 8.5H11.1125C6.94624 8.5 3.53124 11.8387 3.49999 15.9425C3.4924 16.9322 3.68079 17.9137 4.05431 18.8303C4.42782 19.7469 4.97906 20.5805 5.67626 21.283C6.37345 21.9856 7.20281 22.5431 8.11652 22.9236C9.03023 23.3041 10.0102 23.5 11 23.5H15.5V8.5Z" fill="black"/>
</svg>
