<svg width="32" height="32" viewBox="0 0 32 32" fill="none" xmlns="http://www.w3.org/2000/svg">
<path d="M29 16V26C29 27.326 28.4732 28.5978 27.5355 29.5355C26.5979 30.4732 25.3261 31 24 31H17C16.7348 31 16.4804 30.8946 16.2929 30.7071C16.1054 30.5195 16 30.2652 16 30C16 29.7347 16.1054 29.4804 16.2929 29.2928C16.4804 29.1053 16.7348 29 17 29H24C24.7956 29 25.5587 28.6839 26.1213 28.1213C26.6839 27.5587 27 26.7956 27 26H24C23.2044 26 22.4413 25.6839 21.8787 25.1213C21.3161 24.5587 21 23.7956 21 23V18C21 17.2043 21.3161 16.4412 21.8787 15.8786C22.4413 15.316 23.2044 15 24 15H26.9562C26.767 12.9211 25.9902 10.9391 24.7165 9.28526C23.4428 7.63146 21.7248 6.37421 19.7633 5.66037C17.8017 4.94652 15.6775 4.80555 13.6388 5.25391C11.6001 5.70228 9.73107 6.72148 8.25 8.19245C6.40832 10.0098 5.2724 12.4226 5.045 15H8C8.79565 15 9.55871 15.316 10.1213 15.8786C10.6839 16.4412 11 17.2043 11 18V23C11 23.7956 10.6839 24.5587 10.1213 25.1213C9.55871 25.6839 8.79565 26 8 26H6C5.20435 26 4.44129 25.6839 3.87868 25.1213C3.31607 24.5587 3 23.7956 3 23V16C3.0028 13.4248 3.76953 10.9084 5.20313 8.76924C6.63673 6.63006 8.67275 4.96429 11.0535 3.98276C13.4342 3.00124 16.0526 2.7481 18.5773 3.25537C21.102 3.76264 23.4194 5.00753 25.2362 6.83245C26.4358 8.03784 27.3857 9.46806 28.0316 11.0412C28.6774 12.6143 29.0065 14.2994 29 16Z" fill="black"/>
</svg>
