<svg width="32" height="32" viewBox="0 0 32 32" fill="none" xmlns="http://www.w3.org/2000/svg">
<path d="M21.2763 6.59C21.6673 6.51673 22.0132 6.29113 22.2379 5.96283C22.4626 5.63452 22.5476 5.2304 22.4744 4.83938C22.4011 4.44835 22.1755 4.10244 21.8472 3.87775C21.5189 3.65305 21.1148 3.56798 20.7237 3.64125C18.8125 4 17.1863 4.9 16.01 6.2075C14.5 4.5 12.2675 3.5 9.75 3.5C7.56278 3.50265 5.46589 4.37269 3.91929 5.91929C2.37269 7.46589 1.50265 9.56278 1.5 11.75C1.5 15.625 3.86375 19.625 8.525 23.6087C10.6228 25.3934 12.8879 26.9715 15.2887 28.3213C15.5076 28.4383 15.7518 28.4997 16 28.5C16.2482 28.4992 16.4922 28.4365 16.71 28.3175C18.5271 27.2992 20.2668 26.1486 21.915 24.875C22.2148 24.6272 22.4067 24.2727 22.4501 23.8861C22.4935 23.4996 22.3851 23.1113 22.1477 22.8032C21.9102 22.4951 21.5624 22.2913 21.1776 22.2347C20.7928 22.1781 20.401 22.2732 20.085 22.5C19.15 23.22 18.2563 23.84 17.5 24.335V9.31875C18.1787 7.90375 19.5388 6.915 21.2763 6.59ZM14.5 24.3325C13.0823 23.4073 11.725 22.3928 10.4362 21.295C7.7275 18.9713 4.5 15.4275 4.5 11.75C4.5 10.3576 5.05312 9.02225 6.03769 8.03769C7.02225 7.05312 8.35761 6.5 9.75 6.5C11.875 6.5 13.6687 7.57125 14.5 9.315V24.3325ZM29.125 12.4913C28.9292 12.513 28.731 12.4959 28.5417 12.441C28.3525 12.3861 28.1759 12.2944 28.0221 12.1713C27.8683 12.0481 27.7403 11.8958 27.6453 11.7232C27.5504 11.5505 27.4904 11.3609 27.4688 11.165C27.3846 10.4049 27.1349 9.67251 26.7373 9.01925C26.3398 8.36599 25.8039 7.80774 25.1675 7.38375C24.836 7.16263 24.6059 6.81886 24.5278 6.42808C24.4498 6.0373 24.5301 5.63152 24.7512 5.3C24.9724 4.96848 25.3161 4.73838 25.7069 4.66032C26.0977 4.58225 26.5035 4.66263 26.835 4.88375C27.8359 5.55122 28.6783 6.43 29.3029 7.45823C29.9275 8.48645 30.319 9.6391 30.45 10.835C30.4939 11.2303 30.3789 11.6269 30.1305 11.9375C29.882 12.2481 29.5203 12.4473 29.125 12.4913ZM29.25 16.6688C28.52 18.1338 27.4587 19.6225 26.0963 21.0975C25.8243 21.3817 25.4516 21.5476 25.0584 21.5597C24.6653 21.5717 24.2831 21.4288 23.9943 21.1618C23.7055 20.8948 23.5331 20.525 23.5143 20.1321C23.4955 19.7392 23.6318 19.3546 23.8937 19.0613C25.0637 17.795 25.9625 16.54 26.5662 15.3313C26.6503 15.1488 26.7701 14.985 26.9186 14.8497C27.067 14.7145 27.2412 14.6104 27.4307 14.5437C27.6202 14.477 27.8211 14.449 28.0216 14.4614C28.2221 14.4739 28.4181 14.5264 28.5979 14.616C28.7776 14.7056 28.9376 14.8304 29.0682 14.983C29.1989 15.1356 29.2975 15.3129 29.3584 15.5044C29.4192 15.6958 29.4409 15.8975 29.4223 16.0976C29.4037 16.2976 29.3451 16.4918 29.25 16.6688Z" fill="black"/>
</svg>
