<svg width="32" height="32" viewBox="0 0 32 32" fill="none" xmlns="http://www.w3.org/2000/svg">
<path d="M8.96984 17.5H3.96234C3.56451 17.5 3.18298 17.342 2.90168 17.0607C2.62037 16.7794 2.46234 16.3978 2.46234 16C2.46234 15.6022 2.62037 15.2207 2.90168 14.9393C3.18298 14.658 3.56451 14.5 3.96234 14.5H8.16609L9.72234 12.1675C9.85916 11.9612 10.0449 11.792 10.263 11.675C10.4811 11.5579 10.7248 11.4967 10.9723 11.4967C11.2199 11.4967 11.4635 11.5579 11.6817 11.675C11.8998 11.792 12.0855 11.9612 12.2223 12.1675L14.9723 16.2925L15.7223 15.1675C15.8595 14.9619 16.0455 14.7933 16.2635 14.6768C16.4816 14.5604 16.7251 14.4996 16.9723 14.5H19.9723C20.3702 14.5 20.7517 14.658 21.033 14.9393C21.3143 15.2207 21.4723 15.6022 21.4723 16C21.4723 16.3978 21.3143 16.7794 21.033 17.0607C20.7517 17.342 20.3702 17.5 19.9723 17.5H17.7723L16.2148 19.8325C16.078 20.0388 15.8923 20.208 15.6742 20.325C15.456 20.4421 15.2124 20.5034 14.9648 20.5034C14.7173 20.5034 14.4736 20.4421 14.2555 20.325C14.0374 20.208 13.8517 20.0388 13.7148 19.8325L10.9648 15.7075L10.2148 16.8325C10.0781 17.0375 9.89297 17.2056 9.67583 17.322C9.45869 17.4384 9.21622 17.4996 8.96984 17.5ZM22.2386 3.50001C19.7236 3.50001 17.4886 4.49126 15.9798 6.19501C14.4673 4.49126 12.2361 3.50001 9.71984 3.50001C7.68814 3.49702 5.72679 4.24382 4.21159 5.59733C2.69639 6.95083 1.73392 8.81585 1.50859 10.835C1.48692 11.0314 1.50415 11.2302 1.55929 11.4199C1.61443 11.6097 1.70641 11.7867 1.82997 11.9409C2.07951 12.2523 2.44255 12.4519 2.83921 12.4956C3.23588 12.5394 3.63368 12.4238 3.9451 12.1742C4.09931 12.0507 4.22766 11.898 4.32285 11.7248C4.41803 11.5516 4.47817 11.3614 4.49984 11.165C4.64375 9.88149 5.25574 8.69607 6.21877 7.83543C7.1818 6.9748 8.42828 6.49935 9.71984 6.50001C11.9486 6.50001 13.8136 7.67501 14.5886 9.56751C14.7006 9.84455 14.8928 10.0818 15.1406 10.2489C15.3884 10.416 15.6804 10.5052 15.9792 10.5052C16.278 10.5052 16.5701 10.416 16.8178 10.2489C17.0656 10.0818 17.2578 9.84455 17.3698 9.56751C18.1448 7.67501 20.0098 6.50001 22.2386 6.50001C23.6321 6.49968 24.9688 7.05233 25.9552 8.03665C26.9417 9.02096 27.4972 10.3565 27.4998 11.75C27.4998 15.4275 24.2673 18.9713 21.5548 21.295C19.8111 22.773 17.9471 24.103 15.9823 25.2713C14.6236 24.465 11.5611 22.5213 8.91859 19.93C8.77807 19.7918 8.61171 19.6826 8.429 19.6087C8.24629 19.5348 8.0508 19.4976 7.85371 19.4992C7.65662 19.5008 7.46178 19.5412 7.28031 19.6182C7.09884 19.6951 6.9343 19.807 6.79609 19.9475C6.65787 20.088 6.54868 20.2544 6.47476 20.4371C6.40084 20.6198 6.36363 20.8153 6.36525 21.0124C6.36853 21.4104 6.5298 21.7909 6.81359 22.07C10.6123 25.7963 15.0823 28.22 15.2711 28.32C15.49 28.4373 15.7346 28.4987 15.983 28.4987C16.2313 28.4987 16.4759 28.4373 16.6948 28.32C17.2498 28.0175 30.4998 20.7925 30.4998 11.75C30.4959 9.56124 29.6239 7.46343 28.0751 5.91679C26.5264 4.37015 24.4274 3.501 22.2386 3.50001Z" fill="black"/>
</svg>
