<svg width="32" height="32" viewBox="0 0 32 32" fill="none" xmlns="http://www.w3.org/2000/svg">
<path d="M28.23 6.76622C26.7784 5.31894 24.8131 4.50487 22.7634 4.50183C20.7136 4.49878 18.7459 5.30701 17.29 6.74997L16 7.94747L14.71 6.74997C13.2546 5.29825 11.2822 4.48412 9.22653 4.4867C7.1709 4.48928 5.20048 5.30835 3.74875 6.76372C2.29703 8.2191 1.4829 10.1916 1.48548 12.2472C1.48806 14.3028 2.30713 16.2732 3.7625 17.725L14.9313 29.0562C15.0708 29.198 15.2372 29.3105 15.4207 29.3873C15.6042 29.4642 15.8011 29.5037 16 29.5037C16.1989 29.5037 16.3958 29.4642 16.5793 29.3873C16.7628 29.3105 16.9292 29.198 17.0688 29.0562L28.23 17.7325C28.95 17.0128 29.5212 16.1583 29.9108 15.2178C30.3005 14.2773 30.5011 13.2692 30.5011 12.2512C30.5011 11.2332 30.3005 10.2252 29.9108 9.28466C29.5212 8.34417 28.95 7.48967 28.23 6.76997V6.76622ZM26.105 15.615L16 25.8625L5.89125 15.6062C5.00351 14.7148 4.50566 13.5076 4.50697 12.2495C4.50827 10.9914 5.00861 9.78527 5.89821 8.89568C6.7878 8.00609 7.99397 7.50574 9.25204 7.50444C10.5101 7.50313 11.7173 8.00098 12.6088 8.88872C12.6213 8.90122 12.6338 8.91372 12.6475 8.92497L14.9775 11.095C15.2552 11.3537 15.6205 11.4975 16 11.4975C16.3795 11.4975 16.7449 11.3537 17.0225 11.095L19.3525 8.92497C19.3663 8.91372 19.3788 8.90122 19.3913 8.88872C19.8329 8.44814 20.357 8.09886 20.9337 7.86082C21.5103 7.62279 22.1282 7.50066 22.752 7.50142C23.3758 7.50217 23.9934 7.62579 24.5695 7.86522C25.1455 8.10465 25.6688 8.4552 26.1094 8.89685C26.55 9.3385 26.8992 9.86261 27.1373 10.4392C27.3753 11.0159 27.4974 11.6338 27.4967 12.2576C27.4959 12.8814 27.3723 13.499 27.1329 14.0751C26.8935 14.6511 26.5429 15.1744 26.1013 15.615H26.105Z" fill="black"/>
</svg>
