<svg width="32" height="32" viewBox="0 0 32 32" fill="none" xmlns="http://www.w3.org/2000/svg">
<path d="M22.25 3.5C21.1662 3.49723 20.0926 3.70934 19.0912 4.12408C18.0899 4.53882 17.1807 5.14795 16.4163 5.91625L16 6.3325L15.5837 5.91625C14.43 4.76242 12.9599 3.97664 11.3596 3.65829C9.75919 3.33995 8.10035 3.50332 6.59283 4.12777C5.08531 4.75221 3.79682 5.80967 2.8903 7.16642C1.98378 8.52317 1.49995 10.1183 1.5 11.75C1.5 20.7925 14.7262 28.0175 15.2887 28.3212C15.5073 28.439 15.7517 28.5006 16 28.5006C16.2483 28.5006 16.4927 28.439 16.7113 28.3212C17.2738 28.0175 30.5 20.7925 30.5 11.75C30.4974 9.56277 29.6273 7.46589 28.0807 5.91929C26.5341 4.37269 24.4372 3.50264 22.25 3.5ZM21.5637 21.295C19.8228 22.7723 17.9618 24.1019 16 25.27C14.0382 24.1019 12.1772 22.7723 10.4362 21.295C7.7275 18.9712 4.5 15.4275 4.5 11.75C4.49993 10.7116 4.80779 9.69648 5.38466 8.83306C5.96154 7.96963 6.7815 7.29666 7.74086 6.89927C8.70022 6.50188 9.75588 6.39791 10.7743 6.60052C11.7928 6.80312 12.7283 7.3032 13.4625 8.0375L13.875 8.45375L12.935 9.39375C12.7952 9.5331 12.6842 9.69869 12.6085 9.88102C12.5328 10.0633 12.4938 10.2588 12.4938 10.4562C12.4938 10.6537 12.5328 10.8491 12.6085 11.0315C12.6842 11.2138 12.7952 11.3794 12.935 11.5187L15.6475 14.2312L13.935 15.9425C13.6532 16.2243 13.4949 16.6065 13.4949 17.005C13.4949 17.4035 13.6532 17.7857 13.935 18.0675C14.2168 18.3493 14.599 18.5076 14.9975 18.5076C15.396 18.5076 15.7782 18.3493 16.06 18.0675L18.8325 15.2937C18.9723 15.1544 19.0833 14.9888 19.159 14.8065C19.2347 14.6241 19.2737 14.4287 19.2737 14.2312C19.2737 14.0338 19.2347 13.8383 19.159 13.656C19.0833 13.4737 18.9723 13.3081 18.8325 13.1687L16.125 10.4537L18.5375 8.0375C19.2717 7.3032 20.2072 6.80312 21.2257 6.60052C22.2441 6.39791 23.2998 6.50188 24.2591 6.89927C25.2185 7.29666 26.0385 7.96963 26.6153 8.83306C27.1922 9.69648 27.5001 10.7116 27.5 11.75C27.5 15.4275 24.2725 18.9712 21.5637 21.295Z" fill="black"/>
</svg>
