<svg width="32" height="32" viewBox="0 0 32 32" fill="none" xmlns="http://www.w3.org/2000/svg">
<path opacity="0.08" d="M27.17 16.67L16 28L4.82997 16.67C3.65771 15.4977 2.99915 13.9078 2.99915 12.25C2.99915 10.5921 3.65771 9.00223 4.82997 7.82997C6.00223 6.65771 7.59215 5.99915 9.24997 5.99915C10.9078 5.99915 12.4977 6.65771 13.67 7.82997L16 9.99997L18.33 7.82997C18.9104 7.24953 19.5995 6.78909 20.3579 6.47496C21.1163 6.16083 21.9291 5.99915 22.75 5.99915C23.5708 5.99915 24.3837 6.16083 25.1421 6.47496C25.9004 6.78909 26.5895 7.24953 27.17 7.82997C27.7504 8.41041 28.2108 9.0995 28.525 9.85788C28.8391 10.6163 29.0008 11.4291 29.0008 12.25C29.0008 13.0708 28.8391 13.8837 28.525 14.6421C28.2108 15.4004 27.7504 16.0895 27.17 16.67Z" fill="black"/>
<path d="M27.8749 7.12502C26.5164 5.76984 24.6764 5.00775 22.7575 5.00541C20.8386 5.00307 18.9968 5.76066 17.6349 7.11252L15.9999 8.63127L14.3637 7.10752C13.0021 5.74978 11.157 4.98852 9.23416 4.99122C7.31133 4.99391 5.46832 5.76034 4.11057 7.1219C2.75283 8.48345 1.99157 10.3286 1.99427 12.2514C1.99697 14.1743 2.76339 16.0173 4.12495 17.375L15.2937 28.7075C15.3867 28.802 15.4977 28.877 15.62 28.9283C15.7423 28.9795 15.8736 29.0058 16.0062 29.0058C16.1388 29.0058 16.2701 28.9795 16.3924 28.9283C16.5147 28.877 16.6256 28.802 16.7187 28.7075L27.8749 17.375C29.2337 16.0155 29.9969 14.1721 29.9969 12.25C29.9969 10.3279 29.2337 8.48454 27.8749 7.12502ZM26.4562 15.97L15.9999 26.575L5.53745 15.96C4.55283 14.9754 3.99968 13.64 3.99968 12.2475C3.99968 10.8551 4.55283 9.51964 5.53745 8.53502C6.52207 7.55041 7.85749 6.99725 9.24995 6.99725C10.6424 6.99725 11.9778 7.55041 12.9624 8.53502L12.9874 8.56002L15.3187 10.7288C15.5038 10.901 15.7472 10.9967 15.9999 10.9967C16.2527 10.9967 16.4961 10.901 16.6812 10.7288L19.0124 8.56002L19.0374 8.53502C20.0227 7.55107 21.3585 6.99882 22.751 6.99975C24.1434 7.00069 25.4785 7.55474 26.4624 8.54002C27.4464 9.5253 27.9987 10.8611 27.9977 12.2536C27.9968 13.646 27.4427 14.9811 26.4574 15.965L26.4562 15.97Z" fill="black"/>
</svg>
