<svg width="32" height="32" viewBox="0 0 32 32" fill="none" xmlns="http://www.w3.org/2000/svg">
<path d="M28.23 6.76998C26.7783 5.31835 24.81 4.502 22.7571 4.50013C20.7041 4.49825 18.7343 5.311 17.28 6.75998L16 7.99248L14.72 6.75998C13.2636 5.31967 11.2963 4.51447 9.24802 4.52038C7.19974 4.52629 5.23709 5.34283 3.78906 6.79152C2.34103 8.24021 1.52539 10.2032 1.52041 12.2515C1.51543 14.2998 2.32153 16.2668 3.7625 17.7225L14.9313 29.0525C15.0708 29.1942 15.2372 29.3068 15.4207 29.3836C15.6042 29.4604 15.8011 29.5 16 29.5C16.1989 29.5 16.3958 29.4604 16.5793 29.3836C16.7628 29.3068 16.9292 29.1942 17.0688 29.0525L28.23 17.73C29.6834 16.2766 30.4998 14.3054 30.4998 12.25C30.4998 10.1946 29.6834 8.22338 28.23 6.76998ZM26.105 15.6162L16.0038 25.8662L5.895 15.6162C5.45242 15.1755 5.10112 14.6518 4.86119 14.0751C4.62127 13.4984 4.49744 12.88 4.49679 12.2554C4.49615 11.6308 4.61869 11.0122 4.85742 10.435C5.09615 9.85786 5.44637 9.33342 5.88803 8.89176C6.3297 8.45009 6.85413 8.09988 7.43132 7.86115C8.0085 7.62242 8.62711 7.49987 9.25171 7.50052C9.87632 7.50117 10.4947 7.625 11.0714 7.86492C11.648 8.10484 12.1718 8.45615 12.6125 8.89873L12.6325 8.91873L13.8413 10.0825L12.9663 10.9275C12.8226 11.0657 12.7079 11.2312 12.6289 11.4142C12.5499 11.5973 12.5082 11.7943 12.5062 11.9936C12.5042 12.193 12.542 12.3908 12.6173 12.5754C12.6927 12.76 12.8041 12.9277 12.945 13.0687L15.875 16L14.935 16.9387C14.6532 17.2205 14.4949 17.6027 14.4949 18.0012C14.4949 18.3997 14.6532 18.7819 14.935 19.0637C15.2168 19.3455 15.599 19.5038 15.9975 19.5038C16.396 19.5038 16.7782 19.3455 17.06 19.0637L19.06 17.0637C19.1998 16.9244 19.3108 16.7588 19.3865 16.5765C19.4622 16.3941 19.5012 16.1986 19.5012 16.0012C19.5012 15.8038 19.4622 15.6083 19.3865 15.426C19.3108 15.2437 19.1998 15.0781 19.06 14.9387L16.1413 12.02L19.375 8.91123L19.395 8.89123C19.8363 8.44938 20.3604 8.09888 20.9373 7.85979C21.5142 7.6207 22.1326 7.49772 22.757 7.49787C23.3815 7.49802 23.9998 7.62131 24.5766 7.86068C25.1534 8.10005 25.6773 8.4508 26.1184 8.89286C26.5595 9.33493 26.909 9.85963 27.1471 10.4369C27.3852 11.0143 27.5071 11.6328 27.5059 12.2573C27.5046 12.8818 27.3803 13.4999 27.1399 14.0763C26.8995 14.6526 26.5478 15.1759 26.105 15.6162Z" fill="black"/>
</svg>
