<svg width="32" height="32" viewBox="0 0 32 32" fill="none" xmlns="http://www.w3.org/2000/svg">
<path d="M28.2 7.82991L17.2 1.80866C16.8324 1.60634 16.4196 1.50024 16 1.50024C15.5804 1.50024 15.1676 1.60634 14.8 1.80866L3.8 7.82991C3.4064 8.04527 3.078 8.36258 2.84927 8.74857C2.62054 9.13456 2.4999 9.57499 2.5 10.0237V21.9762C2.4999 22.4248 2.62054 22.8653 2.84927 23.2512C3.078 23.6372 3.4064 23.9545 3.8 24.1699L14.8 30.1912C15.1675 30.3937 15.5804 30.4999 16 30.4999C16.4196 30.4999 16.8325 30.3937 17.2 30.1912L28.2 24.1699C28.5936 23.9545 28.922 23.6372 29.1507 23.2512C29.3795 22.8653 29.5001 22.4248 29.5 21.9762V10.0237C29.5001 9.57499 29.3795 9.13456 29.1507 8.74857C28.922 8.36258 28.5936 8.04527 28.2 7.82991ZM26.5 21.6799L16 27.4299L5.5 21.6799V10.3199L16 4.56991L26.5 10.3199V21.6799Z" fill="black"/>
</svg>
