<svg width="32" height="32" viewBox="0 0 32 32" fill="none" xmlns="http://www.w3.org/2000/svg">
<path d="M25.5463 6.44877C23.338 4.24035 20.4323 2.86588 17.3243 2.55952C14.2163 2.25315 11.0982 3.03385 8.50124 4.7686C5.90428 6.50336 3.98911 9.08485 3.082 12.0733C2.17489 15.0617 2.33197 18.2722 3.52647 21.1578C4.72097 24.0434 6.879 26.4257 9.63291 27.8986C12.3868 29.3716 15.5662 29.8442 18.6295 29.2358C21.6927 28.6275 24.4503 26.976 26.4325 24.5626C28.4146 22.1491 29.4987 19.1231 29.5 16C29.5 12.4181 28.0779 8.98272 25.5463 6.44877ZM17.5 17H14.5V13.9238L17.5 12.4238V17ZM12.5 25.9063V20H19.5V25.9063C17.2341 26.6996 14.7659 26.6996 12.5 25.9063ZM23.425 23.4263C23.1329 23.717 22.824 23.9904 22.5 24.245V19.5C22.5001 18.9237 22.3011 18.365 21.9367 17.9186C21.5722 17.4721 21.0647 17.1653 20.5 17.05V10C20.5 9.74431 20.4346 9.49285 20.31 9.26953C20.1855 9.04621 20.0059 8.85844 19.7883 8.72405C19.5708 8.58966 19.3225 8.51312 19.067 8.5017C18.8116 8.49027 18.5574 8.54434 18.3288 8.65877L12.3288 11.6588C12.0797 11.7834 11.8703 11.9748 11.7239 12.2117C11.5776 12.4486 11.5 12.7216 11.5 13V17.0513C10.9355 17.1665 10.4282 17.4731 10.0637 17.9193C9.69931 18.3655 9.50017 18.9239 9.5 19.5V24.25C9.17597 23.9954 8.8671 23.722 8.575 23.4313C7.10666 21.9628 6.10674 20.0919 5.70168 18.0551C5.29662 16.0183 5.50462 13.9072 6.29937 11.9886C7.09412 10.07 8.43993 8.43023 10.1666 7.27652C11.8933 6.12282 13.9233 5.50703 16 5.50703C18.0767 5.50703 20.1067 6.12282 21.8334 7.27652C23.5601 8.43023 24.9059 10.07 25.7006 11.9886C26.4954 13.9072 26.7034 16.0183 26.2983 18.0551C25.8933 20.0919 24.8933 21.9628 23.425 23.4313V23.4263Z" fill="black"/>
</svg>
