<svg width="32" height="32" viewBox="0 0 32 32" fill="none" xmlns="http://www.w3.org/2000/svg">
<path d="M28.7612 21.0111L22.25 19.5436L8.35375 5.64614C8.30595 5.59836 8.24896 5.56076 8.18623 5.53563C8.1235 5.51049 8.05632 5.49833 7.98875 5.49989C7.92128 5.50144 7.85482 5.51664 7.79338 5.54457C7.73194 5.5725 7.67679 5.61258 7.63125 5.66239C4.9675 8.57489 3.5 12.2499 3.5 15.9999V24.9999C3.5 25.3977 3.65804 25.7792 3.93934 26.0605C4.22064 26.3419 4.60218 26.4999 5 26.4999H9C9.39782 26.4999 9.77936 26.3419 10.0607 26.0605C10.342 25.7792 10.5 25.3977 10.5 24.9999V18.0449C13.6501 19.6321 16.1187 22.3066 17.4487 25.5736C17.5616 25.8493 17.7544 26.0849 18.0024 26.25C18.2504 26.4151 18.5421 26.5021 18.84 26.4999H30C30.3978 26.4999 30.7794 26.3419 31.0607 26.0605C31.342 25.7792 31.5 25.3977 31.5 24.9999V24.4086C31.5017 23.6143 31.2306 22.8435 30.7321 22.225C30.2336 21.6066 29.5378 21.1781 28.7612 21.0111ZM9.5 24.9999C9.5 25.1325 9.44732 25.2597 9.35355 25.3534C9.25979 25.4472 9.13261 25.4999 9 25.4999H5C4.86739 25.4999 4.74021 25.4472 4.64645 25.3534C4.55268 25.2597 4.5 25.1325 4.5 24.9999V16.5099C6.21771 16.567 7.91123 16.932 9.5 17.5874V24.9999ZM30.5 24.9999C30.5 25.1325 30.4473 25.2597 30.3536 25.3534C30.2598 25.4472 30.1326 25.4999 30 25.4999H18.84C18.7415 25.5008 18.6449 25.4725 18.5624 25.4187C18.4799 25.3649 18.4152 25.2879 18.3762 25.1974C17.2301 22.3746 15.2797 19.9509 12.7675 18.2274C10.3332 16.546 7.46579 15.6021 4.50875 15.5086C4.625 12.3424 5.85875 9.25864 8.0225 6.72989L21.6475 20.3549C21.7162 20.4227 21.803 20.4691 21.8975 20.4886L28.55 21.9886C29.1035 22.1085 29.5991 22.4148 29.9541 22.8561C30.309 23.2975 30.5017 23.8473 30.5 24.4136V24.9999Z" fill="black"/>
</svg>
