<svg width="32" height="32" viewBox="0 0 32 32" fill="none" xmlns="http://www.w3.org/2000/svg">
<path d="M11 21.5226V25.0001C11 25.5305 10.7893 26.0393 10.4142 26.4143C10.0391 26.7894 9.53043 27.0001 9 27.0001H5C4.46957 27.0001 3.96086 26.7894 3.58579 26.4143C3.21071 26.0393 3 25.5305 3 25.0001V19.5001C3 19.3675 3.05268 19.2403 3.14645 19.1466C3.24021 19.0528 3.36739 19.0001 3.5 19.0001H4C6.42283 18.9971 8.78895 19.7332 10.7825 21.1101C10.8501 21.1555 10.9054 21.2169 10.9433 21.2889C10.9813 21.3609 11.0008 21.4412 11 21.5226ZM28.875 20.5226L22.5 19.0876L8.7075 5.29261C8.57213 5.15688 8.40059 5.06292 8.21333 5.02192C8.02606 4.98092 7.83095 4.99461 7.65125 5.06136C7.49725 5.12167 7.35974 5.21763 7.25 5.34136C4.5075 8.34386 3 12.1251 3 16.0001V16.5001C3 16.6327 3.05268 16.7599 3.14645 16.8537C3.24021 16.9474 3.36739 17.0001 3.5 17.0001H4C6.45887 16.9966 8.87456 17.6463 11 18.8826C11.31 19.0639 11.6138 19.2576 11.9125 19.4601C14.1825 21.018 15.945 23.2082 16.9813 25.7589C17.1309 26.1283 17.3881 26.4442 17.7196 26.6655C18.0511 26.8869 18.4414 27.0034 18.84 27.0001H30C30.5304 27.0001 31.0391 26.7894 31.4142 26.4143C31.7893 26.0393 32 25.5305 32 25.0001V24.4089C32.0023 23.5015 31.6933 22.6208 31.1246 21.9137C30.5558 21.2067 29.7618 20.7161 28.875 20.5239V20.5226Z" fill="black"/>
</svg>
