<svg width="32" height="32" viewBox="0 0 32 32" fill="none" xmlns="http://www.w3.org/2000/svg">
<path opacity="0.08" d="M24.4849 24.4849C23.4773 25.495 22.297 26.3167 20.9999 26.9112V18.9999C20.9999 18.7347 20.8946 18.4803 20.7071 18.2928C20.5195 18.1053 20.2652 17.9999 19.9999 17.9999H18.9999V8.99991L12.9999 11.9999V17.9999H11.9999C11.7347 17.9999 11.4804 18.1053 11.2928 18.2928C11.1053 18.4803 10.9999 18.7347 10.9999 18.9999V26.9112C8.67673 25.8469 6.75393 24.0687 5.51154 21.8357C4.26915 19.6026 3.77204 17.0313 4.09262 14.4961C4.41319 11.9609 5.5347 9.59419 7.29384 7.74068C9.05297 5.88717 11.3579 4.64362 13.8729 4.19112C16.3879 3.73861 18.9817 4.10078 21.2766 5.22488C23.5714 6.34899 25.4475 8.17632 26.6317 10.4408C27.8158 12.7053 28.2462 15.2886 27.86 17.8147C27.4739 20.3407 26.2915 22.6776 24.4849 24.4849Z" fill="black"/>
<path d="M25.1925 6.80741C22.7545 4.36941 19.4479 2.99976 16 2.99976C12.5522 2.99976 9.24554 4.36941 6.80754 6.80741C4.36953 9.24542 2.99988 12.5521 2.99988 15.9999C2.99988 19.4478 4.36953 22.7544 6.80754 25.1924C9.24554 27.6304 12.5522 29.0001 16 29.0001C19.4479 29.0001 22.7545 27.6304 25.1925 25.1924C27.6305 22.7544 29.0002 19.4478 29.0002 15.9999C29.0002 12.5521 27.6305 9.24542 25.1925 6.80741ZM12 26.2499V18.9999H20V26.2499C17.4271 27.25 14.5729 27.25 12 26.2499ZM18 16.9999H14V12.6174L18 10.6174V16.9999ZM23.7775 23.7774C23.2368 24.3191 22.6411 24.803 22 25.2212V18.9999C22 18.4695 21.7893 17.9608 21.4142 17.5857C21.0392 17.2106 20.5305 16.9999 20 16.9999V8.99991C20.0002 8.82937 19.9567 8.66163 19.8737 8.51263C19.7907 8.36364 19.671 8.23834 19.5259 8.14865C19.3809 8.05896 19.2153 8.00786 19.0449 8.00021C18.8746 7.99255 18.7051 8.02859 18.5525 8.10491L12.5525 11.1049C12.3864 11.1881 12.2467 11.3158 12.1491 11.4739C12.0515 11.632 11.9999 11.8141 12 11.9999V16.9999C11.4696 16.9999 10.9609 17.2106 10.5858 17.5857C10.2108 17.9608 10 18.4695 10 18.9999V25.2212C8.09439 23.9815 6.61963 22.1819 5.77861 20.0698C4.93758 17.9578 4.77161 15.637 5.30351 13.4267C5.83541 11.2165 7.03906 9.22529 8.7489 7.72709C10.4587 6.22889 12.5908 5.29725 14.8518 5.06032C17.1128 4.82339 19.3916 5.29281 21.3749 6.40401C23.3582 7.51521 24.9485 9.2136 25.927 11.2656C26.9055 13.3176 27.2243 15.6223 26.8394 17.8629C26.4545 20.1034 25.3848 22.1697 23.7775 23.7774Z" fill="black"/>
</svg>
