<svg width="32" height="32" viewBox="0 0 32 32" fill="none" xmlns="http://www.w3.org/2000/svg">
<path d="M24.8388 7.16114C23.6799 5.99207 22.3015 5.0634 20.7828 4.42846C19.264 3.79352 17.6348 3.46482 15.9887 3.46121C14.3426 3.45761 12.7119 3.77918 11.1904 4.40746C9.66889 5.03574 8.28646 5.95836 7.12247 7.12235C5.95848 8.28634 5.03586 9.66877 4.40758 11.1903C3.7793 12.7118 3.45773 14.3424 3.46133 15.9886C3.46494 17.6347 3.79365 19.2639 4.42858 20.7826C5.06352 22.3014 5.99219 23.6798 7.16126 24.8386C8.32014 26.0077 9.69853 26.9364 11.2173 27.5713C12.736 28.2063 14.3652 28.535 16.0114 28.5386C17.6575 28.5422 19.2881 28.2206 20.8096 27.5923C22.3311 26.964 23.7136 26.0414 24.8776 24.8774C26.0415 23.7134 26.9642 22.331 27.5924 20.8095C28.2207 19.288 28.5423 17.6574 28.5387 16.0112C28.5351 14.3651 28.2064 12.7359 27.5714 11.2172C26.9365 9.6984 26.0078 8.32002 24.8388 7.16114ZM11.5 26.5874V18.9999C11.5 18.8673 11.5527 18.7401 11.6465 18.6463C11.7402 18.5526 11.8674 18.4999 12 18.4999H20C20.1326 18.4999 20.2598 18.5526 20.3536 18.6463C20.4473 18.7401 20.5 18.8673 20.5 18.9999V26.5874C19.0762 27.1896 17.546 27.4999 16 27.4999C14.4541 27.4999 12.9239 27.1896 11.5 26.5874ZM18.5 17.4999H13.5V12.3086L18.5 9.80864V17.4999ZM24.1313 24.1311C23.3532 24.9113 22.4671 25.5756 21.5 26.1036V18.9999C21.5 18.6021 21.342 18.2205 21.0607 17.9392C20.7794 17.6579 20.3978 17.4999 20 17.4999H19.5V8.99989C19.5001 8.91462 19.4783 8.83075 19.4368 8.75625C19.3953 8.68175 19.3355 8.6191 19.263 8.57426C19.1904 8.52942 19.1076 8.50386 19.0225 8.50004C18.9373 8.49621 18.8525 8.51423 18.7763 8.55239L12.7763 11.5524C12.6932 11.594 12.6233 11.6578 12.5746 11.7369C12.5258 11.8159 12.4999 11.907 12.5 11.9999V17.4999H12C11.6022 17.4999 11.2207 17.6579 10.9394 17.9392C10.658 18.2205 10.5 18.6021 10.5 18.9999V26.1036C8.37866 24.9493 6.67457 23.1564 5.62938 20.9792C4.58419 18.802 4.25097 16.351 4.67696 13.9738C5.10295 11.5966 6.26654 9.41386 8.00271 7.73508C9.73889 6.0563 11.9595 4.96672 14.3497 4.62085C16.7399 4.27498 19.1783 4.69037 21.3191 5.80813C23.46 6.92589 25.1946 8.68927 26.277 10.8482C27.3594 13.0072 27.7346 15.4521 27.3495 17.8362C26.9643 20.2204 25.8384 22.4228 24.1313 24.1311Z" fill="black"/>
</svg>
