<svg width="32" height="32" viewBox="0 0 32 32" fill="none" xmlns="http://www.w3.org/2000/svg">
<path d="M28.4912 20.0386L22.7638 18.6424L9.06125 4.93863C8.91795 4.79539 8.74713 4.68267 8.55907 4.60727C8.37102 4.53186 8.16964 4.49534 7.96708 4.49989C7.76453 4.50445 7.56499 4.54999 7.38052 4.63377C7.19605 4.71756 7.03046 4.83785 6.89375 4.98738C4.06 8.08488 2.5 11.9999 2.5 15.9999V24.9999C2.5 25.6629 2.76339 26.2988 3.23223 26.7676C3.70107 27.2365 4.33696 27.4999 5 27.4999H9C9.3283 27.4999 9.65339 27.4352 9.95671 27.3096C10.26 27.1839 10.5356 26.9998 10.7678 26.7676C10.9999 26.5355 11.1841 26.2599 11.3097 25.9566C11.4353 25.6533 11.5 25.3282 11.5 24.9999V19.7861L11.6337 19.8749C13.8232 21.3773 15.5231 23.4897 16.5225 25.9499C16.7098 26.4102 17.0306 26.8038 17.4437 27.0801C17.8567 27.3563 18.3431 27.5026 18.84 27.4999H29.5C30.163 27.4999 30.7989 27.2365 31.2678 26.7676C31.7366 26.2988 32 25.6629 32 24.9999V24.4086C32.0029 23.3888 31.6562 22.3989 31.0177 21.6037C30.3793 20.8085 29.4876 20.2561 28.4912 20.0386ZM8.5 24.4999H5.5V17.5836C6.52323 17.6967 7.52993 17.9278 8.5 18.2724V24.4999ZM29 24.4999H19.1688C17.9325 21.6315 15.9101 19.1714 13.335 17.4036C11.0352 15.8151 8.36732 14.8413 5.585 14.5749C5.86135 12.2767 6.73111 10.09 8.10875 8.22988L20.9387 21.0611C21.1336 21.2552 21.3778 21.3922 21.645 21.4574L27.795 22.9574L27.8263 22.9649C28.1586 23.0352 28.4566 23.2176 28.6703 23.4817C28.8841 23.7457 29.0005 24.0752 29 24.4149V24.4999Z" fill="black"/>
</svg>
