<svg width="32" height="32" viewBox="0 0 32 32" fill="none" xmlns="http://www.w3.org/2000/svg">
<path opacity="0.08" d="M31 24.4137V25C31 25.2652 30.8946 25.5196 30.7071 25.7071C30.5196 25.8946 30.2652 26 30 26H18.84C18.6419 26.0009 18.4479 25.9429 18.2828 25.8334C18.1177 25.7239 17.9888 25.5679 17.9125 25.385C15.6888 19.91 10.2975 16 4 16C4 12.125 5.57375 8.6525 8 6L22 20L28.6513 21.5C29.3159 21.6459 29.9108 22.0142 30.3379 22.544C30.7649 23.0737 30.9985 23.7333 31 24.4137Z" fill="black"/>
<path d="M28.875 20.5238L22.5 19.0888L8.7075 5.2925C8.61197 5.19701 8.49808 5.12186 8.37272 5.07159C8.24735 5.02132 8.11309 4.99697 7.97806 5.00001C7.84302 5.00305 7.71 5.03341 7.58701 5.08926C7.46403 5.14512 7.35364 5.22531 7.2625 5.325C4.51375 8.33 3 12.125 3 16V25C3 25.5304 3.21071 26.0391 3.58579 26.4142C3.96086 26.7893 4.46957 27 5 27H9C9.53043 27 10.0391 26.7893 10.4142 26.4142C10.7893 26.0391 11 25.5304 11 25V18.8825C11.3112 19.0638 11.6175 19.2575 11.9175 19.4625C14.1875 21.0204 15.95 23.2106 16.9862 25.7612C17.136 26.1294 17.3926 26.4442 17.7231 26.665C18.0535 26.8859 18.4426 27.0025 18.84 27H30C30.5304 27 31.0391 26.7893 31.4142 26.4142C31.7893 26.0391 32 25.5304 32 25V24.4088C32.0023 23.5014 31.6933 22.6206 31.1246 21.9136C30.5558 21.2066 29.7618 20.716 28.875 20.5238ZM9 25H5V17.0363C6.37007 17.1331 7.71813 17.433 9 17.9263V25ZM30 25H18.835C17.6515 22.0915 15.6405 19.5941 13.0513 17.8175C10.6818 16.1795 7.911 15.2176 5.03625 15.035C5.26173 12.2681 6.31444 9.63309 8.0575 7.4725L21.2925 20.7075C21.4264 20.841 21.5955 20.9337 21.78 20.975L28.435 22.475C28.8788 22.5694 29.2765 22.8136 29.5615 23.1667C29.8465 23.5197 30.0013 23.96 30 24.4137V25Z" fill="black"/>
</svg>
