<svg width="32" height="32" viewBox="0 0 32 32" fill="none" xmlns="http://www.w3.org/2000/svg">
<path d="M25.0151 6.98382C23.8346 5.78408 22.4283 4.82993 20.8773 4.17641C19.3263 3.52289 17.6612 3.18292 15.9781 3.17613C14.295 3.16933 12.6273 3.49584 11.071 4.13682C9.51475 4.7778 8.1008 5.72056 6.91071 6.91073C5.72063 8.10089 4.77796 9.51491 4.13709 11.0712C3.49622 12.6275 3.16983 14.2953 3.17674 15.9784C3.18365 17.6615 3.52373 19.3265 4.17736 20.8775C4.83099 22.4285 5.78524 23.8347 6.98506 25.0151C8.16549 26.2148 9.57179 27.169 11.1228 27.8225C12.6739 28.476 14.3389 28.816 16.022 28.8228C17.7051 28.8295 19.3729 28.503 20.9291 27.8621C22.4854 27.2211 23.8993 26.2783 25.0894 25.0882C26.2795 23.898 27.2222 22.484 27.863 20.9277C28.5039 19.3714 28.8303 17.7036 28.8234 16.0205C28.8165 14.3374 28.4764 12.6724 27.8228 11.1214C27.1691 9.5704 26.2149 8.16417 25.0151 6.98382ZM11.7501 26.4213V19.0001C11.7501 18.9338 11.7764 18.8702 11.8233 18.8233C11.8702 18.7764 11.9338 18.7501 12.0001 18.7501H20.0001C20.0664 18.7501 20.1299 18.7764 20.1768 18.8233C20.2237 18.8702 20.2501 18.9338 20.2501 19.0001V26.4213C17.5245 27.5264 14.4756 27.5264 11.7501 26.4213ZM18.2501 17.2501H13.7501V12.4638L18.2501 10.2138V17.2501ZM23.9551 23.9551C23.2936 24.6165 22.553 25.1938 21.7501 25.6738V19.0001C21.7501 18.5359 21.5657 18.0908 21.2375 17.7626C20.9093 17.4344 20.4642 17.2501 20.0001 17.2501H19.7501V9.00007C19.7501 8.87224 19.7175 8.74653 19.6553 8.63487C19.5931 8.5232 19.5033 8.42928 19.3946 8.36203C19.2859 8.29478 19.1619 8.25643 19.0342 8.25062C18.9065 8.2448 18.7794 8.27172 18.6651 8.32882L12.6651 11.3288C12.5403 11.3911 12.4354 11.4869 12.3621 11.6054C12.2888 11.724 12.25 11.8607 12.2501 12.0001V17.2501H12.0001C11.5359 17.2501 11.0908 17.4344 10.7626 17.7626C10.4344 18.0908 10.2501 18.5359 10.2501 19.0001V25.6738C9.44713 25.1938 8.70653 24.6165 8.04506 23.9551C6.47173 22.3817 5.40029 20.3772 4.96621 18.1949C4.53214 16.0126 4.75494 13.7506 5.60643 11.6949C6.45792 9.63928 7.89986 7.88228 9.74991 6.64612C11.6 5.40996 13.775 4.75016 16.0001 4.75016C18.2251 4.75016 20.4002 5.40996 22.2502 6.64612C24.1003 7.88228 25.5422 9.63928 26.3937 11.6949C27.2452 13.7506 27.468 16.0126 27.0339 18.1949C26.5998 20.3772 25.5284 22.3817 23.9551 23.9551Z" fill="black"/>
</svg>
