<svg width="32" height="32" viewBox="0 0 32 32" fill="none" xmlns="http://www.w3.org/2000/svg">
<path d="M30.7499 15.1675L23.7112 4.61375C23.483 4.27123 23.1737 3.99035 22.8108 3.79606C22.448 3.60177 22.0428 3.50008 21.6312 3.5H10.3749C9.96335 3.50008 9.55814 3.60177 9.19529 3.79606C8.83244 3.99035 8.52317 4.27123 8.29494 4.61375L1.24994 15.1675C1.13735 15.3362 1.06013 15.526 1.02296 15.7253C0.985794 15.9247 0.989445 16.1296 1.03369 16.3275L3.33244 26.5912C3.33244 26.6137 3.34369 26.6362 3.34994 26.6575C3.49427 27.187 3.80881 27.6542 4.24503 27.9872C4.68125 28.3202 5.21491 28.5004 5.76369 28.5H9.49994C9.82825 28.5 10.1533 28.4353 10.4567 28.3097C10.76 28.1841 11.0356 27.9999 11.2677 27.7678C11.4999 27.5356 11.684 27.26 11.8096 26.9567C11.9353 26.6534 11.9999 26.3283 11.9999 26V25H19.9999V26C19.9999 26.663 20.2633 27.2989 20.7322 27.7678C21.201 28.2366 21.8369 28.5 22.4999 28.5H26.2362C26.7845 28.4998 27.3176 28.3194 27.7534 27.9865C28.1891 27.6535 28.5032 27.1866 28.6474 26.6575C28.6474 26.6362 28.6599 26.6137 28.6649 26.5912L30.9637 16.3275C31.0083 16.1297 31.0124 15.925 30.9756 15.7256C30.9389 15.5262 30.8621 15.3364 30.7499 15.1675ZM15.9999 9.3L10.7499 6.5H21.2499L15.9999 9.3ZM9.99994 22V9.5L11.9999 10.5662V17C11.9999 17.3978 12.158 17.7794 12.4393 18.0607C12.7206 18.342 13.1021 18.5 13.4999 18.5C13.8978 18.5 14.2793 18.342 14.5606 18.0607C14.8419 17.7794 14.9999 17.3978 14.9999 17V12.1663L15.2937 12.3237C15.511 12.4397 15.7536 12.5004 15.9999 12.5004C16.2463 12.5004 16.4889 12.4397 16.7062 12.3237L16.9999 12.1663V16C16.9999 16.3978 17.158 16.7794 17.4393 17.0607C17.7206 17.342 18.1021 17.5 18.4999 17.5C18.8978 17.5 19.2793 17.342 19.5606 17.0607C19.8419 16.7794 19.9999 16.3978 19.9999 16V10.5662L21.9999 9.5V22H9.99994ZM6.16494 25.5L4.10369 16.2987L6.99994 11.9537V22.5C6.99983 23.0763 7.19883 23.635 7.56329 24.0815C7.92775 24.5279 8.43526 24.8347 8.99994 24.95V25.5H6.16494ZM25.8349 25.5H22.9999V24.95C23.5646 24.8347 24.0721 24.5279 24.4366 24.0815C24.8011 23.635 25.0001 23.0763 24.9999 22.5V11.9537L27.8962 16.2987L25.8349 25.5Z" fill="black"/>
</svg>
