<svg width="32" height="32" viewBox="0 0 32 32" fill="none" xmlns="http://www.w3.org/2000/svg">
<path d="M23 2.5H9C8.33696 2.5 7.70107 2.76339 7.23223 3.23223C6.76339 3.70107 6.5 4.33696 6.5 5V9.5C6.50096 9.88794 6.59175 10.2704 6.76524 10.6174C6.93874 10.9644 7.19023 11.2665 7.5 11.5L13.5 16L7.5 20.5C7.19023 20.7335 6.93874 21.0356 6.76524 21.3826C6.59175 21.7296 6.50096 22.1121 6.5 22.5V27C6.5 27.663 6.76339 28.2989 7.23223 28.7678C7.70107 29.2366 8.33696 29.5 9 29.5H23C23.663 29.5 24.2989 29.2366 24.7678 28.7678C25.2366 28.2989 25.5 27.663 25.5 27V22.545C25.4996 22.1577 25.4099 21.7758 25.2377 21.4289C25.0656 21.082 24.8157 20.7795 24.5075 20.545L18.4875 16L24.5075 11.45C24.8157 11.2155 25.0656 10.913 25.2377 10.5661C25.4099 10.2192 25.4996 9.83726 25.5 9.45V5C25.5 4.33696 25.2366 3.70107 24.7678 3.23223C24.2989 2.76339 23.663 2.5 23 2.5ZM22.5 5.5V7.5H9.5V5.5H22.5ZM16 14.125L11.1663 10.5H20.7913L16 14.125ZM22.5 26.5H9.5V22.75L16 17.875L22.5 22.7913V26.5Z" fill="black"/>
</svg>
