<svg width="32" height="32" viewBox="0 0 32 32" fill="none" xmlns="http://www.w3.org/2000/svg">
<path d="M27.695 12.6062L17.7013 3.17241L17.6812 3.15366C17.222 2.73335 16.622 2.50024 15.9994 2.50024C15.3768 2.50024 14.7768 2.73335 14.3175 3.15366L14.2963 3.17241L4.305 12.6062C4.05163 12.8406 3.84935 13.1248 3.71084 13.4409C3.57233 13.7571 3.50055 14.0985 3.5 14.4437V25.9999C3.5 26.663 3.76339 27.2988 4.23223 27.7677C4.70107 28.2365 5.33696 28.4999 6 28.4999H26C26.663 28.4999 27.2989 28.2365 27.7678 27.7677C28.2366 27.2988 28.5 26.663 28.5 25.9999V14.4437C28.4995 14.0985 28.4277 13.7571 28.2892 13.4409C28.1506 13.1248 27.9484 12.8406 27.695 12.6062ZM25.5 25.4999H6.5V14.6599L16 5.69116L25.5 14.6599V25.4999Z" fill="black"/>
</svg>
