<svg width="32" height="32" viewBox="0 0 32 32" fill="none" xmlns="http://www.w3.org/2000/svg">
<path d="M27.0163 13.34L17.0088 3.89126C16.7315 3.63913 16.3698 3.49995 15.995 3.50111C15.6203 3.50226 15.2595 3.64368 14.9838 3.89751L4.99125 13.3338C4.8367 13.4742 4.71317 13.6453 4.62858 13.8363C4.54399 14.0272 4.50019 14.2337 4.5 14.4425V26C4.5 26.3978 4.65804 26.7794 4.93934 27.0607C5.22064 27.342 5.60218 27.5 6 27.5H12C12.3978 27.5 12.7794 27.342 13.0607 27.0607C13.342 26.7794 13.5 26.3978 13.5 26V20C13.5 19.8674 13.5527 19.7402 13.6464 19.6465C13.7402 19.5527 13.8674 19.5 14 19.5H18C18.1326 19.5 18.2598 19.5527 18.3536 19.6465C18.4473 19.7402 18.5 19.8674 18.5 20V26C18.5 26.3978 18.658 26.7794 18.9393 27.0607C19.2206 27.342 19.6022 27.5 20 27.5H26C26.3978 27.5 26.7794 27.342 27.0607 27.0607C27.342 26.7794 27.5 26.3978 27.5 26V14.4425C27.4999 14.2353 27.4569 14.0303 27.3736 13.8406C27.2903 13.6508 27.1687 13.4804 27.0163 13.34ZM26.5 26C26.5 26.1326 26.4473 26.2598 26.3536 26.3536C26.2598 26.4473 26.1326 26.5 26 26.5H20C19.8674 26.5 19.7402 26.4473 19.6464 26.3536C19.5527 26.2598 19.5 26.1326 19.5 26V20C19.5 19.6022 19.342 19.2207 19.0607 18.9393C18.7794 18.658 18.3978 18.5 18 18.5H14C13.6022 18.5 13.2206 18.658 12.9393 18.9393C12.658 19.2207 12.5 19.6022 12.5 20V26C12.5 26.1326 12.4473 26.2598 12.3536 26.3536C12.2598 26.4473 12.1326 26.5 12 26.5H6C5.86739 26.5 5.74021 26.4473 5.64645 26.3536C5.55268 26.2598 5.5 26.1326 5.5 26V14.4425C5.50079 14.3716 5.51632 14.3017 5.54558 14.2371C5.57485 14.1726 5.61722 14.1148 5.67 14.0675L15.6625 4.63126C15.7541 4.54938 15.8727 4.50412 15.9956 4.50412C16.1185 4.50412 16.2371 4.54938 16.3288 4.63126L26.3363 14.0788C26.3884 14.1262 26.43 14.1841 26.4582 14.2487C26.4865 14.3134 26.5007 14.3832 26.5 14.4538V26Z" fill="black"/>
</svg>
