<svg width="32" height="32" viewBox="0 0 32 32" fill="none" xmlns="http://www.w3.org/2000/svg">
<path opacity="0.08" d="M27 14.4425V26C27 26.2652 26.8946 26.5196 26.7071 26.7071C26.5196 26.8946 26.2652 27 26 27H20C19.7348 27 19.4804 26.8946 19.2929 26.7071C19.1054 26.5196 19 26.2652 19 26V20C19 19.7348 18.8946 19.4804 18.7071 19.2929C18.5196 19.1053 18.2652 19 18 19H14C13.7348 19 13.4804 19.1053 13.2929 19.2929C13.1054 19.4804 13 19.7348 13 20V26C13 26.2652 12.8946 26.5196 12.7071 26.7071C12.5196 26.8946 12.2652 27 12 27H6C5.73478 27 5.48043 26.8946 5.29289 26.7071C5.10536 26.5196 5 26.2652 5 26V14.4425C5.00001 14.3031 5.02915 14.1653 5.08555 14.0379C5.14195 13.9104 5.22436 13.7962 5.3275 13.7025L15.3275 4.25998C15.5116 4.09239 15.7516 3.99951 16.0006 3.99951C16.2496 3.99951 16.4896 4.09239 16.6737 4.25998L26.6737 13.7025C26.7767 13.7963 26.8588 13.9106 26.915 14.038C26.9712 14.1655 27.0001 14.3032 27 14.4425Z" fill="black"/>
<path d="M27.3538 12.9712L17.3538 3.5362C17.3489 3.53193 17.3443 3.52734 17.34 3.52245C16.9718 3.18762 16.492 3.00208 15.9944 3.00208C15.4967 3.00208 15.0169 3.18762 14.6488 3.52245L14.635 3.5362L4.64625 12.9712C4.4425 13.1586 4.27985 13.3862 4.16861 13.6396C4.05737 13.8931 3.99996 14.1669 4 14.4437V25.9999C4 26.5304 4.21071 27.0391 4.58579 27.4142C4.96086 27.7892 5.46957 27.9999 6 27.9999H12C12.5304 27.9999 13.0391 27.7892 13.4142 27.4142C13.7893 27.0391 14 26.5304 14 25.9999V19.9999H18V25.9999C18 26.5304 18.2107 27.0391 18.5858 27.4142C18.9609 27.7892 19.4696 27.9999 20 27.9999H26C26.5304 27.9999 27.0391 27.7892 27.4142 27.4142C27.7893 27.0391 28 26.5304 28 25.9999V14.4437C28 14.1669 27.9426 13.8931 27.8314 13.6396C27.7201 13.3862 27.5575 13.1586 27.3538 12.9712ZM26 25.9999H20V19.9999C20 19.4695 19.7893 18.9608 19.4142 18.5857C19.0391 18.2107 18.5304 17.9999 18 17.9999H14C13.4696 17.9999 12.9609 18.2107 12.5858 18.5857C12.2107 18.9608 12 19.4695 12 19.9999V25.9999H6V14.4437L6.01375 14.4312L16 4.99995L25.9875 14.4287L26.0012 14.4412L26 25.9999Z" fill="black"/>
</svg>
