<svg width="32" height="32" viewBox="0 0 32 32" fill="none" xmlns="http://www.w3.org/2000/svg">
<path d="M27.695 12.6063L17.7013 3.17253L17.6812 3.15378C17.222 2.73348 16.622 2.50037 15.9994 2.50037C15.3768 2.50037 14.7768 2.73348 14.3175 3.15378L14.2963 3.17253L4.305 12.6063C4.05163 12.8407 3.84935 13.1249 3.71084 13.4411C3.57233 13.7572 3.50055 14.0986 3.5 14.4438V26C3.5 26.6631 3.76339 27.299 4.23223 27.7678C4.70107 28.2366 5.33696 28.5 6 28.5H12C12.663 28.5 13.2989 28.2366 13.7678 27.7678C14.2366 27.299 14.5 26.6631 14.5 26V20.5H17.5V26C17.5 26.6631 17.7634 27.299 18.2322 27.7678C18.7011 28.2366 19.337 28.5 20 28.5H26C26.663 28.5 27.2989 28.2366 27.7678 27.7678C28.2366 27.299 28.5 26.6631 28.5 26V14.4438C28.4995 14.0986 28.4277 13.7572 28.2892 13.4411C28.1506 13.1249 27.9484 12.8407 27.695 12.6063ZM25.5 25.5H20.5V20C20.5 19.6717 20.4353 19.3466 20.3097 19.0433C20.1841 18.74 19.9999 18.4644 19.7678 18.2323C19.5356 18.0001 19.26 17.816 18.9567 17.6903C18.6534 17.5647 18.3283 17.5 18 17.5H14C13.337 17.5 12.7011 17.7634 12.2322 18.2323C11.7634 18.7011 11.5 19.337 11.5 20V25.5H6.5V14.66L16 5.69128L25.5 14.66V25.5Z" fill="black"/>
</svg>
