<svg width="32" height="32" viewBox="0 0 32 32" fill="none" xmlns="http://www.w3.org/2000/svg">
<path d="M27.1837 13.155L17.1837 3.71748L17.1725 3.70748C16.8512 3.41322 16.4313 3.25 15.9956 3.25C15.5599 3.25 15.14 3.41322 14.8187 3.70748L14.8075 3.71748L4.80749 13.155C4.63061 13.3197 4.48976 13.5192 4.39381 13.741C4.29786 13.9628 4.24889 14.2021 4.24999 14.4437V26C4.24999 26.4641 4.43436 26.9092 4.76255 27.2374C5.09074 27.5656 5.53586 27.75 5.99999 27.75H12C12.4641 27.75 12.9092 27.5656 13.2374 27.2374C13.5656 26.9092 13.75 26.4641 13.75 26V20C13.75 19.9337 13.7763 19.8701 13.8232 19.8232C13.8701 19.7763 13.9337 19.75 14 19.75H18C18.0663 19.75 18.1299 19.7763 18.1768 19.8232C18.2236 19.8701 18.25 19.9337 18.25 20V26C18.25 26.4641 18.4344 26.9092 18.7626 27.2374C19.0907 27.5656 19.5359 27.75 20 27.75H26C26.4641 27.75 26.9092 27.5656 27.2374 27.2374C27.5656 26.9092 27.75 26.4641 27.75 26V14.4437C27.75 14.2014 27.6996 13.9618 27.6022 13.7399C27.5047 13.5181 27.3622 13.3189 27.1837 13.155ZM26.25 26C26.25 26.0663 26.2236 26.1299 26.1768 26.1768C26.1299 26.2236 26.0663 26.25 26 26.25H20C19.9337 26.25 19.8701 26.2236 19.8232 26.1768C19.7763 26.1299 19.75 26.0663 19.75 26V20C19.75 19.5359 19.5656 19.0907 19.2374 18.7625C18.9092 18.4344 18.4641 18.25 18 18.25H14C13.5359 18.25 13.0907 18.4344 12.7626 18.7625C12.4344 19.0907 12.25 19.5359 12.25 20V26C12.25 26.0663 12.2236 26.1299 12.1768 26.1768C12.1299 26.2236 12.0663 26.25 12 26.25H5.99999C5.93368 26.25 5.87009 26.2236 5.82321 26.1768C5.77633 26.1299 5.74999 26.0663 5.74999 26V14.4437C5.74991 14.4089 5.7571 14.3745 5.77109 14.3427C5.78508 14.3108 5.80557 14.2822 5.83124 14.2587L5.84249 14.2487L15.835 4.81373C15.8805 4.77399 15.9389 4.7521 15.9994 4.7521C16.0598 4.7521 16.1182 4.77399 16.1637 4.81373L26.1575 14.25L26.1675 14.26C26.1934 14.2834 26.2141 14.3119 26.2283 14.3438C26.2425 14.3756 26.2499 14.4101 26.25 14.445V26Z" fill="black"/>
</svg>
