<svg width="32" height="32" viewBox="0 0 32 32" fill="none" xmlns="http://www.w3.org/2000/svg">
<path d="M18 12C18 11.6044 18.1173 11.2178 18.3371 10.8889C18.5568 10.56 18.8692 10.3036 19.2346 10.1522C19.6001 10.0009 20.0022 9.96126 20.3902 10.0384C20.7781 10.1156 21.1345 10.3061 21.4142 10.5858C21.6939 10.8655 21.8844 11.2219 21.9616 11.6098C22.0387 11.9978 21.9991 12.3999 21.8478 12.7654C21.6964 13.1308 21.44 13.4432 21.1111 13.6629C20.7822 13.8827 20.3956 14 20 14C19.4696 14 18.9609 13.7893 18.5858 13.4142C18.2107 13.0391 18 12.5304 18 12ZM29.5 7V25C29.5 25.663 29.2366 26.2989 28.7678 26.7678C28.2989 27.2366 27.663 27.5 27 27.5H5C4.33696 27.5 3.70107 27.2366 3.23223 26.7678C2.76339 26.2989 2.5 25.663 2.5 25V7C2.5 6.33696 2.76339 5.70107 3.23223 5.23223C3.70107 4.76339 4.33696 4.5 5 4.5H27C27.663 4.5 28.2989 4.76339 28.7678 5.23223C29.2366 5.70107 29.5 6.33696 29.5 7ZM5.5 7.5V17.465L9.7325 13.2325C10.2013 12.7638 10.8371 12.5005 11.5 12.5005C12.1629 12.5005 12.7987 12.7638 13.2675 13.2325L18.4137 18.375L20.5613 16.2288C21.0301 15.7601 21.6658 15.4968 22.3288 15.4968C22.9917 15.4968 23.6274 15.7601 24.0963 16.2288L26.5 18.6362V7.5H5.5ZM5.5 24.5H20.2925L11.5 15.7075L5.5 21.7075V24.5ZM26.5 24.5V22.875L22.3288 18.7038L20.535 20.5L24.535 24.5H26.5Z" fill="black"/>
</svg>
