<svg width="32" height="32" viewBox="0 0 32 32" fill="none" xmlns="http://www.w3.org/2000/svg">
<path d="M26 3.5H6C5.33696 3.5 4.70107 3.76339 4.23223 4.23223C3.76339 4.70107 3.5 5.33696 3.5 6V26C3.5 26.663 3.76339 27.2989 4.23223 27.7678C4.70107 28.2366 5.33696 28.5 6 28.5H26C26.663 28.5 27.2989 28.2366 27.7678 27.7678C28.2366 27.2989 28.5 26.663 28.5 26V6C28.5 5.33696 28.2366 4.70107 27.7678 4.23223C27.2989 3.76339 26.663 3.5 26 3.5ZM25.5 6.5V14.465L23.2675 12.2325C22.7987 11.7638 22.1629 11.5005 21.5 11.5005C20.8371 11.5005 20.2013 11.7638 19.7325 12.2325L6.5 25.465V6.5H25.5ZM10.7075 25.5L21.5 14.7075L25.5 18.7075V25.5H10.7075ZM9.5 12C9.5 11.5055 9.64662 11.0222 9.92133 10.6111C10.196 10.2 10.5865 9.87952 11.0433 9.6903C11.5001 9.50108 12.0028 9.45157 12.4877 9.54804C12.9727 9.6445 13.4181 9.8826 13.7678 10.2322C14.1174 10.5819 14.3555 11.0273 14.452 11.5123C14.5484 11.9972 14.4989 12.4999 14.3097 12.9567C14.1205 13.4135 13.8 13.804 13.3889 14.0787C12.9778 14.3534 12.4945 14.5 12 14.5C11.337 14.5 10.7011 14.2366 10.2322 13.7678C9.76339 13.2989 9.5 12.663 9.5 12Z" fill="black"/>
</svg>
