<svg width="32" height="32" viewBox="0 0 32 32" fill="none" xmlns="http://www.w3.org/2000/svg">
<path d="M30.4999 15.9999C30.5 17.2855 30.1188 18.5423 29.4045 19.6112C28.6903 20.6801 27.6751 21.5133 26.4874 22.0053C25.2997 22.4972 23.9927 22.626 22.7318 22.3752C21.4709 22.1243 20.3127 21.5053 19.4037 20.5962L19.3824 20.5737L11.8749 12.0999C11.1045 11.3338 10.1245 10.8131 9.05843 10.6034C7.99238 10.3937 6.8881 10.5044 5.88491 10.9216C4.88171 11.3388 4.02456 12.0437 3.42157 12.9475C2.81859 13.8513 2.4968 14.9135 2.4968 15.9999C2.4968 17.0864 2.81859 18.1486 3.42157 19.0524C4.02456 19.9562 4.88171 20.6611 5.88491 21.0783C6.8881 21.4955 7.99238 21.6062 9.05843 21.3965C10.1245 21.1868 11.1045 20.666 11.8749 19.8999L12.9499 18.6849C13.0378 18.5855 13.1616 18.525 13.294 18.5168C13.4265 18.5086 13.5567 18.5533 13.6562 18.6412C13.7557 18.729 13.8161 18.8528 13.8243 18.9853C13.8325 19.1177 13.7878 19.248 13.6999 19.3474L12.6149 20.5737L12.5937 20.5962C11.6846 21.5052 10.5265 22.1243 9.26559 22.3751C8.00472 22.6258 6.69779 22.4971 5.51008 22.0051C4.32237 21.5132 3.30722 20.68 2.593 19.6111C1.87877 18.5422 1.49756 17.2855 1.49756 15.9999C1.49756 14.7144 1.87877 13.4577 2.593 12.3888C3.30722 11.3198 4.32237 10.4867 5.51008 9.99474C6.69779 9.50276 8.00472 9.37403 9.26559 9.62482C10.5265 9.87562 11.6846 10.4947 12.5937 11.4037L12.6149 11.4262L20.1149 19.8999C20.8854 20.666 21.8654 21.1868 22.9315 21.3965C23.9975 21.6062 25.1018 21.4955 26.105 21.0783C27.1082 20.6611 27.9653 19.9562 28.5683 19.0524C29.1713 18.1486 29.4931 17.0864 29.4931 15.9999C29.4931 14.9135 29.1713 13.8513 28.5683 12.9475C27.9653 12.0437 27.1082 11.3388 26.105 10.9216C25.1018 10.5044 23.9975 10.3937 22.9315 10.6034C21.8654 10.8131 20.8854 11.3338 20.1149 12.0999L19.0399 13.3149C18.9964 13.3642 18.9437 13.4044 18.8846 13.4332C18.8256 13.4621 18.7615 13.479 18.6959 13.4831C18.6303 13.4871 18.5646 13.4783 18.5024 13.4569C18.4403 13.4356 18.3829 13.4022 18.3337 13.3587C18.2845 13.3152 18.2443 13.2624 18.2154 13.2034C18.1866 13.1443 18.1696 13.0802 18.1656 13.0146C18.1615 12.949 18.1704 12.8833 18.1917 12.8212C18.2131 12.759 18.2464 12.7017 18.2899 12.6524L19.3749 11.4262L19.3962 11.4037C20.3048 10.492 21.4637 9.8707 22.7259 9.6184C23.988 9.36611 25.2967 9.49422 26.486 9.98651C27.6753 10.4788 28.6916 11.3131 29.4062 12.3836C30.1208 13.4542 30.5015 14.7128 30.4999 15.9999Z" fill="black"/>
</svg>
