<svg width="32" height="32" viewBox="0 0 32 32" fill="none" xmlns="http://www.w3.org/2000/svg">
<path opacity="0.08" d="M28.2426 20.2425C27.1174 21.3676 25.5913 21.9997 24.0001 21.9997C22.4089 21.9997 20.8828 21.3676 19.7576 20.2425L16.0001 16L19.7576 11.7575C20.8859 10.6474 22.4072 10.0281 23.99 10.0346C25.5728 10.041 27.089 10.6726 28.2082 11.7919C29.3274 12.9111 29.9591 14.4273 29.9655 16.0101C29.972 17.5929 29.3527 19.1142 28.2426 20.2425ZM3.75762 11.7575C2.64754 12.8858 2.02827 14.407 2.03472 15.9898C2.04116 17.5727 2.67279 19.0888 3.79203 20.2081C4.91126 21.3273 6.42742 21.9589 8.01024 21.9654C9.59306 21.9718 11.1143 21.3525 12.2426 20.2425L16.0001 16L12.2426 11.7575C11.1174 10.6323 9.59135 10.0002 8.00012 10.0002C6.40889 10.0002 4.88282 10.6323 3.75762 11.7575Z" fill="black"/>
<path d="M30.9999 16C31 17.3846 30.5895 18.738 29.8204 19.8893C29.0512 21.0405 27.9579 21.9378 26.6788 22.4677C25.3996 22.9975 23.9921 23.1361 22.6342 22.866C21.2762 22.5959 20.0289 21.9291 19.0499 20.95L19.0087 20.9063L11.5149 12.4438C10.8133 11.7504 9.92235 11.28 8.95406 11.0918C7.98577 10.9037 6.98345 11.0061 6.07325 11.3863C5.16304 11.7664 4.38562 12.4073 3.8388 13.2283C3.29199 14.0492 3.00023 15.0136 3.00023 16C3.00023 16.9864 3.29199 17.9508 3.8388 18.7718C4.38562 19.5927 5.16304 20.2336 6.07325 20.6138C6.98345 20.9939 7.98577 21.0964 8.95406 20.9082C9.92235 20.72 10.8133 20.2497 11.5149 19.5563L12.5799 18.3538C12.667 18.2553 12.7726 18.1749 12.8908 18.1172C13.0089 18.0596 13.1373 18.0257 13.2685 18.0177C13.3997 18.0096 13.5312 18.0275 13.6556 18.0702C13.7799 18.113 13.8946 18.1798 13.993 18.2669C14.0915 18.354 14.1719 18.4596 14.2296 18.5778C14.2873 18.6959 14.3211 18.8242 14.3292 18.9555C14.3372 19.0867 14.3194 19.2182 14.2766 19.3425C14.2338 19.4668 14.167 19.5815 14.0799 19.68L12.9937 20.9063L12.9524 20.95C11.9734 21.9289 10.7261 22.5955 9.3683 22.8656C8.01045 23.1356 6.60302 22.9969 5.32398 22.4671C4.04494 21.9373 2.95173 21.0401 2.18259 19.8889C1.41345 18.7378 1.00293 17.3845 1.00293 16C1.00293 14.6156 1.41345 13.2622 2.18259 12.1111C2.95173 10.96 4.04494 10.0628 5.32398 9.53293C6.60302 9.0031 8.01045 8.86443 9.3683 9.13447C10.7261 9.40451 11.9734 10.0711 12.9524 11.05L12.9937 11.0938L20.4874 19.5563C21.189 20.2497 22.08 20.72 23.0483 20.9082C24.0166 21.0964 25.0189 20.9939 25.9291 20.6138C26.8393 20.2336 27.6167 19.5927 28.1635 18.7718C28.7104 17.9508 29.0021 16.9864 29.0021 16C29.0021 15.0136 28.7104 14.0492 28.1635 13.2283C27.6167 12.4073 26.8393 11.7664 25.9291 11.3863C25.0189 11.0061 24.0166 10.9037 23.0483 11.0918C22.08 11.28 21.189 11.7504 20.4874 12.4438L19.4224 13.6463C19.2466 13.8452 18.9989 13.9661 18.7339 13.9824C18.4688 13.9987 18.2082 13.909 18.0093 13.7331C17.8104 13.5573 17.6895 13.3096 17.6732 13.0446C17.6569 12.7796 17.7466 12.5189 17.9224 12.32L19.0087 11.0938L19.0499 11.05C20.0289 10.071 21.2762 9.40418 22.6342 9.13405C23.9921 8.86391 25.3996 9.00253 26.6788 9.53239C27.9579 10.0622 29.0512 10.9595 29.8204 12.1108C30.5895 13.262 31 14.6155 30.9999 16Z" fill="black"/>
</svg>
