<svg width="32" height="32" viewBox="0 0 32 32" fill="none" xmlns="http://www.w3.org/2000/svg">
<path d="M31.5002 16C31.5004 17.4835 31.0606 18.9338 30.2365 20.1673C29.4124 21.4008 28.241 22.3623 26.8705 22.93C25.4999 23.4977 23.9918 23.6462 22.5368 23.3568C21.0818 23.0673 19.7454 22.3529 18.6965 21.3038L18.6352 21.2375L11.1527 12.7888C10.5201 12.1678 9.71821 11.7474 8.84759 11.5805C7.97697 11.4136 7.07645 11.5076 6.25903 11.8506C5.44161 12.1936 4.74371 12.7704 4.25292 13.5086C3.76212 14.2468 3.5003 15.1136 3.5003 16C3.5003 16.8865 3.76212 17.7533 4.25292 18.4915C4.74371 19.2297 5.44161 19.8065 6.25903 20.1495C7.07645 20.4925 7.97697 20.5865 8.84759 20.4196C9.71821 20.2526 10.5201 19.8323 11.1527 19.2113L11.5377 18.7763C11.8015 18.4779 12.1729 18.2965 12.5704 18.272C12.9678 18.2476 13.3587 18.3819 13.6571 18.6457C13.9555 18.9094 14.1369 19.2808 14.1614 19.6783C14.1859 20.0758 14.0515 20.4667 13.7877 20.765L13.369 21.2375L13.3077 21.3038C12.2588 22.3526 10.9224 23.0667 9.46759 23.356C8.01277 23.6453 6.50484 23.4967 5.13446 22.929C3.76409 22.3613 2.59283 21.4 1.76877 20.1667C0.944718 18.9334 0.504883 17.4834 0.504883 16C0.504883 14.5167 0.944718 13.0667 1.76877 11.8334C2.59283 10.6001 3.76409 9.63877 5.13446 9.07107C6.50484 8.50338 8.01277 8.35478 9.46759 8.64406C10.9224 8.93335 12.2588 9.64753 13.3077 10.6963L13.369 10.7625L20.8515 19.2113C21.4841 19.8323 22.286 20.2526 23.1566 20.4196C24.0272 20.5865 24.9278 20.4925 25.7452 20.1495C26.5626 19.8065 27.2605 19.2297 27.7513 18.4915C28.2421 17.7533 28.5039 16.8865 28.5039 16C28.5039 15.1136 28.2421 14.2468 27.7513 13.5086C27.2605 12.7704 26.5626 12.1936 25.7452 11.8506C24.9278 11.5076 24.0272 11.4136 23.1566 11.5805C22.286 11.7474 21.4841 12.1678 20.8515 12.7888L20.4665 13.2238C20.3359 13.3715 20.1775 13.4921 20.0003 13.5786C19.8231 13.6651 19.6307 13.7159 19.4339 13.728C19.237 13.7402 19.0398 13.7134 18.8533 13.6493C18.6669 13.5852 18.4948 13.485 18.3471 13.3544C18.1994 13.2238 18.0788 13.0654 17.9923 12.8883C17.9058 12.7111 17.855 12.5186 17.8429 12.3218C17.8307 12.125 17.8575 11.9277 17.9216 11.7413C17.9857 11.5548 18.0859 11.3828 18.2165 11.235L18.6352 10.7625L18.6965 10.6963C19.7454 9.64722 21.0818 8.93277 22.5368 8.64331C23.9918 8.35384 25.4999 8.50237 26.8705 9.0701C28.241 9.63783 29.4124 10.5993 30.2365 11.8328C31.0606 13.0663 31.5004 14.5166 31.5002 16Z" fill="black"/>
</svg>
