<svg width="32" height="32" viewBox="0 0 32 32" fill="none" xmlns="http://www.w3.org/2000/svg">
<path d="M22.25 9.74999C21.8475 7.90883 20.957 6.20993 19.6717 4.83154C18.3865 3.45315 16.7539 2.44609 14.9453 1.91603C13.1368 1.38598 11.2189 1.35246 9.39293 1.819C7.56695 2.28553 5.9002 3.23493 4.56757 4.56757C3.23493 5.9002 2.28553 7.56695 1.819 9.39293C1.35246 11.2189 1.38598 13.1368 1.91603 14.9453C2.44609 16.7539 3.45315 18.3865 4.83154 19.6717C6.20993 20.957 7.90883 21.8475 9.74999 22.25C10.1524 24.0912 11.043 25.7901 12.3283 27.1684C13.6135 28.5468 15.2461 29.5539 17.0546 30.084C18.8632 30.614 20.7811 30.6475 22.6071 30.181C24.433 29.7145 26.0998 28.7651 27.4324 27.4324C28.7651 26.0998 29.7145 24.433 30.181 22.6071C30.6475 20.7811 30.614 18.8632 30.084 17.0546C29.5539 15.2461 28.5468 13.6135 27.1684 12.3283C25.7901 11.043 24.0912 10.1524 22.25 9.74999ZM19.4762 12.5237C19.3881 13.814 18.9655 15.059 18.25 16.1362L15.8675 13.75C16.9444 13.0332 18.1894 12.6092 19.48 12.52L19.4762 12.5237ZM9.53874 19.0875C8.33766 18.6716 7.26199 17.9572 6.41273 17.0116C5.56346 16.0659 4.96847 14.9199 4.68363 13.6811C4.39879 12.4424 4.43343 11.1516 4.78431 9.92995C5.1352 8.70829 5.7908 7.59584 6.68957 6.69707C7.58834 5.7983 8.70079 5.1427 9.92245 4.79182C11.1441 4.44093 12.4349 4.40629 13.6736 4.69113C14.9124 4.97597 16.0584 5.57096 17.0041 6.42023C17.9497 7.26949 18.6641 8.34516 19.08 9.54624C16.6243 9.76541 14.3236 10.8407 12.5803 12.584C10.8369 14.3274 9.76166 16.628 9.54249 19.0837L9.53874 19.0875ZM12.5162 19.4837C12.6044 18.1935 13.027 16.9485 13.7425 15.8712L16.1325 18.25C15.0556 18.9668 13.8106 19.3908 12.52 19.48L12.5162 19.4837ZM20 27.5C18.4421 27.4979 16.9234 27.0114 15.6543 26.108C14.3851 25.2045 13.4283 23.9288 12.9162 22.4575C15.3732 22.239 17.6752 21.1636 19.4194 19.4194C21.1636 17.6752 22.239 15.3732 22.4575 12.9162C24.1311 13.4984 25.5446 14.6542 26.4473 16.179C27.3501 17.7038 27.6838 19.4989 27.3894 21.2462C27.095 22.9936 26.1914 24.5802 24.8388 25.7249C23.4862 26.8697 21.772 27.4985 20 27.5Z" fill="black"/>
</svg>
