<svg width="32" height="32" viewBox="0 0 32 32" fill="none" xmlns="http://www.w3.org/2000/svg">
<path d="M25 11.7075C25 11.6388 25 11.57 25 11.5C25 9.11305 24.0518 6.82387 22.364 5.13604C20.6761 3.44821 18.387 2.5 16 2.5C13.6131 2.5 11.3239 3.44821 9.63605 5.13604C7.94822 6.82387 7.00001 9.11305 7.00001 11.5C7.00001 11.57 7.00001 11.6388 7.00001 11.7075C5.94384 12.281 5.01323 13.0603 4.26309 13.9993C3.51296 14.9383 2.95849 16.018 2.6324 17.1748C2.30632 18.3315 2.21522 19.5419 2.36448 20.7344C2.51374 21.9269 2.90034 23.0775 3.50147 24.1182C4.1026 25.1589 4.90608 26.0687 5.86451 26.7938C6.82294 27.519 7.9169 28.0448 9.08184 28.3404C10.2468 28.6359 11.4591 28.6951 12.6473 28.5145C13.8355 28.3338 14.9755 27.9171 16 27.2887C17.0245 27.9171 18.1645 28.3338 19.3527 28.5145C20.5409 28.6951 21.7532 28.6359 22.9182 28.3404C24.0831 28.0448 25.1771 27.519 26.1355 26.7938C27.0939 26.0687 27.8974 25.1589 28.4986 24.1182C29.0997 23.0775 29.4863 21.9269 29.6355 20.7344C29.7848 19.5419 29.6937 18.3315 29.3676 17.1748C29.0415 16.018 28.4871 14.9383 27.7369 13.9993C26.9868 13.0603 26.0562 12.281 25 11.7075ZM19.84 16.11C19.5071 15.2936 19.0555 14.5308 18.5 13.8462C19.5016 13.4889 20.5806 13.4061 21.625 13.6062C21.2551 14.5817 20.6383 15.4444 19.835 16.11H19.84ZM16 23.4625C15.2346 22.5968 14.7366 21.5279 14.5663 20.385C15.516 20.5382 16.4841 20.5382 17.4338 20.385C17.2634 21.5279 16.7654 22.5968 16 23.4625ZM10.3825 13.6062C11.4269 13.4061 12.5059 13.4889 13.5075 13.8462C12.952 14.5308 12.5005 15.2936 12.1675 16.11C11.366 15.4438 10.751 14.5811 10.3825 13.6062ZM16 17.5C15.625 17.4997 15.2509 17.4641 14.8825 17.3937C15.1393 16.7123 15.518 16.0833 16 15.5375C16.4821 16.0833 16.8607 16.7123 17.1175 17.3937C16.7492 17.4641 16.375 17.4997 16 17.5ZM16 5.5C17.4374 5.50195 18.8264 6.01908 19.9151 6.95754C21.0038 7.89601 21.72 9.19364 21.9338 10.615C19.8886 10.2843 17.792 10.6717 16 11.7113C14.208 10.6717 12.1114 10.2843 10.0663 10.615C10.2801 9.19364 10.9963 7.89601 12.085 6.95754C13.1736 6.01908 14.5627 5.50195 16 5.5ZM5.50001 19.5C5.49971 18.6197 5.69358 17.7501 6.06779 16.9533C6.44201 16.1564 6.98737 15.4519 7.66501 14.89C8.42227 16.7406 9.77071 18.2886 11.5 19.2925C11.5 19.3612 11.5 19.43 11.5 19.5C11.4971 21.5584 12.2034 23.555 13.5 25.1537C12.5953 25.4736 11.627 25.5718 10.6765 25.4401C9.72593 25.3084 8.82085 24.9506 8.03718 24.3968C7.25351 23.8429 6.61411 23.1092 6.17264 22.2572C5.73117 21.4051 5.50051 20.4596 5.50001 19.5ZM20.5 25.5C19.8184 25.4998 19.142 25.3827 18.5 25.1537C19.7967 23.555 20.503 21.5584 20.5 19.5C20.5 19.43 20.5 19.3612 20.5 19.2925C22.2312 18.2895 23.5815 16.7414 24.34 14.89C25.2875 15.6793 25.9687 16.7413 26.2911 17.9315C26.6134 19.1217 26.5612 20.3824 26.1416 21.5419C25.7219 22.7014 24.9552 23.7035 23.9457 24.4117C22.9363 25.1199 21.7331 25.4999 20.5 25.5Z" fill="black"/>
</svg>
