<svg width="32" height="32" viewBox="0 0 32 32" fill="none" xmlns="http://www.w3.org/2000/svg">
<path d="M21.6138 10.3862C21.3178 8.62013 20.5412 6.9697 19.3691 5.61591C18.197 4.26213 16.6747 3.25728 14.9692 2.71157C13.2637 2.16587 11.4408 2.10039 9.70056 2.52233C7.9603 2.94426 6.36984 3.83731 5.10363 5.10351C3.83743 6.36972 2.94438 7.96017 2.52245 9.70044C2.10052 11.4407 2.16599 13.2636 2.71169 14.9691C3.2574 16.6746 4.26225 18.1969 5.61604 19.369C6.96982 20.5411 8.62025 21.3177 10.3863 21.6137C10.6823 23.3797 11.4589 25.0302 12.631 26.384C13.8031 27.7377 15.3254 28.7426 17.0309 29.2883C18.7364 29.834 20.5593 29.8995 22.2996 29.4775C24.0398 29.0556 25.6303 28.1626 26.8965 26.8964C28.1627 25.6302 29.0557 24.0397 29.4777 22.2994C29.8996 20.5592 29.8341 18.7363 29.2884 17.0308C28.7427 15.3253 27.7379 13.803 26.3841 12.6309C25.0303 11.4588 23.3799 10.6822 21.6138 10.3862ZM3.75006 11.9999C3.7512 9.96508 4.50432 8.00242 5.8647 6.48914C7.22508 4.97586 9.09673 4.01871 11.12 3.80164C13.1432 3.58457 15.1753 4.12289 16.8258 5.31315C18.4762 6.50341 19.6285 8.26163 20.0613 10.2499H20.0001C17.4151 10.2529 14.9369 11.2811 13.1091 13.1089C11.2812 14.9368 10.253 17.415 10.2501 19.9999C10.2501 20.0212 10.2501 20.0412 10.2501 20.0612C8.41013 19.6595 6.76264 18.6412 5.58052 17.1752C4.3984 15.7091 3.75258 13.8832 3.75006 11.9999ZM11.7501 19.9999C11.7487 18.8138 12.0045 17.6414 12.5001 16.5637L15.4363 19.4999C14.3586 19.9955 13.1862 20.2513 12.0001 20.2499C11.9188 20.2499 11.8376 20.2499 11.7501 20.2437C11.7501 20.1624 11.7501 20.0812 11.7501 19.9999ZM16.7788 18.7187L13.2788 15.2187C13.8135 14.469 14.4691 13.8134 15.2188 13.2787L18.7188 16.7787C18.1841 17.5284 17.5285 18.184 16.7788 18.7187ZM20.2501 11.9999C20.2515 13.1861 19.9956 14.3585 19.5001 15.4362L16.5638 12.4999C17.6415 12.0044 18.8139 11.7485 20.0001 11.7499C20.0813 11.7499 20.1626 11.7499 20.2438 11.7499C20.2501 11.8374 20.2501 11.9187 20.2501 11.9999ZM20.0001 28.2499C18.1168 28.2474 16.2909 27.6016 14.8248 26.4195C13.3588 25.2374 12.3405 23.5899 11.9388 21.7499H12.0001C14.585 21.747 17.0632 20.7188 18.8911 18.8909C20.7189 17.0631 21.7471 14.5849 21.7501 11.9999C21.7501 11.9787 21.7501 11.9587 21.7501 11.9387C23.7384 12.3715 25.4966 13.5238 26.6868 15.1742C27.8771 16.8247 28.4154 18.8568 28.1984 20.88C27.9813 22.9033 27.0241 24.7749 25.5109 26.1353C23.9976 27.4957 22.0349 28.2488 20.0001 28.2499Z" fill="black"/>
</svg>
