<svg width="32" height="32" viewBox="0 0 32 32" fill="none" xmlns="http://www.w3.org/2000/svg">
<path d="M30 11.5H29.2125L28.1362 6.47625C28.0141 5.91797 27.7053 5.41799 27.2608 5.05874C26.8164 4.69949 26.2627 4.50241 25.6912 4.5H6.30875C5.73726 4.50241 5.18365 4.69949 4.73919 5.05874C4.29473 5.41799 3.98594 5.91797 3.86375 6.47625L2.7875 11.5H2C1.60218 11.5 1.22064 11.658 0.93934 11.9393C0.658035 12.2206 0.5 12.6022 0.5 13C0.5 13.3978 0.658035 13.7794 0.93934 14.0607C1.22064 14.342 1.60218 14.5 2 14.5H2.5V26C2.5 26.663 2.76339 27.2989 3.23223 27.7678C3.70107 28.2366 4.33696 28.5 5 28.5H8C8.66304 28.5 9.29893 28.2366 9.76777 27.7678C10.2366 27.2989 10.5 26.663 10.5 26V23.5H21.5V26C21.5 26.663 21.7634 27.2989 22.2322 27.7678C22.7011 28.2366 23.337 28.5 24 28.5H27C27.663 28.5 28.2989 28.2366 28.7678 27.7678C29.2366 27.2989 29.5 26.663 29.5 26V14.5H30C30.3978 14.5 30.7794 14.342 31.0607 14.0607C31.342 13.7794 31.5 13.3978 31.5 13C31.5 12.6022 31.342 12.2206 31.0607 11.9393C30.7794 11.658 30.3978 11.5 30 11.5ZM6.7125 7.5H25.2875L26.145 11.5H5.855L6.7125 7.5ZM7.5 25.5H5.5V23.5H7.5V25.5ZM24.5 25.5V23.5H26.5V25.5H24.5ZM26.5 20.5H22.5V17.5C22.5 17.1022 22.342 16.7206 22.0607 16.4393C21.7794 16.158 21.3978 16 21 16C20.6022 16 20.2206 16.158 19.9393 16.4393C19.658 16.7206 19.5 17.1022 19.5 17.5V20.5H17.5V17.5C17.5 17.1022 17.342 16.7206 17.0607 16.4393C16.7794 16.158 16.3978 16 16 16C15.6022 16 15.2206 16.158 14.9393 16.4393C14.658 16.7206 14.5 17.1022 14.5 17.5V20.5H12.5V17.5C12.5 17.1022 12.342 16.7206 12.0607 16.4393C11.7794 16.158 11.3978 16 11 16C10.6022 16 10.2206 16.158 9.93934 16.4393C9.65804 16.7206 9.5 17.1022 9.5 17.5V20.5H5.5V14.5H26.5V20.5Z" fill="black"/>
</svg>
