<svg width="32" height="32" viewBox="0 0 32 32" fill="none" xmlns="http://www.w3.org/2000/svg">
<path d="M27 5.5H5C4.60218 5.5 4.22064 5.65804 3.93934 5.93934C3.65804 6.22064 3.5 6.60218 3.5 7V26C3.5 26.663 3.76339 27.2989 4.23223 27.7678C4.70107 28.2366 5.33696 28.5 6 28.5H11C11.663 28.5 12.2989 28.2366 12.7678 27.7678C13.2366 27.2989 13.5 26.663 13.5 26V20.5H18.5V22C18.5 22.663 18.7634 23.2989 19.2322 23.7678C19.7011 24.2366 20.337 24.5 21 24.5H26C26.663 24.5 27.2989 24.2366 27.7678 23.7678C28.2366 23.2989 28.5 22.663 28.5 22V7C28.5 6.60218 28.342 6.22064 28.0607 5.93934C27.7794 5.65804 27.3978 5.5 27 5.5ZM25.5 13.5H21.5V8.5H25.5V13.5ZM10.5 8.5V13.5H6.5V8.5H10.5ZM10.5 25.5H6.5V16.5H10.5V25.5ZM13.5 17.5V8.5H18.5V17.5H13.5ZM21.5 21.5V16.5H25.5V21.5H21.5Z" fill="black"/>
</svg>
