<svg width="32" height="32" viewBox="0 0 32 32" fill="none" xmlns="http://www.w3.org/2000/svg">
<path d="M20 1.5C18.3687 1.50095 16.7601 1.88173 15.3015 2.61218C13.843 3.34263 12.5745 4.40269 11.5967 5.70837C10.6188 7.01406 9.95847 8.52951 9.66788 10.1347C9.37729 11.7398 9.46447 13.3906 9.9225 14.9563L2.93875 21.9387C2.7995 22.0782 2.68908 22.2436 2.6138 22.4257C2.53851 22.6078 2.49985 22.803 2.5 23V28C2.5 28.3978 2.65804 28.7794 2.93934 29.0607C3.22064 29.342 3.60218 29.5 4 29.5H9C9.39783 29.5 9.77936 29.342 10.0607 29.0607C10.342 28.7794 10.5 28.3978 10.5 28V26.5H12C12.3978 26.5 12.7794 26.342 13.0607 26.0607C13.342 25.7794 13.5 25.3978 13.5 25V23.5H15C15.197 23.5002 15.3922 23.4615 15.5743 23.3862C15.7564 23.3109 15.9218 23.2005 16.0613 23.0613L17.0438 22.0775C18.4876 22.5 20.0054 22.6072 21.4944 22.392C22.9833 22.1768 24.4086 21.6441 25.6737 20.8301C26.9389 20.0161 28.0144 18.9397 28.8273 17.6739C29.6402 16.408 30.1717 14.9823 30.3856 13.4931C30.5995 12.004 30.491 10.4863 30.0673 9.04281C29.6436 7.5993 28.9146 6.26369 27.9298 5.12643C26.945 3.98917 25.7273 3.07681 24.3591 2.45114C22.991 1.82547 21.5044 1.5011 20 1.5ZM20 19.5C19.0542 19.502 18.1166 19.3238 17.2375 18.975C16.9618 18.8568 16.6569 18.824 16.3623 18.8808C16.0678 18.9376 15.797 19.0815 15.585 19.2938L14.375 20.5H12C11.6022 20.5 11.2206 20.658 10.9393 20.9393C10.658 21.2206 10.5 21.6022 10.5 22V23.5H9C8.60218 23.5 8.22064 23.658 7.93934 23.9393C7.65804 24.2206 7.5 24.6022 7.5 25V26.5H5.5V23.625L12.7063 16.4188C12.9183 16.2069 13.062 15.9363 13.1188 15.642C13.1756 15.3477 13.1429 15.0431 13.025 14.7675C12.4331 13.2766 12.3348 11.6352 12.7445 10.0843C13.1542 8.53343 14.0504 7.15477 15.3014 6.15076C16.5525 5.14674 18.0924 4.57028 19.6953 4.50602C21.2981 4.44176 22.8793 4.89308 24.2067 5.79371C25.5341 6.69434 26.5377 7.99684 27.0703 9.50995C27.6029 11.0231 27.6363 12.6671 27.1656 14.2005C26.695 15.734 25.7451 17.0762 24.4553 18.0301C23.1656 18.9839 21.6041 19.4991 20 19.5ZM24.5 9.5C24.5 9.89556 24.3827 10.2822 24.1629 10.6111C23.9432 10.94 23.6308 11.1964 23.2654 11.3478C22.8999 11.4991 22.4978 11.5387 22.1098 11.4616C21.7219 11.3844 21.3655 11.1939 21.0858 10.9142C20.8061 10.6345 20.6156 10.2781 20.5384 9.89018C20.4613 9.50222 20.5009 9.10009 20.6522 8.73463C20.8036 8.36918 21.06 8.05682 21.3889 7.83706C21.7178 7.6173 22.1044 7.5 22.5 7.5C23.0304 7.5 23.5391 7.71071 23.9142 8.08579C24.2893 8.46086 24.5 8.96957 24.5 9.5Z" fill="black"/>
</svg>
