<svg width="32" height="32" viewBox="0 0 32 32" fill="none" xmlns="http://www.w3.org/2000/svg">
<path d="M27.9387 5.5H4.06375C3.38423 5.5 2.73251 5.76977 2.25179 6.25002C1.77106 6.73028 1.50066 7.38173 1.5 8.06125V23.9363C1.5 24.6158 1.76977 25.2675 2.25002 25.7482C2.73028 26.2289 3.38173 26.4993 4.06125 26.5H27.9363C28.6158 26.5 29.2675 26.2302 29.7482 25.75C30.2289 25.2697 30.4993 24.6183 30.5 23.9387V8.06375C30.5 7.38423 30.2302 6.73251 29.75 6.25179C29.2697 5.77106 28.6183 5.50066 27.9387 5.5ZM27.5 23.5H4.5V8.5H27.5V23.5ZM6.5 16C6.5 15.6022 6.65804 15.2206 6.93934 14.9393C7.22064 14.658 7.60218 14.5 8 14.5H24C24.3978 14.5 24.7794 14.658 25.0607 14.9393C25.342 15.2206 25.5 15.6022 25.5 16C25.5 16.3978 25.342 16.7794 25.0607 17.0607C24.7794 17.342 24.3978 17.5 24 17.5H8C7.60218 17.5 7.22064 17.342 6.93934 17.0607C6.65804 16.7794 6.5 16.3978 6.5 16ZM6.5 11.5C6.5 11.1022 6.65804 10.7206 6.93934 10.4393C7.22064 10.158 7.60218 10 8 10H24C24.3978 10 24.7794 10.158 25.0607 10.4393C25.342 10.7206 25.5 11.1022 25.5 11.5C25.5 11.8978 25.342 12.2794 25.0607 12.5607C24.7794 12.842 24.3978 13 24 13H8C7.60218 13 7.22064 12.842 6.93934 12.5607C6.65804 12.2794 6.5 11.8978 6.5 11.5ZM6.5 20.5C6.5 20.1022 6.65804 19.7206 6.93934 19.4393C7.22064 19.158 7.60218 19 8 19H9C9.39782 19 9.77936 19.158 10.0607 19.4393C10.342 19.7206 10.5 20.1022 10.5 20.5C10.5 20.8978 10.342 21.2794 10.0607 21.5607C9.77936 21.842 9.39782 22 9 22H8C7.60218 22 7.22064 21.842 6.93934 21.5607C6.65804 21.2794 6.5 20.8978 6.5 20.5ZM20 20.5C20 20.8978 19.842 21.2794 19.5607 21.5607C19.2794 21.842 18.8978 22 18.5 22H13.5C13.1022 22 12.7206 21.842 12.4393 21.5607C12.158 21.2794 12 20.8978 12 20.5C12 20.1022 12.158 19.7206 12.4393 19.4393C12.7206 19.158 13.1022 19 13.5 19H18.5C18.8978 19 19.2794 19.158 19.5607 19.4393C19.842 19.7206 20 20.1022 20 20.5ZM25.5 20.5C25.5 20.8978 25.342 21.2794 25.0607 21.5607C24.7794 21.842 24.3978 22 24 22H23C22.6022 22 22.2206 21.842 21.9393 21.5607C21.658 21.2794 21.5 20.8978 21.5 20.5C21.5 20.1022 21.658 19.7206 21.9393 19.4393C22.2206 19.158 22.6022 19 23 19H24C24.3978 19 24.7794 19.158 25.0607 19.4393C25.342 19.7206 25.5 20.1022 25.5 20.5Z" fill="black"/>
</svg>
