<svg width="32" height="32" viewBox="0 0 32 32" fill="none" xmlns="http://www.w3.org/2000/svg">
<path d="M16 2.5C13.33 2.5 10.7199 3.29176 8.49981 4.77516C6.27974 6.25856 4.54942 8.36697 3.52763 10.8338C2.50585 13.3006 2.2385 16.015 2.7594 18.6337C3.28031 21.2525 4.56606 23.6579 6.45406 25.5459C8.34207 27.434 10.7475 28.7197 13.3663 29.2406C15.985 29.7615 18.6994 29.4942 21.1662 28.4724C23.633 27.4506 25.7414 25.7203 27.2248 23.5002C28.7082 21.2801 29.5 18.67 29.5 16C29.496 12.4208 28.0724 8.98932 25.5416 6.45844C23.0107 3.92756 19.5792 2.50397 16 2.5ZM16 26.5C13.9233 26.5 11.8932 25.8842 10.1665 24.7304C8.4398 23.5767 7.09399 21.9368 6.29927 20.0182C5.50455 18.0996 5.29662 15.9884 5.70176 13.9516C6.10691 11.9148 7.10693 10.0438 8.57538 8.57538C10.0438 7.10693 11.9148 6.1069 13.9516 5.70175C15.9884 5.29661 18.0996 5.50454 20.0182 6.29926C21.9368 7.09399 23.5767 8.4398 24.7304 10.1665C25.8842 11.8932 26.5 13.9233 26.5 16C26.497 18.7839 25.3898 21.4528 23.4213 23.4213C21.4529 25.3898 18.7839 26.497 16 26.5ZM16 8.5C14.9408 8.50024 13.9043 8.80629 13.0149 9.3814C12.1254 9.9565 11.421 10.7762 10.9861 11.742C10.5513 12.7078 10.4046 13.7785 10.5636 14.8257C10.7226 15.8729 11.1806 16.8518 11.8825 17.645L10.6425 20.76C10.5217 21.0634 10.477 21.3917 10.5123 21.7163C10.5476 22.0409 10.6619 22.352 10.8451 22.6223C11.0283 22.8925 11.275 23.1139 11.5634 23.2669C11.8519 23.4199 12.1735 23.4999 12.5 23.5H19.5C19.8265 23.4999 20.1481 23.4199 20.4366 23.2669C20.725 23.1139 20.9717 22.8925 21.1549 22.6223C21.3381 22.352 21.4524 22.0409 21.4877 21.7163C21.523 21.3917 21.4783 21.0634 21.3575 20.76L20.1175 17.645C20.8194 16.8518 21.2774 15.8729 21.4364 14.8257C21.5954 13.7785 21.4487 12.7078 21.0139 11.742C20.579 10.7762 19.8746 9.9565 18.9852 9.3814C18.0957 8.80629 17.0592 8.50024 16 8.5ZM16.9488 17.7975L18.025 20.5H13.975L15.0513 17.7975C15.1748 17.4874 15.1913 17.1449 15.0983 16.8243C15.0052 16.5037 14.8079 16.2233 14.5375 16.0275C14.1087 15.7182 13.789 15.281 13.6244 14.7786C13.4597 14.2762 13.4585 13.7346 13.621 13.2315C13.7835 12.7284 14.1014 12.2898 14.5288 11.9786C14.9563 11.6675 15.4713 11.4999 16 11.4999C16.5287 11.4999 17.0438 11.6675 17.4712 11.9786C17.8987 12.2898 18.2165 12.7284 18.379 13.2315C18.5415 13.7346 18.5403 14.2762 18.3756 14.7786C18.211 15.281 17.8913 15.7182 17.4625 16.0275C17.1921 16.2233 16.9948 16.5037 16.9017 16.8243C16.8087 17.1449 16.8252 17.4874 16.9488 17.7975Z" fill="black"/>
</svg>
