<svg width="32" height="32" viewBox="0 0 32 32" fill="none" xmlns="http://www.w3.org/2000/svg">
<path d="M8.93875 18.0613C8.79891 17.9219 8.68795 17.7563 8.61225 17.574C8.53654 17.3917 8.49757 17.1962 8.49757 16.9988C8.49757 16.8013 8.53654 16.6059 8.61225 16.4235C8.68795 16.2412 8.79891 16.0756 8.93875 15.9362L11.9388 12.9362C12.2205 12.6545 12.6027 12.4961 13.0013 12.4961C13.3998 12.4961 13.782 12.6545 14.0638 12.9362C14.3455 13.218 14.5039 13.6002 14.5039 13.9987C14.5039 14.3973 14.3455 14.7795 14.0638 15.0612L13.625 15.5H20.5V13C20.5 12.6022 20.658 12.2206 20.9393 11.9393C21.2206 11.658 21.6022 11.5 22 11.5C22.3978 11.5 22.7794 11.658 23.0607 11.9393C23.342 12.2206 23.5 12.6022 23.5 13V17C23.5 17.3978 23.342 17.7794 23.0607 18.0607C22.7794 18.342 22.3978 18.5 22 18.5H13.625L14.065 18.9387C14.3468 19.2205 14.5051 19.6027 14.5051 20.0012C14.5051 20.3998 14.3468 20.782 14.065 21.0637C13.7832 21.3455 13.401 21.5039 13.0025 21.5039C12.604 21.5039 12.2218 21.3455 11.94 21.0637L8.93875 18.0613ZM29.5 7V25C29.5 25.663 29.2366 26.2989 28.7678 26.7678C28.2989 27.2366 27.663 27.5 27 27.5H5C4.33696 27.5 3.70107 27.2366 3.23223 26.7678C2.76339 26.2989 2.5 25.663 2.5 25V7C2.5 6.33696 2.76339 5.70107 3.23223 5.23223C3.70107 4.76339 4.33696 4.5 5 4.5H27C27.663 4.5 28.2989 4.76339 28.7678 5.23223C29.2366 5.70107 29.5 6.33696 29.5 7ZM26.5 7.5H5.5V24.5H26.5V7.5Z" fill="black"/>
</svg>
