<svg width="32" height="32" viewBox="0 0 32 32" fill="none" xmlns="http://www.w3.org/2000/svg">
<path d="M29.3299 3.67116C28.9585 3.29963 28.5175 3.00491 28.0321 2.80384C27.5467 2.60276 27.0265 2.49927 26.5012 2.49927C25.9758 2.49927 25.4556 2.60276 24.9702 2.80384C24.4849 3.00491 24.0439 3.29963 23.6724 3.67116L23.6599 3.68366L1.92616 25.9737C1.73938 26.1641 1.60676 26.4009 1.54198 26.6597C1.4772 26.9184 1.48259 27.1898 1.5576 27.4458C1.63261 27.7018 1.77453 27.9331 1.96873 28.116C2.16293 28.2989 2.40238 28.4267 2.66241 28.4862C4.13348 28.8271 5.63859 28.9995 7.14866 28.9999C11.4249 28.9999 15.7012 27.6112 19.7174 24.8874C23.7537 22.1499 26.1037 19.0449 26.2012 18.9149C26.4184 18.626 26.524 18.2683 26.4985 17.9077C26.473 17.5472 26.3181 17.2079 26.0624 16.9524L24.0624 14.9524L29.3487 9.31741C30.0903 8.56379 30.5045 7.5478 30.501 6.49043C30.4975 5.43306 30.0766 4.41984 29.3299 3.67116ZM17.9549 22.4524C14.0924 25.0537 10.1249 26.2312 6.12491 25.9712L18.3249 13.4549L22.9662 18.0999C21.4767 19.7454 19.7956 21.2067 17.9587 22.4524H17.9549ZM27.2049 7.20991L27.1724 7.24366L21.9362 12.8262L20.4212 11.3049L25.7962 5.78991C25.9845 5.60294 26.2393 5.49842 26.5047 5.49936C26.7701 5.5003 27.0242 5.60661 27.2112 5.79491C27.3981 5.98322 27.5027 6.23809 27.5017 6.50345C27.5008 6.76881 27.3945 7.02294 27.2062 7.20991H27.2049Z" fill="black"/>
</svg>
