<svg width="32" height="32" viewBox="0 0 32 32" fill="none" xmlns="http://www.w3.org/2000/svg">
<path d="M24 2.5C23.6022 2.5 23.2206 2.65804 22.9393 2.93934C22.658 3.22064 22.5 3.60218 22.5 4V7.5H9.5V4C9.5 3.60218 9.34196 3.22064 9.06066 2.93934C8.77936 2.65804 8.39782 2.5 8 2.5C7.60218 2.5 7.22064 2.65804 6.93934 2.93934C6.65804 3.22064 6.5 3.60218 6.5 4V28C6.5 28.3978 6.65804 28.7794 6.93934 29.0607C7.22064 29.342 7.60218 29.5 8 29.5C8.39782 29.5 8.77936 29.342 9.06066 29.0607C9.34196 28.7794 9.5 28.3978 9.5 28V24.5H22.5V28C22.5 28.3978 22.658 28.7794 22.9393 29.0607C23.2206 29.342 23.6022 29.5 24 29.5C24.3978 29.5 24.7794 29.342 25.0607 29.0607C25.342 28.7794 25.5 28.3978 25.5 28V4C25.5 3.60218 25.342 3.22064 25.0607 2.93934C24.7794 2.65804 24.3978 2.5 24 2.5ZM22.5 10.5V14.5H9.5V10.5H22.5ZM9.5 21.5V17.5H22.5V21.5H9.5Z" fill="black"/>
</svg>
