<svg width="32" height="32" viewBox="0 0 32 32" fill="none" xmlns="http://www.w3.org/2000/svg">
<path d="M27.4088 26.4875L21.0963 9.125L22.05 6.5H23C23.3979 6.5 23.7794 6.34196 24.0607 6.06066C24.342 5.77936 24.5 5.39782 24.5 5C24.5 4.60218 24.342 4.22064 24.0607 3.93934C23.7794 3.65804 23.3979 3.5 23 3.5H11C10.6161 3.50273 10.2478 3.65259 9.97106 3.91871C9.69429 4.18483 9.53012 4.54695 9.51233 4.93049C9.49455 5.31403 9.62452 5.68978 9.87547 5.98037C10.1264 6.27096 10.4792 6.45425 10.8613 6.4925L3.59129 26.4925C3.45562 26.8661 3.47381 27.2783 3.64186 27.6386C3.8099 27.9988 4.11407 28.2776 4.48754 28.4137C4.65194 28.4725 4.82545 28.5017 5.00004 28.5C5.30801 28.5001 5.60854 28.4053 5.86079 28.2286C6.11305 28.052 6.30482 27.8019 6.41004 27.5125L7.50004 24.5H12.3125L11.59 26.4875C11.4544 26.8613 11.4728 27.2736 11.6411 27.6339C11.8094 27.9942 12.1138 28.2729 12.4875 28.4088C12.6516 28.4693 12.8251 28.5002 13 28.5C13.308 28.5001 13.6085 28.4053 13.8608 28.2286C14.1131 28.052 14.3048 27.8019 14.41 27.5125L16.5963 21.5H22.4038L24.59 27.5125C24.6953 27.8019 24.887 28.052 25.1393 28.2286C25.3915 28.4053 25.6921 28.5001 26 28.5C26.1749 28.5001 26.3484 28.4692 26.5125 28.4088C26.886 28.2726 27.1902 27.9938 27.3582 27.6336C27.5263 27.2733 27.5445 26.8611 27.4088 26.4875ZM15.5863 15.5H10.7775L11.875 12.5H16.6825L15.5863 15.5ZM17.7675 9.5H12.96L14.0513 6.5H18.8588L17.7675 9.5ZM8.59629 21.5L9.68754 18.5H14.5L13.4088 21.5H8.59629ZM17.6875 18.5L19.5 13.5138L21.3125 18.5H17.6875Z" fill="black"/>
</svg>
