<svg width="32" height="32" viewBox="0 0 32 32" fill="none" xmlns="http://www.w3.org/2000/svg">
<path d="M31.3751 18.4088L25.3751 4.40875C25.2597 4.13958 25.0679 3.91009 24.8236 3.74861C24.5793 3.58712 24.293 3.5007 24.0001 3.5H8.00011C7.70722 3.5007 7.42095 3.58712 7.17661 3.74861C6.93227 3.91009 6.74055 4.13958 6.62511 4.40875L0.625106 18.4088C0.527369 18.6366 0.487648 18.8852 0.509498 19.1322C0.531347 19.3792 0.614086 19.6169 0.750311 19.8241C0.886535 20.0313 1.072 20.2015 1.2901 20.3194C1.50821 20.4374 1.75215 20.4994 2.00011 20.5H14.5001V25.5H12.0001C11.6023 25.5 11.2207 25.658 10.9394 25.9393C10.6581 26.2206 10.5001 26.6022 10.5001 27C10.5001 27.3978 10.6581 27.7794 10.9394 28.0607C11.2207 28.342 11.6023 28.5 12.0001 28.5H20.0001C20.3979 28.5 20.7795 28.342 21.0608 28.0607C21.3421 27.7794 21.5001 27.3978 21.5001 27C21.5001 26.6022 21.3421 26.2206 21.0608 25.9393C20.7795 25.658 20.3979 25.5 20.0001 25.5H17.5001V20.5H23.5001V24C23.5001 24.3978 23.6581 24.7794 23.9394 25.0607C24.2208 25.342 24.6023 25.5 25.0001 25.5C25.3979 25.5 25.7795 25.342 26.0608 25.0607C26.3421 24.7794 26.5001 24.3978 26.5001 24V20.5H30.0001C30.2481 20.4994 30.492 20.4374 30.7101 20.3194C30.9282 20.2015 31.1137 20.0313 31.2499 19.8241C31.3861 19.6169 31.4689 19.3792 31.4907 19.1322C31.5126 18.8852 31.4728 18.6366 31.3751 18.4088ZM4.27511 17.5L8.98886 6.5H23.0114L27.7251 17.5H4.27511Z" fill="black"/>
</svg>
