<svg width="32" height="32" viewBox="0 0 32 32" fill="none" xmlns="http://www.w3.org/2000/svg">
<path d="M27.9313 5.00877C27.917 4.76413 27.8134 4.53325 27.6401 4.35997C27.4669 4.18668 27.236 4.08306 26.9913 4.06877C17.4751 3.51002 9.85258 6.37502 6.60258 11.75C5.47604 13.5887 4.9209 15.7204 5.00758 17.875C5.06416 19.2528 5.34449 20.6122 5.83758 21.9C5.86655 21.9793 5.91512 22.0499 5.97874 22.1053C6.04236 22.1608 6.11898 22.1992 6.20146 22.217C6.28393 22.2349 6.36958 22.2316 6.45043 22.2074C6.53128 22.1832 6.60469 22.139 6.66383 22.0788L17.2888 11.2913C17.3817 11.1984 17.492 11.1247 17.6134 11.0744C17.7348 11.0241 17.8649 10.9982 17.9963 10.9982C18.1277 10.9982 18.2578 11.0241 18.3792 11.0744C18.5006 11.1247 18.6109 11.1984 18.7038 11.2913C18.7967 11.3842 18.8704 11.4945 18.9207 11.6159C18.971 11.7373 18.9969 11.8674 18.9969 11.9988C18.9969 12.1302 18.971 12.2603 18.9207 12.3817C18.8704 12.5031 18.7967 12.6134 18.7038 12.7063L7.09258 24.4925L5.31883 26.2663C5.13436 26.4459 5.02423 26.6883 5.01034 26.9454C4.99644 27.2025 5.0798 27.4553 5.24383 27.6538C5.33366 27.7578 5.44398 27.8422 5.56789 27.9017C5.6918 27.9612 5.82664 27.9945 5.964 27.9995C6.10135 28.0046 6.23827 27.9812 6.36621 27.931C6.49415 27.8808 6.61036 27.8047 6.70758 27.7075L8.80633 25.6088C10.5738 26.4638 12.3576 26.93 14.1263 26.9925C14.2655 26.9975 14.4042 27 14.5426 27C16.5568 27.0052 18.5329 26.4504 20.2501 25.3975C25.6251 22.1475 28.4913 14.5263 27.9313 5.00877Z" fill="black"/>
</svg>
