<svg width="32" height="32" viewBox="0 0 32 32" fill="none" xmlns="http://www.w3.org/2000/svg">
<path d="M28.4274 4.98255C28.406 4.61558 28.2505 4.26926 27.9906 4.00933C27.7307 3.74941 27.3844 3.59398 27.0174 3.57255C22.0674 3.2813 17.6936 3.86505 14.0174 5.3063C10.4999 6.68505 7.78864 8.82255 6.17364 11.4875C3.97114 15.1263 3.96614 19.5438 6.11739 23.7613L3.93864 25.94C3.79911 26.0796 3.68843 26.2452 3.61291 26.4275C3.5374 26.6098 3.49854 26.8052 3.49854 27.0025C3.49854 27.1999 3.5374 27.3953 3.61291 27.5776C3.68843 27.7599 3.79911 27.9255 3.93864 28.065C4.22043 28.3468 4.60262 28.5051 5.00114 28.5051C5.19846 28.5051 5.39385 28.4663 5.57616 28.3908C5.75846 28.3153 5.92411 28.2046 6.06364 28.065L8.24239 25.8863C10.3349 26.9538 12.4774 27.4925 14.5486 27.4925C16.653 27.4991 18.7183 26.9237 20.5161 25.83C23.1811 24.215 25.3186 21.5025 26.6974 17.9863C28.1349 14.3075 28.7186 9.93255 28.4274 4.98255ZM18.9574 23.26C16.4461 24.7813 13.4999 24.8963 10.4924 23.625L21.0599 13.0575C21.1994 12.918 21.3101 12.7524 21.3856 12.5701C21.4611 12.3878 21.5 12.1924 21.5 11.995C21.5 11.7977 21.4611 11.6023 21.3856 11.42C21.3101 11.2377 21.1994 11.0721 21.0599 10.9325C20.9204 10.793 20.7547 10.6823 20.5724 10.6068C20.3901 10.5313 20.1947 10.4924 19.9974 10.4924C19.8001 10.4924 19.6047 10.5313 19.4224 10.6068C19.2401 10.6823 19.0744 10.793 18.9349 10.9325L8.37489 21.5075C7.10739 18.5075 7.22239 15.5538 8.74989 13.0425C11.3636 8.72629 17.5674 6.32755 25.4999 6.5113C25.6724 14.4413 23.2736 20.6463 18.9574 23.26Z" fill="black"/>
</svg>
