<svg width="32" height="32" viewBox="0 0 32 32" fill="none" xmlns="http://www.w3.org/2000/svg">
<path d="M16 2.5C13.33 2.5 10.7199 3.29176 8.49981 4.77516C6.27974 6.25856 4.54942 8.36697 3.52763 10.8338C2.50585 13.3006 2.2385 16.015 2.7594 18.6337C3.28031 21.2525 4.56606 23.6579 6.45406 25.5459C8.34207 27.434 10.7475 28.7197 13.3663 29.2406C15.985 29.7615 18.6994 29.4942 21.1662 28.4724C23.633 27.4506 25.7414 25.7203 27.2248 23.5002C28.7082 21.2801 29.5 18.67 29.5 16C29.496 12.4208 28.0724 8.98932 25.5416 6.45844C23.0107 3.92756 19.5792 2.50397 16 2.5ZM21.5313 19.41C22.1645 18.3853 22.5 17.2046 22.5 16C22.5 14.7954 22.1645 13.6147 21.5313 12.59L24.4063 9.715C25.7654 11.5285 26.5 13.7337 26.5 16C26.5 18.2663 25.7654 20.4715 24.4063 22.285L21.5313 19.41ZM12.5 16C12.5 15.3078 12.7053 14.6311 13.0899 14.0555C13.4744 13.4799 14.0211 13.0313 14.6606 12.7664C15.3002 12.5015 16.0039 12.4322 16.6828 12.5673C17.3618 12.7023 17.9854 13.0356 18.4749 13.5251C18.9644 14.0146 19.2977 14.6383 19.4328 15.3172C19.5678 15.9961 19.4985 16.6999 19.2336 17.3394C18.9687 17.9789 18.5201 18.5256 17.9445 18.9101C17.3689 19.2947 16.6922 19.5 16 19.5C15.0717 19.5 14.1815 19.1313 13.5251 18.4749C12.8688 17.8185 12.5 16.9283 12.5 16ZM22.285 7.59375L19.41 10.4688C18.3853 9.83548 17.2046 9.50005 16 9.50005C14.7954 9.50005 13.6147 9.83548 12.59 10.4688L9.71501 7.59375C11.5285 6.23463 13.7337 5.5 16 5.5C18.2663 5.5 20.4715 6.23463 22.285 7.59375ZM7.59376 9.71875L10.4688 12.5938C9.83548 13.6184 9.50005 14.7992 9.50005 16.0037C9.50005 17.2083 9.83548 18.3891 10.4688 19.4137L7.59376 22.2887C6.23464 20.4752 5.50001 18.27 5.50001 16.0037C5.50001 13.7375 6.23464 11.5323 7.59376 9.71875ZM9.71876 24.41L12.5938 21.535C13.6184 22.1683 14.7992 22.5037 16.0038 22.5037C17.2083 22.5037 18.3891 22.1683 19.4138 21.535L22.2888 24.41C20.4752 25.7691 18.27 26.5038 16.0038 26.5038C13.7375 26.5038 11.5323 25.7691 9.71876 24.41Z" fill="black"/>
</svg>
