<svg width="32" height="32" viewBox="0 0 32 32" fill="none" xmlns="http://www.w3.org/2000/svg">
<path d="M22.4999 28.9999C22.4999 29.3977 22.3419 29.7793 22.0606 30.0606C21.7793 30.3419 21.3977 30.4999 20.9999 30.4999H10.9999C10.6021 30.4999 10.2206 30.3419 9.93926 30.0606C9.65796 29.7793 9.49992 29.3977 9.49992 28.9999C9.49992 28.6021 9.65796 28.2205 9.93926 27.9392C10.2206 27.6579 10.6021 27.4999 10.9999 27.4999H20.9999C21.3977 27.4999 21.7793 27.6579 22.0606 27.9392C22.3419 28.2205 22.4999 28.6021 22.4999 28.9999ZM27.4999 12.9999C27.5045 14.7426 27.1108 16.4634 26.3489 18.0308C25.587 19.5981 24.477 20.9707 23.1037 22.0437C22.9177 22.1853 22.7666 22.3677 22.6619 22.5768C22.5573 22.7859 22.5019 23.0161 22.4999 23.2499V23.4999C22.4999 24.1629 22.2365 24.7988 21.7677 25.2677C21.2988 25.7365 20.663 25.9999 19.9999 25.9999H11.9999C11.3369 25.9999 10.701 25.7365 10.2322 25.2677C9.76332 24.7988 9.49992 24.1629 9.49992 23.4999V23.2499C9.49965 23.02 9.44653 22.7932 9.34466 22.5871C9.24279 22.381 9.09491 22.201 8.91243 22.0612C7.54288 20.9944 6.43392 19.6301 5.66946 18.0715C4.905 16.5129 4.50507 14.8009 4.49992 13.0649C4.46617 6.83615 9.49992 1.6499 15.7237 1.4999C17.257 1.46306 18.7821 1.73329 20.2094 2.29471C21.6367 2.85612 22.9373 3.69736 24.0346 4.76892C25.1319 5.84049 26.0038 7.12072 26.5989 8.53428C27.194 9.94785 27.5004 11.4662 27.4999 12.9999ZM24.4999 12.9999C24.5003 11.8661 24.2738 10.7437 23.8337 9.69874C23.3937 8.65379 22.7491 7.70744 21.9379 6.91538C21.1266 6.12333 20.1651 5.50158 19.1099 5.08675C18.0547 4.67192 16.9271 4.47239 15.7937 4.4999C11.1949 4.6099 7.47492 8.44365 7.49992 13.0474C7.50421 14.3304 7.80014 15.5957 8.36535 16.7476C8.93055 17.8994 9.75023 18.9077 10.7624 19.6962C11.2723 20.0897 11.6915 20.5885 11.9913 21.1586C12.2911 21.7287 12.4646 22.3567 12.4999 22.9999H19.5124C19.5484 22.3555 19.7221 21.7262 20.0219 21.1546C20.3216 20.583 20.7403 20.0823 21.2499 19.6862C22.265 18.8927 23.0855 17.8779 23.6487 16.7191C24.212 15.5604 24.5031 14.2883 24.4999 12.9999ZM21.9912 12.3349C21.8585 11.2125 21.4146 10.1496 20.7098 9.26608C20.005 8.38257 19.0673 7.71368 18.0024 7.3349C17.6302 7.21329 17.2252 7.24204 16.874 7.415C16.5227 7.58797 16.253 7.89143 16.1224 8.26058C15.9918 8.62972 16.0108 9.03529 16.1752 9.39065C16.3397 9.746 16.6365 10.023 17.0024 10.1624C17.5375 10.35 18.0095 10.6835 18.3649 11.1253C18.7203 11.5671 18.9451 12.0995 19.0137 12.6624C19.0574 13.0579 19.2565 13.4198 19.5671 13.6685C19.7209 13.7917 19.8975 13.8834 20.0867 13.9383C20.2759 13.9932 20.4741 14.0103 20.6699 13.9887C20.8658 13.967 21.0554 13.907 21.228 13.812C21.4007 13.717 21.5529 13.589 21.6761 13.4352C21.7992 13.2814 21.8909 13.1049 21.9458 12.9156C22.0007 12.7264 22.0178 12.5282 21.9962 12.3324L21.9912 12.3349Z" fill="black"/>
</svg>
