<svg width="32" height="32" viewBox="0 0 32 32" fill="none" xmlns="http://www.w3.org/2000/svg">
<path d="M22.4701 13.8436C22.4227 13.61 22.3202 13.3911 22.1713 13.2051C22.0224 13.019 21.8313 12.8711 21.6139 12.7736L15.7501 10.1398L17.3626 3.34606C17.4389 3.02364 17.4064 2.68502 17.27 2.38305C17.1336 2.08109 16.9011 1.83278 16.6087 1.67689C16.3163 1.521 15.9806 1.46629 15.6538 1.52132C15.3271 1.57635 15.0278 1.73801 14.8026 1.98106L2.89886 14.8373C2.73711 15.012 2.61926 15.2227 2.55507 15.452C2.49087 15.6812 2.48217 15.9225 2.52969 16.1558C2.5772 16.3891 2.67956 16.6077 2.82831 16.7936C2.97706 16.9795 3.16792 17.1273 3.38511 17.2248L9.26011 19.8598L7.64011 26.6523C7.56287 26.9751 7.59487 27.3144 7.7311 27.6171C7.86733 27.9197 8.1001 28.1687 8.39295 28.3249C8.68579 28.4811 9.02218 28.5358 9.34942 28.4803C9.67667 28.4249 9.97629 28.2625 10.2014 28.0186L22.1001 15.1611C22.2619 14.9865 22.3798 14.7761 22.4441 14.547C22.5084 14.3179 22.5174 14.0768 22.4701 13.8436ZM11.8751 21.7886L12.4551 19.3461C12.5357 19.0065 12.4955 18.6495 12.3412 18.3365C12.187 18.0235 11.9285 17.774 11.6101 17.6311L6.51511 15.3436L13.1251 8.21106L12.5451 10.6536C12.4625 10.9934 12.5013 11.3514 12.6546 11.6657C12.808 11.98 13.0664 12.2308 13.3851 12.3748L18.4814 14.6623L11.8751 21.7886ZM30.3376 26.3286L25.8376 17.3286C25.7131 17.0793 25.5216 16.8696 25.2846 16.7231C25.0475 16.5765 24.7744 16.4989 24.4957 16.4989C24.2171 16.4989 23.9439 16.5765 23.7069 16.7231C23.4699 16.8696 23.2784 17.0793 23.1539 17.3286L18.6539 26.3286C18.5601 26.5053 18.5027 26.6989 18.4849 26.8982C18.4671 27.0974 18.4893 27.2982 18.5503 27.4887C18.6112 27.6792 18.7097 27.8556 18.8398 28.0075C18.97 28.1594 19.1292 28.2838 19.3081 28.3732C19.487 28.4627 19.682 28.5154 19.8816 28.5284C20.0812 28.5414 20.2814 28.5143 20.4704 28.4488C20.6594 28.3832 20.8334 28.2805 20.9821 28.1468C21.1308 28.013 21.2513 27.8508 21.3364 27.6698L22.1764 25.9998H26.8226L27.6576 27.6698C27.7457 27.846 27.8676 28.0032 28.0164 28.1323C28.1652 28.2614 28.338 28.3599 28.5248 28.4222C28.7117 28.4846 28.909 28.5095 29.1056 28.4956C29.3021 28.4816 29.4939 28.4291 29.6701 28.3411C29.8463 28.253 30.0035 28.1311 30.1326 27.9823C30.2617 27.8335 30.3602 27.6607 30.4225 27.4738C30.4849 27.287 30.5098 27.0896 30.4959 26.8931C30.4819 26.6966 30.4294 26.5048 30.3414 26.3286H30.3376ZM23.6764 22.9998L24.5001 21.3536L25.3226 22.9998H23.6764Z" fill="black"/>
</svg>
