<svg width="32" height="32" viewBox="0 0 32 32" fill="none" xmlns="http://www.w3.org/2000/svg">
<path d="M6.55504 4.50001C6.41774 4.37257 6.23771 4.30112 6.05039 4.29973C5.86306 4.29834 5.68199 4.3671 5.54281 4.49249C5.40363 4.61788 5.31642 4.79081 5.29832 4.97727C5.28023 5.16372 5.33256 5.3502 5.44504 5.50001L10.5063 11.0725L5.45129 16.4888C5.36721 16.5789 5.30665 16.6884 5.27496 16.8075C5.24327 16.9266 5.24144 17.0517 5.26961 17.1718C5.29779 17.2918 5.35512 17.403 5.43652 17.4955C5.51791 17.5881 5.62087 17.6592 5.73629 17.7025L13.14 20.4788L11.265 29.8538C11.2328 30.0138 11.2537 30.18 11.3246 30.3271C11.3954 30.4742 11.5123 30.5941 11.6575 30.6688C11.7638 30.7223 11.8811 30.7502 12 30.75C12.103 30.75 12.2048 30.7288 12.2993 30.6877C12.3937 30.6467 12.4786 30.5866 12.5488 30.5113L20.4663 22.0275L25.445 27.5C25.579 27.6472 25.7659 27.7352 25.9647 27.7445C26.1635 27.7539 26.3578 27.6839 26.505 27.55C26.6522 27.4161 26.7402 27.2292 26.7496 27.0304C26.7589 26.8316 26.689 26.6372 26.555 26.49L6.55504 4.50001ZM13.25 27.5575L14.7313 20.1475C14.7664 19.9729 14.7383 19.7916 14.652 19.6359C14.5656 19.4801 14.4267 19.3602 14.26 19.2975L7.31004 16.6913L11.515 12.1913L19.45 20.92L13.25 27.5575ZM13.75 8.69376C13.6047 8.558 13.5192 8.37005 13.5124 8.17127C13.5056 7.97248 13.578 7.77914 13.7138 7.63376L19.4488 1.48876C19.5601 1.36947 19.7073 1.28974 19.8681 1.26167C20.0288 1.2336 20.1943 1.25872 20.3395 1.33321C20.4847 1.40771 20.6016 1.52752 20.6725 1.67447C20.7435 1.82143 20.7645 1.9875 20.7325 2.14751L18.8575 11.5225L26.2613 14.2988C26.3767 14.3421 26.4797 14.4131 26.5611 14.5057C26.6425 14.5983 26.6998 14.7095 26.728 14.8295C26.7561 14.9495 26.7543 15.0746 26.7226 15.1938C26.6909 15.3129 26.6304 15.4224 26.5463 15.5125L23.76 18.5C23.6931 18.573 23.6123 18.632 23.5224 18.6736C23.4326 18.7152 23.3353 18.7386 23.2363 18.7424C23.1374 18.7462 23.0386 18.7304 22.9458 18.6958C22.853 18.6613 22.7679 18.6087 22.6955 18.5411C22.6232 18.4735 22.5649 18.3922 22.5241 18.302C22.4833 18.2117 22.4607 18.1143 22.4578 18.0153C22.4548 17.9163 22.4715 17.8177 22.5069 17.7252C22.5422 17.6327 22.5956 17.5481 22.6638 17.4763L24.6863 15.31L17.7363 12.7038C17.5696 12.6411 17.4307 12.5212 17.3444 12.3654C17.258 12.2097 17.2299 12.0283 17.265 11.8538L18.75 4.44251L14.8125 8.65626C14.7454 8.7287 14.6645 8.78714 14.5747 8.82825C14.4849 8.86936 14.3878 8.89231 14.2891 8.8958C14.1904 8.89928 14.0919 8.88323 13.9994 8.84856C13.9069 8.81388 13.8222 8.76128 13.75 8.69376Z" fill="black"/>
</svg>
