<svg width="32" height="32" viewBox="0 0 32 32" fill="none" xmlns="http://www.w3.org/2000/svg">
<path d="M21.7499 29.0002C21.7499 29.1991 21.6709 29.3899 21.5303 29.5305C21.3896 29.6712 21.1988 29.7502 20.9999 29.7502H10.9999C10.801 29.7502 10.6102 29.6712 10.4696 29.5305C10.3289 29.3899 10.2499 29.1991 10.2499 29.0002C10.2499 28.8013 10.3289 28.6105 10.4696 28.4699C10.6102 28.3292 10.801 28.2502 10.9999 28.2502H20.9999C21.1988 28.2502 21.3896 28.3292 21.5303 28.4699C21.6709 28.6105 21.7499 28.8013 21.7499 29.0002ZM26.7499 13.0002C26.7541 14.6295 26.386 16.2382 25.6737 17.7035C24.9614 19.1688 23.9238 20.452 22.6399 21.4552C22.3646 21.6668 22.1413 21.9385 21.9871 22.2496C21.8328 22.5607 21.7517 22.903 21.7499 23.2502V24.0002C21.7499 24.4643 21.5655 24.9094 21.2374 25.2376C20.9092 25.5658 20.4641 25.7502 19.9999 25.7502H11.9999C11.5358 25.7502 11.0907 25.5658 10.7625 25.2376C10.4343 24.9094 10.2499 24.4643 10.2499 24.0002V23.2502C10.2496 22.9066 10.1705 22.5676 10.0189 22.2593C9.8672 21.9509 9.64691 21.6814 9.37492 21.4714C8.0952 20.4748 7.05883 19.2002 6.3442 17.7441C5.62957 16.288 5.25538 14.6885 5.24992 13.0664C5.21742 7.23893 9.92367 2.39019 15.7412 2.25019C17.1745 2.21567 18.6003 2.46824 19.9345 2.993C21.2688 3.51777 22.4846 4.30414 23.5104 5.30582C24.5362 6.30751 25.3513 7.50427 25.9076 8.82568C26.4639 10.1471 26.7503 11.5664 26.7499 13.0002ZM25.2499 13.0002C25.2503 11.7664 25.0038 10.545 24.525 9.40791C24.0462 8.27081 23.3448 7.24098 22.462 6.37905C21.5793 5.51712 20.533 4.8405 19.3847 4.38903C18.2365 3.93755 17.0096 3.72034 15.7762 3.75019C10.7712 3.87519 6.72242 8.04268 6.74992 13.0527C6.75466 14.4486 7.07671 15.8253 7.69172 17.0785C8.30673 18.3317 9.19861 19.4286 10.2999 20.2864C10.7522 20.6367 11.118 21.086 11.3694 21.5998C11.6208 22.1136 11.751 22.6782 11.7499 23.2502V24.0002C11.7499 24.0665 11.7763 24.1301 11.8231 24.177C11.87 24.2238 11.9336 24.2502 11.9999 24.2502H19.9999C20.0662 24.2502 20.1298 24.2238 20.1767 24.177C20.2236 24.1301 20.2499 24.0665 20.2499 24.0002V23.2502C20.2515 22.6761 20.384 22.1099 20.6374 21.5948C20.8909 21.0797 21.2585 20.6292 21.7124 20.2777C22.8178 19.4146 23.7112 18.3101 24.3244 17.0488C24.9375 15.7875 25.2541 14.4026 25.2499 13.0002ZM22.7399 11.8752C22.4898 10.4777 21.8176 9.19031 20.8137 8.18642C19.8098 7.18252 18.5224 6.51028 17.1249 6.26019C17.0277 6.24377 16.9283 6.24666 16.8322 6.26868C16.7362 6.2907 16.6454 6.33143 16.5651 6.38854C16.4028 6.50387 16.2931 6.67893 16.2599 6.87519C16.2268 7.07144 16.2729 7.27284 16.3883 7.43506C16.5036 7.59727 16.6787 7.70703 16.8749 7.74018C19.0474 8.10518 20.8912 9.95018 21.2599 12.1252C21.2894 12.2998 21.3798 12.4584 21.515 12.5728C21.6502 12.6872 21.8216 12.75 21.9987 12.7502C22.0405 12.7499 22.0823 12.7466 22.1237 12.7402C22.221 12.724 22.3142 12.6887 22.3978 12.6364C22.4815 12.5842 22.554 12.5159 22.6113 12.4356C22.6685 12.3552 22.7094 12.2643 22.7314 12.1682C22.7535 12.072 22.7564 11.9725 22.7399 11.8752Z" fill="black"/>
</svg>
