<svg width="32" height="32" viewBox="0 0 32 32" fill="none" xmlns="http://www.w3.org/2000/svg">
<path d="M21.7499 29.0002C21.7499 29.1991 21.6709 29.3899 21.5303 29.5305C21.3896 29.6712 21.1988 29.7502 20.9999 29.7502H10.9999C10.801 29.7502 10.6102 29.6712 10.4696 29.5305C10.3289 29.3899 10.2499 29.1991 10.2499 29.0002C10.2499 28.8013 10.3289 28.6105 10.4696 28.4699C10.6102 28.3292 10.801 28.2502 10.9999 28.2502H20.9999C21.1988 28.2502 21.3896 28.3292 21.5303 28.4699C21.6709 28.6105 21.7499 28.8013 21.7499 29.0002ZM26.7499 13.0002C26.7541 14.6295 26.386 16.2382 25.6737 17.7035C24.9614 19.1688 23.9238 20.452 22.6399 21.4552C22.3646 21.6668 22.1413 21.9385 21.9871 22.2496C21.8328 22.5607 21.7517 22.903 21.7499 23.2502V24.0002C21.7499 24.4643 21.5655 24.9094 21.2374 25.2376C20.9092 25.5658 20.4641 25.7502 19.9999 25.7502H11.9999C11.5358 25.7502 11.0907 25.5658 10.7625 25.2376C10.4343 24.9094 10.2499 24.4643 10.2499 24.0002V23.2502C10.2496 22.9066 10.1705 22.5676 10.0189 22.2593C9.8672 21.9509 9.64691 21.6814 9.37492 21.4714C8.09503 20.4747 7.05856 19.1999 6.34393 17.7436C5.62929 16.2872 5.25519 14.6874 5.24992 13.0652C5.21742 7.23893 9.92367 2.39019 15.7412 2.25019C17.1745 2.21567 18.6003 2.46824 19.9345 2.993C21.2688 3.51777 22.4846 4.30414 23.5104 5.30582C24.5362 6.30751 25.3513 7.50427 25.9076 8.82568C26.4639 10.1471 26.7503 11.5664 26.7499 13.0002ZM25.2499 13.0002C25.2503 11.7664 25.0038 10.545 24.525 9.40791C24.0462 8.27081 23.3448 7.24098 22.462 6.37905C21.5793 5.51712 20.533 4.8405 19.3847 4.38903C18.2365 3.93755 17.0096 3.72034 15.7762 3.75019C10.7712 3.87519 6.72242 8.04268 6.74992 13.0527C6.75466 14.4486 7.07671 15.8253 7.69172 17.0785C8.30673 18.3317 9.19861 19.4286 10.2999 20.2864C10.7522 20.6367 11.118 21.086 11.3694 21.5998C11.6208 22.1136 11.751 22.6782 11.7499 23.2502V24.0002C11.7499 24.0665 11.7763 24.1301 11.8231 24.177C11.87 24.2238 11.9336 24.2502 11.9999 24.2502H15.2499V18.3114L11.4699 14.5302C11.3374 14.388 11.2653 14.2 11.2687 14.0057C11.2722 13.8114 11.3509 13.626 11.4883 13.4886C11.6257 13.3512 11.8111 13.2724 12.0054 13.269C12.1997 13.2656 12.3877 13.3377 12.5299 13.4702L15.9999 16.9402L19.4699 13.4702C19.6121 13.3377 19.8001 13.2656 19.9944 13.269C20.1887 13.2724 20.3741 13.3512 20.5115 13.4886C20.649 13.626 20.7277 13.8114 20.7311 14.0057C20.7345 14.2 20.6624 14.388 20.5299 14.5302L16.7499 18.3114V24.2502H19.9999C20.0662 24.2502 20.1298 24.2238 20.1767 24.177C20.2236 24.1301 20.2499 24.0665 20.2499 24.0002V23.2502C20.2515 22.6761 20.384 22.1099 20.6374 21.5948C20.8909 21.0797 21.2585 20.6292 21.7124 20.2777C22.8178 19.4146 23.7112 18.3101 24.3244 17.0488C24.9375 15.7875 25.2541 14.4026 25.2499 13.0002Z" fill="black"/>
</svg>
