<svg width="32" height="32" viewBox="0 0 32 32" fill="none" xmlns="http://www.w3.org/2000/svg">
<path d="M27.5 10.5C27.1022 10.5 26.7206 10.6581 26.4393 10.9394C26.158 11.2207 26 11.6022 26 12V13H24.1087L23.4925 6.85004C23.4567 6.47469 23.2809 6.12659 23 5.87504L17.6375 1.11129L17.6 1.08004C17.1508 0.705873 16.5846 0.500977 16 0.500977C15.4154 0.500977 14.8492 0.705873 14.4 1.08004L14.3625 1.11129L9 5.87504C8.71746 6.12413 8.53897 6.4704 8.5 6.84504L7.89125 13H6V12C6 11.6022 5.84196 11.2207 5.56066 10.9394C5.27936 10.6581 4.89782 10.5 4.5 10.5C4.10218 10.5 3.72064 10.6581 3.43934 10.9394C3.15804 11.2207 3 11.6022 3 12V14.5C3 14.8979 3.15804 15.2794 3.43934 15.5607C3.72064 15.842 4.10218 16 4.5 16H7.59L6.51125 26.7625C6.47816 27.1093 6.5179 27.4591 6.62792 27.7897C6.73794 28.1202 6.91581 28.424 7.15013 28.6818C7.38445 28.9395 7.67005 29.1454 7.98861 29.2863C8.30717 29.4273 8.65166 29.5 9 29.5H23C23.3488 29.5 23.6937 29.4269 24.0126 29.2855C24.3315 29.1441 24.6173 28.9376 24.8516 28.6792C25.0858 28.4208 25.2634 28.1162 25.373 27.785C25.4825 27.4539 25.5215 27.1034 25.4875 26.7563L24.41 16H27.5C27.8978 16 28.2794 15.842 28.5607 15.5607C28.842 15.2794 29 14.8979 29 14.5V12C29 11.6022 28.842 11.2207 28.5607 10.9394C28.2794 10.6581 27.8978 10.5 27.5 10.5ZM16 3.67004L18.0575 5.50004H13.9425L16 3.67004ZM11.3575 8.50004H20.6425L21.0938 13H17.5V12C17.5 11.6022 17.342 11.2207 17.0607 10.9394C16.7794 10.6581 16.3978 10.5 16 10.5C15.6022 10.5 15.2206 10.6581 14.9393 10.9394C14.658 11.2207 14.5 11.6022 14.5 12V13H10.9062L11.3575 8.50004ZM9.5525 26.5L9.95375 22.5H22.0462L22.4475 26.5H9.5525ZM21.75 19.5H10.25L10.6 16H21.39L21.75 19.5Z" fill="black"/>
</svg>
