<svg width="32" height="32" viewBox="0 0 32 32" fill="none" xmlns="http://www.w3.org/2000/svg">
<path d="M27.4599 14.6573C27.4037 14.4171 27.289 14.1944 27.1262 14.0091C26.9633 13.8237 26.7572 13.6815 26.5262 13.5948L19.7212 11.0436L21.4712 2.29356C21.5352 1.97354 21.493 1.64139 21.3512 1.34748C21.2093 1.05358 20.9755 0.813957 20.6851 0.664963C20.3948 0.51597 20.0637 0.465734 19.7422 0.521876C19.4208 0.578017 19.1264 0.737474 18.9037 0.976058L4.90369 15.9761C4.73525 16.1563 4.61388 16.3754 4.55035 16.6138C4.48681 16.8522 4.48306 17.1026 4.53943 17.3428C4.59581 17.583 4.71056 17.8056 4.87352 17.9908C5.03649 18.1761 5.24263 18.3183 5.47369 18.4048L12.2787 20.9561L10.5287 29.7061C10.4647 30.0261 10.5068 30.3582 10.6487 30.6521C10.7906 30.946 11.0244 31.1857 11.3148 31.3347C11.6051 31.4836 11.9361 31.5339 12.2576 31.4777C12.5791 31.4216 12.8735 31.2621 13.0962 31.0236L27.0962 16.0236C27.2645 15.8433 27.3857 15.6243 27.4491 15.386C27.5126 15.1477 27.5163 14.8974 27.4599 14.6573ZM14.5062 25.1161L15.4712 20.2936C15.541 19.9443 15.4842 19.5816 15.3111 19.2704C15.138 18.9592 14.8597 18.7197 14.5262 18.5948L8.62494 16.3836L17.4912 6.88356L16.5262 11.7061C16.4564 12.0553 16.5131 12.418 16.6863 12.7292C16.8594 13.0405 17.1376 13.2799 17.4712 13.4048L23.3749 15.6161L14.5062 25.1161Z" fill="black"/>
</svg>
