<svg width="32" height="32" viewBox="0 0 32 32" fill="none" xmlns="http://www.w3.org/2000/svg">
<path d="M22.4999 28.9999C22.4999 29.3977 22.3419 29.7793 22.0606 30.0606C21.7793 30.3419 21.3977 30.4999 20.9999 30.4999H10.9999C10.6021 30.4999 10.2206 30.3419 9.93926 30.0606C9.65796 29.7793 9.49992 29.3977 9.49992 28.9999C9.49992 28.6021 9.65796 28.2205 9.93926 27.9392C10.2206 27.6579 10.6021 27.4999 10.9999 27.4999H20.9999C21.3977 27.4999 21.7793 27.6579 22.0606 27.9392C22.3419 28.2205 22.4999 28.6021 22.4999 28.9999ZM27.4999 12.9999C27.495 14.7893 27.0747 16.5531 26.2721 18.1523C25.4695 19.7516 24.3066 21.1428 22.8749 22.2162C22.7562 22.309 22.6605 22.428 22.5954 22.564C22.5304 22.7 22.4977 22.8492 22.4999 22.9999C22.4999 23.3282 22.4353 23.6533 22.3096 23.9566C22.184 24.2599 21.9998 24.5355 21.7677 24.7677C21.5355 24.9998 21.2599 25.184 20.9566 25.3096C20.6533 25.4352 20.3282 25.4999 19.9999 25.4999H11.9999C11.6716 25.4999 11.3465 25.4352 11.0432 25.3096C10.7399 25.184 10.4643 24.9998 10.2322 24.7677C10 24.5355 9.81586 24.2599 9.69023 23.9566C9.56459 23.6533 9.49992 23.3282 9.49992 22.9999V22.9712C9.49766 22.8192 9.45972 22.6699 9.38915 22.5352C9.31859 22.4006 9.21737 22.2845 9.09367 22.1962C7.6721 21.1362 6.51688 19.7598 5.71954 18.176C4.92219 16.5921 4.50463 14.8444 4.49992 13.0712C4.46617 6.83615 9.49992 1.6499 15.7237 1.4999C17.257 1.46306 18.7821 1.73329 20.2094 2.29471C21.6367 2.85612 22.9373 3.69736 24.0346 4.76892C25.1319 5.84049 26.0038 7.12072 26.5989 8.53428C27.194 9.94785 27.5004 11.4662 27.4999 12.9999ZM24.4999 12.9999C24.5003 11.8661 24.2738 10.7437 23.8337 9.69874C23.3937 8.65379 22.7491 7.70744 21.9379 6.91538C21.1266 6.12333 20.1651 5.50158 19.1099 5.08675C18.0547 4.67192 16.9271 4.47239 15.7937 4.4999C11.1949 4.61115 7.47492 8.4449 7.49992 13.0487C7.50274 14.3604 7.81126 15.6534 8.40102 16.8251C8.99077 17.9968 9.84552 19.0149 10.8974 19.7987C11.327 20.1209 11.6875 20.526 11.9578 20.9899C12.2281 21.4539 12.4027 21.9673 12.4712 22.4999H14.4999V18.6249L10.9387 15.0612C10.7991 14.9216 10.6885 14.756 10.613 14.5737C10.5374 14.3914 10.4986 14.196 10.4986 13.9987C10.4986 13.6001 10.6569 13.2179 10.9387 12.9362C11.2205 12.6544 11.6027 12.496 12.0012 12.496C12.3997 12.496 12.7819 12.6544 13.0637 12.9362L15.9999 15.8749L18.9387 12.9362C19.2205 12.6544 19.6027 12.496 20.0012 12.496C20.3997 12.496 20.7819 12.6544 21.0637 12.9362C21.3455 13.2179 21.5038 13.6001 21.5038 13.9987C21.5038 14.3972 21.3455 14.7794 21.0637 15.0612L17.4999 18.6249V22.4999H19.5312C19.5971 21.9712 19.7683 21.4611 20.0348 20.9997C20.3012 20.5383 20.6575 20.135 21.0824 19.8137C22.1472 19.0261 23.0114 17.9988 23.6052 16.815C24.1989 15.6313 24.5054 14.3242 24.4999 12.9999Z" fill="black"/>
</svg>
