<svg width="32" height="32" viewBox="0 0 32 32" fill="none" xmlns="http://www.w3.org/2000/svg">
<path d="M21.7351 13.9927C21.7113 13.8762 21.6601 13.7671 21.5857 13.6743C21.5114 13.5815 21.4161 13.5077 21.3076 13.459L14.8751 10.5702L16.6251 3.17398C16.6637 3.01267 16.6477 2.84311 16.5797 2.69184C16.5116 2.54058 16.3954 2.41613 16.2491 2.33798C16.1028 2.25983 15.9347 2.23238 15.7711 2.25993C15.6075 2.28748 15.4577 2.36847 15.3451 2.49023L3.4501 15.3477C3.36921 15.435 3.31025 15.5403 3.27811 15.6549C3.24597 15.7695 3.24156 15.8901 3.26526 16.0068C3.28895 16.1234 3.34006 16.2328 3.41437 16.3257C3.48868 16.4187 3.58405 16.4927 3.6926 16.5415L10.1251 19.4302L8.3751 26.8265C8.33667 26.9875 8.35262 27.1568 8.42045 27.3078C8.48828 27.4589 8.60419 27.5832 8.7501 27.6615C8.89627 27.7392 9.06406 27.7665 9.22731 27.7389C9.39056 27.7113 9.5401 27.6305 9.6526 27.509L21.5526 14.6527C21.6332 14.5651 21.6918 14.4595 21.7236 14.3448C21.7553 14.23 21.7593 14.1093 21.7351 13.9927ZM10.4851 24.394L11.7251 19.174C11.7654 19.0042 11.7453 18.8257 11.6682 18.6692C11.5911 18.5127 11.4618 18.388 11.3026 18.3165L5.2601 15.6002L14.5101 5.60023L13.2701 10.8215C13.2298 10.9912 13.2499 11.1697 13.327 11.3263C13.4042 11.4828 13.5334 11.6075 13.6926 11.679L19.7401 14.3952L10.4851 24.394ZM29.6651 26.664L25.1651 17.664C25.1029 17.5392 25.0071 17.4342 24.8886 17.3608C24.77 17.2874 24.6333 17.2485 24.4939 17.2485C24.3544 17.2485 24.2177 17.2874 24.0991 17.3608C23.9806 17.4342 23.8848 17.5392 23.8226 17.664L19.3226 26.664C19.2785 26.7521 19.2522 26.8481 19.2453 26.9464C19.2383 27.0447 19.2507 27.1434 19.2819 27.2369C19.3131 27.3304 19.3623 27.4169 19.4269 27.4913C19.4915 27.5658 19.5701 27.6268 19.6582 27.6709C19.7464 27.7149 19.8423 27.7412 19.9407 27.7482C20.039 27.7552 20.1377 27.7427 20.2312 27.7116C20.3247 27.6804 20.4111 27.6311 20.4856 27.5666C20.56 27.502 20.621 27.4234 20.6651 27.3352L21.9639 24.7502H27.0364L28.3289 27.3352C28.3911 27.46 28.4869 27.5649 28.6055 27.6382C28.724 27.7115 28.8607 27.7503 29.0001 27.7502C29.1165 27.7505 29.2314 27.7231 29.3351 27.6702C29.5129 27.5812 29.6482 27.4252 29.711 27.2365C29.7738 27.0478 29.7591 26.8418 29.6701 26.664H29.6651ZM22.7139 23.2502L24.5001 19.6777L26.2864 23.2502H22.7139Z" fill="black"/>
</svg>
