<svg width="32" height="32" viewBox="0 0 32 32" fill="none" xmlns="http://www.w3.org/2000/svg">
<path d="M26.6537 5.34616C25.9965 4.689 25.1186 4.29935 24.1903 4.25276C23.262 4.20618 22.3495 4.50598 21.6297 5.09403C20.91 5.68208 20.4342 6.51648 20.2948 7.4354C20.1553 8.35432 20.3621 9.29229 20.875 10.0674L10.0675 20.8749C9.34576 20.3994 8.48218 20.1871 7.62222 20.2738C6.76226 20.3606 5.95848 20.7411 5.34625 21.3512C4.84449 21.853 4.49544 22.4869 4.33965 23.1793C4.18386 23.8716 4.22772 24.594 4.46614 25.2624C4.70456 25.9308 5.12774 26.5178 5.68653 26.9553C6.24532 27.3928 6.91678 27.6627 7.62287 27.7337C8.32897 27.8047 9.04073 27.6739 9.67545 27.3565C10.3102 27.0391 10.8418 26.5481 11.2085 25.9406C11.5753 25.333 11.7621 24.6339 11.7474 23.9244C11.7326 23.2149 11.5168 22.5241 11.125 21.9324L21.9325 11.1249C22.7078 11.6406 23.6472 11.8494 24.5679 11.7107C25.4887 11.572 26.3249 11.0957 26.9139 10.3745C27.5028 9.65331 27.8024 8.73879 27.7543 7.80891C27.7063 6.87902 27.314 6.00027 26.6537 5.34366V5.34616ZM9.59 25.5962C9.2753 25.9108 8.87439 26.125 8.43795 26.2117C8.00151 26.2985 7.54915 26.2539 7.13806 26.0836C6.72697 25.9132 6.37561 25.6249 6.12841 25.2549C5.88121 24.8849 5.74927 24.4499 5.74927 24.0049C5.74927 23.5599 5.88121 23.1249 6.12841 22.755C6.37561 22.385 6.72697 22.0966 7.13806 21.9263C7.54915 21.7559 8.00151 21.7113 8.43795 21.7981C8.87439 21.8848 9.2753 22.0991 9.59 22.4137C10.011 22.8355 10.2474 23.4071 10.2474 24.003C10.2474 24.599 10.011 25.1706 9.59 25.5924V25.5962ZM25.59 9.59616C25.3811 9.80517 25.133 9.97097 24.86 10.0841C24.5869 10.1972 24.2943 10.2554 23.9987 10.2554C23.7032 10.2554 23.4106 10.1972 23.1375 10.0841C22.8645 9.97097 22.6164 9.80517 22.4075 9.59616C22.0929 9.28146 21.8787 8.88055 21.7919 8.44411C21.7052 8.00768 21.7498 7.55531 21.9201 7.14422C22.0904 6.73313 22.3788 6.38177 22.7488 6.13457C23.1188 5.88737 23.5538 5.75543 23.9987 5.75543C24.4437 5.75543 24.8787 5.88737 25.2487 6.13457C25.6187 6.38177 25.9071 6.73313 26.0774 7.14422C26.2477 7.55531 26.2923 8.00768 26.2056 8.44411C26.1188 8.88055 25.9046 9.28146 25.59 9.59616Z" fill="black"/>
</svg>
