<svg width="32" height="32" viewBox="0 0 32 32" fill="none" xmlns="http://www.w3.org/2000/svg">
<path d="M30.1838 3.81634C29.7659 3.39832 29.2697 3.06672 28.7237 2.84049C28.1776 2.61425 27.5923 2.4978 27.0013 2.4978C26.4102 2.4978 25.8249 2.61425 25.2788 2.84049C24.7328 3.06672 24.2366 3.39832 23.8188 3.81634C23.0029 4.6346 22.5324 5.73495 22.5044 6.89014C22.4765 8.04534 22.8933 9.16713 23.6688 10.0238L20.69 15.5563C19.7963 15.4182 18.8817 15.5519 18.065 15.9401L16.065 13.9401C16.5245 12.982 16.6302 11.8923 16.3634 10.8638C16.0965 9.83529 15.4743 8.9344 14.6069 8.32063C13.7396 7.70686 12.683 7.41981 11.6243 7.51031C10.5656 7.60081 9.57311 8.06302 8.8225 8.81509C8.00492 9.63244 7.53326 10.7331 7.50534 11.8888C7.47741 13.0446 7.89535 14.1667 8.6725 15.0226L5.6875 20.5563C4.98782 20.447 4.27222 20.5044 3.59889 20.7238C2.92556 20.9431 2.31351 21.3183 1.81251 21.8188C1.18986 22.4417 0.763666 23.2335 0.586739 24.0963C0.409812 24.959 0.489931 25.8547 0.817166 26.6724C1.1444 27.49 1.70437 28.1936 2.42767 28.6961C3.15097 29.1985 4.00581 29.4777 4.88624 29.499C5.76668 29.5203 6.63401 29.2827 7.38074 28.8158C8.12748 28.3489 8.72079 27.6732 9.08715 26.8723C9.45351 26.0714 9.57682 25.1806 9.44179 24.3104C9.30676 23.4401 8.91932 22.6285 8.32751 21.9763L11.3063 16.4438C11.5357 16.4809 11.7676 16.4997 12 16.5001C12.6708 16.5003 13.3331 16.3508 13.9388 16.0626L15.9388 18.0626C15.5871 18.7987 15.4422 19.6165 15.5196 20.4287C15.5969 21.2408 15.8935 22.0166 16.3777 22.6731C16.8619 23.3297 17.5154 23.8422 18.2685 24.156C19.0215 24.4698 19.8456 24.5729 20.6528 24.4545C21.4599 24.336 22.2196 24.0004 22.8507 23.4834C23.4818 22.9665 23.9606 22.2878 24.2357 21.5198C24.5108 20.7518 24.572 19.9235 24.4127 19.1234C24.2534 18.3233 23.8796 17.5816 23.3313 16.9776L26.3125 11.4438C26.5399 11.48 26.7697 11.4988 27 11.5001C27.8899 11.5 28.7598 11.2362 29.4998 10.7418C30.2397 10.2474 30.8165 9.54468 31.1571 8.72255C31.4977 7.90041 31.5869 6.99573 31.4135 6.12289C31.24 5.25006 30.8116 4.44825 30.1825 3.81884L30.1838 3.81634ZM10.9338 10.9413C11.2155 10.6595 11.5977 10.5012 11.9963 10.5012C12.3948 10.5012 12.777 10.6595 13.0588 10.9413C13.3405 11.2231 13.4989 11.6053 13.4989 12.0038C13.4989 12.4024 13.3405 12.7845 13.0588 13.0663C12.777 13.3481 12.3948 13.5064 11.9963 13.5064C11.5977 13.5064 11.2155 13.3481 10.9338 13.0663C10.652 12.7845 10.4937 12.4024 10.4937 12.0038C10.4937 11.6053 10.652 11.2231 10.9338 10.9413ZM6.05875 26.0663C5.84877 26.2756 5.58149 26.4179 5.29066 26.4754C4.99983 26.5329 4.6985 26.5028 4.42471 26.3892C4.15092 26.2755 3.91696 26.0832 3.75237 25.8367C3.58778 25.5901 3.49994 25.3003 3.49994 25.0038C3.49994 24.7074 3.58778 24.4176 3.75237 24.171C3.91696 23.9245 4.15092 23.7322 4.42471 23.6185C4.6985 23.5048 4.99983 23.4748 5.29066 23.5323C5.58149 23.5897 5.84877 23.7321 6.05875 23.9413C6.34004 24.2226 6.49806 24.6042 6.49806 25.002C6.49806 25.3998 6.34004 25.7813 6.05875 26.0626V26.0663ZM21.0588 21.0663C20.8488 21.2756 20.5815 21.4179 20.2907 21.4754C19.9998 21.5329 19.6985 21.5028 19.4247 21.3892C19.1509 21.2755 18.917 21.0832 18.7524 20.8367C18.5878 20.5901 18.4999 20.3003 18.4999 20.0038C18.4999 19.7074 18.5878 19.4176 18.7524 19.171C18.917 18.9245 19.1509 18.7322 19.4247 18.6185C19.6985 18.5048 19.9998 18.4748 20.2907 18.5323C20.5815 18.5897 20.8488 18.7321 21.0588 18.9413C21.34 19.2223 21.4982 19.6033 21.4987 20.0008C21.4992 20.3983 21.3418 20.7798 21.0613 21.0613L21.0588 21.0663ZM28.0588 8.06634C27.8488 8.2756 27.5815 8.41794 27.2907 8.4754C26.9998 8.53286 26.6985 8.50285 26.4247 8.38916C26.1509 8.27548 25.917 8.08322 25.7524 7.83666C25.5878 7.5901 25.4999 7.30029 25.4999 7.00384C25.4999 6.70739 25.5878 6.41759 25.7524 6.17103C25.917 5.92447 26.1509 5.73221 26.4247 5.61852C26.6985 5.50484 26.9998 5.47483 27.2907 5.53228C27.5815 5.58974 27.8488 5.73208 28.0588 5.94134C28.3398 6.22204 28.498 6.60275 28.4987 6.99994C28.4994 7.39714 28.3425 7.7784 28.0625 8.06009L28.0588 8.06634Z" fill="black"/>
</svg>
