<svg width="32" height="32" viewBox="0 0 32 32" fill="none" xmlns="http://www.w3.org/2000/svg">
<path d="M18.5601 8.49133L18.1338 8.98258C18.0048 9.13147 17.8477 9.25348 17.6715 9.34166C17.4954 9.42984 17.3035 9.48245 17.107 9.49649C16.9105 9.51054 16.7132 9.48574 16.5262 9.42351C16.3393 9.36129 16.1665 9.26285 16.0176 9.13383C15.8687 9.00481 15.7467 8.84772 15.6585 8.67154C15.5703 8.49536 15.5177 8.30354 15.5037 8.10703C15.4753 7.71016 15.6058 7.31827 15.8663 7.01758L16.3313 6.48133C16.3551 6.45508 16.3788 6.42883 16.4038 6.40383C17.6228 5.18483 19.2762 4.5 21.0001 4.5C21.8537 4.5 22.6989 4.66813 23.4876 4.99479C24.2762 5.32145 24.9927 5.80024 25.5963 6.40383C26.1999 7.00742 26.6787 7.72398 27.0054 8.51261C27.332 9.30123 27.5002 10.1465 27.5002 11.0001C27.5002 11.8537 27.332 12.6989 27.0054 13.4876C26.6787 14.2762 26.1999 14.9927 25.5963 15.5963C25.5713 15.6213 25.5451 15.6451 25.5188 15.6688L24.9826 16.1338C24.8337 16.2629 24.6609 16.3613 24.4739 16.4235C24.287 16.4857 24.0896 16.5105 23.8931 16.4965C23.6966 16.4824 23.5048 16.4298 23.3286 16.3417C23.1524 16.2535 22.9954 16.1315 22.8663 15.9826C22.7373 15.8337 22.6389 15.6609 22.5766 15.4739C22.5144 15.287 22.4896 15.0896 22.5037 14.8931C22.5177 14.6966 22.5703 14.5048 22.6585 14.3286C22.7467 14.1524 22.8687 13.9954 23.0176 13.8663L23.5088 13.4401C24.1435 12.7794 24.4938 11.8963 24.4846 10.9803C24.4754 10.0642 24.1074 9.18829 23.4596 8.54051C22.8119 7.89274 21.9359 7.52476 21.0199 7.51556C20.1039 7.50637 19.2207 7.85669 18.5601 8.49133ZM15.9826 22.8663C15.8337 22.7373 15.6609 22.6388 15.4739 22.5766C15.287 22.5143 15.0896 22.4895 14.8931 22.5036C14.6966 22.5176 14.5048 22.5702 14.3286 22.6584C14.1524 22.7466 13.9953 22.8687 13.8663 23.0176L13.4401 23.5088C12.7794 24.1435 11.8963 24.4938 10.9803 24.4846C10.0642 24.4754 9.18829 24.1074 8.54051 23.4596C7.89274 22.8119 7.52476 21.9359 7.51556 21.0199C7.50637 20.1039 7.85669 19.2207 8.49133 18.5601L8.98258 18.1338C9.28327 17.8733 9.46813 17.5039 9.49649 17.107C9.52486 16.7102 9.3944 16.3183 9.13383 16.0176C8.87325 15.7169 8.5039 15.532 8.10703 15.5037C7.71016 15.4753 7.31827 15.6058 7.01758 15.8663L6.48133 16.3313C6.45508 16.3551 6.42883 16.3788 6.40383 16.4038C5.18483 17.6228 4.5 19.2762 4.5 21.0001C4.5 22.724 5.18483 24.3773 6.40383 25.5963C7.62283 26.8153 9.27615 27.5002 11.0001 27.5002C12.724 27.5002 14.3773 26.8153 15.5963 25.5963C15.6213 25.5713 15.6451 25.5451 15.6688 25.5188L16.1338 24.9826C16.2629 24.8337 16.3613 24.6609 16.4236 24.4739C16.4858 24.287 16.5106 24.0896 16.4966 23.8931C16.4825 23.6966 16.4299 23.5048 16.3417 23.3286C16.2535 23.1524 16.1315 22.9953 15.9826 22.8663ZM26.0001 18.5001H23.5001C23.1023 18.5001 22.7207 18.6581 22.4394 18.9394C22.1581 19.2207 22.0001 19.6023 22.0001 20.0001C22.0001 20.3979 22.1581 20.7794 22.4394 21.0607C22.7207 21.342 23.1023 21.5001 23.5001 21.5001H26.0001C26.3979 21.5001 26.7794 21.342 27.0607 21.0607C27.342 20.7794 27.5001 20.3979 27.5001 20.0001C27.5001 19.6023 27.342 19.2207 27.0607 18.9394C26.7794 18.6581 26.3979 18.5001 26.0001 18.5001ZM6.00008 13.5001H8.50008C8.8979 13.5001 9.27944 13.342 9.56074 13.0607C9.84204 12.7794 10.0001 12.3979 10.0001 12.0001C10.0001 11.6023 9.84204 11.2207 9.56074 10.9394C9.27944 10.6581 8.8979 10.5001 8.50008 10.5001H6.00008C5.60225 10.5001 5.22072 10.6581 4.93942 10.9394C4.65811 11.2207 4.50008 11.6023 4.50008 12.0001C4.50008 12.3979 4.65811 12.7794 4.93942 13.0607C5.22072 13.342 5.60225 13.5001 6.00008 13.5001ZM20.0001 22.0001C19.6023 22.0001 19.2207 22.1581 18.9394 22.4394C18.6581 22.7207 18.5001 23.1023 18.5001 23.5001V26.0001C18.5001 26.3979 18.6581 26.7794 18.9394 27.0607C19.2207 27.342 19.6023 27.5001 20.0001 27.5001C20.3979 27.5001 20.7794 27.342 21.0607 27.0607C21.342 26.7794 21.5001 26.3979 21.5001 26.0001V23.5001C21.5001 23.1023 21.342 22.7207 21.0607 22.4394C20.7794 22.1581 20.3979 22.0001 20.0001 22.0001ZM12.0001 10.0001C12.3979 10.0001 12.7794 9.84204 13.0607 9.56074C13.342 9.27944 13.5001 8.8979 13.5001 8.50008V6.00008C13.5001 5.60225 13.342 5.22072 13.0607 4.93942C12.7794 4.65811 12.3979 4.50008 12.0001 4.50008C11.6023 4.50008 11.2207 4.65811 10.9394 4.93942C10.6581 5.22072 10.5001 5.60225 10.5001 6.00008V8.50008C10.5001 8.8979 10.6581 9.27944 10.9394 9.56074C11.2207 9.84204 11.6023 10.0001 12.0001 10.0001Z" fill="black"/>
</svg>
