<svg width="32" height="32" viewBox="0 0 32 32" fill="none" xmlns="http://www.w3.org/2000/svg">
<path d="M17.0462 23.4413C17.1861 23.5807 17.297 23.7463 17.3727 23.9286C17.4485 24.1109 17.4874 24.3064 17.4874 24.5038C17.4874 24.7012 17.4485 24.8967 17.3727 25.079C17.297 25.2614 17.1861 25.4269 17.0462 25.5663L16.3037 26.3088C14.8968 27.7158 12.9885 28.5062 10.9987 28.5062C9.00898 28.5062 7.10071 27.7158 5.69374 26.3088C4.28677 24.9018 3.49634 22.9936 3.49634 21.0038C3.49634 19.014 4.28677 17.1058 5.69374 15.6988L8.70874 12.6851C10.0606 11.3299 11.8795 10.5428 13.7928 10.4852C15.7061 10.4276 17.569 11.1037 19 12.3751C19.1477 12.5064 19.2682 12.6655 19.3544 12.8434C19.4406 13.0212 19.491 13.2143 19.5026 13.4117C19.5142 13.609 19.4868 13.8067 19.422 13.9934C19.3573 14.1802 19.2563 14.3523 19.125 14.5001C18.9937 14.6478 18.8345 14.7682 18.6567 14.8545C18.4788 14.9407 18.2857 14.991 18.0884 15.0027C17.8911 15.0143 17.6934 14.9869 17.5066 14.9221C17.3199 14.8573 17.1477 14.7564 17 14.6251C16.1419 13.863 15.025 13.4575 13.8779 13.4917C12.7307 13.5258 11.64 13.997 10.8287 14.8088L7.81624 17.8188C6.97219 18.6629 6.49801 19.8076 6.49801 21.0013C6.49801 22.195 6.97219 23.3398 7.81624 24.1838C8.66029 25.0279 9.80507 25.502 10.9987 25.502C12.1924 25.502 13.3372 25.0279 14.1812 24.1838L14.9237 23.4413C15.0631 23.3018 15.2285 23.1912 15.4106 23.1157C15.5927 23.0402 15.7879 23.0014 15.985 23.0014C16.1821 23.0014 16.3773 23.0402 16.5594 23.1157C16.7415 23.1912 16.9069 23.3018 17.0462 23.4413ZM26.3062 5.6913C24.8981 4.28649 22.9903 3.49756 21.0012 3.49756C19.0122 3.49756 17.1044 4.28649 15.6962 5.6913L14.9537 6.4338C14.6719 6.7156 14.5136 7.09779 14.5136 7.4963C14.5136 7.89482 14.6719 8.27701 14.9537 8.5588C15.2355 8.8406 15.6177 8.99891 16.0162 8.99891C16.4148 8.99891 16.7969 8.8406 17.0787 8.5588L17.8212 7.8163C18.6653 6.97225 19.8101 6.49807 21.0037 6.49807C22.1974 6.49807 23.3422 6.97225 24.1862 7.8163C25.0303 8.66036 25.5045 9.80513 25.5045 10.9988C25.5045 12.1925 25.0303 13.3373 24.1862 14.1813L21.1725 17.1963C20.3605 18.0078 19.2692 18.4782 18.1217 18.5115C16.9743 18.5447 15.8575 18.1382 15 17.3751C14.8523 17.2437 14.6801 17.1428 14.4934 17.078C14.3066 17.0132 14.1089 16.9858 13.9116 16.9975C13.7143 17.0091 13.5212 17.0594 13.3433 17.1457C13.1654 17.2319 13.0063 17.3523 12.875 17.5001C12.7437 17.6478 12.6427 17.8199 12.5779 18.0067C12.5132 18.1934 12.4858 18.3911 12.4974 18.5884C12.509 18.7858 12.5594 18.9789 12.6456 19.1567C12.7318 19.3346 12.8523 19.4937 13 19.6251C14.43 20.8961 16.2917 21.5727 18.2041 21.5162C20.1165 21.4597 21.935 20.6745 23.2875 19.3213L26.3025 16.3076C27.7089 14.8998 28.4993 12.9914 28.5 11.0015C28.5007 9.01149 27.7117 7.10258 26.3062 5.6938V5.6913Z" fill="black"/>
</svg>
