<svg width="32" height="32" viewBox="0 0 32 32" fill="none" xmlns="http://www.w3.org/2000/svg">
<path d="M10.9375 18.9402L18.9375 10.9402C19.0771 10.8007 19.2427 10.69 19.425 10.6145C19.6073 10.539 19.8027 10.5001 20 10.5001C20.1974 10.5001 20.3928 10.539 20.5751 10.6145C20.7574 10.69 20.923 10.8007 21.0625 10.9402C21.2021 11.0797 21.3127 11.2454 21.3883 11.4277C21.4638 11.61 21.5026 11.8054 21.5026 12.0027C21.5026 12.2 21.4638 12.3954 21.3883 12.5777C21.3127 12.76 21.2021 12.9257 21.0625 13.0652L13.0625 21.0652C12.7807 21.347 12.3986 21.5053 12 21.5053C11.6015 21.5053 11.2193 21.347 10.9375 21.0652C10.6557 20.7834 10.4974 20.4012 10.4974 20.0027C10.4974 19.6042 10.6557 19.222 10.9375 18.9402ZM27.3125 4.69022C25.9046 3.28549 23.997 2.49658 22.0082 2.49658C20.0193 2.49658 18.1117 3.28549 16.7038 4.69022L12.9388 8.45147C12.657 8.73326 12.4987 9.11546 12.4987 9.51397C12.4987 9.71129 12.5376 9.90669 12.6131 10.089C12.6886 10.2713 12.7993 10.4369 12.9388 10.5765C13.0783 10.716 13.244 10.8267 13.4263 10.9022C13.6086 10.9777 13.804 11.0166 14.0013 11.0166C14.3998 11.0166 14.782 10.8583 15.0638 10.5765L18.8225 6.81897C19.6666 5.97475 20.8114 5.50041 22.0052 5.50029C23.199 5.50018 24.3439 5.97429 25.1882 6.81835C26.0324 7.6624 26.5067 8.80724 26.5068 10.001C26.507 11.1948 26.0328 12.3398 25.1888 13.184L21.425 16.9402C21.2855 17.0798 21.1748 17.2454 21.0993 17.4277C21.0238 17.61 20.9849 17.8054 20.9849 18.0027C20.9849 18.2 21.0238 18.3954 21.0993 18.5777C21.1748 18.76 21.2855 18.9257 21.425 19.0652C21.5646 19.2048 21.7302 19.3154 21.9125 19.3909C22.0948 19.4665 22.2902 19.5053 22.4875 19.5053C22.6849 19.5053 22.8803 19.4665 23.0626 19.3909C23.2449 19.3154 23.4105 19.2048 23.55 19.0652L27.31 15.3077C28.7155 13.8989 29.5045 11.99 29.5038 10.0001C29.5031 8.01011 28.7127 6.10175 27.3063 4.69397L27.3125 4.69022ZM16.94 21.4252L13.1813 25.1852C12.7633 25.6032 12.267 25.9347 11.7209 26.1608C11.1748 26.387 10.5894 26.5033 9.99835 26.5033C9.40724 26.5032 8.82194 26.3867 8.27585 26.1605C7.72977 25.9342 7.23359 25.6026 6.81566 25.1846C5.97161 24.3404 5.49749 23.1954 5.49761 22.0017C5.49773 20.8079 5.97207 19.663 6.81629 18.819L10.5738 15.0602C10.7133 14.9207 10.824 14.755 10.8995 14.5727C10.975 14.3904 11.0139 14.195 11.0139 13.9977C11.0139 13.8004 10.975 13.605 10.8995 13.4227C10.824 13.2404 10.7133 13.0747 10.5738 12.9352C10.4343 12.7957 10.2686 12.685 10.0863 12.6095C9.904 12.534 9.70861 12.4951 9.51129 12.4951C9.31396 12.4951 9.11857 12.534 8.93627 12.6095C8.75396 12.685 8.58832 12.7957 8.44879 12.9352L4.69379 16.6977C3.99721 17.3944 3.44467 18.2214 3.06771 19.1316C2.69075 20.0418 2.49677 21.0174 2.49683 22.0025C2.49694 23.9922 3.28744 25.9003 4.69441 27.3071C6.10139 28.7139 8.00959 29.5042 9.99923 29.5041C11.9889 29.5039 13.897 28.7134 15.3038 27.3065L19.0613 23.5477C19.3431 23.2659 19.5014 22.8837 19.5014 22.4852C19.5014 22.0867 19.3431 21.7045 19.0613 21.4227C18.7795 21.1409 18.3973 20.9826 17.9988 20.9826C17.6003 20.9826 17.2181 21.1409 16.9363 21.4227L16.94 21.4252Z" fill="black"/>
</svg>
