<svg width="32" height="32" viewBox="0 0 32 32" fill="none" xmlns="http://www.w3.org/2000/svg">
<path d="M28.9363 28.1725C28.7822 28.2958 28.6053 28.3875 28.4157 28.4423C28.2261 28.4972 28.0275 28.514 27.8314 28.492C27.6352 28.4699 27.4454 28.4093 27.2727 28.3138C27.1 28.2182 26.9479 28.0895 26.825 27.935C26.6488 27.715 22.5 22.405 22.5 12C22.5 10.2761 21.8152 8.62279 20.5962 7.40381C19.3772 6.18482 17.7239 5.5 16 5.5C14.2761 5.5 12.6228 6.18482 11.4038 7.40381C10.1849 8.62279 9.50004 10.2761 9.50004 12C9.50004 22.405 5.34879 27.715 5.17254 27.935C4.92473 28.2463 4.5634 28.4464 4.16805 28.4913C3.7727 28.5362 3.37571 28.4222 3.06441 28.1744C2.75312 27.9266 2.55301 27.5652 2.50812 27.1699C2.46323 26.7745 2.57723 26.3775 2.82504 26.0662C2.87504 26 6.50004 21.2575 6.50004 12C6.50004 9.48044 7.50093 7.06408 9.28253 5.28249C11.0641 3.50089 13.4805 2.5 16 2.5C18.5196 2.5 20.936 3.50089 22.7176 5.28249C24.4991 7.06408 25.5 9.48044 25.5 12C25.5 21.2738 29.1375 26.02 29.175 26.0675C29.422 26.3785 29.5356 26.7747 29.4908 27.1694C29.446 27.564 29.2466 27.9247 28.9363 28.1725ZM13 16C13.3956 16 13.7823 15.8827 14.1112 15.6629C14.4401 15.4432 14.6964 15.1308 14.8478 14.7654C14.9992 14.3999 15.0388 13.9978 14.9616 13.6098C14.8844 13.2219 14.694 12.8655 14.4143 12.5858C14.1345 12.3061 13.7782 12.1156 13.3902 12.0384C13.0023 11.9613 12.6001 12.0009 12.2347 12.1522C11.8692 12.3036 11.5569 12.56 11.3371 12.8889C11.1173 13.2178 11 13.6044 11 14C11 14.5304 11.2108 15.0391 11.5858 15.4142C11.9609 15.7893 12.4696 16 13 16ZM21 14C21 13.6044 20.8827 13.2178 20.663 12.8889C20.4432 12.56 20.1309 12.3036 19.7654 12.1522C19.4 12.0009 18.9978 11.9613 18.6099 12.0384C18.2219 12.1156 17.8655 12.3061 17.5858 12.5858C17.3061 12.8655 17.1156 13.2219 17.0385 13.6098C16.9613 13.9978 17.0009 14.3999 17.1523 14.7654C17.3037 15.1308 17.56 15.4432 17.8889 15.6629C18.2178 15.8827 18.6045 16 19 16C19.5305 16 20.0392 15.7893 20.4143 15.4142C20.7893 15.0391 21 14.5304 21 14ZM11.9075 20.375L15.4075 21.875C15.5942 21.955 15.7951 21.9962 15.9982 21.9962C16.2012 21.9962 16.4021 21.955 16.5888 21.875L20.0888 20.375C20.4269 20.2015 20.6865 19.906 20.8152 19.5484C20.9439 19.1908 20.9321 18.7977 20.7821 18.4485C20.6321 18.0993 20.3551 17.8201 20.0072 17.6672C19.6592 17.5143 19.2662 17.4993 18.9075 17.625L15.9988 18.875L13.09 17.625C12.7311 17.498 12.3374 17.5123 11.9886 17.6648C11.6398 17.8174 11.3621 18.0968 11.2117 18.4466C11.0613 18.7963 11.0496 19.1901 11.1788 19.5482C11.308 19.9063 11.5685 20.2019 11.9075 20.375ZM16 24C14.2087 24.0027 12.4838 24.6786 11.1675 25.8937C10.8743 26.1628 10.7 26.5373 10.6828 26.9349C10.6657 27.3324 10.8073 27.7205 11.0763 28.0138C11.3453 28.307 11.7198 28.4813 12.1174 28.4984C12.515 28.5156 12.9031 28.374 13.1963 28.105C13.9569 27.3948 14.9588 26.9998 15.9994 26.9998C17.0401 26.9998 18.0419 27.3948 18.8025 28.105C18.9477 28.2382 19.1177 28.3415 19.3029 28.409C19.488 28.4765 19.6846 28.5069 19.8814 28.4984C20.0783 28.49 20.2716 28.4428 20.4502 28.3596C20.6288 28.2765 20.7893 28.1589 20.9225 28.0138C21.0557 27.8686 21.1591 27.6985 21.2266 27.5134C21.2941 27.3283 21.3245 27.1317 21.316 26.9349C21.3075 26.738 21.2603 26.5447 21.1772 26.3661C21.094 26.1875 20.9765 26.027 20.8313 25.8937C19.5155 24.6787 17.791 24.0028 16 24Z" fill="black"/>
</svg>
