<svg width="32" height="32" viewBox="0 0 32 32" fill="none" xmlns="http://www.w3.org/2000/svg">
<path d="M27.5 16C27.5 16.1326 27.4474 16.2598 27.3536 16.3536C27.2598 16.4474 27.1326 16.5 27 16.5H16C15.8674 16.5 15.7402 16.4474 15.6465 16.3536C15.5527 16.2598 15.5 16.1326 15.5 16C15.5 15.8674 15.5527 15.7402 15.6465 15.6465C15.7402 15.5527 15.8674 15.5 16 15.5H27C27.1326 15.5 27.2598 15.5527 27.3536 15.6465C27.4474 15.7402 27.5 15.8674 27.5 16ZM16 8.50003H27C27.1326 8.50003 27.2598 8.44736 27.3536 8.35359C27.4474 8.25982 27.5 8.13264 27.5 8.00003C27.5 7.86743 27.4474 7.74025 27.3536 7.64648C27.2598 7.55271 27.1326 7.50003 27 7.50003H16C15.8674 7.50003 15.7402 7.55271 15.6465 7.64648C15.5527 7.74025 15.5 7.86743 15.5 8.00003C15.5 8.13264 15.5527 8.25982 15.6465 8.35359C15.7402 8.44736 15.8674 8.50003 16 8.50003ZM27 23.5H16C15.8674 23.5 15.7402 23.5527 15.6465 23.6465C15.5527 23.7402 15.5 23.8674 15.5 24C15.5 24.1326 15.5527 24.2598 15.6465 24.3536C15.7402 24.4474 15.8674 24.5 16 24.5H27C27.1326 24.5 27.2598 24.4474 27.3536 24.3536C27.4474 24.2598 27.5 24.1326 27.5 24C27.5 23.8674 27.4474 23.7402 27.3536 23.6465C27.2598 23.5527 27.1326 23.5 27 23.5ZM10.6463 5.64628L7.00003 9.29253L5.35378 7.64628C5.25996 7.55246 5.13272 7.49976 5.00003 7.49976C4.86735 7.49976 4.7401 7.55246 4.64628 7.64628C4.55246 7.7401 4.49976 7.86735 4.49976 8.00003C4.49976 8.13272 4.55246 8.25996 4.64628 8.35378L6.64628 10.3538C6.69272 10.4003 6.74786 10.4372 6.80856 10.4623C6.86926 10.4875 6.93433 10.5004 7.00003 10.5004C7.06574 10.5004 7.13081 10.4875 7.1915 10.4623C7.2522 10.4372 7.30735 10.4003 7.35378 10.3538L11.3538 6.35378C11.4002 6.30733 11.4371 6.25218 11.4622 6.19148C11.4874 6.13079 11.5003 6.06573 11.5003 6.00003C11.5003 5.93434 11.4874 5.86928 11.4622 5.80859C11.4371 5.74789 11.4002 5.69274 11.3538 5.64628C11.3073 5.59983 11.2522 5.56298 11.1915 5.53784C11.1308 5.5127 11.0657 5.49976 11 5.49976C10.9343 5.49976 10.8693 5.5127 10.8086 5.53784C10.7479 5.56298 10.6927 5.59983 10.6463 5.64628ZM10.6463 13.6463L7.00003 17.2925L5.35378 15.6463C5.30733 15.5998 5.25218 15.563 5.19148 15.5378C5.13079 15.5127 5.06573 15.4998 5.00003 15.4998C4.93434 15.4998 4.86928 15.5127 4.80859 15.5378C4.74789 15.563 4.69274 15.5998 4.64628 15.6463C4.59983 15.6927 4.56298 15.7479 4.53784 15.8086C4.5127 15.8693 4.49976 15.9343 4.49976 16C4.49976 16.0657 4.5127 16.1308 4.53784 16.1915C4.56298 16.2522 4.59983 16.3073 4.64628 16.3538L6.64628 18.3538C6.69272 18.4003 6.74786 18.4372 6.80856 18.4623C6.86926 18.4875 6.93433 18.5004 7.00003 18.5004C7.06574 18.5004 7.13081 18.4875 7.1915 18.4623C7.2522 18.4372 7.30735 18.4003 7.35378 18.3538L11.3538 14.3538C11.4002 14.3073 11.4371 14.2522 11.4622 14.1915C11.4874 14.1308 11.5003 14.0657 11.5003 14C11.5003 13.9343 11.4874 13.8693 11.4622 13.8086C11.4371 13.7479 11.4002 13.6927 11.3538 13.6463C11.3073 13.5998 11.2522 13.563 11.1915 13.5378C11.1308 13.5127 11.0657 13.4998 11 13.4998C10.9343 13.4998 10.8693 13.5127 10.8086 13.5378C10.7479 13.563 10.6927 13.5998 10.6463 13.6463ZM10.6463 21.6463L7.00003 25.2925L5.35378 23.6463C5.25996 23.5525 5.13272 23.4998 5.00003 23.4998C4.86735 23.4998 4.7401 23.5525 4.64628 23.6463C4.55246 23.7401 4.49976 23.8674 4.49976 24C4.49976 24.1327 4.55246 24.26 4.64628 24.3538L6.64628 26.3538C6.69272 26.4003 6.74786 26.4372 6.80856 26.4623C6.86926 26.4875 6.93433 26.5004 7.00003 26.5004C7.06574 26.5004 7.13081 26.4875 7.1915 26.4623C7.2522 26.4372 7.30735 26.4003 7.35378 26.3538L11.3538 22.3538C11.4476 22.26 11.5003 22.1327 11.5003 22C11.5003 21.8674 11.4476 21.7401 11.3538 21.6463C11.26 21.5525 11.1327 21.4998 11 21.4998C10.8674 21.4998 10.7401 21.5525 10.6463 21.6463Z" fill="black"/>
</svg>
