<svg width="32" height="32" viewBox="0 0 32 32" fill="none" xmlns="http://www.w3.org/2000/svg">
<path d="M10.5 8C10.5 7.60218 10.658 7.22064 10.9393 6.93934C11.2206 6.65804 11.6022 6.5 12 6.5H27C27.3978 6.5 27.7794 6.65804 28.0607 6.93934C28.342 7.22064 28.5 7.60218 28.5 8C28.5 8.39782 28.342 8.77936 28.0607 9.06066C27.7794 9.34196 27.3978 9.5 27 9.5H12C11.6022 9.5 11.2206 9.34196 10.9393 9.06066C10.658 8.77936 10.5 8.39782 10.5 8ZM27 14.5H12C11.6022 14.5 11.2206 14.658 10.9393 14.9393C10.658 15.2206 10.5 15.6022 10.5 16C10.5 16.3978 10.658 16.7794 10.9393 17.0607C11.2206 17.342 11.6022 17.5 12 17.5H27C27.3978 17.5 27.7794 17.342 28.0607 17.0607C28.342 16.7794 28.5 16.3978 28.5 16C28.5 15.6022 28.342 15.2206 28.0607 14.9393C27.7794 14.658 27.3978 14.5 27 14.5ZM27 22.5H12C11.6022 22.5 11.2206 22.658 10.9393 22.9393C10.658 23.2206 10.5 23.6022 10.5 24C10.5 24.3978 10.658 24.7794 10.9393 25.0607C11.2206 25.342 11.6022 25.5 12 25.5H27C27.3978 25.5 27.7794 25.342 28.0607 25.0607C28.342 24.7794 28.5 24.3978 28.5 24C28.5 23.6022 28.342 23.2206 28.0607 22.9393C27.7794 22.658 27.3978 22.5 27 22.5ZM7 6.5H5C4.60218 6.5 4.22064 6.65804 3.93934 6.93934C3.65804 7.22064 3.5 7.60218 3.5 8C3.5 8.39782 3.65804 8.77936 3.93934 9.06066C4.22064 9.34196 4.60218 9.5 5 9.5H7C7.39782 9.5 7.77936 9.34196 8.06066 9.06066C8.34196 8.77936 8.5 8.39782 8.5 8C8.5 7.60218 8.34196 7.22064 8.06066 6.93934C7.77936 6.65804 7.39782 6.5 7 6.5ZM7 14.5H5C4.60218 14.5 4.22064 14.658 3.93934 14.9393C3.65804 15.2206 3.5 15.6022 3.5 16C3.5 16.3978 3.65804 16.7794 3.93934 17.0607C4.22064 17.342 4.60218 17.5 5 17.5H7C7.39782 17.5 7.77936 17.342 8.06066 17.0607C8.34196 16.7794 8.5 16.3978 8.5 16C8.5 15.6022 8.34196 15.2206 8.06066 14.9393C7.77936 14.658 7.39782 14.5 7 14.5ZM7 22.5H5C4.60218 22.5 4.22064 22.658 3.93934 22.9393C3.65804 23.2206 3.5 23.6022 3.5 24C3.5 24.3978 3.65804 24.7794 3.93934 25.0607C4.22064 25.342 4.60218 25.5 5 25.5H7C7.39782 25.5 7.77936 25.342 8.06066 25.0607C8.34196 24.7794 8.5 24.3978 8.5 24C8.5 23.6022 8.34196 23.2206 8.06066 22.9393C7.77936 22.658 7.39782 22.5 7 22.5Z" fill="black"/>
</svg>
