<svg width="32" height="32" viewBox="0 0 32 32" fill="none" xmlns="http://www.w3.org/2000/svg">
<path d="M3.5 8C3.5 7.60218 3.65804 7.22064 3.93934 6.93934C4.22064 6.65804 4.60218 6.5 5 6.5H27C27.3978 6.5 27.7794 6.65804 28.0607 6.93934C28.342 7.22064 28.5 7.60218 28.5 8C28.5 8.39782 28.342 8.77936 28.0607 9.06066C27.7794 9.34196 27.3978 9.5 27 9.5H5C4.60218 9.5 4.22064 9.34196 3.93934 9.06066C3.65804 8.77936 3.5 8.39782 3.5 8ZM5 17.5H13C13.3978 17.5 13.7794 17.342 14.0607 17.0607C14.342 16.7794 14.5 16.3978 14.5 16C14.5 15.6022 14.342 15.2206 14.0607 14.9393C13.7794 14.658 13.3978 14.5 13 14.5H5C4.60218 14.5 4.22064 14.658 3.93934 14.9393C3.65804 15.2206 3.5 15.6022 3.5 16C3.5 16.3978 3.65804 16.7794 3.93934 17.0607C4.22064 17.342 4.60218 17.5 5 17.5ZM15 22.5H5C4.60218 22.5 4.22064 22.658 3.93934 22.9393C3.65804 23.2206 3.5 23.6022 3.5 24C3.5 24.3978 3.65804 24.7794 3.93934 25.0607C4.22064 25.342 4.60218 25.5 5 25.5H15C15.3978 25.5 15.7794 25.342 16.0607 25.0607C16.342 24.7794 16.5 24.3978 16.5 24C16.5 23.6022 16.342 23.2206 16.0607 22.9393C15.7794 22.658 15.3978 22.5 15 22.5ZM30.0613 25.0613C29.9219 25.2011 29.7563 25.312 29.574 25.3878C29.3917 25.4635 29.1962 25.5024 28.9988 25.5024C28.8013 25.5024 28.6059 25.4635 28.4235 25.3878C28.2412 25.312 28.0756 25.2011 27.9363 25.0613L25.6763 22.8013C24.517 23.4477 23.1631 23.6531 21.8643 23.3796C20.5655 23.1061 19.4094 22.3722 18.6093 21.3132C17.8092 20.2542 17.419 18.9415 17.5108 17.6174C17.6025 16.2933 18.17 15.0471 19.1085 14.1085C20.0471 13.17 21.2933 12.6025 22.6174 12.5108C23.9415 12.419 25.2542 12.8092 26.3132 13.6093C27.3722 14.4094 28.1061 15.5655 28.3796 16.8643C28.6531 18.1631 28.4477 19.517 27.8013 20.6763L30.0613 22.935C30.2013 23.0744 30.3124 23.24 30.3882 23.4225C30.464 23.6049 30.5031 23.8006 30.5031 23.9981C30.5031 24.1957 30.464 24.3913 30.3882 24.5738C30.3124 24.7562 30.2013 24.9219 30.0613 25.0613ZM23 20.5C23.4945 20.5 23.9778 20.3534 24.3889 20.0787C24.8 19.804 25.1205 19.4135 25.3097 18.9567C25.4989 18.4999 25.5484 17.9972 25.452 17.5123C25.3555 17.0273 25.1174 16.5819 24.7678 16.2322C24.4181 15.8826 23.9727 15.6445 23.4877 15.548C23.0028 15.4516 22.5001 15.5011 22.0433 15.6903C21.5865 15.8795 21.196 16.2 20.9213 16.6111C20.6466 17.0222 20.5 17.5055 20.5 18C20.5 18.3283 20.5647 18.6534 20.6903 18.9567C20.8159 19.26 21.0001 19.5356 21.2322 19.7678C21.4644 19.9999 21.74 20.1841 22.0433 20.3097C22.3466 20.4353 22.6717 20.5 23 20.5Z" fill="black"/>
</svg>
