<svg width="32" height="32" viewBox="0 0 32 32" fill="none" xmlns="http://www.w3.org/2000/svg">
<path d="M27.75 16C27.75 16.1989 27.6709 16.3897 27.5303 16.5303C27.3896 16.671 27.1989 16.75 27 16.75H13C12.801 16.75 12.6103 16.671 12.4696 16.5303C12.329 16.3897 12.25 16.1989 12.25 16C12.25 15.8011 12.329 15.6103 12.4696 15.4697C12.6103 15.329 12.801 15.25 13 15.25H27C27.1989 15.25 27.3896 15.329 27.5303 15.4697C27.6709 15.6103 27.75 15.8011 27.75 16ZM13 8.74998H27C27.1989 8.74998 27.3896 8.67096 27.5303 8.53031C27.6709 8.38966 27.75 8.19889 27.75 7.99998C27.75 7.80107 27.6709 7.6103 27.5303 7.46965C27.3896 7.329 27.1989 7.24998 27 7.24998H13C12.801 7.24998 12.6103 7.329 12.4696 7.46965C12.329 7.6103 12.25 7.80107 12.25 7.99998C12.25 8.19889 12.329 8.38966 12.4696 8.53031C12.6103 8.67096 12.801 8.74998 13 8.74998ZM27 23.25H13C12.801 23.25 12.6103 23.329 12.4696 23.4697C12.329 23.6103 12.25 23.8011 12.25 24C12.25 24.1989 12.329 24.3897 12.4696 24.5303C12.6103 24.671 12.801 24.75 13 24.75H27C27.1989 24.75 27.3896 24.671 27.5303 24.5303C27.6709 24.3897 27.75 24.1989 27.75 24C27.75 23.8011 27.6709 23.6103 27.5303 23.4697C27.3896 23.329 27.1989 23.25 27 23.25ZM5.33496 6.67123L6.24996 6.21373V13C6.24996 13.1989 6.32898 13.3897 6.46963 13.5303C6.61028 13.671 6.80105 13.75 6.99996 13.75C7.19887 13.75 7.38964 13.671 7.53029 13.5303C7.67094 13.3897 7.74996 13.1989 7.74996 13V4.99998C7.75 4.87216 7.71736 4.74645 7.65516 4.63478C7.59296 4.52311 7.50325 4.4292 7.39455 4.36195C7.28584 4.2947 7.16176 4.25635 7.03407 4.25053C6.90638 4.24472 6.77932 4.27164 6.66496 4.32873L4.66496 5.32873C4.48693 5.41758 4.35149 5.57351 4.28843 5.76222C4.22537 5.95092 4.23986 6.15695 4.32871 6.33498C4.41756 6.51301 4.57348 6.64845 4.76219 6.71151C4.9509 6.77457 5.15693 6.76008 5.33496 6.67123ZM8.99996 25.25H6.49996L9.18496 21.6575C9.40676 21.3723 9.56879 21.0453 9.66136 20.6961C9.75393 20.3469 9.77513 19.9826 9.72371 19.625C9.67317 19.262 9.54979 18.9131 9.36098 18.599C9.17216 18.285 8.92181 18.0123 8.62496 17.7975C8.02839 17.3645 7.28757 17.1788 6.55729 17.2792C5.82702 17.3796 5.1638 17.7583 4.70621 18.3362C4.53249 18.5605 4.39421 18.81 4.29621 19.0762C4.22808 19.2632 4.23702 19.4696 4.32106 19.65C4.4051 19.8304 4.55736 19.97 4.74433 20.0381C4.93131 20.1062 5.13769 20.0973 5.31808 20.0133C5.49847 19.9292 5.63808 19.777 5.70621 19.59C5.75019 19.4698 5.81261 19.3572 5.89121 19.2562C6.10756 18.9845 6.42051 18.8067 6.76474 18.7602C7.10898 18.7136 7.45791 18.8017 7.73871 19.0062C7.87323 19.1034 7.98683 19.2266 8.07273 19.3685C8.15863 19.5105 8.21508 19.6683 8.23871 19.8325C8.26041 19.9932 8.24946 20.1566 8.2065 20.313C8.16354 20.4693 8.08946 20.6154 7.98871 20.7425L7.98121 20.7537L4.39996 25.5512C4.31675 25.6627 4.26616 25.795 4.25384 25.9336C4.24152 26.0721 4.26797 26.2113 4.33021 26.3357C4.39246 26.46 4.48806 26.5646 4.60633 26.6378C4.7246 26.711 4.86089 26.7498 4.99996 26.75H8.99996C9.19887 26.75 9.38964 26.671 9.53029 26.5303C9.67094 26.3897 9.74996 26.1989 9.74996 26C9.74996 25.8011 9.67094 25.6103 9.53029 25.4697C9.38964 25.329 9.19887 25.25 8.99996 25.25Z" fill="black"/>
</svg>
