<svg width="32" height="32" viewBox="0 0 32 32" fill="none" xmlns="http://www.w3.org/2000/svg">
<path d="M28.5001 15.9999C28.5001 16.3978 28.3421 16.7793 28.0608 17.0606C27.7795 17.3419 27.3979 17.4999 27.0001 17.4999H14.5001C14.1023 17.4999 13.7208 17.3419 13.4395 17.0606C13.1581 16.7793 13.0001 16.3978 13.0001 15.9999C13.0001 15.6021 13.1581 15.2206 13.4395 14.9393C13.7208 14.658 14.1023 14.4999 14.5001 14.4999H27.0001C27.3979 14.4999 27.7795 14.658 28.0608 14.9393C28.3421 15.2206 28.5001 15.6021 28.5001 15.9999ZM14.5001 9.49993H27.0001C27.3979 9.49993 27.7795 9.3419 28.0608 9.06059C28.3421 8.77929 28.5001 8.39776 28.5001 7.99993C28.5001 7.60211 28.3421 7.22058 28.0608 6.93927C27.7795 6.65797 27.3979 6.49993 27.0001 6.49993H14.5001C14.1023 6.49993 13.7208 6.65797 13.4395 6.93927C13.1581 7.22058 13.0001 7.60211 13.0001 7.99993C13.0001 8.39776 13.1581 8.77929 13.4395 9.06059C13.7208 9.3419 14.1023 9.49993 14.5001 9.49993ZM27.0001 22.4999H14.5001C14.1023 22.4999 13.7208 22.658 13.4395 22.9393C13.1581 23.2206 13.0001 23.6021 13.0001 23.9999C13.0001 24.3978 13.1581 24.7793 13.4395 25.0606C13.7208 25.3419 14.1023 25.4999 14.5001 25.4999H27.0001C27.3979 25.4999 27.7795 25.3419 28.0608 25.0606C28.3421 24.7793 28.5001 24.3978 28.5001 23.9999C28.5001 23.6021 28.3421 23.2206 28.0608 22.9393C27.7795 22.658 27.3979 22.4999 27.0001 22.4999ZM5.50011 7.41368V12.9999C5.50011 13.3978 5.65815 13.7793 5.93945 14.0606C6.22076 14.3419 6.60229 14.4999 7.00011 14.4999C7.39794 14.4999 7.77947 14.3419 8.06077 14.0606C8.34208 13.7793 8.50011 13.3978 8.50011 12.9999V4.99993C8.49998 4.74439 8.43456 4.49312 8.31006 4.26996C8.18557 4.0468 8.00613 3.85914 7.78876 3.72479C7.57139 3.59043 7.3233 3.51384 7.06802 3.50227C6.81274 3.4907 6.55874 3.54454 6.33011 3.65868L4.33011 4.65868C3.99904 4.83513 3.74611 5.12923 3.6212 5.48298C3.49629 5.83673 3.50848 6.22445 3.65535 6.56966C3.80222 6.91486 4.07311 7.19251 4.41461 7.34782C4.7561 7.50314 5.1434 7.52485 5.50011 7.40868V7.41368ZM10.4664 19.5212C10.4021 19.0587 10.2449 18.6139 10.0043 18.2137C9.76375 17.8135 9.44469 17.4661 9.06636 17.1924C8.31213 16.645 7.37548 16.4104 6.45225 16.5376C5.52902 16.6648 4.69071 17.1439 4.11261 17.8749C3.89078 18.16 3.71491 18.478 3.59136 18.8174C3.46113 19.1898 3.48284 19.5985 3.65181 19.955C3.82078 20.3115 4.12339 20.5871 4.49411 20.7221C4.86482 20.8571 5.27378 20.8406 5.6324 20.6761C5.99102 20.5117 6.27043 20.2126 6.41011 19.8437C6.4281 19.7987 6.45252 19.7566 6.48261 19.7187C6.57952 19.6013 6.71755 19.5254 6.86854 19.5063C7.01953 19.4873 7.1721 19.5266 7.29511 19.6162C7.34923 19.6536 7.39505 19.7017 7.42968 19.7577C7.46431 19.8136 7.48701 19.8761 7.49636 19.9412C7.50474 20.0024 7.50053 20.0647 7.48398 20.1242C7.46743 20.1838 7.43889 20.2393 7.40011 20.2874L7.38386 20.3087L3.79886 25.1024C3.63238 25.3254 3.53118 25.5902 3.5066 25.8674C3.48201 26.1446 3.53501 26.4231 3.65965 26.6719C3.7843 26.9206 3.97568 27.1298 4.2124 27.2761C4.44913 27.4223 4.72186 27.4998 5.00011 27.4999H9.00011C9.39794 27.4999 9.77947 27.3419 10.0608 27.0606C10.3421 26.7793 10.5001 26.3978 10.5001 25.9999C10.5001 25.6021 10.3421 25.2206 10.0608 24.9393C9.77947 24.658 9.39794 24.4999 9.00011 24.4999H8.00011L9.78511 22.1112C10.0663 21.7471 10.2715 21.3302 10.3885 20.8853C10.5056 20.4404 10.532 19.9765 10.4664 19.5212Z" fill="black"/>
</svg>
