<svg width="32" height="32" viewBox="0 0 32 32" fill="none" xmlns="http://www.w3.org/2000/svg">
<path d="M27.7499 16.0001C27.7499 16.199 27.6709 16.3898 27.5302 16.5304C27.3896 16.6711 27.1988 16.7501 26.9999 16.7501H15.9999C15.801 16.7501 15.6102 16.6711 15.4696 16.5304C15.3289 16.3898 15.2499 16.199 15.2499 16.0001C15.2499 15.8012 15.3289 15.6104 15.4696 15.4698C15.6102 15.3291 15.801 15.2501 15.9999 15.2501H26.9999C27.1988 15.2501 27.3896 15.3291 27.5302 15.4698C27.6709 15.6104 27.7499 15.8012 27.7499 16.0001ZM15.9999 8.75009H26.9999C27.1988 8.75009 27.3896 8.67107 27.5302 8.53042C27.6709 8.38977 27.7499 8.199 27.7499 8.00009C27.7499 7.80118 27.6709 7.61041 27.5302 7.46976C27.3896 7.32911 27.1988 7.25009 26.9999 7.25009H15.9999C15.801 7.25009 15.6102 7.32911 15.4696 7.46976C15.3289 7.61041 15.2499 7.80118 15.2499 8.00009C15.2499 8.199 15.3289 8.38977 15.4696 8.53042C15.6102 8.67107 15.801 8.75009 15.9999 8.75009ZM26.9999 23.2501H15.9999C15.801 23.2501 15.6102 23.3291 15.4696 23.4698C15.3289 23.6104 15.2499 23.8012 15.2499 24.0001C15.2499 24.199 15.3289 24.3898 15.4696 24.5304C15.6102 24.6711 15.801 24.7501 15.9999 24.7501H26.9999C27.1988 24.7501 27.3896 24.6711 27.5302 24.5304C27.6709 24.3898 27.7499 24.199 27.7499 24.0001C27.7499 23.8012 27.6709 23.6104 27.5302 23.4698C27.3896 23.3291 27.1988 23.2501 26.9999 23.2501ZM10.4699 5.47009L6.99991 8.93884L5.52991 7.47009C5.38773 7.33761 5.19969 7.26549 5.00539 7.26892C4.81109 7.27234 4.6257 7.35106 4.48829 7.48847C4.35087 7.62588 4.27216 7.81127 4.26873 8.00557C4.26531 8.19987 4.33743 8.38792 4.46991 8.53009L6.46991 10.5301C6.61053 10.6705 6.80116 10.7494 6.99991 10.7494C7.19866 10.7494 7.38928 10.6705 7.52991 10.5301L11.5299 6.53009C11.6624 6.38792 11.7345 6.19987 11.7311 6.00557C11.7277 5.81127 11.6489 5.62588 11.5115 5.48847C11.3741 5.35106 11.1887 5.27234 10.9944 5.26892C10.8001 5.26549 10.6121 5.33761 10.4699 5.47009ZM10.4699 13.4701L6.99991 16.9388L5.52991 15.4701C5.46125 15.3964 5.37845 15.3373 5.28645 15.2963C5.19445 15.2553 5.09513 15.2333 4.99443 15.2315C4.89373 15.2297 4.7937 15.2482 4.70031 15.286C4.60692 15.3237 4.52209 15.3798 4.45087 15.4511C4.37965 15.5223 4.32351 15.6071 4.28579 15.7005C4.24807 15.7939 4.22954 15.8939 4.23132 15.9946C4.23309 16.0953 4.25514 16.1946 4.29613 16.2866C4.33712 16.3786 4.39622 16.4614 4.46991 16.5301L6.46991 18.5301C6.61053 18.6705 6.80116 18.7494 6.99991 18.7494C7.19866 18.7494 7.38928 18.6705 7.52991 18.5301L11.5299 14.5301C11.6624 14.3879 11.7345 14.1999 11.7311 14.0056C11.7277 13.8113 11.6489 13.6259 11.5115 13.4885C11.3741 13.3511 11.1887 13.2723 10.9944 13.2689C10.8001 13.2655 10.6121 13.3376 10.4699 13.4701ZM10.4699 21.4701L6.99991 24.9388L5.52991 23.4701C5.38773 23.3376 5.19969 23.2655 5.00539 23.2689C4.81109 23.2723 4.6257 23.3511 4.48829 23.4885C4.35087 23.6259 4.27216 23.8113 4.26873 24.0056C4.26531 24.1999 4.33743 24.3879 4.46991 24.5301L6.46991 26.5301C6.61053 26.6705 6.80116 26.7494 6.99991 26.7494C7.19866 26.7494 7.38928 26.6705 7.52991 26.5301L11.5299 22.5301C11.6624 22.3879 11.7345 22.1999 11.7311 22.0056C11.7277 21.8113 11.6489 21.6259 11.5115 21.4885C11.3741 21.3511 11.1887 21.2723 10.9944 21.2689C10.8001 21.2655 10.6121 21.3376 10.4699 21.4701Z" fill="black"/>
</svg>
