<svg width="32" height="32" viewBox="0 0 32 32" fill="none" xmlns="http://www.w3.org/2000/svg">
<path d="M27.5001 16.0001C27.5001 16.1327 27.4474 16.2599 27.3536 16.3537C27.2599 16.4474 27.1327 16.5001 27.0001 16.5001H13.0001C12.8675 16.5001 12.7403 16.4474 12.6465 16.3537C12.5528 16.2599 12.5001 16.1327 12.5001 16.0001C12.5001 15.8675 12.5528 15.7403 12.6465 15.6466C12.7403 15.5528 12.8675 15.5001 13.0001 15.5001H27.0001C27.1327 15.5001 27.2599 15.5528 27.3536 15.6466C27.4474 15.7403 27.5001 15.8675 27.5001 16.0001ZM13.0001 8.50011H27.0001C27.1327 8.50011 27.2599 8.44744 27.3536 8.35367C27.4474 8.2599 27.5001 8.13272 27.5001 8.00011C27.5001 7.86751 27.4474 7.74033 27.3536 7.64656C27.2599 7.55279 27.1327 7.50011 27.0001 7.50011H13.0001C12.8675 7.50011 12.7403 7.55279 12.6465 7.64656C12.5528 7.74033 12.5001 7.86751 12.5001 8.00011C12.5001 8.13272 12.5528 8.2599 12.6465 8.35367C12.7403 8.44744 12.8675 8.50011 13.0001 8.50011ZM27.0001 23.5001H13.0001C12.8675 23.5001 12.7403 23.5528 12.6465 23.6466C12.5528 23.7403 12.5001 23.8675 12.5001 24.0001C12.5001 24.1327 12.5528 24.2599 12.6465 24.3537C12.7403 24.4474 12.8675 24.5001 13.0001 24.5001H27.0001C27.1327 24.5001 27.2599 24.4474 27.3536 24.3537C27.4474 24.2599 27.5001 24.1327 27.5001 24.0001C27.5001 23.8675 27.4474 23.7403 27.3536 23.6466C27.2599 23.5528 27.1327 23.5001 27.0001 23.5001ZM5.22383 6.44761L6.50008 5.80886V13.0001C6.50008 13.1327 6.55276 13.2599 6.64652 13.3537C6.74029 13.4474 6.86747 13.5001 7.00008 13.5001C7.13268 13.5001 7.25986 13.4474 7.35363 13.3537C7.4474 13.2599 7.50008 13.1327 7.50008 13.0001V5.00011C7.50014 4.91484 7.47839 4.83097 7.4369 4.75647C7.39541 4.68198 7.33555 4.61933 7.26303 4.57448C7.1905 4.52964 7.10771 4.50409 7.02252 4.50026C6.93733 4.49643 6.85258 4.51445 6.77633 4.55261L4.77633 5.55261C4.65764 5.61196 4.56739 5.71602 4.52543 5.8419C4.48347 5.96778 4.49323 6.10518 4.55258 6.22386C4.61192 6.34255 4.71598 6.4328 4.84186 6.47476C4.96775 6.51672 5.10514 6.50696 5.22383 6.44761ZM9.00008 25.5001H6.00008L8.98133 21.5101C9.18508 21.2514 9.33442 20.9541 9.42034 20.6362C9.50627 20.3183 9.52701 19.9863 9.48133 19.6601C9.43516 19.3303 9.32278 19.0132 9.15093 18.7279C8.97908 18.4427 8.75131 18.1951 8.48133 18.0001C7.93752 17.6049 7.26196 17.4352 6.59592 17.5265C5.92988 17.6178 5.32493 17.9631 4.90758 18.4901C4.74834 18.6934 4.62182 18.9203 4.53258 19.1626C4.50029 19.2837 4.51462 19.4124 4.57272 19.5234C4.63082 19.6344 4.72846 19.7195 4.84633 19.7619C4.96419 19.8044 5.09369 19.801 5.2092 19.7525C5.3247 19.704 5.41781 19.614 5.47008 19.5001C5.52329 19.3554 5.59833 19.2197 5.69258 19.0976C5.94915 18.7748 6.32061 18.5637 6.72924 18.5085C7.13788 18.4533 7.55203 18.5582 7.88508 18.8014C8.04694 18.9178 8.18362 19.0657 8.28694 19.2363C8.39025 19.4068 8.45807 19.5965 8.48633 19.7939C8.51358 19.989 8.50094 20.1877 8.44915 20.3779C8.39737 20.568 8.30753 20.7457 8.18508 20.9001L4.60008 25.7014C4.54472 25.7757 4.51109 25.8639 4.50295 25.9561C4.4948 26.0484 4.51245 26.1412 4.55394 26.224C4.59542 26.3068 4.6591 26.3765 4.73788 26.4253C4.81666 26.474 4.90743 26.4999 5.00008 26.5001H9.00008C9.13269 26.5001 9.25986 26.4474 9.35363 26.3537C9.4474 26.2599 9.50008 26.1327 9.50008 26.0001C9.50008 25.8675 9.4474 25.7403 9.35363 25.6466C9.25986 25.5528 9.13269 25.5001 9.00008 25.5001Z" fill="black"/>
</svg>
