<svg width="32" height="32" viewBox="0 0 32 32" fill="none" xmlns="http://www.w3.org/2000/svg">
<path d="M26 9.5H22.5V7C22.5 5.27609 21.8152 3.62279 20.5962 2.40381C19.3772 1.18482 17.7239 0.5 16 0.5C14.2761 0.5 12.6228 1.18482 11.4038 2.40381C10.1848 3.62279 9.5 5.27609 9.5 7V9.5H6C5.33696 9.5 4.70107 9.76339 4.23223 10.2322C3.76339 10.7011 3.5 11.337 3.5 12V26C3.5 26.663 3.76339 27.2989 4.23223 27.7678C4.70107 28.2366 5.33696 28.5 6 28.5H26C26.663 28.5 27.2989 28.2366 27.7678 27.7678C28.2366 27.2989 28.5 26.663 28.5 26V12C28.5 11.337 28.2366 10.7011 27.7678 10.2322C27.2989 9.76339 26.663 9.5 26 9.5ZM12.5 7C12.5 6.07174 12.8687 5.1815 13.5251 4.52513C14.1815 3.86875 15.0717 3.5 16 3.5C16.9283 3.5 17.8185 3.86875 18.4749 4.52513C19.1313 5.1815 19.5 6.07174 19.5 7V9.5H12.5V7ZM25.5 25.5H6.5V12.5H25.5V25.5ZM16 14C15.072 14.0003 14.173 14.3233 13.4569 14.9137C12.7409 15.504 12.2524 16.325 12.0751 17.2359C11.8979 18.1468 12.0428 19.091 12.4852 19.9068C12.9276 20.7226 13.6399 21.3592 14.5 21.7075V22.5C14.5 22.8978 14.658 23.2794 14.9393 23.5607C15.2206 23.842 15.6022 24 16 24C16.3978 24 16.7794 23.842 17.0607 23.5607C17.342 23.2794 17.5 22.8978 17.5 22.5V21.7075C18.3601 21.3592 19.0724 20.7226 19.5148 19.9068C19.9572 19.091 20.1021 18.1468 19.9249 17.2359C19.7476 16.325 19.2591 15.504 18.5431 14.9137C17.827 14.3233 16.928 14.0003 16 14ZM16 17C16.1978 17 16.3911 17.0586 16.5556 17.1685C16.72 17.2784 16.8482 17.4346 16.9239 17.6173C16.9996 17.8 17.0194 18.0011 16.9808 18.1951C16.9422 18.3891 16.847 18.5673 16.7071 18.7071C16.5673 18.847 16.3891 18.9422 16.1951 18.9808C16.0011 19.0194 15.8 18.9996 15.6173 18.9239C15.4346 18.8482 15.2784 18.72 15.1685 18.5556C15.0586 18.3911 15 18.1978 15 18C15 17.7348 15.1054 17.4804 15.2929 17.2929C15.4804 17.1054 15.7348 17 16 17Z" fill="black"/>
</svg>
