<svg width="32" height="32" viewBox="0 0 32 32" fill="none" xmlns="http://www.w3.org/2000/svg">
<path d="M26 9.5H22.5V7C22.5 5.27609 21.8152 3.62279 20.5962 2.40381C19.3772 1.18482 17.7239 0.5 16 0.5C14.2761 0.5 12.6228 1.18482 11.4038 2.40381C10.1848 3.62279 9.5 5.27609 9.5 7V9.5H6C5.33696 9.5 4.70107 9.76339 4.23223 10.2322C3.76339 10.7011 3.5 11.337 3.5 12V26C3.5 26.663 3.76339 27.2989 4.23223 27.7678C4.70107 28.2366 5.33696 28.5 6 28.5H26C26.663 28.5 27.2989 28.2366 27.7678 27.7678C28.2366 27.2989 28.5 26.663 28.5 26V12C28.5 11.337 28.2366 10.7011 27.7678 10.2322C27.2989 9.76339 26.663 9.5 26 9.5ZM12.5 7C12.5 6.07174 12.8687 5.1815 13.5251 4.52513C14.1815 3.86875 15.0717 3.5 16 3.5C16.9283 3.5 17.8185 3.86875 18.4749 4.52513C19.1313 5.1815 19.5 6.07174 19.5 7V9.5H12.5V7ZM25.5 25.5H6.5V12.5H25.5V25.5Z" fill="black"/>
</svg>
