<svg width="32" height="32" viewBox="0 0 32 32" fill="none" xmlns="http://www.w3.org/2000/svg">
<path d="M24 10C24 10.3978 23.842 10.7794 23.5607 11.0607C23.2794 11.342 22.8978 11.5 22.5 11.5H20.5C20.1022 11.5 19.7206 11.342 19.4393 11.0607C19.158 10.7794 19 10.3978 19 10C19 9.60218 19.158 9.22064 19.4393 8.93934C19.7206 8.65804 20.1022 8.5 20.5 8.5H22.5C22.8978 8.5 23.2794 8.65804 23.5607 8.93934C23.842 9.22064 24 9.60218 24 10ZM22.5 13.5H20.5C20.1022 13.5 19.7206 13.658 19.4393 13.9393C19.158 14.2206 19 14.6022 19 15C19 15.3978 19.158 15.7794 19.4393 16.0607C19.7206 16.342 20.1022 16.5 20.5 16.5H22.5C22.8978 16.5 23.2794 16.342 23.5607 16.0607C23.842 15.7794 24 15.3978 24 15C24 14.6022 23.842 14.2206 23.5607 13.9393C23.2794 13.658 22.8978 13.5 22.5 13.5ZM9.5 11.5H11.5C11.8978 11.5 12.2794 11.342 12.5607 11.0607C12.842 10.7794 13 10.3978 13 10C13 9.60218 12.842 9.22064 12.5607 8.93934C12.2794 8.65804 11.8978 8.5 11.5 8.5H9.5C9.10218 8.5 8.72064 8.65804 8.43934 8.93934C8.15804 9.22064 8 9.60218 8 10C8 10.3978 8.15804 10.7794 8.43934 11.0607C8.72064 11.342 9.10218 11.5 9.5 11.5ZM11.5 13.5H9.5C9.10218 13.5 8.72064 13.658 8.43934 13.9393C8.15804 14.2206 8 14.6022 8 15C8 15.3978 8.15804 15.7794 8.43934 16.0607C8.72064 16.342 9.10218 16.5 9.5 16.5H11.5C11.8978 16.5 12.2794 16.342 12.5607 16.0607C12.842 15.7794 13 15.3978 13 15C13 14.6022 12.842 14.2206 12.5607 13.9393C12.2794 13.658 11.8978 13.5 11.5 13.5ZM28.5 6V28C28.5 28.3978 28.342 28.7794 28.0607 29.0607C27.7794 29.342 27.3978 29.5 27 29.5C26.6022 29.5 26.2206 29.342 25.9393 29.0607C25.658 28.7794 25.5 28.3978 25.5 28V26.5H17.5V28C17.5 28.3978 17.342 28.7794 17.0607 29.0607C16.7794 29.342 16.3978 29.5 16 29.5C15.6022 29.5 15.2206 29.342 14.9393 29.0607C14.658 28.7794 14.5 28.3978 14.5 28V26.5H6.5V28C6.5 28.3978 6.34196 28.7794 6.06066 29.0607C5.77936 29.342 5.39782 29.5 5 29.5C4.60218 29.5 4.22064 29.342 3.93934 29.0607C3.65804 28.7794 3.5 28.3978 3.5 28V6C3.5 5.33696 3.76339 4.70107 4.23223 4.23223C4.70107 3.76339 5.33696 3.5 6 3.5H26C26.663 3.5 27.2989 3.76339 27.7678 4.23223C28.2366 4.70107 28.5 5.33696 28.5 6ZM14.5 23.5V6.5H6.5V23.5H14.5ZM17.5 23.5H25.5V6.5H17.5V23.5Z" fill="black"/>
</svg>
