<svg width="32" height="32" viewBox="0 0 32 32" fill="none" xmlns="http://www.w3.org/2000/svg">
<path d="M26 9.5H12.5V7C12.5 6.07174 12.8687 5.1815 13.5251 4.52513C14.1815 3.86875 15.0717 3.5 16 3.5C17.6888 3.5 19.2063 4.7025 19.53 6.29875C19.5692 6.49179 19.6461 6.67522 19.7562 6.83855C19.8663 7.00189 20.0076 7.14193 20.1718 7.2507C20.336 7.35946 20.5201 7.4348 20.7135 7.47243C20.9068 7.51006 21.1057 7.50923 21.2987 7.47C21.4918 7.43077 21.6752 7.3539 21.8386 7.24378C22.0019 7.13366 22.1419 6.99244 22.2507 6.8282C22.3595 6.66396 22.4348 6.4799 22.4724 6.28654C22.5101 6.09317 22.5092 5.89429 22.47 5.70125C21.8587 2.6875 19.1375 0.5 16 0.5C14.2767 0.501985 12.6246 1.18744 11.406 2.406C10.1874 3.62455 9.50199 5.2767 9.5 7V9.5H6C5.33696 9.5 4.70107 9.76339 4.23223 10.2322C3.76339 10.7011 3.5 11.337 3.5 12V26C3.5 26.663 3.76339 27.2989 4.23223 27.7678C4.70107 28.2366 5.33696 28.5 6 28.5H26C26.663 28.5 27.2989 28.2366 27.7678 27.7678C28.2366 27.2989 28.5 26.663 28.5 26V12C28.5 11.337 28.2366 10.7011 27.7678 10.2322C27.2989 9.76339 26.663 9.5 26 9.5ZM25.5 25.5H6.5V12.5H25.5V25.5ZM14.5 21.7075V22.5C14.5 22.8978 14.658 23.2794 14.9393 23.5607C15.2206 23.842 15.6022 24 16 24C16.3978 24 16.7794 23.842 17.0607 23.5607C17.342 23.2794 17.5 22.8978 17.5 22.5V21.7075C18.3605 21.3594 19.0732 20.7228 19.5159 19.9069C19.9585 19.091 20.1037 18.1465 19.9263 17.2353C19.749 16.3242 19.2603 15.503 18.544 14.9126C17.8276 14.3223 16.9283 13.9994 16 13.9994C15.0717 13.9994 14.1724 14.3223 13.456 14.9126C12.7397 15.503 12.251 16.3242 12.0737 17.2353C11.8963 18.1465 12.0415 19.091 12.4841 19.9069C12.9268 20.7228 13.6395 21.3594 14.5 21.7075ZM16 17C16.1978 17 16.3911 17.0586 16.5556 17.1685C16.72 17.2784 16.8482 17.4346 16.9239 17.6173C16.9996 17.8 17.0194 18.0011 16.9808 18.1951C16.9422 18.3891 16.847 18.5673 16.7071 18.7071C16.5673 18.847 16.3891 18.9422 16.1951 18.9808C16.0011 19.0194 15.8 18.9996 15.6173 18.9239C15.4346 18.8482 15.2784 18.72 15.1685 18.5556C15.0586 18.3911 15 18.1978 15 18C15 17.7348 15.1054 17.4804 15.2929 17.2929C15.4804 17.1054 15.7348 17 16 17Z" fill="black"/>
</svg>
