<svg width="32" height="32" viewBox="0 0 32 32" fill="none" xmlns="http://www.w3.org/2000/svg">
<path d="M30.75 18.9999C30.75 19.1988 30.671 19.3896 30.5304 19.5302C30.3897 19.6709 30.1989 19.7499 30 19.7499H27.75V21.9999C27.75 22.1988 27.671 22.3896 27.5304 22.5302C27.3897 22.6709 27.1989 22.7499 27 22.7499C26.8011 22.7499 26.6104 22.6709 26.4697 22.5302C26.3291 22.3896 26.25 22.1988 26.25 21.9999V19.7499H24C23.8011 19.7499 23.6104 19.6709 23.4697 19.5302C23.3291 19.3896 23.25 19.1988 23.25 18.9999C23.25 18.801 23.3291 18.6102 23.4697 18.4696C23.6104 18.3289 23.8011 18.2499 24 18.2499H26.25V15.9999C26.25 15.801 26.3291 15.6102 26.4697 15.4696C26.6104 15.3289 26.8011 15.2499 27 15.2499C27.1989 15.2499 27.3897 15.3289 27.5304 15.4696C27.671 15.6102 27.75 15.801 27.75 15.9999V18.2499H30C30.1989 18.2499 30.3897 18.3289 30.5304 18.4696C30.671 18.6102 30.75 18.801 30.75 18.9999ZM7.00003 8.74988H9.25003V10.9999C9.25003 11.1988 9.32905 11.3896 9.4697 11.5302C9.61036 11.6709 9.80112 11.7499 10 11.7499C10.1989 11.7499 10.3897 11.6709 10.5304 11.5302C10.671 11.3896 10.75 11.1988 10.75 10.9999V8.74988H13C13.1989 8.74988 13.3897 8.67086 13.5304 8.53021C13.671 8.38956 13.75 8.19879 13.75 7.99988C13.75 7.80097 13.671 7.6102 13.5304 7.46955C13.3897 7.3289 13.1989 7.24988 13 7.24988H10.75V4.99988C10.75 4.80097 10.671 4.6102 10.5304 4.46955C10.3897 4.3289 10.1989 4.24988 10 4.24988C9.80112 4.24988 9.61036 4.3289 9.4697 4.46955C9.32905 4.6102 9.25003 4.80097 9.25003 4.99988V7.24988H7.00003C6.80112 7.24988 6.61036 7.3289 6.4697 7.46955C6.32905 7.6102 6.25003 7.80097 6.25003 7.99988C6.25003 8.19879 6.32905 8.38956 6.4697 8.53021C6.61036 8.67086 6.80112 8.74988 7.00003 8.74988ZM23 24.2499H21.75V22.9999C21.75 22.801 21.671 22.6102 21.5304 22.4696C21.3897 22.3289 21.1989 22.2499 21 22.2499C20.8011 22.2499 20.6104 22.3289 20.4697 22.4696C20.3291 22.6102 20.25 22.801 20.25 22.9999V24.2499H19C18.8011 24.2499 18.6104 24.3289 18.4697 24.4696C18.3291 24.6102 18.25 24.801 18.25 24.9999C18.25 25.1988 18.3291 25.3896 18.4697 25.5302C18.6104 25.6709 18.8011 25.7499 19 25.7499H20.25V26.9999C20.25 27.1988 20.3291 27.3896 20.4697 27.5302C20.6104 27.6709 20.8011 27.7499 21 27.7499C21.1989 27.7499 21.3897 27.6709 21.5304 27.5302C21.671 27.3896 21.75 27.1988 21.75 26.9999V25.7499H23C23.1989 25.7499 23.3897 25.6709 23.5304 25.5302C23.671 25.3896 23.75 25.1988 23.75 24.9999C23.75 24.801 23.671 24.6102 23.5304 24.4696C23.3897 24.3289 23.1989 24.2499 23 24.2499ZM27.2375 9.82363L9.82253 27.2374C9.66003 27.3999 9.4671 27.5288 9.25477 27.6168C9.04244 27.7047 8.81486 27.75 8.58503 27.75C8.35521 27.75 8.12763 27.7047 7.9153 27.6168C7.70296 27.5288 7.51004 27.3999 7.34753 27.2374L4.76128 24.6511C4.59876 24.4886 4.46984 24.2957 4.38189 24.0834C4.29393 23.871 4.24866 23.6435 4.24866 23.4136C4.24866 23.1838 4.29393 22.9562 4.38189 22.7439C4.46984 22.5316 4.59876 22.3386 4.76128 22.1761L22.1763 4.76238C22.3388 4.59986 22.5317 4.47094 22.744 4.38298C22.9564 4.29503 23.184 4.24976 23.4138 4.24976C23.6436 4.24976 23.8712 4.29503 24.0835 4.38298C24.2959 4.47094 24.4888 4.59986 24.6513 4.76238L27.2375 7.34863C27.4001 7.51114 27.529 7.70406 27.6169 7.9164C27.7049 8.12873 27.7502 8.3563 27.7502 8.58613C27.7502 8.81596 27.7049 9.04354 27.6169 9.25587C27.529 9.4682 27.4001 9.66113 27.2375 9.82363ZM20.9388 13.9999L18 11.0611L5.82253 23.2374C5.79929 23.2606 5.78085 23.2882 5.76827 23.3185C5.75569 23.3489 5.74921 23.3814 5.74921 23.4143C5.74921 23.4471 5.75569 23.4796 5.76827 23.51C5.78085 23.5403 5.79929 23.5679 5.82253 23.5911L8.40878 26.1761C8.45562 26.2227 8.51899 26.2488 8.58503 26.2488C8.65108 26.2488 8.71444 26.2227 8.76128 26.1761L20.9388 13.9999ZM26.1763 8.40863L23.5913 5.82363C23.5681 5.80039 23.5405 5.78195 23.5101 5.76937C23.4798 5.75679 23.4473 5.75031 23.4144 5.75031C23.3816 5.75031 23.349 5.75679 23.3187 5.76937C23.2883 5.78195 23.2608 5.80039 23.2375 5.82363L19.06 9.99988L22 12.9399L26.1763 8.76238C26.1995 8.73916 26.218 8.71159 26.2305 8.68124C26.2431 8.65089 26.2496 8.61836 26.2496 8.58551C26.2496 8.55265 26.2431 8.52012 26.2305 8.48977C26.218 8.45942 26.1995 8.43185 26.1763 8.40863Z" fill="black"/>
</svg>
