<svg width="32" height="32" viewBox="0 0 32 32" fill="none" xmlns="http://www.w3.org/2000/svg">
<path d="M31.5 19C31.5 19.3978 31.342 19.7794 31.0607 20.0607C30.7794 20.342 30.3978 20.5 30 20.5H28.5V22C28.5 22.3978 28.342 22.7794 28.0607 23.0607C27.7794 23.342 27.3978 23.5 27 23.5C26.6022 23.5 26.2206 23.342 25.9393 23.0607C25.658 22.7794 25.5 22.3978 25.5 22V20.5H24C23.6022 20.5 23.2206 20.342 22.9393 20.0607C22.658 19.7794 22.5 19.3978 22.5 19C22.5 18.6022 22.658 18.2206 22.9393 17.9393C23.2206 17.658 23.6022 17.5 24 17.5H25.5V16C25.5 15.6022 25.658 15.2206 25.9393 14.9393C26.2206 14.658 26.6022 14.5 27 14.5C27.3978 14.5 27.7794 14.658 28.0607 14.9393C28.342 15.2206 28.5 15.6022 28.5 16V17.5H30C30.3978 17.5 30.7794 17.658 31.0607 17.9393C31.342 18.2206 31.5 18.6022 31.5 19ZM7 9.5H8.5V11C8.5 11.3978 8.65803 11.7794 8.93934 12.0607C9.22064 12.342 9.60217 12.5 10 12.5C10.3978 12.5 10.7794 12.342 11.0607 12.0607C11.342 11.7794 11.5 11.3978 11.5 11V9.5H13C13.3978 9.5 13.7794 9.34196 14.0607 9.06066C14.342 8.77936 14.5 8.39782 14.5 8C14.5 7.60218 14.342 7.22064 14.0607 6.93934C13.7794 6.65804 13.3978 6.5 13 6.5H11.5V5C11.5 4.60218 11.342 4.22064 11.0607 3.93934C10.7794 3.65804 10.3978 3.5 10 3.5C9.60217 3.5 9.22064 3.65804 8.93934 3.93934C8.65803 4.22064 8.5 4.60218 8.5 5V6.5H7C6.60217 6.5 6.22064 6.65804 5.93934 6.93934C5.65803 7.22064 5.5 7.60218 5.5 8C5.5 8.39782 5.65803 8.77936 5.93934 9.06066C6.22064 9.34196 6.60217 9.5 7 9.5ZM23 23.5H22.5V23C22.5 22.6022 22.342 22.2206 22.0607 21.9393C21.7794 21.658 21.3978 21.5 21 21.5C20.6022 21.5 20.2206 21.658 19.9393 21.9393C19.658 22.2206 19.5 22.6022 19.5 23V23.5H19C18.6022 23.5 18.2206 23.658 17.9393 23.9393C17.658 24.2206 17.5 24.6022 17.5 25C17.5 25.3978 17.658 25.7794 17.9393 26.0607C18.2206 26.342 18.6022 26.5 19 26.5H19.5V27C19.5 27.3978 19.658 27.7794 19.9393 28.0607C20.2206 28.342 20.6022 28.5 21 28.5C21.3978 28.5 21.7794 28.342 22.0607 28.0607C22.342 27.7794 22.5 27.3978 22.5 27V26.5H23C23.3978 26.5 23.7794 26.342 24.0607 26.0607C24.342 25.7794 24.5 25.3978 24.5 25C24.5 24.6022 24.342 24.2206 24.0607 23.9393C23.7794 23.658 23.3978 23.5 23 23.5ZM27.7675 10.3538L10.3525 27.7675C9.88368 28.2362 9.24791 28.4995 8.585 28.4995C7.92209 28.4995 7.28632 28.2362 6.8175 27.7675L4.23125 25.1825C3.99899 24.9503 3.81476 24.6747 3.68906 24.3713C3.56336 24.0679 3.49866 23.7428 3.49866 23.4144C3.49866 23.086 3.56336 22.7608 3.68906 22.4574C3.81476 22.1541 3.99899 21.8784 4.23125 21.6462L21.6462 4.2325C22.1151 3.76382 22.7508 3.50053 23.4137 3.50053C24.0767 3.50053 24.7124 3.76382 25.1812 4.2325L27.7675 6.8175C27.9998 7.04966 28.184 7.3253 28.3097 7.62868C28.4354 7.93206 28.5001 8.25723 28.5001 8.58562C28.5001 8.91401 28.4354 9.23919 28.3097 9.54257C28.184 9.84595 27.9998 10.1216 27.7675 10.3538ZM19.875 14L18 12.125L6.70625 23.4137L8.58125 25.2887L19.875 14ZM25.2887 8.58625L23.4137 6.71125L20.125 10L22 11.875L25.2887 8.58625Z" fill="black"/>
</svg>
