<svg width="32" height="32" viewBox="0 0 32 32" fill="none" xmlns="http://www.w3.org/2000/svg">
<path opacity="0.08" d="M21.0452 25.0449L17.2952 28.7137C17.1071 28.8984 16.8537 29.0013 16.5902 29.0001C16.3266 28.999 16.0741 28.8938 15.8877 28.7074L12.3077 25.1249C12.2139 25.0312 12.1396 24.9198 12.0892 24.7971C12.0389 24.6744 12.0134 24.543 12.0143 24.4103C12.0153 24.2777 12.0426 24.1466 12.0947 24.0247C12.1467 23.9027 12.2225 23.7923 12.3177 23.6999L16.0677 20.0749L21.0452 25.0449ZM3.29519 14.6999C3.10894 14.8873 3.00439 15.1408 3.00439 15.4049C3.00439 15.6691 3.10894 15.9226 3.29519 16.1099L6.87519 19.6924C6.96869 19.7861 7.07984 19.8602 7.2022 19.9105C7.32456 19.9609 7.45569 19.9865 7.588 19.9858C7.72031 19.9851 7.85117 19.9581 7.97299 19.9065C8.09482 19.8548 8.20518 19.7795 8.29769 19.6849L11.9452 15.9449L6.97144 10.9712L3.29519 14.6999Z" fill="black"/>
<path d="M25.8751 6.28129C24.8583 5.24348 23.6447 4.41878 22.3055 3.85539C20.9662 3.29199 19.5281 3.00121 18.0751 3.00004H18.0339C16.5876 2.99632 15.1549 3.27956 13.8188 3.83335C12.4827 4.38714 11.2697 5.20049 10.2501 6.22629L6.26388 10.2638L2.57638 14C2.20487 14.3758 1.99714 14.8832 1.99854 15.4116C1.99995 15.94 2.21038 16.4463 2.58388 16.82L6.16638 20.4025C6.35182 20.5889 6.57235 20.7366 6.81522 20.8372C7.05809 20.9379 7.31849 20.9894 7.58138 20.9888H7.59263C7.85742 20.9874 8.11929 20.9334 8.36305 20.8299C8.60681 20.7265 8.82761 20.5757 9.01263 20.3863L16.6251 12.5863C16.9968 12.2183 17.4974 12.0097 18.0204 12.0048C18.5435 11.9999 19.0478 12.1991 19.4264 12.56C19.6135 12.7418 19.7622 12.9592 19.8638 13.1995C19.9653 13.4398 20.0176 13.6979 20.0176 13.9588C20.0202 14.2364 19.9679 14.5118 19.8639 14.7692C19.7599 15.0266 19.6061 15.2609 19.4114 15.4588L11.6251 22.985C11.435 23.1697 11.2834 23.3903 11.1792 23.6341C11.0751 23.8779 11.0204 24.1399 11.0185 24.405C11.0165 24.67 11.0672 24.9329 11.1677 25.1782C11.2682 25.4234 11.4165 25.6463 11.6039 25.8338L15.1864 29.4163C15.5599 29.7875 16.0642 29.9971 16.5908 29.9999C17.1174 30.0027 17.624 29.7985 18.0014 29.4313L25.7264 21.875C30.0326 17.5625 30.0989 10.57 25.8751 6.28129ZM7.58138 18.9863L4.00013 15.405L6.97513 12.39L10.5401 15.955L7.58138 18.9863ZM16.5989 28L13.0139 24.4188L16.0614 21.4725L19.6251 25.04L16.5989 28ZM24.3189 20.445L21.0551 23.6375L17.5001 20.085L20.8051 16.8888L20.8176 16.8775C21.201 16.4911 21.5041 16.0325 21.7094 15.5284C21.9147 15.0242 22.0182 14.4844 22.0139 13.94C22.0116 13.4141 21.9038 12.8939 21.6968 12.4103C21.4898 11.9268 21.1879 11.4897 20.8089 11.125C20.0494 10.4026 19.0381 10.0049 17.9899 10.0166C16.9418 10.0283 15.9396 10.4484 15.1964 11.1875L11.9364 14.5225L8.37513 10.9675L11.6689 7.63629C12.5027 6.79767 13.4946 6.13284 14.5872 5.68032C15.6798 5.22779 16.8513 4.99657 18.0339 5.00004H18.0676C19.2563 5.00106 20.4329 5.23904 21.5286 5.70006C22.6243 6.16107 23.617 6.83588 24.4489 7.68504C27.9064 11.1938 27.8439 16.9225 24.3189 20.4475V20.445Z" fill="black"/>
</svg>
