<svg width="32" height="32" viewBox="0 0 32 32" fill="none" xmlns="http://www.w3.org/2000/svg">
<path d="M29.0613 26.9386L23.1251 20.9998C24.905 18.6804 25.7359 15.7708 25.4494 12.8613C25.163 9.95169 23.7805 7.26004 21.5824 5.33231C19.3843 3.40459 16.5353 2.38514 13.6132 2.48078C10.6911 2.57641 7.91485 3.77996 5.84752 5.84728C3.7802 7.9146 2.57665 10.6909 2.48102 13.613C2.38539 16.535 3.40483 19.3841 5.33256 21.5821C7.26028 23.7802 9.95194 25.1627 12.8615 25.4492C15.7711 25.7357 18.6807 24.9047 21.0001 23.1248L26.9413 29.0673C27.0809 29.2069 27.2465 29.3175 27.4288 29.3931C27.6111 29.4686 27.8065 29.5074 28.0038 29.5074C28.2011 29.5074 28.3965 29.4686 28.5788 29.3931C28.7611 29.3175 28.9268 29.2069 29.0663 29.0673C29.2059 28.9278 29.3165 28.7622 29.392 28.5798C29.4676 28.3975 29.5064 28.2022 29.5064 28.0048C29.5064 27.8075 29.4676 27.6121 29.392 27.4298C29.3165 27.2475 29.2059 27.0819 29.0663 26.9423L29.0613 26.9386ZM5.50007 13.9998C5.50007 12.3187 5.99859 10.6753 6.93258 9.27748C7.86657 7.87966 9.19409 6.7902 10.7473 6.14685C12.3004 5.50351 14.0095 5.33518 15.6583 5.66315C17.3072 5.99113 18.8217 6.80067 20.0105 7.98942C21.1992 9.17817 22.0088 10.6927 22.3367 12.3416C22.6647 13.9904 22.4964 15.6995 21.853 17.2526C21.2097 18.8058 20.1202 20.1333 18.7224 21.0673C17.3246 22.0013 15.6812 22.4998 14.0001 22.4998C11.7464 22.4975 9.58578 21.6012 7.99222 20.0077C6.39867 18.4141 5.50239 16.2535 5.50007 13.9998Z" fill="black"/>
</svg>
