<svg width="32" height="32" viewBox="0 0 32 32" fill="none" xmlns="http://www.w3.org/2000/svg">
<path d="M19.5001 13.9998C19.5001 14.3977 19.342 14.7792 19.0607 15.0605C18.7794 15.3418 18.3979 15.4998 18.0001 15.4998H15.5001V17.9998C15.5001 18.3977 15.342 18.7792 15.0607 19.0605C14.7794 19.3418 14.3979 19.4998 14.0001 19.4998C13.6022 19.4998 13.2207 19.3418 12.9394 19.0605C12.6581 18.7792 12.5001 18.3977 12.5001 17.9998V15.4998H10.0001C9.60225 15.4998 9.22072 15.3418 8.93941 15.0605C8.65811 14.7792 8.50007 14.3977 8.50007 13.9998C8.50007 13.602 8.65811 13.2205 8.93941 12.9392C9.22072 12.6579 9.60225 12.4998 10.0001 12.4998H12.5001V9.99983C12.5001 9.602 12.6581 9.22047 12.9394 8.93917C13.2207 8.65786 13.6022 8.49983 14.0001 8.49983C14.3979 8.49983 14.7794 8.65786 15.0607 8.93917C15.342 9.22047 15.5001 9.602 15.5001 9.99983V12.4998H18.0001C18.3979 12.4998 18.7794 12.6579 19.0607 12.9392C19.342 13.2205 19.5001 13.602 19.5001 13.9998ZM29.0613 29.0611C28.922 29.2009 28.7564 29.3119 28.5741 29.3876C28.3917 29.4633 28.1962 29.5023 27.9988 29.5023C27.8014 29.5023 27.6059 29.4633 27.4236 29.3876C27.2413 29.3119 27.0757 29.2009 26.9363 29.0611L21.0001 23.1248C18.6807 24.9047 15.7711 25.7357 12.8615 25.4492C9.95194 25.1627 7.26028 23.7802 5.33256 21.5821C3.40483 19.3841 2.38539 16.535 2.48102 13.613C2.57665 10.6909 3.7802 7.9146 5.84752 5.84728C7.91485 3.77996 10.6911 2.57641 13.6132 2.48078C16.5353 2.38514 19.3843 3.40459 21.5824 5.33231C23.7805 7.26004 25.163 9.95169 25.4494 12.8613C25.7359 15.7708 24.905 18.6804 23.1251 20.9998L29.0676 26.9411C29.3476 27.2232 29.5043 27.6049 29.5031 28.0024C29.502 28.3999 29.3431 28.7807 29.0613 29.0611ZM14.0001 22.4998C15.6812 22.4998 17.3246 22.0013 18.7224 21.0673C20.1202 20.1333 21.2097 18.8058 21.853 17.2526C22.4964 15.6995 22.6647 13.9904 22.3367 12.3416C22.0088 10.6927 21.1992 9.17817 20.0105 7.98942C18.8217 6.80067 17.3072 5.99113 15.6583 5.66315C14.0095 5.33518 12.3004 5.50351 10.7473 6.14685C9.19409 6.7902 7.86657 7.87966 6.93258 9.27748C5.99859 10.6753 5.50007 12.3187 5.50007 13.9998C5.50272 16.2534 6.3991 18.4138 7.99259 20.0073C9.58607 21.6008 11.7465 22.4972 14.0001 22.4998Z" fill="black"/>
</svg>
