<svg width="32" height="32" viewBox="0 0 32 32" fill="none" xmlns="http://www.w3.org/2000/svg">
<path d="M26.2302 5.93004C25.1674 4.84529 23.899 3.98326 22.4992 3.39433C21.0994 2.8054 19.5963 2.50138 18.0777 2.50004H18.0339C16.5213 2.49599 15.0229 2.79223 13.6256 3.37157C12.2283 3.95092 10.9599 4.80185 9.89393 5.87504L2.22018 13.6463C1.75549 14.1161 1.49569 14.7507 1.49757 15.4115C1.49944 16.0722 1.76284 16.7054 2.23018 17.1725L5.81268 20.75C6.04446 20.983 6.32012 21.1676 6.62372 21.2934C6.92732 21.4191 7.25283 21.4834 7.58143 21.4825H7.59518C7.92609 21.4821 8.25359 21.4156 8.55841 21.2868C8.86324 21.158 9.13923 20.9695 9.37018 20.7325L16.9789 12.9338C17.2583 12.6601 17.633 12.5056 18.024 12.5028C18.4151 12.5 18.7919 12.6491 19.0752 12.9188C19.2142 13.0547 19.3245 13.2171 19.3997 13.3963C19.4748 13.5756 19.5132 13.7682 19.5127 13.9625C19.5169 14.3877 19.3524 14.7972 19.0552 15.1013L11.2739 22.625C11.036 22.8559 10.8464 23.1318 10.7161 23.4367C10.5858 23.7415 10.5174 24.0693 10.515 24.4008C10.5125 24.7323 10.576 25.061 10.7018 25.3678C10.8276 25.6745 11.0132 25.9532 11.2477 26.1875L14.8302 29.77C15.2973 30.2337 15.9278 30.4954 16.586 30.4986C17.2441 30.5019 17.8772 30.2465 18.3489 29.7875L26.0689 22.2325L26.0802 22.2213C30.5814 17.7225 30.6477 10.4138 26.2302 5.93004ZM7.57768 18.2763L4.70268 15.4013L6.97643 13.1L9.83643 15.96L7.57768 18.2763ZM16.6027 27.2988L13.7277 24.4238L16.0539 22.1738L18.9139 25.0325L16.6027 27.2988ZM23.9639 20.0963L21.0602 22.9375L18.2127 20.0913L21.1514 17.25L21.1702 17.2325C21.6005 16.799 21.9408 16.2845 22.1712 15.7187C22.4016 15.153 22.5177 14.5472 22.5127 13.9363C22.5108 13.343 22.3898 12.7562 22.1568 12.2106C21.9239 11.6649 21.5837 11.1717 21.1564 10.76C20.3042 9.94791 19.1689 9.49989 17.9918 9.51109C16.8146 9.52229 15.6881 9.99183 14.8514 10.82L14.8389 10.8338L11.9327 13.8113L9.08518 10.965L12.0227 7.99004C12.8102 7.19807 13.747 6.57019 14.7788 6.14278C15.8107 5.71536 16.9171 5.4969 18.0339 5.50004H18.0664C19.189 5.50144 20.3 5.72644 21.3347 6.16189C22.3694 6.59735 23.3069 7.23455 24.0927 8.03629C27.3564 11.3475 27.2977 16.7563 23.9639 20.0963Z" fill="black"/>
</svg>
