<svg width="32" height="32" viewBox="0 0 32 32" fill="none" xmlns="http://www.w3.org/2000/svg">
<path d="M25 4.5H20C19.337 4.5 18.7011 4.76339 18.2322 5.23223C17.7634 5.70107 17.5 6.33696 17.5 7V18C17.5 18.3978 17.342 18.7794 17.0607 19.0607C16.7794 19.342 16.3978 19.5 16 19.5C15.6022 19.5 15.2206 19.342 14.9393 19.0607C14.658 18.7794 14.5 18.3978 14.5 18V7C14.5 6.33696 14.2366 5.70107 13.7678 5.23223C13.2989 4.76339 12.663 4.5 12 4.5H7C6.33696 4.5 5.70107 4.76339 5.23223 5.23223C4.76339 5.70107 4.5 6.33696 4.5 7V18C4.5 21.05 5.7116 23.9751 7.86827 26.1317C10.0249 28.2884 12.95 29.5 16 29.5H16.0888C22.3813 29.4525 27.5012 24.2375 27.5012 17.875V7C27.5012 6.67159 27.4365 6.3464 27.3108 6.043C27.1851 5.73961 27.0009 5.46395 26.7686 5.23179C26.5363 4.99963 26.2606 4.81551 25.9571 4.68994C25.6536 4.56438 25.3284 4.49984 25 4.5ZM24.5 7.5V10.5H20.5V7.5H24.5ZM11.5 7.5V10.5H7.5V7.5H11.5ZM16.065 26.5H16C13.7457 26.5 11.5837 25.6045 9.98959 24.0104C8.39553 22.4163 7.5 20.2543 7.5 18V13.5H11.5V18C11.5 19.1935 11.9741 20.3381 12.818 21.182C13.6619 22.0259 14.8065 22.5 16 22.5C17.1935 22.5 18.3381 22.0259 19.182 21.182C20.0259 20.3381 20.5 19.1935 20.5 18V13.5H24.5V17.875C24.5 22.5963 20.7163 26.465 16.065 26.5Z" fill="black"/>
</svg>
