<svg width="32" height="32" viewBox="0 0 32 32" fill="none" xmlns="http://www.w3.org/2000/svg">
<path d="M25 27.5H20.0912C20.7387 26.875 21.435 26.1612 22.1325 25.3587C25.6437 21.3212 27.5 17.0462 27.5 13C27.5 9.95001 26.2884 7.02494 24.1317 4.86827C21.9751 2.7116 19.05 1.5 16 1.5C12.95 1.5 10.0249 2.7116 7.86827 4.86827C5.7116 7.02494 4.5 9.95001 4.5 13C4.5 19.25 8.765 24.4925 11.8975 27.5H7C6.60218 27.5 6.22064 27.658 5.93934 27.9393C5.65804 28.2206 5.5 28.6022 5.5 29C5.5 29.3978 5.65804 29.7794 5.93934 30.0607C6.22064 30.342 6.60218 30.5 7 30.5H25C25.3978 30.5 25.7794 30.342 26.0607 30.0607C26.342 29.7794 26.5 29.3978 26.5 29C26.5 28.6022 26.342 28.2206 26.0607 27.9393C25.7794 27.658 25.3978 27.5 25 27.5ZM7.5 13C7.5 10.7457 8.39553 8.58365 9.98959 6.98959C11.5837 5.39553 13.7457 4.5 16 4.5C18.2543 4.5 20.4163 5.39553 22.0104 6.98959C23.6045 8.58365 24.5 10.7457 24.5 13C24.5 17.1637 22 20.9213 19.9125 23.3388C18.7207 24.7078 17.4115 25.9701 16 27.1112C14.5885 25.9701 13.2793 24.7078 12.0875 23.3388C10 20.9213 7.5 17.1637 7.5 13ZM16 18.5C17.0878 18.5 18.1512 18.1774 19.0556 17.5731C19.9601 16.9687 20.6651 16.1098 21.0813 15.1048C21.4976 14.0998 21.6065 12.9939 21.3943 11.927C21.1821 10.8601 20.6583 9.8801 19.8891 9.11091C19.1199 8.34172 18.1399 7.8179 17.073 7.60568C16.0061 7.39346 14.9002 7.50238 13.8952 7.91866C12.8902 8.33494 12.0313 9.03989 11.4269 9.94436C10.8226 10.8488 10.5 11.9122 10.5 13C10.5017 14.4582 11.0816 15.8562 12.1127 16.8873C13.1438 17.9184 14.5418 18.4983 16 18.5ZM16 10.5C16.4945 10.5 16.9778 10.6466 17.3889 10.9213C17.8 11.196 18.1205 11.5865 18.3097 12.0433C18.4989 12.5001 18.5484 13.0028 18.452 13.4877C18.3555 13.9727 18.1174 14.4181 17.7678 14.7678C17.4181 15.1174 16.9727 15.3555 16.4877 15.452C16.0028 15.5484 15.5001 15.4989 15.0433 15.3097C14.5865 15.1205 14.196 14.8 13.9213 14.3889C13.6466 13.9778 13.5 13.4945 13.5 13C13.5 12.337 13.7634 11.7011 14.2322 11.2322C14.7011 10.7634 15.337 10.5 16 10.5Z" fill="black"/>
</svg>
