<svg width="32" height="32" viewBox="0 0 32 32" fill="none" xmlns="http://www.w3.org/2000/svg">
<path d="M25.0151 6.98382C23.8346 5.78408 22.4283 4.82993 20.8773 4.17641C19.3263 3.52289 17.6612 3.18292 15.9781 3.17613C14.295 3.16933 12.6273 3.49584 11.071 4.13682C9.51475 4.7778 8.1008 5.72056 6.91071 6.91073C5.72063 8.10089 4.77796 9.51491 4.13709 11.0712C3.49622 12.6275 3.16983 14.2953 3.17674 15.9784C3.18365 17.6615 3.52373 19.3265 4.17736 20.8775C4.83099 22.4285 5.78524 23.8347 6.98506 25.0151C8.16549 26.2148 9.57179 27.169 11.1228 27.8225C12.6739 28.476 14.3389 28.816 16.022 28.8228C17.7051 28.8295 19.3729 28.503 20.9291 27.8621C22.4854 27.2211 23.8993 26.2783 25.0894 25.0882C26.2795 23.898 27.2222 22.484 27.863 20.9277C28.5039 19.3714 28.8303 17.7036 28.8234 16.0205C28.8165 14.3374 28.4764 12.6724 27.8228 11.1214C27.1691 9.5704 26.2149 8.16417 25.0151 6.98382ZM10.7501 25.9551V22.0001C10.7501 21.9338 10.7764 21.8702 10.8233 21.8233C10.8702 21.7764 10.9338 21.7501 11.0001 21.7501H21.0001C21.0664 21.7501 21.1299 21.7764 21.1768 21.8233C21.2237 21.8702 21.2501 21.9338 21.2501 22.0001V25.9551C19.6308 26.8056 17.8291 27.25 16.0001 27.25C14.171 27.25 12.3693 26.8056 10.7501 25.9551ZM13.0001 17.7501H19.0001C19.0664 17.7501 19.1299 17.7764 19.1768 17.8233C19.2237 17.8702 19.2501 17.9338 19.2501 18.0001V20.2501H12.7501V18.0001C12.7501 17.9338 12.7764 17.8702 12.8233 17.8233C12.8702 17.7764 12.9338 17.7501 13.0001 17.7501ZM14.4426 16.2501L15.7501 9.94882C15.7615 9.8923 15.7922 9.84149 15.8368 9.805C15.8815 9.7685 15.9374 9.74857 15.9951 9.74857C16.0527 9.74857 16.1086 9.7685 16.1533 9.805C16.1979 9.84149 16.2286 9.8923 16.2401 9.94882L17.5576 16.2501H14.4426ZM23.9551 23.9551C23.5779 24.3306 23.1752 24.6798 22.7501 25.0001V22.0001C22.7501 21.5359 22.5657 21.0908 22.2375 20.7626C21.9093 20.4344 21.4642 20.2501 21.0001 20.2501H20.7501V18.0001C20.7507 17.5513 20.5789 17.1195 20.2702 16.7938C19.9615 16.4681 19.5394 16.2735 19.0913 16.2501L17.7163 9.63757C17.6348 9.2433 17.4198 8.8892 17.1076 8.63497C16.7955 8.38073 16.4052 8.24191 16.0026 8.24191C15.6 8.24191 15.2097 8.38073 14.8975 8.63497C14.5853 8.8892 14.3703 9.2433 14.2888 9.63757L12.9138 16.2501C12.4648 16.2722 12.0415 16.4663 11.7318 16.7922C11.422 17.118 11.2495 17.5505 11.2501 18.0001V20.2501H11.0001C10.5359 20.2501 10.0908 20.4344 9.76262 20.7626C9.43443 21.0908 9.25006 21.5359 9.25006 22.0001V25.0001C8.82484 24.6794 8.42222 24.3298 8.04506 23.9538C6.47173 22.3805 5.40029 20.3759 4.96621 18.1936C4.53214 16.0113 4.75494 13.7494 5.60643 11.6937C6.45792 9.63803 7.89986 7.88103 9.74991 6.64487C11.6 5.40871 13.775 4.74891 16.0001 4.74891C18.2251 4.74891 20.4002 5.40871 22.2502 6.64487C24.1003 7.88103 25.5422 9.63803 26.3937 11.6937C27.2452 13.7494 27.468 16.0113 27.0339 18.1936C26.5998 20.3759 25.5284 22.3805 23.9551 23.9538V23.9551Z" fill="black"/>
</svg>
