<svg width="32" height="32" viewBox="0 0 32 32" fill="none" xmlns="http://www.w3.org/2000/svg">
<path d="M25.1925 6.80741C22.7545 4.36941 19.4479 2.99976 16 2.99976C12.5522 2.99976 9.24554 4.36941 6.80754 6.80741C4.36953 9.24542 2.99988 12.5521 2.99988 15.9999C2.99988 19.4478 4.36953 22.7544 6.80754 25.1924C9.24554 27.6304 12.5522 29.0001 16 29.0001C19.4479 29.0001 22.7545 27.6304 25.1925 25.1924C27.6305 22.7544 29.0002 19.4478 29.0002 15.9999C29.0002 12.5521 27.6305 9.24542 25.1925 6.80741ZM11 25.7962V21.9999H21V25.7962C19.4506 26.5826 17.7376 26.9924 16 26.9924C14.2625 26.9924 12.5494 26.5826 11 25.7962ZM13 17.9999H19V19.9999H13V17.9999ZM14.75 15.9999L16 9.99991L17.25 15.9999H14.75ZM23.7775 23.7787C23.5275 24.0287 23.2675 24.2624 23 24.4837V21.9999C23 21.4695 22.7893 20.9608 22.4142 20.5857C22.0392 20.2106 21.5305 19.9999 21 19.9999V17.9999C20.9994 17.5217 20.8275 17.0595 20.5154 16.6972C20.2033 16.3349 19.7716 16.0963 19.2988 16.0249L17.9575 9.59241C17.8634 9.14295 17.6174 8.73959 17.2609 8.45007C16.9045 8.16056 16.4593 8.00253 16 8.00253C15.5408 8.00253 15.0956 8.16056 14.7391 8.45007C14.3827 8.73959 14.1367 9.14295 14.0425 9.59241L12.7013 16.0249C12.2284 16.0963 11.7968 16.3349 11.4847 16.6972C11.1726 17.0595 11.0006 17.5217 11 17.9999V19.9999C10.4696 19.9999 9.9609 20.2106 9.58582 20.5857C9.21075 20.9608 9.00004 21.4695 9.00004 21.9999V24.4837C8.73254 24.2624 8.47254 24.0287 8.22254 23.7787C6.68397 22.2404 5.63613 20.2804 5.21154 18.1465C4.78695 16.0127 5.00467 13.8008 5.83718 11.7907C6.66969 9.78064 8.07958 8.06256 9.88857 6.85378C11.6975 5.645 13.8244 4.99981 16 4.99981C18.1757 4.99981 20.3025 5.645 22.1115 6.85378C23.9205 8.06256 25.3304 9.78064 26.1629 11.7907C26.9954 13.8008 27.2131 16.0127 26.7885 18.1465C26.3639 20.2804 25.3161 22.2404 23.7775 23.7787Z" fill="black"/>
</svg>
