<svg width="32" height="32" viewBox="0 0 32 32" fill="none" xmlns="http://www.w3.org/2000/svg">
<path d="M30.3862 4.42625C30.2727 4.15204 30.0804 3.91767 29.8336 3.75279C29.5868 3.58791 29.2967 3.49994 28.9999 3.5H2.99993C2.70319 3.50001 2.41313 3.58804 2.16643 3.75294C1.91973 3.91784 1.72748 4.15221 1.61401 4.42639C1.50053 4.70058 1.47093 5.00226 1.52895 5.29327C1.58696 5.58428 1.72999 5.85154 1.93993 6.06125L14.4999 18.625V25.5H10.9999C10.6021 25.5 10.2206 25.658 9.93927 25.9393C9.65797 26.2206 9.49993 26.6022 9.49993 27C9.49993 27.3978 9.65797 27.7794 9.93927 28.0607C10.2206 28.342 10.6021 28.5 10.9999 28.5H20.9999C21.3978 28.5 21.7793 28.342 22.0606 28.0607C22.3419 27.7794 22.4999 27.3978 22.4999 27C22.4999 26.6022 22.3419 26.2206 22.0606 25.9393C21.7793 25.658 21.3978 25.5 20.9999 25.5H17.4999V18.625L30.0599 6.06125C30.27 5.85157 30.4131 5.58429 30.4711 5.29325C30.5292 5.00221 30.4996 4.70048 30.3862 4.42625ZM25.3749 6.5L23.8749 8H8.12493L6.62493 6.5H25.3749ZM15.9999 15.875L11.1249 11H20.8749L15.9999 15.875Z" fill="black"/>
</svg>
