<svg width="32" height="32" viewBox="0 0 32 32" fill="none" xmlns="http://www.w3.org/2000/svg">
<path d="M27.4112 3.93755C27.0761 3.70832 26.6902 3.56416 26.2868 3.51756C25.8835 3.47095 25.4748 3.52329 25.0963 3.67005C23.375 4.34005 19.8962 5.46255 16 5.46255C12.1038 5.46255 8.625 4.33755 6.90375 3.67005C6.525 3.5232 6.11617 3.47085 5.71264 3.51755C5.30911 3.56424 4.92304 3.70856 4.58783 3.93802C4.25262 4.16749 3.97838 4.47518 3.78883 4.83447C3.59929 5.19376 3.50015 5.59382 3.5 6.00005V12.9713C3.5 17.5513 4.7375 21.8775 6.985 25.1525C9.35125 28.6013 12.5525 30.5 16 30.5C19.4475 30.5 22.6488 28.6013 25.015 25.155C27.2625 21.875 28.5 17.5538 28.5 12.9738V6.00005C28.4998 5.59366 28.4006 5.19344 28.2109 4.83406C28.0212 4.47467 27.7467 4.16695 27.4112 3.93755ZM25.5 12.9738C25.5 16.9538 24.4487 20.6775 22.5413 23.4575C20.75 26.0638 18.4288 27.5 16 27.5C13.5712 27.5 11.25 26.0638 9.45875 23.4575C7.55125 20.6775 6.5 16.9538 6.5 12.9738V6.7238C8.57375 7.46755 12.0837 8.4663 16 8.4663C19.9163 8.4663 23.4263 7.4663 25.5 6.7238V12.9738ZM17.2362 16.395C17.0213 16.0604 16.9481 15.654 17.0327 15.2654C17.1173 14.8767 17.3529 14.5376 17.6875 14.3225C18.5275 13.7861 19.5033 13.501 20.5 13.501C21.4967 13.501 22.4725 13.7861 23.3125 14.3225C23.6473 14.538 23.8829 14.8777 23.9672 15.2668C24.0516 15.656 23.978 16.0627 23.7625 16.3975C23.547 16.7324 23.2073 16.9679 22.8182 17.0523C22.4291 17.1367 22.0223 17.063 21.6875 16.8475C21.3312 16.6218 20.918 16.502 20.4963 16.502C20.0745 16.502 19.6613 16.6218 19.305 16.8475C19.1392 16.9542 18.9541 17.0271 18.7601 17.0621C18.5662 17.0971 18.3672 17.0936 18.1746 17.0517C17.982 17.0098 17.7996 16.9303 17.6377 16.8179C17.4758 16.7054 17.3377 16.5622 17.2313 16.3963L17.2362 16.395ZM11.5 16.5C11.0794 16.5087 10.6685 16.6281 10.3088 16.8463C9.97408 17.0618 9.56751 17.1355 9.17849 17.0512C8.78947 16.967 8.44986 16.7316 8.23438 16.3969C8.01889 16.0623 7.94517 15.6557 8.02945 15.2667C8.11372 14.8776 8.34908 14.538 8.68375 14.3225C9.5236 13.7858 10.4995 13.5005 11.4963 13.5005C12.493 13.5005 13.4689 13.7858 14.3088 14.3225C14.6434 14.538 14.8788 14.8776 14.9631 15.2667C15.0473 15.6557 14.9736 16.0623 14.7581 16.3969C14.5426 16.7316 14.203 16.967 13.814 17.0512C13.425 17.1355 13.0184 17.0618 12.6838 16.8463C12.326 16.6298 11.918 16.5104 11.5 16.5ZM20.6663 20.8338C20.9161 21.1432 21.0329 21.5391 20.9909 21.9345C20.9489 22.3299 20.7517 22.6925 20.4425 22.9425C19.1813 23.9507 17.6146 24.4999 16 24.4999C14.3854 24.4999 12.8187 23.9507 11.5575 22.9425C11.251 22.6916 11.0562 22.3297 11.0155 21.9356C10.9749 21.5416 11.0918 21.1475 11.3407 20.8393C11.5896 20.5312 11.9503 20.334 12.3441 20.2908C12.7379 20.2476 13.1327 20.3619 13.4425 20.6088C14.17 21.186 15.0714 21.5001 16 21.5001C16.9286 21.5001 17.83 21.186 18.5575 20.6088C18.867 20.3591 19.263 20.2425 19.6585 20.2847C20.0539 20.3269 20.4164 20.5244 20.6663 20.8338Z" fill="black"/>
</svg>
