<svg width="32" height="32" viewBox="0 0 32 32" fill="none" xmlns="http://www.w3.org/2000/svg">
<path d="M27.4112 3.93755C27.0761 3.70832 26.6902 3.56416 26.2868 3.51756C25.8835 3.47095 25.4748 3.52329 25.0963 3.67005C23.375 4.34005 19.8962 5.46255 16 5.46255C12.1038 5.46255 8.625 4.33755 6.90375 3.67005C6.525 3.5232 6.11617 3.47085 5.71264 3.51755C5.30911 3.56424 4.92304 3.70856 4.58783 3.93802C4.25262 4.16749 3.97838 4.47518 3.78883 4.83447C3.59929 5.19376 3.50015 5.59382 3.5 6.00005V12.9713C3.5 17.5513 4.7375 21.8775 6.985 25.1525C9.35125 28.6013 12.5525 30.5 16 30.5C19.4475 30.5 22.6488 28.6013 25.015 25.155C27.2625 21.875 28.5 17.5538 28.5 12.9738V6.00005C28.4998 5.59366 28.4006 5.19344 28.2109 4.83406C28.0212 4.47467 27.7467 4.16695 27.4112 3.93755ZM25.5 12.9738C25.5 16.9538 24.4487 20.6775 22.5413 23.4575C20.75 26.0638 18.4288 27.5 16 27.5C13.5712 27.5 11.25 26.0638 9.45875 23.4575C7.55125 20.6775 6.5 16.9538 6.5 12.9738V6.7238C8.57375 7.46755 12.0837 8.4663 16 8.4663C19.9163 8.4663 23.4263 7.4663 25.5 6.7238V12.9738ZM17.2362 14.1888C17.3427 14.0229 17.4808 13.8797 17.6427 13.7672C17.8046 13.6548 17.987 13.5753 18.1796 13.5334C18.3722 13.4915 18.5712 13.488 18.7651 13.523C18.9591 13.558 19.1442 13.6309 19.31 13.7375C19.666 13.9641 20.0793 14.0845 20.5012 14.0845C20.9232 14.0845 21.3365 13.9641 21.6925 13.7375C22.0273 13.5221 22.4341 13.4484 22.8232 13.5328C23.2123 13.6172 23.552 13.8527 23.7675 14.1875C23.983 14.5224 24.0566 14.9291 23.9722 15.3182C23.8879 15.7074 23.6523 16.0471 23.3175 16.2625C22.4779 16.7999 21.5019 17.0855 20.505 17.0855C19.5081 17.0855 18.5321 16.7999 17.6925 16.2625C17.5262 16.1565 17.3825 16.0186 17.2696 15.857C17.1566 15.6953 17.0767 15.5129 17.0343 15.3203C16.9919 15.1277 16.988 14.9286 17.0226 14.7344C17.0573 14.5403 17.1299 14.3549 17.2362 14.1888ZM14.3125 16.2613C13.473 16.799 12.4969 17.0847 11.5 17.0847C10.5031 17.0847 9.52702 16.799 8.6875 16.2613C8.35283 16.0458 8.11747 15.7062 8.0332 15.3172C7.99147 15.1246 7.98809 14.9256 8.02325 14.7317C8.05841 14.5377 8.13143 14.3526 8.23812 14.1869C8.34482 14.0212 8.48312 13.8781 8.64511 13.7659C8.8071 13.6536 8.98962 13.5743 9.18224 13.5326C9.57127 13.4483 9.97783 13.5221 10.3125 13.7375C10.6686 13.9645 11.0821 14.0851 11.5044 14.0851C11.9267 14.0851 12.3402 13.9645 12.6962 13.7375C13.0309 13.5221 13.4375 13.4483 13.8265 13.5326C14.2155 13.6169 14.5551 13.8523 14.7706 14.1869C14.9861 14.5216 15.0598 14.9282 14.9756 15.3172C14.8913 15.7062 14.6559 16.0458 14.3212 16.2613H14.3125ZM19.7975 23.4388C19.6988 23.6093 19.5674 23.7587 19.411 23.8784C19.2545 23.9981 19.076 24.0858 18.8856 24.1366C18.6953 24.1873 18.4968 24.2 18.3015 24.174C18.1062 24.148 17.918 24.0838 17.7475 23.985C17.2192 23.6668 16.6142 23.4986 15.9975 23.4986C15.3808 23.4986 14.7758 23.6668 14.2475 23.985C14.0768 24.0936 13.8859 24.1665 13.6862 24.1993C13.4866 24.2321 13.2824 24.2242 13.0859 24.1761C12.8894 24.128 12.7047 24.0406 12.5428 23.9192C12.381 23.7978 12.2454 23.645 12.1441 23.4698C12.0429 23.2947 11.9781 23.1009 11.9537 22.9C11.9293 22.6992 11.9458 22.4955 12.0022 22.3012C12.0586 22.107 12.1536 21.9261 12.2817 21.7695C12.4098 21.6129 12.5682 21.4838 12.7475 21.39C13.732 20.8088 14.8543 20.5022 15.9975 20.5022C17.1407 20.5022 18.263 20.8088 19.2475 21.39C19.5921 21.5888 19.8437 21.9163 19.9468 22.3005C20.0499 22.6847 19.9962 23.0942 19.7975 23.4388Z" fill="black"/>
</svg>
