<svg width="32" height="32" viewBox="0 0 32 32" fill="none" xmlns="http://www.w3.org/2000/svg">
<path d="M14.5 8.99995C14.5 9.39777 14.342 9.7793 14.0607 10.0606C13.7794 10.3419 13.3978 10.4999 13 10.4999H5C4.60218 10.4999 4.22064 10.3419 3.93934 10.0606C3.65804 9.7793 3.5 9.39777 3.5 8.99995C3.5 8.60212 3.65804 8.22059 3.93934 7.93929C4.22064 7.65798 4.60218 7.49995 5 7.49995H13C13.3978 7.49995 13.7794 7.65798 14.0607 7.93929C14.342 8.22059 14.5 8.60212 14.5 8.99995ZM13 21.4999H10.5V18.9999C10.5 18.6021 10.342 18.2206 10.0607 17.9393C9.77936 17.658 9.39782 17.4999 9 17.4999C8.60218 17.4999 8.22064 17.658 7.93934 17.9393C7.65804 18.2206 7.5 18.6021 7.5 18.9999V21.4999H5C4.60218 21.4999 4.22064 21.658 3.93934 21.9393C3.65804 22.2206 3.5 22.6021 3.5 22.9999C3.5 23.3978 3.65804 23.7793 3.93934 24.0606C4.22064 24.3419 4.60218 24.4999 5 24.4999H7.5V26.9999C7.5 27.3978 7.65804 27.7793 7.93934 28.0606C8.22064 28.3419 8.60218 28.4999 9 28.4999C9.39782 28.4999 9.77936 28.3419 10.0607 28.0606C10.342 27.7793 10.5 27.3978 10.5 26.9999V24.4999H13C13.3978 24.4999 13.7794 24.3419 14.0607 24.0606C14.342 23.7793 14.5 23.3978 14.5 22.9999C14.5 22.6021 14.342 22.2206 14.0607 21.9393C13.7794 21.658 13.3978 21.4999 13 21.4999ZM19 21.9999H27C27.3978 21.9999 27.7794 21.8419 28.0607 21.5606C28.342 21.2793 28.5 20.8978 28.5 20.4999C28.5 20.1021 28.342 19.7206 28.0607 19.4393C27.7794 19.158 27.3978 18.9999 27 18.9999H19C18.6022 18.9999 18.2206 19.158 17.9393 19.4393C17.658 19.7206 17.5 20.1021 17.5 20.4999C17.5 20.8978 17.658 21.2793 17.9393 21.5606C18.2206 21.8419 18.6022 21.9999 19 21.9999ZM27 23.9999H19C18.6022 23.9999 18.2206 24.158 17.9393 24.4393C17.658 24.7206 17.5 25.1021 17.5 25.4999C17.5 25.8978 17.658 26.2793 17.9393 26.5606C18.2206 26.8419 18.6022 26.9999 19 26.9999H27C27.3978 26.9999 27.7794 26.8419 28.0607 26.5606C28.342 26.2793 28.5 25.8978 28.5 25.4999C28.5 25.1021 28.342 24.7206 28.0607 24.4393C27.7794 24.158 27.3978 23.9999 27 23.9999ZM18.9387 13.0612C19.0781 13.201 19.2437 13.312 19.426 13.3877C19.6083 13.4634 19.8038 13.5024 20.0012 13.5024C20.1987 13.5024 20.3941 13.4634 20.5765 13.3877C20.7588 13.312 20.9244 13.201 21.0637 13.0612L23 11.1249L24.9387 13.0649C25.2205 13.3467 25.6027 13.505 26.0012 13.505C26.3998 13.505 26.782 13.3467 27.0637 13.0649C27.3455 12.7832 27.5039 12.401 27.5039 12.0024C27.5039 11.6039 27.3455 11.2217 27.0637 10.9399L25.125 8.99995L27.065 7.0612C27.3468 6.7794 27.5051 6.39721 27.5051 5.9987C27.5051 5.60018 27.3468 5.21799 27.065 4.9362C26.7832 4.6544 26.401 4.49609 26.0025 4.49609C25.604 4.49609 25.2218 4.6544 24.94 4.9362L23 6.87495L21.0613 4.9387C20.7795 4.6569 20.3973 4.49859 19.9988 4.49859C19.6002 4.49859 19.218 4.6569 18.9363 4.9387C18.6545 5.22049 18.4961 5.60268 18.4961 6.0012C18.4961 6.39971 18.6545 6.7819 18.9363 7.0637L20.875 8.99995L18.9387 10.9387C18.7993 11.078 18.6886 11.2434 18.6132 11.4255C18.5377 11.6076 18.4988 11.8028 18.4988 11.9999C18.4988 12.1971 18.5377 12.3923 18.6132 12.5744C18.6886 12.7565 18.7993 12.9219 18.9387 13.0612Z" fill="black"/>
</svg>
