<svg width="32" height="32" viewBox="0 0 32 32" fill="none" xmlns="http://www.w3.org/2000/svg">
<path d="M25.875 3.5H6.125C5.42881 3.5 4.76113 3.77656 4.26884 4.26884C3.77656 4.76113 3.5 5.42881 3.5 6.125V12.2762C3.50018 12.7801 3.64537 13.2733 3.91822 13.6968C4.19107 14.1204 4.58006 14.4565 5.03875 14.665L12.0387 17.8487C10.9614 18.6756 10.1701 19.8191 9.77599 21.1188C9.38186 22.4184 9.40471 23.8088 9.84132 25.0948C10.2779 26.3808 11.1064 27.4977 12.2103 28.2887C13.3142 29.0797 14.6382 29.5051 15.9963 29.5051C17.3543 29.5051 18.6783 29.0797 19.7822 28.2887C20.8861 27.4977 21.7146 26.3808 22.1512 25.0948C22.5878 23.8088 22.6106 22.4184 22.2165 21.1188C21.8224 19.8191 21.0311 18.6756 19.9538 17.8487L26.9538 14.665C27.4138 14.4576 27.8044 14.122 28.0786 13.6983C28.3529 13.2747 28.4992 12.7809 28.5 12.2762V6.125C28.5 5.42881 28.2234 4.76113 27.7312 4.26884C27.2389 3.77656 26.5712 3.5 25.875 3.5ZM16 16.3525L12.5 14.7612V6.5H19.5V14.7612L16 16.3525ZM6.5 6.5H9.5V13.3975L6.5 12.0337V6.5ZM16 26.5C15.3078 26.5 14.6311 26.2947 14.0555 25.9101C13.4799 25.5256 13.0313 24.9789 12.7664 24.3394C12.5015 23.6999 12.4322 22.9961 12.5673 22.3172C12.7023 21.6383 13.0356 21.0146 13.5251 20.5251C14.0146 20.0356 14.6383 19.7023 15.3172 19.5673C15.9961 19.4322 16.6999 19.5015 17.3394 19.7664C17.9789 20.0313 18.5256 20.4799 18.9101 21.0555C19.2947 21.6311 19.5 22.3078 19.5 23C19.5 23.9283 19.1313 24.8185 18.4749 25.4749C17.8185 26.1313 16.9283 26.5 16 26.5ZM25.5 12.0337L22.5 13.3975V6.5H25.5V12.0337Z" fill="black"/>
</svg>
