<svg width="32" height="32" viewBox="0 0 32 32" fill="none" xmlns="http://www.w3.org/2000/svg">
<path d="M27.5 12C27.5011 10.072 27.0175 8.17475 26.0936 6.4826C25.1697 4.79044 23.8353 3.35771 22.2129 2.31613C20.5906 1.27456 18.7324 0.657578 16.8092 0.521917C14.8861 0.386255 12.9597 0.736268 11.2071 1.53977C9.45463 2.34328 7.93225 3.57449 6.77998 5.12019C5.62771 6.66589 4.88253 8.47648 4.61297 10.3855C4.3434 12.2945 4.5581 14.2406 5.23733 16.0449C5.91655 17.8493 7.03849 19.4539 8.5 20.7112V30C8.50003 30.2557 8.56543 30.5071 8.68999 30.7304C8.81455 30.9538 8.99413 31.1415 9.21168 31.2759C9.42923 31.4103 9.67753 31.4869 9.93298 31.4983C10.1884 31.5097 10.4426 31.4556 10.6713 31.3412L16 28.6775L21.33 31.3412C21.5586 31.4553 21.8126 31.5092 22.0679 31.4976C22.3232 31.4861 22.5713 31.4095 22.7886 31.2751C23.006 31.1407 23.1855 30.9531 23.31 30.7299C23.4344 30.5068 23.4999 30.2555 23.5 30V20.7112C24.755 19.6331 25.7621 18.2965 26.4525 16.7929C27.1429 15.2894 27.5002 13.6544 27.5 12ZM7.5 12C7.5 10.3188 7.99852 8.67543 8.93251 7.27761C9.8665 5.87979 11.194 4.79033 12.7472 4.14698C14.3004 3.50364 16.0094 3.33531 17.6583 3.66328C19.3071 3.99126 20.8217 4.8008 22.0104 5.98955C23.1992 7.1783 24.0087 8.69285 24.3367 10.3417C24.6646 11.9905 24.4963 13.6996 23.853 15.2528C23.2096 16.8059 22.1202 18.1335 20.7223 19.0674C19.3245 20.0014 17.6811 20.5 16 20.5C13.7464 20.4976 11.5857 19.6014 9.99215 18.0078C8.39859 16.4142 7.50232 14.2536 7.5 12ZM20.5 27.5737L16.67 25.6587C16.4616 25.5544 16.2318 25.5001 15.9988 25.5001C15.7657 25.5001 15.5359 25.5544 15.3275 25.6587L11.5 27.5725V22.5825C12.9231 23.1876 14.4536 23.4995 16 23.4995C17.5464 23.4995 19.0769 23.1876 20.5 22.5825V27.5737ZM16 18.5C17.2856 18.5 18.5423 18.1187 19.6112 17.4045C20.6801 16.6903 21.5132 15.6751 22.0052 14.4874C22.4972 13.2997 22.6259 11.9927 22.3751 10.7319C22.1243 9.47099 21.5052 8.3128 20.5962 7.40376C19.6872 6.49472 18.529 5.87566 17.2681 5.62485C16.0072 5.37405 14.7003 5.50277 13.5126 5.99474C12.3248 6.48671 11.3097 7.31983 10.5954 8.38875C9.88122 9.45767 9.5 10.7144 9.5 12C9.50199 13.7233 10.1874 15.3754 11.406 16.594C12.6246 17.8125 14.2767 18.498 16 18.5ZM16 8.49996C16.6922 8.49996 17.3689 8.70523 17.9445 9.08981C18.5201 9.4744 18.9687 10.021 19.2336 10.6606C19.4985 11.3001 19.5678 12.0038 19.4327 12.6828C19.2977 13.3617 18.9644 13.9853 18.4749 14.4748C17.9854 14.9643 17.3617 15.2977 16.6828 15.4327C16.0039 15.5678 15.3002 15.4984 14.6606 15.2335C14.0211 14.9686 13.4744 14.52 13.0899 13.9445C12.7053 13.3689 12.5 12.6922 12.5 12C12.5 11.0717 12.8687 10.1815 13.5251 9.52508C14.1815 8.86871 15.0717 8.49996 16 8.49996Z" fill="black"/>
</svg>
