<svg width="32" height="32" viewBox="0 0 32 32" fill="none" xmlns="http://www.w3.org/2000/svg">
<path d="M8.5 7.5C6.81886 7.5 5.17547 7.99852 3.77766 8.93251C2.37984 9.8665 1.29037 11.194 0.647028 12.7472C0.00368291 14.3004 -0.164645 16.0094 0.163329 17.6583C0.491303 19.3071 1.30085 20.8217 2.4896 22.0104C3.67834 23.1992 5.1929 24.0087 6.84174 24.3367C8.49057 24.6646 10.1996 24.4963 11.7528 23.853C13.306 23.2096 14.6335 22.1202 15.5675 20.7223C16.5015 19.3245 17 17.6811 17 16C16.9977 13.7464 16.1014 11.5857 14.5079 9.99215C12.9143 8.39859 10.7536 7.50232 8.5 7.5ZM8.5 21.5C7.41221 21.5 6.34884 21.1774 5.44437 20.5731C4.5399 19.9687 3.83495 19.1098 3.41867 18.1048C3.00238 17.0998 2.89347 15.9939 3.10568 14.927C3.3179 13.8601 3.84173 12.8801 4.61092 12.1109C5.38011 11.3417 6.36011 10.8179 7.42701 10.6057C8.4939 10.3935 9.59977 10.5024 10.6048 10.9187C11.6098 11.3349 12.4687 12.0399 13.0731 12.9444C13.6774 13.8488 14 14.9122 14 16C13.9983 17.4582 13.4184 18.8562 12.3873 19.8873C11.3562 20.9184 9.95819 21.4983 8.5 21.5ZM23 7.5C20.0463 7.5 18.5 11.7762 18.5 16C18.5 20.2238 20.0463 24.5 23 24.5C25.9538 24.5 27.5 20.2238 27.5 16C27.5 11.7762 25.9538 7.5 23 7.5ZM23 21.4837C22.5325 21.2137 21.5 19.3475 21.5 16C21.5 12.6525 22.5325 10.7862 23 10.5162C23.4675 10.7862 24.5 12.6525 24.5 16C24.5 19.3475 23.4675 21.2137 23 21.4837ZM32 9V23C32 23.3978 31.842 23.7794 31.5607 24.0607C31.2794 24.342 30.8978 24.5 30.5 24.5C30.1022 24.5 29.7206 24.342 29.4393 24.0607C29.158 23.7794 29 23.3978 29 23V9C29 8.60218 29.158 8.22064 29.4393 7.93934C29.7206 7.65804 30.1022 7.5 30.5 7.5C30.8978 7.5 31.2794 7.65804 31.5607 7.93934C31.842 8.22064 32 8.60218 32 9Z" fill="black"/>
</svg>
