<svg width="32" height="32" viewBox="0 0 32 32" fill="none" xmlns="http://www.w3.org/2000/svg">
<path d="M30.5 15C30.498 13.2767 29.8126 11.6246 28.594 10.406C27.3755 9.18748 25.7233 8.50202 24 8.50003H19.04C18.61 8.47378 12.465 8.00003 6.6075 3.08753C6.24313 2.78162 5.79904 2.58603 5.32737 2.52373C4.85571 2.46143 4.37605 2.53501 3.94475 2.73583C3.51345 2.93664 3.14841 3.25636 2.89249 3.65743C2.63657 4.0585 2.50042 4.52427 2.5 5.00003V25C2.497 25.4763 2.6315 25.9434 2.88737 26.3452C3.14324 26.7469 3.5096 27.0663 3.9425 27.265C4.37356 27.4685 4.85408 27.5436 5.32666 27.4813C5.79924 27.419 6.2439 27.222 6.6075 26.9138C9.60568 24.3934 13.1727 22.6412 17 21.8088V25.0838C16.9999 25.4953 17.1014 25.9004 17.2955 26.2632C17.4896 26.6261 17.7702 26.9354 18.1125 27.1638C18.168 27.2012 18.2261 27.2346 18.2863 27.2638L20.0913 28.1463C20.4249 28.346 20.8005 28.4651 21.1882 28.4942C21.576 28.5233 21.9652 28.4616 22.3249 28.3139C22.6846 28.1662 23.0049 27.9367 23.2603 27.6435C23.5157 27.3503 23.6992 27.0016 23.7963 26.625L25.1825 21.3975C26.6762 21.1195 28.0255 20.3276 28.9967 19.1592C29.9679 17.9907 30.4997 16.5194 30.5 15ZM5.5 23.9538V6.05003C10.0213 9.55878 14.5213 10.8125 17 11.2575V18.75C14.5213 19.19 10.0213 20.4438 5.5 23.9538ZM21.0488 25.275L20 24.7625V21.5H22.05L21.0488 25.275ZM24 18.5H20V11.5H24C24.9283 11.5 25.8185 11.8688 26.4749 12.5252C27.1313 13.1815 27.5 14.0718 27.5 15C27.5 15.9283 27.1313 16.8185 26.4749 17.4749C25.8185 18.1313 24.9283 18.5 24 18.5Z" fill="black"/>
</svg>
