<svg width="32" height="32" viewBox="0 0 32 32" fill="none" xmlns="http://www.w3.org/2000/svg">
<path d="M23.0613 15.0612L19.0613 19.0612C18.922 19.2011 18.7564 19.312 18.574 19.3877C18.3917 19.4634 18.1962 19.5024 17.9988 19.5024C17.8014 19.5024 17.6059 19.4634 17.4236 19.3877C17.2413 19.312 17.0757 19.2011 16.9363 19.0612L14.0001 16.125L11.0613 19.0612C10.7795 19.343 10.3973 19.5013 9.99882 19.5013C9.6003 19.5013 9.21811 19.343 8.93632 19.0612C8.65452 18.7794 8.49621 18.3972 8.49621 17.9987C8.49621 17.6002 8.65452 17.218 8.93632 16.9362L12.9363 12.9362C13.0757 12.7964 13.2413 12.6854 13.4236 12.6097C13.6059 12.534 13.8014 12.495 13.9988 12.495C14.1962 12.495 14.3917 12.534 14.574 12.6097C14.7564 12.6854 14.922 12.7964 15.0613 12.9362L18.0001 15.875L20.9388 12.935C21.2206 12.6532 21.6028 12.4949 22.0013 12.4949C22.3998 12.4949 22.782 12.6532 23.0638 12.935C23.3456 13.2168 23.5039 13.599 23.5039 13.9975C23.5039 14.396 23.3456 14.7782 23.0638 15.06L23.0613 15.0612ZM29.5001 16C29.5006 18.3124 28.907 20.5862 27.7764 22.6034C26.6458 24.6206 25.0159 26.3136 23.0431 27.52C21.0703 28.7264 18.8207 29.4059 16.5099 29.4932C14.199 29.5805 11.9045 29.0728 9.84631 28.0187L5.79257 29.375C5.35127 29.5237 4.8772 29.5462 4.42379 29.44C3.97038 29.3337 3.55566 29.103 3.22637 28.7737C2.89708 28.4444 2.66631 28.0297 2.56007 27.5762C2.45383 27.1228 2.47634 26.6488 2.62507 26.2075L3.97632 22.1537C3.04843 20.3362 2.54466 18.3319 2.5029 16.2917C2.46114 14.2514 2.88246 12.2282 3.7352 10.3742C4.58793 8.52022 5.84988 6.88368 7.42617 5.58762C9.00245 4.29157 10.8521 3.36974 12.8359 2.89143C14.8198 2.41313 16.8862 2.3908 18.8799 2.82613C20.8737 3.26146 22.7428 4.14311 24.3467 5.40481C25.9506 6.6665 27.2476 8.2754 28.1402 10.1105C29.0328 11.9457 29.4977 13.9593 29.5001 16ZM26.5001 16C26.4996 14.3893 26.1287 12.8004 25.4159 11.3561C24.7032 9.91176 23.6677 8.65076 22.3896 7.67065C21.1115 6.69054 19.6251 6.01758 18.0453 5.70385C16.4656 5.39012 14.8348 5.44403 13.2792 5.86139C11.7236 6.27875 10.2848 7.04839 9.07426 8.11076C7.86369 9.17312 6.91374 10.4997 6.29791 11.988C5.68208 13.4762 5.41687 15.0862 5.5228 16.6933C5.62873 18.3005 6.10297 19.8617 6.90882 21.2562C7.0155 21.4403 7.08182 21.6449 7.10337 21.8565C7.12492 22.0682 7.10121 22.282 7.03382 22.4837L5.79257 26.2075L9.51631 24.9662C9.6695 24.9152 9.82986 24.889 9.99132 24.8887C10.2548 24.8892 10.5134 24.959 10.7413 25.0912C12.3376 26.0149 14.149 26.5018 15.9932 26.503C17.8375 26.5042 19.6495 26.0196 21.247 25.098C22.8445 24.1765 24.171 22.8504 25.0932 21.2532C26.0154 19.6561 26.5006 17.8442 26.5001 16Z" fill="black"/>
</svg>
