<svg width="32" height="32" viewBox="0 0 32 32" fill="none" xmlns="http://www.w3.org/2000/svg">
<path d="M30.5 18.6637C30.5 20.7687 30.0788 22.58 29.2812 23.9025C28.2575 25.6012 26.6663 26.5 24.68 26.5C20.8888 26.5 18.34 21.7437 15.6425 16.7087C13.6825 13.0512 11.25 8.5 9.25 8.5C8.28625 8.5 7.105 9.67125 6.1675 11.5562C5.09515 13.7737 4.52575 16.2007 4.5 18.6637C4.5 20.2013 4.78 21.5112 5.2875 22.3538C5.75875 23.1362 6.405 23.5 7.32 23.5C9.03875 23.5 11.1487 19.875 11.8425 18.6887C12.0429 18.345 12.3717 18.0949 12.7565 17.9935C13.1413 17.8921 13.5506 17.9477 13.8944 18.1481C14.2382 18.3485 14.4883 18.6773 14.5896 19.0621C14.691 19.4469 14.6354 19.8562 14.435 20.2C13.3213 22.11 12.3688 23.45 11.435 24.4225C10.0938 25.82 8.75 26.5 7.32 26.5C5.33375 26.5 3.7425 25.6012 2.71875 23.9025C1.92125 22.58 1.5 20.7687 1.5 18.6637C1.5 13.1675 4.4475 5.5 9.25 5.5C13.0413 5.5 15.59 10.2563 18.2875 15.2913C20.25 18.9488 22.6838 23.5 24.68 23.5C25.595 23.5 26.2412 23.1362 26.7125 22.3538C27.22 21.5112 27.5 20.2013 27.5 18.6637C27.4746 16.2008 26.9057 13.7738 25.8337 11.5562C24.8962 9.67125 23.715 8.5 22.75 8.5C22.035 8.5 21.1737 9.125 20.1887 10.3538C19.9401 10.6644 19.5783 10.8635 19.1828 10.9074C18.7873 10.9512 18.3906 10.8361 18.08 10.5875C17.7694 10.3389 17.5702 9.977 17.5264 9.58154C17.4826 9.18607 17.5976 8.78939 17.8463 8.47875C19.4525 6.475 21.0562 5.5 22.75 5.5C24.9562 5.5 27 7.17625 28.5187 10.22C29.7927 12.8544 30.4692 15.7376 30.5 18.6637Z" fill="black"/>
</svg>
