<svg width="32" height="32" viewBox="0 0 32 32" fill="none" xmlns="http://www.w3.org/2000/svg">
<path d="M29.5 18.6637C29.5 20.5862 29.125 22.22 28.425 23.3862C27.5912 24.7687 26.3 25.5 24.675 25.5C21.4812 25.5 19.0712 21 16.5187 16.2362C14.2225 11.9412 11.8425 7.49997 9.25 7.49997C7.8625 7.49997 6.4125 8.81622 5.27 11.1112C4.13129 13.4677 3.5269 16.0466 3.5 18.6637C3.5 20.405 3.8225 21.8587 4.43125 22.87C5.08375 23.9512 6.05625 24.495 7.32 24.495C9.46375 24.495 11.4538 21.455 13.2863 18.17C13.3183 18.1125 13.3613 18.0619 13.4128 18.0211C13.4644 17.9803 13.5235 17.95 13.5867 17.932C13.65 17.914 13.7162 17.9087 13.7815 17.9162C13.8469 17.9238 13.91 17.9442 13.9675 17.9762C14.025 18.0082 14.0755 18.0512 14.1164 18.1028C14.1572 18.1544 14.1875 18.2135 14.2055 18.2767C14.2235 18.34 14.2288 18.4062 14.2212 18.4715C14.2136 18.5368 14.1933 18.6 14.1613 18.6575C12.315 21.97 10.1125 25.5 7.32 25.5C5.70375 25.5 4.40875 24.7687 3.57 23.3862C2.875 22.22 2.5 20.5862 2.5 18.6637C2.52883 15.8916 3.16905 13.16 4.375 10.6637C5.71125 7.97872 7.4425 6.49997 9.25 6.49997C12.4425 6.49997 14.8538 11 17.4062 15.7637C19.7075 20.0587 22.0863 24.5 24.6812 24.5C25.9462 24.5 26.9175 23.9512 27.57 22.875C28.1787 21.8637 28.5012 20.41 28.5012 18.6687C28.4743 16.0516 27.87 13.4727 26.7313 11.1162C25.5875 8.81622 24.1375 7.49997 22.75 7.49997C21.5312 7.49997 20.2313 8.49997 18.7775 10.5712C18.6994 10.6749 18.5841 10.7441 18.4559 10.7643C18.3277 10.7844 18.1967 10.754 18.0905 10.6793C17.9843 10.6047 17.9114 10.4916 17.887 10.3642C17.8627 10.2367 17.8888 10.1048 17.96 9.99622C19.6375 7.61122 21.16 6.49622 22.75 6.49622C24.5562 6.49622 26.2875 7.97497 27.625 10.6612C28.8313 13.1582 29.4715 15.8907 29.5 18.6637Z" fill="black"/>
</svg>
