<svg width="32" height="32" viewBox="0 0 32 32" fill="none" xmlns="http://www.w3.org/2000/svg">
<path d="M27.3813 25.2425L23.9563 14.4775L27.11 11.0088C27.372 10.7135 27.507 10.3269 27.4858 9.93274C27.4646 9.5386 27.2889 9.1687 26.9968 8.90324C26.7046 8.63778 26.3197 8.49815 25.9253 8.51463C25.5309 8.5311 25.159 8.70236 24.89 8.99126L22.905 11.1738L21.0175 5.24251C20.8579 4.73607 20.5407 4.29388 20.1121 3.98042C19.6835 3.66696 19.166 3.49864 18.635 3.50001H13.3638C12.8328 3.49864 12.3153 3.66696 11.8867 3.98042C11.4581 4.29388 11.1409 4.73607 10.9813 5.24251L4.61752 25.2425C4.49839 25.6172 4.46931 26.0147 4.53266 26.4028C4.59601 26.7909 4.75 27.1585 4.98212 27.4759C5.21424 27.7932 5.51794 28.0514 5.86856 28.2293C6.21918 28.4073 6.60683 28.5 7.00002 28.5H25C25.3932 28.5 25.7809 28.4073 26.1315 28.2293C26.4821 28.0514 26.7858 27.7932 27.0179 27.4759C27.25 27.1585 27.404 26.7909 27.4674 26.4028C27.5307 26.0147 27.5017 25.6172 27.3825 25.2425H27.3813ZM22.4063 19.5H19.39L21.625 17.0425L22.4063 19.5ZM13.7288 6.50001H18.27L20.5725 13.7388L15.3363 19.5H9.59252L13.7288 6.50001ZM7.68377 25.5L8.63752 22.5H23.3613L24.315 25.5H7.68377Z" fill="black"/>
</svg>
