<svg width="32" height="32" viewBox="0 0 32 32" fill="none" xmlns="http://www.w3.org/2000/svg">
<path d="M7.11001 3.99125C6.97828 3.84276 6.81839 3.72189 6.63961 3.63565C6.46083 3.54942 6.26671 3.49952 6.0685 3.48885C5.87029 3.47819 5.67193 3.50697 5.48493 3.57353C5.29792 3.6401 5.12599 3.74311 4.97909 3.87661C4.83219 4.01011 4.71325 4.17143 4.62916 4.35124C4.54508 4.53104 4.49751 4.72575 4.48922 4.92407C4.48094 5.1224 4.5121 5.32039 4.58089 5.50658C4.64969 5.69278 4.75476 5.86346 4.89001 6.00875L9.50001 11.08V15C9.49906 16.0718 9.76318 17.1273 10.2688 18.0723C10.7745 19.0174 11.506 19.8227 12.3983 20.4166C13.2905 21.0105 14.3158 21.3746 15.3827 21.4764C16.4497 21.5782 17.5253 21.4145 18.5138 21L19.9213 22.5487C18.7106 23.1791 17.3649 23.5055 16 23.5C13.7464 23.4977 11.5857 22.6014 9.99216 21.0078C8.3986 19.4143 7.50233 17.2536 7.50001 15C7.50001 14.6022 7.34198 14.2206 7.06067 13.9393C6.77937 13.658 6.39784 13.5 6.00001 13.5C5.60219 13.5 5.22065 13.658 4.93935 13.9393C4.65805 14.2206 4.50001 14.6022 4.50001 15C4.50354 17.7893 5.51917 20.4825 7.35829 22.5795C9.19741 24.6766 11.7351 26.035 14.5 26.4025V29C14.5 29.3978 14.658 29.7794 14.9394 30.0607C15.2207 30.342 15.6022 30.5 16 30.5C16.3978 30.5 16.7794 30.342 17.0607 30.0607C17.342 29.7794 17.5 29.3978 17.5 29V26.4037C19.0923 26.2004 20.6229 25.66 21.99 24.8187L24.89 28.0087C25.159 28.2977 25.5309 28.4689 25.9253 28.4854C26.3197 28.5019 26.7046 28.3622 26.9967 28.0968C27.2888 27.8313 27.4645 27.4614 27.4858 27.0673C27.507 26.6731 27.372 26.2865 27.11 25.9912L7.11001 3.99125ZM16 18.5C15.0718 18.5 14.1815 18.1313 13.5251 17.4749C12.8688 16.8185 12.5 15.9283 12.5 15V14.375L16.2375 18.4862C16.1588 18.5 16.08 18.5 16 18.5ZM11.3338 5.65875C11.1899 5.52338 11.0742 5.36094 10.9933 5.18075C10.9124 5.00055 10.8679 4.80616 10.8623 4.60871C10.8568 4.41127 10.8902 4.21467 10.9608 4.0302C11.0314 3.84572 11.1378 3.67701 11.2738 3.53375C12.1675 2.58718 13.3248 1.93078 14.5959 1.64956C15.867 1.36835 17.1932 1.47528 18.4028 1.95651C19.6124 2.43774 20.6496 3.27108 21.3801 4.34861C22.1107 5.42614 22.5008 6.69819 22.5 8V14.0675C22.5 14.4653 22.342 14.8469 22.0607 15.1282C21.7794 15.4095 21.3978 15.5675 21 15.5675C20.6022 15.5675 20.2207 15.4095 19.9394 15.1282C19.658 14.8469 19.5 14.4653 19.5 14.0675V8C19.5 7.29921 19.2896 6.61457 18.896 6.03471C18.5025 5.45486 17.9439 5.00649 17.2927 4.74766C16.6414 4.48884 15.9275 4.43147 15.2433 4.58298C14.5591 4.7345 13.9361 5.08792 13.455 5.5975C13.3198 5.74087 13.1576 5.85619 12.9778 5.93687C12.798 6.01755 12.6041 6.062 12.4071 6.06769C12.2101 6.07337 12.0139 6.04019 11.8297 5.97002C11.6456 5.89985 11.477 5.79408 11.3338 5.65875ZM23.875 18.1975C24.2887 17.1823 24.501 16.0963 24.5 15C24.5 14.6022 24.658 14.2206 24.9394 13.9393C25.2207 13.658 25.6022 13.5 26 13.5C26.3978 13.5 26.7794 13.658 27.0607 13.9393C27.342 14.2206 27.5 14.6022 27.5 15C27.5024 16.4831 27.2162 17.9524 26.6575 19.3262C26.4984 19.6801 26.2083 19.9585 25.8483 20.1031C25.4882 20.2476 25.0862 20.247 24.7266 20.1014C24.3669 19.9558 24.0777 19.6766 23.9196 19.3222C23.7615 18.9679 23.7469 18.5661 23.8788 18.2012L23.875 18.1975Z" fill="black"/>
</svg>
