<svg width="32" height="32" viewBox="0 0 32 32" fill="none" xmlns="http://www.w3.org/2000/svg">
<path d="M25 2.5H9C8.33696 2.5 7.70107 2.76339 7.23223 3.23223C6.76339 3.70107 6.5 4.33696 6.5 5V7H4.5C3.83696 7 3.20107 7.26339 2.73223 7.73223C2.26339 8.20107 2 8.83696 2 9.5V22.5C2 23.163 2.26339 23.7989 2.73223 24.2678C3.20107 24.7366 3.83696 25 4.5 25H6.5V27C6.5 27.663 6.76339 28.2989 7.23223 28.7678C7.70107 29.2366 8.33696 29.5 9 29.5H25C25.663 29.5 26.2989 29.2366 26.7678 28.7678C27.2366 28.2989 27.5 27.663 27.5 27V5C27.5 4.33696 27.2366 3.70107 26.7678 3.23223C26.2989 2.76339 25.663 2.5 25 2.5ZM21 13.5H24.5V18.5H21V13.5ZM24.5 10.5H21V9.5C21 8.83696 20.7366 8.20107 20.2678 7.73223C19.7989 7.26339 19.163 7 18.5 7V5.5H24.5V10.5ZM9.5 5.5H15.5V7H9.5V5.5ZM5 10H18V22H5V10ZM9.5 25H15.5V26.5H9.5V25ZM18.5 26.5V25C19.163 25 19.7989 24.7366 20.2678 24.2678C20.7366 23.7989 21 23.163 21 22.5V21.5H24.5V26.5H18.5ZM8.04 20.1525C7.73435 19.8979 7.54236 19.5323 7.50626 19.1361C7.47016 18.74 7.5929 18.3457 7.8475 18.04L9.5475 16L7.8475 13.96C7.71957 13.8089 7.62282 13.6339 7.56283 13.4453C7.50284 13.2566 7.4808 13.0579 7.49798 12.8606C7.51516 12.6634 7.57122 12.4715 7.66293 12.296C7.75463 12.1206 7.88017 11.965 8.0323 11.8383C8.18442 11.7115 8.36013 11.6162 8.54929 11.5577C8.73845 11.4992 8.93732 11.4788 9.13442 11.4975C9.33152 11.5163 9.52296 11.5739 9.69769 11.667C9.87243 11.7601 10.027 11.8869 10.1525 12.04L11.5 13.6562L12.8475 12.04C13.1032 11.738 13.4679 11.5492 13.8622 11.5149C14.2564 11.4805 14.6483 11.6034 14.9524 11.8567C15.2564 12.11 15.4481 12.4732 15.4856 12.8671C15.5231 13.2611 15.4033 13.6539 15.1525 13.96L13.4525 16L15.1525 18.04C15.2804 18.1911 15.3772 18.3661 15.4372 18.5547C15.4972 18.7434 15.5192 18.9421 15.502 19.1394C15.4848 19.3366 15.4288 19.5285 15.3371 19.704C15.2454 19.8794 15.1198 20.035 14.9677 20.1617C14.8156 20.2885 14.6399 20.3838 14.4507 20.4423C14.2615 20.5008 14.0627 20.5212 13.8656 20.5025C13.6685 20.4837 13.477 20.4261 13.3023 20.333C13.1276 20.2399 12.973 20.1131 12.8475 19.96L11.5 18.3438L10.1525 19.96C9.89788 20.2656 9.53228 20.4576 9.13612 20.4937C8.73995 20.5298 8.34567 20.4071 8.04 20.1525Z" fill="black"/>
</svg>
