<svg width="32" height="32" viewBox="0 0 32 32" fill="none" xmlns="http://www.w3.org/2000/svg">
<path d="M27.4075 9.99998H26.4613C26.8149 9.39285 27.0009 8.70262 27 7.99998C27.0004 7.32306 26.8289 6.65711 26.5017 6.06451C26.1745 5.47191 25.7023 4.97203 25.1293 4.61169C24.5562 4.25135 23.9011 4.04233 23.2253 4.00421C22.5494 3.96609 21.8749 4.10012 21.265 4.39373C20.651 3.39145 19.7036 2.6375 18.5891 2.26427C17.4745 1.89104 16.2641 1.92239 15.1704 2.35281C14.0766 2.78323 13.1695 3.58521 12.6082 4.61793C12.047 5.65065 11.8675 6.84808 12.1012 7.99998H5C4.46957 7.99998 3.96086 8.2107 3.58579 8.58577C3.21071 8.96084 3 9.46955 3 9.99998V22C3 22.5304 3.21071 23.0391 3.58579 23.4142C3.96086 23.7893 4.46957 24 5 24H9.58375C10.1824 25.4781 11.2091 26.7436 12.5321 27.6339C13.8552 28.5243 15.4141 28.9989 17.0088 28.9969C18.6036 28.9949 20.1613 28.5163 21.4821 27.6226C22.8028 26.7289 23.8264 25.4608 24.4212 23.9812C25.6698 23.8757 26.8332 23.3052 27.6811 22.3827C28.5291 21.4602 28.9998 20.253 29 19V11.5925C28.9993 11.1703 28.8313 10.7657 28.5328 10.4671C28.2343 10.1686 27.8297 10.0006 27.4075 9.99998ZM17 3.99998C17.6206 3.99994 18.226 4.19238 18.7327 4.55079C19.2393 4.9092 19.6224 5.41592 19.829 6.00114C20.0357 6.58636 20.0557 7.22126 19.8864 7.81835C19.7171 8.41543 19.3668 8.94532 18.8838 9.33498C18.7463 8.94503 18.4913 8.60728 18.154 8.36821C17.8166 8.12913 17.4135 8.00049 17 7.99998H14.1725C14.0125 7.54756 13.9635 7.06337 14.0293 6.58805C14.0952 6.11274 14.2742 5.66016 14.5512 5.26831C14.8282 4.87646 15.1951 4.55677 15.6212 4.33608C16.0473 4.11539 16.5201 4.00013 17 3.99998ZM11 20C10.7348 20 10.4804 19.8946 10.2929 19.7071C10.1054 19.5196 10 19.2652 10 19V14H9C8.73478 14 8.48043 13.8946 8.29289 13.7071C8.10536 13.5196 8 13.2652 8 13C8 12.7348 8.10536 12.4804 8.29289 12.2929C8.48043 12.1053 8.73478 12 9 12H13C13.2652 12 13.5196 12.1053 13.7071 12.2929C13.8946 12.4804 14 12.7348 14 13C14 13.2652 13.8946 13.5196 13.7071 13.7071C13.5196 13.8946 13.2652 14 13 14H12V19C12 19.2652 11.8946 19.5196 11.7071 19.7071C11.5196 19.8946 11.2652 20 11 20ZM23 21C22.9996 22.3204 22.5636 23.6038 21.7596 24.6513C20.9556 25.6987 19.8285 26.4517 18.5531 26.7935C17.2776 27.1353 15.9251 27.0468 14.705 26.5417C13.485 26.0367 12.4657 25.1433 11.805 24H17C17.5304 24 18.0391 23.7893 18.4142 23.4142C18.7893 23.0391 19 22.5304 19 22V12H23V21ZM23 9.99998H21C21.3938 9.47596 21.6804 8.87945 21.8434 8.24456C22.0064 7.60968 22.0426 6.94888 21.95 6.29998C22.2131 6.13691 22.5105 6.03715 22.8188 6.00854C23.127 5.97994 23.4377 6.02327 23.7263 6.13514C24.0149 6.24701 24.2737 6.42435 24.4821 6.6532C24.6906 6.88206 24.8431 7.15618 24.9276 7.45398C25.0121 7.75178 25.0263 8.06513 24.9692 8.36937C24.912 8.6736 24.785 8.96042 24.5981 9.20722C24.4113 9.45403 24.1697 9.65409 23.8923 9.79165C23.615 9.92922 23.3096 10.0005 23 9.99998ZM27 19C27 19.6285 26.8025 20.2411 26.4356 20.7513C26.0687 21.2615 25.5508 21.6437 24.955 21.8437C24.9851 21.5635 25.0002 21.2818 25 21V12H27V19Z" fill="black"/>
</svg>
