<svg width="32" height="32" viewBox="0 0 32 32" fill="none" xmlns="http://www.w3.org/2000/svg">
<path d="M25 2.5H9C8.33696 2.5 7.70107 2.76339 7.23223 3.23223C6.76339 3.70107 6.5 4.33696 6.5 5V7H4.5C3.83696 7 3.20107 7.26339 2.73223 7.73223C2.26339 8.20107 2 8.83696 2 9.5V22.5C2 23.163 2.26339 23.7989 2.73223 24.2678C3.20107 24.7366 3.83696 25 4.5 25H6.5V27C6.5 27.663 6.76339 28.2989 7.23223 28.7678C7.70107 29.2366 8.33696 29.5 9 29.5H25C25.663 29.5 26.2989 29.2366 26.7678 28.7678C27.2366 28.2989 27.5 27.663 27.5 27V5C27.5 4.33696 27.2366 3.70107 26.7678 3.23223C26.2989 2.76339 25.663 2.5 25 2.5ZM21 13.5H24.5V18.5H21V13.5ZM9.5 5.5H24.5V10.5H21V9.5C21 8.83696 20.7366 8.20107 20.2678 7.73223C19.7989 7.26339 19.163 7 18.5 7H9.5V5.5ZM5 10H18V22H5V10ZM9.5 26.5V25H18.5C19.163 25 19.7989 24.7366 20.2678 24.2678C20.7366 23.7989 21 23.163 21 22.5V21.5H24.5V26.5H9.5ZM8.045 19.3638L6.545 13.3638C6.4934 13.1714 6.48061 12.9707 6.50739 12.7734C6.53416 12.576 6.59997 12.386 6.70096 12.2144C6.80195 12.0427 6.93611 11.8929 7.09561 11.7737C7.25511 11.6544 7.43676 11.5681 7.62996 11.5198C7.82316 11.4715 8.02405 11.4622 8.2209 11.4924C8.41775 11.5225 8.60662 11.5916 8.7765 11.6955C8.94638 11.7994 9.09387 11.9361 9.21037 12.0976C9.32686 12.2591 9.41002 12.4423 9.455 12.6362L9.97125 14.7025L10.1587 14.3275C10.2834 14.0785 10.4749 13.8692 10.7118 13.7229C10.9487 13.5766 11.2216 13.4991 11.5 13.4991C11.7784 13.4991 12.0513 13.5766 12.2882 13.7229C12.5251 13.8692 12.7166 14.0785 12.8413 14.3275L13.0288 14.7025L13.545 12.6362C13.6469 12.2563 13.894 11.9316 14.2331 11.7321C14.5721 11.5326 14.9759 11.4743 15.3576 11.5697C15.7392 11.6651 16.0681 11.9066 16.2733 12.2422C16.4786 12.5778 16.5439 12.9805 16.455 13.3638L14.955 19.3638C14.8803 19.6606 14.7165 19.9275 14.4857 20.1286C14.2549 20.3297 13.9681 20.4554 13.6637 20.4888C13.6094 20.4956 13.5548 20.4993 13.5 20.5C13.2215 20.5 12.9486 20.4224 12.7117 20.2761C12.4748 20.1297 12.2834 19.9203 12.1587 19.6712L11.5 18.3538L10.8413 19.6712C10.704 19.9452 10.4863 20.1705 10.2172 20.3169C9.94811 20.4634 9.64064 20.524 9.33613 20.4905C9.03161 20.457 8.74465 20.3311 8.51383 20.1296C8.28301 19.9282 8.1194 19.6609 8.045 19.3638Z" fill="black"/>
</svg>
