<svg width="32" height="32" viewBox="0 0 32 32" fill="none" xmlns="http://www.w3.org/2000/svg">
<path d="M16 21.5C17.7233 21.498 19.3754 20.8126 20.594 19.594C21.8126 18.3754 22.498 16.7233 22.5 15V8C22.5 6.27609 21.8152 4.62279 20.5962 3.40381C19.3772 2.18482 17.7239 1.5 16 1.5C14.2761 1.5 12.6228 2.18482 11.4038 3.40381C10.1848 4.62279 9.5 6.27609 9.5 8V15C9.50199 16.7233 10.1874 18.3754 11.406 19.594C12.6246 20.8126 14.2767 21.498 16 21.5ZM12.5 8C12.5 7.07174 12.8687 6.1815 13.5251 5.52513C14.1815 4.86875 15.0717 4.5 16 4.5C16.9283 4.5 17.8185 4.86875 18.4749 5.52513C19.1313 6.1815 19.5 7.07174 19.5 8V15C19.5 15.9283 19.1313 16.8185 18.4749 17.4749C17.8185 18.1313 16.9283 18.5 16 18.5C15.0717 18.5 14.1815 18.1313 13.5251 17.4749C12.8687 16.8185 12.5 15.9283 12.5 15V8ZM17.5 26.4025V29C17.5 29.3978 17.342 29.7794 17.0607 30.0607C16.7794 30.342 16.3978 30.5 16 30.5C15.6022 30.5 15.2206 30.342 14.9393 30.0607C14.658 29.7794 14.5 29.3978 14.5 29V26.4025C11.735 26.035 9.1974 24.6766 7.35828 22.5795C5.51916 20.4825 4.50353 17.7893 4.5 15C4.5 14.6022 4.65804 14.2206 4.93934 13.9393C5.22064 13.658 5.60218 13.5 6 13.5C6.39782 13.5 6.77936 13.658 7.06066 13.9393C7.34196 14.2206 7.5 14.6022 7.5 15C7.5 17.2543 8.39553 19.4163 9.98959 21.0104C11.5837 22.6045 13.7457 23.5 16 23.5C18.2543 23.5 20.4163 22.6045 22.0104 21.0104C23.6045 19.4163 24.5 17.2543 24.5 15C24.5 14.6022 24.658 14.2206 24.9393 13.9393C25.2206 13.658 25.6022 13.5 26 13.5C26.3978 13.5 26.7794 13.658 27.0607 13.9393C27.342 14.2206 27.5 14.6022 27.5 15C27.4965 17.7893 26.4808 20.4825 24.6417 22.5795C22.8026 24.6766 20.265 26.035 17.5 26.4025Z" fill="black"/>
</svg>
