<svg width="32" height="32" viewBox="0 0 32 32" fill="none" xmlns="http://www.w3.org/2000/svg">
<path d="M11 11.5C10.11 11.5 9.23996 11.7639 8.49993 12.2584C7.75991 12.7529 7.18314 13.4557 6.84254 14.2779C6.50195 15.1002 6.41283 16.005 6.58647 16.8779C6.7601 17.7508 7.18868 18.5526 7.81802 19.182C8.44736 19.8113 9.24918 20.2399 10.1221 20.4135C10.995 20.5872 11.8998 20.4981 12.7221 20.1575C13.5443 19.8169 14.2471 19.2401 14.7416 18.5001C15.2361 17.76 15.5 16.89 15.5 16C15.5 14.8065 15.0259 13.6619 14.182 12.818C13.3381 11.9741 12.1935 11.5 11 11.5ZM11 17.5C10.7033 17.5 10.4133 17.412 10.1666 17.2472C9.91997 17.0824 9.72771 16.8481 9.61418 16.574C9.50065 16.2999 9.47094 15.9983 9.52882 15.7074C9.5867 15.4164 9.72956 15.1491 9.93934 14.9393C10.1491 14.7296 10.4164 14.5867 10.7074 14.5288C10.9983 14.4709 11.2999 14.5006 11.574 14.6142C11.8481 14.7277 12.0824 14.92 12.2472 15.1666C12.412 15.4133 12.5 15.7033 12.5 16C12.5 16.3978 12.342 16.7794 12.0607 17.0607C11.7794 17.342 11.3978 17.5 11 17.5ZM27 12.5H26.5V5C26.5 4.33696 26.2366 3.70107 25.7678 3.23223C25.2989 2.76339 24.663 2.5 24 2.5H14C13.337 2.5 12.7011 2.76339 12.2322 3.23223C11.7634 3.70107 11.5 4.33696 11.5 5V7H4.5C3.83696 7 3.20107 7.26339 2.73223 7.73223C2.26339 8.20107 2 8.83696 2 9.5V22.5C2 23.163 2.26339 23.7989 2.73223 24.2678C3.20107 24.7366 3.83696 25 4.5 25H8.5V27C8.5 27.663 8.76339 28.2989 9.23223 28.7678C9.70107 29.2366 10.337 29.5 11 29.5H27C27.663 29.5 28.2989 29.2366 28.7678 28.7678C29.2366 28.2989 29.5 27.663 29.5 27V15C29.5 14.337 29.2366 13.7011 28.7678 13.2322C28.2989 12.7634 27.663 12.5 27 12.5ZM21.4438 21L26.5 17.0675V24.9325L21.4438 21ZM14.5 5.5H23.5V15.6L20 18.3225V9.5C20 8.83696 19.7366 8.20107 19.2678 7.73223C18.7989 7.26339 18.163 7 17.5 7H14.5V5.5ZM5 10H17V22H5V10ZM11.5 25H17.5C17.9843 24.9996 18.458 24.8586 18.8636 24.5941C19.2693 24.3296 19.5894 23.953 19.785 23.51L23.625 26.5H11.5V25Z" fill="black"/>
</svg>
