<svg width="32" height="32" viewBox="0 0 32 32" fill="none" xmlns="http://www.w3.org/2000/svg">
<path opacity="0.08" d="M18 10V22C18 22.2652 17.8946 22.5196 17.7071 22.7071C17.5196 22.8946 17.2652 23 17 23H5C4.73478 23 4.48043 22.8946 4.29289 22.7071C4.10536 22.5196 4 22.2652 4 22V10C4 9.73478 4.10536 9.48043 4.29289 9.29289C4.48043 9.10536 4.73478 9 5 9H17C17.2652 9 17.5196 9.10536 17.7071 9.29289C17.8946 9.48043 18 9.73478 18 10Z" fill="black"/>
<path d="M10 19V14H9C8.73478 14 8.48043 13.8946 8.29289 13.7071C8.10536 13.5196 8 13.2652 8 13C8 12.7348 8.10536 12.4804 8.29289 12.2929C8.48043 12.1053 8.73478 12 9 12H13C13.2652 12 13.5196 12.1053 13.7071 12.2929C13.8946 12.4804 14 12.7348 14 13C14 13.2652 13.8946 13.5196 13.7071 13.7071C13.5196 13.8946 13.2652 14 13 14H12V19C12 19.2652 11.8946 19.5196 11.7071 19.7071C11.5196 19.8946 11.2652 20 11 20C10.7348 20 10.4804 19.8946 10.2929 19.7071C10.1054 19.5196 10 19.2652 10 19ZM29 11.5925V19C28.9998 20.253 28.5291 21.4602 27.6811 22.3827C26.8332 23.3052 25.6698 23.8757 24.4212 23.9812C23.8264 25.4608 22.8028 26.7289 21.4821 27.6226C20.1613 28.5163 18.6036 28.9949 17.0088 28.9969C15.4141 28.9989 13.8552 28.5243 12.5321 27.6339C11.2091 26.7436 10.1824 25.4781 9.58375 24H5C4.46957 24 3.96086 23.7893 3.58579 23.4142C3.21071 23.0391 3 22.5304 3 22V9.99998C3 9.46955 3.21071 8.96084 3.58579 8.58577C3.96086 8.2107 4.46957 7.99998 5 7.99998H12.1012C11.8675 6.84808 12.047 5.65065 12.6082 4.61793C13.1695 3.58521 14.0766 2.78323 15.1704 2.35281C16.2641 1.92239 17.4745 1.89104 18.5891 2.26427C19.7036 2.6375 20.651 3.39145 21.265 4.39373C22.0354 4.02345 22.9042 3.90971 23.744 4.06917C24.5837 4.22864 25.3503 4.65292 25.9314 5.27983C26.5125 5.90674 26.8774 6.7033 26.9728 7.55275C27.0681 8.40219 26.8889 9.25985 26.4613 9.99998H27.4075C27.8297 10.0006 28.2343 10.1686 28.5328 10.4671C28.8313 10.7657 28.9993 11.1703 29 11.5925ZM21.95 6.29998C22.0426 6.94888 22.0064 7.60968 21.8434 8.24456C21.6804 8.87945 21.3938 9.47596 21 9.99998H23C23.3096 10.0005 23.615 9.92922 23.8923 9.79165C24.1697 9.65409 24.4113 9.45403 24.5981 9.20722C24.785 8.96042 24.912 8.6736 24.9692 8.36937C25.0263 8.06513 25.0121 7.75178 24.9276 7.45398C24.8431 7.15618 24.6906 6.88206 24.4821 6.6532C24.2737 6.42435 24.0149 6.24701 23.7263 6.13514C23.4377 6.02327 23.127 5.97994 22.8188 6.00854C22.5105 6.03715 22.2131 6.13691 21.95 6.29998ZM14.1725 7.99998H17C17.4135 8.00049 17.8166 8.12913 18.154 8.36821C18.4913 8.60728 18.7463 8.94503 18.8838 9.33498C19.312 8.98967 19.6371 8.53323 19.8235 8.01558C20.0098 7.49794 20.0502 6.93902 19.9402 6.39996C19.8303 5.8609 19.5742 5.36245 19.2 4.95913C18.8259 4.55581 18.348 4.26316 17.8187 4.11317C17.2893 3.96318 16.729 3.96163 16.1988 4.10869C15.6687 4.25576 15.1892 4.54577 14.8128 4.94702C14.4364 5.34827 14.1776 5.84529 14.0646 6.38374C13.9517 6.92218 13.989 7.48131 14.1725 7.99998ZM5 22H17V9.99998H5V22ZM23 21V12H19V22C19 22.5304 18.7893 23.0391 18.4142 23.4142C18.0391 23.7893 17.5304 24 17 24H11.805C12.4657 25.1433 13.485 26.0367 14.705 26.5417C15.9251 27.0468 17.2776 27.1353 18.5531 26.7935C19.8285 26.4517 20.9556 25.6987 21.7596 24.6513C22.5636 23.6038 22.9996 22.3204 23 21ZM27 12H25V21C25.0002 21.2818 24.9851 21.5635 24.955 21.8437C25.5508 21.6437 26.0687 21.2615 26.4356 20.7513C26.8025 20.2411 27 19.6285 27 19V12Z" fill="black"/>
</svg>
