<svg width="32" height="32" viewBox="0 0 32 32" fill="none" xmlns="http://www.w3.org/2000/svg">
<path d="M14.5 13C14.5 13.3978 14.342 13.7793 14.0607 14.0606C13.7794 14.342 13.3978 14.5 13 14.5H12.5V19C12.5 19.3978 12.342 19.7793 12.0607 20.0606C11.7794 20.342 11.3978 20.5 11 20.5C10.6022 20.5 10.2206 20.342 9.93934 20.0606C9.65804 19.7793 9.5 19.3978 9.5 19V14.5H9C8.60218 14.5 8.22064 14.342 7.93934 14.0606C7.65804 13.7793 7.5 13.3978 7.5 13C7.5 12.6022 7.65804 12.2206 7.93934 11.9393C8.22064 11.658 8.60218 11.5 9 11.5H13C13.3978 11.5 13.7794 11.658 14.0607 11.9393C14.342 12.2206 14.5 12.6022 14.5 13ZM30 11.5925V19C30.0015 20.4164 29.4564 21.7787 28.4785 22.8033C27.5005 23.8278 26.1649 24.4356 24.75 24.5C24.0966 25.9481 23.0505 27.1841 21.7302 28.0678C20.41 28.9515 18.8685 29.4475 17.2807 29.4995C15.6929 29.5516 14.1223 29.1576 12.747 28.3623C11.3717 27.567 10.2468 26.4022 9.5 25H4.5C3.83696 25 3.20107 24.7366 2.73223 24.2678C2.26339 23.7989 2 23.163 2 22.5V9.49999C2 8.83695 2.26339 8.20106 2.73223 7.73222C3.20107 7.26338 3.83696 6.99999 4.5 6.99999H11.5C11.5007 5.82176 11.8798 4.6749 12.5813 3.72832C13.2829 2.78174 14.2699 2.08548 15.397 1.74208C16.5241 1.39868 17.7316 1.4263 18.8418 1.82086C19.952 2.21542 20.9062 2.95608 21.5637 3.93374C22.3673 3.55034 23.2665 3.41392 24.1476 3.54173C25.0287 3.66954 25.8521 4.05583 26.5135 4.65174C27.175 5.24765 27.6449 6.02638 27.8636 6.8894C28.0824 7.75242 28.0402 8.66093 27.7425 9.49999H27.9075C28.4623 9.50065 28.9941 9.72132 29.3864 10.1136C29.7787 10.5059 29.9993 11.0377 30 11.5925ZM22.5 6.88624C22.5 6.92374 22.5 6.96124 22.5 6.99999C22.5008 7.86864 22.2965 8.72521 21.9037 9.49999H23.5C23.7436 9.50076 23.9838 9.44219 24.1997 9.32933C24.4156 9.21647 24.6007 9.05273 24.7391 8.85225C24.8775 8.65178 24.965 8.42061 24.9941 8.17872C25.0231 7.93684 24.9928 7.69153 24.9057 7.464C24.8187 7.23647 24.6775 7.03356 24.4944 6.87282C24.3114 6.71209 24.0919 6.59836 23.855 6.54147C23.6182 6.48458 23.371 6.48624 23.1349 6.54631C22.8988 6.60638 22.6809 6.72306 22.5 6.88624ZM14.5 6.99999H17.5C17.8508 7.00016 18.1976 7.07441 18.5177 7.21787C18.8378 7.36133 19.1239 7.57078 19.3575 7.83249C19.4513 7.56493 19.4995 7.28351 19.5 6.99999C19.5 6.33695 19.2366 5.70106 18.7678 5.23222C18.2989 4.76338 17.663 4.49999 17 4.49999C16.337 4.49999 15.7011 4.76338 15.2322 5.23222C14.7634 5.70106 14.5 6.33695 14.5 6.99999ZM5 22H17V9.99999H5V22ZM22.5 21V12.5H20V22.5C20 23.163 19.7366 23.7989 19.2678 24.2678C18.7989 24.7366 18.163 25 17.5 25H13.2325C14.0141 25.7348 14.9935 26.2251 16.0501 26.4104C17.1068 26.5956 18.1946 26.4678 19.1795 26.0427C20.1645 25.6176 21.0036 24.9137 21.5936 24.0177C22.1836 23.1217 22.4986 22.0728 22.5 21ZM27 12.5H25.5V21C25.5 21.0987 25.5 21.1962 25.4925 21.2937C25.9401 21.1001 26.3213 20.7798 26.5892 20.3723C26.857 19.9647 26.9998 19.4877 27 19V12.5Z" fill="black"/>
</svg>
