<svg width="32" height="32" viewBox="0 0 32 32" fill="none" xmlns="http://www.w3.org/2000/svg">
<path d="M26 3.5H6C5.33696 3.5 4.70107 3.76339 4.23223 4.23223C3.76339 4.70107 3.5 5.33696 3.5 6V26C3.5 26.663 3.76339 27.2989 4.23223 27.7678C4.70107 28.2366 5.33696 28.5 6 28.5H26C26.663 28.5 27.2989 28.2366 27.7678 27.7678C28.2366 27.2989 28.5 26.663 28.5 26V6C28.5 5.33696 28.2366 4.70107 27.7678 4.23223C27.2989 3.76339 26.663 3.5 26 3.5ZM25.5 25.5H6.5V6.5H25.5V25.5ZM9.5 16C9.5 15.6022 9.65804 15.2206 9.93934 14.9393C10.2206 14.658 10.6022 14.5 11 14.5H21C21.3978 14.5 21.7794 14.658 22.0607 14.9393C22.342 15.2206 22.5 15.6022 22.5 16C22.5 16.3978 22.342 16.7794 22.0607 17.0607C21.7794 17.342 21.3978 17.5 21 17.5H11C10.6022 17.5 10.2206 17.342 9.93934 17.0607C9.65804 16.7794 9.5 16.3978 9.5 16Z" fill="black"/>
</svg>
