<svg width="32" height="32" viewBox="0 0 32 32" fill="none" xmlns="http://www.w3.org/2000/svg">
<path d="M21 15C21 15.2412 20.9418 15.4788 20.8304 15.6927C20.7189 15.9066 20.5576 16.0905 20.36 16.2288L15.36 19.7288C15.1352 19.886 14.8716 19.9787 14.5978 19.9966C14.3241 20.0145 14.0506 19.9569 13.8073 19.8302C13.5639 19.7035 13.36 19.5125 13.2177 19.278C13.0753 19.0434 13 18.7744 13 18.5V11.5C13 11.2256 13.0753 10.9566 13.2177 10.722C13.36 10.4875 13.5639 10.2965 13.8073 10.1698C14.0506 10.0431 14.3241 9.98553 14.5978 10.0034C14.8716 10.0213 15.1352 10.114 15.36 10.2712L20.36 13.7712C20.5576 13.9095 20.7189 14.0934 20.8304 14.3073C20.9418 14.5212 21 14.7588 21 15ZM29.5 8V22C29.5 22.4596 29.4095 22.9148 29.2336 23.3394C29.0577 23.764 28.7999 24.1499 28.4749 24.4749C28.1499 24.7999 27.764 25.0577 27.3394 25.2336C26.9148 25.4095 26.4596 25.5 26 25.5H6C5.07174 25.5 4.1815 25.1313 3.52513 24.4749C2.86875 23.8185 2.5 22.9283 2.5 22V8C2.5 7.07174 2.86875 6.1815 3.52513 5.52513C4.1815 4.86875 5.07174 4.5 6 4.5H26C26.4596 4.5 26.9148 4.59053 27.3394 4.76642C27.764 4.94231 28.1499 5.20012 28.4749 5.52513C28.7999 5.85013 29.0577 6.23597 29.2336 6.66061C29.4095 7.08525 29.5 7.54037 29.5 8ZM26.5 8C26.5 7.86739 26.4473 7.74021 26.3536 7.64645C26.2598 7.55268 26.1326 7.5 26 7.5H6C5.86739 7.5 5.74021 7.55268 5.64645 7.64645C5.55268 7.74021 5.5 7.86739 5.5 8V22C5.5 22.1326 5.55268 22.2598 5.64645 22.3536C5.74021 22.4473 5.86739 22.5 6 22.5H26C26.1326 22.5 26.2598 22.4473 26.3536 22.3536C26.4473 22.2598 26.5 22.1326 26.5 22V8ZM20 27H12C11.6022 27 11.2206 27.158 10.9393 27.4393C10.658 27.7206 10.5 28.1022 10.5 28.5C10.5 28.8978 10.658 29.2794 10.9393 29.5607C11.2206 29.842 11.6022 30 12 30H20C20.3978 30 20.7794 29.842 21.0607 29.5607C21.342 29.2794 21.5 28.8978 21.5 28.5C21.5 28.1022 21.342 27.7206 21.0607 27.4393C20.7794 27.158 20.3978 27 20 27Z" fill="black"/>
</svg>
