<svg width="32" height="32" viewBox="0 0 32 32" fill="none" xmlns="http://www.w3.org/2000/svg">
<path d="M26 4.5H6C5.07174 4.5 4.1815 4.86875 3.52513 5.52513C2.86875 6.1815 2.5 7.07174 2.5 8V22C2.5 22.9283 2.86875 23.8185 3.52513 24.4749C4.1815 25.1313 5.07174 25.5 6 25.5H26C26.4596 25.5 26.9148 25.4095 27.3394 25.2336C27.764 25.0577 28.1499 24.7999 28.4749 24.4749C28.7999 24.1499 29.0577 23.764 29.2336 23.3394C29.4095 22.9148 29.5 22.4596 29.5 22V8C29.5 7.54037 29.4095 7.08525 29.2336 6.66061C29.0577 6.23597 28.7999 5.85013 28.4749 5.52513C28.1499 5.20012 27.764 4.94231 27.3394 4.76642C26.9148 4.59053 26.4596 4.5 26 4.5ZM26.5 22C26.5 22.1326 26.4473 22.2598 26.3536 22.3536C26.2598 22.4473 26.1326 22.5 26 22.5H6C5.86739 22.5 5.74021 22.4473 5.64645 22.3536C5.55268 22.2598 5.5 22.1326 5.5 22V8C5.5 7.86739 5.55268 7.74021 5.64645 7.64645C5.74021 7.55268 5.86739 7.5 6 7.5H26C26.1326 7.5 26.2598 7.55268 26.3536 7.64645C26.4473 7.74021 26.5 7.86739 26.5 8V22ZM21.5 28.5C21.5 28.8978 21.342 29.2794 21.0607 29.5607C20.7794 29.842 20.3978 30 20 30H12C11.6022 30 11.2206 29.842 10.9393 29.5607C10.658 29.2794 10.5 28.8978 10.5 28.5C10.5 28.1022 10.658 27.7206 10.9393 27.4393C11.2206 27.158 11.6022 27 12 27H20C20.3978 27 20.7794 27.158 21.0607 27.4393C21.342 27.7206 21.5 28.1022 21.5 28.5Z" fill="black"/>
</svg>
