<svg width="32" height="32" viewBox="0 0 32 32" fill="none" xmlns="http://www.w3.org/2000/svg">
<path d="M29.0163 17.955C28.9199 17.8588 28.7992 17.7906 28.6671 17.7578C28.535 17.725 28.3964 17.7288 28.2663 17.7687C26.3162 18.3581 24.2428 18.4074 22.267 17.9112C20.2912 17.4151 18.487 16.3922 17.0467 14.9515C15.6064 13.5109 14.584 11.7064 14.0884 9.73043C13.5928 7.75447 13.6426 5.68108 14.2325 3.7312C14.2719 3.60117 14.2753 3.46288 14.2422 3.3311C14.2091 3.19932 14.1409 3.079 14.0447 2.98299C13.9486 2.88698 13.8282 2.81889 13.6964 2.78599C13.5645 2.75309 13.4262 2.75662 13.2963 2.7962C10.7107 3.58944 8.44105 5.17763 6.81001 7.33495C4.96109 9.79007 4.06123 12.8304 4.27608 15.8964C4.49093 18.9623 5.80602 21.8474 7.97928 24.0207C10.1525 26.1939 13.0377 27.509 16.1036 27.7239C19.1695 27.9387 22.2099 27.0389 24.665 25.19C26.8223 23.5589 28.4105 21.2893 29.2038 18.7037C29.2433 18.5736 29.2468 18.4352 29.2137 18.3034C29.1807 18.1715 29.1124 18.051 29.0163 17.955ZM23.7663 23.9912C21.5998 25.616 18.92 26.4049 16.2188 26.2129C13.5175 26.0209 10.9762 24.861 9.06131 22.9462C7.14644 21.0313 5.98654 18.4899 5.79457 15.7887C5.6026 13.0875 6.39144 10.4076 8.01626 8.2412C9.17358 6.70673 10.7012 5.4909 12.4563 4.70745C12.0868 6.73698 12.2149 8.82584 12.8298 10.795C13.4447 12.7641 14.5279 14.5547 15.9865 16.0134C17.4452 17.4721 19.2359 18.5553 21.205 19.1702C23.1741 19.785 25.263 19.9132 27.2925 19.5437C26.5112 21.3011 25.2966 22.8313 23.7625 23.9912H23.7663Z" fill="black"/>
</svg>
