<svg width="32" height="32" viewBox="0 0 32 32" fill="none" xmlns="http://www.w3.org/2000/svg">
<path opacity="0.08" d="M28.4864 18.4863C27.8833 20.469 26.7771 22.2618 25.2754 23.69C23.7737 25.1182 21.9276 26.1332 19.9172 26.636C17.9067 27.1388 15.8002 27.1124 13.803 26.5593C11.8057 26.0062 9.98576 24.9453 8.52033 23.4798C7.05491 22.0144 5.99399 20.1944 5.44088 18.1972C4.88778 16.2 4.86136 14.0935 5.36418 12.083C5.86701 10.0725 6.88195 8.22651 8.31015 6.72479C9.73835 5.22307 11.5311 4.11682 13.5139 3.51379C12.8852 5.59388 12.8326 7.80554 13.3617 9.91315C13.8908 12.0208 14.9817 13.9454 16.5183 15.4819C18.0548 17.0185 19.9794 18.1094 22.087 18.6385C24.1946 19.1675 26.4063 19.1149 28.4864 18.4863Z" fill="black"/>
<path d="M29.1925 17.7788C29.0642 17.6503 28.9034 17.5591 28.7272 17.515C28.551 17.471 28.3662 17.4757 28.1925 17.5288C26.2857 18.1053 24.2583 18.1536 22.3262 17.6686C20.3941 17.1837 18.6298 16.1837 17.2212 14.7751C15.8126 13.3665 14.8126 11.6022 14.3277 9.67013C13.8427 7.73804 13.8911 5.71059 14.4675 3.8038C14.521 3.63006 14.5261 3.44501 14.4823 3.26857C14.4385 3.09213 14.3475 2.93097 14.2189 2.80241C14.0904 2.67386 13.9292 2.58279 13.7528 2.53898C13.5763 2.49518 13.3913 2.5003 13.2175 2.5538C10.5813 3.36136 8.26695 4.97979 6.60378 7.1788C5.14929 9.10987 4.26209 11.4083 4.04186 13.8158C3.82162 16.2233 4.27707 18.6445 5.35704 20.8074C6.437 22.9703 8.0987 24.7893 10.1554 26.0598C12.2122 27.3304 14.5825 28.0023 17 28.0001C19.8205 28.0087 22.5658 27.0919 24.815 25.3901C27.014 23.7269 28.6325 21.4125 29.44 18.7763C29.4929 18.6032 29.4978 18.419 29.4542 18.2433C29.4106 18.0677 29.3202 17.9071 29.1925 17.7788ZM23.6125 23.7926C21.4945 25.3879 18.8714 26.1644 16.2262 25.9792C13.581 25.794 11.0918 24.6595 9.2167 22.7845C7.34162 20.9096 6.20692 18.4205 6.02149 15.7753C5.83606 13.1301 6.61237 10.507 8.20753 8.3888C9.24678 7.01638 10.5904 5.90386 12.1325 5.1388C12.0447 5.75533 12.0004 6.37729 12 7.00005C12.0037 10.4467 13.3745 13.7512 15.8117 16.1884C18.2488 18.6256 21.5533 19.9964 25 20.0001C25.624 19.9999 26.2473 19.9556 26.865 19.8676C26.0993 21.41 24.9859 22.7536 23.6125 23.7926Z" fill="black"/>
</svg>
