<svg width="32" height="32" viewBox="0 0 32 32" fill="none" xmlns="http://www.w3.org/2000/svg">
<path d="M28.84 18.1325C28.7759 18.0682 28.6955 18.0226 28.6074 18.0006C28.5193 17.9786 28.4269 17.981 28.34 18.0075C26.3466 18.61 24.2272 18.6604 22.2074 18.1533C20.1876 17.6463 18.3433 16.6007 16.8708 15.1282C15.3984 13.6556 14.353 11.8112 13.8462 9.79135C13.3393 7.77154 13.3899 5.65206 13.9925 3.65874C14.0193 3.57186 14.0218 3.47934 13.9999 3.39112C13.978 3.3029 13.9325 3.22232 13.8682 3.15804C13.8039 3.09377 13.7234 3.04823 13.6351 3.02633C13.5469 3.00443 13.4544 3.00699 13.3675 3.03374C10.8327 3.81148 8.60796 5.36917 7.01003 7.48499C5.20466 9.89214 4.32817 12.8697 4.54147 15.8711C4.75477 18.8725 6.04355 21.6962 8.17119 23.8238C10.2988 25.9515 13.1225 27.2402 16.1239 27.4535C19.1253 27.6668 22.1029 26.7903 24.51 24.985C26.6251 23.3864 28.1819 21.1612 28.9588 18.6262C28.9849 18.5408 28.9876 18.45 28.9668 18.3632C28.9459 18.2763 28.9021 18.1967 28.84 18.1325ZM23.9125 24.1912C21.6981 25.8578 18.9563 26.6685 16.1916 26.4743C13.427 26.2801 10.8254 25.094 8.86572 23.1343C6.906 21.1746 5.71992 18.573 5.52572 15.8084C5.33152 13.0437 6.14226 10.3019 7.80878 8.08749C9.09199 6.39058 10.8163 5.07835 12.7938 4.29374C12.3411 6.34584 12.4127 8.47891 13.0018 10.4961C13.5909 12.5132 14.6786 14.3495 16.1645 15.8355C17.6505 17.3214 19.4868 18.4091 21.5039 18.9982C23.5211 19.5874 25.6542 19.6589 27.7063 19.2062C26.9217 21.1837 25.6094 22.908 23.9125 24.1912Z" fill="black"/>
</svg>
