<svg width="32" height="32" viewBox="0 0 32 32" fill="none" xmlns="http://www.w3.org/2000/svg">
<path d="M30.5001 12C30.5001 12.3978 30.3421 12.7794 30.0607 13.0607C29.7794 13.342 29.3979 13.5 29.0001 13.5H27.5001V15C27.5001 15.3978 27.3421 15.7794 27.0607 16.0607C26.7794 16.342 26.3979 16.5 26.0001 16.5C25.6023 16.5 25.2207 16.342 24.9394 16.0607C24.6581 15.7794 24.5001 15.3978 24.5001 15V13.5H23.0001C22.6023 13.5 22.2207 13.342 21.9394 13.0607C21.6581 12.7794 21.5001 12.3978 21.5001 12C21.5001 11.6022 21.6581 11.2206 21.9394 10.9393C22.2207 10.658 22.6023 10.5 23.0001 10.5H24.5001V9C24.5001 8.60218 24.6581 8.22064 24.9394 7.93934C25.2207 7.65804 25.6023 7.5 26.0001 7.5C26.3979 7.5 26.7794 7.65804 27.0607 7.93934C27.3421 8.22064 27.5001 8.60218 27.5001 9V10.5H29.0001C29.3979 10.5 29.7794 10.658 30.0607 10.9393C30.3421 11.2206 30.5001 11.6022 30.5001 12ZM18.0001 7.5H18.5001V8C18.5001 8.39782 18.6581 8.77936 18.9394 9.06066C19.2207 9.34196 19.6023 9.5 20.0001 9.5C20.3979 9.5 20.7794 9.34196 21.0607 9.06066C21.3421 8.77936 21.5001 8.39782 21.5001 8V7.5H22.0001C22.3979 7.5 22.7794 7.34196 23.0607 7.06066C23.3421 6.77936 23.5001 6.39782 23.5001 6C23.5001 5.60218 23.3421 5.22064 23.0607 4.93934C22.7794 4.65804 22.3979 4.5 22.0001 4.5H21.5001V4C21.5001 3.60218 21.3421 3.22064 21.0607 2.93934C20.7794 2.65804 20.3979 2.5 20.0001 2.5C19.6023 2.5 19.2207 2.65804 18.9394 2.93934C18.6581 3.22064 18.5001 3.60218 18.5001 4V4.5H18.0001C17.6023 4.5 17.2207 4.65804 16.9394 4.93934C16.6581 5.22064 16.5001 5.60218 16.5001 6C16.5001 6.39782 16.6581 6.77936 16.9394 7.06066C17.2207 7.34196 17.6023 7.5 18.0001 7.5ZM27.4763 18.7975C27.6501 18.9992 27.767 19.2435 27.8151 19.5054C27.8632 19.7673 27.8408 20.0372 27.7501 20.2875C27.0278 22.2588 25.8205 24.0165 24.2398 25.3982C22.659 26.78 20.7557 27.7413 18.7055 28.1935C16.6553 28.6457 14.5242 28.5742 12.5088 27.9856C10.4935 27.397 8.65893 26.3103 7.17435 24.8257C5.68977 23.3412 4.60304 21.5066 4.01445 19.4912C3.42586 17.4759 3.35437 15.3448 3.80657 13.2946C4.25878 11.2443 5.22011 9.34104 6.60185 7.76031C7.9836 6.17957 9.74124 4.97233 11.7126 4.25C11.9625 4.15868 12.2323 4.13549 12.4941 4.18282C12.756 4.23015 13.0005 4.34628 13.2027 4.51931C13.4049 4.69234 13.5574 4.91604 13.6446 5.16746C13.7317 5.41887 13.7505 5.68896 13.6988 5.95C13.5664 6.6253 13.4999 7.31185 13.5001 8C13.5031 10.7839 14.6103 13.4528 16.5788 15.4213C18.5472 17.3898 21.2162 18.497 24.0001 18.5C24.687 18.4999 25.3723 18.4333 26.0463 18.3013C26.3073 18.2498 26.5772 18.2686 26.8285 18.3558C27.0798 18.443 27.3034 18.5954 27.4763 18.7975ZM23.7501 21.5C20.2573 21.4318 16.9266 20.014 14.4563 17.5438C11.9861 15.0735 10.5682 11.7428 10.5001 8.25C9.37591 9.05128 8.43987 10.0879 7.75714 11.2878C7.07441 12.4877 6.66138 13.8219 6.54683 15.1977C6.43227 16.5734 6.61893 17.9576 7.09381 19.2539C7.56869 20.5502 8.32038 21.7274 9.29655 22.7035C10.2727 23.6797 11.4499 24.4314 12.7462 24.9063C14.0424 25.3812 15.4266 25.5678 16.8024 25.4533C18.1781 25.3387 19.5124 24.9257 20.7123 24.2429C21.9121 23.5602 22.9488 22.6242 23.7501 21.5Z" fill="black"/>
</svg>
