<svg width="32" height="32" viewBox="0 0 32 32" fill="none" xmlns="http://www.w3.org/2000/svg">
<path d="M26 4.50008H21.29C20.9626 3.34954 20.269 2.3371 19.3144 1.61623C18.3598 0.895363 17.1962 0.505371 16 0.505371C14.8038 0.505371 13.6402 0.895363 12.6856 1.61623C11.731 2.3371 11.0374 3.34954 10.71 4.50008H6C5.60218 4.50008 5.22064 4.65812 4.93934 4.93942C4.65804 5.22072 4.5 5.60226 4.5 6.00008C4.5 6.39791 4.65804 6.77944 4.93934 7.06074C5.22064 7.34205 5.60218 7.50008 6 7.50008H10.71C10.9278 8.27093 11.3118 8.98474 11.835 9.59133C10.52 10.3305 9.42541 11.4063 8.66359 12.7083C7.90176 14.0103 7.50016 15.4916 7.5 17.0001V25.0001C7.5 25.6631 7.76339 26.299 8.23223 26.7678C8.70107 27.2367 9.33696 27.5001 10 27.5001H12C12 28.5609 12.4214 29.5784 13.1716 30.3285C13.9217 31.0787 14.9391 31.5001 16 31.5001C17.0609 31.5001 18.0783 31.0787 18.8284 30.3285C19.5786 29.5784 20 28.5609 20 27.5001H22C22.663 27.5001 23.2989 27.2367 23.7678 26.7678C24.2366 26.299 24.5 25.6631 24.5 25.0001V17.0001C24.4993 15.4911 24.097 14.0095 23.3343 12.7074C22.5715 11.4054 21.4759 10.3299 20.16 9.59133C20.6832 8.98474 21.0672 8.27093 21.285 7.50008H26C26.3978 7.50008 26.7794 7.34205 27.0607 7.06074C27.342 6.77944 27.5 6.39791 27.5 6.00008C27.5 5.60226 27.342 5.22072 27.0607 4.93942C26.7794 4.65812 26.3978 4.50008 26 4.50008ZM17 27.5001C17 27.7653 16.8946 28.0197 16.7071 28.2072C16.5196 28.3947 16.2652 28.5001 16 28.5001C15.7348 28.5001 15.4804 28.3947 15.2929 28.2072C15.1054 28.0197 15 27.7653 15 27.5001V20.5001C15 20.2349 15.1054 19.9805 15.2929 19.793C15.4804 19.6054 15.7348 19.5001 16 19.5001C16.2652 19.5001 16.5196 19.6054 16.7071 19.793C16.8946 19.9805 17 20.2349 17 20.5001V27.5001ZM21.5 24.5001H20V20.5001C20 19.4392 19.5786 18.4218 18.8284 17.6717C18.0783 16.9215 17.0609 16.5001 16 16.5001C14.9391 16.5001 13.9217 16.9215 13.1716 17.6717C12.4214 18.4218 12 19.4392 12 20.5001V24.5001H10.5V17.0001C10.5 15.5414 11.0795 14.1424 12.1109 13.111C13.1424 12.0795 14.5413 11.5001 16 11.5001C17.4587 11.5001 18.8576 12.0795 19.8891 13.111C20.9205 14.1424 21.5 15.5414 21.5 17.0001V24.5001ZM13.5 6.00008C13.5 5.50563 13.6466 5.02228 13.9213 4.61116C14.196 4.20003 14.5865 3.8796 15.0433 3.69038C15.5001 3.50116 16.0028 3.45165 16.4877 3.54812C16.9727 3.64458 17.4181 3.88268 17.7678 4.23231C18.1174 4.58194 18.3555 5.0274 18.452 5.51235C18.5484 5.99731 18.4989 6.49997 18.3097 6.95679C18.1205 7.4136 17.8 7.80405 17.3889 8.07875C16.9778 8.35346 16.4945 8.50008 16 8.50008C15.337 8.50008 14.7011 8.23669 14.2322 7.76785C13.7634 7.29901 13.5 6.66312 13.5 6.00008Z" fill="black"/>
</svg>
