<svg width="32" height="32" viewBox="0 0 32 32" fill="none" xmlns="http://www.w3.org/2000/svg">
<path d="M27.5 15.5C27.1602 15.4987 26.8217 15.5407 26.4925 15.625C26.3313 10.4325 22.8237 7.835 20.2425 5.9275C18.7725 4.84125 17.5 3.90125 17.5 3C17.5 2.60218 17.342 2.22064 17.0607 1.93934C16.7794 1.65804 16.3978 1.5 16 1.5C15.6022 1.5 15.2206 1.65804 14.9393 1.93934C14.658 2.22064 14.5 2.60218 14.5 3C14.5 3.90125 13.2275 4.84125 11.75 5.93125C9.17125 7.83875 5.66375 10.4312 5.5 15.6287C4.90906 15.4762 4.29103 15.4608 3.69325 15.5839C3.09547 15.707 2.53378 15.9653 2.0512 16.3389C1.56861 16.7126 1.17793 17.1917 0.909057 17.7396C0.640188 18.2875 0.500264 18.8897 0.5 19.5V26C0.5 26.3978 0.658035 26.7794 0.93934 27.0607C1.22064 27.342 1.60218 27.5 2 27.5H30C30.3978 27.5 30.7794 27.342 31.0607 27.0607C31.342 26.7794 31.5 26.3978 31.5 26V19.5C31.5 18.4391 31.0786 17.4217 30.3284 16.6716C29.5783 15.9214 28.5609 15.5 27.5 15.5ZM5.5 24.5H3.5V19.5C3.5 19.2348 3.60536 18.9804 3.79289 18.7929C3.98043 18.6054 4.23478 18.5 4.5 18.5C4.76522 18.5 5.01957 18.6054 5.20711 18.7929C5.39464 18.9804 5.5 19.2348 5.5 19.5V24.5ZM13.5387 8.3425C14.4137 7.7 15.2887 7.0475 16 6.30875C16.71 7.0475 17.5925 7.7 18.4613 8.3425C20.6 9.925 22.8 11.555 23.3625 14.5H8.6375C9.2 11.555 11.4 9.925 13.5387 8.3425ZM23.5 24.5H20.5V21C20.5 20.6022 20.342 20.2206 20.0607 19.9393C19.7794 19.658 19.3978 19.5 19 19.5C18.6022 19.5 18.2206 19.658 17.9393 19.9393C17.658 20.2206 17.5 20.6022 17.5 21V24.5H14.5V21C14.5 20.6022 14.342 20.2206 14.0607 19.9393C13.7794 19.658 13.3978 19.5 13 19.5C12.6022 19.5 12.2206 19.658 11.9393 19.9393C11.658 20.2206 11.5 20.6022 11.5 21V24.5H8.5V17.5H23.5V24.5ZM28.5 24.5H26.5V19.5C26.5 19.2348 26.6054 18.9804 26.7929 18.7929C26.9804 18.6054 27.2348 18.5 27.5 18.5C27.7652 18.5 28.0196 18.6054 28.2071 18.7929C28.3946 18.9804 28.5 19.2348 28.5 19.5V24.5Z" fill="black"/>
</svg>
