<svg width="33" height="32" viewBox="0 0 33 32" fill="none" xmlns="http://www.w3.org/2000/svg">
<path d="M26 14C25.9287 14 25.8587 14 25.7887 14L25.3512 12.525C25.565 12.5063 25.7812 12.495 26 12.495C26.3978 12.495 26.7793 12.337 27.0607 12.0557C27.342 11.7744 27.5 11.3928 27.5 10.995C27.5 10.5972 27.342 10.2156 27.0607 9.93434C26.7793 9.65304 26.3978 9.495 26 9.495H24.4537L23.4387 6.06875C23.3459 5.75948 23.1558 5.48842 22.8965 5.29587C22.6373 5.10332 22.3229 4.99955 22 5H18C17.6022 5 17.2206 5.15804 16.9393 5.43934C16.658 5.72065 16.5 6.10218 16.5 6.5C16.5 6.89783 16.658 7.27936 16.9393 7.56066C17.2206 7.84197 17.6022 8 18 8H20.875L21.32 9.5H19C16.57 9.5 14.585 10.0775 13.26 11.1713C13.042 11.346 12.7795 11.4564 12.5021 11.49C12.2247 11.5235 11.9434 11.479 11.69 11.3613C10.0487 10.6113 4.54124 8.23625 3.98374 8L3.32499 7.72C3.32499 7.72 2.79999 7.5 2.49999 7.5C2.15312 7.49994 1.81695 7.6201 1.54871 7.84003C1.28047 8.05995 1.09674 8.36604 1.0288 8.7062C0.960856 9.04635 1.0129 9.39953 1.17608 9.70563C1.33925 10.0117 1.60347 10.2518 1.92374 10.385C2.13874 10.4763 7.38249 12.6975 10.4487 14.0925C11.0378 14.3593 11.6771 14.497 12.3237 14.4963C13.3615 14.4997 14.3681 14.1422 15.1712 13.485C15.8887 12.8938 17.1187 12.55 18.6575 12.505C17.01 14.1161 15.9382 16.2245 15.6075 18.505H11.81C11.4449 17.091 10.5767 15.8587 9.36798 15.0391C8.15932 14.2195 6.69321 13.8688 5.24449 14.0528C3.79577 14.2368 2.46389 14.9429 1.49851 16.0387C0.533127 17.1344 0.000518799 18.5446 0.000518799 20.005C0.000518799 21.4654 0.533127 22.8756 1.49851 23.9714C2.46389 25.0671 3.79577 25.7732 5.24449 25.9572C6.69321 26.1412 8.15932 25.7905 9.36798 24.9709C10.5767 24.1513 11.4449 22.919 11.81 21.505H17C17.3978 21.505 17.7793 21.347 18.0607 21.0657C18.342 20.7844 18.5 20.4028 18.5 20.005C18.5004 18.6452 18.8706 17.3112 19.5707 16.1456C20.2709 14.9799 21.2748 14.0266 22.475 13.3875L22.9125 14.8625C21.6699 15.6121 20.7411 16.7867 20.2982 18.1687C19.8553 19.5506 19.9282 21.0463 20.5035 22.3785C21.0788 23.7108 22.1174 24.7895 23.4271 25.4147C24.7367 26.0398 26.2285 26.1692 27.6262 25.7787C29.0239 25.3883 30.2327 24.5045 31.0287 23.2911C31.8247 22.0777 32.154 20.617 31.9555 19.1794C31.757 17.7418 31.0443 16.4249 29.9493 15.4726C28.8542 14.5203 27.4512 13.9971 26 14ZM5.99999 21.5H8.59624C8.26604 22.0719 7.75635 22.5189 7.14622 22.7716C6.53609 23.0244 5.85961 23.0687 5.22171 22.8978C4.58381 22.7269 4.02014 22.3502 3.61811 21.8263C3.21608 21.3024 2.99817 20.6604 2.99817 20C2.99817 19.3396 3.21608 18.6976 3.61811 18.1737C4.02014 17.6498 4.58381 17.2731 5.22171 17.1022C5.85961 16.9313 6.53609 16.9756 7.14622 17.2284C7.75635 17.4811 8.26604 17.9281 8.59624 18.5H5.99999C5.60217 18.5 5.22064 18.658 4.93933 18.9393C4.65803 19.2206 4.49999 19.6022 4.49999 20C4.49999 20.3978 4.65803 20.7794 4.93933 21.0607C5.22064 21.342 5.60217 21.5 5.99999 21.5ZM26 23C25.4139 22.9993 24.8409 22.827 24.3517 22.5043C23.8625 22.1816 23.4785 21.7227 23.2472 21.1842C23.0158 20.6458 22.9473 20.0513 23.05 19.4743C23.1526 18.8974 23.4221 18.3631 23.825 17.9375L24.5612 20.4263C24.6532 20.7365 24.843 21.0086 25.1022 21.2021C25.3615 21.3956 25.6765 21.5001 26 21.5C26.1442 21.4997 26.2877 21.4791 26.4262 21.4388C26.6152 21.3828 26.7913 21.2902 26.9445 21.1662C27.0977 21.0422 27.2249 20.8893 27.319 20.7161C27.413 20.5429 27.472 20.3528 27.4925 20.1568C27.5131 19.9608 27.4948 19.7627 27.4387 19.5738L26.7 17.0838C27.4134 17.256 28.039 17.6837 28.4583 18.2861C28.8776 18.8885 29.0616 19.6236 28.9753 20.3525C28.8891 21.0814 28.5387 21.7533 27.9904 22.2412C27.4421 22.7291 26.7339 22.999 26 23Z" fill="black"/>
</svg>
