<svg width="32" height="32" viewBox="0 0 32 32" fill="none" xmlns="http://www.w3.org/2000/svg">
<path d="M27 15.5C26.6157 15.4999 26.233 15.5491 25.8613 15.6462L24.7812 12.8387C25.4995 12.6145 26.2476 12.5003 27 12.5C27.1326 12.5 27.2598 12.4473 27.3536 12.3536C27.4473 12.2598 27.5 12.1326 27.5 12C27.5 11.8674 27.4473 11.7402 27.3536 11.6464C27.2598 11.5527 27.1326 11.5 27 11.5H24.2663L22.4663 6.82C22.4299 6.72583 22.3659 6.64487 22.2827 6.58775C22.1995 6.53064 22.1009 6.50005 22 6.5H18C17.8674 6.5 17.7402 6.55268 17.6464 6.64645C17.5527 6.74021 17.5 6.86739 17.5 7C17.5 7.13261 17.5527 7.25979 17.6464 7.35355C17.7402 7.44732 17.8674 7.5 18 7.5H21.6562L23.195 11.5H19C16.805 11.5 15.0413 12 13.8963 12.9425C13.5329 13.2367 13.0945 13.4233 12.6307 13.4814C12.1668 13.5395 11.6959 13.4667 11.2713 13.2712C9.6325 12.5212 3.7025 10.1312 3.14625 9.915C2.85375 9.79625 2.155 9.5 2 9.5C1.88405 9.50115 1.7721 9.54257 1.68332 9.61716C1.59454 9.69176 1.53445 9.79489 1.51333 9.90891C1.49221 10.0229 1.51138 10.1407 1.56755 10.2422C1.62372 10.3436 1.7134 10.4224 1.82125 10.465C1.87875 10.4875 7.74875 12.765 10.8638 14.18C11.4586 14.4512 12.1173 14.5511 12.7659 14.4685C13.4144 14.386 14.0271 14.1241 14.535 13.7125C15.4975 12.9187 17.035 12.4987 19.0013 12.4987H23.0112C21.9959 13.0382 21.1004 13.7779 20.379 14.6732C19.6575 15.5684 19.1251 16.6007 18.8138 17.7075C18.6635 18.2267 18.348 18.6826 17.9151 19.0061C17.4821 19.3297 16.9555 19.5031 16.415 19.5H9.47125C9.34346 18.357 8.78287 17.3063 7.9046 16.5637C7.02634 15.8211 5.89707 15.443 4.74873 15.507C3.60038 15.571 2.52012 16.0722 1.72981 16.9078C0.939493 17.7434 0.499115 18.8499 0.499115 20C0.499115 21.1501 0.939493 22.2566 1.72981 23.0922C2.52012 23.9278 3.60038 24.429 4.74873 24.493C5.89707 24.557 7.02634 24.1789 7.9046 23.4363C8.78287 22.6937 9.34346 21.643 9.47125 20.5H16.415C17.1733 20.5022 17.9117 20.2571 18.5182 19.8019C19.1248 19.3467 19.5664 18.7062 19.7763 17.9775C20.0701 16.9344 20.5862 15.9673 21.2892 15.1426C21.9922 14.318 22.8654 13.6552 23.8488 13.2L24.9287 16.0075C23.9524 16.5152 23.1959 17.3631 22.8024 18.3908C22.4088 19.4185 22.4055 20.5548 22.7931 21.5848C23.1807 22.6148 23.9322 23.467 24.9056 23.9804C25.8791 24.4937 27.0068 24.6326 28.0757 24.3707C29.1446 24.1088 30.0804 23.4643 30.7063 22.5591C31.3321 21.6539 31.6045 20.5508 31.4721 19.4583C31.3396 18.3658 30.8114 17.3597 29.9873 16.6303C29.1633 15.901 28.1005 15.4988 27 15.5ZM5 20.5H8.46375C8.33734 21.3758 7.8839 22.1712 7.19467 22.7261C6.50545 23.2811 5.6316 23.5544 4.74901 23.491C3.86641 23.4276 3.04057 23.0323 2.43769 22.3846C1.83481 21.7369 1.49965 20.8849 1.49965 20C1.49965 19.1151 1.83481 18.2631 2.43769 17.6154C3.04057 16.9677 3.86641 16.5724 4.74901 16.509C5.6316 16.4456 6.50545 16.7189 7.19467 17.2739C7.8839 17.8288 8.33734 18.6242 8.46375 19.5H5C4.86739 19.5 4.74022 19.5527 4.64645 19.6464C4.55268 19.7402 4.5 19.8674 4.5 20C4.5 20.1326 4.55268 20.2598 4.64645 20.3536C4.74022 20.4473 4.86739 20.5 5 20.5ZM27 23.5C26.226 23.4995 25.4741 23.2424 24.8617 22.769C24.2494 22.2957 23.8112 21.6327 23.6158 20.8838C23.4204 20.1349 23.4787 19.3424 23.7816 18.6301C24.0845 17.9179 24.615 17.3262 25.29 16.9475L26.54 20.18C26.5759 20.2732 26.639 20.3535 26.721 20.4105C26.8029 20.4675 26.9001 20.4987 27 20.5C27.0616 20.5003 27.1227 20.4889 27.18 20.4662C27.3036 20.4185 27.4032 20.3236 27.4569 20.2024C27.5106 20.0812 27.5139 19.9437 27.4663 19.82L26.2238 16.5875C26.7041 16.478 27.2022 16.4712 27.6854 16.5675C28.1686 16.6638 28.6261 16.861 29.0278 17.1462C29.4295 17.4315 29.7665 17.7984 30.0167 18.2228C30.2669 18.6473 30.4246 19.1198 30.4796 19.6094C30.5346 20.099 30.4856 20.5948 30.3358 21.0641C30.186 21.5335 29.9387 21.966 29.6103 22.3332C29.2818 22.7005 28.8795 22.9943 28.4297 23.1953C27.9799 23.3964 27.4927 23.5002 27 23.5Z" fill="black"/>
</svg>
