<svg width="32" height="32" viewBox="0 0 32 32" fill="none" xmlns="http://www.w3.org/2000/svg">
<path d="M20.4999 9.5C21.0933 9.5 21.6733 9.32405 22.1667 8.99441C22.66 8.66477 23.0445 8.19623 23.2716 7.64805C23.4986 7.09987 23.5581 6.49667 23.4423 5.91473C23.3265 5.33279 23.0408 4.79824 22.6213 4.37868C22.2017 3.95912 21.6672 3.6734 21.0852 3.55765C20.5033 3.44189 19.9001 3.5013 19.3519 3.72836C18.8037 3.95543 18.3352 4.33994 18.0055 4.83329C17.6759 5.32664 17.4999 5.90666 17.4999 6.5C17.4999 7.29565 17.816 8.05871 18.3786 8.62132C18.9412 9.18393 19.7043 9.5 20.4999 9.5ZM20.4999 4.5C20.8955 4.5 21.2822 4.6173 21.6111 4.83706C21.94 5.05683 22.1963 5.36918 22.3477 5.73463C22.4991 6.10009 22.5387 6.50222 22.4615 6.89018C22.3843 7.27814 22.1939 7.63451 21.9142 7.91422C21.6345 8.19392 21.2781 8.3844 20.8901 8.46157C20.5022 8.53874 20.1 8.49914 19.7346 8.34776C19.3691 8.19639 19.0568 7.94004 18.837 7.61114C18.6172 7.28224 18.4999 6.89556 18.4999 6.5C18.4999 5.96957 18.7107 5.46086 19.0857 5.08579C19.4608 4.71072 19.9695 4.5 20.4999 4.5ZM31.4299 24.75L24.6099 13.24C24.4786 13.0142 24.2901 12.827 24.0634 12.6971C23.8368 12.5672 23.5799 12.4992 23.3187 12.5C23.0581 12.4987 22.8018 12.5659 22.5753 12.6949C22.3489 12.8239 22.1604 13.0102 22.0287 13.235L18.3274 19.485L12.2924 9.23875C12.1599 9.01377 11.971 8.82727 11.7443 8.69769C11.5176 8.56812 11.2611 8.49996 10.9999 8.49996C10.7388 8.49996 10.4823 8.56812 10.2556 8.69769C10.0289 8.82727 9.83995 9.01377 9.70745 9.23875L0.568698 24.75C0.524888 24.8259 0.501787 24.9119 0.501709 24.9996C0.501632 25.0872 0.52458 25.1733 0.568256 25.2492C0.611932 25.3252 0.674801 25.3883 0.750565 25.4324C0.82633 25.4764 0.912329 25.4997 0.999948 25.5H30.9999C31.0875 25.4995 31.1733 25.476 31.2489 25.4319C31.3245 25.3878 31.3872 25.3246 31.4307 25.2487C31.4742 25.1728 31.4971 25.0868 31.4969 24.9993C31.4968 24.9117 31.4737 24.8258 31.4299 24.75ZM10.5687 9.75C10.6128 9.67481 10.6758 9.61247 10.7515 9.56914C10.8271 9.52582 10.9128 9.50303 10.9999 9.50303C11.0871 9.50303 11.1728 9.52582 11.2484 9.56914C11.3241 9.61247 11.3871 9.67481 11.4312 9.75L14.8212 15.5H7.1787L10.5687 9.75ZM1.87495 24.5L6.5887 16.5H15.4112L20.1249 24.5H1.87495ZM21.2862 24.5L18.9112 20.4638L22.8887 13.75C22.933 13.6754 22.9959 13.6136 23.0713 13.5707C23.1467 13.5277 23.2319 13.5051 23.3187 13.5051C23.4055 13.5051 23.4907 13.5277 23.5661 13.5707C23.6415 13.6136 23.7044 13.6754 23.7487 13.75L30.1237 24.5H21.2862Z" fill="black"/>
</svg>
