<svg width="32" height="32" viewBox="0 0 32 32" fill="none" xmlns="http://www.w3.org/2000/svg">
<path d="M20.5 10.5C21.2911 10.5 22.0645 10.2654 22.7223 9.82588C23.3801 9.38635 23.8928 8.76164 24.1955 8.03074C24.4983 7.29983 24.5775 6.49556 24.4232 5.71964C24.2688 4.94372 23.8879 4.23098 23.3284 3.67157C22.769 3.11216 22.0563 2.7312 21.2804 2.57686C20.5045 2.42252 19.7002 2.50173 18.9693 2.80448C18.2384 3.10723 17.6137 3.61992 17.1741 4.27772C16.7346 4.93552 16.5 5.70888 16.5 6.5C16.5 7.56087 16.9215 8.57828 17.6716 9.32843C18.4217 10.0786 19.4392 10.5 20.5 10.5ZM20.5 5.5C20.6978 5.5 20.8911 5.55865 21.0556 5.66853C21.22 5.77841 21.3482 5.93459 21.4239 6.11732C21.4996 6.30004 21.5194 6.50111 21.4808 6.69509C21.4422 6.88907 21.347 7.06726 21.2071 7.20711C21.0673 7.34696 20.8891 7.4422 20.6951 7.48079C20.5011 7.51937 20.3001 7.49957 20.1173 7.42388C19.9346 7.34819 19.7784 7.22002 19.6686 7.05557C19.5587 6.89112 19.5 6.69778 19.5 6.5C19.5 6.23479 19.6054 5.98043 19.7929 5.7929C19.9805 5.60536 20.2348 5.5 20.5 5.5ZM31.79 24.235L24.97 12.725C24.7501 12.3504 24.4356 12.04 24.0581 11.825C23.6806 11.6101 23.2532 11.498 22.8188 11.5C22.3845 11.498 21.9573 11.61 21.58 11.825C21.2027 12.04 20.8884 12.3504 20.6688 12.725L18.3313 16.6688L13.6538 8.73125C13.4329 8.35647 13.118 8.04581 12.7403 7.82999C12.3626 7.61417 11.9351 7.50065 11.5 7.50065C11.065 7.50065 10.6375 7.61417 10.2598 7.82999C9.88203 8.04581 9.56716 8.35647 9.34627 8.73125L0.207522 24.2388C0.0733338 24.4666 0.00175251 24.7258 3.17728e-05 24.9902C-0.00168897 25.2546 0.0665119 25.5148 0.197724 25.7444C0.328936 25.9739 0.518496 26.1647 0.747197 26.2974C0.975897 26.4301 1.23561 26.5 1.50002 26.5H30.5C30.7648 26.5 31.0248 26.4298 31.2537 26.2968C31.4826 26.1637 31.6722 25.9724 31.8032 25.7423C31.9342 25.5123 32.002 25.2516 31.9997 24.9869C31.9974 24.7222 31.925 24.4627 31.79 24.235ZM11.5 10.9838L13.5713 14.5H9.42877L11.5 10.9838ZM4.12502 23.5L7.66002 17.5H15.34L17.0375 20.3825V20.3913L18.875 23.5H4.12502ZM22.3575 23.5L20.07 19.625L22.82 14.9875L27.8675 23.5H22.3575Z" fill="black"/>
</svg>
