<svg width="32" height="32" viewBox="0 0 32 32" fill="none" xmlns="http://www.w3.org/2000/svg">
<path d="M20.4999 9.75C21.1427 9.75 21.7711 9.55939 22.3055 9.20228C22.84 8.84516 23.2565 8.33758 23.5025 7.74372C23.7485 7.14986 23.8129 6.4964 23.6875 5.86596C23.5621 5.23552 23.2525 4.65642 22.798 4.2019C22.3435 3.74738 21.7644 3.43785 21.134 3.31245C20.5035 3.18705 19.85 3.25141 19.2562 3.49739C18.6623 3.74338 18.1547 4.15994 17.7976 4.6944C17.4405 5.22886 17.2499 5.85721 17.2499 6.5C17.2499 7.36196 17.5923 8.1886 18.2018 8.7981C18.8113 9.40759 19.638 9.75 20.4999 9.75ZM20.4999 4.75C20.846 4.75 21.1844 4.85264 21.4722 5.04493C21.7599 5.23722 21.9842 5.51053 22.1167 5.83031C22.2492 6.15008 22.2838 6.50194 22.2163 6.84141C22.1488 7.18088 21.9821 7.4927 21.7373 7.73744C21.4926 7.98218 21.1808 8.14885 20.8413 8.21638C20.5019 8.2839 20.15 8.24924 19.8302 8.11679C19.5104 7.98434 19.2371 7.76004 19.0448 7.47225C18.8525 7.18446 18.7499 6.84612 18.7499 6.5C18.7499 6.03587 18.9343 5.59075 19.2625 5.26256C19.5907 4.93438 20.0358 4.75 20.4999 4.75ZM31.6449 24.6175L24.8249 13.1075C24.6714 12.8462 24.4522 12.6295 24.1891 12.4791C23.9259 12.3287 23.628 12.2497 23.3249 12.25C23.0218 12.2494 22.7238 12.3283 22.4606 12.4788C22.1974 12.6292 21.9782 12.846 21.8249 13.1075L18.3399 18.9888L12.5199 9.11375C12.3653 8.85117 12.1449 8.6335 11.8804 8.48226C11.6159 8.33103 11.3165 8.25148 11.0118 8.25148C10.7071 8.25148 10.4077 8.33103 10.1432 8.48226C9.87866 8.6335 9.65822 8.85117 9.50366 9.11375L0.353659 24.625C0.287969 24.7388 0.253318 24.8678 0.253174 24.9992C0.25303 25.1306 0.287398 25.2597 0.352838 25.3736C0.418278 25.4875 0.512493 25.5822 0.626053 25.6483C0.739613 25.7144 0.868534 25.7494 0.999909 25.75H30.9999C31.1323 25.75 31.2623 25.7149 31.3767 25.6484C31.4912 25.5818 31.586 25.4862 31.6515 25.3712C31.717 25.2561 31.7509 25.1258 31.7497 24.9935C31.7486 24.8611 31.7124 24.7314 31.6449 24.6175ZM10.7837 9.875C10.8056 9.83712 10.8372 9.80567 10.8751 9.78381C10.9131 9.76195 10.9561 9.75044 10.9999 9.75044C11.0437 9.75044 11.0867 9.76195 11.1247 9.78381C11.1626 9.80567 11.1942 9.83712 11.2162 9.875L14.3837 15.25H7.61616L10.7837 9.875ZM2.31241 24.25L6.73241 16.75H15.2687L17.6812 20.8463L19.6812 24.2463L2.31241 24.25ZM21.4287 24.25L19.1974 20.4638L23.1037 13.875C23.1255 13.8372 23.1568 13.8058 23.1945 13.7839C23.2322 13.7619 23.275 13.7503 23.3187 13.75C23.3625 13.7493 23.4056 13.7606 23.4435 13.7827C23.4814 13.8047 23.5126 13.8366 23.5337 13.875L29.6837 24.25H21.4287Z" fill="black"/>
</svg>
