<svg width="32" height="32" viewBox="0 0 32 32" fill="none" xmlns="http://www.w3.org/2000/svg">
<path d="M18 1.5H14C11.7464 1.50232 9.58571 2.39859 7.99215 3.99215C6.39859 5.58571 5.50232 7.74637 5.5 10V22C5.50232 24.2536 6.39859 26.4143 7.99215 28.0078C9.58571 29.6014 11.7464 30.4977 14 30.5H18C20.2536 30.4977 22.4143 29.6014 24.0078 28.0078C25.6014 26.4143 26.4977 24.2536 26.5 22V10C26.4977 7.74637 25.6014 5.58571 24.0078 3.99215C22.4143 2.39859 20.2536 1.50232 18 1.5ZM23.5 10V12.5H17.5V4.5H18C19.4582 4.50165 20.8562 5.08165 21.8873 6.11274C22.9184 7.14383 23.4983 8.54182 23.5 10ZM14 4.5H14.5V12.5H8.5V10C8.50165 8.54182 9.08165 7.14383 10.1127 6.11274C11.1438 5.08165 12.5418 4.50165 14 4.5ZM18 27.5H14C12.5418 27.4983 11.1438 26.9184 10.1127 25.8873C9.08165 24.8562 8.50165 23.4582 8.5 22V15.5H23.5V22C23.4983 23.4582 22.9184 24.8562 21.8873 25.8873C20.8562 26.9184 19.4582 27.4983 18 27.5Z" fill="black"/>
</svg>
