<svg width="32" height="32" viewBox="0 0 32 32" fill="none" xmlns="http://www.w3.org/2000/svg">
<path d="M26.4313 6.56382L16.4313 3.56382C16.2073 3.49659 15.9707 3.48266 15.7404 3.52312C15.5101 3.56358 15.2925 3.65732 15.1049 3.79685C14.9173 3.93639 14.7648 4.11785 14.6598 4.32676C14.5548 4.53567 14.5001 4.76624 14.5 5.00007V17.5276C13.2836 16.7502 11.843 16.4 10.4054 16.532C8.96786 16.6641 7.61517 17.271 6.5607 18.2569C5.50623 19.2428 4.80998 20.5517 4.58175 21.9772C4.35353 23.4026 4.60632 24.8635 5.30027 26.1294C5.99421 27.3952 7.08981 28.3941 8.41427 28.9683C9.73873 29.5426 11.2167 29.6596 12.615 29.301C14.0133 28.9423 15.2525 28.1283 16.137 26.9874C17.0215 25.8465 17.5011 24.4437 17.5 23.0001V13.0163L25.5688 15.4363C25.7927 15.5035 26.0293 15.5175 26.2596 15.477C26.4899 15.4366 26.7075 15.3428 26.8951 15.2033C27.0828 15.0637 27.2352 14.8823 27.3402 14.6734C27.4452 14.4645 27.4999 14.2339 27.5 14.0001V8.00007C27.4999 7.67759 27.3959 7.36373 27.2034 7.10502C27.0109 6.84631 26.7401 6.65653 26.4313 6.56382ZM11 26.5001C10.3078 26.5001 9.63108 26.2948 9.05551 25.9102C8.47994 25.5256 8.03134 24.979 7.76643 24.3395C7.50152 23.6999 7.43221 22.9962 7.56726 22.3173C7.70231 21.6383 8.03565 21.0147 8.52513 20.5252C9.01462 20.0357 9.63826 19.7024 10.3172 19.5673C10.9961 19.4323 11.6999 19.5016 12.3394 19.7665C12.9789 20.0314 13.5256 20.48 13.9102 21.0556C14.2947 21.6311 14.5 22.3078 14.5 23.0001C14.5 23.9283 14.1313 24.8186 13.4749 25.4749C12.8185 26.1313 11.9283 26.5001 11 26.5001ZM24.5 11.9838L17.5 9.88382V7.01632L24.5 9.11632V11.9838Z" fill="black"/>
</svg>
