<svg width="32" height="32" viewBox="0 0 32 32" fill="none" xmlns="http://www.w3.org/2000/svg">
<path d="M29.5 7C29.5 7.39782 29.342 7.77936 29.0607 8.06066C28.7794 8.34196 28.3978 8.5 28 8.5H26.5V10C26.5 10.3978 26.342 10.7794 26.0607 11.0607C25.7794 11.342 25.3978 11.5 25 11.5C24.6022 11.5 24.2206 11.342 23.9393 11.0607C23.658 10.7794 23.5 10.3978 23.5 10V8.5H22C21.6022 8.5 21.2206 8.34196 20.9393 8.06066C20.658 7.77936 20.5 7.39782 20.5 7C20.5 6.60218 20.658 6.22064 20.9393 5.93934C21.2206 5.65804 21.6022 5.5 22 5.5H23.5V4C23.5 3.60218 23.658 3.22064 23.9393 2.93934C24.2206 2.65804 24.6022 2.5 25 2.5C25.3978 2.5 25.7794 2.65804 26.0607 2.93934C26.342 3.22064 26.5 3.60218 26.5 4V5.5H28C28.3978 5.5 28.7794 5.65804 29.0607 5.93934C29.342 6.22064 29.5 6.60218 29.5 7ZM27.5 15.5V21.5C27.5003 22.5768 27.153 23.6248 26.5097 24.4883C25.8665 25.3518 24.9616 25.9846 23.9299 26.2925C22.8981 26.6004 21.7944 26.5671 20.7832 26.1973C19.7719 25.8276 18.9069 25.1413 18.3171 24.2405C17.7272 23.3397 17.4439 22.2725 17.5092 21.1978C17.5746 20.123 17.9852 19.098 18.6799 18.2754C19.3746 17.4527 20.3163 16.8763 21.365 16.6319C22.4136 16.3874 23.5131 16.488 24.5 16.9188V15.5C24.5 15.1022 24.658 14.7206 24.9393 14.4393C25.2206 14.158 25.6022 14 26 14C26.3978 14 26.7794 14.158 27.0607 14.4393C27.342 14.7206 27.5 15.1022 27.5 15.5ZM24.5 21.5C24.5 21.1044 24.3827 20.7178 24.1629 20.3889C23.9432 20.06 23.6308 19.8036 23.2654 19.6522C22.8999 19.5009 22.4978 19.4613 22.1098 19.5384C21.7219 19.6156 21.3655 19.8061 21.0858 20.0858C20.8061 20.3655 20.6156 20.7219 20.5384 21.1098C20.4613 21.4978 20.5009 21.8999 20.6522 22.2654C20.8036 22.6308 21.06 22.9432 21.3889 23.1629C21.7178 23.3827 22.1044 23.5 22.5 23.5C23.0304 23.5 23.5391 23.2893 23.9142 22.9142C24.2893 22.5391 24.5 22.0304 24.5 21.5ZM11.5 15.1713V25.5C11.5003 26.5768 11.153 27.6248 10.5097 28.4883C9.86646 29.3518 8.96164 29.9846 7.92985 30.2925C6.89807 30.6004 5.79444 30.5671 4.78315 30.1973C3.77187 29.8276 2.90695 29.1413 2.31707 28.2405C1.72718 27.3397 1.44385 26.2725 1.50923 25.1978C1.5746 24.123 1.98518 23.098 2.67989 22.2754C3.3746 21.4527 4.31632 20.8763 5.36496 20.6319C6.41361 20.3874 7.51314 20.488 8.5 20.9188V8C8.50005 7.66551 8.61191 7.34063 8.81778 7.077C9.02366 6.81337 9.31174 6.62611 9.63625 6.545L16.1363 4.92C16.5195 4.83115 16.9222 4.89639 17.2578 5.10166C17.5934 5.30693 17.8349 5.6358 17.9303 6.01743C18.0257 6.39906 17.9674 6.80289 17.7679 7.14193C17.5684 7.48096 17.2437 7.72807 16.8638 7.83L11.5 9.17125V12.0787L18.1363 10.42C18.5195 10.3311 18.9222 10.3964 19.2578 10.6017C19.5934 10.8069 19.8349 11.1358 19.9303 11.5174C20.0257 11.8991 19.9674 12.3029 19.7679 12.6419C19.5684 12.981 19.2437 13.2281 18.8638 13.33L11.5 15.1713ZM8.5 25.5C8.5 25.1044 8.3827 24.7178 8.16294 24.3889C7.94318 24.06 7.63082 23.8036 7.26537 23.6522C6.89992 23.5009 6.49778 23.4613 6.10982 23.5384C5.72186 23.6156 5.36549 23.8061 5.08579 24.0858C4.80608 24.3655 4.6156 24.7219 4.53843 25.1098C4.46126 25.4978 4.50087 25.8999 4.65224 26.2654C4.80362 26.6308 5.05996 26.9432 5.38886 27.1629C5.71776 27.3827 6.10444 27.5 6.5 27.5C7.03044 27.5 7.53914 27.2893 7.91422 26.9142C8.28929 26.5391 8.5 26.0304 8.5 25.5Z" fill="black"/>
</svg>
