<svg width="32" height="32" viewBox="0 0 32 32" fill="none" xmlns="http://www.w3.org/2000/svg">
<path d="M26.4313 6.56382L16.4313 3.56382C16.2073 3.49659 15.9707 3.48266 15.7404 3.52312C15.5101 3.56358 15.2925 3.65732 15.1049 3.79685C14.9173 3.93639 14.7648 4.11785 14.6598 4.32676C14.5548 4.53567 14.5001 4.76624 14.5 5.00007V17.5276C13.2836 16.7502 11.843 16.4 10.4054 16.532C8.96786 16.6641 7.61517 17.271 6.5607 18.2569C5.50623 19.2428 4.80998 20.5517 4.58175 21.9772C4.35353 23.4026 4.60632 24.8635 5.30027 26.1294C5.99421 27.3952 7.08981 28.3941 8.41427 28.9683C9.73873 29.5426 11.2167 29.6596 12.615 29.301C14.0133 28.9423 15.2525 28.1283 16.137 26.9874C17.0215 25.8465 17.5011 24.4437 17.5 23.0001V7.01632L25.5688 9.43632C25.7575 9.49295 25.9556 9.51185 26.1517 9.49193C26.3478 9.47201 26.538 9.41366 26.7115 9.32022C26.8851 9.22678 27.0385 9.10008 27.1631 8.94735C27.2876 8.79462 27.3809 8.61884 27.4375 8.43007C27.4941 8.24129 27.513 8.04321 27.4931 7.84713C27.4732 7.65106 27.4149 7.46082 27.3214 7.28729C27.228 7.11376 27.1013 6.96034 26.9485 6.83577C26.7958 6.71121 26.62 6.61795 26.4313 6.56132V6.56382ZM11 26.5001C10.3078 26.5001 9.63108 26.2948 9.05551 25.9102C8.47994 25.5256 8.03134 24.979 7.76643 24.3395C7.50152 23.6999 7.43221 22.9962 7.56726 22.3173C7.70231 21.6383 8.03565 21.0147 8.52513 20.5252C9.01462 20.0357 9.63826 19.7024 10.3172 19.5673C10.9961 19.4323 11.6999 19.5016 12.3394 19.7665C12.9789 20.0314 13.5256 20.48 13.9102 21.0556C14.2947 21.6311 14.5 22.3078 14.5 23.0001C14.5 23.9283 14.1313 24.8186 13.4749 25.4749C12.8185 26.1313 11.9283 26.5001 11 26.5001Z" fill="black"/>
</svg>
