<svg width="32" height="32" viewBox="0 0 32 32" fill="none" xmlns="http://www.w3.org/2000/svg">
<path d="M26.9225 2.8175C26.7429 2.67739 26.5337 2.58003 26.3108 2.53281C26.088 2.4856 25.8573 2.48977 25.6363 2.545L9.63625 6.545C9.31174 6.62612 9.02366 6.81337 8.81778 7.077C8.61191 7.34063 8.50005 7.66551 8.5 8V20.9188C7.51314 20.4881 6.41361 20.3874 5.36496 20.6319C4.31632 20.8763 3.3746 21.4527 2.67989 22.2754C1.98518 23.098 1.5746 24.123 1.50923 25.1978C1.44385 26.2725 1.72718 27.3397 2.31707 28.2405C2.90695 29.1413 3.77187 29.8276 4.78315 30.1973C5.79444 30.5671 6.89807 30.6004 7.92985 30.2925C8.96164 29.9846 9.86646 29.3518 10.5097 28.4883C11.153 27.6248 11.5003 26.5768 11.5 25.5V15.1713L24.5 11.9213V16.9213C23.513 16.4905 22.4134 16.3899 21.3647 16.6344C20.3159 16.879 19.3742 17.4555 18.6795 18.2784C17.9848 19.1012 17.5743 20.1263 17.5092 21.2012C17.444 22.2761 17.7276 23.3433 18.3178 24.244C18.9079 25.1448 19.7731 25.8309 20.7846 26.2004C21.7961 26.5698 22.8999 26.6028 23.9317 26.2945C24.9634 25.9861 25.8681 25.3529 26.511 24.4891C27.154 23.6252 27.5008 22.5769 27.5 21.5V4C27.5 3.77197 27.4479 3.54694 27.3479 3.34204C27.2478 3.13713 27.1023 2.95774 26.9225 2.8175ZM6.5 27.5C6.10444 27.5 5.71776 27.3827 5.38886 27.1629C5.05996 26.9432 4.80362 26.6308 4.65224 26.2654C4.50087 25.8999 4.46126 25.4978 4.53843 25.1098C4.6156 24.7219 4.80608 24.3655 5.08579 24.0858C5.36549 23.8061 5.72186 23.6156 6.10982 23.5384C6.49778 23.4613 6.89992 23.5009 7.26537 23.6522C7.63082 23.8036 7.94318 24.06 8.16294 24.3889C8.3827 24.7178 8.5 25.1044 8.5 25.5C8.5 26.0304 8.28929 26.5391 7.91422 26.9142C7.53914 27.2893 7.03044 27.5 6.5 27.5ZM11.5 12.0788V9.17125L24.5 5.92125V8.82875L11.5 12.0788ZM22.5 23.5C22.1044 23.5 21.7178 23.3827 21.3889 23.1629C21.06 22.9432 20.8036 22.6308 20.6522 22.2654C20.5009 21.8999 20.4613 21.4978 20.5384 21.1098C20.6156 20.7219 20.8061 20.3655 21.0858 20.0858C21.3655 19.8061 21.7219 19.6156 22.1098 19.5384C22.4978 19.4613 22.8999 19.5009 23.2654 19.6522C23.6308 19.8036 23.9432 20.06 24.1629 20.3889C24.3827 20.7178 24.5 21.1044 24.5 21.5C24.5 22.0304 24.2893 22.5391 23.9142 22.9142C23.5391 23.2893 23.0304 23.5 22.5 23.5Z" fill="black"/>
</svg>
