<svg width="32" height="32" viewBox="0 0 32 32" fill="none" xmlns="http://www.w3.org/2000/svg">
<path d="M28.8375 11.8076L6.85125 3.65134L6.82 3.64009C6.37669 3.48672 5.89916 3.46116 5.44201 3.56635C4.98486 3.67153 4.56653 3.90322 4.23483 4.23492C3.90313 4.56662 3.67144 4.98495 3.56625 5.44211C3.46107 5.89926 3.48662 6.37678 3.64 6.82009L3.65125 6.85134L11.8075 28.8376C11.9804 29.3239 12.2996 29.7448 12.7213 30.0425C13.1429 30.3401 13.6464 30.5 14.1625 30.5001H14.2063C14.7335 30.4909 15.2444 30.3153 15.6658 29.9983C16.0872 29.6813 16.3975 29.2391 16.5525 28.7351L19.4188 19.4188L28.735 16.5526C29.239 16.3993 29.6817 16.0907 29.9999 15.6709C30.3181 15.251 30.4955 14.7414 30.5069 14.2147C30.5183 13.688 30.363 13.1712 30.0632 12.7381C29.7634 12.3049 29.3344 11.9775 28.8375 11.8026V11.8076ZM18.2838 16.6251C17.8927 16.7448 17.5369 16.9586 17.2477 17.2478C16.9585 17.537 16.7447 17.8928 16.625 18.2838L14.125 26.4438L6.85 6.85009L26.4438 14.1251L18.2838 16.6251Z" fill="black"/>
</svg>
