<svg width="32" height="32" viewBox="0 0 32 32" fill="none" xmlns="http://www.w3.org/2000/svg">
<path d="M28.5 12.7501L6.49126 4.58386C6.22457 4.49162 5.93728 4.47648 5.66238 4.54017C5.38747 4.60387 5.13611 4.74381 4.93717 4.94393C4.73822 5.14405 4.59976 5.39623 4.53769 5.67151C4.47561 5.94678 4.49245 6.23398 4.58626 6.50011L12.75 28.5001C12.8503 28.7945 13.041 29.0496 13.2949 29.2292C13.5487 29.4087 13.8528 29.5036 14.1638 29.5001H14.1913C14.5084 29.4981 14.8165 29.3941 15.07 29.2034C15.3235 29.0127 15.5089 28.7455 15.5988 28.4414L18.54 18.8751C18.564 18.797 18.6067 18.726 18.6644 18.6683C18.7222 18.6105 18.7932 18.5678 18.8713 18.5439L28.4413 15.6001C28.7435 15.5078 29.009 15.3224 29.1996 15.0703C29.3903 14.8183 29.4964 14.5124 29.503 14.1964C29.5095 13.8804 29.416 13.5704 29.2359 13.3107C29.0558 13.051 28.7982 12.8548 28.5 12.7501ZM28.1463 14.6414L18.575 17.5864C18.3412 17.6583 18.1285 17.7864 17.9555 17.9594C17.7825 18.1324 17.6545 18.345 17.5825 18.5789L14.6388 28.1489C14.6096 28.2508 14.5479 28.3405 14.463 28.4041C14.3782 28.4678 14.2748 28.5019 14.1688 28.5014C14.063 28.5046 13.9591 28.4736 13.8724 28.413C13.7857 28.3525 13.7208 28.2655 13.6875 28.1651V28.1551L5.52751 6.16511C5.49641 6.07596 5.49166 5.97974 5.51382 5.88796C5.53599 5.79618 5.58414 5.71274 5.65251 5.64761C5.74461 5.55493 5.86935 5.50198 6.00001 5.50011C6.05318 5.50019 6.10597 5.50906 6.15626 5.52636L28.1663 13.6914C28.2658 13.7259 28.3518 13.791 28.4121 13.8774C28.4725 13.9637 28.504 14.0669 28.5022 14.1722C28.5004 14.2776 28.4653 14.3796 28.4021 14.4639C28.3389 14.5481 28.2506 14.6102 28.15 14.6414H28.1463Z" fill="black"/>
</svg>
