<svg width="32" height="32" viewBox="0 0 32 32" fill="none" xmlns="http://www.w3.org/2000/svg">
<path d="M28.5813 12.5125L6.59001 4.35378H6.57376C6.26405 4.24705 5.93061 4.2294 5.61136 4.30283C5.29212 4.37626 4.99989 4.53782 4.76794 4.76913C4.53598 5.00043 4.3736 5.2922 4.29927 5.61124C4.22495 5.93028 4.24166 6.26377 4.34751 6.57378C4.34751 6.57378 4.34751 6.58503 4.34751 6.59003L12.5125 28.5813C12.6289 28.9248 12.8509 29.2228 13.1468 29.4327C13.4427 29.6426 13.7973 29.7537 14.16 29.75H14.1925C14.5625 29.7476 14.922 29.6262 15.2177 29.4038C15.5135 29.1814 15.7299 28.8698 15.835 28.515L18.78 18.945C18.792 18.9062 18.8133 18.8708 18.8421 18.8421C18.8708 18.8133 18.9062 18.792 18.945 18.78L28.515 15.835C28.8667 15.7265 29.1752 15.5099 29.3967 15.2159C29.6182 14.922 29.7413 14.5657 29.7487 14.1977C29.756 13.8297 29.6471 13.4688 29.4376 13.1663C29.228 12.8637 28.9283 12.635 28.5813 12.5125ZM28.0738 14.4013L18.5 17.3463C18.2273 17.4302 17.9793 17.5796 17.7776 17.7813C17.5758 17.9831 17.4265 18.2311 17.3425 18.5038L14.3975 28.0738C14.3846 28.1257 14.3542 28.1716 14.3114 28.2037C14.2686 28.2358 14.216 28.2522 14.1625 28.25C14.109 28.2547 14.0556 28.2404 14.0117 28.2095C13.9678 28.1786 13.9362 28.1332 13.9225 28.0813C13.923 28.0763 13.923 28.0713 13.9225 28.0663L5.76376 6.07753C5.74996 6.03388 5.7484 5.98729 5.75926 5.94282C5.77012 5.89836 5.79298 5.85773 5.82535 5.82536C5.85771 5.793 5.89834 5.77014 5.94281 5.75928C5.98727 5.74842 6.03387 5.74997 6.07751 5.76378L28.0663 13.9213H28.0813C28.131 13.9385 28.1741 13.971 28.2043 14.0141C28.2345 14.0573 28.2503 14.1088 28.2495 14.1615C28.2487 14.2142 28.2312 14.2652 28.1997 14.3074C28.1681 14.3495 28.1241 14.3806 28.0738 14.3963V14.4013Z" fill="black"/>
</svg>
