<svg width="32" height="32" viewBox="0 0 32 32" fill="none" xmlns="http://www.w3.org/2000/svg">
<path d="M28.6663 12.2762L6.67626 4.12497L6.65626 4.11872C6.30231 3.99685 5.92125 3.97676 5.55644 4.06075C5.19163 4.14474 4.85772 4.32943 4.59268 4.59381C4.32765 4.8582 4.14214 5.19165 4.05725 5.55625C3.97237 5.92085 3.99151 6.30196 4.11251 6.65622C4.11403 6.66305 4.11613 6.66974 4.11876 6.67622L12.2763 28.6662C12.4102 29.0583 12.6644 29.3982 13.0025 29.6376C13.3407 29.8771 13.7457 30.0038 14.16 30H14.1975C14.62 29.9967 15.0303 29.8578 15.3679 29.6038C15.7055 29.3497 15.9525 28.9938 16.0725 28.5887L19.0175 19.0187L28.5875 16.0737C28.9896 15.95 29.3425 15.7026 29.5959 15.3667C29.8493 15.0308 29.9903 14.6236 29.9989 14.203C30.0075 13.7823 29.8832 13.3697 29.6437 13.0238C29.4042 12.6779 29.0618 12.4163 28.665 12.2762H28.6663ZM28 14.1625L18.43 17.1075C18.1185 17.2034 17.8351 17.3741 17.6046 17.6046C17.3742 17.8351 17.2035 18.1184 17.1075 18.43L14.1625 28L14.155 27.9787L6.00001 5.99997L27.9775 14.1525L27.9975 14.16L28 14.1625Z" fill="black"/>
</svg>
