<svg width="32" height="32" viewBox="0 0 32 32" fill="none" xmlns="http://www.w3.org/2000/svg">
<path d="M26.8888 5.11131C25.8573 4.08006 24.4585 3.50073 23 3.50073C21.5415 3.50073 20.1427 4.08006 19.1113 5.11131L16.1113 8.11131C15.8913 8.32988 15.7453 8.61181 15.6938 8.91756C14.8 14.1251 6.91376 22.9626 3.94376 25.9351C3.66197 26.2168 3.50366 26.599 3.50366 26.9976C3.50366 27.3961 3.66197 27.7783 3.94376 28.0601C4.22556 28.3418 4.60775 28.5002 5.00626 28.5002C5.40478 28.5002 5.78697 28.3418 6.06876 28.0601C9.03751 25.0938 17.88 17.2001 23.0913 16.3101C23.3967 16.2575 23.6783 16.1117 23.8975 15.8926L26.8975 12.8926C27.9288 11.8611 28.5081 10.4623 28.5081 9.00381C28.5081 7.54528 27.9288 6.14648 26.8975 5.11506L26.8888 5.11131ZM24.7638 10.7676L22.0863 13.4463C20.23 13.8601 18.0363 14.8726 15.5275 16.4688C17.1238 13.9601 18.1363 11.7663 18.55 9.91006L21.2288 7.23256C21.4594 6.99378 21.7352 6.80333 22.0403 6.6723C22.3453 6.54128 22.6733 6.47232 23.0053 6.46943C23.3372 6.46655 23.6664 6.5298 23.9736 6.6555C24.2809 6.78121 24.56 6.96684 24.7948 7.20157C25.0295 7.4363 25.2151 7.71543 25.3408 8.02267C25.4665 8.32991 25.5298 8.65911 25.5269 8.99106C25.524 9.32301 25.455 9.65106 25.324 9.95607C25.193 10.2611 25.0025 10.5369 24.7638 10.7676Z" fill="black"/>
</svg>
