<svg width="32" height="32" viewBox="0 0 32 32" fill="none" xmlns="http://www.w3.org/2000/svg">
<path d="M11.5 13.5C11.5 13.1022 11.658 12.7206 11.9393 12.4393C12.2206 12.158 12.6022 12 13 12H22C22.3978 12 22.7794 12.158 23.0607 12.4393C23.342 12.7206 23.5 13.1022 23.5 13.5C23.5 13.8978 23.342 14.2794 23.0607 14.5607C22.7794 14.842 22.3978 15 22 15H13C12.6022 15 12.2206 14.842 11.9393 14.5607C11.658 14.2794 11.5 13.8978 11.5 13.5ZM13 20H22C22.3978 20 22.7794 19.842 23.0607 19.5607C23.342 19.2794 23.5 18.8978 23.5 18.5C23.5 18.1022 23.342 17.7206 23.0607 17.4393C22.7794 17.158 22.3978 17 22 17H13C12.6022 17 12.2206 17.158 11.9393 17.4393C11.658 17.7206 11.5 18.1022 11.5 18.5C11.5 18.8978 11.658 19.2794 11.9393 19.5607C12.2206 19.842 12.6022 20 13 20ZM29.5 8V23C29.5 23.4596 29.4095 23.9148 29.2336 24.3394C29.0577 24.764 28.7999 25.1499 28.4749 25.4749C28.1499 25.7999 27.764 26.0577 27.3394 26.2336C26.9148 26.4095 26.4596 26.5 26 26.5H4.5C3.43913 26.5 2.42172 26.0786 1.67157 25.3284C0.921427 24.5783 0.5 23.5609 0.5 22.5V11C0.5 10.6022 0.658035 10.2206 0.93934 9.93934C1.22064 9.65804 1.60218 9.5 2 9.5C2.39782 9.5 2.77936 9.65804 3.06066 9.93934C3.34196 10.2206 3.5 10.6022 3.5 11V22.5C3.5 22.7652 3.60536 23.0196 3.79289 23.2071C3.98043 23.3946 4.23478 23.5 4.5 23.5C4.76522 23.5 5.01957 23.3946 5.20711 23.2071C5.39464 23.0196 5.5 22.7652 5.5 22.5V8C5.5 7.33696 5.76339 6.70107 6.23223 6.23223C6.70107 5.76339 7.33696 5.5 8 5.5H27C27.663 5.5 28.2989 5.76339 28.7678 6.23223C29.2366 6.70107 29.5 7.33696 29.5 8ZM26.5 8.5H8.5V22.5C8.50066 22.8373 8.45866 23.1733 8.375 23.5H26C26.1326 23.5 26.2598 23.4473 26.3536 23.3536C26.4473 23.2598 26.5 23.1326 26.5 23V8.5Z" fill="black"/>
</svg>
