<svg width="32" height="32" viewBox="0 0 32 32" fill="none" xmlns="http://www.w3.org/2000/svg">
<path d="M26.7074 16.7076L16.7074 26.7076C16.6145 26.8005 16.5042 26.8742 16.3828 26.9244C16.2614 26.9747 16.1313 27.0006 15.9999 27.0006C15.8686 27.0006 15.7384 26.9747 15.617 26.9244C15.4957 26.8742 15.3854 26.8005 15.2924 26.7076C15.1995 26.6146 15.1258 26.5043 15.0756 26.3829C15.0253 26.2616 14.9994 26.1314 14.9994 26.0001C14.9994 25.8687 15.0253 25.7386 15.0756 25.6172C15.1258 25.4958 15.1995 25.3855 15.2924 25.2926L25.2924 15.2926C25.3854 15.1996 25.4957 15.1259 25.6171 15.0757C25.7384 15.0254 25.8686 14.9995 25.9999 14.9995C26.1313 14.9995 26.2614 15.0254 26.3828 15.0757C26.5042 15.1259 26.6145 15.1996 26.7074 15.2926C26.8004 15.3855 26.8741 15.4958 26.9243 15.6172C26.9746 15.7386 27.0005 15.8687 27.0005 16.0001C27.0005 16.1314 26.9746 16.2616 26.9243 16.383C26.8741 16.5043 26.8004 16.6146 26.7074 16.7076ZM24.7074 4.29255C24.6146 4.19958 24.5043 4.12582 24.3829 4.07549C24.2615 4.02517 24.1314 3.99927 23.9999 3.99927C23.8685 3.99927 23.7384 4.02517 23.617 4.07549C23.4956 4.12582 23.3853 4.19958 23.2924 4.29255L4.29245 23.2926C4.1048 23.4802 3.99939 23.7347 3.99939 24.0001C3.99939 24.2654 4.1048 24.5199 4.29245 24.7076C4.48009 24.8952 4.73458 25.0006 4.99995 25.0006C5.26531 25.0006 5.5198 24.8952 5.70745 24.7076L24.7074 5.70755C24.8004 5.61468 24.8742 5.50439 24.9245 5.38299C24.9748 5.2616 25.0007 5.13147 25.0007 5.00005C25.0007 4.86864 24.9748 4.73851 24.9245 4.61711C24.8742 4.49572 24.8004 4.38543 24.7074 4.29255Z" fill="black"/>
</svg>
