<svg width="32" height="32" viewBox="0 0 32 32" fill="none" xmlns="http://www.w3.org/2000/svg">
<path d="M26.53 16.5301L16.53 26.5301C16.4614 26.6038 16.3786 26.6629 16.2866 26.7039C16.1946 26.7448 16.0953 26.7669 15.9946 26.7687C15.8939 26.7704 15.7938 26.7519 15.7004 26.7142C15.607 26.6765 15.5222 26.6203 15.451 26.5491C15.3798 26.4779 15.3236 26.3931 15.2859 26.2997C15.2482 26.2063 15.2297 26.1063 15.2314 26.0056C15.2332 25.9048 15.2553 25.8055 15.2963 25.7135C15.3372 25.6215 15.3963 25.5387 15.47 25.4701L25.47 15.4701C25.5387 15.3964 25.6215 15.3373 25.7135 15.2963C25.8055 15.2553 25.9048 15.2333 26.0055 15.2315C26.1062 15.2297 26.2062 15.2482 26.2996 15.2859C26.393 15.3237 26.4778 15.3798 26.5491 15.451C26.6203 15.5223 26.6764 15.6071 26.7142 15.7005C26.7519 15.7939 26.7704 15.8939 26.7686 15.9946C26.7668 16.0953 26.7448 16.1946 26.7038 16.2866C26.6628 16.3786 26.6037 16.4614 26.53 16.5301ZM24.53 4.47007C24.3894 4.32962 24.1988 4.25073 24 4.25073C23.8013 4.25073 23.6107 4.32962 23.47 4.47007L4.47003 23.4701C4.39634 23.5387 4.33724 23.6215 4.29625 23.7135C4.25526 23.8055 4.23322 23.9048 4.23144 24.0056C4.22966 24.1063 4.24819 24.2063 4.28591 24.2997C4.32363 24.3931 4.37977 24.4779 4.45099 24.5491C4.52221 24.6203 4.60705 24.6765 4.70043 24.7142C4.79382 24.7519 4.89385 24.7704 4.99455 24.7687C5.09526 24.7669 5.19457 24.7448 5.28657 24.7039C5.37857 24.6629 5.46137 24.6038 5.53003 24.5301L24.53 5.53007C24.6705 5.38945 24.7494 5.19882 24.7494 5.00007C24.7494 4.80132 24.6705 4.6107 24.53 4.47007Z" fill="black"/>
</svg>
