<svg width="32" height="32" viewBox="0 0 32 32" fill="none" xmlns="http://www.w3.org/2000/svg">
<path d="M28.53 7.47007L24.53 3.47007C24.3894 3.32962 24.1988 3.25073 24 3.25073C23.8012 3.25073 23.6106 3.32962 23.47 3.47007L11.47 15.4701C11.3293 15.6106 11.2502 15.8012 11.25 16.0001V20.0001C11.25 20.199 11.329 20.3898 11.4697 20.5304C11.6103 20.6711 11.8011 20.7501 12 20.7501H16C16.1988 20.7499 16.3895 20.6708 16.53 20.5301L28.53 8.53007C28.6705 8.38945 28.7493 8.19882 28.7493 8.00007C28.7493 7.80132 28.6705 7.6107 28.53 7.47007ZM15.6888 19.2501H12.75V16.3113L21 8.06132L23.9387 11.0001L15.6888 19.2501ZM25 9.93882L22.0613 7.00007L24 5.06132L26.9387 8.00007L25 9.93882ZM27.75 15.0001V26.0001C27.75 26.4642 27.5656 26.9093 27.2374 27.2375C26.9092 27.5657 26.4641 27.7501 26 27.7501H6C5.53587 27.7501 5.09075 27.5657 4.76256 27.2375C4.43437 26.9093 4.25 26.4642 4.25 26.0001V6.00007C4.25 5.53594 4.43437 5.09082 4.76256 4.76264C5.09075 4.43445 5.53587 4.25007 6 4.25007H17C17.1989 4.25007 17.3897 4.32909 17.5303 4.46974C17.671 4.61039 17.75 4.80116 17.75 5.00007C17.75 5.19898 17.671 5.38975 17.5303 5.5304C17.3897 5.67105 17.1989 5.75007 17 5.75007H6C5.9337 5.75007 5.87011 5.77641 5.82322 5.8233C5.77634 5.87018 5.75 5.93377 5.75 6.00007V26.0001C5.75 26.0664 5.77634 26.13 5.82322 26.1768C5.87011 26.2237 5.9337 26.2501 6 26.2501H26C26.0663 26.2501 26.1299 26.2237 26.1768 26.1768C26.2237 26.13 26.25 26.0664 26.25 26.0001V15.0001C26.25 14.8012 26.329 14.6104 26.4697 14.4697C26.6103 14.3291 26.8011 14.2501 27 14.2501C27.1989 14.2501 27.3897 14.3291 27.5303 14.4697C27.671 14.6104 27.75 14.8012 27.75 15.0001Z" fill="black"/>
</svg>
