<svg width="32" height="32" viewBox="0 0 32 32" fill="none" xmlns="http://www.w3.org/2000/svg">
<path d="M29.0613 6.93874L25.0613 2.93874C24.9219 2.7989 24.7563 2.68795 24.574 2.61224C24.3917 2.53653 24.1962 2.49756 23.9988 2.49756C23.8013 2.49756 23.6059 2.53653 23.4235 2.61224C23.2412 2.68795 23.0756 2.7989 22.9363 2.93874L10.9362 14.9387C10.6559 15.2207 10.499 15.6024 10.5 16V20C10.5 20.3978 10.658 20.7793 10.9393 21.0606C11.2206 21.342 11.6022 21.5 12 21.5H16C16.197 21.5001 16.3922 21.4615 16.5743 21.3862C16.7564 21.3109 16.9218 21.2005 17.0613 21.0612L29.0613 9.06124C29.2007 8.92193 29.3114 8.7565 29.3868 8.5744C29.4623 8.3923 29.5012 8.19711 29.5012 7.99999C29.5012 7.80287 29.4623 7.60768 29.3868 7.42558C29.3114 7.24348 29.2007 7.07805 29.0613 6.93874ZM24 6.12499L25.875 7.99999L24.5 9.37499L22.625 7.49999L24 6.12499ZM15.375 18.5H13.5V16.625L20.5 9.62499L22.375 11.5L15.375 18.5ZM28.5 16.5712V26C28.5 26.663 28.2366 27.2989 27.7678 27.7678C27.2989 28.2366 26.663 28.5 26 28.5H6C5.33696 28.5 4.70107 28.2366 4.23223 27.7678C3.76339 27.2989 3.5 26.663 3.5 26V5.99999C3.5 5.33695 3.76339 4.70107 4.23223 4.23222C4.70107 3.76338 5.33696 3.49999 6 3.49999H15.4288C15.8266 3.49999 16.2081 3.65803 16.4894 3.93933C16.7707 4.22064 16.9287 4.60217 16.9287 4.99999C16.9287 5.39782 16.7707 5.77935 16.4894 6.06065C16.2081 6.34196 15.8266 6.49999 15.4288 6.49999H6.5V25.5H25.5V16.5712C25.5 16.1734 25.658 15.7919 25.9393 15.5106C26.2206 15.2293 26.6022 15.0712 27 15.0712C27.3978 15.0712 27.7794 15.2293 28.0607 15.5106C28.342 15.7919 28.5 16.1734 28.5 16.5712Z" fill="black"/>
</svg>
