<svg width="32" height="32" viewBox="0 0 32 32" fill="none" xmlns="http://www.w3.org/2000/svg">
<path d="M26 3.5H6C5.33696 3.5 4.70107 3.76339 4.23223 4.23223C3.76339 4.70107 3.5 5.33696 3.5 6V26C3.5 26.663 3.76339 27.2989 4.23223 27.7678C4.70107 28.2366 5.33696 28.5 6 28.5H19.5863C19.9147 28.5009 20.24 28.4366 20.5434 28.3109C20.8468 28.1851 21.1222 28.0004 21.3538 27.7675L27.7675 21.3538C28.0004 21.1222 28.1851 20.8468 28.3109 20.5434C28.4366 20.24 28.5009 19.9147 28.5 19.5863V6C28.5 5.33696 28.2366 4.70107 27.7678 4.23223C27.2989 3.76339 26.663 3.5 26 3.5ZM6.5 6.5H25.5V18H19.5C19.1022 18 18.7206 18.158 18.4393 18.4393C18.158 18.7206 18 19.1022 18 19.5V25.5H6.5V6.5ZM21 23.875V21H23.875L21 23.875Z" fill="black"/>
</svg>
