<svg width="32" height="32" viewBox="0 0 32 32" fill="none" xmlns="http://www.w3.org/2000/svg">
<path d="M13.5 13.5C13.5 13.1022 13.658 12.7206 13.9393 12.4393C14.2206 12.158 14.6022 12 15 12H22C22.3978 12 22.7794 12.158 23.0607 12.4393C23.342 12.7206 23.5 13.1022 23.5 13.5C23.5 13.8978 23.342 14.2794 23.0607 14.5607C22.7794 14.842 22.3978 15 22 15H15C14.6022 15 14.2206 14.842 13.9393 14.5607C13.658 14.2794 13.5 13.8978 13.5 13.5ZM22 17H15C14.6022 17 14.2206 17.158 13.9393 17.4393C13.658 17.7206 13.5 18.1022 13.5 18.5C13.5 18.8978 13.658 19.2794 13.9393 19.5607C14.2206 19.842 14.6022 20 15 20H22C22.3978 20 22.7794 19.842 23.0607 19.5607C23.342 19.2794 23.5 18.8978 23.5 18.5C23.5 18.1022 23.342 17.7206 23.0607 17.4393C22.7794 17.158 22.3978 17 22 17ZM28.5 6V26C28.5 26.663 28.2366 27.2989 27.7678 27.7678C27.2989 28.2366 26.663 28.5 26 28.5H6C5.33696 28.5 4.70107 28.2366 4.23223 27.7678C3.76339 27.2989 3.5 26.663 3.5 26V6C3.5 5.33696 3.76339 4.70107 4.23223 4.23223C4.70107 3.76339 5.33696 3.5 6 3.5H26C26.663 3.5 27.2989 3.76339 27.7678 4.23223C28.2366 4.70107 28.5 5.33696 28.5 6ZM6.5 25.5H8.5V6.5H6.5V25.5ZM25.5 6.5H11.5V25.5H25.5V6.5Z" fill="black"/>
</svg>
