<svg width="32" height="32" viewBox="0 0 32 32" fill="none" xmlns="http://www.w3.org/2000/svg">
<path d="M10.5 13.5C10.5 13.1022 10.658 12.7206 10.9393 12.4393C11.2206 12.158 11.6022 12 12 12H20C20.3978 12 20.7794 12.158 21.0607 12.4393C21.342 12.7206 21.5 13.1022 21.5 13.5C21.5 13.8978 21.342 14.2794 21.0607 14.5607C20.7794 14.842 20.3978 15 20 15H12C11.6022 15 11.2206 14.842 10.9393 14.5607C10.658 14.2794 10.5 13.8978 10.5 13.5ZM14.5 17H12C11.6022 17 11.2206 17.158 10.9393 17.4393C10.658 17.7206 10.5 18.1022 10.5 18.5C10.5 18.8978 10.658 19.2794 10.9393 19.5607C11.2206 19.842 11.6022 20 12 20H14.5C14.8978 20 15.2794 19.842 15.5607 19.5607C15.842 19.2794 16 18.8978 16 18.5C16 18.1022 15.842 17.7206 15.5607 17.4393C15.2794 17.158 14.8978 17 14.5 17ZM28.5 6V19.5863C28.5009 19.9147 28.4366 20.24 28.3109 20.5434C28.1851 20.8468 28.0004 21.1222 27.7675 21.3538L21.3538 27.7675C21.1222 28.0004 20.8468 28.1851 20.5434 28.3109C20.24 28.4366 19.9147 28.5009 19.5863 28.5H6C5.33696 28.5 4.70107 28.2366 4.23223 27.7678C3.76339 27.2989 3.5 26.663 3.5 26V6C3.5 5.33696 3.76339 4.70107 4.23223 4.23223C4.70107 3.76339 5.33696 3.5 6 3.5H26C26.663 3.5 27.2989 3.76339 27.7678 4.23223C28.2366 4.70107 28.5 5.33696 28.5 6ZM6.5 25.5H18V19.5C18 19.1022 18.158 18.7206 18.4393 18.4393C18.7206 18.158 19.1022 18 19.5 18H25.5V6.5H6.5V25.5ZM23.875 21H21V23.875L23.875 21Z" fill="black"/>
</svg>
