<svg width="32" height="32" viewBox="0 0 32 32" fill="none" xmlns="http://www.w3.org/2000/svg">
<path d="M27 4.5H22C21.6022 4.5 21.2206 4.65804 20.9393 4.93934C20.658 5.22064 20.5 5.60218 20.5 6C20.5 6.39782 20.658 6.77936 20.9393 7.06066C21.2206 7.34196 21.6022 7.5 22 7.5H23V20.16L14.8138 5.2775C14.6844 5.04218 14.4943 4.84589 14.2632 4.70912C14.0321 4.57236 13.7685 4.50014 13.5 4.5H5C4.60218 4.5 4.22064 4.65804 3.93934 4.93934C3.65804 5.22064 3.5 5.60218 3.5 6C3.5 6.39782 3.65804 6.77936 3.93934 7.06066C4.22064 7.34196 4.60218 7.5 5 7.5H6V24.5H5C4.60218 24.5 4.22064 24.658 3.93934 24.9393C3.65804 25.2206 3.5 25.6022 3.5 26C3.5 26.3978 3.65804 26.7794 3.93934 27.0607C4.22064 27.342 4.60218 27.5 5 27.5H10C10.3978 27.5 10.7794 27.342 11.0607 27.0607C11.342 26.7794 11.5 26.3978 11.5 26C11.5 25.6022 11.342 25.2206 11.0607 24.9393C10.7794 24.658 10.3978 24.5 10 24.5H9V11.84L17.1863 26.7225C17.3156 26.9578 17.5057 27.1541 17.7368 27.2909C17.9679 27.4276 18.2315 27.4999 18.5 27.5H24.5C24.8978 27.5 25.2794 27.342 25.5607 27.0607C25.842 26.7794 26 26.3978 26 26V7.5H27C27.3978 7.5 27.7794 7.34196 28.0607 7.06066C28.342 6.77936 28.5 6.39782 28.5 6C28.5 5.60218 28.342 5.22064 28.0607 4.93934C27.7794 4.65804 27.3978 4.5 27 4.5ZM10.0375 7.5H12.6125L21.9625 24.5H19.3875L10.0375 7.5Z" fill="black"/>
</svg>
