<svg width="32" height="32" viewBox="0 0 32 32" fill="none" xmlns="http://www.w3.org/2000/svg">
<path d="M22.7501 19C22.7501 19.1989 22.6711 19.3897 22.5305 19.5304C22.3898 19.671 22.199 19.75 22.0001 19.75H19.7501V26C19.7501 26.1989 19.6711 26.3897 19.5305 26.5304C19.3898 26.671 19.199 26.75 19.0001 26.75C18.8012 26.75 18.6104 26.671 18.4698 26.5304C18.3291 26.3897 18.2501 26.1989 18.2501 26V19.75H9.00012C8.88021 19.7499 8.76208 19.721 8.65563 19.6658C8.54919 19.6106 8.45753 19.5306 8.38836 19.4327C8.31918 19.3347 8.2745 19.2216 8.25806 19.1029C8.24162 18.9841 8.2539 18.8631 8.29387 18.75L13.2939 4.75003C13.3666 4.57138 13.5054 4.42762 13.6813 4.34863C13.8573 4.26963 14.0569 4.26146 14.2388 4.32583C14.4206 4.39019 14.5707 4.52214 14.6577 4.69425C14.7448 4.86636 14.7622 5.06541 14.7064 5.25003L10.0639 18.25H18.2501V12C18.2501 11.8011 18.3291 11.6104 18.4698 11.4697C18.6104 11.3291 18.8012 11.25 19.0001 11.25C19.199 11.25 19.3898 11.3291 19.5305 11.4697C19.6711 11.6104 19.7501 11.8011 19.7501 12V18.25H22.0001C22.199 18.25 22.3898 18.3291 22.5305 18.4697C22.6711 18.6104 22.7501 18.8011 22.7501 19Z" fill="black"/>
</svg>
