<svg width="32" height="32" viewBox="0 0 32 32" fill="none" xmlns="http://www.w3.org/2000/svg">
<path d="M23.5 12C23.5 10.5166 23.0601 9.0666 22.236 7.83323C21.4119 6.59986 20.2406 5.63856 18.8701 5.07091C17.4997 4.50325 15.9917 4.35472 14.5368 4.64411C13.082 4.9335 11.7456 5.64781 10.6967 6.6967C9.64781 7.7456 8.9335 9.08197 8.64411 10.5368C8.35472 11.9917 8.50325 13.4997 9.07091 14.8701C9.63856 16.2406 10.5999 17.4119 11.8332 18.236C13.0666 19.0601 14.5166 19.5 16 19.5C16.3265 19.4995 16.6527 19.4773 16.9763 19.4338L13.6925 25.2638C13.4972 25.6105 13.4477 26.0207 13.5549 26.4039C13.662 26.7872 13.917 27.1122 14.2638 27.3075C14.6105 27.5028 15.0207 27.5523 15.4039 27.4452C15.7872 27.338 16.1122 27.083 16.3075 26.7363L22.5 15.7363C23.1566 14.6007 23.5016 13.3118 23.5 12ZM11.5 12C11.5 11.11 11.7639 10.24 12.2584 9.49994C12.7529 8.75992 13.4557 8.18314 14.2779 7.84255C15.1002 7.50195 16.005 7.41284 16.8779 7.58647C17.7508 7.7601 18.5526 8.18869 19.182 8.81802C19.8113 9.44736 20.2399 10.2492 20.4135 11.1221C20.5872 11.995 20.4981 12.8998 20.1575 13.7221C19.8169 14.5443 19.2401 15.2472 18.5001 15.7416C17.76 16.2361 16.89 16.5 16 16.5C14.8065 16.5 13.6619 16.0259 12.818 15.182C11.9741 14.3381 11.5 13.1935 11.5 12Z" fill="black"/>
</svg>
