<svg width="32" height="32" viewBox="0 0 32 32" fill="none" xmlns="http://www.w3.org/2000/svg">
<path d="M23.5002 19.0001C23.5002 19.3979 23.3422 19.7794 23.0609 20.0607C22.7796 20.342 22.3981 20.5001 22.0002 20.5001H20.5002V26.0001C20.5002 26.3979 20.3422 26.7794 20.0609 27.0607C19.7796 27.342 19.3981 27.5001 19.0002 27.5001C18.6024 27.5001 18.2209 27.342 17.9396 27.0607C17.6583 26.7794 17.5002 26.3979 17.5002 26.0001V20.5001H9.00024C8.76041 20.4998 8.52415 20.442 8.31126 20.3316C8.09837 20.2211 7.91507 20.0613 7.77671 19.8654C7.63836 19.6695 7.549 19.4433 7.51612 19.2057C7.48324 18.9681 7.5078 18.7262 7.58774 18.5001L12.5877 4.50006C12.6465 4.30591 12.744 4.12569 12.8744 3.9703C13.0048 3.81491 13.1653 3.68757 13.3463 3.596C13.5273 3.50443 13.725 3.45052 13.9274 3.43753C14.1298 3.42454 14.3328 3.45274 14.524 3.52043C14.7152 3.58811 14.8907 3.69388 15.0399 3.83133C15.1891 3.96878 15.3088 4.13506 15.3919 4.32011C15.475 4.50516 15.5196 4.70513 15.5232 4.90794C15.5268 5.11076 15.4892 5.31219 15.4127 5.50006L11.1252 17.5001H17.5002V12.0001C17.5002 11.6022 17.6583 11.2207 17.9396 10.9394C18.2209 10.6581 18.6024 10.5001 19.0002 10.5001C19.3981 10.5001 19.7796 10.6581 20.0609 10.9394C20.3422 11.2207 20.5002 11.6022 20.5002 12.0001V17.5001H22.0002C22.3981 17.5001 22.7796 17.6581 23.0609 17.9394C23.3422 18.2207 23.5002 18.6022 23.5002 19.0001Z" fill="black"/>
</svg>
