<svg width="32" height="32" viewBox="0 0 32 32" fill="none" xmlns="http://www.w3.org/2000/svg">
<path d="M26 3.5H6C5.33696 3.5 4.70107 3.76339 4.23223 4.23223C3.76339 4.70107 3.5 5.33696 3.5 6V26C3.5 26.663 3.76339 27.2989 4.23223 27.7678C4.70107 28.2366 5.33696 28.5 6 28.5H26C26.663 28.5 27.2989 28.2366 27.7678 27.7678C28.2366 27.2989 28.5 26.663 28.5 26V6C28.5 5.33696 28.2366 4.70107 27.7678 4.23223C27.2989 3.76339 26.663 3.5 26 3.5ZM25.5 25.5H6.5V6.5H25.5V25.5ZM11.52 15.75L12.52 9.75C12.5791 9.40031 12.7602 9.08288 13.0311 8.85404C13.3021 8.6252 13.6454 8.49977 14 8.5H19C19.3978 8.5 19.7794 8.65804 20.0607 8.93934C20.342 9.22064 20.5 9.60218 20.5 10C20.5 10.3978 20.342 10.7794 20.0607 11.0607C19.7794 11.342 19.3978 11.5 19 11.5H15.2712L14.9325 13.5288C15.1211 13.5097 15.3105 13.5001 15.5 13.5C16.8261 13.5 18.0979 14.0268 19.0355 14.9645C19.9732 15.9021 20.5 17.1739 20.5 18.5C20.5 19.8261 19.9732 21.0979 19.0355 22.0355C18.0979 22.9732 16.8261 23.5 15.5 23.5C14.8379 23.5099 14.1807 23.3867 13.5672 23.1376C12.9537 22.8885 12.3965 22.5186 11.9288 22.05C11.7909 21.9093 11.682 21.7429 11.6085 21.5601C11.5349 21.3774 11.4981 21.1819 11.5 20.985C11.502 20.788 11.5428 20.5933 11.62 20.4121C11.6972 20.2309 11.8093 20.0666 11.95 19.9287C12.0907 19.7909 12.2571 19.682 12.4399 19.6085C12.6226 19.5349 12.818 19.4981 13.015 19.5C13.212 19.502 13.4067 19.5428 13.5879 19.62C13.7691 19.6972 13.9334 19.8093 14.0712 19.95C14.2597 20.1337 14.4836 20.2771 14.7292 20.3717C14.9748 20.4662 15.237 20.5099 15.5 20.5C16.0304 20.5 16.5391 20.2893 16.9142 19.9142C17.2893 19.5391 17.5 19.0304 17.5 18.5C17.5 17.9696 17.2893 17.4609 16.9142 17.0858C16.5391 16.7107 16.0304 16.5 15.5 16.5C15.237 16.4901 14.9748 16.5338 14.7292 16.6283C14.4836 16.7229 14.2597 16.8663 14.0712 17.05C13.8478 17.2785 13.5571 17.4297 13.2417 17.4815C12.9263 17.5332 12.6026 17.4829 12.3178 17.3377C12.033 17.1926 11.802 16.9603 11.6585 16.6747C11.515 16.3891 11.4665 16.0651 11.52 15.75Z" fill="black"/>
</svg>
