<svg width="32" height="32" viewBox="0 0 32 32" fill="none" xmlns="http://www.w3.org/2000/svg">
<path d="M26 3.5H6C5.33696 3.5 4.70107 3.76339 4.23223 4.23223C3.76339 4.70107 3.5 5.33696 3.5 6V26C3.5 26.663 3.76339 27.2989 4.23223 27.7678C4.70107 28.2366 5.33696 28.5 6 28.5H26C26.663 28.5 27.2989 28.2366 27.7678 27.7678C28.2366 27.2989 28.5 26.663 28.5 26V6C28.5 5.33696 28.2366 4.70107 27.7678 4.23223C27.2989 3.76339 26.663 3.5 26 3.5ZM25.5 25.5H6.5V6.5H25.5V25.5ZM12.25 12.8325C12.1404 12.6684 12.0643 12.4843 12.026 12.2908C11.9877 12.0973 11.9879 11.8981 12.0267 11.7046C12.0655 11.5112 12.142 11.3273 12.252 11.1635C12.362 10.9997 12.5032 10.8592 12.6675 10.75L15.6675 8.75C15.8935 8.59919 16.1563 8.51261 16.4277 8.49952C16.6991 8.48642 16.969 8.54731 17.2085 8.67566C17.448 8.80401 17.6482 8.99502 17.7876 9.22827C17.927 9.46153 18.0004 9.72827 18 10V22C18 22.3978 17.842 22.7794 17.5607 23.0607C17.2794 23.342 16.8978 23.5 16.5 23.5C16.1022 23.5 15.7206 23.342 15.4393 23.0607C15.158 22.7794 15 22.3978 15 22V12.8025L14.3325 13.25C14.1684 13.3596 13.9843 13.4357 13.7908 13.474C13.5973 13.5123 13.3981 13.5121 13.2046 13.4733C13.0112 13.4345 12.8273 13.358 12.6635 13.248C12.4997 13.138 12.3592 12.9968 12.25 12.8325Z" fill="black"/>
</svg>
