<svg width="32" height="32" viewBox="0 0 32 32" fill="none" xmlns="http://www.w3.org/2000/svg">
<path d="M16 2.5C13.33 2.5 10.7199 3.29176 8.49981 4.77516C6.27974 6.25856 4.54942 8.36697 3.52763 10.8338C2.50585 13.3006 2.2385 16.015 2.7594 18.6337C3.28031 21.2525 4.56606 23.6579 6.45406 25.5459C8.34207 27.434 10.7475 28.7197 13.3663 29.2406C15.985 29.7615 18.6994 29.4942 21.1662 28.4724C23.633 27.4506 25.7414 25.7203 27.2248 23.5002C28.7082 21.2801 29.5 18.67 29.5 16C29.496 12.4208 28.0724 8.98932 25.5416 6.45844C23.0107 3.92756 19.5792 2.50397 16 2.5ZM16 26.5C13.9233 26.5 11.8932 25.8842 10.1665 24.7304C8.4398 23.5767 7.09399 21.9368 6.29927 20.0182C5.50455 18.0996 5.29662 15.9884 5.70176 13.9516C6.10691 11.9148 7.10693 10.0438 8.57538 8.57538C10.0438 7.10693 11.9148 6.1069 13.9516 5.70175C15.9884 5.29661 18.0996 5.50454 20.0182 6.29926C21.9368 7.09399 23.5767 8.4398 24.7304 10.1665C25.8842 11.8932 26.5 13.9233 26.5 16C26.497 18.7839 25.3898 21.4528 23.4213 23.4213C21.4529 25.3898 18.7839 26.497 16 26.5ZM20.5 19C20.5001 19.9933 20.2044 20.9641 19.6505 21.7886C19.0967 22.6131 18.3098 23.254 17.3902 23.6295C16.4706 24.005 15.4601 24.0981 14.4874 23.8969C13.5147 23.6958 12.6239 23.2094 11.9288 22.5C11.7855 22.3605 11.6716 22.1937 11.5938 22.0096C11.5159 21.8254 11.4757 21.6276 11.4754 21.4276C11.4751 21.2277 11.5148 21.0297 11.5922 20.8453C11.6695 20.6609 11.7829 20.4939 11.9257 20.354C12.0686 20.2141 12.2379 20.1041 12.4239 20.0306C12.6098 19.9571 12.8086 19.9215 13.0085 19.9259C13.2083 19.9303 13.4053 19.9746 13.5879 20.0562C13.7704 20.1379 13.9347 20.2552 14.0713 20.4013C14.3022 20.6364 14.5877 20.8109 14.9023 20.9091C15.2169 21.0073 15.5509 21.0263 15.8746 20.9643C16.1984 20.9023 16.5017 20.7612 16.7578 20.5536C17.0138 20.3461 17.2146 20.0784 17.3422 19.7746C17.4699 19.4707 17.5205 19.14 17.4894 18.8118C17.4584 18.4837 17.3468 18.1683 17.1645 17.8937C16.9822 17.6191 16.7348 17.3939 16.4444 17.2379C16.154 17.082 15.8296 17.0003 15.5 17C15.2257 17 14.9566 16.9247 14.722 16.7823C14.4875 16.64 14.2965 16.4361 14.1698 16.1927C14.0431 15.9494 13.9855 15.6759 14.0034 15.4022C14.0213 15.1284 14.114 14.8648 14.2713 14.64L16.125 12H13C12.6022 12 12.2206 11.842 11.9393 11.5607C11.658 11.2794 11.5 10.8978 11.5 10.5C11.5 10.1022 11.658 9.72064 11.9393 9.43934C12.2206 9.15804 12.6022 9 13 9H19C19.2744 9.00004 19.5434 9.07533 19.778 9.21767C20.0125 9.36 20.2035 9.56394 20.3302 9.80728C20.4569 10.0506 20.5145 10.3241 20.4966 10.5978C20.4787 10.8716 20.3861 11.1352 20.2288 11.36L17.9363 14.635C18.7134 15.0686 19.3607 15.7017 19.8114 16.4691C20.262 17.2364 20.4998 18.1101 20.5 19Z" fill="black"/>
</svg>
