<svg width="32" height="32" viewBox="0 0 32 32" fill="none" xmlns="http://www.w3.org/2000/svg">
<path d="M22.5001 19C22.5001 19.1326 22.4474 19.2598 22.3537 19.3535C22.2599 19.4473 22.1327 19.5 22.0001 19.5H19.5001V26C19.5001 26.1326 19.4474 26.2598 19.3537 26.3535C19.2599 26.4473 19.1327 26.5 19.0001 26.5C18.8675 26.5 18.7403 26.4473 18.6465 26.3535C18.5528 26.2598 18.5001 26.1326 18.5001 26V19.5H9.0001C8.91987 19.5001 8.8408 19.4809 8.76956 19.444C8.69832 19.4071 8.63701 19.3536 8.5908 19.288C8.54458 19.2224 8.51483 19.1467 8.50405 19.0672C8.49327 18.9877 8.50177 18.9068 8.52885 18.8312L13.5288 4.83124C13.5509 4.76936 13.585 4.71242 13.6291 4.6637C13.6731 4.61497 13.7264 4.57541 13.7858 4.54726C13.8451 4.51911 13.9095 4.50293 13.9751 4.49965C14.0407 4.49636 14.1063 4.50604 14.1682 4.52812C14.2301 4.55019 14.287 4.58425 14.3358 4.62833C14.3845 4.67241 14.4241 4.72565 14.4522 4.78502C14.4804 4.8444 14.4965 4.90873 14.4998 4.97435C14.5031 5.03998 14.4934 5.10561 14.4713 5.16749L9.7101 18.5H18.5001V12C18.5001 11.8674 18.5528 11.7402 18.6465 11.6464C18.7403 11.5527 18.8675 11.5 19.0001 11.5C19.1327 11.5 19.2599 11.5527 19.3537 11.6464C19.4474 11.7402 19.5001 11.8674 19.5001 12V18.5H22.0001C22.1327 18.5 22.2599 18.5527 22.3537 18.6464C22.4474 18.7402 22.5001 18.8674 22.5001 19Z" fill="black"/>
</svg>
