<svg width="32" height="32" viewBox="0 0 32 32" fill="none" xmlns="http://www.w3.org/2000/svg">
<path d="M26 3.5H6C5.33696 3.5 4.70107 3.76339 4.23223 4.23223C3.76339 4.70107 3.5 5.33696 3.5 6V26C3.5 26.663 3.76339 27.2989 4.23223 27.7678C4.70107 28.2366 5.33696 28.5 6 28.5H26C26.663 28.5 27.2989 28.2366 27.7678 27.7678C28.2366 27.2989 28.5 26.663 28.5 26V6C28.5 5.33696 28.2366 4.70107 27.7678 4.23223C27.2989 3.76339 26.663 3.5 26 3.5ZM25.5 25.5H6.5V6.5H25.5V25.5ZM11 19C10.9991 19.8275 11.2037 20.6424 11.5953 21.3714C11.9869 22.1004 12.5533 22.7208 13.2437 23.177C13.9342 23.6332 14.7271 23.9108 15.5512 23.9851C16.3754 24.0594 17.2052 23.9279 17.9661 23.6025C18.7269 23.2771 19.3952 22.768 19.9108 22.1207C20.4264 21.4734 20.7733 20.7083 20.9204 19.894C21.0675 19.0796 21.0101 18.2415 20.7535 17.4547C20.4969 16.668 20.049 15.9572 19.45 15.3862C19.9997 14.7298 20.3508 13.9302 20.4619 13.0812C20.5731 12.2322 20.4397 11.3691 20.0775 10.5933C19.7152 9.81746 19.1392 9.16108 18.4169 8.7012C17.6947 8.24132 16.8562 7.99705 16 7.99705C15.1438 7.99705 14.3053 8.24132 13.5831 8.7012C12.8608 9.16108 12.2848 9.81746 11.9225 10.5933C11.5603 11.3691 11.4269 12.2322 11.5381 13.0812C11.6492 13.9302 12.0003 14.7298 12.55 15.3862C12.0601 15.852 11.67 16.4125 11.4035 17.0338C11.1371 17.655 10.9998 18.324 11 19ZM16 21C15.6044 21 15.2178 20.8827 14.8889 20.6629C14.56 20.4432 14.3036 20.1308 14.1522 19.7654C14.0009 19.3999 13.9613 18.9978 14.0384 18.6098C14.1156 18.2219 14.3061 17.8655 14.5858 17.5858C14.8655 17.3061 15.2219 17.1156 15.6098 17.0384C15.9978 16.9613 16.3999 17.0009 16.7654 17.1522C17.1308 17.3036 17.4432 17.56 17.6629 17.8889C17.8827 18.2178 18 18.6044 18 19C18 19.5304 17.7893 20.0391 17.4142 20.4142C17.0391 20.7893 16.5304 21 16 21ZM14.5 12.5C14.5 12.2033 14.588 11.9133 14.7528 11.6666C14.9176 11.42 15.1519 11.2277 15.426 11.1142C15.7001 11.0006 16.0017 10.9709 16.2926 11.0288C16.5836 11.0867 16.8509 11.2296 17.0607 11.4393C17.2704 11.6491 17.4133 11.9164 17.4712 12.2074C17.5291 12.4983 17.4993 12.7999 17.3858 13.074C17.2723 13.3481 17.08 13.5824 16.8334 13.7472C16.5867 13.912 16.2967 14 16 14C15.6022 14 15.2206 13.842 14.9393 13.5607C14.658 13.2794 14.5 12.8978 14.5 12.5Z" fill="black"/>
</svg>
