<svg width="32" height="32" viewBox="0 0 32 32" fill="none" xmlns="http://www.w3.org/2000/svg">
<path d="M22.4363 6.43125L16.4363 26.4312C16.3435 26.7401 16.1538 27.0109 15.895 27.2034C15.6363 27.3959 15.3225 27.4999 15 27.5C14.8539 27.5002 14.7086 27.4787 14.5688 27.4363C14.1888 27.3207 13.8702 27.0593 13.6827 26.7092C13.4953 26.3591 13.4543 25.949 13.5688 25.5688L18.9837 7.5H11C10.6022 7.5 10.2206 7.34196 9.93934 7.06066C9.65804 6.77936 9.5 6.39782 9.5 6C9.5 5.60218 9.65804 5.22064 9.93934 4.93934C10.2206 4.65804 10.6022 4.5 11 4.5H21C21.2338 4.50007 21.4644 4.55479 21.6733 4.65982C21.8822 4.76484 22.0637 4.91724 22.2032 5.10487C22.3427 5.29249 22.4365 5.51014 22.477 5.74044C22.5174 5.97073 22.5035 6.2073 22.4363 6.43125Z" fill="black"/>
</svg>
