<svg width="32" height="32" viewBox="0 0 32 32" fill="none" xmlns="http://www.w3.org/2000/svg">
<path d="M16 2.5C13.33 2.5 10.7199 3.29176 8.49981 4.77516C6.27974 6.25856 4.54942 8.36697 3.52763 10.8338C2.50585 13.3006 2.2385 16.015 2.7594 18.6337C3.28031 21.2525 4.56606 23.6579 6.45406 25.5459C8.34207 27.434 10.7475 28.7197 13.3663 29.2406C15.985 29.7615 18.6994 29.4942 21.1662 28.4724C23.633 27.4506 25.7414 25.7203 27.2248 23.5002C28.7082 21.2801 29.5 18.67 29.5 16C29.496 12.4208 28.0724 8.98932 25.5416 6.45844C23.0107 3.92756 19.5792 2.50397 16 2.5ZM16 26.5C13.9233 26.5 11.8932 25.8842 10.1665 24.7304C8.4398 23.5767 7.09399 21.9368 6.29927 20.0182C5.50455 18.0996 5.29662 15.9884 5.70176 13.9516C6.10691 11.9148 7.10693 10.0438 8.57538 8.57538C10.0438 7.10693 11.9148 6.1069 13.9516 5.70175C15.9884 5.29661 18.0996 5.50454 20.0182 6.29926C21.9368 7.09399 23.5767 8.4398 24.7304 10.1665C25.8842 11.8932 26.5 13.9233 26.5 16C26.497 18.7839 25.3898 21.4528 23.4213 23.4213C21.4529 25.3898 18.7839 26.497 16 26.5ZM21.5 18C21.5 18.3978 21.342 18.7794 21.0607 19.0607C20.7794 19.342 20.3978 19.5 20 19.5H19.5V22C19.5 22.3978 19.342 22.7794 19.0607 23.0607C18.7794 23.342 18.3978 23.5 18 23.5C17.6022 23.5 17.2207 23.342 16.9393 23.0607C16.658 22.7794 16.5 22.3978 16.5 22V19.5H12C11.76 19.5001 11.5234 19.4426 11.3102 19.3324C11.097 19.2221 10.9133 19.0623 10.7747 18.8663C10.6361 18.6704 10.5465 18.444 10.5135 18.2063C10.4805 17.9685 10.505 17.7263 10.585 17.5L13.585 9C13.7176 8.62472 13.9939 8.31749 14.353 8.14589C14.7121 7.97429 15.1247 7.95239 15.5 8.085C15.8753 8.21761 16.1825 8.49386 16.3541 8.853C16.5257 9.21213 16.5476 9.62472 16.415 10L14.125 16.5H16.5V14.5C16.5 14.1022 16.658 13.7206 16.9393 13.4393C17.2207 13.158 17.6022 13 18 13C18.3978 13 18.7794 13.158 19.0607 13.4393C19.342 13.7206 19.5 14.1022 19.5 14.5V16.5H20C20.3978 16.5 20.7794 16.658 21.0607 16.9393C21.342 17.2206 21.5 17.6022 21.5 18Z" fill="black"/>
</svg>
