<svg width="32" height="32" viewBox="0 0 32 32" fill="none" xmlns="http://www.w3.org/2000/svg">
<path d="M16 13.25C15.1463 13.2497 14.3004 13.4122 13.5075 13.7287L17.6537 6.37499C17.7514 6.2016 17.7761 5.99653 17.7226 5.8049C17.669 5.61326 17.5415 5.45075 17.3681 5.35311C17.1947 5.25548 16.9897 5.23072 16.798 5.28429C16.6064 5.33785 16.4439 5.46535 16.3462 5.63874L10.1537 16.6387C9.414 17.927 9.1199 19.4233 9.31703 20.8957C9.51416 22.3681 10.1915 23.7344 11.2441 24.7827C12.2967 25.831 13.6657 26.5027 15.1388 26.6939C16.612 26.885 18.1071 26.5848 19.3924 25.8398C20.6776 25.0949 21.6812 23.9467 22.2475 22.5734C22.8139 21.2 22.9114 19.6782 22.5249 18.2438C22.1384 16.8094 21.2895 15.5426 20.1098 14.6397C18.9301 13.7369 17.4855 13.2484 16 13.25ZM16 25.25C14.9616 25.25 13.9466 24.9421 13.0832 24.3652C12.2199 23.7883 11.547 22.9684 11.1496 22.0091C10.7523 21.0498 10.6483 19.9942 10.8509 18.9758C11.0534 17.9574 11.5535 17.0219 12.2877 16.2877C13.0219 15.5535 13.9574 15.0534 14.9758 14.8509C15.9942 14.6483 17.0498 14.7523 18.0091 15.1496C18.9684 15.547 19.7883 16.2199 20.3652 17.0832C20.9421 17.9466 21.25 18.9616 21.25 20C21.25 21.3924 20.6969 22.7277 19.7123 23.7123C18.7277 24.6969 17.3924 25.25 16 25.25Z" fill="black"/>
</svg>
