<svg width="32" height="32" viewBox="0 0 32 32" fill="none" xmlns="http://www.w3.org/2000/svg">
<path d="M26 3.5H6C5.33696 3.5 4.70107 3.76339 4.23223 4.23223C3.76339 4.70107 3.5 5.33696 3.5 6V26C3.5 26.663 3.76339 27.2989 4.23223 27.7678C4.70107 28.2366 5.33696 28.5 6 28.5H26C26.663 28.5 27.2989 28.2366 27.7678 27.7678C28.2366 27.2989 28.5 26.663 28.5 26V6C28.5 5.33696 28.2366 4.70107 27.7678 4.23223C27.2989 3.76339 26.663 3.5 26 3.5ZM25.5 25.5H6.5V6.5H25.5V25.5ZM17.1963 13.905C17.3152 13.7477 17.4019 13.5685 17.4515 13.3777C17.5011 13.1869 17.5126 12.9881 17.4853 12.7928C17.458 12.5976 17.3925 12.4096 17.2925 12.2397C17.1925 12.0697 17.06 11.9212 16.9025 11.8025C16.5849 11.5633 16.1852 11.46 15.7914 11.5153C15.3976 11.5706 15.0419 11.78 14.8025 12.0975C14.7093 12.2194 14.6359 12.3553 14.585 12.5C14.4524 12.8751 14.1762 13.1822 13.8172 13.3537C13.4582 13.5251 13.0457 13.547 12.6706 13.4144C12.2955 13.2818 11.9884 13.0056 11.817 12.6466C11.6455 12.2875 11.6236 11.8751 11.7563 11.5C11.9106 11.0666 12.1298 10.659 12.4062 10.2913C13.1247 9.33813 14.1923 8.70943 15.3742 8.54346C15.9595 8.46128 16.5551 8.49518 17.1273 8.64321C17.6994 8.79125 18.2368 9.05053 18.7087 9.40625C19.1807 9.76197 19.5779 10.2072 19.8778 10.7164C20.1777 11.2256 20.3744 11.789 20.4565 12.3742C20.5387 12.9595 20.5048 13.5551 20.3568 14.1273C20.2087 14.6994 19.9495 15.2368 19.5938 15.7087L16 20.5H19C19.3978 20.5 19.7794 20.658 20.0607 20.9393C20.342 21.2206 20.5 21.6022 20.5 22C20.5 22.3978 20.342 22.7794 20.0607 23.0607C19.7794 23.342 19.3978 23.5 19 23.5H13C12.7214 23.5 12.4484 23.4224 12.2114 23.276C11.9744 23.1295 11.7829 22.92 11.6584 22.6708C11.5338 22.4217 11.481 22.1427 11.5061 21.8653C11.5311 21.5878 11.6329 21.3229 11.8 21.1L17.1963 13.905Z" fill="black"/>
</svg>
