<svg width="32" height="32" viewBox="0 0 32 32" fill="none" xmlns="http://www.w3.org/2000/svg">
<path d="M19.4438 14.9088C20.4885 14.1765 21.2726 13.1304 21.6823 11.9221C22.0919 10.7139 22.1058 9.40656 21.7219 8.18991C21.338 6.97327 20.5762 5.91067 19.5473 5.1564C18.5184 4.40214 17.2758 3.99548 16 3.99548C14.7242 3.99548 13.4816 4.40214 12.4527 5.1564C11.4238 5.91067 10.662 6.97327 10.2781 8.18991C9.8942 9.40656 9.90808 10.7139 10.3177 11.9221C10.7274 13.1304 11.5115 14.1765 12.5563 14.9088C11.2099 15.6696 10.1533 16.8549 9.55159 18.2795C8.94988 19.7041 8.83687 21.2879 9.23021 22.7835C9.62356 24.2792 10.5011 25.6024 11.7258 26.5467C12.9506 27.491 14.4535 28.0031 16 28.0031C17.5465 28.0031 19.0494 27.491 20.2742 26.5467C21.4989 25.6024 22.3764 24.2792 22.7698 22.7835C23.1631 21.2879 23.0501 19.7041 22.4484 18.2795C21.8467 16.8549 20.7901 15.6696 19.4438 14.9088ZM12 10C12 9.20892 12.2346 8.43556 12.6741 7.77776C13.1137 7.11996 13.7384 6.60727 14.4693 6.30452C15.2002 6.00177 16.0044 5.92256 16.7804 6.0769C17.5563 6.23124 18.269 6.6122 18.8284 7.17161C19.3878 7.73102 19.7688 8.44376 19.9231 9.21968C20.0775 9.9956 19.9983 10.7999 19.6955 11.5308C19.3928 12.2617 18.8801 12.8864 18.2223 13.3259C17.5645 13.7654 16.7911 14 16 14C14.9391 14 13.9217 13.5786 13.1716 12.8285C12.4214 12.0783 12 11.0609 12 10ZM16 26C15.0111 26 14.0444 25.7068 13.2222 25.1574C12.3999 24.608 11.759 23.8271 11.3806 22.9135C11.0022 21.9998 10.9031 20.9945 11.0961 20.0246C11.289 19.0547 11.7652 18.1638 12.4645 17.4645C13.1637 16.7652 14.0546 16.289 15.0246 16.0961C15.9945 15.9032 16.9998 16.0022 17.9134 16.3806C18.8271 16.7591 19.6079 17.3999 20.1574 18.2222C20.7068 19.0444 21 20.0111 21 21C21 22.3261 20.4732 23.5979 19.5355 24.5356C18.5979 25.4733 17.3261 26 16 26Z" fill="black"/>
</svg>
