<svg width="32" height="32" viewBox="0 0 32 32" fill="none" xmlns="http://www.w3.org/2000/svg">
<path d="M16 23.5C19.5325 23.5 22 20.4163 22 16C22 11.5837 19.5325 8.5 16 8.5C12.4675 8.5 10 11.5837 10 16C10 20.4163 12.4675 23.5 16 23.5ZM16 11.5C18.9163 11.5 19 15.54 19 16C19 16.46 18.9163 20.5 16 20.5C13.0837 20.5 13 16.46 13 16C13 15.54 13.0837 11.5 16 11.5ZM26 3.5H6C5.33696 3.5 4.70107 3.76339 4.23223 4.23223C3.76339 4.70107 3.5 5.33696 3.5 6V26C3.5 26.663 3.76339 27.2989 4.23223 27.7678C4.70107 28.2366 5.33696 28.5 6 28.5H26C26.663 28.5 27.2989 28.2366 27.7678 27.7678C28.2366 27.2989 28.5 26.663 28.5 26V6C28.5 5.33696 28.2366 4.70107 27.7678 4.23223C27.2989 3.76339 26.663 3.5 26 3.5ZM25.5 25.5H6.5V6.5H25.5V25.5Z" fill="black"/>
</svg>
