<svg width="32" height="32" viewBox="0 0 32 32" fill="none" xmlns="http://www.w3.org/2000/svg">
<path d="M26 3.5H6C5.33696 3.5 4.70107 3.76339 4.23223 4.23223C3.76339 4.70107 3.5 5.33696 3.5 6V26C3.5 26.663 3.76339 27.2989 4.23223 27.7678C4.70107 28.2366 5.33696 28.5 6 28.5H26C26.663 28.5 27.2989 28.2366 27.7678 27.7678C28.2366 27.2989 28.5 26.663 28.5 26V6C28.5 5.33696 28.2366 4.70107 27.7678 4.23223C27.2989 3.76339 26.663 3.5 26 3.5ZM25.5 25.5H6.5V6.5H25.5V25.5ZM10.775 18.8662C10.6363 18.6703 10.5467 18.444 10.5136 18.2063C10.4806 17.9685 10.505 17.7263 10.585 17.5L13.585 9C13.7176 8.62472 13.9939 8.31749 14.353 8.14589C14.7121 7.97429 15.1247 7.95239 15.5 8.085C15.8753 8.21761 16.1825 8.49386 16.3541 8.853C16.5257 9.21213 16.5476 9.62472 16.415 10L14.125 16.5H16.5V14.5C16.5 14.1022 16.658 13.7206 16.9393 13.4393C17.2206 13.158 17.6022 13 18 13C18.3978 13 18.7794 13.158 19.0607 13.4393C19.342 13.7206 19.5 14.1022 19.5 14.5V16.5H20C20.3978 16.5 20.7794 16.658 21.0607 16.9393C21.342 17.2206 21.5 17.6022 21.5 18C21.5 18.3978 21.342 18.7794 21.0607 19.0607C20.7794 19.342 20.3978 19.5 20 19.5H19.5V22C19.5 22.3978 19.342 22.7794 19.0607 23.0607C18.7794 23.342 18.3978 23.5 18 23.5C17.6022 23.5 17.2206 23.342 16.9393 23.0607C16.658 22.7794 16.5 22.3978 16.5 22V19.5H12C11.76 19.5001 11.5235 19.4425 11.3103 19.3323C11.0972 19.222 10.9136 19.0622 10.775 18.8662Z" fill="black"/>
</svg>
