<svg width="32" height="32" viewBox="0 0 32 32" fill="none" xmlns="http://www.w3.org/2000/svg">
<path d="M16 2.5C13.33 2.5 10.7199 3.29176 8.49981 4.77516C6.27974 6.25856 4.54942 8.36697 3.52763 10.8338C2.50585 13.3006 2.2385 16.015 2.7594 18.6337C3.28031 21.2525 4.56606 23.6579 6.45406 25.5459C8.34207 27.434 10.7475 28.7197 13.3663 29.2406C15.985 29.7615 18.6994 29.4942 21.1662 28.4724C23.633 27.4506 25.7414 25.7203 27.2248 23.5002C28.7082 21.2801 29.5 18.67 29.5 16C29.496 12.4208 28.0724 8.98932 25.5416 6.45844C23.0107 3.92756 19.5792 2.50397 16 2.5ZM16 26.5C13.9233 26.5 11.8932 25.8842 10.1665 24.7304C8.4398 23.5767 7.09399 21.9368 6.29927 20.0182C5.50455 18.0996 5.29662 15.9884 5.70176 13.9516C6.10691 11.9148 7.10693 10.0438 8.57538 8.57538C10.0438 7.10693 11.9148 6.1069 13.9516 5.70175C15.9884 5.29661 18.0996 5.50454 20.0182 6.29926C21.9368 7.09399 23.5767 8.4398 24.7304 10.1665C25.8842 11.8932 26.5 13.9233 26.5 16C26.497 18.7839 25.3898 21.4528 23.4213 23.4213C21.4529 25.3898 18.7839 26.497 16 26.5ZM19.45 15.3862C19.9997 14.7298 20.3508 13.9302 20.4619 13.0812C20.5731 12.2322 20.4397 11.3691 20.0775 10.5933C19.7152 9.81746 19.1392 9.16108 18.4169 8.7012C17.6947 8.24132 16.8562 7.99705 16 7.99705C15.1438 7.99705 14.3053 8.24132 13.5831 8.7012C12.8608 9.16108 12.2848 9.81746 11.9225 10.5933C11.5603 11.3691 11.4269 12.2322 11.5381 13.0812C11.6492 13.9302 12.0003 14.7298 12.55 15.3862C11.8269 16.0756 11.3268 16.9658 11.1144 17.9421C10.9019 18.9183 10.9868 19.9358 11.3581 20.8634C11.7293 21.7909 12.37 22.5859 13.1974 23.146C14.0247 23.706 15.0009 24.0053 16 24.0053C16.9991 24.0053 17.9753 23.706 18.8027 23.146C19.63 22.5859 20.2707 21.7909 20.6419 20.8634C21.0132 19.9358 21.0981 18.9183 20.8857 17.9421C20.6732 16.9658 20.1732 16.0756 19.45 15.3862ZM14.5 12.5C14.5 12.2033 14.588 11.9133 14.7528 11.6666C14.9176 11.42 15.1519 11.2277 15.426 11.1142C15.7001 11.0006 16.0017 10.9709 16.2926 11.0288C16.5836 11.0867 16.8509 11.2296 17.0607 11.4393C17.2704 11.6491 17.4133 11.9164 17.4712 12.2074C17.5291 12.4983 17.4994 12.7999 17.3858 13.074C17.2723 13.3481 17.08 13.5824 16.8334 13.7472C16.5867 13.912 16.2967 14 16 14C15.6022 14 15.2206 13.842 14.9393 13.5607C14.658 13.2794 14.5 12.8978 14.5 12.5ZM16 21C15.6044 21 15.2178 20.8827 14.8889 20.6629C14.56 20.4432 14.3036 20.1308 14.1522 19.7654C14.0009 19.3999 13.9613 18.9978 14.0384 18.6098C14.1156 18.2219 14.3061 17.8655 14.5858 17.5858C14.8655 17.3061 15.2219 17.1156 15.6098 17.0384C15.9978 16.9613 16.3999 17.0009 16.7654 17.1522C17.1308 17.3036 17.4432 17.56 17.6629 17.8889C17.8827 18.2178 18 18.6044 18 19C18 19.5304 17.7893 20.0391 17.4142 20.4142C17.0391 20.7893 16.5304 21 16 21Z" fill="black"/>
</svg>
