<svg width="32" height="32" viewBox="0 0 32 32" fill="none" xmlns="http://www.w3.org/2000/svg">
<path d="M22.4999 20C22.4998 21.4478 22.0808 22.8647 21.2932 24.0795C20.5057 25.2944 19.3833 26.2553 18.0617 26.8464C16.74 27.4374 15.2755 27.6333 13.845 27.4104C12.4144 27.1874 11.079 26.5552 9.99987 25.59C9.84788 25.4602 9.72337 25.3013 9.63366 25.1226C9.54396 24.944 9.49085 24.7493 9.47748 24.5498C9.46411 24.3504 9.49073 24.1503 9.55579 23.9613C9.62085 23.7723 9.72303 23.5982 9.85633 23.4492C9.98962 23.3002 10.1513 23.1794 10.332 23.0939C10.5126 23.0083 10.7086 22.9597 10.9083 22.9509C11.108 22.9421 11.3074 22.9734 11.4949 23.0428C11.6823 23.1121 11.854 23.2183 11.9999 23.355C12.6438 23.9306 13.4398 24.3088 14.2928 24.4443C15.1458 24.5799 16.0198 24.467 16.8105 24.1193C17.6011 23.7716 18.275 23.2037 18.7517 22.4835C19.2283 21.7632 19.4876 20.9209 19.4986 20.0573C19.5096 19.1936 19.2718 18.3451 18.8136 17.6129C18.3554 16.8807 17.6962 16.2959 16.9146 15.9282C16.1331 15.5605 15.2622 15.4255 14.406 15.5393C13.5498 15.6531 12.7445 16.0109 12.0861 16.57C11.8488 16.7717 11.5545 16.8946 11.2442 16.9215C10.9339 16.9484 10.6228 16.878 10.3543 16.7201C10.0858 16.5622 9.87312 16.3246 9.74576 16.0404C9.6184 15.7561 9.5827 15.4392 9.64362 15.1337L11.5286 5.70625C11.5966 5.36608 11.7803 5.05997 12.0485 4.84003C12.3168 4.62009 12.653 4.49993 12.9999 4.5H20.9999C21.3977 4.5 21.7792 4.65804 22.0605 4.93934C22.3418 5.22064 22.4999 5.60218 22.4999 6C22.4999 6.39782 22.3418 6.77936 22.0605 7.06066C21.7792 7.34196 21.3977 7.5 20.9999 7.5H14.2299L13.1849 12.7238C14.2903 12.448 15.4441 12.4278 16.5586 12.6646C17.673 12.9014 18.7189 13.3889 19.6168 14.0903C20.5146 14.7917 21.2409 15.6884 21.7405 16.7123C22.24 17.7363 22.4997 18.8607 22.4999 20Z" fill="black"/>
</svg>
