<svg width="32" height="32" viewBox="0 0 32 32" fill="none" xmlns="http://www.w3.org/2000/svg">
<path opacity="0.08" d="M27 5V27C27 27.5304 26.7893 28.0391 26.4142 28.4142C26.0391 28.7893 25.5304 29 25 29H7C6.46957 29 5.96086 28.7893 5.58579 28.4142C5.21071 28.0391 5 27.5304 5 27V5C5 4.46957 5.21071 3.96086 5.58579 3.58579C5.96086 3.21071 6.46957 3 7 3H25C25.5304 3 26.0391 3.21071 26.4142 3.58579C26.7893 3.96086 27 4.46957 27 5Z" fill="black"/>
<path d="M17.9998 5.99994V25.9999C17.9998 26.2652 17.8944 26.5195 17.7069 26.7071C17.5194 26.8946 17.265 26.9999 16.9998 26.9999C16.7346 26.9999 16.4802 26.8946 16.2927 26.7071C16.1051 26.5195 15.9998 26.2652 15.9998 25.9999V7.76619L12.5148 9.85744C12.2874 9.99403 12.015 10.0347 11.7576 9.97045C11.5002 9.90622 11.2789 9.74237 11.1423 9.51494C11.0057 9.28752 10.965 9.01515 11.0293 8.75776C11.0935 8.50037 11.2574 8.27903 11.4848 8.14244L16.4848 5.14244C16.6365 5.05127 16.8098 5.00202 16.9868 4.99972C17.1638 4.99742 17.3383 5.04216 17.4924 5.12937C17.6464 5.21657 17.7746 5.34312 17.8637 5.49607C17.9529 5.64902 17.9998 5.8229 17.9998 5.99994Z" fill="black"/>
</svg>
