<svg width="32" height="32" viewBox="0 0 32 32" fill="none" xmlns="http://www.w3.org/2000/svg">
<path d="M16 2.5C13.33 2.5 10.7199 3.29176 8.49981 4.77516C6.27974 6.25856 4.54942 8.36697 3.52763 10.8338C2.50585 13.3006 2.2385 16.015 2.7594 18.6337C3.28031 21.2525 4.56606 23.6579 6.45406 25.5459C8.34207 27.434 10.7475 28.7197 13.3663 29.2406C15.985 29.7615 18.6994 29.4942 21.1662 28.4724C23.633 27.4506 25.7414 25.7203 27.2248 23.5002C28.7082 21.2801 29.5 18.67 29.5 16C29.496 12.4208 28.0724 8.98932 25.5416 6.45844C23.0107 3.92756 19.5792 2.50397 16 2.5ZM16 26.5C13.9233 26.5 11.8932 25.8842 10.1665 24.7304C8.4398 23.5767 7.09399 21.9368 6.29927 20.0182C5.50455 18.0996 5.29662 15.9884 5.70176 13.9516C6.10691 11.9148 7.10693 10.0438 8.57538 8.57538C10.0438 7.10693 11.9148 6.1069 13.9516 5.70175C15.9884 5.29661 18.0996 5.50454 20.0182 6.29926C21.9368 7.09399 23.5767 8.4398 24.7304 10.1665C25.8842 11.8932 26.5 13.9233 26.5 16C26.497 18.7839 25.3898 21.4528 23.4213 23.4213C21.4529 25.3898 18.7839 26.497 16 26.5ZM18 10V22C18 22.3978 17.842 22.7794 17.5607 23.0607C17.2794 23.342 16.8978 23.5 16.5 23.5C16.1022 23.5 15.7206 23.342 15.4393 23.0607C15.158 22.7794 15 22.3978 15 22V12.8025L14.3325 13.25C14.001 13.4708 13.5953 13.5508 13.2048 13.4725C12.8142 13.3943 12.4708 13.164 12.25 12.8325C12.0292 12.501 11.9492 12.0953 12.0275 11.7048C12.1058 11.3142 12.336 10.9708 12.6675 10.75L15.6675 8.75C15.8935 8.59919 16.1563 8.51261 16.4277 8.49952C16.6991 8.48642 16.969 8.54731 17.2085 8.67566C17.448 8.80401 17.6482 8.99502 17.7876 9.22827C17.927 9.46153 18.0004 9.72827 18 10Z" fill="black"/>
</svg>
