<svg width="32" height="32" viewBox="0 0 32 32" fill="none" xmlns="http://www.w3.org/2000/svg">
<path d="M16 13.5C14.9199 13.4985 13.8566 13.7679 12.9076 14.2837L17.4363 6.24997C17.5013 6.13394 17.5175 5.99685 17.4814 5.86885C17.4453 5.74086 17.3598 5.63245 17.2438 5.56747C17.1278 5.50249 16.9907 5.48627 16.8627 5.52237C16.7347 5.55847 16.6263 5.64394 16.5613 5.75997L10.375 16.7562C9.66098 17.9962 9.37603 19.4372 9.56439 20.8556C9.75275 22.2741 10.4039 23.5907 11.4168 24.6014C12.4298 25.612 13.7479 26.2602 15.1668 26.4453C16.5856 26.6305 18.0259 26.3423 19.2643 25.6254C20.5027 24.9085 21.4699 23.803 22.0159 22.4804C22.562 21.1578 22.6563 19.692 22.2844 18.3103C21.9124 16.9286 21.0949 15.7082 19.9587 14.8385C18.8224 13.9688 17.4309 13.4983 16 13.5ZM16 25.5C14.9123 25.5 13.8489 25.1774 12.9444 24.5731C12.0399 23.9687 11.335 23.1097 10.9187 22.1047C10.5024 21.0997 10.3935 19.9939 10.6057 18.927C10.8179 17.8601 11.3418 16.8801 12.111 16.1109C12.8802 15.3417 13.8602 14.8179 14.9271 14.6057C15.9939 14.3934 17.0998 14.5024 18.1048 14.9186C19.1098 15.3349 19.9688 16.0399 20.5731 16.9443C21.1775 17.8488 21.5 18.9122 21.5 20C21.4984 21.4582 20.9184 22.8561 19.8873 23.8872C18.8562 24.9183 17.4582 25.4983 16 25.5Z" fill="black"/>
</svg>
