<svg width="32" height="32" viewBox="0 0 32 32" fill="none" xmlns="http://www.w3.org/2000/svg">
<path d="M18.5002 5.99996V26C18.5002 26.3978 18.3422 26.7793 18.0609 27.0606C17.7796 27.3419 17.398 27.5 17.0002 27.5C16.6024 27.5 16.2208 27.3419 15.9395 27.0606C15.6582 26.7793 15.5002 26.3978 15.5002 26V8.64871L12.7715 10.2862C12.4307 10.4823 12.0266 10.5367 11.6461 10.4378C11.2656 10.3389 10.9391 10.0946 10.737 9.7574C10.5348 9.42023 10.4731 9.01718 10.5651 8.63496C10.6571 8.25275 10.8955 7.92194 11.229 7.71371L16.229 4.71371C16.4566 4.57726 16.7163 4.50364 16.9816 4.50036C17.247 4.49708 17.5085 4.56425 17.7394 4.69502C17.9703 4.82579 18.1624 5.01548 18.296 5.24473C18.4297 5.47398 18.5001 5.73459 18.5002 5.99996Z" fill="black"/>
</svg>
