<svg width="32" height="32" viewBox="0 0 32 32" fill="none" xmlns="http://www.w3.org/2000/svg">
<path d="M22.4999 20C22.4998 21.4478 22.0808 22.8647 21.2932 24.0795C20.5057 25.2944 19.3833 26.2553 18.0617 26.8464C16.74 27.4374 15.2755 27.6333 13.845 27.4104C12.4144 27.1874 11.079 26.5552 9.99987 25.59C9.84788 25.4602 9.72337 25.3013 9.63366 25.1226C9.54396 24.944 9.49085 24.7493 9.47748 24.5498C9.46411 24.3504 9.49073 24.1503 9.55579 23.9613C9.62085 23.7723 9.72303 23.5982 9.85633 23.4492C9.98962 23.3002 10.1513 23.1794 10.332 23.0939C10.5126 23.0083 10.7086 22.9597 10.9083 22.9509C11.108 22.9421 11.3074 22.9734 11.4949 23.0428C11.6823 23.1121 11.854 23.2183 11.9999 23.355C12.5436 23.8411 13.1974 24.1877 13.9048 24.365C14.6123 24.5423 15.3522 24.545 16.061 24.3729C16.7697 24.2007 17.426 23.8589 17.9733 23.3768C18.5206 22.8948 18.9425 22.2869 19.2027 21.6055C19.4629 20.9242 19.5536 20.1898 19.467 19.4657C19.3804 18.7415 19.1191 18.0492 18.7056 17.4484C18.292 16.8477 17.7386 16.3564 17.0931 16.017C16.4476 15.6776 15.7292 15.5002 14.9999 15.5C14.7213 15.5 14.4482 15.4224 14.2113 15.276C13.9743 15.1295 13.7828 14.92 13.6582 14.6708C13.5336 14.4217 13.4809 14.1427 13.5059 13.8653C13.5309 13.5878 13.6327 13.3229 13.7999 13.1L17.9999 7.5H10.9999C10.602 7.5 10.2205 7.34196 9.93921 7.06066C9.6579 6.77936 9.49987 6.39782 9.49987 6C9.49987 5.60218 9.6579 5.22064 9.93921 4.93934C10.2205 4.65804 10.602 4.5 10.9999 4.5H20.9999C21.2784 4.5 21.5515 4.57757 21.7885 4.72402C22.0254 4.87048 22.2169 5.08002 22.3415 5.32918C22.4661 5.57834 22.5188 5.85727 22.4938 6.13471C22.4688 6.41215 22.367 6.67715 22.1999 6.9L17.6399 12.98C19.0667 13.5186 20.2958 14.4787 21.1639 15.7326C22.032 16.9865 22.4979 18.4749 22.4999 20Z" fill="black"/>
</svg>
