<svg width="32" height="32" viewBox="0 0 32 32" fill="none" xmlns="http://www.w3.org/2000/svg">
<path d="M15.9999 12.5001C15.6733 12.5006 15.3472 12.5227 15.0236 12.5663L18.3074 6.7363C18.404 6.5646 18.466 6.37553 18.4896 6.1799C18.5132 5.98427 18.4981 5.7859 18.445 5.59612C18.392 5.40634 18.3021 5.22886 18.1804 5.07383C18.0588 4.9188 17.9078 4.78924 17.7361 4.69255C17.5644 4.59587 17.3753 4.53395 17.1797 4.51033C16.9841 4.48671 16.7857 4.50186 16.5959 4.5549C16.4061 4.60795 16.2287 4.69785 16.0736 4.81949C15.9186 4.94112 15.789 5.0921 15.6924 5.2638L9.49986 16.2663C8.67824 17.6976 8.35168 19.36 8.5708 20.9958C8.78993 22.6316 9.54249 24.1494 10.7119 25.3141C11.8812 26.4787 13.4021 27.2251 15.0388 27.4376C16.6754 27.6501 18.3365 27.3168 19.7645 26.4894C21.1925 25.662 22.3077 24.3867 22.9373 22.8611C23.5668 21.3355 23.6756 19.6448 23.2467 18.0511C22.8179 16.4574 21.8753 15.0496 20.5651 14.0461C19.2549 13.0425 17.6503 12.4991 15.9999 12.5001ZM15.9999 24.5001C15.1098 24.5001 14.2398 24.2361 13.4998 23.7417C12.7598 23.2472 12.183 22.5444 11.8424 21.7221C11.5018 20.8999 11.4127 19.9951 11.5863 19.1221C11.76 18.2492 12.1885 17.4474 12.8179 16.8181C13.4472 16.1887 14.249 15.7602 15.122 15.5865C15.9949 15.4129 16.8997 15.502 17.7219 15.8426C18.5442 16.1832 19.247 16.76 19.7415 17.5C20.2359 18.24 20.4999 19.11 20.4999 20.0001C20.4999 21.1935 20.0258 22.3381 19.1818 23.182C18.3379 24.0259 17.1933 24.5001 15.9999 24.5001Z" fill="black"/>
</svg>
