<svg width="32" height="32" viewBox="0 0 32 32" fill="none" xmlns="http://www.w3.org/2000/svg">
<path d="M20.305 14.8638C21.2937 13.9898 21.993 12.8355 22.3099 11.5545C22.6267 10.2734 22.5461 8.92629 22.0789 7.69215C21.6116 6.45801 20.7797 5.39532 19.6939 4.64538C18.608 3.89544 17.3196 3.49377 16 3.49377C14.6804 3.49377 13.392 3.89544 12.3061 4.64538C11.2203 5.39532 10.3884 6.45801 9.92114 7.69215C9.45386 8.92629 9.37329 10.2734 9.69015 11.5545C10.007 12.8355 10.7063 13.9898 11.695 14.8638C10.3892 15.7791 9.4091 17.0869 8.89709 18.5972C8.38508 20.1074 8.36778 21.7416 8.84771 23.2623C9.32763 24.7831 10.2798 26.1113 11.566 27.0541C12.8521 27.9969 14.4053 28.5052 16 28.5052C17.5947 28.5052 19.1479 27.9969 20.434 27.0541C21.7202 26.1113 22.6724 24.7831 23.1523 23.2623C23.6322 21.7416 23.6149 20.1074 23.1029 18.5972C22.5909 17.0869 21.6108 15.7791 20.305 14.8638ZM12.5 10C12.5 9.3078 12.7053 8.63111 13.0899 8.05554C13.4744 7.47996 14.0211 7.03136 14.6606 6.76645C15.3001 6.50155 16.0039 6.43224 16.6828 6.56728C17.3617 6.70233 17.9854 7.03568 18.4749 7.52516C18.9644 8.01464 19.2977 8.63828 19.4327 9.31722C19.5678 9.99615 19.4985 10.6999 19.2336 11.3394C18.9687 11.979 18.5201 12.5256 17.9445 12.9102C17.3689 13.2948 16.6922 13.5 16 13.5C15.0717 13.5 14.1815 13.1313 13.5251 12.4749C12.8687 11.8185 12.5 10.9283 12.5 10ZM16 25.5C15.11 25.5 14.24 25.2361 13.4999 24.7416C12.7599 24.2472 12.1831 23.5444 11.8425 22.7221C11.5019 21.8998 11.4128 20.995 11.5865 20.1221C11.7601 19.2492 12.1887 18.4474 12.818 17.8181C13.4474 17.1887 14.2492 16.7601 15.1221 16.5865C15.995 16.4129 16.8998 16.502 17.7221 16.8426C18.5443 17.1832 19.2471 17.7599 19.7416 18.5C20.2361 19.24 20.5 20.11 20.5 21C20.5 22.1935 20.0259 23.3381 19.182 24.182C18.3381 25.0259 17.1935 25.5 16 25.5Z" fill="black"/>
</svg>
