<svg width="32" height="32" viewBox="0 0 32 32" fill="none" xmlns="http://www.w3.org/2000/svg">
<path d="M26 3.5H6C5.33696 3.5 4.70107 3.76339 4.23223 4.23223C3.76339 4.70107 3.5 5.33696 3.5 6V26C3.5 26.663 3.76339 27.2989 4.23223 27.7678C4.70107 28.2366 5.33696 28.5 6 28.5H26C26.663 28.5 27.2989 28.2366 27.7678 27.7678C28.2366 27.2989 28.5 26.663 28.5 26V6C28.5 5.33696 28.2366 4.70107 27.7678 4.23223C27.2989 3.76339 26.663 3.5 26 3.5ZM25.5 25.5H6.5V6.5H25.5V25.5ZM13.5 17.83C14.0746 18.1607 14.7096 18.3732 15.3675 18.455L13.7125 21.2313C13.6057 21.4005 13.5339 21.5893 13.5012 21.7868C13.4685 21.9842 13.4757 22.1861 13.5222 22.3807C13.5688 22.5753 13.6538 22.7586 13.7722 22.9199C13.8907 23.0811 14.0403 23.2171 14.2121 23.3196C14.3839 23.4222 14.5744 23.4894 14.7726 23.5172C14.9708 23.545 15.1725 23.5329 15.3659 23.4815C15.5593 23.4302 15.7404 23.3407 15.8987 23.2183C16.057 23.0959 16.1892 22.943 16.2875 22.7687L20.33 16C20.8245 15.1436 21.0539 14.1598 20.9893 13.173C20.9246 12.1862 20.5688 11.2407 19.9668 10.4561C19.3648 9.67156 18.5437 9.08312 17.6072 8.76523C16.6708 8.44733 15.6611 8.41427 14.7059 8.6702C13.7507 8.92614 12.8928 9.45959 12.2408 10.2031C11.5887 10.9466 11.1718 11.8668 11.0427 12.8472C10.9137 13.8277 11.0782 14.8244 11.5156 15.7113C11.953 16.5982 12.6436 17.3356 13.5 17.83ZM14.2675 12.5C14.5327 12.0405 14.9696 11.7052 15.482 11.5678C15.9945 11.4305 16.5405 11.5023 17 11.7675C17.4595 12.0327 17.7948 12.4696 17.9322 12.982C18.0695 13.4945 17.9977 14.0405 17.7325 14.5C17.46 14.9444 17.0247 15.2648 16.5194 15.393C16.0141 15.5212 15.4787 15.447 15.0272 15.1862C14.5758 14.9255 14.2441 14.4988 14.1026 13.997C13.9612 13.4953 14.0212 12.9581 14.27 12.5H14.2675Z" fill="black"/>
</svg>
