<svg width="32" height="32" viewBox="0 0 32 32" fill="none" xmlns="http://www.w3.org/2000/svg">
<path d="M16 2.5C13.33 2.5 10.7199 3.29176 8.49981 4.77516C6.27974 6.25856 4.54942 8.36697 3.52763 10.8338C2.50585 13.3006 2.2385 16.015 2.7594 18.6337C3.28031 21.2525 4.56606 23.6579 6.45406 25.5459C8.34207 27.434 10.7475 28.7197 13.3663 29.2406C15.985 29.7615 18.6994 29.4942 21.1662 28.4724C23.633 27.4506 25.7414 25.7203 27.2248 23.5002C28.7082 21.2801 29.5 18.67 29.5 16C29.496 12.4208 28.0724 8.98932 25.5416 6.45844C23.0107 3.92756 19.5792 2.50397 16 2.5ZM16 26.5C13.9233 26.5 11.8932 25.8842 10.1665 24.7304C8.4398 23.5767 7.09399 21.9368 6.29927 20.0182C5.50455 18.0996 5.29662 15.9884 5.70176 13.9516C6.10691 11.9148 7.10693 10.0438 8.57538 8.57538C10.0438 7.10693 11.9148 6.1069 13.9516 5.70175C15.9884 5.29661 18.0996 5.50454 20.0182 6.29926C21.9368 7.09399 23.5767 8.4398 24.7304 10.1665C25.8842 11.8932 26.5 13.9233 26.5 16C26.497 18.7839 25.3898 21.4528 23.4213 23.4213C21.4529 25.3898 18.7839 26.497 16 26.5ZM16.6325 13.5413L18.2875 10.7688C18.3943 10.5995 18.4661 10.4107 18.4988 10.2132C18.5315 10.0158 18.5244 9.81389 18.4778 9.61929C18.4313 9.42468 18.3462 9.24136 18.2278 9.08011C18.1093 8.91886 17.9597 8.78294 17.7879 8.68036C17.6161 8.57778 17.4256 8.51061 17.2274 8.48281C17.0293 8.455 16.8275 8.46712 16.6341 8.51846C16.4407 8.56979 16.2596 8.6593 16.1013 8.78171C15.943 8.90413 15.8108 9.05697 15.7125 9.23125L11.6825 15.9812C11.1412 16.9095 10.9133 17.9874 11.0327 19.0553C11.152 20.1232 11.6122 21.1243 12.345 21.9101C13.0779 22.696 14.0444 23.2248 15.1014 23.4183C16.1584 23.6118 17.2496 23.4596 18.2133 22.9844C19.177 22.5091 19.962 21.736 20.4519 20.7796C20.9418 19.8232 21.1105 18.7344 20.9331 17.6746C20.7557 16.6148 20.2416 15.6404 19.467 14.8956C18.6924 14.1509 17.6985 13.6756 16.6325 13.54V13.5413ZM16 20.5C15.6044 20.5 15.2178 20.3827 14.8889 20.1629C14.56 19.9432 14.3036 19.6308 14.1522 19.2654C14.0009 18.8999 13.9613 18.4978 14.0384 18.1098C14.1156 17.7219 14.3061 17.3655 14.5858 17.0858C14.8655 16.8061 15.2219 16.6156 15.6098 16.5384C15.9978 16.4613 16.3999 16.5009 16.7654 16.6522C17.1308 16.8036 17.4432 17.06 17.6629 17.3889C17.8827 17.7178 18 18.1044 18 18.5C18 19.0304 17.7893 19.5391 17.4142 19.9142C17.0391 20.2893 16.5304 20.5 16 20.5Z" fill="black"/>
</svg>
