<svg width="32" height="32" viewBox="0 0 32 32" fill="none" xmlns="http://www.w3.org/2000/svg">
<path d="M22.5 26C22.5 26.3978 22.342 26.7794 22.0607 27.0607C21.7794 27.342 21.3978 27.5 21 27.5H11C10.7214 27.5 10.4484 27.4224 10.2114 27.276C9.97444 27.1295 9.78294 26.92 9.65836 26.6708C9.53378 26.4217 9.48104 26.1427 9.50606 25.8653C9.53108 25.5879 9.63286 25.3229 9.8 25.1L18.7938 13.11C19.0927 12.7156 19.3046 12.2623 19.4155 11.78C19.5264 11.2978 19.5337 10.7974 19.4371 10.3121C19.3404 9.82676 19.1419 9.36744 18.8547 8.96444C18.5675 8.56145 18.1981 8.22394 17.7709 7.97419C17.3436 7.72444 16.8683 7.56812 16.3762 7.51556C15.8841 7.463 15.3865 7.51539 14.9162 7.66927C14.4458 7.82315 14.0135 8.07502 13.6476 8.40826C13.2818 8.7415 12.9907 9.14853 12.7938 9.60251C12.6343 9.96718 12.3365 10.2536 11.9659 10.3987C11.5953 10.5438 11.1822 10.5357 10.8175 10.3763C10.4528 10.2168 10.1664 9.919 10.0213 9.54838C9.87622 9.17776 9.88429 8.76468 10.0438 8.4C10.2474 7.93465 10.5045 7.4946 10.81 7.08876C11.8475 5.71195 13.3894 4.80368 15.0966 4.56375C15.9419 4.44495 16.8023 4.49381 17.6287 4.70753C18.4552 4.92126 19.2314 5.29567 19.9131 5.80938C20.5948 6.32309 21.1687 6.96606 21.602 7.70155C22.0352 8.43705 22.3193 9.25067 22.4381 10.096C22.5569 10.9413 22.5081 11.8017 22.2944 12.6281C22.0806 13.4545 21.7062 14.2308 21.1925 14.9125L14 24.5H21C21.3978 24.5 21.7794 24.658 22.0607 24.9393C22.342 25.2207 22.5 25.6022 22.5 26Z" fill="black"/>
</svg>
