<svg width="32" height="32" viewBox="0 0 32 32" fill="none" xmlns="http://www.w3.org/2000/svg">
<path d="M15.9999 5.25C15.0056 5.24937 14.0234 5.46843 13.1235 5.89151C12.2237 6.31459 11.4285 6.93124 10.7946 7.69739C10.1608 8.46354 9.70411 9.36025 9.45714 10.3234C9.21016 11.2866 9.17903 12.2924 9.36597 13.269C9.55291 14.2456 9.9533 15.1689 10.5385 15.9727C11.1237 16.7766 11.8793 17.4413 12.7513 17.9192C13.6232 18.3971 14.59 18.6765 15.5825 18.7373C16.5749 18.7982 17.5686 18.639 18.4924 18.2713L14.3461 25.6313C14.2485 25.8046 14.2237 26.0097 14.2773 26.2013C14.3309 26.393 14.4584 26.5555 14.6318 26.6531C14.8051 26.7508 15.0102 26.7755 15.2019 26.722C15.3935 26.6684 15.556 26.5409 15.6536 26.3675L21.8461 15.3675C22.4367 14.3415 22.7471 13.1783 22.7461 11.9944C22.7452 10.8106 22.4329 9.64788 21.8406 8.62287C21.2483 7.59787 20.3969 6.74666 19.3717 6.15465C18.3465 5.56264 17.1837 5.25066 15.9999 5.25ZM15.9999 17.25C14.9615 17.25 13.9465 16.9421 13.0831 16.3652C12.2198 15.7883 11.5469 14.9684 11.1495 14.0091C10.7522 13.0498 10.6482 11.9942 10.8508 10.9758C11.0533 9.95738 11.5533 9.02192 12.2876 8.28769C13.0218 7.55346 13.9573 7.05345 14.9757 6.85088C15.9941 6.64831 17.0497 6.75227 18.009 7.14963C18.9683 7.54699 19.7882 8.2199 20.3651 9.08326C20.942 9.94662 21.2499 10.9616 21.2499 12C21.2499 13.3924 20.6968 14.7277 19.7122 15.7123C18.7276 16.6969 17.3923 17.25 15.9999 17.25Z" fill="black"/>
</svg>
