<svg width="32" height="32" viewBox="0 0 32 32" fill="none" xmlns="http://www.w3.org/2000/svg">
<path d="M9.5 16.0001C9.5 17.2857 9.88122 18.5424 10.5954 19.6114C11.3097 20.6803 12.3248 21.5134 13.5126 22.0054C14.7003 22.4973 16.0072 22.6261 17.2681 22.3753C18.529 22.1245 19.6872 21.5054 20.5962 20.5963C21.5052 19.6873 22.1243 18.5291 22.3751 17.2682C22.6259 16.0074 22.4972 14.7004 22.0052 13.5127C21.5132 12.325 20.6801 11.3098 19.6112 10.5956C18.5423 9.88137 17.2856 9.50015 16 9.50015C14.2766 9.5018 12.6243 10.1872 11.4056 11.4058C10.187 12.6244 9.50165 14.2768 9.5 16.0001ZM19.5 16.0001C19.5 16.6924 19.2947 17.3691 18.9101 17.9446C18.5256 18.5202 17.9789 18.9688 17.3394 19.2337C16.6999 19.4986 15.9961 19.5679 15.3172 19.4329C14.6383 19.2978 14.0146 18.9645 13.5251 18.475C13.0356 17.9855 12.7023 17.3619 12.5673 16.683C12.4322 16.004 12.5015 15.3003 12.7664 14.6608C13.0313 14.0212 13.4799 13.4746 14.0555 13.09C14.6311 12.7054 15.3078 12.5001 16 12.5001C16.9283 12.5001 17.8185 12.8689 18.4749 13.5253C19.1313 14.1817 19.5 15.0719 19.5 16.0001ZM28.2 7.83015L17.2 1.8089C16.8324 1.60658 16.4196 1.50049 16 1.50049C15.5804 1.50049 15.1676 1.60658 14.8 1.8089L3.8 7.83015C3.4064 8.04551 3.078 8.36283 2.84927 8.74881C2.62054 9.1348 2.4999 9.57523 2.5 10.0239V21.9764C2.4999 22.4251 2.62054 22.8655 2.84927 23.2515C3.078 23.6375 3.4064 23.9548 3.8 24.1701L14.8 30.1914C15.1675 30.3939 15.5804 30.5002 16 30.5002C16.4196 30.5002 16.8325 30.3939 17.2 30.1914L28.2 24.1701C28.5936 23.9548 28.922 23.6375 29.1507 23.2515C29.3795 22.8655 29.5001 22.4251 29.5 21.9764V10.0239C29.5001 9.57523 29.3795 9.1348 29.1507 8.74881C28.922 8.36283 28.5936 8.04551 28.2 7.83015ZM26.5 21.6801L16 27.4301L5.5 21.6801V10.3201L16 4.57015L26.5 10.3201V21.6801Z" fill="black"/>
</svg>
