<svg width="32" height="32" viewBox="0 0 32 32" fill="none" xmlns="http://www.w3.org/2000/svg">
<path d="M24.0001 18.5C24.0001 18.8956 23.8828 19.2822 23.6631 19.6111C23.4433 19.94 23.1309 20.1964 22.7655 20.3478C22.4 20.4991 21.9979 20.5387 21.6099 20.4616C21.222 20.3844 20.8656 20.1939 20.5859 19.9142C20.3062 19.6345 20.1157 19.2781 20.0385 18.8902C19.9614 18.5022 20.001 18.1001 20.1524 17.7346C20.3037 17.3692 20.5601 17.0568 20.889 16.8371C21.2179 16.6173 21.6046 16.5 22.0001 16.5C22.5305 16.5 23.0393 16.7107 23.4143 17.0858C23.7894 17.4609 24.0001 17.9696 24.0001 18.5ZM23.5001 13.5C23.281 13.5004 23.0646 13.4522 22.8664 13.3588L14.7814 9.58625C12.9173 9.85676 11.1958 10.7388 9.88741 12.0938C8.579 13.4488 7.75774 15.2001 7.55261 17.0725L15.7939 12.6763C16.0224 12.5543 16.2787 12.4936 16.5377 12.5001C16.7968 12.5066 17.0497 12.58 17.2719 12.7133C17.494 12.8467 17.6779 13.0352 17.8055 13.2607C17.9331 13.4862 18.0002 13.7409 18.0001 14V26.2638C19.1997 25.9761 20.322 25.4296 21.2882 24.6626C22.2545 23.8957 23.0414 22.9268 23.5939 21.8238C23.681 21.6451 23.8028 21.4856 23.9521 21.3545C24.1014 21.2233 24.2753 21.1231 24.4636 21.0597C24.652 20.9963 24.8511 20.971 25.0493 20.9852C25.2475 20.9995 25.4409 21.0529 25.6183 21.1425C25.7957 21.2321 25.9535 21.3561 26.0826 21.5072C26.2117 21.6583 26.3094 21.8336 26.3702 22.0228C26.4309 22.212 26.4535 22.4114 26.4365 22.6094C26.4196 22.8075 26.3634 23.0001 26.2714 23.1763C25.3763 24.9646 24.0281 26.4871 22.3613 27.592C20.6944 28.697 18.7671 29.3458 16.7714 29.4738C16.6819 29.4906 16.5911 29.4994 16.5001 29.5C16.4564 29.5 16.4151 29.5 16.3751 29.4938C16.2501 29.4938 16.1251 29.5 16.0001 29.5C14.0252 29.4997 12.0836 28.9909 10.3624 28.0224C8.64123 27.054 7.19845 25.6586 6.17308 23.9707C5.14771 22.2828 4.57431 20.3593 4.50811 18.3855C4.44191 16.4117 4.88514 14.4541 5.79511 12.7013C4.88848 12.1162 4.19543 11.2536 3.81945 10.2422C3.44348 9.23083 3.40477 8.12496 3.7091 7.08977C4.01343 6.05457 4.64447 5.1456 5.50797 4.4986C6.37148 3.8516 7.42111 3.5013 8.50011 3.5C8.71921 3.49959 8.93567 3.54784 9.13386 3.64125L23.7889 10.4788C24.2885 10.4053 24.7419 10.1456 25.058 9.75171C25.3741 9.35782 25.5294 8.85894 25.4929 8.35524C25.4563 7.85153 25.2305 7.38031 24.8609 7.03619C24.4913 6.69206 24.0051 6.50051 23.5001 6.5C23.1023 6.5 22.7208 6.34197 22.4395 6.06066C22.1581 5.77936 22.0001 5.39783 22.0001 5C22.0001 4.60218 22.1581 4.22065 22.4395 3.93934C22.7208 3.65804 23.1023 3.5 23.5001 3.5C24.8262 3.5 26.098 4.02679 27.0356 4.96447C27.9733 5.90215 28.5001 7.17392 28.5001 8.5C28.5001 9.82609 27.9733 11.0979 27.0356 12.0355C26.098 12.9732 24.8262 13.5 23.5001 13.5ZM10.0001 24.015V19.1663L7.82636 20.3263C8.22499 21.7209 8.97322 22.9906 10.0001 24.015ZM15.0001 16.5L13.0001 17.5663V25.9513C13.6442 26.1953 14.316 26.359 15.0001 26.4388V16.5ZM10.8126 7.735L8.21136 6.52125C7.79932 6.58181 7.41645 6.76948 7.11619 7.0581C6.81593 7.34671 6.61326 7.72185 6.53646 8.13118C6.45966 8.54051 6.51256 8.96361 6.68778 9.34143C6.863 9.71925 7.15179 10.033 7.51386 10.2388C8.45288 9.21143 9.57058 8.36309 10.8126 7.735Z" fill="black"/>
</svg>
