<svg width="32" height="32" viewBox="0 0 32 32" fill="none" xmlns="http://www.w3.org/2000/svg">
<path d="M28.7675 9.67626L22.3238 3.23251C22.0923 2.99951 21.8169 2.81479 21.5135 2.68905C21.21 2.56331 20.8847 2.49905 20.5563 2.50001H11.4438C11.1153 2.49905 10.79 2.56331 10.4866 2.68905C10.1832 2.81479 9.90773 2.99951 9.67626 3.23251L3.23251 9.67626C2.99951 9.90773 2.81479 10.1832 2.68905 10.4866C2.56331 10.79 2.49905 11.1153 2.50001 11.4438V20.5563C2.49905 20.8847 2.56331 21.21 2.68905 21.5135C2.81479 21.8169 2.99951 22.0923 3.23251 22.3238L9.67626 28.7675C9.90773 29.0005 10.1832 29.1852 10.4866 29.311C10.79 29.4367 11.1153 29.501 11.4438 29.5H20.5563C20.8847 29.501 21.21 29.4367 21.5135 29.311C21.8169 29.1852 22.0923 29.0005 22.3238 28.7675L28.7675 22.3238C29.0005 22.0923 29.1852 21.8169 29.311 21.5135C29.4367 21.21 29.501 20.8847 29.5 20.5563V11.4438C29.501 11.1153 29.4367 10.79 29.311 10.4866C29.1852 10.1832 29.0005 9.90773 28.7675 9.67626ZM26.5 20.3488L20.3488 26.5H11.6513L5.50001 20.3488V11.6513L11.6513 5.50001H20.3488L26.5 11.6513V20.3488Z" fill="black"/>
</svg>
