<svg width="32" height="32" viewBox="0 0 32 32" fill="none" xmlns="http://www.w3.org/2000/svg">
<path d="M31.5 16C31.5 16.3979 31.342 16.7794 31.0607 17.0607C30.7794 17.342 30.3978 17.5 30 17.5H28.325C27.9855 18.9227 27.1769 20.1897 26.0295 21.0968C24.8821 22.0038 23.4626 22.4981 22 22.5H17.5V24.5H20C21.1935 24.5 22.3381 24.9741 23.182 25.818C24.0259 26.662 24.5 27.8066 24.5 29C24.5 29.3979 24.342 29.7794 24.0607 30.0607C23.7794 30.342 23.3978 30.5 23 30.5C22.6022 30.5 22.2206 30.342 21.9393 30.0607C21.658 29.7794 21.5 29.3979 21.5 29C21.5 28.6022 21.342 28.2207 21.0607 27.9394C20.7794 27.6581 20.3978 27.5 20 27.5H17.5V29C17.5 29.3979 17.342 29.7794 17.0607 30.0607C16.7794 30.342 16.3978 30.5 16 30.5C15.6022 30.5 15.2206 30.342 14.9393 30.0607C14.658 29.7794 14.5 29.3979 14.5 29V27.5H12C11.6022 27.5 11.2206 27.6581 10.9393 27.9394C10.658 28.2207 10.5 28.6022 10.5 29C10.5 29.3979 10.342 29.7794 10.0607 30.0607C9.77936 30.342 9.39782 30.5 9 30.5C8.60218 30.5 8.22064 30.342 7.93934 30.0607C7.65804 29.7794 7.5 29.3979 7.5 29C7.5 27.8066 7.97411 26.662 8.81802 25.818C9.66193 24.9741 10.8065 24.5 12 24.5H14.5V22.5H10C8.53735 22.4981 7.11794 22.0038 5.97051 21.0968C4.82309 20.1897 4.01448 18.9227 3.675 17.5H2C1.60218 17.5 1.22064 17.342 0.93934 17.0607C0.658035 16.7794 0.5 16.3979 0.5 16C0.5 15.6022 0.658035 15.2207 0.93934 14.9394C1.22064 14.6581 1.60218 14.5 2 14.5H5C5.39782 14.5 5.77936 14.6581 6.06066 14.9394C6.34196 15.2207 6.5 15.6022 6.5 16C6.5 16.9283 6.86875 17.8185 7.52513 18.4749C8.1815 19.1313 9.07174 19.5 10 19.5H22C22.9283 19.5 23.8185 19.1313 24.4749 18.4749C25.1313 17.8185 25.5 16.9283 25.5 16C25.5 15.6022 25.658 15.2207 25.9393 14.9394C26.2206 14.6581 26.6022 14.5 27 14.5H30C30.3978 14.5 30.7794 14.6581 31.0607 14.9394C31.342 15.2207 31.5 15.6022 31.5 16ZM9.1025 16.625C8.86886 16.3524 8.69668 16.0327 8.59767 15.6876C8.49867 15.3424 8.47516 14.98 8.52875 14.625L10.225 3.62503C10.3125 3.03241 10.6109 2.49125 11.0653 2.1009C11.5197 1.71055 12.0997 1.49721 12.6987 1.50003H19.3013C19.9003 1.49721 20.4803 1.71055 20.9347 2.1009C21.3891 2.49125 21.6875 3.03241 21.775 3.62503L23.4713 14.625C23.5252 14.9809 23.5017 15.3443 23.4024 15.6903C23.303 16.0362 23.1301 16.3567 22.8954 16.6297C22.6608 16.9026 22.3699 17.1217 22.0428 17.2719C21.7157 17.4222 21.36 17.5 21 17.5H11C10.6393 17.4997 10.283 17.4213 9.95545 17.2703C9.62792 17.1192 9.33694 16.8991 9.1025 16.625ZM11.5837 14.5H20.4163L18.875 4.50003H13.125L11.5837 14.5Z" fill="black"/>
</svg>
