<svg width="32" height="32" viewBox="0 0 32 32" fill="none" xmlns="http://www.w3.org/2000/svg">
<path d="M28.2 7.82991L17.2 1.80866C16.8324 1.60634 16.4196 1.50024 16 1.50024C15.5804 1.50024 15.1676 1.60634 14.8 1.80866L3.8 7.82991C3.4064 8.04527 3.078 8.36258 2.84927 8.74857C2.62054 9.13456 2.4999 9.57499 2.5 10.0237V21.9762C2.4999 22.4248 2.62054 22.8653 2.84927 23.2512C3.078 23.6372 3.4064 23.9545 3.8 24.1699L14.8 30.1912C15.1675 30.3937 15.5804 30.4999 16 30.4999C16.4196 30.4999 16.8325 30.3937 17.2 30.1912L28.2 24.1699C28.5936 23.9545 28.922 23.6372 29.1507 23.2512C29.3795 22.8653 29.5001 22.4248 29.5 21.9762V10.0237C29.5001 9.57499 29.3795 9.13456 29.1507 8.74857C28.922 8.36258 28.5936 8.04527 28.2 7.82991ZM16 4.57116L25 9.49991L22.3213 10.9662L13.3212 6.03866L16 4.57116ZM16 14.4249L7 9.49991L10.195 7.74991L19.195 12.6762L16 14.4249ZM5.5 12.0987L14.5 17.0237V26.6074L5.5 21.6799V12.0987ZM17.5 26.6074V17.0237L20.5 15.3824V18.9999C20.5 19.3977 20.658 19.7793 20.9393 20.0606C21.2206 20.3419 21.6022 20.4999 22 20.4999C22.3978 20.4999 22.7794 20.3419 23.0607 20.0606C23.342 19.7793 23.5 19.3977 23.5 18.9999V13.7399L26.5 12.0987V21.6799L17.5 26.6074Z" fill="black"/>
</svg>
