<svg width="32" height="32" viewBox="0 0 32 32" fill="none" xmlns="http://www.w3.org/2000/svg">
<path d="M27.84 8.4888L16.84 2.4663C16.5828 2.32426 16.2938 2.24976 16 2.24976C15.7062 2.24976 15.4172 2.32426 15.16 2.4663L4.16 8.4888C3.88476 8.6394 3.65506 8.86123 3.49497 9.13106C3.33487 9.40089 3.25026 9.7088 3.25 10.0226V21.9776C3.25026 22.2913 3.33487 22.5992 3.49497 22.869C3.65506 23.1389 3.88476 23.3607 4.16 23.5113L15.16 29.5338C15.4173 29.6756 15.7062 29.75 16 29.75C16.2938 29.75 16.5827 29.6756 16.84 29.5338L27.84 23.5113C28.1152 23.3607 28.3449 23.1389 28.505 22.869C28.6651 22.5992 28.7497 22.2913 28.75 21.9776V10.0226C28.7497 9.7088 28.6651 9.40089 28.505 9.13106C28.3449 8.86123 28.1152 8.6394 27.84 8.4888ZM15.875 3.7813C15.9118 3.76117 15.9531 3.75062 15.995 3.75062C16.0369 3.75062 16.0782 3.76117 16.115 3.7813L26.5637 9.50005L22.3213 11.8213L11.7563 6.0388L15.875 3.7813ZM15.25 27.875L4.875 22.1963C4.83666 22.1742 4.80489 22.1423 4.78293 22.1038C4.76097 22.0654 4.7496 22.0218 4.75 21.9776V10.8326L15.25 16.5826V27.875ZM5.43625 9.50005L10.195 6.8938L20.7588 12.6763L16 15.2801L5.43625 9.50005ZM27.25 21.9776C27.2504 22.0218 27.239 22.0654 27.2171 22.1038C27.1951 22.1423 27.1633 22.1742 27.125 22.1963L16.75 27.875V16.58L21.25 14.1163V19C21.25 19.199 21.329 19.3897 21.4697 19.5304C21.6103 19.671 21.8011 19.75 22 19.75C22.1989 19.75 22.3897 19.671 22.5303 19.5304C22.671 19.3897 22.75 19.199 22.75 19V13.2963L27.25 10.8326V21.9776Z" fill="black"/>
</svg>
