<svg width="32" height="32" viewBox="0 0 32 32" fill="none" xmlns="http://www.w3.org/2000/svg">
<path opacity="0.08" d="M20.435 16.4351L21.5863 17.5863C21.961 17.9614 22.1716 18.4699 22.1716 19.0001C22.1716 19.5303 21.961 20.0388 21.5863 20.4138L19 23.0001L9 13.0001L11.5863 10.4138C11.9613 10.039 12.4698 9.8285 13 9.8285C13.5302 9.8285 14.0387 10.039 14.4137 10.4138L15.565 11.5651C15.6611 11.6611 15.7758 11.7365 15.902 11.7867C16.0283 11.8369 16.1634 11.8609 16.2992 11.8572C16.435 11.8534 16.5687 11.822 16.6919 11.7649C16.8152 11.7078 16.9256 11.6262 17.0163 11.5251L23.875 3.87508C24.4386 3.31149 25.203 2.99487 26 2.99487C26.797 2.99487 27.5614 3.31149 28.125 3.87508C28.6886 4.43866 29.0052 5.20305 29.0052 6.00008C29.0052 6.79711 28.6886 7.56149 28.125 8.12508L20.4788 14.9876C20.3779 15.078 20.2965 15.1879 20.2394 15.3107C20.1824 15.4335 20.1508 15.5666 20.1467 15.702C20.1426 15.8373 20.1661 15.9721 20.2156 16.0981C20.2652 16.2241 20.3398 16.3388 20.435 16.4351Z" fill="black"/>
<path d="M28.83 3.16994C28.4585 2.79841 28.0175 2.50369 27.5322 2.30262C27.0468 2.10154 26.5266 1.99805 26.0012 1.99805C25.4759 1.99805 24.9556 2.10154 24.4703 2.30262C23.9849 2.50369 23.5439 2.79841 23.1725 3.16994C23.16 3.18244 23.1475 3.19494 23.1362 3.20869L16.2725 10.8562L15.125 9.70494C14.8464 9.4262 14.5156 9.20508 14.1515 9.05422C13.7874 8.90336 13.3972 8.82571 13.0031 8.82571C12.609 8.82571 12.2188 8.90336 11.8547 9.05422C11.4906 9.20508 11.1598 9.4262 10.8812 9.70494L1.29498 19.2924C1.10759 19.48 1.00232 19.7342 1.00232 19.9993C1.00232 20.2644 1.10759 20.5187 1.29498 20.7062L11.295 30.7062C11.4825 30.8936 11.7368 30.9989 12.0019 30.9989C12.267 30.9989 12.5212 30.8936 12.7087 30.7062L22.295 21.1249C22.5737 20.8463 22.7948 20.5156 22.9457 20.1515C23.0966 19.7874 23.1742 19.3972 23.1742 19.0031C23.1742 18.609 23.0966 18.2187 22.9457 17.8547C22.7948 17.4906 22.5737 17.1598 22.295 16.8812L21.1437 15.7312L28.7912 8.86744C28.8051 8.85592 28.818 8.84338 28.83 8.82994C29.2019 8.45845 29.4969 8.0173 29.6982 7.5317C29.8995 7.04611 30.0031 6.5256 30.0031 5.99994C30.0031 5.47428 29.8995 4.95377 29.6982 4.46818C29.4969 3.98259 29.2019 3.54144 28.83 3.16994ZM12 28.5862L9.91498 26.4999L12.7075 23.7062C12.8871 23.5171 12.9858 23.2654 12.9824 23.0046C12.9791 22.7439 12.874 22.4947 12.6896 22.3103C12.5052 22.1259 12.2561 22.0208 11.9953 22.0175C11.7345 22.0142 11.4828 22.1128 11.2937 22.2924L8.49998 25.0849L6.91498 23.4999L9.70748 20.7062C9.8871 20.5171 9.98576 20.2654 9.98242 20.0046C9.97908 19.7439 9.87401 19.4947 9.68961 19.3103C9.50521 19.1259 9.25607 19.0208 8.99531 19.0175C8.73454 19.0142 8.48279 19.1128 8.29373 19.2924L5.49998 22.0849L3.41373 19.9999L8.99998 14.4137L17.5862 22.9999L12 28.5862ZM27.4325 7.39494L19.8075 14.2387C19.6053 14.4202 19.4423 14.6411 19.3283 14.8877C19.2144 15.1344 19.1518 15.4017 19.1446 15.6733C19.1373 15.9449 19.1855 16.2151 19.2861 16.4675C19.3868 16.7199 19.5378 16.9491 19.73 17.1412L20.88 18.2924C21.0674 18.48 21.1726 18.7342 21.1726 18.9993C21.1726 19.2644 21.0674 19.5187 20.88 19.7062L19.005 21.5812L10.415 12.9999L12.29 11.1249C12.4775 10.9375 12.7318 10.8323 12.9969 10.8323C13.262 10.8323 13.5162 10.9375 13.7037 11.1249L14.855 12.2749C15.0471 12.4671 15.2763 12.6181 15.5287 12.7188C15.781 12.8194 16.0513 12.8676 16.3229 12.8603C16.5945 12.8531 16.8618 12.7906 17.1084 12.6766C17.3551 12.5626 17.5759 12.3996 17.7575 12.1974L24.6012 4.57244C24.9794 4.2132 25.4829 4.01589 26.0044 4.02256C26.5259 4.02924 27.0242 4.23938 27.393 4.60819C27.7618 4.97699 27.9719 5.47527 27.9786 5.9968C27.9853 6.51832 27.788 7.02182 27.4287 7.39994L27.4325 7.39494Z" fill="black"/>
</svg>
