<svg width="32" height="32" viewBox="0 0 32 32" fill="none" xmlns="http://www.w3.org/2000/svg">
<path d="M29 10.5H27V8C27 7.33696 26.7366 6.70107 26.2678 6.23223C25.7989 5.76339 25.163 5.5 24.5 5.5H6.5C5.83696 5.5 5.20107 5.76339 4.73223 6.23223C4.26339 6.70107 4 7.33696 4 8V10.5H2C1.60218 10.5 1.22064 10.658 0.93934 10.9393C0.658035 11.2206 0.5 11.6022 0.5 12C0.5 12.3978 0.658035 12.7794 0.93934 13.0607C1.22064 13.342 1.60218 13.5 2 13.5H4V16C4 16.663 4.26339 17.2989 4.73223 17.7678C5.20107 18.2366 5.83696 18.5 6.5 18.5H24.5C25.163 18.5 25.7989 18.2366 26.2678 17.7678C26.7366 17.2989 27 16.663 27 16V13.5H28.5V18.875L16.3125 22.35C15.7918 22.5008 15.3339 22.8161 15.0072 23.2487C14.6806 23.6812 14.5026 24.2079 14.5 24.75V29C14.5 29.3978 14.658 29.7794 14.9393 30.0607C15.2206 30.342 15.6022 30.5 16 30.5C16.3978 30.5 16.7794 30.342 17.0607 30.0607C17.342 29.7794 17.5 29.3978 17.5 29V25.1313L29.6875 21.65C30.2082 21.4992 30.6661 21.1839 30.9928 20.7513C31.3194 20.3188 31.4974 19.7921 31.5 19.25V13C31.5 12.337 31.2366 11.7011 30.7678 11.2322C30.2989 10.7634 29.663 10.5 29 10.5ZM24 15.5H7V8.5H24V15.5Z" fill="black"/>
</svg>
