<svg width="32" height="32" viewBox="0 0 32 32" fill="none" xmlns="http://www.w3.org/2000/svg">
<path d="M28.475 3.52501C28.15 3.19997 27.7642 2.94213 27.3395 2.76621C26.9148 2.5903 26.4597 2.49976 26 2.49976C25.5404 2.49976 25.0852 2.5903 24.6606 2.76621C24.2359 2.94213 23.85 3.19997 23.525 3.52501L23.5063 3.54501L16.6438 11.1913C16.5984 11.2419 16.5432 11.2828 16.4815 11.3114C16.4198 11.34 16.3529 11.3558 16.285 11.3576C16.217 11.3595 16.1493 11.3475 16.0862 11.3223C16.023 11.2972 15.9656 11.2594 15.9175 11.2113L14.7675 10.0613C14.2987 9.59258 13.6629 9.32929 13 9.32929C12.3371 9.32929 11.7013 9.59258 11.2325 10.0613L1.64628 19.6463C1.59979 19.6927 1.56291 19.7478 1.53775 19.8085C1.51258 19.8692 1.49963 19.9343 1.49963 20C1.49963 20.0657 1.51258 20.1308 1.53775 20.1915C1.56291 20.2522 1.59979 20.3073 1.64628 20.3538L11.6463 30.3538C11.6927 30.4002 11.7479 30.4371 11.8086 30.4623C11.8693 30.4874 11.9343 30.5004 12 30.5004C12.0657 30.5004 12.1308 30.4874 12.1915 30.4623C12.2522 30.4371 12.3073 30.4002 12.3538 30.3538L21.9388 20.7675C22.4075 20.2987 22.6707 19.6629 22.6707 19C22.6707 18.3371 22.4075 17.7013 21.9388 17.2325L20.7888 16.0825C20.7407 16.0344 20.7029 15.977 20.6778 15.9138C20.6526 15.8506 20.6406 15.783 20.6425 15.715C20.6444 15.647 20.6601 15.5802 20.6887 15.5185C20.7173 15.4568 20.7581 15.4016 20.8088 15.3563L28.455 8.50001L28.475 8.48126C28.801 8.15613 29.0596 7.76989 29.2361 7.34465C29.4126 6.91941 29.5034 6.46353 29.5034 6.00313C29.5034 5.54273 29.4126 5.08686 29.2361 4.66162C29.0596 4.23638 28.801 3.85013 28.475 3.52501ZM12 29.2925L9.20753 26.5L12.3538 23.3538C12.4476 23.2599 12.5003 23.1327 12.5003 23C12.5003 22.8673 12.4476 22.7401 12.3538 22.6463C12.26 22.5524 12.1327 22.4997 12 22.4997C11.8673 22.4997 11.7401 22.5524 11.6463 22.6463L8.50003 25.7925L6.20753 23.5L9.35378 20.3538C9.4476 20.2599 9.50031 20.1327 9.50031 20C9.50031 19.8673 9.4476 19.7401 9.35378 19.6463C9.25996 19.5524 9.13271 19.4997 9.00003 19.4997C8.86735 19.4997 8.7401 19.5524 8.64628 19.6463L5.50003 22.7925L2.70753 20L9.00003 13.7075L18.2925 23L12 29.2925ZM27.7763 7.75876L20.14 14.6125C19.9886 14.7487 19.8664 14.9143 19.781 15.0993C19.6957 15.2842 19.6489 15.4846 19.6435 15.6883C19.6381 15.8919 19.6743 16.0945 19.7498 16.2837C19.8252 16.4729 19.9385 16.6447 20.0825 16.7888L21.2325 17.9388C21.3724 18.0781 21.4833 18.2437 21.559 18.426C21.6347 18.6084 21.6737 18.8038 21.6737 19.0013C21.6737 19.1987 21.6347 19.3942 21.559 19.5765C21.4833 19.7588 21.3724 19.9244 21.2325 20.0638L19 22.2925L9.70753 13L11.9388 10.7675C12.0781 10.6277 12.2437 10.5167 12.426 10.441C12.6084 10.3653 12.8039 10.3263 13.0013 10.3263C13.1987 10.3263 13.3942 10.3653 13.5765 10.441C13.7588 10.5167 13.9244 10.6277 14.0638 10.7675L15.2138 11.9175C15.3578 12.0616 15.5296 12.1748 15.7188 12.2503C15.908 12.3258 16.1106 12.3619 16.3143 12.3565C16.5179 12.3512 16.7183 12.3044 16.9032 12.219C17.0882 12.1336 17.2538 12.0115 17.39 11.86L24.2438 4.22376C24.7153 3.76836 25.3468 3.51638 26.0023 3.52207C26.6578 3.52777 27.2848 3.79069 27.7483 4.25421C28.2118 4.71773 28.4748 5.34476 28.4805 6.00026C28.4862 6.65575 28.2342 7.28725 27.7788 7.75876H27.7763Z" fill="black"/>
</svg>
