<svg width="32" height="32" viewBox="0 0 32 32" fill="none" xmlns="http://www.w3.org/2000/svg">
<path d="M28.9375 20.3287C28.6715 20.1157 28.3408 19.9997 28 19.9997C27.6592 19.9997 27.3286 20.1157 27.0625 20.3287C26.75 20.58 24 22.875 24 26C24 27.0609 24.4214 28.0783 25.1716 28.8284C25.9217 29.5786 26.9391 30 28 30C29.0609 30 30.0783 29.5786 30.8284 28.8284C31.5786 28.0783 32 27.0609 32 26C32 22.875 29.25 20.58 28.9375 20.3287ZM28 27C27.7348 27 27.4804 26.8946 27.2929 26.7071C27.1054 26.5196 27 26.2652 27 26C27 25.15 27.4888 24.295 28 23.6462C28.5088 24.2925 29 25.1462 29 26C29 26.2652 28.8947 26.5196 28.7071 26.7071C28.5196 26.8946 28.2652 27 28 27ZM29.0613 14.375L15.625 0.938741C15.4857 0.798902 15.3201 0.687946 15.1377 0.612238C14.9554 0.53653 14.7599 0.497559 14.5625 0.497559C14.3651 0.497559 14.1696 0.53653 13.9873 0.612238C13.805 0.687946 13.6394 0.798902 13.5 0.938741L8.78126 5.66124L6.06001 2.93874C5.92048 2.79921 5.75483 2.68853 5.57253 2.61302C5.39023 2.53751 5.19483 2.49864 4.99751 2.49864C4.59899 2.49864 4.2168 2.65695 3.93501 2.93874C3.65322 3.22053 3.49491 3.60273 3.49491 4.00124C3.49491 4.39976 3.65322 4.78195 3.93501 5.06374L6.66001 7.78249L1.52501 12.9175C1.19997 13.2425 0.942125 13.6284 0.766212 14.053C0.590298 14.4777 0.499756 14.9328 0.499756 15.3925C0.499756 15.8521 0.590298 16.3073 0.766212 16.732C0.942125 17.1566 1.19997 17.5425 1.52501 17.8675L12.1325 28.475C12.4575 28.8 12.8434 29.0579 13.268 29.2338C13.6927 29.4097 14.1479 29.5002 14.6075 29.5002C15.0672 29.5002 15.5223 29.4097 15.947 29.2338C16.3716 29.0579 16.7575 28.8 17.0825 28.475L29.0613 16.5C29.2011 16.3606 29.3121 16.195 29.3878 16.0127C29.4635 15.8304 29.5024 15.6349 29.5024 15.4375C29.5024 15.2401 29.4635 15.0446 29.3878 14.8623C29.3121 14.6799 29.2011 14.5143 29.0613 14.375ZM14.9613 26.3537C14.9148 26.4002 14.8597 26.4371 14.799 26.4623C14.7383 26.4874 14.6732 26.5004 14.6075 26.5004C14.5418 26.5004 14.4767 26.4874 14.416 26.4623C14.3553 26.4371 14.3002 26.4002 14.2538 26.3537L3.64626 15.75C3.59977 15.7036 3.56289 15.6484 3.53773 15.5877C3.51257 15.527 3.49961 15.4619 3.49961 15.3962C3.49961 15.3305 3.51257 15.2655 3.53773 15.2048C3.56289 15.1441 3.59977 15.0889 3.64626 15.0425L8.78126 9.90374L11.44 12.5612C10.9832 13.5192 10.8797 14.6078 11.1478 15.6347C11.4158 16.6616 12.0382 17.5606 12.9049 18.1731C13.7716 18.7856 14.827 19.072 15.8844 18.9818C16.9419 18.8916 17.9334 18.4305 18.6838 17.6801C19.4343 16.9296 19.8953 15.9381 19.9856 14.8806C20.0758 13.8232 19.7894 12.7679 19.1769 11.9011C18.5644 11.0344 17.6653 10.412 16.6384 10.144C15.6115 9.87594 14.523 9.97945 13.565 10.4362L10.9038 7.78249L14.565 4.12499L25.875 15.435L14.9613 26.3537ZM15.5 13C15.7967 13 16.0867 13.088 16.3334 13.2528C16.58 13.4176 16.7723 13.6519 16.8858 13.926C16.9994 14.2001 17.0291 14.5017 16.9712 14.7926C16.9133 15.0836 16.7704 15.3509 16.5607 15.5607C16.3509 15.7704 16.0836 15.9133 15.7926 15.9712C15.5017 16.029 15.2001 15.9993 14.926 15.8858C14.6519 15.7723 14.4176 15.58 14.2528 15.3333C14.088 15.0867 14 14.7967 14 14.5C14 14.1022 14.158 13.7206 14.4393 13.4393C14.7207 13.158 15.1022 13 15.5 13Z" fill="black"/>
</svg>
