<svg width="32" height="32" viewBox="0 0 32 32" fill="none" xmlns="http://www.w3.org/2000/svg">
<path d="M28 3.5C25.4637 3.5 22.605 4.905 19.5 7.675C17.1912 9.73625 15.2012 12.1538 13.875 13.9163C12.8181 13.5351 11.685 13.4139 10.5714 13.5629C9.45781 13.7119 8.39646 14.1268 7.47702 14.7725C6.55758 15.4182 5.80707 16.2757 5.2889 17.2726C4.77073 18.2695 4.50013 19.3765 4.49996 20.5C4.49996 24.6525 1.84246 26.5 1.72246 26.585C1.63362 26.6447 1.56628 26.7313 1.53035 26.8322C1.49442 26.933 1.4918 27.0427 1.52286 27.1451C1.55393 27.2475 1.61704 27.3373 1.70293 27.4012C1.78881 27.4651 1.89293 27.4997 1.99996 27.5H11.5C12.6235 27.4998 13.7305 27.2292 14.7273 26.7111C15.7242 26.1929 16.5818 25.4424 17.2274 24.5229C17.8731 23.6035 18.288 22.5422 18.4371 21.4286C18.5861 20.315 18.4649 19.1819 18.0837 18.125C19.8475 16.7963 22.2637 14.8062 24.325 12.5C27.095 9.395 28.5 6.53625 28.5 4C28.5 3.86739 28.4473 3.74021 28.3535 3.64645C28.2597 3.55268 28.1326 3.5 28 3.5ZM11.5 26.5H3.29371C4.23871 25.4613 5.49996 23.51 5.49996 20.5C5.49996 19.3133 5.85186 18.1533 6.51115 17.1666C7.17043 16.1799 8.10751 15.4108 9.20386 14.9567C10.3002 14.5026 11.5066 14.3838 12.6705 14.6153C13.8344 14.8468 14.9035 15.4182 15.7426 16.2574C16.5817 17.0965 17.1532 18.1656 17.3847 19.3295C17.6162 20.4933 17.4974 21.6997 17.0432 22.7961C16.5891 23.8925 15.8201 24.8295 14.8334 25.4888C13.8467 26.1481 12.6867 26.5 11.5 26.5ZM14.815 14.3363C15.3312 13.6562 15.98 12.8363 16.7262 11.9738C18.0709 12.7984 19.2016 13.9291 20.0262 15.2738C19.1587 16.0238 18.3437 16.6687 17.6637 17.185C17.0119 15.9782 16.0218 14.9881 14.815 14.3363ZM20.7862 14.6038C19.9187 13.2387 18.7613 12.0813 17.3962 11.2137C20.125 8.17875 23.9075 4.82875 27.4775 4.5225C27.1712 8.0925 23.8212 11.875 20.7862 14.6038Z" fill="black"/>
</svg>
