<svg width="32" height="32" viewBox="0 0 32 32" fill="none" xmlns="http://www.w3.org/2000/svg">
<path d="M28.8125 20.61C28.7238 20.539 28.6136 20.5003 28.5 20.5003C28.3864 20.5003 28.2761 20.539 28.1875 20.61C28.0775 20.6975 25.5 22.7913 25.5 25.5C25.5 26.2957 25.816 27.0587 26.3786 27.6213C26.9413 28.1839 27.7043 28.5 28.5 28.5C29.2956 28.5 30.0587 28.1839 30.6213 27.6213C31.1839 27.0587 31.5 26.2957 31.5 25.5C31.5 22.7913 28.9225 20.6975 28.8125 20.61ZM28.5 27.5C27.9695 27.5 27.4608 27.2893 27.0858 26.9142C26.7107 26.5392 26.5 26.0304 26.5 25.5C26.5 23.7813 27.8687 22.275 28.5 21.6713C29.1312 22.275 30.5 23.7813 30.5 25.5C30.5 26.0304 30.2893 26.5392 29.9142 26.9142C29.5391 27.2893 29.0304 27.5 28.5 27.5ZM28.3537 15.0825L14.9175 1.64626C14.8237 1.55276 14.6967 1.50024 14.5643 1.50024C14.4319 1.50024 14.305 1.55276 14.2112 1.64626L8.78122 7.07501L5.35247 3.64626C5.25786 3.55653 5.13194 3.50731 5.00156 3.5091C4.87118 3.51088 4.74665 3.56353 4.65453 3.65581C4.56241 3.74809 4.50999 3.87271 4.50843 4.0031C4.50688 4.13348 4.55632 4.25931 4.64622 4.35376L8.07497 7.78251L2.23247 13.625C2.00022 13.8572 1.81598 14.1328 1.69028 14.4362C1.56458 14.7396 1.49988 15.0647 1.49988 15.3931C1.49988 15.7215 1.56458 16.0467 1.69028 16.3501C1.81598 16.6535 2.00022 16.9291 2.23247 17.1613L12.8387 27.7675C13.0709 27.9998 13.3465 28.184 13.6499 28.3097C13.9533 28.4354 14.2785 28.5001 14.6068 28.5001C14.9352 28.5001 15.2604 28.4354 15.5638 28.3097C15.8672 28.184 16.1428 27.9998 16.375 27.7675L28.3537 15.7888C28.4472 15.695 28.4997 15.568 28.4997 15.4356C28.4997 15.3032 28.4472 15.1762 28.3537 15.0825ZM15.6675 27.06C15.5281 27.1999 15.3625 27.3108 15.1802 27.3865C14.9979 27.4622 14.8024 27.5012 14.605 27.5012C14.4075 27.5012 14.2121 27.4622 14.0297 27.3865C13.8474 27.3108 13.6818 27.1999 13.5425 27.06L2.93872 16.4538C2.79888 16.3144 2.68792 16.1488 2.61222 15.9665C2.53651 15.7842 2.49754 15.5887 2.49754 15.3913C2.49754 15.1938 2.53651 14.9984 2.61222 14.816C2.68792 14.6337 2.79888 14.4681 2.93872 14.3288L8.78122 8.49001L13.0562 12.765C12.6166 13.3781 12.4242 14.1344 12.5172 14.883C12.6102 15.6317 12.9819 16.3178 13.5582 16.8047C14.1345 17.2916 14.873 17.5434 15.6267 17.5101C16.3804 17.4769 17.0939 17.1608 17.625 16.625C18.1511 16.092 18.4588 15.3816 18.4877 14.6332C18.5166 13.8849 18.2645 13.1528 17.7811 12.5809C17.2977 12.009 16.6178 11.6385 15.8751 11.5423C15.1324 11.4462 14.3806 11.6313 13.7675 12.0613L9.49247 7.78626L14.5687 2.71126L27.2925 15.435L15.6675 27.06ZM16.9175 15.9138C16.6378 16.1936 16.2815 16.3842 15.8935 16.4615C15.5055 16.5388 15.1033 16.4992 14.7377 16.3479C14.3722 16.1966 14.0598 15.9402 13.8399 15.6113C13.6201 15.2824 13.5028 14.8956 13.5028 14.5C13.5028 14.1044 13.6201 13.7177 13.8399 13.3887C14.0598 13.0598 14.3722 12.8035 14.7377 12.6521C15.1033 12.5008 15.5055 12.4613 15.8935 12.5385C16.2815 12.6158 16.6378 12.8064 16.9175 13.0863C17.2918 13.4618 17.5016 13.9706 17.5009 14.5008C17.5002 15.031 17.289 15.5392 16.9137 15.9138H16.9175Z" fill="black"/>
</svg>
