<svg width="32" height="32" viewBox="0 0 32 32" fill="none" xmlns="http://www.w3.org/2000/svg">
<path d="M29.1837 2.81621C28.3398 1.97236 27.1953 1.49829 26.0018 1.49829C24.8084 1.49829 23.6639 1.97236 22.82 2.81621C22.8 2.83495 22.7825 2.85495 22.7637 2.87495L16.25 10.125L15.4725 9.34871C15.1475 9.02366 14.7616 8.76582 14.3369 8.58991C13.9123 8.41399 13.4571 8.32345 12.9975 8.32345C12.5378 8.32345 12.0827 8.41399 11.658 8.58991C11.2333 8.76582 10.8475 9.02366 10.5225 9.34871L0.939962 18.9387C0.800122 19.0781 0.689167 19.2436 0.613459 19.426C0.537751 19.6083 0.498779 19.8038 0.498779 20.0012C0.498779 20.1986 0.537751 20.3941 0.613459 20.5764C0.689167 20.7588 0.800122 20.9243 0.939962 21.0637L10.94 31.0637C11.0793 31.2035 11.2449 31.3145 11.4272 31.3902C11.6096 31.4659 11.805 31.5049 12.0025 31.5049C12.1999 31.5049 12.3954 31.4659 12.5777 31.3902C12.76 31.3145 12.9256 31.2035 13.065 31.0637L22.6525 21.4762C22.9775 21.1512 23.2353 20.7653 23.4113 20.3407C23.5872 19.916 23.6777 19.4609 23.6777 19.0012C23.6777 18.5415 23.5872 18.0864 23.4113 17.6617C23.2353 17.2371 22.9775 16.8512 22.6525 16.5262L21.875 15.75L29.125 9.23995C29.145 9.2212 29.165 9.20371 29.1837 9.18371C29.6021 8.76578 29.934 8.26948 30.1605 7.72319C30.3869 7.1769 30.5035 6.59132 30.5035 5.99996C30.5035 5.40859 30.3869 4.82301 30.1605 4.27672C29.934 3.73043 29.6021 3.23413 29.1837 2.81621ZM12 27.875L10.625 26.5L13.0637 24.06C13.3455 23.7782 13.5038 23.396 13.5038 22.9975C13.5038 22.5989 13.3455 22.2167 13.0637 21.935C12.7819 21.6532 12.3997 21.4949 12.0012 21.4949C11.6027 21.4949 11.2205 21.6532 10.9387 21.935L8.49996 24.375L7.62496 23.5L10.0637 21.06C10.3455 20.7782 10.5038 20.396 10.5038 19.9975C10.5038 19.5989 10.3455 19.2167 10.0637 18.935C9.78192 18.6532 9.39973 18.4949 9.00121 18.4949C8.6027 18.4949 8.2205 18.6532 7.93871 18.935L5.49996 21.375L4.12496 20L8.99996 15.125L16.875 23L12 27.875ZM27.0862 7.03496L19.4737 13.8662C19.2215 14.0931 19.018 14.3689 18.8758 14.6769C18.7336 14.9849 18.6555 15.3186 18.6464 15.6578C18.6373 15.9969 18.6973 16.3343 18.8228 16.6495C18.9482 16.9647 19.1365 17.2511 19.3762 17.4912L20.5262 18.6412C20.5727 18.6876 20.6096 18.7428 20.6347 18.8035C20.6599 18.8642 20.6729 18.9292 20.6729 18.995C20.6729 19.0607 20.6599 19.1257 20.6347 19.1864C20.6096 19.2471 20.5727 19.3023 20.5262 19.3487L19 20.875L11.125 13L12.65 11.475C12.6964 11.4285 12.7515 11.3916 12.8122 11.3664C12.8729 11.3413 12.938 11.3283 13.0037 11.3283C13.0694 11.3283 13.1345 11.3413 13.1952 11.3664C13.2559 11.3916 13.311 11.4285 13.3575 11.475L14.5 12.625C14.7401 12.8646 15.0264 13.0529 15.3416 13.1784C15.6568 13.3039 15.9943 13.3639 16.3334 13.3547C16.6725 13.3456 17.0063 13.2676 17.3143 13.1253C17.6223 12.9831 17.8981 12.7797 18.125 12.5275L24.9562 4.91495C25.0957 4.77543 25.2614 4.66474 25.4437 4.58923C25.626 4.51372 25.8214 4.47485 26.0187 4.47485C26.216 4.47485 26.4114 4.51372 26.5937 4.58923C26.776 4.66474 26.9417 4.77543 27.0812 4.91495C27.2207 5.05448 27.3314 5.22013 27.4069 5.40243C27.4824 5.58474 27.5213 5.78013 27.5213 5.97746C27.5213 6.17478 27.4824 6.37017 27.4069 6.55248C27.3314 6.73478 27.2207 6.90043 27.0812 7.03996L27.0862 7.03496Z" fill="black"/>
</svg>
