<svg width="32" height="32" viewBox="0 0 32 32" fill="none" xmlns="http://www.w3.org/2000/svg">
<path d="M25.4463 6.37489C23.5507 4.51011 21.1462 3.24723 18.5351 2.74498C15.9239 2.24274 13.2225 2.52353 10.7704 3.55207C8.31836 4.58061 6.22503 6.311 4.75352 8.52577C3.28201 10.7405 2.498 13.3408 2.5 15.9999C2.5 21.5899 5.95 26.2811 11.5 28.2424C12.1787 28.4824 12.9051 28.556 13.6182 28.4571C14.3313 28.3582 15.0102 28.0897 15.598 27.674C16.1858 27.2584 16.6653 26.7078 16.9963 26.0685C17.3272 25.4292 17.5 24.7198 17.5 23.9999C17.5 23.6021 17.658 23.2205 17.9393 22.9392C18.2206 22.6579 18.6022 22.4999 19 22.4999H24.7763C25.7972 22.5047 26.789 22.1601 27.5871 21.5235C28.3852 20.8868 28.9416 19.9963 29.1638 18.9999C29.3956 17.9784 29.5084 16.9336 29.5 15.8861C29.4877 14.1113 29.123 12.3567 28.4271 10.7239C27.7312 9.09119 26.718 7.61292 25.4463 6.37489ZM26.2388 18.3336C26.1643 18.6652 25.9786 18.9614 25.7125 19.1729C25.4465 19.3843 25.1161 19.4984 24.7763 19.4961H19C17.8065 19.4961 16.6619 19.9702 15.818 20.8142C14.9741 21.6581 14.5 22.8027 14.5 23.9961C14.4997 24.236 14.442 24.4722 14.3315 24.6851C14.2211 24.898 14.0612 25.0813 13.8653 25.2197C13.6694 25.358 13.4432 25.4474 13.2057 25.4803C12.9681 25.5131 12.7261 25.4886 12.5 25.4086C10.4188 24.6736 8.66875 23.4386 7.44 21.8386C6.16355 20.1615 5.48108 18.1075 5.5 15.9999C5.49986 13.2339 6.59116 10.5795 8.53683 8.61346C10.4825 6.64742 13.1254 5.52854 15.8913 5.49989H16C18.766 5.51115 21.4168 6.60888 23.3809 8.55642C25.3451 10.504 26.4653 13.1453 26.5 15.9111C26.5068 16.7277 26.4191 17.5423 26.2388 18.3386V18.3336ZM18 9.49989C18 9.89545 17.8827 10.2821 17.6629 10.611C17.4432 10.9399 17.1308 11.1963 16.7654 11.3476C16.3999 11.499 15.9978 11.5386 15.6098 11.4615C15.2219 11.3843 14.8655 11.1938 14.5858 10.9141C14.3061 10.6344 14.1156 10.278 14.0384 9.89007C13.9613 9.50211 14.0009 9.09998 14.1522 8.73452C14.3036 8.36907 14.56 8.05671 14.8889 7.83695C15.2178 7.61719 15.6044 7.49989 16 7.49989C16.5304 7.49989 17.0391 7.7106 17.4142 8.08568C17.7893 8.46075 18 8.96946 18 9.49989ZM12.5 12.4999C12.5 12.8955 12.3827 13.2821 12.1629 13.611C11.9432 13.9399 11.6308 14.1963 11.2654 14.3476C10.8999 14.499 10.4978 14.5386 10.1098 14.4615C9.72186 14.3843 9.3655 14.1938 9.08579 13.9141C8.80609 13.6344 8.6156 13.278 8.53843 12.8901C8.46126 12.5021 8.50087 12.1 8.65224 11.7345C8.80362 11.3691 9.05997 11.0567 9.38886 10.837C9.71776 10.6172 10.1044 10.4999 10.5 10.4999C11.0304 10.4999 11.5391 10.7106 11.9142 11.0857C12.2893 11.4607 12.5 11.9695 12.5 12.4999ZM12.5 19.4999C12.5 19.8955 12.3827 20.2821 12.1629 20.611C11.9432 20.9399 11.6308 21.1963 11.2654 21.3477C10.8999 21.499 10.4978 21.5386 10.1098 21.4615C9.72186 21.3843 9.3655 21.1938 9.08579 20.9141C8.80609 20.6344 8.6156 20.278 8.53843 19.8901C8.46126 19.5021 8.50087 19.1 8.65224 18.7345C8.80362 18.3691 9.05997 18.0567 9.38886 17.837C9.71776 17.6172 10.1044 17.4999 10.5 17.4999C11.0304 17.4999 11.5391 17.7106 11.9142 18.0857C12.2893 18.4607 12.5 18.9695 12.5 19.4999ZM23.5 12.4999C23.5 12.8955 23.3827 13.2821 23.1629 13.611C22.9432 13.9399 22.6308 14.1963 22.2654 14.3476C21.8999 14.499 21.4978 14.5386 21.1098 14.4615C20.7219 14.3843 20.3655 14.1938 20.0858 13.9141C19.8061 13.6344 19.6156 13.278 19.5384 12.8901C19.4613 12.5021 19.5009 12.1 19.6522 11.7345C19.8036 11.3691 20.06 11.0567 20.3889 10.837C20.7178 10.6172 21.1044 10.4999 21.5 10.4999C22.0304 10.4999 22.5391 10.7106 22.9142 11.0857C23.2893 11.4607 23.5 11.9695 23.5 12.4999Z" fill="black"/>
</svg>
