<svg width="32" height="32" viewBox="0 0 32 32" fill="none" xmlns="http://www.w3.org/2000/svg">
<path d="M31.5 16C31.4977 17.9884 30.7068 19.8947 29.3007 21.3007C27.8947 22.7068 25.9884 23.4977 24 23.5H5.5C4.17392 23.5 2.90215 22.9732 1.96447 22.0355C1.02678 21.0979 0.5 19.8261 0.5 18.5C0.5 17.1739 1.02678 15.9021 1.96447 14.9645C2.90215 14.0268 4.17392 13.5 5.5 13.5H23C23.3978 13.5 23.7794 13.658 24.0607 13.9393C24.342 14.2206 24.5 14.6022 24.5 15C24.5 15.3978 24.342 15.7794 24.0607 16.0607C23.7794 16.342 23.3978 16.5 23 16.5H5.5C4.96957 16.5 4.46086 16.7107 4.08579 17.0858C3.71071 17.4609 3.5 17.9696 3.5 18.5C3.5 19.0304 3.71071 19.5391 4.08579 19.9142C4.46086 20.2893 4.96957 20.5 5.5 20.5H24C25.1935 20.5 26.3381 20.0259 27.182 19.182C28.0259 18.3381 28.5 17.1935 28.5 16C28.5 14.8065 28.0259 13.6619 27.182 12.818C26.3381 11.9741 25.1935 11.5 24 11.5H10C9.60218 11.5 9.22064 11.342 8.93934 11.0607C8.65804 10.7794 8.5 10.3978 8.5 10C8.5 9.60218 8.65804 9.22064 8.93934 8.93934C9.22064 8.65804 9.60218 8.5 10 8.5H24C25.9884 8.50232 27.8947 9.29324 29.3007 10.6993C30.7068 12.1053 31.4977 14.0116 31.5 16Z" fill="black"/>
</svg>
