<svg width="32" height="32" viewBox="0 0 32 32" fill="none" xmlns="http://www.w3.org/2000/svg">
<path d="M25.8538 15.6463C25.9003 15.6927 25.9372 15.7478 25.9623 15.8085C25.9875 15.8692 26.0004 15.9343 26.0004 16C26.0004 16.0657 25.9875 16.1308 25.9623 16.1915C25.9372 16.2522 25.9003 16.3073 25.8538 16.3538L15.5963 26.6038C14.3771 27.8228 12.7236 28.5075 10.9996 28.5074C9.27555 28.5073 7.62216 27.8223 6.40316 26.6031C5.18416 25.384 4.49939 23.7305 4.49951 22.0064C4.49963 20.2824 5.18462 18.629 6.40378 17.41L18.815 4.81875C19.2328 4.40066 19.7288 4.06894 20.2748 3.84254C20.8208 3.61614 21.406 3.4995 21.997 3.49927C22.5881 3.49904 23.1734 3.61522 23.7195 3.84119C24.2656 4.06716 24.7619 4.39848 25.18 4.81625C25.5981 5.23402 25.9298 5.73005 26.1562 6.27601C26.3826 6.82198 26.4993 7.40719 26.4995 7.99823C26.4998 8.58928 26.3836 9.17458 26.1576 9.72073C25.9316 10.2669 25.6003 10.7632 25.1825 11.1813L12.77 23.7675C12.538 23.9998 12.2625 24.1841 11.9592 24.3099C11.656 24.4357 11.3309 24.5005 11.0026 24.5007C10.6743 24.5009 10.3492 24.4364 10.0458 24.3109C9.74239 24.1854 9.46668 24.0014 9.23441 23.7694C9.00213 23.5373 8.81783 23.2618 8.69203 22.9586C8.56623 22.6553 8.50139 22.3303 8.50122 22.002C8.50104 21.6736 8.56554 21.3485 8.69102 21.0451C8.8165 20.7417 9.0005 20.466 9.23253 20.2338L19.6438 9.64875C19.6894 9.6001 19.7443 9.56106 19.8052 9.53394C19.8661 9.50681 19.9318 9.49215 19.9985 9.49081C20.0652 9.48947 20.1314 9.50147 20.1934 9.52612C20.2554 9.55078 20.3118 9.58757 20.3593 9.63435C20.4068 9.68113 20.4445 9.73694 20.4701 9.7985C20.4958 9.86006 20.5088 9.92613 20.5086 9.99281C20.5083 10.0595 20.4947 10.1255 20.4685 10.1868C20.4424 10.2481 20.4042 10.3036 20.3563 10.35L9.94253 20.9375C9.803 21.0766 9.69224 21.2419 9.61657 21.4238C9.5409 21.6057 9.50181 21.8008 9.50152 21.9978C9.50123 22.1948 9.53975 22.39 9.61488 22.5721C9.69001 22.7543 9.80029 22.9198 9.93941 23.0594C10.0785 23.1989 10.2438 23.3097 10.4257 23.3853C10.6076 23.461 10.8027 23.5001 10.9997 23.5004C11.1967 23.5007 11.3919 23.4622 11.574 23.387C11.7562 23.3119 11.9218 23.2016 12.0613 23.0625L24.4725 10.4763C24.7978 10.1514 25.0559 9.76565 25.2321 9.34105C25.4083 8.91644 25.4991 8.4613 25.4994 8.00159C25.4997 7.54188 25.4094 7.08662 25.2338 6.66179C25.0581 6.23696 24.8005 5.85089 24.4757 5.52563C24.1508 5.20036 23.7651 4.94226 23.3405 4.76607C22.9158 4.58988 22.4607 4.49905 22.001 4.49876C21.5413 4.49847 21.086 4.58873 20.6612 4.76438C20.2364 4.94003 19.8503 5.19764 19.525 5.5225L7.11378 18.1088C6.08176 19.1399 5.50165 20.5389 5.50106 21.9978C5.50047 23.4567 6.07946 24.8561 7.11066 25.8881C8.14185 26.9202 9.54078 27.5003 10.9997 27.5009C12.4586 27.5014 13.858 26.9224 14.89 25.8913L25.14 15.6413C25.1869 15.5941 25.2427 15.5569 25.3042 15.5316C25.3656 15.5063 25.4315 15.4935 25.498 15.4939C25.5644 15.4944 25.6301 15.5081 25.6912 15.5343C25.7523 15.5604 25.8076 15.5985 25.8538 15.6463Z" fill="black"/>
</svg>
