<svg width="32" height="32" viewBox="0 0 32 32" fill="none" xmlns="http://www.w3.org/2000/svg">
<path d="M29.5213 25.1363L17.5125 4.14502C17.3603 3.8742 17.1388 3.64878 16.8707 3.49189C16.6026 3.33501 16.2975 3.25232 15.9869 3.25232C15.6762 3.25232 15.3712 3.33501 15.1031 3.49189C14.835 3.64878 14.6134 3.8742 14.4613 4.14502L2.47625 25.145C2.30262 25.4551 2.22754 25.8108 2.26099 26.1646C2.29444 26.5185 2.43483 26.8537 2.6635 27.1258C2.89217 27.3979 3.19826 27.5939 3.54106 27.6878C3.88386 27.7817 4.24712 27.7689 4.5825 27.6513L15.8925 23.7763H15.9013C15.9586 23.7558 16.0214 23.7558 16.0788 23.7763L27.4088 27.6513C27.7448 27.7713 28.1095 27.7858 28.454 27.6927C28.7985 27.5997 29.1064 27.4035 29.3362 27.1305C29.5661 26.8575 29.707 26.5208 29.7401 26.1655C29.7731 25.8102 29.6968 25.4532 29.5213 25.1425V25.1363ZM28.1888 26.1575C28.156 26.1995 28.1101 26.2293 28.0585 26.2422C28.0069 26.2551 27.9524 26.2504 27.9038 26.2288L16.75 22.4125V15C16.75 14.8011 16.671 14.6103 16.5303 14.4697C16.3897 14.329 16.1989 14.25 16 14.25C15.8011 14.25 15.6103 14.329 15.4697 14.4697C15.329 14.6103 15.25 14.8011 15.25 15V22.4013L4.0875 26.2325C4.03981 26.2521 3.98698 26.2554 3.93725 26.2418C3.88751 26.2282 3.84365 26.1986 3.8125 26.1575C3.77758 26.1211 3.7557 26.0741 3.75027 26.0239C3.74485 25.9737 3.75618 25.9231 3.7825 25.88L15.7675 4.87502C15.7888 4.83624 15.8204 4.80407 15.8587 4.78202C15.8971 4.75998 15.9408 4.7489 15.985 4.75002C16.0308 4.7498 16.0757 4.76216 16.115 4.78575C16.1542 4.80933 16.1862 4.84324 16.2075 4.88377L28.2163 25.875C28.2435 25.9185 28.2556 25.9698 28.2506 26.021C28.2456 26.0721 28.2239 26.1201 28.1888 26.1575Z" fill="black"/>
</svg>
