<svg width="32" height="32" viewBox="0 0 32 32" fill="none" xmlns="http://www.w3.org/2000/svg">
<path d="M28.415 3.58497C28.1635 3.33363 27.8496 3.15388 27.5055 3.06424C27.1614 2.9746 26.7997 2.9783 26.4575 3.07497H26.4388L2.44625 10.355C2.05569 10.4673 1.70862 10.6959 1.45125 11.0104C1.19387 11.3249 1.03841 11.7103 1.00556 12.1154C0.972711 12.5204 1.06403 12.9259 1.26737 13.2778C1.4707 13.6296 1.7764 13.9112 2.14375 14.085L12.8462 19.1537L17.915 29.8562C18.075 30.199 18.3298 30.4888 18.6492 30.6914C18.9685 30.8941 19.3392 31.0011 19.7175 31C19.775 31 19.8325 30.9975 19.89 30.9925C20.2936 30.9598 20.6776 30.8044 20.9904 30.5473C21.3032 30.2901 21.5299 29.9434 21.64 29.5537L28.915 5.56122C28.915 5.55497 28.915 5.54872 28.915 5.54247C29.0129 5.20117 29.0182 4.83996 28.9303 4.49594C28.8425 4.15192 28.6646 3.8375 28.415 3.58497ZM19.7288 28.9812L19.7225 28.9987L14.8025 18.6125L20.7075 12.7062C20.8871 12.5172 20.9858 12.2654 20.9824 12.0046C20.9791 11.7439 20.874 11.4947 20.6896 11.3103C20.5052 11.1259 20.2561 11.0209 19.9953 11.0175C19.7346 11.0142 19.4828 11.1128 19.2938 11.2925L13.3875 17.1975L3 12.2775H3.0175L27 4.99997L19.7288 28.9812Z" fill="black"/>
</svg>
