<svg width="32" height="32" viewBox="0 0 32 32" fill="none" xmlns="http://www.w3.org/2000/svg">
<path d="M27.7362 14.6787L6.73625 2.69372C6.47034 2.54456 6.1653 2.47997 5.86176 2.50856C5.55822 2.53715 5.2706 2.65756 5.03722 2.85374C4.80384 3.04992 4.63578 3.31256 4.55544 3.60667C4.47509 3.90077 4.48628 4.21238 4.5875 4.49997L8.46875 15.81V15.8162C8.50813 15.927 8.50813 16.0479 8.46875 16.1587L4.59 27.5C4.51013 27.7259 4.48554 27.9676 4.51829 28.205C4.55104 28.4424 4.64018 28.6684 4.77825 28.8643C4.91632 29.0601 5.09929 29.22 5.31186 29.3306C5.52442 29.4412 5.76039 29.4993 6 29.5C6.25982 29.4991 6.51506 29.4316 6.74125 29.3037L27.7337 17.2937C27.9658 17.1633 28.1589 16.9734 28.2933 16.7436C28.4278 16.5138 28.4986 16.2524 28.4986 15.9862C28.4986 15.72 28.4278 15.4586 28.2933 15.2288C28.1589 14.9991 27.9658 14.8092 27.7337 14.6787H27.7362ZM27.2362 16.4287L6.25 28.4337C6.16076 28.4835 6.05841 28.5047 5.95674 28.4945C5.85507 28.4844 5.75895 28.4433 5.68133 28.3768C5.60371 28.3104 5.54832 28.2217 5.5226 28.1228C5.49689 28.024 5.50209 27.9196 5.5375 27.8237L9.4125 16.5H17C17.1326 16.5 17.2598 16.4473 17.3536 16.3535C17.4473 16.2598 17.5 16.1326 17.5 16C17.5 15.8674 17.4473 15.7402 17.3536 15.6464C17.2598 15.5526 17.1326 15.5 17 15.5H9.41875C9.41821 15.4946 9.41821 15.4891 9.41875 15.4837L5.53125 4.17122C5.49569 4.07481 5.4907 3.96978 5.51695 3.87043C5.54321 3.77109 5.59943 3.68224 5.67798 3.61599C5.75653 3.54973 5.85358 3.50929 5.95593 3.50016C6.05829 3.49103 6.16097 3.51366 6.25 3.56497L27.25 15.5487C27.3281 15.592 27.3933 15.6553 27.4387 15.7323C27.484 15.8092 27.5079 15.8969 27.5079 15.9862C27.5079 16.0755 27.484 16.1632 27.4387 16.2402C27.3933 16.3171 27.3281 16.3805 27.25 16.4237L27.2362 16.4287Z" fill="black"/>
</svg>
