<svg width="32" height="32" viewBox="0 0 32 32" fill="none" xmlns="http://www.w3.org/2000/svg">
<path d="M30.1775 24.775L30.17 24.7638L18.1625 3.77129C17.9446 3.38595 17.6284 3.06536 17.246 2.8423C16.8636 2.61925 16.4289 2.50171 15.9863 2.50171C15.5436 2.50171 15.1089 2.61925 14.7265 2.8423C14.3441 3.06536 14.0279 3.38595 13.81 3.77129L1.8225 24.775C1.574 25.2184 1.46651 25.7269 1.51437 26.2329C1.56223 26.7389 1.76317 27.2182 2.09039 27.6071C2.41762 27.996 2.8556 28.2759 3.34595 28.4095C3.83629 28.5431 4.35572 28.5241 4.835 28.355L15.985 24.5288L27.1663 28.355C27.436 28.4506 27.7201 28.4996 28.0063 28.5C28.442 28.4986 28.8698 28.3834 29.2472 28.1657C29.6247 27.948 29.9387 27.6354 30.1581 27.259C30.3775 26.8826 30.4947 26.4553 30.4981 26.0196C30.5015 25.5839 30.391 25.1549 30.1775 24.775ZM17.5 21.875V15C17.5 14.6022 17.342 14.2207 17.0607 13.9394C16.7794 13.6581 16.3978 13.5 16 13.5C15.6022 13.5 15.2206 13.6581 14.9393 13.9394C14.658 14.2207 14.5 14.6022 14.5 15V21.8663L5.095 25.0938L15.9863 6.00754L26.9038 25.095L17.5 21.875Z" fill="black"/>
</svg>
