<svg width="32" height="32" viewBox="0 0 32 32" fill="none" xmlns="http://www.w3.org/2000/svg">
<path opacity="0.08" d="M27.4887 16.8575L6.49124 28.875C6.31363 28.9743 6.10993 29.0171 5.90736 28.9976C5.70479 28.9781 5.51298 28.8973 5.35756 28.7659C5.20214 28.6346 5.0905 28.4589 5.03755 28.2624C4.9846 28.0659 4.99287 27.8579 5.06124 27.6662L8.93624 16.3275C9.01503 16.1102 9.01503 15.8722 8.93624 15.655L5.06124 4.34623C4.99287 4.15456 4.9846 3.94658 5.03755 3.75008C5.0905 3.55358 5.20214 3.37791 5.35756 3.24654C5.51298 3.11516 5.70479 3.03434 5.90736 3.01485C6.10993 2.99536 6.31363 3.03815 6.49124 3.13748L27.4912 15.1187C27.6447 15.2063 27.7723 15.3329 27.8609 15.4857C27.9495 15.6386 27.9961 15.8122 27.9958 15.9888C27.9956 16.1655 27.9485 16.339 27.8595 16.4916C27.7704 16.6441 27.6425 16.7704 27.4887 16.8575Z" fill="black"/>
<path d="M27.9837 14.25L6.98375 2.26376C6.62977 2.06519 6.22374 1.97902 5.81962 2.01669C5.4155 2.05437 5.03241 2.21411 4.72123 2.47469C4.41005 2.73527 4.18552 3.08436 4.07746 3.47558C3.9694 3.86681 3.98293 4.28165 4.11625 4.66501L7.99125 15.9738C7.99075 15.9779 7.99075 15.9821 7.99125 15.9863C7.99055 15.9904 7.99055 15.9946 7.99125 15.9988L4.11625 27.3325C4.00948 27.6341 3.97661 27.9568 4.02039 28.2737C4.06417 28.5906 4.18333 28.8924 4.36787 29.1537C4.55241 29.415 4.79693 29.6283 5.08093 29.7755C5.36492 29.9228 5.6801 29.9998 6 30C6.34708 29.9991 6.68807 29.9087 6.99 29.7375L27.9787 17.7313C28.2883 17.5578 28.5462 17.3051 28.7259 16.9991C28.9056 16.6931 29.0007 16.3448 29.0013 15.99C29.0019 15.6351 28.9081 15.2864 28.7295 14.9798C28.5509 14.6732 28.294 14.4195 27.985 14.245L27.9837 14.25ZM6 28V27.9888L9.7675 17H17C17.2652 17 17.5196 16.8947 17.7071 16.7071C17.8946 16.5196 18 16.2652 18 16C18 15.7348 17.8946 15.4804 17.7071 15.2929C17.5196 15.1054 17.2652 15 17 15H9.7775L6.0075 4.01501L6 4.00001L27 15.9788L6 28Z" fill="black"/>
</svg>
