<svg width="32" height="32" viewBox="0 0 32 32" fill="none" xmlns="http://www.w3.org/2000/svg">
<path opacity="0.08" d="M27.66 26.9388L16.3212 23.0638C16.104 22.985 15.866 22.985 15.6487 23.0638L4.33999 26.9388C4.14832 27.0072 3.94034 27.0154 3.74384 26.9625C3.54734 26.9095 3.37167 26.7979 3.2403 26.6425C3.10892 26.4871 3.0281 26.2953 3.00861 26.0927C2.98912 25.8901 3.0319 25.6864 3.13124 25.5088L15.1125 4.5088C15.199 4.3525 15.3257 4.22221 15.4796 4.13149C15.6335 4.04077 15.8089 3.99292 15.9875 3.99292C16.1661 3.99292 16.3415 4.04077 16.4954 4.13149C16.6492 4.22221 16.776 4.3525 16.8625 4.5088L28.8737 25.5088C28.9739 25.6868 29.0172 25.8913 28.9977 26.0947C28.9782 26.298 28.8968 26.4905 28.7646 26.6463C28.6324 26.802 28.4557 26.9136 28.2582 26.9659C28.0607 27.0182 27.852 27.0087 27.66 26.9388Z" fill="black"/>
<path d="M29.7375 25.0112L17.7312 4.02248C17.5573 3.71319 17.3041 3.45577 16.9978 3.27662C16.6915 3.09747 16.343 3.00305 15.9881 3.00305C15.6333 3.00305 15.2848 3.09747 14.9785 3.27662C14.6721 3.45577 14.419 3.71319 14.245 4.02248L2.25874 25.0225C2.06021 25.3768 1.97429 25.7833 2.01239 26.1877C2.0505 26.5921 2.21084 26.9753 2.47207 27.2863C2.7333 27.5973 3.08305 27.8215 3.47478 27.9288C3.86652 28.0362 4.28166 28.0218 4.66499 27.8875L15.9737 24.0125H15.9862H15.9975L27.3325 27.8875C27.717 28.0235 28.1339 28.0387 28.5273 27.931C28.9207 27.8234 29.2718 27.598 29.5334 27.2852C29.7951 26.9724 29.9549 26.587 29.9914 26.1808C30.0279 25.7746 29.9393 25.3669 29.7375 25.0125V25.0112ZM27.9875 25.9912L17 22.2325V15C17 14.7348 16.8946 14.4804 16.7071 14.2929C16.5196 14.1053 16.2652 14 16 14C15.7348 14 15.4804 14.1053 15.2929 14.2929C15.1054 14.4804 15 14.7348 15 15V22.2225L4.01499 25.9925L3.99999 26L15.9825 4.99998L28 26L27.9875 25.9912Z" fill="black"/>
</svg>
