<svg width="32" height="32" viewBox="0 0 32 32" fill="none" xmlns="http://www.w3.org/2000/svg">
<path d="M28.7675 3.2325C28.4533 2.91823 28.061 2.69337 27.6311 2.5811C27.2011 2.46883 26.749 2.4732 26.3212 2.59375L26.2937 2.6025L2.305 9.875C1.81775 10.0163 1.385 10.3024 1.06425 10.6955C0.743504 11.0886 0.549926 11.5699 0.509232 12.0756C0.468539 12.5813 0.582656 13.0874 0.836425 13.5267C1.0902 13.9659 1.47161 14.3176 1.93 14.535L12.47 19.535L17.47 30.075C17.6696 30.5031 17.9875 30.8653 18.3861 31.1186C18.7848 31.372 19.2476 31.5061 19.72 31.505C19.7912 31.505 19.8637 31.505 19.9362 31.4963C20.4415 31.456 20.9223 31.2617 21.3137 30.9396C21.7051 30.6175 21.9882 30.1831 22.125 29.695L29.3975 5.70625C29.4012 5.69734 29.4041 5.68814 29.4062 5.67875C29.5268 5.25103 29.5312 4.7989 29.4189 4.36893C29.3066 3.93896 29.0818 3.54668 28.7675 3.2325ZM19.625 27.615L15.41 18.7163L21.0662 13.06C21.348 12.7782 21.5063 12.396 21.5063 11.9975C21.5063 11.599 21.348 11.2168 21.0662 10.935C20.7845 10.6532 20.4023 10.4949 20.0037 10.4949C19.6052 10.4949 19.223 10.6532 18.9412 10.935L13.285 16.5913L4.385 12.375L26.25 5.75L19.625 27.615Z" fill="black"/>
</svg>
