<svg width="32" height="32" viewBox="0 0 32 32" fill="none" xmlns="http://www.w3.org/2000/svg">
<path d="M28.0588 3.94003C27.8694 3.74971 27.632 3.61432 27.3718 3.54828C27.1116 3.48225 26.8384 3.48803 26.5812 3.56503L2.5925 10.8338C2.29836 10.9165 2.03651 11.0871 1.84198 11.3227C1.64744 11.5584 1.52951 11.8478 1.50396 12.1523C1.4784 12.4568 1.54644 12.7618 1.69898 13.0265C1.85152 13.2913 2.08127 13.5032 2.3575 13.6338L13.0588 18.7025C13.1634 18.7517 13.2478 18.8356 13.2975 18.94L18.3662 29.6425C18.4861 29.8996 18.677 30.1169 18.9165 30.2689C19.1559 30.4208 19.4339 30.501 19.7175 30.5C19.76 30.5 19.8038 30.5 19.8425 30.5C20.1457 30.4764 20.4344 30.3603 20.6696 30.1674C20.9047 29.9744 21.075 29.714 21.1575 29.4213L28.4338 5.42128V5.41128C28.5098 5.15503 28.5151 4.88297 28.4491 4.62395C28.3831 4.36493 28.2482 4.12861 28.0588 3.94003ZM27.4813 5.13253L20.2025 29.1325C20.1748 29.2303 20.1179 29.3174 20.0395 29.3821C19.9611 29.4467 19.8648 29.486 19.7635 29.4945C19.6622 29.5031 19.5607 29.4805 19.4725 29.4299C19.3844 29.3793 19.3137 29.3031 19.27 29.2113L14.2013 18.5125L20.3563 12.3588C20.4027 12.3123 20.4396 12.2572 20.4647 12.1965C20.4898 12.1358 20.5028 12.0707 20.5028 12.005C20.5028 11.9393 20.4898 11.8743 20.4647 11.8136C20.4396 11.7529 20.4027 11.6977 20.3563 11.6513C20.3098 11.6048 20.2546 11.568 20.1939 11.5428C20.1333 11.5177 20.0682 11.5047 20.0025 11.5047C19.9368 11.5047 19.8717 11.5177 19.8111 11.5428C19.7504 11.568 19.6952 11.6048 19.6488 11.6513L13.4937 17.8063L2.78625 12.73C2.69182 12.6878 2.61335 12.6166 2.56231 12.5266C2.51126 12.4366 2.4903 12.3327 2.5025 12.23C2.50995 12.126 2.55031 12.0271 2.61772 11.9475C2.68514 11.868 2.77612 11.8119 2.8775 11.7875L26.8625 4.52003C26.9072 4.50688 26.9535 4.50015 27 4.50003C27.1313 4.5019 27.2565 4.55533 27.3487 4.64878C27.4123 4.71007 27.4581 4.78734 27.4814 4.87247C27.5047 4.95759 27.5047 5.04743 27.4813 5.13253Z" fill="black"/>
</svg>
