<svg width="32" height="32" viewBox="0 0 32 32" fill="none" xmlns="http://www.w3.org/2000/svg">
<path opacity="0.08" d="M27.9613 5.27244L20.6838 29.2724C20.6282 29.468 20.5144 29.642 20.3574 29.7712C20.2005 29.9004 20.0079 29.9787 19.8053 29.9957C19.6027 30.0127 19.3998 29.9675 19.2235 29.8662C19.0473 29.7649 18.9061 29.6123 18.8188 29.4287L13.75 18.7262C13.6512 18.5178 13.4834 18.35 13.275 18.2512L2.5725 13.1812C2.38892 13.0939 2.23631 12.9527 2.13501 12.7764C2.03371 12.6002 1.98853 12.3972 2.00551 12.1946C2.02248 11.9921 2.10079 11.7995 2.23001 11.6425C2.35922 11.4856 2.5332 11.3717 2.72875 11.3162L26.7288 4.03869C26.8997 3.99077 27.0804 3.98924 27.2522 4.03426C27.4239 4.07927 27.5806 4.16922 27.7061 4.29484C27.8316 4.42046 27.9214 4.57723 27.9662 4.74905C28.0111 4.92086 28.0093 5.10151 27.9613 5.27244Z" fill="black"/>
<path d="M28.415 3.58497C28.1635 3.33363 27.8495 3.15388 27.5055 3.06424C27.1614 2.9746 26.7997 2.9783 26.4575 3.07497H26.4387L2.44624 10.355C2.05569 10.4673 1.70862 10.6959 1.45124 11.0104C1.19387 11.3249 1.0384 11.7103 1.00555 12.1154C0.972705 12.5204 1.06403 12.9259 1.26736 13.2778C1.47069 13.6296 1.77639 13.9112 2.14374 14.085L12.8462 19.1537L17.915 29.8562C18.075 30.199 18.3298 30.4888 18.6492 30.6914C18.9685 30.8941 19.3392 31.0011 19.7175 31C19.775 31 19.8325 30.9975 19.89 30.9925C20.2936 30.9598 20.6776 30.8044 20.9904 30.5473C21.3032 30.2901 21.5299 29.9434 21.64 29.5537L28.915 5.56122C28.915 5.55497 28.915 5.54872 28.915 5.54247C29.0129 5.20117 29.0182 4.83996 28.9303 4.49594C28.8425 4.15192 28.6646 3.8375 28.415 3.58497ZM19.7287 28.9812L19.7225 28.9987L14.8025 18.6125L20.7075 12.7062C20.8871 12.5172 20.9858 12.2654 20.9824 12.0046C20.9791 11.7439 20.874 11.4947 20.6896 11.3103C20.5052 11.1259 20.2561 11.0209 19.9953 11.0175C19.7346 11.0142 19.4828 11.1128 19.2937 11.2925L13.3875 17.1975L2.99999 12.2775H3.01749L27 4.99997L19.7287 28.9812Z" fill="black"/>
</svg>
