<svg width="32" height="32" viewBox="0 0 32 32" fill="none" xmlns="http://www.w3.org/2000/svg">
<path d="M29.3037 25.26L17.2938 4.26754C17.1633 4.0355 16.9734 3.84235 16.7436 3.70794C16.5139 3.57353 16.2525 3.50269 15.9863 3.50269C15.72 3.50269 15.4586 3.57353 15.2289 3.70794C14.9991 3.84235 14.8092 4.0355 14.6788 4.26754L2.69375 25.2675C2.56612 25.4956 2.50029 25.7531 2.5028 26.0145C2.50532 26.2758 2.57607 26.532 2.70807 26.7576C2.84006 26.9831 3.02871 27.1703 3.25532 27.3006C3.48193 27.4308 3.73863 27.4996 4 27.5C4.17043 27.4995 4.33952 27.4699 4.5 27.4125L15.81 23.5313H15.8163C15.927 23.4919 16.048 23.4919 16.1588 23.5313L27.4912 27.4063C27.7793 27.5093 28.0919 27.5218 28.3873 27.4421C28.6826 27.3624 28.9465 27.1943 29.1436 26.9603C29.3407 26.7264 29.4615 26.4378 29.4899 26.1332C29.5183 25.8286 29.4529 25.5226 29.3025 25.2563L29.3037 25.26ZM28.375 26.32C28.3094 26.3998 28.2204 26.4568 28.1205 26.4831C28.0207 26.5093 27.9151 26.5035 27.8188 26.4663L16.495 22.5913V15C16.495 14.8674 16.4423 14.7403 16.3486 14.6465C16.2548 14.5527 16.1276 14.5 15.995 14.5C15.8624 14.5 15.7352 14.5527 15.6414 14.6465C15.5477 14.7403 15.495 14.8674 15.495 15V22.5813H15.4788L4.16625 26.4638C4.07061 26.498 3.96681 26.5023 3.86867 26.4761C3.77052 26.4499 3.68268 26.3945 3.61685 26.3171C3.55102 26.2397 3.51032 26.1441 3.50016 26.0431C3.49 25.942 3.51088 25.8402 3.56 25.7513L15.5438 4.75129C15.587 4.67314 15.6504 4.60799 15.7273 4.56263C15.8043 4.51727 15.8919 4.49335 15.9813 4.49335C16.0706 4.49335 16.1582 4.51727 16.2352 4.56263C16.3121 4.60799 16.3755 4.67314 16.4188 4.75129L28.4287 25.7513C28.4809 25.8396 28.5039 25.9422 28.4942 26.0444C28.4846 26.1465 28.4428 26.243 28.375 26.32Z" fill="black"/>
</svg>
