<svg width="32" height="32" viewBox="0 0 32 32" fill="none" xmlns="http://www.w3.org/2000/svg">
<path d="M26 4.5H12C9.74566 4.5 7.58365 5.39553 5.98959 6.98959C4.39553 8.58365 3.5 10.7457 3.5 13C3.5 15.2543 4.39553 17.4163 5.98959 19.0104C7.58365 20.6045 9.74566 21.5 12 21.5H16.5V26C16.5 26.3978 16.658 26.7794 16.9393 27.0607C17.2206 27.342 17.6022 27.5 18 27.5C18.3978 27.5 18.7794 27.342 19.0607 27.0607C19.342 26.7794 19.5 26.3978 19.5 26V7.5H21.5V26C21.5 26.3978 21.658 26.7794 21.9393 27.0607C22.2206 27.342 22.6022 27.5 23 27.5C23.3978 27.5 23.7794 27.342 24.0607 27.0607C24.342 26.7794 24.5 26.3978 24.5 26V7.5H26C26.3978 7.5 26.7794 7.34196 27.0607 7.06066C27.342 6.77936 27.5 6.39782 27.5 6C27.5 5.60218 27.342 5.22064 27.0607 4.93934C26.7794 4.65804 26.3978 4.5 26 4.5ZM16.5 18.5H12C10.5413 18.5 9.14236 17.9205 8.11091 16.8891C7.07946 15.8576 6.5 14.4587 6.5 13C6.5 11.5413 7.07946 10.1424 8.11091 9.11091C9.14236 8.07946 10.5413 7.5 12 7.5H16.5V18.5Z" fill="black"/>
</svg>
