<svg width="32" height="32" viewBox="0 0 32 32" fill="none" xmlns="http://www.w3.org/2000/svg">
<path d="M31.0975 5.6425C30.8716 5.29154 30.5611 5.00298 30.1946 4.80334C29.8281 4.60371 29.4173 4.4994 29 4.5H11.1012C10.6196 4.49994 10.1482 4.63898 9.74373 4.90043C9.33925 5.16187 9.01891 5.53459 8.8212 5.97375L0.721204 23.9738C0.549836 24.3544 0.476521 24.7719 0.50795 25.1882C0.539379 25.6045 0.674551 26.0063 0.901131 26.3569C1.12771 26.7075 1.43849 26.9958 1.8051 27.1955C2.17171 27.3952 2.58249 27.4999 2.99995 27.5H20.8987C21.3803 27.5001 21.8517 27.361 22.2562 27.0996C22.6607 26.8381 22.981 26.4654 23.1787 26.0263L31.2787 8.02625C31.4511 7.64567 31.5249 7.22779 31.4932 6.81118C31.4615 6.39456 31.3254 5.99264 31.0975 5.6425ZM20.575 24.5H3.77495L11.425 7.5H28.225L20.575 24.5Z" fill="black"/>
</svg>
