<svg width="32" height="32" viewBox="0 0 32 32" fill="none" xmlns="http://www.w3.org/2000/svg">
<path d="M29.5 15C29.496 11.4208 28.0724 7.98932 25.5416 5.45844C23.0107 2.92756 19.5792 1.50397 16 1.5C12.4208 1.50397 8.98932 2.92756 6.45844 5.45844C3.92756 7.98932 2.50397 11.4208 2.5 15C2.50031 15.2064 2.54321 15.4105 2.62601 15.5996C2.70882 15.7886 2.82976 15.9586 2.98125 16.0987L3.00875 16.1238C3.03 16.1425 3.0525 16.1625 3.07625 16.18L3.1 16.2L14.5 24.75V26.5H14C13.6022 26.5 13.2206 26.658 12.9393 26.9393C12.658 27.2206 12.5 27.6022 12.5 28C12.5 28.3978 12.658 28.7794 12.9393 29.0607C13.2206 29.342 13.6022 29.5 14 29.5H18C18.3978 29.5 18.7794 29.342 19.0607 29.0607C19.342 28.7794 19.5 28.3978 19.5 28C19.5 27.6022 19.342 27.2206 19.0607 26.9393C18.7794 26.658 18.3978 26.5 18 26.5H17.5V24.75L28.9 16.2C29.0863 16.0603 29.2375 15.8791 29.3416 15.6708C29.4458 15.4625 29.5 15.2329 29.5 15ZM26.3937 13.5H22.4538C22.23 9.84125 21.2038 7.18375 20.0875 5.33C21.7513 6.03633 23.2053 7.15891 24.3098 8.58975C25.4142 10.0206 26.1319 11.7116 26.3937 13.5ZM12.5525 13.5C12.8938 8.595 14.875 6.01375 16 4.9225C17.125 6.01375 19.1063 8.595 19.4475 13.5H12.5525ZM11.9125 5.33C10.7875 7.18375 9.77 9.84125 9.54625 13.5H5.60625C5.86813 11.7116 6.5858 10.0206 7.69024 8.58975C8.79467 7.15891 10.2487 6.03633 11.9125 5.33ZM8.5 16.5H14.5V21L8.5 16.5ZM17.5 16.5H23.5L17.5 21V16.5Z" fill="black"/>
</svg>
