<svg width="32" height="32" viewBox="0 0 32 32" fill="none" xmlns="http://www.w3.org/2000/svg">
<path d="M30.8225 7.82125L22.7225 25.8213C22.5643 26.1725 22.3081 26.4706 21.9845 26.6797C21.661 26.8888 21.284 27 20.8987 27H2.99999C2.66603 26.9998 2.33743 26.916 2.04418 26.7562C1.75093 26.5964 1.50235 26.3658 1.32114 26.0852C1.13993 25.8047 1.03184 25.4833 1.00675 25.1503C0.98166 24.8173 1.04036 24.4833 1.17749 24.1787L9.27749 6.17875C9.43567 5.8275 9.69193 5.52941 10.0155 5.3203C10.339 5.1112 10.716 4.99997 11.1012 5H29C29.3341 4.99998 29.6628 5.08363 29.9562 5.24333C30.2496 5.40303 30.4984 5.63369 30.6798 5.91424C30.8611 6.19479 30.9693 6.5163 30.9945 6.84942C31.0196 7.18254 30.9609 7.51665 30.8237 7.82125H30.8225Z" fill="black"/>
</svg>
