<svg width="32" height="32" viewBox="0 0 32 32" fill="none" xmlns="http://www.w3.org/2000/svg">
<path d="M6 7V25C6 25.3978 5.84196 25.7794 5.56066 26.0607C5.27936 26.342 4.89782 26.5 4.5 26.5C4.10218 26.5 3.72064 26.342 3.43934 26.0607C3.15804 25.7794 3 25.3978 3 25V7C3 6.60218 3.15804 6.22064 3.43934 5.93934C3.72064 5.65804 4.10218 5.5 4.5 5.5C4.89782 5.5 5.27936 5.65804 5.56066 5.93934C5.84196 6.22064 6 6.60218 6 7ZM16.3412 13.3375L14.5 13.935V12C14.5 11.6022 14.342 11.2206 14.0607 10.9393C13.7794 10.658 13.3978 10.5 13 10.5C12.6022 10.5 12.2206 10.658 11.9393 10.9393C11.658 11.2206 11.5 11.6022 11.5 12V13.935L9.65875 13.3375C9.47004 13.2711 9.26995 13.2432 9.07027 13.2552C8.87059 13.2673 8.67535 13.3193 8.49603 13.4079C8.31671 13.4966 8.15695 13.6203 8.02613 13.7716C7.89532 13.923 7.7961 14.099 7.73432 14.2892C7.67254 14.4795 7.64944 14.6802 7.66638 14.8795C7.68332 15.0789 7.73996 15.2728 7.83297 15.4499C7.92598 15.627 8.05348 15.7837 8.20796 15.9108C8.36244 16.0379 8.54079 16.1329 8.7325 16.19L10.5725 16.7887L9.435 18.3538C9.20111 18.6757 9.10468 19.0773 9.16692 19.4703C9.22916 19.8633 9.44497 20.2155 9.76688 20.4494C10.0888 20.6833 10.4904 20.7797 10.8834 20.7175C11.2764 20.6552 11.6286 20.4394 11.8625 20.1175L13 18.5525L14.1375 20.1175C14.3714 20.4394 14.7236 20.6552 15.1166 20.7175C15.5096 20.7797 15.9112 20.6833 16.2331 20.4494C16.555 20.2155 16.7708 19.8633 16.8331 19.4703C16.8953 19.0773 16.7989 18.6757 16.565 18.3538L15.4275 16.7887L17.2675 16.19C17.4592 16.1329 17.6376 16.0379 17.792 15.9108C17.9465 15.7837 18.074 15.627 18.167 15.4499C18.26 15.2728 18.3167 15.0789 18.3336 14.8795C18.3506 14.6802 18.3275 14.4795 18.2657 14.2892C18.2039 14.099 18.1047 13.923 17.9739 13.7716C17.8431 13.6203 17.6833 13.4966 17.504 13.4079C17.3247 13.3193 17.1294 13.2673 16.9297 13.2552C16.73 13.2432 16.53 13.2711 16.3412 13.3375ZM30.2313 14.3C30.1082 13.9218 29.84 13.6079 29.4855 13.4274C29.1311 13.2469 28.7195 13.2146 28.3412 13.3375L26.5 13.935V12C26.5 11.6022 26.342 11.2206 26.0607 10.9393C25.7794 10.658 25.3978 10.5 25 10.5C24.6022 10.5 24.2206 10.658 23.9393 10.9393C23.658 11.2206 23.5 11.6022 23.5 12V13.935L21.6588 13.3375C21.47 13.2711 21.27 13.2432 21.0703 13.2552C20.8706 13.2673 20.6753 13.3193 20.496 13.4079C20.3167 13.4966 20.1569 13.6203 20.0261 13.7716C19.8953 13.923 19.7961 14.099 19.7343 14.2892C19.6725 14.4795 19.6494 14.6802 19.6664 14.8795C19.6833 15.0789 19.74 15.2728 19.833 15.4499C19.926 15.627 20.0535 15.7837 20.208 15.9108C20.3624 16.0379 20.5408 16.1329 20.7325 16.19L22.5725 16.7887L21.435 18.3538C21.2011 18.6757 21.1047 19.0773 21.1669 19.4703C21.2292 19.8633 21.445 20.2155 21.7669 20.4494C22.0888 20.6833 22.4904 20.7797 22.8834 20.7175C23.2764 20.6552 23.6286 20.4394 23.8625 20.1175L25 18.5525L26.1375 20.1175C26.2533 20.2769 26.3994 20.4119 26.5674 20.5149C26.7354 20.6178 26.922 20.6866 27.1166 20.7175C27.3112 20.7483 27.5099 20.7405 27.7015 20.6945C27.8931 20.6485 28.0737 20.5652 28.2331 20.4494C28.3925 20.3336 28.5275 20.1875 28.6305 20.0195C28.7334 19.8515 28.8023 19.6649 28.8331 19.4703C28.8639 19.2757 28.8561 19.0769 28.8101 18.8854C28.7641 18.6938 28.6808 18.5131 28.565 18.3538L27.4275 16.7887L29.2675 16.19C29.4549 16.1292 29.6285 16.0321 29.7783 15.9042C29.9282 15.7763 30.0514 15.6201 30.1409 15.4446C30.2304 15.2691 30.2844 15.0777 30.2999 14.8813C30.3154 14.6849 30.2921 14.4874 30.2313 14.3Z" fill="black"/>
</svg>
