<svg width="32" height="32" viewBox="0 0 32 32" fill="none" xmlns="http://www.w3.org/2000/svg">
<path d="M25 20.5C24.0698 20.5013 23.1627 20.7903 22.4031 21.3274C21.6436 21.8645 21.0688 22.6234 20.7575 23.5H9C8.07174 23.5 7.1815 23.1313 6.52513 22.4749C5.86875 21.8185 5.5 20.9283 5.5 20C5.5 19.0717 5.86875 18.1815 6.52513 17.5251C7.1815 16.8687 8.07174 16.5 9 16.5H21C22.4587 16.5 23.8576 15.9205 24.8891 14.8891C25.9205 13.8576 26.5 12.4587 26.5 11C26.5 9.54131 25.9205 8.14236 24.8891 7.11091C23.8576 6.07946 22.4587 5.5 21 5.5H9C8.60218 5.5 8.22064 5.65804 7.93934 5.93934C7.65804 6.22064 7.5 6.60218 7.5 7C7.5 7.39782 7.65804 7.77936 7.93934 8.06066C8.22064 8.34196 8.60218 8.5 9 8.5H21C21.663 8.5 22.2989 8.76339 22.7678 9.23223C23.2366 9.70107 23.5 10.337 23.5 11C23.5 11.663 23.2366 12.2989 22.7678 12.7678C22.2989 13.2366 21.663 13.5 21 13.5H9C7.27609 13.5 5.62279 14.1848 4.40381 15.4038C3.18482 16.6228 2.5 18.2761 2.5 20C2.5 21.7239 3.18482 23.3772 4.40381 24.5962C5.62279 25.8152 7.27609 26.5 9 26.5H20.7575C21.0325 27.2778 21.516 27.9651 22.1553 28.4866C22.7945 29.0082 23.5648 29.344 24.3819 29.4573C25.1991 29.5707 26.0317 29.4572 26.7888 29.1293C27.5458 28.8014 28.1981 28.2716 28.6744 27.598C29.1507 26.9244 29.4327 26.1328 29.4895 25.3098C29.5463 24.4867 29.3757 23.6639 28.9964 22.9313C28.6172 22.1986 28.0438 21.5843 27.339 21.1555C26.6341 20.7267 25.825 20.5 25 20.5ZM25 26.5C24.7033 26.5 24.4133 26.412 24.1666 26.2472C23.92 26.0824 23.7277 25.8481 23.6142 25.574C23.5007 25.2999 23.4709 24.9983 23.5288 24.7074C23.5867 24.4164 23.7296 24.1491 23.9393 23.9393C24.1491 23.7296 24.4164 23.5867 24.7074 23.5288C24.9983 23.4709 25.2999 23.5007 25.574 23.6142C25.8481 23.7277 26.0824 23.92 26.2472 24.1666C26.412 24.4133 26.5 24.7033 26.5 25C26.5 25.3978 26.342 25.7794 26.0607 26.0607C25.7794 26.342 25.3978 26.5 25 26.5Z" fill="black"/>
</svg>
