<svg width="32" height="32" viewBox="0 0 32 32" fill="none" xmlns="http://www.w3.org/2000/svg">
<path d="M21.25 4.5C18.9338 4.49891 16.7022 5.37056 15 6.94125C14.9847 6.28845 14.7145 5.66755 14.2473 5.21134C13.7801 4.75513 13.153 4.49982 12.5 4.5H8C7.33696 4.5 6.70107 4.76339 6.23223 5.23224C5.76339 5.70108 5.5 6.33696 5.5 7V26C5.5 26.663 5.76339 27.2989 6.23223 27.7678C6.70107 28.2366 7.33696 28.5 8 28.5H12.5C13.163 28.5 13.7989 28.2366 14.2678 27.7678C14.7366 27.2989 15 26.663 15 26V20.5625C16.1083 21.5805 17.4483 22.3127 18.9036 22.6956C20.3589 23.0785 21.8857 23.1005 23.3515 22.7598C24.8173 22.4191 26.1778 21.7259 27.315 20.7403C28.4523 19.7548 29.3319 18.5067 29.8776 17.1042C30.4233 15.7018 30.6186 14.1874 30.4465 12.6924C30.2745 11.1974 29.7403 9.76698 28.8902 8.52517C28.0402 7.28337 26.9001 6.2677 25.5687 5.56627C24.2373 4.86484 22.7549 4.49883 21.25 4.5ZM12 25.5H8.5V7.5H12V25.5ZM21.25 20C20.0139 20 18.8055 19.6334 17.7777 18.9467C16.7499 18.2599 15.9488 17.2838 15.4758 16.1418C15.0027 14.9997 14.8789 13.7431 15.1201 12.5307C15.3612 11.3183 15.9565 10.2047 16.8306 9.33059C17.7047 8.45651 18.8183 7.86125 20.0307 7.62009C21.2431 7.37894 22.4997 7.50271 23.6418 7.97576C24.7838 8.4488 25.7599 9.24988 26.4467 10.2777C27.1334 11.3055 27.5 12.5139 27.5 13.75C27.498 15.407 26.8389 16.9956 25.6672 18.1672C24.4956 19.3389 22.907 19.998 21.25 20Z" fill="black"/>
</svg>
