<svg width="32" height="32" viewBox="0 0 32 32" fill="none" xmlns="http://www.w3.org/2000/svg">
<path d="M16 2.5C13.33 2.5 10.7199 3.29176 8.49981 4.77516C6.27974 6.25856 4.54942 8.36697 3.52763 10.8338C2.50585 13.3006 2.2385 16.015 2.7594 18.6337C3.28031 21.2525 4.56606 23.6579 6.45406 25.5459C8.34207 27.434 10.7475 28.7197 13.3663 29.2406C15.985 29.7615 18.6994 29.4942 21.1662 28.4724C23.633 27.4506 25.7414 25.7203 27.2248 23.5002C28.7082 21.2801 29.5 18.67 29.5 16C29.496 12.4208 28.0724 8.98932 25.5416 6.45844C23.0107 3.92756 19.5792 2.50397 16 2.5ZM16 26.5C13.9233 26.5 11.8932 25.8842 10.1665 24.7304C8.4398 23.5767 7.09399 21.9368 6.29927 20.0182C5.50455 18.0996 5.29662 15.9884 5.70176 13.9516C6.10691 11.9148 7.10693 10.0438 8.57538 8.57538C10.0438 7.10693 11.9148 6.1069 13.9516 5.70175C15.9884 5.29661 18.0996 5.50454 20.0182 6.29926C21.9368 7.09399 23.5767 8.4398 24.7304 10.1665C25.8842 11.8932 26.5 13.9233 26.5 16C26.497 18.7839 25.3898 21.4528 23.4213 23.4213C21.4529 25.3898 18.7839 26.497 16 26.5ZM14.5 12V20C14.5 20.3978 14.342 20.7794 14.0607 21.0607C13.7794 21.342 13.3978 21.5 13 21.5C12.6022 21.5 12.2206 21.342 11.9393 21.0607C11.658 20.7794 11.5 20.3978 11.5 20V12C11.5 11.6022 11.658 11.2206 11.9393 10.9393C12.2206 10.658 12.6022 10.5 13 10.5C13.3978 10.5 13.7794 10.658 14.0607 10.9393C14.342 11.2206 14.5 11.6022 14.5 12ZM20.5 12V20C20.5 20.3978 20.342 20.7794 20.0607 21.0607C19.7794 21.342 19.3978 21.5 19 21.5C18.6022 21.5 18.2207 21.342 17.9393 21.0607C17.658 20.7794 17.5 20.3978 17.5 20V12C17.5 11.6022 17.658 11.2206 17.9393 10.9393C18.2207 10.658 18.6022 10.5 19 10.5C19.3978 10.5 19.7794 10.658 20.0607 10.9393C20.342 11.2206 20.5 11.6022 20.5 12Z" fill="black"/>
</svg>
