<svg width="32" height="32" viewBox="0 0 32 32" fill="none" xmlns="http://www.w3.org/2000/svg">
<path d="M29.5 13.5C29.5 14.0933 29.3241 14.6734 28.9944 15.1667C28.6648 15.6601 28.1962 16.0446 27.6481 16.2716C27.0999 16.4987 26.4967 16.5581 25.9147 16.4424C25.3328 16.3266 24.7982 16.0409 24.3787 15.6213C23.9591 15.2018 23.6734 14.6672 23.5576 14.0853C23.4419 13.5033 23.5013 12.9001 23.7284 12.352C23.9554 11.8038 24.3399 11.3352 24.8333 11.0056C25.3266 10.6759 25.9067 10.5 26.5 10.5C27.2957 10.5 28.0587 10.8161 28.6213 11.3787C29.1839 11.9413 29.5 12.7044 29.5 13.5ZM8.5 13.5C8.5 12.9067 8.32405 12.3266 7.99441 11.8333C7.66477 11.3399 7.19623 10.9554 6.64805 10.7284C6.09987 10.5013 5.49667 10.4419 4.91473 10.5576C4.33279 10.6734 3.79824 10.9591 3.37868 11.3787C2.95912 11.7982 2.6734 12.3328 2.55765 12.9147C2.44189 13.4967 2.5013 14.0999 2.72836 14.6481C2.95543 15.1962 3.33994 15.6648 3.83329 15.9944C4.32664 16.3241 4.90666 16.5 5.5 16.5C6.29565 16.5 7.05871 16.1839 7.62132 15.6213C8.18393 15.0587 8.5 14.2957 8.5 13.5ZM11.5 10.5C12.0933 10.5 12.6734 10.3241 13.1667 9.99441C13.6601 9.66477 14.0446 9.19623 14.2716 8.64805C14.4987 8.09987 14.5581 7.49667 14.4424 6.91473C14.3266 6.33279 14.0409 5.79824 13.6213 5.37868C13.2018 4.95912 12.6672 4.6734 12.0853 4.55765C11.5033 4.44189 10.9001 4.5013 10.352 4.72836C9.80377 4.95543 9.33524 5.33994 9.00559 5.83329C8.67595 6.32664 8.5 6.90666 8.5 7.5C8.5 8.29565 8.81607 9.05871 9.37868 9.62132C9.94129 10.1839 10.7044 10.5 11.5 10.5ZM20.5 10.5C21.0933 10.5 21.6734 10.3241 22.1667 9.99441C22.6601 9.66477 23.0446 9.19623 23.2716 8.64805C23.4987 8.09987 23.5581 7.49667 23.4424 6.91473C23.3266 6.33279 23.0409 5.79824 22.6213 5.37868C22.2018 4.95912 21.6672 4.6734 21.0853 4.55765C20.5033 4.44189 19.9001 4.5013 19.352 4.72836C18.8038 4.95543 18.3352 5.33994 18.0056 5.83329C17.6759 6.32664 17.5 6.90666 17.5 7.5C17.5 8.29565 17.8161 9.05871 18.3787 9.62132C18.9413 10.1839 19.7044 10.5 20.5 10.5ZM26.5 23C26.5002 23.9076 26.2758 24.8011 25.8468 25.6009C25.4178 26.4007 24.7975 27.0819 24.0413 27.5837C23.2851 28.0856 22.4165 28.3925 21.5129 28.4771C20.6093 28.5618 19.6987 28.4215 18.8625 28.0688C17.0288 27.3138 14.9712 27.3138 13.1375 28.0688C11.8364 28.6187 10.3735 28.6469 9.05215 28.1476C7.73077 27.6483 6.65217 26.6597 6.03987 25.3867C5.42757 24.1137 5.32852 22.654 5.76326 21.31C6.198 19.966 7.13318 18.8407 8.375 18.1675C9.28194 17.6643 9.95221 16.8218 10.2388 15.825C10.6015 14.5777 11.3593 13.4818 12.3982 12.7021C13.4371 11.9223 14.701 11.5007 16 11.5007C17.299 11.5007 18.5629 11.9223 19.6018 12.7021C20.6407 13.4818 21.3985 14.5777 21.7613 15.825C22.0479 16.8218 22.7182 17.6642 23.625 18.1675C24.4947 18.6398 25.2208 19.3381 25.7268 20.1886C26.2327 21.0391 26.4999 22.0104 26.5 23ZM23.5 23C23.5001 22.5491 23.3783 22.1066 23.1475 21.7193C22.9167 21.332 22.5854 21.0144 22.1888 20.8L22.1763 20.7925C20.5742 19.9087 19.3886 18.425 18.88 16.6675C18.6982 16.0444 18.3193 15.497 17.8 15.1075C17.2807 14.718 16.6491 14.5075 16 14.5075C15.3509 14.5075 14.7193 14.718 14.2 15.1075C13.6807 15.497 13.3018 16.0444 13.12 16.6675C12.8689 17.5389 12.4486 18.3523 11.883 19.0612C11.3174 19.77 10.6177 20.3605 9.82375 20.7988L9.81125 20.8063C9.32469 21.0722 8.94033 21.4923 8.71865 22.0005C8.49697 22.5088 8.45054 23.0763 8.58667 23.6138C8.7228 24.1513 9.03377 24.6283 9.47065 24.9698C9.90752 25.3112 10.4455 25.4977 11 25.5C11.335 25.5009 11.6667 25.4337 11.975 25.3025H11.9913C14.5585 24.242 17.4415 24.242 20.0088 25.3025H20.025C20.3333 25.4337 20.665 25.5009 21 25.5C21.663 25.5 22.2989 25.2366 22.7678 24.7678C23.2366 24.2989 23.5 23.663 23.5 23Z" fill="black"/>
</svg>
