<svg width="32" height="32" viewBox="0 0 32 32" fill="none" xmlns="http://www.w3.org/2000/svg">
<path d="M27.9089 11.385C27.2513 10.5404 26.4201 9.84689 25.4714 9.35125C25.309 7.48158 24.4516 5.7407 23.0685 4.4723C21.6853 3.2039 19.8768 2.50016 18.0001 2.5H10.5001C9.94262 2.50008 9.40116 2.6865 8.96177 3.02963C8.52239 3.37276 8.2103 3.8529 8.07511 4.39375L3.57511 22.3937C3.48299 22.7623 3.47607 23.147 3.55487 23.5186C3.63367 23.8902 3.79612 24.239 4.02989 24.5384C4.26365 24.8379 4.56258 25.0801 4.90397 25.2467C5.24536 25.4133 5.62023 25.4999 6.00011 25.5H8.79886L8.57511 26.3937C8.48299 26.7623 8.47607 27.147 8.55487 27.5186C8.63367 27.8902 8.79612 28.239 9.02989 28.5384C9.26365 28.8379 9.56258 29.0801 9.90397 29.2467C10.2454 29.4133 10.6202 29.4999 11.0001 29.5H14.9376C15.4951 29.4999 16.0366 29.3135 16.4759 28.9704C16.9153 28.6272 17.2274 28.1471 17.3626 27.6063L18.3914 23.5H22.0001C23.4052 23.4999 24.782 23.105 25.9736 22.3605C27.1652 21.6159 28.1236 20.5516 28.7398 19.2888C29.3559 18.0261 29.605 16.6156 29.4585 15.2182C29.312 13.8208 28.776 12.4926 27.9114 11.385H27.9089ZM10.8914 5.5H18.0001C18.6843 5.49803 19.3598 5.65308 19.9746 5.95323C20.5894 6.25337 21.1271 6.6906 21.5464 7.23125C21.8484 7.61582 22.0861 8.04683 22.2501 8.5075C22.1676 8.5075 22.0864 8.5 22.0001 8.5H15.0001C14.4426 8.50008 13.9012 8.6865 13.4618 9.02963C13.0224 9.37276 12.7103 9.8529 12.5751 10.3938L9.54886 22.5H6.64136L10.8914 5.5ZM22.2364 11.5063C21.9266 12.3821 21.3528 13.1404 20.5941 13.6765C19.8354 14.2127 18.9291 14.5004 18.0001 14.5H14.6414L15.3914 11.5H22.0001C22.0776 11.5 22.1576 11.5 22.2364 11.5063ZM26.3614 17.0912C26.1194 18.0648 25.5585 18.9293 24.7681 19.5471C23.9777 20.1649 23.0033 20.5003 22.0001 20.5H18.0001C17.4426 20.5001 16.9012 20.6865 16.4618 21.0296C16.0224 21.3728 15.7103 21.8529 15.5751 22.3937L14.5489 26.5H11.6414L13.8914 17.5H18.0001C19.5229 17.5017 21.01 17.0389 22.2629 16.1734C23.5159 15.308 24.4751 14.081 25.0126 12.6562C25.618 13.2041 26.0635 13.9059 26.3016 14.6869C26.5398 15.4679 26.5617 16.2988 26.3651 17.0912H26.3614Z" fill="black"/>
</svg>
