<svg width="32" height="32" viewBox="0 0 32 32" fill="none" xmlns="http://www.w3.org/2000/svg">
<path d="M16 3.5C13.5277 3.5 11.111 4.23311 9.05537 5.60663C6.99976 6.98015 5.3976 8.93238 4.4515 11.2165C3.50541 13.5005 3.25787 16.0139 3.74018 18.4386C4.2225 20.8634 5.41301 23.0907 7.16116 24.8388C8.90932 26.587 11.1366 27.7775 13.5614 28.2598C15.9861 28.7421 18.4995 28.4946 20.7835 27.5485C23.0676 26.6024 25.0198 25.0002 26.3934 22.9446C27.7669 20.889 28.5 18.4723 28.5 16C28.4964 12.6859 27.1782 9.5086 24.8348 7.16518C22.4914 4.82177 19.3141 3.50364 16 3.5ZM27.5 16C27.5027 18.19 26.8762 20.3346 25.695 22.1787L16.5 15.74V4.51125C19.4594 4.64343 22.254 5.91118 24.3027 8.0509C26.3514 10.1906 27.4965 13.0376 27.5 16ZM15.5 4.51125V15.74L6.305 22.1787C5.22057 20.4764 4.6033 18.5186 4.5152 16.5021C4.42711 14.4856 4.87129 12.4815 5.80312 10.691C6.73495 8.9006 8.1216 7.38695 9.82373 6.30219C11.5259 5.21742 13.4835 4.59975 15.5 4.51125ZM6.875 23L15.5 16.9638V27.4925C13.8214 27.4197 12.1791 26.9797 10.6889 26.2035C9.1987 25.4273 7.89683 24.3338 6.875 23ZM16.5 27.4925V16.96L25.125 23C24.1028 24.3331 22.8008 25.4259 21.3106 26.2014C19.8204 26.977 18.1783 27.4164 16.5 27.4888V27.4925Z" fill="black"/>
</svg>
