<svg width="32" height="32" viewBox="0 0 32 32" fill="none" xmlns="http://www.w3.org/2000/svg">
<path d="M28.7688 8.81745L23.1825 3.23245C22.7137 2.76378 22.0779 2.50049 21.415 2.50049C20.7521 2.50049 20.1163 2.76378 19.6475 3.23245L4.23251 18.6462C3.99957 18.8777 3.81488 19.1532 3.68914 19.4566C3.56341 19.76 3.49912 20.0853 3.50001 20.4137V26C3.50001 26.663 3.7634 27.2989 4.23224 27.7677C4.70108 28.2366 5.33697 28.5 6.00001 28.5H11.5863C11.9147 28.5009 12.24 28.4367 12.5435 28.3109C12.8469 28.1852 13.1223 28.0005 13.3538 27.7675L23.2863 17.8362L23.8063 19.5725L19.44 23.9387C19.1582 24.2205 18.9999 24.6027 18.9999 25.0012C18.9999 25.3997 19.1582 25.7819 19.44 26.0637C19.7218 26.3455 20.104 26.5038 20.5025 26.5038C20.901 26.5038 21.2832 26.3455 21.565 26.0637L26.565 21.0637C26.7565 20.872 26.8925 20.632 26.9585 20.3692C27.0245 20.1064 27.0181 19.8307 26.94 19.5712L25.6975 15.43L28.7713 12.3562C29.0037 12.1238 29.1881 11.8479 29.3138 11.5442C29.4395 11.2405 29.5041 10.915 29.5039 10.5863C29.5036 10.2576 29.4386 9.93221 29.3124 9.62869C29.1863 9.32516 29.0016 9.0495 28.7688 8.81745ZM8.12501 19L17 10.125L21.875 15L13 23.875L8.12501 19ZM6.50001 21.625L10.375 25.5H6.50001V21.625ZM24 12.875L19.125 7.99995L21.4175 5.70745L26.2925 10.5825L24 12.875Z" fill="black"/>
</svg>
