<svg width="32" height="32" viewBox="0 0 32 32" fill="none" xmlns="http://www.w3.org/2000/svg">
<path d="M7.11001 3.9912C6.97828 3.84272 6.81839 3.72185 6.63961 3.63561C6.46083 3.54937 6.2667 3.49947 6.06849 3.48881C5.87028 3.47815 5.67193 3.50693 5.48493 3.57349C5.29792 3.64005 5.12599 3.74307 4.97909 3.87657C4.83219 4.01006 4.71325 4.17139 4.62916 4.35119C4.54507 4.531 4.49751 4.72571 4.48922 4.92403C4.48094 5.12235 4.51209 5.32035 4.58089 5.50654C4.64969 5.69273 4.75476 5.86342 4.89001 6.0087L10.595 12.2837L4.23251 18.6462C3.99957 18.8777 3.81488 19.1532 3.68914 19.4566C3.56341 19.76 3.49912 20.0853 3.50001 20.4137V26C3.50001 26.663 3.7634 27.2989 4.23224 27.7677C4.70108 28.2366 5.33697 28.5 6.00001 28.5H11.5863C11.9147 28.5009 12.24 28.4367 12.5435 28.3109C12.8469 28.1852 13.1223 28.0005 13.3538 27.7675L19.2825 21.84L24.8913 28.0087C25.023 28.1572 25.1829 28.2781 25.3617 28.3643C25.5404 28.4505 25.7346 28.5004 25.9328 28.5111C26.131 28.5218 26.3293 28.493 26.5163 28.4264C26.7033 28.3599 26.8753 28.2568 27.0222 28.1233C27.1691 27.9898 27.288 27.8285 27.3721 27.6487C27.4562 27.4689 27.5038 27.2742 27.512 27.0759C27.5203 26.8776 27.4892 26.6796 27.4204 26.4934C27.3516 26.3072 27.2465 26.1365 27.1113 25.9912L7.11001 3.9912ZM11.375 25.5H6.50001V20.625L12.615 14.51L17.2625 19.6212L11.375 25.5ZM28.7688 8.81745L23.1825 3.23245C22.7137 2.76378 22.0779 2.50049 21.415 2.50049C20.7521 2.50049 20.1163 2.76378 19.6475 3.23245L15.1475 7.73245C14.892 7.99085 14.7389 8.33323 14.7168 8.69597C14.6947 9.05871 14.8051 9.41714 15.0274 9.70464C15.2496 9.99215 15.5687 10.1892 15.9253 10.2591C16.282 10.3291 16.6518 10.2672 16.9663 10.085L21.875 15L21.8075 15.0662C21.668 15.2057 21.5573 15.3714 21.4818 15.5537C21.4063 15.736 21.3674 15.9314 21.3674 16.1287C21.3674 16.326 21.4063 16.5214 21.4818 16.7037C21.5573 16.886 21.668 17.0517 21.8075 17.1912C21.947 17.3307 22.1127 17.4414 22.295 17.5169C22.4773 17.5924 22.6727 17.6313 22.87 17.6313C23.0673 17.6313 23.2627 17.5924 23.445 17.5169C23.6273 17.4414 23.793 17.3307 23.9325 17.1912L28.7663 12.3575C28.9992 12.1254 29.1841 11.8496 29.3104 11.546C29.4366 11.2424 29.5017 10.9168 29.502 10.588C29.5022 10.2591 29.4376 9.93349 29.3117 9.62967C29.1859 9.32586 29.0014 9.04985 28.7688 8.81745ZM24 12.875L19.125 7.99995L21.4175 5.70745L26.2925 10.5825L24 12.875Z" fill="black"/>
</svg>
