<svg width="32" height="32" viewBox="0 0 32 32" fill="none" xmlns="http://www.w3.org/2000/svg">
<path d="M28.7675 8.81762L23.1825 3.23137C22.9504 2.99912 22.6747 2.81488 22.3713 2.68918C22.0679 2.56348 21.7428 2.49878 21.4144 2.49878C21.086 2.49878 20.7608 2.56348 20.4574 2.68918C20.1541 2.81488 19.8784 2.99912 19.6463 3.23137L4.23251 18.6464C3.99951 18.8778 3.81479 19.1533 3.68905 19.4567C3.56331 19.7601 3.49905 20.0854 3.50001 20.4139V26.0001C3.50001 26.6632 3.7634 27.299 4.23224 27.7679C4.70108 28.2367 5.33697 28.5001 6.00001 28.5001H11.5863C11.9147 28.501 12.24 28.4367 12.5434 28.311C12.8468 28.1853 13.1222 28.0006 13.3538 27.7676L28.7675 12.3526C29.2362 11.8838 29.4995 11.248 29.4995 10.5851C29.4995 9.92221 29.2362 9.28644 28.7675 8.81762ZM11.625 22.5001L20.5 13.6251L21.875 15.0001L13 23.8751L11.625 22.5001ZM9.50001 20.3751L8.12501 19.0001L17 10.1251L18.375 11.5001L9.50001 20.3751ZM6.50001 21.6251L8.43876 23.5639L10.375 25.5001H6.50001V21.6251ZM24 12.8751L19.125 8.00012L21.4175 5.70762L26.2925 10.5826L24 12.8751Z" fill="black"/>
</svg>
