<svg width="32" height="32" viewBox="0 0 32 32" fill="none" xmlns="http://www.w3.org/2000/svg">
<path d="M6.375 4.66371C6.28582 4.56426 6.16079 4.5043 6.0274 4.49703C5.89402 4.48977 5.76321 4.53578 5.66375 4.62496C5.56429 4.71414 5.50434 4.83918 5.49707 4.97256C5.4898 5.10595 5.53582 5.23676 5.625 5.33621L11.9762 12.3175L4.93875 19.3537C4.65782 19.635 4.50002 20.0162 4.5 20.4137V26C4.5 26.3978 4.65804 26.7793 4.93934 27.0606C5.22064 27.3419 5.60218 27.5 6 27.5H11.5863C11.7832 27.5004 11.9782 27.4619 12.1601 27.3866C12.3421 27.3113 12.5073 27.2007 12.6462 27.0612L19.3162 20.3912L25.625 27.3362C25.6689 27.3857 25.7222 27.426 25.7818 27.4547C25.8414 27.4835 25.9061 27.5001 25.9722 27.5037C26.0382 27.5072 26.1044 27.4976 26.1667 27.4754C26.229 27.4533 26.2863 27.4189 26.3353 27.3744C26.3843 27.3299 26.4239 27.2761 26.4519 27.2162C26.48 27.1563 26.4958 27.0914 26.4986 27.0253C26.5014 26.9592 26.491 26.8932 26.468 26.8311C26.4451 26.769 26.4101 26.7121 26.365 26.6637L6.375 4.66371ZM11.94 26.3537C11.8457 26.4468 11.7187 26.4993 11.5863 26.5H6C5.86739 26.5 5.74021 26.4473 5.64645 26.3535C5.55268 26.2597 5.5 26.1326 5.5 26V20.4137C5.50023 20.2815 5.55281 20.1548 5.64625 20.0612L12.6462 13.0612L18.6388 19.6537L11.94 26.3537ZM28.065 9.52496L22.475 3.93996C22.3356 3.80012 22.1701 3.68917 21.9877 3.61346C21.8054 3.53775 21.6099 3.49878 21.4125 3.49878C21.2151 3.49878 21.0196 3.53775 20.8373 3.61346C20.6549 3.68917 20.4894 3.80012 20.35 3.93996L15.145 9.14871C15.0553 9.24332 15.0061 9.36924 15.0078 9.49962C15.0096 9.63 15.0623 9.75453 15.1545 9.84665C15.2468 9.93877 15.3714 9.99119 15.5018 9.99275C15.6322 9.9943 15.758 9.94486 15.8525 9.85496L17 8.70746L23.2938 15L21.8125 16.4812C21.7641 16.5271 21.7253 16.5823 21.6986 16.6434C21.6718 16.7046 21.6575 16.7704 21.6566 16.8372C21.6557 16.9039 21.6682 16.9701 21.6933 17.032C21.7183 17.0938 21.7556 17.15 21.8027 17.1972C21.8499 17.2445 21.906 17.2818 21.9678 17.307C22.0296 17.3322 22.0958 17.3448 22.1625 17.344C22.2293 17.3432 22.2952 17.329 22.3563 17.3024C22.4175 17.2757 22.4727 17.2371 22.5187 17.1887L28.0613 11.6462C28.3425 11.3649 28.5006 10.9834 28.5006 10.5856C28.5006 10.1878 28.3425 9.80626 28.0613 9.52496H28.065ZM27.3575 10.9387L24 14.2925L17.7075 7.99996L21.0613 4.64621C21.1566 4.55528 21.2833 4.50454 21.415 4.50454C21.5467 4.50454 21.6734 4.55528 21.7687 4.64621L27.3538 10.2325C27.4473 10.3262 27.4998 10.4532 27.4998 10.5856C27.4998 10.718 27.4473 10.845 27.3538 10.9387H27.3575Z" fill="black"/>
</svg>
