<svg width="32" height="32" viewBox="0 0 32 32" fill="none" xmlns="http://www.w3.org/2000/svg">
<path d="M24.8388 7.16114C23.6799 5.99207 22.3015 5.0634 20.7828 4.42846C19.264 3.79352 17.6348 3.46482 15.9887 3.46121C14.3426 3.45761 12.7119 3.77918 11.1904 4.40746C9.66889 5.03574 8.28646 5.95836 7.12247 7.12235C5.95848 8.28634 5.03586 9.66877 4.40758 11.1903C3.7793 12.7118 3.45773 14.3424 3.46133 15.9886C3.46494 17.6347 3.79365 19.2639 4.42858 20.7826C5.06352 22.3014 5.99219 23.6798 7.16126 24.8386C8.32014 26.0077 9.69853 26.9364 11.2173 27.5713C12.736 28.2063 14.3652 28.535 16.0114 28.5386C17.6575 28.5422 19.2881 28.2206 20.8096 27.5923C22.3311 26.964 23.7136 26.0414 24.8776 24.8774C26.0415 23.7134 26.9642 22.331 27.5924 20.8095C28.2207 19.288 28.5423 17.6574 28.5387 16.0112C28.5351 14.3651 28.2064 12.7359 27.5714 11.2172C26.9365 9.6984 26.0078 8.32002 24.8388 7.16114ZM13.0888 16.4999H18.9113L21.0713 21.1811C20.6789 20.8931 20.2307 20.69 19.7553 20.585C19.28 20.4799 18.788 20.4752 18.3108 20.5711C17.8335 20.667 17.3815 20.8613 16.9836 21.1418C16.5857 21.4223 16.2507 21.7826 16 22.1999C15.7493 21.7826 15.4143 21.4223 15.0164 21.1418C14.6185 20.8613 14.1665 20.667 13.6893 20.5711C13.212 20.4752 12.72 20.4799 12.2447 20.585C11.7694 20.69 11.3212 20.8931 10.9288 21.1811L13.0888 16.4999ZM13.5513 15.4999L16 10.1936L18.4488 15.4999H13.5513ZM16.5 23.9999C16.5 23.3368 16.7634 22.701 17.2322 22.2321C17.7011 21.7633 18.337 21.4999 19 21.4999C19.6631 21.4999 20.2989 21.7633 20.7678 22.2321C21.2366 22.701 21.5 23.3368 21.5 23.9999V26.1036C19.9617 26.9426 18.2508 27.4161 16.5 27.4874V23.9999ZM10.5 23.9999C10.5 23.3368 10.7634 22.701 11.2322 22.2321C11.7011 21.7633 12.337 21.4999 13 21.4999C13.6631 21.4999 14.2989 21.7633 14.7678 22.2321C15.2366 22.701 15.5 23.3368 15.5 23.9999V27.4874C13.7492 27.4161 12.0384 26.9426 10.5 26.1036V23.9999ZM24.1313 24.1311C23.6303 24.6323 23.0842 25.0863 22.5 25.4874V21.9999C22.4997 21.9274 22.484 21.8558 22.4538 21.7899L16.4538 8.78989C16.4137 8.7033 16.3497 8.62998 16.2693 8.5786C16.1889 8.52722 16.0954 8.49992 16 8.49992C15.9046 8.49992 15.8112 8.52722 15.7308 8.5786C15.6504 8.62998 15.5863 8.7033 15.5463 8.78989L9.54626 21.7899C9.51606 21.8558 9.50029 21.9274 9.50001 21.9999V25.4874C8.91798 25.086 8.37403 24.632 7.87501 24.1311C6.26657 22.5229 5.17117 20.4738 4.72733 18.243C4.28349 16.0122 4.51115 13.6998 5.38152 11.5984C6.25189 9.49696 7.72587 7.70082 9.61707 6.43713C11.5083 5.17343 13.7317 4.49894 16.0063 4.49894C18.2808 4.49894 20.5043 5.17343 22.3955 6.43713C24.2867 7.70082 25.7606 9.49696 26.631 11.5984C27.5014 13.6998 27.729 16.0122 27.2852 18.243C26.8414 20.4738 25.746 22.5229 24.1375 24.1311H24.1313Z" fill="black"/>
</svg>
