<svg width="32" height="32" viewBox="0 0 32 32" fill="none" xmlns="http://www.w3.org/2000/svg">
<path d="M6.74001 4.32744C6.65219 4.22845 6.5456 4.14787 6.42641 4.09038C6.30722 4.03289 6.17781 3.99962 6.04567 3.99251C5.91353 3.9854 5.78129 4.00459 5.65662 4.04897C5.53195 4.09334 5.41733 4.16202 5.3194 4.25102C5.22147 4.34001 5.14217 4.44757 5.08611 4.56744C5.03005 4.68731 4.99834 4.81711 4.99282 4.94932C4.98729 5.08154 5.00807 5.21354 5.05393 5.33767C5.0998 5.46179 5.16984 5.57558 5.26001 5.67244L11.285 12.2974L4.58501 18.9999C4.39888 19.1852 4.25134 19.4056 4.15092 19.6482C4.05051 19.8909 3.99921 20.1511 4.00001 20.4137V25.9999C4.00001 26.5304 4.21072 27.0391 4.5858 27.4142C4.96087 27.7892 5.46958 27.9999 6.00001 27.9999H11.5863C11.849 28.0008 12.1093 27.9494 12.352 27.8487C12.5947 27.7481 12.815 27.6002 13 27.4137L19.3 21.1149L25.2613 27.6724C25.3491 27.7714 25.4557 27.852 25.5749 27.9095C25.694 27.967 25.8235 28.0003 25.9556 28.0074C26.0877 28.0145 26.22 27.9953 26.3446 27.9509C26.4693 27.9065 26.5839 27.8379 26.6819 27.7489C26.7798 27.6599 26.8591 27.5523 26.9152 27.4324C26.9712 27.3126 27.0029 27.1828 27.0085 27.0506C27.014 26.9183 26.9932 26.7863 26.9473 26.6622C26.9015 26.5381 26.8314 26.4243 26.7413 26.3274L6.74001 4.32744ZM14.615 15.9674L8.50001 22.0862L6.41376 19.9999L12.6325 13.7824L14.615 15.9674ZM6.00001 22.4137L9.58626 25.9999H6.00001V22.4137ZM12 25.5862L9.91501 23.4999L15.9663 17.4487L17.9525 19.6337L12 25.5862ZM28.415 9.17119L22.8288 3.58619C22.643 3.40043 22.4225 3.25307 22.1799 3.15253C21.9372 3.05199 21.6771 3.00024 21.4144 3.00024C21.1517 3.00024 20.8916 3.05199 20.6489 3.15253C20.4062 3.25307 20.1857 3.40043 20 3.58619L14.7913 8.79494C14.6984 8.88785 14.6248 8.99814 14.5746 9.1195C14.5244 9.24086 14.4986 9.37092 14.4986 9.50226C14.4988 9.76751 14.6042 10.0218 14.7919 10.2093C14.9795 10.3968 15.234 10.502 15.4992 10.5019C15.7644 10.5018 16.0188 10.3963 16.2063 10.2087L17 9.41369L19.0863 11.4999L18.125 12.4612C18.0282 12.5531 17.9509 12.6635 17.8974 12.7858C17.844 12.9081 17.8156 13.0399 17.8139 13.1734C17.8122 13.3068 17.8372 13.4393 17.8875 13.5629C17.9378 13.6866 18.0123 13.7989 18.1067 13.8933C18.2011 13.9877 18.3134 14.0622 18.437 14.1125C18.5607 14.1628 18.6931 14.1878 18.8266 14.1861C18.96 14.1844 19.0918 14.156 19.2141 14.1025C19.3364 14.0491 19.4468 13.9717 19.5388 13.8749L20.5 12.9137L22.5863 14.9999L21.4613 16.1249C21.2733 16.3124 21.1675 16.5669 21.1671 16.8324C21.1668 17.0978 21.2719 17.3526 21.4594 17.5406C21.6469 17.7285 21.9013 17.8343 22.1668 17.8347C22.4323 17.835 22.687 17.7299 22.875 17.5424L28.415 11.9999C28.6008 11.8142 28.7481 11.5937 28.8487 11.351C28.9492 11.1084 29.001 10.8482 29.001 10.5856C29.001 10.3229 28.9492 10.0628 28.8487 9.82009C28.7481 9.57741 28.6008 9.35692 28.415 9.17119ZM24 13.5862L18.415 7.99994L21.415 4.99994L27 10.5862L24 13.5862Z" fill="black"/>
</svg>
