<svg width="32" height="32" viewBox="0 0 32 32" fill="none" xmlns="http://www.w3.org/2000/svg">
<path d="M6.74001 4.32744C6.65219 4.22845 6.5456 4.14787 6.42641 4.09038C6.30722 4.03289 6.17781 3.99962 6.04567 3.99251C5.91353 3.9854 5.78129 4.00459 5.65662 4.04897C5.53195 4.09334 5.41733 4.16202 5.3194 4.25102C5.22147 4.34001 5.14217 4.44757 5.08611 4.56744C5.03005 4.68731 4.99834 4.81711 4.99282 4.94932C4.98729 5.08154 5.00807 5.21354 5.05393 5.33767C5.0998 5.46179 5.16984 5.57558 5.26001 5.67244L11.285 12.2974L4.58501 18.9999C4.39888 19.1852 4.25134 19.4056 4.15092 19.6482C4.05051 19.8909 3.99921 20.1511 4.00001 20.4137V25.9999C4.00001 26.5304 4.21072 27.0391 4.5858 27.4142C4.96087 27.7892 5.46958 27.9999 6.00001 27.9999H11.5863C11.849 28.0008 12.1093 27.9494 12.352 27.8487C12.5947 27.7481 12.815 27.6002 13 27.4137L19.3 21.1149L25.2613 27.6724C25.3491 27.7714 25.4557 27.852 25.5749 27.9095C25.694 27.967 25.8235 28.0003 25.9556 28.0074C26.0877 28.0145 26.22 27.9953 26.3446 27.9509C26.4693 27.9065 26.5839 27.8379 26.6819 27.7489C26.7798 27.6599 26.8591 27.5523 26.9152 27.4324C26.9712 27.3126 27.0029 27.1828 27.0085 27.0506C27.014 26.9183 26.9932 26.7863 26.9473 26.6622C26.9015 26.5381 26.8314 26.4243 26.7413 26.3274L6.74001 4.32744ZM12.6325 13.7824L14.625 15.9674L8.50001 22.0862L6.41376 19.9999L12.6325 13.7824ZM6.00001 25.9999V22.4137L9.58626 25.9999H6.00001ZM12 25.5862L9.91501 23.4999L15.9663 17.4487L17.9525 19.6337L12 25.5862ZM28.415 11.9999L22.875 17.5424C22.687 17.7302 22.4322 17.8357 22.1664 17.8356C21.9007 17.8355 21.6459 17.7298 21.4581 17.5418C21.2703 17.3538 21.1649 17.099 21.165 16.8332C21.1651 16.5675 21.2708 16.3127 21.4588 16.1249L23.2938 14.2899L21.2075 12.2074L19.5388 13.8749C19.3497 14.0546 19.0979 14.1532 18.8372 14.1499C18.5764 14.1465 18.3273 14.0415 18.1429 13.8571C17.9585 13.6727 17.8534 13.4235 17.8501 13.1628C17.8467 12.902 17.9454 12.6503 18.125 12.4612L19.7938 10.7924L17.7075 8.70744L16.2075 10.2074C16.1147 10.3004 16.0045 10.3741 15.8831 10.4244C15.7618 10.4747 15.6318 10.5006 15.5005 10.5007C15.3691 10.5007 15.2391 10.4749 15.1177 10.4247C14.9963 10.3745 14.886 10.3009 14.7931 10.2081C14.7002 10.1152 14.6265 10.005 14.5762 9.8837C14.5259 9.76238 14.5 9.63235 14.4999 9.50101C14.4998 9.36967 14.5256 9.23961 14.5759 9.11825C14.6261 8.99689 14.6997 8.8866 14.7925 8.79369L20 3.58619C20.1857 3.40043 20.4062 3.25307 20.6489 3.15253C20.8916 3.05199 21.1517 3.00024 21.4144 3.00024C21.6771 3.00024 21.9372 3.05199 22.1799 3.15253C22.4225 3.25307 22.643 3.40043 22.8288 3.58619L28.415 9.17119C28.6008 9.35692 28.7481 9.57741 28.8487 9.82009C28.9492 10.0628 29.001 10.3229 29.001 10.5856C29.001 10.8482 28.9492 11.1084 28.8487 11.351C28.7481 11.5937 28.6008 11.8142 28.415 11.9999Z" fill="black"/>
</svg>
