<svg width="32" height="32" viewBox="0 0 32 32" fill="none" xmlns="http://www.w3.org/2000/svg">
<path d="M25.5462 6.44999C23.3367 4.23897 20.4289 2.86253 17.3182 2.55522C14.2076 2.24791 11.0866 3.02875 8.48713 4.76467C5.88768 6.5006 3.9706 9.0842 3.06258 12.0752C2.15455 15.0662 2.31178 18.2795 3.50745 21.1676C4.70313 24.0557 6.86327 26.4398 9.61977 27.9136C12.3763 29.3875 15.5586 29.8599 18.6244 29.2504C21.6902 28.6409 24.4497 26.9872 26.4329 24.571C28.416 22.1549 29.4999 19.1258 29.5 16C29.4999 12.4185 28.0778 8.98348 25.5462 6.44999ZM11.5 25C11.5 24.6022 11.658 24.2206 11.9393 23.9393C12.2206 23.658 12.6022 23.5 13 23.5C13.3978 23.5 13.7793 23.658 14.0606 23.9393C14.3419 24.2206 14.5 24.6022 14.5 25V26.3887C13.4604 26.24 12.4491 25.9358 11.5 25.4862V25ZM17.5 25C17.5 24.6022 17.658 24.2206 17.9393 23.9393C18.2206 23.658 18.6022 23.5 19 23.5C19.3978 23.5 19.7793 23.658 20.0606 23.9393C20.3419 24.2206 20.5 24.6022 20.5 25V25.4862C19.5509 25.9358 18.5396 26.24 17.5 26.3887V25ZM13.2675 18.5H18.7325L19.6787 20.5525C19.0224 20.4527 18.352 20.4996 17.716 20.6898C17.0799 20.88 16.4938 21.2088 16 21.6525C15.506 21.209 14.9199 20.8804 14.2839 20.6905C13.6478 20.5005 12.9775 20.4538 12.3212 20.5537L13.2675 18.5ZM14.6525 15.5L16 12.5775L17.3475 15.5H14.6525ZM23.5 23.3487V22C23.4991 21.7843 23.4522 21.5712 23.3625 21.375L17.3625 8.37499C17.2425 8.11452 17.0505 7.89388 16.809 7.73922C16.5675 7.58456 16.2867 7.50236 16 7.50236C15.7132 7.50236 15.4325 7.58456 15.191 7.73922C14.9495 7.89388 14.7574 8.11452 14.6375 8.37499L8.63748 21.375C8.54778 21.5712 8.50091 21.7843 8.49998 22V23.3462C7.05298 21.8694 6.07419 19.9982 5.68636 17.9673C5.29853 15.9365 5.51891 13.8363 6.31988 11.9302C7.12084 10.024 8.46673 8.39678 10.1888 7.25249C11.9108 6.10819 13.9324 5.49777 16 5.49777C18.0676 5.49777 20.0891 6.10819 21.8112 7.25249C23.5332 8.39678 24.8791 10.024 25.6801 11.9302C26.4811 13.8363 26.7014 15.9365 26.3136 17.9673C25.9258 19.9982 24.947 21.8694 23.5 23.3462V23.3487Z" fill="black"/>
</svg>
