<svg width="32" height="32" viewBox="0 0 32 32" fill="none" xmlns="http://www.w3.org/2000/svg">
<path d="M28.2388 9.34863L22.6525 3.76238C22.49 3.59986 22.2971 3.47094 22.0847 3.38298C21.8724 3.29503 21.6448 3.24976 21.415 3.24976C21.1852 3.24976 20.9576 3.29503 20.7453 3.38298C20.5329 3.47094 20.34 3.59986 20.1775 3.76238L4.7625 19.1761C4.59967 19.3384 4.47056 19.5313 4.3826 19.7437C4.29464 19.9561 4.24958 20.1838 4.25 20.4136V25.9999C4.25 26.464 4.43438 26.9091 4.76257 27.2373C5.09075 27.5655 5.53587 27.7499 6 27.7499H27C27.1989 27.7499 27.3897 27.6709 27.5303 27.5302C27.671 27.3896 27.75 27.1988 27.75 26.9999C27.75 26.801 27.671 26.6102 27.5303 26.4696C27.3897 26.3289 27.1989 26.2499 27 26.2499H13.8113L28.2388 11.8236C28.4013 11.6611 28.5302 11.4682 28.6182 11.2559C28.7061 11.0435 28.7514 10.816 28.7514 10.5861C28.7514 10.3563 28.7061 10.1287 28.6182 9.91639C28.5302 9.70406 28.4013 9.51114 28.2388 9.34863ZM11.69 26.2499H6C5.9337 26.2499 5.87011 26.2235 5.82323 26.1767C5.77634 26.1298 5.75 26.0662 5.75 25.9999V20.4136C5.75028 20.3474 5.7768 20.284 5.82375 20.2374L17 9.06113L22.94 14.9999L11.69 26.2499ZM27.1775 10.7624L24 13.9399L18.0613 7.99988L21.2375 4.82363C21.2607 4.80039 21.2883 4.78195 21.3186 4.76937C21.349 4.75679 21.3815 4.75031 21.4144 4.75031C21.4472 4.75031 21.4798 4.75679 21.5101 4.76937C21.5405 4.78195 21.568 4.80039 21.5913 4.82363L27.1775 10.4086C27.2007 10.4318 27.2192 10.4594 27.2318 10.4898C27.2444 10.5201 27.2508 10.5527 27.2508 10.5855C27.2508 10.6184 27.2444 10.6509 27.2318 10.6812C27.2192 10.7116 27.2007 10.7392 27.1775 10.7624Z" fill="black"/>
</svg>
