<svg width="32" height="32" viewBox="0 0 32 32" fill="none" xmlns="http://www.w3.org/2000/svg">
<path d="M26.7413 26.3274C26.8314 26.4243 26.9015 26.5381 26.9473 26.6622C26.9932 26.7863 27.014 26.9183 27.0085 27.0506C27.0029 27.1828 26.9712 27.3126 26.9152 27.4324C26.8591 27.5523 26.7798 27.6599 26.6819 27.7489C26.5839 27.8379 26.4693 27.9065 26.3446 27.9509C26.22 27.9953 26.0877 28.0145 25.9556 28.0074C25.8235 28.0003 25.694 27.967 25.5749 27.9095C25.4557 27.852 25.3491 27.7714 25.2613 27.6724L19.3 21.1149L13 27.4137C12.815 27.6002 12.5947 27.7481 12.352 27.8487C12.1093 27.9494 11.849 28.0008 11.5863 27.9999H6.00001C5.46958 27.9999 4.96087 27.7892 4.5858 27.4142C4.21072 27.0391 4.00001 26.5304 4.00001 25.9999V20.4137C3.99921 20.1511 4.05051 19.8909 4.15092 19.6482C4.25134 19.4056 4.39888 19.1852 4.58501 18.9999L11.285 12.2999L5.26001 5.67494C5.08132 5.47868 4.98791 5.21948 5.00034 4.95435C5.01276 4.68922 5.13 4.43988 5.32626 4.26119C5.52252 4.0825 5.78173 3.9891 6.04685 4.00152C6.31198 4.01394 6.56132 4.13118 6.74001 4.32744L26.7413 26.3274ZM28.415 11.9999L22.875 17.5424C22.7821 17.6353 22.6718 17.7089 22.5504 17.7591C22.429 17.8093 22.2989 17.835 22.1675 17.8349H22.1438C22.0084 17.8317 21.8752 17.801 21.752 17.7447C21.6289 17.6884 21.5185 17.6077 21.4275 17.5074L14.7588 10.1749C14.5873 9.9851 14.495 9.73674 14.5011 9.48097C14.5071 9.2252 14.611 8.98147 14.7913 8.79994L20 3.58619C20.1857 3.40043 20.4062 3.25307 20.6489 3.15253C20.8916 3.05199 21.1517 3.00024 21.4144 3.00024C21.6771 3.00024 21.9372 3.05199 22.1799 3.15253C22.4225 3.25307 22.643 3.40043 22.8288 3.58619L28.415 9.17119C28.6008 9.35692 28.7481 9.57741 28.8487 9.82009C28.9492 10.0628 29.001 10.3229 29.001 10.5856C29.001 10.8482 28.9492 11.1084 28.8487 11.351C28.7481 11.5937 28.6008 11.8142 28.415 11.9999ZM27 10.5862L21.415 4.99994L18.415 7.99994L24 13.5862L27 10.5862Z" fill="black"/>
</svg>
