<svg width="32" height="32" viewBox="0 0 32 32" fill="none" xmlns="http://www.w3.org/2000/svg">
<path d="M30.5 12.5851C30.5009 12.2567 30.4366 11.9314 30.3109 11.628C30.1851 11.3246 30.0004 11.0491 29.7675 10.8176L21.1825 2.23137C20.9503 1.99912 20.6747 1.81488 20.3713 1.68918C20.0679 1.56348 19.7428 1.49878 19.4144 1.49878C19.086 1.49878 18.7608 1.56348 18.4574 1.68918C18.1541 1.81488 17.8784 1.99912 17.6463 2.23137L14.1688 5.70887L7.01375 8.39262C6.60285 8.54659 6.23971 8.806 5.96083 9.14479C5.68195 9.48357 5.49715 9.88979 5.425 10.3226L2.52 27.7501C2.48363 27.9653 2.49465 28.1858 2.55228 28.3963C2.60992 28.6068 2.71278 28.8021 2.8537 28.9687C2.99461 29.1354 3.17019 29.2692 3.36817 29.361C3.56616 29.4528 3.78178 29.5003 4 29.5001C4.08375 29.5005 4.16738 29.4938 4.25 29.4801L21.6813 26.5739C22.1136 26.501 22.5194 26.3161 22.858 26.0375C23.1966 25.759 23.4563 25.3966 23.6113 24.9864L26.2938 17.8301L29.7713 14.3526C30.0036 14.1208 30.1876 13.8453 30.3127 13.5419C30.4378 13.2385 30.5015 12.9133 30.5 12.5851ZM20.9 23.6626L8.375 25.7501L12.5 21.6251C13.4066 22.0344 14.428 22.1127 15.3864 21.8464C16.3448 21.5801 17.1794 20.9861 17.7449 20.1678C18.3104 19.3495 18.571 18.3587 18.4813 17.3681C18.3915 16.3774 17.9572 15.4497 17.2538 14.7463C16.5505 14.0429 15.6227 13.6086 14.632 13.5188C13.6414 13.4291 12.6507 13.6897 11.8324 14.2552C11.0141 14.8207 10.4201 15.6553 10.1538 16.6137C9.88745 17.5721 9.96575 18.5935 10.375 19.5001L6.25 23.6251L8.3375 11.1001L14.625 8.74262L23.2563 17.3751L20.9 23.6626ZM13 17.7501C13 17.5029 13.0733 17.2612 13.2107 17.0557C13.348 16.8501 13.5432 16.6899 13.7716 16.5953C14.0001 16.5007 14.2514 16.4759 14.4939 16.5241C14.7363 16.5724 14.9591 16.6914 15.1339 16.8662C15.3087 17.0411 15.4278 17.2638 15.476 17.5063C15.5242 17.7487 15.4995 18.0001 15.4049 18.2285C15.3102 18.4569 15.15 18.6521 14.9445 18.7895C14.7389 18.9268 14.4972 19.0001 14.25 19.0001C13.9185 19.0001 13.6005 18.8684 13.3661 18.634C13.1317 18.3996 13 18.0816 13 17.7501ZM25 14.8751L17.125 7.00012L19.4175 4.70762L27.2925 12.5826L25 14.8751Z" fill="black"/>
</svg>
