<svg width="32" height="32" viewBox="0 0 32 32" fill="none" xmlns="http://www.w3.org/2000/svg">
<path d="M29.75 12.5849C29.7504 12.355 29.7054 12.1273 29.6174 11.9149C29.5294 11.7025 29.4003 11.5097 29.2375 11.3474L20.6513 2.76238C20.4887 2.59986 20.2958 2.47094 20.0835 2.38298C19.8712 2.29503 19.6436 2.24976 19.4138 2.24976C19.1839 2.24976 18.9563 2.29503 18.744 2.38298C18.5317 2.47094 18.3388 2.59986 18.1763 2.76238L14.585 6.35363L7.2775 9.09488C6.98993 9.20253 6.73574 9.38394 6.54047 9.6209C6.34519 9.85787 6.2157 10.142 6.165 10.4449L3.26 27.8749C3.24182 27.9825 3.24732 28.0927 3.27614 28.198C3.30496 28.3032 3.35639 28.4009 3.42685 28.4842C3.49731 28.5675 3.58509 28.6344 3.68409 28.6803C3.78308 28.7262 3.89089 28.75 4 28.7499C4.04186 28.7497 4.08365 28.7464 4.125 28.7399L21.555 25.8349C21.8581 25.7844 22.1425 25.655 22.3797 25.4597C22.6169 25.2644 22.7985 25.0101 22.9063 24.7224L25.6463 17.4149L29.2388 13.8224C29.4015 13.6601 29.5304 13.4672 29.6182 13.2548C29.7059 13.0424 29.7507 12.8147 29.75 12.5849ZM21.5 24.1961C21.4846 24.2371 21.4588 24.2734 21.425 24.3012C21.3912 24.3291 21.3507 24.3476 21.3075 24.3549L6.18625 26.8749L12.795 20.2649C13.473 20.6831 14.281 20.8377 15.0655 20.6994C15.85 20.561 16.5564 20.1394 17.0505 19.5145C17.5446 18.8896 17.792 18.105 17.7456 17.3098C17.6993 16.5145 17.3625 15.7639 16.7992 15.2006C16.236 14.6373 15.4854 14.3006 14.6901 14.2542C13.8949 14.2079 13.1103 14.4553 12.4854 14.9494C11.8605 15.4435 11.4389 16.1498 11.3005 16.9344C11.1622 17.7189 11.3168 18.5269 11.735 19.2049L5.125 25.8161L7.64625 10.6911C7.65362 10.6483 7.67203 10.6082 7.69964 10.5746C7.72726 10.5411 7.76314 10.5153 7.80375 10.4999L14.8113 7.87488L24.125 17.1886L21.5 24.1961ZM12.75 17.4999C12.75 17.1538 12.8526 16.8154 13.0449 16.5276C13.2372 16.2398 13.5105 16.0155 13.8303 15.8831C14.1501 15.7506 14.5019 15.716 14.8414 15.7835C15.1809 15.851 15.4927 16.0177 15.7374 16.2624C15.9822 16.5072 16.1489 16.819 16.2164 17.1585C16.2839 17.4979 16.2492 17.8498 16.1168 18.1696C15.9843 18.4893 15.76 18.7627 15.4722 18.955C15.1845 19.1472 14.8461 19.2499 14.5 19.2499C14.0359 19.2499 13.5908 19.0655 13.2626 18.7373C12.9344 18.4091 12.75 17.964 12.75 17.4999ZM28.1763 12.7624L25 15.9386L16.06 6.99988L19.2375 3.82238C19.2607 3.79914 19.2883 3.7807 19.3186 3.76812C19.349 3.75554 19.3815 3.74906 19.4144 3.74906C19.4472 3.74906 19.4798 3.75554 19.5101 3.76812C19.5405 3.7807 19.568 3.79914 19.5913 3.82238L28.1763 12.4086C28.1995 12.4319 28.2179 12.4594 28.2305 12.4898C28.2431 12.5201 28.2496 12.5527 28.2496 12.5855C28.2496 12.6184 28.2431 12.6509 28.2305 12.6812C28.2179 12.7116 28.1995 12.7392 28.1763 12.7624Z" fill="black"/>
</svg>
