<svg width="32" height="32" viewBox="0 0 32 32" fill="none" xmlns="http://www.w3.org/2000/svg">
<path d="M29.5 12.585C29.5005 12.3881 29.4619 12.193 29.3866 12.0111C29.3113 11.8292 29.2007 11.664 29.0612 11.525L20.475 2.93874C20.3356 2.7989 20.17 2.68795 19.9877 2.61224C19.8054 2.53653 19.6099 2.49756 19.4125 2.49756C19.2151 2.49756 19.0196 2.53653 18.8373 2.61224C18.6549 2.68795 18.4893 2.7989 18.35 2.93874L14.7225 6.56999L7.36499 9.32874C7.11883 9.42166 6.90127 9.5774 6.73395 9.78046C6.56663 9.98353 6.45538 10.2269 6.41124 10.4862L3.50624 27.9175C3.49425 27.9892 3.49803 28.0626 3.51733 28.1327C3.53663 28.2028 3.57097 28.2678 3.61798 28.3233C3.66498 28.3787 3.72351 28.4233 3.78949 28.4538C3.85546 28.4843 3.9273 28.5001 3.99999 28.5C4.0276 28.4998 4.05517 28.4977 4.08249 28.4937L21.5125 25.5875C21.7722 25.5444 22.0161 25.4337 22.2195 25.2665C22.4229 25.0993 22.5787 24.8815 22.6712 24.635L25.43 17.2775L29.055 13.6525C29.1966 13.5132 29.3089 13.347 29.3853 13.1637C29.4617 12.9804 29.5007 12.7836 29.5 12.585ZM21.735 24.2837C21.7041 24.3659 21.6522 24.4385 21.5844 24.4942C21.5166 24.55 21.4353 24.5869 21.3487 24.6012L5.45749 27.25L12.7637 19.9437C13.3769 20.3795 14.1313 20.569 14.8776 20.4747C15.6239 20.3804 16.3075 20.0093 16.793 19.4348C17.2785 18.8602 17.5305 18.1243 17.499 17.3728C17.4675 16.6212 17.1548 15.9089 16.6229 15.3771C16.091 14.8452 15.3788 14.5325 14.6272 14.501C13.8757 14.4695 13.1397 14.7215 12.5652 15.207C11.9907 15.6925 11.6195 16.3761 11.5253 17.1224C11.431 17.8687 11.6205 18.6231 12.0562 19.2362L4.74999 26.5437L7.39874 10.6512C7.41311 10.5647 7.45001 10.4834 7.50575 10.4156C7.56148 10.3478 7.63408 10.2958 7.71624 10.265L14.875 7.57999L24.4187 17.125L21.735 24.2837ZM12.5 17.5C12.5 17.1044 12.6173 16.7177 12.8371 16.3889C13.0568 16.06 13.3692 15.8036 13.7346 15.6522C14.1001 15.5009 14.5022 15.4613 14.8902 15.5384C15.2781 15.6156 15.6345 15.8061 15.9142 16.0858C16.1939 16.3655 16.3844 16.7218 16.4616 17.1098C16.5387 17.4978 16.4991 17.8999 16.3478 18.2654C16.1964 18.6308 15.94 18.9432 15.6111 19.1629C15.2822 19.3827 14.8956 19.5 14.5 19.5C13.9696 19.5 13.4609 19.2893 13.0858 18.9142C12.7107 18.5391 12.5 18.0304 12.5 17.5ZM28.3537 12.9387L25 16.2925L15.7075 6.99999L19.06 3.64749C19.1064 3.601 19.1616 3.56412 19.2223 3.53896C19.283 3.5138 19.348 3.50085 19.4137 3.50085C19.4795 3.50085 19.5445 3.5138 19.6052 3.53896C19.6659 3.56412 19.7211 3.601 19.7675 3.64749L28.3537 12.2337C28.4472 12.3275 28.4998 12.4545 28.4998 12.5869C28.4998 12.7193 28.4472 12.8463 28.3537 12.94V12.9387Z" fill="black"/>
</svg>
