<svg width="32" height="32" viewBox="0 0 32 32" fill="none" xmlns="http://www.w3.org/2000/svg">
<path opacity="0.08" d="M28.5862 12.8088L21.81 17.6838L24.4062 25.6838C24.4717 25.8847 24.4718 26.1011 24.4067 26.3021C24.3415 26.5031 24.2144 26.6783 24.0435 26.8025C23.8726 26.9268 23.6668 26.9937 23.4555 26.9937C23.2442 26.9937 23.0384 26.9268 22.8675 26.8026L16 21.8638L9.13246 26.8051C8.96157 26.9293 8.75572 26.9962 8.54444 26.9962C8.33317 26.9962 8.12732 26.9293 7.95644 26.805C7.78556 26.6808 7.65841 26.5056 7.59325 26.3046C7.52808 26.1036 7.52825 25.8872 7.59372 25.6863L10.19 17.6863L3.41372 12.8113C3.24202 12.6876 3.11402 12.5126 3.04812 12.3114C2.98223 12.1103 2.98184 11.8935 3.04701 11.6921C3.11218 11.4908 3.23955 11.3153 3.4108 11.1909C3.58204 11.0666 3.78833 10.9997 3.99997 11.0001H12.3587L15.0487 2.71007C15.1097 2.50515 15.2353 2.3254 15.4067 2.19759C15.5781 2.06978 15.7862 2.00073 16 2.00073C16.2138 2.00073 16.4219 2.06978 16.5933 2.19759C16.7647 2.3254 16.8902 2.50515 16.9512 2.71007L19.6412 11.0001H28C28.2109 11.0005 28.4164 11.0676 28.5869 11.1918C28.7574 11.3161 28.8843 11.491 28.9493 11.6917C29.0144 11.8924 29.0143 12.1086 28.9491 12.3092C28.8839 12.5099 28.7568 12.6847 28.5862 12.8088Z" fill="black"/>
<path d="M29.9 11.3826C29.7738 10.9786 29.5209 10.6261 29.1787 10.3771C28.8365 10.1281 28.4232 9.99588 28 10.0001H20.375L17.9125 2.40759C17.7875 2.00061 17.5355 1.64436 17.1933 1.39105C16.8511 1.13775 16.4368 1.0007 16.0111 1C15.5853 0.999304 15.1706 1.13499 14.8275 1.38717C14.4845 1.63935 14.2313 1.99477 14.105 2.40134L11.6325 10.0001H4C3.57606 9.9987 3.16265 10.132 2.81943 10.3809C2.47621 10.6297 2.22094 10.9812 2.09047 11.3846C1.96001 11.7879 1.96109 12.2223 2.09356 12.625C2.22603 13.0278 2.48305 13.378 2.8275 13.6251L9.01125 18.0738L6.6425 25.3751C6.50734 25.7774 6.50561 26.2126 6.63759 26.6159C6.76956 27.0193 7.02818 27.3693 7.375 27.6138C7.71458 27.8655 8.12607 28.0014 8.54875 28.0014C8.97143 28.0014 9.38292 27.8655 9.7225 27.6138L16 23.0963L22.28 27.6138C22.6219 27.8625 23.0338 27.9965 23.4565 27.9965C23.8793 27.9965 24.2911 27.8625 24.633 27.6138C24.9749 27.3651 25.2292 27.0145 25.3593 26.6123C25.4895 26.21 25.4888 25.7769 25.3575 25.3751L22.9825 18.0676L29.17 13.6151C29.5152 13.3707 29.7726 13.0216 29.9041 12.6195C30.0356 12.2175 30.0341 11.7838 29.9 11.3826ZM16 3.01884L18.265 10.0001H13.735L16 3.01884ZM4 12.0001H10.9838L9.6625 16.0726L4 12.0001ZM8.545 26.0001L10.7188 19.3013L14.2875 21.8688L8.545 26.0001ZM11.3663 17.3038L13.0863 12.0001H18.9138L20.6338 17.2988L16 20.6326L11.3663 17.3038ZM23.455 26.0001L17.7163 21.8751L21.285 19.3076L23.455 26.0001ZM22.3375 16.0776L21.0163 12.0001H28L22.3375 16.0776Z" fill="black"/>
</svg>
