<svg width="32" height="32" viewBox="0 0 32 32" fill="none" xmlns="http://www.w3.org/2000/svg">
<path d="M30.375 11.2288C30.2132 10.7263 29.8961 10.2881 29.4692 9.97741C29.0424 9.66672 28.5279 9.49958 28 9.50009H20.7313L18.3813 2.25634C18.2237 1.74919 17.9082 1.30565 17.4808 0.990442C17.0534 0.675233 16.5365 0.50485 16.0054 0.504153C15.4744 0.503455 14.957 0.672479 14.5288 0.986563C14.1005 1.30065 13.7839 1.74335 13.625 2.25009L11.2688 9.50009H4.00001C3.47135 9.50012 2.9563 9.66773 2.52888 9.97884C2.10146 10.29 1.78366 10.7286 1.62116 11.2316C1.45866 11.7347 1.45981 12.2763 1.62446 12.7787C1.7891 13.2811 2.10876 13.7183 2.53751 14.0276L8.42501 18.2638L6.16626 25.2263C6.00316 25.728 6.00292 26.2684 6.16559 26.7702C6.32825 27.272 6.64548 27.7095 7.07188 28.0201C7.49828 28.3307 8.01199 28.4984 8.53951 28.4993C9.06702 28.5002 9.5813 28.3342 10.0088 28.0251L16 23.7138L21.9863 28.0201C22.4133 28.3303 22.9275 28.4974 23.4554 28.4975C23.9832 28.4976 24.4975 28.3306 24.9246 28.0205C25.3517 27.7103 25.6697 27.273 25.833 26.7711C25.9963 26.2692 25.9966 25.7284 25.8338 25.2263L23.575 18.2638L29.4688 14.0238C29.8955 13.7133 30.213 13.2756 30.3758 12.7735C30.5386 12.2715 30.5383 11.7307 30.375 11.2288ZM16 4.63884L17.5775 9.50009H14.4225L16 4.63884ZM5.55251 12.5001H10.295L9.39751 15.2663L5.55251 12.5001ZM9.49126 24.7001L10.9825 20.1026L13.4313 21.8651L9.49126 24.7001ZM11.955 17.1063L13.455 12.5001H18.5575L20.0575 17.1063L16 20.0176L11.955 17.1063ZM18.5688 21.8651L21.0175 20.1026L22.5088 24.7001L18.5688 21.8651ZM22.6025 15.2663L21.705 12.5001H26.4475L22.6025 15.2663Z" fill="black"/>
</svg>
