<svg width="32" height="32" viewBox="0 0 32 32" fill="none" xmlns="http://www.w3.org/2000/svg">
<path d="M21.32 4.6025C21.0096 3.42781 20.3197 2.38864 19.3575 1.64668C18.3954 0.904723 17.215 0.501588 16 0.5C15.6022 0.5 15.2206 0.658035 14.9393 0.93934C14.658 1.22064 14.5 1.60218 14.5 2C14.5 2.39782 14.658 2.77936 14.9393 3.06066C15.2206 3.34196 15.6022 3.5 16 3.5C16.4298 3.50064 16.8523 3.6121 17.2265 3.82361C17.6007 4.03513 17.914 4.33956 18.1362 4.7075C16.254 5.13305 14.5722 6.1854 13.3665 7.69206C12.1608 9.19871 11.5026 11.0703 11.5 13C11.5 15.7175 10.7712 18.0175 9.33499 19.8363C7.80749 21.77 5.43749 23.2212 2.29249 24.1475C1.74992 24.3057 1.27695 24.643 0.950723 25.1045C0.624499 25.566 0.464272 26.1245 0.496176 26.6887C0.528079 27.253 0.750231 27.7898 1.1264 28.2116C1.50256 28.6334 2.01054 28.9152 2.56749 29.0112C4.47066 29.3398 6.39867 29.5034 8.32999 29.5C13.5312 29.5 19.33 28.3275 23.3562 24.9525C26.77 22.09 28.5 18.0688 28.5 13C28.4973 10.9751 27.7731 9.01743 26.4572 7.47839C25.1413 5.93935 23.3199 4.91972 21.32 4.6025ZM20 7.5C21.0702 7.50027 22.117 7.81274 23.0122 8.39912C23.9075 8.9855 24.6122 9.82032 25.04 10.8013L24 11.3225L20.6712 9.6575C20.4628 9.55322 20.233 9.49893 20 9.49893C19.767 9.49893 19.5371 9.55322 19.3287 9.6575L16 11.3225L14.96 10.8013C15.3878 9.82032 16.0925 8.9855 16.9877 8.39912C17.883 7.81274 18.9298 7.50027 20 7.5ZM21.4287 22.6537C19.2537 24.4775 16.1375 25.7125 12.4162 26.2262C10.0033 26.5451 7.56153 26.5825 5.13999 26.3375C10.975 24.0238 14.175 19.77 14.475 13.9137L15.3287 14.3413C15.5373 14.4449 15.7671 14.4988 16 14.4988C16.2329 14.4988 16.4626 14.4449 16.6712 14.3413L20 12.6763L23.3287 14.3413C23.5373 14.4449 23.7671 14.4988 24 14.4988C24.2329 14.4988 24.4627 14.4449 24.6712 14.3413L25.475 13.9388C25.28 17.6338 23.9225 20.5625 21.4287 22.6537Z" fill="black"/>
</svg>
