<svg width="32" height="32" viewBox="0 0 32 32" fill="none" xmlns="http://www.w3.org/2000/svg">
<path d="M25.5299 7.52874L7.52985 25.5287C7.38767 25.6612 7.19963 25.7333 7.00533 25.7299C6.81103 25.7265 6.62564 25.6478 6.48823 25.5104C6.35081 25.3729 6.2721 25.1876 6.26867 24.9933C6.26525 24.799 6.33737 24.6109 6.46985 24.4687L24.4698 6.46874C24.5393 6.39821 24.6221 6.34213 24.7133 6.30374C24.8046 6.26535 24.9026 6.24541 25.0016 6.24506C25.1006 6.24472 25.1987 6.26398 25.2902 6.30174C25.3817 6.33949 25.4648 6.39499 25.5348 6.46504C25.6048 6.53509 25.6602 6.6183 25.6978 6.70986C25.7355 6.80143 25.7546 6.89954 25.7542 6.99855C25.7537 7.09755 25.7336 7.19548 25.6951 7.28669C25.6566 7.37791 25.6005 7.46059 25.5299 7.52999V7.52874ZM6.49985 12.5C5.80569 11.8034 5.37458 10.8877 5.27997 9.90886C5.18537 8.93003 5.43313 7.94868 5.98104 7.13207C6.52894 6.31546 7.34308 5.71412 8.2847 5.43054C9.22631 5.14696 10.2371 5.1987 11.1449 5.57692C12.0526 5.95515 12.8011 6.63646 13.2628 7.50475C13.7245 8.37303 13.8707 9.37454 13.6767 10.3386C13.4827 11.3027 12.9603 12.1696 12.1987 12.7917C11.437 13.4137 10.4832 13.7524 9.49985 13.75C8.94202 13.7501 8.38969 13.6397 7.87477 13.4252C7.35985 13.2106 6.89254 12.8962 6.49985 12.5ZM6.74985 9.49999C6.75006 10.1362 6.97086 10.7527 7.37463 11.2443C7.7784 11.736 8.34015 12.0725 8.96418 12.1964C9.58821 12.3203 10.2359 12.2241 10.7969 11.924C11.3579 11.6239 11.7975 11.1386 12.0408 10.5507C12.2841 9.96288 12.3161 9.30885 12.1312 8.70008C11.9464 8.09131 11.5562 7.56546 11.0271 7.21214C10.498 6.85881 9.86276 6.69987 9.22963 6.76238C8.59649 6.8249 8.00462 7.10501 7.55485 7.55499C7.29874 7.80986 7.09572 8.113 6.95754 8.44686C6.81936 8.78072 6.74877 9.13867 6.74985 9.49999ZM26.7498 22.5C26.7523 23.4834 26.4136 24.4372 25.7915 25.1988C25.1695 25.9604 24.3025 26.4828 23.3385 26.6768C22.3744 26.8709 21.3729 26.7246 20.5046 26.2629C19.6363 25.8013 18.955 25.0528 18.5768 24.145C18.1986 23.2373 18.1468 22.2265 18.4304 21.2848C18.714 20.3432 19.3153 19.5291 20.1319 18.9812C20.9485 18.4333 21.9299 18.1855 22.9087 18.2801C23.8875 18.3747 24.8033 18.8058 25.4998 19.5C25.896 19.8927 26.2105 20.36 26.425 20.8749C26.6396 21.3898 26.75 21.9422 26.7498 22.5ZM25.2498 22.5C25.2509 22.1387 25.1802 21.7808 25.0421 21.4469C24.9039 21.1131 24.7009 20.8099 24.4448 20.555C23.9951 20.105 23.4032 19.8249 22.7701 19.7624C22.1369 19.6999 21.5017 19.8588 20.9726 20.2121C20.4435 20.5655 20.0533 21.0913 19.8685 21.7001C19.6836 22.3088 19.7156 22.9629 19.9589 23.5507C20.2022 24.1386 20.6418 24.6239 21.2028 24.924C21.7638 25.2241 22.4115 25.3203 23.0355 25.1964C23.6595 25.0725 24.2213 24.736 24.6251 24.2443C25.0288 23.7527 25.2496 23.1362 25.2498 22.5Z" fill="black"/>
</svg>
