<svg width="32" height="32" viewBox="0 0 32 32" fill="none" xmlns="http://www.w3.org/2000/svg">
<path d="M25.3536 7.35125L7.35364 25.3513C7.25982 25.4451 7.13257 25.4978 6.99989 25.4978C6.86721 25.4978 6.73996 25.4451 6.64614 25.3513C6.55232 25.2574 6.49961 25.1302 6.49961 24.9975C6.49961 24.8648 6.55232 24.7376 6.64614 24.6438L24.6461 6.64375C24.6921 6.59533 24.7472 6.55659 24.8084 6.52982C24.8695 6.50304 24.9354 6.48878 25.0021 6.48787C25.0688 6.48696 25.1351 6.49941 25.1969 6.5245C25.2587 6.54959 25.3149 6.58681 25.3622 6.63396C25.4094 6.6811 25.4467 6.73723 25.4719 6.79903C25.4971 6.86083 25.5097 6.92704 25.5089 6.99378C25.5081 7.06051 25.494 7.12641 25.4673 7.18759C25.4406 7.24877 25.402 7.30399 25.3536 7.35V7.35125ZM6.67114 12.3275C6.017 11.6729 5.61006 10.8118 5.51964 9.89085C5.42921 8.96989 5.66091 8.04607 6.17525 7.27678C6.68958 6.50749 7.45474 5.94033 8.34036 5.67194C9.22597 5.40354 10.1772 5.45051 11.0321 5.80485C11.887 6.15919 12.5925 6.79896 13.0286 7.61518C13.4646 8.4314 13.6042 9.37355 13.4235 10.2811C13.2428 11.1887 12.753 12.0055 12.0375 12.5925C11.3221 13.1794 10.4253 13.5001 9.49989 13.5C8.9743 13.5012 8.4537 13.3981 7.96816 13.1969C7.48263 12.9956 7.04179 12.7001 6.67114 12.3275ZM6.49989 9.5C6.50159 10.194 6.74383 10.8659 7.18535 11.4013C7.62687 11.9367 8.24035 12.3025 8.9213 12.4363C9.60224 12.5702 10.3085 12.4638 10.9198 12.1353C11.5312 11.8068 12.0097 11.2766 12.2739 10.6349C12.5381 9.99319 12.5717 9.27973 12.369 8.61604C12.1662 7.95236 11.7396 7.3795 11.1618 6.99505C10.5841 6.61061 9.8909 6.43835 9.20039 6.50763C8.50988 6.57691 7.86475 6.88344 7.37489 7.375C7.0957 7.6537 6.87461 7.98503 6.72441 8.3498C6.57421 8.71457 6.49789 9.10552 6.49989 9.5ZM26.4999 22.5C26.4997 23.4254 26.1787 24.3221 25.5915 25.0374C25.0044 25.7527 24.1873 26.2422 23.2797 26.4226C22.372 26.603 21.4299 26.4631 20.6138 26.0268C19.7977 25.5904 19.1582 24.8846 18.8042 24.0296C18.4501 23.1746 18.4035 22.2232 18.6723 21.3377C18.941 20.4522 19.5085 19.6872 20.278 19.1732C21.0475 18.6592 21.9715 18.4278 22.8924 18.5187C23.8134 18.6095 24.6744 19.0168 25.3286 19.6713C25.7011 20.042 25.9963 20.4829 26.1973 20.9684C26.3984 21.4539 26.5012 21.9745 26.4999 22.5ZM25.4999 22.5C25.4982 21.806 25.2559 21.1341 24.8144 20.5987C24.3729 20.0633 23.7594 19.6975 23.0785 19.5637C22.3975 19.4298 21.6913 19.5362 21.0799 19.8647C20.4686 20.1932 19.9901 20.7234 19.7259 21.3651C19.4616 22.0068 19.428 22.7203 19.6308 23.384C19.8336 24.0476 20.2602 24.6205 20.838 25.0049C21.4157 25.3894 22.1089 25.5617 22.7994 25.4924C23.4899 25.4231 24.135 25.1166 24.6249 24.625C24.9039 24.3461 25.1248 24.0148 25.275 23.65C25.4252 23.2853 25.5016 22.8944 25.4999 22.5Z" fill="black"/>
</svg>
