<svg width="32" height="32" viewBox="0 0 32 32" fill="none" xmlns="http://www.w3.org/2000/svg">
<path d="M26.0614 8.05875L8.06138 26.0588C7.92185 26.1983 7.75621 26.309 7.5739 26.3845C7.3916 26.46 7.19621 26.4989 6.99888 26.4989C6.80156 26.4989 6.60616 26.46 6.42386 26.3845C6.24156 26.309 6.07591 26.1983 5.93638 26.0588C5.79685 25.9192 5.68617 25.7536 5.61066 25.5713C5.53515 25.389 5.49628 25.1936 5.49628 24.9963C5.49628 24.7989 5.53515 24.6035 5.61066 24.4212C5.68617 24.2389 5.79685 24.0733 5.93638 23.9338L23.9364 5.93375C24.2182 5.65196 24.6004 5.49365 24.9989 5.49365C25.3974 5.49365 25.7796 5.65196 26.0614 5.93375C26.3432 6.21554 26.5015 6.59774 26.5015 6.99625C26.5015 7.39477 26.3432 7.77696 26.0614 8.05875ZM5.96513 13.0338C5.14759 12.2154 4.63909 11.1389 4.52628 9.9876C4.41347 8.83635 4.70333 7.68159 5.34647 6.7201C5.98962 5.7586 6.94624 5.04984 8.05337 4.71459C9.16049 4.37934 10.3496 4.43834 11.4181 4.88153C12.4866 5.32472 13.3684 6.12469 13.9132 7.14513C14.458 8.16557 14.6321 9.34334 14.4059 10.4778C14.1797 11.6122 13.5671 12.6331 12.6726 13.3665C11.7781 14.1 10.6569 14.5005 9.50013 14.5C8.8432 14.5016 8.19249 14.3728 7.58568 14.1212C6.97888 13.8695 6.42806 13.4999 5.96513 13.0338ZM7.50013 9.5C7.49992 9.96272 7.66016 10.4112 7.95354 10.769C8.24693 11.1268 8.65532 11.3719 9.10911 11.4623C9.5629 11.5528 10.034 11.4831 10.4422 11.2652C10.8504 11.0472 11.1703 10.6945 11.3476 10.267C11.5248 9.8396 11.5484 9.36393 11.4142 8.92108C11.2801 8.47823 10.9965 8.0956 10.6119 7.83839C10.2272 7.58118 9.76529 7.4653 9.30478 7.51049C8.84427 7.55569 8.41368 7.75916 8.08638 8.08625C7.89991 8.27134 7.75207 8.49162 7.65143 8.73431C7.55079 8.977 7.49936 9.23727 7.50013 9.5ZM27.5001 22.5C27.5001 23.6567 27.099 24.7777 26.3651 25.6718C25.6313 26.566 24.6101 27.1781 23.4756 27.4037C22.3411 27.6294 21.1635 27.4548 20.1433 26.9095C19.1231 26.3643 18.3236 25.4822 17.8808 24.4135C17.4381 23.3448 17.3796 22.1557 17.7153 21.0488C18.051 19.9418 18.7601 18.9855 19.7218 18.3428C20.6836 17.7 21.8384 17.4106 22.9896 17.5238C24.1408 17.6371 25.2171 18.1459 26.0351 18.9638C26.5012 19.4269 26.8707 19.9779 27.1222 20.585C27.3737 21.192 27.5021 21.8429 27.5001 22.5ZM24.5001 22.5C24.5011 22.2371 24.4497 21.9766 24.3491 21.7336C24.2484 21.4907 24.1005 21.2702 23.9139 21.085C23.5866 20.7579 23.1561 20.5545 22.6956 20.5093C22.2352 20.464 21.7733 20.5798 21.3886 20.837C21.004 21.0941 20.7204 21.4766 20.5862 21.9194C20.4519 22.3622 20.4753 22.8378 20.6524 23.2652C20.8295 23.6926 21.1493 24.0454 21.5574 24.2635C21.9654 24.4816 22.4365 24.5515 22.8902 24.4613C23.344 24.371 23.7525 24.1262 24.046 23.7686C24.3396 23.411 24.5001 22.9627 24.5001 22.5Z" fill="black"/>
</svg>
