<svg width="32" height="32" viewBox="0 0 32 32" fill="none" xmlns="http://www.w3.org/2000/svg">
<path d="M18.9998 10.5C19.8899 10.5 20.7599 10.2361 21.4999 9.74162C22.2399 9.24715 22.8167 8.54434 23.1573 7.72208C23.4979 6.89981 23.587 5.99501 23.4134 5.1221C23.2397 4.24918 22.8112 3.44736 22.1818 2.81802C21.5525 2.18869 20.7507 1.7601 19.8778 1.58647C19.0048 1.41283 18.1 1.50195 17.2778 1.84254C16.4555 2.18314 15.7527 2.75991 15.2582 3.49994C14.7638 4.23996 14.4998 5.10999 14.4998 6C14.4998 7.19348 14.974 8.33807 15.8179 9.18198C16.6618 10.0259 17.8064 10.5 18.9998 10.5ZM18.9998 4.5C19.2965 4.5 19.5865 4.58798 19.8332 4.7528C20.0799 4.91762 20.2721 5.15189 20.3857 5.42598C20.4992 5.70007 20.5289 6.00167 20.471 6.29264C20.4131 6.58361 20.2703 6.85088 20.0605 7.06066C19.8507 7.27044 19.5835 7.4133 19.2925 7.47118C19.0015 7.52906 18.6999 7.49935 18.4258 7.38582C18.1517 7.27229 17.9175 7.08003 17.7526 6.83336C17.5878 6.58668 17.4998 6.29667 17.4998 6C17.4998 5.60218 17.6579 5.22065 17.9392 4.93934C18.2205 4.65804 18.602 4.5 18.9998 4.5ZM27.4998 18.5C27.4998 18.8978 27.3418 19.2794 27.0605 19.5607C26.7792 19.842 26.3977 20 25.9998 20C21.3748 20 19.0911 17.6913 17.2498 15.8375C17.0361 15.6225 16.8298 15.4125 16.6248 15.2125L15.5461 17.6938L19.8748 20.7788C20.0686 20.9179 20.2264 21.1013 20.3351 21.3137C20.4438 21.5261 20.5003 21.7614 20.4998 22V29C20.4998 29.3978 20.3418 29.7794 20.0605 30.0607C19.7792 30.342 19.3977 30.5 18.9998 30.5C18.602 30.5 18.2205 30.342 17.9392 30.0607C17.6579 29.7794 17.4998 29.3978 17.4998 29V22.7713L14.3286 20.5063L10.3748 29.5975C10.2999 29.7833 10.1884 29.9522 10.0471 30.0943C9.90579 30.2363 9.73744 30.3486 9.552 30.4245C9.36656 30.5004 9.16779 30.5384 8.96743 30.5362C8.76707 30.534 8.56918 30.4917 8.38544 30.4118C8.2017 30.3319 8.03584 30.2159 7.89764 30.0709C7.75944 29.9258 7.65172 29.7545 7.58082 29.567C7.50992 29.3796 7.47729 29.1799 7.48485 28.9797C7.49241 28.7795 7.54001 28.5828 7.62484 28.4013L13.8823 14.01C12.9957 14.0725 11.954 14.4225 10.7573 15.06C9.41685 15.7988 8.16572 16.6892 7.02859 17.7138C6.73851 17.9861 6.35213 18.1321 5.95443 18.1195C5.55674 18.107 5.18031 17.937 4.90797 17.6469C4.63563 17.3568 4.48967 16.9704 4.50221 16.5727C4.51475 16.175 4.68476 15.7986 4.97484 15.5263C5.30109 15.22 13.0198 8.0675 17.9861 12.3788C18.4786 12.8063 18.9411 13.2738 19.3886 13.7263C21.0536 15.41 22.6248 17 25.9998 17C26.3977 17 26.7792 17.158 27.0605 17.4393C27.3418 17.7206 27.4998 18.1022 27.4998 18.5Z" fill="black"/>
</svg>
