<svg width="32" height="32" viewBox="0 0 32 32" fill="none" xmlns="http://www.w3.org/2000/svg">
<path opacity="0.08" d="M27 6.0001V26.0001C27 26.1465 26.9678 26.2912 26.9057 26.4238C26.8436 26.5565 26.7532 26.6739 26.6407 26.7677C26.5283 26.8615 26.3966 26.9295 26.255 26.9669C26.1134 27.0042 25.9653 27.01 25.8213 26.9838L5.82125 23.3476C5.59083 23.3057 5.38242 23.1843 5.23234 23.0046C5.08226 22.8248 5.00003 22.598 5 22.3638V9.63635C5.00003 9.40216 5.08226 9.17541 5.23234 8.99564C5.38242 8.81586 5.59083 8.69446 5.82125 8.6526L25.8213 5.01635C25.9653 4.99017 26.1134 4.99596 26.255 5.03331C26.3966 5.07066 26.5283 5.13865 26.6407 5.23249C26.7532 5.32633 26.8436 5.44371 26.9057 5.57635C26.9678 5.70899 27 5.85365 27 6.0001Z" fill="black"/>
<path d="M30 15H28V5.99996C28 5.70706 27.9356 5.41774 27.8114 5.15246C27.6873 4.88718 27.5064 4.65241 27.2815 4.46474C27.0566 4.27706 26.7933 4.14107 26.5101 4.06638C26.2268 3.99168 25.9307 3.9801 25.6425 4.03246L5.6425 7.6687C5.18167 7.75243 4.76484 7.99523 4.46468 8.35478C4.16452 8.71434 4.00007 9.16783 4 9.6362V15H2C1.73478 15 1.48043 15.1053 1.29289 15.2928C1.10536 15.4804 1 15.7347 1 16C1 16.2652 1.10536 16.5195 1.29289 16.7071C1.48043 16.8946 1.73478 17 2 17H4V22.3637C4.00007 22.8321 4.16452 23.2856 4.46468 23.6451C4.76484 24.0047 5.18167 24.2475 5.6425 24.3312L25.6425 27.9675C25.7605 27.9887 25.8801 27.9996 26 28C26.5304 28 27.0391 27.7892 27.4142 27.4142C27.7893 27.0391 28 26.5304 28 26V17H30C30.2652 17 30.5196 16.8946 30.7071 16.7071C30.8946 16.5195 31 16.2652 31 16C31 15.7347 30.8946 15.4804 30.7071 15.2928C30.5196 15.1053 30.2652 15 30 15ZM6 9.6362L26 5.99996V15H6V9.6362ZM26 26L6 22.3637V17H26V26Z" fill="black"/>
</svg>
