<svg width="32" height="32" viewBox="0 0 32 32" fill="none" xmlns="http://www.w3.org/2000/svg">
<path d="M27.6611 16.4175L22.0211 10.0237C21.6183 9.56606 21.1268 9.195 20.5763 8.93307C20.0258 8.67113 19.4278 8.52379 18.8186 8.49999C19.5448 7.91642 20.072 7.12184 20.3274 6.2259C20.5828 5.32996 20.5539 4.37683 20.2445 3.49805C19.9352 2.61926 19.3608 1.85815 18.6004 1.31975C17.8401 0.781342 16.9315 0.492188 15.9998 0.492188C15.0682 0.492188 14.1595 0.781342 13.3992 1.31975C12.6389 1.85815 12.0645 2.61926 11.7551 3.49805C11.4458 4.37683 11.4168 5.32996 11.6723 6.2259C11.9277 7.12184 12.4549 7.91642 13.1811 8.49999C12.5719 8.52379 11.9739 8.67113 11.4234 8.93307C10.8729 9.195 10.3813 9.56606 9.97858 10.0237L4.33858 16.4175C3.79505 16.9809 3.49325 17.7344 3.49761 18.5172C3.50196 19.3 3.81213 20.0501 4.36191 20.6074C4.91168 21.1646 5.65751 21.485 6.44019 21.4999C7.22287 21.5149 7.9804 21.2233 8.55108 20.6875L9.39233 20.0137L7.71733 26.375C7.42483 27.0943 7.42266 27.8991 7.71127 28.62C7.99989 29.3409 8.55681 29.9218 9.26491 30.2406C9.97302 30.5594 10.7771 30.5911 11.5082 30.3292C12.2392 30.0673 12.8402 29.5321 13.1848 28.8362L15.9998 23.9875L18.8148 28.8362C19.1557 29.5257 19.7501 30.0565 20.4736 30.3175C21.0186 30.5161 21.6095 30.5525 22.1748 30.4221C22.74 30.2918 23.2554 30.0004 23.6584 29.5832C24.0614 29.166 24.3349 28.6409 24.4456 28.0715C24.5564 27.5021 24.4996 26.9128 24.2823 26.375L22.6073 20.0137L23.4486 20.6875C24.0193 21.2233 24.7768 21.5149 25.5595 21.4999C26.3422 21.485 27.088 21.1646 27.6378 20.6074C28.1875 20.0501 28.4977 19.3 28.5021 18.5172C28.5064 17.7344 28.2046 16.9809 27.6611 16.4175ZM15.9998 3.49999C16.2965 3.49999 16.5865 3.58796 16.8332 3.75278C17.0799 3.9176 17.2721 4.15187 17.3856 4.42596C17.4992 4.70005 17.5289 5.00165 17.471 5.29262C17.4131 5.58359 17.2703 5.85087 17.0605 6.06065C16.8507 6.27042 16.5834 6.41329 16.2925 6.47116C16.0015 6.52904 15.6999 6.49934 15.4258 6.38581C15.1517 6.27227 14.9174 6.08001 14.7526 5.83334C14.5878 5.58667 14.4998 5.29666 14.4998 4.99999C14.4998 4.60216 14.6579 4.22063 14.9392 3.93933C15.2205 3.65802 15.602 3.49999 15.9998 3.49999ZM25.3748 18.39L20.9348 14.8287C20.6886 14.6313 20.3864 14.5166 20.0711 14.5009C19.7559 14.4852 19.4438 14.5694 19.1792 14.7414C18.9145 14.9133 18.7109 15.1644 18.5972 15.4588C18.4836 15.7533 18.4657 16.076 18.5461 16.3812L21.4086 27.25C21.4316 27.3358 21.4622 27.4195 21.4998 27.5C21.4812 27.4573 21.4603 27.4155 21.4373 27.375L17.2973 20.25C17.1655 20.0227 16.9762 19.834 16.7485 19.7028C16.5208 19.5717 16.2626 19.5026 15.9998 19.5026C15.737 19.5026 15.4789 19.5717 15.2512 19.7028C15.0234 19.834 14.8342 20.0227 14.7023 20.25L10.5623 27.375C10.5393 27.4155 10.5185 27.4573 10.4998 27.5C10.537 27.4193 10.5675 27.3356 10.5911 27.25L13.4498 16.385C13.5302 16.0798 13.5123 15.757 13.3987 15.4626C13.285 15.1682 13.0814 14.9171 12.8167 14.7451C12.5521 14.5731 12.24 14.489 11.9248 14.5047C11.6096 14.5204 11.3073 14.6351 11.0611 14.8325L6.62483 18.39C6.58111 18.4238 6.53937 18.4601 6.49983 18.4987C6.52233 18.4775 6.54358 18.4537 6.56483 18.4312L12.2286 12.0075C12.3694 11.8479 12.5425 11.7202 12.7365 11.6327C12.9304 11.5452 13.1408 11.4999 13.3536 11.5H18.6461C18.8589 11.4999 19.0692 11.5452 19.2632 11.6327C19.4572 11.7202 19.6303 11.8479 19.7711 12.0075L25.4361 18.4312C25.4573 18.4537 25.4786 18.4775 25.5011 18.4987C25.4611 18.4601 25.419 18.4238 25.3748 18.39Z" fill="black"/>
</svg>
