<svg width="32" height="32" viewBox="0 0 32 32" fill="none" xmlns="http://www.w3.org/2000/svg">
<path d="M28 15H4V9.6362C4.00007 9.16783 4.16452 8.71434 4.46468 8.35478C4.76484 7.99523 5.18167 7.75243 5.6425 7.6687L25.6425 4.03246C25.9307 3.9801 26.2268 3.99168 26.5101 4.06638C26.7933 4.14107 27.0566 4.27706 27.2815 4.46474C27.5064 4.65241 27.6873 4.88718 27.8114 5.15246C27.9356 5.41774 28 5.70706 28 5.99996V15ZM4 22.3637C4.00007 22.8321 4.16452 23.2856 4.46468 23.6451C4.76484 24.0047 5.18167 24.2475 5.6425 24.3312L25.6425 27.9675C25.7605 27.9887 25.8801 27.9996 26 28C26.5304 28 27.0391 27.7892 27.4142 27.4142C27.7893 27.0391 28 26.5304 28 26V17H4V22.3637ZM30 15H28V17H30C30.2652 17 30.5196 16.8946 30.7071 16.7071C30.8946 16.5195 31 16.2652 31 16C31 15.7347 30.8946 15.4804 30.7071 15.2928C30.5196 15.1053 30.2652 15 30 15ZM2 15C1.73478 15 1.48043 15.1053 1.29289 15.2928C1.10536 15.4804 1 15.7347 1 16C1 16.2652 1.10536 16.5195 1.29289 16.7071C1.48043 16.8946 1.73478 17 2 17H4V15H2Z" fill="black"/>
</svg>
