<svg width="32" height="32" viewBox="0 0 32 32" fill="none" xmlns="http://www.w3.org/2000/svg">
<path d="M30 14.5001H28.5V6.0001C28.4999 5.63397 28.4193 5.27234 28.2641 4.94076C28.1088 4.60918 27.8826 4.31576 27.6014 4.08122C27.3203 3.84669 26.991 3.67678 26.637 3.58349C26.2829 3.4902 25.9127 3.47582 25.5525 3.54135L5.5525 7.1776C4.97668 7.28237 4.45587 7.58583 4.08081 8.03513C3.70574 8.48443 3.5002 9.05108 3.5 9.63635V14.5001H2C1.60218 14.5001 1.22064 14.6581 0.93934 14.9394C0.658035 15.2207 0.5 15.6023 0.5 16.0001C0.5 16.3979 0.658035 16.7795 0.93934 17.0608C1.22064 17.3421 1.60218 17.5001 2 17.5001H3.5V22.3639C3.5002 22.9491 3.70574 23.5158 4.08081 23.9651C4.45587 24.4144 4.97668 24.7178 5.5525 24.8226L25.5525 28.4589C25.9127 28.5244 26.2829 28.51 26.637 28.4167C26.991 28.3234 27.3203 28.1535 27.6014 27.919C27.8826 27.6845 28.1088 27.391 28.2641 27.0595C28.4193 26.7279 28.4999 26.3662 28.5 26.0001V17.5001H30C30.3978 17.5001 30.7794 17.3421 31.0607 17.0608C31.342 16.7795 31.5 16.3979 31.5 16.0001C31.5 15.6023 31.342 15.2207 31.0607 14.9394C30.7794 14.6581 30.3978 14.5001 30 14.5001ZM6.5 10.0539L25.5 6.6001V14.5001H6.5V10.0539ZM25.5 25.4001L6.5 21.9464V17.5001H25.5V25.4001Z" fill="black"/>
</svg>
