<svg width="32" height="32" viewBox="0 0 32 32" fill="none" xmlns="http://www.w3.org/2000/svg">
<path d="M15.9999 10.5C16.89 10.5 17.76 10.2361 18.5 9.74162C19.24 9.24715 19.8168 8.54434 20.1574 7.72208C20.498 6.89981 20.5871 5.99501 20.4135 5.1221C20.2398 4.24918 19.8113 3.44736 19.1819 2.81802C18.5526 2.18869 17.7508 1.7601 16.8779 1.58647C16.0049 1.41283 15.1001 1.50195 14.2779 1.84254C13.4556 2.18314 12.7528 2.75991 12.2583 3.49994C11.7639 4.23996 11.4999 5.10999 11.4999 6C11.4999 7.19348 11.9741 8.33807 12.818 9.18198C13.6619 10.0259 14.8065 10.5 15.9999 10.5ZM15.9999 4.5C16.2966 4.5 16.5866 4.58798 16.8333 4.7528C17.08 4.91762 17.2722 5.15189 17.3858 5.42598C17.4993 5.70007 17.529 6.00167 17.4711 6.29264C17.4132 6.58361 17.2704 6.85088 17.0606 7.06066C16.8508 7.27044 16.5836 7.4133 16.2926 7.47118C16.0016 7.52906 15.7 7.49935 15.4259 7.38582C15.1518 7.27229 14.9176 7.08003 14.7527 6.83336C14.5879 6.58668 14.4999 6.29667 14.4999 6C14.4999 5.60218 14.658 5.22065 14.9393 4.93934C15.2206 4.65804 15.6021 4.5 15.9999 4.5ZM29.2862 17.2713C29.1849 17.4403 29.0513 17.5877 28.8929 17.7051C28.7346 17.8225 28.5547 17.9076 28.3635 17.9554C28.1723 18.0032 27.9736 18.0129 27.7787 17.9839C27.5837 17.9548 27.3964 17.8877 27.2274 17.7863C27.1874 17.7625 23.1812 15.4213 17.4999 15.0513V18.4263L25.1249 27C25.2563 27.1477 25.3572 27.3199 25.422 27.5066C25.4868 27.6934 25.5142 27.8911 25.5025 28.0884C25.4909 28.2857 25.4406 28.4788 25.3543 28.6567C25.2681 28.8345 25.1477 28.9937 24.9999 29.125C24.8522 29.2563 24.6801 29.3573 24.4933 29.4221C24.3066 29.4868 24.1089 29.5142 23.9116 29.5026C23.7142 29.491 23.5211 29.4406 23.3433 29.3544C23.1654 29.2682 23.0063 29.1477 22.8749 29L15.9999 21.2613L9.12494 29C8.99362 29.1477 8.83449 29.2682 8.65663 29.3544C8.47876 29.4406 8.28566 29.491 8.08833 29.5026C7.89101 29.5142 7.69333 29.4868 7.50658 29.4221C7.31984 29.3573 7.14768 29.2563 6.99994 29.125C6.85221 28.9937 6.73178 28.8345 6.64555 28.6567C6.55931 28.4788 6.50895 28.2857 6.49734 28.0884C6.48573 27.8911 6.51311 27.6934 6.5779 27.5066C6.64268 27.3199 6.74362 27.1477 6.87494 27L14.4999 18.4263V15.0513C8.78494 15.42 4.81494 17.7613 4.77244 17.7875C4.43131 17.9922 4.02282 18.053 3.63685 17.9566C3.25088 17.8601 2.91903 17.6143 2.71432 17.2731C2.50961 16.932 2.44879 16.5235 2.54526 16.1375C2.64172 15.7516 2.88756 15.4197 3.22869 15.215C3.44744 15.0825 8.66869 12 15.9999 12C23.3312 12 28.5524 15.0825 28.7712 15.2138C29.1123 15.4183 29.3581 15.75 29.4547 16.1359C29.5513 16.5217 29.4907 16.9301 29.2862 17.2713Z" fill="black"/>
</svg>
