<svg width="32" height="32" viewBox="0 0 32 32" fill="none" xmlns="http://www.w3.org/2000/svg">
<path d="M21 10.5C21.7911 10.5 22.5645 10.2654 23.2223 9.82588C23.8801 9.38635 24.3928 8.76164 24.6955 8.03074C24.9983 7.29983 25.0775 6.49556 24.9231 5.71964C24.7688 4.94372 24.3878 4.23098 23.8284 3.67157C23.269 3.11216 22.5563 2.7312 21.7804 2.57686C21.0044 2.42252 20.2002 2.50173 19.4693 2.80448C18.7384 3.10723 18.1136 3.61992 17.6741 4.27772C17.2346 4.93552 17 5.70888 17 6.5C17 7.56087 17.4214 8.57828 18.1716 9.32843C18.9217 10.0786 19.9391 10.5 21 10.5ZM21 5.5C21.1978 5.5 21.3911 5.55865 21.5556 5.66853C21.72 5.77841 21.8482 5.93459 21.9239 6.11732C21.9996 6.30004 22.0194 6.50111 21.9808 6.69509C21.9422 6.88907 21.847 7.06726 21.7071 7.20711C21.5673 7.34696 21.3891 7.4422 21.1951 7.48079C21.0011 7.51937 20.8 7.49957 20.6173 7.42388C20.4346 7.34819 20.2784 7.22002 20.1685 7.05557C20.0586 6.89112 20 6.69778 20 6.5C20 6.23479 20.1054 5.98043 20.2929 5.7929C20.4804 5.60536 20.7348 5.5 21 5.5ZM25.25 17C24.2117 17 23.1966 17.3079 22.3333 17.8848C21.4699 18.4617 20.797 19.2816 20.3996 20.2409C20.0023 21.2002 19.8983 22.2558 20.1009 23.2742C20.3035 24.2926 20.8035 25.2281 21.5377 25.9623C22.2719 26.6965 23.2074 27.1966 24.2258 27.3991C25.2442 27.6017 26.2998 27.4977 27.2591 27.1004C28.2184 26.703 29.0383 26.0301 29.6152 25.1667C30.1921 24.3034 30.5 23.2884 30.5 22.25C30.5 20.8576 29.9469 19.5223 28.9623 18.5377C27.9777 17.5531 26.6424 17 25.25 17ZM25.25 24.5C24.805 24.5 24.37 24.368 24 24.1208C23.63 23.8736 23.3416 23.5222 23.1713 23.111C23.001 22.6999 22.9564 22.2475 23.0432 21.811C23.1301 21.3746 23.3443 20.9737 23.659 20.659C23.9737 20.3443 24.3746 20.1301 24.811 20.0432C25.2475 19.9564 25.6999 20.001 26.111 20.1713C26.5222 20.3416 26.8736 20.63 27.1208 21C27.368 21.37 27.5 21.805 27.5 22.25C27.5 22.8467 27.2629 23.419 26.841 23.841C26.419 24.2629 25.8467 24.5 25.25 24.5ZM6.75 17C5.71165 17 4.69662 17.3079 3.83326 17.8848C2.9699 18.4617 2.29699 19.2816 1.89963 20.2409C1.50227 21.2002 1.39831 22.2558 1.60088 23.2742C1.80345 24.2926 2.30347 25.2281 3.03769 25.9623C3.77192 26.6965 4.70738 27.1966 5.72578 27.3991C6.74418 27.6017 7.79978 27.4977 8.75909 27.1004C9.7184 26.703 10.5383 26.0301 11.1152 25.1667C11.6921 24.3034 12 23.2884 12 22.25C12 20.8576 11.4469 19.5223 10.4623 18.5377C9.47775 17.5531 8.14239 17 6.75 17ZM6.75 24.5C6.30499 24.5 5.86998 24.368 5.49997 24.1208C5.12996 23.8736 4.84157 23.5222 4.67127 23.111C4.50098 22.6999 4.45642 22.2475 4.54324 21.811C4.63005 21.3746 4.84434 20.9737 5.15901 20.659C5.47368 20.3443 5.87459 20.1301 6.31105 20.0432C6.74751 19.9564 7.19991 20.001 7.61104 20.1713C8.02217 20.3416 8.37358 20.63 8.62081 21C8.86804 21.37 9 21.805 9 22.25C9 22.8467 8.76295 23.419 8.34099 23.841C7.91904 24.2629 7.34674 24.5 6.75 24.5ZM23.5 16H19C18.803 16.0002 18.6078 15.9615 18.4257 15.8862C18.2436 15.8109 18.0782 15.7005 17.9388 15.5613L15 12.625L13.125 14.5L17.065 18.4388C17.3449 18.7209 17.5013 19.1026 17.5 19.5V25.5C17.5 25.8978 17.342 26.2794 17.0607 26.5607C16.7794 26.842 16.3978 27 16 27C15.6022 27 15.2206 26.842 14.9393 26.5607C14.658 26.2794 14.5 25.8978 14.5 25.5V20.125L9.93875 15.5613C9.79891 15.4219 9.68796 15.2563 9.61225 15.074C9.53654 14.8917 9.49757 14.6962 9.49757 14.4988C9.49757 14.3013 9.53654 14.1059 9.61225 13.9235C9.68796 13.7412 9.79891 13.5756 9.93875 13.4363L13.9388 9.43625C14.0781 9.29641 14.2437 9.18546 14.426 9.10975C14.6084 9.03404 14.8038 8.99507 15.0013 8.99507C15.1987 8.99507 15.3942 9.03404 15.5765 9.10975C15.7588 9.18546 15.9244 9.29641 16.0638 9.43625L19.625 13H23.5C23.8978 13 24.2794 13.158 24.5607 13.4393C24.842 13.7206 25 14.1022 25 14.5C25 14.8978 24.842 15.2794 24.5607 15.5607C24.2794 15.842 23.8978 16 23.5 16Z" fill="black"/>
</svg>
