<svg width="32" height="32" viewBox="0 0 32 32" fill="none" xmlns="http://www.w3.org/2000/svg">
<path d="M18.94 13.06C18.8002 12.9207 18.6892 12.7551 18.6135 12.5728C18.5378 12.3904 18.4988 12.195 18.4988 11.9975C18.4988 11.8001 18.5378 11.6046 18.6135 11.4223C18.6892 11.24 18.8002 11.0744 18.94 10.935L22.375 7.50004H21C20.6022 7.50004 20.2206 7.34201 19.9393 7.0607C19.658 6.7794 19.5 6.39787 19.5 6.00004C19.5 5.60222 19.658 5.22069 19.9393 4.93938C20.2206 4.65808 20.6022 4.50004 21 4.50004H26C26.3978 4.50004 26.7793 4.65808 27.0607 4.93938C27.342 5.22069 27.5 5.60222 27.5 6.00004V11C27.5 11.3979 27.342 11.7794 27.0607 12.0607C26.7793 12.342 26.3978 12.5 26 12.5C25.6022 12.5 25.2206 12.342 24.9393 12.0607C24.658 11.7794 24.5 11.3979 24.5 11V9.62504L21.0612 13.0638C20.9219 13.2036 20.7563 13.3146 20.574 13.3903C20.3916 13.466 20.1962 13.505 19.9987 13.505C19.8013 13.505 19.6058 13.466 19.4235 13.3903C19.2412 13.3146 19.0756 13.2036 18.9362 13.0638L18.94 13.06ZM29.4812 21.9475C29.2429 23.7621 28.3522 25.4278 26.9754 26.6336C25.5987 27.8394 23.8301 28.5029 22 28.5C11.7987 28.5 3.49999 20.2013 3.49999 10C3.49716 8.16992 4.1606 6.40134 5.36642 5.02461C6.57223 3.64788 8.23796 2.75716 10.0525 2.51879C10.5871 2.45383 11.1285 2.56281 11.5963 2.82961C12.0642 3.09641 12.4337 3.50682 12.65 4.00004L15.2887 9.89129C15.2916 9.89901 15.2949 9.90653 15.2987 9.91379C15.4609 10.2928 15.5268 10.7061 15.4906 11.1167C15.4544 11.5274 15.3172 11.9227 15.0912 12.2675C15.0591 12.3178 15.0236 12.3658 14.985 12.4113L12.6025 15.25C13.485 16.855 15.165 18.52 16.7887 19.4013L19.5775 17.0263C19.6223 16.9888 19.669 16.9538 19.7175 16.9213C20.0635 16.6891 20.4623 16.5475 20.8772 16.5095C21.2922 16.4715 21.7101 16.5383 22.0925 16.7038L22.115 16.7138L28 19.35C28.4931 19.5665 28.9034 19.936 29.1702 20.4038C29.4369 20.8717 29.546 21.4129 29.4812 21.9475ZM26.4425 21.94L21.1925 19.5888L18.3887 21.9725C18.3447 22.0107 18.2983 22.0462 18.25 22.0788C17.8896 22.3178 17.4734 22.4592 17.042 22.4892C16.6106 22.5192 16.1788 22.4368 15.7887 22.25C13.3537 21.075 10.9275 18.665 9.74999 16.25C9.56274 15.8618 9.47907 15.4317 9.50711 15.0015C9.53514 14.5713 9.67393 14.1557 9.90999 13.795C9.94258 13.7448 9.9785 13.6968 10.0175 13.6513L12.4125 10.8125L10.06 5.56254C9.04946 5.78524 8.14544 6.34673 7.49791 7.15387C6.85039 7.961 6.49827 8.96527 6.49999 10C6.50496 14.1094 8.13958 18.049 11.0453 20.9547C13.9511 23.8605 17.8907 25.4951 22 25.5C23.0356 25.5029 24.0411 25.1513 24.8492 24.5037C25.6574 23.8561 26.2196 22.9514 26.4425 21.94Z" fill="black"/>
</svg>
