<svg width="32" height="32" viewBox="0 0 32 32" fill="none" xmlns="http://www.w3.org/2000/svg">
<path d="M28 19.35L22.1137 16.7125L22.0912 16.7025C21.7089 16.5368 21.291 16.4699 20.876 16.5079C20.461 16.5459 20.0622 16.6876 19.7162 16.92C19.6677 16.9525 19.621 16.9876 19.5762 17.025L16.7875 19.4C15.1625 18.5188 13.4837 16.8538 12.6012 15.2488L14.9837 12.4163C15.0223 12.3708 15.0578 12.3228 15.09 12.2725C15.316 11.9277 15.4532 11.5324 15.4894 11.1217C15.5256 10.7111 15.4597 10.2978 15.2975 9.91879C15.2936 9.91153 15.2903 9.90401 15.2875 9.89629L12.65 4.00004C12.4337 3.50682 12.0642 3.09641 11.5963 2.82961C11.1285 2.56281 10.5871 2.45383 10.0525 2.51879C8.23796 2.75716 6.57223 3.64788 5.36642 5.02461C4.1606 6.40134 3.49716 8.16992 3.49999 10C3.49999 20.2013 11.7987 28.5 22 28.5C23.8301 28.5029 25.5987 27.8394 26.9754 26.6336C28.3522 25.4278 29.2429 23.7621 29.4812 21.9475C29.546 21.4129 29.4369 20.8717 29.1702 20.4038C28.9034 19.936 28.4931 19.5665 28 19.35ZM22 25.5C17.8907 25.4951 13.9511 23.8605 11.0453 20.9547C8.13958 18.049 6.50496 14.1094 6.49999 10C6.49696 8.96451 6.84851 7.95913 7.49618 7.15113C8.14386 6.34313 9.04862 5.7812 10.06 5.55879L12.4125 10.8088L10.0175 13.6588C9.9785 13.7043 9.94258 13.7523 9.90999 13.8025C9.67348 14.1635 9.53444 14.5796 9.5064 15.0102C9.47836 15.4409 9.56228 15.8714 9.74999 16.26C10.9275 18.67 13.3537 21.08 15.7887 22.26C16.1796 22.4453 16.6119 22.5261 17.0433 22.4943C17.4747 22.4625 17.8905 22.3194 18.25 22.0788C18.2983 22.0462 18.3447 22.0107 18.3887 21.9725L21.1925 19.5888L26.4425 21.94C26.2196 22.9514 25.6574 23.8561 24.8492 24.5037C24.0411 25.1513 23.0356 25.5029 22 25.5ZM17.5 9.00004C17.5 8.60222 17.658 8.22069 17.9393 7.93938C18.2206 7.65808 18.6022 7.50004 19 7.50004H21.5V5.00004C21.5 4.60222 21.658 4.22069 21.9393 3.93938C22.2206 3.65808 22.6022 3.50004 23 3.50004C23.3978 3.50004 23.7793 3.65808 24.0607 3.93938C24.342 4.22069 24.5 4.60222 24.5 5.00004V7.50004H27C27.3978 7.50004 27.7793 7.65808 28.0607 7.93938C28.342 8.22069 28.5 8.60222 28.5 9.00004C28.5 9.39787 28.342 9.7794 28.0607 10.0607C27.7793 10.342 27.3978 10.5 27 10.5H24.5V13C24.5 13.3979 24.342 13.7794 24.0607 14.0607C23.7793 14.342 23.3978 14.5 23 14.5C22.6022 14.5 22.2206 14.342 21.9393 14.0607C21.658 13.7794 21.5 13.3979 21.5 13V10.5H19C18.6022 10.5 18.2206 10.342 17.9393 10.0607C17.658 9.7794 17.5 9.39787 17.5 9.00004Z" fill="black"/>
</svg>
