<svg width="32" height="32" viewBox="0 0 32 32" fill="none" xmlns="http://www.w3.org/2000/svg">
<path d="M19.0337 4.74124C19.0677 4.61433 19.1263 4.49535 19.2063 4.3911C19.2862 4.28686 19.3859 4.19938 19.4997 4.13368C19.6134 4.06798 19.739 4.02533 19.8693 4.00819C19.9995 3.99104 20.1319 3.99972 20.2587 4.03374C22.1126 4.51743 23.804 5.48655 25.1587 6.84129C26.5134 8.19603 27.4826 9.88741 27.9662 11.7412C28.0003 11.8681 28.0089 12.0005 27.9918 12.1307C27.9747 12.261 27.932 12.3866 27.8663 12.5003C27.8006 12.6141 27.7131 12.7138 27.6089 12.7937C27.5046 12.8737 27.3857 12.9323 27.2587 12.9662C27.1743 12.9884 27.0873 12.9998 27 13C26.7798 13.0001 26.5657 12.9274 26.391 12.7934C26.2163 12.6594 26.0907 12.4714 26.0337 12.2587C25.6395 10.7452 24.8486 9.36414 23.7427 8.25805C22.6369 7.15196 21.256 6.36083 19.7425 5.96624C19.6155 5.93243 19.4964 5.87391 19.392 5.79402C19.2876 5.71414 19.2 5.61446 19.1342 5.50068C19.0683 5.38691 19.0256 5.26127 19.0083 5.13096C18.9911 5.00064 18.9997 4.86821 19.0337 4.74124ZM18.7425 9.96624C20.4662 10.4262 21.5737 11.535 22.0337 13.2587C22.0907 13.4714 22.2163 13.6594 22.391 13.7934C22.5657 13.9274 22.7798 14.0001 23 14C23.0873 13.9998 23.1743 13.9884 23.2587 13.9662C23.3857 13.9323 23.5046 13.8737 23.6089 13.7937C23.7131 13.7138 23.8006 13.6141 23.8663 13.5003C23.932 13.3866 23.9747 13.261 23.9918 13.1307C24.0089 13.0005 24.0003 12.8681 23.9662 12.7412C23.3262 10.3462 21.6537 8.67374 19.2587 8.03374C19.1319 7.99984 18.9995 7.99127 18.8693 8.00851C18.7391 8.02575 18.6136 8.06847 18.4999 8.13423C18.3862 8.19998 18.2866 8.28749 18.2067 8.39175C18.1268 8.49601 18.0683 8.61498 18.0344 8.74187C18.0005 8.86876 17.9919 9.00108 18.0091 9.13128C18.0264 9.26149 18.0691 9.38702 18.1349 9.50071C18.2006 9.6144 18.2881 9.71403 18.3924 9.79391C18.4966 9.87379 18.6156 9.93234 18.7425 9.96624ZM27.7962 19.8075L21.9075 17.1687L21.8912 17.1612C21.5855 17.0305 21.252 16.978 20.921 17.0086C20.5899 17.0391 20.2716 17.1517 19.995 17.3362C19.9624 17.3578 19.9311 17.3811 19.9012 17.4062L16.8587 20C14.9312 19.0637 12.9412 17.0887 12.005 15.1862L14.6025 12.0975C14.6275 12.0662 14.6512 12.035 14.6737 12.0012C14.8543 11.7254 14.9638 11.4091 14.9926 11.0807C15.0214 10.7523 14.9685 10.4218 14.8387 10.1187V10.1037L12.1925 4.20499C12.0209 3.80907 11.7259 3.47926 11.3515 3.26479C10.9771 3.05032 10.5433 2.96269 10.115 3.01499C8.42121 3.23787 6.86647 4.0697 5.74116 5.35511C4.61585 6.64052 3.99693 8.2916 4 9.99999C4 19.925 12.075 28 22 28C23.7084 28.0031 25.3595 27.3841 26.6449 26.2588C27.9303 25.1335 28.7621 23.5788 28.985 21.885C29.0374 21.4568 28.9499 21.0232 28.7357 20.6488C28.5215 20.2744 28.1919 19.9793 27.7962 19.8075Z" fill="black"/>
</svg>
