<svg width="32" height="32" viewBox="0 0 32 32" fill="none" xmlns="http://www.w3.org/2000/svg">
<path opacity="0.08" d="M27.9925 21.76C27.7983 23.2113 27.0836 24.5427 25.9813 25.5065C24.8791 26.4704 23.4642 27.0011 22 27C17.4913 27 13.1673 25.2089 9.97919 22.0208C6.79107 18.8327 5 14.5087 5 9.99997C4.99888 8.53573 5.5296 7.12091 6.49345 6.01864C7.45731 4.91637 8.78869 4.20167 10.24 4.00747C10.4545 3.98199 10.6716 4.02666 10.8586 4.13482C11.0456 4.24299 11.1926 4.40881 11.2775 4.60747L13.9188 10.5075C13.9836 10.659 14.0101 10.8242 13.9957 10.9885C13.9813 11.1527 13.9265 11.3108 13.8363 11.4487L11.165 14.625C11.0702 14.768 11.0142 14.9331 11.0024 15.1042C10.9906 15.2753 11.0233 15.4466 11.0975 15.6012C12.1313 17.7175 14.3188 19.8787 16.4413 20.9025C16.5967 20.9763 16.7688 21.0084 16.9404 20.9954C17.112 20.9825 17.2773 20.925 17.42 20.8287L20.545 18.1662C20.6835 18.0741 20.8428 18.0179 21.0084 18.0029C21.1741 17.9878 21.3409 18.0143 21.4938 18.08L27.3888 20.7212C27.5883 20.8056 27.7551 20.9525 27.864 21.1398C27.9729 21.3272 28.018 21.5448 27.9925 21.76Z" fill="black"/>
<path d="M27.795 19.8075L21.9075 17.1687L21.8925 17.1612C21.5866 17.0303 21.2529 16.9777 20.9216 17.0082C20.5902 17.0388 20.2718 17.1515 19.995 17.3362C19.9624 17.3578 19.9311 17.3811 19.9012 17.4062L16.8587 20C14.9312 19.0637 12.9412 17.0887 12.005 15.1862L14.6025 12.0975C14.6275 12.0662 14.6512 12.035 14.6737 12.0012C14.8543 11.7254 14.9638 11.4091 14.9926 11.0807C15.0214 10.7523 14.9685 10.4218 14.8387 10.1187C14.8383 10.1138 14.8383 10.1087 14.8387 10.1037L12.1925 4.20499C12.0209 3.80907 11.7259 3.47926 11.3515 3.26479C10.9771 3.05032 10.5433 2.96269 10.115 3.01499C8.42121 3.23787 6.86647 4.0697 5.74116 5.35511C4.61585 6.64052 3.99693 8.2916 4 9.99999C4 19.925 12.075 28 22 28C23.7084 28.0031 25.3595 27.3841 26.6449 26.2588C27.9303 25.1335 28.7621 23.5788 28.985 21.885C29.0373 21.4567 28.9497 21.0229 28.7352 20.6485C28.5207 20.2741 28.1909 19.9791 27.795 19.8075ZM22 26C17.758 25.9954 13.691 24.3082 10.6914 21.3086C7.69182 18.309 6.00463 14.242 6 9.99999C5.99529 8.77935 6.43506 7.59874 7.23717 6.67862C8.03927 5.75851 9.14887 5.16182 10.3587 4.99999C10.3583 5.00498 10.3583 5.01 10.3587 5.01499L12.9837 10.89L10.4 13.9825C10.3738 14.0127 10.3499 14.0448 10.3287 14.0787C10.1406 14.3674 10.0303 14.6997 10.0084 15.0436C9.98649 15.3874 10.0538 15.7311 10.2037 16.0412C11.3362 18.3575 13.67 20.6737 16.0112 21.805C16.3237 21.9536 16.6694 22.0185 17.0144 21.9935C17.3595 21.9686 17.6922 21.8545 17.98 21.6625C18.0124 21.6409 18.0433 21.617 18.0725 21.5912L21.1112 19L26.9862 21.6325C26.9862 21.6325 26.9962 21.6325 27 21.6325C26.8399 22.8438 26.2439 23.9554 25.3237 24.7592C24.4034 25.5631 23.2219 26.0041 22 26ZM18 8.99999C18 8.73477 18.1054 8.48042 18.2929 8.29288C18.4804 8.10535 18.7348 7.99999 19 7.99999H22V4.99999C22 4.73477 22.1054 4.48042 22.2929 4.29288C22.4804 4.10535 22.7348 3.99999 23 3.99999C23.2652 3.99999 23.5196 4.10535 23.7071 4.29288C23.8946 4.48042 24 4.73477 24 4.99999V7.99999H27C27.2652 7.99999 27.5196 8.10535 27.7071 8.29288C27.8946 8.48042 28 8.73477 28 8.99999C28 9.26521 27.8946 9.51956 27.7071 9.7071C27.5196 9.89463 27.2652 9.99999 27 9.99999H24V13C24 13.2652 23.8946 13.5196 23.7071 13.7071C23.5196 13.8946 23.2652 14 23 14C22.7348 14 22.4804 13.8946 22.2929 13.7071C22.1054 13.5196 22 13.2652 22 13V9.99999H19C18.7348 9.99999 18.4804 9.89463 18.2929 9.7071C18.1054 9.51956 18 9.26521 18 8.99999Z" fill="black"/>
</svg>
