<svg width="32" height="32" viewBox="0 0 32 32" fill="none" xmlns="http://www.w3.org/2000/svg">
<path d="M27.5975 20.2662L21.695 17.625C21.4662 17.5259 21.2163 17.4855 20.9679 17.5073C20.7195 17.5292 20.4805 17.6125 20.2725 17.75C20.2559 17.7605 20.24 17.7722 20.225 17.785L17.125 20.4275C17.056 20.4695 16.9777 20.4939 16.897 20.4985C16.8164 20.5031 16.7358 20.4877 16.6625 20.4537C14.6325 19.4737 12.5312 17.3887 11.5512 15.3825C11.5166 15.3097 11.5005 15.2295 11.5044 15.149C11.5083 15.0685 11.5322 14.9902 11.5737 14.9212L14.2237 11.77C14.2362 11.755 14.2475 11.7387 14.2587 11.7225C14.3957 11.5147 14.4789 11.2761 14.5007 11.0283C14.5225 10.7804 14.4823 10.5309 14.3837 10.3025L11.7375 4.40996C11.6097 4.11152 11.3886 3.86258 11.1073 3.70052C10.826 3.53846 10.4998 3.47203 10.1775 3.51121C8.60446 3.71861 7.16071 4.49154 6.11591 5.68563C5.07111 6.87972 4.49671 8.41331 4.5 9.99996C4.5 19.65 12.35 27.5 22 27.5C23.5866 27.5032 25.1202 26.9289 26.3143 25.884C27.5084 24.8392 28.2813 23.3955 28.4887 21.8225C28.5276 21.5017 28.4619 21.1769 28.3013 20.8965C28.1407 20.6161 27.8939 20.395 27.5975 20.2662ZM27.5 21.6975C27.3235 23.0296 26.6678 24.2519 25.6556 25.1358C24.6433 26.0197 23.3438 26.5046 22 26.5C12.9025 26.5 5.5 19.0975 5.5 9.99996C5.49534 8.65614 5.98029 7.35663 6.86416 6.34439C7.74803 5.33215 8.97032 4.67648 10.3025 4.49996C10.3225 4.49872 10.3425 4.49872 10.3625 4.49996C10.4611 4.5008 10.5573 4.5308 10.639 4.58618C10.7206 4.64157 10.784 4.71986 10.8212 4.81121L13.46 10.7037C13.4908 10.7757 13.5042 10.854 13.4992 10.9321C13.4942 11.0103 13.471 11.0862 13.4312 11.1537L10.7825 14.3037C10.77 14.32 10.7575 14.335 10.7462 14.3525C10.6051 14.5683 10.522 14.8168 10.5049 15.0741C10.4879 15.3313 10.5374 15.5887 10.6487 15.8212C11.735 18.045 13.975 20.2687 16.2237 21.355C16.4579 21.4656 16.7167 21.5137 16.9749 21.4947C17.2332 21.4756 17.4821 21.39 17.6975 21.2462L17.7437 21.2112L20.8475 18.5712C20.9139 18.5306 20.989 18.5064 21.0666 18.5006C21.1441 18.4947 21.222 18.5073 21.2937 18.5375L27.195 21.1825C27.2946 21.2239 27.3781 21.2965 27.4331 21.3893C27.488 21.4821 27.5115 21.5902 27.5 21.6975Z" fill="black"/>
</svg>
