<svg width="32" height="32" viewBox="0 0 32 32" fill="none" xmlns="http://www.w3.org/2000/svg">
<path d="M18.94 10.9387L20.875 8.99994L18.94 7.05994C18.6582 6.77815 18.4999 6.39595 18.4999 5.99744C18.4999 5.80011 18.5388 5.60472 18.6143 5.42242C18.6898 5.24011 18.8005 5.07447 18.94 4.93494C19.0795 4.79541 19.2452 4.68473 19.4275 4.60922C19.6098 4.5337 19.8052 4.49484 20.0025 4.49484C20.401 4.49484 20.7832 4.65315 21.065 4.93494L23 6.87494L24.94 4.93494C25.2218 4.65315 25.604 4.49484 26.0025 4.49484C26.401 4.49484 26.7832 4.65315 27.065 4.93494C27.3468 5.21673 27.5051 5.59892 27.5051 5.99744C27.5051 6.39595 27.3468 6.77815 27.065 7.05994L25.125 8.99994L27.065 10.9387C27.2045 11.0782 27.3152 11.2439 27.3907 11.4262C27.4662 11.6085 27.5051 11.8039 27.5051 12.0012C27.5051 12.1985 27.4662 12.3939 27.3907 12.5762C27.3152 12.7585 27.2045 12.9242 27.065 13.0637C26.9255 13.2032 26.7598 13.3139 26.5775 13.3894C26.3952 13.4649 26.1998 13.5038 26.0025 13.5038C25.8052 13.5038 25.6098 13.4649 25.4275 13.3894C25.2452 13.3139 25.0795 13.2032 24.94 13.0637L23 11.1249L21.0612 13.0637C20.9217 13.2032 20.7561 13.3139 20.5738 13.3894C20.3915 13.4649 20.1961 13.5038 19.9987 13.5038C19.8014 13.5038 19.606 13.4649 19.4237 13.3894C19.2414 13.3139 19.0758 13.2032 18.9362 13.0637C18.7967 12.9242 18.686 12.7585 18.6105 12.5762C18.535 12.3939 18.4961 12.1985 18.4961 12.0012C18.4961 11.8039 18.535 11.6085 18.6105 11.4262C18.686 11.2439 18.7967 11.0782 18.9362 10.9387H18.94ZM29.4812 21.9474C29.2429 23.762 28.3522 25.4277 26.9754 26.6335C25.5987 27.8393 23.8301 28.5028 22 28.4999C11.7987 28.4999 3.49999 20.2012 3.49999 9.99994C3.49716 8.16982 4.1606 6.40123 5.36642 5.02451C6.57223 3.64778 8.23796 2.75706 10.0525 2.51869C10.5871 2.45393 11.1284 2.563 11.5962 2.82978C12.064 3.09655 12.4335 3.50684 12.65 3.99994L15.2887 9.89119C15.2916 9.89891 15.2949 9.90643 15.2987 9.91369C15.4609 10.2927 15.5268 10.706 15.4906 11.1166C15.4544 11.5273 15.3172 11.9226 15.0912 12.2674C15.0588 12.3175 15.0233 12.3655 14.985 12.4112L12.6025 15.2499C13.485 16.8549 15.165 18.5199 16.7887 19.4012L19.5775 17.0262C19.6223 16.9887 19.669 16.9537 19.7175 16.9212C20.0635 16.6891 20.4622 16.5475 20.8771 16.5093C21.292 16.4711 21.7099 16.5375 22.0925 16.7024L22.115 16.7124L28 19.3499C28.4931 19.5664 28.9034 19.9359 29.1702 20.4037C29.4369 20.8715 29.546 21.4128 29.4812 21.9474ZM26.4425 21.9399L21.1925 19.5887L18.3887 21.9724C18.3447 22.0106 18.2983 22.0461 18.25 22.0787C17.8896 22.3177 17.4734 22.4591 17.042 22.4891C16.6106 22.5191 16.1788 22.4367 15.7887 22.2499C13.3537 21.0749 10.9275 18.6649 9.74999 16.2499C9.56274 15.8617 9.47907 15.4316 9.50711 15.0014C9.53514 14.5712 9.67393 14.1556 9.90999 13.7949C9.94288 13.7445 9.97878 13.6961 10.0175 13.6499L12.4125 10.8112L10.06 5.56119C9.04925 5.78393 8.14507 6.34561 7.49752 7.153C6.84997 7.96039 6.49799 8.96495 6.49999 9.99994C6.50496 14.1093 8.13958 18.0489 11.0453 20.9546C13.9511 23.8604 17.8907 25.495 22 25.4999C23.0356 25.5028 24.0411 25.1512 24.8492 24.5036C25.6574 23.856 26.2196 22.9513 26.4425 21.9399Z" fill="black"/>
</svg>
