<svg width="32" height="32" viewBox="0 0 32 32" fill="none" xmlns="http://www.w3.org/2000/svg">
<path d="M29.2987 10.9113C22.09 3.69625 9.91 3.69625 2.70125 10.9113C0.0199969 13.595 -0.238753 17.5525 2.07625 20.5362C2.40563 20.9582 2.86175 21.2633 3.37749 21.4066C3.89324 21.55 4.44138 21.524 4.94125 21.3325L11.05 19.1612L11.1062 19.1413C11.4918 18.9861 11.8325 18.7373 12.0977 18.4173C12.3629 18.0974 12.5441 17.7164 12.625 17.3088L13.305 13.9038C15.045 13.3626 16.9077 13.3587 18.65 13.8925L19.375 17.3275C19.459 17.7311 19.6415 18.1077 19.9062 18.4237C20.171 18.7397 20.5098 18.9854 20.8925 19.1388L20.9487 19.16L27.0662 21.3312C27.566 21.5224 28.1138 21.5483 28.6293 21.4049C29.1448 21.2616 29.6007 20.9567 29.93 20.535C32.2387 17.5525 31.98 13.595 29.2987 10.9113ZM27.77 18.3988L22.25 16.4375L21.53 13C21.4418 12.5776 21.2458 12.1852 20.9611 11.8611C20.6763 11.5369 20.3125 11.2919 19.905 11.15C17.3543 10.2763 14.5843 10.2825 12.0375 11.1675C11.6308 11.3123 11.2685 11.5599 10.9859 11.8863C10.7033 12.2127 10.5101 12.6067 10.425 13.03L9.75 16.4412L4.23 18.3988C3.085 16.6675 3.30375 14.5525 4.82125 13.0337C7.85125 10 11.9262 8.485 16 8.485C20.0737 8.485 24.1487 10 27.1787 13.0337C28.6962 14.5525 28.915 16.6688 27.77 18.3988ZM28.5 25C28.5 25.3978 28.342 25.7794 28.0607 26.0607C27.7794 26.342 27.3978 26.5 27 26.5H5C4.60217 26.5 4.22064 26.342 3.93934 26.0607C3.65803 25.7794 3.5 25.3978 3.5 25C3.5 24.6022 3.65803 24.2206 3.93934 23.9393C4.22064 23.658 4.60217 23.5 5 23.5H27C27.3978 23.5 27.7794 23.658 28.0607 23.9393C28.342 24.2206 28.5 24.6022 28.5 25Z" fill="black"/>
</svg>
