<svg width="32" height="32" viewBox="0 0 32 32" fill="none" xmlns="http://www.w3.org/2000/svg">
<path d="M27.6987 20.0374L21.7937 17.3912C21.5262 17.2766 21.2343 17.2305 20.9444 17.2571C20.6546 17.2837 20.3759 17.3822 20.1337 17.5437C20.1092 17.5595 20.0858 17.577 20.0637 17.5962L16.9775 20.2212C16.9455 20.2387 16.9098 20.2484 16.8734 20.2497C16.8369 20.251 16.8007 20.2438 16.7675 20.2287C14.7837 19.2712 12.7287 17.2287 11.7675 15.2724C11.7515 15.2398 11.7432 15.2038 11.7432 15.1674C11.7432 15.1311 11.7515 15.0951 11.7675 15.0624L14.4012 11.9374C14.4204 11.9146 14.438 11.8903 14.4537 11.8649C14.613 11.6218 14.7092 11.3429 14.7336 11.0533C14.758 10.7637 14.71 10.4726 14.5937 10.2062L11.9662 4.3112C11.817 3.96321 11.559 3.673 11.2308 3.48413C10.9027 3.29526 10.5221 3.21791 10.1462 3.2637C8.51289 3.4787 7.01365 4.28095 5.92859 5.5206C4.84352 6.76024 4.24684 8.3525 4.25 9.99995C4.25 19.7874 12.2125 27.7499 22 27.7499C23.6474 27.7531 25.2397 27.1564 26.4793 26.0714C27.719 24.9863 28.5212 23.4871 28.7362 21.8537C28.7819 21.4796 28.7056 21.1008 28.5187 20.7735C28.3318 20.4463 28.0442 20.1881 27.6987 20.0374ZM22 26.2499C13.04 26.2499 5.75 18.9599 5.75 9.99995C5.74582 8.71736 6.20875 7.47712 7.0523 6.51096C7.89586 5.5448 9.06232 4.91881 10.3337 4.74995H10.3625C10.4129 4.75089 10.4618 4.76703 10.5028 4.79625C10.5439 4.82547 10.5751 4.86641 10.5925 4.9137L13.23 10.8024C13.245 10.8352 13.2528 10.8708 13.2528 10.9068C13.2528 10.9429 13.245 10.9785 13.23 11.0112L10.5912 14.1437C10.5716 14.1661 10.5536 14.1899 10.5375 14.2149C10.3724 14.467 10.2751 14.7575 10.2552 15.0581C10.2353 15.3588 10.2933 15.6595 10.4237 15.9312C11.5325 18.2012 13.82 20.4712 16.115 21.5799C16.3882 21.7096 16.6904 21.7663 16.9921 21.7444C17.2938 21.7225 17.5846 21.6228 17.8362 21.4549C17.86 21.4387 17.8837 21.4212 17.9062 21.4024L20.9912 18.7774C21.0217 18.7611 21.0554 18.7515 21.0899 18.7493C21.1244 18.7472 21.159 18.7525 21.1912 18.7649L27.0975 21.4112C27.1457 21.4317 27.1863 21.4669 27.2134 21.5118C27.2406 21.5567 27.2529 21.6089 27.2487 21.6612C27.0808 22.9332 26.4554 24.1005 25.4894 24.945C24.5235 25.7895 23.2831 26.2534 22 26.2499ZM19.25 11.9999V6.99995C19.25 6.80104 19.329 6.61027 19.4697 6.46962C19.6103 6.32897 19.8011 6.24995 20 6.24995C20.1989 6.24995 20.3897 6.32897 20.5303 6.46962C20.671 6.61027 20.75 6.80104 20.75 6.99995V10.1887L25.47 5.46995C25.6122 5.33747 25.8002 5.26535 25.9945 5.26877C26.1888 5.2722 26.3742 5.35091 26.5116 5.48833C26.649 5.62574 26.7277 5.81113 26.7312 6.00543C26.7346 6.19973 26.6625 6.38777 26.53 6.52995L21.81 11.2499H25C25.1989 11.2499 25.3897 11.329 25.5303 11.4696C25.671 11.6103 25.75 11.801 25.75 11.9999C25.75 12.1989 25.671 12.3896 25.5303 12.5303C25.3897 12.6709 25.1989 12.7499 25 12.7499H20C19.8011 12.7499 19.6103 12.6709 19.4697 12.5303C19.329 12.3896 19.25 12.1989 19.25 11.9999Z" fill="black"/>
</svg>
