<svg width="32" height="32" viewBox="0 0 32 32" fill="none" xmlns="http://www.w3.org/2000/svg">
<path d="M29.535 20.23C29.2706 20.5679 28.9044 20.8119 28.4907 20.9258C28.077 21.0397 27.6376 21.0175 27.2375 20.8625L21.1125 18.6887L21.0762 18.675C20.77 18.5525 20.4987 18.356 20.2867 18.1033C20.0747 17.8505 19.9286 17.5492 19.8612 17.2262L19.085 13.5075C17.0711 12.8213 14.8859 12.8261 12.875 13.5212L12.1375 17.2112C12.0725 17.5378 11.9269 17.8429 11.7141 18.0989C11.5013 18.355 11.2279 18.5539 10.9187 18.6775L10.8825 18.6912L4.7575 20.8625C4.53014 20.9521 4.28812 20.9987 4.04375 21C3.73956 21.0005 3.43925 20.9317 3.16567 20.7987C2.89209 20.6657 2.65246 20.4721 2.465 20.2325C0.311248 17.455 0.552498 13.7687 3.05125 11.2687C10.07 4.2475 21.9262 4.2475 28.9487 11.2687C31.4475 13.7662 31.6887 17.4525 29.535 20.23ZM27 24H5C4.73478 24 4.48043 24.1054 4.29289 24.2929C4.10535 24.4804 4 24.7348 4 25C4 25.2652 4.10535 25.5196 4.29289 25.7071C4.48043 25.8946 4.73478 26 5 26H27C27.2652 26 27.5196 25.8946 27.7071 25.7071C27.8946 25.5196 28 25.2652 28 25C28 24.7348 27.8946 24.4804 27.7071 24.2929C27.5196 24.1054 27.2652 24 27 24Z" fill="black"/>
</svg>
