<svg width="32" height="32" viewBox="0 0 32 32" fill="none" xmlns="http://www.w3.org/2000/svg">
<path d="M28.9487 11.2662C21.93 4.24997 10.07 4.24997 3.05125 11.2662C0.55125 13.7662 0.31125 17.4525 2.465 20.23C2.6522 20.47 2.89173 20.6641 3.16532 20.7976C3.43891 20.931 3.73935 21.0002 4.04375 21C4.28965 21.0001 4.53341 20.9543 4.7625 20.865L10.8875 18.6937L10.9237 18.68C11.2329 18.5563 11.5063 18.3575 11.7191 18.1014C11.9319 17.8454 12.0775 17.5402 12.1425 17.2137L12.88 13.5237C14.8909 12.8286 17.0761 12.8238 19.09 13.51L19.8662 17.2287C19.9336 17.5517 20.0797 17.853 20.2917 18.1057C20.5037 18.3585 20.775 18.5549 21.0812 18.6775L21.1175 18.6912L27.2425 20.865C27.6426 21.02 28.082 21.0421 28.4957 20.9282C28.9095 20.8144 29.2756 20.5704 29.54 20.2325C31.6888 17.4525 31.4475 13.7662 28.9487 11.2662ZM27.9587 19L27.9212 18.985L21.8188 16.8187L21.0425 13.1012C20.9721 12.7648 20.8161 12.4523 20.5897 12.1937C20.3633 11.9351 20.0741 11.7392 19.75 11.625C17.3046 10.7877 14.6493 10.7934 12.2075 11.6412C11.8809 11.7579 11.5902 11.9576 11.364 12.2205C11.1379 12.4835 10.984 12.8008 10.9175 13.1412L10.18 16.83L4.07875 18.9825C4.06625 18.9825 4.0575 18.9987 4.045 19.0037C2.50375 17.015 2.67 14.475 4.465 12.6812C7.59 9.55622 11.7962 7.98997 16 7.98997C20.2038 7.98997 24.4088 9.55372 27.535 12.6812C29.3263 14.475 29.5 17.015 27.9587 19ZM27.9988 25C27.9988 25.2652 27.8934 25.5195 27.7059 25.7071C27.5183 25.8946 27.264 26 26.9988 26H5C4.73478 26 4.48043 25.8946 4.29289 25.7071C4.10536 25.5195 4 25.2652 4 25C4 24.7347 4.10536 24.4804 4.29289 24.2929C4.48043 24.1053 4.73478 24 5 24H27C27.2652 24 27.5196 24.1053 27.7071 24.2929C27.8946 24.4804 28 24.7347 28 25H27.9988Z" fill="black"/>
</svg>
