<svg width="32" height="32" viewBox="0 0 32 32" fill="none" xmlns="http://www.w3.org/2000/svg">
<path opacity="0.08" d="M28.75 19.625C28.6163 19.7946 28.4312 19.9163 28.2226 19.9719C28.014 20.0276 27.7929 20.0142 27.5925 19.9338L21.4475 17.75C21.2943 17.6887 21.1586 17.5904 21.0526 17.4639C20.9466 17.3374 20.8736 17.1866 20.84 17.025L20.0638 13.3075C20.0295 13.1396 19.9523 12.9834 19.8397 12.8542C19.7271 12.7249 19.5829 12.627 19.4213 12.57C17.1883 11.8047 14.7631 11.8104 12.5338 12.5863C12.3709 12.6446 12.2262 12.7445 12.1139 12.8761C12.0016 13.0077 11.9257 13.1663 11.8938 13.3363L11.1563 17.025C11.1226 17.1868 11.0493 17.3376 10.9431 17.4641C10.8369 17.5907 10.701 17.6889 10.5475 17.75L4.41125 19.9275C4.21102 20.0095 3.9896 20.0244 3.78021 19.9698C3.57083 19.9153 3.38478 19.7943 3.25 19.625C1.425 17.2713 1.5925 14.1463 3.75 11.985C10.3888 5.34629 21.5963 5.34629 28.235 11.985C30.4038 14.14 30.5713 17.265 28.75 19.625Z" fill="black"/>
<path d="M28.9487 11.2662C21.93 4.24997 10.07 4.24997 3.05124 11.2662C0.551244 13.7662 0.311244 17.4525 2.46499 20.23C2.6522 20.47 2.89172 20.6641 3.16531 20.7976C3.43891 20.931 3.73935 21.0002 4.04374 21C4.28964 21.0001 4.5334 20.9543 4.76249 20.865L10.8875 18.6937L10.9237 18.68C11.2329 18.5563 11.5063 18.3575 11.7191 18.1014C11.9319 17.8454 12.0774 17.5402 12.1425 17.2137L12.88 13.5237C14.8909 12.8286 17.0761 12.8238 19.09 13.51L19.8662 17.2287C19.9336 17.5517 20.0797 17.853 20.2917 18.1057C20.5037 18.3585 20.7749 18.5549 21.0812 18.6775L21.1175 18.6912L27.2425 20.865C27.6426 21.02 28.082 21.0421 28.4957 20.9282C28.9094 20.8144 29.2756 20.5704 29.54 20.2325C31.6887 17.4525 31.4475 13.7662 28.9487 11.2662ZM27.9587 19L27.9212 18.985L21.8187 16.8187L21.0425 13.1012C20.972 12.7648 20.8161 12.4523 20.5897 12.1937C20.3633 11.9351 20.0741 11.7392 19.75 11.625C17.3046 10.7877 14.6493 10.7934 12.2075 11.6412C11.8809 11.7579 11.5902 11.9576 11.364 12.2205C11.1379 12.4835 10.984 12.8008 10.9175 13.1412L10.18 16.83L4.07874 18.9825C4.06624 18.9825 4.05749 18.9987 4.04499 19.0037C2.50374 17.015 2.66999 14.475 4.46499 12.6812C7.58999 9.55622 11.7962 7.98997 16 7.98997C20.2037 7.98997 24.4087 9.55372 27.535 12.6812C29.3262 14.475 29.5 17.015 27.9587 19ZM27.9987 25C27.9987 25.2652 27.8934 25.5195 27.7059 25.7071C27.5183 25.8946 27.264 26 26.9987 26H4.99999C4.73478 26 4.48042 25.8946 4.29289 25.7071C4.10535 25.5195 3.99999 25.2652 3.99999 25C3.99999 24.7347 4.10535 24.4804 4.29289 24.2929C4.48042 24.1053 4.73478 24 4.99999 24H27C27.2652 24 27.5196 24.1053 27.7071 24.2929C27.8946 24.4804 28 24.7347 28 25H27.9987Z" fill="black"/>
</svg>
