<svg width="32" height="32" viewBox="0 0 32 32" fill="none" xmlns="http://www.w3.org/2000/svg">
<path d="M18.5512 4.61254C18.6541 4.22836 18.9053 3.90074 19.2496 3.70173C19.594 3.50272 20.0033 3.44861 20.3875 3.55129C22.3267 4.05649 24.0961 5.06986 25.5131 6.48689C26.9302 7.90391 27.9435 9.67329 28.4487 11.6125C28.5043 11.8043 28.521 12.0051 28.498 12.2034C28.4749 12.4017 28.4125 12.5933 28.3144 12.7672C28.2164 12.941 28.0846 13.0935 27.9268 13.2158C27.769 13.338 27.5884 13.4276 27.3956 13.4791C27.2028 13.5307 27.0016 13.5433 26.8039 13.5161C26.6061 13.489 26.4158 13.4226 26.244 13.3209C26.0723 13.2193 25.9225 13.0844 25.8035 12.9241C25.6846 12.7638 25.5988 12.5814 25.5512 12.3875C25.1787 10.9591 24.4321 9.65573 23.3882 8.61186C22.3443 7.56798 21.041 6.82131 19.6125 6.44879C19.2283 6.34595 18.9007 6.09473 18.7017 5.75039C18.5027 5.40605 18.4486 4.99677 18.5512 4.61254ZM29.4812 21.9475C29.2429 23.7621 28.3522 25.4278 26.9754 26.6336C25.5987 27.8394 23.8301 28.5029 22 28.5C11.7987 28.5 3.49999 20.2013 3.49999 10C3.49716 8.16992 4.1606 6.40134 5.36642 5.02461C6.57223 3.64788 8.23796 2.75716 10.0525 2.51879C10.5871 2.45383 11.1285 2.56281 11.5963 2.82961C12.0642 3.09641 12.4337 3.50682 12.65 4.00004L15.2887 9.89129C15.2916 9.89901 15.2949 9.90653 15.2987 9.91379C15.4609 10.2928 15.5268 10.7061 15.4906 11.1167C15.4544 11.5274 15.3172 11.9227 15.0912 12.2675C15.0591 12.3178 15.0236 12.3658 14.985 12.4113L12.6025 15.25C13.485 16.855 15.165 18.52 16.7887 19.4013L19.5775 17.0263C19.6223 16.9888 19.669 16.9538 19.7175 16.9213C20.0635 16.6891 20.4623 16.5475 20.8772 16.5095C21.2922 16.4715 21.7101 16.5383 22.0925 16.7038L22.115 16.7138L28 19.35C28.4931 19.5665 28.9034 19.936 29.1702 20.4038C29.4369 20.8717 29.546 21.4129 29.4812 21.9475ZM26.4425 21.94L21.1925 19.5888L18.3887 21.9725C18.3447 22.0107 18.2983 22.0462 18.25 22.0788C17.8896 22.3178 17.4734 22.4592 17.042 22.4892C16.6106 22.5192 16.1788 22.4368 15.7887 22.25C13.3537 21.075 10.9275 18.665 9.74999 16.25C9.56274 15.8618 9.47907 15.4317 9.50711 15.0015C9.53514 14.5713 9.67393 14.1557 9.90999 13.795C9.94258 13.7448 9.9785 13.6968 10.0175 13.6513L12.4125 10.8113L10.06 5.56129C9.04925 5.78403 8.14507 6.34571 7.49752 7.1531C6.84997 7.9605 6.49799 8.96505 6.49999 10C6.50496 14.1094 8.13958 18.049 11.0453 20.9547C13.9511 23.8605 17.8907 25.4951 22 25.5C23.0356 25.5029 24.0411 25.1513 24.8492 24.5037C25.6574 23.8561 26.2196 22.9514 26.4425 21.94ZM18.2037 11.1838C18.8172 11.3771 19.3749 11.7156 19.8297 12.1703C20.2845 12.6251 20.6229 13.1829 20.8162 13.7963C20.912 14.1006 21.1022 14.3665 21.3594 14.5554C21.6165 14.7442 21.9272 14.8461 22.2462 14.8463C22.3993 14.8461 22.5514 14.8229 22.6975 14.7775C23.0755 14.6579 23.3907 14.3936 23.5744 14.0422C23.758 13.6909 23.7951 13.2811 23.6775 12.9025C23.3392 11.8285 22.7468 10.8519 21.9506 10.0557C21.1543 9.25947 20.1778 8.66707 19.1037 8.32879C18.9147 8.26536 18.7149 8.24026 18.5161 8.25494C18.3173 8.26962 18.1234 8.32379 17.9457 8.4143C17.768 8.5048 17.6102 8.62981 17.4814 8.78202C17.3526 8.93423 17.2555 9.11059 17.1957 9.30079C17.1359 9.49098 17.1145 9.69119 17.133 9.88972C17.1515 10.0882 17.2093 10.2811 17.3032 10.457C17.397 10.6329 17.525 10.7883 17.6796 10.9142C17.8343 11.0401 18.0124 11.1338 18.2037 11.19V11.1838Z" fill="black"/>
</svg>
