<svg width="32" height="32" viewBox="0 0 32 32" fill="none" xmlns="http://www.w3.org/2000/svg">
<path d="M6.555 4.5001C6.4177 4.37266 6.23767 4.30122 6.05034 4.29983C5.86302 4.29843 5.68195 4.3672 5.54277 4.49258C5.40359 4.61797 5.31637 4.79091 5.29828 4.97736C5.28019 5.16382 5.33252 5.35029 5.445 5.5001L9.135 9.56385C6.92045 10.4411 4.90941 11.7634 3.22625 13.4489C0.819998 15.8564 0.587498 19.4051 2.66125 22.0739C2.89305 22.3696 3.21391 22.583 3.57635 22.6822C3.9388 22.7815 4.32357 22.7615 4.67375 22.6251L10.7987 20.4539L10.8262 20.4426C11.0969 20.3352 11.3364 20.1617 11.5226 19.9379C11.7089 19.714 11.8361 19.447 11.8925 19.1614L12.63 15.4726C12.638 15.4318 12.6559 15.3937 12.6824 15.3616C12.7088 15.3295 12.7428 15.3045 12.7812 15.2889C13.19 15.1474 13.6076 15.0326 14.0312 14.9451L25.445 27.5001C25.5789 27.6473 25.7659 27.7353 25.9646 27.7446C26.1634 27.754 26.3578 27.684 26.505 27.5501C26.6522 27.4162 26.7402 27.2292 26.7495 27.0305C26.7589 26.8317 26.6889 26.6373 26.555 26.4901L6.555 4.5001ZM12.2862 13.8751C12.0019 13.9772 11.7489 14.1512 11.5517 14.3801C11.3546 14.609 11.2201 14.885 11.1612 15.1814L10.4212 18.8751C10.4133 18.9142 10.3961 18.9508 10.3711 18.9819C10.3461 19.013 10.314 19.0377 10.2775 19.0539L4.16 21.2214L4.1325 21.2314C4.08327 21.2512 4.02899 21.2549 3.97752 21.2419C3.92606 21.2288 3.88008 21.1998 3.84625 21.1589C2.22125 19.0676 2.40125 16.3951 4.2875 14.5101C5.9615 12.8327 7.98745 11.5484 10.2187 10.7501L12.8862 13.6851C12.6837 13.7501 12.4837 13.8089 12.2862 13.8751ZM29.3387 22.0764C29.1069 22.3721 28.7861 22.5855 28.4236 22.6847C28.0612 22.784 27.6764 22.764 27.3262 22.6276L26.1662 22.2164C26.0712 22.1853 25.9833 22.1355 25.9077 22.07C25.8322 22.0045 25.7705 21.9245 25.7263 21.8347C25.6821 21.745 25.6564 21.6474 25.6505 21.5475C25.6446 21.4477 25.6588 21.3477 25.6921 21.2534C25.7254 21.1591 25.7773 21.0724 25.8447 20.9985C25.912 20.9245 25.9935 20.8648 26.0842 20.8228C26.175 20.7808 26.2732 20.7574 26.3732 20.7539C26.4732 20.7504 26.5728 20.767 26.6662 20.8026L27.8387 21.2189L27.8662 21.2289C27.9155 21.2487 27.9698 21.2524 28.0212 21.2394C28.0727 21.2263 28.1187 21.1973 28.1525 21.1564C29.7775 19.0651 29.5975 16.3926 27.7112 14.5076C24.455 11.2501 19.8575 9.5251 15.1037 9.77385C15.0053 9.77903 14.9067 9.76475 14.8137 9.73183C14.7208 9.69892 14.6352 9.64801 14.5619 9.58203C14.4138 9.44876 14.3248 9.26214 14.3144 9.06323C14.3039 8.86432 14.3729 8.6694 14.5062 8.52137C14.6395 8.37333 14.8261 8.2843 15.025 8.27385C20.205 8.0051 25.215 9.8901 28.775 13.4476C31.18 15.8564 31.4125 19.4051 29.3387 22.0789V22.0764Z" fill="black"/>
</svg>
