<svg width="32" height="32" viewBox="0 0 32 32" fill="none" xmlns="http://www.w3.org/2000/svg">
<path d="M26.7387 26.3276C26.8289 26.4244 26.899 26.5382 26.9448 26.6624C26.9907 26.7865 27.0115 26.9185 27.0059 27.0507C27.0004 27.1829 26.9687 27.3127 26.9126 27.4326C26.8566 27.5525 26.7773 27.66 26.6794 27.749C26.5814 27.838 26.4668 27.9067 26.3421 27.9511C26.2175 27.9954 26.0852 28.0146 25.9531 28.0075C25.8209 28.0004 25.6915 27.9671 25.5723 27.9096C25.4532 27.8522 25.3466 27.7716 25.2587 27.6726L13.945 15.2263C13.5828 15.3053 13.2255 15.4055 12.875 15.5263L12.1375 19.2151C12.0723 19.5414 11.9266 19.8463 11.7138 20.1021C11.501 20.3579 11.2277 20.5566 10.9187 20.6801L10.8825 20.6938L4.75749 22.8651C4.35723 23.0199 3.91776 23.0419 3.50403 22.9278C3.09031 22.8137 2.72426 22.5695 2.45999 22.2313C0.306243 19.4551 0.547493 15.7713 3.04624 13.2726C4.66882 11.6481 6.59265 10.3556 8.70999 9.46758L5.26124 5.67258C5.17108 5.57573 5.10103 5.46194 5.05516 5.33781C5.0093 5.21368 4.98853 5.08168 4.99405 4.94947C4.99957 4.81725 5.03129 4.68745 5.08735 4.56758C5.14341 4.44771 5.2227 4.34016 5.32063 4.25116C5.41856 4.16216 5.53319 4.09348 5.65785 4.04911C5.78252 4.00473 5.91476 3.98555 6.0469 3.99265C6.17904 3.99976 6.30845 4.03303 6.42764 4.09052C6.54683 4.14801 6.65342 4.22859 6.74124 4.32758L26.7387 26.3276ZM28.9487 13.2726C25.3412 9.66383 20.2612 7.75258 15.0125 8.02258C14.8235 8.03252 14.6412 8.09588 14.4868 8.20531C14.3324 8.31474 14.2122 8.46574 14.1402 8.64077C14.0682 8.8158 14.0473 9.00767 14.08 9.19408C14.1127 9.38049 14.1977 9.55379 14.325 9.69383L25.6762 22.1813C25.7869 22.3033 25.9261 22.3961 26.0812 22.4513L27.2375 22.8613C27.6378 23.0162 28.0772 23.0382 28.491 22.9241C28.9047 22.8099 29.2707 22.5657 29.535 22.2276C31.6887 19.4551 31.4475 15.7713 28.9487 13.2726Z" fill="black"/>
</svg>
