<svg width="32" height="32" viewBox="0 0 32 32" fill="none" xmlns="http://www.w3.org/2000/svg">
<path d="M29.5 21.5C29.5 22.8261 28.9732 24.0979 28.0355 25.0355C27.0979 25.9732 25.8261 26.5 24.5 26.5C23.1739 26.5 21.9021 25.9732 20.9645 25.0355C20.0268 24.0979 19.5 22.8261 19.5 21.5V9.5H12.5V25C12.5 25.3978 12.342 25.7794 12.0607 26.0607C11.7794 26.342 11.3978 26.5 11 26.5C10.6022 26.5 10.2206 26.342 9.93934 26.0607C9.65804 25.7794 9.5 25.3978 9.5 25V9.5H9C7.80653 9.5 6.66193 9.97411 5.81802 10.818C4.97411 11.6619 4.5 12.8065 4.5 14C4.5 14.3978 4.34196 14.7794 4.06066 15.0607C3.77936 15.342 3.39782 15.5 3 15.5C2.60218 15.5 2.22064 15.342 1.93934 15.0607C1.65804 14.7794 1.5 14.3978 1.5 14C1.50232 12.0116 2.29324 10.1053 3.69926 8.69926C5.10528 7.29324 7.01159 6.50232 9 6.5H28C28.3978 6.5 28.7794 6.65804 29.0607 6.93934C29.342 7.22064 29.5 7.60218 29.5 8C29.5 8.39782 29.342 8.77936 29.0607 9.06066C28.7794 9.34196 28.3978 9.5 28 9.5H22.5V21.5C22.5 22.0304 22.7107 22.5391 23.0858 22.9142C23.4609 23.2893 23.9696 23.5 24.5 23.5C25.0304 23.5 25.5391 23.2893 25.9142 22.9142C26.2893 22.5391 26.5 22.0304 26.5 21.5C26.5 21.1022 26.658 20.7206 26.9393 20.4393C27.2206 20.158 27.6022 20 28 20C28.3978 20 28.7794 20.158 29.0607 20.4393C29.342 20.7206 29.5 21.1022 29.5 21.5Z" fill="black"/>
</svg>
