<svg width="32" height="32" viewBox="0 0 32 32" fill="none" xmlns="http://www.w3.org/2000/svg">
<path d="M27 5.5H5C4.33696 5.5 3.70107 5.76339 3.23223 6.23223C2.76339 6.70107 2.5 7.33696 2.5 8V24C2.5 24.663 2.76339 25.2989 3.23223 25.7678C3.70107 26.2366 4.33696 26.5 5 26.5H27C27.663 26.5 28.2989 26.2366 28.7678 25.7678C29.2366 25.2989 29.5 24.663 29.5 24V8C29.5 7.33696 29.2366 6.70107 28.7678 6.23223C28.2989 5.76339 27.663 5.5 27 5.5ZM5.5 8.5H26.5V14.5H18C17.337 14.5 16.7011 14.7634 16.2322 15.2322C15.7634 15.7011 15.5 16.337 15.5 17V23.5H5.5V8.5ZM18.5 23.5V17.5H26.5V23.5H18.5Z" fill="black"/>
</svg>
