<svg width="32" height="32" viewBox="0 0 32 32" fill="none" xmlns="http://www.w3.org/2000/svg">
<path d="M28.25 11.01C28.2 10.885 28.1475 10.76 28.0938 10.635C27.2873 8.77505 25.9821 7.17438 24.3225 6.01001H27C27.2652 6.01001 27.5196 5.90465 27.7071 5.71712C27.8946 5.52958 28 5.27523 28 5.01001C28 4.74479 27.8946 4.49044 27.7071 4.3029C27.5196 4.11537 27.2652 4.01001 27 4.01001H14C11.2351 4.01352 8.57268 5.0567 6.54135 6.93241C4.51003 8.80812 3.2584 11.3792 3.035 14.135C2.1712 14.3497 1.4037 14.8464 0.853985 15.5465C0.304271 16.2465 0.0037519 17.1099 0 18C0 18.2652 0.105357 18.5196 0.292893 18.7071C0.48043 18.8947 0.734784 19 1 19C1.26522 19 1.51957 18.8947 1.70711 18.7071C1.89464 18.5196 2 18.2652 2 18C2.00023 17.6354 2.10016 17.2777 2.28897 16.9657C2.47778 16.6538 2.7483 16.3993 3.07125 16.23C3.32016 18.4736 4.25568 20.5856 5.75 22.2775L7.32 26.6725C7.4588 27.0613 7.71448 27.3975 8.05197 27.6352C8.38946 27.8729 8.79222 28.0003 9.205 28H10.795C11.2076 28.0001 11.6101 27.8725 11.9473 27.6348C12.2845 27.3972 12.54 27.0611 12.6788 26.6725L12.9187 26H20.0812L20.3213 26.6725C20.46 27.0611 20.7155 27.3972 21.0527 27.6348C21.3899 27.8725 21.7924 28.0001 22.205 28H23.795C24.2076 28.0001 24.6101 27.8725 24.9473 27.6348C25.2845 27.3972 25.54 27.0611 25.6787 26.6725L27.705 21H28C28.7956 21 29.5587 20.6839 30.1213 20.1213C30.6839 19.5587 31 18.7957 31 18V14C31.0001 13.2476 30.7175 12.5225 30.2081 11.9687C29.6987 11.4149 28.9998 11.0727 28.25 11.01ZM19 9.00001H14C13.7348 9.00001 13.4804 8.89465 13.2929 8.70712C13.1054 8.51958 13 8.26523 13 8.00001C13 7.73479 13.1054 7.48044 13.2929 7.2929C13.4804 7.10537 13.7348 7.00001 14 7.00001H19C19.2652 7.00001 19.5196 7.10537 19.7071 7.2929C19.8946 7.48044 20 7.73479 20 8.00001C20 8.26523 19.8946 8.51958 19.7071 8.70712C19.5196 8.89465 19.2652 9.00001 19 9.00001ZM22.5 16C22.2033 16 21.9133 15.912 21.6666 15.7472C21.42 15.5824 21.2277 15.3481 21.1142 15.074C21.0007 14.7999 20.9709 14.4983 21.0288 14.2074C21.0867 13.9164 21.2296 13.6491 21.4393 13.4393C21.6491 13.2296 21.9164 13.0867 22.2074 13.0288C22.4983 12.971 22.7999 13.0007 23.074 13.1142C23.3481 13.2277 23.5824 13.42 23.7472 13.6667C23.912 13.9133 24 14.2033 24 14.5C24 14.8978 23.842 15.2794 23.5607 15.5607C23.2794 15.842 22.8978 16 22.5 16Z" fill="black"/>
</svg>
