<svg width="32" height="32" viewBox="0 0 32 32" fill="none" xmlns="http://www.w3.org/2000/svg">
<path d="M25 15C25 15.3956 24.8827 15.7822 24.6629 16.1111C24.4432 16.44 24.1308 16.6964 23.7654 16.8478C23.3999 16.9991 22.9978 17.0387 22.6098 16.9616C22.2219 16.8844 21.8655 16.6939 21.5858 16.4142C21.3061 16.1345 21.1156 15.7781 21.0384 15.3902C20.9613 15.0022 21.0009 14.6001 21.1522 14.2346C21.3036 13.8692 21.56 13.5568 21.8889 13.3371C22.2178 13.1173 22.6044 13 23 13C23.5304 13 24.0391 13.2107 24.4142 13.5858C24.7893 13.9609 25 14.4696 25 15ZM19.5 8H14.5C14.1022 8 13.7206 8.15804 13.4393 8.43934C13.158 8.72064 13 9.10218 13 9.5C13 9.89782 13.158 10.2794 13.4393 10.5607C13.7206 10.842 14.1022 11 14.5 11H19.5C19.8978 11 20.2794 10.842 20.5607 10.5607C20.842 10.2794 21 9.89782 21 9.5C21 9.10218 20.842 8.72064 20.5607 8.43934C20.2794 8.15804 19.8978 8 19.5 8ZM32 14V18C32.0001 18.9184 31.6393 19.8 30.9953 20.4548C30.3513 21.1095 29.4758 21.4849 28.5575 21.5L26.65 26.8412C26.4765 27.3269 26.157 27.7469 25.7354 28.0439C25.3138 28.3408 24.8107 28.5002 24.295 28.5H22.705C22.1893 28.5002 21.6862 28.3408 21.2646 28.0439C20.843 27.7469 20.5235 27.3269 20.35 26.8412L20.225 26.5H13.7712L13.6462 26.8412C13.4729 27.3263 13.1541 27.7459 12.7332 28.0428C12.3123 28.3397 11.81 28.4994 11.295 28.5H9.705C9.18931 28.5002 8.68619 28.3408 8.26459 28.0439C7.84298 27.7469 7.52353 27.3269 7.35 26.8412L5.8125 22.535C4.49832 21.0224 3.60397 19.1914 3.21875 17.225C3.07602 17.4583 3.00034 17.7265 3 18C3 18.3978 2.84196 18.7794 2.56066 19.0607C2.27936 19.342 1.89782 19.5 1.5 19.5C1.10218 19.5 0.720644 19.342 0.43934 19.0607C0.158035 18.7794 0 18.3978 0 18C0.00141908 17.0572 0.298357 16.1385 0.849048 15.3733C1.39974 14.608 2.17647 14.0346 3.07 13.7338C3.38513 10.9216 4.72457 8.32398 6.83276 6.43643C8.94095 4.54889 11.6703 3.50359 14.5 3.5H27.5C27.8978 3.5 28.2794 3.65804 28.5607 3.93934C28.842 4.22064 29 4.60218 29 5C29 5.39782 28.842 5.77936 28.5607 6.06066C28.2794 6.34196 27.8978 6.5 27.5 6.5H26.25C27.4545 7.59661 28.4123 8.93661 29.06 10.4312L29.1125 10.5562C29.9209 10.7012 30.6528 11.1253 31.1805 11.7547C31.7082 12.384 31.9982 13.1787 32 14ZM29 14C29 13.8674 28.9473 13.7402 28.8536 13.6464C28.7598 13.5527 28.6326 13.5 28.5 13.5H28.0425C27.7231 13.5 27.412 13.398 27.1546 13.2089C26.8972 13.0199 26.7068 12.7535 26.6112 12.4487C26.0683 10.7231 24.9888 9.21565 23.53 8.14576C22.0712 7.07587 20.3091 6.49933 18.5 6.5H14.5C12.8504 6.49988 11.2364 6.97977 9.8548 7.88116C8.47322 8.78254 7.38379 10.0665 6.71936 11.5764C6.05492 13.0862 5.84419 14.7568 6.11288 16.3844C6.38156 18.012 7.11804 19.5263 8.2325 20.7425C8.36773 20.8893 8.4719 21.0619 8.53875 21.25L10.0575 25.5H10.9425L11.3013 24.5C11.4045 24.2078 11.5958 23.9548 11.8487 23.7757C12.1017 23.5967 12.4039 23.5004 12.7137 23.5H21.2862C21.5961 23.5004 21.8983 23.5967 22.1513 23.7757C22.4042 23.9548 22.5954 24.2078 22.6987 24.5L23.0575 25.5H23.9425L26.0875 19.5C26.1908 19.2078 26.3821 18.9548 26.635 18.7757C26.8879 18.5967 27.1901 18.5004 27.5 18.5H28.5C28.6326 18.5 28.7598 18.4473 28.8536 18.3536C28.9473 18.2598 29 18.1326 29 18V14Z" fill="black"/>
</svg>
