<svg width="32" height="32" viewBox="0 0 32 32" fill="none" xmlns="http://www.w3.org/2000/svg">
<path d="M27.5 14C27.5 16.95 26.4638 19.6537 24.5813 21.61C22.815 23.4462 20.4163 24.5 18 24.5C16.0688 24.5 14.6525 23.9775 13.6388 23.3362L12.46 28.3437C12.4165 28.5372 12.3352 28.7201 12.2206 28.8819C12.106 29.0437 11.9604 29.1812 11.7924 29.2864C11.6243 29.3916 11.437 29.4624 11.2414 29.4948C11.0458 29.5272 10.8457 29.5205 10.6527 29.475C10.4597 29.4296 10.2776 29.3463 10.117 29.2301C9.9564 29.1138 9.82042 28.9669 9.71695 28.7978C9.61347 28.6286 9.54456 28.4407 9.51418 28.2447C9.48381 28.0488 9.49259 27.8488 9.54 27.6562L13.54 10.6562C13.5835 10.4628 13.6648 10.2799 13.7794 10.1181C13.894 9.95627 14.0396 9.81879 14.2077 9.71359C14.3757 9.60839 14.563 9.53755 14.7586 9.50518C14.9542 9.4728 15.1543 9.47953 15.3473 9.52497C15.5403 9.57041 15.7224 9.65366 15.883 9.76991C16.0436 9.88616 16.1796 10.0331 16.2831 10.2022C16.3865 10.3714 16.4554 10.5593 16.4858 10.7553C16.5162 10.9512 16.5074 11.1512 16.46 11.3437L14.4038 20.085C14.84 20.6075 15.895 21.5 18 21.5C21.195 21.5 24.5 18.6937 24.5 14C24.4993 12.6966 24.1989 11.4108 23.622 10.2421C23.0451 9.07329 22.2071 8.05286 21.1729 7.25965C20.1386 6.46644 18.9358 5.9217 17.6574 5.66755C16.3791 5.4134 15.0594 5.45664 13.8004 5.79393C12.5414 6.13122 11.3768 6.75353 10.3967 7.61275C9.41661 8.47196 8.64723 9.54506 8.14806 10.7491C7.64889 11.9531 7.4333 13.2558 7.51795 14.5564C7.6026 15.8571 7.98523 17.1208 8.63625 18.25C8.82 18.5933 8.86305 18.9946 8.75629 19.3691C8.64952 19.7436 8.40132 20.0618 8.06416 20.2566C7.727 20.4514 7.32729 20.5075 6.94955 20.4129C6.57181 20.3184 6.24564 20.0807 6.04 19.75C5.15827 18.2224 4.63975 16.5124 4.52455 14.7523C4.40936 12.9922 4.70057 11.2292 5.37568 9.59966C6.05078 7.97013 7.09167 6.51772 8.41784 5.35478C9.74402 4.19185 11.3199 3.34955 13.0237 2.89305C14.7274 2.43655 16.5133 2.37807 18.2433 2.72214C19.9733 3.06622 21.6009 3.80362 23.0003 4.87731C24.3997 5.95101 25.5334 7.33221 26.3136 8.9141C27.0939 10.496 27.4998 12.2361 27.5 14Z" fill="black"/>
</svg>
