<svg width="32" height="32" viewBox="0 0 32 32" fill="none" xmlns="http://www.w3.org/2000/svg">
<path d="M28.5299 27.4699L22.1724 21.1124C22.4455 21.0475 22.7146 20.9674 22.9787 20.8724C24.7855 20.2147 26.2569 18.8661 27.0694 17.1235C27.8819 15.3808 27.9689 13.3867 27.3112 11.5799C27.243 11.3932 27.1035 11.2411 26.9232 11.1572C26.743 11.0733 26.5368 11.0644 26.3499 11.1324L20.1874 13.3749C20.3513 13.1151 20.4991 12.8454 20.6299 12.5674C21.2353 11.268 21.4419 9.8182 21.2235 8.40136C21.0052 6.98452 20.3717 5.66422 19.4031 4.60735C18.4345 3.55047 17.1743 2.80447 15.7819 2.46363C14.3894 2.12279 12.9272 2.20242 11.5799 2.69244C11.3932 2.76063 11.2411 2.90018 11.1572 3.08043C11.0733 3.26068 11.0644 3.46688 11.1324 3.65369L13.3749 9.81494C13.115 9.65194 12.8453 9.505 12.5674 9.37494C11.268 8.76954 9.8182 8.56297 8.40136 8.78134C6.98452 8.99972 5.66422 9.63323 4.60735 10.6018C3.55047 11.5704 2.80447 12.8305 2.46363 14.223C2.12279 15.6155 2.20242 17.0777 2.69244 18.4249C2.76056 18.6115 2.89992 18.7635 3.07994 18.8474C3.16925 18.8891 3.26588 18.9127 3.36433 18.917C3.46278 18.9213 3.56111 18.9062 3.65369 18.8724L9.81494 16.6249C9.65133 16.8854 9.50437 17.1559 9.37494 17.4349C8.86191 18.5394 8.63503 19.7551 8.71519 20.9702C8.79535 22.1853 9.17998 23.3607 9.83365 24.3882C10.4873 25.4156 11.389 26.2621 12.4557 26.8495C13.5223 27.437 14.7197 27.7467 15.9374 27.7499C16.7851 27.7486 17.6261 27.5993 18.4224 27.3087C18.6095 27.2415 18.7623 27.1027 18.8471 26.923C18.932 26.7432 18.942 26.5371 18.8749 26.3499L16.6249 20.1874C17.7121 20.8766 18.9635 21.2628 20.2499 21.3062L27.4737 28.5299C27.6159 28.6624 27.8039 28.7345 27.9982 28.7311C28.1925 28.7277 28.3779 28.649 28.5153 28.5116C28.6527 28.3742 28.7314 28.1888 28.7349 27.9945C28.7383 27.8002 28.6662 27.6121 28.5337 27.4699H28.5299ZM12.8149 3.88869C14.1773 3.58563 15.6035 3.78844 16.8274 4.45932C18.0513 5.13019 18.9894 6.22333 19.4667 7.53486C19.9441 8.84639 19.9281 10.2868 19.4218 11.5874C18.9155 12.888 17.9534 13.9601 16.7149 14.6037L12.8149 3.88869ZM3.88869 17.1874C3.58563 15.825 3.78844 14.3989 4.45932 13.175C5.13019 11.9511 6.22333 11.013 7.53486 10.5357C8.84639 10.0583 10.2868 10.0743 11.5874 10.5806C12.888 11.0869 13.9601 12.049 14.6037 13.2874L3.88869 17.1874ZM17.1874 26.1124C15.825 26.4155 14.3989 26.2127 13.175 25.5418C11.9511 24.8709 11.013 23.7778 10.5357 22.4663C10.0583 21.1547 10.0743 19.7144 10.5806 18.4137C11.0869 17.1131 12.049 16.041 13.2874 15.3974L17.1874 26.1124ZM20.5562 19.8112C19.4944 19.8208 18.4507 19.5368 17.5403 18.9903C16.6299 18.4439 15.8883 17.6565 15.3974 16.7149L26.1124 12.8149C26.2971 13.6503 26.2934 14.5162 26.1014 15.3499C25.9094 16.1836 25.5341 16.964 25.0026 17.6344C24.4712 18.3048 23.7971 18.8484 23.0292 19.2256C22.2614 19.6028 21.4191 19.8041 20.5637 19.8149L20.5562 19.8112Z" fill="black"/>
</svg>
