<svg width="32" height="32" viewBox="0 0 32 32" fill="none" xmlns="http://www.w3.org/2000/svg">
<path d="M29.0613 26.94L23.5613 21.44C25.4639 20.6498 26.9882 19.1561 27.817 17.27C28.6457 15.3839 28.7148 13.2508 28.01 11.315C27.8739 10.9412 27.5949 10.6368 27.2344 10.4688C26.8739 10.3007 26.4613 10.2827 26.0875 10.4187L21.6363 12.0437C22.113 10.6175 22.178 9.08576 21.824 7.62423C21.4699 6.16269 20.7111 4.83055 19.6345 3.78059C18.5579 2.73063 17.2072 2.00538 15.7372 1.688C14.2673 1.37063 12.7377 1.474 11.3238 1.98625C10.95 2.12236 10.6456 2.40137 10.4776 2.7619C10.3095 3.12243 10.2915 3.53496 10.4276 3.90875L12.0526 8.36C10.6254 7.88157 9.09225 7.81547 7.62924 8.1693C6.16622 8.52312 4.8327 9.2825 3.7819 10.3602C2.73109 11.4379 2.00564 12.7902 1.6889 14.2617C1.37216 15.7332 1.47697 17.2642 1.9913 18.6787C2.12742 19.0525 2.40642 19.3569 2.76695 19.525C3.12748 19.6931 3.54001 19.7111 3.9138 19.575L8.36505 17.95C7.88345 19.3774 7.81505 20.9118 8.16773 22.3764C8.52042 23.8409 9.27982 25.176 10.3584 26.2277C11.437 27.2793 12.7908 28.0048 14.2638 28.3203C15.7368 28.6359 17.269 28.5288 18.6838 28.0112C19.0576 27.8751 19.362 27.5961 19.53 27.2356C19.6981 26.8751 19.7161 26.4625 19.58 26.0887L17.9613 21.64C18.5962 21.8539 19.2556 21.9866 19.9238 22.035L26.945 29.0562C27.2268 29.338 27.609 29.4963 28.0075 29.4963C28.4061 29.4963 28.7883 29.338 29.07 29.0562C29.3518 28.7745 29.5102 28.3923 29.5102 27.9937C29.5102 27.5952 29.3518 27.213 29.07 26.9312L29.0613 26.94ZM16.1726 4.9725C16.9515 5.33568 17.6236 5.89352 18.1242 6.59216C18.6247 7.2908 18.9367 8.10667 19.03 8.96102C19.1234 9.81536 18.9949 10.6794 18.6571 11.4696C18.3192 12.2598 17.7834 12.9497 17.1013 13.4725L13.8376 4.50625C14.6421 4.47042 15.4434 4.63041 16.1726 4.9725ZM4.5063 16.165C4.45742 15.1008 4.74973 14.0488 5.34063 13.1623C5.93152 12.2759 6.7901 11.6013 7.79122 11.237C8.79233 10.8727 9.88363 10.8377 10.906 11.137C11.9285 11.4364 12.8285 12.0545 13.4751 12.9012L4.5063 16.165ZM13.8301 25.03C13.0511 24.6668 12.379 24.109 11.8784 23.4103C11.3779 22.7117 11.0659 21.8958 10.9726 21.0415C10.8792 20.1871 11.0077 19.3231 11.3455 18.5329C11.6834 17.7426 12.2192 17.0528 12.9013 16.53L16.1651 25.5C15.3602 25.5346 14.5589 25.3733 13.8301 25.03ZM18.3863 18.5912C17.6553 18.2522 17.0175 17.7409 16.5276 17.1012L25.5 13.8375C25.5377 14.6961 25.3535 15.55 24.965 16.3166C24.5766 17.0833 23.9971 17.7369 23.2824 18.2143C22.5678 18.6917 21.7421 18.9769 20.8852 19.0423C20.0282 19.1076 19.1688 18.951 18.39 18.5875L18.3863 18.5912Z" fill="black"/>
</svg>
