<svg width="32" height="32" viewBox="0 0 32 32" fill="none" xmlns="http://www.w3.org/2000/svg">
<path d="M29.9426 7.87495C29.881 7.61896 29.7691 7.37775 29.6136 7.16532C29.458 6.95288 29.2618 6.77346 29.0363 6.63745C25.1041 4.2587 20.5959 3.00122 16.0001 3.00122C11.4043 3.00122 6.89612 4.2587 2.96385 6.63745C2.73904 6.77379 2.54332 6.95312 2.38789 7.16517C2.23246 7.37723 2.12037 7.61785 2.05802 7.87327C1.99567 8.12869 1.9843 8.3939 2.02455 8.65372C2.0648 8.91353 2.15589 9.16287 2.2926 9.38745L14.2926 29.0462C14.4709 29.3401 14.7219 29.5831 15.0214 29.7517C15.3209 29.9204 15.6589 30.0089 16.0026 30.0089C16.3463 30.0089 16.6843 29.9204 16.9838 29.7517C17.2833 29.5831 17.5343 29.3401 17.7126 29.0462L29.7126 9.38745C29.8495 9.16325 29.9403 8.91403 29.9798 8.65434C30.0193 8.39465 30.0066 8.1297 29.9426 7.87495ZM23.0551 16.4412C21.9436 15.9367 20.686 15.8562 19.5192 16.2149C18.3525 16.5736 17.3573 17.3467 16.7212 18.3885C16.0851 19.4303 15.852 20.6688 16.066 21.8705C16.2799 23.0722 16.926 24.1542 17.8826 24.9125L16.0001 28L12.0626 21.5537C12.709 21.2624 13.2861 20.8369 13.7556 20.3055C14.225 19.7742 14.5761 19.149 14.7855 18.4716C14.9948 17.7942 15.0577 17.0799 14.97 16.3763C14.8822 15.6727 14.6458 14.9959 14.2765 14.3906C13.9071 13.7854 13.4133 13.2656 12.8277 12.8658C12.2421 12.466 11.5782 12.1953 10.88 12.0717C10.1818 11.9481 9.4653 11.9744 8.77805 12.1489C8.09081 12.3234 7.44853 12.642 6.89385 13.0837L6.1001 11.7825C9.08139 9.96261 12.5066 8.9998 15.9995 8.9998C19.4923 8.9998 22.9176 9.96261 25.8988 11.7825L23.0551 16.4412Z" fill="black"/>
</svg>
