<svg width="32" height="32" viewBox="0 0 32 32" fill="none" xmlns="http://www.w3.org/2000/svg">
<path opacity="0.08" d="M27.25 11.4701L23.3913 17.8001C22.9453 17.4628 22.4337 17.2226 21.8893 17.0953C21.3448 16.9679 20.7797 16.956 20.2305 17.0605C19.6812 17.165 19.1599 17.3835 18.7003 17.7019C18.2407 18.0203 17.8529 18.4315 17.562 18.9089C17.2711 19.3864 17.0835 19.9196 17.0114 20.4741C16.9392 21.0285 16.9842 21.592 17.1432 22.128C17.3023 22.664 17.5719 23.1607 17.9348 23.5861C18.2977 24.0115 18.7457 24.3561 19.25 24.5976L16.8587 28.5201C16.7698 28.6676 16.6442 28.7896 16.4942 28.8743C16.3441 28.959 16.1748 29.0035 16.0025 29.0035C15.8302 29.0035 15.6609 28.959 15.5109 28.8743C15.3608 28.7896 15.2352 28.6676 15.1462 28.5201L10.5375 20.9638C11.1972 20.8762 11.8246 20.6254 12.3628 20.234C12.9011 19.8427 13.3332 19.3233 13.6201 18.7228C13.9069 18.1223 14.0394 17.4598 14.0055 16.7951C13.9717 16.1305 13.7725 15.4849 13.4261 14.9166C13.0798 14.3484 12.5971 13.8756 12.0218 13.541C11.4466 13.2064 10.7969 13.0206 10.1318 13.0005C9.46659 12.9804 8.8069 13.1265 8.21246 13.4257C7.61803 13.7249 7.10763 14.1676 6.7275 14.7138L4.75 11.4701C8.06613 9.20925 11.9865 8 16 8C20.0135 8 23.9339 9.20925 27.25 11.4701Z" fill="black"/>
<path d="M29.9426 7.87495C29.881 7.61896 29.7691 7.37775 29.6136 7.16532C29.458 6.95288 29.2618 6.77346 29.0363 6.63745C25.1041 4.2587 20.5959 3.00122 16.0001 3.00122C11.4043 3.00122 6.89612 4.2587 2.96385 6.63745C2.73904 6.77379 2.54332 6.95312 2.38789 7.16517C2.23246 7.37723 2.12037 7.61785 2.05802 7.87327C1.99567 8.12869 1.9843 8.3939 2.02455 8.65372C2.0648 8.91353 2.15589 9.16287 2.2926 9.38745L14.2926 29.0462C14.4709 29.3401 14.7219 29.5831 15.0214 29.7517C15.3209 29.9204 15.6589 30.0089 16.0026 30.0089C16.3463 30.0089 16.6843 29.9204 16.9838 29.7517C17.2833 29.5831 17.5343 29.3401 17.7126 29.0462L24.2501 18.3162L29.7013 9.38495C29.8398 9.16187 29.9324 8.91347 29.9738 8.65421C30.0153 8.39496 30.0046 8.13006 29.9426 7.87495ZM7.94885 14.8125C8.27377 14.5062 8.66294 14.2764 9.08799 14.1397C9.51303 14.0031 9.96321 13.963 10.4057 14.0224C10.8482 14.0818 11.2719 14.2393 11.6458 14.4833C12.0197 14.7273 12.3344 15.0516 12.567 15.4327C12.7997 15.8138 12.9443 16.242 12.9903 16.6861C13.0364 17.1302 12.9828 17.579 12.8334 17.9997C12.684 18.4204 12.4425 18.8025 12.1266 19.1181C11.8108 19.4336 11.4285 19.6747 11.0076 19.8237L7.94885 14.8125ZM18.9388 23.1812C18.4381 22.709 18.1149 22.079 18.0235 21.3967C17.9322 20.7145 18.0782 20.0217 18.437 19.4343C18.7959 18.847 19.3458 18.4009 19.9946 18.1709C20.6433 17.941 21.3514 17.9411 22.0001 18.1712L18.9388 23.1812ZM23.0551 16.44C21.9436 15.9355 20.686 15.855 19.5192 16.2137C18.3525 16.5724 17.3573 17.3455 16.7212 18.3873C16.0851 19.429 15.852 20.6675 16.066 21.8693C16.2799 23.071 16.926 24.153 17.8826 24.9112L16.0001 28L12.0626 21.5537C12.709 21.2624 13.2861 20.8369 13.7556 20.3055C14.225 19.7742 14.5761 19.149 14.7855 18.4716C14.9948 17.7942 15.0577 17.0799 14.97 16.3763C14.8822 15.6727 14.6458 14.9959 14.2765 14.3906C13.9071 13.7854 13.4133 13.2656 12.8277 12.8658C12.2421 12.466 11.5782 12.1953 10.88 12.0717C10.1818 11.9481 9.4653 11.9744 8.77805 12.1489C8.09081 12.3234 7.44853 12.642 6.89385 13.0837L6.1001 11.7825C9.08139 9.96261 12.5066 8.9998 15.9995 8.9998C19.4923 8.9998 22.9176 9.96261 25.8988 11.7825L23.0551 16.44ZM26.9426 10.0737C23.6467 8.0635 19.8607 7.00005 16.0001 7.00005C12.1395 7.00005 8.35353 8.0635 5.0576 10.0737L4.0001 8.3462C7.62039 6.15821 11.77 5.00168 16.0001 5.00168C20.2302 5.00168 24.3798 6.15821 28.0001 8.3462L26.9426 10.0737Z" fill="black"/>
</svg>
