<svg width="32" height="32" viewBox="0 0 32 32" fill="none" xmlns="http://www.w3.org/2000/svg">
<path d="M30.4288 7.75622C30.3516 7.43626 30.2118 7.13475 30.0174 6.86914C29.823 6.60353 29.5779 6.37906 29.2963 6.20872C25.2856 3.78255 20.6875 2.5 16 2.5C11.3126 2.5 6.71449 3.78255 2.70378 6.20872C2.42324 6.37927 2.17903 6.60341 1.98511 6.86834C1.7912 7.13326 1.65136 7.43379 1.57359 7.75276C1.49582 8.07174 1.48164 8.4029 1.53186 8.72735C1.58208 9.05181 1.69572 9.36319 1.86628 9.64372L13.8663 29.3012C14.0891 29.6686 14.4029 29.9723 14.7773 30.1831C15.1517 30.3939 15.5741 30.5047 16.0038 30.5047C16.4334 30.5047 16.8559 30.3939 17.2303 30.1831C17.6047 29.9723 17.9184 29.6686 18.1413 29.3012L30.1413 9.64372C30.3117 9.36376 30.4248 9.05278 30.4742 8.72878C30.5235 8.40478 30.5081 8.07422 30.4288 7.75622ZM10.875 18.6475L8.39128 14.5775C8.5902 14.5265 8.79468 14.5005 9.00003 14.5C9.48 14.501 9.94953 14.6402 10.3525 14.9009C10.7555 15.1616 11.075 15.5328 11.2727 15.9701C11.4704 16.4075 11.5381 16.8925 11.4675 17.3673C11.397 17.842 11.1913 18.2865 10.875 18.6475ZM18.875 22.3287C18.6373 21.9499 18.5056 21.5142 18.4936 21.0671C18.4816 20.62 18.5897 20.1778 18.8068 19.7868C19.0238 19.3957 19.3418 19.07 19.7276 18.8437C20.1133 18.6173 20.5528 18.4987 21 18.5C21.07 18.5 21.14 18.5 21.2088 18.5087L18.875 22.3287ZM22.8475 15.8187C21.656 15.3909 20.3535 15.3872 19.1596 15.8082C17.9657 16.2293 16.9536 17.0493 16.2941 18.1299C15.6346 19.2105 15.368 20.4856 15.5395 21.7399C15.7109 22.9942 16.3098 24.1509 17.235 25.015L16 27.045L12.4713 21.2625C13.2887 20.5959 13.8971 19.7083 14.2242 18.7056C14.5512 17.7029 14.5831 16.6273 14.3159 15.6069C14.0488 14.5866 13.4938 13.6646 12.7173 12.9509C11.9408 12.2371 10.9754 11.7617 9.93628 11.5812C12.3355 10.6972 14.899 10.349 17.4471 10.5608C19.9951 10.7726 22.466 11.5395 24.6863 12.8075L22.8475 15.8187ZM26.25 10.25C23.133 8.45256 19.5982 7.50639 16 7.50639C12.4019 7.50639 8.86704 8.45256 5.75003 10.25L4.69378 8.51747C8.13386 6.54037 12.0323 5.49991 16 5.49991C19.9678 5.49991 23.8662 6.54037 27.3063 8.51747L26.25 10.25Z" fill="black"/>
</svg>
