<svg width="32" height="32" viewBox="0 0 32 32" fill="none" xmlns="http://www.w3.org/2000/svg">
<path d="M25.6763 18.8838C24.4774 19.6125 23.1005 19.9958 21.6975 19.9913C20.5222 19.982 19.3601 19.7416 18.2775 19.2838C17.4432 20.4617 16.9966 21.8703 17 23.3138V27C17.0003 27.1371 16.9725 27.2728 16.9181 27.3987C16.8638 27.5245 16.7841 27.6379 16.6841 27.7316C16.5841 27.8254 16.4659 27.8976 16.3369 27.9438C16.2078 27.99 16.0706 28.0091 15.9338 28C15.6768 27.9777 15.4377 27.8589 15.2645 27.6677C15.0913 27.4764 14.9969 27.2268 15 26.9688V25.4138L10.1725 20.5863C9.45492 20.854 8.69596 20.994 7.93005 21C6.87563 21.0026 5.84097 20.7141 4.94005 20.1663C2.2163 18.5113 0.750046 14.7025 1.0338 9.97379C1.04808 9.72914 1.15171 9.49826 1.32499 9.32498C1.49827 9.1517 1.72915 9.04807 1.9738 9.03379C6.70255 8.75504 10.5113 10.2163 12.1613 12.94C12.8096 14.0076 13.0926 15.2573 12.9675 16.5C12.9598 16.5963 12.9243 16.6883 12.8653 16.7648C12.8064 16.8414 12.7266 16.8992 12.6355 16.9313C12.5444 16.9635 12.4459 16.9685 12.352 16.9459C12.2581 16.9232 12.1728 16.8739 12.1063 16.8038L9.7063 14.2913C9.51723 14.1117 9.26548 14.013 9.00472 14.0163C8.74396 14.0197 8.49482 14.1248 8.31042 14.3092C8.12602 14.4936 8.02094 14.7427 8.01761 15.0035C8.01427 15.2642 8.11293 15.516 8.29255 15.705L15.0275 22.6113C15.035 22.5138 15.0438 22.4163 15.0538 22.32C15.2725 20.466 16.0906 18.734 17.3838 17.3875L23.7075 10.705C23.8952 10.5176 24.0007 10.2632 24.0008 9.99798C24.0009 9.73273 23.8956 9.4783 23.7082 9.29066C23.5207 9.10302 23.2664 8.99754 23.0011 8.99742C22.7359 8.9973 22.4814 9.10256 22.2938 9.29004L16.1688 15.7675C16.1075 15.8325 16.0299 15.8798 15.9441 15.9046C15.8583 15.9294 15.7674 15.9308 15.6809 15.9086C15.5944 15.8864 15.5155 15.8414 15.4522 15.7784C15.389 15.7153 15.3438 15.6365 15.3213 15.55C14.7288 13.365 14.99 11.19 16.1213 9.32254C18.3538 5.63754 23.5488 3.66504 30.0188 4.04504C30.2634 4.05932 30.4943 4.16295 30.6676 4.33623C30.8409 4.50951 30.9445 4.74039 30.9588 4.98504C31.3338 11.4563 29.3613 16.6513 25.6763 18.8838Z" fill="black"/>
</svg>
