<svg width="32" height="32" viewBox="0 0 32 32" fill="none" xmlns="http://www.w3.org/2000/svg">
<path d="M30.9539 4.9862C30.9396 4.74156 30.836 4.51068 30.6627 4.3374C30.4894 4.16411 30.2585 4.06049 30.0139 4.0462C23.5439 3.6712 18.3489 5.6387 16.1164 9.3237C14.6414 11.76 14.6439 14.7187 16.0964 17.5412C15.2696 18.5254 14.6654 19.6767 14.3251 20.9162L12.2914 18.875C13.2689 16.8337 13.2314 14.7062 12.1664 12.9387C10.5164 10.215 6.70762 8.75495 1.97887 9.03245C1.73423 9.04674 1.50334 9.15036 1.33006 9.32365C1.15678 9.49693 1.05316 9.72781 1.03887 9.97245C0.760119 14.7012 2.22137 18.51 4.94512 20.16C5.84395 20.7091 6.87681 20.9998 7.93012 21C8.95249 20.9874 9.95896 20.7451 10.8751 20.2912L14.0001 23.4162V27C14.0001 27.2652 14.1055 27.5195 14.293 27.7071C14.4805 27.8946 14.7349 28 15.0001 28C15.2653 28 15.5197 27.8946 15.7072 27.7071C15.8948 27.5195 16.0001 27.2652 16.0001 27V23.3137C15.9957 21.7228 16.537 20.1786 17.5339 18.9387C18.8201 19.6109 20.2465 19.9706 21.6976 19.9887C23.1006 19.9932 24.4775 19.61 25.6764 18.8812C29.3614 16.6512 31.3339 11.4562 30.9539 4.9862ZM5.97637 18.45C4.05887 17.2887 2.97387 14.54 3.00012 11C6.54012 10.97 9.28887 12.0587 10.4501 13.9762C11.0564 14.9762 11.1551 16.1425 10.7576 17.3437L7.70637 14.2925C7.51731 14.1128 7.26556 14.0142 7.0048 14.0175C6.74403 14.0209 6.49489 14.1259 6.31049 14.3103C6.12609 14.4947 6.02102 14.7439 6.01768 15.0046C6.01434 15.2654 6.113 15.5171 6.29262 15.7062L9.34387 18.7575C8.14262 19.155 6.97762 19.0562 5.97637 18.45ZM24.6401 17.1725C22.9651 18.1862 20.9964 18.2637 18.9964 17.4225L25.7076 10.71C25.8872 10.5209 25.9859 10.2691 25.9826 10.0084C25.9792 9.74762 25.8741 9.49848 25.6897 9.31408C25.5053 9.12967 25.2562 9.0246 24.9954 9.02127C24.7347 9.01793 24.4829 9.11658 24.2939 9.2962L17.5814 16C16.7364 14 16.8126 12.03 17.8314 10.3562C19.5739 7.4812 23.7064 5.8787 28.9976 6.00245C29.1176 11.2925 27.5176 15.43 24.6401 17.1725Z" fill="black"/>
</svg>
