<svg width="32" height="32" viewBox="0 0 32 32" fill="none" xmlns="http://www.w3.org/2000/svg">
<path d="M30.4537 5.015C30.4463 4.8929 30.3944 4.77776 30.3077 4.69138C30.2211 4.60499 30.1059 4.55336 29.9837 4.54625C23.7025 4.17125 18.6787 6.05875 16.5437 9.5825C15.0887 11.985 15.1475 14.8225 16.6987 17.6087C15.604 18.8113 14.8811 20.3053 14.6175 21.91L11.6812 18.9737C12.76 16.9737 12.7825 14.9325 11.7337 13.2C10.1812 10.6362 6.54374 9.26625 1.99999 9.5325C1.87852 9.54017 1.76401 9.59188 1.67794 9.67795C1.59188 9.76402 1.54016 9.87852 1.53249 10C1.26624 14.5412 2.63624 18.1787 5.19999 19.7312C6.02282 20.2364 6.96948 20.5038 7.93499 20.5037C9.00074 20.4856 10.0452 20.2021 10.9737 19.6787L14.5 23.2087C14.5 23.2437 14.5 23.2787 14.5 23.3137V27C14.5 27.1326 14.5527 27.2598 14.6464 27.3535C14.7402 27.4473 14.8674 27.5 15 27.5C15.1326 27.5 15.2598 27.4473 15.3535 27.3535C15.4473 27.2598 15.5 27.1326 15.5 27V23.3137C15.4953 21.4678 16.1764 19.6859 17.4112 18.3137C18.8475 19.1087 20.295 19.5087 21.6912 19.5087C23.0065 19.509 24.2962 19.1451 25.4175 18.4575C28.94 16.3212 30.8237 11.2975 30.4537 5.015ZM5.71749 18.875C3.55874 17.57 2.37499 14.4612 2.50999 10.51C6.46124 10.375 9.56999 11.5587 10.875 13.7175C11.685 15.0562 11.6987 16.6387 10.9325 18.2287L7.35249 14.6462C7.25738 14.5601 7.13277 14.5138 7.00446 14.5169C6.87615 14.5201 6.75397 14.5725 6.66321 14.6632C6.57246 14.754 6.52008 14.8762 6.51692 15.0045C6.51376 15.1328 6.56006 15.2574 6.64624 15.3525L10.23 18.9362C8.63874 19.7025 7.05624 19.6887 5.71749 18.875ZM24.8987 17.6C22.8925 18.815 20.5125 18.7987 18.1387 17.5687L25.3537 10.3525C25.4436 10.258 25.4931 10.1322 25.4915 10.0018C25.49 9.87145 25.4375 9.74683 25.3454 9.65454C25.2533 9.56226 25.1288 9.50962 24.9984 9.50783C24.868 9.50605 24.7421 9.55527 24.6475 9.645L17.4312 16.8612C16.2012 14.4862 16.1812 12.1112 17.4 10.1012C19.2887 6.97625 23.785 5.285 29.4787 5.52125C29.7162 11.215 28.0187 15.7112 24.8987 17.6Z" fill="black"/>
</svg>
