<svg width="32" height="32" viewBox="0 0 32 32" fill="none" xmlns="http://www.w3.org/2000/svg">
<path d="M30.7037 5.00002C30.6928 4.81696 30.6151 4.64427 30.4854 4.5146C30.3557 4.38492 30.183 4.30725 30 4.29627C23.625 3.92127 18.515 5.84877 16.3312 9.45377C14.8775 11.855 14.9087 14.7888 16.3975 17.5788C15.4429 18.6715 14.7777 19.9862 14.4625 21.4025L11.9875 18.9263C13.0062 16.9138 13 14.8075 11.9475 13.07C10.3462 10.4263 6.62499 9.00877 1.98749 9.28377C1.80423 9.29478 1.63137 9.37263 1.50166 9.50256C1.37196 9.6325 1.29442 9.80549 1.28374 9.98877C1.01124 14.625 2.42624 18.3463 5.06999 19.9475C5.93102 20.4738 6.92087 20.7515 7.92999 20.75C8.97505 20.7394 10.0029 20.4824 10.93 20L14.25 23.31V27C14.25 27.1989 14.329 27.3897 14.4697 27.5304C14.6103 27.671 14.8011 27.75 15 27.75C15.1989 27.75 15.3897 27.671 15.5303 27.5304C15.671 27.3897 15.75 27.1989 15.75 27V23.3138C15.745 21.5956 16.3551 19.9324 17.47 18.625C18.8712 19.3663 20.31 19.7388 21.6975 19.7388C23.0546 19.7432 24.3866 19.3725 25.5462 18.6675C29.1512 16.4863 31.0787 11.375 30.7037 5.00002ZM5.84749 18.6638C3.80874 17.43 2.67374 14.5 2.74999 10.75C6.49999 10.6688 9.42624 11.805 10.66 13.8438C11.37 15.015 11.43 16.3913 10.8525 17.7925L7.52999 14.4688C7.38926 14.328 7.19838 14.249 6.99936 14.249C6.80034 14.249 6.60947 14.328 6.46874 14.4688C6.32801 14.6095 6.24894 14.8004 6.24894 14.9994C6.24894 15.1984 6.32801 15.3893 6.46874 15.53L9.79624 18.8563C8.39499 19.4338 7.01874 19.375 5.84749 18.6638ZM24.77 17.3863C22.9275 18.5013 20.7525 18.5338 18.5612 17.4988L25.5312 10.53C25.6009 10.4603 25.6562 10.3776 25.6939 10.2866C25.7316 10.1955 25.751 10.0979 25.751 9.9994C25.751 9.90085 25.7316 9.80327 25.6939 9.71222C25.6562 9.62118 25.6009 9.53845 25.5312 9.46877C25.4616 9.39909 25.3788 9.34381 25.2878 9.3061C25.1967 9.26839 25.0992 9.24898 25.0006 9.24898C24.9021 9.24898 24.8045 9.26839 24.7134 9.3061C24.6224 9.34381 24.5397 9.39909 24.47 9.46877L17.5 16.4388C16.465 14.2475 16.5 12.0725 17.6125 10.2313C19.4275 7.23127 23.745 5.58377 29.2375 5.76252C29.4162 11.25 27.7675 15.57 24.77 17.3863Z" fill="black"/>
</svg>
