<svg width="32" height="32" viewBox="0 0 32 32" fill="none" xmlns="http://www.w3.org/2000/svg">
<path d="M27.9025 14.4688C27.9672 14.9766 27.9998 15.488 28 16C28.0018 18.2422 27.375 20.44 26.1906 22.3439C25.0063 24.2478 23.3118 25.7815 21.2997 26.7708C19.2876 27.7601 17.0383 28.1655 14.8074 27.9409C12.5765 27.7162 10.4532 26.8706 8.67872 25.5C11.8275 24.73 15.5312 23.1338 18.9837 21.15C22.6637 19.0363 25.77 16.6825 27.9025 14.4688ZM30.6387 7.585C29.6825 5.93625 27.1587 5.565 23.3262 6.5025C21.5519 5.13056 19.4284 4.28372 17.1969 4.05821C14.9654 3.8327 12.7154 4.23754 10.7025 5.22675C8.68955 6.21597 6.99441 7.74989 5.80961 9.65427C4.62481 11.5587 3.99786 13.7571 3.99997 16C4.00013 16.5145 4.0327 17.0284 4.09747 17.5388C0.636224 21.125 0.686224 23.25 1.36247 24.415C1.99997 25.52 3.32997 26 5.07997 26C6.295 25.9749 7.50287 25.8071 8.67872 25.5C8.03397 25.0016 7.44099 24.4396 6.90872 23.8225C4.74747 24.1825 3.40872 23.9475 3.09247 23.4113C2.90997 23.0975 3.01122 22.5063 3.36997 21.7863C3.7247 21.1119 4.15587 20.4807 4.65497 19.905C4.65556 19.9013 4.65556 19.8975 4.65497 19.8938V19.9038C5.15106 21.3391 5.91451 22.6675 6.90497 23.8188C9.52247 23.3825 13.3412 22.08 17.9837 19.4125C21.5 17.3988 25.25 14.5838 27.3487 12.1025C26.8545 10.6652 26.0909 9.33519 25.0987 8.18375L25.0825 8.165C25.0825 8.17125 25.0937 8.17625 25.0987 8.18375C26.875 7.89 28.52 7.9125 28.9112 8.58875C29.0262 8.785 29.0362 9.07875 28.93 9.46375C28.7187 10.2525 28.1562 11.155 27.3512 12.105C27.6159 12.8728 27.8015 13.6657 27.905 14.4713C29.4675 12.8463 30.5075 11.3025 30.8612 9.98125C31.1037 9.06375 31.03 8.25875 30.6387 7.585Z" fill="black"/>
</svg>
