<svg width="32" height="32" viewBox="0 0 32 32" fill="none" xmlns="http://www.w3.org/2000/svg">
<path d="M23.5 8.00006V24.0001C23.5 24.3979 23.342 24.7794 23.0607 25.0607C22.7794 25.342 22.3978 25.5001 22 25.5001C21.6022 25.5001 21.2206 25.342 20.9393 25.0607C20.658 24.7794 20.5 24.3979 20.5 24.0001V8.00006C20.5 7.60223 20.658 7.2207 20.9393 6.9394C21.2206 6.65809 21.6022 6.50006 22 6.50006C22.3978 6.50006 22.7794 6.65809 23.0607 6.9394C23.342 7.2207 23.5 7.60223 23.5 8.00006ZM28 6.50006C27.6022 6.50006 27.2206 6.65809 26.9393 6.9394C26.658 7.2207 26.5 7.60223 26.5 8.00006V24.0001C26.5 24.3979 26.658 24.7794 26.9393 25.0607C27.2206 25.342 27.6022 25.5001 28 25.5001C28.3978 25.5001 28.7794 25.342 29.0607 25.0607C29.342 24.7794 29.5 24.3979 29.5 24.0001V8.00006C29.5 7.60223 29.342 7.2207 29.0607 6.9394C28.7794 6.65809 28.3978 6.50006 28 6.50006ZM18.5 16.0001C18.5009 16.417 18.396 16.8273 18.1951 17.1926C17.9941 17.5579 17.7038 17.8663 17.3512 18.0888L6.32875 25.1088C5.95313 25.3488 5.51995 25.4835 5.07446 25.4989C4.62898 25.5142 4.18755 25.4097 3.7963 25.1961C3.40505 24.9825 3.07833 24.6678 2.8503 24.2848C2.62227 23.9018 2.50129 23.4646 2.5 23.0188V8.98131C2.50129 8.53556 2.62227 8.09834 2.8503 7.71534C3.07833 7.33233 3.40505 7.0176 3.7963 6.80403C4.18755 6.59045 4.62898 6.48588 5.07446 6.50123C5.51995 6.51659 5.95313 6.6513 6.32875 6.89131L17.3512 13.9113C17.7038 14.1338 17.9941 14.4422 18.1951 14.8075C18.396 15.1728 18.5009 15.5831 18.5 16.0001ZM15.0475 16.0001L5.5 9.92131V22.0788L15.0475 16.0001Z" fill="black"/>
</svg>
