<svg width="32" height="32" viewBox="0 0 32 32" fill="none" xmlns="http://www.w3.org/2000/svg">
<path d="M29.3113 13.8838L11.3013 2.86758C10.9236 2.63733 10.4915 2.51141 10.0493 2.50268C9.60702 2.49395 9.17036 2.60272 8.78387 2.81789C8.39739 3.03306 8.07491 3.34692 7.84936 3.72743C7.6238 4.10795 7.50325 4.5415 7.5 4.98383V27.0163C7.50325 27.4587 7.6238 27.8922 7.84936 28.2727C8.07491 28.6533 8.39739 28.9671 8.78387 29.1823C9.17036 29.3974 9.60702 29.5062 10.0493 29.4975C10.4915 29.4888 10.9236 29.3628 11.3013 29.1326L29.3113 18.1163C29.6744 17.8953 29.9746 17.5845 30.1828 17.2139C30.3911 16.8432 30.5005 16.4252 30.5005 16.0001C30.5005 15.5749 30.3911 15.1569 30.1828 14.7863C29.9746 14.4157 29.6744 14.1049 29.3113 13.8838ZM10.5 26.1063V5.89383L27.02 16.0001L10.5 26.1063Z" fill="black"/>
</svg>
