<svg width="32" height="32" viewBox="0 0 32 32" fill="none" xmlns="http://www.w3.org/2000/svg">
<path d="M30.0611 7.9387C29.9218 7.79886 29.7562 7.6879 29.5739 7.61219C29.3915 7.53648 29.1961 7.49751 28.9986 7.49751C28.8012 7.49751 28.6057 7.53648 28.4234 7.61219C28.2411 7.6879 28.0755 7.79886 27.9361 7.9387L23.9999 11.8749L20.1249 7.99995L24.0649 4.0612C24.3467 3.7794 24.505 3.39721 24.505 2.9987C24.505 2.60018 24.3467 2.21799 24.0649 1.9362C23.7831 1.6544 23.4009 1.49609 23.0024 1.49609C22.6039 1.49609 22.2217 1.6544 21.9399 1.9362L17.9999 5.87495L15.0611 2.9387C14.9216 2.79917 14.756 2.68849 14.5737 2.61297C14.3914 2.53746 14.196 2.49859 13.9986 2.49859C13.6001 2.49859 13.2179 2.6569 12.9361 2.9387C12.6543 3.22049 12.496 3.60268 12.496 4.0012C12.496 4.39971 12.6543 4.7819 12.9361 5.0637L13.3749 5.49995L7.11114 11.7674C6.60033 12.2782 6.19513 12.8845 5.91868 13.5519C5.64223 14.2192 5.49994 14.9345 5.49994 15.6568C5.49994 16.3792 5.64223 17.0944 5.91868 17.7618C6.19513 18.4291 6.60033 19.0355 7.11114 19.5462L8.72114 21.1562L2.93864 26.9387C2.79911 27.0782 2.68843 27.2439 2.61291 27.4262C2.5374 27.6085 2.49854 27.8039 2.49854 28.0012C2.49854 28.1985 2.5374 28.3939 2.61291 28.5762C2.68843 28.7585 2.79911 28.9242 2.93864 29.0637C3.22043 29.3455 3.60262 29.5038 4.00114 29.5038C4.19846 29.5038 4.39385 29.4649 4.57616 29.3894C4.75846 29.3139 4.92411 29.2032 5.06364 29.0637L10.8461 23.2812L12.4561 24.8912C12.9669 25.402 13.5732 25.8072 14.2406 26.0837C14.9079 26.3601 15.6232 26.5024 16.3455 26.5024C17.0679 26.5024 17.7831 26.3601 18.4505 26.0837C19.1178 25.8072 19.7242 25.402 20.2349 24.8912L26.4999 18.6249L26.9386 19.0649C27.0782 19.2045 27.2438 19.3152 27.4261 19.3907C27.6084 19.4662 27.8038 19.505 28.0011 19.505C28.1985 19.505 28.3939 19.4662 28.5762 19.3907C28.7585 19.3152 28.9241 19.2045 29.0636 19.0649C29.2032 18.9254 29.3138 18.7598 29.3894 18.5775C29.4649 18.3952 29.5037 18.1998 29.5037 18.0024C29.5037 17.8051 29.4649 17.6097 29.3894 17.4274C29.3138 17.2451 29.2032 17.0795 29.0636 16.9399L26.1249 13.9999L30.0649 10.0612C30.2041 9.92164 30.3145 9.75601 30.3896 9.57378C30.4648 9.39155 30.5033 9.19629 30.5029 8.99917C30.5026 8.80204 30.4634 8.60692 30.3876 8.42496C30.3118 8.243 30.2008 8.07776 30.0611 7.9387ZM18.1111 22.7674C17.879 22.9997 17.6033 23.1839 17.3 23.3096C16.9966 23.4353 16.6714 23.5 16.343 23.5C16.0146 23.5 15.6895 23.4353 15.3861 23.3096C15.0827 23.1839 14.807 22.9997 14.5749 22.7674L9.23239 17.4249C9.00013 17.1928 8.81589 16.9171 8.69019 16.6138C8.56449 16.3104 8.4998 15.9852 8.4998 15.6568C8.4998 15.3284 8.56449 15.0033 8.69019 14.6999C8.81589 14.3965 9.00013 14.1209 9.23239 13.8887L15.4999 7.62495L24.3749 16.4999L18.1111 22.7674Z" fill="black"/>
</svg>
