<svg width="32" height="32" viewBox="0 0 32 32" fill="none" xmlns="http://www.w3.org/2000/svg">
<path d="M30.0611 1.93874C29.9218 1.7989 29.7562 1.68795 29.5739 1.61224C29.3915 1.53653 29.1961 1.49756 28.9986 1.49756C28.8012 1.49756 28.6057 1.53653 28.4234 1.61224C28.2411 1.68795 28.0755 1.7989 27.9361 1.93874L21.7424 8.13624L21.4249 7.81749C20.5802 6.97517 19.4359 6.50216 18.243 6.50216C17.0501 6.50216 15.9059 6.97517 15.0611 7.81749L12.4999 10.375L12.0611 9.93499C11.9216 9.79546 11.756 9.68478 11.5737 9.60927C11.3914 9.53376 11.196 9.49489 10.9986 9.49489C10.6001 9.49489 10.2179 9.6532 9.93614 9.93499C9.79661 10.0745 9.68593 10.2402 9.61041 10.4225C9.5349 10.6048 9.49604 10.8002 9.49604 10.9975C9.49604 11.396 9.65434 11.7782 9.93614 12.06L10.3749 12.5L7.81739 15.0612C6.97354 15.9051 6.49947 17.0497 6.49947 18.2431C6.49947 19.4365 6.97354 20.5811 7.81739 21.425L8.13614 21.7425L1.93864 27.9387C1.65684 28.2205 1.49854 28.6027 1.49854 29.0012C1.49854 29.3998 1.65684 29.7819 1.93864 30.0637C2.22043 30.3455 2.60262 30.5038 3.00114 30.5038C3.39965 30.5038 3.78184 30.3455 4.06364 30.0637L10.2599 23.8662L10.5774 24.185C11.4223 25.027 12.5664 25.4998 13.7593 25.4998C14.9521 25.4998 16.0963 25.027 16.9411 24.185L19.4999 21.625L19.9386 22.065C20.2204 22.3468 20.6026 22.5051 21.0011 22.5051C21.3997 22.5051 21.7818 22.3468 22.0636 22.065C22.3454 21.7832 22.5037 21.401 22.5037 21.0025C22.5037 20.604 22.3454 20.2218 22.0636 19.94L21.6249 19.5L24.1861 16.9387C25.03 16.0948 25.5041 14.9503 25.5041 13.7569C25.5041 12.5634 25.03 11.4189 24.1861 10.575L23.8674 10.2575L30.0649 4.06124C30.2041 3.92169 30.3145 3.75606 30.3896 3.57383C30.4648 3.3916 30.5033 3.19634 30.5029 2.99921C30.5026 2.80209 30.4634 2.60697 30.3876 2.42501C30.3118 2.24304 30.2008 2.0778 30.0611 1.93874ZM14.8174 22.0637C14.678 22.2036 14.5124 22.3145 14.3301 22.3902C14.1478 22.466 13.9523 22.5049 13.7549 22.5049C13.5575 22.5049 13.362 22.466 13.1797 22.3902C12.9973 22.3145 12.8317 22.2036 12.6924 22.0637L9.93864 19.3037C9.7988 19.1644 9.68784 18.9988 9.61213 18.8165C9.53643 18.6341 9.49745 18.4387 9.49745 18.2412C9.49745 18.0438 9.53643 17.8483 9.61213 17.666C9.68784 17.4837 9.7988 17.3181 9.93864 17.1787L12.4999 14.625L17.3749 19.5L14.8174 22.0637ZM22.0674 14.82L19.4999 17.375L14.6249 12.5L17.1861 9.93874C17.3255 9.7989 17.4911 9.68795 17.6734 9.61224C17.8557 9.53653 18.0512 9.49756 18.2486 9.49756C18.4461 9.49756 18.6415 9.53653 18.8239 9.61224C19.0062 9.68795 19.1718 9.7989 19.3111 9.93874L22.0686 12.6962C22.2085 12.8356 22.3194 13.0012 22.3951 13.1835C22.4708 13.3658 22.5098 13.5613 22.5098 13.7587C22.5098 13.9562 22.4708 14.1516 22.3951 14.334C22.3194 14.5163 22.2085 14.6819 22.0686 14.8212L22.0674 14.82ZM2.57739 11.5262C2.63967 11.3393 2.73816 11.1665 2.86723 11.0177C2.9963 10.8689 3.15342 10.7469 3.32963 10.6588C3.50583 10.5707 3.69766 10.5182 3.89416 10.5043C4.09067 10.4903 4.288 10.5152 4.47489 10.5775L5.97489 11.0775C6.16636 11.136 6.34419 11.2322 6.49789 11.3604C6.6516 11.4887 6.77807 11.6465 6.86986 11.8244C6.96164 12.0023 7.01688 12.1968 7.03232 12.3964C7.04776 12.596 7.02308 12.7967 6.95975 12.9866C6.89641 13.1765 6.7957 13.3519 6.66355 13.5022C6.5314 13.6526 6.37048 13.775 6.19027 13.8623C6.01007 13.9495 5.81423 13.9997 5.6143 14.0101C5.41436 14.0204 5.21438 13.9906 5.02614 13.9225L3.52614 13.4225C3.14898 13.2967 2.83719 13.0263 2.65929 12.6707C2.48139 12.3152 2.45193 11.9035 2.57739 11.5262ZM10.5774 4.47499C10.5092 4.28675 10.4795 4.08677 10.4898 3.88683C10.5001 3.6869 10.5504 3.49106 10.6376 3.31086C10.7248 3.13065 10.8473 2.96973 10.9976 2.83758C11.148 2.70543 11.3233 2.60471 11.5133 2.54138C11.7032 2.47805 11.9039 2.45337 12.1035 2.46881C12.3031 2.48425 12.4976 2.53949 12.6755 2.63127C12.8534 2.72306 13.0112 2.84953 13.1394 3.00323C13.2677 3.15694 13.3639 3.33477 13.4224 3.52624L13.9224 5.02624C14.0366 5.40039 14.0002 5.80437 13.8209 6.15203C13.6415 6.4997 13.3334 6.76355 12.9623 6.88731C12.5912 7.01106 12.1864 6.98494 11.8343 6.81451C11.4822 6.64408 11.2106 6.34283 11.0774 5.97499L10.5774 4.47499ZM29.4224 20.475C29.2963 20.8522 29.0256 21.1639 28.6698 21.3416C28.314 21.5193 27.9022 21.5484 27.5249 21.4225L26.0249 20.9225C25.6571 20.7893 25.3558 20.5177 25.1854 20.1656C25.0149 19.8134 24.9888 19.4087 25.1126 19.0376C25.2363 18.6664 25.5002 18.3584 25.8478 18.179C26.1955 17.9997 26.5995 17.9632 26.9736 18.0775L28.4736 18.5775C28.6605 18.6398 28.8333 18.7383 28.9822 18.8673C29.131 18.9964 29.2529 19.1535 29.341 19.3297C29.4291 19.5059 29.4817 19.6978 29.4956 19.8943C29.5096 20.0908 29.4847 20.2881 29.4224 20.475ZM21.4224 27.5262C21.4916 27.7147 21.5222 27.9152 21.5124 28.1158C21.5027 28.3163 21.4528 28.5129 21.3657 28.6938C21.2785 28.8747 21.156 29.0363 21.0053 29.169C20.8545 29.3016 20.6787 29.4027 20.4882 29.4661C20.2977 29.5296 20.0964 29.5541 19.8962 29.5383C19.696 29.5225 19.501 29.4667 19.3228 29.3742C19.1446 29.2816 18.9868 29.1542 18.8588 28.9996C18.7307 28.8449 18.635 28.6661 18.5774 28.4737L18.0774 26.9737C18.0082 26.7852 17.9776 26.5848 17.9873 26.3842C17.9971 26.1836 18.047 25.9871 18.1341 25.8062C18.2212 25.6252 18.3438 25.4637 18.4945 25.331C18.6453 25.1983 18.8211 25.0973 19.0116 25.0338C19.2021 24.9704 19.4034 24.9458 19.6036 24.9616C19.8038 24.9774 19.9987 25.0333 20.1769 25.1258C20.3551 25.2184 20.5129 25.3458 20.641 25.5004C20.769 25.6551 20.8647 25.8339 20.9224 26.0262L21.4224 27.5262Z" fill="black"/>
</svg>
