<svg width="32" height="32" viewBox="0 0 32 32" fill="none" xmlns="http://www.w3.org/2000/svg">
<path d="M28 6H22.5V2C22.5 1.60218 22.342 1.22064 22.0607 0.93934C21.7794 0.658035 21.3978 0.5 21 0.5C20.6022 0.5 20.2206 0.658035 19.9393 0.93934C19.658 1.22064 19.5 1.60218 19.5 2V6H12.5V2C12.5 1.60218 12.342 1.22064 12.0607 0.93934C11.7794 0.658035 11.3978 0.5 11 0.5C10.6022 0.5 10.2206 0.658035 9.93934 0.93934C9.65804 1.22064 9.5 1.60218 9.5 2V6H4.06875C3.05 6 2.5 6.7725 2.5 7.5C2.5 7.89782 2.65804 8.27936 2.93934 8.56066C3.22064 8.84196 3.60218 9 4 9H5.5V20.5C5.50165 21.9582 6.08165 23.3562 7.11274 24.3873C8.14383 25.4184 9.54182 25.9983 11 26H14.5V30C14.5 30.3978 14.658 30.7794 14.9393 31.0607C15.2206 31.342 15.6022 31.5 16 31.5C16.3978 31.5 16.7794 31.342 17.0607 31.0607C17.342 30.7794 17.5 30.3978 17.5 30V26H21C22.4582 25.9983 23.8562 25.4184 24.8873 24.3873C25.9184 23.3562 26.4983 21.9582 26.5 20.5V9H28C28.3978 9 28.7794 8.84196 29.0607 8.56066C29.342 8.27936 29.5 7.89782 29.5 7.5C29.5 7.10218 29.342 6.72064 29.0607 6.43934C28.7794 6.15804 28.3978 6 28 6ZM23.5 20.5C23.5 21.163 23.2366 21.7989 22.7678 22.2678C22.2989 22.7366 21.663 23 21 23H11C10.337 23 9.70107 22.7366 9.23223 22.2678C8.76339 21.7989 8.5 21.163 8.5 20.5V9H23.5V20.5ZM12.7675 16.8538C12.6303 16.6553 12.543 16.4267 12.5129 16.1874C12.4829 15.948 12.5111 15.7049 12.595 15.4788L14.095 11.4788C14.1641 11.2942 14.2689 11.1252 14.4033 10.9811C14.5378 10.8371 14.6993 10.721 14.8786 10.6394C15.058 10.5578 15.2516 10.5123 15.4485 10.5056C15.6454 10.4988 15.8417 10.5309 16.0263 10.6C16.2108 10.6691 16.3798 10.7739 16.5239 10.9083C16.6679 11.0428 16.784 11.2043 16.8656 11.3836C16.9472 11.563 16.9927 11.7566 16.9994 11.9535C17.0062 12.1504 16.9741 12.3467 16.905 12.5312L16.165 14.5H18C18.2424 14.4999 18.4811 14.5586 18.6959 14.671C18.9106 14.7834 19.0949 14.9461 19.233 15.1453C19.3711 15.3444 19.4589 15.5741 19.4888 15.8146C19.5188 16.0551 19.49 16.2993 19.405 16.5263L17.905 20.5263C17.7654 20.8989 17.4836 21.2008 17.1214 21.3656C16.942 21.4472 16.7484 21.4927 16.5515 21.4994C16.3546 21.5062 16.1583 21.4741 15.9738 21.405C15.7892 21.3359 15.6202 21.2311 15.4761 21.0967C15.3321 20.9622 15.216 20.8007 15.1344 20.6214C14.9696 20.2592 14.9554 19.8464 15.095 19.4737L15.835 17.5H14C13.7576 17.4999 13.5189 17.441 13.3043 17.3285C13.0896 17.2159 12.9054 17.053 12.7675 16.8538Z" fill="black"/>
</svg>
