<svg width="32" height="32" viewBox="0 0 32 32" fill="none" xmlns="http://www.w3.org/2000/svg">
<path d="M17.1249 21L18.5649 19.5613C18.8467 19.2795 19.005 18.8973 19.005 18.4988C19.005 18.1003 18.8467 17.7181 18.5649 17.4363C18.2831 17.1545 17.9009 16.9962 17.5024 16.9962C17.1039 16.9962 16.7217 17.1545 16.4399 17.4363L14.9999 18.875L13.1249 17L14.5649 15.5613C14.8467 15.2795 15.005 14.8973 15.005 14.4988C15.005 14.1003 14.8467 13.7181 14.5649 13.4363C14.2831 13.1545 13.9009 12.9962 13.5024 12.9962C13.1039 12.9962 12.7217 13.1545 12.4399 13.4363L10.9999 14.875L9.06114 12.9388C8.77934 12.657 8.39715 12.4987 7.99864 12.4987C7.60012 12.4987 7.21793 12.657 6.93614 12.9388C6.65434 13.2206 6.49604 13.6028 6.49604 14.0013C6.49604 14.3998 6.65434 14.782 6.93614 15.0638L7.37489 15.5L4.81739 18.0613C3.97354 18.9052 3.49947 20.0498 3.49947 21.2432C3.49947 22.4366 3.97354 23.5811 4.81739 24.425L5.13614 24.7425L1.93864 27.9388C1.65684 28.2206 1.49854 28.6028 1.49854 29.0013C1.49854 29.3998 1.65684 29.782 1.93864 30.0638C2.22043 30.3456 2.60262 30.5039 3.00114 30.5039C3.39965 30.5039 3.78184 30.3456 4.06364 30.0638L7.25989 26.8663L7.57739 27.185C8.42226 28.0271 9.56645 28.4999 10.7593 28.4999C11.9521 28.4999 13.0963 28.0271 13.9411 27.185L16.4999 24.625L16.9386 25.0651C17.2204 25.3468 17.6026 25.5052 18.0011 25.5052C18.3997 25.5052 18.7818 25.3468 19.0636 25.0651C19.3454 24.7833 19.5037 24.4011 19.5037 24.0026C19.5037 23.604 19.3454 23.2218 19.0636 22.9401L17.1249 21ZM11.8174 25.0613C11.678 25.2011 11.5124 25.3121 11.3301 25.3878C11.1478 25.4635 10.9523 25.5025 10.7549 25.5025C10.5575 25.5025 10.362 25.4635 10.1797 25.3878C9.99733 25.3121 9.83174 25.2011 9.69239 25.0613L6.93864 22.3038C6.7988 22.1644 6.68784 21.9989 6.61213 21.8165C6.53643 21.6342 6.49745 21.4387 6.49745 21.2413C6.49745 21.0439 6.53643 20.8484 6.61213 20.6661C6.68784 20.4837 6.7988 20.3182 6.93864 20.1788L9.49989 17.625L14.3749 22.5L11.8174 25.0613ZM30.0674 1.9363C29.928 1.79646 29.7624 1.6855 29.5801 1.6098C29.3978 1.53409 29.2023 1.49512 29.0049 1.49512C28.8075 1.49512 28.612 1.53409 28.4297 1.6098C28.2473 1.6855 28.0817 1.79646 27.9424 1.9363L24.7424 5.1363L24.4249 4.81755C23.5802 3.97523 22.4359 3.50222 21.243 3.50222C20.0501 3.50222 18.9059 3.97523 18.0611 4.81755L15.4999 7.37505L15.0611 6.93505C14.7793 6.65326 14.3972 6.49495 13.9986 6.49495C13.6001 6.49495 13.2179 6.65326 12.9361 6.93505C12.6543 7.21684 12.496 7.59904 12.496 7.99755C12.496 8.39606 12.6543 8.77826 12.9361 9.06005L22.9361 19.06C23.2179 19.3418 23.6001 19.5002 23.9986 19.5002C24.3972 19.5002 24.7793 19.3418 25.0611 19.06C25.3429 18.7783 25.5012 18.3961 25.5012 17.9975C25.5012 17.599 25.3429 17.2168 25.0611 16.935L24.6249 16.5L27.1861 13.9388C28.03 13.0949 28.5041 11.9503 28.5041 10.7569C28.5041 9.5635 28.03 8.41895 27.1861 7.57505L26.8674 7.25755L30.0649 4.0613C30.2041 3.92174 30.3145 3.75612 30.3896 3.57389C30.4648 3.39166 30.5033 3.1964 30.5029 2.99927C30.5026 2.80215 30.4634 2.60703 30.3876 2.42506C30.3118 2.2431 30.2008 2.07786 30.0611 1.9388L30.0674 1.9363ZM25.0674 11.8113L22.4999 14.375L17.6249 9.50005L20.1861 6.9388C20.3255 6.79896 20.4911 6.688 20.6734 6.6123C20.8557 6.53659 21.0512 6.49762 21.2486 6.49762C21.4461 6.49762 21.6415 6.53659 21.8239 6.6123C22.0062 6.688 22.1718 6.79896 22.3111 6.9388L25.0686 9.6963C25.2085 9.83566 25.3194 10.0012 25.3951 10.1836C25.4708 10.3659 25.5098 10.5614 25.5098 10.7588C25.5098 10.9562 25.4708 11.1517 25.3951 11.334C25.3194 11.5164 25.2085 11.6819 25.0686 11.8213L25.0674 11.8113Z" fill="black"/>
</svg>
