<svg width="32" height="32" viewBox="0 0 32 32" fill="none" xmlns="http://www.w3.org/2000/svg">
<path d="M26.0613 8.06125L8.06125 26.0613C7.77946 26.343 7.39726 26.5014 6.99875 26.5014C6.60024 26.5014 6.21804 26.343 5.93625 26.0613C5.65446 25.7795 5.49615 25.3973 5.49615 24.9988C5.49615 24.6002 5.65446 24.218 5.93625 23.9363L23.9363 5.93625C24.218 5.65446 24.6002 5.49615 24.9988 5.49615C25.3973 5.49615 25.7795 5.65446 26.0613 5.93625C26.343 6.21804 26.5014 6.60024 26.5014 6.99875C26.5014 7.39726 26.343 7.77946 26.0613 8.06125ZM7.5 14C7.5 14.3978 7.65804 14.7794 7.93934 15.0607C8.22064 15.342 8.60218 15.5 9 15.5C9.39782 15.5 9.77936 15.342 10.0607 15.0607C10.342 14.7794 10.5 14.3978 10.5 14V10.5H14C14.3978 10.5 14.7794 10.342 15.0607 10.0607C15.342 9.77936 15.5 9.39782 15.5 9C15.5 8.60218 15.342 8.22064 15.0607 7.93934C14.7794 7.65804 14.3978 7.5 14 7.5H10.5V4C10.5 3.60218 10.342 3.22064 10.0607 2.93934C9.77936 2.65804 9.39782 2.5 9 2.5C8.60218 2.5 8.22064 2.65804 7.93934 2.93934C7.65804 3.22064 7.5 3.60218 7.5 4V7.5H4C3.60218 7.5 3.22064 7.65804 2.93934 7.93934C2.65804 8.22064 2.5 8.60218 2.5 9C2.5 9.39782 2.65804 9.77936 2.93934 10.0607C3.22064 10.342 3.60218 10.5 4 10.5H7.5V14ZM28 21.5H18C17.6022 21.5 17.2206 21.658 16.9393 21.9393C16.658 22.2206 16.5 22.6022 16.5 23C16.5 23.3978 16.658 23.7794 16.9393 24.0607C17.2206 24.342 17.6022 24.5 18 24.5H28C28.3978 24.5 28.7794 24.342 29.0607 24.0607C29.342 23.7794 29.5 23.3978 29.5 23C29.5 22.6022 29.342 22.2206 29.0607 21.9393C28.7794 21.658 28.3978 21.5 28 21.5Z" fill="black"/>
</svg>
