<svg width="32" height="32" viewBox="0 0 32 32" fill="none" xmlns="http://www.w3.org/2000/svg">
<path d="M16 2.5C13.33 2.5 10.7199 3.29176 8.49981 4.77516C6.27974 6.25856 4.54942 8.36697 3.52763 10.8338C2.50585 13.3006 2.2385 16.015 2.7594 18.6337C3.28031 21.2525 4.56606 23.6579 6.45406 25.5459C8.34207 27.434 10.7475 28.7197 13.3663 29.2406C15.985 29.7615 18.6994 29.4942 21.1662 28.4724C23.633 27.4506 25.7414 25.7203 27.2248 23.5002C28.7082 21.2801 29.5 18.67 29.5 16C29.496 12.4208 28.0724 8.98932 25.5416 6.45844C23.0107 3.92756 19.5792 2.50397 16 2.5ZM16 20.5C15.11 20.5 14.24 20.2361 13.4999 19.7416C12.7599 19.2471 12.1831 18.5443 11.8425 17.7221C11.502 16.8998 11.4128 15.995 11.5865 15.1221C11.7601 14.2492 12.1887 13.4474 12.818 12.818C13.4474 12.1887 14.2492 11.7601 15.1221 11.5865C15.995 11.4128 16.8998 11.5019 17.7221 11.8425C18.5443 12.1831 19.2472 12.7599 19.7416 13.4999C20.2361 14.24 20.5 15.11 20.5 16C20.5 17.1935 20.0259 18.3381 19.182 19.182C18.3381 20.0259 17.1935 20.5 16 20.5ZM20.1325 9.75C19.3341 9.21735 18.4402 8.84424 17.5 8.65125V5.60875C19.2364 5.85806 20.882 6.54072 22.285 7.59375L20.1325 9.75ZM14.5 8.65125C13.5598 8.84424 12.6659 9.21735 11.8675 9.75L9.71501 7.59375C11.118 6.54072 12.7636 5.85806 14.5 5.60875V8.65125ZM9.75001 11.8675C9.21736 12.6659 8.84425 13.5598 8.65126 14.5H5.60876C5.85827 12.7637 6.54092 11.1181 7.59376 9.715L9.75001 11.8675ZM8.65126 17.5C8.84425 18.4402 9.21736 19.3341 9.75001 20.1325L7.59376 22.285C6.54092 20.8819 5.85827 19.2363 5.60876 17.5H8.65126ZM11.8675 22.25C12.6659 22.7826 13.5598 23.1558 14.5 23.3487V26.3913C12.7636 26.1419 11.118 25.4593 9.71501 24.4062L11.8675 22.25ZM17.5 23.3487C18.4402 23.1558 19.3341 22.7826 20.1325 22.25L22.285 24.4025C20.8824 25.4569 19.2367 26.1408 17.5 26.3913V23.3487ZM22.25 20.1325C22.7827 19.3341 23.1558 18.4402 23.3488 17.5H26.3913C26.1417 19.2363 25.4591 20.8819 24.4063 22.285L22.25 20.1325ZM23.3488 14.5C23.1558 13.5598 22.7827 12.6659 22.25 11.8675L24.4025 9.715C25.4567 11.1177 26.1406 12.7633 26.3913 14.5H23.3488Z" fill="black"/>
</svg>
