<svg width="32" height="32" viewBox="0 0 32 32" fill="none" xmlns="http://www.w3.org/2000/svg">
<path d="M30.5 14H29.3188L25.5575 8.1475C25.3316 7.7948 25.0204 7.50476 24.6527 7.30419C24.285 7.10362 23.8726 6.999 23.4538 7H8.54625C8.12724 6.9989 7.71473 7.10361 7.34697 7.30442C6.97921 7.50524 6.66811 7.79566 6.4425 8.14875L2.68125 14H1.5C1.10218 14 0.720644 14.158 0.43934 14.4393C0.158035 14.7206 0 15.1022 0 15.5C0 15.8978 0.158035 16.2794 0.43934 16.5607C0.720644 16.842 1.10218 17 1.5 17H2V25.5C2 26.163 2.26339 26.7989 2.73223 27.2678C3.20107 27.7366 3.83696 28 4.5 28H7.5C8.16304 28 8.79893 27.7366 9.26777 27.2678C9.73661 26.7989 10 26.163 10 25.5V23H22V25.5C22 26.163 22.2634 26.7989 22.7322 27.2678C23.2011 27.7366 23.837 28 24.5 28H27.5C28.163 28 28.7989 27.7366 29.2678 27.2678C29.7366 26.7989 30 26.163 30 25.5V17H30.5C30.8978 17 31.2794 16.842 31.5607 16.5607C31.842 16.2794 32 15.8978 32 15.5C32 15.1022 31.842 14.7206 31.5607 14.4393C31.2794 14.158 30.8978 14 30.5 14ZM8.81875 10H23.1812L25.75 14H6.25L8.81875 10ZM7 25H5V23H7V25ZM25 25V23H27V25H25ZM27 20H5V17H27V20ZM11.5 3.5C11.5 3.10218 11.658 2.72064 11.9393 2.43934C12.2206 2.15804 12.6022 2 13 2H19C19.3978 2 19.7794 2.15804 20.0607 2.43934C20.342 2.72064 20.5 3.10218 20.5 3.5C20.5 3.89782 20.342 4.27936 20.0607 4.56066C19.7794 4.84196 19.3978 5 19 5H13C12.6022 5 12.2206 4.84196 11.9393 4.56066C11.658 4.27936 11.5 3.89782 11.5 3.5Z" fill="black"/>
</svg>
