<svg width="32" height="32" viewBox="0 0 32 32" fill="none" xmlns="http://www.w3.org/2000/svg">
<path d="M29.1837 12.1812C30.0278 11.3371 30.5019 10.1924 30.5019 8.9987C30.5019 7.80503 30.0278 6.66025 29.1837 5.8162C28.7658 5.39827 28.2696 5.06675 27.7236 4.84056C27.1775 4.61438 26.5922 4.49797 26.0012 4.49797C24.8075 4.49797 23.6628 4.97215 22.8187 5.8162C22.629 6.00673 22.4566 6.2138 22.3037 6.43495L19.4849 5.6662C19.421 4.80727 19.1119 3.98472 18.5944 3.29625C18.0768 2.60777 17.3725 2.08229 16.5652 1.7822C15.7579 1.48211 14.8814 1.42003 14.0398 1.60331C13.1982 1.7866 12.4269 2.20756 11.8174 2.8162C11.1887 3.44612 10.7606 4.24811 10.5871 5.12104C10.4136 5.99396 10.5024 6.89871 10.8424 7.7212L7.1487 11.0462C6.29522 10.5838 5.31532 10.409 4.35462 10.548C3.39391 10.6869 2.50367 11.1322 1.8162 11.8175C1.02281 12.6097 0.553748 13.6695 0.500862 14.7895C0.447977 15.9094 0.81508 17.0088 1.53028 17.8723C2.24548 18.7357 3.25726 19.3011 4.36747 19.4577C5.47768 19.6142 6.60635 19.3507 7.53245 18.7187L15.6924 24.7024C15.4569 25.4838 15.4382 26.3146 15.6385 27.1057C15.8387 27.8969 16.2504 28.6187 16.8294 29.1939C17.4084 29.7691 18.1329 30.176 18.9253 30.371C19.7178 30.5661 20.5484 30.542 21.3282 30.3013C22.108 30.0605 22.8077 29.6123 23.3523 29.0045C23.8969 28.3967 24.266 27.6522 24.42 26.8507C24.574 26.0493 24.5072 25.221 24.2267 24.4546C23.9461 23.6882 23.4625 23.0126 22.8274 22.5L25.9999 13.5C26.5913 13.5007 27.177 13.3846 27.7234 13.1583C28.2698 12.932 28.7661 12.5999 29.1837 12.1812ZM17.4662 22.2824L9.3062 16.2987C9.60397 15.3041 9.55057 14.2373 9.15495 13.2775L12.8499 9.9512C13.7029 10.4154 14.6831 10.5912 15.6442 10.4524C16.6053 10.3137 17.4957 9.86772 18.1824 9.1812C18.3728 8.98901 18.5452 8.77981 18.6974 8.5562L21.5162 9.32495C21.5934 10.4007 22.0558 11.4126 22.8187 12.175C22.9319 12.2892 23.0508 12.3977 23.1749 12.5L19.9999 21.5C19.0959 21.5004 18.213 21.773 17.4662 22.2824ZM27.0624 7.93745C27.2717 8.14744 27.4141 8.41472 27.4715 8.70555C27.529 8.99638 27.499 9.29771 27.3853 9.5715C27.2716 9.84528 27.0793 10.0792 26.8328 10.2438C26.5862 10.4084 26.2964 10.4963 25.9999 10.4963C25.7035 10.4963 25.4137 10.4084 25.1671 10.2438C24.9206 10.0792 24.7283 9.84528 24.6146 9.5715C24.5009 9.29771 24.4709 8.99638 24.5284 8.70555C24.5858 8.41472 24.7282 8.14744 24.9374 7.93745C25.0768 7.79761 25.2424 7.68666 25.4247 7.61095C25.607 7.53524 25.8025 7.49627 25.9999 7.49627C26.1974 7.49627 26.3928 7.53524 26.5752 7.61095C26.7575 7.68666 26.9231 7.79761 27.0624 7.93745ZM13.9374 4.93745C14.1474 4.72819 14.4147 4.58585 14.7055 4.52839C14.9964 4.47094 15.2977 4.50095 15.5715 4.61463C15.8453 4.72831 16.0792 4.92058 16.2438 5.16714C16.4084 5.4137 16.4963 5.7035 16.4963 5.99995C16.4963 6.2964 16.4084 6.5862 16.2438 6.83276C16.0792 7.07933 15.8453 7.27159 15.5715 7.38527C15.2977 7.49896 14.9964 7.52896 14.7055 7.47151C14.4147 7.41405 14.1474 7.27171 13.9374 7.06245C13.7977 6.92301 13.6868 6.75736 13.6112 6.57499C13.5356 6.39261 13.4968 6.19711 13.4969 5.99969C13.497 5.80227 13.5361 5.60681 13.6119 5.42453C13.6877 5.24225 13.7988 5.07672 13.9387 4.93745H13.9374ZM3.93745 16.0625C3.72819 15.8525 3.58585 15.5852 3.52839 15.2944C3.47093 15.0035 3.50094 14.7022 3.61463 14.4284C3.72831 14.1546 3.92057 13.9207 4.16713 13.7561C4.4137 13.5915 4.7035 13.5036 4.99995 13.5036C5.2964 13.5036 5.5862 13.5915 5.83276 13.7561C6.07932 13.9207 6.27158 14.1546 6.38527 14.4284C6.49895 14.7022 6.52896 15.0035 6.47151 15.2944C6.41405 15.5852 6.27171 15.8525 6.06245 16.0625C5.92301 16.2022 5.75736 16.3131 5.57498 16.3887C5.39261 16.4643 5.19711 16.5031 4.99969 16.503C4.80227 16.5029 4.60681 16.4638 4.42453 16.388C4.24224 16.3122 4.07672 16.2011 3.93745 16.0612V16.0625ZM21.0624 27.0625C20.8525 27.2717 20.5852 27.4141 20.2944 27.4715C20.0035 27.529 19.7022 27.499 19.4284 27.3853C19.1546 27.2716 18.9207 27.0793 18.7561 26.8328C18.5915 26.5862 18.5036 26.2964 18.5036 26C18.5036 25.7035 18.5915 25.4137 18.7561 25.1671C18.9207 24.9206 19.1546 24.7283 19.4284 24.6146C19.7022 24.5009 20.0035 24.4709 20.2944 24.5284C20.5852 24.5858 20.8525 24.7282 21.0624 24.9375C21.2022 25.0769 21.3131 25.2425 21.3887 25.4249C21.4643 25.6073 21.5031 25.8028 21.503 26.0002C21.5029 26.1976 21.4638 26.3931 21.388 26.5754C21.3122 26.7577 21.2011 26.9232 21.0612 27.0625H21.0624Z" fill="black"/>
</svg>
