<svg width="32" height="32" viewBox="0 0 32 32" fill="none" xmlns="http://www.w3.org/2000/svg">
<path d="M28.4762 6.52379C28.1512 6.19875 27.7654 5.94091 27.3407 5.76499C26.916 5.58908 26.4609 5.49854 26.0012 5.49854C25.5416 5.49854 25.0864 5.58908 24.6617 5.76499C24.2371 5.94091 23.8512 6.19875 23.5262 6.52379C23.2151 6.83453 22.9657 7.20142 22.7912 7.60504L18.4712 6.42754C18.5599 5.7046 18.4209 4.97199 18.0735 4.33181C17.7261 3.69164 17.1876 3.1758 16.5331 2.85619C15.8786 2.53658 15.1407 2.42912 14.4222 2.54879C13.7038 2.66846 13.0405 3.00929 12.525 3.52379C11.953 4.09713 11.5972 4.85078 11.5179 5.65673C11.4386 6.46268 11.6407 7.27122 12.09 7.94504L7.23871 12.3113C6.5678 11.7523 5.71215 11.4643 4.83976 11.5038C3.96738 11.5434 3.14129 11.9076 2.52371 12.525C1.8673 13.1815 1.49854 14.0717 1.49854 15C1.49854 15.9283 1.8673 16.8186 2.52371 17.475C3.18012 18.1315 4.07041 18.5002 4.99871 18.5002C5.92702 18.5002 6.8173 18.1315 7.47371 17.475L7.49621 17.4513L16.9112 24.3563C16.5856 24.9682 16.449 25.6631 16.5188 26.3528C16.5885 27.0425 16.8616 27.6959 17.3032 28.2302C17.7448 28.7646 18.3352 29.1557 18.9994 29.3541C19.6636 29.5525 20.3718 29.5491 21.0341 29.3445C21.6964 29.1399 22.283 28.7432 22.7196 28.2048C23.1562 27.6663 23.4231 27.0104 23.4864 26.32C23.5497 25.6297 23.4065 24.9362 23.0751 24.3273C22.7438 23.7184 22.239 23.2217 21.625 22.9L25.32 12.4313C25.5439 12.4759 25.7716 12.499 26 12.5C26.692 12.4998 27.3684 12.2945 27.9438 11.91C28.5191 11.5255 28.9676 10.979 29.2324 10.3397C29.4973 9.70039 29.5667 8.9969 29.4319 8.31815C29.2971 7.63939 28.9641 7.01584 28.475 6.52629L28.4762 6.52379ZM13.2325 4.23129C13.5821 3.88176 14.0276 3.64376 14.5125 3.54738C14.9974 3.451 15.5001 3.50056 15.9568 3.68981C16.4136 3.87906 16.804 4.19949 17.0786 4.61059C17.3533 5.0217 17.4999 5.505 17.4999 5.99941C17.4999 6.49382 17.3533 6.97713 17.0786 7.38824C16.804 7.79934 16.4136 8.11977 15.9568 8.30902C15.5001 8.49827 14.9974 8.54783 14.5125 8.45145C14.0276 8.35507 13.5821 8.11707 13.2325 7.76754C13.0002 7.53538 12.816 7.25974 12.6903 6.95636C12.5646 6.65298 12.4999 6.3278 12.4999 5.99941C12.4999 5.67102 12.5646 5.34585 12.6903 5.04247C12.816 4.73909 13.0002 4.46345 13.2325 4.23129ZM3.23246 16.7675C2.88276 16.4179 2.64458 15.9725 2.54806 15.4875C2.45153 15.0025 2.501 14.4998 2.69019 14.043C2.87939 13.5861 3.19982 13.1956 3.61096 12.9209C4.0221 12.6461 4.50548 12.4995 4.99996 12.4995C5.49445 12.4995 5.97783 12.6461 6.38897 12.9209C6.80011 13.1956 7.12054 13.5861 7.30973 14.043C7.49893 14.4998 7.5484 15.0025 7.45187 15.4875C7.35535 15.9725 7.11717 16.4179 6.76746 16.7675C6.5353 16.9998 6.25966 17.184 5.95628 17.3097C5.6529 17.4354 5.32773 17.5001 4.99934 17.5001C4.67095 17.5001 4.34578 17.4354 4.0424 17.3097C3.73902 17.184 3.46337 16.9998 3.23121 16.7675H3.23246ZM21.77 27.7675C21.4204 28.1172 20.9749 28.3554 20.4899 28.4519C20.005 28.5485 19.5023 28.499 19.0454 28.3098C18.5885 28.1206 18.198 27.8002 17.9233 27.389C17.6486 26.9779 17.5019 26.4945 17.5019 26C17.5019 25.5056 17.6486 25.0222 17.9233 24.611C18.198 24.1999 18.5885 23.8795 19.0454 23.6903C19.5023 23.5011 20.005 23.4516 20.4899 23.5481C20.9749 23.6447 21.4204 23.8828 21.77 24.2325C22.0021 24.4648 22.1863 24.7405 22.3119 25.0439C22.4375 25.3473 22.502 25.6725 22.5019 26.0009C22.5018 26.3293 22.437 26.6545 22.3112 26.9578C22.1854 27.2611 22.001 27.5367 21.7687 27.7688L21.77 27.7675ZM20.6825 22.5675C20.1182 22.4555 19.535 22.4842 18.9845 22.6512C18.434 22.8182 17.9331 23.1183 17.5262 23.525L17.5037 23.5488L8.08871 16.645C8.38467 16.0856 8.52416 15.4567 8.49248 14.8247C8.4608 14.1926 8.25912 13.5808 7.90871 13.0538L12.76 8.68754C13.1777 9.03541 13.6707 9.28121 14.1999 9.40544C14.7291 9.52967 15.28 9.52892 15.8089 9.40325C16.3378 9.27758 16.8301 9.03044 17.2469 8.68143C17.6636 8.33242 17.9934 7.89113 18.21 7.39254L22.53 8.57129C22.4651 9.09927 22.5215 9.63509 22.6948 10.138C22.868 10.641 23.1537 11.0978 23.53 11.4738C23.7796 11.7244 24.0663 11.9352 24.38 12.0988L20.6825 22.5675ZM27.77 10.7663C27.4203 11.1158 26.9748 11.3538 26.4899 11.4502C26.005 11.5466 25.5024 11.497 25.0456 11.3078C24.5889 11.1185 24.1985 10.7981 23.9238 10.387C23.6492 9.97588 23.5026 9.49257 23.5026 8.99816C23.5026 8.50375 23.6492 8.02045 23.9238 7.60934C24.1985 7.19824 24.5889 6.87781 25.0456 6.68856C25.5024 6.49931 26.005 6.44975 26.4899 6.54613C26.9748 6.64251 27.4203 6.88051 27.77 7.23004C28.0023 7.4623 28.1866 7.73809 28.3123 8.04163C28.438 8.34517 28.5027 8.67051 28.5026 8.99905C28.5024 9.32759 28.4376 9.65288 28.3116 9.95633C28.1857 10.2598 28.0012 10.5354 27.7687 10.7675L27.77 10.7663Z" fill="black"/>
</svg>
