<svg width="32" height="32" viewBox="0 0 32 32" fill="none" xmlns="http://www.w3.org/2000/svg">
<path d="M28.83 6.17008C28.4586 5.79854 28.0176 5.50382 27.5322 5.30275C27.0469 5.10167 26.5266 4.99818 26.0013 4.99818C25.4759 4.99818 24.9557 5.10167 24.4703 5.30275C23.985 5.50382 23.544 5.79854 23.1725 6.17008C22.9208 6.42169 22.7038 6.70588 22.5275 7.01508L19 6.05258C19.0109 5.25678 18.7842 4.47581 18.3488 3.80959C17.9134 3.14337 17.2892 2.62217 16.5559 2.31266C15.8227 2.00316 15.0138 1.91942 14.2327 2.07216C13.4517 2.2249 12.7339 2.60717 12.1713 3.17008C11.5705 3.77224 11.177 4.54993 11.0475 5.39061C10.9181 6.23128 11.0595 7.09134 11.4513 7.84633L7.20878 11.6651C6.43905 11.1563 5.51731 10.9289 4.59927 11.0211C3.68123 11.1133 2.82316 11.5196 2.17003 12.1713C1.43974 12.8961 1.0168 13.8744 0.989121 14.9029C0.961438 15.9314 1.33114 16.931 2.02138 17.694C2.71163 18.457 3.66933 18.9246 4.69546 18.9998C5.72159 19.075 6.73722 18.7518 7.53128 18.0976L16.2813 24.5176C16.0013 25.2188 15.9254 25.985 16.0625 26.7275C16.1997 27.47 16.5442 28.1585 17.0562 28.7135C17.5682 29.2684 18.2268 29.6671 18.9559 29.8634C19.685 30.0598 20.4548 30.0457 21.1763 29.8229C21.8977 29.6002 22.5414 29.1777 23.0328 28.6045C23.5243 28.0312 23.8434 27.3306 23.9534 26.5836C24.0633 25.8365 23.9596 25.0737 23.6542 24.3831C23.3488 23.6926 22.8542 23.1026 22.2275 22.6813L25.6513 12.9826C25.7663 12.9926 25.8813 12.9976 25.9963 12.9976C26.7872 12.9975 27.5604 12.7628 28.2181 12.3234C28.8757 11.8839 29.3883 11.2594 29.6911 10.5286C29.9938 9.79791 30.0731 8.99383 29.919 8.21803C29.7648 7.44223 29.3841 6.72955 28.825 6.17008H28.83ZM13.58 4.58383C13.8598 4.30434 14.2162 4.11408 14.6041 4.03709C14.992 3.9601 15.394 3.99984 15.7593 4.15128C16.1247 4.30272 16.4369 4.55907 16.6565 4.88792C16.8762 5.21677 16.9935 5.60336 16.9935 5.99883C16.9935 6.39429 16.8762 6.78088 16.6565 7.10974C16.4369 7.43859 16.1247 7.69493 15.7593 7.84637C15.394 7.99781 14.992 8.03755 14.6041 7.96056C14.2162 7.88357 13.8598 7.69331 13.58 7.41383C13.3944 7.22775 13.2473 7.00691 13.1471 6.76394C13.0468 6.52097 12.9955 6.26062 12.996 5.99779C12.9964 5.73496 13.0487 5.4748 13.1498 5.23218C13.2508 4.98956 13.3987 4.76924 13.585 4.58383H13.58ZM3.58003 16.4151C3.39407 16.2293 3.24656 16.0088 3.14591 15.766C3.04526 15.5232 2.99345 15.2629 2.99345 15.0001C2.99345 14.7372 3.04526 14.477 3.14591 14.2342C3.24656 13.9914 3.39407 13.7708 3.58003 13.5851C3.85982 13.3056 4.21619 13.1153 4.60409 13.0383C4.99199 12.9614 5.39401 13.0011 5.75933 13.1525C6.12466 13.304 6.43688 13.5603 6.65655 13.8892C6.87621 14.218 6.99345 14.6046 6.99345 15.0001C6.99345 15.3955 6.87621 15.7821 6.65655 16.111C6.43688 16.4398 6.12466 16.6962 5.75933 16.8476C5.39401 16.9991 4.99199 17.0388 4.60409 16.9618C4.21619 16.8848 3.85982 16.6946 3.58003 16.4151ZM21.4113 27.4151C21.0362 27.7902 20.5274 28.0009 19.9969 28.0009C19.4664 28.0009 18.9576 27.7902 18.5825 27.4151C18.2074 27.04 17.9967 26.5312 17.9967 26.0007C17.9967 25.4702 18.2074 24.9614 18.5825 24.5863C18.7683 24.4006 18.9888 24.2533 19.2314 24.1527C19.4741 24.0522 19.7342 24.0005 19.9969 24.0005C20.2596 24.0005 20.5197 24.0522 20.7624 24.1527C21.005 24.2533 21.2255 24.4006 21.4113 24.5863C21.597 24.7721 21.7444 24.9926 21.8449 25.2352C21.9454 25.4779 21.9971 25.738 21.9971 26.0007C21.9971 26.2634 21.9454 26.5235 21.8449 26.7662C21.7444 27.0088 21.597 27.2293 21.4113 27.4151ZM20.3425 22.0176C19.3055 21.9273 18.2742 22.2447 17.4675 22.9026L8.71753 16.4826C8.92957 15.9477 9.02435 15.3735 8.99545 14.7988C8.96656 14.2241 8.81466 13.6623 8.55003 13.1513L12.7938 9.33258C13.2503 9.63517 13.7642 9.84078 14.3034 9.93666C14.8427 10.0325 15.3959 10.0166 15.9288 9.88995C16.4617 9.76327 16.9628 9.52849 17.4013 9.20018C17.8397 8.87187 18.206 8.45701 18.4775 7.98133L22 8.94508C21.9905 9.61001 22.1469 10.2668 22.4551 10.8561C22.7632 11.4454 23.2135 11.9486 23.765 12.3201L20.3425 22.0176ZM27.4125 10.4126C27.2297 10.6102 27.0088 10.7689 26.7631 10.8791C26.5175 10.9893 26.2521 11.0487 25.9829 11.0539C25.7137 11.0591 25.4462 11.0098 25.1965 10.9091C24.9468 10.8084 24.72 10.6583 24.5297 10.4679C24.3394 10.2774 24.1895 10.0505 24.089 9.80066C23.9885 9.55086 23.9395 9.28335 23.9449 9.01416C23.9503 8.74496 24.01 8.47963 24.1205 8.23407C24.2309 7.9885 24.3897 7.76776 24.5875 7.58508C24.9626 7.20996 25.4714 6.99922 26.0019 6.99922C26.5324 6.99922 27.0412 7.20996 27.4163 7.58508C27.7914 7.96019 28.0021 8.46896 28.0021 8.99945C28.0021 9.52994 27.7914 10.0387 27.4163 10.4138L27.4125 10.4126Z" fill="black"/>
</svg>
