<svg width="32" height="32" viewBox="0 0 32 32" fill="none" xmlns="http://www.w3.org/2000/svg">
<path opacity="0.08" d="M23 19L21.1737 27.2175C21.1243 27.4395 21.0006 27.638 20.8231 27.7803C20.6456 27.9225 20.425 28 20.1975 28H11.8025C11.575 28 11.3544 27.9225 11.1769 27.7803C10.9994 27.638 10.8757 27.4395 10.8263 27.2175L9 19H23Z" fill="black"/>
<path d="M24.9999 18.0001H15.4124L15.7061 17.7063L18.2136 15.1988C19.2264 15.7089 20.3423 15.9808 21.4761 15.9938C22.6174 15.9968 23.7374 15.6845 24.7124 15.0913C27.6774 13.2963 29.2661 9.14133 28.9624 3.97633C28.9481 3.73169 28.8445 3.50081 28.6712 3.32753C28.4979 3.15424 28.267 3.05062 28.0224 3.03633C22.8574 2.73383 18.7024 4.32134 16.9061 7.28633C15.7374 9.21759 15.7074 11.5501 16.7986 13.7863L14.9999 15.5851L13.4736 14.0588C14.2236 12.4026 14.1699 10.6838 13.2999 9.24883C11.9411 7.00008 8.82489 5.80009 4.96614 6.02759C4.72192 6.04214 4.4915 6.14571 4.31851 6.31871C4.14551 6.4917 4.04194 6.72212 4.02739 6.96633C3.79989 10.8251 4.99989 13.9401 7.24989 15.3001C8.00263 15.7597 8.86792 16.002 9.74989 16.0001C10.55 15.9921 11.3393 15.8136 12.0649 15.4763L13.5861 17.0001L12.5861 18.0001H6.99989C6.73467 18.0001 6.48032 18.1054 6.29278 18.293C6.10524 18.4805 5.99989 18.7349 5.99989 19.0001C5.99989 19.2653 6.10524 19.5197 6.29278 19.7072C6.48032 19.8947 6.73467 20.0001 6.99989 20.0001H8.19864L9.84989 27.4338C9.94625 27.8793 10.1929 28.278 10.5484 28.5632C10.9039 28.8484 11.3466 29.0026 11.8024 29.0001H20.1986C20.6543 29.0022 21.0968 28.8478 21.4522 28.5627C21.8076 28.2776 22.0543 27.8791 22.1511 27.4338L23.8024 20.0001H24.9999C25.2651 20.0001 25.5195 19.8947 25.707 19.7072C25.8945 19.5197 25.9999 19.2653 25.9999 19.0001C25.9999 18.7349 25.8945 18.4805 25.707 18.293C25.5195 18.1054 25.2651 18.0001 24.9999 18.0001ZM18.6249 8.32259C19.9324 6.16509 23.0286 4.94758 26.9999 5.00133C27.0511 8.97758 25.8361 12.0738 23.6786 13.3763C22.2399 14.2513 20.5036 14.1938 18.7686 13.2288C17.8024 11.5001 17.7499 9.76134 18.6249 8.32259ZM11.5136 13.5138C10.3636 14.1288 9.22489 14.1576 8.28489 13.5888C6.84739 12.7176 6.01864 10.6638 5.99989 8.00008C8.66364 8.01884 10.7186 8.84758 11.5886 10.2851C12.1586 11.2251 12.1249 12.3638 11.5136 13.5138ZM20.1986 27.0001H11.8024L10.2499 20.0001H21.7499L20.1986 27.0001Z" fill="black"/>
</svg>
