<svg width="32" height="32" viewBox="0 0 32 32" fill="none" xmlns="http://www.w3.org/2000/svg">
<path d="M14.5 16V6C14.5 5.60218 14.658 5.22064 14.9393 4.93934C15.2206 4.65804 15.6022 4.5 16 4.5C16.3978 4.5 16.7794 4.65804 17.0607 4.93934C17.342 5.22064 17.5 5.60218 17.5 6V16C17.5 16.3978 17.342 16.7794 17.0607 17.0607C16.7794 17.342 16.3978 17.5 16 17.5C15.6022 17.5 15.2206 17.342 14.9393 17.0607C14.658 16.7794 14.5 16.3978 14.5 16ZM22.8188 5.75C22.4857 5.54491 22.0857 5.47804 21.704 5.56365C21.3223 5.64926 20.9892 5.88057 20.7756 6.20827C20.562 6.53596 20.4849 6.93413 20.5607 7.31787C20.6365 7.70161 20.8591 8.04058 21.1812 8.2625C23.9263 10.0462 25.5 12.875 25.5 16C25.5 18.5196 24.4991 20.9359 22.7175 22.7175C20.9359 24.4991 18.5196 25.5 16 25.5C13.4804 25.5 11.0641 24.4991 9.28249 22.7175C7.50089 20.9359 6.5 18.5196 6.5 16C6.5 12.875 8.07375 10.0463 10.8188 8.25625C11.1237 8.02769 11.3302 7.69162 11.3964 7.31629C11.4625 6.94097 11.3833 6.55454 11.1749 6.23549C10.9664 5.91645 10.6444 5.68871 10.2741 5.59854C9.90378 5.50837 9.51305 5.56252 9.18125 5.75C5.57 8.0975 3.5 11.8362 3.5 16C3.5 19.3152 4.81696 22.4946 7.16117 24.8388C9.50537 27.183 12.6848 28.5 16 28.5C19.3152 28.5 22.4946 27.183 24.8388 24.8388C27.183 22.4946 28.5 19.3152 28.5 16C28.5 11.8362 26.43 8.0975 22.8188 5.75Z" fill="black"/>
</svg>
