<svg width="32" height="32" viewBox="0 0 32 32" fill="none" xmlns="http://www.w3.org/2000/svg">
<path d="M27 4.5H17.5V3C17.5 2.60218 17.342 2.22064 17.0607 1.93934C16.7794 1.65804 16.3978 1.5 16 1.5C15.6022 1.5 15.2206 1.65804 14.9393 1.93934C14.658 2.22064 14.5 2.60218 14.5 3V4.5H5C4.33696 4.5 3.70107 4.76339 3.23223 5.23223C2.76339 5.70107 2.5 6.33696 2.5 7V22C2.5 22.663 2.76339 23.2989 3.23223 23.7678C3.70107 24.2366 4.33696 24.5 5 24.5H8.875L6.825 27.0625C6.57636 27.3731 6.4613 27.7698 6.50514 28.1653C6.54897 28.5608 6.74812 28.9226 7.05875 29.1712C7.36938 29.4199 7.76607 29.5349 8.16154 29.4911C8.557 29.4473 8.91886 29.2481 9.1675 28.9375L12.7175 24.5H19.275L22.825 28.9375C22.9481 29.0913 23.1003 29.2194 23.2729 29.3144C23.4455 29.4093 23.6351 29.4694 23.831 29.4911C24.0268 29.5128 24.225 29.4957 24.4142 29.4409C24.6034 29.386 24.7799 29.2944 24.9338 29.1712C25.0876 29.0481 25.2156 28.8959 25.3106 28.7233C25.4056 28.5507 25.4657 28.3611 25.4874 28.1653C25.5091 27.9695 25.492 27.7713 25.4371 27.5821C25.3822 27.3929 25.2906 27.2163 25.1675 27.0625L23.125 24.5H27C27.663 24.5 28.2989 24.2366 28.7678 23.7678C29.2366 23.2989 29.5 22.663 29.5 22V7C29.5 6.33696 29.2366 5.70107 28.7678 5.23223C28.2989 4.76339 27.663 4.5 27 4.5ZM26.5 21.5H5.5V7.5H26.5V21.5ZM13 15V18C13 18.3978 12.842 18.7794 12.5607 19.0607C12.2794 19.342 11.8978 19.5 11.5 19.5C11.1022 19.5 10.7206 19.342 10.4393 19.0607C10.158 18.7794 10 18.3978 10 18V15C10 14.6022 10.158 14.2206 10.4393 13.9393C10.7206 13.658 11.1022 13.5 11.5 13.5C11.8978 13.5 12.2794 13.658 12.5607 13.9393C12.842 14.2206 13 14.6022 13 15ZM16 11.5C16.3978 11.5 16.7794 11.658 17.0607 11.9393C17.342 12.2206 17.5 12.6022 17.5 13V18C17.5 18.3978 17.342 18.7794 17.0607 19.0607C16.7794 19.342 16.3978 19.5 16 19.5C15.6022 19.5 15.2206 19.342 14.9393 19.0607C14.658 18.7794 14.5 18.3978 14.5 18V13C14.5 12.6022 14.658 12.2206 14.9393 11.9393C15.2206 11.658 15.6022 11.5 16 11.5ZM19 18V11C19 10.6022 19.158 10.2206 19.4393 9.93934C19.7206 9.65804 20.1022 9.5 20.5 9.5C20.8978 9.5 21.2794 9.65804 21.5607 9.93934C21.842 10.2206 22 10.6022 22 11V18C22 18.3978 21.842 18.7794 21.5607 19.0607C21.2794 19.342 20.8978 19.5 20.5 19.5C20.1022 19.5 19.7206 19.342 19.4393 19.0607C19.158 18.7794 19 18.3978 19 18Z" fill="black"/>
</svg>
