<svg width="32" height="32" viewBox="0 0 32 32" fill="none" xmlns="http://www.w3.org/2000/svg">
<path d="M27 4.5H17.5V3C17.5 2.60218 17.342 2.22064 17.0607 1.93934C16.7794 1.65804 16.3978 1.5 16 1.5C15.6022 1.5 15.2206 1.65804 14.9393 1.93934C14.658 2.22064 14.5 2.60218 14.5 3V4.5H5C4.33696 4.5 3.70107 4.76339 3.23223 5.23223C2.76339 5.70107 2.5 6.33696 2.5 7V22C2.5 22.663 2.76339 23.2989 3.23223 23.7678C3.70107 24.2366 4.33696 24.5 5 24.5H8.875L6.825 27.0625C6.57636 27.3731 6.4613 27.7698 6.50514 28.1653C6.54897 28.5608 6.74812 28.9226 7.05875 29.1712C7.36938 29.4199 7.76607 29.5349 8.16154 29.4911C8.557 29.4473 8.91886 29.2481 9.1675 28.9375L12.7175 24.5H19.275L22.825 28.9375C22.9481 29.0913 23.1003 29.2194 23.2729 29.3144C23.4455 29.4093 23.6351 29.4694 23.831 29.4911C24.0268 29.5128 24.225 29.4957 24.4142 29.4409C24.6034 29.386 24.7799 29.2944 24.9338 29.1712C25.0876 29.0481 25.2156 28.8959 25.3106 28.7233C25.4056 28.5507 25.4657 28.3611 25.4874 28.1653C25.5091 27.9695 25.492 27.7713 25.4371 27.5821C25.3822 27.3929 25.2906 27.2163 25.1675 27.0625L23.125 24.5H27C27.663 24.5 28.2989 24.2366 28.7678 23.7678C29.2366 23.2989 29.5 22.663 29.5 22V7C29.5 6.33696 29.2366 5.70107 28.7678 5.23223C28.2989 4.76339 27.663 4.5 27 4.5ZM26.5 21.5H5.5V7.5H26.5V21.5Z" fill="black"/>
</svg>
