<svg width="32" height="32" viewBox="0 0 32 32" fill="none" xmlns="http://www.w3.org/2000/svg">
<path d="M13 16V17C13 17.3978 12.842 17.7794 12.5607 18.0607C12.2794 18.342 11.8978 18.5 11.5 18.5C11.1022 18.5 10.7206 18.342 10.4393 18.0607C10.158 17.7794 10 17.3978 10 17V16C10 15.6022 10.158 15.2206 10.4393 14.9393C10.7206 14.658 11.1022 14.5 11.5 14.5C11.8978 14.5 12.2794 14.658 12.5607 14.9393C12.842 15.2206 13 15.6022 13 16ZM16 14C15.6022 14 15.2206 14.158 14.9393 14.4393C14.658 14.7206 14.5 15.1022 14.5 15.5V17C14.5 17.3978 14.658 17.7794 14.9393 18.0607C15.2206 18.342 15.6022 18.5 16 18.5C16.3978 18.5 16.7794 18.342 17.0607 18.0607C17.342 17.7794 17.5 17.3978 17.5 17V15.5C17.5 15.1022 17.342 14.7206 17.0607 14.4393C16.7794 14.158 16.3978 14 16 14ZM20.5 13.5C20.1022 13.5 19.7206 13.658 19.4393 13.9393C19.158 14.2206 19 14.6022 19 15V17C19 17.3978 19.158 17.7794 19.4393 18.0607C19.7206 18.342 20.1022 18.5 20.5 18.5C20.8978 18.5 21.2794 18.342 21.5607 18.0607C21.842 17.7794 22 17.3978 22 17V15C22 14.6022 21.842 14.2206 21.5607 13.9393C21.2794 13.658 20.8978 13.5 20.5 13.5ZM27.5 11.45V20.5H28C28.3978 20.5 28.7794 20.658 29.0607 20.9393C29.342 21.2206 29.5 21.6022 29.5 22C29.5 22.3978 29.342 22.7794 29.0607 23.0607C28.7794 23.342 28.3978 23.5 28 23.5H17.5V26.4025C18.0719 26.7327 18.5189 27.2424 18.7716 27.8525C19.0244 28.4627 19.0687 29.1391 18.8978 29.777C18.7269 30.4149 18.3502 30.9786 17.8263 31.3806C17.3024 31.7827 16.6604 32.0006 16 32.0006C15.3396 32.0006 14.6976 31.7827 14.1737 31.3806C13.6498 30.9786 13.2731 30.4149 13.1022 29.777C12.9313 29.1391 12.9756 28.4627 13.2284 27.8525C13.4811 27.2424 13.9281 26.7327 14.5 26.4025V23.5H4C3.60218 23.5 3.22064 23.342 2.93934 23.0607C2.65804 22.7794 2.5 22.3978 2.5 22C2.5 21.6022 2.65804 21.2206 2.93934 20.9393C3.22064 20.658 3.60218 20.5 4 20.5H4.5V11.45C3.93532 11.3347 3.4278 11.0279 3.06335 10.5815C2.69889 10.135 2.49988 9.57633 2.5 9V6C2.5 5.33696 2.76339 4.70107 3.23223 4.23223C3.70107 3.76339 4.33696 3.5 5 3.5H27C27.663 3.5 28.2989 3.76339 28.7678 4.23223C29.2366 4.70107 29.5 5.33696 29.5 6V9C29.5001 9.57633 29.3011 10.135 28.9367 10.5815C28.5722 11.0279 28.0647 11.3347 27.5 11.45ZM5.5 8.5H26.5V6.5H5.5V8.5ZM24.5 20.5V11.5H7.5V20.5H24.5Z" fill="black"/>
</svg>
