<svg width="32" height="32" viewBox="0 0 32 32" fill="none" xmlns="http://www.w3.org/2000/svg">
<path d="M29.5 9V6C29.5 5.33696 29.2366 4.70107 28.7678 4.23223C28.2989 3.76339 27.663 3.5 27 3.5H5C4.33696 3.5 3.70107 3.76339 3.23223 4.23223C2.76339 4.70107 2.5 5.33696 2.5 6V9C2.49988 9.57633 2.69889 10.135 3.06335 10.5815C3.4278 11.0279 3.93532 11.3347 4.5 11.45V20.5H4C3.60218 20.5 3.22064 20.658 2.93934 20.9393C2.65804 21.2206 2.5 21.6022 2.5 22C2.5 22.3978 2.65804 22.7794 2.93934 23.0607C3.22064 23.342 3.60218 23.5 4 23.5H14.5V26.4025C13.9281 26.7327 13.4811 27.2424 13.2284 27.8525C12.9756 28.4627 12.9313 29.1391 13.1022 29.777C13.2731 30.4149 13.6498 30.9786 14.1737 31.3806C14.6976 31.7827 15.3396 32.0006 16 32.0006C16.6604 32.0006 17.3024 31.7827 17.8263 31.3806C18.3502 30.9786 18.7269 30.4149 18.8978 29.777C19.0687 29.1391 19.0244 28.4627 18.7716 27.8525C18.5189 27.2424 18.0719 26.7327 17.5 26.4025V23.5H28C28.3978 23.5 28.7794 23.342 29.0607 23.0607C29.342 22.7794 29.5 22.3978 29.5 22C29.5 21.6022 29.342 21.2206 29.0607 20.9393C28.7794 20.658 28.3978 20.5 28 20.5H27.5V11.45C28.0647 11.3347 28.5722 11.0279 28.9367 10.5815C29.3011 10.135 29.5001 9.57633 29.5 9ZM5.5 6.5H26.5V8.5H5.5V6.5ZM7.5 20.5V11.5H24.5V20.5H7.5Z" fill="black"/>
</svg>
