<svg width="32" height="32" viewBox="0 0 32 32" fill="none" xmlns="http://www.w3.org/2000/svg">
<path d="M30.5 16C30.5 16.3978 30.342 16.7794 30.0607 17.0607C29.7794 17.342 29.3978 17.5 29 17.5H25.9275L21.3412 26.6713C21.2166 26.9203 21.0252 27.1297 20.7883 27.2761C20.5514 27.4224 20.2785 27.5 20 27.5H19.925C19.6341 27.4853 19.3538 27.3862 19.1183 27.2148C18.8828 27.0435 18.7023 26.8073 18.5987 26.535L11.875 8.89377L8.365 16.625C8.24523 16.8863 8.0529 17.1077 7.81091 17.2628C7.56892 17.418 7.28745 17.5003 7 17.5H3C2.60218 17.5 2.22064 17.342 1.93934 17.0607C1.65804 16.7794 1.5 16.3978 1.5 16C1.5 15.6022 1.65804 15.2207 1.93934 14.9394C2.22064 14.6581 2.60218 14.5 3 14.5H6.03375L10.635 4.37502C10.7577 4.10589 10.9572 3.87905 11.2085 3.72301C11.4598 3.56698 11.7516 3.48871 12.0472 3.49806C12.3429 3.50742 12.6292 3.60396 12.8701 3.77557C13.111 3.94717 13.2958 4.18617 13.4012 4.46252L20.1863 22.27L23.6588 15.325C23.7839 15.0767 23.9756 14.868 24.2124 14.7224C24.4493 14.5767 24.7219 14.4997 25 14.5H29C29.3978 14.5 29.7794 14.6581 30.0607 14.9394C30.342 15.2207 30.5 15.6022 30.5 16Z" fill="black"/>
</svg>
