<svg width="32" height="32" viewBox="0 0 32 32" fill="none" xmlns="http://www.w3.org/2000/svg">
<path d="M27 20.5H26.2588L23.7875 6.5H24C24.3978 6.5 24.7794 6.34196 25.0607 6.06066C25.342 5.77936 25.5 5.39782 25.5 5C25.5 4.60218 25.342 4.22064 25.0607 3.93934C24.7794 3.65804 24.3978 3.5 24 3.5H8C7.60218 3.5 7.22064 3.65804 6.93934 3.93934C6.65804 4.22064 6.5 4.60218 6.5 5C6.5 5.39782 6.65804 5.77936 6.93934 6.06066C7.22064 6.34196 7.60218 6.5 8 6.5H8.2125L5.74125 20.5H5C4.60218 20.5 4.22064 20.658 3.93934 20.9393C3.65804 21.2206 3.5 21.6022 3.5 22C3.5 22.3978 3.65804 22.7794 3.93934 23.0607C4.22064 23.342 4.60218 23.5 5 23.5H14.5V30C14.5 30.3978 14.658 30.7794 14.9393 31.0607C15.2206 31.342 15.6022 31.5 16 31.5C16.3978 31.5 16.7794 31.342 17.0607 31.0607C17.342 30.7794 17.5 30.3978 17.5 30V23.5H27C27.3978 23.5 27.7794 23.342 28.0607 23.0607C28.342 22.7794 28.5 22.3978 28.5 22C28.5 21.6022 28.342 21.2206 28.0607 20.9393C27.7794 20.658 27.3978 20.5 27 20.5ZM11.2587 6.5H20.7412L23.2125 20.5H8.7875L11.2587 6.5Z" fill="black"/>
</svg>
