<svg width="32" height="32" viewBox="0 0 32 32" fill="none" xmlns="http://www.w3.org/2000/svg">
<path d="M7.10988 3.9912C6.97815 3.84272 6.81827 3.72185 6.63948 3.63561C6.4607 3.54937 6.26658 3.49947 6.06837 3.48881C5.87016 3.47815 5.6718 3.50693 5.4848 3.57349C5.2978 3.64005 5.12586 3.74307 4.97896 3.87657C4.83207 4.01006 4.71313 4.17139 4.62904 4.3512C4.54495 4.531 4.49738 4.72571 4.48909 4.92403C4.48081 5.12235 4.51197 5.32035 4.58077 5.50654C4.64956 5.69273 4.75463 5.86342 4.88988 6.00871L7.49988 8.87496C6.38158 9.24294 5.34141 9.81558 4.43238 10.5637C4.15883 10.7838 3.93471 11.059 3.7746 11.3715C3.61449 11.6839 3.52199 12.0266 3.50312 12.3772C3.48426 12.7278 3.53944 13.0784 3.66509 13.4063C3.79074 13.7341 3.98403 14.0318 4.23238 14.28L9.91488 19.9637L4.93988 24.9387C4.65809 25.2205 4.49978 25.6027 4.49978 26.0012C4.49978 26.3997 4.65809 26.7819 4.93988 27.0637C5.22167 27.3455 5.60387 27.5038 6.00238 27.5038C6.4009 27.5038 6.78309 27.3455 7.06488 27.0637L12.0399 22.0875L17.7236 27.77C18.1919 28.237 18.8261 28.4995 19.4874 28.5C19.5461 28.5 19.6049 28.5 19.6636 28.4937C20.0204 28.4679 20.3675 28.3659 20.6815 28.1944C20.9955 28.023 21.269 27.7862 21.4836 27.5C21.9404 26.8943 22.3397 26.2473 22.6761 25.5675L24.8911 28.0037C25.0229 28.1522 25.1827 28.2731 25.3615 28.3593C25.5403 28.4455 25.7344 28.4954 25.9326 28.5061C26.1309 28.5168 26.3292 28.488 26.5162 28.4214C26.7032 28.3549 26.8752 28.2518 27.022 28.1183C27.1689 27.9848 27.2879 27.8235 27.372 27.6437C27.4561 27.4639 27.5036 27.2692 27.5119 27.0709C27.5202 26.8726 27.489 26.6746 27.4202 26.4884C27.3514 26.3022 27.2464 26.1315 27.1111 25.9862L7.10988 3.9912ZM19.4211 25.2262L6.75988 12.565C7.74988 11.875 8.78863 11.515 9.86363 11.4787L20.4274 23.1037C20.2018 23.8582 19.8624 24.5739 19.4211 25.2262ZM29.7686 13.3512L24.8936 18.24C24.7545 18.3795 24.5893 18.4902 24.4073 18.5659C24.2254 18.6416 24.0304 18.6807 23.8333 18.681C23.6363 18.6813 23.4411 18.6427 23.259 18.5676C23.0769 18.4925 22.9113 18.3822 22.7718 18.2431C22.49 17.9621 22.3313 17.5807 22.3307 17.1828C22.3305 16.9858 22.369 16.7906 22.4441 16.6084C22.5192 16.4263 22.6295 16.2607 22.7686 16.1212L27.2924 11.5837L20.4174 4.7087L16.3236 8.81246C16.0421 9.09056 15.662 9.24613 15.2662 9.24525C14.8705 9.24438 14.4911 9.08714 14.2108 8.80779C13.9304 8.52844 13.7718 8.14962 13.7696 7.75387C13.7673 7.35812 13.9215 6.9775 14.1986 6.69495L18.6449 2.23371C18.8771 2.00126 19.1528 1.81687 19.4563 1.69106C19.7598 1.56524 20.0851 1.50049 20.4136 1.50049C20.7422 1.50049 21.0675 1.56524 21.371 1.69106C21.6745 1.81687 21.9502 2.00126 22.1824 2.23371L29.7686 9.81871C30.2373 10.2875 30.5006 10.9233 30.5006 11.5862C30.5006 12.2491 30.2373 12.8849 29.7686 13.3537V13.3512Z" fill="black"/>
</svg>
