<svg width="32" height="32" viewBox="0 0 32 32" fill="none" xmlns="http://www.w3.org/2000/svg">
<path d="M27.11 25.9914L7.11 3.99138C6.97827 3.84289 6.81838 3.72202 6.6396 3.63578C6.46082 3.54954 6.26669 3.49965 6.06849 3.48898C5.87028 3.47832 5.67192 3.5071 5.48492 3.57366C5.29791 3.64022 5.12598 3.74324 4.97908 3.87674C4.83218 4.01023 4.71324 4.17156 4.62915 4.35137C4.54506 4.53117 4.4975 4.72588 4.48921 4.9242C4.48093 5.12252 4.51208 5.32052 4.58088 5.50671C4.64968 5.6929 4.75475 5.86359 4.89 6.00888L7.75 9.14888L5.74125 20.5001H5C4.60218 20.5001 4.22064 20.6582 3.93934 20.9395C3.65804 21.2208 3.5 21.6023 3.5 22.0001C3.5 22.398 3.65804 22.7795 3.93934 23.0608C4.22064 23.3421 4.60218 23.5001 5 23.5001H14.5V30.0001C14.5 30.398 14.658 30.7795 14.9393 31.0608C15.2206 31.3421 15.6022 31.5001 16 31.5001C16.3978 31.5001 16.7794 31.3421 17.0607 31.0608C17.342 30.7795 17.5 30.398 17.5 30.0001V23.5001H20.7913L24.89 28.0089C25.1589 28.2978 25.5309 28.469 25.9253 28.4855C26.3197 28.502 26.7046 28.3624 26.9967 28.0969C27.2888 27.8314 27.4645 27.4615 27.4857 27.0674C27.5069 26.6733 27.3719 26.2866 27.11 25.9914ZM8.7875 20.5001L10.2963 11.9551L18.0637 20.5001H8.7875ZM11.2575 5.00013C11.2575 4.6023 11.4155 4.22077 11.6968 3.93947C11.9781 3.65816 12.3597 3.50013 12.7575 3.50013H24C24.3978 3.50013 24.7794 3.65816 25.0607 3.93947C25.342 4.22077 25.5 4.6023 25.5 5.00013C25.5 5.39795 25.342 5.77948 25.0607 6.06079C24.7794 6.34209 24.3978 6.50013 24 6.50013H23.7875L25.7038 17.3551C25.7381 17.5492 25.7339 17.7481 25.6914 17.9405C25.6488 18.1329 25.5688 18.315 25.4559 18.4765C25.3429 18.638 25.1993 18.7756 25.0331 18.8815C24.867 18.9875 24.6816 19.0596 24.4875 19.0939C24.4008 19.1087 24.313 19.1162 24.225 19.1164C23.8725 19.1158 23.5314 18.9911 23.2617 18.7641C22.992 18.5371 22.8108 18.2224 22.75 17.8751L20.7412 6.50013H12.7575C12.3597 6.50013 11.9781 6.34209 11.6968 6.06079C11.4155 5.77948 11.2575 5.39795 11.2575 5.00013Z" fill="black"/>
</svg>
