<svg width="32" height="32" viewBox="0 0 32 32" fill="none" xmlns="http://www.w3.org/2000/svg">
<path d="M12.5 4.5H7C6.33696 4.5 5.70107 4.76339 5.23223 5.23223C4.76339 5.70107 4.5 6.33696 4.5 7V12.5C4.5 13.163 4.76339 13.7989 5.23223 14.2678C5.70107 14.7366 6.33696 15 7 15H12.5C13.163 15 13.7989 14.7366 14.2678 14.2678C14.7366 13.7989 15 13.163 15 12.5V7C15 6.33696 14.7366 5.70107 14.2678 5.23223C13.7989 4.76339 13.163 4.5 12.5 4.5ZM12 12H7.5V7.5H12V12ZM12.5 17H7C6.33696 17 5.70107 17.2634 5.23223 17.7322C4.76339 18.2011 4.5 18.837 4.5 19.5V25C4.5 25.663 4.76339 26.2989 5.23223 26.7678C5.70107 27.2366 6.33696 27.5 7 27.5H12.5C13.163 27.5 13.7989 27.2366 14.2678 26.7678C14.7366 26.2989 15 25.663 15 25V19.5C15 18.837 14.7366 18.2011 14.2678 17.7322C13.7989 17.2634 13.163 17 12.5 17ZM12 24.5H7.5V20H12V24.5ZM25 4.5H19.5C18.837 4.5 18.2011 4.76339 17.7322 5.23223C17.2634 5.70107 17 6.33696 17 7V12.5C17 13.163 17.2634 13.7989 17.7322 14.2678C18.2011 14.7366 18.837 15 19.5 15H25C25.663 15 26.2989 14.7366 26.7678 14.2678C27.2366 13.7989 27.5 13.163 27.5 12.5V7C27.5 6.33696 27.2366 5.70107 26.7678 5.23223C26.2989 4.76339 25.663 4.5 25 4.5ZM24.5 12H20V7.5H24.5V12ZM17 21.5V18.5C17 18.1022 17.158 17.7206 17.4393 17.4393C17.7206 17.158 18.1022 17 18.5 17C18.8978 17 19.2794 17.158 19.5607 17.4393C19.842 17.7206 20 18.1022 20 18.5V21.5C20 21.8978 19.842 22.2794 19.5607 22.5607C19.2794 22.842 18.8978 23 18.5 23C18.1022 23 17.7206 22.842 17.4393 22.5607C17.158 22.2794 17 21.8978 17 21.5ZM27.5 20.5C27.5 20.8978 27.342 21.2794 27.0607 21.5607C26.7794 21.842 26.3978 22 26 22H24.5V26C24.5 26.3978 24.342 26.7794 24.0607 27.0607C23.7794 27.342 23.3978 27.5 23 27.5H18.5C18.1022 27.5 17.7206 27.342 17.4393 27.0607C17.158 26.7794 17 26.3978 17 26C17 25.6022 17.158 25.2206 17.4393 24.9393C17.7206 24.658 18.1022 24.5 18.5 24.5H21.5V18.5C21.5 18.1022 21.658 17.7206 21.9393 17.4393C22.2206 17.158 22.6022 17 23 17C23.3978 17 23.7794 17.158 24.0607 17.4393C24.342 17.7206 24.5 18.1022 24.5 18.5V19H26C26.3978 19 26.7794 19.158 27.0607 19.4393C27.342 19.7206 27.5 20.1022 27.5 20.5Z" fill="black"/>
</svg>
