<svg width="32" height="32" viewBox="0 0 32 32" fill="none" xmlns="http://www.w3.org/2000/svg">
<path d="M3.5 8C3.5 7.60218 3.65804 7.22064 3.93934 6.93934C4.22064 6.65804 4.60218 6.5 5 6.5H27C27.3978 6.5 27.7794 6.65804 28.0607 6.93934C28.342 7.22064 28.5 7.60218 28.5 8C28.5 8.39782 28.342 8.77936 28.0607 9.06066C27.7794 9.34196 27.3978 9.5 27 9.5H5C4.60218 9.5 4.22064 9.34196 3.93934 9.06066C3.65804 8.77936 3.5 8.39782 3.5 8ZM16.5 14.5H5C4.60218 14.5 4.22064 14.658 3.93934 14.9393C3.65804 15.2206 3.5 15.6022 3.5 16C3.5 16.3978 3.65804 16.7794 3.93934 17.0607C4.22064 17.342 4.60218 17.5 5 17.5H16.5C16.8978 17.5 17.2794 17.342 17.5607 17.0607C17.842 16.7794 18 16.3978 18 16C18 15.6022 17.842 15.2206 17.5607 14.9393C17.2794 14.658 16.8978 14.5 16.5 14.5ZM16.5 22.5H5C4.60218 22.5 4.22064 22.658 3.93934 22.9393C3.65804 23.2206 3.5 23.6022 3.5 24C3.5 24.3978 3.65804 24.7794 3.93934 25.0607C4.22064 25.342 4.60218 25.5 5 25.5H16.5C16.8978 25.5 17.2794 25.342 17.5607 25.0607C17.842 24.7794 18 24.3978 18 24C18 23.6022 17.842 23.2206 17.5607 22.9393C17.2794 22.658 16.8978 22.5 16.5 22.5ZM31.5 20C31.5001 20.2545 31.4354 20.5048 31.3121 20.7274C31.1888 20.95 31.0108 21.1376 30.795 21.2725L22.795 26.2725C22.5679 26.4144 22.307 26.493 22.0392 26.5C21.7715 26.507 21.5068 26.4422 21.2726 26.3123C21.0384 26.1825 20.8432 25.9923 20.7074 25.7615C20.5715 25.5307 20.4999 25.2678 20.5 25V15C20.4999 14.7322 20.5715 14.4693 20.7074 14.2385C20.8432 14.0077 21.0384 13.8175 21.2726 13.6877C21.5068 13.5578 21.7715 13.493 22.0392 13.5C22.307 13.507 22.5679 13.5856 22.795 13.7275L30.795 18.7275C31.0108 18.8624 31.1888 19.05 31.3121 19.2726C31.4354 19.4952 31.5001 19.7455 31.5 20ZM27.17 20L23.5 17.7062V22.2938L27.17 20Z" fill="black"/>
</svg>
