<svg width="32" height="32" viewBox="0 0 32 32" fill="none" xmlns="http://www.w3.org/2000/svg">
<path d="M12.5 6.5H5C4.33696 6.5 3.70107 6.76339 3.23223 7.23223C2.76339 7.70107 2.5 8.33696 2.5 9V17C2.5 17.663 2.76339 18.2989 3.23223 18.7678C3.70107 19.2366 4.33696 19.5 5 19.5H12V20C12 20.9283 11.6313 21.8185 10.9749 22.4749C10.3185 23.1313 9.42826 23.5 8.5 23.5C8.10218 23.5 7.72064 23.658 7.43934 23.9393C7.15804 24.2206 7 24.6022 7 25C7 25.3978 7.15804 25.7794 7.43934 26.0607C7.72064 26.342 8.10218 26.5 8.5 26.5C10.2233 26.498 11.8754 25.8126 13.094 24.594C14.3126 23.3754 14.998 21.7233 15 20V9C15 8.33696 14.7366 7.70107 14.2678 7.23223C13.7989 6.76339 13.163 6.5 12.5 6.5ZM12 16.5H5.5V9.5H12V16.5ZM27 6.5H19.5C18.837 6.5 18.2011 6.76339 17.7322 7.23223C17.2634 7.70107 17 8.33696 17 9V17C17 17.663 17.2634 18.2989 17.7322 18.7678C18.2011 19.2366 18.837 19.5 19.5 19.5H26.5V20C26.5 20.9283 26.1313 21.8185 25.4749 22.4749C24.8185 23.1313 23.9283 23.5 23 23.5C22.6022 23.5 22.2206 23.658 21.9393 23.9393C21.658 24.2206 21.5 24.6022 21.5 25C21.5 25.3978 21.658 25.7794 21.9393 26.0607C22.2206 26.342 22.6022 26.5 23 26.5C24.7233 26.498 26.3754 25.8126 27.594 24.594C28.8126 23.3754 29.498 21.7233 29.5 20V9C29.5 8.33696 29.2366 7.70107 28.7678 7.23223C28.2989 6.76339 27.663 6.5 27 6.5ZM26.5 16.5H20V9.5H26.5V16.5Z" fill="black"/>
</svg>
