<svg width="32" height="32" viewBox="0 0 32 32" fill="none" xmlns="http://www.w3.org/2000/svg">
<path d="M29.4999 9V12C29.4999 12.1326 29.4472 12.2598 29.3535 12.3536C29.2597 12.4473 29.1325 12.5 28.9999 12.5C28.8673 12.5 28.7401 12.4473 28.6464 12.3536C28.5526 12.2598 28.4999 12.1326 28.4999 12V9.5H15.3462L9.47117 25.175C9.43541 25.2703 9.37144 25.3524 9.28779 25.4103C9.20414 25.4683 9.1048 25.4993 9.00304 25.4993C8.90128 25.4993 8.80194 25.4683 8.71829 25.4103C8.63464 25.3524 8.57067 25.2703 8.53492 25.175L2.53492 9.175C2.48952 9.05111 2.49494 8.91431 2.54998 8.7944C2.60502 8.67448 2.70523 8.58119 2.82876 8.53484C2.9523 8.4885 3.08914 8.49286 3.20947 8.54698C3.32981 8.60109 3.42387 8.70058 3.47117 8.82375L8.99992 23.5763L14.5324 8.82625C14.5678 8.73072 14.6316 8.64828 14.7151 8.58997C14.7987 8.53166 14.898 8.50027 14.9999 8.5H28.9999C29.1325 8.5 29.2597 8.55268 29.3535 8.64645C29.4472 8.74021 29.4999 8.86739 29.4999 9Z" fill="black"/>
</svg>
