<svg width="32" height="32" viewBox="0 0 32 32" fill="none" xmlns="http://www.w3.org/2000/svg">
<path opacity="0.08" d="M11.5001 16H5.00008C4.85978 15.9989 4.72125 15.9686 4.59326 15.9112C4.46528 15.8537 4.35064 15.7702 4.25662 15.6661C4.16259 15.562 4.09124 15.4394 4.04707 15.3063C4.00291 15.1731 3.98691 15.0322 4.00008 14.8925C4.15847 13.163 4.69063 11.4885 5.55976 9.98487C6.42888 8.48122 7.61422 7.18429 9.03382 6.18376C9.14736 6.1034 9.27641 6.04762 9.41273 6.01996C9.54905 5.99231 9.68964 5.9934 9.82552 6.02316C9.96139 6.05292 10.0896 6.11071 10.2018 6.19281C10.3141 6.27492 10.408 6.37955 10.4776 6.50001L13.7276 12.1175C13.0498 12.5141 12.4876 13.0811 12.0969 13.7622C11.7061 14.4433 11.5003 15.2148 11.5001 16ZM18.2501 19.8975C17.566 20.2925 16.79 20.5004 16.0001 20.5004C15.2102 20.5004 14.4342 20.2925 13.7501 19.8975L10.5213 25.4888C10.4518 25.609 10.4082 25.7424 10.3931 25.8804C10.378 26.0185 10.3918 26.1582 10.4337 26.2906C10.4755 26.423 10.5445 26.5452 10.6362 26.6495C10.7279 26.7538 10.8404 26.8378 10.9663 26.8963C12.5448 27.6235 14.2621 28 16.0001 28C17.738 28 19.4553 27.6235 21.0338 26.8963C21.1598 26.8378 21.2722 26.7538 21.3639 26.6495C21.4556 26.5452 21.5246 26.423 21.5665 26.2906C21.6083 26.1582 21.6222 26.0185 21.6071 25.8804C21.592 25.7424 21.5483 25.609 21.4788 25.4888L18.2501 19.8975ZM28.0001 14.8975C27.8421 13.1683 27.3105 11.494 26.4421 9.9904C25.5736 8.48677 24.389 7.18967 22.9701 6.18876C22.8567 6.10756 22.7277 6.05095 22.5912 6.02258C22.4547 5.9942 22.3137 5.99469 22.1774 6.024C22.0411 6.05331 21.9125 6.11079 21.7997 6.19277C21.6869 6.27475 21.5925 6.3794 21.5226 6.50001L18.2788 12.125C18.9212 12.5008 19.4603 13.03 19.848 13.6652C20.2356 14.3005 20.4597 15.0219 20.5001 15.765C20.5001 15.8425 20.5063 15.9188 20.5063 15.9963H27.0063C27.1457 15.9943 27.2832 15.9635 27.4102 15.9058C27.5372 15.8482 27.6509 15.765 27.7442 15.6613C27.8375 15.5577 27.9083 15.4359 27.9524 15.3036C27.9964 15.1713 28.0127 15.0314 28.0001 14.8925V14.8975Z" fill="black"/>
<path d="M14.4998 16.0001C14.4998 15.7034 14.5878 15.4134 14.7526 15.1667C14.9174 14.92 15.1517 14.7278 15.4258 14.6142C15.6999 14.5007 16.0015 14.471 16.2924 14.5289C16.5834 14.5868 16.8507 14.7296 17.0605 14.9394C17.2702 15.1492 17.4131 15.4165 17.471 15.7074C17.5289 15.9984 17.4992 16.3 17.3856 16.5741C17.2721 16.8482 17.0798 17.0824 16.8332 17.2473C16.5865 17.4121 16.2965 17.5001 15.9998 17.5001C15.602 17.5001 15.2205 17.342 14.9391 17.0607C14.6578 16.7794 14.4998 16.3979 14.4998 16.0001ZM12.4998 16.0001C12.4998 15.7348 12.3944 15.4805 12.2069 15.293C12.0194 15.1054 11.765 15.0001 11.4998 15.0001H5.00856C5.00561 14.9977 5.00327 14.9946 5.00175 14.9911C5.00023 14.9876 4.99956 14.9838 4.99981 14.9801C5.14413 13.3952 5.63128 11.8607 6.4275 10.4827C7.22373 9.10484 8.31 7.9165 9.61106 7.00006L12.8611 12.6251C12.9267 12.7388 13.0141 12.8385 13.1183 12.9185C13.2225 12.9985 13.3415 13.0571 13.4683 13.0911C13.5952 13.1252 13.7275 13.1338 13.8577 13.1167C13.988 13.0996 14.1135 13.057 14.2273 12.9913C14.3411 12.9256 14.4408 12.8382 14.5207 12.734C14.6007 12.6298 14.6594 12.5109 14.6934 12.384C14.7274 12.2572 14.7361 12.1248 14.719 11.9946C14.7018 11.8644 14.6592 11.7388 14.5936 11.6251L11.3436 6.00006C11.2046 5.75903 11.0168 5.54966 10.7923 5.38532C10.5678 5.22098 10.3115 5.10529 10.0397 5.04564C9.76798 4.986 9.48676 4.98371 9.21407 5.03893C8.94138 5.09414 8.68321 5.20564 8.45606 5.36631C6.91838 6.45035 5.63476 7.85574 4.69414 9.4851C3.75351 11.1145 3.17837 12.9289 3.00856 14.8026C2.98351 15.0823 3.01692 15.3643 3.10665 15.6305C3.19639 15.8967 3.34049 16.1413 3.52981 16.3488C3.71644 16.5532 3.94345 16.7166 4.19648 16.8287C4.44951 16.9408 4.72306 16.9991 4.99981 17.0001H11.4998C11.765 17.0001 12.0194 16.8947 12.2069 16.7072C12.3944 16.5196 12.4998 16.2653 12.4998 16.0001ZM28.9911 14.8026C28.8212 12.9289 28.2461 11.1145 27.3055 9.4851C26.3649 7.85574 25.0812 6.45035 23.5436 5.36631C23.3164 5.20564 23.0582 5.09414 22.7855 5.03893C22.5129 4.98371 22.2316 4.986 21.9599 5.04564C21.6881 5.10529 21.4318 5.22098 21.2073 5.38532C20.9828 5.54966 20.795 5.75903 20.6561 6.00006L17.4123 11.6251C17.3466 11.7388 17.304 11.8644 17.2869 11.9946C17.2698 12.1248 17.2785 12.2572 17.3125 12.384C17.3812 12.6403 17.5488 12.8587 17.7786 12.9913C18.0083 13.1239 18.2813 13.1598 18.5375 13.0911C18.6644 13.0571 18.7833 12.9985 18.8875 12.9185C18.9917 12.8385 19.0791 12.7388 19.1448 12.6251L22.3948 7.00006C23.6948 7.91764 24.7799 9.10671 25.575 10.485C26.3701 11.8633 26.8562 13.3979 26.9998 14.9826C26.9998 14.9913 26.9998 14.9976 26.9998 15.0001H20.4998C20.2346 15.0001 19.9802 15.1054 19.7927 15.293C19.6052 15.4805 19.4998 15.7348 19.4998 16.0001C19.4998 16.2653 19.6052 16.5196 19.7927 16.7072C19.9802 16.8947 20.2346 17.0001 20.4998 17.0001H26.9998C27.2766 16.9991 27.5501 16.9408 27.8031 16.8287C28.0562 16.7166 28.2832 16.5532 28.4698 16.3488C28.6591 16.1413 28.8032 15.8967 28.893 15.6305C28.9827 15.3643 29.0161 15.0823 28.9911 14.8026ZM19.1161 19.3976C19.0504 19.2838 18.963 19.1841 18.8588 19.1041C18.7546 19.0241 18.6357 18.9655 18.5088 18.9315C18.3819 18.8975 18.2496 18.8888 18.1194 18.9059C17.9891 18.923 17.8636 18.9656 17.7498 19.0313C17.636 19.097 17.5363 19.1844 17.4564 19.2886C17.3764 19.3928 17.3177 19.5117 17.2837 19.6386C17.2497 19.7654 17.241 19.8978 17.2582 20.028C17.2753 20.1582 17.3179 20.2838 17.3836 20.3976L20.6136 25.9888C19.1669 26.6551 17.5931 27.0001 16.0004 27.0001C14.4077 27.0001 12.8339 26.6551 11.3873 25.9888L14.6161 20.3976C14.6817 20.2838 14.7243 20.1582 14.7415 20.028C14.7586 19.8978 14.7499 19.7654 14.7159 19.6386C14.6819 19.5117 14.6232 19.3928 14.5432 19.2886C14.4633 19.1844 14.3636 19.097 14.2498 19.0313C14.136 18.9656 14.0105 18.923 13.8802 18.9059C13.75 18.8888 13.6177 18.8975 13.4908 18.9315C13.364 18.9655 13.245 19.0241 13.1408 19.1041C13.0366 19.1841 12.9492 19.2838 12.8836 19.3976L9.65606 24.9888C9.51709 25.2293 9.42973 25.4961 9.39954 25.7722C9.36936 26.0483 9.39701 26.3276 9.48074 26.5924C9.56446 26.8573 9.70243 27.1017 9.88584 27.3103C10.0693 27.5189 10.2941 27.6869 10.5461 27.8038C12.2562 28.5919 14.1168 29.0001 15.9998 29.0001C17.8828 29.0001 19.7434 28.5919 21.4536 27.8038C21.7055 27.6869 21.9304 27.5189 22.1138 27.3103C22.2972 27.1017 22.4352 26.8573 22.5189 26.5924C22.6026 26.3276 22.6303 26.0483 22.6001 25.7722C22.5699 25.4961 22.4825 25.2293 22.3436 24.9888L19.1161 19.3976Z" fill="black"/>
</svg>
