<svg width="32" height="32" viewBox="0 0 32 32" fill="none" xmlns="http://www.w3.org/2000/svg">
<path d="M29.7499 8.99989V11.9999C29.7499 12.1988 29.6709 12.3896 29.5302 12.5302C29.3896 12.6709 29.1988 12.7499 28.9999 12.7499C28.801 12.7499 28.6102 12.6709 28.4696 12.5302C28.3289 12.3896 28.2499 12.1988 28.2499 11.9999V9.74989H15.5199L9.70239 25.2636C9.64888 25.4068 9.55293 25.5301 9.42739 25.6172C9.30184 25.7043 9.15269 25.751 8.99989 25.751C8.8471 25.751 8.69794 25.7043 8.5724 25.6172C8.44685 25.5301 8.3509 25.4068 8.29739 25.2636L2.29739 9.26364C2.22744 9.07733 2.23437 8.87086 2.31665 8.68965C2.39893 8.50844 2.54983 8.36734 2.73614 8.29739C2.92246 8.22744 3.12893 8.23437 3.31014 8.31665C3.49134 8.39893 3.63244 8.54983 3.70239 8.73614L8.99989 22.8636L14.2974 8.73864C14.3507 8.59526 14.4465 8.47159 14.5721 8.38424C14.6977 8.29688 14.8469 8.25 14.9999 8.24989H28.9999C29.1988 8.24989 29.3896 8.32891 29.5302 8.46956C29.6709 8.61021 29.7499 8.80098 29.7499 8.99989Z" fill="black"/>
</svg>
