<svg width="32" height="32" viewBox="0 0 32 32" fill="none" xmlns="http://www.w3.org/2000/svg">
<path d="M14.4998 16.0001C14.4998 15.7034 14.5878 15.4134 14.7526 15.1667C14.9174 14.92 15.1517 14.7278 15.4258 14.6142C15.6999 14.5007 16.0015 14.471 16.2924 14.5289C16.5834 14.5868 16.8507 14.7296 17.0605 14.9394C17.2702 15.1492 17.4131 15.4165 17.471 15.7074C17.5289 15.9984 17.4992 16.3 17.3856 16.5741C17.2721 16.8482 17.0798 17.0824 16.8332 17.2473C16.5865 17.4121 16.2965 17.5001 15.9998 17.5001C15.602 17.5001 15.2205 17.342 14.9391 17.0607C14.6578 16.7794 14.4998 16.3979 14.4998 16.0001ZM12.2073 16.7063C12.3945 16.5189 12.4997 16.2649 12.4998 16.0001C12.5012 15.3901 12.6613 14.791 12.9644 14.2617C13.2675 13.7324 13.7032 13.2912 14.2286 12.9813C14.4544 12.8475 14.6185 12.6304 14.6857 12.3766C14.7528 12.1229 14.7174 11.853 14.5873 11.6251L11.3436 6.00006C11.2046 5.75903 11.0168 5.54966 10.7923 5.38532C10.5678 5.22098 10.3115 5.10529 10.0397 5.04564C9.76798 4.986 9.48676 4.98371 9.21407 5.03893C8.94138 5.09414 8.68321 5.20564 8.45606 5.36631C6.91838 6.45035 5.63476 7.85574 4.69414 9.4851C3.75351 11.1145 3.17837 12.9289 3.00856 14.8026C2.98351 15.0823 3.01692 15.3643 3.10665 15.6305C3.19639 15.8967 3.34049 16.1413 3.52981 16.3488C3.71644 16.5532 3.94345 16.7166 4.19648 16.8287C4.44951 16.9408 4.72306 16.9991 4.99981 17.0001H11.4998C11.6313 17 11.7614 16.974 11.8828 16.9236C12.0042 16.8732 12.1145 16.7994 12.2073 16.7063ZM19.1161 19.3976C18.9833 19.168 18.7647 19.0006 18.5085 18.9321C18.2523 18.8637 17.9794 18.8998 17.7498 19.0326C17.2175 19.3391 16.6141 19.5005 15.9998 19.5005C15.3856 19.5005 14.7821 19.3391 14.2498 19.0326C14.1361 18.9669 14.0105 18.9242 13.8802 18.9071C13.75 18.89 13.6177 18.8986 13.4908 18.9326C13.3639 18.9667 13.245 19.0253 13.1408 19.1053C13.0366 19.1853 12.9492 19.285 12.8836 19.3988L9.65606 24.9888C9.51709 25.2293 9.42973 25.4961 9.39954 25.7722C9.36936 26.0483 9.39701 26.3276 9.48074 26.5924C9.56446 26.8573 9.70243 27.1017 9.88584 27.3103C10.0693 27.5189 10.2941 27.6869 10.5461 27.8038C12.2562 28.5919 14.1168 29.0001 15.9998 29.0001C17.8828 29.0001 19.7434 28.5919 21.4536 27.8038C21.7055 27.6869 21.9304 27.5189 22.1138 27.3103C22.2972 27.1017 22.4352 26.8573 22.5189 26.5924C22.6026 26.3276 22.6303 26.0483 22.6001 25.7722C22.5699 25.4961 22.4825 25.2293 22.3436 24.9888L19.1161 19.3976ZM28.9911 14.8026C28.8212 12.9289 28.2461 11.1145 27.3055 9.4851C26.3649 7.85574 25.0812 6.45035 23.5436 5.36631C23.3164 5.20564 23.0582 5.09414 22.7855 5.03893C22.5129 4.98371 22.2316 4.986 21.9599 5.04564C21.6881 5.10529 21.4318 5.22098 21.2073 5.38532C20.9828 5.54966 20.795 5.75903 20.6561 6.00006L17.4123 11.6251C17.2802 11.8535 17.2438 12.125 17.311 12.3802C17.3782 12.6354 17.5436 12.8538 17.7711 12.9876C18.2707 13.2796 18.6902 13.6909 18.9919 14.1848C19.2936 14.6787 19.4681 15.2397 19.4998 15.8176C19.4998 15.8776 19.4998 15.9426 19.4998 15.9976C19.4998 16.1289 19.5257 16.2589 19.5759 16.3802C19.6262 16.5016 19.6998 16.6118 19.7927 16.7047C19.8856 16.7975 19.9958 16.8712 20.1171 16.9214C20.2385 16.9717 20.3685 16.9976 20.4998 16.9976H26.9998C27.2766 16.9966 27.5501 16.9383 27.8031 16.8262C28.0562 16.7141 28.2832 16.5507 28.4698 16.3463C28.6588 16.1391 28.8027 15.8949 28.8924 15.6291C28.9822 15.3634 29.0157 15.0819 28.9911 14.8026Z" fill="black"/>
</svg>
