<svg width="32" height="32" viewBox="0 0 32 32" fill="none" xmlns="http://www.w3.org/2000/svg">
<path d="M15.9999 14C16.3954 14 16.7821 14.1172 17.111 14.337C17.4399 14.5568 17.6963 14.8691 17.8476 15.2346C17.999 15.6 18.0386 16.0022 17.9614 16.3901C17.8843 16.7781 17.6938 17.1345 17.4141 17.4142C17.1344 17.6939 16.778 17.8844 16.3901 17.9615C16.0021 18.0387 15.6 17.9991 15.2345 17.8477C14.8691 17.6963 14.5567 17.44 14.3369 17.1111C14.1172 16.7822 13.9999 16.3955 13.9999 16C13.9999 15.4695 14.2106 14.9608 14.5857 14.5857C14.9607 14.2107 15.4694 14 15.9999 14ZM11.9999 16C11.9999 15.6021 11.8418 15.2206 11.5605 14.9393C11.2792 14.658 10.8977 14.5 10.4999 14.5H5.55862C5.93942 11.8274 7.33637 9.40465 9.45862 7.7362L11.9224 12C12.0189 12.1743 12.1491 12.3277 12.3056 12.4512C12.462 12.5746 12.6415 12.6657 12.8335 12.719C13.0255 12.7723 13.2263 12.7868 13.424 12.7617C13.6216 12.7365 13.8124 12.6723 13.9849 12.5726C14.1575 12.4729 14.3085 12.3399 14.4291 12.1812C14.5497 12.0226 14.6374 11.8415 14.6872 11.6485C14.737 11.4555 14.7479 11.2546 14.7191 11.0574C14.6904 10.8602 14.6227 10.6707 14.5199 10.5L11.7699 5.74995C11.5962 5.44874 11.3615 5.18707 11.081 4.98168C10.8004 4.77628 10.4801 4.63167 10.1404 4.55709C9.80082 4.48251 9.44937 4.47959 9.10856 4.54853C8.76774 4.61746 8.44506 4.75674 8.16112 4.95745C6.56427 6.08339 5.23125 7.54297 4.25437 9.23513C3.2775 10.9273 2.68013 12.8116 2.50362 14.7575C2.47253 15.1065 2.51436 15.4583 2.62648 15.7903C2.73859 16.1223 2.91853 16.4274 3.15487 16.6862C3.38904 16.9425 3.67403 17.1472 3.99169 17.2873C4.30934 17.4275 4.65269 17.4999 4.99987 17.5H10.4999C10.8977 17.5 11.2792 17.3419 11.5605 17.0606C11.8418 16.7793 11.9999 16.3978 11.9999 16ZM29.4899 14.7575C29.3135 12.8117 28.7162 10.9275 27.7393 9.23556C26.7624 7.54359 25.4293 6.08426 23.8324 4.9587C23.5485 4.75794 23.2259 4.61859 22.8851 4.54956C22.5444 4.48053 22.193 4.48334 21.8534 4.5578C21.5137 4.63226 21.1934 4.77675 20.9128 4.98202C20.6322 5.18729 20.3974 5.44884 20.2236 5.74995L17.4799 10.5C17.2895 10.8439 17.2418 11.2488 17.347 11.6275C17.4521 12.0063 17.7018 12.3287 18.0422 12.5252C18.3826 12.7218 18.7866 12.7769 19.1672 12.6787C19.5478 12.5804 19.8746 12.3367 20.0774 12L22.5411 7.7337C24.6639 9.40275 26.0609 11.8265 26.4411 14.5H21.4999C21.102 14.5 20.7205 14.658 20.4392 14.9393C20.1579 15.2206 19.9999 15.6021 19.9999 16C19.9999 16.3978 20.1579 16.7793 20.4392 17.0606C20.7205 17.3419 21.102 17.5 21.4999 17.5H26.9999C27.346 17.499 27.6882 17.4262 28.0047 17.2861C28.3212 17.146 28.6052 16.9417 28.8386 16.6862C29.075 16.4274 29.2549 16.1223 29.367 15.7903C29.4791 15.4583 29.521 15.1065 29.4899 14.7575ZM20.0499 20.0137C19.851 19.6691 19.5233 19.4176 19.139 19.3146C18.7546 19.2115 18.3451 19.2654 18.0005 19.4643C17.6559 19.6632 17.4044 19.9909 17.3014 20.3752C17.1983 20.7596 17.2522 21.1691 17.4511 21.5137L19.8986 25.75C17.395 26.7466 14.6047 26.7466 12.1011 25.75L14.5486 21.5112C14.7475 21.1666 14.8014 20.7571 14.6984 20.3727C14.5953 19.9884 14.3439 19.6607 13.9992 19.4618C13.6546 19.2629 13.2451 19.209 12.8608 19.3121C12.4764 19.4151 12.1488 19.6666 11.9499 20.0112L9.22237 24.7362C9.0487 25.0369 8.93957 25.3704 8.90192 25.7156C8.86428 26.0608 8.89895 26.41 9.00373 26.741C9.10851 27.0721 9.2811 27.3777 9.5105 27.6383C9.7399 27.899 10.0211 28.109 10.3361 28.255C12.1121 29.0735 14.0443 29.4974 15.9999 29.4974C17.9554 29.4974 19.8877 29.0735 21.6636 28.255C21.9787 28.109 22.2598 27.899 22.4892 27.6383C22.7186 27.3777 22.8912 27.0721 22.996 26.741C23.1008 26.41 23.1355 26.0608 23.0978 25.7156C23.0602 25.3704 22.951 25.0369 22.7774 24.7362L20.0499 20.0137Z" fill="black"/>
</svg>
