<svg width="32" height="32" viewBox="0 0 32 32" fill="none" xmlns="http://www.w3.org/2000/svg">
<path d="M30.5 8.99997V12C30.5 12.3978 30.342 12.7793 30.0607 13.0606C29.7794 13.3419 29.3978 13.5 29 13.5C28.6022 13.5 28.2207 13.3419 27.9394 13.0606C27.6581 12.7793 27.5 12.3978 27.5 12V10.5H16.04L10.405 25.5262C10.2978 25.812 10.1058 26.0583 9.8549 26.2322C9.60395 26.4061 9.30593 26.4992 9.00064 26.4992C8.69535 26.4992 8.39733 26.4061 8.14639 26.2322C7.89544 26.0583 7.70353 25.812 7.59627 25.5262L1.59627 9.52622C1.52531 9.34142 1.49163 9.1444 1.49717 8.94653C1.50271 8.74865 1.54737 8.55383 1.62856 8.37329C1.70975 8.19275 1.82588 8.03007 1.97024 7.89462C2.11461 7.75917 2.28435 7.65364 2.46969 7.58411C2.65503 7.51457 2.8523 7.48241 3.05013 7.48948C3.24796 7.49655 3.44244 7.5427 3.62234 7.62529C3.80225 7.70787 3.96403 7.82524 4.09836 7.97065C4.23269 8.11605 4.33691 8.2866 4.40502 8.47247L9.00002 20.7225L13.5963 8.47247C13.7036 8.18684 13.8954 7.94072 14.1462 7.76696C14.3971 7.5932 14.6949 7.50006 15 7.49997H29C29.3978 7.49997 29.7794 7.65801 30.0607 7.93931C30.342 8.22062 30.5 8.60215 30.5 8.99997Z" fill="black"/>
</svg>
