<svg width="32" height="32" viewBox="0 0 32 32" fill="none" xmlns="http://www.w3.org/2000/svg">
<path d="M25.5 13.5C24.2585 13.5034 23.0437 13.8606 21.998 14.5299C20.9523 15.1992 20.1192 16.1528 19.5963 17.2788H19.5C17.0187 17.2788 15 19.3475 15 21.89C15 24.4325 17.0187 26.5 19.5 26.5H25.5C27.2239 26.5 28.8772 25.8152 30.0962 24.5962C31.3152 23.3772 32 21.7239 32 20C32 18.2761 31.3152 16.6228 30.0962 15.4038C28.8772 14.1848 27.2239 13.5 25.5 13.5ZM25.5 23.5H19.5C18.6725 23.5 18 22.7775 18 21.8888C18 21 18.6725 20.2775 19.5 20.2775C19.6827 20.2768 19.8637 20.3125 20.0325 20.3825C20.2368 20.4663 20.457 20.5039 20.6775 20.4927C20.898 20.4815 21.1133 20.4217 21.308 20.3177C21.5027 20.2137 21.6721 20.068 21.804 19.891C21.936 19.714 22.0272 19.5101 22.0713 19.2938C22.2048 18.6454 22.5195 18.0483 22.9788 17.5716C23.4381 17.0949 24.0231 16.7582 24.666 16.6007C25.309 16.4431 25.9834 16.471 26.6111 16.6813C27.2387 16.8916 27.7939 17.2755 28.2121 17.7886C28.6304 18.3017 28.8945 18.9229 28.974 19.58C29.0534 20.2372 28.9448 20.9034 28.6609 21.5014C28.377 22.0993 27.9293 22.6045 27.3698 22.9583C26.8103 23.312 26.1619 23.4999 25.5 23.5ZM13.6525 17.105C13.8962 17.4192 14.0051 17.8173 13.9554 18.2118C13.9057 18.6062 13.7015 18.9648 13.3875 19.2088C13.2668 19.3023 13.1691 19.4223 13.1019 19.5594C13.0347 19.6966 12.9999 19.8473 13 20V22C13 22.3979 12.842 22.7794 12.5607 23.0607C12.2794 23.342 11.8978 23.5 11.5 23.5C11.1022 23.5 10.7206 23.342 10.4393 23.0607C10.158 22.7794 10 22.3979 10 22V20C9.99811 19.3899 10.1367 18.7875 10.4051 18.2395C10.6734 17.6915 11.0643 17.2126 11.5475 16.84C11.7031 16.7192 11.881 16.6302 12.071 16.5781C12.261 16.526 12.4594 16.5119 12.6549 16.5365C12.8504 16.5611 13.0391 16.624 13.2103 16.7215C13.3814 16.8191 13.5317 16.9494 13.6525 17.105ZM17.0825 14.855C16.1721 14.3099 15.1335 14.0159 14.0724 14.0031C13.0114 13.9903 11.966 14.2591 11.0427 14.7821C10.1194 15.3051 9.35137 16.0636 8.81685 16.9803C8.28233 17.8969 8.00047 18.9389 8 20V22C8 22.3979 7.84196 22.7794 7.56066 23.0607C7.27936 23.342 6.89782 23.5 6.5 23.5C6.10218 23.5 5.72064 23.342 5.43934 23.0607C5.15804 22.7794 5 22.3979 5 22V20C4.9999 18.4079 5.42219 16.8442 6.22376 15.4685C7.02533 14.0928 8.1775 12.9544 9.56271 12.1694C10.9479 11.3844 12.5166 10.9809 14.1086 11.0001C15.7007 11.0194 17.2591 11.4606 18.625 12.2788C18.9661 12.4835 19.212 12.8153 19.3084 13.2013C19.4049 13.5873 19.3441 13.9958 19.1394 14.3369C18.9347 14.678 18.6028 14.9239 18.2168 15.0203C17.8309 15.1168 17.4224 15.056 17.0812 14.8513L17.0825 14.855ZM3 20V22C3 22.3979 2.84196 22.7794 2.56066 23.0607C2.27936 23.342 1.89782 23.5 1.5 23.5C1.10218 23.5 0.720644 23.342 0.43934 23.0607C0.158035 22.7794 1.41934e-08 22.3979 1.41934e-08 22V20C-0.000120895 17.3143 0.772253 14.6853 2.22501 12.4265C3.67776 10.1676 5.74957 8.37428 8.19336 7.26037C10.6371 6.14645 13.3498 5.75896 16.0077 6.1441C18.6656 6.52925 21.1567 7.67077 23.1838 9.43253C23.4839 9.6936 23.6681 10.0632 23.6958 10.4601C23.7235 10.857 23.5923 11.2486 23.3312 11.5488C23.0702 11.849 22.7005 12.0332 22.3037 12.0608C21.9068 12.0885 21.5152 11.9574 21.215 11.6963C19.6222 10.3123 17.665 9.41555 15.5767 9.1131C13.4884 8.81065 11.3571 9.11523 9.43715 9.9905C7.51715 10.8658 5.88942 12.2748 4.74807 14.0496C3.60671 15.8243 2.9999 17.8899 3 20Z" fill="black"/>
</svg>
