<svg width="32" height="32" viewBox="0 0 32 32" fill="none" xmlns="http://www.w3.org/2000/svg">
<path d="M26.4351 4.41493L10.1538 1.53993C9.83043 1.48272 9.49893 1.48979 9.17828 1.56073C8.85762 1.63167 8.55408 1.7651 8.28501 1.95338C8.01593 2.14166 7.78659 2.38112 7.61008 2.65806C7.43357 2.93501 7.31336 3.24402 7.25631 3.56743L3.53756 24.6924C3.42275 25.3452 3.57183 26.0168 3.95202 26.5596C4.33221 27.1025 4.9124 27.4722 5.56506 27.5874L21.8463 30.4624C21.9916 30.4882 22.1388 30.5012 22.2863 30.5012C22.8748 30.5015 23.4445 30.2942 23.8952 29.9158C24.3458 29.5373 24.6486 29.0121 24.7501 28.4324L28.4688 7.30743C28.5252 6.98397 28.5174 6.65256 28.4457 6.33212C28.374 6.01169 28.2399 5.70852 28.0511 5.43992C27.8622 5.17132 27.6223 4.94255 27.345 4.76668C27.0678 4.59081 26.7585 4.47129 26.4351 4.41493ZM21.8751 27.4199L6.57881 24.7187L10.1251 4.57993L25.4213 7.28118L21.8751 27.4199ZM11.4876 8.37493C11.5568 7.98328 11.7787 7.63514 12.1045 7.40706C12.4303 7.17899 12.8334 7.08965 13.2251 7.15868L21.6251 8.64243C22.0007 8.70004 22.3405 8.89808 22.5758 9.19656C22.811 9.49503 22.9242 9.87168 22.8925 10.2504C22.8607 10.6291 22.6864 10.9817 22.4047 11.2368C22.1231 11.492 21.7551 11.6307 21.3751 11.6249C21.2871 11.6248 21.1993 11.6173 21.1126 11.6024L12.7038 10.1124C12.3122 10.0432 11.964 9.82133 11.7359 9.49551C11.5079 9.16968 11.4185 8.76662 11.4876 8.37493ZM10.6251 13.2987C10.6593 13.1046 10.7315 12.9192 10.8374 12.7531C10.9433 12.5869 11.081 12.4433 11.2424 12.3303C11.4039 12.2174 11.5861 12.1373 11.7785 12.0948C11.9709 12.0523 12.1698 12.0481 12.3638 12.0824L20.7663 13.5674C21.1351 13.6339 21.4657 13.8359 21.693 14.1339C21.9203 14.4318 22.0279 14.8041 21.9945 15.1773C21.9611 15.5506 21.7892 15.8978 21.5126 16.1507C21.236 16.4036 20.8748 16.5438 20.5001 16.5437C20.4121 16.5436 20.3243 16.5361 20.2376 16.5212L11.8363 15.0362C11.4456 14.9658 11.0987 14.7434 10.8716 14.4177C10.6446 14.0921 10.5559 13.6896 10.6251 13.2987ZM9.75006 18.2224C9.81926 17.8308 10.0412 17.4826 10.367 17.2546C10.6928 17.0265 11.0959 16.9371 11.4876 17.0062L15.6926 17.7499C16.0623 17.8147 16.3943 18.0157 16.623 18.3133C16.8517 18.6109 16.9606 18.9834 16.9281 19.3573C16.8956 19.7312 16.7241 20.0794 16.4475 20.333C16.1708 20.5867 15.8091 20.7274 15.4338 20.7274C15.3458 20.7275 15.2579 20.7195 15.1713 20.7037L10.9701 19.9624C10.7756 19.9286 10.5896 19.8567 10.423 19.7509C10.2563 19.6451 10.1121 19.5074 9.99879 19.3457C9.88545 19.1841 9.80513 19.0016 9.76245 18.8089C9.71977 18.6161 9.71556 18.4168 9.75006 18.2224Z" fill="black"/>
</svg>
