<svg width="32" height="32" viewBox="0 0 32 32" fill="none" xmlns="http://www.w3.org/2000/svg">
<path d="M8.5 12.5C8.5 12.1022 8.65804 11.7206 8.93934 11.4393C9.22064 11.158 9.60218 11 10 11H22C22.3978 11 22.7794 11.158 23.0607 11.4393C23.342 11.7206 23.5 12.1022 23.5 12.5C23.5 12.8978 23.342 13.2794 23.0607 13.5607C22.7794 13.842 22.3978 14 22 14H10C9.60218 14 9.22064 13.842 8.93934 13.5607C8.65804 13.2794 8.5 12.8978 8.5 12.5ZM10 19H22C22.3978 19 22.7794 18.842 23.0607 18.5607C23.342 18.2794 23.5 17.8978 23.5 17.5C23.5 17.1022 23.342 16.7206 23.0607 16.4393C22.7794 16.158 22.3978 16 22 16H10C9.60218 16 9.22064 16.158 8.93934 16.4393C8.65804 16.7206 8.5 17.1022 8.5 17.5C8.5 17.8978 8.65804 18.2794 8.93934 18.5607C9.22064 18.842 9.60218 19 10 19ZM29.5 7V26C29.5 26.2557 29.4346 26.5072 29.31 26.7305C29.1854 26.9538 29.0059 27.1416 28.7883 27.276C28.5708 27.4104 28.3225 27.4869 28.067 27.4983C27.8116 27.5098 27.5574 27.4557 27.3288 27.3412L24 25.6775L20.6712 27.3412C20.4629 27.4455 20.233 27.4998 20 27.4998C19.767 27.4998 19.5371 27.4455 19.3288 27.3412L16 25.6775L12.6713 27.3412C12.4629 27.4455 12.233 27.4998 12 27.4998C11.767 27.4998 11.5371 27.4455 11.3287 27.3412L8 25.6775L4.67125 27.3412C4.44257 27.4557 4.18844 27.5098 3.93298 27.4983C3.67753 27.4869 3.42923 27.4104 3.21168 27.276C2.99413 27.1416 2.81455 26.9538 2.68999 26.7305C2.56543 26.5072 2.50003 26.2557 2.5 26V7C2.5 6.33696 2.76339 5.70107 3.23223 5.23223C3.70107 4.76339 4.33696 4.5 5 4.5H27C27.663 4.5 28.2989 4.76339 28.7678 5.23223C29.2366 5.70107 29.5 6.33696 29.5 7ZM26.5 7.5H5.5V23.5725L7.32875 22.6588C7.53715 22.5545 7.76697 22.5002 8 22.5002C8.23303 22.5002 8.46286 22.5545 8.67125 22.6588L12 24.3225L15.3287 22.6588C15.5371 22.5545 15.767 22.5002 16 22.5002C16.233 22.5002 16.4629 22.5545 16.6712 22.6588L20 24.3225L23.3288 22.6588C23.5371 22.5545 23.767 22.5002 24 22.5002C24.233 22.5002 24.4629 22.5545 24.6712 22.6588L26.5 23.5725V7.5Z" fill="black"/>
</svg>
