<svg width="32" height="32" viewBox="0 0 32 32" fill="none" xmlns="http://www.w3.org/2000/svg">
<path d="M27 4.5H5C4.33696 4.5 3.70107 4.76339 3.23223 5.23223C2.76339 5.70107 2.5 6.33696 2.5 7V26C2.50003 26.2557 2.56543 26.5072 2.68999 26.7305C2.81455 26.9538 2.99413 27.1416 3.21168 27.276C3.42923 27.4104 3.67753 27.4869 3.93298 27.4983C4.18844 27.5098 4.44257 27.4557 4.67125 27.3412L8 25.6775L11.3287 27.3412C11.5371 27.4455 11.767 27.4998 12 27.4998C12.233 27.4998 12.4629 27.4455 12.6713 27.3412L16 25.6775L19.3288 27.3412C19.5371 27.4455 19.767 27.4998 20 27.4998C20.233 27.4998 20.4629 27.4455 20.6712 27.3412L24 25.6775L27.3288 27.3412C27.5574 27.4557 27.8116 27.5098 28.067 27.4983C28.3225 27.4869 28.5708 27.4104 28.7883 27.276C29.0059 27.1416 29.1854 26.9538 29.31 26.7305C29.4346 26.5072 29.5 26.2557 29.5 26V7C29.5 6.33696 29.2366 5.70107 28.7678 5.23223C28.2989 4.76339 27.663 4.5 27 4.5ZM26.5 23.5725L24.6712 22.6588C24.4629 22.5545 24.233 22.5002 24 22.5002C23.767 22.5002 23.5371 22.5545 23.3288 22.6588L20 24.3225L16.6712 22.6588C16.4629 22.5545 16.233 22.5002 16 22.5002C15.767 22.5002 15.5371 22.5545 15.3287 22.6588L12 24.3225L8.67125 22.6588C8.46286 22.5545 8.23303 22.5002 8 22.5002C7.76697 22.5002 7.53715 22.5545 7.32875 22.6588L5.5 23.5725V7.5H26.5V23.5725ZM11.9388 16.9387L13.875 15L11.9388 13.0612C11.7992 12.9217 11.6885 12.7561 11.613 12.5738C11.5375 12.3915 11.4986 12.1961 11.4986 11.9987C11.4986 11.6002 11.657 11.218 11.9388 10.9362C12.2205 10.6545 12.6027 10.4961 13.0013 10.4961C13.3998 10.4961 13.782 10.6545 14.0638 10.9362L16 12.875L17.9387 10.935C18.2205 10.6532 18.6027 10.4949 19.0012 10.4949C19.3998 10.4949 19.782 10.6532 20.0637 10.935C20.3455 11.2168 20.5039 11.599 20.5039 11.9975C20.5039 12.396 20.3455 12.7782 20.0637 13.06L18.125 15L20.065 16.9387C20.3468 17.2205 20.5051 17.6027 20.5051 18.0012C20.5051 18.3998 20.3468 18.782 20.065 19.0637C19.7832 19.3455 19.401 19.5039 19.0025 19.5039C18.604 19.5039 18.2218 19.3455 17.94 19.0637L16 17.125L14.0612 19.065C13.7795 19.3468 13.3973 19.5051 12.9987 19.5051C12.6002 19.5051 12.218 19.3468 11.9362 19.065C11.6545 18.7832 11.4961 18.401 11.4961 18.0025C11.4961 17.604 11.6545 17.2218 11.9362 16.94L11.9388 16.9387Z" fill="black"/>
</svg>
