<svg width="32" height="32" viewBox="0 0 32 32" fill="none" xmlns="http://www.w3.org/2000/svg">
<path d="M16 2.5C13.33 2.5 10.7199 3.29176 8.49981 4.77516C6.27974 6.25856 4.54942 8.36697 3.52763 10.8338C2.50585 13.3006 2.2385 16.015 2.7594 18.6337C3.28031 21.2525 4.56606 23.6579 6.45406 25.5459C8.34207 27.434 10.7475 28.7197 13.3663 29.2406C15.985 29.7615 18.6994 29.4942 21.1662 28.4724C23.633 27.4506 25.7414 25.7203 27.2248 23.5002C28.7082 21.2801 29.5 18.67 29.5 16C29.496 12.4208 28.0724 8.98932 25.5416 6.45844C23.0107 3.92756 19.5792 2.50397 16 2.5ZM16 26.5C13.9233 26.5 11.8932 25.8842 10.1665 24.7304C8.4398 23.5767 7.09399 21.9368 6.29927 20.0182C5.50455 18.0996 5.29662 15.9884 5.70176 13.9516C6.10691 11.9148 7.10693 10.0438 8.57538 8.57538C10.0438 7.10693 11.9148 6.1069 13.9516 5.70175C15.9884 5.29661 18.0996 5.50454 20.0182 6.29926C21.9368 7.09399 23.5767 8.4398 24.7304 10.1665C25.8842 11.8932 26.5 13.9233 26.5 16C26.497 18.7839 25.3898 21.4528 23.4213 23.4213C21.4529 25.3898 18.7839 26.497 16 26.5ZM16 7.5C14.3189 7.5 12.6755 7.99852 11.2777 8.93251C9.87984 9.8665 8.79038 11.194 8.14703 12.7472C7.50369 14.3004 7.33536 16.0094 7.66333 17.6583C7.99131 19.3071 8.80085 20.8217 9.9896 22.0104C11.1783 23.1992 12.6929 24.0087 14.3417 24.3367C15.9906 24.6646 17.6996 24.4963 19.2528 23.853C20.806 23.2096 22.1335 22.1202 23.0675 20.7223C24.0015 19.3245 24.5 17.6811 24.5 16C24.4977 13.7464 23.6014 11.5857 22.0079 9.99215C20.4143 8.39859 18.2536 7.50232 16 7.5ZM16 21.5C14.9122 21.5 13.8488 21.1774 12.9444 20.5731C12.0399 19.9687 11.335 19.1098 10.9187 18.1048C10.5024 17.0998 10.3935 15.9939 10.6057 14.927C10.8179 13.8601 11.3417 12.8801 12.1109 12.1109C12.8801 11.3417 13.8601 10.8179 14.927 10.6057C15.9939 10.3935 17.0998 10.5024 18.1048 10.9187C19.1098 11.3349 19.9687 12.0399 20.5731 12.9444C21.1774 13.8488 21.5 14.9122 21.5 16C21.4984 17.4582 20.9184 18.8562 19.8873 19.8873C18.8562 20.9184 17.4582 21.4983 16 21.5Z" fill="black"/>
</svg>
