<svg width="32" height="32" viewBox="0 0 32 32" fill="none" xmlns="http://www.w3.org/2000/svg">
<path d="M11.9999 25.9998C11.9999 26.265 11.8945 26.5193 11.707 26.7069C11.5195 26.8944 11.2651 26.9998 10.9999 26.9998H4.99988C4.47343 26.9995 3.95633 26.8606 3.50052 26.5972C3.04472 26.3337 2.66627 25.955 2.40318 25.499C2.14009 25.043 2.00163 24.5258 2.00171 23.9993C2.00179 23.4729 2.14041 22.9557 2.40363 22.4998L6.68988 15.0935L4.93363 15.5623C4.80642 15.5963 4.67375 15.6048 4.54321 15.5875C4.41267 15.5703 4.28682 15.5274 4.17284 15.4615C3.94264 15.3283 3.77476 15.1092 3.70613 14.8523C3.63751 14.5953 3.67376 14.3217 3.80691 14.0915C3.94006 13.8613 4.1592 13.6934 4.41613 13.6248L8.51238 12.5285C8.63927 12.4945 8.77162 12.4858 8.90187 12.503C9.03212 12.5201 9.15771 12.5628 9.27147 12.6285C9.38523 12.6942 9.48493 12.7816 9.56488 12.8859C9.64482 12.9901 9.70344 13.1091 9.73738 13.236L10.8361 17.3323C10.8708 17.4597 10.8799 17.5928 10.8629 17.7238C10.8459 17.8548 10.8031 17.9812 10.7369 18.0956C10.6708 18.2099 10.5827 18.3101 10.4776 18.3902C10.3726 18.4703 10.2527 18.5288 10.1249 18.5623C10.04 18.5844 9.95262 18.5957 9.86488 18.596C9.6449 18.5958 9.43112 18.5231 9.25666 18.3891C9.08221 18.2551 8.9568 18.0673 8.89988 17.8548L8.42488 16.086L4.13863 23.4998C4.05106 23.6514 4.00486 23.8234 4.00465 23.9986C4.00444 24.1737 4.05023 24.3458 4.13743 24.4977C4.22464 24.6496 4.3502 24.7759 4.50155 24.864C4.65291 24.9521 4.82475 24.9989 4.99988 24.9998H10.9999C11.2651 24.9998 11.5195 25.1051 11.707 25.2927C11.8945 25.4802 11.9999 25.7346 11.9999 25.9998ZM29.5911 22.4998L26.6986 17.4998C26.5603 17.2821 26.3431 17.1263 26.0926 17.065C25.8421 17.0036 25.5776 17.0414 25.3543 17.1705C25.131 17.2996 24.9662 17.5099 24.8943 17.7576C24.8225 18.0053 24.8491 18.2712 24.9686 18.4998L27.8611 23.4998C27.9487 23.6514 27.9949 23.8234 27.9951 23.9986C27.9953 24.1737 27.9495 24.3458 27.8623 24.4977C27.7751 24.6496 27.6496 24.7759 27.4982 24.864C27.3469 24.9521 27.175 24.9989 26.9999 24.9998H18.4136L19.7061 23.7073C19.8938 23.5198 19.9993 23.2655 19.9994 23.0002C19.9995 22.735 19.8942 22.4805 19.7068 22.2929C19.5193 22.1053 19.2649 21.9998 18.9997 21.9997C18.7345 21.9995 18.48 22.1048 18.2924 22.2923L15.2924 25.2923C15.1994 25.3851 15.1256 25.4954 15.0753 25.6168C15.025 25.7382 14.9991 25.8684 14.9991 25.9998C14.9991 26.1312 15.025 26.2613 15.0753 26.3827C15.1256 26.5041 15.1994 26.6144 15.2924 26.7073L18.2924 29.7073C18.3853 29.8001 18.4956 29.8737 18.6169 29.9239C18.7383 29.9741 18.8684 29.9999 18.9997 29.9999C19.131 29.9998 19.2611 29.9739 19.3824 29.9236C19.5037 29.8733 19.6139 29.7996 19.7068 29.7066C19.7996 29.6137 19.8732 29.5035 19.9234 29.3821C19.9736 29.2607 19.9994 29.1307 19.9994 28.9993C19.9993 28.868 19.9734 28.738 19.9231 28.6166C19.8728 28.4953 19.799 28.3851 19.7061 28.2923L18.4136 26.9998H26.9999C27.5263 26.9995 28.0434 26.8606 28.4992 26.5972C28.955 26.3337 29.3335 25.955 29.5966 25.499C29.8597 25.043 29.9981 24.5258 29.9981 23.9993C29.998 23.4729 29.8594 22.9557 29.5961 22.4998H29.5911ZM15.9999 3.99977C16.1756 3.99801 16.3486 4.04348 16.5008 4.13144C16.6529 4.21939 16.7787 4.3466 16.8649 4.49977L21.1511 11.906L19.3911 11.4335C19.1381 11.3741 18.8719 11.4156 18.6489 11.5491C18.4259 11.6826 18.2637 11.8977 18.1965 12.1488C18.1294 12.3999 18.1627 12.6673 18.2893 12.8942C18.4159 13.1212 18.626 13.29 18.8749 13.3648L22.9724 14.4635C23.0569 14.4857 23.1438 14.4971 23.2311 14.4973C23.4511 14.4971 23.6649 14.4243 23.8394 14.2903C24.0138 14.1563 24.1392 13.9685 24.1961 13.756L25.2949 9.65727C25.3326 9.5293 25.3443 9.39508 25.3294 9.26251C25.3144 9.12994 25.2731 9.00169 25.2079 8.88533C25.1426 8.76898 25.0547 8.66685 24.9494 8.58498C24.844 8.50311 24.7234 8.44314 24.5945 8.40861C24.4657 8.37408 24.3312 8.36568 24.199 8.38391C24.0669 8.40215 23.9397 8.44664 23.825 8.51478C23.7103 8.58291 23.6104 8.67331 23.5311 8.78065C23.4519 8.88798 23.395 9.01009 23.3636 9.13977L22.8886 10.911L18.5961 3.49977C18.3326 3.04457 17.954 2.66666 17.4983 2.40394C17.0426 2.14122 16.5259 2.00293 15.9999 2.00293C15.4739 2.00293 14.9571 2.14122 14.5015 2.40394C14.0458 2.66666 13.6672 3.04457 13.4036 3.49977L10.5086 8.49977C10.3842 8.72884 10.3542 8.99741 10.4249 9.24829C10.4957 9.49917 10.6615 9.71252 10.8873 9.8429C11.113 9.97327 11.3807 10.0104 11.6333 9.94627C11.886 9.88218 12.1036 9.72197 12.2399 9.49977L15.1349 4.49977C15.2211 4.3466 15.3468 4.21939 15.499 4.13144C15.6511 4.04348 15.8241 3.99801 15.9999 3.99977Z" fill="black"/>
</svg>
