<svg width="32" height="32" viewBox="0 0 32 32" fill="none" xmlns="http://www.w3.org/2000/svg">
<path d="M11.75 25.9999C11.75 26.1988 11.671 26.3896 11.5304 26.5302C11.3897 26.6709 11.1989 26.7499 11 26.7499H5.00003C4.51786 26.7488 4.04447 26.6209 3.62733 26.379C3.21019 26.1372 2.86397 25.7899 2.62338 25.3721C2.38279 24.9542 2.2563 24.4804 2.25659 23.9983C2.25688 23.5161 2.38394 23.0425 2.62503 22.6249L7.21378 14.6949L4.86878 15.3199C4.67649 15.3713 4.47167 15.3442 4.29938 15.2446C4.12708 15.1449 4.00141 14.9809 3.95003 14.7887C3.89864 14.5964 3.92574 14.3916 4.02537 14.2193C4.125 14.047 4.28899 13.9213 4.48128 13.8699L8.57753 12.7737C8.67307 12.7476 8.77282 12.7408 8.87103 12.7535C8.96924 12.7662 9.06396 12.7982 9.14972 12.8477C9.23549 12.8972 9.3106 12.9632 9.37072 13.0419C9.43085 13.1206 9.47479 13.2104 9.50003 13.3062L10.6 17.4012C10.6256 17.4963 10.6321 17.5955 10.6193 17.6932C10.6065 17.7908 10.5745 17.885 10.5253 17.9703C10.4761 18.0556 10.4106 18.1304 10.3324 18.1904C10.2543 18.2504 10.1652 18.2944 10.07 18.3199C10.0064 18.3371 9.94089 18.3459 9.87503 18.3462C9.71 18.346 9.54963 18.2914 9.41878 18.1908C9.28794 18.0903 9.19391 17.9493 9.15128 17.7899L8.52628 15.4399L3.92253 23.3749C3.81303 23.5646 3.75527 23.7797 3.75505 23.9987C3.75483 24.2177 3.81215 24.4329 3.92126 24.6227C4.03038 24.8126 4.18746 24.9705 4.37679 25.0806C4.56611 25.1906 4.78103 25.249 5.00003 25.2499H11C11.1989 25.2499 11.3897 25.3289 11.5304 25.4696C11.671 25.6102 11.75 25.801 11.75 25.9999ZM29.375 22.6249L26.4825 17.6249C26.3787 17.4617 26.2159 17.3448 26.028 17.2988C25.8401 17.2528 25.6417 17.2811 25.4743 17.3779C25.3068 17.4748 25.1832 17.6325 25.1293 17.8183C25.0754 18.0041 25.0954 18.2035 25.185 18.3749L28.0775 23.3749C28.187 23.5646 28.2448 23.7797 28.245 23.9987C28.2452 24.2177 28.1879 24.4329 28.0788 24.6227C27.9697 24.8126 27.8126 24.9705 27.6233 25.0806C27.4339 25.1906 27.219 25.249 27 25.2499H17.81L19.53 23.5299C19.6625 23.3877 19.7346 23.1997 19.7312 23.0054C19.7278 22.8111 19.6491 22.6257 19.5116 22.4883C19.3742 22.3509 19.1889 22.2722 18.9945 22.2687C18.8002 22.2653 18.6122 22.3374 18.47 22.4699L15.47 25.4699C15.3296 25.6105 15.2507 25.8012 15.2507 25.9999C15.2507 26.1987 15.3296 26.3893 15.47 26.5299L18.47 29.5299C18.6122 29.6624 18.8002 29.7345 18.9945 29.7311C19.1889 29.7277 19.3742 29.6489 19.5116 29.5115C19.6491 29.3741 19.7278 29.1887 19.7312 28.9944C19.7346 28.8001 19.6625 28.6121 19.53 28.4699L17.81 26.7499H27C27.4822 26.7488 27.9556 26.6209 28.3727 26.379C28.7899 26.1372 29.1361 25.7899 29.3767 25.3721C29.6173 24.9542 29.7438 24.4804 29.7435 23.9983C29.7432 23.5161 29.6161 23.0425 29.375 22.6249ZM17.0813 4.37491L21.6713 12.3049L19.3263 11.6799C19.1399 11.6434 18.9467 11.679 18.7855 11.7794C18.6243 11.8799 18.5073 12.0377 18.4579 12.2211C18.4086 12.4045 18.4307 12.5997 18.5197 12.7675C18.6087 12.9352 18.758 13.063 18.9375 13.1249L23.035 14.2237C23.2271 14.2748 23.4317 14.2476 23.6037 14.1479C23.7758 14.0483 23.9012 13.8845 23.9525 13.6924L25.0513 9.59491C25.0814 9.49848 25.0917 9.39695 25.0816 9.29644C25.0715 9.19592 25.0411 9.09849 24.9924 9.00997C24.9437 8.92146 24.8777 8.8437 24.7982 8.78135C24.7187 8.71901 24.6274 8.67337 24.5299 8.64716C24.4323 8.62096 24.3304 8.61474 24.2304 8.62887C24.1304 8.643 24.0342 8.6772 23.9477 8.7294C23.8613 8.78161 23.7862 8.85075 23.7271 8.93268C23.668 9.0146 23.626 9.10763 23.6038 9.20616L22.9725 11.5587L18.375 3.62491C18.1328 3.20993 17.7861 2.86566 17.3694 2.6264C16.9527 2.38713 16.4805 2.26123 16 2.26123C15.5195 2.26123 15.0474 2.38713 14.6307 2.6264C14.214 2.86566 13.8673 3.20993 13.625 3.62491L10.725 8.62491C10.6299 8.79688 10.606 8.99933 10.6586 9.18871C10.7112 9.37809 10.836 9.53926 11.0062 9.63755C11.1764 9.73584 11.3784 9.76339 11.5687 9.71427C11.759 9.66515 11.9224 9.54329 12.0238 9.37491L14.9188 4.37491C15.0287 4.18549 15.1864 4.02826 15.3761 3.91896C15.5659 3.80966 15.781 3.75213 16 3.75213C16.219 3.75213 16.4342 3.80966 16.6239 3.91896C16.8137 4.02826 16.9714 4.18549 17.0813 4.37491Z" fill="black"/>
</svg>
