<svg width="32" height="32" viewBox="0 0 32 32" fill="none" xmlns="http://www.w3.org/2000/svg">
<path d="M11.9999 25.9998C11.9999 26.265 11.8945 26.5193 11.707 26.7069C11.5195 26.8944 11.2651 26.9998 10.9999 26.9998H4.99988C4.47343 26.9995 3.95633 26.8606 3.50052 26.5972C3.04472 26.3337 2.66627 25.955 2.40318 25.499C2.14009 25.043 2.00163 24.5258 2.00171 23.9993C2.00179 23.4729 2.14041 22.9557 2.40363 22.4998L5.90363 16.4623L4.17613 15.4623C4.00301 15.3642 3.86309 15.2167 3.77428 15.0386C3.68546 14.8605 3.65178 14.66 3.67755 14.4627C3.70332 14.2654 3.78737 14.0803 3.91894 13.931C4.05051 13.7817 4.22362 13.6751 4.41613 13.6248L8.51238 12.5285C8.63927 12.4945 8.77162 12.4858 8.90187 12.503C9.03212 12.5201 9.15771 12.5628 9.27147 12.6285C9.38523 12.6942 9.48493 12.7816 9.56488 12.8859C9.64482 12.9901 9.70344 13.1091 9.73738 13.236L10.8361 17.3323C10.8874 17.5234 10.8809 17.7254 10.8173 17.9128C10.7537 18.1001 10.636 18.2644 10.479 18.3849C10.3221 18.5053 10.1329 18.5765 9.93545 18.5894C9.73801 18.6023 9.54118 18.5563 9.36988 18.4573L7.63488 17.4573L4.13863 23.4998C4.05106 23.6514 4.00486 23.8234 4.00465 23.9986C4.00444 24.1737 4.05023 24.3458 4.13743 24.4977C4.22464 24.6496 4.3502 24.7759 4.50155 24.864C4.65291 24.9521 4.82475 24.9989 4.99988 24.9998H10.9999C11.2651 24.9998 11.5195 25.1051 11.707 25.2927C11.8945 25.4802 11.9999 25.7346 11.9999 25.9998ZM15.9999 3.99977C16.1756 3.99801 16.3486 4.04348 16.5008 4.13144C16.6529 4.21939 16.7787 4.3466 16.8649 4.49977L20.3649 10.5373L18.6374 11.5373C18.4675 11.6364 18.3306 11.7835 18.2439 11.96C18.1572 12.1366 18.1244 12.3348 18.1498 12.5298C18.1751 12.7249 18.2574 12.9081 18.3864 13.0567C18.5154 13.2052 18.6853 13.3123 18.8749 13.3648L22.9724 14.4635C23.0569 14.4857 23.1438 14.4971 23.2311 14.4973C23.4511 14.4971 23.6649 14.4243 23.8394 14.2903C24.0138 14.1563 24.1392 13.9685 24.1961 13.756L25.2949 9.65727C25.3459 9.46634 25.3393 9.26456 25.2758 9.07742C25.2122 8.89027 25.0946 8.72615 24.9379 8.60577C24.7811 8.4854 24.5922 8.41417 24.395 8.40109C24.1978 8.38801 24.0012 8.43366 23.8299 8.53227L22.0936 9.53227L18.5961 3.49977C18.3326 3.04457 17.954 2.66666 17.4983 2.40394C17.0426 2.14122 16.5259 2.00293 15.9999 2.00293C15.4739 2.00293 14.9571 2.14122 14.5015 2.40394C14.0458 2.66666 13.6672 3.04457 13.4036 3.49977L10.5086 8.49977C10.3842 8.72884 10.3542 8.99741 10.4249 9.24829C10.4957 9.49917 10.6615 9.71252 10.8873 9.8429C11.113 9.97327 11.3807 10.0104 11.6333 9.94627C11.886 9.88218 12.1036 9.72197 12.2399 9.49977L15.1349 4.49977C15.2211 4.3466 15.3468 4.21939 15.499 4.13144C15.6511 4.04348 15.8241 3.99801 15.9999 3.99977ZM29.5911 22.4998L26.6986 17.4998C26.5603 17.2821 26.3431 17.1263 26.0926 17.065C25.8421 17.0036 25.5776 17.0414 25.3543 17.1705C25.131 17.2996 24.9662 17.5099 24.8943 17.7576C24.8225 18.0053 24.8491 18.2712 24.9686 18.4998L27.8611 23.4998C27.9487 23.6514 27.9949 23.8234 27.9951 23.9986C27.9953 24.1737 27.9495 24.3458 27.8623 24.4977C27.7751 24.6496 27.6496 24.7759 27.4982 24.864C27.3469 24.9521 27.175 24.9989 26.9999 24.9998H19.9999V22.9998C20 22.8019 19.9415 22.6084 19.8316 22.4438C19.7217 22.2792 19.5655 22.1509 19.3827 22.0751C19.1999 21.9994 18.9987 21.9796 18.8046 22.0182C18.6105 22.0569 18.4322 22.1523 18.2924 22.2923L15.2924 25.2923C15.1994 25.3851 15.1256 25.4954 15.0753 25.6168C15.025 25.7382 14.9991 25.8684 14.9991 25.9998C14.9991 26.1312 15.025 26.2613 15.0753 26.3827C15.1256 26.5041 15.1994 26.6144 15.2924 26.7073L18.2924 29.7073C18.4322 29.8473 18.6105 29.9426 18.8046 29.9813C18.9987 30.02 19.1999 30.0001 19.3827 29.9244C19.5655 29.8486 19.7217 29.7203 19.8316 29.5558C19.9415 29.3912 20 29.1977 19.9999 28.9998V26.9998H26.9999C27.5263 26.9995 28.0434 26.8606 28.4992 26.5972C28.955 26.3337 29.3335 25.955 29.5966 25.499C29.8597 25.043 29.9981 24.5258 29.9981 23.9993C29.998 23.4729 29.8594 22.9557 29.5961 22.4998H29.5911Z" fill="black"/>
</svg>
