<svg width="32" height="32" viewBox="0 0 32 32" fill="none" xmlns="http://www.w3.org/2000/svg">
<path d="M31.5001 12.9999C31.4997 12.1671 31.2681 11.3507 30.8312 10.6416C30.3943 9.93259 29.7692 9.3587 29.0254 8.98385C28.2817 8.609 27.4485 8.44791 26.6187 8.5185C25.7888 8.5891 24.9948 8.88861 24.3251 9.3837C22.2692 8.37357 20.0409 7.76075 17.7576 7.57745L18.2326 4.7262L20.1913 5.05245C20.4229 5.67095 20.852 6.19578 21.4122 6.54552C21.9724 6.89526 22.6324 7.05038 23.2897 6.9868C23.9471 6.92323 24.5651 6.64452 25.0479 6.1939C25.5307 5.74329 25.8513 5.14595 25.96 4.49454C26.0687 3.84313 25.9595 3.17405 25.6491 2.59108C25.3388 2.00811 24.8448 1.54383 24.2437 1.27025C23.6426 0.996668 22.9681 0.929079 22.3246 1.07796C21.6812 1.22685 21.1049 1.58388 20.6851 2.0937L17.2501 1.51995C17.0557 1.48698 16.8568 1.49266 16.6646 1.53665C16.4724 1.58064 16.2908 1.66209 16.1301 1.77632C15.9695 1.89056 15.8329 2.03535 15.7282 2.20241C15.6235 2.36948 15.5528 2.55553 15.5201 2.74995L14.7226 7.5387C12.1851 7.70245 9.7501 8.33745 7.6751 9.3837C6.77027 8.72117 5.65067 8.42037 4.53564 8.54023C3.42061 8.66009 2.39051 9.19198 1.64717 10.0317C0.90383 10.8714 0.500811 11.9584 0.517075 13.0797C0.53334 14.2011 0.967716 15.2759 1.7351 16.0937C1.57912 16.7171 1.5002 17.3573 1.5001 17.9999C1.5001 20.9112 3.08135 23.6087 5.95385 25.5974C8.6576 27.4687 12.2251 28.4999 16.0001 28.4999C19.7751 28.4999 23.3426 27.4687 26.0463 25.5974C28.9188 23.6087 30.5001 20.9112 30.5001 17.9999C30.5 17.3573 30.4211 16.7171 30.2651 16.0937C31.0556 15.2573 31.4973 14.1508 31.5001 12.9999ZM27.7613 14.2924C27.4476 14.4762 27.2113 14.7676 27.0964 15.1125C26.9814 15.4573 26.9956 15.8322 27.1363 16.1674C27.3728 16.7497 27.4962 17.3716 27.5001 17.9999C27.5001 19.8974 26.3751 21.7187 24.3389 23.1312C22.1313 24.6587 19.1701 25.4999 16.0001 25.4999C12.8301 25.4999 9.8751 24.6587 7.66135 23.1312C5.6251 21.7187 4.5001 19.8974 4.5001 17.9999C4.50189 17.373 4.62235 16.7521 4.8551 16.1699C4.99658 15.8357 5.01211 15.4616 4.89879 15.1168C4.78548 14.772 4.55101 14.48 4.23885 14.2949C4.04585 14.1822 3.88047 14.0278 3.75481 13.843C3.62915 13.6582 3.54639 13.4476 3.51256 13.2267C3.47874 13.0057 3.49471 12.78 3.55931 12.5661C3.62391 12.3521 3.73551 12.1553 3.88595 11.99C4.03639 11.8247 4.22186 11.6951 4.42882 11.6107C4.63577 11.5263 4.85896 11.4892 5.08209 11.5022C5.30522 11.5151 5.52264 11.5777 5.71845 11.6855C5.91426 11.7932 6.08352 11.9434 6.21385 12.1249C6.43554 12.4291 6.76346 12.6388 7.13255 12.7124C7.50164 12.786 7.88492 12.7182 8.20635 12.5224L8.23385 12.5062C10.3676 11.2099 13.1251 10.4999 16.0001 10.4999C18.8751 10.4999 21.6251 11.2112 23.7613 12.4999L23.7888 12.5162C24.11 12.7141 24.4939 12.7837 24.8641 12.7112C25.2343 12.6387 25.5636 12.4294 25.7863 12.1249C25.9239 11.9313 26.1059 11.7734 26.3171 11.6647C26.5283 11.5559 26.7625 11.4994 27.0001 11.4999C27.3292 11.4999 27.6492 11.6082 27.9107 11.8079C28.1722 12.0077 28.3608 12.2879 28.4473 12.6054C28.5339 12.9229 28.5136 13.2601 28.3897 13.565C28.2657 13.8698 28.0449 14.1254 27.7613 14.2924ZM11.0001 18.4999C10.5056 18.4999 10.0223 18.3533 9.61117 18.0786C9.20005 17.8039 8.87962 17.4135 8.6904 16.9567C8.50118 16.4998 8.45167 15.9972 8.54814 15.5122C8.6446 15.0273 8.8827 14.5818 9.23233 14.2322C9.58196 13.8825 10.0274 13.6444 10.5124 13.548C10.9973 13.4515 11.5 13.501 11.9568 13.6902C12.4136 13.8795 12.8041 14.1999 13.0788 14.611C13.3535 15.0221 13.5001 15.5055 13.5001 15.9999C13.5001 16.663 13.2367 17.2989 12.7679 17.7677C12.299 18.2366 11.6631 18.4999 11.0001 18.4999ZM23.5001 15.9999C23.5001 16.4944 23.3535 16.9777 23.0788 17.3889C22.8041 17.8 22.4136 18.1204 21.9568 18.3096C21.5 18.4989 20.9973 18.5484 20.5124 18.4519C20.0274 18.3554 19.582 18.1173 19.2323 17.7677C18.8827 17.4181 18.6446 16.9726 18.5481 16.4877C18.4517 16.0027 18.5012 15.5001 18.6904 15.0432C18.8796 14.5864 19.2001 14.196 19.6112 13.9213C20.0223 13.6466 20.5056 13.4999 21.0001 13.4999C21.6631 13.4999 22.299 13.7633 22.7679 14.2322C23.2367 14.701 23.5001 15.3369 23.5001 15.9999ZM20.9351 21.0649C20.9929 21.2537 21.0129 21.452 20.9939 21.6485C20.9749 21.845 20.9173 22.0359 20.8244 22.2101C20.7315 22.3843 20.6051 22.5384 20.4525 22.6636C20.2999 22.7889 20.1241 22.8828 19.9351 22.9399C17.3643 23.6943 14.6309 23.6943 12.0601 22.9399C11.6789 22.8239 11.3593 22.5612 11.1718 22.2096C10.9842 21.8579 10.9441 21.4462 11.0601 21.0649C11.1761 20.6837 11.4389 20.3642 11.7905 20.1766C12.1421 19.9891 12.5539 19.9489 12.9351 20.0649C14.9357 20.644 17.0595 20.644 19.0601 20.0649C19.2489 20.0071 19.4472 19.9872 19.6437 20.0062C19.8402 20.0252 20.031 20.0828 20.2052 20.1757C20.3794 20.2686 20.5336 20.3949 20.6588 20.5476C20.7841 20.7002 20.8779 20.876 20.9351 21.0649Z" fill="black"/>
</svg>
