<svg width="32" height="32" viewBox="0 0 32 32" fill="none" xmlns="http://www.w3.org/2000/svg">
<path d="M2.99999 16.0001C3.00264 13.6139 3.9517 11.3263 5.63896 9.63902C7.32621 7.95176 9.61386 7.0027 12 7.00006H24V5.00006C23.9998 4.80216 24.0584 4.60867 24.1683 4.44407C24.2781 4.27948 24.4344 4.15119 24.6172 4.07543C24.8 3.99968 25.0012 3.97988 25.1953 4.01853C25.3894 4.05718 25.5676 4.15254 25.7075 4.29256L28.7075 7.29256C28.8005 7.38543 28.8742 7.49572 28.9246 7.61711C28.9749 7.73851 29.0008 7.86864 29.0008 8.00006C29.0008 8.13147 28.9749 8.2616 28.9246 8.383C28.8742 8.50439 28.8005 8.61468 28.7075 8.70756L25.7075 11.7076C25.5676 11.8476 25.3894 11.9429 25.1953 11.9816C25.0012 12.0202 24.8 12.0004 24.6172 11.9247C24.4344 11.8489 24.2781 11.7206 24.1683 11.556C24.0584 11.3914 23.9998 11.198 24 11.0001V9.00006H12C10.1441 9.00204 8.36476 9.74018 7.05244 11.0525C5.74011 12.3648 5.00198 14.1441 4.99999 16.0001C4.99999 16.2653 4.89464 16.5196 4.7071 16.7072C4.51956 16.8947 4.26521 17.0001 3.99999 17.0001C3.73478 17.0001 3.48042 16.8947 3.29289 16.7072C3.10535 16.5196 2.99999 16.2653 2.99999 16.0001ZM28 15.0001C27.7348 15.0001 27.4804 15.1054 27.2929 15.2929C27.1053 15.4805 27 15.7348 27 16.0001C26.998 17.856 26.2599 19.6353 24.9475 20.9476C23.6352 22.2599 21.8559 22.9981 20 23.0001H7.99999V21.0001C8.00015 20.8022 7.94158 20.6087 7.83171 20.4441C7.72184 20.2795 7.56561 20.1512 7.38278 20.0754C7.19996 19.9997 6.99877 19.9799 6.80469 20.0185C6.6106 20.0572 6.43235 20.1525 6.29249 20.2926L3.29249 23.2926C3.19952 23.3854 3.12576 23.4957 3.07543 23.6171C3.02511 23.7385 2.99921 23.8686 2.99921 24.0001C2.99921 24.1315 3.02511 24.2616 3.07543 24.383C3.12576 24.5044 3.19952 24.6147 3.29249 24.7076L6.29249 27.7076C6.43235 27.8476 6.6106 27.9429 6.80469 27.9816C6.99877 28.0202 7.19996 28.0004 7.38278 27.9247C7.56561 27.8489 7.72184 27.7206 7.83171 27.556C7.94158 27.3914 8.00015 27.198 7.99999 27.0001V25.0001H20C22.3861 24.9974 24.6738 24.0483 26.361 22.3611C28.0483 20.6738 28.9973 18.3862 29 16.0001C29 15.7348 28.8946 15.4805 28.7071 15.2929C28.5196 15.1054 28.2652 15.0001 28 15.0001ZM17 20.0001C17.2652 20.0001 17.5196 19.8947 17.7071 19.7072C17.8946 19.5196 18 19.2653 18 19.0001V13.0001C18.0001 12.8295 17.9566 12.6618 17.8736 12.5128C17.7907 12.3638 17.6709 12.2385 17.5259 12.1488C17.3808 12.0591 17.2153 12.008 17.0449 12.0003C16.8745 11.9927 16.705 12.0287 16.5525 12.1051L14.5525 13.1051C14.3153 13.2237 14.1349 13.4318 14.0511 13.6834C13.9673 13.9351 13.9869 14.2097 14.1056 14.4469C14.2243 14.6841 14.4324 14.8645 14.684 14.9483C14.9357 15.0321 15.2103 15.0125 15.4475 14.8938L16 14.6176V19.0001C16 19.2653 16.1053 19.5196 16.2929 19.7072C16.4804 19.8947 16.7348 20.0001 17 20.0001Z" fill="black"/>
</svg>
