<svg width="32" height="32" viewBox="0 0 32 32" fill="none" xmlns="http://www.w3.org/2000/svg">
<path d="M2.50002 15.9999C2.50267 13.4812 3.50441 11.0664 5.28543 9.28535C7.06645 7.50433 9.48128 6.50259 12 6.49995H24.375L23.935 6.0612C23.7955 5.92167 23.6848 5.75602 23.6093 5.57372C23.5338 5.39141 23.4949 5.19602 23.4949 4.9987C23.4949 4.80137 23.5338 4.60598 23.6093 4.42367C23.6848 4.24137 23.7955 4.07573 23.935 3.9362C24.0746 3.79667 24.2402 3.68599 24.4225 3.61047C24.6048 3.53496 24.8002 3.49609 24.9975 3.49609C25.1948 3.49609 25.3902 3.53496 25.5725 3.61047C25.7548 3.68599 25.9205 3.79667 26.06 3.9362L29.06 6.9362C29.1999 7.07555 29.3108 7.24114 29.3865 7.42347C29.4622 7.6058 29.5012 7.80127 29.5012 7.9987C29.5012 8.19612 29.4622 8.3916 29.3865 8.57392C29.3108 8.75625 29.1999 8.92184 29.06 9.0612L26.06 12.0612C25.7782 12.343 25.396 12.5013 24.9975 12.5013C24.599 12.5013 24.2168 12.343 23.935 12.0612C23.6532 11.7794 23.4949 11.3972 23.4949 10.9987C23.4949 10.6002 23.6532 10.218 23.935 9.9362L24.375 9.49995H12C10.2767 9.50193 8.62458 10.1874 7.40602 11.4059C6.18746 12.6245 5.50201 14.2766 5.50002 15.9999C5.50002 16.3978 5.34199 16.7793 5.06068 17.0606C4.77938 17.3419 4.39785 17.4999 4.00002 17.4999C3.6022 17.4999 3.22067 17.3419 2.93936 17.0606C2.65806 16.7793 2.50002 16.3978 2.50002 15.9999ZM28 14.4999C27.6022 14.4999 27.2207 14.658 26.9394 14.9393C26.6581 15.2206 26.5 15.6021 26.5 15.9999C26.498 17.7232 25.8126 19.3754 24.594 20.5939C23.3755 21.8125 21.7233 22.498 20 22.4999H7.62502L8.06502 22.0612C8.20455 21.9217 8.31523 21.756 8.39075 21.5737C8.46626 21.3914 8.50513 21.196 8.50513 20.9987C8.50513 20.8014 8.46626 20.606 8.39075 20.4237C8.31523 20.2414 8.20455 20.0757 8.06502 19.9362C7.92549 19.7967 7.75985 19.686 7.57754 19.6105C7.39524 19.535 7.19985 19.4961 7.00252 19.4961C6.8052 19.4961 6.60981 19.535 6.4275 19.6105C6.2452 19.686 6.07955 19.7967 5.94002 19.9362L2.94002 22.9362C2.80018 23.0756 2.68923 23.2411 2.61352 23.4235C2.53781 23.6058 2.49884 23.8013 2.49884 23.9987C2.49884 24.1961 2.53781 24.3916 2.61352 24.5739C2.68923 24.7563 2.80018 24.9218 2.94002 25.0612L5.94002 28.0612C6.07955 28.2007 6.2452 28.3114 6.4275 28.3869C6.60981 28.4624 6.8052 28.5013 7.00252 28.5013C7.19985 28.5013 7.39524 28.4624 7.57754 28.3869C7.75985 28.3114 7.92549 28.2007 8.06502 28.0612C8.20455 27.9217 8.31523 27.756 8.39075 27.5737C8.46626 27.3914 8.50513 27.196 8.50513 26.9987C8.50513 26.8014 8.46626 26.606 8.39075 26.4237C8.31523 26.2414 8.20455 26.0757 8.06502 25.9362L7.62502 25.4999H20C22.5188 25.4973 24.9336 24.4956 26.7146 22.7145C28.4956 20.9335 29.4974 18.5187 29.5 15.9999C29.5 15.6021 29.342 15.2206 29.0607 14.9393C28.7794 14.658 28.3978 14.4999 28 14.4999ZM17 20.4999C17.3978 20.4999 17.7794 20.3419 18.0607 20.0606C18.342 19.7793 18.5 19.3978 18.5 18.9999V12.9999C18.5001 12.7443 18.4348 12.4929 18.3104 12.2695C18.186 12.0462 18.0066 11.8584 17.7892 11.7239C17.5718 11.5894 17.3236 11.5127 17.0682 11.501C16.8129 11.4894 16.5587 11.5433 16.33 11.6574L14.33 12.6574C13.999 12.8339 13.746 13.128 13.6211 13.4817C13.4962 13.8355 13.5084 14.2232 13.6553 14.5684C13.8021 14.9136 14.073 15.1913 14.4145 15.3466C14.756 15.5019 15.1433 15.5236 15.5 15.4074V18.9999C15.5 19.3978 15.6581 19.7793 15.9394 20.0606C16.2207 20.3419 16.6022 20.4999 17 20.4999Z" fill="black"/>
</svg>
