<svg width="32" height="32" viewBox="0 0 32 32" fill="none" xmlns="http://www.w3.org/2000/svg">
<path opacity="0.08" d="M28 8V16C28 18.1217 27.1571 20.1566 25.6569 21.6569C24.1566 23.1571 22.1217 24 20 24H4V16C4 13.8783 4.84285 11.8434 6.34315 10.3431C7.84344 8.84285 9.87827 8 12 8H28Z" fill="black"/>
<path d="M2.99999 16.0001C3.00264 13.6139 3.9517 11.3263 5.63896 9.63903C7.32621 7.95178 9.61386 7.00271 12 7.00007H25.5862L24.2925 5.70757C24.1049 5.51993 23.9994 5.26543 23.9994 5.00007C23.9994 4.7347 24.1049 4.48021 24.2925 4.29257C24.4801 4.10493 24.7346 3.99951 25 3.99951C25.2654 3.99951 25.5199 4.10493 25.7075 4.29257L28.7075 7.29257C28.8005 7.38544 28.8742 7.49573 28.9246 7.61713C28.9749 7.73853 29.0008 7.86865 29.0008 8.00007C29.0008 8.13148 28.9749 8.26161 28.9246 8.38301C28.8742 8.50441 28.8005 8.6147 28.7075 8.70757L25.7075 11.7076C25.5199 11.8952 25.2654 12.0006 25 12.0006C24.7346 12.0006 24.4801 11.8952 24.2925 11.7076C24.1049 11.5199 23.9994 11.2654 23.9994 11.0001C23.9994 10.7347 24.1049 10.4802 24.2925 10.2926L25.5862 9.00007H12C10.1441 9.00205 8.36476 9.74019 7.05244 11.0525C5.74011 12.3648 5.00198 14.1442 4.99999 16.0001C4.99999 16.2653 4.89464 16.5196 4.7071 16.7072C4.51956 16.8947 4.26521 17.0001 3.99999 17.0001C3.73478 17.0001 3.48042 16.8947 3.29289 16.7072C3.10535 16.5196 2.99999 16.2653 2.99999 16.0001ZM28 15.0001C27.7348 15.0001 27.4804 15.1054 27.2929 15.293C27.1053 15.4805 27 15.7349 27 16.0001C26.998 17.856 26.2599 19.6353 24.9475 20.9476C23.6352 22.2599 21.8559 22.9981 20 23.0001H6.41374L7.70749 21.7076C7.8004 21.6147 7.8741 21.5044 7.92439 21.383C7.97467 21.2616 8.00055 21.1315 8.00055 21.0001C8.00055 20.8687 7.97467 20.7386 7.92439 20.6172C7.8741 20.4958 7.8004 20.3855 7.70749 20.2926C7.61458 20.1997 7.50428 20.126 7.38289 20.0757C7.2615 20.0254 7.13139 19.9995 6.99999 19.9995C6.8686 19.9995 6.73849 20.0254 6.6171 20.0757C6.4957 20.126 6.3854 20.1997 6.29249 20.2926L3.29249 23.2926C3.19952 23.3854 3.12576 23.4957 3.07543 23.6171C3.02511 23.7385 2.99921 23.8687 2.99921 24.0001C2.99921 24.1315 3.02511 24.2616 3.07543 24.383C3.12576 24.5044 3.19952 24.6147 3.29249 24.7076L6.29249 27.7076C6.3854 27.8005 6.4957 27.8742 6.6171 27.9245C6.73849 27.9747 6.8686 28.0006 6.99999 28.0006C7.13139 28.0006 7.2615 27.9747 7.38289 27.9245C7.50428 27.8742 7.61458 27.8005 7.70749 27.7076C7.8004 27.6147 7.8741 27.5044 7.92439 27.383C7.97467 27.2616 8.00055 27.1315 8.00055 27.0001C8.00055 26.8687 7.97467 26.7386 7.92439 26.6172C7.8741 26.4958 7.8004 26.3855 7.70749 26.2926L6.41374 25.0001H20C22.3861 24.9974 24.6738 24.0484 26.361 22.3611C28.0483 20.6739 28.9973 18.3862 29 16.0001C29 15.7349 28.8946 15.4805 28.7071 15.293C28.5196 15.1054 28.2652 15.0001 28 15.0001ZM17 20.0001C17.2652 20.0001 17.5196 19.8947 17.7071 19.7072C17.8946 19.5196 18 19.2653 18 19.0001V13.0001C18.0001 12.8295 17.9566 12.6618 17.8736 12.5128C17.7907 12.3638 17.6709 12.2385 17.5259 12.1488C17.3808 12.0591 17.2153 12.008 17.0449 12.0004C16.8745 11.9927 16.705 12.0287 16.5525 12.1051L14.5525 13.1051C14.3153 13.2238 14.1349 13.4318 14.0511 13.6835C13.9673 13.9351 13.9869 14.2097 14.1056 14.4469C14.2243 14.6841 14.4324 14.8645 14.684 14.9483C14.9357 15.0321 15.2103 15.0125 15.4475 14.8938L16 14.6176V19.0001C16 19.2653 16.1053 19.5196 16.2929 19.7072C16.4804 19.8947 16.7348 20.0001 17 20.0001Z" fill="black"/>
</svg>
