<svg width="32" height="32" viewBox="0 0 32 32" fill="none" xmlns="http://www.w3.org/2000/svg">
<path d="M27.7312 7.68502C27.4962 7.55645 27.2311 7.49317 26.9633 7.50175C26.6956 7.51032 26.4351 7.59043 26.2087 7.73377L15.5 14.5538V8.98002C15.5019 8.71462 15.4313 8.45375 15.2958 8.22553C15.1604 7.99732 14.9651 7.81042 14.7312 7.68502C14.4962 7.55645 14.2311 7.49317 13.9634 7.50175C13.6956 7.51032 13.4351 7.59043 13.2087 7.73377L2.185 14.75C1.97513 14.8833 1.80232 15.0674 1.68258 15.2852C1.56284 15.5031 1.50006 15.7477 1.50006 15.9963C1.50006 16.2449 1.56284 16.4894 1.68258 16.7073C1.80232 16.9252 1.97513 17.1093 2.185 17.2425L13.2087 24.2625C13.4351 24.4058 13.6956 24.486 13.9634 24.4945C14.2311 24.5031 14.4962 24.4398 14.7312 24.3113C14.9646 24.1862 15.1594 23.9998 15.2949 23.7724C15.4303 23.5449 15.5012 23.2848 15.5 23.02V17.4463L26.2087 24.2663C26.4351 24.4096 26.6956 24.4897 26.9633 24.4983C27.2311 24.5069 27.4962 24.4436 27.7312 24.315C27.9651 24.1896 28.1604 24.0027 28.2958 23.7745C28.4313 23.5463 28.5019 23.2854 28.5 23.02V8.98002C28.5019 8.71462 28.4313 8.45375 28.2958 8.22553C28.1604 7.99732 27.9651 7.81042 27.7312 7.68502ZM14.5 23.02C14.5006 23.106 14.4776 23.1905 14.4336 23.2644C14.3895 23.3382 14.326 23.3985 14.25 23.4388C14.1729 23.4814 14.0858 23.5023 13.9978 23.4995C13.9098 23.4966 13.8241 23.47 13.75 23.4225L2.7225 16.4025C2.65431 16.3598 2.5981 16.3004 2.55913 16.23C2.52017 16.1596 2.49973 16.0805 2.49973 16C2.49973 15.9195 2.52017 15.8404 2.55913 15.77C2.5981 15.6996 2.65431 15.6402 2.7225 15.5975L13.75 8.57752C13.8294 8.52628 13.9218 8.49894 14.0162 8.49877C14.0998 8.49932 14.1819 8.52081 14.255 8.56127C14.331 8.60152 14.3945 8.66184 14.4386 8.73568C14.4826 8.80951 14.5056 8.89403 14.505 8.98002L14.5 23.02ZM27.5 23.02C27.5006 23.106 27.4776 23.1905 27.4336 23.2644C27.3895 23.3382 27.326 23.3985 27.25 23.4388C27.1729 23.4814 27.0858 23.5023 26.9978 23.4995C26.9097 23.4966 26.8241 23.47 26.75 23.4225L15.7275 16.4025C15.6593 16.3598 15.6031 16.3004 15.5641 16.23C15.5252 16.1596 15.5047 16.0805 15.5047 16C15.5047 15.9195 15.5252 15.8404 15.5641 15.77C15.6031 15.6996 15.6593 15.6402 15.7275 15.5975L26.75 8.57752C26.8294 8.52628 26.9218 8.49894 27.0162 8.49877C27.0998 8.49932 27.1819 8.52081 27.255 8.56127C27.331 8.60152 27.3945 8.66184 27.4386 8.73568C27.4826 8.80951 27.5056 8.89403 27.505 8.98002L27.5 23.02Z" fill="black"/>
</svg>
