<svg width="32" height="32" viewBox="0 0 32 32" fill="none" xmlns="http://www.w3.org/2000/svg">
<path d="M28.2125 6.80756C27.8203 6.59276 27.3776 6.48711 26.9306 6.50162C26.4836 6.51613 26.0487 6.65027 25.6713 6.89006L16.5 12.7313V8.98131C16.4987 8.53556 16.3777 8.09834 16.1497 7.71534C15.9217 7.33233 15.595 7.0176 15.2037 6.80403C14.8125 6.59045 14.371 6.48588 13.9255 6.50123C13.4801 6.51659 13.0469 6.6513 12.6713 6.89131L1.64876 13.9113C1.29691 14.1346 1.00716 14.4431 0.806395 14.8082C0.605632 15.1734 0.500366 15.5834 0.500366 16.0001C0.500366 16.4168 0.605632 16.8267 0.806395 17.1919C1.00716 17.557 1.29691 17.8656 1.64876 18.0888L12.6713 25.1101C13.0469 25.3501 13.4801 25.4848 13.9255 25.5001C14.371 25.5155 14.8125 25.4109 15.2037 25.1973C15.595 24.9838 15.9217 24.669 16.1497 24.286C16.3777 23.903 16.4987 23.4658 16.5 23.0201V19.2701L25.6713 25.1113C26.047 25.3514 26.4803 25.4861 26.9259 25.5014C27.3715 25.5167 27.813 25.412 28.2043 25.1983C28.5956 24.9846 28.9222 24.6697 29.1502 24.2865C29.3781 23.9033 29.4989 23.4659 29.5 23.0201V8.98006C29.4997 8.53581 29.38 8.09982 29.1535 7.71766C28.927 7.33549 28.602 7.02117 28.2125 6.80756ZM13.5 22.0801L3.95376 16.0001L13.5 9.92006V22.0801ZM26.5 22.0801L16.9538 16.0001L26.5 9.92006V22.0801Z" fill="black"/>
</svg>
