<svg width="32" height="32" viewBox="0 0 32 32" fill="none" xmlns="http://www.w3.org/2000/svg">
<path d="M16 2.5C13.33 2.5 10.7199 3.29176 8.49981 4.77516C6.27974 6.25856 4.54942 8.36697 3.52763 10.8338C2.50585 13.3006 2.2385 16.015 2.7594 18.6337C3.28031 21.2525 4.56606 23.6579 6.45406 25.5459C8.34207 27.434 10.7475 28.7197 13.3663 29.2406C15.985 29.7615 18.6994 29.4942 21.1662 28.4724C23.633 27.4506 25.7414 25.7203 27.2248 23.5002C28.7082 21.2801 29.5 18.67 29.5 16C29.496 12.4208 28.0724 8.98932 25.5416 6.45844C23.0107 3.92756 19.5792 2.50397 16 2.5ZM16 26.5C13.9233 26.5 11.8932 25.8842 10.1665 24.7304C8.4398 23.5767 7.09399 21.9368 6.29927 20.0182C5.50455 18.0996 5.29662 15.9884 5.70176 13.9516C6.10691 11.9148 7.10693 10.0438 8.57538 8.57538C10.0438 7.10693 11.9148 6.1069 13.9516 5.70175C15.9884 5.29661 18.0996 5.50454 20.0182 6.29926C21.9368 7.09399 23.5767 8.4398 24.7304 10.1665C25.8842 11.8932 26.5 13.9233 26.5 16C26.497 18.7839 25.3898 21.4528 23.4213 23.4213C21.4529 25.3898 18.7839 26.497 16 26.5ZM22.5 12.5V19.5C22.5 19.7808 22.4212 20.056 22.2724 20.2943C22.1237 20.5325 21.9111 20.7242 21.6588 20.8476C21.4065 20.9709 21.1247 21.0209 20.8453 20.992C20.566 20.963 20.3004 20.8562 20.0788 20.6838L15.5788 17.1838C15.5513 17.1625 15.5263 17.1388 15.5 17.115V19.5C15.5 19.7808 15.4212 20.056 15.2724 20.2943C15.1237 20.5325 14.9111 20.7242 14.6588 20.8476C14.4065 20.9709 14.1247 21.0209 13.8453 20.992C13.566 20.963 13.3004 20.8562 13.0788 20.6838L8.57876 17.1838C8.39855 17.0435 8.25275 16.864 8.15245 16.6588C8.05216 16.4537 8.00003 16.2283 8.00003 16C8.00003 15.7717 8.05216 15.5463 8.15245 15.3412C8.25275 15.136 8.39855 14.9565 8.57876 14.8162L13.0788 11.3162C13.3004 11.1438 13.566 11.037 13.8453 11.008C14.1247 10.9791 14.4065 11.0291 14.6588 11.1524C14.9111 11.2758 15.1237 11.4675 15.2724 11.7057C15.4212 11.944 15.5 12.2192 15.5 12.5V14.885C15.5263 14.8612 15.5513 14.8375 15.5788 14.8162L20.0788 11.3162C20.3004 11.1438 20.566 11.037 20.8453 11.008C21.1247 10.9791 21.4065 11.0291 21.6588 11.1524C21.9111 11.2758 22.1237 11.4675 22.2724 11.7057C22.4212 11.944 22.5 12.2192 22.5 12.5Z" fill="black"/>
</svg>
