<svg width="32" height="32" viewBox="0 0 32 32" fill="none" xmlns="http://www.w3.org/2000/svg">
<path d="M27.8513 7.46503C27.5769 7.3149 27.2673 7.24105 26.9547 7.25116C26.6421 7.26127 26.3379 7.35498 26.0738 7.52253L15.75 14.0988V8.98003C15.7497 8.67014 15.6662 8.366 15.5081 8.09948C15.35 7.83295 15.1231 7.61382 14.8513 7.46503C14.5769 7.3149 14.2673 7.24105 13.9547 7.25116C13.6421 7.26127 13.3379 7.35498 13.0738 7.52253L2.05126 14.5438C1.80575 14.6993 1.60353 14.9143 1.46341 15.1689C1.32329 15.4235 1.24982 15.7094 1.24982 16C1.24982 16.2906 1.32329 16.5765 1.46341 16.8311C1.60353 17.0857 1.80575 17.3008 2.05126 17.4563L13.0738 24.4775C13.3379 24.6451 13.6421 24.7388 13.9547 24.7489C14.2673 24.759 14.5769 24.6852 14.8513 24.535C15.1231 24.3862 15.35 24.1671 15.5081 23.9006C15.6662 23.6341 15.7497 23.3299 15.75 23.02V17.9013L26.0738 24.4775C26.3379 24.6451 26.6421 24.7388 26.9547 24.7489C27.2673 24.759 27.5769 24.6852 27.8513 24.535C28.1231 24.3862 28.35 24.1671 28.5081 23.9006C28.6662 23.6341 28.7497 23.3299 28.75 23.02V8.98003C28.7497 8.67014 28.6662 8.366 28.5081 8.09948C28.35 7.83295 28.1231 7.61382 27.8513 7.46503ZM14.25 23.02C14.2505 23.0617 14.239 23.1026 14.2168 23.1379C14.1947 23.1731 14.1628 23.2012 14.125 23.2188C14.0868 23.2409 14.0431 23.2519 13.9989 23.2506C13.9548 23.2493 13.9119 23.2357 13.875 23.2113L2.85626 16.1913C2.8237 16.1711 2.79683 16.1429 2.7782 16.1095C2.75957 16.076 2.74979 16.0383 2.74979 16C2.74979 15.9617 2.75957 15.9241 2.7782 15.8906C2.79683 15.8571 2.8237 15.829 2.85626 15.8088L13.875 8.78878C13.912 8.76379 13.9554 8.74991 14 8.74878C14.0438 8.74848 14.0869 8.75969 14.125 8.78128C14.1628 8.79886 14.1947 8.82696 14.2168 8.86222C14.239 8.89748 14.2505 8.93839 14.25 8.98003V23.02ZM27.25 23.02C27.2505 23.0617 27.239 23.1026 27.2168 23.1379C27.1947 23.1731 27.1628 23.2012 27.125 23.2188C27.0868 23.2409 27.0431 23.2519 26.9989 23.2506C26.9548 23.2493 26.9119 23.2357 26.875 23.2113L15.8513 16.1913C15.8187 16.1711 15.7918 16.1429 15.7732 16.1095C15.7546 16.076 15.7448 16.0383 15.7448 16C15.7448 15.9617 15.7546 15.9241 15.7732 15.8906C15.7918 15.8571 15.8187 15.829 15.8513 15.8088L26.875 8.78878C26.912 8.76379 26.9554 8.74991 27 8.74878C27.0438 8.74848 27.0869 8.75969 27.125 8.78128C27.1628 8.79886 27.1947 8.82696 27.2168 8.86222C27.239 8.89748 27.2505 8.93839 27.25 8.98003V23.02Z" fill="black"/>
</svg>
