<svg width="32" height="32" viewBox="0 0 32 32" fill="none" xmlns="http://www.w3.org/2000/svg">
<path d="M27.9712 7.24995C27.6576 7.07849 27.3038 6.99419 26.9466 7.00584C26.5893 7.01749 26.2418 7.12466 25.94 7.3162L16 13.6425V8.97995C15.9985 8.62391 15.9015 8.27478 15.7191 7.96902C15.5367 7.66327 15.2755 7.41209 14.9629 7.24172C14.6502 7.07135 14.2976 6.98804 13.9418 7.00048C13.5859 7.01292 13.24 7.12066 12.94 7.31245L1.91624 14.3325C1.63538 14.5107 1.4041 14.757 1.24385 15.0485C1.0836 15.34 0.999573 15.6673 0.999573 16C0.999573 16.3326 1.0836 16.6599 1.24385 16.9514C1.4041 17.2429 1.63538 17.4892 1.91624 17.6675L12.94 24.6875C13.24 24.8792 13.5859 24.987 13.9418 24.9994C14.2976 25.0119 14.6502 24.9286 14.9629 24.7582C15.2755 24.5878 15.5367 24.3366 15.7191 24.0309C15.9015 23.7251 15.9985 23.376 16 23.02V18.3575L25.94 24.6875C26.24 24.8792 26.5859 24.987 26.9418 24.9994C27.2976 25.0119 27.6502 24.9286 27.9629 24.7582C28.2755 24.5878 28.5367 24.3366 28.7191 24.0309C28.9015 23.7251 28.9985 23.376 29 23.02V8.97995C28.999 8.62593 28.903 8.27867 28.722 7.97438C28.5411 7.67009 28.2818 7.41992 27.9712 7.24995ZM14 22.9912L3.02249 16L14 9.00745V22.9912ZM27 22.9912L16.0225 16L27 9.00745V22.9912Z" fill="black"/>
</svg>
