<svg width="32" height="32" viewBox="0 0 32 32" fill="none" xmlns="http://www.w3.org/2000/svg">
<path d="M29 8.97995V23.02C28.9981 23.3758 28.9009 23.7247 28.7184 24.0302C28.5358 24.3357 28.2747 24.5867 27.9622 24.757C27.6497 24.9273 27.2973 25.0107 26.9416 24.9984C26.5859 24.9862 26.2401 24.8788 25.94 24.6875L16 18.3575V23.02C15.9981 23.3758 15.9009 23.7247 15.7184 24.0302C15.5358 24.3357 15.2747 24.5867 14.9622 24.757C14.6497 24.9273 14.2973 25.0107 13.9416 24.9984C13.5859 24.9862 13.24 24.8788 12.94 24.6875L1.91624 17.6675C1.63538 17.4892 1.4041 17.2429 1.24385 16.9514C1.0836 16.6599 0.999573 16.3326 0.999573 16C0.999573 15.6673 1.0836 15.34 1.24385 15.0485C1.4041 14.757 1.63538 14.5107 1.91624 14.3325L12.94 7.31245C13.24 7.12066 13.5859 7.01292 13.9418 7.00048C14.2976 6.98804 14.6502 7.07135 14.9629 7.24172C15.2755 7.41209 15.5367 7.66327 15.7191 7.96902C15.9015 8.27478 15.9985 8.62391 16 8.97995V13.6425L25.94 7.31245C26.24 7.12066 26.5859 7.01292 26.9418 7.00048C27.2976 6.98804 27.6502 7.07135 27.9629 7.24172C28.2755 7.41209 28.5367 7.66327 28.7191 7.96902C28.9015 8.27478 28.9985 8.62391 29 8.97995Z" fill="black"/>
</svg>
