<svg width="32" height="32" viewBox="0 0 32 32" fill="none" xmlns="http://www.w3.org/2000/svg">
<path d="M29.735 25.3075C29.3882 25.5024 28.9782 25.5516 28.5952 25.4442C28.2122 25.3369 27.8875 25.0818 27.6925 24.735L19.125 9.5H17.5V10C17.5 10.3978 17.342 10.7794 17.0607 11.0607C16.7794 11.342 16.3978 11.5 16 11.5C15.6022 11.5 15.2207 11.342 14.9394 11.0607C14.6581 10.7794 14.5 10.3978 14.5 10V9.5H12.875L4.30751 24.735C4.21209 24.9087 4.08317 25.0619 3.92821 25.1855C3.77325 25.3091 3.59533 25.4008 3.40472 25.4552C3.21412 25.5097 3.01461 25.5258 2.81774 25.5026C2.62086 25.4795 2.43053 25.4176 2.25773 25.3205C2.08494 25.2233 1.93311 25.0929 1.81102 24.9367C1.68893 24.7806 1.59901 24.6017 1.54645 24.4106C1.49389 24.2195 1.47974 24.0198 1.50481 23.8232C1.52988 23.6265 1.59368 23.4368 1.69251 23.265L9.43502 9.5H3.00002C2.60219 9.5 2.22066 9.34196 1.93935 9.06066C1.65805 8.77936 1.50001 8.39782 1.50001 8C1.50001 7.60218 1.65805 7.22064 1.93935 6.93934C2.22066 6.65804 2.60219 6.5 3.00002 6.5H29C29.3978 6.5 29.7794 6.65804 30.0607 6.93934C30.342 7.22064 30.5 7.60218 30.5 8C30.5 8.39782 30.342 8.77936 30.0607 9.06066C29.7794 9.34196 29.3978 9.5 29 9.5H22.565L30.3075 23.265C30.5024 23.6118 30.5516 24.0218 30.4443 24.4048C30.3369 24.7878 30.0818 25.1126 29.735 25.3075ZM16 13.5C15.6022 13.5 15.2207 13.658 14.9394 13.9393C14.6581 14.2206 14.5 14.6022 14.5 15V17C14.5 17.3978 14.6581 17.7794 14.9394 18.0607C15.2207 18.342 15.6022 18.5 16 18.5C16.3978 18.5 16.7794 18.342 17.0607 18.0607C17.342 17.7794 17.5 17.3978 17.5 17V15C17.5 14.6022 17.342 14.2206 17.0607 13.9393C16.7794 13.658 16.3978 13.5 16 13.5ZM16 20.5C15.6022 20.5 15.2207 20.658 14.9394 20.9393C14.6581 21.2206 14.5 21.6022 14.5 22V24C14.5 24.3978 14.6581 24.7794 14.9394 25.0607C15.2207 25.342 15.6022 25.5 16 25.5C16.3978 25.5 16.7794 25.342 17.0607 25.0607C17.342 24.7794 17.5 24.3978 17.5 24V22C17.5 21.6022 17.342 21.2206 17.0607 20.9393C16.7794 20.658 16.3978 20.5 16 20.5Z" fill="black"/>
</svg>
