<svg width="32" height="32" viewBox="0 0 32 32" fill="none" xmlns="http://www.w3.org/2000/svg">
<path d="M25 5.5H17.5V2C17.5 1.60218 17.342 1.22064 17.0607 0.93934C16.7794 0.658035 16.3978 0.5 16 0.5C15.6022 0.5 15.2206 0.658035 14.9393 0.93934C14.658 1.22064 14.5 1.60218 14.5 2V5.5H7C5.80653 5.5 4.66193 5.97411 3.81802 6.81802C2.97411 7.66193 2.5 8.80653 2.5 10V24C2.5 25.1935 2.97411 26.3381 3.81802 27.182C4.66193 28.0259 5.80653 28.5 7 28.5H25C26.1935 28.5 27.3381 28.0259 28.182 27.182C29.0259 26.3381 29.5 25.1935 29.5 24V10C29.5 8.80653 29.0259 7.66193 28.182 6.81802C27.3381 5.97411 26.1935 5.5 25 5.5ZM26.5 24C26.5 24.3978 26.342 24.7794 26.0607 25.0607C25.7794 25.342 25.3978 25.5 25 25.5H7C6.60218 25.5 6.22064 25.342 5.93934 25.0607C5.65804 24.7794 5.5 24.3978 5.5 24V10C5.5 9.60218 5.65804 9.22064 5.93934 8.93934C6.22064 8.65804 6.60218 8.5 7 8.5H25C25.3978 8.5 25.7794 8.65804 26.0607 8.93934C26.342 9.22064 26.5 9.60218 26.5 10V24ZM20.5 16H11.5C10.4391 16 9.42172 16.4214 8.67157 17.1716C7.92143 17.9217 7.5 18.9391 7.5 20C7.5 21.0609 7.92143 22.0783 8.67157 22.8284C9.42172 23.5786 10.4391 24 11.5 24H20.5C21.5609 24 22.5783 23.5786 23.3284 22.8284C24.0786 22.0783 24.5 21.0609 24.5 20C24.5 18.9391 24.0786 17.9217 23.3284 17.1716C22.5783 16.4214 21.5609 16 20.5 16ZM17 19V21H15V19H17ZM10.5 20C10.5 19.7348 10.6054 19.4804 10.7929 19.2929C10.9804 19.1054 11.2348 19 11.5 19H12V21H11.5C11.2348 21 10.9804 20.8946 10.7929 20.7071C10.6054 20.5196 10.5 20.2652 10.5 20ZM20.5 21H20V19H20.5C20.7652 19 21.0196 19.1054 21.2071 19.2929C21.3946 19.4804 21.5 19.7348 21.5 20C21.5 20.2652 21.3946 20.5196 21.2071 20.7071C21.0196 20.8946 20.7652 21 20.5 21ZM8.5 12.5C8.5 12.1044 8.6173 11.7178 8.83706 11.3889C9.05682 11.06 9.36918 10.8036 9.73463 10.6522C10.1001 10.5009 10.5022 10.4613 10.8902 10.5384C11.2781 10.6156 11.6345 10.8061 11.9142 11.0858C12.1939 11.3655 12.3844 11.7219 12.4616 12.1098C12.5387 12.4978 12.4991 12.8999 12.3478 13.2654C12.1964 13.6308 11.94 13.9432 11.6111 14.1629C11.2822 14.3827 10.8956 14.5 10.5 14.5C9.96957 14.5 9.46086 14.2893 9.08579 13.9142C8.71071 13.5391 8.5 13.0304 8.5 12.5ZM19.5 12.5C19.5 12.1044 19.6173 11.7178 19.8371 11.3889C20.0568 11.06 20.3692 10.8036 20.7346 10.6522C21.1001 10.5009 21.5022 10.4613 21.8902 10.5384C22.2781 10.6156 22.6345 10.8061 22.9142 11.0858C23.1939 11.3655 23.3844 11.7219 23.4616 12.1098C23.5387 12.4978 23.4991 12.8999 23.3478 13.2654C23.1964 13.6308 22.94 13.9432 22.6111 14.1629C22.2822 14.3827 21.8956 14.5 21.5 14.5C20.9696 14.5 20.4609 14.2893 20.0858 13.9142C19.7107 13.5391 19.5 13.0304 19.5 12.5Z" fill="black"/>
</svg>
