<svg width="32" height="32" viewBox="0 0 32 32" fill="none" xmlns="http://www.w3.org/2000/svg">
<path d="M12.7288 23.1811C12.6813 23.3749 11.5113 27.7499 5 27.7499C4.80109 27.7499 4.61032 27.6709 4.46967 27.5302C4.32902 27.3896 4.25 27.1988 4.25 26.9999C4.25 20.4886 8.6325 19.3186 8.81875 19.2724C9.01036 19.228 9.21174 19.2606 9.37953 19.3632C9.54731 19.4659 9.66806 19.6303 9.71576 19.8211C9.76347 20.0119 9.7343 20.2138 9.63456 20.3834C9.53481 20.5529 9.37247 20.6764 9.1825 20.7274C9.0575 20.7611 6.0775 21.6124 5.775 26.2274C10.4425 25.9186 11.265 22.8524 11.275 22.8199C11.3232 22.6268 11.4462 22.4607 11.6169 22.3583C11.7875 22.2559 11.9919 22.2254 12.185 22.2736C12.3781 22.3219 12.5442 22.4448 12.6466 22.6155C12.749 22.7862 12.7795 22.9905 12.7313 23.1836L12.7288 23.1811ZM24.42 14.6411L23.75 15.3099V22.7061C23.7505 22.9358 23.7054 23.1634 23.6175 23.3755C23.5295 23.5877 23.4004 23.7804 23.2375 23.9424L18.9438 28.2361C18.7142 28.4656 18.4253 28.6266 18.1094 28.7013C17.7935 28.7759 17.4631 28.7613 17.1551 28.659C16.8471 28.5566 16.5736 28.3707 16.3652 28.1218C16.1568 27.873 16.0217 27.5711 15.975 27.2499L15.2925 22.3561L9.6475 16.7074L4.75625 16.0249C4.43428 15.9793 4.13137 15.845 3.88149 15.6369C3.63162 15.4288 3.44466 15.1552 3.3416 14.8468C3.23853 14.5384 3.22344 14.2074 3.29801 13.8908C3.37257 13.5743 3.53385 13.2849 3.76375 13.0549L8.0575 8.76114C8.21956 8.59846 8.41225 8.46952 8.62445 8.38176C8.83664 8.29401 9.06413 8.24919 9.29375 8.24989H16.69L17.3588 7.58114C20.6225 4.31739 24.555 4.17739 26.0938 4.26864C26.5196 4.29493 26.9211 4.47586 27.2229 4.7774C27.5247 5.07895 27.7059 5.48035 27.7325 5.90614C27.8238 7.44489 27.6825 11.3749 24.42 14.6411ZM4.96625 14.5399L9.73375 15.2049L15.19 9.74989H9.29375C9.22755 9.75017 9.16417 9.77669 9.1175 9.82364L4.825 14.1149C4.79308 14.1471 4.77052 14.1874 4.75973 14.2314C4.74894 14.2754 4.75033 14.3216 4.76375 14.3649C4.77646 14.4108 4.80247 14.4519 4.83851 14.483C4.87455 14.5142 4.91899 14.534 4.96625 14.5399ZM22.25 16.8099L16.7938 22.2661L17.4588 27.0361C17.4656 27.082 17.4851 27.1251 17.5151 27.1605C17.5451 27.196 17.5843 27.2224 17.6284 27.2368C17.6725 27.2512 17.7198 27.253 17.7649 27.2421C17.81 27.2311 17.8511 27.2079 17.8838 27.1749L22.1763 22.8824C22.2232 22.8357 22.2497 22.7723 22.25 22.7061V16.8099ZM26.235 5.99989C26.2302 5.94084 26.2045 5.88542 26.1626 5.84353C26.1207 5.80163 26.0653 5.77598 26.0063 5.77114C24.6098 5.68151 23.2104 5.8917 21.902 6.38757C20.5935 6.88345 19.4063 7.65354 18.42 8.64614L11.0613 15.9999L16 20.9386L22.47 14.4699L23.3588 13.5811C24.3509 12.5955 25.1209 11.4092 25.6169 10.1016C26.113 8.79408 26.3237 7.39557 26.235 5.99989Z" fill="black"/>
</svg>
