<svg width="32" height="32" viewBox="0 0 32 32" fill="none" xmlns="http://www.w3.org/2000/svg">
<path d="M18.75 27.9999C18.75 28.1988 18.671 28.3896 18.5303 28.5303C18.3897 28.6709 18.1989 28.7499 18 28.7499H14C13.8011 28.7499 13.6103 28.6709 13.4697 28.5303C13.329 28.3896 13.25 28.1988 13.25 27.9999C13.25 27.801 13.329 27.6103 13.4697 27.4696C13.6103 27.329 13.8011 27.2499 14 27.2499H18C18.1989 27.2499 18.3897 27.329 18.5303 27.4696C18.671 27.6103 18.75 27.801 18.75 27.9999ZM16 13.7499C16.2472 13.7499 16.4889 13.6766 16.6945 13.5393C16.9 13.4019 17.0602 13.2067 17.1549 12.9783C17.2495 12.7499 17.2742 12.4985 17.226 12.2561C17.1778 12.0136 17.0587 11.7909 16.8839 11.6161C16.7091 11.4412 16.4863 11.3222 16.2439 11.274C16.0014 11.2257 15.7501 11.2505 15.5217 11.3451C15.2932 11.4397 15.098 11.5999 14.9607 11.8055C14.8233 12.011 14.75 12.2527 14.75 12.4999C14.75 12.8315 14.8817 13.1494 15.1161 13.3838C15.3505 13.6182 15.6685 13.7499 16 13.7499ZM27.7088 19.4249L26.1638 26.3749C26.1 26.6639 25.964 26.932 25.7684 27.1542C25.5728 27.3763 25.3241 27.5452 25.0456 27.6451C24.767 27.745 24.4676 27.7726 24.1755 27.7254C23.8833 27.6781 23.6079 27.5576 23.375 27.3749L19.9013 24.7499H12.1025L8.62501 27.3749C8.3921 27.5584 8.11639 27.6798 7.82374 27.7275C7.53109 27.7753 7.23111 27.7479 6.95196 27.6479C6.6728 27.5479 6.42362 27.3787 6.22781 27.156C6.032 26.9333 5.89598 26.6646 5.83251 26.3749L4.29126 19.4249C4.23375 19.1637 4.23662 18.8928 4.29966 18.6329C4.36269 18.3729 4.48423 18.1308 4.65501 17.9249L8.28001 13.5799C8.39214 12.0045 8.74979 10.4562 9.34001 8.99118C10.93 5.00618 13.78 2.50618 14.9313 1.61618C15.2381 1.37819 15.6154 1.24902 16.0038 1.24902C16.3921 1.24902 16.7694 1.37819 17.0763 1.61618C18.2275 2.50618 21.0763 5.00618 22.6675 8.99118C23.2577 10.4562 23.6154 12.0045 23.7275 13.5799L27.3525 17.9249C27.522 18.1314 27.6422 18.3739 27.7039 18.6338C27.7656 18.8937 27.7673 19.1643 27.7088 19.4249ZM12.2825 23.2499H19.7175C22.4588 18.4424 22.9825 13.8337 21.2713 9.54743C19.7775 5.79743 16.9775 3.43868 16.155 2.79743C16.1109 2.76256 16.0563 2.74358 16 2.74358C15.9438 2.74358 15.8891 2.76256 15.845 2.79743C15.0225 3.43368 12.22 5.79743 10.7288 9.54743C9.01751 13.8337 9.54126 18.4424 12.2825 23.2499ZM10.875 23.7999C9.37501 21.1137 8.51251 18.4749 8.29751 15.9012L5.80751 18.8849C5.78303 18.9142 5.76557 18.9487 5.75647 18.9857C5.74737 19.0228 5.74687 19.0614 5.75501 19.0987L7.30126 26.0537C7.31045 26.0951 7.33004 26.1335 7.35817 26.1653C7.38631 26.1971 7.42206 26.2211 7.46208 26.2353C7.50209 26.2494 7.54504 26.2531 7.58689 26.246C7.62873 26.239 7.66809 26.2214 7.70126 26.1949L7.71751 26.1812L10.875 23.7999ZM26.1963 18.8849L23.71 15.9012C23.495 18.4749 22.635 21.1137 21.1325 23.7999L24.2863 26.1749L24.3025 26.1887C24.3357 26.2152 24.375 26.2327 24.4169 26.2398C24.4587 26.2469 24.5017 26.2431 24.5417 26.229C24.5817 26.2149 24.6175 26.1908 24.6456 26.159C24.6737 26.1273 24.6933 26.0889 24.7025 26.0474L26.25 19.0987C26.2575 19.061 26.2562 19.0222 26.2462 18.9851C26.2362 18.948 26.2179 18.9138 26.1925 18.8849H26.1963Z" fill="black"/>
</svg>
