<svg width="32" height="32" viewBox="0 0 32 32" fill="none" xmlns="http://www.w3.org/2000/svg">
<path d="M28.4812 5.8613C28.4439 5.25223 28.1852 4.67784 27.7537 4.24635C27.3222 3.81487 26.7478 3.5561 26.1387 3.5188C24.4975 3.42255 20.3075 3.5713 16.8287 7.0488L16.375 7.50005H9.29499C8.96654 7.49895 8.64115 7.56314 8.33772 7.68889C8.03429 7.81464 7.75888 7.99944 7.52749 8.23255L3.23374 12.5238C2.90503 12.8524 2.67442 13.266 2.56779 13.7184C2.46116 14.1707 2.48273 14.6439 2.63009 15.0846C2.77745 15.5254 3.04475 15.9164 3.402 16.2137C3.75924 16.5109 4.19228 16.7027 4.65249 16.7675L9.29499 17.415L14.585 22.705L15.2337 27.3525C15.2969 27.8135 15.4882 28.2474 15.7859 28.605C16.0836 28.9625 16.4756 29.2293 16.9175 29.375C17.1745 29.4592 17.4433 29.5014 17.7137 29.5C18.0414 29.4998 18.3657 29.4349 18.6682 29.309C18.9706 29.1831 19.2453 28.9986 19.4762 28.7663L23.7687 24.4725C24.0015 24.241 24.186 23.9655 24.3115 23.6621C24.4371 23.3587 24.5011 23.0334 24.5 22.705V15.625L24.95 15.1763C28.4287 11.6925 28.5775 7.50005 28.4812 5.8613ZM9.49999 10.5H13.375L9.46874 14.41L6.06499 13.935L9.49999 10.5ZM18.95 9.1713C19.8059 8.3083 20.8272 7.6269 21.9527 7.16791C23.0781 6.70891 24.2847 6.48176 25.5 6.50005C25.519 7.71578 25.2921 8.9228 24.8328 10.0486C24.3735 11.1744 23.6914 12.1958 22.8275 13.0513L16 19.875L12.125 16L18.95 9.1713ZM21.5 22.5L18.0637 25.9363L17.5887 22.5325L21.5 18.625V22.5ZM12.5412 25.2025C11.4587 26.7063 9.26999 28.5 4.99999 28.5C4.60217 28.5 4.22063 28.342 3.93933 28.0607C3.65803 27.7794 3.49999 27.3979 3.49999 27C3.49999 22.7313 5.29374 20.5425 6.79874 19.4588C7.12209 19.2453 7.5155 19.1653 7.89655 19.2354C8.27761 19.3055 8.61675 19.5204 8.84294 19.835C9.06913 20.1495 9.16483 20.5394 9.10999 20.923C9.05515 21.3065 8.85402 21.654 8.54874 21.8925C7.79874 22.4313 6.93749 23.455 6.62124 25.3763C8.54249 25.06 9.56624 24.1963 10.105 23.4488C10.2163 23.2802 10.3605 23.1358 10.529 23.0243C10.6974 22.9128 10.8867 22.8365 11.0854 22.7999C11.2841 22.7634 11.4881 22.7673 11.6852 22.8115C11.8824 22.8558 12.0685 22.9394 12.2325 23.0573C12.3966 23.1752 12.5351 23.3251 12.6398 23.4979C12.7444 23.6707 12.8131 23.8628 12.8417 24.0628C12.8703 24.2628 12.8582 24.4665 12.8062 24.6617C12.7541 24.8569 12.6631 25.0396 12.5387 25.1988L12.5412 25.2025Z" fill="black"/>
</svg>
