<svg width="32" height="32" viewBox="0 0 32 32" fill="none" xmlns="http://www.w3.org/2000/svg">
<path d="M19.5 28.0001C19.5 28.3979 19.342 28.7795 19.0607 29.0608C18.7793 29.3421 18.3978 29.5001 18 29.5001H14C13.6022 29.5001 13.2206 29.3421 12.9393 29.0608C12.658 28.7795 12.5 28.3979 12.5 28.0001C12.5 27.6023 12.658 27.2207 12.9393 26.9394C13.2206 26.6581 13.6022 26.5001 14 26.5001H18C18.3978 26.5001 18.7793 26.6581 19.0607 26.9394C19.342 27.2207 19.5 27.6023 19.5 28.0001ZM16 14.5001C16.3956 14.5001 16.7822 14.3828 17.1111 14.163C17.44 13.9433 17.6964 13.6309 17.8478 13.2655C17.9991 12.9 18.0387 12.4979 17.9616 12.1099C17.8844 11.722 17.6939 11.3656 17.4142 11.0859C17.1345 10.8062 16.7781 10.6157 16.3902 10.5385C16.0022 10.4614 15.6001 10.501 15.2346 10.6523C14.8692 10.8037 14.5568 11.0601 14.3371 11.389C14.1173 11.7179 14 12.1045 14 12.5001C14 13.0305 14.2107 13.5392 14.5858 13.9143C14.9609 14.2894 15.4696 14.5001 16 14.5001ZM28.4412 19.5876L26.8962 26.5414C26.8053 26.9564 26.6096 27.3412 26.3278 27.6592C26.046 27.9771 25.6874 28.2176 25.2862 28.3576C25.0175 28.452 24.7348 28.5002 24.45 28.5001C23.8925 28.4996 23.3514 28.3116 22.9137 27.9664L19.6462 25.5001H12.3537L9.08624 27.9676C8.64841 28.3124 8.10732 28.5 7.54999 28.5001C7.26512 28.4998 6.98236 28.4512 6.71374 28.3564C6.31261 28.2163 5.95403 27.9759 5.67219 27.6579C5.39036 27.34 5.19465 26.9551 5.10374 26.5401L3.55874 19.5876C3.47683 19.2144 3.48108 18.8275 3.57119 18.4563C3.6613 18.085 3.83488 17.7392 4.07874 17.4451L7.55749 13.2701C7.69058 11.7058 8.05496 10.1699 8.63874 8.7126C10.2975 4.55635 13.2637 1.9501 14.4687 1.0226C14.907 0.683047 15.4456 0.498779 16 0.498779C16.5544 0.498779 17.093 0.683047 17.5312 1.0226C18.7312 1.9501 21.7025 4.55635 23.3612 8.7126C23.945 10.1699 24.3094 11.7058 24.4425 13.2701L27.9212 17.4451C28.1651 17.7392 28.3387 18.085 28.4288 18.4563C28.5189 18.8275 28.5232 19.2144 28.4412 19.5876ZM12.7237 22.5001H19.2762C21.715 18.0376 22.1512 13.7776 20.575 9.8251C19.3 6.6251 17.025 4.4876 16 3.6401C14.975 4.4876 12.7 6.6251 11.425 9.8251C9.84749 13.7776 10.285 18.0376 12.7237 22.5001ZM9.90499 23.5901C8.90765 21.7364 8.19468 19.7433 7.78999 17.6776L6.53999 19.1776L7.86249 25.1326L9.90499 23.5901ZM25.4587 19.1764L24.2087 17.6764C23.8041 19.742 23.0911 21.7352 22.0937 23.5889L24.135 25.1301L25.4587 19.1764Z" fill="black"/>
</svg>
