<svg width="32" height="32" viewBox="0 0 32 32" fill="none" xmlns="http://www.w3.org/2000/svg">
<path d="M26 17H6C5.33696 17 4.70107 17.2634 4.23223 17.7322C3.76339 18.2011 3.5 18.837 3.5 19.5V24C3.5 24.663 3.76339 25.2989 4.23223 25.7678C4.70107 26.2366 5.33696 26.5 6 26.5H26C26.663 26.5 27.2989 26.2366 27.7678 25.7678C28.2366 25.2989 28.5 24.663 28.5 24V19.5C28.5 18.837 28.2366 18.2011 27.7678 17.7322C27.2989 17.2634 26.663 17 26 17ZM25.5 23.5H6.5V20H25.5V23.5ZM26 5.5H6C5.33696 5.5 4.70107 5.76339 4.23223 6.23223C3.76339 6.70107 3.5 7.33696 3.5 8V12.5C3.5 13.163 3.76339 13.7989 4.23223 14.2678C4.70107 14.7366 5.33696 15 6 15H26C26.663 15 27.2989 14.7366 27.7678 14.2678C28.2366 13.7989 28.5 13.163 28.5 12.5V8C28.5 7.33696 28.2366 6.70107 27.7678 6.23223C27.2989 5.76339 26.663 5.5 26 5.5ZM25.5 12H6.5V8.5H25.5V12Z" fill="black"/>
</svg>
