<svg width="32" height="32" viewBox="0 0 32 32" fill="none" xmlns="http://www.w3.org/2000/svg">
<path d="M27.5 25C27.5 25.3978 27.342 25.7794 27.0607 26.0607C26.7794 26.342 26.3978 26.5 26 26.5C25.6022 26.5 25.2206 26.342 24.9393 26.0607C24.658 25.7794 24.5 25.3978 24.5 25C24.5 15.35 16.65 7.5 7 7.5C6.60218 7.5 6.22065 7.34196 5.93934 7.06066C5.65804 6.77936 5.5 6.39782 5.5 6C5.5 5.60218 5.65804 5.22064 5.93934 4.93934C6.22065 4.65804 6.60218 4.5 7 4.5C18.3038 4.5 27.5 13.6962 27.5 25ZM7 13.5C6.60218 13.5 6.22065 13.658 5.93934 13.9393C5.65804 14.2206 5.5 14.6022 5.5 15C5.5 15.3978 5.65804 15.7794 5.93934 16.0607C6.22065 16.342 6.60218 16.5 7 16.5C9.25363 16.5023 11.4143 17.3986 13.0079 18.9922C14.6014 20.5857 15.4977 22.7464 15.5 25C15.5 25.3978 15.658 25.7794 15.9393 26.0607C16.2206 26.342 16.6022 26.5 17 26.5C17.3978 26.5 17.7794 26.342 18.0607 26.0607C18.342 25.7794 18.5 25.3978 18.5 25C18.4967 21.951 17.284 19.0279 15.1281 16.8719C12.9721 14.716 10.049 13.5033 7 13.5ZM7.5 22.5C7.10444 22.5 6.71776 22.6173 6.38886 22.8371C6.05996 23.0568 5.80362 23.3692 5.65224 23.7346C5.50087 24.1001 5.46126 24.5022 5.53843 24.8902C5.6156 25.2781 5.80608 25.6345 6.08579 25.9142C6.36549 26.1939 6.72186 26.3844 7.10982 26.4616C7.49778 26.5387 7.89992 26.4991 8.26537 26.3478C8.63082 26.1964 8.94318 25.94 9.16294 25.6111C9.3827 25.2822 9.5 24.8956 9.5 24.5C9.5 23.9696 9.28929 23.4609 8.91421 23.0858C8.53914 22.7107 8.03043 22.5 7.5 22.5Z" fill="black"/>
</svg>
