<svg width="32" height="32" viewBox="0 0 32 32" fill="none" xmlns="http://www.w3.org/2000/svg">
<path d="M25 1.5C24.6022 1.5 24.2206 1.65804 23.9393 1.93934C23.658 2.22064 23.5 2.60218 23.5 3V4.5H20.5V3C20.5 2.60218 20.342 2.22064 20.0607 1.93934C19.7794 1.65804 19.3978 1.5 19 1.5C18.6022 1.5 18.2206 1.65804 17.9393 1.93934C17.658 2.22064 17.5 2.60218 17.5 3V4.5H14.5V3C14.5 2.60218 14.342 2.22064 14.0607 1.93934C13.7794 1.65804 13.3978 1.5 13 1.5C12.6022 1.5 12.2206 1.65804 11.9393 1.93934C11.658 2.22064 11.5 2.60218 11.5 3V4.5H8.5V3C8.5 2.60218 8.34196 2.22064 8.06066 1.93934C7.77936 1.65804 7.39782 1.5 7 1.5C6.60218 1.5 6.22064 1.65804 5.93934 1.93934C5.65804 2.22064 5.5 2.60218 5.5 3V29C5.5 29.3978 5.65804 29.7794 5.93934 30.0607C6.22064 30.342 6.60218 30.5 7 30.5C7.39782 30.5 7.77936 30.342 8.06066 30.0607C8.34196 29.7794 8.5 29.3978 8.5 29V27.5H11.5V29C11.5 29.3978 11.658 29.7794 11.9393 30.0607C12.2206 30.342 12.6022 30.5 13 30.5C13.3978 30.5 13.7794 30.342 14.0607 30.0607C14.342 29.7794 14.5 29.3978 14.5 29V27.5H17.5V29C17.5 29.3978 17.658 29.7794 17.9393 30.0607C18.2206 30.342 18.6022 30.5 19 30.5C19.3978 30.5 19.7794 30.342 20.0607 30.0607C20.342 29.7794 20.5 29.3978 20.5 29V27.5H23.5V29C23.5 29.3978 23.658 29.7794 23.9393 30.0607C24.2206 30.342 24.6022 30.5 25 30.5C25.3978 30.5 25.7794 30.342 26.0607 30.0607C26.342 29.7794 26.5 29.3978 26.5 29V3C26.5 2.60218 26.342 2.22064 26.0607 1.93934C25.7794 1.65804 25.3978 1.5 25 1.5ZM8.5 7.5H23.5V24.5H8.5V7.5ZM16 22.5C16.2591 22.5 16.5137 22.4328 16.7391 22.3051C16.9646 22.1774 17.153 21.9935 17.2862 21.7712L20.2862 16.7712C20.4259 16.5382 20.4997 16.2717 20.4997 16C20.4997 15.7283 20.4259 15.4618 20.2862 15.2288L17.2862 10.2288C17.153 10.0066 16.9645 9.82281 16.7391 9.69518C16.5136 9.56755 16.259 9.50048 16 9.50048C15.741 9.50048 15.4864 9.56755 15.2609 9.69518C15.0355 9.82281 14.847 10.0066 14.7137 10.2288L11.7137 15.2288C11.5741 15.4618 11.5003 15.7283 11.5003 16C11.5003 16.2717 11.5741 16.5382 11.7137 16.7712L14.7137 21.7712C14.847 21.9935 15.0354 22.1774 15.2609 22.3051C15.4863 22.4328 15.7409 22.5 16 22.5ZM16 13.915L17.25 16L16 18.085L14.75 16L16 13.915Z" fill="black"/>
</svg>
