<svg width="32" height="32" viewBox="0 0 32 32" fill="none" xmlns="http://www.w3.org/2000/svg">
<path d="M29.415 11.9999L12 29.4137C11.8142 29.5995 11.5937 29.7468 11.3511 29.8474C11.1084 29.9479 10.8483 29.9996 10.5856 29.9996C10.3229 29.9996 10.0628 29.9479 9.82012 29.8474C9.57744 29.7468 9.35695 29.5995 9.17122 29.4137L2.58497 22.8287C2.39921 22.643 2.25185 22.4225 2.15131 22.1798C2.05077 21.9371 1.99902 21.677 1.99902 21.4143C1.99902 21.1516 2.05077 20.8915 2.15131 20.6488C2.25185 20.4062 2.39921 20.1857 2.58497 19.9999L6.23122 16.3537C6.27766 16.3072 6.3328 16.2703 6.3935 16.2452C6.4542 16.22 6.51926 16.207 6.58497 16.207C6.65068 16.207 6.71574 16.22 6.77644 16.2452C6.83714 16.2703 6.89228 16.3072 6.93872 16.3537L11.2925 20.7074C11.3897 20.8046 11.5059 20.8807 11.6338 20.9309C11.7618 20.9812 11.8987 21.0045 12.0361 20.9994C12.1734 20.9944 12.3083 20.9611 12.4322 20.9016C12.5561 20.8421 12.6664 20.7577 12.7562 20.6537C12.9204 20.4556 13.0039 20.2028 12.99 19.9459C12.9761 19.6889 12.8659 19.4467 12.6812 19.2674L8.35247 14.9387C8.25897 14.845 8.20645 14.718 8.20645 14.5856C8.20645 14.4532 8.25897 14.3262 8.35247 14.2324L10.2275 12.3574C10.2739 12.311 10.3291 12.2741 10.3898 12.2489C10.4505 12.2238 10.5155 12.2108 10.5812 12.2108C10.6469 12.2108 10.712 12.2238 10.7727 12.2489C10.8334 12.2741 10.8885 12.311 10.935 12.3574L15.2887 16.7112C15.3859 16.8084 15.5022 16.8844 15.6301 16.9347C15.758 16.9849 15.8949 17.0082 16.0323 17.0032C16.1697 16.9981 16.3045 16.9648 16.4284 16.9054C16.5523 16.8459 16.6626 16.7615 16.7525 16.6574C16.9167 16.4593 17.0002 16.2066 16.9863 15.9496C16.9724 15.6927 16.8621 15.4504 16.6775 15.2712L12.3537 10.9387C12.2602 10.845 12.2077 10.718 12.2077 10.5856C12.2077 10.4532 12.2602 10.3262 12.3537 10.2324L14.2287 8.35744C14.3225 8.26394 14.4494 8.21142 14.5818 8.21142C14.7142 8.21142 14.8412 8.26394 14.935 8.35744L19.2887 12.7112C19.386 12.8086 19.5022 12.8848 19.6303 12.9352C19.7584 12.9855 19.8954 13.0089 20.0329 13.0039C20.1705 12.9988 20.3054 12.9654 20.4295 12.9058C20.5535 12.8462 20.6639 12.7617 20.7537 12.6574C20.9178 12.4592 21.0011 12.2063 20.9869 11.9494C20.9728 11.6924 20.8623 11.4503 20.6775 11.2712L16.3537 6.93869C16.2602 6.84496 16.2077 6.71797 16.2077 6.58557C16.2077 6.45317 16.2602 6.32618 16.3537 6.23244L20 2.58619C20.1857 2.40043 20.4062 2.25307 20.6489 2.15253C20.8916 2.05199 21.1517 2.00024 21.4143 2.00024C21.677 2.00024 21.9371 2.05199 22.1798 2.15253C22.4225 2.25307 22.643 2.40043 22.8287 2.58619L29.415 9.17119C29.6007 9.35692 29.7481 9.57741 29.8486 9.82009C29.9492 10.0628 30.0009 10.3229 30.0009 10.5856C30.0009 10.8482 29.9492 11.1084 29.8486 11.351C29.7481 11.5937 29.6007 11.8142 29.415 11.9999Z" fill="black"/>
</svg>
