<svg width="32" height="32" viewBox="0 0 32 32" fill="none" xmlns="http://www.w3.org/2000/svg">
<path d="M29.2388 9.34863L22.6525 2.76238C22.49 2.59986 22.2971 2.47094 22.0848 2.38298C21.8724 2.29503 21.6449 2.24976 21.415 2.24976C21.1852 2.24976 20.9576 2.29503 20.7453 2.38298C20.533 2.47094 20.34 2.59986 20.1775 2.76238L2.76128 20.1761C2.59876 20.3386 2.46984 20.5316 2.38189 20.7439C2.29393 20.9562 2.24866 21.1838 2.24866 21.4136C2.24866 21.6435 2.29393 21.871 2.38189 22.0834C2.46984 22.2957 2.59876 22.4886 2.76128 22.6511L9.34753 29.2374C9.51004 29.3999 9.70297 29.5288 9.9153 29.6168C10.1276 29.7047 10.3552 29.75 10.585 29.75C10.8149 29.75 11.0424 29.7047 11.2548 29.6168C11.4671 29.5288 11.66 29.3999 11.8225 29.2374L29.2388 11.8236C29.4013 11.6611 29.5302 11.4682 29.6182 11.2559C29.7061 11.0435 29.7514 10.816 29.7514 10.5861C29.7514 10.3563 29.7061 10.1287 29.6182 9.91639C29.5302 9.70406 29.4013 9.51114 29.2388 9.34863ZM28.1775 10.7624L10.7625 28.1761C10.7393 28.1994 10.7117 28.2178 10.6814 28.2304C10.651 28.243 10.6185 28.2495 10.5857 28.2495C10.5528 28.2495 10.5203 28.243 10.4899 28.2304C10.4596 28.2178 10.432 28.1994 10.4088 28.1761L3.82253 21.5911C3.79929 21.5679 3.78085 21.5403 3.76827 21.51C3.75569 21.4796 3.74921 21.4471 3.74921 21.4143C3.74921 21.3814 3.75569 21.3489 3.76827 21.3185C3.78085 21.2882 3.79929 21.2606 3.82253 21.2374L8.00003 17.0599L11.47 20.5299C11.5387 20.6036 11.6215 20.6627 11.7135 20.7037C11.8055 20.7447 11.9048 20.7667 12.0055 20.7685C12.1062 20.7703 12.2062 20.7517 12.2996 20.714C12.393 20.6763 12.4779 20.6201 12.5491 20.5489C12.6203 20.4777 12.6764 20.3929 12.7142 20.2995C12.7519 20.2061 12.7704 20.1061 12.7686 20.0054C12.7668 19.9047 12.7448 19.8053 12.7038 19.7133C12.6628 19.6213 12.6037 19.5385 12.53 19.4699L9.06003 15.9999L12 13.0599L15.47 16.5299C15.6122 16.6624 15.8003 16.7345 15.9946 16.7311C16.1889 16.7276 16.3742 16.6489 16.5117 16.5115C16.6491 16.3741 16.7278 16.1887 16.7312 15.9944C16.7346 15.8001 16.6625 15.6121 16.53 15.4699L13.06 11.9999L16 9.06113L19.47 12.5299C19.6122 12.6624 19.8003 12.7345 19.9946 12.7311C20.1889 12.7276 20.3742 12.6489 20.5117 12.5115C20.6491 12.3741 20.7278 12.1887 20.7312 11.9944C20.7346 11.8001 20.6625 11.6121 20.53 11.4699L17.0613 7.99988L21.2375 3.82363C21.2608 3.80039 21.2883 3.78195 21.3187 3.76937C21.349 3.75679 21.3816 3.75031 21.4144 3.75031C21.4473 3.75031 21.4798 3.75679 21.5101 3.76937C21.5405 3.78195 21.5681 3.80039 21.5913 3.82363L28.1775 10.4086C28.2008 10.4319 28.2192 10.4594 28.2318 10.4898C28.2444 10.5201 28.2509 10.5527 28.2509 10.5855C28.2509 10.6184 28.2444 10.6509 28.2318 10.6812C28.2192 10.7116 28.2008 10.7392 28.1775 10.7624Z" fill="black"/>
</svg>
