<svg width="32" height="32" viewBox="0 0 32 32" fill="none" xmlns="http://www.w3.org/2000/svg">
<path d="M30.3925 16.4425L26.3925 6.4425C26.2602 6.11259 26.0151 5.84038 25.7007 5.6744C25.3864 5.50842 25.0233 5.45946 24.6763 5.53625L17.5 7.125V5C17.5 4.60218 17.342 4.22064 17.0607 3.93934C16.7794 3.65804 16.3979 3.5 16 3.5C15.6022 3.5 15.2207 3.65804 14.9394 3.93934C14.6581 4.22064 14.5 4.60218 14.5 5V7.79625L6.67503 9.53625C6.4368 9.58908 6.21506 9.69924 6.02904 9.85716C5.84302 10.0151 5.69833 10.216 5.60753 10.4425L1.60753 20.4325C1.53527 20.6129 1.49876 20.8057 1.50003 21C1.50003 22.5163 2.27503 23.8037 3.68128 24.625C4.69577 25.1926 5.8376 25.4936 7.00003 25.5C8.16247 25.4936 9.3043 25.1926 10.3188 24.625C11.725 23.8037 12.5 22.5163 12.5 21C12.5 20.809 12.4635 20.6198 12.3925 20.4425L9.04753 12.0813L14.5 10.875V25.5H13C12.6022 25.5 12.2207 25.658 11.9394 25.9393C11.6581 26.2206 11.5 26.6022 11.5 27C11.5 27.3978 11.6581 27.7794 11.9394 28.0607C12.2207 28.342 12.6022 28.5 13 28.5H19C19.3979 28.5 19.7794 28.342 20.0607 28.0607C20.342 27.7794 20.5 27.3978 20.5 27C20.5 26.6022 20.342 26.2206 20.0607 25.9393C19.7794 25.658 19.3979 25.5 19 25.5H17.5V10.2037L22.5525 9.07875L19.6075 16.4412C19.5364 16.6189 19.4999 16.8086 19.5 17C19.5 18.5162 20.275 19.8037 21.6813 20.625C22.6931 21.1994 23.8366 21.5013 25 21.5013C26.1635 21.5013 27.307 21.1994 28.3188 20.625C29.725 19.8037 30.5 18.5162 30.5 17C30.5 16.809 30.4635 16.6198 30.3925 16.4425ZM7.00003 22.5C6.53628 22.5 4.75003 22.2663 4.52378 21.2275L7.00003 15.0387L9.47628 21.2275C9.25003 22.2663 7.46378 22.5 7.00003 22.5ZM25 18.5C24.5363 18.5 22.75 18.2663 22.5238 17.2275L25 11.0387L27.4763 17.2275C27.25 18.2663 25.4638 18.5 25 18.5Z" fill="black"/>
</svg>
