<svg width="32" height="32" viewBox="0 0 32 32" fill="none" xmlns="http://www.w3.org/2000/svg">
<path d="M19.9225 13.9999C19.8669 13.9186 19.8279 13.8271 19.8077 13.7307C19.7875 13.6342 19.7865 13.5348 19.8047 13.438C19.8229 13.3412 19.86 13.2489 19.9139 13.1664C19.9678 13.084 20.0374 13.0129 20.1188 12.9574L28.5763 7.16864C28.7405 7.05625 28.9427 7.01373 29.1384 7.05041C29.334 7.0871 29.507 7.2 29.6194 7.36426C29.7318 7.52853 29.7743 7.73072 29.7376 7.92634C29.7009 8.12197 29.588 8.295 29.4238 8.40739L20.965 14.1949C20.8009 14.3073 20.5989 14.3498 20.4034 14.3133C20.2079 14.2767 20.0349 14.164 19.9225 13.9999ZM29.625 24.6361C29.5126 24.8002 29.3397 24.913 29.1442 24.9495C28.9487 24.9861 28.7466 24.9435 28.5825 24.8311L17 16.9086L11.375 20.7574C11.814 21.7229 11.8761 22.8176 11.5491 23.8266C11.2221 24.8355 10.5297 25.6857 9.60789 26.2102C8.68607 26.7347 7.60145 26.8956 6.56706 26.6613C5.53268 26.4269 4.62329 25.8143 4.01752 24.9437C3.41175 24.0732 3.15338 23.0076 3.29316 21.9562C3.43293 20.9049 3.96075 19.9438 4.77295 19.2617C5.58514 18.5797 6.623 18.2259 7.68268 18.27C8.74236 18.3141 9.74727 18.7527 10.5 19.4999C10.5073 19.5088 10.5152 19.5172 10.5238 19.5249L15.6713 15.9999L10.5288 12.4799L10.5 12.4999C9.74842 13.2479 8.74432 13.688 7.68489 13.7336C6.62546 13.7793 5.58723 13.4272 4.77408 12.7466C3.96092 12.0659 3.43159 11.1059 3.29001 10.055C3.14844 9.00406 3.40485 7.93817 4.00889 7.06662C4.61294 6.19506 5.52099 5.58081 6.55473 5.34446C7.58847 5.10812 8.67322 5.26676 9.59599 5.78924C10.5188 6.31172 11.2129 7.16028 11.542 8.16832C11.8712 9.17635 11.8116 10.271 11.375 11.2374L29.4225 23.5874C29.5052 23.6425 29.5762 23.7135 29.6312 23.7962C29.6863 23.879 29.7243 23.9718 29.7431 24.0694C29.762 24.167 29.7613 24.2673 29.741 24.3646C29.7207 24.4619 29.6813 24.5542 29.625 24.6361ZM9.44502 11.4436C9.82949 11.059 10.0913 10.569 10.1973 10.0356C10.3033 9.50216 10.2487 8.9493 10.0406 8.44687C9.83239 7.94445 9.47992 7.51504 9.02771 7.21292C8.5755 6.9108 8.04387 6.74955 7.50002 6.74955C6.95618 6.74955 6.42455 6.9108 5.97234 7.21292C5.52013 7.51504 5.16766 7.94445 4.95948 8.44687C4.7513 8.9493 4.69677 9.50216 4.80277 10.0356C4.90878 10.569 5.17056 11.059 5.55502 11.4436C5.80939 11.7009 6.11228 11.9052 6.44614 12.0446C6.78001 12.184 7.13822 12.2558 7.50002 12.2558C7.86183 12.2558 8.22004 12.184 8.55391 12.0446C8.88777 11.9052 9.19066 11.7009 9.44502 11.4436ZM10.25 22.4999C10.2498 21.8637 10.029 21.2472 9.62525 20.7555C9.22148 20.2639 8.65972 19.9274 8.03569 19.8035C7.41166 19.6796 6.76397 19.7758 6.20297 20.0759C5.64196 20.376 5.20236 20.8613 4.95906 21.4491C4.71576 22.037 4.68381 22.691 4.86866 23.2998C5.0535 23.9086 5.44371 24.4344 5.9728 24.7877C6.50188 25.1411 7.13711 25.3 7.77025 25.2375C8.40338 25.175 8.99526 24.8949 9.44502 24.4449C9.70102 24.1899 9.90397 23.8868 10.0421 23.5529C10.1803 23.2191 10.251 22.8612 10.25 22.4999Z" fill="black"/>
</svg>
