<svg width="32" height="32" viewBox="0 0 32 32" fill="none" xmlns="http://www.w3.org/2000/svg">
<path d="M19.7162 14.1412C19.6419 14.0327 19.5897 13.9107 19.5626 13.782C19.5355 13.6533 19.5341 13.5206 19.5583 13.3914C19.5826 13.2622 19.6321 13.139 19.704 13.0289C19.7759 12.9188 19.8689 12.824 19.9775 12.7499L28.435 6.96243C28.654 6.8269 28.9169 6.78114 29.1689 6.83467C29.4209 6.8882 29.6425 7.03691 29.7875 7.24979C29.9326 7.46268 29.9899 7.72332 29.9475 7.9774C29.9051 8.23149 29.7663 8.45941 29.56 8.61368L21.1012 14.4012C20.9355 14.5155 20.7388 14.5765 20.5375 14.5762C20.3756 14.5756 20.2163 14.5356 20.0732 14.4599C19.9302 14.3841 19.8077 14.2747 19.7162 14.1412ZM29.825 24.7774C29.6751 24.9962 29.4445 25.1465 29.1838 25.1953C28.9231 25.244 28.6538 25.1873 28.435 25.0374L17 17.2124L11.6862 20.8474C12.0916 21.877 12.1035 23.0199 11.7196 24.0577C11.3356 25.0954 10.5828 25.9554 9.60487 26.4732C8.62696 26.9909 7.49256 27.1303 6.41842 26.8645C5.34427 26.5988 4.4057 25.9466 3.78203 25.0325C3.15836 24.1185 2.89332 23.0068 3.03755 21.9097C3.18178 20.8126 3.72517 19.8071 4.56389 19.0853C5.40262 18.3636 6.47787 17.9761 7.5842 17.997C8.69053 18.0179 9.75037 18.4457 10.5612 19.1987L15.2287 15.9999L10.555 12.8012C9.74686 13.5503 8.69116 13.9754 7.58946 13.9955C6.48776 14.0156 5.41726 13.6292 4.58237 12.9101C3.74749 12.191 3.20673 11.1896 3.06335 10.097C2.91996 9.00453 3.18401 7.89748 3.80506 6.98729C4.42611 6.07711 5.36065 5.42756 6.43023 5.16269C7.4998 4.89782 8.62946 5.03618 9.6035 5.55136C10.5775 6.06654 11.3277 6.92243 11.7107 7.9556C12.0937 8.98877 12.0828 10.1268 11.68 11.1524L29.555 23.3862C29.6643 23.4596 29.758 23.5539 29.8308 23.6637C29.9035 23.7734 29.9539 23.8965 29.979 24.0257C30.0041 24.155 30.0034 24.2879 29.9769 24.4169C29.9505 24.5459 29.8989 24.6684 29.825 24.7774ZM9.99997 22.4999C10.0001 21.9215 9.79966 21.361 9.43282 20.9138C9.06598 20.4666 8.55544 20.1605 7.98818 20.0475C7.42092 19.9346 6.83205 20.0218 6.3219 20.2944C5.81175 20.5669 5.41188 21.0079 5.19044 21.5423C4.96901 22.0766 4.93969 22.6712 5.10749 23.2247C5.27529 23.7782 5.62983 24.2564 6.1107 24.5778C6.59156 24.8993 7.169 25.044 7.74462 24.9874C8.32024 24.9308 8.85842 24.6764 9.26747 24.2674C9.50047 24.036 9.68519 23.7605 9.81093 23.4571C9.93667 23.1537 10.0009 22.8284 9.99997 22.4999ZM9.26747 11.2662C9.61718 10.9166 9.85535 10.4711 9.95188 9.98615C10.0484 9.50118 9.99894 8.99847 9.80974 8.54161C9.62054 8.08475 9.30011 7.69426 8.88897 7.41953C8.47783 7.14479 7.99445 6.99815 7.49997 6.99815C7.00548 6.99815 6.5221 7.14479 6.11097 7.41953C5.69983 7.69426 5.3794 8.08475 5.1902 8.54161C5.001 8.99847 4.95154 9.50118 5.04806 9.98615C5.14459 10.4711 5.38276 10.9166 5.73247 11.2662C5.96333 11.5005 6.23849 11.6866 6.54192 11.8136C6.84536 11.9406 7.17102 12.006 7.49997 12.006C7.82892 12.006 8.15458 11.9406 8.45801 11.8136C8.76145 11.6866 9.0366 11.5005 9.26747 11.2662Z" fill="black"/>
</svg>
