<svg width="32" height="32" viewBox="0 0 32 32" fill="none" xmlns="http://www.w3.org/2000/svg">
<path d="M30.5 21.5C30.5004 22.1937 30.3204 22.8755 29.9777 23.4786C29.635 24.0817 29.1413 24.5853 28.5451 24.94C27.949 25.2947 27.2709 25.4882 26.5773 25.5016C25.8838 25.515 25.1986 25.3478 24.5892 25.0165C23.9798 24.6851 23.4671 24.201 23.1013 23.6115C22.7355 23.0221 22.5293 22.3478 22.5029 21.6546C22.4765 20.9614 22.6308 20.2733 22.9507 19.6578C23.2706 19.0422 23.7451 18.5205 24.3275 18.1437L23.4088 15.3938L17.7838 22.6187C17.6904 22.7373 17.5713 22.8332 17.4356 22.8993C17.2999 22.9653 17.1509 22.9997 17 23H9.2075C8.84294 23.9019 8.16217 24.6401 7.29263 25.0763C6.42309 25.5125 5.42438 25.6169 4.48344 25.3699C3.54249 25.1229 2.7238 24.5415 2.18061 23.7344C1.63742 22.9274 1.40697 21.95 1.53238 20.9853C1.65779 20.0206 2.13048 19.1347 2.86196 18.4933C3.59344 17.852 4.53357 17.4992 5.5064 17.501C6.47922 17.5028 7.41805 17.8591 8.14715 18.5031C8.87625 19.1472 9.34566 20.0348 9.4675 21H16.5113L22.6488 13.1088L20.2788 6H17C16.7348 6 16.4804 5.89464 16.2929 5.70711C16.1054 5.51957 16 5.26522 16 5C16 4.73478 16.1054 4.48043 16.2929 4.29289C16.4804 4.10536 16.7348 4 17 4H21C21.2099 3.99998 21.4145 4.06601 21.5847 4.18873C21.755 4.31145 21.8824 4.48463 21.9488 4.68375L26.225 17.51C26.315 17.5037 26.4075 17.5 26.5 17.5C27.5609 17.5 28.5783 17.9214 29.3284 18.6716C30.0786 19.4217 30.5 20.4391 30.5 21.5Z" fill="black"/>
</svg>
