<svg width="32" height="32" viewBox="0 0 32 32" fill="none" xmlns="http://www.w3.org/2000/svg">
<path d="M26.5 16.5H26.415L24.7425 11.4862L22.4225 4.52625C22.3231 4.22756 22.1322 3.96772 21.8769 3.78353C21.6216 3.59934 21.3148 3.50015 21 3.5H17C16.6022 3.5 16.2207 3.65804 15.9394 3.93934C15.658 4.22064 15.5 4.60218 15.5 5C15.5 5.39782 15.658 5.77936 15.9394 6.06066C16.2207 6.34196 16.6022 6.5 17 6.5H19.9188L21.64 11.6625L14.765 20.5H10.4C10.1621 19.3301 9.51349 18.284 8.57141 17.5507C7.62933 16.8174 6.45596 16.4454 5.26348 16.5019C4.07099 16.5585 2.93809 17.0398 2.06962 17.859C1.20114 18.6781 0.654404 19.7809 0.52827 20.9681C0.402136 22.1552 0.704927 23.3483 1.38189 24.3316C2.05886 25.315 3.06533 26.0236 4.21931 26.3295C5.37329 26.6353 6.59862 26.5182 7.67375 25.9992C8.74888 25.4803 9.60286 24.5938 10.0813 23.5H15.5C15.7284 23.5 15.9537 23.4479 16.1588 23.3476C16.364 23.2473 16.5435 23.1015 16.6838 22.9212L22.78 15.0837L23.57 17.4587C22.6075 18.16 21.9269 19.1817 21.6506 20.3401C21.3744 21.4984 21.5206 22.7173 22.0631 23.7775C22.6055 24.8376 23.5085 25.6693 24.6095 26.123C25.7106 26.5766 26.9374 26.6224 28.0692 26.252C29.201 25.8817 30.1634 25.1196 30.7834 24.1028C31.4033 23.086 31.6399 21.8814 31.4507 20.7057C31.2616 19.5299 30.659 18.4603 29.7514 17.6893C28.8438 16.9184 27.6908 16.4966 26.5 16.5ZM5.50001 23.5C5.10445 23.5 4.71777 23.3827 4.38887 23.1629C4.05997 22.9432 3.80363 22.6308 3.65225 22.2654C3.50088 21.8999 3.46127 21.4978 3.53844 21.1098C3.61561 20.7219 3.80609 20.3655 4.0858 20.0858C4.3655 19.8061 4.72187 19.6156 5.10983 19.5384C5.49779 19.4613 5.89992 19.5009 6.26538 19.6522C6.63083 19.8036 6.94319 20.06 7.16295 20.3889C7.38271 20.7178 7.50001 21.1044 7.50001 21.5C7.50001 22.0304 7.2893 22.5391 6.91422 22.9142C6.53915 23.2893 6.03044 23.5 5.50001 23.5ZM26.5 23.5C26.1044 23.5 25.7178 23.3827 25.3889 23.1629C25.06 22.9432 24.8036 22.6308 24.6523 22.2654C24.5009 21.8999 24.4613 21.4978 24.5384 21.1098C24.6156 20.7219 24.8061 20.3655 25.0858 20.0858C25.3655 19.8061 25.7219 19.6156 26.1098 19.5384C26.4978 19.4613 26.8999 19.5009 27.2654 19.6522C27.6308 19.8036 27.9432 20.06 28.1629 20.3889C28.3827 20.7178 28.5 21.1044 28.5 21.5C28.5 22.0304 28.2893 22.5391 27.9142 22.9142C27.5392 23.2893 27.0304 23.5 26.5 23.5Z" fill="black"/>
</svg>
