<svg width="32" height="32" viewBox="0 0 32 32" fill="none" xmlns="http://www.w3.org/2000/svg">
<path d="M29 7.5V24.5C29 25.163 28.7366 25.7989 28.2678 26.2678C27.7989 26.7366 27.163 27 26.5 27H21.5C21.1022 27 20.7206 26.842 20.4393 26.5607C20.158 26.2794 20 25.8978 20 25.5C20 25.1022 20.158 24.7206 20.4393 24.4393C20.7206 24.158 21.1022 24 21.5 24H26V8H6V8.5C6 8.89782 5.84196 9.27936 5.56066 9.56066C5.27936 9.84196 4.89782 10 4.5 10C4.10218 10 3.72064 9.84196 3.43934 9.56066C3.15804 9.27936 3 8.89782 3 8.5V7.5C3 6.83696 3.26339 6.20107 3.73223 5.73223C4.20107 5.26339 4.83696 5 5.5 5H26.5C27.163 5 27.7989 5.26339 28.2678 5.73223C28.7366 6.20107 29 6.83696 29 7.5ZM4.5 22C4.10218 22 3.72064 22.158 3.43934 22.4393C3.15804 22.7206 3 23.1022 3 23.5C3 23.8978 3.15804 24.2794 3.43934 24.5607C3.72064 24.842 4.10218 25 4.5 25C4.63261 25 4.75979 25.0527 4.85355 25.1464C4.94732 25.2402 5 25.3674 5 25.5C5 25.8978 5.15804 26.2794 5.43934 26.5607C5.72064 26.842 6.10218 27 6.5 27C6.89782 27 7.27936 26.842 7.56066 26.5607C7.84196 26.2794 8 25.8978 8 25.5C8 24.5717 7.63125 23.6815 6.97487 23.0251C6.3185 22.3687 5.42826 22 4.5 22ZM4.5 17C4.10218 17 3.72064 17.158 3.43934 17.4393C3.15804 17.7206 3 18.1022 3 18.5C3 18.8978 3.15804 19.2794 3.43934 19.5607C3.72064 19.842 4.10218 20 4.5 20C5.95818 20.0017 7.35617 20.5816 8.38726 21.6127C9.41835 22.6438 9.99835 24.0418 10 25.5C10 25.8978 10.158 26.2794 10.4393 26.5607C10.7206 26.842 11.1022 27 11.5 27C11.8978 27 12.2794 26.842 12.5607 26.5607C12.842 26.2794 13 25.8978 13 25.5C12.9977 23.2464 12.1014 21.0857 10.5078 19.4922C8.91429 17.8986 6.75363 17.0023 4.5 17ZM4.5 12C4.10218 12 3.72064 12.158 3.43934 12.4393C3.15804 12.7206 3 13.1022 3 13.5C3 13.8978 3.15804 14.2794 3.43934 14.5607C3.72064 14.842 4.10218 15 4.5 15C7.28386 15.003 9.95285 16.1102 11.9213 18.0787C13.8898 20.0472 14.997 22.7161 15 25.5C15 25.8978 15.158 26.2794 15.4393 26.5607C15.7206 26.842 16.1022 27 16.5 27C16.8978 27 17.2794 26.842 17.5607 26.5607C17.842 26.2794 18 25.8978 18 25.5C17.996 21.9208 16.5724 18.4893 14.0416 15.9584C11.5107 13.4276 8.0792 12.004 4.5 12Z" fill="black"/>
</svg>
