<svg width="32" height="32" viewBox="0 0 32 32" fill="none" xmlns="http://www.w3.org/2000/svg">
<path d="M30.7412 19.3288C30.5762 19.1463 27.73 16.0513 23.1162 14.2587C22.9012 11.9563 22.0587 9.8625 20.69 8.26875C18.8587 6.125 16.1975 5 13 5C6.55995 5 2.3612 10.7725 2.1862 11.0188C2.04295 11.2346 1.98906 11.4976 2.03588 11.7524C2.08269 12.0072 2.22655 12.2339 2.43717 12.3847C2.64779 12.5356 2.90872 12.5988 3.16502 12.561C3.42131 12.5233 3.65297 12.3876 3.8112 12.1825C3.84995 12.1312 7.6012 7 13 7C15.5962 7 17.7325 7.88875 19.1762 9.57125C20.1037 10.6512 20.7312 12.0325 21.01 13.5712C19.5619 13.1931 18.0716 13.0012 16.575 13C13.3175 13 10.5837 13.8513 8.66745 15.4613C6.97245 16.8863 5.99995 18.875 5.99995 20.9062C5.99224 21.6952 6.14155 22.4778 6.4392 23.2086C6.73685 23.9393 7.17689 24.6035 7.7337 25.1625C8.9412 26.365 10.6162 27 12.575 27C19.0512 27 22.7225 21.7337 23.1362 16.4475C25.422 17.4636 27.499 18.8959 29.2612 20.6712C29.3494 20.7686 29.4558 20.8476 29.5745 20.9038C29.6932 20.96 29.8218 20.9923 29.953 20.9988C30.0841 21.0053 30.2153 20.9859 30.3389 20.9417C30.4626 20.8975 30.5764 20.8294 30.6737 20.7412C30.771 20.6531 30.8501 20.5466 30.9063 20.4279C30.9625 20.3093 30.9947 20.1807 31.0012 20.0495C31.0077 19.9183 30.9883 19.7872 30.9442 19.6635C30.9 19.5398 30.8319 19.4261 30.7437 19.3288H30.7412ZM18.9337 22.0338C17.83 23.3862 15.8325 25 12.575 25C9.41495 25 7.99995 22.9438 7.99995 20.9062C7.99995 18.0612 10.6837 15 16.575 15C18.1344 15.0047 19.6842 15.244 21.1725 15.71C21.1162 18.055 20.3075 20.3475 18.9337 22.0338Z" fill="black"/>
</svg>
