<svg width="32" height="32" viewBox="0 0 32 32" fill="none" xmlns="http://www.w3.org/2000/svg">
<path d="M30.5563 19.5C30.3913 19.3175 27.5226 16.1975 22.8851 14.4375C22.6976 12.1263 21.8688 10.0237 20.5101 8.4375C18.7176 6.35 16.1251 5.25 13.0001 5.25C6.68631 5.25 2.56256 10.9225 2.39006 11.1637C2.33261 11.2439 2.29149 11.3345 2.26907 11.4305C2.24665 11.5265 2.24335 11.626 2.25937 11.7232C2.27538 11.8205 2.3104 11.9137 2.36243 11.9974C2.41445 12.0811 2.48245 12.1538 2.56256 12.2113C2.64267 12.2687 2.7333 12.3098 2.8293 12.3322C2.92529 12.3547 3.02477 12.358 3.12204 12.3419C3.21931 12.3259 3.31247 12.2909 3.3962 12.2389C3.47994 12.1869 3.55261 12.1189 3.61006 12.0387C3.64756 11.9837 7.46881 6.75 13.0001 6.75C15.6713 6.75 17.8751 7.66875 19.3663 9.40875C20.3988 10.6112 21.0713 12.1763 21.3188 13.9163C19.7739 13.4756 18.1753 13.2514 16.5688 13.25C13.3713 13.25 10.6938 14.0813 8.81881 15.6525C7.18131 17.0275 6.24131 18.945 6.24131 20.9025C6.23387 21.6586 6.37679 22.4087 6.66176 23.1091C6.94674 23.8095 7.36808 24.4463 7.90131 24.9825C9.07006 26.14 10.6838 26.75 12.5751 26.75C19.0413 26.75 22.6438 21.3638 22.9101 16.0775C26.9163 17.7637 29.4101 20.4638 29.4438 20.5025C29.5804 20.6335 29.7616 20.708 29.9508 20.7111C30.1401 20.7141 30.3235 20.6455 30.4643 20.519C30.6051 20.3924 30.6928 20.2173 30.7099 20.0288C30.7269 19.8403 30.6721 19.6523 30.5563 19.5025V19.5ZM19.1251 22.1912C17.9901 23.5863 15.9301 25.25 12.5751 25.25C10.2501 25.25 7.75006 23.89 7.75006 20.9062C7.75006 17.9412 10.5113 14.75 16.5751 14.75C18.2223 14.7554 19.8586 15.0178 21.4251 15.5275C21.4076 17.9925 20.5726 20.4175 19.1251 22.1912Z" fill="black"/>
</svg>
