<svg width="32" height="32" viewBox="0 0 32 32" fill="none" xmlns="http://www.w3.org/2000/svg">
<path d="M30.375 19.665C30.21 19.4825 27.3163 16.3363 22.6513 14.6112C22.4938 12.2913 21.6788 10.18 20.3188 8.595C18.5775 6.57 16.0475 5.5 13 5.5C6.81378 5.5 2.76253 11.0725 2.59253 11.31C2.51545 11.4179 2.48439 11.552 2.50619 11.6828C2.528 11.8136 2.60087 11.9304 2.70878 12.0075C2.81669 12.0846 2.9508 12.1156 3.0816 12.0938C3.21241 12.072 3.3292 11.9992 3.40628 11.8912C3.44503 11.8375 7.33503 6.5 13 6.5C15.75 6.5 18.0138 7.45 19.5563 9.25C20.695 10.5763 21.4075 12.3275 21.6138 14.2662C19.9815 13.7625 18.2833 13.5042 16.575 13.5C13.4375 13.5 10.8138 14.31 8.98878 15.8438C7.40753 17.1737 6.50003 19.0188 6.50003 20.9062C6.49254 21.6294 6.62893 22.3468 6.90125 23.0168C7.17357 23.6868 7.57639 24.2959 8.08628 24.8088C9.19878 25.915 10.75 26.5 12.575 26.5C19.0288 26.5 22.5588 20.99 22.6725 15.71C26.9313 17.4075 29.5925 20.2937 29.6288 20.335C29.6728 20.3838 29.7259 20.4234 29.7852 20.4516C29.8445 20.4798 29.9088 20.496 29.9744 20.4994C30.04 20.5028 30.1056 20.4932 30.1675 20.4712C30.2293 20.4492 30.2863 20.4152 30.335 20.3713C30.3838 20.3273 30.4234 20.2741 30.4516 20.2148C30.4798 20.1555 30.4961 20.0912 30.4994 20.0256C30.5028 19.9601 30.4932 19.8944 30.4712 19.8326C30.4492 19.7707 30.4153 19.7138 30.3713 19.665H30.375ZM19.325 22.3487C18.1538 23.7862 16.0325 25.5 12.575 25.5C9.08878 25.5 7.50003 23.125 7.50003 20.9062C7.50003 17.8212 10.34 14.5 16.575 14.5C18.3094 14.5065 20.0315 14.7922 21.675 15.3462V15.4475C21.675 18 20.8175 20.5125 19.3213 22.3487H19.325Z" fill="black"/>
</svg>
