<svg width="32" height="32" viewBox="0 0 32 32" fill="none" xmlns="http://www.w3.org/2000/svg">
<path d="M11.5 11.5C11.5 11.1022 11.658 10.7206 11.9393 10.4393C12.2206 10.158 12.6022 10 13 10H20.5C20.8978 10 21.2794 10.158 21.5607 10.4393C21.842 10.7206 22 11.1022 22 11.5C22 11.8978 21.842 12.2794 21.5607 12.5607C21.2794 12.842 20.8978 13 20.5 13H13C12.6022 13 12.2206 12.842 11.9393 12.5607C11.658 12.2794 11.5 11.8978 11.5 11.5ZM13 18H20.5C20.8978 18 21.2794 17.842 21.5607 17.5607C21.842 17.2794 22 16.8978 22 16.5C22 16.1022 21.842 15.7206 21.5607 15.4393C21.2794 15.158 20.8978 15 20.5 15H13C12.6022 15 12.2206 15.158 11.9393 15.4393C11.658 15.7206 11.5 16.1022 11.5 16.5C11.5 16.8978 11.658 17.2794 11.9393 17.5607C12.2206 17.842 12.6022 18 13 18ZM29.5 24C29.5 25.1935 29.0259 26.3381 28.182 27.182C27.3381 28.0259 26.1935 28.5 25 28.5H11C9.80653 28.5 8.66193 28.0259 7.81802 27.182C6.97411 26.3381 6.5 25.1935 6.5 24V8C6.5 7.60218 6.34196 7.22064 6.06066 6.93934C5.77936 6.65804 5.39782 6.5 5 6.5C4.60218 6.5 4.22064 6.65804 3.93934 6.93934C3.65804 7.22064 3.5 7.60218 3.5 8C3.5 8.46625 3.91875 8.81375 3.9225 8.8175L3.9 8.8C4.06508 8.91519 4.20528 9.06243 4.31225 9.23295C4.41923 9.40347 4.49079 9.59377 4.52267 9.79252C4.55456 9.99128 4.54611 10.1944 4.49784 10.3898C4.44956 10.5853 4.36245 10.769 4.24168 10.93C4.12092 11.0911 3.96898 11.2261 3.79491 11.3272C3.62084 11.4283 3.4282 11.4933 3.22847 11.5184C3.02875 11.5435 2.82602 11.5281 2.63236 11.4732C2.4387 11.4183 2.25808 11.3249 2.10125 11.1987C1.93625 11.0775 0.5 9.94375 0.5 8C0.5 6.80653 0.974106 5.66193 1.81802 4.81802C2.66193 3.97411 3.80653 3.5 5 3.5H22C23.1935 3.5 24.3381 3.97411 25.182 4.81802C26.0259 5.66193 26.5 6.80653 26.5 8V20.5H27C27.3246 20.5 27.6404 20.6053 27.9 20.8C28.0637 20.9225 29.5 22.0562 29.5 24ZM11.5775 21.525C11.6771 21.2265 11.8681 20.967 12.1234 20.783C12.3787 20.5991 12.6853 20.5001 13 20.5H23.5V8C23.5 7.60218 23.342 7.22064 23.0607 6.93934C22.7794 6.65804 22.3978 6.5 22 6.5H9.2425C9.41316 6.98168 9.50025 7.48898 9.5 8V24C9.5 24.3978 9.65804 24.7794 9.93934 25.0607C10.2206 25.342 10.6022 25.5 11 25.5C11.3978 25.5 11.7794 25.342 12.0607 25.0607C12.342 24.7794 12.5 24.3978 12.5 24C12.5 23.5525 12.1038 23.2025 12.1 23.2C11.8481 23.011 11.6621 22.7475 11.5683 22.4469C11.4745 22.1462 11.4777 21.8237 11.5775 21.525ZM26.5 24C26.4956 23.8222 26.4419 23.6491 26.345 23.5H15.47C15.4919 23.6658 15.5027 23.8328 15.5025 24C15.5028 24.511 15.4158 25.0183 15.245 25.5H25C25.3978 25.5 25.7794 25.342 26.0607 25.0607C26.342 24.7794 26.5 24.3978 26.5 24Z" fill="black"/>
</svg>
