<svg width="32" height="32" viewBox="0 0 32 32" fill="none" xmlns="http://www.w3.org/2000/svg">
<path d="M12.5 5.00013C12.5 4.6023 12.658 4.22077 12.9393 3.93947C13.2206 3.65816 13.6022 3.50013 14 3.50013H18C18.3978 3.50013 18.7794 3.65816 19.0607 3.93947C19.342 4.22077 19.5 4.6023 19.5 5.00013C19.5 5.39795 19.342 5.77948 19.0607 6.06079C18.7794 6.34209 18.3978 6.50013 18 6.50013H14C13.6022 6.50013 13.2206 6.34209 12.9393 6.06079C12.658 5.77948 12.5 5.39795 12.5 5.00013ZM18 25.5001H14C13.6022 25.5001 13.2206 25.6582 12.9393 25.9395C12.658 26.2208 12.5 26.6023 12.5 27.0001C12.5 27.398 12.658 27.7795 12.9393 28.0608C13.2206 28.3421 13.6022 28.5001 14 28.5001H18C18.3978 28.5001 18.7794 28.3421 19.0607 28.0608C19.342 27.7795 19.5 27.398 19.5 27.0001C19.5 26.6023 19.342 26.2208 19.0607 25.9395C18.7794 25.6582 18.3978 25.5001 18 25.5001ZM26 3.50013H23C22.6022 3.50013 22.2206 3.65816 21.9393 3.93947C21.658 4.22077 21.5 4.6023 21.5 5.00013C21.5 5.39795 21.658 5.77948 21.9393 6.06079C22.2206 6.34209 22.6022 6.50013 23 6.50013H25.5V9.00013C25.5 9.39795 25.658 9.77948 25.9393 10.0608C26.2206 10.3421 26.6022 10.5001 27 10.5001C27.3978 10.5001 27.7794 10.3421 28.0607 10.0608C28.342 9.77948 28.5 9.39795 28.5 9.00013V6.00013C28.5 5.33708 28.2366 4.7012 27.7678 4.23236C27.2989 3.76352 26.663 3.50013 26 3.50013ZM27 12.5001C26.6022 12.5001 26.2206 12.6582 25.9393 12.9395C25.658 13.2208 25.5 13.6023 25.5 14.0001V18.0001C25.5 18.398 25.658 18.7795 25.9393 19.0608C26.2206 19.3421 26.6022 19.5001 27 19.5001C27.3978 19.5001 27.7794 19.3421 28.0607 19.0608C28.342 18.7795 28.5 18.398 28.5 18.0001V14.0001C28.5 13.6023 28.342 13.2208 28.0607 12.9395C27.7794 12.6582 27.3978 12.5001 27 12.5001ZM5 19.5001C5.39782 19.5001 5.77936 19.3421 6.06066 19.0608C6.34196 18.7795 6.5 18.398 6.5 18.0001V14.0001C6.5 13.6023 6.34196 13.2208 6.06066 12.9395C5.77936 12.6582 5.39782 12.5001 5 12.5001C4.60218 12.5001 4.22064 12.6582 3.93934 12.9395C3.65804 13.2208 3.5 13.6023 3.5 14.0001V18.0001C3.5 18.398 3.65804 18.7795 3.93934 19.0608C4.22064 19.3421 4.60218 19.5001 5 19.5001ZM9 25.5001H6.5V23.0001C6.5 22.6023 6.34196 22.2208 6.06066 21.9395C5.77936 21.6582 5.39782 21.5001 5 21.5001C4.60218 21.5001 4.22064 21.6582 3.93934 21.9395C3.65804 22.2208 3.5 22.6023 3.5 23.0001V26.0001C3.5 26.6632 3.76339 27.2991 4.23223 27.7679C4.70107 28.2367 5.33696 28.5001 6 28.5001H9C9.39782 28.5001 9.77936 28.3421 10.0607 28.0608C10.342 27.7795 10.5 27.398 10.5 27.0001C10.5 26.6023 10.342 26.2208 10.0607 25.9395C9.77936 25.6582 9.39782 25.5001 9 25.5001ZM7.11 3.99138C6.97827 3.84289 6.81838 3.72202 6.6396 3.63578C6.46082 3.54954 6.26669 3.49965 6.06849 3.48898C5.87028 3.47832 5.67192 3.5071 5.48492 3.57366C5.29791 3.64022 5.12598 3.74324 4.97908 3.87674C4.83218 4.01023 4.71324 4.17156 4.62915 4.35137C4.54506 4.53117 4.4975 4.72588 4.48921 4.9242C4.48093 5.12252 4.51208 5.32052 4.58088 5.50671C4.64968 5.6929 4.75475 5.86359 4.89 6.00888L24.89 28.0089C25.1589 28.2978 25.5309 28.469 25.9253 28.4855C26.3197 28.502 26.7046 28.3624 26.9967 28.0969C27.2888 27.8314 27.4645 27.4615 27.4857 27.0674C27.5069 26.6733 27.3719 26.2866 27.11 25.9914L7.11 3.99138Z" fill="black"/>
</svg>
