<svg width="32" height="32" viewBox="0 0 32 32" fill="none" xmlns="http://www.w3.org/2000/svg">
<path d="M8.5 27C8.5 27.3978 8.34196 27.7794 8.06066 28.0607C7.77936 28.342 7.39782 28.5 7 28.5H6C5.33696 28.5 4.70107 28.2366 4.23223 27.7678C3.76339 27.2989 3.5 26.663 3.5 26V25C3.5 24.6022 3.65804 24.2206 3.93934 23.9393C4.22064 23.658 4.60218 23.5 5 23.5C5.39782 23.5 5.77936 23.658 6.06066 23.9393C6.34196 24.2206 6.5 24.6022 6.5 25V25.5H7C7.39782 25.5 7.77936 25.658 8.06066 25.9393C8.34196 26.2206 8.5 26.6022 8.5 27ZM14 25.5H12C11.6022 25.5 11.2206 25.658 10.9393 25.9393C10.658 26.2206 10.5 26.6022 10.5 27C10.5 27.3978 10.658 27.7794 10.9393 28.0607C11.2206 28.342 11.6022 28.5 12 28.5H14C14.3978 28.5 14.7794 28.342 15.0607 28.0607C15.342 27.7794 15.5 27.3978 15.5 27C15.5 26.6022 15.342 26.2206 15.0607 25.9393C14.7794 25.658 14.3978 25.5 14 25.5ZM5 21.5C5.39782 21.5 5.77936 21.342 6.06066 21.0607C6.34196 20.7794 6.5 20.3978 6.5 20V18C6.5 17.6022 6.34196 17.2206 6.06066 16.9393C5.77936 16.658 5.39782 16.5 5 16.5C4.60218 16.5 4.22064 16.658 3.93934 16.9393C3.65804 17.2206 3.5 17.6022 3.5 18V20C3.5 20.3978 3.65804 20.7794 3.93934 21.0607C4.22064 21.342 4.60218 21.5 5 21.5ZM21 23.5C20.6022 23.5 20.2206 23.658 19.9393 23.9393C19.658 24.2206 19.5 24.6022 19.5 25V25.5H19C18.6022 25.5 18.2206 25.658 17.9393 25.9393C17.658 26.2206 17.5 26.6022 17.5 27C17.5 27.3978 17.658 27.7794 17.9393 28.0607C18.2206 28.342 18.6022 28.5 19 28.5H20C20.663 28.5 21.2989 28.2366 21.7678 27.7678C22.2366 27.2989 22.5 26.663 22.5 26V25C22.5 24.6022 22.342 24.2206 22.0607 23.9393C21.7794 23.658 21.3978 23.5 21 23.5ZM21 14.5C21.3978 14.5 21.7794 14.342 22.0607 14.0607C22.342 13.7794 22.5 13.3978 22.5 13V12C22.5 11.337 22.2366 10.7011 21.7678 10.2322C21.2989 9.76339 20.663 9.5 20 9.5H19C18.6022 9.5 18.2206 9.65804 17.9393 9.93934C17.658 10.2206 17.5 10.6022 17.5 11C17.5 11.3978 17.658 11.7794 17.9393 12.0607C18.2206 12.342 18.6022 12.5 19 12.5H19.5V13C19.5 13.3978 19.658 13.7794 19.9393 14.0607C20.2206 14.342 20.6022 14.5 21 14.5ZM7 9.5H6C5.33696 9.5 4.70107 9.76339 4.23223 10.2322C3.76339 10.7011 3.5 11.337 3.5 12V13C3.5 13.3978 3.65804 13.7794 3.93934 14.0607C4.22064 14.342 4.60218 14.5 5 14.5C5.39782 14.5 5.77936 14.342 6.06066 14.0607C6.34196 13.7794 6.5 13.3978 6.5 13V12.5H7C7.39782 12.5 7.77936 12.342 8.06066 12.0607C8.34196 11.7794 8.5 11.3978 8.5 11C8.5 10.6022 8.34196 10.2206 8.06066 9.93934C7.77936 9.65804 7.39782 9.5 7 9.5ZM26 3.5H12.5C11.837 3.5 11.2011 3.76339 10.7322 4.23223C10.2634 4.70107 10 5.33696 10 6V11C9.99863 11.025 9.99863 11.05 10 11.075C10.0193 11.4597 10.1858 11.8222 10.465 12.0875C10.7442 12.3528 11.1148 12.5005 11.5 12.5H14C14.3978 12.5 14.7794 12.342 15.0607 12.0607C15.342 11.7794 15.5 11.3978 15.5 11C15.5 10.6022 15.342 10.2206 15.0607 9.93934C14.7794 9.65804 14.3978 9.5 14 9.5H13V6.5H25.5V19H22.5V18C22.5 17.6022 22.342 17.2206 22.0607 16.9393C21.7794 16.658 21.3978 16.5 21 16.5C20.6022 16.5 20.2206 16.658 19.9393 16.9393C19.658 17.2206 19.5 17.6022 19.5 18V20.5C19.5 20.8978 19.658 21.2794 19.9393 21.5607C20.2206 21.842 20.6022 22 21 22H26C26.663 22 27.2989 21.7366 27.7678 21.2678C28.2366 20.7989 28.5 20.163 28.5 19.5V6C28.5 5.33696 28.2366 4.70107 27.7678 4.23223C27.2989 3.76339 26.663 3.5 26 3.5Z" fill="black"/>
</svg>
