<svg width="32" height="32" viewBox="0 0 32 32" fill="none" xmlns="http://www.w3.org/2000/svg">
<path d="M19.5 5C19.5 5.39782 19.342 5.77936 19.0607 6.06066C18.7794 6.34196 18.3978 6.5 18 6.5H14C13.6022 6.5 13.2206 6.34196 12.9393 6.06066C12.658 5.77936 12.5 5.39782 12.5 5C12.5 4.60218 12.658 4.22064 12.9393 3.93934C13.2206 3.65804 13.6022 3.5 14 3.5H18C18.3978 3.5 18.7794 3.65804 19.0607 3.93934C19.342 4.22064 19.5 4.60218 19.5 5ZM18 25.5H14C13.6022 25.5 13.2206 25.658 12.9393 25.9393C12.658 26.2206 12.5 26.6022 12.5 27C12.5 27.3978 12.658 27.7794 12.9393 28.0607C13.2206 28.342 13.6022 28.5 14 28.5H18C18.3978 28.5 18.7794 28.342 19.0607 28.0607C19.342 27.7794 19.5 27.3978 19.5 27C19.5 26.6022 19.342 26.2206 19.0607 25.9393C18.7794 25.658 18.3978 25.5 18 25.5ZM26 3.5H23C22.6022 3.5 22.2206 3.65804 21.9393 3.93934C21.658 4.22064 21.5 4.60218 21.5 5C21.5 5.39782 21.658 5.77936 21.9393 6.06066C22.2206 6.34196 22.6022 6.5 23 6.5H25.5V9C25.5 9.39782 25.658 9.77936 25.9393 10.0607C26.2206 10.342 26.6022 10.5 27 10.5C27.3978 10.5 27.7794 10.342 28.0607 10.0607C28.342 9.77936 28.5 9.39782 28.5 9V6C28.5 5.33696 28.2366 4.70107 27.7678 4.23223C27.2989 3.76339 26.663 3.5 26 3.5ZM27 12.5C26.6022 12.5 26.2206 12.658 25.9393 12.9393C25.658 13.2206 25.5 13.6022 25.5 14V18C25.5 18.3978 25.658 18.7794 25.9393 19.0607C26.2206 19.342 26.6022 19.5 27 19.5C27.3978 19.5 27.7794 19.342 28.0607 19.0607C28.342 18.7794 28.5 18.3978 28.5 18V14C28.5 13.6022 28.342 13.2206 28.0607 12.9393C27.7794 12.658 27.3978 12.5 27 12.5ZM27 21.5C26.6022 21.5 26.2206 21.658 25.9393 21.9393C25.658 22.2206 25.5 22.6022 25.5 23V25.5H23C22.6022 25.5 22.2206 25.658 21.9393 25.9393C21.658 26.2206 21.5 26.6022 21.5 27C21.5 27.3978 21.658 27.7794 21.9393 28.0607C22.2206 28.342 22.6022 28.5 23 28.5H26C26.663 28.5 27.2989 28.2366 27.7678 27.7678C28.2366 27.2989 28.5 26.663 28.5 26V23C28.5 22.6022 28.342 22.2206 28.0607 21.9393C27.7794 21.658 27.3978 21.5 27 21.5ZM5 19.5C5.39782 19.5 5.77936 19.342 6.06066 19.0607C6.34196 18.7794 6.5 18.3978 6.5 18V14C6.5 13.6022 6.34196 13.2206 6.06066 12.9393C5.77936 12.658 5.39782 12.5 5 12.5C4.60218 12.5 4.22064 12.658 3.93934 12.9393C3.65804 13.2206 3.5 13.6022 3.5 14V18C3.5 18.3978 3.65804 18.7794 3.93934 19.0607C4.22064 19.342 4.60218 19.5 5 19.5ZM9 25.5H6.5V23C6.5 22.6022 6.34196 22.2206 6.06066 21.9393C5.77936 21.658 5.39782 21.5 5 21.5C4.60218 21.5 4.22064 21.658 3.93934 21.9393C3.65804 22.2206 3.5 22.6022 3.5 23V26C3.5 26.663 3.76339 27.2989 4.23223 27.7678C4.70107 28.2366 5.33696 28.5 6 28.5H9C9.39782 28.5 9.77936 28.342 10.0607 28.0607C10.342 27.7794 10.5 27.3978 10.5 27C10.5 26.6022 10.342 26.2206 10.0607 25.9393C9.77936 25.658 9.39782 25.5 9 25.5ZM9 3.5H6C5.33696 3.5 4.70107 3.76339 4.23223 4.23223C3.76339 4.70107 3.5 5.33696 3.5 6V9C3.5 9.39782 3.65804 9.77936 3.93934 10.0607C4.22064 10.342 4.60218 10.5 5 10.5C5.39782 10.5 5.77936 10.342 6.06066 10.0607C6.34196 9.77936 6.5 9.39782 6.5 9V6.5H9C9.39782 6.5 9.77936 6.34196 10.0607 6.06066C10.342 5.77936 10.5 5.39782 10.5 5C10.5 4.60218 10.342 4.22064 10.0607 3.93934C9.77936 3.65804 9.39782 3.5 9 3.5Z" fill="black"/>
</svg>
