<svg width="32" height="32" viewBox="0 0 32 32" fill="none" xmlns="http://www.w3.org/2000/svg">
<path d="M19.5 10H6C5.33696 10 4.70107 10.2634 4.23223 10.7322C3.76339 11.2011 3.5 11.837 3.5 12.5V26C3.5 26.663 3.76339 27.2989 4.23223 27.7678C4.70107 28.2366 5.33696 28.5 6 28.5H19.5C20.163 28.5 20.7989 28.2366 21.2678 27.7678C21.7366 27.2989 22 26.663 22 26V12.5C22 11.837 21.7366 11.2011 21.2678 10.7322C20.7989 10.2634 20.163 10 19.5 10ZM19 25.5H6.5V13H19V25.5ZM16.5 5C16.5 4.60218 16.658 4.22064 16.9393 3.93934C17.2206 3.65804 17.6022 3.5 18 3.5H20C20.3978 3.5 20.7794 3.65804 21.0607 3.93934C21.342 4.22064 21.5 4.60218 21.5 5C21.5 5.39782 21.342 5.77936 21.0607 6.06066C20.7794 6.34196 20.3978 6.5 20 6.5H18C17.6022 6.5 17.2206 6.34196 16.9393 6.06066C16.658 5.77936 16.5 5.39782 16.5 5ZM28.5 6V7C28.5 7.39782 28.342 7.77936 28.0607 8.06066C27.7794 8.34196 27.3978 8.5 27 8.5C26.6022 8.5 26.2206 8.34196 25.9393 8.06066C25.658 7.77936 25.5 7.39782 25.5 7V6.5H25C24.6022 6.5 24.2206 6.34196 23.9393 6.06066C23.658 5.77936 23.5 5.39782 23.5 5C23.5 4.60218 23.658 4.22064 23.9393 3.93934C24.2206 3.65804 24.6022 3.5 25 3.5H26C26.663 3.5 27.2989 3.76339 27.7678 4.23223C28.2366 4.70107 28.5 5.33696 28.5 6ZM28.5 12V14C28.5 14.3978 28.342 14.7794 28.0607 15.0607C27.7794 15.342 27.3978 15.5 27 15.5C26.6022 15.5 26.2206 15.342 25.9393 15.0607C25.658 14.7794 25.5 14.3978 25.5 14V12C25.5 11.6022 25.658 11.2206 25.9393 10.9393C26.2206 10.658 26.6022 10.5 27 10.5C27.3978 10.5 27.7794 10.658 28.0607 10.9393C28.342 11.2206 28.5 11.6022 28.5 12ZM28.5 19V20C28.5 20.663 28.2366 21.2989 27.7678 21.7678C27.2989 22.2366 26.663 22.5 26 22.5H25C24.6022 22.5 24.2206 22.342 23.9393 22.0607C23.658 21.7794 23.5 21.3978 23.5 21C23.5 20.6022 23.658 20.2206 23.9393 19.9393C24.2206 19.658 24.6022 19.5 25 19.5H25.5V19C25.5 18.6022 25.658 18.2206 25.9393 17.9393C26.2206 17.658 26.6022 17.5 27 17.5C27.3978 17.5 27.7794 17.658 28.0607 17.9393C28.342 18.2206 28.5 18.6022 28.5 19ZM9.5 7V6C9.5 5.33696 9.76339 4.70107 10.2322 4.23223C10.7011 3.76339 11.337 3.5 12 3.5H13C13.3978 3.5 13.7794 3.65804 14.0607 3.93934C14.342 4.22064 14.5 4.60218 14.5 5C14.5 5.39782 14.342 5.77936 14.0607 6.06066C13.7794 6.34196 13.3978 6.5 13 6.5H12.5V7C12.5 7.39782 12.342 7.77936 12.0607 8.06066C11.7794 8.34196 11.3978 8.5 11 8.5C10.6022 8.5 10.2206 8.34196 9.93934 8.06066C9.65804 7.77936 9.5 7.39782 9.5 7Z" fill="black"/>
</svg>
