<svg width="32" height="32" viewBox="0 0 32 32" fill="none" xmlns="http://www.w3.org/2000/svg">
<path d="M13.9487 22.6838C13.9988 22.8341 14.0125 22.9942 13.9886 23.1508C13.9647 23.3075 13.9039 23.4562 13.8113 23.5847C13.7186 23.7133 13.5967 23.818 13.4557 23.8902C13.3146 23.9624 13.1584 24 13 24H2.99995C2.84149 24 2.6853 23.9624 2.54424 23.8902C2.40319 23.818 2.28131 23.7133 2.18865 23.5847C2.09599 23.4562 2.03521 23.3075 2.01132 23.1508C1.98742 22.9942 2.00109 22.8341 2.0512 22.6838L7.0512 7.68375C7.11754 7.48459 7.24487 7.31136 7.41516 7.1886C7.58544 7.06584 7.79003 6.99978 7.99995 6.99978C8.20987 6.99978 8.41447 7.06584 8.58475 7.1886C8.75503 7.31136 8.88236 7.48459 8.9487 7.68375L13.9487 22.6838ZM26 9.5C26 8.21442 25.6187 6.95772 24.9045 5.8888C24.1903 4.81988 23.1751 3.98676 21.9874 3.49479C20.7997 3.00282 19.4927 2.87409 18.2319 3.1249C16.971 3.3757 15.8128 3.99477 14.9038 4.90381C13.9947 5.81285 13.3757 6.97104 13.1248 8.23192C12.874 9.49279 13.0028 10.7997 13.4947 11.9874C13.9867 13.1752 14.8198 14.1903 15.8887 14.9046C16.9577 15.6188 18.2144 16 19.5 16C21.2232 15.998 22.8754 15.3126 24.094 14.094C25.3125 12.8754 25.998 11.2233 26 9.5ZM28 18H17C16.7347 18 16.4804 18.1054 16.2928 18.2929C16.1053 18.4804 16 18.7348 16 19V26C16 26.2652 16.1053 26.5196 16.2928 26.7071C16.4804 26.8946 16.7347 27 17 27H28C28.2652 27 28.5195 26.8946 28.7071 26.7071C28.8946 26.5196 29 26.2652 29 26V19C29 18.7348 28.8946 18.4804 28.7071 18.2929C28.5195 18.1054 28.2652 18 28 18Z" fill="black"/>
</svg>
