<svg width="32" height="32" viewBox="0 0 32 32" fill="none" xmlns="http://www.w3.org/2000/svg">
<path d="M8.71122 7.7625C8.66132 7.61336 8.5658 7.48367 8.43817 7.39179C8.31053 7.2999 8.15724 7.25046 7.99997 7.25046C7.8427 7.25046 7.68941 7.2999 7.56177 7.39179C7.43414 7.48367 7.33862 7.61336 7.28872 7.7625L2.28872 22.7625C2.25108 22.8752 2.24078 22.9953 2.25866 23.1128C2.27653 23.2303 2.32208 23.3419 2.39154 23.4383C2.46101 23.5348 2.5524 23.6133 2.65818 23.6675C2.76397 23.7217 2.88111 23.75 2.99997 23.75H13C13.1188 23.75 13.236 23.7217 13.3418 23.6675C13.4475 23.6133 13.5389 23.5348 13.6084 23.4383C13.6779 23.3419 13.7234 23.2303 13.7413 23.1128C13.7592 22.9953 13.7489 22.8752 13.7112 22.7625L8.71122 7.7625ZM4.03997 22.25L7.99997 10.375L11.96 22.25H4.03997ZM25.75 9.5C25.75 8.26387 25.3834 7.0555 24.6967 6.02769C24.0099 4.99988 23.0338 4.1988 21.8917 3.72576C20.7497 3.25271 19.493 3.12894 18.2807 3.37009C17.0683 3.61125 15.9546 4.20651 15.0806 5.08059C14.2065 5.95466 13.6112 7.06831 13.3701 8.28069C13.1289 9.49307 13.2527 10.7497 13.7257 11.8918C14.1988 13.0338 14.9998 14.0099 16.0277 14.6967C17.0555 15.3834 18.2638 15.75 19.5 15.75C21.157 15.748 22.7455 15.0889 23.9172 13.9172C25.0889 12.7456 25.748 11.157 25.75 9.5ZM14.75 9.5C14.75 8.56054 15.0286 7.64218 15.5505 6.86104C16.0724 6.07991 16.8143 5.47109 17.6822 5.11158C18.5502 4.75206 19.5052 4.65799 20.4266 4.84127C21.3481 5.02455 22.1944 5.47695 22.8587 6.14125C23.523 6.80555 23.9754 7.65191 24.1587 8.57332C24.342 9.49473 24.2479 10.4498 23.8884 11.3177C23.5289 12.1857 22.9201 12.9275 22.1389 13.4495C21.3578 13.9714 20.4394 14.25 19.5 14.25C18.2402 14.25 17.032 13.7496 16.1412 12.8588C15.2504 11.968 14.75 10.7598 14.75 9.5ZM28 18.25H17C16.8011 18.25 16.6103 18.329 16.4696 18.4697C16.329 18.6103 16.25 18.8011 16.25 19V26C16.25 26.1989 16.329 26.3897 16.4696 26.5303C16.6103 26.671 16.8011 26.75 17 26.75H28C28.1989 26.75 28.3896 26.671 28.5303 26.5303C28.671 26.3897 28.75 26.1989 28.75 26V19C28.75 18.8011 28.671 18.6103 28.5303 18.4697C28.3896 18.329 28.1989 18.25 28 18.25ZM27.25 25.25H17.75V19.75H27.25V25.25Z" fill="black"/>
</svg>
