<svg width="32" height="32" viewBox="0 0 32 32" fill="none" xmlns="http://www.w3.org/2000/svg">
<path d="M8.47381 7.8425C8.44036 7.74337 8.37665 7.65723 8.29166 7.59622C8.20667 7.5352 8.10468 7.50238 8.00006 7.50238C7.89544 7.50238 7.79345 7.5352 7.70846 7.59622C7.62347 7.65723 7.55976 7.74337 7.52631 7.8425L2.52631 22.8425C2.50139 22.9176 2.49464 22.9975 2.50662 23.0757C2.51859 23.1539 2.54895 23.2281 2.59519 23.2923C2.64143 23.3565 2.70224 23.4088 2.77263 23.4449C2.84301 23.481 2.92096 23.4999 3.00006 23.5H13.0001C13.0792 23.4999 13.1571 23.481 13.2275 23.4449C13.2979 23.4088 13.3587 23.3565 13.4049 23.2923C13.4512 23.2281 13.4815 23.1539 13.4935 23.0757C13.5055 22.9975 13.4987 22.9176 13.4738 22.8425L8.47381 7.8425ZM3.69381 22.5L8.00006 9.58125L12.3063 22.5H3.69381ZM25.5001 9.5C25.5001 8.31331 25.1482 7.15328 24.4889 6.16658C23.8296 5.17989 22.8925 4.41085 21.7962 3.95673C20.6998 3.5026 19.4934 3.38378 18.3295 3.61529C17.1656 3.8468 16.0965 4.41825 15.2574 5.25736C14.4183 6.09648 13.8469 7.16558 13.6153 8.32946C13.3838 9.49335 13.5027 10.6997 13.9568 11.7961C14.4109 12.8925 15.1799 13.8295 16.1666 14.4888C17.1533 15.1481 18.3134 15.5 19.5001 15.5C21.0909 15.4983 22.616 14.8657 23.7409 13.7408C24.8657 12.616 25.4984 11.0908 25.5001 9.5ZM14.5001 9.5C14.5001 8.5111 14.7933 7.5444 15.3427 6.72215C15.8921 5.89991 16.673 5.25904 17.5866 4.88061C18.5003 4.50217 19.5056 4.40315 20.4755 4.59608C21.4454 4.789 22.3363 5.26521 23.0356 5.96447C23.7349 6.66373 24.2111 7.55465 24.404 8.52455C24.5969 9.49446 24.4979 10.4998 24.1195 11.4134C23.741 12.3271 23.1002 13.1079 22.2779 13.6574C21.4557 14.2068 20.489 14.5 19.5001 14.5C18.174 14.5 16.9022 13.9732 15.9645 13.0355C15.0268 12.0979 14.5001 10.8261 14.5001 9.5ZM28.0001 18.5H17.0001C16.8675 18.5 16.7403 18.5527 16.6465 18.6464C16.5527 18.7402 16.5001 18.8674 16.5001 19V26C16.5001 26.1326 16.5527 26.2598 16.6465 26.3536C16.7403 26.4473 16.8675 26.5 17.0001 26.5H28.0001C28.1327 26.5 28.2598 26.4473 28.3536 26.3536C28.4474 26.2598 28.5001 26.1326 28.5001 26V19C28.5001 18.8674 28.4474 18.7402 28.3536 18.6464C28.2598 18.5527 28.1327 18.5 28.0001 18.5ZM27.5001 25.5H17.5001V19.5H27.5001V25.5Z" fill="black"/>
</svg>
