<svg width="32" height="32" viewBox="0 0 32 32" fill="none" xmlns="http://www.w3.org/2000/svg">
<path d="M29.7075 14.7076L19.7075 24.7076C19.5676 24.8476 19.3894 24.9429 19.1953 24.9816C19.0012 25.0202 18.8 25.0004 18.6172 24.9247C18.4344 24.8489 18.2782 24.7206 18.1683 24.556C18.0584 24.3914 17.9998 24.198 18 24.0001V19.0288C10.8625 19.4338 5.96875 24.0626 4.595 25.5288C4.37929 25.7592 4.09641 25.9156 3.78663 25.9759C3.47684 26.0362 3.15593 25.9973 2.86957 25.8646C2.58321 25.7319 2.34598 25.5123 2.19166 25.2371C2.03733 24.9618 1.97376 24.6448 2.01 24.3313C2.47375 20.2988 4.6825 16.4201 8.23 13.4101C11.1763 10.9101 14.7575 9.32381 18 9.04631V4.00006C17.9998 3.80216 18.0584 3.60867 18.1683 3.44407C18.2782 3.27948 18.4344 3.15119 18.6172 3.07543C18.8 2.99968 19.0012 2.97988 19.1953 3.01853C19.3894 3.05718 19.5676 3.15254 19.7075 3.29256L29.7075 13.2926C29.8005 13.3854 29.8742 13.4957 29.9246 13.6171C29.9749 13.7385 30.0008 13.8686 30.0008 14.0001C30.0008 14.1315 29.9749 14.2616 29.9246 14.383C29.8742 14.5044 29.8005 14.6147 29.7075 14.7076Z" fill="black"/>
</svg>
