<svg width="32" height="32" viewBox="0 0 32 32" fill="none" xmlns="http://www.w3.org/2000/svg">
<path d="M29.53 13.4701L19.53 3.47007C19.4251 3.36532 19.2915 3.29399 19.1461 3.26511C19.0007 3.23622 18.85 3.25107 18.7131 3.30779C18.5761 3.3645 18.459 3.46053 18.3766 3.58374C18.2942 3.70696 18.2501 3.85183 18.25 4.00007V9.27507C11.44 9.72382 3.20125 16.1501 2.25875 24.3576C2.22814 24.6189 2.28078 24.8833 2.40918 25.1129C2.53758 25.3426 2.73519 25.5259 2.97385 25.6367C3.21251 25.7475 3.48006 25.7802 3.73838 25.7301C3.99669 25.68 4.2326 25.5496 4.4125 25.3576C5.82 23.8563 10.875 19.0751 18.25 18.7663V24.0001C18.2501 24.1483 18.2942 24.2932 18.3766 24.4164C18.459 24.5396 18.5761 24.6356 18.7131 24.6924C18.85 24.7491 19.0007 24.7639 19.1461 24.735C19.2915 24.7062 19.4251 24.6348 19.53 24.5301L29.53 14.5301C29.6704 14.3894 29.7493 14.1988 29.7493 14.0001C29.7493 13.8013 29.6704 13.6107 29.53 13.4701ZM19.75 22.1901V18.0001C19.75 17.8012 19.671 17.6104 19.5303 17.4697C19.3897 17.3291 19.1989 17.2501 19 17.2501C15.5337 17.2501 12.155 18.1563 8.96 19.9438C7.09778 20.9899 5.38243 22.2782 3.85875 23.7751C4.44625 20.4551 6.37875 17.2751 9.35875 14.7413C12.3087 12.2426 15.9112 10.7501 19 10.7501C19.1989 10.7501 19.3897 10.6711 19.5303 10.5304C19.671 10.3898 19.75 10.199 19.75 10.0001V5.81132L27.9387 14.0001L19.75 22.1901Z" fill="black"/>
</svg>
