<svg width="32" height="32" viewBox="0 0 32 32" fill="none" xmlns="http://www.w3.org/2000/svg">
<path d="M22 19.5001C20.6605 19.498 19.3667 19.9872 18.3638 20.8751L13.2625 17.6001C13.5791 16.5569 13.5791 15.4433 13.2625 14.4001L18.3638 11.1251C19.3567 11.9977 20.6316 12.4819 21.9535 12.4884C23.2754 12.4949 24.555 12.0233 25.5565 11.1605C26.558 10.2977 27.2137 9.10189 27.4029 7.79361C27.592 6.48532 27.3017 5.15276 26.5856 4.04166C25.8694 2.93056 24.7757 2.11584 23.5062 1.74773C22.2366 1.37962 20.8767 1.48294 19.6773 2.03864C18.4779 2.59435 17.5198 3.56496 16.9798 4.77151C16.4397 5.97805 16.3541 7.33916 16.7388 8.60386L11.6362 11.8751C10.8428 11.1739 9.86371 10.7166 8.81668 10.5582C7.76965 10.3998 6.69915 10.5471 5.73377 10.9823C4.76838 11.4175 3.94916 12.1221 3.37447 13.0115C2.79979 13.901 2.49409 14.9374 2.49409 15.9964C2.49409 17.0553 2.79979 18.0917 3.37447 18.9812C3.94916 19.8706 4.76838 20.5752 5.73377 21.0104C6.69915 21.4456 7.76965 21.5929 8.81668 21.4345C9.86371 21.2761 10.8428 20.8189 11.6362 20.1176L16.7375 23.4001C16.4009 24.5071 16.422 25.692 16.7978 26.7863C17.1735 27.8806 17.8848 28.8285 18.8304 29.4952C19.776 30.1619 20.9078 30.5134 22.0647 30.4997C23.2217 30.486 24.3448 30.1078 25.2744 29.4189C26.204 28.73 26.8926 27.7655 27.2423 26.6626C27.5921 25.5598 27.5851 24.3747 27.2224 23.276C26.8597 22.1773 26.1598 21.221 25.2221 20.543C24.2845 19.8651 23.157 19.5002 22 19.5001ZM22 4.50011C22.4945 4.50011 22.9778 4.64673 23.3889 4.92143C23.8 5.19614 24.1205 5.58658 24.3097 6.0434C24.4989 6.50021 24.5484 7.00288 24.452 7.48783C24.3555 7.97279 24.1174 8.41824 23.7678 8.76787C23.4181 9.11751 22.9727 9.35561 22.4877 9.45207C22.0028 9.54853 21.5001 9.49903 21.0433 9.30981C20.5865 9.12059 20.196 8.80016 19.9213 8.38903C19.6466 7.97791 19.5 7.49456 19.5 7.00011C19.5 6.33707 19.7634 5.70118 20.2322 5.23234C20.7011 4.7635 21.337 4.50011 22 4.50011ZM8 18.5001C7.50555 18.5001 7.0222 18.3535 6.61107 18.0788C6.19995 17.8041 5.87952 17.4136 5.6903 16.9568C5.50108 16.5 5.45157 15.9973 5.54804 15.5124C5.6445 15.0274 5.8826 14.582 6.23223 14.2323C6.58186 13.8827 7.02732 13.6446 7.51227 13.5481C7.99723 13.4517 8.49989 13.5012 8.95671 13.6904C9.41352 13.8796 9.80397 14.2001 10.0787 14.6112C10.3534 15.0223 10.5 15.5057 10.5 16.0001C10.5 16.6631 10.2366 17.299 9.76777 17.7679C9.29893 18.2367 8.66304 18.5001 8 18.5001ZM22 27.5001C21.5055 27.5001 21.0222 27.3535 20.6111 27.0788C20.2 26.8041 19.8795 26.4136 19.6903 25.9568C19.5011 25.5 19.4516 24.9973 19.548 24.5124C19.6445 24.0274 19.8826 23.582 20.2322 23.2323C20.5819 22.8827 21.0273 22.6446 21.5123 22.5481C21.9972 22.4517 22.4999 22.5012 22.9567 22.6904C23.4135 22.8796 23.804 23.2001 24.0787 23.6112C24.3534 24.0223 24.5 24.5057 24.5 25.0001C24.5 25.6632 24.2366 26.299 23.7678 26.7679C23.2989 27.2367 22.663 27.5001 22 27.5001Z" fill="black"/>
</svg>
