<svg width="32" height="32" viewBox="0 0 32 32" fill="none" xmlns="http://www.w3.org/2000/svg">
<path d="M22 20.5001C21.3313 20.5005 20.6711 20.6499 20.0674 20.9375C19.4637 21.2251 18.9317 21.6436 18.51 22.1626L12.0313 18.0001C12.3404 17.3787 12.5013 16.6941 12.5013 16.0001C12.5013 15.3061 12.3404 14.6215 12.0313 14.0001L18.51 9.8376C19.2363 10.7266 20.2753 11.3037 21.4139 11.4505C22.5524 11.5973 23.7039 11.3026 24.6318 10.6269C25.5598 9.95115 26.1939 8.94576 26.4037 7.81717C26.6136 6.68858 26.3833 5.52248 25.7602 4.55837C25.1371 3.59425 24.1685 2.90531 23.0534 2.63305C21.9382 2.36078 20.7611 2.52586 19.7638 3.09438C18.7666 3.66289 18.0248 4.59169 17.691 5.69C17.3572 6.78832 17.4566 7.97277 17.9688 9.0001L11.49 13.1626C10.9038 12.4411 10.1086 11.9189 9.21367 11.6676C8.31869 11.4163 7.36786 11.4484 6.49185 11.7594C5.61584 12.0704 4.85763 12.6451 4.32143 13.4044C3.78523 14.1638 3.49735 15.0705 3.49735 16.0001C3.49735 16.9297 3.78523 17.8364 4.32143 18.5958C4.85763 19.3551 5.61584 19.9298 6.49185 20.2408C7.36786 20.5518 8.31869 20.5839 9.21367 20.3326C10.1086 20.0813 10.9038 19.5591 11.49 18.8376L17.9688 23.0001C17.5339 23.8766 17.3965 24.871 17.5775 25.8326C17.7586 26.7941 18.248 27.6705 18.9718 28.3289C19.6956 28.9873 20.6143 29.3919 21.5887 29.4813C22.563 29.5707 23.54 29.3401 24.3715 28.8244C25.2031 28.3087 25.8439 27.5361 26.1969 26.6235C26.5498 25.7109 26.5958 24.7082 26.3277 23.7671C26.0596 22.8261 25.4921 21.9981 24.7112 21.4086C23.9303 20.8191 22.9785 20.5001 22 20.5001ZM22 3.5001C22.6922 3.5001 23.3689 3.70537 23.9445 4.08996C24.5201 4.47454 24.9687 5.02117 25.2336 5.66071C25.4985 6.30025 25.5678 7.00398 25.4328 7.68292C25.2977 8.36185 24.9644 8.98549 24.4749 9.47497C23.9854 9.96446 23.3618 10.2978 22.6828 10.4328C22.0039 10.5679 21.3002 10.4986 20.6606 10.2337C20.0211 9.96877 19.4744 9.52017 19.0899 8.9446C18.7053 8.36903 18.5 7.69234 18.5 7.0001C18.5 6.07184 18.8687 5.18161 19.5251 4.52523C20.1815 3.86885 21.0717 3.5001 22 3.5001ZM8 19.5001C7.30777 19.5001 6.63108 19.2948 6.05551 18.9102C5.47993 18.5257 5.03133 17.979 4.76642 17.3395C4.50152 16.7 4.4322 15.9962 4.56725 15.3173C4.7023 14.6384 5.03564 14.0147 5.52513 13.5252C6.01461 13.0357 6.63825 12.7024 7.31719 12.5674C7.99612 12.4323 8.69985 12.5016 9.33939 12.7665C9.97893 13.0314 10.5256 13.48 10.9101 14.0556C11.2947 14.6312 11.5 15.3079 11.5 16.0001C11.5 16.9284 11.1313 17.8186 10.4749 18.475C9.8185 19.1314 8.92826 19.5001 8 19.5001ZM22 28.5001C21.3078 28.5001 20.6311 28.2948 20.0555 27.9102C19.4799 27.5257 19.0313 26.979 18.7664 26.3395C18.5015 25.7 18.4322 24.9962 18.5673 24.3173C18.7023 23.6384 19.0356 23.0147 19.5251 22.5252C20.0146 22.0357 20.6383 21.7024 21.3172 21.5674C21.9961 21.4323 22.6999 21.5016 23.3394 21.7665C23.9789 22.0314 24.5256 22.48 24.9101 23.0556C25.2947 23.6312 25.5 24.3079 25.5 25.0001C25.5 25.9284 25.1313 26.8186 24.4749 27.475C23.8185 28.1314 22.9283 28.5001 22 28.5001Z" fill="black"/>
</svg>
