<svg width="32" height="32" viewBox="0 0 32 32" fill="none" xmlns="http://www.w3.org/2000/svg">
<path d="M29.3538 13.6462L19.3538 3.64616C19.2838 3.57615 19.1947 3.52847 19.0977 3.50914C19.0006 3.48982 18.9 3.49972 18.8086 3.53759C18.7172 3.57547 18.6391 3.63962 18.5841 3.72191C18.5292 3.80421 18.4999 3.90096 18.5 3.99991V9.51116C11.75 9.81615 3.44625 16.2049 2.5075 24.3862C2.48121 24.5951 2.52264 24.8069 2.62569 24.9905C2.72874 25.1741 2.88798 25.3198 3.08 25.4062C3.21325 25.4693 3.35881 25.5021 3.50625 25.5024C3.64234 25.502 3.77688 25.4735 3.90143 25.4186C4.02597 25.3638 4.13784 25.2838 4.23 25.1837C5.67125 23.6499 10.8913 18.7174 18.5 18.5087V23.9999C18.4999 24.0989 18.5292 24.1956 18.5841 24.2779C18.6391 24.3602 18.7172 24.4243 18.8086 24.4622C18.9 24.5001 19.0006 24.51 19.0977 24.4907C19.1947 24.4713 19.2838 24.4237 19.3538 24.3537L29.3538 14.3537C29.4002 14.3072 29.4371 14.2521 29.4623 14.1914C29.4874 14.1307 29.5004 14.0656 29.5004 13.9999C29.5004 13.9342 29.4874 13.8691 29.4623 13.8084C29.4371 13.7477 29.4002 13.6926 29.3538 13.6462ZM19.5 22.7912V17.9999C19.5 17.8673 19.4473 17.7401 19.3536 17.6464C19.2598 17.5526 19.1326 17.4999 19 17.4999C15.5763 17.4999 12.24 18.3962 9.0825 20.1624C7.0156 21.3215 5.13391 22.7835 3.5 24.4999C3.92 20.8487 5.94375 17.3149 9.2 14.5537C12.1913 12.0137 15.8538 10.4999 19 10.4999C19.1326 10.4999 19.2598 10.4472 19.3536 10.3535C19.4473 10.2597 19.5 10.1325 19.5 9.99991V5.20741L28.2925 13.9999L19.5 22.7912Z" fill="black"/>
</svg>
