<svg width="32" height="32" viewBox="0 0 32 32" fill="none" xmlns="http://www.w3.org/2000/svg">
<path d="M30.0613 12.9399L20.0613 2.93993C19.8515 2.72999 19.5843 2.58696 19.2933 2.52895C19.0023 2.47093 18.7006 2.50053 18.4264 2.61401C18.1522 2.72748 17.9178 2.91973 17.7529 3.16643C17.588 3.41313 17.5 3.70319 17.5 3.99993V8.59243C14.28 8.98243 10.7925 10.5787 7.90625 13.0262C4.26125 16.1187 1.99125 20.1124 1.51375 24.2762C1.46538 24.694 1.54997 25.1165 1.7555 25.4834C1.96103 25.8504 2.27703 26.1433 2.65857 26.3204C3.04011 26.4974 3.46776 26.5497 3.88071 26.4697C4.29366 26.3897 4.67089 26.1816 4.95875 25.8749C6.26625 24.4824 10.8338 20.1574 17.5 19.5724V23.9999C17.5003 24.2964 17.5884 24.5862 17.7532 24.8326C17.9181 25.079 18.1522 25.2711 18.4262 25.3845C18.7001 25.4979 19.0015 25.5276 19.2923 25.4699C19.5831 25.4121 19.8502 25.2694 20.06 25.0599L30.06 15.0599C30.3411 14.7788 30.4991 14.3977 30.4993 14.0002C30.4995 13.6027 30.342 13.2213 30.0613 12.9399ZM20.5 20.3749V17.9999C20.5 17.6021 20.342 17.2206 20.0607 16.9393C19.7794 16.658 19.3978 16.4999 19 16.4999C12.875 16.4999 8.17875 19.1949 5.27625 21.5137C6.1675 19.2437 7.73 17.1112 9.8475 15.3149C12.6625 12.9262 16.0838 11.4999 19 11.4999C19.3978 11.4999 19.7794 11.3419 20.0607 11.0606C20.342 10.7793 20.5 10.3978 20.5 9.99993V7.62493L26.875 13.9999L20.5 20.3749Z" fill="black"/>
</svg>
