<svg width="32" height="32" viewBox="0 0 32 32" fill="none" xmlns="http://www.w3.org/2000/svg">
<path d="M26 4.5H6C5.33696 4.5 4.70107 4.76339 4.23223 5.23223C3.76339 5.70107 3.5 6.33696 3.5 7V14.3462C3.5 25.8925 13.2625 29.7213 15.2188 30.3687C15.4473 30.4446 15.6856 30.4867 15.9263 30.4937C15.9513 30.4937 15.975 30.4937 16 30.4937C16.025 30.4937 16.0487 30.4937 16.0725 30.4937C16.3131 30.4864 16.5514 30.4443 16.78 30.3687C18.7375 29.7225 28.5 25.895 28.5 14.3488V7C28.5 6.33696 28.2366 5.70107 27.7678 5.23223C27.2989 4.76339 26.663 4.5 26 4.5ZM25.5 14.3488C25.5 14.4 25.5 14.45 25.5 14.5H17.5V7.5H25.5V14.3488ZM6.5 7.5H14.5V14.5H6.5C6.5 14.45 6.5 14.4 6.5 14.3488V7.5ZM6.82375 17.5H14.5V26.84C12.0413 25.6513 7.99 22.9212 6.82375 17.5ZM17.5 26.84V17.5H25.1763C24.01 22.9212 19.9587 25.6513 17.5 26.84Z" fill="black"/>
</svg>
