<svg width="32" height="32" viewBox="0 0 32 32" fill="none" xmlns="http://www.w3.org/2000/svg">
<path d="M26 4.5H6C5.33696 4.5 4.70107 4.76339 4.23223 5.23223C3.76339 5.70107 3.5 6.33696 3.5 7V14.35C3.5 25.895 13.2625 29.725 15.2188 30.3725C15.7253 30.5425 16.2735 30.5425 16.78 30.3725C18.7375 29.7225 28.5 25.895 28.5 14.35V7C28.5 6.33696 28.2366 5.70107 27.7678 5.23223C27.2989 4.76339 26.663 4.5 26 4.5ZM25.5 14.35C25.5 23.5438 17.935 26.79 16 27.475C14.0662 26.7975 6.5 23.5513 6.5 14.3562V7.5H25.5V14.35ZM10.5 16C10.5 15.6022 10.658 15.2206 10.9393 14.9393C11.2206 14.658 11.6022 14.5 12 14.5H14.5V12C14.5 11.6022 14.658 11.2206 14.9393 10.9393C15.2206 10.658 15.6022 10.5 16 10.5C16.3978 10.5 16.7794 10.658 17.0607 10.9393C17.342 11.2206 17.5 11.6022 17.5 12V14.5H20C20.3978 14.5 20.7794 14.658 21.0607 14.9393C21.342 15.2206 21.5 15.6022 21.5 16C21.5 16.3978 21.342 16.7794 21.0607 17.0607C20.7794 17.342 20.3978 17.5 20 17.5H17.5V20C17.5 20.3978 17.342 20.7794 17.0607 21.0607C16.7794 21.342 16.3978 21.5 16 21.5C15.6022 21.5 15.2206 21.342 14.9393 21.0607C14.658 20.7794 14.5 20.3978 14.5 20V17.5H12C11.6022 17.5 11.2206 17.342 10.9393 17.0607C10.658 16.7794 10.5 16.3978 10.5 16Z" fill="black"/>
</svg>
