<svg width="32" height="32" viewBox="0 0 32 32" fill="none" xmlns="http://www.w3.org/2000/svg">
<path d="M26 4.5H6C5.33696 4.5 4.70107 4.76339 4.23223 5.23223C3.76339 5.70107 3.5 6.33696 3.5 7V14.35C3.5 25.895 13.2625 29.725 15.2188 30.3725C15.7253 30.5425 16.2735 30.5425 16.78 30.3725C18.7375 29.7225 28.5 25.895 28.5 14.35V7C28.5 6.33696 28.2366 5.70107 27.7678 5.23223C27.2989 4.76339 26.663 4.5 26 4.5ZM25.5 14.35C25.5 23.5438 17.935 26.79 16 27.475C14.0662 26.7975 6.5 23.5513 6.5 14.3562V7.5H25.5V14.35ZM14.5 16.5V12C14.5 11.6022 14.658 11.2206 14.9393 10.9393C15.2206 10.658 15.6022 10.5 16 10.5C16.3978 10.5 16.7794 10.658 17.0607 10.9393C17.342 11.2206 17.5 11.6022 17.5 12V16.5C17.5 16.8978 17.342 17.2794 17.0607 17.5607C16.7794 17.842 16.3978 18 16 18C15.6022 18 15.2206 17.842 14.9393 17.5607C14.658 17.2794 14.5 16.8978 14.5 16.5ZM14 21.5C14 21.1044 14.1173 20.7178 14.3371 20.3889C14.5568 20.06 14.8692 19.8036 15.2346 19.6522C15.6001 19.5009 16.0022 19.4613 16.3902 19.5384C16.7781 19.6156 17.1345 19.8061 17.4142 20.0858C17.6939 20.3655 17.8844 20.7219 17.9616 21.1098C18.0387 21.4978 17.9991 21.8999 17.8478 22.2654C17.6964 22.6308 17.44 22.9432 17.1111 23.1629C16.7822 23.3827 16.3956 23.5 16 23.5C15.4696 23.5 14.9609 23.2893 14.5858 22.9142C14.2107 22.5391 14 22.0304 14 21.5Z" fill="black"/>
</svg>
