<svg width="32" height="32" viewBox="0 0 32 32" fill="none" xmlns="http://www.w3.org/2000/svg">
<path d="M26 4.5H6C5.33696 4.5 4.70107 4.76339 4.23223 5.23223C3.76339 5.70107 3.5 6.33696 3.5 7V14.35C3.5 25.895 13.2625 29.725 15.22 30.3725C15.7261 30.5425 16.2739 30.5425 16.78 30.3725C18.7375 29.7225 28.5 25.895 28.5 14.35V7C28.5 6.33696 28.2366 5.70107 27.7678 5.23223C27.2989 4.76339 26.663 4.5 26 4.5ZM25.5 14.35C25.5 23.545 17.9338 26.7913 16 27.475C14.0662 26.7975 6.5 23.5513 6.5 14.3562V7.5H25.5V14.35ZM9.93875 18.0613C9.79922 17.9217 9.68854 17.7561 9.61303 17.5738C9.53751 17.3915 9.49865 17.1961 9.49865 16.9988C9.49865 16.8014 9.53751 16.606 9.61303 16.4237C9.68854 16.2414 9.79922 16.0758 9.93875 15.9362C10.0783 15.7967 10.2439 15.686 10.4262 15.6105C10.6085 15.535 10.8039 15.4961 11.0013 15.4961C11.1986 15.4961 11.394 15.535 11.5763 15.6105C11.7586 15.686 11.9242 15.7967 12.0638 15.9362L14 17.875L19.9387 11.9362C20.2205 11.6545 20.6027 11.4961 21.0012 11.4961C21.3998 11.4961 21.782 11.6545 22.0637 11.9362C22.3455 12.218 22.5039 12.6002 22.5039 12.9987C22.5039 13.3973 22.3455 13.7795 22.0637 14.0612L15.0638 21.0613C14.9244 21.2011 14.7588 21.312 14.5765 21.3878C14.3942 21.4635 14.1987 21.5024 14.0013 21.5024C13.8038 21.5024 13.6083 21.4635 13.426 21.3878C13.2437 21.312 13.0781 21.2011 12.9388 21.0613L9.93875 18.0613Z" fill="black"/>
</svg>
