<svg width="32" height="32" viewBox="0 0 32 32" fill="none" xmlns="http://www.w3.org/2000/svg">
<path d="M25 5.5H22.125L20.5613 3.93875C20.288 3.66564 19.92 3.50848 19.5338 3.5H19.5H12.5C12.4637 3.5 12.43 3.5 12.3962 3.5C12.0352 3.52436 11.6952 3.67841 11.4388 3.93375L9.875 5.5H7C6.33696 5.5 5.70107 5.76339 5.23223 6.23223C4.76339 6.70107 4.5 7.33696 4.5 8V27C4.5 27.663 4.76339 28.2989 5.23223 28.7678C5.70107 29.2366 6.33696 29.5 7 29.5H25C25.663 29.5 26.2989 29.2366 26.7678 28.7678C27.2366 28.2989 27.5 27.663 27.5 27V8C27.5 7.33696 27.2366 6.70107 26.7678 6.23223C26.2989 5.76339 25.663 5.5 25 5.5ZM12 7.625L12.185 7.44L14.115 10.75L12 12.81V7.625ZM16 8.02625L15.1112 6.5H16.8888L16 8.02625ZM20 7.625V12.8138L17.885 10.75L19.815 7.44125L20 7.625ZM7.5 8.5H9V14C8.99985 14.4936 9.14581 14.9762 9.41949 15.3869C9.69317 15.7977 10.0823 16.1182 10.5379 16.3082C10.9935 16.4982 11.4951 16.549 11.9795 16.4543C12.4639 16.3597 12.9095 16.1237 13.26 15.7762L14.5 14.5625V26.5H7.5V8.5ZM24.5 26.5H17.5V14.5625L18.74 15.7738C19.0904 16.1211 19.5357 16.357 20.0199 16.4517C20.5041 16.5465 21.0055 16.4958 21.461 16.3062C21.9164 16.1165 22.3056 15.7964 22.5795 15.386C22.8533 14.9756 22.9997 14.4934 23 14V8.5H24.5V26.5Z" fill="black"/>
</svg>
