<svg width="32" height="32" viewBox="0 0 32 32" fill="none" xmlns="http://www.w3.org/2000/svg">
<path d="M29.4438 8.91496C29.374 8.69895 29.2418 8.50848 29.0638 8.36764C28.8858 8.2268 28.67 8.14191 28.4438 8.12371L23.585 7.71246C23.5581 7.71028 23.5323 7.70088 23.5103 7.68526C23.4883 7.66964 23.471 7.64838 23.46 7.62371L21.5588 3.19496C21.4691 2.98852 21.3211 2.81277 21.1329 2.68933C20.9447 2.56589 20.7245 2.50012 20.4994 2.50012C20.2743 2.50012 20.0542 2.56589 19.866 2.68933C19.6777 2.81277 19.5297 2.98852 19.44 3.19496L17.5413 7.62496C17.5304 7.64963 17.513 7.67089 17.491 7.68651C17.469 7.70213 17.4432 7.71152 17.4163 7.71371L12.5538 8.12496C12.3275 8.14316 12.1118 8.22805 11.9338 8.36889C11.7558 8.50973 11.6235 8.7002 11.5538 8.91621C11.4847 9.12939 11.4809 9.35833 11.5428 9.57368C11.6048 9.78904 11.7296 9.981 11.9013 10.125L15.5875 13.2737C15.607 13.29 15.6215 13.3114 15.6294 13.3354C15.6374 13.3595 15.6384 13.3853 15.6325 13.41L14.5275 18.0925C14.4747 18.31 14.488 18.5385 14.5657 18.7484C14.6434 18.9584 14.782 19.1405 14.9638 19.2712C15.1469 19.4063 15.366 19.4842 15.5933 19.4951C15.8206 19.5059 16.046 19.4494 16.2413 19.3325L20.4188 16.85C20.4433 16.8358 20.4711 16.8284 20.4994 16.8284C20.5277 16.8284 20.5555 16.8358 20.58 16.85L24.7575 19.3325C24.9526 19.4493 25.1778 19.5058 25.4049 19.4949C25.632 19.484 25.8508 19.4062 26.0338 19.2712C26.2155 19.1405 26.3542 18.9584 26.4319 18.7484C26.5096 18.5385 26.5229 18.31 26.47 18.0925L25.365 13.41C25.3596 13.3852 25.361 13.3594 25.3691 13.3354C25.3773 13.3113 25.3919 13.29 25.4113 13.2737L29.0975 10.125C29.2693 9.98075 29.394 9.78851 29.4557 9.57291C29.5174 9.35731 29.5132 9.12819 29.4438 8.91496ZM28.4438 9.36746L24.7625 12.5162C24.6022 12.6508 24.4822 12.8271 24.416 13.0257C24.3498 13.2243 24.34 13.4374 24.3875 13.6412L25.5 18.325C25.5079 18.3515 25.5068 18.3798 25.4968 18.4056C25.4869 18.4314 25.4687 18.4531 25.445 18.4675C25.4204 18.4869 25.3903 18.4982 25.3589 18.4998C25.3276 18.5013 25.2965 18.4931 25.27 18.4762L21.0938 15.9925C20.9147 15.8861 20.7102 15.8299 20.5019 15.8299C20.2936 15.8299 20.0891 15.8861 19.91 15.9925L15.7325 18.4762C15.7063 18.4932 15.6754 18.5015 15.6442 18.4999C15.6131 18.4983 15.5832 18.487 15.5588 18.4675C15.5352 18.4531 15.5169 18.4314 15.507 18.4056C15.497 18.3798 15.4959 18.3515 15.5038 18.325L16.6088 13.6425C16.6561 13.4386 16.6461 13.2256 16.5799 13.0271C16.5137 12.8286 16.3939 12.6522 16.2338 12.5175L12.55 9.36746C12.5278 9.35117 12.5116 9.328 12.5039 9.30155C12.4963 9.27511 12.4975 9.24686 12.5075 9.22121C12.5154 9.19353 12.5317 9.16896 12.554 9.15084C12.5764 9.13272 12.6038 9.12194 12.6325 9.11996L17.5 8.70871C17.7079 8.69213 17.9073 8.6191 18.0767 8.4975C18.2461 8.3759 18.3791 8.21035 18.4613 8.01871L20.36 3.58871C20.3728 3.56229 20.3928 3.54001 20.4177 3.52442C20.4425 3.50884 20.4713 3.50057 20.5007 3.50057C20.53 3.50057 20.5588 3.50884 20.5836 3.52442C20.6085 3.54001 20.6285 3.56229 20.6413 3.58871L22.54 8.01746C22.6217 8.20932 22.7544 8.37516 22.9236 8.49701C23.0928 8.61886 23.2922 8.69207 23.5 8.70871L28.36 9.12496C28.3897 9.12604 28.4184 9.13638 28.4419 9.15454C28.4654 9.17269 28.4827 9.19775 28.4913 9.22621C28.5001 9.25122 28.5007 9.27838 28.4931 9.30377C28.4855 9.32916 28.4699 9.35147 28.4488 9.36746H28.4438ZM10.3538 15.3537L3.35378 22.3537C3.25996 22.4475 3.13272 22.5002 3.00003 22.5002C2.86735 22.5002 2.7401 22.4475 2.64628 22.3537C2.55246 22.2599 2.49976 22.1326 2.49976 22C2.49976 21.8673 2.55246 21.74 2.64628 21.6462L9.64628 14.6462C9.7401 14.5524 9.86735 14.4997 10 14.4997C10.1327 14.4997 10.26 14.5524 10.3538 14.6462C10.4476 14.74 10.5003 14.8673 10.5003 15C10.5003 15.1326 10.4476 15.2599 10.3538 15.3537ZM12.3538 21.6462C12.4003 21.6926 12.4372 21.7478 12.4623 21.8085C12.4875 21.8692 12.5004 21.9343 12.5004 22C12.5004 22.0657 12.4875 22.1307 12.4623 22.1914C12.4372 22.2521 12.4003 22.3073 12.3538 22.3537L5.35378 29.3537C5.30733 29.4002 5.25218 29.437 5.19148 29.4622C5.13079 29.4873 5.06573 29.5002 5.00003 29.5002C4.93434 29.5002 4.86928 29.4873 4.80859 29.4622C4.74789 29.437 4.69274 29.4002 4.64628 29.3537C4.59983 29.3073 4.56298 29.2521 4.53784 29.1914C4.5127 29.1307 4.49976 29.0657 4.49976 29C4.49976 28.9343 4.5127 28.8692 4.53784 28.8085C4.56298 28.7478 4.59983 28.6927 4.64628 28.6462L11.6463 21.6462C11.74 21.5527 11.867 21.5002 11.9994 21.5002C12.1318 21.5002 12.2588 21.5527 12.3525 21.6462H12.3538ZM21.3538 21.6462C21.4003 21.6926 21.4372 21.7478 21.4623 21.8085C21.4875 21.8692 21.5004 21.9343 21.5004 22C21.5004 22.0657 21.4875 22.1307 21.4623 22.1914C21.4372 22.2521 21.4003 22.3073 21.3538 22.3537L14.3538 29.3537C14.2592 29.4434 14.1333 29.4927 14.0029 29.4909C13.8725 29.4891 13.748 29.4364 13.6558 29.3442C13.5637 29.2519 13.5113 29.1273 13.5097 28.9969C13.5082 28.8665 13.5576 28.7407 13.6475 28.6462L20.6475 21.6462C20.7412 21.5531 20.8679 21.5008 21 21.5008C21.1321 21.5008 21.2589 21.5531 21.3525 21.6462H21.3538Z" fill="black"/>
</svg>
