<svg width="32" height="32" viewBox="0 0 32 32" fill="none" xmlns="http://www.w3.org/2000/svg">
<path d="M30.3974 8.60869C30.268 8.20431 30.0214 7.84745 29.6889 7.58331C29.3565 7.31918 28.9531 7.15965 28.5299 7.12494L24.1762 6.74994L22.4787 2.80119C22.312 2.41473 22.0358 2.08555 21.6841 1.85428C21.3325 1.623 20.9208 1.49976 20.4999 1.49976C20.0791 1.49976 19.6674 1.623 19.3158 1.85428C18.9641 2.08555 18.6879 2.41473 18.5212 2.80119L16.8249 6.75869L12.4699 7.12494C12.0478 7.15846 11.645 7.31641 11.3126 7.57883C10.9802 7.84125 10.7331 8.19635 10.6025 8.59922C10.4719 9.00209 10.4637 9.43463 10.579 9.84216C10.6942 10.2497 10.9277 10.6139 11.2499 10.8887L14.5374 13.6962L13.5537 17.8662C13.4592 18.2767 13.4875 18.706 13.6349 19.1006C13.7823 19.4952 14.0424 19.8379 14.3829 20.0859C14.7234 20.334 15.1292 20.4766 15.55 20.496C15.9709 20.5153 16.3881 20.4107 16.7499 20.1949L20.4999 17.9674L24.2499 20.1949C24.6117 20.4117 25.0293 20.5172 25.4506 20.4983C25.8719 20.4794 26.2784 20.3369 26.6193 20.0886C26.9602 19.8403 27.2205 19.4972 27.3677 19.102C27.515 18.7068 27.5427 18.277 27.4474 17.8662L26.4637 13.6962L29.7499 10.8887C30.0712 10.6152 30.3041 10.2527 30.4194 9.84686C30.5346 9.44105 30.527 9.01017 30.3974 8.60869ZM24.1137 11.7499C23.8126 12.0052 23.5884 12.339 23.4659 12.7142C23.3434 13.0894 23.3275 13.4912 23.4199 13.8749L24.0624 16.5987L21.6024 15.1374C21.2691 14.9386 20.8881 14.8337 20.4999 14.8337C20.1118 14.8337 19.7308 14.9386 19.3974 15.1374L16.9374 16.5949L17.5799 13.8749C17.6731 13.4913 17.6576 13.0892 17.5351 12.7138C17.4125 12.3385 17.1878 12.0047 16.8862 11.7499L14.7612 9.93869L17.5787 9.70119C17.9669 9.66956 18.3391 9.53291 18.6555 9.30588C18.9719 9.07885 19.2206 8.77001 19.3749 8.41244L20.4999 5.79869L21.6249 8.41119C21.7786 8.77003 22.0271 9.0802 22.3438 9.30837C22.6605 9.53654 23.0334 9.67408 23.4224 9.70619L26.2399 9.94369L24.1137 11.7499ZM4.0612 23.0612C3.7794 23.343 3.39721 23.5013 2.9987 23.5013C2.60018 23.5013 2.21799 23.343 1.9362 23.0612C1.6544 22.7794 1.49609 22.3972 1.49609 21.9987C1.49609 21.6002 1.6544 21.218 1.9362 20.9362L8.4362 14.4362C8.71799 14.1544 9.10018 13.9961 9.4987 13.9961C9.89721 13.9961 10.2794 14.1544 10.5612 14.4362C10.843 14.718 11.0013 15.1002 11.0013 15.4987C11.0013 15.8972 10.843 16.2794 10.5612 16.5612L4.0612 23.0612ZM12.5612 23.5612L6.0612 30.0612C5.7794 30.343 5.39721 30.5013 4.9987 30.5013C4.60018 30.5013 4.21799 30.343 3.9362 30.0612C3.6544 29.7794 3.49609 29.3972 3.49609 28.9987C3.49609 28.6002 3.6544 28.218 3.9362 27.9362L10.4362 21.4362C10.718 21.1544 11.1002 20.9961 11.4987 20.9961C11.8972 20.9961 12.2794 21.1544 12.5612 21.4362C12.843 21.718 13.0013 22.1002 13.0013 22.4987C13.0013 22.8972 12.843 23.2794 12.5612 23.5612ZM21.5612 21.4362C21.701 21.5755 21.812 21.7411 21.8877 21.9235C21.9634 22.1058 22.0024 22.3013 22.0024 22.4987C22.0024 22.6961 21.9634 22.8916 21.8877 23.0739C21.812 23.2562 21.701 23.4218 21.5612 23.5612L15.0612 30.0612C14.7794 30.343 14.3972 30.5013 13.9987 30.5013C13.6002 30.5013 13.218 30.343 12.9362 30.0612C12.6544 29.7794 12.4961 29.3972 12.4961 28.9987C12.4961 28.6002 12.6544 28.218 12.9362 27.9362L19.4362 21.4362C19.5757 21.2965 19.7414 21.1858 19.9239 21.1103C20.1063 21.0348 20.3018 20.996 20.4992 20.9963C20.6966 20.9965 20.8921 21.0357 21.0743 21.1116C21.2565 21.1875 21.422 21.2987 21.5612 21.4387V21.4362Z" fill="black"/>
</svg>
