<svg width="32" height="32" viewBox="0 0 32 32" fill="none" xmlns="http://www.w3.org/2000/svg">
<path d="M29.6838 8.83879C29.599 8.57594 29.4382 8.34412 29.2218 8.17259C29.0053 8.00106 28.7429 7.89752 28.4676 7.87504L23.6638 7.46879L21.7888 3.09379C21.68 2.84226 21.4999 2.62806 21.2708 2.47759C21.0417 2.32712 20.7736 2.24695 20.4995 2.24695C20.2254 2.24695 19.9573 2.32712 19.7282 2.47759C19.4991 2.62806 19.319 2.84226 19.2101 3.09379L17.3351 7.46879L12.5338 7.87504C12.2597 7.89641 11.9981 7.99861 11.782 8.16871C11.566 8.33881 11.4052 8.56916 11.3201 8.83063C11.235 9.0921 11.2294 9.37293 11.3039 9.63761C11.3784 9.90228 11.5298 10.1389 11.7388 10.3175L15.3751 13.4225L14.2851 18.0375C14.2226 18.303 14.2398 18.5809 14.3346 18.8366C14.4293 19.0923 14.5973 19.3144 14.8176 19.475C15.0402 19.6391 15.3063 19.7337 15.5825 19.747C15.8587 19.7604 16.1327 19.6918 16.3701 19.55L20.4951 17.095L24.6263 19.55C24.8637 19.692 25.1377 19.7606 25.4139 19.7473C25.6902 19.7339 25.9563 19.6392 26.1788 19.475C26.3992 19.3144 26.5671 19.0923 26.6616 18.8366C26.7562 18.5808 26.773 18.3028 26.7101 18.0375L25.6251 13.4225L29.2601 10.3188C29.4692 10.1417 29.6211 9.90654 29.6965 9.64309C29.772 9.37964 29.7675 9.09973 29.6838 8.83879ZM24.6013 12.3263C24.4063 12.4913 24.2609 12.7072 24.1812 12.95C24.1016 13.1927 24.0908 13.4528 24.1501 13.7013L25.1988 18.145L21.2201 15.78C21.0024 15.65 20.7536 15.5813 20.5001 15.5813C20.2465 15.5813 19.9977 15.65 19.7801 15.78L15.8026 18.145L16.8501 13.7C16.9103 13.4517 16.9 13.1915 16.8206 12.9486C16.7411 12.7057 16.5955 12.4898 16.4001 12.325L12.9138 9.34879L17.5201 8.95879C17.7734 8.93791 18.0163 8.84846 18.2226 8.70004C18.4289 8.55162 18.591 8.34982 18.6913 8.11629L20.5001 3.89629L22.3101 8.11629C22.4102 8.34972 22.5721 8.55148 22.7782 8.6999C22.9843 8.84833 23.227 8.93783 23.4801 8.95879L28.0876 9.34879L24.6013 12.3263ZM10.5301 15.53L3.53009 22.53C3.38792 22.6625 3.19987 22.7346 3.00557 22.7312C2.81127 22.7278 2.62588 22.6491 2.48847 22.5117C2.35106 22.3743 2.27234 22.1889 2.26892 21.9946C2.26549 21.8003 2.33761 21.6122 2.47009 21.47L9.47009 14.47C9.61227 14.3376 9.80031 14.2654 9.99461 14.2689C10.1889 14.2723 10.3743 14.351 10.5117 14.4884C10.6491 14.6258 10.7278 14.8112 10.7313 15.0055C10.7347 15.1998 10.6626 15.3879 10.5301 15.53ZM12.5301 21.47C12.6705 21.6107 12.7494 21.8013 12.7494 22C12.7494 22.1988 12.6705 22.3894 12.5301 22.53L5.53009 29.53C5.38792 29.6625 5.19987 29.7346 5.00557 29.7312C4.81127 29.7278 4.62588 29.6491 4.48847 29.5117C4.35106 29.3743 4.27234 29.1889 4.26892 28.9946C4.26549 28.8003 4.33761 28.6122 4.47009 28.47L11.4701 21.47C11.6107 21.3296 11.8013 21.2507 12.0001 21.2507C12.1988 21.2507 12.3895 21.3296 12.5301 21.47ZM21.5301 21.47C21.6705 21.6107 21.7494 21.8013 21.7494 22C21.7494 22.1988 21.6705 22.3894 21.5301 22.53L14.5301 29.53C14.3879 29.6625 14.1999 29.7346 14.0056 29.7312C13.8113 29.7278 13.6259 29.6491 13.4885 29.5117C13.3511 29.3743 13.2723 29.1889 13.2689 28.9946C13.2655 28.8003 13.3376 28.6122 13.4701 28.47L20.4701 21.47C20.5397 21.4003 20.6225 21.345 20.7135 21.3072C20.8046 21.2695 20.9022 21.2501 21.0007 21.2501C21.0993 21.2501 21.1969 21.2695 21.2879 21.3072C21.379 21.345 21.4617 21.4003 21.5313 21.47H21.5301Z" fill="black"/>
</svg>
