<svg width="32" height="32" viewBox="0 0 32 32" fill="none" xmlns="http://www.w3.org/2000/svg">
<path opacity="0.08" d="M28.7737 9.75002L25.0874 12.8963C24.9991 12.9716 24.9331 13.0697 24.8965 13.1798C24.8599 13.29 24.8542 13.4081 24.8799 13.5213L25.9849 18.2038C26.0123 18.328 26.0027 18.4576 25.9572 18.5764C25.9117 18.6952 25.8323 18.7981 25.7289 18.8722C25.6255 18.9463 25.5026 18.9885 25.3754 18.9934C25.2483 18.9984 25.1225 18.9659 25.0136 18.9L20.8362 16.4163C20.7343 16.3561 20.6182 16.3244 20.4999 16.3244C20.3816 16.3244 20.2655 16.3561 20.1636 16.4163L15.9862 18.9C15.8773 18.9659 15.7515 18.9984 15.6244 18.9934C15.4972 18.9885 15.3743 18.9463 15.2709 18.8722C15.1675 18.7981 15.0881 18.6952 15.0426 18.5764C14.9971 18.4576 14.9875 18.328 15.0149 18.2038L16.1249 13.5275C16.1506 13.4143 16.1449 13.2963 16.1083 13.1861C16.0717 13.0759 16.0057 12.9779 15.9174 12.9025L12.2261 9.75002C12.1294 9.66725 12.0595 9.55751 12.0255 9.43483C11.9915 9.31215 11.9948 9.1821 12.035 9.06131C12.0753 8.94053 12.1507 8.8345 12.2515 8.75678C12.3524 8.67906 12.4741 8.63318 12.6011 8.62502L17.4612 8.21377C17.578 8.20294 17.6897 8.16076 17.7845 8.09167C17.8794 8.02258 17.9538 7.92915 17.9999 7.82127L19.8999 3.39252C19.951 3.2759 20.0349 3.17668 20.1415 3.10701C20.248 3.03735 20.3726 3.00024 20.4999 3.00024C20.6272 3.00024 20.7518 3.03735 20.8583 3.10701C20.9649 3.17668 21.0488 3.2759 21.0999 3.39252L22.9999 7.82127C23.0469 7.92956 23.1224 8.02306 23.2184 8.09175C23.3144 8.16045 23.4272 8.20176 23.5449 8.21127L28.4037 8.62502C28.5303 8.63408 28.6514 8.6806 28.7515 8.75867C28.8516 8.83674 28.9263 8.94283 28.9659 9.06343C29.0056 9.18404 29.0085 9.31372 28.9743 9.43598C28.94 9.55824 28.8702 9.66756 28.7737 9.75002Z" fill="black"/>
<path d="M29.9213 8.76245C29.8219 8.45217 29.6325 8.17842 29.3772 7.97591C29.122 7.77339 28.8123 7.65125 28.4876 7.62496L23.8351 7.2312L22.0201 2.99995C21.892 2.70332 21.6798 2.45067 21.4098 2.27318C21.1399 2.09568 20.8238 2.0011 20.5007 2.0011C20.1776 2.0011 19.8615 2.09568 19.5915 2.27318C19.3216 2.45067 19.1094 2.70332 18.9813 2.99995L17.1663 7.23246L12.5126 7.62496C12.1894 7.65091 11.8812 7.77199 11.6268 7.97291C11.3724 8.17383 11.1831 8.44559 11.083 8.75392C10.9829 9.06225 10.9763 9.39334 11.0641 9.70541C11.1519 10.0175 11.3301 10.2966 11.5763 10.5075L15.0963 13.5075L14.0426 17.9737C13.9685 18.2868 13.9882 18.6147 14.0994 18.9166C14.2106 19.2185 14.4082 19.4809 14.6676 19.6712C14.93 19.8639 15.2435 19.975 15.5688 19.9906C15.894 20.0062 16.2167 19.9255 16.4963 19.7587L20.4963 17.3837L24.4963 19.7587C24.776 19.9255 25.0986 20.0062 25.4239 19.9906C25.7491 19.975 26.0626 19.8639 26.3251 19.6712C26.5846 19.481 26.7823 19.2186 26.8935 18.9167C27.0046 18.6148 27.0243 18.2868 26.9501 17.9737L25.8963 13.5075L29.4151 10.5075C29.6627 10.2994 29.843 10.0225 29.9331 9.71182C30.0233 9.40117 30.0192 9.07076 29.9213 8.76245ZM24.4388 12.1375C24.2085 12.3326 24.0368 12.5878 23.9428 12.8747C23.8488 13.1615 23.8362 13.4688 23.9063 13.7625L24.8201 17.6375L21.3476 15.5737C21.0913 15.4209 20.7984 15.3402 20.5001 15.3402C20.2017 15.3402 19.9089 15.4209 19.6526 15.5737L16.1801 17.625L17.0938 13.75C17.165 13.4565 17.153 13.149 17.0592 12.8619C16.9653 12.5749 16.7934 12.3197 16.5626 12.125L13.5301 9.54745L17.5413 9.20746C17.839 9.18248 18.1243 9.07689 18.3666 8.90204C18.6088 8.72718 18.7989 8.48966 18.9163 8.21496L20.5001 4.52996L22.0801 8.21496C22.1978 8.4895 22.3879 8.72688 22.6301 8.9017C22.8723 9.07652 23.1574 9.18221 23.4551 9.20746L27.4663 9.54745L24.4388 12.1375ZM10.7076 15.7075L3.70757 22.7075C3.51993 22.8951 3.26543 23.0005 3.00007 23.0005C2.7347 23.0005 2.48021 22.8951 2.29257 22.7075C2.10493 22.5198 1.99951 22.2653 1.99951 22C1.99951 21.7346 2.10493 21.4801 2.29257 21.2925L9.29257 14.2925C9.48021 14.1048 9.7347 13.9994 10.0001 13.9994C10.2654 13.9994 10.5199 14.1048 10.7076 14.2925C10.8952 14.4801 11.0006 14.7346 11.0006 15C11.0006 15.2653 10.8952 15.5198 10.7076 15.7075ZM12.7076 22.7075L5.70757 29.7075C5.61466 29.8004 5.50436 29.8741 5.38296 29.9243C5.26157 29.9746 5.13146 30.0005 5.00007 30.0005C4.86867 30.0005 4.73856 29.9746 4.61717 29.9243C4.49578 29.8741 4.38548 29.8004 4.29257 29.7075C4.19966 29.6145 4.12596 29.5042 4.07567 29.3829C4.02539 29.2615 3.99951 29.1313 3.99951 29C3.99951 28.8686 4.02539 28.7385 4.07567 28.6171C4.12596 28.4957 4.19966 28.3854 4.29257 28.2925L11.2926 21.2925C11.4802 21.1048 11.7347 20.9994 12.0001 20.9994C12.2654 20.9994 12.5199 21.1048 12.7076 21.2925C12.8952 21.4801 13.0006 21.7346 13.0006 22C13.0006 22.2653 12.8952 22.5198 12.7076 22.7075ZM21.7076 21.2925C21.8005 21.3853 21.8743 21.4956 21.9246 21.617C21.975 21.7384 22.0009 21.8685 22.0009 22C22.0009 22.1314 21.975 22.2615 21.9246 22.3829C21.8743 22.5043 21.8005 22.6146 21.7076 22.7075L14.7076 29.7075C14.6147 29.8004 14.5044 29.8741 14.383 29.9243C14.2616 29.9746 14.1315 30.0005 14.0001 30.0005C13.8687 30.0005 13.7386 29.9746 13.6172 29.9243C13.4958 29.8741 13.3855 29.8004 13.2926 29.7075C13.1997 29.6145 13.126 29.5042 13.0757 29.3829C13.0254 29.2615 12.9995 29.1313 12.9995 29C12.9995 28.8686 13.0254 28.7385 13.0757 28.6171C13.126 28.4957 13.1997 28.3854 13.2926 28.2925L20.2926 21.2925C20.3854 21.1995 20.4957 21.1257 20.6171 21.0754C20.7385 21.0251 20.8687 20.9992 21.0001 20.9992C21.1315 20.9992 21.2616 21.0251 21.383 21.0754C21.5044 21.1257 21.6147 21.1995 21.7076 21.2925Z" fill="black"/>
</svg>
