<svg width="32" height="32" viewBox="0 0 32 32" fill="none" xmlns="http://www.w3.org/2000/svg">
<path d="M28.1513 7.03875C28.0105 6.87014 27.8344 6.7345 27.6355 6.6414C27.4366 6.54831 27.2196 6.50004 27 6.5H7.25L6.71625 3.5525C6.61145 2.97647 6.3078 2.45549 5.85824 2.08041C5.40868 1.70532 4.84174 1.49991 4.25625 1.5H2C1.60218 1.5 1.22064 1.65804 0.93934 1.93934C0.658035 2.22064 0.5 2.60218 0.5 3C0.5 3.39782 0.658035 3.77936 0.93934 4.06066C1.22064 4.34196 1.60218 4.5 2 4.5H3.83875L6.9525 21.625C7.0361 22.0799 7.20901 22.5136 7.46125 22.9013C7.01468 23.4238 6.7103 24.0525 6.57745 24.7269C6.4446 25.4013 6.48777 26.0986 6.7028 26.7514C6.91783 27.4042 7.29746 27.9907 7.80508 28.4541C8.31269 28.9175 8.93116 29.2423 9.60084 29.3972C10.2705 29.5521 10.9688 29.5317 11.6283 29.3382C12.2879 29.1447 12.8864 28.7844 13.3662 28.2923C13.846 27.8001 14.1909 27.1926 14.3676 26.5283C14.5443 25.8641 14.5468 25.1655 14.375 24.5H18.625C18.4165 25.3076 18.4656 26.1603 18.7656 26.9386C19.0656 27.7169 19.6014 28.382 20.2981 28.8407C20.9947 29.2995 21.8174 29.529 22.6509 29.4971C23.4844 29.4652 24.2871 29.1735 24.9467 28.6629C25.6062 28.1523 26.0897 27.4482 26.3293 26.6492C26.569 25.8503 26.5529 24.9964 26.2833 24.207C26.0136 23.4177 25.504 22.7324 24.8256 22.247C24.1473 21.7616 23.3341 21.5004 22.5 21.5H10.3962C10.2794 21.4999 10.1662 21.4588 10.0765 21.3839C9.98671 21.309 9.92604 21.205 9.905 21.09L9.615 19.5H23.5125C24.3324 19.5 25.1262 19.2122 25.7555 18.6868C26.3849 18.1614 26.8098 17.4317 26.9562 16.625L28.4762 8.2675C28.5153 8.05138 28.5065 7.82932 28.4503 7.617C28.3942 7.40468 28.2921 7.20728 28.1513 7.03875ZM11.5 25.5C11.5 25.6978 11.4414 25.8911 11.3315 26.0556C11.2216 26.22 11.0654 26.3482 10.8827 26.4239C10.7 26.4996 10.4989 26.5194 10.3049 26.4808C10.1109 26.4422 9.93275 26.347 9.79289 26.2071C9.65304 26.0673 9.5578 25.8891 9.51921 25.6951C9.48063 25.5011 9.50043 25.3 9.57612 25.1173C9.65181 24.9346 9.77998 24.7784 9.94443 24.6685C10.1089 24.5586 10.3022 24.5 10.5 24.5C10.7652 24.5 11.0196 24.6054 11.2071 24.7929C11.3946 24.9804 11.5 25.2348 11.5 25.5ZM22.5 26.5C22.3022 26.5 22.1089 26.4414 21.9444 26.3315C21.78 26.2216 21.6518 26.0654 21.5761 25.8827C21.5004 25.7 21.4806 25.4989 21.5192 25.3049C21.5578 25.1109 21.653 24.9327 21.7929 24.7929C21.9327 24.653 22.1109 24.5578 22.3049 24.5192C22.4989 24.4806 22.7 24.5004 22.8827 24.5761C23.0654 24.6518 23.2216 24.78 23.3315 24.9444C23.4414 25.1089 23.5 25.3022 23.5 25.5C23.5 25.7652 23.3946 26.0196 23.2071 26.2071C23.0196 26.3946 22.7652 26.5 22.5 26.5ZM24 16.09C23.9791 16.2044 23.919 16.3078 23.83 16.3827C23.741 16.4575 23.6288 16.499 23.5125 16.5H9.07L7.7975 9.5H25.2025L24 16.09Z" fill="black"/>
</svg>
