<svg width="32" height="32" viewBox="0 0 32 32" fill="none" xmlns="http://www.w3.org/2000/svg">
<path d="M8.5 29.5C8.5 29.8956 8.3827 30.2823 8.16294 30.6112C7.94318 30.94 7.63082 31.1964 7.26537 31.3478C6.89992 31.4991 6.49778 31.5388 6.10982 31.4616C5.72186 31.3844 5.36549 31.1939 5.08579 30.9142C4.80608 30.6345 4.6156 30.2782 4.53843 29.8902C4.46126 29.5022 4.50087 29.1001 4.65224 28.7346C4.80362 28.3692 5.05996 28.0568 5.38886 27.8371C5.71776 27.6173 6.10444 27.5 6.5 27.5C7.03043 27.5 7.53914 27.7107 7.91421 28.0858C8.28929 28.4609 8.5 28.9696 8.5 29.5ZM10.5 23.5C10.1044 23.5 9.71776 23.6173 9.38886 23.8371C9.05996 24.0568 8.80362 24.3692 8.65224 24.7346C8.50087 25.1001 8.46126 25.5022 8.53843 25.8902C8.6156 26.2782 8.80608 26.6345 9.08579 26.9142C9.36549 27.1939 9.72186 27.3844 10.1098 27.4616C10.4978 27.5388 10.8999 27.4991 11.2654 27.3478C11.6308 27.1964 11.9432 26.94 12.1629 26.6112C12.3827 26.2823 12.5 25.8956 12.5 25.5C12.5 24.9696 12.2893 24.4609 11.9142 24.0858C11.5391 23.7107 11.0304 23.5 10.5 23.5ZM2.5 23.5C2.10444 23.5 1.71776 23.6173 1.38886 23.8371C1.05996 24.0568 0.803617 24.3692 0.652242 24.7346C0.500867 25.1001 0.46126 25.5022 0.53843 25.8902C0.615601 26.2782 0.806082 26.6345 1.08579 26.9142C1.36549 27.1939 1.72186 27.3844 2.10982 27.4616C2.49778 27.5388 2.89992 27.4991 3.26537 27.3478C3.63082 27.1964 3.94318 26.94 4.16294 26.6112C4.3827 26.2823 4.5 25.8956 4.5 25.5C4.5 24.9696 4.28929 24.4609 3.91421 24.0858C3.53914 23.7107 3.03043 23.5 2.5 23.5ZM6.5 23.5C6.89556 23.5 7.28224 23.3827 7.61114 23.1629C7.94004 22.9432 8.19638 22.6308 8.34776 22.2654C8.49914 21.8999 8.53874 21.4978 8.46157 21.1098C8.3844 20.7219 8.19392 20.3655 7.91421 20.0858C7.63451 19.8061 7.27814 19.6156 6.89018 19.5384C6.50222 19.4613 6.10009 19.5009 5.73463 19.6523C5.36918 19.8036 5.05682 20.06 4.83706 20.3889C4.6173 20.7178 4.5 21.1044 4.5 21.5C4.5 22.0304 4.71071 22.5392 5.08579 22.9142C5.46086 23.2893 5.96957 23.5 6.5 23.5ZM32 5.00001C32 5.39783 31.842 5.77936 31.5607 6.06067C31.2794 6.34197 30.8978 6.50001 30.5 6.50001H27.625L24.3988 9.72376L21.7175 25.4163C21.6408 25.8685 21.4412 26.291 21.1404 26.6374C20.8397 26.9838 20.4494 27.2408 20.0124 27.3802C19.5753 27.5196 19.1083 27.536 18.6626 27.4278C18.2168 27.3195 17.8094 27.0906 17.485 26.7663L5.235 14.5163C4.90987 14.1916 4.68049 13.7836 4.57206 13.3372C4.46363 12.8907 4.48034 12.4229 4.62035 11.9853C4.76037 11.5477 5.01827 11.1572 5.36574 10.8565C5.71321 10.5559 6.1368 10.3569 6.59 10.2813L22.2775 7.60126L25.6462 4.23251C25.8778 3.99957 26.1532 3.81488 26.4566 3.68914C26.76 3.56341 27.0853 3.49912 27.4137 3.50001H30.5C30.8978 3.50001 31.2794 3.65804 31.5607 3.93935C31.842 4.22065 32 4.60218 32 5.00001ZM21.165 10.835L8.04 13.0775L18.9237 23.9613L21.165 10.835Z" fill="black"/>
</svg>
