<svg width="32" height="32" viewBox="0 0 32 32" fill="none" xmlns="http://www.w3.org/2000/svg">
<path d="M30.5001 7.5C30.5001 6.43913 30.0786 5.42172 29.3285 4.67157C28.5783 3.92143 27.5609 3.5 26.5001 3.5H16.0001C15.8674 3.5 15.7403 3.44732 15.6465 3.35355C15.5527 3.25979 15.5001 3.13261 15.5001 3C15.5001 2.60218 15.342 2.22064 15.0607 1.93934C14.7794 1.65804 14.3979 1.5 14.0001 1.5C13.6022 1.5 13.2207 1.65804 12.9394 1.93934C12.6581 2.22064 12.5001 2.60218 12.5001 3C12.5001 3.92826 12.8688 4.8185 13.5252 5.47487C14.1816 6.13125 15.0718 6.5 16.0001 6.5H26.5001C26.7653 6.5 27.0196 6.60536 27.2072 6.79289C27.3947 6.98043 27.5001 7.23478 27.5001 7.5C27.5001 7.76522 27.3947 8.01957 27.2072 8.20711C27.0196 8.39464 26.7653 8.5 26.5001 8.5H12.1126C6.3038 8.5 1.54255 13.175 1.50005 18.9212C1.48966 20.3067 1.75358 21.6806 2.2766 22.9636C2.79962 24.2466 3.5714 25.4135 4.54745 26.3968C5.5235 27.3802 6.68452 28.1607 7.9636 28.6933C9.24268 29.2259 10.6145 29.5 12.0001 29.5H19.0001C19.3979 29.5 19.7794 29.342 20.0607 29.0607C20.342 28.7794 20.5001 28.3978 20.5001 28C20.5001 27.6022 20.342 27.2206 20.0607 26.9393C19.7794 26.658 19.3979 26.5 19.0001 26.5H15.5001V24.5H21.0001C21.3979 24.5 21.7794 24.342 22.0607 24.0607C22.342 23.7794 22.5001 23.3978 22.5001 23C22.5001 22.6022 22.342 22.2206 22.0607 21.9393C21.7794 21.658 21.3979 21.5 21.0001 21.5H14.0001C13.7348 21.5 13.4805 21.3946 13.2929 21.2071C13.1054 21.0196 13.0001 20.7652 13.0001 20.5C13.0001 20.2348 13.1054 19.9804 13.2929 19.7929C13.4805 19.6054 13.7348 19.5 14.0001 19.5H19.0001C21.3471 19.4971 23.6102 18.6266 25.3542 17.0559C27.0981 15.4852 28.1999 13.3252 28.4476 10.9913C29.0694 10.6446 29.5875 10.1383 29.9483 9.52458C30.3091 8.91085 30.4996 8.21194 30.5001 7.5ZM12.1126 11.5H12.5001V16.7925C11.8855 17.0425 11.3423 17.4406 10.9188 17.9513L5.4188 15.4513C6.07964 14.2546 7.04912 13.2569 8.22634 12.562C9.40357 11.867 10.7455 11.5003 12.1126 11.5ZM4.50005 18.9425C4.50005 18.7412 4.5138 18.5413 4.5313 18.3438L10.0151 20.8363C10.0296 21.0167 10.0572 21.196 10.0976 21.3725L6.4138 24C5.16435 22.6137 4.48131 20.8086 4.50005 18.9425ZM12.0001 26.5C10.9571 26.5015 9.92544 26.2848 8.9713 25.8638L11.8038 23.8412C12.0235 23.9856 12.2567 24.1082 12.5001 24.2075V26.5H12.0001ZM19.0001 16.5H15.5001V11.5H25.3251C24.9858 12.9228 24.1772 14.1899 23.0298 15.097C21.8823 16.0041 20.4628 16.4983 19.0001 16.5Z" fill="black"/>
</svg>
