<svg width="32" height="32" viewBox="0 0 32 32" fill="none" xmlns="http://www.w3.org/2000/svg">
<path d="M26.5 6.00003V11C26.5 11.1326 26.4473 11.2598 26.3535 11.3536C26.2598 11.4474 26.1326 11.5 26 11.5C25.8674 11.5 25.7402 11.4474 25.6464 11.3536C25.5527 11.2598 25.5 11.1326 25.5 11V7.20753L19.1825 13.525C19.136 13.5715 19.0809 13.6083 19.0202 13.6335C18.9595 13.6586 18.8944 13.6716 18.8287 13.6716C18.763 13.6716 18.698 13.6586 18.6373 13.6335C18.5766 13.6083 18.5214 13.5715 18.475 13.525C18.4285 13.4786 18.3917 13.4234 18.3665 13.3627C18.3414 13.302 18.3284 13.237 18.3284 13.1713C18.3284 13.1056 18.3414 13.0405 18.3665 12.9798C18.3917 12.9191 18.4285 12.864 18.475 12.8175L24.7925 6.50003H21C20.8674 6.50003 20.7402 6.44736 20.6464 6.35359C20.5527 6.25982 20.5 6.13264 20.5 6.00003C20.5 5.86743 20.5527 5.74025 20.6464 5.64648C20.7402 5.55271 20.8674 5.50003 21 5.50003H26C26.1326 5.50003 26.2598 5.55271 26.3535 5.64648C26.4473 5.74025 26.5 5.86743 26.5 6.00003ZM26 20.5C25.8674 20.5 25.7402 20.5527 25.6464 20.6465C25.5527 20.7402 25.5 20.8674 25.5 21V24.7925L6.35372 5.64628C6.2599 5.55246 6.13265 5.49976 5.99997 5.49976C5.86729 5.49976 5.74004 5.55246 5.64622 5.64628C5.5524 5.7401 5.49969 5.86735 5.49969 6.00003C5.49969 6.13272 5.5524 6.25996 5.64622 6.35378L24.7925 25.5H21C20.8674 25.5 20.7402 25.5527 20.6464 25.6465C20.5527 25.7402 20.5 25.8674 20.5 26C20.5 26.1326 20.5527 26.2598 20.6464 26.3536C20.7402 26.4474 20.8674 26.5 21 26.5H26C26.1326 26.5 26.2598 26.4474 26.3535 26.3536C26.4473 26.2598 26.5 26.1326 26.5 26V21C26.5 20.8674 26.4473 20.7402 26.3535 20.6465C26.2598 20.5527 26.1326 20.5 26 20.5ZM12.8175 18.475L5.64622 25.6463C5.5524 25.7401 5.49969 25.8674 5.49969 26C5.49969 26.1327 5.5524 26.26 5.64622 26.3538C5.74004 26.4476 5.86729 26.5003 5.99997 26.5003C6.13265 26.5003 6.2599 26.4476 6.35372 26.3538L13.525 19.1825C13.6188 19.0887 13.6715 18.9615 13.6715 18.8288C13.6715 18.6961 13.6188 18.5689 13.525 18.475C13.4312 18.3812 13.3039 18.3285 13.1712 18.3285C13.0385 18.3285 12.9113 18.3812 12.8175 18.475Z" fill="black"/>
</svg>
