<svg width="32" height="32" viewBox="0 0 32 32" fill="none" xmlns="http://www.w3.org/2000/svg">
<path d="M29.7075 22.2926C29.8005 22.3854 29.8742 22.4957 29.9246 22.6171C29.9749 22.7385 30.0008 22.8686 30.0008 23.0001C30.0008 23.1315 29.9749 23.2616 29.9246 23.383C29.8742 23.5044 29.8005 23.6147 29.7075 23.7076L26.7075 26.7076C26.5676 26.8476 26.3894 26.9429 26.1953 26.9816C26.0012 27.0202 25.8 27.0004 25.6172 26.9247C25.4344 26.8489 25.2782 26.7206 25.1683 26.556C25.0584 26.3914 24.9998 26.198 25 26.0001V24.0001C23.5877 23.9802 22.1998 23.629 20.9482 22.9746C19.6965 22.3202 18.616 21.381 17.7938 20.2326L12.5787 12.9326C11.9305 12.0264 11.0757 11.2877 10.0851 10.7778C9.0945 10.2678 7.99666 10.0012 6.8825 10.0001H4C3.73478 10.0001 3.48043 9.8947 3.29289 9.70716C3.10536 9.51963 3 9.26527 3 9.00006C3 8.73484 3.10536 8.48048 3.29289 8.29295C3.48043 8.10541 3.73478 8.00006 4 8.00006H6.8825C8.31486 8.00125 9.72632 8.34373 10.9999 8.99912C12.2736 9.65452 13.3727 10.604 14.2063 11.7688L19.4212 19.0688C20.0578 19.9589 20.8939 20.6877 21.8627 21.1967C22.8314 21.7057 23.9058 21.9808 25 22.0001V20.0001C24.9998 19.8022 25.0584 19.6087 25.1683 19.4441C25.2782 19.2795 25.4344 19.1512 25.6172 19.0754C25.8 18.9997 26.0012 18.9799 26.1953 19.0185C26.3894 19.0572 26.5676 19.1525 26.7075 19.2926L29.7075 22.2926ZM17.875 13.3751C17.9819 13.4514 18.1027 13.5059 18.2307 13.5356C18.3586 13.5652 18.4911 13.5693 18.6207 13.5477C18.7502 13.5261 18.8742 13.4792 18.9856 13.4097C19.097 13.3402 19.1937 13.2494 19.27 13.1426L19.42 12.9338C20.0564 12.043 20.8926 11.3137 21.8616 10.8043C22.8306 10.2948 23.9054 10.0194 25 10.0001V12.0001C24.9998 12.198 25.0584 12.3914 25.1683 12.556C25.2782 12.7206 25.4344 12.8489 25.6172 12.9247C25.8 13.0004 26.0012 13.0202 26.1953 12.9816C26.3894 12.9429 26.5676 12.8476 26.7075 12.7076L29.7075 9.70756C29.8005 9.61468 29.8742 9.50439 29.9246 9.383C29.9749 9.2616 30.0008 9.13147 30.0008 9.00006C30.0008 8.86864 29.9749 8.73851 29.9246 8.61711C29.8742 8.49572 29.8005 8.38543 29.7075 8.29255L26.7075 5.29256C26.5676 5.15254 26.3894 5.05718 26.1953 5.01853C26.0012 4.97988 25.8 4.99968 25.6172 5.07543C25.4344 5.15119 25.2782 5.27948 25.1683 5.44407C25.0584 5.60867 24.9998 5.80216 25 6.00006V8.00006C23.5877 8.01989 22.1998 8.37115 20.9482 9.02554C19.6965 9.67993 18.616 10.6192 17.7938 11.7676L17.6437 11.9763C17.5668 12.0832 17.5117 12.2043 17.4816 12.3326C17.4516 12.4608 17.4472 12.5938 17.4687 12.7237C17.4902 12.8537 17.5371 12.9782 17.6068 13.0899C17.6766 13.2017 17.7677 13.2986 17.875 13.3751ZM14.125 18.6251C14.0181 18.5487 13.8973 18.4942 13.7693 18.4646C13.6414 18.4349 13.5089 18.4308 13.3793 18.4524C13.2498 18.474 13.1258 18.5209 13.0144 18.5904C12.903 18.6599 12.8063 18.7507 12.73 18.8576L12.58 19.0663C11.9318 19.9729 11.0768 20.7119 10.086 21.2221C9.09514 21.7323 7.99698 21.999 6.8825 22.0001H4C3.73478 22.0001 3.48043 22.1054 3.29289 22.2929C3.10536 22.4805 3 22.7348 3 23.0001C3 23.2653 3.10536 23.5196 3.29289 23.7072C3.48043 23.8947 3.73478 24.0001 4 24.0001H6.8825C8.31486 23.9989 9.72632 23.6564 10.9999 23.001C12.2736 22.3456 13.3727 21.3961 14.2063 20.2313L14.3562 20.0226C14.433 19.9157 14.488 19.7947 14.5179 19.6666C14.5479 19.5384 14.5522 19.4056 14.5307 19.2758C14.5092 19.146 14.4623 19.0217 14.3927 18.91C14.3231 18.7983 14.2321 18.7015 14.125 18.6251Z" fill="black"/>
</svg>
