<svg width="32" height="32" viewBox="0 0 32 32" fill="none" xmlns="http://www.w3.org/2000/svg">
<path opacity="0.08" d="M6 6L16 16L6 26V6ZM16 16L26 26V6L16 16Z" fill="black"/>
<path d="M27 6.00007V11.0001C27 11.2653 26.8947 11.5196 26.7071 11.7072C26.5196 11.8947 26.2652 12.0001 26 12.0001C25.7348 12.0001 25.4804 11.8947 25.2929 11.7072C25.1054 11.5196 25 11.2653 25 11.0001V8.41382L19.535 13.8751C19.3437 14.0389 19.0976 14.1245 18.846 14.1148C18.5943 14.1051 18.3555 14.0007 18.1774 13.8226C17.9993 13.6445 17.895 13.4058 17.8853 13.1541C17.8756 12.9024 17.9612 12.6564 18.125 12.4651L23.5863 7.00007H21C20.7348 7.00007 20.4804 6.89471 20.2929 6.70717C20.1054 6.51964 20 6.26528 20 6.00007C20 5.73485 20.1054 5.4805 20.2929 5.29296C20.4804 5.10542 20.7348 5.00007 21 5.00007H26C26.2652 5.00007 26.5196 5.10542 26.7071 5.29296C26.8947 5.4805 27 5.73485 27 6.00007ZM26 20.0001C25.7348 20.0001 25.4804 20.1054 25.2929 20.293C25.1054 20.4805 25 20.7349 25 21.0001V23.5863L6.70751 5.29257C6.51987 5.10493 6.26537 4.99951 6.00001 4.99951C5.73464 4.99951 5.48015 5.10493 5.29251 5.29257C5.10487 5.48021 4.99945 5.7347 4.99945 6.00007C4.99945 6.26543 5.10487 6.51993 5.29251 6.70757L23.5863 25.0001H21C20.7348 25.0001 20.4804 25.1054 20.2929 25.293C20.1054 25.4805 20 25.7349 20 26.0001C20 26.2653 20.1054 26.5196 20.2929 26.7072C20.4804 26.8947 20.7348 27.0001 21 27.0001H26C26.2652 27.0001 26.5196 26.8947 26.7071 26.7072C26.8947 26.5196 27 26.2653 27 26.0001V21.0001C27 20.7349 26.8947 20.4805 26.7071 20.293C26.5196 20.1054 26.2652 20.0001 26 20.0001ZM12.465 18.1251L5.29251 25.2926C5.10487 25.4802 4.99945 25.7347 4.99945 26.0001C4.99945 26.2654 5.10487 26.5199 5.29251 26.7076C5.48015 26.8952 5.73464 27.0006 6.00001 27.0006C6.26537 27.0006 6.51987 26.8952 6.70751 26.7076L13.875 19.5351C14.0388 19.3438 14.1244 19.0977 14.1147 18.846C14.105 18.5943 14.0007 18.3556 13.8226 18.1775C13.6445 17.9994 13.4057 17.8951 13.1541 17.8854C12.9024 17.8756 12.6563 17.9612 12.465 18.1251Z" fill="black"/>
</svg>
