<svg width="32" height="32" viewBox="0 0 32 32" fill="none" xmlns="http://www.w3.org/2000/svg">
<path d="M29.53 22.4701C29.6705 22.6107 29.7493 22.8013 29.7493 23.0001C29.7493 23.1988 29.6705 23.3895 29.53 23.5301L26.53 26.5301C26.3878 26.6626 26.1998 26.7347 26.0055 26.7313C25.8112 26.7278 25.6258 26.6491 25.4884 26.5117C25.351 26.3743 25.2723 26.1889 25.2688 25.9946C25.2654 25.8003 25.3375 25.6123 25.47 25.4701L27.19 23.7501H21.515C21.2364 23.7498 20.9619 23.6832 20.7141 23.5558C20.4663 23.4284 20.2524 23.244 20.09 23.0176L10.6888 9.85509C10.6656 9.82261 10.6351 9.79613 10.5996 9.77786C10.5642 9.7596 10.5249 9.75008 10.485 9.75009H4C3.80109 9.75009 3.61032 9.67107 3.46967 9.53042C3.32902 9.38977 3.25 9.199 3.25 9.00009C3.25 8.80118 3.32902 8.61041 3.46967 8.46976C3.61032 8.32911 3.80109 8.25009 4 8.25009H10.485C10.7636 8.25041 11.0381 8.317 11.2859 8.44437C11.5337 8.57174 11.7476 8.75622 11.91 8.98259L21.3113 22.1451C21.3344 22.1776 21.3649 22.2041 21.4004 22.2223C21.4358 22.2406 21.4751 22.2501 21.515 22.2501H27.19L25.47 20.5301C25.3375 20.3879 25.2654 20.1999 25.2688 20.0056C25.2723 19.8113 25.351 19.6259 25.4884 19.4885C25.6258 19.3511 25.8112 19.2723 26.0055 19.2689C26.1998 19.2655 26.3878 19.3376 26.53 19.4701L29.53 22.4701ZM18.0212 13.1701C18.1014 13.2273 18.1921 13.2682 18.2881 13.2903C18.3841 13.3125 18.4835 13.3156 18.5806 13.2993C18.6778 13.2831 18.7708 13.2478 18.8543 13.1956C18.9379 13.1434 19.0103 13.0753 19.0675 12.9951L21.3175 9.85509C21.3406 9.82261 21.3712 9.79613 21.4066 9.77786C21.4421 9.7596 21.4814 9.75008 21.5212 9.75009H27.1963L25.47 11.4701C25.3963 11.5388 25.3372 11.6216 25.2962 11.7136C25.2552 11.8056 25.2332 11.9049 25.2314 12.0056C25.2296 12.1063 25.2482 12.2063 25.2859 12.2997C25.3236 12.3931 25.3797 12.4779 25.451 12.5491C25.5222 12.6203 25.607 12.6765 25.7004 12.7142C25.7938 12.7519 25.8938 12.7705 25.9945 12.7687C26.0952 12.7669 26.1945 12.7449 26.2865 12.7039C26.3785 12.6629 26.4613 12.6038 26.53 12.5301L29.53 9.53009C29.6705 9.38946 29.7493 9.19884 29.7493 9.00009C29.7493 8.80134 29.6705 8.61072 29.53 8.47009L26.53 5.47009C26.3878 5.33761 26.1998 5.26549 26.0055 5.26892C25.8112 5.27234 25.6258 5.35106 25.4884 5.48847C25.351 5.62588 25.2723 5.81127 25.2688 6.00557C25.2654 6.19987 25.3375 6.38792 25.47 6.53009L27.19 8.25009H21.515C21.2364 8.25041 20.9619 8.317 20.7141 8.44437C20.4663 8.57174 20.2524 8.75622 20.09 8.98259L17.8475 12.1251C17.7322 12.2868 17.6858 12.4876 17.7183 12.6835C17.7509 12.8794 17.8598 13.0544 18.0212 13.1701ZM13.9788 18.8301C13.8986 18.7729 13.8079 18.732 13.7119 18.7098C13.6159 18.6877 13.5165 18.6846 13.4194 18.7009C13.3222 18.7171 13.2292 18.7524 13.1457 18.8045C13.0621 18.8567 12.9897 18.9249 12.9325 19.0051L10.6888 22.1451C10.6656 22.1776 10.6351 22.2041 10.5996 22.2223C10.5642 22.2406 10.5249 22.2501 10.485 22.2501H4C3.80109 22.2501 3.61032 22.3291 3.46967 22.4698C3.32902 22.6104 3.25 22.8012 3.25 23.0001C3.25 23.199 3.32902 23.3898 3.46967 23.5304C3.61032 23.6711 3.80109 23.7501 4 23.7501H10.485C10.7636 23.7498 11.0381 23.6832 11.2859 23.5558C11.5337 23.4284 11.7476 23.244 11.91 23.0176L14.1525 19.8751C14.2678 19.7134 14.3142 19.5126 14.2817 19.3167C14.2491 19.1208 14.1402 18.9458 13.9788 18.8301Z" fill="black"/>
</svg>
