<svg width="32" height="32" viewBox="0 0 32 32" fill="none" xmlns="http://www.w3.org/2000/svg">
<path d="M30.0613 21.9386C30.2011 22.078 30.312 22.2436 30.3878 22.4259C30.4635 22.6082 30.5024 22.8037 30.5024 23.0011C30.5024 23.1986 30.4635 23.394 30.3878 23.5764C30.312 23.7587 30.2011 23.9243 30.0613 24.0636L27.0613 27.0636C26.7795 27.3454 26.3973 27.5037 25.9988 27.5037C25.6002 27.5037 25.218 27.3454 24.9363 27.0636C24.6545 26.7818 24.4961 26.3997 24.4961 26.0011C24.4961 25.6026 24.6545 25.2204 24.9363 24.9386L25.375 24.4999H25.1138C23.6017 24.4982 22.1119 24.1365 20.7674 23.4446C19.423 22.7527 18.2627 21.7506 17.3825 20.5211L12.1725 13.2224C11.5704 12.381 10.7765 11.6952 9.85656 11.2218C8.93662 10.7483 7.91712 10.5009 6.8825 10.4999H4C3.60218 10.4999 3.22064 10.3419 2.93934 10.0605C2.65804 9.77924 2.5 9.39771 2.5 8.99989C2.5 8.60206 2.65804 8.22053 2.93934 7.93923C3.22064 7.65792 3.60218 7.49989 4 7.49989H6.8825C8.39452 7.50156 9.8844 7.86331 11.2288 8.55519C12.5733 9.24708 13.7336 10.2492 14.6138 11.4786L19.8275 18.7774C20.4296 19.6188 21.2235 20.3046 22.1434 20.778C23.0634 21.2515 24.0829 21.4989 25.1175 21.4999H25.375L24.935 21.0611C24.6532 20.7793 24.4949 20.3972 24.4949 19.9986C24.4949 19.6001 24.6532 19.2179 24.935 18.9361C25.2168 18.6543 25.599 18.496 25.9975 18.496C26.396 18.496 26.7782 18.6543 27.06 18.9361L30.0613 21.9386ZM18.1087 12.8611C18.4081 13.123 18.7993 13.2552 19.1961 13.2287C19.593 13.2022 19.9631 13.0192 20.225 12.7199C20.8351 12.0225 21.5873 11.4636 22.4311 11.0807C23.275 10.6979 24.1909 10.4998 25.1175 10.4999H25.375L24.935 10.9386C24.6532 11.2204 24.4949 11.6026 24.4949 12.0011C24.4949 12.3997 24.6532 12.7818 24.935 13.0636C25.2168 13.3454 25.599 13.5037 25.9975 13.5037C26.396 13.5037 26.7782 13.3454 27.06 13.0636L30.06 10.0636C30.1998 9.92428 30.3108 9.75869 30.3865 9.57636C30.4622 9.39404 30.5012 9.19856 30.5012 9.00114C30.5012 8.80372 30.4622 8.60824 30.3865 8.42591C30.3108 8.24358 30.1998 8.07799 30.06 7.93864L27.06 4.93864C26.7782 4.65684 26.396 4.49854 25.9975 4.49854C25.599 4.49854 25.2168 4.65684 24.935 4.93864C24.6532 5.22043 24.4949 5.60262 24.4949 6.00114C24.4949 6.39965 24.6532 6.78184 24.935 7.06364L25.375 7.49989H25.1138C23.7591 7.50054 22.4203 7.79087 21.1872 8.3514C19.954 8.91194 18.8549 9.72972 17.9638 10.7499C17.7039 11.0495 17.5733 11.4398 17.6005 11.8354C17.6277 12.2311 17.8104 12.5999 18.1087 12.8611ZM13.8912 19.1386C13.5919 18.8768 13.2007 18.7446 12.8039 18.7711C12.407 18.7976 12.0369 18.9806 11.775 19.2799C11.1649 19.9773 10.4127 20.5361 9.56885 20.919C8.72504 21.3019 7.80912 21.5 6.8825 21.4999H4C3.60218 21.4999 3.22064 21.6579 2.93934 21.9392C2.65804 22.2205 2.5 22.6021 2.5 22.9999C2.5 23.3977 2.65804 23.7792 2.93934 24.0605C3.22064 24.3419 3.60218 24.4999 4 24.4999H6.8825C8.2371 24.4992 9.5759 24.2089 10.8091 23.6484C12.0423 23.0878 13.1413 22.2701 14.0325 21.2499C14.2928 20.9508 14.424 20.5607 14.3976 20.1651C14.3711 19.7695 14.1891 19.4004 13.8912 19.1386Z" fill="black"/>
</svg>
