<svg width="32" height="32" viewBox="0 0 32 32" fill="none" xmlns="http://www.w3.org/2000/svg">
<path d="M29.3538 22.6463C29.4002 22.6927 29.4371 22.7479 29.4623 22.8086C29.4874 22.8693 29.5004 22.9343 29.5004 23C29.5004 23.0657 29.4874 23.1308 29.4623 23.1915C29.4371 23.2522 29.4002 23.3073 29.3538 23.3538L26.3538 26.3538C26.2599 26.4476 26.1327 26.5003 26 26.5003C25.8673 26.5003 25.7401 26.4476 25.6462 26.3538C25.5524 26.26 25.4997 26.1327 25.4997 26C25.4997 25.8674 25.5524 25.7401 25.6462 25.6463L27.7925 23.5H21.515C21.2764 23.5005 21.0411 23.444 20.8287 23.3353C20.6163 23.2266 20.4329 23.0688 20.2938 22.875L10.8925 9.70878C10.8461 9.64405 10.7849 9.59133 10.714 9.55502C10.6432 9.51871 10.5646 9.49986 10.485 9.50003H4C3.86739 9.50003 3.74021 9.44736 3.64645 9.35359C3.55268 9.25982 3.5 9.13264 3.5 9.00003C3.5 8.86743 3.55268 8.74025 3.64645 8.64648C3.74021 8.55271 3.86739 8.50003 4 8.50003H10.485C10.7236 8.49957 10.9589 8.55604 11.1713 8.66474C11.3837 8.77344 11.5671 8.93124 11.7063 9.12503L21.1075 22.2888C21.1539 22.3535 21.2151 22.4062 21.286 22.4425C21.3568 22.4789 21.4354 22.4977 21.515 22.4975H27.7925L25.6462 20.3513C25.5524 20.2575 25.4997 20.1302 25.4997 19.9975C25.4997 19.8649 25.5524 19.7376 25.6462 19.6438C25.7401 19.55 25.8673 19.4973 26 19.4973C26.1327 19.4973 26.2599 19.55 26.3538 19.6438L29.3538 22.6463ZM18.1675 12.9663C18.2209 13.0045 18.2814 13.0317 18.3453 13.0465C18.4093 13.0613 18.4756 13.0634 18.5403 13.0526C18.6051 13.0418 18.6671 13.0184 18.7228 12.9836C18.7785 12.9489 18.8268 12.9035 18.865 12.85L21.1075 9.70878C21.1539 9.64405 21.2151 9.59133 21.286 9.55502C21.3568 9.51871 21.4354 9.49986 21.515 9.50003H27.7925L25.6462 11.6463C25.5998 11.6927 25.5629 11.7479 25.5378 11.8086C25.5127 11.8693 25.4997 11.9343 25.4997 12C25.4997 12.0657 25.5127 12.1308 25.5378 12.1915C25.5629 12.2522 25.5998 12.3073 25.6462 12.3538C25.6927 12.4002 25.7479 12.4371 25.8086 12.4622C25.8692 12.4874 25.9343 12.5003 26 12.5003C26.0657 12.5003 26.1308 12.4874 26.1914 12.4622C26.2521 12.4371 26.3073 12.4002 26.3538 12.3538L29.3538 9.35378C29.4002 9.30735 29.4371 9.2522 29.4623 9.1915C29.4874 9.13081 29.5004 9.06574 29.5004 9.00003C29.5004 8.93433 29.4874 8.86926 29.4623 8.80856C29.4371 8.74786 29.4002 8.69272 29.3538 8.64628L26.3538 5.64628C26.3073 5.59983 26.2521 5.56298 26.1914 5.53784C26.1308 5.5127 26.0657 5.49976 26 5.49976C25.9343 5.49976 25.8692 5.5127 25.8086 5.53784C25.7479 5.56298 25.6927 5.59983 25.6462 5.64628C25.5998 5.69274 25.5629 5.74789 25.5378 5.80859C25.5127 5.86928 25.4997 5.93434 25.4997 6.00003C25.4997 6.06573 25.5127 6.13079 25.5378 6.19148C25.5629 6.25218 25.5998 6.30733 25.6462 6.35378L27.7925 8.50003H21.515C21.2764 8.49957 21.0411 8.55604 20.8287 8.66474C20.6163 8.77344 20.4329 8.93124 20.2938 9.12503L18.0513 12.2688C18.0131 12.3222 17.9858 12.3826 17.971 12.4466C17.9562 12.5106 17.9541 12.5768 17.9649 12.6416C17.9757 12.7064 17.9992 12.7684 18.0339 12.8241C18.0687 12.8798 18.1141 12.9281 18.1675 12.9663ZM13.8325 19.0338C13.7791 18.9956 13.7186 18.9683 13.6547 18.9535C13.5907 18.9387 13.5244 18.9367 13.4597 18.9474C13.3949 18.9582 13.3329 18.9817 13.2772 19.0164C13.2215 19.0512 13.1732 19.0966 13.135 19.15L10.8925 22.2913C10.8461 22.356 10.7849 22.4087 10.714 22.445C10.6432 22.4814 10.5646 22.5002 10.485 22.5H4C3.86739 22.5 3.74021 22.5527 3.64645 22.6465C3.55268 22.7402 3.5 22.8674 3.5 23C3.5 23.1326 3.55268 23.2598 3.64645 23.3536C3.74021 23.4474 3.86739 23.5 4 23.5H10.485C10.7236 23.5005 10.9589 23.444 11.1713 23.3353C11.3837 23.2266 11.5671 23.0688 11.7063 22.875L13.9487 19.7338C13.9873 19.6803 14.0149 19.6197 14.0299 19.5554C14.045 19.4912 14.0471 19.4247 14.0363 19.3596C14.0255 19.2945 14.0019 19.2322 13.967 19.1763C13.932 19.1204 13.8863 19.072 13.8325 19.0338Z" fill="black"/>
</svg>
