<svg width="32" height="32" viewBox="0 0 32 32" fill="none" xmlns="http://www.w3.org/2000/svg">
<path d="M27.5 5.99989V10.9999C27.5 11.3977 27.342 11.7792 27.0607 12.0605C26.7794 12.3419 26.3978 12.4999 26 12.4999C25.6022 12.4999 25.2207 12.3419 24.9393 12.0605C24.658 11.7792 24.5 11.3977 24.5 10.9999V9.62489L20.5963 13.5249C20.3145 13.8067 19.9323 13.965 19.5338 13.965C19.1352 13.965 18.753 13.8067 18.4713 13.5249C18.1895 13.2431 18.0312 12.8609 18.0312 12.4624C18.0312 12.0639 18.1895 11.6817 18.4713 11.3999L22.375 7.49989H21C20.6022 7.49989 20.2207 7.34185 19.9393 7.06055C19.658 6.77924 19.5 6.39771 19.5 5.99989C19.5 5.60206 19.658 5.22053 19.9393 4.93923C20.2207 4.65792 20.6022 4.49989 21 4.49989H26C26.3978 4.49989 26.7794 4.65792 27.0607 4.93923C27.342 5.22053 27.5 5.60206 27.5 5.99989ZM26 19.4999C25.6022 19.4999 25.2207 19.6579 24.9393 19.9392C24.658 20.2205 24.5 20.6021 24.5 20.9999V22.3749L7.06126 4.93864C6.77946 4.65684 6.39727 4.49854 5.99876 4.49854C5.60024 4.49854 5.21805 4.65684 4.93626 4.93864C4.65446 5.22043 4.49615 5.60262 4.49615 6.00114C4.49615 6.39965 4.65446 6.78184 4.93626 7.06364L22.375 24.4999H21C20.6022 24.4999 20.2207 24.6579 19.9393 24.9392C19.658 25.2205 19.5 25.6021 19.5 25.9999C19.5 26.3977 19.658 26.7792 19.9393 27.0605C20.2207 27.3419 20.6022 27.4999 21 27.4999H26C26.3978 27.4999 26.7794 27.3419 27.0607 27.0605C27.342 26.7792 27.5 26.3977 27.5 25.9999V20.9999C27.5 20.6021 27.342 20.2205 27.0607 19.9392C26.7794 19.6579 26.3978 19.4999 26 19.4999ZM11.4038 18.4749L4.93876 24.9386C4.65696 25.2204 4.49865 25.6026 4.49865 26.0011C4.49865 26.3997 4.65696 26.7818 4.93876 27.0636C5.22055 27.3454 5.60274 27.5037 6.00126 27.5037C6.39977 27.5037 6.78196 27.3454 7.06376 27.0636L13.5275 20.5986C13.8093 20.3168 13.9676 19.9347 13.9676 19.5361C13.9676 19.1376 13.8093 18.7554 13.5275 18.4736C13.2457 18.1918 12.8635 18.0335 12.465 18.0335C12.0665 18.0335 11.6843 18.1918 11.4025 18.4736L11.4038 18.4749Z" fill="black"/>
</svg>
