<svg width="32" height="32" viewBox="0 0 32 32" fill="none" xmlns="http://www.w3.org/2000/svg">
<path d="M26.75 6V11C26.75 11.1989 26.671 11.3897 26.5303 11.5303C26.3896 11.671 26.1989 11.75 26 11.75C25.8011 11.75 25.6103 11.671 25.4696 11.5303C25.329 11.3897 25.25 11.1989 25.25 11V7.81L19.3587 13.7025C19.218 13.8432 19.0271 13.9223 18.8281 13.9223C18.6291 13.9223 18.4382 13.8432 18.2975 13.7025C18.1567 13.5618 18.0777 13.3709 18.0777 13.1719C18.0777 12.9729 18.1567 12.782 18.2975 12.6412L24.19 6.75H21C20.8011 6.75 20.6103 6.67098 20.4696 6.53033C20.329 6.38968 20.25 6.19891 20.25 6C20.25 5.80109 20.329 5.61032 20.4696 5.46967C20.6103 5.32902 20.8011 5.25 21 5.25H26C26.1989 5.25 26.3896 5.32902 26.5303 5.46967C26.671 5.61032 26.75 5.80109 26.75 6ZM26 20.25C25.8011 20.25 25.6103 20.329 25.4696 20.4697C25.329 20.6103 25.25 20.8011 25.25 21V24.19L6.52997 5.47C6.3878 5.33752 6.19975 5.2654 6.00545 5.26883C5.81115 5.27225 5.62576 5.35097 5.48835 5.48838C5.35094 5.62579 5.27222 5.81118 5.2688 6.00548C5.26537 6.19978 5.33749 6.38783 5.46997 6.53L24.19 25.25H21C20.8011 25.25 20.6103 25.329 20.4696 25.4697C20.329 25.6103 20.25 25.8011 20.25 26C20.25 26.1989 20.329 26.3897 20.4696 26.5303C20.6103 26.671 20.8011 26.75 21 26.75H26C26.1989 26.75 26.3896 26.671 26.5303 26.5303C26.671 26.3897 26.75 26.1989 26.75 26V21C26.75 20.8011 26.671 20.6103 26.5303 20.4697C26.3896 20.329 26.1989 20.25 26 20.25ZM12.6412 18.2975L5.46997 25.47C5.39628 25.5387 5.33718 25.6215 5.29619 25.7135C5.2552 25.8055 5.23316 25.9048 5.23138 26.0055C5.2296 26.1062 5.24813 26.2062 5.28585 26.2996C5.32357 26.393 5.37971 26.4778 5.45093 26.549C5.52215 26.6203 5.60698 26.6764 5.70037 26.7141C5.79376 26.7518 5.89379 26.7704 5.99449 26.7686C6.0952 26.7668 6.19451 26.7448 6.28651 26.7038C6.37851 26.6628 6.46131 26.6037 6.52997 26.53L13.7025 19.3587C13.8432 19.218 13.9223 19.0271 13.9223 18.8281C13.9223 18.6291 13.8432 18.4382 13.7025 18.2975C13.5617 18.1568 13.3709 18.0777 13.1718 18.0777C12.9728 18.0777 12.782 18.1568 12.6412 18.2975Z" fill="black"/>
</svg>
