<svg width="32" height="32" viewBox="0 0 32 32" fill="none" xmlns="http://www.w3.org/2000/svg">
<path d="M29.53 22.4701C29.6705 22.6107 29.7493 22.8013 29.7493 23.0001C29.7493 23.1988 29.6705 23.3895 29.53 23.5301L26.53 26.5301C26.3878 26.6626 26.1998 26.7347 26.0055 26.7313C25.8112 26.7278 25.6258 26.6491 25.4884 26.5117C25.351 26.3743 25.2723 26.1889 25.2688 25.9946C25.2654 25.8003 25.3375 25.6123 25.47 25.4701L27.19 23.7501H25.1175C23.7242 23.7493 22.3512 23.4165 21.1122 22.7794C19.8731 22.1423 18.8037 21.2191 17.9925 20.0863L12.7788 12.7863C12.1075 11.8485 11.2227 11.084 10.1974 10.556C9.17206 10.028 8.03577 9.75177 6.8825 9.75009H4C3.80109 9.75009 3.61032 9.67107 3.46967 9.53042C3.32902 9.38977 3.25 9.199 3.25 9.00009C3.25 8.80118 3.32902 8.61041 3.46967 8.46976C3.61032 8.32911 3.80109 8.25009 4 8.25009H6.8825C8.27576 8.25091 9.64878 8.58367 10.8878 9.2208C12.1269 9.85793 13.1963 10.7811 14.0075 11.9138L19.2213 19.2138C19.8925 20.1517 20.7773 20.9162 21.8026 21.4442C22.8279 21.9722 23.9642 22.2484 25.1175 22.2501H27.19L25.47 20.5301C25.3375 20.3879 25.2654 20.1999 25.2688 20.0056C25.2723 19.8113 25.351 19.6259 25.4884 19.4885C25.6258 19.3511 25.8112 19.2723 26.0055 19.2689C26.1998 19.2655 26.3878 19.3376 26.53 19.4701L29.53 22.4701ZM18.0225 13.1688C18.1491 13.2603 18.3013 13.3093 18.4575 13.3088C18.577 13.309 18.6948 13.2807 18.8012 13.2261C18.9075 13.1715 18.9992 13.0923 19.0688 12.9951L19.2175 12.7863C19.8891 11.848 20.7745 11.0832 21.8005 10.5551C22.8266 10.0271 23.9636 9.75117 25.1175 9.75009H27.19L25.47 11.4701C25.3963 11.5388 25.3372 11.6216 25.2962 11.7136C25.2552 11.8056 25.2332 11.9049 25.2314 12.0056C25.2296 12.1063 25.2482 12.2063 25.2859 12.2997C25.3236 12.3931 25.3797 12.4779 25.451 12.5491C25.5222 12.6203 25.607 12.6765 25.7004 12.7142C25.7938 12.7519 25.8938 12.7705 25.9945 12.7687C26.0952 12.7669 26.1945 12.7449 26.2865 12.7039C26.3785 12.6629 26.4613 12.6038 26.53 12.5301L29.53 9.53009C29.6705 9.38946 29.7493 9.19884 29.7493 9.00009C29.7493 8.80134 29.6705 8.61072 29.53 8.47009L26.53 5.47009C26.3878 5.33761 26.1998 5.26549 26.0055 5.26892C25.8112 5.27234 25.6258 5.35106 25.4884 5.48847C25.351 5.62588 25.2723 5.81127 25.2688 6.00557C25.2654 6.19987 25.3375 6.38792 25.47 6.53009L27.19 8.25009H25.1175C23.7242 8.25091 22.3512 8.58367 21.1122 9.2208C19.8731 9.85793 18.8037 10.7811 17.9925 11.9138L17.8475 12.1251C17.7327 12.2869 17.6867 12.4875 17.7195 12.6831C17.7523 12.8787 17.8612 13.0534 18.0225 13.1688ZM13.9775 18.8313C13.8157 18.7157 13.6146 18.669 13.4184 18.7016C13.2222 18.7341 13.047 18.8433 12.9312 19.0051L12.7825 19.2138C12.1109 20.1522 11.2255 20.917 10.1995 21.445C9.17345 21.973 8.0364 22.249 6.8825 22.2501H4C3.80109 22.2501 3.61032 22.3291 3.46967 22.4698C3.32902 22.6104 3.25 22.8012 3.25 23.0001C3.25 23.199 3.32902 23.3898 3.46967 23.5304C3.61032 23.6711 3.80109 23.7501 4 23.7501H6.8825C8.27576 23.7493 9.64878 23.4165 10.8878 22.7794C12.1269 22.1423 13.1963 21.2191 14.0075 20.0863L14.1562 19.8776C14.2133 19.7972 14.2539 19.7063 14.2758 19.6102C14.2977 19.5141 14.3004 19.4146 14.2838 19.3174C14.2672 19.2202 14.2316 19.1273 14.179 19.0439C14.1265 18.9605 14.058 18.8883 13.9775 18.8313Z" fill="black"/>
</svg>
