<svg width="32" height="32" viewBox="0 0 32 32" fill="none" xmlns="http://www.w3.org/2000/svg">
<path d="M27 4.5H5C4.33696 4.5 3.70107 4.76339 3.23223 5.23223C2.76339 5.70107 2.5 6.33696 2.5 7V25C2.5 25.663 2.76339 26.2989 3.23223 26.7678C3.70107 27.2366 4.33696 27.5 5 27.5H27C27.663 27.5 28.2989 27.2366 28.7678 26.7678C29.2366 26.2989 29.5 25.663 29.5 25V7C29.5 6.33696 29.2366 5.70107 28.7678 5.23223C28.2989 4.76339 27.663 4.5 27 4.5ZM5.5 7.5H9.5V24.5H5.5V7.5ZM26.5 24.5H12.5V7.5H26.5V24.5Z" fill="black"/>
</svg>
