<svg width="32" height="32" viewBox="0 0 32 32" fill="none" xmlns="http://www.w3.org/2000/svg">
<path d="M23.5002 9V6.5H9.04018L16.3902 15.6875C16.4612 15.7762 16.4999 15.8864 16.4999 16C16.4999 16.1136 16.4612 16.2238 16.3902 16.3125L9.04018 25.5H23.5002V23C23.5002 22.8674 23.5529 22.7402 23.6466 22.6464C23.7404 22.5527 23.8676 22.5 24.0002 22.5C24.1328 22.5 24.26 22.5527 24.3537 22.6464C24.4475 22.7402 24.5002 22.8674 24.5002 23V26C24.5002 26.1326 24.4475 26.2598 24.3537 26.3536C24.26 26.4473 24.1328 26.5 24.0002 26.5H8.00018C7.906 26.4999 7.81376 26.4733 7.73407 26.4231C7.65438 26.3729 7.59048 26.3013 7.54973 26.2164C7.50898 26.1315 7.49303 26.0368 7.50372 25.9432C7.51442 25.8497 7.55132 25.761 7.61018 25.6875L15.3602 16L7.61018 6.3125C7.55132 6.23899 7.51442 6.15034 7.50372 6.05678C7.49303 5.96322 7.50898 5.86853 7.54973 5.78363C7.59048 5.69873 7.65438 5.62707 7.73407 5.57689C7.81376 5.52671 7.906 5.50006 8.00018 5.5H24.0002C24.1328 5.5 24.26 5.55268 24.3537 5.64645C24.4475 5.74021 24.5002 5.86739 24.5002 6V9C24.5002 9.13261 24.4475 9.25979 24.3537 9.35355C24.26 9.44732 24.1328 9.5 24.0002 9.5C23.8676 9.5 23.7404 9.44732 23.6466 9.35355C23.5529 9.25979 23.5002 9.13261 23.5002 9Z" fill="black"/>
</svg>
