<svg width="32" height="32" viewBox="0 0 32 32" fill="none" xmlns="http://www.w3.org/2000/svg">
<path d="M29 20.4999H8.79375C9.06875 19.9474 9.345 19.3824 9.6175 18.8087C9.6475 18.7474 9.67625 18.6837 9.705 18.6262C11.4 18.4262 13.3025 17.2187 15.395 15.0137C16.0612 16.5212 17.1537 18.1224 18.8512 18.4437C19.5075 18.5687 20.5375 18.5424 21.7137 17.7174C22.1267 17.4227 22.5071 17.085 22.8487 16.7099C23.89 17.6624 25.7337 18.4999 29 18.4999C29.3978 18.4999 29.7794 18.3419 30.0607 18.0606C30.342 17.7793 30.5 17.3977 30.5 16.9999C30.5 16.6021 30.342 16.2206 30.0607 15.9393C29.7794 15.6579 29.3978 15.4999 29 15.4999C24.9175 15.4999 24.5237 14.0487 24.5 13.9249C24.4825 13.5853 24.3501 13.2616 24.1245 13.0071C23.8989 12.7526 23.5935 12.5823 23.2584 12.5242C22.9232 12.4661 22.5783 12.5236 22.2802 12.6872C21.9821 12.8509 21.7484 13.111 21.6175 13.4249C20.4462 15.1662 19.6675 15.5499 19.41 15.4999C18.7962 15.3837 17.8537 13.5374 17.47 11.7012C17.409 11.4043 17.2595 11.133 17.0412 10.9228C16.8229 10.7126 16.5461 10.5734 16.2472 10.5236C15.9483 10.4738 15.6413 10.5157 15.3667 10.6438C15.0921 10.7719 14.8627 10.9802 14.7087 11.2412C13.4587 12.7887 12.3887 13.8574 11.4987 14.5537C14.1625 7.90491 13.6425 5.48866 12.9325 4.23241C12.3075 3.12366 11.1825 2.50991 9.7625 2.50366H9.7225C7.4725 2.51991 5.66875 4.58616 4.88125 8.03741C4.45 9.92866 4.38125 12.0224 4.69875 13.7799C5.02875 15.6162 5.74 16.9887 6.775 17.8074C6.32875 18.7299 5.875 19.6362 5.43125 20.4999H3C2.60217 20.4999 2.22064 20.6579 1.93934 20.9393C1.65803 21.2206 1.5 21.6021 1.5 21.9999C1.5 22.3977 1.65803 22.7793 1.93934 23.0606C2.22064 23.3419 2.60217 23.4999 3 23.4999H3.835C2.625 25.7087 1.73 27.1999 1.71 27.2262C1.60844 27.395 1.54114 27.5822 1.51194 27.777C1.48274 27.9718 1.4922 28.1705 1.53979 28.3617C1.58738 28.5529 1.67217 28.7328 1.78931 28.8912C1.90645 29.0496 2.05365 29.1834 2.2225 29.2849C2.45678 29.4271 2.72593 29.5016 3 29.4999C3.25883 29.5001 3.51332 29.4333 3.73871 29.3061C3.96411 29.1788 4.15273 28.9954 4.28625 28.7737C4.36375 28.6424 5.6525 26.4999 7.25 23.4999H29C29.3978 23.4999 29.7794 23.3419 30.0607 23.0606C30.342 22.7793 30.5 22.3977 30.5 21.9999C30.5 21.6021 30.342 21.2206 30.0607 20.9393C29.7794 20.6579 29.3978 20.4999 29 20.4999ZM24.5 13.9999C24.5 13.9774 24.5 13.9549 24.5 13.9324C24.5019 13.9549 24.5019 13.9775 24.5 13.9999ZM7.805 8.70116C8.22125 6.87491 9.055 5.49991 9.75 5.49991C10.2087 5.49991 10.2812 5.62491 10.325 5.70491C10.5037 6.02241 11.1437 7.84116 8.1475 14.8049C7.90657 14.3137 7.73896 13.7898 7.65 13.2499C7.40755 11.7379 7.46018 10.1932 7.805 8.70116Z" fill="black"/>
</svg>
