<svg width="32" height="32" viewBox="0 0 32 32" fill="none" xmlns="http://www.w3.org/2000/svg">
<path d="M29 21.25H7.575C7.9925 20.4325 8.41625 19.5813 8.8325 18.7138C10.72 19.03 13.0088 17.6525 15.6613 14.6038C16.1738 16.1462 17.2075 18.3687 18.99 18.7062C20.25 18.945 21.5125 18.2462 22.8313 16.5812C23.5663 17.6025 25.23 18.75 29 18.75C29.1989 18.75 29.3897 18.671 29.5303 18.5303C29.671 18.3897 29.75 18.1989 29.75 18C29.75 17.8011 29.671 17.6103 29.5303 17.4697C29.3897 17.329 29.1989 17.25 29 17.25C23.96 17.25 23.7575 15.1075 23.75 14.985C23.7465 14.8079 23.6804 14.6378 23.5634 14.5048C23.4465 14.3718 23.2863 14.2844 23.1111 14.2582C22.9359 14.232 22.7572 14.2687 22.6064 14.3616C22.4557 14.4546 22.3427 14.598 22.2875 14.7662C21.13 16.5075 20.0613 17.3825 19.27 17.2325C18.645 17.115 17.9938 16.3413 17.4413 15.055C17.1413 14.3418 16.905 13.6035 16.735 12.8488C16.7037 12.6966 16.6259 12.5579 16.5123 12.4518C16.3987 12.3458 16.2551 12.2776 16.1011 12.2567C15.9471 12.2359 15.7905 12.2634 15.6528 12.3354C15.5151 12.4074 15.4032 12.5204 15.3325 12.6587C13.0313 15.5212 10.9838 17.1237 9.5225 17.24C12.5 10.73 13.4038 6.5875 12.2788 4.5975C11.9325 3.985 11.2138 3.25 9.75 3.25H9.72375C7.84875 3.2625 6.3625 5.09 5.6375 8.2675C4.79125 12 5.27 16.5 7.4525 18.125C6.93375 19.2063 6.4025 20.2612 5.8875 21.25H3C2.80109 21.25 2.61032 21.329 2.46967 21.4697C2.32902 21.6103 2.25 21.8011 2.25 22C2.25 22.1989 2.32902 22.3897 2.46967 22.5303C2.61032 22.671 2.80109 22.75 3 22.75H5.095C3.58125 25.5725 2.375 27.5825 2.3575 27.6138C2.30323 27.6982 2.26646 27.7927 2.24937 27.8916C2.23228 27.9905 2.23523 28.0919 2.25803 28.1896C2.28083 28.2874 2.32302 28.3796 2.38211 28.4607C2.4412 28.5419 2.51597 28.6103 2.602 28.662C2.68804 28.7138 2.78358 28.7477 2.88296 28.7618C2.98235 28.7759 3.08355 28.7699 3.18058 28.7442C3.27762 28.7185 3.3685 28.6736 3.44784 28.6121C3.52719 28.5506 3.59338 28.4738 3.6425 28.3862C3.6625 28.3538 5.0875 25.9775 6.79375 22.75H29C29.1989 22.75 29.3897 22.671 29.5303 22.5303C29.671 22.3897 29.75 22.1989 29.75 22C29.75 21.8011 29.671 21.6103 29.5303 21.4697C29.3897 21.329 29.1989 21.25 29 21.25ZM7.105 8.6025C7.6375 6.265 8.67375 4.75 9.75 4.75C10.545 4.75 10.8238 5.06375 10.9775 5.33625C11.4775 6.21125 11.7275 8.855 8.11875 16.7113C6.82875 15.4213 6.34875 11.915 7.105 8.6025Z" fill="black"/>
</svg>
