<svg width="32" height="32" viewBox="0 0 32 32" fill="none" xmlns="http://www.w3.org/2000/svg">
<path d="M18.0613 17.0613L13.0612 22.0613C12.7795 22.343 12.3973 22.5014 11.9987 22.5014C11.6002 22.5014 11.218 22.343 10.9362 22.0613C10.6545 21.7795 10.4961 21.3973 10.4961 20.9988C10.4961 20.6002 10.6545 20.218 10.9362 19.9363L13.375 17.5H3C2.60218 17.5 2.22064 17.342 1.93934 17.0607C1.65804 16.7794 1.5 16.3978 1.5 16C1.5 15.6022 1.65804 15.2206 1.93934 14.9393C2.22064 14.658 2.60218 14.5 3 14.5H13.375L10.9388 12.0612C10.7992 11.9217 10.6885 11.7561 10.613 11.5738C10.5375 11.3915 10.4986 11.1961 10.4986 10.9987C10.4986 10.6002 10.657 10.218 10.9388 9.93625C11.2205 9.65446 11.6027 9.49615 12.0013 9.49615C12.3998 9.49615 12.782 9.65446 13.0638 9.93625L18.0637 14.9362C18.2034 15.0758 18.3142 15.2415 18.3897 15.4239C18.4652 15.6063 18.5039 15.8018 18.5037 15.9993C18.5035 16.1967 18.4642 16.3921 18.3883 16.5744C18.3124 16.7566 18.2013 16.9221 18.0613 17.0613ZM24 3.5H17C16.6022 3.5 16.2206 3.65804 15.9393 3.93934C15.658 4.22064 15.5 4.60218 15.5 5C15.5 5.39782 15.658 5.77936 15.9393 6.06066C16.2206 6.34196 16.6022 6.5 17 6.5H23.5V25.5H17C16.6022 25.5 16.2206 25.658 15.9393 25.9393C15.658 26.2206 15.5 26.6022 15.5 27C15.5 27.3978 15.658 27.7794 15.9393 28.0607C16.2206 28.342 16.6022 28.5 17 28.5H24C24.663 28.5 25.2989 28.2366 25.7678 27.7678C26.2366 27.2989 26.5 26.663 26.5 26V6C26.5 5.33696 26.2366 4.70107 25.7678 4.23223C25.2989 3.76339 24.663 3.5 24 3.5Z" fill="black"/>
</svg>
