<svg width="32" height="32" viewBox="0 0 32 32" fill="none" xmlns="http://www.w3.org/2000/svg">
<path d="M31.115 13L26.615 8C26.4746 7.84308 26.3028 7.71746 26.1107 7.63131C25.9186 7.54517 25.7105 7.50043 25.5 7.5H17.5V4C17.5 3.60218 17.342 3.22064 17.0607 2.93934C16.7794 2.65804 16.3978 2.5 16 2.5C15.6022 2.5 15.2206 2.65804 14.9393 2.93934C14.658 3.22064 14.5 3.60218 14.5 4V7.5H5C4.33696 7.5 3.70107 7.76339 3.23223 8.23223C2.76339 8.70107 2.5 9.33696 2.5 10V18C2.5 18.3283 2.56466 18.6534 2.6903 18.9567C2.81594 19.26 3.00009 19.5356 3.23223 19.7678C3.46438 19.9999 3.73998 20.1841 4.04329 20.3097C4.34661 20.4353 4.6717 20.5 5 20.5H14.5V28C14.5 28.3978 14.658 28.7794 14.9393 29.0607C15.2206 29.342 15.6022 29.5 16 29.5C16.3978 29.5 16.7794 29.342 17.0607 29.0607C17.342 28.7794 17.5 28.3978 17.5 28V20.5H25.5C25.7105 20.4996 25.9186 20.4548 26.1107 20.3687C26.3028 20.2825 26.4746 20.1569 26.615 20L31.115 15C31.361 14.725 31.497 14.369 31.497 14C31.497 13.631 31.361 13.275 31.115 13ZM24.8325 17.5H5.5V10.5H24.8325L27.9825 14L24.8325 17.5Z" fill="black"/>
</svg>
