<svg width="32" height="32" viewBox="0 0 32 32" fill="none" xmlns="http://www.w3.org/2000/svg">
<path d="M27.0613 9.93875L20.0613 2.93875C19.9218 2.7995 19.7564 2.68908 19.5743 2.6138C19.3922 2.53851 19.197 2.49985 19 2.5H7C6.33696 2.5 5.70107 2.76339 5.23223 3.23223C4.76339 3.70107 4.5 4.33696 4.5 5V27C4.5 27.663 4.76339 28.2989 5.23223 28.7678C5.70107 29.2366 6.33696 29.5 7 29.5H25C25.663 29.5 26.2989 29.2366 26.7678 28.7678C27.2366 28.2989 27.5 27.663 27.5 27V11C27.5002 10.803 27.4615 10.6078 27.3862 10.4257C27.3109 10.2436 27.2005 10.0782 27.0613 9.93875ZM24.5 26.5H7.5V5.5H18.375L24.5 11.625V26.5ZM11 14C10.6022 14 10.2206 14.158 9.93934 14.4393C9.65804 14.7206 9.5 15.1022 9.5 15.5V23.5C9.5 23.8978 9.65804 24.2794 9.93934 24.5607C10.2206 24.842 10.6022 25 11 25H21C21.3978 25 21.7794 24.842 22.0607 24.5607C22.342 24.2794 22.5 23.8978 22.5 23.5V15.5C22.5 15.1022 22.342 14.7206 22.0607 14.4393C21.7794 14.158 21.3978 14 21 14H11ZM12.5 17H14.5V22H12.5V17ZM19.5 22H17.5V17H19.5V22Z" fill="black"/>
</svg>
