<svg width="32" height="32" viewBox="0 0 32 32" fill="none" xmlns="http://www.w3.org/2000/svg">
<path d="M25 3.49992C24.6022 3.49992 24.2206 3.65795 23.9393 3.93926C23.658 4.22056 23.5 4.60209 23.5 4.99992V12.7499L9.31875 3.87492C8.94116 3.64045 8.50788 3.5109 8.06356 3.49959C7.61924 3.48828 7.17994 3.59563 6.7909 3.81059C6.40187 4.02554 6.07718 4.34032 5.85028 4.72251C5.62338 5.10469 5.50246 5.54046 5.5 5.98492V26.0149C5.50246 26.4594 5.62338 26.8951 5.85028 27.2773C6.07718 27.6595 6.40187 27.9743 6.7909 28.1892C7.17994 28.4042 7.61924 28.5116 8.06356 28.5002C8.50788 28.4889 8.94116 28.3594 9.31875 28.1249L23.5 19.2499V26.9999C23.5 27.3977 23.658 27.7793 23.9393 28.0606C24.2206 28.3419 24.6022 28.4999 25 28.4999C25.3978 28.4999 25.7794 28.3419 26.0607 28.0606C26.342 27.7793 26.5 27.3977 26.5 26.9999V4.99992C26.5 4.60209 26.342 4.22056 26.0607 3.93926C25.7794 3.65795 25.3978 3.49992 25 3.49992ZM8.5 25.0912V6.90867L23.0375 15.9999L8.5 25.0912Z" fill="black"/>
</svg>
