<svg width="32" height="32" viewBox="0 0 32 32" fill="none" xmlns="http://www.w3.org/2000/svg">
<path opacity="0.08" d="M25 5.98488V26.0149C24.9964 26.191 24.9463 26.3631 24.8548 26.5136C24.7634 26.6642 24.6337 26.7879 24.4791 26.8723C24.3244 26.9566 24.1503 26.9986 23.9741 26.994C23.798 26.9895 23.6263 26.9384 23.4762 26.8461L7.46248 16.8311C7.32115 16.7433 7.20455 16.6208 7.1237 16.4754C7.04286 16.3299 7.00043 16.1663 7.00043 15.9999C7.00043 15.8335 7.04286 15.6698 7.1237 15.5244C7.20455 15.3789 7.32115 15.2565 7.46248 15.1686L23.4762 5.15363C23.6263 5.06133 23.798 5.0103 23.9741 5.00571C24.1503 5.00112 24.3244 5.04314 24.4791 5.1275C24.6337 5.21187 24.7634 5.33559 24.8548 5.48615C24.9463 5.6367 24.9964 5.80875 25 5.98488Z" fill="black"/>
<path d="M24.9762 4.2499C24.6639 4.07682 24.3109 3.99052 23.9539 3.99997C23.5969 4.00942 23.249 4.11428 22.9463 4.30365L8 13.6537V4.9999C8 4.73469 7.89464 4.48033 7.70711 4.2928C7.51957 4.10526 7.26522 3.9999 7 3.9999C6.73478 3.9999 6.48043 4.10526 6.29289 4.2928C6.10536 4.48033 6 4.73469 6 4.9999V26.9999C6 27.2651 6.10536 27.5195 6.29289 27.707C6.48043 27.8945 6.73478 27.9999 7 27.9999C7.26522 27.9999 7.51957 27.8945 7.70711 27.707C7.89464 27.5195 8 27.2651 8 26.9999V18.3462L22.9463 27.6937C23.2472 27.8826 23.5933 27.9877 23.9485 27.998C24.3038 28.0083 24.6553 27.9234 24.9667 27.7522C25.2782 27.581 25.5382 27.3297 25.7199 27.0242C25.9015 26.7187 25.9982 26.3703 26 26.0149V5.9849C26 5.63061 25.905 5.28281 25.7249 4.97768C25.5449 4.67255 25.2864 4.42124 24.9762 4.2499ZM24 25.9999L8.02 15.9999L24 6.00865V25.9999Z" fill="black"/>
</svg>
