<svg width="32" height="32" viewBox="0 0 32 32" fill="none" xmlns="http://www.w3.org/2000/svg">
<path d="M16 2.5C13.33 2.5 10.7199 3.29176 8.49981 4.77516C6.27974 6.25856 4.54942 8.36697 3.52763 10.8338C2.50585 13.3006 2.2385 16.015 2.7594 18.6337C3.28031 21.2525 4.56606 23.6579 6.45406 25.5459C8.34207 27.434 10.7475 28.7197 13.3663 29.2406C15.985 29.7615 18.6994 29.4942 21.1662 28.4724C23.633 27.4506 25.7414 25.7203 27.2248 23.5002C28.7082 21.2801 29.5 18.67 29.5 16C29.496 12.4208 28.0724 8.98932 25.5416 6.45844C23.0107 3.92756 19.5792 2.50397 16 2.5ZM16 26.5C13.9233 26.5 11.8932 25.8842 10.1665 24.7304C8.4398 23.5767 7.09399 21.9368 6.29927 20.0182C5.50455 18.0996 5.29662 15.9884 5.70176 13.9516C6.10691 11.9148 7.10693 10.0438 8.57538 8.57538C10.0438 7.10693 11.9148 6.1069 13.9516 5.70175C15.9884 5.29661 18.0996 5.50454 20.0182 6.29926C21.9368 7.09399 23.5767 8.4398 24.7304 10.1665C25.8842 11.8932 26.5 13.9233 26.5 16C26.497 18.7839 25.3898 21.4528 23.4213 23.4213C21.4529 25.3898 18.7839 26.497 16 26.5ZM20 9.5C19.6022 9.5 19.2207 9.65804 18.9393 9.93934C18.658 10.2206 18.5 10.6022 18.5 11V13.2937L12.795 9.7275C12.5679 9.58557 12.307 9.50702 12.0393 9.50001C11.7715 9.493 11.5068 9.55779 11.2726 9.68765C11.0384 9.81751 10.8433 10.0077 10.7074 10.2385C10.5715 10.4693 10.4999 10.7322 10.5 11V21C10.4999 21.2678 10.5715 21.5307 10.7074 21.7615C10.8433 21.9923 11.0384 22.1825 11.2726 22.3123C11.5068 22.4422 11.7715 22.507 12.0393 22.5C12.307 22.493 12.5679 22.4144 12.795 22.2725L18.5 18.7062V21C18.5 21.3978 18.658 21.7794 18.9393 22.0607C19.2207 22.342 19.6022 22.5 20 22.5C20.3978 22.5 20.7794 22.342 21.0607 22.0607C21.342 21.7794 21.5 21.3978 21.5 21V11C21.5 10.6022 21.342 10.2206 21.0607 9.93934C20.7794 9.65804 20.3978 9.5 20 9.5ZM13.5 18.2938V13.7063L17.17 16L13.5 18.2938Z" fill="black"/>
</svg>
