<svg width="32" height="32" viewBox="0 0 32 32" fill="none" xmlns="http://www.w3.org/2000/svg">
<path d="M25.2188 3.815C24.8284 3.5985 24.3872 3.49047 23.941 3.50212C23.4947 3.51377 23.0598 3.64468 22.6812 3.88125L8.5 12.75V5C8.5 4.60218 8.34196 4.22064 8.06066 3.93934C7.77936 3.65804 7.39782 3.5 7 3.5C6.60218 3.5 6.22064 3.65804 5.93934 3.93934C5.65804 4.22064 5.5 4.60218 5.5 5V27C5.5 27.3978 5.65804 27.7794 5.93934 28.0607C6.22064 28.342 6.60218 28.5 7 28.5C7.39782 28.5 7.77936 28.342 8.06066 28.0607C8.34196 27.7794 8.5 27.3978 8.5 27V19.25L22.6812 28.125C23.0588 28.3595 23.4921 28.489 23.9364 28.5003C24.3808 28.5116 24.8201 28.4043 25.2091 28.1893C25.5981 27.9744 25.9228 27.6596 26.1497 27.2774C26.3766 26.8952 26.4975 26.4595 26.5 26.015V5.985C26.4996 5.54186 26.3805 5.10692 26.1552 4.72534C25.9299 4.34375 25.6066 4.02943 25.2188 3.815ZM23.5 25.0912L8.9625 16L23.5 6.90875V25.0912Z" fill="black"/>
</svg>
