<svg width="32" height="32" viewBox="0 0 32 32" fill="none" xmlns="http://www.w3.org/2000/svg">
<path d="M25 4.5C24.8674 4.5 24.7402 4.55268 24.6464 4.64645C24.5526 4.74021 24.5 4.86739 24.5 5V14.555L8.78872 4.73C8.56163 4.58802 8.30066 4.50943 8.03292 4.50239C7.76519 4.49536 7.50046 4.56014 7.26622 4.69C7.03306 4.81606 6.83857 5.00317 6.7036 5.23129C6.56862 5.45941 6.49823 5.71995 6.49997 5.985V26.015C6.49823 26.2801 6.56862 26.5406 6.7036 26.7687C6.83857 26.9968 7.03306 27.1839 7.26622 27.31C7.50046 27.4399 7.76519 27.5046 8.03292 27.4976C8.30066 27.4906 8.56163 27.412 8.78872 27.27L24.5 17.445V27C24.5 27.1326 24.5526 27.2598 24.6464 27.3536C24.7402 27.4473 24.8674 27.5 25 27.5C25.1326 27.5 25.2598 27.4473 25.3535 27.3536C25.4473 27.2598 25.5 27.1326 25.5 27V5C25.5 4.86739 25.4473 4.74021 25.3535 4.64645C25.2598 4.55268 25.1326 4.5 25 4.5ZM24.2725 16.4075L8.25747 26.4225C8.18181 26.4699 8.09484 26.4962 8.0056 26.4986C7.91635 26.501 7.82809 26.4795 7.74997 26.4363C7.67396 26.3954 7.61053 26.3346 7.56648 26.2603C7.52243 26.1861 7.49944 26.1013 7.49997 26.015V5.985C7.49944 5.8987 7.52243 5.81388 7.56648 5.73966C7.61053 5.66544 7.67396 5.60463 7.74997 5.56375C7.82629 5.521 7.9125 5.49901 7.99997 5.5C8.0934 5.50068 8.18477 5.52753 8.26372 5.5775L24.2787 15.5925C24.3483 15.6354 24.4057 15.6953 24.4455 15.7667C24.4853 15.838 24.5062 15.9183 24.5062 16C24.5062 16.0817 24.4853 16.162 24.4455 16.2333C24.4057 16.3047 24.3483 16.3646 24.2787 16.4075H24.2725Z" fill="black"/>
</svg>
