<svg width="32" height="32" viewBox="0 0 32 32" fill="none" xmlns="http://www.w3.org/2000/svg">
<path d="M14.5 16.5C14.5 17.0933 14.3241 17.6734 13.9944 18.1667C13.6648 18.6601 13.1962 19.0446 12.6481 19.2716C12.0999 19.4987 11.4967 19.5581 10.9147 19.4424C10.3328 19.3266 9.79824 19.0409 9.37868 18.6213C8.95912 18.2018 8.6734 17.6672 8.55764 17.0853C8.44189 16.5033 8.5013 15.9001 8.72836 15.3519C8.95542 14.8038 9.33994 14.3352 9.83329 14.0056C10.3266 13.6759 10.9067 13.5 11.5 13.5C12.2956 13.5 13.0587 13.8161 13.6213 14.3787C14.1839 14.9413 14.5 15.7044 14.5 16.5ZM20.5 13.5C19.9067 13.5 19.3266 13.6759 18.8333 14.0056C18.3399 14.3352 17.9554 14.8038 17.7284 15.3519C17.5013 15.9001 17.4419 16.5033 17.5576 17.0853C17.6734 17.6672 17.9591 18.2018 18.3787 18.6213C18.7982 19.0409 19.3328 19.3266 19.9147 19.4424C20.4967 19.5581 21.0999 19.4987 21.6481 19.2716C22.1962 19.0446 22.6648 18.6601 22.9944 18.1667C23.3241 17.6734 23.5 17.0933 23.5 16.5C23.5 15.7044 23.1839 14.9413 22.6213 14.3787C22.0587 13.8161 21.2956 13.5 20.5 13.5ZM29.5 14.5C29.5 18.2313 27.8687 21.7225 25 24.19V27C25 27.663 24.7366 28.2989 24.2678 28.7678C23.7989 29.2366 23.163 29.5 22.5 29.5H9.5C8.83696 29.5 8.20107 29.2366 7.73223 28.7678C7.26339 28.2989 7 27.663 7 27V24.19C4.125 21.7225 2.5 18.2313 2.5 14.5C2.5 7.33125 8.55625 1.5 16 1.5C23.4438 1.5 29.5 7.33125 29.5 14.5ZM26.5 14.5C26.5 8.98625 21.79 4.5 16 4.5C10.21 4.5 5.5 8.98625 5.5 14.5C5.5 17.5387 6.92625 20.375 9.41375 22.2875C9.59617 22.4276 9.74392 22.6078 9.84558 22.8142C9.94723 23.0205 10.0001 23.2475 10 23.4775V26.5H12V24C12 23.6022 12.158 23.2206 12.4393 22.9393C12.7206 22.658 13.1022 22.5 13.5 22.5C13.8978 22.5 14.2794 22.658 14.5607 22.9393C14.842 23.2206 15 23.6022 15 24V26.5H17V24C17 23.6022 17.158 23.2206 17.4393 22.9393C17.7206 22.658 18.1022 22.5 18.5 22.5C18.8978 22.5 19.2794 22.658 19.5607 22.9393C19.842 23.2206 20 23.6022 20 24V26.5H22V23.4775C22.0001 23.2477 22.0531 23.021 22.1547 22.8149C22.2563 22.6087 22.404 22.4287 22.5863 22.2887C25.0737 20.375 26.5 17.5387 26.5 14.5Z" fill="black"/>
</svg>
