<svg width="32" height="32" viewBox="0 0 32 32" fill="none" xmlns="http://www.w3.org/2000/svg">
<path d="M29.5001 13.0001C29.5 12.2802 29.3273 11.5708 28.9963 10.9314C28.6654 10.2921 28.1859 9.74154 27.5981 9.32592C27.0103 8.91029 26.3313 8.64176 25.6183 8.54286C24.9052 8.44396 24.1788 8.51759 23.5001 8.75755V7.00005C23.4993 6.13171 23.2473 5.28214 22.7744 4.55382C22.3016 3.8255 21.6281 3.24953 20.8353 2.8954C20.0425 2.54126 19.1641 2.42408 18.3061 2.55798C17.4482 2.69188 16.6473 3.07116 16.0001 3.65005C15.2554 2.98497 14.3108 2.5864 13.3148 2.51709C12.3188 2.44777 11.328 2.71164 10.4985 3.26717C9.66891 3.8227 9.04765 4.63833 8.73247 5.58567C8.4173 6.53302 8.42612 7.55827 8.75755 8.50005H7.00005C6.13171 8.50084 5.28214 8.75285 4.55382 9.22568C3.8255 9.69851 3.24953 10.372 2.8954 11.1648C2.54126 11.9577 2.42408 12.836 2.55798 13.694C2.69188 14.5519 3.07116 15.3528 3.65005 16.0001C2.98497 16.7447 2.5864 17.6893 2.51709 18.6853C2.44777 19.6813 2.71164 20.6721 3.26717 21.5016C3.8227 22.3312 4.63833 22.9525 5.58567 23.2676C6.53302 23.5828 7.55827 23.574 8.50005 23.2426V25.0001C8.50084 25.8684 8.75285 26.718 9.22568 27.4463C9.69851 28.1746 10.372 28.7506 11.1648 29.1047C11.9577 29.4588 12.836 29.576 13.694 29.4421C14.5519 29.3082 15.3528 28.9289 16.0001 28.3501C16.7447 29.0151 17.6893 29.4137 18.6853 29.483C19.6813 29.5523 20.6721 29.2885 21.5016 28.7329C22.3312 28.1774 22.9525 27.3618 23.2676 26.4144C23.5828 25.4671 23.574 24.4418 23.2426 23.5001H25.0001C25.8684 23.4993 26.718 23.2473 27.4463 22.7744C28.1746 22.3016 28.7506 21.6281 29.1047 20.8353C29.4588 20.0425 29.576 19.1641 29.4421 18.3061C29.3082 17.4482 28.9289 16.6473 28.3501 16.0001C29.0913 15.1768 29.5011 14.1079 29.5001 13.0001ZM25.0001 11.5001C25.3979 11.5001 25.7794 11.6581 26.0607 11.9394C26.342 12.2207 26.5001 12.6022 26.5001 13.0001C26.5001 13.3979 26.342 13.7794 26.0607 14.0607C25.7794 14.342 25.3979 14.5001 25.0001 14.5001H23.5001V13.0001C23.5001 12.6022 23.6581 12.2207 23.9394 11.9394C24.2207 11.6581 24.6022 11.5001 25.0001 11.5001ZM19.0001 5.50005C19.3979 5.50005 19.7794 5.65809 20.0607 5.93939C20.342 6.2207 20.5001 6.60223 20.5001 7.00005V13.0001C20.5001 13.3979 20.342 13.7794 20.0607 14.0607C19.7794 14.342 19.3979 14.5001 19.0001 14.5001H17.5001V7.00005C17.5001 6.60223 17.6581 6.2207 17.9394 5.93939C18.2207 5.65809 18.6022 5.50005 19.0001 5.50005ZM11.5001 7.00005C11.5001 6.60223 11.6581 6.2207 11.9394 5.93939C12.2207 5.65809 12.6022 5.50005 13.0001 5.50005C13.3979 5.50005 13.7794 5.65809 14.0607 5.93939C14.342 6.2207 14.5001 6.60223 14.5001 7.00005V8.50005H13.0001C12.6022 8.50005 12.2207 8.34202 11.9394 8.06071C11.6581 7.77941 11.5001 7.39788 11.5001 7.00005ZM7.00005 11.5001H13.0001C13.3979 11.5001 13.7794 11.6581 14.0607 11.9394C14.342 12.2207 14.5001 12.6022 14.5001 13.0001V14.5001H7.00005C6.60223 14.5001 6.2207 14.342 5.93939 14.0607C5.65809 13.7794 5.50005 13.3979 5.50005 13.0001C5.50005 12.6022 5.65809 12.2207 5.93939 11.9394C6.2207 11.6581 6.60223 11.5001 7.00005 11.5001ZM7.00005 20.5001C6.60223 20.5001 6.2207 20.342 5.93939 20.0607C5.65809 19.7794 5.50005 19.3979 5.50005 19.0001C5.50005 18.6022 5.65809 18.2207 5.93939 17.9394C6.2207 17.6581 6.60223 17.5001 7.00005 17.5001H8.50005V19.0001C8.50005 19.3979 8.34202 19.7794 8.06071 20.0607C7.77941 20.342 7.39788 20.5001 7.00005 20.5001ZM13.0001 26.5001C12.6022 26.5001 12.2207 26.342 11.9394 26.0607C11.6581 25.7794 11.5001 25.3979 11.5001 25.0001V19.0001C11.5001 18.6022 11.6581 18.2207 11.9394 17.9394C12.2207 17.6581 12.6022 17.5001 13.0001 17.5001H14.5001V25.0001C14.5001 25.3979 14.342 25.7794 14.0607 26.0607C13.7794 26.342 13.3979 26.5001 13.0001 26.5001ZM20.5001 25.0001C20.5001 25.3979 20.342 25.7794 20.0607 26.0607C19.7794 26.342 19.3979 26.5001 19.0001 26.5001C18.6022 26.5001 18.2207 26.342 17.9394 26.0607C17.6581 25.7794 17.5001 25.3979 17.5001 25.0001V23.5001H19.0001C19.3979 23.5001 19.7794 23.6581 20.0607 23.9394C20.342 24.2207 20.5001 24.6022 20.5001 25.0001ZM25.0001 20.5001H19.0001C18.6022 20.5001 18.2207 20.342 17.9394 20.0607C17.6581 19.7794 17.5001 19.3979 17.5001 19.0001V17.5001H25.0001C25.3979 17.5001 25.7794 17.6581 26.0607 17.9394C26.342 18.2207 26.5001 18.6022 26.5001 19.0001C26.5001 19.3979 26.342 19.7794 26.0607 20.0607C25.7794 20.342 25.3979 20.5001 25.0001 20.5001Z" fill="black"/>
</svg>
