<svg width="32" height="32" viewBox="0 0 32 32" fill="none" xmlns="http://www.w3.org/2000/svg">
<path d="M5 11.5001H8.7575C9.06775 12.3773 9.64232 13.1369 10.4021 13.674C11.1619 14.2112 12.0695 14.4997 13 14.4997C13.9305 14.4997 14.8381 14.2112 15.5979 13.674C16.3577 13.1369 16.9323 12.3773 17.2425 11.5001H27C27.3978 11.5001 27.7794 11.3421 28.0607 11.0608C28.342 10.7794 28.5 10.3979 28.5 10.0001C28.5 9.60227 28.342 9.22073 28.0607 8.93943C27.7794 8.65813 27.3978 8.50009 27 8.50009H17.2425C16.9323 7.62283 16.3577 6.86332 15.5979 6.32613C14.8381 5.78894 13.9305 5.50049 13 5.50049C12.0695 5.50049 11.1619 5.78894 10.4021 6.32613C9.64232 6.86332 9.06775 7.62283 8.7575 8.50009H5C4.60218 8.50009 4.22064 8.65813 3.93934 8.93943C3.65804 9.22073 3.5 9.60227 3.5 10.0001C3.5 10.3979 3.65804 10.7794 3.93934 11.0608C4.22064 11.3421 4.60218 11.5001 5 11.5001ZM13 8.50009C13.2967 8.50009 13.5867 8.58806 13.8334 8.75289C14.08 8.91771 14.2723 9.15198 14.3858 9.42607C14.4994 9.70015 14.5291 10.0018 14.4712 10.2927C14.4133 10.5837 14.2704 10.851 14.0607 11.0608C13.8509 11.2705 13.5836 11.4134 13.2926 11.4713C13.0017 11.5291 12.7001 11.4994 12.426 11.3859C12.1519 11.2724 11.9176 11.0801 11.7528 10.8334C11.588 10.5868 11.5 10.2968 11.5 10.0001C11.5 9.60227 11.658 9.22073 11.9393 8.93943C12.2206 8.65813 12.6022 8.50009 13 8.50009ZM27 20.5001H25.2425C24.9323 19.6228 24.3577 18.8633 23.5979 18.3261C22.8381 17.7889 21.9305 17.5005 21 17.5005C20.0695 17.5005 19.1619 17.7889 18.4021 18.3261C17.6423 18.8633 17.0677 19.6228 16.7575 20.5001H5C4.60218 20.5001 4.22064 20.6581 3.93934 20.9394C3.65804 21.2207 3.5 21.6023 3.5 22.0001C3.5 22.3979 3.65804 22.7794 3.93934 23.0607C4.22064 23.3421 4.60218 23.5001 5 23.5001H16.7575C17.0677 24.3773 17.6423 25.1369 18.4021 25.674C19.1619 26.2112 20.0695 26.4997 21 26.4997C21.9305 26.4997 22.8381 26.2112 23.5979 25.674C24.3577 25.1369 24.9323 24.3773 25.2425 23.5001H27C27.3978 23.5001 27.7794 23.3421 28.0607 23.0607C28.342 22.7794 28.5 22.3979 28.5 22.0001C28.5 21.6023 28.342 21.2207 28.0607 20.9394C27.7794 20.6581 27.3978 20.5001 27 20.5001ZM21 23.5001C20.7033 23.5001 20.4133 23.4121 20.1666 23.2473C19.92 23.0825 19.7277 22.8482 19.6142 22.5741C19.5007 22.3 19.4709 21.9984 19.5288 21.7075C19.5867 21.4165 19.7296 21.1492 19.9393 20.9394C20.1491 20.7297 20.4164 20.5868 20.7074 20.5289C20.9983 20.471 21.2999 20.5007 21.574 20.6143C21.8481 20.7278 22.0824 20.9201 22.2472 21.1667C22.412 21.4134 22.5 21.7034 22.5 22.0001C22.5 22.3979 22.342 22.7794 22.0607 23.0607C21.7794 23.3421 21.3978 23.5001 21 23.5001Z" fill="black"/>
</svg>
