<svg width="32" height="32" viewBox="0 0 32 32" fill="none" xmlns="http://www.w3.org/2000/svg">
<path d="M10.5 17C10.4999 17.7537 10.2566 18.4872 9.80612 19.0914C9.35568 19.6957 8.72223 20.1384 7.99998 20.3538V27C7.99998 27.2652 7.89462 27.5196 7.70709 27.7071C7.51955 27.8946 7.2652 28 6.99998 28C6.73476 28 6.48041 27.8946 6.29287 27.7071C6.10534 27.5196 5.99998 27.2652 5.99998 27V20.3538C5.27795 20.1382 4.64476 19.6954 4.19455 19.0912C3.74434 18.4869 3.50116 17.7535 3.50116 17C3.50116 16.2465 3.74434 15.5131 4.19455 14.9088C4.64476 14.3046 5.27795 13.8618 5.99998 13.6462V5C5.99998 4.73478 6.10534 4.48043 6.29287 4.29289C6.48041 4.10536 6.73476 4 6.99998 4C7.2652 4 7.51955 4.10536 7.70709 4.29289C7.89462 4.48043 7.99998 4.73478 7.99998 5V13.6462C8.72223 13.8616 9.35568 14.3043 9.80612 14.9086C10.2566 15.5128 10.4999 16.2463 10.5 17ZM17 7.64625V5C17 4.73478 16.8946 4.48043 16.7071 4.29289C16.5196 4.10536 16.2652 4 16 4C15.7348 4 15.4804 4.10536 15.2929 4.29289C15.1053 4.48043 15 4.73478 15 5V7.64625C14.2779 7.86179 13.6448 8.30461 13.1945 8.90884C12.7443 9.51308 12.5012 10.2465 12.5012 11C12.5012 11.7535 12.7443 12.4869 13.1945 13.0912C13.6448 13.6954 14.2779 14.1382 15 14.3538V27C15 27.2652 15.1053 27.5196 15.2929 27.7071C15.4804 27.8946 15.7348 28 16 28C16.2652 28 16.5196 27.8946 16.7071 27.7071C16.8946 27.5196 17 27.2652 17 27V14.3538C17.722 14.1382 18.3552 13.6954 18.8054 13.0912C19.2556 12.4869 19.4988 11.7535 19.4988 11C19.4988 10.2465 19.2556 9.51308 18.8054 8.90884C18.3552 8.30461 17.722 7.86179 17 7.64625ZM26 17.6462V5C26 4.73478 25.8946 4.48043 25.7071 4.29289C25.5196 4.10536 25.2652 4 25 4C24.7348 4 24.4804 4.10536 24.2929 4.29289C24.1053 4.48043 24 4.73478 24 5V17.6462C23.2779 17.8618 22.6448 18.3046 22.1945 18.9088C21.7443 19.5131 21.5012 20.2465 21.5012 21C21.5012 21.7535 21.7443 22.4869 22.1945 23.0912C22.6448 23.6954 23.2779 24.1382 24 24.3538V27C24 27.2652 24.1053 27.5196 24.2929 27.7071C24.4804 27.8946 24.7348 28 25 28C25.2652 28 25.5196 27.8946 25.7071 27.7071C25.8946 27.5196 26 27.2652 26 27V24.3538C26.722 24.1382 27.3552 23.6954 27.8054 23.0912C28.2556 22.4869 28.4988 21.7535 28.4988 21C28.4988 20.2465 28.2556 19.5131 27.8054 18.9088C27.3552 18.3046 26.722 17.8618 26 17.6462Z" fill="black"/>
</svg>
