<svg width="32" height="32" viewBox="0 0 32 32" fill="none" xmlns="http://www.w3.org/2000/svg">
<path d="M8.50003 12.7575V5C8.50003 4.60218 8.34199 4.22064 8.06069 3.93934C7.77939 3.65804 7.39785 3.5 7.00003 3.5C6.6022 3.5 6.22067 3.65804 5.93937 3.93934C5.65806 4.22064 5.50003 4.60218 5.50003 5V12.7575C4.62277 13.0677 3.86326 13.6423 3.32607 14.4021C2.78888 15.1619 2.50043 16.0695 2.50043 17C2.50043 17.9305 2.78888 18.8381 3.32607 19.5979C3.86326 20.3577 4.62277 20.9323 5.50003 21.2425V27C5.50003 27.3978 5.65806 27.7794 5.93937 28.0607C6.22067 28.342 6.6022 28.5 7.00003 28.5C7.39785 28.5 7.77939 28.342 8.06069 28.0607C8.34199 27.7794 8.50003 27.3978 8.50003 27V21.2425C9.37729 20.9323 10.1368 20.3577 10.674 19.5979C11.2112 18.8381 11.4996 17.9305 11.4996 17C11.4996 16.0695 11.2112 15.1619 10.674 14.4021C10.1368 13.6423 9.37729 13.0677 8.50003 12.7575ZM7.00003 18.5C6.70336 18.5 6.41335 18.412 6.16667 18.2472C5.92 18.0824 5.72774 17.8481 5.61421 17.574C5.50068 17.2999 5.47097 16.9983 5.52885 16.7074C5.58673 16.4164 5.72959 16.1491 5.93937 15.9393C6.14915 15.7296 6.41642 15.5867 6.70739 15.5288C6.99837 15.4709 7.29997 15.5006 7.57405 15.6142C7.84814 15.7277 8.08241 15.92 8.24723 16.1666C8.41206 16.4133 8.50003 16.7033 8.50003 17C8.50003 17.3978 8.34199 17.7794 8.06069 18.0607C7.77939 18.342 7.39785 18.5 7.00003 18.5ZM20.5 11C20.4987 10.0698 20.2097 9.16268 19.6726 8.40314C19.1355 7.6436 18.3767 7.06879 17.5 6.7575V5C17.5 4.60218 17.342 4.22064 17.0607 3.93934C16.7794 3.65804 16.3979 3.5 16 3.5C15.6022 3.5 15.2207 3.65804 14.9394 3.93934C14.6581 4.22064 14.5 4.60218 14.5 5V6.7575C13.6228 7.06775 12.8633 7.64232 12.3261 8.4021C11.7889 9.16187 11.5004 10.0695 11.5004 11C11.5004 11.9305 11.7889 12.8381 12.3261 13.5979C12.8633 14.3577 13.6228 14.9323 14.5 15.2425V27C14.5 27.3978 14.6581 27.7794 14.9394 28.0607C15.2207 28.342 15.6022 28.5 16 28.5C16.3979 28.5 16.7794 28.342 17.0607 28.0607C17.342 27.7794 17.5 27.3978 17.5 27V15.2425C18.3767 14.9312 19.1355 14.3564 19.6726 13.5969C20.2097 12.8373 20.4987 11.9302 20.5 11ZM16 12.5C15.7034 12.5 15.4133 12.412 15.1667 12.2472C14.92 12.0824 14.7277 11.8481 14.6142 11.574C14.5007 11.2999 14.471 10.9983 14.5289 10.7074C14.5867 10.4164 14.7296 10.1491 14.9394 9.93934C15.1491 9.72956 15.4164 9.5867 15.7074 9.52882C15.9984 9.47094 16.3 9.50065 16.5741 9.61418C16.8481 9.72771 17.0824 9.91997 17.2472 10.1666C17.4121 10.4133 17.5 10.7033 17.5 11C17.5 11.3978 17.342 11.7794 17.0607 12.0607C16.7794 12.342 16.3979 12.5 16 12.5ZM29.5 21C29.4987 20.0698 29.2097 19.1627 28.6726 18.4031C28.1355 17.6436 27.3766 17.0688 26.5 16.7575V5C26.5 4.60218 26.342 4.22064 26.0607 3.93934C25.7794 3.65804 25.3979 3.5 25 3.5C24.6022 3.5 24.2207 3.65804 23.9394 3.93934C23.6581 4.22064 23.5 4.60218 23.5 5V16.7575C22.6228 17.0677 21.8633 17.6423 21.3261 18.4021C20.7889 19.1619 20.5004 20.0695 20.5004 21C20.5004 21.9305 20.7889 22.8381 21.3261 23.5979C21.8633 24.3577 22.6228 24.9323 23.5 25.2425V27C23.5 27.3978 23.6581 27.7794 23.9394 28.0607C24.2207 28.342 24.6022 28.5 25 28.5C25.3979 28.5 25.7794 28.342 26.0607 28.0607C26.342 27.7794 26.5 27.3978 26.5 27V25.2425C27.3766 24.9312 28.1355 24.3564 28.6726 23.5969C29.2097 22.8373 29.4987 21.9302 29.5 21ZM25 22.5C24.7034 22.5 24.4133 22.412 24.1667 22.2472C23.92 22.0824 23.7277 21.8481 23.6142 21.574C23.5007 21.2999 23.471 20.9983 23.5289 20.7074C23.5867 20.4164 23.7296 20.1491 23.9394 19.9393C24.1491 19.7296 24.4164 19.5867 24.7074 19.5288C24.9984 19.4709 25.3 19.5007 25.5741 19.6142C25.8481 19.7277 26.0824 19.92 26.2472 20.1666C26.4121 20.4133 26.5 20.7033 26.5 21C26.5 21.3978 26.342 21.7794 26.0607 22.0607C25.7794 22.342 25.3979 22.5 25 22.5Z" fill="black"/>
</svg>
