<svg width="32" height="32" viewBox="0 0 32 32" fill="none" xmlns="http://www.w3.org/2000/svg">
<path d="M23 5.5H9C8.33696 5.5 7.70107 5.76339 7.23223 6.23223C6.76339 6.70107 6.5 7.33696 6.5 8V24C6.5 24.663 6.76339 25.2989 7.23223 25.7678C7.70107 26.2366 8.33696 26.5 9 26.5H23C23.663 26.5 24.2989 26.2366 24.7678 25.7678C25.2366 25.2989 25.5 24.663 25.5 24V8C25.5 7.33696 25.2366 6.70107 24.7678 6.23223C24.2989 5.76339 23.663 5.5 23 5.5ZM22.5 23.5H9.5V8.5H22.5V23.5ZM30.5 7V25C30.5 25.3978 30.342 25.7794 30.0607 26.0607C29.7794 26.342 29.3978 26.5 29 26.5C28.6022 26.5 28.2206 26.342 27.9393 26.0607C27.658 25.7794 27.5 25.3978 27.5 25V7C27.5 6.60218 27.658 6.22064 27.9393 5.93934C28.2206 5.65804 28.6022 5.5 29 5.5C29.3978 5.5 29.7794 5.65804 30.0607 5.93934C30.342 6.22064 30.5 6.60218 30.5 7ZM4.5 7V25C4.5 25.3978 4.34196 25.7794 4.06066 26.0607C3.77936 26.342 3.39782 26.5 3 26.5C2.60218 26.5 2.22064 26.342 1.93934 26.0607C1.65804 25.7794 1.5 25.3978 1.5 25V7C1.5 6.60218 1.65804 6.22064 1.93934 5.93934C2.22064 5.65804 2.60218 5.5 3 5.5C3.39782 5.5 3.77936 5.65804 4.06066 5.93934C4.34196 6.22064 4.5 6.60218 4.5 7Z" fill="black"/>
</svg>
