<svg width="32" height="32" viewBox="0 0 32 32" fill="none" xmlns="http://www.w3.org/2000/svg">
<path d="M5 10.7501H9.325C9.49714 11.5978 9.95705 12.36 10.6268 12.9074C11.2966 13.4548 12.135 13.7539 13 13.7539C13.865 13.7539 14.7034 13.4548 15.3732 12.9074C16.043 12.36 16.5029 11.5978 16.675 10.7501H27C27.1989 10.7501 27.3897 10.6711 27.5303 10.5304C27.671 10.3898 27.75 10.199 27.75 10.0001C27.75 9.80118 27.671 9.61042 27.5303 9.46977C27.3897 9.32912 27.1989 9.2501 27 9.2501H16.675C16.5029 8.40238 16.043 7.64024 15.3732 7.09281C14.7034 6.54539 13.865 6.24634 13 6.24634C12.135 6.24634 11.2966 6.54539 10.6268 7.09281C9.95705 7.64024 9.49714 8.40238 9.325 9.2501H5C4.80109 9.2501 4.61032 9.32912 4.46967 9.46977C4.32902 9.61042 4.25 9.80118 4.25 10.0001C4.25 10.199 4.32902 10.3898 4.46967 10.5304C4.61032 10.6711 4.80109 10.7501 5 10.7501ZM13 7.7501C13.445 7.7501 13.88 7.88206 14.25 8.12929C14.62 8.37652 14.9084 8.72793 15.0787 9.13906C15.249 9.55019 15.2936 10.0026 15.2068 10.4391C15.12 10.8755 14.9057 11.2764 14.591 11.5911C14.2763 11.9058 13.8754 12.12 13.439 12.2069C13.0025 12.2937 12.5501 12.2491 12.139 12.0788C11.7278 11.9085 11.3764 11.6201 11.1292 11.2501C10.882 10.8801 10.75 10.4451 10.75 10.0001C10.75 9.40336 10.9871 8.83106 11.409 8.40911C11.831 7.98715 12.4033 7.7501 13 7.7501ZM27 21.2501H24.675C24.5029 20.4024 24.043 19.6402 23.3732 19.0928C22.7034 18.5454 21.865 18.2463 21 18.2463C20.135 18.2463 19.2966 18.5454 18.6268 19.0928C17.957 19.6402 17.4971 20.4024 17.325 21.2501H5C4.80109 21.2501 4.61032 21.3291 4.46967 21.4698C4.32902 21.6104 4.25 21.8012 4.25 22.0001C4.25 22.199 4.32902 22.3898 4.46967 22.5304C4.61032 22.6711 4.80109 22.7501 5 22.7501H17.325C17.4971 23.5978 17.957 24.36 18.6268 24.9074C19.2966 25.4548 20.135 25.7539 21 25.7539C21.865 25.7539 22.7034 25.4548 23.3732 24.9074C24.043 24.36 24.5029 23.5978 24.675 22.7501H27C27.1989 22.7501 27.3897 22.6711 27.5303 22.5304C27.671 22.3898 27.75 22.199 27.75 22.0001C27.75 21.8012 27.671 21.6104 27.5303 21.4698C27.3897 21.3291 27.1989 21.2501 27 21.2501ZM21 24.2501C20.555 24.2501 20.12 24.1181 19.75 23.8709C19.38 23.6237 19.0916 23.2723 18.9213 22.8611C18.751 22.45 18.7064 21.9976 18.7932 21.5611C18.8801 21.1247 19.0943 20.7238 19.409 20.4091C19.7237 20.0944 20.1246 19.8801 20.561 19.7933C20.9975 19.7065 21.4499 19.7511 21.861 19.9214C22.2722 20.0917 22.6236 20.3801 22.8708 20.7501C23.118 21.1201 23.25 21.5551 23.25 22.0001C23.25 22.5968 23.0129 23.1691 22.591 23.5911C22.169 24.013 21.5967 24.2501 21 24.2501Z" fill="black"/>
</svg>
