<svg width="32" height="32" viewBox="0 0 32 32" fill="none" xmlns="http://www.w3.org/2000/svg">
<path d="M21.865 19.5C20.5788 21.7237 18.4412 23 16 23C13.5588 23 11.4212 21.725 10.1337 19.5C10.0681 19.3862 10.0255 19.2606 10.0083 19.1304C9.99122 19.0002 9.99991 18.8679 10.0339 18.741C10.0679 18.6141 10.1266 18.4952 10.2066 18.391C10.2865 18.2868 10.3862 18.1994 10.5 18.1337C10.6138 18.0681 10.7393 18.0255 10.8696 18.0083C10.9998 17.9912 11.1321 17.9999 11.259 18.0339C11.3858 18.0679 11.5048 18.1266 11.609 18.2065C11.7132 18.2865 11.8006 18.3862 11.8663 18.5C12.7987 20.1137 14.2662 21 16 21C17.7338 21 19.2013 20.1125 20.135 18.5C20.1975 18.3805 20.2836 18.2748 20.388 18.1895C20.4923 18.1041 20.6129 18.0407 20.7425 18.0031C20.872 17.9655 21.0078 17.9545 21.1417 17.9708C21.2756 17.9871 21.4048 18.0302 21.5215 18.0977C21.6383 18.1652 21.7402 18.2556 21.8211 18.3635C21.902 18.4714 21.9603 18.5946 21.9924 18.7256C22.0245 18.8566 22.0297 18.9927 22.0078 19.1258C21.9859 19.2589 21.9374 19.3862 21.865 19.5ZM29 16C29.0006 17.2945 28.8085 18.582 28.43 19.82C28.3818 19.9763 28.2959 20.1183 28.18 20.2337L20.2337 28.18C20.119 28.2961 19.9773 28.382 19.8213 28.43C17.2058 29.2343 14.4032 29.1928 11.8126 28.3114C9.2221 27.43 6.97575 25.7537 5.39353 23.5211C3.81131 21.2886 2.97392 18.6137 3.00062 15.8774C3.02732 13.1412 3.91675 10.4831 5.54224 8.28189C7.16772 6.08064 9.44636 4.44843 12.0536 3.61775C14.6608 2.78707 17.4637 2.80029 20.063 3.6555C22.6623 4.51072 24.9254 6.16434 26.5301 8.38082C28.1348 10.5973 28.9991 13.2636 29 16ZM27 16C26.9971 13.6987 26.2717 11.4565 24.9261 9.58964C23.5805 7.72281 21.6827 6.32564 19.5004 5.59531C17.3181 4.86498 14.9616 4.83836 12.7634 5.5192C10.5651 6.20005 8.63622 7.55399 7.24879 9.38995C5.86135 11.2259 5.08547 13.4512 5.03063 15.7518C4.97579 18.0524 5.64475 20.3121 6.94312 22.2121C8.2415 24.1121 10.1037 25.5564 12.267 26.3412C14.4303 27.126 16.7854 27.2117 19 26.5862L26.5863 19C26.8617 18.0238 27.001 17.0143 27 16ZM11.5 15C11.7967 15 12.0867 14.912 12.3334 14.7472C12.58 14.5824 12.7723 14.3481 12.8858 14.074C12.9994 13.7999 13.0291 13.4983 12.9712 13.2073C12.9133 12.9164 12.7704 12.6491 12.5607 12.4393C12.3509 12.2295 12.0836 12.0867 11.7926 12.0288C11.5017 11.9709 11.2001 12.0006 10.926 12.1142C10.6519 12.2277 10.4176 12.4199 10.2528 12.6666C10.088 12.9133 10 13.2033 10 13.5C10 13.8978 10.158 14.2793 10.4393 14.5606C10.7206 14.8419 11.1022 15 11.5 15ZM20.5 12C20.2033 12 19.9133 12.0879 19.6666 12.2528C19.42 12.4176 19.2277 12.6519 19.1142 12.9259C19.0007 13.2 18.9709 13.5016 19.0288 13.7926C19.0867 14.0836 19.2296 14.3509 19.4393 14.5606C19.6491 14.7704 19.9164 14.9133 20.2074 14.9712C20.4983 15.029 20.7999 14.9993 21.074 14.8858C21.3481 14.7723 21.5824 14.58 21.7472 14.3333C21.912 14.0867 22 13.7966 22 13.5C22 13.1021 21.842 12.7206 21.5607 12.4393C21.2794 12.158 20.8978 12 20.5 12Z" fill="black"/>
</svg>
