<svg width="32" height="32" viewBox="0 0 32 32" fill="none" xmlns="http://www.w3.org/2000/svg">
<path opacity="0.08" d="M28 16C28.0013 17.1951 27.8239 18.3836 27.4737 19.5262L19.5275 27.4737C17.1132 28.2162 14.5262 28.178 12.1349 27.3644C9.74362 26.5508 7.67004 25.0035 6.2095 22.9426C4.74896 20.8818 3.97595 18.4127 4.00057 15.8869C4.02519 13.3612 4.84619 10.9076 6.34663 8.87562C7.84707 6.84368 9.95043 5.33701 12.3571 4.57021C14.7638 3.80342 17.3511 3.8156 19.7504 4.60504C22.1498 5.39447 24.2389 6.92089 25.7201 8.96688C27.2013 11.0129 27.9992 13.4741 28 16Z" fill="black"/>
<path d="M21.865 19.5C20.5788 21.7237 18.4412 23 16 23C13.5588 23 11.4212 21.725 10.135 19.5C10.0626 19.3862 10.0141 19.2589 9.99217 19.1258C9.97028 18.9927 9.97554 18.8566 10.0076 18.7256C10.0397 18.5946 10.098 18.4714 10.1789 18.3635C10.2598 18.2556 10.3617 18.1652 10.4785 18.0977C10.5952 18.0302 10.7244 17.9871 10.8583 17.9708C10.9922 17.9545 11.128 17.9655 11.2575 18.0031C11.3871 18.0407 11.5077 18.1041 11.612 18.1895C11.7164 18.2748 11.8025 18.3805 11.865 18.5C12.7987 20.1137 14.2662 21 16 21C17.7338 21 19.2013 20.1125 20.135 18.5C20.1975 18.3805 20.2836 18.2748 20.388 18.1895C20.4923 18.1041 20.6129 18.0407 20.7425 18.0031C20.872 17.9655 21.0078 17.9545 21.1417 17.9708C21.2756 17.9871 21.4048 18.0302 21.5215 18.0977C21.6383 18.1652 21.7402 18.2556 21.8211 18.3635C21.902 18.4714 21.9603 18.5946 21.9924 18.7256C22.0245 18.8566 22.0297 18.9927 22.0078 19.1258C21.9859 19.2589 21.9374 19.3862 21.865 19.5ZM29 16C29.0006 17.2945 28.8085 18.582 28.43 19.82C28.3818 19.9763 28.2959 20.1183 28.18 20.2337L20.2337 28.18C20.119 28.2961 19.9773 28.382 19.8213 28.43C17.2058 29.2343 14.4032 29.1928 11.8126 28.3114C9.2221 27.43 6.97575 25.7537 5.39353 23.5211C3.81131 21.2886 2.97392 18.6137 3.00062 15.8774C3.02732 13.1412 3.91675 10.4831 5.54224 8.28189C7.16772 6.08064 9.44636 4.44843 12.0536 3.61775C14.6608 2.78707 17.4637 2.80029 20.063 3.6555C22.6623 4.51072 24.9254 6.16434 26.5301 8.38082C28.1348 10.5973 28.9991 13.2636 29 16ZM27 16C26.9971 13.6987 26.2717 11.4565 24.9261 9.58964C23.5805 7.72281 21.6827 6.32564 19.5004 5.59531C17.3181 4.86498 14.9616 4.83836 12.7634 5.5192C10.5651 6.20005 8.63622 7.55399 7.24879 9.38995C5.86135 11.2259 5.08547 13.4512 5.03063 15.7518C4.97579 18.0524 5.64475 20.3121 6.94312 22.2121C8.2415 24.1121 10.1037 25.5564 12.267 26.3412C14.4303 27.126 16.7854 27.2117 19 26.5862L26.5863 19C26.8617 18.0238 27.001 17.0143 27 16ZM11.5 15C11.7967 15 12.0867 14.912 12.3334 14.7472C12.58 14.5824 12.7723 14.3481 12.8858 14.074C12.9994 13.7999 13.0291 13.4983 12.9712 13.2073C12.9133 12.9164 12.7704 12.6491 12.5607 12.4393C12.3509 12.2295 12.0836 12.0867 11.7926 12.0288C11.5017 11.9709 11.2001 12.0006 10.926 12.1142C10.6519 12.2277 10.4176 12.4199 10.2528 12.6666C10.088 12.9133 10 13.2033 10 13.5C10 13.8978 10.158 14.2793 10.4393 14.5606C10.7206 14.8419 11.1022 15 11.5 15ZM20.5 12C20.2033 12 19.9133 12.0879 19.6666 12.2528C19.42 12.4176 19.2277 12.6519 19.1142 12.9259C19.0007 13.2 18.9709 13.5016 19.0288 13.7926C19.0867 14.0836 19.2296 14.3509 19.4393 14.5606C19.6491 14.7704 19.9164 14.9133 20.2074 14.9712C20.4983 15.029 20.7999 14.9993 21.074 14.8858C21.3481 14.7723 21.5824 14.58 21.7472 14.3333C21.912 14.0867 22 13.7966 22 13.5C22 13.1021 21.842 12.7206 21.5607 12.4393C21.2794 12.158 20.8978 12 20.5 12Z" fill="black"/>
</svg>
