<svg width="32" height="32" viewBox="0 0 32 32" fill="none" xmlns="http://www.w3.org/2000/svg">
<path d="M22.2988 19.75C20.9238 22.1325 18.625 23.5 16 23.5C13.375 23.5 11.08 22.1338 9.70126 19.75C9.51092 19.4061 9.4632 19.0012 9.56836 18.6224C9.67352 18.2436 9.92316 17.9213 10.2636 17.7247C10.604 17.5281 11.0079 17.4731 11.3885 17.5713C11.7692 17.6695 12.096 17.9132 12.2988 18.25C12.785 19.0912 13.9125 20.5 16 20.5C18.0875 20.5 19.215 19.09 19.7013 18.25C19.7978 18.0756 19.928 17.9222 20.0845 17.7988C20.2409 17.6753 20.4204 17.5843 20.6124 17.531C20.8044 17.4777 21.0051 17.4632 21.2028 17.4883C21.4005 17.5134 21.5912 17.5777 21.7638 17.6773C21.9364 17.777 22.0874 17.9101 22.208 18.0687C22.3285 18.2274 22.4163 18.4085 22.4661 18.6014C22.5159 18.7944 22.5267 18.9954 22.498 19.1926C22.4693 19.3898 22.4015 19.5793 22.2988 19.75ZM29.5 16C29.5 18.67 28.7082 21.2801 27.2248 23.5002C25.7414 25.7203 23.633 27.4506 21.1662 28.4724C18.6994 29.4942 15.985 29.7615 13.3663 29.2406C10.7475 28.7197 8.34207 27.434 6.45406 25.5459C4.56606 23.6579 3.28031 21.2525 2.7594 18.6337C2.2385 16.015 2.50585 13.3006 3.52763 10.8338C4.54942 8.36697 6.27974 6.25856 8.49981 4.77516C10.7199 3.29176 13.33 2.5 16 2.5C19.5792 2.50397 23.0107 3.92756 25.5416 6.45844C28.0724 8.98932 29.496 12.4208 29.5 16ZM26.5 16C26.5 13.9233 25.8842 11.8932 24.7304 10.1665C23.5767 8.4398 21.9368 7.09399 20.0182 6.29926C18.0996 5.50454 15.9884 5.29661 13.9516 5.70175C11.9148 6.1069 10.0438 7.10693 8.57538 8.57538C7.10693 10.0438 6.10691 11.9148 5.70176 13.9516C5.29662 15.9884 5.50455 18.0996 6.29927 20.0182C7.09399 21.9368 8.4398 23.5767 10.1665 24.7304C11.8932 25.8842 13.9233 26.5 16 26.5C18.7839 26.497 21.4529 25.3898 23.4213 23.4213C25.3898 21.4528 26.497 18.7839 26.5 16ZM11.5 15.5C11.8956 15.5 12.2822 15.3827 12.6111 15.1629C12.94 14.9432 13.1964 14.6308 13.3478 14.2654C13.4991 13.8999 13.5387 13.4978 13.4616 13.1098C13.3844 12.7219 13.1939 12.3655 12.9142 12.0858C12.6345 11.8061 12.2781 11.6156 11.8902 11.5384C11.5022 11.4613 11.1001 11.5009 10.7346 11.6522C10.3692 11.8036 10.0568 12.06 9.83707 12.3889C9.6173 12.7178 9.50001 13.1044 9.50001 13.5C9.50001 14.0304 9.71072 14.5391 10.0858 14.9142C10.4609 15.2893 10.9696 15.5 11.5 15.5ZM20.5 11.5C20.1044 11.5 19.7178 11.6173 19.3889 11.8371C19.06 12.0568 18.8036 12.3692 18.6522 12.7346C18.5009 13.1001 18.4613 13.5022 18.5384 13.8902C18.6156 14.2781 18.8061 14.6345 19.0858 14.9142C19.3655 15.1939 19.7219 15.3844 20.1098 15.4616C20.4978 15.5387 20.8999 15.4991 21.2654 15.3478C21.6308 15.1964 21.9432 14.94 22.1629 14.6111C22.3827 14.2822 22.5 13.8956 22.5 13.5C22.5 12.9696 22.2893 12.4609 21.9142 12.0858C21.5391 11.7107 21.0304 11.5 20.5 11.5Z" fill="black"/>
</svg>
