<svg width="32" height="32" viewBox="0 0 32 32" fill="none" xmlns="http://www.w3.org/2000/svg">
<path d="M11.5 19.5C11.1044 19.5 10.7178 19.3827 10.3889 19.1629C10.06 18.9432 9.80362 18.6308 9.65225 18.2654C9.50087 17.8999 9.46127 17.4978 9.53844 17.1098C9.61561 16.7219 9.80609 16.3655 10.0858 16.0858C10.3655 15.8061 10.7219 15.6156 11.1098 15.5384C11.4978 15.4613 11.8999 15.5009 12.2654 15.6522C12.6308 15.8036 12.9432 16.06 13.1629 16.3889C13.3827 16.7178 13.5 17.1044 13.5 17.5C13.5 18.0304 13.2893 18.5391 12.9142 18.9142C12.5391 19.2893 12.0304 19.5 11.5 19.5ZM20.5 15.5C20.1044 15.5 19.7178 15.6173 19.3889 15.8371C19.06 16.0568 18.8036 16.3692 18.6522 16.7346C18.5009 17.1001 18.4613 17.5022 18.5384 17.8902C18.6156 18.2781 18.8061 18.6345 19.0858 18.9142C19.3655 19.1939 19.7219 19.3844 20.1098 19.4616C20.4978 19.5387 20.8999 19.4991 21.2654 19.3478C21.6308 19.1964 21.9432 18.94 22.1629 18.6111C22.3827 18.2822 22.5 17.8956 22.5 17.5C22.5 16.9696 22.2893 16.4609 21.9142 16.0858C21.5391 15.7107 21.0304 15.5 20.5 15.5ZM29.5 16C29.5 18.67 28.7082 21.2801 27.2248 23.5002C25.7414 25.7203 23.633 27.4506 21.1662 28.4724C18.6994 29.4942 15.985 29.7615 13.3663 29.2406C10.7475 28.7197 8.34207 27.434 6.45406 25.5459C4.56606 23.6579 3.28031 21.2525 2.7594 18.6337C2.2385 16.015 2.50585 13.3006 3.52763 10.8338C4.54942 8.36697 6.27974 6.25856 8.49981 4.77516C10.7199 3.29176 13.33 2.5 16 2.5C19.5792 2.50397 23.0107 3.92756 25.5416 6.45844C28.0724 8.98932 29.496 12.4208 29.5 16ZM26.5 16C26.5 13.9233 25.8842 11.8932 24.7304 10.1665C23.5767 8.4398 21.9368 7.09399 20.0182 6.29926C18.0996 5.50454 15.9884 5.29661 13.9516 5.70175C11.9148 6.1069 10.0438 7.10693 8.57538 8.57538C7.10693 10.0438 6.10691 11.9148 5.70176 13.9516C5.29662 15.9884 5.50455 18.0996 6.29927 20.0182C7.09399 21.9368 8.4398 23.5767 10.1665 24.7304C11.8932 25.8842 13.9233 26.5 16 26.5C18.7839 26.497 21.4529 25.3898 23.4213 23.4213C25.3898 21.4528 26.497 18.7839 26.5 16ZM10.6675 12.75L15.1675 15.75C15.414 15.9145 15.7037 16.0022 16 16.0022C16.2963 16.0022 16.586 15.9145 16.8325 15.75L21.3325 12.75C21.664 12.5292 21.8943 12.1858 21.9726 11.7952C22.0509 11.4047 21.9708 10.999 21.75 10.6675C21.5292 10.336 21.1858 10.1057 20.7952 10.0275C20.4047 9.94915 19.999 10.0292 19.6675 10.25L16 12.6975L12.3325 10.25C12.001 10.0292 11.5953 9.94915 11.2048 10.0275C10.8142 10.1057 10.4708 10.336 10.25 10.6675C10.0292 10.999 9.94916 11.4047 10.0275 11.7952C10.1058 12.1858 10.336 12.5292 10.6675 12.75ZM19.25 20.89C18.2657 20.3083 17.1433 20.0014 16 20.0014C14.8567 20.0014 13.7343 20.3083 12.75 20.89C12.5707 20.9838 12.4123 21.1128 12.2842 21.2694C12.1561 21.426 12.0611 21.6069 12.0047 21.8012C11.9483 21.9955 11.9318 22.1992 11.9562 22.4C11.9806 22.6008 12.0454 22.7946 12.1466 22.9698C12.2479 23.1449 12.3835 23.2978 12.5454 23.4192C12.7072 23.5405 12.8919 23.6279 13.0884 23.6761C13.2849 23.7242 13.4891 23.7321 13.6887 23.6992C13.8884 23.6664 14.0793 23.5935 14.25 23.485C14.7783 23.1668 15.3833 22.9986 16 22.9986C16.6167 22.9986 17.2218 23.1668 17.75 23.485C17.9207 23.5935 18.1116 23.6664 18.3113 23.6992C18.5109 23.7321 18.7151 23.7242 18.9116 23.6761C19.1081 23.6279 19.2928 23.5405 19.4547 23.4192C19.6165 23.2978 19.7521 23.1449 19.8534 22.9698C19.9546 22.7946 20.0194 22.6008 20.0438 22.4C20.0682 22.1992 20.0517 21.9955 19.9953 21.8012C19.939 21.6069 19.8439 21.426 19.7158 21.2694C19.5877 21.1128 19.4293 20.9838 19.25 20.89Z" fill="black"/>
</svg>
