<svg width="32" height="32" viewBox="0 0 32 32" fill="none" xmlns="http://www.w3.org/2000/svg">
<path d="M16 2.5C13.33 2.5 10.7199 3.29176 8.49981 4.77516C6.27974 6.25856 4.54942 8.36697 3.52763 10.8338C2.50585 13.3006 2.2385 16.015 2.7594 18.6337C3.28031 21.2525 4.56606 23.6579 6.45406 25.5459C8.34207 27.434 10.7475 28.7197 13.3663 29.2406C15.985 29.7615 18.6994 29.4942 21.1662 28.4724C23.633 27.4506 25.7414 25.7203 27.2248 23.5002C28.7082 21.2801 29.5 18.67 29.5 16C29.496 12.4208 28.0724 8.98932 25.5416 6.45844C23.0107 3.92756 19.5792 2.50397 16 2.5ZM16 26.5C13.9233 26.5 11.8932 25.8842 10.1665 24.7304C8.4398 23.5767 7.09399 21.9368 6.29927 20.0182C5.50455 18.0996 5.29662 15.9884 5.70176 13.9516C6.10691 11.9148 7.10693 10.0438 8.57538 8.57538C10.0438 7.10693 11.9148 6.1069 13.9516 5.70175C15.9884 5.29661 18.0996 5.50454 20.0182 6.29926C21.9368 7.09399 23.5767 8.4398 24.7304 10.1665C25.8842 11.8932 26.5 13.9233 26.5 16C26.497 18.7839 25.3898 21.4528 23.4213 23.4213C21.4529 25.3898 18.7839 26.497 16 26.5ZM22.5 20C22.5 20.3978 22.342 20.7794 22.0607 21.0607C21.7794 21.342 21.3978 21.5 21 21.5H11C10.6022 21.5 10.2207 21.342 9.93935 21.0607C9.65804 20.7794 9.50001 20.3978 9.50001 20C9.50001 19.6022 9.65804 19.2206 9.93935 18.9393C10.2207 18.658 10.6022 18.5 11 18.5H21C21.3978 18.5 21.7794 18.658 22.0607 18.9393C22.342 19.2206 22.5 19.6022 22.5 20ZM9.50001 13.5C9.50001 13.1044 9.6173 12.7178 9.83707 12.3889C10.0568 12.06 10.3692 11.8036 10.7346 11.6522C11.1001 11.5009 11.5022 11.4613 11.8902 11.5384C12.2781 11.6156 12.6345 11.8061 12.9142 12.0858C13.1939 12.3655 13.3844 12.7219 13.4616 13.1098C13.5387 13.4978 13.4991 13.8999 13.3478 14.2654C13.1964 14.6308 12.94 14.9432 12.6111 15.1629C12.2822 15.3827 11.8956 15.5 11.5 15.5C10.9696 15.5 10.4609 15.2893 10.0858 14.9142C9.71072 14.5391 9.50001 14.0304 9.50001 13.5ZM22.5 13.5C22.5 13.8956 22.3827 14.2822 22.1629 14.6111C21.9432 14.94 21.6308 15.1964 21.2654 15.3478C20.8999 15.4991 20.4978 15.5387 20.1098 15.4616C19.7219 15.3844 19.3655 15.1939 19.0858 14.9142C18.8061 14.6345 18.6156 14.2781 18.5384 13.8902C18.4613 13.5022 18.5009 13.1001 18.6522 12.7346C18.8036 12.3692 19.06 12.0568 19.3889 11.8371C19.7178 11.6173 20.1044 11.5 20.5 11.5C21.0304 11.5 21.5391 11.7107 21.9142 12.0858C22.2893 12.4609 22.5 12.9696 22.5 13.5Z" fill="black"/>
</svg>
