<svg width="32" height="32" viewBox="0 0 32 32" fill="none" xmlns="http://www.w3.org/2000/svg">
<path d="M16 2.5C13.33 2.5 10.7199 3.29176 8.49981 4.77516C6.27974 6.25856 4.54942 8.36697 3.52763 10.8338C2.50585 13.3006 2.2385 16.015 2.7594 18.6337C3.28031 21.2525 4.56606 23.6579 6.45406 25.5459C8.34207 27.434 10.7475 28.7197 13.3663 29.2406C15.985 29.7615 18.6994 29.4942 21.1662 28.4724C23.633 27.4506 25.7414 25.7203 27.2248 23.5002C28.7082 21.2801 29.5 18.67 29.5 16C29.496 12.4208 28.0724 8.98932 25.5416 6.45844C23.0107 3.92756 19.5792 2.50397 16 2.5ZM16 26.5C13.9233 26.5 11.8932 25.8842 10.1665 24.7304C8.4398 23.5767 7.09399 21.9368 6.29927 20.0182C5.50455 18.0996 5.29662 15.9884 5.70176 13.9516C6.10691 11.9148 7.10693 10.0438 8.57538 8.57538C10.0438 7.10693 11.9148 6.1069 13.9516 5.70175C15.9884 5.29661 18.0996 5.50454 20.0182 6.29926C21.9368 7.09399 23.5767 8.4398 24.7304 10.1665C25.8842 11.8932 26.5 13.9233 26.5 16C26.497 18.7839 25.3898 21.4528 23.4213 23.4213C21.4529 25.3898 18.7839 26.497 16 26.5ZM9.50001 13.5C9.50001 13.1044 9.6173 12.7178 9.83707 12.3889C10.0568 12.06 10.3692 11.8036 10.7346 11.6522C11.1001 11.5009 11.5022 11.4613 11.8902 11.5384C12.2781 11.6156 12.6345 11.8061 12.9142 12.0858C13.1939 12.3655 13.3844 12.7219 13.4616 13.1098C13.5387 13.4978 13.4991 13.8999 13.3478 14.2654C13.1964 14.6308 12.94 14.9432 12.6111 15.1629C12.2822 15.3827 11.8956 15.5 11.5 15.5C10.9696 15.5 10.4609 15.2893 10.0858 14.9142C9.71072 14.5391 9.50001 14.0304 9.50001 13.5ZM23.5 13.5C23.5 13.8978 23.342 14.2794 23.0607 14.5607C22.7794 14.842 22.3978 15 22 15H19C18.6022 15 18.2207 14.842 17.9393 14.5607C17.658 14.2794 17.5 13.8978 17.5 13.5C17.5 13.1022 17.658 12.7206 17.9393 12.4393C18.2207 12.158 18.6022 12 19 12H22C22.3978 12 22.7794 12.158 23.0607 12.4393C23.342 12.7206 23.5 13.1022 23.5 13.5ZM22.2988 19.75C20.9238 22.1325 18.625 23.5 16 23.5C13.375 23.5 11.08 22.1338 9.70126 19.75C9.51092 19.4061 9.4632 19.0012 9.56836 18.6224C9.67352 18.2436 9.92316 17.9213 10.2636 17.7247C10.604 17.5281 11.0079 17.4731 11.3885 17.5713C11.7692 17.6695 12.096 17.9132 12.2988 18.25C12.785 19.0912 13.9125 20.5 16 20.5C18.0875 20.5 19.215 19.09 19.7013 18.25C19.7978 18.0756 19.928 17.9222 20.0845 17.7988C20.2409 17.6753 20.4204 17.5843 20.6124 17.531C20.8044 17.4777 21.0051 17.4632 21.2028 17.4883C21.4005 17.5134 21.5912 17.5777 21.7638 17.6773C21.9364 17.777 22.0874 17.9101 22.208 18.0687C22.3285 18.2274 22.4163 18.4085 22.4661 18.6014C22.5159 18.7944 22.5267 18.9954 22.498 19.1926C22.4693 19.3898 22.4015 19.5793 22.2988 19.75Z" fill="black"/>
</svg>
