<svg width="32" height="32" viewBox="0 0 32 32" fill="none" xmlns="http://www.w3.org/2000/svg">
<path d="M28.4561 18.6425C28.5508 19.0287 28.4883 19.4367 28.2822 19.7768C28.0762 20.1169 27.7435 20.3613 27.3574 20.4562L24.7736 21.0912L25.4486 23.6112C25.5518 23.9955 25.498 24.4049 25.2992 24.7495C25.1004 25.0941 24.7729 25.3456 24.3886 25.4487C24.0044 25.5518 23.595 25.4981 23.2504 25.2993C22.9058 25.1005 22.6543 24.773 22.5511 24.3887L21.6399 20.9887L17.4999 18.5975V23.375L20.0599 25.935C20.1994 26.0745 20.3101 26.2402 20.3856 26.4225C20.4611 26.6048 20.5 26.8001 20.5 26.9975C20.5 27.1948 20.4611 27.3902 20.3856 27.5725C20.3101 27.7548 20.1994 27.9204 20.0599 28.06C19.9204 28.1995 19.7547 28.3102 19.5724 28.3857C19.3901 28.4612 19.1947 28.5001 18.9974 28.5001C18.8001 28.5001 18.6047 28.4612 18.4224 28.3857C18.2401 28.3102 18.0744 28.1995 17.9349 28.06L15.9999 26.125L14.0611 28.065C13.9216 28.2045 13.756 28.3152 13.5737 28.3907C13.3914 28.4662 13.196 28.5051 12.9986 28.5051C12.8013 28.5051 12.6059 28.4662 12.4236 28.3907C12.2413 28.3152 12.0757 28.2045 11.9361 28.065C11.7966 27.9254 11.6859 27.7598 11.6104 27.5775C11.5349 27.3952 11.496 27.1998 11.496 27.0025C11.496 26.8052 11.5349 26.6098 11.6104 26.4275C11.6859 26.2451 11.7966 26.0795 11.9361 25.94L14.4999 23.375V18.5975L10.3599 20.9887L9.44865 24.3887C9.34554 24.773 9.09403 25.1005 8.74943 25.2993C8.40483 25.4981 7.99538 25.5518 7.61115 25.4487C7.22691 25.3456 6.89938 25.0941 6.70059 24.7495C6.5018 24.4049 6.44804 23.9955 6.55115 23.6112L7.22615 21.0912L4.6424 20.4562C4.44672 20.4136 4.26157 20.3321 4.09786 20.2168C3.93415 20.1014 3.7952 19.9544 3.68921 19.7845C3.58321 19.6146 3.51232 19.4251 3.48071 19.2274C3.4491 19.0296 3.45742 18.8275 3.50517 18.633C3.55292 18.4385 3.63913 18.2556 3.75873 18.0949C3.87832 17.9343 4.02888 17.7992 4.20151 17.6977C4.37414 17.5961 4.56536 17.5302 4.76388 17.5038C4.9624 17.4773 5.16421 17.4909 5.3574 17.5437L8.84365 18.4L12.9999 16L8.84365 13.6L5.3574 14.4562C5.24047 14.4854 5.1204 14.5001 4.9999 14.5C4.63373 14.4992 4.28051 14.3644 4.00682 14.1212C3.73312 13.8779 3.55785 13.543 3.51404 13.1794C3.47023 12.8159 3.56091 12.4489 3.76899 12.1476C3.97706 11.8463 4.28816 11.6315 4.64365 11.5437L7.2274 10.9087L6.5524 8.38873C6.44929 8.00449 6.50305 7.59504 6.70184 7.25044C6.90063 6.90584 7.22817 6.65433 7.6124 6.55122C7.99663 6.44812 8.40608 6.50188 8.75068 6.70067C9.09528 6.89945 9.34679 7.22699 9.4499 7.61123L10.3611 11.0112L14.4999 13.4012V8.62498L11.9399 6.05997C11.8004 5.92045 11.6897 5.7548 11.6142 5.5725C11.5387 5.39019 11.4998 5.1948 11.4998 4.99747C11.4998 4.59896 11.6581 4.21677 11.9399 3.93497C12.2217 3.65318 12.6039 3.49487 13.0024 3.49487C13.1997 3.49487 13.3951 3.53374 13.5774 3.60925C13.7597 3.68476 13.9254 3.79545 14.0649 3.93497L15.9999 5.87497L17.9386 3.93497C18.0782 3.79545 18.2438 3.68476 18.4261 3.60925C18.6084 3.53374 18.8038 3.49487 19.0011 3.49487C19.1985 3.49487 19.3939 3.53374 19.5762 3.60925C19.7585 3.68476 19.9241 3.79545 20.0636 3.93497C20.2032 4.0745 20.3139 4.24015 20.3894 4.42245C20.4649 4.60476 20.5037 4.80015 20.5037 4.99747C20.5037 5.1948 20.4649 5.39019 20.3894 5.5725C20.3139 5.7548 20.2032 5.92045 20.0636 6.05997L17.4999 8.62498V13.405L21.6399 11.015L22.5511 7.61497C22.6543 7.23074 22.9058 6.90321 23.2504 6.70442C23.595 6.50563 24.0044 6.45187 24.3886 6.55497C24.7729 6.65808 25.1004 6.90959 25.2992 7.25419C25.498 7.59879 25.5518 8.00824 25.4486 8.39248L24.7736 10.9125L27.3574 11.5475C27.7096 11.6382 28.0169 11.8538 28.222 12.1542C28.4271 12.4546 28.5161 12.8193 28.4724 13.1804C28.4287 13.5415 28.2552 13.8744 27.9843 14.1171C27.7135 14.3599 27.3636 14.4959 26.9999 14.5C26.879 14.5002 26.7585 14.4855 26.6411 14.4562L23.1549 13.6L18.9999 16L23.1561 18.4L26.6424 17.5437C27.0286 17.4491 27.4366 17.5116 27.7767 17.7176C28.1168 17.9237 28.3612 18.2563 28.4561 18.6425Z" fill="black"/>
</svg>
