<svg width="32" height="32" viewBox="0 0 32 32" fill="none" xmlns="http://www.w3.org/2000/svg">
<path d="M27.7288 18.8212C27.7523 18.9169 27.7567 19.0163 27.7418 19.1137C27.7269 19.2112 27.6929 19.3047 27.6419 19.389C27.5908 19.4732 27.5236 19.5466 27.4441 19.6049C27.3647 19.6632 27.2745 19.7053 27.1788 19.7287L23.8513 20.5462L24.7263 23.8062C24.7518 23.9013 24.7583 24.0006 24.7455 24.0982C24.7327 24.1959 24.7008 24.29 24.6516 24.3754C24.6023 24.4607 24.5368 24.5355 24.4587 24.5954C24.3806 24.6554 24.2914 24.6994 24.1963 24.725C24.133 24.7412 24.0679 24.7496 24.0025 24.75C23.8373 24.7501 23.6766 24.6956 23.5455 24.595C23.4144 24.4944 23.3202 24.3534 23.2775 24.1937L22.2838 20.5L16.75 17.2987V23.69L19.53 26.47C19.6037 26.5386 19.6628 26.6214 19.7038 26.7134C19.7448 26.8054 19.7668 26.9047 19.7686 27.0054C19.7704 27.1061 19.7519 27.2062 19.7141 27.2996C19.6764 27.393 19.6203 27.4778 19.5491 27.549C19.4778 27.6202 19.393 27.6764 19.2996 27.7141C19.2062 27.7518 19.1062 27.7703 19.0055 27.7686C18.9048 27.7668 18.8055 27.7447 18.7135 27.7038C18.6215 27.6628 18.5387 27.6037 18.47 27.53L16 25.0612L13.53 27.53C13.3879 27.6625 13.1998 27.7346 13.0055 27.7311C12.8112 27.7277 12.6258 27.649 12.4884 27.5116C12.351 27.3742 12.2723 27.1888 12.2689 26.9945C12.2654 26.8002 12.3375 26.6121 12.47 26.47L15.25 23.69V17.2987L9.71628 20.5L8.72503 24.2C8.68118 24.3584 8.58647 24.4981 8.45547 24.5975C8.32448 24.6969 8.16445 24.7504 8.00003 24.75C7.93466 24.7496 7.8696 24.7412 7.80628 24.725C7.71115 24.6994 7.62198 24.6554 7.54387 24.5954C7.46575 24.5355 7.40021 24.4607 7.351 24.3754C7.30178 24.29 7.26985 24.1959 7.25703 24.0982C7.24421 24.0006 7.25075 23.9013 7.27628 23.8062L8.15128 20.5462L4.82378 19.7287C4.6305 19.6813 4.46397 19.5591 4.36083 19.3889C4.25768 19.2187 4.22637 19.0145 4.27378 18.8212C4.32118 18.6279 4.44343 18.4614 4.61362 18.3583C4.78381 18.2551 4.988 18.2238 5.18128 18.2712L8.96003 19.2L14.5 16L8.95753 12.8L5.17878 13.7287C5.12029 13.7431 5.06026 13.7502 5.00003 13.75C4.81644 13.7503 4.6391 13.6834 4.5016 13.5617C4.3641 13.4401 4.27599 13.2722 4.25396 13.09C4.23193 12.9077 4.27751 12.7237 4.38207 12.5728C4.48662 12.4219 4.6429 12.3146 4.82128 12.2712L8.14878 11.4537L7.27378 8.19372C7.246 8.09786 7.23763 7.99743 7.24916 7.89829C7.26069 7.79916 7.29189 7.70333 7.34093 7.61641C7.38997 7.52949 7.45586 7.45323 7.53475 7.3921C7.61364 7.33097 7.70393 7.2862 7.80034 7.26042C7.89675 7.23463 7.99734 7.22834 8.09621 7.24193C8.19508 7.25551 8.29025 7.28869 8.37613 7.33952C8.46202 7.39035 8.5369 7.45781 8.59638 7.53795C8.65586 7.61809 8.69874 7.70929 8.72253 7.80622L9.71378 11.5062L15.25 14.7012V8.30997L12.47 5.52997C12.3375 5.38779 12.2654 5.19975 12.2689 5.00545C12.2723 4.81114 12.351 4.62576 12.4884 4.48835C12.6258 4.35093 12.8112 4.27222 13.0055 4.26879C13.1998 4.26537 13.3879 4.33749 13.53 4.46997L16 6.93872L18.47 4.46997C18.6122 4.33749 18.8002 4.26537 18.9945 4.26879C19.1888 4.27222 19.3742 4.35093 19.5116 4.48835C19.6491 4.62576 19.7278 4.81114 19.7312 5.00545C19.7346 5.19975 19.6625 5.38779 19.53 5.52997L16.75 8.30997V14.7012L22.2838 11.5062L23.275 7.80622C23.2988 7.70929 23.3417 7.61809 23.4012 7.53795C23.4607 7.45781 23.5355 7.39035 23.6214 7.33952C23.7073 7.28869 23.8025 7.25551 23.9013 7.24193C24.0002 7.22834 24.1008 7.23463 24.1972 7.26042C24.2936 7.2862 24.3839 7.33097 24.4628 7.3921C24.5417 7.45323 24.6076 7.52949 24.6566 7.61641C24.7057 7.70333 24.7369 7.79916 24.7484 7.89829C24.7599 7.99743 24.7516 8.09786 24.7238 8.19372L23.8488 11.4537L27.1763 12.2712C27.3544 12.3146 27.5106 12.4217 27.6151 12.5723C27.7197 12.7229 27.7654 12.9067 27.7437 13.0887C27.722 13.2708 27.6344 13.4386 27.4974 13.5605C27.3603 13.6823 27.1834 13.7497 27 13.75C26.9398 13.7502 26.8798 13.7431 26.8213 13.7287L23.0425 12.8L17.5 16L23.0425 19.2L26.8213 18.2712C26.917 18.2477 27.0164 18.2433 27.1138 18.2582C27.2112 18.2731 27.3047 18.3071 27.389 18.3581C27.4733 18.4092 27.5467 18.4764 27.605 18.5559C27.6633 18.6353 27.7053 18.7255 27.7288 18.8212Z" fill="black"/>
</svg>
