<svg width="32" height="32" viewBox="0 0 32 32" fill="none" xmlns="http://www.w3.org/2000/svg">
<path d="M16 2.5C13.33 2.5 10.7199 3.29176 8.49981 4.77516C6.27974 6.25856 4.54942 8.36697 3.52763 10.8338C2.50585 13.3006 2.2385 16.015 2.7594 18.6337C3.28031 21.2525 4.56606 23.6579 6.45406 25.5459C8.34207 27.434 10.7475 28.7197 13.3663 29.2406C15.985 29.7615 18.6994 29.4942 21.1662 28.4724C23.633 27.4506 25.7414 25.7203 27.2248 23.5002C28.7082 21.2801 29.5 18.67 29.5 16C29.496 12.4208 28.0724 8.98932 25.5416 6.45844C23.0107 3.92756 19.5792 2.50397 16 2.5ZM25.5 11.5312L22.75 12.425L17.5 8.7225V5.60875C19.2185 5.85957 20.8483 6.53159 22.2441 7.56493C23.6399 8.59827 24.7584 9.96085 25.5 11.5312ZM13.0625 20L11.2763 14.6663L16 11.335L20.7238 14.6663L18.9375 20H13.0625ZM14.5 5.60875V8.7225L9.25001 12.425L6.50001 11.5312C7.24159 9.96085 8.36012 8.59827 9.75594 7.56493C11.1518 6.53159 12.7815 5.85957 14.5 5.60875ZM5.50001 16C5.50098 15.4647 5.54277 14.9302 5.62501 14.4012L8.32126 15.2762L10.3213 21.2437L8.67001 23.5075C7.66638 22.5317 6.86871 21.3645 6.32421 20.075C5.7797 18.7855 5.49944 17.3998 5.50001 16ZM11.0913 25.2787L12.75 23H19.25L20.9063 25.2787C19.3943 26.0807 17.7089 26.4999 15.9975 26.4999C14.2861 26.4999 12.6007 26.0807 11.0888 25.2787H11.0913ZM23.33 23.5075L21.685 21.25L23.685 15.2825L26.3813 14.4075C26.6339 16.0584 26.4892 17.7458 25.9589 19.3296C25.4287 20.9133 24.5283 22.3478 23.3325 23.5138L23.33 23.5075Z" fill="black"/>
</svg>
