<svg width="32" height="32" viewBox="0 0 32 32" fill="none" xmlns="http://www.w3.org/2000/svg">
<path d="M4 15V21C4 21.3978 3.84196 21.7794 3.56066 22.0607C3.27936 22.342 2.89782 22.5 2.5 22.5C2.10218 22.5 1.72064 22.342 1.43934 22.0607C1.15804 21.7794 1 21.3978 1 21V15C1 14.6022 1.15804 14.2206 1.43934 13.9393C1.72064 13.658 2.10218 13.5 2.5 13.5C2.89782 13.5 3.27936 13.658 3.56066 13.9393C3.84196 14.2206 4 14.6022 4 15ZM7.5 10.5C7.10218 10.5 6.72064 10.658 6.43934 10.9393C6.15804 11.2206 6 11.6022 6 12V24C6 24.3978 6.15804 24.7794 6.43934 25.0607C6.72064 25.342 7.10218 25.5 7.5 25.5C7.89782 25.5 8.27936 25.342 8.56066 25.0607C8.84196 24.7794 9 24.3978 9 24V12C9 11.6022 8.84196 11.2206 8.56066 10.9393C8.27936 10.658 7.89782 10.5 7.5 10.5ZM12.5 5.5C12.1022 5.5 11.7206 5.65804 11.4393 5.93934C11.158 6.22064 11 6.60218 11 7V24C11 24.3978 11.158 24.7794 11.4393 25.0607C11.7206 25.342 12.1022 25.5 12.5 25.5C12.8978 25.5 13.2794 25.342 13.5607 25.0607C13.842 24.7794 14 24.3978 14 24V7C14 6.60218 13.842 6.22064 13.5607 5.93934C13.2794 5.65804 12.8978 5.5 12.5 5.5ZM27.7925 12.9163C27.3116 10.5412 26.024 8.40554 24.148 6.87156C22.2721 5.33758 19.9233 4.49969 17.5 4.5C17.1022 4.5 16.7206 4.65804 16.4393 4.93934C16.158 5.22064 16 5.60218 16 6C16 6.39782 16.158 6.77936 16.4393 7.06066C16.7206 7.34196 17.1022 7.5 17.5 7.5C19.3597 7.49356 21.155 8.18081 22.535 9.42744C23.915 10.6741 24.7805 12.3905 24.9625 14.2413C24.9948 14.5622 25.1297 14.8642 25.3472 15.1025C25.5648 15.3407 25.8533 15.5025 26.17 15.5638C27.025 15.7292 27.7876 16.2075 28.3089 16.9051C28.8301 17.6028 29.0726 18.4697 28.9888 19.3365C28.9051 20.2034 28.5012 21.0078 27.8561 21.5928C27.2109 22.1778 26.3709 22.5013 25.5 22.5H17.5C17.1022 22.5 16.7206 22.658 16.4393 22.9393C16.158 23.2206 16 23.6022 16 24C16 24.3978 16.158 24.7794 16.4393 25.0607C16.7206 25.342 17.1022 25.5 17.5 25.5H25.5C27.0225 25.5009 28.497 24.9673 29.6664 23.9923C30.8357 23.0174 31.6257 21.6628 31.8986 20.165C32.1715 18.6672 31.9099 17.121 31.1595 15.7963C30.4091 14.4716 29.2175 13.4523 27.7925 12.9163Z" fill="black"/>
</svg>
