<svg width="32" height="32" viewBox="0 0 32 32" fill="none" xmlns="http://www.w3.org/2000/svg">
<path d="M24.8749 15.6637L18.6387 13.3663L16.3362 7.125C16.16 6.64722 15.8416 6.23494 15.4239 5.94374C15.0061 5.65254 14.5091 5.49642 13.9999 5.49642C13.4907 5.49642 12.9937 5.65254 12.576 5.94374C12.1583 6.23494 11.8398 6.64722 11.6637 7.125L9.36617 13.3663L3.12492 15.6637C2.64715 15.8399 2.23487 16.1583 1.94367 16.5761C1.65246 16.9938 1.49634 17.4908 1.49634 18C1.49634 18.5092 1.65246 19.0062 1.94367 19.4239C2.23487 19.8417 2.64715 20.1601 3.12492 20.3363L9.36117 22.6338L11.6637 28.875C11.8398 29.3528 12.1583 29.7651 12.576 30.0563C12.9937 30.3475 13.4907 30.5036 13.9999 30.5036C14.5091 30.5036 15.0061 30.3475 15.4239 30.0563C15.8416 29.7651 16.16 29.3528 16.3362 28.875L18.6337 22.6388L24.8749 20.3363C25.3527 20.1601 25.765 19.8417 26.0562 19.4239C26.3474 19.0062 26.5035 18.5092 26.5035 18C26.5035 17.4908 26.3474 16.9938 26.0562 16.5761C25.765 16.1583 25.3527 15.8399 24.8749 15.6637ZM17.3749 19.9013C17.0369 20.0256 16.7299 20.2219 16.4753 20.4766C16.2206 20.7313 16.0243 21.0382 15.8999 21.3762L13.9999 26.535L12.0987 21.375C11.9743 21.0373 11.7781 20.7307 11.5237 20.4762C11.2692 20.2218 10.9626 20.0256 10.6249 19.9013L5.46492 18L10.6249 16.0987C10.9626 15.9744 11.2692 15.7782 11.5237 15.5238C11.7781 15.2693 11.9743 14.9627 12.0987 14.625L13.9999 9.465L15.9012 14.625C16.0255 14.963 16.2218 15.27 16.4765 15.5247C16.7312 15.7793 17.0381 15.9757 17.3762 16.1L22.5349 18L17.3749 19.9013ZM17.4999 5C17.4999 4.60218 17.658 4.22064 17.9393 3.93934C18.2206 3.65804 18.6021 3.5 18.9999 3.5H20.4999V2C20.4999 1.60218 20.658 1.22064 20.9393 0.93934C21.2206 0.658035 21.6021 0.5 21.9999 0.5C22.3977 0.5 22.7793 0.658035 23.0606 0.93934C23.3419 1.22064 23.4999 1.60218 23.4999 2V3.5H24.9999C25.3977 3.5 25.7793 3.65804 26.0606 3.93934C26.3419 4.22064 26.4999 4.60218 26.4999 5C26.4999 5.39782 26.3419 5.77936 26.0606 6.06066C25.7793 6.34196 25.3977 6.5 24.9999 6.5H23.4999V8C23.4999 8.39782 23.3419 8.77936 23.0606 9.06066C22.7793 9.34196 22.3977 9.5 21.9999 9.5C21.6021 9.5 21.2206 9.34196 20.9393 9.06066C20.658 8.77936 20.4999 8.39782 20.4999 8V6.5H18.9999C18.6021 6.5 18.2206 6.34196 17.9393 6.06066C17.658 5.77936 17.4999 5.39782 17.4999 5ZM31.4999 11C31.4999 11.3978 31.3419 11.7794 31.0606 12.0607C30.7793 12.342 30.3977 12.5 29.9999 12.5H29.4999V13C29.4999 13.3978 29.3419 13.7794 29.0606 14.0607C28.7793 14.342 28.3977 14.5 27.9999 14.5C27.6021 14.5 27.2206 14.342 26.9393 14.0607C26.658 13.7794 26.4999 13.3978 26.4999 13V12.5H25.9999C25.6021 12.5 25.2206 12.342 24.9393 12.0607C24.658 11.7794 24.4999 11.3978 24.4999 11C24.4999 10.6022 24.658 10.2206 24.9393 9.93934C25.2206 9.65804 25.6021 9.5 25.9999 9.5H26.4999V9C26.4999 8.60218 26.658 8.22064 26.9393 7.93934C27.2206 7.65804 27.6021 7.5 27.9999 7.5C28.3977 7.5 28.7793 7.65804 29.0606 7.93934C29.3419 8.22064 29.4999 8.60218 29.4999 9V9.5H29.9999C30.3977 9.5 30.7793 9.65804 31.0606 9.93934C31.3419 10.2206 31.4999 10.6022 31.4999 11Z" fill="black"/>
</svg>
