<svg width="32" height="32" viewBox="0 0 32 32" fill="none" xmlns="http://www.w3.org/2000/svg">
<path d="M6.555 4.49989C6.4177 4.37245 6.23767 4.301 6.05035 4.29961C5.86302 4.29822 5.68195 4.36698 5.54277 4.49237C5.40359 4.61776 5.31638 4.79069 5.29828 4.97715C5.28019 5.1636 5.33253 5.35008 5.445 5.49989L9.75 10.2424L9.74 10.2499H4C3.53587 10.2499 3.09075 10.4343 2.76256 10.7625C2.43437 11.0906 2.25 11.5358 2.25 11.9999V19.9999C2.25 20.464 2.43437 20.9091 2.76256 21.2373C3.09075 21.5655 3.53587 21.7499 4 21.7499H9.7425L18.54 28.5924C18.6509 28.6785 18.7837 28.7317 18.9233 28.7461C19.0629 28.7604 19.2038 28.7353 19.3298 28.6736C19.4559 28.6119 19.5621 28.516 19.6364 28.3969C19.7107 28.2778 19.75 28.1403 19.75 27.9999V21.2399L25.445 27.4999C25.5789 27.6471 25.7659 27.735 25.9646 27.7444C26.1634 27.7538 26.3578 27.6838 26.505 27.5499C26.6522 27.416 26.7402 27.229 26.7495 27.0302C26.7589 26.8315 26.6889 26.6371 26.555 26.4899L6.555 4.49989ZM3.75 19.9999V11.9999C3.75 11.9336 3.77634 11.87 3.82322 11.8231C3.87011 11.7762 3.9337 11.7499 4 11.7499H9.25V20.2499H4C3.9337 20.2499 3.87011 20.2235 3.82322 20.1767C3.77634 20.1298 3.75 20.0662 3.75 19.9999ZM18.25 26.4661L10.75 20.6336V11.3661L10.7638 11.3561L18.25 19.5899V26.4661ZM23.4375 18.1499C23.9602 17.5564 24.2486 16.7926 24.2486 16.0018C24.2486 15.2109 23.9602 14.4471 23.4375 13.8536C23.3691 13.7803 23.3161 13.694 23.2817 13.5998C23.2472 13.5057 23.232 13.4055 23.2369 13.3054C23.2418 13.2052 23.2667 13.1071 23.3102 13.0167C23.3537 12.9264 23.4149 12.8457 23.4902 12.7794C23.5654 12.7131 23.6532 12.6626 23.7483 12.6308C23.8434 12.599 23.9439 12.5866 24.0439 12.5943C24.1438 12.6021 24.2413 12.6298 24.3303 12.6758C24.4194 12.7219 24.4984 12.7853 24.5625 12.8624C25.3267 13.7299 25.7484 14.8463 25.7484 16.0024C25.7484 17.1585 25.3267 18.2749 24.5625 19.1424C24.4309 19.2916 24.2454 19.3824 24.0468 19.3948C23.8483 19.4072 23.6529 19.3403 23.5037 19.2086C23.3546 19.077 23.2638 18.8915 23.2514 18.693C23.2389 18.4944 23.3059 18.2991 23.4375 18.1499ZM13.4263 8.33489C13.3658 8.25709 13.3213 8.16814 13.2953 8.07314C13.2692 7.97813 13.2622 7.87893 13.2745 7.78119C13.2868 7.68345 13.3182 7.5891 13.367 7.50351C13.4158 7.41793 13.4809 7.34279 13.5588 7.28239L18.54 3.40739C18.6509 3.3213 18.7837 3.26805 18.9233 3.25369C19.0629 3.23933 19.2038 3.26445 19.3298 3.32618C19.4559 3.3879 19.5621 3.48377 19.6364 3.60287C19.7107 3.72197 19.75 3.85952 19.75 3.99989V13.3536C19.75 13.5526 19.671 13.7433 19.5303 13.884C19.3897 14.0246 19.1989 14.1036 19 14.1036C18.8011 14.1036 18.6103 14.0246 18.4697 13.884C18.329 13.7433 18.25 13.5526 18.25 13.3536V5.53364L14.4788 8.46614C14.3218 8.5883 14.1227 8.6431 13.9253 8.61849C13.7279 8.59388 13.5484 8.49186 13.4263 8.33489ZM30.75 15.9999C30.7517 18.3984 29.8677 20.7131 28.2675 22.4999C28.2026 22.5759 28.1231 22.6381 28.0338 22.683C27.9445 22.7278 27.8471 22.7544 27.7474 22.7611C27.6477 22.7678 27.5476 22.7545 27.4531 22.7219C27.3586 22.6894 27.2716 22.6383 27.1971 22.5717C27.1226 22.505 27.0622 22.4241 27.0194 22.3338C26.9766 22.2435 26.9523 22.1455 26.948 22.0457C26.9436 21.9458 26.9592 21.8461 26.9939 21.7524C27.0286 21.6587 27.0817 21.5728 27.15 21.4999C28.5029 19.9873 29.2508 18.0292 29.2508 15.9999C29.2508 13.9706 28.5029 12.0124 27.15 10.4999C27.0817 10.427 27.0286 10.3411 26.9939 10.2474C26.9592 10.1537 26.9436 10.0539 26.948 9.95409C26.9523 9.85424 26.9766 9.75627 27.0194 9.66595C27.0622 9.57563 27.1226 9.49476 27.1971 9.42812C27.2716 9.36147 27.3586 9.31038 27.4531 9.27785C27.5476 9.24532 27.6477 9.23201 27.7474 9.23869C27.8471 9.24538 27.9445 9.27193 28.0338 9.31679C28.1231 9.36164 28.2026 9.42389 28.2675 9.49989C29.8677 11.2866 30.7517 13.6013 30.75 15.9999Z" fill="black"/>
</svg>
