<svg width="32" height="32" viewBox="0 0 32 32" fill="none" xmlns="http://www.w3.org/2000/svg">
<path d="M19.33 3.32621C19.2039 3.26445 19.063 3.23933 18.9234 3.25369C18.7837 3.26806 18.6509 3.32133 18.54 3.40746L9.7425 10.25H4C3.53587 10.25 3.09075 10.4343 2.76256 10.7625C2.43437 11.0907 2.25 11.5358 2.25 12V20C2.25 20.4641 2.43437 20.9092 2.76256 21.2374C3.09075 21.5656 3.53587 21.75 4 21.75H9.7425L18.54 28.5925C18.6509 28.6786 18.7837 28.7318 18.9233 28.7462C19.0629 28.7605 19.2038 28.7354 19.3298 28.6737C19.4559 28.6119 19.5621 28.5161 19.6364 28.397C19.7107 28.2779 19.75 28.1403 19.75 28V3.99996C19.75 3.85961 19.7107 3.72206 19.6365 3.60295C19.5622 3.48385 19.456 3.38797 19.33 3.32621ZM18.25 26.4662L10.46 20.4075C10.3284 20.3053 10.1666 20.2499 10 20.25H4C3.9337 20.25 3.87011 20.2236 3.82322 20.1767C3.77634 20.1299 3.75 20.0663 3.75 20V12C3.75 11.9337 3.77634 11.8701 3.82322 11.8232C3.87011 11.7763 3.9337 11.75 4 11.75H10C10.1666 11.75 10.3284 11.6946 10.46 11.5925L18.25 5.53371V26.4662ZM30.53 18.4662C30.6037 18.5349 30.6628 18.6177 30.7038 18.7097C30.7448 18.8017 30.7668 18.901 30.7686 19.0017C30.7704 19.1024 30.7518 19.2024 30.7141 19.2958C30.6764 19.3892 30.6203 19.474 30.549 19.5452C30.4778 19.6165 30.393 19.6726 30.2996 19.7103C30.2062 19.7481 30.1062 19.7666 30.0055 19.7648C29.9048 19.763 29.8055 19.741 29.7135 19.7C29.6215 19.659 29.5387 19.5999 29.47 19.5262L27 17.06L24.53 19.53C24.3878 19.6624 24.1998 19.7346 24.0055 19.7311C23.8112 19.7277 23.6258 19.649 23.4884 19.5116C23.351 19.3742 23.2723 19.1888 23.2688 18.9945C23.2654 18.8002 23.3375 18.6121 23.47 18.47L25.94 16L23.47 13.53C23.3375 13.3878 23.2654 13.1997 23.2688 13.0054C23.2723 12.8111 23.351 12.6258 23.4884 12.4883C23.6258 12.3509 23.8112 12.2722 24.0055 12.2688C24.1998 12.2654 24.3878 12.3375 24.53 12.47L27 14.94L29.47 12.47C29.6122 12.3375 29.8002 12.2654 29.9945 12.2688C30.1888 12.2722 30.3742 12.3509 30.5116 12.4883C30.649 12.6258 30.7277 12.8111 30.7312 13.0054C30.7346 13.1997 30.6625 13.3878 30.53 13.53L28.06 16L30.53 18.4662Z" fill="black"/>
</svg>
