<svg width="32" height="32" viewBox="0 0 32 32" fill="none" xmlns="http://www.w3.org/2000/svg">
<path d="M7.11 3.99118C6.97827 3.84269 6.81838 3.72182 6.6396 3.63558C6.46082 3.54934 6.2667 3.49945 6.06849 3.48878C5.87028 3.47812 5.67192 3.5069 5.48492 3.57346C5.29791 3.64002 5.12598 3.74304 4.97908 3.87654C4.83218 4.01003 4.71324 4.17136 4.62915 4.35117C4.54506 4.53097 4.4975 4.72568 4.48921 4.924C4.48093 5.12232 4.51208 5.32032 4.58088 5.50651C4.64968 5.6927 4.75475 5.86339 4.89 6.00868L8.06375 9.49993H4C3.33696 9.49993 2.70107 9.76332 2.23223 10.2322C1.76339 10.701 1.5 11.3369 1.5 11.9999V19.9999C1.5 20.663 1.76339 21.2989 2.23223 21.7677C2.70107 22.2365 3.33696 22.4999 4 22.4999H9.485L18.0788 29.1837C18.3004 29.3562 18.566 29.463 18.8453 29.4919C19.1247 29.5209 19.4065 29.4708 19.6588 29.3475C19.9111 29.2241 20.1237 29.0324 20.2724 28.7942C20.4212 28.556 20.5 28.2808 20.5 27.9999V23.1799L24.89 28.0087C25.1589 28.2976 25.5309 28.4688 25.9253 28.4853C26.3197 28.5018 26.7046 28.3622 26.9967 28.0967C27.2888 27.8312 27.4645 27.4613 27.4857 27.0672C27.5069 26.6731 27.3719 26.2864 27.11 25.9912L7.11 3.99118ZM4.5 12.4999H8.5V19.4999H4.5V12.4999ZM17.5 24.9324L11.5 20.2662V13.2799L17.5 19.8749V24.9324ZM13.625 8.18243C13.5041 8.0269 13.415 7.84907 13.3628 7.65911C13.3106 7.46915 13.2964 7.27077 13.3209 7.0753C13.3454 6.87983 13.4081 6.69109 13.5056 6.51988C13.603 6.34866 13.7332 6.19832 13.8888 6.07743L18.0775 2.81868C18.299 2.64596 18.5644 2.53888 18.8438 2.50962C19.1231 2.48037 19.405 2.53012 19.6574 2.65321C19.9099 2.7763 20.1227 2.96779 20.2716 3.20587C20.4206 3.44396 20.4997 3.71908 20.5 3.99993V11.8674C20.5 12.2653 20.342 12.6468 20.0607 12.9281C19.7794 13.2094 19.3978 13.3674 19 13.3674C18.6022 13.3674 18.2206 13.2094 17.9393 12.9281C17.658 12.6468 17.5 12.2653 17.5 11.8674V7.06743L15.7312 8.44243C15.5758 8.5636 15.3979 8.65293 15.2079 8.70532C15.0178 8.75771 14.8193 8.77213 14.6237 8.74775C14.4281 8.72337 14.2392 8.66067 14.0678 8.56324C13.8965 8.46581 13.746 8.33556 13.625 8.17993V8.18243ZM22.875 14.3512C22.6293 14.0505 22.5097 13.6663 22.5414 13.2793C22.5732 12.8924 22.7537 12.5328 23.0451 12.2762C23.3365 12.0195 23.7161 11.8859 24.104 11.9034C24.4919 11.9209 24.8579 12.0881 25.125 12.3699C25.8713 13.2182 26.3382 14.2756 26.4623 15.3986C26.5864 16.5215 26.3617 17.6554 25.8188 18.6462C25.6162 18.9726 25.2961 19.2088 24.9244 19.3061C24.5528 19.4035 24.158 19.3545 23.8214 19.1694C23.4848 18.9843 23.2321 18.6771 23.1153 18.3111C22.9985 17.9451 23.0266 17.5483 23.1938 17.2024C23.397 16.8344 23.5024 16.4204 23.5 15.9999C23.4994 15.3918 23.2772 14.8048 22.875 14.3487V14.3512ZM31.5 15.9999C31.4984 18.4321 30.6543 20.7886 29.1112 22.6687C28.9869 22.8233 28.8331 22.9518 28.6588 23.0466C28.4845 23.1414 28.2931 23.2007 28.0957 23.221C27.8983 23.2413 27.6988 23.2223 27.5089 23.165C27.3189 23.1077 27.1422 23.0132 26.9889 22.8871C26.8357 22.761 26.709 22.6058 26.6162 22.4304C26.5235 22.255 26.4664 22.0629 26.4483 21.8653C26.4303 21.6676 26.4517 21.4684 26.5112 21.2791C26.5707 21.0898 26.6671 20.9142 26.795 20.7624C27.9322 19.3789 28.5369 17.634 28.4995 15.8435C28.4621 14.0529 27.7852 12.3348 26.5912 10.9999C26.4546 10.8541 26.3484 10.6824 26.279 10.4949C26.2096 10.3075 26.1784 10.108 26.1872 9.90833C26.1959 9.70863 26.2445 9.5127 26.3301 9.33205C26.4157 9.1514 26.5365 8.98968 26.6854 8.85638C26.8344 8.72309 27.0085 8.62091 27.1975 8.55585C27.3865 8.49079 27.5866 8.46417 27.7861 8.47754C27.9855 8.49091 28.1803 8.54401 28.3589 8.63372C28.5375 8.72343 28.6964 8.84794 28.8263 8.99993C30.5494 10.9242 31.5015 13.4169 31.5 15.9999Z" fill="black"/>
</svg>
