<svg width="32" height="32" viewBox="0 0 32 32" fill="none" xmlns="http://www.w3.org/2000/svg">
<path d="M19.33 3.32621C19.2039 3.26445 19.063 3.23933 18.9234 3.25369C18.7837 3.26806 18.6509 3.32133 18.54 3.40746L9.7425 10.25H4C3.53587 10.25 3.09075 10.4343 2.76256 10.7625C2.43437 11.0907 2.25 11.5358 2.25 12V20C2.25 20.4641 2.43437 20.9092 2.76256 21.2374C3.09075 21.5656 3.53587 21.75 4 21.75H9.7425L18.54 28.5925C18.6509 28.6786 18.7837 28.7318 18.9233 28.7462C19.0629 28.7605 19.2038 28.7354 19.3298 28.6737C19.4559 28.6119 19.5621 28.5161 19.6364 28.397C19.7107 28.2779 19.75 28.1403 19.75 28V3.99996C19.75 3.85961 19.7107 3.72206 19.6365 3.60295C19.5622 3.48385 19.456 3.38797 19.33 3.32621ZM3.75 20V12C3.75 11.9337 3.77634 11.8701 3.82322 11.8232C3.87011 11.7763 3.9337 11.75 4 11.75H9.25V20.25H4C3.9337 20.25 3.87011 20.2236 3.82322 20.1767C3.77634 20.1299 3.75 20.0663 3.75 20ZM18.25 26.4662L10.75 20.6325V11.3675L18.25 5.53371V26.4662Z" fill="black"/>
</svg>
