<svg width="32" height="32" viewBox="0 0 32 32" fill="none" xmlns="http://www.w3.org/2000/svg">
<path d="M23.25 18.9999V12.9999C23.25 12.801 23.329 12.6102 23.4697 12.4696C23.6103 12.3289 23.8011 12.2499 24 12.2499C24.1989 12.2499 24.3897 12.3289 24.5303 12.4696C24.671 12.6102 24.75 12.801 24.75 12.9999V18.9999C24.75 19.1988 24.671 19.3896 24.5303 19.5302C24.3897 19.6709 24.1989 19.7499 24 19.7499C23.8011 19.7499 23.6103 19.6709 23.4697 19.5302C23.329 19.3896 23.25 19.1988 23.25 18.9999ZM28 10.2499C27.8011 10.2499 27.6103 10.3289 27.4697 10.4696C27.329 10.6102 27.25 10.801 27.25 10.9999V20.9999C27.25 21.1988 27.329 21.3896 27.4697 21.5302C27.6103 21.6709 27.8011 21.7499 28 21.7499C28.1989 21.7499 28.3897 21.6709 28.5303 21.5302C28.671 21.3896 28.75 21.1988 28.75 20.9999V10.9999C28.75 10.801 28.671 10.6102 28.5303 10.4696C28.3897 10.3289 28.1989 10.2499 28 10.2499ZM26.555 26.4999C26.6889 26.6471 26.7589 26.8415 26.7495 27.0402C26.7402 27.239 26.6522 27.426 26.505 27.5599C26.3578 27.6938 26.1634 27.7638 25.9646 27.7544C25.7659 27.745 25.5789 27.6571 25.445 27.5099L19.75 21.2399V27.9999C19.75 28.1403 19.7107 28.2778 19.6364 28.3969C19.5621 28.516 19.4559 28.6119 19.3298 28.6736C19.2038 28.7353 19.0629 28.7604 18.9233 28.7461C18.7837 28.7317 18.6509 28.6785 18.54 28.5924L9.7425 21.7499H4C3.53587 21.7499 3.09075 21.5655 2.76256 21.2373C2.43437 20.9091 2.25 20.464 2.25 19.9999V11.9999C2.25 11.5358 2.43437 11.0906 2.76256 10.7625C3.09075 10.4343 3.53587 10.2499 4 10.2499H9.75875L5.445 5.49989C5.33253 5.35008 5.28019 5.1636 5.29828 4.97715C5.31638 4.79069 5.40359 4.61776 5.54277 4.49237C5.68195 4.36698 5.86302 4.29822 6.05035 4.29961C6.23767 4.301 6.4177 4.37245 6.555 4.49989L26.555 26.4999ZM18.25 19.5899L11.125 11.7499H4C3.9337 11.7499 3.87011 11.7762 3.82322 11.8231C3.77634 11.87 3.75 11.9336 3.75 11.9999V19.9999C3.75 20.0662 3.77634 20.1298 3.82322 20.1767C3.87011 20.2235 3.9337 20.2499 4 20.2499H10C10.1666 20.2498 10.3284 20.3053 10.46 20.4074L18.25 26.4661V19.5899ZM14.4788 8.46489L18.25 5.53364V13.3536C18.25 13.5526 18.329 13.7433 18.4697 13.884C18.6103 14.0246 18.8011 14.1036 19 14.1036C19.1989 14.1036 19.3897 14.0246 19.5303 13.884C19.671 13.7433 19.75 13.5526 19.75 13.3536V3.99989C19.75 3.85952 19.7107 3.72197 19.6364 3.60287C19.5621 3.48377 19.4559 3.3879 19.3298 3.32618C19.2038 3.26445 19.0629 3.23933 18.9233 3.25369C18.7837 3.26805 18.6509 3.3213 18.54 3.40739L13.5588 7.28239C13.4774 7.34149 13.4088 7.41633 13.357 7.50247C13.3052 7.58861 13.2712 7.68429 13.2571 7.78382C13.243 7.88335 13.249 7.9847 13.2749 8.08185C13.3007 8.17899 13.3458 8.26996 13.4075 8.34933C13.4692 8.4287 13.5462 8.49487 13.634 8.54388C13.7217 8.5929 13.8184 8.62378 13.9184 8.63467C14.0183 8.64557 14.1194 8.63627 14.2157 8.60731C14.3119 8.57836 14.4014 8.53035 14.4788 8.46614V8.46489Z" fill="black"/>
</svg>
