<svg width="32" height="32" viewBox="0 0 32 32" fill="none" xmlns="http://www.w3.org/2000/svg">
<path d="M19.4387 3.10129C19.2706 3.01935 19.0828 2.98622 18.8968 3.00566C18.7107 3.02511 18.5338 3.09635 18.3862 3.21129L9.65625 10H4C3.46957 10 2.96086 10.2108 2.58579 10.5858C2.21071 10.9609 2 11.4696 2 12V20C2 20.5305 2.21071 21.0392 2.58579 21.4143C2.96086 21.7893 3.46957 22 4 22H9.65625L18.3862 28.7888C18.534 28.9036 18.711 28.9747 18.8971 28.994C19.0832 29.0132 19.271 28.9799 19.4391 28.8977C19.6072 28.8155 19.7489 28.6879 19.8481 28.5292C19.9472 28.3705 19.9999 28.1872 20 28V4.00004C20 3.8127 19.9474 3.62912 19.8482 3.47022C19.749 3.31132 19.6071 3.18349 19.4387 3.10129ZM4 12H9V20H4V12ZM18 25.955L11 20.5113V11.4888L18 6.04504V25.955ZM26 16C26.0009 17.2181 25.5563 18.3945 24.75 19.3075C24.5733 19.5017 24.3274 19.6186 24.0653 19.633C23.8032 19.6474 23.546 19.5582 23.3491 19.3846C23.1522 19.211 23.0315 18.9669 23.0129 18.7051C22.9944 18.4433 23.0795 18.1846 23.25 17.985C23.7323 17.4373 23.9984 16.7324 23.9984 16.0025C23.9984 15.2727 23.7323 14.5678 23.25 14.02C23.1607 13.9219 23.0918 13.8071 23.0474 13.6821C23.0029 13.5571 22.9838 13.4245 22.9911 13.2921C22.9984 13.1596 23.0319 13.0299 23.0898 12.9106C23.1477 12.7912 23.2287 12.6846 23.3282 12.5969C23.4277 12.5092 23.5437 12.4421 23.6694 12.3996C23.795 12.3571 23.9279 12.3401 24.0602 12.3495C24.1925 12.3588 24.3217 12.3944 24.4401 12.4542C24.5585 12.514 24.6639 12.5967 24.75 12.6975C25.5545 13.6097 25.9989 14.7838 26 16Z" fill="black"/>
</svg>
