<svg width="32" height="32" viewBox="0 0 32 32" fill="none" xmlns="http://www.w3.org/2000/svg">
<path d="M19.22 3.55114C19.1359 3.50974 19.0418 3.49283 18.9485 3.50233C18.8553 3.51184 18.7665 3.54737 18.6925 3.60489L9.82875 10.4999H4C3.60218 10.4999 3.22064 10.6579 2.93934 10.9392C2.65804 11.2205 2.5 11.6021 2.5 11.9999V19.9999C2.5 20.3977 2.65804 20.7792 2.93934 21.0605C3.22064 21.3419 3.60218 21.4999 4 21.4999H9.82875L18.6925 28.3949C18.7808 28.4626 18.8888 28.4994 19 28.4999C19.0763 28.5002 19.1517 28.4826 19.22 28.4486C19.304 28.4075 19.3747 28.3436 19.4242 28.2643C19.4737 28.185 19.5 28.0934 19.5 27.9999V3.99989C19.5 3.90639 19.4737 3.81478 19.4242 3.73546C19.3747 3.65613 19.304 3.59228 19.22 3.55114ZM3.5 19.9999V11.9999C3.5 11.8673 3.55268 11.7401 3.64645 11.6463C3.74021 11.5526 3.86739 11.4999 4 11.4999H9.5V20.4999H4C3.86739 20.4999 3.74021 20.4472 3.64645 20.3534C3.55268 20.2597 3.5 20.1325 3.5 19.9999ZM18.5 26.9774L10.5 20.7499V11.2499L18.5 5.02739V26.9774ZM25.5 15.9999C25.5003 17.0963 25.1002 18.1551 24.375 18.9774C24.3315 19.0266 24.2787 19.0668 24.2197 19.0957C24.1607 19.1245 24.0965 19.1415 24.0309 19.1455C23.8985 19.1537 23.7682 19.109 23.6688 19.0211C23.5693 18.9333 23.5088 18.8095 23.5006 18.6771C23.4965 18.6115 23.5054 18.5458 23.5268 18.4836C23.5481 18.4215 23.5815 18.3641 23.625 18.3149C24.1875 17.6759 24.4978 16.8537 24.4978 16.0024C24.4978 15.1511 24.1875 14.3289 23.625 13.6899C23.5442 13.5896 23.5052 13.4619 23.5162 13.3335C23.5272 13.2052 23.5874 13.086 23.6841 13.0009C23.7808 12.9158 23.9066 12.8713 24.0354 12.8767C24.1641 12.8821 24.2858 12.937 24.375 13.0299C25.0985 13.8503 25.4984 14.9061 25.5 15.9999Z" fill="black"/>
</svg>
