<svg width="32" height="32" viewBox="0 0 32 32" fill="none" xmlns="http://www.w3.org/2000/svg">
<path opacity="0.08" d="M19 4V28L10 21H4C3.73478 21 3.48043 20.8946 3.29289 20.7071C3.10536 20.5196 3 20.2652 3 20V12C3 11.7348 3.10536 11.4804 3.29289 11.2929C3.48043 11.1054 3.73478 11 4 11H10L19 4Z" fill="black"/>
<path d="M23 19V13C23 12.7348 23.1054 12.4804 23.2929 12.2929C23.4804 12.1053 23.7348 12 24 12C24.2652 12 24.5196 12.1053 24.7071 12.2929C24.8946 12.4804 25 12.7348 25 13V19C25 19.2652 24.8946 19.5196 24.7071 19.7071C24.5196 19.8946 24.2652 20 24 20C23.7348 20 23.4804 19.8946 23.2929 19.7071C23.1054 19.5196 23 19.2652 23 19ZM28 9.99998C27.7348 9.99998 27.4804 10.1053 27.2929 10.2929C27.1054 10.4804 27 10.7348 27 11V21C27 21.2652 27.1054 21.5196 27.2929 21.7071C27.4804 21.8946 27.7348 22 28 22C28.2652 22 28.5196 21.8946 28.7071 21.7071C28.8946 21.5196 29 21.2652 29 21V11C29 10.7348 28.8946 10.4804 28.7071 10.2929C28.5196 10.1053 28.2652 9.99998 28 9.99998ZM26.74 26.3275C26.8302 26.4243 26.9002 26.5381 26.9461 26.6623C26.9919 26.7864 27.0127 26.9184 27.0072 27.0506C27.0017 27.1828 26.97 27.3126 26.9139 27.4325C26.8578 27.5524 26.7785 27.6599 26.6806 27.7489C26.5827 27.8379 26.4681 27.9066 26.3434 27.951C26.2187 27.9953 26.0865 28.0145 25.9543 28.0074C25.8222 28.0003 25.6928 27.967 25.5736 27.9095C25.4544 27.8521 25.3478 27.7715 25.26 27.6725L20 21.8862V28C19.9999 28.1871 19.9472 28.3704 19.8481 28.5291C19.7489 28.6878 19.6072 28.8155 19.4391 28.8977C19.271 28.9798 19.0832 29.0132 18.8971 28.9939C18.711 28.9747 18.534 28.9036 18.3862 28.7887L9.65625 22H4C3.46957 22 2.96086 21.7893 2.58579 21.4142C2.21071 21.0391 2 20.5304 2 20V12C2 11.4696 2.21071 10.9608 2.58579 10.5858C2.96086 10.2107 3.46957 9.99998 4 9.99998H9.19375L5.26 5.67248C5.16983 5.57563 5.09979 5.46183 5.05392 5.33771C5.00806 5.21358 4.98728 5.08158 4.99281 4.94937C4.99833 4.81715 5.03004 4.68735 5.0861 4.56748C5.14216 4.44761 5.22146 4.34006 5.31939 4.25106C5.41732 4.16206 5.53194 4.09338 5.65661 4.04901C5.78128 4.00463 5.91352 3.98545 6.04566 3.99255C6.1778 3.99966 6.30721 4.03293 6.4264 4.09042C6.54559 4.14791 6.65218 4.22849 6.74 4.32748L26.74 26.3275ZM18 19.6862L11.0125 12H4V20H10C10.2225 19.9996 10.4386 20.074 10.6138 20.2112L18 25.955V19.6862ZM14.6325 8.66373L18 6.03873V13.3475C18 13.6127 18.1054 13.8671 18.2929 14.0546C18.4804 14.2421 18.7348 14.3475 19 14.3475C19.2652 14.3475 19.5196 14.2421 19.7071 14.0546C19.8946 13.8671 20 13.6127 20 13.3475V3.99998C19.9999 3.81286 19.9472 3.62954 19.8481 3.47085C19.7489 3.31216 19.6072 3.18447 19.4391 3.10231C19.271 3.02014 19.0832 2.98679 18.8971 3.00604C18.711 3.0253 18.534 3.09639 18.3862 3.21123L13.405 7.08623C13.1998 7.25043 13.0676 7.48879 13.0368 7.74976C13.006 8.01072 13.0791 8.27333 13.2404 8.48078C13.4017 8.68823 13.6382 8.82386 13.8987 8.85833C14.1592 8.8928 14.4228 8.82334 14.6325 8.66498V8.66373Z" fill="black"/>
</svg>
