<svg width="32" height="32" viewBox="0 0 32 32" fill="none" xmlns="http://www.w3.org/2000/svg">
<path d="M24 2.5H8C7.33696 2.5 6.70107 2.76339 6.23223 3.23223C5.76339 3.70107 5.5 4.33696 5.5 5V27C5.5 27.663 5.76339 28.2989 6.23223 28.7678C6.70107 29.2366 7.33696 29.5 8 29.5H24C24.663 29.5 25.2989 29.2366 25.7678 28.7678C26.2366 28.2989 26.5 27.663 26.5 27V5C26.5 4.33696 26.2366 3.70107 25.7678 3.23223C25.2989 2.76339 24.663 2.5 24 2.5ZM23.5 26.5H8.5V5.5H23.5V26.5ZM14 9.5C14 9.10444 14.1173 8.71776 14.3371 8.38886C14.5568 8.05996 14.8692 7.80362 15.2346 7.65224C15.6001 7.50087 16.0022 7.46126 16.3902 7.53843C16.7781 7.6156 17.1345 7.80608 17.4142 8.08579C17.6939 8.36549 17.8844 8.72186 17.9616 9.10982C18.0387 9.49778 17.9991 9.89991 17.8478 10.2654C17.6964 10.6308 17.44 10.9432 17.1111 11.1629C16.7822 11.3827 16.3956 11.5 16 11.5C15.4696 11.5 14.9609 11.2893 14.5858 10.9142C14.2107 10.5391 14 10.0304 14 9.5ZM16 24.5C17.0878 24.5 18.1512 24.1774 19.0556 23.5731C19.9601 22.9687 20.6651 22.1098 21.0813 21.1048C21.4976 20.0998 21.6065 18.9939 21.3943 17.927C21.1821 16.8601 20.6583 15.8801 19.8891 15.1109C19.1199 14.3417 18.1399 13.8179 17.073 13.6057C16.0061 13.3935 14.9002 13.5024 13.8952 13.9187C12.8902 14.3349 12.0313 15.0399 11.4269 15.9444C10.8226 16.8488 10.5 17.9122 10.5 19C10.5017 20.4582 11.0816 21.8562 12.1127 22.8873C13.1438 23.9184 14.5418 24.4983 16 24.5ZM16 16.5C16.4945 16.5 16.9778 16.6466 17.3889 16.9213C17.8 17.196 18.1205 17.5865 18.3097 18.0433C18.4989 18.5001 18.5484 19.0028 18.452 19.4877C18.3555 19.9727 18.1174 20.4181 17.7678 20.7678C17.4181 21.1174 16.9727 21.3555 16.4877 21.452C16.0028 21.5484 15.5001 21.4989 15.0433 21.3097C14.5865 21.1205 14.196 20.8 13.9213 20.3889C13.6466 19.9778 13.5 19.4945 13.5 19C13.5 18.337 13.7634 17.7011 14.2322 17.2322C14.7011 16.7634 15.337 16.5 16 16.5Z" fill="black"/>
</svg>
