<svg width="32" height="32" viewBox="0 0 32 32" fill="none" xmlns="http://www.w3.org/2000/svg">
<path d="M19.22 3.55114C19.1359 3.50974 19.0418 3.49283 18.9485 3.50233C18.8553 3.51184 18.7665 3.54737 18.6925 3.60489L9.82875 10.4999H4C3.60218 10.4999 3.22064 10.6579 2.93934 10.9392C2.65804 11.2205 2.5 11.6021 2.5 11.9999V19.9999C2.5 20.3977 2.65804 20.7792 2.93934 21.0605C3.22064 21.3419 3.60218 21.4999 4 21.4999H9.82875L18.6925 28.3949C18.7808 28.4626 18.8888 28.4994 19 28.4999C19.0763 28.5002 19.1517 28.4826 19.22 28.4486C19.304 28.4075 19.3747 28.3436 19.4242 28.2643C19.4737 28.185 19.5 28.0934 19.5 27.9999V3.99989C19.5 3.90639 19.4737 3.81478 19.4242 3.73546C19.3747 3.65613 19.304 3.59228 19.22 3.55114ZM18.5 26.9774L10.3075 20.6024C10.219 20.5355 10.1109 20.4995 10 20.4999H4C3.86739 20.4999 3.74021 20.4472 3.64645 20.3534C3.55268 20.2597 3.5 20.1325 3.5 19.9999V11.9999C3.5 11.8673 3.55268 11.7401 3.64645 11.6463C3.74021 11.5526 3.86739 11.4999 4 11.4999H10C10.1112 11.4995 10.2193 11.4626 10.3075 11.3949L18.5 5.01989V26.9774ZM30.3538 18.6461C30.4476 18.74 30.5003 18.8672 30.5003 18.9999C30.5003 19.1326 30.4476 19.2598 30.3538 19.3536C30.2599 19.4475 30.1327 19.5002 30 19.5002C29.8673 19.5002 29.7401 19.4475 29.6462 19.3536L27 16.7074L24.3538 19.3536C24.2599 19.4475 24.1327 19.5002 24 19.5002C23.8673 19.5002 23.7401 19.4475 23.6462 19.3536C23.5524 19.2598 23.4997 19.1326 23.4997 18.9999C23.4997 18.8672 23.5524 18.74 23.6462 18.6461L26.2925 15.9999L23.6462 13.3536C23.5524 13.2598 23.4997 13.1326 23.4997 12.9999C23.4997 12.8672 23.5524 12.74 23.6462 12.6461C23.7401 12.5523 23.8673 12.4996 24 12.4996C24.1327 12.4996 24.2599 12.5523 24.3538 12.6461L27 15.2924L29.6462 12.6461C29.6927 12.5997 29.7479 12.5628 29.8086 12.5377C29.8692 12.5126 29.9343 12.4996 30 12.4996C30.0657 12.4996 30.1308 12.5126 30.1914 12.5377C30.2521 12.5628 30.3073 12.5997 30.3538 12.6461C30.4002 12.6926 30.4371 12.7477 30.4622 12.8084C30.4873 12.8691 30.5003 12.9342 30.5003 12.9999C30.5003 13.0656 30.4873 13.1306 30.4622 13.1913C30.4371 13.252 30.4002 13.3072 30.3538 13.3536L27.7075 15.9999L30.3538 18.6461Z" fill="black"/>
</svg>
