<svg width="32" height="32" viewBox="0 0 32 32" fill="none" xmlns="http://www.w3.org/2000/svg">
<path d="M19.4387 3.10129C19.2706 3.01935 19.0828 2.98622 18.8968 3.00566C18.7107 3.02511 18.5338 3.09635 18.3862 3.21129L9.65625 10H4C3.46957 10 2.96086 10.2108 2.58579 10.5858C2.21071 10.9609 2 11.4696 2 12V20C2 20.5305 2.21071 21.0392 2.58579 21.4143C2.96086 21.7893 3.46957 22 4 22H9.65625L18.3862 28.7888C18.534 28.9036 18.711 28.9747 18.8971 28.994C19.0832 29.0132 19.271 28.9799 19.4391 28.8977C19.6072 28.8155 19.7489 28.6879 19.8481 28.5292C19.9472 28.3705 19.9999 28.1872 20 28V4.00004C20 3.8127 19.9474 3.62912 19.8482 3.47022C19.749 3.31132 19.6071 3.18349 19.4387 3.10129ZM18 25.955L10.6138 20.2113C10.4386 20.0741 10.2225 19.9997 10 20H4V12H10C10.2225 12.0004 10.4386 11.926 10.6138 11.7888L18 6.04504V25.955ZM25 13V19C25 19.2653 24.8946 19.5196 24.7071 19.7071C24.5196 19.8947 24.2652 20 24 20C23.7348 20 23.4804 19.8947 23.2929 19.7071C23.1054 19.5196 23 19.2653 23 19V13C23 12.7348 23.1054 12.4805 23.2929 12.2929C23.4804 12.1054 23.7348 12 24 12C24.2652 12 24.5196 12.1054 24.7071 12.2929C24.8946 12.4805 25 12.7348 25 13Z" fill="black"/>
</svg>
