<svg width="32" height="32" viewBox="0 0 32 32" fill="none" xmlns="http://www.w3.org/2000/svg">
<path d="M19.4387 3.10129C19.2706 3.01935 19.0828 2.98622 18.8968 3.00566C18.7107 3.02511 18.5338 3.09635 18.3862 3.21129L9.65625 10H4C3.46957 10 2.96086 10.2108 2.58579 10.5858C2.21071 10.9609 2 11.4696 2 12V20C2 20.5305 2.21071 21.0392 2.58579 21.4143C2.96086 21.7893 3.46957 22 4 22H9.65625L18.3862 28.7888C18.534 28.9036 18.711 28.9747 18.8971 28.994C19.0832 29.0132 19.271 28.9799 19.4391 28.8977C19.6072 28.8155 19.7489 28.6879 19.8481 28.5292C19.9472 28.3705 19.9999 28.1872 20 28V4.00004C20 3.8127 19.9474 3.62912 19.8482 3.47022C19.749 3.31132 19.6071 3.18349 19.4387 3.10129ZM4 12H9V20H4V12Z" fill="black"/>
<path d="M28.4138 16.0001L30.7075 13.7076C30.8951 13.5199 31.0006 13.2654 31.0006 13.0001C31.0006 12.7347 30.8951 12.4802 30.7075 12.2926C30.5199 12.1049 30.2654 11.9995 30 11.9995C29.7346 11.9995 29.4801 12.1049 29.2925 12.2926L27 14.5863L24.7075 12.2926C24.5199 12.1049 24.2654 11.9995 24 11.9995C23.7346 11.9995 23.4801 12.1049 23.2925 12.2926C23.1049 12.4802 22.9995 12.7347 22.9995 13.0001C22.9995 13.2654 23.1049 13.5199 23.2925 13.7076L25.5863 16.0001L23.2925 18.2926C23.1049 18.4802 22.9995 18.7347 22.9995 19.0001C22.9995 19.2654 23.1049 19.5199 23.2925 19.7076C23.4801 19.8952 23.7346 20.0006 24 20.0006C24.2654 20.0006 24.5199 19.8952 24.7075 19.7076L27 17.4138L29.2925 19.7076C29.4801 19.8952 29.7346 20.0006 30 20.0006C30.2654 20.0006 30.5199 19.8952 30.7075 19.7076C30.8951 19.5199 31.0006 19.2654 31.0006 19.0001C31.0006 18.7347 30.8951 18.4802 30.7075 18.2926L28.4138 16.0001Z" fill="black"/>
</svg>
