<svg width="32" height="32" viewBox="0 0 32 32" fill="none" xmlns="http://www.w3.org/2000/svg">
<path d="M19.6588 2.65243C19.4065 2.52909 19.1246 2.47904 18.8453 2.50799C18.566 2.53694 18.3004 2.64372 18.0788 2.81618L9.485 9.49993H4C3.33696 9.49993 2.70107 9.76332 2.23223 10.2322C1.76339 10.701 1.5 11.3369 1.5 11.9999V19.9999C1.5 20.663 1.76339 21.2989 2.23223 21.7677C2.70107 22.2365 3.33696 22.4999 4 22.4999H9.485L18.0788 29.1837C18.3004 29.3562 18.566 29.463 18.8453 29.4919C19.1247 29.5209 19.4065 29.4708 19.6588 29.3475C19.9111 29.2241 20.1237 29.0324 20.2724 28.7942C20.4212 28.556 20.5 28.2808 20.5 27.9999V3.99993C20.5 3.71909 20.4211 3.4439 20.2724 3.20568C20.1237 2.96745 19.9111 2.77576 19.6588 2.65243ZM17.5 24.9337L10.9213 19.8162C10.6579 19.6112 10.3337 19.4999 10 19.4999H4.5V12.4999H10C10.3337 12.4999 10.6579 12.3886 10.9213 12.1837L17.5 7.06743V24.9337ZM31.0613 17.9399C31.2008 18.0795 31.3115 18.2451 31.387 18.4274C31.4625 18.6097 31.5014 18.8051 31.5014 19.0024C31.5014 19.1998 31.4625 19.3951 31.387 19.5774C31.3115 19.7598 31.2008 19.9254 31.0613 20.0649C30.9217 20.2045 30.7561 20.3151 30.5738 20.3907C30.3915 20.4662 30.1961 20.505 29.9988 20.505C29.8014 20.505 29.606 20.4662 29.4237 20.3907C29.2414 20.3151 29.0758 20.2045 28.9363 20.0649L27 18.1249L25.0613 20.0649C24.7795 20.3467 24.3973 20.505 23.9988 20.505C23.6002 20.505 23.218 20.3467 22.9363 20.0649C22.6545 19.7831 22.4961 19.4009 22.4961 19.0024C22.4961 18.6039 22.6545 18.2217 22.9363 17.9399L24.875 15.9999L22.935 14.0612C22.6532 13.7794 22.4949 13.3972 22.4949 12.9987C22.4949 12.6002 22.6532 12.218 22.935 11.9362C23.2168 11.6544 23.599 11.4961 23.9975 11.4961C24.396 11.4961 24.7782 11.6544 25.06 11.9362L27 13.8749L28.9387 11.9362C29.2205 11.6544 29.6027 11.4961 30.0012 11.4961C30.3998 11.4961 30.782 11.6544 31.0637 11.9362C31.3455 12.218 31.5039 12.6002 31.5039 12.9987C31.5039 13.3972 31.3455 13.7794 31.0637 14.0612L29.125 15.9999L31.0613 17.9399Z" fill="black"/>
</svg>
