<svg width="32" height="32" viewBox="0 0 32 32" fill="none" xmlns="http://www.w3.org/2000/svg">
<path d="M23.5 19V13C23.5 12.8674 23.5527 12.7402 23.6464 12.6465C23.7402 12.5527 23.8674 12.5 24 12.5C24.1326 12.5 24.2598 12.5527 24.3536 12.6465C24.4473 12.7402 24.5 12.8674 24.5 13V19C24.5 19.1326 24.4473 19.2598 24.3536 19.3536C24.2598 19.4473 24.1326 19.5 24 19.5C23.8674 19.5 23.7402 19.4473 23.6464 19.3536C23.5527 19.2598 23.5 19.1326 23.5 19ZM28 10.5C27.8674 10.5 27.7402 10.5527 27.6464 10.6465C27.5527 10.7402 27.5 10.8674 27.5 11V21C27.5 21.1326 27.5527 21.2598 27.6464 21.3536C27.7402 21.4473 27.8674 21.5 28 21.5C28.1326 21.5 28.2598 21.4473 28.3536 21.3536C28.4473 21.2598 28.5 21.1326 28.5 21V11C28.5 10.8674 28.4473 10.7402 28.3536 10.6465C28.2598 10.5527 28.1326 10.5 28 10.5ZM26.375 26.6638C26.4201 26.7122 26.4551 26.7691 26.478 26.8311C26.501 26.8932 26.5114 26.9592 26.5086 27.0253C26.5058 27.0914 26.49 27.1563 26.4619 27.2163C26.4339 27.2762 26.3943 27.33 26.3453 27.3745C26.2963 27.419 26.239 27.4533 26.1767 27.4755C26.1144 27.4977 26.0482 27.5073 25.9822 27.5037C25.9161 27.5002 25.8514 27.4835 25.7918 27.4548C25.7322 27.426 25.6789 27.3858 25.635 27.3363L19.51 20.5938V28C19.51 28.0935 19.4837 28.1851 19.4342 28.2644C19.3847 28.3438 19.314 28.4076 19.23 28.4488C19.1586 28.4843 19.0797 28.5019 19 28.5C18.8888 28.4996 18.7808 28.4627 18.6925 28.395L9.82875 21.5H4C3.60218 21.5 3.22064 21.342 2.93934 21.0607C2.65804 20.7794 2.5 20.3978 2.5 20V12C2.5 11.6022 2.65804 11.2206 2.93934 10.9393C3.22064 10.658 3.60218 10.5 4 10.5H10.3237L5.625 5.33625C5.53582 5.2368 5.4898 5.10599 5.49707 4.9726C5.50434 4.83922 5.56429 4.71418 5.66375 4.625C5.76321 4.53583 5.89402 4.48981 6.0274 4.49708C6.16079 4.50434 6.28582 4.5643 6.375 4.66375L26.375 26.6638ZM18.5 19.5L11.2338 11.5H4C3.86739 11.5 3.74021 11.5527 3.64645 11.6465C3.55268 11.7402 3.5 11.8674 3.5 12V20C3.5 20.1326 3.55268 20.2598 3.64645 20.3536C3.74021 20.4473 3.86739 20.5 4 20.5H10C10.1112 20.5004 10.2193 20.5373 10.3075 20.605L18.5 26.98V19.5ZM14.3263 8.275L18.5 5.025V13.3563C18.5 13.4889 18.5527 13.616 18.6464 13.7098C18.7402 13.8036 18.8674 13.8563 19 13.8563C19.1326 13.8563 19.2598 13.8036 19.3536 13.7098C19.4473 13.616 19.5 13.4889 19.5 13.3563V4C19.5001 3.90628 19.4739 3.81441 19.4244 3.73487C19.3748 3.65532 19.3039 3.59131 19.2197 3.55012C19.1355 3.50894 19.0415 3.49225 18.9482 3.50196C18.855 3.51166 18.7664 3.54737 18.6925 3.605L13.7113 7.48C13.6067 7.56156 13.5387 7.68132 13.5224 7.81295C13.5062 7.94458 13.5428 8.07729 13.6244 8.18188C13.7059 8.28647 13.8257 8.35439 13.9573 8.37068C14.0889 8.38697 14.2217 8.35031 14.3263 8.26875V8.275Z" fill="black"/>
</svg>
