<svg width="32" height="32" viewBox="0 0 32 32" fill="none" xmlns="http://www.w3.org/2000/svg">
<path d="M30 11V21C30 21.3978 29.842 21.7793 29.5607 22.0606C29.2794 22.342 28.8978 22.5 28.5 22.5C28.1022 22.5 27.7206 22.342 27.4393 22.0606C27.158 21.7793 27 21.3978 27 21V11C27 10.6022 27.158 10.2206 27.4393 9.93933C27.7206 9.65802 28.1022 9.49999 28.5 9.49999C28.8978 9.49999 29.2794 9.65802 29.5607 9.93933C29.842 10.2206 30 10.6022 30 11ZM27.11 25.9912C27.2453 26.1365 27.3503 26.3072 27.4191 26.4934C27.4879 26.6796 27.5191 26.8776 27.5108 27.0759C27.5025 27.2742 27.4549 27.4689 27.3708 27.6487C27.2868 27.8286 27.1678 27.9899 27.0209 28.1234C26.874 28.2569 26.7021 28.3599 26.5151 28.4264C26.3281 28.493 26.1297 28.5218 25.9315 28.5111C25.7333 28.5005 25.5392 28.4506 25.3604 28.3643C25.1816 28.2781 25.0217 28.1572 24.89 28.0087L20.5 23.18V28C20.5 28.2808 20.4212 28.556 20.2724 28.7943C20.1237 29.0325 19.9111 29.2242 19.6588 29.3475C19.4065 29.4709 19.1247 29.5209 18.8453 29.492C18.566 29.463 18.3004 29.3562 18.0788 29.1837L9.485 22.5H4C3.33696 22.5 2.70107 22.2366 2.23223 21.7678C1.76339 21.2989 1.5 20.663 1.5 20V12C1.5 11.3369 1.76339 10.7011 2.23223 10.2322C2.70107 9.76338 3.33696 9.49999 4 9.49999H8.06375L4.89 6.00874C4.75475 5.86345 4.64968 5.69276 4.58088 5.50657C4.51208 5.32038 4.48093 5.12238 4.48921 4.92406C4.4975 4.72574 4.54506 4.53103 4.62915 4.35123C4.71324 4.17142 4.83218 4.0101 4.97908 3.8766C5.12598 3.7431 5.29791 3.64008 5.48492 3.57352C5.67192 3.50696 5.87028 3.47818 6.06849 3.48884C6.2667 3.49951 6.46082 3.5494 6.6396 3.63564C6.81838 3.72188 6.97827 3.84275 7.11 3.99124L27.11 25.9912ZM17.5 19.875L10.7913 12.5H4.5V19.5H10C10.3337 19.5 10.6579 19.6113 10.9213 19.8162L17.5 24.9325V19.875ZM15.7312 8.43749L17.5 7.06249V11.8625C17.5 12.2603 17.658 12.6418 17.9393 12.9231C18.2206 13.2045 18.6022 13.3625 19 13.3625C19.3978 13.3625 19.7794 13.2045 20.0607 12.9231C20.342 12.6418 20.5 12.2603 20.5 11.8625V3.99999C20.5 3.71915 20.4212 3.44395 20.2724 3.20572C20.1237 2.96748 19.9111 2.77578 19.6588 2.65243C19.4065 2.52908 19.1247 2.47904 18.8453 2.508C18.566 2.53696 18.3004 2.64375 18.0788 2.81624L13.89 6.07499C13.7294 6.19404 13.5943 6.34398 13.4925 6.51601C13.3907 6.68803 13.3243 6.87866 13.2973 7.0767C13.2702 7.27473 13.283 7.47619 13.3349 7.66922C13.3867 7.86225 13.4767 8.04296 13.5994 8.20074C13.7221 8.35852 13.8751 8.49019 14.0494 8.588C14.2237 8.68581 14.4158 8.7478 14.6144 8.77032C14.813 8.79284 15.0141 8.77544 15.2059 8.71915C15.3977 8.66285 15.5763 8.56878 15.7312 8.44249V8.43749ZM24 18.8675C24.3978 18.8675 24.7794 18.7095 25.0607 18.4281C25.342 18.1468 25.5 17.7653 25.5 17.3675V13C25.5 12.6022 25.342 12.2206 25.0607 11.9393C24.7794 11.658 24.3978 11.5 24 11.5C23.6022 11.5 23.2206 11.658 22.9393 11.9393C22.658 12.2206 22.5 12.6022 22.5 13V17.3675C22.5 17.7653 22.658 18.1468 22.9393 18.4281C23.2206 18.7095 23.6022 18.8675 24 18.8675Z" fill="black"/>
</svg>
