<svg width="32" height="32" viewBox="0 0 32 32" fill="none" xmlns="http://www.w3.org/2000/svg">
<path d="M6.74 4.3274C6.65218 4.2284 6.54559 4.14783 6.4264 4.09033C6.30721 4.03284 6.1778 3.99958 6.04566 3.99247C5.91352 3.98536 5.78128 4.00455 5.65661 4.04892C5.53194 4.0933 5.41732 4.16197 5.31939 4.25097C5.22146 4.33997 5.14216 4.44752 5.0861 4.56739C5.03004 4.68726 4.99833 4.81706 4.99281 4.94928C4.98728 5.08149 5.00806 5.21349 5.05392 5.33762C5.09979 5.46175 5.16983 5.57554 5.26 5.6724L9.19375 9.9999H4C3.46957 9.9999 2.96086 10.2106 2.58579 10.5857C2.21071 10.9608 2 11.4695 2 11.9999V19.9999C2 20.5303 2.21071 21.039 2.58579 21.4141C2.96086 21.7892 3.46957 21.9999 4 21.9999H9.65625L18.3862 28.7886C18.534 28.9035 18.711 28.9746 18.8971 28.9938C19.0832 29.0131 19.271 28.9797 19.4391 28.8976C19.6072 28.8154 19.7489 28.6877 19.8481 28.529C19.9472 28.3703 19.9999 28.187 20 27.9999V21.8861L25.26 27.6724C25.3478 27.7714 25.4544 27.852 25.5736 27.9095C25.6928 27.967 25.8222 28.0002 25.9543 28.0073C26.0865 28.0144 26.2187 27.9952 26.3434 27.9509C26.4681 27.9065 26.5827 27.8378 26.6806 27.7488C26.7785 27.6598 26.8578 27.5523 26.9139 27.4324C26.97 27.3125 27.0017 27.1827 27.0072 27.0505C27.0127 26.9183 26.9919 26.7863 26.9461 26.6622C26.9002 26.538 26.8302 26.4243 26.74 26.3274L6.74 4.3274ZM4 11.9999H9V19.9999H4V11.9999ZM18 25.9549L11 20.5111V11.9861L18 19.6861V25.9549ZM23.25 17.9836C23.7323 17.4359 23.9984 16.731 23.9984 16.0011C23.9984 15.2713 23.7323 14.5664 23.25 14.0186C23.1581 13.921 23.0868 13.8059 23.0403 13.6801C22.9939 13.5543 22.9731 13.4205 22.9794 13.2866C22.9857 13.1526 23.0189 13.0213 23.0769 12.9005C23.135 12.7796 23.2167 12.6716 23.3174 12.583C23.418 12.4944 23.5354 12.4269 23.6626 12.3846C23.7898 12.3422 23.9243 12.3259 24.0579 12.3366C24.1916 12.3473 24.3217 12.3847 24.4406 12.4467C24.5595 12.5087 24.6647 12.5939 24.75 12.6974C25.5543 13.6105 25.9981 14.7856 25.9981 16.0024C25.9981 17.2192 25.5543 18.3943 24.75 19.3074C24.6631 19.4059 24.5576 19.4863 24.4396 19.544C24.3216 19.6018 24.1934 19.6357 24.0623 19.6439C23.9312 19.6521 23.7998 19.6343 23.6755 19.5917C23.5513 19.5491 23.4366 19.4824 23.3381 19.3955C23.2396 19.3086 23.1592 19.2031 23.1015 19.0851C23.0438 18.9671 23.0098 18.8389 23.0017 18.7078C22.9935 18.5767 23.0112 18.4453 23.0538 18.321C23.0964 18.1968 23.1631 18.0821 23.25 17.9836ZM13.23 8.48365C13.1493 8.38 13.0898 8.26146 13.0549 8.13481C13.02 8.00816 13.0104 7.87587 13.0267 7.74551C13.0429 7.61515 13.0847 7.48927 13.1496 7.37506C13.2145 7.26085 13.3013 7.16055 13.405 7.0799L18.3862 3.2049C18.5344 3.08972 18.712 3.01856 18.8987 2.99954C19.0853 2.98051 19.2736 3.01441 19.4419 3.09733C19.6103 3.18026 19.7519 3.30888 19.8506 3.46849C19.9492 3.62809 20.001 3.81225 20 3.9999V13.3536C20 13.6189 19.8946 13.8732 19.7071 14.0608C19.5196 14.2483 19.2652 14.3536 19 14.3536C18.7348 14.3536 18.4804 14.2483 18.2929 14.0608C18.1054 13.8732 18 13.6189 18 13.3536V6.0449L14.6325 8.6699C14.4225 8.83184 14.1567 8.90371 13.8937 8.86972C13.6307 8.83573 13.392 8.69866 13.23 8.48865V8.48365ZM31 15.9999C31.0014 18.4602 30.0947 20.8344 28.4538 22.6674C28.2756 22.8601 28.0288 22.9751 27.7667 22.9876C27.5045 23 27.248 22.9088 27.0524 22.7338C26.8568 22.5587 26.7379 22.3138 26.7214 22.0519C26.7048 21.7899 26.7918 21.532 26.9638 21.3336C28.2755 19.8669 29.0007 17.9682 29.0007 16.0005C29.0007 14.0328 28.2755 12.1341 26.9638 10.6674C26.8737 10.57 26.804 10.4556 26.7586 10.331C26.7131 10.2063 26.693 10.0739 26.6993 9.94137C26.7055 9.80885 26.7381 9.67892 26.7951 9.55912C26.8521 9.43932 26.9323 9.33206 27.0312 9.24358C27.13 9.1551 27.2455 9.08718 27.3708 9.04376C27.4962 9.00034 27.6289 8.98229 27.7613 8.99067C27.8937 8.99906 28.0231 9.0337 28.142 9.09258C28.2609 9.15146 28.3669 9.23341 28.4538 9.33365C30.0952 11.1659 31.002 13.5399 31 15.9999Z" fill="black"/>
</svg>
