<svg width="32" height="32" viewBox="0 0 32 32" fill="none" xmlns="http://www.w3.org/2000/svg">
<path d="M6.375 4.66376C6.28582 4.5643 6.16079 4.50435 6.0274 4.49708C5.89402 4.48981 5.76321 4.53583 5.66375 4.62501C5.56429 4.71419 5.50434 4.83922 5.49707 4.97261C5.4898 5.10599 5.53582 5.2368 5.625 5.33626L10.125 10.2738L9.82875 10.5H4C3.60218 10.5 3.22064 10.658 2.93934 10.9393C2.65804 11.2207 2.5 11.6022 2.5 12V20C2.5 20.3978 2.65804 20.7794 2.93934 21.0607C3.22064 21.342 3.60218 21.5 4 21.5H9.82875L18.6925 28.395C18.7808 28.4627 18.8888 28.4996 19 28.5C19.0763 28.5003 19.1517 28.4827 19.22 28.4488C19.304 28.4076 19.3747 28.3438 19.4242 28.2644C19.4737 28.1851 19.5 28.0935 19.5 28V20.5938L25.625 27.3363C25.6689 27.3858 25.7222 27.426 25.7818 27.4548C25.8414 27.4835 25.9061 27.5002 25.9722 27.5037C26.0382 27.5073 26.1044 27.4977 26.1667 27.4755C26.229 27.4533 26.2863 27.419 26.3353 27.3745C26.3843 27.33 26.4239 27.2762 26.4519 27.2163C26.48 27.1563 26.4958 27.0914 26.4986 27.0253C26.5014 26.9592 26.491 26.8932 26.468 26.8311C26.4451 26.7691 26.4101 26.7122 26.365 26.6638L6.375 4.66376ZM3.5 20V12C3.5 11.8674 3.55268 11.7402 3.64645 11.6465C3.74021 11.5527 3.86739 11.5 4 11.5H9.5V20.5H4C3.86739 20.5 3.74021 20.4473 3.64645 20.3536C3.55268 20.2598 3.5 20.1326 3.5 20ZM18.5 26.9775L10.5 20.75V11.25L10.7937 11.0213L18.5 19.5V26.9775ZM23.625 18.315C24.1875 17.676 24.4978 16.8538 24.4978 16.0025C24.4978 15.1512 24.1875 14.329 23.625 13.69C23.5804 13.641 23.5459 13.5835 23.5237 13.521C23.5015 13.4585 23.4919 13.3922 23.4955 13.326C23.4992 13.2598 23.516 13.195 23.5449 13.1353C23.5738 13.0756 23.6144 13.0223 23.6641 12.9784C23.7139 12.9346 23.7719 12.901 23.8347 12.8798C23.8975 12.8586 23.9639 12.85 24.0301 12.8547C24.0963 12.8594 24.1608 12.8772 24.22 12.9071C24.2792 12.937 24.3319 12.9783 24.375 13.0288C25.0988 13.8505 25.4982 14.908 25.4982 16.0031C25.4982 17.0982 25.0988 18.1557 24.375 18.9775C24.3319 19.0279 24.2792 19.0693 24.22 19.0992C24.1608 19.1291 24.0963 19.1469 24.0301 19.1515C23.9639 19.1562 23.8975 19.1477 23.8347 19.1265C23.7719 19.1052 23.7139 19.0717 23.6641 19.0278C23.6144 18.984 23.5738 18.9307 23.5449 18.871C23.516 18.8113 23.4992 18.7465 23.4955 18.6802C23.4919 18.614 23.5015 18.5477 23.5237 18.4852C23.5459 18.4228 23.5804 18.3653 23.625 18.3163V18.315ZM13.625 8.18126C13.5437 8.07663 13.5072 7.94401 13.5236 7.81253C13.54 7.68104 13.608 7.56144 13.7125 7.48001L18.6938 3.60501C18.7677 3.54774 18.8562 3.51234 18.9492 3.50283C19.0422 3.49333 19.136 3.5101 19.22 3.55124C19.3039 3.59237 19.3747 3.65623 19.4242 3.73556C19.4737 3.81489 19.5 3.90651 19.5 4.00001V13.3538C19.5 13.4864 19.4473 13.6135 19.3536 13.7073C19.2598 13.8011 19.1326 13.8538 19 13.8538C18.8674 13.8538 18.7402 13.8011 18.6464 13.7073C18.5527 13.6135 18.5 13.4864 18.5 13.3538V5.02251L14.3263 8.27251C14.2742 8.31257 14.2148 8.34198 14.1514 8.35908C14.088 8.37617 14.0218 8.38061 13.9567 8.37213C13.8916 8.36366 13.8288 8.34244 13.7719 8.30969C13.715 8.27694 13.665 8.2333 13.625 8.18126ZM30.5 16C30.5016 18.3372 29.6403 20.5926 28.0812 22.3338C27.9927 22.4332 27.8683 22.4934 27.7354 22.5012C27.6025 22.5089 27.472 22.4635 27.3725 22.375C27.273 22.2865 27.2128 22.1621 27.2051 22.0292C27.1974 21.8963 27.2427 21.7657 27.3312 21.6663C28.7249 20.1079 29.4954 18.0906 29.4954 16C29.4954 13.9094 28.7249 11.8921 27.3312 10.3338C27.2427 10.2343 27.1974 10.1038 27.2051 9.97084C27.2128 9.83792 27.273 9.71353 27.3725 9.62501C27.472 9.53649 27.6025 9.49111 27.7354 9.49885C27.8683 9.50658 27.9927 9.5668 28.0812 9.66626C29.6403 11.4074 30.5016 13.6629 30.5 16Z" fill="black"/>
</svg>
