<svg width="32" height="32" viewBox="0 0 32 32" fill="none" xmlns="http://www.w3.org/2000/svg">
<path d="M19.6588 2.65243C19.4065 2.52909 19.1246 2.47904 18.8453 2.50799C18.566 2.53694 18.3004 2.64372 18.0788 2.81618L9.485 9.49993H4C3.33696 9.49993 2.70107 9.76332 2.23223 10.2322C1.76339 10.701 1.5 11.3369 1.5 11.9999V19.9999C1.5 20.663 1.76339 21.2989 2.23223 21.7677C2.70107 22.2365 3.33696 22.4999 4 22.4999H9.485L18.0788 29.1837C18.3004 29.3562 18.566 29.463 18.8453 29.4919C19.1247 29.5209 19.4065 29.4708 19.6588 29.3475C19.9111 29.2241 20.1237 29.0324 20.2724 28.7942C20.4212 28.556 20.5 28.2808 20.5 27.9999V3.99993C20.5 3.71909 20.4211 3.4439 20.2724 3.20568C20.1237 2.96745 19.9111 2.77576 19.6588 2.65243ZM17.5 24.9324L10.9213 19.8162C10.6579 19.6112 10.3337 19.4999 10 19.4999H4.5V12.4999H10C10.3337 12.4999 10.6579 12.3886 10.9213 12.1837L17.5 7.06743V24.9324Z" fill="black"/>
</svg>
