<svg width="32" height="32" viewBox="0 0 32 32" fill="none" xmlns="http://www.w3.org/2000/svg">
<path d="M26 16C26.0009 17.2181 25.5563 18.3944 24.75 19.3075C24.5733 19.5016 24.3274 19.6185 24.0653 19.6329C23.8032 19.6473 23.546 19.5581 23.3491 19.3845C23.1522 19.2109 23.0315 18.9669 23.0129 18.705C22.9944 18.4432 23.0795 18.1846 23.25 17.985C23.7323 17.4372 23.9984 16.7324 23.9984 16.0025C23.9984 15.2726 23.7323 14.5678 23.25 14.02C23.0795 13.8204 22.9944 13.5618 23.0129 13.2999C23.0315 13.0381 23.1522 12.7941 23.3491 12.6205C23.546 12.4469 23.8032 12.3577 24.0653 12.3721C24.3274 12.3865 24.5733 12.5034 24.75 12.6975C25.5545 13.6097 25.9989 14.7838 26 16ZM20 3.99998V28C19.9999 28.1871 19.9472 28.3704 19.8481 28.5291C19.7489 28.6878 19.6072 28.8155 19.4391 28.8977C19.271 28.9798 19.0832 29.0132 18.8971 28.9939C18.711 28.9747 18.534 28.9036 18.3862 28.7887L9.65625 22H4C3.46957 22 2.96086 21.7893 2.58579 21.4142C2.21071 21.0391 2 20.5304 2 20V12C2 11.4696 2.21071 10.9608 2.58579 10.5858C2.96086 10.2107 3.46957 9.99998 4 9.99998H9.65625L18.3862 3.21123C18.534 3.09639 18.711 3.0253 18.8971 3.00604C19.0832 2.98679 19.271 3.02014 19.4391 3.10231C19.6072 3.18447 19.7489 3.31216 19.8481 3.47085C19.9472 3.62954 19.9999 3.81286 20 3.99998ZM9 12H4V20H9V12Z" fill="black"/>
</svg>
