<svg width="32" height="32" viewBox="0 0 32 32" fill="none" xmlns="http://www.w3.org/2000/svg">
<path d="M19.33 3.32621C19.2039 3.26445 19.063 3.23933 18.9234 3.25369C18.7837 3.26806 18.6509 3.32133 18.54 3.40746L9.7425 10.25H4C3.53587 10.25 3.09075 10.4343 2.76256 10.7625C2.43437 11.0907 2.25 11.5358 2.25 12V20C2.25 20.4641 2.43437 20.9092 2.76256 21.2374C3.09075 21.5656 3.53587 21.75 4 21.75H9.7425L18.54 28.5925C18.6509 28.6786 18.7837 28.7318 18.9233 28.7462C19.0629 28.7605 19.2038 28.7354 19.3298 28.6737C19.4559 28.6119 19.5621 28.5161 19.6364 28.397C19.7107 28.2779 19.75 28.1403 19.75 28V3.99996C19.75 3.85961 19.7107 3.72206 19.6365 3.60295C19.5622 3.48385 19.456 3.38797 19.33 3.32621ZM3.75 20V12C3.75 11.9337 3.77634 11.8701 3.82322 11.8232C3.87011 11.7763 3.9337 11.75 4 11.75H9.25V20.25H4C3.9337 20.25 3.87011 20.2236 3.82322 20.1767C3.77634 20.1299 3.75 20.0663 3.75 20ZM18.25 26.4662L10.75 20.6337V11.3662L18.25 5.53371V26.4662ZM24.5662 12.86C25.3305 13.7274 25.7521 14.8439 25.7521 16C25.7521 17.1561 25.3305 18.2725 24.5662 19.14C24.5011 19.2138 24.422 19.2741 24.3335 19.3174C24.245 19.3608 24.1489 19.3862 24.0506 19.3924C23.9523 19.3985 23.8537 19.3852 23.7605 19.3533C23.6673 19.3214 23.5814 19.2714 23.5075 19.2062C23.4336 19.141 23.3733 19.062 23.33 18.9735C23.2867 18.885 23.2613 18.7889 23.2551 18.6906C23.2489 18.5922 23.2622 18.4937 23.2942 18.4005C23.3261 18.3073 23.3761 18.2213 23.4412 18.1475C23.964 17.554 24.2524 16.7902 24.2524 15.9993C24.2524 15.2085 23.964 14.4447 23.4412 13.8512C23.3164 13.7011 23.2549 13.5083 23.27 13.3136C23.2851 13.119 23.3755 12.9378 23.5219 12.8088C23.6684 12.6797 23.8595 12.6128 24.0545 12.6224C24.2495 12.632 24.4331 12.7172 24.5662 12.86ZM30.75 16C30.7517 18.3985 29.8677 20.7132 28.2675 22.5C28.2026 22.576 28.1231 22.6382 28.0338 22.6831C27.9445 22.7279 27.8471 22.7545 27.7474 22.7612C27.6477 22.7678 27.5476 22.7545 27.4531 22.722C27.3586 22.6895 27.2716 22.6384 27.1971 22.5717C27.1226 22.5051 27.0622 22.4242 27.0194 22.3339C26.9766 22.2436 26.9523 22.1456 26.948 22.0458C26.9436 21.9459 26.9592 21.8462 26.9939 21.7525C27.0286 21.6587 27.0817 21.5729 27.15 21.5C28.5029 19.9874 29.2508 18.0293 29.2508 16C29.2508 13.9706 28.5029 12.0125 27.15 10.5C27.0817 10.427 27.0286 10.3412 26.9939 10.2475C26.9592 10.1537 26.9436 10.054 26.948 9.95416C26.9523 9.85431 26.9766 9.75635 27.0194 9.66602C27.0622 9.5757 27.1226 9.49484 27.1971 9.42819C27.2716 9.36154 27.3586 9.31045 27.4531 9.27792C27.5476 9.24539 27.6477 9.23208 27.7474 9.23877C27.8471 9.24545 27.9445 9.27201 28.0338 9.31686C28.1231 9.36171 28.2026 9.42397 28.2675 9.49996C29.8677 11.2867 30.7517 13.6014 30.75 16Z" fill="black"/>
</svg>
