<svg width="32" height="32" viewBox="0 0 32 32" fill="none" xmlns="http://www.w3.org/2000/svg">
<path d="M27.5 19.0002C27.5 19.398 27.342 19.7796 27.0607 20.0609C26.7794 20.3422 26.3978 20.5002 26 20.5002H17.5V25.3752L18.9387 23.9352C19.2205 23.6534 19.6027 23.4951 20.0012 23.4951C20.3998 23.4951 20.782 23.6534 21.0637 23.9352C21.3455 24.217 21.5039 24.5992 21.5039 24.9977C21.5039 25.3962 21.3455 25.7784 21.0637 26.0602L17.0637 30.0602C16.9244 30.2 16.7588 30.311 16.5765 30.3867C16.3941 30.4624 16.1987 30.5014 16.0012 30.5014C15.8038 30.5014 15.6083 30.4624 15.426 30.3867C15.2437 30.311 15.0781 30.2 14.9388 30.0602L10.9388 26.0602C10.7992 25.9207 10.6885 25.755 10.613 25.5727C10.5375 25.3904 10.4986 25.195 10.4986 24.9977C10.4986 24.8004 10.5375 24.605 10.613 24.4227C10.6885 24.2404 10.7992 24.0747 10.9388 23.9352C11.0783 23.7957 11.2439 23.685 11.4262 23.6095C11.6085 23.534 11.8039 23.4951 12.0013 23.4951C12.1986 23.4951 12.394 23.534 12.5763 23.6095C12.7586 23.685 12.9242 23.7957 13.0638 23.9352L14.5 25.3752V20.5002H6C5.60218 20.5002 5.22064 20.3422 4.93934 20.0609C4.65804 19.7796 4.5 19.398 4.5 19.0002C4.5 18.6024 4.65804 18.2209 4.93934 17.9395C5.22064 17.6582 5.60218 17.5002 6 17.5002H26C26.3978 17.5002 26.7794 17.6582 27.0607 17.9395C27.342 18.2209 27.5 18.6024 27.5 19.0002ZM6 14.5002H26C26.3978 14.5002 26.7794 14.3422 27.0607 14.0609C27.342 13.7796 27.5 13.398 27.5 13.0002C27.5 12.6024 27.342 12.2208 27.0607 11.9395C26.7794 11.6582 26.3978 11.5002 26 11.5002H17.5V6.62521L18.9387 8.06521C19.0783 8.20474 19.2439 8.31542 19.4262 8.39093C19.6085 8.46644 19.8039 8.50531 20.0012 8.50531C20.1986 8.50531 20.394 8.46644 20.5763 8.39093C20.7586 8.31542 20.9242 8.20474 21.0637 8.06521C21.2033 7.92568 21.314 7.76003 21.3895 7.57773C21.465 7.39542 21.5039 7.20003 21.5039 7.00271C21.5039 6.80538 21.465 6.60999 21.3895 6.42769C21.314 6.24538 21.2033 6.07974 21.0637 5.94021L17.0637 1.94021C16.9244 1.80037 16.7588 1.68941 16.5765 1.6137C16.3941 1.53799 16.1987 1.49902 16.0012 1.49902C15.8038 1.49902 15.6083 1.53799 15.426 1.6137C15.2437 1.68941 15.0781 1.80037 14.9388 1.94021L10.9388 5.94021C10.657 6.222 10.4986 6.60419 10.4986 7.00271C10.4986 7.40122 10.657 7.78341 10.9388 8.06521C11.2205 8.347 11.6027 8.50531 12.0013 8.50531C12.3998 8.50531 12.782 8.347 13.0638 8.06521L14.5 6.62521V11.5002H6C5.60218 11.5002 5.22064 11.6582 4.93934 11.9395C4.65804 12.2208 4.5 12.6024 4.5 13.0002C4.5 13.398 4.65804 13.7796 4.93934 14.0609C5.22064 14.3422 5.60218 14.5002 6 14.5002Z" fill="black"/>
</svg>
