<svg width="32" height="32" viewBox="0 0 32 32" fill="none" xmlns="http://www.w3.org/2000/svg">
<path d="M13.75 6V26C13.75 26.1989 13.6709 26.3897 13.5303 26.5303C13.3896 26.671 13.1989 26.75 13 26.75C12.801 26.75 12.6103 26.671 12.4696 26.5303C12.329 26.3897 12.25 26.1989 12.25 26V16.75H4.8112L7.52995 19.47C7.60364 19.5387 7.66274 19.6215 7.70373 19.7135C7.74472 19.8055 7.76677 19.9048 7.76854 20.0055C7.77032 20.1062 7.75179 20.2062 7.71407 20.2996C7.67635 20.393 7.62021 20.4778 7.54899 20.549C7.47777 20.6203 7.39294 20.6764 7.29955 20.7141C7.20616 20.7518 7.10613 20.7704 7.00543 20.7686C6.90473 20.7668 6.80541 20.7448 6.71341 20.7038C6.62141 20.6628 6.53861 20.6037 6.46995 20.53L2.46995 16.53C2.3295 16.3894 2.25061 16.1988 2.25061 16C2.25061 15.8012 2.3295 15.6106 2.46995 15.47L6.46995 11.47C6.61213 11.3375 6.80017 11.2654 6.99447 11.2688C7.18877 11.2723 7.37416 11.351 7.51157 11.4884C7.64899 11.6258 7.7277 11.8112 7.73113 12.0055C7.73455 12.1998 7.66243 12.3878 7.52995 12.53L4.8112 15.25H12.25V6C12.25 5.80109 12.329 5.61032 12.4696 5.46967C12.6103 5.32902 12.801 5.25 13 5.25C13.1989 5.25 13.3896 5.32902 13.5303 5.46967C13.6709 5.61032 13.75 5.80109 13.75 6ZM29.53 15.47L25.53 11.47C25.3878 11.3375 25.1997 11.2654 25.0054 11.2688C24.8111 11.2723 24.6257 11.351 24.4883 11.4884C24.3509 11.6258 24.2722 11.8112 24.2688 12.0055C24.2653 12.1998 24.3375 12.3878 24.4699 12.53L27.1887 15.25H19.75V6C19.75 5.80109 19.6709 5.61032 19.5303 5.46967C19.3896 5.32902 19.1989 5.25 19 5.25C18.801 5.25 18.6103 5.32902 18.4696 5.46967C18.329 5.61032 18.25 5.80109 18.25 6V26C18.25 26.1989 18.329 26.3897 18.4696 26.5303C18.6103 26.671 18.801 26.75 19 26.75C19.1989 26.75 19.3896 26.671 19.5303 26.5303C19.6709 26.3897 19.75 26.1989 19.75 26V16.75H27.1887L24.4699 19.47C24.3963 19.5387 24.3372 19.6215 24.2962 19.7135C24.2552 19.8055 24.2331 19.9048 24.2314 20.0055C24.2296 20.1062 24.2481 20.2062 24.2858 20.2996C24.3235 20.393 24.3797 20.4778 24.4509 20.549C24.5221 20.6203 24.607 20.6764 24.7004 20.7141C24.7937 20.7518 24.8938 20.7704 24.9945 20.7686C25.0952 20.7668 25.1945 20.7448 25.2865 20.7038C25.3785 20.6628 25.4613 20.6037 25.53 20.53L29.53 16.53C29.6704 16.3894 29.7493 16.1988 29.7493 16C29.7493 15.8012 29.6704 15.6106 29.53 15.47Z" fill="black"/>
</svg>
