<svg width="32" height="32" viewBox="0 0 32 32" fill="none" xmlns="http://www.w3.org/2000/svg">
<path d="M13.5 6V26C13.5 26.1326 13.4473 26.2598 13.3536 26.3536C13.2598 26.4473 13.1326 26.5 13 26.5C12.8674 26.5 12.7402 26.4473 12.6465 26.3536C12.5527 26.2598 12.5 26.1326 12.5 26V16.5H4.20753L7.35378 19.6462C7.4476 19.7401 7.50031 19.8673 7.50031 20C7.50031 20.1327 7.4476 20.2599 7.35378 20.3538C7.25996 20.4476 7.13271 20.5003 7.00003 20.5003C6.86735 20.5003 6.7401 20.4476 6.64628 20.3538L2.64628 16.3538C2.59979 16.3073 2.56291 16.2522 2.53775 16.1915C2.51259 16.1308 2.49963 16.0657 2.49963 16C2.49963 15.9343 2.51259 15.8692 2.53775 15.8085C2.56291 15.7478 2.59979 15.6927 2.64628 15.6462L6.64628 11.6462C6.69273 11.5998 6.74788 11.5629 6.80858 11.5378C6.86928 11.5127 6.93433 11.4997 7.00003 11.4997C7.06572 11.4997 7.13078 11.5127 7.19148 11.5378C7.25217 11.5629 7.30732 11.5998 7.35378 11.6462C7.40023 11.6927 7.43708 11.7479 7.46222 11.8086C7.48737 11.8692 7.50031 11.9343 7.50031 12C7.50031 12.0657 7.48737 12.1308 7.46222 12.1914C7.43708 12.2521 7.40023 12.3073 7.35378 12.3538L4.20753 15.5H12.5V6C12.5 5.86739 12.5527 5.74021 12.6465 5.64645C12.7402 5.55268 12.8674 5.5 13 5.5C13.1326 5.5 13.2598 5.55268 13.3536 5.64645C13.4473 5.74021 13.5 5.86739 13.5 6ZM29.3538 15.6462L25.3538 11.6462C25.26 11.5524 25.1327 11.4997 25 11.4997C24.8673 11.4997 24.7401 11.5524 24.6463 11.6462C24.5525 11.7401 24.4997 11.8673 24.4997 12C24.4997 12.1327 24.5525 12.2599 24.6463 12.3538L27.7925 15.5H19.5V6C19.5 5.86739 19.4473 5.74021 19.3536 5.64645C19.2598 5.55268 19.1326 5.5 19 5.5C18.8674 5.5 18.7402 5.55268 18.6465 5.64645C18.5527 5.74021 18.5 5.86739 18.5 6V26C18.5 26.1326 18.5527 26.2598 18.6465 26.3536C18.7402 26.4473 18.8674 26.5 19 26.5C19.1326 26.5 19.2598 26.4473 19.3536 26.3536C19.4473 26.2598 19.5 26.1326 19.5 26V16.5H27.7925L24.6463 19.6462C24.5525 19.7401 24.4997 19.8673 24.4997 20C24.4997 20.1327 24.5525 20.2599 24.6463 20.3538C24.7401 20.4476 24.8673 20.5003 25 20.5003C25.1327 20.5003 25.26 20.4476 25.3538 20.3538L29.3538 16.3538C29.4003 16.3073 29.4371 16.2522 29.4623 16.1915C29.4875 16.1308 29.5004 16.0657 29.5004 16C29.5004 15.9343 29.4875 15.8692 29.4623 15.8085C29.4371 15.7478 29.4003 15.6927 29.3538 15.6462Z" fill="black"/>
</svg>
