<svg width="32" height="32" viewBox="0 0 32 32" fill="none" xmlns="http://www.w3.org/2000/svg">
<path d="M16 2.5C13.33 2.5 10.7199 3.29176 8.49981 4.77516C6.27974 6.25856 4.54942 8.36697 3.52763 10.8338C2.50585 13.3006 2.2385 16.015 2.7594 18.6337C3.28031 21.2525 4.56606 23.6579 6.45406 25.5459C8.34207 27.434 10.7475 28.7197 13.3663 29.2406C15.985 29.7615 18.6994 29.4942 21.1662 28.4724C23.633 27.4506 25.7414 25.7203 27.2248 23.5002C28.7082 21.2801 29.5 18.67 29.5 16C29.496 12.4208 28.0724 8.98932 25.5416 6.45844C23.0107 3.92756 19.5792 2.50397 16 2.5ZM16 26.5C13.9233 26.5 11.8932 25.8842 10.1665 24.7304C8.4398 23.5767 7.09399 21.9368 6.29927 20.0182C5.50455 18.0996 5.29662 15.9884 5.70176 13.9516C6.10691 11.9148 7.10693 10.0438 8.57538 8.57538C10.0438 7.10693 11.9148 6.1069 13.9516 5.70175C15.9884 5.29661 18.0996 5.50454 20.0182 6.29926C21.9368 7.09399 23.5767 8.4398 24.7304 10.1665C25.8842 11.8932 26.5 13.9233 26.5 16C26.497 18.7839 25.3898 21.4528 23.4213 23.4213C21.4529 25.3898 18.7839 26.497 16 26.5ZM24.3238 15.955C24.2309 16.1288 24.1048 16.2825 23.9525 16.4076C23.8003 16.5326 23.6249 16.6264 23.4364 16.6836C23.2479 16.7408 23.05 16.7604 22.8539 16.7411C22.6578 16.7218 22.4675 16.6641 22.2938 16.5713C20.3578 15.5351 18.1959 14.9929 16 14.9929C13.8041 14.9929 11.6423 15.5351 9.70626 16.5713C9.48943 16.6888 9.24665 16.7502 9.00001 16.75C8.6657 16.7499 8.34099 16.6382 8.07744 16.4325C7.8139 16.2268 7.62661 15.939 7.54533 15.6147C7.46404 15.2904 7.49342 14.9483 7.62879 14.6426C7.76415 14.3369 7.99776 14.0853 8.29251 13.9275C10.6629 12.6584 13.31 11.9943 15.9988 11.9943C18.6875 11.9943 21.3346 12.6584 23.705 13.9275C24.0557 14.1145 24.3179 14.4331 24.4339 14.8132C24.5499 15.1934 24.5103 15.604 24.3238 15.955ZM22.3238 20.455C22.2317 20.6293 22.1062 20.7838 21.9543 20.9096C21.8025 21.0354 21.6274 21.13 21.439 21.1881C21.2505 21.2461 21.0525 21.2665 20.8562 21.2479C20.6599 21.2294 20.4692 21.1723 20.295 21.08C18.9732 20.3749 17.4981 20.006 16 20.006C14.5019 20.006 13.0268 20.3749 11.705 21.08C11.3547 21.2589 10.9481 21.2931 10.5728 21.1751C10.1976 21.0571 9.88367 20.7965 9.69875 20.4493C9.51384 20.1021 9.47272 19.6961 9.58425 19.3189C9.69577 18.9417 9.95102 18.6233 10.295 18.4325C12.0509 17.4962 14.0101 17.0065 16 17.0065C17.9899 17.0065 19.9492 17.4962 21.705 18.4325C22.0544 18.6195 22.3156 18.9372 22.4315 19.3161C22.5474 19.6951 22.5087 20.1045 22.3238 20.455Z" fill="black"/>
</svg>
