<svg width="32" height="32" viewBox="0 0 32 32" fill="none" xmlns="http://www.w3.org/2000/svg">
<path d="M1.62497 13.651L15.625 21.651C15.739 21.7169 15.8683 21.7515 16 21.7515C16.1316 21.7515 16.261 21.7169 16.375 21.651L30.375 13.651C30.4898 13.5854 30.5853 13.4907 30.6516 13.3763C30.718 13.2619 30.753 13.132 30.753 12.9998C30.753 12.8675 30.718 12.7376 30.6516 12.6233C30.5853 12.5089 30.4898 12.4141 30.375 12.3485L16.375 4.34853C16.261 4.2827 16.1316 4.24805 16 4.24805C15.8683 4.24805 15.739 4.2827 15.625 4.34853L1.62497 12.3485C1.51014 12.4141 1.4147 12.5089 1.34831 12.6233C1.28192 12.7376 1.24696 12.8675 1.24696 12.9998C1.24696 13.132 1.28192 13.2619 1.34831 13.3763C1.4147 13.4907 1.51014 13.5854 1.62497 13.651ZM16 5.86353L28.4887 12.9998L16 20.136L3.51122 12.9998L16 5.86353ZM30.6512 17.6248C30.7002 17.7103 30.7318 17.8046 30.7443 17.9024C30.7568 18.0001 30.7499 18.0993 30.724 18.1944C30.6981 18.2895 30.6537 18.3785 30.5934 18.4564C30.5331 18.5344 30.458 18.5996 30.3725 18.6485L16.3725 26.6485C16.2585 26.7144 16.1291 26.749 15.9975 26.749C15.8658 26.749 15.7365 26.7144 15.6225 26.6485L1.62247 18.6485C1.44975 18.5491 1.32361 18.3851 1.2718 18.1926C1.22 18.0002 1.24677 17.795 1.34622 17.6223C1.44568 17.4496 1.60968 17.3234 1.80213 17.2716C1.99459 17.2198 2.19975 17.2466 2.37247 17.346L15.9975 25.1335L29.6225 17.346C29.7082 17.2963 29.8029 17.264 29.9012 17.2511C29.9995 17.2382 30.0993 17.2449 30.195 17.2709C30.2906 17.2968 30.3802 17.3414 30.4585 17.4022C30.5368 17.4629 30.6023 17.5386 30.6512 17.6248Z" fill="black"/>
</svg>
