<svg width="32" height="32" viewBox="0 0 32 32" fill="none" xmlns="http://www.w3.org/2000/svg">
<path d="M1.49999 13.8752L15.5 21.8752C15.6511 21.9616 15.8222 22.007 15.9962 22.007C16.1703 22.007 16.3414 21.9616 16.4925 21.8752L30.4925 13.8752C30.6458 13.7878 30.7732 13.6614 30.8619 13.5088C30.9505 13.3562 30.9972 13.1829 30.9972 13.0064C30.9972 12.83 30.9505 12.6566 30.8619 12.5041C30.7732 12.3515 30.6458 12.2251 30.4925 12.1377L16.4925 4.13768C16.3414 4.0513 16.1703 4.00586 15.9962 4.00586C15.8222 4.00586 15.6511 4.0513 15.5 4.13768L1.49999 12.1377C1.34668 12.2251 1.21924 12.3515 1.13059 12.5041C1.04194 12.6566 0.995239 12.83 0.995239 13.0064C0.995239 13.1829 1.04194 13.3562 1.13059 13.5088C1.21924 13.6614 1.34668 13.7878 1.49999 13.8752Z" fill="black"/>
<path d="M29.4999 17.1312L15.9999 24.8487L2.49994 17.1312C2.38545 17.0656 2.25914 17.0231 2.12823 17.0063C1.99732 16.9894 1.86438 16.9985 1.73699 17.0331C1.6096 17.0676 1.49026 17.1269 1.38578 17.2075C1.2813 17.2882 1.19373 17.3886 1.12807 17.5031C1.06241 17.6176 1.01994 17.7439 1.00309 17.8748C0.986247 18.0057 0.995349 18.1387 1.02988 18.2661C1.06441 18.3935 1.1237 18.5128 1.20435 18.6173C1.285 18.7218 1.38545 18.8093 1.49994 18.875L15.4999 26.875C15.6511 26.9614 15.8221 27.0068 15.9962 27.0068C16.1703 27.0068 16.3413 26.9614 16.4924 26.875L30.4924 18.875C30.6065 18.8098 30.7067 18.7228 30.7871 18.619C30.8676 18.5151 30.9268 18.3964 30.9614 18.2696C30.996 18.1429 31.0053 18.0106 30.9887 17.8802C30.9722 17.7499 30.9301 17.6241 30.8649 17.51C30.7998 17.3959 30.7128 17.2958 30.6089 17.2153C30.505 17.1348 30.3863 17.0756 30.2596 17.041C30.1328 17.0065 30.0005 16.9972 29.8702 17.0137C29.7398 17.0303 29.614 17.0723 29.4999 17.1375V17.1312Z" fill="black"/>
</svg>
