<svg width="32" height="32" viewBox="0 0 32 32" fill="none" xmlns="http://www.w3.org/2000/svg">
<path d="M1.25625 13.8024L15.2562 21.8024C15.4828 21.9317 15.7391 21.9997 16 21.9997C16.2609 21.9997 16.5172 21.9317 16.7437 21.8024L30.7437 13.8024C30.9734 13.6712 31.1643 13.4816 31.2971 13.2529C31.4298 13.0241 31.4998 12.7644 31.4998 12.4999C31.4998 12.2354 31.4298 11.9756 31.2971 11.7469C31.1643 11.5181 30.9734 11.3286 30.7437 11.1974L16.7437 3.19737C16.5172 3.06803 16.2609 3 16 3C15.7391 3 15.4828 3.06803 15.2562 3.19737L1.25625 11.1974C1.02659 11.3286 0.835694 11.5181 0.702921 11.7469C0.570149 11.9756 0.500218 12.2354 0.500218 12.4999C0.500218 12.7644 0.570149 13.0241 0.702921 13.2529C0.835694 13.4816 1.02659 13.6712 1.25625 13.8024ZM16.0062 6.22737L26.9762 12.4999L16 18.7724L5.02375 12.4999L16.0062 6.22737ZM31.3087 17.7561C31.506 18.1016 31.5579 18.5112 31.4531 18.895C31.3483 19.2787 31.0954 19.6051 30.75 19.8024L16.75 27.8024C16.5235 27.9317 16.2671 27.9997 16.0062 27.9997C15.7454 27.9997 15.489 27.9317 15.2625 27.8024L1.2625 19.8024C1.08893 19.706 0.936215 19.5762 0.813202 19.4204C0.690188 19.2646 0.599322 19.0859 0.545873 18.8947C0.492424 18.7036 0.477454 18.5037 0.501831 18.3067C0.526209 18.1097 0.589448 17.9195 0.687883 17.7471C0.786319 17.5747 0.917992 17.4235 1.07527 17.3024C1.23255 17.1813 1.41231 17.0926 1.60412 17.0415C1.79593 16.9904 1.99599 16.9778 2.19268 17.0046C2.38938 17.0313 2.57881 17.0969 2.75 17.1974L16 24.7724L29.25 17.1974C29.4213 17.0987 29.6104 17.0349 29.8065 17.0097C30.0026 16.9844 30.2017 16.9981 30.3924 17.05C30.5832 17.1019 30.7618 17.191 30.9179 17.3122C31.0741 17.4334 31.2048 17.5843 31.3025 17.7561H31.3087Z" fill="black"/>
</svg>
