<svg width="32" height="32" viewBox="0 0 32 32" fill="none" xmlns="http://www.w3.org/2000/svg">
<path d="M27.5 18.9588V27.0001C27.5 27.3979 27.342 27.7794 27.0607 28.0607C26.7794 28.342 26.3978 28.5001 26 28.5001H6C5.60218 28.5001 5.22064 28.342 4.93934 28.0607C4.65804 27.7794 4.5 27.3979 4.5 27.0001V18.9588C4.5 18.561 4.65804 18.1795 4.93934 17.8982C5.22064 17.6169 5.60218 17.4588 6 17.4588C6.39782 17.4588 6.77936 17.6169 7.06066 17.8982C7.34196 18.1795 7.5 18.561 7.5 18.9588V25.4876H24.5V18.9588C24.5 18.561 24.658 18.1795 24.9393 17.8982C25.2206 17.6169 25.6022 17.4588 26 17.4588C26.3978 17.4588 26.7794 17.6169 27.0607 17.8982C27.342 18.1795 27.5 18.561 27.5 18.9588ZM11 22.9763H21C21.3921 22.965 21.7644 22.8013 22.0378 22.52C22.3112 22.2386 22.4641 21.8617 22.4641 21.4694C22.4641 21.0771 22.3112 20.7003 22.0378 20.4189C21.7644 20.1376 21.3921 19.9739 21 19.9626H11C10.6079 19.9739 10.2356 20.1376 9.9622 20.4189C9.68883 20.7003 9.5359 21.0771 9.5359 21.4694C9.5359 21.8617 9.68883 22.2386 9.9622 22.52C10.2356 22.8013 10.6079 22.965 11 22.9763ZM12.025 14.1251L21.4212 17.5613C21.7969 17.6974 22.2112 17.6787 22.573 17.5093C22.9348 17.34 23.2145 17.0338 23.3506 16.6582C23.4867 16.2826 23.468 15.8683 23.2986 15.5065C23.1293 15.1446 22.8231 14.8649 22.4475 14.7288L13.0513 11.2938C12.6758 11.1577 12.2617 11.1764 11.9 11.3456C11.5383 11.5149 11.2586 11.8209 11.1225 12.1963C10.9864 12.5718 11.005 12.9859 11.1743 13.3476C11.3435 13.7093 11.6496 13.989 12.025 14.1251ZM16 6.16132L23.6612 12.6163C23.966 12.8718 24.3597 12.9958 24.7558 12.9611C25.1519 12.9264 25.5181 12.7359 25.7738 12.4313C26.0303 12.1247 26.1548 11.7289 26.1201 11.3306C26.0855 10.9323 25.8944 10.564 25.5888 10.3063L17.93 3.85257C17.779 3.72595 17.6045 3.63033 17.4166 3.57116C17.2286 3.512 17.0308 3.49045 16.8345 3.50774C16.6382 3.52504 16.4473 3.58084 16.2726 3.67197C16.0978 3.76309 15.9428 3.88775 15.8162 4.03882C15.5607 4.3453 15.4366 4.74035 15.471 5.13791C15.5054 5.53547 15.6956 5.90332 16 6.16132Z" fill="black"/>
</svg>
