<svg width="32" height="32" viewBox="0 0 32 32" fill="none" xmlns="http://www.w3.org/2000/svg">
<path d="M28.5 28C28.5 28.3978 28.342 28.7794 28.0607 29.0607C27.7794 29.342 27.3978 29.5 27 29.5H5C4.60218 29.5 4.22064 29.342 3.93934 29.0607C3.65804 28.7794 3.5 28.3978 3.5 28C3.5 27.6022 3.65804 27.2206 3.93934 26.9393C4.22064 26.658 4.60218 26.5 5 26.5H27C27.3978 26.5 27.7794 26.658 28.0607 26.9393C28.342 27.2206 28.5 27.6022 28.5 28ZM28.5 18V22C28.5 22.663 28.2366 23.2989 27.7678 23.7678C27.2989 24.2366 26.663 24.5 26 24.5H6C5.33696 24.5 4.70107 24.2366 4.23223 23.7678C3.76339 23.2989 3.5 22.663 3.5 22V18C3.5 17.337 3.76339 16.7011 4.23223 16.2322C4.70107 15.7634 5.33696 15.5 6 15.5H12.435L10.6012 6.9425C10.4607 6.28655 10.4687 5.60748 10.6245 4.95499C10.7802 4.3025 11.0799 3.69309 11.5016 3.17136C11.9233 2.64963 12.4563 2.22877 13.0616 1.93959C13.6669 1.65041 14.3292 1.50022 15 1.5H17C17.6709 1.50003 18.3334 1.65009 18.9388 1.93919C19.5443 2.22829 20.0774 2.64912 20.4992 3.17087C20.9211 3.69263 21.2209 4.3021 21.3767 4.95469C21.5326 5.60727 21.5405 6.28645 21.4 6.9425L19.565 15.5H26C26.663 15.5 27.2989 15.7634 27.7678 16.2322C28.2366 16.7011 28.5 17.337 28.5 18ZM15.5 15.5H16.5L18.4675 6.31375C18.5143 6.09503 18.5116 5.86861 18.4595 5.65107C18.4075 5.43353 18.3075 5.23039 18.1668 5.0565C18.0261 4.88262 17.8483 4.7424 17.6464 4.64611C17.4445 4.54982 17.2237 4.4999 17 4.5H15C14.7764 4.50008 14.5557 4.55014 14.354 4.64651C14.1523 4.74288 13.9746 4.88313 13.8341 5.05699C13.6935 5.23085 13.5936 5.43393 13.5416 5.65137C13.4897 5.86882 13.487 6.09513 13.5337 6.31375L15.5 15.5ZM25.5 18.5H6.5V21.5H25.5V18.5Z" fill="black"/>
</svg>
