<svg width="32" height="32" viewBox="0 0 32 32" fill="none" xmlns="http://www.w3.org/2000/svg">
<path d="M28.9825 13.92L28.3275 14.4912C28.2267 14.5675 28.1008 14.6027 27.9751 14.5899C27.8494 14.5771 27.7332 14.5171 27.6499 14.4221C27.5666 14.3271 27.5223 14.204 27.5261 14.0777C27.5298 13.9514 27.5812 13.8312 27.67 13.7412L28.325 13.17C28.4007 13.105 28.4551 13.0188 28.4814 12.9226C28.5077 12.8263 28.5046 12.7244 28.4725 12.63C28.4423 12.5369 28.3855 12.4547 28.3091 12.3936C28.2326 12.3325 28.1399 12.2952 28.0425 12.2862L26.9562 12.1925C26.8906 12.1868 26.8267 12.1683 26.7682 12.1379C26.7097 12.1076 26.6578 12.066 26.6153 12.0155C26.5729 11.9651 26.5408 11.9068 26.5209 11.844C26.501 11.7811 26.4937 11.715 26.4994 11.6494C26.505 11.5837 26.5236 11.5198 26.5539 11.4613C26.5843 11.4028 26.6259 11.3509 26.6763 11.3084C26.7267 11.266 26.785 11.2339 26.8479 11.214C26.9107 11.1941 26.9768 11.1868 27.0425 11.1925L28.1287 11.2862C28.4238 11.3104 28.705 11.4214 28.9371 11.6051C29.1692 11.7888 29.3418 12.0371 29.4331 12.3187C29.5244 12.6003 29.5303 12.9026 29.4501 13.1875C29.3699 13.4725 29.2072 13.7273 28.9825 13.92ZM22.21 19.56L22.5688 21.1112C22.5816 21.1771 22.6076 21.2397 22.6451 21.2953C22.6827 21.3509 22.7311 21.3984 22.7874 21.435C22.8437 21.4715 22.9067 21.4963 22.9728 21.5079C23.0389 21.5196 23.1067 21.5178 23.1721 21.5027C23.2375 21.4876 23.2991 21.4594 23.3534 21.42C23.4077 21.3805 23.4535 21.3306 23.4881 21.273C23.5226 21.2155 23.5453 21.1516 23.5546 21.0852C23.564 21.0187 23.5599 20.9511 23.5425 20.8862L23.185 19.335C23.1627 19.245 23.1658 19.1506 23.1941 19.0623C23.2224 18.974 23.2746 18.8953 23.345 18.835L24.3275 17.9775C24.3823 17.936 24.4279 17.8837 24.4616 17.8239C24.4953 17.764 24.5163 17.6978 24.5233 17.6295C24.5302 17.5611 24.5231 17.4921 24.5022 17.4267C24.4813 17.3612 24.4471 17.3008 24.4018 17.2491C24.3565 17.1975 24.3011 17.1557 24.2389 17.1264C24.1768 17.0971 24.1093 17.081 24.0406 17.0789C23.972 17.0769 23.9036 17.0891 23.8398 17.1146C23.7761 17.1402 23.7183 17.1786 23.67 17.2275L22.6875 18.085C22.4811 18.264 22.3276 18.4961 22.2434 18.756C22.1593 19.0159 22.1477 19.2939 22.21 19.56ZM21.96 11.7562L20.615 11.64C20.3432 11.6158 20.0832 11.5179 19.863 11.3569C19.6427 11.1958 19.4706 10.9778 19.365 10.7262L16.5 3.90873V23.4175C16.5953 23.4497 16.687 23.4915 16.7737 23.5425L18.2587 24.4437C18.3149 24.4778 18.3638 24.5226 18.4026 24.5755C18.4414 24.6285 18.4695 24.6886 18.4851 24.7523C18.5007 24.8161 18.5036 24.8824 18.4936 24.9473C18.4836 25.0122 18.4609 25.0745 18.4269 25.1306C18.3928 25.1867 18.348 25.2356 18.2951 25.2745C18.2421 25.3133 18.182 25.3413 18.1183 25.3569C18.0545 25.3725 17.9882 25.3754 17.9233 25.3654C17.8584 25.3555 17.7961 25.3328 17.74 25.2987L16.25 24.4C16.1733 24.3528 16.085 24.3277 15.995 24.3277C15.905 24.3277 15.8167 24.3528 15.74 24.4L9.3525 28.275C9.09999 28.4263 8.80853 28.5 8.51443 28.4869C8.22033 28.4738 7.9366 28.3744 7.69858 28.2011C7.46057 28.0279 7.27879 27.7884 7.17591 27.5126C7.07302 27.2368 7.05358 26.9368 7.12 26.65L8.81 19.3325C8.8323 19.2425 8.82915 19.1481 8.8009 19.0598C8.77264 18.9715 8.7204 18.8928 8.65 18.8325L3.0125 13.9137C2.78957 13.7201 2.62875 13.4649 2.55022 13.1802C2.47168 12.8956 2.47892 12.5941 2.57102 12.3135C2.66312 12.0329 2.83598 11.7858 3.06795 11.603C3.29992 11.4203 3.58066 11.3101 3.875 11.2862L11.3062 10.6437C11.3966 10.6353 11.4829 10.6025 11.556 10.5488C11.6291 10.495 11.6863 10.4224 11.7212 10.3387L14.625 3.41998C14.7385 3.14782 14.9299 2.91532 15.1753 2.75178C15.4206 2.58824 15.7089 2.50098 16.0037 2.50098C16.2986 2.50098 16.5869 2.58824 16.8322 2.75178C17.0776 2.91532 17.269 3.14782 17.3825 3.41998L20.2862 10.3387C20.3212 10.4224 20.3784 10.495 20.4515 10.5488C20.5246 10.6025 20.6109 10.6353 20.7013 10.6437L22.0462 10.76C22.1119 10.7656 22.1758 10.7842 22.2343 10.8145C22.2928 10.8449 22.3447 10.8865 22.3872 10.9369C22.4296 10.9874 22.4617 11.0456 22.4816 11.1085C22.5015 11.1713 22.5088 11.2374 22.5031 11.3031C22.4975 11.3688 22.4789 11.4327 22.4486 11.4912C22.4182 11.5497 22.3766 11.6016 22.3262 11.644C22.2758 11.6864 22.2175 11.7185 22.1546 11.7384C22.0918 11.7583 22.0257 11.7656 21.96 11.76V11.7562ZM15.23 23.545C15.3167 23.494 15.4085 23.4522 15.5037 23.42V3.90873L12.64 10.7262C12.5344 10.9778 12.3623 11.1958 12.142 11.3569C11.9218 11.5179 11.6618 11.6158 11.39 11.64L3.9575 12.2825C3.8602 12.2913 3.76762 12.3285 3.69121 12.3893C3.61479 12.4502 3.55787 12.5321 3.5275 12.625C3.49541 12.7194 3.49231 12.8213 3.5186 12.9176C3.54488 13.0138 3.59935 13.0999 3.675 13.165L9.3125 18.0837C9.51888 18.2628 9.67244 18.4948 9.75659 18.7548C9.84074 19.0147 9.85229 19.2927 9.79 19.5587L8.1 26.875C8.07639 26.972 8.08235 27.0738 8.1171 27.1673C8.15185 27.2609 8.21381 27.3419 8.295 27.4C8.37298 27.4578 8.46658 27.4908 8.56359 27.4946C8.6606 27.4984 8.7565 27.4728 8.83875 27.4212L15.23 23.545ZM24.47 24.8862C24.4572 24.8204 24.4312 24.7577 24.3936 24.7021C24.3561 24.6465 24.3077 24.599 24.2514 24.5625C24.1951 24.526 24.132 24.5012 24.0659 24.4895C23.9998 24.4779 23.9321 24.4797 23.8667 24.4948C23.8013 24.5099 23.7396 24.538 23.6853 24.5775C23.631 24.6169 23.5852 24.6669 23.5507 24.7244C23.5161 24.7819 23.4935 24.8458 23.4841 24.9123C23.4748 24.9787 23.4789 25.0464 23.4963 25.1112L23.9 26.875C23.9236 26.972 23.9177 27.0738 23.8829 27.1673C23.8482 27.2609 23.7862 27.3419 23.705 27.4C23.627 27.4578 23.5334 27.4908 23.4364 27.4946C23.3394 27.4984 23.2435 27.4728 23.1612 27.4212L21.7575 26.5687C21.6441 26.4999 21.5081 26.479 21.3792 26.5105C21.2504 26.5421 21.1394 26.6235 21.0706 26.7369C21.0018 26.8502 20.9809 26.9863 21.0124 27.1151C21.044 27.2439 21.1254 27.3549 21.2388 27.4237L22.6425 28.2762C22.895 28.4276 23.1865 28.5013 23.4806 28.4882C23.7747 28.475 24.0584 28.3756 24.2964 28.2024C24.5344 28.0292 24.7162 27.7897 24.8191 27.5139C24.922 27.238 24.9414 26.938 24.875 26.6512L24.47 24.8862Z" fill="black"/>
</svg>
