<svg width="32" height="32" viewBox="0 0 32 32" fill="none" xmlns="http://www.w3.org/2000/svg">
<path d="M25.7275 16L29.3025 9.75002C29.4343 9.52173 29.5036 9.26275 29.5035 8.99915C29.5033 8.73555 29.4337 8.47665 29.3016 8.24852C29.1696 8.02038 28.9797 7.83108 28.7512 7.69968C28.5227 7.56827 28.2636 7.49941 28 7.50002H20.875L17.3063 1.25002C17.174 1.02093 16.9835 0.830886 16.7541 0.69917C16.5247 0.567454 16.2645 0.498747 16 0.500017C15.7355 0.50004 15.4757 0.570004 15.247 0.702816C15.0182 0.835629 14.8287 1.02657 14.6975 1.25627L11.125 7.50002H4C3.7364 7.49941 3.4773 7.56827 3.24879 7.69968C3.02028 7.83108 2.83043 8.02038 2.69836 8.24852C2.5663 8.47665 2.49669 8.73555 2.49654 8.99915C2.49638 9.26275 2.5657 9.52173 2.6975 9.75002L6.27 16L2.6975 22.25C2.5657 22.4783 2.49638 22.7373 2.49654 23.0009C2.49669 23.2645 2.5663 23.5234 2.69836 23.7515C2.83043 23.9797 3.02028 24.169 3.24879 24.3004C3.4773 24.4318 3.7364 24.5006 4 24.5H11.125L14.6963 30.75C14.8274 30.9797 15.017 31.1706 15.2457 31.3033C15.4745 31.4361 15.7343 31.506 15.9988 31.506C16.2632 31.506 16.523 31.4361 16.7518 31.3033C16.9805 31.1706 17.1701 30.9797 17.3013 30.75L20.875 24.5H28C28.2627 24.5 28.5208 24.431 28.7484 24.2999C28.976 24.1688 29.1653 23.9803 29.2971 23.7531C29.429 23.5259 29.4989 23.2681 29.4999 23.0054C29.5008 22.7427 29.4327 22.4844 29.3025 22.2563L25.7275 16ZM25.415 10.5L24 12.9763L22.585 10.5H25.415ZM22.2725 16L19.125 21.5H12.8625L9.72625 16L12.8675 10.5H19.125L22.2725 16ZM16 5.02252L17.4163 7.50002H14.5825L16 5.02252ZM6.585 10.5H9.41125L8 12.9775L6.585 10.5ZM6.585 21.49L8 19.0225L9.41125 21.5L6.585 21.49ZM16 26.9775L14.5825 24.5H17.4163L16 26.9775ZM22.585 21.5L24 19.0238L25.415 21.5H22.585Z" fill="black"/>
</svg>
