<svg width="32" height="32" viewBox="0 0 32 32" fill="none" xmlns="http://www.w3.org/2000/svg">
<path d="M29.6413 14.6749L28.9863 15.2499C28.7043 15.497 28.34 15.6295 27.9652 15.6213C27.5904 15.6132 27.2322 15.465 26.9612 15.2059C26.6902 14.9469 26.5261 14.5957 26.5011 14.2216C26.4761 13.8476 26.5921 13.4777 26.8263 13.1849C26.4301 13.1453 26.0659 12.9499 25.8138 12.6418C25.5616 12.3336 25.4423 11.938 25.4819 11.5418C25.5215 11.1456 25.7169 10.7814 26.025 10.5293C26.3332 10.2772 26.7288 10.1578 27.125 10.1974L28.2125 10.2912C28.703 10.3325 29.1703 10.5176 29.556 10.8234C29.9417 11.1292 30.2285 11.542 30.3805 12.0101C30.5326 12.4782 30.543 12.9808 30.4106 13.4549C30.2782 13.9289 30.0089 14.3533 29.6363 14.6749H29.6413ZM22.0313 17.3337C21.6884 17.6319 21.4334 18.018 21.2936 18.4503C21.1537 18.8826 21.1343 19.3449 21.2375 19.7874L21.595 21.3387C21.6393 21.5306 21.721 21.712 21.8354 21.8724C21.9499 22.0328 22.0947 22.1691 22.2618 22.2735C22.4289 22.3779 22.6149 22.4484 22.8093 22.4809C23.0036 22.5134 23.2024 22.5074 23.3944 22.463C23.5864 22.4187 23.7677 22.337 23.9281 22.2226C24.0885 22.1082 24.2248 21.9633 24.3292 21.7962C24.4336 21.6291 24.5041 21.4431 24.5366 21.2488C24.5691 21.0545 24.5631 20.8556 24.5188 20.6637L24.2263 19.3999L24.9863 18.7362C25.1377 18.6076 25.2621 18.4501 25.3522 18.2731C25.4423 18.096 25.4963 17.9027 25.5111 17.7046C25.5259 17.5065 25.5012 17.3074 25.4384 17.1189C25.3756 16.9304 25.276 16.7562 25.1454 16.6065C25.0147 16.4568 24.8556 16.3346 24.6774 16.2469C24.4991 16.1592 24.3051 16.1078 24.1068 16.0956C23.9085 16.0835 23.7097 16.1109 23.5221 16.1762C23.3345 16.2416 23.1617 16.3435 23.0138 16.4762L22.0313 17.3337ZM19.2813 25.6562C19.0742 25.9958 18.7407 26.2392 18.3542 26.333C17.9676 26.4268 17.5597 26.3631 17.22 26.1562L16 25.4174L9.875 29.1374C9.45416 29.3909 8.96797 29.5148 8.47715 29.4936C7.98632 29.4723 7.51263 29.307 7.11523 29.0181C6.71783 28.7293 6.41435 28.3298 6.24268 27.8695C6.07102 27.4091 6.03878 26.9084 6.15 26.4299L7.775 19.3999L2.35875 14.6749C1.98615 14.3533 1.71677 13.9289 1.58437 13.4549C1.45197 12.9808 1.46244 12.4782 1.61448 12.0101C1.76651 11.542 2.05335 11.1292 2.43902 10.8234C2.82469 10.5176 3.29205 10.3325 3.7825 10.2912L10.9075 9.67492L13.695 3.03242C13.8868 2.5807 14.2072 2.19541 14.6164 1.92455C15.0256 1.6537 15.5055 1.50928 15.9963 1.50928C16.487 1.50928 16.9669 1.6537 17.3761 1.92455C17.7853 2.19541 18.1058 2.5807 18.2975 3.03242L21.085 9.67492L22.1263 9.76492C22.5063 9.81786 22.8516 10.0144 23.0911 10.3142C23.3306 10.6139 23.4462 10.994 23.414 11.3764C23.3818 11.7587 23.2043 12.1142 22.9181 12.3697C22.6318 12.6252 22.2585 12.7613 21.875 12.7499L20.5288 12.6337C20.0749 12.5948 19.6404 12.4322 19.2726 12.1635C18.9047 11.8949 18.6176 11.5304 18.4425 11.1099L17.5 8.87492V22.8187L18.7788 23.5949C18.9472 23.6971 19.0939 23.8316 19.2104 23.9905C19.3269 24.1494 19.4109 24.3298 19.4577 24.5212C19.5045 24.7126 19.5131 24.9114 19.483 25.1061C19.453 25.3009 19.3848 25.4878 19.2825 25.6562H19.2813ZM14.5 22.8187V8.87492L13.5613 11.1112C13.3865 11.5322 13.0996 11.8971 12.7317 12.1662C12.3638 12.4354 11.9291 12.5983 11.475 12.6374L5.2075 13.1799L9.96875 17.3337C10.3116 17.6319 10.5666 18.018 10.7064 18.4503C10.8463 18.8826 10.8657 19.3449 10.7625 19.7874L9.33875 25.9524L14.5 22.8187ZM25.6738 25.6637C25.5921 25.3051 25.3815 24.989 25.0821 24.7755C24.7826 24.5619 24.4151 24.4659 24.0495 24.5055C23.6839 24.5452 23.3455 24.7178 23.0988 24.9905C22.8521 25.2633 22.7142 25.6172 22.7113 25.9849C22.3662 25.7904 21.9581 25.7403 21.5763 25.8456C21.1944 25.9508 20.8696 26.2029 20.6729 26.5467C20.4761 26.8905 20.4234 27.2981 20.5261 27.6807C20.6288 28.0633 20.8787 28.3897 21.2213 28.5887L22.125 29.1374C22.5458 29.3909 23.032 29.5148 23.5229 29.4936C24.0137 29.4723 24.4874 29.307 24.8848 29.0181C25.2822 28.7293 25.5857 28.3298 25.7573 27.8695C25.929 27.4091 25.9612 26.9084 25.85 26.4299L25.6738 25.6637Z" fill="black"/>
</svg>
