<svg width="32" height="32" viewBox="0 0 32 32" fill="none" xmlns="http://www.w3.org/2000/svg">
<path d="M29.3125 14.2975L23.675 19.2175L25.3638 26.5425C25.4531 26.9254 25.4276 27.3262 25.2904 27.6947C25.1533 28.0632 24.9105 28.3831 24.5925 28.6144C24.2745 28.8457 23.8954 28.9782 23.5025 28.9951C23.1097 29.0121 22.7205 28.913 22.3838 28.71L15.995 24.835L9.62001 28.71C9.28322 28.913 8.89407 29.0121 8.50122 28.9951C8.10837 28.9782 7.72925 28.8457 7.41125 28.6144C7.09325 28.3831 6.85049 28.0632 6.71332 27.6947C6.57614 27.3262 6.55064 26.9254 6.64001 26.5425L8.32626 19.225L2.68751 14.2975C2.38927 14.0403 2.17361 13.7007 2.06758 13.3214C1.96154 12.9421 1.96986 12.54 2.09147 12.1654C2.21309 11.7908 2.44259 11.4604 2.7512 11.2158C3.05982 10.9711 3.4338 10.823 3.82626 10.79L11.2588 10.1462L14.16 3.22624C14.3115 2.86314 14.5671 2.55298 14.8945 2.33482C15.2219 2.11665 15.6066 2.00024 16 2.00024C16.3935 2.00024 16.7781 2.11665 17.1055 2.33482C17.4329 2.55298 17.6885 2.86314 17.84 3.22624L20.75 10.1462L28.18 10.79C28.5725 10.823 28.9464 10.9711 29.2551 11.2158C29.5637 11.4604 29.7932 11.7908 29.9148 12.1654C30.0364 12.54 30.0447 12.9421 29.9387 13.3214C29.8327 13.7007 29.617 14.0403 29.3188 14.2975H29.3125Z" fill="black"/>
</svg>
