<svg width="32" height="32" viewBox="0 0 32 32" fill="none" xmlns="http://www.w3.org/2000/svg">
<path d="M30.0001 16.0001C30.0033 16.4102 29.8786 16.8112 29.6433 17.1472C29.4081 17.4833 29.0741 17.7377 28.6876 17.8751L20.7576 20.7588L17.8751 28.6876C17.733 29.0703 17.4772 29.4004 17.142 29.6335C16.8068 29.8667 16.4083 29.9916 16.0001 29.9916C15.5918 29.9916 15.1933 29.8667 14.8581 29.6335C14.523 29.4004 14.2671 29.0703 14.1251 28.6876L11.2413 20.7501L3.31257 17.8751C2.92982 17.733 2.59971 17.4772 2.3666 17.142C2.13349 16.8068 2.00854 16.4083 2.00854 16.0001C2.00854 15.5918 2.13349 15.1933 2.3666 14.8581C2.59971 14.523 2.92982 14.2671 3.31257 14.1251L11.2501 11.2413L14.1251 3.31257C14.2671 2.92982 14.523 2.59971 14.8581 2.3666C15.1933 2.13349 15.5918 2.00854 16.0001 2.00854C16.4083 2.00854 16.8068 2.13349 17.142 2.3666C17.4772 2.59971 17.733 2.92982 17.8751 3.31257L20.7588 11.2501L28.6876 14.1251C29.0741 14.2625 29.4081 14.5169 29.6433 14.8529C29.8786 15.1889 30.0033 15.5899 30.0001 16.0001Z" fill="black"/>
</svg>
