<svg width="32" height="32" viewBox="0 0 32 32" fill="none" xmlns="http://www.w3.org/2000/svg">
<path d="M28.6876 14.1251L20.7588 11.2501L17.8751 3.31257C17.733 2.92982 17.4772 2.59971 17.142 2.3666C16.8068 2.13349 16.4083 2.00854 16.0001 2.00854C15.5918 2.00854 15.1933 2.13349 14.8581 2.3666C14.523 2.59971 14.2671 2.92982 14.1251 3.31257L11.2501 11.2413L3.31257 14.1251C2.92982 14.2671 2.59971 14.523 2.3666 14.8581C2.13349 15.1933 2.00854 15.5918 2.00854 16.0001C2.00854 16.4083 2.13349 16.8068 2.3666 17.142C2.59971 17.4772 2.92982 17.733 3.31257 17.8751L11.2413 20.7501L14.1251 28.6876C14.2671 29.0703 14.523 29.4004 14.8581 29.6335C15.1933 29.8667 15.5918 29.9916 16.0001 29.9916C16.4083 29.9916 16.8068 29.8667 17.142 29.6335C17.4772 29.4004 17.733 29.0703 17.8751 28.6876L20.7588 20.7576L28.6876 17.8751C29.0703 17.733 29.4004 17.4772 29.6335 17.142C29.8667 16.8068 29.9916 16.4083 29.9916 16.0001C29.9916 15.5918 29.8667 15.1933 29.6335 14.8581C29.4004 14.523 29.0703 14.2671 28.6876 14.1251ZM20.0713 18.8751C19.7977 18.975 19.5492 19.1335 19.3432 19.3395C19.1373 19.5455 18.9788 19.794 18.8788 20.0676L16.0001 27.9876L13.1251 20.0713C13.0252 19.7966 12.8663 19.5472 12.6597 19.3405C12.453 19.1338 12.2035 18.9749 11.9288 18.8751L4.01257 16.0001L11.9288 13.1251C12.2035 13.0252 12.453 12.8663 12.6597 12.6597C12.8663 12.453 13.0252 12.2035 13.1251 11.9288L16.0001 4.01257L18.8751 11.9288C18.975 12.2024 19.1335 12.4509 19.3395 12.6569C19.5455 12.8629 19.794 13.0214 20.0676 13.1213L27.9838 15.9963L20.0713 18.8751Z" fill="black"/>
</svg>
