<svg width="32" height="32" viewBox="0 0 32 32" fill="none" xmlns="http://www.w3.org/2000/svg">
<path d="M28.8574 13.6562L21.1474 10.8524L18.3437 3.1424C18.1688 2.66123 17.85 2.24555 17.4307 1.95181C17.0114 1.65806 16.5119 1.50049 15.9999 1.50049C15.4879 1.50049 14.9884 1.65806 14.5691 1.95181C14.1498 2.24555 13.831 2.66123 13.6562 3.1424L10.8524 10.8524L3.1424 13.6562C2.66123 13.831 2.24555 14.1498 1.95181 14.5691C1.65806 14.9884 1.50049 15.4879 1.50049 15.9999C1.50049 16.5119 1.65806 17.0114 1.95181 17.4307C2.24555 17.85 2.66123 18.1688 3.1424 18.3437L10.8524 21.1474L13.6562 28.8574C13.831 29.3386 14.1498 29.7543 14.5691 30.048C14.9884 30.3417 15.4879 30.4993 15.9999 30.4993C16.5119 30.4993 17.0114 30.3417 17.4307 30.048C17.85 29.7543 18.1688 29.3386 18.3437 28.8574L21.1474 21.1474L28.8574 18.3437C29.3386 18.1688 29.7543 17.85 30.048 17.4307C30.3417 17.0114 30.4993 16.5119 30.4993 15.9999C30.4993 15.4879 30.3417 14.9884 30.048 14.5691C29.7543 14.1498 29.3386 13.831 28.8574 13.6562ZM19.9012 18.4062C19.5583 18.5304 19.2468 18.7285 18.9889 18.9864C18.731 19.2443 18.5329 19.5558 18.4087 19.8987L15.9999 26.5237L13.5912 19.8987C13.4669 19.5558 13.2688 19.2443 13.0109 18.9864C12.753 18.7285 12.4416 18.5304 12.0987 18.4062L5.47365 15.9999L12.0987 13.5912C12.4416 13.4669 12.753 13.2688 13.0109 13.0109C13.2688 12.753 13.4669 12.4416 13.5912 12.0987L15.9999 5.47365L18.4087 12.0987C18.5329 12.4416 18.731 12.753 18.9889 13.0109C19.2468 13.2688 19.5583 13.4669 19.9012 13.5912L26.5262 15.9999L19.9012 18.4062Z" fill="black"/>
</svg>
