<svg width="32" height="32" viewBox="0 0 32 32" fill="none" xmlns="http://www.w3.org/2000/svg">
<path d="M18 18C18 18.3956 17.8827 18.7822 17.6629 19.1111C17.4432 19.44 17.1308 19.6964 16.7654 19.8478C16.3999 19.9991 15.9978 20.0387 15.6098 19.9616C15.2219 19.8844 14.8655 19.6939 14.5858 19.4142C14.3061 19.1345 14.1156 18.7781 14.0384 18.3902C13.9613 18.0022 14.0009 17.6001 14.1522 17.2346C14.3036 16.8692 14.56 16.5568 14.8889 16.3371C15.2178 16.1173 15.6044 16 16 16C16.5304 16 17.0391 16.2107 17.4142 16.5858C17.7893 16.9609 18 17.4696 18 18ZM29.5 16C29.5 18.67 28.7082 21.2801 27.2248 23.5002C25.7414 25.7203 23.633 27.4506 21.1662 28.4724C18.6994 29.4942 15.985 29.7615 13.3663 29.2406C10.7475 28.7197 8.34207 27.434 6.45406 25.5459C4.56606 23.6579 3.28031 21.2525 2.7594 18.6337C2.2385 16.015 2.50585 13.3006 3.52763 10.8338C4.54942 8.36697 6.27974 6.25856 8.49981 4.77516C10.7199 3.29176 13.33 2.5 16 2.5C19.5792 2.50397 23.0107 3.92756 25.5416 6.45844C28.0724 8.98932 29.496 12.4208 29.5 16ZM20.6938 19.5H25.8975C25.9963 19.2237 26.0838 18.9412 26.1588 18.655C23.4475 15.9929 19.7997 14.5015 16 14.5015C12.2003 14.5015 8.55251 15.9929 5.84126 18.655C5.91626 18.9417 6.00334 19.2233 6.10251 19.5H11.3063C11.8153 19.5014 12.3119 19.6575 12.73 19.9478C13.1482 20.238 13.4682 20.6486 13.6475 21.125L15.655 26.4912C15.77 26.4912 15.8838 26.5 16 26.5C16.1163 26.5 16.2275 26.5 16.34 26.4912L18.3525 21.1162C18.5335 20.6417 18.8542 20.2332 19.2722 19.9446C19.6902 19.6561 20.1858 19.501 20.6938 19.5ZM5.55126 14.9663C8.56997 12.7157 12.2347 11.4999 16 11.4999C19.7653 11.4999 23.43 12.7157 26.4488 14.9663C26.1917 12.3736 24.9798 9.96909 23.0488 8.22007C21.1177 6.47104 18.6054 5.50241 16 5.50241C13.3946 5.50241 10.8823 6.47104 8.95124 8.22007C7.02019 9.96909 5.80836 12.3736 5.55126 14.9663ZM12.1863 25.78L10.96 22.5H7.76251C8.92094 23.9654 10.4475 25.0973 12.1863 25.78ZM24.2375 22.5H21.04L19.81 25.7812C21.5506 25.0993 23.0787 23.9669 24.2375 22.5Z" fill="black"/>
</svg>
