<svg width="32" height="32" viewBox="0 0 32 32" fill="none" xmlns="http://www.w3.org/2000/svg">
<path d="M30 19C30.0002 18.0794 29.7463 17.1766 29.2662 16.3911C28.7861 15.6056 28.0984 14.9679 27.279 14.5483C26.4596 14.1287 25.5402 13.9434 24.6223 14.013C23.7043 14.0825 22.8233 14.4042 22.0765 14.9425C21.3296 15.4807 20.7459 16.2148 20.3896 17.0636C20.0333 17.9125 19.9183 18.8433 20.0573 19.7533C20.1962 20.6634 20.5837 21.5174 21.1771 22.2213C21.7704 22.9252 22.5466 23.4516 23.42 23.7425C23.2505 24.5235 22.8187 25.223 22.1965 25.7247C21.5743 26.2263 20.7992 26.4999 20 26.5H17C16.0717 26.5 15.1815 26.1313 14.5251 25.4749C13.8687 24.8185 13.5 23.9283 13.5 23V18.3625C17.4662 17.64 20.5 14.1012 20.5 9.89625V5C20.5 4.6717 20.4353 4.34661 20.3097 4.04329C20.1841 3.73998 19.9999 3.46438 19.7678 3.23223C19.5356 3.00009 19.26 2.81594 18.9567 2.6903C18.6534 2.56466 18.3283 2.5 18 2.5H16C15.6022 2.5 15.2206 2.65804 14.9393 2.93934C14.658 3.22064 14.5 3.60218 14.5 4C14.5 4.39782 14.658 4.77936 14.9393 5.06066C15.2206 5.34196 15.6022 5.5 16 5.5H17.5V9.89625C17.5 12.9462 15.0662 15.4613 12.0737 15.5C11.3453 15.5098 10.6222 15.3747 9.94634 15.1027C9.27051 14.8307 8.65546 14.4271 8.1369 13.9154C7.61834 13.4037 7.20661 12.7941 6.9256 12.1219C6.6446 11.4498 6.49993 10.7285 6.5 10V5.5H8C8.39782 5.5 8.77936 5.34196 9.06066 5.06066C9.34196 4.77936 9.5 4.39782 9.5 4C9.5 3.60218 9.34196 3.22064 9.06066 2.93934C8.77936 2.65804 8.39782 2.5 8 2.5H6C5.33696 2.5 4.70107 2.76339 4.23223 3.23223C3.76339 3.70107 3.5 4.33696 3.5 5V10C3.50008 11.9941 4.20127 13.9247 5.48091 15.4541C6.76055 16.9835 8.53717 18.0143 10.5 18.3662V23C10.502 24.7233 11.1874 26.3754 12.406 27.594C13.6246 28.8126 15.2767 29.498 17 29.5H20C21.5873 29.4981 23.1192 28.9161 24.3073 27.8636C25.4955 26.811 26.2579 25.3605 26.4513 23.785C27.477 23.4722 28.3753 22.8386 29.0141 21.9773C29.6529 21.1159 29.9985 20.0724 30 19ZM25 21C24.6044 21 24.2178 20.8827 23.8889 20.6629C23.56 20.4432 23.3036 20.1308 23.1522 19.7654C23.0009 19.3999 22.9613 18.9978 23.0384 18.6098C23.1156 18.2219 23.3061 17.8655 23.5858 17.5858C23.8655 17.3061 24.2219 17.1156 24.6098 17.0384C24.9978 16.9613 25.3999 17.0009 25.7654 17.1522C26.1308 17.3036 26.4432 17.56 26.6629 17.8889C26.8827 18.2178 27 18.6044 27 19C27 19.5304 26.7893 20.0391 26.4142 20.4142C26.0391 20.7893 25.5304 21 25 21Z" fill="black"/>
</svg>
