<svg width="32" height="32" viewBox="0 0 32 32" fill="none" xmlns="http://www.w3.org/2000/svg">
<path d="M25.4999 8V5C25.4999 4.33696 25.2365 3.70107 24.7677 3.23223C24.2988 2.76339 23.663 2.5 22.9999 2.5H8.99992C8.33688 2.5 7.70099 2.76339 7.23215 3.23223C6.76331 3.70107 6.49992 4.33696 6.49992 5V8C6.49992 8.66304 6.76331 9.29893 7.23215 9.76777C7.70099 10.2366 8.33688 10.5 8.99992 10.5H9.24992L6.51867 27.7663C6.48283 27.963 6.48669 28.1649 6.53003 28.3601C6.57336 28.5553 6.65529 28.7399 6.771 28.903C6.88671 29.0661 7.03386 29.2044 7.2038 29.3098C7.37375 29.4152 7.56304 29.4855 7.76057 29.5167C7.95809 29.5479 8.15986 29.5393 8.354 29.4913C8.54813 29.4434 8.73073 29.3571 8.89104 29.2376C9.05134 29.118 9.18614 28.9676 9.28748 28.7953C9.38882 28.6229 9.45468 28.432 9.48117 28.2337L10.3874 22.5H21.6124L22.5187 28.2337C22.5452 28.432 22.611 28.6229 22.7124 28.7953C22.8137 28.9676 22.9485 29.118 23.1088 29.2376C23.2691 29.3571 23.4517 29.4434 23.6458 29.4913C23.84 29.5393 24.0417 29.5479 24.2393 29.5167C24.4368 29.4855 24.6261 29.4152 24.796 29.3098C24.966 29.2044 25.1131 29.0661 25.2288 28.903C25.3445 28.7399 25.4265 28.5553 25.4698 28.3601C25.5131 28.1649 25.517 27.963 25.4812 27.7663L22.7499 10.5H22.9999C23.663 10.5 24.2988 10.2366 24.7677 9.76777C25.2365 9.29893 25.4999 8.66304 25.4999 8ZM9.49992 5.5H22.4999V7.5H9.49992V5.5ZM21.1387 19.5H10.8612L12.2812 10.5H19.7187L21.1387 19.5Z" fill="black"/>
</svg>
