<svg width="32" height="32" viewBox="0 0 32 32" fill="none" xmlns="http://www.w3.org/2000/svg">
<path d="M25.0912 4.5H6.90875C6.27021 4.50099 5.65812 4.75509 5.2066 5.2066C4.75509 5.65812 4.50099 6.27021 4.5 6.90875V25.0912C4.50099 25.7298 4.75509 26.3419 5.2066 26.7934C5.65812 27.2449 6.27021 27.499 6.90875 27.5H25.0912C25.7298 27.499 26.3419 27.2449 26.7934 26.7934C27.2449 26.3419 27.499 25.7298 27.5 25.0912V6.90875C27.499 6.27021 27.2449 5.65812 26.7934 5.2066C26.3419 4.75509 25.7298 4.50099 25.0912 4.5ZM24.5 24.5H7.5V7.5H24.5V24.5Z" fill="black"/>
</svg>
