<svg width="32" height="32" viewBox="0 0 32 32" fill="none" xmlns="http://www.w3.org/2000/svg">
<path d="M29.5 12C29.5009 11.8606 29.4824 11.7218 29.445 11.5875L27.65 5.31375C27.4996 4.79274 27.1845 4.33445 26.7518 4.00749C26.3192 3.68053 25.7923 3.50249 25.25 3.5H6.75C6.20771 3.50249 5.68082 3.68053 5.24818 4.00749C4.81554 4.33445 4.50042 4.79274 4.35 5.31375L2.5575 11.5875C2.51925 11.7217 2.49989 11.8605 2.5 12V14C2.49987 14.8105 2.67912 15.611 3.02491 16.3441C3.3707 17.0772 3.87444 17.7246 4.5 18.24V26C4.5 26.663 4.76339 27.2989 5.23223 27.7678C5.70107 28.2366 6.33696 28.5 7 28.5H25C25.663 28.5 26.2989 28.2366 26.7678 27.7678C27.2366 27.2989 27.5 26.663 27.5 26V18.24C28.1256 17.7246 28.6293 17.0772 28.9751 16.3441C29.3209 15.611 29.5001 14.8105 29.5 14V12ZM26.5 14C26.5 14.663 26.2366 15.2989 25.7678 15.7678C25.2989 16.2366 24.663 16.5 24 16.5C23.337 16.5 22.7011 16.2366 22.2322 15.7678C21.7634 15.2989 21.5 14.663 21.5 14V13.5H26.5V14ZM5.5 14V13.5H10.5V14C10.5 14.663 10.2366 15.2989 9.76777 15.7678C9.29893 16.2366 8.66304 16.5 8 16.5C7.33696 16.5 6.70107 16.2366 6.23223 15.7678C5.76339 15.2989 5.5 14.663 5.5 14ZM13.5 13.5H18.5V14C18.5 14.663 18.2366 15.2989 17.7678 15.7678C17.2989 16.2366 16.663 16.5 16 16.5C15.337 16.5 14.7011 16.2366 14.2322 15.7678C13.7634 15.2989 13.5 14.663 13.5 14V13.5ZM7.13125 6.5H24.875L26.0175 10.5H5.98875L7.13125 6.5ZM24.5 25.5H7.5V19.4762C7.665 19.4913 7.83125 19.5 8 19.5C8.74968 19.5002 9.49144 19.3467 10.1794 19.049C10.8674 18.7512 11.4871 18.3155 12 17.7687C12.5131 18.3153 13.1327 18.7509 13.8207 19.0487C14.5086 19.3465 15.2503 19.5001 16 19.5001C16.7497 19.5001 17.4914 19.3465 18.1793 19.0487C18.8673 18.7509 19.4869 18.3153 20 17.7687C20.5129 18.3155 21.1326 18.7512 21.8206 19.049C22.5086 19.3467 23.2503 19.5002 24 19.5C24.1688 19.5 24.335 19.4913 24.5 19.4762V25.5Z" fill="black"/>
</svg>
