<svg width="32" height="32" viewBox="0 0 32 32" fill="none" xmlns="http://www.w3.org/2000/svg">
<path d="M28.4738 6.57756L16.4738 2.57756C16.1665 2.47382 15.8336 2.47382 15.5263 2.57756L3.5263 6.57756C3.23997 6.67239 2.98888 6.85135 2.8058 7.09106C2.62273 7.33077 2.51617 7.62011 2.50005 7.92131C2.49868 7.94754 2.49868 7.97383 2.50005 8.00006V18.0001C2.50005 18.3979 2.65808 18.7794 2.93939 19.0607C3.22069 19.342 3.60222 19.5001 4.00005 19.5001C4.39787 19.5001 4.7794 19.342 5.06071 19.0607C5.34201 18.7794 5.50005 18.3979 5.50005 18.0001V10.0813L8.4638 11.0688C7.544 12.8294 7.27066 14.8568 7.69136 16.7982C8.11206 18.7395 9.20017 20.4719 10.7663 21.6938C8.71683 22.7045 6.98233 24.2557 5.75005 26.1801C5.63908 26.345 5.562 26.5303 5.52329 26.7253C5.48458 26.9203 5.48501 27.121 5.52456 27.3158C5.56411 27.5107 5.64199 27.6957 5.75368 27.8601C5.86536 28.0246 6.00861 28.1652 6.17512 28.2738C6.34162 28.3824 6.52805 28.4568 6.72356 28.4927C6.91908 28.5286 7.11979 28.5253 7.31402 28.483C7.50824 28.4407 7.69212 28.3601 7.85496 28.2461C8.0178 28.1321 8.15634 27.9868 8.26255 27.8188C10.0463 25.0738 12.875 23.5001 16 23.5001C19.125 23.5001 21.9538 25.0738 23.7438 27.8188C23.85 27.9868 23.9886 28.1321 24.1514 28.2461C24.3142 28.3601 24.4981 28.4407 24.6923 28.483C24.8866 28.5253 25.0873 28.5286 25.2828 28.4927C25.4783 28.4568 25.6647 28.3824 25.8312 28.2738C25.9977 28.1652 26.141 28.0246 26.2527 27.8601C26.3644 27.6957 26.4422 27.5107 26.4818 27.3158C26.5213 27.121 26.5218 26.9203 26.4831 26.7253C26.4443 26.5303 26.3673 26.345 26.2563 26.1801C25.0228 24.2535 23.286 22.7008 21.2338 21.6901C22.7999 20.4682 23.888 18.7358 24.3087 16.7944C24.7294 14.8531 24.4561 12.8257 23.5363 11.0651L28.4738 9.41881C28.7721 9.31901 29.0315 9.12797 29.2152 8.8727C29.399 8.61743 29.4979 8.31085 29.4979 7.99631C29.4979 7.68177 29.399 7.37519 29.2152 7.11992C29.0315 6.86465 28.7721 6.67361 28.4738 6.57381V6.57756ZM16 5.57756L23.2563 8.00006L16 10.4188L8.75005 8.00006L16 5.57756ZM21.5 15.0001C21.5002 15.8544 21.3014 16.6969 20.9193 17.461C20.5372 18.2251 19.9824 18.8897 19.2988 19.402C18.6152 19.9144 17.8217 20.2605 16.9811 20.4129C16.1405 20.5653 15.2759 20.5197 14.456 20.2799C13.6361 20.0401 12.8833 19.6125 12.2573 19.0312C11.6313 18.4498 11.1494 17.7307 10.8496 16.9307C10.5499 16.1307 10.4407 15.2719 10.5306 14.4223C10.6205 13.5728 10.907 12.7559 11.3675 12.0363L15.5263 13.4226C15.8337 13.5259 16.1664 13.5259 16.4738 13.4226L20.6325 12.0363C21.1998 12.9207 21.5009 13.9494 21.5 15.0001Z" fill="black"/>
</svg>
