<svg width="32" height="32" viewBox="0 0 32 32" fill="none" xmlns="http://www.w3.org/2000/svg">
<path d="M28 5.5H4C3.33696 5.5 2.70107 5.76339 2.23223 6.23223C1.76339 6.70107 1.5 7.33696 1.5 8V24C1.5 24.663 1.76339 25.2989 2.23223 25.7678C2.70107 26.2366 3.33696 26.5 4 26.5H28C28.663 26.5 29.2989 26.2366 29.7678 25.7678C30.2366 25.2989 30.5 24.663 30.5 24V8C30.5 7.33696 30.2366 6.70107 29.7678 6.23223C29.2989 5.76339 28.663 5.5 28 5.5ZM27.5 23.5H4.5V8.5H27.5V23.5ZM6 16C6 15.6022 6.15804 15.2206 6.43934 14.9393C6.72064 14.658 7.10218 14.5 7.5 14.5H9.5C9.89782 14.5 10.2794 14.658 10.5607 14.9393C10.842 15.2206 11 15.6022 11 16C11 16.3978 10.842 16.7794 10.5607 17.0607C10.2794 17.342 9.89782 17.5 9.5 17.5H7.5C7.10218 17.5 6.72064 17.342 6.43934 17.0607C6.15804 16.7794 6 16.3978 6 16ZM13 16C13 15.6022 13.158 15.2206 13.4393 14.9393C13.7206 14.658 14.1022 14.5 14.5 14.5H24.5C24.8978 14.5 25.2794 14.658 25.5607 14.9393C25.842 15.2206 26 15.6022 26 16C26 16.3978 25.842 16.7794 25.5607 17.0607C25.2794 17.342 24.8978 17.5 24.5 17.5H14.5C14.1022 17.5 13.7206 17.342 13.4393 17.0607C13.158 16.7794 13 16.3978 13 16ZM6 20.5C6 20.1022 6.15804 19.7206 6.43934 19.4393C6.72064 19.158 7.10218 19 7.5 19H17.5C17.8978 19 18.2794 19.158 18.5607 19.4393C18.842 19.7206 19 20.1022 19 20.5C19 20.8978 18.842 21.2794 18.5607 21.5607C18.2794 21.842 17.8978 22 17.5 22H7.5C7.10218 22 6.72064 21.842 6.43934 21.5607C6.15804 21.2794 6 20.8978 6 20.5ZM26 20.5C26 20.8978 25.842 21.2794 25.5607 21.5607C25.2794 21.842 24.8978 22 24.5 22H22.5C22.1022 22 21.7206 21.842 21.4393 21.5607C21.158 21.2794 21 20.8978 21 20.5C21 20.1022 21.158 19.7206 21.4393 19.4393C21.7206 19.158 22.1022 19 22.5 19H24.5C24.8978 19 25.2794 19.158 25.5607 19.4393C25.842 19.7206 26 20.1022 26 20.5Z" fill="black"/>
</svg>
