<svg width="32" height="32" viewBox="0 0 32 32" fill="none" xmlns="http://www.w3.org/2000/svg">
<path d="M21.6138 10.3849C21.3176 8.61905 20.5408 6.96885 19.3686 5.61529C18.1964 4.26174 16.6741 3.25712 14.9687 2.71158C13.2633 2.16605 11.4406 2.10069 9.70044 2.52266C7.96031 2.94463 6.36999 3.83764 5.10388 5.10376C3.83776 6.36987 2.94476 7.96019 2.52278 9.70031C2.10081 11.4404 2.16618 13.2632 2.71171 14.9686C3.25724 16.674 4.26186 18.1963 5.61542 19.3685C6.96897 20.5406 8.61917 21.3174 10.385 21.6137C10.6813 23.3796 11.4581 25.0298 12.6303 26.3833C13.8024 27.7369 15.3247 28.7415 17.0301 29.287C18.7356 29.8326 20.5583 29.8979 22.2984 29.4759C24.0385 29.054 25.6289 28.161 26.895 26.8948C28.1611 25.6287 29.0541 24.0384 29.4761 22.2983C29.898 20.5582 29.8327 18.7354 29.2871 17.03C28.7416 15.3246 27.737 13.8023 26.3834 12.6301C25.0299 11.458 23.3797 10.6812 21.6138 10.3849ZM28.25 19.9999C28.2496 20.3721 28.2237 20.7438 28.1726 21.1124L21.4525 14.3912C21.6504 13.6095 21.7503 12.8063 21.75 11.9999C21.75 11.9787 21.75 11.9574 21.75 11.9362C23.5936 12.3316 25.2454 13.3485 26.4287 14.8165C27.612 16.2844 28.255 18.1144 28.25 19.9999ZM18.3388 19.3987L25.2763 26.3362C24.5437 26.9461 23.711 27.4244 22.8151 27.7499L15.965 20.8987C16.8246 20.5161 17.6242 20.0108 18.3388 19.3987ZM19.3988 18.3387C20.011 17.6237 20.5163 16.8237 20.8988 15.9637L27.75 22.8149C27.423 23.7112 26.943 24.544 26.3313 25.2762L19.3988 18.3387ZM3.75005 11.9999C3.75005 10.3682 4.2339 8.77318 5.14043 7.41647C6.04695 6.05977 7.33542 5.00234 8.84291 4.37792C10.3504 3.7535 12.0092 3.59012 13.6095 3.90845C15.2099 4.22678 16.6799 5.01251 17.8337 6.1663C18.9875 7.32008 19.7732 8.79009 20.0915 10.3904C20.4099 11.9908 20.2465 13.6496 19.6221 15.1571C18.9976 16.6646 17.9402 17.953 16.5835 18.8596C15.2268 19.7661 13.6317 20.2499 12 20.2499C9.81283 20.2473 7.71594 19.3772 6.16934 17.8306C4.62274 16.284 3.7527 14.1872 3.75005 11.9999ZM11.9363 21.7499H12C12.8064 21.7502 13.6096 21.6503 14.3913 21.4524L21.1125 28.1724C19.0549 28.4568 16.9659 27.9529 15.2641 26.7618C13.5624 25.5708 12.3737 23.7805 11.9363 21.7499Z" fill="black"/>
</svg>
