<svg width="32" height="32" viewBox="0 0 32 32" fill="none" xmlns="http://www.w3.org/2000/svg">
<path d="M25 4.5C24.6022 4.5 24.2206 4.65804 23.9393 4.93934C23.658 5.22064 23.5 5.60218 23.5 6C23.5 6.39782 23.658 6.77936 23.9393 7.06066C24.2206 7.34196 24.6022 7.5 25 7.5C25.3978 7.5 25.7794 7.65804 26.0607 7.93934C26.342 8.22064 26.5 8.60218 26.5 9V15.5H5.5V9C5.5 8.60218 5.65804 8.22064 5.93934 7.93934C6.22064 7.65804 6.60218 7.5 7 7.5C7.39782 7.5 7.77936 7.34196 8.06066 7.06066C8.34196 6.77936 8.5 6.39782 8.5 6C8.5 5.60218 8.34196 5.22064 8.06066 4.93934C7.77936 4.65804 7.39782 4.5 7 4.5C5.80653 4.5 4.66193 4.97411 3.81802 5.81802C2.97411 6.66193 2.5 7.80653 2.5 9V20.5C2.5 22.0913 3.13214 23.6174 4.25736 24.7426C5.38258 25.8679 6.9087 26.5 8.5 26.5C10.0913 26.5 11.6174 25.8679 12.7426 24.7426C13.8679 23.6174 14.5 22.0913 14.5 20.5V18.5H17.5V20.5C17.5 22.0913 18.1321 23.6174 19.2574 24.7426C20.3826 25.8679 21.9087 26.5 23.5 26.5C25.0913 26.5 26.6174 25.8679 27.7426 24.7426C28.8679 23.6174 29.5 22.0913 29.5 20.5V9C29.5 7.80653 29.0259 6.66193 28.182 5.81802C27.3381 4.97411 26.1935 4.5 25 4.5ZM26.3975 21.2763L23.625 18.5H26.5V20.5C26.4999 20.7621 26.4654 21.0231 26.3975 21.2763ZM5.5 20.5V19.625L9.27625 23.4013C8.8315 23.5204 8.36529 23.5356 7.91373 23.4456C7.46218 23.3556 7.03739 23.1629 6.67227 22.8824C6.30716 22.6019 6.01151 22.2411 5.80822 21.8279C5.60494 21.4148 5.49948 20.9604 5.5 20.5ZM11.5 20.5C11.4999 20.7621 11.4654 21.0231 11.3975 21.2763L8.625 18.5H11.5V20.5ZM20.5 20.5V19.625L24.2763 23.4013C23.8315 23.5204 23.3653 23.5356 22.9137 23.4456C22.4622 23.3556 22.0374 23.1629 21.6723 22.8824C21.3072 22.6019 21.0115 22.2411 20.8082 21.8279C20.6049 21.4148 20.4995 20.9604 20.5 20.5Z" fill="black"/>
</svg>
