<svg width="32" height="32" viewBox="0 0 32 32" fill="none" xmlns="http://www.w3.org/2000/svg">
<path d="M28.5 6V19C28.5 19.663 28.2366 20.2989 27.7678 20.7678C27.2989 21.2366 26.663 21.5 26 21.5H14.115C14.3695 21.7918 14.5013 22.1707 14.4828 22.5574C14.4644 22.9441 14.2971 23.3087 14.016 23.5749C13.7349 23.8412 13.3618 23.9884 12.9746 23.9859C12.5875 23.9833 12.2163 23.8312 11.9388 23.5613L9.43875 21.0613C9.29891 20.9219 9.18795 20.7563 9.11225 20.574C9.03654 20.3917 8.99757 20.1962 8.99757 19.9988C8.99757 19.8013 9.03654 19.6059 9.11225 19.4235C9.18795 19.2412 9.29891 19.0756 9.43875 18.9363L11.9388 16.4363C12.2149 16.1583 12.5888 15.9994 12.9805 15.9936C13.3723 15.9878 13.7507 16.1354 14.035 16.405C14.3193 16.6746 14.4868 17.0447 14.5018 17.4362C14.5167 17.8277 14.3779 18.2095 14.115 18.5H25.5V6.5H12.5C12.5 6.89782 12.342 7.27936 12.0607 7.56066C11.7794 7.84196 11.3978 8 11 8C10.6022 8 10.2206 7.84196 9.93934 7.56066C9.65804 7.27936 9.5 6.89782 9.5 6.5V6C9.5 5.33696 9.76339 4.70107 10.2322 4.23223C10.7011 3.76339 11.337 3.5 12 3.5H26C26.663 3.5 27.2989 3.76339 27.7678 4.23223C28.2366 4.70107 28.5 5.33696 28.5 6ZM21 24C20.6022 24 20.2206 24.158 19.9393 24.4393C19.658 24.7206 19.5 25.1022 19.5 25.5H6.5V13.5H17.885C17.6305 13.7918 17.4987 14.1707 17.5172 14.5574C17.5356 14.9441 17.7029 15.3087 17.984 15.5749C18.2651 15.8412 18.6382 15.9884 19.0254 15.9859C19.4125 15.9833 19.7837 15.8312 20.0613 15.5612L22.5613 13.0612C22.7011 12.9219 22.812 12.7563 22.8878 12.574C22.9635 12.3917 23.0024 12.1962 23.0024 11.9987C23.0024 11.8013 22.9635 11.6058 22.8878 11.4235C22.812 11.2412 22.7011 11.0756 22.5613 10.9362L20.0613 8.43625C19.7851 8.15832 19.4112 7.99945 19.0195 7.99361C18.6277 7.98778 18.2493 8.13544 17.965 8.40503C17.6807 8.67461 17.5132 9.04473 17.4982 9.43622C17.4833 9.82772 17.6221 10.2095 17.885 10.5H6C5.33696 10.5 4.70107 10.7634 4.23223 11.2322C3.76339 11.7011 3.5 12.337 3.5 13V26C3.5 26.663 3.76339 27.2989 4.23223 27.7678C4.70107 28.2366 5.33696 28.5 6 28.5H20C20.663 28.5 21.2989 28.2366 21.7678 27.7678C22.2366 27.2989 22.5 26.663 22.5 26V25.5C22.5 25.1022 22.342 24.7206 22.0607 24.4393C21.7794 24.158 21.3978 24 21 24Z" fill="black"/>
</svg>
