<svg width="32" height="32" viewBox="0 0 32 32" fill="none" xmlns="http://www.w3.org/2000/svg">
<path d="M28.4088 19.0089L26.0238 12.4814C25.8867 12.1097 25.608 11.8074 25.2488 11.6404C24.8895 11.4735 24.4788 11.4554 24.1063 11.5901L14.8188 14.9551L16.4776 5.4764C16.5467 5.08563 16.4582 4.68338 16.2314 4.35772C16.0047 4.03206 15.6581 3.80955 15.2676 3.7389L8.4338 2.5239C8.24126 2.48948 8.04378 2.49386 7.85295 2.53679C7.66213 2.57972 7.4818 2.66033 7.32255 2.7739C7.16027 2.88666 7.02208 3.03062 6.91606 3.19738C6.81004 3.36414 6.7383 3.55036 6.70505 3.74515L3.58005 21.6364C3.35039 22.9364 3.64415 24.2744 4.39725 25.3587C5.15036 26.4429 6.30168 27.1853 7.60005 27.4239C7.89736 27.4747 8.19843 27.5002 8.50005 27.5001H27.0001C27.3979 27.5001 27.7794 27.3421 28.0607 27.0608C28.342 26.7795 28.5001 26.398 28.5001 26.0001V19.5239C28.4956 19.3486 28.4648 19.175 28.4088 19.0089ZM24.4463 12.5301C24.57 12.4856 24.7063 12.4916 24.8256 12.5468C24.9449 12.6021 25.0377 12.702 25.0838 12.8251L27.4701 19.3514C27.4923 19.4119 27.5023 19.4762 27.4995 19.5405C27.4967 19.6049 27.4812 19.6681 27.4538 19.7264C27.3971 19.8434 27.2965 19.9333 27.1738 19.9764L12.5976 25.2639C12.9752 24.69 13.2305 24.0445 13.3476 23.3676L14.6251 16.0914L24.4463 12.5301ZM10.7188 25.7864C10.2958 26.0848 9.81778 26.2961 9.31242 26.4081C8.80706 26.5201 8.28448 26.5306 7.77505 26.4389C6.73574 26.2475 5.81439 25.6527 5.21223 24.7842C4.61008 23.9158 4.37607 22.8443 4.5613 21.8039L7.6863 3.91265C7.6975 3.84786 7.72138 3.78591 7.75656 3.73036C7.79173 3.6748 7.83752 3.62673 7.8913 3.5889C7.97345 3.53061 8.07182 3.49957 8.17255 3.50015C8.20146 3.50015 8.23032 3.50266 8.2588 3.50765L15.0926 4.7239C15.2223 4.74821 15.3371 4.82283 15.4121 4.93148C15.487 5.04013 15.5159 5.174 15.4926 5.3039L12.3676 23.1951C12.2784 23.7149 12.0867 24.2116 11.8036 24.6565C11.5206 25.1014 11.1518 25.4855 10.7188 25.7864ZM27.5001 26.0001C27.5001 26.1328 27.4474 26.2599 27.3536 26.3537C27.2598 26.4475 27.1327 26.5001 27.0001 26.5001H12.1251L27.5001 20.9264V26.0001ZM9.50005 22.5001C9.50005 22.6979 9.4414 22.8913 9.33152 23.0557C9.22164 23.2202 9.06546 23.3483 8.88273 23.424C8.70001 23.4997 8.49894 23.5195 8.30496 23.4809C8.11098 23.4423 7.9328 23.3471 7.79294 23.2073C7.65309 23.0674 7.55785 22.8892 7.51927 22.6952C7.48068 22.5013 7.50048 22.3002 7.57617 22.1175C7.65186 21.9347 7.78003 21.7786 7.94448 21.6687C8.10893 21.5588 8.30227 21.5001 8.50005 21.5001C8.76527 21.5001 9.01962 21.6055 9.20716 21.793C9.39469 21.9806 9.50005 22.2349 9.50005 22.5001Z" fill="black"/>
</svg>
