<svg width="32" height="32" viewBox="0 0 32 32" fill="none" xmlns="http://www.w3.org/2000/svg">
<path d="M29.3488 18.6651L26.9626 12.1388C26.7346 11.5184 26.2703 11.0134 25.6711 10.7345C25.0719 10.4555 24.3866 10.4251 23.7651 10.6501L16.1013 13.4276L17.4626 5.64757C17.5783 4.99573 17.4307 4.32461 17.0523 3.78141C16.6738 3.23822 16.0954 2.86732 15.4438 2.75007L8.60881 1.53882C8.28578 1.48188 7.95469 1.48926 7.63452 1.56053C7.31435 1.6318 7.0114 1.76557 6.74303 1.95416C6.47466 2.14275 6.24616 2.38245 6.07061 2.65953C5.89507 2.93661 5.77594 3.24561 5.72006 3.56882L2.59506 21.4601C2.31887 23.0213 2.67185 24.6284 3.57688 25.9302C4.4819 27.232 5.86539 28.1226 7.42506 28.4076C7.78426 28.4693 8.14808 28.5003 8.51256 28.5001H27.0001C27.6631 28.5001 28.299 28.2367 28.7678 27.7678C29.2367 27.299 29.5001 26.6631 29.5001 26.0001V19.5238C29.4962 19.2313 29.4451 18.9413 29.3488 18.6651ZM11.3751 23.0226C11.3089 23.4123 11.1659 23.785 10.9543 24.1189C10.7427 24.4528 10.4667 24.7413 10.1426 24.9676C9.82722 25.1901 9.47075 25.3478 9.09391 25.4312C8.71707 25.5147 8.32739 25.5224 7.94756 25.4538C7.16902 25.3088 6.47941 24.8618 6.02911 24.2104C5.57882 23.5589 5.40437 22.7559 5.54381 21.9763L8.58881 4.58257L14.4213 5.62507L11.3751 23.0226ZM14.3301 23.5388L15.5038 16.8338L24.3151 13.6413L26.3526 19.2151L14.3238 23.5738C14.3276 23.5626 14.3313 23.5513 14.3326 23.5388H14.3301ZM26.5001 25.5001H17.8151L26.5001 22.3526V25.5001ZM10.1526 21.7588L9.97756 22.7588C9.91667 23.1065 9.73514 23.4215 9.4649 23.6486C9.19465 23.8756 8.85301 24.0001 8.50006 24.0001C8.41291 23.9999 8.32593 23.9924 8.24006 23.9776C7.8482 23.9089 7.49966 23.6875 7.2711 23.3619C7.04254 23.0362 6.95268 22.6332 7.02131 22.2413L7.19631 21.2413C7.26643 20.8509 7.48837 20.5041 7.81355 20.2769C8.13874 20.0497 8.54069 19.9605 8.93144 20.029C9.32219 20.0974 9.66992 20.3178 9.89854 20.642C10.1272 20.9662 10.218 21.3678 10.1513 21.7588H10.1526Z" fill="black"/>
</svg>
