<svg width="32" height="32" viewBox="0 0 32 32" fill="none" xmlns="http://www.w3.org/2000/svg">
<path d="M11 18.6737C11.3978 18.6737 11.7794 18.5157 12.0607 18.2344C12.342 17.9531 12.5 17.5716 12.5 17.1737V17H19.5V17.4112C19.5 17.8091 19.658 18.1906 19.9393 18.4719C20.2206 18.7532 20.6022 18.9112 21 18.9112C21.3978 18.9112 21.7794 18.7532 22.0607 18.4719C22.342 18.1906 22.5 17.8091 22.5 17.4112V4C22.5 3.60218 22.342 3.22064 22.0607 2.93934C21.7794 2.65804 21.3978 2.5 21 2.5C20.6022 2.5 20.2206 2.65804 19.9393 2.93934C19.658 3.22064 19.5 3.60218 19.5 4V5H12.5V4C12.5 3.60218 12.342 3.22064 12.0607 2.93934C11.7794 2.65804 11.3978 2.5 11 2.5C10.6022 2.5 10.2206 2.65804 9.93934 2.93934C9.65804 3.22064 9.5 3.60218 9.5 4V17.1737C9.5 17.5716 9.65804 17.9531 9.93934 18.2344C10.2206 18.5157 10.6022 18.6737 11 18.6737ZM12.5 14V12.5H19.5V14H12.5ZM19.5 8V9.5H12.5V8H19.5ZM2.5 20.5C2.5 20.1022 2.65804 19.7206 2.93934 19.4393C3.22064 19.158 3.60218 19 4 19C5.95375 19 7 19.6938 7.8325 20.25C8.5075 20.7 8.9575 21 10 21C11.0425 21 11.4912 20.7025 12.1675 20.25C13.0037 19.6912 14.0425 19 15.9987 19C17.955 19 18.9987 19.6938 19.8312 20.25C20.5075 20.7 20.9562 21 22 21C23.0438 21 23.4925 20.7025 24.1675 20.25C25.005 19.6912 26.0425 19 28 19C28.3978 19 28.7794 19.158 29.0607 19.4393C29.342 19.7206 29.5 20.1022 29.5 20.5C29.5 20.8978 29.342 21.2794 29.0607 21.5607C28.7794 21.842 28.3978 22 28 22C26.9538 22 26.5075 22.2975 25.8312 22.75C24.995 23.3088 23.9562 24 22 24C20.0438 24 19 23.3062 18.1675 22.75C17.4912 22.3 17.0425 22 15.9987 22C14.955 22 14.5075 22.2975 13.8313 22.75C12.995 23.3088 11.9563 24 10 24C8.04375 24 7 23.3062 6.1675 22.75C5.4925 22.3 5.0425 22 4 22C3.60218 22 3.22064 21.842 2.93934 21.5607C2.65804 21.2794 2.5 20.8978 2.5 20.5ZM29.5 26C29.5 26.3978 29.342 26.7794 29.0607 27.0607C28.7794 27.342 28.3978 27.5 28 27.5C26.9538 27.5 26.5075 27.7975 25.8312 28.25C24.995 28.8088 23.9562 29.5 22 29.5C20.0438 29.5 19 28.8062 18.1675 28.25C17.4912 27.8 17.0425 27.5 15.9987 27.5C14.955 27.5 14.5075 27.7975 13.8313 28.25C12.995 28.8088 11.9563 29.5 10 29.5C8.04375 29.5 7 28.8062 6.1675 28.25C5.4925 27.8 5.0425 27.5 4 27.5C3.60218 27.5 3.22064 27.342 2.93934 27.0607C2.65804 26.7794 2.5 26.3978 2.5 26C2.5 25.6022 2.65804 25.2206 2.93934 24.9393C3.22064 24.658 3.60218 24.5 4 24.5C5.95375 24.5 7 25.1938 7.8325 25.75C8.5075 26.2 8.9575 26.5 10 26.5C11.0425 26.5 11.4912 26.2025 12.1675 25.75C13.0037 25.1912 14.0425 24.5 15.9987 24.5C17.955 24.5 18.9987 25.1938 19.8312 25.75C20.5075 26.2 20.9562 26.5 22 26.5C23.0438 26.5 23.4925 26.2025 24.1675 25.75C25.005 25.1912 26.0425 24.5 28 24.5C28.3978 24.5 28.7794 24.658 29.0607 24.9393C29.342 25.2206 29.5 25.6022 29.5 26Z" fill="black"/>
</svg>
