<svg width="32" height="32" viewBox="0 0 32 32" fill="none" xmlns="http://www.w3.org/2000/svg">
<path opacity="0.08" d="M17.7075 25.1251L16.125 26.7076C16.0322 26.8005 15.9219 26.8743 15.8005 26.9246C15.6791 26.9749 15.549 27.0008 15.4175 27.0008C15.2861 27.0008 15.156 26.9749 15.0346 26.9246C14.9132 26.8743 14.8029 26.8005 14.71 26.7076L11.5 23.5001L7.29379 27.7076C7.20092 27.8005 7.09063 27.8743 6.96923 27.9246C6.84783 27.9749 6.7177 28.0008 6.58629 28.0008C6.45487 28.0008 6.32475 27.9749 6.20335 27.9246C6.08195 27.8743 5.97166 27.8005 5.87879 27.7076L4.29254 26.1251C4.10514 25.9375 3.99988 25.6833 3.99988 25.4182C3.99988 25.1531 4.10514 24.8988 4.29254 24.7113L8.50004 20.5001L5.29254 17.2951C5.19956 17.2022 5.1258 17.0919 5.07548 16.9705C5.02516 16.8491 4.99925 16.719 4.99925 16.5876C4.99925 16.4561 5.02516 16.326 5.07548 16.2046C5.1258 16.0832 5.19956 15.9729 5.29254 15.8801L6.87504 14.2926C6.96791 14.1996 7.0782 14.1258 7.1996 14.0755C7.321 14.0252 7.45112 13.9993 7.58254 13.9993C7.71395 13.9993 7.84408 14.0252 7.96548 14.0755C8.08688 14.1258 8.19717 14.1996 8.29004 14.2926L17.7025 23.7051C17.7966 23.7977 17.8714 23.908 17.9226 24.0297C17.9738 24.1514 18.0004 24.282 18.0008 24.414C18.0013 24.546 17.9756 24.6768 17.9253 24.7989C17.8749 24.9209 17.8009 25.0318 17.7075 25.1251Z" fill="black"/>
<path d="M27 4H19C18.8469 3.99998 18.6958 4.03514 18.5584 4.10276C18.421 4.17038 18.3009 4.26865 18.2075 4.39L10.2075 14.7913L9 13.5863C8.81425 13.4003 8.59368 13.2528 8.35088 13.1521C8.10809 13.0515 7.84783 12.9997 7.585 12.9997C7.32217 12.9997 7.06192 13.0515 6.81912 13.1521C6.57632 13.2528 6.35575 13.4003 6.17 13.5863L4.58375 15.1737C4.39798 15.3595 4.25063 15.58 4.15009 15.8227C4.04955 16.0653 3.9978 16.3254 3.9978 16.5881C3.9978 16.8508 4.04955 17.1109 4.15009 17.3536C4.25063 17.5963 4.39798 17.8168 4.58375 18.0025L7.08375 20.5025L3.58375 24.0025C3.39799 24.1882 3.25063 24.4087 3.15009 24.6514C3.04955 24.8941 2.9978 25.1542 2.9978 25.4169C2.9978 25.6796 3.04955 25.9397 3.15009 26.1823C3.25063 26.425 3.39799 26.6455 3.58375 26.8312L5.17 28.4163C5.54504 28.791 6.05354 29.0016 6.58375 29.0016C7.11396 29.0016 7.62247 28.791 7.9975 28.4163L11.4975 24.9163L13.9975 27.4163C14.1832 27.6022 14.4038 27.7497 14.6466 27.8504C14.8894 27.951 15.1497 28.0028 15.4125 28.0028C15.6753 28.0028 15.9356 27.951 16.1784 27.8504C16.4212 27.7497 16.6418 27.6022 16.8275 27.4163L18.4138 25.8288C18.5995 25.643 18.7469 25.4225 18.8474 25.1798C18.948 24.9372 18.9997 24.6771 18.9997 24.4144C18.9997 24.1517 18.948 23.8916 18.8474 23.6489C18.7469 23.4062 18.5995 23.1857 18.4138 23L17.2088 21.795L27.61 13.795C27.7317 13.7013 27.8302 13.5809 27.8978 13.443C27.9654 13.3052 28.0004 13.1536 28 13V5C28 4.73478 27.8946 4.48043 27.7071 4.29289C27.5196 4.10536 27.2652 4 27 4ZM6.58625 27L5 25.415L8.5 21.915L10.085 23.5L6.58625 27ZM15.4125 26L6 16.5888L7.5875 15L17 24.4137L15.4125 26ZM26 12.5075L15.7825 20.3675L14.415 19L20.7075 12.7075C20.895 12.5199 21.0002 12.2654 21.0001 12.0002C21 11.7349 20.8945 11.4806 20.7069 11.2931C20.5192 11.1057 20.2648 11.0004 19.9996 11.0005C19.7343 11.0006 19.48 11.1061 19.2925 11.2937L13 17.585L11.6338 16.2175L19.4925 6H26V12.5075Z" fill="black"/>
</svg>
