<svg width="32" height="32" viewBox="0 0 32 32" fill="none" xmlns="http://www.w3.org/2000/svg">
<path d="M31.9362 20.5688V20.5613C31.9367 20.5576 31.9367 20.5538 31.9362 20.5501L29.1499 11.2813C28.9977 10.7652 28.682 10.3124 28.2503 9.99118C27.8186 9.66994 27.2943 9.49759 26.7562 9.50006H25.4999C25.1021 9.50006 24.7206 9.6581 24.4393 9.9394C24.1579 10.2207 23.9999 10.6022 23.9999 11.0001C23.9999 11.3979 24.1579 11.7794 24.4393 12.0607C24.7206 12.342 25.1021 12.5001 25.4999 12.5001H26.3837L28.4837 19.5001H24.6162L22.1499 11.2813C21.9977 10.7652 21.682 10.3124 21.2503 9.99118C20.8186 9.66994 20.2943 9.49759 19.7562 9.50006H18.4999C18.1021 9.50006 17.7206 9.6581 17.4393 9.9394C17.1579 10.2207 16.9999 10.6022 16.9999 11.0001C16.9999 11.3979 17.1579 11.7794 17.4393 12.0607C17.7206 12.342 18.1021 12.5001 18.4999 12.5001H19.3837L21.4837 19.5001H17.6162L15.1499 11.2813C14.9977 10.7652 14.682 10.3124 14.2503 9.99118C13.8186 9.66994 13.2943 9.49759 12.7562 9.50006H5.24991C4.71074 9.49623 4.18497 9.66795 3.752 9.9893C3.31904 10.3106 3.0024 10.7641 2.84991 11.2813L0.0686607 20.5501C0.0680753 20.5538 0.0680753 20.5576 0.0686607 20.5613V20.5688C0.0605421 20.5942 0.0538648 20.6201 0.0486607 20.6463C-0.0047659 20.8665 -0.00763606 21.0958 0.0402657 21.3173C0.0881674 21.5387 0.185597 21.7464 0.325241 21.9247C0.464886 22.1031 0.643119 22.2475 0.846563 22.3472C1.05001 22.4468 1.27338 22.4991 1.49991 22.5001H30.4999C30.7337 22.5 30.9643 22.4453 31.1732 22.3402C31.3821 22.2352 31.5636 22.0828 31.7031 21.8952C31.8427 21.7076 31.9364 21.4899 31.9769 21.2596C32.0173 21.0293 32.0034 20.7928 31.9362 20.5688ZM5.61616 12.5001H12.3837L14.4837 19.5001H3.51616L5.61616 12.5001Z" fill="black"/>
</svg>
