<svg width="32" height="32" viewBox="0 0 32 32" fill="none" xmlns="http://www.w3.org/2000/svg">
<path d="M31.25 15.1675L25.545 6.61375C25.3168 6.27123 25.0075 5.99035 24.6447 5.79606C24.2818 5.60177 23.8766 5.50008 23.465 5.5H5C4.33696 5.5 3.70107 5.76339 3.23223 6.23223C2.76339 6.70107 2.5 7.33696 2.5 8V24C2.5 24.663 2.76339 25.2989 3.23223 25.7678C3.70107 26.2366 4.33696 26.5 5 26.5H23.465C23.8766 26.4999 24.2818 26.3982 24.6447 26.2039C25.0075 26.0096 25.3168 25.7288 25.545 25.3862L31.25 16.8325C31.4145 16.586 31.5022 16.2963 31.5022 16C31.5022 15.7037 31.4145 15.414 31.25 15.1675ZM23.1975 23.5H5.5V8.5H23.1975L28.1975 16L23.1975 23.5Z" fill="black"/>
</svg>
