<svg width="32" height="32" viewBox="0 0 32 32" fill="none" xmlns="http://www.w3.org/2000/svg">
<path d="M30.5 14H29.3188L25.5575 8.14751C25.3316 7.79481 25.0204 7.50477 24.6527 7.3042C24.285 7.10363 23.8726 6.99901 23.4538 7.00001H21.015L19.64 3.57126C19.4561 3.107 19.1366 2.70885 18.7233 2.42861C18.31 2.14838 17.8219 1.99903 17.3225 2.00002H14.6775C14.1775 1.99828 13.6886 2.14727 13.2745 2.42755C12.8604 2.70784 12.5404 3.1064 12.3562 3.57126L10.985 7.00001H8.54625C8.12724 6.99891 7.71473 7.10363 7.34697 7.30444C6.97921 7.50525 6.66811 7.79567 6.4425 8.14877L2.68125 14H1.5C1.10218 14 0.720644 14.1581 0.43934 14.4394C0.158035 14.7207 0 15.1022 0 15.5C0 15.8978 0.158035 16.2794 0.43934 16.5607C0.720644 16.842 1.10218 17 1.5 17H2V25.5C2 26.1631 2.26339 26.7989 2.73223 27.2678C3.20107 27.7366 3.83696 28 4.5 28H7.5C8.16304 28 8.79893 27.7366 9.26777 27.2678C9.73661 26.7989 10 26.1631 10 25.5V23H22V25.5C22 26.1631 22.2634 26.7989 22.7322 27.2678C23.2011 27.7366 23.837 28 24.5 28H27.5C28.163 28 28.7989 27.7366 29.2678 27.2678C29.7366 26.7989 30 26.1631 30 25.5V17H30.5C30.8978 17 31.2794 16.842 31.5607 16.5607C31.842 16.2794 32 15.8978 32 15.5C32 15.1022 31.842 14.7207 31.5607 14.4394C31.2794 14.1581 30.8978 14 30.5 14ZM15.015 5.00002H16.985L17.785 7.00001H14.215L15.015 5.00002ZM8.81875 10H23.1812L25.75 14H6.25L8.81875 10ZM7 25H5V23H7V25ZM25 25V23H27V25H25ZM27 20H5V17H27V20Z" fill="black"/>
</svg>
