<svg width="32" height="32" viewBox="0 0 32 32" fill="none" xmlns="http://www.w3.org/2000/svg">
<path d="M29.9362 2.89511C29.7124 2.70205 29.4401 2.57372 29.1486 2.52394C28.8572 2.47416 28.5578 2.50482 28.2825 2.61261L2.94999 12.5264C2.4902 12.7054 2.101 13.029 1.84096 13.4483C1.58092 13.8677 1.46411 14.3601 1.50809 14.8516C1.55208 15.3431 1.75449 15.807 2.08486 16.1735C2.41524 16.54 2.85571 16.7893 3.33999 16.8839L9.49999 18.0926V25.0001C9.49998 25.4985 9.64892 25.9855 9.9277 26.3986C10.2065 26.8117 10.6024 27.1321 11.0645 27.3186C11.5267 27.505 12.0341 27.5491 12.5215 27.4452C13.0089 27.3412 13.4541 27.0939 13.8 26.7351L16.6337 23.7964L21.2937 27.8751C21.6188 28.161 22.0125 28.3576 22.4364 28.4456C22.8602 28.5336 23.2997 28.5101 23.7117 28.3773C24.1237 28.2445 24.4942 28.0069 24.7868 27.688C25.0795 27.369 25.2843 26.9795 25.3812 26.5576L30.4587 4.48886C30.5248 4.20081 30.5111 3.90019 30.419 3.61937C30.3269 3.33854 30.16 3.08814 29.9362 2.89511ZM18.4262 9.69011L10.6525 15.2614L6.34874 14.4176L18.4262 9.69011ZM12.5 23.7576V20.1689L14.375 21.8126L12.5 23.7576ZM22.645 25.0726L13.41 16.9764L26.6987 7.45386L22.645 25.0726Z" fill="black"/>
</svg>
