<svg width="32" height="32" viewBox="0 0 32 32" fill="none" xmlns="http://www.w3.org/2000/svg">
<path d="M27 7.50022H19.625L23.065 4.06022C23.3468 3.77843 23.5051 3.39623 23.5051 2.99772C23.5051 2.5992 23.3468 2.21701 23.065 1.93522C22.7832 1.65343 22.401 1.49512 22.0025 1.49512C21.604 1.49512 21.2218 1.65343 20.94 1.93522L16 6.87522L11.0612 1.93897C10.7795 1.65718 10.3973 1.49887 9.99875 1.49887C9.60023 1.49887 9.21804 1.65718 8.93625 1.93897C8.65446 2.22076 8.49615 2.60295 8.49615 3.00147C8.49615 3.39998 8.65446 3.78218 8.93625 4.06397L12.375 7.50022H5C4.33696 7.50022 3.70107 7.76361 3.23223 8.23245C2.76339 8.70129 2.5 9.33718 2.5 10.0002V25.0002C2.5 25.6633 2.76339 26.2991 3.23223 26.768C3.70107 27.2368 4.33696 27.5002 5 27.5002H27C27.663 27.5002 28.2989 27.2368 28.7678 26.768C29.2366 26.2991 29.5 25.6633 29.5 25.0002V10.0002C29.5 9.33718 29.2366 8.70129 28.7678 8.23245C28.2989 7.76361 27.663 7.50022 27 7.50022ZM5.5 10.5002H16V24.5002H5.5V10.5002ZM26.5 24.5002H19V10.5002H26.5V24.5002ZM21 14.5002C21 14.1047 21.1173 13.718 21.3371 13.3891C21.5568 13.0602 21.8692 12.8038 22.2346 12.6525C22.6001 12.5011 23.0022 12.4615 23.3902 12.5386C23.7781 12.6158 24.1345 12.8063 24.4142 13.086C24.6939 13.3657 24.8844 13.7221 24.9616 14.11C25.0387 14.498 24.9991 14.9001 24.8478 15.2656C24.6964 15.631 24.44 15.9434 24.1111 16.1632C23.7822 16.3829 23.3956 16.5002 23 16.5002C22.4696 16.5002 21.9609 16.2895 21.5858 15.9144C21.2107 15.5394 21 15.0307 21 14.5002ZM25 20.5002C25 20.8958 24.8827 21.2825 24.6629 21.6114C24.4432 21.9403 24.1308 22.1966 23.7654 22.348C23.3999 22.4994 22.9978 22.539 22.6098 22.4618C22.2219 22.3846 21.8655 22.1941 21.5858 21.9144C21.3061 21.6347 21.1156 21.2784 21.0384 20.8904C20.9613 20.5024 21.0009 20.1003 21.1522 19.7349C21.3036 19.3694 21.56 19.057 21.8889 18.8373C22.2178 18.6175 22.6044 18.5002 23 18.5002C23.5304 18.5002 24.0391 18.7109 24.4142 19.086C24.7893 19.4611 25 19.9698 25 20.5002Z" fill="black"/>
</svg>
