<svg width="32" height="32" viewBox="0 0 32 32" fill="none" xmlns="http://www.w3.org/2000/svg">
<path d="M27 7.50022H19.625L23.065 4.06022C23.3468 3.77843 23.5051 3.39623 23.5051 2.99772C23.5051 2.5992 23.3468 2.21701 23.065 1.93522C22.7832 1.65343 22.401 1.49512 22.0025 1.49512C21.604 1.49512 21.2218 1.65343 20.94 1.93522L16 6.87522L11.0612 1.93897C10.7795 1.65718 10.3973 1.49887 9.99875 1.49887C9.60023 1.49887 9.21804 1.65718 8.93625 1.93897C8.65446 2.22076 8.49615 2.60295 8.49615 3.00147C8.49615 3.39998 8.65446 3.78218 8.93625 4.06397L12.375 7.50022H5C4.33696 7.50022 3.70107 7.76361 3.23223 8.23245C2.76339 8.70129 2.5 9.33718 2.5 10.0002V25.0002C2.5 25.6633 2.76339 26.2991 3.23223 26.768C3.70107 27.2368 4.33696 27.5002 5 27.5002H27C27.663 27.5002 28.2989 27.2368 28.7678 26.768C29.2366 26.2991 29.5 25.6633 29.5 25.0002V10.0002C29.5 9.33718 29.2366 8.70129 28.7678 8.23245C28.2989 7.76361 27.663 7.50022 27 7.50022ZM26.5 24.5002H5.5V10.5002H26.5V24.5002Z" fill="black"/>
</svg>
