<svg width="32" height="32" viewBox="0 0 32 32" fill="none" xmlns="http://www.w3.org/2000/svg">
<path d="M25.5501 6.45001C23.6616 4.56315 21.2561 3.27854 18.6377 2.75857C16.0192 2.2386 13.3054 2.50661 10.8393 3.52873C8.37317 4.55085 6.26543 6.28119 4.78254 8.501C3.29965 10.7208 2.50818 13.3304 2.50818 16C2.50818 18.6696 3.29965 21.2792 4.78254 23.499C6.26543 25.7188 8.37317 27.4492 10.8393 28.4713C13.3054 29.4934 16.0192 29.7614 18.6377 29.2414C21.2561 28.7215 23.6616 27.4369 25.5501 25.55C28.0794 23.0153 29.4999 19.5808 29.4999 16C29.4999 12.4192 28.0794 8.98467 25.5501 6.45001ZM8.57256 8.57501C10.1367 7.0069 12.1593 5.97721 14.3476 5.63501C13.9973 7.82015 12.9662 9.83898 11.4014 11.4038C9.83654 12.9687 7.8177 13.9997 5.63256 14.35C5.97426 12.1609 7.00398 10.1373 8.57256 8.57251V8.57501ZM5.59256 17.3838C8.59597 17.0284 11.391 15.6681 13.5238 13.5238C15.6681 11.391 17.0284 8.59592 17.3838 5.59251C19.6715 5.89343 21.796 6.94094 23.4275 8.57252C25.0591 10.2041 26.1066 12.3286 26.4076 14.6163C23.4067 14.9796 20.6143 16.3385 18.4768 18.4759C16.3392 20.6132 14.98 23.4054 14.6163 26.4063C12.3286 26.1058 10.2041 25.0586 8.57246 23.4272C6.94082 21.7958 5.89333 19.6714 5.59256 17.3838ZM23.4276 23.4275C21.8631 24.9952 19.8407 26.0248 17.6526 26.3675C18.0028 24.1824 19.0339 22.1635 20.5987 20.5987C22.1636 19.0338 24.1824 18.0028 26.3676 17.6525C26.0254 19.8408 24.9957 21.8633 23.4276 23.4275Z" fill="black"/>
</svg>
