<svg width="32" height="32" viewBox="0 0 32 32" fill="none" xmlns="http://www.w3.org/2000/svg">
<path opacity="0.08" d="M7.515 7.51125C8.62596 6.3987 9.94526 5.51596 11.3975 4.91349C12.8498 4.31101 14.4065 4.0006 15.9788 4C15.9725 7.17411 14.7081 10.2163 12.4627 12.4598C10.2173 14.7033 7.17412 15.9651 4 15.9688C4.00124 14.3972 4.31232 12.8413 4.91546 11.39C5.51861 9.93882 6.40196 8.62075 7.515 7.51125ZM19.535 19.5225C18.4218 20.6315 17.5384 21.9494 16.9354 23.4005C16.3325 24.8516 16.0218 26.4074 16.0212 27.9788C19.1948 27.9731 22.2368 26.7107 24.4818 24.4676C26.7267 22.2245 27.9917 19.1835 28 16.01C26.4275 16.0109 24.8706 16.3216 23.4181 16.9243C21.9657 17.527 20.6462 18.4099 19.535 19.5225Z" fill="black"/>
<path d="M25.1963 6.80751C23.3782 4.98945 21.0618 3.75136 18.5401 3.24977C16.0183 2.74819 13.4045 3.00565 11.0291 3.9896C8.65365 4.97355 6.62335 6.63979 5.1949 8.77763C3.76646 10.9155 3.00403 13.4289 3.00403 16C3.00403 18.5711 3.76646 21.0846 5.1949 23.2224C6.62335 25.3602 8.65365 27.0265 11.0291 28.0104C13.4045 28.9944 16.0183 29.2518 18.5401 28.7502C21.0618 28.2487 23.3782 27.0106 25.1963 25.1925C26.4125 23.9904 27.3781 22.5589 28.0371 20.981C28.6961 19.403 29.0354 17.71 29.0354 16C29.0354 14.29 28.6961 12.597 28.0371 11.019C27.3781 9.44108 26.4125 8.0096 25.1963 6.80751ZM8.2188 8.22126C10.0188 6.41885 12.3906 5.30011 14.9263 5.05751C14.6819 7.59308 13.5583 9.96329 11.7501 11.7575C9.95341 13.5625 7.58272 14.6833 5.04755 14.9263C5.29224 12.3903 6.41373 10.0192 8.2188 8.22126ZM5.0413 16.935C8.1119 16.6898 10.9937 15.3549 13.1663 13.1713C15.3513 10.9993 16.6872 8.11733 16.9326 5.04626C19.5177 5.26178 21.9429 6.38628 23.7777 8.22016C25.6125 10.054 26.7382 12.4787 26.9551 15.0638C23.8855 15.3151 21.005 16.6481 18.8265 18.8251C16.6481 21.0022 15.3133 23.8819 15.0601 26.9513C12.4749 26.7357 10.0497 25.6112 8.21487 23.7774C6.38007 21.9435 5.25437 19.5188 5.03755 16.9338L5.0413 16.935ZM23.7813 23.7788C21.981 25.5806 19.6093 26.6993 17.0738 26.9425C17.3235 24.4089 18.4443 22.0404 20.2451 20.2408C22.0458 18.4411 24.4151 17.3219 26.9488 17.0738C26.7051 19.6092 25.585 21.9803 23.7813 23.7788Z" fill="black"/>
</svg>
