<svg width="32" height="32" viewBox="0 0 32 32" fill="none" xmlns="http://www.w3.org/2000/svg">
<path d="M31.8791 24.3913L23.8791 6.39126C23.761 6.12536 23.5682 5.89953 23.324 5.74129C23.0799 5.58305 22.795 5.49921 22.5041 5.50001H9.50408C9.21948 5.5003 8.94084 5.58155 8.70069 5.73427C8.46054 5.887 8.26879 6.10489 8.14783 6.36251C8.14232 6.37181 8.13731 6.38141 8.13283 6.39126L8.12908 6.41251L0.129082 24.3913C0.0275337 24.6199 -0.0151931 24.8704 0.00479284 25.1198C0.0247787 25.3692 0.106842 25.6097 0.24351 25.8193C0.380179 26.0289 0.567109 26.201 0.787279 26.3199C1.00745 26.4388 1.25386 26.5007 1.50408 26.5H30.5041C30.7543 26.5007 31.0007 26.4388 31.2209 26.3199C31.4411 26.201 31.628 26.0289 31.7647 25.8193C31.9013 25.6097 31.9834 25.3692 32.0034 25.1198C32.0234 24.8704 31.9806 24.6199 31.8791 24.3913ZM8.00408 14.0688V23.5H3.81158L8.00408 14.0688ZM11.0041 23.5V14.0688L15.1966 23.5H11.0041ZM18.4791 23.5L11.8128 8.50001H21.5291L28.1966 23.5H18.4791Z" fill="black"/>
</svg>
