<svg width="32" height="32" viewBox="0 0 32 32" fill="none" xmlns="http://www.w3.org/2000/svg">
<path d="M14.9998 17.125L5.99983 25.125C5.70146 25.3902 5.30996 25.526 4.91144 25.5026C4.51293 25.4791 4.14005 25.2983 3.87483 25C3.60961 24.7016 3.47379 24.3101 3.49723 23.9116C3.52067 23.513 3.70146 23.1402 3.99983 22.875L11.7386 16L3.99983 9.12495C3.70146 8.85974 3.52067 8.48686 3.49723 8.08834C3.47379 7.68983 3.60961 7.29832 3.87483 6.99995C4.14005 6.70158 4.51293 6.52079 4.91144 6.49735C5.30996 6.47391 5.70146 6.60974 5.99983 6.87495L14.9998 14.875C15.1594 15.0157 15.2873 15.1888 15.3748 15.3828C15.4624 15.5768 15.5077 15.7871 15.5077 16C15.5077 16.2128 15.4624 16.4231 15.3748 16.6171C15.2873 16.8111 15.1594 16.9842 14.9998 17.125ZM26.9998 22.5H14.9998C14.602 22.5 14.2205 22.658 13.9392 22.9393C13.6579 23.2206 13.4998 23.6021 13.4998 24C13.4998 24.3978 13.6579 24.7793 13.9392 25.0606C14.2205 25.3419 14.602 25.5 14.9998 25.5H26.9998C27.3977 25.5 27.7792 25.3419 28.0605 25.0606C28.3418 24.7793 28.4998 24.3978 28.4998 24C28.4998 23.6021 28.3418 23.2206 28.0605 22.9393C27.7792 22.658 27.3977 22.5 26.9998 22.5Z" fill="black"/>
</svg>
