<svg width="32" height="32" viewBox="0 0 32 32" fill="none" xmlns="http://www.w3.org/2000/svg">
<path d="M14.5002 16.5599L5.50016 24.5599C5.35098 24.6926 5.15522 24.7605 4.95597 24.7487C4.75671 24.737 4.57027 24.6466 4.43766 24.4974C4.30505 24.3483 4.23714 24.1525 4.24886 23.9533C4.26058 23.754 4.35098 23.5676 4.50016 23.4349L12.8752 15.9999L4.50016 8.56119C4.35098 8.42859 4.26058 8.24215 4.24886 8.04289C4.23714 7.84363 4.30505 7.64788 4.43766 7.49869C4.57027 7.34951 4.75671 7.25911 4.95597 7.24739C5.15522 7.23567 5.35098 7.30359 5.50016 7.43619L14.5002 15.4362C14.58 15.5066 14.6439 15.5931 14.6877 15.6901C14.7314 15.7871 14.7541 15.8923 14.7541 15.9987C14.7541 16.1051 14.7314 16.2103 14.6877 16.3073C14.6439 16.4043 14.58 16.4908 14.5002 16.5612V16.5599ZM27.0002 23.2499H15.0002C14.8012 23.2499 14.6105 23.329 14.4698 23.4696C14.3292 23.6103 14.2502 23.801 14.2502 23.9999C14.2502 24.1989 14.3292 24.3896 14.4698 24.5303C14.6105 24.6709 14.8012 24.7499 15.0002 24.7499H27.0002C27.1991 24.7499 27.3898 24.6709 27.5305 24.5303C27.6711 24.3896 27.7502 24.1989 27.7502 23.9999C27.7502 23.801 27.6711 23.6103 27.5305 23.4696C27.3898 23.329 27.1991 23.2499 27.0002 23.2499Z" fill="black"/>
</svg>
