<svg width="32" height="32" viewBox="0 0 32 32" fill="none" xmlns="http://www.w3.org/2000/svg">
<path d="M9.0625 18.8288L12.5988 16L9.0625 13.1713C8.90869 13.0481 8.78063 12.8959 8.68565 12.7233C8.59066 12.5507 8.53059 12.3611 8.50889 12.1653C8.48718 11.9695 8.50426 11.7713 8.55914 11.5821C8.61402 11.3929 8.70564 11.2163 8.82875 11.0625C8.95186 10.9087 9.10407 10.7806 9.27667 10.6856C9.44928 10.5907 9.6389 10.5306 9.83471 10.5089C10.0305 10.4872 10.2287 10.5043 10.4179 10.5591C10.6071 10.614 10.7837 10.7056 10.9375 10.8287L15.9375 14.8287C16.1131 14.9693 16.2549 15.1475 16.3524 15.3503C16.4498 15.553 16.5004 15.7751 16.5004 16C16.5004 16.2249 16.4498 16.447 16.3524 16.6497C16.2549 16.8525 16.1131 17.0307 15.9375 17.1712L10.9375 21.1712C10.6269 21.4199 10.2302 21.5349 9.83471 21.4911C9.43925 21.4473 9.07739 21.2481 8.82875 20.9375C8.58011 20.6269 8.46505 20.2302 8.50889 19.8347C8.55272 19.4392 8.75187 19.0774 9.0625 18.8288ZM18 21.5H22C22.3978 21.5 22.7794 21.342 23.0607 21.0607C23.342 20.7794 23.5 20.3978 23.5 20C23.5 19.6022 23.342 19.2206 23.0607 18.9393C22.7794 18.658 22.3978 18.5 22 18.5H18C17.6022 18.5 17.2206 18.658 16.9393 18.9393C16.658 19.2206 16.5 19.6022 16.5 20C16.5 20.3978 16.658 20.7794 16.9393 21.0607C17.2206 21.342 17.6022 21.5 18 21.5ZM29.5 7V25C29.5 25.663 29.2366 26.2989 28.7678 26.7678C28.2989 27.2366 27.663 27.5 27 27.5H5C4.33696 27.5 3.70107 27.2366 3.23223 26.7678C2.76339 26.2989 2.5 25.663 2.5 25V7C2.5 6.33696 2.76339 5.70107 3.23223 5.23223C3.70107 4.76339 4.33696 4.5 5 4.5H27C27.663 4.5 28.2989 4.76339 28.7678 5.23223C29.2366 5.70107 29.5 6.33696 29.5 7ZM26.5 7.5H5.5V24.5H26.5V7.5Z" fill="black"/>
</svg>
