<svg width="32" height="32" viewBox="0 0 32 32" fill="none" xmlns="http://www.w3.org/2000/svg">
<path d="M30.0611 10.4387L22.5611 2.93874C22.4217 2.7989 22.2561 2.68795 22.0738 2.61224C21.8915 2.53653 21.696 2.49756 21.4986 2.49756C21.3012 2.49756 21.1057 2.53653 20.9234 2.61224C20.741 2.68795 20.5754 2.7989 20.4361 2.93874L4.28483 19.0937C3.14108 20.2375 2.49854 21.7887 2.49854 23.4062C2.49854 25.0237 3.14108 26.575 4.28483 27.7187C5.42858 28.8625 6.97983 29.505 8.59733 29.505C10.2148 29.505 11.7661 28.8625 12.9098 27.7187L26.8098 13.8112L29.4736 12.9225C29.7162 12.8418 29.9342 12.7004 30.1069 12.5117C30.2795 12.323 30.401 12.0933 30.4599 11.8444C30.5188 11.5956 30.513 11.3358 30.4432 11.0897C30.3734 10.8437 30.2419 10.6196 30.0611 10.4387ZM10.7848 25.5937C10.197 26.1348 9.42268 26.4277 8.62388 26.4111C7.82508 26.3946 7.0636 26.0699 6.49865 25.5049C5.93369 24.94 5.60899 24.1785 5.59244 23.3797C5.57589 22.5809 5.86876 21.8066 6.40983 21.2187L9.92608 17.7025C10.8923 17.4012 12.3736 17.3275 14.3086 18.3275C15.1721 18.7871 16.0956 19.1237 17.0523 19.3275L10.7848 25.5937ZM25.5248 11.0775C25.3043 11.1514 25.1038 11.275 24.9386 11.4387L20.0773 16.3012C19.1111 16.6025 17.6298 16.6762 15.6948 15.6762C14.8317 15.2168 13.9086 14.8802 12.9523 14.6762L21.4998 6.12499L26.2236 10.8487L25.5248 11.0775Z" fill="black"/>
</svg>
