<svg width="32" height="32" viewBox="0 0 32 32" fill="none" xmlns="http://www.w3.org/2000/svg">
<path d="M28.5 16.0002C28.5 16.398 28.342 16.7796 28.0607 17.0609C27.7794 17.3422 27.3979 17.5002 27 17.5002H15C14.6022 17.5002 14.2207 17.3422 13.9394 17.0609C13.6581 16.7796 13.5 16.398 13.5 16.0002C13.5 15.6024 13.6581 15.2209 13.9394 14.9396C14.2207 14.6583 14.6022 14.5002 15 14.5002H27C27.3979 14.5002 27.7794 14.6583 28.0607 14.9396C28.342 15.2209 28.5 15.6024 28.5 16.0002ZM15 9.50022H27C27.3979 9.50022 27.7794 9.34218 28.0607 9.06088C28.342 8.77957 28.5 8.39804 28.5 8.00022C28.5 7.60239 28.342 7.22086 28.0607 6.93956C27.7794 6.65825 27.3979 6.50022 27 6.50022H15C14.6022 6.50022 14.2207 6.65825 13.9394 6.93956C13.6581 7.22086 13.5 7.60239 13.5 8.00022C13.5 8.39804 13.6581 8.77957 13.9394 9.06088C14.2207 9.34218 14.6022 9.50022 15 9.50022ZM27 22.5002H5.00005C4.60223 22.5002 4.22069 22.6583 3.93939 22.9396C3.65809 23.2209 3.50005 23.6024 3.50005 24.0002C3.50005 24.398 3.65809 24.7796 3.93939 25.0609C4.22069 25.3422 4.60223 25.5002 5.00005 25.5002H27C27.3979 25.5002 27.7794 25.3422 28.0607 25.0609C28.342 24.7796 28.5 24.398 28.5 24.0002C28.5 23.6024 28.342 23.2209 28.0607 22.9396C27.7794 22.6583 27.3979 22.5002 27 22.5002ZM9.00005 18.5002C9.29689 18.5005 9.58713 18.4126 9.83402 18.2478C10.0809 18.083 10.2734 17.8486 10.387 17.5744C10.5006 17.3002 10.5303 16.9984 10.4723 16.7073C10.4144 16.4161 10.2713 16.1488 10.0613 15.939L6.12505 12.0002L10.0613 8.06022C10.2008 7.92069 10.3115 7.75504 10.387 7.57274C10.4625 7.39044 10.5014 7.19504 10.5014 6.99772C10.5014 6.80039 10.4625 6.605 10.387 6.4227C10.3115 6.24039 10.2008 6.07475 10.0613 5.93522C9.92177 5.79569 9.75612 5.68501 9.57382 5.6095C9.39152 5.53398 9.19612 5.49512 8.9988 5.49512C8.80148 5.49512 8.60608 5.53398 8.42378 5.6095C8.24148 5.68501 8.07583 5.79569 7.9363 5.93522L2.9363 10.9352C2.79646 11.0746 2.6855 11.2402 2.6098 11.4225C2.53409 11.6048 2.49512 11.8003 2.49512 11.9977C2.49512 12.1951 2.53409 12.3906 2.6098 12.5729C2.6855 12.7553 2.79646 12.9209 2.9363 13.0602L7.9363 18.0602C8.0759 18.2 8.24174 18.3108 8.42429 18.3863C8.60684 18.4618 8.8025 18.5005 9.00005 18.5002Z" fill="black"/>
</svg>
