<svg width="32" height="32" viewBox="0 0 32 32" fill="none" xmlns="http://www.w3.org/2000/svg">
<path d="M28.4999 15.9999C28.4999 16.3978 28.3419 16.7793 28.0605 17.0606C27.7792 17.3419 27.3977 17.4999 26.9999 17.4999H14.9999C14.6021 17.4999 14.2205 17.3419 13.9392 17.0606C13.6579 16.7793 13.4999 16.3978 13.4999 15.9999C13.4999 15.6021 13.6579 15.2206 13.9392 14.9393C14.2205 14.658 14.6021 14.4999 14.9999 14.4999H26.9999C27.3977 14.4999 27.7792 14.658 28.0605 14.9393C28.3419 15.2206 28.4999 15.6021 28.4999 15.9999ZM14.9999 9.49995H26.9999C27.3977 9.49995 27.7792 9.34191 28.0605 9.06061C28.3419 8.7793 28.4999 8.39777 28.4999 7.99995C28.4999 7.60212 28.3419 7.22059 28.0605 6.93929C27.7792 6.65798 27.3977 6.49995 26.9999 6.49995H14.9999C14.6021 6.49995 14.2205 6.65798 13.9392 6.93929C13.6579 7.22059 13.4999 7.60212 13.4999 7.99995C13.4999 8.39777 13.6579 8.7793 13.9392 9.06061C14.2205 9.34191 14.6021 9.49995 14.9999 9.49995ZM26.9999 22.4999H4.99989C4.60206 22.4999 4.22053 22.658 3.93923 22.9393C3.65792 23.2206 3.49989 23.6021 3.49989 23.9999C3.49989 24.3978 3.65792 24.7793 3.93923 25.0606C4.22053 25.3419 4.60206 25.4999 4.99989 25.4999H26.9999C27.3977 25.4999 27.7792 25.3419 28.0605 25.0606C28.3419 24.7793 28.4999 24.3978 28.4999 23.9999C28.4999 23.6021 28.3419 23.2206 28.0605 22.9393C27.7792 22.658 27.3977 22.4999 26.9999 22.4999ZM3.93864 18.0612C4.07799 18.201 4.24358 18.312 4.42591 18.3877C4.60824 18.4634 4.80372 18.5024 5.00114 18.5024C5.19856 18.5024 5.39404 18.4634 5.57636 18.3877C5.75869 18.312 5.92428 18.201 6.06364 18.0612L11.0636 13.0612C11.2035 12.9218 11.3144 12.7563 11.3901 12.5739C11.4658 12.3916 11.5048 12.1961 11.5048 11.9987C11.5048 11.8013 11.4658 11.6058 11.3901 11.4235C11.3144 11.2411 11.2035 11.0756 11.0636 10.9362L6.06364 5.9362C5.92411 5.79667 5.75846 5.68599 5.57616 5.61047C5.39385 5.53496 5.19846 5.49609 5.00114 5.49609C4.80381 5.49609 4.60842 5.53496 4.42612 5.61047C4.24381 5.68599 4.07817 5.79667 3.93864 5.9362C3.65684 6.21799 3.49854 6.60018 3.49854 6.9987C3.49854 7.39721 3.65684 7.7794 3.93864 8.0612L7.87489 11.9999L3.93864 15.9387C3.79917 16.078 3.68853 16.2434 3.61305 16.4255C3.53756 16.6076 3.49871 16.8028 3.49871 16.9999C3.49871 17.1971 3.53756 17.3923 3.61305 17.5744C3.68853 17.7565 3.79917 17.9219 3.93864 18.0612Z" fill="black"/>
</svg>
