<svg width="32" height="32" viewBox="0 0 32 32" fill="none" xmlns="http://www.w3.org/2000/svg">
<path d="M15 8C15 8.39782 14.842 8.77936 14.5607 9.06066C14.2794 9.34196 13.8978 9.5 13.5 9.5H5C4.60218 9.5 4.22064 9.34196 3.93934 9.06066C3.65804 8.77936 3.5 8.39782 3.5 8C3.5 7.60218 3.65804 7.22064 3.93934 6.93934C4.22064 6.65804 4.60218 6.5 5 6.5H13.5C13.8978 6.5 14.2794 6.65804 14.5607 6.93934C14.842 7.22064 15 7.60218 15 8ZM13.5 11.5H5C4.60218 11.5 4.22064 11.658 3.93934 11.9393C3.65804 12.2206 3.5 12.6022 3.5 13C3.5 13.3978 3.65804 13.7794 3.93934 14.0607C4.22064 14.342 4.60218 14.5 5 14.5H13.5C13.8978 14.5 14.2794 14.342 14.5607 14.0607C14.842 13.7794 15 13.3978 15 13C15 12.6022 14.842 12.2206 14.5607 11.9393C14.2794 11.658 13.8978 11.5 13.5 11.5ZM13.5 16.5H5C4.60218 16.5 4.22064 16.658 3.93934 16.9393C3.65804 17.2206 3.5 17.6022 3.5 18C3.5 18.3978 3.65804 18.7794 3.93934 19.0607C4.22064 19.342 4.60218 19.5 5 19.5H13.5C13.8978 19.5 14.2794 19.342 14.5607 19.0607C14.842 18.7794 15 18.3978 15 18C15 17.6022 14.842 17.2206 14.5607 16.9393C14.2794 16.658 13.8978 16.5 13.5 16.5ZM13.5 21.5H5C4.60218 21.5 4.22064 21.658 3.93934 21.9393C3.65804 22.2206 3.5 22.6022 3.5 23C3.5 23.3978 3.65804 23.7794 3.93934 24.0607C4.22064 24.342 4.60218 24.5 5 24.5H13.5C13.8978 24.5 14.2794 24.342 14.5607 24.0607C14.842 23.7794 15 23.3978 15 23C15 22.6022 14.842 22.2206 14.5607 21.9393C14.2794 21.658 13.8978 21.5 13.5 21.5ZM18.5 9.5H27C27.3978 9.5 27.7794 9.34196 28.0607 9.06066C28.342 8.77936 28.5 8.39782 28.5 8C28.5 7.60218 28.342 7.22064 28.0607 6.93934C27.7794 6.65804 27.3978 6.5 27 6.5H18.5C18.1022 6.5 17.7206 6.65804 17.4393 6.93934C17.158 7.22064 17 7.60218 17 8C17 8.39782 17.158 8.77936 17.4393 9.06066C17.7206 9.34196 18.1022 9.5 18.5 9.5ZM27 11.5H18.5C18.1022 11.5 17.7206 11.658 17.4393 11.9393C17.158 12.2206 17 12.6022 17 13C17 13.3978 17.158 13.7794 17.4393 14.0607C17.7206 14.342 18.1022 14.5 18.5 14.5H27C27.3978 14.5 27.7794 14.342 28.0607 14.0607C28.342 13.7794 28.5 13.3978 28.5 13C28.5 12.6022 28.342 12.2206 28.0607 11.9393C27.7794 11.658 27.3978 11.5 27 11.5ZM27 16.5H18.5C18.1022 16.5 17.7206 16.658 17.4393 16.9393C17.158 17.2206 17 17.6022 17 18C17 18.3978 17.158 18.7794 17.4393 19.0607C17.7206 19.342 18.1022 19.5 18.5 19.5H27C27.3978 19.5 27.7794 19.342 28.0607 19.0607C28.342 18.7794 28.5 18.3978 28.5 18C28.5 17.6022 28.342 17.2206 28.0607 16.9393C27.7794 16.658 27.3978 16.5 27 16.5ZM27 21.5H18.5C18.1022 21.5 17.7206 21.658 17.4393 21.9393C17.158 22.2206 17 22.6022 17 23C17 23.3978 17.158 23.7794 17.4393 24.0607C17.7206 24.342 18.1022 24.5 18.5 24.5H27C27.3978 24.5 27.7794 24.342 28.0607 24.0607C28.342 23.7794 28.5 23.3978 28.5 23C28.5 22.6022 28.342 22.2206 28.0607 21.9393C27.7794 21.658 27.3978 21.5 27 21.5Z" fill="black"/>
</svg>
