<svg width="32" height="32" viewBox="0 0 32 32" fill="none" xmlns="http://www.w3.org/2000/svg">
<path d="M11.3574 6.36139C11.2363 6.1037 11.0443 5.88581 10.8039 5.73318C10.5635 5.58056 10.2846 5.49951 9.99989 5.49951C9.71515 5.49951 9.43628 5.58056 9.19589 5.73318C8.95551 5.88581 8.76353 6.1037 8.64239 6.36139L0.642391 23.3614C0.482243 23.7199 0.469063 24.1269 0.605681 24.4951C0.742299 24.8632 1.01782 25.1631 1.37309 25.3303C1.72835 25.4976 2.13503 25.5188 2.5058 25.3895C2.87658 25.2603 3.18187 24.9908 3.35614 24.6389L5.30489 20.5001H14.6949L16.6424 24.6389C16.8118 24.9989 17.1173 25.2769 17.4917 25.4117C17.866 25.5465 18.2786 25.5271 18.6386 25.3576C18.9987 25.1882 19.2767 24.8827 19.4115 24.5084C19.5462 24.134 19.5268 23.7214 19.3574 23.3614L11.3574 6.36139ZM6.71739 17.5001L9.99989 10.5226L13.2836 17.5001H6.71739ZM24.9999 11.5001C23.2686 11.5001 21.9036 11.9826 20.9436 12.9351C20.7927 13.0711 20.6709 13.2364 20.5858 13.4209C20.5006 13.6053 20.4538 13.8052 20.4482 14.0083C20.4426 14.2114 20.4783 14.4136 20.5532 14.6024C20.6281 14.7913 20.7406 14.963 20.8839 15.1071C21.0271 15.2512 21.1981 15.3647 21.3866 15.4407C21.575 15.5167 21.7769 15.5536 21.9801 15.5492C22.1832 15.5449 22.3833 15.4992 22.5683 15.4152C22.7533 15.3311 22.9193 15.2103 23.0561 15.0601C23.4311 14.6851 24.0886 14.4951 24.9999 14.4951C26.1674 14.4951 27.1486 15.1401 27.4211 16.0076C26.6588 15.6697 25.8337 15.4968 24.9999 15.5001C21.9674 15.5001 19.4999 17.7426 19.4999 20.5001C19.4999 23.2576 21.9674 25.5001 24.9999 25.5001C25.9576 25.5026 26.9014 25.2718 27.7499 24.8276C27.9279 25.0961 28.1876 25.3 28.4906 25.4094C28.7936 25.5187 29.1237 25.5277 29.4321 25.4349C29.7405 25.3421 30.0109 25.1524 30.2032 24.894C30.3955 24.6357 30.4995 24.3222 30.4999 24.0001V16.5001C30.4999 13.7426 28.0324 11.5001 24.9999 11.5001ZM24.9999 22.5001C23.6249 22.5001 22.4999 21.6026 22.4999 20.5001C22.4999 19.3976 23.6249 18.5001 24.9999 18.5001C26.3749 18.5001 27.4999 19.3976 27.4999 20.5001C27.4999 21.6026 26.3749 22.5001 24.9999 22.5001Z" fill="black"/>
</svg>
