<svg width="32" height="32" viewBox="0 0 32 32" fill="none" xmlns="http://www.w3.org/2000/svg">
<path d="M14 4.5C13.6022 4.5 13.2206 4.65804 12.9393 4.93934C12.658 5.22064 12.5 5.60218 12.5 6V7.5H3C2.6717 7.5 2.34661 7.56466 2.04329 7.6903C1.73998 7.81594 1.46438 8.00009 1.23223 8.23223C0.763392 8.70107 0.5 9.33696 0.5 10V22C0.5 22.663 0.763392 23.2989 1.23223 23.7678C1.46438 23.9999 1.73998 24.1841 2.04329 24.3097C2.34661 24.4353 2.6717 24.5 3 24.5H12.5V26C12.5 26.3978 12.658 26.7794 12.9393 27.0607C13.2206 27.342 13.6022 27.5 14 27.5C14.3978 27.5 14.7794 27.342 15.0607 27.0607C15.342 26.7794 15.5 26.3978 15.5 26V6C15.5 5.60218 15.342 5.22064 15.0607 4.93934C14.7794 4.65804 14.3978 4.5 14 4.5ZM3.5 21.5V10.5H12.5V21.5H3.5ZM31.5 10V22C31.5 22.663 31.2366 23.2989 30.7678 23.7678C30.2989 24.2366 29.663 24.5 29 24.5H19C18.6022 24.5 18.2206 24.342 17.9393 24.0607C17.658 23.7794 17.5 23.3978 17.5 23C17.5 22.6022 17.658 22.2206 17.9393 21.9393C18.2206 21.658 18.6022 21.5 19 21.5H28.5V10.5H19C18.6022 10.5 18.2206 10.342 17.9393 10.0607C17.658 9.77936 17.5 9.39782 17.5 9C17.5 8.60218 17.658 8.22064 17.9393 7.93934C18.2206 7.65804 18.6022 7.5 19 7.5H29C29.663 7.5 30.2989 7.76339 30.7678 8.23223C31.2366 8.70107 31.5 9.33696 31.5 10ZM11 14C11 14.3978 10.842 14.7794 10.5607 15.0607C10.2794 15.342 9.89782 15.5 9.5 15.5V18C9.5 18.3978 9.34196 18.7794 9.06066 19.0607C8.77936 19.342 8.39782 19.5 8 19.5C7.60218 19.5 7.22064 19.342 6.93934 19.0607C6.65804 18.7794 6.5 18.3978 6.5 18V15.5C6.10218 15.5 5.72064 15.342 5.43934 15.0607C5.15804 14.7794 5 14.3978 5 14C5 13.6022 5.15804 13.2206 5.43934 12.9393C5.72064 12.658 6.10218 12.5 6.5 12.5H9.5C9.89782 12.5 10.2794 12.658 10.5607 12.9393C10.842 13.2206 11 13.6022 11 14Z" fill="black"/>
</svg>
