<svg width="32" height="32" viewBox="0 0 32 32" fill="none" xmlns="http://www.w3.org/2000/svg">
<path d="M21.765 10.3512C21.5393 10.0237 21.4529 9.61989 21.5248 9.22865C21.5968 8.83741 21.8212 8.49077 22.1488 8.265C23.6313 7.2425 25.8688 7.2425 27.3513 8.265C27.805 8.5775 28.695 8.5775 29.1488 8.265C29.4764 8.04308 29.8784 7.95961 30.2673 8.03278C30.6562 8.10595 31.0004 8.32982 31.225 8.65564C31.4496 8.98145 31.5363 9.38281 31.4663 9.77228C31.3963 10.1618 31.1752 10.5078 30.8513 10.735C30.0761 11.2359 29.1729 11.5024 28.25 11.5024C27.3271 11.5024 26.4239 11.2359 25.6488 10.735C25.195 10.4225 24.305 10.4225 23.8513 10.735C23.5237 10.9608 23.1199 11.0471 22.7287 10.9752C22.3374 10.9032 21.9908 10.6788 21.765 10.3512ZM29.1488 13.265C28.695 13.5775 27.805 13.5775 27.3513 13.265C25.8688 12.2425 23.6313 12.2425 22.1488 13.265C21.9848 13.376 21.8445 13.5184 21.7359 13.684C21.6272 13.8496 21.5524 14.035 21.5158 14.2296C21.4792 14.4242 21.4815 14.6241 21.5225 14.8178C21.5636 15.0115 21.6426 15.1952 21.7549 15.3582C21.8673 15.5212 22.0108 15.6604 22.1773 15.7677C22.3437 15.875 22.5297 15.9482 22.7246 15.9833C22.9195 16.0183 23.1194 16.0144 23.3127 15.9718C23.5061 15.9292 23.6891 15.8487 23.8513 15.735C24.305 15.4225 25.195 15.4225 25.6488 15.735C26.4239 16.2359 27.3271 16.5024 28.25 16.5024C29.1729 16.5024 30.0761 16.2359 30.8513 15.735C31.1752 15.5078 31.3963 15.1618 31.4663 14.7723C31.5363 14.3828 31.4496 13.9815 31.225 13.6556C31.0004 13.3298 30.6562 13.1059 30.2673 13.0328C29.8784 12.9596 29.4764 13.0431 29.1488 13.265ZM20 18.8363C20.8577 20.0317 21.3692 21.4406 21.4781 22.9079C21.587 24.3752 21.2891 25.8441 20.6172 27.1531C19.9453 28.462 18.9255 29.5604 17.6698 30.3273C16.4142 31.0942 14.9713 31.4999 13.5 31.4999C12.0287 31.4999 10.5858 31.0942 9.33017 30.3273C8.0745 29.5604 7.05466 28.462 6.38279 27.1531C5.71092 25.8441 5.41305 24.3752 5.52194 22.9079C5.63084 21.4406 6.14227 20.0317 7 18.8363V7C7 5.27609 7.68482 3.62279 8.90381 2.40381C10.1228 1.18482 11.7761 0.5 13.5 0.5C15.2239 0.5 16.8772 1.18482 18.0962 2.40381C19.3152 3.62279 20 5.27609 20 7V18.8363ZM18.5 23.5C18.4998 22.3334 18.0916 21.2036 17.3463 20.3062C17.1222 20.0366 16.9997 19.6969 17 19.3463V7C17 6.07174 16.6313 5.1815 15.9749 4.52513C15.3185 3.86875 14.4283 3.5 13.5 3.5C12.5717 3.5 11.6815 3.86875 11.0251 4.52513C10.3688 5.1815 10 6.07174 10 7V19.3475C9.99988 19.7068 9.87081 20.0541 9.63625 20.3263C9.12748 20.9457 8.77509 21.6783 8.60879 22.4625C8.44249 23.2466 8.46715 24.0592 8.6807 24.8318C8.89424 25.6044 9.29041 26.3144 9.83581 26.9018C10.3812 27.4892 11.0598 27.9369 11.8145 28.2071C12.5692 28.4774 13.3777 28.5622 14.172 28.4544C14.9663 28.3467 15.7231 28.0496 16.3785 27.5881C17.0339 27.1266 17.5688 26.5144 17.938 25.8029C18.3072 25.0914 18.5 24.3016 18.5 23.5ZM15 20.9025V7C15 6.60218 14.842 6.22064 14.5607 5.93934C14.2794 5.65804 13.8978 5.5 13.5 5.5C13.1022 5.5 12.7206 5.65804 12.4393 5.93934C12.158 6.22064 12 6.60218 12 7V20.9025C11.4281 21.2327 10.9811 21.7424 10.7284 22.3525C10.4756 22.9627 10.4313 23.6391 10.6022 24.277C10.7731 24.9149 11.1498 25.4786 11.6737 25.8806C12.1977 26.2827 12.8396 26.5006 13.5 26.5006C14.1604 26.5006 14.8024 26.2827 15.3263 25.8806C15.8502 25.4786 16.2269 24.9149 16.3978 24.277C16.5687 23.6391 16.5244 22.9627 16.2716 22.3525C16.0189 21.7424 15.5719 21.2327 15 20.9025Z" fill="black"/>
</svg>
