<svg width="32" height="32" viewBox="0 0 32 32" fill="none" xmlns="http://www.w3.org/2000/svg">
<path d="M26.5 6.5C25.7089 6.5 24.9355 6.7346 24.2777 7.17412C23.6199 7.61365 23.1072 8.23836 22.8045 8.96927C22.5017 9.70017 22.4225 10.5044 22.5769 11.2804C22.7312 12.0563 23.1122 12.769 23.6716 13.3284C24.231 13.8878 24.9437 14.2688 25.7196 14.4231C26.4956 14.5775 27.2998 14.4983 28.0307 14.1955C28.7616 13.8928 29.3864 13.3801 29.8259 12.7223C30.2654 12.0645 30.5 11.2911 30.5 10.5C30.5 9.43913 30.0786 8.42172 29.3284 7.67157C28.5783 6.92143 27.5609 6.5 26.5 6.5ZM26.5 11.5C26.3022 11.5 26.1089 11.4414 25.9444 11.3315C25.78 11.2216 25.6518 11.0654 25.5761 10.8827C25.5004 10.7 25.4806 10.4989 25.5192 10.3049C25.5578 10.1109 25.653 9.93275 25.7929 9.79289C25.9327 9.65304 26.1109 9.5578 26.3049 9.51921C26.4989 9.48063 26.7 9.50043 26.8827 9.57612C27.0654 9.65181 27.2216 9.77998 27.3315 9.94443C27.4414 10.1089 27.5 10.3022 27.5 10.5C27.5 10.7652 27.3946 11.0196 27.2071 11.2071C27.0196 11.3946 26.7652 11.5 26.5 11.5ZM20 7C20 5.27609 19.3152 3.62279 18.0962 2.40381C16.8772 1.18482 15.2239 0.5 13.5 0.5C11.7761 0.5 10.1228 1.18482 8.90381 2.40381C7.68482 3.62279 7 5.27609 7 7V18.8363C6.14227 20.0317 5.63084 21.4406 5.52194 22.9079C5.41305 24.3752 5.71092 25.8441 6.38279 27.1531C7.05466 28.462 8.0745 29.5604 9.33017 30.3273C10.5858 31.0942 12.0287 31.4999 13.5 31.4999C14.9713 31.4999 16.4142 31.0942 17.6698 30.3273C18.9255 29.5604 19.9453 28.462 20.6172 27.1531C21.2891 25.8441 21.587 24.3752 21.4781 22.9079C21.3692 21.4406 20.8577 20.0317 20 18.8363V7ZM13.5 28.5C12.5527 28.5 11.6248 28.2309 10.8245 27.724C10.0241 27.2171 9.3843 26.4933 8.97944 25.6368C8.57458 24.7803 8.42137 23.8265 8.53765 22.8863C8.65393 21.9461 9.03492 21.0583 9.63625 20.3263C9.87081 20.0541 9.99988 19.7068 10 19.3475V7C10 6.07174 10.3688 5.1815 11.0251 4.52513C11.6815 3.86875 12.5717 3.5 13.5 3.5C14.4283 3.5 15.3185 3.86875 15.9749 4.52513C16.6313 5.1815 17 6.07174 17 7V19.3463C16.9997 19.6969 17.1222 20.0366 17.3463 20.3062C17.9527 21.0368 18.3387 21.9249 18.4589 22.8667C18.5792 23.8085 18.4288 24.7651 18.0253 25.6246C17.6219 26.4841 16.982 27.211 16.1807 27.7202C15.3793 28.2294 14.4495 28.4998 13.5 28.5ZM16.5 23.5C16.5001 24.0266 16.3616 24.544 16.0983 25.0001C15.8351 25.4563 15.4564 25.8351 15.0004 26.0984C14.5443 26.3618 14.027 26.5005 13.5004 26.5006C12.9737 26.5006 12.4564 26.3621 12.0003 26.0988C11.5441 25.8355 11.1654 25.4568 10.902 25.0008C10.6387 24.5447 10.5 24.0274 10.5 23.5007C10.5 22.9741 10.6386 22.4567 10.9019 22.0006C11.1652 21.5446 11.5439 21.1658 12 20.9025V11.5C12 11.1022 12.158 10.7206 12.4393 10.4393C12.7206 10.158 13.1022 10 13.5 10C13.8978 10 14.2794 10.158 14.5607 10.4393C14.842 10.7206 15 11.1022 15 11.5V20.9025C15.456 21.1658 15.8346 21.5444 16.0979 22.0003C16.3612 22.4563 16.4999 22.9735 16.5 23.5Z" fill="black"/>
</svg>
