<svg width="32" height="32" viewBox="0 0 32 32" fill="none" xmlns="http://www.w3.org/2000/svg">
<path d="M30.4725 19.5662L28.9725 7.56625C28.8668 6.71978 28.4556 5.94105 27.8161 5.37642C27.1767 4.81179 26.353 4.50013 25.5 4.5H4C3.33696 4.5 2.70107 4.76339 2.23223 5.23223C1.76339 5.70107 1.5 6.33696 1.5 7V18C1.5 18.3283 1.56466 18.6534 1.6903 18.9567C1.81594 19.26 2.00009 19.5356 2.23223 19.7678C2.46438 19.9999 2.73998 20.1841 3.04329 20.3097C3.34661 20.4353 3.6717 20.5 4 20.5H9.0725L13.6587 29.6712C13.7834 29.9203 13.9748 30.1297 14.2117 30.2761C14.4486 30.4224 14.7215 30.5 15 30.5C16.4582 30.4983 17.8562 29.9184 18.8873 28.8873C19.9184 27.8562 20.4983 26.4582 20.5 25V23.5H27C27.4962 23.4999 27.9867 23.3943 28.439 23.1903C28.8913 22.9862 29.295 22.6883 29.6234 22.3163C29.9518 21.9443 30.1973 21.5067 30.3437 21.0326C30.4901 20.5585 30.534 20.0586 30.4725 19.5662ZM8.5 17.5H4.5V7.5H8.5V17.5ZM27.375 20.3312C27.328 20.3844 27.2703 20.4269 27.2057 20.456C27.141 20.4851 27.0709 20.5001 27 20.5H19C18.6022 20.5 18.2206 20.658 17.9393 20.9393C17.658 21.2206 17.5 21.6022 17.5 22V25C17.5 25.5135 17.3418 26.0145 17.0471 26.435C16.7523 26.8554 16.3352 27.1749 15.8525 27.35L11.5 18.6462V7.5H25.5C25.6225 7.49904 25.741 7.54305 25.8332 7.6237C25.9253 7.70434 25.9847 7.816 26 7.9375L27.5 19.9375C27.5084 20.0082 27.5016 20.08 27.4801 20.1479C27.4585 20.2158 27.4227 20.2783 27.375 20.3312Z" fill="black"/>
</svg>
