<svg width="32" height="32" viewBox="0 0 32 32" fill="none" xmlns="http://www.w3.org/2000/svg">
<path d="M29.625 9.68375C29.2964 9.31155 28.8925 9.01351 28.4399 8.80941C27.9873 8.60532 27.4965 8.49985 27 8.5H20.5V7C20.4983 5.54182 19.9184 4.14383 18.8873 3.11274C17.8562 2.08165 16.4582 1.50165 15 1.5C14.7215 1.50003 14.4486 1.57757 14.2117 1.72394C13.9748 1.87031 13.7834 2.07973 13.6587 2.32875L9.0725 11.5H4C3.33696 11.5 2.70107 11.7634 2.23223 12.2322C1.76339 12.7011 1.5 13.337 1.5 14V25C1.5 25.663 1.76339 26.2989 2.23223 26.7678C2.70107 27.2366 3.33696 27.5 4 27.5H25.5C26.353 27.4999 27.1767 27.1882 27.8161 26.6236C28.4556 26.0589 28.8668 25.2802 28.9725 24.4338L30.4725 12.4338C30.5342 11.9415 30.4906 11.4417 30.3444 10.9676C30.1983 10.4935 29.9531 10.0559 29.625 9.68375ZM4.5 14.5H8.5V24.5H4.5V14.5ZM27.5 12.0625L26 24.0625C25.9847 24.184 25.9253 24.2957 25.8332 24.3763C25.741 24.4569 25.6225 24.501 25.5 24.5H11.5V13.3538L15.8525 4.65C16.3352 4.8251 16.7523 5.14459 17.0471 5.56504C17.3418 5.98549 17.5 6.48652 17.5 7V10C17.5 10.3978 17.658 10.7794 17.9393 11.0607C18.2206 11.342 18.6022 11.5 19 11.5H27C27.0713 11.4994 27.1418 11.5141 27.207 11.5431C27.2721 11.572 27.3303 11.6145 27.3776 11.6678C27.425 11.7211 27.4604 11.7838 27.4815 11.8519C27.5026 11.92 27.5089 11.9918 27.5 12.0625Z" fill="black"/>
</svg>
