<svg width="32" height="32" viewBox="0 0 32 32" fill="none" xmlns="http://www.w3.org/2000/svg">
<path d="M31.5662 10.9387L26.8162 6.18874C26.6768 6.0489 26.5112 5.93795 26.3289 5.86224C26.1466 5.78653 25.9511 5.74756 25.7537 5.74756C25.5563 5.74756 25.3608 5.78653 25.1785 5.86224C24.9961 5.93795 24.8305 6.0489 24.6912 6.18874L21.0049 9.87499L17.0662 5.93874C16.9268 5.7989 16.7612 5.68795 16.5789 5.61224C16.3966 5.53653 16.2011 5.49756 16.0037 5.49756C15.8063 5.49756 15.6108 5.53653 15.4285 5.61224C15.2461 5.68795 15.0805 5.7989 14.9412 5.93874L11.0049 9.87499L7.31618 6.18874C7.17683 6.0489 7.01124 5.93795 6.82891 5.86224C6.64658 5.78653 6.4511 5.74756 6.25368 5.74756C6.05626 5.74756 5.86078 5.78653 5.67845 5.86224C5.49613 5.93795 5.33054 6.0489 5.19118 6.18874L0.441183 10.9387C0.301343 11.0781 0.190388 11.2437 0.11468 11.426C0.0389714 11.6083 0 11.8038 0 12.0012C0 12.1987 0.0389714 12.3941 0.11468 12.5765C0.190388 12.7588 0.301343 12.9244 0.441183 13.0637L5.19118 17.8137C5.33054 17.9536 5.49613 18.0645 5.67845 18.1402C5.86078 18.216 6.05626 18.2549 6.25368 18.2549C6.4511 18.2549 6.64658 18.216 6.82891 18.1402C7.01124 18.0645 7.17683 17.9536 7.31618 17.8137L11.0049 14.125L13.8799 17L9.94368 20.9387C9.80384 21.0781 9.69289 21.2437 9.61718 21.426C9.54147 21.6083 9.5025 21.8038 9.5025 22.0012C9.5025 22.1987 9.54147 22.3941 9.61718 22.5765C9.69289 22.7588 9.80384 22.9244 9.94368 23.0637L14.9437 28.0637C15.083 28.2036 15.2486 28.3145 15.431 28.3902C15.6133 28.466 15.8088 28.5049 16.0062 28.5049C16.2036 28.5049 16.3991 28.466 16.5814 28.3902C16.7637 28.3145 16.9293 28.2036 17.0687 28.0637L22.0687 23.0637C22.2085 22.9244 22.3195 22.7588 22.3952 22.5765C22.4709 22.3941 22.5099 22.1987 22.5099 22.0012C22.5099 21.8038 22.4709 21.6083 22.3952 21.426C22.3195 21.2437 22.2085 21.0781 22.0687 20.9387L18.1299 17L21.0049 14.125L24.6937 17.815C24.833 17.9548 24.9986 18.0658 25.181 18.1415C25.3633 18.2172 25.5588 18.2562 25.7562 18.2562C25.9536 18.2562 26.1491 18.2172 26.3314 18.1415C26.5137 18.0658 26.6793 17.9548 26.8187 17.815L31.5687 13.065C31.7085 12.9254 31.8195 12.7597 31.8951 12.5771C31.9707 12.3946 32.0095 12.1989 32.0092 12.0013C32.009 11.8038 31.9698 11.6082 31.8937 11.4258C31.8177 11.2435 31.7064 11.078 31.5662 10.9387ZM6.25493 14.625L3.62993 12L6.25493 9.37499L8.87993 12L6.25493 14.625ZM16.0049 24.875L13.1299 22L16.0049 19.125L18.8799 22L16.0049 24.875ZM16.0049 14.875L13.1299 12L16.0049 9.12499L18.8799 12L16.0049 14.875ZM25.7549 14.625L23.1299 12L25.7549 9.37499L28.3799 12L25.7549 14.625Z" fill="black"/>
</svg>
