<svg width="32" height="32" viewBox="0 0 32 32" fill="none" xmlns="http://www.w3.org/2000/svg">
<path d="M16 5.5C13.6266 5.5 11.3066 6.20379 9.33316 7.52236C7.35977 8.84094 5.8217 10.7151 4.91345 12.9078C4.0052 15.1005 3.76756 17.5133 4.23058 19.8411C4.6936 22.1689 5.83649 24.3071 7.51472 25.9853C9.19295 27.6635 11.3312 28.8064 13.6589 29.2694C15.9867 29.7324 18.3995 29.4948 20.5922 28.5866C22.7849 27.6783 24.6591 26.1402 25.9776 24.1668C27.2962 22.1935 28 19.8734 28 17.5C27.9964 14.3185 26.7309 11.2684 24.4813 9.01874C22.2316 6.76909 19.1815 5.50364 16 5.5ZM16 26.5C14.22 26.5 12.4799 25.9722 10.9999 24.9832C9.51983 23.9943 8.36628 22.5887 7.68509 20.9442C7.0039 19.2996 6.82567 17.49 7.17294 15.7442C7.52021 13.9984 8.37737 12.3947 9.63604 11.136C10.8947 9.87737 12.4984 9.0202 14.2442 8.67293C15.99 8.32567 17.7996 8.5039 19.4442 9.18508C21.0887 9.86627 22.4943 11.0198 23.4832 12.4999C24.4722 13.9799 25 15.72 25 17.5C24.9974 19.8861 24.0483 22.1738 22.361 23.861C20.6738 25.5483 18.3861 26.4974 16 26.5ZM20.5613 12.4388C20.7011 12.5781 20.812 12.7437 20.8878 12.926C20.9635 13.1083 21.0024 13.3038 21.0024 13.5013C21.0024 13.6987 20.9635 13.8942 20.8878 14.0765C20.812 14.2588 20.7011 14.4244 20.5613 14.5638L17.0613 18.0637C16.7795 18.3455 16.3973 18.5039 15.9988 18.5039C15.6002 18.5039 15.218 18.3455 14.9363 18.0637C14.6545 17.782 14.4962 17.3998 14.4962 17.0012C14.4962 16.6027 14.6545 16.2205 14.9363 15.9388L18.4363 12.4388C18.5756 12.2989 18.7412 12.188 18.9235 12.1122C19.1059 12.0365 19.3013 11.9976 19.4988 11.9976C19.6962 11.9976 19.8917 12.0365 20.074 12.1122C20.2563 12.188 20.4219 12.2989 20.5613 12.4388ZM11.5 2C11.5 1.60218 11.658 1.22064 11.9393 0.93934C12.2206 0.658035 12.6022 0.5 13 0.5H19C19.3978 0.5 19.7794 0.658035 20.0607 0.93934C20.342 1.22064 20.5 1.60218 20.5 2C20.5 2.39782 20.342 2.77936 20.0607 3.06066C19.7794 3.34196 19.3978 3.5 19 3.5H13C12.6022 3.5 12.2206 3.34196 11.9393 3.06066C11.658 2.77936 11.5 2.39782 11.5 2Z" fill="black"/>
</svg>
