<svg width="32" height="32" viewBox="0 0 32 32" fill="none" xmlns="http://www.w3.org/2000/svg">
<path d="M29.4212 26.7301L16.5937 6.68761L19.4212 2.27011C19.4928 2.15839 19.5171 2.02279 19.4888 1.89316C19.4604 1.76352 19.3817 1.65047 19.27 1.57886C19.1583 1.50725 19.0227 1.48296 18.893 1.51132C18.7634 1.53969 18.6503 1.61839 18.5787 1.73011L16 5.76011L13.4212 1.73011C13.3496 1.61839 13.2366 1.53969 13.1069 1.51132C12.9773 1.48296 12.8417 1.50725 12.73 1.57886C12.6183 1.65047 12.5396 1.76352 12.5112 1.89316C12.4828 2.02279 12.5071 2.15839 12.5787 2.27011L15.4062 6.68761L2.57874 26.7301C2.53025 26.8057 2.50301 26.8929 2.49988 26.9827C2.49674 27.0724 2.51783 27.1613 2.56092 27.2401C2.60402 27.3189 2.66753 27.3846 2.74479 27.4303C2.82205 27.4761 2.9102 27.5002 2.99999 27.5001H29C29.0898 27.5002 29.1779 27.4761 29.2552 27.4303C29.3324 27.3846 29.396 27.3189 29.4391 27.2401C29.4822 27.1613 29.5032 27.0724 29.5001 26.9827C29.497 26.8929 29.4697 26.8057 29.4212 26.7301ZM9.87499 26.5001L16 16.9276L22.125 26.5001H9.87499ZM23.315 26.5001L16.4225 15.7301C16.3773 15.6594 16.315 15.6012 16.2414 15.5609C16.1678 15.5206 16.0852 15.4995 16.0012 15.4995C15.9173 15.4995 15.8347 15.5206 15.7611 15.5609C15.6875 15.6012 15.6252 15.6594 15.58 15.7301L8.68624 26.5001H3.91374L16 7.61511L28.0862 26.5001H23.315Z" fill="black"/>
</svg>
