<svg width="32" height="32" viewBox="0 0 32 32" fill="none" xmlns="http://www.w3.org/2000/svg">
<path d="M22 6.5H10C7.48044 6.5 5.06408 7.50089 3.28249 9.28249C1.50089 11.0641 0.5 13.4804 0.5 16C0.5 18.5196 1.50089 20.9359 3.28249 22.7175C5.06408 24.4991 7.48044 25.5 10 25.5H22C24.5196 25.5 26.9359 24.4991 28.7175 22.7175C30.4991 20.9359 31.5 18.5196 31.5 16C31.5 13.4804 30.4991 11.0641 28.7175 9.28249C26.9359 7.50089 24.5196 6.5 22 6.5ZM22 22.5H10C8.27609 22.5 6.62279 21.8152 5.40381 20.5962C4.18482 19.3772 3.5 17.7239 3.5 16C3.5 14.2761 4.18482 12.6228 5.40381 11.4038C6.62279 10.1848 8.27609 9.5 10 9.5H22C23.7239 9.5 25.3772 10.1848 26.5962 11.4038C27.8152 12.6228 28.5 14.2761 28.5 16C28.5 17.7239 27.8152 19.3772 26.5962 20.5962C25.3772 21.8152 23.7239 22.5 22 22.5ZM10 11.5C9.10998 11.5 8.23995 11.7639 7.49993 12.2584C6.75991 12.7529 6.18314 13.4557 5.84254 14.2779C5.50195 15.1002 5.41283 16.005 5.58647 16.8779C5.7601 17.7508 6.18868 18.5526 6.81802 19.182C7.44736 19.8113 8.24918 20.2399 9.12209 20.4135C9.99501 20.5872 10.8998 20.4981 11.7221 20.1575C12.5443 19.8169 13.2471 19.2401 13.7416 18.5001C14.2361 17.76 14.5 16.89 14.5 16C14.5 14.8065 14.0259 13.6619 13.182 12.818C12.3381 11.9741 11.1935 11.5 10 11.5ZM10 17.5C9.70333 17.5 9.41332 17.412 9.16665 17.2472C8.91997 17.0824 8.72771 16.8481 8.61418 16.574C8.50065 16.2999 8.47094 15.9983 8.52882 15.7074C8.5867 15.4164 8.72956 15.1491 8.93934 14.9393C9.14912 14.7296 9.41639 14.5867 9.70736 14.5288C9.99834 14.4709 10.2999 14.5006 10.574 14.6142C10.8481 14.7277 11.0824 14.92 11.2472 15.1666C11.412 15.4133 11.5 15.7033 11.5 16C11.5 16.3978 11.342 16.7794 11.0607 17.0607C10.7794 17.342 10.3978 17.5 10 17.5Z" fill="black"/>
</svg>
