<svg width="32" height="32" viewBox="0 0 32 32" fill="none" xmlns="http://www.w3.org/2000/svg">
<path d="M22 6.5H10C7.48044 6.5 5.06408 7.50089 3.28249 9.28249C1.50089 11.0641 0.5 13.4804 0.5 16C0.5 18.5196 1.50089 20.9359 3.28249 22.7175C5.06408 24.4991 7.48044 25.5 10 25.5H22C24.5196 25.5 26.9359 24.4991 28.7175 22.7175C30.4991 20.9359 31.5 18.5196 31.5 16C31.5 13.4804 30.4991 11.0641 28.7175 9.28249C26.9359 7.50089 24.5196 6.5 22 6.5ZM22 22.5H10C8.27609 22.5 6.62279 21.8152 5.40381 20.5962C4.18482 19.3772 3.5 17.7239 3.5 16C3.5 14.2761 4.18482 12.6228 5.40381 11.4038C6.62279 10.1848 8.27609 9.5 10 9.5H22C23.7239 9.5 25.3772 10.1848 26.5962 11.4038C27.8152 12.6228 28.5 14.2761 28.5 16C28.5 17.7239 27.8152 19.3772 26.5962 20.5962C25.3772 21.8152 23.7239 22.5 22 22.5ZM22 11.5C21.11 11.5 20.24 11.7639 19.4999 12.2584C18.7599 12.7529 18.1831 13.4557 17.8425 14.2779C17.5019 15.1002 17.4128 16.005 17.5865 16.8779C17.7601 17.7508 18.1887 18.5526 18.818 19.182C19.4474 19.8113 20.2492 20.2399 21.1221 20.4135C21.995 20.5872 22.8998 20.4981 23.7221 20.1575C24.5443 19.8169 25.2471 19.2401 25.7416 18.5001C26.2361 17.76 26.5 16.89 26.5 16C26.5 14.8065 26.0259 13.6619 25.182 12.818C24.3381 11.9741 23.1935 11.5 22 11.5ZM22 17.5C21.7033 17.5 21.4133 17.412 21.1666 17.2472C20.92 17.0824 20.7277 16.8481 20.6142 16.574C20.5007 16.2999 20.4709 15.9983 20.5288 15.7074C20.5867 15.4164 20.7296 15.1491 20.9393 14.9393C21.1491 14.7296 21.4164 14.5867 21.7074 14.5288C21.9983 14.4709 22.2999 14.5006 22.574 14.6142C22.8481 14.7277 23.0824 14.92 23.2472 15.1666C23.412 15.4133 23.5 15.7033 23.5 16C23.5 16.3978 23.342 16.7794 23.0607 17.0607C22.7794 17.342 22.3978 17.5 22 17.5Z" fill="black"/>
</svg>
