<svg width="32" height="32" viewBox="0 0 32 32" fill="none" xmlns="http://www.w3.org/2000/svg">
<path d="M28 8H22.5V7C22.5 6.07174 22.1313 5.1815 21.4749 4.52513C20.8185 3.86875 19.9283 3.5 19 3.5H13C12.0717 3.5 11.1815 3.86875 10.5251 4.52513C9.86875 5.1815 9.5 6.07174 9.5 7V8H4C3.33696 8 2.70107 8.26339 2.23223 8.73223C1.76339 9.20107 1.5 9.83696 1.5 10.5V24C1.5 24.663 1.76339 25.2989 2.23223 25.7678C2.70107 26.2366 3.33696 26.5 4 26.5H28C28.663 26.5 29.2989 26.2366 29.7678 25.7678C30.2366 25.2989 30.5 24.663 30.5 24V10.5C30.5 9.83696 30.2366 9.20107 29.7678 8.73223C29.2989 8.26339 28.663 8 28 8ZM12.5 7C12.5 6.86739 12.5527 6.74021 12.6464 6.64645C12.7402 6.55268 12.8674 6.5 13 6.5H19C19.1326 6.5 19.2598 6.55268 19.3536 6.64645C19.4473 6.74021 19.5 6.86739 19.5 7V8H12.5V7ZM27.5 11V15H24.5V14.5C24.5 14.1022 24.342 13.7206 24.0607 13.4393C23.7794 13.158 23.3978 13 23 13C22.6022 13 22.2206 13.158 21.9393 13.4393C21.658 13.7206 21.5 14.1022 21.5 14.5V15H10.5V14.5C10.5 14.1022 10.342 13.7206 10.0607 13.4393C9.77936 13.158 9.39782 13 9 13C8.60218 13 8.22064 13.158 7.93934 13.4393C7.65804 13.7206 7.5 14.1022 7.5 14.5V15H4.5V11H27.5ZM4.5 23.5V18H7.5V18.5C7.5 18.8978 7.65804 19.2794 7.93934 19.5607C8.22064 19.842 8.60218 20 9 20C9.39782 20 9.77936 19.842 10.0607 19.5607C10.342 19.2794 10.5 18.8978 10.5 18.5V18H21.5V18.5C21.5 18.8978 21.658 19.2794 21.9393 19.5607C22.2206 19.842 22.6022 20 23 20C23.3978 20 23.7794 19.842 24.0607 19.5607C24.342 19.2794 24.5 18.8978 24.5 18.5V18H27.5V23.5H4.5Z" fill="black"/>
</svg>
