<svg width="32" height="32" viewBox="0 0 32 32" fill="none" xmlns="http://www.w3.org/2000/svg">
<path d="M21.5575 10.3938L20.0388 11L21.5575 11.6062C21.7405 11.6795 21.9072 11.788 22.0482 11.9256C22.1892 12.0633 22.3017 12.2274 22.3793 12.4085C22.4569 12.5896 22.4981 12.7843 22.5004 12.9813C22.5028 13.1784 22.4664 13.3739 22.3931 13.5569C22.3199 13.7398 22.2114 13.9066 22.0738 14.0476C21.9361 14.1886 21.772 14.3011 21.5909 14.3787C21.4098 14.4563 21.2151 14.4974 21.0181 14.4998C20.821 14.5022 20.6255 14.4657 20.4425 14.3925L16 12.6163L11.5575 14.3938C11.188 14.5416 10.775 14.5366 10.4091 14.3799C10.0433 14.2232 9.75476 13.9276 9.6069 13.5581C9.45904 13.1886 9.46401 12.7756 9.62072 12.4097C9.77743 12.0439 10.073 11.7554 10.4425 11.6075L11.9613 11L10.4425 10.3938C10.073 10.2459 9.77743 9.95731 9.62072 9.5915C9.46401 9.22569 9.45904 8.8126 9.6069 8.44312C9.75476 8.07365 10.0433 7.77804 10.4091 7.62133C10.775 7.46461 11.188 7.45964 11.5575 7.6075L16 9.385L20.4425 7.6075C20.812 7.45964 21.2251 7.46461 21.5909 7.62133C21.9567 7.77804 22.2453 8.07365 22.3931 8.44312C22.541 8.8126 22.536 9.22569 22.3793 9.5915C22.2226 9.95731 21.927 10.2459 21.5575 10.3938ZM28.5 9.96875C28.51 19.525 25.35 26.9287 22.375 29.0425C22.0131 29.2966 21.5902 29.4502 21.1495 29.4875C20.7089 29.5249 20.2662 29.4446 19.8666 29.255C19.4671 29.0654 19.125 28.7732 18.8753 28.4083C18.6255 28.0433 18.477 27.6186 18.445 27.1775C18.3613 26.045 18.1538 24.4275 17.6375 23.1488C16.97 21.5 16.24 21.5 16 21.5C15.03 21.5 14.5288 22.74 14.365 23.1475C13.8488 24.425 13.6413 26.0438 13.5575 27.1763C13.5129 27.8072 13.2308 28.3978 12.7681 28.829C12.3053 29.2602 11.6963 29.5 11.0638 29.5C10.5483 29.5006 10.0455 29.3407 9.62502 29.0425C6.65002 26.9287 3.49002 19.525 3.50002 9.96875C3.50829 7.98505 4.30211 6.08541 5.70774 4.68564C7.11337 3.28587 9.0163 2.49998 11 2.5H21C22.9837 2.49998 24.8867 3.28587 26.2923 4.68564C27.6979 6.08541 28.4918 7.98505 28.5 9.96875ZM25.5 9.96875C25.4918 8.7807 25.014 7.64412 24.171 6.80695C23.328 5.96979 22.1881 5.49997 21 5.5H11C9.8113 5.49998 8.67085 5.97031 7.82773 6.80828C6.9846 7.64626 6.50729 8.7838 6.50002 9.9725C6.49252 17.6087 8.72877 23.6625 10.6625 25.93C11.405 19.5 14.29 18.5 16 18.5C17.71 18.5 20.595 19.5 21.3375 25.9287C23.2713 23.6637 25.5075 17.61 25.5 9.9725V9.96875Z" fill="black"/>
</svg>
