<svg width="32" height="32" viewBox="0 0 32 32" fill="none" xmlns="http://www.w3.org/2000/svg">
<path d="M29.8751 8.34398C29.6396 8.07919 29.3509 7.86715 29.0277 7.72174C28.7046 7.57633 28.3544 7.50085 28.0001 7.50023H22.4788C22.3469 5.87257 21.6071 4.3542 20.4067 3.24713C19.2062 2.14005 17.6331 1.52539 16.0001 1.52539C14.3671 1.52539 12.7939 2.14005 11.5935 3.24713C10.393 4.3542 9.65325 5.87257 9.52131 7.50023H4.01006C3.65614 7.49884 3.30596 7.57261 2.98267 7.71667C2.65939 7.86072 2.37038 8.07178 2.13476 8.33588C1.89914 8.59998 1.72229 8.91109 1.61589 9.24865C1.50949 9.5862 1.47598 9.9425 1.51756 10.294L3.29881 25.294C3.37251 25.9029 3.66686 26.4638 4.12618 26.8703C4.5855 27.2769 5.17791 27.501 5.79131 27.5002H26.2088C26.8222 27.501 27.4146 27.2769 27.8739 26.8703C28.3333 26.4638 28.6276 25.9029 28.7013 25.294L30.4826 10.294C30.5243 9.94449 30.4917 9.59014 30.387 9.25411C30.2823 8.91807 30.1079 8.60793 29.8751 8.34398ZM16.0001 4.50023C16.8416 4.50031 17.655 4.80362 18.2911 5.35459C18.9273 5.90556 19.3436 6.66729 19.4638 7.50023H12.5363C12.6565 6.66729 13.0729 5.90556 13.709 5.35459C14.3451 4.80362 15.1585 4.50031 16.0001 4.50023ZM25.7738 24.5002H6.22631L4.56256 10.5002H27.4376L25.7738 24.5002Z" fill="black"/>
</svg>
