<svg width="32" height="32" viewBox="0 0 32 32" fill="none" xmlns="http://www.w3.org/2000/svg">
<path d="M16 2.5C13.33 2.5 10.7199 3.29176 8.49981 4.77516C6.27974 6.25856 4.54942 8.36697 3.52763 10.8338C2.50585 13.3006 2.2385 16.015 2.7594 18.6337C3.28031 21.2525 4.56606 23.6579 6.45406 25.5459C8.34207 27.434 10.7475 28.7197 13.3663 29.2406C15.985 29.7615 18.6994 29.4942 21.1662 28.4724C23.633 27.4506 25.7414 25.7203 27.2248 23.5002C28.7082 21.2801 29.5 18.67 29.5 16C29.496 12.4208 28.0724 8.98932 25.5416 6.45844C23.0107 3.92756 19.5792 2.50397 16 2.5ZM16 26.5C13.9233 26.5 11.8932 25.8842 10.1665 24.7304C8.4398 23.5767 7.09399 21.9368 6.29927 20.0182C5.50455 18.0996 5.29662 15.9884 5.70176 13.9516C6.10691 11.9148 7.10693 10.0438 8.57538 8.57538C10.0438 7.10693 11.9148 6.1069 13.9516 5.70175C15.9884 5.29661 18.0996 5.50454 20.0182 6.29926C21.9368 7.09399 23.5767 8.4398 24.7304 10.1665C25.8842 11.8932 26.5 13.9233 26.5 16C26.497 18.7839 25.3898 21.4528 23.4213 23.4213C21.4529 25.3898 18.7839 26.497 16 26.5ZM24 13.5V18.5C24 18.8978 23.842 19.2794 23.5607 19.5607C23.2794 19.842 22.8978 20 22.5 20C22.1022 20 21.7207 19.842 21.4393 19.5607C21.158 19.2794 21 18.8978 21 18.5V16.7612L19.9763 17.6362C19.7044 17.8693 19.3581 17.9974 19 17.9974C18.6419 17.9974 18.2956 17.8693 18.0238 17.6362L17 16.7612V18.5C17 18.8978 16.842 19.2794 16.5607 19.5607C16.2794 19.842 15.8978 20 15.5 20C15.1022 20 14.7206 19.842 14.4393 19.5607C14.158 19.2794 14 18.8978 14 18.5V15H12.5V18.5C12.5 18.8978 12.342 19.2794 12.0607 19.5607C11.7794 19.842 11.3978 20 11 20C10.6022 20 10.2207 19.842 9.93935 19.5607C9.65804 19.2794 9.50001 18.8978 9.50001 18.5V15H9.00001C8.60218 15 8.22065 14.842 7.93935 14.5607C7.65804 14.2794 7.50001 13.8978 7.50001 13.5C7.50001 13.1022 7.65804 12.7206 7.93935 12.4393C8.22065 12.158 8.60218 12 9.00001 12H15.5C15.8581 12 16.2044 12.1282 16.4763 12.3612L19 14.525L21.5238 12.3612C21.7416 12.1745 22.0083 12.0542 22.2924 12.0145C22.5765 11.9748 22.8661 12.0174 23.1267 12.1373C23.3874 12.2571 23.6081 12.4492 23.7629 12.6907C23.9177 12.9323 24 13.2131 24 13.5Z" fill="black"/>
</svg>
