<svg width="32" height="32" viewBox="0 0 32 32" fill="none" xmlns="http://www.w3.org/2000/svg">
<path d="M16 2.5C13.33 2.5 10.7199 3.29176 8.49981 4.77516C6.27974 6.25856 4.54942 8.36697 3.52763 10.8338C2.50585 13.3006 2.2385 16.015 2.7594 18.6337C3.28031 21.2525 4.56606 23.6579 6.45406 25.5459C8.34207 27.434 10.7475 28.7197 13.3663 29.2406C15.985 29.7615 18.6994 29.4942 21.1662 28.4724C23.633 27.4506 25.7414 25.7203 27.2248 23.5002C28.7082 21.2801 29.5 18.67 29.5 16C29.496 12.4208 28.0724 8.98932 25.5416 6.45844C23.0107 3.92756 19.5792 2.50397 16 2.5ZM16 26.5C13.9233 26.5 11.8932 25.8842 10.1665 24.7304C8.4398 23.5767 7.09399 21.9368 6.29927 20.0182C5.50455 18.0996 5.29662 15.9884 5.70176 13.9516C6.10691 11.9148 7.10693 10.0438 8.57538 8.57538C10.0438 7.10693 11.9148 6.1069 13.9516 5.70175C15.9884 5.29661 18.0996 5.50454 20.0182 6.29926C21.9368 7.09399 23.5767 8.4398 24.7304 10.1665C25.8842 11.8932 26.5 13.9233 26.5 16C26.497 18.7839 25.3898 21.4528 23.4213 23.4213C21.4529 25.3898 18.7839 26.497 16 26.5ZM19.5875 17.6775C20.3681 17.127 20.9533 16.3424 21.2584 15.4372C21.5635 14.532 21.5726 13.5532 21.2844 12.6425C20.9962 11.7317 20.4258 10.9363 19.6555 10.3714C18.8853 9.80645 17.9552 9.50126 17 9.5H13C12.6022 9.5 12.2206 9.65804 11.9393 9.93934C11.658 10.2206 11.5 10.6022 11.5 11V21C11.5 21.3978 11.658 21.7794 11.9393 22.0607C12.2206 22.342 12.6022 22.5 13 22.5C13.3978 22.5 13.7794 22.342 14.0607 22.0607C14.342 21.7794 14.5 21.3978 14.5 21V18.5H16.53L18.75 21.8325C18.9708 22.164 19.3142 22.3943 19.7048 22.4725C20.0953 22.5508 20.501 22.4708 20.8325 22.25C21.164 22.0292 21.3943 21.6858 21.4726 21.2952C21.5509 20.9047 21.4708 20.499 21.25 20.1675L19.5875 17.6775ZM14.5 12.5H17C17.3978 12.5 17.7794 12.658 18.0607 12.9393C18.342 13.2206 18.5 13.6022 18.5 14C18.5 14.3978 18.342 14.7794 18.0607 15.0607C17.7794 15.342 17.3978 15.5 17 15.5H14.5V12.5Z" fill="black"/>
</svg>
