<svg width="32" height="32" viewBox="0 0 32 32" fill="none" xmlns="http://www.w3.org/2000/svg">
<path d="M29 25.5H27.0662L19.65 4.17875C19.4795 3.68839 19.1605 3.26329 18.7373 2.96246C18.3142 2.66164 17.8079 2.5 17.2887 2.5H14.7113C14.1921 2.5 13.6858 2.66164 13.2627 2.96246C12.8395 3.26329 12.5205 3.68839 12.35 4.17875L4.93375 25.5H3C2.60218 25.5 2.22064 25.658 1.93934 25.9393C1.65804 26.2206 1.5 26.6022 1.5 27C1.5 27.3978 1.65804 27.7794 1.93934 28.0607C2.22064 28.342 2.60218 28.5 3 28.5H29C29.3978 28.5 29.7794 28.342 30.0607 28.0607C30.342 27.7794 30.5 27.3978 30.5 27C30.5 26.6022 30.342 26.2206 30.0607 25.9393C29.7794 25.658 29.3978 25.5 29 25.5ZM12.2837 13.5H19.7162L21.455 18.5H10.545L12.2837 13.5ZM15.0662 5.5H16.9338L18.6725 10.5H13.3275L15.0662 5.5ZM9.5 21.5H22.5L23.8913 25.5H8.11L9.5 21.5Z" fill="black"/>
</svg>
