<svg width="32" height="32" viewBox="0 0 32 32" fill="none" xmlns="http://www.w3.org/2000/svg">
<path d="M30.75 14.1825L17.8175 1.25001C17.3354 0.768206 16.6816 0.497559 16 0.497559C15.3184 0.497559 14.6647 0.768206 14.1825 1.25001L1.25001 14.1825C0.768206 14.6647 0.497559 15.3184 0.497559 16C0.497559 16.6816 0.768206 17.3354 1.25001 17.8175L14.1825 30.75C14.6647 31.2318 15.3184 31.5025 16 31.5025C16.6816 31.5025 17.3354 31.2318 17.8175 30.75L30.75 17.8175C31.2318 17.3354 31.5025 16.6816 31.5025 16C31.5025 15.3184 31.2318 14.6647 30.75 14.1825ZM16 28.3213L3.67876 16L16 3.67876L28.3213 16L16 28.3213ZM16.9388 13.0613C16.657 12.7795 16.4987 12.3973 16.4987 11.9988C16.4987 11.6002 16.657 11.2181 16.9388 10.9363C17.2206 10.6545 17.6027 10.4962 18.0013 10.4962C18.3998 10.4962 18.782 10.6545 19.0638 10.9363L22.0638 13.9363C22.2036 14.0756 22.3146 14.2412 22.3903 14.4235C22.466 14.6059 22.5049 14.8013 22.5049 14.9988C22.5049 15.1962 22.466 15.3917 22.3903 15.574C22.3146 15.7563 22.2036 15.9219 22.0638 16.0613L19.0638 19.0613C18.782 19.3431 18.3998 19.5014 18.0013 19.5014C17.6027 19.5014 17.2206 19.3431 16.9388 19.0613C16.657 18.7795 16.4987 18.3973 16.4987 17.9988C16.4987 17.6002 16.657 17.2181 16.9388 16.9363L17.375 16.5H14C13.6022 16.5 13.2207 16.658 12.9394 16.9394C12.658 17.2207 12.5 17.6022 12.5 18V18.5C12.5 18.8978 12.342 19.2794 12.0607 19.5607C11.7794 19.842 11.3978 20 11 20C10.6022 20 10.2207 19.842 9.93935 19.5607C9.65805 19.2794 9.50001 18.8978 9.50001 18.5V18C9.50001 16.8065 9.97412 15.6619 10.818 14.818C11.6619 13.9741 12.8065 13.5 14 13.5H17.375L16.9388 13.0613Z" fill="black"/>
</svg>
