<svg width="32" height="32" viewBox="0 0 32 32" fill="none" xmlns="http://www.w3.org/2000/svg">
<path d="M27 17.5H25.5V10.5H27C27.3978 10.5 27.7794 10.342 28.0607 10.0607C28.342 9.77936 28.5 9.39782 28.5 9C28.5 8.60218 28.342 8.22064 28.0607 7.93934C27.7794 7.65804 27.3978 7.5 27 7.5H25.5V5C25.5 4.33696 25.2366 3.70107 24.7678 3.23223C24.2989 2.76339 23.663 2.5 23 2.5H9C8.33696 2.5 7.70107 2.76339 7.23223 3.23223C6.76339 3.70107 6.5 4.33696 6.5 5V7.5H5C4.60218 7.5 4.22064 7.65804 3.93934 7.93934C3.65804 8.22064 3.5 8.60218 3.5 9C3.5 9.39782 3.65804 9.77936 3.93934 10.0607C4.22064 10.342 4.60218 10.5 5 10.5H6.5V17.5H5C4.60218 17.5 4.22064 17.658 3.93934 17.9393C3.65804 18.2206 3.5 18.6022 3.5 19C3.5 19.3978 3.65804 19.7794 3.93934 20.0607C4.22064 20.342 4.60218 20.5 5 20.5H6.5V27C6.5 27.663 6.76339 28.2989 7.23223 28.7678C7.70107 29.2366 8.33696 29.5 9 29.5H23C23.663 29.5 24.2989 29.2366 24.7678 28.7678C25.2366 28.2989 25.5 27.663 25.5 27V20.5H27C27.3978 20.5 27.7794 20.342 28.0607 20.0607C28.342 19.7794 28.5 19.3978 28.5 19C28.5 18.6022 28.342 18.2206 28.0607 17.9393C27.7794 17.658 27.3978 17.5 27 17.5ZM22.5 26.5H9.5V5.5H22.5V26.5ZM16 15C16.7911 15 17.5645 14.7654 18.2223 14.3259C18.8801 13.8864 19.3928 13.2616 19.6955 12.5307C19.9983 11.7998 20.0775 10.9956 19.9231 10.2196C19.7688 9.44371 19.3878 8.73098 18.8284 8.17157C18.269 7.61216 17.5563 7.2312 16.7804 7.07686C16.0044 6.92252 15.2002 7.00173 14.4693 7.30448C13.7384 7.60723 13.1136 8.11992 12.6741 8.77772C12.2346 9.43552 12 10.2089 12 11C12 12.0609 12.4214 13.0783 13.1716 13.8284C13.9217 14.5786 14.9391 15 16 15ZM16 10C16.1978 10 16.3911 10.0586 16.5556 10.1685C16.72 10.2784 16.8482 10.4346 16.9239 10.6173C16.9996 10.8 17.0194 11.0011 16.9808 11.1951C16.9422 11.3891 16.847 11.5673 16.7071 11.7071C16.5673 11.847 16.3891 11.9422 16.1951 11.9808C16.0011 12.0194 15.8 11.9996 15.6173 11.9239C15.4346 11.8482 15.2784 11.72 15.1685 11.5556C15.0586 11.3911 15 11.1978 15 11C15 10.7348 15.1054 10.4804 15.2929 10.2929C15.4804 10.1054 15.7348 10 16 10ZM16 25C16.7911 25 17.5645 24.7654 18.2223 24.3259C18.8801 23.8864 19.3928 23.2616 19.6955 22.5307C19.9983 21.7998 20.0775 20.9956 19.9231 20.2196C19.7688 19.4437 19.3878 18.731 18.8284 18.1716C18.269 17.6122 17.5563 17.2312 16.7804 17.0769C16.0044 16.9225 15.2002 17.0017 14.4693 17.3045C13.7384 17.6072 13.1136 18.1199 12.6741 18.7777C12.2346 19.4355 12 20.2089 12 21C12 22.0609 12.4214 23.0783 13.1716 23.8284C13.9217 24.5786 14.9391 25 16 25ZM16 20C16.1978 20 16.3911 20.0586 16.5556 20.1685C16.72 20.2784 16.8482 20.4346 16.9239 20.6173C16.9996 20.8 17.0194 21.0011 16.9808 21.1951C16.9422 21.3891 16.847 21.5673 16.7071 21.7071C16.5673 21.847 16.3891 21.9422 16.1951 21.9808C16.0011 22.0194 15.8 21.9996 15.6173 21.9239C15.4346 21.8482 15.2784 21.72 15.1685 21.5556C15.0586 21.3911 15 21.1978 15 21C15 20.7348 15.1054 20.4804 15.2929 20.2929C15.4804 20.1054 15.7348 20 16 20Z" fill="black"/>
</svg>
