<svg width="32" height="32" viewBox="0 0 32 32" fill="none" xmlns="http://www.w3.org/2000/svg">
<path d="M27.7238 14.8025L24.925 4.54C24.8241 4.16947 24.604 3.84244 24.2989 3.60932C23.9937 3.3762 23.6203 3.24994 23.2363 3.25H8.76376C8.37973 3.24994 8.00634 3.3762 7.70116 3.60932C7.39598 3.84244 7.17595 4.16947 7.07501 4.54L4.27626 14.8025C4.24096 14.9318 4.24096 15.0682 4.27626 15.1975L7.07501 25.46C7.17595 25.8305 7.39598 26.1576 7.70116 26.3907C8.00634 26.6238 8.37973 26.7501 8.76376 26.75H10.5L8.40001 29.55C8.34091 29.6288 8.29792 29.7185 8.27347 29.8139C8.24903 29.9093 8.24362 30.0086 8.25755 30.1061C8.27147 30.2036 8.30447 30.2974 8.35465 30.3821C8.40483 30.4669 8.47121 30.5409 8.55001 30.6C8.6288 30.6591 8.71846 30.7021 8.81387 30.7265C8.90928 30.751 9.00857 30.7564 9.10607 30.7425C9.20358 30.7285 9.29738 30.6955 9.38213 30.6454C9.46688 30.5952 9.54091 30.5288 9.60001 30.45L12.375 26.75H19.625L22.4 30.45C22.5194 30.6091 22.697 30.7143 22.8939 30.7425C23.0909 30.7706 23.2909 30.7193 23.45 30.6C23.6091 30.4807 23.7143 30.303 23.7425 30.1061C23.7706 29.9092 23.7194 29.7091 23.6 29.55L21.5 26.75H23.2363C23.6203 26.7501 23.9937 26.6238 24.2989 26.3907C24.604 26.1576 24.8241 25.8305 24.925 25.46L27.7238 15.1975C27.7591 15.0682 27.7591 14.9318 27.7238 14.8025ZM8.52251 4.93375C8.53703 4.88092 8.5685 4.83432 8.61209 4.80112C8.65568 4.76792 8.70897 4.74996 8.76376 4.75H23.2363C23.291 4.74996 23.3443 4.76792 23.3879 4.80112C23.4315 4.83432 23.463 4.88092 23.4775 4.93375L26.0613 14.4087L16 16.2375L5.93876 14.4087L8.52251 4.93375ZM8.52251 25.0662L6.03626 15.9513L15.25 17.625V25.25H8.76376C8.70897 25.25 8.65568 25.2321 8.61209 25.1989C8.5685 25.1657 8.53703 25.1191 8.52251 25.0662ZM23.4775 25.0662C23.463 25.1191 23.4315 25.1657 23.3879 25.1989C23.3443 25.2321 23.291 25.25 23.2363 25.25H16.75V17.625L25.9638 15.95L23.4775 25.0662ZM11.25 11C11.25 10.8011 11.329 10.6103 11.4697 10.4697C11.6103 10.329 11.8011 10.25 12 10.25H20C20.1989 10.25 20.3897 10.329 20.5303 10.4697C20.671 10.6103 20.75 10.8011 20.75 11C20.75 11.1989 20.671 11.3897 20.5303 11.5303C20.3897 11.671 20.1989 11.75 20 11.75H12C11.8011 11.75 11.6103 11.671 11.4697 11.5303C11.329 11.3897 11.25 11.1989 11.25 11Z" fill="black"/>
</svg>
