<svg width="32" height="32" viewBox="0 0 32 32" fill="none" xmlns="http://www.w3.org/2000/svg">
<path d="M23 2.5H9C7.80653 2.5 6.66193 2.97411 5.81802 3.81802C4.97411 4.66193 4.5 5.80653 4.5 7V23C4.5 24.1935 4.97411 25.3381 5.81802 26.182C6.66193 27.0259 7.80653 27.5 9 27.5L7.8 29.1C7.56131 29.4183 7.45881 29.8183 7.51508 30.2121C7.57134 30.606 7.78174 30.9613 8.1 31.2C8.41826 31.4387 8.81831 31.5412 9.21213 31.4849C9.60596 31.4287 9.96131 31.2183 10.2 30.9L12.75 27.5H19.25L21.8 30.9C22.0387 31.2183 22.394 31.4287 22.7879 31.4849C23.1817 31.5412 23.5817 31.4387 23.9 31.2C24.2183 30.9613 24.4287 30.606 24.4849 30.2121C24.5412 29.8183 24.4387 29.4183 24.2 29.1L23 27.5C24.1935 27.5 25.3381 27.0259 26.182 26.182C27.0259 25.3381 27.5 24.1935 27.5 23V7C27.5 5.80653 27.0259 4.66193 26.182 3.81802C25.3381 2.97411 24.1935 2.5 23 2.5ZM9 5.5H23C23.3978 5.5 23.7794 5.65804 24.0607 5.93934C24.342 6.22064 24.5 6.60218 24.5 7V14.5H7.5V7C7.5 6.60218 7.65804 6.22064 7.93934 5.93934C8.22064 5.65804 8.60218 5.5 9 5.5ZM23 24.5H9C8.60218 24.5 8.22064 24.342 7.93934 24.0607C7.65804 23.7794 7.5 23.3978 7.5 23V17.5H24.5V23C24.5 23.3978 24.342 23.7794 24.0607 24.0607C23.7794 24.342 23.3978 24.5 23 24.5ZM13 21C13 21.3956 12.8827 21.7822 12.6629 22.1111C12.4432 22.44 12.1308 22.6964 11.7654 22.8478C11.3999 22.9991 10.9978 23.0387 10.6098 22.9616C10.2219 22.8844 9.86549 22.6939 9.58579 22.4142C9.30608 22.1345 9.1156 21.7781 9.03843 21.3902C8.96126 21.0022 9.00087 20.6001 9.15224 20.2346C9.30362 19.8692 9.55996 19.5568 9.88886 19.3371C10.2178 19.1173 10.6044 19 11 19C11.5304 19 12.0391 19.2107 12.4142 19.5858C12.7893 19.9609 13 20.4696 13 21ZM23 21C23 21.3956 22.8827 21.7822 22.6629 22.1111C22.4432 22.44 22.1308 22.6964 21.7654 22.8478C21.3999 22.9991 20.9978 23.0387 20.6098 22.9616C20.2219 22.8844 19.8655 22.6939 19.5858 22.4142C19.3061 22.1345 19.1156 21.7781 19.0384 21.3902C18.9613 21.0022 19.0009 20.6001 19.1522 20.2346C19.3036 19.8692 19.56 19.5568 19.8889 19.3371C20.2178 19.1173 20.6044 19 21 19C21.5304 19 22.0391 19.2107 22.4142 19.5858C22.7893 19.9609 23 20.4696 23 21Z" fill="black"/>
</svg>
