<svg width="32" height="32" viewBox="0 0 32 32" fill="none" xmlns="http://www.w3.org/2000/svg">
<path d="M28.4475 14.605L25.6475 4.3425C25.5033 3.81345 25.1891 3.34649 24.7534 3.01355C24.3177 2.68061 23.7846 2.50016 23.2362 2.5H8.76374C8.21538 2.50016 7.68229 2.68061 7.24658 3.01355C6.81087 3.34649 6.49671 3.81345 6.35249 4.3425L3.55249 14.605C3.4825 14.8637 3.4825 15.1363 3.55249 15.395L6.35249 25.6575C6.49671 26.1866 6.81087 26.6535 7.24658 26.9865C7.68229 27.3194 8.21538 27.4998 8.76374 27.5H8.99999L7.79999 29.1C7.5613 29.4183 7.4588 29.8183 7.51507 30.2121C7.57133 30.606 7.78173 30.9613 8.09999 31.2C8.41825 31.4387 8.8183 31.5412 9.21212 31.4849C9.60595 31.4287 9.96129 31.2183 10.2 30.9L12.75 27.5H19.25L21.8 30.9C22.0387 31.2183 22.394 31.4287 22.7879 31.4849C23.1817 31.5412 23.5817 31.4387 23.9 31.2C24.2182 30.9613 24.4287 30.606 24.4849 30.2121C24.5412 29.8183 24.4387 29.4183 24.2 29.1L23 27.5H23.2362C23.7846 27.4998 24.3177 27.3194 24.7534 26.9865C25.1891 26.6535 25.5033 26.1866 25.6475 25.6575L28.4475 15.395C28.5175 15.1363 28.5175 14.8637 28.4475 14.605ZM9.14624 5.5H22.8537L25.125 13.8162L16 15.475L6.87499 13.8162L9.14624 5.5ZM7.07374 16.9013L14.5 18.25V24.5H9.14624L7.07374 16.9013ZM22.8537 24.5H17.5V18.25L24.9262 16.9L22.8537 24.5ZM10.5 11C10.5 10.6022 10.658 10.2206 10.9393 9.93934C11.2206 9.65804 11.6022 9.5 12 9.5H20C20.3978 9.5 20.7793 9.65804 21.0606 9.93934C21.342 10.2206 21.5 10.6022 21.5 11C21.5 11.3978 21.342 11.7794 21.0606 12.0607C20.7793 12.342 20.3978 12.5 20 12.5H12C11.6022 12.5 11.2206 12.342 10.9393 12.0607C10.658 11.7794 10.5 11.3978 10.5 11Z" fill="black"/>
</svg>
