<svg width="32" height="32" viewBox="0 0 32 32" fill="none" xmlns="http://www.w3.org/2000/svg">
<path d="M30.3412 26.3288L23.3412 12.3287C23.2166 12.0798 23.0251 11.8705 22.7882 11.7241C22.5513 11.5778 22.2784 11.5004 22 11.5004C21.7216 11.5004 21.4487 11.5778 21.2118 11.7241C20.9749 11.8705 20.7834 12.0798 20.6588 12.3287L18.0938 17.4538C16.3657 17.3027 14.7018 16.7269 13.25 15.7775C15.0142 13.7259 16.1178 11.1893 16.4163 8.5H19C19.3978 8.5 19.7794 8.34196 20.0607 8.06066C20.342 7.77936 20.5 7.39782 20.5 7C20.5 6.60218 20.342 6.22064 20.0607 5.93934C19.7794 5.65804 19.3978 5.5 19 5.5H12.5V4C12.5 3.60218 12.342 3.22064 12.0607 2.93934C11.7794 2.65804 11.3978 2.5 11 2.5C10.6022 2.5 10.2206 2.65804 9.93934 2.93934C9.65804 3.22064 9.5 3.60218 9.5 4V5.5H3C2.60218 5.5 2.22064 5.65804 1.93934 5.93934C1.65804 6.22064 1.5 6.60218 1.5 7C1.5 7.39782 1.65804 7.77936 1.93934 8.06066C2.22064 8.34196 2.60218 8.5 3 8.5H13.3912C13.1099 10.4549 12.2808 12.2903 11 13.7937C10.375 13.0623 9.85341 12.2485 9.45 11.375C9.37099 11.1913 9.25604 11.0252 9.11191 10.8866C8.96779 10.748 8.7974 10.6396 8.61077 10.5677C8.42413 10.4959 8.22502 10.4621 8.02514 10.4684C7.82526 10.4747 7.62865 10.5208 7.44687 10.6042C7.26509 10.6875 7.10182 10.8064 6.96664 10.9537C6.83146 11.1011 6.72712 11.274 6.65975 11.4623C6.59237 11.6506 6.56333 11.8504 6.57432 12.0501C6.58531 12.2498 6.63612 12.4452 6.72375 12.625C7.24847 13.7662 7.93052 14.8281 8.75 15.78C7.04294 16.9036 5.04368 17.5017 3 17.5C2.60218 17.5 2.22064 17.658 1.93934 17.9393C1.65804 18.2206 1.5 18.6022 1.5 19C1.5 19.3978 1.65804 19.7794 1.93934 20.0607C2.22064 20.342 2.60218 20.5 3 20.5C5.88005 20.5023 8.6846 19.579 11 17.8662C12.6791 19.1019 14.6207 19.9335 16.6737 20.2962L13.6575 26.3288C13.5638 26.5055 13.5063 26.6991 13.4885 26.8984C13.4707 27.0976 13.493 27.2984 13.5539 27.4889C13.6149 27.6794 13.7133 27.8558 13.8435 28.0077C13.9736 28.1596 14.1328 28.2839 14.3117 28.3734C14.4907 28.4629 14.6856 28.5156 14.8853 28.5286C15.0849 28.5416 15.2851 28.5145 15.474 28.449C15.663 28.3834 15.837 28.2807 15.9857 28.147C16.1344 28.0132 16.2549 27.851 16.34 27.67L17.9263 24.5H26.0725L27.6575 27.67C27.7456 27.8462 27.8675 28.0034 28.0163 28.1325C28.1651 28.2616 28.3379 28.3601 28.5247 28.4224C28.7116 28.4848 28.9089 28.5097 29.1054 28.4957C29.3019 28.4818 29.4938 28.4293 29.67 28.3412C29.8462 28.2532 30.0034 28.1313 30.1325 27.9825C30.2616 27.8337 30.3601 27.6609 30.4224 27.474C30.4848 27.2871 30.5097 27.0898 30.4957 26.8933C30.4818 26.6968 30.4293 26.505 30.3412 26.3288ZM19.4263 21.5L22 16.3538L24.5725 21.5H19.4263Z" fill="black"/>
</svg>
