<svg width="32" height="32" viewBox="0 0 32 32" fill="none" xmlns="http://www.w3.org/2000/svg">
<path d="M27 6H5C4.60218 6 4.22064 6.15804 3.93934 6.43934C3.65804 6.72064 3.5 7.10218 3.5 7.5C3.5 7.89782 3.65804 8.27936 3.93934 8.56066C4.22064 8.84196 4.60218 9 5 9H5.5V26C5.5 26.663 5.76339 27.2989 6.23223 27.7678C6.70107 28.2366 7.33696 28.5 8 28.5H24C24.663 28.5 25.2989 28.2366 25.7678 27.7678C26.2366 27.2989 26.5 26.663 26.5 26V9H27C27.3978 9 27.7794 8.84196 28.0607 8.56066C28.342 8.27936 28.5 7.89782 28.5 7.5C28.5 7.10218 28.342 6.72064 28.0607 6.43934C27.7794 6.15804 27.3978 6 27 6ZM23.5 25.5H8.5V9H23.5V25.5ZM9.5 2.5C9.5 2.10218 9.65804 1.72064 9.93934 1.43934C10.2206 1.15804 10.6022 1 11 1H21C21.3978 1 21.7794 1.15804 22.0607 1.43934C22.342 1.72064 22.5 2.10218 22.5 2.5C22.5 2.89782 22.342 3.27936 22.0607 3.56066C21.7794 3.84196 21.3978 4 21 4H11C10.6022 4 10.2206 3.84196 9.93934 3.56066C9.65804 3.27936 9.5 2.89782 9.5 2.5Z" fill="black"/>
</svg>
