<svg width="32" height="32" viewBox="0 0 32 32" fill="none" xmlns="http://www.w3.org/2000/svg">
<path d="M28.5924 23.5399L22.5336 15.7499H25.9999C26.14 15.7501 26.2774 15.7109 26.3964 15.637C26.5155 15.563 26.6114 15.4571 26.6733 15.3314C26.7353 15.2057 26.7608 15.0652 26.7469 14.9257C26.733 14.7863 26.6804 14.6535 26.5949 14.5424L16.5949 1.54243C16.5249 1.45117 16.4348 1.37724 16.3316 1.32636C16.2284 1.27549 16.1149 1.24902 15.9999 1.24902C15.8849 1.24902 15.7714 1.27549 15.6682 1.32636C15.565 1.37724 15.4749 1.45117 15.4049 1.54243L5.40489 14.5424C5.3194 14.6535 5.26674 14.7863 5.25287 14.9257C5.239 15.0652 5.26449 15.2057 5.32643 15.3314C5.38837 15.4571 5.4843 15.563 5.60333 15.637C5.72237 15.7109 5.85974 15.7501 5.99989 15.7499H9.46614L3.40739 23.5399C3.3213 23.6508 3.26805 23.7836 3.25369 23.9232C3.23933 24.0628 3.26445 24.2037 3.32618 24.3298C3.3879 24.4558 3.48377 24.562 3.60287 24.6363C3.72197 24.7106 3.85952 24.75 3.99989 24.7499H15.2499V29.9999C15.2499 30.1988 15.3289 30.3896 15.4696 30.5303C15.6102 30.6709 15.801 30.7499 15.9999 30.7499C16.1988 30.7499 16.3896 30.6709 16.5302 30.5303C16.6709 30.3896 16.7499 30.1988 16.7499 29.9999V24.7499H27.9999C28.1403 24.75 28.2778 24.7106 28.3969 24.6363C28.516 24.562 28.6119 24.4558 28.6736 24.3298C28.7353 24.2037 28.7604 24.0628 28.7461 23.9232C28.7317 23.7836 28.6785 23.6508 28.5924 23.5399ZM5.53364 23.2499L11.5924 15.4599C11.6785 15.3491 11.7317 15.2163 11.7461 15.0766C11.7604 14.937 11.7353 14.7962 11.6736 14.6701C11.6119 14.544 11.516 14.4378 11.3969 14.3636C11.2778 14.2893 11.1403 14.2499 10.9999 14.2499H7.52364L15.9999 3.22993L24.4761 14.2499H20.9999C20.8595 14.2499 20.722 14.2893 20.6029 14.3636C20.4838 14.4378 20.3879 14.544 20.3262 14.6701C20.2644 14.7962 20.2393 14.937 20.2537 15.0766C20.268 15.2163 20.3213 15.3491 20.4074 15.4599L26.4661 23.2499H5.53364Z" fill="black"/>
</svg>
