<svg width="32" height="32" viewBox="0 0 32 32" fill="none" xmlns="http://www.w3.org/2000/svg">
<path d="M21 14.5H27C27.663 14.5 28.2989 14.2366 28.7678 13.7678C29.2366 13.2989 29.5 12.663 29.5 12V6C29.5 5.33696 29.2366 4.70107 28.7678 4.23223C28.2989 3.76339 27.663 3.5 27 3.5H21C20.337 3.5 19.7011 3.76339 19.2322 4.23223C18.7634 4.70107 18.5 5.33696 18.5 6V7.5H18C16.8065 7.5 15.6619 7.97411 14.818 8.81802C13.9741 9.66193 13.5 10.8065 13.5 12V14.5H10.5V14C10.5 13.337 10.2366 12.7011 9.76777 12.2322C9.29893 11.7634 8.66304 11.5 8 11.5H4C3.33696 11.5 2.70107 11.7634 2.23223 12.2322C1.76339 12.7011 1.5 13.337 1.5 14V18C1.5 18.3283 1.56466 18.6534 1.6903 18.9567C1.81594 19.26 2.00009 19.5356 2.23223 19.7678C2.46438 19.9999 2.73998 20.1841 3.04329 20.3097C3.34661 20.4353 3.6717 20.5 4 20.5H8C8.3283 20.5 8.65339 20.4353 8.95671 20.3097C9.26002 20.1841 9.53562 19.9999 9.76777 19.7678C9.99991 19.5356 10.1841 19.26 10.3097 18.9567C10.4353 18.6534 10.5 18.3283 10.5 18V17.5H13.5V20C13.5 21.1935 13.9741 22.3381 14.818 23.182C15.6619 24.0259 16.8065 24.5 18 24.5H18.5V26C18.5 26.663 18.7634 27.2989 19.2322 27.7678C19.7011 28.2366 20.337 28.5 21 28.5H27C27.663 28.5 28.2989 28.2366 28.7678 27.7678C29.2366 27.2989 29.5 26.663 29.5 26V20C29.5 19.337 29.2366 18.7011 28.7678 18.2322C28.2989 17.7634 27.663 17.5 27 17.5H21C20.337 17.5 19.7011 17.7634 19.2322 18.2322C18.7634 18.7011 18.5 19.337 18.5 20V21.5H18C17.6022 21.5 17.2206 21.342 16.9393 21.0607C16.658 20.7794 16.5 20.3978 16.5 20V12C16.5 11.6022 16.658 11.2206 16.9393 10.9393C17.2206 10.658 17.6022 10.5 18 10.5H18.5V12C18.5 12.663 18.7634 13.2989 19.2322 13.7678C19.7011 14.2366 20.337 14.5 21 14.5ZM7.5 17.5H4.5V14.5H7.5V17.5ZM21.5 20.5H26.5V25.5H21.5V20.5ZM21.5 6.5H26.5V11.5H21.5V6.5Z" fill="black"/>
</svg>
