<svg width="32" height="32" viewBox="0 0 32 32" fill="none" xmlns="http://www.w3.org/2000/svg">
<path d="M30.0863 6.30868C29.2576 5.42221 28.2555 4.71546 27.1423 4.23227C26.0292 3.74908 24.8286 3.49976 23.615 3.49976C22.4015 3.49976 21.2009 3.74908 20.0878 4.23227C18.9746 4.71546 17.9725 5.42221 17.1438 6.30868C16.7159 6.75876 16.3329 7.2494 16 7.77368C15.6672 7.2494 15.2842 6.75876 14.8563 6.30868C14.0276 5.42221 13.0255 4.71546 11.9123 4.23227C10.7992 3.74908 9.59857 3.49976 8.38504 3.49976C7.17152 3.49976 5.97093 3.74908 4.85775 4.23227C3.74457 4.71546 2.74253 5.42221 1.91379 6.30868C1.74733 6.48343 1.62549 6.69576 1.55861 6.92765C1.49174 7.15954 1.48181 7.40414 1.52966 7.64069C1.57751 7.87724 1.68173 8.09875 1.83347 8.28642C1.98521 8.47409 2.18 8.62237 2.40129 8.71868L8.25004 11.2649C6.15562 12.1528 4.45268 13.7677 3.45505 15.8121C2.45742 17.8565 2.23234 20.1927 2.82129 22.3899C2.88559 22.6272 3.00721 22.845 3.17546 23.0242C3.34371 23.2035 3.55342 23.3386 3.78615 23.4177C4.01888 23.4969 4.26749 23.5176 4.51012 23.4781C4.75274 23.4386 4.98194 23.3401 5.17754 23.1912L14.5 16.0937V27.9999C14.5 28.3978 14.6581 28.7793 14.9394 29.0606C15.2207 29.3419 15.6022 29.4999 16 29.4999C16.3979 29.4999 16.7794 29.3419 17.0607 29.0606C17.342 28.7793 17.5 28.3978 17.5 27.9999V16.0937L26.8175 23.1924C27.0131 23.3413 27.2423 23.4398 27.485 23.4793C27.7276 23.5188 27.9762 23.4981 28.2089 23.419C28.4417 23.3398 28.6514 23.2047 28.8196 23.0255C28.9879 22.8463 29.1095 22.6284 29.1738 22.3912C29.7627 20.1939 29.5377 17.8578 28.54 15.8134C27.5424 13.769 25.8395 12.154 23.745 11.2662L29.5988 8.71993C29.8201 8.62362 30.0149 8.47534 30.1666 8.28767C30.3184 8.1 30.4226 7.87849 30.4704 7.64194C30.5183 7.40539 30.5083 7.16079 30.4415 6.9289C30.3746 6.69701 30.2528 6.48468 30.0863 6.30993V6.30868ZM8.38504 6.49993C9.19153 6.50187 9.98903 6.66928 10.7282 6.99179C11.4674 7.3143 12.1326 7.78505 12.6825 8.37493C13.2686 8.99185 13.7288 9.71702 14.0375 10.5099L6.00004 7.01243C6.74958 6.67402 7.56265 6.4993 8.38504 6.49993ZM5.54879 19.1437C5.71392 17.8681 6.25576 16.6708 7.10502 15.7049C7.95429 14.7389 9.07238 14.0483 10.3163 13.7212C10.8693 13.5743 11.4391 13.4999 12.0113 13.4999C12.304 13.4992 12.5963 13.5188 12.8863 13.5587L5.54879 19.1437ZM25.625 16.7262C26.0586 17.4686 26.3379 18.2908 26.4463 19.1437L19.125 13.5574C19.982 13.4416 20.8535 13.4973 21.6888 13.7212C22.5105 13.9381 23.2812 14.3153 23.9567 14.8309C24.6322 15.3466 25.1992 15.9907 25.625 16.7262ZM17.9625 10.5099C18.2713 9.71702 18.7315 8.99185 19.3175 8.37493C19.8675 7.78505 20.5327 7.3143 21.2719 6.99179C22.0111 6.66928 22.8086 6.50187 23.615 6.49993C24.4374 6.4993 25.2505 6.67402 26 7.01243L17.9625 10.5099Z" fill="black"/>
</svg>
