<svg width="32" height="32" viewBox="0 0 32 32" fill="none" xmlns="http://www.w3.org/2000/svg">
<path d="M28.8987 24.4386C28.8165 24.607 28.6887 24.7489 28.5298 24.8481C28.3709 24.9473 28.1873 24.9999 28 24.9999H17V29.9999C17 30.2651 16.8946 30.5195 16.7071 30.707C16.5196 30.8945 16.2652 30.9999 16 30.9999C15.7348 30.9999 15.4804 30.8945 15.2929 30.707C15.1053 30.5195 15 30.2651 15 29.9999V24.9999H3.99998C3.81286 24.9997 3.62954 24.9471 3.47085 24.848C3.31216 24.7488 3.18447 24.6071 3.10231 24.439C3.02014 24.2709 2.98679 24.0831 3.00604 23.897C3.0253 23.7109 3.09639 23.5339 3.21123 23.3861L8.96123 15.9999H5.99998C5.8132 15.9999 5.63014 15.9476 5.47155 15.8489C5.31296 15.7502 5.18518 15.6091 5.10269 15.4415C5.0202 15.2739 4.98629 15.0866 5.00481 14.9007C5.02333 14.7149 5.09354 14.5379 5.20748 14.3899L15.2075 1.38988C15.3009 1.26851 15.4209 1.17021 15.5583 1.10257C15.6957 1.03493 15.8468 0.999756 16 0.999756C16.1531 0.999756 16.3042 1.03493 16.4416 1.10257C16.579 1.17021 16.6991 1.26851 16.7925 1.38988L26.7925 14.3899C26.9064 14.5379 26.9766 14.7149 26.9952 14.9007C27.0137 15.0866 26.9798 15.2739 26.8973 15.4415C26.8148 15.6091 26.687 15.7502 26.5284 15.8489C26.3698 15.9476 26.1868 15.9999 26 15.9999H23.045L28.7887 23.3861C28.9037 23.5337 28.9749 23.7106 28.9944 23.8966C29.0138 24.0827 28.9807 24.2705 28.8987 24.4386Z" fill="black"/>
</svg>
