<svg width="32" height="32" viewBox="0 0 32 32" fill="none" xmlns="http://www.w3.org/2000/svg">
<path opacity="0.08" d="M4 24L11 15H6L16 2L26 15H21L28 24H4Z" fill="black"/>
<path d="M28.7887 23.3861L23.045 15.9999H26C26.1868 15.9999 26.3698 15.9476 26.5284 15.8489C26.687 15.7502 26.8148 15.6091 26.8973 15.4415C26.9798 15.2739 27.0137 15.0866 26.9952 14.9007C26.9766 14.7149 26.9064 14.5379 26.7925 14.3899L16.7925 1.38988C16.6991 1.26851 16.579 1.17021 16.4416 1.10257C16.3042 1.03493 16.1531 0.999756 16 0.999756C15.8468 0.999756 15.6957 1.03493 15.5583 1.10257C15.4209 1.17021 15.3009 1.26851 15.2075 1.38988L5.20748 14.3899C5.09354 14.5379 5.02333 14.7149 5.00481 14.9007C4.98629 15.0866 5.0202 15.2739 5.10269 15.4415C5.18518 15.6091 5.31296 15.7502 5.47155 15.8489C5.63014 15.9476 5.8132 15.9999 5.99998 15.9999H8.95498L3.21123 23.3861C3.09639 23.5339 3.0253 23.7109 3.00604 23.897C2.98679 24.0831 3.02014 24.2709 3.10231 24.439C3.18447 24.6071 3.31216 24.7488 3.47085 24.848C3.62954 24.9471 3.81286 24.9997 3.99998 24.9999H15V29.9999C15 30.2651 15.1053 30.5195 15.2929 30.707C15.4804 30.8945 15.7348 30.9999 16 30.9999C16.2652 30.9999 16.5196 30.8945 16.7071 30.707C16.8946 30.5195 17 30.2651 17 29.9999V24.9999H28C28.1871 24.9997 28.3704 24.9471 28.5291 24.848C28.6878 24.7488 28.8155 24.6071 28.8977 24.439C28.9798 24.2709 29.0132 24.0831 28.9939 23.897C28.9747 23.7109 28.9036 23.5339 28.7887 23.3861ZM6.04498 22.9999L11.795 15.6136C11.9102 15.4655 11.9813 15.2879 12.0003 15.1012C12.0194 14.9145 11.9855 14.7263 11.9025 14.5579C11.8196 14.3896 11.691 14.248 11.5314 14.1493C11.3718 14.0506 11.1876 13.9988 11 13.9999H8.03123L16 3.63988L23.9687 13.9999H21C20.8129 14 20.6295 14.0527 20.4708 14.1518C20.3122 14.251 20.1845 14.3926 20.1023 14.5608C20.0201 14.7289 19.9868 14.9167 20.006 15.1028C20.0253 15.2889 20.0964 15.4659 20.2112 15.6136L25.955 22.9999H6.04498Z" fill="black"/>
</svg>
