<svg width="32" height="32" viewBox="0 0 32 32" fill="none" xmlns="http://www.w3.org/2000/svg">
<path d="M28.3951 23.6926L22.0201 15.5001H26.0001C26.0935 15.5001 26.185 15.4739 26.2643 15.4246C26.3436 15.3752 26.4075 15.3047 26.4487 15.2209C26.49 15.1371 26.5069 15.0434 26.4977 14.9505C26.4884 14.8576 26.4533 14.7691 26.3963 14.6951L16.3963 1.69506C16.3496 1.63438 16.2896 1.58523 16.2209 1.55141C16.1522 1.51759 16.0766 1.5 16.0001 1.5C15.9235 1.5 15.8479 1.51759 15.7792 1.55141C15.7105 1.58523 15.6505 1.63438 15.6038 1.69506L5.60382 14.6951C5.54685 14.7691 5.51175 14.8576 5.50249 14.9505C5.49323 15.0434 5.51018 15.1371 5.55142 15.2209C5.59267 15.3047 5.65656 15.3752 5.73585 15.4246C5.81515 15.4739 5.90668 15.5001 6.00007 15.5001H9.97757L3.60257 23.6926C3.5448 23.7666 3.50906 23.8555 3.49945 23.9489C3.48984 24.0424 3.50675 24.1366 3.54823 24.2209C3.58972 24.3052 3.65411 24.3761 3.73402 24.4254C3.81393 24.4748 3.90614 24.5007 4.00007 24.5001H15.5001V30.0001C15.5001 30.1327 15.5527 30.2598 15.6465 30.3536C15.7403 30.4474 15.8675 30.5001 16.0001 30.5001C16.1327 30.5001 16.2599 30.4474 16.3536 30.3536C16.4474 30.2598 16.5001 30.1327 16.5001 30.0001V24.5001H28.0001C28.0938 24.5002 28.1857 24.474 28.2652 24.4244C28.3448 24.3749 28.4088 24.304 28.45 24.2198C28.4911 24.1356 28.5078 24.0415 28.4981 23.9483C28.4884 23.8551 28.4527 23.7665 28.3951 23.6926ZM5.02257 23.5001L11.3976 15.3076C11.4553 15.2335 11.4911 15.1446 11.5007 15.0512C11.5103 14.9578 11.4934 14.8635 11.4519 14.7792C11.4104 14.695 11.346 14.6241 11.2661 14.5747C11.1862 14.5253 11.094 14.4995 11.0001 14.5001H7.01507L16.0001 2.82006L24.9851 14.5001H21.0001C20.9063 14.4999 20.8145 14.5261 20.7349 14.5757C20.6554 14.6253 20.5914 14.6962 20.5502 14.7804C20.509 14.8645 20.4923 14.9586 20.502 15.0518C20.5117 15.145 20.5474 15.2337 20.6051 15.3076L26.9801 23.5001H5.02257Z" fill="black"/>
</svg>
