<svg width="32" height="32" viewBox="0 0 32 32" fill="none" xmlns="http://www.w3.org/2000/svg">
<path d="M30.4999 17.0001V25.0001C30.4999 25.3979 30.3419 25.7795 30.0606 26.0608C29.7793 26.3421 29.3978 26.5001 28.9999 26.5001H20.9999C20.6021 26.5001 20.2206 26.3421 19.9393 26.0608C19.658 25.7795 19.4999 25.3979 19.4999 25.0001C19.4999 24.6023 19.658 24.2207 19.9393 23.9394C20.2206 23.6581 20.6021 23.5001 20.9999 23.5001H25.3749L16.9999 15.1251L13.0612 19.0651C12.9218 19.2049 12.7563 19.3159 12.5739 19.3916C12.3916 19.4673 12.1961 19.5063 11.9987 19.5063C11.8013 19.5063 11.6058 19.4673 11.4235 19.3916C11.2411 19.3159 11.0756 19.2049 10.9362 19.0651L1.9362 10.0651C1.6544 9.78331 1.49609 9.40112 1.49609 9.0026C1.49609 8.80528 1.53496 8.60988 1.61047 8.42758C1.68599 8.24528 1.79667 8.07963 1.9362 7.9401C2.07573 7.80057 2.24137 7.68989 2.42367 7.61438C2.60598 7.53887 2.80137 7.5 2.9987 7.5C3.39721 7.5 3.7794 7.65831 4.0612 7.9401L11.9999 15.8751L15.9387 11.9351C16.0781 11.7953 16.2436 11.6843 16.426 11.6086C16.6083 11.5329 16.8038 11.4939 17.0012 11.4939C17.1986 11.4939 17.3941 11.5329 17.5764 11.6086C17.7588 11.6843 17.9243 11.7953 18.0637 11.9351L27.4999 21.3751V17.0001C27.4999 16.6023 27.658 16.2207 27.9393 15.9394C28.2206 15.6581 28.6021 15.5001 28.9999 15.5001C29.3978 15.5001 29.7793 15.6581 30.0606 15.9394C30.3419 16.2207 30.4999 16.6023 30.4999 17.0001Z" fill="black"/>
</svg>
