<svg width="32" height="32" viewBox="0 0 32 32" fill="none" xmlns="http://www.w3.org/2000/svg">
<path d="M29.4998 17V25C29.4998 25.1326 29.4471 25.2598 29.3533 25.3536C29.2596 25.4474 29.1324 25.5 28.9998 25.5H20.9998C20.8672 25.5 20.74 25.4474 20.6462 25.3536C20.5525 25.2598 20.4998 25.1326 20.4998 25C20.4998 24.8674 20.5525 24.7402 20.6462 24.6465C20.74 24.5527 20.8672 24.5 20.9998 24.5H27.7923L16.9998 13.7075L12.3535 18.3538C12.3071 18.4003 12.252 18.4372 12.1913 18.4623C12.1306 18.4875 12.0655 18.5004 11.9998 18.5004C11.9341 18.5004 11.869 18.4875 11.8083 18.4623C11.7476 18.4372 11.6925 18.4003 11.646 18.3538L2.64604 9.35378C2.59958 9.30733 2.56273 9.25218 2.53759 9.19148C2.51245 9.13079 2.49951 9.06573 2.49951 9.00003C2.49951 8.93434 2.51245 8.86928 2.53759 8.80859C2.56273 8.74789 2.59958 8.69274 2.64604 8.64628C2.73986 8.55246 2.86711 8.49976 2.99979 8.49976C3.06549 8.49976 3.13054 8.5127 3.19124 8.53784C3.25193 8.56298 3.30708 8.59983 3.35354 8.64628L11.9998 17.2925L16.646 12.6463C16.6925 12.5998 16.7476 12.5629 16.8083 12.5378C16.869 12.5126 16.9341 12.4996 16.9998 12.4996C17.0655 12.4996 17.1306 12.5126 17.1913 12.5378C17.252 12.5629 17.3071 12.5998 17.3535 12.6463L28.4998 23.7925V17C28.4998 16.8674 28.5525 16.7402 28.6462 16.6465C28.74 16.5527 28.8672 16.5 28.9998 16.5C29.1324 16.5 29.2596 16.5527 29.3533 16.6465C29.4471 16.7402 29.4998 16.8674 29.4998 17Z" fill="black"/>
</svg>
