<svg width="32" height="32" viewBox="0 0 32 32" fill="none" xmlns="http://www.w3.org/2000/svg">
<path d="M29.4998 7V15C29.4998 15.1326 29.4471 15.2598 29.3533 15.3536C29.2596 15.4473 29.1324 15.5 28.9998 15.5C28.8672 15.5 28.74 15.4473 28.6462 15.3536C28.5525 15.2598 28.4998 15.1326 28.4998 15V8.2075L17.3535 19.3538C17.3071 19.4002 17.252 19.4371 17.1913 19.4623C17.1306 19.4874 17.0655 19.5004 16.9998 19.5004C16.9341 19.5004 16.869 19.4874 16.8083 19.4623C16.7476 19.4371 16.6925 19.4002 16.646 19.3538L11.9998 14.7075L3.35354 23.3538C3.25972 23.4476 3.13247 23.5003 2.99979 23.5003C2.86711 23.5003 2.73986 23.4476 2.64604 23.3538C2.55222 23.2599 2.49951 23.1327 2.49951 23C2.49951 22.8673 2.55222 22.7401 2.64604 22.6462L11.646 13.6462C11.6925 13.5998 11.7476 13.5629 11.8083 13.5377C11.869 13.5126 11.9341 13.4996 11.9998 13.4996C12.0655 13.4996 12.1306 13.5126 12.1913 13.5377C12.252 13.5629 12.3071 13.5998 12.3535 13.6462L16.9998 18.2925L27.7923 7.5H20.9998C20.8672 7.5 20.74 7.44732 20.6462 7.35355C20.5525 7.25979 20.4998 7.13261 20.4998 7C20.4998 6.86739 20.5525 6.74021 20.6462 6.64645C20.74 6.55268 20.8672 6.5 20.9998 6.5H28.9998C29.1324 6.5 29.2596 6.55268 29.3533 6.64645C29.4471 6.74021 29.4998 6.86739 29.4998 7Z" fill="black"/>
</svg>
