<svg width="32" height="32" viewBox="0 0 32 32" fill="none" xmlns="http://www.w3.org/2000/svg">
<path d="M30.4999 7V15C30.4999 15.3978 30.3419 15.7794 30.0606 16.0607C29.7793 16.342 29.3978 16.5 28.9999 16.5C28.6021 16.5 28.2206 16.342 27.9393 16.0607C27.658 15.7794 27.4999 15.3978 27.4999 15V10.625L18.0612 20.065C17.9218 20.2048 17.7563 20.3158 17.5739 20.3915C17.3916 20.4672 17.1961 20.5062 16.9987 20.5062C16.8013 20.5062 16.6058 20.4672 16.4235 20.3915C16.2411 20.3158 16.0756 20.2048 15.9362 20.065L11.9999 16.125L4.0612 24.0613C3.7794 24.343 3.39721 24.5014 2.9987 24.5014C2.60018 24.5014 2.21799 24.343 1.9362 24.0613C1.6544 23.7795 1.49609 23.3973 1.49609 22.9988C1.49609 22.6002 1.6544 22.218 1.9362 21.9363L10.9362 12.9362C11.0756 12.7964 11.2411 12.6855 11.4235 12.6097C11.6058 12.534 11.8013 12.4951 11.9987 12.4951C12.1961 12.4951 12.3916 12.534 12.5739 12.6097C12.7563 12.6855 12.9218 12.7964 13.0612 12.9362L16.9999 16.875L25.3749 8.5H20.9999C20.6021 8.5 20.2206 8.34196 19.9393 8.06066C19.658 7.77936 19.4999 7.39782 19.4999 7C19.4999 6.60218 19.658 6.22064 19.9393 5.93934C20.2206 5.65804 20.6021 5.5 20.9999 5.5H28.9999C29.3978 5.5 29.7793 5.65804 30.0606 5.93934C30.3419 6.22064 30.4999 6.60218 30.4999 7Z" fill="black"/>
</svg>
