<svg width="32" height="32" viewBox="0 0 32 32" fill="none" xmlns="http://www.w3.org/2000/svg">
<path opacity="0.08" d="M29 17V25H21L29 17Z" fill="black"/>
<path d="M29.3826 16.0763C29.1999 16.0005 28.9988 15.9806 28.8048 16.0191C28.6107 16.0576 28.4325 16.1528 28.2926 16.2926L25.0001 19.5863L17.7076 12.2926C17.6147 12.1996 17.5044 12.1258 17.383 12.0755C17.2616 12.0252 17.1315 11.9993 17.0001 11.9993C16.8687 11.9993 16.7385 12.0252 16.6171 12.0755C16.4957 12.1258 16.3854 12.1996 16.2926 12.2926L12.0001 16.5863L3.70757 8.29257C3.51993 8.10493 3.26543 7.99951 3.00007 7.99951C2.7347 7.99951 2.48021 8.10493 2.29257 8.29257C2.10493 8.48021 1.99951 8.7347 1.99951 9.00007C1.99951 9.26543 2.10493 9.51993 2.29257 9.70757L11.2926 18.7076C11.3854 18.8005 11.4957 18.8743 11.6171 18.9246C11.7385 18.975 11.8687 19.0009 12.0001 19.0009C12.1315 19.0009 12.2616 18.975 12.383 18.9246C12.5044 18.8743 12.6147 18.8005 12.7076 18.7076L17.0001 14.4138L23.5863 21.0001L20.2926 24.2926C20.1526 24.4324 20.0572 24.6107 20.0185 24.8048C19.9799 24.9988 19.9997 25.2 20.0754 25.3829C20.1512 25.5657 20.2795 25.7219 20.4441 25.8318C20.6087 25.9417 20.8022 26.0002 21.0001 26.0001H29.0001C29.2653 26.0001 29.5196 25.8947 29.7072 25.7072C29.8947 25.5196 30.0001 25.2653 30.0001 25.0001V17.0001C30 16.8023 29.9413 16.609 29.8314 16.4445C29.7215 16.2801 29.5653 16.152 29.3826 16.0763ZM28.0001 24.0001H23.4138L28.0001 19.4138V24.0001Z" fill="black"/>
</svg>
