<svg width="32" height="32" viewBox="0 0 32 32" fill="none" xmlns="http://www.w3.org/2000/svg">
<path d="M29.5974 26.4763C29.3281 26.944 28.9392 27.3315 28.4707 27.5993C28.0021 27.867 27.4708 28.0054 26.9312 28.0001H5.06869C4.52907 28.0054 3.99774 27.867 3.52921 27.5993C3.06068 27.3315 2.67179 26.944 2.40244 26.4763C2.13961 26.0265 2.0011 25.5148 2.0011 24.9938C2.0011 24.4728 2.13961 23.9612 2.40244 23.5113L13.3312 4.52758C13.6044 4.06249 13.9943 3.67686 14.4624 3.40891C14.9305 3.14096 15.4606 3 15.9999 3C16.5393 3 17.0693 3.14096 17.5374 3.40891C18.0056 3.67686 18.3955 4.06249 18.6687 4.52758L29.5999 23.5113C29.8624 23.9614 30.0005 24.4732 30 24.9942C29.9996 25.5152 29.8606 26.0267 29.5974 26.4763Z" fill="black"/>
</svg>
