<svg width="32" height="32" viewBox="0 0 32 32" fill="none" xmlns="http://www.w3.org/2000/svg">
<path d="M29.1675 23.7613L18.235 4.77758C18.0058 4.38852 17.6791 4.066 17.2871 3.84193C16.8952 3.61786 16.4515 3.5 16 3.5C15.5484 3.5 15.1048 3.61786 14.7128 3.84193C14.3208 4.066 13.9941 4.38852 13.765 4.77758L2.83246 23.7613C2.61386 24.1351 2.49866 24.5602 2.49866 24.9932C2.49866 25.4262 2.61386 25.8513 2.83246 26.2251C3.05811 26.617 3.38413 26.9417 3.77695 27.1658C4.16978 27.3899 4.61523 27.5053 5.06746 27.5001H26.9325C27.3843 27.5049 27.8292 27.3893 28.2215 27.1652C28.6139 26.9411 28.9395 26.6166 29.165 26.2251C29.3839 25.8516 29.4996 25.4265 29.5 24.9935C29.5004 24.5606 29.3857 24.1353 29.1675 23.7613ZM28.3 25.7251C28.1611 25.9638 27.9613 26.1614 27.721 26.2976C27.4808 26.4337 27.2086 26.5036 26.9325 26.5001H5.06746C4.79129 26.5036 4.51915 26.4337 4.27887 26.2976C4.03859 26.1614 3.8388 25.9638 3.69996 25.7251C3.56798 25.5035 3.49831 25.2505 3.49831 24.9926C3.49831 24.7347 3.56798 24.4816 3.69996 24.2601L14.6312 5.27633C14.7728 5.03967 14.9733 4.84376 15.2132 4.70773C15.4531 4.5717 15.7242 4.5002 16 4.5002C16.2757 4.5002 16.5468 4.5717 16.7867 4.70773C17.0266 4.84376 17.2271 5.03967 17.3687 5.27633L28.3 24.2601C28.4319 24.4816 28.5016 24.7347 28.5016 24.9926C28.5016 25.2505 28.4319 25.5035 28.3 25.7251Z" fill="black"/>
</svg>
