<svg width="32" height="32" viewBox="0 0 32 32" fill="none" xmlns="http://www.w3.org/2000/svg">
<path d="M29.6 23.5113L18.6687 4.52758C18.3956 4.06249 18.0056 3.67686 17.5375 3.40891C17.0694 3.14096 16.5394 3 16 3C15.4606 3 14.9306 3.14096 14.4625 3.40891C13.9944 3.67686 13.6044 4.06249 13.3312 4.52758L2.4 23.5113C2.13717 23.9612 1.99866 24.4728 1.99866 24.9938C1.99866 25.5148 2.13717 26.0265 2.4 26.4763C2.66956 26.9443 3.05884 27.3321 3.52785 27.5999C3.99686 27.8677 4.5287 28.0058 5.06875 28.0001H26.9312C27.4709 28.0054 28.0022 27.867 28.4707 27.5993C28.9393 27.3315 29.3281 26.944 29.5975 26.4763C29.8607 26.0267 29.9997 25.5152 30.0001 24.9942C30.0005 24.4732 29.8624 23.9614 29.6 23.5113ZM27.8662 25.4751C27.771 25.6376 27.6341 25.7719 27.4698 25.8642C27.3055 25.9564 27.1197 26.0033 26.9312 26.0001H5.06875C4.88034 26.0033 4.69446 25.9564 4.53016 25.8642C4.36586 25.7719 4.22904 25.6376 4.13375 25.4751C4.04743 25.3289 4.00189 25.1623 4.00189 24.9926C4.00189 24.8228 4.04743 24.6562 4.13375 24.5101L15.065 5.52633C15.1622 5.36455 15.2997 5.23068 15.4639 5.13774C15.6282 5.04479 15.8138 4.99595 16.0025 4.99595C16.1912 4.99595 16.3768 5.04479 16.5411 5.13774C16.7053 5.23068 16.8428 5.36455 16.94 5.52633L27.8712 24.5101C27.9568 24.6567 28.0015 24.8235 28.0006 24.9933C27.9997 25.163 27.9533 25.3294 27.8662 25.4751Z" fill="black"/>
</svg>
