<svg width="32" height="32" viewBox="0 0 32 32" fill="none" xmlns="http://www.w3.org/2000/svg">
<path d="M30.0326 23.2624L19.1013 4.27864C18.7847 3.73716 18.3318 3.28801 17.7877 2.97588C17.2436 2.66375 16.6273 2.49951 16.0001 2.49951C15.3728 2.49951 14.7565 2.66375 14.2124 2.97588C13.6683 3.28801 13.2154 3.73716 12.8988 4.27864L1.96755 23.2624C1.66033 23.7879 1.49841 24.3856 1.49841 24.9943C1.49841 25.603 1.66033 26.2007 1.96755 26.7261C2.28067 27.2703 2.73292 27.7214 3.27791 28.0331C3.8229 28.3448 4.441 28.5059 5.0688 28.4999H26.9313C27.5587 28.5055 28.1763 28.3442 28.7208 28.0325C29.2653 27.7208 29.7172 27.27 30.0301 26.7261C30.3377 26.2009 30.5 25.6033 30.5004 24.9946C30.5009 24.3859 30.3394 23.7881 30.0326 23.2624ZM27.4326 25.2249C27.3817 25.3115 27.3084 25.3828 27.2204 25.4312C27.1324 25.4796 27.0329 25.5033 26.9326 25.4999H5.0688C4.96842 25.5033 4.86896 25.4796 4.78095 25.4312C4.69294 25.3828 4.61964 25.3115 4.5688 25.2249C4.52568 25.1548 4.50285 25.0741 4.50285 24.9918C4.50285 24.9095 4.52568 24.8288 4.5688 24.7586L15.5001 5.77489C15.5538 5.69102 15.6277 5.62201 15.7151 5.57421C15.8025 5.52641 15.9005 5.50136 16.0001 5.50136C16.0997 5.50136 16.1976 5.52641 16.285 5.57421C16.3724 5.62201 16.4463 5.69102 16.5001 5.77489L27.4313 24.7586C27.4746 24.8286 27.4977 24.9093 27.4979 24.9916C27.4981 25.0739 27.4755 25.1547 27.4326 25.2249Z" fill="black"/>
</svg>
