<svg width="32" height="32" viewBox="0 0 32 32" fill="none" xmlns="http://www.w3.org/2000/svg">
<path d="M31.3925 14.4425L29.6425 10.0675C29.458 9.60344 29.1379 9.20571 28.7241 8.92612C28.3103 8.64654 27.8219 8.49805 27.3225 8.5H23.5V8C23.5 7.60218 23.342 7.22064 23.0607 6.93934C22.7794 6.65804 22.3978 6.5 22 6.5H3C2.6717 6.5 2.34661 6.56466 2.04329 6.6903C1.73998 6.81594 1.46438 7.00009 1.23223 7.23223C0.763392 7.70107 0.5 8.33696 0.5 9V23C0.5 23.663 0.763392 24.2989 1.23223 24.7678C1.46438 24.9999 1.73998 25.1841 2.04329 25.3097C2.34661 25.4353 2.6717 25.5 3 25.5H4.7575C5.06775 26.3773 5.64232 27.1368 6.4021 27.674C7.16187 28.2111 8.0695 28.4996 9 28.4996C9.9305 28.4996 10.8381 28.2111 11.5979 27.674C12.3577 27.1368 12.9323 26.3773 13.2425 25.5H18.7575C19.0677 26.3773 19.6423 27.1368 20.4021 27.674C21.1619 28.2111 22.0695 28.4996 23 28.4996C23.9305 28.4996 24.8381 28.2111 25.5979 27.674C26.3577 27.1368 26.9323 26.3773 27.2425 25.5H29C29.663 25.5 30.2989 25.2366 30.7678 24.7678C31.2366 24.2989 31.5 23.663 31.5 23V15C31.4838 14.8109 31.4477 14.6241 31.3925 14.4425ZM23.5 11.5H26.985L27.785 13.5H23.5V11.5ZM9 25.5C8.70333 25.5 8.41332 25.412 8.16665 25.2472C7.91997 25.0824 7.72771 24.8481 7.61418 24.574C7.50065 24.2999 7.47094 23.9983 7.52882 23.7074C7.5867 23.4164 7.72956 23.1491 7.93934 22.9393C8.14912 22.7296 8.41639 22.5867 8.70736 22.5288C8.99834 22.4709 9.29994 22.5007 9.57403 22.6142C9.84811 22.7277 10.0824 22.92 10.2472 23.1666C10.412 23.4133 10.5 23.7033 10.5 24C10.5 24.3978 10.342 24.7794 10.0607 25.0607C9.77936 25.342 9.39782 25.5 9 25.5ZM20.5 20.26C19.6947 20.8013 19.084 21.5863 18.7575 22.5H13.2425C12.9323 21.6227 12.3577 20.8632 11.5979 20.326C10.8381 19.7889 9.9305 19.5004 9 19.5004C8.0695 19.5004 7.16187 19.7889 6.4021 20.326C5.64232 20.8632 5.06775 21.6227 4.7575 22.5H3.5V17.5H20.5V20.26ZM20.5 14.5H3.5V9.5H20.5V14.5ZM23 25.5C22.7033 25.5 22.4133 25.412 22.1666 25.2472C21.92 25.0824 21.7277 24.8481 21.6142 24.574C21.5007 24.2999 21.4709 23.9983 21.5288 23.7074C21.5867 23.4164 21.7296 23.1491 21.9393 22.9393C22.1491 22.7296 22.4164 22.5867 22.7074 22.5288C22.9983 22.4709 23.2999 22.5007 23.574 22.6142C23.8481 22.7277 24.0824 22.92 24.2472 23.1666C24.412 23.4133 24.5 23.7033 24.5 24C24.5 24.3978 24.342 24.7794 24.0607 25.0607C23.7794 25.342 23.3978 25.5 23 25.5ZM28.5 22.5H27.2425C26.9595 21.704 26.4586 21.0035 25.797 20.4782C25.1353 19.9528 24.3394 19.6239 23.5 19.5287V16.5H28.5V22.5Z" fill="black"/>
</svg>
