<svg width="32" height="32" viewBox="0 0 32 32" fill="none" xmlns="http://www.w3.org/2000/svg">
<path d="M30.7721 7.23751L24.7621 3.70626C24.5315 3.57027 24.2685 3.49901 24.0008 3.50001H20.0008C19.603 3.50001 19.2215 3.65805 18.9402 3.93935C18.6588 4.22065 18.5008 4.60219 18.5008 5.00001C18.5008 5.66305 18.2374 6.29894 17.7686 6.76778C17.2997 7.23662 16.6639 7.50001 16.0008 7.50001C15.3378 7.50001 14.7019 7.23662 14.233 6.76778C13.7642 6.29894 13.5008 5.66305 13.5008 5.00001C13.5008 4.60219 13.3428 4.22065 13.0615 3.93935C12.7802 3.65805 12.3986 3.50001 12.0008 3.50001H8.00081C7.73386 3.49984 7.47178 3.57151 7.24206 3.70751L1.22956 7.23751C0.688241 7.56065 0.287539 8.07477 0.106385 8.67862C-0.0747687 9.28247 -0.0232432 9.93226 0.250813 10.5L2.48831 15.1C2.68781 15.5199 3.00254 15.8744 3.39581 16.1223C3.78908 16.3702 4.2447 16.5012 4.70956 16.5H6.50081V26C6.50081 26.6631 6.7642 27.2989 7.23305 27.7678C7.70189 28.2366 8.33777 28.5 9.00081 28.5H23.0008C23.6639 28.5 24.2997 28.2366 24.7686 27.7678C25.2374 27.2989 25.5008 26.6631 25.5008 26V16.5H27.2908C27.7548 16.5007 28.2095 16.3699 28.6022 16.1228C28.9948 15.8757 29.3095 15.5224 29.5096 15.1038L31.7508 10.5C32.0249 9.93226 32.0764 9.28247 31.8952 8.67862C31.7141 8.07477 31.3134 7.56065 30.7721 7.23751ZM5.04706 13.5L3.14581 9.59126L6.50081 7.62501V13.5H5.04706ZM22.5008 25.5H9.50081V6.50001H10.7096C11.0355 7.6526 11.7287 8.6673 12.684 9.38991C13.6392 10.1125 14.8043 10.5035 16.0021 10.5035C17.1998 10.5035 18.3649 10.1125 19.3201 9.38991C20.2754 8.6673 20.9687 7.6526 21.2946 6.50001H22.5008V25.5ZM26.9533 13.5H25.5008V7.62501L28.8546 9.59501L26.9533 13.5Z" fill="black"/>
</svg>
