<svg width="32" height="32" viewBox="0 0 32 32" fill="none" xmlns="http://www.w3.org/2000/svg">
<path d="M26 3.5H6C5.33696 3.5 4.70107 3.76339 4.23223 4.23223C3.76339 4.70107 3.5 5.33696 3.5 6V24C3.5 24.663 3.76339 25.2989 4.23223 25.7678C4.70107 26.2366 5.33696 26.5 6 26.5H7.5V30C7.50001 30.2851 7.58125 30.5642 7.73421 30.8048C7.88716 31.0453 8.10549 31.2373 8.36363 31.3583C8.62177 31.4792 8.90903 31.5241 9.19175 31.4876C9.47448 31.4512 9.74096 31.3349 9.96 31.1525L15.5425 26.5H20.6375C21.2226 26.4994 21.789 26.2942 22.2388 25.92L27.6 21.4525C27.8822 21.2182 28.1092 20.9246 28.2647 20.5925C28.4203 20.2604 28.5007 19.898 28.5 19.5312V6C28.5 5.33696 28.2366 4.70107 27.7678 4.23223C27.2989 3.76339 26.663 3.5 26 3.5ZM25.5 19.2975L20.4575 23.5H15.3625C14.7774 23.5006 14.211 23.7058 13.7612 24.08L10.5 26.7975V25C10.5 24.6022 10.342 24.2206 10.0607 23.9393C9.77936 23.658 9.39782 23.5 9 23.5H6.5V6.5H25.5V19.2975ZM19.5 17V11C19.5 10.6022 19.658 10.2206 19.9393 9.93934C20.2206 9.65804 20.6022 9.5 21 9.5C21.3978 9.5 21.7794 9.65804 22.0607 9.93934C22.342 10.2206 22.5 10.6022 22.5 11V17C22.5 17.3978 22.342 17.7794 22.0607 18.0607C21.7794 18.342 21.3978 18.5 21 18.5C20.6022 18.5 20.2206 18.342 19.9393 18.0607C19.658 17.7794 19.5 17.3978 19.5 17ZM13.5 17V11C13.5 10.6022 13.658 10.2206 13.9393 9.93934C14.2206 9.65804 14.6022 9.5 15 9.5C15.3978 9.5 15.7794 9.65804 16.0607 9.93934C16.342 10.2206 16.5 10.6022 16.5 11V17C16.5 17.3978 16.342 17.7794 16.0607 18.0607C15.7794 18.342 15.3978 18.5 15 18.5C14.6022 18.5 14.2206 18.342 13.9393 18.0607C13.658 17.7794 13.5 17.3978 13.5 17Z" fill="black"/>
</svg>
