<svg width="32" height="32" viewBox="0 0 32 32" fill="none" xmlns="http://www.w3.org/2000/svg">
<path d="M29.7501 15.8487C29.5258 13.2779 28.5853 10.8213 27.0354 8.75797C25.4855 6.6946 23.3882 5.10703 20.9816 4.17544C18.575 3.24385 15.9554 3.00554 13.4202 3.48758C10.8849 3.96961 8.5356 5.15267 6.6388 6.9025C4.1062 9.22831 2.54167 12.4221 2.2563 15.8487C2.23534 16.0904 2.26485 16.3338 2.34296 16.5635C2.42107 16.7932 2.54608 17.0041 2.71005 17.1829C2.87402 17.3616 3.07337 17.5044 3.29545 17.602C3.51752 17.6996 3.75747 17.75 4.00005 17.75H15.2501V25C15.2501 25.9946 15.6451 26.9484 16.3484 27.6516C17.0517 28.3549 18.0055 28.75 19.0001 28.75C19.9946 28.75 20.9484 28.3549 21.6517 27.6516C22.355 26.9484 22.7501 25.9946 22.7501 25C22.7501 24.8011 22.671 24.6103 22.5304 24.4697C22.3897 24.329 22.199 24.25 22.0001 24.25C21.8011 24.25 21.6104 24.329 21.4697 24.4697C21.3291 24.6103 21.2501 24.8011 21.2501 25C21.2501 25.5967 21.013 26.169 20.591 26.591C20.1691 27.0129 19.5968 27.25 19.0001 27.25C18.4033 27.25 17.831 27.0129 17.4091 26.591C16.9871 26.169 16.7501 25.5967 16.7501 25V17.75H28.0001C28.2432 17.7509 28.4838 17.7012 28.7066 17.6039C28.9294 17.5067 29.1296 17.364 29.2942 17.1852C29.4588 17.0063 29.5844 16.7951 29.6629 16.565C29.7414 16.3349 29.7711 16.091 29.7501 15.8487ZM28.1888 16.1687C28.1649 16.1949 28.1357 16.2157 28.1032 16.2297C28.0706 16.2437 28.0355 16.2506 28.0001 16.25H4.00005C3.96505 16.2502 3.93039 16.2431 3.8983 16.2291C3.86622 16.2152 3.83743 16.1946 3.8138 16.1687C3.78955 16.1428 3.77109 16.112 3.75967 16.0784C3.74824 16.0448 3.74411 16.0091 3.74755 15.9737C3.9489 13.6832 4.78805 11.495 6.16983 9.65717C7.55162 7.81934 9.42075 6.40549 11.5652 5.57596C13.7097 4.74644 16.0437 4.53443 18.3026 4.96399C20.5615 5.39354 22.6547 6.44747 24.3451 8.00625C26.6016 10.0771 27.9957 12.9216 28.2501 15.9737C28.2533 16.0092 28.249 16.0449 28.2374 16.0785C28.2257 16.1122 28.207 16.1429 28.1826 16.1687H28.1888Z" fill="black"/>
</svg>
