<svg width="32" height="32" viewBox="0 0 32 32" fill="none" xmlns="http://www.w3.org/2000/svg">
<path d="M29.5001 15.8751C29.2802 13.3506 28.357 10.9384 26.8354 8.91213C25.3138 6.88584 23.2547 5.32665 20.8917 4.41148C18.5288 3.49631 15.9566 3.26182 13.4671 3.73462C10.9776 4.20742 8.67051 5.36858 6.80759 7.08631C4.31825 9.37044 2.78037 12.5082 2.50009 15.8751C2.48276 16.0823 2.50871 16.2909 2.57629 16.4875C2.64387 16.6842 2.75161 16.8647 2.89267 17.0175C3.03372 17.1703 3.20501 17.2921 3.39565 17.3752C3.5863 17.4583 3.79213 17.5008 4.00009 17.5001H15.5001V25.0001C15.5001 25.9283 15.8688 26.8186 16.5252 27.4749C17.1816 28.1313 18.0718 28.5001 19.0001 28.5001C19.9283 28.5001 20.8186 28.1313 21.475 27.4749C22.1313 26.8186 22.5001 25.9283 22.5001 25.0001C22.5001 24.8675 22.4474 24.7403 22.3536 24.6465C22.2599 24.5527 22.1327 24.5001 22.0001 24.5001C21.8675 24.5001 21.7403 24.5527 21.6465 24.6465C21.5528 24.7403 21.5001 24.8675 21.5001 25.0001C21.5001 25.6631 21.2367 26.299 20.7679 26.7678C20.299 27.2367 19.6631 27.5001 19.0001 27.5001C18.3371 27.5001 17.7012 27.2367 17.2323 26.7678C16.7635 26.299 16.5001 25.6631 16.5001 25.0001V17.5001H28.0001C28.208 17.5008 28.4139 17.4583 28.6045 17.3752C28.7952 17.2921 28.9665 17.1703 29.1075 17.0175C29.2486 16.8647 29.3563 16.6842 29.4239 16.4875C29.4915 16.2909 29.5174 16.0823 29.5001 15.8751ZM4.00009 16.5001C3.93023 16.5004 3.86109 16.4861 3.79711 16.458C3.73313 16.43 3.67573 16.3888 3.62862 16.3372C3.58152 16.2857 3.54574 16.2248 3.5236 16.1585C3.50146 16.0923 3.49345 16.0221 3.50009 15.9526C3.75053 13.0453 5.00821 10.3167 7.05601 8.23787C9.1038 6.15904 11.8132 4.86046 14.7163 4.56631C13.2501 6.22006 10.6351 10.0563 10.5001 16.5001H4.00009ZM11.5001 16.5001C11.6513 9.50006 14.9501 5.70381 15.9926 4.67881C17.0438 5.70506 20.3413 9.50006 20.4926 16.5001H11.5001ZM28.3588 16.3376C28.3113 16.3895 28.2533 16.4309 28.1887 16.4589C28.1241 16.4869 28.0543 16.5009 27.9838 16.5001H21.5001C21.3751 10.0563 18.7501 6.22006 17.2876 4.56631C20.1901 4.86128 22.8986 6.16022 24.9456 8.23898C26.9926 10.3177 28.2498 13.0459 28.5001 15.9526C28.5061 16.0225 28.4973 16.093 28.4742 16.1593C28.4512 16.2256 28.4144 16.2864 28.3663 16.3376H28.3588Z" fill="black"/>
</svg>
