<svg width="32" height="32" viewBox="0 0 32 32" fill="none" xmlns="http://www.w3.org/2000/svg">
<path d="M29.5001 15.8751C29.2802 13.3506 28.357 10.9384 26.8354 8.91213C25.3138 6.88584 23.2547 5.32665 20.8917 4.41148C18.5288 3.49631 15.9566 3.26182 13.4671 3.73462C10.9776 4.20742 8.67051 5.36858 6.80759 7.08631C4.31825 9.37044 2.78037 12.5082 2.50009 15.8751C2.48276 16.0823 2.50871 16.2909 2.57629 16.4875C2.64387 16.6842 2.75161 16.8647 2.89267 17.0175C3.03372 17.1703 3.20501 17.2921 3.39565 17.3752C3.5863 17.4583 3.79213 17.5008 4.00009 17.5001H15.5001V25.0001C15.5001 25.9283 15.8688 26.8186 16.5252 27.4749C17.1816 28.1313 18.0718 28.5001 19.0001 28.5001C19.9283 28.5001 20.8186 28.1313 21.475 27.4749C22.1313 26.8186 22.5001 25.9283 22.5001 25.0001C22.5001 24.8675 22.4474 24.7403 22.3536 24.6465C22.2599 24.5527 22.1327 24.5001 22.0001 24.5001C21.8675 24.5001 21.7403 24.5527 21.6465 24.6465C21.5528 24.7403 21.5001 24.8675 21.5001 25.0001C21.5001 25.6631 21.2367 26.299 20.7679 26.7678C20.299 27.2367 19.6631 27.5001 19.0001 27.5001C18.3371 27.5001 17.7012 27.2367 17.2323 26.7678C16.7635 26.299 16.5001 25.6631 16.5001 25.0001V17.5001H28.0001C28.208 17.5008 28.4139 17.4583 28.6045 17.3752C28.7952 17.2921 28.9665 17.1703 29.1075 17.0175C29.2486 16.8647 29.3563 16.6842 29.4239 16.4875C29.4915 16.2909 29.5174 16.0823 29.5001 15.8751ZM28.3751 16.3426C28.3276 16.3945 28.2696 16.4359 28.205 16.4639C28.1403 16.4919 28.0705 16.5059 28.0001 16.5051H4.00009C3.93023 16.5054 3.86109 16.4911 3.79711 16.463C3.73313 16.435 3.67573 16.3938 3.62862 16.3422C3.58152 16.2907 3.54574 16.2298 3.5236 16.1635C3.50146 16.0973 3.49345 16.0271 3.50009 15.9576C3.70676 13.6216 4.56362 11.3902 5.97357 9.51624C7.38352 7.64231 9.29017 6.20078 11.4775 5.35501C13.6648 4.50924 16.0452 4.29305 18.3491 4.73094C20.653 5.16883 22.7881 6.24329 24.5126 7.83256C26.8138 9.94464 28.2363 12.845 28.4976 15.9576C28.5032 16.0265 28.4944 16.0959 28.4718 16.1613C28.4492 16.2267 28.4133 16.2868 28.3663 16.3376L28.3751 16.3426Z" fill="black"/>
</svg>
