<svg width="32" height="32" viewBox="0 0 32 32" fill="none" xmlns="http://www.w3.org/2000/svg">
<path d="M30.4913 15.7876C30.2554 13.0768 29.2642 10.4865 27.6304 8.31059C25.9966 6.13471 23.7855 4.46042 21.2481 3.47778C18.7108 2.49513 15.9487 2.2435 13.2756 2.75143C10.6024 3.25936 8.12515 4.50651 6.12502 6.35132C3.4522 8.80369 1.80096 12.1727 1.50002 15.7876C1.47052 16.1333 1.51332 16.4814 1.62568 16.8097C1.73804 17.1379 1.91751 17.4392 2.15266 17.6944C2.38781 17.9495 2.6735 18.1529 2.99155 18.2916C3.3096 18.4303 3.65304 18.5013 4.00002 18.5001H14.5V25.0001C14.5 26.1935 14.9741 27.3381 15.818 28.1821C16.662 29.026 17.8065 29.5001 19 29.5001C20.1935 29.5001 21.3381 29.026 22.182 28.1821C23.0259 27.3381 23.5 26.1935 23.5 25.0001C23.5 24.6022 23.342 24.2207 23.0607 23.9394C22.7794 23.6581 22.3978 23.5001 22 23.5001C21.6022 23.5001 21.2207 23.6581 20.9394 23.9394C20.6581 24.2207 20.5 24.6022 20.5 25.0001C20.5 25.3979 20.342 25.7794 20.0607 26.0607C19.7794 26.342 19.3978 26.5001 19 26.5001C18.6022 26.5001 18.2207 26.342 17.9394 26.0607C17.6581 25.7794 17.5 25.3979 17.5 25.0001V18.5001H28C28.347 18.5013 28.6904 18.4303 29.0085 18.2916C29.3265 18.1529 29.6122 17.9495 29.8474 17.6944C30.0825 17.4392 30.262 17.1379 30.3744 16.8097C30.4867 16.4814 30.5295 16.1333 30.5 15.7876H30.4913ZM4.55502 15.5001C4.83957 13.4067 5.69253 11.4314 7.02117 9.78882C8.34981 8.14628 10.1033 6.89939 12.091 6.18368C14.0787 5.46798 16.2246 5.31085 18.2954 5.72938C20.3661 6.14791 22.2825 7.12609 23.8363 8.55757C25.8174 10.3759 27.0951 12.8338 27.445 15.5001H4.55502Z" fill="black"/>
</svg>
