<svg width="32" height="32" viewBox="0 0 32 32" fill="none" xmlns="http://www.w3.org/2000/svg">
<path d="M21.6138 10.3864C21.3178 8.62038 20.5412 6.96995 19.3691 5.61616C18.197 4.26237 16.6747 3.25752 14.9692 2.71182C13.2637 2.16611 11.4408 2.10064 9.70056 2.52257C7.9603 2.94451 6.36984 3.83755 5.10363 5.10376C3.83743 6.36996 2.94438 7.96042 2.52245 9.70068C2.10052 11.441 2.16599 13.2638 2.71169 14.9693C3.2574 16.6748 4.26225 18.1971 5.61604 19.3692C6.96982 20.5413 8.62025 21.3179 10.3863 21.6139C10.6823 23.38 11.4589 25.0304 12.631 26.3842C13.8031 27.738 15.3254 28.7428 17.0309 29.2885C18.7364 29.8342 20.5593 29.8997 22.2996 29.4778C24.0398 29.0559 25.6303 28.1628 26.8965 26.8966C28.1627 25.6304 29.0557 24.0399 29.4777 22.2997C29.8996 20.5594 29.8341 18.7366 29.2884 17.031C28.7427 15.3255 27.7379 13.8032 26.3841 12.6312C25.0303 11.4591 23.3799 10.6824 21.6138 10.3864ZM28.2501 20.0002C28.2496 20.3723 28.2237 20.744 28.1726 21.1127L21.4526 14.3914C21.6504 13.6098 21.7504 12.8065 21.7501 12.0002C21.7501 11.9789 21.7501 11.9589 21.7501 11.9389C23.59 12.3407 25.2375 13.3589 26.4196 14.8249C27.6017 16.291 28.2475 18.1169 28.2501 20.0002ZM5.66381 6.72393L12.6013 13.6614C11.9891 14.3764 11.4838 15.1764 11.1013 16.0364L4.25006 9.18518C4.57558 8.28925 5.05391 7.45651 5.66381 6.72393ZM16.7788 18.7239L13.2788 15.2239C13.8135 14.4742 14.4691 13.8186 15.2188 13.2839L18.7188 16.7839C18.1837 17.5318 17.5281 18.1857 16.7788 18.7189V18.7239ZM20.2501 12.0002C20.2515 13.1864 19.9956 14.3587 19.5001 15.4364L16.5638 12.5002C17.6415 12.0047 18.8139 11.7488 20.0001 11.7502C20.0813 11.7502 20.1626 11.7502 20.2438 11.7502C20.2501 11.8377 20.2501 11.9189 20.2501 12.0002ZM13.6613 12.6014L6.72381 5.66393C7.45639 5.05403 8.28913 4.5757 9.18506 4.25018L16.0351 11.1014C15.1755 11.4841 14.3759 11.9893 13.6613 12.6014ZM11.7501 20.0002C11.7487 18.814 12.0045 17.6416 12.5001 16.5639L15.4363 19.5002C14.3586 19.9957 13.1862 20.2516 12.0001 20.2502C11.9188 20.2502 11.8376 20.2502 11.7501 20.2439C11.7501 20.1627 11.7501 20.0814 11.7501 20.0002ZM18.3388 19.3989L25.2763 26.3364C24.5437 26.9463 23.711 27.4247 22.8151 27.7502L15.9651 20.8989C16.8247 20.5163 17.6242 20.011 18.3388 19.3989ZM19.3988 18.3389C20.011 17.624 20.5163 16.824 20.8988 15.9639L27.7501 22.8152C27.423 23.7115 26.943 24.5442 26.3313 25.2764L19.3988 18.3389ZM20.0613 10.2514H20.0001C19.1937 10.2511 18.3905 10.3511 17.6088 10.5489L10.8876 3.82768C11.2562 3.77652 11.6279 3.75062 12.0001 3.75018C13.8833 3.75271 15.7092 4.39852 17.1753 5.58064C18.6413 6.76276 19.6596 8.41025 20.0613 10.2502V10.2514ZM3.75006 12.0002C3.7505 11.628 3.7764 11.2563 3.82756 10.8877L10.5476 17.6089C10.3497 18.3906 10.2498 19.1938 10.2501 20.0002C10.2501 20.0214 10.2501 20.0414 10.2501 20.0614C8.41013 19.6597 6.76264 18.6415 5.58052 17.1754C4.3984 15.7094 3.75258 13.8835 3.75006 12.0002ZM11.9388 21.7502H12.0001C12.8064 21.7505 13.6096 21.6505 14.3913 21.4527L21.1126 28.1727C20.7439 28.2238 20.3722 28.2497 20.0001 28.2502C18.1168 28.2477 16.2909 27.6018 14.8248 26.4197C13.3588 25.2376 12.3405 23.5901 11.9388 21.7502Z" fill="black"/>
</svg>
