<svg width="32" height="32" viewBox="0 0 32 32" fill="none" xmlns="http://www.w3.org/2000/svg">
<path d="M23.5 23.0002C23.1044 23.0002 22.7178 22.8829 22.3889 22.6631C22.06 22.4434 21.8036 22.131 21.6522 21.7656C21.5009 21.4001 21.4613 20.998 21.5384 20.61C21.6156 20.2221 21.8061 19.8657 22.0858 19.586C22.3655 19.3063 22.7219 19.1158 23.1098 19.0386C23.4978 18.9615 23.8999 19.0011 24.2654 19.1524C24.6308 19.3038 24.9432 19.5602 25.1629 19.8891C25.3827 20.218 25.5 20.6046 25.5 21.0002C25.5 21.5306 25.2893 22.0393 24.9142 22.4144C24.5391 22.7895 24.0304 23.0002 23.5 23.0002ZM28 14.5002H22.5C22.1022 14.5002 21.7206 14.6582 21.4393 14.9395C21.158 15.2208 21 15.6024 21 16.0002C21 16.398 21.158 16.7796 21.4393 17.0609C21.7206 17.3422 22.1022 17.5002 22.5 17.5002H27.5V24.5002H4.5V17.5002H9.5C9.89782 17.5002 10.2794 17.3422 10.5607 17.0609C10.842 16.7796 11 16.398 11 16.0002C11 15.6024 10.842 15.2208 10.5607 14.9395C10.2794 14.6582 9.89782 14.5002 9.5 14.5002H4C3.33696 14.5002 2.70107 14.7636 2.23223 15.2324C1.76339 15.7013 1.5 16.3372 1.5 17.0002V25.0002C1.5 25.6632 1.76339 26.2991 2.23223 26.768C2.70107 27.2368 3.33696 27.5002 4 27.5002H28C28.663 27.5002 29.2989 27.2368 29.7678 26.768C30.2366 26.2991 30.5 25.6632 30.5 25.0002V17.0002C30.5 16.3372 30.2366 15.7013 29.7678 15.2324C29.2989 14.7636 28.663 14.5002 28 14.5002ZM11.0612 10.0615L14.5 6.62521V16.0002C14.5 16.398 14.658 16.7796 14.9393 17.0609C15.2206 17.3422 15.6022 17.5002 16 17.5002C16.3978 17.5002 16.7794 17.3422 17.0607 17.0609C17.342 16.7796 17.5 16.398 17.5 16.0002V6.62521L20.9387 10.0652C21.0783 10.2047 21.2439 10.3154 21.4262 10.3909C21.6085 10.4664 21.8039 10.5053 22.0012 10.5053C22.1986 10.5053 22.394 10.4664 22.5763 10.3909C22.7586 10.3154 22.9242 10.2047 23.0637 10.0652C23.2033 9.92568 23.314 9.76003 23.3895 9.57773C23.465 9.39542 23.5039 9.20003 23.5039 9.00271C23.5039 8.80538 23.465 8.60999 23.3895 8.42768C23.314 8.24538 23.2033 8.07974 23.0637 7.94021L17.0637 1.94021C16.9244 1.80037 16.7588 1.68941 16.5765 1.6137C16.3941 1.53799 16.1987 1.49902 16.0012 1.49902C15.8038 1.49902 15.6083 1.53799 15.426 1.6137C15.2437 1.68941 15.0781 1.80037 14.9388 1.94021L8.93875 7.94021C8.79922 8.07974 8.68854 8.24538 8.61303 8.42768C8.53751 8.60999 8.49865 8.80538 8.49865 9.00271C8.49865 9.40122 8.65696 9.78341 8.93875 10.0652C9.22054 10.347 9.60274 10.5053 10.0013 10.5053C10.3998 10.5053 10.782 10.347 11.0638 10.0652L11.0612 10.0615Z" fill="black"/>
</svg>
