<svg width="32" height="32" viewBox="0 0 32 32" fill="none" xmlns="http://www.w3.org/2000/svg">
<path d="M27.75 18.9998V25.9998C27.75 26.464 27.5656 26.9091 27.2374 27.2373C26.9092 27.5655 26.4641 27.7498 26 27.7498H6C5.53587 27.7498 5.09075 27.5655 4.76256 27.2373C4.43437 26.9091 4.25 26.464 4.25 25.9998V18.9998C4.25 18.8009 4.32902 18.6102 4.46967 18.4695C4.61032 18.3288 4.80109 18.2498 5 18.2498C5.19891 18.2498 5.38968 18.3288 5.53033 18.4695C5.67098 18.6102 5.75 18.8009 5.75 18.9998V25.9998C5.75 26.0661 5.77634 26.1297 5.82322 26.1766C5.87011 26.2235 5.9337 26.2498 6 26.2498H26C26.0663 26.2498 26.1299 26.2235 26.1768 26.1766C26.2237 26.1297 26.25 26.0661 26.25 25.9998V18.9998C26.25 18.8009 26.329 18.6102 26.4697 18.4695C26.6103 18.3288 26.8011 18.2498 27 18.2498C27.1989 18.2498 27.3897 18.3288 27.5303 18.4695C27.671 18.6102 27.75 18.8009 27.75 18.9998ZM11.53 10.5298L15.25 6.81108V18.9998C15.25 19.1987 15.329 19.3895 15.4697 19.5302C15.6103 19.6708 15.8011 19.7498 16 19.7498C16.1989 19.7498 16.3897 19.6708 16.5303 19.5302C16.671 19.3895 16.75 19.1987 16.75 18.9998V6.81108L20.47 10.5298C20.6122 10.6623 20.8002 10.7344 20.9945 10.731C21.1888 10.7276 21.3742 10.6489 21.5116 10.5114C21.649 10.374 21.7277 10.1887 21.7312 9.99435C21.7346 9.80005 21.6625 9.612 21.53 9.46983L16.53 4.46983C16.3894 4.32938 16.1988 4.25049 16 4.25049C15.8012 4.25049 15.6106 4.32938 15.47 4.46983L10.47 9.46983C10.3375 9.612 10.2654 9.80005 10.2688 9.99435C10.2723 10.1887 10.351 10.374 10.4884 10.5114C10.6258 10.6489 10.8112 10.7276 11.0055 10.731C11.1998 10.7344 11.3878 10.6623 11.53 10.5298Z" fill="black"/>
</svg>
