<svg width="32" height="32" viewBox="0 0 32 32" fill="none" xmlns="http://www.w3.org/2000/svg">
<path d="M28.5 19.0002V26.0002C28.5 26.6632 28.2366 27.2991 27.7678 27.768C27.2989 28.2368 26.663 28.5002 26 28.5002H6C5.33696 28.5002 4.70107 28.2368 4.23223 27.768C3.76339 27.2991 3.5 26.6632 3.5 26.0002V19.0002C3.5 18.6024 3.65804 18.2209 3.93934 17.9395C4.22064 17.6582 4.60218 17.5002 5 17.5002C5.39782 17.5002 5.77936 17.6582 6.06066 17.9395C6.34196 18.2209 6.5 18.6024 6.5 19.0002V25.5002H25.5V19.0002C25.5 18.6024 25.658 18.2209 25.9393 17.9395C26.2206 17.6582 26.6022 17.5002 27 17.5002C27.3978 17.5002 27.7794 17.6582 28.0607 17.9395C28.342 18.2209 28.5 18.6024 28.5 19.0002ZM12.0612 11.0615L14.5 8.62521V19.0002C14.5 19.398 14.658 19.7796 14.9393 20.0609C15.2206 20.3422 15.6022 20.5002 16 20.5002C16.3978 20.5002 16.7794 20.3422 17.0607 20.0609C17.342 19.7796 17.5 19.398 17.5 19.0002V8.62521L19.9387 11.0652C20.2205 11.347 20.6027 11.5053 21.0012 11.5053C21.3998 11.5053 21.782 11.347 22.0637 11.0652C22.3455 10.7834 22.5039 10.4012 22.5039 10.0027C22.5039 9.60419 22.3455 9.222 22.0637 8.94021L17.0637 3.94021C16.9244 3.80037 16.7588 3.68941 16.5765 3.6137C16.3941 3.53799 16.1987 3.49902 16.0012 3.49902C15.8038 3.49902 15.6083 3.53799 15.426 3.6137C15.2437 3.68941 15.0781 3.80037 14.9388 3.94021L9.93875 8.94021C9.79922 9.07974 9.68854 9.24538 9.61303 9.42768C9.53751 9.60999 9.49865 9.80538 9.49865 10.0027C9.49865 10.4012 9.65696 10.7834 9.93875 11.0652C10.2205 11.347 10.6027 11.5053 11.0013 11.5053C11.3998 11.5053 11.782 11.347 12.0638 11.0652L12.0612 11.0615Z" fill="black"/>
</svg>
