<svg width="32" height="32" viewBox="0 0 32 32" fill="none" xmlns="http://www.w3.org/2000/svg">
<path d="M29.5 16.9999V24.9999C29.5 25.3977 29.342 25.7793 29.0607 26.0606C28.7794 26.3419 28.3978 26.4999 28 26.4999H4C3.60218 26.4999 3.22064 26.3419 2.93934 26.0606C2.65804 25.7793 2.5 25.3977 2.5 24.9999V16.9999C2.5 16.6021 2.65804 16.2205 2.93934 15.9392C3.22064 15.6579 3.60218 15.4999 4 15.4999H10C10.1326 15.4999 10.2598 15.5526 10.3536 15.6464C10.4473 15.7401 10.5 15.8673 10.5 15.9999C10.5 16.1325 10.4473 16.2597 10.3536 16.3535C10.2598 16.4472 10.1326 16.4999 10 16.4999H4C3.86739 16.4999 3.74021 16.5526 3.64645 16.6464C3.55268 16.7401 3.5 16.8673 3.5 16.9999V24.9999C3.5 25.1325 3.55268 25.2597 3.64645 25.3535C3.74021 25.4472 3.86739 25.4999 4 25.4999H28C28.1326 25.4999 28.2598 25.4472 28.3536 25.3535C28.4473 25.2597 28.5 25.1325 28.5 24.9999V16.9999C28.5 16.8673 28.4473 16.7401 28.3536 16.6464C28.2598 16.5526 28.1326 16.4999 28 16.4999H22C21.8674 16.4999 21.7402 16.4472 21.6464 16.3535C21.5527 16.2597 21.5 16.1325 21.5 15.9999C21.5 15.8673 21.5527 15.7401 21.6464 15.6464C21.7402 15.5526 21.8674 15.4999 22 15.4999H28C28.3978 15.4999 28.7794 15.6579 29.0607 15.9392C29.342 16.2205 29.5 16.6021 29.5 16.9999ZM10.3538 9.35366L15.5 4.20741V15.9999C15.5 16.1325 15.5527 16.2597 15.6464 16.3535C15.7402 16.4472 15.8674 16.4999 16 16.4999C16.1326 16.4999 16.2598 16.4472 16.3536 16.3535C16.4473 16.2597 16.5 16.1325 16.5 15.9999V4.20741L21.6462 9.35366C21.6927 9.40011 21.7479 9.43696 21.8086 9.4621C21.8692 9.48724 21.9343 9.50018 22 9.50018C22.0657 9.50018 22.1308 9.48724 22.1914 9.4621C22.2521 9.43696 22.3073 9.40011 22.3538 9.35366C22.4002 9.3072 22.4371 9.25205 22.4622 9.19135C22.4873 9.13066 22.5003 9.0656 22.5003 8.99991C22.5003 8.93421 22.4873 8.86915 22.4622 8.80846C22.4371 8.74776 22.4002 8.69261 22.3538 8.64615L16.3538 2.64616C16.3073 2.59967 16.2522 2.56279 16.1915 2.53763C16.1308 2.51246 16.0657 2.49951 16 2.49951C15.9343 2.49951 15.8692 2.51246 15.8085 2.53763C15.7478 2.56279 15.6927 2.59967 15.6462 2.64616L9.64625 8.64615C9.59979 8.69261 9.56294 8.74776 9.5378 8.80846C9.51266 8.86915 9.49972 8.93421 9.49972 8.99991C9.49972 9.0656 9.51266 9.13066 9.5378 9.19135C9.56294 9.25205 9.59979 9.3072 9.64625 9.35366C9.6927 9.40011 9.74786 9.43696 9.80855 9.4621C9.86925 9.48724 9.9343 9.50018 10 9.50018C10.0657 9.50018 10.1308 9.48724 10.1914 9.4621C10.2521 9.43696 10.3073 9.40011 10.3538 9.35366ZM24.5 20.9999C24.5 20.8021 24.4414 20.6088 24.3315 20.4443C24.2216 20.2799 24.0654 20.1517 23.8827 20.076C23.7 20.0003 23.4989 19.9805 23.3049 20.0191C23.1109 20.0577 22.9327 20.1529 22.7929 20.2928C22.653 20.4326 22.5578 20.6108 22.5192 20.8048C22.4806 20.9988 22.5004 21.1999 22.5761 21.3826C22.6518 21.5653 22.78 21.7215 22.9444 21.8314C23.1089 21.9413 23.3022 21.9999 23.5 21.9999C23.7652 21.9999 24.0196 21.8945 24.2071 21.707C24.3946 21.5195 24.5 21.2651 24.5 20.9999Z" fill="black"/>
</svg>
