<svg width="32" height="32" viewBox="0 0 32 32" fill="none" xmlns="http://www.w3.org/2000/svg">
<path d="M27.5 18.9999V25.9999C27.5 26.3977 27.342 26.7793 27.0607 27.0606C26.7794 27.3419 26.3978 27.4999 26 27.4999H6C5.60218 27.4999 5.22064 27.3419 4.93934 27.0606C4.65804 26.7793 4.5 26.3977 4.5 25.9999V18.9999C4.5 18.8673 4.55268 18.7401 4.64645 18.6464C4.74021 18.5526 4.86739 18.4999 5 18.4999C5.13261 18.4999 5.25979 18.5526 5.35355 18.6464C5.44732 18.7401 5.5 18.8673 5.5 18.9999V25.9999C5.5 26.1325 5.55268 26.2597 5.64645 26.3535C5.74021 26.4472 5.86739 26.4999 6 26.4999H26C26.1326 26.4999 26.2598 26.4472 26.3536 26.3535C26.4473 26.2597 26.5 26.1325 26.5 25.9999V18.9999C26.5 18.8673 26.5527 18.7401 26.6464 18.6464C26.7402 18.5526 26.8674 18.4999 27 18.4999C27.1326 18.4999 27.2598 18.5526 27.3536 18.6464C27.4473 18.7401 27.5 18.8673 27.5 18.9999ZM11.3538 10.3537L15.5 6.20741V18.9999C15.5 19.1325 15.5527 19.2597 15.6464 19.3535C15.7402 19.4472 15.8674 19.4999 16 19.4999C16.1326 19.4999 16.2598 19.4472 16.3536 19.3535C16.4473 19.2597 16.5 19.1325 16.5 18.9999V6.20741L20.6462 10.3537C20.6927 10.4001 20.7479 10.437 20.8086 10.4621C20.8692 10.4872 20.9343 10.5002 21 10.5002C21.0657 10.5002 21.1308 10.4872 21.1914 10.4621C21.2521 10.437 21.3073 10.4001 21.3538 10.3537C21.4002 10.3072 21.4371 10.252 21.4622 10.1914C21.4873 10.1307 21.5003 10.0656 21.5003 9.99991C21.5003 9.93421 21.4873 9.86915 21.4622 9.80846C21.4371 9.74776 21.4002 9.69261 21.3538 9.64615L16.3538 4.64615C16.3073 4.59967 16.2522 4.56279 16.1915 4.53763C16.1308 4.51246 16.0657 4.49951 16 4.49951C15.9343 4.49951 15.8692 4.51246 15.8085 4.53763C15.7478 4.56279 15.6927 4.59967 15.6462 4.64615L10.6462 9.64615C10.5998 9.69261 10.5629 9.74776 10.5378 9.80846C10.5127 9.86915 10.4997 9.93421 10.4997 9.99991C10.4997 10.0656 10.5127 10.1307 10.5378 10.1914C10.5629 10.252 10.5998 10.3072 10.6462 10.3537C10.6927 10.4001 10.7479 10.437 10.8086 10.4621C10.8692 10.4872 10.9343 10.5002 11 10.5002C11.0657 10.5002 11.1308 10.4872 11.1914 10.4621C11.2521 10.437 11.3073 10.4001 11.3538 10.3537Z" fill="black"/>
</svg>
