<svg width="32" height="32" viewBox="0 0 32 32" fill="none" xmlns="http://www.w3.org/2000/svg">
<path d="M29.75 16.9998V24.9998C29.75 25.464 29.5656 25.9091 29.2374 26.2373C28.9092 26.5655 28.4641 26.7498 28 26.7498H4C3.53587 26.7498 3.09075 26.5655 2.76256 26.2373C2.43437 25.9091 2.25 25.464 2.25 24.9998V16.9998C2.25 16.5357 2.43437 16.0906 2.76256 15.7624C3.09075 15.4342 3.53587 15.2498 4 15.2498H10C10.1989 15.2498 10.3897 15.3288 10.5303 15.4695C10.671 15.6102 10.75 15.8009 10.75 15.9998C10.75 16.1987 10.671 16.3895 10.5303 16.5302C10.3897 16.6708 10.1989 16.7498 10 16.7498H4C3.9337 16.7498 3.87011 16.7762 3.82322 16.8231C3.77634 16.8699 3.75 16.9335 3.75 16.9998V24.9998C3.75 25.0661 3.77634 25.1297 3.82322 25.1766C3.87011 25.2235 3.9337 25.2498 4 25.2498H28C28.0663 25.2498 28.1299 25.2235 28.1768 25.1766C28.2237 25.1297 28.25 25.0661 28.25 24.9998V16.9998C28.25 16.9335 28.2237 16.8699 28.1768 16.8231C28.1299 16.7762 28.0663 16.7498 28 16.7498H22C21.8011 16.7498 21.6103 16.6708 21.4697 16.5302C21.329 16.3895 21.25 16.1987 21.25 15.9998C21.25 15.8009 21.329 15.6102 21.4697 15.4695C21.6103 15.3288 21.8011 15.2498 22 15.2498H28C28.4641 15.2498 28.9092 15.4342 29.2374 15.7624C29.5656 16.0906 29.75 16.5357 29.75 16.9998ZM10.53 9.52983L15.25 4.81108V15.9998C15.25 16.1987 15.329 16.3895 15.4697 16.5302C15.6103 16.6708 15.8011 16.7498 16 16.7498C16.1989 16.7498 16.3897 16.6708 16.5303 16.5302C16.671 16.3895 16.75 16.1987 16.75 15.9998V4.81108L21.47 9.52983C21.6122 9.66231 21.8002 9.73443 21.9945 9.731C22.1888 9.72758 22.3742 9.64886 22.5116 9.51145C22.649 9.37404 22.7277 9.18865 22.7312 8.99435C22.7346 8.80005 22.6625 8.612 22.53 8.46983L16.53 2.46983C16.3894 2.32938 16.1988 2.25049 16 2.25049C15.8012 2.25049 15.6106 2.32938 15.47 2.46983L9.47 8.46983C9.33752 8.612 9.2654 8.80005 9.26882 8.99435C9.27225 9.18865 9.35097 9.37404 9.48838 9.51145C9.62579 9.64886 9.81118 9.72758 10.0055 9.731C10.1998 9.73443 10.3878 9.66231 10.53 9.52983ZM24.75 20.9998C24.75 20.7526 24.6767 20.5109 24.5393 20.3054C24.402 20.0998 24.2068 19.9396 23.9784 19.845C23.7499 19.7504 23.4986 19.7256 23.2561 19.7738C23.0137 19.8221 22.7909 19.9411 22.6161 20.1159C22.4413 20.2908 22.3223 20.5135 22.274 20.756C22.2258 20.9984 22.2505 21.2498 22.3451 21.4782C22.4398 21.7066 22.6 21.9018 22.8055 22.0392C23.0111 22.1765 23.2528 22.2498 23.5 22.2498C23.8315 22.2498 24.1495 22.1181 24.3839 21.8837C24.6183 21.6493 24.75 21.3313 24.75 20.9998Z" fill="black"/>
</svg>
