<svg width="32" height="32" viewBox="0 0 32 32" fill="none" xmlns="http://www.w3.org/2000/svg">
<path d="M19.0623 19.5662C20.5335 18.4095 21.6076 16.823 22.135 15.0274C22.6624 13.2318 22.617 11.3165 22.005 9.54791C21.393 7.77935 20.245 6.24555 18.7206 5.15996C17.1962 4.07436 15.3712 3.49097 13.4998 3.49097C11.6284 3.49097 9.80345 4.07436 8.27905 5.15996C6.75464 6.24555 5.60657 7.77935 4.9946 9.54791C4.38262 11.3165 4.33719 13.2318 4.86461 15.0274C5.39204 16.823 6.46609 18.4095 7.9373 19.5662C5.5712 20.5313 3.48042 22.0664 1.85105 24.0349C1.59512 24.3396 1.47069 24.7335 1.50515 25.1299C1.53961 25.5263 1.73013 25.8927 2.0348 26.1487C2.33947 26.4046 2.73333 26.529 3.12973 26.4946C3.52614 26.4601 3.89262 26.2696 4.14855 25.9649C6.5673 23.0862 9.88855 21.4999 13.4998 21.4999C18.1248 21.4999 21.1398 23.9274 22.851 25.9649C23.107 26.2696 23.4735 26.4601 23.8699 26.4946C24.2663 26.529 24.6601 26.4046 24.9648 26.1487C25.2695 25.8927 25.46 25.5263 25.4944 25.1299C25.5289 24.7335 25.4045 24.3396 25.1486 24.0349C23.5192 22.0664 21.4284 20.5313 19.0623 19.5662ZM7.4998 12.4999C7.4998 11.3132 7.85169 10.1532 8.51098 9.1665C9.17027 8.17981 10.1073 7.41078 11.2037 6.95665C12.3001 6.50252 13.5065 6.3837 14.6703 6.61521C15.8342 6.84673 16.9033 7.41817 17.7424 8.25729C18.5816 9.0964 19.153 10.1655 19.3845 11.3294C19.616 12.4933 19.4972 13.6997 19.0431 14.796C18.589 15.8924 17.8199 16.8295 16.8332 17.4887C15.8465 18.148 14.6865 18.4999 13.4998 18.4999C11.909 18.4983 10.3838 17.8656 9.25899 16.7407C8.13413 15.6159 7.50145 14.0907 7.4998 12.4999ZM30.341 17.6537L29.9273 17.7887L30.1773 18.1412C30.2996 18.3001 30.3888 18.4818 30.4396 18.6758C30.4904 18.8697 30.5018 19.0718 30.4732 19.2703C30.4446 19.4687 30.3765 19.6594 30.2729 19.831C30.1693 20.0027 30.0324 20.1518 29.8702 20.2696C29.708 20.3875 29.5238 20.4716 29.3285 20.517C29.1333 20.5624 28.9309 20.5683 28.7333 20.5342C28.5358 20.5 28.3471 20.4267 28.1784 20.3184C28.0096 20.2101 27.8643 20.0691 27.751 19.9037L27.4998 19.5512L27.2498 19.9037C27.1365 20.0691 26.9912 20.2101 26.8225 20.3184C26.6538 20.4267 26.4651 20.5 26.2675 20.5342C26.07 20.5683 25.8676 20.5624 25.6723 20.517C25.477 20.4716 25.2929 20.3875 25.1307 20.2696C24.9685 20.1518 24.8315 20.0027 24.728 19.831C24.6244 19.6594 24.5563 19.4687 24.5276 19.2703C24.499 19.0718 24.5104 18.8697 24.5613 18.6758C24.6121 18.4818 24.7013 18.3001 24.8235 18.1412L25.0735 17.7887L24.6598 17.6537C24.2882 17.5253 23.9819 17.2563 23.8067 16.9044C23.6316 16.5525 23.6015 16.1459 23.7231 15.772C23.8446 15.3982 24.108 15.087 24.4567 14.9055C24.8053 14.7239 25.2113 14.6865 25.5873 14.8012L26.001 14.9349V14.4999C26.001 14.1021 26.1591 13.7206 26.4404 13.4393C26.7217 13.158 27.1032 12.9999 27.501 12.9999C27.8989 12.9999 28.2804 13.158 28.5617 13.4393C28.843 13.7206 29.001 14.1021 29.001 14.4999V14.9349L29.4148 14.8012C29.7908 14.6865 30.1968 14.7239 30.5454 14.9055C30.8941 15.087 31.1575 15.3982 31.279 15.772C31.4006 16.1459 31.3705 16.5525 31.1954 16.9044C31.0202 17.2563 30.7139 17.5253 30.3423 17.6537H30.341Z" fill="black"/>
</svg>
