<svg width="32" height="32" viewBox="0 0 32 32" fill="none" xmlns="http://www.w3.org/2000/svg">
<path d="M20.5001 6.99999C20.5001 6.60216 20.6581 6.22063 20.9394 5.93933C21.2207 5.65802 21.6022 5.49999 22.0001 5.49999H28.0001C28.3979 5.49999 28.7794 5.65802 29.0607 5.93933C29.342 6.22063 29.5001 6.60216 29.5001 6.99999C29.5001 7.39781 29.342 7.77934 29.0607 8.06065C28.7794 8.34195 28.3979 8.49999 28.0001 8.49999H22.0001C21.6022 8.49999 21.2207 8.34195 20.9394 8.06065C20.6581 7.77934 20.5001 7.39781 20.5001 6.99999ZM29.3138 13.75C29.7876 16.5691 29.3532 19.4657 28.0734 22.0219C26.7937 24.578 24.7347 26.6613 22.1938 27.971C19.6529 29.2808 16.7616 29.7492 13.9371 29.3087C11.1127 28.8681 8.50129 27.5414 6.47995 25.5201C4.45862 23.4988 3.13192 20.8874 2.69138 18.0629C2.25085 15.2385 2.71926 12.3471 4.02901 9.80623C5.33876 7.26534 7.42207 5.20639 9.97819 3.92663C12.5343 2.64687 15.431 2.2125 18.2501 2.68624C18.6424 2.75254 18.9924 2.97199 19.2229 3.29631C19.4535 3.62063 19.5457 4.02326 19.4794 4.41561C19.4131 4.80797 19.1937 5.15791 18.8694 5.38846C18.545 5.61902 18.1424 5.71129 17.7501 5.64499C17.1717 5.54845 16.5864 5.49995 16.0001 5.49999C14.029 5.49865 12.0973 6.05257 10.4265 7.09829C8.75563 8.14401 7.41312 9.63923 6.55276 11.4127C5.6924 13.1861 5.34898 15.166 5.56184 17.1256C5.7747 19.0852 6.53524 20.9452 7.75632 22.4925C8.72856 21.2559 9.96778 20.2551 11.3813 19.565C10.4805 18.6527 9.8695 17.4944 9.62531 16.2358C9.38112 14.9772 9.51459 13.6744 10.009 12.4915C10.5033 11.3085 11.3365 10.2982 12.4036 9.58756C13.4708 8.87694 14.7242 8.49778 16.0063 8.49778C17.2884 8.49778 18.5419 8.87694 19.609 9.58756C20.6762 10.2982 21.5093 11.3085 22.0037 12.4915C22.498 13.6744 22.6315 14.9772 22.3873 16.2358C22.1431 17.4944 21.5322 18.6527 20.6313 19.565C22.0451 20.2547 23.2845 21.2555 24.2563 22.4925C25.7152 20.6434 26.5059 18.3553 26.5001 16C26.5 15.4137 26.4515 14.8283 26.3551 14.25C26.2888 13.8576 26.381 13.455 26.6116 13.1307C26.8421 12.8064 27.1921 12.5869 27.5844 12.5206C27.9768 12.4543 28.3794 12.5466 28.7037 12.7771C29.0281 13.0077 29.2475 13.3576 29.3138 13.75ZM16.0001 18.5C16.6923 18.5 17.369 18.2947 17.9446 17.9101C18.5201 17.5255 18.9687 16.9789 19.2336 16.3394C19.4986 15.6998 19.5679 14.9961 19.4328 14.3172C19.2978 13.6382 18.9644 13.0146 18.4749 12.5251C17.9855 12.0356 17.3618 11.7023 16.6829 11.5672C16.004 11.4322 15.3002 11.5015 14.6607 11.7664C14.0211 12.0313 13.4745 12.4799 13.0899 13.0555C12.7053 13.6311 12.5001 14.3078 12.5001 15C12.5001 15.9282 12.8688 16.8185 13.5252 17.4749C14.1816 18.1312 15.0718 18.5 16.0001 18.5ZM16.0001 26.5C18.1694 26.5015 20.2853 25.8274 22.0538 24.5712C21.3575 23.6191 20.4464 22.8447 19.3945 22.3108C18.3426 21.7769 17.1797 21.4987 16.0001 21.4987C14.8205 21.4987 13.6575 21.7769 12.6056 22.3108C11.5538 22.8447 10.6427 23.6191 9.94632 24.5712C11.7149 25.8274 13.8308 26.5015 16.0001 26.5Z" fill="black"/>
</svg>
