<svg width="32" height="32" viewBox="0 0 32 32" fill="none" xmlns="http://www.w3.org/2000/svg">
<path d="M3.0989 15.1987C3.25637 15.3172 3.43565 15.4035 3.62651 15.4527C3.81736 15.5019 4.01603 15.513 4.21117 15.4854C4.40631 15.4577 4.5941 15.3919 4.76379 15.2917C4.93349 15.1914 5.08176 15.0587 5.20015 14.9012C5.759 14.1558 6.48377 13.5507 7.31702 13.134C8.15028 12.7173 9.06912 12.5003 10.0008 12.5003C10.9324 12.5003 11.8513 12.7173 12.6845 13.134C13.5178 13.5507 14.2425 14.1558 14.8014 14.9012C15.0403 15.2192 15.3957 15.4294 15.7895 15.4854C16.1833 15.5414 16.5833 15.4387 16.9014 15.1999C17.0139 15.1145 17.114 15.014 17.1989 14.9012C17.7578 14.1558 18.4825 13.5507 19.3158 13.134C20.149 12.7173 21.0679 12.5003 21.9995 12.5003C22.9312 12.5003 23.85 12.7173 24.6833 13.134C25.5165 13.5507 26.2413 14.1558 26.8001 14.9012C26.9173 15.0615 27.0652 15.197 27.2352 15.2997C27.4052 15.4025 27.5939 15.4704 27.7903 15.4997C27.9867 15.5289 28.187 15.5188 28.3796 15.4701C28.5721 15.4213 28.753 15.3347 28.9118 15.2155C29.0707 15.0962 29.2042 14.9466 29.3047 14.7753C29.4053 14.604 29.4708 14.4145 29.4975 14.2177C29.5242 14.0209 29.5116 13.8207 29.4603 13.6289C29.409 13.437 29.3202 13.2572 29.1989 13.0999C28.3645 11.9827 27.2818 11.0746 26.0364 10.4474C26.5814 9.70201 26.9093 8.82025 26.9838 7.89988C27.0584 6.9795 26.8766 6.05647 26.4586 5.2331C26.0406 4.40973 25.4028 3.71818 24.6158 3.23513C23.8289 2.75207 22.9235 2.49637 22.0001 2.49637C21.0768 2.49637 20.1714 2.75207 19.3845 3.23513C18.5975 3.71818 17.9597 4.40973 17.5417 5.2331C17.1237 6.05647 16.9419 6.9795 17.0165 7.89988C17.091 8.82025 17.4189 9.70201 17.9639 10.4474C17.2521 10.8044 16.5916 11.2555 16.0001 11.7887C15.4088 11.2551 14.7483 10.8035 14.0364 10.4462C14.5814 9.70076 14.9093 8.819 14.9838 7.89863C15.0584 6.97825 14.8766 6.05522 14.4586 5.23185C14.0406 4.40848 13.4028 3.71693 12.6158 3.23388C11.8289 2.75082 10.9235 2.49512 10.0001 2.49512C9.07676 2.49512 8.17141 2.75082 7.38446 3.23388C6.5975 3.71693 5.95969 4.40848 5.54171 5.23185C5.12374 6.05522 4.94194 6.97825 5.01645 7.89863C5.09097 8.819 5.4189 9.70076 5.9639 10.4462C4.71848 11.0734 3.63584 11.9814 2.8014 13.0987C2.56243 13.4166 2.45953 13.8165 2.51532 14.2103C2.57111 14.6041 2.78102 14.9596 3.0989 15.1987ZM22.0001 5.49992C22.3957 5.49992 22.7824 5.61721 23.1113 5.83698C23.4402 6.05674 23.6965 6.3691 23.8479 6.73455C23.9993 7.1 24.0389 7.50213 23.9617 7.8901C23.8845 8.27806 23.6941 8.63442 23.4144 8.91413C23.1347 9.19383 22.7783 9.38432 22.3903 9.46149C22.0024 9.53866 21.6002 9.49905 21.2348 9.34767C20.8693 9.1963 20.557 8.93995 20.3372 8.61106C20.1174 8.28216 20.0001 7.89548 20.0001 7.49992C20.0001 6.96948 20.2109 6.46077 20.5859 6.0857C20.961 5.71063 21.4697 5.49992 22.0001 5.49992ZM10.0001 5.49992C10.3957 5.49992 10.7824 5.61721 11.1113 5.83698C11.4402 6.05674 11.6965 6.3691 11.8479 6.73455C11.9993 7.1 12.0389 7.50213 11.9617 7.8901C11.8845 8.27806 11.6941 8.63442 11.4144 8.91413C11.1347 9.19383 10.7783 9.38432 10.3903 9.46149C10.0024 9.53866 9.60023 9.49905 9.23478 9.34767C8.86933 9.1963 8.55697 8.93995 8.33721 8.61106C8.11744 8.28216 8.00015 7.89548 8.00015 7.49992C8.00015 6.96948 8.21086 6.46077 8.58593 6.0857C8.96101 5.71063 9.46971 5.49992 10.0001 5.49992ZM26.0364 24.4462C26.5814 23.7008 26.9093 22.819 26.9838 21.8986C27.0584 20.9783 26.8766 20.0552 26.4586 19.2318C26.0406 18.4085 25.4028 17.7169 24.6158 17.2339C23.8289 16.7508 22.9235 16.4951 22.0001 16.4951C21.0768 16.4951 20.1714 16.7508 19.3845 17.2339C18.5975 17.7169 17.9597 18.4085 17.5417 19.2318C17.1237 20.0552 16.9419 20.9783 17.0165 21.8986C17.091 22.819 17.4189 23.7008 17.9639 24.4462C17.2523 24.8035 16.5919 25.2546 16.0001 25.7874C15.4084 25.2546 14.7479 24.8035 14.0364 24.4462C14.5814 23.7008 14.9093 22.819 14.9838 21.8986C15.0584 20.9783 14.8766 20.0552 14.4586 19.2318C14.0406 18.4085 13.4028 17.7169 12.6158 17.2339C11.8289 16.7508 10.9235 16.4951 10.0001 16.4951C9.07676 16.4951 8.17141 16.7508 7.38446 17.2339C6.5975 17.7169 5.95969 18.4085 5.54171 19.2318C5.12374 20.0552 4.94194 20.9783 5.01645 21.8986C5.09097 22.819 5.4189 23.7008 5.9639 24.4462C4.71848 25.0734 3.63584 25.9814 2.8014 27.0987C2.56237 27.4168 2.4595 27.8168 2.5154 28.2107C2.57131 28.6047 2.78143 28.9603 3.09952 29.1993C3.41761 29.4383 3.81763 29.5412 4.21158 29.4853C4.60552 29.4294 4.96112 29.2193 5.20015 28.9012C5.759 28.1558 6.48377 27.5507 7.31702 27.134C8.15028 26.7173 9.06912 26.5003 10.0008 26.5003C10.9324 26.5003 11.8513 26.7173 12.6845 27.134C13.5178 27.5507 14.2425 28.1558 14.8014 28.9012C15.0403 29.2192 15.3957 29.4294 15.7895 29.4854C16.1833 29.5414 16.5833 29.4387 16.9014 29.1999C17.0139 29.1145 17.114 29.014 17.1989 28.9012C17.7578 28.1558 18.4825 27.5507 19.3158 27.134C20.149 26.7173 21.0679 26.5003 21.9995 26.5003C22.9312 26.5003 23.85 26.7173 24.6833 27.134C25.5165 27.5507 26.2413 28.1558 26.8001 28.9012C26.9173 29.0615 27.0652 29.197 27.2352 29.2997C27.4052 29.4025 27.5939 29.4704 27.7903 29.4997C27.9867 29.5289 28.187 29.5188 28.3796 29.4701C28.5721 29.4213 28.753 29.3347 28.9118 29.2155C29.0707 29.0962 29.2042 28.9466 29.3047 28.7753C29.4053 28.604 29.4708 28.4145 29.4975 28.2177C29.5242 28.0209 29.5116 27.8207 29.4603 27.6289C29.409 27.437 29.3202 27.2572 29.1989 27.0999C28.3649 25.982 27.2822 25.0734 26.0364 24.4462ZM10.0001 19.4999C10.3957 19.4999 10.7824 19.6172 11.1113 19.837C11.4402 20.0567 11.6965 20.3691 11.8479 20.7345C11.9993 21.1 12.0389 21.5021 11.9617 21.8901C11.8845 22.2781 11.6941 22.6344 11.4144 22.9141C11.1347 23.1938 10.7783 23.3843 10.3903 23.4615C10.0024 23.5387 9.60023 23.4991 9.23478 23.3477C8.86933 23.1963 8.55697 22.94 8.33721 22.6111C8.11744 22.2822 8.00015 21.8955 8.00015 21.4999C8.00015 20.9695 8.21086 20.4608 8.58593 20.0857C8.96101 19.7106 9.46971 19.4999 10.0001 19.4999ZM22.0001 19.4999C22.3957 19.4999 22.7824 19.6172 23.1113 19.837C23.4402 20.0567 23.6965 20.3691 23.8479 20.7345C23.9993 21.1 24.0389 21.5021 23.9617 21.8901C23.8845 22.2781 23.6941 22.6344 23.4144 22.9141C23.1347 23.1938 22.7783 23.3843 22.3903 23.4615C22.0024 23.5387 21.6002 23.4991 21.2348 23.3477C20.8693 23.1963 20.557 22.94 20.3372 22.6111C20.1174 22.2822 20.0001 21.8955 20.0001 21.4999C20.0001 20.9695 20.2109 20.4608 20.5859 20.0857C20.961 19.7106 21.4697 19.4999 22.0001 19.4999Z" fill="black"/>
</svg>
