<svg width="32" height="32" viewBox="0 0 32 32" fill="none" xmlns="http://www.w3.org/2000/svg">
<path d="M21.1963 5.76375C21.3193 5.38552 21.5875 5.07165 21.942 4.89116C22.2964 4.71067 22.708 4.67833 23.0863 4.80125L23.5 4.935V4.5C23.5 4.10218 23.658 3.72064 23.9393 3.43934C24.2207 3.15804 24.6022 3 25 3C25.3978 3 25.7794 3.15804 26.0607 3.43934C26.342 3.72064 26.5 4.10218 26.5 4.5V4.935L26.9138 4.80125C27.1021 4.73619 27.3016 4.70931 27.5004 4.72218C27.6993 4.73506 27.8936 4.78744 28.072 4.87625C28.2504 4.96506 28.4093 5.08854 28.5394 5.23945C28.6696 5.39037 28.7684 5.56571 28.83 5.75522C28.8916 5.94474 28.9148 6.14463 28.8983 6.34323C28.8818 6.54183 28.8259 6.73515 28.7339 6.9119C28.6418 7.08865 28.5155 7.24529 28.3622 7.37266C28.209 7.50003 28.0319 7.59559 27.8413 7.65375L27.4275 7.78875L27.6775 8.14125C27.7998 8.30012 27.889 8.4819 27.9398 8.67583C27.9906 8.86976 28.0021 9.07191 27.9734 9.27033C27.9448 9.46876 27.8767 9.65943 27.7731 9.83108C27.6695 10.0027 27.5326 10.1519 27.3704 10.2697C27.2082 10.3875 27.024 10.4716 26.8288 10.5171C26.6335 10.5625 26.4311 10.5684 26.2335 10.5342C26.036 10.5001 25.8473 10.4267 25.6786 10.3185C25.5098 10.2102 25.3645 10.0692 25.2513 9.90375L25 9.5525L24.75 9.90375C24.6367 10.0692 24.4914 10.2102 24.3227 10.3185C24.154 10.4267 23.9653 10.5001 23.7677 10.5342C23.5702 10.5684 23.3678 10.5625 23.1725 10.5171C22.9772 10.4716 22.7931 10.3875 22.6309 10.2697C22.4687 10.1519 22.3317 10.0027 22.2282 9.83108C22.1246 9.65943 22.0565 9.46876 22.0278 9.27033C21.9992 9.07191 22.0106 8.86976 22.0615 8.67583C22.1123 8.4819 22.2015 8.30012 22.3238 8.14125L22.5738 7.78875L22.16 7.65375C21.9726 7.59295 21.799 7.49583 21.6492 7.36794C21.4993 7.24005 21.3761 7.08389 21.2866 6.90838C21.1971 6.73287 21.1431 6.54145 21.1276 6.34505C21.1121 6.14866 21.1354 5.95113 21.1963 5.76375ZM29.5 16C29.5 18.67 28.7082 21.2801 27.2248 23.5002C25.7414 25.7203 23.633 27.4506 21.1662 28.4724C18.6994 29.4942 15.985 29.7615 13.3663 29.2406C10.7475 28.7197 8.34207 27.434 6.45406 25.5459C4.56606 23.6579 3.28031 21.2525 2.7594 18.6337C2.2385 16.015 2.50585 13.3006 3.52763 10.8338C4.54942 8.36697 6.27974 6.25856 8.49981 4.77516C10.7199 3.29176 13.33 2.5 16 2.5C16.7539 2.49984 17.5064 2.56214 18.25 2.68625C18.6424 2.75255 18.9923 2.97201 19.2229 3.29633C19.4534 3.62065 19.5457 4.02327 19.4794 4.41563C19.4131 4.80798 19.1936 5.15793 18.8693 5.38848C18.545 5.61903 18.1424 5.7113 17.75 5.645C17.1717 5.54846 16.5863 5.49996 16 5.5C14.0289 5.49867 12.0973 6.05259 10.4264 7.0983C8.75556 8.14402 7.41306 9.63924 6.5527 11.4127C5.69233 13.1861 5.34891 15.166 5.56177 17.1256C5.77464 19.0852 6.53517 20.9452 7.75626 22.4925C8.72849 21.2559 9.96772 20.2551 11.3813 19.565C10.4804 18.6527 9.86944 17.4944 9.62524 16.2358C9.38105 14.9772 9.51453 13.6744 10.0089 12.4915C10.5032 11.3085 11.3364 10.2982 12.4035 9.58757C13.4707 8.87695 14.7242 8.49779 16.0063 8.49779C17.2884 8.49779 18.5418 8.87695 19.609 9.58757C20.6761 10.2982 21.5093 11.3085 22.0036 12.4915C22.498 13.6744 22.6315 14.9772 22.3873 16.2358C22.1431 17.4944 21.5321 18.6527 20.6313 19.565C22.0448 20.2551 23.284 21.2559 24.2563 22.4925C25.7147 20.6432 26.5054 18.3552 26.5 16C26.4999 15.4137 26.4514 14.8283 26.355 14.25C26.2887 13.8576 26.381 13.455 26.6115 13.1307C26.8421 12.8064 27.192 12.5869 27.5844 12.5206C27.9767 12.4543 28.3794 12.5466 28.7037 12.7771C29.028 13.0077 29.2475 13.3576 29.3138 13.75C29.438 14.4936 29.5003 15.2461 29.5 16ZM16 18.5C16.6922 18.5 17.3689 18.2947 17.9445 17.9101C18.5201 17.5256 18.9687 16.9789 19.2336 16.3394C19.4985 15.6999 19.5678 14.9961 19.4328 14.3172C19.2977 13.6383 18.9644 13.0146 18.4749 12.5251C17.9854 12.0356 17.3618 11.7023 16.6828 11.5673C16.0039 11.4322 15.3002 11.5015 14.6606 11.7664C14.0211 12.0313 13.4744 12.4799 13.0899 13.0555C12.7053 13.6311 12.5 14.3078 12.5 15C12.5 15.9283 12.8688 16.8185 13.5251 17.4749C14.1815 18.1313 15.0717 18.5 16 18.5ZM16 26.5C18.1693 26.5016 20.2852 25.8274 22.0538 24.5713C21.3574 23.6191 20.4463 22.8447 19.3944 22.3108C18.3426 21.7769 17.1796 21.4987 16 21.4987C14.8204 21.4987 13.6574 21.7769 12.6056 22.3108C11.5537 22.8447 10.6426 23.6191 9.94626 24.5713C11.7148 25.8274 13.8307 26.5016 16 26.5Z" fill="black"/>
</svg>
