<svg width="32" height="32" viewBox="0 0 32 32" fill="none" xmlns="http://www.w3.org/2000/svg">
<path d="M28.6489 26.625C26.6727 23.21 23.5702 20.8138 19.9652 19.7975C21.7179 18.9066 23.1194 17.4513 23.9438 15.6664C24.7682 13.8814 24.9675 11.8709 24.5094 9.95884C24.0513 8.04681 22.9626 6.34479 21.4189 5.1272C19.8751 3.90962 17.9663 3.24744 16.0002 3.24744C14.0341 3.24744 12.1252 3.90962 10.5815 5.1272C9.03774 6.34479 7.94906 8.04681 7.49098 9.95884C7.03291 11.8709 7.23214 13.8814 8.05655 15.6664C8.88096 17.4513 10.2825 18.9066 12.0352 19.7975C8.43019 20.8125 5.32769 23.2088 3.35144 26.625C3.29717 26.7104 3.26074 26.8058 3.24432 26.9057C3.2279 27.0055 3.23184 27.1076 3.25591 27.2058C3.27998 27.3041 3.32366 27.3964 3.38435 27.4773C3.44504 27.5583 3.52147 27.6261 3.60904 27.6767C3.69662 27.7273 3.79352 27.7597 3.89394 27.7719C3.99435 27.7841 4.09619 27.7759 4.19334 27.7477C4.29049 27.7195 4.38093 27.672 4.45922 27.6079C4.53752 27.5439 4.60205 27.4646 4.64894 27.375C7.05019 23.2263 11.2927 20.75 16.0002 20.75C20.7077 20.75 24.9502 23.2263 27.3514 27.375C27.3983 27.4646 27.4629 27.5439 27.5412 27.6079C27.6194 27.672 27.7099 27.7195 27.807 27.7477C27.9042 27.7759 28.006 27.7841 28.1064 27.7719C28.2069 27.7597 28.3038 27.7273 28.3913 27.6767C28.4789 27.6261 28.5553 27.5583 28.616 27.4773C28.6767 27.3964 28.7204 27.3041 28.7445 27.2058C28.7685 27.1076 28.7725 27.0055 28.7561 26.9057C28.7396 26.8058 28.7032 26.7104 28.6489 26.625ZM8.75019 12C8.75019 10.5661 9.17539 9.16439 9.97203 7.97213C10.7687 6.77988 11.901 5.85063 13.2257 5.30189C14.5505 4.75316 16.0082 4.60958 17.4146 4.88932C18.821 5.16907 20.1128 5.85956 21.1267 6.87349C22.1406 7.88742 22.8311 9.17925 23.1109 10.5856C23.3906 11.992 23.247 13.4497 22.6983 14.7745C22.1496 16.0992 21.2203 17.2315 20.0281 18.0282C18.8358 18.8248 17.4341 19.25 16.0002 19.25C14.0781 19.2477 12.2354 18.4831 10.8762 17.124C9.51709 15.7648 8.7525 13.9221 8.75019 12Z" fill="black"/>
</svg>
