<svg width="32" height="32" viewBox="0 0 32 32" fill="none" xmlns="http://www.w3.org/2000/svg">
<path d="M15.6475 19.6174C16.9038 18.5614 17.8049 17.1446 18.2287 15.559C18.6524 13.9735 18.5783 12.296 18.0163 10.7541C17.4544 9.21209 16.4317 7.88027 15.0872 6.93922C13.7426 5.99816 12.1411 5.49341 10.5 5.49341C8.85877 5.49341 7.2573 5.99816 5.91273 6.93922C4.56816 7.88027 3.54554 9.21209 2.98357 10.7541C2.4216 12.296 2.34747 13.9735 2.77123 15.559C3.19499 17.1446 4.09613 18.5614 5.35245 19.6174C3.39068 20.5044 1.6906 21.8821 0.416201 23.6174C0.180821 23.9381 0.0824981 24.3393 0.142861 24.7325C0.203225 25.1257 0.41733 25.4789 0.738076 25.7143C1.05882 25.9497 1.45994 26.048 1.85318 25.9876C2.24642 25.9272 2.59957 25.7131 2.83495 25.3924C3.71713 24.1876 4.8709 23.2077 6.20267 22.5322C7.53443 21.8567 9.00668 21.5047 10.5 21.5047C11.9932 21.5047 13.4655 21.8567 14.7972 22.5322C16.129 23.2077 17.2828 24.1876 18.165 25.3924C18.4003 25.7133 18.7535 25.9276 19.1469 25.9881C19.5403 26.0485 19.9415 25.9503 20.2625 25.7149C20.5834 25.4795 20.7976 25.1263 20.8581 24.7329C20.9186 24.3396 20.8203 23.9383 20.5849 23.6174C19.3098 21.8823 17.6094 20.5047 15.6475 19.6174ZM5.49995 13.4999C5.49995 12.511 5.7932 11.5443 6.3426 10.722C6.89201 9.8998 7.6729 9.25894 8.58653 8.8805C9.50016 8.50206 10.5055 8.40304 11.4754 8.59597C12.4453 8.7889 13.3362 9.2651 14.0355 9.96436C14.7347 10.6636 15.211 11.5545 15.4039 12.5244C15.5968 13.4944 15.4978 14.4997 15.1193 15.4133C14.7409 16.3269 14.1 17.1078 13.2778 17.6572C12.4556 18.2067 11.4889 18.4999 10.5 18.4999C9.17387 18.4999 7.9021 17.9731 6.96442 17.0354C6.02674 16.0977 5.49995 14.826 5.49995 13.4999ZM31.2625 25.7086C31.1037 25.8253 30.9234 25.9096 30.7321 25.9566C30.5407 26.0036 30.3419 26.0124 30.1471 25.9826C29.9524 25.9528 29.7654 25.8849 29.5968 25.7827C29.4283 25.6806 29.2815 25.5463 29.165 25.3874C28.2806 24.1849 27.1264 23.2067 25.7951 22.5315C24.4638 21.8563 22.9927 21.5029 21.5 21.4999C21.1021 21.4999 20.7206 21.3419 20.4393 21.0606C20.158 20.7793 20 20.3977 20 19.9999C20 19.6021 20.158 19.2205 20.4393 18.9392C20.7206 18.6579 21.1021 18.4999 21.5 18.4999C22.2362 18.499 22.9631 18.3356 23.6288 18.0213C24.2945 17.707 24.8827 17.2495 25.3511 16.6816C25.8196 16.1137 26.1569 15.4493 26.3389 14.736C26.5209 14.0226 26.5431 13.2779 26.404 12.555C26.2649 11.832 25.9678 11.1487 25.534 10.5539C25.1002 9.95905 24.5405 9.46733 23.8947 9.11387C23.2489 8.76041 22.533 8.55392 21.7981 8.50915C21.0633 8.46439 20.3276 8.58244 19.6437 8.8549C19.4605 8.92991 19.2642 8.96792 19.0663 8.96673C18.8683 8.96554 18.6725 8.92517 18.4903 8.84795C18.308 8.77074 18.1428 8.6582 18.0042 8.51683C17.8656 8.37546 17.7564 8.20806 17.6828 8.02427C17.6092 7.84049 17.5727 7.64395 17.5755 7.446C17.5782 7.24805 17.6201 7.0526 17.6987 6.87092C17.7774 6.68924 17.8912 6.52492 18.0336 6.38744C18.1761 6.24996 18.3443 6.14204 18.5287 6.0699C20.2941 5.36308 22.2535 5.30824 24.0557 5.91521C25.8579 6.52218 27.3849 7.75126 28.363 9.38209C29.341 11.0129 29.7062 12.9388 29.393 14.8145C29.0797 16.6901 28.1086 18.3929 26.6537 19.6174C28.6155 20.5044 30.3156 21.8821 31.59 23.6174C31.823 23.9384 31.9194 24.3387 31.858 24.7306C31.7966 25.1226 31.5825 25.4742 31.2625 25.7086Z" fill="black"/>
</svg>
