<svg width="32" height="32" viewBox="0 0 32 32" fill="none" xmlns="http://www.w3.org/2000/svg">
<path d="M27 4.5H5C4.33696 4.5 3.70107 4.76339 3.23223 5.23223C2.76339 5.70107 2.5 6.33696 2.5 7V25C2.5 25.663 2.76339 26.2989 3.23223 26.7678C3.70107 27.2366 4.33696 27.5 5 27.5H27C27.663 27.5 28.2989 27.2366 28.7678 26.7678C29.2366 26.2989 29.5 25.663 29.5 25V7C29.5 6.33696 29.2366 5.70107 28.7678 5.23223C28.2989 4.76339 27.663 4.5 27 4.5ZM12.5 16C12.5 15.3078 12.7053 14.6311 13.0899 14.0555C13.4744 13.4799 14.0211 13.0313 14.6606 12.7664C15.3001 12.5015 16.0039 12.4322 16.6828 12.5673C17.3617 12.7023 17.9854 13.0356 18.4749 13.5251C18.9644 14.0146 19.2977 14.6383 19.4327 15.3172C19.5678 15.9961 19.4985 16.6999 19.2336 17.3394C18.9687 17.9789 18.5201 18.5256 17.9445 18.9101C17.3689 19.2947 16.6922 19.5 16 19.5C15.0717 19.5 14.1815 19.1313 13.5251 18.4749C12.8687 17.8185 12.5 16.9283 12.5 16ZM16 22.5C17.8943 22.4939 19.72 23.209 21.1063 24.5H10.8938C12.28 23.209 14.1057 22.4939 16 22.5ZM26.5 24.5H24.945C23.9096 22.8027 22.4108 21.4365 20.625 20.5625C21.5259 19.6502 22.1368 18.4919 22.381 17.2333C22.6252 15.9747 22.4917 14.6719 21.9974 13.489C21.503 12.306 20.6699 11.2957 19.6027 10.5851C18.5356 9.87445 17.2821 9.49529 16 9.49529C14.7179 9.49529 13.4644 9.87445 12.3973 10.5851C11.3301 11.2957 10.497 12.306 10.0026 13.489C9.50827 14.6719 9.37479 15.9747 9.61899 17.2333C9.86318 18.4919 10.4741 19.6502 11.375 20.5625C9.58922 21.4365 8.09038 22.8027 7.055 24.5H5.5V7.5H26.5V24.5Z" fill="black"/>
</svg>
