<svg width="32" height="32" viewBox="0 0 32 32" fill="none" xmlns="http://www.w3.org/2000/svg">
<path d="M28.5 6V9.5C28.5 9.89782 28.342 10.2794 28.0607 10.5607C27.7794 10.842 27.3978 11 27 11C26.6022 11 26.2206 10.842 25.9393 10.5607C25.658 10.2794 25.5 9.89782 25.5 9.5V6.5H22.5C22.1022 6.5 21.7206 6.34196 21.4393 6.06066C21.158 5.77936 21 5.39782 21 5C21 4.60218 21.158 4.22064 21.4393 3.93934C21.7206 3.65804 22.1022 3.5 22.5 3.5H26C26.663 3.5 27.2989 3.76339 27.7678 4.23223C28.2366 4.70107 28.5 5.33696 28.5 6ZM27 21C26.6022 21 26.2206 21.158 25.9393 21.4393C25.658 21.7206 25.5 22.1022 25.5 22.5V25.5H22.5C22.1022 25.5 21.7206 25.658 21.4393 25.9393C21.158 26.2206 21 26.6022 21 27C21 27.3978 21.158 27.7794 21.4393 28.0607C21.7206 28.342 22.1022 28.5 22.5 28.5H26C26.663 28.5 27.2989 28.2366 27.7678 27.7678C28.2366 27.2989 28.5 26.663 28.5 26V22.5C28.5 22.1022 28.342 21.7206 28.0607 21.4393C27.7794 21.158 27.3978 21 27 21ZM9.5 25.5H6.5V22.5C6.5 22.1022 6.34196 21.7206 6.06066 21.4393C5.77936 21.158 5.39782 21 5 21C4.60218 21 4.22064 21.158 3.93934 21.4393C3.65804 21.7206 3.5 22.1022 3.5 22.5V26C3.5 26.663 3.76339 27.2989 4.23223 27.7678C4.70107 28.2366 5.33696 28.5 6 28.5H9.5C9.89782 28.5 10.2794 28.342 10.5607 28.0607C10.842 27.7794 11 27.3978 11 27C11 26.6022 10.842 26.2206 10.5607 25.9393C10.2794 25.658 9.89782 25.5 9.5 25.5ZM5 11C5.39782 11 5.77936 10.842 6.06066 10.5607C6.34196 10.2794 6.5 9.89782 6.5 9.5V6.5H9.5C9.89782 6.5 10.2794 6.34196 10.5607 6.06066C10.842 5.77936 11 5.39782 11 5C11 4.60218 10.842 4.22064 10.5607 3.93934C10.2794 3.65804 9.89782 3.5 9.5 3.5H6C5.33696 3.5 4.70107 3.76339 4.23223 4.23223C3.76339 4.70107 3.5 5.33696 3.5 6V9.5C3.5 9.89782 3.65804 10.2794 3.93934 10.5607C4.22064 10.842 4.60218 11 5 11ZM22 22.5C21.7672 22.5001 21.5376 22.4461 21.3294 22.3422C21.1211 22.2383 20.9398 22.0873 20.8 21.9013C20.2412 21.1556 19.5163 20.5504 18.683 20.1335C17.8496 19.7166 16.9306 19.4996 15.9987 19.4996C15.0669 19.4996 14.1479 19.7166 13.3145 20.1335C12.4812 20.5504 11.7563 21.1556 11.1975 21.9013C10.9556 22.2111 10.6017 22.4136 10.212 22.4652C9.82234 22.5168 9.42797 22.4133 9.11377 22.1771C8.79958 21.9409 8.59066 21.5908 8.53198 21.2021C8.4733 20.8134 8.56954 20.4172 8.8 20.0987C9.5956 19.0346 10.6166 18.1596 11.79 17.5362C11.1156 16.7346 10.6842 15.7571 10.5465 14.7187C10.4088 13.6802 10.5705 12.624 11.0126 11.6743C11.4547 10.7247 12.1588 9.92098 13.0421 9.35785C13.9254 8.79473 14.9512 8.49557 15.9987 8.49557C17.0463 8.49557 18.0721 8.79473 18.9554 9.35785C19.8387 9.92098 20.5428 10.7247 20.9849 11.6743C21.427 12.624 21.5887 13.6802 21.451 14.7187C21.3133 15.7571 20.8819 16.7346 20.2075 17.5362C21.3809 18.1596 22.4019 19.0346 23.1975 20.0987C23.3649 20.3214 23.4669 20.5863 23.4922 20.8637C23.5175 21.1412 23.4651 21.4201 23.3408 21.6694C23.2165 21.9187 23.0252 22.1285 22.7884 22.2752C22.5516 22.4219 22.2786 22.4997 22 22.5ZM16 16.5C16.4945 16.5 16.9778 16.3534 17.3889 16.0787C17.8 15.804 18.1205 15.4135 18.3097 14.9567C18.4989 14.4999 18.5484 13.9972 18.452 13.5123C18.3555 13.0273 18.1174 12.5819 17.7678 12.2322C17.4181 11.8826 16.9727 11.6445 16.4877 11.548C16.0028 11.4516 15.5001 11.5011 15.0433 11.6903C14.5865 11.8795 14.196 12.2 13.9213 12.6111C13.6466 13.0222 13.5 13.5055 13.5 14C13.5 14.663 13.7634 15.2989 14.2322 15.7678C14.7011 16.2366 15.337 16.5 16 16.5Z" fill="black"/>
</svg>
