<svg width="32" height="32" viewBox="0 0 32 32" fill="none" xmlns="http://www.w3.org/2000/svg">
<path d="M29.2973 26.25C27.5835 23.2421 24.9074 20.8984 21.6998 19.5962C23.2949 18.3999 24.4732 16.732 25.0677 14.8288C25.6622 12.9256 25.6428 10.8836 25.0123 8.99205C24.3818 7.10049 23.1721 5.45526 21.5546 4.28942C19.937 3.12357 17.9937 2.49622 15.9998 2.49622C14.0059 2.49622 12.0626 3.12357 10.4451 4.28942C8.82754 5.45526 7.61784 7.10049 6.98732 8.99205C6.3568 10.8836 6.33742 12.9256 6.93193 14.8288C7.52644 16.732 8.7047 18.3999 10.2998 19.5962C7.09221 20.8984 4.41612 23.2421 2.70231 26.25C2.59612 26.4207 2.52534 26.6111 2.49419 26.8097C2.46303 27.0084 2.47214 27.2113 2.52096 27.4063C2.56979 27.6014 2.65733 27.7847 2.7784 27.9452C2.89946 28.1058 3.05157 28.2403 3.22568 28.3409C3.39979 28.4415 3.59235 28.5061 3.79191 28.5308C3.99147 28.5555 4.19396 28.5398 4.38733 28.4847C4.58071 28.4295 4.76103 28.3361 4.91757 28.2099C5.07411 28.0836 5.20367 27.9273 5.29856 27.75C7.56356 23.835 11.5636 21.5 15.9998 21.5C20.4361 21.5 24.4361 23.8362 26.7011 27.75C26.9067 28.0806 27.2329 28.3184 27.6106 28.4129C27.9884 28.5075 28.3881 28.4514 28.7252 28.2566C29.0624 28.0618 29.3106 27.7435 29.4173 27.3691C29.5241 26.9946 29.4811 26.5933 29.2973 26.25ZM9.49981 12C9.49981 10.7144 9.88103 9.45768 10.5953 8.38876C11.3095 7.31984 12.3246 6.48672 13.5124 5.99475C14.7001 5.50278 16.007 5.37406 17.2679 5.62486C18.5288 5.87567 19.687 6.49473 20.596 7.40377C21.505 8.31281 22.1241 9.471 22.3749 10.7319C22.6257 11.9928 22.497 13.2997 22.005 14.4874C21.5131 15.6751 20.6799 16.6903 19.611 17.4045C18.5421 18.1187 17.2854 18.5 15.9998 18.5C14.2765 18.498 12.6244 17.8125 11.4058 16.594C10.1873 15.3754 9.5018 13.7233 9.49981 12Z" fill="black"/>
</svg>
