<svg width="32" height="32" viewBox="0 0 32 32" fill="none" xmlns="http://www.w3.org/2000/svg">
<path d="M31.6388 14.0225L25.9425 7.38625C25.7081 7.10811 25.4156 6.88464 25.0857 6.73154C24.7557 6.57844 24.3962 6.49941 24.0325 6.5H4C3.33696 6.5 2.70107 6.7634 2.23223 7.23224C1.76339 7.70108 1.5 8.33696 1.5 9V23C1.5 23.663 1.76339 24.2989 2.23223 24.7678C2.70107 25.2366 3.33696 25.5 4 25.5H5.7575C6.06775 26.3773 6.64232 27.1368 7.4021 27.674C8.16187 28.2112 9.0695 28.4996 10 28.4996C10.9305 28.4996 11.8381 28.2112 12.5979 27.674C13.3577 27.1368 13.9323 26.3773 14.2425 25.5H19.2575C19.5677 26.3773 20.1423 27.1368 20.9021 27.674C21.6619 28.2112 22.5695 28.4996 23.5 28.4996C24.4305 28.4996 25.3381 28.2112 26.0979 27.674C26.8577 27.1368 27.4323 26.3773 27.7425 25.5H29.5C30.163 25.5 30.7989 25.2366 31.2678 24.7678C31.7366 24.2989 32 23.663 32 23V15C31.9997 14.6416 31.8716 14.295 31.6388 14.0225ZM27.2362 13.5H22V9.5H23.8025L27.2362 13.5ZM13 13.5V9.5H19V13.5H13ZM10 9.5V13.5H4.5V9.5H10ZM10 25.5C9.70333 25.5 9.41332 25.412 9.16665 25.2472C8.91997 25.0824 8.72771 24.8481 8.61418 24.574C8.50065 24.2999 8.47094 23.9983 8.52882 23.7074C8.5867 23.4164 8.72956 23.1491 8.93934 22.9393C9.14912 22.7296 9.41639 22.5867 9.70736 22.5288C9.99834 22.4709 10.2999 22.5007 10.574 22.6142C10.8481 22.7277 11.0824 22.92 11.2472 23.1666C11.412 23.4133 11.5 23.7033 11.5 24C11.5 24.3978 11.342 24.7794 11.0607 25.0607C10.7794 25.342 10.3978 25.5 10 25.5ZM23.5 25.5C23.2033 25.5 22.9133 25.412 22.6666 25.2472C22.42 25.0824 22.2277 24.8481 22.1142 24.574C22.0007 24.2999 21.9709 23.9983 22.0288 23.7074C22.0867 23.4164 22.2296 23.1491 22.4393 22.9393C22.6491 22.7296 22.9164 22.5867 23.2074 22.5288C23.4983 22.4709 23.7999 22.5007 24.074 22.6142C24.3481 22.7277 24.5824 22.92 24.7472 23.1666C24.912 23.4133 25 23.7033 25 24C25 24.3978 24.842 24.7794 24.5607 25.0607C24.2794 25.342 23.8978 25.5 23.5 25.5ZM27.7425 22.5C27.4323 21.6227 26.8577 20.8632 26.0979 20.326C25.3381 19.7889 24.4305 19.5004 23.5 19.5004C22.5695 19.5004 21.6619 19.7889 20.9021 20.326C20.1423 20.8632 19.5677 21.6227 19.2575 22.5H14.2425C13.9323 21.6227 13.3577 20.8632 12.5979 20.326C11.8381 19.7889 10.9305 19.5004 10 19.5004C9.0695 19.5004 8.16187 19.7889 7.4021 20.326C6.64232 20.8632 6.06775 21.6227 5.7575 22.5H4.5V16.5H29V22.5H27.7425Z" fill="black"/>
</svg>
