<svg width="32" height="32" viewBox="0 0 32 32" fill="none" xmlns="http://www.w3.org/2000/svg">
<path d="M27 4.5H5C4.33696 4.5 3.70107 4.76339 3.23223 5.23223C2.76339 5.70107 2.5 6.33696 2.5 7V24C2.5 24.663 2.76339 25.2989 3.23223 25.7678C3.70107 26.2366 4.33696 26.5 5 26.5H6.5V28C6.5 28.3978 6.65804 28.7794 6.93934 29.0607C7.22064 29.342 7.60218 29.5 8 29.5C8.39782 29.5 8.77936 29.342 9.06066 29.0607C9.34196 28.7794 9.5 28.3978 9.5 28V26.5H22.5V28C22.5 28.3978 22.658 28.7794 22.9393 29.0607C23.2206 29.342 23.6022 29.5 24 29.5C24.3978 29.5 24.7794 29.342 25.0607 29.0607C25.342 28.7794 25.5 28.3978 25.5 28V26.5H27C27.663 26.5 28.2989 26.2366 28.7678 25.7678C29.2366 25.2989 29.5 24.663 29.5 24V7C29.5 6.33696 29.2366 5.70107 28.7678 5.23223C28.2989 4.76339 27.663 4.5 27 4.5ZM5.5 23.5V7.5H26.5V14.5H23.79C23.428 13.2228 22.6162 12.1197 21.5045 11.3941C20.3928 10.6686 19.0562 10.3696 17.7413 10.5524C16.4264 10.7351 15.222 11.3873 14.3503 12.3885C13.4786 13.3898 12.9985 14.6725 12.9985 16C12.9985 17.3275 13.4786 18.6102 14.3503 19.6115C15.222 20.6127 16.4264 21.2649 17.7413 21.4476C19.0562 21.6304 20.3928 21.3314 21.5045 20.6059C22.6162 19.8803 23.428 18.7772 23.79 17.5H26.5V23.5H5.5ZM21 16C21 16.4945 20.8534 16.9778 20.5787 17.3889C20.304 17.8 19.9135 18.1205 19.4567 18.3097C18.9999 18.4989 18.4972 18.5484 18.0123 18.452C17.5273 18.3555 17.0819 18.1174 16.7322 17.7678C16.3826 17.4181 16.1445 16.9727 16.048 16.4877C15.9516 16.0028 16.0011 15.5001 16.1903 15.0433C16.3795 14.5865 16.7 14.196 17.1111 13.9213C17.5222 13.6466 18.0055 13.5 18.5 13.5C19.163 13.5 19.7989 13.7634 20.2678 14.2322C20.7366 14.7011 21 15.337 21 16Z" fill="black"/>
</svg>
