<svg width="32" height="32" viewBox="0 0 32 32" fill="none" xmlns="http://www.w3.org/2000/svg">
<path d="M20.5 3.5H11.5C10.5717 3.5 9.6815 3.86875 9.02513 4.52513C8.36875 5.1815 8 6.07174 8 7V25C8 25.9283 8.36875 26.8185 9.02513 27.4749C9.6815 28.1313 10.5717 28.5 11.5 28.5H20.5C21.4283 28.5 22.3185 28.1313 22.9749 27.4749C23.6313 26.8185 24 25.9283 24 25V7C24 6.07174 23.6313 5.1815 22.9749 4.52513C22.3185 3.86875 21.4283 3.5 20.5 3.5ZM21 25C21 25.1326 20.9473 25.2598 20.8536 25.3536C20.7598 25.4473 20.6326 25.5 20.5 25.5H11.5C11.3674 25.5 11.2402 25.4473 11.1464 25.3536C11.0527 25.2598 11 25.1326 11 25V7C11 6.86739 11.0527 6.74021 11.1464 6.64645C11.2402 6.55268 11.3674 6.5 11.5 6.5H20.5C20.6326 6.5 20.7598 6.55268 20.8536 6.64645C20.9473 6.74021 21 6.86739 21 7V25ZM29 12.5V19.5C29 19.8978 28.842 20.2794 28.5607 20.5607C28.2794 20.842 27.8978 21 27.5 21C27.1022 21 26.7206 20.842 26.4393 20.5607C26.158 20.2794 26 19.8978 26 19.5V12.5C26 12.1022 26.158 11.7206 26.4393 11.4393C26.7206 11.158 27.1022 11 27.5 11C27.8978 11 28.2794 11.158 28.5607 11.4393C28.842 11.7206 29 12.1022 29 12.5ZM6 12.5V19.5C6 19.8978 5.84196 20.2794 5.56066 20.5607C5.27936 20.842 4.89782 21 4.5 21C4.10218 21 3.72064 20.842 3.43934 20.5607C3.15804 20.2794 3 19.8978 3 19.5V12.5C3 12.1022 3.15804 11.7206 3.43934 11.4393C3.72064 11.158 4.10218 11 4.5 11C4.89782 11 5.27936 11.158 5.56066 11.4393C5.84196 11.7206 6 12.1022 6 12.5Z" fill="black"/>
</svg>
