<svg width="32" height="32" viewBox="0 0 32 32" fill="none" xmlns="http://www.w3.org/2000/svg">
<path d="M27 4.5H5C4.33696 4.5 3.70107 4.76339 3.23223 5.23223C2.76339 5.70107 2.5 6.33696 2.5 7V20C2.5 20.663 2.76339 21.2989 3.23223 21.7678C3.70107 22.2366 4.33696 22.5 5 22.5H27C27.663 22.5 28.2989 22.2366 28.7678 21.7678C29.2366 21.2989 29.5 20.663 29.5 20V7C29.5 6.33696 29.2366 5.70107 28.7678 5.23223C28.2989 4.76339 27.663 4.5 27 4.5ZM26.5 19.5H5.5V7.5H26.5V19.5ZM29.5 26C29.5 26.3978 29.342 26.7794 29.0607 27.0607C28.7794 27.342 28.3978 27.5 28 27.5H4C3.60218 27.5 3.22064 27.342 2.93934 27.0607C2.65804 26.7794 2.5 26.3978 2.5 26C2.5 25.6022 2.65804 25.2206 2.93934 24.9393C3.22064 24.658 3.60218 24.5 4 24.5H28C28.3978 24.5 28.7794 24.658 29.0607 24.9393C29.342 25.2206 29.5 25.6022 29.5 26ZM13 16V11C12.9999 10.7322 13.0715 10.4693 13.2074 10.2385C13.3432 10.0077 13.5384 9.81751 13.7726 9.68765C14.0068 9.55779 14.2715 9.493 14.5392 9.50001C14.807 9.50702 15.0679 9.58557 15.295 9.7275L19.295 12.2275C19.511 12.3623 19.6891 12.5498 19.8125 12.7724C19.936 12.9951 20.0008 13.2454 20.0008 13.5C20.0008 13.7546 19.936 14.0049 19.8125 14.2276C19.6891 14.4502 19.511 14.6377 19.295 14.7725L15.295 17.2725C15.0679 17.4144 14.807 17.493 14.5392 17.5C14.2715 17.507 14.0068 17.4422 13.7726 17.3123C13.5384 17.1825 13.3432 16.9923 13.2074 16.7615C13.0715 16.5307 12.9999 16.2678 13 16Z" fill="black"/>
</svg>
