<svg width="32" height="32" viewBox="0 0 32 32" fill="none" xmlns="http://www.w3.org/2000/svg">
<path d="M31.1812 8.66388C30.9345 8.53836 30.6577 8.4836 30.3817 8.50566C30.1057 8.52772 29.8412 8.62575 29.6175 8.78888L26.5 11.0539V9.00013C26.5 8.33708 26.2366 7.7012 25.7678 7.23236C25.2989 6.76352 24.663 6.50013 24 6.50013H15.485C15.0872 6.50013 14.7056 6.65816 14.4243 6.93947C14.143 7.22077 13.985 7.6023 13.985 8.00013C13.985 8.39795 14.143 8.77948 14.4243 9.06079C14.7056 9.34209 15.0872 9.50013 15.485 9.50013H23.5V18.0001C23.5001 18.2238 23.5502 18.4446 23.6467 18.6464C23.7431 18.8482 23.8835 19.0258 24.0575 19.1664C24.0763 19.1826 24.0963 19.1976 24.1175 19.2139L29.6175 23.2139C29.8413 23.3767 30.1058 23.4745 30.3818 23.4963C30.6577 23.5181 30.9343 23.4631 31.1809 23.3375C31.4275 23.2119 31.6346 23.0204 31.7792 22.7844C31.9237 22.5484 32.0002 22.2769 32 22.0001V10.0001C32 9.72356 31.9235 9.45239 31.779 9.21658C31.6345 8.98076 31.4276 8.78948 31.1812 8.66388ZM29 19.0539L26.5 17.2364V14.7639L29 12.9464V19.0539ZM7.11 3.99138C6.97827 3.84289 6.81838 3.72202 6.6396 3.63578C6.46082 3.54954 6.2667 3.49965 6.06849 3.48898C5.87028 3.47832 5.67192 3.5071 5.48492 3.57366C5.29791 3.64022 5.12598 3.74324 4.97908 3.87674C4.83218 4.01023 4.71324 4.17156 4.62915 4.35137C4.54506 4.53117 4.4975 4.72588 4.48921 4.9242C4.48093 5.12252 4.51208 5.32052 4.58088 5.50671C4.64968 5.6929 4.75475 5.86359 4.89 6.00888L5.33625 6.50013H4C3.33696 6.50013 2.70107 6.76352 2.23223 7.23236C1.76339 7.7012 1.5 8.33708 1.5 9.00013V23.0001C1.5 23.6632 1.76339 24.2991 2.23223 24.7679C2.70107 25.2367 3.33696 25.5001 4 25.5001H22.6087L24.89 28.0089C25.1589 28.2978 25.5309 28.469 25.9253 28.4855C26.3197 28.502 26.7046 28.3624 26.9967 28.0969C27.2888 27.8314 27.4645 27.4615 27.4857 27.0674C27.5069 26.6733 27.3719 26.2866 27.11 25.9914L7.11 3.99138ZM4.5 22.5001V9.50013H8.06375L19.8825 22.5001H4.5Z" fill="black"/>
</svg>
