<svg width="32" height="32" viewBox="0 0 32 32" fill="none" xmlns="http://www.w3.org/2000/svg">
<path d="M27 4.5H5C4.33696 4.5 3.70107 4.76339 3.23223 5.23223C2.76339 5.70107 2.5 6.33696 2.5 7V25C2.5 25.663 2.76339 26.2989 3.23223 26.7678C3.70107 27.2366 4.33696 27.5 5 27.5H27C27.663 27.5 28.2989 27.2366 28.7678 26.7678C29.2366 26.2989 29.5 25.663 29.5 25V7C29.5 6.33696 29.2366 5.70107 28.7678 5.23223C28.2989 4.76339 27.663 4.5 27 4.5ZM26.5 24.5H5.5V7.5H26.5V24.5ZM10.1788 20.7563C11.75 21.8813 13.82 22.5 16 22.5C18.18 22.5 20.25 21.8813 21.8213 20.7563C23.5238 19.54 24.5 17.8062 24.5 16C24.5 14.1938 23.5238 12.46 21.8213 11.25C20.25 10.125 18.18 9.5 16 9.5C13.82 9.5 11.75 10.125 10.1788 11.25C8.47625 12.46 7.5 14.1938 7.5 16C7.5 17.8062 8.47625 19.54 10.1788 20.7563ZM16 12.5C18.9813 12.5 21.5 14.1025 21.5 16C21.5 17.8975 18.9813 19.5 16 19.5C13.0188 19.5 10.5 17.8975 10.5 16C10.5 14.1025 13.0188 12.5 16 12.5Z" fill="black"/>
</svg>
