<svg width="32" height="32" viewBox="0 0 32 32" fill="none" xmlns="http://www.w3.org/2000/svg">
<path d="M16 2.5C13.33 2.5 10.7199 3.29176 8.49981 4.77516C6.27974 6.25856 4.54942 8.36697 3.52763 10.8338C2.50585 13.3006 2.2385 16.015 2.7594 18.6337C3.28031 21.2525 4.56606 23.6579 6.45406 25.5459C8.34207 27.434 10.7475 28.7197 13.3663 29.2406C15.985 29.7615 18.6994 29.4942 21.1662 28.4724C23.633 27.4506 25.7414 25.7203 27.2248 23.5002C28.7082 21.2801 29.5 18.67 29.5 16C29.496 12.4208 28.0724 8.98932 25.5416 6.45844C23.0107 3.92756 19.5792 2.50397 16 2.5ZM16 26.5C13.9233 26.5 11.8932 25.8842 10.1665 24.7304C8.4398 23.5767 7.09399 21.9368 6.29927 20.0182C5.50455 18.0996 5.29662 15.9884 5.70176 13.9516C6.10691 11.9148 7.10693 10.0438 8.57538 8.57538C10.0438 7.10693 11.9148 6.1069 13.9516 5.70175C15.9884 5.29661 18.0996 5.50454 20.0182 6.29926C21.9368 7.09399 23.5767 8.4398 24.7304 10.1665C25.8842 11.8932 26.5 13.9233 26.5 16C26.497 18.7839 25.3898 21.4528 23.4213 23.4213C21.4529 25.3898 18.7839 26.497 16 26.5ZM16 11C14.6739 11 13.4022 11.5268 12.4645 12.4645C11.5268 13.4021 11 14.6739 11 16C11 16.3978 10.842 16.7794 10.5607 17.0607C10.2794 17.342 9.89783 17.5 9.50001 17.5C9.10218 17.5 8.72065 17.342 8.43935 17.0607C8.15804 16.7794 8.00001 16.3978 8.00001 16C8.00232 13.879 8.84592 11.8455 10.3457 10.3457C11.8455 8.84591 13.879 8.00232 16 8C16.3978 8 16.7794 8.15804 17.0607 8.43934C17.342 8.72064 17.5 9.10218 17.5 9.5C17.5 9.89782 17.342 10.2794 17.0607 10.5607C16.7794 10.842 16.3978 11 16 11ZM24 16C23.9977 18.121 23.1541 20.1545 21.6543 21.6543C20.1545 23.1541 18.121 23.9977 16 24C15.6022 24 15.2206 23.842 14.9393 23.5607C14.658 23.2794 14.5 22.8978 14.5 22.5C14.5 22.1022 14.658 21.7206 14.9393 21.4393C15.2206 21.158 15.6022 21 16 21C17.3261 21 18.5979 20.4732 19.5355 19.5355C20.4732 18.5979 21 17.3261 21 16C21 15.6022 21.158 15.2206 21.4393 14.9393C21.7207 14.658 22.1022 14.5 22.5 14.5C22.8978 14.5 23.2794 14.658 23.5607 14.9393C23.842 15.2206 24 15.6022 24 16ZM16 18.5C15.5056 18.5 15.0222 18.3534 14.6111 18.0787C14.2 17.804 13.8795 17.4135 13.6903 16.9567C13.5011 16.4999 13.4516 15.9972 13.548 15.5123C13.6445 15.0273 13.8826 14.5819 14.2322 14.2322C14.5819 13.8826 15.0273 13.6445 15.5123 13.548C15.9972 13.4516 16.4999 13.5011 16.9567 13.6903C17.4135 13.8795 17.804 14.2 18.0787 14.6111C18.3534 15.0222 18.5 15.5055 18.5 16C18.5 16.663 18.2366 17.2989 17.7678 17.7678C17.2989 18.2366 16.663 18.5 16 18.5Z" fill="black"/>
</svg>
