<svg width="32" height="32" viewBox="0 0 32 32" fill="none" xmlns="http://www.w3.org/2000/svg">
<path d="M15.39 12.565L12.14 20.565C12.0278 20.8417 11.8356 21.0785 11.5879 21.2453C11.3403 21.4121 11.0485 21.5012 10.75 21.5012C10.4515 21.5012 10.1597 21.4121 9.91207 21.2453C9.66444 21.0785 9.47222 20.8417 9.36 20.565L6.11 12.565C5.97267 12.1988 5.98382 11.7934 6.14107 11.4353C6.29832 11.0771 6.58924 10.7946 6.95181 10.6479C7.31438 10.5011 7.71992 10.5018 8.08198 10.6498C8.44404 10.7978 8.73398 11.0813 8.89 11.44L10.75 16.015L12.61 11.435C12.766 11.0763 13.056 10.7928 13.418 10.6448C13.7801 10.4968 14.1856 10.4961 14.5482 10.6429C14.9108 10.7896 15.2017 11.0721 15.3589 11.4303C15.5162 11.7884 15.5273 12.1938 15.39 12.56V12.565ZM32 16C31.997 18.7839 30.8898 21.4528 28.9213 23.4213C26.9528 25.3898 24.2839 26.497 21.5 26.5H10.5C7.71523 26.5 5.04451 25.3938 3.07538 23.4246C1.10625 21.4555 0 18.7848 0 16C0 13.2152 1.10625 10.5445 3.07538 8.57538C5.04451 6.60625 7.71523 5.5 10.5 5.5H21.5C24.2839 5.50298 26.9528 6.61018 28.9213 8.57867C30.8898 10.5472 31.997 13.2161 32 16ZM29 16C28.9977 14.0116 28.2068 12.1053 26.8007 10.6993C25.3947 9.29324 23.4884 8.50232 21.5 8.5H10.5C8.51088 8.5 6.60322 9.29018 5.1967 10.6967C3.79018 12.1032 3 14.0109 3 16C3 17.9891 3.79018 19.8968 5.1967 21.3033C6.60322 22.7098 8.51088 23.5 10.5 23.5H21.5C23.4884 23.4977 25.3947 22.7068 26.8007 21.3007C28.2068 19.8947 28.9977 17.9884 29 16ZM23.75 17.405L24.8075 19.2563C24.9056 19.4276 24.9689 19.6166 24.994 19.8125C25.019 20.0084 25.0052 20.2072 24.9534 20.3978C24.9016 20.5883 24.8127 20.7668 24.6919 20.923C24.5711 21.0792 24.4207 21.21 24.2494 21.3081C24.078 21.4062 23.889 21.4696 23.6931 21.4946C23.4973 21.5196 23.2984 21.5058 23.1078 21.454C22.9173 21.4022 22.7388 21.3133 22.5827 21.1925C22.4265 21.0718 22.2956 20.9214 22.1975 20.75L20.915 18.5H20V20C20 20.3978 19.842 20.7794 19.5607 21.0607C19.2794 21.342 18.8978 21.5 18.5 21.5C18.1022 21.5 17.7206 21.342 17.4393 21.0607C17.158 20.7794 17 20.3978 17 20V12C17 11.6022 17.158 11.2206 17.4393 10.9393C17.7206 10.658 18.1022 10.5 18.5 10.5H21C21.8005 10.4999 22.5826 10.7401 23.2452 11.1893C23.9077 11.6386 24.4202 12.2763 24.7164 13.02C25.0126 13.7637 25.0788 14.5792 24.9065 15.3609C24.7342 16.1426 24.3314 16.8547 23.75 17.405ZM20 15.5H21C21.2652 15.5 21.5196 15.3946 21.7071 15.2071C21.8946 15.0196 22 14.7652 22 14.5C22 14.2348 21.8946 13.9804 21.7071 13.7929C21.5196 13.6054 21.2652 13.5 21 13.5H20V15.5Z" fill="black"/>
</svg>
