<svg width="32" height="32" viewBox="0 0 32 32" fill="none" xmlns="http://www.w3.org/2000/svg">
<path d="M28 5.5H4C3.60218 5.5 3.22064 5.65804 2.93934 5.93934C2.65804 6.22064 2.5 6.60218 2.5 7V25C2.5 25.3978 2.65804 25.7794 2.93934 26.0607C3.22064 26.342 3.60218 26.5 4 26.5H28C28.3978 26.5 28.7794 26.342 29.0607 26.0607C29.342 25.7794 29.5 25.3978 29.5 25V7C29.5 6.60218 29.342 6.22064 29.0607 5.93934C28.7794 5.65804 28.3978 5.5 28 5.5ZM11.5 17.5V14.5H20.5V17.5H11.5ZM5.5 17.5V14.5H8.5V17.5H5.5ZM23.5 14.5H26.5V17.5H23.5V14.5ZM26.5 11.5H17.5V8.5H26.5V11.5ZM14.5 8.5V11.5H5.5V8.5H14.5ZM5.5 20.5H14.5V23.5H5.5V20.5ZM17.5 23.5V20.5H26.5V23.5H17.5Z" fill="black"/>
</svg>
