<svg width="32" height="32" viewBox="0 0 32 32" fill="none" xmlns="http://www.w3.org/2000/svg">
<path d="M24.4999 17.5C24.4999 17.8956 24.3826 18.2822 24.1629 18.6111C23.9431 18.94 23.6308 19.1964 23.2653 19.3478C22.8999 19.4991 22.4977 19.5387 22.1098 19.4616C21.7218 19.3844 21.3654 19.1939 21.0857 18.9142C20.806 18.6345 20.6155 18.2781 20.5384 17.8902C20.4612 17.5022 20.5008 17.1001 20.6522 16.7346C20.8036 16.3692 21.0599 16.0568 21.3888 15.8371C21.7177 15.6173 22.1044 15.5 22.4999 15.5C23.0304 15.5 23.5391 15.7107 23.9142 16.0858C24.2892 16.4609 24.4999 16.9696 24.4999 17.5ZM29.4999 13.5V23.5C29.4999 24.5609 29.0785 25.5783 28.3284 26.3284C27.5782 27.0786 26.5608 27.5 25.4999 27.5H7.49994C6.43908 27.5 5.42166 27.0786 4.67152 26.3284C3.92137 25.5783 3.49994 24.5609 3.49994 23.5V8.615C3.48456 8.08012 3.57665 7.54758 3.77077 7.04893C3.96489 6.55027 4.25709 6.09564 4.63007 5.71194C5.00305 5.32823 5.44922 5.02327 5.94217 4.8151C6.43513 4.60693 6.96484 4.49978 7.49994 4.5H23.9999C24.3978 4.5 24.7793 4.65804 25.0606 4.93934C25.3419 5.22064 25.4999 5.60218 25.4999 6C25.4999 6.39783 25.3419 6.77936 25.0606 7.06066C24.7793 7.34197 24.3978 7.5 23.9999 7.5H7.49994C7.36584 7.49993 7.2331 7.52683 7.1096 7.57911C6.98611 7.63138 6.87439 7.70796 6.78109 7.80429C6.6878 7.90062 6.61483 8.01473 6.56653 8.13983C6.51823 8.26493 6.49559 8.39847 6.49994 8.5325V8.5425C6.52095 8.80727 6.64246 9.05398 6.83956 9.23202C7.03666 9.41006 7.29441 9.50594 7.55994 9.5H25.4999C26.5608 9.5 27.5782 9.92143 28.3284 10.6716C29.0785 11.4217 29.4999 12.4391 29.4999 13.5ZM26.4999 13.5C26.4999 13.2348 26.3946 12.9804 26.2071 12.7929C26.0195 12.6054 25.7652 12.5 25.4999 12.5H7.55994C7.20231 12.5002 6.84612 12.4548 6.49994 12.365V23.5C6.49994 23.7652 6.6053 24.0196 6.79284 24.2071C6.98037 24.3946 7.23473 24.5 7.49994 24.5H25.4999C25.7652 24.5 26.0195 24.3946 26.2071 24.2071C26.3946 24.0196 26.4999 23.7652 26.4999 23.5V13.5Z" fill="black"/>
</svg>
