<svg width="32" height="32" viewBox="0 0 32 32" fill="none" xmlns="http://www.w3.org/2000/svg">
<path d="M30 22.5002H29.5V7.64143L30.3137 7.46768C30.5091 7.42944 30.6949 7.35269 30.8603 7.24191C31.0257 7.13112 31.1675 6.98852 31.2772 6.82241C31.3869 6.65631 31.4625 6.47002 31.4995 6.27441C31.5365 6.07879 31.5342 5.87777 31.4927 5.68306C31.4512 5.48835 31.3714 5.30384 31.2579 5.1403C31.1444 4.97675 30.9994 4.83744 30.8315 4.73048C30.6636 4.62352 30.4761 4.55106 30.2799 4.51731C30.0837 4.48357 29.8827 4.48921 29.6887 4.53393L1.68875 10.5339C1.32723 10.6119 1.00727 10.8207 0.790313 11.1203C0.573359 11.4198 0.474707 11.7889 0.513303 12.1567C0.551899 12.5245 0.725021 12.8651 0.999423 13.1131C1.27383 13.3611 1.63016 13.4989 2 13.5002C2.10626 13.5004 2.21225 13.4895 2.31625 13.4677L2.50125 13.4277V22.5002H2C1.60218 22.5002 1.22064 22.6582 0.93934 22.9395C0.658035 23.2208 0.5 23.6024 0.5 24.0002C0.5 24.398 0.658035 24.7795 0.93934 25.0608C1.22064 25.3421 1.60218 25.5002 2 25.5002H30C30.3978 25.5002 30.7794 25.3421 31.0607 25.0608C31.342 24.7795 31.5 24.398 31.5 24.0002C31.5 23.6024 31.342 23.2208 31.0607 22.9395C30.7794 22.6582 30.3978 22.5002 30 22.5002ZM5.5 12.7839L26.5 8.28392V22.5002H24V15.0002C24 14.6024 23.842 14.2208 23.5607 13.9395C23.2794 13.6582 22.8978 13.5002 22.5 13.5002H9.5C9.10218 13.5002 8.72064 13.6582 8.43934 13.9395C8.15804 14.2208 8 14.6024 8 15.0002V22.5002H5.5V12.7839ZM21 18.0002H11V16.5002H21V18.0002ZM11 21.0002H21V22.5002H11V21.0002Z" fill="black"/>
</svg>
