<svg width="32" height="32" viewBox="0 0 32 32" fill="none" xmlns="http://www.w3.org/2000/svg">
<path d="M15.9999 8.99994C16.2651 8.99994 16.5195 9.1053 16.707 9.29283C16.8945 9.48037 16.9999 9.73472 16.9999 9.99994V16.9999C16.9999 17.2652 16.8945 17.5195 16.707 17.707C16.5195 17.8946 16.2651 17.9999 15.9999 17.9999C15.7347 17.9999 15.4803 17.8946 15.2928 17.707C15.1052 17.5195 14.9999 17.2652 14.9999 16.9999V9.99994C14.9999 9.73472 15.1052 9.48037 15.2928 9.29283C15.4803 9.1053 15.7347 8.99994 15.9999 8.99994ZM14.4999 21.4999C14.4999 21.7966 14.5879 22.0866 14.7527 22.3333C14.9175 22.58 15.1518 22.7722 15.4259 22.8858C15.7 22.9993 16.0015 23.029 16.2925 22.9711C16.5835 22.9132 16.8508 22.7704 17.0605 22.5606C17.2703 22.3508 17.4132 22.0835 17.4711 21.7926C17.5289 21.5016 17.4992 21.2 17.3857 20.9259C17.2722 20.6518 17.0799 20.4176 16.8332 20.2527C16.5866 20.0879 16.2966 19.9999 15.9999 19.9999C15.6021 19.9999 15.2205 20.158 14.9392 20.4393C14.6579 20.7206 14.4999 21.1021 14.4999 21.4999ZM29.9999 15.9999C30.0006 16.2619 29.9494 16.5214 29.8492 16.7634C29.749 17.0054 29.6018 17.2252 29.4161 17.4099L17.4099 29.4174C17.0352 29.7899 16.5283 29.999 15.9999 29.999C15.4715 29.999 14.9646 29.7899 14.5899 29.4174L2.58989 17.4099C2.21738 17.0352 2.0083 16.5283 2.0083 15.9999C2.0083 15.4716 2.21738 14.9647 2.58989 14.5899L14.5961 2.58244C14.9709 2.20994 15.4778 2.00085 16.0061 2.00085C16.5345 2.00085 17.0414 2.20994 17.4161 2.58244L29.4224 14.5899C29.6069 14.7752 29.753 14.9952 29.8521 15.2372C29.9512 15.4792 30.0014 15.7384 29.9999 15.9999ZM27.9999 15.9999L15.9999 3.99994L3.99989 15.9999L15.9999 27.9999L27.9999 15.9999Z" fill="black"/>
</svg>
