<svg width="32" height="32" viewBox="0 0 32 32" fill="none" xmlns="http://www.w3.org/2000/svg">
<path d="M29.1673 23.7612L18.2348 4.77745C18.0057 4.38839 17.679 4.06588 17.287 3.84181C16.895 3.61774 16.4513 3.49988 15.9998 3.49988C15.5483 3.49988 15.1046 3.61774 14.7126 3.84181C14.3207 4.06588 13.9939 4.38839 13.7648 4.77745L2.83233 23.7612C2.61374 24.1349 2.49854 24.5601 2.49854 24.9931C2.49854 25.426 2.61374 25.8512 2.83233 26.225C3.05799 26.6169 3.384 26.9416 3.77683 27.1657C4.16966 27.3898 4.61511 27.5052 5.06733 27.5H26.9323C27.3841 27.5047 27.8291 27.3892 28.2214 27.1651C28.6138 26.941 28.9394 26.6165 29.1648 26.225C29.3838 25.8514 29.4994 25.4264 29.4999 24.9934C29.5003 24.5604 29.3855 24.1352 29.1673 23.7612ZM28.2998 25.725C28.161 25.9637 27.9612 26.1613 27.7209 26.2974C27.4806 26.4336 27.2085 26.5035 26.9323 26.5H5.06733C4.79117 26.5035 4.51902 26.4336 4.27874 26.2974C4.03846 26.1613 3.83868 25.9637 3.69983 25.725C3.56786 25.5034 3.49819 25.2503 3.49819 24.9925C3.49819 24.7346 3.56786 24.4815 3.69983 24.26L14.6311 5.2762C14.7727 5.03954 14.9732 4.84364 15.2131 4.70761C15.453 4.57158 15.7241 4.50007 15.9998 4.50007C16.2756 4.50007 16.5467 4.57158 16.7866 4.70761C17.0265 4.84364 17.227 5.03954 17.3686 5.2762L28.2998 24.26C28.4318 24.4815 28.5015 24.7346 28.5015 24.9925C28.5015 25.2503 28.4318 25.5034 28.2998 25.725ZM15.4998 18V13C15.4998 12.8673 15.5525 12.7402 15.6463 12.6464C15.74 12.5526 15.8672 12.5 15.9998 12.5C16.1324 12.5 16.2596 12.5526 16.3534 12.6464C16.4472 12.7402 16.4998 12.8673 16.4998 13V18C16.4998 18.1326 16.4472 18.2597 16.3534 18.3535C16.2596 18.4473 16.1324 18.5 15.9998 18.5C15.8672 18.5 15.74 18.4473 15.6463 18.3535C15.5525 18.2597 15.4998 18.1326 15.4998 18ZM16.9998 22.5C16.9998 22.6977 16.9412 22.8911 16.8313 23.0555C16.7214 23.22 16.5652 23.3481 16.3825 23.4238C16.1998 23.4995 15.9987 23.5193 15.8047 23.4807C15.6108 23.4422 15.4326 23.3469 15.2927 23.2071C15.1529 23.0672 15.0576 22.889 15.019 22.695C14.9805 22.5011 15.0003 22.3 15.076 22.1173C15.1516 21.9345 15.2798 21.7784 15.4443 21.6685C15.6087 21.5586 15.8021 21.5 15.9998 21.5C16.2651 21.5 16.5194 21.6053 16.7069 21.7928C16.8945 21.9804 16.9998 22.2347 16.9998 22.5Z" fill="black"/>
</svg>
