<svg width="32" height="32" viewBox="0 0 32 32" fill="none" xmlns="http://www.w3.org/2000/svg">
<path d="M16.0001 8.49995C16.3979 8.49995 16.7795 8.65799 17.0608 8.93929C17.3421 9.2206 17.5001 9.60213 17.5001 9.99995V16.5C17.5001 16.8978 17.3421 17.2793 17.0608 17.5606C16.7795 17.8419 16.3979 18 16.0001 18C15.6023 18 15.2207 17.8419 14.9394 17.5606C14.6581 17.2793 14.5001 16.8978 14.5001 16.5V9.99995C14.5001 9.60213 14.6581 9.2206 14.9394 8.93929C15.2207 8.65799 15.6023 8.49995 16.0001 8.49995ZM16.0001 19.5C15.6045 19.5 15.2179 19.6173 14.889 19.837C14.5601 20.0568 14.3037 20.3691 14.1523 20.7346C14.001 21.1 13.9614 21.5022 14.0385 21.8901C14.1157 22.2781 14.3062 22.6345 14.5859 22.9142C14.8656 23.1939 15.222 23.3844 15.6099 23.4615C15.9979 23.5387 16.4 23.4991 16.7655 23.3477C17.1309 23.1963 17.4433 22.94 17.663 22.6111C17.8828 22.2822 18.0001 21.8955 18.0001 21.5C18.0001 20.9695 17.7894 20.4608 17.4143 20.0857C17.0392 19.7107 16.5305 19.5 16.0001 19.5ZM30.5001 16C30.5008 16.3276 30.4367 16.6521 30.3114 16.9548C30.1861 17.2575 30.0021 17.5324 29.7701 17.7637L17.7701 29.7712C17.3016 30.2372 16.6677 30.4988 16.007 30.4988C15.3462 30.4988 14.7123 30.2372 14.2438 29.7712L2.24385 17.7637C1.77746 17.2952 1.51562 16.661 1.51562 16C1.51562 15.3389 1.77746 14.7047 2.24385 14.2362L14.2501 2.2287C14.7186 1.76269 15.3525 1.5011 16.0132 1.5011C16.674 1.5011 17.3079 1.76269 17.7764 2.2287L29.7839 14.2362C30.0134 14.4686 30.1948 14.744 30.3178 15.0467C30.4407 15.3494 30.5026 15.6733 30.5001 16ZM27.2901 16L16.0001 4.7087L4.7101 16L16.0001 27.2912L27.2901 16Z" fill="black"/>
</svg>
