<svg width="32" height="32" viewBox="0 0 32 32" fill="none" xmlns="http://www.w3.org/2000/svg">
<path d="M29.4161 14.5899L17.4099 2.58244C17.0352 2.20994 16.5283 2.00085 15.9999 2.00085C15.4715 2.00085 14.9646 2.20994 14.5899 2.58244L2.58989 14.5899C2.21738 14.9647 2.0083 15.4716 2.0083 15.9999C2.0083 16.5283 2.21738 17.0352 2.58989 17.4099L14.5961 29.4174C14.9709 29.7899 15.4778 29.999 16.0061 29.999C16.5345 29.999 17.0414 29.7899 17.4161 29.4174L29.4224 17.4099C29.7949 17.0352 30.004 16.5283 30.004 15.9999C30.004 15.4716 29.7949 14.9647 29.4224 14.5899H29.4161ZM14.9999 9.99994C14.9999 9.73472 15.1052 9.48037 15.2928 9.29283C15.4803 9.1053 15.7347 8.99994 15.9999 8.99994C16.2651 8.99994 16.5195 9.1053 16.707 9.29283C16.8945 9.48037 16.9999 9.73472 16.9999 9.99994V16.9999C16.9999 17.2652 16.8945 17.5195 16.707 17.707C16.5195 17.8946 16.2651 17.9999 15.9999 17.9999C15.7347 17.9999 15.4803 17.8946 15.2928 17.707C15.1052 17.5195 14.9999 17.2652 14.9999 16.9999V9.99994ZM15.9999 22.9999C15.7032 22.9999 15.4132 22.912 15.1665 22.7471C14.9199 22.5823 14.7276 22.3481 14.6141 22.074C14.5005 21.7999 14.4708 21.4983 14.5287 21.2073C14.5866 20.9163 14.7294 20.6491 14.9392 20.4393C15.149 20.2295 15.4163 20.0866 15.7073 20.0288C15.9982 19.9709 16.2998 20.0006 16.5739 20.1141C16.848 20.2277 17.0823 20.4199 17.2471 20.6666C17.4119 20.9133 17.4999 21.2033 17.4999 21.4999C17.4999 21.8978 17.3419 22.2793 17.0605 22.5606C16.7792 22.8419 16.3977 22.9999 15.9999 22.9999Z" fill="black"/>
</svg>
