<svg width="32" height="32" viewBox="0 0 32 32" fill="none" xmlns="http://www.w3.org/2000/svg">
<path d="M15.2502 17V9.99997C15.2502 9.80105 15.3292 9.61029 15.4699 9.46964C15.6105 9.32898 15.8013 9.24997 16.0002 9.24997C16.1991 9.24997 16.3899 9.32898 16.5305 9.46964C16.6712 9.61029 16.7502 9.80105 16.7502 9.99997V17C16.7502 17.1989 16.6712 17.3896 16.5305 17.5303C16.3899 17.6709 16.1991 17.75 16.0002 17.75C15.8013 17.75 15.6105 17.6709 15.4699 17.5303C15.3292 17.3896 15.2502 17.1989 15.2502 17ZM16.0002 20.25C15.753 20.25 15.5113 20.3233 15.3057 20.4606C15.1002 20.598 14.94 20.7932 14.8453 21.0216C14.7507 21.25 14.726 21.5014 14.7742 21.7438C14.8224 21.9863 14.9415 22.209 15.1163 22.3839C15.2911 22.5587 15.5139 22.6777 15.7563 22.7259C15.9988 22.7742 16.2501 22.7494 16.4786 22.6548C16.707 22.5602 16.9022 22.4 17.0395 22.1944C17.1769 21.9889 17.2502 21.7472 17.2502 21.5C17.2502 21.1684 17.1185 20.8505 16.8841 20.6161C16.6497 20.3817 16.3317 20.25 16.0002 20.25ZM29.7502 16C29.751 16.229 29.7061 16.456 29.6184 16.6676C29.5306 16.8792 29.4016 17.0712 29.2389 17.2325L17.2389 29.24C16.9112 29.5651 16.4682 29.7476 16.0064 29.7476C15.5447 29.7476 15.1017 29.5651 14.7739 29.24L2.77395 17.2325C2.61188 17.0707 2.48331 16.8786 2.39558 16.6671C2.30785 16.4556 2.2627 16.2289 2.2627 16C2.2627 15.771 2.30785 15.5443 2.39558 15.3328C2.48331 15.1213 2.61188 14.9292 2.77395 14.7675L14.7802 2.75997C15.108 2.43479 15.551 2.25232 16.0127 2.25232C16.4744 2.25232 16.9174 2.43479 17.2452 2.75997L29.2452 14.7675C29.4067 14.9293 29.5346 15.1215 29.6213 15.3331C29.7079 15.5447 29.7518 15.7713 29.7502 16ZM28.2502 16C28.2503 15.9679 28.2441 15.9362 28.2318 15.9066C28.2196 15.877 28.2016 15.8501 28.1789 15.8275L16.1727 3.81997C16.1262 3.77564 16.0644 3.75092 16.0002 3.75092C15.936 3.75092 15.8742 3.77564 15.8277 3.81997L3.82145 15.8275C3.77712 15.874 3.7524 15.9357 3.7524 16C3.7524 16.0642 3.77712 16.126 3.82145 16.1725L15.8277 28.18C15.8742 28.2243 15.936 28.249 16.0002 28.249C16.0644 28.249 16.1262 28.2243 16.1727 28.18L28.1789 16.1725C28.2016 16.1498 28.2196 16.123 28.2318 16.0933C28.2441 16.0637 28.2503 16.032 28.2502 16Z" fill="black"/>
</svg>
