<svg width="32" height="32" viewBox="0 0 32 32" fill="none" xmlns="http://www.w3.org/2000/svg">
<path d="M30.0327 23.2625L19.1014 4.27877C18.7848 3.73728 18.3319 3.28813 17.7878 2.976C17.2438 2.66387 16.6274 2.49963 16.0002 2.49963C15.3729 2.49963 14.7566 2.66387 14.2125 2.976C13.6684 3.28813 13.2155 3.73728 12.8989 4.27877L1.96768 23.2625C1.66045 23.788 1.49854 24.3857 1.49854 24.9944C1.49854 25.6031 1.66045 26.2008 1.96768 26.7263C2.28079 27.2704 2.73304 27.7215 3.27803 28.0332C3.82302 28.3449 4.44112 28.506 5.06893 28.5H26.9314C27.5588 28.5056 28.1764 28.3443 28.7209 28.0326C29.2654 27.7209 29.7173 27.2701 30.0302 26.7263C30.3378 26.201 30.5001 25.6034 30.5006 24.9947C30.501 24.386 30.3395 23.7882 30.0327 23.2625ZM27.4327 25.225C27.3818 25.3116 27.3085 25.3829 27.2205 25.4313C27.1325 25.4797 27.0331 25.5035 26.9327 25.5H5.06893C4.96854 25.5035 4.86909 25.4797 4.78108 25.4313C4.69306 25.3829 4.61977 25.3116 4.56893 25.225C4.52581 25.1549 4.50298 25.0742 4.50298 24.9919C4.50298 24.9096 4.52581 24.8289 4.56893 24.7588L15.5002 5.77502C15.5543 5.6917 15.6284 5.62323 15.7157 5.57582C15.803 5.52842 15.9008 5.50359 16.0002 5.50359C16.0995 5.50359 16.1973 5.52842 16.2846 5.57582C16.372 5.62323 16.446 5.6917 16.5002 5.77502L27.4302 24.7588C27.4737 24.8286 27.4969 24.9092 27.4974 24.9915C27.4978 25.0738 27.4754 25.1547 27.4327 25.225ZM14.5002 17V13C14.5002 12.6022 14.6582 12.2207 14.9395 11.9394C15.2208 11.6581 15.6024 11.5 16.0002 11.5C16.398 11.5 16.7795 11.6581 17.0608 11.9394C17.3421 12.2207 17.5002 12.6022 17.5002 13V17C17.5002 17.3978 17.3421 17.7794 17.0608 18.0607C16.7795 18.342 16.398 18.5 16.0002 18.5C15.6024 18.5 15.2208 18.342 14.9395 18.0607C14.6582 17.7794 14.5002 17.3978 14.5002 17ZM18.0002 22C18.0002 22.3956 17.8829 22.7823 17.6631 23.1112C17.4434 23.4401 17.131 23.6964 16.7655 23.8478C16.4001 23.9991 15.998 24.0388 15.61 23.9616C15.222 23.8844 14.8657 23.6939 14.586 23.4142C14.3063 23.1345 14.1158 22.7782 14.0386 22.3902C13.9614 22.0022 14.001 21.6001 14.1524 21.2346C14.3038 20.8692 14.5601 20.5568 14.889 20.3371C15.2179 20.1173 15.6046 20 16.0002 20C16.5306 20 17.0393 20.2107 17.4144 20.5858C17.7895 20.9609 18.0002 21.4696 18.0002 22Z" fill="black"/>
</svg>
