<svg width="32" height="32" viewBox="0 0 32 32" fill="none" xmlns="http://www.w3.org/2000/svg">
<path d="M15.5 17V10C15.5 9.86743 15.5527 9.74026 15.6464 9.64649C15.7402 9.55272 15.8674 9.50004 16 9.50004C16.1326 9.50004 16.2598 9.55272 16.3535 9.64649C16.4473 9.74026 16.5 9.86743 16.5 10V17C16.5 17.1326 16.4473 17.2598 16.3535 17.3536C16.2598 17.4474 16.1326 17.5 16 17.5C15.8674 17.5 15.7402 17.4474 15.6464 17.3536C15.5527 17.2598 15.5 17.1326 15.5 17ZM16 20.5C15.8022 20.5 15.6089 20.5587 15.4444 20.6686C15.28 20.7785 15.1518 20.9346 15.0761 21.1174C15.0004 21.3001 14.9806 21.5012 15.0192 21.6951C15.0578 21.8891 15.153 22.0673 15.2929 22.2071C15.4327 22.347 15.6109 22.4422 15.8049 22.4808C15.9989 22.5194 16.1999 22.4996 16.3827 22.4239C16.5654 22.3482 16.7216 22.2201 16.8315 22.0556C16.9413 21.8912 17 21.6978 17 21.5C17 21.2348 16.8946 20.9805 16.7071 20.7929C16.5196 20.6054 16.2652 20.5 16 20.5ZM29.5 16C29.5005 16.1963 29.4622 16.3907 29.3871 16.572C29.312 16.7533 29.2016 16.9179 29.0625 17.0563L17.0562 29.0638C16.7753 29.3424 16.3957 29.4987 16 29.4987C15.6043 29.4987 15.2247 29.3424 14.9437 29.0638L2.94374 17.0563C2.66512 16.7754 2.50879 16.3957 2.50879 16C2.50879 15.6044 2.66512 15.2247 2.94374 14.9438L14.95 2.93629C15.2309 2.65767 15.6106 2.50134 16.0062 2.50134C16.4019 2.50134 16.7815 2.65767 17.0625 2.93629L29.0687 14.9438C29.2068 15.0827 29.3159 15.2475 29.3899 15.4288C29.464 15.6101 29.5014 15.8042 29.5 16ZM28.5 16C28.5002 15.9352 28.4875 15.8709 28.4626 15.8111C28.4377 15.7512 28.4011 15.6969 28.355 15.6513L16.3487 3.64379C16.2554 3.55293 16.1303 3.50208 16 3.50208C15.8697 3.50208 15.7446 3.55293 15.6512 3.64379L3.65124 15.6513C3.60535 15.697 3.56895 15.7514 3.54411 15.8112C3.51927 15.8711 3.50649 15.9352 3.50649 16C3.50649 16.0648 3.51927 16.129 3.54411 16.1888C3.56895 16.2487 3.60535 16.303 3.65124 16.3488L15.6575 28.3563C15.7508 28.4472 15.876 28.498 16.0062 28.498C16.1365 28.498 16.2616 28.4472 16.355 28.3563L28.3612 16.3488C28.4063 16.3027 28.4417 16.2482 28.4655 16.1883C28.4893 16.1284 28.5011 16.0645 28.5 16Z" fill="black"/>
</svg>
