<svg width="32" height="32" viewBox="0 0 32 32" fill="none" xmlns="http://www.w3.org/2000/svg">
<path d="M26 16C25.9999 14.5584 25.6876 13.1339 25.0845 11.8246C24.4814 10.5152 23.6018 9.35199 22.5062 8.415L21.625 3.55375C21.5204 2.97749 21.2169 2.45622 20.7673 2.08089C20.3177 1.70555 19.7506 1.49996 19.165 1.5H12.835C12.2493 1.49996 11.6822 1.70555 11.2326 2.08089C10.7831 2.45622 10.4795 2.97749 10.375 3.55375L9.49998 8.415C8.40432 9.35191 7.52464 10.5151 6.92147 11.8245C6.31831 13.1339 6.00598 14.5584 6.00598 16C6.00598 17.4416 6.31831 18.8661 6.92147 20.1755C7.52464 21.4849 8.40432 22.6481 9.49998 23.585L10.375 28.4463C10.4795 29.0225 10.7831 29.5438 11.2326 29.9191C11.6822 30.2945 12.2493 30.5 12.835 30.5H19.165C19.7506 30.5 20.3177 30.2945 20.7673 29.9191C21.2169 29.5438 21.5204 29.0225 21.625 28.4463L22.5062 23.585C23.6018 22.648 24.4814 21.4848 25.0845 20.1754C25.6876 18.8661 25.9999 17.4416 26 16ZM13.25 4.5H18.75L19.1125 6.5C17.0922 5.8367 14.9128 5.8367 12.8925 6.5L13.25 4.5ZM18.75 27.5H13.25L12.8875 25.5C14.9078 26.1633 17.0872 26.1633 19.1075 25.5L18.75 27.5ZM16 23C14.6155 23 13.2621 22.5895 12.111 21.8203C10.9598 21.0511 10.0626 19.9579 9.53283 18.6788C9.00301 17.3997 8.86439 15.9922 9.13449 14.6344C9.40458 13.2765 10.0713 12.0292 11.0502 11.0503C12.0292 10.0713 13.2765 9.4046 14.6344 9.1345C15.9922 8.86441 17.3997 9.00303 18.6788 9.53284C19.9578 10.0627 21.0511 10.9599 21.8203 12.111C22.5894 13.2622 23 14.6155 23 16C22.998 17.8559 22.2599 19.6352 20.9475 20.9476C19.6352 22.2599 17.8559 22.998 16 23ZM21 16C21 16.3978 20.8419 16.7794 20.5606 17.0607C20.2793 17.342 19.8978 17.5 19.5 17.5H16C15.6022 17.5 15.2206 17.342 14.9393 17.0607C14.658 16.7794 14.5 16.3978 14.5 16V12.5C14.5 12.1022 14.658 11.7206 14.9393 11.4393C15.2206 11.158 15.6022 11 16 11C16.3978 11 16.7793 11.158 17.0606 11.4393C17.3419 11.7206 17.5 12.1022 17.5 12.5V14.5H19.5C19.8978 14.5 20.2793 14.658 20.5606 14.9393C20.8419 15.2206 21 15.6022 21 16Z" fill="black"/>
</svg>
