<svg width="32" height="32" viewBox="0 0 32 32" fill="none" xmlns="http://www.w3.org/2000/svg">
<path d="M3.49989 9.00009C3.49973 8.80305 3.5384 8.60791 3.61368 8.42581C3.68896 8.24372 3.79939 8.07825 3.93864 7.93884C4.50115 7.42014 5.13822 6.98868 5.82864 6.65884C7.43991 5.87883 9.20983 5.48223 10.9999 5.50009C13.4536 5.50009 15.2499 6.69634 16.8324 7.75009C18.2386 8.68759 19.4574 9.50009 20.9999 9.50009C24.2624 9.50009 25.8849 7.99134 25.9524 7.92759C26.0895 7.78982 26.2528 7.68099 26.4328 7.60756C26.6127 7.53412 26.8056 7.49758 26.9999 7.50009C27.2967 7.49986 27.587 7.5877 27.8339 7.75251C28.0808 7.91731 28.2732 8.15167 28.3868 8.4259C28.5005 8.70014 28.5302 9.00192 28.4722 9.29305C28.4142 9.58418 28.2712 9.85156 28.0611 10.0613C27.4986 10.58 26.8615 11.0115 26.1711 11.3413C24.5599 12.1214 22.7899 12.5179 20.9999 12.5001C18.5461 12.5001 16.7499 11.3038 15.1674 10.2501C13.7611 9.31259 12.5424 8.50009 10.9999 8.50009C7.73739 8.50009 6.12489 10.0001 6.06114 10.0613C5.85135 10.2714 5.58397 10.4144 5.29285 10.4724C5.00172 10.5304 4.69994 10.5007 4.4257 10.387C4.15147 10.2734 3.91711 10.081 3.75231 9.83406C3.5875 9.58717 3.49965 9.29693 3.49989 9.00009ZM26.9999 21.5001C26.8056 21.4976 26.6127 21.5341 26.4328 21.6076C26.2528 21.681 26.0895 21.7898 25.9524 21.9276C25.8849 21.9913 24.2624 23.5001 20.9999 23.5001C19.4536 23.5001 18.2386 22.6901 16.8324 21.7501C15.2486 20.6938 13.4574 19.5001 10.9999 19.5001C9.20983 19.4822 7.43991 19.8788 5.82864 20.6588C5.13822 20.9887 4.50115 21.4201 3.93864 21.9388C3.65684 22.2206 3.49854 22.6028 3.49854 23.0013C3.49854 23.3999 3.65684 23.782 3.93864 24.0638C4.22043 24.3456 4.60262 24.5039 5.00114 24.5039C5.39965 24.5039 5.78184 24.3456 6.06364 24.0638C6.12489 24.0001 7.73739 22.5001 10.9999 22.5001C12.5461 22.5001 13.7611 23.3101 15.1674 24.2501C16.7511 25.3063 18.5424 26.5001 20.9999 26.5001C22.7899 26.5179 24.5599 26.1214 26.1711 25.3413C26.8615 25.0115 27.4986 24.58 28.0611 24.0613C28.2712 23.8516 28.4142 23.5842 28.4722 23.293C28.5302 23.0019 28.5005 22.7001 28.3868 22.4259C28.2732 22.1517 28.0808 21.9173 27.8339 21.7525C27.587 21.5877 27.2967 21.4999 26.9999 21.5001ZM26.9999 14.5001C26.8056 14.4976 26.6127 14.5341 26.4328 14.6076C26.2528 14.681 26.0895 14.7898 25.9524 14.9276C25.8849 14.9913 24.2624 16.5001 20.9999 16.5001C19.4536 16.5001 18.2386 15.6901 16.8324 14.7501C15.2486 13.6938 13.4574 12.5001 10.9999 12.5001C9.20983 12.4822 7.43991 12.8788 5.82864 13.6588C5.13822 13.9887 4.50115 14.4201 3.93864 14.9388C3.65684 15.2206 3.49854 15.6028 3.49854 16.0013C3.49854 16.3999 3.65684 16.782 3.93864 17.0638C4.22043 17.3456 4.60262 17.5039 5.00114 17.5039C5.39965 17.5039 5.78184 17.3456 6.06364 17.0638C6.12489 17.0001 7.73739 15.5001 10.9999 15.5001C12.5461 15.5001 13.7611 16.3101 15.1674 17.2501C16.7511 18.3063 18.5424 19.5001 20.9999 19.5001C22.7899 19.5179 24.5599 19.1214 26.1711 18.3413C26.8615 18.0115 27.4986 17.58 28.0611 17.0613C28.2712 16.8516 28.4142 16.5842 28.4722 16.293C28.5302 16.0019 28.5005 15.7001 28.3868 15.4259C28.2732 15.1517 28.0808 14.9173 27.8339 14.7525C27.587 14.5877 27.2967 14.4999 26.9999 14.5001Z" fill="black"/>
</svg>
