<svg width="32" height="32" viewBox="0 0 32 32" fill="none" xmlns="http://www.w3.org/2000/svg">
<path d="M29.7863 17.2776L16.7863 25.2776C16.559 25.4175 16.2985 25.4942 16.0316 25.4998C15.7648 25.5054 15.5013 25.4398 15.2683 25.3096C15.0353 25.1794 14.8413 24.9894 14.7062 24.7592C14.5712 24.529 14.5 24.267 14.5 24.0001V10.6838L3.78626 17.2776C3.44745 17.4861 3.03967 17.5515 2.65264 17.4594C2.26561 17.3672 1.93104 17.1251 1.72251 16.7863C1.51398 16.4475 1.44859 16.0397 1.54072 15.6527C1.63284 15.2657 1.87494 14.9311 2.21376 14.7226L15.2138 6.72258C15.441 6.58268 15.7015 6.50596 15.9684 6.50033C16.2352 6.49471 16.4987 6.56037 16.7317 6.69056C16.9647 6.82074 17.1587 7.01074 17.2938 7.24093C17.4288 7.47113 17.5 7.73319 17.5 8.00008V21.3163L28.2138 14.7226C28.3815 14.6193 28.568 14.5501 28.7625 14.5189C28.957 14.4877 29.1557 14.4952 29.3474 14.5408C29.539 14.5864 29.7198 14.6693 29.8794 14.7848C30.039 14.9003 30.1743 15.0461 30.2775 15.2138C30.3808 15.3816 30.45 15.568 30.4811 15.7626C30.5123 15.9571 30.5049 16.1558 30.4593 16.3474C30.4137 16.5391 30.3308 16.7199 30.2153 16.8794C30.0998 17.039 29.954 17.1743 29.7863 17.2776Z" fill="black"/>
</svg>
