<svg width="32" height="32" viewBox="0 0 32 32" fill="none" xmlns="http://www.w3.org/2000/svg">
<path d="M30.3575 16.6375C27.4825 22.7625 24.9825 25.5 22.255 25.5C18.8 25.5 16.78 21.195 14.6425 16.6375C13.75 14.7225 12.8162 12.75 11.865 11.3413C11.0487 10.1363 10.3162 9.5 9.74999 9.5C9.27249 9.5 7.46999 10.015 4.36374 16.6375C4.19466 16.9977 3.88943 17.276 3.51517 17.4111C3.32986 17.478 3.13319 17.5078 2.93637 17.4987C2.73956 17.4896 2.54647 17.4418 2.36811 17.3581C2.00792 17.189 1.72964 16.8838 1.59449 16.5096C1.45935 16.1353 1.47841 15.7227 1.64749 15.3625C4.52249 9.2375 7.02249 6.5 9.74999 6.5C13.205 6.5 15.225 10.805 17.3625 15.3625C18.2612 17.2775 19.1887 19.2563 20.14 20.6588C20.9562 21.8638 21.6887 22.5 22.265 22.5C22.7425 22.5 24.545 21.985 27.6512 15.3625C27.8203 15.0023 28.1256 14.724 28.4998 14.5889C28.8741 14.4537 29.2867 14.4728 29.6469 14.6419C30.0071 14.811 30.2853 15.1162 30.4205 15.4904C30.5556 15.8647 30.5366 16.2773 30.3675 16.6375H30.3575Z" fill="black"/>
</svg>
