<svg width="32" height="32" viewBox="0 0 32 32" fill="none" xmlns="http://www.w3.org/2000/svg">
<path d="M30.2163 16.875L23.7163 25.875C23.5772 26.0676 23.3945 26.2244 23.1831 26.3326C22.9716 26.4407 22.7375 26.4971 22.5 26.4971C22.2625 26.4971 22.0284 26.4407 21.8169 26.3326C21.6055 26.2244 21.4228 26.0676 21.2838 25.875L9.5 9.56251L4.21625 16.875C4.10569 17.0453 3.96172 17.1913 3.79306 17.3043C3.6244 17.4173 3.43456 17.4948 3.23505 17.5323C3.03553 17.5697 2.83049 17.5663 2.63233 17.5222C2.43418 17.4781 2.24704 17.3942 2.08226 17.2757C1.91747 17.1571 1.77846 17.0064 1.67365 16.8325C1.56884 16.6587 1.5004 16.4653 1.47249 16.2643C1.44459 16.0632 1.45778 15.8585 1.51128 15.6627C1.56479 15.4669 1.65748 15.284 1.78375 15.125L8.28375 6.12501C8.42276 5.93244 8.6055 5.77563 8.81695 5.66748C9.0284 5.55933 9.2625 5.50293 9.5 5.50293C9.7375 5.50293 9.97161 5.55933 10.1831 5.66748C10.3945 5.77563 10.5772 5.93244 10.7163 6.12501L22.5 22.4375L27.7838 15.125C27.8943 14.9548 28.0383 14.8087 28.2069 14.6957C28.3756 14.5828 28.5654 14.5052 28.765 14.4677C28.9645 14.4303 29.1695 14.4337 29.3677 14.4778C29.5658 14.5219 29.753 14.6058 29.9177 14.7243C30.0825 14.8429 30.2215 14.9937 30.3264 15.1675C30.4312 15.3414 30.4996 15.5347 30.5275 15.7358C30.5554 15.9368 30.5422 16.1415 30.4887 16.3373C30.4352 16.5331 30.3425 16.7161 30.2163 16.875Z" fill="black"/>
</svg>
