<svg width="32" height="32" viewBox="0 0 32 32" fill="none" xmlns="http://www.w3.org/2000/svg">
<path d="M29.4525 16.2125C26.8 21.8662 24.5125 24.5 22.25 24.5C19.43 24.5 17.5412 20.4737 15.5425 16.2125C13.7687 12.4212 11.93 8.5 9.75 8.5C7.975 8.5 5.85875 11.095 3.4575 16.2125C3.39961 16.33 3.29792 16.4201 3.1743 16.4634C3.05068 16.5067 2.915 16.4998 2.79643 16.4441C2.67787 16.3884 2.58589 16.2884 2.54027 16.1657C2.49466 16.0429 2.49904 15.9071 2.5525 15.7875C5.2 10.1338 7.4875 7.5 9.75 7.5C12.57 7.5 14.4587 11.5263 16.4575 15.7875C18.2312 19.5788 20.07 23.5 22.25 23.5C24.025 23.5 26.1412 20.905 28.5425 15.7875C28.6004 15.67 28.7021 15.5799 28.8257 15.5366C28.9493 15.4933 29.085 15.5002 29.2036 15.5559C29.3221 15.6116 29.4141 15.7116 29.4597 15.8343C29.5053 15.9571 29.5009 16.0929 29.4475 16.2125H29.4525Z" fill="black"/>
</svg>
