<svg width="32" height="32" viewBox="0 0 32 32" fill="none" xmlns="http://www.w3.org/2000/svg">
<path d="M21 13.0001C21 12.0112 20.7068 11.0445 20.1573 10.2222C19.6079 9.39998 18.827 8.75912 17.9134 8.38068C16.9998 8.00224 15.9945 7.90323 15.0245 8.09615C14.0546 8.28908 13.1637 8.76528 12.4645 9.46454C11.7652 10.1638 11.289 11.0547 11.0961 12.0246C10.9031 12.9945 11.0022 13.9999 11.3806 14.9135C11.759 15.8271 12.3999 16.608 13.2221 17.1574C14.0444 17.7068 15.0111 18.0001 16 18.0001C17.3261 18.0001 18.5979 17.4733 19.5355 16.5356C20.4732 15.5979 21 14.3262 21 13.0001ZM14 13.0001C14 12.6045 14.1173 12.2178 14.3371 11.8889C14.5568 11.56 14.8692 11.3037 15.2346 11.1523C15.6001 11.0009 16.0022 10.9613 16.3902 11.0385C16.7781 11.1157 17.1345 11.3062 17.4142 11.5859C17.6939 11.8656 17.8844 12.2219 17.9616 12.6099C18.0387 12.9979 17.9991 13.4 17.8478 13.7654C17.6964 14.1309 17.44 14.4433 17.1111 14.663C16.7822 14.8828 16.3956 15.0001 16 15.0001C15.4696 15.0001 14.9609 14.7894 14.5858 14.4143C14.2107 14.0392 14 13.5305 14 13.0001ZM28 24.5001H17.5V23.3913C20.1274 23.0121 22.5136 21.6518 24.1784 19.5841C25.8433 17.5164 26.6631 14.8949 26.473 12.2471C26.2829 9.5993 25.097 7.12178 23.1538 5.31315C21.2107 3.50452 18.6546 2.49902 16 2.49902C13.3454 2.49902 10.7893 3.50452 8.84616 5.31315C6.90302 7.12178 5.71706 9.5993 5.52696 12.2471C5.33686 14.8949 6.15672 17.5164 7.82156 19.5841C9.48639 21.6518 11.8726 23.0121 14.5 23.3913V24.5001H4C3.60218 24.5001 3.22064 24.6581 2.93934 24.9394C2.65804 25.2207 2.5 25.6023 2.5 26.0001C2.5 26.3979 2.65804 26.7794 2.93934 27.0607C3.22064 27.342 3.60218 27.5001 4 27.5001H28C28.3978 27.5001 28.7794 27.342 29.0607 27.0607C29.342 26.7794 29.5 26.3979 29.5 26.0001C29.5 25.6023 29.342 25.2207 29.0607 24.9394C28.7794 24.6581 28.3978 24.5001 28 24.5001ZM8.5 13.0001C8.5 11.5167 8.93987 10.0667 9.76398 8.8333C10.5881 7.59993 11.7594 6.63864 13.1299 6.07098C14.5003 5.50332 16.0083 5.3548 17.4632 5.64419C18.918 5.93358 20.2544 6.64788 21.3033 7.69678C22.3522 8.74567 23.0665 10.082 23.3559 11.5369C23.6453 12.9918 23.4968 14.4998 22.9291 15.8702C22.3614 17.2407 21.4001 18.412 20.1668 19.2361C18.9334 20.0602 17.4834 20.5001 16 20.5001C14.0116 20.4978 12.1053 19.7068 10.6993 18.3008C9.29324 16.8948 8.50232 14.9885 8.5 13.0001Z" fill="black"/>
</svg>
