<svg width="32" height="32" viewBox="0 0 32 32" fill="none" xmlns="http://www.w3.org/2000/svg">
<path d="M27.11 25.9915L7.11 3.99148C6.97827 3.84299 6.81838 3.72213 6.6396 3.63589C6.46082 3.54965 6.26669 3.49975 6.06849 3.48909C5.87028 3.47843 5.67192 3.50721 5.48492 3.57377C5.29791 3.64033 5.12598 3.74334 4.97908 3.87684C4.83218 4.01034 4.71324 4.17167 4.62915 4.35147C4.54506 4.53128 4.4975 4.72598 4.48921 4.92431C4.48093 5.12263 4.51208 5.32063 4.58088 5.50682C4.64968 5.69301 4.75475 5.8637 4.89 6.00898L6.74125 8.04523C5.94529 9.53275 5.51949 11.1902 5.4999 12.8771C5.48032 14.5641 5.86752 16.231 6.62872 17.7366C7.38992 19.2422 8.50271 20.5422 9.87287 21.5266C11.243 22.5109 12.8302 23.1506 14.5 23.3915V24.5002H4C3.60218 24.5002 3.22064 24.6583 2.93934 24.9396C2.65804 25.2209 2.5 25.6024 2.5 26.0002C2.5 26.3981 2.65804 26.7796 2.93934 27.0609C3.22064 27.3422 3.60218 27.5002 4 27.5002H24.4275L24.89 28.009C25.1589 28.2979 25.5309 28.4691 25.9253 28.4856C26.3197 28.5021 26.7046 28.3625 26.9967 28.097C27.2888 27.8315 27.4645 27.4616 27.4857 27.0675C27.5069 26.6734 27.3719 26.2867 27.11 25.9915ZM8.5 13.0002C8.499 12.1357 8.64787 11.2776 8.94 10.464L10.5538 12.239C10.4449 13.0179 10.5044 13.8112 10.7282 14.5652C10.9519 15.3192 11.3348 16.0164 11.851 16.6099C12.3672 17.2033 13.0047 17.6791 13.7204 18.0052C14.4361 18.3313 15.2135 18.5001 16 18.5002C16.08 18.5002 16.16 18.5002 16.24 18.494L17.8525 20.2677C16.7452 20.55 15.5881 20.5755 14.4695 20.3423C13.3509 20.1091 12.3004 19.6234 11.3981 18.9223C10.4958 18.2212 9.76566 17.3232 9.26339 16.2968C8.76113 15.2704 8.50002 14.1429 8.5 13.0002ZM17.5 24.5002V23.3915C18.377 23.265 19.2346 23.0286 20.0525 22.6877L21.7 24.5002H17.5ZM11.1112 5.29398C11.0344 5.11259 10.9941 4.91785 10.9925 4.72087C10.991 4.52389 11.0282 4.32853 11.1021 4.14594C11.1761 3.96336 11.2853 3.79713 11.4234 3.65674C11.5616 3.51635 11.7261 3.40455 11.9075 3.32773C13.9115 2.47859 16.1297 2.27315 18.2556 2.73984C20.3814 3.20652 22.3096 4.32225 23.7736 5.93271C25.2376 7.54317 26.165 9.56877 26.4275 11.7293C26.6899 13.8899 26.2745 16.0786 25.2388 17.9927C25.1101 18.2306 24.9194 18.4293 24.6871 18.5677C24.4547 18.7061 24.1892 18.7791 23.9188 18.779C23.6698 18.7795 23.4247 18.7171 23.2062 18.5977C22.8566 18.4083 22.5964 18.0879 22.483 17.7067C22.3695 17.3256 22.4121 16.915 22.6012 16.5652C23.3414 15.1979 23.6383 13.6342 23.4508 12.0907C23.2633 10.5472 22.6007 9.10017 21.5548 7.94973C20.5088 6.7993 19.1312 6.00238 17.6124 5.66924C16.0937 5.33611 14.509 5.48322 13.0775 6.09023C12.8961 6.16706 12.7014 6.20741 12.5044 6.20897C12.3074 6.21053 12.112 6.17328 11.9295 6.09934C11.7469 6.0254 11.5806 5.91622 11.4403 5.77804C11.2999 5.63986 11.1881 5.47537 11.1112 5.29398ZM21.5 12.9552C21.5016 13.1522 21.4645 13.3476 21.3906 13.5302C21.3168 13.7128 21.2076 13.8791 21.0695 14.0196C20.9314 14.16 20.7669 14.2719 20.5856 14.3488C20.4042 14.4257 20.2095 14.4661 20.0125 14.4677H20C19.6041 14.4677 19.2243 14.3113 18.9433 14.0324C18.6623 13.7535 18.503 13.3749 18.5 12.979C18.495 12.3641 18.2635 11.7726 17.8498 11.3176C17.4361 10.8626 16.8692 10.5761 16.2575 10.5127C16.0579 10.4976 15.8634 10.4426 15.6853 10.3511C15.5073 10.2596 15.3494 10.1334 15.2209 9.9799C15.0924 9.82641 14.996 9.64876 14.9372 9.45741C14.8784 9.26606 14.8586 9.06489 14.8787 8.86574C14.8989 8.66659 14.9588 8.4735 15.0548 8.29784C15.1507 8.12218 15.2809 7.96751 15.4376 7.84293C15.5942 7.71836 15.7743 7.6264 15.967 7.57248C16.1598 7.51856 16.3614 7.50377 16.56 7.52898C17.9078 7.66466 19.1578 8.29384 20.0698 9.29552C20.9817 10.2972 21.4911 11.6007 21.5 12.9552Z" fill="black"/>
</svg>
