<svg width="32" height="32" viewBox="0 0 32 32" fill="none" xmlns="http://www.w3.org/2000/svg">
<path d="M14.3238 23.4999C13.9554 25.0493 13.0311 26.4096 11.7262 27.3225C10.4213 28.2354 8.82664 28.6376 7.24487 28.4525C5.66309 28.2675 4.20429 27.5082 3.1453 26.3188C2.08632 25.1293 1.50086 23.5925 1.50003 21.9999C1.49593 20.5923 1.95297 19.222 2.80128 18.0987C2.91711 17.9349 3.06462 17.796 3.23509 17.6902C3.40556 17.5844 3.59552 17.5139 3.79372 17.4828C3.99193 17.4517 4.19435 17.4608 4.38902 17.5093C4.58368 17.5579 4.76662 17.645 4.92702 17.7655C5.08742 17.886 5.22202 18.0374 5.32284 18.2109C5.42367 18.3843 5.48867 18.5763 5.51401 18.7753C5.53935 18.9743 5.52451 19.1764 5.47036 19.3696C5.41621 19.5627 5.32386 19.7431 5.19878 19.8999C4.74272 20.5048 4.4973 21.2424 4.50003 21.9999C4.50003 22.9282 4.86878 23.8184 5.52515 24.4748C6.18153 25.1312 7.07177 25.4999 8.00003 25.4999C8.92828 25.4999 9.81852 25.1312 10.4749 24.4748C11.1313 23.8184 11.5 22.9282 11.5 21.9999C11.5 21.6021 11.6581 21.2206 11.9394 20.9393C12.2207 20.658 12.6022 20.4999 13 20.4999H24C24.3979 20.4999 24.7794 20.658 25.0607 20.9393C25.342 21.2206 25.5 21.6021 25.5 21.9999C25.5 22.3978 25.342 22.7793 25.0607 23.0606C24.7794 23.3419 24.3979 23.4999 24 23.4999H14.3238ZM7.21378 23.2774C7.38154 23.3807 7.568 23.4499 7.7625 23.4811C7.95701 23.5123 8.15576 23.5049 8.3474 23.4593C8.53904 23.4136 8.71982 23.3307 8.87941 23.2152C9.039 23.0998 9.17428 22.954 9.27753 22.7862L14.6525 14.0437C14.7558 13.8759 14.825 13.6895 14.8562 13.495C14.8874 13.3005 14.88 13.1017 14.8343 12.9101C14.7887 12.7184 14.7058 12.5377 14.5903 12.3781C14.4748 12.2185 14.329 12.0832 14.1613 11.9799C13.6938 11.6919 13.3006 11.298 13.0136 10.8299C12.7265 10.3619 12.5536 9.83282 12.5088 9.28557C12.464 8.73832 12.5486 8.18821 12.7557 7.6797C12.9629 7.17119 13.2867 6.71855 13.7012 6.35836C14.1156 5.99817 14.609 5.74054 15.1414 5.60629C15.6738 5.47204 16.2303 5.46494 16.766 5.58557C17.3017 5.70619 17.8014 5.95115 18.2249 6.30065C18.6484 6.65015 18.9837 7.09439 19.2038 7.59745C19.2815 7.77947 19.3945 7.9443 19.5362 8.08245C19.678 8.2206 19.8456 8.32933 20.0296 8.40239C20.2135 8.47544 20.4101 8.51137 20.608 8.5081C20.8059 8.50483 21.0012 8.46243 21.1826 8.38334C21.3641 8.30426 21.5281 8.19004 21.6651 8.04729C21.8022 7.90453 21.9097 7.73606 21.9814 7.55157C22.0531 7.36709 22.0875 7.17024 22.0828 6.97237C22.0781 6.77451 22.0342 6.57954 21.9538 6.3987C21.5703 5.52371 20.9986 4.74402 20.2794 4.11512C19.5603 3.48622 18.7114 3.02358 17.7931 2.76012C16.8748 2.49665 15.9097 2.43885 14.9665 2.59083C14.0233 2.7428 13.1253 3.10081 12.3362 3.63938C11.5471 4.17795 10.8865 4.88384 10.4013 5.70679C9.91606 6.52975 9.61823 7.44954 9.52896 8.4007C9.43969 9.35187 9.56119 10.311 9.88481 11.2099C10.2084 12.1087 10.7262 12.9252 11.4013 13.6012L6.71753 21.2137C6.61449 21.3818 6.54558 21.5685 6.51476 21.7632C6.48393 21.9579 6.49179 22.1568 6.53788 22.3484C6.58397 22.5401 6.66738 22.7208 6.78336 22.8802C6.89934 23.0396 7.0456 23.1746 7.21378 23.2774ZM24 15.4999C23.3077 15.4997 22.6199 15.6102 21.9625 15.8274L17.2775 8.21245C17.069 7.87363 16.7344 7.63153 16.3474 7.53941C15.9604 7.44728 15.5526 7.51267 15.2138 7.7212C14.875 7.92972 14.6329 8.2643 14.5407 8.65133C14.4486 9.03836 14.514 9.44613 14.7225 9.78495L20.0975 18.5262C20.2008 18.6941 20.3361 18.8401 20.4958 18.9557C20.6555 19.0713 20.8364 19.1542 21.0282 19.1999C21.22 19.2455 21.4189 19.2529 21.6135 19.2216C21.8082 19.1903 21.9947 19.1209 22.1625 19.0174C22.6232 18.7345 23.1432 18.5622 23.6816 18.5139C24.2201 18.4657 24.7624 18.5428 25.266 18.7393C25.7697 18.9357 26.221 19.2462 26.5845 19.6463C26.9481 20.0464 27.214 20.5253 27.3614 21.0455C27.5089 21.5656 27.5338 22.1128 27.4343 22.6442C27.3348 23.1756 27.1135 23.6767 26.7879 24.1082C26.4623 24.5397 26.0411 24.89 25.5574 25.1314C25.0737 25.3729 24.5406 25.499 24 25.4999C23.6022 25.4999 23.2207 25.658 22.9394 25.9393C22.6581 26.2206 22.5 26.6021 22.5 26.9999C22.5 27.3978 22.6581 27.7793 22.9394 28.0606C23.2207 28.3419 23.6022 28.4999 24 28.4999C25.7239 28.4999 27.3772 27.8151 28.5962 26.5961C29.8152 25.3772 30.5 23.7239 30.5 21.9999C30.5 20.276 29.8152 18.6227 28.5962 17.4038C27.3772 16.1848 25.7239 15.4999 24 15.4999Z" fill="black"/>
</svg>
