<svg width="32" height="32" viewBox="0 0 32 32" fill="none" xmlns="http://www.w3.org/2000/svg">
<path d="M23.4126 19.8825C23.2066 20.9016 22.6549 21.8182 21.8509 22.4774C21.0468 23.1366 20.0398 23.4978 19.0001 23.5C16.2162 23.497 13.5472 22.3898 11.5787 20.4213C9.61025 18.4528 8.50304 15.7838 8.50007 13C8.50222 11.9603 8.86343 10.9532 9.52261 10.1492C10.1818 9.34512 11.0985 8.79345 12.1176 8.58747C12.4397 8.52372 12.7739 8.56746 13.0688 8.71198C13.3637 8.85649 13.6031 9.0938 13.7501 9.38747L15.1851 12.2625C15.3028 12.4986 15.3561 12.7617 15.3396 13.0251C15.3231 13.2884 15.2375 13.5428 15.0913 13.7625L14.0263 15.36C14.5746 16.5033 15.4967 17.4254 16.6401 17.9737L18.2376 16.9087C18.4573 16.7625 18.7116 16.6769 18.975 16.6604C19.2383 16.644 19.5014 16.6973 19.7376 16.815L22.6126 18.25C22.9062 18.397 23.1435 18.6363 23.2881 18.9312C23.4326 19.2261 23.4763 19.5603 23.4126 19.8825ZM29.5001 16C29.5006 18.3124 28.907 20.5862 27.7764 22.6034C26.6458 24.6206 25.0159 26.3136 23.0431 27.52C21.0703 28.7264 18.8207 29.4059 16.5099 29.4932C14.199 29.5805 11.9045 29.0728 9.84631 28.0187L5.79257 29.375C5.35127 29.5237 4.8772 29.5462 4.42379 29.44C3.97038 29.3337 3.55566 29.103 3.22637 28.7737C2.89708 28.4444 2.66631 28.0297 2.56007 27.5762C2.45383 27.1228 2.47634 26.6488 2.62507 26.2075L3.97632 22.1537C3.04843 20.3362 2.54466 18.3319 2.5029 16.2917C2.46114 14.2514 2.88246 12.2282 3.7352 10.3742C4.58793 8.52022 5.84988 6.88368 7.42617 5.58762C9.00245 4.29157 10.8521 3.36974 12.8359 2.89143C14.8198 2.41313 16.8862 2.3908 18.8799 2.82613C20.8737 3.26146 22.7428 4.14311 24.3467 5.40481C25.9506 6.6665 27.2476 8.2754 28.1402 10.1105C29.0328 11.9457 29.4977 13.9593 29.5001 16ZM26.5001 16C26.4995 14.3894 26.1283 12.8006 25.4155 11.3564C24.7026 9.91215 23.667 8.65129 22.3889 7.67133C21.1107 6.69136 19.6243 6.01856 18.0446 5.70495C16.4648 5.39135 14.8341 5.44536 13.2786 5.8628C11.7231 6.28024 10.2844 7.04993 9.07391 8.11232C7.86343 9.1747 6.91356 10.5013 6.29779 11.9895C5.68202 13.4777 5.41686 15.0877 5.52281 16.6947C5.62876 18.3018 6.10299 19.863 6.90882 21.2575C7.01532 21.4414 7.08154 21.6458 7.10309 21.8572C7.12464 22.0686 7.10103 22.2821 7.03382 22.4837L5.79257 26.2075L9.51631 24.9662C9.6695 24.9152 9.82986 24.889 9.99132 24.8887C10.2548 24.8892 10.5134 24.959 10.7413 25.0912C12.3376 26.0149 14.149 26.5018 15.9932 26.503C17.8375 26.5042 19.6495 26.0196 21.247 25.098C22.8445 24.1765 24.171 22.8504 25.0932 21.2532C26.0154 19.6561 26.5006 17.8442 26.5001 16Z" fill="black"/>
</svg>
