<svg width="32" height="32" viewBox="0 0 32 32" fill="none" xmlns="http://www.w3.org/2000/svg">
<path d="M31.8927 23.4424C31.7449 23.0731 31.4563 22.7776 31.0907 22.6211C30.725 22.4645 30.312 22.4596 29.9427 22.6074L28.724 23.0949L25.3415 16.3286C25.2169 16.0796 25.0254 15.8702 24.7885 15.7238C24.5516 15.5775 24.2787 15.4999 24.0002 15.4999H14.5002V13.4999H21.0002C21.3981 13.4999 21.7796 13.3419 22.0609 13.0606C22.3422 12.7793 22.5002 12.3977 22.5002 11.9999C22.5002 11.6021 22.3422 11.2205 22.0609 10.9392C21.7796 10.6579 21.3981 10.4999 21.0002 10.4999H14.5002V10.2424C15.501 9.88855 16.3446 9.19229 16.8817 8.27668C17.4188 7.36106 17.6149 6.28504 17.4354 5.2388C17.2559 4.19255 16.7123 3.24345 15.9007 2.55924C15.0891 1.87503 14.0618 1.49976 13.0002 1.49976C11.9387 1.49976 10.9113 1.87503 10.0997 2.55924C9.28814 3.24345 8.74454 4.19255 8.56503 5.2388C8.38553 6.28504 8.58167 7.36106 9.11878 8.27668C9.6559 9.19229 10.4994 9.88855 11.5002 10.2424V10.8361C9.91503 11.2689 8.46917 12.1054 7.3039 13.2639C6.13862 14.4225 5.29378 15.8635 4.8519 17.4461C4.41002 19.0288 4.3862 20.699 4.78279 22.2936C5.17937 23.8883 5.98279 25.3528 7.11457 26.5441C8.24634 27.7354 9.66776 28.6127 11.24 29.0905C12.8122 29.5682 14.4815 29.63 16.0847 29.2697C17.6879 28.9095 19.1703 28.1395 20.387 27.0351C21.6037 25.9307 22.5131 24.5296 23.0265 22.9686C23.088 22.7815 23.1121 22.5841 23.0974 22.3876C23.0826 22.1912 23.0294 21.9996 22.9406 21.8237C22.8518 21.6479 22.7292 21.4912 22.5799 21.3628C22.4305 21.2343 22.2574 21.1365 22.0702 21.0749C21.8831 21.0133 21.6857 20.9892 21.4892 21.004C21.2928 21.0187 21.1012 21.072 20.9253 21.1608C20.7495 21.2496 20.5928 21.3722 20.4643 21.5215C20.3358 21.6708 20.238 21.844 20.1765 22.0311C19.8361 23.0654 19.2413 23.9975 18.4468 24.742C17.6523 25.4865 16.6835 26.0195 15.6294 26.2921C14.5752 26.5646 13.4695 26.568 12.4137 26.3019C11.3579 26.0358 10.3859 25.5087 9.58683 24.7691C8.78779 24.0295 8.18736 23.101 7.84065 22.0688C7.49393 21.0367 7.41205 19.934 7.60252 18.862C7.79299 17.7899 8.24971 16.7829 8.93075 15.9334C9.61178 15.0839 10.4953 14.419 11.5002 13.9999V16.9999C11.5002 17.3977 11.6583 17.7793 11.9396 18.0606C12.2209 18.3419 12.6024 18.4999 13.0002 18.4999H23.0727L26.6577 25.6711C26.8261 26.0076 27.1148 26.2684 27.4665 26.402C27.8181 26.5356 28.2072 26.5322 28.5565 26.3924L31.0565 25.3924C31.2395 25.3193 31.4062 25.2109 31.5473 25.0733C31.6883 24.9357 31.8009 24.7717 31.8786 24.5906C31.9562 24.4096 31.9975 24.2149 31.9999 24.0179C32.0023 23.8209 31.9659 23.6253 31.8927 23.4424ZM13.0002 4.4999C13.2969 4.4999 13.5869 4.58787 13.8336 4.75269C14.0803 4.91751 14.2725 5.15178 14.386 5.42587C14.4996 5.69996 14.5293 6.00156 14.4714 6.29253C14.4135 6.5835 14.2707 6.85078 14.0609 7.06056C13.8511 7.27034 13.5838 7.4132 13.2929 7.47107C13.0019 7.52895 12.7003 7.49925 12.4262 7.38572C12.1521 7.27218 11.9178 7.07993 11.753 6.83325C11.5882 6.58658 11.5002 6.29657 11.5002 5.9999C11.5002 5.60207 11.6583 5.22054 11.9396 4.93924C12.2209 4.65793 12.6024 4.4999 13.0002 4.4999Z" fill="black"/>
</svg>
