<svg width="32" height="32" viewBox="0 0 32 32" fill="none" xmlns="http://www.w3.org/2000/svg">
<path d="M16.9999 25.4998C16.9999 25.6976 16.9412 25.8909 16.8313 26.0554C16.7215 26.2198 16.5653 26.348 16.3826 26.4237C16.1998 26.4994 15.9988 26.5192 15.8048 26.4806C15.6108 26.442 15.4326 26.3467 15.2928 26.2069C15.1529 26.067 15.0577 25.8889 15.0191 25.6949C14.9805 25.5009 15.0003 25.2998 15.076 25.1171C15.1517 24.9344 15.2799 24.7782 15.4443 24.6683C15.6088 24.5584 15.8021 24.4998 15.9999 24.4998C16.2651 24.4998 16.5194 24.6051 16.707 24.7927C16.8945 24.9802 16.9999 25.2346 16.9999 25.4998ZM21.2936 20.221C19.7553 19.1022 17.902 18.4995 15.9999 18.4995C14.0977 18.4995 12.2444 19.1022 10.7061 20.221C10.6504 20.2586 10.6029 20.307 10.5663 20.3634C10.5298 20.4198 10.505 20.483 10.4934 20.5491C10.4817 20.6153 10.4836 20.6832 10.4988 20.7486C10.514 20.814 10.5422 20.8758 10.5818 20.93C10.6214 20.9843 10.6715 21.0301 10.7292 21.0646C10.7868 21.0991 10.8509 21.1216 10.9174 21.1308C10.984 21.14 11.0517 21.1357 11.1166 21.1181C11.1814 21.1005 11.2421 21.0701 11.2949 21.0285C12.6622 20.0343 14.3093 19.4987 15.9999 19.4987C17.6905 19.4987 19.3376 20.0343 20.7049 21.0285C20.7577 21.0701 20.8183 21.1005 20.8832 21.1181C20.948 21.1357 21.0158 21.14 21.0823 21.1308C21.1489 21.1216 21.2129 21.0991 21.2706 21.0646C21.3282 21.0301 21.3783 20.9843 21.4179 20.93C21.4575 20.8758 21.4858 20.814 21.501 20.7486C21.5162 20.6832 21.518 20.6153 21.5064 20.5491C21.4948 20.483 21.47 20.4198 21.4334 20.3634C21.3969 20.307 21.3493 20.2586 21.2936 20.221Z" fill="black"/>
</svg>
