<svg width="32" height="32" viewBox="0 0 32 32" fill="none" xmlns="http://www.w3.org/2000/svg">
<path d="M17.9999 25.5001C17.9999 25.8957 17.8826 26.2823 17.6629 26.6112C17.4431 26.9401 17.1308 27.1965 16.7653 27.3479C16.3999 27.4992 15.9977 27.5388 15.6098 27.4617C15.2218 27.3845 14.8654 27.194 14.5857 26.9143C14.306 26.6346 14.1155 26.2782 14.0384 25.8903C13.9612 25.5023 14.0008 25.1002 14.1522 24.7347C14.3036 24.3693 14.5599 24.0569 14.8888 23.8372C15.2177 23.6174 15.6044 23.5001 15.9999 23.5001C16.5304 23.5001 17.0391 23.7108 17.4141 24.0859C17.7892 24.461 17.9999 24.9697 17.9999 25.5001ZM29.9512 10.4889C26.0175 7.26268 21.0874 5.49951 15.9999 5.49951C10.9125 5.49951 5.98234 7.26268 2.04869 10.4889C1.89643 10.6139 1.77029 10.7676 1.67747 10.9414C1.58464 11.1151 1.52695 11.3055 1.50768 11.5015C1.48841 11.6975 1.50795 11.8955 1.56517 12.084C1.62239 12.2725 1.71618 12.4478 1.84119 12.6001C1.96619 12.7524 2.11995 12.8785 2.2937 12.9713C2.46746 13.0641 2.65779 13.1218 2.85384 13.1411C3.04988 13.1604 3.24781 13.1408 3.4363 13.0836C3.6248 13.0264 3.80018 12.9326 3.95244 12.8076C7.34948 10.022 11.6068 8.4997 15.9999 8.4997C20.393 8.4997 24.6504 10.022 28.0474 12.8076C28.1997 12.9326 28.3751 13.0264 28.5636 13.0836C28.7521 13.1408 28.95 13.1604 29.146 13.1411C29.3421 13.1218 29.5324 13.0641 29.7062 12.9713C29.8799 12.8785 30.0337 12.7524 30.1587 12.6001C30.2837 12.4478 30.3775 12.2725 30.4347 12.084C30.4919 11.8955 30.5115 11.6975 30.4922 11.5015C30.4729 11.3055 30.4152 11.1151 30.3224 10.9414C30.2296 10.7676 30.1034 10.6139 29.9512 10.4889ZM25.9312 14.9551C23.1046 12.7174 19.6051 11.4998 15.9999 11.4998C12.3948 11.4998 8.89529 12.7174 6.06869 14.9551C5.76467 15.2046 5.57083 15.5636 5.52891 15.9547C5.48699 16.3457 5.60035 16.7376 5.84456 17.0459C6.08878 17.3542 6.44432 17.5543 6.8346 17.603C7.22488 17.6517 7.61869 17.5452 7.93119 17.3063C10.2277 15.4884 13.0709 14.4993 15.9999 14.4993C18.9289 14.4993 21.7721 15.4884 24.0687 17.3063C24.3812 17.5452 24.775 17.6517 25.1653 17.603C25.5556 17.5543 25.9111 17.3542 26.1553 17.0459C26.3995 16.7376 26.5129 16.3457 26.471 15.9547C26.429 15.5636 26.2352 15.2046 25.9312 14.9551ZM21.8837 19.4126C20.1737 18.1695 18.114 17.5 15.9999 17.5C13.8859 17.5 11.8261 18.1695 10.1162 19.4126C9.79461 19.647 9.57932 19.9995 9.51766 20.3926C9.45601 20.7858 9.55305 21.1873 9.78744 21.5089C10.0218 21.8304 10.3744 22.0457 10.7675 22.1074C11.1606 22.169 11.5621 22.072 11.8837 21.8376C13.0799 20.9679 14.5209 20.4994 15.9999 20.4994C17.4789 20.4994 18.9199 20.9679 20.1162 21.8376C20.2754 21.9537 20.4559 22.0372 20.6475 22.0835C20.839 22.1298 21.0377 22.1379 21.2324 22.1074C21.4271 22.0768 21.6138 22.0083 21.7819 21.9056C21.9501 21.8029 22.0964 21.6681 22.2124 21.5089C22.3285 21.3496 22.412 21.1691 22.4583 20.9776C22.5046 20.7861 22.5127 20.5873 22.4822 20.3926C22.4517 20.198 22.3831 20.0112 22.2804 19.8431C22.1777 19.6749 22.0429 19.5287 21.8837 19.4126Z" fill="black"/>
</svg>
