<svg width="32" height="32" viewBox="0 0 32 32" fill="none" xmlns="http://www.w3.org/2000/svg">
<path d="M17 25.4998C17 25.6976 16.9413 25.8909 16.8315 26.0554C16.7216 26.2198 16.5654 26.348 16.3827 26.4237C16.1999 26.4994 15.9989 26.5192 15.8049 26.4806C15.6109 26.442 15.4327 26.3468 15.2929 26.2069C15.153 26.067 15.0578 25.8889 15.0192 25.6949C14.9806 25.5009 15.0004 25.2998 15.0761 25.1171C15.1518 24.9344 15.28 24.7782 15.4444 24.6683C15.6089 24.5584 15.8022 24.4998 16 24.4998C16.2652 24.4998 16.5196 24.6051 16.7071 24.7927C16.8946 24.9802 17 25.2346 17 25.4998ZM25.7075 9.99979L28.3537 7.35354C28.4476 7.25972 28.5003 7.13247 28.5003 6.99979C28.5003 6.86711 28.4476 6.73986 28.3537 6.64604C28.2599 6.55222 28.1327 6.49951 28 6.49951C27.8673 6.49951 27.7401 6.55222 27.6462 6.64604L25 9.29229L22.3537 6.64604C22.2599 6.55222 22.1327 6.49951 22 6.49951C21.8673 6.49951 21.7401 6.55222 21.6462 6.64604C21.5524 6.73986 21.4997 6.86711 21.4997 6.99979C21.4997 7.13247 21.5524 7.25972 21.6462 7.35354L24.2925 9.99979L21.6462 12.646C21.5524 12.7399 21.4997 12.8671 21.4997 12.9998C21.4997 13.1325 21.5524 13.2597 21.6462 13.3535C21.7401 13.4474 21.8673 13.5001 22 13.5001C22.1327 13.5001 22.2599 13.4474 22.3537 13.3535L25 10.7073L27.6462 13.3535C27.6927 13.4 27.7478 13.4368 27.8085 13.462C27.8692 13.4871 27.9343 13.5001 28 13.5001C28.0657 13.5001 28.1307 13.4871 28.1914 13.462C28.2521 13.4368 28.3073 13.4 28.3537 13.3535C28.4002 13.3071 28.437 13.2519 28.4622 13.1912C28.4873 13.1305 28.5003 13.0655 28.5003 12.9998C28.5003 12.9341 28.4873 12.869 28.4622 12.8083C28.437 12.7476 28.4002 12.6925 28.3537 12.646L25.7075 9.99979ZM21.2937 20.221C19.7553 19.1019 17.9018 18.4991 15.9994 18.4991C14.0969 18.4991 12.2434 19.1019 10.705 20.221C10.6032 20.3011 10.5364 20.4174 10.5187 20.5457C10.501 20.6739 10.5337 20.8041 10.61 20.9087C10.6863 21.0133 10.8002 21.0842 10.9277 21.1066C11.0552 21.1289 11.1864 21.101 11.2937 21.0285C12.6615 20.0349 14.3088 19.4997 15.9994 19.4997C17.69 19.4997 19.3372 20.0349 20.705 21.0285C20.7578 21.0701 20.8185 21.1005 20.8833 21.1181C20.9482 21.1357 21.0159 21.14 21.0824 21.1308C21.149 21.1216 21.213 21.0991 21.2707 21.0646C21.3283 21.0301 21.3785 20.9843 21.418 20.93C21.4576 20.8758 21.4859 20.814 21.5011 20.7486C21.5163 20.6832 21.5181 20.6153 21.5065 20.5491C21.4949 20.483 21.4701 20.4198 21.4335 20.3634C21.397 20.3071 21.3494 20.2586 21.2937 20.221ZM17.9512 7.59604C18.0169 7.60244 18.0832 7.59585 18.1463 7.57664C18.2094 7.55742 18.2681 7.52597 18.3191 7.48406C18.37 7.44216 18.4122 7.39063 18.4433 7.33242C18.4743 7.27421 18.4936 7.21045 18.5 7.14479C18.5064 7.07913 18.4998 7.01285 18.4806 6.94974C18.4614 6.88662 18.4299 6.82791 18.388 6.77696C18.3461 6.726 18.2946 6.6838 18.2364 6.65276C18.1782 6.62171 18.1144 6.60244 18.0487 6.59604C17.375 6.53354 16.6825 6.49979 16 6.49979C11.1444 6.50274 6.43932 8.1849 2.68249 11.261C2.63168 11.3027 2.58959 11.354 2.55861 11.412C2.52763 11.47 2.50836 11.5335 2.50192 11.5989C2.49548 11.6643 2.50198 11.7303 2.52106 11.7932C2.54014 11.8561 2.57142 11.9146 2.61312 11.9654C2.65481 12.0162 2.7061 12.0583 2.76407 12.0893C2.82203 12.1203 2.88553 12.1395 2.95093 12.146C3.01634 12.1524 3.08238 12.1459 3.14527 12.1268C3.20816 12.1078 3.26669 12.0765 3.31749 12.0348C6.89466 9.10428 11.3757 7.50195 16 7.49979C16.6512 7.49979 17.3075 7.53104 17.9512 7.59354V7.59604ZM17.9312 13.6348C18.0627 13.653 18.196 13.6183 18.3018 13.5382C18.4077 13.4582 18.4774 13.3394 18.4956 13.2079C18.5138 13.0765 18.4791 12.9432 18.3991 12.8373C18.319 12.7315 18.2002 12.6618 18.0687 12.6435C17.3832 12.5487 16.692 12.5006 16 12.4998C12.6183 12.4871 9.33365 13.6297 6.68999 15.7385C6.63853 15.7796 6.59565 15.8304 6.56381 15.888C6.53197 15.9456 6.51179 16.0089 6.50442 16.0743C6.49705 16.1397 6.50264 16.2059 6.52086 16.2692C6.53908 16.3324 6.56958 16.3915 6.61061 16.4429C6.65165 16.4944 6.70243 16.5373 6.76003 16.5691C6.81764 16.6009 6.88096 16.6211 6.94636 16.6285C7.01177 16.6359 7.07799 16.6303 7.14124 16.612C7.20449 16.5938 7.26353 16.5633 7.31499 16.5223C9.78146 14.5554 12.8453 13.4891 16 13.4998C16.646 13.5 17.2913 13.5442 17.9312 13.6323V13.6348Z" fill="black"/>
</svg>
