<svg width="32" height="32" viewBox="0 0 32 32" fill="none" xmlns="http://www.w3.org/2000/svg">
<path d="M17 25.4999C17 25.6977 16.9413 25.891 16.8314 26.0555C16.7216 26.2199 16.5654 26.3481 16.3826 26.4238C16.1999 26.4995 15.9989 26.5193 15.8049 26.4807C15.6109 26.4421 15.4327 26.3468 15.2929 26.207C15.153 26.0671 15.0578 25.889 15.0192 25.695C14.9806 25.501 15.0004 25.2999 15.0761 25.1172C15.1518 24.9345 15.2799 24.7783 15.4444 24.6684C15.6088 24.5585 15.8022 24.4999 16 24.4999C16.2652 24.4999 16.5195 24.6052 16.7071 24.7928C16.8946 24.9803 17 25.2347 17 25.4999ZM29.3175 11.2624C25.5626 8.18265 20.8563 6.49951 16 6.49951C11.1436 6.49951 6.43737 8.18265 2.68246 11.2624C2.63142 11.304 2.58909 11.3552 2.55791 11.4132C2.52673 11.4712 2.50731 11.5348 2.50077 11.6003C2.49422 11.6658 2.50068 11.732 2.51978 11.795C2.53887 11.858 2.57023 11.9167 2.61204 11.9675C2.65385 12.0184 2.70529 12.0605 2.76342 12.0914C2.82155 12.1223 2.88521 12.1415 2.95075 12.1477C3.0163 12.154 3.08244 12.1473 3.14537 12.1279C3.2083 12.1085 3.26678 12.0769 3.31746 12.0349C6.89344 9.10224 11.3752 7.4995 16 7.4995C20.6247 7.4995 25.1065 9.10224 28.6825 12.0349C28.785 12.1184 28.9164 12.1579 29.048 12.1448C29.1796 12.1316 29.3006 12.0669 29.3845 11.9648C29.4685 11.8626 29.5086 11.7314 29.496 11.5997C29.4835 11.4681 29.4192 11.3468 29.3175 11.2624ZM25.31 15.7386C22.6597 13.6398 19.3781 12.4978 15.9975 12.4978C12.6168 12.4978 9.33523 13.6398 6.68496 15.7386C6.6335 15.7797 6.59063 15.8304 6.55879 15.8881C6.52695 15.9457 6.50677 16.009 6.4994 16.0744C6.49202 16.1398 6.49761 16.206 6.51583 16.2693C6.53405 16.3325 6.56455 16.3916 6.60559 16.443C6.64663 16.4945 6.6974 16.5373 6.75501 16.5692C6.81261 16.601 6.87593 16.6212 6.94134 16.6286C7.00674 16.636 7.07296 16.6304 7.13621 16.6121C7.19946 16.5939 7.2585 16.5634 7.30996 16.5224C9.78286 14.5655 12.844 13.5009 15.9975 13.5009C19.1509 13.5009 22.2121 14.5655 24.685 16.5224C24.7364 16.5634 24.7955 16.5939 24.8587 16.6121C24.922 16.6304 24.9882 16.636 25.0536 16.6286C25.119 16.6212 25.1823 16.601 25.2399 16.5692C25.2975 16.5373 25.3483 16.4945 25.3893 16.443C25.4304 16.3916 25.4609 16.3325 25.4791 16.2693C25.4973 16.206 25.5029 16.1398 25.4955 16.0744C25.4882 16.009 25.468 15.9457 25.4361 15.8881C25.4043 15.8304 25.3614 15.7797 25.31 15.7386ZM21.2937 20.2211C19.7554 19.1023 17.9021 18.4996 16 18.4996C14.0978 18.4996 12.2445 19.1023 10.7062 20.2211C10.6493 20.2581 10.6005 20.3063 10.5628 20.3628C10.5251 20.4192 10.4993 20.4828 10.487 20.5495C10.4746 20.6163 10.476 20.6848 10.491 20.751C10.506 20.8172 10.5344 20.8797 10.5743 20.9346C10.6142 20.9895 10.6649 21.0357 10.7233 21.0703C10.7817 21.105 10.8465 21.1274 10.9138 21.1362C10.9811 21.145 11.0495 21.14 11.1148 21.1215C11.1801 21.103 11.241 21.0714 11.2937 21.0286C12.6618 20.0351 14.3092 19.5 16 19.5C17.6907 19.5 19.3382 20.0351 20.7062 21.0286C20.8132 21.1065 20.9467 21.1388 21.0774 21.1184C21.2082 21.098 21.3255 21.0266 21.4037 20.9199C21.4424 20.8668 21.4702 20.8066 21.4856 20.7427C21.501 20.6789 21.5037 20.6126 21.4935 20.5477C21.4833 20.4828 21.4604 20.4206 21.4261 20.3645C21.3918 20.3085 21.3468 20.2598 21.2937 20.2211Z" fill="black"/>
</svg>
