<svg width="32" height="32" viewBox="0 0 32 32" fill="none" xmlns="http://www.w3.org/2000/svg">
<path d="M17.9999 25.5002C17.9999 25.8958 17.8826 26.2825 17.6628 26.6114C17.4431 26.9403 17.1307 27.1966 16.7653 27.348C16.3998 27.4994 15.9977 27.539 15.6097 27.4618C15.2217 27.3846 14.8654 27.1941 14.5857 26.9144C14.306 26.6347 14.1155 26.2784 14.0383 25.8904C13.9612 25.5024 14.0008 25.1003 14.1521 24.7349C14.3035 24.3694 14.5599 24.057 14.8888 23.8373C15.2176 23.6175 15.6043 23.5002 15.9999 23.5002C16.5303 23.5002 17.039 23.7109 17.4141 24.086C17.7892 24.4611 17.9999 24.9698 17.9999 25.5002ZM21.8824 19.4127C20.173 18.1693 18.1136 17.4995 15.9999 17.4995C13.8861 17.4995 11.8267 18.1693 10.1174 19.4127C9.79582 19.6469 9.58046 19.9993 9.51869 20.3923C9.45692 20.7853 9.5538 21.1868 9.78802 21.5083C10.0222 21.8299 10.3746 22.0453 10.7676 22.1071C11.1606 22.1688 11.5621 22.0719 11.8836 21.8377C13.0799 20.968 14.5209 20.4996 15.9999 20.4996C17.4789 20.4996 18.9199 20.968 20.1161 21.8377C20.4377 22.0719 20.8392 22.1688 21.2322 22.1071C21.6252 22.0453 21.9775 21.8299 22.2118 21.5083C22.446 21.1868 22.5429 20.7853 22.4811 20.3923C22.4193 19.9993 22.204 19.6469 21.8824 19.4127Z" fill="black"/>
</svg>
