<svg width="32" height="32" viewBox="0 0 32 32" fill="none" xmlns="http://www.w3.org/2000/svg">
<path d="M18 25.5C18 25.8956 17.8827 26.2822 17.6629 26.6111C17.4432 26.94 17.1308 27.1964 16.7654 27.3478C16.3999 27.4991 15.9978 27.5387 15.6098 27.4616C15.2219 27.3844 14.8655 27.1939 14.5858 26.9142C14.3061 26.6345 14.1156 26.2781 14.0384 25.8902C13.9613 25.5022 14.0009 25.1001 14.1522 24.7346C14.3036 24.3692 14.56 24.0568 14.8889 23.8371C15.2178 23.6173 15.6044 23.5 16 23.5C16.5304 23.5 17.0391 23.7107 17.4142 24.0858C17.7893 24.4609 18 24.9696 18 25.5Z" fill="black"/>
</svg>
