<svg width="32" height="32" viewBox="0 0 32 32" fill="none" xmlns="http://www.w3.org/2000/svg">
<path d="M17.9999 25.4999C17.9999 25.8955 17.8826 26.2822 17.6629 26.6111C17.4431 26.94 17.1308 27.1963 16.7653 27.3477C16.3999 27.4991 15.9977 27.5387 15.6098 27.4615C15.2218 27.3843 14.8654 27.1939 14.5857 26.9142C14.306 26.6345 14.1155 26.2781 14.0384 25.8901C13.9612 25.5022 14.0008 25.1 14.1522 24.7346C14.3036 24.3691 14.5599 24.0568 14.8888 23.837C15.2177 23.6172 15.6044 23.4999 15.9999 23.4999C16.5304 23.4999 17.0391 23.7107 17.4141 24.0857C17.7892 24.4608 17.9999 24.9695 17.9999 25.4999ZM27.1249 9.99995L29.0649 8.0612C29.3467 7.7794 29.505 7.39721 29.505 6.9987C29.505 6.60018 29.3467 6.21799 29.0649 5.9362C28.7831 5.6544 28.401 5.49609 28.0024 5.49609C27.6039 5.49609 27.2217 5.6544 26.9399 5.9362L24.9999 7.87495L23.0612 5.9387C22.7794 5.6569 22.3972 5.49859 21.9987 5.49859C21.6002 5.49859 21.218 5.6569 20.9362 5.9387C20.6544 6.22049 20.4961 6.60268 20.4961 7.0012C20.4961 7.39971 20.6544 7.7819 20.9362 8.0637L22.8749 9.99995L20.9387 11.9387C20.6569 12.2205 20.4986 12.6027 20.4986 13.0012C20.4986 13.3997 20.6569 13.7819 20.9387 14.0637C21.2205 14.3455 21.6027 14.5038 22.0012 14.5038C22.3997 14.5038 22.7819 14.3455 23.0637 14.0637L24.9999 12.1249L26.9387 14.0649C27.0782 14.2045 27.2439 14.3152 27.4262 14.3907C27.6085 14.4662 27.8039 14.505 28.0012 14.505C28.1985 14.505 28.3939 14.4662 28.5762 14.3907C28.7585 14.3152 28.9242 14.2045 29.0637 14.0649C29.2032 13.9254 29.3139 13.7598 29.3894 13.5775C29.4649 13.3952 29.5038 13.1998 29.5038 13.0024C29.5038 12.8051 29.4649 12.6097 29.3894 12.4274C29.3139 12.2451 29.2032 12.0795 29.0637 11.9399L27.1249 9.99995ZM21.8874 19.4124C20.178 18.1687 18.1183 17.4988 16.0043 17.4988C13.8903 17.4988 11.8307 18.1687 10.1212 19.4124C9.79961 19.6467 9.58425 19.999 9.52248 20.392C9.46071 20.785 9.55759 21.1865 9.79181 21.5081C10.026 21.8296 10.3784 22.045 10.7714 22.1068C11.1644 22.1685 11.5659 22.0717 11.8874 21.8374C13.0838 20.9675 14.5251 20.4988 16.0043 20.4988C17.4836 20.4988 18.9248 20.9675 20.1212 21.8374C20.4428 22.0717 20.8442 22.1685 21.2372 22.1068C21.6302 22.045 21.9826 21.8296 22.2168 21.5081C22.451 21.1865 22.5479 20.785 22.4861 20.392C22.4244 19.999 22.209 19.6467 21.8874 19.4124ZM16.4637 8.49995H16.5012C16.899 8.50459 17.2824 8.351 17.567 8.07298C17.8516 7.79496 18.014 7.41527 18.0187 7.01745C18.0233 6.61962 17.8697 6.23625 17.5917 5.95166C17.3137 5.66707 16.934 5.50459 16.5362 5.49995C16.3574 5.49995 16.1787 5.49995 15.9999 5.49995C10.9131 5.50257 5.98381 7.26519 2.04869 10.4887C1.89643 10.6137 1.77029 10.7675 1.67747 10.9412C1.58464 11.115 1.52695 11.3053 1.50768 11.5013C1.48841 11.6974 1.50795 11.8953 1.56517 12.0838C1.62239 12.2723 1.71618 12.4477 1.84119 12.5999C1.96619 12.7522 2.11995 12.8783 2.2937 12.9712C2.46746 13.064 2.65779 13.1217 2.85384 13.141C3.04988 13.1602 3.24781 13.1407 3.4363 13.0835C3.6248 13.0262 3.80018 12.9324 3.95244 12.8074C7.35077 10.0242 11.6073 8.50231 15.9999 8.49995C16.1549 8.49995 16.3099 8.49995 16.4637 8.49995ZM16.4487 14.4999C16.8465 14.5135 17.2334 14.3685 17.5244 14.0968C17.8153 13.8252 17.9863 13.449 17.9999 13.0512C18.0135 12.6534 17.8685 12.2664 17.5968 11.9755C17.3251 11.6846 16.949 11.5135 16.5512 11.4999C16.3749 11.4999 16.1837 11.4999 15.9999 11.4999C12.3926 11.4866 8.88883 12.7055 6.06869 14.9549C5.76467 15.2045 5.57083 15.5634 5.52891 15.9545C5.48699 16.3456 5.60035 16.7375 5.84456 17.0458C6.08878 17.3541 6.44432 17.5541 6.8346 17.6028C7.22488 17.6515 7.61869 17.545 7.93119 17.3062C10.2225 15.4788 13.0692 14.4887 15.9999 14.4999C16.1499 14.4999 16.3012 14.4999 16.4487 14.5074V14.4999Z" fill="black"/>
</svg>
