<svg width="32" height="32" viewBox="0 0 32 32" fill="none" xmlns="http://www.w3.org/2000/svg">
<path d="M3 13C2.60218 13 2.22064 12.842 1.93934 12.5607C1.65804 12.2794 1.5 11.8978 1.5 11.5C1.5 11.1022 1.65804 10.7206 1.93934 10.4393C2.22064 10.158 2.60218 10 3 10H15C15.3978 10 15.7794 9.84196 16.0607 9.56066C16.342 9.27936 16.5 8.89782 16.5 8.5C16.5 8.10218 16.342 7.72064 16.0607 7.43934C15.7794 7.15804 15.3978 7 15 7C14.517 7.01406 14.0578 7.2132 13.7175 7.55625C13.4329 7.81567 13.0595 7.95572 12.6745 7.94739C12.2895 7.93907 11.9225 7.78301 11.6494 7.51153C11.3763 7.24005 11.2181 6.87394 11.2075 6.48902C11.1969 6.1041 11.3348 5.72984 11.5925 5.44375C12.497 4.53716 13.7195 4.01919 15 4C16.1935 4 17.3381 4.47411 18.182 5.31802C19.0259 6.16193 19.5 7.30653 19.5 8.5C19.5 9.69347 19.0259 10.8381 18.182 11.682C17.3381 12.5259 16.1935 13 15 13H3ZM26 8.5C24.7178 8.51789 23.4932 9.03596 22.5875 9.94375C22.3298 10.2298 22.1919 10.6041 22.2025 10.989C22.2131 11.3739 22.3713 11.74 22.6444 12.0115C22.9175 12.283 23.2845 12.4391 23.6695 12.4474C24.0545 12.4557 24.4279 12.3157 24.7125 12.0562C25.0541 11.712 25.5152 11.5128 26 11.5C26.3978 11.5 26.7794 11.658 27.0607 11.9393C27.342 12.2206 27.5 12.6022 27.5 13C27.5 13.3978 27.342 13.7794 27.0607 14.0607C26.7794 14.342 26.3978 14.5 26 14.5H4C3.60218 14.5 3.22064 14.658 2.93934 14.9393C2.65804 15.2206 2.5 15.6022 2.5 16C2.5 16.3978 2.65804 16.7794 2.93934 17.0607C3.22064 17.342 3.60218 17.5 4 17.5H26C27.1935 17.5 28.3381 17.0259 29.182 16.182C30.0259 15.3381 30.5 14.1935 30.5 13C30.5 11.8065 30.0259 10.6619 29.182 9.81802C28.3381 8.97411 27.1935 8.5 26 8.5ZM19 19H5C4.60218 19 4.22064 19.158 3.93934 19.4393C3.65804 19.7206 3.5 20.1022 3.5 20.5C3.5 20.8978 3.65804 21.2794 3.93934 21.5607C4.22064 21.842 4.60218 22 5 22H19C19.3978 22 19.7794 22.158 20.0607 22.4393C20.342 22.7206 20.5 23.1022 20.5 23.5C20.5 23.8978 20.342 24.2794 20.0607 24.5607C19.7794 24.842 19.3978 25 19 25C18.5167 24.9858 18.0572 24.7867 17.7162 24.4438C17.5802 24.2928 17.415 24.171 17.2305 24.0859C17.046 24.0007 16.8462 23.9539 16.6431 23.9483C16.44 23.9427 16.2378 23.9785 16.049 24.0533C15.8601 24.1282 15.6884 24.2407 15.5443 24.384C15.4002 24.5272 15.2867 24.6982 15.2107 24.8867C15.1347 25.0751 15.0978 25.277 15.1021 25.4802C15.1065 25.6833 15.1522 25.8834 15.2362 26.0684C15.3203 26.2534 15.4411 26.4194 15.5913 26.5562C16.4961 27.4631 17.7191 27.9811 19 28C20.1935 28 21.3381 27.5259 22.182 26.682C23.0259 25.8381 23.5 24.6935 23.5 23.5C23.5 22.3065 23.0259 21.1619 22.182 20.318C21.3381 19.4741 20.1935 19 19 19Z" fill="black"/>
</svg>
