<svg width="32" height="32" viewBox="0 0 32 32" fill="none" xmlns="http://www.w3.org/2000/svg">
<path d="M13.4613 6.48489C13.2926 6.34389 13.095 6.24169 12.8824 6.18553C12.6699 6.12937 12.4476 6.12062 12.2312 6.15989L4.73125 7.52364C4.38564 7.58658 4.07308 7.76883 3.84807 8.03861C3.62306 8.3084 3.49988 8.64859 3.5 8.99989V13.4999C3.5 13.8977 3.65804 14.2792 3.93934 14.5606C4.22064 14.8419 4.60218 14.9999 5 14.9999H12.5C12.8978 14.9999 13.2794 14.8419 13.5607 14.5606C13.842 14.2792 14 13.8977 14 13.4999V7.63614C14 7.41651 13.9517 7.19956 13.8586 7.00063C13.7655 6.8017 13.6299 6.62564 13.4613 6.48489ZM11 11.9999H6.5V10.2499L11 9.43239V11.9999ZM27.9613 3.84864C27.7926 3.70764 27.595 3.60544 27.3824 3.54928C27.1699 3.49312 26.9476 3.48437 26.7313 3.52364L17.2313 5.24989C16.8854 5.31287 16.5727 5.4953 16.3477 5.76534C16.1226 6.03538 15.9996 6.37588 16 6.72739V13.4999C16 13.8977 16.158 14.2792 16.4393 14.5606C16.7206 14.8419 17.1022 14.9999 17.5 14.9999H27C27.3978 14.9999 27.7794 14.8419 28.0607 14.5606C28.342 14.2792 28.5 13.8977 28.5 13.4999V4.99989C28.5 4.78026 28.4517 4.56331 28.3586 4.36438C28.2655 4.16545 28.1299 3.98939 27.9613 3.84864ZM25.5 11.9999H19V7.97864L25.5 6.79739V11.9999ZM12.5 16.9999H5C4.60218 16.9999 4.22064 17.1579 3.93934 17.4392C3.65804 17.7205 3.5 18.1021 3.5 18.4999V22.9999C3.49988 23.3512 3.62306 23.6914 3.84807 23.9612C4.07308 24.231 4.38564 24.4132 4.73125 24.4761L12.2312 25.8399C12.4475 25.8793 12.6697 25.8706 12.8823 25.8146C13.0948 25.7586 13.2924 25.6566 13.4612 25.5158C13.6299 25.3749 13.7656 25.1987 13.8587 24.9996C13.9519 24.8006 14.0001 24.5834 14 24.3636V18.4999C14 18.1021 13.842 17.7205 13.5607 17.4392C13.2794 17.1579 12.8978 16.9999 12.5 16.9999ZM11 22.5661L6.5 21.7499V19.9999H11V22.5661ZM27 16.9999H17.5C17.1022 16.9999 16.7206 17.1579 16.4393 17.4392C16.158 17.7205 16 18.1021 16 18.4999V25.2724C15.9996 25.6239 16.1226 25.9644 16.3477 26.2344C16.5727 26.5045 16.8854 26.6869 17.2313 26.7499L26.7313 28.4774C26.9476 28.5168 27.1699 28.5081 27.3826 28.4521C27.5952 28.396 27.7929 28.2938 27.9616 28.1529C28.1304 28.0119 28.2661 27.8355 28.3591 27.6363C28.4522 27.437 28.5003 27.2198 28.5 26.9999V18.4999C28.5 18.1021 28.342 17.7205 28.0607 17.4392C27.7794 17.1579 27.3978 16.9999 27 16.9999ZM25.5 25.2024L19 24.0211V19.9999H25.5V25.2024Z" fill="black"/>
</svg>
