<svg width="32" height="32" viewBox="0 0 32 32" fill="none" xmlns="http://www.w3.org/2000/svg">
<path d="M26.1462 11.8175L23.4237 2.57625C23.3323 2.26579 23.1429 1.99322 22.8838 1.79925C22.6247 1.60528 22.3099 1.5003 21.9862 1.5H10.0137C9.69007 1.5003 9.37521 1.60528 9.11613 1.79925C8.85705 1.99322 8.66765 2.26579 8.57622 2.57625L5.85372 11.8175C5.40055 13.3229 5.3773 14.925 5.7866 16.4429C6.19589 17.9608 7.02142 19.334 8.16997 20.4075C9.9144 22.0435 12.1286 23.0902 14.5 23.4V27.5H11C10.6021 27.5 10.2206 27.658 9.93931 27.9393C9.65801 28.2206 9.49997 28.6022 9.49997 29C9.49997 29.3978 9.65801 29.7794 9.93931 30.0607C10.2206 30.342 10.6021 30.5 11 30.5H21C21.3978 30.5 21.7793 30.342 22.0606 30.0607C22.3419 29.7794 22.5 29.3978 22.5 29C22.5 28.6022 22.3419 28.2206 22.0606 27.9393C21.7793 27.658 21.3978 27.5 21 27.5H17.5V23.4C19.8718 23.0905 22.0865 22.0437 23.8312 20.4075C24.9795 19.3339 25.8048 17.9606 26.2139 16.4427C26.623 14.9248 26.5995 13.3228 26.1462 11.8175ZM11.135 4.5H20.865L23.1625 12.3013C21.8025 12.6513 19.6562 12.6763 16.6775 11.1613C13.835 9.7225 11.49 9.375 9.65497 9.5275L11.135 4.5ZM16 20.5C13.852 20.5025 11.784 19.6858 10.2175 18.2162C9.48596 17.529 8.95872 16.6528 8.694 15.6846C8.42929 14.7164 8.43741 13.6939 8.71747 12.73C11.0225 12.0637 13.5475 12.9375 15.3262 13.8387C16.77 14.57 19.0987 15.4987 21.6087 15.4987C22.2082 15.5004 22.8064 15.4439 23.395 15.33C23.1735 16.4365 22.6109 17.4459 21.7862 18.2162C20.2187 19.6867 18.1492 20.5035 16 20.5Z" fill="black"/>
</svg>
