<svg width="32" height="32" viewBox="0 0 32 32" fill="none" xmlns="http://www.w3.org/2000/svg">
<path d="M28.8086 8.43728C28.7176 8.21238 28.5735 8.01292 28.3885 7.85598C28.2035 7.69905 27.9831 7.58933 27.7464 7.53623C27.5097 7.48314 27.2636 7.48825 27.0293 7.55113C26.795 7.61402 26.5795 7.73279 26.4011 7.89728L21.5536 12.3748L19.9686 12.0348L19.6249 10.446L24.0986 5.59853C24.2631 5.4202 24.3819 5.20464 24.4448 4.97033C24.5077 4.73602 24.5128 4.48995 24.4597 4.25323C24.4066 4.01651 24.2969 3.79621 24.1399 3.6112C23.983 3.4262 23.7835 3.28202 23.5586 3.19103C21.8365 2.49429 19.9479 2.31775 18.1265 2.68325C16.3051 3.04876 14.6308 3.94027 13.3109 5.24748C11.9909 6.55468 11.0831 8.22021 10.6999 10.038C10.3167 11.8557 10.4749 13.746 11.1549 15.4748L3.89614 21.7498C3.86864 21.7735 3.84114 21.7985 3.81614 21.8248C2.98358 22.671 2.51913 23.8119 2.52396 24.9991C2.5288 26.1862 3.00252 27.3233 3.84195 28.1627C4.68137 29.0021 5.81849 29.4759 7.0056 29.4807C8.19272 29.4855 9.33366 29.0211 10.1799 28.1885C10.2061 28.1635 10.2311 28.136 10.2549 28.1085L16.5249 20.8498C18.2546 21.5311 20.1462 21.6899 21.9653 21.3065C23.7844 20.9231 25.4511 20.0145 26.7588 18.6931C28.0664 17.3717 28.9577 15.6957 29.3221 13.8727C29.6864 12.0497 29.5079 10.1598 28.8086 8.43728ZM19.9999 18.4998C18.9015 18.4998 17.8209 18.222 16.8586 17.6923C16.5576 17.5263 16.2087 17.4688 15.8704 17.5294C15.532 17.5899 15.2247 17.7648 14.9999 18.0248L8.02614 26.0935C7.74435 26.3753 7.36215 26.5336 6.96364 26.5336C6.56512 26.5336 6.18293 26.3753 5.90114 26.0935C5.61935 25.8117 5.46104 25.4295 5.46104 25.031C5.46104 24.6325 5.61935 24.2503 5.90114 23.9685L13.9749 16.9998C14.2353 16.7746 14.4103 16.4668 14.4706 16.1279C14.5309 15.789 14.4729 15.4397 14.3061 15.1385C13.7603 14.1487 13.4821 13.0337 13.4988 11.9035C13.5155 10.7733 13.8267 9.66704 14.4016 8.69384C14.9765 7.72064 15.7952 6.91418 16.777 6.35404C17.7587 5.7939 18.8696 5.49946 19.9999 5.49978H20.1111L16.8961 8.98353C16.7334 9.1601 16.6154 9.37318 16.5521 9.60483C16.4888 9.83649 16.482 10.08 16.5324 10.3148L17.2399 13.6085C17.3006 13.8909 17.4415 14.1497 17.6457 14.3539C17.8499 14.5582 18.1088 14.6991 18.3911 14.7598L21.6849 15.4673C21.9197 15.5176 22.1632 15.5109 22.3948 15.4476C22.6265 15.3843 22.8396 15.2663 23.0161 15.1035L26.4999 11.8898C26.4999 11.9273 26.4999 11.9635 26.4999 12.001C26.4976 13.7241 25.812 15.3759 24.5934 16.5942C23.3749 17.8125 21.723 18.4978 19.9999 18.4998Z" fill="black"/>
</svg>
