<svg width="32" height="32" viewBox="0 0 32 32" fill="none" xmlns="http://www.w3.org/2000/svg">
<path d="M25.3535 24.6463C25.4474 24.7401 25.5001 24.8674 25.5001 25C25.5001 25.1327 25.4474 25.26 25.3535 25.3538C25.2597 25.4476 25.1325 25.5003 24.9998 25.5003C24.8671 25.5003 24.7399 25.4476 24.646 25.3538L15.9998 16.7075L7.35354 25.3538C7.25972 25.4476 7.13247 25.5003 6.99979 25.5003C6.86711 25.5003 6.73986 25.4476 6.64604 25.3538C6.55222 25.26 6.49951 25.1327 6.49951 25C6.49951 24.8674 6.55222 24.7401 6.64604 24.6463L15.2923 16L6.64604 7.35378C6.55222 7.25996 6.49951 7.13272 6.49951 7.00003C6.49951 6.86735 6.55222 6.7401 6.64604 6.64628C6.73986 6.55246 6.86711 6.49976 6.99979 6.49976C7.13247 6.49976 7.25972 6.55246 7.35354 6.64628L15.9998 15.2925L24.646 6.64628C24.6925 6.59983 24.7476 6.56298 24.8083 6.53784C24.869 6.5127 24.9341 6.49976 24.9998 6.49976C25.0655 6.49976 25.1305 6.5127 25.1912 6.53784C25.2519 6.56298 25.3071 6.59983 25.3535 6.64628C25.4 6.69274 25.4368 6.74789 25.462 6.80859C25.4871 6.86928 25.5001 6.93434 25.5001 7.00003C25.5001 7.06573 25.4871 7.13079 25.462 7.19148C25.4368 7.25218 25.4 7.30733 25.3535 7.35378L16.7073 16L25.3535 24.6463Z" fill="black"/>
</svg>
