<svg width="32" height="32" viewBox="0 0 32 32" fill="none" xmlns="http://www.w3.org/2000/svg">
<path d="M26 3.5H6C5.33696 3.5 4.70107 3.76339 4.23223 4.23223C3.76339 4.70107 3.5 5.33696 3.5 6V26C3.5 26.663 3.76339 27.2989 4.23223 27.7678C4.70107 28.2366 5.33696 28.5 6 28.5H26C26.663 28.5 27.2989 28.2366 27.7678 27.7678C28.2366 27.2989 28.5 26.663 28.5 26V6C28.5 5.33696 28.2366 4.70107 27.7678 4.23223C27.2989 3.76339 26.663 3.5 26 3.5ZM25.5 25.5H6.5V6.5H25.5V25.5ZM10.9388 18.9387L13.875 16L10.9388 13.0612C10.7992 12.9217 10.6885 12.7561 10.613 12.5738C10.5375 12.3915 10.4986 12.1961 10.4986 11.9987C10.4986 11.6002 10.657 11.218 10.9388 10.9362C11.2205 10.6545 11.6027 10.4961 12.0013 10.4961C12.3998 10.4961 12.782 10.6545 13.0638 10.9362L16 13.875L18.9387 10.935C19.2205 10.6532 19.6027 10.4949 20.0012 10.4949C20.3998 10.4949 20.782 10.6532 21.0637 10.935C21.3455 11.2168 21.5039 11.599 21.5039 11.9975C21.5039 12.396 21.3455 12.7782 21.0637 13.06L18.125 16L21.065 18.9387C21.3468 19.2205 21.5051 19.6027 21.5051 20.0012C21.5051 20.3998 21.3468 20.782 21.065 21.0637C20.7832 21.3455 20.401 21.5039 20.0025 21.5039C19.604 21.5039 19.2218 21.3455 18.94 21.0637L16 18.125L13.0612 21.065C12.7795 21.3468 12.3973 21.5051 11.9987 21.5051C11.6002 21.5051 11.218 21.3468 10.9362 21.065C10.6545 20.7832 10.4961 20.401 10.4961 20.0025C10.4961 19.604 10.6545 19.2218 10.9362 18.94L10.9388 18.9387Z" fill="black"/>
</svg>
