<svg width="32" height="32" viewBox="0 0 32 32" fill="none" xmlns="http://www.w3.org/2000/svg">
<path d="M16 2.5C13.33 2.5 10.7199 3.29176 8.49981 4.77516C6.27974 6.25856 4.54942 8.36697 3.52763 10.8338C2.50585 13.3006 2.2385 16.015 2.7594 18.6337C3.28031 21.2525 4.56606 23.6579 6.45406 25.5459C8.34207 27.434 10.7475 28.7197 13.3663 29.2406C15.985 29.7615 18.6994 29.4942 21.1662 28.4724C23.633 27.4506 25.7414 25.7203 27.2248 23.5002C28.7082 21.2801 29.5 18.67 29.5 16C29.496 12.4208 28.0724 8.98932 25.5416 6.45844C23.0107 3.92756 19.5792 2.50397 16 2.5ZM5.50001 16C5.50298 13.2161 6.61019 10.5472 8.57867 8.57867C10.5472 6.61018 13.2161 5.50298 16 5.5C17.1935 5.5 18.3381 5.97411 19.182 6.81802C20.0259 7.66193 20.5 8.80653 20.5 10C20.5 11.1935 20.0259 12.3381 19.182 13.182C18.3381 14.0259 17.1935 14.5 16 14.5C14.8889 14.5 13.7917 14.7468 12.7877 15.2227C11.7836 15.6985 10.8979 16.3915 10.1944 17.2516C9.49094 18.1116 8.98735 19.1172 8.72005 20.1956C8.45274 21.2741 8.42839 22.3985 8.64876 23.4875C7.65144 22.5123 6.85913 21.3475 6.3184 20.0617C5.77767 18.7758 5.49942 17.3949 5.50001 16ZM16 26.5C14.8065 26.5 13.6619 26.0259 12.818 25.182C11.9741 24.3381 11.5 23.1935 11.5 22C11.5 20.8065 11.9741 19.6619 12.818 18.818C13.6619 17.9741 14.8065 17.5 16 17.5C17.1111 17.5 18.2083 17.2532 19.2124 16.7773C20.2164 16.3015 21.1021 15.6085 21.8056 14.7484C22.5091 13.8884 23.0127 12.8828 23.28 11.8044C23.5473 10.7259 23.5716 9.60152 23.3513 8.5125C24.8407 9.97169 25.8616 11.8416 26.2837 13.8835C26.7058 15.9254 26.5099 18.0468 25.7211 19.9769C24.9323 21.9071 23.5863 23.5584 21.8548 24.7202C20.1234 25.8821 18.0851 26.5017 16 26.5ZM18 22C18 22.3956 17.8827 22.7822 17.6629 23.1111C17.4432 23.44 17.1308 23.6964 16.7654 23.8478C16.3999 23.9991 15.9978 24.0387 15.6098 23.9616C15.2219 23.8844 14.8655 23.6939 14.5858 23.4142C14.3061 23.1345 14.1156 22.7781 14.0384 22.3902C13.9613 22.0022 14.0009 21.6001 14.1522 21.2346C14.3036 20.8692 14.56 20.5568 14.8889 20.3371C15.2178 20.1173 15.6044 20 16 20C16.5304 20 17.0391 20.2107 17.4142 20.5858C17.7893 20.9609 18 21.4696 18 22ZM14 10C14 9.60444 14.1173 9.21776 14.3371 8.88886C14.5568 8.55996 14.8692 8.30362 15.2346 8.15224C15.6001 8.00087 16.0022 7.96126 16.3902 8.03843C16.7781 8.1156 17.1345 8.30608 17.4142 8.58579C17.6939 8.86549 17.8844 9.22186 17.9616 9.60982C18.0387 9.99778 17.9991 10.3999 17.8478 10.7654C17.6964 11.1308 17.44 11.4432 17.1111 11.6629C16.7822 11.8827 16.3956 12 16 12C15.4696 12 14.9609 11.7893 14.5858 11.4142C14.2107 11.0391 14 10.5304 14 10Z" fill="black"/>
</svg>
