<svg xmlns="http://www.w3.org/2000/svg" width="32" height="32" fill="none" viewBox="0 0 32 32"><path fill="#000" d="M29.224 16.553 19.5 11.69V6a3.5 3.5 0 1 0-7 0v5.691l-9.724 4.861A.5.5 0 0 0 2.5 17v4a.5.5 0 0 0 .598.49l9.402-1.875v3.183l-1.854 1.848A.5.5 0 0 0 10.5 25v4a.5.5 0 0 0 .686.464L16 27.539l4.814 1.925q.09.036.186.036a.49.49 0 0 0 .442-.266A.5.5 0 0 0 21.5 29v-4a.5.5 0 0 0-.146-.354L19.5 22.792V19.61l9.403 1.875A.5.5 0 0 0 29.5 21v-4a.5.5 0 0 0-.276-.448M28.5 20.39l-9.402-1.875A.5.5 0 0 0 18.5 19v4a.5.5 0 0 0 .146.354l1.854 1.854v3.053l-4.314-1.725a.5.5 0 0 0-.375 0L11.5 28.261v-3.053l1.854-1.854A.5.5 0 0 0 13.5 23v-4a.5.5 0 0 0-.598-.49L3.5 20.39v-3.081l9.724-4.862A.5.5 0 0 0 13.5 12V6a2.5 2.5 0 0 1 5 0v6a.5.5 0 0 0 .276.447L28.5 17.31z"/></svg>