<svg xmlns="http://www.w3.org/2000/svg" width="32" height="32" fill="none" viewBox="0 0 32 32"><path fill="#000" d="m22.584 14.138 3.881-3.654.011-.01a3.5 3.5 0 0 0-4.95-4.95l-.01.011-3.653 3.881L7.17 5.53a.5.5 0 0 0-.525.116l-3 3a.5.5 0 0 0 .077.77l8.5 5.661-2.43 2.424H7a.5.5 0 0 0-.354.148l-3 3a.5.5 0 0 0 .168.817l4.802 1.92 1.918 4.796v.011a.5.5 0 0 0 .823.154l2.992-2.991A.5.5 0 0 0 14.5 25v-2.794l2.422-2.422 5.662 8.494a.5.5 0 0 0 .77.076l3-3a.5.5 0 0 0 .116-.525zm.5 13.077-5.661-8.492a.5.5 0 0 0-.373-.223h-.049a.5.5 0 0 0-.354.148l-3 3A.5.5 0 0 0 13.5 22v2.793l-2.316 2.317-1.719-4.296a.5.5 0 0 0-.279-.279L4.89 20.816 7.208 18.5H10a.5.5 0 0 0 .354-.146l3-3a.502.502 0 0 0-.076-.77L4.784 8.92l2.34-2.343 10.701 3.89a.5.5 0 0 0 .535-.124l3.875-4.116a2.5 2.5 0 1 1 3.539 3.533l-4.116 3.875a.5.5 0 0 0-.125.535l3.889 10.704z"/></svg>