<svg xmlns="http://www.w3.org/2000/svg" width="32" height="32" fill="none" viewBox="0 0 32 32"><path fill="#000" d="M30.5 27a.5.5 0 0 1-.5.5H12a.5.5 0 0 1 0-1h18a.5.5 0 0 1 .5.5m-2.635-3.519L5.786 17.3A4.515 4.515 0 0 1 2.5 12.966V6a1.5 1.5 0 0 1 1.974-1.421l.685.227a.5.5 0 0 1 .311.305l1.414 3.912 4.616 1.316V6a1.5 1.5 0 0 1 1.974-1.422l.685.227a.5.5 0 0 1 .302.281l2.906 6.928 7.838 2.19A4.51 4.51 0 0 1 28.5 18.54V23a.5.5 0 0 1-.635.481m-.365-4.94a3.51 3.51 0 0 0-2.564-3.375l-8.071-2.25a.5.5 0 0 1-.326-.289l-2.914-6.943-.469-.156A.5.5 0 0 0 12.5 6v5a.5.5 0 0 1-.637.481l-5.5-1.567a.5.5 0 0 1-.333-.311L4.612 5.679l-.455-.151a.494.494 0 0 0-.602.245A.5.5 0 0 0 3.5 6v6.965a3.51 3.51 0 0 0 2.556 3.375l21.444 6z"/></svg>