<svg xmlns="http://www.w3.org/2000/svg" width="32" height="32" fill="none" viewBox="0 0 32 32"><path fill="#000" d="M21.5 27a.5.5 0 0 1-.5.5H3a.5.5 0 0 1 0-1h18a.5.5 0 0 1 .5.5m8.991-15.449a.5.5 0 0 1-.235.338l-18.426 11a4.473 4.473 0 0 1-5.344-.605l-4.52-4.423a1.5 1.5 0 0 1 .43-2.46l.384-.187a.5.5 0 0 1 .375-.025l3.75 1.266 3.282-1.98-3.198-3.1a1.5 1.5 0 0 1 .42-2.486l.02-.008.894-.339a.5.5 0 0 1 .35 0l6.966 2.558 6.651-3.975a4.48 4.48 0 0 1 5.768 1.027l2.336 3a.5.5 0 0 1 .097.4m-1.233-.231-1.982-2.54a3.48 3.48 0 0 0-4.476-.791l-6.853 4.091a.5.5 0 0 1-.43.04L8.5 9.539l-.707.267a.5.5 0 0 0-.112.842l3.669 3.56a.5.5 0 0 1-.09.787L7.233 17.43a.5.5 0 0 1-.42.046l-3.778-1.275-.209.103-.022.011a.5.5 0 0 0-.145.824l4.519 4.424a3.48 3.48 0 0 0 4.145.465z"/></svg>