<svg xmlns="http://www.w3.org/2000/svg" width="32" height="32" fill="none" viewBox="0 0 32 32"><path fill="#000" d="M27.5 5a.5.5 0 0 1-.5.5H5a.5.5 0 1 1 0-1h22a.5.5 0 0 1 .5.5m-2 5v12a1.5 1.5 0 0 1-1.5 1.5h-5a1.5 1.5 0 0 1-1.5-1.5V10A1.5 1.5 0 0 1 19 8.5h5a1.5 1.5 0 0 1 1.5 1.5m-1 0a.5.5 0 0 0-.5-.5h-5a.5.5 0 0 0-.5.5v12a.5.5 0 0 0 .5.5h5a.5.5 0 0 0 .5-.5zm-10 0v17a1.5 1.5 0 0 1-1.5 1.5H8A1.5 1.5 0 0 1 6.5 27V10A1.5 1.5 0 0 1 8 8.5h5a1.5 1.5 0 0 1 1.5 1.5m-1 0a.5.5 0 0 0-.5-.5H8a.5.5 0 0 0-.5.5v17a.5.5 0 0 0 .5.5h5a.5.5 0 0 0 .5-.5z"/></svg>