<svg xmlns="http://www.w3.org/2000/svg" width="32" height="32" fill="none" viewBox="0 0 32 32"><path fill="#000" d="M5.5 5v22a.5.5 0 0 1-1 0V5a.5.5 0 1 1 1 0m3 8V8A1.5 1.5 0 0 1 10 6.5h12A1.5 1.5 0 0 1 23.5 8v5a1.5 1.5 0 0 1-1.5 1.5H10A1.5 1.5 0 0 1 8.5 13m1 0a.5.5 0 0 0 .5.5h12a.5.5 0 0 0 .5-.5V8a.5.5 0 0 0-.5-.5H10a.5.5 0 0 0-.5.5zm19 6v5a1.5 1.5 0 0 1-1.5 1.5H10A1.5 1.5 0 0 1 8.5 24v-5a1.5 1.5 0 0 1 1.5-1.5h17a1.5 1.5 0 0 1 1.5 1.5m-1 0a.5.5 0 0 0-.5-.5H10a.5.5 0 0 0-.5.5v5a.5.5 0 0 0 .5.5h17a.5.5 0 0 0 .5-.5z"/></svg>