<svg xmlns="http://www.w3.org/2000/svg" width="32" height="32" fill="none" viewBox="0 0 32 32"><path fill="#000" d="M28 15.5h-2.5V9A1.5 1.5 0 0 0 24 7.5h-5A1.5 1.5 0 0 0 17.5 9v6.5h-3V6A1.5 1.5 0 0 0 13 4.5H8A1.5 1.5 0 0 0 6.5 6v9.5H4a.5.5 0 0 0 0 1h2.5V26A1.5 1.5 0 0 0 8 27.5h5a1.5 1.5 0 0 0 1.5-1.5v-9.5h3V23a1.5 1.5 0 0 0 1.5 1.5h5a1.5 1.5 0 0 0 1.5-1.5v-6.5H28a.5.5 0 0 0 0-1M13.5 26a.5.5 0 0 1-.5.5H8a.5.5 0 0 1-.5-.5V6a.5.5 0 0 1 .5-.5h5a.5.5 0 0 1 .5.5zm11-3a.5.5 0 0 1-.5.5h-5a.5.5 0 0 1-.5-.5V9a.5.5 0 0 1 .5-.5h5a.5.5 0 0 1 .5.5z"/></svg>