<svg xmlns="http://www.w3.org/2000/svg" width="32" height="32" fill="none" viewBox="0 0 32 32"><path fill="#000" d="M26 17.5h-9.5v-3H23a1.5 1.5 0 0 0 1.5-1.5V8A1.5 1.5 0 0 0 23 6.5h-6.5V4a.5.5 0 0 0-1 0v2.5H9A1.5 1.5 0 0 0 7.5 8v5A1.5 1.5 0 0 0 9 14.5h6.5v3H6A1.5 1.5 0 0 0 4.5 19v5A1.5 1.5 0 0 0 6 25.5h9.5V28a.5.5 0 0 0 1 0v-2.5H26a1.5 1.5 0 0 0 1.5-1.5v-5a1.5 1.5 0 0 0-1.5-1.5M8.5 13V8a.5.5 0 0 1 .5-.5h14a.5.5 0 0 1 .5.5v5a.5.5 0 0 1-.5.5H9a.5.5 0 0 1-.5-.5m18 11a.5.5 0 0 1-.5.5H6a.5.5 0 0 1-.5-.5v-5a.5.5 0 0 1 .5-.5h20a.5.5 0 0 1 .5.5z"/></svg>