<svg xmlns="http://www.w3.org/2000/svg" width="32" height="32" fill="none" viewBox="0 0 32 32"><path fill="#000" d="M30.5 21v4a.5.5 0 0 1-1 0v-2.793l-1.138 1.138C28.065 23.671 23.537 28.5 16 28.5c-7.635 0-12.181-4.955-12.375-5.165a.503.503 0 0 1 .75-.67C4.419 22.714 8.829 27.5 16 27.5s11.585-4.786 11.625-4.835l.017-.019L28.79 21.5h-2.79a.5.5 0 0 1 0-1h4a.5.5 0 0 1 .5.5m-10-7.811V10.5a5 5 0 0 0-9.455-2.273.501.501 0 1 1-.89-.455A6 6 0 0 1 21.5 10.5V22a.5.5 0 0 1-1 0v-2.189a6 6 0 1 1 0-6.625zm0 3.311a5 5 0 1 0-10 0 5 5 0 0 0 10 0"/></svg>