<svg xmlns="http://www.w3.org/2000/svg" width="32" height="32" fill="none" viewBox="0 0 32 32"><path fill="#000" d="M27 17.5a.5.5 0 0 0-.5.5 5.506 5.506 0 0 1-5.5 5.5 5.5 5.5 0 0 0-4.5 2.341V15.5H21a.5.5 0 0 0 0-1h-4.5v-4.036a3.5 3.5 0 1 0-1 0V14.5H11a.5.5 0 0 0 0 1h4.5v10.341A5.5 5.5 0 0 0 11 23.5 5.506 5.506 0 0 1 5.5 18a.5.5 0 0 0-1 0 6.51 6.51 0 0 0 6.5 6.5 4.5 4.5 0 0 1 4.5 4.5.5.5 0 0 0 1 0 4.5 4.5 0 0 1 4.5-4.5 6.51 6.51 0 0 0 6.5-6.5.5.5 0 0 0-.5-.5M13.5 7a2.5 2.5 0 1 1 5 0 2.5 2.5 0 0 1-5 0"/></svg>