<svg xmlns="http://www.w3.org/2000/svg" width="32" height="32" fill="none" viewBox="0 0 32 32"><path fill="#000" d="M21.5 19.5a1 1 0 1 1-2 0 1 1 0 0 1 2 0m-10-1a1 1 0 1 0 0 2.002 1 1 0 0 0 0-2.002m18 2.5v3a1.5 1.5 0 0 1-1.5 1.5H4A1.5 1.5 0 0 1 2.5 24v-2.859a13.68 13.68 0 0 1 4.648-10.286l-3.5-3.5a.5.5 0 1 1 .707-.708l3.571 3.572A13.33 13.33 0 0 1 15.953 7.5H16a13.4 13.4 0 0 1 8.098 2.696l3.548-3.55a.5.5 0 1 1 .708.708l-3.479 3.476q.335.292.651.607A13.4 13.4 0 0 1 29.5 21m-1 0A12.5 12.5 0 0 0 16 8.5h-.044C9.088 8.524 3.5 14.195 3.5 21.141V24a.5.5 0 0 0 .5.5h24a.5.5 0 0 0 .5-.5z"/></svg>