<svg xmlns="http://www.w3.org/2000/svg" width="32" height="32" fill="none" viewBox="0 0 32 32"><path fill="#000" d="m28.193 8.539-12-5a.5.5 0 0 0-.386 0l-12 5a.5.5 0 0 0-.307.527l2 15a.5.5 0 0 0 .271.382l10 5a.5.5 0 0 0 .448 0l10-5a.5.5 0 0 0 .271-.382l2-15a.5.5 0 0 0-.297-.527M25.54 23.67 16 28.441l-9.54-4.77L4.546 9.314 16 4.54l11.454 4.773zm-9.977-12.913-5 9a.5.5 0 1 0 .874.485l1.524-2.743h6.078l1.523 2.742a.502.502 0 0 0 .919-.104.5.5 0 0 0-.044-.38l-5-9a.5.5 0 0 0-.875 0m2.92 5.742h-4.967L16 12.03z"/></svg>