<svg xmlns="http://www.w3.org/2000/svg" width="32" height="32" fill="none" viewBox="0 0 32 32"><path fill="#000" d="M24.839 7.161A12.5 12.5 0 1 0 7.16 24.84 12.5 12.5 0 1 0 24.84 7.16m1.296 14.284-7.625-1.393 7.79-9.177a11.53 11.53 0 0 1-.165 10.565zm-14.151-6.179 2.641-3.111 4.017.732 1.375 3.847-2.642 3.111-4.017-.732zM25.78 9.948l-5.016 5.906-4.045-11.329a11.51 11.51 0 0 1 9.061 5.423M7.875 7.875a11.41 11.41 0 0 1 7.783-3.36l2.592 7.286L6.415 9.64c.427-.635.916-1.226 1.46-1.764m-2 2.686 7.625 1.393-7.8 9.171a11.53 11.53 0 0 1 .165-10.565zm.355 11.5 5.016-5.906 4.045 11.329A11.51 11.51 0 0 1 6.23 22.06m17.911 2.079a11.41 11.41 0 0 1-7.782 3.36l-2.609-7.301 11.84 2.162c-.427.637-.915 1.23-1.459 1.77z"/></svg>