<svg xmlns="http://www.w3.org/2000/svg" width="32" height="32" fill="none" viewBox="0 0 32 32"><path fill="#000" d="M26 4.5H6A1.5 1.5 0 0 0 4.5 6v20A1.5 1.5 0 0 0 6 27.5h20a1.5 1.5 0 0 0 1.5-1.5V6A1.5 1.5 0 0 0 26 4.5m-20 1h20a.5.5 0 0 1 .5.5v13.5h-4.086a1.5 1.5 0 0 0-1.06.439l-2.415 2.415a.5.5 0 0 1-.353.146h-5.172a.5.5 0 0 1-.353-.146l-2.415-2.415a1.5 1.5 0 0 0-1.06-.439H5.5V6a.5.5 0 0 1 .5-.5m20 21H6a.5.5 0 0 1-.5-.5v-5.5h4.086a.5.5 0 0 1 .353.146l2.415 2.415a1.5 1.5 0 0 0 1.06.439h5.172a1.5 1.5 0 0 0 1.06-.439l2.415-2.415a.5.5 0 0 1 .353-.146H26.5V26a.5.5 0 0 1-.5.5M11.646 15.354a.5.5 0 0 1 .708-.708l3.146 3.146V9a.5.5 0 0 1 1 0v8.793l3.146-3.147a.501.501 0 0 1 .708.708l-4 4a.503.503 0 0 1-.708 0z"/></svg>