<svg xmlns="http://www.w3.org/2000/svg" width="32" height="32" fill="none" viewBox="0 0 32 32"><path fill="#000" d="m27.448 8.776-2-4A.5.5 0 0 0 25 4.5H7a.5.5 0 0 0-.447.276l-2 4A.5.5 0 0 0 4.5 9v17A1.5 1.5 0 0 0 6 27.5h20a1.5 1.5 0 0 0 1.5-1.5V9a.5.5 0 0 0-.052-.224M7.308 5.5h17.383l1.5 3H5.81zM26 26.5H6a.5.5 0 0 1-.5-.5V9.5h21V26a.5.5 0 0 1-.5.5m-5.646-7.854a.503.503 0 0 1 0 .708l-4 4a.503.503 0 0 1-.708 0l-4-4a.5.5 0 1 1 .708-.708l3.146 3.146V13a.5.5 0 0 1 1 0v8.793l3.146-3.147a.5.5 0 0 1 .708 0"/></svg>