<svg xmlns="http://www.w3.org/2000/svg" width="32" height="32" fill="none" viewBox="0 0 32 32"><path fill="#000" d="M26.5 11.529V9A4.5 4.5 0 0 0 22 4.5H10A4.5 4.5 0 0 0 5.5 9v2.529a4.5 4.5 0 0 0 0 8.944V25A1.5 1.5 0 0 0 7 26.5h18a1.5 1.5 0 0 0 1.5-1.5v-4.527a4.5 4.5 0 0 0 0-8.944M10 5.5h12A3.5 3.5 0 0 1 25.5 9v2.529a4.5 4.5 0 0 0-4 4.471v.5h-11V16a4.5 4.5 0 0 0-4-4.471V9A3.5 3.5 0 0 1 10 5.5m16.038 14H26a.5.5 0 0 0-.5.5v5a.5.5 0 0 1-.5.5H7a.5.5 0 0 1-.5-.5v-5a.5.5 0 0 0-.5-.5h-.037A3.5 3.5 0 1 1 9.5 16v5a.5.5 0 0 0 1 0v-3.5h11V21a.5.5 0 0 0 1 0v-5a3.5 3.5 0 1 1 3.538 3.5"/></svg>