<svg xmlns="http://www.w3.org/2000/svg" width="32" height="32" fill="none" viewBox="0 0 32 32"><path fill="#000" d="M24.354 23.648a.5.5 0 0 1 0 .706c-.125.125-3.206 3.146-8.354 3.146-2.991 0-5.919-1.256-8.466-3.635a18.3 18.3 0 0 1-2.034-2.25V26a.5.5 0 0 1-1 0v-6a.5.5 0 0 1 .5-.5h6a.5.5 0 0 1 0 1H5.926c1.25 1.758 4.799 6 10.074 6 4.719 0 7.619-2.825 7.648-2.854a.5.5 0 0 1 .706.002M27 5.5a.5.5 0 0 0-.5.5v4.384a18.3 18.3 0 0 0-2.034-2.25C21.92 5.756 18.991 4.5 16 4.5c-5.148 0-8.225 3.018-8.354 3.146a.5.5 0 0 0 .706.708C8.382 8.325 11.282 5.5 16 5.5c5.275 0 8.829 4.243 10.074 6H21a.5.5 0 0 0 0 1h6a.5.5 0 0 0 .5-.5V6a.5.5 0 0 0-.5-.5"/></svg>