<svg xmlns="http://www.w3.org/2000/svg" width="32" height="32" fill="none" viewBox="0 0 32 32"><path fill="#000" d="M11 12.5H5a.5.5 0 0 1-.5-.5V6a.5.5 0 1 1 1 0v4.384a18.3 18.3 0 0 1 2.034-2.25C10.08 5.756 13.009 4.5 16 4.5c5.148 0 8.225 3.018 8.354 3.146a.5.5 0 0 1-.708.708C23.594 8.3 20.698 5.5 16 5.5c-5.275 0-8.827 4.243-10.074 6H11a.5.5 0 0 1 0 1m16 7h-6a.5.5 0 0 0 0 1h5.074c-1.25 1.758-4.799 6-10.074 6-4.697 0-7.594-2.801-7.646-2.854a.5.5 0 0 0-.708.708c.125.125 3.206 3.146 8.354 3.146 2.991 0 5.919-1.256 8.466-3.635a18.3 18.3 0 0 0 2.034-2.25V26a.5.5 0 0 0 1 0v-6a.5.5 0 0 0-.5-.5"/></svg>