<svg xmlns="http://www.w3.org/2000/svg" width="32" height="32" fill="none" viewBox="0 0 32 32"><path fill="#000" d="M11.646 7.354a.5.5 0 0 1 0-.708l4-4a.5.5 0 0 1 .708 0l4 4a.5.5 0 0 1-.708.708L16.5 4.207V12a.5.5 0 0 1-1 0V4.207l-3.146 3.147a.5.5 0 0 1-.708 0m8 17.292L16.5 27.792V20a.5.5 0 0 0-1 0v7.792l-3.146-3.146a.5.5 0 1 0-.708.708l4 4a.5.5 0 0 0 .708 0l4-4a.5.5 0 0 0-.708-.708m9.708-9-4-4a.5.5 0 1 0-.708.708l3.146 3.146H20a.5.5 0 1 0 0 1h7.792l-3.146 3.146a.5.5 0 1 0 .708.708l4-4a.503.503 0 0 0 0-.708M4.207 16.5H12a.5.5 0 0 0 0-1H4.207l3.147-3.146a.5.5 0 0 0-.708-.708l-4 4a.5.5 0 0 0 0 .708l4 4a.5.5 0 0 0 .708-.708z"/></svg>