<svg xmlns="http://www.w3.org/2000/svg" width="32" height="32" fill="none" viewBox="0 0 32 32"><path fill="#000" d="M18.5 13V8a.5.5 0 0 1 1 0v3.793l6.146-6.147a.5.5 0 1 1 .708.708L20.208 12.5H24a.5.5 0 0 1 0 1h-5a.5.5 0 0 1-.5-.5M13 18.5H8a.5.5 0 0 0 0 1h3.793l-6.147 6.146a.5.5 0 0 0 .708.708l6.146-6.146V24a.5.5 0 0 0 1 0v-5a.5.5 0 0 0-.5-.5m7.208 1H24a.5.5 0 1 0 0-1h-5a.5.5 0 0 0-.5.5v5a.5.5 0 0 0 1 0v-3.793l6.146 6.147a.5.5 0 0 0 .708-.708zM13 7.5a.5.5 0 0 0-.5.5v3.793L6.354 5.646a.5.5 0 0 0-.708.708l6.147 6.146H8a.5.5 0 0 0 0 1h5a.5.5 0 0 0 .5-.5V8a.5.5 0 0 0-.5-.5"/></svg>