<svg xmlns="http://www.w3.org/2000/svg" width="32" height="32" fill="none" viewBox="0 0 32 32"><path fill="#000" d="M19.5 13a.5.5 0 0 1 .5-.5h10a.5.5 0 0 1 0 1H20a.5.5 0 0 1-.5-.5M30 16.5H20a.5.5 0 0 0 0 1h10a.5.5 0 0 0 0-1m0 4H20a.5.5 0 0 0 0 1h10a.5.5 0 0 0 0-1m0 4H9a.5.5 0 0 0 0 1h21a.5.5 0 0 0 0-1m-20-3a6.493 6.493 0 0 1-5.85-9.324A3 3 0 0 1 5.5 6.5a.5.5 0 0 1 .243.063l8.882 4.937a2.001 2.001 0 0 0-.125-4 .5.5 0 1 1 0-1 3 3 0 1 1 0 6 .5.5 0 0 1-.242-.062L9.104 9.574A5.5 5.5 0 0 0 9.5 20.476V15a.5.5 0 0 1 1 0v5.476a5.51 5.51 0 0 0 4.688-3.642.5.5 0 0 1 .942.332A6.51 6.51 0 0 1 10 21.5M4.655 11.313a6.5 6.5 0 0 1 3.183-2.438L5.375 7.5a2 2 0 0 0-.72 3.813"/></svg>