<svg xmlns="http://www.w3.org/2000/svg" width="32" height="32" fill="none" viewBox="0 0 32 32"><path fill="#000" d="M6.5 17a.5.5 0 0 1-.5.5H3a.5.5 0 0 1 0-1h1.5v-9H3a.5.5 0 1 1 0-1h2a.5.5 0 0 1 .424.234L10 14.056l4.576-7.321A.5.5 0 0 1 15 6.5h2a.5.5 0 0 1 0 1h-1.5v9H17a.5.5 0 0 1 0 1h-3a.5.5 0 0 1 0-1h.5V8.75l-4.076 6.515a.5.5 0 0 1-.848 0L5.5 8.75v7.75H6a.5.5 0 0 1 .5.5M21 13.5h9a.5.5 0 0 0 0-1h-9a.5.5 0 0 0 0 1m9 3h-9a.5.5 0 0 0 0 1h9a.5.5 0 0 0 0-1m0 4H9a.5.5 0 0 0 0 1h21a.5.5 0 0 0 0-1m0 4H9a.5.5 0 0 0 0 1h21a.5.5 0 0 0 0-1"/></svg>