<svg xmlns="http://www.w3.org/2000/svg" width="32" height="32" fill="none" viewBox="0 0 32 32"><path fill="#000" d="M26.486 20.309A24.5 24.5 0 0 0 23.92 16a24.5 24.5 0 0 0 2.566-4.309c1.298-2.882 1.351-5.125.151-6.328s-3.446-1.147-6.328.15A24.5 24.5 0 0 0 16 8.08c-1.344-1-2.788-1.86-4.309-2.566-2.882-1.298-5.13-1.351-6.328-.151-1.2 1.2-1.147 3.446.15 6.328A24.5 24.5 0 0 0 8.08 16c-1 1.345-1.86 2.788-2.566 4.309-1.298 2.882-1.351 5.125-.151 6.328.575.575 1.387.863 2.402.863 1.098 0 2.426-.339 3.926-1.014A24.5 24.5 0 0 0 16 23.92c1.345 1 2.788 1.86 4.309 2.566 1.5.675 2.828 1.014 3.926 1.014 1.011 0 1.828-.288 2.403-.863 1.2-1.198 1.146-3.446-.152-6.328m-.555-14.24c1.284 1.285.393 4.881-2.637 9.105a38 38 0 0 0-3.044-3.424 38 38 0 0 0-3.429-3.039c4.229-3.036 7.825-3.927 9.11-2.642M22.681 16a37 37 0 0 1-3.125 3.547 36.5 36.5 0 0 1-3.547 3.125 36.5 36.5 0 0 1-3.548-3.125A37 37 0 0 1 9.336 16 37.8 37.8 0 0 1 16 9.323a37 37 0 0 1 3.546 3.124A37 37 0 0 1 22.676 16zM6.07 6.069c.381-.375.964-.569 1.705-.569 1.764 0 4.426 1.074 7.398 3.206a38 38 0 0 0-6.466 6.468c-3.03-4.224-3.921-7.82-2.637-9.105m0 19.862c-1.284-1.285-.393-4.875 2.637-9.105a38 38 0 0 0 3.044 3.424 38 38 0 0 0 3.429 3.039c-4.229 3.035-7.825 3.926-9.11 2.642m19.862 0c-1.285 1.284-4.875.393-9.105-2.637a38 38 0 0 0 3.424-3.044 38 38 0 0 0 3.039-3.429c3.035 4.229 3.926 7.825 2.642 9.11M17 16a1 1 0 1 1-2 0 1 1 0 0 1 2 0"/></svg>