<svg xmlns="http://www.w3.org/2000/svg" width="32" height="32" fill="none" viewBox="0 0 32 32"><path fill="#000" d="M11.5 17a1 1 0 1 1 0-2 1 1 0 0 1 0 2m9-2a1 1 0 1 0 0 2 1 1 0 0 0 0-2m-1.266 5.578a6.13 6.13 0 0 1-6.468 0 .5.5 0 0 0-.532.845 7.12 7.12 0 0 0 7.532 0 .499.499 0 0 0-.147-.926.5.5 0 0 0-.385.08M28.5 16A12.5 12.5 0 1 1 16 3.5 12.514 12.514 0 0 1 28.5 16m-1 0A11.513 11.513 0 0 0 16.243 4.5C14.532 6.759 14.5 8.979 14.5 9a1.5 1.5 0 1 0 3 0 .5.5 0 0 1 1 0 2.5 2.5 0 0 1-5 0c0-.098.02-2.164 1.5-4.455A11.5 11.5 0 1 0 27.5 16"/></svg>