<svg xmlns="http://www.w3.org/2000/svg" width="32" height="32" fill="none" viewBox="0 0 32 32"><path fill="#000" d="M27 5.5H8.566a1.51 1.51 0 0 0-1.286.729L1.57 15.743a.5.5 0 0 0 0 .515L7.28 25.77a1.51 1.51 0 0 0 1.286.729H27a1.5 1.5 0 0 0 1.5-1.5V7A1.5 1.5 0 0 0 27 5.5m.5 19.5a.5.5 0 0 1-.5.5H8.566a.5.5 0 0 1-.429-.242L2.584 16l5.553-9.257a.5.5 0 0 1 .43-.243H27a.5.5 0 0 1 .5.5zm-7.146-11.646L17.707 16l2.647 2.646a.5.5 0 0 1-.708.708L17 16.708l-2.646 2.646a.5.5 0 0 1-.708-.708L16.292 16l-2.646-2.646a.5.5 0 1 1 .708-.708L17 15.292l2.646-2.646a.5.5 0 1 1 .708.708"/></svg>