<svg xmlns="http://www.w3.org/2000/svg" width="32" height="32" fill="none" viewBox="0 0 32 32"><path fill="#000" d="M16 2.5A10.51 10.51 0 0 0 5.5 13c0 2.821 1.135 5.954 3.035 8.375 1.585 2.021 3.5 3.351 5.528 3.875L12.54 28.8a.5.5 0 0 0 .46.7h6a.5.5 0 0 0 .46-.698l-1.523-3.552c2.03-.521 3.943-1.851 5.528-3.875 1.9-2.426 3.035-5.559 3.035-8.375A10.51 10.51 0 0 0 16 2.5m2.241 26H13.76l1.31-3.058a7.6 7.6 0 0 0 1.862 0zM16 24.5c-5.262 0-9.5-6.291-9.5-11.5a9.5 9.5 0 1 1 19 0c0 5.209-4.238 11.5-9.5 11.5m6.5-12.582a.5.5 0 0 1-.411.576 1 1 0 0 1-.083 0 .5.5 0 0 1-.494-.418A5.66 5.66 0 0 0 16.918 7.5a.501.501 0 0 1 .165-.987 6.68 6.68 0 0 1 5.417 5.405"/></svg>