<svg xmlns="http://www.w3.org/2000/svg" width="32" height="32" fill="none" viewBox="0 0 32 32"><path fill="#000" d="m22.364 16 3.818-3.818a4.5 4.5 0 0 0-6.365-6.365L16 9.638l-3.818-3.82a4.501 4.501 0 0 0-6.365 6.365L9.636 16l-3.819 3.817a4.5 4.5 0 1 0 6.365 6.366L16 22.363l3.817 3.82a4.5 4.5 0 1 0 6.365-6.366zm-1.84-9.475a3.5 3.5 0 1 1 4.95 4.95l-3.818 3.818-4.949-4.95zM20.95 16 16 20.95 11.05 16 16 11.05zM6.525 11.475a3.5 3.5 0 1 1 4.95-4.95l3.817 3.819-4.948 4.949zm4.95 14a3.5 3.5 0 0 1-4.95-4.95l3.819-3.817 4.948 4.948zm14 0a3.5 3.5 0 0 1-4.95 0l-3.818-3.819 4.949-4.948 3.819 3.817a3.503 3.503 0 0 1 0 4.95M15 16a1 1 0 1 1 2 0 1 1 0 0 1-2 0"/></svg>