<svg xmlns="http://www.w3.org/2000/svg" width="32" height="32" fill="none" viewBox="0 0 32 32"><path fill="#000" d="M31 15.5h-1.5V11A1.5 1.5 0 0 0 28 9.5h-2.5V8A1.5 1.5 0 0 0 24 6.5h-3A1.5 1.5 0 0 0 19.5 8v7.5h-7V8A1.5 1.5 0 0 0 11 6.5H8A1.5 1.5 0 0 0 6.5 8v1.5H4A1.5 1.5 0 0 0 2.5 11v4.5H1a.5.5 0 0 0 0 1h1.5V21A1.5 1.5 0 0 0 4 22.5h2.5V24A1.5 1.5 0 0 0 8 25.5h3a1.5 1.5 0 0 0 1.5-1.5v-7.5h7V24a1.5 1.5 0 0 0 1.5 1.5h3a1.5 1.5 0 0 0 1.5-1.5v-1.5H28a1.5 1.5 0 0 0 1.5-1.5v-4.5H31a.5.5 0 0 0 0-1m-27 6a.5.5 0 0 1-.5-.5V11a.5.5 0 0 1 .5-.5h2.5v11zm7.5 2.5a.5.5 0 0 1-.5.5H8a.5.5 0 0 1-.5-.5V8a.5.5 0 0 1 .5-.5h3a.5.5 0 0 1 .5.5zm13 0a.5.5 0 0 1-.5.5h-3a.5.5 0 0 1-.5-.5V8a.5.5 0 0 1 .5-.5h3a.5.5 0 0 1 .5.5zm4-3a.5.5 0 0 1-.5.5h-2.5v-11H28a.5.5 0 0 1 .5.5z"/></svg>