<svg xmlns="http://www.w3.org/2000/svg" width="32" height="32" fill="none" viewBox="0 0 32 32"><path fill="#000" d="M28.5 6v5a.5.5 0 0 1-1 0V6.5H23a.5.5 0 0 1 0-1h5a.5.5 0 0 1 .5.5M9 25.5H4.5V21a.5.5 0 0 0-1 0v5a.5.5 0 0 0 .5.5h5a.5.5 0 0 0 0-1m19-5a.5.5 0 0 0-.5.5v4.5H23a.5.5 0 0 0 0 1h5a.5.5 0 0 0 .5-.5v-5a.5.5 0 0 0-.5-.5m-24-9a.5.5 0 0 0 .5-.5V6.5H9a.5.5 0 1 0 0-1H4a.5.5 0 0 0-.5.5v5a.5.5 0 0 0 .5.5m6-1a.5.5 0 0 0-.5.5v10a.5.5 0 0 0 1 0V11a.5.5 0 0 0-.5-.5m12.5.5a.5.5 0 0 0-1 0v10a.5.5 0 0 0 1 0zm-4.5-.5a.5.5 0 0 0-.5.5v10a.5.5 0 0 0 1 0V11a.5.5 0 0 0-.5-.5m-4 0a.5.5 0 0 0-.5.5v10a.5.5 0 0 0 1 0V11a.5.5 0 0 0-.5-.5"/></svg>