<svg xmlns="http://www.w3.org/2000/svg" width="32" height="32" fill="none" viewBox="0 0 32 32"><path fill="#000" d="M16 3.5A12.515 12.515 0 0 0 3.5 16v7a2.5 2.5 0 0 0 3.98 2.015C9.057 23.875 11.816 22.5 16 22.5s6.942 1.367 8.52 2.515A2.5 2.5 0 0 0 28.5 23v-7A12.515 12.515 0 0 0 16 3.5M27.5 16v2.029a20.3 20.3 0 0 0-6.084-2.809 20.3 20.3 0 0 0-4.268-10.664A11.515 11.515 0 0 1 27.5 16m-7.113-1.033a20.8 20.8 0 0 0-8.774 0C12.205 9.618 15 5.914 16 4.75c1 1.165 3.795 4.866 4.387 10.219zm-5.535-10.41a20.3 20.3 0 0 0-4.268 10.664A20.3 20.3 0 0 0 4.5 18.03V16A11.515 11.515 0 0 1 14.853 4.558m11.833 19.777a1.49 1.49 0 0 1-1.576-.125C23.41 22.973 20.452 21.5 16 21.5c-4.453 0-7.411 1.471-9.109 2.706a1.49 1.49 0 0 1-1.576.125A1.47 1.47 0 0 1 4.5 23v-3.75a19.5 19.5 0 0 1 23 0V23a1.47 1.47 0 0 1-.815 1.334"/></svg>