<svg xmlns="http://www.w3.org/2000/svg" width="32" height="32" fill="none" viewBox="0 0 32 32"><path fill="#000" d="M16 3.5A12.5 12.5 0 1 0 28.5 16 12.514 12.514 0 0 0 16 3.5M7.5 8.259a11.4 11.4 0 0 1 2.988 7.241H4.51A11.46 11.46 0 0 1 7.5 8.259m9 7.241V4.511a11.45 11.45 0 0 1 7.29 3.038 12.4 12.4 0 0 0-3.279 7.951zm-1 0h-4.011A12.4 12.4 0 0 0 8.21 7.549 11.45 11.45 0 0 1 15.5 4.51zm-5.012 1A11.4 11.4 0 0 1 7.5 23.741 11.46 11.46 0 0 1 4.511 16.5zm1 0H15.5v10.989a11.45 11.45 0 0 1-7.29-3.038 12.4 12.4 0 0 0 3.279-7.951zm5.012 0h4.011a12.4 12.4 0 0 0 3.279 7.951 11.45 11.45 0 0 1-7.29 3.038zm5.012 0h5.977a11.46 11.46 0 0 1-2.989 7.241 11.4 11.4 0 0 1-2.988-7.241m0-1A11.4 11.4 0 0 1 24.5 8.259a11.46 11.46 0 0 1 2.989 7.241z"/></svg>