<svg xmlns="http://www.w3.org/2000/svg" width="32" height="32" fill="none" viewBox="0 0 32 32"><path fill="#000" d="M16.5 15v7a.5.5 0 0 1-1 0v-7a.5.5 0 0 1 1 0m12.986-2.801-1.736 13a1.5 1.5 0 0 1-1.484 1.301H5.734a1.5 1.5 0 0 1-1.484-1.301l-1.732-13A1.5 1.5 0 0 1 4 10.5h4.773l6.852-7.829a.5.5 0 0 1 .75 0l6.853 7.829H28a1.5 1.5 0 0 1 1.486 1.699M10.101 10.5H21.9L16 3.759zm18.274 1.17A.5.5 0 0 0 28 11.5H4a.5.5 0 0 0-.5.565l1.733 13a.5.5 0 0 0 .5.434h20.533a.5.5 0 0 0 .5-.434L28.5 12.066a.5.5 0 0 0-.125-.396M22.65 14.5a.5.5 0 0 0-.547.447l-.7 7a.5.5 0 0 0 .447.553h.051a.5.5 0 0 0 .5-.45l.7-7a.5.5 0 0 0-.45-.55m-13.3 0a.5.5 0 0 0-.447.547l.7 7a.5.5 0 0 0 .5.45h.05a.5.5 0 0 0 .448-.547l-.7-7a.5.5 0 0 0-.55-.45"/></svg>