<svg xmlns="http://www.w3.org/2000/svg" width="32" height="32" fill="none" viewBox="0 0 32 32"><path fill="#000" d="M29 12.5h-3.5V12a.5.5 0 0 0-.5-.5h-8a.5.5 0 0 0-.5.5v.5h-9v-6a2 2 0 0 1 2-2 2.06 2.06 0 0 1 2.01 1.6.5.5 0 1 0 .98-.2A3.04 3.04 0 0 0 9.5 3.5a3 3 0 0 0-3 3v6H3A1.5 1.5 0 0 0 1.5 14v4A6.51 6.51 0 0 0 8 24.5h.5V27a.5.5 0 1 0 1 0v-2.5h13V27a.5.5 0 0 0 1 0v-2.5h.5a6.51 6.51 0 0 0 6.5-6.5v-4a1.5 1.5 0 0 0-1.5-1.5m-11.5 0h7v5h-7zm12 5.5a5.506 5.506 0 0 1-5.5 5.5H8A5.507 5.507 0 0 1 2.5 18v-4a.5.5 0 0 1 .5-.5h13.5V18a.5.5 0 0 0 .5.5h8a.5.5 0 0 0 .5-.5v-4.5H29a.5.5 0 0 1 .5.5z"/></svg>