<svg xmlns="http://www.w3.org/2000/svg" width="32" height="32" fill="none" viewBox="0 0 32 32"><path fill="#000" d="M18.425 16.738a.5.5 0 0 1 .023.486l-2 4a.5.5 0 0 1-.896-.448l1.64-3.276H14a.5.5 0 0 1-.447-.724l2-4a.5.5 0 1 1 .895.448l-1.64 3.276H18a.5.5 0 0 1 .425.238M12 1.5h8a.5.5 0 0 0 0-1h-8a.5.5 0 0 0 0 1M24.5 7v21a2.5 2.5 0 0 1-2.5 2.5H10A2.5 2.5 0 0 1 7.5 28V7A2.5 2.5 0 0 1 10 4.5h12A2.5 2.5 0 0 1 24.5 7m-1 0A1.5 1.5 0 0 0 22 5.5H10A1.5 1.5 0 0 0 8.5 7v21a1.5 1.5 0 0 0 1.5 1.5h12a1.5 1.5 0 0 0 1.5-1.5z"/></svg>