<svg xmlns="http://www.w3.org/2000/svg" width="32" height="32" fill="none" viewBox="0 0 32 32"><path fill="#000" d="M25 7.5H4A2.5 2.5 0 0 0 1.5 10v12A2.5 2.5 0 0 0 4 24.5h21a2.5 2.5 0 0 0 2.5-2.5V10A2.5 2.5 0 0 0 25 7.5M26.5 22a1.5 1.5 0 0 1-1.5 1.5H4A1.5 1.5 0 0 1 2.5 22V10A1.5 1.5 0 0 1 4 8.5h21a1.5 1.5 0 0 1 1.5 1.5zm-4-10v8a.5.5 0 0 1-1 0v-8a.5.5 0 0 1 1 0m-5 0v8a.5.5 0 0 1-1 0v-8a.5.5 0 0 1 1 0m-5 0v8a.5.5 0 0 1-1 0v-8a.5.5 0 0 1 1 0m-5 0v8a.5.5 0 0 1-1 0v-8a.5.5 0 0 1 1 0m24 0v8a.5.5 0 0 1-1 0v-8a.5.5 0 0 1 1 0"/></svg>