<svg xmlns="http://www.w3.org/2000/svg" width="32" height="32" fill="none" viewBox="0 0 32 32"><path fill="#000" d="m30.354 5.646-4-4a.5.5 0 0 0-.708.708l.593.592-7.448 5.586-4.889.978a.5.5 0 0 0-.25.136L3.233 20.061a2.5 2.5 0 0 0 0 3.535l5.172 5.171a2.5 2.5 0 0 0 3.535 0l10.415-10.413a.5.5 0 0 0 .136-.256l.978-4.89 5.586-7.447.592.593a.5.5 0 0 0 .708-.708M11.229 28.06a1.5 1.5 0 0 1-2.125 0l-5.165-5.171a1.5 1.5 0 0 1 0-2.125L5 19.708 12.293 27zM13 26.293 5.707 19 12 12.708 19.293 20zM22.6 12.7a.5.5 0 0 0-.09.203l-.97 4.847L20 19.293 12.708 12l1.542-1.54 4.851-.97a.5.5 0 0 0 .203-.09l7.652-5.74 1.388 1.387z"/></svg>