<svg xmlns="http://www.w3.org/2000/svg" width="32" height="32" fill="none" viewBox="0 0 32 32"><path fill="#000" d="M13.52 15.343A4.25 4.25 0 0 0 11.25 7.5H4a.5.5 0 0 0-.5.5v16a.5.5 0 0 0 .5.5h7.75a4.75 4.75 0 0 0 1.77-9.157M4.5 8.5h6.75a3.25 3.25 0 1 1 0 6.5H4.5zm7.25 15H4.5V16h7.25a3.75 3.75 0 0 1 0 7.5M20.5 10a.5.5 0 0 1 .5-.5h8a.5.5 0 0 1 0 1h-8a.5.5 0 0 1-.5-.5m4.5 3.5a5.5 5.5 0 1 0 4.4 8.801.5.5 0 0 0-.8-.601 4.5 4.5 0 0 1-8.073-2.2H30a.5.5 0 0 0 .5-.5 5.506 5.506 0 0 0-5.5-5.5m-4.472 5a4.5 4.5 0 0 1 8.945 0z"/></svg>