<svg xmlns="http://www.w3.org/2000/svg" width="32" height="32" fill="none" viewBox="0 0 32 32"><path fill="#000" d="M6.375 4.664a.504.504 0 1 0-.75.672l2.35 2.579A9.44 9.44 0 0 0 6.5 13c0 4.516-1.072 8-1.795 9.244A1.5 1.5 0 0 0 6 24.5h5.529a4.5 4.5 0 0 0 8.942 0h2.58l2.574 2.836a.499.499 0 1 0 .74-.672zM16 27.5a3.5 3.5 0 0 1-3.464-3h6.928a3.5 3.5 0 0 1-3.464 3m-10-4a.49.49 0 0 1-.429-.25.5.5 0 0 1 0-.5c.93-1.604 1.93-5.335 1.93-9.75a8.45 8.45 0 0 1 1.174-4.314L22.143 23.5zm20.569-1.56a.49.49 0 0 1-.464-.052.5.5 0 0 1-.184-.23c-.89-2.262-1.42-5.498-1.42-8.658a8.5 8.5 0 0 0-12.693-7.396.501.501 0 0 1-.5-.869A9.5 9.5 0 0 1 25.5 13c0 4.506 1.033 7.486 1.349 8.292a.5.5 0 0 1-.283.648z"/></svg>