<svg xmlns="http://www.w3.org/2000/svg" width="32" height="32" fill="none" viewBox="0 0 32 32"><path fill="#000" d="M8.969 7.522 6.375 4.664a.504.504 0 1 0-.75.672l2.35 2.579A9.44 9.44 0 0 0 6.5 13c0 4.516-1.072 8-1.795 9.244A1.5 1.5 0 0 0 6 24.5h17.051l2.574 2.836a.499.499 0 1 0 .74-.672zM6 23.5a.49.49 0 0 1-.429-.25.5.5 0 0 1 0-.5c.93-1.604 1.93-5.335 1.93-9.75a8.45 8.45 0 0 1 1.174-4.314L22.143 23.5zM20.5 28a.5.5 0 0 1-.5.5h-8a.5.5 0 1 1 0-1h8a.5.5 0 0 1 .5.5m6.066-6.06a.49.49 0 0 1-.464-.052.5.5 0 0 1-.183-.23C25.03 19.395 24.5 16.16 24.5 13a8.5 8.5 0 0 0-12.692-7.396.501.501 0 0 1-.5-.869A9.5 9.5 0 0 1 25.5 13c0 4.506 1.033 7.486 1.349 8.292a.5.5 0 0 1-.283.648"/></svg>