<svg xmlns="http://www.w3.org/2000/svg" width="32" height="32" fill="none" viewBox="0 0 32 32"><path fill="#000" d="M27.294 22.25C26.573 21 25.5 17.516 25.5 13a9.5 9.5 0 1 0-19 0c0 4.516-1.074 8-1.795 9.244A1.5 1.5 0 0 0 6 24.5h5.529a4.5 4.5 0 0 0 8.942 0h5.53a1.5 1.5 0 0 0 1.293-2.25M16 27.5a3.5 3.5 0 0 1-3.464-3h6.928a3.5 3.5 0 0 1-3.464 3m10.431-4.25a.49.49 0 0 1-.43.25h-20a.49.49 0 0 1-.43-.25.5.5 0 0 1 0-.5C6.5 21.146 7.5 17.415 7.5 13a8.5 8.5 0 0 1 17 0c0 4.414 1 8.146 1.93 9.75a.5.5 0 0 1 0 .5"/></svg>