<svg xmlns="http://www.w3.org/2000/svg" width="32" height="32" fill="none" viewBox="0 0 32 32"><path fill="#000" d="M18.5 18a.5.5 0 0 1-.5.5h-4a.5.5 0 0 1-.416-.777l3.482-5.223H14a.5.5 0 0 1 0-1h4a.5.5 0 0 1 .416.777L14.934 17.5H18a.5.5 0 0 1 .5.5m8.798 5.75A1.48 1.48 0 0 1 26 24.5h-5.529a4.5 4.5 0 0 1-8.942 0H6a1.5 1.5 0 0 1-1.294-2.25C5.428 21 6.5 17.516 6.5 13a9.5 9.5 0 1 1 19 0c0 4.516 1.074 8 1.795 9.244a1.49 1.49 0 0 1 .003 1.506m-7.834.75h-6.928a3.5 3.5 0 0 0 6.928 0m6.965-1.75C25.5 21.146 24.5 17.414 24.5 13a8.5 8.5 0 1 0-17 0c0 4.415-1 8.146-1.93 9.75a.5.5 0 0 0 .43.75h20a.49.49 0 0 0 .43-.25.5.5 0 0 0-.001-.5"/></svg>