<svg xmlns="http://www.w3.org/2000/svg" width="32" height="32" fill="none" viewBox="0 0 32 32"><path fill="#000" d="M27.229 18.509A11.58 11.58 0 0 0 20.69 10.5H30a.5.5 0 0 0 0-1H19.464a3.5 3.5 0 0 0-6.928 0H2a.5.5 0 1 0 0 1h9.309a11.58 11.58 0 0 0-6.538 8.009 3.5 3.5 0 1 0 1.009.08 10.56 10.56 0 0 1 6.875-7.545 3.5 3.5 0 0 0 6.682 0 10.57 10.57 0 0 1 6.875 7.545 3.5 3.5 0 1 0 1.01-.08zM7.5 22a2.5 2.5 0 1 1-5 0 2.5 2.5 0 0 1 5 0m8.5-9.5a2.5 2.5 0 1 1 0-5 2.5 2.5 0 0 1 0 5m11 12a2.5 2.5 0 1 1 0-5 2.5 2.5 0 0 1 0 5"/></svg>