<svg xmlns="http://www.w3.org/2000/svg" width="32" height="32" fill="none" viewBox="0 0 32 32"><path fill="#000" d="M26 14.5c-.805 0-1.6.176-2.328.519L19.876 8.5H24a1.5 1.5 0 0 1 1.5 1.5.5.5 0 0 0 1 0A2.5 2.5 0 0 0 24 7.5h-5a.5.5 0 0 0-.433.75l1.895 3.25h-8.337L9.933 7.75A.5.5 0 0 0 9.5 7.5H6a.5.5 0 0 0 0 1h3.213l2.023 3.47-2.415 3.311a5.526 5.526 0 1 0 .804.594l2.161-2.963 4.281 7.338a.5.5 0 0 0 .83.053.5.5 0 0 0 .033-.556l-4.229-7.25h8.343l1.764 3.024A5.5 5.5 0 1 0 26 14.5M10.5 20a4.5 4.5 0 1 1-2.27-3.906l-2.634 3.611a.5.5 0 0 0 .808.59l2.634-3.613A4.5 4.5 0 0 1 10.5 20M26 24.5a4.5 4.5 0 0 1-2.684-8.11l2.25 3.863a.5.5 0 1 0 .863-.503l-2.25-3.861A4.5 4.5 0 1 1 26 24.5"/></svg>