<svg xmlns="http://www.w3.org/2000/svg" width="32" height="32" fill="none" viewBox="0 0 32 32"><path fill="#000" d="M28.903 18.511 23.7 6.676a.5.5 0 0 0-.104-.152 3.5 3.5 0 0 0-4.95 0 .5.5 0 0 0-.146.351V10.5h-5V6.875a.5.5 0 0 0-.146-.354 3.5 3.5 0 0 0-4.95 0 .5.5 0 0 0-.104.153L3.097 18.51A5.5 5.5 0 1 0 13.5 21v-9.5h5V21a5.499 5.499 0 1 0 10.403-2.489M8 25.5a4.5 4.5 0 1 1 0-9 4.5 4.5 0 0 1 0 9m0-10c-.998 0-1.978.271-2.832.788l4.007-9.12a2.5 2.5 0 0 1 3.325-.073v10.75A5.5 5.5 0 0 0 8 15.5m11.5-8.404a2.5 2.5 0 0 1 3.325.074l4.008 9.118a5.49 5.49 0 0 0-7.333 1.555zM24 25.5a4.5 4.5 0 1 1 0-9 4.5 4.5 0 0 1 0 9"/></svg>