<svg xmlns="http://www.w3.org/2000/svg" width="32" height="32" fill="none" viewBox="0 0 32 32"><path fill="#000" d="M21.5 8.5a1 1 0 1 1-2 0 1 1 0 0 1 2 0m-6.884 8.18-5 6a.5.5 0 0 0 .768.64l5-6a.5.5 0 0 0-.768-.64M29.5 10a.5.5 0 0 1-.223.416L26.5 12.267V15A12.513 12.513 0 0 1 14 27.5H1a.5.5 0 0 1-.39-.812L12.5 11.825V9.5a7 7 0 0 1 13.724-1.951l3.053 2.035A.5.5 0 0 1 29.5 10m-1.401 0-2.585-1.723a.5.5 0 0 1-.207-.29A6 6 0 0 0 13.5 9.5V12a.5.5 0 0 1-.11.313L2.04 26.5H14A11.513 11.513 0 0 0 25.5 15v-3a.5.5 0 0 1 .222-.416z"/></svg>