<svg xmlns="http://www.w3.org/2000/svg" width="32" height="32" fill="none" viewBox="0 0 32 32"><path fill="#000" d="M23.3 21.6 15.834 16l3.466-2.6a.5.5 0 0 0-.6-.8L15.5 15V5l3.2 2.4a.5.5 0 1 0 .6-.8l-4-3a.5.5 0 0 0-.8.4v11L7.3 9.6a.5.5 0 1 0-.6.8l7.466 5.6L6.7 21.6a.5.5 0 0 0 .6.8l7.2-5.4v11a.5.5 0 0 0 .8.4l8-6a.5.5 0 0 0 0-.8M15.5 27V17l6.666 5zm13.854-14.354a.501.501 0 0 1-.708.708L26 10.708l-2.646 2.646a.5.5 0 0 1-.708-.708L25.292 10l-2.646-2.646a.5.5 0 1 1 .708-.708L26 9.293l2.646-2.647a.5.5 0 1 1 .708.708L26.708 10z"/></svg>