<svg xmlns="http://www.w3.org/2000/svg" width="32" height="32" fill="none" viewBox="0 0 32 32"><path fill="#000" d="m26.375 26.664-20-22a.504.504 0 1 0-.75.672l9.25 10.178h-.018l-.063.022-.019.008h-.006a1 1 0 0 0-.07.043h-.006l-8 6a.5.5 0 0 0 .6.8L14.5 17v11a.5.5 0 0 0 .8.4l6.717-5.037 3.608 3.973a.502.502 0 0 0 .827-.12.5.5 0 0 0-.087-.552zM15.5 27V17l2.305 1.729 3.536 3.896zm-1-18.046V4a.5.5 0 0 1 .8-.4l8 6a.5.5 0 0 1 0 .8l-4.191 3.144a.5.5 0 1 1-.6-.8l3.657-2.75L15.5 5v3.954a.5.5 0 0 1-1 0"/></svg>