<svg xmlns="http://www.w3.org/2000/svg" width="32" height="32" fill="none" viewBox="0 0 32 32"><path fill="#000" d="M28 6.5h-8a4.5 4.5 0 0 0-4 2.443A4.5 4.5 0 0 0 12 6.5H4A1.5 1.5 0 0 0 2.5 8v16A1.5 1.5 0 0 0 4 25.5h8a3.5 3.5 0 0 1 3.5 3.5.5.5 0 0 0 1 0 3.5 3.5 0 0 1 3.5-3.5h8a1.5 1.5 0 0 0 1.5-1.5V8A1.5 1.5 0 0 0 28 6.5m-16 18H4a.5.5 0 0 1-.5-.5V8a.5.5 0 0 1 .5-.5h8a3.5 3.5 0 0 1 3.5 3.5v15.175A4.5 4.5 0 0 0 12 24.5m16.5-.5a.5.5 0 0 1-.5.5h-8a4.5 4.5 0 0 0-3.5 1.676V11A3.5 3.5 0 0 1 20 7.5h8a.5.5 0 0 1 .5.5z"/></svg>