<svg xmlns="http://www.w3.org/2000/svg" width="32" height="32" fill="none" viewBox="0 0 32 32"><path fill="#000" d="M13 4.5H7A1.5 1.5 0 0 0 5.5 6v20A1.5 1.5 0 0 0 7 27.5h6a1.5 1.5 0 0 0 1.5-1.5V6A1.5 1.5 0 0 0 13 4.5m-6.5 5h7v13h-7zm.5-4h6a.5.5 0 0 1 .5.5v2.5h-7V6a.5.5 0 0 1 .5-.5m6 21H7a.5.5 0 0 1-.5-.5v-2.5h7V26a.5.5 0 0 1-.5.5m15.468-2.078-4.15-19.726a1.5 1.5 0 0 0-1.78-1.162L16.686 4.79a1.51 1.51 0 0 0-1.153 1.788l4.148 19.726a1.5 1.5 0 0 0 1.781 1.162l5.852-1.257a1.51 1.51 0 0 0 1.154-1.787M18.066 13.765l6.829-1.466 1.875 8.883-6.829 1.468zm-.83-3.945 6.83-1.468.625 2.968-6.83 1.466zm-.338-4.05L22.75 4.51a.5.5 0 0 1 .372.069.5.5 0 0 1 .22.323l.518 2.472-6.83 1.465-.519-2.465a.51.51 0 0 1 .387-.606M27.104 25.23 21.25 26.49a.5.5 0 0 1-.595-.392l-.515-2.472 6.83-1.466.519 2.466a.51.51 0 0 1-.385.606"/></svg>