<svg xmlns="http://www.w3.org/2000/svg" width="32" height="32" fill="none" viewBox="0 0 32 32"><path fill="#000" d="M24 14.5h-4.5V7A1.5 1.5 0 0 0 18 5.5H4a.5.5 0 0 0-.466.679C4.695 9.207 4.966 15.83 3.52 20.86A.5.5 0 0 0 3.5 21v4A1.5 1.5 0 0 0 5 26.5h3.264c.233 0 .463-.055.671-.159l1.577-.789a.5.5 0 0 1 .224-.052h2.028a.5.5 0 0 1 .224.052l1.577.79c.209.103.438.158.671.158h3.528c.233 0 .463-.055.671-.159l1.578-.789a.5.5 0 0 1 .223-.052h2.028a.5.5 0 0 1 .224.052l1.577.79c.208.103.438.158.671.158H29a1.5 1.5 0 0 0 1.5-1.5v-4a6.507 6.507 0 0 0-6.5-6.5m-19.3-8H18a.5.5 0 0 1 .5.5v3.5H14a.5.5 0 0 0 0 1h4.5v3H14a.5.5 0 0 0 0 1h10a5.507 5.507 0 0 1 5.476 5H4.65c1.005-4.024 1.225-10.169.05-14M29.5 25a.5.5 0 0 1-.5.5h-3.264a.5.5 0 0 1-.224-.052l-1.577-.79a1.5 1.5 0 0 0-.671-.158h-2.028a1.5 1.5 0 0 0-.671.159l-1.578.789a.5.5 0 0 1-.223.052h-3.528a.5.5 0 0 1-.224-.052l-1.577-.79a1.5 1.5 0 0 0-.671-.158h-2.028a1.5 1.5 0 0 0-.671.159l-1.577.789a.5.5 0 0 1-.224.052H5a.5.5 0 0 1-.5-.5v-3.5h25z"/></svg>