<svg xmlns="http://www.w3.org/2000/svg" width="32" height="32" fill="none" viewBox="0 0 32 32"><path fill="#000" d="M26 11.5a1.5 1.5 0 0 0 1.5-1.5V6A1.5 1.5 0 0 0 26 4.5h-4A1.5 1.5 0 0 0 20.5 6v1.5h-9V6A1.5 1.5 0 0 0 10 4.5H6A1.5 1.5 0 0 0 4.5 6v4A1.5 1.5 0 0 0 6 11.5h1.5v9H6A1.5 1.5 0 0 0 4.5 22v4A1.5 1.5 0 0 0 6 27.5h4a1.5 1.5 0 0 0 1.5-1.5v-1.5h9V26a1.5 1.5 0 0 0 1.5 1.5h4a1.5 1.5 0 0 0 1.5-1.5v-4a1.5 1.5 0 0 0-1.5-1.5h-1.5v-9zM21.5 6a.5.5 0 0 1 .5-.5h4a.5.5 0 0 1 .5.5v4a.5.5 0 0 1-.5.5h-4a.5.5 0 0 1-.5-.5zm-16 4V6a.5.5 0 0 1 .5-.5h4a.5.5 0 0 1 .5.5v4a.5.5 0 0 1-.5.5H6a.5.5 0 0 1-.5-.5m5 16a.5.5 0 0 1-.5.5H6a.5.5 0 0 1-.5-.5v-4a.5.5 0 0 1 .5-.5h4a.5.5 0 0 1 .5.5zm16-4v4a.5.5 0 0 1-.5.5h-4a.5.5 0 0 1-.5-.5v-4a.5.5 0 0 1 .5-.5h4a.5.5 0 0 1 .5.5m-3-1.5H22a1.5 1.5 0 0 0-1.5 1.5v1.5h-9V22a1.5 1.5 0 0 0-1.5-1.5H8.5v-9H10a1.5 1.5 0 0 0 1.5-1.5V8.5h9V10a1.5 1.5 0 0 0 1.5 1.5h1.5z"/></svg>