<svg xmlns="http://www.w3.org/2000/svg" width="32" height="32" fill="none" viewBox="0 0 32 32"><path fill="#000" d="M6.875 7.834C5.793 9.366 4.5 12.028 4.5 16s1.293 6.634 2.375 8.166c1.176 1.663 2.375 2.399 2.383 2.405A.5.5 0 0 1 9 27.5a.5.5 0 0 1-.25-.071C8.529 27.3 3.5 24.189 3.5 16S8.529 4.7 8.743 4.571a.5.5 0 1 1 .516.858c-.009.006-1.207.742-2.384 2.405M23.256 4.57a.501.501 0 0 0-.516.858c.013 0 1.206.742 2.383 2.405 1.083 1.532 2.374 4.194 2.374 8.166s-1.292 6.634-2.375 8.166c-1.176 1.663-2.375 2.399-2.38 2.405a.5.5 0 1 0 .514.858C23.47 27.304 28.5 24.189 28.5 16S23.47 4.7 23.258 4.571z"/></svg>