<svg xmlns="http://www.w3.org/2000/svg" width="32" height="32" fill="none" viewBox="0 0 32 32"><path fill="#000" d="M4.486 16C6.5 17.029 6.5 19.455 6.5 21.5c0 3.1.169 5 3.5 5a.5.5 0 0 1 0 1c-4.5 0-4.5-3.326-4.5-6 0-3.1-.169-5-3.5-5a.5.5 0 0 1 0-1c3.331 0 3.5-1.9 3.5-5 0-2.674 0-6 4.5-6a.5.5 0 0 1 0 1c-3.331 0-3.5 1.9-3.5 5 0 2.045 0 4.471-2.014 5.5M30 15.5c-3.331 0-3.5-1.9-3.5-5 0-2.674 0-6-4.5-6a.5.5 0 0 0 0 1c3.331 0 3.5 1.9 3.5 5 0 2.045 0 4.471 2.014 5.5-2.014 1.029-2.014 3.455-2.014 5.5 0 3.1-.169 5-3.5 5a.5.5 0 0 0 0 1c4.5 0 4.5-3.326 4.5-6 0-3.1.169-5 3.5-5a.5.5 0 0 0 0-1"/></svg>