<svg xmlns="http://www.w3.org/2000/svg" width="32" height="32" fill="none" viewBox="0 0 32 32"><path fill="#000" d="M30.5 15.5a6.51 6.51 0 0 0-4-6V9A5.5 5.5 0 0 0 16 6.713 5.5 5.5 0 0 0 5.5 9v.5a6.5 6.5 0 0 0 0 12v.5A5.5 5.5 0 0 0 16 24.288 5.5 5.5 0 0 0 26.5 22v-.5a6.51 6.51 0 0 0 4-6M11 26.5A4.5 4.5 0 0 1 6.5 22v-.176A6.5 6.5 0 0 0 8 22h1a.5.5 0 0 0 0-1H8a5.5 5.5 0 0 1-1.834-10.687.5.5 0 0 0 .334-.472V9a4.5 4.5 0 0 1 9 0v9.844A5.5 5.5 0 0 0 11 16.5a.5.5 0 0 0 0 1 4.5 4.5 0 1 1 0 9M24 21h-1a.5.5 0 0 0 0 1h1c.505 0 1.009-.06 1.5-.176V22a4.5 4.5 0 1 1-4.5-4.5.5.5 0 0 0 0-1 5.5 5.5 0 0 0-4.5 2.344V9a4.5 4.5 0 1 1 9 0v.841a.5.5 0 0 0 .334.472A5.5 5.5 0 0 1 24 21m1.5-7a.5.5 0 0 1-.5.5h-.5a4 4 0 0 1-4-4V10a.5.5 0 0 1 1 0v.5a3 3 0 0 0 3 3h.5a.5.5 0 0 1 .5.5m-14-3.5a4 4 0 0 1-4 4H7a.5.5 0 0 1 0-1h.5a3 3 0 0 0 3-3V10a.5.5 0 0 1 1 0z"/></svg>