<svg xmlns="http://www.w3.org/2000/svg" width="32" height="32" fill="none" viewBox="0 0 32 32"><path fill="#000" d="M29 20.5h-4.5v-9.489a8.48 8.48 0 0 0 4.313 3.875.5.5 0 0 0 .65-.276.5.5 0 0 0-.276-.651A7.47 7.47 0 0 1 24.5 7a.5.5 0 0 0-1 0 7.5 7.5 0 0 1-15 0 .5.5 0 1 0-1 0 7.47 7.47 0 0 1-4.688 6.955.5.5 0 1 0 .375.928A8.48 8.48 0 0 0 7.5 11.008V20.5H3a.5.5 0 0 0 0 1h4.5V25a.5.5 0 0 0 1 0v-3.5h15V25a.5.5 0 0 0 1 0v-3.5H29a.5.5 0 0 0 0-1m-10.5-5.375V20.5h-5v-5.375a8.5 8.5 0 0 0 5 0M8.5 11a8.55 8.55 0 0 0 4 3.75v5.75h-4zm11 9.5v-5.75a8.55 8.55 0 0 0 4-3.75v9.5z"/></svg>