<svg xmlns="http://www.w3.org/2000/svg" width="32" height="32" fill="none" viewBox="0 0 32 32"><path fill="#000" d="M16 11.5a4.5 4.5 0 1 0 0 9 4.5 4.5 0 0 0 0-9m0 8a3.5 3.5 0 1 1 0-7.002 3.5 3.5 0 0 1 0 7.002m9.5-3.5a9.47 9.47 0 0 1-2.419 6.334.502.502 0 0 1-.75-.668 8.49 8.49 0 0 0 0-11.332.502.502 0 0 1 .75-.668A9.47 9.47 0 0 1 25.5 16M8.168 12.691a8.49 8.49 0 0 0 1.5 8.975.501.501 0 1 1-.75.668 9.49 9.49 0 0 1 0-12.668.502.502 0 1 1 .75.668 8.5 8.5 0 0 0-1.5 2.357M30.5 16a14.46 14.46 0 0 1-4.142 10.148.5.5 0 1 1-.716-.7 13.486 13.486 0 0 0 0-18.895.5.5 0 0 1 .716-.7A14.46 14.46 0 0 1 30.5 16M6.358 25.448a.5.5 0 1 1-.715.7 14.49 14.49 0 0 1 0-20.295.5.5 0 1 1 .715.7 13.486 13.486 0 0 0 0 18.895"/></svg>