<svg xmlns="http://www.w3.org/2000/svg" width="32" height="32" fill="none" viewBox="0 0 32 32"><path fill="#000" d="M29.219 27.55C26.22 26.094 24.5 22.977 24.5 19v-2.16a1.5 1.5 0 0 0-.945-1.394l-3.111-1.229a1.5 1.5 0 0 1-.839-1.943l2.666-6.625a2.986 2.986 0 0 0-3.991-3.875 3.1 3.1 0 0 0-1.578 1.638l-2.625 6.638a1.5 1.5 0 0 1-1.952.841L8.954 9.605a1.5 1.5 0 0 0-1.625.341C4.788 12.556 3.5 15.602 3.5 19a13.44 13.44 0 0 0 3.759 9.346.5.5 0 0 0 .366.154H29a.5.5 0 0 0 .219-.95M8.043 10.644a.49.49 0 0 1 .537-.111l3.17 1.286a2.5 2.5 0 0 0 3.25-1.4l2.625-6.625c.424-1.02 1.576-1.544 2.573-1.169a2 2 0 0 1 1.148 2.645l-2.67 6.633a2.5 2.5 0 0 0 1.398 3.25l3.112 1.228a.5.5 0 0 1 .314.465V19q0 .442.027.875L6.215 12.95a14 14 0 0 1 1.828-2.306M14.195 27.5a11.4 11.4 0 0 1-3.332-5.625.5.5 0 1 0-.97.25A12.5 12.5 0 0 0 12.78 27.5H7.835A12.44 12.44 0 0 1 4.5 19c-.017-1.798.4-3.573 1.216-5.175L23.641 21c.403 2.75 1.654 5.011 3.6 6.5z"/></svg>