<svg xmlns="http://www.w3.org/2000/svg" width="32" height="32" fill="none" viewBox="0 0 32 32"><path fill="#000" d="M25.5 17.5H28a.5.5 0 0 0 0-1h-2.5v-3H28a.5.5 0 0 0 0-1h-2.514a9.48 9.48 0 0 0-2.921-6.358l2.789-2.788a.5.5 0 0 0-.708-.708l-2.841 2.841a9.47 9.47 0 0 0-11.61 0l-2.841-2.84a.5.5 0 1 0-.708.707l2.789 2.788A9.48 9.48 0 0 0 6.514 12.5H4a.5.5 0 0 0 0 1h2.5v3H4a.5.5 0 0 0 0 1h2.5V19q.003.755.125 1.5H4a.5.5 0 0 0 0 1h2.836a9.5 9.5 0 0 0 18.328 0H28a.5.5 0 0 0 0-1h-2.625q.123-.745.125-1.5zM16 4.5a8.51 8.51 0 0 1 8.484 8H7.516A8.51 8.51 0 0 1 16 4.5m.5 22.984V17a.5.5 0 0 0-1 0v10.484A8.51 8.51 0 0 1 7.5 19v-5.5h17V19a8.51 8.51 0 0 1-8 8.484"/></svg>