<svg xmlns="http://www.w3.org/2000/svg" width="32" height="32" fill="none" viewBox="0 0 32 32"><path fill="#000" d="m23.271 5.436 2.083-2.082a.5.5 0 0 0-.708-.708l-2.125 2.125a10.465 10.465 0 0 0-13.032 0L7.364 2.646a.5.5 0 1 0-.708.708L8.73 5.436A10.47 10.47 0 0 0 5.5 13v5a10.5 10.5 0 1 0 21 0v-5a10.47 10.47 0 0 0-3.229-7.564M16 3.5a9.51 9.51 0 0 1 9.5 9.5v1.5h-19V13A9.51 9.51 0 0 1 16 3.5m0 24A9.51 9.51 0 0 1 6.5 18v-2.5h19V18a9.51 9.51 0 0 1-9.5 9.5m2.5-17a1 1 0 1 1 2 0 1 1 0 0 1-2 0m-7 0a1 1 0 1 1 2 0 1 1 0 0 1-2 0"/></svg>