<svg xmlns="http://www.w3.org/2000/svg" width="32" height="32" fill="none" viewBox="0 0 32 32"><path fill="#000" d="M18.5 11.5a1 1 0 1 1 2 0 1 1 0 0 1-2 0m-6-1a1 1 0 1 0 0 2 1 1 0 0 0 0-2m18 5.5a.5.5 0 0 1-.5.5h-3.5V18c0 1.069-.163 2.13-.484 3.15l3.184 1.391a.5.5 0 1 1-.4.918l-3.125-1.369a10.502 10.502 0 0 1-19.34 0L3.21 23.459A.5.5 0 0 1 3 23.5a.5.5 0 0 1-.2-.959l3.184-1.391A10.5 10.5 0 0 1 5.5 18v-1.5H2a.5.5 0 0 1 0-1h3.5V14c0-1.069.162-2.13.484-3.15L2.8 9.459a.5.5 0 1 1 .4-.918l3.125 1.375a10.5 10.5 0 0 1 19.34 0l3.125-1.375a.5.5 0 0 1 .4.918l-3.174 1.391c.322 1.02.485 2.081.484 3.15v1.5H30a.5.5 0 0 1 .5.5m-24-.5h19V14a9.5 9.5 0 1 0-19 0zm9 11.986V16.5h-9V18a9.51 9.51 0 0 0 9 9.486m10-10.986h-9v10.986a9.51 9.51 0 0 0 9-9.486z"/></svg>