<svg xmlns="http://www.w3.org/2000/svg" width="32" height="32" fill="none" viewBox="0 0 32 32"><path fill="#000" d="M30 26.5h-2.5V12a1.5 1.5 0 0 0-1.5-1.5h-8.5V4a1.5 1.5 0 0 0-2.332-1.25l-10 6.666a1.5 1.5 0 0 0-.668 1.25V26.5H2a.5.5 0 0 0 0 1h28a.5.5 0 1 0 0-1m-4-15a.5.5 0 0 1 .5.5v14.5h-9v-15zm-20.5-.832a.5.5 0 0 1 .223-.418l10-6.666A.5.5 0 0 1 16.5 4v22.5h-11zm8 3.332v2a.5.5 0 0 1-1 0v-2a.5.5 0 0 1 1 0m-4 0v2a.5.5 0 0 1-1 0v-2a.5.5 0 1 1 1 0m0 7v2a.5.5 0 0 1-1 0v-2a.5.5 0 1 1 1 0m4 0v2a.5.5 0 0 1-1 0v-2a.5.5 0 0 1 1 0"/></svg>