<svg xmlns="http://www.w3.org/2000/svg" width="32" height="32" fill="none" viewBox="0 0 32 32"><path fill="#000" d="M28.688 6.618C28.11 5.874 27.25 5.5 26.116 5.5c-3.232 0-7.66 3.591-9.616 7.16V7a.5.5 0 0 0-1 0v5.66C13.544 9.091 9.116 5.5 5.884 5.5c-1.125 0-2 .375-2.571 1.117-1.388 1.783-.75 5.282.062 8.47.459 1.802 1.319 3.08 2.56 3.797a4.6 4.6 0 0 0 1.594.556A5 5 0 1 0 16 24.679a4.999 4.999 0 1 0 8.471-5.238 4.6 4.6 0 0 0 1.594-.557c1.241-.718 2.101-2 2.56-3.798.809-3.187 1.45-6.686.063-8.468M11.5 26.5a4.015 4.015 0 0 1-.445-8 .503.503 0 1 0-.11-1c-.9.101-1.755.447-2.472 1-2.85.155-3.835-2.5-4.125-3.655-.707-2.78-1.375-6.158-.244-7.609.38-.497.964-.736 1.78-.736 3.685 0 9.616 5.835 9.616 9.459V22.5a4 4 0 0 1-4 4m16.155-11.66c-.292 1.152-1.277 3.809-4.125 3.655a4.96 4.96 0 0 0-2.475-.995.503.503 0 1 0-.11 1 4.013 4.013 0 1 1-4.445 4v-6.541c0-3.625 5.931-9.459 9.616-9.459.817 0 1.4.239 1.783.731 1.129 1.451.462 4.829-.244 7.609"/></svg>