<svg xmlns="http://www.w3.org/2000/svg" width="32" height="32" fill="none" viewBox="0 0 32 32"><path fill="#000" d="M27 26.5h-6.5v-4h1a8.01 8.01 0 0 0 8-8 3 3 0 0 0-6 0 2 2 0 0 1-2 2h-1V7a4.5 4.5 0 1 0-9 0v4.5h-1a2 2 0 0 1-2-2 3 3 0 1 0-6 0 8.01 8.01 0 0 0 8 8h1v9H5a.5.5 0 0 0 0 1h22a.5.5 0 0 0 0-1m-15-10h-1.5a7.01 7.01 0 0 1-7-7 2 2 0 1 1 4 0 3 3 0 0 0 3 3H12a.5.5 0 0 0 .5-.5V7a3.5 3.5 0 1 1 7 0v10a.5.5 0 0 0 .5.5h1.5a3 3 0 0 0 3-3 2 2 0 0 1 4 0 7.01 7.01 0 0 1-7 7H20a.5.5 0 0 0-.5.5v4.5h-7V17a.5.5 0 0 0-.5-.5"/></svg>