<svg xmlns="http://www.w3.org/2000/svg" width="32" height="32" fill="none" viewBox="0 0 32 32"><path fill="#000" d="M28.5 14a2.5 2.5 0 0 0-2.5-2.5h-9.5V9.464A3.5 3.5 0 0 0 19.5 6c0-3.23-3.091-5.329-3.222-5.416a.5.5 0 0 0-.555 0C15.59.67 12.5 2.77 12.5 6a3.5 3.5 0 0 0 3 3.464V11.5H6A2.5 2.5 0 0 0 3.5 14v2.916c0 1.04.353 2.05 1 2.864V25A2.5 2.5 0 0 0 7 27.5h18a2.5 2.5 0 0 0 2.5-2.5v-5.22c.647-.814 1-1.824 1-2.864zm-15-8c0-2.174 1.796-3.816 2.5-4.375.704.56 2.5 2.202 2.5 4.375a2.5 2.5 0 0 1-5 0M25 26.5H7A1.5 1.5 0 0 1 5.5 25v-4.284c.7.486 1.524.758 2.375.784A4.52 4.52 0 0 0 12 19.065a4.5 4.5 0 0 0 8 0 4.52 4.52 0 0 0 4 2.435h.125a4.4 4.4 0 0 0 2.375-.782V25a1.5 1.5 0 0 1-1.5 1.5m2.5-9.584c0 1.924-1.526 3.532-3.401 3.583A3.5 3.5 0 0 1 20.5 17a.5.5 0 0 0-1 0 3.5 3.5 0 1 1-7 0 .5.5 0 0 0-1 0 3.5 3.5 0 0 1-3.599 3.5C6.026 20.449 4.5 18.841 4.5 16.918V14A1.5 1.5 0 0 1 6 12.5h20a1.5 1.5 0 0 1 1.5 1.5z"/></svg>