<svg xmlns="http://www.w3.org/2000/svg" width="32" height="32" fill="none" viewBox="0 0 32 32"><path fill="#000" d="M22 7.5H10a.5.5 0 0 0-.5.5v6a.5.5 0 0 0 .5.5h12a.5.5 0 0 0 .5-.5V8a.5.5 0 0 0-.5-.5m-.5 6h-11v-5h11zm3.5-10H7A1.5 1.5 0 0 0 5.5 5v22A1.5 1.5 0 0 0 7 28.5h18a1.5 1.5 0 0 0 1.5-1.5V5A1.5 1.5 0 0 0 25 3.5m.5 23.5a.5.5 0 0 1-.5.5H7a.5.5 0 0 1-.5-.5V5a.5.5 0 0 1 .5-.5h18a.5.5 0 0 1 .5.5zM12 18.5a1 1 0 1 1-2 0 1 1 0 0 1 2 0m5 0a1 1 0 1 1-2 0 1 1 0 0 1 2 0m5 0a1 1 0 1 1-2 0 1 1 0 0 1 2 0m-10 5a1 1 0 1 1-2 0 1 1 0 0 1 2 0m5 0a1 1 0 1 1-2 0 1 1 0 0 1 2 0m5 0a1 1 0 1 1-2 0 1 1 0 0 1 2 0"/></svg>