<svg xmlns="http://www.w3.org/2000/svg" width="32" height="32" fill="none" viewBox="0 0 32 32"><path fill="#000" d="M26 4.5h-3.5V3a.5.5 0 0 0-1 0v1.5h-11V3a.5.5 0 0 0-1 0v1.5H6A1.5 1.5 0 0 0 4.5 6v20A1.5 1.5 0 0 0 6 27.5h20a1.5 1.5 0 0 0 1.5-1.5V6A1.5 1.5 0 0 0 26 4.5m-20 1h3.5V7a.5.5 0 1 0 1 0V5.5h11V7a.5.5 0 0 0 1 0V5.5H26a.5.5 0 0 1 .5.5v4.5h-21V6a.5.5 0 0 1 .5-.5m20 21H6a.5.5 0 0 1-.5-.5V11.5h21V26a.5.5 0 0 1-.5.5m-5.146-10.854a.503.503 0 0 1 0 .708l-6 6a.503.503 0 0 1-.708 0l-3-3a.5.5 0 0 1 .708-.708l2.646 2.646 5.646-5.646a.503.503 0 0 1 .708 0"/></svg>