<svg xmlns="http://www.w3.org/2000/svg" width="32" height="32" fill="none" viewBox="0 0 32 32"><path fill="#000" d="M26 7.5h-3.734l-1.851-2.777A.5.5 0 0 0 20 4.5h-8a.5.5 0 0 0-.415.223L9.731 7.5H6A2.5 2.5 0 0 0 3.5 10v14A2.5 2.5 0 0 0 6 26.5h20a2.5 2.5 0 0 0 2.5-2.5V10A2.5 2.5 0 0 0 26 7.5M27.5 24a1.5 1.5 0 0 1-1.5 1.5H6A1.5 1.5 0 0 1 4.5 24V10A1.5 1.5 0 0 1 6 8.5h4a.5.5 0 0 0 .416-.223l1.85-2.777h7.465l1.853 2.778A.5.5 0 0 0 22 8.5h4a1.5 1.5 0 0 1 1.5 1.5zm-7-7a.5.5 0 0 1-.5.5h-3.5V21a.5.5 0 0 1-1 0v-3.5H12a.5.5 0 0 1 0-1h3.5V13a.5.5 0 0 1 1 0v3.5H20a.5.5 0 0 1 .5.5"/></svg>