<svg xmlns="http://www.w3.org/2000/svg" width="32" height="32" fill="none" viewBox="0 0 32 32"><path fill="#000" d="M6.375 4.664a.504.504 0 0 0-.75.672L7.598 7.5H6A2.5 2.5 0 0 0 3.5 10v14A2.5 2.5 0 0 0 6 26.5h18.875l.76.836a.5.5 0 1 0 .74-.672zm12.198 14.904A3.96 3.96 0 0 1 16 20.5a4 4 0 0 1-2.81-6.847zM6 25.5A1.5 1.5 0 0 1 4.5 24V10A1.5 1.5 0 0 1 6 8.5h2.5l4.011 4.413a5 5 0 0 0 6.724 7.395l4.726 5.192zM28.5 10v13.25a.5.5 0 0 1-1 0V10A1.5 1.5 0 0 0 26 8.5h-4a.5.5 0 0 1-.415-.222L19.731 5.5h-7.465l-.102.154a.5.5 0 1 1-.832-.555l.25-.375A.5.5 0 0 1 12 4.5h8a.5.5 0 0 1 .416.223l1.85 2.777H26a2.5 2.5 0 0 1 2.5 2.5"/></svg>