<svg xmlns="http://www.w3.org/2000/svg" width="32" height="32" fill="none" viewBox="0 0 32 32"><path fill="#000" d="M27.476 28.151a.5.5 0 0 1-.627.325l-10.85-3.451-10.848 3.451a.5.5 0 0 1-.303-.952l9.5-3.024-9.5-3.024a.5.5 0 1 1 .303-.952L16 23.975l10.849-3.451a.498.498 0 0 1 .666.518.5.5 0 0 1-.364.434l-9.5 3.024 9.5 3.024a.5.5 0 0 1 .325.627M9 13.5c0-2.375 1.172-4.856 3.39-7.159a19 19 0 0 1 3.347-2.767.5.5 0 0 1 .525 0A19 19 0 0 1 19.61 6.34C21.827 8.644 23 11.125 23 13.5a7 7 0 0 1-6.82 7h-.36a7 7 0 0 1-6.82-7m7 6a2.5 2.5 0 0 0 2.5-2.5c0-2.174-1.796-3.816-2.5-4.375-.704.56-2.5 2.203-2.5 4.375a2.5 2.5 0 0 0 2.5 2.5m-6-6a6 6 0 0 0 2.91 5.141A3.5 3.5 0 0 1 12.5 17c0-3.23 3.091-5.329 3.222-5.416a.5.5 0 0 1 .555 0C16.41 11.67 19.5 13.77 19.5 17c0 .573-.14 1.136-.41 1.641A6 6 0 0 0 22 13.5c0-4.546-4.811-8.095-6-8.901-1.188.807-6 4.361-6 8.901"/></svg>