<svg xmlns="http://www.w3.org/2000/svg" width="32" height="32" fill="none" viewBox="0 0 32 32"><path fill="#000" d="M30 14.5h-1.675l-3.604-8.109a1.5 1.5 0 0 0-1.375-.891H8.65a1.5 1.5 0 0 0-1.375.891l-3.6 8.109H2a.5.5 0 0 0 0 1h1.5V26A1.5 1.5 0 0 0 5 27.5h3A1.5 1.5 0 0 0 9.5 26v-2.5h13V26a1.5 1.5 0 0 0 1.5 1.5h3a1.5 1.5 0 0 0 1.5-1.5V15.5H30a.5.5 0 0 0 0-1M8.193 6.798A.5.5 0 0 1 8.65 6.5h14.7a.5.5 0 0 1 .457.298L27.23 14.5H4.77zM27.5 26a.5.5 0 0 1-.5.5h-3a.5.5 0 0 1-.5-.5v-3a.5.5 0 0 0-.5-.5H9a.5.5 0 0 0-.5.5v3a.5.5 0 0 1-.5.5H5a.5.5 0 0 1-.5-.5V15.5h23z"/></svg>