<svg xmlns="http://www.w3.org/2000/svg" width="32" height="32" fill="none" viewBox="0 0 32 32"><path fill="#000" d="M26 6.5H6A2.5 2.5 0 0 0 3.5 9v14A2.5 2.5 0 0 0 6 25.5h20a2.5 2.5 0 0 0 2.5-2.5V9A2.5 2.5 0 0 0 26 6.5m-21.5 5h23v3h-6.601a1.5 1.5 0 0 0-1.469 1.2 3.5 3.5 0 0 1-6.86 0 1.5 1.5 0 0 0-1.469-1.2H4.5zm1.5-4h20A1.5 1.5 0 0 1 27.5 9v1.5h-23V9A1.5 1.5 0 0 1 6 7.5m20 17H6A1.5 1.5 0 0 1 4.5 23v-7.5h6.601a.5.5 0 0 1 .489.4 4.5 4.5 0 0 0 8.82 0 .5.5 0 0 1 .489-.4H27.5V23a1.5 1.5 0 0 1-1.5 1.5"/></svg>