<svg xmlns="http://www.w3.org/2000/svg" width="32" height="32" fill="none" viewBox="0 0 32 32"><path fill="#000" d="M24.839 7.161a12.498 12.498 0 0 0-20.432 4.03 12.5 12.5 0 0 0 2.754 13.648A12.5 12.5 0 1 0 24.84 7.16m-.708 16.97a11.5 11.5 0 1 1 3.369-8.13 11.42 11.42 0 0 1-3.369 8.13m-3.777-13.485a.5.5 0 0 1 0 .708l-4 4a.5.5 0 0 1-.708 0l-4-4a.5.5 0 0 1 .708-.708L16 14.293l3.646-3.647a.5.5 0 0 1 .708 0m0 7a.5.5 0 0 1 0 .708l-4 4a.5.5 0 0 1-.708 0l-4-4a.5.5 0 0 1 .708-.708L16 21.293l3.646-3.647a.5.5 0 0 1 .708 0"/></svg>