<svg xmlns="http://www.w3.org/2000/svg" width="32" height="32" fill="none" viewBox="0 0 32 32"><path fill="#000" d="M28 6.5H4A1.5 1.5 0 0 0 2.5 8v16A1.5 1.5 0 0 0 4 25.5h24a1.5 1.5 0 0 0 1.5-1.5V8A1.5 1.5 0 0 0 28 6.5m-19 18 2.1-2.8a.5.5 0 0 1 .4-.2h9a.5.5 0 0 1 .4.2l2.1 2.8zm19.5-.5a.5.5 0 0 1-.5.5h-3.75l-2.55-3.4a1.5 1.5 0 0 0-1.2-.6h-9a1.5 1.5 0 0 0-1.2.6l-2.55 3.4H4a.5.5 0 0 1-.5-.5V8a.5.5 0 0 1 .5-.5h24a.5.5 0 0 1 .5.5zM22 10.5H10a3.5 3.5 0 1 0 0 7h12a3.5 3.5 0 1 0 0-7M7.5 14a2.5 2.5 0 1 1 5 0 2.5 2.5 0 0 1-5 0m4.946 2.5a3.493 3.493 0 0 0 0-5h7.108a3.494 3.494 0 0 0 0 5zm9.554 0a2.5 2.5 0 1 1 0-5 2.5 2.5 0 0 1 0 5"/></svg>