<svg xmlns="http://www.w3.org/2000/svg" width="32" height="32" fill="none" viewBox="0 0 32 32"><path fill="#000" d="M27.574 4.617a1.48 1.48 0 0 0-1.635.327l-.024.025-2.444 2.811a13.39 13.39 0 0 0-14.942 0L6.085 4.969l-.024-.025A1.5 1.5 0 0 0 3.5 6v11c0 6.34 5.608 11.5 12.5 11.5S28.5 23.341 28.5 17V6a1.48 1.48 0 0 0-.926-1.383M27.5 17c0 5.636-4.89 10.25-11 10.489v-3.282l1.854-1.853a.5.5 0 1 0-.708-.706L16 23.294l-1.646-1.646a.5.5 0 1 0-.708.706l1.854 1.854v3.282c-6.11-.24-11-4.852-11-10.49V6a.49.49 0 0 1 .309-.463.6.6 0 0 1 .2-.038.47.47 0 0 1 .333.137l2.73 3.143a.5.5 0 0 0 .676.073 11.8 11.8 0 0 1 2.752-1.51V11a.5.5 0 0 0 1 0V7c.976-.285 1.984-.45 3-.491V11a.5.5 0 0 0 1 0V6.511c1.016.04 2.024.205 3 .489v4a.5.5 0 0 0 1 0V7.342c.98.379 1.905.886 2.75 1.51a.5.5 0 0 0 .675-.073l2.73-3.139A.5.5 0 0 1 27.5 6zm-16 .5a1 1 0 1 1-2 0 1 1 0 0 1 2 0m11 0a1 1 0 1 1-2 0 1 1 0 0 1 2 0"/></svg>