<svg xmlns="http://www.w3.org/2000/svg" width="32" height="32" fill="none" viewBox="0 0 32 32"><path fill="#000" d="M26.354 24.646a.501.501 0 0 1-.708.708L23 22.708l-2.646 2.646a.5.5 0 0 1-.708-.708L22.292 22l-2.646-2.646a.5.5 0 0 1 .708-.708L23 21.292l2.646-2.646a.501.501 0 0 1 .708.708L23.708 22zM20 15.5a.5.5 0 0 0 .5-.5V9a.5.5 0 0 0-1 0v6a.5.5 0 0 0 .5.5m5 0a.5.5 0 0 0 .5-.5V4a.5.5 0 0 0-1 0v11a.5.5 0 0 0 .5.5m-10-2a.5.5 0 0 0-.5.5v11a.5.5 0 0 0 1 0V14a.5.5 0 0 0-.5-.5m-5 5a.5.5 0 0 0-.5.5v6a.5.5 0 0 0 1 0v-6a.5.5 0 0 0-.5-.5m-5 5a.5.5 0 0 0-.5.5v1a.5.5 0 0 0 1 0v-1a.5.5 0 0 0-.5-.5"/></svg>