<svg xmlns="http://www.w3.org/2000/svg" width="32" height="32" fill="none" viewBox="0 0 32 32"><path fill="#000" d="M10.5 19v6a.5.5 0 0 1-1 0v-6a.5.5 0 0 1 1 0M5 23.5a.5.5 0 0 0-.5.5v1a.5.5 0 0 0 1 0v-1a.5.5 0 0 0-.5-.5m21.375 3.164-20-22a.504.504 0 1 0-.75.672l8.875 9.758V25a.5.5 0 0 0 1 0v-8.806l4 4.4V25a.5.5 0 0 0 1 0v-3.306l5.125 5.642a.502.502 0 0 0 .827-.12.5.5 0 0 0-.087-.552zM20 14.954a.5.5 0 0 0 .5-.5V9a.5.5 0 0 0-1 0v5.454a.5.5 0 0 0 .5.5m5 5.5a.5.5 0 0 0 .5-.5V4a.5.5 0 0 0-1 0v15.954a.5.5 0 0 0 .5.5"/></svg>