<svg xmlns="http://www.w3.org/2000/svg" width="32" height="32" fill="none" viewBox="0 0 32 32"><path fill="#000" d="M30.5 16a6.5 6.5 0 1 0-11 4.684V28a.5.5 0 0 0 .724.448L24 26.558l3.776 1.89a.51.51 0 0 0 .578-.094A.5.5 0 0 0 28.5 28v-7.316a6.48 6.48 0 0 0 2-4.684m-12 0a5.5 5.5 0 1 1 5.5 5.5 5.506 5.506 0 0 1-5.5-5.5m9 11.191-3.276-1.639a.5.5 0 0 0-.448 0l-3.276 1.64v-5.72a6.48 6.48 0 0 0 7 0zM16.5 24a.5.5 0 0 1-.5.5H5A1.5 1.5 0 0 1 3.5 23V7A1.5 1.5 0 0 1 5 5.5h22A1.5 1.5 0 0 1 28.5 7a.5.5 0 0 1-1 0 .5.5 0 0 0-.5-.5H5a.5.5 0 0 0-.5.5v16a.5.5 0 0 0 .5.5h11a.5.5 0 0 1 .5.5m-2-7a.5.5 0 0 1-.5.5H9a.5.5 0 0 1 0-1h5a.5.5 0 0 1 .5.5m0-4a.5.5 0 0 1-.5.5H9a.5.5 0 0 1 0-1h5a.5.5 0 0 1 .5.5"/></svg>