<svg xmlns="http://www.w3.org/2000/svg" width="32" height="32" fill="none" viewBox="0 0 32 32"><path fill="#000" d="M26 17.5h-4.5v-5H24a1.5 1.5 0 0 0 1.5-1.5V5A1.5 1.5 0 0 0 24 3.5H8A1.5 1.5 0 0 0 6.5 5v6A1.5 1.5 0 0 0 8 12.5h2.5v5H6A1.5 1.5 0 0 0 4.5 19v2A1.5 1.5 0 0 0 6 22.5h1.5V28a.5.5 0 0 0 1 0v-5.5h15V28a.5.5 0 0 0 1 0v-5.5H26a1.5 1.5 0 0 0 1.5-1.5v-2a1.5 1.5 0 0 0-1.5-1.5M7.5 11V5a.5.5 0 0 1 .5-.5h16a.5.5 0 0 1 .5.5v6a.5.5 0 0 1-.5.5H8a.5.5 0 0 1-.5-.5m4 1.5h9v5h-9zm15 8.5a.5.5 0 0 1-.5.5H6a.5.5 0 0 1-.5-.5v-2a.5.5 0 0 1 .5-.5h20a.5.5 0 0 1 .5.5z"/></svg>