<svg xmlns="http://www.w3.org/2000/svg" width="32" height="32" fill="none" viewBox="0 0 32 32"><path fill="#000" d="M17.125 3.506A1.49 1.49 0 0 0 15.5 5v5.084a1.485 1.485 0 0 0 1.238 1.476 4.5 4.5 0 1 1-5.231 4.675c-.06-1.142.183-2.1.718-2.849a1.486 1.486 0 0 0-.162-1.918l-3.454-3.53a1.5 1.5 0 0 0-2.218.104A12.45 12.45 0 0 0 7.224 24.9 12.4 12.4 0 0 0 16 28.5h.179A12.537 12.537 0 0 0 28.5 16.177c.09-6.526-4.905-12.092-11.375-12.67M7.16 8.682a.5.5 0 0 1 .365-.182h.024a.5.5 0 0 1 .349.142l3.454 3.528a.49.49 0 0 1 .06.635 5.06 5.06 0 0 0-.902 2.695h-6a11.3 11.3 0 0 1 2.65-6.818M4.511 16.5h6.012a5.5 5.5 0 0 0 4.977 4.976v6.012A11.5 11.5 0 0 1 4.511 16.5m19.614 7.625A11.43 11.43 0 0 1 16.5 27.49v-6.012a5.44 5.44 0 0 0 3.25-1.454 5.5 5.5 0 0 0-2.849-9.45.5.5 0 0 1-.4-.49V5a.5.5 0 0 1 .337-.477.5.5 0 0 1 .201-.023c5.949.532 10.542 5.655 10.459 11.661a11.43 11.43 0 0 1-3.373 7.964"/></svg>