<svg xmlns="http://www.w3.org/2000/svg" width="32" height="32" fill="none" viewBox="0 0 32 32"><path fill="#000" d="M16.414 15.72a.5.5 0 0 1 .05.466l-2 5a.499.499 0 1 1-.928-.372l1.725-4.314H12a.5.5 0 0 1-.464-.686l2-5a.5.5 0 0 1 .652-.277.5.5 0 0 1 .276.652L12.739 15.5H16a.5.5 0 0 1 .414.22M30.5 10.829V21a2.5 2.5 0 0 1-5 0v-5a1.5 1.5 0 0 0-1.5-1.5h-2.5v12H24a.5.5 0 0 1 0 1H4a.5.5 0 0 1 0-1h2.5V7A2.5 2.5 0 0 1 9 4.5h10A2.5 2.5 0 0 1 21.5 7v6.5H24a2.5 2.5 0 0 1 2.5 2.5v5a1.5 1.5 0 1 0 3 0V10.829a1.5 1.5 0 0 0-.439-1.062l-2.415-2.413a.5.5 0 0 1 .708-.708l2.413 2.415a2.48 2.48 0 0 1 .733 1.768M20.5 26.5V7A1.5 1.5 0 0 0 19 5.5H9A1.5 1.5 0 0 0 7.5 7v19.5z"/></svg>