<svg xmlns="http://www.w3.org/2000/svg" width="32" height="32" fill="none" viewBox="0 0 32 32"><path fill="#000" d="M16 3.5A12.5 12.5 0 1 0 28.5 16 12.514 12.514 0 0 0 16 3.5m11.489 12H23.48A7.51 7.51 0 0 0 16.5 8.519V4.51A11.516 11.516 0 0 1 27.489 15.5m-11.989 0H9.521A6.506 6.506 0 0 1 15.5 9.521zm0 1v5.979A6.506 6.506 0 0 1 9.521 16.5zm1 0h5.979a6.506 6.506 0 0 1-5.979 5.979zm0-1V9.521a6.506 6.506 0 0 1 5.979 5.979zm-1-10.989V8.52A7.51 7.51 0 0 0 8.519 15.5H4.51A11.516 11.516 0 0 1 15.5 4.511M4.511 16.5H8.52a7.51 7.51 0 0 0 6.981 6.981v4.008A11.517 11.517 0 0 1 4.511 16.5M16.5 27.489V23.48a7.51 7.51 0 0 0 6.981-6.981h4.008A11.517 11.517 0 0 1 16.5 27.489"/></svg>