<svg xmlns="http://www.w3.org/2000/svg" width="32" height="32" fill="none" viewBox="0 0 32 32"><path fill="#000" d="M27 6.5H5A1.5 1.5 0 0 0 3.5 8v20a1.49 1.49 0 0 0 .866 1.36 1.486 1.486 0 0 0 1.595-.214l.008-.007 4.017-3.521a.5.5 0 0 1 .326-.118H27a1.5 1.5 0 0 0 1.5-1.5V8A1.5 1.5 0 0 0 27 6.5m.5 17.5a.5.5 0 0 1-.5.5H10.313a1.5 1.5 0 0 0-.974.359l-4.02 3.525A.5.5 0 0 1 4.5 28V8a.5.5 0 0 1 .5-.5h22a.5.5 0 0 1 .5.5zm-7-10a.5.5 0 0 1-.5.5h-8a.5.5 0 0 1 0-1h8a.5.5 0 0 1 .5.5m0 4a.5.5 0 0 1-.5.5h-8a.5.5 0 0 1 0-1h8a.5.5 0 0 1 .5.5"/></svg>