<svg xmlns="http://www.w3.org/2000/svg" width="32" height="32" fill="none" viewBox="0 0 32 32"><path fill="#000" d="m29.45 26.905-1.011-3.54a9.5 9.5 0 0 0-7.594-13.826 9.5 9.5 0 1 0-17.284 7.826l-1.011 3.54A1.25 1.25 0 0 0 4.1 22.45l3.54-1.011a9.5 9.5 0 0 0 3.516 1.022A9.5 9.5 0 0 0 24.37 27.44l3.54 1.011q.172.05.35.05a1.25 1.25 0 0 0 1.195-1.595zm-21.759-6.5a.5.5 0 0 0-.137.02L3.82 21.491a.25.25 0 0 1-.309-.308l1.066-3.734a.5.5 0 0 0-.04-.375 8.5 8.5 0 1 1 3.394 3.395.5.5 0 0 0-.24-.067zm20.734 7.02a.25.25 0 0 1-.25.064l-3.734-1.067a.5.5 0 0 0-.375.042A8.5 8.5 0 0 1 12.25 22.5a9.5 9.5 0 0 0 8.938-11.91 8.5 8.5 0 0 1 6.276 12.485.5.5 0 0 0-.041.375l1.066 3.734a.25.25 0 0 1-.064.241"/></svg>