<svg xmlns="http://www.w3.org/2000/svg" width="32" height="32" fill="none" viewBox="0 0 32 32"><path fill="#000" d="M27 5.5H5A1.5 1.5 0 0 0 3.5 7v16A1.5 1.5 0 0 0 5 24.5h7.434a.5.5 0 0 1 .429.242l1.848 3.025a1.5 1.5 0 0 0 2.57 0l1.854-3.032a.5.5 0 0 1 .429-.242H27a1.5 1.5 0 0 0 1.5-1.5V7A1.5 1.5 0 0 0 27 5.5m.5 17.5a.5.5 0 0 1-.5.5h-7.434a1.5 1.5 0 0 0-1.283.725l-1.854 3.032a.5.5 0 0 1-.86 0l-1.85-3.027a1.5 1.5 0 0 0-1.285-.73H5a.5.5 0 0 1-.5-.5V7a.5.5 0 0 1 .5-.5h22a.5.5 0 0 1 .5.5zM17 15a1 1 0 1 1-2 0 1 1 0 0 1 2 0m-5.5 0a1 1 0 1 1-2 0 1 1 0 0 1 2 0m11 0a1 1 0 1 1-2 0 1 1 0 0 1 2 0"/></svg>