<svg xmlns="http://www.w3.org/2000/svg" width="32" height="32" fill="none" viewBox="0 0 32 32"><path fill="#000" d="M27 10.5h-4.5V6A1.5 1.5 0 0 0 21 4.5H5A1.5 1.5 0 0 0 3.5 6v16a.5.5 0 0 0 .814.389L9.125 18.5H9.5V23a1.5 1.5 0 0 0 1.5 1.5h11.875l4.811 3.889A.5.5 0 0 0 28.5 28V12a1.5 1.5 0 0 0-1.5-1.5m-18.053 7a.5.5 0 0 0-.313.111L4.5 20.953V6a.5.5 0 0 1 .5-.5h16a.5.5 0 0 1 .5.5v11a.5.5 0 0 1-.5.5zM27.5 26.953l-4.134-3.342a.5.5 0 0 0-.314-.111H11a.5.5 0 0 1-.5-.5v-4.5H21a1.5 1.5 0 0 0 1.5-1.5v-5.5H27a.5.5 0 0 1 .5.5z"/></svg>