<svg xmlns="http://www.w3.org/2000/svg" width="32" height="32" fill="none" viewBox="0 0 32 32"><path fill="#000" d="m30.059 8.886-3-2.947a1.5 1.5 0 0 0-2.125 0L13.345 17.356a.5.5 0 0 1-.707 0v-.007l-4.578-4.41a1.5 1.5 0 0 0-2.125 0l-3 3a1.5 1.5 0 0 0 0 2.125l8.951 9a1.5 1.5 0 0 0 2.125 0l16.05-16.054a1.5 1.5 0 0 0-.002-2.124m-.704 1.418-16.051 16.05a.5.5 0 0 1-.706 0l-8.952-9a.5.5 0 0 1 0-.708l3-3a.5.5 0 0 1 .55-.107.5.5 0 0 1 .167.112l4.582 4.412a1.5 1.5 0 0 0 2.116 0l11.59-11.417a.5.5 0 0 1 .71 0l3 2.948a.5.5 0 0 1-.006.71"/></svg>