<svg xmlns="http://www.w3.org/2000/svg" width="32" height="32" fill="none" viewBox="0 0 32 32"><path fill="#000" d="M28.258 18.571 23.5 15.717V13a.5.5 0 0 0-.25-.434L16.5 8.71V5.5H19a.5.5 0 0 0 0-1h-2.5V2a.5.5 0 0 0-1 0v2.5H13a.5.5 0 0 0 0 1h2.5v3.21l-6.75 3.856A.5.5 0 0 0 8.5 13v2.717l-4.757 2.854A.5.5 0 0 0 3.5 19v8a.5.5 0 0 0 .5.5h10a.5.5 0 0 0 .5-.5v-6a1.5 1.5 0 1 1 3 0v6a.5.5 0 0 0 .5.5h10a.5.5 0 0 0 .5-.5v-8a.5.5 0 0 0-.242-.429M4.5 19.282l4-2.4V26.5h-4zM16 18.5a2.5 2.5 0 0 0-2.5 2.5v5.5h-4V13.29L16 9.576l6.5 3.714V26.5h-4V21a2.5 2.5 0 0 0-2.5-2.5m11.5 8h-4v-9.617l4 2.4z"/></svg>