<svg xmlns="http://www.w3.org/2000/svg" width="32" height="32" fill="none" viewBox="0 0 32 32"><path fill="#000" d="M26 4.5H6A1.5 1.5 0 0 0 4.5 6v20A1.5 1.5 0 0 0 6 27.5h20a1.5 1.5 0 0 0 1.5-1.5V6A1.5 1.5 0 0 0 26 4.5m-15 15a1.5 1.5 0 1 1 0 3 1.5 1.5 0 0 1 0-3M5.5 26V6a.5.5 0 0 1 .5-.5h4.5v13.05a2.5 2.5 0 1 0 1 0v-5.343l7 7V26.5H6a.5.5 0 0 1-.5-.5m21 0a.5.5 0 0 1-.5.5h-6.5V20a.5.5 0 0 0-.146-.354L11.5 11.793V5.5h5V9a.5.5 0 0 0 .146.354l2.27 2.271a2.5 2.5 0 1 0 .709-.709L17.5 8.791V5.5H26a.5.5 0 0 1 .5.5zM21 11.5a1.5 1.5 0 1 1 0 3 1.5 1.5 0 0 1 0-3"/></svg>