<svg xmlns="http://www.w3.org/2000/svg" width="32" height="32" fill="none" viewBox="0 0 32 32"><path fill="#000" d="M20.5 19a.5.5 0 0 1-.5.5h-8a.5.5 0 0 1 0-1h8a.5.5 0 0 1 .5.5m-.5-4.5h-8a.5.5 0 0 0 0 1h8a.5.5 0 0 0 0-1M26.5 6v21a1.5 1.5 0 0 1-1.5 1.5H7A1.5 1.5 0 0 1 5.5 27V6A1.5 1.5 0 0 1 7 4.5h4.76a5.5 5.5 0 0 1 8.48 0H25A1.5 1.5 0 0 1 26.5 6m-15 2v.5h9V8a4.5 4.5 0 1 0-9 0m14-2a.5.5 0 0 0-.5-.5h-4.104c.398.773.604 1.63.604 2.5v1a.5.5 0 0 1-.5.5H11a.5.5 0 0 1-.5-.5V8c0-.87.206-1.727.604-2.5H7a.5.5 0 0 0-.5.5v21a.5.5 0 0 0 .5.5h18a.5.5 0 0 0 .5-.5z"/></svg>