<svg xmlns="http://www.w3.org/2000/svg" width="32" height="32" fill="none" viewBox="0 0 32 32"><path fill="#000" d="M28 6.5H4A1.5 1.5 0 0 0 2.5 8v16A1.5 1.5 0 0 0 4 25.5h24a1.5 1.5 0 0 0 1.5-1.5V8A1.5 1.5 0 0 0 28 6.5m.5 17.5a.5.5 0 0 1-.5.5H4a.5.5 0 0 1-.5-.5V8a.5.5 0 0 1 .5-.5h24a.5.5 0 0 1 .5.5zm-14.067-4.786a.5.5 0 0 1-.183.684 4.5 4.5 0 1 1 0-7.796.5.5 0 0 1-.5.865 3.5 3.5 0 1 0 0 6.065.5.5 0 0 1 .682.182m10 0a.5.5 0 0 1-.183.684 4.5 4.5 0 1 1 0-7.796.5.5 0 0 1-.5.865 3.5 3.5 0 1 0 0 6.065.5.5 0 0 1 .683.182"/></svg>