<svg xmlns="http://www.w3.org/2000/svg" width="32" height="32" fill="none" viewBox="0 0 32 32"><path fill="#000" d="M19.5 9.5a9 9 0 0 0-2.767.435 6.5 6.5 0 0 0-1.608-1.956l1.445-2.064a.5.5 0 0 0-.82-.574l-1.444 2.064a6.5 6.5 0 0 0-3.938-.874L9.93 4.05a.5.5 0 1 0-.985.174l.437 2.48a6.52 6.52 0 0 0-3.4 2.171L3.914 7.428a.501.501 0 1 0-.574.822l2.066 1.443a6.45 6.45 0 0 0-.876 3.932l-2.481.438a.5.5 0 1 0 .174.984l2.481-.437c.205.798.56 1.55 1.045 2.215A6 6 0 0 0 9.5 27.5h10a9 9 0 0 0 0-18M5.5 13a5.5 5.5 0 0 1 10.291-2.701 9.03 9.03 0 0 0-4.852 5.375A6 6 0 0 0 9.5 15.5a5.97 5.97 0 0 0-2.925.764A5.5 5.5 0 0 1 5.5 13m14 13.5h-10a4.999 4.999 0 1 1 1.179-9.86 9 9 0 0 0-.179 1.331.5.5 0 1 0 1 .058c.03-.535.114-1.066.25-1.584 0-.015.009-.03.011-.045A8.006 8.006 0 1 1 19.5 26.5"/></svg>