<svg xmlns="http://www.w3.org/2000/svg" width="32" height="32" fill="none" viewBox="0 0 32 32"><path fill="#000" d="M6.375 4.664a.504.504 0 0 0-.75.672l5.145 5.655q-.172.32-.324.649A7.5 7.5 0 1 0 9 26.5h11a10.4 10.4 0 0 0 4.11-.836l1.515 1.672a.5.5 0 1 0 .74-.672zM20 25.5H9a6.5 6.5 0 1 1 1.068-12.91A10.5 10.5 0 0 0 9.5 16a.5.5 0 0 0 1 0 9.5 9.5 0 0 1 .988-4.22L23.39 24.875A9.4 9.4 0 0 1 20 25.5M30.5 16c.002 2.58-.948 5.07-2.668 6.993a.502.502 0 1 1-.75-.667A9.5 9.5 0 0 0 14.375 8.344a.5.5 0 1 1-.592-.806A10.5 10.5 0 0 1 30.5 16"/></svg>