<svg xmlns="http://www.w3.org/2000/svg" width="32" height="32" fill="none" viewBox="0 0 32 32"><path fill="#000" d="M22 10.5a5.5 5.5 0 0 1 2.961.841A1 1 0 0 0 26.5 10.5V6A1.5 1.5 0 0 0 25 4.5H7A1.5 1.5 0 0 0 5.5 6v20A1.5 1.5 0 0 0 7 27.5h18a1.5 1.5 0 0 0 1.5-1.5v-4.5a1 1 0 0 0-1.535-.844c-1 .643-1.852.887-2.945.843H22a5.5 5.5 0 0 1 0-11zM15.5 16a6.506 6.506 0 0 0 6.49 6.5c1.294.05 2.345-.25 3.51-1V26a.5.5 0 0 1-.5.5H7a.5.5 0 0 1-.5-.5V6a.5.5 0 0 1 .5-.5h18a.5.5 0 0 1 .5.5v4.5a6.53 6.53 0 0 0-10 5.5"/></svg>