<svg xmlns="http://www.w3.org/2000/svg" width="32" height="32" fill="none" viewBox="0 0 32 32"><path fill="#000" d="m27.72 8.708-11-6.023a1.5 1.5 0 0 0-1.44 0l-11 6.023a1.5 1.5 0 0 0-.78 1.315v11.955a1.5 1.5 0 0 0 .78 1.314l11 6.023a1.5 1.5 0 0 0 1.44 0l11-6.023a1.5 1.5 0 0 0 .78-1.315V10.023a1.5 1.5 0 0 0-.78-1.315M16 15.43l-10.959-6 5.352-2.93 5.367 2.938a.5.5 0 0 0 .48 0L21.608 6.5l5.35 2.929zm-.24-11.867a.5.5 0 0 1 .48 0l4.326 2.375L16 8.43l-4.566-2.5zM4.5 21.978v-5.42l5 2.738v5.715l-4.74-2.595a.5.5 0 0 1-.26-.439m6 3.58V19a.5.5 0 0 0-.26-.439L4.5 15.42v-5.145l11 6.022v12zm6 2.737v-12l11-6.023v5.146l-5.74 3.142a.5.5 0 0 0-.26.44v6.559zm10.74-5.875-4.74 2.591v-5.715l5-2.737v5.418a.5.5 0 0 1-.26.44z"/></svg>