<svg xmlns="http://www.w3.org/2000/svg" width="32" height="32" fill="none" viewBox="0 0 32 32"><path fill="#000" d="m7.646 12.354-4-4a.5.5 0 0 1 0-.708l4-4a.5.5 0 0 1 .708.708L4.707 8l3.647 3.646a.5.5 0 0 1-.708.708m5 0a.5.5 0 0 0 .708 0l4-4a.5.5 0 0 0 0-.708l-4-4A.502.502 0 0 0 12.5 4a.5.5 0 0 0 .146.354L16.292 8l-3.646 3.646a.5.5 0 0 0 0 .708M25 5.5h-3a.5.5 0 1 0 0 1h3a.5.5 0 0 1 .5.5v18a.5.5 0 0 1-.5.5H7a.5.5 0 0 1-.5-.5v-8a.5.5 0 0 0-1 0v8A1.5 1.5 0 0 0 7 26.5h18a1.5 1.5 0 0 0 1.5-1.5V7A1.5 1.5 0 0 0 25 5.5"/></svg>