<svg xmlns="http://www.w3.org/2000/svg" width="32" height="32" fill="none" viewBox="0 0 32 32"><path fill="#000" d="M29.25 11.569s-.006 0-.011-.009l-13-7a.5.5 0 0 0-.475 0l-13 7-.014.01a.5.5 0 0 0-.25.43v8a.5.5 0 0 0 .261.44l13 7a.5.5 0 0 0 .475 0l13-7 .01-.009a.5.5 0 0 0 .25-.431v-8a.5.5 0 0 0-.246-.431m-.75 7.594L22.625 16l5.875-3.162zm-6.929-3.73L16.5 12.7V5.838L27.945 12zm-5.571 3L11.484 16 16 13.568 20.516 16zm-.5-12.595V12.7l-5.071 2.731L4.055 12zm-12 7L9.375 16 3.5 19.163zm6.929 3.73 5.071 2.73v6.865L4.055 20zm6.071 9.595v-6.864l5.071-2.732L27.946 20z"/></svg>