<svg xmlns="http://www.w3.org/2000/svg" width="32" height="32" fill="none" viewBox="0 0 32 32"><path fill="#000" d="M10.5 7V3a.5.5 0 0 1 1 0v4a.5.5 0 0 1-1 0m4.5.5a.5.5 0 0 0 .5-.5V3a.5.5 0 0 0-1 0v4a.5.5 0 0 0 .5.5m4 0a.5.5 0 0 0 .5-.5V3a.5.5 0 0 0-1 0v4a.5.5 0 0 0 .5.5M30.5 15v1a4.5 4.5 0 0 1-4.5 4.5h-.051a11.57 11.57 0 0 1-4.47 6H26a.5.5 0 0 1 0 1H4a.5.5 0 0 1 0-1h4.521A11.54 11.54 0 0 1 3.5 17v-6a.5.5 0 0 1 .5-.5h22a4.5 4.5 0 0 1 4.5 4.5m-5 2v-5.5h-21V17a10.54 10.54 0 0 0 6.026 9.5h8.948A10.54 10.54 0 0 0 25.5 17m4-2a3.5 3.5 0 0 0-3-3.464V17c0 .838-.093 1.674-.275 2.492A3.5 3.5 0 0 0 29.5 16z"/></svg>