<svg xmlns="http://www.w3.org/2000/svg" width="32" height="32" fill="none" viewBox="0 0 32 32"><path fill="#000" d="M25.724 8.428C23.238 7.185 19.784 6.5 16 6.5s-7.238.685-9.724 1.928C3.875 9.625 2.5 11.294 2.5 13v6c0 1.706 1.375 3.375 3.776 4.573C8.762 24.815 12.216 25.5 16 25.5s7.238-.685 9.724-1.927C28.125 22.375 29.5 20.706 29.5 19v-6c0-1.706-1.375-3.375-3.776-4.572M16 7.5c7.721 0 12.5 2.855 12.5 5.5s-4.779 5.5-12.5 5.5S3.5 15.645 3.5 13 8.279 7.5 16 7.5m-.5 12v5c-2.75-.044-5.117-.456-7-1.089v-4.955c2.029.638 4.43.997 7 1.044m1 0c2.57-.041 4.971-.4 7-1.038v4.95c-1.883.632-4.244 1.044-7 1.088zm-13-.5v-3.51c.644.774 1.584 1.486 2.776 2.083q.579.286 1.224.535v4.922c-2.564-1.071-4-2.581-4-4.03m25 0c0 1.449-1.436 2.959-4 4.03v-4.922q.645-.249 1.224-.535c1.192-.597 2.132-1.31 2.776-2.083z"/></svg>