<svg xmlns="http://www.w3.org/2000/svg" width="32" height="32" fill="none" viewBox="0 0 32 32"><path fill="#000" d="M24.381 7.263C22.966 4.836 21.055 3.5 19 3.5h-6c-2.055 0-3.966 1.336-5.375 3.763C6.25 9.605 5.5 12.708 5.5 16c0 3.293.75 6.395 2.125 8.738C9.034 27.164 10.945 28.5 13 28.5h6c2.055 0 3.966-1.336 5.381-3.762C25.75 22.395 26.5 19.293 26.5 16s-.75-6.395-2.119-8.737M23.91 23.5h-4.896c.904-2.017 1.42-4.441 1.48-7h5c-.063 2.596-.618 5.035-1.584 7m-3.416-8c-.06-2.559-.575-4.982-1.48-7h4.896c.967 1.965 1.521 4.404 1.584 7zM19 4.5c1.611 0 3.149 1.064 4.355 3h-4.841q-.066-.12-.133-.237c-.697-1.195-1.515-2.125-2.411-2.763zM8.483 24.234C7.203 22.042 6.5 19.125 6.5 16s.704-6.042 1.983-8.234C9.71 5.66 11.314 4.5 13 4.5s3.289 1.16 4.517 3.266C18.798 9.957 19.5 12.881 19.5 16s-.704 6.043-1.983 8.234C16.29 26.34 14.685 27.5 13 27.5s-3.289-1.16-4.517-3.266M19 27.5h-3.03c.896-.636 1.714-1.567 2.411-2.762q.067-.119.133-.238h4.841c-1.206 1.936-2.744 3-4.355 3"/></svg>