<svg xmlns="http://www.w3.org/2000/svg" width="32" height="32" fill="none" viewBox="0 0 32 32"><path fill="#000" d="M22.5 11.639V10.5c0-2.804-4.613-5-10.5-5s-10.5 2.196-10.5 5v5c0 2.392 3.358 4.34 8 4.861V21.5c0 2.804 4.613 5 10.5 5s10.5-2.196 10.5-5v-5c0-2.36-3.266-4.329-8-4.861m7 4.861c0 1.931-3.817 4-9.5 4a20.7 20.7 0 0 1-3.5-.293v-.173c3.576-.789 6-2.5 6-4.534v-2.854c4.028.479 7 2.095 7 3.854m-15.976 2.949q-.737.051-1.524.051-1.027-.002-1.966-.086H10q-.78-.072-1.5-.195v-3.994c1.157.185 2.328.277 3.5.275 1.172.002 2.343-.09 3.5-.275v3.99q-.964.165-1.94.231zm7.976-6.784V15.5c0 1.36-1.895 2.788-5 3.514v-3.98c2.204-.487 3.969-1.323 5-2.369M12 6.5c5.683 0 9.5 2.069 9.5 4s-3.817 4-9.5 4-9.5-2.069-9.5-4 3.818-4 9.5-4m-9.5 9v-2.835c1.031 1.046 2.796 1.883 5 2.375v3.98c-3.105-.732-5-2.16-5-3.52m8 6v-1.05a23 23 0 0 0 3 .001q.98.357 2 .579v3.984c-3.105-.726-5-2.154-5-3.514m6 3.715v-3.994c1.157.187 2.328.28 3.5.279 1.172.002 2.343-.09 3.5-.275v3.99c-2.318.38-4.682.38-7 0m13-3.715c0 1.36-1.895 2.788-5 3.514v-3.98c2.204-.486 3.969-1.323 5-2.375z"/></svg>