<svg xmlns="http://www.w3.org/2000/svg" width="32" height="32" fill="none" viewBox="0 0 32 32"><path fill="#000" d="M5.257 5.315a.5.5 0 0 1 .705.037l20.076 22.296a.5.5 0 0 1-.743.67l-1.973-2.191a12.5 12.5 0 0 1-2.539 1.422 12.5 12.5 0 0 1-14.09-19.89L5.22 6.02a.5.5 0 0 1 .038-.706m2.11 3.09a11.5 11.5 0 0 0-1.992 11.996A11.5 11.5 0 0 0 16 27.5a11.5 11.5 0 0 0 6.645-2.125l-5.673-6.302-6.748 3.374a.5.5 0 0 1-.467-.01.5.5 0 0 1-.257-.415.5.5 0 0 1 .053-.247l3.517-7.035zM16 3.5A12.514 12.514 0 0 1 28.5 16a12.5 12.5 0 0 1-3.287 8.446.49.49 0 0 1-.723-.01"/></svg>