<svg xmlns="http://www.w3.org/2000/svg" width="32" height="32" fill="none" viewBox="0 0 32 32"><path fill="#000" d="M26.445 15.228a.5.5 0 1 0-.89-.455 10.5 10.5 0 0 1-4.822 4.645l-2.46-5.537A4.501 4.501 0 0 0 16.5 5.53V3a.5.5 0 0 0-1 0v2.529a4.5 4.5 0 0 0-1.773 8.352L7.544 27.796a.5.5 0 1 0 .913.407l3.333-7.5c1.34.529 2.769.8 4.21.797a11.9 11.9 0 0 0 4.219-.777l3.323 7.48a.5.5 0 0 0 .66.253.5.5 0 0 0 .25-.66l-3.317-7.466a11.5 11.5 0 0 0 5.31-5.102M12.5 10a3.5 3.5 0 1 1 7.001 0 3.5 3.5 0 0 1-7.001 0M16 20.5a10.4 10.4 0 0 1-3.804-.71l2.445-5.5a4.5 4.5 0 0 0 2.718 0l2.453 5.519c-1.219.455-2.51.69-3.812.691"/></svg>