<svg xmlns="http://www.w3.org/2000/svg" width="32" height="32" fill="none" viewBox="0 0 32 32"><path fill="#000" d="M13.583 6.933a1.474 1.474 0 0 0-2.43.538L4.592 25.52A1.477 1.477 0 0 0 5.966 27.5c.174 0 .347-.031.51-.091l18.048-6.563a1.475 1.475 0 0 0 .538-2.428zm-.817 17.125L7.94 19.234l2.024-5.564 8.365 8.366zm-6.625 2.41a.476.476 0 0 1-.608-.61l2.033-5.59 4.165 4.166zm18.35-6.907a.47.47 0 0 1-.302.343l-4.82 1.75-9.029-9.02 1.75-4.82a.47.47 0 0 1 .449-.314.46.46 0 0 1 .336.14L24.36 19.125a.47.47 0 0 1 .129.439zM27.5 3c0 1.21-.731 3.5-3.5 3.5-1.039 0-1.773.411-2.177 1.224-.194.399-.303.833-.323 1.276a.5.5 0 1 1-1 0c.02-.598.165-1.186.427-1.724C21.333 6.466 22.196 5.5 24 5.5c2.411 0 2.5-2.25 2.5-2.5a.5.5 0 0 1 1 0m-10 2V2a.5.5 0 0 1 1 0v3a.5.5 0 1 1-1 0m11.854 10.646a.5.5 0 0 1-.708.708l-2-2a.502.502 0 0 1 .708-.708zm.803-6.171-3 1a.501.501 0 0 1-.584-.733.5.5 0 0 1 .268-.216l3-1a.5.5 0 1 1 .316.949"/></svg>