<svg xmlns="http://www.w3.org/2000/svg" width="32" height="32" fill="none" viewBox="0 0 32 32"><path fill="#000" d="M20.208 20.793a1 1 0 1 1-1.416 1.414 1 1 0 0 1 1.415-1.415m-9.415-1a1 1 0 1 0 1.415 1.414 1 1 0 0 0-1.415-1.415m.415-7a1 1 0 1 0-1.415 1.415 1 1 0 0 0 1.415-1.415m4.585 2a1 1 0 1 0 1.415 1.414 1 1 0 0 0-1.415-1.415M28.5 16A12.5 12.5 0 1 1 16 3.5a.5.5 0 0 1 .5.5A5.507 5.507 0 0 0 22 9.5a.5.5 0 0 1 .5.5 5.507 5.507 0 0 0 5.5 5.5.5.5 0 0 1 .5.5m-1.01.48a6.51 6.51 0 0 1-5.972-6 6.51 6.51 0 0 1-6-5.972 11.5 11.5 0 1 0 11.97 11.97z"/></svg>