<svg xmlns="http://www.w3.org/2000/svg" width="32" height="32" fill="none" viewBox="0 0 32 32"><path fill="#000" d="M29.5 13.588V9A1.5 1.5 0 0 0 28 7.5H4A1.5 1.5 0 0 0 2.5 9v4.588A1.5 1.5 0 0 0 1.5 15v6A1.5 1.5 0 0 0 3 22.5h1.5V25a.5.5 0 0 0 1 0v-2.5h21V25a.5.5 0 0 0 1 0v-2.5H29a1.5 1.5 0 0 0 1.5-1.5v-6a1.5 1.5 0 0 0-1-1.412M28.5 9v4.5H27a1.5 1.5 0 0 0-1.5 1.5v2a.5.5 0 0 1-.5.5h-8.5v-9H28a.5.5 0 0 1 .5.5M4 8.5h11.5v9H7a.5.5 0 0 1-.5-.5v-2A1.5 1.5 0 0 0 5 13.5H3.5V9a.5.5 0 0 1 .5-.5M29.5 21a.5.5 0 0 1-.5.5H3a.5.5 0 0 1-.5-.5v-6a.5.5 0 0 1 .5-.5h2a.5.5 0 0 1 .5.5v2A1.5 1.5 0 0 0 7 18.5h18a1.5 1.5 0 0 0 1.5-1.5v-2a.5.5 0 0 1 .5-.5h2a.5.5 0 0 1 .5.5z"/></svg>