<svg xmlns="http://www.w3.org/2000/svg" width="32" height="32" fill="none" viewBox="0 0 32 32"><path fill="#000" d="M25 9.5h-5a.5.5 0 0 1-.5-.5V4A1.5 1.5 0 0 0 18 2.5h-4A1.5 1.5 0 0 0 12.5 4v5a.5.5 0 0 1-.5.5H7A1.5 1.5 0 0 0 5.5 11v4A1.5 1.5 0 0 0 7 16.5h5a.5.5 0 0 1 .5.5v11a1.5 1.5 0 0 0 1.5 1.5h4a1.5 1.5 0 0 0 1.5-1.5V17a.5.5 0 0 1 .5-.5h5a1.5 1.5 0 0 0 1.5-1.5v-4A1.5 1.5 0 0 0 25 9.5m.5 5.5a.5.5 0 0 1-.5.5h-5a1.5 1.5 0 0 0-1.5 1.5v11a.5.5 0 0 1-.5.5h-4a.5.5 0 0 1-.5-.5V17a1.5 1.5 0 0 0-1.5-1.5H7a.5.5 0 0 1-.5-.5v-4a.5.5 0 0 1 .5-.5h5A1.5 1.5 0 0 0 13.5 9V4a.5.5 0 0 1 .5-.5h4a.5.5 0 0 1 .5.5v5a1.5 1.5 0 0 0 1.5 1.5h5a.5.5 0 0 1 .5.5z"/></svg>