<svg xmlns="http://www.w3.org/2000/svg" width="32" height="32" fill="none" viewBox="0 0 32 32"><path fill="#000" d="M27.49 11.903a.2.2 0 0 0-.012-.042l-.017-.052-.023-.046q-.011-.021-.022-.04a.5.5 0 0 0-.062-.075l-7-7a.3.3 0 0 0-.041-.034A.5.5 0 0 0 20 4.5H5a.5.5 0 0 0-.5.5v15a.5.5 0 0 0 .112.313q.016.021.034.04l7 7A.5.5 0 0 0 12 27.5h15a.5.5 0 0 0 .5-.5V12a.5.5 0 0 0-.01-.098M20.5 6.207l5.293 5.293H20.5zm-9 19.586L6.208 20.5H11.5zm0-6.293h-6V6.208l6 6zm-5.292-14H19.5v6h-7.292zm13.292 7v7h-7v-7zm-7 14v-6h7.293l6 6zm14-.707-6-6V12.5h6z"/></svg>