<svg xmlns="http://www.w3.org/2000/svg" width="32" height="32" fill="none" viewBox="0 0 32 32"><path fill="#000" d="m27.72 8.707-11-6.022a1.5 1.5 0 0 0-1.44 0l-11 6.022a1.5 1.5 0 0 0-.78 1.316v11.955a1.5 1.5 0 0 0 .78 1.314l11 6.023a1.5 1.5 0 0 0 1.44 0l11-6.023a1.5 1.5 0 0 0 .78-1.315V10.023a1.5 1.5 0 0 0-.78-1.316M15.76 3.562a.5.5 0 0 1 .48 0L27.084 9.5 16 15.565 4.916 9.5zm-11 18.854a.5.5 0 0 1-.26-.439V10.411l11 6.02v11.864zm22.48 0L16.5 28.291v-11.86l11-6.02v11.567a.5.5 0 0 1-.26.437z"/></svg>