<svg xmlns="http://www.w3.org/2000/svg" width="32" height="32" fill="none" viewBox="0 0 32 32"><path fill="#000" d="M23.5 19.679V12.32a1.13 1.13 0 0 0-.552-.972L16.53 7.643a1.06 1.06 0 0 0-1.06 0l-6.416 3.706a1.12 1.12 0 0 0-.554.972v7.358a1.13 1.13 0 0 0 .553.972l6.417 3.707a1.07 1.07 0 0 0 1.06 0l6.416-3.707a1.13 1.13 0 0 0 .554-.972m-7.53-11.17a.06.06 0 0 1 .06 0L22.074 12 16 15.506 9.926 12zM9.554 19.785a.13.13 0 0 1-.054-.106v-6.771l6 3.467v6.848zm12.892 0L16.5 23.22v-6.845l6-3.465v6.771a.12.12 0 0 1-.054.104M28.5 6v5a.5.5 0 0 1-1 0V6.5H23a.5.5 0 0 1 0-1h5a.5.5 0 0 1 .5.5m-19 20a.5.5 0 0 1-.5.5H4a.5.5 0 0 1-.5-.5v-5a.5.5 0 0 1 1 0v4.5H9a.5.5 0 0 1 .5.5m19-5v5a.5.5 0 0 1-.5.5h-5a.5.5 0 0 1 0-1h4.5V21a.5.5 0 0 1 1 0m-25-10V6a.5.5 0 0 1 .5-.5h5a.5.5 0 1 1 0 1H4.5V11a.5.5 0 0 1-1 0"/></svg>