<svg xmlns="http://www.w3.org/2000/svg" width="32" height="32" fill="none" viewBox="0 0 32 32"><path fill="#000" d="M30 16.5h-3.508l2.972-7.311a.5.5 0 0 0-.928-.375l-3.125 7.689h-5.825l-3.125-7.69a.5.5 0 0 0-.927 0l-3.12 7.687H6.586L3.461 8.811a.5.5 0 1 0-.927.375L5.508 16.5H2a.5.5 0 0 0 0 1h3.914l3.125 7.689a.5.5 0 0 0 .927 0l3.125-7.689h5.828l3.125 7.689a.5.5 0 0 0 .927 0l3.125-7.689H30a.5.5 0 0 0 0-1M9.5 23.671 6.992 17.5h5.016zm3.992-7.171L16 10.329l2.508 6.171zm9.008 7.171L19.992 17.5h5.015z"/></svg>