<svg xmlns="http://www.w3.org/2000/svg" width="32" height="32" fill="none" viewBox="0 0 32 32"><path fill="#000" d="M31 14.5h-3.75l-6.081-8.375a1.5 1.5 0 0 0-2.375-.064L17.18 7.922l-.012.015a1.5 1.5 0 0 1-2.338 0l-.012-.015-1.612-1.867a1.5 1.5 0 0 0-2.375.064L4.75 14.5H1a.5.5 0 0 0 0 1h30a.5.5 0 0 0 0-1M11.641 6.706a.5.5 0 0 1 .613-.159.5.5 0 0 1 .178.14l.013.015 1.611 1.868A2.48 2.48 0 0 0 16 9.5a2.48 2.48 0 0 0 1.944-.93l1.611-1.868.012-.015a.5.5 0 0 1 .4-.187.5.5 0 0 1 .392.206l5.66 7.794H5.98zM22.5 18.5a4 4 0 0 0-4 4h-5a4 4 0 1 0-.125 1h5.25a4 4 0 1 0 3.875-5m-13 7a3 3 0 1 1 0-6 3 3 0 0 1 0 6m13 0a3 3 0 1 1 0-6 3 3 0 0 1 0 6"/></svg>