<svg xmlns="http://www.w3.org/2000/svg" width="32" height="32" fill="none" viewBox="0 0 32 32"><path fill="#000" d="M14.875 13.034a1.594 1.594 0 0 0 2.25 0l3.909-3.909a1.59 1.59 0 0 0 0-2.25l-3.909-3.91a1.594 1.594 0 0 0-2.25 0l-3.909 3.91a1.59 1.59 0 0 0 0 2.25zm-3.203-5.452 3.91-3.91a.59.59 0 0 1 .835 0l3.91 3.91a.59.59 0 0 1 0 .835l-3.91 3.91a.587.587 0 0 1-.835 0l-3.91-3.91a.59.59 0 0 1 0-.835m17.362 7.293-3.909-3.91a1.594 1.594 0 0 0-2.25 0l-3.909 3.91a1.59 1.59 0 0 0 0 2.25l3.909 3.91a1.594 1.594 0 0 0 2.25 0l3.909-3.91a1.593 1.593 0 0 0 0-2.25m-.706 1.543-3.91 3.91a.59.59 0 0 1-.835 0l-3.91-3.91a.59.59 0 0 1 0-.835l3.91-3.91a.59.59 0 0 1 .835 0l3.91 3.91a.59.59 0 0 1 0 .835M13.5 16a1.58 1.58 0 0 0-.466-1.125l-3.909-3.91a1.594 1.594 0 0 0-2.25 0l-3.909 3.91a1.59 1.59 0 0 0 0 2.25l3.909 3.91a1.594 1.594 0 0 0 2.25 0l3.909-3.91A1.58 1.58 0 0 0 13.5 16m-1.172.418-3.91 3.91a.59.59 0 0 1-.835 0l-3.91-3.91a.59.59 0 0 1 0-.835l3.91-3.91a.59.59 0 0 1 .835 0l3.91 3.91a.59.59 0 0 1 0 .835m4.797 2.548a1.594 1.594 0 0 0-2.25 0l-3.909 3.909a1.59 1.59 0 0 0 0 2.25l3.909 3.91a1.594 1.594 0 0 0 2.25 0l3.909-3.91a1.59 1.59 0 0 0 0-2.25zm3.203 5.451-3.91 3.91a.59.59 0 0 1-.835 0l-3.91-3.91a.59.59 0 0 1 0-.835l3.91-3.908a.59.59 0 0 1 .835 0l3.91 3.91a.59.59 0 0 1 0 .835z"/></svg>