<svg xmlns="http://www.w3.org/2000/svg" width="32" height="32" fill="none" viewBox="0 0 32 32"><path fill="#000" d="M12.5 17.5a1 1 0 1 1-2 0 1 1 0 0 1 2 0m8 1a1 1 0 1 0 0-2 1 1 0 0 0 0 2m8.118-1.139a1.48 1.48 0 0 1-1.794-.439l-.324-.41V23a4.5 4.5 0 0 1-4.5 4.5H10A4.5 4.5 0 0 1 5.5 23v-6.489l-.316.409a1.49 1.49 0 0 1-1.171.58 1.5 1.5 0 0 1-.625-.139 1.48 1.48 0 0 1-.855-1.642l2.052-11A1.5 1.5 0 0 1 6.423 3.54h.02l6.63 1.96h5.855l6.635-1.95h.02a1.5 1.5 0 0 1 1.837 1.179l2.053 11a1.48 1.48 0 0 1-.855 1.632M12.156 6.273l-5.988-1.76a.5.5 0 0 0-.605.395l-2.053 11a.5.5 0 0 0 .885.402zM25.5 15.219 18.75 6.5h-5.5L6.5 15.219V23a3.5 3.5 0 0 0 3.5 3.5h5.5v-2.293l-1.854-1.853a.5.5 0 0 1 .708-.708L16 23.292l1.646-1.646a.5.5 0 1 1 .708.708L16.5 24.208V26.5H22a3.5 3.5 0 0 0 3.5-3.5zm2.99.685-2.052-11a.5.5 0 0 0-.605-.395l-5.99 1.763 7.765 10.035a.5.5 0 0 0 .882-.403"/></svg>