<svg xmlns="http://www.w3.org/2000/svg" width="32" height="32" fill="none" viewBox="0 0 32 32"><path fill="#000" d="m26.375 26.409-.008-.015-5.8-12.358 2.71-4.25v-.012a1.49 1.49 0 0 0 0-1.543l-.02-.03L20.5 4.25V1a.5.5 0 1 0-1 0v3.228l-.766.958a3.5 3.5 0 0 1-5.468 0l-.766-.958V1a.5.5 0 1 0-1 0v3.25L8.733 8.199l-.02.03a1.49 1.49 0 0 0 .007 1.555l2.71 4.25-5.805 12.36-.007.015A1.5 1.5 0 0 0 7 28.5h18a1.5 1.5 0 0 0 1.375-2.091M9.568 9.25a.5.5 0 0 1 0-.5l2.458-3.512.46.573a4.5 4.5 0 0 0 7.028 0l.46-.574 2.462 3.513a.5.5 0 0 1 0 .5L19.73 13.5h-7.456zm15.848 18.025A.5.5 0 0 1 25 27.5H7a.49.49 0 0 1-.416-.225.49.49 0 0 1-.045-.465l5.779-12.31h7.365l5.778 12.31a.49.49 0 0 1-.045.465"/></svg>