<svg xmlns="http://www.w3.org/2000/svg" width="32" height="32" fill="none" viewBox="0 0 32 32"><path fill="#000" d="M16 3.5A12.5 12.5 0 1 0 28.5 16 12.514 12.514 0 0 0 16 3.5m11.49 12.054a20.55 20.55 0 0 0-7.309.789 20.4 20.4 0 0 0-1.855-4.218l-.187-.307a20.5 20.5 0 0 0 5.424-4.474 11.47 11.47 0 0 1 3.927 8.21m-4.709-8.835a19.5 19.5 0 0 1-5.182 4.26A20.6 20.6 0 0 0 11.81 5.29a11.48 11.48 0 0 1 10.97 1.429m-12.058-.934a19.6 19.6 0 0 1 5.987 5.668A19.46 19.46 0 0 1 8 13.5c-1.06.002-2.12-.082-3.166-.25a11.54 11.54 0 0 1 5.889-7.465M4.5 16q0-.893.138-1.775c1.111.183 2.236.275 3.362.275a20.45 20.45 0 0 0 9.256-2.203q.105.168.205.338a19.4 19.4 0 0 1 1.768 4.014 20.3 20.3 0 0 0-3.449 1.576 20.6 20.6 0 0 0-7.03 6.695A11.48 11.48 0 0 1 4.5 16m5.055 9.52c1.694-2.65 4-4.855 6.725-6.429a19 19 0 0 1 3.22-1.477 19.54 19.54 0 0 1 .099 9.308A11.5 11.5 0 0 1 9.553 25.52zm11.163.968a20.53 20.53 0 0 0-.263-9.184 19.6 19.6 0 0 1 7.03-.748 11.52 11.52 0 0 1-6.767 9.932"/></svg>