<svg xmlns="http://www.w3.org/2000/svg" width="32" height="32" fill="none" viewBox="0 0 32 32"><path fill="#000" d="M21.375 6.296a31.3 31.3 0 0 0-5.091-4.706.5.5 0 0 0-.573 0 31.3 31.3 0 0 0-5.086 4.706C7.271 10.151 5.5 14.197 5.5 18a10.5 10.5 0 0 0 21 0c0-3.802-1.771-7.849-5.125-11.704M23.739 23.5H8.26a9.5 9.5 0 0 1-1.425-3h18.328a9.5 9.5 0 0 1-1.425 3m-17.114-4A9.4 9.4 0 0 1 6.5 18q0-.754.099-1.5H25.4q.097.746.099 1.5a9.4 9.4 0 0 1-.125 1.5zm4.738-12.529A31.8 31.8 0 0 1 16 2.625a31.8 31.8 0 0 1 4.637 4.351c1.797 2.069 3.875 5.077 4.597 8.529H6.766c.725-3.458 2.8-6.465 4.597-8.534M16 27.5a9.47 9.47 0 0 1-6.919-3H22.92a9.47 9.47 0 0 1-6.919 3"/></svg>