<svg xmlns="http://www.w3.org/2000/svg" width="32" height="32" fill="none" viewBox="0 0 32 32"><path fill="#000" d="M21.375 6.298a31.3 31.3 0 0 0-5.091-4.708.5.5 0 0 0-.573 0 31.3 31.3 0 0 0-5.086 4.708C7.271 10.15 5.5 14.198 5.5 18a10.5 10.5 0 0 0 21 0c0-3.802-1.771-7.849-5.125-11.702M16 27.5A9.51 9.51 0 0 1 6.5 18c0-4.488 2.644-8.475 4.863-11.03A32 32 0 0 1 16 2.625a32 32 0 0 1 4.637 4.35C22.857 9.525 25.5 13.513 25.5 18a9.51 9.51 0 0 1-9.5 9.5m6.493-8.416a6.69 6.69 0 0 1-5.41 5.409.5.5 0 0 1-.165-.985c2.272-.383 4.203-2.314 4.59-4.592a.5.5 0 0 1 .985.168"/></svg>