<svg xmlns="http://www.w3.org/2000/svg" width="32" height="32" fill="none" viewBox="0 0 32 32"><path fill="#000" d="M29.285 19.089 23.375 15l5.906-4.089a.5.5 0 0 0 0-.822l-6.5-4.5a.5.5 0 0 0-.57 0L16 9.893 9.785 5.589a.5.5 0 0 0-.57 0l-6.5 4.5a.5.5 0 0 0 0 .822L8.625 15l-5.91 4.089a.5.5 0 0 0 0 .822l6.5 4.5a.5.5 0 0 0 .57 0L16 20.108l6.215 4.303a.5.5 0 0 0 .57 0l6.5-4.5a.5.5 0 0 0 0-.822M16 18.892 10.375 15 16 11.108 21.625 15zM22.5 6.61l5.625 3.891-5.625 3.891-5.625-3.891zm-13 0 5.625 3.891L9.5 14.391 3.875 10.5zm0 16.782L3.875 19.5 9.5 15.609l5.625 3.891zm13 0L16.875 19.5l5.625-3.891 5.625 3.891zm-3.103 2.757a.5.5 0 0 1-.125.696l-2.986 2.067a.5.5 0 0 1-.57 0l-2.986-2.067a.5.5 0 1 1 .57-.823L16 27.896l2.701-1.875a.5.5 0 0 1 .695.127"/></svg>