<svg xmlns="http://www.w3.org/2000/svg" width="32" height="32" fill="none" viewBox="0 0 32 32"><path fill="#000" d="M6.375 4.664a.504.504 0 0 0-.75.672L7.279 7.15A10.42 10.42 0 0 0 5.5 13c0 3.974 1.41 5.335 2.655 6.535.99.954 1.845 1.779 1.845 3.965a6.006 6.006 0 0 0 6 6c1.714 0 3.19-.734 4.385-2.181a.5.5 0 0 0-.77-.638C18.604 27.905 17.421 28.5 16 28.5a5 5 0 0 1-5-5c0-2.611-1.094-3.666-2.151-4.685C7.694 17.701 6.5 16.55 6.5 13a9.4 9.4 0 0 1 1.475-5.084l2.875 3.159A5.5 5.5 0 0 0 10.5 13a.5.5 0 0 0 1 0q0-.541.125-1.066l6.081 6.691A4.6 4.6 0 0 0 17.5 20a2.5 2.5 0 0 0 3.53 2.276l4.595 5.06a.499.499 0 1 0 .74-.672zM20 21.5a1.5 1.5 0 0 1-1.5-1.5q0-.238.03-.474l1.766 1.944q-.146.03-.296.03M10.444 4.67a.5.5 0 0 1 .171-.686A10.5 10.5 0 0 1 26.5 13a.5.5 0 0 1-1 0 9.5 9.5 0 0 0-14.375-8.158.5.5 0 0 1-.681-.172m9.611 10.101A3.7 3.7 0 0 0 20.5 13a4.5 4.5 0 0 0-5.96-4.258.5.5 0 1 1-.324-.946A5.5 5.5 0 0 1 21.5 13a4.75 4.75 0 0 1-.558 2.23.5.5 0 0 1-.887-.459"/></svg>