<svg xmlns="http://www.w3.org/2000/svg" width="32" height="32" fill="none" viewBox="0 0 32 32"><path fill="#000" d="M16 2.5C11.609 2.5 5.5 10.815 5.5 19a10.5 10.5 0 1 0 21 0c0-8.185-6.109-16.5-10.5-16.5m0 26A9.51 9.51 0 0 1 6.5 19c0-3.557 1.25-7.466 3.416-10.722C11.851 5.374 14.24 3.5 16 3.5c1.424 0 3.256 1.225 4.927 3.228l-5.302 5.94a.5.5 0 0 0 .25.817l3.538.885-.907 4.533a.5.5 0 0 0 .98.195l1-5a.5.5 0 0 0-.369-.583l-3.197-.8 4.635-5.19q.27.363.529.75C24.25 11.534 25.5 15.443 25.5 19a9.51 9.51 0 0 1-9.5 9.5"/></svg>