<svg xmlns="http://www.w3.org/2000/svg" width="32" height="32" fill="none" viewBox="0 0 32 32"><path fill="#000" d="M26 20.5H6A1.5 1.5 0 0 0 4.5 22v3A1.5 1.5 0 0 0 6 26.5h20a1.5 1.5 0 0 0 1.5-1.5v-3a1.5 1.5 0 0 0-1.5-1.5m.5 4.5a.5.5 0 0 1-.5.5H6a.5.5 0 0 1-.5-.5v-3a.5.5 0 0 1 .5-.5h20a.5.5 0 0 1 .5.5zM6.029 17.5H25.97a1.5 1.5 0 0 0 1.404-.916 1.46 1.46 0 0 0-.291-1.6l-9.209-9.688a2.594 2.594 0 0 0-3.74 0l-9.222 9.688a1.46 1.46 0 0 0-.288 1.6 1.5 1.5 0 0 0 1.404.916m-.391-1.826 9.216-9.689a1.597 1.597 0 0 1 2.292 0l9.217 9.689a.46.46 0 0 1 .096.515.51.51 0 0 1-.488.311H6.03a.51.51 0 0 1-.488-.311.46.46 0 0 1 .096-.515"/></svg>