<svg xmlns="http://www.w3.org/2000/svg" width="32" height="32" fill="none" viewBox="0 0 32 32"><path fill="#000" d="M31 13.5a.5.5 0 0 0-.5.5v3.5h-3V15a1.5 1.5 0 0 0-1.5-1.5h-1.586a.5.5 0 0 1-.353-.146l-4.415-4.415a1.5 1.5 0 0 0-1.06-.439H15.5v-3H19a.5.5 0 0 0 0-1h-8a.5.5 0 0 0 0 1h3.5v3H6A1.5 1.5 0 0 0 4.5 10v7.5h-3V14a.5.5 0 0 0-1 0v8a.5.5 0 0 0 1 0v-3.5h3v3.086a1.5 1.5 0 0 0 .439 1.06l4.415 4.415a1.5 1.5 0 0 0 1.06.439h8.172a1.5 1.5 0 0 0 1.06-.439l4.415-4.415a.5.5 0 0 1 .353-.146H26a1.5 1.5 0 0 0 1.5-1.5v-2.5h3V22a.5.5 0 0 0 1 0v-8a.5.5 0 0 0-.5-.5M26.5 21a.5.5 0 0 1-.5.5h-1.586a1.5 1.5 0 0 0-1.06.439l-4.415 4.415a.5.5 0 0 1-.353.146h-8.172a.5.5 0 0 1-.353-.146l-4.415-4.415a.5.5 0 0 1-.146-.353V10a.5.5 0 0 1 .5-.5h12.586a.5.5 0 0 1 .353.146l4.415 4.415a1.5 1.5 0 0 0 1.06.439H26a.5.5 0 0 1 .5.5z"/></svg>