<svg xmlns="http://www.w3.org/2000/svg" width="32" height="32" fill="none" viewBox="0 0 32 32"><path fill="#000" d="M21.646 10.354a.5.5 0 0 1 .708-.708l2.146 2.146V6a.5.5 0 0 1 1 0v5.793l2.146-2.147a.501.501 0 0 1 .708.708l-3 3a.503.503 0 0 1-.708 0zM29.5 20v5a1.5 1.5 0 0 1-1.5 1.5h-6.562a1.5 1.5 0 0 1-1.103-.483L8.93 13.661a.5.5 0 0 0-.367-.161H4A1.5 1.5 0 0 1 2.5 12V7A1.5 1.5 0 0 1 4 5.5h6.563a1.5 1.5 0 0 1 1.102.482L23.07 18.34a.5.5 0 0 0 .367.161H28a1.5 1.5 0 0 1 1.5 1.5m-1 0a.5.5 0 0 0-.5-.5h-4.562a1.5 1.5 0 0 1-1.103-.483L10.93 6.661a.5.5 0 0 0-.367-.161H4a.5.5 0 0 0-.5.5v5a.5.5 0 0 0 .5.5h4.563a1.5 1.5 0 0 1 1.102.482L21.07 25.34a.5.5 0 0 0 .367.161H28a.5.5 0 0 0 .5-.5z"/></svg>