<svg xmlns="http://www.w3.org/2000/svg" width="32" height="32" fill="none" viewBox="0 0 32 32"><path fill="#000" d="M28 5.5h-6.562a1.5 1.5 0 0 0-1.102.482L8.93 18.34a.5.5 0 0 1-.367.161H4A1.5 1.5 0 0 0 2.5 20v5A1.5 1.5 0 0 0 4 26.5h6.563a1.5 1.5 0 0 0 1.1-.483L23.07 13.661a.5.5 0 0 1 .367-.161H28a1.5 1.5 0 0 0 1.5-1.5V7A1.5 1.5 0 0 0 28 5.5m.5 6.5a.5.5 0 0 1-.5.5h-4.562a1.5 1.5 0 0 0-1.102.482L10.93 25.34a.5.5 0 0 1-.367.161H4a.5.5 0 0 1-.5-.5v-5a.5.5 0 0 1 .5-.5h4.563a1.5 1.5 0 0 0 1.1-.483L21.07 6.661a.5.5 0 0 1 .367-.161H28a.5.5 0 0 1 .5.5zm-.146 9.646a.501.501 0 0 1-.708.708L25.5 20.208V26a.5.5 0 0 1-1 0v-5.792l-2.146 2.146a.5.5 0 0 1-.708-.708l3-3a.503.503 0 0 1 .708 0z"/></svg>