<svg xmlns="http://www.w3.org/2000/svg" width="32" height="32" fill="none" viewBox="0 0 32 32"><path fill="#000" d="M27 5.5H5A1.5 1.5 0 0 0 3.5 7v20a.5.5 0 0 0 .724.448L8 25.558l3.776 1.89a.5.5 0 0 0 .448 0L16 25.558l3.776 1.89a.5.5 0 0 0 .448 0L24 25.558l3.776 1.89a.51.51 0 0 0 .578-.094A.5.5 0 0 0 28.5 27V7A1.5 1.5 0 0 0 27 5.5m.5 20.691-3.276-1.639a.5.5 0 0 0-.448 0L20 26.443l-3.776-1.89a.5.5 0 0 0-.448 0L12 26.443l-3.776-1.89a.5.5 0 0 0-.448 0L4.5 26.193V7a.5.5 0 0 1 .5-.5h22a.5.5 0 0 1 .5.5zM12.448 11.776a.5.5 0 0 0-.896 0l-4 8a.5.5 0 1 0 .896.448l.86-1.724h5.383l.861 1.724a.5.5 0 0 0 .896-.448zM9.808 17.5 12 13.118l2.191 4.382zM24.5 16a.5.5 0 0 1-.5.5h-2.5V19a.5.5 0 0 1-1 0v-2.5H18a.5.5 0 0 1 0-1h2.5V13a.5.5 0 0 1 1 0v2.5H24a.5.5 0 0 1 .5.5"/></svg>