<svg xmlns="http://www.w3.org/2000/svg" width="32" height="32" fill="none" viewBox="0 0 32 32"><path fill="#000" d="M21.396 10.604a9.5 9.5 0 1 0-10.792 10.792 9.5 9.5 0 1 0 10.792-10.792M28.5 20q0 .824-.159 1.634l-7.167-7.168A9.5 9.5 0 0 0 21.5 12c0-.125 0-.25-.009-.366A8.51 8.51 0 0 1 28.5 20m-2.15 5.642-7.292-7.29a9.5 9.5 0 0 0 1.76-2.826l7.223 7.224a8.5 8.5 0 0 1-1.691 2.892m-3.6 2.4-7.222-7.223a9.6 9.6 0 0 0 2.824-1.761l7.292 7.292a8.5 8.5 0 0 1-2.894 1.691M5.65 6.356l7.293 7.292a9.5 9.5 0 0 0-1.762 2.825L3.96 9.25a8.5 8.5 0 0 1 1.69-2.893m3.6-2.398 7.223 7.222a9.5 9.5 0 0 0-2.825 1.762L6.358 5.65A8.5 8.5 0 0 1 9.25 3.959M11.5 20a8.51 8.51 0 0 1 8.5-8.5c.163 0 .325 0 .485.015.015.16.015.322.015.485a8.51 8.51 0 0 1-8.985 8.485A9 9 0 0 1 11.5 20m8.866-9.491c-.125 0-.25-.009-.366-.009-.833 0-1.662.11-2.466.326L10.366 3.66a8.5 8.5 0 0 1 10 6.85M3.5 12q0-.825.159-1.634l7.167 7.168a9.5 9.5 0 0 0-.317 2.832A8.51 8.51 0 0 1 3.499 12m8.134 9.491c.125 0 .25.009.366.009a9.5 9.5 0 0 0 2.466-.326l7.168 7.167a8.5 8.5 0 0 1-10-6.85"/></svg>