<svg xmlns="http://www.w3.org/2000/svg" width="32" height="32" fill="none" viewBox="0 0 32 32"><path fill="#000" d="M28.25 21.434a.5.5 0 0 1-.684-.184l-2.643-4.625a15 15 0 0 1-5.24 2.441l.817 4.852a.5.5 0 0 1-.988.165l-.8-4.813a16 16 0 0 1-5.41 0l-.802 4.813a.5.5 0 0 1-.584.41.5.5 0 0 1-.411-.575l.81-4.854a15 15 0 0 1-5.237-2.439L4.434 21.25a.5.5 0 0 1-.868-.5l2.71-4.742a18.5 18.5 0 0 1-2.665-2.695.5.5 0 1 1 .778-.626C6.53 15.34 10.286 18.5 16 18.5s9.469-3.161 11.611-5.814a.498.498 0 0 1 .854.053.5.5 0 0 1-.076.572 18.5 18.5 0 0 1-2.665 2.695l2.71 4.744a.5.5 0 0 1-.184.684"/></svg>