<svg xmlns="http://www.w3.org/2000/svg" width="32" height="32" fill="none" viewBox="0 0 32 32"><path fill="#000" d="M6.375 4.664a.504.504 0 0 0-.75.672l2.824 3.102c-4.782 2.687-6.824 7.163-6.907 7.36a.5.5 0 0 0 0 .406c.043.096 1.065 2.361 3.354 4.65C7.021 22.979 10.664 25.5 16 25.5a15.3 15.3 0 0 0 6.632-1.461l3 3.297a.5.5 0 1 0 .74-.672zm12.262 14.981a4.5 4.5 0 0 1-6.012-6.617zM16 24.5c-4 0-7.486-1.456-10.375-4.328A17 17 0 0 1 2.555 16c.456-.904 2.511-4.601 6.585-6.804l2.806 3.088a5.5 5.5 0 0 0 7.375 8.103l2.611 2.875A14.4 14.4 0 0 1 16 24.5m.847-12.92a.5.5 0 0 1 .187-.982 5.52 5.52 0 0 1 4.442 4.886.5.5 0 0 1-.451.543h-.048a.5.5 0 0 1-.5-.453 4.51 4.51 0 0 0-3.63-3.994m13.61 4.625c-.05.114-1.275 2.823-4.047 5.306a.5.5 0 0 1-.334.125.5.5 0 0 1-.334-.875A17.1 17.1 0 0 0 29.445 16a17 17 0 0 0-3.07-4.172C23.486 8.956 20 7.5 16 7.5c-.838 0-1.674.067-2.5.204a.5.5 0 0 1-.165-.986c.88-.146 1.772-.22 2.665-.218 5.337 0 8.984 2.528 11.104 4.648 2.288 2.288 3.31 4.555 3.353 4.65a.5.5 0 0 1 0 .406z"/></svg>