<svg xmlns="http://www.w3.org/2000/svg" width="32" height="32" fill="none" viewBox="0 0 32 32"><path fill="#000" d="M27.5 8.421a3.98 3.98 0 0 0-1.25-2.852c-1.558-1.475-4.082-1.417-5.625.13l-2.773 2.783-.25-.25a2.5 2.5 0 0 0-3.534 0l-1.125 1.125a1.5 1.5 0 0 0 0 2.125l.61.612-6.734 6.72a4.48 4.48 0 0 0-1.141 4.436l-1.075 2.462a1.21 1.21 0 0 0 .25 1.35 1.5 1.5 0 0 0 1.666.313l2.34-1.023a4.49 4.49 0 0 0 4.323-1.17l6.733-6.735.61.612a1.5 1.5 0 0 0 2.125 0l1.125-1.125a2.5 2.5 0 0 0 0-3.537l-.258-.257 2.82-2.836A3.97 3.97 0 0 0 27.5 8.42M12.476 24.472a3.5 3.5 0 0 1-3.5.875.5.5 0 0 0-.347.02l-2.5 1.093a.5.5 0 0 1-.554-.105.22.22 0 0 1-.045-.241l1.149-2.633a.5.5 0 0 0 .015-.36 3.5 3.5 0 0 1 .152-2.625h9.604zM17.45 19.5H7.551l6.707-6.709 4.95 4.951zm5-5.708a.5.5 0 0 0 0 .707l.611.61a1.5 1.5 0 0 1 0 2.126l-1.125 1.125a.5.5 0 0 1-.707 0l-7.581-7.598a.5.5 0 0 1 0-.707l1.125-1.125a1.5 1.5 0 0 1 2.125 0l.602.615a.5.5 0 0 0 .707-.001l3.125-3.138c1.167-1.167 3.066-1.216 4.234-.111a3 3 0 0 1 .059 4.304z"/></svg>