<svg xmlns="http://www.w3.org/2000/svg" width="32" height="32" fill="none" viewBox="0 0 32 32"><path fill="#000" d="M14 22a.5.5 0 0 1-.5.5H10a.5.5 0 0 1 0-1h3.5a.5.5 0 0 1 .5.5m8-.5h-3.5a.5.5 0 0 0 0 1H22a.5.5 0 0 0 0-1m8.5 5.5a.5.5 0 0 1-.5.5H2a.5.5 0 0 1 0-1h2.5V11a.5.5 0 0 1 .8-.4l7.2 5.4v-5a.5.5 0 0 1 .8-.4l5.517 4.139 1.566-10.952A1.51 1.51 0 0 1 21.868 2.5h2.265a1.51 1.51 0 0 1 1.485 1.288l1.875 13.14a1 1 0 0 1 0 .072v9.5h2.5a.5.5 0 0 1 .507.5M19.73 15.423l1.436 1.077h5.258L24.625 3.929a.5.5 0 0 0-.5-.429h-2.258a.5.5 0 0 0-.5.429zM5.5 26.5h21v-9H21a.5.5 0 0 1-.3-.1L13.5 12v5a.5.5 0 0 1-.8.4L5.5 12z"/></svg>