<svg xmlns="http://www.w3.org/2000/svg" width="32" height="32" fill="none" viewBox="0 0 32 32"><path fill="#000" d="M28.64 17a7 7 0 0 0-10.75-3.945 3.5 3.5 0 0 0-.57-.299L19.48 4.14a.5.5 0 0 0-.215-.543A7 7 0 1 0 12.5 15.828V16q0 .236.033.47l-8.544 2.44a.5.5 0 0 0-.364.457 7 7 0 0 0 5.181 7.078c.595.16 1.208.24 1.824.241a7.01 7.01 0 0 0 6.966-7.573q.287-.149.542-.347l6.386 6.18a.5.5 0 0 0 .581.085A7 7 0 0 0 28.64 17M16 18.5a2.5 2.5 0 1 1 0-5 2.5 2.5 0 0 1 0 5m-6.5-9a6 6 0 0 1 8.925-5.24l-2.069 8.258a3.508 3.508 0 0 0-3.649 2.294A5.98 5.98 0 0 1 9.5 9.5m4.125 15.375a6 6 0 0 1-9-5.109l8.188-2.337a3.5 3.5 0 0 0 3.805 2.016 5.98 5.98 0 0 1-2.993 5.43m13.45-3.058a6 6 0 0 1-2.125 2.153l-6.125-5.921a3.49 3.49 0 0 0-.162-4.305 6 6 0 0 1 8.402 8.073z"/></svg>