<svg xmlns="http://www.w3.org/2000/svg" width="32" height="32" fill="none" viewBox="0 0 32 32"><path fill="#000" d="M29.815 14.75 18.791 7.734a1.5 1.5 0 0 0-2.087.492c-.135.228-.206.489-.204.754v5.574L5.791 7.734a1.5 1.5 0 0 0-2.087.492c-.135.228-.206.489-.204.754v14.04a1.46 1.46 0 0 0 .769 1.295 1.5 1.5 0 0 0 1.522-.049l10.709-6.82v5.574a1.46 1.46 0 0 0 .769 1.295 1.5 1.5 0 0 0 1.522-.049l11.024-7.016a1.476 1.476 0 0 0 0-2.492zm-13.538 1.649L5.25 23.422a.49.49 0 0 1-.684-.158.47.47 0 0 1-.066-.244V8.98a.47.47 0 0 1 .25-.419.493.493 0 0 1 .505.016l11.023 7.02a.474.474 0 0 1 0 .806zm13 0L18.25 23.422a.49.49 0 0 1-.684-.158.47.47 0 0 1-.066-.244V8.98a.47.47 0 0 1 .25-.419.493.493 0 0 1 .505.016l11.022 7.02a.474.474 0 0 1 0 .806z"/></svg>