<svg xmlns="http://www.w3.org/2000/svg" width="32" height="32" fill="none" viewBox="0 0 32 32"><path fill="#000" d="M7.5 18.5h-2a.5.5 0 0 0-.5.5v7a.5.5 0 0 0 1 0v-1.5h1.5a3 3 0 0 0 0-6m0 5H6v-4h1.5a2 2 0 1 1 0 4m20 1.609a.5.5 0 0 1-.139.346A3.26 3.26 0 0 1 25 26.5c-1.93 0-3.5-1.795-3.5-4s1.57-4 3.5-4a3.18 3.18 0 0 1 1.78.554.5.5 0 0 1-.56.829A2.2 2.2 0 0 0 25 19.5c-1.375 0-2.5 1.346-2.5 3s1.125 3 2.5 3a2.23 2.23 0 0 0 1.5-.602V23.5H26a.5.5 0 0 1 0-1h1a.5.5 0 0 1 .5.5zM19 19v7a.5.5 0 0 1-.906.291L14 20.56V26a.5.5 0 0 1-1 0v-7a.5.5 0 0 1 .906-.291L18 24.44V19a.5.5 0 0 1 1 0m6.5-5a.5.5 0 0 0 1 0v-3a.5.5 0 0 0-.146-.354l-7-7A.5.5 0 0 0 19 3.5H7A1.5 1.5 0 0 0 5.5 5v9a.5.5 0 0 0 1 0V5a.5.5 0 0 1 .5-.5h11.5V11a.5.5 0 0 0 .5.5h6.5zm-6-3.5V5.206l5.293 5.294z"/></svg>