<svg xmlns="http://www.w3.org/2000/svg" width="32" height="32" fill="none" viewBox="0 0 32 32"><path fill="#000" d="M19 26a.5.5 0 0 1-.5.5H15a.5.5 0 0 1-.5-.5v-7a.5.5 0 0 1 1 0v6.5h3a.5.5 0 0 1 .5.5m-7.71-7.406a.5.5 0 0 0-.697.115L8.5 21.64l-2.094-2.931a.5.5 0 0 0-.812.582L7.885 22.5l-2.291 3.209a.5.5 0 0 0 .812.582L8.5 23.36l2.092 2.931a.5.5 0 0 0 .814-.582L9.114 22.5l2.292-3.209a.5.5 0 0 0-.116-.697m12.521 3.3c-1.316-.375-1.885-.614-1.803-1.26a1.07 1.07 0 0 1 .468-.811c.783-.53 2.347-.28 2.884-.14a.5.5 0 0 0 .25-.967 7.7 7.7 0 0 0-1.31-.201c-1.014-.067-1.817.094-2.386.477a2.08 2.08 0 0 0-.903 1.517c-.198 1.561 1.308 2 2.518 2.346 1.406.406 2.057.686 1.954 1.492a1.12 1.12 0 0 1-.488.844c-.785.521-2.326.257-2.854.11a.5.5 0 1 0-.268.963c.58.152 1.176.231 1.776.236.646 0 1.354-.108 1.902-.471a2.12 2.12 0 0 0 .929-1.552c.224-1.747-1.448-2.227-2.669-2.583M25.5 11.5H19a.5.5 0 0 1-.5-.5V4.5H7a.5.5 0 0 0-.5.5v9a.5.5 0 0 1-1 0V5A1.5 1.5 0 0 1 7 3.5h12a.5.5 0 0 1 .354.146l7 7A.5.5 0 0 1 26.5 11v3a.5.5 0 0 1-1 0zm-.706-1L19.5 5.206V10.5z"/></svg>