<svg xmlns="http://www.w3.org/2000/svg" width="32" height="32" fill="none" viewBox="0 0 32 32"><path fill="#000" d="M15 22.5h-1.5v-1a3 3 0 0 0-6 0v1H6a.5.5 0 0 0-.5.5v5a.5.5 0 0 0 .5.5h9a.5.5 0 0 0 .5-.5v-5a.5.5 0 0 0-.5-.5m-6.5-1a2 2 0 0 1 4 0v1h-4zm6 6h-8v-4h8zm11.854-16.854-7-7A.5.5 0 0 0 19 3.5H7A1.5 1.5 0 0 0 5.5 5v11a.5.5 0 0 0 1 0V5a.5.5 0 0 1 .5-.5h11.5V11a.5.5 0 0 0 .5.5h6.5V27a.5.5 0 0 1-.5.5h-5a.5.5 0 0 0 0 1h5a1.5 1.5 0 0 0 1.5-1.5V11a.5.5 0 0 0-.146-.354M19.5 5.206l5.293 5.294H19.5z"/></svg>