<svg xmlns="http://www.w3.org/2000/svg" width="32" height="32" fill="none" viewBox="0 0 32 32"><path fill="#000" d="m26.354 10.646-7-7A.5.5 0 0 0 19 3.5H7A1.5 1.5 0 0 0 5.5 5v11a.5.5 0 0 0 1 0V5a.5.5 0 0 1 .5-.5h11.5V11a.5.5 0 0 0 .5.5h6.5V27a.5.5 0 0 1-.5.5h-3a.5.5 0 0 0 0 1h3a1.5 1.5 0 0 0 1.5-1.5V11a.5.5 0 0 0-.146-.354M19.5 5.206l5.293 5.294H19.5zm-6 11.294a5.97 5.97 0 0 0-5.662 4H7.5a4 4 0 1 0 0 8h6a6 6 0 1 0 0-12m0 11h-6a3 3 0 0 1 0-6h.082q-.036.224-.057.455a.502.502 0 0 0 1 .09q.04-.44.154-.865.017-.045.026-.091A5 5 0 1 1 13.5 27.5"/></svg>