<svg xmlns="http://www.w3.org/2000/svg" width="32" height="32" fill="none" viewBox="0 0 32 32"><path fill="#000" d="M17.98 24.475a2.12 2.12 0 0 1-.929 1.551c-.548.364-1.25.471-1.902.471a7.2 7.2 0 0 1-1.774-.233.5.5 0 1 1 .269-.963c.527.147 2.07.412 2.853-.11a1.12 1.12 0 0 0 .49-.843c.103-.807-.548-1.087-1.956-1.493-1.21-.35-2.715-.785-2.517-2.346a2.08 2.08 0 0 1 .902-1.517c.57-.383 1.375-.544 2.388-.477q.663.044 1.31.201a.5.5 0 0 1-.256.968c-.537-.142-2.102-.39-2.883.139a1.06 1.06 0 0 0-.469.81c-.082.647.486.876 1.803 1.26 1.223.357 2.896.837 2.671 2.582M9 18.5a.5.5 0 0 0-.5.5v4.75a1.75 1.75 0 0 1-3.5 0 .5.5 0 0 0-1 0 2.75 2.75 0 0 0 5.5 0V19a.5.5 0 0 0-.5-.5m17.29.094a.5.5 0 0 0-.697.115L23.5 21.64l-2.094-2.931a.5.5 0 1 0-.813.582l2.292 3.209-2.293 3.209a.5.5 0 0 0 .814.582L23.5 23.36l2.093 2.931a.5.5 0 0 0 .813-.582L24.115 22.5l2.291-3.209a.5.5 0 0 0-.116-.697M26.5 11v3a.5.5 0 0 1-1 0v-2.5H19a.5.5 0 0 1-.5-.5V4.5H7a.5.5 0 0 0-.5.5v9a.5.5 0 0 1-1 0V5A1.5 1.5 0 0 1 7 3.5h12a.5.5 0 0 1 .354.146l7 7A.5.5 0 0 1 26.5 11m-1.707-.5L19.5 5.206V10.5z"/></svg>