<svg xmlns="http://www.w3.org/2000/svg" width="32" height="32" fill="none" viewBox="0 0 32 32"><path fill="#000" d="M27.5 19a.5.5 0 0 1-.5.5h-2V26a.5.5 0 0 1-1 0v-6.5h-2a.5.5 0 0 1 0-1h5a.5.5 0 0 1 .5.5M11 21.5a3 3 0 0 1-3 3H6.5V26a.5.5 0 0 1-1 0v-7a.5.5 0 0 1 .5-.5h2a3 3 0 0 1 3 3m-1 0a2 2 0 0 0-2-2H6.5v4H8a2 2 0 0 0 2-2m9.5 0a3 3 0 0 1-3 3H15V26a.5.5 0 0 1-1 0v-7a.5.5 0 0 1 .5-.5h2a3 3 0 0 1 3 3m-1 0a2 2 0 0 0-2-2H15v4h1.5a2 2 0 0 0 2-2M5.5 14V5A1.5 1.5 0 0 1 7 3.5h12a.5.5 0 0 1 .354.146l7 7A.5.5 0 0 1 26.5 11v3a.5.5 0 0 1-1 0v-2.5H19a.5.5 0 0 1-.5-.5V4.5H7a.5.5 0 0 0-.5.5v9a.5.5 0 0 1-1 0m14-3.5h5.293L19.5 5.206z"/></svg>