<svg xmlns="http://www.w3.org/2000/svg" width="32" height="32" fill="none" viewBox="0 0 32 32"><path fill="#000" d="m26.354 10.646-7-7A.5.5 0 0 0 19 3.5H7A1.5 1.5 0 0 0 5.5 5v9a.5.5 0 0 0 1 0V5a.5.5 0 0 1 .5-.5h11.5V11a.5.5 0 0 0 .5.5h6.5V14a.5.5 0 0 0 1 0v-3a.5.5 0 0 0-.146-.354M19.5 5.206l5.292 5.294H19.5zM10.48 24.475a2.12 2.12 0 0 1-.929 1.551C9 26.39 8.297 26.5 7.65 26.5a7.2 7.2 0 0 1-1.775-.236.5.5 0 1 1 .269-.963c.527.147 2.07.412 2.853-.11a1.12 1.12 0 0 0 .49-.843c.103-.807-.548-1.087-1.956-1.493-1.21-.35-2.715-.785-2.517-2.346a2.08 2.08 0 0 1 .902-1.517c.57-.383 1.375-.544 2.388-.477.44.03.879.096 1.308.201a.5.5 0 0 1-.25.968c-.536-.142-2.1-.39-2.882.139a1.06 1.06 0 0 0-.469.81c-.082.647.486.876 1.803 1.26 1.22.357 2.892.837 2.667 2.582m7.99-5.306-2.5 7a.5.5 0 0 1-.941 0l-2.5-7a.502.502 0 0 1 .494-.674.5.5 0 0 1 .447.336l2.029 5.683 2.029-5.683a.5.5 0 1 1 .94.338zM26.5 23v2.109a.5.5 0 0 1-.139.346A3.26 3.26 0 0 1 24 26.5c-1.93 0-3.5-1.795-3.5-4s1.57-4 3.5-4a3.18 3.18 0 0 1 1.78.554.5.5 0 1 1-.56.829A2.2 2.2 0 0 0 24 19.5c-1.375 0-2.5 1.346-2.5 3s1.125 3 2.5 3a2.23 2.23 0 0 0 1.5-.602V23.5H25a.5.5 0 0 1 0-1h1a.5.5 0 0 1 .5.5"/></svg>