<svg xmlns="http://www.w3.org/2000/svg" width="32" height="32" fill="none" viewBox="0 0 32 32"><path fill="#000" d="m26.354 10.646-7-7A.5.5 0 0 0 19 3.5H7A1.5 1.5 0 0 0 5.5 5v22A1.5 1.5 0 0 0 7 28.5h18a1.5 1.5 0 0 0 1.5-1.5V11a.5.5 0 0 0-.146-.354M19.5 5.206l5.293 5.294H19.5zM25 27.5H7a.5.5 0 0 1-.5-.5V5a.5.5 0 0 1 .5-.5h11.5V11a.5.5 0 0 0 .5.5h6.5V27a.5.5 0 0 1-.5.5m-5.646-7.854a.503.503 0 0 1 0 .708l-3 3a.503.503 0 0 1-.708 0l-3-3a.5.5 0 0 1 .708-.708l2.146 2.146V15a.5.5 0 0 1 1 0v6.793l2.146-2.147a.503.503 0 0 1 .708 0"/></svg>