<svg xmlns="http://www.w3.org/2000/svg" width="32" height="32" fill="none" viewBox="0 0 32 32"><path fill="#000" d="M9.5 28a.5.5 0 0 1-.5.5H7A1.5 1.5 0 0 1 5.5 27v-4a.5.5 0 0 1 1 0v4a.5.5 0 0 0 .5.5h2a.5.5 0 0 1 .5.5m17-17v6a.5.5 0 0 1-1 0v-5.5H19a.5.5 0 0 1-.5-.5V4.5H15a.5.5 0 0 1 0-1h4a.5.5 0 0 1 .354.146l7 7A.5.5 0 0 1 26.5 11m-7-.5h5.293L19.5 5.208zm-9.5-7H7A1.5 1.5 0 0 0 5.5 5v3a.5.5 0 1 0 1 0V5a.5.5 0 0 1 .5-.5h3a.5.5 0 0 0 0-1m16 18a.5.5 0 0 0-.5.5v5a.5.5 0 0 1-.5.5h-1a.5.5 0 0 0 0 1h1a1.5 1.5 0 0 0 1.5-1.5v-5a.5.5 0 0 0-.5-.5m-20-3a.5.5 0 0 0 .5-.5v-5a.5.5 0 0 0-1 0v5a.5.5 0 0 0 .5.5m13 9h-5a.5.5 0 0 0 0 1h5a.5.5 0 0 0 0-1"/></svg>