<svg xmlns="http://www.w3.org/2000/svg" width="32" height="32" fill="none" viewBox="0 0 32 32"><path fill="#000" d="M26.406 19.291 24.115 22.5l2.291 3.209a.5.5 0 0 1-.813.582L23.5 23.36l-2.094 2.931a.5.5 0 1 1-.813-.582l2.292-3.209-2.293-3.209a.502.502 0 0 1 .294-.778.5.5 0 0 1 .52.196L23.5 21.64l2.093-2.931a.5.5 0 1 1 .813.582m-11.095 2.603c-1.316-.375-1.885-.614-1.802-1.26a1.07 1.07 0 0 1 .468-.811c.782-.53 2.347-.28 2.883-.14a.502.502 0 0 0 .624-.55.5.5 0 0 0-.368-.417 7.7 7.7 0 0 0-1.31-.201c-1.015-.067-1.817.094-2.387.477a2.08 2.08 0 0 0-.903 1.517c-.197 1.561 1.308 2 2.518 2.346 1.407.406 2.059.686 1.955 1.492a1.12 1.12 0 0 1-.489.844c-.784.521-2.326.257-2.854.11a.5.5 0 1 0-.269.963c.579.151 1.174.23 1.772.236.647 0 1.354-.108 1.902-.471a2.12 2.12 0 0 0 .929-1.552c.225-1.747-1.448-2.227-2.669-2.583M10 18.5H5a.5.5 0 0 0 0 1h2V26a.5.5 0 0 0 1 0v-6.5h2a.5.5 0 0 0 0-1M26.5 11v3a.5.5 0 0 1-1 0v-2.5H19a.5.5 0 0 1-.5-.5V4.5H7a.5.5 0 0 0-.5.5v9a.5.5 0 0 1-1 0V5A1.5 1.5 0 0 1 7 3.5h12a.5.5 0 0 1 .354.146l7 7A.5.5 0 0 1 26.5 11m-1.707-.5L19.5 5.206V10.5z"/></svg>