<svg xmlns="http://www.w3.org/2000/svg" width="32" height="32" fill="none" viewBox="0 0 32 32"><path fill="#000" d="M12.191 16.538a.5.5 0 0 0-.545.108L8.792 19.5H6a.5.5 0 0 0-.5.5v5a.5.5 0 0 0 .5.5h2.793l2.853 2.854A.501.501 0 0 0 12.5 28V17a.5.5 0 0 0-.309-.462m-.691 10.25-2.146-2.142A.5.5 0 0 0 9 24.5H6.5v-4H9a.5.5 0 0 0 .354-.146l2.146-2.146zm7-4.288a4.57 4.57 0 0 1-2.25 3.931.5.5 0 0 1-.5-.862 3.564 3.564 0 0 0 0-6.138.5.5 0 0 1 .5-.862A4.57 4.57 0 0 1 18.5 22.5m7.854-11.854-7-7A.5.5 0 0 0 19 3.5H7A1.5 1.5 0 0 0 5.5 5v10a.5.5 0 0 0 1 0V5a.5.5 0 0 1 .5-.5h11.5V11a.5.5 0 0 0 .5.5h6.5V27a.5.5 0 0 1-.5.5h-4a.5.5 0 0 0 0 1h4a1.5 1.5 0 0 0 1.5-1.5V11a.5.5 0 0 0-.146-.354M19.5 5.206l5.293 5.294H19.5z"/></svg>