<svg xmlns="http://www.w3.org/2000/svg" width="32" height="32" fill="none" viewBox="0 0 32 32"><path fill="#000" d="M18.265 19.576a.5.5 0 0 0-.485-.025l-3.28 1.607V21a1.5 1.5 0 0 0-1.5-1.5H6A1.5 1.5 0 0 0 4.5 21v5A1.5 1.5 0 0 0 6 27.5h7a1.5 1.5 0 0 0 1.5-1.5v-.275l3.267 1.717A.5.5 0 0 0 18.5 27v-7a.5.5 0 0 0-.235-.424M13.5 26a.5.5 0 0 1-.5.5H6a.5.5 0 0 1-.5-.5v-5a.5.5 0 0 1 .5-.5h7a.5.5 0 0 1 .5.5zm4 .172-3-1.577v-2.324l3-1.47zm8.854-15.526-7-7A.5.5 0 0 0 19 3.5H7A1.5 1.5 0 0 0 5.5 5v11a.5.5 0 0 0 1 0V5a.5.5 0 0 1 .5-.5h11.5V11a.5.5 0 0 0 .5.5h6.5V27a.5.5 0 0 1-.5.5h-3a.5.5 0 0 0 0 1h3a1.5 1.5 0 0 0 1.5-1.5V11a.5.5 0 0 0-.146-.354M19.5 5.206l5.293 5.294H19.5z"/></svg>