<svg xmlns="http://www.w3.org/2000/svg" width="32" height="32" fill="none" viewBox="0 0 32 32"><path fill="#000" d="M23 18.5h-2a.5.5 0 0 0-.5.5v7a.5.5 0 0 0 1 0v-1.5H23a3 3 0 0 0 0-6m0 5h-1.5v-4H23a2 2 0 0 1 0 4M16.5 19v7a.5.5 0 0 1-1 0v-7a.5.5 0 0 1 1 0m-5.066.25L7.86 25.5H11a.5.5 0 0 1 0 1H7a.5.5 0 0 1-.434-.75l3.573-6.25H7a.5.5 0 0 1 0-1h4a.5.5 0 0 1 .434.75m14.92-8.604-7-7A.5.5 0 0 0 19 3.5H7A1.5 1.5 0 0 0 5.5 5v9a.5.5 0 0 0 1 0V5a.5.5 0 0 1 .5-.5h11.5V11a.5.5 0 0 0 .5.5h6.5V14a.5.5 0 0 0 1 0v-3a.5.5 0 0 0-.146-.354M19.5 10.5V5.206l5.293 5.294z"/></svg>