<svg xmlns="http://www.w3.org/2000/svg" width="32" height="32" fill="none" viewBox="0 0 32 32"><path fill="#000" d="M28 27.5h-7.102a12.5 12.5 0 1 0-4.898 1h12a.5.5 0 1 0 0-1M4.5 16A11.5 11.5 0 1 1 16 27.5 11.51 11.51 0 0 1 4.5 16M16 12.5a2.5 2.5 0 1 0 0-5 2.5 2.5 0 0 0 0 5m0-4a1.5 1.5 0 1 1 0 3 1.5 1.5 0 0 1 0-3M18.5 22a2.5 2.5 0 1 0-5 0 2.5 2.5 0 0 0 5 0m-4 0a1.5 1.5 0 1 1 3 0 1.5 1.5 0 0 1-3 0m7.5-3.5a2.5 2.5 0 1 0 0-5 2.5 2.5 0 0 0 0 5m0-4a1.5 1.5 0 1 1 0 3 1.5 1.5 0 0 1 0-3m-12-1a2.5 2.5 0 1 0 0 5 2.5 2.5 0 0 0 0-5m0 4a1.5 1.5 0 1 1 0-2.999 1.5 1.5 0 0 1 0 2.999"/></svg>