<svg xmlns="http://www.w3.org/2000/svg" width="32" height="32" fill="none" viewBox="0 0 32 32"><path fill="#000" d="M22.5 16a30.3 30.3 0 0 1-2.279 11.59.5.5 0 0 1-.925-.375A29.3 29.3 0 0 0 21.5 16a.5.5 0 0 1 1 0m-2.401-3.666a.502.502 0 0 0 .75-.666A6.5 6.5 0 0 0 9.499 16a17.5 17.5 0 0 1-2.184 8.475.5.5 0 0 0 .875.485A18.5 18.5 0 0 0 10.5 16a5.5 5.5 0 0 1 9.599-3.668zm-4.1-8.834c-1.418-.001-2.827.24-4.165.711a.5.5 0 1 0 .332.943A11.51 11.51 0 0 1 27.5 16c.002 2.654-.291 5.3-.875 7.89a.5.5 0 0 0 .486.61.5.5 0 0 0 .486-.39c.602-2.661.905-5.381.903-8.11A12.514 12.514 0 0 0 16 3.5M8.335 7.429a.502.502 0 0 0-.668-.75A12.52 12.52 0 0 0 3.5 16a11.4 11.4 0 0 1-1.043 4.791.5.5 0 0 0 .25.663.5.5 0 0 0 .478-.033.5.5 0 0 0 .185-.212A12.4 12.4 0 0 0 4.5 16a11.52 11.52 0 0 1 3.834-8.571m5.697 18.117a.5.5 0 0 0-.664.25c-.25.537-.516 1.072-.802 1.589a.499.499 0 0 0 .575.723.5.5 0 0 0 .3-.238c.299-.54.581-1.098.837-1.656a.5.5 0 0 0-.246-.668M16 15.5a.5.5 0 0 0-.5.5 23.6 23.6 0 0 1-.74 5.875.5.5 0 0 0 .967.25c.514-2.001.774-4.059.773-6.125a.5.5 0 0 0-.5-.5"/></svg>