<svg xmlns="http://www.w3.org/2000/svg" width="32" height="32" fill="none" viewBox="0 0 32 32"><path fill="#000" d="M8.5 16a16.34 16.34 0 0 1-1.716 7.337.5.5 0 1 1-.895-.445A15.34 15.34 0 0 0 7.499 16a8.47 8.47 0 0 1 3.188-6.635.5.5 0 0 1 .625.781A7.47 7.47 0 0 0 8.5 16m7.5-.5a.5.5 0 0 0-.5.5c0 3.979-1.01 7.893-2.935 11.375a.5.5 0 0 0 .875.485A24.5 24.5 0 0 0 16.5 16a.5.5 0 0 0-.5-.5m0-4a4.5 4.5 0 0 0-4.5 4.5.5.5 0 0 0 1 0 3.5 3.5 0 0 1 7 0 27.25 27.25 0 0 1-2.613 11.712.5.5 0 0 0 .905.427A28.25 28.25 0 0 0 20.5 16a4.5 4.5 0 0 0-4.5-4.5m0-8A12.514 12.514 0 0 0 3.5 16a11.5 11.5 0 0 1-.655 3.834.5.5 0 1 0 .942.332c.473-1.338.714-2.747.713-4.166a11.5 11.5 0 1 1 23 0c0 2.318-.225 4.63-.671 6.904a.5.5 0 0 0 .98.192c.46-2.337.691-4.714.69-7.096A12.514 12.514 0 0 0 16 3.5m-4.3 16.011a.5.5 0 0 0-.589.39 19.4 19.4 0 0 1-2.207 5.83.5.5 0 1 0 .866.5 20.4 20.4 0 0 0 2.321-6.125.5.5 0 0 0-.391-.595M16 7.5a9 9 0 0 0-1.063.066.5.5 0 0 0 .125.991q.468-.056.938-.057a7.51 7.51 0 0 1 7.5 7.5q0 1.976-.244 3.938a.5.5 0 0 0 .434.558h.062a.5.5 0 0 0 .5-.438q.25-2.022.248-4.058A8.51 8.51 0 0 0 16 7.5m7.116 16.015a.5.5 0 0 0-.609.36 32 32 0 0 1-.637 2.154.499.499 0 1 0 .947.317c.25-.729.467-1.476.66-2.221a.5.5 0 0 0-.36-.609z"/></svg>