<svg xmlns="http://www.w3.org/2000/svg" width="32" height="32" fill="none" viewBox="0 0 32 32"><path fill="#000" d="M21 12.5H11A4.5 4.5 0 0 0 6.5 17v1a4.5 4.5 0 0 0 4.5 4.5h10a4.5 4.5 0 0 0 4.5-4.5v-1a4.5 4.5 0 0 0-4.5-4.5m3.5 5.5a3.5 3.5 0 0 1-3.5 3.5H11A3.5 3.5 0 0 1 7.5 18v-1a3.5 3.5 0 0 1 3.5-3.5h10a3.5 3.5 0 0 1 3.5 3.5zM26 4.5a3.5 3.5 0 0 0-3.464 3H9.464A3.5 3.5 0 0 0 2.5 8v10a8.51 8.51 0 0 0 8.5 8.5h10a8.51 8.51 0 0 0 8.5-8.5V8A3.5 3.5 0 0 0 26 4.5M28.5 18a7.51 7.51 0 0 1-7.5 7.5H11A7.51 7.51 0 0 1 3.5 18V8a2.5 2.5 0 1 1 5 0 .5.5 0 0 0 .5.5h14a.5.5 0 0 0 .5-.5 2.5 2.5 0 0 1 5 0zm-16-.5a1 1 0 1 1-2 0 1 1 0 0 1 2 0m9 0a1 1 0 1 1-2 0 1 1 0 0 1 2 0"/></svg>