<svg xmlns="http://www.w3.org/2000/svg" width="32" height="32" fill="none" viewBox="0 0 32 32"><path fill="#000" d="M22.493 19.084a6.69 6.69 0 0 1-5.41 5.409.5.5 0 0 1-.165-.985c2.272-.383 4.203-2.314 4.59-4.592a.5.5 0 0 1 .985.168M26.5 18a10.5 10.5 0 1 1-21 0c0-3.375 1.339-6.844 3.98-10.304a.5.5 0 0 1 .75-.055l3.569 3.463 3.018-8.275a.5.5 0 0 1 .79-.214C20.276 4.836 26.5 10.78 26.5 18m-1 0c0-6.352-5.216-11.739-7.992-14.154l-3.038 8.325a.5.5 0 0 1-.819.188L9.938 8.75C7.656 11.884 6.5 14.991 6.5 18a9.5 9.5 0 0 0 19 0"/></svg>