<svg xmlns="http://www.w3.org/2000/svg" width="32" height="32" fill="none" viewBox="0 0 32 32"><path fill="#000" d="M27.144 6.521 18.35 3.884l4.875-2.436a.501.501 0 1 0-.447-.895L16.875 3.5A9.51 9.51 0 0 0 7.5 13v13a.5.5 0 0 0 1 0v-4.5h3V29a1.5 1.5 0 0 0 1.5 1.5h8a1.5 1.5 0 0 0 1.5-1.5V13a5.507 5.507 0 0 0-5-5.476V4.673l9.356 2.806a.5.5 0 0 0 .287-.957M8.5 20.5V13a8.51 8.51 0 0 1 8-8.484v3.008a5.507 5.507 0 0 0-5 5.476v7.5zm12.5 9h-8a.5.5 0 0 1-.5-.5v-7.5h9V29a.5.5 0 0 1-.5.5m.5-16.5v7.5h-9V13a4.5 4.5 0 1 1 9 0"/></svg>