<svg xmlns="http://www.w3.org/2000/svg" width="32" height="32" fill="none" viewBox="0 0 32 32"><path fill="#000" d="M27 11.5h-6.5V5A1.5 1.5 0 0 0 19 3.5h-6A1.5 1.5 0 0 0 11.5 5v6.5H5A1.5 1.5 0 0 0 3.5 13v6A1.5 1.5 0 0 0 5 20.5h6.5V27a1.5 1.5 0 0 0 1.5 1.5h6a1.5 1.5 0 0 0 1.5-1.5v-6.5H27a1.5 1.5 0 0 0 1.5-1.5v-6a1.5 1.5 0 0 0-1.5-1.5m.5 7.5a.5.5 0 0 1-.5.5h-7a.5.5 0 0 0-.5.5v7a.5.5 0 0 1-.5.5h-6a.5.5 0 0 1-.5-.5v-7a.5.5 0 0 0-.5-.5H5a.5.5 0 0 1-.5-.5v-6a.5.5 0 0 1 .5-.5h7a.5.5 0 0 0 .5-.5V5a.5.5 0 0 1 .5-.5h6a.5.5 0 0 1 .5.5v7a.5.5 0 0 0 .5.5h7a.5.5 0 0 1 .5.5z"/></svg>