<svg xmlns="http://www.w3.org/2000/svg" width="32" height="32" fill="none" viewBox="0 0 32 32"><path fill="#000" d="M27 8.5h-5.5V7A2.5 2.5 0 0 0 19 4.5h-6A2.5 2.5 0 0 0 10.5 7v1.5H5A1.5 1.5 0 0 0 3.5 10v16A1.5 1.5 0 0 0 5 27.5h22a1.5 1.5 0 0 0 1.5-1.5V10A1.5 1.5 0 0 0 27 8.5M11.5 7A1.5 1.5 0 0 1 13 5.5h6A1.5 1.5 0 0 1 20.5 7v1.5h-9zm16 19a.5.5 0 0 1-.5.5H5a.5.5 0 0 1-.5-.5V10a.5.5 0 0 1 .5-.5h22a.5.5 0 0 1 .5.5zm-8-8a.5.5 0 0 1-.5.5h-2.5V21a.5.5 0 0 1-1 0v-2.5H13a.5.5 0 0 1 0-1h2.5V15a.5.5 0 0 1 1 0v2.5H19a.5.5 0 0 1 .5.5"/></svg>