<svg xmlns="http://www.w3.org/2000/svg" width="32" height="32" fill="none" viewBox="0 0 32 32"><path fill="#000" d="M20.5 9.5a1 1 0 1 1-2 0 1 1 0 0 1 2 0m4.089 11c-3.375 3.364-8.742 4.718-16.01 4.046q.304 2.526.92 5.353a.5.5 0 0 1-.482.607.5.5 0 0 1-.487-.393 57 57 0 0 1-.963-5.672 57 57 0 0 1-5.667-.963.5.5 0 1 1 .207-.978 57 57 0 0 0 5.348.922c-.668-7.27.686-12.64 4.045-16.01 5.289-5.3 13.735-3.8 15.375-3.445a1.51 1.51 0 0 1 1.157 1.158c.355 1.635 1.857 10.08-3.443 15.375m-.707-.707q.152-.155.298-.313A12.5 12.5 0 0 1 12.526 7.825q-.16.147-.314.3c-3.178 3.179-4.43 8.348-3.743 15.403 7.056.688 12.226-.563 15.413-3.742zM27.055 5.33a.5.5 0 0 0-.386-.386 21.7 21.7 0 0 0-6.308-.353c-2.724.265-5.024 1.08-6.861 2.425A11.5 11.5 0 0 0 24.982 18.5c1.345-1.837 2.16-4.137 2.425-6.863a21.7 21.7 0 0 0-.352-6.306"/></svg>