<svg xmlns="http://www.w3.org/2000/svg" width="32" height="32" fill="none" viewBox="0 0 32 32"><path fill="#000" d="M20.506 9.5a1 1 0 1 1-2 0 1 1 0 0 1 2 0m5.09 9.817c-2.547 3.238-6.666 4.976-12.242 5.168l-2.875 6.718a.5.5 0 0 1-.464.297h-.033a.5.5 0 0 1-.448-.361l-1.928-6.75L.862 22.46a.5.5 0 0 1-.058-.94l6.717-2.875c.194-5.577 1.933-9.695 5.17-12.242 5.225-4.113 12.738-2.75 14.19-2.435a1.5 1.5 0 0 1 1.15 1.148c.315 1.454 1.678 8.97-2.435 14.194zm-4 2.125A6.01 6.01 0 0 1 16.5 15.5a6.01 6.01 0 0 1-5.931-5.1c-1.284 2.25-1.974 5.125-2.058 8.593a.5.5 0 0 1-.302.447l-5.72 2.447 5.66 1.625a.5.5 0 0 1 .343.344l1.617 5.659 2.45-5.719a.5.5 0 0 1 .448-.302c3.47-.088 6.344-.778 8.594-2.063zM27.054 5.33a.5.5 0 0 0-.384-.384 21.6 21.6 0 0 0-5.715-.414c-3.08.2-5.656 1.093-7.645 2.658-.66.52-1.258 1.116-1.778 1.776a5 5 0 0 0 5.45 5.507.498.498 0 0 1 .545.544 5 5 0 0 0 5.51 5.45 10.6 10.6 0 0 0 1.773-1.774c1.565-1.988 2.459-4.56 2.657-7.647a21.6 21.6 0 0 0-.413-5.716"/></svg>