<svg xmlns="http://www.w3.org/2000/svg" width="32" height="32" fill="none" viewBox="0 0 32 32"><path fill="#000" d="M4.674 5.632a.5.5 0 0 0-.174.375V27a.5.5 0 1 0 1 0v-5.766c3.676-3.049 6.885-1.462 10.279.216 2.062 1.021 4.166 2.063 6.391 2.063 1.642 0 3.351-.57 5.157-2.133a.5.5 0 0 0 .173-.375v-15a.5.5 0 0 0-.828-.375c-3.75 3.25-7 1.634-10.45-.071-3.588-1.774-7.297-3.607-11.548.073M26.5 20.772c-3.676 3.05-6.885 1.462-10.279-.217C12.87 18.896 9.41 17.18 5.5 19.973V6.24c3.676-3.05 6.885-1.463 10.279.216C19.13 8.115 22.59 9.831 26.5 7.04z"/></svg>