<svg xmlns="http://www.w3.org/2000/svg" width="32" height="32" fill="none" viewBox="0 0 32 32"><path fill="#000" d="M21.363 6.78a27 27 0 0 0-5.105-4.209.5.5 0 0 0-.515 0 27 27 0 0 0-5.106 4.209C7.278 10.31 5.5 14.189 5.5 18a10.5 10.5 0 0 0 21 0c0-3.811-1.776-7.69-5.137-11.22M11.5 23c0-4.014 3.509-6.719 4.5-7.401.991.683 4.5 3.387 4.5 7.401a4.5 4.5 0 1 1-9 0m8.743 3.5A5.48 5.48 0 0 0 21.5 23c0-5.222-5.029-8.3-5.242-8.429a.5.5 0 0 0-.515 0C15.529 14.7 10.5 17.778 10.5 23a5.48 5.48 0 0 0 1.258 3.5A9.51 9.51 0 0 1 6.5 18c0-7.81 7.955-13.396 9.5-14.407 1.545 1.01 9.5 6.597 9.5 14.407a9.51 9.51 0 0 1-5.257 8.5"/></svg>