<svg xmlns="http://www.w3.org/2000/svg" width="32" height="32" fill="none" viewBox="0 0 32 32"><path fill="#000" d="M27.284 25.229 19.5 12.25V4.5H21a.5.5 0 1 0 0-1H11a.5.5 0 0 0 0 1h1.5v7.75L4.716 25.229A1.5 1.5 0 0 0 6 27.5h20a1.5 1.5 0 0 0 1.286-2.271zM13.429 12.65a.5.5 0 0 0 .071-.258V4.5h5v7.893c0 .09.025.179.071.257l5.125 8.541c-1.595.493-4.067.585-7.468-1.137-2.25-1.143-4.375-1.655-6.318-1.537zm13.004 13.6a.49.49 0 0 1-.435.25H6a.5.5 0 0 1-.429-.758l3.692-6.15c1.942-.304 4.13.15 6.508 1.354 2.297 1.162 4.23 1.554 5.782 1.554.908.006 1.81-.14 2.67-.433l2.203 3.673a.49.49 0 0 1 .007.51"/></svg>