<svg xmlns="http://www.w3.org/2000/svg" width="32" height="32" fill="none" viewBox="0 0 32 32"><path fill="#000" d="m27.061 10.354-5.415-5.415a1.5 1.5 0 0 0-1.06-.439H6A1.5 1.5 0 0 0 4.5 6v20A1.5 1.5 0 0 0 6 27.5h20a1.5 1.5 0 0 0 1.5-1.5V11.414a1.5 1.5 0 0 0-.439-1.06M21.5 26.5h-11V19a.5.5 0 0 1 .5-.5h10a.5.5 0 0 1 .5.5zm5-.5a.5.5 0 0 1-.5.5h-3.5V19a1.5 1.5 0 0 0-1.5-1.5H11A1.5 1.5 0 0 0 9.5 19v7.5H6a.5.5 0 0 1-.5-.5V6a.5.5 0 0 1 .5-.5h14.586a.5.5 0 0 1 .353.146l5.415 5.415a.5.5 0 0 1 .146.353zm-7-17a.5.5 0 0 1-.5.5h-7a.5.5 0 0 1 0-1h7a.5.5 0 0 1 .5.5"/></svg>