<svg xmlns="http://www.w3.org/2000/svg" width="32" height="32" fill="none" viewBox="0 0 32 32"><path fill="#000" d="M26.044 16.603A6.4 6.4 0 0 0 24.47 16a6.4 6.4 0 0 0 1.574-.602 4.502 4.502 0 0 0-2.838-8.36 4.5 4.5 0 0 0-1.662.564c-.481.296-.921.653-1.31 1.063.162-.54.251-1.1.266-1.665a4.5 4.5 0 1 0-9 0c.014.564.104 1.124.265 1.665a6.4 6.4 0 0 0-1.309-1.062 4.5 4.5 0 0 0-4.5 7.795c.496.27 1.025.472 1.574.602a6.4 6.4 0 0 0-1.574.602 4.5 4.5 0 1 0 4.5 7.796 6.4 6.4 0 0 0 1.309-1.063c-.161.54-.25 1.1-.265 1.665a4.5 4.5 0 1 0 9 0 6.4 6.4 0 0 0-.265-1.665c.388.41.828.767 1.309 1.063a4.48 4.48 0 0 0 3.42.448 4.5 4.5 0 0 0 1.086-8.25zm-4-8.134a3.5 3.5 0 1 1 3.5 6.062c-.87.5-2.478.833-4.68.968l-.395-.022a4.5 4.5 0 0 0-1.783-3.085c.061-.124.125-.237.18-.354 1.218-1.84 2.309-3.067 3.178-3.57M16 19.5a3.5 3.5 0 1 1 0-7 3.5 3.5 0 0 1 0 7m0-16A3.5 3.5 0 0 1 19.5 7c0 1-.518 2.563-1.5 4.538q-.109.162-.216.33a4.5 4.5 0 0 0-3.565 0l-.217-.33C13.017 9.561 12.5 8 12.5 7A3.5 3.5 0 0 1 16 3.5M6.456 14.531a3.5 3.5 0 1 1 3.5-6.062c.869.5 1.96 1.73 3.178 3.569.058.117.125.235.18.354a4.5 4.5 0 0 0-1.783 3.085l-.395.022c-2.202-.135-3.811-.466-4.68-.968m3.5 9a3.499 3.499 0 1 1-3.5-6.062c.875-.5 2.478-.833 4.68-.968l.395.021a4.5 4.5 0 0 0 1.783 3.086c-.062.125-.125.237-.18.354-1.218 1.84-2.31 3.067-3.178 3.57M16 28.5a3.5 3.5 0 0 1-3.5-3.5c0-1 .517-2.562 1.5-4.538q.108-.162.216-.33a4.5 4.5 0 0 0 3.565 0q.109.168.216.33c.984 1.976 1.5 3.534 1.5 4.538A3.5 3.5 0 0 1 16 28.5m10.825-6.25a3.5 3.5 0 0 1-4.781 1.281c-.87-.5-1.96-1.73-3.178-3.568-.059-.118-.125-.236-.18-.355a4.5 4.5 0 0 0 1.783-3.085l.395-.022c2.202.135 3.81.466 4.68.968a3.5 3.5 0 0 1 1.28 4.781"/></svg>