<svg xmlns="http://www.w3.org/2000/svg" width="32" height="32" fill="none" viewBox="0 0 32 32"><path fill="#000" d="M30.296 15.456a1.44 1.44 0 0 0-.885-.682 8.9 8.9 0 0 0-3.286-.209c.685-2.682.297-4.795-.094-6a1.52 1.52 0 0 0-1.77-1.024c-1.4.316-2.72.919-3.875 1.772a11.4 11.4 0 0 0-3.487-4.5 1.49 1.49 0 0 0-1.805 0 11.4 11.4 0 0 0-3.488 4.5A10.4 10.4 0 0 0 7.731 7.54a1.52 1.52 0 0 0-1.77 1.024c-.391 1.21-.778 3.323-.093 6a8.9 8.9 0 0 0-3.283.209 1.44 1.44 0 0 0-.885.682 1.5 1.5 0 0 0-.15 1.153c.405 1.5 1.65 4.351 5.44 6.615S14.181 25.5 16 25.5s5.201 0 9.009-2.276c3.807-2.276 5.035-5.116 5.44-6.615a1.5 1.5 0 0 0-.153-1.153m-5.821-6.942a.525.525 0 0 1 .609.361c.5 1.563 1 4.794-1.346 8.875-1.307 2.274-3.14 4.025-4.764 5.18C20.25 21.25 21.5 18.655 21.5 14.9a14.2 14.2 0 0 0-.735-4.625 9.4 9.4 0 0 1 3.71-1.76m-17.559.361a.524.524 0 0 1 .609-.355 9.4 9.4 0 0 1 3.71 1.754 14.2 14.2 0 0 0-.735 4.625c0 3.756 1.25 6.352 2.526 8.029-1.625-1.155-3.457-2.907-4.763-5.18-2.348-4.085-1.852-7.317-1.347-8.873m.59 13.5C4.02 20.291 2.881 17.71 2.52 16.356a.5.5 0 0 1 .167-.527.5.5 0 0 1 .16-.08 8.1 8.1 0 0 1 3.342-.125c.32.91.723 1.79 1.207 2.625 1.66 2.887 4.082 4.959 6.034 6.139a14.54 14.54 0 0 1-5.923-2.022zm8.5 2.043a9.5 9.5 0 0 1-2.135-2.05c-1.575-2.045-2.371-4.555-2.371-7.47 0-5.53 2.936-8.343 4.199-9.294a.5.5 0 0 1 .602 0c1.263.951 4.199 3.764 4.199 9.295 0 2.914-.796 5.424-2.365 7.46A9.5 9.5 0 0 1 16 24.409zm13.482-8.062c-.366 1.354-1.5 3.935-4.988 6.02a14.54 14.54 0 0 1-5.922 2.018c1.95-1.18 4.375-3.25 6.033-6.139.484-.835.888-1.714 1.208-2.625a8.1 8.1 0 0 1 3.341.125.45.45 0 0 1 .276.216.5.5 0 0 1 .045.377z"/></svg>