<svg xmlns="http://www.w3.org/2000/svg" width="32" height="32" fill="none" viewBox="0 0 32 32"><path fill="#000" d="M22.474 26.841a.5.5 0 0 1-.948.318l-1-3a.499.499 0 0 1 .854-.494.5.5 0 0 1 .094.176zM16 23.5a.5.5 0 0 0-.5.5v4a.5.5 0 0 0 1 0v-4a.5.5 0 0 0-.5-.5m-4.842.025a.5.5 0 0 0-.632.316l-1 3a.5.5 0 1 0 .948.318l1-3a.5.5 0 0 0-.316-.634M30.5 14c0 3.645-6.369 6.5-14.5 6.5S1.5 17.645 1.5 14c0-2.539 3.1-4.77 8.105-5.85a7.457 7.457 0 0 1 11.664-1.488c.454.45.85.953 1.177 1.5C27.42 9.25 30.5 11.472 30.5 14m-21-1.896v.375a1.49 1.49 0 0 0 1.155 1.455c1.755.388 3.548.578 5.345.566 1.797.014 3.59-.174 5.344-.56a1.49 1.49 0 0 0 1.156-1.455V12a6.5 6.5 0 0 0-6.586-6.5C12.375 5.546 9.5 8.509 9.5 12.104M29.5 14c0-1.875-2.516-3.671-6.492-4.679.326.856.493 1.763.492 2.679v.489a2.48 2.48 0 0 1-1.931 2.426A25 25 0 0 1 16 15.5a25 25 0 0 1-5.568-.585A2.48 2.48 0 0 1 8.5 12.489v-.383c0-.957.18-1.905.531-2.795C5.031 10.318 2.5 12.11 2.5 14c0 2.981 6.182 5.5 13.5 5.5s13.5-2.519 13.5-5.5"/></svg>