<svg xmlns="http://www.w3.org/2000/svg" width="32" height="32" fill="none" viewBox="0 0 32 32"><path fill="#000" d="M27 9.5H16.208l-3.562-3.56a1.49 1.49 0 0 0-1.06-.44H5A1.5 1.5 0 0 0 3.5 7v18.078A1.425 1.425 0 0 0 4.923 26.5H27.11a1.39 1.39 0 0 0 1.389-1.389V11A1.5 1.5 0 0 0 27 9.5m-22-3h6.586a.5.5 0 0 1 .353.146L14.793 9.5H4.5V7a.5.5 0 0 1 .5-.5m22.5 18.611a.39.39 0 0 1-.389.389H4.923a.423.423 0 0 1-.423-.422V10.5H27a.5.5 0 0 1 .5.5zM19.5 18a.5.5 0 0 1-.5.5h-2.5V21a.5.5 0 0 1-1 0v-2.5H13a.5.5 0 0 1 0-1h2.5V15a.5.5 0 0 1 1 0v2.5H19a.5.5 0 0 1 .5.5"/></svg>