<svg xmlns="http://www.w3.org/2000/svg" width="32" height="32" fill="none" viewBox="0 0 32 32"><path fill="#000" d="M25.938 24.913a3.5 3.5 0 1 0-3.875 0 4.53 4.53 0 0 0-2.547 2.962.5.5 0 0 0 .786.524.5.5 0 0 0 .178-.27c.411-1.548 1.856-2.625 3.516-2.625s3.105 1.081 3.517 2.625a.5.5 0 1 0 .966-.257 4.53 4.53 0 0 0-2.541-2.96M21.5 22a2.5 2.5 0 1 1 5 0 2.5 2.5 0 0 1-5 0m7-11v4a.5.5 0 0 1-1 0v-4a.5.5 0 0 0-.5-.5H16.334c-.325 0-.64-.106-.9-.3l-3.468-2.6a.5.5 0 0 0-.3-.1H5a.5.5 0 0 0-.5.5v17a.5.5 0 0 0 .5.5h10a.5.5 0 0 1 0 1H5A1.5 1.5 0 0 1 3.5 25V8A1.5 1.5 0 0 1 5 6.5h6.666c.325 0 .64.106.9.3l3.468 2.6a.5.5 0 0 0 .3.1H27a1.5 1.5 0 0 1 1.5 1.5"/></svg>