<svg xmlns="http://www.w3.org/2000/svg" width="32" height="32" fill="none" viewBox="0 0 32 32"><path fill="#000" d="M30.215 14.125a1.48 1.48 0 0 0-1.216-.625H26.5V11A1.5 1.5 0 0 0 25 9.5h-8.667a.5.5 0 0 1-.3-.1l-3.467-2.6c-.26-.194-.575-.3-.9-.3H5A1.5 1.5 0 0 0 3.5 8v18a.49.49 0 0 0 .266.442A.5.5 0 0 0 4 26.5h22.386a.5.5 0 0 0 .474-.343l3.561-10.683a1.48 1.48 0 0 0-.206-1.349M5 7.5h6.666a.5.5 0 0 1 .3.1l3.467 2.6c.26.194.575.3.9.3H25a.5.5 0 0 1 .5.5v2.5h-7.198a1.5 1.5 0 0 0-.832.25l-2.5 1.664a.5.5 0 0 1-.277.084H8.676a1.5 1.5 0 0 0-1.392.942L4.5 23.404V8a.5.5 0 0 1 .5-.5m24.473 7.659L26.025 25.5H4.739l3.474-8.686a.5.5 0 0 1 .463-.314h6.02a1.5 1.5 0 0 0 .833-.25l2.5-1.664a.5.5 0 0 1 .277-.084H29a.5.5 0 0 1 .474.66z"/></svg>