<svg xmlns="http://www.w3.org/2000/svg" width="32" height="32" fill="none" viewBox="0 0 32 32"><path fill="#000" d="M25.938 24.913a3.5 3.5 0 1 0-3.875 0 4.53 4.53 0 0 0-2.547 2.962.5.5 0 0 0 .786.524.5.5 0 0 0 .178-.27c.411-1.548 1.856-2.625 3.516-2.625s3.105 1.081 3.517 2.625a.5.5 0 1 0 .966-.257 4.53 4.53 0 0 0-2.541-2.96M21.5 22a2.5 2.5 0 1 1 5 0 2.5 2.5 0 0 1-5 0M27 9.5H16.208l-3.562-3.561a1.5 1.5 0 0 0-1.06-.439H5A1.5 1.5 0 0 0 3.5 7v18.076A1.425 1.425 0 0 0 4.923 26.5H15.07a.5.5 0 0 0 0-1H4.923a.423.423 0 0 1-.423-.424V10.5H27a.5.5 0 0 1 .5.5v4a.5.5 0 0 0 1 0v-4A1.5 1.5 0 0 0 27 9.5m-22-3h6.586a.5.5 0 0 1 .353.146L14.793 9.5H4.5V7a.5.5 0 0 1 .5-.5"/></svg>