<svg xmlns="http://www.w3.org/2000/svg" width="32" height="32" fill="none" viewBox="0 0 32 32"><path fill="#000" d="m15.7 10.4-3.734-2.8a.5.5 0 0 0-.3-.1H5a.5.5 0 0 0-.5.5v2a.5.5 0 0 1-1 0V8A1.5 1.5 0 0 1 5 6.5h6.666c.325 0 .64.106.9.3L16.3 9.6a.5.5 0 0 1-.6.8M11 25.5H4.923a.423.423 0 0 1-.423-.422V24a.5.5 0 0 0-1 0v1.078A1.425 1.425 0 0 0 4.923 26.5H11a.5.5 0 0 0 0-1m9 0h-4a.5.5 0 0 0 0 1h4a.5.5 0 0 0 0-1m8-7a.5.5 0 0 0-.5.5v6.111a.39.39 0 0 1-.389.389H25a.5.5 0 0 0 0 1h2.111a1.39 1.39 0 0 0 1.389-1.389V19a.5.5 0 0 0-.5-.5m-1-9h-6a.5.5 0 0 0 0 1h6a.5.5 0 0 1 .5.5v3a.5.5 0 0 0 1 0v-3A1.5 1.5 0 0 0 27 9.5m-23 10a.5.5 0 0 0 .5-.5v-4a.5.5 0 0 0-1 0v4a.5.5 0 0 0 .5.5"/></svg>