<svg xmlns="http://www.w3.org/2000/svg" width="32" height="32" fill="none" viewBox="0 0 32 32"><path fill="#000" d="M28 8.5h-8.666a.5.5 0 0 1-.3-.1l-3.468-2.6c-.26-.194-.575-.3-.9-.3H9A1.5 1.5 0 0 0 7.5 7v2.5H5A1.5 1.5 0 0 0 3.5 11v14A1.5 1.5 0 0 0 5 26.5h19.111a1.39 1.39 0 0 0 1.389-1.389V22.5h2.611a1.39 1.39 0 0 0 1.389-1.389V10A1.5 1.5 0 0 0 28 8.5m-3.5 16.611a.39.39 0 0 1-.389.389H5a.5.5 0 0 1-.5-.5V11a.5.5 0 0 1 .5-.5h5.666a.5.5 0 0 1 .3.1l3.468 2.6c.26.194.575.3.9.3H24a.5.5 0 0 1 .5.5zm4-4a.39.39 0 0 1-.389.389H25.5V14a1.5 1.5 0 0 0-1.5-1.5h-8.666a.5.5 0 0 1-.3-.1l-3.468-2.6c-.26-.194-.575-.3-.9-.3H8.5V7a.5.5 0 0 1 .5-.5h5.666a.5.5 0 0 1 .3.1l3.468 2.6c.26.194.575.3.9.3H28a.5.5 0 0 1 .5.5z"/></svg>