<svg xmlns="http://www.w3.org/2000/svg" width="32" height="32" fill="none" viewBox="0 0 32 32"><path fill="#000" d="M4.5 8v17a.5.5 0 0 0 .5.5h10a.5.5 0 0 1 0 1H5A1.5 1.5 0 0 1 3.5 25V8A1.5 1.5 0 0 1 5 6.5h6.666c.325 0 .64.106.9.3l3.468 2.6a.5.5 0 0 0 .3.1H27a1.5 1.5 0 0 1 1.5 1.5v4a.5.5 0 0 1-1 0v-4a.5.5 0 0 0-.5-.5H16.334c-.325 0-.64-.106-.9-.3l-3.468-2.6a.5.5 0 0 0-.3-.1H5a.5.5 0 0 0-.5.5m24.819 12.587-3.058 2.524.933 3.764a.5.5 0 0 1-.735.551L23 25.398l-3.455 2.033a.5.5 0 0 1-.739-.551l.933-3.769-3.058-2.524a.5.5 0 0 1 .28-.884l4.03-.312 1.55-3.59a.5.5 0 0 1 .918 0l1.55 3.59 4.03.312a.5.5 0 0 1 .28.884m-1.593.018-3.101-.24a.5.5 0 0 1-.42-.3L23 17.262l-1.21 2.803a.5.5 0 0 1-.42.3l-3.096.24 2.351 1.935a.5.5 0 0 1 .166.506l-.722 2.92 2.681-1.58a.5.5 0 0 1 .508 0l2.683 1.58-.722-2.92a.5.5 0 0 1 .166-.506z"/></svg>