<svg xmlns="http://www.w3.org/2000/svg" width="32" height="32" fill="none" viewBox="0 0 32 32"><path fill="#000" d="M27 10.5a.5.5 0 0 1 .5.5v4a.5.5 0 0 0 1 0v-4A1.5 1.5 0 0 0 27 9.5H16.208l-3.562-3.561a1.5 1.5 0 0 0-1.06-.439H5A1.5 1.5 0 0 0 3.5 7v18.076A1.425 1.425 0 0 0 4.923 26.5H15.07a.5.5 0 0 0 0-1H4.923a.424.424 0 0 1-.423-.424V10.5zm-22-4h6.586a.5.5 0 0 1 .353.146L14.793 9.5H4.5V7a.5.5 0 0 1 .5-.5m24.476 13.551a.5.5 0 0 0-.437-.348l-4.03-.312-1.55-3.59a.5.5 0 0 0-.918 0l-1.55 3.59-4.03.312a.5.5 0 0 0-.28.884l3.058 2.524-.933 3.764a.5.5 0 0 0 .739.551L23 25.398l3.455 2.033a.5.5 0 0 0 .72-.262.5.5 0 0 0 .015-.289l-.933-3.769 3.058-2.524a.5.5 0 0 0 .161-.536m-4.095 2.489a.5.5 0 0 0-.166.506l.723 2.92-2.688-1.58a.5.5 0 0 0-.508 0l-2.68 1.58.723-2.92a.5.5 0 0 0-.166-.506l-2.345-1.935 3.101-.24a.5.5 0 0 0 .42-.3L23 17.262l1.21 2.803a.5.5 0 0 0 .42.3l3.096.24z"/></svg>