<svg xmlns="http://www.w3.org/2000/svg" width="32" height="32" fill="none" viewBox="0 0 32 32"><path fill="#000" d="M28.14 6.82a3.62 3.62 0 0 0-2.96-2.96c-3.951-.67-11.395-.979-16.848 4.472S3.19 21.23 3.86 25.18a3.62 3.62 0 0 0 2.96 2.96c1.391.237 2.8.357 4.211.36 3.913 0 8.774-.971 12.637-4.832C29.125 18.215 28.81 10.77 28.14 6.82m-7.213-2.333c1.37.005 2.737.125 4.087.358a2.625 2.625 0 0 1 2.141 2.141 23.2 23.2 0 0 1 .29 5.764L19.25 4.554a21 21 0 0 1 1.677-.067M6.987 27.155a2.625 2.625 0 0 1-2.142-2.141 23.2 23.2 0 0 1-.29-5.764l8.195 8.195a23.2 23.2 0 0 1-5.764-.29M22.96 22.96c-1.527 1.529-4.404 3.668-8.945 4.341l-9.316-9.316c.676-4.541 2.812-7.417 4.341-8.945s4.405-3.665 8.946-4.34l9.315 9.315c-.676 4.541-2.812 7.418-4.341 8.945m-2.609-11.311a.5.5 0 0 1 0 .706L18.206 14.5l1.146 1.145a.5.5 0 1 1-.707.707L17.5 15.208 15.207 17.5l1.147 1.146a.5.5 0 0 1-.708.708L14.5 18.206l-2.145 2.145a.5.5 0 1 1-.706-.706l2.145-2.145-1.146-1.145a.501.501 0 0 1 .707-.707l1.146 1.146 2.292-2.294-1.147-1.146a.5.5 0 1 1 .708-.708l1.145 1.146 2.146-2.144a.5.5 0 0 1 .706 0"/></svg>