<svg xmlns="http://www.w3.org/2000/svg" width="32" height="32" fill="none" viewBox="0 0 32 32"><path fill="#000" d="M26 23.5h-7a.5.5 0 0 0-.5.5v1.5a4 4 0 1 0 8 0V24a.5.5 0 0 0-.5-.5m-.5 2a3 3 0 0 1-6 0v-1h6zm-12.5-5H6a.5.5 0 0 0-.5.5v1.5a4 4 0 1 0 8 0V21a.5.5 0 0 0-.5-.5m-.5 2a3 3 0 1 1-6 0v-1h6zm-3-20c-1.227 0-2.509 1.219-3.515 3.344-1.674 3.533-2.25 8.756-.029 11.472a.5.5 0 0 0 .388.184h6.314a.5.5 0 0 0 .387-.184c2.224-2.716 1.645-7.938-.029-11.472C12.01 3.719 10.73 2.5 9.5 2.5m2.913 14H6.589c-1.725-2.375-1.224-7.01.3-10.227C7.699 4.563 8.699 3.5 9.5 3.5s1.803 1.063 2.613 2.773c1.523 3.217 2.025 7.852.3 10.227m6.93 4h6.313a.5.5 0 0 0 .388-.184c2.224-2.716 1.645-7.938-.029-11.472C25.01 6.719 23.728 5.5 22.5 5.5c-1.227 0-2.51 1.219-3.516 3.344-1.674 3.534-2.25 8.756-.029 11.472a.5.5 0 0 0 .388.184m.545-11.227c.81-1.71 1.81-2.773 2.612-2.773.803 0 1.801 1.063 2.611 2.773 1.524 3.217 2.025 7.852.3 10.227h-5.823c-1.725-2.375-1.224-7.01.3-10.227"/></svg>