<svg xmlns="http://www.w3.org/2000/svg" width="32" height="32" fill="none" viewBox="0 0 32 32"><path fill="#000" d="M9.5 11V5a.5.5 0 0 1 1 0v6a.5.5 0 0 1-1 0m17-6v23a.5.5 0 0 1-1 0v-6.5H19a.5.5 0 0 1-.5-.5c.046-2.356.344-4.7.889-6.993 1.184-4.902 3.401-8.176 6.413-9.467A.5.5 0 0 1 26.5 5m-1 .807C20.281 8.791 19.601 18.22 19.512 20.5H25.5zm-11-.89a.5.5 0 0 0-.988.165l1 5.958a4.5 4.5 0 1 1-9 0l1-5.958a.5.5 0 0 0-.987-.165l-1 6A1 1 0 0 0 4.5 11a5.507 5.507 0 0 0 5 5.476V28a.5.5 0 0 0 1 0V16.476a5.51 5.51 0 0 0 5-5.559z"/></svg>