<svg xmlns="http://www.w3.org/2000/svg" width="32" height="32" fill="none" viewBox="0 0 32 32"><path fill="#000" d="M28.375 6.394A1.48 1.48 0 0 0 27 5.5H5A1.5 1.5 0 0 0 3.89 8.01l.006.006 8.467 9.039a.5.5 0 0 1 .135.342V27a1.5 1.5 0 0 0 2.332 1.25l4-2.666a1.5 1.5 0 0 0 .669-1.25v-6.938a.5.5 0 0 1 .135-.342l8.472-9.045a1.48 1.48 0 0 0 .27-1.615m-1 .937-8.47 9.044a1.5 1.5 0 0 0-.405 1.026v6.937a.5.5 0 0 1-.222.416l-4 2.666A.5.5 0 0 1 13.5 27v-9.604a1.5 1.5 0 0 0-.405-1.026L4.631 7.334a.5.5 0 0 1 .37-.834h22a.5.5 0 0 1 .374.831"/></svg>