<svg xmlns="http://www.w3.org/2000/svg" width="32" height="32" fill="none" viewBox="0 0 32 32"><path fill="#000" d="M22 13.5h-3a.5.5 0 0 1 0-1h3a.5.5 0 0 1 0 1m-9-1h-1.5V11a.5.5 0 1 0-1 0v1.5H9a.5.5 0 0 0 0 1h1.5V15a.5.5 0 0 0 1 0v-1.5H13a.5.5 0 0 0 0-1m16.776 12.295a4 4 0 0 1-6.105.534l-.021-.023-5.114-5.806h-5.071l-5.114 5.805-.022.024a4 4 0 0 1-6.766-3.524l2.046-10.529A6.984 6.984 0 0 1 10.486 5.5H21.5a7.01 7.01 0 0 1 6.888 5.775l2.046 10.52a3.98 3.98 0 0 1-.658 3M21.5 18.5a6 6 0 0 0 0-12H10.488a5.99 5.99 0 0 0-5.895 4.959L2.545 21.988a3 3 0 0 0 2.435 3.466 3 3 0 0 0 2.625-.823l5.25-5.961a.5.5 0 0 1 .375-.17zm7.954 3.479-1.375-7.083A7.01 7.01 0 0 1 21.5 19.5h-1.625l4.52 5.133a3 3 0 0 0 5.065-2.654z"/></svg>