<svg xmlns="http://www.w3.org/2000/svg" width="32" height="32" fill="none" viewBox="0 0 32 32"><path fill="#000" d="M25 3.5h-9.586a1.5 1.5 0 0 0-1.06.439l-1.646 1.647L11.06 3.94a1.5 1.5 0 0 0-2.125 0l-3 3a1.5 1.5 0 0 0 0 2.125l1.65 1.643-1.646 1.647a1.5 1.5 0 0 0-.44 1.06V27A1.5 1.5 0 0 0 7 28.5h18a1.5 1.5 0 0 0 1.5-1.5V5A1.5 1.5 0 0 0 25 3.5M6.646 8.354a.5.5 0 0 1 0-.708l3-3a.5.5 0 0 1 .708 0L12 6.292 8.292 10zM25.5 27a.5.5 0 0 1-.5.5H7a.5.5 0 0 1-.5-.5V13.414a.5.5 0 0 1 .146-.353l2-2 4.414-4.414 2-2a.5.5 0 0 1 .354-.147H25a.5.5 0 0 1 .5.5zm-3-19a.5.5 0 0 1-.5.5h-5a.5.5 0 0 1 0-1h5a.5.5 0 0 1 .5.5m-.2 7.4-5.466 4.1 5.466 4.1a.5.5 0 1 1-.6.8L16 20.125 10.3 24.4a.5.5 0 0 1-.6-.8l5.466-4.1L9.7 15.4a.5.5 0 0 1 .6-.8l5.7 4.275 5.7-4.275a.5.5 0 1 1 .6.8"/></svg>