<svg xmlns="http://www.w3.org/2000/svg" width="32" height="32" fill="none" viewBox="0 0 32 32"><path fill="#000" d="m29.768 9.061-2.414-2.415a.5.5 0 0 0-.708.708l2.415 2.414a1.5 1.5 0 0 1 .439 1.06V21a1.5 1.5 0 1 1-3 0v-5a2.5 2.5 0 0 0-2.5-2.5h-2.5V7A2.5 2.5 0 0 0 19 4.5H9A2.5 2.5 0 0 0 6.5 7v19.5H4a.5.5 0 0 0 0 1h20a.5.5 0 0 0 0-1h-2.5v-12H24a1.5 1.5 0 0 1 1.5 1.5v5a2.5 2.5 0 0 0 5 0V10.829a2.48 2.48 0 0 0-.733-1.768M7.5 26.5V7A1.5 1.5 0 0 1 9 5.5h10A1.5 1.5 0 0 1 20.5 7v19.5zm10-12.5a.5.5 0 0 1-.5.5h-6a.5.5 0 0 1 0-1h6a.5.5 0 0 1 .5.5"/></svg>