<svg xmlns="http://www.w3.org/2000/svg" width="32" height="32" fill="none" viewBox="0 0 32 32"><path fill="#000" d="M25.529 10.438A13.42 13.42 0 0 0 15.953 6.5C8.535 6.526 2.5 12.645 2.5 20.141V23A1.5 1.5 0 0 0 4 24.5h24a1.5 1.5 0 0 0 1.5-1.5v-3a13.4 13.4 0 0 0-3.971-9.562M28.5 23a.5.5 0 0 1-.5.5H13.981l7.423-10.206a.5.5 0 1 0-.808-.588L12.75 23.5H4a.5.5 0 0 1-.5-.5v-2.859q0-.823.105-1.641H7a.5.5 0 0 0 0-1H3.776C4.95 11.958 9.73 7.741 15.5 7.511V11a.5.5 0 0 0 1 0V7.51a12.51 12.51 0 0 1 11.75 9.99H25a.5.5 0 0 0 0 1h3.411q.09.748.089 1.5z"/></svg>