<svg xmlns="http://www.w3.org/2000/svg" width="32" height="32" fill="none" viewBox="0 0 32 32"><path fill="#000" d="M16 10.5a5.5 5.5 0 1 0 5.5 5.5 5.506 5.506 0 0 0-5.5-5.5m0 10a4.5 4.5 0 1 1 0-9 4.5 4.5 0 0 1 0 9m13.25-7a.5.5 0 0 0-.25-.338l-3.861-2.2a4 4 0 0 0-.125-.202l-.002-4.36a.5.5 0 0 0-.177-.375 13.5 13.5 0 0 0-4.426-2.493.5.5 0 0 0-.404.037l-3.88 2.165h-.25L12 3.564a.5.5 0 0 0-.404-.038 13.5 13.5 0 0 0-4.423 2.5.5.5 0 0 0-.177.375l-.02 4.363-.125.202-3.863 2.196a.5.5 0 0 0-.238.338 12.85 12.85 0 0 0 0 5 .5.5 0 0 0 .244.337l3.861 2.2q.059.104.125.203l.015 4.359a.5.5 0 0 0 .178.375 13.5 13.5 0 0 0 4.426 2.492.5.5 0 0 0 .403-.036l3.873-2.164h.25L20 28.436a.5.5 0 0 0 .404.038 13.5 13.5 0 0 0 4.424-2.5.5.5 0 0 0 .176-.375l.02-4.363.125-.202 3.863-2.197a.5.5 0 0 0 .25-.338c.324-1.651.32-3.35-.012-5m-.935 4.584-3.777 2.146a.5.5 0 0 0-.19.191q-.113.204-.238.405a.5.5 0 0 0-.076.263l-.02 4.268a12.5 12.5 0 0 1-3.713 2.097l-3.8-2.125a.5.5 0 0 0-.25-.064h-.481a.5.5 0 0 0-.256.064l-3.806 2.125a12.5 12.5 0 0 1-3.722-2.092l-.015-4.265a.5.5 0 0 0-.076-.263 7 7 0 0 1-.239-.404.5.5 0 0 0-.188-.191l-3.782-2.154a11.9 11.9 0 0 1 0-4.168l3.777-2.147a.5.5 0 0 0 .188-.191q.116-.206.239-.404a.5.5 0 0 0 .076-.264l.02-4.269A12.5 12.5 0 0 1 11.7 4.546l3.8 2.125a.5.5 0 0 0 .256.064h.48a.5.5 0 0 0 .256-.064l3.807-2.125c1.349.48 2.606 1.187 3.716 2.091l.015 4.265c0 .094.026.185.076.264.082.125.162.268.239.404a.5.5 0 0 0 .188.191l3.782 2.154c.247 1.378.248 2.789.003 4.167z"/></svg>