<svg xmlns="http://www.w3.org/2000/svg" width="32" height="32" fill="none" viewBox="0 0 32 32"><path fill="#000" d="M16 10.5a5.5 5.5 0 1 0 0 11 5.5 5.5 0 0 0 0-11m0 10a4.5 4.5 0 1 1 0-9 4.5 4.5 0 0 1 0 9m10.491-4.061q.017-.439 0-.875l1.98-2.474a.5.5 0 0 0 .093-.441 13 13 0 0 0-1.314-3.161.5.5 0 0 0-.375-.25l-3.149-.35a11 11 0 0 0-.618-.62l-.35-3.143a.5.5 0 0 0-.25-.375 13 13 0 0 0-3.155-1.312.5.5 0 0 0-.442.092L16.44 5.51a11 11 0 0 0-.875 0L13.088 3.53a.5.5 0 0 0-.442-.094A13 13 0 0 0 9.488 4.75a.5.5 0 0 0-.25.375l-.35 3.149a11 11 0 0 0-.62.619l-3.143.348a.5.5 0 0 0-.375.25 13 13 0 0 0-1.312 3.157.5.5 0 0 0 .092.44l1.979 2.473q-.018.439 0 .875L3.53 18.913a.5.5 0 0 0-.094.44 13 13 0 0 0 1.314 3.16.5.5 0 0 0 .375.25l3.149.35q.297.32.619.618l.35 3.15a.5.5 0 0 0 .25.375 13 13 0 0 0 3.16 1.308.5.5 0 0 0 .44-.093l2.473-1.978q.44.015.875 0l2.474 1.978a.5.5 0 0 0 .438.094 13 13 0 0 0 3.16-1.315.5.5 0 0 0 .25-.375l.35-3.149q.32-.297.618-.618l3.15-.35a.5.5 0 0 0 .375-.25 13 13 0 0 0 1.308-3.16.5.5 0 0 0-.093-.442zm.022 5.354-3.084.342a.5.5 0 0 0-.319.165 10 10 0 0 1-.81.81.5.5 0 0 0-.165.319l-.342 3.082c-.778.43-1.602.772-2.455 1.02l-2.423-1.94a.5.5 0 0 0-.312-.108h-.03a9 9 0 0 1-1.145 0 .5.5 0 0 0-.343.108l-2.421 1.938a12 12 0 0 1-2.456-1.016l-.343-3.084a.5.5 0 0 0-.165-.319 10 10 0 0 1-.81-.81.5.5 0 0 0-.319-.165l-3.082-.342a12 12 0 0 1-1.019-2.455l1.939-2.423a.5.5 0 0 0 .109-.342 10 10 0 0 1 0-1.145.5.5 0 0 0-.11-.343l-1.937-2.421c.246-.854.587-1.678 1.017-2.456l3.083-.343a.5.5 0 0 0 .32-.165q.38-.429.81-.81a.5.5 0 0 0 .164-.319l.343-3.082c.777-.43 1.6-.772 2.455-1.019l2.422 1.939a.5.5 0 0 0 .343.109 9 9 0 0 1 1.145 0 .5.5 0 0 0 .342-.11l2.421-1.937c.854.246 1.678.587 2.457 1.017l.342 3.083a.5.5 0 0 0 .165.32q.43.38.81.81a.5.5 0 0 0 .319.164l3.082.343c.43.777.772 1.6 1.02 2.455l-1.94 2.422a.5.5 0 0 0-.108.343 10 10 0 0 1 0 1.145.5.5 0 0 0 .108.342l1.938 2.421a12 12 0 0 1-1.016 2.457"/></svg>