<svg xmlns="http://www.w3.org/2000/svg" width="32" height="32" fill="none" viewBox="0 0 32 32"><path fill="#000" d="M29 15.5h-2.512a10.4 10.4 0 0 0-1.16-4.309l2.18-1.259a.5.5 0 0 0-.5-.864l-2.18 1.258a10.6 10.6 0 0 0-3.154-3.153l1.259-2.182a.5.5 0 0 0-.866-.5l-1.258 2.18A10.4 10.4 0 0 0 16.5 5.513V3a.5.5 0 0 0-1 0v2.513a10.4 10.4 0 0 0-4.309 1.158l-1.259-2.18a.5.5 0 0 0-.864.5l1.258 2.182a10.6 10.6 0 0 0-3.153 3.153L4.99 9.068a.5.5 0 1 0-.5.864l2.18 1.26A10.4 10.4 0 0 0 5.513 15.5H3a.5.5 0 0 0 0 1h2.513a10.4 10.4 0 0 0 1.158 4.309l-2.18 1.258a.5.5 0 0 0 .5.866l2.182-1.26a10.6 10.6 0 0 0 3.153 3.155l-1.258 2.18a.5.5 0 0 0 .864.5l1.26-2.18a10.4 10.4 0 0 0 4.308 1.16V29a.5.5 0 0 0 1 0v-2.512a10.4 10.4 0 0 0 4.309-1.16l1.258 2.18a.5.5 0 0 0 .866-.5l-1.26-2.18a10.6 10.6 0 0 0 3.155-3.154l2.18 1.259a.5.5 0 0 0 .5-.865l-2.18-1.26a10.4 10.4 0 0 0 1.16-4.308H29a.5.5 0 0 0 0-1m-13-9a9.51 9.51 0 0 1 9.486 9H16.29L11.69 7.538A9.45 9.45 0 0 1 16 6.5M6.5 16a9.5 9.5 0 0 1 4.326-7.961L15.422 16l-4.596 7.961A9.5 9.5 0 0 1 6.5 16m9.5 9.5a9.45 9.45 0 0 1-4.309-1.038L16.29 16.5h9.197a9.51 9.51 0 0 1-9.486 9"/></svg>