<svg xmlns="http://www.w3.org/2000/svg" width="32" height="32" fill="none" viewBox="0 0 32 32"><path fill="#000" d="M13.5 14.5a1 1 0 1 1-2 0 1 1 0 0 1 2 0m6-1a1 1 0 1 0 0 2 1 1 0 0 0 0-2m8 1.5v12a.5.5 0 0 1-.816.387l-3.35-2.74-3.35 2.74a.5.5 0 0 1-.634 0L16 24.648l-3.35 2.74a.5.5 0 0 1-.634 0l-3.35-2.74-3.35 2.74A.5.5 0 0 1 4.5 27V15a11.5 11.5 0 1 1 23 0m-1 0a10.5 10.5 0 1 0-21 0v10.945l2.85-2.332a.5.5 0 0 1 .634 0l3.35 2.74 3.35-2.74a.5.5 0 0 1 .632 0l3.35 2.74 3.35-2.74a.5.5 0 0 1 .634 0l2.85 2.332z"/></svg>