<svg xmlns="http://www.w3.org/2000/svg" width="32" height="32" fill="none" viewBox="0 0 32 32"><path fill="#000" d="M27 9.5h-6.149a6.3 6.3 0 0 0 1.579-1 3.2 3.2 0 0 0 1.07-2.32 3.576 3.576 0 0 0-3.68-3.68 3.2 3.2 0 0 0-2.32 1.07c-.739.834-1.204 1.92-1.5 2.961-.294-1.04-.759-2.125-1.5-2.96A3.2 3.2 0 0 0 12.18 2.5 3.58 3.58 0 0 0 8.5 6.18 3.2 3.2 0 0 0 9.57 8.5c.474.41 1.006.747 1.579 1H5A1.5 1.5 0 0 0 3.5 11v4A1.5 1.5 0 0 0 5 16.5h.5V25A1.5 1.5 0 0 0 7 26.5h18a1.5 1.5 0 0 0 1.5-1.5v-8.5h.5a1.5 1.5 0 0 0 1.5-1.5v-4A1.5 1.5 0 0 0 27 9.5m-8.75-5.267a2.2 2.2 0 0 1 1.6-.733h.076A2.577 2.577 0 0 1 22.5 6.15a2.2 2.2 0 0 1-.733 1.6c-1.51 1.338-4.133 1.651-5.25 1.724.078-1.108.39-3.724 1.733-5.241M9.5 6.15a2.58 2.58 0 0 1 2.574-2.65h.076a2.2 2.2 0 0 1 1.6.733c1.339 1.51 1.651 4.133 1.724 5.25-1.111-.073-3.734-.387-5.25-1.724A2.2 2.2 0 0 1 9.5 6.15M4.5 15v-4a.5.5 0 0 1 .5-.5h10.5v5H5a.5.5 0 0 1-.5-.5m2 10v-8.5h9v9H7a.5.5 0 0 1-.5-.5m19 0a.5.5 0 0 1-.5.5h-8.5v-9h9zm2-10a.5.5 0 0 1-.5.5H16.5v-5H27a.5.5 0 0 1 .5.5z"/></svg>