<svg xmlns="http://www.w3.org/2000/svg" width="32" height="32" fill="none" viewBox="0 0 32 32"><path fill="#000" d="M12.5 8a3.5 3.5 0 1 0-4 3.464v9.072a3.5 3.5 0 1 0 1 0v-9.072A3.5 3.5 0 0 0 12.5 8m-6 0a2.5 2.5 0 1 1 5 0 2.5 2.5 0 0 1-5 0m5 16a2.5 2.5 0 1 1-5 0 2.5 2.5 0 0 1 5 0m14-3.464v-5.051a6.46 6.46 0 0 0-1.904-4.596L19.207 6.5H24a.5.5 0 0 0 0-1h-6a.5.5 0 0 0-.5.5v6a.5.5 0 1 0 1 0V7.207l4.389 4.39a5.47 5.47 0 0 1 1.611 3.888v5.051a3.5 3.5 0 1 0 1 0M25 26.5a2.5 2.5 0 1 1 0-5 2.5 2.5 0 0 1 0 5"/></svg>