<svg xmlns="http://www.w3.org/2000/svg" width="32" height="32" fill="none" viewBox="0 0 32 32"><path fill="#000" d="M14 19.5a.5.5 0 0 0-.5.5v4.793l-4.389-4.39A5.46 5.46 0 0 1 7.5 16.516v-5.051a3.5 3.5 0 1 0-1 0v5.051a6.46 6.46 0 0 0 1.904 4.596l4.389 4.389H8a.5.5 0 0 0 0 1h6a.5.5 0 0 0 .5-.5v-6a.5.5 0 0 0-.5-.5M4.5 8a2.5 2.5 0 1 1 5 0 2.5 2.5 0 0 1-5 0m21 12.536v-5.051a6.46 6.46 0 0 0-1.904-4.596L19.207 6.5H24a.5.5 0 0 0 0-1h-6a.5.5 0 0 0-.5.5v6a.5.5 0 1 0 1 0V7.207l4.389 4.39a5.47 5.47 0 0 1 1.611 3.888v5.051a3.5 3.5 0 1 0 1 0M25 26.5a2.5 2.5 0 1 1 0-5 2.5 2.5 0 0 1 0 5"/></svg>