<svg xmlns="http://www.w3.org/2000/svg" width="32" height="32" fill="none" viewBox="0 0 32 32"><path fill="#000" d="M25.493 9.52a6.97 6.97 0 0 0-.56-5.77.5.5 0 0 0-.433-.25 6.97 6.97 0 0 0-5.75 3h-3.5a6.97 6.97 0 0 0-5.75-3 .5.5 0 0 0-.432.25 6.97 6.97 0 0 0-.56 5.77A6.7 6.7 0 0 0 7.5 13v1a6.507 6.507 0 0 0 6.5 6.5h.176A4.5 4.5 0 0 0 12.5 24v1.5H9A3.5 3.5 0 0 1 5.5 22 4.5 4.5 0 0 0 1 17.5a.5.5 0 0 0 0 1A3.5 3.5 0 0 1 4.5 22 4.5 4.5 0 0 0 9 26.5h3.5V29a.5.5 0 0 0 1 0v-5a3.5 3.5 0 1 1 7 0v5a.5.5 0 0 0 1 0v-5a4.5 4.5 0 0 0-1.676-3.5H20a6.507 6.507 0 0 0 6.5-6.5v-1a6.7 6.7 0 0 0-1.008-3.48M25.5 14a5.506 5.506 0 0 1-5.5 5.5h-6A5.506 5.506 0 0 1 8.5 14v-1a5.7 5.7 0 0 1 .964-3.111.5.5 0 0 0 .066-.48 5.98 5.98 0 0 1 .263-4.901 5.98 5.98 0 0 1 4.765 2.762.5.5 0 0 0 .42.23h4.043a.5.5 0 0 0 .421-.23 5.98 5.98 0 0 1 4.765-2.762 5.98 5.98 0 0 1 .263 4.9.5.5 0 0 0 .066.48A5.73 5.73 0 0 1 25.5 13z"/></svg>