<svg xmlns="http://www.w3.org/2000/svg" width="32" height="32" fill="none" viewBox="0 0 32 32"><path fill="#000" d="M28.284 14.764 25.798 5.25a.993.993 0 0 0-1.895-.094L21.57 11.5H10.43L8.098 5.155a.992.992 0 0 0-1.895.095l-2.487 9.514a6.645 6.645 0 0 0 2.555 7.085l9.159 6.47a.99.99 0 0 0 1.14 0l9.159-6.47a6.645 6.645 0 0 0 2.555-7.085m-3.131 6.267L16 27.5l-9.152-6.469a5.64 5.64 0 0 1-2.164-6.013l2.48-9.5 2.447 6.655a.5.5 0 0 0 .469.327h11.84a.5.5 0 0 0 .469-.328l2.446-6.652 2.481 9.5a5.64 5.64 0 0 1-2.163 6.011"/></svg>