<svg xmlns="http://www.w3.org/2000/svg" width="32" height="32" fill="none" viewBox="0 0 32 32"><path fill="#000" d="M28.284 14.764 25.798 5.25a.993.993 0 0 0-1.895-.094L21.57 11.5H10.43L8.098 5.155a.992.992 0 0 0-1.895.095l-2.487 9.514a6.645 6.645 0 0 0 2.555 7.085l9.159 6.47a.99.99 0 0 0 1.14 0l9.159-6.47a6.645 6.645 0 0 0 2.555-7.085M7.159 5.514l2.452 6.658a.5.5 0 0 0 .469.328h11.84a.5.5 0 0 0 .469-.328l2.446-6.652 2.125 8.125L16 21.389 5.041 13.646zm-2.48 9.5.087-.338L15.134 22l-3.458 2.442-4.828-3.41a5.64 5.64 0 0 1-2.164-6.014zM16 27.5l-3.457-2.442L16 22.613l3.457 2.442zm9.153-6.466-4.83 3.411L16.867 22l10.363-7.32.087.338a5.64 5.64 0 0 1-2.163 6.013z"/></svg>