<svg xmlns="http://www.w3.org/2000/svg" width="32" height="32" fill="none" viewBox="0 0 32 32"><path fill="#000" d="M16 3.5A12.5 12.5 0 1 0 28.5 16 12.514 12.514 0 0 0 16 3.5m10.955 16h-5.769a19.7 19.7 0 0 0 0-7h5.769a11.5 11.5 0 0 1 0 7M16 27.5a.47.47 0 0 1-.348-.154c-1.706-1.837-2.94-4.215-3.6-6.846h7.897c-.662 2.631-1.895 5.009-3.602 6.846A.47.47 0 0 1 16 27.5m-4.169-8a18.7 18.7 0 0 1 0-7h8.338a18.7 18.7 0 0 1 0 7zM16 4.5a.47.47 0 0 1 .348.154c1.706 1.837 2.94 4.221 3.6 6.846h-7.897c.662-2.625 1.895-5.009 3.601-6.846A.47.47 0 0 1 16 4.5m10.583 7h-5.607c-.613-2.591-1.75-4.965-3.332-6.882a11.54 11.54 0 0 1 8.939 6.882M14.356 4.618c-1.578 1.917-2.719 4.29-3.332 6.882H5.418a11.54 11.54 0 0 1 8.938-6.882M5.045 12.5h5.769a19.7 19.7 0 0 0 0 7H5.045a11.5 11.5 0 0 1 0-7m.375 8h5.604c.614 2.591 1.75 4.965 3.332 6.883A11.54 11.54 0 0 1 5.418 20.5zm12.226 6.883c1.579-1.918 2.719-4.292 3.333-6.883h5.606a11.54 11.54 0 0 1-8.941 6.883z"/></svg>