<svg xmlns="http://www.w3.org/2000/svg" width="32" height="32" fill="none" viewBox="0 0 32 32"><path fill="#000" d="M16 3.5A12.5 12.5 0 1 0 28.5 16 12.514 12.514 0 0 0 16 3.5M27.5 16a11.4 11.4 0 0 1-1.073 4.845l-6.077-3.739a1.5 1.5 0 0 0-.585-.209l-2.852-.383a1.5 1.5 0 0 0-1.57.875l-.05.11h-1.4a.5.5 0 0 1-.45-.283l-.476-.982a1.5 1.5 0 0 0-1.035-.813l-1.673-.358 1.325-2.313a.5.5 0 0 1 .434-.25h2.088a1.5 1.5 0 0 0 .725-.187l1.53-.846q.153-.083.281-.2l3.364-3.042a1.5 1.5 0 0 0 .304-1.844l-.732-1.311A11.52 11.52 0 0 1 27.5 16M18.236 4.719l1.2 2.15a.5.5 0 0 1-.101.615l-3.364 3.042a.6.6 0 0 1-.094.066l-1.53.845a.5.5 0 0 1-.24.063h-2.09a1.5 1.5 0 0 0-1.3.75l-1.483 2.588a.5.5 0 0 1-.344-.31L7.454 10.7a.5.5 0 0 1 .007-.375l1.414-3.349A11.44 11.44 0 0 1 16 4.5c.75 0 1.5.073 2.236.219M4.5 16A11.44 11.44 0 0 1 7 8.846L6.536 9.94a1.5 1.5 0 0 0-.022 1.11l1.436 3.834a1.49 1.49 0 0 0 1.09.94l2.679.576a.5.5 0 0 1 .345.271l.475.983a1.51 1.51 0 0 0 1.35.846h.955l-1.219 2.731a1.5 1.5 0 0 0 .283 1.644l2.46 2.532a.5.5 0 0 1 .125.434L16.17 27.5H16A11.513 11.513 0 0 1 4.5 16m12.7 11.438.273-1.412a1.51 1.51 0 0 0-.375-1.311l-2.46-2.532a.5.5 0 0 1-.09-.544l1.713-3.843a.5.5 0 0 1 .523-.291l2.852.384q.106.015.195.07l6.139 3.775a11.51 11.51 0 0 1-8.77 5.703"/></svg>