<svg xmlns="http://www.w3.org/2000/svg" width="32" height="32" fill="none" viewBox="0 0 32 32"><path fill="#000" d="M16 3.5A12.5 12.5 0 1 0 28.5 16 12.514 12.514 0 0 0 16 3.5m11.489 12h-6c-.104-4.116-1.485-8.011-3.849-10.882A11.52 11.52 0 0 1 27.489 15.5M16 27.5a.47.47 0 0 1-.348-.154c-2.538-2.733-4.027-6.663-4.144-10.846h8.985c-.112 4.183-1.607 8.113-4.145 10.846A.47.47 0 0 1 16 27.5m-4.492-12c.11-4.182 1.606-8.113 4.145-10.846a.47.47 0 0 1 .694 0c2.54 2.734 4.034 6.664 4.145 10.846zm2.848-10.882c-2.363 2.874-3.75 6.766-3.848 10.882h-6a11.52 11.52 0 0 1 9.848-10.882M4.511 16.5h6c.104 4.116 1.485 8.011 3.849 10.883A11.52 11.52 0 0 1 4.511 16.5m13.133 10.883c2.364-2.875 3.75-6.767 3.849-10.883h6a11.52 11.52 0 0 1-9.85 10.883"/></svg>