<svg xmlns="http://www.w3.org/2000/svg" width="32" height="32" fill="none" viewBox="0 0 32 32"><path fill="#000" d="M29.274 19.233 20.718 5.205a1.49 1.49 0 0 0-1.273-.705h-6.891a1.49 1.49 0 0 0-1.271.705L2.729 19.227a1.5 1.5 0 0 0-.032 1.54l3.417 5.983a1.5 1.5 0 0 0 1.301.75h17.169a1.5 1.5 0 0 0 1.302-.75l3.415-5.976a1.5 1.5 0 0 0-.027-1.541m-1.008.267h-6.984l-4.7-7.834 3.424-5.706zm-16.383 0L16 12.639l4.116 6.861zm8.833 1 3.6 6H7.684l3.599-6zM16 10.695 12.883 5.5h6.233zM11.992 5.96l3.424 5.706-4.699 7.834H3.734zM3.698 20.5h6.42L6.83 25.981zm21.474 5.481L21.883 20.5h6.42z"/></svg>