<svg xmlns="http://www.w3.org/2000/svg" width="32" height="32" fill="none" viewBox="0 0 32 32"><path fill="#000" d="M16 3.5A12.5 12.5 0 1 0 28.5 16 12.514 12.514 0 0 0 16 3.5m0 1a11.51 11.51 0 0 1 10.098 6H16a5.506 5.506 0 0 0-5.477 5.014L6.813 9.09A11.49 11.49 0 0 1 16 4.5m0 16a4.5 4.5 0 1 1 0-9 4.5 4.5 0 0 1 0 9M4.5 16a11.44 11.44 0 0 1 1.689-5.994l5.049 8.744c0 .011.013.021.02.032a5.49 5.49 0 0 0 7.06 2.204l-3.713 6.429A11.516 11.516 0 0 1 4.5 16M16 27.5h-.286l5.048-8.75.012-.025a5.487 5.487 0 0 0-1.618-7.225h7.427A11.5 11.5 0 0 1 16 27.5"/></svg>