<svg xmlns="http://www.w3.org/2000/svg" width="32" height="32" fill="none" viewBox="0 0 32 32"><path fill="#000" d="M3.5 13a.5.5 0 0 1 .5-.5h10a.5.5 0 0 1 0 1H4a.5.5 0 0 1-.5-.5m24.5-.5H18a.5.5 0 0 0 0 1h10a.5.5 0 0 0 0-1m-19 5H4a.5.5 0 0 0 0 1h5a.5.5 0 0 0 0-1m19 0h-5a.5.5 0 0 0 0 1h5a.5.5 0 0 0 0-1m-15.5.5a.5.5 0 0 0 .5.5h6a.5.5 0 0 0 0-1h-6a.5.5 0 0 0-.5.5M7 22.5H4a.5.5 0 0 0 0 1h3a.5.5 0 0 0 0-1m7 0h-3a.5.5 0 0 0 0 1h3a.5.5 0 0 0 0-1m7 0h-3a.5.5 0 0 0 0 1h3a.5.5 0 0 0 0-1m7 0h-3a.5.5 0 0 0 0 1h3a.5.5 0 0 0 0-1M4 8.5h24a.5.5 0 0 0 0-1H4a.5.5 0 1 0 0 1"/></svg>