<svg xmlns="http://www.w3.org/2000/svg" width="32" height="32" fill="none" viewBox="0 0 32 32"><path fill="#000" d="M6.375 4.664a.504.504 0 1 0-.75.672l2.101 2.305A10.6 10.6 0 0 0 6 7.5a.5.5 0 0 0-.5.5v10A10.51 10.51 0 0 0 16 28.5a10.48 10.48 0 0 0 7.666-3.325l1.959 2.161a.499.499 0 1 0 .74-.672zM8.924 8.96l8.757 9.633c-.741.964-1.31 2.05-1.681 3.208a10.52 10.52 0 0 0-9.5-7.288v-6a9.5 9.5 0 0 1 2.424.447M15.5 27.488A9.514 9.514 0 0 1 6.5 18v-2.488a9.513 9.513 0 0 1 9 9.488zm1 0V25a9.5 9.5 0 0 1 1.867-5.652l4.625 5.085a9.48 9.48 0 0 1-6.492 3.055M26.5 18c0 .943-.126 1.883-.375 2.793a.5.5 0 0 1-.965-.265A9.5 9.5 0 0 0 25.5 18v-2.488a9.4 9.4 0 0 0-3.796 1.013.502.502 0 0 1-.725-.408.5.5 0 0 1 .272-.485 10.4 10.4 0 0 1 4.25-1.124v-6a9.54 9.54 0 0 0-7.199 3.918.498.498 0 0 1-.835-.027.5.5 0 0 1 .026-.559 10.5 10.5 0 0 1 3.375-3C19.61 5.816 16.81 4.035 16 3.57a13 13 0 0 0-3.306 2.75.501.501 0 0 1-.764-.646 13.5 13.5 0 0 1 3.846-3.125.5.5 0 0 1 .448 0c.165.082 3.913 2 5.541 5.843A10.5 10.5 0 0 1 26 7.5a.5.5 0 0 1 .5.5z"/></svg>