<svg xmlns="http://www.w3.org/2000/svg" width="32" height="32" fill="none" viewBox="0 0 32 32"><path fill="#000" d="M26 7.5c-1.459 0-2.901.304-4.235.895-1.625-3.847-5.375-5.76-5.541-5.842a.5.5 0 0 0-.448 0c-.165.082-3.912 2-5.541 5.842A10.4 10.4 0 0 0 6 7.5a.5.5 0 0 0-.5.5v10a10.5 10.5 0 1 0 21 0V8a.5.5 0 0 0-.5-.5M15.5 27.488A9.514 9.514 0 0 1 6.5 18v-2.487a9.514 9.514 0 0 1 9 9.487zm0-6.954a10.51 10.51 0 0 0-9-6.021v-6a9.514 9.514 0 0 1 9 9.487zm-4.369-11.69c1.259-3.028 4.058-4.809 4.875-5.274.811.465 3.61 2.25 4.869 5.274A10.55 10.55 0 0 0 16 14.8a10.55 10.55 0 0 0-4.869-5.957M25.5 18a9.514 9.514 0 0 1-9 9.488V25a9.514 9.514 0 0 1 9-9.487zm0-3.487a10.52 10.52 0 0 0-9 6.02V18a9.514 9.514 0 0 1 9-9.487z"/></svg>