<svg xmlns="http://www.w3.org/2000/svg" width="32" height="32" fill="none" viewBox="0 0 32 32"><path fill="#000" d="M25 19.5c-.905 0-1.775.35-2.425.98l-3.535-2.75a3.47 3.47 0 0 0 .404-2.355l2.431-.806a3.508 3.508 0 1 0-.316-.948l-2.434.81a3.5 3.5 0 0 0-4.075-1.798L13.863 9.96a3.5 3.5 0 1 0-.913.406l1.188 2.672a3.493 3.493 0 0 0-1.058 4.887l-3.83 3.4a3.5 3.5 0 1 0 .665.75l3.825-3.4a3.49 3.49 0 0 0 4.68-.153l3.535 2.75A3.5 3.5 0 1 0 25 19.5m0-9a2.5 2.5 0 1 1 0 5 2.5 2.5 0 0 1 0-5M9.5 7a2.5 2.5 0 1 1 5 0 2.5 2.5 0 0 1-5 0M7 26.5a2.5 2.5 0 1 1 0-5 2.5 2.5 0 0 1 0 5m9-8a2.5 2.5 0 1 1 0-5 2.5 2.5 0 0 1 0 5m9 7a2.5 2.5 0 1 1 0-5 2.5 2.5 0 0 1 0 5"/></svg>