<svg xmlns="http://www.w3.org/2000/svg" width="32" height="32" fill="none" viewBox="0 0 32 32"><path fill="#000" d="M6.009 12.5H25.99a1.5 1.5 0 0 0 1.475-1.819c-.424-2-1.82-3.835-3.932-5.153C21.42 4.208 18.764 3.5 16 3.5s-5.439.72-7.534 2.027-3.508 3.15-3.932 5.154A1.5 1.5 0 0 0 6.009 12.5m-.5-1.611C6.282 7.25 10.79 4.5 16 4.5s9.718 2.75 10.489 6.389a.5.5 0 0 1-.103.424.5.5 0 0 1-.395.187H6.01a.5.5 0 0 1-.395-.187.5.5 0 0 1-.103-.424zm23.317 8.641-5.32 1.935-4.822-1.929a.5.5 0 0 0-.375 0L13.5 21.461l-4.814-1.925a.5.5 0 0 0-.357 0l-5.5 2A.5.5 0 0 0 3 22.5a.5.5 0 0 0 .171-.03l2.329-.845V23a4.5 4.5 0 0 0 4.5 4.5h12a4.5 4.5 0 0 0 4.5-4.5v-1.559l2.671-.971a.5.5 0 1 0-.342-.94zM25.5 23a3.5 3.5 0 0 1-3.5 3.5H10A3.5 3.5 0 0 1 6.5 23v-1.741l1.991-.724 4.823 1.929a.5.5 0 0 0 .375 0l4.811-1.925 4.814 1.925a.5.5 0 0 0 .357 0l1.829-.659zm-23-7a.5.5 0 0 1 .5-.5h26a.5.5 0 0 1 0 1H3a.5.5 0 0 1-.5-.5"/></svg>