<svg xmlns="http://www.w3.org/2000/svg" width="32" height="32" fill="none" viewBox="0 0 32 32"><path fill="#000" d="M31.063 14.351 22.63 5.862a11.51 11.51 0 0 0-16.269.013L4.64 7.647a.5.5 0 1 0 .719.695L7.075 6.57a10.5 10.5 0 0 1 2.792-2L16.293 11 3.939 23.352a1.5 1.5 0 0 0 0 2.125l2.586 2.583a1.5 1.5 0 0 0 2.125 0L21 15.704l2.146 2.147 2.208 2.208a1.5 1.5 0 0 0 2.125 0l3.586-3.587a1.5 1.5 0 0 0-.003-2.12m-23.126 13a.5.5 0 0 1-.707 0l-2.584-2.584a.5.5 0 0 1 0-.707l8.854-8.856 3.293 3.296zm12.71-12.707L17.5 17.79l-3.294-3.29 3.148-3.15a.5.5 0 0 0 0-.708l-6.5-6.5a10.51 10.51 0 0 1 11.065 2.423l5.875 5.919L23.5 16.79l-2.146-2.146a.5.5 0 0 0-.708 0m9.707 1.125-3.585 3.586a.5.5 0 0 1-.708 0L24.207 17.5l4.3-4.3 1.847 1.86a.5.5 0 0 1 0 .705z"/></svg>