<svg xmlns="http://www.w3.org/2000/svg" width="32" height="32" fill="none" viewBox="0 0 32 32"><path fill="#000" d="M23.518 3.875a.5.5 0 0 1 .612-.354c1.859.5 3.387 1.646 4.303 3.233a.499.499 0 1 1-.866.5c-.782-1.359-2.096-2.342-3.692-2.772a.5.5 0 0 1-.358-.607M9.637 28.608c-1.224-.966-2.243-2.192-3.205-3.858a.5.5 0 0 0-.865.5c1.027 1.78 2.125 3.096 3.45 4.142a.5.5 0 1 0 .62-.784m18.5-7.892a10.51 10.51 0 0 1-10.126 7.787 10.6 10.6 0 0 1-2.733-.363 10.43 10.43 0 0 1-6.375-4.891l-4.75-8.228a3 3 0 0 1 3.212-4.436l-.881-1.528a3 3 0 0 1 5.075-3.182 3 3 0 0 1 5.451-.58l2.385 4.125a3 3 0 0 1 5.445-.568l2.25 3.898a10.43 10.43 0 0 1 1.049 7.966zm-1.913-7.466-2.25-3.898a2 2 0 1 0-3.464 2l1.25 2.165a.5.5 0 0 1-.182.684 4.5 4.5 0 0 0-1.648 6.147.5.5 0 0 1-.866.5 5.51 5.51 0 0 1 1.591-7.25l-4.511-7.81a2 2 0 0 0-3.464 2l3.25 5.626a.5.5 0 0 1-.866.5l-4.25-7.362a2 2 0 1 0-3.464 2l4.75 8.227a.502.502 0 0 1-.562.733.5.5 0 0 1-.304-.233l-2.75-4.763a2 2 0 1 0-3.464 2l4.75 8.228a9.5 9.5 0 1 0 16.454-9.494"/></svg>