<svg xmlns="http://www.w3.org/2000/svg" width="32" height="32" fill="none" viewBox="0 0 32 32"><path fill="#000" d="M23.5 6.5c-.738 0-1.451.272-2 .766V5.5a3 3 0 0 0-5.991-.225 3 3 0 0 0-5.01 2.225v9.75l-1.405-2.258a3 3 0 0 0-5.203 2.99C8.055 26.766 10.271 29.5 16 29.5A10.51 10.51 0 0 0 26.5 19V9.5a3 3 0 0 0-3-3m2 12.5a9.51 9.51 0 0 1-9.5 9.5c-4.661 0-6.699-1.439-11.214-10.964l-.019-.036a2 2 0 0 1 3.473-1.985l2.335 3.75A.5.5 0 0 0 11.5 19V7.5a2 2 0 0 1 4 0V15a.5.5 0 1 0 1 0V5.5a2 2 0 0 1 4 0V15a.5.5 0 1 0 1 0V9.5a2 2 0 0 1 4 0z"/></svg>