<svg xmlns="http://www.w3.org/2000/svg" width="32" height="32" fill="none" viewBox="0 0 32 32"><path fill="#000" d="M25 10.5h-2.5V8A3.5 3.5 0 0 0 16 6.199 3.5 3.5 0 0 0 9.5 8v.554A3.5 3.5 0 0 0 3.5 11v5a12.5 12.5 0 1 0 25 0v-2a3.5 3.5 0 0 0-3.5-3.5m-6-5A2.5 2.5 0 0 1 21.5 8v2.5H17c-.17 0-.34.03-.5.088V8A2.5 2.5 0 0 1 19 5.5M10.5 8a2.5 2.5 0 0 1 5 0v5a2.5 2.5 0 0 1-5 0zm-6 3a2.5 2.5 0 0 1 5 0v2a2.5 2.5 0 0 1-5 0zm23 5a11.5 11.5 0 1 1-23 0v-.553a3.5 3.5 0 0 0 5.5-.646 3.5 3.5 0 0 0 5.716.404 3.51 3.51 0 0 0 2.324 2.161A5.5 5.5 0 0 0 15.5 22a.5.5 0 0 0 1 0 4.5 4.5 0 0 1 4.5-4.5.5.5 0 0 0 0-1h-2a2.5 2.5 0 0 1-2.5-2.5v-2a.5.5 0 0 1 .5-.5h8a2.5 2.5 0 0 1 2.5 2.5z"/></svg>