<svg xmlns="http://www.w3.org/2000/svg" width="32" height="32" fill="none" viewBox="0 0 32 32"><path fill="#000" d="M22.5 12.529V11A3.5 3.5 0 0 0 19 7.5h-2.5v-4H21A1.5 1.5 0 0 1 22.5 5a.5.5 0 0 0 1 0A2.5 2.5 0 0 0 21 2.5h-8a.5.5 0 0 0 0 1h2.5v4H13A3.5 3.5 0 0 0 9.5 11v1.529A4.5 4.5 0 0 0 5.5 17v10A1.5 1.5 0 0 0 7 28.5h18a1.5 1.5 0 0 0 1.5-1.5V17a4.5 4.5 0 0 0-4-4.471M13 8.5h6a2.5 2.5 0 0 1 2.5 2.5v1.5h-11V11A2.5 2.5 0 0 1 13 8.5M25.5 27a.5.5 0 0 1-.5.5H7a.5.5 0 0 1-.5-.5V17a3.5 3.5 0 0 1 3.5-3.5h12a3.5 3.5 0 0 1 3.5 3.5z"/></svg>