<svg xmlns="http://www.w3.org/2000/svg" width="32" height="32" fill="none" viewBox="0 0 32 32"><path fill="#000" d="M6.5 9.5a7 7 0 1 1 14 0 .5.5 0 0 1-1 0 6 6 0 0 0-12 0 .5.5 0 1 1-1 0m17 6c-.742 0-1.459.275-2.009.774a3 3 0 0 0-4.99-2.008V9.5a3 3 0 0 0-6 0v11.75l-1.408-2.258A3 3 0 0 0 3.903 22l3.665 6.25a.5.5 0 0 0 .862-.5L4.766 21.5a2 2 0 0 1 3.465-2l.01.015 2.334 3.75A.5.5 0 0 0 11.5 23V9.5a2 2 0 1 1 4 0V18a.5.5 0 0 0 1 0v-1.5a2 2 0 0 1 4 0V19a.5.5 0 0 0 1 0v-.5a2 2 0 0 1 4 0V23c0 2.832-.939 4.758-.947 4.776A.5.5 0 0 0 25 28.5a.5.5 0 0 0 .448-.276C25.49 28.137 26.5 26.082 26.5 23v-4.5a3 3 0 0 0-3-3"/></svg>