<svg xmlns="http://www.w3.org/2000/svg" width="32" height="32" fill="none" viewBox="0 0 32 32"><path fill="#000" d="M17 21a1 1 0 1 1-2 0 1 1 0 0 1 2 0m9.5-6.5V19a10.5 10.5 0 1 1-21 0V9.5a3 3 0 0 1 5-2.234V5.5a3 3 0 0 1 5.991-.225A3 3 0 0 1 21.5 7.5v4.766a3 3 0 0 1 5 2.234m-1 0a2 2 0 1 0-4 0v.5a.5.5 0 0 1-1 0V7.5a2 2 0 1 0-4 0V13a.5.5 0 0 1-1 0V5.5a2 2 0 1 0-4 0V14a.5.5 0 0 1-1 0V9.5a2 2 0 1 0-4 0V19a9.5 9.5 0 0 0 19 0zm-3.052 6.276a.5.5 0 0 1 0 .448C22.36 21.399 20.26 25.5 16 25.5s-6.36-4.101-6.447-4.276a.5.5 0 0 1 0-.448C9.64 20.601 11.74 16.5 16 16.5s6.36 4.101 6.448 4.276m-1.02.225c-.48-.803-2.32-3.5-5.428-3.5s-4.95 2.694-5.427 3.5c.48.805 2.318 3.5 5.427 3.5s4.95-2.695 5.427-3.501z"/></svg>