<svg xmlns="http://www.w3.org/2000/svg" width="32" height="32" fill="none" viewBox="0 0 32 32"><path fill="#000" d="M21.5 3V1a.5.5 0 0 1 1 0v2a.5.5 0 0 1-1 0m4.24 1.694a.5.5 0 0 0 .686-.167l1-1.638a.5.5 0 1 0-.852-.521l-1 1.638a.5.5 0 0 0 .166.688m5.192 2.154a.5.5 0 0 0-.625-.323l-1.875.606a.5.5 0 0 0 .307.951l1.875-.606a.5.5 0 0 0 .318-.628m-3.706 5.088a9.47 9.47 0 0 1-1.585 11.543A9.5 9.5 0 0 1 8.25 25.75l-4.375-7.578a2.75 2.75 0 0 1 2.837-4.086l-.94-1.625a2.75 2.75 0 0 1 2.64-4.112l-.118-.205A2.75 2.75 0 0 1 13 5.296a2.75 2.75 0 0 1 4.954-.421l1.94 3.36a2.75 2.75 0 0 1 4.957-.414zm-13.17-4.811.786 1.361c.233.2.43.437.584.703l1.941 3.356a2.74 2.74 0 0 1 2.838-1.77l-3.118-5.4a1.75 1.75 0 0 0-3.03 1.75M9.945 9c.203.175.378.38.521.606a2.736 2.736 0 0 1 2.843-1.78L12.184 5.89a1.752 1.752 0 0 0-2.93-.217 1.75 1.75 0 0 0-.1 1.967zM24.68 23.201a8.45 8.45 0 0 0-.849-6.451l-2.375-4.114a1.75 1.75 0 0 0-3.082 1.653L19.8 16.75a.5.5 0 0 1-.183.683.5.5 0 0 1-.683-.183L14.559 9.69a1.75 1.75 0 0 0-3.038 1.736L14.6 16.75a.5.5 0 1 1-.866.5l-4.072-7.042a1.75 1.75 0 1 0-3.03 1.75l4.5 7.795a.5.5 0 1 1-.866.5l-2.5-4.33a1.75 1.75 0 0 0-3.031 1.75L9.11 25.25a8.5 8.5 0 0 0 15.571-2.05m1.679-10.765-2.375-4.113a1.75 1.75 0 0 0-3.031 1.75l.783 1.358c.234.201.432.44.587.705l2.375 4.114a9.44 9.44 0 0 1 1.257 5.328 8.47 8.47 0 0 0 .404-9.142"/></svg>