<svg xmlns="http://www.w3.org/2000/svg" width="32" height="32" fill="none" viewBox="0 0 32 32"><path fill="#000" d="M25.5 17.5V22c0 3.082-1.01 5.137-1.052 5.224a.5.5 0 0 1-.896-.448c.01-.018.948-1.944.948-4.776v-4.5a2 2 0 0 0-4 0v.5a.5.5 0 0 1-1 0v-2.5a2 2 0 0 0-4 0V17a.5.5 0 0 1-1 0V8.5a2 2 0 1 0-4 0V22a.5.5 0 0 1-.924.264l-2.335-3.75-.009-.015a2 2 0 0 0-3.465 2l3.664 6.25a.5.5 0 0 1-.862.5L2.902 21a3 3 0 1 1 5.19-3.011L9.5 20.25V8.5a3 3 0 0 1 6 0v4.766a3 3 0 0 1 4.993 2.008A3 3 0 0 1 25.5 17.5m4.5-11h-7.794l3.148-3.146a.5.5 0 0 0-.708-.708l-4 4a.5.5 0 0 0 0 .708l4 4a.5.5 0 0 0 .708-.708L22.206 7.5H30a.5.5 0 1 0 0-1"/></svg>