<svg xmlns="http://www.w3.org/2000/svg" width="32" height="32" fill="none" viewBox="0 0 32 32"><path fill="#000" d="M28.488 18.03a2.56 2.56 0 0 0-2.23-.441l-1.494.344C27.907 15.235 29.5 12.573 29.5 10c0-3.033-2.437-5.5-5.433-5.5A5.43 5.43 0 0 0 19.5 6.93a5.43 5.43 0 0 0-4.568-2.43C11.938 4.5 9.5 6.967 9.5 10c0 1.481.514 2.93 1.601 4.5a3.48 3.48 0 0 0-2.334 1.021L5.794 18.5H2A1.5 1.5 0 0 0 .5 20v5A1.5 1.5 0 0 0 2 26.5h13a.5.5 0 0 0 .125-.015l8-2a1 1 0 0 0 .075-.025l4.852-2.068.028-.012a2.574 2.574 0 0 0 .411-4.35zM14.933 5.5a4.39 4.39 0 0 1 4.105 2.69.5.5 0 0 0 .924 0 4.39 4.39 0 0 1 4.105-2.69C26.47 5.5 28.5 7.561 28.5 10c0 2.659-2.016 5.5-5.992 8.451L20.094 19a2.97 2.97 0 0 0 .406-1.5 3 3 0 0 0-3-3h-5.164c-1.25-1.625-1.836-3.062-1.836-4.5 0-2.439 2.03-4.5 4.432-4.5M1.5 25v-5a.5.5 0 0 1 .5-.5h3.5v6H2a.5.5 0 0 1-.5-.5m26.141-3.521-4.801 2.046-7.901 1.975H6.5v-6.292l2.975-2.975a2.48 2.48 0 0 1 1.768-.733H17.5a2 2 0 0 1 0 4H14a.5.5 0 0 0 0 1h4a.5.5 0 0 0 .113-.012l8.375-1.927h.02a1.575 1.575 0 0 1 1.125 2.923z"/></svg>