<svg xmlns="http://www.w3.org/2000/svg" width="32" height="32" fill="none" viewBox="0 0 32 32"><path fill="#000" d="M14.485 27.125a.5.5 0 0 1-.61.36l-4-1a.5.5 0 0 1-.156-.069l-3-2a.5.5 0 1 1 .555-.832l2.927 1.952 3.924.979a.5.5 0 0 1 .36.61m16.596-12.094a1.48 1.48 0 0 1-.75.867L27.3 17.415l-6.943 6.943a.5.5 0 0 1-.475.125l-8-2a.5.5 0 0 1-.17-.08l-6.97-4.973-3.07-1.536a1.5 1.5 0 0 1-.67-2.013l3.104-6.21A1.5 1.5 0 0 1 6.118 7L9.05 8.466l6.813-1.947a.5.5 0 0 1 .275 0l6.812 1.947L25.883 7a1.5 1.5 0 0 1 2.012.671L31 13.883a1.49 1.49 0 0 1 .081 1.145zM2.118 15l2.658 1.329L8.33 9.224 5.67 7.895a.5.5 0 0 0-.67.222L1.894 14.33a.5.5 0 0 0 .223.671m22.132 4.041-4.222-3.382c-2.317 2.095-5.348 2.438-7.833.851a1.5 1.5 0 0 1-.257-2.328l5.712-5.54A.5.5 0 0 1 18 8.5h1.43L16 7.52 9.35 9.42l-3.71 7.421 6.575 4.697 7.632 1.908zm2.14-2.14L22.691 9.5h-4.488l-5.562 5.395a.49.49 0 0 0-.138.4.51.51 0 0 0 .23.375c1.745 1.114 4.476 1.43 6.912-1.025a.5.5 0 0 1 .668-.037l4.65 3.724zm3.714-2.572L27 8.117a.5.5 0 0 0-.671-.222L23.67 9.224l3.553 7.105L29.883 15a.5.5 0 0 0 .222-.671z"/></svg>