<svg xmlns="http://www.w3.org/2000/svg" width="32" height="32" fill="none" viewBox="0 0 32 32"><path fill="#000" d="M23.5 11.5c-.742 0-1.459.275-2.009.774a3 3 0 0 0-4.99-2.008V5.5a3 3 0 0 0-6 0v11.75l-1.407-2.258A3 3 0 0 0 3.9 18l.585 1.031c2.166 3.819 3.598 6.344 5.223 8.01C11.41 28.788 13.233 29.5 16 29.5A10.51 10.51 0 0 0 26.5 19v-4.5a3 3 0 0 0-3-3m2 7.5a9.51 9.51 0 0 1-9.5 9.5c-5 0-6.419-2.51-10.645-9.964L4.77 17.5a2 2 0 0 1 3.472-1.985l2.335 3.75A.5.5 0 0 0 11.5 19V5.5a2 2 0 1 1 4 0V14a.5.5 0 1 0 1 0v-1.5a2 2 0 0 1 4 0V15a.5.5 0 1 0 1 0v-.5a2 2 0 0 1 4 0z"/></svg>