<svg xmlns="http://www.w3.org/2000/svg" width="32" height="32" fill="none" viewBox="0 0 32 32"><path fill="#000" d="m29.061 22.854-4.625-4.625L19.85 3.078A2.221 2.221 0 0 0 16 2.32a2.221 2.221 0 0 0-3.849.758L7.557 18.235 2.94 22.86a1.5 1.5 0 0 0 0 2.125l4.086 4.076a1.5 1.5 0 0 0 2.125 0l6.035-6.036a4.5 4.5 0 0 0 .819-1.117c.213.412.49.789.819 1.117l6.035 6.036a1.5 1.5 0 0 0 2.125 0l4.086-4.086a1.5 1.5 0 0 0-.008-2.121m-20.625 5.5a.5.5 0 0 1-.707 0l-4.083-4.085a.5.5 0 0 1 0-.708l1.939-1.936 4.79 4.79zm6.037-6.035-3.388 3.389-4.793-4.793 2.06-2.061a.5.5 0 0 0 .125-.209l4.625-15.277a1.223 1.223 0 0 1 2.398.355v16.125a3.48 3.48 0 0 1-1.025 2.47zm2.024-2.475V3.719a1.222 1.222 0 0 1 2.393-.355l4.625 15.277a.5.5 0 0 0 .125.209l2.172 2.172-4.897 4.69-3.39-3.393a3.48 3.48 0 0 1-1.025-2.475zm11.854 4.425-4.085 4.085a.5.5 0 0 1-.707 0l-1.934-1.931 4.898-4.69 1.826 1.828a.5.5 0 0 1 .005.708z"/></svg>