<svg xmlns="http://www.w3.org/2000/svg" width="32" height="32" fill="none" viewBox="0 0 32 32"><path fill="#000" d="m29.49 24.824-1.782-15a1.5 1.5 0 0 0-1.5-1.324H21.5V8a5.5 5.5 0 1 0-11 0v.5H5.791a1.5 1.5 0 0 0-1.5 1.324l-1.782 15A1.5 1.5 0 0 0 4.01 26.5h23.98a1.51 1.51 0 0 0 1.441-1.053c.063-.201.084-.413.059-.623M11.5 8a4.5 4.5 0 1 1 9 0v.5h-9zm16.875 17.329a.51.51 0 0 1-.385.171H4.01a.51.51 0 0 1-.51-.558l1.781-15a.5.5 0 0 1 .5-.442H26.21a.5.5 0 0 1 .506.443l1.781 15a.49.49 0 0 1-.121.386"/></svg>