<svg xmlns="http://www.w3.org/2000/svg" width="32" height="32" fill="none" viewBox="0 0 32 32"><path fill="#000" d="M26 17.5H6A1.5 1.5 0 0 0 4.5 19v6A1.5 1.5 0 0 0 6 26.5h20a1.5 1.5 0 0 0 1.5-1.5v-6a1.5 1.5 0 0 0-1.5-1.5m.5 7.5a.5.5 0 0 1-.5.5H6a.5.5 0 0 1-.5-.5v-6a.5.5 0 0 1 .5-.5h20a.5.5 0 0 1 .5.5zM26 5.5H6A1.5 1.5 0 0 0 4.5 7v6A1.5 1.5 0 0 0 6 14.5h20a1.5 1.5 0 0 0 1.5-1.5V7A1.5 1.5 0 0 0 26 5.5m.5 7.5a.5.5 0 0 1-.5.5H6a.5.5 0 0 1-.5-.5V7a.5.5 0 0 1 .5-.5h20a.5.5 0 0 1 .5.5zm-3 9a1 1 0 1 1-2 0 1 1 0 0 1 2 0m0-12a1 1 0 1 1-2 0 1 1 0 0 1 2 0"/></svg>