<svg xmlns="http://www.w3.org/2000/svg" width="32" height="32" fill="none" viewBox="0 0 32 32"><path fill="#000" d="M20.5 10a.5.5 0 0 1 .5-.5h9a.5.5 0 0 1 0 1h-9a.5.5 0 0 1-.5-.5M30 21.5h-9a.5.5 0 0 0 0 1h9a.5.5 0 0 0 0-1m0-8h-9a.5.5 0 0 0 0 1h9a.5.5 0 0 0 0-1m0 4h-9a.5.5 0 0 0 0 1h9a.5.5 0 0 0 0-1M17.5 8v16a1.5 1.5 0 0 1-1.5 1.5h-5a9.5 9.5 0 0 1-9.5-9.572c.039-5.2 4.351-9.428 9.613-9.428H16A1.5 1.5 0 0 1 17.5 8m-1 0a.5.5 0 0 0-.5-.5h-4.887c-4.714 0-8.578 3.784-8.613 8.435A8.5 8.5 0 0 0 11 24.5h5a.5.5 0 0 0 .5-.5z"/></svg>