<svg xmlns="http://www.w3.org/2000/svg" width="32" height="32" fill="none" viewBox="0 0 32 32"><path fill="#000" d="M24.881 7.185A12.51 12.51 0 0 0 3.5 16v7A2.5 2.5 0 0 0 6 25.5h2a2.5 2.5 0 0 0 2.5-2.5v-5A2.5 2.5 0 0 0 8 15.5H4.51A11.5 11.5 0 0 1 16 4.5h.087a11.47 11.47 0 0 1 11.403 11H24a2.5 2.5 0 0 0-2.5 2.5v5a2.5 2.5 0 0 0 2.5 2.5h3.5v.5a3.5 3.5 0 0 1-3.5 3.5h-7a.5.5 0 1 0 0 1h7a4.5 4.5 0 0 0 4.5-4.5V16a12.43 12.43 0 0 0-3.619-8.815M8 16.5A1.5 1.5 0 0 1 9.5 18v5A1.5 1.5 0 0 1 8 24.5H6A1.5 1.5 0 0 1 4.5 23v-6.5zM22.5 23v-5a1.5 1.5 0 0 1 1.5-1.5h3.5v8H24a1.5 1.5 0 0 1-1.5-1.5"/></svg>