<svg xmlns="http://www.w3.org/2000/svg" width="32" height="32" fill="none" viewBox="0 0 32 32"><path fill="#000" d="M22.25 4.5a7.2 7.2 0 0 0-5.125 2.125L16 7.75l-1.125-1.125A7.25 7.25 0 0 0 2.5 11.75c0 3.574 2.25 7.309 6.675 11.099a41.7 41.7 0 0 0 6.587 4.591.5.5 0 0 0 .476 0 41.7 41.7 0 0 0 6.587-4.591c4.425-3.79 6.675-7.525 6.675-11.099a7.26 7.26 0 0 0-7.25-7.25M16 26.428c-1.75-.995-12.5-7.42-12.5-14.678a6.25 6.25 0 0 1 10.67-4.42l1.125 1.125-1.649 1.645a.503.503 0 0 0 0 .707l3.42 3.42-2.42 2.42a.5.5 0 1 0 .708.707l2.771-2.774a.5.5 0 0 0 0-.706l-3.418-3.42 1.645-1.645 1.476-1.476A6.25 6.25 0 0 1 28.5 11.75C28.5 19 17.75 25.433 16 26.427"/></svg>