<svg xmlns="http://www.w3.org/2000/svg" width="32" height="32" fill="none" viewBox="0 0 32 32"><path fill="#000" d="M22.25 4.5c-2.68 0-4.99 1.274-6.25 3.384C14.74 5.774 12.43 4.5 9.75 4.5a7.26 7.26 0 0 0-7.25 7.25c0 3.574 2.25 7.309 6.675 11.099a41.7 41.7 0 0 0 6.587 4.591.5.5 0 0 0 .476 0 41.7 41.7 0 0 0 6.587-4.591c4.425-3.79 6.675-7.525 6.675-11.099a7.26 7.26 0 0 0-7.25-7.25M16 26.428c-1.75-.995-12.5-7.42-12.5-14.678A6.257 6.257 0 0 1 9.75 5.5c2.639 0 4.856 1.414 5.788 3.689a.5.5 0 0 0 .924 0c.932-2.275 3.15-3.689 5.788-3.689a6.257 6.257 0 0 1 6.25 6.25C28.5 19 17.75 25.433 16 26.427"/></svg>