<svg xmlns="http://www.w3.org/2000/svg" width="32" height="32" fill="none" viewBox="0 0 32 32"><path fill="#000" d="M21.093 5.608a.5.5 0 0 0-.186-.983C18.761 5.026 17.025 6.196 16 7.89 14.75 5.776 12.432 4.5 9.75 4.5a7.26 7.26 0 0 0-7.25 7.25c0 3.574 2.25 7.309 6.675 11.099a41.7 41.7 0 0 0 6.587 4.591.5.5 0 0 0 .474-.001 41 41 0 0 0 5.068-3.359.499.499 0 1 0-.61-.791 43 43 0 0 1-4.194 2.847V9.106c.78-1.824 2.448-3.097 4.593-3.498M15.5 26.135c-2.716-1.625-12-7.645-12-14.385A6.257 6.257 0 0 1 9.75 5.5c2.604 0 4.799 1.375 5.75 3.6zM29.014 11.5h-.055a.5.5 0 0 1-.5-.445 6.23 6.23 0 0 0-2.74-4.5.5.5 0 0 1 .555-.831 7.24 7.24 0 0 1 3.178 5.224.5.5 0 0 1-.438.552m-.654 4.726c-.687 1.375-1.694 2.79-2.992 4.195a.5.5 0 1 1-.735-.678c1.235-1.335 2.187-2.67 2.832-3.964a.502.502 0 0 1 .922.065.5.5 0 0 1-.027.382"/></svg>