<svg xmlns="http://www.w3.org/2000/svg" width="32" height="32" fill="none" viewBox="0 0 32 32"><path fill="#000" d="M9 16.5H4a.5.5 0 0 1 0-1h4.733l1.85-2.777a.5.5 0 0 1 .833 0L15 18.097l1.584-2.375A.5.5 0 0 1 17 15.5h3a.5.5 0 0 1 0 1h-2.733l-1.85 2.778a.5.5 0 0 1-.833 0L11 13.9l-1.584 2.375A.5.5 0 0 1 9 16.5m13.25-12c-2.68 0-4.99 1.274-6.25 3.384C14.74 5.774 12.43 4.5 9.75 4.5a7.26 7.26 0 0 0-7.25 7.25v.266a.5.5 0 1 0 1-.032v-.234A6.257 6.257 0 0 1 9.75 5.5c2.639 0 4.856 1.414 5.788 3.689a.5.5 0 0 0 .924 0c.932-2.275 3.15-3.689 5.788-3.689a6.257 6.257 0 0 1 6.25 6.25C28.5 19 17.75 25.433 16 26.427c-1.059-.602-5.437-3.2-8.704-6.764a.5.5 0 0 0-.737.674c3.84 4.19 8.987 6.987 9.203 7.103a.5.5 0 0 0 .476 0 41.7 41.7 0 0 0 6.587-4.591c4.425-3.79 6.675-7.525 6.675-11.099a7.26 7.26 0 0 0-7.25-7.25"/></svg>