<svg xmlns="http://www.w3.org/2000/svg" width="32" height="32" fill="none" viewBox="0 0 32 32"><path fill="#000" d="m28.761 21.011-6.511-1.467L8.354 5.646a.5.5 0 0 0-.723.016C4.968 8.575 3.5 12.25 3.5 16v9A1.5 1.5 0 0 0 5 26.5h4a1.5 1.5 0 0 0 1.5-1.5v-6.955a14.6 14.6 0 0 1 6.949 7.529 1.49 1.49 0 0 0 1.391.926H30a1.5 1.5 0 0 0 1.5-1.5v-.591a3.47 3.47 0 0 0-2.739-3.398M9.5 25a.5.5 0 0 1-.5.5H5a.5.5 0 0 1-.5-.5v-8.49c1.718.057 3.411.422 5 1.077zm21 0a.5.5 0 0 1-.5.5H18.84a.5.5 0 0 1-.464-.303 15.54 15.54 0 0 0-5.609-6.97A15.4 15.4 0 0 0 4.51 15.51c.116-3.167 1.35-6.25 3.514-8.78l13.625 13.626a.5.5 0 0 0 .25.134l6.652 1.5a2.475 2.475 0 0 1 1.95 2.425z"/></svg>