<svg xmlns="http://www.w3.org/2000/svg" width="32" height="32" fill="none" viewBox="0 0 32 32"><path fill="#000" d="M16.5 12.5a1 1 0 1 1-2 0 1 1 0 0 1 2 0m12 3.677A12.536 12.536 0 0 1 16.25 28.5h-.261a12.42 12.42 0 0 1-8.325-3.125.501.501 0 1 1 .667-.75c.894.8 1.91 1.449 3.012 1.924l3.918-5.389c-3.145-1.625-6.743-1.012-8.517-.712a3.48 3.48 0 0 1-3.446-1.43l-1.724-2.75a.49.49 0 0 1 .018-.553.5.5 0 0 1 .143-.134L14.5 7.72V4a.5.5 0 0 1 .5-.5h1a12.5 12.5 0 0 1 12.5 12.677m-4.31-8.25A11.42 11.42 0 0 0 16 4.5h-.5V8a.5.5 0 0 1-.238.426l-12.57 7.735 1.447 2.315a2.49 2.49 0 0 0 2.44.989c1.96-.332 6.01-1.016 9.549 1.031a5.5 5.5 0 0 0 5.375-5.5.5.5 0 1 1 1 0 6.51 6.51 0 0 1-6.244 6.504l-3.945 5.425c1.264.41 2.59.605 3.919.575a11.5 11.5 0 0 0 7.956-19.575z"/></svg>