<svg xmlns="http://www.w3.org/2000/svg" width="32" height="32" fill="none" viewBox="0 0 32 32"><path fill="#000" d="M23 3.5H9A1.5 1.5 0 0 0 7.5 5v4.5a1.5 1.5 0 0 0 .6 1.2l7.066 5.3L8.1 21.3a1.5 1.5 0 0 0-.6 1.2V27A1.5 1.5 0 0 0 9 28.5h14a1.5 1.5 0 0 0 1.5-1.5v-4.455a1.5 1.5 0 0 0-.595-1.196L16.829 16l7.076-5.349a1.5 1.5 0 0 0 .595-1.196V5A1.5 1.5 0 0 0 23 3.5m-14 1h14a.5.5 0 0 1 .5.5v2.5h-15V5a.5.5 0 0 1 .5-.5m14.5 18.045V27a.5.5 0 0 1-.5.5H9a.5.5 0 0 1-.5-.5v-4.5a.5.5 0 0 1 .2-.4l7.3-5.475 7.302 5.52a.5.5 0 0 1 .198.4m-.199-12.691L16 15.375 8.7 9.9a.5.5 0 0 1-.2-.4v-1h15v.955a.5.5 0 0 1-.199.399"/></svg>