<svg xmlns="http://www.w3.org/2000/svg" width="32" height="32" fill="none" viewBox="0 0 32 32"><path fill="#000" d="m16.723 16 9.335-8.939A1.5 1.5 0 0 0 25 4.5H7a1.5 1.5 0 0 0-1.061 2.561l.008.008L15.277 16l-9.326 8.931-.009.008A1.5 1.5 0 0 0 7 27.5h18a1.5 1.5 0 0 0 1.052-2.569zm-5.743-5.5h10.04L16 15.307zM6.541 5.809A.49.49 0 0 1 7 5.5h18a.5.5 0 0 1 .361.846L22.064 9.5H9.939L6.646 6.35a.49.49 0 0 1-.105-.541M25.46 26.19A.49.49 0 0 1 25 26.5H7a.5.5 0 0 1-.358-.85l8.858-8.479V21a.5.5 0 1 0 1 0v-3.829l8.85 8.475a.49.49 0 0 1 .109.545"/></svg>