<svg xmlns="http://www.w3.org/2000/svg" width="32" height="32" fill="none" viewBox="0 0 32 32"><path fill="#000" d="M24.5 14a.5.5 0 0 1-.5.5h-5a.5.5 0 0 1 0-1h5a.5.5 0 0 1 .5.5m-.5 3.5h-5a.5.5 0 0 0 0 1h5a.5.5 0 0 0 0-1M28.5 7v18a1.5 1.5 0 0 1-1.5 1.5H5A1.5 1.5 0 0 1 3.5 25V7A1.5 1.5 0 0 1 5 5.5h22A1.5 1.5 0 0 1 28.5 7m-1 0a.5.5 0 0 0-.5-.5H5a.5.5 0 0 0-.5.5v18a.5.5 0 0 0 .5.5h22a.5.5 0 0 0 .5-.5zM16.484 20.875a.501.501 0 1 1-.968.25c-.383-1.5-1.891-2.625-3.516-2.625s-3.125 1.125-3.516 2.625a.5.5 0 1 1-.968-.25 4.54 4.54 0 0 1 2.554-2.957 3.5 3.5 0 1 1 3.86 0 4.53 4.53 0 0 1 2.554 2.957M12 17.5a2.5 2.5 0 1 0 0-5 2.5 2.5 0 0 0 0 5"/></svg>