<svg xmlns="http://www.w3.org/2000/svg" width="32" height="32" fill="none" viewBox="0 0 32 32"><path fill="#000" d="M27 5.5H5A1.5 1.5 0 0 0 3.5 7v18A1.5 1.5 0 0 0 5 26.5h22a1.5 1.5 0 0 0 1.5-1.5V7A1.5 1.5 0 0 0 27 5.5m-22 1h22a.5.5 0 0 1 .5.5v14.05l-4.111-4.111a1.503 1.503 0 0 0-2.125 0l-2.854 2.854-5.853-5.854a1.5 1.5 0 0 0-2.125 0L4.5 19.875V7a.5.5 0 0 1 .5-.5M4.5 25v-3.707l6.646-6.647a.503.503 0 0 1 .708 0L22.708 25.5H5a.5.5 0 0 1-.5-.5m22.5.5h-2.875l-5-5 2.854-2.854a.5.5 0 0 1 .707 0l4.814 4.818V25a.5.5 0 0 1-.5.5m-8.5-13a1 1 0 1 1 2 0 1 1 0 0 1-2 0"/></svg>