<svg xmlns="http://www.w3.org/2000/svg" width="32" height="32" fill="none" viewBox="0 0 32 32"><path fill="#000" d="M26 4.5H6A1.5 1.5 0 0 0 4.5 6v20A1.5 1.5 0 0 0 6 27.5h20a1.5 1.5 0 0 0 1.5-1.5V6A1.5 1.5 0 0 0 26 4.5M5.5 26V6a.5.5 0 0 1 .5-.5h20a.5.5 0 0 1 .5.5v10.875l-3.939-3.94a1.5 1.5 0 0 0-2.125 0L6.875 26.5H6a.5.5 0 0 1-.5-.5m20.5.5H8.293l12.853-12.854a.503.503 0 0 1 .708 0l4.646 4.647V26a.5.5 0 0 1-.5.5m-14-12a2.5 2.5 0 1 0 0-5 2.5 2.5 0 0 0 0 5m0-4a1.5 1.5 0 1 1 0 3 1.5 1.5 0 0 1 0-3"/></svg>