<svg xmlns="http://www.w3.org/2000/svg" width="32" height="32" fill="none" viewBox="0 0 32 32"><path fill="#000" d="M26 4.5H10A1.5 1.5 0 0 0 8.5 6v2.5H6A1.5 1.5 0 0 0 4.5 10v16A1.5 1.5 0 0 0 6 27.5h16a1.5 1.5 0 0 0 1.5-1.5v-2.5H26a1.5 1.5 0 0 0 1.5-1.5V6A1.5 1.5 0 0 0 26 4.5M9.5 6a.5.5 0 0 1 .5-.5h16a.5.5 0 0 1 .5.5v9.875l-2.939-2.94a1.5 1.5 0 0 0-2.125 0L11.875 22.5H10a.5.5 0 0 1-.5-.5zm13 20a.5.5 0 0 1-.5.5H6a.5.5 0 0 1-.5-.5V10a.5.5 0 0 1 .5-.5h2.5V22a1.5 1.5 0 0 0 1.5 1.5h12.5zm3.5-3.5H13.293l8.853-8.854a.503.503 0 0 1 .708 0l3.646 3.646V22a.5.5 0 0 1-.5.5m-11-9a2.5 2.5 0 1 0 0-5 2.5 2.5 0 0 0 0 5m0-4a1.5 1.5 0 1 1 0 3 1.5 1.5 0 0 1 0-3"/></svg>