<svg xmlns="http://www.w3.org/2000/svg" width="32" height="32" fill="none" viewBox="0 0 32 32"><path fill="#000" d="M21.396 10.604a9.5 9.5 0 1 0-10.792 10.792 9.5 9.5 0 1 0 10.792-10.792M3.5 12a8.5 8.5 0 0 1 16.866-1.491c-.125 0-.25-.009-.366-.009a9.51 9.51 0 0 0-9.491 9.866A8.51 8.51 0 0 1 3.499 12m17 0a8.45 8.45 0 0 1-.931 3.861l-3.43-3.43A8.45 8.45 0 0 1 20 11.5c.163 0 .325 0 .485.015.015.16.015.322.015.485m-9 8c0-1.343.318-2.666.931-3.861l3.43 3.43a8.45 8.45 0 0 1-4.346.916A9 9 0 0 1 11.5 20m5.25-.955-3.795-3.795a8.6 8.6 0 0 1 2.295-2.295l3.795 3.795a8.6 8.6 0 0 1-2.295 2.295M20 28.5a8.51 8.51 0 0 1-8.366-7.009c.125 0 .25.009.366.009a9.51 9.51 0 0 0 9.5-9.5c0-.125 0-.25-.009-.366A8.5 8.5 0 0 1 20 28.5"/></svg>