<svg xmlns="http://www.w3.org/2000/svg" width="32" height="32" fill="none" viewBox="0 0 32 32"><path fill="#000" d="M30 12.5h-1.596l-1.25-5.814A1.51 1.51 0 0 0 25.69 5.5H6.31A1.51 1.51 0 0 0 4.84 6.686L3.596 12.5H2a.5.5 0 0 0 0 1h1.5V26A1.5 1.5 0 0 0 5 27.5h3A1.5 1.5 0 0 0 9.5 26v-3.5h13V26a1.5 1.5 0 0 0 1.5 1.5h3a1.5 1.5 0 0 0 1.5-1.5V13.5H30a.5.5 0 0 0 0-1M5.82 6.895a.5.5 0 0 1 .489-.395H25.69a.5.5 0 0 1 .489.395l1.201 5.605H4.625zM8.5 26a.5.5 0 0 1-.5.5H5a.5.5 0 0 1-.5-.5v-3.5h4zm18.5.5h-3a.5.5 0 0 1-.5-.5v-3.5h4V26a.5.5 0 0 1-.5.5m.5-5h-9V17a.5.5 0 0 0-1 0v4.5h-3V17a.5.5 0 0 0-1 0v4.5h-9v-8h23zm-20-4a1 1 0 1 1 2 0 1 1 0 0 1-2 0m15 0a1 1 0 1 1 2 0 1 1 0 0 1-2 0"/></svg>