<svg xmlns="http://www.w3.org/2000/svg" width="32" height="32" fill="none" viewBox="0 0 32 32"><path fill="#000" d="M20 2.5a9.5 9.5 0 0 0-8.936 12.73l-7.418 7.416A.5.5 0 0 0 3.5 23v5a.5.5 0 0 0 .5.5h5a.5.5 0 0 0 .5-.5v-2.5H12a.5.5 0 0 0 .5-.5v-2.5H15a.5.5 0 0 0 .354-.146l1.416-1.418a9.501 9.501 0 0 0 10.5-15.044A9.5 9.5 0 0 0 20 2.5m0 18a8.4 8.4 0 0 1-3.151-.604.5.5 0 0 0-.556.104l-1.5 1.5H12a.5.5 0 0 0-.5.5v2.5H9a.5.5 0 0 0-.5.5v2.5h-4v-4.292l7.5-7.5a.5.5 0 0 0 .104-.557A8.5 8.5 0 1 1 20 20.5m3.5-11a1 1 0 1 1-2 0 1 1 0 0 1 2 0"/></svg>