<svg xmlns="http://www.w3.org/2000/svg" width="32" height="32" fill="none" viewBox="0 0 32 32"><path fill="#000" d="M27.939 6.5H4.064A1.563 1.563 0 0 0 2.5 8.061v15.875A1.563 1.563 0 0 0 4.061 25.5h23.875a1.56 1.56 0 0 0 1.564-1.561V8.064A1.56 1.56 0 0 0 27.939 6.5m.561 17.439a.56.56 0 0 1-.561.561H4.064a.56.56 0 0 1-.564-.561V8.064a.56.56 0 0 1 .561-.564h23.875a.56.56 0 0 1 .564.561zM25.5 16a.5.5 0 0 1-.5.5H7a.5.5 0 0 1 0-1h18a.5.5 0 0 1 .5.5m0-4a.5.5 0 0 1-.5.5H7a.5.5 0 0 1 0-1h18a.5.5 0 0 1 .5.5m-17 8a.5.5 0 0 1-.5.5H7a.5.5 0 0 1 0-1h1a.5.5 0 0 1 .5.5m12 0a.5.5 0 0 1-.5.5h-8a.5.5 0 0 1 0-1h8a.5.5 0 0 1 .5.5m5 0a.5.5 0 0 1-.5.5h-1a.5.5 0 0 1 0-1h1a.5.5 0 0 1 .5.5"/></svg>