<svg xmlns="http://www.w3.org/2000/svg" width="32" height="32" fill="none" viewBox="0 0 32 32"><path fill="#000" d="M28.625 4.375a3 3 0 0 0-4.25 0l-21.733 22.3a.5.5 0 0 0 .25.837 18.8 18.8 0 0 0 4.25.488c4.08 0 8.168-1.331 12.015-3.94 3.9-2.644 6.152-5.625 6.25-5.75a.5.5 0 0 0-.046-.655l-2.685-2.688 5.949-6.342a3.01 3.01 0 0 0 0-4.25M24.33 18.051a28.3 28.3 0 0 1-5.736 5.18C13.854 26.446 8.947 27.617 4 26.72L18.316 12.03zm3.585-10.133-.011.01-5.943 6.336-2.947-2.95 6.071-6.229a2.002 2.002 0 1 1 2.83 2.833"/></svg>