<svg xmlns="http://www.w3.org/2000/svg" width="32" height="32" fill="none" viewBox="0 0 32 32"><path fill="#000" d="M26.47 26.829 20.032 9.125 21.35 5.5H23a.5.5 0 0 0 0-1H11a.5.5 0 0 0 0 1h1.286l-7.75 21.329A.5.5 0 0 0 5 27.5a.5.5 0 0 0 .47-.329L6.805 23.5h6.936l-1.211 3.329a.499.499 0 0 0 .757.58.5.5 0 0 0 .183-.238l2.426-6.671h7.208l2.426 6.671a.5.5 0 1 0 .94-.342M16.286 16.5H9.35l1.819-5h6.935zm4-11-1.819 5h-6.935l1.818-5zM7.17 22.5l1.817-5h6.936l-1.818 5zm9.09-3 3.24-8.912 3.24 8.912z"/></svg>