<svg xmlns="http://www.w3.org/2000/svg" width="32" height="32" fill="none" viewBox="0 0 32 32"><path fill="#000" d="M27.431 5.039a.5.5 0 0 0-.47-.47C17.633 4.02 10.183 6.799 7.03 12c-2.155 3.57-2.042 7.796.32 11.942l-2.704 2.704a.5.5 0 1 0 .708.708l2.704-2.705c2.173 1.238 4.374 1.861 6.478 1.861 1.929.002 3.82-.531 5.464-1.54 5.201-3.152 7.98-10.604 7.431-19.931m-7.954 19.076c-3.17 1.921-6.944 1.844-10.684-.201l11.562-11.562a.5.5 0 1 0-.707-.707L8.086 23.208c-2.045-3.74-2.125-7.514-.201-10.685 2.908-4.802 9.83-7.398 18.572-6.98.418 8.742-2.178 15.665-6.98 18.572"/></svg>