<svg xmlns="http://www.w3.org/2000/svg" width="32" height="32" fill="none" viewBox="0 0 32 32"><path fill="#000" d="M16 3.5A12.5 12.5 0 1 0 28.5 16 12.514 12.514 0 0 0 16 3.5m8.474 20.266-4.25-4.25a5.49 5.49 0 0 0 0-7.035l4.25-4.25a11.48 11.48 0 0 1 0 15.533zM11.5 16a4.5 4.5 0 1 1 9 0 4.5 4.5 0 0 1-9 0m12.266-8.474-4.25 4.25a5.49 5.49 0 0 0-7.035 0l-4.25-4.25a11.48 11.48 0 0 1 15.533 0zm-16.24.708 4.25 4.25a5.49 5.49 0 0 0 0 7.035l-4.25 4.25a11.48 11.48 0 0 1 0-15.533zm.708 16.24 4.25-4.25a5.49 5.49 0 0 0 7.035 0l4.25 4.25a11.48 11.48 0 0 1-15.533 0z"/></svg>