<svg xmlns="http://www.w3.org/2000/svg" width="32" height="32" fill="none" viewBox="0 0 32 32"><path fill="#000" d="M6.375 4.664a.504.504 0 1 0-.75.672l5.221 5.739-5.211 5.584a.5.5 0 0 0 .19.808l7.601 2.852-1.916 9.583a.5.5 0 0 0 .855.439l8.104-8.683 5.156 5.678a.5.5 0 1 0 .74-.672zm6.46 23.71L14.49 20.1a.5.5 0 0 0-.315-.567l-7.3-2.738 4.646-4.978 8.273 9.099zm1.089-19.862a.5.5 0 0 1-.025-.706l5.736-6.145a.5.5 0 0 1 .855.439l-1.916 9.581 7.601 2.85a.5.5 0 0 1 .186.81l-2.787 2.986a.5.5 0 0 1-.732-.681l2.283-2.441-7.3-2.738a.5.5 0 0 1-.315-.565l1.655-8.277-4.54 4.861a.5.5 0 0 1-.701.024z"/></svg>