<svg xmlns="http://www.w3.org/2000/svg" width="32" height="32" fill="none" viewBox="0 0 32 32"><path fill="#000" d="M21.49 14.042a.5.5 0 0 0-.285-.356l-6.625-2.972 1.804-7.6a.5.5 0 0 0-.854-.454L3.633 15.517a.5.5 0 0 0 .162.797l6.625 2.972-1.806 7.598a.5.5 0 0 0 .852.456l11.9-12.858a.5.5 0 0 0 .124-.44m-11.464 11.22 1.46-6.147a.5.5 0 0 0-.281-.571L4.84 15.686 14.974 4.737l-1.46 6.148a.5.5 0 0 0 .281.571l6.365 2.858zm19.422 1.514-4.5-9a.5.5 0 0 0-.896 0l-4.5 9a.5.5 0 0 0 .896.448l1.36-2.724h5.383l1.361 2.724a.501.501 0 0 0 .896-.448m-7.14-3.276 2.192-4.383 2.191 4.383z"/></svg>