<svg xmlns="http://www.w3.org/2000/svg" width="32" height="32" fill="none" viewBox="0 0 32 32"><path fill="#000" d="M21.5 29a.5.5 0 0 1-.5.5H11a.5.5 0 1 1 0-1h10a.5.5 0 0 1 .5.5m5-16a10.45 10.45 0 0 1-4.014 8.258 2.53 2.53 0 0 0-.986 1.992V24a1.5 1.5 0 0 1-1.5 1.5h-8a1.5 1.5 0 0 1-1.5-1.5v-.75a2.5 2.5 0 0 0-.97-1.976 10.45 10.45 0 0 1-4.03-8.215C5.469 7.375 10.065 2.636 15.75 2.5A10.5 10.5 0 0 1 26.5 13m-1 0a9.5 9.5 0 0 0-9.73-9.5c-5.145.125-9.299 4.409-9.27 9.554a9.45 9.45 0 0 0 3.646 7.429A3.5 3.5 0 0 1 11.5 23.25V24a.5.5 0 0 0 .5.5h3.5v-6.292l-3.854-3.854a.5.5 0 1 1 .708-.708L16 17.292l3.646-3.646a.5.5 0 0 1 .708 0 .5.5 0 0 1 0 .708L16.5 18.208V24.5H20a.5.5 0 0 0 .5-.5v-.75a3.52 3.52 0 0 1 1.367-2.775A9.45 9.45 0 0 0 25.5 13"/></svg>