<svg xmlns="http://www.w3.org/2000/svg" width="32" height="32" fill="none" viewBox="0 0 32 32"><path fill="#000" d="M26 10.5a.5.5 0 0 0-.5.5v2.5h-2.346L22.5 6.95a.5.5 0 0 0-.168-.325l-5.36-4.766-.012-.012a1.5 1.5 0 0 0-1.92 0l-.012.012-5.36 4.766a.5.5 0 0 0-.168.325l-.654 6.55H6.5V11a.5.5 0 0 0-1 0v3a.5.5 0 0 0 .5.5h2.75L7.51 26.857A1.5 1.5 0 0 0 9 28.5h14a1.5 1.5 0 0 0 1.492-1.645L23.25 14.5H26a.5.5 0 0 0 .5-.5v-3a.5.5 0 0 0-.5-.5M15.685 2.61a.5.5 0 0 1 .625 0L20.685 6.5H11.31zM10.453 7.5h11.095l.6 6H16.5V11a.5.5 0 0 0-1 0v2.5H9.851zm12.922 19.836A.5.5 0 0 1 23 27.5H9a.5.5 0 0 1-.5-.545l.549-5.455H22.95l.549 5.452a.5.5 0 0 1-.125.384m-.524-6.836H9.15l.601-6h12.5z"/></svg>