<svg xmlns="http://www.w3.org/2000/svg" width="32" height="32" fill="none" viewBox="0 0 32 32"><path fill="#000" d="M29.476 4.524a3.5 3.5 0 1 0-4.557 5.289l-3.716 6.9a3.51 3.51 0 0 0-3.298.485l-3.103-3.103a3.5 3.5 0 1 0-4.884.717L6.2 21.716a3.5 3.5 0 1 0 .881.473l3.716-6.902a3.5 3.5 0 0 0 3.298-.483l3.103 3.102a3.5 3.5 0 1 0 4.886-.718l3.716-6.902a3.5 3.5 0 0 0 3.676-5.761m-22.71 22.25a2.5 2.5 0 1 1 .73-1.77 2.5 2.5 0 0 1-.73 1.765zm3.465-13a2.5 2.5 0 1 1 2.724.54 2.5 2.5 0 0 1-2.724-.546zm11.538 8a2.5 2.5 0 1 1 0-3.536 2.5 2.5 0 0 1 0 3.53zm7-13a2.5 2.5 0 1 1 0-3.536 2.5 2.5 0 0 1 0 3.53z"/></svg>