<svg xmlns="http://www.w3.org/2000/svg" width="32" height="32" fill="none" viewBox="0 0 32 32"><path fill="#000" d="M24.183 7.818a4.507 4.507 0 0 0-6.366 0l-1.456 1.527a.5.5 0 0 1-.722-.69l1.463-1.53a5.5 5.5 0 1 1 7.787 7.769l-1.544 1.472a.5.5 0 1 1-.69-.722l1.535-1.465a4.5 4.5 0 0 0-.008-6.361m-8.544 14.837-1.457 1.528a4.501 4.501 0 0 1-6.375-6.357l1.535-1.465a.5.5 0 0 0-.69-.722l-1.54 1.473a5.5 5.5 0 1 0 7.786 7.763l1.463-1.535a.5.5 0 1 0-.722-.69zM26 19.5h-3a.5.5 0 0 0 0 1h3a.5.5 0 0 0 0-1m-20-7h3a.5.5 0 0 0 0-1H6a.5.5 0 0 0 0 1m14 10a.5.5 0 0 0-.5.5v3a.5.5 0 0 0 1 0v-3a.5.5 0 0 0-.5-.5m-8-13a.5.5 0 0 0 .5-.5V6a.5.5 0 0 0-1 0v3a.5.5 0 0 0 .5.5"/></svg>