<svg xmlns="http://www.w3.org/2000/svg" width="32" height="32" fill="none" viewBox="0 0 32 32"><path fill="#000" d="M16.839 23.649a.5.5 0 0 1 0 .707L15.596 25.6a6.502 6.502 0 0 1-9.195-9.195l3.015-3.015a6.5 6.5 0 0 1 8.915-.263.501.501 0 0 1-.665.75 5.5 5.5 0 0 0-7.541.22l-3.016 3.015a5.501 5.501 0 1 0 7.78 7.78l1.242-1.242a.5.5 0 0 1 .708 0m8.76-17.25a6.51 6.51 0 0 0-9.195 0L15.16 7.64a.503.503 0 1 0 .714.71l1.242-1.242a5.501 5.501 0 0 1 7.78 7.78l-3.022 3.015a5.5 5.5 0 0 1-7.541.22.501.501 0 1 0-.665.75 6.5 6.5 0 0 0 8.915-.262l3.015-3.015a6.51 6.51 0 0 0 0-9.196z"/></svg>