<svg xmlns="http://www.w3.org/2000/svg" width="32" height="32" fill="none" viewBox="0 0 32 32"><path fill="#000" d="M28.311 27.39a.5.5 0 0 1-.701-.078c-.168-.21-4.11-5.252-4.11-15.312a7.5 7.5 0 0 0-15 0c0 10.06-3.941 15.103-4.11 15.313a.5.5 0 0 1-.781-.625c.038-.05 3.89-5.007 3.89-14.688a8.5 8.5 0 0 1 17 0c0 5.06 1.06 8.784 1.947 11.017.961 2.42 1.935 3.66 1.945 3.67a.5.5 0 0 1-.08.703M12.5 12.5a1 1 0 1 0 0 2 1 1 0 0 0 0-2m8 1a1 1 0 1 0-2.002 0 1 1 0 0 0 2.002 0m-8.276 4.052a.5.5 0 1 0-.448.896l4 2a.5.5 0 0 0 .448 0l4-2a.5.5 0 1 0-.448-.896L16 19.443zM16 23.5a6.26 6.26 0 0 0-5.436 3.256.5.5 0 0 0 .875.486 5.168 5.168 0 0 1 9.125 0 .5.5 0 0 0 .678.194.5.5 0 0 0 .194-.68A6.26 6.26 0 0 0 16 23.5"/></svg>