<svg xmlns="http://www.w3.org/2000/svg" width="32" height="32" fill="none" viewBox="0 0 32 32"><path fill="#000" d="M27.5 16a.5.5 0 0 1-.5.5H13a.5.5 0 0 1 0-1h14a.5.5 0 0 1 .5.5M13 8.5h14a.5.5 0 1 0 0-1H13a.5.5 0 0 0 0 1m14 15H13a.5.5 0 0 0 0 1h14a.5.5 0 0 0 0-1M5.224 6.448l1.276-.64V13a.5.5 0 0 0 1 0V5a.5.5 0 0 0-.724-.447l-2 1a.5.5 0 0 0 .448.895M9 25.5H6l2.981-3.99a2.44 2.44 0 0 0 .17-2.782A2.5 2.5 0 0 0 8.48 18a2.605 2.605 0 0 0-3.573.49q-.24.306-.375.673a.5.5 0 0 0 .937.337q.08-.218.223-.402a1.597 1.597 0 0 1 2.192-.297 1.48 1.48 0 0 1 .601.993 1.46 1.46 0 0 1-.3 1.106L4.6 25.701a.5.5 0 0 0 .4.8h4a.5.5 0 0 0 0-1"/></svg>