<svg xmlns="http://www.w3.org/2000/svg" width="32" height="32" fill="none" viewBox="0 0 32 32"><path fill="#000" d="M26 10.5H11.5V7A4.5 4.5 0 0 1 16 2.5c2.155 0 4.094 1.548 4.51 3.6a.499.499 0 0 0 .981-.005.5.5 0 0 0-.001-.195c-.517-2.549-2.826-4.4-5.49-4.4A5.506 5.506 0 0 0 10.5 7v3.5H6A1.5 1.5 0 0 0 4.5 12v14A1.5 1.5 0 0 0 6 27.5h20a1.5 1.5 0 0 0 1.5-1.5V12a1.5 1.5 0 0 0-1.5-1.5m-20.5 5h21v3h-21zm0 4h21v3h-21zm.5-8h20a.5.5 0 0 1 .5.5v2.5h-21V12a.5.5 0 0 1 .5-.5m20 15H6a.5.5 0 0 1-.5-.5v-2.5h21V26a.5.5 0 0 1-.5.5"/></svg>