<svg xmlns="http://www.w3.org/2000/svg" width="32" height="32" fill="none" viewBox="0 0 32 32"><path fill="#000" d="M30.5 19a.5.5 0 0 1-.5.5h-2.5V22a.5.5 0 1 1-1 0v-2.5H24a.5.5 0 0 1 0-1h2.5V16a.5.5 0 0 1 1 0v2.5H30a.5.5 0 0 1 .5.5M7 8.5h2.5V11a.5.5 0 1 0 1 0V8.5H13a.5.5 0 1 0 0-1h-2.5V5a.5.5 0 0 0-1 0v2.5H7a.5.5 0 0 0 0 1m16 16h-1.5V23a.5.5 0 0 0-1 0v1.5H19a.5.5 0 0 0 0 1h1.5V27a.5.5 0 0 0 1 0v-1.5H23a.5.5 0 1 0 0-1m4.06-14.854L9.646 27.061a1.5 1.5 0 0 1-2.125 0L4.94 24.475a1.5 1.5 0 0 1 0-2.125L22.354 4.939a1.5 1.5 0 0 1 2.125 0l2.581 2.586a1.5 1.5 0 0 1 0 2.121M21.293 14 18 10.707 5.646 23.062a.5.5 0 0 0 0 .706l2.585 2.587a.5.5 0 0 0 .708 0zm5.06-5.768-2.586-2.586a.5.5 0 0 0-.707 0L18.706 10 22 13.293l4.354-4.354a.5.5 0 0 0 0-.707"/></svg>