<svg xmlns="http://www.w3.org/2000/svg" width="32" height="32" fill="none" viewBox="0 0 32 32"><path fill="#000" d="M25 5.5h-5A1.5 1.5 0 0 0 18.5 7v11a2.5 2.5 0 0 1-5 0V7A1.5 1.5 0 0 0 12 5.5H7A1.5 1.5 0 0 0 5.5 7v11A10.5 10.5 0 0 0 16 28.5h.08c5.75-.043 10.42-4.809 10.42-10.625V7A1.5 1.5 0 0 0 25 5.5m-5 1h5a.5.5 0 0 1 .5.5v4.5h-6V7a.5.5 0 0 1 .5-.5m-13 0h5a.5.5 0 0 1 .5.5v4.5h-6V7a.5.5 0 0 1 .5-.5m9.073 21H16A9.5 9.5 0 0 1 6.5 18v-5.5h6V18a3.5 3.5 0 1 0 7 0v-5.5h6v5.375c0 5.269-4.229 9.586-9.427 9.625"/></svg>