<svg xmlns="http://www.w3.org/2000/svg" width="32" height="32" fill="none" viewBox="0 0 32 32"><path fill="#000" d="M25 28.5h-7.535a33 33 0 0 0 3.91-3.797C24.726 20.849 26.5 16.803 26.5 13a10.5 10.5 0 1 0-21 0c0 3.802 1.771 7.849 5.125 11.703a33 33 0 0 0 3.91 3.797H7a.5.5 0 0 0 0 1h18a.5.5 0 0 0 0-1m-13.637-4.471C9.143 21.475 6.5 17.488 6.5 13a9.5 9.5 0 1 1 19 0c0 4.488-2.644 8.475-4.863 11.029A32 32 0 0 1 16 28.375a32 32 0 0 1-4.637-4.346M20.5 13a4.5 4.5 0 1 0-9 0 4.5 4.5 0 0 0 9 0m-8 0a3.5 3.5 0 1 1 7 0 3.5 3.5 0 0 1-7 0"/></svg>