<svg xmlns="http://www.w3.org/2000/svg" width="32" height="32" fill="none" viewBox="0 0 32 32"><path fill="#000" d="M16 8.5a4.5 4.5 0 1 0 0 9 4.5 4.5 0 0 0 0-9m0 8a3.5 3.5 0 1 1 0-7 3.5 3.5 0 0 1 0 7m0-14A10.51 10.51 0 0 0 5.5 13c0 3.802 1.771 7.849 5.125 11.703a31.3 31.3 0 0 0 5.091 4.707.5.5 0 0 0 .573 0 31.2 31.2 0 0 0 5.086-4.707C24.726 20.849 26.5 16.803 26.5 13A10.51 10.51 0 0 0 16 2.5m4.637 21.529A32 32 0 0 1 16 28.375a32 32 0 0 1-4.637-4.351C9.143 21.475 6.5 17.488 6.5 13a9.5 9.5 0 1 1 19 0c0 4.488-2.644 8.475-4.863 11.029"/></svg>