<svg xmlns="http://www.w3.org/2000/svg" width="32" height="32" fill="none" viewBox="0 0 32 32"><path fill="#000" d="M24.839 7.161A12.5 12.5 0 1 0 7.16 24.84 12.499 12.499 0 1 0 24.84 7.16M10.5 26.104V22a.5.5 0 0 1 .5-.5h10a.5.5 0 0 1 .5.5v4.104a11.53 11.53 0 0 1-11 0m3.019-8.604H19a.5.5 0 0 1 .5.5v2.5h-7V18a.5.5 0 0 1 .5-.5zm.616-1 1.375-6.603a.5.5 0 0 1 .98 0l1.375 6.603zm10 7.631c-.502.502-1.05.956-1.635 1.356V22a1.5 1.5 0 0 0-1.5-1.5h-.5V18a1.5 1.5 0 0 0-1.5-1.5h-.114L17.47 9.694a1.5 1.5 0 0 0-2.938 0L13.114 16.5H13a1.5 1.5 0 0 0-1.5 1.5v2.5H11A1.5 1.5 0 0 0 9.5 22v3.487a11.6 11.6 0 0 1-1.625-1.356 11.5 11.5 0 1 1 16.263 0z"/></svg>