<svg xmlns="http://www.w3.org/2000/svg" width="32" height="32" fill="none" viewBox="0 0 32 32"><path fill="#000" d="M19.416 23.276a.5.5 0 0 1-.692.14c-.874-.58-1.599-.916-2.724-.916s-1.85.336-2.724.916a.501.501 0 0 1-.781-.514.5.5 0 0 1 .229-.318C13.7 21.933 14.634 21.5 16 21.5s2.299.433 3.276 1.084a.5.5 0 0 1 .14.692m3.209-8.61c-.425.475-1.34.834-2.125.834s-1.703-.359-2.125-.834a.502.502 0 1 0-.75.666c.615.688 1.796 1.168 2.875 1.168s2.258-.48 2.875-1.166a.502.502 0 0 0-.75-.668M27.5 6v6.973c0 4.374-1.175 8.5-3.31 11.614-2.174 3.17-5.082 4.913-8.19 4.913s-6.016-1.744-8.19-4.911c-2.135-3.11-3.31-7.235-3.31-11.615V6a1.5 1.5 0 0 1 2.043-1.4c1.79.697 5.398 1.862 9.457 1.862s7.668-1.165 9.458-1.86A1.5 1.5 0 0 1 27.5 6m-1 0a.5.5 0 0 0-.68-.468c-1.855.718-5.599 1.93-9.82 1.93S8.035 6.25 6.18 5.534a.484.484 0 0 0-.459.054A.5.5 0 0 0 5.5 6v6.971C5.5 21.535 10.21 28.5 16 28.5s10.5-6.965 10.5-15.526zm-12.125 9.333a.504.504 0 0 0-.21-.809.5.5 0 0 0-.54.141c-.425.475-1.34.834-2.125.834s-1.703-.359-2.125-.834a.501.501 0 1 0-.75.666c.615.688 1.796 1.168 2.875 1.168s2.258-.479 2.875-1.165z"/></svg>