<svg xmlns="http://www.w3.org/2000/svg" width="32" height="32" fill="none" viewBox="0 0 32 32"><path fill="#000" d="M23.375 15.666a.5.5 0 0 1-.405.834.5.5 0 0 1-.345-.168c-.425-.475-1.34-.832-2.125-.832s-1.703.357-2.125.832a.502.502 0 0 1-.75-.666c.615-.687 1.796-1.166 2.875-1.166s2.258.479 2.875 1.166m-9.75.666a.503.503 0 0 0 .849-.497.5.5 0 0 0-.099-.169C13.76 14.98 12.579 14.5 11.5 14.5s-2.258.479-2.875 1.166a.5.5 0 0 0 .58.79.5.5 0 0 0 .17-.123c.425-.475 1.34-.833 2.125-.833s1.703.357 2.125.832m6.288 4.343a5.113 5.113 0 0 1-7.83 0 .5.5 0 1 0-.762.65 6.115 6.115 0 0 0 9.353 0 .5.5 0 1 0-.761-.65M27.5 6v6.973c0 4.374-1.175 8.5-3.31 11.614-2.174 3.17-5.082 4.913-8.19 4.913s-6.016-1.744-8.19-4.911c-2.135-3.11-3.31-7.235-3.31-11.615V6a1.5 1.5 0 0 1 2.043-1.4c1.79.697 5.398 1.862 9.457 1.862s7.668-1.165 9.458-1.86A1.5 1.5 0 0 1 27.5 6m-1 0a.5.5 0 0 0-.68-.468c-1.855.718-5.599 1.93-9.82 1.93S8.035 6.25 6.18 5.534a.484.484 0 0 0-.459.054A.5.5 0 0 0 5.5 6v6.971C5.5 21.535 10.21 28.5 16 28.5s10.5-6.965 10.5-15.526z"/></svg>