<svg xmlns="http://www.w3.org/2000/svg" width="32" height="32" fill="none" viewBox="0 0 32 32"><path fill="#000" d="M13.5 9a.5.5 0 0 1-.5.5H5a.5.5 0 1 1 0-1h8a.5.5 0 0 1 .5.5M13 22.5H9.5V19a.5.5 0 1 0-1 0v3.5H5a.5.5 0 0 0 0 1h3.5V27a.5.5 0 0 0 1 0v-3.5H13a.5.5 0 1 0 0-1m6-1h8a.5.5 0 1 0 0-1h-8a.5.5 0 0 0 0 1m8 3h-8a.5.5 0 0 0 0 1h8a.5.5 0 1 0 0-1m-7.354-12.146a.5.5 0 0 0 .708 0L23 9.708l2.646 2.646a.501.501 0 0 0 .708-.708L23.708 9l2.646-2.646a.5.5 0 0 0-.708-.708L23 8.293l-2.646-2.647a.5.5 0 0 0-.708.708L22.292 9l-2.646 2.646a.5.5 0 0 0 0 .708"/></svg>