<svg xmlns="http://www.w3.org/2000/svg" width="32" height="32" fill="none" viewBox="0 0 32 32"><path fill="#000" d="M25.875 4.5H6.125A1.625 1.625 0 0 0 4.5 6.125v6.151a1.63 1.63 0 0 0 .952 1.474l8.84 4.017a5.5 5.5 0 1 0 3.415 0l8.84-4.017a1.63 1.63 0 0 0 .953-1.474V6.125A1.624 1.624 0 0 0 25.875 4.5m-5.375 1v9.905L16 17.451l-4.5-2.046V5.5zm-15 6.776V6.125a.625.625 0 0 1 .625-.625H10.5v9.451l-4.634-2.106a.63.63 0 0 1-.366-.569M20.5 23a4.5 4.5 0 1 1-9 0 4.5 4.5 0 0 1 9 0m6-10.724a.63.63 0 0 1-.366.569L21.5 14.951V5.5h4.375a.625.625 0 0 1 .625.625z"/></svg>