<svg xmlns="http://www.w3.org/2000/svg" width="32" height="32" fill="none" viewBox="0 0 32 32"><path fill="#000" d="M24 9.5h-4.988c-.273-.014-6.818-.423-13.047-5.646A1.5 1.5 0 0 0 3.5 5v20a1.49 1.49 0 0 0 .865 1.359 1.491 1.491 0 0 0 1.596-.212c5.308-4.453 10.845-5.407 12.535-5.6v4.535a1.5 1.5 0 0 0 .668 1.25l1.375.917a1.5 1.5 0 0 0 2.285-.875l1.561-5.887A5.5 5.5 0 0 0 24 9.5m-5.5 10.037c-1.691.17-7.5 1.078-13.177 5.844A.5.5 0 0 1 4.5 25V5a.5.5 0 0 1 .506-.5c.117.002.23.046.316.125C11 9.386 16.81 10.295 18.5 10.464zm3.359 6.588a.5.5 0 0 1-.763.295l-1.375-.916a.5.5 0 0 1-.222-.417V20.5h3.85zM24 19.5h-4.5v-9H24a4.5 4.5 0 0 1 0 9"/></svg>