<svg xmlns="http://www.w3.org/2000/svg" width="32" height="32" fill="none" viewBox="0 0 32 32"><path fill="#000" d="m27.426 11.312-22-6.75A1.5 1.5 0 0 0 3.5 6v18a1.5 1.5 0 0 0 1.931 1.437L16.5 22.04V24a1.5 1.5 0 0 0 1.5 1.5h4a1.5 1.5 0 0 0 1.5-1.5v-4.108l3.924-1.203a1.51 1.51 0 0 0 1.076-1.44v-4.5a1.5 1.5 0 0 0-1.074-1.437M5.14 24.48A.5.5 0 0 1 4.5 24V6a.5.5 0 0 1 .634-.481L16.5 9.006V21zM22.5 24a.5.5 0 0 1-.5.5h-4a.5.5 0 0 1-.5-.5v-2.266l5-1.534zm5-6.75a.5.5 0 0 1-.36.48h-.006L17.5 20.687V9.312l9.64 2.958a.5.5 0 0 1 .36.48z"/></svg>