<svg xmlns="http://www.w3.org/2000/svg" width="32" height="32" fill="none" viewBox="0 0 32 32"><path fill="#000" d="M22.354 13.646a.5.5 0 0 1 0 .708l-4 4a.5.5 0 0 1-.708 0L14 14.708l-3.646 3.646a.5.5 0 0 1-.708-.708l4-4a.5.5 0 0 1 .708 0L18 17.292l3.646-3.646a.5.5 0 0 1 .708 0M28.5 16A12.5 12.5 0 0 1 9.938 26.934L5.476 28.42a1.5 1.5 0 0 1-1.897-1.897l1.487-4.462A12.5 12.5 0 1 1 28.5 16m-1 0a11.5 11.5 0 1 0-21.456 5.759.5.5 0 0 1 .041.409L4.528 26.84a.5.5 0 0 0 .632.633l4.672-1.558a.5.5 0 0 1 .41.041A11.5 11.5 0 0 0 27.5 16"/></svg>