<svg xmlns="http://www.w3.org/2000/svg" width="32" height="32" fill="none" viewBox="0 0 32 32"><path fill="#000" d="M29.5 18.664c0 1.922-.375 3.556-1.075 4.722-.834 1.383-2.125 2.114-3.75 2.114-3.194 0-5.604-4.5-8.156-9.264C14.223 11.941 11.843 7.5 9.25 7.5c-1.388 0-2.838 1.316-3.98 3.611a17.8 17.8 0 0 0-1.77 7.553c0 1.741.322 3.195.931 4.206.653 1.081 1.625 1.625 2.889 1.625 2.144 0 4.134-3.04 5.966-6.325a.5.5 0 1 1 .875.487C12.315 21.97 10.113 25.5 7.32 25.5c-1.616 0-2.911-.731-3.75-2.114-.695-1.166-1.07-2.8-1.07-4.722a18.84 18.84 0 0 1 1.875-8C5.711 7.979 7.443 6.5 9.25 6.5c3.193 0 5.604 4.5 8.156 9.264 2.302 4.295 4.68 8.736 7.275 8.736 1.265 0 2.236-.549 2.889-1.625.609-1.011.931-2.465.931-4.206a17.8 17.8 0 0 0-1.77-7.553C25.587 8.816 24.137 7.5 22.75 7.5c-1.219 0-2.519 1-3.972 3.071a.5.5 0 0 1-.818-.575c1.677-2.385 3.2-3.5 4.79-3.5 1.806 0 3.538 1.479 4.875 4.165a18.84 18.84 0 0 1 1.875 8.003"/></svg>