<svg xmlns="http://www.w3.org/2000/svg" width="32" height="32" fill="none" viewBox="0 0 32 32"><path fill="#000" d="m22.829 14.231 3.546-3.895a.504.504 0 0 0-.75-.672l-3.148 3.461-2.412-7.585a1.5 1.5 0 0 0-1.43-1.04h-5.27a1.5 1.5 0 0 0-1.43 1.045l-6.363 20A1.5 1.5 0 0 0 7 27.5h18a1.5 1.5 0 0 0 1.429-1.955zm.945 6.269h-6.649l4.921-5.414zM12.887 5.849a.5.5 0 0 1 .478-.349h5.27a.5.5 0 0 1 .477.349l2.59 8.136-5.923 6.515H8.226zm12.516 20.446A.5.5 0 0 1 25 26.5H7a.5.5 0 0 1-.476-.651L7.909 21.5H24.09l1.384 4.349a.5.5 0 0 1-.073.446"/></svg>