<svg xmlns="http://www.w3.org/2000/svg" width="32" height="32" fill="none" viewBox="0 0 32 32"><path fill="#000" d="M21 2.5a8.51 8.51 0 0 0-8.397 9.811l-8.81 12.013a1.49 1.49 0 0 0 .15 1.947l1.786 1.788a1.494 1.494 0 0 0 1.947.148l12.014-8.81a8.499 8.499 0 0 0 7.552-14.173A8.5 8.5 0 0 0 21 2.5m7.5 8.5a7.46 7.46 0 0 1-1.859 4.934L16.068 5.359A7.493 7.493 0 0 1 28.5 11M7.085 27.401a.5.5 0 0 1-.65-.05l-1.786-1.786a.5.5 0 0 1-.05-.65l8.307-11.327a8.54 8.54 0 0 0 5.507 5.506zM13.5 11c0-1.816.66-3.57 1.859-4.934l10.575 10.575A7.5 7.5 0 0 1 13.5 11m-.146 7.646a.5.5 0 0 1 0 .706l-1 1a.5.5 0 1 1-.706-.706l1-1a.5.5 0 0 1 .707-.001z"/></svg>