<svg xmlns="http://www.w3.org/2000/svg" width="32" height="32" fill="none" viewBox="0 0 32 32"><path fill="#000" d="M25 3.5H9A1.5 1.5 0 0 0 7.5 5v3.5H5A1.5 1.5 0 0 0 3.5 10v12A1.5 1.5 0 0 0 5 23.5h2.5V27A1.5 1.5 0 0 0 9 28.5h16a1.5 1.5 0 0 0 1.5-1.5V5A1.5 1.5 0 0 0 25 3.5m-5.5 9h6v7h-6zm6-7.5v6.5h-6V10A1.5 1.5 0 0 0 18 8.5h-.5v-4H25a.5.5 0 0 1 .5.5m-17 0a.5.5 0 0 1 .5-.5h7.5v4h-8zm-4 17V10a.5.5 0 0 1 .5-.5h13a.5.5 0 0 1 .5.5v12a.5.5 0 0 1-.5.5H5a.5.5 0 0 1-.5-.5m4 5v-3.5h8v4H9a.5.5 0 0 1-.5-.5m16.5.5h-7.5v-4h.5a1.5 1.5 0 0 0 1.5-1.5v-1.5h6V27a.5.5 0 0 1-.5.5M8.616 18.68 10.85 16l-2.233-2.68a.5.5 0 0 1 .768-.64l2.116 2.539 2.116-2.539a.499.499 0 1 1 .768.64L12.15 16l2.233 2.68a.499.499 0 1 1-.768.64L11.5 16.781 9.384 19.32a.5.5 0 1 1-.768-.64"/></svg>