<svg xmlns="http://www.w3.org/2000/svg" width="32" height="32" fill="none" viewBox="0 0 32 32"><path fill="#000" d="M25 3.5H9A1.5 1.5 0 0 0 7.5 5v3.5H5A1.5 1.5 0 0 0 3.5 10v12A1.5 1.5 0 0 0 5 23.5h2.5V27A1.5 1.5 0 0 0 9 28.5h16a1.5 1.5 0 0 0 1.5-1.5V5A1.5 1.5 0 0 0 25 3.5m-5.5 9h6v7h-6zM8.5 5a.5.5 0 0 1 .5-.5h16a.5.5 0 0 1 .5.5v6.5h-6V10A1.5 1.5 0 0 0 18 8.5H8.5zm-4 17V10a.5.5 0 0 1 .5-.5h13a.5.5 0 0 1 .5.5v12a.5.5 0 0 1-.5.5H5a.5.5 0 0 1-.5-.5M25 27.5H9a.5.5 0 0 1-.5-.5v-3.5H18a1.5 1.5 0 0 0 1.5-1.5v-1.5h6V27a.5.5 0 0 1-.5.5M9.015 19.125l-1.5-6a.501.501 0 0 1 .97-.25l1.173 4.689 1.395-2.791a.5.5 0 0 1 .894 0l1.396 2.79 1.172-4.688a.5.5 0 0 1 .97.242l-1.5 6a.5.5 0 0 1-.43.375H13.5a.5.5 0 0 1-.447-.276L11.5 16.117l-1.553 3.107a.5.5 0 0 1-.932-.103z"/></svg>