<svg xmlns="http://www.w3.org/2000/svg" width="32" height="32" fill="none" viewBox="0 0 32 32"><path fill="#000" d="M11 12.5a3.5 3.5 0 1 0 0 7 3.5 3.5 0 0 0 0-7m0 6a2.5 2.5 0 1 1 0-5 2.5 2.5 0 0 1 0 5m16-5h-1.5V6A1.5 1.5 0 0 0 24 4.5H14A1.5 1.5 0 0 0 12.5 6v2.5H5A1.5 1.5 0 0 0 3.5 10v12A1.5 1.5 0 0 0 5 23.5h4.5V26a1.5 1.5 0 0 0 1.5 1.5h16a1.5 1.5 0 0 0 1.5-1.5V15a1.5 1.5 0 0 0-1.5-1.5m-7.146 7 7.646-5.52v11.041zm6.6-6-.954.689V14.5zM13.5 6a.5.5 0 0 1 .5-.5h10a.5.5 0 0 1 .5.5v9.911L19 19.884l-.5-.361V10A1.5 1.5 0 0 0 17 8.5h-3.5zm-9 16V10a.5.5 0 0 1 .5-.5h12a.5.5 0 0 1 .5.5v12a.5.5 0 0 1-.5.5H5a.5.5 0 0 1-.5-.5m6 4v-2.5H17a1.5 1.5 0 0 0 1.5-1.5v-1.244l7.954 5.744H11a.5.5 0 0 1-.5-.5"/></svg>