<svg xmlns="http://www.w3.org/2000/svg" width="32" height="32" fill="none" viewBox="0 0 32 32"><path fill="#000" d="m26.375 26.664-20-22a.504.504 0 1 0-.75.672l4.875 5.358V16a5.5 5.5 0 0 0 8.815 4.389l2.021 2.225A8.5 8.5 0 0 1 7.5 16a.5.5 0 0 0-1 0 9.51 9.51 0 0 0 9 9.486V29a.5.5 0 1 0 1 0v-3.514a9.47 9.47 0 0 0 5.511-2.125l3.614 3.975a.499.499 0 1 0 .74-.672zM16 20.5a4.5 4.5 0 0 1-4.5-4.5v-4.206l7.137 7.851A4.5 4.5 0 0 1 16 20.5M11.32 5.11A5.5 5.5 0 0 1 21.5 8v7.554a.5.5 0 0 1-1 0V8a4.5 4.5 0 0 0-8.33-2.364.5.5 0 1 1-.85-.526m12.601 13.981c.384-.985.58-2.033.579-3.091a.5.5 0 0 1 1 0 9.5 9.5 0 0 1-.648 3.455.5.5 0 0 1-.93-.364"/></svg>