<svg xmlns="http://www.w3.org/2000/svg" width="32" height="32" fill="none" viewBox="0 0 32 32"><path fill="#000" d="M29.5 12a.5.5 0 0 1-.5.5h-2.5V15a.5.5 0 1 1-1 0v-2.5H23a.5.5 0 0 1 0-1h2.5V9a.5.5 0 0 1 1 0v2.5H29a.5.5 0 0 1 .5.5M18 6.5h1.5V8a.5.5 0 0 0 1 0V6.5H22a.5.5 0 1 0 0-1h-1.5V4a.5.5 0 1 0-1 0v1.5H18a.5.5 0 0 0 0 1m8.716 12.948a.5.5 0 0 1 .089.5A11.498 11.498 0 0 1 7.873 24.13a11.5 11.5 0 0 1 4.182-18.932.5.5 0 0 1 .661.567A11.513 11.513 0 0 0 26.24 19.282a.5.5 0 0 1 .477.166m-1.182.958a12.498 12.498 0 0 1-13.94-13.94 10.5 10.5 0 1 0 13.94 13.94"/></svg>