<svg xmlns="http://www.w3.org/2000/svg" width="32" height="32" fill="none" viewBox="0 0 32 32"><path fill="#000" d="M26 5.5h-5.529a4.5 4.5 0 0 0-8.942 0H6a.5.5 0 1 0 0 1h5.529a4.5 4.5 0 0 0 2.167 3.364A7.51 7.51 0 0 0 8.5 17v8a1.5 1.5 0 0 0 1.5 1.5h2.5v.5a3.5 3.5 0 1 0 7 0v-.5H22a1.5 1.5 0 0 0 1.5-1.5v-8a7.51 7.51 0 0 0-5.196-7.136A4.5 4.5 0 0 0 20.47 6.5H26a.5.5 0 0 0 0-1M18.5 27a2.5 2.5 0 0 1-5 0v-6a2.5 2.5 0 1 1 5 0zm4-10v8a.5.5 0 0 1-.5.5h-2.5V21a3.5 3.5 0 1 0-7 0v4.5H10a.5.5 0 0 1-.5-.5v-8a6.5 6.5 0 1 1 13 0M16 9.5a3.5 3.5 0 1 1 0-7 3.5 3.5 0 0 1 0 7"/></svg>