<svg xmlns="http://www.w3.org/2000/svg" width="32" height="32" fill="none" viewBox="0 0 32 32"><path fill="#000" d="M27 16.5a4.5 4.5 0 0 0-1.102.137l-4.43-11.812A.5.5 0 0 0 21 4.5h-4a.5.5 0 0 0 0 1h3.654l4.308 11.49a4.5 4.5 0 0 0-2.433 3.51H16.72l-3.25-8.675A.5.5 0 0 0 13 11.5H3a.5.5 0 0 0 0 1h1.5V15a6.51 6.51 0 0 0-4 6 .5.5 0 0 0 .5.5h1.529a4.5 4.5 0 0 0 8.942 0H22.53a4.5 4.5 0 1 0 4.471-5m-21.834-.687a.5.5 0 0 0 .334-.472V12.5h7.154l3 8H1.529a5.51 5.51 0 0 1 3.637-4.687M7 24.5a3.5 3.5 0 0 1-3.464-3h6.928A3.5 3.5 0 0 1 7 24.5m20 0a3.5 3.5 0 0 1-1.684-6.567l1.215 3.242a.5.5 0 0 0 .938-.35l-1.219-3.244a3.5 3.5 0 0 1 4.23 3.042A3.5 3.5 0 0 1 27 24.5"/></svg>