<svg xmlns="http://www.w3.org/2000/svg" width="32" height="32" fill="none" viewBox="0 0 32 32"><path fill="#000" d="M28 16.5c-.541 0-1.068.175-1.5.5v-1c0-4.954-3.602-7.352-6.5-9.279C18.125 5.471 16.5 4.39 16.5 3a.5.5 0 0 0-1 0c0 1.389-1.625 2.47-3.5 3.721C9.102 8.648 5.5 11.046 5.5 16v1a2.5 2.5 0 0 0-4 2v7a.5.5 0 0 0 .5.5h8a.5.5 0 0 0 .5-.5v-4a1.5 1.5 0 1 1 3 0v4a.5.5 0 0 0 .5.5h4a.5.5 0 0 0 .5-.5v-4a1.5 1.5 0 1 1 3 0v4a.5.5 0 0 0 .5.5h8a.5.5 0 0 0 .5-.5v-7a2.5 2.5 0 0 0-2.5-2.5M12.551 7.554C14 6.589 15.314 5.714 16 4.643c.686 1.07 2 1.946 3.449 2.91 2.727 1.822 5.801 3.865 6.035 7.947H6.516c.234-4.082 3.308-6.125 6.035-7.946M2.5 19a1.5 1.5 0 0 1 3 0v6.5h-3zm17.5.5a2.5 2.5 0 0 0-2.5 2.5v3.5h-3V22a2.5 2.5 0 0 0-5 0v3.5h-3v-9h19v9h-3V22a2.5 2.5 0 0 0-2.5-2.5m9.5 6h-3V19a1.5 1.5 0 1 1 3 0z"/></svg>