<svg xmlns="http://www.w3.org/2000/svg" width="32" height="32" fill="none" viewBox="0 0 32 32"><path fill="#000" d="M27 15.5a4.5 4.5 0 0 0-1.139.146l-1.08-2.807A7.5 7.5 0 0 1 27 12.5a.5.5 0 0 0 0-1h-2.734l-1.8-4.68A.5.5 0 0 0 22 6.5h-4a.5.5 0 0 0 0 1h3.656l1.539 4H19c-2.195 0-3.959.5-5.104 1.443a2.51 2.51 0 0 1-2.625.328c-1.639-.75-7.568-3.14-8.125-3.356C2.854 9.796 2.155 9.5 2 9.5a.5.5 0 0 0-.179.965c.058.023 5.928 2.3 9.043 3.715a3.52 3.52 0 0 0 3.671-.467c.963-.794 2.5-1.214 4.466-1.214h4.01a8.5 8.5 0 0 0-4.197 5.208 2.48 2.48 0 0 1-2.399 1.793H9.471a4.5 4.5 0 1 0 0 1h6.944a3.49 3.49 0 0 0 3.361-2.523A7.5 7.5 0 0 1 23.85 13.2l1.08 2.808A4.5 4.5 0 1 0 27 15.5m-22 5h3.464a3.5 3.5 0 1 1 0-1H5a.5.5 0 0 0 0 1m22 3a3.5 3.5 0 0 1-1.71-6.552l1.25 3.232a.5.5 0 0 0 .64.286.5.5 0 0 0 .286-.646l-1.242-3.233A3.499 3.499 0 1 1 27 23.5"/></svg>