<svg xmlns="http://www.w3.org/2000/svg" width="32" height="32" fill="none" viewBox="0 0 32 32"><path fill="#000" d="M20.5 9.5a3 3 0 1 0 0-6 3 3 0 0 0 0 6m0-5a2 2 0 1 1 0 4 2 2 0 0 1 0-4m10.93 20.25-6.82-11.51a1.49 1.49 0 0 0-1.291-.74 1.49 1.49 0 0 0-1.29.735l-3.702 6.25-6.035-10.246a1.5 1.5 0 0 0-2.585 0L.57 24.75a.5.5 0 0 0 .43.75h30a.5.5 0 0 0 .43-.75m-20.861-15a.5.5 0 0 1 .862 0l3.39 5.75H7.18zM1.875 24.5l4.714-8h8.822l4.714 8zm19.411 0-2.375-4.036 3.978-6.714a.5.5 0 0 1 .86 0l6.375 10.75z"/></svg>