<svg xmlns="http://www.w3.org/2000/svg" width="32" height="32" fill="none" viewBox="0 0 32 32"><path fill="#000" d="M28.5 12.75 6.491 4.584A1.5 1.5 0 0 0 4.586 6.5l8.164 22a1.48 1.48 0 0 0 1.414 1h.027a1.48 1.48 0 0 0 1.408-1.059l2.941-9.566a.5.5 0 0 1 .331-.331l9.57-2.944a1.5 1.5 0 0 0 .059-2.85m-.354 1.891-9.571 2.945a1.5 1.5 0 0 0-.992.993l-2.944 9.57a.486.486 0 0 1-.47.352.49.49 0 0 1-.482-.336v-.01l-8.16-21.99a.49.49 0 0 1 .126-.517.483.483 0 0 1 .504-.121l22.01 8.164a.5.5 0 0 1-.017.95z"/></svg>