<svg xmlns="http://www.w3.org/2000/svg" width="32" height="32" fill="none" viewBox="0 0 32 32"><path fill="#000" d="M23.354 8.646a.5.5 0 0 1 0 .708l-2 2a.5.5 0 0 1-.708-.708l2-2a.5.5 0 0 1 .708 0M27.5 9a4.47 4.47 0 0 1-1.318 3.183l-3 3a.5.5 0 0 1-.27.138c-2.706.465-6.592 2.683-11.238 6.417a88 88 0 0 0-6.32 5.616l-.03.027a.5.5 0 0 1-.678-.735c.028-.02 2.77-2.77 5.616-6.32C14 15.68 16.214 11.794 16.68 9.088a.5.5 0 0 1 .138-.27l3-3A4.5 4.5 0 0 1 27.5 9m-1 0a3.5 3.5 0 0 0-5.975-2.475l-2.89 2.89c-.666 3.5-3.685 7.928-6.564 11.514 3.586-2.875 8.02-5.898 11.514-6.565l2.89-2.889A3.48 3.48 0 0 0 26.5 9"/></svg>