<svg xmlns="http://www.w3.org/2000/svg" width="32" height="32" fill="none" viewBox="0 0 32 32"><path fill="#000" d="m28.354 7.646-4-4a.5.5 0 0 0-.708 0l-12 12A.5.5 0 0 0 11.5 16v4a.5.5 0 0 0 .5.5h4a.5.5 0 0 0 .354-.146l12-12a.5.5 0 0 0 0-.708M15.793 19.5H12.5v-3.293l8.5-8.5L24.293 11zM25 10.292 21.707 7 24 4.707 27.293 8zM27.5 15v11a1.5 1.5 0 0 1-1.5 1.5H6A1.5 1.5 0 0 1 4.5 26V6A1.5 1.5 0 0 1 6 4.5h11a.5.5 0 0 1 0 1H6a.5.5 0 0 0-.5.5v20a.5.5 0 0 0 .5.5h20a.5.5 0 0 0 .5-.5V15a.5.5 0 0 1 1 0"/></svg>