<svg xmlns="http://www.w3.org/2000/svg" width="32" height="32" fill="none" viewBox="0 0 32 32"><path fill="#000" d="M11.5 12a.5.5 0 0 1 .5-.5h8a.5.5 0 0 1 0 1h-8a.5.5 0 0 1-.5-.5m.5 4.5h8a.5.5 0 0 0 0-1h-8a.5.5 0 0 0 0 1m4 3h-4a.5.5 0 0 0 0 1h4a.5.5 0 0 0 0-1M27.5 6v13.586a1.49 1.49 0 0 1-.44 1.06l-6.414 6.415a1.5 1.5 0 0 1-1.06.439H6A1.5 1.5 0 0 1 4.5 26V6A1.5 1.5 0 0 1 6 4.5h20A1.5 1.5 0 0 1 27.5 6M6 26.5h13.5V20a.5.5 0 0 1 .5-.5h6.5V6a.5.5 0 0 0-.5-.5H6a.5.5 0 0 0-.5.5v20a.5.5 0 0 0 .5.5m19.794-6H20.5v5.294z"/></svg>