<svg xmlns="http://www.w3.org/2000/svg" width="32" height="32" fill="none" viewBox="0 0 32 32"><path fill="#000" d="M20.5 16a.5.5 0 0 1-.5.5h-8a.5.5 0 0 1 0-1h8a.5.5 0 0 1 .5.5m-.5 3.5h-8a.5.5 0 0 0 0 1h8a.5.5 0 0 0 0-1M26.5 6v19a3.5 3.5 0 0 1-3.5 3.5H9A3.5 3.5 0 0 1 5.5 25V6A1.5 1.5 0 0 1 7 4.5h2.5V3a.5.5 0 1 1 1 0v1.5h5V3a.5.5 0 0 1 1 0v1.5h5V3a.5.5 0 0 1 1 0v1.5H25A1.5 1.5 0 0 1 26.5 6m-1 0a.5.5 0 0 0-.5-.5h-2.5V7a.5.5 0 0 1-1 0V5.5h-5V7a.5.5 0 0 1-1 0V5.5h-5V7a.5.5 0 0 1-1 0V5.5H7a.5.5 0 0 0-.5.5v19A2.5 2.5 0 0 0 9 27.5h14a2.5 2.5 0 0 0 2.5-2.5z"/></svg>