<svg xmlns="http://www.w3.org/2000/svg" width="32" height="32" fill="none" viewBox="0 0 32 32"><path fill="#000" d="M16 3.5A12.5 12.5 0 1 0 28.5 16 12.514 12.514 0 0 0 16 3.5m0 24A11.5 11.5 0 1 1 27.5 16 11.513 11.513 0 0 1 16 27.5m0-18c-1.602 0-2.926.726-3.828 2.1C11.417 12.75 11 14.315 11 16s.416 3.25 1.172 4.4c.902 1.375 2.226 2.1 3.828 2.1s2.926-.726 3.828-2.1C20.578 19.248 21 17.685 21 16s-.416-3.25-1.172-4.399C18.926 10.226 17.602 9.5 16 9.5m0 12c-2.764 0-4-2.762-4-5.5s1.236-5.5 4-5.5 4 2.762 4 5.5-1.236 5.5-4 5.5"/></svg>