<svg xmlns="http://www.w3.org/2000/svg" width="32" height="32" fill="none" viewBox="0 0 32 32"><path fill="#000" d="M26 4.5H6A1.5 1.5 0 0 0 4.5 6v20A1.5 1.5 0 0 0 6 27.5h20a1.5 1.5 0 0 0 1.5-1.5V6A1.5 1.5 0 0 0 26 4.5m.5 21.5a.5.5 0 0 1-.5.5H6a.5.5 0 0 1-.5-.5V6a.5.5 0 0 1 .5-.5h20a.5.5 0 0 1 .5.5zM14.424 10.5l-.734 4.401a4.16 4.16 0 0 1 1.81-.401 4 4 0 1 1 0 8 3.95 3.95 0 0 1-2.857-1.15.499.499 0 0 1 .553-.81q.091.04.162.11a2.96 2.96 0 0 0 2.142.85 3 3 0 0 0 0-6 2.96 2.96 0 0 0-2.142.85.5.5 0 0 1-.852-.433l1-6A.5.5 0 0 1 14 9.5h5a.5.5 0 0 1 0 1z"/></svg>