<svg xmlns="http://www.w3.org/2000/svg" width="32" height="32" fill="none" viewBox="0 0 32 32"><path fill="#000" d="M16 10.5A5.5 5.5 0 1 0 16 21.5 5.5 5.5 0 0 0 16 10.5m0 10a4.5 4.5 0 1 1 0-9 4.5 4.5 0 0 1 0 9M27.72 8.708l-11-6.023a1.5 1.5 0 0 0-1.44 0l-11 6.023a1.5 1.5 0 0 0-.78 1.315v11.955a1.5 1.5 0 0 0 .78 1.315l11 6.022a1.5 1.5 0 0 0 1.44 0l11-6.022a1.5 1.5 0 0 0 .78-1.315V10.023a1.5 1.5 0 0 0-.78-1.315m-.22 13.27a.5.5 0 0 1-.26.437l-11 6.023a.5.5 0 0 1-.48 0l-11-6.022a.5.5 0 0 1-.26-.438V10.023a.5.5 0 0 1 .26-.438l11-6.022a.5.5 0 0 1 .48 0l11 6.022a.5.5 0 0 1 .26.438z"/></svg>