<svg xmlns="http://www.w3.org/2000/svg" width="32" height="32" fill="none" viewBox="0 0 32 32"><path fill="#000" d="M21.5 17.5a1 1 0 1 1 0 1.999 1 1 0 0 1 0-1.999m1.789-5.047L14.946 8.56a9.5 9.5 0 0 0-8.433 9.934l9.25-4.935A.498.498 0 0 1 16.5 14v13.485a9.455 9.455 0 0 0 8.565-6.635.5.5 0 1 1 .954.3 10.5 10.5 0 1 1-18.823-8.869A4 4 0 0 1 8.5 4.5a.5.5 0 0 1 .211.048L23.606 11.5a3 3 0 0 0-.106-6 .5.5 0 0 1 0-1 4 4 0 0 1 0 8 .5.5 0 0 1-.211-.047M15.5 14.828l-3 1.6v10.395c.957.381 1.97.603 3 .657zm-8.869 4.736a9.52 9.52 0 0 0 4.875 6.8v-9.398zm6.75-11.733L8.394 5.5a3 3 0 0 0-.575 5.92q.204-.258.426-.5a10.5 10.5 0 0 1 5.14-3.089z"/></svg>