<svg xmlns="http://www.w3.org/2000/svg" width="32" height="32" fill="none" viewBox="0 0 32 32"><path fill="#000" d="m28.061 10.383-6.443-6.444a1.5 1.5 0 0 0-1.062-.439h-9.112a1.5 1.5 0 0 0-1.062.439L3.94 10.383a1.5 1.5 0 0 0-.439 1.06v9.113a1.5 1.5 0 0 0 .439 1.061l6.444 6.444a1.5 1.5 0 0 0 1.06.439h9.113a1.5 1.5 0 0 0 1.061-.439l6.444-6.443a1.5 1.5 0 0 0 .439-1.062v-9.112a1.5 1.5 0 0 0-.439-1.062M27.5 20.556a.5.5 0 0 1-.146.354l-6.444 6.444a.5.5 0 0 1-.354.146h-9.112a.5.5 0 0 1-.354-.146L4.646 20.91a.5.5 0 0 1-.146-.354v-9.112a.5.5 0 0 1 .146-.354l6.444-6.444a.5.5 0 0 1 .354-.146h9.112a.5.5 0 0 1 .354.146l6.444 6.444a.5.5 0 0 1 .146.354z"/></svg>