<svg xmlns="http://www.w3.org/2000/svg" width="32" height="32" fill="none" viewBox="0 0 32 32"><path fill="#000" d="M31 10.5H1a.5.5 0 0 0-.5.5 15.5 15.5 0 0 0 31 0 .5.5 0 0 0-.5-.5M8.941 18.766l6.559-6.558v9.28a10.46 10.46 0 0 1-6.559-2.722m-.707-.707A10.46 10.46 0 0 1 5.513 11.5h9.28zm8.266-5.852 6.559 6.56a10.46 10.46 0 0 1-6.559 2.72zm7.266 5.852L17.208 11.5h9.28a10.46 10.46 0 0 1-2.722 6.559M16 25.5a14.52 14.52 0 0 1-14.491-14h3a11.5 11.5 0 0 0 22.977 0h3A14.517 14.517 0 0 1 16 25.5"/></svg>