<svg xmlns="http://www.w3.org/2000/svg" width="32" height="32" fill="none" viewBox="0 0 32 32"><path fill="#000" d="m27.72 8.708-11-6.023a1.5 1.5 0 0 0-1.44 0l-11 6.023a1.5 1.5 0 0 0-.78 1.315v11.955a1.5 1.5 0 0 0 .78 1.315l11 6.022a1.5 1.5 0 0 0 1.44 0l11-6.022a1.5 1.5 0 0 0 .78-1.315V10.023a1.5 1.5 0 0 0-.78-1.315M15.76 3.563a.5.5 0 0 1 .48 0L27.084 9.5l-4.771 2.611a1 1 0 0 0-.073-.05l-11-6.022zm.24 12L4.916 9.5l5.279-2.891 11.084 6.067zm-11.24 6.85a.5.5 0 0 1-.26-.438V10.411l11 6.02v11.864zm22.48 0L16.5 28.288V16.43l5-2.736V19a.5.5 0 0 0 1 0v-5.852l5-2.737v11.567a.5.5 0 0 1-.26.437z"/></svg>