<svg xmlns="http://www.w3.org/2000/svg" width="32" height="32" fill="none" viewBox="0 0 32 32"><path fill="#000" d="M28 3.5c-2.536 0-5.395 1.405-8.5 4.175-2.309 2.061-4.299 4.479-5.625 6.241A7 7 0 0 0 4.5 20.5c0 4.153-2.658 6-2.778 6.085A.5.5 0 0 0 2 27.5h9.5a7 7 0 0 0 6.584-9.375c1.764-1.329 4.18-3.319 6.241-5.625C27.095 9.395 28.5 6.536 28.5 4a.5.5 0 0 0-.5-.5m-16.5 23H3.294c.945-1.039 2.206-2.99 2.206-6a6 6 0 1 1 6 6m3.315-12.164c.516-.68 1.165-1.5 1.911-2.362a10 10 0 0 1 3.3 3.3 48 48 0 0 1-2.362 1.911 7.04 7.04 0 0 0-2.849-2.849m5.971.268a11 11 0 0 0-3.39-3.39c2.729-3.035 6.511-6.385 10.081-6.691-.306 3.57-3.656 7.352-6.69 10.08"/></svg>