<svg xmlns="http://www.w3.org/2000/svg" width="32" height="32" fill="none" viewBox="0 0 32 32"><path fill="#000" d="M28.475 3.525a3.5 3.5 0 0 0-4.95 0l-.019.02-6.862 7.646a.5.5 0 0 1-.726.02l-1.15-1.15a2.5 2.5 0 0 0-3.536 0l-9.586 9.585a.5.5 0 0 0 0 .708l10 10a.5.5 0 0 0 .708 0l9.585-9.586a2.5 2.5 0 0 0 0-3.535l-1.15-1.15a.5.5 0 0 1 .02-.727L28.455 8.5l.02-.019a3.5 3.5 0 0 0 0-4.956M12 29.293 9.208 26.5l3.146-3.146a.5.5 0 0 0-.708-.708L8.5 25.792 6.208 23.5l3.146-3.146a.5.5 0 0 0-.708-.708L5.5 22.792 2.708 20 9 13.708 18.293 23zM27.776 7.759l-7.636 6.854a1.5 1.5 0 0 0-.058 2.176l1.15 1.15a1.5 1.5 0 0 1 0 2.125L19 22.293 9.708 13l2.23-2.232a1.5 1.5 0 0 1 2.126 0l1.15 1.15a1.5 1.5 0 0 0 2.176-.058l6.854-7.636a2.5 2.5 0 0 1 3.535 3.535z"/></svg>