<svg xmlns="http://www.w3.org/2000/svg" width="32" height="32" fill="none" viewBox="0 0 32 32"><path fill="#000" d="M29 11.5h-2.5V8A1.5 1.5 0 0 0 25 6.5H6A1.5 1.5 0 0 0 4.5 8v3.5H2a.5.5 0 0 0 0 1h2.5V16A1.5 1.5 0 0 0 6 17.5h19a1.5 1.5 0 0 0 1.5-1.5v-3.5H29a.5.5 0 0 1 .5.5v6.25a.5.5 0 0 1-.363.48l-12.55 3.582A1.5 1.5 0 0 0 15.5 24.75V29a.5.5 0 0 0 1 0v-4.25a.5.5 0 0 1 .363-.48l12.55-3.582A1.5 1.5 0 0 0 30.5 19.25V13a1.5 1.5 0 0 0-1.5-1.5M25.5 16a.5.5 0 0 1-.5.5H6a.5.5 0 0 1-.5-.5V8a.5.5 0 0 1 .5-.5h19a.5.5 0 0 1 .5.5z"/></svg>