<svg xmlns="http://www.w3.org/2000/svg" width="32" height="32" fill="none" viewBox="0 0 32 32"><path fill="#000" d="M27 3.5H9A4.5 4.5 0 0 0 4.5 8v9A2.5 2.5 0 0 0 7 19.5h6a.5.5 0 0 1 .5.565l-.988 5.851a.5.5 0 0 0-.007.084 3.5 3.5 0 1 0 7 0 .5.5 0 0 0-.008-.084l-.997-5.851a.5.5 0 0 1 .5-.565h6a2.5 2.5 0 0 0 2.5-2.5V4a.5.5 0 0 0-.5-.5m-18 1h13.5V10a.5.5 0 0 0 1 0V4.5h3v9h-21V8A3.5 3.5 0 0 1 9 4.5m16 14h-6a1.5 1.5 0 0 0-1.485 1.712v.013l.985 5.815a2.5 2.5 0 0 1-5 0l.982-5.815v-.013A1.5 1.5 0 0 0 13 18.5H7A1.5 1.5 0 0 1 5.5 17v-2.5h21V17a1.5 1.5 0 0 1-1.5 1.5"/></svg>