<svg xmlns="http://www.w3.org/2000/svg" width="32" height="32" fill="none" viewBox="0 0 32 32"><path fill="#000" d="M24.75 7.093A12.41 12.41 0 0 0 16 3.5h-.125A12.5 12.5 0 0 0 3.5 16c0 5.153 3.194 9.481 8.336 11.298.378.134.777.203 1.178.203A3.5 3.5 0 0 0 16.5 24a2.5 2.5 0 0 1 2.5-2.5h5.776a3.48 3.48 0 0 0 3.413-2.72c.215-.947.32-1.916.311-2.888a12.4 12.4 0 0 0-3.75-8.8m2.468 11.465a2.486 2.486 0 0 1-2.442 1.942H19a3.5 3.5 0 0 0-3.5 3.5 2.5 2.5 0 0 1-3.33 2.354C7.439 24.683 4.5 20.715 4.5 16A11.5 11.5 0 0 1 15.881 4.5H16a11.5 11.5 0 0 1 11.215 14.058zM17 9.5a1 1 0 1 1-2 0 1 1 0 0 1 2 0m-5.5 3a1 1 0 1 1-2 0 1 1 0 0 1 2 0m0 7a1 1 0 1 1-2 0 1 1 0 0 1 2 0m11-7a1 1 0 1 1-2 0 1 1 0 0 1 2 0"/></svg>