<svg xmlns="http://www.w3.org/2000/svg" width="32" height="32" fill="none" viewBox="0 0 32 32"><path fill="#000" d="M28.5 15a12.5 12.5 0 0 0-25 0 .5.5 0 0 0 .2.4l11.8 8.85v3.25H14a.5.5 0 0 0 0 1h4a.5.5 0 0 0 0-1h-1.5v-3.25l11.8-8.85a.5.5 0 0 0 .2-.4m-1.011-.5H21.5c-.125-6.078-2.484-9.392-4-10.901A11.52 11.52 0 0 1 27.489 14.5M16 3.611a9.6 9.6 0 0 1 2.125 2.344c1.045 1.586 2.284 4.339 2.375 8.545h-8.994c.091-4.206 1.33-6.959 2.375-8.545A9.6 9.6 0 0 1 16 3.611M20.15 15.5 16 22.97l-4.15-7.47zm-9.444 0 3.718 6.692L5.5 15.5zm10.588 0H26.5l-8.924 6.692zM14.5 3.599c-1.516 1.508-3.875 4.823-4 10.901H4.511A11.52 11.52 0 0 1 14.5 3.599"/></svg>