<svg xmlns="http://www.w3.org/2000/svg" width="32" height="32" fill="none" viewBox="0 0 32 32"><path fill="#000" d="M5.5 7v18a.5.5 0 0 1-1 0V7a.5.5 0 1 1 1 0m11.15 7.289L13.5 15.31V12a.5.5 0 0 0-1 0v3.311L9.35 14.29a.5.5 0 0 0-.309.951l3.15 1.022-1.941 2.68a.5.5 0 1 0 .809.588L13 16.851l1.946 2.679a.5.5 0 0 0 .809-.588l-1.946-2.68 3.15-1.022a.499.499 0 0 0-.115-.974.5.5 0 0 0-.194.023m12.625.321a.5.5 0 0 0-.625-.321L25.5 15.31V12a.5.5 0 0 0-1 0v3.311l-3.15-1.022a.5.5 0 0 0-.309.951l3.15 1.022-1.941 2.68a.5.5 0 1 0 .809.588L25 16.851l1.946 2.679a.5.5 0 1 0 .809-.588l-1.946-2.68 3.15-1.022a.5.5 0 0 0 .321-.63z"/></svg>