<svg xmlns="http://www.w3.org/2000/svg" width="32" height="32" fill="none" viewBox="0 0 32 32"><path fill="#000" d="M26.5 10.5a3 3 0 1 0 0 5.999 3 3 0 0 0 0-5.999m0 5a2 2 0 1 1 0-4 2 2 0 0 1 0 4m-18-2a3 3 0 1 0-6 0 3 3 0 0 0 6 0m-3 2a2 2 0 1 1 0-4 2 2 0 0 1 0 4m6-5a3 3 0 1 0 0-6 3 3 0 0 0 0 6m0-5a2 2 0 1 1 0 4 2 2 0 0 1 0-4m9 5a3 3 0 1 0 0-6 3 3 0 0 0 0 6m0-5a2 2 0 1 1 0 4 2 2 0 0 1 0-4m2.648 13.545a4.92 4.92 0 0 1-2.347-2.94 5 5 0 0 0-9.602 0 4.91 4.91 0 0 1-2.341 2.939 4.5 4.5 0 0 0 3.892 8.102 8.52 8.52 0 0 1 6.494 0 4.5 4.5 0 0 0 3.904-8.099zM21 26.5a3.5 3.5 0 0 1-1.375-.279 9.52 9.52 0 0 0-7.264 0c-.43.184-.893.279-1.361.279a3.5 3.5 0 0 1-1.661-6.581 5.9 5.9 0 0 0 2.82-3.536 4 4 0 0 1 7.682 0 5.9 5.9 0 0 0 2.825 3.537A3.5 3.5 0 0 1 21 26.5"/></svg>