<svg xmlns="http://www.w3.org/2000/svg" width="32" height="32" fill="none" viewBox="0 0 32 32"><path fill="#000" d="M27.125 12a6.46 6.46 0 0 0-2.625-2A6.5 6.5 0 0 0 18 3.5h-7.5a1.5 1.5 0 0 0-1.456 1.136l-4.5 18A1.5 1.5 0 0 0 6 24.5h3.938q.071 0 .142-.008l-.536 2.144A1.5 1.5 0 0 0 11 28.5h3.938a1.5 1.5 0 0 0 1.454-1.136l1.125-4.485a.5.5 0 0 1 .486-.375h4a6.5 6.5 0 0 0 5.125-10.5zM6 23.5a.5.5 0 0 1-.486-.625l4.5-18A.5.5 0 0 1 10.5 4.5H18a5.5 5.5 0 0 1 5.491 5.171A6.6 6.6 0 0 0 22 9.5h-7a1.5 1.5 0 0 0-1.456 1.136l-3.12 12.489a.5.5 0 0 1-.485.375zm17.454-12.805q-.043.323-.125.639A5.49 5.49 0 0 1 18 15.5h-4.5q-.072 0-.143.008l1.157-4.625A.5.5 0 0 1 15 10.5h7c.491 0 .98.066 1.454.195m3.875 6.639A5.49 5.49 0 0 1 22 21.5h-4a1.5 1.5 0 0 0-1.455 1.136l-1.125 4.485a.5.5 0 0 1-.485.375H11a.5.5 0 0 1-.486-.625l2.5-10a.5.5 0 0 1 .486-.375H18a6.49 6.49 0 0 0 6.411-5.447 5.51 5.51 0 0 1 2.924 6.281z"/></svg>