<svg xmlns="http://www.w3.org/2000/svg" width="32" height="32" fill="none" viewBox="0 0 32 32"><path fill="#000" d="m27.344 15.708-.013-.024L23.5 8.868V4A1.5 1.5 0 0 0 22 2.5H10A1.5 1.5 0 0 0 8.5 4v4.875l-3.832 6.809-.013.024a1.5 1.5 0 0 0 .144 1.562l10.805 14.035a.5.5 0 0 0 .792 0l10.811-14.044a1.5 1.5 0 0 0 .137-1.553M10 3.5h12a.5.5 0 0 1 .5.5v4.5h-13V4a.5.5 0 0 1 .5-.5m6 15a2 2 0 1 1 0-4 2 2 0 0 1 0 4m10.409-1.84L16.5 29.531V19.458a3 3 0 1 0-1 0V29.53L5.598 16.668a.5.5 0 0 1-.05-.508L9.294 9.5h13.414l3.75 6.66a.5.5 0 0 1-.05.5"/></svg>