<svg xmlns="http://www.w3.org/2000/svg" width="32" height="32" fill="none" viewBox="0 0 32 32"><path fill="#000" d="M29.5 12.585a1.5 1.5 0 0 0-.439-1.06l-8.586-8.586a1.5 1.5 0 0 0-2.125 0L14.722 6.57 7.366 9.329a1.51 1.51 0 0 0-.954 1.157L3.506 27.918a.5.5 0 0 0 .576.576l17.43-2.907a1.5 1.5 0 0 0 1.16-.952l2.758-7.358 3.625-3.625a1.5 1.5 0 0 0 .445-1.067m-7.765 11.699a.5.5 0 0 1-.386.317L5.457 27.25l7.307-7.306a3 3 0 1 0-.708-.708L4.75 26.544 7.399 10.65a.5.5 0 0 1 .317-.386l7.159-2.685 9.544 9.545zM12.5 17.5a2 2 0 1 1 3.999 0 2 2 0 0 1-3.999 0m15.854-4.561L25 16.293 15.708 7l3.352-3.353a.5.5 0 0 1 .707 0l8.587 8.587a.5.5 0 0 1 0 .706z"/></svg>