<svg xmlns="http://www.w3.org/2000/svg" width="32" height="32" fill="none" viewBox="0 0 32 32"><path fill="#000" d="m28.061 9.525-5.586-5.586a1.5 1.5 0 0 0-2.125 0L4.939 19.354a1.5 1.5 0 0 0-.439 1.06V26A1.5 1.5 0 0 0 6 27.5h5.586a1.5 1.5 0 0 0 1.06-.439L23.73 15.978l.716 2.874-4.799 4.8a.5.5 0 1 0 .707.708l5-5a.5.5 0 0 0 .132-.475l-.932-3.725 3.507-3.508a1.5 1.5 0 0 0 0-2.127M5.5 26v-4.792l5.294 5.292H6a.5.5 0 0 1-.5-.5m6.5.293L5.708 20 17 8.707 23.294 15zm15.354-15.354L24 14.293 17.708 8l3.353-3.354a.5.5 0 0 1 .708 0l5.585 5.587a.5.5 0 0 1 0 .706"/></svg>