<svg xmlns="http://www.w3.org/2000/svg" width="32" height="32" fill="none" viewBox="0 0 32 32"><path fill="#000" d="M6.375 4.664a.504.504 0 0 0-.75.672l6.351 6.982-7.037 7.036a1.5 1.5 0 0 0-.439 1.06V26A1.5 1.5 0 0 0 6 27.5h5.586a1.5 1.5 0 0 0 1.06-.439l6.67-6.67 6.309 6.945a.499.499 0 1 0 .74-.672zm5.565 21.69a.5.5 0 0 1-.354.146H6a.5.5 0 0 1-.5-.5v-5.586a.5.5 0 0 1 .146-.353l7-7 5.993 6.593zM28.065 9.525l-5.59-5.585a1.5 1.5 0 0 0-2.125 0l-5.205 5.209a.5.5 0 0 0 .707.706L17 8.707 23.294 15l-1.482 1.481a.5.5 0 1 0 .707.708l5.542-5.543a1.5 1.5 0 0 0 0-2.121zm-.707 1.414L24 14.293 17.708 8l3.353-3.354a.51.51 0 0 1 .708 0l5.585 5.587a.5.5 0 0 1 0 .706z"/></svg>