<svg xmlns="http://www.w3.org/2000/svg" width="32" height="32" fill="none" viewBox="0 0 32 32"><path fill="#000" d="m28.061 9.525-5.586-5.586a1.5 1.5 0 0 0-2.125 0L4.939 19.354a1.5 1.5 0 0 0-.439 1.06V26A1.5 1.5 0 0 0 6 27.5h21a.5.5 0 0 0 0-1H13.208L28.06 11.646a1.5 1.5 0 0 0 0-2.121M9.208 23.5 20.5 12.208 23.294 15 12 26.293zm-.708-.707L5.707 20 17 8.707l2.794 2.793zM5.5 26v-4.792l2.646 2.646 2.646 2.646H6a.5.5 0 0 1-.5-.5m21.854-15.061L24 14.293 17.708 8l3.353-3.354a.5.5 0 0 1 .708 0l5.585 5.587a.5.5 0 0 1 0 .706"/></svg>