<svg xmlns="http://www.w3.org/2000/svg" width="32" height="32" fill="none" viewBox="0 0 32 32"><path fill="#000" d="m28.061 9.525-5.586-5.586a1.5 1.5 0 0 0-2.125 0L4.94 19.354a1.5 1.5 0 0 0-.44 1.06V26A1.5 1.5 0 0 0 6 27.5h5.586a1.5 1.5 0 0 0 1.06-.439L28.06 11.646a1.5 1.5 0 0 0 0-2.125zM5.708 20 17 8.706l2.793 2.794L8.5 22.793zM5.5 26v-4.792l2.646 2.646 2.646 2.646H6a.5.5 0 0 1-.5-.5m6.5.293L9.208 23.5 20.5 12.206 23.293 15zm15.354-15.354L24 14.293 17.708 8l3.352-3.354a.5.5 0 0 1 .707 0l5.587 5.585a.503.503 0 0 1 0 .708"/></svg>