<svg xmlns="http://www.w3.org/2000/svg" width="32" height="32" fill="none" viewBox="0 0 32 32"><path fill="#000" d="M6.375 4.664a.504.504 0 0 0-.75.672l6.351 6.982-7.037 7.036a1.5 1.5 0 0 0-.439 1.06V26A1.5 1.5 0 0 0 6 27.5h5.586a1.5 1.5 0 0 0 1.06-.439l6.67-6.67 6.309 6.945a.499.499 0 1 0 .74-.672zm8.94 11.32L8.5 22.793 5.707 20l6.943-6.943zM5.5 26v-4.792l5.293 5.292H6a.5.5 0 0 1-.5-.5m6.5.293L9.207 23.5l6.775-6.776 2.66 2.926zM28.061 9.525 22.475 3.94a1.5 1.5 0 0 0-2.125 0l-5.205 5.209a.5.5 0 0 0 .707.706L17 8.707l2.794 2.793-1.315 1.315a.498.498 0 0 0 .35.863.5.5 0 0 0 .356-.155l1.315-1.315L23.294 15l-1.482 1.481a.5.5 0 1 0 .707.708l5.542-5.543a1.5 1.5 0 0 0 0-2.121m-.707 1.414L24 14.293 17.708 8l3.353-3.354a.51.51 0 0 1 .708 0l5.585 5.587a.5.5 0 0 1 0 .706"/></svg>