<svg xmlns="http://www.w3.org/2000/svg" width="32" height="32" fill="none" viewBox="0 0 32 32"><path fill="#000" d="M24.839 7.161A12.5 12.5 0 1 0 7.16 24.84 12.499 12.499 0 1 0 24.84 7.16M13.089 16.5h5.822l2.16 4.681A3.5 3.5 0 0 0 16 22.2a3.5 3.5 0 0 0-5.071-1.019zm.462-1L16 10.194l2.449 5.306zM16.5 24a2.5 2.5 0 0 1 5 0v2.104a11.4 11.4 0 0 1-5 1.383zm-6 0a2.5 2.5 0 0 1 5 0v3.487a11.4 11.4 0 0 1-5-1.383zm13.631.131a11.6 11.6 0 0 1-1.631 1.356V22a.5.5 0 0 0-.046-.21l-6-13a.5.5 0 0 0-.908 0l-6 13A.5.5 0 0 0 9.5 22v3.487a11.6 11.6 0 0 1-1.625-1.356 11.5 11.5 0 1 1 16.263 0z"/></svg>