<svg xmlns="http://www.w3.org/2000/svg" width="32" height="32" fill="none" viewBox="0 0 32 32"><path fill="#000" d="M29.424 11.536A1.48 1.48 0 0 0 28 10.5h-8L17.427 2.56a1.491 1.491 0 0 0-2.853 0L12 10.5H4a1.5 1.5 0 0 0-.875 2.715l6.477 4.66-2.477 7.656a1.48 1.48 0 0 0 .545 1.677 1.475 1.475 0 0 0 1.761 0L16 22.478l6.573 4.73a1.5 1.5 0 0 0 2.308-1.677l-2.483-7.656 6.477-4.662a1.48 1.48 0 0 0 .549-1.677M15.526 2.86a.49.49 0 0 1 .949 0l2.477 7.64h-5.905zM3.71 12.404A.5.5 0 0 1 4 11.5h7.671l-1.75 5.375zm5.125 14a.5.5 0 0 1-.769-.559l2.385-7.35 4.689 3.375zm1.94-8.908 1.949-5.996h6.554l1.944 5.991L16 21.251zm13.151 8.35a.5.5 0 0 1-.771.557l-6.298-4.54 4.689-3.375zm4.363-13.438-6.214 4.467-1.75-5.375H28a.5.5 0 0 1 .295.903z"/></svg>