<svg xmlns="http://www.w3.org/2000/svg" width="32" height="32" fill="none" viewBox="0 0 32 32"><path fill="#000" d="M20.474 5.518A4.51 4.51 0 0 0 16 1.5a.5.5 0 0 0 0 1 3.5 3.5 0 0 1 3.466 3.021A7.51 7.51 0 0 0 12.5 13c0 6.094-3.339 10.168-9.925 12.109a1.5 1.5 0 0 0 .166 2.92c1.848.318 3.72.475 5.595.471 1.456.003 2.91-.093 4.354-.288 4.154-.573 7.525-1.926 10.024-4.022C25.89 21.526 27.5 17.761 27.5 13a7.51 7.51 0 0 0-7.026-7.482M20 6.5a6.51 6.51 0 0 1 6.274 4.805L24 12.443l-3.776-1.89a.5.5 0 0 0-.448 0L16 12.444l-2.274-1.138A6.51 6.51 0 0 1 20 6.5m2.071 16.924c-3.184 2.671-10.11 5.221-19.155 3.625a.5.5 0 0 1-.059-.976C9.82 24.017 13.5 19.5 13.5 13q0-.338.035-.674l2.241 1.125a.5.5 0 0 0 .448 0L20 11.56l3.776 1.889a.5.5 0 0 0 .448 0l2.241-1.125q.035.336.035.676c0 4.453-1.49 7.959-4.429 10.424"/></svg>