<svg xmlns="http://www.w3.org/2000/svg" width="32" height="32" fill="none" viewBox="0 0 32 32"><path fill="#000" d="M16 8.5a3.5 3.5 0 1 0 0-7 3.5 3.5 0 0 0 0 7m0-6a2.5 2.5 0 1 1 0 5 2.5 2.5 0 0 1 0-5m12.45 8.571A1.96 1.96 0 0 0 26.5 9.5h-21a2 2 0 0 0-.838 3.815h.008l6.736 2.966-2.74 10.413a2 2 0 0 0 .988 2.614 1.98 1.98 0 0 0 1.91-.115 2 2 0 0 0 .738-.827L16 22l3.697 6.375a2 2 0 0 0 3.634-1.669l-2.74-10.412 6.75-2.97a1.96 1.96 0 0 0 1.109-2.253m-1.526 1.333-7.125 3.139a.5.5 0 0 0-.283.585l2.859 10.865a1 1 0 0 0 .03.083 1 1 0 1 1-1.813.845l-.02-.038-4.14-7.133a.5.5 0 0 0-.865 0l-4.14 7.133-.02.038a1 1 0 0 1-1.335.497 1 1 0 0 1-.477-1.342 1 1 0 0 0 .03-.084l2.859-10.867a.5.5 0 0 0-.283-.585l-7.125-3.136A1 1 0 0 1 5.5 10.5h21a1 1 0 0 1 .426 1.904z"/></svg>