<svg xmlns="http://www.w3.org/2000/svg" width="32" height="32" fill="none" viewBox="0 0 32 32"><path fill="#000" d="M16 8.5a3.5 3.5 0 1 0 0-7 3.5 3.5 0 0 0 0 7m0-6a2.5 2.5 0 1 1 0 5 2.5 2.5 0 0 1 0-5m10.928 14.598-5.657-6.413A3.5 3.5 0 0 0 18.646 9.5h-5.292a3.5 3.5 0 0 0-2.625 1.185l-5.656 6.413a2 2 0 0 0 2.82 2.836l3.232-2.597-2.462 9.36a2 2 0 0 0 3.635 1.67L16 22l3.698 6.375a2 2 0 0 0 3.635-1.669l-2.458-9.369 3.238 2.597a2 2 0 0 0 2.82-2.837zm-.72 2.108a1 1 0 0 1-1.414 0l-.041-.036-4.44-3.56a.5.5 0 0 0-.797.516l2.86 10.866a1 1 0 0 0 .03.084 1 1 0 1 1-1.813.845l-.022-.04-4.138-7.131a.5.5 0 0 0-.865 0l-4.14 7.131-.022.04a1 1 0 1 1-1.812-.845 1 1 0 0 0 .03-.084l2.86-10.867a.5.5 0 0 0-.798-.516L7.25 19.17l-.041.036a1 1 0 0 1-1.414-1.413l.021-.023 5.663-6.424a2.5 2.5 0 0 1 1.875-.846h5.292a2.5 2.5 0 0 1 1.875.846l5.665 6.424.022.023a1 1 0 0 1 0 1.413"/></svg>