<svg xmlns="http://www.w3.org/2000/svg" width="32" height="32" fill="none" viewBox="0 0 32 32"><path fill="#000" d="M19 10.5a3.5 3.5 0 1 0 0-7 3.5 3.5 0 0 0 0 7m0-6a2.5 2.5 0 1 1 0 5 2.5 2.5 0 0 1 0-5m8.207 12.625c-.07.032-.855.375-2.26.375-1.732 0-4.406-.519-7.85-2.77a20.3 20.3 0 0 1-2.437 5.098c1.184.32 2.885.937 4.392 2.083 2.288 1.74 3.448 4.125 3.448 7.085a.5.5 0 1 1-1 0c0-1.986-.735-6.721-7.463-8.296q-.195.258-.402.51c-2.356 2.854-5.303 4.34-8.575 4.34q-.55 0-1.111-.056a.503.503 0 0 1 .1-1c3.416.341 6.382-.979 8.815-3.927 1.727-2.092 2.86-4.68 3.362-6.414-5.355-3.337-8.875-.6-8.915-.572a.502.502 0 0 1-.806-.244.5.5 0 0 1 .181-.536c.045-.036 1.125-.887 2.98-1.197 1.688-.284 4.375-.158 7.614 2.042 3.125 2.125 5.551 2.705 7.036 2.82 1.594.125 2.471-.25 2.48-.256a.5.5 0 0 1 .411.911z"/></svg>