<svg xmlns="http://www.w3.org/2000/svg" width="32" height="32" fill="none" viewBox="0 0 32 32"><path fill="#000" d="M28.429 16.258a.5.5 0 0 1-.686.17c-.048-.028-4.734-2.786-11.243-2.922v5.304l7.875 8.858a.501.501 0 1 1-.75.665L16 19.75l-7.625 8.583a.501.501 0 1 1-.75-.665L15.5 18.81v-5.304C8.991 13.642 4.305 16.4 4.258 16.43a.5.5 0 0 1-.515-.858C3.95 15.446 8.943 12.5 16 12.5c7.058 0 12.049 2.946 12.258 3.071a.497.497 0 0 1 .17.687M12.5 6a3.5 3.5 0 1 1 7 0 3.5 3.5 0 0 1-7 0m1 0a2.5 2.5 0 1 0 5 0 2.5 2.5 0 0 0-5 0"/></svg>