<svg xmlns="http://www.w3.org/2000/svg" width="32" height="32" fill="none" viewBox="0 0 32 32"><path fill="#000" d="M20.5 9.5a3 3 0 1 0 0-6 3 3 0 0 0 0 6m0-5a2 2 0 1 1 0 4 2 2 0 0 1 0-4m4.5 13a4.5 4.5 0 1 0 0 9 4.5 4.5 0 0 0 0-9m0 8a3.5 3.5 0 1 1 0-7 3.5 3.5 0 0 1 0 7m-18-8a4.5 4.5 0 1 0 0 9 4.5 4.5 0 0 0 0-9m0 8a3.5 3.5 0 1 1 0-7 3.5 3.5 0 0 1 0 7m17-11h-5a.5.5 0 0 1-.354-.146L15 10.708 11.707 14l4.647 4.646A.5.5 0 0 1 16.5 19v6a.5.5 0 0 1-1 0v-5.792l-4.854-4.854a.5.5 0 0 1 0-.708l4-4a.5.5 0 0 1 .708 0l3.854 3.854H24a.5.5 0 0 1 0 1"/></svg>