<svg xmlns="http://www.w3.org/2000/svg" width="32" height="32" fill="none" viewBox="0 0 32 32"><path fill="#000" d="M6.375 4.664a.504.504 0 0 0-.75.672l3.94 4.329a17.2 17.2 0 0 0-6.164 3.96c-2.315 2.316-2.538 5.729-.545 8.3a1.5 1.5 0 0 0 1.729.471l6.125-2.174.019-.006a1.5 1.5 0 0 0 .914-1.099l.737-3.688a.49.49 0 0 1 .314-.375 10 10 0 0 1 1.425-.375l11.509 12.657a.5.5 0 1 0 .74-.672zm6 9.45a1.5 1.5 0 0 0-.965 1.125l-.738 3.688a.5.5 0 0 1-.296.363l-6.125 2.172-.019.008a.5.5 0 0 1-.576-.151c-1.677-2.161-1.487-5.031.461-6.98a16.26 16.26 0 0 1 6.174-3.874l3.055 3.36q-.496.123-.979.289zm16.769 7.811a1.5 1.5 0 0 1-1.729.471l-1.164-.412a.5.5 0 0 1 .335-.943l1.172.415.018.008a.5.5 0 0 0 .576-.151c1.678-2.162 1.488-5.032-.46-6.98-3.31-3.308-7.974-5.06-12.802-4.81a.5.5 0 1 1-.051-1c5.107-.264 10.051 1.593 13.56 5.1 2.315 2.318 2.538 5.73.545 8.302"/></svg>