<svg xmlns="http://www.w3.org/2000/svg" width="32" height="32" fill="none" viewBox="0 0 32 32"><path fill="#000" d="M19.518 4.875a.5.5 0 0 1 .607-.359 10.28 10.28 0 0 1 7.358 7.359.5.5 0 0 1-.788.52.5.5 0 0 1-.178-.27 9.3 9.3 0 0 0-6.642-6.643.5.5 0 0 1-.358-.607m-.643 4.607c1.875.504 3.139 1.768 3.642 3.643a.5.5 0 0 0 .608.357.5.5 0 0 0 .354-.61c-.6-2.25-2.107-3.75-4.354-4.356a.5.5 0 0 0-.25.966m9.618 12.34A6.53 6.53 0 0 1 22 27.5c-9.65 0-17.5-7.85-17.5-17.5a6.53 6.53 0 0 1 5.678-6.489 1.5 1.5 0 0 1 1.56.899l2.637 5.893a1.5 1.5 0 0 1-.125 1.42l-.035.047-2.65 3.151a.49.49 0 0 0-.022.462c.98 2.006 3.08 4.09 5.11 5.07a.49.49 0 0 0 .463-.026l3.109-2.64.047-.036a1.5 1.5 0 0 1 1.423-.125l5.903 2.645a1.5 1.5 0 0 1 .89 1.552zm-1.294-.64-5.905-2.644a.49.49 0 0 0-.447.033l-3.097 2.64-.046.035a1.5 1.5 0 0 1-1.474.109c-2.25-1.086-4.489-3.31-5.575-5.534a1.5 1.5 0 0 1 .095-1.469q.017-.025.036-.048l2.649-3.15a.5.5 0 0 0 .029-.45L10.82 4.81a.5.5 0 0 0-.458-.311h-.06A5.53 5.53 0 0 0 5.5 10c0 9.098 7.403 16.5 16.5 16.5a5.53 5.53 0 0 0 5.5-4.802.5.5 0 0 0-.305-.515z"/></svg>