<svg xmlns="http://www.w3.org/2000/svg" width="32" height="32" fill="none" viewBox="0 0 32 32"><path fill="#000" d="M28.599 11.625c-6.83-6.833-18.368-6.833-25.198 0-2.315 2.313-2.538 5.726-.545 8.299a1.5 1.5 0 0 0 1.729.471l6.125-2.174.019-.007a1.5 1.5 0 0 0 .914-1.099l.737-3.689a.49.49 0 0 1 .314-.375 10.07 10.07 0 0 1 6.562-.015.49.49 0 0 1 .315.368l.78 3.721a1.5 1.5 0 0 0 .912 1.086l.018.008 6.134 2.176a1.5 1.5 0 0 0 1.729-.471c1.994-2.573 1.77-5.986-.545-8.299m-.25 7.689a.5.5 0 0 1-.576.151l-.02-.008-6.128-2.177a.5.5 0 0 1-.296-.359l-.777-3.718a1.5 1.5 0 0 0-.968-1.11c-2.34-.8-4.881-.793-7.218.018a1.5 1.5 0 0 0-.965 1.125l-.737 3.689a.5.5 0 0 1-.289.357L4.25 19.456l-.019.008a.5.5 0 0 1-.576-.152c-1.677-2.162-1.487-5.032.461-6.981C7.331 9.106 11.666 7.5 16 7.5s8.669 1.611 11.891 4.835c1.948 1.944 2.139 4.814.462 6.976zM27.5 25a.5.5 0 0 1-.5.5H5a.5.5 0 0 1 0-1h22a.5.5 0 0 1 .5.5"/></svg>