<svg xmlns="http://www.w3.org/2000/svg" width="32" height="32" fill="none" viewBox="0 0 32 32"><path fill="#000" d="m27.598 20.266-5.903-2.641a1.5 1.5 0 0 0-1.47.16l-3.1 2.642a.49.49 0 0 1-.462.027c-2.03-.98-4.132-3.065-5.112-5.071a.49.49 0 0 1 .023-.462l2.65-3.151.035-.047a1.5 1.5 0 0 0 .125-1.42L11.738 4.41a1.5 1.5 0 0 0-1.56-.899A6.53 6.53 0 0 0 4.5 10c0 9.65 7.85 17.5 17.5 17.5a6.53 6.53 0 0 0 6.489-5.677 1.5 1.5 0 0 0-.892-1.557m-.098 1.432A5.53 5.53 0 0 1 22 26.5c-9.097 0-16.5-7.402-16.5-16.5a5.53 5.53 0 0 1 4.803-5.5h.06a.5.5 0 0 1 .458.311l2.639 5.893a.5.5 0 0 1-.029.45l-2.648 3.15-.037.048a1.5 1.5 0 0 0-.097 1.47c1.086 2.223 3.326 4.447 5.575 5.533a1.5 1.5 0 0 0 1.474-.109l.046-.035 3.104-2.64a.49.49 0 0 1 .446-.034l5.901 2.646a.5.5 0 0 1 .305.515"/></svg>