<svg xmlns="http://www.w3.org/2000/svg" width="32" height="32" fill="none" viewBox="0 0 32 32"><path fill="#000" d="M30.207 7.835c-.84-1.448-3.322-1.725-7-.788A11.5 11.5 0 0 0 4.625 17.712c-2.673 2.712-3.68 5-2.835 6.453.516.889 1.625 1.339 3.25 1.339 1.04-.019 2.074-.15 3.085-.392q.326-.073.665-.16a11.5 11.5 0 0 0 18.585-10.668c1.596-1.625 2.664-3.16 3-4.434.211-.783.154-1.46-.168-2.015M16 5.5a10.52 10.52 0 0 1 10.297 8.445c-2.02 1.961-4.85 4.06-8.06 5.905-3.415 1.961-6.602 3.281-9.202 4A10.5 10.5 0 0 1 16 5.5M2.656 23.663c-.531-.913.313-2.7 2.219-4.758a11.5 11.5 0 0 0 3 5.231c-2.768.614-4.691.437-5.219-.473M16 26.5a10.45 10.45 0 0 1-6-1.887c2.697-.823 5.729-2.172 8.731-3.895 3.031-1.743 5.701-3.683 7.729-5.555.022.276.037.554.037.837A10.513 10.513 0 0 1 16 26.5M29.41 9.591c-.266 1-1.073 2.207-2.281 3.508a11.5 11.5 0 0 0-3.015-5.24c2.73-.603 4.698-.433 5.228.478.183.317.207.738.068 1.254"/></svg>