<svg xmlns="http://www.w3.org/2000/svg" width="32" height="32" fill="none" viewBox="0 0 32 32"><path fill="#000" d="M30.454 5.015a.5.5 0 0 0-.47-.469c-6.282-.375-11.305 1.513-13.44 5.036-1.455 2.403-1.396 5.24.155 8.027a8.4 8.4 0 0 0-2.082 4.301l-2.936-2.936c1.079-2 1.102-4.042.053-5.774C10.18 10.636 6.544 9.266 2 9.533a.5.5 0 0 0-.468.467c-.266 4.541 1.104 8.179 3.668 9.731.823.505 1.77.773 2.735.773a6.4 6.4 0 0 0 3.039-.825l3.526 3.53V27a.5.5 0 0 0 1 0v-3.686a7.45 7.45 0 0 1 1.911-5c1.436.795 2.884 1.195 4.28 1.195a7.1 7.1 0 0 0 3.727-1.052c3.522-2.136 5.406-7.16 5.036-13.442M5.717 18.875C3.56 17.57 2.375 14.461 2.51 10.51c3.951-.135 7.06 1.049 8.365 3.207.81 1.34.824 2.922.057 4.512l-3.58-3.583a.5.5 0 0 0-.706.706l3.584 3.584c-1.591.767-3.174.753-4.513-.061M24.9 17.6c-2.007 1.215-4.387 1.199-6.76-.031l7.215-7.216a.5.5 0 0 0-.706-.708l-7.217 7.216c-1.23-2.375-1.25-4.75-.031-6.76 1.889-3.125 6.385-4.816 12.079-4.58.237 5.694-1.46 10.19-4.58 12.079"/></svg>