<svg xmlns="http://www.w3.org/2000/svg" width="32" height="32" fill="none" viewBox="0 0 32 32"><path fill="#000" d="M29.354 8.646a.5.5 0 0 0-.708 0L24 13.292 18.708 8l4.646-4.646a.5.5 0 0 0-.708-.708L18 7.292l-3.646-3.646a.5.5 0 0 0-.708.708L14.792 5.5l-6.974 6.975a4.506 4.506 0 0 0 0 6.364l2.318 2.317-6.49 6.49a.5.5 0 0 0 .708.707l6.49-6.49 2.317 2.32a4.51 4.51 0 0 0 6.364 0l6.975-6.976 1.146 1.146a.5.5 0 1 0 .708-.707L24.708 14l4.646-4.646a.5.5 0 0 0 0-.708M18.818 23.475a3.5 3.5 0 0 1-4.95 0L8.526 18.13a3.5 3.5 0 0 1 0-4.949L15.5 6.207 25.793 16.5z"/></svg>