<svg xmlns="http://www.w3.org/2000/svg" width="32" height="32" fill="none" viewBox="0 0 32 32"><path fill="#000" d="M18.354 17.646a.5.5 0 0 0-.708 0L15 20.292 11.707 17l2.647-2.646a.5.5 0 0 0-.708-.708L11 16.292l-2.646-2.646a.5.5 0 1 0-.708.708L8.793 15.5l-3.268 3.267a3.5 3.5 0 0 0 0 4.95l1.025 1.025-3.904 3.904a.5.5 0 1 0 .708.708l3.904-3.904 1.025 1.025a3.5 3.5 0 0 0 4.95 0l3.267-3.268 1.146 1.147a.5.5 0 0 0 .708-.708L15.708 21l2.646-2.646a.5.5 0 0 0 0-.708m-5.829 8.125a2.5 2.5 0 0 1-3.535 0L6.233 23.01a2.5 2.5 0 0 1 0-3.535L9.5 16.207l6.293 6.293zM29.354 2.646a.5.5 0 0 0-.708 0L24.742 6.55l-1.024-1.025a3.5 3.5 0 0 0-4.95 0L15.5 8.792l-1.146-1.146a.5.5 0 0 0-.708.708l10 10a.5.5 0 0 0 .708-.708L23.208 16.5l3.267-3.268a3.5 3.5 0 0 0 0-4.95L25.45 7.257l3.904-3.903a.5.5 0 0 0 0-.708M26.5 10.757a2.48 2.48 0 0 1-.733 1.768L22.5 15.792 16.208 9.5l3.267-3.268a2.5 2.5 0 0 1 3.535 0l2.757 2.758a2.48 2.48 0 0 1 .733 1.767"/></svg>