<svg xmlns="http://www.w3.org/2000/svg" width="32" height="32" fill="none" viewBox="0 0 32 32"><path fill="#000" d="M29.354 2.646a.5.5 0 0 0-.708 0L21.742 9.55l-1.024-1.025a3.5 3.5 0 0 0-4.95 0L12.5 11.792l-1.146-1.146a.5.5 0 1 0-.708.708l1.146 1.146-3.267 3.267a3.5 3.5 0 0 0 0 4.95l1.025 1.025-6.904 6.904a.5.5 0 1 0 .708.708l6.903-6.904 1.026 1.025a3.5 3.5 0 0 0 4.95 0l3.267-3.268 1.146 1.147a.5.5 0 0 0 .708-.708L20.208 19.5l3.267-3.268a3.5 3.5 0 0 0 0-4.95l-1.025-1.025 6.904-6.903a.5.5 0 0 0 0-.708M15.525 22.771a2.5 2.5 0 0 1-3.535 0L9.233 20.01a2.5 2.5 0 0 1 0-3.535l3.267-3.268 6.293 6.293zm7.242-7.242L19.5 18.792 13.208 12.5l3.267-3.268a2.5 2.5 0 0 1 3.535 0l2.757 2.758a2.5 2.5 0 0 1 0 3.535zM11.527 4.157a.5.5 0 1 1 .947-.316l1 3a.499.499 0 1 1-.948.316zm-8 7.684a.5.5 0 0 1 .624-.316l3 1A.5.5 0 0 1 7 13.5a.5.5 0 0 1-.157-.026l-3-1a.5.5 0 0 1-.317-.633m24.947 8.318a.5.5 0 0 1-.631.315l-3-1a.5.5 0 0 1 .314-.95l3 1a.5.5 0 0 1 .317.635m-8 7.682a.5.5 0 0 1-.948.318l-1-3a.5.5 0 0 1 .948-.318z"/></svg>