<svg xmlns="http://www.w3.org/2000/svg" width="32" height="32" fill="none" viewBox="0 0 32 32"><path fill="#000" d="M28 7.5h-6.5V2a.5.5 0 0 0-1 0v5.5h-9V2a.5.5 0 0 0-1 0v5.5H4.069c-.553 0-.569.449-.569.5a.5.5 0 0 0 .5.5h2.5V20a4.5 4.5 0 0 0 4.5 4.5h4.5V30a.5.5 0 0 0 1 0v-5.5H21a4.5 4.5 0 0 0 4.5-4.5V8.5H28a.5.5 0 0 0 0-1M24.5 20a3.5 3.5 0 0 1-3.5 3.5H11A3.5 3.5 0 0 1 7.5 20V8.5h17zm-10.911-3.715a.5.5 0 0 1-.058-.46l1.5-4a.5.5 0 0 1 .938.35l-1.25 3.325H18a.498.498 0 0 1 .469.675l-1.5 4a.5.5 0 0 1-.938-.35l1.25-3.325H14a.5.5 0 0 1-.411-.215"/></svg>