<svg xmlns="http://www.w3.org/2000/svg" width="32" height="32" fill="none" viewBox="0 0 32 32"><path fill="#000" d="M16 3.5A12.5 12.5 0 1 0 28.5 16 12.514 12.514 0 0 0 16 3.5m0 19a6.5 6.5 0 1 1 6.5-6.5 6.507 6.507 0 0 1-6.5 6.5m4.934-12.141a7.46 7.46 0 0 0-4.434-1.84V4.51a11.46 11.46 0 0 1 7.266 3.015zM15.5 8.519a7.46 7.46 0 0 0-4.434 1.84L8.234 7.526A11.46 11.46 0 0 1 15.5 4.511zm-5.141 2.547a7.46 7.46 0 0 0-1.84 4.434H4.51a11.46 11.46 0 0 1 3.015-7.266zM8.519 16.5a7.46 7.46 0 0 0 1.84 4.434l-2.833 2.832A11.46 11.46 0 0 1 4.511 16.5zm2.547 5.141a7.46 7.46 0 0 0 4.434 1.84v4.008a11.46 11.46 0 0 1-7.266-3.015zm5.434 1.84a7.46 7.46 0 0 0 4.434-1.84l2.832 2.833a11.46 11.46 0 0 1-7.266 3.015zm5.141-2.547a7.46 7.46 0 0 0 1.84-4.434h4.008a11.46 11.46 0 0 1-3.015 7.266zm1.84-5.434a7.46 7.46 0 0 0-1.84-4.434l2.833-2.832a11.46 11.46 0 0 1 3.015 7.266z"/></svg>