<svg xmlns="http://www.w3.org/2000/svg" width="32" height="32" fill="none" viewBox="0 0 32 32"><path fill="#000" d="M28.476 6.524a3.5 3.5 0 0 0-5.685 1.081l-4.32-1.177a3.5 3.5 0 0 0-5.946-2.904 3.506 3.506 0 0 0-.435 4.421l-4.851 4.366a3.5 3.5 0 1 0 .235 5.164l.022-.024 9.415 6.905a3.5 3.5 0 1 0 4.714-1.456l3.695-10.469q.337.067.68.069a3.5 3.5 0 0 0 2.475-5.974zM13.233 4.23a2.5 2.5 0 1 1 3.534 3.536 2.5 2.5 0 0 1-3.534-3.536m-10 12.536a2.5 2.5 0 1 1 3.537-3.535 2.5 2.5 0 0 1-3.539 3.535zm18.537 11a2.5 2.5 0 1 1-3.533-3.537 2.5 2.5 0 0 1 3.532 3.539zm-1.087-5.2a3.5 3.5 0 0 0-3.157.958l-.022.024-9.415-6.904a3.52 3.52 0 0 0-.18-3.591l4.851-4.366a3.5 3.5 0 0 0 5.45-1.295l4.32 1.178a3.5 3.5 0 0 0 1.85 3.528zm7.087-11.8a2.5 2.5 0 1 1-3.533-3.54 2.5 2.5 0 0 1 3.532 3.54z"/></svg>