<svg xmlns="http://www.w3.org/2000/svg" width="32" height="32" fill="none" viewBox="0 0 32 32"><path fill="#000" d="m15.354 17.354 2.771-2.766c1.125.61 2.258.918 3.351.918a5.7 5.7 0 0 0 2.984-.842c2.802-1.698 4.301-5.681 4.009-10.658a.5.5 0 0 0-.469-.47c-4.976-.293-8.96 1.207-10.657 4.01-1.152 1.9-1.125 4.135.076 6.334L15 16.293l-2.132-2.133c.832-1.597.838-3.275 0-4.652C11.61 7.425 8.666 6.31 5 6.526A.5.5 0 0 0 4.526 7c-.216 3.67.899 6.615 2.982 7.875a4.3 4.3 0 0 0 2.242.625 5.25 5.25 0 0 0 2.418-.625l2.125 2.133-1.5 1.5H7a.5.5 0 0 0 0 1H8.6l1.739 7.817a1.49 1.49 0 0 0 1.465 1.175h8.396a1.49 1.49 0 0 0 1.463-1.175l1.74-7.825H25a.5.5 0 0 0 0-1H14.208zm2.837-9.29c1.453-2.4 4.909-3.714 9.297-3.551.16 4.387-1.152 7.842-3.552 9.296-1.635.99-3.596.915-5.536-.21-1.124-1.939-1.199-3.9-.209-5.535m-6.31 5.817c-1.355.774-2.72.824-3.855.135C6.348 13 5.42 10.586 5.5 7.5c3.08-.086 5.5.843 6.512 2.521.693 1.14.643 2.505-.13 3.86m10.5 5.625-1.69 7.61a.5.5 0 0 1-.488.39h-8.4a.5.5 0 0 1-.49-.39L9.626 19.5z"/></svg>