<svg xmlns="http://www.w3.org/2000/svg" width="32" height="32" fill="none" viewBox="0 0 32 32"><path fill="#000" d="M27 5.5H16.5V3a.5.5 0 0 0-1 0v2.5H5A1.5 1.5 0 0 0 3.5 7v15A1.5 1.5 0 0 0 5 23.5h5.96l-3.35 4.188a.5.5 0 1 0 .78.625l3.85-4.813h7.52l3.85 4.813a.5.5 0 0 0 .78-.625L21.04 23.5H27a1.5 1.5 0 0 0 1.5-1.5V7A1.5 1.5 0 0 0 27 5.5m.5 16.5a.5.5 0 0 1-.5.5H5a.5.5 0 0 1-.5-.5V7a.5.5 0 0 1 .5-.5h22a.5.5 0 0 1 .5.5zm-15-7v3a.5.5 0 0 1-1 0v-3a.5.5 0 0 1 1 0m4-2v5a.5.5 0 0 1-1 0v-5a.5.5 0 0 1 1 0m4-2v7a.5.5 0 0 1-1 0v-7a.5.5 0 0 1 1 0"/></svg>