<svg xmlns="http://www.w3.org/2000/svg" width="32" height="32" fill="none" viewBox="0 0 32 32"><path fill="#000" d="M11.5 18v-2a.5.5 0 0 1 1 0v2a.5.5 0 0 1-1 0m4.5.5a.5.5 0 0 0 .5-.5v-3a.5.5 0 0 0-1 0v3a.5.5 0 0 0 .5.5m4 0a.5.5 0 0 0 .5-.5v-4a.5.5 0 0 0-1 0v4a.5.5 0 0 0 .5.5m6.5-9v13H28a.5.5 0 0 1 0 1H16.5v3.05a2.5 2.5 0 1 1-1 0V23.5H4a.5.5 0 0 1 0-1h1.5v-13H5A1.5 1.5 0 0 1 3.5 8V6A1.5 1.5 0 0 1 5 4.5h22A1.5 1.5 0 0 1 28.5 6v2A1.5 1.5 0 0 1 27 9.5zM16 27.5a1.5 1.5 0 1 0 0 3 1.5 1.5 0 0 0 0-3M5 8.5h22a.5.5 0 0 0 .5-.5V6a.5.5 0 0 0-.5-.5H5a.5.5 0 0 0-.5.5v2a.5.5 0 0 0 .5.5m20.5 1h-19v13h19z"/></svg>