<svg xmlns="http://www.w3.org/2000/svg" width="32" height="32" fill="none" viewBox="0 0 32 32"><path fill="#000" d="M6.375 4.664a.504.504 0 1 0-.75.672L9.419 9.5c-1.242.11-2.783.568-4.36 1.839a1.5 1.5 0 0 0-.124 2.23l6.391 6.391-5.68 5.686a.5.5 0 1 0 .708.708l5.682-5.684 6.39 6.39a1.5 1.5 0 0 0 1.061.44h.107a1.5 1.5 0 0 0 1.09-.592 10.1 10.1 0 0 0 1.65-3.194l3.296 3.625a.502.502 0 0 0 .827-.12.5.5 0 0 0-.087-.553zm13.51 21.639a.5.5 0 0 1-.75.05L5.646 12.866a.5.5 0 0 1 .041-.75c1.76-1.42 3.453-1.687 4.626-1.64l11.21 12.332c-.264 1.432-1.023 2.682-1.638 3.495m9.176-13.657-5.58 5.604a.5.5 0 0 1-.709-.705l5.582-5.6a.5.5 0 0 0 0-.707l-7.585-7.592a.5.5 0 0 0-.708 0l-5.152 5.17a.5.5 0 0 1-.709-.706l5.154-5.17a1.5 1.5 0 0 1 2.125 0l7.582 7.585a1.5 1.5 0 0 1 0 2.121"/></svg>