<svg xmlns="http://www.w3.org/2000/svg" width="32" height="32" fill="none" viewBox="0 0 32 32"><path fill="#000" d="m29.061 10.525-7.586-7.586a1.5 1.5 0 0 0-2.125 0l-6.919 6.945c-1.01-.375-4.098-1.182-7.375 1.458a1.5 1.5 0 0 0-.125 2.23l6.392 6.392-5.677 5.682a.5.5 0 0 0 .708.708l5.682-5.684 6.39 6.39a1.5 1.5 0 0 0 1.062.44h.106a1.5 1.5 0 0 0 1.091-.593c2.479-3.294 2.064-5.897 1.464-7.32l6.912-6.937a1.5 1.5 0 0 0 0-2.125m-.707 1.414-7.159 7.186a.5.5 0 0 0-.094.576c1.304 2.607-.202 5.25-1.216 6.604a.498.498 0 0 1-.75.05L5.646 12.866a.5.5 0 0 1 .042-.75c1.617-1.3 3.17-1.649 4.367-1.649a5.5 5.5 0 0 1 2.27.455.5.5 0 0 0 .578-.093l7.158-7.183a.5.5 0 0 1 .708 0l7.585 7.586a.5.5 0 0 1 0 .707"/></svg>