<svg xmlns="http://www.w3.org/2000/svg" width="32" height="32" fill="none" viewBox="0 0 32 32"><path fill="#000" d="M27.268 20.241a.5.5 0 0 0-.483-.03 3 3 0 1 1 0-5.422.5.5 0 0 0 .715-.451V9A1.5 1.5 0 0 0 26 7.5h-5.125a4 4 0 1 0-7.75 0H8A1.5 1.5 0 0 0 6.5 9v4.625a4 4 0 1 0 0 7.75V26A1.5 1.5 0 0 0 8 27.5h18a1.5 1.5 0 0 0 1.5-1.5v-5.336a.5.5 0 0 0-.233-.423M26.5 26a.5.5 0 0 1-.5.5H8a.5.5 0 0 1-.5-.5v-5.336a.5.5 0 0 0-.714-.453 3.001 3.001 0 1 1 0-5.422.5.5 0 0 0 .714-.451V9a.5.5 0 0 1 .5-.5h5.836a.5.5 0 0 0 .453-.714 3 3 0 1 1 5.422 0 .5.5 0 0 0 .453.714H26a.5.5 0 0 1 .5.5v4.625a4 4 0 0 0-1.291-.117 4 4 0 1 0 1.291 7.867z"/></svg>