<svg xmlns="http://www.w3.org/2000/svg" width="32" height="32" fill="none" viewBox="0 0 32 32"><path fill="#000" d="M12.5 7.5H5A1.5 1.5 0 0 0 3.5 9v8A1.5 1.5 0 0 0 5 18.5h8V20a4.5 4.5 0 0 1-4.5 4.5.5.5 0 0 0 0 1A5.506 5.506 0 0 0 14 20V9a1.5 1.5 0 0 0-1.5-1.5m.5 10H5a.5.5 0 0 1-.5-.5V9a.5.5 0 0 1 .5-.5h7.5a.5.5 0 0 1 .5.5zm14-10h-7.5A1.5 1.5 0 0 0 18 9v8a1.5 1.5 0 0 0 1.5 1.5h8V20a4.5 4.5 0 0 1-4.5 4.5.5.5 0 0 0 0 1 5.506 5.506 0 0 0 5.5-5.5V9A1.5 1.5 0 0 0 27 7.5m.5 10h-8a.5.5 0 0 1-.5-.5V9a.5.5 0 0 1 .5-.5H27a.5.5 0 0 1 .5.5z"/></svg>