<svg xmlns="http://www.w3.org/2000/svg" width="32" height="32" fill="none" viewBox="0 0 32 32"><path fill="#000" d="M12.5 22a.5.5 0 0 1-.5.5H8a.5.5 0 0 1 0-1h4a.5.5 0 0 1 .5.5m-.5-4.5H8a.5.5 0 0 0 0 1h4a.5.5 0 0 0 0-1M28.5 11v14a1.5 1.5 0 0 1-1.5 1.5H5A1.5 1.5 0 0 1 3.5 25V10a.5.5 0 0 1 .356-.476l20-6a.5.5 0 0 1 .288.957L7.406 9.5H27a1.5 1.5 0 0 1 1.5 1.5m-1 0a.5.5 0 0 0-.5-.5H4.5V25a.5.5 0 0 0 .5.5h22a.5.5 0 0 0 .5-.5zm-3 7a4.5 4.5 0 1 1-9 0 4.5 4.5 0 0 1 9 0m-1 0a3.5 3.5 0 1 0-7 0 3.5 3.5 0 0 0 7 0M12 13.5H8a.5.5 0 0 0 0 1h4a.5.5 0 0 0 0-1"/></svg>