<svg xmlns="http://www.w3.org/2000/svg" width="32" height="32" fill="none" viewBox="0 0 32 32"><path fill="#000" d="M25 14.5a5.52 5.52 0 0 0-5.25 3.86 3.4 3.4 0 0 0-.75-.082c-1.93 0-3.5 1.625-3.5 3.61 0 1.987 1.57 3.612 3.5 3.612h6a5.5 5.5 0 0 0 0-11m0 10h-6c-1.375 0-2.5-1.171-2.5-2.611s1.125-2.611 2.5-2.611c.313-.001.622.06.911.178a.5.5 0 0 0 .68-.362A4.5 4.5 0 1 1 25 24.5M2.5 20v2a.5.5 0 0 1-1 0v-2a12.5 12.5 0 0 1 21.214-8.961.5.5 0 0 1-.697.711A11.5 11.5 0 0 0 2.5 20M14 12.5A7.51 7.51 0 0 0 6.5 20v2a.5.5 0 0 1-1 0v-2a8.5 8.5 0 0 1 13.53-6.852.5.5 0 1 1-.593.805A7.45 7.45 0 0 0 14 12.5m1.414 3.724a.5.5 0 0 1-.601.375A3.5 3.5 0 0 0 10.5 20v2a.5.5 0 0 1-1 0v-2a4.5 4.5 0 0 1 5.544-4.375.5.5 0 0 1 .37.599"/></svg>