<svg xmlns="http://www.w3.org/2000/svg" width="32" height="32" fill="none" viewBox="0 0 32 32"><path fill="#000" d="M26.261 5.399 9.98 2.524A1.5 1.5 0 0 0 8.241 3.74L4.523 24.865a1.5 1.5 0 0 0 1.216 1.738l16.282 2.874q.131.024.264.024a1.5 1.5 0 0 0 1.474-1.24l3.718-21.125A1.5 1.5 0 0 0 26.261 5.4m.232 1.563-3.72 21.126a.5.5 0 0 1-.578.406L5.913 25.619a.5.5 0 0 1-.405-.579L9.226 3.915a.5.5 0 0 1 .579-.406l16.282 2.875a.5.5 0 0 1 .406.578m-3.476 2.434a.5.5 0 0 1-.578.405L12.064 7.97a.5.5 0 1 1 .174-.985l10.375 1.832a.5.5 0 0 1 .404.58m-.692 3.939a.5.5 0 0 1-.58.405l-10.37-1.831a.5.5 0 1 1 .174-.985l10.375 1.832a.5.5 0 0 1 .401.579m-5.875 3.024a.5.5 0 0 1-.58.405l-5.186-.916a.502.502 0 0 1-.354-.77.5.5 0 0 1 .527-.214l5.187.915a.5.5 0 0 1 .401.58z"/></svg>