<svg xmlns="http://www.w3.org/2000/svg" width="32" height="32" fill="none" viewBox="0 0 32 32"><path fill="#000" d="M22.5 13a.5.5 0 0 1-.5.5H10a.5.5 0 0 1 0-1h12a.5.5 0 0 1 .5.5m-.5 3.5H10a.5.5 0 0 0 0 1h12a.5.5 0 0 0 0-1M28.5 7v19a.5.5 0 0 1-.724.448L24 24.558l-3.776 1.89a.5.5 0 0 1-.448 0L16 24.558l-3.776 1.89a.5.5 0 0 1-.448 0L8 24.558l-3.776 1.89A.5.5 0 0 1 3.5 26V7A1.5 1.5 0 0 1 5 5.5h22A1.5 1.5 0 0 1 28.5 7m-1 0a.5.5 0 0 0-.5-.5H5a.5.5 0 0 0-.5.5v18.191l3.276-1.639a.5.5 0 0 1 .448 0L12 25.443l3.776-1.89a.5.5 0 0 1 .448 0L20 25.443l3.776-1.89a.5.5 0 0 1 .448 0l3.276 1.64z"/></svg>