<svg xmlns="http://www.w3.org/2000/svg" width="32" height="32" fill="none" viewBox="0 0 32 32"><path fill="#000" d="M27 5.5H5A1.5 1.5 0 0 0 3.5 7v19a.5.5 0 0 0 .724.448L8 24.558l3.776 1.89a.5.5 0 0 0 .448 0L16 24.558l3.776 1.89a.5.5 0 0 0 .448 0L24 24.558l3.776 1.89a.51.51 0 0 0 .578-.094A.5.5 0 0 0 28.5 26V7A1.5 1.5 0 0 0 27 5.5m.5 19.691-3.276-1.639a.5.5 0 0 0-.448 0L20 25.443l-3.776-1.89a.5.5 0 0 0-.448 0L12 25.443l-3.776-1.89a.5.5 0 0 0-.448 0L4.5 25.193V7a.5.5 0 0 1 .5-.5h22a.5.5 0 0 1 .5.5zm-8.146-12.837L16.708 15l2.646 2.646a.5.5 0 0 1-.708.708L16 15.708l-2.646 2.646a.5.5 0 0 1-.708-.708L15.292 15l-2.646-2.646a.5.5 0 0 1 .708-.708L16 14.292l2.646-2.646a.501.501 0 0 1 .708.708"/></svg>