<svg xmlns="http://www.w3.org/2000/svg" width="32" height="32" fill="none" viewBox="0 0 32 32"><path fill="#000" d="M30.5 13a3.5 3.5 0 0 0-6.038-2.41c-2.237-1.264-5-1.992-7.875-2.081l.824-4.94 3.089.476a2.5 2.5 0 1 0 .183-.984l-3.61-.555a.5.5 0 0 0-.57.412l-.928 5.588c-2.935.065-5.758.795-8.038 2.084a3.5 3.5 0 1 0-4.662 5.186A6.9 6.9 0 0 0 2.5 18c0 2.573 1.429 4.979 4.022 6.775C9.062 26.533 12.428 27.5 16 27.5s6.939-.967 9.478-2.725C28.07 22.98 29.5 20.573 29.5 18a6.9 6.9 0 0 0-.375-2.224A3.52 3.52 0 0 0 30.5 13M23 2.5a1.5 1.5 0 1 1 0 3 1.5 1.5 0 0 1 0-3m5.066 13.281a6 6 0 0 1 .434 2.22c0 4.687-5.608 8.5-12.5 8.5S3.5 22.687 3.5 18c.001-.76.148-1.512.431-2.216a.5.5 0 0 0-.202-.625 2.5 2.5 0 1 1 3.293-3.625.5.5 0 0 0 .65.141l.03-.02C10 10.264 12.94 9.5 16 9.5s6 .764 8.296 2.151l.032.02a.5.5 0 0 0 .648-.14 2.5 2.5 0 1 1 3.294 3.624.5.5 0 0 0-.204.626m-7.625 5.985a.5.5 0 0 1-.206.675 9.03 9.03 0 0 1-8.47 0 .5.5 0 0 1 .47-.882 8.03 8.03 0 0 0 7.53 0 .5.5 0 0 1 .676.207M11 17.5a1.5 1.5 0 1 1 0-3 1.5 1.5 0 0 1 0 3M22.5 16a1.5 1.5 0 1 1-3 0 1.5 1.5 0 0 1 3 0"/></svg>