<svg xmlns="http://www.w3.org/2000/svg" width="32" height="32" fill="none" viewBox="0 0 32 32"><path fill="#000" d="M27.731 7.685a1.5 1.5 0 0 0-1.522.049L15.5 14.554V8.98a1.46 1.46 0 0 0-.769-1.295 1.5 1.5 0 0 0-1.522.049L2.185 14.75a1.477 1.477 0 0 0 0 2.492l11.024 7.02a1.5 1.5 0 0 0 2.086-.49c.135-.227.206-.487.205-.752v-5.574l10.709 6.82a1.5 1.5 0 0 0 2.087-.491c.135-.229.206-.49.204-.755V8.98a1.46 1.46 0 0 0-.769-1.295M14.5 23.02a.47.47 0 0 1-.25.419.49.49 0 0 1-.5-.017l-11.027-7.02a.475.475 0 0 1 0-.805l11.027-7.02a.493.493 0 0 1 .689.159.47.47 0 0 1 .066.244zm13 0a.47.47 0 0 1-.25.419.49.49 0 0 1-.5-.017l-11.022-7.02a.475.475 0 0 1 0-.805l11.022-7.02a.493.493 0 0 1 .689.159.47.47 0 0 1 .066.244z"/></svg>