<svg xmlns="http://www.w3.org/2000/svg" width="32" height="32" fill="none" viewBox="0 0 32 32"><path fill="#000" d="M25 6.5h-8.5V2a.5.5 0 0 0-1 0v4.5H7A3.5 3.5 0 0 0 3.5 10v14A3.5 3.5 0 0 0 7 27.5h18a3.5 3.5 0 0 0 3.5-3.5V10A3.5 3.5 0 0 0 25 6.5M27.5 24a2.5 2.5 0 0 1-2.5 2.5H7A2.5 2.5 0 0 1 4.5 24V10A2.5 2.5 0 0 1 7 7.5h18a2.5 2.5 0 0 1 2.5 2.5zm-7-6.5h-9a3 3 0 0 0 0 6h9a3 3 0 0 0 0-6m-3 1v4h-3v-4zm-8 2a2 2 0 0 1 2-2h2v4h-2a2 2 0 0 1-2-2m11 2h-2v-4h2a2 2 0 0 1 0 4m-11-9a1 1 0 1 1 2 0 1 1 0 0 1-2 0m11 0a1 1 0 1 1 2 0 1 1 0 0 1-2 0"/></svg>