<svg xmlns="http://www.w3.org/2000/svg" width="32" height="32" fill="none" viewBox="0 0 32 32"><path fill="#000" d="M18.5 28a.5.5 0 0 1-.5.5h-4a.5.5 0 1 1 0-1h4a.5.5 0 0 1 .5.5M16 13.5a1 1 0 1 0 0-2 1 1 0 0 0 0 2m11.465 5.875-1.546 6.95a1.49 1.49 0 0 1-.965 1.089 1.492 1.492 0 0 1-1.429-.239L19.981 24.5H12.02l-3.543 2.675a1.49 1.49 0 0 1-1.429.239 1.49 1.49 0 0 1-.965-1.09l-1.547-6.95a1.5 1.5 0 0 1 .313-1.284l3.668-4.404C8.93 7.02 13.745 2.851 15.081 1.82a1.5 1.5 0 0 1 1.838 0c1.336 1.032 6.152 5.2 6.565 11.867l3.668 4.404a1.5 1.5 0 0 1 .313 1.285M12.139 23.5h7.722C26.76 11.56 18.125 4.006 16.308 2.605a.5.5 0 0 0-.615 0C13.875 4.006 5.24 11.56 12.139 23.5m-.94.366C9.39 20.695 8.616 17.815 8.5 15.257l-2.885 3.468a.5.5 0 0 0-.104.429l1.545 6.953a.5.5 0 0 0 .801.283l.012-.009zm15.186-5.141L23.5 15.257c-.111 2.558-.885 5.438-2.694 8.61l3.33 2.514.012.009a.5.5 0 0 0 .8-.283l1.546-6.953a.5.5 0 0 0-.109-.43"/></svg>