<svg xmlns="http://www.w3.org/2000/svg" width="32" height="32" fill="none" viewBox="0 0 32 32"><path fill="#000" d="M12.01 19.99A8.44 8.44 0 0 1 14.5 26a.5.5 0 0 1-1 0A7.5 7.5 0 0 0 6 18.5a.5.5 0 0 1 0-1 8.44 8.44 0 0 1 6.01 2.49M6 11.5a.5.5 0 0 0 0 1A13.5 13.5 0 0 1 19.5 26a.5.5 0 0 0 1 0A14.5 14.5 0 0 0 6 11.5m14.5 0A20.36 20.36 0 0 0 6 5.5a.5.5 0 0 0 0 1 19.38 19.38 0 0 1 13.789 5.711 19.38 19.38 0 0 1 5.711 13.79.5.5 0 0 0 1 0 20.37 20.37 0 0 0-6-14.5m-14 13a1 1 0 1 0 0 2.001 1 1 0 0 0 0-2"/></svg>