<svg xmlns="http://www.w3.org/2000/svg" width="32" height="32" fill="none" viewBox="0 0 32 32"><path fill="#000" d="M25 2.5a.5.5 0 0 0-.5.5v2.5h-5V3a.5.5 0 0 0-1 0v2.5h-5V3a.5.5 0 0 0-1 0v2.5h-5V3a.5.5 0 1 0-1 0v26a.5.5 0 0 0 1 0v-2.5h5V29a.5.5 0 0 0 1 0v-2.5h5V29a.5.5 0 0 0 1 0v-2.5h5V29a.5.5 0 0 0 1 0V3a.5.5 0 0 0-.5-.5m-17.5 4h17v19h-17zm8.5 15a.5.5 0 0 0 .429-.242l3-5a.5.5 0 0 0 0-.515l-3-5a.5.5 0 0 0-.858 0l-3 5a.5.5 0 0 0 0 .515l3 5A.5.5 0 0 0 16 21.5m0-9.529L18.416 16 16 20.029 13.584 16z"/></svg>