<svg xmlns="http://www.w3.org/2000/svg" width="32" height="32" fill="none" viewBox="0 0 32 32"><path fill="#000" d="m29.061 9.525-6.586-6.586a1.5 1.5 0 0 0-2.125 0L2.939 20.354a1.5 1.5 0 0 0 0 2.125l6.586 6.582a1.5 1.5 0 0 0 2.125 0l17.411-17.415a1.5 1.5 0 0 0 0-2.121m-.707 1.414L10.939 28.354a.5.5 0 0 1-.707 0l-6.586-6.587a.5.5 0 0 1 0-.706L8 16.708l3.646 3.646a.501.501 0 0 0 .708-.708L8.706 16 12 12.707l3.646 3.647a.5.5 0 1 0 .708-.708L12.706 12 16 8.707l3.646 3.647a.501.501 0 0 0 .708-.708L16.708 8l4.353-4.354a.5.5 0 0 1 .706 0l6.587 6.586a.5.5 0 0 1 0 .707"/></svg>