<svg xmlns="http://www.w3.org/2000/svg" width="32" height="32" fill="none" viewBox="0 0 32 32"><path fill="#000" d="m29.464 16.814-4-10a.5.5 0 0 0-.572-.301L16.5 8.375V5a.5.5 0 0 0-1 0v3.599l-8.609 1.913a.5.5 0 0 0-.355.302l-4 10A.5.5 0 0 0 2.5 21c0 2.55 2.76 3.5 4.5 3.5s4.5-.95 4.5-3.5a.5.5 0 0 0-.036-.186L7.682 11.36 15.5 9.625V26.5H13a.5.5 0 0 0 0 1h6a.5.5 0 0 0 0-1h-2.5V9.401l7.684-1.707-3.648 9.125A.5.5 0 0 0 20.5 17c0 2.55 2.76 3.5 4.5 3.5s4.5-.95 4.5-3.5a.5.5 0 0 0-.036-.186M7 23.5c-.894 0-3.421-.445-3.5-2.409l3.5-8.75 3.5 8.75C10.421 23.055 7.894 23.5 7 23.5m18-4c-.894 0-3.421-.445-3.5-2.409l3.5-8.75 3.5 8.75c-.079 1.964-2.606 2.409-3.5 2.409"/></svg>