<svg xmlns="http://www.w3.org/2000/svg" width="32" height="32" fill="none" viewBox="0 0 32 32"><path fill="#000" d="M27.5 5v5a.5.5 0 0 1-1 0V5.5H22a.5.5 0 0 1 0-1h5a.5.5 0 0 1 .5.5M10 26.5H5.5V22a.5.5 0 0 0-1 0v5a.5.5 0 0 0 .5.5h5a.5.5 0 0 0 0-1m17-5a.5.5 0 0 0-.5.5v4.5H22a.5.5 0 0 0 0 1h5a.5.5 0 0 0 .5-.5v-5a.5.5 0 0 0-.5-.5m-22-11a.5.5 0 0 0 .5-.5V5.5H10a.5.5 0 0 0 0-1H5a.5.5 0 0 0-.5.5v5a.5.5 0 0 0 .5.5m16 12H11A1.5 1.5 0 0 1 9.5 21V11A1.5 1.5 0 0 1 11 9.5h10a1.5 1.5 0 0 1 1.5 1.5v10a1.5 1.5 0 0 1-1.5 1.5m.5-11.5a.5.5 0 0 0-.5-.5H11a.5.5 0 0 0-.5.5v10a.5.5 0 0 0 .5.5h10a.5.5 0 0 0 .5-.5z"/></svg>