<svg xmlns="http://www.w3.org/2000/svg" width="32" height="32" fill="none" viewBox="0 0 32 32"><path fill="#000" d="M20.125 13.859a.5.5 0 0 1 .131-.695l8.462-5.789a.5.5 0 0 1 .564.826l-8.458 5.788a.5.5 0 0 1-.695-.125zM29.413 24.5a.5.5 0 0 1-.695.125L17 16.606l-5.941 4.066a4 4 0 1 1-.566-.825L16.116 16l-5.625-3.847c-.052.06-.107.124-.163.175a3.983 3.983 0 1 1 .73-1l6.211 4.25 12.011 8.22a.5.5 0 0 1 .132.702M9.625 11.625q.195-.195.353-.422a3 3 0 1 0-.353.422M10.5 22.5a2.97 2.97 0 0 0-.519-1.686v-.008a3 3 0 1 0 .294 2.844c.15-.365.227-.755.225-1.15"/></svg>