<svg xmlns="http://www.w3.org/2000/svg" width="32" height="32" fill="none" viewBox="0 0 32 32"><path fill="#000" d="M28.5 7v18a1.5 1.5 0 0 1-1.5 1.5h-9a.5.5 0 0 1 0-1h9a.5.5 0 0 0 .5-.5V7a.5.5 0 0 0-.5-.5H5a.5.5 0 0 0-.5.5v5a.5.5 0 0 1-1 0V7A1.5 1.5 0 0 1 5 5.5h22A1.5 1.5 0 0 1 28.5 7M4 23.5a.5.5 0 0 0 0 1A1.5 1.5 0 0 1 5.5 26a.5.5 0 0 0 1 0A2.5 2.5 0 0 0 4 23.5m0-4a.5.5 0 0 0 0 1A5.506 5.506 0 0 1 9.5 26a.5.5 0 0 0 1 0A6.51 6.51 0 0 0 4 19.5m0-4a.5.5 0 0 0 0 1 9.51 9.51 0 0 1 9.5 9.5.5.5 0 0 0 1 0A10.51 10.51 0 0 0 4 15.5"/></svg>