<svg xmlns="http://www.w3.org/2000/svg" width="32" height="32" fill="none" viewBox="0 0 32 32"><path fill="#000" d="M30.375 19.665c-.165-.182-3.059-3.329-7.724-5.054-.157-2.32-.972-4.431-2.332-6.016C18.578 6.57 16.048 5.5 13 5.5c-6.186 0-10.237 5.573-10.407 5.81a.5.5 0 1 0 .813.581C3.445 11.838 7.335 6.5 13 6.5c2.75 0 5.014.95 6.556 2.75 1.139 1.326 1.851 3.078 2.058 5.016a17.2 17.2 0 0 0-5.039-.766c-3.137 0-5.761.81-7.586 2.344-1.581 1.33-2.489 3.175-2.489 5.062a5.46 5.46 0 0 0 1.586 3.903C9.2 25.915 10.75 26.5 12.575 26.5c6.454 0 9.984-5.51 10.098-10.79 4.258 1.697 6.92 4.584 6.956 4.625a.5.5 0 1 0 .742-.67zm-11.05 2.684c-1.171 1.437-3.293 3.151-6.75 3.151-3.486 0-5.075-2.375-5.075-4.594 0-3.085 2.84-6.406 9.075-6.406 1.734.007 3.457.292 5.1.846v.101c0 2.553-.858 5.066-2.354 6.902z"/></svg>