<svg xmlns="http://www.w3.org/2000/svg" width="32" height="32" fill="none" viewBox="0 0 32 32"><path fill="#000" d="M12.5 13a.5.5 0 0 1 .5-.5h8a.5.5 0 0 1 0 1h-8a.5.5 0 0 1-.5-.5m.5 4.5h8a.5.5 0 0 0 0-1h-8a.5.5 0 0 0 0 1M28.5 24a3.5 3.5 0 0 1-3.5 3.5H11A3.5 3.5 0 0 1 7.5 24V8a2.5 2.5 0 1 0-5 0c0 .973.793 1.594.8 1.6a.5.5 0 1 1-.6.8c-.049-.036-1.2-.918-1.2-2.4A3.5 3.5 0 0 1 5 4.5h17A3.5 3.5 0 0 1 25.5 8v13.5H27a.5.5 0 0 1 .3.1c.049.036 1.2.917 1.2 2.4m-15 0c0-.973-.793-1.594-.8-1.6a.5.5 0 0 1 .3-.9h11.5V8A2.5 2.5 0 0 0 22 5.5H7.446A3.49 3.49 0 0 1 8.5 8v16a2.5 2.5 0 0 0 5 0m14 0c0-.75-.468-1.288-.687-1.5H14.076c.275.452.422.97.424 1.5a3.5 3.5 0 0 1-1.053 2.5H25a2.5 2.5 0 0 0 2.5-2.5"/></svg>