<svg xmlns="http://www.w3.org/2000/svg" width="32" height="32" fill="none" viewBox="0 0 32 32"><path fill="#000" d="M27.875 13.198c-.5-.526-1.025-1.068-1.25-1.6-.206-.5-.216-1.192-.227-1.927-.018-1.125-.037-2.398-.854-3.217-.818-.819-2.093-.836-3.218-.854-.735-.011-1.428-.021-1.926-.227-.532-.22-1.075-.742-1.6-1.244-.835-.801-1.699-1.625-2.802-1.625-1.104 0-1.968.827-2.803 1.625-.525.5-1.067 1.025-1.6 1.25-.5.206-1.191.216-1.926.227-1.125.018-2.399.037-3.218.854-.818.818-.833 2.086-.85 3.211-.012.735-.022 1.429-.228 1.927-.22.532-.742 1.074-1.244 1.6-.801.835-1.625 1.698-1.625 2.802s.827 1.968 1.625 2.802c.5.526 1.025 1.068 1.25 1.6.206.5.216 1.192.227 1.927.018 1.125.037 2.398.854 3.217.818.819 2.093.837 3.218.854.735.011 1.428.021 1.926.228.532.22 1.075.74 1.6 1.243.835.802 1.699 1.625 2.802 1.625 1.104 0 1.968-.827 2.803-1.625.525-.5 1.067-1.025 1.6-1.25.5-.206 1.191-.216 1.926-.227 1.125-.018 2.399-.036 3.218-.854.818-.817.836-2.092.853-3.217.012-.736.022-1.43.228-1.927.22-.532.741-1.075 1.244-1.6.8-.835 1.625-1.698 1.625-2.802s-.83-1.961-1.628-2.796m-.722 4.912c-.568.591-1.155 1.204-1.447 1.91-.278.674-.29 1.5-.303 2.294-.015 1.025-.03 2-.562 2.525-.53.525-1.5.546-2.525.561-.796.013-1.625.025-2.293.304-.707.291-1.32.875-1.91 1.446-.727.694-1.41 1.35-2.113 1.35-.702 0-1.386-.656-2.11-1.35-.591-.567-1.204-1.155-1.91-1.446-.674-.279-1.5-.291-2.294-.304-1.025-.015-1.993-.03-2.525-.561-.53-.531-.546-1.5-.56-2.525-.013-.797-.026-1.625-.305-2.294-.29-.706-.875-1.319-1.446-1.91-.694-.724-1.35-1.407-1.35-2.11s.656-1.386 1.35-2.11c.568-.591 1.155-1.204 1.446-1.91.28-.674.292-1.5.304-2.294.015-1.025.03-1.993.561-2.525.532-.531 1.5-.546 2.525-.561.797-.012 1.625-.025 2.294-.304.706-.291 1.319-.875 1.91-1.446.724-.694 1.408-1.35 2.11-1.35.703 0 1.386.656 2.11 1.35.591.568 1.204 1.155 1.91 1.446.674.279 1.5.292 2.294.304 1.025.015 2 .03 2.525.561.525.532.546 1.5.561 2.525.013.797.025 1.625.304 2.294.291.706.875 1.319 1.446 1.91.694.724 1.35 1.407 1.35 2.11s-.656 1.386-1.35 2.11zm-5.797-5.464a.5.5 0 0 1 0 .708l-7 7a.5.5 0 0 1-.707 0l-3-3a.5.5 0 0 1 .707-.708L14 19.292l6.646-6.646a.5.5 0 0 1 .708 0z"/></svg>