<svg xmlns="http://www.w3.org/2000/svg" width="32" height="32" fill="none" viewBox="0 0 32 32"><path fill="#000" d="M13.5 5a.5.5 0 0 1 .5-.5h4a.5.5 0 0 1 0 1h-4a.5.5 0 0 1-.5-.5M18 26.5h-4a.5.5 0 0 0 0 1h4a.5.5 0 0 0 0-1m8-22h-3a.5.5 0 0 0 0 1h3a.5.5 0 0 1 .5.5v3a.5.5 0 0 0 1 0V6A1.5 1.5 0 0 0 26 4.5m1 9a.5.5 0 0 0-.5.5v4a.5.5 0 0 0 1 0v-4a.5.5 0 0 0-.5-.5m0 9a.5.5 0 0 0-.5.5v3a.5.5 0 0 1-.5.5h-3a.5.5 0 0 0 0 1h3a1.5 1.5 0 0 0 1.5-1.5v-3a.5.5 0 0 0-.5-.5m-22-4a.5.5 0 0 0 .5-.5v-4a.5.5 0 0 0-1 0v4a.5.5 0 0 0 .5.5m4 8H6a.5.5 0 0 1-.5-.5v-3a.5.5 0 0 0-1 0v3A1.5 1.5 0 0 0 6 27.5h3a.5.5 0 0 0 0-1m-4-17a.5.5 0 0 0 .5-.5V6a.5.5 0 0 1 .5-.5h3a.5.5 0 1 0 0-1H6A1.5 1.5 0 0 0 4.5 6v3a.5.5 0 0 0 .5.5M22.5 22a.5.5 0 0 1-.5.5H10a.5.5 0 0 1-.5-.5V10a.5.5 0 0 1 .5-.5h12a.5.5 0 0 1 .5.5zm-1-11.5h-11v11h11z"/></svg>