<svg xmlns="http://www.w3.org/2000/svg" width="32" height="32" fill="none" viewBox="0 0 32 32"><path fill="#000" d="M20 10.5H6A1.5 1.5 0 0 0 4.5 12v14A1.5 1.5 0 0 0 6 27.5h14a1.5 1.5 0 0 0 1.5-1.5V12a1.5 1.5 0 0 0-1.5-1.5m.5 15.5a.5.5 0 0 1-.5.5H6a.5.5 0 0 1-.5-.5V12a.5.5 0 0 1 .5-.5h14a.5.5 0 0 1 .5.5zm-3-21a.5.5 0 0 1 .5-.5h2a.5.5 0 0 1 0 1h-2a.5.5 0 0 1-.5-.5m10 1v1a.5.5 0 0 1-1 0V6a.5.5 0 0 0-.5-.5h-1a.5.5 0 0 1 0-1h1A1.5 1.5 0 0 1 27.5 6m0 6v2a.5.5 0 0 1-1 0v-2a.5.5 0 0 1 1 0m0 7v1a1.5 1.5 0 0 1-1.5 1.5h-1a.5.5 0 0 1 0-1h1a.5.5 0 0 0 .5-.5v-1a.5.5 0 0 1 1 0m-17-12V6A1.5 1.5 0 0 1 12 4.5h1a.5.5 0 0 1 0 1h-1a.5.5 0 0 0-.5.5v1a.5.5 0 0 1-1 0"/></svg>