<svg xmlns="http://www.w3.org/2000/svg" width="32" height="32" fill="none" viewBox="0 0 32 32"><path fill="#000" d="M18.5 5a.5.5 0 0 1-.5.5h-4a.5.5 0 0 1 0-1h4a.5.5 0 0 1 .5.5M18 26.5h-4a.5.5 0 0 0 0 1h4a.5.5 0 0 0 0-1M26.5 6v3a.5.5 0 0 0 1 0V6A1.5 1.5 0 0 0 26 4.5h-3a.5.5 0 0 0 0 1h3a.5.5 0 0 1 .5.5m.5 7.5a.5.5 0 0 0-.5.5v4a.5.5 0 0 0 1 0v-4a.5.5 0 0 0-.5-.5m-22 5a.5.5 0 0 0 .5-.5v-4a.5.5 0 0 0-1 0v4a.5.5 0 0 0 .5.5m4 8H6a.5.5 0 0 1-.5-.5v-3a.5.5 0 0 0-1 0v3A1.5 1.5 0 0 0 6 27.5h3a.5.5 0 0 0 0-1m0-22H6A1.5 1.5 0 0 0 4.5 6v3a.5.5 0 1 0 1 0V6a.5.5 0 0 1 .5-.5h3a.5.5 0 1 0 0-1m21 22h-2.5V24a.5.5 0 0 0-1 0v2.5H24a.5.5 0 0 0 0 1h2.5V30a.5.5 0 0 0 1 0v-2.5H30a.5.5 0 0 0 0-1"/></svg>