<svg xmlns="http://www.w3.org/2000/svg" width="32" height="32" fill="none" viewBox="0 0 32 32"><path fill="#000" d="M7.5 27a.5.5 0 0 1-.5.5H6A1.5 1.5 0 0 1 4.5 26v-1a.5.5 0 0 1 1 0v1a.5.5 0 0 0 .5.5h1a.5.5 0 0 1 .5.5m6.5-.5h-2a.5.5 0 0 0 0 1h2a.5.5 0 0 0 0-1m-9-6a.5.5 0 0 0 .5-.5v-2a.5.5 0 0 0-1 0v2a.5.5 0 0 0 .5.5m16 4a.5.5 0 0 0-.5.5v1a.5.5 0 0 1-.5.5h-1a.5.5 0 0 0 0 1h1a1.5 1.5 0 0 0 1.5-1.5v-1a.5.5 0 0 0-.5-.5m0-11a.5.5 0 0 0 .5-.5v-1a1.5 1.5 0 0 0-1.5-1.5h-1a.5.5 0 0 0 0 1h1a.5.5 0 0 1 .5.5v1a.5.5 0 0 0 .5.5m-14-3H6A1.5 1.5 0 0 0 4.5 12v1a.5.5 0 0 0 1 0v-1a.5.5 0 0 1 .5-.5h1a.5.5 0 0 0 0-1m19-6H12A1.5 1.5 0 0 0 10.5 6v5a.5.5 0 0 0 .5.5h3a.5.5 0 0 0 0-1h-2.5V6a.5.5 0 0 1 .5-.5h14a.5.5 0 0 1 .5.5v14a.5.5 0 0 1-.5.5h-4.5V18a.5.5 0 0 0-1 0v3a.5.5 0 0 0 .439.494q.03.006.061.006h5a1.5 1.5 0 0 0 1.5-1.5V6A1.5 1.5 0 0 0 26 4.5"/></svg>