<svg xmlns="http://www.w3.org/2000/svg" width="32" height="32" fill="none" viewBox="0 0 32 32"><path fill="#000" d="M26 5.5H6A1.5 1.5 0 0 0 4.5 7v7.346c0 10.859 9.193 14.463 11.035 15.075.302.102.628.102.93 0C18.308 28.81 27.5 25.205 27.5 14.346V7A1.5 1.5 0 0 0 26 5.5m.5 8.849c0 10.172-8.625 13.551-10.35 14.125a.44.44 0 0 1-.3 0C14.125 27.9 5.5 24.52 5.5 14.349V7a.5.5 0 0 1 .5-.5h20a.5.5 0 0 1 .5.5zm-5.146-1.703a.503.503 0 0 1 0 .708l-7 7a.503.503 0 0 1-.708 0l-3-3a.5.5 0 0 1 .708-.708L14 19.292l6.646-6.646a.503.503 0 0 1 .708 0"/></svg>