<svg xmlns="http://www.w3.org/2000/svg" width="32" height="32" fill="none" viewBox="0 0 32 32"><path fill="#000" d="M21.464 14.815a.5.5 0 0 1-.278.649l-4.395 1.758L19.4 20.7a.5.5 0 1 1-.8.6L16 17.834 13.4 21.3a.5.5 0 0 1-.8-.6l2.609-3.477-4.395-1.76a.5.5 0 1 1 .375-.927l4.311 1.725V12a.5.5 0 0 1 1 0v4.261l4.314-1.725a.5.5 0 0 1 .65.279M27.5 7v7.346c0 10.86-9.192 14.463-11.035 15.074a1.43 1.43 0 0 1-.93 0C13.693 28.811 4.5 25.209 4.5 14.349V7A1.5 1.5 0 0 1 6 5.5h20A1.5 1.5 0 0 1 27.5 7m-1 0a.5.5 0 0 0-.5-.5H6a.5.5 0 0 0-.5.5v7.346c0 10.173 8.625 13.552 10.35 14.125a.44.44 0 0 0 .299 0C17.875 27.9 26.5 24.521 26.5 14.35z"/></svg>