<svg xmlns="http://www.w3.org/2000/svg" width="32" height="32" fill="none" viewBox="0 0 32 32"><path fill="#000" d="M26 5.5H6A1.5 1.5 0 0 0 4.5 7v7.346c0 10.859 9.193 14.463 11.035 15.074q.225.076.463.077.237 0 .462-.077c1.848-.609 11.04-4.213 11.04-15.071V7A1.5 1.5 0 0 0 26 5.5m.5 1.5v7.346q-.002.592-.039 1.152H16.5V6.5H26a.5.5 0 0 1 .5.5m-21 0a.5.5 0 0 1 .5-.5h9.5v9H5.539c-.024-.375-.039-.75-.039-1.151zm.136 9.5H15.5v11.851C13.375 27.57 6.675 24.5 5.636 16.5M16.5 28.351V16.5h9.864c-1.039 8-7.739 11.069-9.864 11.851"/></svg>