<svg xmlns="http://www.w3.org/2000/svg" width="32" height="32" fill="none" viewBox="0 0 32 32"><path fill="#000" d="M26 5.5H6A1.5 1.5 0 0 0 4.5 7v7.346c0 10.859 9.193 14.463 11.035 15.074.301.103.629.103.93 0 1.843-.609 11.035-4.213 11.035-15.071V7A1.5 1.5 0 0 0 26 5.5m.5 8.849c0 10.172-8.625 13.551-10.351 14.125a.44.44 0 0 1-.299 0C14.125 27.9 5.5 24.52 5.5 14.349V7a.5.5 0 0 1 .5-.5h20a.5.5 0 0 1 .5.5zM20.5 16a.5.5 0 0 1-.5.5h-3.5V20a.5.5 0 0 1-1 0v-3.5H12a.5.5 0 0 1 0-1h3.5V12a.5.5 0 0 1 1 0v3.5H20a.5.5 0 0 1 .5.5"/></svg>