<svg xmlns="http://www.w3.org/2000/svg" width="32" height="32" fill="none" viewBox="0 0 32 32"><path fill="#000" d="M29.444 8.915a1.15 1.15 0 0 0-1-.791l-4.859-.412a.15.15 0 0 1-.125-.088l-1.901-4.429a1.155 1.155 0 0 0-2.119 0l-1.899 4.43a.15.15 0 0 1-.125.089l-4.862.411a1.15 1.15 0 0 0-1 .791 1.125 1.125 0 0 0 .347 1.209l3.687 3.149a.14.14 0 0 1 .045.136l-1.105 4.683a1.125 1.125 0 0 0 .436 1.178 1.15 1.15 0 0 0 1.277.061l4.178-2.482a.16.16 0 0 1 .161 0l4.178 2.482a1.15 1.15 0 0 0 1.276-.06 1.125 1.125 0 0 0 .436-1.18l-1.105-4.682a.14.14 0 0 1 .046-.136l3.686-3.149a1.125 1.125 0 0 0 .347-1.21m-1 .452-3.681 3.15a1.13 1.13 0 0 0-.376 1.124l1.113 4.684a.124.124 0 0 1-.055.143.15.15 0 0 1-.175.008l-4.176-2.483a1.16 1.16 0 0 0-1.184 0l-4.177 2.483a.15.15 0 0 1-.174-.008.125.125 0 0 1-.055-.143l1.105-4.682a1.14 1.14 0 0 0-.375-1.126l-3.684-3.15a.125.125 0 0 1-.043-.146.14.14 0 0 1 .126-.101l4.867-.411a1.15 1.15 0 0 0 .961-.69l1.899-4.43a.156.156 0 0 1 .281 0l1.899 4.428a1.14 1.14 0 0 0 .96.692l4.86.416a.14.14 0 0 1 .131.101.125.125 0 0 1-.042.141zm-18.09 5.987-7 7a.5.5 0 0 1-.708-.708l7-7a.5.5 0 0 1 .708.708m2 6.292a.5.5 0 0 1 0 .708l-7 7a.5.5 0 1 1-.708-.708l7-7a.5.5 0 0 1 .706 0zm9 0a.5.5 0 0 1 0 .708l-7 7a.5.5 0 0 1-.706-.708l7-7a.5.5 0 0 1 .704 0z"/></svg>