<svg xmlns="http://www.w3.org/2000/svg" width="32" height="32" fill="none" viewBox="0 0 32 32"><path fill="#000" d="M11.5 27a1.5 1.5 0 1 1-3 0 1.5 1.5 0 0 1 3 0M23 25.5a1.5 1.5 0 1 0 0 3 1.5 1.5 0 0 0 0-3m5.477-16.352-3.564 11.587a2.49 2.49 0 0 1-2.39 1.765H10.509a2.51 2.51 0 0 1-2.404-1.814L3.584 4.863a.5.5 0 0 0-.482-.363H1a.5.5 0 0 1 0-1h2.103a1.51 1.51 0 0 1 1.442 1.088L5.662 8.5H28a.5.5 0 0 1 .477.648m-1.154.352H5.948l3.117 10.913a1.51 1.51 0 0 0 1.444 1.087h12.014a1.49 1.49 0 0 0 1.433-1.059z"/></svg>