<svg xmlns="http://www.w3.org/2000/svg" width="32" height="32" fill="none" viewBox="0 0 32 32"><path fill="#000" d="M27.384 7.68A.5.5 0 0 0 27 7.5H6.418l-.686-3.769A1.5 1.5 0 0 0 4.257 2.5H2a.5.5 0 1 0 0 1h2.25a.5.5 0 0 1 .5.41l3.188 17.538a2.5 2.5 0 0 0 .937 1.533 3 3 0 1 0 3.859.519h7.532a3 3 0 1 0 2.234-1H10.396a1.5 1.5 0 0 1-1.475-1.231l-.5-2.769h15.092a2.5 2.5 0 0 0 2.46-2.052l1.52-8.358a.5.5 0 0 0-.11-.41M12.5 25.5a2 2 0 1 1-4 0 2 2 0 0 1 4 0m12 0a2 2 0 1 1-4 0 2 2 0 0 1 4 0m.489-9.231a1.5 1.5 0 0 1-1.477 1.231H8.236l-1.636-9H26.4z"/></svg>