<svg xmlns="http://www.w3.org/2000/svg" width="32" height="32" fill="none" viewBox="0 0 32 32"><path fill="#000" d="M7.5 29.5a1 1 0 1 1-2 0 1 1 0 0 1 2 0m3-5a1 1 0 1 0 0 2 1 1 0 0 0 0-2m-8 0a1 1 0 1 0 0 2 1 1 0 0 0 0-2m4-4a1 1 0 1 0 0 2 1 1 0 0 0 0-2M31.5 5a.5.5 0 0 1-.5.5h-3.586a.5.5 0 0 0-.353.146l-3.595 3.595-2.733 16.009a1.5 1.5 0 0 1-2.54.81L5.942 13.81a1.5 1.5 0 0 1 .807-2.542l16-2.734 3.595-3.595a1.5 1.5 0 0 1 1.069-.439H31a.5.5 0 0 1 .5.5m-9.111 4.611L6.92 12.251a.5.5 0 0 0-.274.847l12.25 12.25a.5.5 0 0 0 .848-.272z"/></svg>