<svg xmlns="http://www.w3.org/2000/svg" width="32" height="32" fill="none" viewBox="0 0 32 32"><path fill="#000" d="M17.5 14.5a1 1 0 1 1 2 0 1 1 0 0 1-2 0m9.991-4.169A9.51 9.51 0 0 1 18 19.5h-4a2 2 0 0 0 0 4h7a.5.5 0 0 1 0 1h-6.5v3H19a.5.5 0 0 1 0 1h-7a9.5 9.5 0 0 1 0-19h14.5a2 2 0 0 0 0-4H16A2.5 2.5 0 0 1 13.5 3a.5.5 0 0 1 1 0A1.5 1.5 0 0 0 16 4.5h10.5a3 3 0 0 1 .991 5.831M6.31 25.308l4.722-3.375a2.98 2.98 0 0 1 .219-1.633l-7.487-3.404a8.5 8.5 0 0 0 2.545 8.412m5.054-2.375-4.238 3.022A8.45 8.45 0 0 0 12 27.5h1.5v-3.043a3.01 3.01 0 0 1-2.137-1.53zm2.137-4.39V10.5H12a8.51 8.51 0 0 0-7.927 5.439l7.736 3.516a3 3 0 0 1 1.691-.912M26.485 10.5H14.5v8H18a8.51 8.51 0 0 0 8.485-8"/></svg>