<svg xmlns="http://www.w3.org/2000/svg" width="32" height="32" fill="none" viewBox="0 0 32 32"><path fill="#000" d="M29.354 22.646a.5.5 0 0 1 0 .708l-3 3a.5.5 0 0 1-.708-.708l2.146-2.146h-2.675a8.52 8.52 0 0 1-6.917-3.56l-5.214-7.299A7.51 7.51 0 0 0 6.883 9.5H4a.5.5 0 1 1 0-1h2.883a8.52 8.52 0 0 1 6.917 3.56l5.214 7.299a7.51 7.51 0 0 0 6.104 3.141h2.675l-2.147-2.146a.5.5 0 0 1 .708-.708zm-11.186-9.68a.5.5 0 0 0 .697-.116l.149-.209A7.51 7.51 0 0 1 25.118 9.5h2.675l-2.147 2.146a.5.5 0 1 0 .708.708l3-3a.5.5 0 0 0 0-.708l-3-3a.501.501 0 0 0-.708.708L27.792 8.5h-2.675a8.52 8.52 0 0 0-6.917 3.56l-.149.209a.5.5 0 0 0 .117.697m-4.335 6.068a.5.5 0 0 0-.698.116l-.149.209A7.51 7.51 0 0 1 6.883 22.5H4a.5.5 0 0 0 0 1h2.883a8.52 8.52 0 0 0 6.917-3.56l.149-.209a.5.5 0 0 0-.117-.697"/></svg>