<svg xmlns="http://www.w3.org/2000/svg" width="32" height="32" fill="none" viewBox="0 0 32 32"><path fill="#000" d="M29.354 22.646a.5.5 0 0 1 0 .708l-3 3a.5.5 0 0 1-.708-.708l2.146-2.146h-6.277a1.5 1.5 0 0 1-1.221-.625L10.893 9.709a.5.5 0 0 0-.408-.209H4a.5.5 0 1 1 0-1h6.485a1.5 1.5 0 0 1 1.221.625l9.402 13.164a.5.5 0 0 0 .407.208h6.278l-2.147-2.146a.5.5 0 0 1 .708-.707zm-11.186-9.68a.5.5 0 0 0 .697-.116l2.243-3.141a.5.5 0 0 1 .407-.209h6.278l-2.147 2.146a.5.5 0 1 0 .708.708l3-3a.5.5 0 0 0 0-.708l-3-3a.501.501 0 0 0-.708.708L27.792 8.5h-6.277a1.5 1.5 0 0 0-1.221.625l-2.243 3.144a.5.5 0 0 0 .117.697m-4.335 6.068a.5.5 0 0 0-.698.116l-2.242 3.141a.5.5 0 0 1-.408.209H4a.5.5 0 0 0 0 1h6.485a1.5 1.5 0 0 0 1.221-.625l2.243-3.141a.5.5 0 0 0-.117-.7"/></svg>