<svg xmlns="http://www.w3.org/2000/svg" width="32" height="32" fill="none" viewBox="0 0 32 32"><path fill="#000" d="M15.5 2V1a.5.5 0 0 1 1 0v1a.5.5 0 0 1-1 0M25 5.5a.5.5 0 0 0 .354-.146l1-1a.5.5 0 0 0-.708-.708l-1 1A.5.5 0 0 0 25 5.5M6.646 5.354a.5.5 0 1 0 .708-.708l-1-1a.5.5 0 1 0-.708.708zm10.436 4.152a.5.5 0 1 0-.165.988C19.53 10.93 21.5 13.299 21.5 16a.5.5 0 0 0 1 0c0-3.184-2.329-5.975-5.417-6.494M28.5 22v3a1.5 1.5 0 0 1-1.5 1.5H5A1.5 1.5 0 0 1 3.5 25v-3A1.5 1.5 0 0 1 5 20.5h.5V16A10.5 10.5 0 0 1 16 5.5h.08c5.75.043 10.42 4.809 10.42 10.625V20.5h.5a1.5 1.5 0 0 1 1.5 1.5m-22-1.5h19v-4.375c0-5.269-4.229-9.586-9.427-9.625A9.5 9.5 0 0 0 6.5 16zm21 1.5a.5.5 0 0 0-.5-.5H5a.5.5 0 0 0-.5.5v3a.5.5 0 0 0 .5.5h22a.5.5 0 0 0 .5-.5z"/></svg>