<svg xmlns="http://www.w3.org/2000/svg" width="32" height="32" fill="none" viewBox="0 0 32 32"><path fill="#000" d="M11.5 13.5a3 3 0 1 0 0 6 3 3 0 0 0 0-6m0 5a2 2 0 1 1 0-4 2 2 0 0 1 0 4m9-5a3 3 0 1 0 0 5.999 3 3 0 0 0 0-5.999m0 5a2 2 0 1 1 0-4 2 2 0 0 1 0 4M16 2.5c-6.892 0-12.5 5.384-12.5 12 0 4.179 2.291 8.08 6 10.25V27a1.5 1.5 0 0 0 1.5 1.5h10a1.5 1.5 0 0 0 1.5-1.5v-2.25c3.709-2.172 6-6.074 6-10.25 0-6.616-5.608-12-12.5-12m5.758 21.524a.5.5 0 0 0-.258.437V27a.5.5 0 0 1-.5.5h-2.5V24a.5.5 0 0 0-1 0v3.5h-3V24a.5.5 0 0 0-1 0v3.5H11a.5.5 0 0 1-.5-.5v-2.539a.5.5 0 0 0-.258-.437C6.7 22.06 4.5 18.41 4.5 14.5c0-6.065 5.159-11 11.5-11s11.5 4.935 11.5 11c0 3.911-2.2 7.56-5.742 9.524"/></svg>