<svg xmlns="http://www.w3.org/2000/svg" width="32" height="32" fill="none" viewBox="0 0 32 32"><path fill="#000" d="M26.8 16a3.5 3.5 0 1 0-4.3-5.446V7A3.5 3.5 0 0 0 16 5.2a3.5 3.5 0 1 0-5.446 4.3H7A3.5 3.5 0 0 0 5.2 16a3.499 3.499 0 1 0 4.3 5.446V25a3.5 3.5 0 0 0 6.5 1.801 3.5 3.5 0 1 0 5.446-4.301H25a3.5 3.5 0 0 0 1.8-6.5M9.5 19A2.5 2.5 0 1 1 7 16.5h2.5zm6 6a2.5 2.5 0 1 1-5 0v-6a2.5 2.5 0 0 1 2.5-2.5h2.5zm0-9.5H7a2.5 2.5 0 1 1 0-5h6a2.5 2.5 0 0 1 2.5 2.5zm0-6H13A2.5 2.5 0 1 1 15.5 7zm7 3.5a2.5 2.5 0 1 1 2.5 2.5h-2.5zm-6-6a2.5 2.5 0 0 1 5 0v6a2.5 2.5 0 0 1-2.5 2.5h-2.5zm5 18a2.5 2.5 0 1 1-5 0v-2.5H19a2.5 2.5 0 0 1 2.5 2.5m3.5-3.5h-6a2.5 2.5 0 0 1-2.5-2.5v-2.5H25a2.5 2.5 0 0 1 0 5"/></svg>