<svg xmlns="http://www.w3.org/2000/svg" width="32" height="32" fill="none" viewBox="0 0 32 32"><path fill="#000" d="M7.5 13.536V5a.5.5 0 1 0-1 0v8.536a3.5 3.5 0 0 0 0 6.928V27a.5.5 0 0 0 1 0v-6.536a3.5 3.5 0 0 0 0-6.928M7 19.5a2.5 2.5 0 1 1 0-5 2.5 2.5 0 0 1 0 5m9.5-11.964V5a.5.5 0 0 0-1 0v2.536a3.5 3.5 0 0 0 0 6.928V27a.5.5 0 0 0 1 0V14.464a3.5 3.5 0 0 0 0-6.928M16 13.5a2.5 2.5 0 1 1 0-5 2.5 2.5 0 0 1 0 5M28.5 21a3.5 3.5 0 0 0-3-3.464V5a.5.5 0 0 0-1 0v12.536a3.5 3.5 0 0 0 0 6.928V27a.5.5 0 0 0 1 0v-2.536a3.5 3.5 0 0 0 3-3.464M25 23.5a2.5 2.5 0 1 1 0-5 2.5 2.5 0 0 1 0 5"/></svg>