<svg xmlns="http://www.w3.org/2000/svg" width="32" height="32" fill="none" viewBox="0 0 32 32"><path fill="#000" d="M16 3.5A12.5 12.5 0 1 0 28.5 16 12.514 12.514 0 0 0 16 3.5m0 24A11.5 11.5 0 1 1 27.5 16 11.513 11.513 0 0 1 16 27.5m-5.5-14a1 1 0 1 1 2.002 0 1 1 0 0 1-2.002 0m12 0a.5.5 0 0 1-.5.5h-3a.5.5 0 0 1 0-1h3a.5.5 0 0 1 .5.5m-1.067 5.75C20.239 21.315 18.259 22.5 16 22.5s-4.239-1.185-5.432-3.25a.5.5 0 0 1 .864-.5c1.027 1.774 2.65 2.75 4.568 2.75 1.919 0 3.541-.976 4.567-2.75a.5.5 0 1 1 .866.5"/></svg>