<svg xmlns="http://www.w3.org/2000/svg" width="32" height="32" fill="none" viewBox="0 0 32 32"><path fill="#000" d="M16 3.5A12.5 12.5 0 1 0 28.5 16 12.514 12.514 0 0 0 16 3.5m0 24A11.5 11.5 0 1 1 27.5 16 11.513 11.513 0 0 1 16 27.5m7.354-15.146L21.708 14l1.646 1.646a.5.5 0 0 1-.708.708L21 14.708l-1.646 1.646a.5.5 0 0 1-.708-.708L20.292 14l-1.646-1.646a.5.5 0 1 1 .708-.708L21 13.292l1.646-1.646a.5.5 0 1 1 .708.708m-10 0L11.708 14l1.646 1.646a.501.501 0 0 1-.708.708L11 14.708l-1.646 1.646a.5.5 0 0 1-.708-.708L10.292 14l-1.646-1.646a.5.5 0 0 1 .708-.708L11 13.292l1.646-1.646a.5.5 0 1 1 .708.708M17 22.5a1 1 0 1 1-2 0 1 1 0 0 1 2 0"/></svg>