<svg xmlns="http://www.w3.org/2000/svg" width="32" height="32" fill="none" viewBox="0 0 32 32"><path fill="#000" d="M16 3.5a12.5 12.5 0 1 0 3.674 24.451.5.5 0 0 0 .207-.125l7.947-7.951a.5.5 0 0 0 .125-.206A12.51 12.51 0 0 0 16 3.5m11.031 15.763-7.768 7.768a11.485 11.485 0 1 1 7.768-7.768M10.5 13.5a1 1 0 1 1 2 0 1 1 0 0 1-2 0m11 0a1 1 0 1 1-2.002 0 1 1 0 0 1 2.002 0m-.067 5.75C20.239 21.315 18.259 22.5 16 22.5s-4.239-1.185-5.432-3.25a.5.5 0 0 1 .864-.5c1.027 1.774 2.65 2.75 4.568 2.75 1.919 0 3.541-.976 4.567-2.75a.499.499 0 1 1 .866.5"/></svg>