<svg xmlns="http://www.w3.org/2000/svg" width="32" height="32" fill="none" viewBox="0 0 32 32"><path fill="#000" d="M22.354 20.646a.5.5 0 0 1-.708.708L20 19.708l-1.646 1.646a.503.503 0 0 1-.708 0L16 19.708l-1.646 1.646a.503.503 0 0 1-.708 0L12 19.708l-1.646 1.646a.5.5 0 0 1-.708-.708l2-2a.5.5 0 0 1 .708 0L14 20.292l1.646-1.646a.5.5 0 0 1 .708 0L18 20.292l1.646-1.646a.5.5 0 0 1 .708 0zM28.5 16A12.5 12.5 0 1 1 16 3.5 12.514 12.514 0 0 1 28.5 16m-1 0A11.5 11.5 0 1 0 16 27.5 11.513 11.513 0 0 0 27.5 16m-16-1.5a1 1 0 1 0 0-2 1 1 0 0 0 0 2m9 0a1 1 0 1 0 0-2 1 1 0 0 0 0 2"/></svg>