<svg xmlns="http://www.w3.org/2000/svg" width="32" height="32" fill="none" viewBox="0 0 32 32"><path fill="#000" d="M12.5 17.5a1 1 0 1 1-2 0 1 1 0 0 1 2 0m8-1a1 1 0 1 0 0 2 1 1 0 0 0 0-2m8-.5A12.5 12.5 0 1 1 16 3.5 12.514 12.514 0 0 1 28.5 16m-1 0A11.5 11.5 0 1 0 16 27.5 11.513 11.513 0 0 0 27.5 16m-5.777-5.416L16 14.399l-5.722-3.815a.5.5 0 0 0-.694.139.5.5 0 0 0 .139.693l6 4a.5.5 0 0 0 .554 0l6-4a.501.501 0 0 0-.555-.832m-2.447 12C18.3 21.934 17.368 21.5 16 21.5s-2.299.434-3.276 1.084a.5.5 0 1 0 .552.832c.874-.58 1.599-.916 2.724-.916s1.85.336 2.724.916a.5.5 0 1 0 .552-.832"/></svg>