<svg xmlns="http://www.w3.org/2000/svg" width="32" height="32" fill="none" viewBox="0 0 32 32"><path fill="#000" d="m28.423 16.614-7.59-2.53a3.5 3.5 0 0 1-2.083-1.893L15.836 5.39a1.5 1.5 0 0 0-1.883-.8L4.488 8.031a1.5 1.5 0 0 0-.988 1.41V24A1.5 1.5 0 0 0 5 25.5h25a1.5 1.5 0 0 0 1.5-1.5v-3.117a4.5 4.5 0 0 0-3.078-4.27M4.828 8.97l9.465-3.441a.5.5 0 0 1 .625.26l1.102 2.585-3.192 1.161A.5.5 0 0 0 13 10.5q.088 0 .171-.03l3.244-1.18.986 2.305-2.572.935a.5.5 0 1 0 .342.94l2.625-.955.032.075c.359.805.947 1.488 1.69 1.963l-2.688.977a.5.5 0 0 0 .341.94l3.663-1.332 7.272 2.425a3.5 3.5 0 0 1 2.375 2.937H4.5V9.441a.5.5 0 0 1 .329-.47M30 24.5H5a.5.5 0 0 1-.5-.5v-2.5h26V24a.5.5 0 0 1-.5.5"/></svg>