<svg xmlns="http://www.w3.org/2000/svg" width="32" height="32" fill="none" viewBox="0 0 32 32"><path fill="#000" d="M27 19.5a4.5 4.5 0 0 1-4.5-4.5v-3.039a1.5 1.5 0 0 0-1.369-1.492c-3.264-.264-5.471-2.426-5.625-5.509a1.5 1.5 0 0 0-.436-.989l-1.029-1.029a1.49 1.49 0 0 0-2.095-.025l-.008.01-8 8.014a1.5 1.5 0 0 0 0 2.125l13.408 13a1.5 1.5 0 0 0 1.06.439H30a1.5 1.5 0 0 0 1.5-1.5v-1A4.5 4.5 0 0 0 27 19.5m3.5 5.5a.5.5 0 0 1-.5.5H18.414a.5.5 0 0 1-.359-.151L4.646 12.355a.5.5 0 0 1 0-.706l8-8.011a.5.5 0 0 1 .694.012l1.029 1.028a.5.5 0 0 1 .145.33c.177 3.617 2.75 6.15 6.541 6.457a.5.5 0 0 1 .449.5V14.5H19a.5.5 0 0 0 0 1h2.524a5.5 5.5 0 0 0 1.236 3H20a.5.5 0 0 0 0 1h3.844c.923.651 2.026 1 3.156 1a3.5 3.5 0 0 1 3.5 3.5zM8 22.5H4a.5.5 0 0 1 0-1h4a.5.5 0 0 1 0 1m4.5 3.5a.5.5 0 0 1-.5.5H6a.5.5 0 0 1 0-1h6a.5.5 0 0 1 .5.5"/></svg>