<svg xmlns="http://www.w3.org/2000/svg" width="32" height="32" fill="none" viewBox="0 0 32 32"><path fill="#000" d="M27.485 18.881a.5.5 0 0 1-.366.604l-3.575.875.939 3.515a.502.502 0 0 1-.48.63.5.5 0 0 1-.482-.375l-1.02-3.8-6-3.464v6.927l2.853 2.853a.5.5 0 1 1-.708.708L16 24.708l-2.646 2.646a.5.5 0 1 1-.708-.708l2.854-2.854v-6.926l-6 3.464-1.017 3.795a.5.5 0 0 1-.608.358.5.5 0 0 1-.354-.613l.94-3.506-3.576-.875a.503.503 0 0 1 .24-.974L9 19.466 15 16l-6-3.466-3.875.951a.506.506 0 0 1-.624-.422.5.5 0 0 1 .374-.548l3.575-.875-.932-3.515a.5.5 0 0 1 .965-.25L9.5 11.67l6 3.464V8.208l-2.854-2.854a.5.5 0 0 1 .708-.708L16 7.293l2.646-2.647a.5.5 0 0 1 .708.708L16.5 8.208v6.926l6-3.464 1.018-3.795a.5.5 0 0 1 .965.25l-.94 3.506 3.576.875A.5.5 0 1 1 27 13.5a.5.5 0 0 1-.125-.015L23 12.534 17 16l6 3.466 3.875-.951a.5.5 0 0 1 .61.366"/></svg>