<svg xmlns="http://www.w3.org/2000/svg" width="32" height="32" fill="none" viewBox="0 0 32 32"><path fill="#000" d="M16 3.5A12.5 12.5 0 1 0 28.5 16 12.514 12.514 0 0 0 16 3.5m5.109 18.428-1.462-2.012 1.744-5.08 2.367-.768 3.706 2.842a11.4 11.4 0 0 1-1.613 5.017zm-10.218 0H6.15a11.4 11.4 0 0 1-1.613-5.018l3.707-2.842 2.366.768 1.743 5.08zM6.461 9.581l1.109 3.74-3.07 2.352c.06-2.176.74-4.29 1.961-6.091m6.805 9.918-1.67-4.865L16 11.606l4.404 3.029-1.67 4.865zm11.164-6.177 1.109-3.74a11.43 11.43 0 0 1 1.961 6.09zm.359-4.73-1.34 4.523-2.375.77-4.574-3.148V8.262l4.085-2.807a11.56 11.56 0 0 1 4.204 3.137m-5.347-3.567L16 7.394l-3.443-2.368a11.52 11.52 0 0 1 6.885 0m-8.027.429L15.5 8.262v2.476l-4.58 3.148-2.375-.77-1.334-4.523a11.56 11.56 0 0 1 4.204-3.138M6.826 22.927h3.967l1.387 3.92a11.56 11.56 0 0 1-5.354-3.92m6.538 4.268-1.659-4.687 1.46-2.008h5.67l1.46 2.008-1.659 4.687a11.55 11.55 0 0 1-5.272 0m6.456-.348 1.387-3.92h3.967a11.56 11.56 0 0 1-5.354 3.92"/></svg>