<svg xmlns="http://www.w3.org/2000/svg" width="32" height="32" fill="none" viewBox="0 0 32 32"><path fill="#000" d="M2.5 15v6a.5.5 0 0 1-1 0v-6a.5.5 0 0 1 1 0M6 11.5a.5.5 0 0 0-.5.5v12a.5.5 0 0 0 1 0V12a.5.5 0 0 0-.5-.5m4-1a.5.5 0 0 0-.5.5v13a.5.5 0 0 0 1 0V11a.5.5 0 0 0-.5-.5m4-4a.5.5 0 0 0-.5.5v17a.5.5 0 0 0 1 0V7a.5.5 0 0 0-.5-.5m13.409 7.182A9.5 9.5 0 0 0 18 5.5a.5.5 0 0 0 0 1 8.47 8.47 0 0 1 8.458 7.641.5.5 0 0 0 .402.441A4.5 4.5 0 0 1 26 23.5h-8a.5.5 0 0 0 0 1h8a5.5 5.5 0 0 0 1.409-10.817"/></svg>