<svg xmlns="http://www.w3.org/2000/svg" width="32" height="32" fill="none" viewBox="0 0 32 32"><path fill="#000" d="m24.525 16.601-6.457-2.375a.49.49 0 0 1-.29-.29L15.403 7.48a1.491 1.491 0 0 0-2.798 0l-2.375 6.457a.49.49 0 0 1-.29.29l-6.457 2.375a1.491 1.491 0 0 0 0 2.798l6.457 2.375a.49.49 0 0 1 .29.29l2.375 6.457a1.491 1.491 0 0 0 2.797 0l2.376-6.457a.5.5 0 0 1 .29-.29l6.457-2.375a1.491 1.491 0 0 0 0-2.798m-.346 1.859-6.456 2.375a1.49 1.49 0 0 0-.884.884l-2.375 6.456a.49.49 0 0 1-.92 0l-2.375-6.456a1.5 1.5 0 0 0-.884-.884L3.829 18.46a.49.49 0 0 1 0-.92l6.456-2.375a1.49 1.49 0 0 0 .884-.884l2.375-6.456a.49.49 0 0 1 .92 0l2.375 6.456a1.5 1.5 0 0 0 .884.884l6.456 2.375a.49.49 0 0 1 0 .92M18.5 5a.5.5 0 0 1 .5-.5h2.5V2a.5.5 0 0 1 1 0v2.5H25a.5.5 0 0 1 0 1h-2.5V8a.5.5 0 0 1-1 0V5.5H19a.5.5 0 0 1-.5-.5m12 6a.5.5 0 0 1-.5.5h-1.5V13a.5.5 0 0 1-1 0v-1.5H26a.5.5 0 0 1 0-1h1.5V9a.5.5 0 0 1 1 0v1.5H30a.5.5 0 0 1 .5.5"/></svg>