<svg xmlns="http://www.w3.org/2000/svg" width="32" height="32" fill="none" viewBox="0 0 32 32"><path fill="#000" d="M19.22 3.551a.5.5 0 0 0-.527.054L9.828 10.5H4A1.5 1.5 0 0 0 2.5 12v8A1.5 1.5 0 0 0 4 21.5h5.829l8.863 6.895a.51.51 0 0 0 .528.054.5.5 0 0 0 .28-.45V4a.5.5 0 0 0-.28-.448M3.5 20v-8a.5.5 0 0 1 .5-.5h5.5v9H4a.5.5 0 0 1-.5-.5m15 6.977-8-6.227v-9.5l8-6.223zm5.875-13.95a4.5 4.5 0 0 1 0 5.948.502.502 0 0 1-.825-.112.5.5 0 0 1 .075-.55 3.5 3.5 0 0 0 0-4.626.5.5 0 0 1 .75-.66M30.5 16a9.49 9.49 0 0 1-2.419 6.334.502.502 0 1 1-.75-.668 8.5 8.5 0 0 0 0-11.332.502.502 0 0 1 .75-.668A9.49 9.49 0 0 1 30.5 16"/></svg>