<svg xmlns="http://www.w3.org/2000/svg" width="32" height="32" fill="none" viewBox="0 0 32 32"><path fill="#000" d="M19.22 3.551a.5.5 0 0 0-.527.054L9.828 10.5H4A1.5 1.5 0 0 0 2.5 12v8A1.5 1.5 0 0 0 4 21.5h5.829l8.863 6.895a.51.51 0 0 0 .528.054.5.5 0 0 0 .28-.45V4a.5.5 0 0 0-.28-.448m-.72 23.426-8.192-6.375A.5.5 0 0 0 10 20.5H4a.5.5 0 0 1-.5-.5v-8a.5.5 0 0 1 .5-.5h6c.111 0 .22-.037.307-.105L18.5 5.02zm11.854-8.33a.5.5 0 0 1-.708.707L27 16.707l-2.646 2.647a.5.5 0 1 1-.708-.708L26.292 16l-2.646-2.646a.5.5 0 1 1 .708-.708L27 15.292l2.646-2.646a.501.501 0 0 1 .708.708L27.708 16z"/></svg>