<svg xmlns="http://www.w3.org/2000/svg" width="32" height="32" fill="none" viewBox="0 0 32 32"><path fill="#000" d="M16.5 4v4a.5.5 0 0 1-1 0V4a.5.5 0 0 1 1 0M28 15.5h-4a.5.5 0 0 0 0 1h4a.5.5 0 0 0 0-1m-5.99 5.804a.501.501 0 1 0-.706.706l2.827 2.829a.5.5 0 1 0 .708-.708zM16 23.5a.5.5 0 0 0-.5.5v4a.5.5 0 0 0 1 0v-4a.5.5 0 0 0-.5-.5m-6.01-2.196L7.161 24.13a.502.502 0 1 0 .714.708l2.828-2.829a.5.5 0 1 0-.707-.706zM8.5 16a.5.5 0 0 0-.5-.5H4a.5.5 0 0 0 0 1h4a.5.5 0 0 0 .5-.5m-.625-8.839a.505.505 0 1 0-.714.714l2.829 2.821a.5.5 0 1 0 .706-.706z"/></svg>