<svg xmlns="http://www.w3.org/2000/svg" width="32" height="32" fill="none" viewBox="0 0 32 32"><path fill="#000" d="M16 3.5A12.5 12.5 0 1 0 28.5 16 12.514 12.514 0 0 0 16 3.5m0 24A11.5 11.5 0 1 1 27.5 16 11.513 11.513 0 0 1 16 27.5m3.442-6.516a.5.5 0 0 1-.676.208 5.84 5.84 0 0 0-5.532 0 .51.51 0 0 1-.543-.048.5.5 0 0 1 .075-.836 6.92 6.92 0 0 1 6.468 0 .5.5 0 0 1 .208.676m4-7a.5.5 0 0 1-.676.206 14.33 14.33 0 0 0-13.53 0 .5.5 0 0 1-.47-.883 15.33 15.33 0 0 1 14.47 0 .5.5 0 0 1 .205.677zm-2 3.5a.5.5 0 0 1-.676.206 10.13 10.13 0 0 0-9.53 0 .5.5 0 0 1-.47-.883 11.13 11.13 0 0 1 10.47 0 .5.5 0 0 1 .205.678z"/></svg>