<svg xmlns="http://www.w3.org/2000/svg" width="32" height="32" fill="none" viewBox="0 0 32 32"><path fill="#000" d="M13 5.5H7A1.5 1.5 0 0 0 5.5 7v6A1.5 1.5 0 0 0 7 14.5h6a1.5 1.5 0 0 0 1.5-1.5V7A1.5 1.5 0 0 0 13 5.5m.5 7.5a.5.5 0 0 1-.5.5H7a.5.5 0 0 1-.5-.5V7a.5.5 0 0 1 .5-.5h6a.5.5 0 0 1 .5.5zM25 5.5h-6A1.5 1.5 0 0 0 17.5 7v6a1.5 1.5 0 0 0 1.5 1.5h6a1.5 1.5 0 0 0 1.5-1.5V7A1.5 1.5 0 0 0 25 5.5m.5 7.5a.5.5 0 0 1-.5.5h-6a.5.5 0 0 1-.5-.5V7a.5.5 0 0 1 .5-.5h6a.5.5 0 0 1 .5.5zM13 17.5H7A1.5 1.5 0 0 0 5.5 19v6A1.5 1.5 0 0 0 7 26.5h6a1.5 1.5 0 0 0 1.5-1.5v-6a1.5 1.5 0 0 0-1.5-1.5m.5 7.5a.5.5 0 0 1-.5.5H7a.5.5 0 0 1-.5-.5v-6a.5.5 0 0 1 .5-.5h6a.5.5 0 0 1 .5.5zM25 17.5h-6a1.5 1.5 0 0 0-1.5 1.5v6a1.5 1.5 0 0 0 1.5 1.5h6a1.5 1.5 0 0 0 1.5-1.5v-6a1.5 1.5 0 0 0-1.5-1.5m.5 7.5a.5.5 0 0 1-.5.5h-6a.5.5 0 0 1-.5-.5v-6a.5.5 0 0 1 .5-.5h6a.5.5 0 0 1 .5.5z"/></svg>