<svg xmlns="http://www.w3.org/2000/svg" width="32" height="32" fill="none" viewBox="0 0 32 32"><path fill="#000" d="M27.5 28a.5.5 0 0 1-.5.5H5a.5.5 0 0 1 0-1h22a.5.5 0 0 1 .5.5m0-10v5a1.5 1.5 0 0 1-1.5 1.5H6A1.5 1.5 0 0 1 4.5 23v-5A1.5 1.5 0 0 1 6 16.5h7.671L11.58 6.734A3.502 3.502 0 0 1 15 2.5h2a3.5 3.5 0 0 1 3.422 4.234L18.33 16.5H26a1.5 1.5 0 0 1 1.5 1.5m-12.806-1.5h2.612l2.138-9.976A2.502 2.502 0 0 0 17 3.5h-2a2.5 2.5 0 0 0-2.445 3.024zM26.5 18a.5.5 0 0 0-.5-.5H6a.5.5 0 0 0-.5.5v5a.5.5 0 0 0 .5.5h20a.5.5 0 0 0 .5-.5z"/></svg>