<svg xmlns="http://www.w3.org/2000/svg" width="32" height="32" fill="none" viewBox="0 0 32 32"><path fill="#000" d="m28.983 13.92-.655.571a.5.5 0 0 1-.658-.75l.655-.571a.5.5 0 0 0 .148-.54.5.5 0 0 0-.43-.344l-1.087-.093a.502.502 0 0 1 .087-1l1.086.093a1.5 1.5 0 0 1 .854 2.634m-6.773 5.64.359 1.551a.5.5 0 1 0 .974-.225l-.358-1.551a.5.5 0 0 1 .16-.5l.983-.858a.501.501 0 0 0-.287-.898.5.5 0 0 0-.371.148l-.983.858a1.5 1.5 0 0 0-.477 1.475m-.25-7.804-1.345-.116a1.5 1.5 0 0 1-1.25-.914L16.5 3.91v19.508q.143.049.274.125l1.485.902a.5.5 0 1 1-.519.855l-1.49-.899a.49.49 0 0 0-.51 0l-6.388 3.875A1.5 1.5 0 0 1 7.12 26.65l1.69-7.317a.5.5 0 0 0-.16-.5l-5.637-4.92a1.5 1.5 0 0 1 .862-2.627l7.431-.642a.5.5 0 0 0 .415-.305l2.904-6.919a1.494 1.494 0 0 1 2.758 0l2.903 6.919a.5.5 0 0 0 .415.305l1.345.116a.502.502 0 1 1-.086 1zm-6.73 11.789q.13-.077.274-.125V3.909l-2.864 6.817a1.5 1.5 0 0 1-1.25.914l-7.433.643a.5.5 0 0 0-.43.342.5.5 0 0 0 .148.54l5.638 4.919a1.5 1.5 0 0 1 .477 1.475L8.1 26.875a.5.5 0 0 0 .464.62.5.5 0 0 0 .275-.074zm9.24 1.341a.499.499 0 1 0-.974.225l.404 1.764a.5.5 0 0 1-.739.546l-1.404-.852a.5.5 0 0 0-.518.855l1.403.852a1.5 1.5 0 0 0 2.233-1.625z"/></svg>