<svg xmlns="http://www.w3.org/2000/svg" width="32" height="32" fill="none" viewBox="0 0 32 32"><path fill="#000" d="m28.516 14.596-7.932-2.885a.5.5 0 0 1-.295-.295l-2.885-7.932a1.494 1.494 0 0 0-2.808 0l-2.885 7.932a.5.5 0 0 1-.295.295l-7.932 2.885a1.494 1.494 0 0 0 0 2.808l7.932 2.885a.5.5 0 0 1 .295.295l2.885 7.932a1.494 1.494 0 0 0 2.808 0l2.885-7.932a.5.5 0 0 1 .295-.295l7.932-2.885a1.494 1.494 0 0 0 0-2.808m-.34 1.875-7.933 2.884a1.49 1.49 0 0 0-.894.894l-2.884 7.926a.5.5 0 0 1-.93 0l-2.884-7.932a1.49 1.49 0 0 0-.893-.894l-7.933-2.884a.5.5 0 0 1 0-.93l7.933-2.884a1.49 1.49 0 0 0 .893-.893l2.884-7.933a.5.5 0 0 1 .93 0l2.884 7.933a1.5 1.5 0 0 0 .894.893l7.932 2.884a.5.5 0 0 1 0 .93z"/></svg>