<svg xmlns="http://www.w3.org/2000/svg" width="32" height="32" fill="none" viewBox="0 0 32 32"><path fill="#000" d="M29.423 12.316a1.48 1.48 0 0 0-1.298-1.03l-7.431-.642a.5.5 0 0 1-.415-.305L17.375 3.42a1.494 1.494 0 0 0-2.758 0l-2.9 6.919a.5.5 0 0 1-.415.305l-7.427.642a1.5 1.5 0 0 0-.854 2.634l5.638 4.919a.5.5 0 0 1 .16.5l-1.694 7.314a1.485 1.485 0 0 0 .584 1.56 1.47 1.47 0 0 0 1.649.066l6.387-3.875a.49.49 0 0 1 .51 0l6.387 3.875a1.5 1.5 0 0 0 2.233-1.625l-1.69-7.318a.5.5 0 0 1 .16-.5l5.638-4.918a1.49 1.49 0 0 0 .44-1.602m-1.098.85-5.637 4.919a1.5 1.5 0 0 0-.478 1.475l1.69 7.315a.5.5 0 0 1-.739.546l-6.387-3.875a1.49 1.49 0 0 0-1.548 0L8.84 27.421a.48.48 0 0 1-.544-.021.5.5 0 0 1-.195-.525l1.69-7.317a1.5 1.5 0 0 0-.477-1.476l-5.638-4.916a.5.5 0 0 1-.147-.541.5.5 0 0 1 .43-.344l7.43-.642a1.5 1.5 0 0 0 1.25-.914l2.903-6.92a.5.5 0 0 1 .915 0l2.903 6.92a1.5 1.5 0 0 0 1.25.914l7.431.642a.5.5 0 0 1 .43.344.5.5 0 0 1-.145.541"/></svg>