<svg xmlns="http://www.w3.org/2000/svg" width="32" height="32" fill="none" viewBox="0 0 32 32"><path fill="#000" d="M19.228 6.645a.5.5 0 0 0 0-.891A11.4 11.4 0 0 0 14 4.5a11.5 11.5 0 1 0 0 23c1.817.006 3.61-.422 5.227-1.25a.5.5 0 0 0 0-.891 10.499 10.499 0 0 1 0-18.71zM12.5 16a11.46 11.46 0 0 0 5.401 9.75A10.5 10.5 0 1 1 14 5.5a10.4 10.4 0 0 1 3.901.75A11.45 11.45 0 0 0 12.5 16m18.698-.459-3.59-1.55-.31-4.03a.5.5 0 0 0-.885-.28l-2.524 3.058-3.764-.933a.5.5 0 0 0-.551.739L21.602 16l-2.033 3.455a.5.5 0 0 0 .551.739l3.769-.933 2.524 3.058a.5.5 0 0 0 .884-.28l.312-4.03 3.589-1.55a.5.5 0 0 0 0-.918m-4.263 1.669a.5.5 0 0 0-.3.42l-.24 3.096-1.936-2.345a.5.5 0 0 0-.51-.166l-2.92.723 1.585-2.688a.5.5 0 0 0 0-.508l-1.58-2.68 2.92.723a.5.5 0 0 0 .5-.166l1.936-2.345.245 3.101a.5.5 0 0 0 .3.42L29.738 16z"/></svg>