<svg xmlns="http://www.w3.org/2000/svg" width="32" height="32" fill="none" viewBox="0 0 32 32"><path fill="#000" d="M26 19a1 1 0 1 1-2 0 1 1 0 0 1 2 0m-.521 4.474A5.51 5.51 0 0 1 20 28.5h-3a5.506 5.506 0 0 1-5.5-5.5v-5.519A7.5 7.5 0 0 1 4.5 10V5A1.5 1.5 0 0 1 6 3.5h2a.5.5 0 1 1 0 1H6a.5.5 0 0 0-.5.5v5a6.5 6.5 0 0 0 6.586 6.5c3.539-.046 6.414-3.009 6.414-6.604V5a.5.5 0 0 0-.5-.5h-2a.5.5 0 0 1 0-1h2A1.5 1.5 0 0 1 19.5 5v4.896c0 4-3.105 7.324-7 7.587V23a4.5 4.5 0 0 0 4.5 4.5h3a4.506 4.506 0 0 0 4.475-4.031 4.5 4.5 0 1 1 1 0zM28.5 19a3.5 3.5 0 1 0-7 0 3.5 3.5 0 0 0 7 0"/></svg>