<svg xmlns="http://www.w3.org/2000/svg" width="32" height="32" fill="none" viewBox="0 0 32 32"><path fill="#000" d="M21 4.5H11A6.507 6.507 0 0 0 4.5 11v10a6.51 6.51 0 0 0 6.5 6.5h6a.5.5 0 0 0 .157-.026c3.183-1.06 9.257-7.134 10.317-10.317A.5.5 0 0 0 27.5 17v-6A6.507 6.507 0 0 0 21 4.5M5.5 21V11A5.506 5.506 0 0 1 11 5.5h10a5.506 5.506 0 0 1 5.5 5.5v5.5H23a6.507 6.507 0 0 0-6.5 6.5v3.5H11A5.506 5.506 0 0 1 5.5 21m12 5.25V23a5.506 5.506 0 0 1 5.5-5.5h3.25c-1.387 2.779-5.971 7.363-8.75 8.75"/></svg>