<svg xmlns="http://www.w3.org/2000/svg" width="32" height="32" fill="none" viewBox="0 0 32 32"><path fill="#000" d="M3.5 14a4.5 4.5 0 0 0 2 3.74V26A1.5 1.5 0 0 0 7 27.5h18a1.5 1.5 0 0 0 1.5-1.5v-8.26a4.5 4.5 0 0 0 2-3.74v-2a.5.5 0 0 0-.016-.137l-1.797-6.275A1.5 1.5 0 0 0 25.25 4.5H6.75a1.5 1.5 0 0 0-1.437 1.088l-1.794 6.275A.5.5 0 0 0 3.5 12zm2.774-8.137A.5.5 0 0 1 6.75 5.5h18.5a.5.5 0 0 1 .48.362l1.607 5.638H4.663zM12.5 12.5h7V14a3.5 3.5 0 1 1-7 0zm-8 1.5v-1.5h7V14a3.5 3.5 0 1 1-7 0m21 12a.5.5 0 0 1-.5.5H7a.5.5 0 0 1-.5-.5v-7.757a4.5 4.5 0 0 0 5.5-2.185 4.5 4.5 0 0 0 8 0 4.5 4.5 0 0 0 5.5 2.185zM24 17.5a3.5 3.5 0 0 1-3.5-3.5v-1.5h7V14a3.5 3.5 0 0 1-3.5 3.5"/></svg>