<svg xmlns="http://www.w3.org/2000/svg" width="32" height="32" fill="none" viewBox="0 0 32 32"><path fill="#000" d="M8.5 19.5a4 4 0 1 0 0 8 4 4 0 0 0 0-8m0 7a3 3 0 1 1 0-6 3 3 0 0 1 0 6M4.646 13.646 6.793 11.5 4.646 9.354a.5.5 0 0 1 .708-.708L7.5 10.792l2.146-2.146a.5.5 0 1 1 .708.708L8.208 11.5l2.146 2.146a.501.501 0 0 1-.708.708L7.5 12.208l-2.146 2.146a.5.5 0 0 1-.708-.708m22.708 12a.5.5 0 0 1-.708.708L24.5 24.208l-2.146 2.146a.5.5 0 0 1-.708-.708l2.146-2.146-2.146-2.146a.5.5 0 0 1 .708-.708l2.146 2.146 2.146-2.146a.5.5 0 1 1 .708.708L25.208 23.5zM21.578 13.97c-.728 2.625-2.972 4.894-5.457 5.515a.51.51 0 0 1-.457-.109.5.5 0 0 1 .207-.861c2.118-.53 4.109-2.552 4.735-4.811.434-1.567.444-3.939-1.967-6.35L17.5 6.207V10a.5.5 0 1 1-1 0V5a.5.5 0 0 1 .5-.5h5a.5.5 0 0 1 0 1h-3.793l1.147 1.146c2.146 2.148 2.937 4.749 2.224 7.324"/></svg>