<svg xmlns="http://www.w3.org/2000/svg" width="32" height="32" fill="none" viewBox="0 0 32 32"><path fill="#000" d="m28.159 7.526-12-4a.5.5 0 0 0-.318 0l-12 4A.5.5 0 0 0 3.5 8v10a.5.5 0 1 0 1 0V8.694l5.485 1.829a7.5 7.5 0 0 0 3.068 11.375c-2.608.717-4.876 2.39-6.472 4.83a.5.5 0 0 0 .838.546C9.396 24.24 12.525 22.5 16 22.5s6.604 1.74 8.581 4.773a.5.5 0 0 0 .838-.546c-1.59-2.44-3.864-4.113-6.471-4.83a7.5 7.5 0 0 0 3.067-11.376l6.144-2.049a.5.5 0 0 0 0-.947zM22.5 15a6.5 6.5 0 1 1-11.509-4.142l4.85 1.616a.5.5 0 0 0 .318 0l4.85-1.617A6.48 6.48 0 0 1 22.5 15M16 11.473 5.581 8 16 4.527 26.419 8z"/></svg>