<svg xmlns="http://www.w3.org/2000/svg" width="32" height="32" fill="none" viewBox="0 0 32 32"><path fill="#000" d="M21.396 10.603a9.499 9.499 0 1 0-10.794 10.793 9.5 9.5 0 1 0 10.794-10.794M28.5 20c0 .548-.054 1.096-.159 1.634l-7.167-7.168A9.5 9.5 0 0 0 21.5 12c0-.125 0-.25-.009-.367A8.47 8.47 0 0 1 28.5 20m-10.149-.942 7.291 7.292a8.5 8.5 0 0 1-2.892 1.691l-7.222-7.222a9.5 9.5 0 0 0 2.823-1.761m.707-.707a9.5 9.5 0 0 0 1.76-2.825l7.223 7.224a8.5 8.5 0 0 1-1.691 2.894zM3.5 12a8.5 8.5 0 1 1 8.5 8.5A8.51 8.51 0 0 1 3.5 12m8.133 9.491c.125 0 .25.009.367.009a9.5 9.5 0 0 0 2.466-.326l7.168 7.167A8.6 8.6 0 0 1 20 28.5a8.474 8.474 0 0 1-8.367-7.009"/></svg>