<svg xmlns="http://www.w3.org/2000/svg" width="32" height="32" fill="none" viewBox="0 0 32 32"><path fill="#000" d="M28 6.5H4A1.5 1.5 0 0 0 2.5 8v16A1.5 1.5 0 0 0 4 25.5h24a1.5 1.5 0 0 0 1.5-1.5V8A1.5 1.5 0 0 0 28 6.5m.5 17.5a.5.5 0 0 1-.5.5H4a.5.5 0 0 1-.5-.5V8a.5.5 0 0 1 .5-.5h24a.5.5 0 0 1 .5.5zm-22-7a.5.5 0 0 1 .5-.5h2a.5.5 0 0 1 0 1H7a.5.5 0 0 1-.5-.5m19 0a.5.5 0 0 1-.5.5H13a.5.5 0 0 1 0-1h12a.5.5 0 0 1 .5.5m-6 4a.5.5 0 0 1-.5.5H7a.5.5 0 0 1 0-1h12a.5.5 0 0 1 .5.5m6 0a.5.5 0 0 1-.5.5h-2a.5.5 0 0 1 0-1h2a.5.5 0 0 1 .5.5"/></svg>