<svg xmlns="http://www.w3.org/2000/svg" width="32" height="32" fill="none" viewBox="0 0 32 32"><path fill="#000" d="M12.5 11v12a.5.5 0 0 1-1 0V11a.5.5 0 0 1 1 0m3.5-.5a.5.5 0 0 0-.5.5v12a.5.5 0 0 0 1 0V11a.5.5 0 0 0-.5-.5m4 0a.5.5 0 0 0-.5.5v12a.5.5 0 0 0 1 0V11a.5.5 0 0 0-.5-.5M25.5 8v18a1.5 1.5 0 0 1-1.5 1.5h-2.5V30a.5.5 0 0 1-1 0v-2.5h-9V30a.5.5 0 0 1-1 0v-2.5H8A1.5 1.5 0 0 1 6.5 26V8A1.5 1.5 0 0 1 8 6.5h3.5V3A2.5 2.5 0 0 1 14 .5h4A2.5 2.5 0 0 1 20.5 3v3.5H24A1.5 1.5 0 0 1 25.5 8m-13-1.5h7V3A1.5 1.5 0 0 0 18 1.5h-4A1.5 1.5 0 0 0 12.5 3zm12 1.5a.5.5 0 0 0-.5-.5H8a.5.5 0 0 0-.5.5v18a.5.5 0 0 0 .5.5h16a.5.5 0 0 0 .5-.5z"/></svg>