<svg xmlns="http://www.w3.org/2000/svg" width="32" height="32" fill="none" viewBox="0 0 32 32"><path fill="#000" d="M15.5 5V4a.5.5 0 0 1 1 0v1a.5.5 0 0 1-1 0m8 11A7.5 7.5 0 1 1 16 8.5a7.51 7.51 0 0 1 7.5 7.5m-1 0a6.5 6.5 0 1 0-6.5 6.5 6.507 6.507 0 0 0 6.5-6.5M7.646 8.354a.5.5 0 1 0 .708-.708l-1-1a.5.5 0 1 0-.708.708zm0 15.292-1 1a.5.5 0 0 0 .708.708l1-1a.5.5 0 0 0-.708-.708m17-17-1 1a.5.5 0 0 0 .708.708l1-1a.5.5 0 0 0-.708-.708m-.292 17a.5.5 0 0 0-.708.708l1 1a.5.5 0 0 0 .708-.708zM5 15.5H4a.5.5 0 0 0 0 1h1a.5.5 0 0 0 0-1m11 11a.5.5 0 0 0-.5.5v1a.5.5 0 0 0 1 0v-1a.5.5 0 0 0-.5-.5m12-11h-1a.5.5 0 0 0 0 1h1a.5.5 0 0 0 0-1"/></svg>