<svg xmlns="http://www.w3.org/2000/svg" width="32" height="32" fill="none" viewBox="0 0 32 32"><path fill="#000" d="M30 19.5h-5.632a8.5 8.5 0 1 0-16.735 0H2a.5.5 0 0 0 0 1h28a.5.5 0 0 0 0-1M8.5 18a7.5 7.5 0 1 1 14.849 1.5H8.65A7.5 7.5 0 0 1 8.5 18m18 7a.5.5 0 0 1-.5.5H6a.5.5 0 0 1 0-1h20a.5.5 0 0 1 .5.5M9.553 5.224a.5.5 0 0 1 .894-.448l1 2a.5.5 0 0 1-.894.448zm-7 6.552a.5.5 0 0 1 .67-.223l2 1a.5.5 0 1 1-.447.895l-2-1a.5.5 0 0 1-.223-.672m24 1.448a.5.5 0 0 1 .223-.671l2-1a.5.5 0 1 1 .448.895l-2 1a.5.5 0 0 1-.672-.224m-6-6.448 1-2a.501.501 0 0 1 .895.448l-1 2a.5.5 0 1 1-.896-.448"/></svg>