<svg xmlns="http://www.w3.org/2000/svg" width="32" height="32" fill="none" viewBox="0 0 32 32"><path fill="#000" d="M27.5 6v13a1.5 1.5 0 0 1-1.5 1.5H11.208l2.146 2.146a.5.5 0 0 1-.708.708l-3-3a.5.5 0 0 1 0-.708l3-3a.5.5 0 0 1 .708.708L11.208 19.5H26a.5.5 0 0 0 .5-.5V6a.5.5 0 0 0-.5-.5H12a.5.5 0 0 0-.5.5v1a.5.5 0 0 1-1 0V6A1.5 1.5 0 0 1 12 4.5h14A1.5 1.5 0 0 1 27.5 6M21 24.5a.5.5 0 0 0-.5.5v1a.5.5 0 0 1-.5.5H6a.5.5 0 0 1-.5-.5V13a.5.5 0 0 1 .5-.5h14.793l-2.147 2.146a.5.5 0 0 0 .708.708l3-3a.503.503 0 0 0 0-.708l-3-3a.5.5 0 0 0-.708.708l2.146 2.146H6A1.5 1.5 0 0 0 4.5 13v13A1.5 1.5 0 0 0 6 27.5h14a1.5 1.5 0 0 0 1.5-1.5v-1a.5.5 0 0 0-.5-.5"/></svg>