<svg xmlns="http://www.w3.org/2000/svg" width="32" height="32" fill="none" viewBox="0 0 32 32"><path fill="#000" d="m28.409 19.009-2.385-6.528a1.5 1.5 0 0 0-1.918-.89l-9.287 3.364 1.659-9.479a1.5 1.5 0 0 0-1.21-1.737L8.434 2.524a1.47 1.47 0 0 0-1.111.25 1.49 1.49 0 0 0-.618.971L3.58 21.636a5 5 0 0 0 4.02 5.788q.446.076.9.076H27a1.5 1.5 0 0 0 1.5-1.5v-6.476a1.8 1.8 0 0 0-.091-.515m-3.963-6.479a.5.5 0 0 1 .638.295l2.386 6.526a.5.5 0 0 1-.016.375.5.5 0 0 1-.28.25l-14.576 5.288a5 5 0 0 0 .75-1.896l1.277-7.277zM10.72 25.786a3.9 3.9 0 0 1-2.944.653 4 4 0 0 1-3.214-4.635L7.686 3.913a.5.5 0 0 1 .487-.413 1 1 0 0 1 .086.008l6.834 1.216a.5.5 0 0 1 .4.58l-3.125 17.891a3.97 3.97 0 0 1-1.65 2.591M27.5 26a.5.5 0 0 1-.5.5H12.125L27.5 20.926zm-18-3.5a1 1 0 1 1-2 0 1 1 0 0 1 2 0"/></svg>