<svg xmlns="http://www.w3.org/2000/svg" width="32" height="32" fill="none" viewBox="0 0 32 32"><path fill="#000" d="M11 18.174a.5.5 0 0 0 .5-.5V15.5h9v2.411a.5.5 0 0 0 1 0V4a.5.5 0 0 0-1 0v2.5h-9V4a.5.5 0 0 0-1 0v13.674a.5.5 0 0 0 .5.5m.5-3.674v-3h9v3zm9-7v3h-9v-3zM3.5 21a.5.5 0 0 1 .5-.5c1.651 0 2.515.576 3.278 1.084.737.491 1.375.916 2.722.916 1.348 0 1.985-.425 2.723-.916.76-.508 1.624-1.084 3.276-1.084s2.516.576 3.277 1.084c.738.491 1.375.916 2.724.916s1.985-.425 2.723-.916c.762-.508 1.625-1.084 3.277-1.084a.5.5 0 0 1 0 1c-1.349 0-1.985.425-2.722.916-.763.508-1.625 1.084-3.278 1.084-1.652 0-2.516-.576-3.277-1.084-.738-.491-1.375-.916-2.724-.916s-1.985.425-2.723.916c-.761.508-1.625 1.084-3.276 1.084s-2.515-.576-3.277-1.084C5.985 21.925 5.349 21.5 4 21.5a.5.5 0 0 1-.5-.5m25 5a.5.5 0 0 1-.5.5c-1.349 0-1.985.425-2.722.916-.763.508-1.625 1.084-3.278 1.084-1.652 0-2.516-.576-3.277-1.084-.738-.491-1.375-.916-2.724-.916s-1.985.425-2.723.916c-.761.508-1.625 1.084-3.276 1.084s-2.515-.576-3.277-1.084C5.985 26.925 5.349 26.5 4 26.5a.5.5 0 0 1 0-1c1.651 0 2.515.576 3.278 1.084.737.491 1.375.916 2.722.916 1.348 0 1.985-.425 2.723-.916.76-.508 1.624-1.084 3.276-1.084s2.516.576 3.277 1.084c.738.491 1.375.916 2.724.916s1.985-.425 2.723-.916c.762-.508 1.625-1.084 3.277-1.084a.5.5 0 0 1 .5.5"/></svg>