<svg xmlns="http://www.w3.org/2000/svg" width="32" height="32" fill="none" viewBox="0 0 32 32"><path fill="#000" d="M27 4.5h-8a.5.5 0 0 0-.396.195l-8.348 10.853L8.65 13.94a1.5 1.5 0 0 0-2.125 0L4.94 15.526a1.5 1.5 0 0 0 0 2.125L7.792 20.5 3.94 24.354a1.5 1.5 0 0 0 0 2.125l1.585 1.582a1.5 1.5 0 0 0 2.125 0l3.85-3.852 2.851 2.852a1.503 1.503 0 0 0 2.125 0l1.587-1.587a1.5 1.5 0 0 0 0-2.125l-1.61-1.599 10.852-8.349A.5.5 0 0 0 27.5 13V5a.5.5 0 0 0-.5-.5M6.94 27.354a.5.5 0 0 1-.708 0l-1.586-1.585a.5.5 0 0 1 0-.708L8.5 21.21l2.293 2.291zm10.414-3.295a.5.5 0 0 1 0 .708l-1.588 1.587a.5.5 0 0 1-.707 0L5.646 16.94a.5.5 0 0 1 0-.707l1.588-1.587a.5.5 0 0 1 .707 0zM26.5 12.75l-10.76 8.278L13.707 19l6.647-6.646a.502.502 0 0 0-.708-.708L13 18.293l-2.031-2.033L19.25 5.5h7.25z"/></svg>