<svg xmlns="http://www.w3.org/2000/svg" width="32" height="32" fill="none" viewBox="0 0 32 32"><path fill="#000" d="m30.71 8.091-6.471-3.53A.5.5 0 0 0 24 4.5h-4a.5.5 0 0 0-.5.5 3.5 3.5 0 0 1-7 0 .5.5 0 0 0-.5-.5H8a.5.5 0 0 0-.237.063L1.29 8.09a1.474 1.474 0 0 0-.625 1.987l2.41 4.6a1.55 1.55 0 0 0 1.375.822H7.5V26A1.5 1.5 0 0 0 9 27.5h14a1.5 1.5 0 0 0 1.5-1.5V15.5h3.041a1.55 1.55 0 0 0 1.375-.821l2.41-4.601a1.474 1.474 0 0 0-.616-1.987M4.46 14.5a.56.56 0 0 1-.5-.285L1.555 9.614a.474.474 0 0 1 .214-.644L7.5 5.842V14.5zM23.5 26a.5.5 0 0 1-.5.5H9a.5.5 0 0 1-.5-.5V5.5h3.028a4.5 4.5 0 0 0 8.945 0H23.5zm6.945-16.386-2.409 4.601a.56.56 0 0 1-.5.285H24.5V5.843l5.731 3.124a.474.474 0 0 1 .214.647"/></svg>