<svg xmlns="http://www.w3.org/2000/svg" width="32" height="32" fill="none" viewBox="0 0 32 32"><path fill="#000" d="M31.476 20.858 28.69 11.57a1.49 1.49 0 0 0-1.434-1.07H26a.5.5 0 0 0 0 1h1.256a.5.5 0 0 1 .48.356l2.592 8.644h-4.953l-2.682-8.931a1.49 1.49 0 0 0-1.437-1.069H20a.5.5 0 0 0 0 1h1.256a.5.5 0 0 1 .48.356l2.592 8.644h-4.953l-2.682-8.931a1.49 1.49 0 0 0-1.437-1.069H4.75a1.49 1.49 0 0 0-1.436 1.069L.52 20.856v.021a.5.5 0 0 0 .48.623h30a.5.5 0 0 0 .5-.5.5.5 0 0 0-.025-.142m-27.21-9a.5.5 0 0 1 .484-.358h10.513a.5.5 0 0 1 .478.356l2.587 8.644H1.673z"/></svg>