<svg xmlns="http://www.w3.org/2000/svg" width="32" height="32" fill="none" viewBox="0 0 32 32"><path fill="#000" d="M24.843 7.161A12.42 12.42 0 0 0 16 3.501h-.024a12.5 12.5 0 1 0 8.867 3.66m-16.978.714a11.42 11.42 0 0 1 7.6-3.356 11.41 11.41 0 0 1-3.356 7.592 11.43 11.43 0 0 1-7.596 3.355 11.45 11.45 0 0 1 3.352-7.59m-3.354 8.593a12.42 12.42 0 0 0 8.305-3.65 12.4 12.4 0 0 0 3.652-8.307 11.487 11.487 0 0 1 11.02 11.022 12.5 12.5 0 0 0-11.955 11.956A11.49 11.49 0 0 1 4.51 16.468m19.625 7.663a11.42 11.42 0 0 1-7.6 3.357A11.5 11.5 0 0 1 27.49 16.534a11.45 11.45 0 0 1-3.354 7.597z"/></svg>