<svg xmlns="http://www.w3.org/2000/svg" width="32" height="32" fill="none" viewBox="0 0 32 32"><path fill="#000" d="M27.5 16a.5.5 0 0 1-.5.5h-6.855c1.931.905 3.355 2.225 3.355 4.5 0 3.032-3.365 5.5-7.5 5.5S8.5 24.032 8.5 21a.5.5 0 0 1 1 0c0 2.481 2.916 4.5 6.5 4.5s6.5-2.019 6.5-4.5c0-2.442-2.016-3.538-5.273-4.5H5a.5.5 0 0 1 0-1h22a.5.5 0 0 1 .5.5M9.541 12.5a.5.5 0 0 0 .475-.65 2.7 2.7 0 0 1-.125-.844c0-2.565 2.625-4.5 6.112-4.5 2.54 0 4.625 1.025 5.56 2.74a.5.5 0 0 0 .876-.481C21.317 6.719 18.91 5.5 16 5.5c-4.054 0-7.111 2.365-7.111 5.5a3.7 3.7 0 0 0 .177 1.156.5.5 0 0 0 .475.344"/></svg>