<svg xmlns="http://www.w3.org/2000/svg" width="32" height="32" fill="none" viewBox="0 0 32 32"><path fill="#000" d="M14 5.5a.5.5 0 0 0-.5.5v2.5H3A1.5 1.5 0 0 0 1.5 10v12A1.5 1.5 0 0 0 3 23.5h10.5V26a.5.5 0 0 0 1 0V6a.5.5 0 0 0-.5-.5m-11 17a.5.5 0 0 1-.5-.5V10a.5.5 0 0 1 .5-.5h10.5v13zM30.5 10v12a1.5 1.5 0 0 1-1.5 1.5H18a.5.5 0 0 1 0-1h11a.5.5 0 0 0 .5-.5V10a.5.5 0 0 0-.5-.5H18a.5.5 0 0 1 0-1h11a1.5 1.5 0 0 1 1.5 1.5m-20 4a.5.5 0 0 1-.5.5H8.5V18a.5.5 0 0 1-1 0v-3.5H6a.5.5 0 0 1 0-1h4a.5.5 0 0 1 .5.5"/></svg>