<svg xmlns="http://www.w3.org/2000/svg" width="32" height="32" fill="none" viewBox="0 0 32 32"><path fill="#000" d="M22.589 9.784a.5.5 0 0 1 .125-.695c1.14-.788 2.927-.788 4.067 0 .795.547 2.138.547 2.933 0a.5.5 0 0 1 .567.822 3.8 3.8 0 0 1-4.067 0c-.795-.547-2.138-.547-2.933 0a.5.5 0 0 1-.692-.127m7.125 3.305c-.795.547-2.138.547-2.933 0-1.14-.788-2.927-.788-4.067 0a.5.5 0 1 0 .567.822c.795-.547 2.138-.547 2.933 0a3.8 3.8 0 0 0 4.067 0 .5.5 0 0 0-.567-.822M18.5 23a3.5 3.5 0 1 1-4-3.464V6a.5.5 0 0 1 1 0v13.536a3.5 3.5 0 0 1 3 3.464m-1 0a2.5 2.5 0 1 0-5 0 2.5 2.5 0 0 0 5 0m5 0a7.5 7.5 0 1 1-12-6V6a4.5 4.5 0 1 1 9 0v11a7.5 7.5 0 0 1 3 6m-1 0a6.51 6.51 0 0 0-2.786-5.335.5.5 0 0 1-.214-.415V6a3.5 3.5 0 1 0-7 0v11.25a.5.5 0 0 1-.214.41A6.5 6.5 0 1 0 21.5 23"/></svg>