<svg xmlns="http://www.w3.org/2000/svg" width="32" height="32" fill="none" viewBox="0 0 32 32"><path fill="#000" d="m30.959 9.24-3.15 1.022 1.941 2.68a.498.498 0 0 1-.283.792.5.5 0 0 1-.526-.204L27 10.851l-1.946 2.679a.5.5 0 0 1-.809-.587l1.946-2.68-3.15-1.023a.5.5 0 1 1 .309-.951L26.5 9.31V6a.5.5 0 0 1 1 0v3.311l3.15-1.022a.5.5 0 0 1 .309.951M18.5 23a3.5 3.5 0 1 1-4-3.464V15a.5.5 0 0 1 1 0v4.536a3.5 3.5 0 0 1 3 3.464m-1 0a2.5 2.5 0 1 0-5 0 2.5 2.5 0 0 0 5 0m5 0a7.5 7.5 0 1 1-12-6V6a4.5 4.5 0 1 1 9 0v11a7.5 7.5 0 0 1 3 6m-1 0a6.51 6.51 0 0 0-2.786-5.335.5.5 0 0 1-.214-.415V6a3.5 3.5 0 1 0-7 0v11.25a.5.5 0 0 1-.214.41A6.5 6.5 0 1 0 21.5 23"/></svg>