<svg xmlns="http://www.w3.org/2000/svg" width="32" height="32" fill="none" viewBox="0 0 32 32"><path fill="#000" d="M28.875 10.345A2.5 2.5 0 0 0 27 9.5h-7.5V7A4.5 4.5 0 0 0 15 2.5a.5.5 0 0 0-.447.276L9.69 12.5H4A1.5 1.5 0 0 0 2.5 14v11A1.5 1.5 0 0 0 4 26.5h21.5a2.5 2.5 0 0 0 2.481-2.19l1.5-12a2.5 2.5 0 0 0-.606-1.965M9.5 25.5H4a.5.5 0 0 1-.5-.5V14a.5.5 0 0 1 .5-.5h5.5zm18.989-13.314-1.5 12A1.5 1.5 0 0 1 25.5 25.5h-15V13.118l4.803-9.606A3.5 3.5 0 0 1 18.5 7v3a.5.5 0 0 0 .5.5h8a1.5 1.5 0 0 1 1.489 1.686"/></svg>