<svg xmlns="http://www.w3.org/2000/svg" width="32" height="32" fill="none" viewBox="0 0 32 32"><path fill="#000" d="m31.354 11.646-5-5a.5.5 0 0 0-.708 0L21 11.292l-4.646-4.646a.5.5 0 0 0-.708 0L11 11.292 6.354 6.646a.5.5 0 0 0-.708 0l-5 5a.5.5 0 0 0 0 .708l5 5a.5.5 0 0 0 .708 0L11 12.707 15.292 17l-4.646 4.646a.5.5 0 0 0 0 .708l5 5a.5.5 0 0 0 .708 0l5-5a.503.503 0 0 0 0-.708L16.707 17 21 12.707l4.646 4.647a.5.5 0 0 0 .708 0l5-5a.503.503 0 0 0 0-.708M6 16.292 1.707 12 6 7.707 10.292 12zm10 10L11.707 22 16 17.707 20.292 22zm0-10L11.707 12 16 7.707 20.292 12zm10 0L21.707 12 26 7.707 30.292 12z"/></svg>