<svg xmlns="http://www.w3.org/2000/svg" width="32" height="32" fill="none" viewBox="0 0 32 32"><path fill="#000" d="M28 9.5A6.51 6.51 0 0 1 21.5 3a.5.5 0 0 0-.5-.5h-5a.5.5 0 0 0-.5.5v16.5a3 3 0 1 1-4.285-2.711.5.5 0 0 0 .285-.453V11a.5.5 0 0 0-.588-.492C6.687 11.26 3.5 15.125 3.5 19.5a9 9 0 0 0 18 0v-5.82A12.4 12.4 0 0 0 28 15.5a.5.5 0 0 0 .5-.5v-5a.5.5 0 0 0-.5-.5m-.5 4.99a11.4 11.4 0 0 1-6.207-2.148.5.5 0 0 0-.793.408v6.75a8 8 0 0 1-16 0c0-3.69 2.54-6.974 6-7.875v4.414a4 4 0 1 0 6 3.461v-16h4.016a7.51 7.51 0 0 0 6.984 6.984z"/></svg>