<svg xmlns="http://www.w3.org/2000/svg" width="32" height="32" fill="none" viewBox="0 0 32 32"><path fill="#000" d="M9 15a1 1 0 1 1-2 0 1 1 0 0 1 2 0m20.5 0v11a1.5 1.5 0 0 1-1.5 1.5H14a1.5 1.5 0 0 1-1.5-1.5v-4.892C11.512 23.782 9.875 25.5 8 25.5c-3.084 0-5.5-4.613-5.5-10.5S4.916 4.5 8 4.5h16c3.084 0 5.5 4.613 5.5 10.5m-17 0c0-5.15-2.061-9.5-4.5-9.5S3.5 9.85 3.5 15s2.061 9.5 4.5 9.5 4.5-4.35 4.5-9.5m16 11V15.5H26a.5.5 0 0 1 0-1h2.5c-.125-4.927-2.134-9-4.494-9H10.381c1.787 1.6 3.018 4.97 3.113 9h2.5a.5.5 0 0 1 0 1H13.5V26a.5.5 0 0 0 .5.5h14a.5.5 0 0 0 .5-.5M22 14.5h-2a.5.5 0 0 0 0 1h2a.5.5 0 0 0 0-1"/></svg>