<svg xmlns="http://www.w3.org/2000/svg" width="32" height="32" fill="none" viewBox="0 0 32 32"><path fill="#000" d="M28 8.5h-6.5V7A2.5 2.5 0 0 0 19 4.5h-6A2.5 2.5 0 0 0 10.5 7v1.5H4A1.5 1.5 0 0 0 2.5 10v14A1.5 1.5 0 0 0 4 25.5h24a1.5 1.5 0 0 0 1.5-1.5V10A1.5 1.5 0 0 0 28 8.5M11.5 7A1.5 1.5 0 0 1 13 5.5h6A1.5 1.5 0 0 1 20.5 7v1.5h-9zM4 9.5h24a.5.5 0 0 1 .5.5v4.5h-5V13a.5.5 0 0 0-1 0v1.5h-13V13a.5.5 0 0 0-1 0v1.5h-5V10a.5.5 0 0 1 .5-.5m24 15H4a.5.5 0 0 1-.5-.5v-8.5h5V17a.5.5 0 0 0 1 0v-1.5h13V17a.5.5 0 0 0 1 0v-1.5h5V24a.5.5 0 0 1-.5.5"/></svg>