<svg xmlns="http://www.w3.org/2000/svg" width="32" height="32" fill="none" viewBox="0 0 32 32"><path fill="#000" d="M21.186 8.464 17.346 10l3.84 1.535a.5.5 0 1 1-.372.929L16 10.539l-4.814 1.925a.5.5 0 1 1-.372-.929L14.654 10l-3.84-1.536a.5.5 0 1 1 .375-.929L16 9.461l4.814-1.926a.5.5 0 0 1 .375.929zm6.314 1.5c.009 8.885-2.895 16.258-5.706 18.256a1.47 1.47 0 0 1-1.492.125 1.49 1.49 0 0 1-.862-1.25c-.146-1.979-.774-6.595-3.44-6.595s-3.294 4.618-3.44 6.602a1.513 1.513 0 0 1-1.5 1.4 1.47 1.47 0 0 1-.854-.276c-2.811-2-5.715-9.375-5.706-18.25A6.5 6.5 0 0 1 11 3.5h10a6.5 6.5 0 0 1 6.5 6.469zm-1 0A5.5 5.5 0 0 0 21 4.5H11a5.5 5.5 0 0 0-5.5 5.47c-.009 8.448 2.738 15.625 5.286 17.439a.47.47 0 0 0 .487.041.5.5 0 0 0 .29-.421C11.92 22.174 13.5 19.5 16 19.5s4.08 2.675 4.438 7.53a.5.5 0 0 0 .29.421.47.47 0 0 0 .486-.041c2.549-1.81 5.295-8.992 5.286-17.44z"/></svg>