<svg xmlns="http://www.w3.org/2000/svg" width="32" height="32" fill="none" viewBox="0 0 32 32"><path fill="#000" d="M29.125 9.008A1.51 1.51 0 0 0 27.99 8.5H21.5V8a5.5 5.5 0 0 0-11 0v.5H4.01a1.51 1.51 0 0 0-1.444 1.053 1.5 1.5 0 0 0-.059.623l1.783 15a1.5 1.5 0 0 0 1.5 1.324h20.419a1.5 1.5 0 0 0 1.5-1.324l1.782-15a1.5 1.5 0 0 0-.366-1.168M11.5 8a4.5 4.5 0 1 1 9 0v.5h-9zm17 2.057-1.781 15a.5.5 0 0 1-.507.443H5.792a.5.5 0 0 1-.5-.442l-1.792-15a.49.49 0 0 1 .125-.387.51.51 0 0 1 .385-.171h6.49V13a.5.5 0 0 0 1 0V9.5h9V13a.5.5 0 0 0 1 0V9.5h6.49a.51.51 0 0 1 .51.557"/></svg>