<svg xmlns="http://www.w3.org/2000/svg" width="32" height="32" fill="none" viewBox="0 0 32 32"><path fill="#000" d="M30.04 14.89 17.11 1.96a1.57 1.57 0 0 0-2.22 0L1.96 14.89a1.57 1.57 0 0 0 0 2.22l12.93 12.93a1.57 1.57 0 0 0 2.22 0l12.93-12.93a1.57 1.57 0 0 0 0-2.22m-.707 1.512-12.93 12.932a.57.57 0 0 1-.805 0L2.665 16.403a.57.57 0 0 1 0-.805L15.598 2.665a.57.57 0 0 1 .804 0l12.932 12.932a.57.57 0 0 1 0 .804zm-7.98-1.75a.5.5 0 0 1 0 .708l-3 3a.5.5 0 1 1-.707-.707l2.146-2.153H14a2.5 2.5 0 0 0-2.5 2.5v1a.5.5 0 0 1-1 0v-1a3.5 3.5 0 0 1 3.5-3.5h5.793l-2.147-2.146a.5.5 0 0 1 .708-.708z"/></svg>