<svg xmlns="http://www.w3.org/2000/svg" width="32" height="32" fill="none" viewBox="0 0 32 32"><path fill="#000" d="m27.483 14.875-2.8-10.27A1.5 1.5 0 0 0 23.237 3.5H8.764a1.5 1.5 0 0 0-1.448 1.105l-2.798 10.27a.5.5 0 0 0 0 .262l2.798 10.264A1.5 1.5 0 0 0 8.764 26.5H11l-2.4 3.2a.5.5 0 1 0 .8.6l2.85-3.8h7.5l2.85 3.8a.5.5 0 0 0 .8-.6L21 26.5h2.236a1.5 1.5 0 0 0 1.448-1.105l2.799-10.264a.5.5 0 0 0 0-.256m-19.202-10a.5.5 0 0 1 .483-.375h14.472a.5.5 0 0 1 .483.375l2.656 9.73L16 16.491 5.625 14.605zm0 20.263-2.59-9.5 9.809 1.78V25.5H8.764a.5.5 0 0 1-.483-.369zm15.438 0a.5.5 0 0 1-.483.368H16.5v-8.088l9.809-1.784zM11.5 11a.5.5 0 0 1 .5-.5h8a.5.5 0 0 1 0 1h-8a.5.5 0 0 1-.5-.5"/></svg>