<svg xmlns="http://www.w3.org/2000/svg" width="32" height="32" fill="none" viewBox="0 0 32 32"><path fill="#000" d="M23 6.5h-6.5v-4H21a.5.5 0 0 0 0-1H11a.5.5 0 0 0 0 1h4.5v4H9A3.5 3.5 0 0 0 5.5 10v13A3.5 3.5 0 0 0 9 26.5h2l-2.4 3.2a.5.5 0 1 0 .8.6l2.85-3.8h7.5l2.85 3.8a.5.5 0 0 0 .8-.6L21 26.5h2a3.5 3.5 0 0 0 3.5-3.5V10A3.5 3.5 0 0 0 23 6.5m-14 1h14a2.5 2.5 0 0 1 2.5 2.5v5.5h-19V10A2.5 2.5 0 0 1 9 7.5m14 18H9A2.5 2.5 0 0 1 6.5 23v-6.5h19V23a2.5 2.5 0 0 1-2.5 2.5m-11.5-4a1 1 0 1 1-2 0 1 1 0 0 1 2 0m11 0a1 1 0 1 1-2 0 1 1 0 0 1 2 0"/></svg>