<svg xmlns="http://www.w3.org/2000/svg" width="32" height="32" fill="none" viewBox="0 0 32 32"><path fill="#000" d="m29.448 26.776-7-14a.5.5 0 0 0-.896 0L18.694 18.5a11.5 11.5 0 0 1-6.944-2.58 12.46 12.46 0 0 0 3.739-8.42H19a.5.5 0 0 0 0-1h-7.5V4a.5.5 0 0 0-1 0v2.5H3a.5.5 0 1 0 0 1h11.489A11.48 11.48 0 0 1 11 15.256a11.5 11.5 0 0 1-2.846-4.422.5.5 0 1 0-.943.332 12.45 12.45 0 0 0 3.038 4.75A11.45 11.45 0 0 1 3 18.5a.5.5 0 0 0 0 1 12.44 12.44 0 0 0 8-2.901 12.5 12.5 0 0 0 7.208 2.875l-3.653 7.304a.5.5 0 1 0 .895.447l1.859-3.725h9.382l1.861 3.724a.5.5 0 0 0 .896-.448M17.808 22.5 22 14.118l4.191 8.382z"/></svg>