<svg xmlns="http://www.w3.org/2000/svg" width="32" height="32" fill="none" viewBox="0 0 32 32"><path fill="#000" d="M29.363 7a7.86 7.86 0 0 0-11.5 0A8.5 8.5 0 0 0 16 10.055a8.5 8.5 0 0 0-1.875-3.056 7.856 7.856 0 0 0-11.487 0 .5.5 0 0 0 .162.803l8.558 3.723a8.6 8.6 0 0 0-1.557.264 8.44 8.44 0 0 0-5.16 3.932 8.34 8.34 0 0 0-.85 6.404.5.5 0 0 0 .787.267L15.5 14.075V28a.5.5 0 1 0 1 0V14.075l10.923 8.322a.5.5 0 0 0 .786-.267 8.34 8.34 0 0 0-.85-6.409 8.44 8.44 0 0 0-5.16-3.932 8.6 8.6 0 0 0-1.557-.264L29.2 7.8A.5.5 0 0 0 29.363 7M8.385 5.5a6.9 6.9 0 0 1 5.023 2.187 7.6 7.6 0 0 1 2.055 4.534L3.89 7.185A6.84 6.84 0 0 1 8.385 5.5M4.596 21.125a7.34 7.34 0 0 1 .904-4.901 7.45 7.45 0 0 1 4.559-3.474 7.6 7.6 0 0 1 1.954-.25c1.051 0 2.091.222 3.05.652zM26.5 16.224a7.34 7.34 0 0 1 .904 4.9L16.936 13.15a7.53 7.53 0 0 1 9.564 3.074m-9.957-4a7.6 7.6 0 0 1 2.05-4.537 6.85 6.85 0 0 1 9.517-.5z"/></svg>