<svg xmlns="http://www.w3.org/2000/svg" width="32" height="32" fill="none" viewBox="0 0 32 32"><path fill="#000" d="M21 13.5h6a1.5 1.5 0 0 0 1.5-1.5V6A1.5 1.5 0 0 0 27 4.5h-6A1.5 1.5 0 0 0 19.5 6v2.5H18a3.5 3.5 0 0 0-3.5 3.5v3.5h-5V14A1.5 1.5 0 0 0 8 12.5H4A1.5 1.5 0 0 0 2.5 14v4A1.5 1.5 0 0 0 4 19.5h4A1.5 1.5 0 0 0 9.5 18v-1.5h5V20a3.5 3.5 0 0 0 3.5 3.5h1.5V26a1.5 1.5 0 0 0 1.5 1.5h6a1.5 1.5 0 0 0 1.5-1.5v-6a1.5 1.5 0 0 0-1.5-1.5h-6a1.5 1.5 0 0 0-1.5 1.5v2.5H18a2.5 2.5 0 0 1-2.5-2.5v-8A2.5 2.5 0 0 1 18 9.5h1.5V12a1.5 1.5 0 0 0 1.5 1.5M8.5 18a.5.5 0 0 1-.5.5H4a.5.5 0 0 1-.5-.5v-4a.5.5 0 0 1 .5-.5h4a.5.5 0 0 1 .5.5zm12 2a.5.5 0 0 1 .5-.5h6a.5.5 0 0 1 .5.5v6a.5.5 0 0 1-.5.5h-6a.5.5 0 0 1-.5-.5zm0-14a.5.5 0 0 1 .5-.5h6a.5.5 0 0 1 .5.5v6a.5.5 0 0 1-.5.5h-6a.5.5 0 0 1-.5-.5z"/></svg>