<svg xmlns="http://www.w3.org/2000/svg" width="32" height="32" fill="none" viewBox="0 0 32 32"><path fill="#000" d="m30.464 14.815-1.75-4.375a1.5 1.5 0 0 0-1.391-.94H22.5V8a.5.5 0 0 0-.5-.5H3A1.5 1.5 0 0 0 1.5 9v14A1.5 1.5 0 0 0 3 24.5h2.536a3.5 3.5 0 0 0 6.928 0h7.072a3.5 3.5 0 0 0 6.928 0H29a1.5 1.5 0 0 0 1.5-1.5v-8a.5.5 0 0 0-.036-.185M22.5 10.5h4.823a.5.5 0 0 1 .465.314L29.26 14.5H22.5zM2.5 9a.5.5 0 0 1 .5-.5h18.5v9h-19zM9 26.5a2.5 2.5 0 1 1 0-5 2.5 2.5 0 0 1 0 5m10.536-3h-7.072a3.5 3.5 0 0 0-6.928 0H3a.5.5 0 0 1-.5-.5v-4.5h19v2.339a3.5 3.5 0 0 0-1.964 2.661m3.464 3a2.5 2.5 0 1 1 0-5 2.5 2.5 0 0 1 0 5m6.5-3.5a.5.5 0 0 1-.5.5h-2.536a3.5 3.5 0 0 0-3.964-2.964V15.5h7z"/></svg>