<svg xmlns="http://www.w3.org/2000/svg" width="32" height="32" fill="none" viewBox="0 0 32 32"><path fill="#000" d="M30.463 8.809A.5.5 0 0 0 30 8.5h-4.1a5.57 5.57 0 0 0-4.894-3 5.35 5.35 0 0 0-3.86 1.569A5.48 5.48 0 0 0 15.5 11v1.395c-5.456-1.174-10-5.7-10.049-5.75a.5.5 0 0 0-.852.308C4.074 12.78 5.758 16.666 7.263 18.9a13 13 0 0 0 3.03 3.224c-1.96 2.561-5.432 3.891-5.468 3.905a.5.5 0 0 0-.241.75c.034.05.349.5 1.192.92 1.065.53 2.487.8 4.224.8 8.636 0 15.841-6.695 16.486-15.279l3.868-3.867a.5.5 0 0 0 .108-.545m-4.817 3.837a.5.5 0 0 0-.145.323C24.981 21.118 18.172 27.5 10 27.5c-2.231 0-3.454-.486-4.062-.859 1.296-.602 3.93-2.042 5.478-4.363a.5.5 0 0 0-.166-.71c-.016-.01-1.674-1-3.19-3.268-1.31-1.961-2.761-5.286-2.536-10.219 1.646 1.453 5.685 4.625 10.394 5.413a.5.5 0 0 0 .582-.5V11a4.5 4.5 0 0 1 1.349-3.22A4.38 4.38 0 0 1 21 6.5c1.775.023 3.436 1.108 4.133 2.701a.5.5 0 0 0 .45.3h3.21z"/></svg>