<svg xmlns="http://www.w3.org/2000/svg" width="32" height="32" fill="none" viewBox="0 0 32 32"><path fill="#000" d="M26 4.5H6A1.5 1.5 0 0 0 4.5 6v18A1.5 1.5 0 0 0 6 25.5h2.5V30a.5.5 0 0 0 .82.384l5.723-4.768a.5.5 0 0 1 .32-.116h5.275c.35 0 .69-.123.96-.348l5.362-4.468a1.49 1.49 0 0 0 .54-1.153V6A1.5 1.5 0 0 0 26 4.5m.5 15.031a.5.5 0 0 1-.18.385l-5.363 4.468a.5.5 0 0 1-.32.116h-5.274c-.352 0-.692.123-.962.348L9.5 28.933V25a.5.5 0 0 0-.5-.5H6a.5.5 0 0 1-.5-.5V6a.5.5 0 0 1 .5-.5h20a.5.5 0 0 1 .5.5zM21.5 11v6a.5.5 0 0 1-1 0v-6a.5.5 0 0 1 1 0m-6 0v6a.5.5 0 0 1-1 0v-6a.5.5 0 0 1 1 0"/></svg>