<svg xmlns="http://www.w3.org/2000/svg" width="32" height="32" fill="none" viewBox="0 0 32 32"><path fill="#000" d="M29.5 15.875A13.554 13.554 0 0 0 6.808 7.086a13.44 13.44 0 0 0-4.308 8.79A1.5 1.5 0 0 0 4 17.5h11.5V25a3.5 3.5 0 1 0 7 0 .5.5 0 0 0-1 0 2.5 2.5 0 0 1-5 0v-7.5H28a1.5 1.5 0 0 0 1.5-1.625M4 16.5a.5.5 0 0 1-.5-.547A12.525 12.525 0 0 1 14.716 4.566C13.25 6.22 10.636 10.056 10.5 16.5zm7.5 0c.151-7 3.45-10.796 4.493-11.821 1.05 1.026 4.348 4.821 4.5 11.821zm16.859-.162a.5.5 0 0 1-.375.162H21.5c-.125-6.444-2.75-10.28-4.212-11.934A12.525 12.525 0 0 1 28.5 15.953a.5.5 0 0 1-.134.385z"/></svg>