<svg xmlns="http://www.w3.org/2000/svg" width="32" height="32" fill="none" viewBox="0 0 32 32"><path fill="#000" d="M21.396 10.604a9.5 9.5 0 1 0-10.792 10.792 9.5 9.5 0 1 0 10.792-10.792M28.5 20q0 .825-.159 1.634l-7.167-7.168A9.5 9.5 0 0 0 21.5 12c0-.125 0-.25-.009-.366A8.51 8.51 0 0 1 28.5 20M5.65 6.358l7.293 7.29a9.5 9.5 0 0 0-1.762 2.826L3.96 9.25a8.5 8.5 0 0 1 1.69-2.892m3.6-2.399 7.223 7.222a9.5 9.5 0 0 0-2.825 1.762L6.358 5.65A8.5 8.5 0 0 1 9.25 3.96M20.5 12a8.45 8.45 0 0 1-.931 3.861l-3.43-3.43a8.45 8.45 0 0 1 3.861-.93c.163 0 .325 0 .485.014.015.16.015.323.015.485m-3.75 7.045-3.795-3.795a8.6 8.6 0 0 1 2.295-2.295l3.795 3.795a8.6 8.6 0 0 1-2.295 2.295M11.5 20c0-1.343.318-2.666.931-3.861l3.43 3.43a8.45 8.45 0 0 1-4.346.916A9 9 0 0 1 11.5 20m6.851-.942 7.291 7.292a8.5 8.5 0 0 1-2.892 1.691l-7.222-7.222a9.5 9.5 0 0 0 2.823-1.761m.707-.707a9.5 9.5 0 0 0 1.76-2.825l7.223 7.224a8.5 8.5 0 0 1-1.691 2.894zm1.308-7.842c-.125 0-.25-.009-.366-.009-.833 0-1.662.11-2.466.326L10.366 3.66a8.5 8.5 0 0 1 10 6.85M3.5 12q0-.824.159-1.634l7.167 7.168a9.5 9.5 0 0 0-.317 2.832A8.51 8.51 0 0 1 3.499 12m8.134 9.491c.125 0 .25.01.366.01a9.5 9.5 0 0 0 2.466-.327l7.168 7.167a8.497 8.497 0 0 1-10-6.85"/></svg>