<svg xmlns="http://www.w3.org/2000/svg" width="32" height="32" fill="none" viewBox="0 0 32 32"><path fill="#000" d="M29.5 17v8a1.5 1.5 0 0 1-1.5 1.5H4A1.5 1.5 0 0 1 2.5 25v-8A1.5 1.5 0 0 1 4 15.5h6a.5.5 0 0 1 0 1H4a.5.5 0 0 0-.5.5v8a.5.5 0 0 0 .5.5h24a.5.5 0 0 0 .5-.5v-8a.5.5 0 0 0-.5-.5h-6a.5.5 0 0 1 0-1h6a1.5 1.5 0 0 1 1.5 1.5M10.354 9.354 15.5 4.207V16a.5.5 0 0 0 1 0V4.207l5.146 5.147a.501.501 0 0 0 .708-.708l-6-6a.5.5 0 0 0-.708 0l-6 6a.5.5 0 1 0 .708.708M24.5 21a1 1 0 1 0-2 0 1 1 0 0 0 2 0"/></svg>