<svg xmlns="http://www.w3.org/2000/svg" width="32" height="32" fill="none" viewBox="0 0 32 32"><path fill="#000" d="m31.278 15.584-6-4A.499.499 0 0 0 24.5 12v3.5h-16V9a.5.5 0 0 1 .5-.5h4.536a3.5 3.5 0 1 0 0-1H9A1.5 1.5 0 0 0 7.5 9v6.5H1a.5.5 0 0 0 0 1h6.5V23A1.5 1.5 0 0 0 9 24.5h4.5V26a1.5 1.5 0 0 0 1.5 1.5h4a1.5 1.5 0 0 0 1.5-1.5v-4a1.5 1.5 0 0 0-1.5-1.5h-4a1.5 1.5 0 0 0-1.5 1.5v1.5H9a.5.5 0 0 1-.5-.5v-6.5h16V20a.5.5 0 0 0 .777.416l6-4a.5.5 0 0 0 0-.832M17 5.5a2.5 2.5 0 1 1 0 5 2.5 2.5 0 0 1 0-5M14.5 22a.5.5 0 0 1 .5-.5h4a.5.5 0 0 1 .5.5v4a.5.5 0 0 1-.5.5h-4a.5.5 0 0 1-.5-.5zm11-2.934v-6.132L30.099 16z"/></svg>