<svg xmlns="http://www.w3.org/2000/svg" width="32" height="32" fill="none" viewBox="0 0 32 32"><path fill="#000" d="M21.5 7a.5.5 0 0 1 .5-.5h2.5V4a.5.5 0 0 1 1 0v2.5H28a.5.5 0 0 1 0 1h-2.5V10a.5.5 0 0 1-1 0V7.5H22a.5.5 0 0 1-.5-.5m6.828 6.918a12.486 12.486 0 1 1-10.25-10.25.5.5 0 0 1-.165.986A11.7 11.7 0 0 0 16 4.5a11.5 11.5 0 0 0-8.146 19.609 9.45 9.45 0 0 1 5.564-4.25 5.5 5.5 0 1 1 5.165 0 9.45 9.45 0 0 1 5.563 4.25A11.46 11.46 0 0 0 27.5 16q0-.966-.159-1.918a.5.5 0 0 1 .986-.165M16 19.5a4.5 4.5 0 1 0 0-9.001 4.5 4.5 0 0 0 0 9.001m0 8a11.45 11.45 0 0 0 7.392-2.698 8.499 8.499 0 0 0-14.783 0A11.45 11.45 0 0 0 16 27.5"/></svg>