<svg xmlns="http://www.w3.org/2000/svg" width="32" height="32" fill="none" viewBox="0 0 32 32"><path fill="#000" d="M18.5 10a.5.5 0 0 1 .5-.5h12a.5.5 0 1 1 0 1H19a.5.5 0 0 1-.5-.5M31 15.5H19a.5.5 0 0 0 0 1h12a.5.5 0 1 0 0-1m0 6h-9a.5.5 0 0 0 0 1h9a.5.5 0 1 0 0-1m-12.516 2.375a.5.5 0 0 1-.968.25c-.839-3.26-4-5.625-7.516-5.625s-6.676 2.365-7.516 5.625a.5.5 0 1 1-.968-.25c.74-2.875 3.071-5.143 5.94-6a5.5 5.5 0 1 1 5.088 0c2.868.857 5.206 3.125 5.94 6M10 17.5a4.5 4.5 0 1 0 0-9 4.5 4.5 0 0 0 0 9"/></svg>