<svg xmlns="http://www.w3.org/2000/svg" width="32" height="32" fill="none" viewBox="0 0 32 32"><path fill="#000" d="M3.7 15.4a.5.5 0 0 0 .7-.1 7 7 0 0 1 11.2 0 .49.49 0 0 0 .798 0 7 7 0 0 1 11.2 0 .501.501 0 0 0 .8-.6 7.94 7.94 0 0 0-4.063-2.856 4.5 4.5 0 1 0-4.675 0 7.9 7.9 0 0 0-3.662 2.375 7.9 7.9 0 0 0-3.663-2.375 4.5 4.5 0 1 0-4.675 0A7.95 7.95 0 0 0 3.6 14.7a.5.5 0 0 0 .1.7M18.5 8a3.5 3.5 0 1 1 7 0 3.5 3.5 0 0 1-7 0m-12 0a3.5 3.5 0 1 1 7 0 3.5 3.5 0 0 1-7 0m17.838 16.844a4.5 4.5 0 1 0-4.675 0A7.9 7.9 0 0 0 16 27.213a7.9 7.9 0 0 0-3.662-2.37 4.5 4.5 0 1 0-4.675 0A7.95 7.95 0 0 0 3.6 27.7a.5.5 0 1 0 .8.6 7 7 0 0 1 11.2 0 .49.49 0 0 0 .798 0 7 7 0 0 1 11.2 0 .5.5 0 0 0 .8-.6 7.94 7.94 0 0 0-4.06-2.856M6.5 21a3.5 3.5 0 1 1 7 0 3.5 3.5 0 0 1-7 0m12 0a3.5 3.5 0 1 1 7 0 3.5 3.5 0 0 1-7 0"/></svg>