<svg xmlns="http://www.w3.org/2000/svg" width="32" height="32" fill="none" viewBox="0 0 32 32"><path fill="#000" d="M29.625 18.43a.5.5 0 0 1-.685-.175c-1.041-1.75-2.616-2.75-4.32-2.75a.5.5 0 0 1-.15-.025 5 5 0 0 1-.475.025.5.5 0 0 1 0-1 3.5 3.5 0 1 0-3.39-4.375.5.5 0 0 1-.969-.25 4.5 4.5 0 1 1 6.75 4.935c1.352.481 2.564 1.5 3.414 2.935a.5.5 0 0 1-.175.68m-6.192 8.32a.5.5 0 0 1-.866.5 7.626 7.626 0 0 0-13.135 0 .5.5 0 0 1-.864-.5 8.54 8.54 0 0 1 4.898-3.875 5.5 5.5 0 1 1 5.068 0 8.54 8.54 0 0 1 4.899 3.875M16 22.5a4.5 4.5 0 1 0 0-9 4.5 4.5 0 0 0 0 9m-8-8a3.5 3.5 0 1 1 3.39-4.375.5.5 0 0 0 .969-.25 4.5 4.5 0 1 0-6.696 4.969A7.94 7.94 0 0 0 1.6 17.7a.5.5 0 1 0 .8.6A6.94 6.94 0 0 1 8 15.5a.5.5 0 0 0 0-1"/></svg>