<svg xmlns="http://www.w3.org/2000/svg" width="32" height="32" fill="none" viewBox="0 0 32 32"><path fill="#000" d="M16.646 19.855a8 8 0 1 0-6.292 0c-2.97.683-5.648 2.336-7.736 4.824a.5.5 0 1 0 .765.642C6 22.213 9.588 20.501 13.5 20.501s7.5 1.712 10.118 4.82a.5.5 0 0 0 .765-.642c-2.09-2.488-4.767-4.141-7.737-4.824M6.5 12.5a7 7 0 1 1 7 7 7.01 7.01 0 0 1-7-7m23.781 5.818-.906-.527a2.47 2.47 0 0 0 0-1.582l.911-.526a.5.5 0 0 0-.5-.865l-.913.526a2.5 2.5 0 0 0-1.373-.794V13.5a.5.5 0 0 0-1 0v1.05a2.5 2.5 0 0 0-1.367.794l-.914-.526a.5.5 0 1 0-.5.865l.911.526a2.47 2.47 0 0 0 0 1.582l-.911.527a.5.5 0 0 0 .5.865l.914-.527a2.5 2.5 0 0 0 1.367.794v1.05a.5.5 0 0 0 1 0v-1.05a2.5 2.5 0 0 0 1.368-.794l.913.527a.5.5 0 0 0 .5-.865m-3.28.182a1.5 1.5 0 1 1 0-3 1.5 1.5 0 0 1 0 3"/></svg>