<svg xmlns="http://www.w3.org/2000/svg" width="32" height="32" fill="none" viewBox="0 0 32 32"><path fill="#000" d="M13.399 19.875a7 7 0 1 0-5.798 0 11.48 11.48 0 0 0-6.74 4.851.5.5 0 1 0 .837.547 10.5 10.5 0 0 1 17.605 0 .5.5 0 1 0 .837-.547 11.48 11.48 0 0 0-6.741-4.85M4.5 13.5a6 6 0 1 1 6 6 6.007 6.007 0 0 1-6-6M31 25.42a.5.5 0 0 1-.691-.146A10.48 10.48 0 0 0 21.5 20.5a.5.5 0 0 1 0-1 6 6 0 1 0-2.227-11.572.501.501 0 0 1-.375-.93 7 7 0 1 1 5.5 12.876c2.774.72 5.18 2.453 6.74 4.857a.5.5 0 0 1-.138.688"/></svg>