<svg xmlns="http://www.w3.org/2000/svg" width="32" height="32" fill="none" viewBox="0 0 32 32"><path fill="#000" d="m31.354 16.354-3 3a.5.5 0 0 1-.708 0l-3-3a.5.5 0 0 1 .707-.708l2.147 2.147V16A11.5 11.5 0 0 0 6.656 9.293a.5.5 0 0 1-.812-.585A12.5 12.5 0 0 1 28.5 16v1.793l2.146-2.147a.501.501 0 0 1 .707.708m-5.2 6.939A12.5 12.5 0 0 1 3.5 16v-1.792l-2.146 2.146a.5.5 0 0 1-.708-.708l3-3a.5.5 0 0 1 .708 0l3 3a.5.5 0 1 1-.708.708L4.5 14.208V16a11.46 11.46 0 0 0 3.354 8.109 9.45 9.45 0 0 1 5.563-4.25 5.5 5.5 0 1 1 5.165 0 9.45 9.45 0 0 1 5.565 4.259q.655-.655 1.195-1.405a.5.5 0 1 1 .812.585zM16 19.5a4.5 4.5 0 1 0 0-9 4.5 4.5 0 0 0 0 9m0 8a11.53 11.53 0 0 0 7.392-2.696 8.5 8.5 0 0 0-14.783 0 11.45 11.45 0 0 0 7.39 2.696"/></svg>