<svg xmlns="http://www.w3.org/2000/svg" width="32" height="32" fill="none" viewBox="0 0 32 32"><path fill="#000" d="m31.375 14.675-5.691-6.638a1.5 1.5 0 0 0-1.152-.537H4A1.5 1.5 0 0 0 2.5 9v14A1.5 1.5 0 0 0 4 24.5h2.536a3.5 3.5 0 0 0 6.928 0h7.072a3.5 3.5 0 0 0 6.928 0H30a1.5 1.5 0 0 0 1.5-1.5v-8a.5.5 0 0 0-.125-.325M24.92 8.684l4.993 5.816H21.5v-6h3.032a.5.5 0 0 1 .388.184M12.5 14.5v-6h8v6zM4 8.5h7.5v6h-8V9a.5.5 0 0 1 .5-.5m6 18a2.5 2.5 0 1 1 0-5 2.5 2.5 0 0 1 0 5m14 0a2.5 2.5 0 1 1 0-5 2.5 2.5 0 0 1 0 5m6-3h-2.536a3.5 3.5 0 0 0-6.928 0h-7.072a3.5 3.5 0 0 0-6.928 0H4a.5.5 0 0 1-.5-.5v-7.5h27V23a.5.5 0 0 1-.5.5"/></svg>