<svg xmlns="http://www.w3.org/2000/svg" width="32" height="32" fill="none" viewBox="0 0 32 32"><path fill="#000" d="M31.236 9.559a.5.5 0 0 0-.514.025L25.5 13.066V9A1.5 1.5 0 0 0 24 7.5h-9.867a.5.5 0 0 0 0 1H24a.5.5 0 0 1 .5.5v10.953a.5.5 0 0 0 1 0v-1.02l5.223 3.483A.5.5 0 0 0 31.5 22V10a.5.5 0 0 0-.264-.441M30.5 21.066l-5-3.334v-3.465l5-3.333zM6.375 4.664a.504.504 0 1 0-.75.672L7.598 7.5H4A1.5 1.5 0 0 0 2.5 9v14A1.5 1.5 0 0 0 4 24.5h19.051l2.574 2.836a.499.499 0 1 0 .74-.672zM4 23.5a.5.5 0 0 1-.5-.5V9a.5.5 0 0 1 .5-.5h4.506l13.636 15z"/></svg>