<svg xmlns="http://www.w3.org/2000/svg" width="32" height="32" fill="none" viewBox="0 0 32 32"><path fill="#000" d="M16 3.5A12.5 12.5 0 1 0 28.5 16 12.514 12.514 0 0 0 16 3.5m10.625 16.899a11.5 11.5 0 0 1-12.772.321l2.436-4.22h11.2c-.058 1.34-.35 2.66-.864 3.899M10.69 5.803a11.4 11.4 0 0 1 3.81-1.204A11.5 11.5 0 0 1 21.161 15.5h-4.875zM27.489 15.5H22.16a12.51 12.51 0 0 0-5.75-10.991A11.514 11.514 0 0 1 27.49 15.5M9.824 6.303l2.662 4.61a12.51 12.51 0 0 0-6.645 10.472A11.49 11.49 0 0 1 9.824 6.302m-2.949 16.69a11.5 11.5 0 0 1 6.109-11.213L15.422 16l-5.598 9.698a11.6 11.6 0 0 1-2.949-2.706M16 27.5a11.4 11.4 0 0 1-5.31-1.302l2.662-4.612a12.51 12.51 0 0 0 12.388.52A11.5 11.5 0 0 1 16 27.5"/></svg>