<svg xmlns="http://www.w3.org/2000/svg" width="32" height="32" fill="none" viewBox="0 0 32 32"><path fill="#000" d="M15.5 17v-7a.5.5 0 0 1 1 0v7a.5.5 0 0 1-1 0m13-5.556v9.112a1.5 1.5 0 0 1-.439 1.061l-6.443 6.444a1.5 1.5 0 0 1-1.062.439h-9.112a1.5 1.5 0 0 1-1.062-.439L3.94 21.618a1.5 1.5 0 0 1-.439-1.062v-9.112a1.5 1.5 0 0 1 .439-1.062l6.444-6.443a1.5 1.5 0 0 1 1.06-.439h9.113a1.5 1.5 0 0 1 1.061.439l6.444 6.444a1.5 1.5 0 0 1 .439 1.06m-1 0a.5.5 0 0 0-.146-.354L20.91 4.646a.5.5 0 0 0-.354-.146h-9.112a.5.5 0 0 0-.354.146L4.646 11.09a.5.5 0 0 0-.146.354v9.112a.5.5 0 0 0 .146.354l6.444 6.444a.5.5 0 0 0 .354.146h9.112c.133 0 .26-.053.354-.146l6.444-6.444a.5.5 0 0 0 .146-.354zM16 20.5a1 1 0 1 0 0 2 1 1 0 0 0 0-2"/></svg>