<svg xmlns="http://www.w3.org/2000/svg" width="32" height="32" fill="none" viewBox="0 0 32 32"><path fill="#000" d="M15.5 17v-7a.5.5 0 0 1 1 0v7a.5.5 0 0 1-1 0m.5 3.5a1 1 0 1 0 0 2 1 1 0 0 0 0-2M29.5 16a1.49 1.49 0 0 1-.437 1.056L17.056 29.064a1.5 1.5 0 0 1-2.112 0l-12-12.008a1.5 1.5 0 0 1 0-2.112L14.95 2.936a1.5 1.5 0 0 1 2.113 0l12.006 12.008A1.48 1.48 0 0 1 29.5 16m-1 0a.5.5 0 0 0-.145-.349L16.349 3.644a.5.5 0 0 0-.698 0l-12 12.007a.49.49 0 0 0 0 .698l12.007 12.007a.5.5 0 0 0 .697 0L28.361 16.35A.49.49 0 0 0 28.5 16"/></svg>