<svg xmlns="http://www.w3.org/2000/svg" width="32" height="32" fill="none" viewBox="0 0 32 32"><path fill="#000" d="M25.5 16a9.5 9.5 0 0 0-4.044-7.77l-.815-4.5a1.5 1.5 0 0 0-1.476-1.23h-6.33a1.5 1.5 0 0 0-1.476 1.233l-.815 4.5a9.486 9.486 0 0 0 0 15.54l.815 4.5a1.5 1.5 0 0 0 1.476 1.227h6.33a1.5 1.5 0 0 0 1.476-1.233l.815-4.5A9.5 9.5 0 0 0 25.5 16M12.342 3.911a.5.5 0 0 1 .493-.411h6.33a.5.5 0 0 1 .492.411l.658 3.625a9.46 9.46 0 0 0-8.625 0zm7.315 24.178a.5.5 0 0 1-.492.411h-6.33a.5.5 0 0 1-.493-.411l-.657-3.625a9.46 9.46 0 0 0 8.625 0zM16 24.5a8.5 8.5 0 1 1 8.5-8.5 8.51 8.51 0 0 1-8.5 8.5m5.5-8.5a.5.5 0 0 1-.5.5h-5a.5.5 0 0 1-.5-.5v-5a.5.5 0 1 1 1 0v4.5H21a.5.5 0 0 1 .5.5"/></svg>