<svg xmlns="http://www.w3.org/2000/svg" width="32" height="32" fill="none" viewBox="0 0 32 32"><path fill="#000" d="M4.645 9.351a.5.5 0 0 1 0-.705C4.734 8.56 6.84 6.5 11 6.5c2.151 0 3.74 1.06 5.277 2.084C17.75 9.569 19.151 10.5 21 10.5c3.721 0 5.625-1.836 5.647-1.855a.5.5 0 0 1 .707.709C27.266 9.44 25.16 11.5 21 11.5c-2.151 0-3.74-1.06-5.278-2.084C14.25 8.431 12.85 7.5 11 7.5c-3.721 0-5.625 1.836-5.648 1.855a.5.5 0 0 1-.707-.004m22 6.294c-.02.019-1.924 1.855-5.645 1.855-1.849 0-3.25-.931-4.723-1.916C14.74 14.56 13.151 13.5 11 13.5c-4.16 0-6.266 2.059-6.354 2.146a.5.5 0 0 0 .706.709C5.375 16.336 7.28 14.5 11 14.5c1.849 0 3.25.931 4.722 1.916C17.26 17.44 18.847 18.5 21 18.5c4.16 0 6.266-2.059 6.354-2.146a.5.5 0 0 0-.707-.709zm0 7c-.02.019-1.924 1.855-5.645 1.855-1.849 0-3.25-.931-4.723-1.916C14.74 21.56 13.151 20.5 11 20.5c-4.16 0-6.266 2.059-6.354 2.146a.5.5 0 0 0 .706.709C5.375 23.336 7.28 21.5 11 21.5c1.849 0 3.25.931 4.722 1.916C17.26 24.44 18.847 25.5 21 25.5c4.16 0 6.266-2.059 6.354-2.146a.5.5 0 0 0-.707-.709z"/></svg>