<svg xmlns="http://www.w3.org/2000/svg" width="32" height="32" fill="none" viewBox="0 0 32 32"><path fill="#000" d="m26.375 26.664-20-22a.504.504 0 0 0-.75.672l2.35 2.58a9.5 9.5 0 0 0 7.525 14.57V25.5H4a.5.5 0 0 0 0 1h20.875l.76.836a.499.499 0 1 0 .74-.672M12.5 12.898l3.268 3.593a3.5 3.5 0 0 1-3.268-3.49zM7.5 13a8.45 8.45 0 0 1 1.175-4.315l2.95 3.25a4.5 4.5 0 0 0 5.016 5.518l2.954 3.25A8.5 8.5 0 0 1 7.5 13m9 12.5v-3.014a9.5 9.5 0 0 0 3.799-1.013L23.96 25.5zM11.125 5.416a.5.5 0 0 1 .188-.68 9.5 9.5 0 0 1 12.47 13.714.5.5 0 1 1-.82-.574A8.5 8.5 0 0 0 11.808 5.604a.5.5 0 0 1-.682-.188m8.204 8.668a3.501 3.501 0 0 0-4.091-4.5.5.5 0 1 1-.218-.976 4.5 4.5 0 0 1 5.26 5.785.5.5 0 1 1-.951-.31"/></svg>