<svg xmlns="http://www.w3.org/2000/svg" width="32" height="32" fill="none" viewBox="0 0 32 32"><path fill="#000" d="M22.588 22.5h-9.112a5.5 5.5 0 1 1-9.875-3.801.5.5 0 1 1 .8.6A4.5 4.5 0 1 0 12.5 22a.5.5 0 0 1 .5-.499h9.588a1.5 1.5 0 1 1 0 1M8 23.5a1.5 1.5 0 0 0 1.166-2.442l4.64-7.538a.5.5 0 0 0-.165-.689 4.5 4.5 0 1 1 6.484-5.634.5.5 0 1 0 .916-.398 5.5 5.5 0 1 0-8.338 6.603l-4.388 7.132A1.5 1.5 0 1 0 8 23.5m16-7a5.5 5.5 0 0 0-2.445.572l-4.389-7.125a1.5 1.5 0 1 0-.85.52L20.953 18a.5.5 0 0 0 .687.164 4.5 4.5 0 1 1 2.36 8.336.5.5 0 1 0 0 1 5.5 5.5 0 0 0 0-11"/></svg>