<svg xmlns="http://www.w3.org/2000/svg" width="32" height="32" fill="none" viewBox="0 0 32 32"><path fill="#000" d="m23.224 18.553-4-2a.5.5 0 0 0-.5.03l-2.08 1.388a5.57 5.57 0 0 1-2.614-2.613l1.387-2.08a.5.5 0 0 0 .032-.5l-2-4a.5.5 0 0 0-.45-.278A4.5 4.5 0 0 0 8.5 13 10.51 10.51 0 0 0 19 23.5a4.5 4.5 0 0 0 4.5-4.5.5.5 0 0 0-.275-.448M19 22.5A9.51 9.51 0 0 1 9.5 13a3.5 3.5 0 0 1 3.197-3.488l1.725 3.452-1.375 2.067A.5.5 0 0 0 13 15.5a6.55 6.55 0 0 0 3.5 3.5.5.5 0 0 0 .47-.046l2.067-1.375 3.452 1.725a3.5 3.5 0 0 1-3.49 3.196m-3-19A12.5 12.5 0 0 0 5.066 22.063l-1.487 4.46a1.5 1.5 0 0 0 1.897 1.898l4.461-1.487A12.5 12.5 0 1 0 16 3.5m0 24a11.5 11.5 0 0 1-5.759-1.544.5.5 0 0 0-.409-.041L5.16 27.473a.5.5 0 0 1-.633-.633l1.558-4.672a.5.5 0 0 0-.041-.41A11.5 11.5 0 1 1 16 27.5"/></svg>