<svg xmlns="http://www.w3.org/2000/svg" width="32" height="32" fill="none" viewBox="0 0 32 32"><path fill="#000" d="M17 25.5a1 1 0 1 1-2 0 1 1 0 0 1 2 0M6.375 4.664a.504.504 0 1 0-.75.672L8.09 8.042a21 21 0 0 0-5.408 3.219.5.5 0 0 0 .635.774A20 20 0 0 1 8.81 8.832l3.705 4.076a15 15 0 0 0-5.825 2.83.501.501 0 0 0 .625.784 14 14 0 0 1 5.981-2.758l4.455 4.907A9 9 0 0 0 16 18.5a8.94 8.94 0 0 0-5.295 1.721.5.5 0 0 0 .59.809 8 8 0 0 1 7.764-.923l6.566 7.229a.499.499 0 1 0 .74-.672zm22.943 6.597A21.04 21.04 0 0 0 13.311 6.67a.5.5 0 1 0 .126.992Q14.714 7.5 16 7.5a20.03 20.03 0 0 1 12.683 4.535.5.5 0 0 0 .634-.774m-4.626 5.261a.502.502 0 0 0 .625-.783 15 15 0 0 0-6.257-2.928.5.5 0 1 0-.202.979 14 14 0 0 1 5.832 2.732z"/></svg>