<svg xmlns="http://www.w3.org/2000/svg" width="32" height="32" fill="none" viewBox="0 0 32 32"><path fill="#000" d="M17 25.5a1 1 0 1 1-2.002 0 1 1 0 0 1 2.002 0M25.708 10l2.646-2.646a.5.5 0 1 0-.708-.708L25 9.292l-2.646-2.646a.5.5 0 1 0-.708.708L24.292 10l-2.646 2.646a.5.5 0 0 0 .708.707L25 10.708l2.646 2.646a.501.501 0 0 0 .708-.707zM21.294 20.22a9 9 0 0 0-10.589 0 .5.5 0 0 0 .589.808 8.01 8.01 0 0 1 9.411 0 .5.5 0 1 0 .589-.808M17.95 7.596a.503.503 0 1 0 .098-1 21.041 21.041 0 0 0-15.366 4.665.5.5 0 0 0 .634.774 20.03 20.03 0 0 1 14.634-4.441zm-.02 6.039a.5.5 0 1 0 .138-.992A15 15 0 0 0 16 12.5a14.84 14.84 0 0 0-9.31 3.239.502.502 0 0 0 .625.783A13.85 13.85 0 0 1 16 13.5q.97 0 1.931.132z"/></svg>