<svg xmlns="http://www.w3.org/2000/svg" width="32" height="32" fill="none" viewBox="0 0 32 32"><path fill="#000" d="M27 17.5H17a.5.5 0 0 0-.5.5v7.181a.5.5 0 0 0 .41.493l10 1.819q.045.007.09.007a.5.5 0 0 0 .5-.5v-9a.5.5 0 0 0-.5-.5m-.5 8.901-9-1.636V18.5h9zM13 17.5H5a.5.5 0 0 0-.5.5v5a.5.5 0 0 0 .41.492l8 1.454q.045.01.09.009a.5.5 0 0 0 .5-.5V18a.5.5 0 0 0-.5-.5m-.5 6.355-7-1.273V18.5h7zM27.32 4.616a.5.5 0 0 0-.41-.109l-10 1.82a.5.5 0 0 0-.41.492V14a.5.5 0 0 0 .5.5h10a.5.5 0 0 0 .5-.5V5a.5.5 0 0 0-.18-.384M26.5 13.5h-9V7.235l9-1.636zM12.91 7.054l-8 1.453A.5.5 0 0 0 4.5 9v5a.5.5 0 0 0 .5.5h8a.5.5 0 0 0 .5-.5V7.545a.5.5 0 0 0-.59-.491M12.5 13.5h-7V9.417l7-1.272z"/></svg>