<svg xmlns="http://www.w3.org/2000/svg" width="32" height="32" fill="none" viewBox="0 0 32 32"><path fill="#000" d="m25.188 12.1-2.723-9.241a.5.5 0 0 0-.479-.359H10.014a.5.5 0 0 0-.479.359L6.813 12.1a7.44 7.44 0 0 0 2.04 7.577A10.42 10.42 0 0 0 15.5 22.49V28.5H11a.5.5 0 0 0 0 1h10a.5.5 0 0 0 0-1h-4.5v-6.011a10.42 10.42 0 0 0 6.648-2.812 7.44 7.44 0 0 0 2.04-7.577m-14.8-8.6h11.225l2.616 8.883c.054.186.1.375.137.558-2.955 1.309-6.345.023-8.14-.887-3.527-1.787-6.185-1.763-7.985-1.268zm12.077 15.446a9.46 9.46 0 0 1-12.93 0 6.44 6.44 0 0 1-1.764-6.564l.125-.432c1.583-.609 4.182-.875 7.875 1 1.354.675 3.52 1.55 5.83 1.55a7.9 7.9 0 0 0 2.9-.527 6.4 6.4 0 0 1-2.036 4.973"/></svg>