<svg xmlns="http://www.w3.org/2000/svg" width="32" height="32" fill="none" viewBox="0 0 32 32"><path fill="#000" d="M27.881 8.812a.5.5 0 0 0-.802-.18l-5.228 4.825-2.726-.582-.585-2.724 4.825-5.227a.5.5 0 0 0-.18-.804 8.5 8.5 0 0 0-10.817 11.63L4.55 22.5l-.026.025a3.5 3.5 0 0 0 4.95 4.95l.025-.026 6.75-7.818A8.5 8.5 0 0 0 28.5 12a8.4 8.4 0 0 0-.619-3.188M20 19.5a7.5 7.5 0 0 1-3.625-.934.5.5 0 0 0-.625.111l-7 8.104a2.5 2.5 0 0 1-3.531-3.531l8.102-7a.5.5 0 0 0 .111-.625A7.5 7.5 0 0 1 22.115 4.8l-4.484 4.86a.5.5 0 0 0-.125.444l.708 3.294a.5.5 0 0 0 .384.383l3.293.708a.5.5 0 0 0 .444-.125l4.859-4.484A7.506 7.506 0 0 1 20 19.5"/></svg>